<?xml version="1.0" encoding="UTF-8" standalone="no"?>
<svg
   width="297mm"
   height="210mm"
   viewBox="0 0 4209.4489 2976.378"
   version="1.2"
   id="svg90"
   sodipodi:docname="do_majeur.svg"
   inkscape:version="1.2.2 (b0a8486541, 2022-12-01)"
   xmlns:inkscape="http://www.inkscape.org/namespaces/inkscape"
   xmlns:sodipodi="http://sodipodi.sourceforge.net/DTD/sodipodi-0.dtd"
   xmlns="http://www.w3.org/2000/svg"
   xmlns:svg="http://www.w3.org/2000/svg"
   xmlns:rdf="http://www.w3.org/1999/02/22-rdf-syntax-ns#"
   xmlns:cc="http://creativecommons.org/ns#"
   xmlns:dc="http://purl.org/dc/elements/1.1/">
  <defs
     id="defs94" />
  <sodipodi:namedview
     id="namedview92"
     pagecolor="#ffffff"
     bordercolor="#000000"
     borderopacity="0.25"
     inkscape:showpageshadow="2"
     inkscape:pageopacity="0.0"
     inkscape:pagecheckerboard="0"
     inkscape:deskcolor="#d1d1d1"
     inkscape:document-units="mm"
     showgrid="false"
     inkscape:zoom="0.34128173"
     inkscape:cx="430.72918"
     inkscape:cy="401.42788"
     inkscape:window-width="1104"
     inkscape:window-height="552"
     inkscape:window-x="0"
     inkscape:window-y="32"
     inkscape:window-maximized="1"
     inkscape:current-layer="svg90" />
  <title
     id="title2">Partition sans titre</title>
  <desc
     id="desc4">Generated by MuseScore Studio 4.5.2</desc>
  <polyline
     class="StaffLines"
     fill="none"
     stroke="#000000"
     stroke-width="2.73"
     stroke-linejoin="bevel"
     points="336.598,668.478 2764.6,668.478"
     id="polyline6"
     transform="matrix(1.0992182,0,0,4,429.66265,-1839.5801)" />
  <polyline
     class="StaffLines"
     fill="none"
     stroke="#000000"
     stroke-width="2.73"
     stroke-linejoin="bevel"
     points="336.598,693.278 2764.6,693.278"
     id="polyline8"
     transform="matrix(1.0992182,0,0,4,429.66265,-1839.5801)" />
  <polyline
     class="StaffLines"
     fill="none"
     stroke="#000000"
     stroke-width="2.73"
     stroke-linejoin="bevel"
     points="336.598,718.078 2764.6,718.078"
     id="polyline10"
     transform="matrix(1.0992182,0,0,4,429.66265,-1839.5801)" />
  <polyline
     class="StaffLines"
     fill="none"
     stroke="#000000"
     stroke-width="2.73"
     stroke-linejoin="bevel"
     points="336.598,742.878 2764.6,742.878"
     id="polyline12"
     transform="matrix(1.0992182,0,0,4,429.66265,-1839.5801)" />
  <polyline
     class="StaffLines"
     fill="none"
     stroke="#000000"
     stroke-width="2.73"
     stroke-linejoin="bevel"
     points="336.598,767.678 2764.6,767.678"
     id="polyline14"
     transform="matrix(1.0992182,0,0,4,429.66265,-1839.5801)" />
  <path
     class="Text"
     d="m 1146.1076,151.49176 h -9.25 l -50.594,128.25 c -5.938,17.156 -11.656,22.438 -24.188,23.314 h -0.876 v 10.342 h 58.282 v -10.342 h -4.406 c -11.876,0 -17.812,-4.188 -17.812,-12.532 0,-2.876 0.656,-5.5 2,-9.25 l 7.25,-19.344 h 58.312 l 11.868,29.468 c 1.32,3.532 1.76,4.844 1.76,5.938 0,3.532 -5.5,5.72 -13.628,5.72 h -9.25 v 10.342 h 68.178 v -10.342 h -3.06 c -11.44,-0.22 -13.44,-1.532 -18.5,-14.064 l -56.086,-137.5 m -10.782,36.064 24.874,62.468 h -49.28 l 24.406,-62.468 m 171.568,93.5 c -7.04,15.842 -14.5,22.218 -25.94,22.218 -17.6,0 -28.6,-16.062 -28.6,-41.782 0,-26.844 10.78,-44.468 27.04,-44.468 6.62,0 12.34,3.094 12.34,6.624 0,0.658 -0.22,1.314 -1.34,2.626 -3.5,4.188 -4.38,6.374 -4.38,10.124 0,7.25 5.5,12.314 13.18,12.314 7.94,0 13.44,-6.156 13.44,-14.938 0,-14.968 -14.74,-26.188 -34.34,-26.188 -28.6,0 -49.06,23.312 -49.06,56.312 0,31.25 18.72,52.814 46,52.814 19.56,0 30.78,-9.032 40.24,-32.344 l -8.58,-3.312 m 97.86,0 c -7.02,15.842 -14.5,22.218 -25.92,22.218 -17.6,0 -28.6,-16.062 -28.6,-41.782 0,-26.844 10.78,-44.468 27.02,-44.468 6.64,0 12.36,3.094 12.36,6.624 0,0.658 -0.22,1.314 -1.36,2.626 -3.5,4.188 -4.36,6.374 -4.36,10.124 0,7.25 5.5,12.314 13.18,12.314 7.94,0 13.44,-6.156 13.44,-14.938 0,-14.968 -14.76,-26.188 -34.34,-26.188 -28.6,0 -49.06,23.312 -49.06,56.312 0,31.25 18.72,52.814 46,52.814 19.56,0 30.78,-9.032 40.24,-32.344 l -8.6,-3.312 m 67.72,-73.47 c -27.06,0 -47.96,23.97 -47.96,54.782 0,30.124 21.12,54.344 47.54,54.344 26.4,0 47.52,-24.22 47.52,-54.564 0,-30.156 -21.12,-54.562 -47.1,-54.562 m 0,9.438 c 15.42,0 23.98,16.062 23.98,45.124 0,29.25 -8.56,45.094 -24.4,45.094 -15.86,0 -24.42,-15.844 -24.42,-44.874 0,-29.938 8.34,-45.344 24.84,-45.344 m 98.1,-6.156 -38.94,2.438 v 9.468 h 9 c 8.38,0.218 9.48,1.532 9.48,11 v 62.906 c -0.22,3.312 -0.44,4.626 -1.32,5.718 -1.54,1.97 -5.94,2.876 -15.4,3.094 h -0.88 v 7.906 h 58.74 v -7.906 h -3.96 c -14.74,-0.468 -16.72,-1.562 -16.72,-9.468 v -11.876 c 0.22,-36.968 13.4,-65.124 30.56,-66 -3.06,3.5 -3.94,5.72 -3.94,9.876 0,7.062 5.06,12.124 12.1,12.124 8.12,0 13.4,-5.936 13.4,-14.75 0,-10.78 -7.46,-17.812 -19.12,-17.812 -13.88,0 -25.74,11 -33,30.562 v -27.28 m 135.9,104.062 38.28,-1.532 v -9.468 h -3.96 c -12.54,-0.656 -13.62,-1.968 -13.62,-16.062 v -136.626 l -43.12,2.438 v 9.468 h 12.96 c 8.38,0.22 9.46,1.532 9.46,11 v 49.72 c -8.12,-11.22 -17.58,-16.282 -30.34,-16.282 -24.88,0 -43.78,23.97 -43.78,55.656 0,31.25 18.26,53.47 43.78,53.47 13.84,0 23.32,-5.938 30.34,-19.156 v 17.374 m -25.96,-95.468 c 9.04,0 17.62,6.594 21.56,16.718 2.88,6.594 4.18,15.626 4.18,26.406 0,25.72 -10.12,42.22 -25.96,42.22 -15.6,0 -24.84,-14.5 -24.84,-38.938 0,-13.188 1.3,-23.094 4.18,-30.344 3.72,-9.906 11.88,-16.062 20.88,-16.062 m 213.38,95.468 38.28,-1.532 v -9.468 h -3.98 c -12.52,-0.656 -13.62,-1.968 -13.62,-16.062 v -136.626 l -43.12,2.438 v 9.468 h 12.96 c 8.38,0.22 9.48,1.532 9.48,11 v 49.72 c -8.14,-11.22 -17.6,-16.282 -30.34,-16.282 -24.88,0 -43.8,23.97 -43.8,55.656 0,31.25 18.26,53.47 43.8,53.47 13.84,0 23.3,-5.938 30.34,-19.156 v 17.374 m -25.98,-95.468 c 9.04,0 17.64,6.594 21.56,16.718 2.88,6.594 4.2,15.626 4.2,26.406 0,25.72 -10.12,42.22 -25.98,42.22 -15.58,0 -24.84,-14.5 -24.84,-38.938 0,-13.188 1.32,-23.094 4.2,-30.344 3.7,-9.906 11.86,-16.062 20.86,-16.062 m 170.94,44.436 c 0.22,-33 -18.5,-56.312 -45.34,-56.312 -28.16,0 -49.28,24.406 -49.28,57.406 0,31.032 20.02,51.72 49.72,51.72 21.12,0 35.88,-10.344 44.9,-31.25 l -7.72,-4.188 c -9,16.938 -18.24,23.532 -33,23.532 -11.22,0 -19.34,-4.594 -25.06,-14.5 -3.96,-6.594 -5.72,-14.314 -5.5,-26.408 h 71.28 m -71.06,-9.468 c 0,-15.406 7.04,-37.406 25.5,-37.406 13.22,0 22,11.688 22,29.5 0,6.156 -1.96,7.906 -9,7.906 h -38.5 m 146.26,58.968 h 73.92 c 19.58,0 34.54,-3.092 46.2,-9.686 22.22,-12.532 34.52,-37.626 34.52,-70.626 0,-30.344 -11,-54.094 -31.22,-67.312 -12.12,-7.688 -28.4,-11.218 -53.46,-11.218 h -69.96 v 10.342 h 4.18 c 12.32,0.22 16.5,0.876 18.24,3.094 1.32,1.97 1.32,2.406 1.32,13.626 v 104.718 c 0,11.22 0,11.656 -1.32,13.656 -1.74,2.188 -5.92,2.844 -18.24,3.064 h -4.18 v 10.342 m 60.92,-10.342 c -11.22,0 -12.52,-1.314 -12.52,-12.094 v -113.75 c 0,-10.782 1.52,-12.314 12.52,-12.314 h 11.44 c 37.64,0 53.26,20.47 53.26,69.094 0,49.282 -14.1,69.064 -49.72,69.064 h -14.98 m 159.72,-95.47 c -27.06,0 -47.96,23.97 -47.96,54.782 0,30.124 21.12,54.344 47.52,54.344 26.42,0 47.54,-24.22 47.54,-54.564 0,-30.156 -21.12,-54.562 -47.1,-54.562 m 0,9.438 c 15.42,0 23.98,16.062 23.98,45.124 0,29.25 -8.56,45.094 -24.42,45.094 -15.84,0 -24.4,-15.844 -24.4,-44.874 0,-29.938 8.34,-45.344 24.84,-45.344 m 159.92,-6.156 -39.16,2.438 v 9.468 h 9.02 c 8.36,0.218 9.44,1.532 9.44,11 v 62.906 c -0.22,3.312 -0.44,4.626 -1.3,5.718 -1.54,1.97 -5.72,2.876 -15.2,3.094 h -0.86 v 7.906 h 55.42 v -7.906 h -0.86 c -14.54,-0.468 -16.5,-1.562 -16.5,-9.686 v -40.72 c 0,-19.562 10.78,-34.094 25.08,-34.094 12.54,0 18.92,9.032 18.92,26.844 v 49.062 c -0.22,2.876 -0.44,4.408 -1.54,5.5 -1.32,1.97 -5.72,2.876 -15.18,3.094 h -0.88 v 7.906 h 55.66 v -7.906 h -0.88 c -14.54,-0.468 -16.5,-1.562 -16.5,-9.468 v -38.938 c 0,-22 9.9,-36.094 25.28,-36.094 12.56,0 18.72,9.47 18.72,29.282 v 46.406 c -0.22,3.094 -0.44,4.626 -1.54,5.718 -1.34,1.97 -5.7,2.876 -15.18,3.094 h -0.88 v 7.906 h 55.66 v -7.906 h -0.88 c -14.52,-0.468 -16.5,-1.562 -16.5,-9.686 v -49.938 c 0,-13.656 -1.34,-18.282 -7.06,-25.75 -6.36,-8.126 -15.36,-12.532 -25.94,-12.532 -14.3,0 -24.86,6.812 -34.34,22 -3.72,-13.218 -15.62,-22 -30.34,-22 -13.44,0 -23.1,6.376 -31.68,20.22 v -16.938 m 250.78,31.688 c 0,-13.844 -2.42,-20.908 -8.82,-26.188 -7.24,-5.938 -18.02,-8.782 -32.1,-8.782 -24.86,0 -42.9,11.656 -42.9,27.72 0,8.124 5.06,13.406 12.76,13.406 7.02,0 11.86,-4.626 11.86,-11.22 0,-2.844 -1.08,-5.936 -3.28,-9 -1.34,-1.562 -1.56,-2 -1.56,-3.094 0,-4.406 8.82,-8.374 19.38,-8.374 7.02,0 14.74,2.218 18.24,5.5 4.2,3.532 5.72,8.812 5.72,18.718 v 8.564 c -22.86,3.968 -30.12,5.718 -40.9,9.906 -19.16,7.062 -28.16,17.156 -28.16,31.25 0,15.844 12.32,25.75 31.92,25.75 15.14,0 28.8,-6.188 38.28,-17.406 3.5,11.218 9,15.624 19.34,15.624 9.9,0 20.24,-6.374 20.24,-12.75 0,-1.532 -0.86,-2.656 -2.22,-2.656 -0.86,0 -1.74,0.25 -3.28,0.906 -3.08,1.312 -4.4,1.532 -6.16,1.532 -6.18,0 -8.36,-3.97 -8.36,-15.188 v -44.218 m -20.7,26.842 c 0,13.188 -0.64,16.282 -4.36,22 -5.5,8.126 -15.42,13.626 -25.1,13.626 -10.12,0 -17.38,-7.25 -17.38,-17.156 0,-9.22 4.62,-15.844 14.28,-20.438 6.84,-3.094 15.42,-5.282 32.56,-8.156 v 10.124 m 72.36,-113.312 c -7.04,0 -12.76,5.72 -12.76,12.782 0,7.03 5.72,12.75 12.54,12.75 7.28,0 13,-5.72 13,-12.75 0,-7.062 -5.72,-12.782 -12.78,-12.782 m 10.34,54.782 -42.92,2.438 v 9.468 h 12.78 c 8.36,0.218 9.48,1.532 9.48,11 v 74.562 c 0,17.812 -1.12,26.188 -4.18,32.562 -2.22,4.408 -7.3,7.688 -12.1,7.688 -3.1,0 -5.5,-1.312 -5.5,-2.844 0,-0.874 0.22,-1.312 1.1,-3.53 1.08,-2.188 1.52,-3.72 1.52,-5.282 0,-5.5 -5.28,-10.344 -11.44,-10.344 -7.02,0 -12.3,5.5 -12.3,13.22 0,10.78 9.9,18.03 24.62,18.03 12.3,0 23.52,-5.28 29.94,-14.312 6.8,-9.656 9,-20.876 9,-45.75 v -86.906 m 121.86,53.03 c 0.22,-33 -18.5,-56.312 -45.34,-56.312 -28.16,0 -49.28,24.406 -49.28,57.406 0,31.032 20.04,51.72 49.72,51.72 21.12,0 35.88,-10.344 44.9,-31.25 l -7.7,-4.188 c -9,16.938 -18.26,23.532 -33,23.532 -11.22,0 -19.36,-4.594 -25.08,-14.5 -3.96,-6.594 -5.72,-14.314 -5.5,-26.408 h 71.28 m -71.06,-9.468 c 0,-15.406 7.04,-37.406 25.5,-37.406 13.22,0 22,11.688 22,29.5 0,6.156 -1.96,7.906 -9,7.906 h -38.5 m 169.36,60.5 40.06,-1.532 v -9.468 h -5.5 c -12.78,-0.438 -13.88,-1.75 -13.88,-16.062 v -77 l -41.34,2.438 v 9.468 h 11.22 c 8.34,0.218 9.44,1.532 9.44,11 v 27.032 c 0,19.156 -4.6,42.468 -28.82,42.468 -6.82,0 -12.54,-2.406 -15.4,-6.812 -2.86,-4.188 -3.28,-6.376 -3.28,-18.47 v -67.124 l -38.5,2.438 v 9.468 h 8.34 c 8.36,0.218 9.46,1.532 9.46,11 v 47.5 c 0,11.218 0.88,16.282 4.2,21.344 5.92,9.03 16.5,14.094 29.68,14.094 14.52,0 24.66,-5.938 34.32,-20.032 v 18.25 m 87.34,-104.062 -38.94,2.438 v 9.468 h 9 c 8.38,0.218 9.46,1.532 9.46,11 v 62.906 c -0.22,3.312 -0.44,4.626 -1.3,5.718 -1.54,1.97 -5.94,2.876 -15.42,3.094 h -0.86 v 7.906 h 58.74 v -7.906 h -3.96 c -14.76,-0.468 -16.72,-1.562 -16.72,-9.468 v -11.876 c 0.22,-36.968 13.4,-65.124 30.56,-66 -3.06,3.5 -3.94,5.72 -3.94,9.876 0,7.062 5.06,12.124 12.1,12.124 8.12,0 13.4,-5.936 13.4,-14.75 0,-10.78 -7.46,-17.812 -19.12,-17.812 -13.88,0 -25.76,11 -33,30.562 v -27.28 m 67.94,78.124 c -7.7,0 -13.86,6.156 -13.86,13.626 0,7.688 6.16,13.874 13.64,13.874 7.72,0 13.86,-6.186 13.86,-13.874 0,-7.47 -6.14,-13.626 -13.64,-13.626"
     id="path16"
     style="stroke-width:2" />
  <polyline
     class="BarLine"
     fill="none"
     stroke="#000000"
     stroke-width="4.46"
     stroke-linejoin="bevel"
     points="2739.55,667.114 2739.55,769.042"
     id="polyline18"
     transform="matrix(1.0992182,0,0,4,429.66265,-1839.5801)" />
  <polyline
     class="BarLine"
     fill="none"
     stroke="#000000"
     stroke-width="13.64"
     stroke-linejoin="bevel"
     points="2757.78,667.114 2757.78,769.042"
     id="polyline20"
     transform="matrix(1.0992182,0,0,4,429.66265,-1839.5801)" />
  <polyline
     class="LedgerLine"
     fill="none"
     stroke="#000000"
     stroke-width="3.97"
     stroke-linejoin="bevel"
     points="527.341,792.478 575.934,792.478"
     id="polyline24"
     transform="matrix(4,0,0,4,-546.7347,-1839.5801)" />
  <polyline
     class="Stem"
     fill="none"
     stroke="#000000"
     stroke-width="2.48"
     stroke-linejoin="bevel"
     points="566.51,788.51 566.51,618.878"
     id="polyline26"
     transform="matrix(4,0,0,4,-546.7347,-1839.5801)" />
  <path
     class="Note"
     d="m 1595.3653,1347.0099 c 0,17.05 12.276,36.084 44.4539,36.084 41.2303,0 84.5061,-33.728 84.5061,-68.634 0,-23.436 -19.84,-36.518 -44.4539,-36.518 -38.5019,0 -84.5061,32.55 -84.5061,69.068"
     id="path28"
     style="stroke-width:3.968" />
  <path
     class="Note"
     d="m 1595.3653,1247.8099 c 0,17.05 12.276,36.084 44.4539,36.084 41.2303,0 84.5061,-33.728 84.5061,-68.634 0,-23.436 -19.84,-36.518 -44.4539,-36.518 -38.5019,0 -84.5061,32.55 -84.5061,69.068"
     id="path30"
     style="stroke-width:3.968" />
  <path
     class="Note"
     d="m 1595.3653,1148.6099 c 0,17.05 12.276,36.084 44.4539,36.084 41.2303,0 84.5061,-33.728 84.5061,-68.634 0,-23.436 -19.84,-36.5179 -44.4539,-36.5179 -38.5019,0 -84.5061,32.5499 -84.5061,69.0679"
     id="path32"
     style="stroke-width:3.968" />
  <path
     class="Note"
     d="m 1595.3653,999.80995 c 0,17.04995 12.276,36.08405 44.4539,36.08405 41.2303,0 84.5061,-33.7281 84.5061,-68.63405 0,-23.436 -19.84,-36.5179 -44.4539,-36.5179 -38.5019,0 -84.5061,32.5499 -84.5061,69.0679"
     id="path34"
     style="stroke-width:3.968" />
  <path
     class="Note"
     d="m 1595.3653,900.60995 c 0,17.05 12.276,36.0841 44.4539,36.0841 41.2303,0 84.5061,-33.7281 84.5061,-68.6341 0,-23.436 -19.84,-36.5179 -44.4539,-36.5179 -38.5019,0 -84.5061,32.5499 -84.5061,69.0679"
     id="path36"
     style="stroke-width:3.968" />
  <path
     class="Clef"
     d="m 1041.8914,1416.4499 c 0,-14.694 -13.4539,-21.0178 -26.536,-21.0178 -16.6779,0 -32.984,10.2918 -32.984,28.1478 0,7.5642 2.7899,13.144 8.3701,18.662 -10.3541,3.968 -20.6463,11.904 -20.6463,24.242 0,13.082 11.904,21.824 29.3882,21.824 21.3899,0 36.456,-11.904 36.456,-29.016 0,-9.114 -3.968,-16.616 -11.0981,-21.824 11.5322,-5.146 17.0501,-11.47 17.0501,-21.018 m -39.68,63.488 c -8.68,0 -14.632,-5.518 -14.632,-13.888 0,-7.936 3.5339,-14.26 10.2918,-18.228 1.6122,0.806 1.984,0.806 3.1621,1.55 4.7739,2.418 4.7739,2.418 5.5802,3.224 7.5019,4.3402 10.7259,8.3082 10.7259,13.888 0,7.502 -6.3861,13.454 -15.128,13.454 m 15.128,-47.616 c -5.952,-3.1618 -7.5642,-3.968 -8.7419,-4.774 l -0.8063,-0.372 c -5.952,-3.5962 -7.936,-6.3862 -7.936,-11.0982 0,-7.192 5.5802,-12.338 13.5162,-12.338 7.5019,0 12.2758,4.774 12.2758,13.082 0,6.3862 -2.3558,10.726 -8.3078,15.5 m 110.6699,-301.1958 c 0,-59.8921 -42.4699,-100.378 -100.3781,-100.378 -3.968,-23.808 -7.5638,-47.24415 -11.0977,-69.43995 41.664,-44.0821 70.9899,-94.0539 70.9899,-156.736 0,-36.1461 -11.0981,-65.472 -17.856,-79.7925 -9.4859,-20.213 -21.0181,-34.101 -27.776,-34.101 -2.728,0 -15.4379,4.7735 -28.1482,20.213 -25.792,30.1925 -32.9217,80.5365 -32.9217,113.8923 0,21.4522 1.984,40.8581 8.7419,85.7461 -0.4341,0 -21.08,21.0181 -29.3882,28.1482 -36.14571,33.3558 -86.11791,81.71575 -86.11791,160.70385 0,74.5862 64.66608,132.928 138.50821,132.928 11.4699,0 22.1958,-1.178 31.744,-2.7898 7.1297,37.7578 11.904,65.9058 11.904,86.9238 0,41.2922 -21.4522,63.1162 -61.504,63.1162 -9.5482,0 -17.856,-1.984 -18.6623,-2.4182 -0.372,0 -1.1777,-0.372 -1.1777,-0.744 0,-0.8058 0.8059,-1.24 1.984,-1.612 18.6619,-2.79 37.2619,-19.0338 37.2619,-44.02 0,-21.452 -16.2442,-44.082 -46.0042,-44.082 -27.77599,0 -45.25983,22.63 -45.25983,48.794 0,26.2262 19.84,60.76 73.40803,60.76 51.2118,0 76.1979,-29.016 76.1979,-79.794 0,-15.438 -2.3558,-33.294 -6.3238,-55.9238 -1.1781,-7.936 -3.1621,-20.2742 -5.952,-35.3402 38.8737,-13.082 67.8278,-53.1958 67.8278,-94.054 M 1005.8072,805.75005 c 3.968,-15.872 21.824,-57.536 42.4703,-57.536 5.952,0 15.872,19.0337 15.872,46.8097 0,40.8581 -30.9381,71.8581 -58.3423,99.2 -2.3558,-15.872 -4.3398,-31.744 -4.3398,-47.9878 0,-15.0661 1.5499,-28.2101 4.3398,-40.4859 m 11.904,410.31585 c -56.7297,0 -105.15191,-39.68 -105.15191,-99.634 0,-48.3602 34.10008,-91.636 69.06811,-122.20185 6.696,-5.5802 13.0821,-11.0981 19.0341,-17.0501 3.5339,21.3899 6.3238,39.67995 9.1137,56.35785 -36.1457,10.2922 -60.69771,48.7941 -60.69771,85.6841 0,28.21 21.82401,66.278 53.56801,66.278 3.1617,0 6.7579,-1.6118 6.7579,-5.5798 0,-3.1622 -3.5962,-5.5182 -8.7419,-8.6802 -15.5002,-9.176 -24.2421,-19.84 -24.2421,-38.936 0,-24.18 18.2901,-43.6482 41.2918,-49.1661 l 23.0021,130.1381 c -7.936,1.6122 -15.0661,2.79 -23.0021,2.79 m 39.68,-7.564 c -8.3078,-47.182 -19.0337,-110.298 -21.824,-127.7822 40.0522,0 57.1642,27.7762 60.6981,46.8722 0.4341,3.162 1.1781,7.502 1.1781,12.276 0,28.582 -11.904,57.1642 -40.0522,68.634"
     id="path38"
     style="stroke-width:3.968" />
  <path
     class="TimeSig"
     d="m 1304.1514,983.93785 v 29.32625 h -32.9221 c -2.7899,0 -5.5798,2.4177 -5.5798,5.5798 v 7.5642 c 0,3.1617 2.7899,5.5179 5.5798,5.5179 h 120.2181 c 3.224,0 5.5798,-2.3562 5.5798,-5.5179 v -7.5642 c 0,-3.1621 -2.3558,-5.5798 -5.5798,-5.5798 h -35.712 v -29.32625 h 35.712 c 3.224,0 5.5798,-2.7899 5.5798,-5.952 v -7.5639 c 0,-2.79 -2.3558,-5.518 -5.5798,-5.518 h -35.712 v -63.116 c 0,-2.356 -1.1781,-4.34 -2.728,-5.146 l -4.7739,-2.418 c -0.8063,-0.372 -1.1781,-0.372 -1.984,-0.372 -0.4341,0 -0.4341,0 -0.8063,0 -1.1777,0 -2.7899,0.372 -3.5958,1.178 l -36.0842,32.922 c -1.1777,1.24 -1.6118,2.79 -1.6118,4.402 v 32.55 h -46.0041 c 0,0 44.4542,-47.616 91.2639,-110.3602 1.6122,-1.984 1.984,-3.968 1.984,-5.5179 0,-1.984 -0.8059,-3.5958 -1.1777,-3.968 l -8.7423,-8.7419 c -1.1777,-0.8059 -2.3558,-1.6122 -3.968,-1.6122 -2.3558,0 -55.9857,0 -59.1478,0 -2.7899,0 -4.7739,2.4181 -5.1461,4.7743 0,0 -1.984,29.3878 -12.276,61.5039 -10.354,32.178 -22.258,52.018 -32.55,66.65 0,0 -1.178,1.984 -1.178,4.402 0,0.806 0,1.5502 0.372,2.3561 1.178,2.7899 3.968,7.1301 3.968,7.1301 0,0 0.806,2.4177 4.34,2.4177 h 68.2621"
     id="path40"
     style="stroke-width:3.968" />
  <path
     class="TimeSig"
     d="m 1304.1514,1182.3379 v 29.3262 h -32.9221 c -2.7899,0 -5.5798,2.4178 -5.5798,5.5798 v 7.5642 c 0,3.1618 2.7899,5.5178 5.5798,5.5178 h 120.2181 c 3.224,0 5.5798,-2.356 5.5798,-5.5178 v -7.5642 c 0,-3.162 -2.3558,-5.5798 -5.5798,-5.5798 h -35.712 v -29.3262 h 35.712 c 3.224,0 5.5798,-2.79 5.5798,-5.952 v -7.564 c 0,-2.79 -2.3558,-5.518 -5.5798,-5.518 h -35.712 v -63.116 c 0,-2.356 -1.1781,-4.34 -2.728,-5.146 l -4.7739,-2.418 c -0.8063,-0.372 -1.1781,-0.372 -1.984,-0.372 -0.4341,0 -0.4341,0 -0.8063,0 -1.1777,0 -2.7899,0.372 -3.5958,1.178 l -36.0842,32.922 c -1.1777,1.24 -1.6118,2.79 -1.6118,4.402 v 32.55 h -46.0041 c 0,0 44.4542,-47.616 91.2639,-110.3602 1.6122,-1.984 1.984,-3.968 1.984,-5.5179 0,-1.984 -0.8059,-3.5958 -1.1777,-3.968 l -8.7423,-8.7419 c -1.1777,-0.8059 -2.3558,-1.6122 -3.968,-1.6122 -2.3558,0 -55.9857,0 -59.1478,0 -2.7899,0 -4.7739,2.4181 -5.1461,4.7743 0,0 -1.984,29.3878 -12.276,61.5039 -10.354,32.178 -22.258,52.018 -32.55,66.65 0,0 -1.178,1.984 -1.178,4.402 0,0.806 0,1.5502 0.372,2.356 1.178,2.79 3.968,7.1302 3.968,7.1302 0,0 0.806,2.4178 4.34,2.4178 h 68.2621"
     id="path42"
     style="stroke-width:3.968" />
  <path
     class="Rest"
     d="m 2809.3853,1028.7639 c 0,5.58 0,5.58 5.58,5.58 h 117.862 c 5.518,0 5.518,0 5.518,-5.58 v -42.84205 c 0,-5.5798 0,-5.5798 -5.518,-5.5798 h -117.862 c -5.58,0 -5.58,0 -5.58,5.5798 v 42.84205"
     id="path44"
     style="stroke-width:3.968" />
  <path
     class="Rest"
     d="m 2323.6453,1098.5761 c -0.3716,-0.372 -1.178,-1.1782 -2.3558,-2.728 l -45.632,-56.3582 c -0.4342,-0.434 -0.8062,-1.612 -0.8062,-2.418 0,-1.178 0.372,-2.728 0.8062,-3.534 l 40.424,-61.13185 c 0.4338,-0.8063 0.8058,-1.984 0.8058,-2.7903 v -3.5339 c 0,-1.1781 -0.372,-2.4181 -1.178,-3.1621 l -64.294,-86.9238 c 0,0 -1.55,-2.4181 -3.968,-2.4181 -1.178,0 -1.984,0.4341 -3.162,1.24 -1.612,1.1781 -1.984,2.728 -1.984,3.968 0,2.3562 1.178,4.3402 1.178,4.3402 l 30.1942,41.2918 c 0.744,1.1781 1.1778,2.728 1.1778,4.712 0,1.6122 -0.4338,3.5962 -1.1778,4.7739 l -40.1142,61.1322 c -0.372,0.806 -0.806,2.356 -0.806,3.162 v 3.59595 c 0,1.178 0.434,2.356 1.24,3.162 l 44.3922,55.18 c -1.5502,-0.434 -5.1462,-1.24 -9.9202,-1.24 -6.696,0 -15.438,1.612 -22.568,7.936 -8.742,7.9362 -13.516,19.0962 -13.516,29.0162 0,5.5178 1.178,11.0978 4.34,15.4378 8.37,12.71 38.13,50.406 38.13,50.406 0,0 1.984,2.418 4.7742,2.418 0.744,0 1.5498,0 2.3558,-0.8058 1.984,-1.6122 2.79,-3.1622 2.79,-4.7742 0,-1.612 -0.806,-2.79 -1.1778,-3.596 -1.24,-1.984 -13.8882,-24.986 -13.8882,-24.986 0,0 -2.79,-5.5798 -2.79,-12.71 0,-5.146 1.55,-11.4698 6.7582,-16.6778 4.712,-4.712 10.2918,-6.3242 15.4378,-6.3242 5.1462,0 9.548,1.6122 12.71,3.5962 l 15.5002,9.92 c 0,0 1.5498,0.744 3.1618,0.744 1.5502,0 2.7902,-0.372 3.968,-1.984 0.8062,-1.5502 1.178,-2.3562 1.178,-3.5342 0,-1.1778 -0.3716,-1.984 -1.178,-3.1618 l -0.806,-1.24"
     id="path46"
     style="stroke-width:3.968" />
  <polyline
     class="FretDiagram"
     fill="none"
     stroke="#000000"
     stroke-width="7.44"
     stroke-linejoin="bevel"
     points="507.246,534.31 596.03,534.31"
     id="polyline54"
     transform="matrix(8,0,0,8,-1273.6283,-2431.0466)" />
  <polyline
     class="FretDiagram"
     fill="none"
     stroke="#000000"
     stroke-width="1.98"
     stroke-linejoin="bevel"
     points="508.238,537.038 508.238,607.47"
     id="polyline56"
     transform="matrix(8,0,0,8,-1273.6283,-2431.0466)" />
  <polyline
     class="FretDiagram"
     fill="none"
     stroke="#000000"
     stroke-width="1.98"
     stroke-linejoin="bevel"
     points="525.598,537.038 525.598,607.47"
     id="polyline58"
     transform="matrix(8,0,0,8,-1273.6283,-2431.0466)" />
  <polyline
     class="FretDiagram"
     fill="none"
     stroke="#000000"
     stroke-width="1.98"
     stroke-linejoin="bevel"
     points="542.958,537.038 542.958,607.47"
     id="polyline60"
     transform="matrix(8,0,0,8,-1273.6283,-2431.0466)" />
  <polyline
     class="FretDiagram"
     fill="none"
     stroke="#000000"
     stroke-width="1.98"
     stroke-linejoin="bevel"
     points="560.318,537.038 560.318,607.47"
     id="polyline62"
     transform="matrix(8,0,0,8,-1273.6283,-2431.0466)" />
  <polyline
     class="FretDiagram"
     fill="none"
     stroke="#000000"
     stroke-width="1.98"
     stroke-linejoin="bevel"
     points="577.678,537.038 577.678,607.47"
     id="polyline64"
     transform="matrix(8,0,0,8,-1273.6283,-2431.0466)" />
  <polyline
     class="FretDiagram"
     fill="none"
     stroke="#000000"
     stroke-width="1.98"
     stroke-linejoin="bevel"
     points="595.038,537.038 595.038,607.47"
     id="polyline66"
     transform="matrix(8,0,0,8,-1273.6283,-2431.0466)" />
  <polyline
     class="FretDiagram"
     fill="none"
     stroke="#000000"
     stroke-width="1.98"
     stroke-linejoin="bevel"
     points="508.238,554.398 595.038,554.398"
     id="polyline68"
     transform="matrix(8,0,0,8,-1273.6283,-2431.0466)" />
  <polyline
     class="FretDiagram"
     fill="none"
     stroke="#000000"
     stroke-width="1.98"
     stroke-linejoin="bevel"
     points="508.238,571.758 595.038,571.758"
     id="polyline70"
     transform="matrix(8,0,0,8,-1273.6283,-2431.0466)" />
  <polyline
     class="FretDiagram"
     fill="none"
     stroke="#000000"
     stroke-width="1.98"
     stroke-linejoin="bevel"
     points="508.238,589.118 595.038,589.118"
     id="polyline72"
     transform="matrix(8,0,0,8,-1273.6283,-2431.0466)" />
  <polyline
     class="FretDiagram"
     fill="none"
     stroke="#000000"
     stroke-width="1.98"
     stroke-linejoin="bevel"
     points="508.238,606.478 595.038,606.478"
     id="polyline74"
     transform="matrix(8,0,0,8,-1273.6283,-2431.0466)" />
  <path
     class="FretDiagram"
     fill-rule="evenodd"
     d="m 2980.7557,2212.4574 c 0,27.4 -22.208,49.6 -49.6,49.6 -27.392,0 -49.6,-22.2 -49.6,-49.6 0,-27.392 22.208,-49.6 49.6,-49.6 27.392,0 49.6,22.208 49.6,49.6"
     id="path76"
     style="stroke-width:8" />
  <path
     class="FretDiagram"
     fill-rule="evenodd"
     d="m 3119.6357,2073.5774 c 0,27.4 -22.208,49.6 -49.6,49.6 -27.392,0 -49.6,-22.2 -49.6,-49.6 0,-27.392 22.208,-49.6 49.6,-49.6 27.392,0 49.6,22.208 49.6,49.6"
     id="path78"
     style="stroke-width:8" />
  <path
     class="FretDiagram"
     fill-rule="evenodd"
     d="m 3397.3956,1934.6974 c 0,27.4 -22.208,49.6 -49.6,49.6 -27.392,0 -49.6,-22.2 -49.6,-49.6 0,-27.392 22.208,-49.6 49.6,-49.6 27.392,0 49.6,22.208 49.6,49.6"
     id="path80"
     style="stroke-width:8" />
  <path
     class="FretDiagram"
     fill="none"
     stroke="#000000"
     stroke-width="19.04"
     stroke-linejoin="bevel"
     fill-rule="evenodd"
     d="m 3264.4677,1718.4414 c 0,30.68 -24.872,55.552 -55.552,55.552 -30.68,0 -55.552,-24.872 -55.552,-55.552 0,-30.68 24.872,-55.552 55.552,-55.552 30.68,0 55.552,24.872 55.552,55.552"
     id="path86" />
  <path
     class="FretDiagram"
     fill="none"
     stroke="#000000"
     stroke-width="19.04"
     stroke-linejoin="bevel"
     fill-rule="evenodd"
     d="m 3542.2276,1718.4414 c 0,30.68 -24.872,55.552 -55.552,55.552 -30.68,0 -55.552,-24.872 -55.552,-55.552 0,-30.68 24.872,-55.552 55.552,-55.552 30.68,0 55.552,24.872 55.552,55.552"
     id="path88" />
  <metadata
     id="metadata323">
    <rdf:RDF>
      <cc:Work
         rdf:about="">
        <dc:title>Partition sans titre</dc:title>
      </cc:Work>
    </rdf:RDF>
  </metadata>
  <text
     xml:space="preserve"
     style="font-size:210px;font-family:sans-serif;-inkscape-font-specification:sans-serif;fill:#ffff00;stroke:#ff0000;stroke-width:0;stroke-dasharray:none;paint-order:stroke fill markers"
     x="303.06348"
     y="1991.5193"
     id="text433"><tspan
       sodipodi:role="line"
       id="tspan431"
       style="fill:#000004;fill-opacity:1;stroke:#000000;stroke-width:0;stroke-dasharray:none;stroke-opacity:1"
       x="303.06348"
       y="1991.5193">Diagramme d'accord:</tspan></text>
</svg>
