<?xml version="1.0" encoding="UTF-8" standalone="no"?>
<!-- Created with Inkscape (http://www.inkscape.org/) -->

<svg
   width="297mm"
   height="210mm"
   viewBox="0 0 297 210"
   version="1.1"
   id="svg1"
   inkscape:version="1.2.2 (b0a8486541, 2022-12-01)"
   sodipodi:docname="note_mi_la.svg"
   xmlns:inkscape="http://www.inkscape.org/namespaces/inkscape"
   xmlns:sodipodi="http://sodipodi.sourceforge.net/DTD/sodipodi-0.dtd"
   xmlns="http://www.w3.org/2000/svg"
   xmlns:svg="http://www.w3.org/2000/svg">
  <sodipodi:namedview
     id="namedview1"
     pagecolor="#ffffff"
     bordercolor="#000000"
     borderopacity="0.25"
     inkscape:showpageshadow="2"
     inkscape:pageopacity="0.0"
     inkscape:pagecheckerboard="0"
     inkscape:deskcolor="#d1d1d1"
     inkscape:document-units="mm"
     inkscape:zoom="0.52560325"
     inkscape:cx="417.61538"
     inkscape:cy="379.56386"
     inkscape:window-width="1280"
     inkscape:window-height="651"
     inkscape:window-x="0"
     inkscape:window-y="32"
     inkscape:window-maximized="1"
     inkscape:current-layer="layer1"
     showgrid="false" />
  <defs
     id="defs1" />
  <g
     inkscape:label="Calque 1"
     inkscape:groupmode="layer"
     id="layer1">
    <rect
       style="fill:#333333;fill-rule:evenodd;stroke-width:0.377051;stroke-linecap:round;stroke-linejoin:bevel"
       id="rect1"
       width="8.0852585"
       height="1.2539846"
       x="41.535843"
       y="95.492798"
       transform="matrix(0.99941358,0.03424169,-0.03200779,0.99948762,0,0)" />
    <rect
       style="fill:#333333;fill-rule:evenodd;stroke-width:0.377051;stroke-linecap:round;stroke-linejoin:bevel"
       id="rect1-1"
       width="8.0852585"
       height="1.2539846"
       x="57.624557"
       y="95.506615"
       transform="matrix(0.99941358,0.03424169,-0.03200779,0.99948762,0,0)" />
    <rect
       style="fill:#333333;fill-rule:evenodd;stroke-width:0.377051;stroke-linecap:round;stroke-linejoin:bevel"
       id="rect1-0"
       width="8.0852585"
       height="1.2539846"
       x="47.035572"
       y="88.723976"
       transform="matrix(0.99941358,0.03424169,-0.03200779,0.99948762,0,0)" />
    <rect
       style="fill:#333333;fill-rule:evenodd;stroke-width:0.377051;stroke-linecap:round;stroke-linejoin:bevel"
       id="rect1-0-6"
       width="8.0852585"
       height="1.2539846"
       x="72.962334"
       y="41.041321"
       transform="matrix(0.99941358,0.03424169,-0.03200779,0.99948762,0,0)" />
    <rect
       style="fill:#333333;fill-rule:evenodd;stroke-width:0.494471;stroke-linecap:round;stroke-linejoin:bevel"
       id="rect3-6"
       width="1.2351098"
       height="8.5882826"
       x="9.7163811"
       y="102.83494"
       transform="matrix(0.95035194,-0.3111771,0.40662128,0.91359681,0,0)" />
    <rect
       style="fill:#333333;fill-rule:evenodd;stroke-width:0.372161;stroke-linecap:round;stroke-linejoin:bevel"
       id="rect3-6-7"
       width="1.2351098"
       height="4.8650317"
       x="54.144581"
       y="66.874847"
       transform="matrix(0.95035194,-0.3111771,0.40662128,0.91359681,0,0)" />
    <rect
       style="fill:#333333;fill-rule:evenodd;stroke-width:0.494471;stroke-linecap:round;stroke-linejoin:bevel"
       id="rect3"
       width="1.2351098"
       height="8.5882826"
       x="2.4383838"
       y="99.972672"
       transform="matrix(0.95035194,-0.3111771,0.40662128,0.91359681,0,0)" />
    <rect
       style="fill:#333333;fill-rule:evenodd;stroke-width:1.64842;stroke-linecap:round;stroke-linejoin:bevel"
       id="rect5"
       width="54.33194"
       height="0.76658875"
       x="-65.255104"
       y="84.42144"
       transform="matrix(0.51819571,-0.85526207,0.91337162,0.40712686,0,0)" />
    <rect
       style="fill:#333333;fill-rule:evenodd;stroke-width:1.25408;stroke-linecap:round;stroke-linejoin:bevel"
       id="rect5-1"
       width="41.681343"
       height="0.5783571"
       x="-35.381718"
       y="132.44165"
       transform="matrix(0.57559252,-0.81773666,0.88800334,0.459837,0,0)" />
    <rect
       style="fill:#333333;fill-rule:evenodd;stroke-width:1.24648;stroke-linecap:round;stroke-linejoin:bevel"
       id="rect5-66"
       width="41.428566"
       height="0.57484967"
       x="-18.824713"
       y="176.70865"
       transform="matrix(0.57559252,-0.81773666,0.88800334,0.459837,0,0)" />
    <rect
       style="fill:#333333;fill-rule:evenodd;stroke-width:1.28678;stroke-linecap:round;stroke-linejoin:bevel"
       id="rect5-7"
       width="42.768089"
       height="0.59343648"
       x="-2.7268672"
       y="220.83054"
       transform="matrix(0.57559252,-0.81773666,0.88800334,0.459837,0,0)" />
    <rect
       style="fill:#333333;fill-rule:evenodd;stroke-width:1.64325;stroke-linecap:round;stroke-linejoin:bevel"
       id="rect5-9"
       width="54.161583"
       height="0.76418513"
       x="-62.169884"
       y="91.678436"
       transform="matrix(0.51819571,-0.85526207,0.91337162,0.40712686,0,0)" />
    <rect
       style="fill:#333333;fill-rule:evenodd;stroke-width:1.6318;stroke-linecap:round;stroke-linejoin:bevel"
       id="rect5-6"
       width="53.783833"
       height="0.75885546"
       x="-64.53833"
       y="94.696716"
       transform="matrix(0.51819571,-0.85526207,0.91337162,0.40712686,0,0)" />
    <rect
       style="fill:#333333;fill-rule:evenodd;stroke-width:1.95423;stroke-linecap:round;stroke-linejoin:bevel"
       id="rect6"
       width="218.96071"
       height="0.57182157"
       x="64.247246"
       y="38.637836"
       transform="matrix(0.99070776,0.13600786,-0.18344162,0.98303061,0,0)" />
    <rect
       style="fill:#333333;fill-rule:evenodd;stroke-width:1.95423;stroke-linecap:round;stroke-linejoin:bevel"
       id="rect6-0"
       width="218.96071"
       height="0.57182157"
       x="61.378017"
       y="45.263477"
       transform="matrix(0.99070776,0.13600786,-0.18344162,0.98303061,0,0)" />
    <rect
       style="fill:#333333;fill-rule:evenodd;stroke-width:1.95464;stroke-linecap:round;stroke-linejoin:bevel"
       id="rect6-0-0"
       width="219.56129"
       height="0.57050014"
       x="59.544163"
       y="51.733093"
       transform="matrix(0.99025407,0.1392727,-0.1963496,0.98053395,0,0)" />
    <rect
       style="fill:#333333;fill-rule:evenodd;stroke-width:1.80904;stroke-linecap:round;stroke-linejoin:bevel"
       id="rect7"
       width="223.37561"
       height="1.1232083"
       x="55.236"
       y="58.083706"
       transform="matrix(0.9900648,0.14061185,-0.18955055,0.98187096,0,0)" />
    <rect
       style="fill:#333333;fill-rule:evenodd;stroke-width:1.82614;stroke-linecap:round;stroke-linejoin:bevel"
       id="rect7-8"
       width="225.48547"
       height="1.1338174"
       x="52.683823"
       y="66.544281"
       transform="matrix(0.9900648,0.14061185,-0.18955055,0.98187096,0,0)" />
    <rect
       style="fill:#333333;fill-rule:evenodd;stroke-width:1.8046;stroke-linecap:round;stroke-linejoin:bevel"
       id="rect7-8-8"
       width="224.33894"
       height="1.1128923"
       x="51.875713"
       y="75.632095"
       transform="matrix(0.99088754,0.13469177,-0.20179717,0.97942733,0,0)" />
    <text
       xml:space="preserve"
       style="font-size:11.0776px;fill:#ffffff;fill-rule:evenodd;stroke-width:0.490204;stroke-linecap:round;stroke-linejoin:bevel;stroke-dasharray:none"
       x="-14.60413"
       y="96.027191"
       id="text7"
       transform="matrix(1.0087565,-0.3303007,0.38509304,0.86522717,0,0)"><tspan
         sodipodi:role="line"
         id="tspan7"
         style="font-style:normal;font-variant:normal;font-weight:normal;font-stretch:normal;font-size:11.0776px;font-family:'Adobe Arabic';-inkscape-font-specification:'Adobe Arabic';fill:#ffffff;stroke:#666666;stroke-width:0.490204;stroke-dasharray:none"
         x="-14.60413"
         y="96.027191">Mi</tspan></text>
    <text
       xml:space="preserve"
       style="font-size:11.0776px;fill:#ffffff;fill-rule:evenodd;stroke-width:0.490204;stroke-linecap:round;stroke-linejoin:bevel;stroke-dasharray:none"
       x="71.23539"
       y="130.53146"
       id="text7-8"
       transform="matrix(1.0087565,-0.3303007,0.38509304,0.86522717,0,0)"><tspan
         sodipodi:role="line"
         id="tspan7-7"
         style="font-style:normal;font-variant:normal;font-weight:normal;font-stretch:normal;font-size:11.0776px;font-family:'Adobe Arabic';-inkscape-font-specification:'Adobe Arabic';fill:#ffffff;stroke:#666666;stroke-width:0.490204;stroke-dasharray:none"
         x="71.23539"
         y="130.53146">Si</tspan></text>
    <text
       xml:space="preserve"
       style="font-size:12.3084px;fill:#ffffff;fill-rule:evenodd;stroke-width:0.490204;stroke-linecap:round;stroke-linejoin:bevel;stroke-dasharray:none"
       x="28.739138"
       y="115.70385"
       id="text7-2"
       transform="matrix(1.018156,-0.30835427,0.35950601,0.87328932,0,0)"><tspan
         sodipodi:role="line"
         id="tspan7-3"
         style="font-style:normal;font-variant:normal;font-weight:normal;font-stretch:normal;font-size:12.3084px;font-family:'Adobe Arabic';-inkscape-font-specification:'Adobe Arabic';fill:#ffffff;stroke:#666666;stroke-width:0.490204;stroke-dasharray:none"
         x="28.739138"
         y="115.70385">Fa</tspan></text>
    <text
       xml:space="preserve"
       style="font-size:11.2737px;fill:#ffffff;fill-rule:evenodd;stroke-width:0.448995;stroke-linecap:round;stroke-linejoin:bevel;stroke-dasharray:none"
       x="94.080841"
       y="152.54837"
       id="text7-2-4"
       transform="matrix(1.1143871,-0.28172684,0.39348475,0.79787784,0,0)"><tspan
         sodipodi:role="line"
         id="tspan7-3-6"
         style="font-style:normal;font-variant:normal;font-weight:normal;font-stretch:normal;font-size:11.2737px;font-family:'Adobe Arabic';-inkscape-font-specification:'Adobe Arabic';fill:#ffffff;stroke:#666666;stroke-width:0.448995;stroke-dasharray:none"
         x="94.080841"
         y="152.54837">Do</tspan></text>
    <text
       xml:space="preserve"
       style="font-size:12.3084px;fill:#ffffff;fill-rule:evenodd;stroke-width:0.490204;stroke-linecap:round;stroke-linejoin:bevel;stroke-dasharray:none"
       x="-3.7307637"
       y="83.563156"
       id="text7-2-4-6"
       transform="matrix(1.018156,-0.30835427,0.35950601,0.87328932,0,0)"><tspan
         sodipodi:role="line"
         id="tspan7-3-6-8"
         style="font-style:normal;font-variant:normal;font-weight:normal;font-stretch:normal;font-size:12.3084px;font-family:'Adobe Arabic';-inkscape-font-specification:'Adobe Arabic';fill:#ffffff;stroke:#666666;stroke-width:0.490204;stroke-dasharray:none"
         x="-3.7307637"
         y="83.563156">La</tspan></text>
    <text
       xml:space="preserve"
       style="font-size:12.3084px;fill:#ffffff;fill-rule:evenodd;stroke-width:0.490204;stroke-linecap:round;stroke-linejoin:bevel;stroke-dasharray:none"
       x="101.13673"
       y="158.86913"
       id="text7-2-1"
       transform="matrix(1.018156,-0.30835427,0.35950601,0.87328932,0,0)"><tspan
         sodipodi:role="line"
         id="tspan7-3-8"
         style="font-style:normal;font-variant:normal;font-weight:normal;font-stretch:normal;font-size:12.3084px;font-family:'Adobe Arabic';-inkscape-font-specification:'Adobe Arabic';fill:#ffffff;stroke:#666666;stroke-width:0.490204;stroke-dasharray:none"
         x="101.13673"
         y="158.86913">Sol</tspan></text>
    <polyline
       class="StaffLines"
       fill="none"
       stroke="#000000"
       stroke-width="2.73"
       stroke-linejoin="bevel"
       points="336.599,634.199 2764.6,634.199"
       id="polyline9614"
       transform="matrix(0.10115166,0,0,0.16791352,-10.251679,54.202791)" />
    <polyline
       class="StaffLines"
       fill="none"
       stroke="#000000"
       stroke-width="2.73"
       stroke-linejoin="bevel"
       points="336.599,658.999 2764.6,658.999"
       id="polyline9616"
       transform="matrix(0.10115166,0,0,0.16791352,-10.251679,54.202791)" />
    <polyline
       class="StaffLines"
       fill="none"
       stroke="#000000"
       stroke-width="2.73"
       stroke-linejoin="bevel"
       points="336.599,683.799 2764.6,683.799"
       id="polyline9618"
       transform="matrix(0.10115166,0,0,0.16791352,-10.251679,54.202791)" />
    <polyline
       class="StaffLines"
       fill="none"
       stroke="#000000"
       stroke-width="2.73"
       stroke-linejoin="bevel"
       points="336.599,708.599 2764.6,708.599"
       id="polyline9620"
       transform="matrix(0.10115166,0,0,0.16791352,-10.251679,54.202791)" />
    <polyline
       class="StaffLines"
       fill="none"
       stroke="#000000"
       stroke-width="2.73"
       stroke-linejoin="bevel"
       points="336.599,733.399 2764.6,733.399"
       id="polyline9622"
       transform="matrix(0.10115166,0,0,0.16791352,-10.251679,54.202791)" />
    <polyline
       class="BarLine"
       fill="none"
       stroke="#000000"
       stroke-width="4.46"
       stroke-linejoin="bevel"
       points="2762.37,632.835 2762.37,734.763"
       id="polyline9640"
       transform="matrix(0.10115166,0,0,0.16791352,-10.251679,54.202791)" />
    <polyline
       class="LedgerLine"
       fill="none"
       stroke="#000000"
       stroke-width="3.97"
       stroke-linejoin="bevel"
       points="1639.65,782.999 1688.24,782.999"
       id="polyline9642"
       transform="matrix(0.10115166,0,0,0.16791352,-10.251679,54.202791)" />
    <polyline
       class="LedgerLine"
       fill="none"
       stroke="#000000"
       stroke-width="3.97"
       stroke-linejoin="bevel"
       points="1639.65,758.199 1688.24,758.199"
       id="polyline9644"
       transform="matrix(0.10115166,0,0,0.16791352,-10.251679,54.202791)" />
    <polyline
       class="LedgerLine"
       fill="none"
       stroke="#000000"
       stroke-width="3.97"
       stroke-linejoin="bevel"
       points="2010.42,758.199 2059.01,758.199"
       id="polyline9646"
       transform="matrix(0.10115166,0,0,0.16791352,-10.251679,54.202791)" />
    <polyline
       class="LedgerLine"
       fill="none"
       stroke="#000000"
       stroke-width="3.97"
       stroke-linejoin="bevel"
       points="1268.88,782.999 1317.47,782.999"
       id="polyline9648"
       transform="matrix(0.10115166,0,0,0.16791352,-10.251679,54.202791)" />
    <polyline
       class="LedgerLine"
       fill="none"
       stroke="#000000"
       stroke-width="3.97"
       stroke-linejoin="bevel"
       points="1268.88,758.199 1317.47,758.199"
       id="polyline9650"
       transform="matrix(0.10115166,0,0,0.16791352,-10.251679,54.202791)" />
    <polyline
       class="LedgerLine"
       fill="none"
       stroke="#000000"
       stroke-width="3.97"
       stroke-linejoin="bevel"
       points="2381.19,758.199 2429.78,758.199"
       id="polyline9652"
       transform="matrix(0.10115166,0,0,0.16791352,-10.251679,54.202791)" />
    <polyline
       class="LedgerLine"
       fill="none"
       stroke="#000000"
       stroke-width="3.97"
       stroke-linejoin="bevel"
       points="898.111,807.799 946.703,807.799"
       id="polyline9654"
       transform="matrix(0.10115166,0,0,0.16791352,-10.251679,54.202791)" />
    <polyline
       class="LedgerLine"
       fill="none"
       stroke="#000000"
       stroke-width="3.97"
       stroke-linejoin="bevel"
       points="898.111,782.999 946.703,782.999"
       id="polyline9656"
       transform="matrix(0.10115166,0,0,0.16791352,-10.251679,54.202791)" />
    <polyline
       class="LedgerLine"
       fill="none"
       stroke="#000000"
       stroke-width="3.97"
       stroke-linejoin="bevel"
       points="898.111,758.199 946.703,758.199"
       id="polyline9658"
       transform="matrix(0.10115166,0,0,0.16791352,-10.251679,54.202791)" />
    <polyline
       class="LedgerLine"
       fill="none"
       stroke="#000000"
       stroke-width="3.97"
       stroke-linejoin="bevel"
       points="527.342,807.799 575.934,807.799"
       id="polyline9660"
       transform="matrix(0.10115166,0,0,0.16791352,-10.251679,54.202791)" />
    <polyline
       class="LedgerLine"
       fill="none"
       stroke="#000000"
       stroke-width="3.97"
       stroke-linejoin="bevel"
       points="527.342,782.999 575.934,782.999"
       id="polyline9662"
       transform="matrix(0.10115166,0,0,0.16791352,-10.251679,54.202791)" />
    <polyline
       class="LedgerLine"
       fill="none"
       stroke="#000000"
       stroke-width="3.97"
       stroke-linejoin="bevel"
       points="527.342,758.199 575.934,758.199"
       id="polyline9664"
       transform="matrix(0.10115166,0,0,0.16791352,-10.251679,54.202791)" />
    <polyline
       class="Stem"
       fill="none"
       stroke="#000000"
       stroke-width="2.48"
       stroke-linejoin="bevel"
       points="937.279,803.831 937.279,683.799"
       id="polyline9666"
       transform="matrix(0.10115166,0,0,0.16791352,-10.251679,54.202791)" />
    <polyline
       class="Stem"
       fill="none"
       stroke="#000000"
       stroke-width="2.48"
       stroke-linejoin="bevel"
       points="2420.35,754.231 2420.35,671.399"
       id="polyline9668"
       transform="matrix(0.10115166,0,0,0.16791352,-10.251679,54.202791)" />
    <polyline
       class="Stem"
       fill="none"
       stroke="#000000"
       stroke-width="2.48"
       stroke-linejoin="bevel"
       points="1308.05,791.431 1308.05,683.799"
       id="polyline9670"
       transform="matrix(0.10115166,0,0,0.16791352,-10.251679,54.202791)" />
    <polyline
       class="Stem"
       fill="none"
       stroke="#000000"
       stroke-width="2.48"
       stroke-linejoin="bevel"
       points="2049.59,766.631 2049.59,683.799"
       id="polyline9672"
       transform="matrix(0.10115166,0,0,0.16791352,-10.251679,54.202791)" />
    <polyline
       class="Stem"
       fill="none"
       stroke="#000000"
       stroke-width="2.48"
       stroke-linejoin="bevel"
       points="1678.82,779.031 1678.82,683.799"
       id="polyline9674"
       transform="matrix(0.10115166,0,0,0.16791352,-10.251679,54.202791)" />
    <polyline
       class="Stem"
       fill="none"
       stroke="#000000"
       stroke-width="2.48"
       stroke-linejoin="bevel"
       points="566.51,816.231 566.51,683.799"
       id="polyline9676"
       transform="matrix(0.10115166,0,0,0.16791352,-10.251679,54.202791)" />
    <path
       class="Note"
       d="m 231.43707,182.21476 c 0,0.71573 0.31043,1.51477 1.12414,1.51477 1.04264,0 2.13698,-1.41586 2.13698,-2.88117 0,-0.98379 -0.5017,-1.53295 -1.12414,-1.53295 -0.97364,0 -2.13698,1.36638 -2.13698,2.89935"
       id="path9678"
       style="stroke-width:0.129283" />
    <path
       class="Note"
       d="m 193.93307,184.2969 c 0,0.71572 0.31043,1.51474 1.12414,1.51474 1.04264,0 2.13698,-1.41583 2.13698,-2.88115 0,-0.9838 -0.5017,-1.53295 -1.12414,-1.53295 -0.97364,0 -2.13698,1.36638 -2.13698,2.89936"
       id="path9680"
       style="stroke-width:0.129283" />
    <path
       class="Note"
       d="m 118.92507,188.46116 c 0,0.71572 0.31043,1.51474 1.12414,1.51474 1.04264,0 2.13698,-1.41583 2.13698,-2.88115 0,-0.9838 -0.5017,-1.53295 -1.12414,-1.53295 -0.97364,0 -2.13698,1.36638 -2.13698,2.89936"
       id="path9682"
       style="stroke-width:0.129283" />
    <path
       class="Note"
       d="m 156.42907,186.37903 c 0,0.71572 0.31043,1.51474 1.12414,1.51474 1.04264,0 2.13698,-1.41584 2.13698,-2.88115 0,-0.98379 -0.5017,-1.53295 -1.12414,-1.53295 -0.97364,0 -2.13698,1.36639 -2.13698,2.89936"
       id="path9684"
       style="stroke-width:0.129283" />
    <path
       class="Note"
       d="m 81.421568,190.54329 c 0,0.71572 0.310442,1.51474 1.124151,1.51474 1.042633,0 2.136978,-1.41586 2.136978,-2.88115 0,-0.98379 -0.501705,-1.53297 -1.124136,-1.53297 -0.973646,0 -2.136993,1.36641 -2.136993,2.89938"
       id="path9686"
       style="stroke-width:0.129283" />
    <path
       class="Note"
       d="m 43.917669,192.62541 c 0,0.71573 0.310441,1.51475 1.12415,1.51475 1.042634,0 2.136978,-1.41586 2.136978,-2.88115 0,-0.98382 -0.501705,-1.53297 -1.124136,-1.53297 -0.973646,0 -2.136992,1.3664 -2.136992,2.89937"
       id="path9688"
       style="stroke-width:0.129283" />
    <path
       class="Clef"
       d="m 29.921473,185.12976 c 0,-0.61684 -0.340218,-0.88229 -0.671047,-0.88229 -0.421749,0 -0.834095,0.43204 -0.834095,1.18161 0,0.31752 0.07054,0.55175 0.211664,0.78338 -0.261827,0.16659 -0.522106,0.49973 -0.522106,1.01766 0,0.54915 0.301038,0.91613 0.743174,0.91613 0.5409,0 0.921891,-0.49972 0.921891,-1.21804 0,-0.38261 -0.100357,-0.69752 -0.28065,-0.91614 0.291632,-0.21609 0.431169,-0.48149 0.431169,-0.88231 m -1.003423,2.66513 c -0.219506,0 -0.37001,-0.23156 -0.37001,-0.58301 0,-0.33313 0.08932,-0.5986 0.26025,-0.76517 0.04072,0.0338 0.05018,0.0338 0.08,0.0649 0.120713,0.10163 0.120713,0.10163 0.141071,0.13542 0.1897,0.1823 0.271232,0.34876 0.271232,0.58299 0,0.31493 -0.161486,0.56478 -0.382554,0.56478 m 0.382554,-1.99884 c -0.150519,-0.1328 -0.191277,-0.16659 -0.221069,-0.20039 l -0.02036,-0.0167 c -0.150518,-0.15088 -0.200681,-0.26809 -0.200681,-0.46588 0,-0.30191 0.14107,-0.51793 0.341796,-0.51793 0.189699,0 0.310427,0.20038 0.310427,0.54916 0,0.26809 -0.0595,0.45027 -0.210087,0.65065 m 2.79862,-12.64371 c 0,-2.5142 -1.073987,-4.21372 -2.538355,-4.21372 -0.100358,-0.99943 -0.191278,-1.98324 -0.280651,-2.91499 1.053601,-1.8505 1.795197,-3.94823 1.795197,-6.57952 0,-1.51737 -0.28065,-2.7484 -0.451541,-3.34956 -0.239878,-0.84852 -0.531511,-1.43152 -0.702401,-1.43152 -0.06896,0 -0.390396,0.20038 -0.711805,0.84852 -0.652237,1.26742 -0.832533,3.38078 -0.832533,4.78101 0,0.90054 0.05018,1.71517 0.221068,3.59949 -0.01146,0 -0.533072,0.88231 -0.743158,1.18163 -0.914064,1.4002 -2.177751,3.43028 -2.177751,6.7461 0,3.13101 1.635274,5.58009 3.502583,5.58009 0.290055,0 0.561287,-0.0495 0.802741,-0.11709 0.180296,1.58502 0.301037,2.76663 0.301037,3.64892 0,1.73338 -0.542491,2.64952 -1.555319,2.64952 -0.241454,0 -0.451541,-0.0833 -0.471928,-0.10138 -0.01002,0 -0.02982,-0.0167 -0.02982,-0.0312 0,-0.0338 0.02036,-0.0521 0.05018,-0.0676 0.471928,-0.11709 0.942278,-0.79899 0.942278,-1.84788 0,-0.90051 -0.410782,-1.85049 -1.163346,-1.85049 -0.702401,0 -1.144537,0.94998 -1.144537,2.04831 0,1.10093 0.501719,2.55061 1.856342,2.55061 1.295041,0 1.926891,-1.21804 1.926891,-3.34962 0,-0.64808 -0.05964,-1.39764 -0.159923,-2.34762 -0.02982,-0.33313 -0.08,-0.85107 -0.150504,-1.48351 0.983037,-0.54916 1.715228,-2.23309 1.715228,-3.94824 m -3.090251,-13.65876 c 0.100357,-0.66629 0.551895,-2.41529 1.073987,-2.41529 0.150518,0 0.401377,0.79902 0.401377,1.96502 0,1.71515 -0.782368,3.01646 -1.475364,4.16423 -0.05964,-0.66627 -0.109675,-1.33254 -0.109675,-2.01444 0,-0.63245 0.03914,-1.1842 0.109675,-1.69952 m 0.301037,17.22441 c -1.434578,0 -2.659084,-1.66571 -2.659084,-4.18249 0,-2.03009 0.862323,-3.84672 1.746596,-5.12983 0.169328,-0.23418 0.330815,-0.46588 0.481332,-0.71575 0.08932,0.89793 0.15991,1.6657 0.230474,2.36581 -0.914064,0.43207 -1.534933,2.04831 -1.534933,3.5969 0,1.1842 0.551897,2.78225 1.354637,2.78225 0.08,0 0.17089,-0.0676 0.17089,-0.23418 0,-0.1328 -0.0909,-0.23157 -0.221068,-0.36439 -0.391973,-0.38518 -0.613026,-0.83286 -0.613026,-1.63448 0,-1.01503 0.462509,-1.83229 1.044182,-2.06392 L 29.89167,176.6 c -0.200681,0.0676 -0.380991,0.11709 -0.581672,0.11709 m 1.003422,-0.31752 c -0.210086,-1.98064 -0.481318,-4.63015 -0.551881,-5.36411 1.012827,0 1.445558,1.16601 1.534933,1.96764 0.01146,0.1328 0.02982,0.3149 0.02982,0.51532 0,1.19983 -0.301038,2.39965 -1.012843,2.88115"
       id="path9690"
       style="stroke-width:0.129283" />
    <path
       class="StaffText"
       d="m 159.34425,150.8968 h -0.22153 c -0.16689,1.51123 -0.39448,1.88113 -1.17841,1.90733 h -0.21343 c -0.30346,-0.019 -0.37931,-0.10234 -0.36414,-0.40401 v -4.23192 c 0,-0.41979 0,-0.44613 0.0304,-0.51953 0.0414,-0.084 0.13749,-0.11019 0.42483,-0.11804 h 0.092 v -0.39627 h -1.6599 v 0.39627 h 0.092 c 0.28728,0.007 0.38438,0.0341 0.42384,0.11804 0.0314,0.0733 0.0314,0.0919 0.0314,0.51953 v 3.99584 c 0,0.4302 0,0.44598 -0.0314,0.52205 -0.0394,0.084 -0.13649,0.11804 -0.42384,0.11804 h -0.092 v 0.39358 h 2.98399 l 0.10625,-2.30091 m 2.41044,-0.40148 c 0,-0.52994 -0.0556,-0.7976 -0.2023,-0.9996 -0.16589,-0.22823 -0.41472,-0.33582 -0.73841,-0.33582 -0.57049,0 -0.98622,0.44346 -0.98622,1.05736 0,0.30964 0.11728,0.51162 0.29435,0.51162 0.16083,0 0.2731,-0.17587 0.2731,-0.42767 0,-0.11019 -0.0253,-0.22561 -0.0759,-0.34373 -0.0314,-0.0602 -0.0364,-0.0762 -0.0364,-0.11804 0,-0.16802 0.2023,-0.32004 0.44608,-0.32004 0.16082,0 0.33784,0.084 0.41876,0.2099 0.096,0.13637 0.13248,0.33583 0.13248,0.71363 v 0.32795 c -0.52599,0.15208 -0.6939,0.21776 -0.94173,0.37781 -0.44001,0.27016 -0.64635,0.65587 -0.64635,1.19369 0,0.60347 0.28221,0.98127 0.73335,0.98127 0.34898,0 0.66152,-0.23608 0.88002,-0.66374 0.0809,0.42766 0.20735,0.59559 0.44405,0.59559 0.22759,0 0.46631,-0.24146 0.46631,-0.48545 0,-0.0602 -0.0203,-0.10233 -0.0506,-0.10233 -0.0203,0 -0.0415,0.01 -0.0759,0.0341 -0.0708,0.05 -0.10125,0.0602 -0.14266,0.0602 -0.14164,0 -0.19218,-0.15206 -0.19218,-0.57978 v -1.68704 m -0.4744,1.02327 c 0,0.50375 -0.0162,0.62179 -0.10103,0.83958 -0.12645,0.30961 -0.35404,0.51952 -0.57656,0.51952 -0.23266,0 -0.40057,-0.27556 -0.40057,-0.65337 0,-0.35412 0.10626,-0.60598 0.32876,-0.78179 0.15677,-0.11804 0.35401,-0.20205 0.74952,-0.30964 v 0.3857"
       id="path9700"
       style="stroke-width:0.130326" />
    <path
       class="StaffText"
       d="m 231.13158,152.86408 h 1.69936 c 0.45012,0 0.79504,-0.11804 1.06208,-0.36993 0.50981,-0.47754 0.79507,-1.43514 0.79507,-2.6945 0,-1.15961 -0.25289,-2.06483 -0.7192,-2.56858 -0.27816,-0.29383 -0.65344,-0.43018 -1.23001,-0.43018 h -1.6073 v 0.39611 h 0.096 c 0.28323,0.007 0.3793,0.0341 0.41876,0.11804 0.0304,0.0736 0.0304,0.0919 0.0304,0.51953 v 3.99583 c 0,0.43035 0,0.44597 -0.0304,0.52206 -0.0394,0.084 -0.13548,0.10756 -0.41876,0.11827 h -0.096 v 0.39342 m 1.39994,-0.39342 c -0.25692,0 -0.28727,-0.0526 -0.28727,-0.46177 v -4.34225 c 0,-0.41188 0.0344,-0.46964 0.28727,-0.46964 h 0.26401 c 0.86485,0 1.22394,0.77929 1.22394,2.63674 0,1.88131 -0.3247,2.63692 -1.14301,2.63692 h -0.34494 m 3.66979,-3.6444 c -0.62107,0 -1.10154,0.9158 -1.10154,2.0912 0,1.14903 0.48552,2.07254 1.09244,2.07254 0.6069,0 1.09244,-0.92351 1.09244,-2.08313 0,-1.14919 -0.48554,-2.08061 -1.08334,-2.08061 m 0,0.35951 c 0.35402,0 0.55229,0.61388 0.55229,1.7211 0,1.11764 -0.19827,1.72112 -0.56139,1.72112 -0.36314,0 -0.56141,-0.60348 -0.56141,-1.71053 0,-1.14401 0.19118,-1.73169 0.57051,-1.73169"
       id="path9702"
       style="stroke-width:0.130326" />
    <path
       class="StaffText"
       d="M 44.765728,145.05223 H 43.46177 v 0.39627 h 0.09634 c 0.287675,0.007 0.384074,0.0341 0.418868,0.11804 0.03628,0.0733 0.03628,0.084 0.03628,0.51953 v 3.21655 c 0,1.14131 -0.09634,1.37739 -0.587881,1.41938 v 0.39358 h 1.441402 V 150.722 c -0.485217,-0.0419 -0.581615,-0.27807 -0.581615,-1.41938 v -3.7124 l 1.204305,5.52536 h 0.202302 l 1.128451,-5.52536 v 4.49169 c 0,0.43021 0,0.44599 -0.02996,0.52995 -0.041,0.084 -0.137486,0.11018 -0.425148,0.11018 h -0.0916 v 0.39359 h 1.659487 V 150.722 h -0.0916 c -0.287675,0 -0.384073,-0.0262 -0.425148,-0.11019 -0.02996,-0.0841 -0.02996,-0.0919 -0.02996,-0.52995 v -3.99584 c 0,-0.42766 0,-0.44613 0.02996,-0.51952 0.041,-0.084 0.137487,-0.11019 0.425148,-0.11805 h 0.0916 v -0.39627 h -1.269148 l -0.92615,4.47608 -0.971954,-4.47608 m 4.126576,0.0605 c -0.162747,0 -0.29394,0.21776 -0.29394,0.48527 0,0.27034 0.131179,0.48812 0.289282,0.48812 0.165901,0 0.297094,-0.21776 0.297094,-0.48812 0,-0.26749 -0.131179,-0.48527 -0.292436,-0.48527 m 0.237097,2.09103 -0.949805,0.0919 v 0.36203 h 0.257526 c 0.191277,0.007 0.216566,0.0578 0.216566,0.41979 v 2.40065 c -0.0042,0.1259 -0.01002,0.17587 -0.0301,0.21775 -0.03484,0.0762 -0.131178,0.11019 -0.349265,0.11805 h -0.03484 v 0.30175 h 1.310209 v -0.30175 h -0.03628 c -0.338254,-0.019 -0.384073,-0.0602 -0.384073,-0.36203 v -3.24811"
       id="path9704"
       style="stroke-width:0.130326" />
    <path
       class="StaffText"
       d="m 84.338077,146.30152 h -3.009266 v 0.39627 h 0.09004 c 0.289295,0.007 0.385694,0.0341 0.425148,0.11805 0.02996,0.0733 0.02996,0.0919 0.02996,0.51952 v 3.99584 c 0,0.43019 0,0.44596 -0.02996,0.52203 -0.03942,0.084 -0.13591,0.11804 -0.425148,0.11804 h -0.09004 v 0.39358 h 1.733738 v -0.39358 h -0.165888 c -0.289295,0 -0.384074,-0.0341 -0.425133,-0.11804 -0.0301,-0.0762 -0.0301,-0.10234 -0.0301,-0.52203 v -1.90483 h 0.101217 c 0.519912,-0.0341 0.708063,0.27807 0.728593,1.20948 h 0.237096 v -2.75478 h -0.237096 c -0.03168,0.8238 -0.227591,1.14132 -0.708063,1.15171 h -0.121717 v -1.91523 c -0.0044,-0.35428 0.04588,-0.41188 0.317624,-0.41976 h 0.233958 c 0.829751,-0.007 1.036797,0.30172 1.19328,1.7473 h 0.222846 l -0.0711,-2.14359 m 2.324872,3.36096 c 0,-0.52993 -0.05534,-0.79757 -0.202301,-0.99958 -0.166003,-0.22823 -0.414124,-0.33583 -0.738114,-0.33583 -0.57049,0 -0.986232,0.44345 -0.986232,1.05734 0,0.30965 0.116985,0.51165 0.293954,0.51165 0.161228,0 0.273511,-0.17588 0.273511,-0.42769 0,-0.11019 -0.02524,-0.22561 -0.07584,-0.3437 -0.03168,-0.0602 -0.03642,-0.0762 -0.03642,-0.11804 0,-0.16802 0.202316,-0.32005 0.445678,-0.32005 0.161242,0 0.338254,0.084 0.418868,0.20991 0.09634,0.13636 0.132756,0.33582 0.132756,0.71363 v 0.32792 c -0.526392,0.15207 -0.6939,0.21775 -0.94202,0.37781 -0.439399,0.27018 -0.646459,0.65586 -0.646459,1.1937 0,0.60349 0.282914,0.98129 0.733352,0.98129 0.349365,0 0.662229,-0.23608 0.880417,-0.66378 0.08056,0.4277 0.20696,0.59559 0.444056,0.59559 0.227592,0 0.466308,-0.24146 0.466308,-0.48542 0,-0.0602 -0.02064,-0.10234 -0.0506,-0.10234 -0.02064,0 -0.04114,0.01 -0.07584,0.0341 -0.07126,0.0497 -0.101217,0.0602 -0.14236,0.0602 -0.142218,0 -0.192783,-0.15208 -0.192783,-0.57981 v -1.68702 m -0.474106,1.02325 c 0,0.50375 -0.01592,0.62179 -0.101076,0.83957 -0.126448,0.30962 -0.354039,0.51953 -0.576971,0.51953 -0.232251,0 -0.399859,-0.27554 -0.399859,-0.65335 0,-0.35413 0.105943,-0.60601 0.32875,-0.78181 0.156482,-0.11804 0.354024,-0.20206 0.749223,-0.30963 v 0.38569"
       id="path9706"
       style="stroke-width:0.130326" />
    <path
       class="StaffText"
       d="m 196.14019,146.75101 h -0.18612 l -0.2023,0.50374 c -0.24378,-0.3778 -0.56139,-0.57981 -0.92149,-0.57981 -0.66658,0 -1.10661,0.69786 -1.10661,1.75521 0,0.91564 0.2721,1.3695 1.01658,1.68972 l 0.48047,0.19943 c 0.37426,0.15993 0.40967,0.17849 0.51487,0.31214 0.15172,0.19158 0.23467,0.46965 0.23467,0.7976 0,0.33582 -0.0778,0.61136 -0.22962,0.84745 -0.16589,0.23632 -0.33381,0.32794 -0.61196,0.32794 -0.76269,0 -1.14202,-0.93124 -1.27351,-2.06466 h -0.21848 l 0.0212,2.39276 h 0.19724 l 0.22758,-0.57208 c 0.33786,0.46177 0.61603,0.62967 1.0621,0.62967 0.74245,0 1.21888,-0.72151 1.21888,-1.84705 0,-0.52992 -0.10125,-0.96549 -0.30346,-1.28554 -0.13649,-0.21775 -0.33379,-0.3595 -0.7384,-0.5274 l -0.54218,-0.22823 c -0.44912,-0.19158 -0.66254,-0.51953 -0.66254,-1.03118 0,-0.58769 0.2893,-0.99169 0.71919,-0.99169 0.65141,0 1.01152,0.89733 1.14807,1.85494 h 0.21747 l -0.0616,-2.18286 m 1.18247,0.11018 c -0.16286,0 -0.29334,0.21775 -0.29334,0.48543 0,0.27018 0.13046,0.48797 0.28928,0.48797 0.16591,0 0.29638,-0.21776 0.29638,-0.48797 0,-0.26765 -0.13046,-0.48543 -0.29232,-0.48543 m 0.2377,2.09103 -0.9498,0.0919 v 0.36216 h 0.25692 c 0.19117,0.007 0.21646,0.0575 0.21646,0.41979 v 2.40049 c -0.004,0.12589 -0.009,0.17587 -0.0294,0.21776 -0.0354,0.0762 -0.13148,0.11042 -0.34999,0.11804 h -0.0344 v 0.30174 h 1.30993 v -0.30174 h -0.0365 c -0.33785,-0.019 -0.38337,-0.0602 -0.38337,-0.362 v -3.24813"
       id="path9708"
       style="stroke-width:0.130326" />
    <path
       class="StaffText"
       d="m 121.75225,146.86905 h -0.18612 l -0.20231,0.50375 c -0.24377,-0.37781 -0.56138,-0.57982 -0.92148,-0.57982 -0.66761,0 -1.10661,0.69786 -1.10661,1.75522 0,0.91563 0.27211,1.36949 1.01658,1.68971 l 0.48047,0.19943 c 0.37426,0.15993 0.40865,0.17849 0.51485,0.31232 0.15175,0.19134 0.23367,0.4695 0.23367,0.79758 0,0.33583 -0.0769,0.61121 -0.22861,0.84732 -0.16588,0.23631 -0.33378,0.32808 -0.61196,0.32808 -0.76369,0 -1.14302,-0.93141 -1.27349,-2.06482 h -0.21849 l 0.0203,2.39277 h 0.19825 l 0.2276,-0.5721 c 0.33784,0.46177 0.616,0.62969 1.06208,0.62969 0.74246,0 1.21788,-0.72136 1.21788,-1.84705 0,-0.52994 -0.10125,-0.96551 -0.30347,-1.28556 -0.13548,-0.21775 -0.33279,-0.35934 -0.7374,-0.52723 l -0.54216,-0.22848 c -0.44911,-0.19134 -0.66255,-0.51952 -0.66255,-1.03097 0,-0.58772 0.28929,-0.99189 0.71918,-0.99189 0.65142,0 1.01152,0.89733 1.14707,1.85494 h 0.21848 l -0.0616,-2.18287 m 1.74688,2.07542 c -0.62107,0 -1.10154,0.91564 -1.10154,2.09101 0,1.14905 0.48451,2.07256 1.09141,2.07256 0.60693,0 1.09245,-0.92351 1.09245,-2.08313 0,-1.14919 -0.48552,-2.08044 -1.08232,-2.08044 m 0,0.35931 c 0.35403,0 0.55128,0.61392 0.55128,1.72113 0,1.11764 -0.19725,1.72111 -0.56141,1.72111 -0.36311,0 -0.56036,-0.60347 -0.56036,-1.71054 0,-1.14398 0.19117,-1.7317 0.57049,-1.7317 m 2.28502,-2.51079 -0.93566,0.0945 v 0.35934 h 0.24782 c 0.18714,0.007 0.21243,0.0605 0.21243,0.41979 v 4.67805 c -0.005,0.12589 -0.01,0.17563 -0.0304,0.21752 -0.0365,0.0762 -0.13147,0.11043 -0.34897,0.11828 h -0.0354 v 0.30158 h 1.3089 v -0.30158 h -0.0344 c -0.33885,-0.019 -0.38437,-0.0605 -0.38437,-0.3622 v -5.52536"
       id="path9710"
       style="stroke-width:0.130326" />
  </g>
</svg>
