<?xml version="1.0" encoding="UTF-8" standalone="no"?>
<svg
   width="297mm"
   height="210mm"
   viewBox="0 0 4209.4489 2976.378"
   version="1.2"
   id="svg230"
   sodipodi:docname="une_poule_sur_un_mur.svg"
   inkscape:version="1.2.2 (b0a8486541, 2022-12-01)"
   xmlns:inkscape="http://www.inkscape.org/namespaces/inkscape"
   xmlns:sodipodi="http://sodipodi.sourceforge.net/DTD/sodipodi-0.dtd"
   xmlns="http://www.w3.org/2000/svg"
   xmlns:svg="http://www.w3.org/2000/svg"
   xmlns:rdf="http://www.w3.org/1999/02/22-rdf-syntax-ns#"
   xmlns:cc="http://creativecommons.org/ns#"
   xmlns:dc="http://purl.org/dc/elements/1.1/">
  <defs
     id="defs234" />
  <sodipodi:namedview
     id="namedview232"
     pagecolor="#ffffff"
     bordercolor="#000000"
     borderopacity="0.25"
     inkscape:showpageshadow="2"
     inkscape:pageopacity="0.0"
     inkscape:pagecheckerboard="0"
     inkscape:deskcolor="#d1d1d1"
     inkscape:document-units="mm"
     showgrid="false"
     inkscape:zoom="0.34128173"
     inkscape:cx="395.56762"
     inkscape:cy="562.58506"
     inkscape:window-width="1104"
     inkscape:window-height="552"
     inkscape:window-x="0"
     inkscape:window-y="32"
     inkscape:window-maximized="1"
     inkscape:current-layer="svg230" />
  <title
     id="title2">une_poule_sur_un_mur</title>
  <desc
     id="desc4">Generated by MuseScore Studio 4.6.5</desc>
  <polyline
     class="StaffLines"
     fill="none"
     stroke="#000000"
     stroke-width="2.73"
     stroke-linejoin="bevel"
     points="336.598,634.198 2764.6,634.198"
     id="polyline6"
     transform="matrix(1.5441332,0,0,1.5441332,-226.01119,-42.456011)" />
  <polyline
     class="StaffLines"
     fill="none"
     stroke="#000000"
     stroke-width="2.73"
     stroke-linejoin="bevel"
     points="336.598,658.998 2764.6,658.998"
     id="polyline8"
     transform="matrix(1.5441332,0,0,1.5441332,-226.01119,-42.456011)" />
  <polyline
     class="StaffLines"
     fill="none"
     stroke="#000000"
     stroke-width="2.73"
     stroke-linejoin="bevel"
     points="336.598,683.798 2764.6,683.798"
     id="polyline10"
     transform="matrix(1.5441332,0,0,1.5441332,-226.01119,-42.456011)" />
  <polyline
     class="StaffLines"
     fill="none"
     stroke="#000000"
     stroke-width="2.73"
     stroke-linejoin="bevel"
     points="336.598,708.598 2764.6,708.598"
     id="polyline12"
     transform="matrix(1.5441332,0,0,1.5441332,-226.01119,-42.456011)" />
  <polyline
     class="StaffLines"
     fill="none"
     stroke="#000000"
     stroke-width="2.73"
     stroke-linejoin="bevel"
     points="336.598,733.398 2764.6,733.398"
     id="polyline14"
     transform="matrix(1.5441332,0,0,1.5441332,-226.01119,-42.456011)" />
  <polyline
     class="StaffLines"
     fill="none"
     stroke="#000000"
     stroke-width="2.73"
     stroke-linejoin="bevel"
     points="212.598,1316.2 2764.6,1316.2"
     id="polyline16"
     transform="matrix(1.5441332,0,0,1.5441332,-226.01119,-42.456011)" />
  <polyline
     class="StaffLines"
     fill="none"
     stroke="#000000"
     stroke-width="2.73"
     stroke-linejoin="bevel"
     points="212.598,1341 2764.6,1341"
     id="polyline18"
     transform="matrix(1.5441332,0,0,1.5441332,-226.01119,-42.456011)" />
  <polyline
     class="StaffLines"
     fill="none"
     stroke="#000000"
     stroke-width="2.73"
     stroke-linejoin="bevel"
     points="212.598,1365.8 2764.6,1365.8"
     id="polyline20"
     transform="matrix(1.5441332,0,0,1.5441332,-226.01119,-42.456011)" />
  <polyline
     class="StaffLines"
     fill="none"
     stroke="#000000"
     stroke-width="2.73"
     stroke-linejoin="bevel"
     points="212.598,1390.6 2764.6,1390.6"
     id="polyline22"
     transform="matrix(1.5441332,0,0,1.5441332,-226.01119,-42.456011)" />
  <polyline
     class="StaffLines"
     fill="none"
     stroke="#000000"
     stroke-width="2.73"
     stroke-linejoin="bevel"
     points="212.598,1415.4 2764.6,1415.4"
     id="polyline24"
     transform="matrix(1.5441332,0,0,1.5441332,-226.01119,-42.456011)" />
  <path
     class="Text"
     d="m 1294.4118,297.79066 c 16.286,0.84463 19.5193,5.59748 19.5193,28.88146 v 37.54096 c 0,13.58374 -0.8446,19.01292 -4.078,24.97172 -5.4276,10.51865 -16.4789,16.62414 -30.2311,16.62414 -11.726,0 -21.5699,-4.41621 -27.1674,-12.0396 -4.583,-6.29698 -5.4523,-10.37504 -5.4523,-26.17769 V 310.6996 c 0,-8.66258 0,-8.9992 1.0377,-10.52018 1.351,-1.71244 4.5844,-2.21892 14.2584,-2.38876 h 3.2335 v -7.98472 h -55.5409 v 7.98472 h 2.8721 c 9.5303,0.16984 12.739,0.67632 14.1134,2.38876 1.0144,1.52098 1.0144,1.8576 1.0144,10.52018 v 67.6037 c 0.5065,8.9992 1.8576,14.42838 5.091,19.18122 7.8164,11.21967 22.7513,17.51665 41.9557,17.51665 19.2059,0 32.4515,-5.7905 40.606,-17.85481 5.4276,-7.79324 7.4504,-16.81561 7.4504,-31.92033 v -38.55391 c -0.1697,-23.11413 3.2428,-28.03683 19.7187,-28.88146 v -7.98472 h -48.4009 v 7.98472 m 78.2644,35.49189 -29.3848,1.8823 v 7.30993 h 6.1302 c 6.439,0.16831 7.2883,1.1828 7.2883,8.49273 v 48.56762 c -0.1699,2.55708 -0.3397,3.57158 -1.0192,4.41468 -1.1736,1.52097 -4.4162,2.22046 -11.72,2.38877 h -0.6793 v 6.10396 h 42.9732 v -6.10396 h -0.6795 c -11.3802,-0.36132 -12.9089,-1.20597 -12.9089,-7.30992 v -25.14004 c 0,-8.32441 1.189,-15.97251 3.0728,-19.88071 3.567,-7.6481 11.1949,-12.90896 18.4987,-12.90896 4.4163,0 9.5119,2.38878 12.0597,5.96036 2.5633,3.71519 3.7522,8.82936 3.7522,16.98546 v 35.49036 c -0.1698,2.55708 -0.3397,3.57158 -1.0191,4.41468 -1.2044,1.52097 -4.6015,2.22046 -11.8898,2.38877 h -0.6795 v 6.10396 h 42.9733 v -6.10396 h -0.6794 c -11.2259,-0.36132 -12.7392,-1.20597 -12.7392,-7.30992 v -34.13924 c 0,-12.23263 -0.5249,-15.29773 -3.5668,-21.06352 -4.2464,-8.15458 -12.7392,-13.07727 -22.9459,-13.07727 -11.0251,0 -19.348,5.09101 -26.837,16.31068 v -13.77676 m 148.7926,40.94269 c 0.1699,-25.47819 -14.2831,-43.47661 -35.0055,-43.47661 -21.7413,0 -38.0474,18.84306 -38.0474,44.32126 0,23.95877 15.4722,39.93128 38.3871,39.93128 16.3061,0 27.7018,-7.98626 34.6658,-24.12708 l -5.9603,-3.23342 c -6.9486,13.07727 -14.0825,18.16827 -25.4782,18.16827 -8.6626,0 -14.9318,-3.54687 -19.348,-11.19496 -3.0574,-5.09101 -4.4162,-11.05136 -4.2464,-20.38874 h 55.0329 m -54.863,-7.30992 c 0,-11.89446 5.4353,-28.87992 19.6878,-28.87992 10.2066,0 16.9854,9.02391 16.9854,22.77596 0,4.75285 -1.5133,6.10396 -6.9486,6.10396 h -29.7246 m 142.1374,-33.63277 -29.3848,1.8823 v 7.30993 h 6.1302 c 6.439,0.16831 7.2729,1.1828 7.2729,8.49273 v 83.04502 c -0.1698,2.38878 -0.3243,3.40173 -1.0037,4.24637 -1.189,1.52097 -4.4162,2.22046 -11.7354,2.38878 h -0.664 v 6.10396 h 44.1777 v -6.10396 h -1.8838 c -11.3958,-0.33817 -12.9091,-1.20597 -12.9091,-7.30993 v -32.11334 c 5.5898,9.86702 11.8899,13.77676 22.4054,13.77676 22.6061,0 34.3107,-22.26949 34.3107,-42.46366 0,-19.20593 -11.7046,-41.78888 -33.2606,-41.78888 -10.5464,0 -17.526,4.41622 -23.4555,14.59669 v -12.06277 m 20.3827,6.63515 c 11.7199,0 18.5141,11.7246 18.5141,31.58215 0,21.93133 -6.7942,34.30909 -19.0237,34.30909 -12.2296,0 -20.0429,-12.57078 -20.0429,-32.09017 0,-21.23183 7.6435,-33.80107 20.5525,-33.80107 m 85.7457,-9.16907 c -20.8921,0 -37.0284,18.50643 -37.0284,42.29536 0,23.25773 16.306,41.95718 36.6887,41.95718 20.3979,0 36.7039,-18.69945 36.7039,-42.12704 0,-23.28244 -16.306,-42.1255 -36.3642,-42.1255 m 0,7.28677 c 11.9052,0 18.5141,12.40093 18.5141,34.83873 0,22.58295 -6.6089,34.81557 -18.8538,34.81557 -12.2296,0 -18.8385,-12.23262 -18.8385,-34.64571 0,-23.11414 6.439,-35.00859 19.1782,-35.00859 m 112.0731,75.58995 30.929,-1.18281 v -7.30993 h -4.2464 c -9.8669,-0.33816 -10.7163,-1.35112 -10.7163,-12.40093 v -59.44913 l -31.9172,1.8823 v 7.30993 h 8.6626 c 6.439,0.16831 7.2883,1.1828 7.2883,8.49273 v 20.87051 c 0,14.7897 -3.5514,32.78812 -22.2509,32.78812 -5.25,0 -9.6663,-1.8576 -11.8898,-5.25932 -2.1927,-3.23341 -2.5324,-4.92269 -2.5324,-14.26007 v -51.8242 l -29.7246,1.8823 v 7.30993 h 6.439 c 6.47,0.16831 7.3192,1.1828 7.3192,8.49273 v 36.67316 c 0,8.66105 0.664,12.57079 3.2272,16.47899 4.5861,6.97177 12.7392,10.88151 22.915,10.88151 11.2258,0 19.0391,-4.58453 26.4973,-15.46604 v 14.09022 m 68.4515,-126.37804 -31.4232,1.8823 v 7.30993 h 8.3384 c 6.2691,0.16985 7.1029,1.1828 7.1029,8.49273 v 94.60286 c -0.1543,2.55708 -0.3242,3.57158 -1.0037,4.41468 -1.1889,1.52097 -4.4162,2.22046 -11.7353,2.38877 h -1.1736 v 6.10396 h 43.9769 v -6.10396 h -1.1735 c -11.3648,-0.36132 -12.9089,-1.20597 -12.9089,-7.30992 V 287.24731 m 97.8362,86.97793 c 0.1699,-25.47819 -14.2832,-43.47661 -35.0054,-43.47661 -21.7415,0 -38.0475,18.84306 -38.0475,44.32126 0,23.95877 15.4568,39.93128 38.3717,39.93128 16.3214,0 27.7018,-7.98626 34.6812,-24.12708 l -5.9603,-3.23342 c -6.9486,13.07727 -14.0979,18.16827 -25.4782,18.16827 -8.6626,0 -14.9317,-3.54687 -19.3481,-11.19496 -3.0728,-5.09101 -4.4162,-11.05136 -4.2463,-20.38874 h 55.0329 m -54.863,-7.30992 c 0,-11.89446 5.4199,-28.87992 19.6877,-28.87992 10.2067,0 16.9854,9.02391 16.9854,22.77596 0,4.75285 -1.5287,6.10396 -6.9486,6.10396 h -29.7245 m 174.24,-35.49036 h -5.9603 l -4.9259,6.10396 c -6.0993,-4.75285 -12.2295,-6.78029 -20.7222,-6.78029 -14.9318,0 -24.7989,9.67554 -24.7989,24.63355 0,15.94781 10.3767,20.02587 23.9495,23.25929 l 9.0023,2.0506 c 13.4186,3.20871 18.1745,6.61043 18.1745,13.41388 0,7.98626 -6.9486,13.58375 -16.8156,13.58375 -14.4376,0 -24.6135,-9.16752 -28.69,-26.15298 h -6.8096 v 32.08863 h 5.9449 l 5.9604,-6.94861 c 6.9486,5.59749 14.592,8.32443 23.2546,8.32443 16.6457,0 27.7017,-10.37503 27.7017,-26.17769 0,-7.45662 -2.3933,-13.24712 -7.1493,-17.15532 -4.0764,-3.54688 -7.4736,-4.92115 -17.8347,-7.11692 l -8.4927,-1.88228 c -9.3266,-2.02592 -9.3266,-2.02592 -12.3994,-3.7399 -3.7369,-1.68928 -5.9295,-5.25932 -5.9295,-8.99921 0,-6.9486 6.439,-11.70144 15.781,-11.70144 13.9435,0 20.7223,9.84385 24.7989,21.7383 h 5.9603 v -28.54175 m 82.3486,82.20039 30.929,-1.18281 v -7.30993 h -4.2463 c -9.8671,-0.33816 -10.7164,-1.35112 -10.7164,-12.40093 v -59.44913 l -31.9172,1.8823 v 7.30993 h 8.6625 c 6.4391,0.16831 7.2884,1.1828 7.2884,8.49273 v 20.87051 c 0,14.7897 -3.5515,32.78812 -22.251,32.78812 -5.25,0 -9.6662,-1.8576 -11.8898,-5.25932 -2.1926,-3.23341 -2.5324,-4.92269 -2.5324,-14.26007 v -51.8242 l -29.7245,1.8823 v 7.30993 h 6.439 c 6.4699,0.16831 7.3037,1.1828 7.3037,8.49273 v 36.67316 c 0,8.66105 0.6795,12.57079 3.2428,16.47899 4.586,6.97177 12.739,10.88151 22.9149,10.88151 11.2258,0 19.0391,-4.58453 26.4973,-15.46604 v 14.09022 m 67.4323,-80.3428 -30.0643,1.8823 v 7.30993 h 6.9486 c 6.4699,0.16831 7.3192,1.1828 7.3192,8.49273 v 48.56762 c -0.1698,2.55708 -0.3397,3.57158 -1.0191,4.41468 -1.189,1.52097 -4.5861,2.22046 -11.8899,2.38877 h -0.6793 v 6.10396 h 45.3511 v -6.10396 h -3.0574 c -11.3956,-0.36132 -12.9089,-1.20597 -12.9089,-7.30992 v -9.16907 c 0.1699,-28.54176 10.3457,-50.28007 23.5944,-50.9564 -2.3626,2.70225 -3.042,4.41623 -3.042,7.62494 0,5.45233 3.9067,9.36054 9.342,9.36054 6.2691,0 10.3457,-4.58299 10.3457,-11.38799 0,-8.32288 -5.7596,-13.75205 -14.7619,-13.75205 -10.7163,0 -19.873,8.49273 -25.4782,23.5959 v -21.06198 m 158.9531,80.3428 30.9289,-1.18281 v -7.30993 h -4.2464 c -9.8669,-0.33816 -10.7162,-1.35112 -10.7162,-12.40093 v -59.44913 l -31.9172,1.8823 v 7.30993 h 8.6625 c 6.439,0.16831 7.2884,1.1828 7.2884,8.49273 v 20.87051 c 0,14.7897 -3.5515,32.78812 -22.251,32.78812 -5.25,0 -9.6662,-1.8576 -11.8898,-5.25932 -2.1926,-3.23341 -2.5324,-4.92269 -2.5324,-14.26007 v -51.8242 l -29.7245,1.8823 v 7.30993 h 6.439 c 6.4699,0.16831 7.3037,1.1828 7.3037,8.49273 v 36.67316 c 0,8.66105 0.6795,12.57079 3.2427,16.47899 4.586,6.97177 12.7391,10.88151 22.915,10.88151 11.2257,0 19.0391,-4.58453 26.4973,-15.46604 v 14.09022 m 67.7719,-80.3428 -29.3848,1.8823 v 7.30993 h 6.1302 c 6.4391,0.16831 7.2729,1.1828 7.2729,8.49273 v 48.56762 c -0.1545,2.55708 -0.3243,3.57158 -1.0037,4.41468 -1.189,1.52097 -4.4162,2.22046 -11.7355,2.38877 h -0.6639 v 6.10396 h 42.9732 v -6.10396 h -0.6794 c -11.3957,-0.36132 -12.909,-1.20597 -12.909,-7.30992 v -25.14004 c 0,-8.32441 1.1736,-15.97251 3.0574,-19.88071 3.5824,-7.6481 11.195,-12.90896 18.5142,-12.90896 4.4162,0 9.4964,2.38878 12.0597,5.96036 2.5632,3.71519 3.7367,8.82936 3.7367,16.98546 v 35.49036 c -0.1697,2.55708 -0.3396,3.57158 -1.0036,4.41468 -1.2198,1.52097 -4.617,2.22046 -11.9053,2.38877 h -0.6793 v 6.10396 h 42.9732 v -6.10396 h -0.6641 c -11.2258,-0.36132 -12.739,-1.20597 -12.739,-7.30992 v -34.13924 c 0,-12.23263 -0.5405,-15.29773 -3.5824,-21.06352 -4.2464,-8.15458 -12.7391,-13.07727 -22.9459,-13.07727 -11.025,0 -19.348,5.09101 -26.8216,16.31068 v -13.77676 m 151.1553,0 -30.2342,1.8823 v 7.30993 h 6.9795 c 6.439,0.16831 7.2884,1.1828 7.2884,8.49273 v 48.56762 c -0.1699,2.55708 -0.3398,3.57158 -1.0192,4.41468 -1.189,1.52097 -4.4163,2.22046 -11.72,2.38877 h -0.6794 v 6.10396 h 42.8034 v -6.10396 h -0.6795 c -11.2258,-0.36132 -12.739,-1.20597 -12.739,-7.47824 v -31.43855 c 0,-15.10316 8.3228,-26.32284 19.3788,-26.32284 9.6663,0 14.5921,6.97331 14.5921,20.72536 v 37.87914 c -0.1699,2.22046 -0.3398,3.40326 -1.189,4.24636 -1.0037,1.52097 -4.4162,2.22046 -11.7199,2.38877 h -0.6795 v 6.10396 h 42.9732 v -6.10396 h -0.6794 c -11.2104,-0.36132 -12.7391,-1.20597 -12.7391,-7.30992 v -30.06273 c 0,-16.98547 7.659,-27.86698 19.5179,-27.86698 9.6971,0 14.4531,7.31148 14.4531,22.60766 v 35.82852 c -0.1699,2.38878 -0.3397,3.57158 -1.1736,4.41468 -1.0346,1.52097 -4.4162,2.22046 -11.7354,2.38877 h -0.664 v 6.10396 h 42.9578 v -6.10396 h -0.6639 c -11.2259,-0.36132 -12.7392,-1.20597 -12.7392,-7.47824 v -38.55546 c 0,-10.54334 -1.05,-14.11491 -5.4507,-19.88071 -4.9258,-6.27381 -11.8744,-9.67554 -20.0275,-9.67554 -11.056,0 -19.209,5.25931 -26.5281,16.98547 -2.8567,-10.20518 -12.0597,-16.98547 -23.4245,-16.98547 -10.3767,0 -17.8193,4.92269 -24.4591,15.61118 v -13.07726 m 186.8092,80.3428 30.929,-1.18281 v -7.30993 h -4.2463 c -9.8671,-0.33816 -10.7009,-1.35112 -10.7009,-12.40093 v -59.44913 l -31.9173,1.8823 v 7.30993 h 8.6472 c 6.4545,0.16831 7.2883,1.1828 7.2883,8.49273 v 20.87051 c 0,14.7897 -3.5361,32.78812 -22.2356,32.78812 -5.2654,0 -9.6816,-1.8576 -11.9052,-5.25932 -2.1926,-3.23341 -2.5324,-4.92269 -2.5324,-14.26007 v -51.8242 l -29.7245,1.8823 v 7.30993 h 6.4545 c 6.4544,0.16831 7.3037,1.1828 7.3037,8.49273 v 36.67316 c 0,8.66105 0.6794,12.57079 3.2273,16.47899 4.586,6.97177 12.739,10.88151 22.9303,10.88151 11.2104,0 19.0392,-4.58453 26.4819,-15.46604 v 14.09022 m 67.4477,-80.3428 -30.0643,1.8823 v 7.30993 h 6.9486 c 6.4545,0.16831 7.3039,1.1828 7.3039,8.49273 v 48.56762 c -0.1699,2.55708 -0.3398,3.57158 -1.0192,4.41468 -1.1736,1.52097 -4.5706,2.22046 -11.8899,2.38877 h -0.6793 v 6.10396 h 45.3666 v -6.10396 h -3.0729 c -11.3802,-0.36132 -12.8935,-1.20597 -12.8935,-7.30992 v -9.16907 c 0.1545,-28.54176 10.3457,-50.28007 23.5944,-50.9564 -2.3625,2.70225 -3.042,4.41623 -3.042,7.62494 0,5.45233 3.9067,9.36054 9.3266,9.36054 6.2847,0 10.3611,-4.58299 10.3611,-11.38799 0,-8.32288 -5.775,-13.75205 -14.7619,-13.75205 -10.7163,0 -19.8884,8.49273 -25.4782,23.5959 v -21.06198"
     id="path26"
     style="stroke-width:1.54413" />
  <path
     class="MeasureNumber"
     d="m 109.19387,1889.7024 c -1.93017,1.1581 -2.48606,1.8993 -2.48606,3.1346 0,1.1735 0.9898,2.0537 2.22047,2.0537 1.6167,0 2.53392,-1.189 2.72694,-3.4743 1.90546,-1.5441 3.95606,-2.2236 6.41741,-2.2236 4.58453,0 7.11692,2.8413 7.11692,7.9523 0,8.0449 -5.18675,14.5766 -11.5563,14.5766 -3.64415,0 -6.61043,-1.7139 -6.61043,-3.7677 0,-0.3551 0.071,-0.4786 0.36132,-0.6639 1.97803,-0.9265 3.59474,-1.5905 3.59474,-4.2001 0,-1.9764 -1.54412,-3.4588 -3.71518,-3.4588 -2.70223,0 -4.75284,2.2698 -4.75284,5.2346 0,5.4662 4.70498,9.3883 11.31541,9.3883 9.98899,0 18.0957,-7.9523 18.0957,-17.8193 0,-6.2537 -4.75439,-10.6545 -11.48527,-10.6545 -2.67753,0 -4.82542,0.5559 -7.79324,2.0537 l 3.45113,-11.6736 c 3.28129,0.6793 5.88625,0.9882 8.10671,0.9882 4.07651,0 7.72067,-1.297 9.74657,-3.4434 1.06236,-1.2353 1.66457,-2.3008 1.66457,-3.0882 0,-0.3861 -0.19301,-0.7567 -0.4339,-0.7567 -0.16831,0 -0.31346,0.078 -0.67633,0.2471 -2.0259,0.9882 -4.6324,1.5441 -7.04434,1.5441 -3.69202,0 -8.08199,-0.6022 -12.64336,-1.7912 l -5.62064,19.8421"
     id="path28"
     style="stroke-width:1.54413" />
  <polyline
     class="BarLine"
     fill="none"
     stroke="#000000"
     stroke-width="4.46"
     stroke-linejoin="bevel"
     points="2739.55,1314.83 2739.55,1416.76"
     id="polyline30"
     transform="matrix(1.5441332,0,0,1.5441332,-226.01119,-42.456011)" />
  <polyline
     class="BarLine"
     fill="none"
     stroke="#000000"
     stroke-width="13.64"
     stroke-linejoin="bevel"
     points="2757.78,1314.83 2757.78,1416.76"
     id="polyline32"
     transform="matrix(1.5441332,0,0,1.5441332,-226.01119,-42.456011)" />
  <polyline
     class="BarLine"
     fill="none"
     stroke="#000000"
     stroke-width="4.46"
     stroke-linejoin="bevel"
     points="2155.13,1314.83 2155.13,1416.76"
     id="polyline34"
     transform="matrix(1.5441332,0,0,1.5441332,-226.01119,-42.456011)" />
  <polyline
     class="BarLine"
     fill="none"
     stroke="#000000"
     stroke-width="4.46"
     stroke-linejoin="bevel"
     points="1492.28,1314.83 1492.28,1416.76"
     id="polyline36"
     transform="matrix(1.5441332,0,0,1.5441332,-226.01119,-42.456011)" />
  <polyline
     class="BarLine"
     fill="none"
     stroke="#000000"
     stroke-width="4.46"
     stroke-linejoin="bevel"
     points="907.862,1314.83 907.862,1416.76"
     id="polyline38"
     transform="matrix(1.5441332,0,0,1.5441332,-226.01119,-42.456011)" />
  <polyline
     class="BarLine"
     fill="none"
     stroke="#000000"
     stroke-width="4.46"
     stroke-linejoin="bevel"
     points="2762.37,632.834 2762.37,734.762"
     id="polyline40"
     transform="matrix(1.5441332,0,0,1.5441332,-226.01119,-42.456011)" />
  <polyline
     class="BarLine"
     fill="none"
     stroke="#000000"
     stroke-width="4.46"
     stroke-linejoin="bevel"
     points="2236.74,632.834 2236.74,734.762"
     id="polyline42"
     transform="matrix(1.5441332,0,0,1.5441332,-226.01119,-42.456011)" />
  <polyline
     class="BarLine"
     fill="none"
     stroke="#000000"
     stroke-width="4.46"
     stroke-linejoin="bevel"
     points="1641.09,632.834 1641.09,734.762"
     id="polyline44"
     transform="matrix(1.5441332,0,0,1.5441332,-226.01119,-42.456011)" />
  <polyline
     class="BarLine"
     fill="none"
     stroke="#000000"
     stroke-width="4.46"
     stroke-linejoin="bevel"
     points="1097.94,632.834 1097.94,734.762"
     id="polyline46"
     transform="matrix(1.5441332,0,0,1.5441332,-226.01119,-42.456011)" />
  <polyline
     class="LedgerLine"
     fill="none"
     stroke="#000000"
     stroke-width="3.97"
     stroke-linejoin="bevel"
     points="2541.88,758.198 2590.48,758.198"
     id="polyline48"
     transform="matrix(1.5441332,0,0,1.5441332,-226.01119,-42.456011)" />
  <polyline
     class="LedgerLine"
     fill="none"
     stroke="#000000"
     stroke-width="3.97"
     stroke-linejoin="bevel"
     points="1420.61,758.198 1469.2,758.198"
     id="polyline50"
     transform="matrix(1.5441332,0,0,1.5441332,-226.01119,-42.456011)" />
  <polyline
     class="Stem"
     fill="none"
     stroke="#000000"
     stroke-width="2.48"
     stroke-linejoin="bevel"
     points="972.094,1399.03 972.094,1316.2"
     id="polyline52"
     transform="matrix(1.5441332,0,0,1.5441332,-226.01119,-42.456011)" />
  <polyline
     class="Stem"
     fill="none"
     stroke="#000000"
     stroke-width="2.48"
     stroke-linejoin="bevel"
     points="2581.07,754.23 2581.07,671.398"
     id="polyline54"
     transform="matrix(1.5441332,0,0,1.5441332,-226.01119,-42.456011)" />
  <polyline
     class="Stem"
     fill="none"
     stroke="#000000"
     stroke-width="2.48"
     stroke-linejoin="bevel"
     points="566.525,717.03 566.525,634.198"
     id="polyline56"
     transform="matrix(1.5441332,0,0,1.5441332,-226.01119,-42.456011)" />
  <polyline
     class="Stem"
     fill="none"
     stroke="#000000"
     stroke-width="2.48"
     stroke-linejoin="bevel"
     points="2441.02,704.63 2441.02,621.798"
     id="polyline58"
     transform="matrix(1.5441332,0,0,1.5441332,-226.01119,-42.456011)" />
  <polyline
     class="Stem"
     fill="none"
     stroke="#000000"
     stroke-width="2.48"
     stroke-linejoin="bevel"
     points="387.671,1399.03 387.671,1316.2"
     id="polyline60"
     transform="matrix(1.5441332,0,0,1.5441332,-226.01119,-42.456011)" />
  <polyline
     class="Stem"
     fill="none"
     stroke="#000000"
     stroke-width="2.48"
     stroke-linejoin="bevel"
     points="2300.97,704.63 2300.97,621.798"
     id="polyline62"
     transform="matrix(1.5441332,0,0,1.5441332,-226.01119,-42.456011)" />
  <polyline
     class="Stem"
     fill="none"
     stroke="#000000"
     stroke-width="2.48"
     stroke-linejoin="bevel"
     points="544.516,1399.03 544.516,1316.2"
     id="polyline64"
     transform="matrix(1.5441332,0,0,1.5441332,-226.01119,-42.456011)" />
  <polyline
     class="Stem"
     fill="none"
     stroke="#000000"
     stroke-width="2.48"
     stroke-linejoin="bevel"
     points="2125.46,717.03 2125.46,634.198"
     id="polyline66"
     transform="matrix(1.5441332,0,0,1.5441332,-226.01119,-42.456011)" />
  <polyline
     class="Stem"
     fill="none"
     stroke="#000000"
     stroke-width="2.48"
     stroke-linejoin="bevel"
     points="701.362,1399.03 701.362,1316.2"
     id="polyline68"
     transform="matrix(1.5441332,0,0,1.5441332,-226.01119,-42.456011)" />
  <polyline
     class="Stem"
     fill="none"
     stroke="#000000"
     stroke-width="2.48"
     stroke-linejoin="bevel"
     points="846.619,717.03 846.619,634.198"
     id="polyline70"
     transform="matrix(1.5441332,0,0,1.5441332,-226.01119,-42.456011)" />
  <polyline
     class="Stem"
     fill="none"
     stroke="#000000"
     stroke-width="2.48"
     stroke-linejoin="bevel"
     points="1128.94,1399.03 1128.94,1316.2"
     id="polyline72"
     transform="matrix(1.5441332,0,0,1.5441332,-226.01119,-42.456011)" />
  <polyline
     class="Stem"
     fill="none"
     stroke="#000000"
     stroke-width="2.48"
     stroke-linejoin="bevel"
     points="1285.78,1386.63 1285.78,1303.8"
     id="polyline74"
     transform="matrix(1.5441332,0,0,1.5441332,-226.01119,-42.456011)" />
  <polyline
     class="Stem"
     fill="none"
     stroke="#000000"
     stroke-width="2.48"
     stroke-linejoin="bevel"
     points="1556.52,1399.03 1556.52,1316.2"
     id="polyline76"
     transform="matrix(1.5441332,0,0,1.5441332,-226.01119,-42.456011)" />
  <polyline
     class="Stem"
     fill="none"
     stroke="#000000"
     stroke-width="2.48"
     stroke-linejoin="bevel"
     points="1713.36,1399.03 1713.36,1316.2"
     id="polyline78"
     transform="matrix(1.5441332,0,0,1.5441332,-226.01119,-42.456011)" />
  <polyline
     class="Stem"
     fill="none"
     stroke="#000000"
     stroke-width="2.48"
     stroke-linejoin="bevel"
     points="1870.21,1386.63 1870.21,1303.8"
     id="polyline80"
     transform="matrix(1.5441332,0,0,1.5441332,-226.01119,-42.456011)" />
  <polyline
     class="Stem"
     fill="none"
     stroke="#000000"
     stroke-width="2.48"
     stroke-linejoin="bevel"
     points="2027.05,1399.03 2027.05,1316.2"
     id="polyline82"
     transform="matrix(1.5441332,0,0,1.5441332,-226.01119,-42.456011)" />
  <polyline
     class="Stem"
     fill="none"
     stroke="#000000"
     stroke-width="2.48"
     stroke-linejoin="bevel"
     points="2219.36,1386.63 2219.36,1303.8"
     id="polyline84"
     transform="matrix(1.5441332,0,0,1.5441332,-226.01119,-42.456011)" />
  <polyline
     class="Stem"
     fill="none"
     stroke="#000000"
     stroke-width="2.48"
     stroke-linejoin="bevel"
     points="2346.45,1357.56 2346.45,1434"
     id="polyline86"
     transform="matrix(1.5441332,0,0,1.5441332,-226.01119,-42.456011)" />
  <polyline
     class="Stem"
     fill="none"
     stroke="#000000"
     stroke-width="2.48"
     stroke-linejoin="bevel"
     points="2533.05,1399.03 2533.05,1316.2"
     id="polyline88"
     transform="matrix(1.5441332,0,0,1.5441332,-226.01119,-42.456011)" />
  <polyline
     class="Stem"
     fill="none"
     stroke="#000000"
     stroke-width="2.48"
     stroke-linejoin="bevel"
     points="1985.42,717.03 1985.42,634.198"
     id="polyline90"
     transform="matrix(1.5441332,0,0,1.5441332,-226.01119,-42.456011)" />
  <polyline
     class="Stem"
     fill="none"
     stroke="#000000"
     stroke-width="2.48"
     stroke-linejoin="bevel"
     points="1459.79,754.23 1459.79,671.398"
     id="polyline92"
     transform="matrix(1.5441332,0,0,1.5441332,-226.01119,-42.456011)" />
  <polyline
     class="Stem"
     fill="none"
     stroke="#000000"
     stroke-width="2.48"
     stroke-linejoin="bevel"
     points="706.572,717.03 706.572,634.198"
     id="polyline94"
     transform="matrix(1.5441332,0,0,1.5441332,-226.01119,-42.456011)" />
  <polyline
     class="Stem"
     fill="none"
     stroke="#000000"
     stroke-width="2.48"
     stroke-linejoin="bevel"
     points="1319.74,704.63 1319.74,621.798"
     id="polyline96"
     transform="matrix(1.5441332,0,0,1.5441332,-226.01119,-42.456011)" />
  <polyline
     class="Stem"
     fill="none"
     stroke="#000000"
     stroke-width="2.48"
     stroke-linejoin="bevel"
     points="1705.32,717.03 1705.32,634.198"
     id="polyline98"
     transform="matrix(1.5441332,0,0,1.5441332,-226.01119,-42.456011)" />
  <polyline
     class="Stem"
     fill="none"
     stroke="#000000"
     stroke-width="2.48"
     stroke-linejoin="bevel"
     points="1179.7,704.63 1179.7,621.798"
     id="polyline100"
     transform="matrix(1.5441332,0,0,1.5441332,-226.01119,-42.456011)" />
  <polyline
     class="Stem"
     fill="none"
     stroke="#000000"
     stroke-width="2.48"
     stroke-linejoin="bevel"
     points="1845.37,717.03 1845.37,634.198"
     id="polyline102"
     transform="matrix(1.5441332,0,0,1.5441332,-226.01119,-42.456011)" />
  <polyline
     class="Stem"
     fill="none"
     stroke="#000000"
     stroke-width="2.48"
     stroke-linejoin="bevel"
     points="986.665,717.03 986.665,634.198"
     id="polyline104"
     transform="matrix(1.5441332,0,0,1.5441332,-226.01119,-42.456011)" />
  <path
     class="Note"
     d="m 1723.0246,2117.9793 c -5.0501,0 -6.1272,-4.1166 -6.1272,-5.5048 0,-7.5153 25.7292,-20.679 32.9334,-20.679 3.6858,0 6.127,2.154 6.127,5.5048 0,7.6589 -25.8967,20.679 -32.9332,20.679 m 21.1337,-33.388 c -14.863,0 -32.6221,12.4218 -32.6221,26.6626 0,6.5819 4.7389,13.9296 17.1607,13.9296 15.9162,0 32.6222,-13.0202 32.6222,-26.495 0,-9.0471 -7.6589,-14.0972 -17.1608,-14.0972"
     id="path106"
     style="stroke-width:1.53178" />
  <path
     class="Note"
     d="m 1991.7192,1141.4664 c -5.0501,0 -6.1271,-4.1166 -6.1271,-5.5048 0,-7.5153 25.7291,-20.679 32.9332,-20.679 3.6859,0 6.1271,2.154 6.1271,5.5048 0,7.6589 -25.8966,20.679 -32.9332,20.679 m 21.1338,-33.388 c -14.8631,0 -32.6221,12.4218 -32.6221,26.6626 0,6.5818 4.7389,13.9296 17.1607,13.9296 15.9161,0 32.622,-13.0202 32.622,-26.4951 0,-9.0471 -7.6588,-14.0971 -17.1606,-14.0971"
     id="path108"
     style="stroke-width:1.53178" />
  <path
     class="Note"
     d="m 566.9259,2130.4011 c 0,6.5819 4.73895,13.9296 17.16069,13.9296 15.91627,0 32.62217,-13.0201 32.62217,-26.4949 0,-9.0471 -7.65891,-14.0972 -17.1607,-14.0972 -14.863,0 -32.62216,12.5653 -32.62216,26.6625"
     id="path110"
     style="stroke-width:1.53178" />
  <path
     class="Note"
     d="m 2791.8736,1077.2992 c 0,6.5819 4.7389,13.9297 17.1606,13.9297 15.9162,0 32.6222,-13.0202 32.6222,-26.4951 0,-9.0471 -7.6589,-14.0971 -17.1608,-14.0971 -14.8629,0 -32.622,12.5653 -32.622,26.6625"
     id="path112"
     style="stroke-width:1.53178" />
  <path
     class="Note"
     d="m 820.60537,2137.1266 c -5.05009,0 -6.12712,-4.1167 -6.12712,-5.5048 0,-7.5154 25.72914,-20.6791 32.93327,-20.6791 3.68591,0 6.12712,2.1541 6.12712,5.5048 0,7.6589 -25.89658,20.6791 -32.93327,20.6791 m 21.1338,-33.388 c -14.863,0 -32.62215,12.4218 -32.62215,26.6625 0,6.5819 4.73894,13.9296 17.16069,13.9296 15.91626,0 32.62216,-13.0201 32.62216,-26.4949 0,-9.0471 -7.65891,-14.0972 -17.1607,-14.0972"
     id="path114"
     style="stroke-width:1.53178" />
  <path
     class="Note"
     d="m 1763.975,1058.1519 c 0,6.5819 4.7389,13.9297 17.1607,13.9297 15.9161,0 32.6221,-13.0202 32.6221,-26.495 0,-9.0471 -7.6588,-14.0972 -17.1607,-14.0972 -14.863,0 -32.6221,12.5654 -32.6221,26.6625"
     id="path116"
     style="stroke-width:1.53178" />
  <path
     class="Note"
     d="m 1227.1633,2130.4011 c 0,6.5819 4.7389,13.9296 17.1606,13.9296 15.9163,0 32.6222,-13.0201 32.6222,-26.4949 0,-9.0471 -7.6589,-14.0972 -17.1606,-14.0972 -14.8631,0 -32.6222,12.5653 -32.6222,26.6625"
     id="path118"
     style="stroke-width:1.53178" />
  <path
     class="Note"
     d="m 3648.9756,2137.1266 c -5.0502,0 -6.1271,-4.1167 -6.1271,-5.5048 0,-7.5154 25.7291,-20.6791 32.9332,-20.6791 3.6859,0 6.1271,2.1541 6.1271,5.5048 0,7.6589 -25.8966,20.6791 -32.9332,20.6791 m 21.1337,-33.388 c -14.8631,0 -32.622,12.4218 -32.622,26.6625 0,6.5819 4.7389,13.9296 17.1606,13.9296 15.9162,0 32.6222,-13.0201 32.6222,-26.4949 0,-9.0471 -7.659,-14.0972 -17.1608,-14.0972"
     id="path120"
     style="stroke-width:1.53178" />
  <path
     class="Note"
     d="m 3395.3053,2053.8121 c 0,6.5818 4.739,13.9297 17.1608,13.9297 15.9162,0 32.6221,-13.0202 32.6221,-26.4951 0,-9.047 -7.6589,-14.0972 -17.1607,-14.0972 -14.8631,0 -32.6222,12.5654 -32.6222,26.6626"
     id="path122"
     style="stroke-width:1.53178" />
  <path
     class="Note"
     d="m 1469.3544,2130.4011 c 0,6.5819 4.7389,13.9296 17.1607,13.9296 15.9162,0 32.6222,-13.0201 32.6222,-26.4949 0,-9.0471 -7.659,-14.0972 -17.1608,-14.0972 -14.863,0 -32.6221,12.5653 -32.6221,26.6625"
     id="path124"
     style="stroke-width:1.53178" />
  <path
     class="Note"
     d="m 1249.6628,1077.2992 c 0,6.5819 4.739,13.9297 17.1607,13.9297 15.9163,0 32.6222,-13.0202 32.6222,-26.4951 0,-9.0471 -7.6589,-14.0971 -17.1607,-14.0971 -14.863,0 -32.6222,12.5653 -32.6222,26.6625"
     id="path126"
     style="stroke-width:1.53178" />
  <path
     class="Note"
     d="m 1033.4131,1077.2992 c 0,6.5819 4.739,13.9297 17.1607,13.9297 15.9163,0 32.6222,-13.0202 32.6222,-26.4951 0,-9.0471 -7.6589,-14.0971 -17.1607,-14.0971 -14.863,0 -32.6222,12.5653 -32.6222,26.6625"
     id="path128"
     style="stroke-width:1.53178" />
  <path
     class="Note"
     d="m 1547.7346,1058.1519 c 0,6.5819 4.7389,13.9297 17.1607,13.9297 15.9162,0 32.6221,-13.0202 32.6221,-26.495 0,-9.0471 -7.6589,-14.0972 -17.1607,-14.0972 -14.8631,0 -32.6221,12.5654 -32.6221,26.6625"
     id="path130"
     style="stroke-width:1.53178" />
  <path
     class="Note"
     d="m 2129.5949,2130.4011 c 0,6.5819 4.7389,13.9296 17.1607,13.9296 15.9161,0 32.622,-13.0201 32.622,-26.4949 0,-9.0471 -7.6588,-14.0972 -17.1606,-14.0972 -14.8631,0 -32.6221,12.5653 -32.6221,26.6625"
     id="path132"
     style="stroke-width:1.53178" />
  <path
     class="Note"
     d="m 3153.1081,2111.2539 c 0,6.5819 4.7389,13.9296 17.1606,13.9296 15.9162,0 32.6222,-13.0202 32.6222,-26.495 0,-9.0471 -7.6589,-14.0972 -17.1607,-14.0972 -14.863,0 -32.6221,12.5654 -32.6221,26.6626"
     id="path134"
     style="stroke-width:1.53178" />
  <path
     class="Note"
     d="m 2371.7767,2130.4011 c 0,6.5819 4.7389,13.9296 17.1607,13.9296 15.9162,0 32.6222,-13.0201 32.6222,-26.4949 0,-9.0471 -7.659,-14.0972 -17.1608,-14.0972 -14.863,0 -32.6221,12.5653 -32.6221,26.6625"
     id="path136"
     style="stroke-width:1.53178" />
  <path
     class="Note"
     d="m 817.16195,1077.2992 c 0,6.5819 4.73894,13.9297 17.16069,13.9297 15.91627,0 32.62216,-13.0202 32.62216,-26.4951 0,-9.0471 -7.6589,-14.0971 -17.16069,-14.0971 -14.86301,0 -32.62216,12.5653 -32.62216,26.6625"
     id="path138"
     style="stroke-width:1.53178" />
  <path
     class="Note"
     d="m 2613.974,2111.2539 c 0,6.5819 4.7389,13.9296 17.1607,13.9296 15.9161,0 32.6221,-13.0202 32.6221,-26.495 0,-9.0471 -7.6589,-14.0972 -17.1607,-14.0972 -14.863,0 -32.6221,12.5654 -32.6221,26.6626"
     id="path140"
     style="stroke-width:1.53178" />
  <path
     class="Note"
     d="m 2856.1558,2130.4011 c 0,6.5819 4.739,13.9296 17.1608,13.9296 15.9161,0 32.6221,-13.0201 32.6221,-26.4949 0,-9.0471 -7.6589,-14.0972 -17.1607,-14.0972 -14.8631,0 -32.6222,12.5653 -32.6222,26.6625"
     id="path142"
     style="stroke-width:1.53178" />
  <path
     class="Note"
     d="m 324.73633,2130.4011 c 0,6.5819 4.73895,13.9296 17.16069,13.9296 15.91627,0 32.62217,-13.0201 32.62217,-26.4949 0,-9.0471 -7.65891,-14.0972 -17.1607,-14.0972 -14.86301,0 -32.62216,12.5653 -32.62216,26.6625"
     id="path144"
     style="stroke-width:1.53178" />
  <path
     class="Note"
     d="m 3008.1139,1077.2992 c 0,6.5819 4.739,13.9297 17.1608,13.9297 15.9161,0 32.6221,-13.0202 32.6221,-26.4951 0,-9.0471 -7.6589,-14.0971 -17.1607,-14.0971 -14.8631,0 -32.6222,12.5653 -32.6222,26.6625"
     id="path146"
     style="stroke-width:1.53178" />
  <path
     class="Note"
     d="m 2575.6177,1077.2992 c 0,6.5819 4.739,13.9297 17.1608,13.9297 15.916,0 32.622,-13.0202 32.622,-26.4951 0,-9.0471 -7.6589,-14.0971 -17.1606,-14.0971 -14.8631,0 -32.6222,12.5653 -32.6222,26.6625"
     id="path148"
     style="stroke-width:1.53178" />
  <path
     class="Note"
     d="m 3279.1248,1058.1519 c 0,6.5819 4.739,13.9297 17.1607,13.9297 15.9161,0 32.6221,-13.0202 32.6221,-26.495 0,-9.0471 -7.6589,-14.0972 -17.1607,-14.0972 -14.8631,0 -32.6221,12.5654 -32.6221,26.6625"
     id="path150"
     style="stroke-width:1.53178" />
  <path
     class="Note"
     d="m 3495.3806,1058.1519 c 0,6.5819 4.7389,13.9297 17.1607,13.9297 15.9162,0 32.6222,-13.0202 32.6222,-26.495 0,-9.0471 -7.6589,-14.0972 -17.1608,-14.0972 -14.863,0 -32.6221,12.5654 -32.6221,26.6625"
     id="path152"
     style="stroke-width:1.53178" />
  <path
     class="Note"
     d="m 2359.3619,1077.2992 c 0,6.5819 4.7389,13.9297 17.1607,13.9297 15.9161,0 32.6221,-13.0202 32.6221,-26.4951 0,-9.0471 -7.6589,-14.0971 -17.1607,-14.0971 -14.863,0 -32.6221,12.5653 -32.6221,26.6625"
     id="path154"
     style="stroke-width:1.53178" />
  <path
     class="Note"
     d="m 3723.1249,1141.4664 c -5.0502,0 -6.1272,-4.1166 -6.1272,-5.5048 0,-7.5153 25.7292,-20.679 32.9333,-20.679 3.6859,0 6.1271,2.154 6.1271,5.5048 0,7.6589 -25.8966,20.679 -32.9332,20.679 m 21.1337,-33.388 c -14.8631,0 -32.6221,12.4218 -32.6221,26.6626 0,6.5818 4.7389,13.9296 17.1607,13.9296 15.9162,0 32.6221,-13.0202 32.6221,-26.4951 0,-9.0471 -7.6589,-14.0971 -17.1607,-14.0971"
     id="path156"
     style="stroke-width:1.53178" />
  <path
     class="Note"
     d="m 600.91072,1077.2992 c 0,6.5819 4.73895,13.9297 17.1607,13.9297 15.91626,0 32.62216,-13.0202 32.62216,-26.4951 0,-9.0471 -7.6589,-14.0971 -17.16069,-14.0971 -14.86301,0 -32.62217,12.5653 -32.62217,26.6625"
     id="path158"
     style="stroke-width:1.53178" />
  <path
     class="Clef"
     d="m 186.44451,2137.2941 c -21.89956,0 -40.59215,-15.3177 -40.59215,-38.462 0,-18.6686 13.16377,-35.3746 26.66258,-47.174 2.58488,-2.1541 5.05013,-4.2843 7.3478,-6.582 1.3642,8.2573 2.44121,15.3178 3.5182,21.7561 -13.95345,3.9731 -23.43133,18.8362 -23.43133,33.0769 0,10.89 8.42478,25.5856 20.67903,25.5856 1.22052,0 2.60876,-0.6223 2.60876,-2.1541 0,-1.2207 -1.38824,-2.1302 -3.37466,-3.3508 -5.98359,-3.5423 -9.35826,-7.659 -9.35826,-15.0306 0,-9.3343 7.06059,-16.8496 15.94003,-18.9797 l 8.87956,50.2376 c -3.06356,0.6223 -5.81601,1.077 -8.87956,1.077 m -4.59535,-158.3957 c 1.53178,-6.127 8.42479,-22.2107 16.39495,-22.2107 2.29766,0 6.12712,7.3477 6.12712,18.0701 0,15.7726 -11.94315,27.7397 -22.52207,38.2946 -0.90943,-6.1272 -1.67532,-12.2543 -1.67532,-18.5249 0,-5.816 0.59832,-10.8901 1.67532,-15.6291 m 19.91314,155.4757 c -3.20709,-18.2137 -7.34765,-42.5786 -8.42479,-49.328 15.46147,0 22.06728,10.7224 23.43148,18.0941 0.16757,1.2206 0.45478,2.896 0.45478,4.739 0,11.0335 -4.59534,22.0672 -15.46147,26.4949 m -21.30125,104.7833 c -3.35077,0 -5.64844,-2.13 -5.64844,-5.3612 0,-3.0635 1.36422,-5.5048 3.97299,-7.0365 0.62235,0.3111 0.76589,0.3111 1.22067,0.5983 1.84289,0.9334 1.84289,0.9334 2.15415,1.2446 2.89597,1.6754 4.14054,3.2071 4.14054,5.3612 0,2.8961 -2.46524,5.1936 -5.83991,5.1936 m 5.83991,-18.3812 c -2.29767,-1.2208 -2.92002,-1.5318 -3.37466,-1.8429 l -0.31125,-0.1437 c -2.29766,-1.3882 -3.06356,-2.4652 -3.06356,-4.2842 0,-2.7764 2.15413,-4.7629 5.21769,-4.7629 2.896,0 4.73888,1.8429 4.73888,5.0502 0,2.4652 -0.90943,4.1406 -3.2071,5.9835 m 42.72227,-116.2718 c 0,-23.1203 -16.3948,-38.7492 -38.74928,-38.7492 -1.53178,-9.1907 -2.91989,-18.2377 -4.28409,-26.8062 16.08369,-17.017 27.40446,-36.3079 27.40446,-60.5052 0,-13.9536 -4.28422,-25.2744 -6.89301,-30.8026 -3.66186,-7.8029 -8.11367,-13.1642 -10.72246,-13.1642 -1.0531,0 -5.95954,1.8428 -10.86613,7.803 -9.95656,11.6552 -12.70888,31.0897 -12.70888,43.9663 0,8.2812 0.76589,15.7725 3.37466,33.1007 -0.16757,0 -8.13758,8.1137 -11.3448,10.8662 -13.95346,12.8764 -33.2444,31.5451 -33.2444,62.037 0,28.7927 24.96327,51.3146 53.46878,51.3146 4.42776,0 8.56833,-0.4547 12.25424,-1.077 2.75231,14.5758 4.59534,25.4419 4.59534,33.5555 0,15.9401 -8.28125,24.3649 -23.74259,24.3649 -3.68592,0 -6.893,-0.7659 -7.20426,-0.9334 -0.14361,0 -0.45463,-0.1435 -0.45463,-0.2872 0,-0.3111 0.31109,-0.4786 0.76589,-0.6223 7.2041,-1.0771 14.38432,-7.3477 14.38432,-16.9931 0,-8.2812 -6.27079,-17.0172 -17.75914,-17.0172 -10.72246,0 -17.47181,8.736 -17.47181,18.8361 0,10.1242 7.65891,23.4554 28.33794,23.4554 19.76948,0 29.41493,-11.2012 29.41493,-30.8032 0,-5.9596 -0.90942,-12.8525 -2.44119,-21.5885 -0.45479,-3.0635 -1.22068,-7.8264 -2.29767,-13.6424 15.00654,-5.05 26.18378,-20.5354 26.18378,-36.308 m -33.24438,110.1446 c 0,-5.6723 -5.19365,-8.1136 -10.24378,-8.1136 -6.43822,0 -12.73292,3.973 -12.73292,10.866 0,2.92 1.077,5.074 3.23115,7.2042 -3.99705,1.5318 -7.97016,4.5954 -7.97016,9.3582 0,5.0501 4.59534,8.4248 11.34481,8.4248 8.25723,0 14.07323,-4.5954 14.07323,-11.2012 0,-3.5183 -1.53178,-6.4143 -4.28423,-8.4247 4.45182,-1.9865 6.5819,-4.4279 6.5819,-8.1137"
     id="path160"
     style="stroke-width:1.53178" />
  <path
     class="Clef"
     d="m 377.91702,1084.1922 c -21.89956,0 -40.59215,-15.3178 -40.59215,-38.462 0,-18.6687 13.16377,-35.3746 26.66259,-47.17405 2.58487,-2.15412 5.05013,-4.28422 7.3478,-6.5819 1.36419,8.25725 2.4412,15.31785 3.5182,21.75605 -13.95346,3.9731 -23.43134,18.8361 -23.43134,33.0769 0,10.89 8.42479,25.5855 20.67902,25.5855 1.22054,0 2.60878,-0.6222 2.60878,-2.154 0,-1.2207 -1.38824,-2.1302 -3.37466,-3.3508 -5.9836,-3.5423 -9.35827,-7.6589 -9.35827,-15.0306 0,-9.3343 7.0606,-16.8497 15.94003,-18.9798 l 8.87957,50.2377 c -3.06357,0.6224 -5.81601,1.077 -8.87957,1.077 m -4.59534,-158.3956 c 1.53178,-6.12712 8.42479,-22.21081 16.39494,-22.21081 2.29767,0 6.12712,7.34764 6.12712,18.07011 0,15.77259 -11.94315,27.73963 -22.52206,38.2945 -0.90944,-6.12712 -1.67533,-12.25424 -1.67533,-18.52489 0,-5.81601 0.59832,-10.89003 1.67533,-15.62891 m 19.91314,155.4757 c -3.2071,-18.2139 -7.34765,-42.5788 -8.42479,-49.3282 15.46146,0 22.06727,10.7225 23.43148,18.0942 0.16757,1.2206 0.45478,2.896 0.45478,4.7389 0,11.0337 -4.59534,22.0673 -15.46147,26.4951 m -21.30126,104.7833 c -3.35076,0 -5.64844,-2.1302 -5.64844,-5.3613 0,-3.0635 1.36421,-5.5048 3.973,-7.0365 0.62234,0.311 0.76588,0.311 1.22066,0.5983 1.8429,0.9334 1.8429,0.9334 2.15415,1.2446 2.89598,1.6754 4.14054,3.2072 4.14054,5.3612 0,2.896 -2.46523,5.1937 -5.83991,5.1937 m 5.83991,-18.3814 c -2.29766,-1.2205 -2.92001,-1.5318 -3.37465,-1.8429 l -0.31125,-0.1434 c -2.29767,-1.3883 -3.06357,-2.4654 -3.06357,-4.2843 0,-2.7763 2.15413,-4.763 5.2177,-4.763 2.89599,0 4.73888,1.8429 4.73888,5.0502 0,2.4653 -0.90943,4.1406 -3.20711,5.9835 m 42.72228,-116.2718 c 0,-23.1203 -16.3948,-38.7492 -38.74928,-38.7492 -1.53178,-9.1907 -2.9199,-18.23785 -4.2841,-26.80617 16.0837,-17.01715 27.40447,-36.30794 27.40447,-60.50531 0,-13.9536 -4.28423,-25.27438 -6.89301,-30.80257 -3.66186,-7.80289 -8.11368,-13.16412 -10.72246,-13.16412 -1.0531,0 -5.95954,1.84273 -10.86614,7.80289 -9.95656,11.65531 -12.70887,31.08978 -12.70887,43.96623 0,8.28126 0.76589,15.77259 3.37465,33.10086 -0.16757,0 -8.13757,8.11367 -11.3448,10.86612 -13.95345,12.87647 -33.24439,31.54507 -33.24439,62.03707 0,28.7928 24.96327,51.3146 53.46878,51.3146 4.42776,0 8.56832,-0.4548 12.25424,-1.077 2.75231,14.5759 4.59534,25.4419 4.59534,33.5556 0,15.9401 -8.28126,24.3649 -23.74259,24.3649 -3.68593,0 -6.89301,-0.7659 -7.20426,-0.9335 -0.14361,0 -0.45464,-0.1436 -0.45464,-0.2871 0,-0.3112 0.31109,-0.4788 0.76589,-0.6224 7.20411,-1.077 14.38433,-7.3477 14.38433,-16.9931 0,-8.2813 -6.27079,-17.0173 -17.75914,-17.0173 -10.72247,0 -17.47181,8.736 -17.47181,18.8362 0,10.1242 7.6589,23.4554 28.33794,23.4554 19.76947,0 29.41493,-11.2011 29.41493,-30.8031 0,-5.9596 -0.90942,-12.8526 -2.4412,-21.5885 -0.45479,-3.0636 -1.22068,-7.8265 -2.29766,-13.6424 15.00654,-5.0502 26.18378,-20.5354 26.18378,-36.3081 m -33.24438,110.1446 c 0,-5.6724 -5.19365,-8.1136 -10.24379,-8.1136 -6.43821,0 -12.73291,3.973 -12.73291,10.866 0,2.92 1.07699,5.0741 3.23114,7.2041 -3.99704,1.5318 -7.97016,4.5954 -7.97016,9.3583 0,5.0501 4.59535,8.4248 11.34481,8.4248 8.25723,0 14.07323,-4.5954 14.07323,-11.2012 0,-3.5184 -1.53178,-6.4143 -4.28422,-8.4248 4.45181,-1.9865 6.5819,-4.4277 6.5819,-8.1136"
     id="path162"
     style="stroke-width:1.53178" />
  <path
     class="TimeSig"
     d="m 488.49246,994.58304 v 11.32096 h -12.70902 c -1.077,0 -2.15399,0.9333 -2.15399,2.1539 v 2.9201 c 0,1.2205 1.07699,2.1301 2.15399,2.1301 h 46.40818 c 1.24457,0 2.15401,-0.9096 2.15401,-2.1301 v -2.9201 c 0,-1.2206 -0.90944,-2.1539 -2.15401,-2.1539 H 508.4056 v -11.32096 h 13.78602 c 1.24457,0 2.15401,-1.07701 2.15401,-2.29768 v -2.91992 c 0,-1.07703 -0.90944,-2.13013 -2.15401,-2.13013 H 508.4056 v -24.36488 c 0,-0.90949 -0.45477,-1.67538 -1.0531,-1.98652 l -1.84288,-0.93343 c -0.31125,-0.14361 -0.45479,-0.14361 -0.76589,-0.14361 -0.62236,0 -1.22068,0 -1.69936,0.45475 l -13.92969,12.70899 c -0.45464,0.47868 -0.62222,1.07704 -0.62222,1.69931 v 12.56539 h -17.75911 c 0,0 17.1608,-18.38136 35.23091,-42.60271 0.62235,-0.76589 0.7659,-1.53178 0.7659,-2.13009 0,-0.76589 -0.31112,-1.38811 -0.45465,-1.53178 l -3.37481,-3.37467 c -0.45463,-0.31111 -0.90943,-0.62236 -1.53177,-0.62236 -0.90944,0 -21.61236,0 -22.83304,0 -1.07699,0 -1.84288,0.93348 -1.98656,1.84303 0,0 -0.76589,11.34469 -4.73894,23.74256 -3.99699,12.42178 -8.59234,20.08068 -12.56539,25.72912 0,0 -0.45475,0.76589 -0.45475,1.69932 0,0.31114 0,0.59843 0.14361,0.90953 0.45474,1.07699 1.53178,2.75245 1.53178,2.75245 0,0 0.31114,0.93333 1.67539,0.93333 h 26.35143"
     id="path164"
     style="stroke-width:1.53178" />
  <path
     class="TimeSig"
     d="m 488.49246,1071.1721 v 11.3209 h -12.70902 c -1.077,0 -2.15399,0.9333 -2.15399,2.1539 v 2.9201 c 0,1.2205 1.07699,2.1301 2.15399,2.1301 h 46.40818 c 1.24457,0 2.15401,-0.9096 2.15401,-2.1301 v -2.9201 c 0,-1.2206 -0.90944,-2.1539 -2.15401,-2.1539 H 508.4056 v -11.3209 h 13.78602 c 1.24457,0 2.15401,-1.0771 2.15401,-2.2977 v -2.9199 c 0,-1.0771 -0.90944,-2.1302 -2.15401,-2.1302 H 508.4056 v -24.3649 c 0,-0.9095 -0.45477,-1.6754 -1.0531,-1.9865 l -1.84288,-0.9334 c -0.31125,-0.1436 -0.45479,-0.1436 -0.76589,-0.1436 -0.62236,0 -1.22068,0 -1.69936,0.4547 l -13.92969,12.709 c -0.45464,0.4787 -0.62222,1.077 -0.62222,1.6993 v 12.5654 h -17.75911 c 0,0 17.1608,-18.3813 35.23091,-42.6027 0.62235,-0.7659 0.7659,-1.5318 0.7659,-2.1301 0,-0.7659 -0.31112,-1.3881 -0.45465,-1.5318 l -3.37481,-3.3746 c -0.45463,-0.3111 -0.90943,-0.6224 -1.53177,-0.6224 -0.90944,0 -21.61236,0 -22.83304,0 -1.07699,0 -1.84288,0.9335 -1.98656,1.843 0,0 -0.76589,11.3447 -4.73894,23.7426 -3.99699,12.4218 -8.59234,20.0807 -12.56539,25.7291 0,0 -0.45475,0.7659 -0.45475,1.6993 0,0.3112 0,0.5985 0.14361,0.9096 0.45474,1.077 1.53178,2.7524 1.53178,2.7524 0,0 0.31114,0.9334 1.67539,0.9334 h 26.35143"
     id="path166"
     style="stroke-width:1.53178" />
  <path
     class="Fingering"
     d="m 1277.6549,872.03525 c -1.8576,0 -3.3292,1.49627 -3.3292,3.35386 0,1.78502 1.4716,3.32916 3.2813,3.32916 1.9055,0 3.3786,-1.49628 3.3786,-3.32916 0,-1.85759 -1.4731,-3.35386 -3.3307,-3.35386 m 1.1101,15.08 -11.8465,0.91568 -0.2409,2.24362 h 1.4716 c 2.5339,0 3.5221,0.5559 3.5221,1.90701 0,0.60221 -0.1204,1.30325 -0.5543,2.72539 l -3.5948,12.03961 c -1.158,3.93291 -1.351,4.80225 -1.351,6.22594 0,2.17106 1.8576,3.83563 4.1984,3.83563 5.3072,0 8.9499,-5.50174 11.5564,-9.50568 l -1.9302,-1.06237 c -3.2087,4.87329 -5.7905,7.47979 -7.4551,7.47979 -0.627,0 -1.0623,-0.55435 -1.0623,-1.30325 0,-0.60222 0.2424,-1.73715 0.7488,-3.44959 l 6.5378,-22.05178"
     id="path168"
     style="stroke-width:1.54413" />
  <path
     class="Fingering"
     d="m 1952.8379,1130.4985 c 5.6207,-2.0275 8.1993,-5.1884 8.1993,-10.1342 0,-6.4653 -4.9566,-10.6159 -12.6001,-10.6159 -7.242,0 -12.7082,4.271 -12.7082,9.8917 0,2.5339 1.6677,4.3189 4.0766,4.3189 2.1463,0 3.6441,-1.4947 3.6441,-3.7152 0,-1.351 -0.5096,-2.1478 -1.9302,-3.1361 -0.6023,-0.4339 -0.8029,-0.6994 -0.8029,-1.1102 0,-1.7372 3.5669,-3.5948 7.103,-3.5948 4.4626,0 6.7941,2.7748 6.7941,8.0342 0,5.7425 -2.3315,8.7583 -6.7323,8.7583 -0.556,0 -1.6059,-0.048 -2.5324,-0.1205 -0.5096,-0.048 -0.9883,-0.048 -1.3434,-0.048 -1.3125,0 -1.9766,0.5544 -1.9766,1.6645 0,1.0377 0.6023,1.5442 1.9766,1.5442 0.3551,0 0.8338,0 1.3897,-0.072 1.2662,-0.048 2.2544,-0.048 2.9184,-0.048 4.5706,0 7.0567,3.2565 7.0567,9.3852 0,6.4174 -3.0882,9.9874 -8.6626,9.9874 -3.8912,0 -8.0913,-2.0984 -8.0913,-4.0039 0,-0.5559 0.1236,-0.6763 1.3126,-1.3511 1.714,-1.0624 2.3779,-2.1 2.3779,-3.6441 0,-2.2437 -1.6676,-3.9083 -3.8758,-3.9083 -2.6559,0 -4.3699,2.1711 -4.3699,5.4524 0,5.9835 5.4817,10.1094 13.3876,10.1094 8.9561,0 14.762,-4.9212 14.762,-12.5214 0,-5.8152 -2.9647,-9.3374 -9.3729,-11.1223"
     id="path170"
     style="stroke-width:1.54413" />
  <path
     class="Fingering"
     d="m 594.91795,1925.1402 c -1.8576,0 -3.32916,1.4824 -3.32916,3.3508 0,1.7758 1.47156,3.3199 3.28129,3.3199 1.90546,0 3.37702,-1.4824 3.37702,-3.3199 0,-1.8684 -1.47156,-3.3508 -3.32915,-3.3508 m 1.11023,15.0708 -11.84659,0.9265 -0.24088,2.239 h 1.47156 c 2.53391,0 3.52216,0.5558 3.52216,1.8992 0,0.6022 -0.12044,1.3126 -0.55434,2.7332 l -3.59475,12.0442 c -1.1581,3.9221 -1.35111,4.7869 -1.35111,6.2229 0,2.1618 1.85759,3.8294 4.19695,3.8294 5.30873,0 8.95134,-5.4971 11.55784,-9.5119 l -1.93016,-1.0499 c -3.20872,4.8639 -5.7905,7.4736 -7.45508,7.4736 -0.62847,0 -1.06237,-0.556 -1.06237,-1.2971 0,-0.6023 0.24088,-1.7449 0.74891,-3.4589 l 6.53786,-22.0502"
     id="path172"
     style="stroke-width:1.54413" />
  <path
     class="Fingering"
     d="m 2884.151,1925.1402 c -1.853,0 -3.3354,1.4824 -3.3354,3.3508 0,1.7758 1.4824,3.3199 3.289,3.3199 1.8993,0 3.3817,-1.4824 3.3817,-3.3199 0,-1.8684 -1.4824,-3.3508 -3.3353,-3.3508 m 1.1117,15.0708 -11.8434,0.9265 -0.2472,2.239 h 1.467 c 2.5479,0 3.536,0.5558 3.536,1.8992 0,0.6022 -0.1235,1.3126 -0.5558,2.7332 l -3.5978,12.0442 c -1.1582,3.9221 -1.3589,4.7869 -1.3589,6.2229 0,2.1618 1.8684,3.8294 4.2,3.8294 5.3118,0 8.956,-5.4971 11.5656,-9.5119 l -1.9301,-1.0499 c -3.2119,4.8639 -5.7906,7.4736 -7.4582,7.4736 -0.6332,0 -1.0655,-0.556 -1.0655,-1.2971 0,-0.6023 0.2471,-1.7449 0.7567,-3.4589 l 6.5316,-22.0502"
     id="path174"
     style="stroke-width:1.54413" />
  <path
     class="Fingering"
     d="m 613.75174,887.11525 -11.24283,0.91568 -0.19302,2.24362 h 1.49472 c 2.46135,0 3.45113,0.5559 3.45113,1.95487 0,0.55435 -0.19301,1.49628 -0.50647,2.67753 l -6.29852,21.23183 h 5.3813 l 2.53239,-8.70891 c 2.7748,-9.45781 8.397,-16.59942 13.02939,-16.59942 1.6167,0 2.60495,0.84463 2.60495,2.38877 0,1.25384 -0.50648,3.83562 -1.25384,6.17653 l -4.92269,16.74303 h 5.3566 l 2.65436,-8.94979 c 1.54413,-5.14042 3.08827,-8.59001 5.0663,-11.24438 2.22047,-3.08826 5.38131,-5.11416 7.72067,-5.11416 1.54413,0 2.41348,0.79522 2.41348,2.26832 0,0.86781 -0.31346,2.21892 -0.86935,3.95607 l -2.84738,8.78304 c -1.66457,4.80071 -1.71245,5.18674 -1.71245,6.89918 0,2.6065 1.90547,4.31894 4.80072,4.31894 2.05215,0 4.03019,-0.98825 6.12867,-2.94312 1.30324,-1.25537 2.14789,-2.36407 4.68026,-6.05609 l -1.90546,-1.30325 c -3.20871,4.82542 -5.50021,7.16633 -7.09374,7.16633 -0.67479,0 -1.30172,-0.67634 -1.30172,-1.54413 0,-0.55435 0.19302,-1.23068 0.74736,-3.04041 l 3.88505,-11.96702 c 0.4339,-1.35112 0.74736,-3.28129 0.74736,-4.6324 0,-3.28129 -2.41348,-5.62066 -5.74263,-5.62066 -4.39151,0 -8.34759,2.84585 -11.91916,8.70892 0.24242,-1.18126 0.36286,-2.21892 0.36286,-2.96782 0,-3.28129 -2.6065,-5.7411 -5.98352,-5.7411 -3.9082,0 -6.73242,2.17106 -11.07451,8.34759 l 1.80972,-8.34759"
     id="path176"
     style="stroke-width:1.54413" />
  <path
     class="Fingering"
     d="m 581.17053,1073.0567 c 5.62218,-2.0274 8.20398,-5.1883 8.20398,-10.1341 0,-6.4653 -4.94586,-10.616 -12.59395,-10.616 -7.2389,0 -12.71594,4.2711 -12.71594,9.8918 0,2.5339 1.66457,4.3189 4.07805,4.3189 2.14789,0 3.64261,-1.4947 3.64261,-3.7152 0,-1.3511 -0.50647,-2.1479 -1.93016,-3.1361 -0.60221,-0.4339 -0.79523,-0.6995 -0.79523,-1.1103 0,-1.7371 3.57004,-3.5947 7.0922,-3.5947 4.4641,0 6.80501,2.7748 6.80501,8.0341 0,5.7427 -2.34091,8.7583 -6.73243,8.7583 -0.55435,0 -1.61671,-0.048 -2.53238,-0.1204 -0.50648,-0.048 -0.98979,-0.048 -1.35111,-0.048 -1.30326,0 -1.97959,0.5544 -1.97959,1.6646 0,1.0377 0.60376,1.5441 1.97959,1.5441 0.36132,0 0.84463,0 1.39898,-0.072 1.25383,-0.048 2.24363,-0.048 2.91996,-0.048 4.55982,0 7.04434,3.2566 7.04434,9.3852 0,6.4175 -3.08827,9.9874 -8.66105,9.9874 -3.88504,0 -8.08354,-2.0984 -8.08354,-4.0039 0,-0.5558 0.12045,-0.6763 1.30325,-1.351 1.71245,-1.0624 2.38878,-2.1001 2.38878,-3.6442 0,-2.2437 -1.66458,-3.9082 -3.88504,-3.9082 -2.65282,0 -4.36681,2.1711 -4.36681,5.4523 0,5.9835 5.47703,10.1094 13.39072,10.1094 8.95134,0 14.76654,-4.9211 14.76654,-12.5213 0,-5.8153 -2.96782,-9.3374 -9.38678,-11.1224"
     id="path178"
     style="stroke-width:1.54413" />
  <path
     class="Fingering"
     d="m 1046.2526,887.11525 -11.2428,0.91568 -0.193,2.24362 h 1.4962 c 2.4598,0 3.4496,0.5559 3.4496,1.95487 0,0.55435 -0.193,1.49628 -0.5064,2.67753 l -6.297,21.23183 h 5.3797 l 2.534,-8.70891 c 2.7748,-9.45781 8.3954,-16.59942 13.0278,-16.59942 1.6167,0 2.6065,0.84463 2.6065,2.38877 0,1.25384 -0.5065,3.83562 -1.2554,6.17653 l -4.9212,16.74303 h 5.3567 l 2.6528,-8.94979 c 1.5441,-5.14042 3.0882,-8.59001 5.0678,-11.24438 2.219,-3.08826 5.3798,-5.11416 7.7206,-5.11416 1.5443,0 2.4121,0.79522 2.4121,2.26832 0,0.86781 -0.3135,2.21892 -0.8678,3.95607 l -2.8474,8.78304 c -1.6646,4.80071 -1.714,5.18674 -1.714,6.89918 0,2.6065 1.907,4.31894 4.8022,4.31894 2.0506,0 4.0287,-0.98825 6.1286,-2.94312 1.3018,-1.25537 2.1464,-2.36407 4.6803,-6.05609 l -1.907,-1.30325 c -3.2087,4.82542 -5.5002,7.16633 -7.0922,7.16633 -0.6763,0 -1.3032,-0.67634 -1.3032,-1.54413 0,-0.55435 0.193,-1.23068 0.7474,-3.04041 l 3.885,-11.96702 c 0.4339,-1.35112 0.7474,-3.28129 0.7474,-4.6324 0,-3.28129 -2.412,-5.62066 -5.7412,-5.62066 -4.3915,0 -8.349,2.84585 -11.9191,8.70892 0.2409,-1.18126 0.3613,-2.21892 0.3613,-2.96782 0,-3.28129 -2.605,-5.7411 -5.9835,-5.7411 -3.9082,0 -6.7309,2.17106 -11.0745,8.34759 l 1.8097,-8.34759"
     id="path180"
     style="stroke-width:1.54413" />
  <path
     class="Fingering"
     d="m 3036.1091,872.03525 c -1.8529,0 -3.3198,1.49627 -3.3198,3.35386 0,1.78502 1.4669,3.32916 3.2735,3.32916 1.8992,0 3.3817,-1.49628 3.3817,-3.32916 0,-1.85759 -1.4825,-3.35386 -3.3354,-3.35386 m 1.1118,15.08 -11.8435,0.91568 -0.2471,2.24362 h 1.4824 c 2.5324,0 3.5206,0.5559 3.5206,1.90701 0,0.60221 -0.1236,1.30325 -0.5559,2.72539 l -3.5978,12.03961 c -1.1581,3.93291 -1.3588,4.80225 -1.3588,6.22594 0,2.17106 1.8684,3.83563 4.2,3.83563 5.3118,0 8.9559,-5.50174 11.5656,-9.50568 l -1.9302,-1.06237 c -3.2118,4.87329 -5.7906,7.47979 -7.4582,7.47979 -0.6331,0 -1.0654,-0.55435 -1.0654,-1.30325 0,-0.60222 0.247,-1.73715 0.7566,-3.44959 l 6.5317,-22.05178"
     id="path182"
     style="stroke-width:1.54413" />
  <path
     class="Fingering"
     d="m 3165.9552,1932.4903 -11.2413,0.9265 -0.2007,2.239 h 1.4978 c 2.4552,0 3.4435,0.5559 3.4435,1.9456 0,0.5559 -0.1853,1.4978 -0.4942,2.6868 l -6.3001,21.2318 h 5.3737 l 2.5324,-8.7089 c 2.7794,-9.4656 8.4,-16.5994 13.0324,-16.5994 1.6214,0 2.6097,0.8338 2.6097,2.378 0,1.2661 -0.5096,3.8449 -1.2509,6.1765 l -4.9257,16.7538 h 5.3582 l 2.6558,-8.9559 c 1.5442,-5.142 3.0883,-8.5854 5.0648,-11.2413 2.2081,-3.0883 5.3735,-5.1111 7.7206,-5.1111 1.5442,0 2.4089,0.7875 2.4089,2.2699 0,0.8646 -0.3088,2.208 -0.8647,3.953 l -2.8566,8.786 c -1.6523,4.8023 -1.714,5.1883 -1.714,6.9024 0,2.5941 1.9147,4.3081 4.8022,4.3081 2.0537,0 4.0302,-0.9883 6.1302,-2.9339 1.3126,-1.2662 2.1464,-2.378 4.6787,-6.0684 l -1.8992,-1.2971 c -3.2119,4.8332 -5.4972,7.1647 -7.0876,7.1647 -0.6794,0 -1.3125,-0.6793 -1.3125,-1.5441 0,-0.5558 0.2007,-1.2353 0.7566,-3.0418 l 3.8758,-11.9671 c 0.4323,-1.3435 0.7565,-3.2735 0.7565,-4.6325 0,-3.2735 -2.4242,-5.6206 -5.7441,-5.6206 -4.4008,0 -8.3537,2.8566 -11.9207,8.7089 0.2316,-1.1735 0.3551,-2.2235 0.3551,-2.9647 0,-3.2736 -2.5941,-5.7442 -5.9757,-5.7442 -3.9067,0 -6.7325,2.1773 -11.0714,8.3538 l 1.8065,-8.3538"
     id="path184"
     style="stroke-width:1.54413" />
  <path
     class="Fingering"
     d="m 337.57579,1940.211 -11.24283,0.9265 -0.19301,2.239 h 1.49626 c 2.46135,0 3.4496,0.5558 3.4496,1.9456 0,0.5558 -0.19302,1.4977 -0.50648,2.6868 l -6.29697,21.2318 h 5.37976 l 2.53392,-8.709 c 2.77481,-9.4654 8.39545,-16.5994 13.02785,-16.5994 1.61671,0 2.6065,0.8339 2.6065,2.378 0,1.2662 -0.50648,3.8449 -1.25538,6.1766 l -4.92116,16.7538 h 5.35661 l 2.65281,-8.956 c 1.54414,-5.1419 3.08827,-8.5854 5.06784,-11.2413 2.21892,-3.0882 5.37977,-5.1111 7.72067,-5.1111 1.54414,0 2.41194,0.7876 2.41194,2.2699 0,0.8648 -0.31346,2.2081 -0.8678,3.953 l -2.84738,8.7861 c -1.66458,4.8023 -1.71245,5.1884 -1.71245,6.9023 0,2.5942 1.90547,4.3081 4.80072,4.3081 2.0506,0 4.02863,-0.9882 6.12866,-2.9338 1.3017,-1.2662 2.14634,-2.3779 4.68026,-6.0685 l -1.90545,-1.297 c -3.21026,4.8331 -5.50175,7.1648 -7.09376,7.1648 -0.67633,0 -1.30324,-0.6795 -1.30324,-1.5442 0,-0.5559 0.19301,-1.2353 0.74736,-3.0419 l 3.88504,-11.9671 c 0.4339,-1.3433 0.74736,-3.2735 0.74736,-4.6323 0,-3.2736 -2.41194,-5.6207 -5.74109,-5.6207 -4.39152,0 -8.34912,2.8567 -11.91916,8.7089 0.24088,-1.1736 0.36132,-2.2236 0.36132,-2.9647 0,-3.2736 -2.60495,-5.7442 -5.98351,-5.7442 -3.9082,0 -6.73088,2.1772 -11.07453,8.3537 l 1.80972,-8.3537"
     id="path186"
     style="stroke-width:1.54413" />
  <path
     class="Fingering"
     d="m 2603.6128,872.03525 c -1.8684,0 -3.3353,1.49627 -3.3353,3.35386 0,1.78502 1.4669,3.32916 3.289,3.32916 1.8993,0 3.3662,-1.49628 3.3662,-3.32916 0,-1.85759 -1.4669,-3.35386 -3.3199,-3.35386 m 1.1118,15.08 -11.859,0.91568 -0.2316,2.24362 h 1.4669 c 2.5324,0 3.5207,0.5559 3.5207,1.90701 0,0.60221 -0.1235,1.30325 -0.5559,2.72539 l -3.5824,12.03961 c -1.1581,3.93291 -1.3588,4.80225 -1.3588,6.22594 0,2.17106 1.8529,3.83563 4.2,3.83563 5.3118,0 8.956,-5.50174 11.5501,-9.50568 l -1.9301,-1.06237 c -3.1964,4.87329 -5.7905,7.47979 -7.4428,7.47979 -0.6331,0 -1.0654,-0.55435 -1.0654,-1.30325 0,-0.60222 0.2316,-1.73715 0.7412,-3.44959 l 6.5471,-22.05178"
     id="path188"
     style="stroke-width:1.54413" />
  <path
     class="Fingering"
     d="m 3423.3005,1925.1402 c -1.8684,0 -3.3354,1.4824 -3.3354,3.3508 0,1.7758 1.467,3.3199 3.2736,3.3199 1.9148,0 3.3817,-1.4824 3.3817,-3.3199 0,-1.8684 -1.4669,-3.3508 -3.3199,-3.3508 m 1.0964,15.0708 -11.8435,0.9265 -0.2316,2.239 h 1.4669 c 2.5324,0 3.5205,0.5558 3.5205,1.8992 0,0.6022 -0.1235,1.3126 -0.5558,2.7332 l -3.5978,12.0442 c -1.1582,3.9221 -1.3434,4.7869 -1.3434,6.2229 0,2.1618 1.8529,3.8294 4.2,3.8294 5.2963,0 8.9405,-5.4971 11.5502,-9.5119 l -1.9302,-1.0499 c -3.2119,4.8639 -5.7906,7.4736 -7.4582,7.4736 -0.6176,0 -1.0501,-0.556 -1.0501,-1.2971 0,-0.6023 0.2317,-1.7449 0.7413,-3.4589 l 6.5317,-22.0502"
     id="path190"
     style="stroke-width:1.54413" />
  <path
     class="Fingering"
     d="m 845.15399,872.03525 c -1.85759,0 -3.32915,1.49627 -3.32915,3.35386 0,1.78502 1.47156,3.32916 3.28129,3.32916 1.90546,0 3.37702,-1.49628 3.37702,-3.32916 0,-1.85759 -1.47156,-3.35386 -3.32916,-3.35386 m 1.11024,15.08 -11.84659,0.91568 -0.24089,2.24362 h 1.47156 c 2.53238,0 3.52216,0.5559 3.52216,1.90701 0,0.60221 -0.12043,1.30325 -0.55434,2.72539 l -3.59628,12.03961 c -1.1581,3.93291 -1.35112,4.80225 -1.35112,6.22594 0,2.17106 1.85913,3.83563 4.1985,3.83563 5.30873,0 8.95134,-5.50174 11.55784,-9.50568 l -1.93017,-1.06237 c -3.21026,4.87329 -5.7905,7.47979 -7.45662,7.47979 -0.62692,0 -1.06081,-0.55435 -1.06081,-1.30325 0,-0.60222 0.24087,-1.73715 0.74736,-3.44959 l 6.5394,-22.05178"
     id="path192"
     style="stroke-width:1.54413" />
  <path
     class="Fingering"
     d="m 2804.7053,887.11525 -11.2413,0.91568 -0.1853,2.24362 h 1.4824 c 2.4706,0 3.4589,0.5559 3.4589,1.95487 0,0.55435 -0.2008,1.49628 -0.5096,2.67753 l -6.3001,21.23183 h 5.3891 l 2.5324,-8.70891 c 2.764,-9.45781 8.4,-16.59942 13.0324,-16.59942 1.6059,0 2.5941,0.84463 2.5941,2.38877 0,1.25384 -0.5095,3.83562 -1.2507,6.17653 l -4.9258,16.74303 h 5.3581 l 2.6559,-8.94979 c 1.5442,-5.14042 3.0883,-8.59001 5.0648,-11.24438 2.2235,-3.08826 5.389,-5.11416 7.7207,-5.11416 1.5441,0 2.4089,0.79522 2.4089,2.26832 0,0.86781 -0.3089,2.21892 -0.8648,3.95607 l -2.8411,8.78304 c -1.6678,4.80071 -1.714,5.18674 -1.714,6.89918 0,2.6065 1.8992,4.31894 4.8022,4.31894 2.0537,0 4.0302,-0.98825 6.1302,-2.94312 1.297,-1.25537 2.1464,-2.36407 4.6787,-6.05609 l -1.9147,-1.30325 c -3.1964,4.82542 -5.4971,7.16633 -7.0876,7.16633 -0.6794,0 -1.297,-0.67634 -1.297,-1.54413 0,-0.55435 0.1853,-1.23068 0.7411,-3.04041 l 3.8912,-11.96702 c 0.4324,-1.35112 0.7412,-3.28129 0.7412,-4.6324 0,-3.28129 -2.4088,-5.62066 -5.7442,-5.62066 -4.3853,0 -8.3382,2.84585 -11.9206,8.70892 0.247,-1.18126 0.3705,-2.21892 0.3705,-2.96782 0,-3.28129 -2.6095,-5.7411 -5.9912,-5.7411 -3.9067,0 -6.7324,2.17106 -11.0715,8.34759 l 1.8067,-8.34759"
     id="path194"
     style="stroke-width:1.54413" />
  <path
     class="Fingering"
     d="m 3650.3344,1940.211 -11.2413,0.9265 -0.2008,2.239 h 1.4979 c 2.4706,0 3.4589,0.5558 3.4589,1.9456 0,0.5558 -0.2008,1.4977 -0.5096,2.6868 l -6.3001,21.2318 h 5.3736 l 2.5323,-8.709 c 2.7796,-9.4654 8.4002,-16.5994 13.0326,-16.5994 1.6213,0 2.6095,0.8339 2.6095,2.378 0,1.2662 -0.5096,3.8449 -1.2507,6.1766 l -4.9258,16.7538 h 5.3581 l 2.6559,-8.956 c 1.5442,-5.1419 3.0883,-8.5854 5.0648,-11.2413 2.2236,-3.0882 5.3736,-5.1111 7.7207,-5.1111 1.5441,0 2.4089,0.7876 2.4089,2.2699 0,0.8648 -0.3089,2.2081 -0.8648,3.953 l -2.8567,8.7861 c -1.6522,4.8023 -1.6985,5.1884 -1.6985,6.9023 0,2.5942 1.8993,4.3081 4.7869,4.3081 2.0537,0 4.0301,-0.9882 6.1302,-2.9338 1.3124,-1.2662 2.1463,-2.3779 4.6786,-6.0685 l -1.8992,-1.297 c -3.2118,4.8331 -5.4971,7.1648 -7.0876,7.1648 -0.6794,0 -1.3125,-0.6795 -1.3125,-1.5442 0,-0.5559 0.2008,-1.2353 0.7566,-3.0419 l 3.8758,-11.9671 c 0.4323,-1.3433 0.7566,-3.2735 0.7566,-4.6323 0,-3.2736 -2.4242,-5.6207 -5.7442,-5.6207 -4.4007,0 -8.3538,2.8567 -11.9206,8.7089 0.247,-1.1736 0.3551,-2.2236 0.3551,-2.9647 0,-3.2736 -2.5941,-5.7442 -5.9758,-5.7442 -3.9067,0 -6.7324,2.1772 -11.0715,8.3537 l 1.8067,-8.3537"
     id="path196"
     style="stroke-width:1.54413" />
  <path
     class="Fingering"
     d="m 1993.0626,887.11525 -11.2413,0.91568 -0.1854,2.24362 h 1.4979 c 2.4552,0 3.4434,0.5559 3.4434,1.95487 0,0.55435 -0.1853,1.49628 -0.5095,2.67753 l -6.2847,21.23183 h 5.3736 l 2.5324,-8.70891 c 2.7794,-9.45781 8.4001,-16.59942 13.0325,-16.59942 1.6059,0 2.6096,0.84463 2.6096,2.38877 0,1.25384 -0.5096,3.83562 -1.2662,6.17653 l -4.9104,16.74303 h 5.3427 l 2.6559,-8.94979 c 1.5441,-5.14042 3.0883,-8.59001 5.0648,-11.24438 2.2236,-3.08826 5.3891,-5.11416 7.7206,-5.11416 1.5441,0 2.4243,0.79522 2.4243,2.26832 0,0.86781 -0.3242,2.21892 -0.8802,3.95607 l -2.8411,8.78304 c -1.6677,4.80071 -1.714,5.18674 -1.714,6.89918 0,2.6065 1.9148,4.31894 4.8023,4.31894 2.0537,0 4.0301,-0.98825 6.1302,-2.94312 1.297,-1.25537 2.1463,-2.36407 4.6787,-6.05609 l -1.8993,-1.30325 c -3.2118,4.82542 -5.5126,7.16633 -7.103,7.16633 -0.6794,0 -1.2971,-0.67634 -1.2971,-1.54413 0,-0.55435 0.1853,-1.23068 0.7412,-3.04041 l 3.8912,-11.96702 c 0.4323,-1.35112 0.7412,-3.28129 0.7412,-4.6324 0,-3.28129 -2.4088,-5.62066 -5.7442,-5.62066 -4.3853,0 -8.3383,2.84585 -11.9052,8.70892 0.2316,-1.18126 0.3551,-2.21892 0.3551,-2.96782 0,-3.28129 -2.6096,-5.7411 -5.9912,-5.7411 -3.9066,0 -6.717,2.17106 -11.0714,8.34759 l 1.8066,-8.34759"
     id="path198"
     style="stroke-width:1.54413" />
  <path
     class="Fingering"
     d="m 1240.0027,1940.211 -11.2429,0.9265 -0.1929,2.239 h 1.4962 c 2.4614,0 3.4496,0.5558 3.4496,1.9456 0,0.5558 -0.193,1.4977 -0.5065,2.6868 l -6.2969,21.2318 h 5.3797 l 2.534,-8.709 c 2.7748,-9.4654 8.3954,-16.5994 13.0278,-16.5994 1.6167,0 2.6065,0.8339 2.6065,2.378 0,1.2662 -0.5065,3.8449 -1.2554,6.1766 l -4.9211,16.7538 h 5.3566 l 2.6528,-8.956 c 1.5441,-5.1419 3.0882,-8.5854 5.0678,-11.2413 2.2189,-3.0882 5.3798,-5.1111 7.7207,-5.1111 1.5441,0 2.4119,0.7876 2.4119,2.2699 0,0.8648 -0.3134,2.2081 -0.8678,3.953 l -2.8473,8.7861 c -1.6646,4.8023 -1.7125,5.1884 -1.7125,6.9023 0,2.5942 1.9054,4.3081 4.8007,4.3081 2.0507,0 4.0286,-0.9882 6.1287,-2.9338 1.3017,-1.2662 2.1464,-2.3779 4.6803,-6.0685 l -1.9055,-1.297 c -3.2102,4.8331 -5.5018,7.1648 -7.0938,7.1648 -0.6763,0 -1.3033,-0.6795 -1.3033,-1.5442 0,-0.5559 0.1931,-1.2353 0.7475,-3.0419 l 3.885,-11.9671 c 0.4339,-1.3433 0.7473,-3.2735 0.7473,-4.6323 0,-3.2736 -2.4119,-5.6207 -5.741,-5.6207 -4.3915,0 -8.3492,2.8567 -11.9191,8.7089 0.2408,-1.1736 0.3612,-2.2236 0.3612,-2.9647 0,-3.2736 -2.6049,-5.7442 -5.9835,-5.7442 -3.9082,0 -6.7308,2.1772 -11.0745,8.3537 l 1.8097,-8.3537"
     id="path200"
     style="stroke-width:1.54413" />
  <path
     class="Fingering"
     d="m 1791.9702,872.03525 c -1.8531,0 -3.3354,1.49627 -3.3354,3.35386 0,1.78502 1.4823,3.32916 3.289,3.32916 1.8993,0 3.3816,-1.49628 3.3816,-3.32916 0,-1.85759 -1.4823,-3.35386 -3.3352,-3.35386 m 1.1116,15.08 -11.8434,0.91568 -0.2471,2.24362 h 1.467 c 2.5477,0 3.536,0.5559 3.536,1.90701 0,0.60221 -0.1235,1.30325 -0.5558,2.72539 l -3.598,12.03961 c -1.158,3.93291 -1.3588,4.80225 -1.3588,6.22594 0,2.17106 1.8684,3.83563 4.2001,3.83563 5.3118,0 8.956,-5.50174 11.5655,-9.50568 l -1.9302,-1.06237 c -3.2117,4.87329 -5.7904,7.47979 -7.458,7.47979 -0.6332,0 -1.0655,-0.55435 -1.0655,-1.30325 0,-0.60222 0.2471,-1.73715 0.7566,-3.44959 l 6.5316,-22.05178"
     id="path202"
     style="stroke-width:1.54413" />
  <path
     class="Fingering"
     d="m 3724.4683,887.11525 -11.2413,0.91568 -0.1854,2.24362 h 1.4979 c 2.4552,0 3.4433,0.5559 3.4433,1.95487 0,0.55435 -0.2007,1.49628 -0.5095,2.67753 l -6.3,21.23183 h 5.3889 l 2.5324,-8.70891 c 2.7794,-9.45781 8.4001,-16.59942 13.0326,-16.59942 1.6058,0 2.5941,0.84463 2.5941,2.38877 0,1.25384 -0.4942,3.83562 -1.2507,6.17653 l -4.9258,16.74303 h 5.3581 l 2.6559,-8.94979 c 1.5441,-5.14042 3.0882,-8.59001 5.0647,-11.24438 2.2236,-3.08826 5.3891,-5.11416 7.7207,-5.11416 1.5442,0 2.4088,0.79522 2.4088,2.26832 0,0.86781 -0.3088,2.21892 -0.8646,3.95607 l -2.8413,8.78304 c -1.6676,4.80071 -1.714,5.18674 -1.714,6.89918 0,2.6065 1.8993,4.31894 4.8023,4.31894 2.0538,0 4.0302,-0.98825 6.1302,-2.94312 1.2971,-1.25537 2.1463,-2.36407 4.6787,-6.05609 l -1.9147,-1.30325 c -3.1963,4.82542 -5.4971,7.16633 -7.0876,7.16633 -0.6794,0 -1.2971,-0.67634 -1.2971,-1.54413 0,-0.55435 0.1854,-1.23068 0.7413,-3.04041 l 3.8912,-11.96702 c 0.4323,-1.35112 0.7412,-3.28129 0.7412,-4.6324 0,-3.28129 -2.4089,-5.62066 -5.7442,-5.62066 -4.3853,0 -8.3384,2.84585 -11.9207,8.70892 0.2471,-1.18126 0.3706,-2.21892 0.3706,-2.96782 0,-3.28129 -2.6097,-5.7411 -5.9913,-5.7411 -3.9066,0 -6.7323,2.17106 -11.0714,8.34759 l 1.8067,-8.34759"
     id="path204"
     style="stroke-width:1.54413" />
  <path
     class="Fingering"
     d="m 1497.3495,1925.1402 c -1.8684,0 -3.3353,1.4824 -3.3353,3.3508 0,1.7758 1.4669,3.3199 3.289,3.3199 1.8993,0 3.3662,-1.4824 3.3662,-3.3199 0,-1.8684 -1.4669,-3.3508 -3.3199,-3.3508 m 1.1117,15.0708 -11.8588,0.9265 -0.2317,2.239 h 1.467 c 2.5323,0 3.5206,0.5558 3.5206,1.8992 0,0.6022 -0.1235,1.3126 -0.5559,2.7332 l -3.5979,12.0442 c -1.1581,3.9221 -1.3434,4.7869 -1.3434,6.2229 0,2.1618 1.853,3.8294 4.2001,3.8294 5.3118,0 8.956,-5.4971 11.5501,-9.5119 l -1.9302,-1.0499 c -3.2118,4.8639 -5.7904,7.4736 -7.4582,7.4736 -0.6176,0 -1.05,-0.556 -1.05,-1.2971 0,-0.6023 0.2316,-1.7449 0.7412,-3.4589 l 6.5471,-22.0502"
     id="path206"
     style="stroke-width:1.54413" />
  <path
     class="Fingering"
     d="m 1513.7018,1029.8549 c -8.6471,0 -14.9472,9.3853 -14.9472,22.3668 0,12.7144 6.1148,22.0271 14.4377,22.0271 8.6626,0 14.7156,-8.9992 14.7156,-21.8588 0,-6.5379 -1.3743,-11.967 -3.953,-16.2381 -2.4243,-3.8835 -6.3773,-6.297 -10.2531,-6.297 m -0.4477,2.6544 c 2.0382,0 4.0147,1.3511 5.5125,3.8356 1.6522,2.8953 2.2082,6.419 2.2082,14.887 0,8.7105 -0.4325,12.787 -1.6523,15.4892 -1.4361,3.0404 -3.6441,4.8733 -5.9912,4.8733 -2.1001,0 -4.0303,-1.3511 -5.4971,-3.8109 -1.7449,-2.92 -2.2236,-6.7324 -2.2236,-16.8651 0,-7.2388 0.4324,-10.8089 1.6677,-13.5358 1.4206,-3.0883 3.6441,-4.8733 5.9758,-4.8733"
     id="path208"
     style="stroke-width:1.54413" />
  <path
     class="Fingering"
     d="m 1724.3834,1932.4903 -11.2413,0.9265 -0.2007,2.239 h 1.4978 c 2.4706,0 3.4588,0.5559 3.4588,1.9456 0,0.5559 -0.2007,1.4978 -0.5096,2.6868 l -6.3,21.2318 h 5.3891 l 2.5323,-8.7089 c 2.764,-9.4656 8.3846,-16.5994 13.0171,-16.5994 1.6213,0 2.6095,0.8338 2.6095,2.378 0,1.2661 -0.5095,3.8449 -1.2507,6.1765 l -4.9258,16.7538 h 5.3581 l 2.656,-8.9559 c 1.5441,-5.142 3.0882,-8.5854 5.0648,-11.2413 2.2234,-3.0883 5.3735,-5.1111 7.7206,-5.1111 1.5441,0 2.4089,0.7875 2.4089,2.2699 0,0.8646 -0.3088,2.208 -0.8648,3.953 l -2.8412,8.786 c -1.6677,4.8023 -1.7139,5.1883 -1.7139,6.9024 0,2.5941 1.8992,4.3081 4.8022,4.3081 2.0382,0 4.0302,-0.9883 6.1147,-2.9339 1.3125,-1.2662 2.1618,-2.378 4.6942,-6.0684 l -1.9148,-1.2971 c -3.2117,4.8332 -5.497,7.1647 -7.0875,7.1647 -0.6794,0 -1.3125,-0.6793 -1.3125,-1.5441 0,-0.5558 0.2007,-1.2353 0.7567,-3.0418 l 3.8757,-11.9671 c 0.4478,-1.3435 0.7566,-3.2735 0.7566,-4.6325 0,-3.2735 -2.4089,-5.6206 -5.7441,-5.6206 -4.3854,0 -8.3538,2.8566 -11.9208,8.7089 0.2471,-1.1735 0.3706,-2.2235 0.3706,-2.9647 0,-3.2736 -2.6096,-5.7442 -5.9912,-5.7442 -3.9067,0 -6.7324,2.1773 -11.0715,8.3538 l 1.8067,-8.3538"
     id="path210"
     style="stroke-width:1.54413" />
  <path
     class="Fingering"
     d="m 1560.5664,879.3946 -11.2413,0.91566 -0.1854,2.24362 h 1.4824 c 2.4706,0 3.4588,0.5559 3.4588,1.95489 0,0.55434 -0.2007,1.49626 -0.5095,2.67752 l -6.3,21.23183 h 5.3889 l 2.5324,-8.70892 c 2.764,-9.45781 8.3847,-16.59942 13.017,-16.59942 1.6214,0 2.6097,0.84463 2.6097,2.38877 0,1.25384 -0.5096,3.83563 -1.2507,6.17653 l -4.9259,16.74304 h 5.3582 l 2.6559,-8.94979 c 1.5441,-5.14043 3.0883,-8.59002 5.0647,-11.24438 2.2236,-3.08827 5.3891,-5.11417 7.7207,-5.11417 1.5442,0 2.4088,0.79523 2.4088,2.26833 0,0.8678 -0.3088,2.21891 -0.8646,3.95607 l -2.8413,8.78303 c -1.6676,4.80071 -1.714,5.18674 -1.714,6.89918 0,2.6065 1.8993,4.31894 4.8023,4.31894 2.0537,0 4.0302,-0.98824 6.1302,-2.94311 1.2971,-1.25538 2.1463,-2.36407 4.6787,-6.05609 l -1.9147,-1.30325 c -3.2118,4.82541 -5.4972,7.16632 -7.0876,7.16632 -0.6794,0 -1.2971,-0.67633 -1.2971,-1.54413 0,-0.55434 0.1854,-1.23067 0.7412,-3.0404 l 3.8912,-11.96703 c 0.4324,-1.35112 0.7413,-3.28129 0.7413,-4.6324 0,-3.28129 -2.4089,-5.62064 -5.7442,-5.62064 -4.3853,0 -8.3538,2.84583 -11.9207,8.7089 0.247,-1.18126 0.3706,-2.21892 0.3706,-2.96782 0,-3.28128 -2.6097,-5.74108 -5.9913,-5.74108 -3.9066,0 -6.7324,2.17105 -11.0714,8.34758 l 1.8067,-8.34758"
     id="path212"
     style="stroke-width:1.54413" />
  <path
     class="Fingering"
     d="m 821.95648,1940.211 -11.24283,0.9265 -0.19302,2.239 h 1.49626 c 2.45981,0 3.4496,0.5558 3.4496,1.9456 0,0.5558 -0.19301,1.4977 -0.50648,2.6868 l -6.29698,21.2318 h 5.37977 l 2.53392,-8.709 c 2.77481,-9.4654 8.39546,-16.5994 13.02785,-16.5994 1.61671,0 2.6065,0.8339 2.6065,2.378 0,1.2662 -0.50647,3.8449 -1.25539,6.1766 l -4.92115,16.7538 h 5.3566 l 2.65282,-8.956 c 1.54414,-5.1419 3.08827,-8.5854 5.06785,-11.2413 2.21892,-3.0882 5.37976,-5.1111 7.72066,-5.1111 1.54414,0 2.41194,0.7876 2.41194,2.2699 0,0.8648 -0.31345,2.2081 -0.8678,3.953 l -2.84738,8.7861 c -1.66458,4.8023 -1.71398,5.1884 -1.71398,6.9023 0,2.5942 1.907,4.3081 4.80225,4.3081 2.0506,0 4.02864,-0.9882 6.12866,-2.9338 1.3017,-1.2662 2.14635,-2.3779 4.68027,-6.0685 l -1.90701,-1.297 c -3.20871,4.8331 -5.5002,7.1648 -7.0922,7.1648 -0.67633,0 -1.30325,-0.6795 -1.30325,-1.5442 0,-0.5559 0.19301,-1.2353 0.74737,-3.0419 l 3.88503,-11.9671 c 0.4339,-1.3433 0.74736,-3.2735 0.74736,-4.6323 0,-3.2736 -2.41193,-5.6207 -5.74109,-5.6207 -4.39151,0 -8.34912,2.8567 -11.91916,8.7089 0.24089,-1.1736 0.36132,-2.2236 0.36132,-2.9647 0,-3.2736 -2.60494,-5.7442 -5.98351,-5.7442 -3.9082,0 -6.73087,2.1772 -11.07452,8.3537 l 1.80972,-8.3537"
     id="path214"
     style="stroke-width:1.54413" />
  <path
     class="Fingering"
     d="m 3523.3758,872.03525 c -1.853,0 -3.3354,1.49627 -3.3354,3.35386 0,1.78502 1.4824,3.32916 3.2891,3.32916 1.8992,0 3.3816,-1.49628 3.3816,-3.32916 0,-1.85759 -1.4824,-3.35386 -3.3353,-3.35386 m 1.1118,15.08 -11.8436,0.91568 -0.247,2.24362 h 1.4669 c 2.5324,0 3.5207,0.5559 3.5207,1.90701 0,0.60221 -0.1082,1.30325 -0.556,2.72539 l -3.5824,12.03961 c -1.158,3.93291 -1.3588,4.80225 -1.3588,6.22594 0,2.17106 1.853,3.83563 4.2001,3.83563 5.3118,0 8.9559,-5.50174 11.5501,-9.50568 l -1.9302,-1.06237 c -3.1963,4.87329 -5.7905,7.47979 -7.4427,7.47979 -0.6331,0 -1.0654,-0.55435 -1.0654,-1.30325 0,-0.60222 0.247,-1.73715 0.7411,-3.44959 l 6.5472,-22.05178"
     id="path216"
     style="stroke-width:1.54413" />
  <path
     class="Fingering"
     d="m 2142.4266,1940.211 -11.2413,0.9265 -0.1853,2.239 h 1.4824 c 2.4706,0 3.4588,0.5558 3.4588,1.9456 0,0.5558 -0.2007,1.4977 -0.5095,2.6868 l -6.3001,21.2318 h 5.389 l 2.5324,-8.709 c 2.764,-9.4654 8.4001,-16.5994 13.0325,-16.5994 1.6059,0 2.5941,0.8339 2.5941,2.378 0,1.2662 -0.5096,3.8449 -1.2507,6.1766 l -4.9258,16.7538 h 5.3581 l 2.6559,-8.956 c 1.5442,-5.1419 3.0883,-8.5854 5.0648,-11.2413 2.2236,-3.0882 5.3891,-5.1111 7.7206,-5.1111 1.5441,0 2.4089,0.7876 2.4089,2.2699 0,0.8648 -0.3088,2.2081 -0.8648,3.953 l -2.8411,8.7861 c -1.6677,4.8023 -1.714,5.1884 -1.714,6.9023 0,2.5942 1.8993,4.3081 4.8023,4.3081 2.0537,0 4.0301,-0.9882 6.1302,-2.9338 1.2971,-1.2662 2.1463,-2.3779 4.6787,-6.0685 l -1.9147,-1.297 c -3.1964,4.8331 -5.4972,7.1648 -7.0876,7.1648 -0.6794,0 -1.2971,-0.6795 -1.2971,-1.5442 0,-0.5559 0.1853,-1.2353 0.7412,-3.0419 l 3.8912,-11.9671 c 0.4323,-1.3433 0.7412,-3.2735 0.7412,-4.6323 0,-3.2736 -2.4088,-5.6207 -5.7442,-5.6207 -4.3853,0 -8.3383,2.8567 -11.9207,8.7089 0.2471,-1.1736 0.3706,-2.2236 0.3706,-2.9647 0,-3.2736 -2.6096,-5.7442 -5.9912,-5.7442 -3.9066,0 -6.7324,2.1772 -11.0714,8.3537 l 1.8066,-8.3537"
     id="path218"
     style="stroke-width:1.54413" />
  <path
     class="Fingering"
     d="m 2372.209,887.11525 -11.2413,0.91568 -0.2006,2.24362 h 1.4977 c 2.4706,0 3.4589,0.5559 3.4589,1.95487 0,0.55435 -0.2008,1.49628 -0.5096,2.67753 l -6.3001,21.23183 h 5.3736 l 2.5324,-8.70891 c 2.7795,-9.45781 8.4001,-16.59942 13.0325,-16.59942 1.6213,0 2.6096,0.84463 2.6096,2.38877 0,1.25384 -0.5095,3.83562 -1.2508,6.17653 l -4.9258,16.74303 h 5.3582 l 2.6559,-8.94979 c 1.5442,-5.14042 3.0883,-8.59001 5.0648,-11.24438 2.2235,-3.08826 5.3736,-5.11416 7.7207,-5.11416 1.5441,0 2.4088,0.79522 2.4088,2.26832 0,0.86781 -0.3089,2.21892 -0.8647,3.95607 l -2.8567,8.78304 c -1.6522,4.80071 -1.6985,5.18674 -1.6985,6.89918 0,2.6065 1.8993,4.31894 4.7868,4.31894 2.0537,0 4.0301,-0.98825 6.1302,-2.94312 1.3125,-1.25537 2.1464,-2.36407 4.6788,-6.05609 l -1.8994,-1.30325 c -3.2117,4.82542 -5.4971,7.16633 -7.0875,7.16633 -0.6795,0 -1.3125,-0.67634 -1.3125,-1.54413 0,-0.55435 0.2007,-1.23068 0.7565,-3.04041 l 3.8758,-11.96702 c 0.4324,-1.35112 0.7567,-3.28129 0.7567,-4.6324 0,-3.28129 -2.4243,-5.62066 -5.7443,-5.62066 -4.4007,0 -8.3536,2.84585 -11.9206,8.70892 0.247,-1.18126 0.3551,-2.21892 0.3551,-2.96782 0,-3.28129 -2.5941,-5.7411 -5.9758,-5.7411 -3.9066,0 -6.7324,2.17106 -11.0714,8.34759 l 1.8066,-8.34759"
     id="path220"
     style="stroke-width:1.54413" />
  <path
     class="Fingering"
     d="m 2399.7718,1925.1402 c -1.8529,0 -3.3353,1.4824 -3.3353,3.3508 0,1.7758 1.4824,3.3199 3.289,3.3199 1.8993,0 3.3816,-1.4824 3.3816,-3.3199 0,-1.8684 -1.4823,-3.3508 -3.3353,-3.3508 m 1.1118,15.0708 -11.8435,0.9265 -0.2471,2.239 h 1.467 c 2.5324,0 3.536,0.5558 3.536,1.8992 0,0.6022 -0.1235,1.3126 -0.5559,2.7332 l -3.5978,12.0442 c -1.1581,3.9221 -1.3589,4.7869 -1.3589,6.2229 0,2.1618 1.8685,3.8294 4.2002,3.8294 5.3117,0 8.9559,-5.4971 11.5655,-9.5119 l -1.9302,-1.0499 c -3.2118,4.8639 -5.7905,7.4736 -7.4581,7.4736 -0.6331,0 -1.0656,-0.556 -1.0656,-1.2971 0,-0.6023 0.2472,-1.7449 0.7413,-3.4589 l 6.5471,-22.0502"
     id="path222"
     style="stroke-width:1.54413" />
  <path
     class="Fingering"
     d="m 3291.972,879.3946 -11.2413,0.91566 -0.2008,2.24362 h 1.4979 c 2.4706,0 3.4588,0.5559 3.4588,1.95489 0,0.55434 -0.2007,1.49626 -0.5095,2.67752 l -6.3001,21.23183 h 5.3736 l 2.5478,-8.70892 c 2.764,-9.45781 8.3847,-16.59942 13.017,-16.59942 1.6214,0 2.6096,0.84463 2.6096,2.38877 0,1.25384 -0.5096,3.83563 -1.2507,6.17653 l -4.9258,16.74304 h 5.3581 l 2.6559,-8.94979 c 1.5441,-5.14043 3.0883,-8.59002 5.0648,-11.24438 2.2236,-3.08827 5.3735,-5.11417 7.7206,-5.11417 1.5442,0 2.4089,0.79523 2.4089,2.26833 0,0.8678 -0.3088,2.21891 -0.8647,3.95607 l -2.8412,8.78303 c -1.6677,4.80071 -1.714,5.18674 -1.714,6.89918 0,2.6065 1.8992,4.31894 4.8023,4.31894 2.0382,0 4.0147,-0.98824 6.1148,-2.94311 1.3124,-1.25538 2.1463,-2.36407 4.694,-6.05609 l -1.9146,-1.30325 c -3.2119,4.82541 -5.4972,7.16632 -7.0877,7.16632 -0.6793,0 -1.3124,-0.67633 -1.3124,-1.54413 0,-0.55434 0.2008,-1.23067 0.7566,-3.0404 l 3.8758,-11.96703 c 0.4323,-1.35112 0.7566,-3.28129 0.7566,-4.6324 0,-3.28129 -2.4088,-5.62064 -5.7442,-5.62064 -4.3853,0 -8.3538,2.84583 -11.9206,8.7089 0.247,-1.18126 0.3551,-2.21892 0.3551,-2.96782 0,-3.28128 -2.5942,-5.74108 -5.9758,-5.74108 -3.9067,0 -6.7324,2.17105 -11.0715,8.34758 l 1.8067,-8.34758"
     id="path224"
     style="stroke-width:1.54413" />
  <path
     class="Fingering"
     d="m 2626.8057,1932.4903 -11.2413,0.9265 -0.1853,2.239 h 1.4978 c 2.4552,0 3.4435,0.5559 3.4435,1.9456 0,0.5559 -0.2008,1.4978 -0.5096,2.6868 l -6.3001,21.2318 h 5.3891 l 2.5324,-8.7089 c 2.7794,-9.4656 8.4001,-16.5994 13.0324,-16.5994 1.606,0 2.5941,0.8338 2.5941,2.378 0,1.2661 -0.4941,3.8449 -1.2507,6.1765 l -4.9258,16.7538 h 5.3581 l 2.656,-8.9559 c 1.5441,-5.142 3.0882,-8.5854 5.0648,-11.2413 2.2234,-3.0883 5.3889,-5.1111 7.7206,-5.1111 1.5441,0 2.4089,0.7875 2.4089,2.2699 0,0.8646 -0.3089,2.208 -0.8648,3.953 l -2.8411,8.786 c -1.6678,4.8023 -1.714,5.1883 -1.714,6.9024 0,2.5941 1.8992,4.3081 4.8022,4.3081 2.0537,0 4.0302,-0.9883 6.1302,-2.9339 1.297,-1.2662 2.1464,-2.378 4.6787,-6.0684 l -1.9147,-1.2971 c -3.1964,4.8332 -5.4971,7.1647 -7.0876,7.1647 -0.6794,0 -1.297,-0.6793 -1.297,-1.5441 0,-0.5558 0.1853,-1.2353 0.7411,-3.0418 l 3.8913,-11.9671 c 0.4323,-1.3435 0.7411,-3.2735 0.7411,-4.6325 0,-3.2735 -2.4088,-5.6206 -5.7441,-5.6206 -4.3854,0 -8.3383,2.8566 -11.9207,8.7089 0.247,-1.1735 0.3705,-2.2235 0.3705,-2.9647 0,-3.2736 -2.6095,-5.7442 -5.9911,-5.7442 -3.9068,0 -6.7325,2.1773 -11.0716,8.3538 l 1.8067,-8.3538"
     id="path226"
     style="stroke-width:1.54413" />
  <path
     class="Fingering"
     d="m 3375.5867,2011.4727 c -2.0999,2.5324 -7.7824,4.4472 -13.4647,4.5707 v 2.6713 h 5.4199 c 3.5978,0.046 3.9529,0.4169 3.8448,3.8912 v 24.7525 c 0,3.15 0,3.2735 -0.3705,3.8295 -0.5096,0.6021 -1.6678,0.8647 -5.1421,0.8647 h -3.9993 v 2.9029 h 24.4591 v -2.9029 h -3.3971 c -3.4743,0 -4.6323,-0.2626 -5.1419,-0.8647 -0.4323,-0.556 -0.4323,-0.6332 -0.4323,-3.8295 v -25.5091 c 0,-3.4434 0.1543,-6.3618 0.4323,-10.3766 h -2.2082"
     id="path228"
     style="stroke-width:1.54413" />
  <metadata
     id="metadata463">
    <rdf:RDF>
      <cc:Work
         rdf:about="">
        <dc:title>une_poule_sur_un_mur</dc:title>
      </cc:Work>
    </rdf:RDF>
  </metadata>
</svg>
