<?xml version="1.0" encoding="UTF-8" standalone="no"?>
<svg
   width="297mm"
   height="210mm"
   viewBox="0 0 1122.5197 793.7008"
   version="1.2"
   id="svg120"
   sodipodi:docname="frere_jacques.svg"
   inkscape:version="1.3 (0e150ed6c4, 2023-07-21)"
   xmlns:inkscape="http://www.inkscape.org/namespaces/inkscape"
   xmlns:sodipodi="http://sodipodi.sourceforge.net/DTD/sodipodi-0.dtd"
   xmlns="http://www.w3.org/2000/svg"
   xmlns:svg="http://www.w3.org/2000/svg"
   xmlns:rdf="http://www.w3.org/1999/02/22-rdf-syntax-ns#"
   xmlns:cc="http://creativecommons.org/ns#"
   xmlns:dc="http://purl.org/dc/elements/1.1/">
  <defs
     id="defs120" />
  <sodipodi:namedview
     id="namedview120"
     pagecolor="#ffffff"
     bordercolor="#000000"
     borderopacity="0.25"
     inkscape:showpageshadow="2"
     inkscape:pageopacity="0.0"
     inkscape:pagecheckerboard="0"
     inkscape:deskcolor="#d1d1d1"
     inkscape:zoom="0.39653361"
     inkscape:cx="359.36424"
     inkscape:cy="325.31921"
     inkscape:window-width="1440"
     inkscape:window-height="872"
     inkscape:window-x="-8"
     inkscape:window-y="-8"
     inkscape:window-maximized="1"
     inkscape:current-layer="svg120"
     inkscape:document-units="mm" />
  <title
     id="title1">frere_jacques</title>
  <desc
     id="desc1">Generated by MuseScore Studio 4.3.0</desc>
  <polyline
     class="StaffLines"
     fill="none"
     stroke="#000000"
     stroke-width="2.73"
     stroke-linejoin="bevel"
     points="336.599,634.199 2764.6,634.199"
     id="polyline1"
     transform="matrix(0.42253731,0,0,0.42253731,-75.536056,4.60323)" />
  <polyline
     class="StaffLines"
     fill="none"
     stroke="#000000"
     stroke-width="2.73"
     stroke-linejoin="bevel"
     points="336.599,658.999 2764.6,658.999"
     id="polyline2"
     transform="matrix(0.42253731,0,0,0.42253731,-75.536056,4.60323)" />
  <polyline
     class="StaffLines"
     fill="none"
     stroke="#000000"
     stroke-width="2.73"
     stroke-linejoin="bevel"
     points="336.599,683.799 2764.6,683.799"
     id="polyline3"
     transform="matrix(0.42253731,0,0,0.42253731,-75.536056,4.60323)" />
  <polyline
     class="StaffLines"
     fill="none"
     stroke="#000000"
     stroke-width="2.73"
     stroke-linejoin="bevel"
     points="336.599,708.599 2764.6,708.599"
     id="polyline4"
     transform="matrix(0.42253731,0,0,0.42253731,-75.536056,4.60323)" />
  <polyline
     class="StaffLines"
     fill="none"
     stroke="#000000"
     stroke-width="2.73"
     stroke-linejoin="bevel"
     points="336.599,733.399 2764.6,733.399"
     id="polyline5"
     transform="matrix(0.42253731,0,0,0.42253731,-75.536056,4.60323)" />
  <polyline
     class="StaffLines"
     fill="none"
     stroke="#000000"
     stroke-width="2.73"
     stroke-linejoin="bevel"
     points="212.598,1316.2 2764.6,1316.2"
     id="polyline6"
     transform="matrix(0.42253731,0,0,0.42253731,-75.536056,4.60323)" />
  <polyline
     class="StaffLines"
     fill="none"
     stroke="#000000"
     stroke-width="2.73"
     stroke-linejoin="bevel"
     points="212.598,1341 2764.6,1341"
     id="polyline7"
     transform="matrix(0.42253731,0,0,0.42253731,-75.536056,4.60323)" />
  <polyline
     class="StaffLines"
     fill="none"
     stroke="#000000"
     stroke-width="2.73"
     stroke-linejoin="bevel"
     points="212.598,1365.8 2764.6,1365.8"
     id="polyline8"
     transform="matrix(0.42253731,0,0,0.42253731,-75.536056,4.60323)" />
  <polyline
     class="StaffLines"
     fill="none"
     stroke="#000000"
     stroke-width="2.73"
     stroke-linejoin="bevel"
     points="212.598,1390.6 2764.6,1390.6"
     id="polyline9"
     transform="matrix(0.42253731,0,0,0.42253731,-75.536056,4.60323)" />
  <polyline
     class="StaffLines"
     fill="none"
     stroke="#000000"
     stroke-width="2.73"
     stroke-linejoin="bevel"
     points="212.598,1415.4 2764.6,1415.4"
     id="polyline10"
     transform="matrix(0.42253731,0,0,0.42253731,-75.536056,4.60323)" />
  <path
     class="Text"
     d="m 431.18759,94.678044 h -27.6551 v 2.18536 h 0.83665 c 2.64932,0.0465 3.53241,0.18507 3.90002,0.65367 0.27884,0.4162 0.27884,0.50831 0.27884,2.878736 v 22.12364 c 0,2.37001 0,2.46255 -0.27884,2.88508 -0.36761,0.46226 -1.2507,0.64691 -3.90002,0.64691 h -0.83665 v 2.18536 h 15.94235 v -2.18536 h -1.52959 c -2.65776,0 -3.53242,-0.18465 -3.90845,-0.64691 -0.2789,-0.42253 -0.2789,-0.56113 -0.2789,-2.88508 v -10.55033 h 0.92959 c 4.78735,-0.18466 6.50285,1.53169 6.69723,6.69468 h 2.17605 v -15.24431 h -2.17605 c -0.28733,4.55538 -2.09577,6.31821 -6.51133,6.36426 H 413.7579 V 99.187364 c -0.0467,-1.95424 0.41411,-2.27748 2.92398,-2.32396 h 2.13803 c 7.62677,-0.046 9.53664,1.6703 10.97329,9.665546 h 2.04932 l -0.65493,-11.850906 m 11.89021,11.897386 -8.22683,0.51465 v 2.00071 h 1.90144 c 1.77043,0.0461 2.00283,0.32324 2.00283,2.32395 v 13.29007 c -0.0467,0.69972 -0.093,0.97691 -0.2789,1.20803 -0.32534,0.41621 -1.25494,0.60762 -3.25352,0.65367 h -0.18595 v 1.67029 h 12.40994 v -1.67029 h -0.83665 c -3.11831,-0.0989 -3.53236,-0.33 -3.53236,-2.00029 v -2.50903 c 0.0467,-7.81017 2.83098,-13.75866 6.45635,-13.94373 -0.64651,0.73944 -0.83241,1.20846 -0.83241,2.08649 0,1.49198 1.06905,2.56142 2.55633,2.56142 1.71555,0 2.83103,-1.25409 2.83103,-3.11621 0,-2.27748 -1.57609,-3.76312 -4.03947,-3.76312 -2.93241,0 -5.44228,2.32396 -6.97183,6.45679 v -5.7634 m 26.69168,-3.20199 -6.50285,-6.510036 c -1.162,-1.16198 -1.63103,-1.43915 -2.32398,-1.43915 -0.9296,0 -1.63098,0.69338 -1.63098,1.62422 0,0.65367 0.46899,1.34663 1.16194,1.81565 l 7.39442,4.509316 h 1.90145 m 5.99998,14.40556 c 0.0467,-6.97186 -3.90846,-11.89696 -9.5789,-11.89696 -5.94929,0 -10.41131,5.15622 -10.41131,12.12809 0,6.55609 4.2338,10.92682 10.50426,10.92682 4.46201,0 7.58032,-2.18537 9.48595,-6.60215 l -1.62673,-0.8848 c -1.90145,3.57847 -3.85777,4.97115 -6.97189,4.97115 -2.37043,0 -4.09016,-0.97014 -5.2986,-3.06338 -0.83664,-1.39269 -1.20844,-3.02368 -1.16199,-5.57877 h 15.05921 m -15.01271,-2.00029 c 0,-3.2548 1.48733,-7.90272 5.38736,-7.90272 2.79297,0 4.64791,2.46931 4.64791,6.23243 0,1.30057 -0.41411,1.67029 -1.90144,1.67029 h -8.13383 m 25.84236,-9.20328 -8.22677,0.51465 v 2.00071 h 1.90139 c 1.77042,0.0461 2.00282,0.32324 2.00282,2.32395 v 13.29007 c -0.0467,0.69972 -0.0929,0.97691 -0.27884,1.20803 -0.3254,0.41621 -1.25494,0.60762 -3.25358,0.65367 h -0.18589 v 1.67029 h 12.40993 v -1.67029 h -0.83664 c -3.11831,-0.0989 -3.53242,-0.33 -3.53242,-2.00029 v -2.50903 c 0.0467,-7.81017 2.83099,-13.75866 6.45635,-13.94373 -0.64645,0.73944 -0.83235,1.20846 -0.83235,2.08649 0,1.49198 1.06899,2.56142 2.55633,2.56142 1.71549,0 2.83098,-1.25409 2.83098,-3.11621 0,-2.27748 -1.57604,-3.76312 -4.03942,-3.76312 -2.93242,0 -5.44229,2.32396 -6.97189,6.45679 v -5.7634 m 32.69172,11.20357 c 0.0467,-6.97186 -3.90846,-11.89696 -9.5789,-11.89696 -5.94935,0 -10.41136,5.15622 -10.41136,12.12809 0,6.55609 4.23385,10.92682 10.5043,10.92682 4.46201,0 7.58033,-2.18537 9.48596,-6.60215 l -1.62679,-0.8848 c -1.90139,3.57847 -3.85776,4.97115 -6.97183,4.97115 -2.37043,0 -4.09017,-0.97014 -5.29866,-3.06338 -0.83658,-1.39269 -1.20843,-3.02368 -1.16194,-5.57877 h 15.05922 m -15.01276,-2.00029 c 0,-3.2548 1.48733,-7.90272 5.38736,-7.90272 2.79296,0 4.6479,2.46931 4.6479,6.23243 0,1.30057 -0.41405,1.67029 -1.90139,1.67029 h -8.13387 m 39.44811,-18.915306 h 0.84083 c 2.64509,0.0465 3.53242,0.18507 3.90003,0.65367 0.28308,0.4162 0.28308,0.50831 0.28308,2.878736 v 14.96712 c 0,4.08636 -0.13521,5.94849 -0.60424,7.38765 -0.88734,2.6079 -2.78872,4.001 -5.48874,4.001 -1.94789,0 -3.76057,-0.79225 -4.74086,-2.04677 -0.50705,-0.65366 -0.8789,-1.57775 -0.8789,-2.1393 0,-0.41578 0.2324,-0.74578 0.55774,-0.74578 h 0.13945 c 0.79015,0.1914 1.162,0.23746 1.71974,0.23746 1.67323,0 2.92817,-1.44592 2.92817,-3.34734 0,-1.95424 -1.44084,-3.34692 -3.48591,-3.34692 -2.69578,0 -4.64791,2.37002 -4.64791,5.67088 0,2.23184 1.02254,4.50932 2.70002,5.90242 1.57604,1.34705 3.71407,2.00072 6.50285,2.00072 4.13661,0 7.10703,-1.35382 8.73806,-3.95495 1.20844,-1.85494 1.71974,-4.64791 1.71974,-9.20329 v -15.3829 c 0,-2.370426 0,-2.462536 0.3211,-2.878736 0.32959,-0.4686 1.20844,-0.60719 3.86201,-0.65367 h 0.88734 v -2.18536 h -15.2536 v 2.18536 m 37.07339,16.406286 c 0,-2.92439 -0.51124,-4.41679 -1.86337,-5.53229 -1.5296,-1.25451 -3.80707,-1.85536 -6.78175,-1.85536 -5.25209,0 -9.06341,2.46255 -9.06341,5.85595 0,1.71676 1.06904,2.83269 2.69577,2.83269 1.48315,0 2.50569,-0.97733 2.50569,-2.37044 0,-0.60085 -0.22821,-1.25452 -0.69301,-1.90141 -0.28308,-0.33001 -0.32953,-0.42254 -0.32953,-0.65367 0,-0.93085 1.86337,-1.76917 4.09436,-1.76917 1.48308,0 3.11411,0.4686 3.85357,1.16198 0.88728,0.74578 1.20843,1.86171 1.20843,3.95453 v 1.80888 c -4.82961,0.83874 -6.36339,1.20846 -8.64087,2.09325 -4.04791,1.49198 -5.94935,3.62453 -5.94935,6.60215 0,3.34691 2.60282,5.44017 6.74368,5.44017 3.19864,0 6.08456,-1.30734 8.08737,-3.67777 0.73945,2.37043 1.90145,3.30128 4.08598,3.30128 2.09153,0 4.27606,-1.34704 4.27606,-2.69367 0,-0.32366 -0.18171,-0.56113 -0.46904,-0.56113 -0.18165,0 -0.3676,0.0528 -0.69296,0.1914 -0.65068,0.2772 -0.92958,0.32367 -1.30138,0.32367 -1.30568,0 -1.76624,-0.83873 -1.76624,-3.20875 v -9.34229 m -4.37325,5.67129 c 0,2.78621 -0.1352,3.43988 -0.92116,4.64791 -1.16194,1.71677 -3.25776,2.87875 -5.30284,2.87875 -2.13803,0 -3.67182,-1.5317 -3.67182,-3.62453 0,-1.9479 0.97605,-3.34734 3.01694,-4.31791 1.44508,-0.65366 3.25776,-1.11592 6.87888,-1.7231 v 2.13888 m 27.12265,2.46255 c -1.48309,3.34734 -3.06338,4.69439 -5.48031,4.69439 -3.71407,0 -6.03805,-3.3934 -6.03805,-8.82723 0,-5.6713 2.27748,-9.3947 5.70852,-9.3947 1.39857,0 2.60701,0.65367 2.60701,1.39945 0,0.13859 -0.0467,0.27761 -0.28309,0.5548 -0.73945,0.88478 -0.92535,1.34662 -0.92535,2.13888 0,1.53169 1.162,2.60156 2.78873,2.60156 1.67747,0 2.83947,-1.30099 2.83947,-3.15594 0,-3.16269 -3.11832,-5.5327 -7.25917,-5.5327 -6.03805,0 -10.36486,4.9251 -10.36486,11.89696 0,6.60215 3.95496,11.15795 9.71836,11.15795 4.13242,0 6.50284,-1.90818 8.50567,-6.83328 l -1.81693,-0.70014 m 23.59028,-14.8281 -2.18453,3.16227 c -1.86337,-2.60114 -4.13242,-3.85566 -7.06483,-3.85566 -5.67046,0 -9.95076,5.15622 -9.95076,12.03555 0,6.37144 4.00146,11.01936 9.44375,11.01936 2.87749,0 4.45353,-0.83874 6.3169,-3.39382 v 8.59609 c -0.0467,0.65367 -0.0929,0.93085 -0.27884,1.16198 -0.32959,0.41578 -1.20849,0.60761 -3.25358,0.65367 h -0.507 v 1.67029 h 12.0803 v -1.67029 h -0.1859 c -3.06762,-0.0925 -3.48592,-0.33 -3.48592,-2.0003 V 113.8773 c 0.0467,-2.65396 0.0467,-2.83904 0.0467,-3.34735 0.093,-0.88479 0.23239,-1.53845 0.73945,-3.95452 h -1.71549 m -8.83526,1.30056 c 1.86337,0 3.53242,1.2148 4.41975,3.16227 0.69719,1.53846 0.97604,3.16269 0.97604,5.85637 0,6.37102 -1.77042,9.52652 -5.39579,9.52652 -3.48592,0 -5.48031,-3.20198 -5.48031,-8.78074 0,-6.55567 1.81269,-9.76442 5.48031,-9.76442 m 32.46356,20.68447 8.46341,-0.32366 v -2.00029 h -1.16199 c -2.70002,-0.0925 -2.93241,-0.36972 -2.93241,-3.3934 v -16.26768 l -8.73383,0.51465 v 2.00071 h 2.37043 c 1.76199,0.0461 1.99439,0.32324 1.99439,2.32395 v 5.71059 c 0,4.04749 -0.97185,8.97259 -6.0888,8.97259 -1.43659,0 -2.64508,-0.50832 -3.25352,-1.43917 -0.6,-0.88479 -0.69295,-1.34705 -0.69295,-3.90213 v -14.18119 l -8.13382,0.51465 v 2.00071 h 1.76194 c 1.77042,0.0461 2.00282,0.32324 2.00282,2.32395 V 121.45 c 0,2.37002 0.18171,3.43946 0.88315,4.50933 1.25493,1.90775 3.48591,2.97762 6.27044,2.97762 3.07182,0 5.20984,-1.25452 7.25074,-4.23214 v 3.85565 M 681.54537,117.779 c 0.0467,-6.97186 -3.90843,-11.89696 -9.57888,-11.89696 -5.94934,0 -10.41135,5.15622 -10.41135,12.12809 0,6.55609 4.23385,10.92682 10.50431,10.92682 4.462,0 7.58031,-2.18537 9.48592,-6.60215 l -1.62679,-0.8848 c -1.90136,3.57847 -3.85773,4.97115 -6.97181,4.97115 -2.37042,0 -4.09015,-0.97014 -5.29859,-3.06338 -0.83665,-1.39269 -1.2085,-3.02368 -1.162,-5.57877 h 15.05919 m -15.01274,-2.00029 c 0,-3.2548 1.48734,-7.90272 5.38737,-7.90272 2.79296,0 4.6479,2.46931 4.6479,6.23243 0,1.30057 -0.41405,1.67029 -1.90139,1.67029 h -8.13388 m 34.76636,-9.71159 h -1.6268 l -1.34789,1.67028 c -1.67324,-1.30056 -3.3464,-1.85536 -5.67041,-1.85536 -4.09021,0 -6.7902,2.64762 -6.7902,6.74074 0,4.36397 2.83948,5.47988 6.55782,6.36468 l 2.46342,0.56113 c 3.66763,0.87803 4.969,1.80888 4.969,3.67058 0,2.18536 -1.90142,3.71706 -4.60141,3.71706 -3.94653,0 -6.73529,-2.50861 -7.85073,-7.15651 h -1.85917 v 8.78074 h 1.62252 l 1.63099,-1.90142 c 1.90143,1.53171 3.99298,2.27791 6.36335,2.27791 4.55496,0 7.58037,-2.83903 7.58037,-7.1637 0,-2.04002 -0.65496,-3.62452 -1.95206,-4.69397 -1.1156,-0.97056 -2.04938,-1.34662 -4.88031,-1.94747 l -2.324,-0.51508 c -2.55631,-0.55479 -2.55631,-0.55479 -3.39301,-1.02338 -1.02247,-0.46226 -1.62679,-1.43916 -1.62679,-2.46256 0,-1.90141 1.76628,-3.20198 4.31839,-3.20198 3.81551,0 5.67049,2.69368 6.79012,5.94849 h 1.6268 v -7.81018"
     id="path10"
     style="stroke-width:0.422537" />
  <path
     class="MeasureNumber"
     d="m 16.189604,533.31991 c -0.52817,0.31692 -0.68028,0.51973 -0.68028,0.8578 0,0.32111 0.27084,0.56194 0.6076,0.56194 0.4424,0 0.69297,-0.32535 0.74578,-0.95069 0.52184,-0.42255 1.08296,-0.60844 1.75649,-0.60844 1.25409,0 1.94747,0.77747 1.94747,2.18029 0,2.1972 -1.4193,3.98454 -3.16226,3.98454 -0.99719,0 -1.80931,-0.46904 -1.80931,-1.02679 0,-0.10143 0.0199,-0.1352 0.0993,-0.18595 0.54126,-0.2535 0.98366,-0.43521 0.98366,-1.14926 0,-0.54088 -0.42254,-0.9465 -1.01662,-0.9465 -0.73945,0 -1.30058,0.62116 -1.30058,1.43664 0,1.49153 1.28706,2.56481 3.09636,2.56481 2.73297,0 4.9513,-2.1761 4.9513,-4.87611 0,-1.71125 -1.30058,-2.91127 -3.14242,-2.91127 -0.73268,0 -1.32043,0.15213 -2.13255,0.55775 l 0.94396,-3.1944 c 0.89789,0.18595 1.61113,0.27041 2.21831,0.27041 1.11593,0 2.1127,-0.35488 2.66749,-0.9422 0.29028,-0.33808 0.45549,-0.6296 0.45549,-0.84508 0,-0.10567 -0.0528,-0.20705 -0.11873,-0.20705 -0.0465,0 -0.0858,0.0212 -0.18507,0.0676 -0.55438,0.27042 -1.26762,0.42254 -1.92761,0.42254 -1.01029,0 -2.21199,-0.1648 -3.45974,-0.49014 l -1.53804,5.42956"
     id="path11"
     style="stroke-width:0.422537" />
  <polyline
     class="BarLine"
     fill="none"
     stroke="#000000"
     stroke-width="4.46"
     stroke-linejoin="bevel"
     points="1693.06,1314.84 1693.06,1416.76"
     id="polyline11"
     transform="matrix(0.42253731,0,0,0.42253731,-75.536056,4.60323)" />
  <polyline
     class="BarLine"
     fill="none"
     stroke="#000000"
     stroke-width="4.46"
     stroke-linejoin="bevel"
     points="2216.31,1314.84 2216.31,1416.76"
     id="polyline12"
     transform="matrix(0.42253731,0,0,0.42253731,-75.536056,4.60323)" />
  <polyline
     class="BarLine"
     fill="none"
     stroke="#000000"
     stroke-width="4.46"
     stroke-linejoin="bevel"
     points="2739.55,1314.84 2739.55,1416.76"
     id="polyline13"
     transform="matrix(0.42253731,0,0,0.42253731,-75.536056,4.60323)" />
  <polyline
     class="BarLine"
     fill="none"
     stroke="#000000"
     stroke-width="13.64"
     stroke-linejoin="bevel"
     points="2757.78,1314.84 2757.78,1416.76"
     id="polyline14"
     transform="matrix(0.42253731,0,0,0.42253731,-75.536056,4.60323)" />
  <polyline
     class="BarLine"
     fill="none"
     stroke="#000000"
     stroke-width="4.46"
     stroke-linejoin="bevel"
     points="1101.63,632.835 1101.63,734.763"
     id="polyline15"
     transform="matrix(0.42253731,0,0,0.42253731,-75.536056,4.60323)" />
  <polyline
     class="BarLine"
     fill="none"
     stroke="#000000"
     stroke-width="4.46"
     stroke-linejoin="bevel"
     points="1702.2,632.835 1702.2,734.763"
     id="polyline16"
     transform="matrix(0.42253731,0,0,0.42253731,-75.536056,4.60323)" />
  <polyline
     class="BarLine"
     fill="none"
     stroke="#000000"
     stroke-width="4.46"
     stroke-linejoin="bevel"
     points="2762.37,632.835 2762.37,734.763"
     id="polyline17"
     transform="matrix(0.42253731,0,0,0.42253731,-75.536056,4.60323)" />
  <polyline
     class="BarLine"
     fill="none"
     stroke="#000000"
     stroke-width="4.46"
     stroke-linejoin="bevel"
     points="2232.28,632.835 2232.28,734.763"
     id="polyline18"
     transform="matrix(0.42253731,0,0,0.42253731,-75.536056,4.60323)" />
  <polyline
     class="BarLine"
     fill="none"
     stroke="#000000"
     stroke-width="4.46"
     stroke-linejoin="bevel"
     points="1007.63,1314.84 1007.63,1416.76"
     id="polyline19"
     transform="matrix(0.42253731,0,0,0.42253731,-75.536056,4.60323)" />
  <polyline
     class="Stem"
     fill="none"
     stroke="#000000"
     stroke-width="2.48"
     stroke-linejoin="bevel"
     points="989.424,704.631 989.424,621.799"
     id="polyline20"
     transform="matrix(0.42253731,0,0,0.42253731,-75.536056,4.60323)" />
  <polyline
     class="Stem"
     fill="none"
     stroke="#000000"
     stroke-width="2.48"
     stroke-linejoin="bevel"
     points="450.594,1332.77 450.594,1417.48"
     id="polyline21"
     transform="matrix(0.42253731,0,0,0.42253731,-75.536056,4.60323)" />
  <polyline
     class="Stem"
     fill="none"
     stroke="#000000"
     stroke-width="2.48"
     stroke-linejoin="bevel"
     points="1167.09,704.631 1167.09,621.799"
     id="polyline22"
     transform="matrix(0.42253731,0,0,0.42253731,-75.536056,4.60323)" />
  <polyline
     class="Stem"
     fill="none"
     stroke="#000000"
     stroke-width="2.48"
     stroke-linejoin="bevel"
     points="728.618,1369.97 728.618,1440.2"
     id="polyline23"
     transform="matrix(0.42253731,0,0,0.42253731,-75.536056,4.60323)" />
  <polyline
     class="Stem"
     fill="none"
     stroke="#000000"
     stroke-width="2.48"
     stroke-linejoin="bevel"
     points="1582.81,1386.63 1582.81,1303.8"
     id="polyline24"
     transform="matrix(0.42253731,0,0,0.42253731,-75.536056,4.60323)" />
  <polyline
     class="Stem"
     fill="none"
     stroke="#000000"
     stroke-width="2.48"
     stroke-linejoin="bevel"
     points="1308.06,692.231 1308.06,615.599"
     id="polyline25"
     transform="matrix(0.42253731,0,0,0.42253731,-75.536056,4.60323)" />
  <polyline
     class="Stem"
     fill="none"
     stroke="#000000"
     stroke-width="2.48"
     stroke-linejoin="bevel"
     points="2549.93,663.165 2549.93,745.799"
     id="polyline26"
     transform="matrix(0.42253731,0,0,0.42253731,-75.536056,4.60323)" />
  <polyline
     class="Stem"
     fill="none"
     stroke="#000000"
     stroke-width="2.48"
     stroke-linejoin="bevel"
     points="566.526,704.631 566.526,621.799"
     id="polyline27"
     transform="matrix(0.42253731,0,0,0.42253731,-75.536056,4.60323)" />
  <polyline
     class="Stem"
     fill="none"
     stroke="#000000"
     stroke-width="2.48"
     stroke-linejoin="bevel"
     points="1419.27,687.965 1419.27,758.199"
     id="polyline28"
     transform="matrix(0.42253731,0,0,0.42253731,-75.536056,4.60323)" />
  <polyline
     class="Stem"
     fill="none"
     stroke="#000000"
     stroke-width="2.48"
     stroke-linejoin="bevel"
     points="357.919,1345.17 357.919,1415.43"
     id="polyline29"
     transform="matrix(0.42253731,0,0,0.42253731,-75.536056,4.60323)" />
  <polyline
     class="Stem"
     fill="none"
     stroke="#000000"
     stroke-width="2.48"
     stroke-linejoin="bevel"
     points="1321.37,1357.57 1321.37,1421.57"
     id="polyline30"
     transform="matrix(0.42253731,0,0,0.42253731,-75.536056,4.60323)" />
  <polyline
     class="Stem"
     fill="none"
     stroke="#000000"
     stroke-width="2.48"
     stroke-linejoin="bevel"
     points="1589.99,704.631 1589.99,621.799"
     id="polyline31"
     transform="matrix(0.42253731,0,0,0.42253731,-75.536056,4.60323)" />
  <polyline
     class="Stem"
     fill="none"
     stroke="#000000"
     stroke-width="2.48"
     stroke-linejoin="bevel"
     points="635.943,1357.57 635.943,1421.57"
     id="polyline32"
     transform="matrix(0.42253731,0,0,0.42253731,-75.536056,4.60323)" />
  <polyline
     class="Stem"
     fill="none"
     stroke="#000000"
     stroke-width="2.48"
     stroke-linejoin="bevel"
     points="1228.7,1345.17 1228.7,1419.52"
     id="polyline33"
     transform="matrix(0.42253731,0,0,0.42253731,-75.536056,4.60323)" />
  <polyline
     class="Stem"
     fill="none"
     stroke="#000000"
     stroke-width="2.48"
     stroke-linejoin="bevel"
     points="2281.77,1386.63 2281.77,1303.8"
     id="polyline34"
     transform="matrix(0.42253731,0,0,0.42253731,-75.536056,4.60323)" />
  <polyline
     class="Stem"
     fill="none"
     stroke="#000000"
     stroke-width="2.48"
     stroke-linejoin="bevel"
     points="2036.55,1386.63 2036.55,1303.8"
     id="polyline35"
     transform="matrix(0.42253731,0,0,0.42253731,-75.536056,4.60323)" />
  <polyline
     class="Stem"
     fill="none"
     stroke="#000000"
     stroke-width="2.48"
     stroke-linejoin="bevel"
     points="1737.91,687.965 1737.91,758.199"
     id="polyline36"
     transform="matrix(0.42253731,0,0,0.42253731,-75.536056,4.60323)" />
  <polyline
     class="Stem"
     fill="none"
     stroke="#000000"
     stroke-width="2.48"
     stroke-linejoin="bevel"
     points="543.268,1345.17 543.268,1419.52"
     id="polyline37"
     transform="matrix(0.42253731,0,0,0.42253731,-75.536056,4.60323)" />
  <polyline
     class="Stem"
     fill="none"
     stroke="#000000"
     stroke-width="2.48"
     stroke-linejoin="bevel"
     points="1136.02,1332.77 1136.02,1417.48"
     id="polyline38"
     transform="matrix(0.42253731,0,0,0.42253731,-75.536056,4.60323)" />
  <polyline
     class="Stem"
     fill="none"
     stroke="#000000"
     stroke-width="2.48"
     stroke-linejoin="bevel"
     points="1897.54,1423.83 1897.54,1341"
     id="polyline39"
     transform="matrix(0.42253731,0,0,0.42253731,-75.536056,4.60323)" />
  <polyline
     class="Stem"
     fill="none"
     stroke="#000000"
     stroke-width="2.48"
     stroke-linejoin="bevel"
     points="707.492,692.231 707.492,615.599"
     id="polyline40"
     transform="matrix(0.42253731,0,0,0.42253731,-75.536056,4.60323)" />
  <polyline
     class="Stem"
     fill="none"
     stroke="#000000"
     stroke-width="2.48"
     stroke-linejoin="bevel"
     points="1043.35,1345.17 1043.35,1415.43"
     id="polyline41"
     transform="matrix(0.42253731,0,0,0.42253731,-75.536056,4.60323)" />
  <polyline
     class="Stem"
     fill="none"
     stroke="#000000"
     stroke-width="2.48"
     stroke-linejoin="bevel"
     points="2019.84,663.165 2019.84,745.799"
     id="polyline42"
     transform="matrix(0.42253731,0,0,0.42253731,-75.536056,4.60323)" />
  <polyline
     class="Stem"
     fill="none"
     stroke="#000000"
     stroke-width="2.48"
     stroke-linejoin="bevel"
     points="897.382,1386.63 897.382,1303.8"
     id="polyline43"
     transform="matrix(0.42253731,0,0,0.42253731,-75.536056,4.60323)" />
  <polyline
     class="Stem"
     fill="none"
     stroke="#000000"
     stroke-width="2.48"
     stroke-linejoin="bevel"
     points="1758.53,1386.63 1758.53,1303.8"
     id="polyline44"
     transform="matrix(0.42253731,0,0,0.42253731,-75.536056,4.60323)" />
  <polyline
     class="Stem"
     fill="none"
     stroke="#000000"
     stroke-width="2.48"
     stroke-linejoin="bevel"
     points="1414.05,1369.97 1414.05,1440.2"
     id="polyline45"
     transform="matrix(0.42253731,0,0,0.42253731,-75.536056,4.60323)" />
  <polyline
     class="Stem"
     fill="none"
     stroke="#000000"
     stroke-width="2.48"
     stroke-linejoin="bevel"
     points="818.706,687.965 818.706,758.199"
     id="polyline46"
     transform="matrix(0.42253731,0,0,0.42253731,-75.536056,4.60323)" />
  <polyline
     class="Stem"
     fill="none"
     stroke="#000000"
     stroke-width="2.48"
     stroke-linejoin="bevel"
     points="2408.96,675.565 2408.96,751.999"
     id="polyline47"
     transform="matrix(0.42253731,0,0,0.42253731,-75.536056,4.60323)" />
  <polyline
     class="Stem"
     fill="none"
     stroke="#000000"
     stroke-width="2.48"
     stroke-linejoin="bevel"
     points="2268,687.965 2268,758.199"
     id="polyline48"
     transform="matrix(0.42253731,0,0,0.42253731,-75.536056,4.60323)" />
  <polyline
     class="Stem"
     fill="none"
     stroke="#000000"
     stroke-width="2.48"
     stroke-linejoin="bevel"
     points="2420.78,1423.83 2420.78,1341"
     id="polyline49"
     transform="matrix(0.42253731,0,0,0.42253731,-75.536056,4.60323)" />
  <polyline
     class="Stem"
     fill="none"
     stroke="#000000"
     stroke-width="2.48"
     stroke-linejoin="bevel"
     points="2559.8,1386.63 2559.8,1303.8"
     id="polyline50"
     transform="matrix(0.42253731,0,0,0.42253731,-75.536056,4.60323)" />
  <polyline
     class="Stem"
     fill="none"
     stroke="#000000"
     stroke-width="2.48"
     stroke-linejoin="bevel"
     points="1878.88,675.565 1878.88,751.999"
     id="polyline51"
     transform="matrix(0.42253731,0,0,0.42253731,-75.536056,4.60323)" />
  <path
     class="Note"
     d="m 329.43718,305.77452 c 0,1.80107 1.29678,3.81172 4.6959,3.81172 4.35533,0 8.92673,-3.56284 8.92673,-7.25012 0,-2.47565 -2.09578,-3.85755 -4.69584,-3.85755 -4.06716,0 -8.92679,3.43839 -8.92679,7.29595"
     id="path51"
     style="stroke-width:0.419157" />
  <path
     class="Note"
     d="m 404.50859,305.77452 c 0,1.80107 1.29677,3.81172 4.69584,3.81172 4.35537,0 8.92672,-3.56284 8.92672,-7.25012 0,-2.47565 -2.09577,-3.85755 -4.69584,-3.85755 -4.0671,0 -8.92672,3.43839 -8.92672,7.29595"
     id="path52"
     style="stroke-width:0.419157" />
  <path
     class="Note"
     d="m 464.07363,300.53506 c 0,1.80106 1.29677,3.81172 4.69589,3.81172 4.35533,0 8.92673,-3.56285 8.92673,-7.25013 0,-2.47564 -2.09577,-3.85755 -4.69584,-3.85755 -4.0671,0 -8.92678,3.4384 -8.92678,7.29596"
     id="path53"
     style="stroke-width:0.419157" />
  <path
     class="Note"
     d="m 523.63449,295.2956 c 0,1.80106 1.29678,3.81171 4.69589,3.81171 4.35533,0 8.92673,-3.56284 8.92673,-7.25012 0,-2.47564 -2.09577,-3.85755 -4.69585,-3.85755 -4.06709,0 -8.92677,3.43839 -8.92677,7.29596"
     id="path54"
     style="stroke-width:0.419157" />
  <path
     class="Note"
     d="m 583.19959,305.77452 c 0,1.80107 1.29677,3.81172 4.69589,3.81172 4.35533,0 8.92673,-3.56284 8.92673,-7.25012 0,-2.47565 -2.09578,-3.85755 -4.6959,-3.85755 -4.06709,0 -8.92672,3.43839 -8.92672,7.29595"
     id="path55"
     style="stroke-width:0.419157" />
  <path
     class="Note"
     d="m 658.27179,295.2956 c 0,1.80106 1.29677,3.81171 4.69589,3.81171 4.35532,0 8.92672,-3.56284 8.92672,-7.25012 0,-2.47564 -2.09577,-3.85755 -4.69589,-3.85755 -4.06705,0 -8.92672,3.43839 -8.92672,7.29596"
     id="path56"
     style="stroke-width:0.419157" />
  <path
     class="Note"
     d="m 717.83689,290.05613 c 0,1.80106 1.29679,3.81173 4.69588,3.81173 4.35535,0 8.92677,-3.56285 8.92677,-7.25013 0,-2.47565 -2.09582,-3.85755 -4.69596,-3.85755 -4.06703,0 -8.92669,3.43839 -8.92669,7.29595"
     id="path57"
     style="stroke-width:0.419157" />
  <path
     class="Note"
     d="m 786.32445,277.52071 c -4.06711,0 -8.92669,3.3991 -8.92669,7.29596 0,1.80106 1.29679,3.81172 4.69588,3.81172 4.35535,0 8.92669,-3.56284 8.92669,-7.25012 0,-2.47565 -2.09582,-3.85756 -4.69588,-3.85756 m -5.78307,9.13632 c -1.38184,0 -1.67665,-1.12648 -1.67665,-1.50634 0,-2.0565 7.04062,-5.65864 9.01191,-5.65864 1.00862,0 1.67664,0.58944 1.67664,1.50636 0,2.09578 -7.08635,5.65862 -9.0119,5.65862"
     id="path58"
     style="stroke-width:0.419157" />
  <path
     class="Note"
     d="m 882.25459,295.2956 c 0,1.80106 1.2967,3.81171 4.6959,3.81171 4.3554,0 8.9267,-3.56284 8.9267,-7.25012 0,-2.47564 -2.0957,-3.85755 -4.6958,-3.85755 -4.0671,0 -8.9268,3.43839 -8.9268,7.29596"
     id="path59"
     style="stroke-width:0.419157" />
  <path
     class="Note"
     d="m 941.81539,290.05613 c 0,1.80106 1.2968,3.81173 4.696,3.81173 4.3553,0 8.9267,-3.56285 8.9267,-7.25013 0,-2.47565 -2.0958,-3.85755 -4.6958,-3.85755 -4.0671,0 -8.9269,3.43839 -8.9269,7.29595"
     id="path60"
     style="stroke-width:0.419157" />
  <path
     class="Note"
     d="m 1010.3073,277.52071 c -4.0672,0 -8.9267,3.3991 -8.9267,7.29596 0,1.80106 1.2968,3.81172 4.6958,3.81172 4.3554,0 8.9267,-3.56284 8.9267,-7.25012 0,-2.47565 -2.0957,-3.85756 -4.6958,-3.85756 m -5.7831,9.13632 c -1.3819,0 -1.6766,-1.12648 -1.6766,-1.50634 0,-2.0565 7.0406,-5.65864 9.0118,-5.65864 1.0088,0 1.6767,0.58944 1.6767,1.50636 0,2.09578 -7.0863,5.65862 -9.0119,5.65862"
     id="path61"
     style="stroke-width:0.419157" />
  <path
     class="Note"
     d="m 75.174124,572.98754 c 0,1.80108 1.29677,3.8117 4.69586,3.8117 4.35535,0 8.92675,-3.56286 8.92675,-7.25011 0,-2.47562 -2.09578,-3.85755 -4.69585,-3.85755 -4.06714,0 -8.92676,3.43841 -8.92676,7.29596"
     id="path62"
     style="stroke-width:0.419157" />
  <path
     class="Note"
     d="m 290.54602,593.94536 c 0,1.80107 1.29677,3.81175 4.69589,3.81175 4.35533,0 8.92672,-3.56286 8.92672,-7.25011 0,-2.47567 -2.09577,-3.85755 -4.69584,-3.85755 -4.06715,0 -8.92677,3.43836 -8.92677,7.29591"
     id="path63"
     style="stroke-width:0.419157" />
  <path
     class="Note"
     d="m 114.33277,567.74807 c 0,1.80106 1.29677,3.81168 4.69586,3.81168 4.35534,0 8.92675,-3.56279 8.92675,-7.25009 0,-2.47563 -2.09579,-3.85755 -4.69586,-3.85755 -4.06713,0 -8.92675,3.43841 -8.92675,7.29596"
     id="path64"
     style="stroke-width:0.419157" />
  <path
     class="Note"
     d="m 153.49099,572.98754 c 0,1.80108 1.29677,3.8117 4.69585,3.8117 4.35533,0 8.92678,-3.56286 8.92678,-7.25011 0,-2.47562 -2.09582,-3.85755 -4.69589,-3.85755 -4.0671,0 -8.92674,3.43841 -8.92674,7.29596"
     id="path65"
     style="stroke-width:0.419157" />
  <path
     class="Note"
     d="m 192.64961,578.22697 c 0,1.80107 1.29678,3.81174 4.6959,3.81174 4.35532,0 8.92672,-3.56285 8.92672,-7.25009 0,-2.47568 -2.09577,-3.85756 -4.69584,-3.85756 -4.06715,0 -8.92678,3.43836 -8.92678,7.29591"
     id="path66"
     style="stroke-width:0.419157" />
  <path
     class="Note"
     d="m 231.80828,583.46645 c 0,1.80108 1.29677,3.81169 4.69584,3.81169 4.35533,0 8.92678,-3.5628 8.92678,-7.2501 0,-2.47562 -2.09578,-3.85755 -4.6959,-3.85755 -4.06709,0 -8.92672,3.43841 -8.92672,7.29596"
     id="path67"
     style="stroke-width:0.419157" />
  <path
     class="Note"
     d="m 364.79429,572.98754 c 0,1.80108 1.29678,3.8117 4.69584,3.8117 4.35538,0 8.92678,-3.56286 8.92678,-7.25011 0,-2.47562 -2.09583,-3.85755 -4.69589,-3.85755 -4.0671,0 -8.92673,3.43841 -8.92673,7.29596"
     id="path68"
     style="stroke-width:0.419157" />
  <path
     class="Note"
     d="m 403.95084,567.74807 c 0,1.80106 1.29672,3.81168 4.69584,3.81168 4.35532,0 8.92672,-3.56279 8.92672,-7.25009 0,-2.47563 -2.09577,-3.85755 -4.69584,-3.85755 -4.0671,0 -8.92672,3.43841 -8.92672,7.29596"
     id="path69"
     style="stroke-width:0.419157" />
  <path
     class="Note"
     d="m 443.11157,572.98754 c 0,1.80108 1.29678,3.8117 4.6959,3.8117 4.35533,0 8.92672,-3.56286 8.92672,-7.25011 0,-2.47562 -2.09577,-3.85755 -4.69589,-3.85755 -4.0671,0 -8.92673,3.43841 -8.92673,7.29596"
     id="path70"
     style="stroke-width:0.419157" />
  <path
     class="Note"
     d="m 482.26812,578.22697 c 0,1.80107 1.29677,3.81174 4.69584,3.81174 4.35538,0 8.92673,-3.56285 8.92673,-7.25009 0,-2.47568 -2.09578,-3.85756 -4.69584,-3.85756 -4.06711,0 -8.92673,3.43836 -8.92673,7.29591"
     id="path71"
     style="stroke-width:0.419157" />
  <path
     class="Note"
     d="m 521.42885,583.46645 c 0,1.80108 1.29678,3.81169 4.6959,3.81169 4.35533,0 8.92672,-3.5628 8.92672,-7.2501 0,-2.47562 -2.09577,-3.85755 -4.69589,-3.85755 -4.06704,0 -8.92673,3.43841 -8.92673,7.29596"
     id="path72"
     style="stroke-width:0.419157" />
  <path
     class="Note"
     d="m 580.1658,593.94536 c 0,1.80107 1.29677,3.81175 4.69584,3.81175 4.35533,0 8.92672,-3.56286 8.92672,-7.25011 0,-2.47567 -2.09577,-3.85755 -4.69584,-3.85755 -4.0671,0 -8.92672,3.43836 -8.92672,7.29591"
     id="path73"
     style="stroke-width:0.419157" />
  <path
     class="Note"
     d="m 654.40983,593.94536 c 0,1.80107 1.29672,3.81175 4.69584,3.81175 4.35533,0 8.92672,-3.56286 8.92672,-7.25011 0,-2.47567 -2.09577,-3.85755 -4.69583,-3.85755 -4.0671,0 -8.92673,3.43836 -8.92673,7.29591"
     id="path74"
     style="stroke-width:0.419157" />
  <path
     class="Note"
     d="m 713.15098,609.66375 c 0,1.80107 1.29678,3.81174 4.6958,3.81174 4.35543,0 8.92677,-3.56285 8.92677,-7.2501 0,-2.47568 -2.09582,-3.85755 -4.69588,-3.85755 -4.06711,0 -8.92669,3.43836 -8.92669,7.29591"
     id="path75"
     style="stroke-width:0.419157" />
  <path
     class="Note"
     d="m 780.81458,586.64945 c -4.06711,0 -8.92677,3.39907 -8.92677,7.29591 0,1.80107 1.29679,3.81175 4.69596,3.81175 4.35527,0 8.92669,-3.56286 8.92669,-7.25011 0,-2.47567 -2.09574,-3.85755 -4.69588,-3.85755 m -5.783,9.13627 c -1.38191,0 -1.67664,-1.12647 -1.67664,-1.50632 0,-2.05648 7.04046,-5.65862 9.01182,-5.65862 1.00863,0 1.67665,0.58945 1.67665,1.50632 0,2.09582 -7.08635,5.65862 -9.01183,5.65862"
     id="path76"
     style="stroke-width:0.419157" />
  <path
     class="Note"
     d="m 875.50249,593.94536 c 0,1.80107 1.2968,3.81175 4.6958,3.81175 4.3554,0 8.9268,-3.56286 8.9268,-7.25011 0,-2.47567 -2.0958,-3.85755 -4.6959,-3.85755 -4.067,0 -8.9267,3.43836 -8.9267,7.29591"
     id="path77"
     style="stroke-width:0.419157" />
  <path
     class="Note"
     d="m 150.74703,305.77452 c 0,1.80107 1.29677,3.81172 4.69587,3.81172 4.35535,0 8.92675,-3.56284 8.92675,-7.25012 0,-2.47565 -2.09577,-3.85755 -4.69584,-3.85755 -4.06716,0 -8.92678,3.43839 -8.92678,7.29595"
     id="path78"
     style="stroke-width:0.419157" />
  <path
     class="Note"
     d="m 934.23939,609.66375 c 0,1.80107 1.2968,3.81174 4.6959,3.81174 4.3553,0 8.9267,-3.56285 8.9267,-7.2501 0,-2.47568 -2.0958,-3.85755 -4.6959,-3.85755 -4.0671,0 -8.9267,3.43836 -8.9267,7.29591"
     id="path79"
     style="stroke-width:0.419157" />
  <path
     class="Note"
     d="m 210.31043,300.53506 c 0,1.80106 1.29677,3.81172 4.69584,3.81172 4.35533,0 8.92678,-3.56285 8.92678,-7.25013 0,-2.47564 -2.09578,-3.85755 -4.6959,-3.85755 -4.06709,0 -8.92672,3.4384 -8.92672,7.29596"
     id="path80"
     style="stroke-width:0.419157" />
  <path
     class="Note"
     d="m 1001.9031,586.64945 c -4.06711,0 -8.92681,3.39907 -8.92681,7.29591 0,1.80107 1.2967,3.81175 4.6959,3.81175 4.35531,0 8.92671,-3.56286 8.92671,-7.25011 0,-2.47567 -2.0958,-3.85755 -4.6958,-3.85755 m -5.78311,9.13627 c -1.3819,0 -1.6766,-1.12647 -1.6766,-1.50632 0,-2.05648 7.04041,-5.65862 9.01191,-5.65862 1.0086,0 1.6765,0.58945 1.6765,1.50632 0,2.09582 -7.08631,5.65862 -9.01181,5.65862"
     id="path81"
     style="stroke-width:0.419157" />
  <path
     class="Note"
     d="m 269.87384,295.2956 c 0,1.80106 1.29677,3.81171 4.69584,3.81171 4.35532,0 8.92677,-3.56284 8.92677,-7.25012 0,-2.47564 -2.09582,-3.85755 -4.69589,-3.85755 -4.0671,0 -8.92672,3.43839 -8.92672,7.29596"
     id="path82"
     style="stroke-width:0.419157" />
  <path
     class="Clef"
     d="m 48.979794,592.05919 c 0,-6.28737 -4.48629,-10.56407 -10.60338,-10.56407 -0.41916,-2.51496 -0.799,-5.02987 -1.1723,-7.33525 4.40115,-4.65659 7.49898,-9.93531 7.49898,-16.55677 0,-3.85756 -1.17235,-6.91606 -1.88621,-8.4288 -1.00204,-2.13521 -2.22024,-3.64838 -2.93411,-3.64838 -0.28816,0 -1.63077,0.55038 -2.97341,2.18136 -2.72453,3.1893 -3.47767,8.50736 -3.47767,12.03093 0,2.26607 0.20959,4.31598 0.92345,9.05769 -0.0459,0 -2.22677,2.22026 -3.10441,2.97345 -3.81823,3.52351 -9.09702,8.63197 -9.09702,16.97588 0,7.87889 6.83097,14.04181 14.63124,14.04181 1.21162,0 2.34464,-0.1245 3.35326,-0.29476 0.75314,4.02781 1.25747,6.96193 1.25747,9.18214 0,4.3619 -2.26609,6.66727 -6.45767,6.66727 -1.04788,0 -1.92547,-0.2096 -1.97133,-0.25546 -0.0786,0 -0.16372,-0.0393 -0.16372,-0.0786 0,-0.0851 0.0851,-0.13096 0.20958,-0.17031 1.97133,-0.2947 3.93614,-1.97132 3.93614,-4.64997 0,-2.26613 -1.71595,-4.6566 -4.85963,-4.6566 -2.89479,0 -4.781,2.39047 -4.781,5.15432 0,2.77038 2.09579,6.41834 7.75441,6.41834 5.40974,0 8.04913,-3.06508 8.04913,-8.429 0,-1.63077 -0.24885,-3.51694 -0.66802,-5.90746 -0.12445,-0.83829 -0.33402,-2.14164 -0.62873,-3.73317 4.1064,-1.38192 7.16495,-5.61928 7.16495,-9.97461 m -12.90875,-34.33165 c 0.41916,-1.67662 2.30537,-6.07776 4.48632,-6.07776 0.62875,0 1.67664,2.01067 1.67664,4.94473 0,4.31603 -3.26814,7.5907 -6.16296,10.47896 -0.24885,-1.67664 -0.45843,-3.35326 -0.45843,-5.06918 0,-1.59152 0.16372,-2.97997 0.45843,-4.27675 m 1.25747,43.34353 c -5.99261,0 -11.10766,-4.19159 -11.10766,-10.52477 0,-5.10852 3.648,-9.67991 7.29597,-12.90872 0.70733,-0.5895 1.38193,-1.21825 2.01066,-1.80108 0.3733,2.25946 0.71387,4.19155 0.96272,5.95333 -3.81823,1.08718 -6.41177,5.15433 -6.41177,9.05117 0,2.97998 2.30537,7.00126 5.65863,7.00126 0.33398,0 0.71386,-0.17025 0.71386,-0.5894 0,-0.33409 -0.37988,-0.58293 -0.92344,-0.91697 -1.63735,-0.96931 -2.5608,-2.09577 -2.5608,-4.11296 0,-2.55426 1.93207,-4.6108 4.36183,-5.19361 l 2.42982,13.747 c -0.83832,0.2096 -1.5915,0.29475 -2.42982,0.29475 m 4.19158,-0.79905 c -0.87759,-4.98401 -2.01061,-11.65124 -2.30537,-13.49817 4.2309,0 6.03852,2.93411 6.41181,4.95131 0.0459,0.33403 0.12445,0.79247 0.12445,1.29676 0,3.01927 -1.25748,6.07777 -4.23089,7.2501 m -1.63732,21.96646 c 0,-1.55213 -1.42119,-2.22016 -2.80311,-2.22016 -1.76176,0 -3.48424,1.08718 -3.48424,2.97341 0,0.79899 0.29471,1.38844 0.92344,1.97132 -1.08717,0.41914 -2.22023,1.25749 -2.22023,2.56078 0,1.38193 1.25747,2.30537 3.10441,2.30537 2.2595,0 3.851,-1.25749 3.851,-3.06508 0,-0.96278 -0.41916,-1.7552 -1.17234,-2.30537 1.2182,-0.54358 1.80107,-1.21161 1.80107,-2.22027 m -2.59353,1.67669 c -0.62873,-0.33404 -0.79904,-0.4192 -0.92345,-0.5043 l -0.0459,-0.0393 c -0.66805,-0.37985 -0.87764,-0.6746 -0.87764,-1.17232 0,-0.75977 0.58947,-1.30336 1.42778,-1.30336 0.83831,0 1.29675,0.50425 1.29675,1.38193 0,0.67456 -0.24885,1.13304 -0.87759,1.63734 m -1.59804,5.02988 c -0.91691,0 -1.54565,-0.58287 -1.54565,-1.46708 0,-0.79242 0.37331,-1.50632 1.08718,-1.92546 0.1703,0.0851 0.20957,0.12445 0.33402,0.16373 0.50429,0.25541 0.50429,0.25541 0.58947,0.34057 0.83831,0.45843 1.13302,0.87758 1.13302,1.46702 0,0.79248 -0.67459,1.42122 -1.59804,1.42122"
     id="path83"
     style="stroke-width:0.419157" />
  <path
     class="Clef"
     d="m 101.37484,303.88831 c 0,-6.28737 -4.486286,-10.56408 -10.603386,-10.56408 -0.41915,-2.51494 -0.79899,-5.02989 -1.17229,-7.33525 4.40115,-4.65659 7.49897,-9.93533 7.49897,-16.55672 0,-3.85755 -1.17234,-6.9161 -1.8862,-8.42884 -1.00204,-2.13519 -2.22024,-3.64834 -2.9341,-3.64834 -0.28817,0 -1.63078,0.55034 -2.97343,2.18129 -2.72452,3.18937 -3.47766,8.50743 -3.47766,12.03095 0,2.26609 0.20958,4.31603 0.92345,9.05774 -0.0459,0 -2.22678,2.22024 -3.10441,2.97342 -3.81823,3.52352 -9.09702,8.632 -9.09702,16.97586 0,7.87887 6.83097,14.04179 14.63124,14.04179 1.21162,0 2.34464,-0.12444 3.35326,-0.29471 0.75314,4.02781 1.25747,6.96192 1.25747,9.18215 0,4.36188 -2.26609,6.66724 -6.45766,6.66724 -1.0479,0 -1.92549,-0.20958 -1.97134,-0.25543 -0.0786,0 -0.16372,-0.0393 -0.16372,-0.0786 0,-0.0851 0.0851,-0.13098 0.20957,-0.1703 1.97135,-0.2947 3.93615,-1.97134 3.93615,-4.65001 0,-2.26608 -1.71595,-4.65658 -4.85963,-4.65658 -2.89479,0 -4.781,2.3905 -4.781,5.15434 0,2.77038 2.09579,6.41834 7.75442,6.41834 5.40973,0 8.04912,-3.06509 8.04912,-8.429 0,-1.63078 -0.24886,-3.51699 -0.66801,-5.90748 -0.12445,-0.83832 -0.33403,-2.14165 -0.62874,-3.73315 4.1064,-1.38191 7.164946,-5.6193 7.164946,-9.97463 m -12.908746,-34.3316 c 0.41916,-1.67663 2.30536,-6.07778 4.48633,-6.07778 0.62874,0 1.67663,2.01061 1.67663,4.94471 0,4.31602 -3.26813,7.59069 -6.16296,10.47894 -0.24885,-1.67663 -0.45843,-3.35326 -0.45843,-5.06916 0,-1.59151 0.16372,-2.97997 0.45843,-4.27671 m 1.25748,43.34348 c -5.99262,0 -11.10766,-4.19158 -11.10766,-10.52477 0,-5.1085 3.64799,-9.67993 7.29596,-12.90873 0.70733,-0.58946 1.38192,-1.2182 2.01065,-1.80108 0.37331,2.25951 0.71388,4.19157 0.96273,5.95333 -3.81823,1.08722 -6.41177,5.15434 -6.41177,9.05119 0,2.97995 2.30537,7.00124 5.65863,7.00124 0.33398,0 0.71386,-0.17026 0.71386,-0.58942 0,-0.33402 -0.37988,-0.58292 -0.92345,-0.91692 -1.63735,-0.9693 -2.56079,-2.09579 -2.56079,-4.11299 0,-2.55424 1.93206,-4.61075 4.36184,-5.19363 l 2.42981,13.74706 c -0.83831,0.20959 -1.5915,0.29472 -2.42981,0.29472 m 4.19157,-0.79901 c -0.87759,-4.98405 -2.01062,-11.65127 -2.30536,-13.4982 4.23088,0 6.0385,2.93412 6.4118,4.95132 0.0459,0.33401 0.12445,0.79247 0.12445,1.29677 0,3.01924 -1.25748,6.07778 -4.23089,7.25011 m -1.63731,21.96645 c 0,-1.55218 -1.4212,-2.22018 -2.80312,-2.22018 -1.76176,0 -3.48425,1.08716 -3.48425,2.97337 0,0.79904 0.29471,1.38846 0.92345,1.97133 -1.08717,0.41916 -2.22024,1.25748 -2.22024,2.56081 0,1.38192 1.25747,2.30536 3.10441,2.30536 2.25951,0 3.85101,-1.25747 3.85101,-3.06508 0,-0.96276 -0.41916,-1.75522 -1.17234,-2.30537 1.2182,-0.5436 1.80108,-1.21161 1.80108,-2.22024 m -2.59355,1.67664 c -0.62873,-0.33399 -0.79903,-0.41916 -0.92344,-0.50429 l -0.0459,-0.0393 c -0.66805,-0.37988 -0.87763,-0.67459 -0.87763,-1.17234 0,-0.75972 0.58946,-1.30333 1.42778,-1.30333 0.83831,0 1.29674,0.50429 1.29674,1.38193 0,0.67458 -0.24885,1.13301 -0.87759,1.63731 m -1.59803,5.02988 c -0.91692,0 -1.54565,-0.58288 -1.54565,-1.46705 0,-0.79246 0.3733,-1.50632 1.08717,-1.92548 0.1703,0.0851 0.20958,0.12445 0.33403,0.16372 0.50429,0.25544 0.50429,0.25544 0.58946,0.34057 0.83831,0.45847 1.13302,0.87763 1.13302,1.46704 0,0.79247 -0.67459,1.4212 -1.59803,1.4212"
     id="path84"
     style="stroke-width:0.419157" />
  <path
     class="TimeSig"
     d="m 119.98148,288.3795 v 3.09787 h -3.47772 c -0.2947,0 -0.58941,0.25539 -0.58941,0.58941 v 0.79904 c 0,0.33398 0.29471,0.58288 0.58941,0.58288 h 12.69918 c 0.34057,0 0.58942,-0.2489 0.58942,-0.58288 v -0.79904 c 0,-0.33402 -0.24885,-0.58941 -0.58942,-0.58941 h -3.72657 v -3.09787 h 3.72657 c 0.34057,0 0.58942,-0.29472 0.58942,-0.62874 v -0.79901 c 0,-0.29472 -0.24885,-0.58289 -0.58942,-0.58289 h -3.72657 v -6.66722 c 0,-0.24888 -0.12444,-0.45846 -0.33402,-0.5436 l -0.50429,-0.25542 c -0.0852,-0.0393 -0.20958,-0.0786 -0.29475,-0.0786 -0.12441,0.0392 -0.29471,0.0786 -0.37984,0.16375 l -3.81173,3.4777 c -0.12441,0.13098 -0.17026,0.29471 -0.17026,0.465 v 3.4384 h -4.82033 c 0,0 4.6566,-5.02989 9.60132,-11.65783 0.1703,-0.20959 0.20958,-0.41916 0.20958,-0.58289 0,-0.20958 -0.0851,-0.37984 -0.12441,-0.41915 l -0.92349,-0.92345 c -0.0851,-0.0851 -0.24885,-0.1703 -0.41916,-0.1703 -0.24885,0 -5.91401,0 -6.20218,0 -0.34057,0 -0.55014,0.25544 -0.58947,0.50433 0,0 -0.20958,3.10436 -1.29677,6.49693 -1.09373,3.3991 -2.3512,5.49489 -3.43839,7.04053 0,0 -0.12444,0.20958 -0.12444,0.46501 0,0.0851 0,0.16375 0.0393,0.24888 0.17029,0.29471 0.41916,0.75318 0.41916,0.75318 0,0 0.0851,0.2554 0.45846,0.2554 h 7.21082"
     id="path85"
     style="stroke-width:0.419157" />
  <path
     class="TimeSig"
     d="m 119.98148,309.33735 v 3.09786 h -3.47772 c -0.2947,0 -0.58941,0.2554 -0.58941,0.58942 v 0.79904 c 0,0.33399 0.29471,0.58288 0.58941,0.58288 h 12.69918 c 0.34057,0 0.58942,-0.24889 0.58942,-0.58288 v -0.79904 c 0,-0.33402 -0.24885,-0.58942 -0.58942,-0.58942 h -3.72657 v -3.09786 h 3.72657 c 0.34057,0 0.58942,-0.29471 0.58942,-0.62874 v -0.79901 c 0,-0.29472 -0.24885,-0.58289 -0.58942,-0.58289 h -3.72657 v -6.66722 c 0,-0.24888 -0.12444,-0.45846 -0.33402,-0.5436 l -0.50429,-0.25542 c -0.0852,-0.0393 -0.20958,-0.0786 -0.29475,-0.0786 -0.12441,0.0393 -0.29471,0.0786 -0.37984,0.16376 l -3.81173,3.47769 c -0.12441,0.13099 -0.17026,0.29472 -0.17026,0.46501 v 3.4384 h -4.82033 c 0,0 4.6566,-5.02989 9.60132,-11.65784 0.1703,-0.20958 0.20958,-0.41916 0.20958,-0.58288 0,-0.20958 -0.0851,-0.37984 -0.12441,-0.41916 l -0.92349,-0.92344 c -0.0851,-0.0851 -0.24885,-0.1703 -0.41916,-0.1703 -0.24885,0 -5.91401,0 -6.20218,0 -0.34057,0 -0.55014,0.25543 -0.58947,0.50433 0,0 -0.20958,3.10436 -1.29677,6.49692 -1.09373,3.39911 -2.3512,5.49489 -3.43839,7.04053 0,0 -0.12444,0.20959 -0.12444,0.46501 0,0.0851 0,0.16376 0.0393,0.24889 0.17029,0.2947 0.41916,0.75318 0.41916,0.75318 0,0 0.0851,0.25539 0.45846,0.25539 h 7.21082"
     id="path86"
     style="stroke-width:0.419157" />
  <path
     class="Beam"
     fill-rule="evenodd"
     d="m 75.174124,600.0428 118.523376,2.61974 v 5.23948 L 75.174124,605.28228 v -5.23948"
     id="path87"
     style="stroke-width:0.422537" />
  <path
     class="Beam"
     fill-rule="evenodd"
     d="m 364.79429,600.0428 118.52171,2.61974 v 5.23948 l -118.52171,-2.61974 v -5.23948"
     id="path88"
     style="stroke-width:0.422537" />
  <path
     class="Fingering"
     d="m 411.61144,542.81011 c -0.50706,0 -0.9085,0.40986 -0.9085,0.91692 0,0.49014 0.40144,0.91267 0.89582,0.91267 0.52392,0 0.92536,-0.40986 0.92536,-0.91267 0,-0.50706 -0.40144,-0.91692 -0.91268,-0.91692 m 0.30418,4.12399 -3.24084,0.25351 -0.0676,0.61266 h 0.40562 c 0.69295,0 0.96342,0.15213 0.96342,0.52398 0,0.16479 -0.0339,0.35493 -0.15212,0.74364 l -0.98452,3.29583 c -0.31692,1.07747 -0.36761,1.31406 -0.36761,1.70282 0,0.59576 0.50706,1.04789 1.14508,1.04789 1.45351,0 2.4507,-1.50425 3.16481,-2.59864 l -0.52816,-0.29152 c -0.8789,1.33522 -1.58452,2.04509 -2.04089,2.04509 -0.17323,0 -0.29152,-0.15213 -0.29152,-0.35494 0,-0.1648 0.0676,-0.47323 0.207,-0.94227 l 1.78734,-6.03805"
     id="path89"
     style="stroke-width:0.422537" />
  <path
     class="Fingering"
     d="m 590.86019,254.84504 c -0.50705,0 -0.90844,0.40944 -0.90844,0.91775 0,0.48887 0.40139,0.91141 0.89576,0.91141 0.52398,0 0.92536,-0.40943 0.92536,-0.91141 0,-0.50831 -0.40138,-0.91775 -0.91268,-0.91775 m 0.30424,4.1265 -3.24085,0.25099 -0.0676,0.61394 h 0.40562 c 0.69296,0 0.96337,0.15169 0.96337,0.52141 0,0.16521 -0.0339,0.35663 -0.15212,0.7462 l -0.98452,3.29452 c -0.31686,1.07621 -0.36761,1.31367 -0.36761,1.70325 0,0.59409 0.50706,1.04959 1.14508,1.04959 1.45356,0 2.45076,-1.50508 3.16481,-2.60115 l -0.52816,-0.29027 c -0.87885,1.33353 -1.58452,2.04635 -2.04083,2.04635 -0.17329,0 -0.29158,-0.1517 -0.29158,-0.3562 0,-0.16522 0.0677,-0.47536 0.20705,-0.94438 l 1.78734,-6.03425"
     id="path90"
     style="stroke-width:0.422537" />
  <path
     class="Fingering"
     d="m 157.00651,547.14115 -3.07693,0.25351 -0.0528,0.61267 h 0.40944 c 0.67353,0 0.94394,0.15212 0.94394,0.53665 0,0.14787 -0.0528,0.40561 -0.13858,0.73096 l -1.72311,5.8099 h 1.47254 l 0.69297,-2.3831 c 0.75929,-2.59016 2.29773,-4.54229 3.56534,-4.54229 0.44242,0 0.71284,0.2324 0.71284,0.65494 0,0.34226 -0.13861,1.04788 -0.34312,1.69014 l -1.34703,4.58031 h 1.46581 l 0.7263,-2.45071 c 0.42254,-1.40705 0.84507,-2.34932 1.38638,-3.0761 0.60716,-0.84508 1.47212,-1.39858 2.11268,-1.39858 0.42255,0 0.65998,0.21548 0.65998,0.62111 0,0.23664 -0.0858,0.60849 -0.23743,1.08171 l -0.77917,2.40426 c -0.45552,1.31406 -0.46862,1.41973 -0.46862,1.88872 0,0.70987 0.52143,1.1789 1.3137,1.1789 0.56113,0 1.10281,-0.27042 1.67704,-0.80281 0.35664,-0.34651 0.58776,-0.64651 1.28071,-1.65637 l -0.52142,-0.35918 c -0.87806,1.32254 -1.50553,1.96062 -1.94116,1.96062 -0.18463,0 -0.35658,-0.18595 -0.35658,-0.42254 0,-0.15212 0.053,-0.33383 0.20494,-0.8324 l 1.06267,-3.27468 c 0.11914,-0.3676 0.20493,-0.89576 0.20493,-1.26761 0,-0.89577 -0.66045,-1.53803 -1.57142,-1.53803 -1.20171,0 -2.28427,0.78167 -3.26158,2.3831 0.0659,-0.32115 0.0993,-0.60424 0.0993,-0.8113 0,-0.89576 -0.71325,-1.5718 -1.63733,-1.5718 -1.06989,0 -1.84227,0.59577 -3.03043,2.28591 l 0.49521,-2.28591"
     id="path91"
     style="stroke-width:0.422537" />
  <path
     class="Fingering"
     d="m 446.62284,547.14115 -3.07606,0.25351 -0.0509,0.61267 h 0.40986 c 0.67179,0 0.94227,0.15212 0.94227,0.53665 0,0.14787 -0.0509,0.40561 -0.13945,0.73096 l -1.71974,5.8099 h 1.47042 l 0.69295,-2.3831 c 0.76061,-2.59016 2.29864,-4.54229 3.56625,-4.54229 0.43945,0 0.71405,0.2324 0.71405,0.65494 0,0.34226 -0.13939,1.04788 -0.34644,1.69014 l -1.3437,4.58031 h 1.46199 l 0.72678,-2.45071 c 0.42254,-1.40705 0.84508,-2.34932 1.3859,-3.0761 0.60844,-0.84508 1.47467,-1.39858 2.11269,-1.39858 0.42254,0 0.66337,0.21548 0.66337,0.62111 0,0.23664 -0.0887,0.60849 -0.24083,1.08171 l -0.77747,2.40426 c -0.45632,1.31406 -0.46899,1.41973 -0.46899,1.88872 0,0.70987 0.52392,1.1789 1.31406,1.1789 0.56199,0 1.10282,-0.27042 1.67747,-0.80281 0.35494,-0.34651 0.58734,-0.64651 1.28029,-1.65637 l -0.51972,-0.35918 c -0.87886,1.32254 -1.50844,1.96062 -1.94365,1.96062 -0.18591,0 -0.35494,-0.18595 -0.35494,-0.42254 0,-0.15212 0.0509,-0.33383 0.20281,-0.8324 l 1.0648,-3.27468 c 0.1183,-0.3676 0.20281,-0.89576 0.20281,-1.26761 0,-0.89577 -0.65917,-1.53803 -1.57185,-1.53803 -1.20001,0 -2.28167,0.78167 -3.25776,2.3831 0.0634,-0.32115 0.0972,-0.60424 0.0972,-0.8113 0,-0.89576 -0.71406,-1.5718 -1.63941,-1.5718 -1.06904,0 -1.83808,0.59577 -3.0296,2.28591 l 0.49433,-2.28591"
     id="path92"
     style="stroke-width:0.422537" />
  <path
     class="Fingering"
     d="m 527.15005,258.97154 -3.07611,0.25099 -0.0509,0.61394 h 0.40986 c 0.67185,0 0.94226,0.15169 0.94226,0.53493 0,0.15169 -0.0509,0.40902 -0.13945,0.73268 l -1.72398,5.80989 h 1.47467 l 0.69295,-2.38354 c 0.76061,-2.58803 2.29864,-4.54227 3.56625,-4.54227 0.43945,0 0.70987,0.23113 0.70987,0.65367 0,0.34352 -0.13521,1.05001 -0.34226,1.69015 l -1.34789,4.58199 h 1.46618 l 0.72678,-2.44945 c 0.42254,-1.4062 0.84507,-2.35015 1.3859,-3.07649 0.60849,-0.84508 1.47467,-1.39987 2.11268,-1.39987 0.42255,0 0.66343,0.21803 0.66343,0.62071 0,0.23789 -0.0888,0.6076 -0.24088,1.08297 l -0.77747,2.40297 c -0.45631,1.31366 -0.46899,1.4193 -0.46899,1.88831 0,0.71282 0.51973,1.18184 1.31406,1.18184 0.56198,0 1.10282,-0.27085 1.67747,-0.80578 0.35494,-0.3431 0.58734,-0.64691 1.28029,-1.65677 l -0.51973,-0.35662 c -0.87885,1.32043 -1.50844,1.96058 -1.94365,1.96058 -0.1859,0 -0.35493,-0.18466 -0.35493,-0.42255 0,-0.15169 0.0509,-0.33634 0.20281,-0.83155 l 1.0648,-3.27466 c 0.11829,-0.36972 0.20281,-0.8979 0.20281,-1.26761 0,-0.8979 -0.65912,-1.53846 -1.57185,-1.53846 -1.20001,0 -2.28167,0.77916 -3.26195,2.38353 0.0676,-0.32367 0.10138,-0.60761 0.10138,-0.81212 0,-0.89789 -0.71406,-1.57141 -1.63941,-1.57141 -1.06904,0 -1.84227,0.59408 -3.02961,2.28423 l 0.49439,-2.28423"
     id="path93"
     style="stroke-width:0.422537" />
  <path
     class="Fingering"
     d="m 1004.896,258.97154 -3.076,0.25099 -0.055,0.61394 h 0.4099 c 0.6718,0 0.9464,0.15169 0.9464,0.53493 0,0.15169 -0.055,0.40902 -0.1394,0.73268 l -1.724,5.80989 h 1.4705 l 0.6929,-2.38354 c 0.7606,-2.58803 2.2986,-4.54227 3.5663,-4.54227 0.4436,0 0.714,0.23113 0.714,0.65367 0,0.34352 -0.1394,1.05001 -0.3422,1.69015 l -1.3479,4.58199 h 1.4662 l 0.7268,-2.44945 c 0.4225,-1.4062 0.845,-2.35015 1.3859,-3.07649 0.6085,-0.84508 1.4704,-1.39987 2.1127,-1.39987 0.4225,0 0.6591,0.21803 0.6591,0.62071 0,0.23789 -0.084,0.6076 -0.2366,1.08297 l -0.7817,2.40297 c -0.4521,1.31366 -0.469,1.4193 -0.469,1.88831 0,0.71282 0.5239,1.18184 1.3141,1.18184 0.562,0 1.1028,-0.27085 1.6774,-0.80578 0.3592,-0.3431 0.5874,-0.64691 1.2803,-1.65677 l -0.5197,-0.35662 c -0.8789,1.32043 -1.5042,1.96058 -1.9394,1.96058 -0.1859,0 -0.3592,-0.18466 -0.3592,-0.42255 0,-0.15169 0.055,-0.33634 0.207,-0.83155 l 1.0607,-3.27466 c 0.1182,-0.36972 0.207,-0.8979 0.207,-1.26761 0,-0.8979 -0.6634,-1.53846 -1.5719,-1.53846 -1.2042,0 -2.2858,0.77916 -3.262,2.38353 0.067,-0.32367 0.097,-0.60761 0.097,-0.81212 0,-0.89789 -0.7099,-1.57141 -1.6352,-1.57141 -1.069,0 -1.8423,0.59408 -3.0296,2.28423 l 0.4944,-2.28423"
     id="path94"
     style="stroke-width:0.422537" />
  <path
     class="Fingering"
     d="m 489.92872,543.01716 c -0.50706,0 -0.90849,0.40986 -0.90849,0.91692 0,0.49014 0.40143,0.91268 0.89582,0.91268 0.52392,0 0.92535,-0.40987 0.92535,-0.91268 0,-0.50706 -0.40143,-0.91692 -0.91268,-0.91692 m 0.30424,4.12399 -3.2409,0.25351 -0.0676,0.61267 h 0.40562 c 0.69301,0 0.96343,0.15212 0.96343,0.51973 0,0.16479 -0.034,0.35918 -0.15213,0.74788 l -0.98452,3.29578 c -0.31691,1.07328 -0.37185,1.31411 -0.37185,1.70282 0,0.59158 0.51129,1.04794 1.14932,1.04794 1.45356,0 2.4507,-1.50425 3.16481,-2.59864 l -0.52816,-0.29152 c -0.8789,1.33098 -1.58453,2.04509 -2.04089,2.04509 -0.17322,0 -0.29152,-0.15213 -0.29152,-0.35494 0,-0.16479 0.0676,-0.47747 0.20705,-0.9465 l 1.78734,-6.03382"
     id="path95"
     style="stroke-width:0.422537" />
  <path
     class="Fingering"
     d="m 471.73423,254.84504 c -0.507,0 -0.91268,0.40944 -0.91268,0.91775 0,0.48887 0.40568,0.91141 0.9,0.91141 0.51973,0 0.92541,-0.40943 0.92541,-0.91141 0,-0.50831 -0.40568,-0.91775 -0.91273,-0.91775 m 0.30424,4.1265 -3.24084,0.25099 -0.0676,0.61394 h 0.40137 c 0.69301,0 0.96762,0.15169 0.96762,0.52141 0,0.16521 -0.034,0.35663 -0.15207,0.7462 l -0.98453,3.29452 c -0.31692,1.07621 -0.37184,1.31367 -0.37184,1.70325 0,0.59409 0.51129,1.04959 1.14931,1.04959 1.45351,0 2.45071,-1.50508 3.16482,-2.60115 l -0.52822,-0.29027 c -0.87884,1.33353 -1.58447,2.04635 -2.04084,2.04635 -0.17322,0 -0.29157,-0.1517 -0.29157,-0.3562 0,-0.16522 0.0676,-0.47536 0.20287,-0.94438 l 1.79152,-6.03425"
     id="path96"
     style="stroke-width:0.422537" />
  <path
     class="Fingering"
     d="m 524.94017,547.14115 -3.0761,0.25351 -0.0509,0.61267 h 0.40986 c 0.67185,0 0.94227,0.15212 0.94227,0.53665 0,0.14787 -0.0509,0.40561 -0.13945,0.73096 l -1.72398,5.8099 h 1.47466 l 0.69296,-2.3831 c 0.76061,-2.59016 2.29864,-4.54229 3.56624,-4.54229 0.43945,0 0.70987,0.2324 0.70987,0.65494 0,0.34226 -0.13521,1.04788 -0.34226,1.69014 l -1.34789,4.58031 h 1.46618 l 0.72678,-2.45071 c 0.42254,-1.40705 0.84508,-2.34932 1.38591,-3.0761 0.60849,-0.84508 1.47466,-1.39858 2.11268,-1.39858 0.42254,0 0.66343,0.21548 0.66343,0.62111 0,0.23664 -0.0888,0.60849 -0.24089,1.08171 l -0.77747,2.40426 c -0.45632,1.31406 -0.46898,1.41973 -0.46898,1.88872 0,0.70987 0.51972,1.1789 1.31405,1.1789 0.56199,0 1.10282,-0.27042 1.67748,-0.80281 0.35493,-0.34651 0.58733,-0.64651 1.28028,-1.65637 l -0.51967,-0.35918 c -0.87891,1.32254 -1.50849,1.96062 -1.9437,1.96062 -0.1859,0 -0.35494,-0.18595 -0.35494,-0.42254 0,-0.15212 0.0509,-0.33383 0.20281,-0.8324 l 1.06481,-3.27468 c 0.11829,-0.3676 0.20281,-0.89576 0.20281,-1.26761 0,-0.89577 -0.65913,-1.53803 -1.5718,-1.53803 -1.20002,0 -2.28173,0.78167 -3.26201,2.3831 0.0676,-0.32115 0.10138,-0.60424 0.10138,-0.8113 0,-0.89576 -0.71405,-1.5718 -1.63941,-1.5718 -1.06903,0 -1.84226,0.59577 -3.0296,2.28591 l 0.49438,-2.28591"
     id="path97"
     style="stroke-width:0.422537" />
  <path
     class="Fingering"
     d="m 408.02409,256.85885 -3.07611,0.25099 -0.0509,0.61394 h 0.40562 c 0.67609,0 0.94651,0.1517 0.94651,0.53494 0,0.15169 -0.0549,0.40901 -0.13945,0.73268 l -1.72393,5.80989 h 1.47467 l 0.69295,-2.38354 c 0.75631,-2.58804 2.29433,-4.54227 3.56195,-4.54227 0.44369,0 0.71411,0.23112 0.71411,0.65367 0,0.34351 -0.13945,1.05 -0.34226,1.69014 l -1.34789,4.582 h 1.46618 l 0.72678,-2.44945 c 0.42253,-1.40621 0.84508,-2.35016 1.3859,-3.0765 0.60849,-0.84507 1.47467,-1.39986 2.11274,-1.39986 0.42254,0 0.65912,0.21802 0.65912,0.6207 0,0.23789 -0.0845,0.60761 -0.23658,1.08297 l -0.77747,2.40296 c -0.45637,1.31367 -0.46904,1.41931 -0.46904,1.88833 0,0.71282 0.51973,1.18183 1.31412,1.18183 0.56193,0 1.10281,-0.27085 1.67741,-0.80577 0.35494,-0.34311 0.58734,-0.64691 1.28034,-1.65678 l -0.52397,-0.35662 c -0.8789,1.32043 -1.50424,1.96057 -1.93946,1.96057 -0.1859,0 -0.35493,-0.18464 -0.35493,-0.42253 0,-0.15169 0.0509,-0.33634 0.20281,-0.83156 l 1.0648,-3.27466 c 0.11834,-0.36972 0.20281,-0.89789 0.20281,-1.26761 0,-0.89789 -0.65912,-1.53846 -1.5718,-1.53846 -1.20001,0 -2.28596,0.77915 -3.262,2.38353 0.0676,-0.32366 0.10143,-0.60761 0.10143,-0.81211 0,-0.89789 -0.71411,-1.57142 -1.63946,-1.57142 -1.06904,0 -1.84227,0.59409 -3.0296,2.28424 l 0.49438,-2.28424"
     id="path98"
     style="stroke-width:0.422537" />
  <path
     class="Fingering"
     d="m 587.82639,543.01716 c -0.50705,0 -0.91267,0.40986 -0.91267,0.91692 0,0.49014 0.40562,0.91268 0.9,0.91268 0.51973,0 0.92535,-0.40987 0.92535,-0.91268 0,-0.50706 -0.40562,-0.91692 -0.91268,-0.91692 m 0.3042,4.12399 -3.24085,0.25351 -0.0677,0.61267 h 0.40144 c 0.69295,0 0.96337,0.15212 0.96337,0.51973 0,0.16479 -0.0297,0.35918 -0.15213,0.74788 l -0.98028,3.29578 c -0.31691,1.07328 -0.37184,1.31411 -0.37184,1.70282 0,0.59158 0.50705,1.04794 1.14931,1.04794 1.45351,0 2.45071,-1.50425 3.16057,-2.59864 l -0.52815,-0.29152 c -0.87466,1.33098 -1.58453,2.04509 -2.03666,2.04509 -0.17322,0 -0.29152,-0.15213 -0.29152,-0.35494 0,-0.16479 0.0676,-0.47747 0.20282,-0.9465 l 1.79153,-6.03382"
     id="path99"
     style="stroke-width:0.422537" />
  <path
     class="Fingering"
     d="m 337.09863,254.84504 c -0.50828,0 -0.91098,0.40944 -0.91098,0.91775 0,0.48887 0.4027,0.91141 0.89789,0.91141 0.52142,0 0.92412,-0.40943 0.92412,-0.91141 0,-0.50831 -0.4027,-0.91775 -0.91103,-0.91775 m 0.30382,4.1265 -3.2417,0.25099 -0.0663,0.61394 h 0.40308 c 0.69295,0 0.96384,0.15169 0.96384,0.52141 0,0.16521 -0.0328,0.35663 -0.15212,0.7462 l -0.98367,3.29452 c -0.31692,1.07621 -0.36973,1.31367 -0.36973,1.70325 0,0.59409 0.50832,1.04959 1.14889,1.04959 1.45266,0 2.44944,-1.50508 3.16227,-2.60115 l -0.52821,-0.29027 c -0.878,1.33353 -1.58448,2.04635 -2.03999,2.04635 -0.17153,0 -0.2903,-0.1517 -0.2903,-0.3562 0,-0.16522 0.066,-0.47536 0.20451,-0.94438 l 1.78946,-6.03425"
     id="path100"
     style="stroke-width:0.422537" />
  <path
     class="Fingering"
     d="m 273.38891,258.97154 -3.07653,0.25099 -0.053,0.61394 h 0.40944 c 0.67312,0 0.94396,0.15169 0.94396,0.53493 0,0.15169 -0.053,0.40902 -0.1386,0.73268 l -1.72307,5.80989 h 1.47211 l 0.69338,-2.38354 c 0.75928,-2.58803 2.29731,-4.54227 3.56493,-4.54227 0.44241,0 0.71325,0.23113 0.71325,0.65367 0,0.34352 -0.1386,1.05001 -0.34353,1.69015 l -1.34662,4.58199 h 1.46576 l 0.72594,-2.44945 c 0.42253,-1.4062 0.84507,-2.35015 1.38675,-3.07649 0.60721,-0.84508 1.47211,-1.39987 2.11268,-1.39987 0.42254,0 0.66002,0.21803 0.66002,0.62071 0,0.23789 -0.0858,0.6076 -0.23748,1.08297 l -0.77912,2.40297 c -0.45551,1.31366 -0.46903,1.4193 -0.46903,1.88831 0,0.71282 0.52184,1.18184 1.31411,1.18184 0.56108,0 1.10239,-0.27085 1.67705,-0.80578 0.35616,-0.3431 0.58733,-0.64691 1.28071,-1.65677 l -0.52186,-0.35662 c -0.87804,1.32043 -1.50509,1.96058 -1.94073,1.96058 -0.18504,0 -0.35662,-0.18466 -0.35662,-0.42255 0,-0.15169 0.053,-0.33634 0.20451,-0.83155 l 1.0631,-3.27466 c 0.11877,-0.36972 0.2045,-0.8979 0.2045,-1.26761 0,-0.8979 -0.65997,-1.53846 -1.57095,-1.53846 -1.20171,0 -2.28469,0.77916 -3.26158,2.38353 0.0659,-0.32367 0.0989,-0.60761 0.0989,-0.81212 0,-0.89789 -0.71284,-1.57141 -1.63734,-1.57141 -1.06946,0 -1.84184,0.59408 -3.03045,2.28423 l 0.49523,-2.28423"
     id="path101"
     style="stroke-width:0.422537" />
  <path
     class="Fingering"
     d="m 217.97146,254.84504 c -0.50834,0 -0.91099,0.40944 -0.91099,0.91775 0,0.48887 0.40265,0.91141 0.89788,0.91141 0.52186,0 0.92451,-0.40943 0.92451,-0.91141 0,-0.50831 -0.40265,-0.91775 -0.9114,-0.91775 m 0.30381,4.1265 -3.24175,0.25099 -0.0659,0.61394 h 0.40271 c 0.69338,0 0.96379,0.15169 0.96379,0.52141 0,0.16521 -0.0329,0.35663 -0.1517,0.7462 l -0.98367,3.29452 c -0.31692,1.07621 -0.36972,1.31367 -0.36972,1.70325 0,0.59409 0.50832,1.04959 1.14889,1.04959 1.45229,0 2.44943,-1.50508 3.16227,-2.60115 l -0.52816,-0.29027 c -0.87805,1.33353 -1.58453,2.04635 -2.03999,2.04635 -0.17158,0 -0.29072,-0.1517 -0.29072,-0.3562 0,-0.16522 0.0663,-0.47536 0.20493,-0.94438 l 1.78903,-6.03425"
     id="path102"
     style="stroke-width:0.422537" />
  <path
     class="Fingering"
     d="m 200.31106,543.01716 c -0.50828,0 -0.91099,0.40986 -0.91099,0.91692 0,0.49014 0.40271,0.91268 0.8979,0.91268 0.52142,0 0.92407,-0.40987 0.92407,-0.91268 0,-0.50706 -0.40265,-0.91692 -0.91098,-0.91692 m 0.30382,4.12399 -3.2417,0.25351 -0.0663,0.61267 h 0.40307 c 0.69295,0 0.9638,0.15212 0.9638,0.51973 0,0.16479 -0.0329,0.35918 -0.15207,0.74788 l -0.98367,3.29578 c -0.31692,1.07328 -0.36973,1.31411 -0.36973,1.70282 0,0.59158 0.50832,1.04794 1.14889,1.04794 1.45266,0 2.44943,-1.50425 3.16227,-2.59864 l -0.52822,-0.29152 c -0.878,1.33098 -1.58447,2.04509 -2.03998,2.04509 -0.17154,0 -0.2903,-0.15213 -0.2903,-0.35494 0,-0.16479 0.0659,-0.47747 0.20451,-0.9465 l 1.78946,-6.03382"
     id="path103"
     style="stroke-width:0.422537" />
  <path
     class="Fingering"
     d="m 657.92533,545.02847 -3.0761,0.2535 -0.0509,0.61267 h 0.40987 c 0.67184,0 0.94226,0.15213 0.94226,0.53664 0,0.14789 -0.0549,0.40563 -0.13945,0.73098 l -1.72392,5.80989 h 1.47461 l 0.693,-2.3831 c 0.76056,-2.59015 2.29859,-4.54228 3.5662,-4.54228 0.43945,0 0.70986,0.2324 0.70986,0.65493 0,0.34226 -0.1352,1.04789 -0.34226,1.69015 l -1.34789,4.5803 h 1.46618 l 0.72679,-2.4507 c 0.42253,-1.40706 0.84507,-2.34932 1.3859,-3.0761 0.60849,-0.84508 1.47467,-1.39858 2.11269,-1.39858 0.42253,0 0.65917,0.21548 0.65917,0.6211 0,0.23664 -0.0845,0.60849 -0.23664,1.08172 l -0.77747,2.40426 c -0.45631,1.31405 -0.46898,1.41973 -0.46898,1.88871 0,0.70987 0.51972,1.17891 1.31405,1.17891 0.562,0 1.10288,-0.27048 1.67748,-0.80282 0.35494,-0.3465 0.58733,-0.6465 1.28028,-1.65637 l -0.52391,-0.35918 c -0.87466,1.32255 -1.50425,1.96062 -1.93946,1.96062 -0.1859,0 -0.35494,-0.18595 -0.35494,-0.42254 0,-0.15212 0.0509,-0.33383 0.20282,-0.8324 l 1.0648,-3.27467 c 0.11835,-0.36761 0.20281,-0.89577 0.20281,-1.26762 0,-0.89576 -0.65912,-1.53802 -1.5718,-1.53802 -1.20001,0 -2.28173,0.78166 -3.26201,2.3831 0.0676,-0.32116 0.10138,-0.60425 0.10138,-0.8113 0,-0.89576 -0.71405,-1.5718 -1.6394,-1.5718 -1.06904,0 -1.84227,0.59576 -3.02961,2.28591 l 0.49438,-2.28591"
     id="path104"
     style="stroke-width:0.422537" />
  <path
     class="Fingering"
     d="m 154.26212,256.85885 -3.0765,0.25099 -0.0528,0.61394 h 0.40902 c 0.67352,0 0.94437,0.1517 0.94437,0.53494 0,0.15169 -0.0528,0.40901 -0.13859,0.73268 l -1.72354,5.80989 h 1.47255 l 0.69297,-2.38354 c 0.75929,-2.58804 2.29775,-4.54227 3.56536,-4.54227 0.4424,0 0.7128,0.23112 0.7128,0.65367 0,0.34351 -0.13857,1.05 -0.34308,1.69014 l -1.34705,4.582 h 1.46578 l 0.72637,-2.44945 c 0.42253,-1.40621 0.84507,-2.35016 1.38632,-3.0765 0.60759,-0.84507 1.47255,-1.39986 2.11269,-1.39986 0.42254,0 0.6604,0.21802 0.6604,0.6207 0,0.23789 -0.0857,0.60761 -0.23786,1.08297 l -0.77917,2.40296 c -0.45552,1.31367 -0.46862,1.41931 -0.46862,1.88833 0,0.71282 0.52143,1.18183 1.3137,1.18183 0.56155,0 1.10281,-0.27085 1.67704,-0.80577 0.35664,-0.34311 0.58776,-0.64691 1.28071,-1.65678 l -0.52142,-0.35662 c -0.878,1.32043 -1.50505,1.96057 -1.9411,1.96057 -0.18468,0 -0.35621,-0.18464 -0.35621,-0.42253 0,-0.15169 0.053,-0.33634 0.20451,-0.83156 l 1.0631,-3.27466 c 0.11872,-0.36972 0.20451,-0.89789 0.20451,-1.26761 0,-0.89789 -0.66045,-1.53846 -1.57143,-1.53846 -1.20171,0 -2.28422,0.77915 -3.26158,2.38353 0.0664,-0.32366 0.0993,-0.60761 0.0993,-0.81211 0,-0.89789 -0.71326,-1.57142 -1.63732,-1.57142 -1.06944,0 -1.84227,0.59409 -3.03044,2.28424 l 0.49522,-2.28424"
     id="path105"
     style="stroke-width:0.422537" />
  <path
     class="Fingering"
     d="m 121.99379,542.81011 c -0.50832,0 -0.91099,0.40986 -0.91099,0.91692 0,0.49014 0.40267,0.91267 0.89789,0.91267 0.52142,0 0.92451,-0.40986 0.92451,-0.91267 0,-0.50706 -0.40309,-0.91692 -0.91141,-0.91692 m 0.30381,4.12399 -3.24171,0.25351 -0.0659,0.61266 h 0.40268 c 0.69338,0 0.96381,0.15213 0.96381,0.52398 0,0.16479 -0.033,0.35493 -0.1517,0.74364 l -0.98366,3.29583 c -0.3169,1.07747 -0.36972,1.31406 -0.36972,1.70282 0,0.59576 0.50831,1.04789 1.14888,1.04789 1.45226,0 2.44902,-1.50425 3.16226,-2.59864 l -0.52817,-0.29152 c -0.87803,1.33522 -1.58451,2.04509 -2.04001,2.04509 -0.17155,0 -0.2907,-0.15213 -0.2907,-0.35494 0,-0.1648 0.0663,-0.47323 0.20493,-0.94227 l 1.78902,-6.03805"
     id="path106"
     style="stroke-width:0.422537" />
  <path
     class="Fingering"
     d="m 720.81158,543.01716 c -0.51135,0 -0.91273,0.40986 -0.91273,0.91692 0,0.49014 0.40138,0.91268 0.90007,0.91268 0.51967,0 0.92105,-0.40987 0.92105,-0.91268 0,-0.50706 -0.40138,-0.91692 -0.90839,-0.91692 m 0.30414,4.12399 -3.24504,0.25351 -0.0633,0.61267 h 0.40146 c 0.69293,0 0.96337,0.15212 0.96337,0.51973 0,0.16479 -0.034,0.35918 -0.15215,0.74788 l -0.9845,3.29578 c -0.31688,1.07328 -0.36767,1.31411 -0.36767,1.70282 0,0.59158 0.50708,1.04794 1.14938,1.04794 1.45345,0 2.45068,-1.50425 3.16055,-2.59864 l -0.52813,-0.29152 c -0.87895,1.33098 -1.58455,2.04509 -2.04083,2.04509 -0.16908,0 -0.28737,-0.15213 -0.28737,-0.35494 0,-0.16479 0.0633,-0.47747 0.20279,-0.9465 l 1.79152,-6.03382"
     id="path107"
     style="stroke-width:0.422537" />
  <path
     class="Fingering"
     d="m 949.47599,254.84504 c -0.507,0 -0.9084,0.40944 -0.9084,0.91775 0,0.48887 0.4014,0.91141 0.8958,0.91141 0.524,0 0.9254,-0.40943 0.9254,-0.91141 0,-0.50831 -0.4014,-0.91775 -0.9128,-0.91775 m 0.3043,4.1265 -3.2408,0.25099 -0.063,0.61394 h 0.4014 c 0.693,0 0.9634,0.15169 0.9634,0.52141 0,0.16521 -0.034,0.35663 -0.1521,0.7462 l -0.9845,3.29452 c -0.3169,1.07621 -0.3676,1.31367 -0.3676,1.70325 0,0.59409 0.507,1.04959 1.1493,1.04959 1.4493,0 2.4465,-1.50508 3.1606,-2.60115 l -0.5282,-0.29027 c -0.8789,1.33353 -1.5845,2.04635 -2.0408,2.04635 -0.1691,0 -0.2916,-0.1517 -0.2916,-0.3562 0,-0.16522 0.067,-0.47536 0.2071,-0.94438 l 1.7873,-6.03425"
     id="path108"
     style="stroke-width:0.422537" />
  <path
     class="Fingering"
     d="m 235.32336,547.14115 -3.07647,0.25351 -0.053,0.61267 h 0.40944 c 0.67307,0 0.9439,0.15212 0.9439,0.53665 0,0.14787 -0.053,0.40561 -0.1386,0.73096 l -1.72307,5.8099 h 1.47212 l 0.69338,-2.3831 c 0.75928,-2.59016 2.29731,-4.54229 3.56497,-4.54229 0.44237,0 0.71321,0.2324 0.71321,0.65494 0,0.34226 -0.13861,1.04788 -0.34354,1.69014 l -1.34661,4.58031 h 1.46538 l 0.7263,-2.45071 c 0.42255,-1.40705 0.84508,-2.34932 1.38639,-3.0761 0.60758,-0.84508 1.47254,-1.39858 2.11268,-1.39858 0.42254,0 0.6604,0.21548 0.6604,0.62111 0,0.23664 -0.0857,0.60849 -0.23786,1.08171 l -0.77874,2.40426 c -0.45552,1.31406 -0.46904,1.41973 -0.46904,1.88872 0,0.70987 0.52185,1.1789 1.31411,1.1789 0.56114,0 1.1024,-0.27042 1.67663,-0.80281 0.35663,-0.34651 0.58776,-0.64651 1.28113,-1.65637 l -0.52185,-0.35918 c -0.878,1.32254 -1.50505,1.96062 -1.94067,1.96062 -0.18511,0 -0.35664,-0.18595 -0.35664,-0.42254 0,-0.15212 0.053,-0.33383 0.20451,-0.8324 l 1.0631,-3.27468 c 0.11872,-0.3676 0.20451,-0.89576 0.20451,-1.26761 0,-0.89577 -0.66002,-1.53803 -1.57143,-1.53803 -1.20128,0 -2.28421,0.78167 -3.26115,2.3831 0.0659,-0.32115 0.0989,-0.60424 0.0989,-0.8113 0,-0.89576 -0.71283,-1.5718 -1.63733,-1.5718 -1.06942,0 -1.84185,0.59577 -3.03046,2.28591 l 0.49523,-2.28591"
     id="path109"
     style="stroke-width:0.422537" />
  <path
     class="Fingering"
     d="m 775.40337,545.02847 -3.07605,0.2535 -0.0554,0.61267 h 0.40992 c 0.67182,0 0.94225,0.15213 0.94225,0.53664 0,0.14789 -0.0506,0.40563 -0.13522,0.73098 l -1.72395,5.80989 h 1.47037 l 0.69302,-2.3831 c 0.76058,-2.59015 2.29861,-4.54228 3.5662,-4.54228 0.44362,0 0.71406,0.2324 0.71406,0.65493 0,0.34226 -0.13941,1.04789 -0.3422,1.69015 l -1.34797,4.5803 h 1.46626 l 0.7268,-2.4507 c 0.4225,-1.40706 0.84508,-2.34932 1.38587,-3.0761 0.60424,-0.84508 1.47046,-1.39858 2.11268,-1.39858 0.42258,0 0.65923,0.21548 0.65923,0.6211 0,0.23664 -0.0846,0.60849 -0.23665,1.08172 l -0.78171,2.40426 c -0.45637,1.31405 -0.46903,1.41973 -0.46903,1.88871 0,0.70987 0.52394,1.17891 1.31411,1.17891 0.56192,0 1.10279,-0.27048 1.67744,-0.80282 0.35921,-0.3465 0.58731,-0.6465 1.28033,-1.65637 l -0.51975,-0.35918 c -0.87887,1.32255 -1.50424,1.96062 -1.94367,1.96062 -0.18174,0 -0.35493,-0.18595 -0.35493,-0.42254 0,-0.15212 0.0546,-0.33383 0.20705,-0.8324 l 1.06053,-3.27467 c 0.11829,-0.36761 0.20706,-0.89577 0.20706,-1.26762 0,-0.89576 -0.66334,-1.53802 -1.5718,-1.53802 -1.20422,0 -2.28595,0.78166 -3.26206,2.3831 0.0633,-0.32116 0.0972,-0.60425 0.0972,-0.8113 0,-0.89576 -0.71407,-1.5718 -1.63527,-1.5718 -1.06899,0 -1.84224,0.59576 -3.02952,2.28591 l 0.49435,-2.28591"
     id="path110"
     style="stroke-width:0.422537" />
  <path
     class="Fingering"
     d="m 368.30979,547.14115 -3.08029,0.25351 -0.0509,0.61267 h 0.40986 c 0.67179,0 0.94221,0.15212 0.94221,0.53665 0,0.14787 -0.0509,0.40561 -0.13939,0.73096 l -1.71974,5.8099 h 1.47042 l 0.69295,-2.3831 c 0.76056,-2.59016 2.29864,-4.54229 3.56625,-4.54229 0.44364,0 0.71406,0.2324 0.71406,0.65494 0,0.34226 -0.13945,1.04788 -0.34645,1.69014 l -1.3437,4.58031 h 1.46199 l 0.72678,-2.45071 c 0.42254,-1.40705 0.84507,-2.34932 1.3859,-3.0761 0.60844,-0.84508 1.47467,-1.39858 2.11269,-1.39858 0.42254,0 0.66337,0.21548 0.66337,0.62111 0,0.23664 -0.0887,0.60849 -0.24083,1.08171 l -0.77747,2.40426 c -0.45631,1.31406 -0.46904,1.41973 -0.46904,1.88872 0,0.70987 0.52396,1.1789 1.31411,1.1789 0.56198,0 1.10282,-0.27042 1.67748,-0.80281 0.35493,-0.34651 0.58733,-0.64651 1.28028,-1.65637 l -0.51973,-0.35918 c -0.87885,1.32254 -1.50844,1.96062 -1.94365,1.96062 -0.18171,0 -0.35493,-0.18595 -0.35493,-0.42254 0,-0.15212 0.0509,-0.33383 0.20281,-0.8324 l 1.0648,-3.27468 c 0.11829,-0.3676 0.20281,-0.89576 0.20281,-1.26761 0,-0.89577 -0.65918,-1.53803 -1.57185,-1.53803 -1.20001,0 -2.28167,0.78167 -3.25777,2.3831 0.0635,-0.32115 0.0972,-0.60424 0.0972,-0.8113 0,-0.89576 -0.71411,-1.5718 -1.63522,-1.5718 -1.07323,0 -1.84227,0.59577 -3.03379,2.28591 l 0.49856,-2.28591"
     id="path111"
     style="stroke-width:0.422537" />
  <path
     class="Fingering"
     d="m 661.78728,258.97154 -3.07604,0.25099 -0.0549,0.61394 h 0.40986 c 0.67604,0 0.94651,0.15169 0.94651,0.53493 0,0.15169 -0.0549,0.40902 -0.13945,0.73268 l -1.72398,5.80989 h 1.47467 l 0.69295,-2.38354 c 0.75636,-2.58803 2.29439,-4.54227 3.562,-4.54227 0.44364,0 0.71411,0.23113 0.71411,0.65367 0,0.34352 -0.13945,1.05001 -0.34226,1.69015 l -1.34789,4.58199 h 1.46618 l 0.72679,-2.44945 c 0.42253,-1.4062 0.84507,-2.35015 1.3859,-3.07649 0.60843,-0.84508 1.47042,-1.39987 2.11269,-1.39987 0.42253,0 0.65917,0.21803 0.65917,0.62071 0,0.23789 -0.0845,0.6076 -0.23664,1.08297 l -0.77747,2.40297 c -0.45631,1.31366 -0.46898,1.4193 -0.46898,1.88831 0,0.71282 0.51967,1.18184 1.31405,1.18184 0.55775,0 1.10282,-0.27085 1.67324,-0.80578 0.35918,-0.3431 0.59157,-0.64691 1.28452,-1.65677 l -0.52391,-0.35662 c -0.8789,1.32043 -1.50425,1.96058 -1.93946,1.96058 -0.18595,0 -0.35918,-0.18466 -0.35918,-0.42255 0,-0.15169 0.0549,-0.33634 0.20706,-0.83155 l 1.06055,-3.27466 c 0.12254,-0.36972 0.20706,-0.8979 0.20706,-1.26761 0,-0.8979 -0.65918,-1.53846 -1.57186,-1.53846 -1.2,0 -2.28591,0.77916 -3.26195,2.38353 0.0676,-0.32367 0.10138,-0.60761 0.10138,-0.81212 0,-0.89789 -0.71405,-1.57141 -1.63946,-1.57141 -1.06898,0 -1.84221,0.59408 -3.02955,2.28423 l 0.49433,-2.28423"
     id="path112"
     style="stroke-width:0.422537" />
  <path
     class="Fingering"
     d="m 941.89999,543.01716 c -0.5071,0 -0.9085,0.40986 -0.9085,0.91692 0,0.49014 0.4014,0.91268 0.8958,0.91268 0.524,0 0.9254,-0.40987 0.9254,-0.91268 0,-0.50706 -0.4014,-0.91692 -0.9127,-0.91692 m 0.3042,4.12399 -3.2408,0.25351 -0.067,0.61267 h 0.4056 c 0.6929,0 0.9634,0.15212 0.9634,0.51973 0,0.16479 -0.034,0.35918 -0.1521,0.74788 l -0.9846,3.29578 c -0.3169,1.07328 -0.3676,1.31411 -0.3676,1.70282 0,0.59158 0.5071,1.04794 1.1493,1.04794 1.4494,0 2.4466,-1.50425 3.1607,-2.59864 l -0.5283,-0.29152 c -0.8788,1.33098 -1.5845,2.04509 -2.0408,2.04509 -0.169,0 -0.2915,-0.15213 -0.2915,-0.35494 0,-0.16479 0.067,-0.47747 0.207,-0.9465 l 1.7873,-6.03382"
     id="path113"
     style="stroke-width:0.422537" />
  <path
     class="Fingering"
     d="m 885.77009,258.97154 -3.0803,0.25099 -0.051,0.61394 h 0.4098 c 0.6719,0 0.9423,0.15169 0.9423,0.53493 0,0.15169 -0.051,0.40902 -0.1395,0.73268 l -1.7197,5.80989 h 1.4704 l 0.6931,-2.38354 c 0.7605,-2.58803 2.2985,-4.54227 3.5662,-4.54227 0.4436,0 0.714,0.23113 0.714,0.65367 0,0.34352 -0.1394,1.05001 -0.3465,1.69015 l -1.3437,4.58199 h 1.4662 l 0.7226,-2.44945 c 0.4225,-1.4062 0.845,-2.35015 1.3902,-3.07649 0.6042,-0.84508 1.4704,-1.39987 2.1127,-1.39987 0.4225,0 0.6591,0.21803 0.6591,0.62071 0,0.23789 -0.089,0.6076 -0.2366,1.08297 l -0.7818,2.40297 c -0.4562,1.31366 -0.4689,1.4193 -0.4689,1.88831 0,0.71282 0.5239,1.18184 1.3141,1.18184 0.5619,0 1.1028,-0.27085 1.6774,-0.80578 0.3549,-0.3431 0.5874,-0.64691 1.2804,-1.65677 l -0.5198,-0.35662 c -0.8789,1.32043 -1.5085,1.96058 -1.9437,1.96058 -0.1817,0 -0.355,-0.18466 -0.355,-0.42255 0,-0.15169 0.051,-0.33634 0.2029,-0.83155 l 1.0648,-3.27466 c 0.1183,-0.36972 0.2028,-0.8979 0.2028,-1.26761 0,-0.8979 -0.6592,-1.53846 -1.5676,-1.53846 -1.2042,0 -2.2859,0.77916 -3.262,2.38353 0.063,-0.32367 0.097,-0.60761 0.097,-0.81212 0,-0.89789 -0.7141,-1.57141 -1.6352,-1.57141 -1.0733,0 -1.8423,0.59408 -3.0338,2.28423 l 0.4985,-2.28423"
     id="path114"
     style="stroke-width:0.422537" />
  <path
     class="Fingering"
     d="m 879.01799,545.02847 -3.0761,0.2535 -0.055,0.61267 h 0.4099 c 0.6762,0 0.9465,0.15213 0.9465,0.53664 0,0.14789 -0.055,0.40563 -0.1394,0.73098 l -1.724,5.80989 h 1.4705 l 0.6929,-2.3831 c 0.7606,-2.59015 2.2986,-4.54228 3.5662,-4.54228 0.4437,0 0.7142,0.2324 0.7142,0.65493 0,0.34226 -0.1395,1.04789 -0.3423,1.69015 l -1.3479,4.5803 h 1.4662 l 0.7268,-2.4507 c 0.4225,-1.40706 0.845,-2.34932 1.3859,-3.0761 0.6085,-0.84508 1.4704,-1.39858 2.1126,-1.39858 0.4226,0 0.6592,0.21548 0.6592,0.6211 0,0.23664 -0.084,0.60849 -0.2366,1.08172 l -0.7817,2.40426 c -0.4521,1.31405 -0.4648,1.41973 -0.4648,1.88871 0,0.70987 0.5197,1.17891 1.3099,1.17891 0.562,0 1.1028,-0.27048 1.6775,-0.80282 0.3591,-0.3465 0.5873,-0.6465 1.2802,-1.65637 l -0.5197,-0.35918 c -0.8789,1.32255 -1.5042,1.96062 -1.9395,1.96062 -0.1858,0 -0.359,-0.18595 -0.359,-0.42254 0,-0.15212 0.055,-0.33383 0.207,-0.8324 l 1.0606,-3.27467 c 0.1183,-0.36761 0.2069,-0.89577 0.2069,-1.26762 0,-0.89576 -0.6633,-1.53802 -1.5718,-1.53802 -1.2042,0 -2.2859,0.78166 -3.2619,2.3831 0.067,-0.32116 0.097,-0.60425 0.097,-0.8113 0,-0.89576 -0.7099,-1.5718 -1.6352,-1.5718 -1.069,0 -1.8423,0.59576 -3.0296,2.28591 l 0.4944,-2.28591"
     id="path115"
     style="stroke-width:0.422537" />
  <path
     class="Fingering"
     d="m 78.689214,547.14115 -3.0765,0.25351 -0.0528,0.61267 h 0.40944 c 0.67309,0 0.94395,0.15212 0.94395,0.53665 0,0.14787 -0.0528,0.40561 -0.1386,0.73096 l -1.72311,5.8099 h 1.47213 l 0.69338,-2.3831 c 0.7593,-2.59016 2.29734,-4.54229 3.56495,-4.54229 0.4424,0 0.71324,0.2324 0.71324,0.65494 0,0.34226 -0.13859,1.04788 -0.34352,1.69014 l -1.34663,4.58031 h 1.46535 l 0.72635,-2.45071 c 0.42254,-1.40705 0.84508,-2.34932 1.38635,-3.0761 0.60761,-0.84508 1.47254,-1.39858 2.11269,-1.39858 0.42253,0 0.66042,0.21548 0.66042,0.62111 0,0.23664 -0.0858,0.60849 -0.23789,1.08171 l -0.77873,2.40426 c -0.4555,1.31406 -0.46902,1.41973 -0.46902,1.88872 0,0.70987 0.52184,1.1789 1.31409,1.1789 0.56113,0 1.1024,-0.27042 1.67663,-0.80281 0.35662,-0.34651 0.58775,-0.64651 1.28113,-1.65637 l -0.52183,-0.35918 c -0.87804,1.32254 -1.50508,1.96062 -1.94072,1.96062 -0.18507,0 -0.35662,-0.18595 -0.35662,-0.42254 0,-0.15212 0.0528,-0.33383 0.20451,-0.8324 l 1.0631,-3.27468 c 0.11874,-0.3676 0.20452,-0.89576 0.20452,-1.26761 0,-0.89577 -0.66001,-1.53803 -1.57142,-1.53803 -1.20128,0 -2.28424,0.78167 -3.26115,2.3831 0.0659,-0.32115 0.0989,-0.60424 0.0989,-0.8113 0,-0.89576 -0.71282,-1.5718 -1.63732,-1.5718 -1.06944,0 -1.84185,0.59577 -3.03044,2.28591 l 0.49521,-2.28591"
     id="path116"
     style="stroke-width:0.422537" />
  <path
     class="Fingering"
     d="m 298.20747,543.01716 c -0.50828,0 -0.91141,0.40986 -0.91141,0.91692 0,0.49014 0.40313,0.91268 0.89788,0.91268 0.52185,0 0.9245,-0.40987 0.9245,-0.91268 0,-0.50706 -0.40265,-0.91692 -0.91097,-0.91692 m 0.30339,4.12399 -3.24127,0.25351 -0.0663,0.61267 h 0.40266 c 0.69338,0 0.96421,0.15212 0.96421,0.51973 0,0.16479 -0.0329,0.35918 -0.15206,0.74788 l -0.98368,3.29578 c -0.31692,1.07328 -0.36972,1.31411 -0.36972,1.70282 0,0.59158 0.50832,1.04794 1.14889,1.04794 1.45223,0 2.44943,-1.50425 3.16227,-2.59864 l -0.52821,-0.29152 c -0.878,1.33098 -1.58448,2.04509 -2.04,2.04509 -0.17152,0 -0.29029,-0.15213 -0.29029,-0.35494 0,-0.16479 0.0659,-0.47747 0.2045,-0.9465 l 1.78904,-6.03382"
     id="path117"
     style="stroke-width:0.422537" />
  <path
     class="Fingering"
     d="m 780.91324,258.97154 -3.07604,0.25099 -0.0506,0.61394 h 0.40984 c 0.67182,0 0.94225,0.15169 0.94225,0.53493 0,0.15169 -0.0546,0.40902 -0.13941,0.73268 l -1.72396,5.80989 h 1.47465 l 0.69294,-2.38354 c 0.76058,-2.58803 2.29861,-4.54227 3.56619,-4.54227 0.43952,0 0.70987,0.23113 0.70987,0.65367 0,0.34352 -0.13521,1.05001 -0.34219,1.69015 l -1.3479,4.58199 h 1.46618 l 0.72672,-2.44945 c 0.42259,-1.4062 0.84509,-2.35015 1.38596,-3.07649 0.60843,-0.84508 1.47472,-1.39987 2.11275,-1.39987 0.42251,0 0.65908,0.21803 0.65908,0.62071 0,0.23789 -0.0844,0.6076 -0.23657,1.08297 l -0.77744,2.40297 c -0.45637,1.31366 -0.46911,1.4193 -0.46911,1.88831 0,0.71282 0.51974,1.18184 1.31411,1.18184 0.562,0 1.10286,-0.27085 1.67752,-0.80578 0.35493,-0.3431 0.58731,-0.64691 1.28025,-1.65677 l -0.52394,-0.35662 c -0.87468,1.32043 -1.50416,1.96058 -1.9394,1.96058 -0.18593,0 -0.35494,-0.18466 -0.35494,-0.42255 0,-0.15169 0.0506,-0.33634 0.20279,-0.83155 l 1.0648,-3.27466 c 0.11829,-0.36972 0.20287,-0.8979 0.20287,-1.26761 0,-0.8979 -0.65923,-1.53846 -1.57189,-1.53846 -1.20002,0 -2.28175,0.77916 -3.26198,2.38353 0.0672,-0.32367 0.10143,-0.60761 0.10143,-0.81212 0,-0.89789 -0.71414,-1.57141 -1.63945,-1.57141 -1.069,0 -1.84232,0.59408 -3.0296,2.28423 l 0.49434,-2.28423"
     id="path118"
     style="stroke-width:0.422537" />
  <path
     class="Fingering"
     d="m 725.49749,254.84504 c -0.50708,0 -0.91265,0.40944 -0.91265,0.91775 0,0.48887 0.40557,0.91141 0.89999,0.91141 0.51967,0 0.92532,-0.40943 0.92532,-0.91141 0,-0.50831 -0.40565,-0.91775 -0.91266,-0.91775 m 0.30422,4.1265 -3.24085,0.25099 -0.068,0.61394 h 0.40146 c 0.69294,0 0.96337,0.15169 0.96337,0.52141 0,0.16521 -0.0301,0.35663 -0.15215,0.7462 l -0.9803,3.29452 c -0.3168,1.07621 -0.37179,1.31367 -0.37179,1.70325 0,0.59409 0.50701,1.04959 1.14931,1.04959 1.45352,0 2.45076,-1.50508 3.16055,-2.60115 l -0.52813,-0.29027 c -0.87468,1.33353 -1.58455,2.04635 -2.03664,2.04635 -0.17328,0 -0.29156,-0.1517 -0.29156,-0.3562 0,-0.16522 0.0672,-0.47536 0.20278,-0.94438 l 1.79161,-6.03425"
     id="path119"
     style="stroke-width:0.422537" />
  <path
     class="Fingering"
     d="m 996.49179,545.02847 -3.0761,0.2535 -0.051,0.61267 h 0.4099 c 0.6718,0 0.9423,0.15213 0.9423,0.53664 0,0.14789 -0.051,0.40563 -0.1395,0.73098 l -1.7239,5.80989 h 1.4746 l 0.693,-2.3831 c 0.7606,-2.59015 2.2986,-4.54228 3.5662,-4.54228 0.4394,0 0.7099,0.2324 0.7099,0.65493 0,0.34226 -0.1353,1.04789 -0.3423,1.69015 l -1.3479,4.5803 h 1.4662 l 0.7268,-2.4507 c 0.42251,-1.40706 0.84511,-2.34932 1.38581,-3.0761 0.6086,-0.84508 1.4748,-1.39858 2.1128,-1.39858 0.4225,0 0.6633,0.21548 0.6633,0.6211 0,0.23664 -0.089,0.60849 -0.2408,1.08172 l -0.7774,2.40426 c -0.4564,1.31405 -0.4691,1.41973 -0.4691,1.88871 0,0.70987 0.5198,1.17891 1.3141,1.17891 0.562,0 1.1028,-0.27048 1.6775,-0.80282 0.3549,-0.3465 0.5873,-0.6465 1.2802,-1.65637 l -0.5238,-0.35918 c -0.8747,1.32255 -1.5043,1.96062 -1.9395,1.96062 -0.1859,0 -0.3549,-0.18595 -0.3549,-0.42254 0,-0.15212 0.051,-0.33383 0.2028,-0.8324 l 1.0648,-3.27467 c 0.1182,-0.36761 0.2028,-0.89577 0.2028,-1.26762 0,-0.89576 -0.6591,-1.53802 -1.5718,-1.53802 -1.2,0 -2.2817,0.78166 -3.262,2.3831 0.067,-0.32116 0.1014,-0.60425 0.1014,-0.8113 0,-0.89576 -0.71411,-1.5718 -1.63951,-1.5718 -1.069,0 -1.8422,0.59576 -3.0296,2.28591 l 0.4945,-2.28591"
     id="path120"
     style="stroke-width:0.422537" />
  <metadata
     id="metadata120">
    <rdf:RDF>
      <cc:Work
         rdf:about="">
        <dc:title>frere_jacques</dc:title>
      </cc:Work>
    </rdf:RDF>
  </metadata>
</svg>
