<?xml version="1.0" encoding="UTF-8" standalone="no"?>
<svg
   width="297mm"
   height="210mm"
   viewBox="0 0 1122.5197 793.7008"
   version="1.2"
   id="svg448"
   sodipodi:docname="la_mere_michel.svg"
   inkscape:version="1.2.2 (b0a8486541, 2022-12-01)"
   xmlns:inkscape="http://www.inkscape.org/namespaces/inkscape"
   xmlns:sodipodi="http://sodipodi.sourceforge.net/DTD/sodipodi-0.dtd"
   xmlns="http://www.w3.org/2000/svg"
   xmlns:svg="http://www.w3.org/2000/svg"
   xmlns:rdf="http://www.w3.org/1999/02/22-rdf-syntax-ns#"
   xmlns:cc="http://creativecommons.org/ns#"
   xmlns:dc="http://purl.org/dc/elements/1.1/">
  <defs
     id="defs452" />
  <sodipodi:namedview
     id="namedview450"
     pagecolor="#ffffff"
     bordercolor="#000000"
     borderopacity="0.25"
     inkscape:showpageshadow="2"
     inkscape:pageopacity="0.0"
     inkscape:pagecheckerboard="0"
     inkscape:deskcolor="#d1d1d1"
     showgrid="false"
     inkscape:zoom="0.45813137"
     inkscape:cx="714.86046"
     inkscape:cy="485.66856"
     inkscape:window-width="1280"
     inkscape:window-height="651"
     inkscape:window-x="0"
     inkscape:window-y="32"
     inkscape:window-maximized="1"
     inkscape:current-layer="svg448"
     inkscape:document-units="mm" />
  <title
     id="title2">la_mere_michel</title>
  <desc
     id="desc4">Generated by MuseScore Studio 4.3.2</desc>
  <polyline
     class="StaffLines"
     fill="none"
     stroke="#000000"
     stroke-width="2.73"
     stroke-linejoin="bevel"
     points="336.599,634.199 2764.6,634.199"
     id="polyline6"
     transform="matrix(0.39255927,0,0,0.2981336,-31.874161,-26.427193)" />
  <polyline
     class="StaffLines"
     fill="none"
     stroke="#000000"
     stroke-width="2.73"
     stroke-linejoin="bevel"
     points="336.599,658.999 2764.6,658.999"
     id="polyline8"
     transform="matrix(0.39255927,0,0,0.2981336,-31.874161,-26.427193)" />
  <polyline
     class="StaffLines"
     fill="none"
     stroke="#000000"
     stroke-width="2.73"
     stroke-linejoin="bevel"
     points="336.599,683.799 2764.6,683.799"
     id="polyline10"
     transform="matrix(0.39255927,0,0,0.2981336,-31.874161,-26.427193)" />
  <polyline
     class="StaffLines"
     fill="none"
     stroke="#000000"
     stroke-width="2.73"
     stroke-linejoin="bevel"
     points="336.599,708.599 2764.6,708.599"
     id="polyline12"
     transform="matrix(0.39255927,0,0,0.2981336,-31.874161,-26.427193)" />
  <polyline
     class="StaffLines"
     fill="none"
     stroke="#000000"
     stroke-width="2.73"
     stroke-linejoin="bevel"
     points="336.599,733.399 2764.6,733.399"
     id="polyline14"
     transform="matrix(0.39255927,0,0,0.2981336,-31.874161,-26.427193)" />
  <polyline
     class="StaffLines"
     fill="none"
     stroke="#000000"
     stroke-width="2.73"
     stroke-linejoin="bevel"
     points="212.598,1192.2 2764.6,1192.2"
     id="polyline16"
     transform="matrix(0.39255927,0,0,0.2981336,-31.874161,-26.427193)" />
  <polyline
     class="StaffLines"
     fill="none"
     stroke="#000000"
     stroke-width="2.73"
     stroke-linejoin="bevel"
     points="212.598,1217 2764.6,1217"
     id="polyline18"
     transform="matrix(0.39255927,0,0,0.2981336,-31.874161,-26.427193)" />
  <polyline
     class="StaffLines"
     fill="none"
     stroke="#000000"
     stroke-width="2.73"
     stroke-linejoin="bevel"
     points="212.598,1241.8 2764.6,1241.8"
     id="polyline20"
     transform="matrix(0.39255927,0,0,0.2981336,-31.874161,-26.427193)" />
  <polyline
     class="StaffLines"
     fill="none"
     stroke="#000000"
     stroke-width="2.73"
     stroke-linejoin="bevel"
     points="212.598,1266.6 2764.6,1266.6"
     id="polyline22"
     transform="matrix(0.39255927,0,0,0.2981336,-31.874161,-26.427193)" />
  <polyline
     class="StaffLines"
     fill="none"
     stroke="#000000"
     stroke-width="2.73"
     stroke-linejoin="bevel"
     points="212.598,1291.4 2764.6,1291.4"
     id="polyline24"
     transform="matrix(0.39255927,0,0,0.2981336,-31.874161,-26.427193)" />
  <polyline
     class="StaffLines"
     fill="none"
     stroke="#000000"
     stroke-width="2.73"
     stroke-linejoin="bevel"
     points="212.598,1750.2 2764.6,1750.2"
     id="polyline26"
     transform="matrix(0.39255927,0,0,0.2981336,-31.874161,-26.427193)" />
  <polyline
     class="StaffLines"
     fill="none"
     stroke="#000000"
     stroke-width="2.73"
     stroke-linejoin="bevel"
     points="212.598,1775 2764.6,1775"
     id="polyline28"
     transform="matrix(0.39255927,0,0,0.2981336,-31.874161,-26.427193)" />
  <polyline
     class="StaffLines"
     fill="none"
     stroke="#000000"
     stroke-width="2.73"
     stroke-linejoin="bevel"
     points="212.598,1799.8 2764.6,1799.8"
     id="polyline30"
     transform="matrix(0.39255927,0,0,0.2981336,-31.874161,-26.427193)" />
  <polyline
     class="StaffLines"
     fill="none"
     stroke="#000000"
     stroke-width="2.73"
     stroke-linejoin="bevel"
     points="212.598,1824.6 2764.6,1824.6"
     id="polyline32"
     transform="matrix(0.39255927,0,0,0.2981336,-31.874161,-26.427193)" />
  <polyline
     class="StaffLines"
     fill="none"
     stroke="#000000"
     stroke-width="2.73"
     stroke-linejoin="bevel"
     points="212.598,1849.4 2764.6,1849.4"
     id="polyline34"
     transform="matrix(0.39255927,0,0,0.2981336,-31.874161,-26.427193)" />
  <polyline
     class="StaffLines"
     fill="none"
     stroke="#000000"
     stroke-width="2.73"
     stroke-linejoin="bevel"
     points="212.598,2308.2 2764.6,2308.2"
     id="polyline36"
     transform="matrix(0.39255927,0,0,0.2981336,-31.874161,-26.427193)" />
  <polyline
     class="StaffLines"
     fill="none"
     stroke="#000000"
     stroke-width="2.73"
     stroke-linejoin="bevel"
     points="212.598,2333 2764.6,2333"
     id="polyline38"
     transform="matrix(0.39255927,0,0,0.2981336,-31.874161,-26.427193)" />
  <polyline
     class="StaffLines"
     fill="none"
     stroke="#000000"
     stroke-width="2.73"
     stroke-linejoin="bevel"
     points="212.598,2357.8 2764.6,2357.8"
     id="polyline40"
     transform="matrix(0.39255927,0,0,0.2981336,-31.874161,-26.427193)" />
  <polyline
     class="StaffLines"
     fill="none"
     stroke="#000000"
     stroke-width="2.73"
     stroke-linejoin="bevel"
     points="212.598,2382.6 2764.6,2382.6"
     id="polyline42"
     transform="matrix(0.39255927,0,0,0.2981336,-31.874161,-26.427193)" />
  <polyline
     class="StaffLines"
     fill="none"
     stroke="#000000"
     stroke-width="2.73"
     stroke-linejoin="bevel"
     points="212.598,2407.4 2764.6,2407.4"
     id="polyline44"
     transform="matrix(0.39255927,0,0,0.2981336,-31.874161,-26.427193)" />
  <path
     class="Text"
     d="m 406.08853,52.41662 h -1.9 c -1.42499,5.902163 -3.36816,7.346027 -10.06129,7.443816 h -1.81362 c -2.59089,-0.065 -3.23862,-0.391154 -3.10908,-1.57446 v -16.52762 c 0,-1.639731 0,-1.737519 0.25517,-2.031192 0.34938,-0.330625 1.17375,-0.428413 3.63117,-0.461203 h 0.7812 v -1.54196 h -14.1714 v 1.54196 h 0.7812 c 2.45741,0.03276 3.28179,0.13051 3.62332,0.461203 0.26302,0.293673 0.26302,0.358654 0.26302,2.031192 V 57.36833 c 0,1.672231 0,1.73752 -0.26302,2.035663 -0.34153,0.326155 -1.16591,0.456443 -3.62332,0.456443 h -0.7812 v 1.541943 h 25.48103 l 0.90682,-8.985759 m 20.2796,-1.574733 c 0,-2.063385 -0.475,-3.116385 -1.73119,-3.90347 -1.42106,-0.885146 -3.53695,-1.309107 -6.30056,-1.309107 -4.87952,0 -8.4204,1.737537 -8.4204,4.131837 0,1.211318 0.99317,1.998693 2.50453,1.998693 1.37788,0 2.32786,-0.689586 2.32786,-1.672538 0,-0.423944 -0.21198,-0.885146 -0.6438,-1.341589 -0.263,-0.232854 -0.30618,-0.298143 -0.30618,-0.46122 0,-0.65678 1.73118,-1.248288 3.8039,-1.248288 1.37787,0 2.89315,0.330642 3.58013,0.819875 0.82437,0.526201 1.12272,1.313576 1.12272,2.79023 v 1.276317 c -4.48695,0.591781 -5.91193,0.852664 -8.02784,1.476944 -3.76072,1.052711 -5.52723,2.557395 -5.52723,4.658346 0,2.36151 2.41817,3.838471 6.26525,3.838471 2.97167,0 5.65285,-0.92244 7.51358,-2.594961 0.68698,1.672521 1.76652,2.329318 3.79605,2.329318 1.94317,0 3.9727,-0.950452 3.9727,-1.900597 0,-0.228384 -0.1688,-0.395931 -0.43575,-0.395931 -0.1688,0 -0.34151,0.03736 -0.64379,0.135116 -0.60454,0.195577 -0.86363,0.228366 -1.20907,0.228366 -1.21302,0 -1.64091,-0.591797 -1.64091,-2.264028 v -6.591733 m -4.06299,4.001549 c 0,1.965886 -0.12555,2.427106 -0.85577,3.279463 -1.07955,1.211318 -3.02664,2.031192 -4.92663,2.031192 -1.98635,0 -3.41134,-1.08074 -3.41134,-2.557394 0,-1.374396 0.90682,-2.361817 2.80288,-3.046627 1.34255,-0.461202 3.02663,-0.787374 6.39086,-1.215788 v 1.509154 m 29.33989,-8.724876 -7.68631,0.363124 v 1.411655 h 1.77436 c 1.63697,0.03241 1.84896,0.228077 1.84896,1.639749 v 9.377186 c -0.0432,0.493719 -0.0825,0.689279 -0.25517,0.852373 -0.30227,0.293656 -1.12271,0.428704 -2.98345,0.461203 h -0.1688 v 1.178529 h 10.88174 v -1.178529 h -0.17272 c -2.85392,-0.06978 -3.23861,-0.232836 -3.23861,-1.444154 v -6.069711 c 0,-2.916031 2.11589,-5.082272 4.92268,-5.082272 2.46135,0 3.71361,1.346366 3.71361,4.001549 v 7.313511 c -0.0432,0.42872 -0.0864,0.65678 -0.30227,0.819874 -0.25515,0.293656 -1.12271,0.428704 -2.97952,0.461203 h -0.17273 v 1.178529 h 10.92494 v -1.178529 h -0.17273 c -2.84999,-0.06978 -3.23862,-0.232836 -3.23862,-1.411365 v -5.804357 c 0,-3.27948 1.94317,-5.380415 4.96195,-5.380415 2.46527,0 3.67436,1.411655 3.67436,4.364963 v 6.917598 c -0.0432,0.461219 -0.0864,0.689279 -0.29835,0.852373 -0.26694,0.293656 -1.12272,0.428704 -2.98346,0.461203 h -0.17271 v 1.178529 h 10.92492 v -1.178529 h -0.1688 c -2.8539,-0.06978 -3.23861,-0.232836 -3.23861,-1.444154 v -7.443799 c 0,-2.035663 -0.26695,-2.725249 -1.38967,-3.838472 -1.24834,-1.211318 -3.01485,-1.868115 -5.08756,-1.868115 -2.81072,0 -4.88345,1.015452 -6.74417,3.27948 -0.73016,-1.970373 -3.06589,-3.27948 -5.95512,-3.27948 -2.63801,0 -4.53407,0.950453 -6.21814,3.013837 v -2.524587 m 44.29638,-2.259252 -6.04149,-4.593347 c -1.07953,-0.819874 -1.51527,-1.015451 -2.15907,-1.015451 -0.86363,0 -1.51528,0.489233 -1.51528,1.146029 0,0.461203 0.43574,0.950146 1.07953,1.281077 l 6.8698,3.181692 h 1.76651 m 5.57434,10.164254 c 0.0432,-4.919195 -3.63117,-8.394252 -8.89931,-8.394252 -5.52725,0 -9.67266,3.638135 -9.67266,8.557329 0,4.625846 3.93344,7.709749 9.75902,7.709749 4.14543,0 7.04251,-1.54196 8.81295,-4.658345 l -1.51135,-0.624298 c -1.76651,2.524895 -3.58406,3.507557 -6.47723,3.507557 -2.20226,0 -3.79997,-0.68452 -4.92269,-2.161481 -0.77727,-0.982644 -1.12272,-2.133433 -1.07954,-3.936259 h 13.99081 m -13.94763,-1.411365 c 0,-2.296511 1.38182,-5.575991 5.00514,-5.575991 2.59481,0 4.31814,1.742296 4.31814,4.397479 0,0.917646 -0.3847,1.178512 -1.76651,1.178512 h -7.55677 m 24.00893,-6.493637 -7.64313,0.363124 v 1.411655 h 1.76652 c 1.64482,0.03241 1.86073,0.228077 1.86073,1.639749 v 9.377186 c -0.0432,0.493719 -0.0864,0.689279 -0.25909,0.852373 -0.30228,0.293656 -1.1659,0.428704 -3.02272,0.461203 h -0.17271 v 1.178529 h 11.52946 v -1.178529 h -0.77727 c -2.89708,-0.06978 -3.28179,-0.232836 -3.28179,-1.411365 v -1.770309 c 0.0432,-5.510702 2.63015,-9.707828 5.99831,-9.838406 -0.60062,0.521732 -0.77335,0.852647 -0.77335,1.472184 0,1.052694 0.99318,1.807279 2.37499,1.807279 1.59378,0 2.63015,-0.884856 2.63015,-2.19874 0,-1.606942 -1.46426,-2.655183 -3.75288,-2.655183 -2.72436,0 -5.05616,1.639749 -6.47722,4.55578 v -4.06653 m 30.37231,7.905002 c 0.0432,-4.919195 -3.63117,-8.394252 -8.89932,-8.394252 -5.52724,0 -9.67265,3.638135 -9.67265,8.557329 0,4.625846 3.93343,7.709749 9.75901,7.709749 4.14543,0 7.04252,-1.54196 8.81296,-4.658345 L 540.438,56.613796 c -1.76651,2.524895 -3.58406,3.507557 -6.47722,3.507557 -2.20226,0 -3.79997,-0.68452 -4.9227,-2.161481 -0.77726,-0.982644 -1.12272,-2.133433 -1.07953,-3.936259 h 13.99081 m -13.94763,-1.411365 c 0,-2.296511 1.3818,-5.575991 5.00512,-5.575991 2.59483,0 4.31816,1.742296 4.31816,4.397479 0,0.917646 -0.38471,1.178512 -1.76652,1.178512 h -7.55676 m 40.0175,-14.888196 h -11.13692 v 1.54196 h 0.82044 c 2.46135,0.03276 3.28181,0.13051 3.58015,0.461203 0.31013,0.293673 0.31013,0.326155 0.31013,2.031193 v 12.558877 c 0,4.462462 -0.82438,5.380414 -5.01299,5.543202 v 1.541943 h 12.30281 v -1.541943 c -4.14543,-0.162753 -4.96194,-1.08074 -4.96194,-5.543202 V 39.825004 L 574.1981,61.40243 h 1.72726 l 9.62948,-21.577426 v 17.543378 c 0,1.672231 0,1.73752 -0.25516,2.068451 -0.34937,0.325865 -1.17375,0.423654 -3.63118,0.423654 h -0.78119 v 1.541943 h 14.17139 v -1.541943 h -0.78119 c -2.45742,0 -3.2818,-0.09775 -3.63117,-0.423654 -0.25516,-0.330931 -0.25516,-0.363431 -0.25516,-2.068451 V 41.758408 c 0,-1.672538 0,-1.73752 0.25516,-2.031193 0.34937,-0.330625 1.17375,-0.428413 3.63117,-0.461203 h 0.78119 v -1.54196 H 584.22014 L 576.314,55.202141 568.01923,37.724052 m 35.29892,0.228384 c -1.37789,0 -2.5006,0.852357 -2.5006,1.905357 0,1.047951 1.12271,1.900615 2.45742,1.900615 1.42891,0 2.55163,-0.852664 2.55163,-1.900615 0,-1.053 -1.12272,-1.905357 -2.50845,-1.905357 m 2.02952,8.166175 -8.11419,0.363124 v 1.411655 h 2.20225 c 1.63698,0.03241 1.85289,0.228077 1.85289,1.639749 v 9.377186 c -0.0432,0.493719 -0.0864,0.689279 -0.25909,0.852373 -0.29835,0.293656 -1.1188,0.428704 -2.97953,0.461203 h -0.29835 v 1.178529 h 11.18794 v -1.178529 h -0.31011 c -2.88924,-0.06978 -3.28181,-0.232836 -3.28181,-1.411365 V 46.118611 m 21.55544,10.462396 c -1.37788,2.361817 -2.84605,3.312269 -5.09149,3.312269 -3.45059,0 -5.60967,-2.394316 -5.60967,-6.228318 0,-4.001548 2.11588,-6.628701 5.30347,-6.628701 1.29937,0 2.42208,0.461219 2.42208,0.987421 0,0.09775 -0.0432,0.195884 -0.263,0.391444 -0.68698,0.624297 -0.85971,0.950162 -0.85971,1.509153 0,1.080741 1.07954,1.835616 2.59089,1.835616 1.55846,0 2.63801,-0.917953 2.63801,-2.226752 0,-2.23153 -2.8971,-3.903778 -6.74418,-3.903778 -5.60967,0 -9.62948,3.475057 -9.62948,8.394252 0,4.658345 3.67436,7.872826 9.02886,7.872826 3.83923,0 6.04149,-1.346383 7.90222,-4.821423 l -1.688,-0.494009 m 10.77182,-19.350657 -7.98858,0.363431 v 1.411365 h 2.07664 c 1.63697,0.03276 1.84895,0.228367 1.84895,1.639732 v 18.297946 c -0.0393,0.46122 -0.0824,0.65678 -0.25516,0.819874 -0.30226,0.293656 -1.12272,0.428704 -2.98345,0.461203 h -0.1688 v 1.178529 h 10.92492 v -1.178529 h -0.17271 c -2.8971,-0.06978 -3.28181,-0.232836 -3.28181,-1.411365 v -4.853905 c 0,-1.607249 0.29835,-3.083903 0.77728,-3.838471 0.94998,-1.476962 2.84604,-2.492396 4.70678,-2.492396 1.12272,0 2.41424,0.493703 3.02271,1.150789 0.69482,0.717309 0.99317,1.704731 0.99317,3.311963 v 6.852308 c -0.0432,0.46122 -0.0864,0.65678 -0.25517,0.819874 -0.31011,0.293656 -1.17375,0.428704 -3.02662,0.461203 h -0.17273 v 1.178529 h 10.92492 v -1.178529 h -0.1688 c -2.8539,-0.06978 -3.23861,-0.232836 -3.23861,-1.411365 v -6.591732 c 0,-2.36151 -0.1374,-2.953308 -0.91073,-4.066548 -1.07955,-1.607232 -3.23863,-2.524895 -5.83344,-2.524895 -2.80287,0 -4.87559,0.950453 -6.81876,3.149192 V 37.230299 m 37.74459,16.793263 c 0.0432,-4.919195 -3.63119,-8.394252 -8.89933,-8.394252 -5.52723,0 -9.67266,3.638135 -9.67266,8.557329 0,4.625846 3.93344,7.709749 9.75902,7.709749 4.14543,0 7.04251,-1.54196 8.81297,-4.658345 l -1.51137,-0.624298 c -1.76651,2.524895 -3.58406,3.507557 -6.47722,3.507557 -2.20226,0 -3.79997,-0.68452 -4.9227,-2.161481 -0.77727,-0.982644 -1.12271,-2.133433 -1.07953,-3.936259 h 13.99082 m -13.94764,-1.411365 c 0,-2.296512 1.38181,-5.575992 5.00513,-5.575992 2.59482,0 4.31815,1.742297 4.31815,4.39748 0,0.917646 -0.38471,1.178512 -1.76651,1.178512 h -7.55677 m 23.09034,-15.381898 -7.98859,0.363431 v 1.411365 h 2.1159 c 1.59771,0.03276 1.80969,0.228367 1.80969,1.639732 v 18.265446 c -0.0432,0.49372 -0.0864,0.68928 -0.25516,0.852374 -0.30227,0.293656 -1.12271,0.428703 -2.98345,0.461203 h -0.29834 v 1.178529 h 11.18008 V 60.22385 h -0.29834 c -2.88923,-0.06978 -3.28179,-0.232836 -3.28179,-1.411365 V 37.230299 m 13.73957,0 -7.98858,0.363431 v 1.411365 h 2.1159 c 1.59771,0.03276 1.80969,0.228367 1.80969,1.639732 v 18.265446 c -0.0432,0.49372 -0.0864,0.68928 -0.25516,0.852374 -0.30227,0.293656 -1.12273,0.428703 -2.98346,0.461203 h -0.29833 v 1.178529 h 11.18008 V 60.22385 h -0.29834 c -2.88923,-0.06978 -3.2818,-0.232836 -3.2818,-1.411365 V 37.230299 m 25.00996,16.793263 c 0.0432,-4.919195 -3.63119,-8.394252 -8.89933,-8.394252 -5.52723,0 -9.67266,3.638135 -9.67266,8.557329 0,4.625846 3.93344,7.709749 9.75902,7.709749 4.14543,0 7.04251,-1.54196 8.81297,-4.658345 l -1.51137,-0.624298 c -1.76651,2.524895 -3.58406,3.507557 -6.47722,3.507557 -2.20226,0 -3.79997,-0.68452 -4.9227,-2.161481 -0.77726,-0.982644 -1.12271,-2.133433 -1.07953,-3.936259 h 13.99082 m -13.94764,-1.411365 c 0,-2.296512 1.38181,-5.575992 5.00513,-5.575992 2.59482,0 4.31815,1.742297 4.31815,4.39748 0,0.917646 -0.38471,1.178512 -1.76651,1.178512 h -7.55677"
     id="path46"
     style="stroke-width:0.342104" />
  <path
     class="MeasureNumber"
     d="m 58.39798,638.49718 h -0.454193 c -0.864804,0.48894 -2.526901,0.90335 -3.661793,0.90335 l -0.183716,0.52768 h 1.079547 c 0.956662,0 1.066978,0.0208 1.066978,0.23554 0,0.1073 0,0.1073 -0.153106,0.53664 l -1.680943,4.77014 c -0.208438,0.59627 -0.220618,0.63204 -0.361544,0.73937 -0.159772,0.11618 -0.490692,0.15507 -1.318997,0.16992 h -0.67481 l -0.07968,0.5575 h 5.808707 l 0.09229,-0.5575 h -0.846749 c -1.01791,0 -1.238917,-0.0626 -1.238917,-0.32198 0,-0.0834 0.06117,-0.36075 0.140926,-0.58733 l 2.466056,-6.97335 m 6.937307,0.0447 c -3.37365,0 -5.05419,3.53289 -5.05419,5.62877 0,1.72918 1.134489,2.94258 2.735352,2.94258 2.680395,0 5.084814,-2.64445 5.084814,-5.60194 0,-1.77688 -1.116045,-2.96941 -2.765976,-2.96941 m -0.01207,0.47702 c 0.815736,0 1.25736,0.54856 1.25736,1.57415 0,1.16868 -0.392556,2.68319 -1.036353,3.9115 -0.754503,1.49068 -1.508991,2.13465 -2.453501,2.13465 -0.846347,0 -1.318997,-0.57242 -1.318997,-1.58309 0,-1.5503 0.723878,-3.62829 1.730011,-5.00864 0.484414,-0.67081 1.116046,-1.02857 1.82148,-1.02857"
     id="path48"
     style="stroke-width:0.342104" />
  <path
     class="MeasureNumber"
     d="m 60.017287,305.7801 h -0.852638 l -7.31142,5.74801 v 0.49788 h 4.422184 l -0.251241,0.72744 c -0.312865,0.90633 -0.312865,0.90633 -1.680541,0.90633 h -0.282254 l -0.09229,0.5605 h 4.882655 l 0.07968,-0.5605 h -0.282254 c -1.036354,0 -1.257374,-0.0595 -1.257374,-0.319 0,-0.0984 0.03058,-0.21465 0.159383,-0.58733 l 0.263797,-0.72744 h 1.791259 l 0.233173,-0.64397 h -1.803412 l 1.981239,-5.60192 m -3.50241,5.60192 h -3.520867 l 4.851642,-3.78927 -1.330775,3.78927"
     id="path50"
     style="stroke-width:0.342104" />
  <path
     class="MeasureNumber"
     d="m 59.606286,472.18335 c -0.834193,0.0715 -1.852492,0.12215 -2.729463,0.12215 -0.441638,0 -0.944898,-0.0154 -1.509004,-0.0358 -0.521316,-0.0239 -1.036743,-0.0478 -1.570239,-0.0715 l -0.392556,-0.0154 -1.521171,2.51625 0.576675,0.14603 0.380001,-0.47999 c 0.736044,-0.92719 1.079533,-1.05837 2.680784,-1.04943 h 2.655661 l -1.711165,1.86334 c -2.011863,2.14358 -2.011863,2.14358 -2.778531,3.0976 -0.693268,0.84968 -0.975509,1.37143 -0.975509,1.79774 0,0.42038 0.349766,0.67976 0.895817,0.67976 0.58255,0 0.876971,-0.21168 1.085422,-0.77217 0.785126,-2.24197 1.257374,-3.01711 3.434898,-5.69734 l 1.47838,-1.74109 v -0.36075"
     id="path52"
     style="stroke-width:0.342104" />
  <polyline
     class="BarLine"
     fill="none"
     stroke="#000000"
     stroke-width="4.46"
     stroke-linejoin="bevel"
     points="2762.37,632.835 2762.37,734.763"
     id="polyline54"
     transform="matrix(0.39255927,0,0,0.2981336,-31.874161,-26.427193)" />
  <polyline
     class="BarLine"
     fill="none"
     stroke="#000000"
     stroke-width="4.46"
     stroke-linejoin="bevel"
     points="1957.79,632.835 1957.79,734.763"
     id="polyline56"
     transform="matrix(0.39255927,0,0,0.2981336,-31.874161,-26.427193)" />
  <polyline
     class="BarLine"
     fill="none"
     stroke="#000000"
     stroke-width="4.46"
     stroke-linejoin="bevel"
     points="2762.37,1748.84 2762.37,1850.76"
     id="polyline58"
     transform="matrix(0.39255927,0,0,0.2981336,-31.874161,-26.427193)" />
  <polyline
     class="BarLine"
     fill="none"
     stroke="#000000"
     stroke-width="4.46"
     stroke-linejoin="bevel"
     points="1221.33,1748.84 1221.33,1850.76"
     id="polyline60"
     transform="matrix(0.39255927,0,0,0.2981336,-31.874161,-26.427193)" />
  <polyline
     class="BarLine"
     fill="none"
     stroke="#000000"
     stroke-width="4.46"
     stroke-linejoin="bevel"
     points="2762.37,1190.84 2762.37,1292.76"
     id="polyline62"
     transform="matrix(0.39255927,0,0,0.2981336,-31.874161,-26.427193)" />
  <polyline
     class="BarLine"
     fill="none"
     stroke="#000000"
     stroke-width="4.46"
     stroke-linejoin="bevel"
     points="2739.55,2306.84 2739.55,2408.77"
     id="polyline64"
     transform="matrix(0.39255927,0,0,0.2981336,-31.874161,-26.427193)" />
  <polyline
     class="BarLine"
     fill="none"
     stroke="#000000"
     stroke-width="13.64"
     stroke-linejoin="bevel"
     points="2757.78,2306.84 2757.78,2408.77"
     id="polyline66"
     transform="matrix(0.39255927,0,0,0.2981336,-31.874161,-26.427193)" />
  <polyline
     class="BarLine"
     fill="none"
     stroke="#000000"
     stroke-width="4.46"
     stroke-linejoin="bevel"
     points="1982.23,2306.84 1982.23,2408.77"
     id="polyline68"
     transform="matrix(0.39255927,0,0,0.2981336,-31.874161,-26.427193)" />
  <polyline
     class="BarLine"
     fill="none"
     stroke="#000000"
     stroke-width="4.46"
     stroke-linejoin="bevel"
     points="1969.77,1748.84 1969.77,1850.76"
     id="polyline70"
     transform="matrix(0.39255927,0,0,0.2981336,-31.874161,-26.427193)" />
  <polyline
     class="BarLine"
     fill="none"
     stroke="#000000"
     stroke-width="4.46"
     stroke-linejoin="bevel"
     points="1926.73,1190.84 1926.73,1292.76"
     id="polyline72"
     transform="matrix(0.39255927,0,0,0.2981336,-31.874161,-26.427193)" />
  <polyline
     class="BarLine"
     fill="none"
     stroke="#000000"
     stroke-width="4.46"
     stroke-linejoin="bevel"
     points="1138.43,2306.84 1138.43,2408.77"
     id="polyline74"
     transform="matrix(0.39255927,0,0,0.2981336,-31.874161,-26.427193)" />
  <polyline
     class="BarLine"
     fill="none"
     stroke="#000000"
     stroke-width="4.46"
     stroke-linejoin="bevel"
     points="1354.64,632.835 1354.64,734.763"
     id="polyline76"
     transform="matrix(0.39255927,0,0,0.2981336,-31.874161,-26.427193)" />
  <polyline
     class="BarLine"
     fill="none"
     stroke="#000000"
     stroke-width="4.46"
     stroke-linejoin="bevel"
     points="1091.09,1190.84 1091.09,1292.76"
     id="polyline78"
     transform="matrix(0.39255927,0,0,0.2981336,-31.874161,-26.427193)" />
  <polyline
     class="Stem"
     fill="none"
     stroke="#000000"
     stroke-width="2.48"
     stroke-linejoin="bevel"
     points="1992.19,1237.83 1992.19,1161.2"
     id="polyline80"
     transform="matrix(0.39255927,0,0,0.2981336,-31.874161,-26.427193)" />
  <polyline
     class="Stem"
     fill="none"
     stroke="#000000"
     stroke-width="2.48"
     stroke-linejoin="bevel"
     points="2107.96,1262.63 2107.96,1161.2"
     id="polyline82"
     transform="matrix(0.39255927,0,0,0.2981336,-31.874161,-26.427193)" />
  <polyline
     class="Stem"
     fill="none"
     stroke="#000000"
     stroke-width="2.48"
     stroke-linejoin="bevel"
     points="2223.72,1225.43 2223.72,1161.2"
     id="polyline84"
     transform="matrix(0.39255927,0,0,0.2981336,-31.874161,-26.427193)" />
  <polyline
     class="Stem"
     fill="none"
     stroke="#000000"
     stroke-width="2.48"
     stroke-linejoin="bevel"
     points="2339.48,1237.83 2339.48,1161.2"
     id="polyline86"
     transform="matrix(0.39255927,0,0,0.2981336,-31.874161,-26.427193)" />
  <polyline
     class="Stem"
     fill="none"
     stroke="#000000"
     stroke-width="2.48"
     stroke-linejoin="bevel"
     points="615.529,704.631 615.529,634.199"
     id="polyline88"
     transform="matrix(0.39255927,0,0,0.2981336,-31.874161,-26.427193)" />
  <polyline
     class="Stem"
     fill="none"
     stroke="#000000"
     stroke-width="2.48"
     stroke-linejoin="bevel"
     points="2455.24,1250.23 2455.24,1173.6"
     id="polyline90"
     transform="matrix(0.39255927,0,0,0.2981336,-31.874161,-26.427193)" />
  <polyline
     class="Stem"
     fill="none"
     stroke="#000000"
     stroke-width="2.48"
     stroke-linejoin="bevel"
     points="2675.37,1250.23 2675.37,1173.8"
     id="polyline92"
     transform="matrix(0.39255927,0,0,0.2981336,-31.874161,-26.427193)" />
  <polyline
     class="Stem"
     fill="none"
     stroke="#000000"
     stroke-width="2.48"
     stroke-linejoin="bevel"
     points="711.513,704.631 711.513,634.199"
     id="polyline94"
     transform="matrix(0.39255927,0,0,0.2981336,-31.874161,-26.427193)" />
  <polyline
     class="Stem"
     fill="none"
     stroke="#000000"
     stroke-width="2.48"
     stroke-linejoin="bevel"
     points="1503.84,1237.83 1503.84,1173.62"
     id="polyline96"
     transform="matrix(0.39255927,0,0,0.2981336,-31.874161,-26.427193)" />
  <polyline
     class="Stem"
     fill="none"
     stroke="#000000"
     stroke-width="2.48"
     stroke-linejoin="bevel"
     points="807.497,704.631 807.497,634.199"
     id="polyline98"
     transform="matrix(0.39255927,0,0,0.2981336,-31.874161,-26.427193)" />
  <polyline
     class="Stem"
     fill="none"
     stroke="#000000"
     stroke-width="2.48"
     stroke-linejoin="bevel"
     points="406.922,1791.57 406.922,1868.05"
     id="polyline100"
     transform="matrix(0.39255927,0,0,0.2981336,-31.874161,-26.427193)" />
  <polyline
     class="Stem"
     fill="none"
     stroke="#000000"
     stroke-width="2.48"
     stroke-linejoin="bevel"
     points="903.481,704.631 903.481,634.199"
     id="polyline102"
     transform="matrix(0.39255927,0,0,0.2981336,-31.874161,-26.427193)" />
  <polyline
     class="Stem"
     fill="none"
     stroke="#000000"
     stroke-width="2.48"
     stroke-linejoin="bevel"
     points="508.599,1791.57 508.599,1872.15"
     id="polyline104"
     transform="matrix(0.39255927,0,0,0.2981336,-31.874161,-26.427193)" />
  <polyline
     class="Stem"
     fill="none"
     stroke="#000000"
     stroke-width="2.48"
     stroke-linejoin="bevel"
     points="999.465,704.631 999.465,634.172"
     id="polyline106"
     transform="matrix(0.39255927,0,0,0.2981336,-31.874161,-26.427193)" />
  <polyline
     class="Stem"
     fill="none"
     stroke="#000000"
     stroke-width="2.48"
     stroke-linejoin="bevel"
     points="610.275,1791.57 610.275,1876.25"
     id="polyline108"
     transform="matrix(0.39255927,0,0,0.2981336,-31.874161,-26.427193)" />
  <polyline
     class="Stem"
     fill="none"
     stroke="#000000"
     stroke-width="2.48"
     stroke-linejoin="bevel"
     points="711.952,1816.37 711.952,1880.35"
     id="polyline110"
     transform="matrix(0.39255927,0,0,0.2981336,-31.874161,-26.427193)" />
  <polyline
     class="Stem"
     fill="none"
     stroke="#000000"
     stroke-width="2.48"
     stroke-linejoin="bevel"
     points="1095.45,741.831 1095.45,632.123"
     id="polyline112"
     transform="matrix(0.39255927,0,0,0.2981336,-31.874161,-26.427193)" />
  <polyline
     class="Stem"
     fill="none"
     stroke="#000000"
     stroke-width="2.48"
     stroke-linejoin="bevel"
     points="843.381,1795.83 843.381,1731.6"
     id="polyline114"
     transform="matrix(0.39255927,0,0,0.2981336,-31.874161,-26.427193)" />
  <polyline
     class="Stem"
     fill="none"
     stroke="#000000"
     stroke-width="2.48"
     stroke-linejoin="bevel"
     points="1191.43,704.631 1191.43,630.074"
     id="polyline116"
     transform="matrix(0.39255927,0,0,0.2981336,-31.874161,-26.427193)" />
  <polyline
     class="Stem"
     fill="none"
     stroke="#000000"
     stroke-width="2.48"
     stroke-linejoin="bevel"
     points="945.058,1795.83 945.058,1731.6"
     id="polyline118"
     transform="matrix(0.39255927,0,0,0.2981336,-31.874161,-26.427193)" />
  <polyline
     class="Stem"
     fill="none"
     stroke="#000000"
     stroke-width="2.48"
     stroke-linejoin="bevel"
     points="1287.42,692.231 1287.42,628.025"
     id="polyline120"
     transform="matrix(0.39255927,0,0,0.2981336,-31.874161,-26.427193)" />
  <polyline
     class="Stem"
     fill="none"
     stroke="#000000"
     stroke-width="2.48"
     stroke-linejoin="bevel"
     points="1046.73,1795.83 1046.73,1731.6"
     id="polyline122"
     transform="matrix(0.39255927,0,0,0.2981336,-31.874161,-26.427193)" />
  <polyline
     class="Stem"
     fill="none"
     stroke="#000000"
     stroke-width="2.48"
     stroke-linejoin="bevel"
     points="1390.35,687.965 1390.35,758.199"
     id="polyline124"
     transform="matrix(0.39255927,0,0,0.2981336,-31.874161,-26.427193)" />
  <polyline
     class="Stem"
     fill="none"
     stroke="#000000"
     stroke-width="2.48"
     stroke-linejoin="bevel"
     points="1148.41,1820.63 1148.41,1731.6"
     id="polyline126"
     transform="matrix(0.39255927,0,0,0.2981336,-31.874161,-26.427193)" />
  <polyline
     class="Stem"
     fill="none"
     stroke="#000000"
     stroke-width="2.48"
     stroke-linejoin="bevel"
     points="1564.08,692.231 1564.08,615.599"
     id="polyline128"
     transform="matrix(0.39255927,0,0,0.2981336,-31.874161,-26.427193)" />
  <polyline
     class="Stem"
     fill="none"
     stroke="#000000"
     stroke-width="2.48"
     stroke-linejoin="bevel"
     points="1286.79,1808.23 1286.79,1731.6"
     id="polyline130"
     transform="matrix(0.39255927,0,0,0.2981336,-31.874161,-26.427193)" />
  <polyline
     class="Stem"
     fill="none"
     stroke="#000000"
     stroke-width="2.48"
     stroke-linejoin="bevel"
     points="1708.06,704.631 1708.06,621.799"
     id="polyline132"
     transform="matrix(0.39255927,0,0,0.2981336,-31.874161,-26.427193)" />
  <polyline
     class="Stem"
     fill="none"
     stroke="#000000"
     stroke-width="2.48"
     stroke-linejoin="bevel"
     points="1409.55,1779.17 1409.55,1861.8"
     id="polyline134"
     transform="matrix(0.39255927,0,0,0.2981336,-31.874161,-26.427193)" />
  <polyline
     class="Stem"
     fill="none"
     stroke="#000000"
     stroke-width="2.48"
     stroke-linejoin="bevel"
     points="1591.82,1820.63 1591.82,1750.2"
     id="polyline136"
     transform="matrix(0.39255927,0,0,0.2981336,-31.874161,-26.427193)" />
  <polyline
     class="Stem"
     fill="none"
     stroke="#000000"
     stroke-width="2.48"
     stroke-linejoin="bevel"
     points="1693.5,1820.63 1693.5,1750.2"
     id="polyline138"
     transform="matrix(0.39255927,0,0,0.2981336,-31.874161,-26.427193)" />
  <polyline
     class="Stem"
     fill="none"
     stroke="#000000"
     stroke-width="2.48"
     stroke-linejoin="bevel"
     points="1890.57,704.631 1890.57,621.997"
     id="polyline140"
     transform="matrix(0.39255927,0,0,0.2981336,-31.874161,-26.427193)" />
  <polyline
     class="Stem"
     fill="none"
     stroke="#000000"
     stroke-width="2.48"
     stroke-linejoin="bevel"
     points="1795.17,1820.63 1795.17,1750.2"
     id="polyline142"
     transform="matrix(0.39255927,0,0,0.2981336,-31.874161,-26.427193)" />
  <polyline
     class="Stem"
     fill="none"
     stroke="#000000"
     stroke-width="2.48"
     stroke-linejoin="bevel"
     points="1896.85,1833.03 1896.85,1750.2"
     id="polyline144"
     transform="matrix(0.39255927,0,0,0.2981336,-31.874161,-26.427193)" />
  <polyline
     class="Stem"
     fill="none"
     stroke="#000000"
     stroke-width="2.48"
     stroke-linejoin="bevel"
     points="2023.26,717.031 2023.26,640.372"
     id="polyline146"
     transform="matrix(0.39255927,0,0,0.2981336,-31.874161,-26.427193)" />
  <polyline
     class="Stem"
     fill="none"
     stroke="#000000"
     stroke-width="2.48"
     stroke-linejoin="bevel"
     points="2035.23,1845.43 2035.23,1762.6"
     id="polyline148"
     transform="matrix(0.39255927,0,0,0.2981336,-31.874161,-26.427193)" />
  <polyline
     class="Stem"
     fill="none"
     stroke="#000000"
     stroke-width="2.48"
     stroke-linejoin="bevel"
     points="2187.75,1845.43 2187.75,1775"
     id="polyline150"
     transform="matrix(0.39255927,0,0,0.2981336,-31.874161,-26.427193)" />
  <polyline
     class="Stem"
     fill="none"
     stroke="#000000"
     stroke-width="2.48"
     stroke-linejoin="bevel"
     points="2119.24,729.431 2119.24,638.323"
     id="polyline152"
     transform="matrix(0.39255927,0,0,0.2981336,-31.874161,-26.427193)" />
  <polyline
     class="Stem"
     fill="none"
     stroke="#000000"
     stroke-width="2.48"
     stroke-linejoin="bevel"
     points="2316.64,1845.43 2316.64,1775"
     id="polyline154"
     transform="matrix(0.39255927,0,0,0.2981336,-31.874161,-26.427193)" />
  <polyline
     class="Stem"
     fill="none"
     stroke="#000000"
     stroke-width="2.48"
     stroke-linejoin="bevel"
     points="2215.23,717.031 2215.23,636.274"
     id="polyline156"
     transform="matrix(0.39255927,0,0,0.2981336,-31.874161,-26.427193)" />
  <polyline
     class="Stem"
     fill="none"
     stroke="#000000"
     stroke-width="2.48"
     stroke-linejoin="bevel"
     points="2384.42,1845.43 2384.42,1750.2"
     id="polyline158"
     transform="matrix(0.39255927,0,0,0.2981336,-31.874161,-26.427193)" />
  <polyline
     class="Stem"
     fill="none"
     stroke="#000000"
     stroke-width="2.48"
     stroke-linejoin="bevel"
     points="2311.21,704.631 2311.21,634.225"
     id="polyline160"
     transform="matrix(0.39255927,0,0,0.2981336,-31.874161,-26.427193)" />
  <polyline
     class="Stem"
     fill="none"
     stroke="#000000"
     stroke-width="2.48"
     stroke-linejoin="bevel"
     points="2486.1,1833.03 2486.1,1750.2"
     id="polyline162"
     transform="matrix(0.39255927,0,0,0.2981336,-31.874161,-26.427193)" />
  <polyline
     class="Stem"
     fill="none"
     stroke="#000000"
     stroke-width="2.48"
     stroke-linejoin="bevel"
     points="2407.19,692.231 2407.19,615.599"
     id="polyline164"
     transform="matrix(0.39255927,0,0,0.2981336,-31.874161,-26.427193)" />
  <polyline
     class="Stem"
     fill="none"
     stroke="#000000"
     stroke-width="2.48"
     stroke-linejoin="bevel"
     points="2587.78,1820.63 2587.78,1750.2"
     id="polyline166"
     transform="matrix(0.39255927,0,0,0.2981336,-31.874161,-26.427193)" />
  <polyline
     class="Stem"
     fill="none"
     stroke="#000000"
     stroke-width="2.48"
     stroke-linejoin="bevel"
     points="2689.45,1845.43 2689.45,1750.2"
     id="polyline168"
     transform="matrix(0.39255927,0,0,0.2981336,-31.874161,-26.427193)" />
  <polyline
     class="Stem"
     fill="none"
     stroke="#000000"
     stroke-width="2.48"
     stroke-linejoin="bevel"
     points="2503.18,679.831 2503.18,615.599"
     id="polyline170"
     transform="matrix(0.39255927,0,0,0.2981336,-31.874161,-26.427193)" />
  <polyline
     class="Stem"
     fill="none"
     stroke="#000000"
     stroke-width="2.48"
     stroke-linejoin="bevel"
     points="436.674,2415.83 436.674,2333"
     id="polyline172"
     transform="matrix(0.39255927,0,0,0.2981336,-31.874161,-26.427193)" />
  <polyline
     class="Stem"
     fill="none"
     stroke="#000000"
     stroke-width="2.48"
     stroke-linejoin="bevel"
     points="2599.16,692.231 2599.16,615.599"
     id="polyline174"
     transform="matrix(0.39255927,0,0,0.2981336,-31.874161,-26.427193)" />
  <polyline
     class="Stem"
     fill="none"
     stroke="#000000"
     stroke-width="2.48"
     stroke-linejoin="bevel"
     points="609.623,2415.83 609.623,2339.2"
     id="polyline176"
     transform="matrix(0.39255927,0,0,0.2981336,-31.874161,-26.427193)" />
  <polyline
     class="Stem"
     fill="none"
     stroke="#000000"
     stroke-width="2.48"
     stroke-linejoin="bevel"
     points="2695.15,704.631 2695.15,615.599"
     id="polyline178"
     transform="matrix(0.39255927,0,0,0.2981336,-31.874161,-26.427193)" />
  <polyline
     class="Stem"
     fill="none"
     stroke="#000000"
     stroke-width="2.48"
     stroke-linejoin="bevel"
     points="755.785,2415.83 755.785,2339.2"
     id="polyline180"
     transform="matrix(0.39255927,0,0,0.2981336,-31.874161,-26.427193)" />
  <polyline
     class="Stem"
     fill="none"
     stroke="#000000"
     stroke-width="2.48"
     stroke-linejoin="bevel"
     points="832.651,2415.83 832.651,2333"
     id="polyline182"
     transform="matrix(0.39255927,0,0,0.2981336,-31.874161,-26.427193)" />
  <polyline
     class="Stem"
     fill="none"
     stroke="#000000"
     stroke-width="2.48"
     stroke-linejoin="bevel"
     points="1051.89,2415.83 1051.89,2333.2"
     id="polyline184"
     transform="matrix(0.39255927,0,0,0.2981336,-31.874161,-26.427193)" />
  <polyline
     class="Stem"
     fill="none"
     stroke="#000000"
     stroke-width="2.48"
     stroke-linejoin="bevel"
     points="436.674,1275.03 436.674,1192.2"
     id="polyline186"
     transform="matrix(0.39255927,0,0,0.2981336,-31.874161,-26.427193)" />
  <polyline
     class="Stem"
     fill="none"
     stroke="#000000"
     stroke-width="2.48"
     stroke-linejoin="bevel"
     points="1203.9,2378.63 1203.9,2295.8"
     id="polyline188"
     transform="matrix(0.39255927,0,0,0.2981336,-31.874161,-26.427193)" />
  <polyline
     class="Stem"
     fill="none"
     stroke="#000000"
     stroke-width="2.48"
     stroke-linejoin="bevel"
     points="610.318,1287.43 610.318,1204.6"
     id="polyline190"
     transform="matrix(0.39255927,0,0,0.2981336,-31.874161,-26.427193)" />
  <polyline
     class="Stem"
     fill="none"
     stroke="#000000"
     stroke-width="2.48"
     stroke-linejoin="bevel"
     points="1347.09,2361.97 1347.09,2432.2"
     id="polyline192"
     transform="matrix(0.39255927,0,0,0.2981336,-31.874161,-26.427193)" />
  <polyline
     class="Stem"
     fill="none"
     stroke="#000000"
     stroke-width="2.48"
     stroke-linejoin="bevel"
     points="783.962,1299.83 783.962,1217"
     id="polyline194"
     transform="matrix(0.39255927,0,0,0.2981336,-31.874161,-26.427193)" />
  <polyline
     class="Stem"
     fill="none"
     stroke="#000000"
     stroke-width="2.48"
     stroke-linejoin="bevel"
     points="1520.04,2337.17 1520.04,2419.87"
     id="polyline196"
     transform="matrix(0.39255927,0,0,0.2981336,-31.874161,-26.427193)" />
  <polyline
     class="Stem"
     fill="none"
     stroke="#000000"
     stroke-width="2.48"
     stroke-linejoin="bevel"
     points="1635.34,2349.57 1635.34,2426.02"
     id="polyline198"
     transform="matrix(0.39255927,0,0,0.2981336,-31.874161,-26.427193)" />
  <polyline
     class="Stem"
     fill="none"
     stroke="#000000"
     stroke-width="2.48"
     stroke-linejoin="bevel"
     points="1750.64,2361.97 1750.64,2432.18"
     id="polyline200"
     transform="matrix(0.39255927,0,0,0.2981336,-31.874161,-26.427193)" />
  <polyline
     class="Stem"
     fill="none"
     stroke="#000000"
     stroke-width="2.48"
     stroke-linejoin="bevel"
     points="1004.09,1299.83 1004.09,1217.2"
     id="polyline202"
     transform="matrix(0.39255927,0,0,0.2981336,-31.874161,-26.427193)" />
  <polyline
     class="Stem"
     fill="none"
     stroke="#000000"
     stroke-width="2.48"
     stroke-linejoin="bevel"
     points="1865.94,2374.37 1865.94,2438.33"
     id="polyline204"
     transform="matrix(0.39255927,0,0,0.2981336,-31.874161,-26.427193)" />
  <polyline
     class="Stem"
     fill="none"
     stroke="#000000"
     stroke-width="2.48"
     stroke-linejoin="bevel"
     points="1156.55,1250.23 1156.55,1179.78"
     id="polyline206"
     transform="matrix(0.39255927,0,0,0.2981336,-31.874161,-26.427193)" />
  <polyline
     class="Stem"
     fill="none"
     stroke="#000000"
     stroke-width="2.48"
     stroke-linejoin="bevel"
     points="2017.94,2386.77 2017.94,2444.51"
     id="polyline208"
     transform="matrix(0.39255927,0,0,0.2981336,-31.874161,-26.427193)" />
  <polyline
     class="Stem"
     fill="none"
     stroke="#000000"
     stroke-width="2.48"
     stroke-linejoin="bevel"
     points="2133.24,2337.17 2133.24,2436.31"
     id="polyline210"
     transform="matrix(0.39255927,0,0,0.2981336,-31.874161,-26.427193)" />
  <polyline
     class="Stem"
     fill="none"
     stroke="#000000"
     stroke-width="2.48"
     stroke-linejoin="bevel"
     points="1272.32,1250.23 1272.32,1177.73"
     id="polyline212"
     transform="matrix(0.39255927,0,0,0.2981336,-31.874161,-26.427193)" />
  <polyline
     class="Stem"
     fill="none"
     stroke="#000000"
     stroke-width="2.48"
     stroke-linejoin="bevel"
     points="2248.54,2337.17 2248.54,2428.1"
     id="polyline214"
     transform="matrix(0.39255927,0,0,0.2981336,-31.874161,-26.427193)" />
  <polyline
     class="Stem"
     fill="none"
     stroke="#000000"
     stroke-width="2.48"
     stroke-linejoin="bevel"
     points="1388.08,1250.23 1388.08,1175.67"
     id="polyline216"
     transform="matrix(0.39255927,0,0,0.2981336,-31.874161,-26.427193)" />
  <polyline
     class="Stem"
     fill="none"
     stroke="#000000"
     stroke-width="2.48"
     stroke-linejoin="bevel"
     points="2363.84,2337.17 2363.84,2419.89"
     id="polyline218"
     transform="matrix(0.39255927,0,0,0.2981336,-31.874161,-26.427193)" />
  <polyline
     class="Stem"
     fill="none"
     stroke="#000000"
     stroke-width="2.48"
     stroke-linejoin="bevel"
     points="2508.89,2378.63 2508.89,2295.8"
     id="polyline220"
     transform="matrix(0.39255927,0,0,0.2981336,-31.874161,-26.427193)" />
  <polyline
     class="Stem"
     fill="none"
     stroke="#000000"
     stroke-width="2.48"
     stroke-linejoin="bevel"
     points="1589.85,1233.57 1589.85,1310"
     id="polyline222"
     transform="matrix(0.39255927,0,0,0.2981336,-31.874161,-26.427193)" />
  <polyline
     class="Stem"
     fill="none"
     stroke="#000000"
     stroke-width="2.48"
     stroke-linejoin="bevel"
     points="1809.97,1233.57 1809.97,1309.9"
     id="polyline224"
     transform="matrix(0.39255927,0,0,0.2981336,-31.874161,-26.427193)" />
  <path
     class="Hook"
     d="m 678.15958,364.1001 c 0,0.20332 0.23121,0.38354 0.50501,0.38354 0.19472,0 0.43202,-0.1201 0.46854,-0.23568 0,-0.0324 0.3529,-1.06747 0.38941,-1.15526 0.0365,-0.1201 0.38942,-1.24307 1.78889,-2.98524 1.52117,-1.92237 3.85769,-3.31328 5.80477,-5.38356 1.94711,-2.07022 3.07889,-4.02494 3.07889,-6.62658 0,-2.68949 -0.77884,-4.93994 -2.88417,-7.80964 -0.11563,-0.20795 -0.35288,-0.32348 -0.58413,-0.32348 -0.0791,0 -0.15817,0 -0.19472,0.0278 -0.1947,0.06 -0.2738,0.18022 -0.2738,0.35582 0,0.0879 0.0426,0.20795 0.11563,0.35583 1.55768,2.74952 2.18436,4.31607 2.18436,6.44638 0,2.45379 -1.13175,3.72922 -1.83149,4.64422 -2.53122,3.28093 -6.62012,4.87983 -8.25689,5.29574 -0.27382,0.0601 -0.31032,0.23567 -0.31032,0.32348 v 6.68669"
     id="path226"
     style="stroke-width:0.339368" />
  <path
     class="Hook"
     d="m 361.80391,343.11582 c 0,0.0879 0.0365,0.26342 0.31032,0.32346 1.67328,0.41591 5.02594,2.01483 7.55716,5.29576 0.69973,0.915 1.83152,2.19041 1.83152,4.6442 0,2.13031 -0.70582,4.31607 -1.75238,6.4464 -0.0791,0.18021 -0.12166,0.32808 -0.12166,0.44361 0,0.20795 0.15814,0.29576 0.43196,0.29576 0.23122,0 0.42593,-0.1155 0.58413,-0.32348 1.75239,-2.366 2.41565,-5.12014 2.41565,-7.80964 -0.1947,-3.81697 -3.07888,-6.62658 -3.07888,-6.62658 0.11563,0 -3.58387,-3.63682 -4.63651,-4.87989 -1.43599,-1.68668 -2.09921,-3.36875 -2.17832,-3.48891 -0.0365,-0.0879 -0.38941,-1.15526 -0.38941,-1.15526 -0.0365,-0.11549 -0.23123,-0.23568 -0.46852,-0.23568 -0.27382,0 -0.50503,0.18022 -0.50503,0.38356 v 6.68669"
     id="path228"
     style="stroke-width:0.339368" />
  <path
     class="Hook"
     d="m 1017.8803,330.17681 c 0,0.0879 0.037,0.26344 0.3103,0.32347 1.6733,0.4159 5.026,2.01482 7.5572,5.29575 0.6997,0.915 1.8315,2.19041 1.8315,4.6442 0,2.13033 -0.7058,4.31609 -1.7524,6.4464 -0.079,0.18022 -0.1216,0.3281 -0.1216,0.44363 0,0.20795 0.1581,0.29574 0.4319,0.29574 0.2313,0 0.426,-0.1155 0.5842,-0.32346 1.7523,-2.366 2.4156,-5.12015 2.4156,-7.80966 -0.1947,-3.81697 -3.0789,-6.62658 -3.0789,-6.62658 0.1157,0 -3.5838,-3.63681 -4.6365,-4.87987 -1.436,-1.6867 -2.0992,-3.36876 -2.1783,-3.48891 -0.037,-0.0879 -0.3894,-1.15528 -0.3894,-1.15528 -0.037,-0.1155 -0.2312,-0.23567 -0.4685,-0.23567 -0.2738,0 -0.5051,0.18023 -0.5051,0.38355 v 6.68669"
     id="path230"
     style="stroke-width:0.339368" />
  <path
     class="Hook"
     d="m 709.79986,165.6664 c 0,0.0879 0.0365,0.26341 0.31031,0.32348 1.67329,0.41589 5.02593,2.0148 7.55716,5.29575 0.69974,0.91498 1.83152,2.19039 1.83152,4.6442 0,2.13031 -0.70581,4.31607 -1.75239,6.44638 -0.0791,0.18022 -0.12166,0.3281 -0.12166,0.44361 0,0.20798 0.15816,0.29576 0.43198,0.29576 0.23121,0 0.42591,-0.1155 0.58412,-0.32346 1.75238,-2.366 2.41566,-5.12015 2.41566,-7.80964 -0.19472,-3.81699 -3.07888,-6.6266 -3.07888,-6.6266 0.11562,0 -3.58388,-3.63679 -4.63653,-4.87986 -1.43598,-1.68669 -2.09921,-3.36877 -2.17831,-3.48892 -0.0365,-0.0879 -0.38942,-1.15526 -0.38942,-1.15526 -0.0365,-0.1155 -0.23122,-0.23569 -0.46852,-0.23569 -0.2738,0 -0.50502,0.18023 -0.50502,0.38357 v 6.68668"
     id="path232"
     style="stroke-width:0.339368" />
  <path
     class="Hook"
     d="m 380.56825,675.8329 c 0,0.0879 0.0365,0.26342 0.31031,0.32348 1.67329,0.41589 5.02593,2.01481 7.55715,5.29574 0.69975,0.915 1.83153,2.19042 1.83153,4.6442 0,2.13032 -0.70582,4.31609 -1.75239,6.4464 -0.0791,0.18022 -0.12166,0.3281 -0.12166,0.44362 0,0.20796 0.15816,0.29575 0.43198,0.29575 0.23121,0 0.42592,-0.1155 0.58412,-0.32348 1.75238,-2.36598 2.41566,-5.12014 2.41566,-7.80963 -0.19472,-3.81698 -3.07888,-6.62659 -3.07888,-6.62659 0.11563,0 -3.58387,-3.6368 -4.63653,-4.87989 -1.43597,-1.68668 -2.09921,-3.36875 -2.17831,-3.48889 -0.0365,-0.0879 -0.38942,-1.15528 -0.38942,-1.15528 -0.0365,-0.11549 -0.23121,-0.23566 -0.46852,-0.23566 -0.2738,0 -0.50501,0.18022 -0.50501,0.38354 v 6.68669"
     id="path234"
     style="stroke-width:0.339368" />
  <path
     class="Note"
     d="m 513.43385,178.67934 c 0,1.27079 1.20476,2.68947 4.3627,2.68947 4.04636,0 8.29341,-2.51387 8.29341,-5.11554 0,-1.74677 -1.94709,-2.7218 -4.36271,-2.7218 -3.77853,0 -8.2934,2.42605 -8.2934,5.14787"
     id="path236"
     style="stroke-width:0.339368" />
  <path
     class="Note"
     d="m 609.60695,674.05841 c 0,1.27079 1.20476,2.68946 4.3627,2.68946 4.04634,0 8.29341,-2.51386 8.29341,-5.11552 0,-1.74677 -1.9471,-2.72181 -4.36271,-2.72181 -3.77854,0 -8.2934,2.42605 -8.2934,5.14787"
     id="path238"
     style="stroke-width:0.339368" />
  <path
     class="Note"
     d="m 654.86903,677.75527 c 0,1.27079 1.20476,2.68945 4.36271,2.68945 4.04634,0 8.2934,-2.51385 8.2934,-5.11552 0,-1.74677 -1.9471,-2.7218 -4.3627,-2.7218 -3.77855,0 -8.29341,2.42605 -8.29341,5.14787"
     id="path240"
     style="stroke-width:0.339368" />
  <path
     class="Note"
     d="m 700.13111,681.45212 c 0,1.27079 1.20477,2.68946 4.36271,2.68946 4.04634,0 8.29341,-2.51386 8.29341,-5.11552 0,-1.74677 -1.9471,-2.72181 -4.36271,-2.72181 -3.77855,0 -8.29341,2.42605 -8.29341,5.14787"
     id="path242"
     style="stroke-width:0.339368" />
  <path
     class="Note"
     d="m 197.59126,186.07305 c 0,1.27079 1.20476,2.68947 4.36271,2.68947 4.04634,0 8.29342,-2.51387 8.29342,-5.11554 0,-1.74677 -1.9471,-2.7218 -4.36271,-2.7218 -3.77857,0 -8.29342,2.42605 -8.29342,5.14787"
     id="path244"
     style="stroke-width:0.339368" />
  <path
     class="Note"
     d="m 678.15958,341.34131 c 0,1.27081 1.20476,2.68948 4.3627,2.68948 4.04634,0 8.29341,-2.51388 8.29341,-5.11553 0,-1.74676 -1.9471,-2.72182 -4.36272,-2.72182 -3.77853,0 -8.29339,2.42607 -8.29339,5.14787"
     id="path246"
     style="stroke-width:0.339368" />
  <path
     class="Note"
     d="m 235.27067,186.07305 c 0,1.27079 1.20476,2.68947 4.3627,2.68947 4.04635,0 8.29343,-2.51387 8.29343,-5.11554 0,-1.74677 -1.94711,-2.7218 -4.36271,-2.7218 -3.77858,0 -8.29342,2.42605 -8.29342,5.14787"
     id="path248"
     style="stroke-width:0.339368" />
  <path
     class="Note"
     d="m 272.95008,186.07305 c 0,1.27079 1.20476,2.68947 4.3627,2.68947 4.04634,0 8.29342,-2.51387 8.29342,-5.11554 0,-1.74677 -1.9471,-2.7218 -4.36269,-2.7218 -3.77859,0 -8.29343,2.42605 -8.29343,5.14787"
     id="path250"
     style="stroke-width:0.339368" />
  <path
     class="Note"
     d="m 310.62948,186.07305 c 0,1.27079 1.20477,2.68947 4.36271,2.68947 4.04634,0 8.29342,-2.51387 8.29342,-5.11554 0,-1.74677 -1.94708,-2.7218 -4.36269,-2.7218 -3.77859,0 -8.29344,2.42605 -8.29344,5.14787"
     id="path252"
     style="stroke-width:0.339368" />
  <path
     class="Note"
     d="m 348.30889,186.07305 c 0,1.27079 1.20477,2.68947 4.36271,2.68947 4.04634,0 8.29341,-2.51387 8.29341,-5.11554 0,-1.74677 -1.94708,-2.7218 -4.36268,-2.7218 -3.77859,0 -8.29344,2.42605 -8.29344,5.14787"
     id="path254"
     style="stroke-width:0.339368" />
  <path
     class="Note"
     d="m 620.75956,518.79044 c 0,1.27079 1.20476,2.68945 4.3627,2.68945 4.04634,0 8.29341,-2.51385 8.29341,-5.11552 0,-1.74677 -1.9471,-2.7218 -4.36271,-2.7218 -3.77854,0 -8.2934,2.42605 -8.2934,5.14787"
     id="path256"
     style="stroke-width:0.339368" />
  <path
     class="Note"
     d="m 385.98948,197.16361 c 0,1.27081 1.20477,2.68948 4.36271,2.68948 4.04634,0 8.29341,-2.51388 8.29341,-5.11554 0,-1.74677 -1.9471,-2.72181 -4.36271,-2.72181 -3.77855,0 -8.29341,2.42607 -8.29341,5.14787"
     id="path258"
     style="stroke-width:0.339368" />
  <path
     class="Note"
     d="m 423.66732,186.07305 c 0,1.27079 1.20477,2.68947 4.36271,2.68947 4.04634,0 8.29341,-2.51387 8.29341,-5.11554 0,-1.74677 -1.94711,-2.7218 -4.36271,-2.7218 -3.77855,0 -8.29341,2.42605 -8.29341,5.14787"
     id="path260"
     style="stroke-width:0.339368" />
  <path
     class="Note"
     d="m 461.34516,182.37619 c 0,1.27079 1.20477,2.68948 4.36271,2.68948 4.04634,0 8.2934,-2.51388 8.2934,-5.11554 0,-1.74677 -1.9471,-2.72181 -4.3627,-2.72181 -3.77855,0 -8.29341,2.42605 -8.29341,5.14787"
     id="path262"
     style="stroke-width:0.339368" />
  <path
     class="Note"
     d="m 938.60695,178.67934 c 0,1.27079 1.20477,2.68947 4.36271,2.68947 4.04634,0 8.29339,-2.51387 8.29339,-5.11554 0,-1.74677 -1.94709,-2.7218 -4.36271,-2.7218 -3.77853,0 -8.29339,2.42605 -8.29339,5.14787"
     id="path264"
     style="stroke-width:0.339368" />
  <path
     class="Note"
     d="m 569.95454,182.37619 c 0,1.27079 1.20476,2.68948 4.3627,2.68948 4.04634,0 8.29341,-2.51388 8.29341,-5.11554 0,-1.74677 -1.9471,-2.72181 -4.36271,-2.72181 -3.77854,0 -8.2934,2.42605 -8.2934,5.14787"
     id="path266"
     style="stroke-width:0.339368" />
  <path
     class="Note"
     d="m 626.47129,186.07305 c 0,1.27079 1.20477,2.68947 4.36271,2.68947 4.04634,0 8.29341,-2.51387 8.29341,-5.11554 0,-1.74677 -1.9471,-2.7218 -4.36271,-2.7218 -3.77855,0 -8.29341,2.42605 -8.29341,5.14787"
     id="path268"
     style="stroke-width:0.339368" />
  <path
     class="Note"
     d="m 759.80013,685.14898 c 0,1.27079 1.20476,2.68945 4.3627,2.68945 4.04634,0 8.29341,-2.51385 8.29341,-5.11552 0,-1.74677 -1.9471,-2.7218 -4.36271,-2.7218 -3.77854,0 -8.2934,2.42606 -8.2934,5.14787"
     id="path270"
     style="stroke-width:0.339368" />
  <path
     class="Note"
     d="m 698.12121,186.07305 c 0,1.27079 1.20476,2.68947 4.36271,2.68947 4.04635,0 8.2934,-2.51387 8.2934,-5.11554 0,-1.74677 -1.94708,-2.7218 -4.3627,-2.7218 -3.77854,0 -8.29341,2.42605 -8.29341,5.14787"
     id="path272"
     style="stroke-width:0.339368" />
  <path
     class="Note"
     d="m 247.12243,515.09358 c 0,1.27079 1.20477,2.68946 4.3627,2.68946 4.04634,0 8.29342,-2.51386 8.29342,-5.11553 0,-1.74676 -1.94709,-2.72181 -4.3627,-2.72181 -3.77857,0 -8.29342,2.42606 -8.29342,5.14788"
     id="path274"
     style="stroke-width:0.339368" />
  <path
     class="Note"
     d="m 750.20991,189.7699 c 0,1.27079 1.20476,2.68948 4.3627,2.68948 4.04635,0 8.2934,-2.51388 8.2934,-5.11554 0,-1.74677 -1.94709,-2.72181 -4.36271,-2.72181 -3.77853,0 -8.29339,2.42605 -8.29339,5.14787"
     id="path276"
     style="stroke-width:0.339368" />
  <path
     class="Note"
     d="m 805.06221,670.36156 c 0,1.27079 1.20476,2.68945 4.36271,2.68945 4.04634,0 8.2934,-2.51386 8.2934,-5.11552 0,-1.74677 -1.9471,-2.72182 -4.3627,-2.72182 -3.77855,0 -8.29341,2.42607 -8.29341,5.14789"
     id="path278"
     style="stroke-width:0.339368" />
  <path
     class="Note"
     d="m 787.88775,193.46676 c 0,1.2708 1.20475,2.68947 4.3627,2.68947 4.04635,0 8.2934,-2.51387 8.2934,-5.11554 0,-1.74676 -1.94709,-2.7218 -4.36271,-2.7218 -3.77853,0 -8.29339,2.42605 -8.29339,5.14787"
     id="path280"
     style="stroke-width:0.339368" />
  <path
     class="Note"
     d="m 825.56557,189.7699 c 0,1.27079 1.20477,2.68948 4.36272,2.68948 4.04634,0 8.2934,-2.51388 8.2934,-5.11554 0,-1.74677 -1.94709,-2.72181 -4.36271,-2.72181 -3.77853,0 -8.29341,2.42605 -8.29341,5.14787"
     id="path282"
     style="stroke-width:0.339368" />
  <path
     class="Note"
     d="m 863.24734,186.07305 c 0,1.27079 1.20477,2.68947 4.36271,2.68947 4.04634,0 8.29341,-2.51387 8.29341,-5.11554 0,-1.74677 -1.9471,-2.7218 -4.36271,-2.7218 -3.77855,0 -8.29341,2.42605 -8.29341,5.14787"
     id="path284"
     style="stroke-width:0.339368" />
  <path
     class="Note"
     d="m 900.92518,182.37619 c 0,1.27079 1.20477,2.68948 4.36271,2.68948 4.04634,0 8.29341,-2.51388 8.29341,-5.11554 0,-1.74677 -1.94711,-2.72181 -4.36271,-2.72181 -3.77855,0 -8.29341,2.42605 -8.29341,5.14787"
     id="path286"
     style="stroke-width:0.339368" />
  <path
     class="Note"
     d="m 660.67106,518.79044 c 0,1.27079 1.20476,2.68945 4.3627,2.68945 4.04634,0 8.29341,-2.51385 8.29341,-5.11552 0,-1.74677 -1.9471,-2.7218 -4.36271,-2.7218 -3.77854,0 -8.2934,2.42605 -8.2934,5.14787"
     id="path288"
     style="stroke-width:0.339368" />
  <path
     class="Note"
     d="m 850.32429,670.36156 c 0,1.27079 1.20477,2.68945 4.36271,2.68945 4.04634,0 8.29341,-2.51386 8.29341,-5.11552 0,-1.74677 -1.9471,-2.72182 -4.36271,-2.72182 -3.77855,0 -8.29341,2.42607 -8.29341,5.14789"
     id="path290"
     style="stroke-width:0.339368" />
  <path
     class="Note"
     d="m 976.28479,182.37619 c 0,1.27079 1.20476,2.68948 4.36271,2.68948 4.04634,0 8.29339,-2.51388 8.29339,-5.11554 0,-1.74677 -1.94709,-2.72181 -4.36271,-2.72181 -3.77853,0 -8.29339,2.42605 -8.29339,5.14787"
     id="path292"
     style="stroke-width:0.339368" />
  <path
     class="Note"
     d="m 1013.9626,186.07305 c 0,1.27079 1.2047,2.68947 4.3627,2.68947 4.0463,0 8.2934,-2.51387 8.2934,-5.11554 0,-1.74677 -1.9471,-2.7218 -4.3627,-2.7218 -3.7786,0 -8.2934,2.42605 -8.2934,5.14787"
     id="path294"
     style="stroke-width:0.339368" />
  <path
     class="Note"
     d="m 1006.2017,348.73504 c 0,1.27079 1.2047,2.68946 4.3627,2.68946 4.0463,0 8.2934,-2.51386 8.2934,-5.11553 0,-1.74676 -1.9471,-2.72182 -4.3627,-2.72182 -3.7786,0 -8.2934,2.42607 -8.2934,5.14789"
     id="path296"
     style="stroke-width:0.339368" />
  <path
     class="Note"
     d="m 895.58638,670.36156 c 0,1.27079 1.20476,2.68945 4.3627,2.68945 4.04634,0 8.29341,-2.51386 8.29341,-5.11552 0,-1.74677 -1.9471,-2.72182 -4.36271,-2.72182 -3.77854,0 -8.2934,2.42607 -8.2934,5.14789"
     id="path298"
     style="stroke-width:0.339368" />
  <path
     class="Note"
     d="m 127.38007,356.12875 c 0,1.27079 1.20477,2.68946 4.36271,2.68946 4.04633,0 8.29342,-2.51386 8.29342,-5.11553 0,-1.74676 -1.9471,-2.72181 -4.36271,-2.72181 -3.77857,0 -8.29342,2.42606 -8.29342,5.14788"
     id="path300"
     style="stroke-width:0.339368" />
  <path
     class="Note"
     d="m 195.54563,359.82561 c 0,1.27079 1.20477,2.68945 4.36271,2.68945 4.04634,0 8.29342,-2.51385 8.29342,-5.11552 0,-1.74677 -1.9471,-2.72182 -4.36271,-2.72182 -3.77857,0 -8.29342,2.42607 -8.29342,5.14789"
     id="path302"
     style="stroke-width:0.339368" />
  <path
     class="Note"
     d="m 263.71119,363.52246 c 0,1.27079 1.20477,2.68946 4.36271,2.68946 4.04634,0 8.29342,-2.51386 8.29342,-5.11552 0,-1.74677 -1.9471,-2.72181 -4.36269,-2.72181 -3.77859,0 -8.29344,2.42605 -8.29344,5.14787"
     id="path304"
     style="stroke-width:0.339368" />
  <path
     class="Note"
     d="m 700.58649,522.48729 c 0,1.27079 1.20476,2.68946 4.3627,2.68946 4.04634,0 8.29341,-2.51386 8.29341,-5.11552 0,-1.74677 -1.9471,-2.72181 -4.36271,-2.72181 -3.77854,0 -8.2934,2.42605 -8.2934,5.14787"
     id="path306"
     style="stroke-width:0.339368" />
  <path
     class="Note"
     d="m 350.12292,363.52246 c 0,1.27079 1.20476,2.68946 4.3627,2.68946 4.04633,0 8.29341,-2.51386 8.29341,-5.11552 0,-1.74677 -1.9471,-2.72181 -4.36269,-2.72181 -3.77858,0 -8.29342,2.42605 -8.29342,5.14787"
     id="path308"
     style="stroke-width:0.339368" />
  <path
     class="Note"
     d="m 409.97485,348.73504 c 0,1.27079 1.20477,2.68946 4.36271,2.68946 4.04635,0 8.29341,-2.51386 8.29341,-5.11553 0,-1.74676 -1.94709,-2.72182 -4.36271,-2.72182 -3.77853,0 -8.29341,2.42607 -8.29341,5.14789"
     id="path310"
     style="stroke-width:0.339368" />
  <path
     class="Note"
     d="m 949.14187,680.00111 c -3.77855,0 -8.29341,2.39832 -8.29341,5.14787 0,1.27079 1.20476,2.68945 4.36271,2.68945 4.04634,0 8.2934,-2.51385 8.2934,-5.11552 0,-1.74677 -1.9471,-2.7218 -4.3627,-2.7218 m -5.37277,6.44638 c -1.28387,0 -1.55767,-0.79481 -1.55767,-1.06285 0,-1.45101 6.54102,-3.99259 8.3725,-3.99259 0.93708,0 1.55767,0.41589 1.55767,1.06285 0,1.47873 -6.58357,3.99259 -8.3725,3.99259"
     id="path312"
     style="stroke-width:0.339368" />
  <path
     class="Note"
     d="m 455.41751,348.73504 c 0,1.27079 1.20477,2.68946 4.36271,2.68946 4.04635,0 8.29341,-2.51386 8.29341,-5.11553 0,-1.74676 -1.94709,-2.72182 -4.36271,-2.72182 -3.77853,0 -8.29341,2.42607 -8.29341,5.14789"
     id="path314"
     style="stroke-width:0.339368" />
  <path
     class="Note"
     d="m 500.8641,348.73504 c 0,1.27079 1.20477,2.68946 4.36271,2.68946 4.04634,0 8.29341,-2.51386 8.29341,-5.11553 0,-1.74676 -1.9471,-2.72182 -4.36271,-2.72182 -3.77855,0 -8.29341,2.42607 -8.29341,5.14789"
     id="path316"
     style="stroke-width:0.339368" />
  <path
     class="Note"
     d="m 546.30676,345.03817 c 0,1.2708 1.20477,2.68947 4.36271,2.68947 4.04634,0 8.29341,-2.51386 8.29341,-5.11552 0,-1.74677 -1.9471,-2.72182 -4.36271,-2.72182 -3.77855,0 -8.29341,2.42606 -8.29341,5.14787"
     id="path318"
     style="stroke-width:0.339368" />
  <path
     class="Note"
     d="m 874.34499,345.03817 c 0,1.2708 1.20477,2.68947 4.36271,2.68947 4.04634,0 8.29341,-2.51386 8.29341,-5.11552 0,-1.74677 -1.9471,-2.72182 -4.36271,-2.72182 -3.77854,0 -8.29341,2.42606 -8.29341,5.14787"
     id="path320"
     style="stroke-width:0.339368" />
  <path
     class="Note"
     d="m 591.74942,341.34131 c 0,1.27081 1.20477,2.68948 4.36271,2.68948 4.04634,0 8.29341,-2.51388 8.29341,-5.11553 0,-1.74676 -1.9471,-2.72182 -4.36271,-2.72182 -3.77855,0 -8.29341,2.42607 -8.29341,5.14787"
     id="path322"
     style="stroke-width:0.339368" />
  <path
     class="Note"
     d="m 828.90233,341.34131 c 0,1.27081 1.20477,2.68948 4.36271,2.68948 4.04634,0 8.29341,-2.51388 8.29341,-5.11553 0,-1.74676 -1.9471,-2.72182 -4.36271,-2.72182 -3.77855,0 -8.29341,2.42607 -8.29341,5.14787"
     id="path324"
     style="stroke-width:0.339368" />
  <path
     class="Note"
     d="m 287.03668,511.39673 c 0,1.27078 1.20477,2.68945 4.3627,2.68945 4.04634,0 8.29342,-2.51386 8.29342,-5.11552 0,-1.74677 -1.94709,-2.72182 -4.3627,-2.72182 -3.77857,0 -8.29342,2.42607 -8.29342,5.14789"
     id="path326"
     style="stroke-width:0.339368" />
  <path
     class="Note"
     d="m 754.90883,526.18415 c 0,1.27079 1.20477,2.68945 4.36271,2.68945 4.04634,0 8.29341,-2.51385 8.29341,-5.11552 0,-1.74677 -1.9471,-2.7218 -4.36271,-2.7218 -3.77855,0 -8.29341,2.42605 -8.29341,5.14787"
     id="path328"
     style="stroke-width:0.339368" />
  <path
     class="Note"
     d="m 814.77805,526.18415 c 0,1.27079 1.20476,2.68945 4.3627,2.68945 4.04635,0 8.29341,-2.51385 8.29341,-5.11552 0,-1.74677 -1.9471,-2.7218 -4.3627,-2.7218 -3.77855,0 -8.29341,2.42605 -8.29341,5.14787"
     id="path330"
     style="stroke-width:0.339368" />
  <path
     class="Note"
     d="m 127.38007,507.69987 c 0,1.27079 1.20477,2.68946 4.36271,2.68946 4.04633,0 8.29342,-2.51386 8.29342,-5.11553 0,-1.74676 -1.9471,-2.72182 -4.36271,-2.72182 -3.77857,0 -8.29342,2.42607 -8.29342,5.14789"
     id="path332"
     style="stroke-width:0.339368" />
  <path
     class="Note"
     d="m 865.37894,526.18415 c 0,1.27079 1.20476,2.68945 4.3627,2.68945 4.04636,0 8.29341,-2.51385 8.29341,-5.11552 0,-1.74677 -1.94709,-2.7218 -4.36271,-2.7218 -3.77853,0 -8.2934,2.42605 -8.2934,5.14787"
     id="path334"
     style="stroke-width:0.339368" />
  <path
     class="Note"
     d="m 326.95053,511.39673 c 0,1.27078 1.20477,2.68945 4.36271,2.68945 4.04634,0 8.29342,-2.51386 8.29342,-5.11552 0,-1.74677 -1.9471,-2.72182 -4.36271,-2.72182 -3.77857,0 -8.29342,2.42607 -8.29342,5.14789"
     id="path336"
     style="stroke-width:0.339368" />
  <path
     class="Note"
     d="m 891.98661,526.18415 c 0,1.27079 1.20476,2.68945 4.3627,2.68945 4.04635,0 8.29341,-2.51385 8.29341,-5.11552 0,-1.74677 -1.9471,-2.7218 -4.3627,-2.7218 -3.77855,0 -8.29341,2.42605 -8.29341,5.14787"
     id="path338"
     style="stroke-width:0.339368" />
  <path
     class="Note"
     d="m 931.90204,522.48729 c 0,1.27079 1.20476,2.68946 4.3627,2.68946 4.04635,0 8.2934,-2.51386 8.2934,-5.11552 0,-1.74677 -1.94709,-2.72181 -4.36271,-2.72181 -3.77853,0 -8.29339,2.42605 -8.29339,5.14787"
     id="path340"
     style="stroke-width:0.339368" />
  <path
     class="Note"
     d="m 366.864,511.39673 c 0,1.27078 1.20477,2.68945 4.36271,2.68945 4.04634,0 8.29339,-2.51386 8.29339,-5.11552 0,-1.74677 -1.94708,-2.72182 -4.3627,-2.72182 -3.77854,0 -8.2934,2.42607 -8.2934,5.14789"
     id="path342"
     style="stroke-width:0.339368" />
  <path
     class="Note"
     d="m 971.81745,518.79044 c 0,1.27079 1.20477,2.68945 4.36272,2.68945 4.04635,0 8.2934,-2.51385 8.2934,-5.11552 0,-1.74677 -1.94709,-2.7218 -4.36271,-2.7218 -3.77853,0 -8.29341,2.42605 -8.29341,5.14787"
     id="path344"
     style="stroke-width:0.339368" />
  <path
     class="Note"
     d="m 1011.7289,526.18415 c 0,1.27079 1.2048,2.68945 4.3627,2.68945 4.0464,0 8.2934,-2.51385 8.2934,-5.11552 0,-1.74677 -1.9471,-2.7218 -4.3627,-2.7218 -3.7785,0 -8.2934,2.42605 -8.2934,5.14787"
     id="path346"
     style="stroke-width:0.339368" />
  <path
     class="Note"
     d="m 783.45574,352.43189 c 0,1.27079 1.20477,2.68946 4.36271,2.68946 4.04634,0 8.29341,-2.51386 8.29341,-5.11552 0,-1.74677 -1.9471,-2.72182 -4.36271,-2.72182 -3.77855,0 -8.29341,2.42607 -8.29341,5.14788"
     id="path348"
     style="stroke-width:0.339368" />
  <path
     class="Note"
     d="m 738.01308,345.03817 c 0,1.2708 1.20477,2.68947 4.36271,2.68947 4.04634,0 8.29341,-2.51386 8.29341,-5.11552 0,-1.74677 -1.9471,-2.72182 -4.36271,-2.72182 -3.77855,0 -8.29341,2.42606 -8.29341,5.14787"
     id="path350"
     style="stroke-width:0.339368" />
  <path
     class="Note"
     d="m 406.77942,518.79044 c 0,1.27079 1.20476,2.68945 4.36271,2.68945 4.04635,0 8.2934,-2.51385 8.2934,-5.11552 0,-1.74677 -1.94708,-2.7218 -4.3627,-2.7218 -3.77854,0 -8.29341,2.42605 -8.29341,5.14787"
     id="path352"
     style="stroke-width:0.339368" />
  <path
     class="Note"
     d="m 127.38007,696.23954 c 0,1.27079 1.20477,2.68948 4.36271,2.68948 4.04633,0 8.29342,-2.51388 8.29342,-5.11554 0,-1.74675 -1.9471,-2.72181 -4.36271,-2.72181 -3.77857,0 -8.29342,2.42607 -8.29342,5.14787"
     id="path354"
     style="stroke-width:0.339368" />
  <path
     class="Note"
     d="m 195.27281,696.23954 c 0,1.27079 1.20476,2.68948 4.36271,2.68948 4.04632,0 8.2934,-2.51388 8.2934,-5.11554 0,-1.74675 -1.94708,-2.72181 -4.36269,-2.72181 -3.77857,0 -8.29342,2.42607 -8.29342,5.14787"
     id="path356"
     style="stroke-width:0.339368" />
  <path
     class="Note"
     d="m 919.78766,348.73504 c 0,1.27079 1.20476,2.68946 4.3627,2.68946 4.04634,0 8.29341,-2.51386 8.29341,-5.11553 0,-1.74676 -1.9471,-2.72182 -4.36271,-2.72182 -3.77854,0 -8.2934,2.42607 -8.2934,5.14789"
     id="path358"
     style="stroke-width:0.339368" />
  <path
     class="Note"
     d="m 252.64966,696.23954 c 0,1.27079 1.20477,2.68948 4.36271,2.68948 4.04633,0 8.29342,-2.51388 8.29342,-5.11554 0,-1.74675 -1.9471,-2.72181 -4.3627,-2.72181 -3.77858,0 -8.29343,2.42607 -8.29343,5.14787"
     id="path360"
     style="stroke-width:0.339368" />
  <path
     class="Note"
     d="m 167.29432,507.69987 c 0,1.27079 1.20477,2.68946 4.36271,2.68946 4.04633,0 8.29342,-2.51386 8.29342,-5.11553 0,-1.74676 -1.9471,-2.72182 -4.36271,-2.72182 -3.77857,0 -8.29342,2.42607 -8.29342,5.14789"
     id="path362"
     style="stroke-width:0.339368" />
  <path
     class="Note"
     d="m 282.82452,696.23954 c 0,1.27079 1.20477,2.68948 4.36269,2.68948 4.04635,0 8.29342,-2.51388 8.29342,-5.11554 0,-1.74675 -1.94708,-2.72181 -4.36269,-2.72181 -3.77857,0 -8.29342,2.42607 -8.29342,5.14787"
     id="path364"
     style="stroke-width:0.339368" />
  <path
     class="Note"
     d="m 461.10178,515.09358 c 0,1.27079 1.20476,2.68946 4.36271,2.68946 4.04634,0 8.2934,-2.51386 8.2934,-5.11553 0,-1.74676 -1.9471,-2.72181 -4.36272,-2.72181 -3.77853,0 -8.29339,2.42606 -8.29339,5.14788"
     id="path366"
     style="stroke-width:0.339368" />
  <path
     class="Note"
     d="m 368.8896,696.23954 c 0,1.27079 1.20477,2.68948 4.36271,2.68948 4.04634,0 8.29341,-2.51388 8.29341,-5.11554 0,-1.74675 -1.94711,-2.72181 -4.36271,-2.72181 -3.77855,0 -8.29341,2.42607 -8.29341,5.14787"
     id="path368"
     style="stroke-width:0.339368" />
  <path
     class="Note"
     d="m 428.55861,685.14898 c 0,1.27079 1.20477,2.68945 4.36271,2.68945 4.04634,0 8.29341,-2.51385 8.29341,-5.11552 0,-1.74677 -1.9471,-2.7218 -4.36271,-2.7218 -3.77855,0 -8.29341,2.42606 -8.29341,5.14787"
     id="path370"
     style="stroke-width:0.339368" />
  <path
     class="Note"
     d="m 520.97099,504.00301 c 0,1.27079 1.20477,2.68946 4.36271,2.68946 4.04634,0 8.2934,-2.51386 8.2934,-5.11552 0,-1.74677 -1.94709,-2.72182 -4.36271,-2.72182 -3.77854,0 -8.2934,2.42606 -8.2934,5.14788"
     id="path372"
     style="stroke-width:0.339368" />
  <path
     class="Note"
     d="m 496.45174,677.75527 c 0,1.27079 1.20476,2.68945 4.36271,2.68945 4.04634,0 8.2934,-2.51385 8.2934,-5.11552 0,-1.74677 -1.9471,-2.7218 -4.3627,-2.7218 -3.77855,0 -8.29341,2.42605 -8.29341,5.14787"
     id="path374"
     style="stroke-width:0.339368" />
  <path
     class="Note"
     d="m 207.20818,507.69987 c 0,1.27079 1.20477,2.68946 4.3627,2.68946 4.04634,0 8.29342,-2.51386 8.29342,-5.11553 0,-1.74676 -1.94709,-2.72182 -4.36269,-2.72182 -3.77858,0 -8.29343,2.42607 -8.29343,5.14789"
     id="path376"
     style="stroke-width:0.339368" />
  <path
     class="Note"
     d="m 564.34486,670.36156 c 0,1.27079 1.20477,2.68945 4.36271,2.68945 4.04634,0 8.29341,-2.51386 8.29341,-5.11552 0,-1.74677 -1.9471,-2.72182 -4.36271,-2.72182 -3.77855,0 -8.29341,2.42607 -8.29341,5.14789"
     id="path378"
     style="stroke-width:0.339368" />
  <path
     class="Note"
     d="m 580.84413,518.79044 c 0,1.27079 1.20476,2.68945 4.3627,2.68945 4.04636,0 8.29341,-2.51385 8.29341,-5.11552 0,-1.74677 -1.94709,-2.7218 -4.36271,-2.7218 -3.77853,0 -8.2934,2.42605 -8.2934,5.14787"
     id="path380"
     style="stroke-width:0.339368" />
  <path
     class="Clef"
     d="m 132.48533,184.74217 c 0,-4.43624 -4.16799,-7.45379 -9.8511,-7.45379 -0.38942,-1.77449 -0.74231,-3.54898 -1.08913,-5.1756 4.08891,-3.2856 6.96696,-7.01016 6.96696,-11.68209 0,-2.7218 -1.08918,-4.87985 -1.7524,-5.9472 -0.93094,-1.50654 -2.06272,-2.5742 -2.72593,-2.5742 -0.26772,0 -1.51508,0.38833 -2.76246,1.53908 -2.53123,2.25035 -3.23094,6.00266 -3.23094,8.48878 0,1.59891 0.19472,3.0453 0.85794,6.39095 -0.0427,0 -2.06879,1.56656 -2.88417,2.09799 -3.54733,2.48613 -8.4516,6.09057 -8.4516,11.97782 0,5.55917 6.34633,9.90759 13.59319,9.90759 1.12565,0 2.1783,-0.0879 3.11535,-0.20793 0.69971,2.84194 1.16826,4.91218 1.16826,6.47873 0,3.07766 -2.10531,4.70427 -5.99951,4.70427 -0.97354,0 -1.78887,-0.14791 -1.83148,-0.18022 -0.073,0 -0.1521,-0.0278 -0.1521,-0.0554 0,-0.0601 0.0791,-0.0925 0.19471,-0.1201 1.83147,-0.20795 3.65688,-1.39095 3.65688,-3.28095 0,-1.59891 -1.59421,-3.28561 -4.51485,-3.28561 -2.68941,0 -4.44179,1.6867 -4.44179,3.63681 0,1.95471 1.94708,4.52865 7.20425,4.52865 5.02592,0 7.47805,-2.16267 7.47805,-5.94734 0,-1.15063 -0.23119,-2.48151 -0.62062,-4.16819 -0.11563,-0.5915 -0.31033,-1.5111 -0.58412,-2.63403 3.81506,-0.97505 6.65661,-3.96486 6.65661,-7.0379 m -11.99291,-24.22367 c 0.38944,-1.18298 2.14181,-4.28835 4.16804,-4.28835 0.58413,0 1.55768,1.41865 1.55768,3.4889 0,3.04528 -3.03627,5.35583 -5.72572,7.39371 -0.23118,-1.183 -0.4259,-2.366 -0.4259,-3.5767 0,-1.12293 0.1521,-2.10259 0.4259,-3.01756 m 1.16827,30.58228 c -5.56746,0 -10.3196,-2.95749 -10.3196,-7.42608 0,-3.60446 3.38919,-6.82994 6.77833,-9.10813 0.65715,-0.41591 1.28388,-0.85952 1.86801,-1.27081 0.34682,1.59427 0.66322,2.95749 0.89443,4.20056 -3.54735,0.76712 -5.95688,3.6368 -5.95688,6.38633 0,2.10259 2.1418,4.93994 5.25716,4.93994 0.31028,0 0.66322,-0.12011 0.66322,-0.41589 0,-0.23567 -0.35294,-0.41129 -0.85793,-0.64696 -1.52118,-0.68392 -2.37912,-1.47875 -2.37912,-2.90204 0,-1.80221 1.79499,-3.25324 4.05238,-3.66453 l 2.25742,9.69966 c -0.77884,0.14791 -1.47858,0.20795 -2.25742,0.20795 m 3.89419,-0.56377 c -0.81532,-3.51663 -1.86797,-8.22091 -2.1418,-9.52406 3.93071,0 5.61008,2.07026 5.9569,3.49355 0.0427,0.23567 0.11563,0.55915 0.11563,0.91497 0,2.13033 -1.16826,4.28836 -3.93072,5.11554 m -1.52114,15.49908 c 0,-1.09519 -1.32037,-1.56653 -2.60425,-1.56653 -1.63677,0 -3.23704,0.76708 -3.23704,2.09795 0,0.56379 0.2738,0.97968 0.85792,1.39095 -1.01003,0.29573 -2.06271,0.88724 -2.06271,1.80683 0,0.97506 1.16826,1.62663 2.88416,1.62663 2.0992,0 3.57778,-0.88724 3.57778,-2.16267 0,-0.6793 -0.38941,-1.23845 -1.08916,-1.62662 1.13177,-0.38356 1.6733,-0.85489 1.6733,-1.56654 m -2.40953,1.18298 c -0.58413,-0.23565 -0.74235,-0.29573 -0.85794,-0.3558 l -0.0426,-0.0276 c -0.62066,-0.26803 -0.81537,-0.47598 -0.81537,-0.82718 0,-0.53604 0.54764,-0.9196 1.32647,-0.9196 0.77885,0 1.20476,0.35582 1.20476,0.97507 0,0.47597 -0.23121,0.79943 -0.81533,1.15524 m -1.48467,3.54899 c -0.85184,0 -1.43598,-0.41126 -1.43598,-1.03512 0,-0.55914 0.34682,-1.06284 1.01004,-1.35858 0.15823,0.0601 0.19471,0.0879 0.31033,0.1155 0.4685,0.18022 0.4685,0.18022 0.54763,0.24029 0.77885,0.32349 1.05265,0.61925 1.05265,1.03512 0,0.55915 -0.62673,1.00278 -1.48467,1.00278"
     id="path382"
     style="stroke-width:0.339368" />
  <path
     class="Clef"
     d="m 83.80758,351.10102 c 0,-4.43622 -4.167992,-7.45378 -9.851091,-7.45378 -0.389417,-1.77451 -0.742309,-3.549 -1.089124,-5.17561 4.088904,-3.2856 6.966939,-7.01016 6.966939,-11.68209 0,-2.72182 -1.089164,-4.87985 -1.752385,-5.9472 -0.930948,-1.50656 -2.062715,-2.5742 -2.725936,-2.5742 -0.267727,0 -1.515081,0.38831 -2.762461,1.53908 -2.531234,2.25034 -3.230941,6.00265 -3.230941,8.48878 0,1.59889 0.194716,3.0453 0.857937,6.39095 -0.04266,0 -2.068791,1.56655 -2.884152,2.098 -3.547346,2.4861 -8.451611,6.09054 -8.451611,11.97781 0,5.55917 6.346321,9.9076 13.593179,9.9076 1.125664,0 2.178302,-0.0879 3.115353,-0.20794 0.69972,2.84192 1.168266,4.91216 1.168266,6.47871 0,3.07766 -2.105317,4.70427 -5.999505,4.70427 -0.97355,0 -1.788884,-0.14791 -1.831487,-0.18021 -0.07297,0 -0.152099,-0.0278 -0.152099,-0.0554 0,-0.06 0.07914,-0.0925 0.194702,-0.12011 1.831487,-0.20792 3.656883,-1.39091 3.656883,-3.28093 0,-1.59892 -1.594209,-3.28562 -4.514846,-3.28562 -2.68941,0 -4.441795,1.6867 -4.441795,3.63682 0,1.95472 1.9471,4.52866 7.204256,4.52866 5.025915,0 7.47806,-2.16268 7.47806,-5.94736 0,-1.15062 -0.231201,-2.48149 -0.620618,-4.16817 -0.115628,-0.59149 -0.31033,-1.5111 -0.584133,-2.63405 3.815059,-0.97503 6.656609,-3.96485 6.656609,-7.03789 M 71.814687,326.87742 c 0.389417,-1.18298 2.141802,-4.28835 4.168018,-4.28835 0.584133,0 1.557683,1.41867 1.557683,3.48891 0,3.04528 -3.036265,5.35582 -5.725701,7.39371 -0.231201,-1.183 -0.425917,-2.36599 -0.425917,-3.57672 0,-1.12291 0.152113,-2.10257 0.425917,-3.01755 m 1.168252,30.58227 c -5.567445,0 -10.319596,-2.95748 -10.319596,-7.42605 0,-3.60446 3.389183,-6.82995 6.77834,-9.10813 0.657144,-0.41593 1.283866,-0.85954 1.867999,-1.27079 0.346815,1.59423 0.663221,2.95748 0.894422,4.20055 -3.547346,0.76709 -5.956876,3.63679 -5.956876,6.38631 0,2.10259 2.141803,4.93993 5.257169,4.93993 0.31029,0 0.663221,-0.12011 0.663221,-0.41586 0,-0.2357 -0.352931,-0.4113 -0.857936,-0.64699 -1.521184,-0.68392 -2.379121,-1.47873 -2.379121,-2.90202 0,-1.80223 1.794988,-3.25326 4.052378,-3.66451 l 2.257417,9.69962 c -0.778835,0.14791 -1.478582,0.20794 -2.257417,0.20794 m 3.894188,-0.56376 c -0.815321,-3.51664 -1.867959,-8.22089 -2.141803,-9.52406 3.930728,0 5.610088,2.07028 5.956903,3.49357 0.04266,0.23566 0.115627,0.55914 0.115627,0.91496 0,2.13032 -1.168266,4.28835 -3.930727,5.11553 m -1.521144,15.49906 c 0,-1.09515 -1.320365,-1.56651 -2.604245,-1.56651 -1.636771,0 -3.237044,0.76711 -3.237044,2.09797 0,0.56377 0.273804,0.97967 0.857923,1.39094 -1.010036,0.29576 -2.062714,0.88725 -2.062714,1.80684 0,0.97505 1.168265,1.62663 2.884165,1.62663 2.0992,0 3.577782,-0.88725 3.577782,-2.16268 0,-0.6793 -0.389417,-1.23844 -1.089164,-1.62661 1.131767,-0.38355 1.673297,-0.8549 1.673297,-1.56658 m -2.40953,1.18303 c -0.584133,-0.23566 -0.742349,-0.29578 -0.857936,-0.35582 l -0.04266,-0.0276 c -0.620645,-0.26803 -0.815361,-0.47597 -0.815361,-0.82717 0,-0.53605 0.547634,-0.91959 1.326482,-0.91959 0.778835,0 1.204738,0.35579 1.204738,0.97503 0,0.47598 -0.231201,0.79946 -0.81532,1.15528 m -1.484659,3.54898 c -0.851859,0 -1.435992,-0.41127 -1.435992,-1.03512 0,-0.55915 0.346815,-1.06285 1.010036,-1.3586 0.158229,0.0601 0.194715,0.0879 0.310329,0.1155 0.468519,0.18022 0.468519,0.18022 0.547647,0.24029 0.778835,0.32347 1.052639,0.61923 1.052639,1.03512 0,0.55916 -0.626736,1.00277 -1.484659,1.00277"
     id="path384"
     style="stroke-width:0.339368" />
  <path
     class="Clef"
     d="m 83.80758,517.45956 c 0,-4.43622 -4.167992,-7.45378 -9.851091,-7.45378 -0.389417,-1.77449 -0.742309,-3.54898 -1.089124,-5.17561 4.088904,-3.2856 6.966939,-7.01016 6.966939,-11.68209 0,-2.72182 -1.089164,-4.87985 -1.752385,-5.9472 -0.930948,-1.50656 -2.062715,-2.5742 -2.725936,-2.5742 -0.267727,0 -1.515081,0.38832 -2.762461,1.53908 -2.531234,2.25035 -3.230941,6.00265 -3.230941,8.4888 0,1.59889 0.194716,3.04528 0.857937,6.39093 -0.04266,0 -2.068791,1.56655 -2.884152,2.098 -3.547346,2.4861 -8.451611,6.09054 -8.451611,11.97781 0,5.55917 6.346321,9.9076 13.593179,9.9076 1.125664,0 2.178302,-0.0879 3.115353,-0.20794 0.69972,2.84192 1.168266,4.91216 1.168266,6.47871 0,3.07766 -2.105317,4.70429 -5.999505,4.70429 -0.97355,0 -1.788884,-0.14791 -1.831487,-0.18023 -0.07297,0 -0.152099,-0.0278 -0.152099,-0.0554 0,-0.0601 0.07914,-0.0925 0.194702,-0.1201 1.831487,-0.20793 3.656883,-1.39091 3.656883,-3.28093 0,-1.59893 -1.594209,-3.28561 -4.514846,-3.28561 -2.68941,0 -4.441795,1.68668 -4.441795,3.6368 0,1.95472 1.9471,4.52866 7.204256,4.52866 5.025915,0 7.47806,-2.16268 7.47806,-5.94736 0,-1.15061 -0.231201,-2.48147 -0.620618,-4.16817 -0.115628,-0.59149 -0.31033,-1.51108 -0.584133,-2.63405 3.815059,-0.97503 6.656609,-3.96483 6.656609,-7.03788 M 71.814687,493.23596 c 0.389417,-1.18298 2.141802,-4.28835 4.168018,-4.28835 0.584133,0 1.557683,1.41867 1.557683,3.48891 0,3.04528 -3.036265,5.35582 -5.725701,7.39371 -0.231201,-1.183 -0.425917,-2.36598 -0.425917,-3.5767 0,-1.12293 0.152113,-2.10259 0.425917,-3.01757 m 1.168252,30.58227 c -5.567445,0 -10.319596,-2.95747 -10.319596,-7.42605 0,-3.60446 3.389183,-6.82994 6.77834,-9.10813 0.657144,-0.41593 1.283866,-0.85954 1.867999,-1.27079 0.346815,1.59423 0.663221,2.95748 0.894422,4.20055 -3.547346,0.76709 -5.956876,3.63679 -5.956876,6.38631 0,2.10259 2.141803,4.93994 5.257169,4.93994 0.31029,0 0.663221,-0.1201 0.663221,-0.41587 0,-0.2357 -0.352931,-0.4113 -0.857936,-0.64699 -1.521184,-0.6839 -2.379121,-1.47873 -2.379121,-2.90202 0,-1.80222 1.794988,-3.25326 4.052378,-3.66451 l 2.257417,9.69962 c -0.778835,0.14791 -1.478582,0.20794 -2.257417,0.20794 m 3.894188,-0.56376 c -0.815321,-3.51664 -1.867959,-8.22089 -2.141803,-9.52406 3.930728,0 5.610088,2.07028 5.956903,3.49357 0.04266,0.23567 0.115627,0.55914 0.115627,0.91496 0,2.13032 -1.168266,4.28837 -3.930727,5.11553 m -1.521144,15.49908 c 0,-1.09517 -1.320365,-1.56653 -2.604245,-1.56653 -1.636771,0 -3.237044,0.76711 -3.237044,2.09797 0,0.56378 0.273804,0.97968 0.857923,1.39094 -1.010036,0.29576 -2.062714,0.88725 -2.062714,1.80686 0,0.97503 1.168265,1.62661 2.884165,1.62661 2.0992,0 3.577782,-0.88725 3.577782,-2.16266 0,-0.6793 -0.389417,-1.23846 -1.089164,-1.62663 1.131767,-0.38354 1.673297,-0.8549 1.673297,-1.56656 m -2.40953,1.18302 c -0.584133,-0.23567 -0.742349,-0.29578 -0.857936,-0.35583 l -0.04266,-0.0278 c -0.620645,-0.26804 -0.815361,-0.47598 -0.815361,-0.82718 0,-0.53605 0.547634,-0.91959 1.326482,-0.91959 0.778835,0 1.204738,0.35579 1.204738,0.97505 0,0.47596 -0.231201,0.79944 -0.81532,1.15526 m -1.484659,3.54898 c -0.851859,0 -1.435992,-0.41127 -1.435992,-1.03512 0,-0.55915 0.346815,-1.06285 1.010036,-1.35858 0.158229,0.0601 0.194715,0.0879 0.310329,0.11549 0.468519,0.18023 0.468519,0.18023 0.547647,0.24031 0.778835,0.32348 1.052639,0.61921 1.052639,1.03512 0,0.55915 -0.626736,1.00276 -1.484659,1.00276"
     id="path386"
     style="stroke-width:0.339368" />
  <path
     class="Clef"
     d="m 83.80758,683.8181 c 0,-4.43622 -4.167992,-7.45378 -9.851091,-7.45378 -0.389417,-1.77449 -0.742309,-3.54898 -1.089124,-5.17561 4.088904,-3.2856 6.966939,-7.01014 6.966939,-11.68209 0,-2.7218 -1.089164,-4.87985 -1.752385,-5.9472 -0.930948,-1.50656 -2.062715,-2.5742 -2.725936,-2.5742 -0.267727,0 -1.515081,0.38833 -2.762461,1.53908 -2.531234,2.25035 -3.230941,6.00266 -3.230941,8.4888 0,1.59889 0.194716,3.04528 0.857937,6.39093 -0.04266,0 -2.068791,1.56655 -2.884152,2.098 -3.547346,2.4861 -8.451611,6.09054 -8.451611,11.97781 0,5.55919 6.346321,9.90761 13.593179,9.90761 1.125664,0 2.178302,-0.0879 3.115353,-0.20795 0.69972,2.84194 1.168266,4.91217 1.168266,6.47871 0,3.07768 -2.105317,4.70429 -5.999505,4.70429 -0.97355,0 -1.788884,-0.14791 -1.831487,-0.18023 -0.07297,0 -0.152099,-0.0278 -0.152099,-0.0554 0,-0.06 0.07914,-0.0925 0.194702,-0.1201 1.831487,-0.20792 3.656883,-1.39091 3.656883,-3.28093 0,-1.59893 -1.594209,-3.28561 -4.514846,-3.28561 -2.68941,0 -4.441795,1.68668 -4.441795,3.63681 0,1.95471 1.9471,4.52865 7.204256,4.52865 5.025915,0 7.47806,-2.16266 7.47806,-5.94736 0,-1.15061 -0.231201,-2.48147 -0.620618,-4.16817 -0.115628,-0.59149 -0.31033,-1.51108 -0.584133,-2.63403 3.815059,-0.97505 6.656609,-3.96485 6.656609,-7.0379 M 71.814687,659.59452 c 0.389417,-1.183 2.141802,-4.28837 4.168018,-4.28837 0.584133,0 1.557683,1.41867 1.557683,3.48891 0,3.0453 -3.036265,5.35583 -5.725701,7.39371 -0.231201,-1.18298 -0.425917,-2.36598 -0.425917,-3.5767 0,-1.12293 0.152113,-2.10259 0.425917,-3.01755 m 1.168252,30.58227 c -5.567445,0 -10.319596,-2.95749 -10.319596,-7.42607 0,-3.60446 3.389183,-6.82994 6.77834,-9.10813 0.657144,-0.41593 1.283866,-0.85954 1.867999,-1.27079 0.346815,1.59425 0.663221,2.95749 0.894422,4.20055 -3.547346,0.76711 -5.956876,3.63679 -5.956876,6.38633 0,2.10257 2.141803,4.93992 5.257169,4.93992 0.31029,0 0.663221,-0.1201 0.663221,-0.41587 0,-0.2357 -0.352931,-0.4113 -0.857936,-0.64697 -1.521184,-0.68392 -2.379121,-1.47875 -2.379121,-2.90204 0,-1.80221 1.794988,-3.25326 4.052378,-3.66451 l 2.257417,9.69964 c -0.778835,0.14791 -1.478582,0.20794 -2.257417,0.20794 m 3.894188,-0.56377 c -0.815321,-3.51664 -1.867959,-8.22088 -2.141803,-9.52405 3.930728,0 5.610088,2.07026 5.956903,3.49355 0.04266,0.23567 0.115627,0.55914 0.115627,0.91497 0,2.13031 -1.168266,4.28836 -3.930727,5.11553 m -1.521144,15.49907 c 0,-1.09517 -1.320365,-1.56651 -2.604245,-1.56651 -1.636771,0 -3.237044,0.76709 -3.237044,2.09797 0,0.56377 0.273804,0.97966 0.857923,1.39092 -1.010036,0.29576 -2.062714,0.88727 -2.062714,1.80686 0,0.97503 1.168265,1.62661 2.884165,1.62661 2.0992,0 3.577782,-0.88725 3.577782,-2.16266 0,-0.6793 -0.389417,-1.23844 -1.089164,-1.62663 1.131767,-0.38354 1.673297,-0.85488 1.673297,-1.56656 m -2.40953,1.18302 c -0.584133,-0.23567 -0.742349,-0.29577 -0.857936,-0.35583 l -0.04266,-0.0278 c -0.620645,-0.26802 -0.815361,-0.47598 -0.815361,-0.82718 0,-0.53605 0.547634,-0.91959 1.326482,-0.91959 0.778835,0 1.204738,0.35579 1.204738,0.97505 0,0.47596 -0.231201,0.79944 -0.81532,1.15526 m -1.484659,3.549 c -0.851859,0 -1.435992,-0.41129 -1.435992,-1.03512 0,-0.55917 0.346815,-1.06287 1.010036,-1.3586 0.158229,0.06 0.194715,0.0879 0.310329,0.11549 0.468519,0.18021 0.468519,0.18021 0.547647,0.2403 0.778835,0.32347 1.052639,0.61921 1.052639,1.03512 0,0.55914 -0.626736,1.00277 -1.484659,1.00277"
     id="path388"
     style="stroke-width:0.339368" />
  <path
     class="KeySig"
     d="m 151.2899,159.54348 c 0.2373,-0.0278 0.43202,-0.23568 0.43202,-0.41592 v -1.74213 c 0,-0.29575 -0.27385,-0.41589 -0.62674,-0.41589 l -1.28386,0.20795 v -4.40852 h -1.08918 v 4.5841 l -3.46825,0.53604 v -4.17281 h -1.08916 v 4.34843 l -1.52117,0.23569 c -0.23122,0.0324 -0.42592,0.23565 -0.42592,0.41587 v 1.71444 c 0,0.32347 0.31032,0.41589 0.66324,0.41589 l 1.28385,-0.20795 v 4.87986 l -1.52117,0.23567 c -0.23122,0.0278 -0.42592,0.23568 -0.42592,0.41592 v 1.71439 c 0,0.32349 0.31032,0.4113 0.66324,0.4113 l 1.28385,-0.20332 v 4.40387 h 1.08916 v -4.58411 l 3.46825,-0.53143 v 4.17284 h 1.08918 v -4.34842 l 1.47858,-0.20798 c 0.2373,-0.0324 0.43202,-0.23565 0.43202,-0.41587 v -1.74216 c 0,-0.29576 -0.27385,-0.41589 -0.62674,-0.41589 l -1.28386,0.20794 v -4.87985 l 1.47858,-0.20795 m -6.03601,0.91497 3.46825,-0.53142 v 4.87985 l -3.46825,0.56377 v -4.9122"
     id="path390"
     style="stroke-width:0.339368" />
  <path
     class="KeySig"
     d="m 102.61255,492.26087 c 0.23731,-0.0278 0.43201,-0.23568 0.43201,-0.41592 v -1.74213 c 0,-0.29574 -0.27383,-0.41589 -0.62672,-0.41589 l -1.28388,0.20795 v -4.40854 h -1.08917 v 4.5841 l -3.468262,0.53605 v -4.1728 h -1.089147 v 4.34843 l -1.521171,0.23568 c -0.231215,0.0322 -0.42593,0.23564 -0.42593,0.4159 v 1.71442 c 0,0.32347 0.310316,0.41589 0.663234,0.41589 l 1.283867,-0.20795 v 4.87986 l -1.521171,0.23566 c -0.231215,0.0276 -0.42593,0.23567 -0.42593,0.41593 v 1.71439 c 0,0.32347 0.310316,0.4113 0.663234,0.4113 l 1.283867,-0.20332 v 4.40387 h 1.089147 v -4.58413 l 3.468262,-0.53142 v 4.17286 h 1.08917 v -4.34843 l 1.47859,-0.20798 c 0.23731,-0.0322 0.43201,-0.23565 0.43201,-0.41589 v -1.74214 c 0,-0.29576 -0.27383,-0.41591 -0.62672,-0.41591 l -1.28388,0.20796 v -4.87985 l 1.47859,-0.20795 m -6.036022,0.91497 3.468262,-0.53142 v 4.87985 l -3.468262,0.56377 v -4.9122"
     id="path392"
     style="stroke-width:0.339368" />
  <path
     class="KeySig"
     d="m 102.61255,325.90231 c 0.23731,-0.0276 0.43201,-0.23566 0.43201,-0.41592 v -1.74211 c 0,-0.29575 -0.27383,-0.41589 -0.62672,-0.41589 l -1.28388,0.20794 v -4.40853 h -1.08917 v 4.5841 l -3.468262,0.53605 v -4.1728 h -1.089147 v 4.34843 l -1.521171,0.23567 c -0.231215,0.0324 -0.42593,0.23565 -0.42593,0.41591 v 1.71442 c 0,0.32346 0.310316,0.41589 0.663234,0.41589 l 1.283867,-0.20795 v 4.87984 l -1.521171,0.23568 c -0.231215,0.0278 -0.42593,0.23567 -0.42593,0.41593 v 1.71439 c 0,0.32347 0.310316,0.4113 0.663234,0.4113 l 1.283867,-0.20333 v 4.40388 h 1.089147 v -4.58413 l 3.468262,-0.53142 v 4.17286 h 1.08917 v -4.34843 l 1.47859,-0.20798 c 0.23731,-0.0322 0.43201,-0.23565 0.43201,-0.41589 v -1.74214 c 0,-0.29576 -0.27383,-0.41591 -0.62672,-0.41591 l -1.28388,0.20794 v -4.87983 l 1.47859,-0.20797 m -6.036022,0.91499 3.468262,-0.53142 v 4.87983 l -3.468262,0.56379 v -4.9122"
     id="path394"
     style="stroke-width:0.339368" />
  <path
     class="KeySig"
     d="m 102.61255,658.61941 c 0.23731,-0.0278 0.43201,-0.23568 0.43201,-0.41592 v -1.74213 c 0,-0.29574 -0.27383,-0.41589 -0.62672,-0.41589 l -1.28388,0.20795 v -4.40852 h -1.08917 v 4.5841 l -3.468262,0.53604 v -4.17279 h -1.089147 v 4.34841 l -1.521171,0.23569 c -0.231215,0.0322 -0.42593,0.23563 -0.42593,0.41589 v 1.71442 c 0,0.32347 0.310316,0.41589 0.663234,0.41589 l 1.283867,-0.20795 v 4.87986 l -1.521171,0.23567 c -0.231215,0.0276 -0.42593,0.23568 -0.42593,0.41592 v 1.71439 c 0,0.32347 0.310316,0.41132 0.663234,0.41132 l 1.283867,-0.20334 v 4.40387 h 1.089147 v -4.58411 l 3.468262,-0.53144 v 4.17286 h 1.08917 v -4.34843 l 1.47859,-0.20798 c 0.23731,-0.0322 0.43201,-0.23563 0.43201,-0.41589 v -1.74214 c 0,-0.29576 -0.27383,-0.41589 -0.62672,-0.41589 l -1.28388,0.20794 v -4.87985 l 1.47859,-0.20795 m -6.036022,0.91497 3.468262,-0.53142 v 4.87985 l -3.468262,0.56377 v -4.9122"
     id="path396"
     style="stroke-width:0.339368" />
  <path
     class="TimeSig"
     d="m 169.00845,173.79948 v 2.18579 h -3.23098 c -0.27379,0 -0.54759,0.18019 -0.54759,0.41588 v 0.56378 c 0,0.23565 0.2738,0.41127 0.54759,0.41127 h 11.79821 c 0.3164,0 0.54759,-0.17562 0.54759,-0.41127 v -0.56378 c 0,-0.23569 -0.23119,-0.41588 -0.54759,-0.41588 h -3.46217 v -2.18579 h 3.46217 c 0.3164,0 0.54759,-0.20794 0.54759,-0.44363 v -0.56375 c 0,-0.20796 -0.23119,-0.41128 -0.54759,-0.41128 h -3.46217 v -4.70426 c 0,-0.1756 -0.11563,-0.32348 -0.31033,-0.38354 l -0.46852,-0.18023 c -0.0791,-0.0276 -0.1947,-0.0554 -0.27383,-0.0554 -0.11563,0.0278 -0.2738,0.0554 -0.35289,0.1155 l -3.54131,2.45378 c -0.11563,0.0925 -0.15818,0.20795 -0.15818,0.3281 v 2.42607 h -4.47833 c 0,0 4.32622,-3.54898 8.92013,-8.22553 0.15821,-0.14791 0.1947,-0.29575 0.1947,-0.41127 0,-0.14791 -0.0791,-0.26801 -0.11563,-0.29575 l -0.85796,-0.65156 c -0.0791,-0.0601 -0.2312,-0.1201 -0.38943,-0.1201 -0.23119,0 -5.49444,0 -5.76216,0 -0.31639,0 -0.51111,0.18024 -0.54764,0.35585 0,0 -0.19471,2.19037 -1.20476,4.5841 -1.01614,2.39833 -2.18439,3.87708 -3.19446,4.96765 0,0 -0.11562,0.14791 -0.11562,0.3281 0,0.06 0,0.1155 0.0365,0.17562 0.15821,0.20792 0.38942,0.53142 0.38942,0.53142 0,0 0.0791,0.1802 0.42593,0.1802 h 6.69924"
     id="path398"
     style="stroke-width:0.339368" />
  <path
     class="TimeSig"
     d="m 169.00845,188.5869 v 2.18579 h -3.23098 c -0.27379,0 -0.54759,0.18021 -0.54759,0.41588 v 0.5638 c 0,0.23565 0.2738,0.41127 0.54759,0.41127 h 11.79821 c 0.3164,0 0.54759,-0.17562 0.54759,-0.41127 v -0.5638 c 0,-0.23567 -0.23119,-0.41588 -0.54759,-0.41588 h -3.46217 v -2.18579 h 3.46217 c 0.3164,0 0.54759,-0.20794 0.54759,-0.44361 v -0.56377 c 0,-0.20794 -0.23119,-0.41128 -0.54759,-0.41128 h -3.46217 v -4.70426 c 0,-0.1756 -0.11563,-0.32347 -0.31033,-0.38354 l -0.46852,-0.18023 c -0.0791,-0.0278 -0.1947,-0.0554 -0.27383,-0.0554 -0.11563,0.0278 -0.2738,0.0554 -0.35289,0.1155 l -3.54131,2.4538 c -0.11563,0.0925 -0.15818,0.20795 -0.15818,0.32808 v 2.42607 h -4.47833 c 0,0 4.32622,-3.54898 8.92013,-8.22553 0.15821,-0.14791 0.1947,-0.29573 0.1947,-0.41126 0,-0.14792 -0.0791,-0.268 -0.11563,-0.29576 l -0.85796,-0.65156 c -0.0791,-0.0601 -0.2312,-0.1201 -0.38943,-0.1201 -0.23119,0 -5.49444,0 -5.76216,0 -0.31639,0 -0.51111,0.18022 -0.54764,0.35584 0,0 -0.19471,2.19038 -1.20476,4.5841 -1.01614,2.39834 -2.18439,3.87708 -3.19446,4.96766 0,0 -0.11562,0.14791 -0.11562,0.32808 0,0.06 0,0.1155 0.0365,0.17562 0.15821,0.20795 0.38942,0.53142 0.38942,0.53142 0,0 0.0791,0.18021 0.42593,0.18021 h 6.69924"
     id="path400"
     style="stroke-width:0.339368" />
  <path
     class="Beam"
     fill-rule="evenodd"
     d="m 209.27068,160.8004 h 114.01178 v 3.69688 H 209.27068 v -3.69688"
     id="path402"
     style="stroke-width:0.342104" />
  <path
     class="Beam"
     fill-rule="evenodd"
     d="m 359.98832,160.79981 114.01295,-1.84843 v 3.69776 l -114.01295,1.84843 v -3.69776"
     id="path404"
     style="stroke-width:0.342104" />
  <path
     class="Beam"
     fill-rule="evenodd"
     d="m 127.38007,528.63793 120.7159,3.69686 v 3.69984 l -120.7159,-3.69685 v -3.69985"
     id="path406"
     style="stroke-width:0.342104" />
  <path
     class="Beam"
     fill-rule="evenodd"
     d="m 761.88854,162.64825 114.01099,-1.84844 v 3.69776 l -114.01099,1.84842 v -3.69774"
     id="path408"
     style="stroke-width:0.342104" />
  <path
     class="Beam"
     fill-rule="evenodd"
     d="m 912.60381,155.25512 h 114.01489 v 3.69686 H 912.60381 v -3.69686"
     id="path410"
     style="stroke-width:0.342104" />
  <path
     class="Beam"
     fill-rule="evenodd"
     d="m 592.52277,493.51779 h 120.7159 v 3.69686 h -120.7159 v -3.69686"
     id="path412"
     style="stroke-width:0.342104" />
  <path
     class="Beam"
     fill-rule="evenodd"
     d="m 421.6535,323.4624 137.30545,-1.84843 v 3.69685 l -137.30545,1.84843 v -3.69685"
     id="path414"
     style="stroke-width:0.342104" />
  <path
     class="Beam"
     fill-rule="evenodd"
     d="m 903.66524,493.51779 h 120.71586 v 3.69686 H 903.66524 v -3.69686"
     id="path416"
     style="stroke-width:0.342104" />
  <path
     class="Beam"
     fill-rule="evenodd"
     d="m 759.80013,700.53879 136.7598,-7.39373 v 3.70581 l -136.7598,7.39371 v -3.70579"
     id="path418"
     style="stroke-width:0.342104" />
  <path
     class="Beam"
     fill-rule="evenodd"
     d="m 298.7161,487.97251 h 120.7155 v 3.69685 H 298.7161 v -3.69685"
     id="path420"
     style="stroke-width:0.342104" />
  <path
     class="Beam"
     fill-rule="evenodd"
     d="m 749.69172,317.91711 h 137.30546 v 3.69686 H 749.69172 v -3.69686"
     id="path422"
     style="stroke-width:0.342104" />
  <path
     class="Beam"
     fill-rule="evenodd"
     d="m 206.95223,669.11849 h 58.3508 v 3.69685 h -58.3508 v -3.69685"
     id="path424"
     style="stroke-width:0.342104" />
  <path
     class="Beam"
     fill-rule="evenodd"
     d="m 265.30303,674.66377 h -10.70901 v 3.69686 h 10.70901 v -3.69686"
     id="path426"
     style="stroke-width:0.342104" />
  <path
     class="Beam"
     fill-rule="evenodd"
     d="m 826.46061,500.9115 h 51.57051 v 3.69687 h -51.57051 v -3.69687"
     id="path428"
     style="stroke-width:0.342104" />
  <path
     class="Beam"
     fill-rule="evenodd"
     d="m 878.03112,506.4568 h -10.70901 v 3.69686 h 10.70901 v -3.69686"
     id="path430"
     style="stroke-width:0.342104" />
  <path
     class="Beam"
     fill-rule="evenodd"
     d="m 564.34486,693.14506 136.7598,5.54529 v 3.70282 l -136.7598,-5.54528 v -3.70283"
     id="path432"
     style="stroke-width:0.342104" />
  <path
     class="NoteDot"
     d="m 609.26935,340.09824 c 0,0.82718 0.85793,1.47876 1.9471,1.47876 1.08915,0 1.94708,-0.65158 1.94708,-1.47876 0,-0.82715 -0.85793,-1.47873 -1.94708,-1.47873 -1.08917,0 -1.9471,0.65158 -1.9471,1.47873"
     id="path434"
     style="stroke-width:0.339368" />
  <path
     class="NoteDot"
     d="m 212.79351,694.99648 c 0,0.82717 0.85795,1.47875 1.9471,1.47875 1.08915,0 1.9471,-0.65158 1.9471,-1.47875 0,-0.82718 -0.85795,-1.47874 -1.9471,-1.47874 -1.08915,0 -1.9471,0.65156 -1.9471,1.47874"
     id="path436"
     style="stroke-width:0.339368" />
  <path
     class="NoteDot"
     d="m 937.30758,347.49197 c 0,0.82716 0.85793,1.47874 1.94708,1.47874 1.08917,0 1.94711,-0.65158 1.94711,-1.47874 0,-0.82717 -0.85794,-1.47875 -1.94711,-1.47875 -1.08915,0 -1.94708,0.65158 -1.94708,1.47875"
     id="path438"
     style="stroke-width:0.339368" />
  <path
     class="NoteDot"
     d="m 281.23191,362.27939 c 0,0.82718 0.85793,1.47874 1.94708,1.47874 1.08917,0 1.94711,-0.65156 1.94711,-1.47874 0,-0.82717 -0.85794,-1.47875 -1.94711,-1.47875 -1.08915,0 -1.94708,0.65158 -1.94708,1.47875"
     id="path440"
     style="stroke-width:0.339368" />
  <path
     class="NoteDot"
     d="m 300.34522,694.99648 c 0,0.82717 0.85795,1.47875 1.9471,1.47875 1.08915,0 1.94709,-0.65158 1.94709,-1.47875 0,-0.82718 -0.85794,-1.47874 -1.94709,-1.47874 -1.08915,0 -1.9471,0.65156 -1.9471,1.47874"
     id="path442"
     style="stroke-width:0.339368" />
  <path
     class="NoteDot"
     d="m 832.3019,521.24422 c 0,0.82718 0.85794,1.47874 1.94709,1.47874 1.08916,0 1.9471,-0.65156 1.9471,-1.47874 0,-0.82717 -0.85794,-1.47875 -1.9471,-1.47875 -1.08915,0 -1.94709,0.65158 -1.94709,1.47875"
     id="path444"
     style="stroke-width:0.339368" />
  <path
     class="NoteDot"
     d="m 643.99515,181.13312 c 0,0.82718 0.85793,1.47874 1.94708,1.47874 1.08915,0 1.9471,-0.65156 1.9471,-1.47874 0,-0.82717 -0.85795,-1.47875 -1.9471,-1.47875 -1.08915,0 -1.94708,0.65158 -1.94708,1.47875"
     id="path446"
     style="stroke-width:0.339368" />
  <metadata
     id="metadata1235">
    <rdf:RDF>
      <cc:Work
         rdf:about="">
        <dc:title>la_mere_michel</dc:title>
      </cc:Work>
    </rdf:RDF>
  </metadata>
</svg>
