<?xml version="1.0" encoding="UTF-8" standalone="no"?>
<svg
   width="2600"
   height="1200"
   viewBox="0 0 2600.0001 1200"
   version="1.2"
   id="svg88"
   sodipodi:docname="cordeavide0020.svg"
   inkscape:version="1.3 (0e150ed6c4, 2023-07-21)"
   xmlns:inkscape="http://www.inkscape.org/namespaces/inkscape"
   xmlns:sodipodi="http://sodipodi.sourceforge.net/DTD/sodipodi-0.dtd"
   xmlns="http://www.w3.org/2000/svg"
   xmlns:svg="http://www.w3.org/2000/svg"
   xmlns:rdf="http://www.w3.org/1999/02/22-rdf-syntax-ns#"
   xmlns:cc="http://creativecommons.org/ns#"
   xmlns:dc="http://purl.org/dc/elements/1.1/">
  <defs
     id="defs88" />
  <sodipodi:namedview
     id="namedview88"
     pagecolor="#ffffff"
     bordercolor="#000000"
     borderopacity="0.25"
     inkscape:showpageshadow="2"
     inkscape:pageopacity="0.0"
     inkscape:pagecheckerboard="0"
     inkscape:deskcolor="#d1d1d1"
     inkscape:clip-to-page="true"
     shape-rendering="crispEdges"
     inkscape:zoom="0.14229922"
     inkscape:cx="1489.8185"
     inkscape:cy="2104.72"
     inkscape:window-width="1440"
     inkscape:window-height="837"
     inkscape:window-x="-8"
     inkscape:window-y="-8"
     inkscape:window-maximized="1"
     inkscape:current-layer="svg88" />
  <title
     id="title1">cordeavide0020</title>
  <desc
     id="desc1">Generated by MuseScore 4.1.1</desc>
  <path
     class=""
     fill="#ffffff"
     fill-rule="evenodd"
     d="M -252.98804,-35.137228 H 2723.392 V 4174.3028 H -252.98804 V -35.137228"
     id="path1" />
  <polyline
     class="StaffLines"
     fill="none"
     stroke="#000000"
     stroke-width="2.73"
     stroke-linejoin="bevel"
     points="336.614,634.252 2763.78,634.252"
     id="polyline1"
     transform="translate(-252.98804,-35.137228)" />
  <polyline
     class="StaffLines"
     fill="none"
     stroke="#000000"
     stroke-width="2.73"
     stroke-linejoin="bevel"
     points="336.614,659.055 2763.78,659.055"
     id="polyline2"
     transform="translate(-252.98804,-35.137228)" />
  <polyline
     class="StaffLines"
     fill="none"
     stroke="#000000"
     stroke-width="2.73"
     stroke-linejoin="bevel"
     points="336.614,683.858 2763.78,683.858"
     id="polyline3"
     transform="translate(-252.98804,-35.137228)" />
  <polyline
     class="StaffLines"
     fill="none"
     stroke="#000000"
     stroke-width="2.73"
     stroke-linejoin="bevel"
     points="336.614,708.661 2763.78,708.661"
     id="polyline4"
     transform="translate(-252.98804,-35.137228)" />
  <polyline
     class="StaffLines"
     fill="none"
     stroke="#000000"
     stroke-width="2.73"
     stroke-linejoin="bevel"
     points="336.614,733.465 2763.78,733.465"
     id="polyline5"
     transform="translate(-252.98804,-35.137228)" />
  <path
     class="Text"
     d="m 582.48496,180.03877 h -66.109 v 5.172 h 1.984 c 6.266,0.11 8.36,0.438 9.235,1.547 0.656,0.985 0.656,1.203 0.656,6.813 v 52.359 c 0,5.609 0,5.828 -0.656,6.828 -0.875,1.094 -2.969,1.531 -9.235,1.531 h -1.984 v 5.172 h 67.547 l 2.203,-29.375 h -4.844 c -4.187,19.578 -8.687,23.766 -25.531,24.203 h -7.25 c -6.609,-0.218 -8.25,-1.312 -7.922,-5.281 v -28.047 h 2.203 c 11.328,-0.437 15.391,3.625 15.844,15.844 h 5.156 v -36.078 h -5.156 c -0.672,10.781 -4.953,15.062 -15.406,15.062 h -2.641 v -25.078 c -0.109,-4.625 0.984,-5.39 6.922,-5.5 h 5.734 c 18.032,-0.109 22.547,3.844 26.063,22.875 h 4.734 l -1.547,-28.047 m 43.688,51.375 12.547,-14.64 c 2.75,-3.188 5.281,-4.61 8.25,-4.61 h 0.984 v -3.968 h -22.766 v 3.968 h 2.094 c 3.297,0 4.953,0.766 4.953,2.422 0,1.094 -0.781,2.641 -2.203,4.391 l -6.937,8.359 -8.469,-10.781 c -0.656,-0.875 -1.094,-1.75 -1.094,-2.406 0,-1.438 1.422,-1.985 4.844,-1.985 h 1.531 v -3.968 h -26.062 v 3.968 c 4.062,0.329 5.609,1.313 9.125,5.938 l 13.422,16.828 -12.657,14.734 c -3.734,4.188 -6.922,5.954 -9.89,5.844 h -0.672 v 3.953 h 23.219 v -3.953 h -1.657 c -2.531,0 -3.078,-0.109 -3.843,-0.453 -0.891,-0.547 -1.547,-1.531 -1.547,-2.531 0,-0.766 0.328,-1.75 0.89,-2.406 l 9.235,-11 8.359,11.109 c 0.766,1.094 1.422,2.531 1.422,3.297 0,1.422 -1.641,1.984 -5.828,1.984 h -0.766 v 3.953 h 27.719 v -3.953 h -0.766 c -3.859,0 -6.375,-1.437 -9.578,-5.39 l -13.859,-18.704 m 73.172,3.297 c 0.109,-16.5 -9.25,-28.156 -22.672,-28.156 -14.078,0 -24.641,12.203 -24.641,28.703 0,15.516 10.016,25.86 24.86,25.86 10.562,0 17.937,-5.172 22.453,-15.625 l -3.86,-2.094 c -4.5,8.469 -9.125,11.765 -16.5,11.765 -5.609,0 -9.672,-2.296 -12.531,-7.25 -1.984,-3.296 -2.859,-7.156 -2.75,-13.203 h 35.641 m -35.532,-4.734 c 0,-7.703 3.516,-18.703 12.75,-18.703 6.61,0 11,5.844 11,14.75 0,3.078 -0.984,3.953 -4.5,3.953 h -19.25 m 61.157,-21.781 -19.469,1.218 v 4.735 h 4.5 c 4.187,0.109 4.734,0.765 4.734,5.5 v 31.453 c -0.109,1.656 -0.218,2.312 -0.656,2.859 -0.766,0.985 -2.969,1.438 -7.703,1.547 h -0.438 v 3.953 h 29.375 v -3.953 h -1.984 c -7.375,-0.234 -8.359,-0.781 -8.359,-4.734 v -5.938 c 0.109,-18.484 6.703,-32.562 15.281,-33 -1.531,1.75 -1.969,2.86 -1.969,4.938 0,3.531 2.531,6.062 6.047,6.062 4.063,0 6.703,-2.968 6.703,-7.375 0,-5.39 -3.73,-8.906 -9.562,-8.906 -6.938,0 -12.875,5.5 -16.5,15.281 v -13.64 m 68.782,35.093 c -3.52,7.922 -7.25,11.11 -12.97,11.11 -8.8,0 -14.3,-8.031 -14.3,-20.891 0,-13.422 5.39,-22.234 13.52,-22.234 3.31,0 6.17,1.547 6.17,3.312 0,0.328 -0.11,0.657 -0.67,1.313 -1.75,2.094 -2.19,3.187 -2.19,5.062 0,3.625 2.75,6.157 6.6,6.157 3.96,0 6.71,-3.079 6.71,-7.469 0,-7.485 -7.37,-13.094 -17.17,-13.094 -14.29,0 -24.53,11.656 -24.53,28.156 0,15.625 9.36,26.407 23,26.407 9.78,0 15.39,-4.516 20.13,-16.172 l -4.3,-1.657 m 23.92,-62.484 c -3.51,0 -6.37,2.859 -6.37,6.391 0,3.515 2.86,6.375 6.26,6.375 3.64,0 6.5,-2.86 6.5,-6.375 0,-3.532 -2.86,-6.391 -6.39,-6.391 m 5.17,27.391 -20.67,1.218 v 4.735 h 5.61 c 4.17,0.109 4.72,0.765 4.72,5.5 v 31.453 c -0.11,1.656 -0.22,2.312 -0.66,2.859 -0.76,0.985 -2.86,1.438 -7.59,1.547 h -0.77 v 3.953 h 28.5 v -3.953 h -0.78 c -7.36,-0.234 -8.36,-0.781 -8.36,-4.734 v -42.578 m 54.91,35.093 c -3.52,7.922 -7.25,11.11 -12.97,11.11 -8.8,0 -14.3,-8.031 -14.3,-20.891 0,-13.422 5.39,-22.234 13.52,-22.234 3.31,0 6.17,1.547 6.17,3.312 0,0.328 -0.11,0.657 -0.67,1.313 -1.75,2.094 -2.19,3.187 -2.19,5.062 0,3.625 2.75,6.157 6.6,6.157 3.96,0 6.71,-3.079 6.71,-7.469 0,-7.485 -7.37,-13.094 -17.17,-13.094 -14.29,0 -24.53,11.656 -24.53,28.156 0,15.625 9.36,26.407 23,26.407 9.78,0 15.39,-4.516 20.13,-16.172 l -4.3,-1.657 m 57.59004,-8.578 c 0.11,-16.5 -9.25,-28.156 -22.67004,-28.156 -14.08,0 -24.64,12.203 -24.64,28.703 0,15.516 10.02,25.86 24.86,25.86 10.56004,0 17.94004,-5.172 22.45004,-15.625 l -3.86,-2.094 c -4.5,8.469 -9.12004,11.765 -16.50004,11.765 -5.61,0 -9.67,-2.296 -12.53,-7.25 -1.98,-3.296 -2.86,-7.156 -2.75,-13.203 H 935.342 m -35.53004,-4.734 c 0,-7.703 3.52,-18.703 12.75,-18.703 6.61,0 11.00004,5.844 11.00004,14.75 0,3.078 -0.98004,3.953 -4.50004,3.953 h -19.25 m 112.17004,30.25 19.14,-0.766 v -4.734 h -1.98 c -6.27,-0.328 -6.81,-0.984 -6.81,-8.031 v -68.313 l -21.57,1.219 v 4.734 h 6.49 c 4.19,0.11 4.73,0.766 4.73,5.5 v 24.86 c -4.06,-5.61 -8.79,-8.141 -15.17,-8.141 -12.44,0 -21.89,11.984 -21.89,27.828 0,15.625 9.13,26.735 21.89,26.735 6.92,0 11.66,-2.969 15.17,-9.579 v 8.688 m -12.98,-47.734 c 4.51,0 8.81,3.296 10.78,8.359 1.44,3.297 2.09,7.812 2.09,13.203 0,12.859 -5.06,21.109 -12.98,21.109 -7.8,0 -12.42,-7.25 -12.42,-19.468 0,-6.594 0.65,-11.547 2.09,-15.172 1.86,-4.953 5.94,-8.031 10.44,-8.031 m 85.34,22.218 c 0.11,-16.5 -9.25,-28.156 -22.67,-28.156 -14.08,0 -24.64,12.203 -24.64,28.703 0,15.516 10.02,25.86 24.86,25.86 10.56,0 17.94,-5.172 22.45,-15.625 l -3.86,-2.094 c -4.5,8.469 -9.12,11.765 -16.5,11.765 -5.61,0 -9.67,-2.296 -12.53,-7.25 -1.98,-3.296 -2.86,-7.156 -2.75,-13.203 h 35.64 m -35.53,-4.734 c 0,-7.703 3.52,-18.703 12.75,-18.703 6.61,0 11,5.844 11,14.75 0,3.078 -0.98,3.953 -4.5,3.953 h -19.25 m 112.94,13.312 c -3.52,7.922 -7.25,11.11 -12.97,11.11 -8.8,0 -14.3,-8.031 -14.3,-20.891 0,-13.422 5.39,-22.234 13.52,-22.234 3.31,0 6.17,1.547 6.17,3.312 0,0.328 -0.11,0.657 -0.67,1.313 -1.75,2.094 -2.19,3.187 -2.19,5.062 0,3.625 2.75,6.157 6.6,6.157 3.96,0 6.71,-3.079 6.71,-7.469 0,-7.485 -7.37,-13.094 -17.17,-13.094 -14.29,0 -24.53,11.656 -24.53,28.156 0,15.625 9.36,26.407 23,26.407 9.78,0 15.39,-4.516 20.13,-16.172 l -4.3,-1.657 m 34.16,-36.734 c -13.54,0 -23.99,11.984 -23.99,27.391 0,15.062 10.56,27.172 23.77,27.172 13.2,0 23.76,-12.11 23.76,-27.282 0,-15.078 -10.56,-27.281 -23.54,-27.281 m 0,4.719 c 7.7,0 11.98,8.031 11.98,22.562 0,14.625 -4.28,22.547 -12.2,22.547 -7.93,0 -12.21,-7.922 -12.21,-22.437 0,-14.969 4.18,-22.672 12.43,-22.672 m 49.06,-3.078 -19.47,1.218 v 4.735 h 4.5 c 4.19,0.109 4.73,0.765 4.73,5.5 v 31.453 c -0.11,1.656 -0.22,2.312 -0.65,2.859 -0.77,0.985 -2.97,1.438 -7.71,1.547 h -0.43 v 3.953 h 29.37 v -3.953 h -1.98 c -7.38,-0.234 -8.36,-0.781 -8.36,-4.734 v -5.938 c 0.11,-18.484 6.7,-32.562 15.28,-33 -1.53,1.75 -1.97,2.86 -1.97,4.938 0,3.531 2.53,6.062 6.05,6.062 4.06,0 6.7,-2.968 6.7,-7.375 0,-5.39 -3.73,-8.906 -9.56,-8.906 -6.94,0 -12.88,5.5 -16.5,15.281 v -13.64 m 68.01,52.031 19.14,-0.766 v -4.734 h -1.98 c -6.27,-0.328 -6.81,-0.984 -6.81,-8.031 v -68.313 l -21.57,1.219 v 4.734 h 6.49 c 4.19,0.11 4.73,0.766 4.73,5.5 v 24.86 c -4.06,-5.61 -8.79,-8.141 -15.17,-8.141 -12.44,0 -21.89,11.984 -21.89,27.828 0,15.625 9.13,26.735 21.89,26.735 6.92,0 11.66,-2.969 15.17,-9.579 v 8.688 m -12.98,-47.734 c 4.51,0 8.81,3.296 10.78,8.359 1.44,3.297 2.09,7.812 2.09,13.203 0,12.859 -5.06,21.109 -12.98,21.109 -7.8,0 -12.42,-7.25 -12.42,-19.468 0,-6.594 0.65,-11.547 2.09,-15.172 1.86,-4.953 5.94,-8.031 10.44,-8.031 m 85.34,22.218 c 0.11,-16.5 -9.25,-28.156 -22.67,-28.156 -14.08,0 -24.64,12.203 -24.64,28.703 0,15.516 10.02,25.86 24.86,25.86 10.56,0 17.94,-5.172 22.45,-15.625 l -3.86,-2.094 c -4.5,8.469 -9.12,11.765 -16.5,11.765 -5.61,0 -9.67,-2.296 -12.53,-7.25 -1.98,-3.296 -2.86,-7.156 -2.75,-13.203 h 35.64 m -35.53,-4.734 c 0,-7.703 3.52,-18.703 12.75,-18.703 6.61,0 11,5.844 11,14.75 0,3.078 -0.98,3.953 -4.5,3.953 h -19.25 m 108.44,-29.359 -15.41,-15.407 c -2.75,-2.75 -3.73,-3.406 -5.5,-3.406 -2.2,0 -3.84,1.641 -3.84,3.844 0,1.547 1.09,3.187 2.86,4.297 l 17.48,10.672 h 4.41 m 11.66,23.421 c 0,-6.921 -1.21,-10.453 -4.41,-13.093 -3.63,-2.969 -9.02,-4.391 -16.05,-4.391 -12.44,0 -21.45,5.828 -21.45,13.859 0,4.063 2.53,6.704 6.37,6.704 3.52,0 5.94,-2.313 5.94,-5.61 0,-1.422 -0.55,-2.969 -1.64,-4.5 -0.67,-0.781 -0.78,-1 -0.78,-1.547 0,-2.203 4.41,-4.187 9.69,-4.187 3.51,0 7.37,1.109 9.12,2.75 2.1,1.765 2.86,4.406 2.86,9.359 v 4.281 c -11.44,1.985 -15.06,2.86 -20.45,4.954 -9.58,3.531 -14.08,8.578 -14.08,15.625 0,7.921 6.16,12.875 15.95,12.875 7.58,0 14.41,-3.094 19.14,-8.704 1.75,5.61 4.5,7.813 9.68,7.813 4.95,0 10.12,-3.188 10.12,-6.375 0,-0.766 -0.44,-1.328 -1.11,-1.328 -0.44,0 -0.87,0.125 -1.64,0.453 -1.55,0.656 -2.2,0.766 -3.08,0.766 -3.09,0 -4.18,-1.985 -4.18,-7.594 v -22.11 m -10.35,13.422 c 0,6.594 -0.33,8.141 -2.19,11 -2.75,4.063 -7.7,6.813 -12.54,6.813 -5.07,0 -8.69,-3.625 -8.69,-8.578 0,-4.61 2.31,-7.922 7.14,-10.219 3.42,-1.547 7.7,-2.641 16.28,-4.078 v 5.062 m 85.08,8.688 -12.55,-29.031 c -0.33,-0.891 -0.54,-1.766 -0.54,-2.422 0,-1.875 1.43,-2.532 5.93,-2.532 h 1.55 v -3.968 h -25.97 v 3.968 h 0.89 c 4.17,0 5.72,1.094 7.25,4.735 l 18.92,44.219 h 3.86 l 15.61,-38.61 c 3.08,-7.484 5.72,-10.015 10.24,-10.344 h 0.43 v -3.968 h -22 v 3.968 h 1.55 c 3.85,0 5.94,1.313 5.94,3.844 0,1.328 -0.33,2.969 -1,4.625 l -10.11,25.516 m 46.03,-65.344 c -3.51,0 -6.37,2.859 -6.37,6.391 0,3.515 2.86,6.375 6.26,6.375 3.64,0 6.5,-2.86 6.5,-6.375 0,-3.532 -2.86,-6.391 -6.39,-6.391 m 5.17,27.391 -20.67,1.218 v 4.735 h 5.61 c 4.17,0.109 4.72,0.765 4.72,5.5 v 31.453 c -0.11,1.656 -0.22,2.312 -0.66,2.859 -0.76,0.985 -2.86,1.438 -7.59,1.547 h -0.77 v 3.953 h 28.5 v -3.953 h -0.78 c -7.36,-0.234 -8.36,-0.781 -8.36,-4.734 v -42.578 m 54.14,52.031 19.14,-0.766 v -4.734 h -1.98 c -6.27,-0.328 -6.81,-0.984 -6.81,-8.031 v -68.313 l -21.57,1.219 v 4.734 h 6.49 c 4.19,0.11 4.73,0.766 4.73,5.5 v 24.86 c -4.06,-5.61 -8.79,-8.141 -15.17,-8.141 -12.44,0 -21.89,11.984 -21.89,27.828 0,15.625 9.13,26.735 21.89,26.735 6.92,0 11.66,-2.969 15.17,-9.579 v 8.688 m -12.98,-47.734 c 4.51,0 8.81,3.296 10.78,8.359 1.44,3.297 2.09,7.812 2.09,13.203 0,12.859 -5.06,21.109 -12.98,21.109 -7.8,0 -12.42,-7.25 -12.42,-19.468 0,-6.594 0.65,-11.547 2.09,-15.172 1.86,-4.953 5.94,-8.031 10.44,-8.031 m 85.34,22.218 c 0.11,-16.5 -9.25,-28.156 -22.67,-28.156 -14.08,0 -24.64,12.203 -24.64,28.703 0,15.516 10.02,25.86 24.86,25.86 10.56,0 17.94,-5.172 22.45,-15.625 l -3.86,-2.094 c -4.5,8.469 -9.12,11.765 -16.5,11.765 -5.61,0 -9.67,-2.296 -12.53,-7.25 -1.98,-3.296 -2.86,-7.156 -2.75,-13.203 h 35.64 m -35.53,-4.734 c 0,-7.703 3.52,-18.703 12.75,-18.703 6.61,0 11,5.844 11,14.75 0,3.078 -0.98,3.953 -4.5,3.953 h -19.25 m 92.38,-21.781 -19.03,1.218 v 4.735 h 3.96 c 4.18,0.109 4.72,0.765 4.72,5.5 v 31.453 c -0.11,1.656 -0.22,2.312 -0.65,2.859 -0.77,0.985 -2.86,1.438 -7.6,1.547 h -0.43 v 3.953 h 27.82 v -3.953 h -0.43 c -7.38,-0.234 -8.36,-0.781 -8.36,-4.734 v -16.281 c 0,-5.391 0.76,-10.344 1.98,-12.875 2.31,-4.954 7.25,-8.36 11.99,-8.36 2.85,0 6.15,1.547 7.81,3.86 1.65,2.406 2.42,5.718 2.42,11 v 22.984 c -0.11,1.656 -0.22,2.312 -0.66,2.859 -0.78,0.985 -2.98,1.438 -7.7,1.547 h -0.44 v 3.953 h 27.83 v -3.953 h -0.44 c -7.26,-0.234 -8.25,-0.781 -8.25,-4.734 v -22.11 c 0,-7.921 -0.34,-9.906 -2.31,-13.64 -2.75,-5.281 -8.25,-8.469 -14.86,-8.469 -7.14,0 -12.53,3.297 -17.37,10.563 v -8.922 m 67.43,-24.188 c -9.56,0 -16.93,7.36 -16.93,16.719 0,9.562 7.26,16.937 16.5,16.937 9.23,0 16.5,-7.375 16.5,-16.828 0,-9.468 -7.05,-16.828 -16.07,-16.828 m -0.21,6.266 c 5.5,0 10.01,4.734 10.01,10.562 0,5.938 -4.51,10.563 -10.23,10.563 -5.72,0 -10.35,-4.735 -10.35,-10.453 0,-6.063 4.63,-10.672 10.57,-10.672 m 77.32,45.422 h -4.84 l -1.09,5.609 c -1.43,7.156 -2.32,7.813 -9.13,7.813 h -24.64 c 7.59,-7.922 10.11,-10.219 17.16,-15.719 10.01,-7.703 14.29,-11.563 16.82,-14.86 3.52,-4.843 5.29,-9.671 5.29,-15.062 0,-12.547 -10.35,-21.453 -24.75,-21.453 -13.97,0 -24.64,8.906 -24.64,20.672 0,6.937 3.51,11.672 8.68,11.672 4.08,0 6.83,-2.75 6.83,-6.719 0,-2.75 -1.55,-5.281 -3.86,-6.266 -4.06,-1.656 -4.28,-1.875 -4.28,-3.297 0,-1.656 1.09,-4.187 2.64,-6.062 2.75,-3.406 7.25,-5.266 12.42,-5.266 9.14,0 14.53,5.61 14.53,14.844 0,8.141 -3.86,15.516 -12.98,25.187 -8.14,8.579 -13.2,13.969 -15.08,16.063 -3.95,4.625 -5.94,7.156 -10.78,13.531 v 3.078 h 49.61 l 2.09,-23.765 m 20.52,11.562 c -3.84,0 -6.92,3.078 -6.92,6.813 0,3.843 3.08,6.937 6.81,6.937 3.86,0 6.94,-3.094 6.94,-6.937 0,-3.735 -3.08,-6.813 -6.83,-6.813"
     id="path5" />
  <polyline
     class="BarLine"
     fill="none"
     stroke="#000000"
     stroke-width="4.46"
     stroke-linejoin="bevel"
     points="2739.59,632.888 2739.59,734.829"
     id="polyline6"
     transform="translate(-252.98804,-35.137228)" />
  <polyline
     class="BarLine"
     fill="none"
     stroke="#000000"
     stroke-width="13.64"
     stroke-linejoin="bevel"
     points="2756.96,632.888 2756.96,734.829"
     id="polyline7"
     transform="translate(-252.98804,-35.137228)" />
  <polyline
     class="BarLine"
     fill="none"
     stroke="#000000"
     stroke-width="4.46"
     stroke-linejoin="bevel"
     points="1993.84,632.888 1993.84,734.829"
     id="polyline8"
     transform="translate(-252.98804,-35.137228)" />
  <polyline
     class="BarLine"
     fill="none"
     stroke="#000000"
     stroke-width="4.46"
     stroke-linejoin="bevel"
     points="1248.09,632.888 1248.09,734.829"
     id="polyline9"
     transform="translate(-252.98804,-35.137228)" />
  <polyline
     class="LedgerLine"
     fill="none"
     stroke="#000000"
     stroke-width="3.97"
     stroke-linejoin="bevel"
     points="764.481,783.071 814.08,783.071"
     id="polyline10"
     transform="translate(-252.98804,-35.137228)" />
  <polyline
     class="LedgerLine"
     fill="none"
     stroke="#000000"
     stroke-width="3.97"
     stroke-linejoin="bevel"
     points="764.481,758.268 814.08,758.268"
     id="polyline11"
     transform="translate(-252.98804,-35.137228)" />
  <polyline
     class="LedgerLine"
     fill="none"
     stroke="#000000"
     stroke-width="3.97"
     stroke-linejoin="bevel"
     points="1510.23,758.268 1559.83,758.268"
     id="polyline12"
     transform="translate(-252.98804,-35.137228)" />
  <polyline
     class="LedgerLine"
     fill="none"
     stroke="#000000"
     stroke-width="3.97"
     stroke-linejoin="bevel"
     points="1746.58,783.071 1796.18,783.071"
     id="polyline13"
     transform="translate(-252.98804,-35.137228)" />
  <polyline
     class="LedgerLine"
     fill="none"
     stroke="#000000"
     stroke-width="3.97"
     stroke-linejoin="bevel"
     points="528.133,807.874 577.732,807.874"
     id="polyline14"
     transform="translate(-252.98804,-35.137228)" />
  <polyline
     class="LedgerLine"
     fill="none"
     stroke="#000000"
     stroke-width="3.97"
     stroke-linejoin="bevel"
     points="528.133,758.268 577.732,758.268"
     id="polyline15"
     transform="translate(-252.98804,-35.137228)" />
  <polyline
     class="LedgerLine"
     fill="none"
     stroke="#000000"
     stroke-width="3.97"
     stroke-linejoin="bevel"
     points="1000.83,758.268 1050.43,758.268"
     id="polyline16"
     transform="translate(-252.98804,-35.137228)" />
  <polyline
     class="LedgerLine"
     fill="none"
     stroke="#000000"
     stroke-width="3.97"
     stroke-linejoin="bevel"
     points="1746.58,758.268 1796.18,758.268"
     id="polyline17"
     transform="translate(-252.98804,-35.137228)" />
  <polyline
     class="LedgerLine"
     fill="none"
     stroke="#000000"
     stroke-width="3.97"
     stroke-linejoin="bevel"
     points="1000.83,807.874 1050.43,807.874"
     id="polyline18"
     transform="translate(-252.98804,-35.137228)" />
  <polyline
     class="LedgerLine"
     fill="none"
     stroke="#000000"
     stroke-width="3.97"
     stroke-linejoin="bevel"
     points="1000.83,783.071 1050.43,783.071"
     id="polyline19"
     transform="translate(-252.98804,-35.137228)" />
  <polyline
     class="LedgerLine"
     fill="none"
     stroke="#000000"
     stroke-width="3.97"
     stroke-linejoin="bevel"
     points="528.133,783.071 577.732,783.071"
     id="polyline20"
     transform="translate(-252.98804,-35.137228)" />
  <polyline
     class="LedgerLine"
     fill="none"
     stroke="#000000"
     stroke-width="3.97"
     stroke-linejoin="bevel"
     points="1273.89,783.071 1323.48,783.071"
     id="polyline21"
     transform="translate(-252.98804,-35.137228)" />
  <polyline
     class="LedgerLine"
     fill="none"
     stroke="#000000"
     stroke-width="3.97"
     stroke-linejoin="bevel"
     points="1273.89,758.268 1323.48,758.268"
     id="polyline22"
     transform="translate(-252.98804,-35.137228)" />
  <polyline
     class="LedgerLine"
     fill="none"
     stroke="#000000"
     stroke-width="3.97"
     stroke-linejoin="bevel"
     points="1510.23,783.071 1559.83,783.071"
     id="polyline23"
     transform="translate(-252.98804,-35.137228)" />
  <polyline
     class="LedgerLine"
     fill="none"
     stroke="#000000"
     stroke-width="3.97"
     stroke-linejoin="bevel"
     points="764.481,807.874 814.08,807.874"
     id="polyline24"
     transform="translate(-252.98804,-35.137228)" />
  <polyline
     class="Stem"
     fill="none"
     stroke="#000000"
     stroke-width="2.73"
     stroke-linejoin="bevel"
     points="1402.1,650.82 1402.1,733.465"
     id="polyline25"
     transform="translate(-252.98804,-35.137228)" />
  <polyline
     class="Stem"
     fill="none"
     stroke="#000000"
     stroke-width="2.73"
     stroke-linejoin="bevel"
     points="1040.38,816.307 1040.38,683.858"
     id="polyline26"
     transform="translate(-252.98804,-35.137228)" />
  <polyline
     class="Stem"
     fill="none"
     stroke="#000000"
     stroke-width="2.73"
     stroke-linejoin="bevel"
     points="1904.31,704.693 1904.31,621.85"
     id="polyline27"
     transform="translate(-252.98804,-35.137228)" />
  <polyline
     class="Stem"
     fill="none"
     stroke="#000000"
     stroke-width="2.73"
     stroke-linejoin="bevel"
     points="567.686,816.307 567.686,683.858"
     id="polyline28"
     transform="translate(-252.98804,-35.137228)" />
  <polyline
     class="Stem"
     fill="none"
     stroke="#000000"
     stroke-width="2.73"
     stroke-linejoin="bevel"
     points="804.034,816.307 804.034,683.858"
     id="polyline29"
     transform="translate(-252.98804,-35.137228)" />
  <polyline
     class="Stem"
     fill="none"
     stroke="#000000"
     stroke-width="2.73"
     stroke-linejoin="bevel"
     points="1786.13,779.102 1786.13,683.858"
     id="polyline30"
     transform="translate(-252.98804,-35.137228)" />
  <polyline
     class="Stem"
     fill="none"
     stroke="#000000"
     stroke-width="2.73"
     stroke-linejoin="bevel"
     points="1158.56,704.693 1158.56,621.85"
     id="polyline31"
     transform="translate(-252.98804,-35.137228)" />
  <polyline
     class="Stem"
     fill="none"
     stroke="#000000"
     stroke-width="2.73"
     stroke-linejoin="bevel"
     points="656.352,650.82 656.352,733.465"
     id="polyline32"
     transform="translate(-252.98804,-35.137228)" />
  <polyline
     class="Stem"
     fill="none"
     stroke="#000000"
     stroke-width="2.73"
     stroke-linejoin="bevel"
     points="1549.79,779.102 1549.79,683.858"
     id="polyline33"
     transform="translate(-252.98804,-35.137228)" />
  <polyline
     class="Stem"
     fill="none"
     stroke="#000000"
     stroke-width="2.73"
     stroke-linejoin="bevel"
     points="1638.45,688.025 1638.45,758.268"
     id="polyline34"
     transform="translate(-252.98804,-35.137228)" />
  <polyline
     class="Stem"
     fill="none"
     stroke="#000000"
     stroke-width="2.73"
     stroke-linejoin="bevel"
     points="1313.44,779.102 1313.44,683.858"
     id="polyline35"
     transform="translate(-252.98804,-35.137228)" />
  <polyline
     class="Stem"
     fill="none"
     stroke="#000000"
     stroke-width="2.73"
     stroke-linejoin="bevel"
     points="2059.19,741.898 2059.19,659.055"
     id="polyline36"
     transform="translate(-252.98804,-35.137228)" />
  <polyline
     class="Stem"
     fill="none"
     stroke="#000000"
     stroke-width="2.73"
     stroke-linejoin="bevel"
     points="2147.86,650.82 2147.86,733.465"
     id="polyline37"
     transform="translate(-252.98804,-35.137228)" />
  <polyline
     class="Stem"
     fill="none"
     stroke="#000000"
     stroke-width="2.73"
     stroke-linejoin="bevel"
     points="2295.54,741.898 2295.54,659.055"
     id="polyline38"
     transform="translate(-252.98804,-35.137228)" />
  <polyline
     class="Stem"
     fill="none"
     stroke="#000000"
     stroke-width="2.73"
     stroke-linejoin="bevel"
     points="892.7,688.025 892.7,758.268"
     id="polyline39"
     transform="translate(-252.98804,-35.137228)" />
  <polyline
     class="Stem"
     fill="none"
     stroke="#000000"
     stroke-width="2.73"
     stroke-linejoin="bevel"
     points="2384.2,688.025 2384.2,758.268"
     id="polyline40"
     transform="translate(-252.98804,-35.137228)" />
  <polyline
     class="Stem"
     fill="none"
     stroke="#000000"
     stroke-width="2.73"
     stroke-linejoin="bevel"
     points="2531.89,741.898 2531.89,659.055"
     id="polyline41"
     transform="translate(-252.98804,-35.137228)" />
  <polyline
     class="Stem"
     fill="none"
     stroke="#000000"
     stroke-width="2.73"
     stroke-linejoin="bevel"
     points="2650.06,704.693 2650.06,621.85"
     id="polyline42"
     transform="translate(-252.98804,-35.137228)" />
  <path
     class="Note"
     d="m 1265.922,752.1038 c 0,4.26304 3.0694,9.02217 11.1149,9.02217 10.3089,0 21.1292,-8.43309 21.1292,-17.1607 0,-5.85975 -4.9606,-9.13064 -11.1149,-9.13064 -9.6267,0 -21.1292,8.13851 -21.1292,17.26917"
     id="path42"
     style="stroke-width:0.992126" />
  <path
     class="Note"
     d="m 756.52196,789.3088 c 0,4.26304 3.0694,9.02217 11.1149,9.02217 10.3089,0 21.1292,-8.43309 21.1292,-17.1607 0,-5.85975 -4.9606,-9.13064 -11.1149,-9.13064 -9.6267,0 -21.1292,8.13851 -21.1292,17.26917"
     id="path43"
     style="stroke-width:0.992126" />
  <path
     class="Note"
     d="m 1502.272,752.1038 c 0,4.26304 3.0694,9.02217 11.1149,9.02217 10.3089,0 21.1292,-8.43309 21.1292,-17.1607 0,-5.85975 -4.9606,-9.13064 -11.1149,-9.13064 -9.6267,0 -21.1292,8.13851 -21.1292,17.26917"
     id="path44"
     style="stroke-width:0.992126" />
  <path
     class="Note"
     d="m 1620.452,677.6938 c 0,4.26304 3.0694,9.02217 11.1149,9.02217 10.3089,0 21.1292,-8.43309 21.1292,-17.1607 0,-5.85975 -4.9606,-9.13064 -11.1149,-9.13064 -9.6267,0 -21.1292,8.13851 -21.1292,17.26917"
     id="path45"
     style="stroke-width:0.992126" />
  <path
     class="Note"
     d="m 283.82596,789.3088 c 0,4.26304 3.06939,9.02217 11.11489,9.02217 10.30888,0 21.1292,-8.43309 21.1292,-17.1607 0,-5.85975 -4.96063,-9.13064 -11.11488,-9.13064 -9.6267,0 -21.12921,8.13851 -21.12921,17.26917"
     id="path46"
     style="stroke-width:0.992126" />
  <path
     class="Note"
     d="m 1384.102,652.8908 c 0,4.26304 3.0694,9.02217 11.1149,9.02217 10.3089,0 21.1292,-8.43309 21.1292,-17.1607 0,-5.85975 -4.9606,-9.13064 -11.1149,-9.13064 -9.6267,0 -21.1292,8.13851 -21.1292,17.26917"
     id="path47"
     style="stroke-width:0.992126" />
  <path
     class="Note"
     d="m 1775.332,714.8988 c 0,4.26304 3.0694,9.02217 11.1149,9.02217 10.3089,0 21.1292,-8.43309 21.1292,-17.1607 0,-5.85975 -4.9606,-9.13064 -11.1149,-9.13064 -9.6267,0 -21.1292,8.13851 -21.1292,17.26917"
     id="path48"
     style="stroke-width:0.992126" />
  <path
     class="Note"
     d="m 401.99996,615.6858 c 0,4.26304 3.06939,9.02217 11.11489,9.02217 10.30888,0 21.12921,-8.43309 21.12921,-17.1607 0,-5.85975 -4.96063,-9.13064 -11.11489,-9.13064 -9.6267,0 -21.12921,8.13851 -21.12921,17.26917"
     id="path49"
     style="stroke-width:0.992126" />
  <path
     class="Note"
     d="m 1893.502,615.6858 c 0,4.26304 3.0694,9.02217 11.1149,9.02217 10.3089,0 21.1292,-8.43309 21.1292,-17.1607 0,-5.85975 -4.9606,-9.13064 -11.1149,-9.13064 -9.6267,0 -21.1292,8.13851 -21.1292,17.26917"
     id="path50"
     style="stroke-width:0.992126" />
  <path
     class="Note"
     d="m 874.69196,677.6938 c 0,4.26304 3.0694,9.02217 11.1149,9.02217 10.3089,0 21.1292,-8.43309 21.1292,-17.1607 0,-5.85975 -4.9606,-9.13064 -11.1149,-9.13064 -9.6267,0 -21.1292,8.13851 -21.1292,17.26917"
     id="path51"
     style="stroke-width:0.992126" />
  <path
     class="Note"
     d="m 520.17396,789.3088 c 0,4.26304 3.06939,9.02217 11.11489,9.02217 10.30888,0 21.12921,-8.43309 21.12921,-17.1607 0,-5.85975 -4.96063,-9.13064 -11.11489,-9.13064 -9.6267,0 -21.12921,8.13851 -21.12921,17.26917"
     id="path52"
     style="stroke-width:0.992126" />
  <path
     class="Note"
     d="m 1029.582,752.1038 c 0,4.26304 3.0694,9.02217 11.1149,9.02217 10.3089,0 21.1292,-8.43309 21.1292,-17.1607 0,-5.85975 -4.9606,-9.13064 -11.1149,-9.13064 -9.6267,0 -21.1292,8.13851 -21.1292,17.26917"
     id="path53"
     style="stroke-width:0.992126" />
  <path
     class="Note"
     d="m 2129.852,652.8908 c 0,4.26304 3.0694,9.02217 11.1149,9.02217 10.3089,0 21.1292,-8.43309 21.1292,-17.1607 0,-5.85975 -4.9606,-9.13064 -11.1149,-9.13064 -9.6267,0 -21.1292,8.13851 -21.1292,17.26917"
     id="path54"
     style="stroke-width:0.992126" />
  <path
     class="Note"
     d="m 638.34796,652.8908 c 0,4.26304 3.06939,9.02217 11.11489,9.02217 10.30888,0 21.12921,-8.43309 21.12921,-17.1607 0,-5.85975 -4.96064,-9.13064 -11.11489,-9.13064 -9.6267,0 -21.12921,8.13851 -21.12921,17.26917"
     id="path55"
     style="stroke-width:0.992126" />
  <path
     class="Note"
     d="m 2248.022,714.8988 c 0,4.26304 3.0694,9.02217 11.1149,9.02217 10.3089,0 21.1292,-8.43309 21.1292,-17.1607 0,-5.85975 -4.9606,-9.13064 -11.1149,-9.13064 -9.6267,0 -21.1292,8.13851 -21.1292,17.26917"
     id="path56"
     style="stroke-width:0.992126" />
  <path
     class="Note"
     d="m 1147.752,615.6858 c 0,4.26304 3.0694,9.02217 11.1149,9.02217 10.3089,0 21.1292,-8.43309 21.1292,-17.1607 0,-5.85975 -4.9606,-9.13064 -11.1149,-9.13064 -9.6267,0 -21.1292,8.13851 -21.1292,17.26917"
     id="path57"
     style="stroke-width:0.992126" />
  <path
     class="Note"
     d="m 2366.202,677.6938 c 0,4.26304 3.0694,9.02217 11.1149,9.02217 10.3089,0 21.1292,-8.43309 21.1292,-17.1607 0,-5.85975 -4.9606,-9.13064 -11.1149,-9.13064 -9.6267,0 -21.1292,8.13851 -21.1292,17.26917"
     id="path58"
     style="stroke-width:0.992126" />
  <path
     class="Note"
     d="m 2011.682,714.8988 c 0,4.26304 3.0694,9.02217 11.1149,9.02217 10.3089,0 21.1292,-8.43309 21.1292,-17.1607 0,-5.85975 -4.9606,-9.13064 -11.1149,-9.13064 -9.6267,0 -21.1292,8.13851 -21.1292,17.26917"
     id="path59"
     style="stroke-width:0.992126" />
  <path
     class="Clef"
     d="m 166.96502,673.22923 c 0,-14.88191 -10.61882,-25.00467 -25.09771,-25.00467 -0.99212,-5.95276 -1.89119,-11.90552 -2.77478,-17.36221 10.41733,-11.02192 17.74973,-23.51646 17.74973,-39.18898 0,-9.13063 -2.77487,-16.37007 -4.46456,-19.95066 -2.37178,-5.05389 -5.2552,-8.63546 -6.94489,-8.63546 -0.68208,0 -3.85996,1.30266 -7.03794,5.16302 -6.44882,7.54909 -8.23147,20.13669 -8.23147,28.4767 0,5.36373 0.49606,10.21582 2.18575,21.43924 -0.10854,0 -5.27067,5.2552 -7.34798,7.03795 -9.03757,8.34001 -21.53221,20.43154 -21.53221,40.18107 0,18.64892 16.16858,33.23625 34.63145,33.23625 2.86784,0 5.54965,-0.29456 7.93701,-0.69756 1.78265,9.53363 2.97637,16.47852 2.97637,21.73371 0,10.32436 -5.36373,15.78105 -15.28499,15.78105 -2.48031,0 -4.55753,-0.49606 -4.66606,-0.6046 -0.18603,0 -0.38753,-0.0931 -0.38753,-0.18602 0,-0.2015 0.2015,-0.31004 0.49606,-0.4031 4.66607,-0.69757 9.31666,-4.66607 9.31666,-11.00635 0,-5.36373 -4.06156,-11.02193 -11.50251,-11.02193 -6.85182,0 -11.31639,5.6582 -11.31639,12.20008 0,6.55736 4.96063,15.19193 18.35434,15.19193 12.80457,0 19.05189,-7.25492 19.05189,-19.95106 0,-3.85997 -0.58903,-8.32453 -1.58115,-13.98273 -0.29456,-1.98425 -0.79063,-5.06917 -1.48819,-8.83617 9.71966,-3.27094 16.9591,-13.30064 16.9591,-23.6095 m -30.5544,-81.26129 c 0.99212,-3.96851 5.45669,-14.38583 10.61892,-14.38583 1.48819,0 3.96851,4.75903 3.96851,11.70391 0,10.21582 -7.73551,17.96681 -14.58743,24.80315 -0.58903,-3.9685 -1.08509,-7.93701 -1.08509,-11.99847 0,-3.76701 0.38752,-7.05342 1.08509,-10.12276 m 2.97638,102.59198 c -14.18423,0 -26.29131,-9.92126 -26.29131,-24.91164 0,-12.09159 8.63464,-22.91191 17.26921,-30.55436 1.67421,-1.39522 3.27094,-2.88341 4.75913,-4.26306 0.88359,5.34815 1.68969,9.92126 2.27871,14.09126 -9.03757,2.57338 -15.17635,12.20007 -15.17635,21.42374 0,7.0534 5.45669,16.57161 13.3937,16.57161 0.79053,0 1.68969,-0.403 1.68969,-1.39513 0,-0.79062 -0.89916,-1.37975 -2.18575,-2.17032 -3.87554,-2.29429 -6.06129,-4.96063 -6.06129,-9.73524 0,-6.04577 4.5731,-10.91343 10.32426,-12.29308 l 5.75125,32.53865 c -1.98425,0.49607 -3.767,0.69757 -5.75125,0.69757 m 9.92126,-1.89119 c -2.07722,-11.79703 -4.75903,-27.57803 -5.4567,-31.94964 10.01433,0 14.29287,6.94494 15.17646,11.71954 0.10853,0.7906 0.29456,1.87574 0.29456,3.06939 0,7.14641 -2.97638,14.38583 -10.01432,17.16071 m -3.87545,51.99355 c 0,-3.67394 -3.3639,-5.25509 -6.63484,-5.25509 -4.17,0 -8.24705,2.57327 -8.24705,7.03784 0,1.89129 0.69757,3.28642 2.18576,4.66607 -2.57328,0.99212 -5.2552,2.97638 -5.2552,6.06129 0,3.27094 2.97638,5.4567 7.34799,5.4567 5.34815,0 9.11516,-2.97638 9.11516,-7.25493 0,-2.27881 -0.99213,-4.15452 -2.77488,-5.45669 2.88341,-1.28669 4.26306,-2.86784 4.26306,-5.25519 m -6.13878,3.9685 c -1.48818,-0.79052 -1.89129,-0.99212 -2.18575,-1.19362 l -0.10854,-0.093 c -1.58125,-0.89916 -2.07731,-1.59672 -2.07731,-2.77487 0,-1.79823 1.39523,-3.08492 3.37948,-3.08492 1.98425,0 3.06934,1.19363 3.06934,3.27094 0,1.59673 -0.58903,2.68182 -2.07722,3.87544 m -3.78248,11.90552 c -2.17027,0 -3.65846,-1.37965 -3.65846,-3.47245 0,-1.87571 0.88359,-3.5654 2.57328,-4.55752 0.4031,0.2015 0.49606,0.29456 0.79062,0.38752 1.19363,0.6046 1.19363,0.6046 1.39523,0.8061 1.98425,1.08519 2.68181,2.07732 2.68181,3.47244 0,1.87572 -1.59672,3.36391 -3.78248,3.36391"
     id="path60"
     style="stroke-width:0.992126" />
  <path
     class="TimeSig"
     d="m 217.64055,619.65466 c -6.0612,0 -8.23147,1.78273 -9.6267,3.27092 -0.29456,-2.07726 -0.49606,-3.67397 -0.49606,-5.25517 0,-5.65821 1.98425,-13.0062 8.92913,-13.0062 2.48032,0 3.9685,0.8061 4.96063,1.89129 -2.07721,0.89907 -3.767,3.56541 -3.767,5.8597 0,3.5655 2.77487,6.34035 6.35585,6.34035 3.56541,0 6.44882,-2.77485 6.44882,-6.34035 v -0.31004 c 0,-0.88359 -0.2015,-2.37178 -0.6046,-3.1624 -1.28669,-3.58088 -5.45669,-8.83608 -15.37795,-8.83608 -8.92914,0 -15.37795,8.52604 -17.36221,13.09914 -0.99212,2.37183 -2.48031,7.23945 -2.48031,12.78915 0,6.06128 1.68972,12.89769 7.53396,18.05982 5.76678,4.3715 9.42524,4.5731 12.89768,4.5731 3.48792,0 16.47852,-4.07704 16.47852,-15.57952 0,-9.71974 -7.64244,-13.39371 -13.88976,-13.39371 m -3.67394,24.80313 c -3.27094,0 -5.95276,-4.46457 -5.95276,-10.0297 0,-5.54975 2.68182,-10.10733 5.95276,-10.10733 3.27094,0 6.06129,4.55758 6.06129,10.10733 0,5.56513 -2.79035,10.0297 -6.06129,10.0297"
     id="path61"
     style="stroke-width:0.992126" />
  <path
     class="TimeSig"
     d="m 211.00611,686.12685 v 7.3325 h -8.23158 c -0.69756,0 -1.39512,0.6045 -1.39512,1.39513 v 1.89129 c 0,0.79052 0.69756,1.37965 1.39512,1.37965 h 30.05835 c 0.8061,0 1.39512,-0.58913 1.39512,-1.37965 v -1.89129 c 0,-0.79063 -0.58902,-1.39513 -1.39512,-1.39513 h -8.8206 v -7.3325 h 8.8206 c 0.8061,0 1.39512,-0.69757 1.39512,-1.48819 v -1.89121 c 0,-0.6976 -0.58902,-1.37968 -1.39512,-1.37968 h -8.8206 v -15.78101 c 0,-0.58907 -0.29456,-1.08514 -0.79062,-1.28667 l -1.19363,-0.60457 c -0.2016,-0.093 -0.49606,-0.18607 -0.69766,-0.18607 -0.29447,0.0931 -0.69757,0.18607 -0.89907,0.38759 l -9.02219,8.23155 c -0.29447,0.31004 -0.403,0.69759 -0.403,1.10064 v 8.13854 h -11.40947 c 0,0 11.02194,-11.90552 22.72585,-27.59356 0.4031,-0.49606 0.49607,-0.99212 0.49607,-1.37965 0,-0.49606 -0.20151,-0.89906 -0.29447,-0.99212 l -2.18585,-2.18576 c -0.2015,-0.2015 -0.58902,-0.4031 -0.99213,-0.4031 -0.58902,0 -13.9982,0 -14.68029,0 -0.8061,0 -1.30216,0.6046 -1.39522,1.19373 0,0 -0.49607,7.34788 -3.06939,15.37792 -2.58883,8.04553 -5.5652,13.00616 -8.13853,16.66462 0,0 -0.29454,0.49607 -0.29454,1.10065 0,0.20152 0,0.38759 0.093,0.58909 0.40305,0.69757 0.99212,1.78275 0.99212,1.78275 0,0 0.20154,0.60451 1.08514,0.60451 h 17.0677"
     id="path62"
     style="stroke-width:0.992126" />
  <path
     class="Fingering"
     d="m 1519.752,558.91577 -7.28,0.594 -0.16,1.453 h 0.96 c 1.64,0 2.28,0.36 2.28,1.235 0,0.39 -0.11,0.953 -0.36,1.765 l -5.11,17.344 c -0.81,2.891 -0.85,2.922 -3.56,3.047 l -0.18,1.437 h 9.61 l 0.16,-1.437 h -0.49 c -1.92,0 -2.56,-0.234 -2.56,-1.047 0,-0.312 0.17,-1 0.46,-2 l 1.95,-6.516 c 1.08,2.766 2.12,3.516 4.76,3.516 6.47,0 10.39,-7.031 10.39,-12.875 0,-1.953 -0.39,-3.281 -1.31,-4.437 -1.04,-1.282 -2.64,-2.079 -4.2,-2.079 -2.05,0 -4.16,1.204 -5.95,3.407 l 0.59,-3.407 m 4.12,2.125 c 1.8,0 3,1.391 3,3.516 0,2.203 -0.68,4.922 -1.89,7.391 -1.39,3 -3,4.359 -5.11,4.359 -1.96,0 -3.35,-1.547 -3.35,-3.672 0,-3.594 2.82,-11.594 7.35,-11.594"
     id="path63" />
  <path
     class="Fingering"
     d="m 849.90196,659.34777 c -5.59,0 -9.67,6.079 -9.67,14.485 0,8.234 3.95,14.265 9.35,14.265 5.6,0 9.53,-5.828 9.53,-14.156 0,-4.234 -0.89,-7.75 -2.57,-10.515 -1.56,-2.516 -4.12,-4.079 -6.64,-4.079 m -0.28,1.719 c 1.31,0 2.6,0.875 3.56,2.485 1.08,1.875 1.44,4.156 1.44,9.64 0,5.641 -0.28,8.281 -1.08,10.031 -0.92,1.969 -2.36,3.157 -3.87,3.157 -1.36,0 -2.61,-0.875 -3.56,-2.469 -1.13,-1.891 -1.44,-4.359 -1.44,-10.922 0,-4.687 0.28,-7 1.08,-8.766 0.92,-2 2.36,-3.156 3.87,-3.156"
     id="path64" />
  <path
     class="Fingering"
     d="m 735.48296,777.41877 c -5.594,0 -9.672,6.078 -9.672,14.484 0,8.234 3.953,14.266 9.344,14.266 5.609,0 9.531,-5.829 9.531,-14.157 0,-4.234 -0.89,-7.75 -2.562,-10.515 -1.563,-2.516 -4.125,-4.078 -6.641,-4.078 m -0.281,1.718 c 1.312,0 2.594,0.875 3.562,2.485 1.078,1.875 1.438,4.156 1.438,9.64 0,5.641 -0.281,8.282 -1.078,10.032 -0.922,1.968 -2.36,3.156 -3.875,3.156 -1.36,0 -2.61,-0.875 -3.563,-2.469 -1.125,-1.891 -1.437,-4.359 -1.437,-10.922 0,-4.687 0.281,-7 1.078,-8.765 0.922,-2 2.359,-3.157 3.875,-3.157"
     id="path65" />
  <path
     class="Fingering"
     d="m 1638.582,557.15077 c -1.2,0 -2.16,0.969 -2.16,2.172 0,1.156 0.96,2.156 2.13,2.156 1.23,0 2.19,-0.969 2.19,-2.156 0,-1.203 -0.96,-2.172 -2.16,-2.172 m 0.72,9.765 -7.67,0.594 -0.16,1.453 h 0.95 c 1.64,0 2.29,0.36 2.29,1.235 0,0.39 -0.08,0.843 -0.36,1.765 l -2.33,7.797 c -0.75,2.547 -0.88,3.11 -0.88,4.031 0,1.407 1.21,2.485 2.72,2.485 3.44,0 5.8,-3.563 7.49,-6.156 l -1.25,-0.688 c -2.08,3.156 -3.75,4.844 -4.83,4.844 -0.41,0 -0.69,-0.36 -0.69,-0.844 0,-0.391 0.16,-1.125 0.48,-2.234 l 4.24,-14.282"
     id="path66" />
  <path
     class="Fingering"
     d="m 1001.032,732.39877 c -5.59,0 -9.67,6.078 -9.67,14.484 0,8.235 3.96,14.266 9.35,14.266 5.61,0 9.53,-5.828 9.53,-14.156 0,-4.235 -0.89,-7.75 -2.56,-10.516 -1.57,-2.516 -4.13,-4.078 -6.65,-4.078 m -0.28,1.719 c 1.32,0 2.6,0.875 3.57,2.484 1.07,1.875 1.43,4.156 1.43,9.641 0,5.64 -0.28,8.281 -1.07,10.031 -0.93,1.969 -2.36,3.156 -3.88,3.156 -1.36,0 -2.61,-0.875 -3.56,-2.469 -1.13,-1.89 -1.44,-4.359 -1.44,-10.921 0,-4.688 0.28,-7 1.08,-8.766 0.92,-2 2.36,-3.156 3.87,-3.156"
     id="path67" />
  <path
     class="Fingering"
     d="m 301.30396,558.91577 -7.281,0.594 -0.157,1.453 h 0.953 c 1.641,0 2.282,0.36 2.282,1.235 0,0.39 -0.11,0.953 -0.36,1.765 l -5.109,17.344 c -0.813,2.891 -0.844,2.922 -3.563,3.047 l -0.171,1.437 h 9.609 l 0.156,-1.437 h -0.484 c -1.922,0 -2.563,-0.234 -2.563,-1.047 0,-0.312 0.172,-1 0.453,-2 l 1.954,-6.516 c 1.078,2.766 2.125,3.516 4.765,3.516 6.469,0 10.391,-7.031 10.391,-12.875 0,-1.953 -0.391,-3.281 -1.313,-4.437 -1.047,-1.282 -2.64,-2.079 -4.203,-2.079 -2.047,0 -4.156,1.204 -5.953,3.407 l 0.594,-3.407 m 4.125,2.125 c 1.797,0 3,1.391 3,3.516 0,2.203 -0.688,4.922 -1.891,7.391 -1.39,3 -3,4.359 -5.109,4.359 -1.969,0 -3.36,-1.547 -3.36,-3.672 0,-3.594 2.829,-11.594 7.36,-11.594"
     id="path68" />
  <path
     class="Fingering"
     d="m 1169.212,567.02177 -1.09,3.609 c -0.27,-2.484 -2.27,-4.203 -4.88,-4.203 -6.03,0 -9.82,7.594 -9.82,12.875 0,3.922 2.35,6.516 5.9,6.516 2.53,0 4.08,-1 6.08,-3.875 -0.16,0.609 -0.19,0.875 -0.19,1.281 0,1.563 1,2.594 2.44,2.594 3.2,0 5.44,-3.641 6.64,-6.235 l -1.25,-0.671 c -1.52,3.078 -2.92,4.718 -3.95,4.718 -0.49,0 -0.85,-0.453 -0.85,-1 0,-0.453 0.16,-1.125 0.44,-2.172 l 4,-13.437 h -3.47 m -5.28,1.609 c 1.88,0 3.03,1.313 3.03,3.563 0,2.312 -0.79,5.469 -2.03,7.984 -1.25,2.485 -2.69,3.61 -4.69,3.61 -2,0 -3.2,-1.485 -3.2,-3.922 0,-3.594 2.25,-11.235 6.89,-11.235"
     id="path69" />
  <path
     class="Fingering"
     d="m 262.78696,769.91477 c -5.593,0 -9.672,6.078 -9.672,14.485 0,8.234 3.954,14.265 9.344,14.265 5.61,0 9.531,-5.828 9.531,-14.156 0,-4.234 -0.89,-7.75 -2.562,-10.516 -1.563,-2.515 -4.125,-4.078 -6.641,-4.078 m -0.281,1.719 c 1.313,0 2.594,0.875 3.563,2.484 1.078,1.875 1.437,4.157 1.437,9.641 0,5.641 -0.281,8.281 -1.078,10.031 -0.922,1.969 -2.359,3.157 -3.875,3.157 -1.359,0 -2.609,-0.875 -3.563,-2.469 -1.125,-1.891 -1.437,-4.36 -1.437,-10.922 0,-4.688 0.281,-7 1.078,-8.766 0.922,-2 2.359,-3.156 3.875,-3.156"
     id="path70" />
  <path
     class="Fingering"
     d="m 1792.812,558.91577 -7.28,0.594 -0.16,1.453 h 0.95 c 1.64,0 2.28,0.36 2.28,1.235 0,0.39 -0.11,0.953 -0.36,1.765 l -5.11,17.344 c -0.81,2.891 -0.84,2.922 -3.56,3.047 l -0.17,1.437 h 9.61 l 0.16,-1.437 h -0.49 c -1.92,0 -2.56,-0.234 -2.56,-1.047 0,-0.312 0.17,-1 0.45,-2 l 1.96,-6.516 c 1.07,2.766 2.12,3.516 4.76,3.516 6.47,0 10.39,-7.031 10.39,-12.875 0,-1.953 -0.39,-3.281 -1.31,-4.437 -1.05,-1.282 -2.64,-2.079 -4.2,-2.079 -2.05,0 -4.16,1.204 -5.96,3.407 l 0.6,-3.407 m 4.12,2.125 c 1.8,0 3,1.391 3,3.516 0,2.203 -0.69,4.922 -1.89,7.391 -1.39,3 -3,4.359 -5.11,4.359 -1.97,0 -3.36,-1.547 -3.36,-3.672 0,-3.594 2.83,-11.594 7.36,-11.594"
     id="path71" />
  <path
     class="Fingering"
     d="m 423.46196,567.02177 -1.094,3.609 c -0.265,-2.484 -2.265,-4.203 -4.875,-4.203 -6.031,0 -9.828,7.594 -9.828,12.875 0,3.922 2.36,6.516 5.907,6.516 2.531,0 4.078,-1 6.078,-3.875 -0.157,0.609 -0.188,0.875 -0.188,1.281 0,1.563 1,2.594 2.438,2.594 3.203,0 5.437,-3.641 6.64,-6.235 l -1.25,-0.671 c -1.515,3.078 -2.922,4.718 -3.953,4.718 -0.484,0 -0.844,-0.453 -0.844,-1 0,-0.453 0.157,-1.125 0.438,-2.172 l 4,-13.437 h -3.469 m -5.281,1.609 c 1.875,0 3.031,1.313 3.031,3.563 0,2.312 -0.797,5.469 -2.031,7.984 -1.25,2.485 -2.688,3.61 -4.688,3.61 -2,0 -3.203,-1.485 -3.203,-3.922 0,-3.594 2.25,-11.235 6.891,-11.235"
     id="path72" />
  <path
     class="Fingering"
     d="m 380.96096,598.10977 c -5.593,0 -9.672,6.078 -9.672,14.484 0,8.235 3.954,14.266 9.344,14.266 5.61,0 9.531,-5.828 9.531,-14.156 0,-4.235 -0.89,-7.75 -2.562,-10.516 -1.563,-2.516 -4.125,-4.078 -6.641,-4.078 m -0.281,1.719 c 1.313,0 2.594,0.875 3.563,2.484 1.078,1.875 1.437,4.156 1.437,9.641 0,5.64 -0.281,8.281 -1.078,10.031 -0.922,1.969 -2.359,3.156 -3.875,3.156 -1.359,0 -2.609,-0.875 -3.563,-2.469 -1.125,-1.89 -1.437,-4.359 -1.437,-10.922 0,-4.687 0.281,-7 1.078,-8.765 0.922,-2 2.359,-3.156 3.875,-3.156"
     id="path73" />
  <path
     class="Fingering"
     d="m 1914.962,567.02177 -1.09,3.609 c -0.26,-2.484 -2.26,-4.203 -4.87,-4.203 -6.04,0 -9.83,7.594 -9.83,12.875 0,3.922 2.36,6.516 5.9,6.516 2.54,0 4.08,-1 6.08,-3.875 -0.15,0.609 -0.19,0.875 -0.19,1.281 0,1.563 1,2.594 2.44,2.594 3.21,0 5.44,-3.641 6.64,-6.235 l -1.25,-0.671 c -1.51,3.078 -2.92,4.718 -3.95,4.718 -0.48,0 -0.84,-0.453 -0.84,-1 0,-0.453 0.15,-1.125 0.43,-2.172 l 4,-13.437 h -3.47 m -5.28,1.609 c 1.88,0 3.03,1.313 3.03,3.563 0,2.312 -0.79,5.469 -2.03,7.984 -1.25,2.485 -2.68,3.61 -4.68,3.61 -2,0 -3.21,-1.485 -3.21,-3.922 0,-3.594 2.25,-11.235 6.89,-11.235"
     id="path74" />
  <path
     class="Fingering"
     d="m 537.65196,558.91577 -7.282,0.594 -0.156,1.453 h 0.953 c 1.641,0 2.282,0.36 2.282,1.235 0,0.39 -0.11,0.953 -0.36,1.765 l -5.109,17.344 c -0.813,2.891 -0.844,2.922 -3.563,3.047 l -0.172,1.437 h 9.61 l 0.156,-1.437 h -0.484 c -1.922,0 -2.563,-0.234 -2.563,-1.047 0,-0.312 0.172,-1 0.453,-2 l 1.953,-6.516 c 1.079,2.766 2.125,3.516 4.766,3.516 6.469,0 10.391,-7.031 10.391,-12.875 0,-1.953 -0.391,-3.281 -1.313,-4.437 -1.047,-1.282 -2.64,-2.079 -4.203,-2.079 -2.047,0 -4.156,1.204 -5.953,3.407 l 0.594,-3.407 m 4.125,2.125 c 1.797,0 3,1.391 3,3.516 0,2.203 -0.688,4.922 -1.891,7.391 -1.391,3 -3,4.359 -5.109,4.359 -1.969,0 -3.36,-1.547 -3.36,-3.672 0,-3.594 2.828,-11.594 7.36,-11.594"
     id="path75" />
  <path
     class="Fingering"
     d="m 1283.402,558.91577 -7.28,0.594 -0.16,1.453 h 0.96 c 1.64,0 2.28,0.36 2.28,1.235 0,0.39 -0.11,0.953 -0.36,1.765 l -5.11,17.344 c -0.81,2.891 -0.84,2.922 -3.56,3.047 l -0.17,1.437 h 9.61 l 0.15,-1.437 h -0.48 c -1.92,0 -2.57,-0.234 -2.57,-1.047 0,-0.312 0.18,-1 0.46,-2 l 1.95,-6.516 c 1.08,2.766 2.13,3.516 4.77,3.516 6.47,0 10.39,-7.031 10.39,-12.875 0,-1.953 -0.39,-3.281 -1.32,-4.437 -1.04,-1.282 -2.64,-2.079 -4.2,-2.079 -2.05,0 -4.15,1.204 -5.95,3.407 l 0.59,-3.407 m 4.13,2.125 c 1.79,0 3,1.391 3,3.516 0,2.203 -0.69,4.922 -1.89,7.391 -1.39,3 -3,4.359 -5.11,4.359 -1.97,0 -3.36,-1.547 -3.36,-3.672 0,-3.594 2.83,-11.594 7.36,-11.594"
     id="path76" />
  <path
     class="Fingering"
     d="m 2029.152,558.91577 -7.28,0.594 -0.15,1.453 h 0.95 c 1.64,0 2.28,0.36 2.28,1.235 0,0.39 -0.11,0.953 -0.36,1.765 l -5.11,17.344 c -0.81,2.891 -0.84,2.922 -3.56,3.047 l -0.17,1.437 h 9.61 l 0.15,-1.437 h -0.48 c -1.92,0 -2.56,-0.234 -2.56,-1.047 0,-0.312 0.17,-1 0.45,-2 l 1.95,-6.516 c 1.08,2.766 2.13,3.516 4.77,3.516 6.47,0 10.39,-7.031 10.39,-12.875 0,-1.953 -0.39,-3.281 -1.31,-4.437 -1.05,-1.282 -2.64,-2.079 -4.21,-2.079 -2.04,0 -4.15,1.204 -5.95,3.407 l 0.59,-3.407 m 4.13,2.125 c 1.8,0 3,1.391 3,3.516 0,2.203 -0.69,4.922 -1.89,7.391 -1.39,3 -3,4.359 -5.11,4.359 -1.97,0 -3.36,-1.547 -3.36,-3.672 0,-3.594 2.83,-11.594 7.36,-11.594"
     id="path77" />
  <path
     class="Fingering"
     d="m 495.38396,773.66677 c -5.594,0 -9.672,6.078 -9.672,14.484 0,8.235 3.953,14.266 9.344,14.266 5.609,0 9.531,-5.828 9.531,-14.156 0,-4.235 -0.891,-7.75 -2.563,-10.516 -1.562,-2.516 -4.125,-4.078 -6.64,-4.078 m -0.282,1.719 c 1.313,0 2.594,0.875 3.563,2.484 1.078,1.875 1.437,4.156 1.437,9.641 0,5.64 -0.281,8.281 -1.078,10.031 -0.922,1.969 -2.359,3.156 -3.875,3.156 -1.359,0 -2.609,-0.875 -3.562,-2.469 -1.125,-1.89 -1.438,-4.359 -1.438,-10.921 0,-4.688 0.282,-7 1.078,-8.766 0.922,-2 2.36,-3.156 3.875,-3.156"
     id="path78" />
  <path
     class="Fingering"
     d="m 1047.052,558.91577 -7.28,0.594 -0.15,1.453 h 0.95 c 1.64,0 2.28,0.36 2.28,1.235 0,0.39 -0.11,0.953 -0.36,1.765 l -5.11,17.344 c -0.81,2.891 -0.84,2.922 -3.56,3.047 l -0.17,1.437 h 9.61 l 0.15,-1.437 h -0.48 c -1.92,0 -2.56,-0.234 -2.56,-1.047 0,-0.312 0.17,-1 0.45,-2 l 1.95,-6.516 c 1.08,2.766 2.13,3.516 4.77,3.516 6.47,0 10.39,-7.031 10.39,-12.875 0,-1.953 -0.39,-3.281 -1.31,-4.437 -1.05,-1.282 -2.64,-2.079 -4.21,-2.079 -2.04,0 -4.15,1.204 -5.95,3.407 l 0.59,-3.407 m 4.13,2.125 c 1.8,0 3,1.391 3,3.516 0,2.203 -0.69,4.922 -1.89,7.391 -1.39,3 -3,4.359 -5.11,4.359 -1.97,0 -3.36,-1.547 -3.36,-3.672 0,-3.594 2.83,-11.594 7.36,-11.594"
     id="path79" />
  <path
     class="Fingering"
     d="m 2138.172,566.91577 -7.28,0.594 -0.12,1.453 h 0.96 c 1.6,0 2.24,0.36 2.24,1.266 0,0.359 -0.13,0.969 -0.33,1.734 l -4.08,13.75 h 3.49 l 1.64,-5.64 c 1.79,-6.125 5.44,-10.75 8.44,-10.75 1.04,0 1.68,0.547 1.68,1.547 0,0.812 -0.33,2.484 -0.81,4 l -3.19,10.843 h 3.47 l 1.72,-5.797 c 1,-3.328 2,-5.562 3.28,-7.281 1.44,-2 3.49,-3.312 5,-3.312 1,0 1.56,0.515 1.56,1.468 0,0.563 -0.2,1.438 -0.56,2.563 l -1.84,5.687 c -1.08,3.11 -1.11,3.36 -1.11,4.469 0,1.688 1.23,2.797 3.11,2.797 1.33,0 2.61,-0.641 3.97,-1.906 0.84,-0.813 1.39,-1.531 3.03,-3.922 l -1.24,-0.844 c -2.07,3.125 -3.56,4.641 -4.59,4.641 -0.44,0 -0.84,-0.438 -0.84,-1 0,-0.36 0.12,-0.797 0.48,-1.969 l 2.52,-7.75 c 0.28,-0.875 0.48,-2.125 0.48,-3 0,-2.125 -1.56,-3.641 -3.72,-3.641 -2.84,0 -5.4,1.844 -7.72,5.641 0.16,-0.766 0.24,-1.437 0.24,-1.922 0,-2.125 -1.69,-3.719 -3.88,-3.719 -2.53,0 -4.36,1.407 -7.17,5.407 l 1.17,-5.407"
     id="path80" />
  <path
     class="Fingering"
     d="m 1392.422,566.91577 -7.28,0.594 -0.13,1.453 h 0.97 c 1.6,0 2.24,0.36 2.24,1.266 0,0.359 -0.13,0.969 -0.33,1.734 l -4.08,13.75 h 3.48 l 1.65,-5.64 c 1.79,-6.125 5.43,-10.75 8.43,-10.75 1.05,0 1.69,0.547 1.69,1.547 0,0.812 -0.33,2.484 -0.81,4 l -3.19,10.843 h 3.47 l 1.72,-5.797 c 1,-3.328 2,-5.562 3.28,-7.281 1.44,-2 3.48,-3.312 5,-3.312 1,0 1.56,0.515 1.56,1.468 0,0.563 -0.2,1.438 -0.56,2.563 l -1.84,5.687 c -1.08,3.11 -1.11,3.36 -1.11,4.469 0,1.688 1.23,2.797 3.11,2.797 1.32,0 2.6,-0.641 3.96,-1.906 0.85,-0.813 1.39,-1.531 3.04,-3.922 l -1.24,-0.844 c -2.08,3.125 -3.56,4.641 -4.59,4.641 -0.44,0 -0.85,-0.438 -0.85,-1 0,-0.36 0.13,-0.797 0.49,-1.969 l 2.51,-7.75 c 0.28,-0.875 0.49,-2.125 0.49,-3 0,-2.125 -1.56,-3.641 -3.72,-3.641 -2.84,0 -5.41,1.844 -7.72,5.641 0.16,-0.766 0.23,-1.437 0.23,-1.922 0,-2.125 -1.68,-3.719 -3.87,-3.719 -2.53,0 -4.36,1.407 -7.17,5.407 l 1.17,-5.407"
     id="path81" />
  <path
     class="Fingering"
     d="m 646.66896,566.91577 -7.281,0.594 -0.125,1.453 h 0.969 c 1.594,0 2.234,0.36 2.234,1.266 0,0.359 -0.125,0.969 -0.328,1.734 l -4.078,13.75 h 3.484 l 1.641,-5.64 c 1.797,-6.125 5.438,-10.75 8.438,-10.75 1.046,0 1.687,0.547 1.687,1.547 0,0.812 -0.328,2.484 -0.812,4 l -3.188,10.843 h 3.469 l 1.719,-5.797 c 1,-3.328 2,-5.562 3.281,-7.281 1.437,-2 3.484,-3.312 5,-3.312 1,0 1.562,0.515 1.562,1.468 0,0.563 -0.203,1.438 -0.562,2.563 l -1.844,5.687 c -1.078,3.11 -1.109,3.36 -1.109,4.469 0,1.688 1.234,2.797 3.109,2.797 1.328,0 2.609,-0.641 3.969,-1.906 0.844,-0.813 1.39,-1.531 3.031,-3.922 l -1.234,-0.844 c -2.078,3.125 -3.563,4.641 -4.594,4.641 -0.438,0 -0.844,-0.438 -0.844,-1 0,-0.36 0.125,-0.797 0.485,-1.969 l 2.515,-7.75 c 0.281,-0.875 0.485,-2.125 0.485,-3 0,-2.125 -1.563,-3.641 -3.719,-3.641 -2.844,0 -5.406,1.844 -7.719,5.641 0.156,-0.766 0.234,-1.437 0.234,-1.922 0,-2.125 -1.687,-3.719 -3.875,-3.719 -2.531,0 -4.359,1.407 -7.171,5.407 l 1.171,-5.407"
     id="path82" />
  <path
     class="Fingering"
     d="m 2265.502,558.91577 -7.28,0.594 -0.16,1.453 h 0.96 c 1.64,0 2.28,0.36 2.28,1.235 0,0.39 -0.11,0.953 -0.36,1.765 l -5.11,17.344 c -0.81,2.891 -0.84,2.922 -3.56,3.047 l -0.17,1.437 h 9.61 l 0.15,-1.437 h -0.48 c -1.92,0 -2.57,-0.234 -2.57,-1.047 0,-0.312 0.18,-1 0.46,-2 l 1.95,-6.516 c 1.08,2.766 2.13,3.516 4.77,3.516 6.47,0 10.39,-7.031 10.39,-12.875 0,-1.953 -0.39,-3.281 -1.32,-4.437 -1.04,-1.282 -2.64,-2.079 -4.2,-2.079 -2.05,0 -4.15,1.204 -5.95,3.407 l 0.59,-3.407 m 4.13,2.125 c 1.79,0 3,1.391 3,3.516 0,2.203 -0.69,4.922 -1.89,7.391 -1.39,3 -3,4.359 -5.11,4.359 -1.97,0 -3.36,-1.547 -3.36,-3.672 0,-3.594 2.83,-11.594 7.36,-11.594"
     id="path83" />
  <path
     class="Fingering"
     d="m 617.30896,635.35277 c -5.594,0 -9.672,6.078 -9.672,14.484 0,8.235 3.953,14.266 9.344,14.266 5.609,0 9.531,-5.828 9.531,-14.156 0,-4.235 -0.89,-7.75 -2.562,-10.516 -1.563,-2.516 -4.125,-4.078 -6.641,-4.078 m -0.281,1.719 c 1.312,0 2.594,0.875 3.562,2.484 1.079,1.875 1.438,4.156 1.438,9.641 0,5.64 -0.281,8.281 -1.078,10.031 -0.922,1.969 -2.36,3.156 -3.875,3.156 -1.36,0 -2.61,-0.875 -3.563,-2.469 -1.125,-1.89 -1.437,-4.359 -1.437,-10.921 0,-4.688 0.281,-7 1.078,-8.766 0.922,-2 2.359,-3.156 3.875,-3.156"
     id="path84" />
  <path
     class="Fingering"
     d="m 774.00196,558.91577 -7.28,0.594 -0.16,1.453 h 0.95 c 1.64,0 2.28,0.36 2.28,1.235 0,0.39 -0.1,0.953 -0.35,1.765 l -5.11,17.344 c -0.82,2.891 -0.85,2.922 -3.57,3.047 l -0.17,1.437 h 9.61 l 0.16,-1.437 h -0.49 c -1.92,0 -2.56,-0.234 -2.56,-1.047 0,-0.312 0.17,-1 0.45,-2 l 1.96,-6.516 c 1.07,2.766 2.12,3.516 4.76,3.516 6.47,0 10.39,-7.031 10.39,-12.875 0,-1.953 -0.39,-3.281 -1.31,-4.437 -1.05,-1.282 -2.64,-2.079 -4.2,-2.079 -2.05,0 -4.16,1.204 -5.96,3.407 l 0.6,-3.407 m 4.12,2.125 c 1.8,0 3,1.391 3,3.516 0,2.203 -0.68,4.922 -1.89,7.391 -1.39,3 -3,4.359 -5.11,4.359 -1.97,0 -3.36,-1.547 -3.36,-3.672 0,-3.594 2.83,-11.594 7.36,-11.594"
     id="path85" />
  <path
     class="Fingering"
     d="m 2384.332,557.15077 c -1.2,0 -2.15,0.969 -2.15,2.172 0,1.156 0.95,2.156 2.12,2.156 1.24,0 2.19,-0.969 2.19,-2.156 0,-1.203 -0.95,-2.172 -2.16,-2.172 m 0.72,9.765 -7.67,0.594 -0.16,1.453 h 0.96 c 1.64,0 2.28,0.36 2.28,1.235 0,0.39 -0.08,0.843 -0.36,1.765 l -2.33,7.797 c -0.75,2.547 -0.88,3.11 -0.88,4.031 0,1.407 1.21,2.485 2.72,2.485 3.44,0 5.8,-3.563 7.49,-6.156 l -1.25,-0.688 c -2.08,3.156 -3.75,4.844 -4.83,4.844 -0.41,0 -0.69,-0.36 -0.69,-0.844 0,-0.391 0.16,-1.125 0.49,-2.234 l 4.23,-14.282"
     id="path86" />
  <path
     class="Fingering"
     d="m 892.83196,557.15077 c -1.21,0 -2.16,0.969 -2.16,2.172 0,1.156 0.95,2.156 2.13,2.156 1.23,0 2.18,-0.969 2.18,-2.156 0,-1.203 -0.95,-2.172 -2.15,-2.172 m 0.72,9.765 -7.68,0.594 -0.15,1.453 h 0.95 c 1.64,0 2.28,0.36 2.28,1.235 0,0.39 -0.08,0.843 -0.36,1.765 l -2.32,7.797 c -0.75,2.547 -0.88,3.11 -0.88,4.031 0,1.407 1.2,2.485 2.72,2.485 3.44,0 5.8,-3.563 7.48,-6.156 l -1.25,-0.688 c -2.07,3.156 -3.75,4.844 -4.82,4.844 -0.41,0 -0.69,-0.36 -0.69,-0.844 0,-0.391 0.15,-1.125 0.48,-2.234 l 4.24,-14.282"
     id="path87" />
  <path
     class="Fingering"
     d="m 1761.792,706.44377 c -5.6,0 -9.67,6.078 -9.67,14.484 0,8.235 3.95,14.266 9.34,14.266 5.61,0 9.53,-5.828 9.53,-14.156 0,-4.235 -0.89,-7.75 -2.56,-10.516 -1.56,-2.516 -4.13,-4.078 -6.64,-4.078 m -0.28,1.719 c 1.31,0 2.59,0.875 3.56,2.484 1.08,1.875 1.44,4.156 1.44,9.641 0,5.64 -0.28,8.281 -1.08,10.031 -0.92,1.969 -2.36,3.156 -3.88,3.156 -1.36,0 -2.61,-0.875 -3.56,-2.469 -1.12,-1.89 -1.44,-4.359 -1.44,-10.922 0,-4.687 0.28,-7 1.08,-8.765 0.92,-2 2.36,-3.156 3.88,-3.156"
     id="path88" />
  <metadata
     id="metadata88">
    <rdf:RDF>
      <cc:Work
         rdf:about="">
        <dc:title>cordeavide0020</dc:title>
      </cc:Work>
    </rdf:RDF>
  </metadata>
</svg>
