<?xml version="1.0" encoding="UTF-8" standalone="no"?>
<!-- Created with Inkscape (http://www.inkscape.org/) -->

<svg
   width="297mm"
   height="210mm"
   viewBox="0 0 297 210"
   version="1.1"
   id="svg970"
   inkscape:version="1.2.2 (b0a8486541, 2022-12-01)"
   sodipodi:docname="liaison.svg"
   xmlns:inkscape="http://www.inkscape.org/namespaces/inkscape"
   xmlns:sodipodi="http://sodipodi.sourceforge.net/DTD/sodipodi-0.dtd"
   xmlns="http://www.w3.org/2000/svg"
   xmlns:svg="http://www.w3.org/2000/svg"
   xmlns:rdf="http://www.w3.org/1999/02/22-rdf-syntax-ns#"
   xmlns:cc="http://creativecommons.org/ns#"
   xmlns:dc="http://purl.org/dc/elements/1.1/">
  <defs
     id="defs964">
    <marker
       style="overflow:visible"
       id="TriangleStart"
       refX="0"
       refY="0"
       orient="-27"
       inkscape:stockid="TriangleStart"
       markerWidth="5.3244081"
       markerHeight="6.155385"
       viewBox="0 0 5.3244081 6.1553851"
       inkscape:isstock="true"
       inkscape:collect="always"
       preserveAspectRatio="xMidYMid">
      <path
         transform="scale(0.5)"
         style="fill:context-stroke;fill-rule:evenodd;stroke:context-stroke;stroke-width:1pt"
         d="M 5.77,0 -2.88,5 V -5 Z"
         id="path135" />
    </marker>
  </defs>
  <sodipodi:namedview
     id="base"
     pagecolor="#ffffff"
     bordercolor="#666666"
     borderopacity="1.0"
     inkscape:pageopacity="0.0"
     inkscape:pageshadow="2"
     inkscape:zoom="0.49497475"
     inkscape:cx="320.21836"
     inkscape:cy="530.33009"
     inkscape:document-units="mm"
     inkscape:current-layer="layer1"
     showgrid="false"
     inkscape:window-width="1280"
     inkscape:window-height="651"
     inkscape:window-x="0"
     inkscape:window-y="32"
     inkscape:window-maximized="1"
     inkscape:showpageshadow="2"
     inkscape:pagecheckerboard="0"
     inkscape:deskcolor="#d1d1d1" />
  <metadata
     id="metadata967">
    <rdf:RDF>
      <cc:Work
         rdf:about="">
        <dc:format>image/svg+xml</dc:format>
        <dc:type
           rdf:resource="http://purl.org/dc/dcmitype/StillImage" />
      </cc:Work>
    </rdf:RDF>
  </metadata>
  <g
     inkscape:label="Calque 1"
     inkscape:groupmode="layer"
     id="layer1"
     transform="translate(0,-87)">
    <polyline
       transform="matrix(0.0697536,0,0,0.18837501,-15.299108,72.855866)"
       style="fill:none;stroke:#000000;stroke-width:2.73000002;stroke-linejoin:bevel"
       class="StaffLines"
       points="336.598,386.198 2764.6,386.198"
       id="polyline8" />
    <polyline
       transform="matrix(0.0697536,0,0,0.18837501,-15.299108,72.855866)"
       style="fill:none;stroke:#000000;stroke-width:2.73000002;stroke-linejoin:bevel"
       class="StaffLines"
       points="336.598,410.998 2764.6,410.998"
       id="polyline10" />
    <polyline
       transform="matrix(0.0697536,0,0,0.18837501,-15.299108,72.855866)"
       style="fill:none;stroke:#000000;stroke-width:2.73000002;stroke-linejoin:bevel"
       class="StaffLines"
       points="336.598,435.798 2764.6,435.798"
       id="polyline12" />
    <polyline
       transform="matrix(0.0697536,0,0,0.18837501,-15.299108,72.855866)"
       style="fill:none;stroke:#000000;stroke-width:2.73000002;stroke-linejoin:bevel"
       class="StaffLines"
       points="336.598,460.598 2764.6,460.598"
       id="polyline14" />
    <polyline
       transform="matrix(0.0697536,0,0,0.18837501,-15.299108,72.855866)"
       style="fill:none;stroke:#000000;stroke-width:2.73000002;stroke-linejoin:bevel"
       class="StaffLines"
       points="336.598,485.398 2764.6,485.398"
       id="polyline16" />
    <polyline
       transform="matrix(0.11142819,0,0,0.19840886,-17.219098,46.330005)"
       style="fill:none;stroke:#000000;stroke-width:2.73000002;stroke-linejoin:bevel"
       class="StaffLines"
       points="212.598,993.798 2764.6,993.798"
       id="polyline18" />
    <polyline
       transform="matrix(0.11142819,0,0,0.19840886,-17.219098,46.330005)"
       style="fill:none;stroke:#000000;stroke-width:2.73000002;stroke-linejoin:bevel"
       class="StaffLines"
       points="212.598,1018.6 2764.6,1018.6"
       id="polyline20" />
    <polyline
       transform="matrix(0.11142819,0,0,0.19840886,-17.219098,46.330005)"
       style="fill:none;stroke:#000000;stroke-width:2.73000002;stroke-linejoin:bevel"
       class="StaffLines"
       points="212.598,1043.4 2764.6,1043.4"
       id="polyline22" />
    <polyline
       transform="matrix(0.11142819,0,0,0.19840886,-17.219098,46.330005)"
       style="fill:none;stroke:#000000;stroke-width:2.73000002;stroke-linejoin:bevel"
       class="StaffLines"
       points="212.598,1068.2 2764.6,1068.2"
       id="polyline24" />
    <polyline
       transform="matrix(0.11142819,0,0,0.19840886,-17.219098,46.330005)"
       style="fill:none;stroke:#000000;stroke-width:2.73000002;stroke-linejoin:bevel"
       class="StaffLines"
       points="212.598,1093 2764.6,1093"
       id="polyline26" />
    <path
       inkscape:connector-curvature="0"
       style="fill-rule:evenodd;stroke:#000000;stroke-width:0.24602699;stroke-linecap:round;stroke-linejoin:round"
       class="TieSegment"
       d="m 117.5745,249.68918 c 14.79139,-6.94671 59.16474,-6.94671 73.95613,0 -14.79139,-5.3721 -59.16474,-5.3721 -73.95613,0"
       id="path30" />
    <path
       inkscape:connector-curvature="0"
       style="fill-rule:evenodd;stroke:#000000;stroke-width:0.23358501;stroke-linecap:round;stroke-linejoin:round"
       class="TieSegment"
       d="m 49.522463,151.52091 c 11.08248,-6.48235 44.33049,-6.48235 55.413147,0 -11.082657,-4.98743 -44.330667,-4.98743 -55.413147,0"
       id="path32" />
    <polyline
       transform="matrix(0.19840886,0,0,0.19840886,-35.711015,46.330005)"
       style="fill:none;stroke:#000000;stroke-width:4.46000004;stroke-linejoin:bevel"
       class="BarLine"
       points="1094.78,992.434 1094.78,1094.36"
       id="polyline34" />
    <polyline
       transform="matrix(0.18837501,0,0,0.18837501,-55.226832,72.855866)"
       style="fill:none;stroke:#000000;stroke-width:4.46000004;stroke-linejoin:bevel"
       class="BarLine"
       points="1235.72,384.834 1235.72,486.762"
       id="polyline42" />
    <polyline
       transform="matrix(0.19840886,0,0,0.19840886,-35.711015,46.330005)"
       style="fill:none;stroke:#000000;stroke-width:4.46000004;stroke-linejoin:bevel"
       class="BarLine"
       points="1644.63,992.434 1644.63,1094.36"
       id="polyline48" />
    <polyline
       transform="matrix(0.18837501,0,0,0.18837501,-55.226832,72.855866)"
       style="fill:none;stroke:#000000;stroke-width:2.48000002;stroke-linejoin:bevel"
       class="Stem"
       points="835.897,439.965 835.897,510.198"
       id="polyline52" />
    <polyline
       transform="matrix(0.18837501,0,0,0.18837501,-55.226832,72.855866)"
       style="fill:none;stroke:#000000;stroke-width:2.48000002;stroke-linejoin:bevel"
       class="Stem"
       points="536.773,439.965 536.773,510.198"
       id="polyline54" />
    <polyline
       transform="matrix(0.19840886,0,0,0.19840886,-35.711015,46.330005)"
       style="fill:none;stroke:#000000;stroke-width:2.48000002;stroke-linejoin:bevel"
       class="Stem"
       points="753.28,1047.56 753.28,1117.8"
       id="polyline56" />
    <polyline
       transform="matrix(0.19840886,0,0,0.19840886,-35.711015,46.330005)"
       style="fill:none;stroke:#000000;stroke-width:2.48000002;stroke-linejoin:bevel"
       class="Stem"
       points="412.773,1047.56 412.773,1117.8"
       id="polyline58" />
    <path
       style="stroke-width:0.1968216"
       inkscape:connector-curvature="0"
       class="Note"
       d="m 192.02335,250.67427 c -2.7155,0 -3.68118,1.37776 -3.68118,2.65711 0,1.27934 0.96568,2.65709 3.68118,2.65709 2.71553,0 3.65967,-1.37775 3.65967,-2.65709 0,-1.27935 -0.94414,-2.65711 -3.65967,-2.65711 m 0.15685,4.68374 c -0.55048,0 -0.92567,-0.15685 -1.18092,-0.64889 -0.25526,-0.49207 -0.60889,-1.7714 -0.63044,-2.28498 -0.04,-0.53204 0.15685,-0.8457 0.63044,-1.00255 0.2368,-0.0801 0.55048,-0.12002 0.86726,-0.12002 0.52896,0 0.88571,0.12002 1.15937,0.65197 0.2768,0.51048 0.65199,1.78983 0.65199,2.28189 0,0.96566 -0.7104,1.12251 -1.4977,1.12251"
       id="path60" />
    <path
       style="stroke-width:0.18686801"
       inkscape:connector-curvature="0"
       class="Note"
       d="m 102.00168,155.73477 c 0,0.80294 0.57811,1.69933 2.09351,1.69933 1.94169,0 3.9797,-1.58839 3.9797,-3.23225 0,-1.10368 -0.93434,-1.71976 -2.09351,-1.71976 -1.8132,0 -3.9797,1.5329 -3.9797,3.25268"
       id="path62" />
    <path
       style="stroke-width:0.18686801"
       inkscape:connector-curvature="0"
       class="Note"
       d="m 49.633893,152.48209 c -1.81318,0 -3.979698,1.51537 -3.979698,3.25268 0,0.80294 0.578132,1.69933 2.093508,1.69933 1.94169,0 3.9797,-1.58839 3.9797,-3.23225 0,-1.10368 -0.93434,-1.71976 -2.09351,-1.71976 m -2.578194,4.07314 c -0.616082,0 -0.747472,-0.5022 -0.747472,-0.67158 0,-0.9168 3.138806,-2.5227 4.017676,-2.5227 0.44964,0 0.74747,0.26278 0.74747,0.67156 0,0.93434 -3.15924,2.52272 -4.017674,2.52272"
       id="path64" />
    <path
       style="stroke-width:0.1968216"
       inkscape:connector-curvature="0"
       class="Note"
       d="m 117.69206,250.75116 c -1.90978,0 -4.19168,1.59612 -4.19168,3.42593 0,0.84571 0.60893,1.78985 2.20499,1.78985 2.04514,0 4.19171,-1.673 4.19171,-3.4044 0,-1.16249 -0.9841,-1.81138 -2.20502,-1.81138 m -2.71552,4.29009 c -0.6489,0 -0.78729,-0.52895 -0.78729,-0.70731 0,-0.96565 3.306,-2.65711 4.23167,-2.65711 0.4736,0 0.78729,0.27678 0.78729,0.70733 0,0.98413 -3.32751,2.65709 -4.23167,2.65709"
       id="path66" />
    <path
       style="stroke-width:0.1968216"
       inkscape:connector-curvature="0"
       class="Note"
       d="m 50.132456,250.75116 c -1.909759,0 -4.191682,1.59612 -4.191682,3.42593 0,0.84571 0.608927,1.78985 2.205019,1.78985 2.045112,0 4.191682,-1.673 4.191682,-3.4044 0,-1.16249 -0.984105,-1.81138 -2.205019,-1.81138 m -2.715525,4.29009 c -0.648898,0 -0.787289,-0.52895 -0.787289,-0.70731 0,-0.96565 3.305999,-2.65711 4.231677,-2.65711 0.47362,0 0.787287,0.27678 0.787287,0.70733 0,0.98413 -3.327513,2.65709 -4.231675,2.65709"
       id="path68" />
    <path
       style="stroke-width:0.18686801"
       inkscape:connector-curvature="0"
       class="Clef"
       d="m 23.643136,159.56556 c 0,-2.80301 -2.000065,-4.70965 -4.727177,-4.70965 -0.186839,-1.12124 -0.356202,-2.24243 -0.522639,-3.27021 1.962117,-2.07598 3.343194,-4.42934 3.343194,-7.38129 0,-1.71976 -0.522662,-3.08332 -0.840917,-3.75771 -0.446718,-0.95193 -0.989808,-1.62651 -1.308085,-1.62651 -0.128511,0 -0.727023,0.24536 -1.325583,0.97245 -1.214642,1.42189 -1.550419,3.79278 -1.550419,5.36363 0,1.01025 0.09342,1.92417 0.411675,4.03809 -0.02011,0 -0.992713,0.98984 -1.383983,1.32562 -1.702237,1.57086 -4.0556,3.84831 -4.0556,7.56815 0,3.51253 3.045365,6.26007 6.522855,6.26007 0.540162,0 1.04528,-0.0555 1.494948,-0.13135 0.335754,1.79566 0.56061,3.10374 0.56061,4.09356 0,1.94461 -1.010278,2.97239 -2.878953,2.97239 -0.467167,0 -0.858415,-0.0934 -0.878865,-0.11395 -0.03509,0 -0.07286,-0.0179 -0.07286,-0.0351 0,-0.0379 0.03799,-0.0583 0.09342,-0.0757 0.878866,-0.13134 1.754805,-0.87886 1.754805,-2.07307 0,-1.01024 -0.764997,-2.07596 -2.166502,-2.07596 -1.290563,0 -2.131455,1.06572 -2.131455,2.29789 0,1.23508 0.934335,2.8614 3.457062,2.8614 2.411762,0 3.588432,-1.36648 3.588432,-3.75779 0,-0.72704 -0.110853,-1.56794 -0.297805,-2.63366 -0.05543,-0.37376 -0.148848,-0.9548 -0.280305,-1.66432 1.830702,-0.61608 3.194257,-2.50518 3.194257,-4.44687 m -5.754932,-15.30566 c 0.18684,-0.74746 1.027756,-2.70958 2.000063,-2.70958 0.280328,0 0.747475,0.89637 0.747475,2.20444 0,1.92418 -1.456975,3.38408 -2.747538,4.67171 -0.110853,-0.74747 -0.204498,-1.49495 -0.204498,-2.25991 0,-0.70954 0.07286,-1.32854 0.204498,-1.90666 m 0.560588,19.32332 c -2.671617,0 -4.951987,-1.86868 -4.951987,-4.69214 0,-2.27747 1.626338,-4.31547 3.252677,-5.75493 0.315327,-0.2628 0.616083,-0.54312 0.896388,-0.80298 0.166506,1.00734 0.318255,1.8687 0.429197,2.6541 -1.702238,0.48471 -2.858504,2.29791 -2.858504,4.03521 0,1.3285 1.027802,3.12128 2.522727,3.12128 0.148848,0 0.318277,-0.076 0.318277,-0.26279 0,-0.14891 -0.169412,-0.25987 -0.411697,-0.40879 -0.729975,-0.43212 -1.14165,-0.93432 -1.14165,-1.83362 0,-1.13876 0.861345,-2.05556 1.944572,-2.31542 l 1.083272,6.12869 c -0.373747,0.0934 -0.709524,0.13135 -1.083272,0.13135 m 1.868672,-0.3562 c -0.391224,-2.22199 -0.896342,-5.19434 -1.027757,-6.01775 1.886218,0 2.69209,1.30809 2.858504,2.2074 0.02011,0.14891 0.05543,0.35329 0.05543,0.57813 0,1.34602 -0.56061,2.70956 -1.886215,3.23222 m -0.72993,9.79303 c 0,-0.69197 -0.633605,-0.98978 -1.249687,-0.98978 -0.785422,0 -1.553345,0.48467 -1.553345,1.32559 0,0.3562 0.131416,0.61899 0.411697,0.87884 -0.48469,0.18683 -0.98983,0.5606 -0.98983,1.14165 0,0.61607 0.56061,1.02777 1.384005,1.02777 1.00733,0 1.716855,-0.5606 1.716855,-1.36648 0,-0.4292 -0.186842,-0.78249 -0.52264,-1.02776 0.543088,-0.24235 0.802945,-0.54015 0.802945,-0.98983 m -1.156244,0.74748 c -0.280305,-0.14892 -0.356226,-0.18685 -0.411696,-0.22481 l -0.02011,-0.0179 c -0.297825,-0.16944 -0.391268,-0.30075 -0.391268,-0.52264 0,-0.3387 0.262805,-0.58105 0.636531,-0.58105 0.373747,0 0.578109,0.2248 0.578109,0.61607 0,0.30076 -0.110853,0.50514 -0.391224,0.72996 m -0.71243,2.24242 c -0.408793,0 -0.689098,-0.25988 -0.689098,-0.65406 0,-0.35328 0.166507,-0.67155 0.48469,-0.85841 0.07576,0.0379 0.09342,0.0555 0.148849,0.0729 0.224835,0.11395 0.224835,0.11395 0.262784,0.1517 0.373725,0.2045 0.50514,0.39126 0.50514,0.65404 0,0.3533 -0.300755,0.63358 -0.71243,0.63358"
       id="path70" />
    <path
       style="stroke-width:0.1968216"
       inkscape:connector-curvature="0"
       class="Clef"
       d="m 22.757288,258.21193 c 0,-2.95233 -2.106599,-4.96051 -4.97897,-4.96051 -0.196794,-1.18092 -0.375178,-2.36188 -0.550478,-3.44437 2.066628,-2.18659 3.521269,-4.6653 3.521269,-7.77447 0,-1.81136 -0.550501,-3.24755 -0.885684,-3.95788 -0.470537,-1.0026 -1.042553,-1.71313 -1.37776,-1.71313 -0.135357,0 -0.765773,0.25841 -1.396216,1.02427 -1.279339,1.49759 -1.633001,3.99477 -1.633001,5.64928 0,1.06409 0.0984,2.02667 0.433627,4.25322 -0.02118,0 -1.045614,1.04253 -1.457725,1.39619 -1.792908,1.65451 -4.271648,4.0533 -4.271648,7.97127 0,3.69967 3.207603,6.59355 6.870322,6.59355 0.568932,0 1.100955,-0.0584 1.574576,-0.13834 0.353639,1.89129 0.590472,3.26906 0.590472,4.31162 0,2.04816 -1.064093,3.13068 -3.032301,3.13068 -0.492052,0 -0.904139,-0.0984 -0.925678,-0.12002 -0.03696,0 -0.07674,-0.0189 -0.07674,-0.037 0,-0.0399 0.04002,-0.0614 0.0984,-0.0799 0.925655,-0.13834 1.848273,-0.92569 1.848273,-2.18348 0,-1.06407 -0.805743,-2.18658 -2.281923,-2.18658 -1.359281,0 -2.244988,1.12251 -2.244988,2.4203 0,1.30088 0.984127,3.01381 3.641204,3.01381 2.540225,0 3.779595,-1.43924 3.779595,-3.95794 0,-0.76576 -0.116758,-1.65147 -0.313668,-2.77395 -0.05838,-0.39363 -0.156777,-1.00564 -0.295235,-1.75295 1.928212,-0.64891 3.3644,-2.63864 3.3644,-4.68376 m -6.061496,-16.12088 c 0.196793,-0.78729 1.082524,-2.85392 2.106622,-2.85392 0.295236,0 0.787289,0.9441 0.787289,2.32184 0,2.02666 -1.534583,3.56433 -2.893911,4.92055 -0.116758,-0.78729 -0.215153,-1.57455 -0.215153,-2.38029 0,-0.74731 0.07674,-1.39929 0.215153,-2.00818 m 0.590473,20.35256 c -2.813924,0 -5.21578,-1.96823 -5.21578,-4.94205 0,-2.39878 1.712989,-4.54537 3.425932,-6.06151 0.332147,-0.27677 0.648898,-0.572 0.944134,-0.8457 0.175375,1.06099 0.335207,1.96821 0.452058,2.79547 -1.792885,0.51051 -3.010739,2.42029 -3.010739,4.2501 0,1.39931 1.082525,3.28757 2.657101,3.28757 0.156777,0 0.335207,-0.0801 0.335207,-0.27678 0,-0.15685 -0.178436,-0.27373 -0.433627,-0.43056 -0.768834,-0.45514 -1.20246,-0.98411 -1.20246,-1.93131 0,-1.19939 0.907224,-2.16505 2.048174,-2.43877 l 1.140949,6.45516 c -0.393631,0.0984 -0.747317,0.13834 -1.140949,0.13834 m 1.968208,-0.37521 c -0.412088,-2.34031 -0.94411,-5.471 -1.082525,-6.33827 1.986687,0 2.835485,1.37775 3.010763,2.32496 0.02118,0.15685 0.05838,0.37211 0.05838,0.60893 0,1.41771 -0.590471,2.8539 -1.986687,3.40438 m -0.768808,10.31469 c 0,-0.72885 -0.667353,-1.0425 -1.316251,-1.0425 -0.827259,0 -1.636085,0.51048 -1.636085,1.39619 0,0.37517 0.138416,0.65195 0.433603,0.92565 -0.510484,0.1968 -1.04253,0.59048 -1.04253,1.20245 0,0.64891 0.590471,1.08253 1.457724,1.08253 1.060986,0 1.808302,-0.59047 1.808302,-1.43927 0,-0.45208 -0.196792,-0.82418 -0.5505,-1.0825 0.572015,-0.25525 0.845737,-0.56895 0.845737,-1.04255 m -1.217855,0.7873 c -0.295212,-0.15685 -0.375176,-0.1968 -0.433603,-0.23682 l -0.02118,-0.0189 c -0.313692,-0.17847 -0.412111,-0.31678 -0.412111,-0.5505 0,-0.35672 0.276805,-0.61199 0.670437,-0.61199 0.393656,0 0.608903,0.23678 0.608903,0.6489 0,0.31678 -0.116758,0.53202 -0.412063,0.7688 m -0.750402,2.36188 c -0.430543,0 -0.725778,-0.2737 -0.725778,-0.68888 0,-0.37211 0.175375,-0.70733 0.510507,-0.90414 0.0798,0.04 0.0984,0.0584 0.156777,0.077 0.23681,0.12002 0.23681,0.12002 0.276781,0.15978 0.393656,0.2154 0.532045,0.41212 0.532045,0.6889 0,0.37209 -0.316775,0.66732 -0.7504,0.66732"
       id="path72" />
    <path
       style="stroke-width:0.1968216"
       inkscape:connector-curvature="0"
       class="TimeSig"
       d="m 31.494338,250.92952 v 1.45466 h -1.633003 c -0.138416,0 -0.27678,0.12002 -0.27678,0.27676 v 0.37523 c 0,0.15685 0.138417,0.27368 0.27678,0.27368 h 5.963076 c 0.159837,0 0.276757,-0.11672 0.276757,-0.27368 v -0.37523 c 0,-0.15685 -0.116758,-0.27676 -0.276757,-0.27676 h -1.749878 v -1.45466 h 1.749878 c 0.159837,0 0.276757,-0.13834 0.276757,-0.29521 v -0.37521 c 0,-0.13835 -0.116758,-0.27368 -0.276757,-0.27368 h -1.749878 v -3.1307 c 0,-0.11673 -0.05838,-0.2154 -0.156777,-0.25525 l -0.236785,-0.12002 c -0.04002,-0.0189 -0.0984,-0.037 -0.138417,-0.037 -0.05838,0.0189 -0.138416,0.037 -0.178435,0.0768 l -1.789872,1.633 c -0.05838,0.0614 -0.0798,0.13834 -0.0798,0.21846 v 1.61454 H 29.23098 c 0,0 2.186587,-2.36186 4.508457,-5.4741 0.0798,-0.0984 0.0984,-0.1968 0.0984,-0.27372 0,-0.0984 -0.04002,-0.17847 -0.05838,-0.1968 L 33.345806,243.607 c -0.04002,-0.0399 -0.116758,-0.0801 -0.196792,-0.0801 -0.116758,0 -2.777012,0 -2.912318,0 -0.159836,0 -0.258326,0.12002 -0.276805,0.23681 0,0 -0.0984,1.4577 -0.608903,3.05074 -0.513591,1.59612 -1.104063,2.58022 -1.61457,3.306 0,0 -0.05838,0.0984 -0.05838,0.21822 0,0.0399 0,0.0768 0.01884,0.11672 0.08004,0.13834 0.196794,0.35368 0.196794,0.35368 0,0 0.04002,0.11984 0.215388,0.11984 h 3.385962"
       id="path74" />
    <path
       style="stroke-width:0.1968216"
       inkscape:connector-curvature="0"
       class="TimeSig"
       d="m 31.494338,260.77061 v 1.45464 h -1.633003 c -0.138416,0 -0.27678,0.11983 -0.27678,0.27678 v 0.37521 c 0,0.15685 0.138417,0.27368 0.27678,0.27368 h 5.963076 c 0.159837,0 0.276757,-0.11691 0.276757,-0.27368 v -0.37521 c 0,-0.15686 -0.116758,-0.27678 -0.276757,-0.27678 h -1.749878 v -1.45464 h 1.749878 c 0.159837,0 0.276757,-0.13835 0.276757,-0.29523 v -0.37518 c 0,-0.13834 -0.116758,-0.2737 -0.276757,-0.2737 h -1.749878 v -3.1307 c 0,-0.1169 -0.05838,-0.21515 -0.156777,-0.25527 l -0.236785,-0.12002 c -0.04002,-0.0189 -0.0984,-0.037 -0.138417,-0.037 -0.05838,0.0189 -0.138416,0.037 -0.178435,0.0768 l -1.789872,1.633 c -0.05838,0.0614 -0.0798,0.13834 -0.0798,0.21845 v 1.61455 H 29.23098 c 0,0 2.186587,-2.36186 4.508457,-5.47411 0.0798,-0.0984 0.0984,-0.19679 0.0984,-0.2737 0,-0.0984 -0.04002,-0.17847 -0.05838,-0.19679 l -0.433645,-0.43361 c -0.04002,-0.04 -0.116758,-0.0799 -0.196792,-0.0799 -0.116758,0 -2.777013,0 -2.912318,0 -0.159837,0 -0.258326,0.12002 -0.276806,0.23679 0,0 -0.0984,1.45772 -0.608903,3.05074 -0.513591,1.5961 -1.104062,2.5802 -1.614569,3.30598 0,0 -0.05838,0.0984 -0.05838,0.21844 0,0.0399 0,0.0768 0.01884,0.11672 0.08004,0.13834 0.196794,0.35366 0.196794,0.35366 0,0 0.04002,0.11984 0.215389,0.11984 h 3.385961"
       id="path76" />
    <path
       style="stroke-width:0.18686801"
       inkscape:connector-curvature="0"
       class="TimeSig"
       d="m 31.938338,152.65144 v 1.38109 h -1.55044 c -0.131417,0 -0.262762,0.11395 -0.262762,0.26276 v 0.35622 c 0,0.14892 0.131417,0.25986 0.262762,0.25986 h 5.661534 c 0.151754,0 0.262783,-0.11082 0.262783,-0.25986 v -0.35622 c 0,-0.14892 -0.110853,-0.26276 -0.262783,-0.26276 H 34.38805 v -1.38109 h 1.661382 c 0.151754,0 0.262783,-0.13135 0.262783,-0.28032 v -0.3562 c 0,-0.13135 -0.110853,-0.25988 -0.262783,-0.25988 H 34.38805 v -2.97234 c 0,-0.11082 -0.05543,-0.20428 -0.148848,-0.24236 l -0.224835,-0.11395 c -0.038,-0.0179 -0.09342,-0.0351 -0.131417,-0.0351 -0.05543,0.0179 -0.131417,0.0351 -0.169412,0.0729 l -1.699332,1.55042 c -0.05543,0.0583 -0.07576,0.13135 -0.07576,0.20741 v 1.53291 h -2.148977 c 0,0 2.075985,-2.24241 4.280435,-5.19729 0.07576,-0.0934 0.09342,-0.18684 0.09342,-0.25986 0,-0.0934 -0.038,-0.16944 -0.05543,-0.18684 l -0.411719,-0.4117 c -0.038,-0.0379 -0.110853,-0.0759 -0.186841,-0.0759 -0.11108,0 -2.636573,0 -2.76506,0 -0.151754,0 -0.245261,0.11395 -0.262783,0.22484 0,0 -0.09342,1.38398 -0.578112,2.89645 -0.487618,1.51537 -1.048228,2.44974 -1.532918,3.1388 0,0 -0.05543,0.0934 -0.05543,0.20741 0,0.0379 0,0.0729 0.01788,0.11116 0.07599,0.13135 0.18684,0.33578 0.18684,0.33578 0,0 0.03799,0.11395 0.204273,0.11395 h 3.214728"
       id="path82" />
    <path
       style="stroke-width:0.18686801"
       inkscape:connector-curvature="0"
       class="TimeSig"
       d="m 31.938338,161.99484 v 1.38108 h -1.55044 c -0.131417,0 -0.262762,0.11377 -0.262762,0.26278 v 0.3562 c 0,0.14892 0.131417,0.25988 0.262762,0.25988 h 5.661534 c 0.151754,0 0.262783,-0.11082 0.262783,-0.25988 v -0.3562 c 0,-0.14892 -0.110853,-0.26278 -0.262783,-0.26278 H 34.38805 v -1.38108 h 1.661382 c 0.151754,0 0.262783,-0.13135 0.262783,-0.2803 v -0.35624 c 0,-0.13134 -0.110853,-0.25986 -0.262783,-0.25986 H 34.38805 v -2.97235 c 0,-0.11082 -0.05543,-0.20428 -0.148848,-0.24234 l -0.224835,-0.11395 c -0.038,-0.0179 -0.09342,-0.0352 -0.131417,-0.0352 -0.05543,0.0179 -0.131417,0.0352 -0.169412,0.0729 l -1.699332,1.55042 c -0.05543,0.0583 -0.07576,0.13134 -0.07576,0.2074 v 1.5329 h -2.148977 c 0,0 2.075985,-2.24242 4.280435,-5.19727 0.07576,-0.0934 0.09342,-0.18685 0.09342,-0.25986 0,-0.0934 -0.038,-0.16945 -0.05543,-0.18684 l -0.411719,-0.41167 c -0.038,-0.0379 -0.110853,-0.0757 -0.186841,-0.0757 -0.11108,0 -2.636573,0 -2.76506,0 -0.151754,0 -0.245261,0.11395 -0.262783,0.22482 0,0 -0.09342,1.384 -0.578112,2.89646 -0.487618,1.51538 -1.048228,2.44972 -1.532918,3.1388 0,0 -0.05543,0.0934 -0.05543,0.20739 0,0.0379 0,0.0731 0.01788,0.11081 0.07599,0.13135 0.18684,0.33582 0.18684,0.33582 0,0 0.03799,0.11395 0.204273,0.11395 h 3.214728"
       id="path84" />
    <path
       style="stroke-width:0.18686801"
       inkscape:connector-curvature="0"
       class="Rest"
       d="m 143.86405,158.05018 c -0.0179,-0.0179 -0.0555,-0.0555 -0.11082,-0.12856 l -2.14898,-2.65412 c -0.0201,-0.0202 -0.038,-0.0757 -0.038,-0.11395 0,-0.0555 0.0179,-0.12856 0.038,-0.16649 l 1.90372,-2.87891 c 0.0202,-0.0379 0.0379,-0.0934 0.0379,-0.13135 v -0.16649 c 0,-0.0555 -0.0179,-0.11395 -0.0555,-0.14892 l -3.02785,-4.09357 c 0,0 -0.0731,-0.11395 -0.18684,-0.11395 -0.0554,0 -0.0934,0 -0.14885,0.0583 -0.076,0.0555 -0.0934,0.12856 -0.0934,0.18682 0,0.11117 0.0554,0.2045 0.0554,0.2045 l 1.42198,1.9446 c 0.0351,0.0555 0.0554,0.12856 0.0554,0.22193 0,0.076 -0.0201,0.16945 -0.0554,0.22481 l -1.88915,2.87895 c -0.0179,0.0379 -0.038,0.11082 -0.038,0.14892 v 0.16945 c 0,0.0555 0.0201,0.11099 0.0583,0.14891 l 2.09058,2.59862 c -0.0731,-0.0202 -0.24233,-0.0583 -0.46717,-0.0583 -0.95186,0 -1.69933,0.78544 -1.69933,1.74024 0,0.25984 0.0554,0.52264 0.20427,0.72702 0.39418,0.59856 1.79568,2.37382 1.79568,2.37382 0,0 0.0934,0.11395 0.22484,0.11395 0.0351,0 0.0731,0 0.11085,-0.0379 0.0934,-0.076 0.13142,-0.14892 0.13142,-0.22484 0,-0.076 -0.038,-0.13135 -0.0554,-0.16945 -0.0583,-0.0934 -0.65406,-1.17671 -0.65406,-1.17671 0,0 -0.13141,-0.26276 -0.13141,-0.59854 0,-0.59856 0.44674,-1.08324 1.0453,-1.08324 0.24233,0 0.44964,0.0759 0.59856,0.16945 l 0.72995,0.46719 c 0,0 0.0731,0.0351 0.14892,0.0351 0.0731,0 0.13135,-0.0179 0.18684,-0.0934 0.0379,-0.0555 0.0555,-0.11082 0.0555,-0.16649 0,-0.0555 -0.0179,-0.0934 -0.0555,-0.14892 l -0.0379,-0.0583"
       id="path94" />
    <text
       xml:space="preserve"
       style="font-style:normal;font-weight:normal;font-size:12.7px;line-height:1.25;font-family:sans-serif;letter-spacing:0px;word-spacing:0px;fill:#000000;fill-opacity:1;stroke:none;stroke-width:0.264583"
       x="55.475033"
       y="114.04853"
       id="text1734"><tspan
         sodipodi:role="line"
         id="tspan1732"
         x="55.475033"
         y="114.04853"
         style="stroke-width:0.264583">liaison</tspan><tspan
         sodipodi:role="line"
         x="55.475033"
         y="129.92354"
         style="stroke-width:0.264583"
         id="tspan980" /></text>
    <text
       xml:space="preserve"
       style="font-style:normal;font-weight:normal;font-size:12.7px;line-height:1.25;font-family:sans-serif;letter-spacing:0px;word-spacing:0px;fill:#000000;fill-opacity:1;stroke:none;stroke-width:0.264583"
       x="118.15319"
       y="230.53311"
       id="text1738"><tspan
         sodipodi:role="line"
         id="tspan1736"
         x="118.15319"
         y="230.53311"
         style="stroke-width:0.264583">entre deux mesures</tspan></text>
    <path
       style="fill:#1a1a1a;stroke:#666666;stroke-width:0.981001;marker-mid:url(#TriangleStart)"
       d="m 73.640519,117.16886 0.09744,22.78944 z"
       id="path1045" />
  </g>
</svg>
