<?xml version="1.0" encoding="UTF-8" standalone="no"?>
<!-- Created with Inkscape (http://www.inkscape.org/) -->

<svg
   width="74mm"
   height="52mm"
   viewBox="0 0 74 52"
   version="1.1"
   id="SVGRoot"
   sodipodi:docname="_svg_porte_and_note_2.svg"
   inkscape:version="1.3 (0e150ed6c4, 2023-07-21)"
   xmlns:inkscape="http://www.inkscape.org/namespaces/inkscape"
   xmlns:sodipodi="http://sodipodi.sourceforge.net/DTD/sodipodi-0.dtd"
   xmlns="http://www.w3.org/2000/svg"
   xmlns:svg="http://www.w3.org/2000/svg">
  <sodipodi:namedview
     id="namedview178"
     pagecolor="#ffffff"
     bordercolor="#000000"
     borderopacity="0.25"
     inkscape:showpageshadow="2"
     inkscape:pageopacity="0.0"
     inkscape:pagecheckerboard="0"
     inkscape:deskcolor="#d1d1d1"
     inkscape:document-units="mm"
     showgrid="false"
     inkscape:zoom="1.5326361"
     inkscape:cx="365.05731"
     inkscape:cy="132.45154"
     inkscape:window-width="1440"
     inkscape:window-height="872"
     inkscape:window-x="-8"
     inkscape:window-y="-8"
     inkscape:window-maximized="1"
     inkscape:current-layer="g10139" />
  <defs
     id="defs173" />
  <g
     inkscape:label="Calque 1"
     inkscape:groupmode="layer"
     id="layer1" />
  <rect
     style="fill:#000000;stroke-width:0.264583"
     id="rect987"
     width="0.73606992"
     height="17.533585"
     x="1.5888567"
     y="17.993002" />
  <g
     id="g10139"
     transform="matrix(0.54470042,0,0,0.63771565,-2.0493969,-12.332013)"
     style="stroke-width:1.69671">
    <rect
       style="fill:#000000;stroke-width:0.448921"
       id="rect594"
       width="128.51776"
       height="0.8326844"
       x="7.5155988"
       y="47.627113" />
    <rect
       style="fill:#000000;stroke-width:0.448921"
       id="rect594-1"
       width="128.51776"
       height="0.8326844"
       x="7.4419875"
       y="54.427376" />
    <rect
       style="fill:#000000;stroke-width:0.448921"
       id="rect594-6"
       width="128.51776"
       height="0.8326844"
       x="7.2947826"
       y="60.950062" />
    <rect
       style="fill:#000000;stroke-width:0.448921"
       id="rect594-9"
       width="128.51776"
       height="0.8326844"
       x="7.589211"
       y="67.750328" />
    <rect
       style="fill:#000000;stroke-width:0.448921"
       id="rect594-7"
       width="128.51776"
       height="0.8326844"
       x="7.5892096"
       y="74.273018" />
    <path
       sodipodi:nodetypes="cssssssssscsssssssssc"
       id="path1947"
       d="m 15.150323,80.583902 c -0.288009,1.446641 1.316177,4.450895 4.543627,4.549038 3.901724,0.118647 6.394466,-2.689381 5.233146,-7.272117 L 19.102961,52.572319 c -0.693311,-3.010372 -0.172918,-4.643167 0.197281,-5.616244 0.98767,-2.596108 3.455234,-3.666891 4.055974,-2.835748 0.34298,0.474525 1.172286,2.693337 -1.188422,6.667384 -1.841145,3.09941 -10.407338,7.163693 -11.035988,14.43703 -0.544221,6.324822 6.493144,10.996087 12.567025,9.159709 4.03262,-1.219223 6.111457,-6.97726 3.615402,-9.947369 -6.5871,-7.838133 -17.15118,4.15762 -6.91762,7.443894 -1.112789,-0.823685 -1.871297,-1.461493 -2.012528,-2.241069 -1.375032,-7.589989 10.75529,-5.586098 7.486892,1.614447 -1.343975,2.960885 -6.772571,3.533657 -9.864111,0.89212 -2.589776,-2.212808 -3.738952,-6.475548 -0.856989,-9.535769 3.903318,-4.144749 8.511847,-7.865525 9.73586,-13.539408 1.447435,-6.70955 -3.27836,-11.940399 -6.266059,-5.340554 -1.002516,2.214566 -1.375962,4.43766 -0.416035,8.697752 l 5.819539,25.826731 c 0.416636,1.849 0.137715,4.393379 -1.696551,5.56278 -0.90862,0.579274 -4.123887,0.977946 -4.91051,-0.404804"
       style="fill:#000000;fill-opacity:1;fill-rule:nonzero;stroke:#000000;stroke-width:0.0453535;stroke-linecap:butt;stroke-linejoin:miter;stroke-miterlimit:4;stroke-dasharray:none;stroke-opacity:1" />
    <ellipse
       transform="matrix(-0.9998441,-0.01765716,0.01994743,-0.99980103,0,0)"
       id="path4608"
       style="fill:#000000;fill-opacity:1;stroke:#000000;stroke-width:0.0453535;stroke-miterlimit:4;stroke-dasharray:none;stroke-opacity:1"
       cx="-19.458277"
       cy="-80.522041"
       rx="2.7437987"
       ry="2.6258945" />
    <ellipse
       style="fill:#000000;stroke-width:0.448921"
       id="path1074"
       cx="45.791222"
       cy="61.227631"
       rx="3.8275623"
       ry="3.4695189" />
    <ellipse
       style="fill:#000000;stroke-width:0.448921"
       id="path1074-9"
       cx="59.700882"
       cy="33.0084"
       rx="3.8275623"
       ry="3.4695189" />
    <rect
       style="fill:#000000;stroke-width:0.761689"
       id="rect172"
       width="8.3986912"
       height="0.81211519"
       x="55.897701"
       y="41.670963" />
    <rect
       style="fill:#000000;stroke-width:0.761689"
       id="rect172-1"
       width="8.3986912"
       height="0.81211519"
       x="55.818466"
       y="36.256859" />
    <rect
       style="fill:#000000;stroke-width:0.761689"
       id="rect172-1-7"
       width="8.3986912"
       height="0.81211519"
       x="81.173012"
       y="80.652489" />
    <rect
       style="fill:#000000;stroke-width:0.761689"
       id="rect172-1-7-9"
       width="8.3986912"
       height="0.81211519"
       x="81.489937"
       y="85.389824" />
    <rect
       style="fill:#000000;stroke-width:0.71463"
       id="rect172-1-7-9-0"
       width="8.6483355"
       height="0.67676264"
       x="81.584412"
       y="90.262512" />
    <ellipse
       style="fill:#000000;stroke-width:0.375627"
       id="path1074-6"
       cx="85.986298"
       cy="90.530006"
       rx="3.2112746"
       ry="2.8952668" />
  </g>
</svg>
