<?xml version="1.0" encoding="UTF-8" standalone="no"?>
<!-- Created with Inkscape (http://www.inkscape.org/) -->

<svg
   width="297mm"
   height="210mm"
   viewBox="0 0 297 210"
   version="1.1"
   id="SVGRoot"
   sodipodi:docname="staff_key.svg"
   inkscape:version="1.2.2 (b0a8486541, 2022-12-01)"
   xmlns:inkscape="http://www.inkscape.org/namespaces/inkscape"
   xmlns:sodipodi="http://sodipodi.sourceforge.net/DTD/sodipodi-0.dtd"
   xmlns="http://www.w3.org/2000/svg"
   xmlns:svg="http://www.w3.org/2000/svg">
  <sodipodi:namedview
     id="namedview178"
     pagecolor="#ffffff"
     bordercolor="#000000"
     borderopacity="0.25"
     inkscape:showpageshadow="2"
     inkscape:pageopacity="0.0"
     inkscape:pagecheckerboard="0"
     inkscape:deskcolor="#d1d1d1"
     inkscape:document-units="mm"
     showgrid="false"
     inkscape:zoom="0.30790088"
     inkscape:cx="643.0641"
     inkscape:cy="337.77104"
     inkscape:window-width="1104"
     inkscape:window-height="552"
     inkscape:window-x="0"
     inkscape:window-y="32"
     inkscape:window-maximized="1"
     inkscape:current-layer="SVGRoot" />
  <defs
     id="defs173" />
  <g
     inkscape:label="Calque 1"
     inkscape:groupmode="layer"
     id="layer1" />
  <rect
     style="fill:#000000;stroke-width:1.01085"
     id="rect594"
     width="248.6893"
     height="1.8921596"
     x="25.35116"
     y="74.222244" />
  <rect
     style="fill:#000000;stroke-width:1.01085"
     id="rect594-1"
     width="248.6893"
     height="1.8921596"
     x="25.208719"
     y="89.674889" />
  <rect
     style="fill:#000000;stroke-width:1.01085"
     id="rect594-6"
     width="248.6893"
     height="1.8921596"
     x="24.92387"
     y="104.49678" />
  <rect
     style="fill:#000000;stroke-width:1.01085"
     id="rect594-9"
     width="248.6893"
     height="1.8921596"
     x="25.493605"
     y="119.94942" />
  <rect
     style="fill:#000000;stroke-width:1.01085"
     id="rect594-7"
     width="248.6893"
     height="1.8921596"
     x="25.493601"
     y="134.77135" />
  <path
     sodipodi:nodetypes="cssssssssscsssssssssc"
     id="path1947"
     d="m 40.124796,149.11196 c -0.557319,3.28728 2.546876,10.11403 8.792178,10.33705 7.55006,0.26963 12.373665,-6.11124 10.126442,-16.52487 L 47.77338,85.459525 c -1.341601,-6.840647 -0.33462,-10.550947 0.381758,-12.76213 1.911197,-5.899289 6.686076,-8.332498 7.848543,-6.443843 0.663686,1.078297 2.26844,6.120235 -2.299665,15.150703 -3.562721,7.042977 -20.138803,16.278497 -21.355276,32.806145 -1.053102,14.37228 12.564608,24.98707 24.317918,20.81416 7.803353,-2.77051 11.82602,-15.85485 6.996015,-22.60401 -12.746422,-17.811064 -33.188527,9.44761 -13.385998,16.91522 -2.153309,-1.87172 -3.621065,-3.32104 -3.894355,-5.09252 -2.660768,-17.2472 20.812104,-12.69363 14.487567,3.66861 -2.600669,6.72819 -13.105316,8.02974 -19.087625,2.02721 -5.011365,-5.0283 -7.235087,-14.71478 -1.658323,-21.66871 7.553147,-9.418364 16.470915,-17.873308 18.839454,-30.766418 2.800865,-15.246521 -6.343819,-27.132897 -12.125187,-12.135665 -1.939929,5.03229 -2.662568,10.083961 -0.805055,19.764429 l 11.261145,58.687654 c 0.806213,4.20159 0.266504,9.98334 -3.282923,12.64065 -1.75823,1.31632 -7.97996,2.22225 -9.502119,-0.91987"
     style="fill:#000000;fill-opacity:1;fill-rule:nonzero;stroke:#000000;stroke-width:0.102125;stroke-linecap:butt;stroke-linejoin:miter;stroke-miterlimit:4;stroke-dasharray:none;stroke-opacity:1" />
  <ellipse
     transform="matrix(-0.99973957,-0.02282081,0.01543355,-0.9998809,0,0)"
     id="path4608"
     style="fill:#000000;fill-opacity:1;stroke:#000000;stroke-width:0.102126;stroke-miterlimit:4;stroke-dasharray:none;stroke-opacity:1"
     cx="-47.319118"
     cy="-146.50368"
     rx="5.6356616"
     ry="6.9702005" />
  <text
     xml:space="preserve"
     style="font-size:16.1736px;font-family:sans-serif;-inkscape-font-specification:sans-serif;fill:#000000;stroke:#000000;stroke-width:0;stroke-dasharray:none"
     x="30.486902"
     y="24.904968"
     id="text294"
     transform="scale(0.93732193,1.0668693)"><tspan
       sodipodi:role="line"
       id="tspan292"
       style="font-size:16.1736px;stroke-width:0;stroke-dasharray:none"
       x="30.486902"
       y="24.904968">Clé de Sol</tspan></text>
  <path
     style="fill:#000000;stroke:#000000;stroke-width:0.76411;stroke-dasharray:none"
     d="M 52.307966,33.211451 52.185483,52.693842 Z"
     id="path1017" />
  <path
     style="fill:#000000;stroke:#000000;stroke-width:0.76411;stroke-dasharray:none"
     d="m 52.255956,52.589875 c -0.57658,-1.158733 -4.43384,-10.121857 -4.43384,-10.121857 l 4.163019,9.166143 z"
     id="path1019" />
  <path
     style="fill:#000000;stroke:#000000;stroke-width:0.76411;stroke-dasharray:none"
     d="M 51.718624,51.872131 55.93323,43.091263 Z"
     id="path1021" />
  <text
     xml:space="preserve"
     style="font-size:16.1736px;font-family:sans-serif;-inkscape-font-specification:sans-serif;fill:#000000;stroke:#000000;stroke-width:0;stroke-dasharray:none"
     x="146.17538"
     y="175.41727"
     id="text1041"
     transform="scale(0.93732193,1.0668693)"><tspan
       sodipodi:role="line"
       id="tspan1039"
       style="stroke-width:0;stroke-dasharray:none"
       x="146.17538"
       y="175.41727">Portée</tspan></text>
  <path
     style="fill:#000000;stroke:#000000;stroke-width:0.76411;stroke-dasharray:none"
     d="m 161.83124,167.53532 -0.60699,-26.84801 z"
     id="path1043" />
  <path
     style="fill:#000000;stroke:#000000;stroke-width:0.76411;stroke-dasharray:none"
     d="m 161.01054,140.90971 -1.60927,5.63353 z"
     id="path1045" />
  <path
     style="fill:#000000;stroke:#000000;stroke-width:0.76411;stroke-dasharray:none"
     d="m 161.17891,140.92123 c 0,0 1.89102,5.72576 1.83857,5.39635 -0.0525,-0.32938 -1.83857,-5.39635 -1.83857,-5.39635 z"
     id="path1047" />
</svg>
