<?xml version="1.0" encoding="UTF-8" standalone="no"?>
<svg width="210.058mm" height="296.926mm" viewBox="0 0 2977.2 4208.4"
 xmlns="http://www.w3.org/2000/svg" xmlns:xlink="http://www.w3.org/1999/xlink" version="1.2" baseProfile="full">
<title>un_kilometre_a_pied</title>
<desc>Generated by MuseScore Studio 4.6.5</desc>
<polyline class="StaffLines" fill="none" stroke="#000000" stroke-width="2.73" stroke-linejoin="bevel" points="336.599,634.198 2764.6,634.198" />
<polyline class="StaffLines" fill="none" stroke="#000000" stroke-width="2.73" stroke-linejoin="bevel" points="336.599,658.998 2764.6,658.998" />
<polyline class="StaffLines" fill="none" stroke="#000000" stroke-width="2.73" stroke-linejoin="bevel" points="336.599,683.798 2764.6,683.798" />
<polyline class="StaffLines" fill="none" stroke="#000000" stroke-width="2.73" stroke-linejoin="bevel" points="336.599,708.598 2764.6,708.598" />
<polyline class="StaffLines" fill="none" stroke="#000000" stroke-width="2.73" stroke-linejoin="bevel" points="336.599,733.398 2764.6,733.398" />
<polyline class="StaffLines" fill="none" stroke="#000000" stroke-width="2.73" stroke-linejoin="bevel" points="212.598,1316.2 2764.6,1316.2" />
<polyline class="StaffLines" fill="none" stroke="#000000" stroke-width="2.73" stroke-linejoin="bevel" points="212.598,1341 2764.6,1341" />
<polyline class="StaffLines" fill="none" stroke="#000000" stroke-width="2.73" stroke-linejoin="bevel" points="212.598,1365.8 2764.6,1365.8" />
<polyline class="StaffLines" fill="none" stroke="#000000" stroke-width="2.73" stroke-linejoin="bevel" points="212.598,1390.6 2764.6,1390.6" />
<polyline class="StaffLines" fill="none" stroke="#000000" stroke-width="2.73" stroke-linejoin="bevel" points="212.598,1415.4 2764.6,1415.4" />
<path class="Text" d="M1040.15,220.348 C1050.69,220.895 1052.79,223.973 1052.79,239.051 L1052.79,263.364 C1052.79,272.161 1052.24,275.676 1050.15,279.536 C1046.63,286.348 1039.47,290.301 1030.57,290.301 C1022.97,290.301 1016.6,287.442 1012.97,282.505 C1010,278.426 1009.44,275.786 1009.44,265.551 L1009.44,228.708 C1009.44,223.098 1009.44,222.88 1010.11,221.895 C1010.99,220.786 1013.08,220.458 1019.35,220.348 L1021.44,220.348 L1021.44,215.176 L985.473,215.176 L985.473,220.348 L987.333,220.348 C993.505,220.458 995.583,220.786 996.473,221.895 C997.13,222.88 997.13,223.098 997.13,228.708 L997.13,272.489 C997.458,278.317 998.333,281.833 1000.43,284.911 C1005.49,292.176 1015.16,296.255 1027.6,296.255 C1040.04,296.255 1048.61,292.505 1053.9,284.692 C1057.41,279.645 1058.72,273.801 1058.72,264.02 L1058.72,239.051 C1058.61,224.083 1060.82,220.895 1071.49,220.348 L1071.49,215.176 L1040.15,215.176 L1040.15,220.348 M1090.83,243.333 L1071.8,244.551 L1071.8,249.286 L1075.77,249.286 C1079.94,249.395 1080.49,250.051 1080.49,254.786 L1080.49,286.239 C1080.38,287.895 1080.27,288.551 1079.83,289.098 C1079.07,290.083 1076.97,290.536 1072.24,290.645 L1071.8,290.645 L1071.8,294.598 L1099.63,294.598 L1099.63,290.645 L1099.19,290.645 C1091.82,290.411 1090.83,289.864 1090.83,285.911 L1090.83,269.63 C1090.83,264.239 1091.6,259.286 1092.82,256.755 C1095.13,251.801 1100.07,248.395 1104.8,248.395 C1107.66,248.395 1110.96,249.942 1112.61,252.255 C1114.27,254.661 1115.04,257.973 1115.04,263.255 L1115.04,286.239 C1114.93,287.895 1114.82,288.551 1114.38,289.098 C1113.6,290.083 1111.4,290.536 1106.68,290.645 L1106.24,290.645 L1106.24,294.598 L1134.07,294.598 L1134.07,290.645 L1133.63,290.645 C1126.36,290.411 1125.38,289.864 1125.38,285.911 L1125.38,263.801 C1125.38,255.88 1125.04,253.895 1123.07,250.161 C1120.32,244.88 1114.82,241.692 1108.21,241.692 C1101.07,241.692 1095.68,244.989 1090.83,252.255 L1090.83,243.333 M1188.5,267.973 L1188.5,213.52 L1168.16,214.739 L1168.16,219.473 L1173.43,219.473 C1177.61,219.583 1178.16,220.239 1178.16,224.973 L1178.16,286.348 C1178.05,287.895 1177.94,288.551 1177.5,289.098 C1176.74,290.083 1174.65,290.536 1169.91,290.645 L1169.47,290.645 L1169.47,294.598 L1197.3,294.598 L1197.3,290.645 L1196.86,290.645 C1189.49,290.411 1188.5,289.864 1188.5,285.911 L1188.5,274.801 L1195.21,268.411 L1208.3,286.786 C1208.85,287.661 1209.07,288.223 1209.07,288.661 C1209.07,290.192 1207.86,290.645 1204.24,290.645 L1202.15,290.645 L1202.15,294.598 L1231.19,294.598 L1231.19,290.645 C1225.02,290.083 1222.82,288.77 1218.32,283.051 L1202.69,261.708 L1207.65,256.864 C1214.13,250.598 1218.75,248.176 1226.24,247.301 L1226.24,243.333 L1197.3,243.333 L1197.3,247.301 L1200.71,247.301 C1204.24,247.301 1205.88,247.958 1205.88,249.395 C1205.88,250.598 1205.11,251.911 1203.35,253.676 L1188.5,267.973 M1250.97,215.942 C1247.46,215.942 1244.6,218.801 1244.6,222.333 C1244.6,225.848 1247.46,228.708 1250.86,228.708 C1254.5,228.708 1257.36,225.848 1257.36,222.333 C1257.36,218.801 1254.5,215.942 1250.97,215.942 M1256.15,243.333 L1235.47,244.551 L1235.47,249.286 L1241.08,249.286 C1245.25,249.395 1245.8,250.051 1245.8,254.786 L1245.8,286.239 C1245.69,287.895 1245.58,288.551 1245.15,289.098 C1244.38,290.083 1242.29,290.536 1237.55,290.645 L1236.79,290.645 L1236.79,294.598 L1265.29,294.598 L1265.29,290.645 L1264.5,290.645 C1257.15,290.411 1256.15,289.864 1256.15,285.911 L1256.15,243.333 M1290.57,213.52 L1270.22,214.739 L1270.22,219.473 L1275.61,219.473 C1279.68,219.583 1280.22,220.239 1280.22,224.973 L1280.22,286.239 C1280.11,287.895 1280,288.551 1279.57,289.098 C1278.8,290.083 1276.71,290.536 1271.97,290.645 L1271.21,290.645 L1271.21,294.598 L1299.69,294.598 L1299.69,290.645 L1298.93,290.645 C1291.57,290.411 1290.57,289.864 1290.57,285.911 L1290.57,213.52 M1330.49,241.692 C1316.96,241.692 1306.5,253.676 1306.5,269.083 C1306.5,284.145 1317.07,296.255 1330.27,296.255 C1343.47,296.255 1354.04,284.145 1354.04,268.973 C1354.04,253.895 1343.47,241.692 1330.49,241.692 M1330.49,246.411 C1338.19,246.411 1342.47,254.442 1342.47,268.973 C1342.47,283.598 1338.19,291.52 1330.27,291.52 C1322.35,291.52 1318.07,283.598 1318.07,269.083 C1318.07,254.114 1322.24,246.411 1330.49,246.411 M1379.86,243.333 L1360.29,244.551 L1360.29,249.286 L1364.8,249.286 C1368.97,249.395 1369.52,250.051 1369.52,254.786 L1369.52,286.239 C1369.41,287.895 1369.3,288.551 1368.86,289.098 C1368.1,290.083 1366,290.536 1361.27,290.645 L1360.83,290.645 L1360.83,294.598 L1388.55,294.598 L1388.55,290.645 L1388.11,290.645 C1380.85,290.411 1379.86,289.864 1379.86,285.801 L1379.86,265.442 C1379.86,255.661 1385.25,248.395 1392.41,248.395 C1398.68,248.395 1401.86,252.911 1401.86,261.817 L1401.86,286.348 C1401.75,287.786 1401.65,288.551 1401.1,289.098 C1400.44,290.083 1398.24,290.536 1393.5,290.645 L1393.07,290.645 L1393.07,294.598 L1420.9,294.598 L1420.9,290.645 L1420.46,290.645 C1413.19,290.411 1412.21,289.864 1412.21,285.911 L1412.21,266.442 C1412.21,255.442 1417.16,248.395 1424.85,248.395 C1431.13,248.395 1434.21,253.13 1434.21,263.036 L1434.21,286.239 C1434.1,287.786 1433.99,288.551 1433.44,289.098 C1432.77,290.083 1430.58,290.536 1425.85,290.645 L1425.41,290.645 L1425.41,294.598 L1453.24,294.598 L1453.24,290.645 L1452.8,290.645 C1445.54,290.411 1444.55,289.864 1444.55,285.801 L1444.55,260.833 C1444.55,254.005 1443.88,251.692 1441.02,247.958 C1437.83,243.895 1433.33,241.692 1428.05,241.692 C1420.9,241.692 1415.61,245.098 1410.88,252.692 C1409.02,246.083 1403.07,241.692 1395.71,241.692 C1388.99,241.692 1384.16,244.88 1379.86,251.801 L1379.86,243.333 M1492.49,235.755 L1477.1,220.348 C1474.35,217.598 1473.24,216.942 1471.6,216.942 C1469.4,216.942 1467.74,218.583 1467.74,220.786 C1467.74,222.333 1468.85,223.973 1470.49,225.083 L1487.99,235.755 L1492.49,235.755 M1506.69,269.848 C1506.8,253.348 1497.44,241.692 1484.02,241.692 C1469.94,241.692 1459.38,253.895 1459.38,270.395 C1459.38,285.911 1469.4,296.255 1484.24,296.255 C1494.8,296.255 1502.18,291.083 1506.69,280.63 L1502.83,278.536 C1498.33,287.005 1493.71,290.301 1486.33,290.301 C1480.72,290.301 1476.66,288.005 1473.8,283.051 C1471.82,279.755 1470.94,275.895 1471.05,269.848 L1506.69,269.848 M1471.16,265.114 C1471.16,257.411 1474.68,246.411 1483.91,246.411 C1490.52,246.411 1494.91,252.255 1494.91,261.161 C1494.91,264.239 1493.93,265.114 1490.41,265.114 L1471.16,265.114 M1531.86,243.333 L1531.86,221.551 L1527.35,221.551 C1526.25,235.864 1521.41,243.114 1512.5,243.786 L1512.5,248.067 L1521.52,248.067 L1521.52,276.114 C1521.52,283.817 1521.74,286.567 1522.83,289.098 C1524.6,293.723 1529,296.255 1535.38,296.255 C1545.29,296.255 1551.66,288.77 1551.66,277.114 C1551.66,276.442 1551.66,275.676 1551.55,274.583 L1546.93,274.583 C1546.6,284.473 1543.74,289.536 1538.35,289.536 C1535.82,289.536 1533.61,288.223 1532.85,286.348 C1532.19,284.801 1531.86,282.051 1531.86,278.098 L1531.86,248.067 L1548.04,248.067 L1548.04,243.333 L1531.86,243.333 M1575.08,243.333 L1555.61,244.551 L1555.61,249.286 L1560.11,249.286 C1564.3,249.395 1564.85,250.051 1564.85,254.786 L1564.85,286.239 C1564.74,287.895 1564.63,288.551 1564.19,289.098 C1563.43,290.083 1561.22,290.536 1556.49,290.645 L1556.05,290.645 L1556.05,294.598 L1585.43,294.598 L1585.43,290.645 L1583.44,290.645 C1576.07,290.411 1575.08,289.864 1575.08,285.911 L1575.08,279.973 C1575.19,261.489 1581.79,247.411 1590.36,246.973 C1588.83,248.723 1588.4,249.833 1588.4,251.911 C1588.4,255.442 1590.93,257.973 1594.44,257.973 C1598.5,257.973 1601.15,255.005 1601.15,250.598 C1601.15,245.208 1597.41,241.692 1591.58,241.692 C1584.65,241.692 1578.71,247.192 1575.08,256.973 L1575.08,243.333 M1652.63,269.848 C1652.74,253.348 1643.38,241.692 1629.96,241.692 C1615.88,241.692 1605.32,253.895 1605.32,270.395 C1605.32,285.911 1615.33,296.255 1630.18,296.255 C1640.74,296.255 1648.11,291.083 1652.63,280.63 L1648.77,278.536 C1644.27,287.005 1639.65,290.301 1632.27,290.301 C1626.66,290.301 1622.6,288.005 1619.74,283.051 C1617.75,279.755 1616.88,275.895 1616.99,269.848 L1652.63,269.848 M1617.1,265.114 C1617.1,257.411 1620.61,246.411 1629.85,246.411 C1636.46,246.411 1640.85,252.255 1640.85,261.161 C1640.85,264.239 1639.86,265.114 1636.35,265.114 L1617.1,265.114 M1725.1,235.755 L1709.69,220.348 C1706.94,217.598 1705.96,216.942 1704.19,216.942 C1701.99,216.942 1700.35,218.583 1700.35,220.786 C1700.35,222.333 1701.44,223.973 1703.21,225.083 L1720.69,235.755 L1725.1,235.755 M1736.75,259.176 C1736.75,252.255 1735.55,248.723 1732.35,246.083 C1728.72,243.114 1723.33,241.692 1716.3,241.692 C1703.86,241.692 1694.85,247.52 1694.85,255.551 C1694.85,259.614 1697.38,262.255 1701.22,262.255 C1704.74,262.255 1707.16,259.942 1707.16,256.645 C1707.16,255.223 1706.61,253.676 1705.52,252.145 C1704.85,251.364 1704.74,251.145 1704.74,250.598 C1704.74,248.395 1709.15,246.411 1714.43,246.411 C1717.94,246.411 1721.8,247.52 1723.55,249.161 C1725.65,250.926 1726.41,253.567 1726.41,258.52 L1726.41,262.801 C1714.97,264.786 1711.35,265.661 1705.96,267.755 C1696.38,271.286 1691.88,276.333 1691.88,283.38 C1691.88,291.301 1698.04,296.255 1707.83,296.255 C1715.41,296.255 1722.24,293.161 1726.97,287.551 C1728.72,293.161 1731.47,295.364 1736.65,295.364 C1741.6,295.364 1746.77,292.176 1746.77,288.989 C1746.77,288.223 1746.33,287.661 1745.66,287.661 C1745.22,287.661 1744.79,287.786 1744.02,288.114 C1742.47,288.77 1741.82,288.88 1740.94,288.88 C1737.85,288.88 1736.75,286.895 1736.75,281.286 L1736.75,259.176 M1726.41,272.598 C1726.41,279.192 1726.08,280.739 1724.22,283.598 C1721.47,287.661 1716.52,290.411 1711.68,290.411 C1706.61,290.411 1702.99,286.786 1702.99,281.833 C1702.99,277.223 1705.3,273.911 1710.13,271.614 C1713.55,270.067 1717.83,268.973 1726.41,267.536 L1726.41,272.598 M1800.88,243.333 L1781.85,244.551 L1781.85,249.286 L1785.82,249.286 C1789.99,249.395 1790.54,250.051 1790.54,254.786 L1790.54,308.567 C1790.43,310.114 1790.32,310.77 1789.88,311.317 C1789.11,312.301 1787.02,312.755 1782.29,312.864 L1781.85,312.864 L1781.85,316.817 L1810.46,316.817 L1810.46,312.864 L1809.24,312.864 C1801.86,312.645 1800.88,312.083 1800.88,308.13 L1800.88,287.333 C1804.5,293.723 1808.58,296.255 1815.4,296.255 C1830.04,296.255 1837.61,281.833 1837.61,268.755 C1837.61,256.317 1830.04,241.692 1816.07,241.692 C1809.24,241.692 1804.72,244.551 1800.88,251.145 L1800.88,243.333 M1814.08,247.63 C1821.68,247.63 1826.07,255.223 1826.07,268.083 C1826.07,282.286 1821.68,290.301 1813.75,290.301 C1805.83,290.301 1800.77,282.161 1800.77,269.52 C1800.77,255.77 1805.72,247.63 1814.08,247.63 M1859.38,215.942 C1855.86,215.942 1853,218.801 1853,222.333 C1853,225.848 1855.86,228.708 1859.27,228.708 C1862.91,228.708 1865.77,225.848 1865.77,222.333 C1865.77,218.801 1862.91,215.942 1859.38,215.942 M1864.55,243.333 L1843.88,244.551 L1843.88,249.286 L1849.49,249.286 C1853.66,249.395 1854.21,250.051 1854.21,254.786 L1854.21,286.239 C1854.1,287.895 1853.99,288.551 1853.55,289.098 C1852.79,290.083 1850.69,290.536 1845.96,290.645 L1845.19,290.645 L1845.19,294.598 L1873.69,294.598 L1873.69,290.645 L1872.91,290.645 C1865.55,290.411 1864.55,289.864 1864.55,285.911 L1864.55,243.333 M1927.69,269.848 C1927.8,253.348 1918.44,241.692 1905.02,241.692 C1890.94,241.692 1880.38,253.895 1880.38,270.395 C1880.38,285.911 1890.4,296.255 1905.24,296.255 C1915.8,296.255 1923.18,291.083 1927.69,280.63 L1923.83,278.536 C1919.33,287.005 1914.71,290.301 1907.33,290.301 C1901.72,290.301 1897.66,288.005 1894.8,283.051 C1892.82,279.755 1891.94,275.895 1892.05,269.848 L1927.69,269.848 M1892.16,265.114 C1892.16,257.411 1895.68,246.411 1904.91,246.411 C1911.52,246.411 1915.91,252.255 1915.91,261.161 C1915.91,264.239 1914.93,265.114 1911.41,265.114 L1892.16,265.114 M1973.32,295.364 L1992.46,294.598 L1992.46,289.864 L1990.47,289.864 C1984.21,289.536 1983.66,288.88 1983.66,281.833 L1983.66,213.52 L1962.1,214.739 L1962.1,219.473 L1968.58,219.473 C1972.77,219.583 1973.32,220.239 1973.32,224.973 L1973.32,249.833 C1969.25,244.223 1964.52,241.692 1958.15,241.692 C1945.71,241.692 1936.25,253.676 1936.25,269.52 C1936.25,285.145 1945.38,296.255 1958.15,296.255 C1965.07,296.255 1969.8,293.286 1973.32,286.676 L1973.32,295.364 M1960.33,247.63 C1964.85,247.63 1969.15,250.926 1971.11,255.989 C1972.55,259.286 1973.21,263.801 1973.21,269.192 C1973.21,282.051 1968.15,290.301 1960.22,290.301 C1952.43,290.301 1947.8,283.051 1947.8,270.833 C1947.8,264.239 1948.46,259.286 1949.9,255.661 C1951.75,250.708 1955.83,247.63 1960.33,247.63"/>
<path class="MeasureNumber" d="M217.083,1251.29 C215.833,1252.04 215.473,1252.52 215.473,1253.32 C215.473,1254.08 216.114,1254.65 216.911,1254.65 C217.958,1254.65 218.551,1253.88 218.676,1252.4 C219.911,1251.4 221.239,1250.96 222.833,1250.96 C225.801,1250.96 227.442,1252.8 227.442,1256.11 C227.442,1261.32 224.083,1265.55 219.958,1265.55 C217.598,1265.55 215.676,1264.44 215.676,1263.11 C215.676,1262.88 215.723,1262.8 215.911,1262.68 C217.192,1262.08 218.239,1261.65 218.239,1259.96 C218.239,1258.68 217.239,1257.72 215.833,1257.72 C214.083,1257.72 212.755,1259.19 212.755,1261.11 C212.755,1264.65 215.801,1267.19 220.083,1267.19 C226.551,1267.19 231.801,1262.04 231.801,1255.65 C231.801,1251.6 228.723,1248.76 224.364,1248.76 C222.63,1248.76 221.239,1249.11 219.317,1250.08 L221.551,1242.52 C223.676,1242.96 225.364,1243.16 226.801,1243.16 C229.442,1243.16 231.801,1242.32 233.114,1240.93 C233.801,1240.13 234.192,1239.44 234.192,1238.93 C234.192,1238.68 234.067,1238.44 233.911,1238.44 C233.801,1238.44 233.708,1238.49 233.473,1238.6 C232.161,1239.24 230.473,1239.6 228.911,1239.6 C226.52,1239.6 223.676,1239.21 220.723,1238.44 L217.083,1251.29 "/>
<polyline class="BarLine" fill="none" stroke="#000000" stroke-width="4.46" stroke-linejoin="bevel" points="2739.55,1314.84 2739.55,1416.76" />
<polyline class="BarLine" fill="none" stroke="#000000" stroke-width="13.64" stroke-linejoin="bevel" points="2757.78,1314.84 2757.78,1416.76" />
<polyline class="BarLine" fill="none" stroke="#000000" stroke-width="4.46" stroke-linejoin="bevel" points="1253.95,632.834 1253.95,734.762" />
<polyline class="BarLine" fill="none" stroke="#000000" stroke-width="4.46" stroke-linejoin="bevel" points="2279.52,632.834 2279.52,734.762" />
<polyline class="BarLine" fill="none" stroke="#000000" stroke-width="4.46" stroke-linejoin="bevel" points="1646.97,1314.84 1646.97,1416.76" />
<polyline class="BarLine" fill="none" stroke="#000000" stroke-width="4.46" stroke-linejoin="bevel" points="2762.37,632.834 2762.37,734.762" />
<polyline class="BarLine" fill="none" stroke="#000000" stroke-width="4.46" stroke-linejoin="bevel" points="2336.3,1314.84 2336.3,1416.76" />
<polyline class="BarLine" fill="none" stroke="#000000" stroke-width="4.46" stroke-linejoin="bevel" points="1137.22,1314.84 1137.22,1416.76" />
<polyline class="BarLine" fill="none" stroke="#000000" stroke-width="4.46" stroke-linejoin="bevel" points="1722.11,632.834 1722.11,734.762" />
<polyline class="Stem" fill="none" stroke="#000000" stroke-width="2.48" stroke-linejoin="bevel" points="785.621,717.03 785.621,640.398" />
<polyline class="Stem" fill="none" stroke="#000000" stroke-width="2.48" stroke-linejoin="bevel" points="984.459,717.03 984.459,652.849" />
<polyline class="Stem" fill="none" stroke="#000000" stroke-width="2.48" stroke-linejoin="bevel" points="839.055,1399.03 839.055,1334.85" />
<polyline class="Stem" fill="none" stroke="#000000" stroke-width="2.48" stroke-linejoin="bevel" points="2567.45,741.83 2567.45,658.998" />
<polyline class="Stem" fill="none" stroke="#000000" stroke-width="2.48" stroke-linejoin="bevel" points="730.079,1399.03 730.079,1322.4" />
<polyline class="Stem" fill="none" stroke="#000000" stroke-width="2.48" stroke-linejoin="bevel" points="1512.28,1423.83 1512.28,1341.2" />
<polyline class="Stem" fill="none" stroke="#000000" stroke-width="2.48" stroke-linejoin="bevel" points="885.04,717.03 885.04,640.398" />
<polyline class="Stem" fill="none" stroke="#000000" stroke-width="2.48" stroke-linejoin="bevel" points="457.638,1399.03 457.638,1322.4" />
<polyline class="Stem" fill="none" stroke="#000000" stroke-width="2.48" stroke-linejoin="bevel" points="1002.52,1411.43 1002.52,1340.95" />
<polyline class="Stem" fill="none" stroke="#000000" stroke-width="2.48" stroke-linejoin="bevel" points="1201.45,1423.83 1201.45,1341" />
<polyline class="Stem" fill="none" stroke="#000000" stroke-width="2.48" stroke-linejoin="bevel" points="1133.59,729.43 1133.59,658.948" />
<polyline class="Stem" fill="none" stroke="#000000" stroke-width="2.48" stroke-linejoin="bevel" points="621.103,1399.03 621.103,1322.4" />
<polyline class="Stem" fill="none" stroke="#000000" stroke-width="2.48" stroke-linejoin="bevel" points="636.493,717.03 636.493,640.398" />
<polyline class="Stem" fill="none" stroke="#000000" stroke-width="2.48" stroke-linejoin="bevel" points="2343.75,717.03 2343.75,634.198" />
<polyline class="Stem" fill="none" stroke="#000000" stroke-width="2.48" stroke-linejoin="bevel" points="1318.18,741.83 1318.18,658.998" />
<polyline class="Stem" fill="none" stroke="#000000" stroke-width="2.48" stroke-linejoin="bevel" points="1874.67,1386.63 1874.67,1316.25" />
<polyline class="Stem" fill="none" stroke="#000000" stroke-width="2.48" stroke-linejoin="bevel" points="2010.03,741.83 2010.03,665.148" />
<polyline class="Stem" fill="none" stroke="#000000" stroke-width="2.48" stroke-linejoin="bevel" points="1601.75,741.83 1601.75,659.197" />
<polyline class="Stem" fill="none" stroke="#000000" stroke-width="2.48" stroke-linejoin="bevel" points="1786.34,729.43 1786.34,646.598" />
<polyline class="Stem" fill="none" stroke="#000000" stroke-width="2.48" stroke-linejoin="bevel" points="2038.13,1399.03 2038.13,1334.85" />
<polyline class="Stem" fill="none" stroke="#000000" stroke-width="2.48" stroke-linejoin="bevel" points="2159.16,729.43 2159.16,659.049" />
<polyline class="Stem" fill="none" stroke="#000000" stroke-width="2.48" stroke-linejoin="bevel" points="2201.6,1411.43 2201.6,1340.95" />
<polyline class="Stem" fill="none" stroke="#000000" stroke-width="2.48" stroke-linejoin="bevel" points="1711.21,1411.43 1711.21,1322.35" />
<polyline class="Stem" fill="none" stroke="#000000" stroke-width="2.48" stroke-linejoin="bevel" points="2400.53,1423.83 2400.53,1341" />
<path class="Hook" transform="matrix(0.992001,0,0,0.992001,1600.51,658.998)" d="M0,22.7031 C0,23 0.09375,23.5 0.796875,23.7969 C5.09375,25.2031 13.7031,30.6094 20.2031,41.7031 C22,44.7969 24.9063,49.1094 24.9063,57.4063 C24.9063,64.6094 23,72 20.4063,79.2031 C20.2031,79.8125 20,80.3125 20.0938,80.7031 C20.0938,81.3125 20.5,81.7031 21.0938,81.7031 C21.7969,81.7031 22.2969,81.3125 22.7031,80.6094 C27.2031,72.6094 28.9063,63.2969 28.9063,54.2031 C28.4063,41.2969 21,31.7969 21,31.7969 C21.2969,31.7969 11.7969,19.5 9.09375,15.2969 C5.40625,9.59375 3.70313,3.90625 3.5,3.5 C3.40625,3.20313 2.5,-0.40625 2.5,-0.40625 C2.40625,-0.796875 1.90625,-1.20313 1.29688,-1.20313 C0.59375,-1.20313 0,-0.59375 0,0.09375 L0,22.7031 "/>
<path class="Hook" transform="matrix(0.992001,0,0,0.992001,1511.04,1341)" d="M0,22.7031 C0,23 0.09375,23.5 0.796875,23.7969 C5.09375,25.2031 13.7031,30.6094 20.2031,41.7031 C22,44.7969 24.9063,49.1094 24.9063,57.4063 C24.9063,64.6094 23,72 20.4063,79.2031 C20.2031,79.8125 20,80.3125 20.0938,80.7031 C20.0938,81.3125 20.5,81.7031 21.0938,81.7031 C21.7969,81.7031 22.2969,81.3125 22.7031,80.6094 C27.2031,72.6094 28.9063,63.2969 28.9063,54.2031 C28.4063,41.2969 21,31.7969 21,31.7969 C21.2969,31.7969 11.7969,19.5 9.09375,15.2969 C5.40625,9.59375 3.70313,3.90625 3.5,3.5 C3.40625,3.20313 2.5,-0.40625 2.5,-0.40625 C2.40625,-0.796875 1.90625,-1.20313 1.29688,-1.20313 C0.59375,-1.20313 0,-0.59375 0,0.09375 L0,22.7031 "/>
<path class="Note" transform="matrix(0.992001,0,0,0.992001,971.52,1415.4)" d="M0,4.20313 C0,8.5 3.09375,13.2969 11.2031,13.2969 C21.5938,13.2969 32.5,4.79688 32.5,-4 C32.5,-9.90625 27.5,-13.2031 21.2969,-13.2031 C11.5938,-13.2031 0,-5 0,4.20313"/>
<path class="Note" transform="matrix(0.992001,0,0,0.992001,2369.53,1427.8)" d="M7.5,8.59375 C4.20313,8.59375 3.5,5.90625 3.5,5 C3.5,0.09375 20.2969,-8.5 25,-8.5 C27.4063,-8.5 29,-7.09375 29,-4.90625 C29,0.09375 12.0938,8.59375 7.5,8.59375 M21.2969,-13.2031 C11.5938,-13.2031 0,-5.09375 0,4.20313 C0,8.5 3.09375,13.2969 11.2031,13.2969 C21.5938,13.2969 32.5,4.79688 32.5,-4 C32.5,-9.90625 27.5,-13.2031 21.2969,-13.2031"/>
<path class="Note" transform="matrix(0.992001,0,0,0.992001,854.04,720.998)" d="M0,4.20313 C0,8.5 3.09375,13.2969 11.2031,13.2969 C21.5938,13.2969 32.5,4.79688 32.5,-4 C32.5,-9.90625 27.5,-13.2031 21.2969,-13.2031 C11.5938,-13.2031 0,-5 0,4.20313"/>
<path class="Note" transform="matrix(0.992001,0,0,0.992001,808.055,1403)" d="M0,4.20313 C0,8.5 3.09375,13.2969 11.2031,13.2969 C21.5938,13.2969 32.5,4.79688 32.5,-4 C32.5,-9.90625 27.5,-13.2031 21.2969,-13.2031 C11.5938,-13.2031 0,-5 0,4.20313"/>
<path class="Note" transform="matrix(0.992001,0,0,0.992001,953.459,720.998)" d="M0,4.20313 C0,8.5 3.09375,13.2969 11.2031,13.2969 C21.5938,13.2969 32.5,4.79688 32.5,-4 C32.5,-9.90625 27.5,-13.2031 21.2969,-13.2031 C11.5938,-13.2031 0,-5 0,4.20313"/>
<path class="Note" transform="matrix(0.992001,0,0,0.992001,605.493,720.998)" d="M0,4.20313 C0,8.5 3.09375,13.2969 11.2031,13.2969 C21.5938,13.2969 32.5,4.79688 32.5,-4 C32.5,-9.90625 27.5,-13.2031 21.2969,-13.2031 C11.5938,-13.2031 0,-5 0,4.20313"/>
<path class="Note" transform="matrix(0.992001,0,0,0.992001,1170.45,1427.8)" d="M0,4.20313 C0,8.5 3.09375,13.2969 11.2031,13.2969 C21.5938,13.2969 32.5,4.79688 32.5,-4 C32.5,-9.90625 27.5,-13.2031 21.2969,-13.2031 C11.5938,-13.2031 0,-5 0,4.20313"/>
<path class="Note" transform="matrix(0.992001,0,0,0.992001,2170.6,1415.4)" d="M0,4.20313 C0,8.5 3.09375,13.2969 11.2031,13.2969 C21.5938,13.2969 32.5,4.79688 32.5,-4 C32.5,-9.90625 27.5,-13.2031 21.2969,-13.2031 C11.5938,-13.2031 0,-5 0,4.20313"/>
<path class="Note" transform="matrix(0.992001,0,0,0.992001,2007.13,1403)" d="M0,4.20313 C0,8.5 3.09375,13.2969 11.2031,13.2969 C21.5938,13.2969 32.5,4.79688 32.5,-4 C32.5,-9.90625 27.5,-13.2031 21.2969,-13.2031 C11.5938,-13.2031 0,-5 0,4.20313"/>
<path class="Note" transform="matrix(0.992001,0,0,0.992001,1481.28,1427.8)" d="M0,4.20313 C0,8.5 3.09375,13.2969 11.2031,13.2969 C21.5938,13.2969 32.5,4.79688 32.5,-4 C32.5,-9.90625 27.5,-13.2031 21.2969,-13.2031 C11.5938,-13.2031 0,-5 0,4.20313"/>
<path class="Note" transform="matrix(0.992001,0,0,0.992001,754.621,720.998)" d="M0,4.20313 C0,8.5 3.09375,13.2969 11.2031,13.2969 C21.5938,13.2969 32.5,4.79688 32.5,-4 C32.5,-9.90625 27.5,-13.2031 21.2969,-13.2031 C11.5938,-13.2031 0,-5 0,4.20313"/>
<path class="Note" transform="matrix(0.992001,0,0,0.992001,1843.67,1390.6)" d="M0,4.20313 C0,8.5 3.09375,13.2969 11.2031,13.2969 C21.5938,13.2969 32.5,4.79688 32.5,-4 C32.5,-9.90625 27.5,-13.2031 21.2969,-13.2031 C11.5938,-13.2031 0,-5 0,4.20313"/>
<path class="Note" transform="matrix(0.992001,0,0,0.992001,1680.21,1415.4)" d="M0,4.20313 C0,8.5 3.09375,13.2969 11.2031,13.2969 C21.5938,13.2969 32.5,4.79688 32.5,-4 C32.5,-9.90625 27.5,-13.2031 21.2969,-13.2031 C11.5938,-13.2031 0,-5 0,4.20313"/>
<path class="Note" transform="matrix(0.992001,0,0,0.992001,2312.75,720.998)" d="M0,4.20313 C0,8.5 3.09375,13.2969 11.2031,13.2969 C21.5938,13.2969 32.5,4.79688 32.5,-4 C32.5,-9.90625 27.5,-13.2031 21.2969,-13.2031 C11.5938,-13.2031 0,-5 0,4.20313"/>
<path class="Note" transform="matrix(0.992001,0,0,0.992001,1570.75,745.799)" d="M0,4.20313 C0,8.5 3.09375,13.2969 11.2031,13.2969 C21.5938,13.2969 32.5,4.79688 32.5,-4 C32.5,-9.90625 27.5,-13.2031 21.2969,-13.2031 C11.5938,-13.2031 0,-5 0,4.20313"/>
<path class="Note" transform="matrix(0.992001,0,0,0.992001,1755.34,733.398)" d="M0,4.20313 C0,8.5 3.09375,13.2969 11.2031,13.2969 C21.5938,13.2969 32.5,4.79688 32.5,-4 C32.5,-9.90625 27.5,-13.2031 21.2969,-13.2031 C11.5938,-13.2031 0,-5 0,4.20313"/>
<path class="Note" transform="matrix(0.992001,0,0,0.992001,1979.03,745.799)" d="M0,4.20313 C0,8.5 3.09375,13.2969 11.2031,13.2969 C21.5938,13.2969 32.5,4.79688 32.5,-4 C32.5,-9.90625 27.5,-13.2031 21.2969,-13.2031 C11.5938,-13.2031 0,-5 0,4.20313"/>
<path class="Note" transform="matrix(0.992001,0,0,0.992001,2128.16,733.398)" d="M0,4.20313 C0,8.5 3.09375,13.2969 11.2031,13.2969 C21.5938,13.2969 32.5,4.79688 32.5,-4 C32.5,-9.90625 27.5,-13.2031 21.2969,-13.2031 C11.5938,-13.2031 0,-5 0,4.20313"/>
<path class="Note" transform="matrix(0.992001,0,0,0.992001,1287.18,745.799)" d="M0,4.20313 C0,8.5 3.09375,13.2969 11.2031,13.2969 C21.5938,13.2969 32.5,4.79688 32.5,-4 C32.5,-9.90625 27.5,-13.2031 21.2969,-13.2031 C11.5938,-13.2031 0,-5 0,4.20313"/>
<path class="Note" transform="matrix(0.992001,0,0,0.992001,2536.45,745.799)" d="M0,4.20313 C0,8.5 3.09375,13.2969 11.2031,13.2969 C21.5938,13.2969 32.5,4.79688 32.5,-4 C32.5,-9.90625 27.5,-13.2031 21.2969,-13.2031 C11.5938,-13.2031 0,-5 0,4.20313"/>
<path class="Note" transform="matrix(0.992001,0,0,0.992001,1102.59,733.398)" d="M0,4.20313 C0,8.5 3.09375,13.2969 11.2031,13.2969 C21.5938,13.2969 32.5,4.79688 32.5,-4 C32.5,-9.90625 27.5,-13.2031 21.2969,-13.2031 C11.5938,-13.2031 0,-5 0,4.20313"/>
<path class="Note" transform="matrix(0.992001,0,0,0.992001,426.638,1403)" d="M0,4.20313 C0,8.5 3.09375,13.2969 11.2031,13.2969 C21.5938,13.2969 32.5,4.79688 32.5,-4 C32.5,-9.90625 27.5,-13.2031 21.2969,-13.2031 C11.5938,-13.2031 0,-5 0,4.20313"/>
<path class="Note" transform="matrix(0.992001,0,0,0.992001,590.103,1403)" d="M0,4.20313 C0,8.5 3.09375,13.2969 11.2031,13.2969 C21.5938,13.2969 32.5,4.79688 32.5,-4 C32.5,-9.90625 27.5,-13.2031 21.2969,-13.2031 C11.5938,-13.2031 0,-5 0,4.20313"/>
<path class="Note" transform="matrix(0.992001,0,0,0.992001,699.079,1403)" d="M0,4.20313 C0,8.5 3.09375,13.2969 11.2031,13.2969 C21.5938,13.2969 32.5,4.79688 32.5,-4 C32.5,-9.90625 27.5,-13.2031 21.2969,-13.2031 C11.5938,-13.2031 0,-5 0,4.20313"/>
<path class="Clef" transform="matrix(0.992001,0,0,0.992001,355.199,708.598)" d="M36.2031,21.2031 C21.9063,21.2031 9.70313,11.2031 9.70313,-3.90625 C9.70313,-16.0938 18.2969,-27 27.1094,-34.7031 C28.7969,-36.1094 30.4063,-37.5 31.9063,-39 C32.7969,-33.6094 33.5,-29 34.2031,-24.7969 C25.0938,-22.2031 18.9063,-12.5 18.9063,-3.20313 C18.9063,3.90625 24.4063,13.5 32.4063,13.5 C33.2031,13.5 34.1094,13.0938 34.1094,12.0938 C34.1094,11.2969 33.2031,10.7031 31.9063,9.90625 C28,7.59375 25.7969,4.90625 25.7969,0.09375 C25.7969,-6 30.4063,-10.9063 36.2031,-12.2969 L42,20.5 C40,20.9063 38.2031,21.2031 36.2031,21.2031 M33.2031,-82.2031 C34.2031,-86.2031 38.7031,-96.7031 43.9063,-96.7031 C45.4063,-96.7031 47.9063,-91.9063 47.9063,-84.9063 C47.9063,-74.6094 40.1094,-66.7969 33.2031,-59.9063 C32.6094,-63.9063 32.1094,-67.9063 32.1094,-72 C32.1094,-75.7969 32.5,-79.1094 33.2031,-82.2031 M46.2031,19.2969 C44.1094,7.40625 41.4063,-8.5 40.7031,-12.9063 C50.7969,-12.9063 55.1094,-5.90625 56,-1.09375 C56.1094,-0.296875 56.2969,0.796875 56.2969,2 C56.2969,9.20313 53.2969,16.4063 46.2031,19.2969 M32.2969,87.7031 C30.1094,87.7031 28.6094,86.3125 28.6094,84.2031 C28.6094,82.2031 29.5,80.6094 31.2031,79.6094 C31.6094,79.8125 31.7031,79.8125 32,80 C33.2031,80.6094 33.2031,80.6094 33.4063,80.8125 C35.2969,81.9063 36.1094,82.9063 36.1094,84.3125 C36.1094,86.2031 34.5,87.7031 32.2969,87.7031 M36.1094,75.7031 C34.6094,74.9063 34.2031,74.7031 33.9063,74.5 L33.7031,74.4063 C32.2031,73.5 31.7031,72.7969 31.7031,71.6094 C31.7031,69.7969 33.1094,68.5 35.1094,68.5 C37,68.5 38.2031,69.7031 38.2031,71.7969 C38.2031,73.4063 37.6094,74.5 36.1094,75.7031 M64,-0.203125 C64,-15.2969 53.2969,-25.5 38.7031,-25.5 C37.7031,-31.5 36.7969,-37.4063 35.9063,-43 C46.4063,-54.1094 53.7969,-66.7031 53.7969,-82.5 C53.7969,-91.6094 51,-99 49.2969,-102.609 C46.9063,-107.703 44,-111.203 42.2969,-111.203 C41.6094,-111.203 38.4063,-110 35.2031,-106.109 C28.7031,-98.5 26.9063,-85.8125 26.9063,-77.4063 C26.9063,-72 27.4063,-67.1094 29.1094,-55.7969 C29,-55.7969 23.7969,-50.5 21.7031,-48.7031 C12.5938,-40.2969 0,-28.1094 0,-8.20313 C0,10.5938 16.2969,25.2969 34.9063,25.2969 C37.7969,25.2969 40.5,25 42.9063,24.5938 C44.7031,34.1094 45.9063,41.2031 45.9063,46.5 C45.9063,56.9063 40.5,62.4063 30.4063,62.4063 C28,62.4063 25.9063,61.9063 25.7031,61.7969 C25.6094,61.7969 25.4063,61.7031 25.4063,61.6094 C25.4063,61.4063 25.6094,61.2969 25.9063,61.2031 C30.6094,60.5 35.2969,56.4063 35.2969,50.1094 C35.2969,44.7031 31.2031,39 23.7031,39 C16.7031,39 12.2969,44.7031 12.2969,51.2969 C12.2969,57.9063 17.2969,66.6094 30.7969,66.6094 C43.7031,66.6094 50,59.2969 50,46.5 C50,42.6094 49.4063,38.1094 48.4063,32.4063 C48.1094,30.4063 47.6094,27.2969 46.9063,23.5 C56.7031,20.2031 64,10.0938 64,-0.203125 M42.2969,71.7031 C42.2969,68 38.9063,66.4063 35.6094,66.4063 C31.4063,66.4063 27.2969,69 27.2969,73.5 C27.2969,75.4063 28,76.8125 29.4063,78.2031 C26.7969,79.2031 24.2031,81.2031 24.2031,84.3125 C24.2031,87.6094 27.2031,89.8125 31.6094,89.8125 C37,89.8125 40.7969,86.8125 40.7969,82.5 C40.7969,80.2031 39.7969,78.3125 38,77 C40.9063,75.7031 42.2969,74.1094 42.2969,71.7031"/>
<path class="Clef" transform="matrix(0.992001,0,0,0.992001,231.198,1390.6)" d="M36.2031,21.2031 C21.9063,21.2031 9.70313,11.2031 9.70313,-3.90625 C9.70313,-16.0938 18.2969,-27 27.1094,-34.7031 C28.7969,-36.1094 30.4063,-37.5 31.9063,-39 C32.7969,-33.6094 33.5,-29 34.2031,-24.7969 C25.0938,-22.2031 18.9063,-12.5 18.9063,-3.20313 C18.9063,3.90625 24.4063,13.5 32.4063,13.5 C33.2031,13.5 34.1094,13.0938 34.1094,12.0938 C34.1094,11.2969 33.2031,10.7031 31.9063,9.90625 C28,7.59375 25.7969,4.90625 25.7969,0.09375 C25.7969,-6 30.4063,-10.9063 36.2031,-12.2969 L42,20.5 C40,20.9063 38.2031,21.2031 36.2031,21.2031 M33.2031,-82.2031 C34.2031,-86.2031 38.7031,-96.7031 43.9063,-96.7031 C45.4063,-96.7031 47.9063,-91.9063 47.9063,-84.9063 C47.9063,-74.6094 40.1094,-66.7969 33.2031,-59.9063 C32.6094,-63.9063 32.1094,-67.9063 32.1094,-72 C32.1094,-75.7969 32.5,-79.1094 33.2031,-82.2031 M46.2031,19.2969 C44.1094,7.40625 41.4063,-8.5 40.7031,-12.9063 C50.7969,-12.9063 55.1094,-5.90625 56,-1.09375 C56.1094,-0.296875 56.2969,0.796875 56.2969,2 C56.2969,9.20313 53.2969,16.4063 46.2031,19.2969 M32.2969,87.7031 C30.1094,87.7031 28.6094,86.3125 28.6094,84.2031 C28.6094,82.2031 29.5,80.6094 31.2031,79.6094 C31.6094,79.8125 31.7031,79.8125 32,80 C33.2031,80.6094 33.2031,80.6094 33.4063,80.8125 C35.2969,81.9063 36.1094,82.9063 36.1094,84.3125 C36.1094,86.2031 34.5,87.7031 32.2969,87.7031 M36.1094,75.7031 C34.6094,74.9063 34.2031,74.7031 33.9063,74.5 L33.7031,74.4063 C32.2031,73.5 31.7031,72.7969 31.7031,71.6094 C31.7031,69.7969 33.1094,68.5 35.1094,68.5 C37,68.5 38.2031,69.7031 38.2031,71.7969 C38.2031,73.4063 37.6094,74.5 36.1094,75.7031 M64,-0.203125 C64,-15.2969 53.2969,-25.5 38.7031,-25.5 C37.7031,-31.5 36.7969,-37.4063 35.9063,-43 C46.4063,-54.1094 53.7969,-66.7031 53.7969,-82.5 C53.7969,-91.6094 51,-99 49.2969,-102.609 C46.9063,-107.703 44,-111.203 42.2969,-111.203 C41.6094,-111.203 38.4063,-110 35.2031,-106.109 C28.7031,-98.5 26.9063,-85.8125 26.9063,-77.4063 C26.9063,-72 27.4063,-67.1094 29.1094,-55.7969 C29,-55.7969 23.7969,-50.5 21.7031,-48.7031 C12.5938,-40.2969 0,-28.1094 0,-8.20313 C0,10.5938 16.2969,25.2969 34.9063,25.2969 C37.7969,25.2969 40.5,25 42.9063,24.5938 C44.7031,34.1094 45.9063,41.2031 45.9063,46.5 C45.9063,56.9063 40.5,62.4063 30.4063,62.4063 C28,62.4063 25.9063,61.9063 25.7031,61.7969 C25.6094,61.7969 25.4063,61.7031 25.4063,61.6094 C25.4063,61.4063 25.6094,61.2969 25.9063,61.2031 C30.6094,60.5 35.2969,56.4063 35.2969,50.1094 C35.2969,44.7031 31.2031,39 23.7031,39 C16.7031,39 12.2969,44.7031 12.2969,51.2969 C12.2969,57.9063 17.2969,66.6094 30.7969,66.6094 C43.7031,66.6094 50,59.2969 50,46.5 C50,42.6094 49.4063,38.1094 48.4063,32.4063 C48.1094,30.4063 47.6094,27.2969 46.9063,23.5 C56.7031,20.2031 64,10.0938 64,-0.203125 M42.2969,71.7031 C42.2969,68 38.9063,66.4063 35.6094,66.4063 C31.4063,66.4063 27.2969,69 27.2969,73.5 C27.2969,75.4063 28,76.8125 29.4063,78.2031 C26.7969,79.2031 24.2031,81.2031 24.2031,84.3125 C24.2031,87.6094 27.2031,89.8125 31.6094,89.8125 C37,89.8125 40.7969,86.8125 40.7969,82.5 C40.7969,80.2031 39.7969,78.3125 38,77 C40.9063,75.7031 42.2969,74.1094 42.2969,71.7031"/>
<path class="KeySig" transform="matrix(0.992001,0,0,0.992001,437.271,634.198)" d="M7.79688,-7.40625 L16.7031,-9.20313 L16.7031,7.29688 L7.79688,9.20313 L7.79688,-7.40625 M23.2969,-10.5 C23.9063,-10.5938 24.4063,-11.2969 24.4063,-11.9063 L24.4063,-17.7969 C24.4063,-18.5938 23.7969,-19.2031 23,-19.2031 L22.7969,-19.2031 L19.5,-18.5 L19.5,-33.4063 L16.7031,-33.4063 L16.7031,-17.9063 L7.79688,-16.0938 L7.79688,-30.2031 L5,-30.2031 L5,-15.5 L1.09375,-14.7031 C0.5,-14.5938 0,-13.9063 0,-13.2969 L0,-7.5 C0,-6.70313 0.59375,-6.09375 1.40625,-6.09375 L1.70313,-6.09375 L5,-6.79688 L5,9.70313 L1.09375,10.5 C0.5,10.5938 0,11.2969 0,11.9063 L0,17.7031 C0,18.5 0.59375,19.0938 1.40625,19.0938 L1.70313,19.0938 L5,18.4063 L5,33.2969 L7.79688,33.2969 L7.79688,17.7969 L16.7031,16 L16.7031,30.1094 L19.5,30.1094 L19.5,15.4063 L23.2969,14.7031 C23.9063,14.5938 24.4063,13.9063 24.4063,13.2969 L24.4063,7.40625 C24.4063,6.59375 23.7969,6 23,6 L22.7969,6 L19.5,6.70313 L19.5,-9.79688 L23.2969,-10.5 "/>
<path class="KeySig" transform="matrix(0.992001,0,0,0.992001,464.443,671.398)" d="M7.79688,-7.40625 L16.7031,-9.20313 L16.7031,7.29688 L7.79688,9.20313 L7.79688,-7.40625 M23.2969,-10.5 C23.9063,-10.5938 24.4063,-11.2969 24.4063,-11.9063 L24.4063,-17.7969 C24.4063,-18.5938 23.7969,-19.2031 23,-19.2031 L22.7969,-19.2031 L19.5,-18.5 L19.5,-33.4063 L16.7031,-33.4063 L16.7031,-17.9063 L7.79688,-16.0938 L7.79688,-30.2031 L5,-30.2031 L5,-15.5 L1.09375,-14.7031 C0.5,-14.5938 0,-13.9063 0,-13.2969 L0,-7.5 C0,-6.70313 0.59375,-6.09375 1.40625,-6.09375 L1.70313,-6.09375 L5,-6.79688 L5,9.70313 L1.09375,10.5 C0.5,10.5938 0,11.2969 0,11.9063 L0,17.7031 C0,18.5 0.59375,19.0938 1.40625,19.0938 L1.70313,19.0938 L5,18.4063 L5,33.2969 L7.79688,33.2969 L7.79688,17.7969 L16.7031,16 L16.7031,30.1094 L19.5,30.1094 L19.5,15.4063 L23.2969,14.7031 C23.9063,14.5938 24.4063,13.9063 24.4063,13.2969 L24.4063,7.40625 C24.4063,6.59375 23.7969,6 23,6 L22.7969,6 L19.5,6.70313 L19.5,-9.79688 L23.2969,-10.5 "/>
<path class="KeySig" transform="matrix(0.992001,0,0,0.992001,313.271,1316.2)" d="M7.79688,-7.40625 L16.7031,-9.20313 L16.7031,7.29688 L7.79688,9.20313 L7.79688,-7.40625 M23.2969,-10.5 C23.9063,-10.5938 24.4063,-11.2969 24.4063,-11.9063 L24.4063,-17.7969 C24.4063,-18.5938 23.7969,-19.2031 23,-19.2031 L22.7969,-19.2031 L19.5,-18.5 L19.5,-33.4063 L16.7031,-33.4063 L16.7031,-17.9063 L7.79688,-16.0938 L7.79688,-30.2031 L5,-30.2031 L5,-15.5 L1.09375,-14.7031 C0.5,-14.5938 0,-13.9063 0,-13.2969 L0,-7.5 C0,-6.70313 0.59375,-6.09375 1.40625,-6.09375 L1.70313,-6.09375 L5,-6.79688 L5,9.70313 L1.09375,10.5 C0.5,10.5938 0,11.2969 0,11.9063 L0,17.7031 C0,18.5 0.59375,19.0938 1.40625,19.0938 L1.70313,19.0938 L5,18.4063 L5,33.2969 L7.79688,33.2969 L7.79688,17.7969 L16.7031,16 L16.7031,30.1094 L19.5,30.1094 L19.5,15.4063 L23.2969,14.7031 C23.9063,14.5938 24.4063,13.9063 24.4063,13.2969 L24.4063,7.40625 C24.4063,6.59375 23.7969,6 23,6 L22.7969,6 L19.5,6.70313 L19.5,-9.79688 L23.2969,-10.5 "/>
<path class="KeySig" transform="matrix(0.992001,0,0,0.992001,340.443,1353.4)" d="M7.79688,-7.40625 L16.7031,-9.20313 L16.7031,7.29688 L7.79688,9.20313 L7.79688,-7.40625 M23.2969,-10.5 C23.9063,-10.5938 24.4063,-11.2969 24.4063,-11.9063 L24.4063,-17.7969 C24.4063,-18.5938 23.7969,-19.2031 23,-19.2031 L22.7969,-19.2031 L19.5,-18.5 L19.5,-33.4063 L16.7031,-33.4063 L16.7031,-17.9063 L7.79688,-16.0938 L7.79688,-30.2031 L5,-30.2031 L5,-15.5 L1.09375,-14.7031 C0.5,-14.5938 0,-13.9063 0,-13.2969 L0,-7.5 C0,-6.70313 0.59375,-6.09375 1.40625,-6.09375 L1.70313,-6.09375 L5,-6.79688 L5,9.70313 L1.09375,10.5 C0.5,10.5938 0,11.2969 0,11.9063 L0,17.7031 C0,18.5 0.59375,19.0938 1.40625,19.0938 L1.70313,19.0938 L5,18.4063 L5,33.2969 L7.79688,33.2969 L7.79688,17.7969 L16.7031,16 L16.7031,30.1094 L19.5,30.1094 L19.5,15.4063 L23.2969,14.7031 C23.9063,14.5938 24.4063,13.9063 24.4063,13.2969 L24.4063,7.40625 C24.4063,6.59375 23.7969,6 23,6 L22.7969,6 L19.5,6.70313 L19.5,-9.79688 L23.2969,-10.5 "/>
<path class="TimeSig" transform="matrix(0.992001,0,0,0.992001,515.329,659.494)" d="M34.2031,3.90625 C33.4063,6.09375 31.4063,13.2969 26.5,13.2969 C20,13.2969 18.5938,9.29688 13.2031,9.29688 C12.4063,9.29688 11.5938,9.40625 10.5938,9.59375 C10.5938,9.59375 13.0938,5.79688 23.7031,2.5 C34.2969,-0.796875 37,-6 37,-12 C37,-16.2031 35.1094,-24.5 20,-24.5 C4.90625,-24.5 2.09375,-15.4063 2.09375,-10.7969 C2.09375,-6.70313 5.5,-3.40625 9.59375,-3.40625 C13.7031,-3.40625 17,-6.70313 17,-10.7969 C17,-13.5938 15,-16.7031 12.4063,-17.7031 C12.0938,-17.7969 11.7031,-18.2969 11.7031,-18.7969 C11.7031,-19.4063 12.2031,-20.0938 14,-20.5938 C14.5,-20.7969 15.9063,-21.0938 17.4063,-21.0938 C23.0938,-21.0938 24.2031,-17.5938 24.2031,-12.5 C24.2031,-0.796875 10.2969,1.70313 4.5,10.4063 C4.5,10.4063 1.5,14.5938 1.5,19.2969 C1.5,24 3.90625,24.2969 5.09375,24.2969 C6.70313,24.2969 8.40625,23 8.40625,21.2031 C8.40625,20.7969 8.29688,20.4063 8.09375,19.9063 C7.5,18.5 7.29688,17.4063 7.29688,16.5938 C7.29688,16.2969 7.29688,16 7.40625,15.7031 C7.5,15.0938 8.29688,14.0938 10.7031,14.0938 C13.5938,14.0938 14.7031,17.5 16.5,20.0938 C18.2969,22.7031 21.0938,24.2969 24.2969,24.2969 C27.5,24.2969 31.7969,22 33.6094,18.2969 C35.4063,14.5938 37.7031,7.09375 37.7031,4.40625 C37.7031,3.09375 36.9063,2.5 36,2.5 C35.2969,2.5 34.6094,2.90625 34.2031,3.90625"/>
<path class="TimeSig" transform="matrix(0.992001,0,0,0.992001,512.059,708.598)" d="M20.7969,12.7031 L20.7969,20.0938 L12.5,20.0938 C11.7969,20.0938 11.0938,20.7031 11.0938,21.5 L11.0938,23.4063 C11.0938,24.2031 11.7969,24.7969 12.5,24.7969 L42.7969,24.7969 C43.6094,24.7969 44.2031,24.2031 44.2031,23.4063 L44.2031,21.5 C44.2031,20.7031 43.6094,20.0938 42.7969,20.0938 L33.7969,20.0938 L33.7969,12.7031 L42.7969,12.7031 C43.6094,12.7031 44.2031,12 44.2031,11.2031 L44.2031,9.29688 C44.2031,8.59375 43.6094,7.90625 42.7969,7.90625 L33.7969,7.90625 L33.7969,-8 C33.7969,-8.59375 33.5,-9.09375 33.1094,-9.29688 L31.9063,-9.90625 C31.7031,-10 31.6094,-10 31.4063,-10 C31,-10 30.6094,-10 30.2969,-9.70313 L21.2031,-1.40625 C20.9063,-1.09375 20.7969,-0.703125 20.7969,-0.296875 L20.7969,7.90625 L9.20313,7.90625 C9.20313,7.90625 20.4063,-4.09375 32.2031,-19.9063 C32.6094,-20.4063 32.7031,-20.9063 32.7031,-21.2969 C32.7031,-21.7969 32.5,-22.2031 32.4063,-22.2969 L30.2031,-24.5 C29.9063,-24.7031 29.6094,-24.9063 29.2031,-24.9063 C28.6094,-24.9063 15.0938,-24.9063 14.2969,-24.9063 C13.5938,-24.9063 13.0938,-24.2969 13,-23.7031 C13,-23.7031 12.5,-16.2969 9.90625,-8.20313 C7.29688,-0.09375 4.29688,4.90625 1.70313,8.59375 C1.70313,8.59375 1.40625,9.09375 1.40625,9.70313 C1.40625,9.90625 1.40625,10.0938 1.5,10.2969 C1.79688,11 2.5,12.0938 2.5,12.0938 C2.5,12.0938 2.70313,12.7031 3.59375,12.7031 L20.7969,12.7031 "/>
<path class="Beam" fill-rule="evenodd" d="M1709.97,1316.19 L1875.91,1309.99 L1875.91,1322.4 L1709.97,1328.6 L1709.97,1316.19 "/>
<path class="Beam" fill-rule="evenodd" d="M2036.89,1328.59 L2202.84,1334.79 L2202.84,1347.2 L2036.89,1341 L2036.89,1328.59 "/>
<path class="Beam" fill-rule="evenodd" d="M983.219,646.593 L1134.83,652.793 L1134.83,665.204 L983.219,659.004 L983.219,646.593 "/>
<path class="Beam" fill-rule="evenodd" d="M837.815,1328.59 L1003.76,1334.79 L1003.76,1347.2 L837.815,1341 L837.815,1328.59 "/>
<path class="Beam" fill-rule="evenodd" d="M2008.79,658.993 L2160.4,652.793 L2160.4,665.204 L2008.79,671.404 L2008.79,658.993 "/>
<path class="Beam" fill-rule="evenodd" d="M635.253,634.198 L886.28,634.198 L886.28,646.598 L635.253,646.598 L635.253,634.198 "/>
<path class="Beam" fill-rule="evenodd" d="M784.381,652.798 L886.28,652.798 L886.28,665.198 L784.381,665.198 L784.381,652.798 "/>
<path class="Beam" fill-rule="evenodd" d="M456.398,1316.2 L731.319,1316.2 L731.319,1328.6 L456.398,1328.6 L456.398,1316.2 "/>
<path class="Beam" fill-rule="evenodd" d="M619.863,1334.8 L731.319,1334.8 L731.319,1347.2 L619.863,1347.2 L619.863,1334.8 "/>
<path class="Fingering" d="M1273.89,736.602 C1268.3,736.602 1264.22,742.68 1264.22,751.087 C1264.22,759.321 1268.17,765.352 1273.56,765.352 C1279.17,765.352 1283.09,759.524 1283.09,751.196 C1283.09,746.962 1282.2,743.446 1280.53,740.68 C1278.97,738.165 1276.41,736.602 1273.89,736.602 M1273.61,738.321 C1274.92,738.321 1276.2,739.196 1277.17,740.805 C1278.25,742.68 1278.61,744.962 1278.61,750.446 C1278.61,756.087 1278.33,758.727 1277.53,760.477 C1276.61,762.446 1275.17,763.634 1273.66,763.634 C1272.3,763.634 1271.05,762.759 1270.09,761.165 C1268.97,759.274 1268.66,756.805 1268.66,750.243 C1268.66,745.555 1268.94,743.243 1269.73,741.477 C1270.66,739.477 1272.09,738.321 1273.61,738.321"/>
<path class="Fingering" d="M1830.38,1374.83 C1824.79,1374.83 1820.71,1380.91 1820.71,1389.31 C1820.71,1397.55 1824.66,1403.58 1830.05,1403.58 C1835.66,1403.58 1839.58,1397.75 1839.58,1389.42 C1839.58,1385.19 1838.69,1381.67 1837.02,1378.91 C1835.46,1376.39 1832.9,1374.83 1830.38,1374.83 M1830.1,1376.55 C1831.41,1376.55 1832.69,1377.42 1833.66,1379.03 C1834.74,1380.91 1835.1,1383.19 1835.1,1388.67 C1835.1,1394.31 1834.82,1396.95 1834.02,1398.7 C1833.1,1400.67 1831.66,1401.86 1830.15,1401.86 C1828.79,1401.86 1827.54,1400.99 1826.58,1399.39 C1825.46,1397.5 1825.15,1395.03 1825.15,1388.47 C1825.15,1383.78 1825.43,1381.47 1826.23,1379.7 C1827.15,1377.7 1828.58,1376.55 1830.1,1376.55"/>
<path class="Fingering" d="M2146.29,595.772 C2145.09,595.772 2144.13,596.741 2144.13,597.944 C2144.13,599.1 2145.09,600.1 2146.26,600.1 C2147.49,600.1 2148.45,599.131 2148.45,597.944 C2148.45,596.741 2147.49,595.772 2146.29,595.772 M2147.01,605.537 L2139.34,606.131 L2139.18,607.584 L2140.13,607.584 C2141.77,607.584 2142.41,607.944 2142.41,608.819 C2142.41,609.209 2142.34,609.662 2142.05,610.584 L2139.73,618.381 C2138.98,620.928 2138.85,621.491 2138.85,622.412 C2138.85,623.819 2140.05,624.897 2141.57,624.897 C2145.01,624.897 2147.37,621.334 2149.05,618.741 L2147.8,618.053 C2145.73,621.209 2144.05,622.897 2142.98,622.897 C2142.57,622.897 2142.29,622.537 2142.29,622.053 C2142.29,621.662 2142.45,620.928 2142.77,619.819 L2147.01,605.537 "/>
<path class="Fingering" d="M1861.8,1268.08 C1860.59,1268.08 1859.64,1269.05 1859.64,1270.25 C1859.64,1271.41 1860.59,1272.41 1861.77,1272.41 C1863,1272.41 1863.95,1271.44 1863.95,1270.25 C1863.95,1269.05 1863,1268.08 1861.8,1268.08 M1862.52,1277.85 L1854.84,1278.44 L1854.69,1279.9 L1855.64,1279.9 C1857.28,1279.9 1857.92,1280.25 1857.92,1281.13 C1857.92,1281.52 1857.84,1281.97 1857.56,1282.9 L1855.24,1290.69 C1854.49,1293.24 1854.36,1293.8 1854.36,1294.72 C1854.36,1296.13 1855.56,1297.21 1857.08,1297.21 C1860.52,1297.21 1862.88,1293.65 1864.56,1291.05 L1863.31,1290.36 C1861.24,1293.52 1859.56,1295.21 1858.49,1295.21 C1858.08,1295.21 1857.8,1294.85 1857.8,1294.36 C1857.8,1293.97 1857.95,1293.24 1858.28,1292.13 L1862.52,1277.85 "/>
<path class="Fingering" d="M2015.45,1290.04 L2008.17,1290.63 L2008.04,1292.09 L2009.01,1292.09 C2010.61,1292.09 2011.25,1292.44 2011.25,1293.35 C2011.25,1293.71 2011.12,1294.32 2010.92,1295.09 L2006.84,1308.84 L2010.32,1308.84 L2011.97,1303.19 C2013.76,1297.07 2017.4,1292.44 2020.4,1292.44 C2021.45,1292.44 2022.09,1292.99 2022.09,1293.99 C2022.09,1294.8 2021.76,1296.48 2021.28,1297.99 L2018.09,1308.84 L2021.56,1308.84 L2023.28,1303.04 C2024.28,1299.71 2025.28,1297.48 2026.56,1295.76 C2028,1293.76 2030.04,1292.44 2031.56,1292.44 C2032.56,1292.44 2033.12,1292.96 2033.12,1293.91 C2033.12,1294.48 2032.92,1295.35 2032.56,1296.48 L2030.72,1302.16 C2029.64,1305.27 2029.61,1305.52 2029.61,1306.63 C2029.61,1308.32 2030.84,1309.43 2032.72,1309.43 C2034.04,1309.43 2035.32,1308.79 2036.68,1307.52 C2037.53,1306.71 2038.07,1305.99 2039.72,1303.6 L2038.48,1302.76 C2036.4,1305.88 2034.92,1307.4 2033.89,1307.4 C2033.45,1307.4 2033.04,1306.96 2033.04,1306.4 C2033.04,1306.04 2033.17,1305.6 2033.53,1304.43 L2036.04,1296.68 C2036.32,1295.8 2036.53,1294.55 2036.53,1293.68 C2036.53,1291.55 2034.97,1290.04 2032.81,1290.04 C2029.97,1290.04 2027.4,1291.88 2025.09,1295.68 C2025.25,1294.91 2025.32,1294.24 2025.32,1293.76 C2025.32,1291.63 2023.64,1290.04 2021.45,1290.04 C2018.92,1290.04 2017.09,1291.44 2014.28,1295.44 L2015.45,1290.04 "/>
<path class="Fingering" d="M717.207,1274.24 C716.004,1274.24 715.051,1275.21 715.051,1276.41 C715.051,1277.56 716.004,1278.56 717.176,1278.56 C718.41,1278.56 719.363,1277.6 719.363,1276.41 C719.363,1275.21 718.41,1274.24 717.207,1274.24 M717.926,1284 L710.254,1284.6 L710.097,1286.05 L711.051,1286.05 C712.691,1286.05 713.332,1286.41 713.332,1287.28 C713.332,1287.67 713.254,1288.13 712.972,1289.05 L710.644,1296.85 C709.894,1299.39 709.769,1299.96 709.769,1300.88 C709.769,1302.28 710.972,1303.36 712.488,1303.36 C715.926,1303.36 718.285,1299.8 719.972,1297.21 L718.722,1296.52 C716.644,1299.67 714.972,1301.36 713.894,1301.36 C713.488,1301.36 713.207,1301 713.207,1300.52 C713.207,1300.13 713.363,1299.39 713.691,1298.28 L717.926,1284 "/>
<path class="Fingering" d="M613.808,602.001 L606.527,602.595 L606.402,604.048 L607.371,604.048 C608.965,604.048 609.605,604.408 609.605,605.314 C609.605,605.673 609.48,606.283 609.277,607.048 L605.199,620.798 L608.683,620.798 L610.324,615.158 C612.121,609.033 615.761,604.408 618.761,604.408 C619.808,604.408 620.449,604.955 620.449,605.955 C620.449,606.767 620.121,608.439 619.636,609.955 L616.449,620.798 L619.918,620.798 L621.636,615.001 C622.636,611.673 623.636,609.439 624.918,607.72 C626.355,605.72 628.402,604.408 629.918,604.408 C630.918,604.408 631.48,604.923 631.48,605.876 C631.48,606.439 631.277,607.314 630.918,608.439 L629.074,614.126 C627.996,617.236 627.965,617.486 627.965,618.595 C627.965,620.283 629.199,621.392 631.074,621.392 C632.402,621.392 633.683,620.751 635.043,619.486 C635.886,618.673 636.433,617.955 638.074,615.564 L636.84,614.72 C634.761,617.845 633.277,619.361 632.246,619.361 C631.808,619.361 631.402,618.923 631.402,618.361 C631.402,618.001 631.527,617.564 631.886,616.392 L634.402,608.642 C634.683,607.767 634.886,606.517 634.886,605.642 C634.886,603.517 633.324,602.001 631.168,602.001 C628.324,602.001 625.761,603.845 623.449,607.642 C623.605,606.876 623.683,606.205 623.683,605.72 C623.683,603.595 621.996,602.001 619.808,602.001 C617.277,602.001 615.449,603.408 612.636,607.408 L613.808,602.001 "/>
<path class="Fingering" d="M1295.49,602.001 L1288.21,602.595 L1288.09,604.048 L1289.06,604.048 C1290.65,604.048 1291.29,604.408 1291.29,605.314 C1291.29,605.673 1291.17,606.283 1290.96,607.048 L1286.89,620.798 L1290.37,620.798 L1292.01,615.158 C1293.81,609.033 1297.45,604.408 1300.45,604.408 C1301.49,604.408 1302.14,604.955 1302.14,605.955 C1302.14,606.767 1301.81,608.439 1301.32,609.955 L1298.14,620.798 L1301.6,620.798 L1303.32,615.001 C1304.32,611.673 1305.32,609.439 1306.6,607.72 C1308.04,605.72 1310.09,604.408 1311.6,604.408 C1312.6,604.408 1313.17,604.923 1313.17,605.876 C1313.17,606.439 1312.96,607.314 1312.6,608.439 L1310.76,614.126 C1309.68,617.236 1309.65,617.486 1309.65,618.595 C1309.65,620.283 1310.89,621.392 1312.76,621.392 C1314.09,621.392 1315.37,620.751 1316.73,619.486 C1317.57,618.673 1318.12,617.955 1319.76,615.564 L1318.53,614.72 C1316.45,617.845 1314.96,619.361 1313.93,619.361 C1313.49,619.361 1313.09,618.923 1313.09,618.361 C1313.09,618.001 1313.21,617.564 1313.57,616.392 L1316.09,608.642 C1316.37,607.767 1316.57,606.517 1316.57,605.642 C1316.57,603.517 1315.01,602.001 1312.85,602.001 C1310.01,602.001 1307.45,603.845 1305.14,607.642 C1305.29,606.876 1305.37,606.205 1305.37,605.72 C1305.37,603.595 1303.68,602.001 1301.49,602.001 C1298.96,602.001 1297.14,603.408 1294.32,607.408 L1295.49,602.001 "/>
<path class="Fingering" d="M2188.73,1277.77 C2187.52,1277.77 2186.57,1278.74 2186.57,1279.94 C2186.57,1281.1 2187.52,1282.1 2188.7,1282.1 C2189.93,1282.1 2190.88,1281.13 2190.88,1279.94 C2190.88,1278.74 2189.93,1277.77 2188.73,1277.77 M2189.45,1287.54 L2181.77,1288.13 L2181.62,1289.59 L2182.57,1289.59 C2184.21,1289.59 2184.85,1289.94 2184.85,1290.82 C2184.85,1291.21 2184.77,1291.66 2184.49,1292.59 L2182.16,1300.38 C2181.41,1302.93 2181.29,1303.49 2181.29,1304.41 C2181.29,1305.82 2182.49,1306.9 2184.01,1306.9 C2187.45,1306.9 2189.8,1303.34 2191.49,1300.74 L2190.24,1300.05 C2188.16,1303.21 2186.49,1304.9 2185.41,1304.9 C2185.01,1304.9 2184.73,1304.54 2184.73,1304.05 C2184.73,1303.66 2184.88,1302.93 2185.21,1301.82 L2189.45,1287.54 "/>
<path class="Fingering" d="M592.709,727.72 C596.349,726.407 598.021,724.36 598.021,721.157 C598.021,716.97 594.818,714.282 589.865,714.282 C585.178,714.282 581.631,717.048 581.631,720.688 C581.631,722.329 582.709,723.485 584.271,723.485 C585.662,723.485 586.631,722.517 586.631,721.079 C586.631,720.204 586.303,719.688 585.381,719.048 C584.99,718.767 584.865,718.595 584.865,718.329 C584.865,717.204 587.178,716.001 589.459,716.001 C592.349,716.001 593.865,717.798 593.865,721.204 C593.865,724.923 592.349,726.876 589.506,726.876 C589.146,726.876 588.459,726.845 587.865,726.798 C587.537,726.767 587.224,726.767 586.99,726.767 C586.146,726.767 585.709,727.126 585.709,727.845 C585.709,728.517 586.099,728.845 586.99,728.845 C587.224,728.845 587.537,728.845 587.896,728.798 C588.709,728.767 589.349,728.767 589.787,728.767 C592.74,728.767 594.349,730.876 594.349,734.845 C594.349,739.001 592.349,741.313 588.74,741.313 C586.224,741.313 583.506,739.954 583.506,738.72 C583.506,738.36 583.584,738.282 584.349,737.845 C585.459,737.157 585.896,736.485 585.896,735.485 C585.896,734.032 584.818,732.954 583.381,732.954 C581.662,732.954 580.553,734.36 580.553,736.485 C580.553,740.36 584.099,743.032 589.224,743.032 C595.021,743.032 598.787,739.845 598.787,734.923 C598.787,731.157 596.865,728.876 592.709,727.72"/>
<path class="Fingering" d="M1987.35,608.037 L1980.07,608.631 L1979.94,610.084 L1980.91,610.084 C1982.5,610.084 1983.15,610.444 1983.15,611.35 C1983.15,611.709 1983.02,612.319 1982.82,613.084 L1978.74,626.834 L1982.22,626.834 L1983.86,621.194 C1985.66,615.069 1989.3,610.444 1992.3,610.444 C1993.35,610.444 1993.99,610.991 1993.99,611.991 C1993.99,612.803 1993.66,614.475 1993.18,615.991 L1989.99,626.834 L1993.46,626.834 L1995.18,621.037 C1996.18,617.709 1997.18,615.475 1998.46,613.756 C1999.9,611.756 2001.94,610.444 2003.46,610.444 C2004.46,610.444 2005.02,610.959 2005.02,611.912 C2005.02,612.475 2004.82,613.35 2004.46,614.475 L2002.61,620.162 C2001.54,623.272 2001.5,623.522 2001.5,624.631 C2001.5,626.319 2002.74,627.428 2004.61,627.428 C2005.94,627.428 2007.22,626.787 2008.58,625.522 C2009.43,624.709 2009.97,623.991 2011.61,621.6 L2010.38,620.756 C2008.3,623.881 2006.82,625.397 2005.79,625.397 C2005.35,625.397 2004.94,624.959 2004.94,624.397 C2004.94,624.037 2005.07,623.6 2005.43,622.428 L2007.94,614.678 C2008.22,613.803 2008.43,612.553 2008.43,611.678 C2008.43,609.553 2006.86,608.037 2004.71,608.037 C2001.86,608.037 1999.3,609.881 1996.99,613.678 C1997.15,612.912 1997.22,612.241 1997.22,611.756 C1997.22,609.631 1995.54,608.037 1993.35,608.037 C1990.82,608.037 1988.99,609.444 1986.18,613.444 L1987.35,608.037 "/>
<path class="Fingering" d="M816.371,1290.04 L809.089,1290.63 L808.964,1292.09 L809.933,1292.09 C811.527,1292.09 812.167,1292.44 812.167,1293.35 C812.167,1293.71 812.042,1294.32 811.839,1295.09 L807.761,1308.84 L811.246,1308.84 L812.886,1303.19 C814.683,1297.07 818.324,1292.44 821.324,1292.44 C822.371,1292.44 823.011,1292.99 823.011,1293.99 C823.011,1294.8 822.683,1296.48 822.199,1297.99 L819.011,1308.84 L822.48,1308.84 L824.199,1303.04 C825.199,1299.71 826.199,1297.48 827.48,1295.76 C828.917,1293.76 830.964,1292.44 832.48,1292.44 C833.48,1292.44 834.042,1292.96 834.042,1293.91 C834.042,1294.48 833.839,1295.35 833.48,1296.48 L831.636,1302.16 C830.558,1305.27 830.527,1305.52 830.527,1306.63 C830.527,1308.32 831.761,1309.43 833.636,1309.43 C834.964,1309.43 836.246,1308.79 837.605,1307.52 C838.449,1306.71 838.996,1305.99 840.636,1303.6 L839.402,1302.76 C837.324,1305.88 835.839,1307.4 834.808,1307.4 C834.371,1307.4 833.964,1306.96 833.964,1306.4 C833.964,1306.04 834.089,1305.6 834.449,1304.43 L836.964,1296.68 C837.246,1295.8 837.449,1294.55 837.449,1293.68 C837.449,1291.55 835.886,1290.04 833.73,1290.04 C830.886,1290.04 828.324,1291.88 826.011,1295.68 C826.167,1294.91 826.246,1294.24 826.246,1293.76 C826.246,1291.63 824.558,1290.04 822.371,1290.04 C819.839,1290.04 818.011,1291.44 815.199,1295.44 L816.371,1290.04 "/>
<path class="Fingering" d="M1763.66,602.001 L1756.37,602.595 L1756.25,604.048 L1757.22,604.048 C1758.81,604.048 1759.45,604.408 1759.45,605.314 C1759.45,605.673 1759.33,606.283 1759.12,607.048 L1755.05,620.798 L1758.53,620.798 L1760.17,615.158 C1761.97,609.033 1765.61,604.408 1768.61,604.408 C1769.66,604.408 1770.3,604.955 1770.3,605.955 C1770.3,606.767 1769.97,608.439 1769.48,609.955 L1766.3,620.798 L1769.77,620.798 L1771.48,615.001 C1772.48,611.673 1773.48,609.439 1774.77,607.72 C1776.2,605.72 1778.25,604.408 1779.77,604.408 C1780.77,604.408 1781.33,604.923 1781.33,605.876 C1781.33,606.439 1781.12,607.314 1780.77,608.439 L1778.92,614.126 C1777.84,617.236 1777.81,617.486 1777.81,618.595 C1777.81,620.283 1779.05,621.392 1780.92,621.392 C1782.25,621.392 1783.53,620.751 1784.89,619.486 C1785.73,618.673 1786.28,617.955 1787.92,615.564 L1786.69,614.72 C1784.61,617.845 1783.12,619.361 1782.09,619.361 C1781.66,619.361 1781.25,618.923 1781.25,618.361 C1781.25,618.001 1781.37,617.564 1781.73,616.392 L1784.25,608.642 C1784.53,607.767 1784.73,606.517 1784.73,605.642 C1784.73,603.517 1783.17,602.001 1781.02,602.001 C1778.17,602.001 1775.61,603.845 1773.3,607.642 C1773.45,606.876 1773.53,606.205 1773.53,605.72 C1773.53,603.595 1771.84,602.001 1769.66,602.001 C1767.12,602.001 1765.3,603.408 1762.48,607.408 L1763.66,602.001 "/>
<path class="Fingering" d="M2377.84,1284 L2370.56,1284.6 L2370.44,1286.05 L2371.41,1286.05 C2373,1286.05 2373.64,1286.41 2373.64,1287.31 C2373.64,1287.67 2373.51,1288.28 2373.31,1289.05 L2369.23,1302.8 L2372.72,1302.8 L2374.36,1297.16 C2376.16,1291.03 2379.8,1286.41 2382.8,1286.41 C2383.84,1286.41 2384.48,1286.96 2384.48,1287.96 C2384.48,1288.77 2384.16,1290.44 2383.67,1291.96 L2380.48,1302.8 L2383.95,1302.8 L2385.67,1297 C2386.67,1293.67 2387.67,1291.44 2388.95,1289.72 C2390.39,1287.72 2392.44,1286.41 2393.95,1286.41 C2394.95,1286.41 2395.51,1286.92 2395.51,1287.88 C2395.51,1288.44 2395.31,1289.31 2394.95,1290.44 L2393.11,1296.13 C2392.03,1299.24 2392,1299.49 2392,1300.6 C2392,1302.28 2393.23,1303.39 2395.11,1303.39 C2396.44,1303.39 2397.72,1302.75 2399.08,1301.49 C2399.92,1300.67 2400.47,1299.96 2402.11,1297.56 L2400.87,1296.72 C2398.8,1299.85 2397.31,1301.36 2396.28,1301.36 C2395.84,1301.36 2395.44,1300.92 2395.44,1300.36 C2395.44,1300 2395.56,1299.56 2395.92,1298.39 L2398.44,1290.64 C2398.72,1289.77 2398.92,1288.52 2398.92,1287.64 C2398.92,1285.52 2397.36,1284 2395.2,1284 C2392.36,1284 2389.8,1285.85 2387.48,1289.64 C2387.64,1288.88 2387.72,1288.21 2387.72,1287.72 C2387.72,1285.6 2386.03,1284 2383.84,1284 C2381.31,1284 2379.48,1285.41 2376.67,1289.41 L2377.84,1284 "/>
<path class="Fingering" d="M989.648,1277.77 C988.444,1277.77 987.491,1278.74 987.491,1279.94 C987.491,1281.1 988.444,1282.1 989.616,1282.1 C990.851,1282.1 991.804,1281.13 991.804,1279.94 C991.804,1278.74 990.851,1277.77 989.648,1277.77 M990.366,1287.54 L982.694,1288.13 L982.538,1289.59 L983.491,1289.59 C985.132,1289.59 985.773,1289.94 985.773,1290.82 C985.773,1291.21 985.694,1291.66 985.413,1292.59 L983.085,1300.38 C982.335,1302.93 982.21,1303.49 982.21,1304.41 C982.21,1305.82 983.413,1306.9 984.929,1306.9 C988.366,1306.9 990.726,1303.34 992.413,1300.74 L991.163,1300.05 C989.085,1303.21 987.413,1304.9 986.335,1304.9 C985.929,1304.9 985.648,1304.54 985.648,1304.05 C985.648,1303.66 985.804,1302.93 986.132,1301.82 L990.366,1287.54 "/>
<path class="Fingering" d="M1588.88,592.236 C1587.67,592.236 1586.72,593.205 1586.72,594.408 C1586.72,595.564 1587.67,596.564 1588.84,596.564 C1590.08,596.564 1591.03,595.595 1591.03,594.408 C1591.03,593.205 1590.08,592.236 1588.88,592.236 M1589.59,602.001 L1581.92,602.595 L1581.77,604.048 L1582.72,604.048 C1584.36,604.048 1585,604.408 1585,605.283 C1585,605.673 1584.92,606.126 1584.64,607.048 L1582.31,614.845 C1581.56,617.392 1581.44,617.955 1581.44,618.876 C1581.44,620.283 1582.64,621.361 1584.16,621.361 C1587.59,621.361 1589.95,617.798 1591.64,615.205 L1590.39,614.517 C1588.31,617.673 1586.64,619.361 1585.56,619.361 C1585.16,619.361 1584.88,619.001 1584.88,618.517 C1584.88,618.126 1585.03,617.392 1585.36,616.283 L1589.59,602.001 "/>
<path class="Fingering" d="M1178.76,1284 L1171.48,1284.6 L1171.36,1286.05 L1172.33,1286.05 C1173.92,1286.05 1174.56,1286.41 1174.56,1287.31 C1174.56,1287.67 1174.44,1288.28 1174.23,1289.05 L1170.15,1302.8 L1173.64,1302.8 L1175.28,1297.16 C1177.08,1291.03 1180.72,1286.41 1183.72,1286.41 C1184.76,1286.41 1185.4,1286.96 1185.4,1287.96 C1185.4,1288.77 1185.08,1290.44 1184.59,1291.96 L1181.4,1302.8 L1184.87,1302.8 L1186.59,1297 C1187.59,1293.67 1188.59,1291.44 1189.87,1289.72 C1191.31,1287.72 1193.36,1286.41 1194.87,1286.41 C1195.87,1286.41 1196.44,1286.92 1196.44,1287.88 C1196.44,1288.44 1196.23,1289.31 1195.87,1290.44 L1194.03,1296.13 C1192.95,1299.24 1192.92,1299.49 1192.92,1300.6 C1192.92,1302.28 1194.15,1303.39 1196.03,1303.39 C1197.36,1303.39 1198.64,1302.75 1200,1301.49 C1200.84,1300.67 1201.39,1299.96 1203.03,1297.56 L1201.79,1296.72 C1199.72,1299.85 1198.23,1301.36 1197.2,1301.36 C1196.76,1301.36 1196.36,1300.92 1196.36,1300.36 C1196.36,1300 1196.48,1299.56 1196.84,1298.39 L1199.36,1290.64 C1199.64,1289.77 1199.84,1288.52 1199.84,1287.64 C1199.84,1285.52 1198.28,1284 1196.12,1284 C1193.28,1284 1190.72,1285.85 1188.4,1289.64 C1188.56,1288.88 1188.64,1288.21 1188.64,1287.72 C1188.64,1285.6 1186.95,1284 1184.76,1284 C1182.23,1284 1180.4,1285.41 1177.59,1289.41 L1178.76,1284 "/>
<path class="Fingering" d="M598.418,1284 L591.137,1284.6 L591.012,1286.05 L591.98,1286.05 C593.574,1286.05 594.215,1286.41 594.215,1287.31 C594.215,1287.67 594.09,1288.28 593.887,1289.05 L589.809,1302.8 L593.293,1302.8 L594.934,1297.16 C596.73,1291.03 600.371,1286.41 603.371,1286.41 C604.418,1286.41 605.059,1286.96 605.059,1287.96 C605.059,1288.77 604.73,1290.44 604.246,1291.96 L601.059,1302.8 L604.527,1302.8 L606.246,1297 C607.246,1293.67 608.246,1291.44 609.527,1289.72 C610.965,1287.72 613.012,1286.41 614.527,1286.41 C615.527,1286.41 616.09,1286.92 616.09,1287.88 C616.09,1288.44 615.887,1289.31 615.527,1290.44 L613.684,1296.13 C612.605,1299.24 612.574,1299.49 612.574,1300.6 C612.574,1302.28 613.809,1303.39 615.684,1303.39 C617.012,1303.39 618.293,1302.75 619.652,1301.49 C620.496,1300.67 621.043,1299.96 622.684,1297.56 L621.449,1296.72 C619.371,1299.85 617.887,1301.36 616.855,1301.36 C616.418,1301.36 616.012,1300.92 616.012,1300.36 C616.012,1300 616.137,1299.56 616.496,1298.39 L619.012,1290.64 C619.293,1289.77 619.496,1288.52 619.496,1287.64 C619.496,1285.52 617.934,1284 615.777,1284 C612.934,1284 610.371,1285.85 608.059,1289.64 C608.215,1288.88 608.293,1288.21 608.293,1287.72 C608.293,1285.6 606.605,1284 604.418,1284 C601.887,1284 600.059,1285.41 597.246,1289.41 L598.418,1284 "/>
<path class="Fingering" d="M762.937,602.001 L755.655,602.595 L755.53,604.048 L756.499,604.048 C758.093,604.048 758.733,604.408 758.733,605.314 C758.733,605.673 758.608,606.283 758.405,607.048 L754.327,620.798 L757.812,620.798 L759.452,615.158 C761.249,609.033 764.89,604.408 767.89,604.408 C768.937,604.408 769.577,604.955 769.577,605.955 C769.577,606.767 769.249,608.439 768.765,609.955 L765.577,620.798 L769.046,620.798 L770.765,615.001 C771.765,611.673 772.765,609.439 774.046,607.72 C775.483,605.72 777.53,604.408 779.046,604.408 C780.046,604.408 780.608,604.923 780.608,605.876 C780.608,606.439 780.405,607.314 780.046,608.439 L778.202,614.126 C777.124,617.236 777.093,617.486 777.093,618.595 C777.093,620.283 778.327,621.392 780.202,621.392 C781.53,621.392 782.812,620.751 784.171,619.486 C785.015,618.673 785.562,617.955 787.202,615.564 L785.968,614.72 C783.89,617.845 782.405,619.361 781.374,619.361 C780.937,619.361 780.53,618.923 780.53,618.361 C780.53,618.001 780.655,617.564 781.015,616.392 L783.53,608.642 C783.812,607.767 784.015,606.517 784.015,605.642 C784.015,603.517 782.452,602.001 780.296,602.001 C777.452,602.001 774.89,603.845 772.577,607.642 C772.733,606.876 772.812,606.205 772.812,605.72 C772.812,603.595 771.124,602.001 768.937,602.001 C766.405,602.001 764.577,603.408 761.765,607.408 L762.937,602.001 "/>
<path class="Fingering" d="M1157.16,1418.6 C1151.57,1418.6 1147.49,1424.68 1147.49,1433.09 C1147.49,1441.32 1151.44,1447.35 1156.83,1447.35 C1162.44,1447.35 1166.36,1441.52 1166.36,1433.2 C1166.36,1428.96 1165.47,1425.45 1163.8,1422.68 C1162.24,1420.17 1159.68,1418.6 1157.16,1418.6 M1156.88,1420.32 C1158.19,1420.32 1159.47,1421.2 1160.44,1422.81 C1161.52,1424.68 1161.88,1426.96 1161.88,1432.45 C1161.88,1438.09 1161.6,1440.73 1160.8,1442.48 C1159.88,1444.45 1158.44,1445.63 1156.93,1445.63 C1155.57,1445.63 1154.32,1444.76 1153.36,1443.17 C1152.24,1441.27 1151.93,1438.81 1151.93,1432.24 C1151.93,1427.56 1152.21,1425.24 1153,1423.48 C1153.93,1421.48 1155.36,1420.32 1156.88,1420.32"/>
<path class="Fingering" d="M1095.66,736.778 L1093.9,736.778 L1093.49,738.825 C1092.98,741.418 1092.66,741.653 1090.18,741.653 L1081.23,741.653 C1083.98,738.778 1084.9,737.934 1087.46,735.934 C1091.1,733.137 1092.66,731.747 1093.57,730.543 C1094.85,728.778 1095.49,727.028 1095.49,725.059 C1095.49,720.497 1091.74,717.262 1086.49,717.262 C1081.41,717.262 1077.54,720.497 1077.54,724.778 C1077.54,727.309 1078.82,729.028 1080.69,729.028 C1082.18,729.028 1083.18,728.028 1083.18,726.575 C1083.18,725.575 1082.62,724.668 1081.77,724.309 C1080.3,723.7 1080.23,723.622 1080.23,723.106 C1080.23,722.497 1080.62,721.575 1081.18,720.903 C1082.18,719.668 1083.82,718.981 1085.69,718.981 C1089.02,718.981 1090.98,721.028 1090.98,724.387 C1090.98,727.34 1089.58,730.028 1086.26,733.543 C1083.3,736.653 1081.46,738.622 1080.77,739.387 C1079.33,741.059 1078.62,741.981 1076.87,744.293 L1076.87,745.418 L1094.9,745.418 L1095.66,736.778 "/>
<path class="Fingering" d="M964.595,1418.78 L962.829,1418.78 L962.423,1420.83 C961.907,1423.42 961.595,1423.65 959.111,1423.65 L950.157,1423.65 C952.907,1420.78 953.829,1419.93 956.392,1417.93 C960.032,1415.14 961.595,1413.75 962.501,1412.54 C963.782,1410.78 964.423,1409.03 964.423,1407.06 C964.423,1402.5 960.673,1399.26 955.423,1399.26 C950.345,1399.26 946.47,1402.5 946.47,1406.78 C946.47,1409.31 947.751,1411.03 949.626,1411.03 C951.111,1411.03 952.111,1410.03 952.111,1408.58 C952.111,1407.58 951.548,1406.67 950.704,1406.31 C949.236,1405.7 949.157,1405.62 949.157,1405.11 C949.157,1404.5 949.548,1403.58 950.111,1402.9 C951.111,1401.67 952.751,1400.98 954.626,1400.98 C957.954,1400.98 959.907,1403.03 959.907,1406.39 C959.907,1409.34 958.517,1412.03 955.189,1415.54 C952.236,1418.65 950.392,1420.62 949.704,1421.39 C948.267,1423.06 947.548,1423.98 945.798,1426.29 L945.798,1427.42 L963.829,1427.42 L964.595,1418.78 "/>
<path class="Fingering" d="M1499.4,1274.24 C1498.2,1274.24 1497.25,1275.21 1497.25,1276.41 C1497.25,1277.56 1498.2,1278.56 1499.37,1278.56 C1500.61,1278.56 1501.56,1277.6 1501.56,1276.41 C1501.56,1275.21 1500.61,1274.24 1499.4,1274.24 M1500.12,1284 L1492.45,1284.6 L1492.3,1286.05 L1493.25,1286.05 C1494.89,1286.05 1495.53,1286.41 1495.53,1287.28 C1495.53,1287.67 1495.45,1288.13 1495.17,1289.05 L1492.84,1296.85 C1492.09,1299.39 1491.97,1299.96 1491.97,1300.88 C1491.97,1302.28 1493.17,1303.36 1494.69,1303.36 C1498.12,1303.36 1500.48,1299.8 1502.17,1297.21 L1500.92,1296.52 C1498.84,1299.67 1497.17,1301.36 1496.09,1301.36 C1495.69,1301.36 1495.4,1301 1495.4,1300.52 C1495.4,1300.13 1495.56,1299.39 1495.89,1298.28 L1500.12,1284 "/>
<path class="Fingering" d="M1120.72,595.772 C1119.51,595.772 1118.56,596.741 1118.56,597.944 C1118.56,599.1 1119.51,600.1 1120.68,600.1 C1121.92,600.1 1122.87,599.131 1122.87,597.944 C1122.87,596.741 1121.92,595.772 1120.72,595.772 M1121.43,605.537 L1113.76,606.131 L1113.61,607.584 L1114.56,607.584 C1116.2,607.584 1116.84,607.944 1116.84,608.819 C1116.84,609.209 1116.76,609.662 1116.48,610.584 L1114.15,618.381 C1113.4,620.928 1113.28,621.491 1113.28,622.412 C1113.28,623.819 1114.48,624.897 1116,624.897 C1119.43,624.897 1121.79,621.334 1123.48,618.741 L1122.23,618.053 C1120.15,621.209 1118.48,622.897 1117.4,622.897 C1117,622.897 1116.72,622.537 1116.72,622.053 C1116.72,621.662 1116.87,620.928 1117.2,619.819 L1121.43,605.537 "/>
<path class="Fingering" d="M413.854,1409.72 C417.495,1408.41 419.167,1406.36 419.167,1403.16 C419.167,1398.97 415.963,1396.28 411.01,1396.28 C406.323,1396.28 402.776,1399.05 402.776,1402.69 C402.776,1404.33 403.854,1405.49 405.417,1405.49 C406.807,1405.49 407.776,1404.52 407.776,1403.08 C407.776,1402.2 407.448,1401.69 406.526,1401.05 C406.135,1400.77 406.01,1400.6 406.01,1400.33 C406.01,1399.2 408.323,1398 410.604,1398 C413.495,1398 415.01,1399.8 415.01,1403.2 C415.01,1406.92 413.495,1408.88 410.651,1408.88 C410.292,1408.88 409.604,1408.85 409.01,1408.8 C408.682,1408.77 408.37,1408.77 408.135,1408.77 C407.292,1408.77 406.854,1409.13 406.854,1409.85 C406.854,1410.52 407.245,1410.85 408.135,1410.85 C408.37,1410.85 408.682,1410.85 409.042,1410.8 C409.854,1410.77 410.495,1410.77 410.932,1410.77 C413.885,1410.77 415.495,1412.88 415.495,1416.85 C415.495,1421 413.495,1423.31 409.885,1423.31 C407.37,1423.31 404.651,1421.95 404.651,1420.72 C404.651,1420.36 404.729,1420.28 405.495,1419.85 C406.604,1419.16 407.042,1418.49 407.042,1417.49 C407.042,1416.03 405.963,1414.95 404.526,1414.95 C402.807,1414.95 401.698,1416.36 401.698,1418.49 C401.698,1422.36 405.245,1425.03 410.37,1425.03 C416.167,1425.03 419.932,1421.85 419.932,1416.92 C419.932,1413.16 418.01,1410.88 413.854,1409.72"/>
<path class="Fingering" d="M2554.57,592.236 C2553.37,592.236 2552.42,593.205 2552.42,594.408 C2552.42,595.564 2553.37,596.564 2554.54,596.564 C2555.78,596.564 2556.73,595.595 2556.73,594.408 C2556.73,593.205 2555.78,592.236 2554.57,592.236 M2555.29,602.001 L2547.62,602.595 L2547.46,604.048 L2548.42,604.048 C2550.06,604.048 2550.7,604.408 2550.7,605.283 C2550.7,605.673 2550.62,606.126 2550.34,607.048 L2548.01,614.845 C2547.26,617.392 2547.14,617.955 2547.14,618.876 C2547.14,620.283 2548.34,621.361 2549.86,621.361 C2553.29,621.361 2555.65,617.798 2557.34,615.205 L2556.09,614.517 C2554.01,617.673 2552.34,619.361 2551.26,619.361 C2550.86,619.361 2550.57,619.001 2550.57,618.517 C2550.57,618.126 2550.73,617.392 2551.06,616.283 L2555.29,602.001 "/>
<path class="Fingering" d="M872.168,592.236 C870.965,592.236 870.012,593.205 870.012,594.408 C870.012,595.564 870.965,596.564 872.137,596.564 C873.371,596.564 874.324,595.595 874.324,594.408 C874.324,593.205 873.371,592.236 872.168,592.236 M872.887,602.001 L865.215,602.595 L865.059,604.048 L866.012,604.048 C867.652,604.048 868.293,604.408 868.293,605.283 C868.293,605.673 868.215,606.126 867.934,607.048 L865.605,614.845 C864.855,617.392 864.73,617.955 864.73,618.876 C864.73,620.283 865.934,621.361 867.449,621.361 C870.887,621.361 873.246,617.798 874.934,615.205 L873.684,614.517 C871.605,617.673 869.934,619.361 868.855,619.361 C868.449,619.361 868.168,619.001 868.168,618.517 C868.168,618.126 868.324,617.392 868.652,616.283 L872.887,602.001 "/>
<path class="Fingering" d="M2321.07,602.001 L2313.79,602.595 L2313.66,604.048 L2314.63,604.048 C2316.23,604.048 2316.87,604.408 2316.87,605.314 C2316.87,605.673 2316.74,606.283 2316.54,607.048 L2312.46,620.798 L2315.94,620.798 L2317.58,615.158 C2319.38,609.033 2323.02,604.408 2326.02,604.408 C2327.07,604.408 2327.71,604.955 2327.71,605.955 C2327.71,606.767 2327.38,608.439 2326.9,609.955 L2323.71,620.798 L2327.18,620.798 L2328.9,615.001 C2329.9,611.673 2330.9,609.439 2332.18,607.72 C2333.62,605.72 2335.66,604.408 2337.18,604.408 C2338.18,604.408 2338.74,604.923 2338.74,605.876 C2338.74,606.439 2338.54,607.314 2338.18,608.439 L2336.33,614.126 C2335.26,617.236 2335.23,617.486 2335.23,618.595 C2335.23,620.283 2336.46,621.392 2338.33,621.392 C2339.66,621.392 2340.94,620.751 2342.3,619.486 C2343.15,618.673 2343.69,617.955 2345.33,615.564 L2344.1,614.72 C2342.02,617.845 2340.54,619.361 2339.51,619.361 C2339.07,619.361 2338.66,618.923 2338.66,618.361 C2338.66,618.001 2338.79,617.564 2339.15,616.392 L2341.66,608.642 C2341.94,607.767 2342.15,606.517 2342.15,605.642 C2342.15,603.517 2340.58,602.001 2338.43,602.001 C2335.58,602.001 2333.02,603.845 2330.71,607.642 C2330.87,606.876 2330.94,606.205 2330.94,605.72 C2330.94,603.595 2329.26,602.001 2327.07,602.001 C2324.54,602.001 2322.71,603.408 2319.9,607.408 L2321.07,602.001 "/>
<path class="Fingering" d="M961.774,608.037 L954.493,608.631 L954.368,610.084 L955.337,610.084 C956.931,610.084 957.571,610.444 957.571,611.35 C957.571,611.709 957.446,612.319 957.243,613.084 L953.165,626.834 L956.649,626.834 L958.29,621.194 C960.087,615.069 963.727,610.444 966.727,610.444 C967.774,610.444 968.415,610.991 968.415,611.991 C968.415,612.803 968.087,614.475 967.602,615.991 L964.415,626.834 L967.884,626.834 L969.602,621.037 C970.602,617.709 971.602,615.475 972.884,613.756 C974.321,611.756 976.368,610.444 977.884,610.444 C978.884,610.444 979.446,610.959 979.446,611.912 C979.446,612.475 979.243,613.35 978.884,614.475 L977.04,620.162 C975.962,623.272 975.931,623.522 975.931,624.631 C975.931,626.319 977.165,627.428 979.04,627.428 C980.368,627.428 981.649,626.787 983.009,625.522 C983.852,624.709 984.399,623.991 986.04,621.6 L984.806,620.756 C982.727,623.881 981.243,625.397 980.212,625.397 C979.774,625.397 979.368,624.959 979.368,624.397 C979.368,624.037 979.493,623.6 979.852,622.428 L982.368,614.678 C982.649,613.803 982.852,612.553 982.852,611.678 C982.852,609.553 981.29,608.037 979.134,608.037 C976.29,608.037 973.727,609.881 971.415,613.678 C971.571,612.912 971.649,612.241 971.649,611.756 C971.649,609.631 969.962,608.037 967.774,608.037 C965.243,608.037 963.415,609.444 960.602,613.444 L961.774,608.037 "/>
<path class="Fingering" d="M1688.52,1283.96 L1681.24,1284.55 L1681.11,1286 L1682.08,1286 C1683.68,1286 1684.32,1286.36 1684.32,1287.27 C1684.32,1287.63 1684.19,1288.24 1683.99,1289 L1679.91,1302.75 L1683.4,1302.75 L1685.04,1297.11 C1686.83,1290.99 1690.47,1286.36 1693.47,1286.36 C1694.52,1286.36 1695.16,1286.91 1695.16,1287.91 C1695.16,1288.72 1694.83,1290.39 1694.35,1291.91 L1691.16,1302.75 L1694.63,1302.75 L1696.35,1296.96 C1697.35,1293.63 1698.35,1291.39 1699.63,1289.67 C1701.07,1287.67 1703.11,1286.36 1704.63,1286.36 C1705.63,1286.36 1706.19,1286.88 1706.19,1287.83 C1706.19,1288.39 1705.99,1289.27 1705.63,1290.39 L1703.79,1296.08 C1702.71,1299.19 1702.68,1299.44 1702.68,1300.55 C1702.68,1302.24 1703.91,1303.35 1705.79,1303.35 C1707.11,1303.35 1708.4,1302.71 1709.76,1301.44 C1710.6,1300.63 1711.15,1299.91 1712.79,1297.52 L1711.55,1296.67 C1709.47,1299.8 1707.99,1301.32 1706.96,1301.32 C1706.52,1301.32 1706.11,1300.88 1706.11,1300.32 C1706.11,1299.96 1706.24,1299.52 1706.6,1298.35 L1709.11,1290.6 C1709.4,1289.72 1709.6,1288.47 1709.6,1287.6 C1709.6,1285.47 1708.04,1283.96 1705.88,1283.96 C1703.04,1283.96 1700.47,1285.8 1698.16,1289.6 C1698.32,1288.83 1698.4,1288.16 1698.4,1287.67 C1698.4,1285.55 1696.71,1283.96 1694.52,1283.96 C1691.99,1283.96 1690.16,1285.36 1687.35,1289.36 L1688.52,1283.96 "/>
<path class="Fingering" d="M434.954,1284 L427.672,1284.6 L427.547,1286.05 L428.516,1286.05 C430.11,1286.05 430.75,1286.41 430.75,1287.31 C430.75,1287.67 430.625,1288.28 430.422,1289.05 L426.344,1302.8 L429.829,1302.8 L431.469,1297.16 C433.266,1291.03 436.907,1286.41 439.907,1286.41 C440.954,1286.41 441.594,1286.96 441.594,1287.96 C441.594,1288.77 441.266,1290.44 440.782,1291.96 L437.594,1302.8 L441.063,1302.8 L442.782,1297 C443.782,1293.67 444.782,1291.44 446.063,1289.72 C447.5,1287.72 449.547,1286.41 451.063,1286.41 C452.063,1286.41 452.625,1286.92 452.625,1287.88 C452.625,1288.44 452.422,1289.31 452.063,1290.44 L450.219,1296.13 C449.141,1299.24 449.11,1299.49 449.11,1300.6 C449.11,1302.28 450.344,1303.39 452.219,1303.39 C453.547,1303.39 454.829,1302.75 456.188,1301.49 C457.032,1300.67 457.579,1299.96 459.219,1297.56 L457.985,1296.72 C455.907,1299.85 454.422,1301.36 453.391,1301.36 C452.954,1301.36 452.547,1300.92 452.547,1300.36 C452.547,1300 452.672,1299.56 453.032,1298.39 L455.547,1290.64 C455.829,1289.77 456.032,1288.52 456.032,1287.64 C456.032,1285.52 454.469,1284 452.313,1284 C449.469,1284 446.907,1285.85 444.594,1289.64 C444.75,1288.88 444.829,1288.21 444.829,1287.72 C444.829,1285.6 443.141,1284 440.954,1284 C438.422,1284 436.594,1285.41 433.782,1289.41 L434.954,1284 "/>
<path class="StaffText" d="M609.698,574.392 L626.494,574.392 C630.948,574.392 634.354,573.689 636.994,572.189 C642.041,569.345 644.854,563.642 644.854,556.142 C644.854,549.236 642.354,543.845 637.744,540.845 C634.994,539.095 631.291,538.283 625.588,538.283 L609.698,538.283 L609.698,540.642 L610.651,540.642 C613.448,540.689 614.401,540.845 614.791,541.345 C615.088,541.783 615.088,541.892 615.088,544.439 L615.088,568.236 C615.088,570.798 615.088,570.892 614.791,571.345 C614.401,571.845 613.448,571.986 610.651,572.048 L609.698,572.048 L609.698,574.392 M623.541,572.048 C620.994,572.048 620.698,571.736 620.698,569.298 L620.698,543.439 C620.698,540.986 621.041,540.642 623.541,540.642 L626.151,540.642 C634.698,540.642 638.244,545.283 638.244,556.345 C638.244,567.548 635.041,572.048 626.948,572.048 L623.541,572.048 "/>
<path class="StaffText" d="M1789.59,538.283 L1759.55,538.283 L1759.55,540.642 L1760.44,540.642 C1763.3,540.689 1764.25,540.845 1764.64,541.345 C1764.94,541.783 1764.94,541.892 1764.94,544.439 L1764.94,568.236 C1764.94,570.798 1764.94,570.892 1764.64,571.345 C1764.25,571.845 1763.3,572.048 1760.44,572.048 L1759.55,572.048 L1759.55,574.392 L1790.25,574.392 L1791.25,561.048 L1789.05,561.048 C1787.14,569.939 1785.09,571.845 1777.44,572.048 L1774.14,572.048 C1771.14,571.939 1770.39,571.439 1770.55,569.642 L1770.55,556.892 L1771.55,556.892 C1776.69,556.689 1778.55,558.548 1778.75,564.095 L1781.09,564.095 L1781.09,547.689 L1778.75,547.689 C1778.44,552.595 1776.5,554.548 1771.75,554.548 L1770.55,554.548 L1770.55,543.142 C1770.5,541.033 1771,540.689 1773.69,540.642 L1776.3,540.642 C1784.5,540.595 1786.55,542.392 1788.14,551.048 L1790.3,551.048 L1789.59,538.283 M1804.23,551.095 L1795.34,551.642 L1795.34,553.798 L1797.39,553.798 C1799.28,553.845 1799.53,554.142 1799.53,556.298 L1799.53,570.595 C1799.48,571.345 1799.44,571.642 1799.23,571.892 C1798.89,572.345 1797.94,572.548 1795.78,572.595 L1795.59,572.595 L1795.59,574.392 L1808.19,574.392 L1808.19,572.595 L1807.98,572.595 C1804.69,572.486 1804.23,572.236 1804.23,570.392 L1804.23,561.142 C1804.23,556.689 1806.69,553.392 1809.94,553.392 C1812.78,553.392 1814.23,555.439 1814.23,559.486 L1814.23,570.642 C1814.19,571.298 1814.14,571.642 1813.89,571.892 C1813.59,572.345 1812.59,572.548 1810.44,572.595 L1810.23,572.595 L1810.23,574.392 L1822.89,574.392 L1822.89,572.595 L1822.69,572.595 C1819.39,572.486 1818.94,572.236 1818.94,570.439 L1818.94,561.595 C1818.94,556.595 1821.19,553.392 1824.69,553.392 C1827.55,553.392 1828.94,555.548 1828.94,560.048 L1828.94,570.595 C1828.89,571.298 1828.84,571.642 1828.59,571.892 C1828.3,572.345 1827.3,572.548 1825.14,572.595 L1824.94,572.595 L1824.94,574.392 L1837.59,574.392 L1837.59,572.595 L1837.39,572.595 C1834.09,572.486 1833.64,572.236 1833.64,570.392 L1833.64,559.048 C1833.64,555.939 1833.34,554.892 1832.05,553.189 C1830.59,551.345 1828.55,550.345 1826.14,550.345 C1822.89,550.345 1820.48,551.892 1818.34,555.345 C1817.48,552.345 1814.78,550.345 1811.44,550.345 C1808.39,550.345 1806.19,551.798 1804.23,554.939 L1804.23,551.095 "/>
<path class="StaffText" d="M1170.95,1182.77 L1170.95,1185.13 L1171.85,1185.13 C1174.7,1185.17 1175.65,1185.33 1176.04,1185.83 C1176.35,1186.27 1176.35,1186.38 1176.35,1188.92 L1176.35,1212.72 C1176.35,1215.28 1176.35,1215.38 1176.04,1215.83 C1175.65,1216.33 1174.7,1216.53 1171.85,1216.53 L1170.95,1216.53 L1170.95,1218.88 L1189.1,1218.88 C1197.74,1218.88 1202.95,1215.22 1202.95,1209.08 C1202.95,1204.08 1199.81,1201.22 1192.95,1200.03 C1195.35,1199.53 1196.45,1199.08 1197.74,1198.13 C1199.81,1196.58 1201.06,1194.13 1201.06,1191.63 C1201.06,1188.38 1199.06,1185.22 1196.15,1183.97 C1194.35,1183.17 1191.85,1182.77 1188.9,1182.77 L1170.95,1182.77 M1181.95,1199.03 L1181.95,1187.63 C1181.95,1185.67 1182.6,1185.17 1185.24,1185.13 L1187.24,1185.13 C1192.15,1185.13 1195.24,1186.72 1195.24,1192.17 C1195.24,1197.13 1192.85,1199.03 1186.4,1199.03 L1181.95,1199.03 M1181.95,1201.38 L1186.35,1201.38 C1193.99,1201.38 1196.81,1203.42 1196.81,1208.92 C1196.81,1215.63 1192.6,1216.53 1186.95,1216.53 L1184.85,1216.53 C1182.35,1216.53 1181.85,1216.03 1181.95,1213.38 L1181.95,1201.38 M1215.59,1195.58 L1206.7,1196.13 L1206.7,1198.28 L1208.74,1198.28 C1210.64,1198.33 1210.89,1198.63 1210.89,1200.78 L1210.89,1215.08 C1210.84,1215.83 1210.79,1216.13 1210.59,1216.38 C1210.24,1216.83 1209.29,1217.03 1207.14,1217.08 L1206.95,1217.08 L1206.95,1218.88 L1219.54,1218.88 L1219.54,1217.08 L1219.34,1217.08 C1216.04,1216.97 1215.59,1216.72 1215.59,1214.88 L1215.59,1205.63 C1215.59,1201.17 1218.04,1197.88 1221.29,1197.88 C1224.14,1197.88 1225.59,1199.92 1225.59,1203.97 L1225.59,1215.13 C1225.54,1215.78 1225.49,1216.13 1225.24,1216.38 C1224.95,1216.83 1223.95,1217.03 1221.79,1217.08 L1221.59,1217.08 L1221.59,1218.88 L1234.24,1218.88 L1234.24,1217.08 L1234.04,1217.08 C1230.74,1216.97 1230.29,1216.72 1230.29,1214.92 L1230.29,1206.08 C1230.29,1201.08 1232.54,1197.88 1236.04,1197.88 C1238.9,1197.88 1240.29,1200.03 1240.29,1204.53 L1240.29,1215.08 C1240.24,1215.78 1240.2,1216.13 1239.95,1216.38 C1239.65,1216.83 1238.65,1217.03 1236.49,1217.08 L1236.29,1217.08 L1236.29,1218.88 L1248.95,1218.88 L1248.95,1217.08 L1248.74,1217.08 C1245.45,1216.97 1244.99,1216.72 1244.99,1214.88 L1244.99,1203.53 C1244.99,1200.42 1244.7,1199.38 1243.4,1197.67 C1241.95,1195.83 1239.9,1194.83 1237.49,1194.83 C1234.24,1194.83 1231.84,1196.38 1229.7,1199.83 C1228.84,1196.83 1226.14,1194.83 1222.79,1194.83 C1219.74,1194.83 1217.54,1196.28 1215.59,1199.42 L1215.59,1195.58 "/>
<path class="StaffText" d="M2002.69,543.631 L2000.58,543.631 L1989.08,572.772 C1987.74,576.678 1986.44,577.881 1983.58,578.084 L1983.38,578.084 L1983.38,580.428 L1996.63,580.428 L1996.63,578.084 L1995.63,578.084 C1992.94,578.084 1991.58,577.131 1991.58,575.225 C1991.58,574.584 1991.74,573.975 1992.03,573.131 L1993.69,568.725 L2006.94,568.725 L2009.64,575.428 C2009.94,576.225 2010.03,576.522 2010.03,576.772 C2010.03,577.584 2008.78,578.084 2006.94,578.084 L2004.83,578.084 L2004.83,580.428 L2020.33,580.428 L2020.33,578.084 L2019.64,578.084 C2017.03,578.022 2016.58,577.725 2015.44,574.881 L2002.69,543.631 M2000.24,551.819 L2005.88,566.022 L1994.69,566.022 L2000.24,551.819 "/>
<path class="StaffText" d="M2030.79,1164.61 L2028.68,1164.61 L2017.18,1193.75 C2015.84,1197.65 2014.54,1198.86 2011.68,1199.06 L2011.48,1199.06 L2011.48,1201.4 L2024.73,1201.4 L2024.73,1199.06 L2023.73,1199.06 C2021.04,1199.06 2019.68,1198.11 2019.68,1196.2 C2019.68,1195.56 2019.84,1194.95 2020.14,1194.11 L2021.79,1189.7 L2035.04,1189.7 L2037.75,1196.4 C2038.04,1197.2 2038.14,1197.5 2038.14,1197.75 C2038.14,1198.56 2036.89,1199.06 2035.04,1199.06 L2032.93,1199.06 L2032.93,1201.4 L2048.43,1201.4 L2048.43,1199.06 L2047.75,1199.06 C2045.14,1199 2044.68,1198.7 2043.54,1195.86 L2030.79,1164.61 M2028.34,1172.79 L2033.98,1187 L2022.79,1187 L2028.34,1172.79 M2050.93,1178.31 L2053.14,1178.65 L2054.03,1174.7 C2054.78,1171.4 2055.14,1170.9 2056.57,1170.9 C2056.82,1170.9 2057.23,1170.9 2057.68,1170.95 C2063.82,1171.25 2063.82,1171.25 2066.14,1171.25 C2066.78,1171.25 2067.93,1171.25 2069.32,1171.2 L2065.93,1178.06 C2062.23,1185.4 2061.78,1186.31 2060.53,1189.4 C2058.98,1193.15 2058.18,1196.31 2058.18,1198.4 C2058.18,1200.7 2059.39,1202.11 2061.32,1202.11 C2063.73,1202.11 2064.68,1200.5 2064.64,1196.15 C2064.39,1188.95 2065.28,1185.45 2070.64,1173.75 C2071.53,1171.79 2072.48,1169.79 2073.39,1167.86 L2073.39,1166.4 C2070.39,1166.65 2068.78,1166.75 2065.68,1166.75 C2061.32,1166.75 2057.89,1166.61 2052.48,1166.2 L2050.93,1178.31 "/>
<path class="StaffText" d="M2316.96,574.392 L2333.76,574.392 C2338.21,574.392 2341.61,573.689 2344.26,572.189 C2349.3,569.345 2352.11,563.642 2352.11,556.142 C2352.11,549.236 2349.61,543.845 2345.01,540.845 C2342.26,539.095 2338.55,538.283 2332.85,538.283 L2316.96,538.283 L2316.96,540.642 L2317.91,540.642 C2320.71,540.689 2321.66,540.845 2322.05,541.345 C2322.35,541.783 2322.35,541.892 2322.35,544.439 L2322.35,568.236 C2322.35,570.798 2322.35,570.892 2322.05,571.345 C2321.66,571.845 2320.71,571.986 2317.91,572.048 L2316.96,572.048 L2316.96,574.392 M2330.8,572.048 C2328.26,572.048 2327.96,571.736 2327.96,569.298 L2327.96,543.439 C2327.96,540.986 2328.3,540.642 2330.8,540.642 L2333.41,540.642 C2341.96,540.642 2345.51,545.283 2345.51,556.345 C2345.51,567.548 2342.3,572.048 2334.21,572.048 L2330.8,572.048 "/>
<path class="StaffText" d="M1714.46,1175.22 L1684.41,1175.22 L1684.41,1177.58 L1685.3,1177.58 C1688.16,1177.62 1689.11,1177.78 1689.5,1178.28 C1689.8,1178.72 1689.8,1178.83 1689.8,1181.37 L1689.8,1205.17 C1689.8,1207.73 1689.8,1207.83 1689.5,1208.28 C1689.11,1208.78 1688.16,1208.98 1685.3,1208.98 L1684.41,1208.98 L1684.41,1211.33 L1715.11,1211.33 L1716.11,1197.98 L1713.91,1197.98 C1712,1206.87 1709.96,1208.78 1702.3,1208.98 L1699,1208.98 C1696,1208.87 1695.25,1208.37 1695.41,1206.58 L1695.41,1193.83 L1696.41,1193.83 C1701.55,1193.62 1703.41,1195.48 1703.61,1201.03 L1705.96,1201.03 L1705.96,1184.62 L1703.61,1184.62 C1703.3,1189.53 1701.36,1191.48 1696.61,1191.48 L1695.41,1191.48 L1695.41,1180.08 C1695.36,1177.97 1695.86,1177.62 1698.55,1177.58 L1701.16,1177.58 C1709.36,1177.53 1711.41,1179.33 1713,1187.98 L1715.16,1187.98 L1714.46,1175.22 M1729.1,1188.03 L1720.21,1188.58 L1720.21,1190.73 L1722.25,1190.73 C1724.14,1190.78 1724.39,1191.08 1724.39,1193.23 L1724.39,1207.53 C1724.35,1208.28 1724.3,1208.58 1724.1,1208.83 C1723.75,1209.28 1722.8,1209.48 1720.64,1209.53 L1720.46,1209.53 L1720.46,1211.33 L1733.05,1211.33 L1733.05,1209.53 L1732.85,1209.53 C1729.55,1209.42 1729.1,1209.17 1729.1,1207.33 L1729.1,1198.08 C1729.1,1193.62 1731.55,1190.33 1734.8,1190.33 C1737.64,1190.33 1739.1,1192.37 1739.1,1196.42 L1739.1,1207.58 C1739.05,1208.23 1739,1208.58 1738.75,1208.83 C1738.46,1209.28 1737.46,1209.48 1735.3,1209.53 L1735.1,1209.53 L1735.1,1211.33 L1747.75,1211.33 L1747.75,1209.53 L1747.55,1209.53 C1744.25,1209.42 1743.8,1209.17 1743.8,1207.37 L1743.8,1198.53 C1743.8,1193.53 1746.05,1190.33 1749.55,1190.33 C1752.41,1190.33 1753.8,1192.48 1753.8,1196.98 L1753.8,1207.53 C1753.75,1208.23 1753.71,1208.58 1753.46,1208.83 C1753.16,1209.28 1752.16,1209.48 1750,1209.53 L1749.8,1209.53 L1749.8,1211.33 L1762.46,1211.33 L1762.46,1209.53 L1762.25,1209.53 C1758.96,1209.42 1758.5,1209.17 1758.5,1207.33 L1758.5,1195.98 C1758.5,1192.87 1758.21,1191.83 1756.91,1190.12 C1755.46,1188.28 1753.41,1187.28 1751,1187.28 C1747.75,1187.28 1745.35,1188.83 1743.21,1192.28 C1742.35,1189.28 1739.64,1187.28 1736.3,1187.28 C1733.25,1187.28 1731.05,1188.73 1729.1,1191.87 L1729.1,1188.03 "/>
<path class="StaffText" d="M2369.98,1207.62 L2386.78,1207.62 C2391.23,1207.62 2394.64,1206.92 2397.28,1205.42 C2402.32,1202.58 2405.14,1196.87 2405.14,1189.37 C2405.14,1182.47 2402.64,1177.08 2398.03,1174.08 C2395.28,1172.33 2391.57,1171.51 2385.87,1171.51 L2369.98,1171.51 L2369.98,1173.87 L2370.93,1173.87 C2373.73,1173.92 2374.68,1174.08 2375.07,1174.58 C2375.37,1175.01 2375.37,1175.12 2375.37,1177.67 L2375.37,1201.47 C2375.37,1204.03 2375.37,1204.12 2375.07,1204.58 C2374.68,1205.08 2373.73,1205.22 2370.93,1205.28 L2369.98,1205.28 L2369.98,1207.62 M2383.82,1205.28 C2381.28,1205.28 2380.98,1204.97 2380.98,1202.53 L2380.98,1176.67 C2380.98,1174.22 2381.32,1173.87 2383.82,1173.87 L2386.43,1173.87 C2394.98,1173.87 2398.53,1178.51 2398.53,1189.58 C2398.53,1200.78 2395.32,1205.28 2387.23,1205.28 L2383.82,1205.28 "/>
<path class="NoteDot" transform="matrix(0.992001,0,0,0.992001,1331.8,745.799)" d="M0,0 C0,2.79688 2.20313,5 5,5 C7.79688,5 10,2.79688 10,0 C10,-2.79688 7.79688,-5 5,-5 C2.20313,-5 0,-2.79688 0,0"/>
<path class="NoteDot" transform="matrix(0.992001,0,0,0.992001,1215.07,1427.8)" d="M0,0 C0,2.79688 2.20313,5 5,5 C7.79688,5 10,2.79688 10,0 C10,-2.79688 7.79688,-5 5,-5 C2.20313,-5 0,-2.79688 0,0"/>
</svg>
