<?xml version="1.0" encoding="UTF-8" standalone="no"?>
<!-- Created with Inkscape (http://www.inkscape.org/) -->

<svg
   xmlns:dc="http://purl.org/dc/elements/1.1/"
   xmlns:cc="http://creativecommons.org/ns#"
   xmlns:rdf="http://www.w3.org/1999/02/22-rdf-syntax-ns#"
   xmlns:svg="http://www.w3.org/2000/svg"
   xmlns="http://www.w3.org/2000/svg"
   xmlns:sodipodi="http://sodipodi.sourceforge.net/DTD/sodipodi-0.dtd"
   xmlns:inkscape="http://www.inkscape.org/namespaces/inkscape"
   width="297mm"
   height="210mm"
   viewBox="0 0 297 210"
   version="1.1"
   id="svg1007"
   inkscape:version="0.92.5 (2060ec1f9f, 2020-04-08)"
   sodipodi:docname="exo_corde_a_vide.svg">
  <defs
     id="defs1001" />
  <sodipodi:namedview
     id="base"
     pagecolor="#ffffff"
     bordercolor="#666666"
     borderopacity="1.0"
     inkscape:pageopacity="0.0"
     inkscape:pageshadow="2"
     inkscape:zoom="1.4"
     inkscape:cx="571.3021"
     inkscape:cy="459.97712"
     inkscape:document-units="mm"
     inkscape:current-layer="layer1"
     showgrid="false"
     inkscape:window-width="1920"
     inkscape:window-height="1048"
     inkscape:window-x="0"
     inkscape:window-y="0"
     inkscape:window-maximized="1" />
  <metadata
     id="metadata1004">
    <rdf:RDF>
      <cc:Work
         rdf:about="">
        <dc:format>image/svg+xml</dc:format>
        <dc:type
           rdf:resource="http://purl.org/dc/dcmitype/StillImage" />
        <dc:title></dc:title>
      </cc:Work>
    </rdf:RDF>
  </metadata>
  <g
     inkscape:label="Calque 1"
     inkscape:groupmode="layer"
     id="layer1"
     transform="translate(0,-87)">
    <polyline
       style="fill:none;stroke:#000000;stroke-width:2.73000002;stroke-linejoin:bevel"
       class="StaffLines"
       points="336.614,634.252 2763.78,634.252"
       id="polyline1"
       transform="matrix(0.12886636,0,0,0.17424458,-53.207292,68.627829)" />
    <polyline
       style="fill:none;stroke:#000000;stroke-width:2.73000002;stroke-linejoin:bevel"
       class="StaffLines"
       points="336.614,659.055 2763.78,659.055"
       id="polyline2"
       transform="matrix(0.12886636,0,0,0.17424458,-53.207292,68.627829)" />
    <polyline
       style="fill:none;stroke:#000000;stroke-width:2.73000002;stroke-linejoin:bevel"
       class="StaffLines"
       points="336.614,683.858 2763.78,683.858"
       id="polyline3"
       transform="matrix(0.12886636,0,0,0.17424458,-53.207292,68.627829)" />
    <polyline
       style="fill:none;stroke:#000000;stroke-width:2.73000002;stroke-linejoin:bevel"
       class="StaffLines"
       points="336.614,708.661 2763.78,708.661"
       id="polyline4"
       transform="matrix(0.12886636,0,0,0.17424458,-53.207292,68.627829)" />
    <polyline
       style="fill:none;stroke:#000000;stroke-width:2.73000002;stroke-linejoin:bevel"
       class="StaffLines"
       points="336.614,733.465 2763.78,733.465"
       id="polyline5"
       transform="matrix(0.12886636,0,0,0.17424458,-53.207292,68.627829)" />
    <polyline
       style="fill:none;stroke:#000000;stroke-width:4.46000004;stroke-linejoin:bevel"
       class="BarLine"
       points="2739.59,632.888 2739.59,734.829"
       id="polyline6"
       transform="matrix(0.12886636,0,0,0.17424458,-53.207292,68.627829)" />
    <polyline
       style="fill:none;stroke:#000000;stroke-width:13.64000034;stroke-linejoin:bevel"
       class="BarLine"
       points="2756.96,632.888 2756.96,734.829"
       id="polyline7"
       transform="matrix(0.12886636,0,0,0.17424458,-53.207292,68.627829)" />
    <polyline
       style="fill:none;stroke:#000000;stroke-width:4.46000004;stroke-linejoin:bevel"
       class="BarLine"
       points="1993.84,632.888 1993.84,734.829"
       id="polyline8"
       transform="matrix(0.12886636,0,0,0.17424458,-53.207292,68.627829)" />
    <polyline
       style="fill:none;stroke:#000000;stroke-width:4.46000004;stroke-linejoin:bevel"
       class="BarLine"
       points="1248.09,632.888 1248.09,734.829"
       id="polyline9"
       transform="matrix(0.12886636,0,0,0.17424458,-53.207292,68.627829)" />
    <polyline
       style="fill:none;stroke:#000000;stroke-width:3.97000003;stroke-linejoin:bevel"
       class="LedgerLine"
       points="764.481,783.071 814.08,783.071"
       id="polyline10"
       transform="matrix(0.12886636,0,0,0.17424458,-53.207292,68.627829)" />
    <polyline
       style="fill:none;stroke:#000000;stroke-width:3.97000003;stroke-linejoin:bevel"
       class="LedgerLine"
       points="764.481,758.268 814.08,758.268"
       id="polyline11"
       transform="matrix(0.12886636,0,0,0.17424458,-53.207292,68.627829)" />
    <polyline
       style="fill:none;stroke:#000000;stroke-width:3.97000003;stroke-linejoin:bevel"
       class="LedgerLine"
       points="1510.23,758.268 1559.83,758.268"
       id="polyline12"
       transform="matrix(0.12886636,0,0,0.17424458,-53.207292,68.627829)" />
    <polyline
       style="fill:none;stroke:#000000;stroke-width:3.97000003;stroke-linejoin:bevel"
       class="LedgerLine"
       points="1746.58,783.071 1796.18,783.071"
       id="polyline13"
       transform="matrix(0.12886636,0,0,0.17424458,-53.207292,68.627829)" />
    <polyline
       style="fill:none;stroke:#000000;stroke-width:3.97000003;stroke-linejoin:bevel"
       class="LedgerLine"
       points="528.133,807.874 577.732,807.874"
       id="polyline14"
       transform="matrix(0.12886636,0,0,0.17424458,-53.207292,68.627829)" />
    <polyline
       style="fill:none;stroke:#000000;stroke-width:3.97000003;stroke-linejoin:bevel"
       class="LedgerLine"
       points="528.133,758.268 577.732,758.268"
       id="polyline15"
       transform="matrix(0.12886636,0,0,0.17424458,-53.207292,68.627829)" />
    <polyline
       style="fill:none;stroke:#000000;stroke-width:3.97000003;stroke-linejoin:bevel"
       class="LedgerLine"
       points="1000.83,758.268 1050.43,758.268"
       id="polyline16"
       transform="matrix(0.12886636,0,0,0.17424458,-53.207292,68.627829)" />
    <polyline
       style="fill:none;stroke:#000000;stroke-width:3.97000003;stroke-linejoin:bevel"
       class="LedgerLine"
       points="1746.58,758.268 1796.18,758.268"
       id="polyline17"
       transform="matrix(0.12886636,0,0,0.17424458,-53.207292,68.627829)" />
    <polyline
       style="fill:none;stroke:#000000;stroke-width:3.97000003;stroke-linejoin:bevel"
       class="LedgerLine"
       points="1000.83,807.874 1050.43,807.874"
       id="polyline18"
       transform="matrix(0.12886636,0,0,0.17424458,-53.207292,68.627829)" />
    <polyline
       style="fill:none;stroke:#000000;stroke-width:3.97000003;stroke-linejoin:bevel"
       class="LedgerLine"
       points="1000.83,783.071 1050.43,783.071"
       id="polyline19"
       transform="matrix(0.12886636,0,0,0.17424458,-53.207292,68.627829)" />
    <polyline
       style="fill:none;stroke:#000000;stroke-width:3.97000003;stroke-linejoin:bevel"
       class="LedgerLine"
       points="528.133,783.071 577.732,783.071"
       id="polyline20"
       transform="matrix(0.12886636,0,0,0.17424458,-53.207292,68.627829)" />
    <polyline
       style="fill:none;stroke:#000000;stroke-width:3.97000003;stroke-linejoin:bevel"
       class="LedgerLine"
       points="1273.89,783.071 1323.48,783.071"
       id="polyline21"
       transform="matrix(0.12886636,0,0,0.17424458,-53.207292,68.627829)" />
    <polyline
       style="fill:none;stroke:#000000;stroke-width:3.97000003;stroke-linejoin:bevel"
       class="LedgerLine"
       points="1273.89,758.268 1323.48,758.268"
       id="polyline22"
       transform="matrix(0.12886636,0,0,0.17424458,-53.207292,68.627829)" />
    <polyline
       style="fill:none;stroke:#000000;stroke-width:3.97000003;stroke-linejoin:bevel"
       class="LedgerLine"
       points="1510.23,783.071 1559.83,783.071"
       id="polyline23"
       transform="matrix(0.12886636,0,0,0.17424458,-53.207292,68.627829)" />
    <polyline
       style="fill:none;stroke:#000000;stroke-width:3.97000003;stroke-linejoin:bevel"
       class="LedgerLine"
       points="764.481,807.874 814.08,807.874"
       id="polyline24"
       transform="matrix(0.12886636,0,0,0.17424458,-53.207292,68.627829)" />
    <polyline
       style="fill:none;stroke:#000000;stroke-width:2.73000002;stroke-linejoin:bevel"
       class="Stem"
       points="1431.61,704.693 1431.61,621.85"
       id="polyline25"
       transform="matrix(0.12886636,0,0,0.17424458,-53.207292,68.627829)" />
    <polyline
       style="fill:none;stroke:#000000;stroke-width:2.73000002;stroke-linejoin:bevel"
       class="Stem"
       points="1040.38,816.307 1040.38,683.858"
       id="polyline26"
       transform="matrix(0.12886636,0,0,0.17424458,-53.207292,68.627829)" />
    <polyline
       style="fill:none;stroke:#000000;stroke-width:2.73000002;stroke-linejoin:bevel"
       class="Stem"
       points="1874.8,650.82 1874.8,733.465"
       id="polyline27"
       transform="matrix(0.12886636,0,0,0.17424458,-53.207292,68.627829)" />
    <polyline
       style="fill:none;stroke:#000000;stroke-width:2.73000002;stroke-linejoin:bevel"
       class="Stem"
       points="567.686,816.307 567.686,683.858"
       id="polyline28"
       transform="matrix(0.12886636,0,0,0.17424458,-53.207292,68.627829)" />
    <polyline
       style="fill:none;stroke:#000000;stroke-width:2.73000002;stroke-linejoin:bevel"
       class="Stem"
       points="804.034,816.307 804.034,683.858"
       id="polyline29"
       transform="matrix(0.12886636,0,0,0.17424458,-53.207292,68.627829)" />
    <polyline
       style="fill:none;stroke:#000000;stroke-width:2.73000002;stroke-linejoin:bevel"
       class="Stem"
       points="1786.13,779.102 1786.13,683.858"
       id="polyline30"
       transform="matrix(0.12886636,0,0,0.17424458,-53.207292,68.627829)" />
    <polyline
       style="fill:none;stroke:#000000;stroke-width:2.73000002;stroke-linejoin:bevel"
       class="Stem"
       points="1129.05,650.82 1129.05,733.465"
       id="polyline31"
       transform="matrix(0.12886636,0,0,0.17424458,-53.207292,68.627829)" />
    <polyline
       style="fill:none;stroke:#000000;stroke-width:2.73000002;stroke-linejoin:bevel"
       class="Stem"
       points="685.86,704.693 685.86,621.85"
       id="polyline32"
       transform="matrix(0.12886636,0,0,0.17424458,-53.207292,68.627829)" />
    <polyline
       style="fill:none;stroke:#000000;stroke-width:2.73000002;stroke-linejoin:bevel"
       class="Stem"
       points="1549.79,779.102 1549.79,683.858"
       id="polyline33"
       transform="matrix(0.12886636,0,0,0.17424458,-53.207292,68.627829)" />
    <polyline
       style="fill:none;stroke:#000000;stroke-width:2.73000002;stroke-linejoin:bevel"
       class="Stem"
       points="1638.45,688.025 1638.45,758.268"
       id="polyline34"
       transform="matrix(0.12886636,0,0,0.17424458,-53.207292,68.627829)" />
    <polyline
       style="fill:none;stroke:#000000;stroke-width:2.73000002;stroke-linejoin:bevel"
       class="Stem"
       points="1313.44,779.102 1313.44,683.858"
       id="polyline35"
       transform="matrix(0.12886636,0,0,0.17424458,-53.207292,68.627829)" />
    <polyline
       style="fill:none;stroke:#000000;stroke-width:2.73000002;stroke-linejoin:bevel"
       class="Stem"
       points="2059.19,741.898 2059.19,659.055"
       id="polyline36"
       transform="matrix(0.12886636,0,0,0.17424458,-53.207292,68.627829)" />
    <polyline
       style="fill:none;stroke:#000000;stroke-width:2.73000002;stroke-linejoin:bevel"
       class="Stem"
       points="2177.37,704.693 2177.37,621.85"
       id="polyline37"
       transform="matrix(0.12886636,0,0,0.17424458,-53.207292,68.627829)" />
    <polyline
       style="fill:none;stroke:#000000;stroke-width:2.73000002;stroke-linejoin:bevel"
       class="Stem"
       points="2295.54,741.898 2295.54,659.055"
       id="polyline38"
       transform="matrix(0.12886636,0,0,0.17424458,-53.207292,68.627829)" />
    <polyline
       style="fill:none;stroke:#000000;stroke-width:2.73000002;stroke-linejoin:bevel"
       class="Stem"
       points="892.7,688.025 892.7,758.268"
       id="polyline39"
       transform="matrix(0.12886636,0,0,0.17424458,-53.207292,68.627829)" />
    <polyline
       style="fill:none;stroke:#000000;stroke-width:2.73000002;stroke-linejoin:bevel"
       class="Stem"
       points="2384.2,688.025 2384.2,758.268"
       id="polyline40"
       transform="matrix(0.12886636,0,0,0.17424458,-53.207292,68.627829)" />
    <polyline
       style="fill:none;stroke:#000000;stroke-width:2.73000002;stroke-linejoin:bevel"
       class="Stem"
       points="2531.89,741.898 2531.89,659.055"
       id="polyline41"
       transform="matrix(0.12886636,0,0,0.17424458,-53.207292,68.627829)" />
    <polyline
       style="fill:none;stroke:#000000;stroke-width:2.73000002;stroke-linejoin:bevel"
       class="Stem"
       points="2620.55,650.82 2620.55,733.465"
       id="polyline42"
       transform="matrix(0.12886636,0,0,0.17424458,-53.207292,68.627829)" />
    <path
       inkscape:connector-curvature="0"
       class="Note"
       d="m 142.52912,205.80031 c 0,0.74281 0.39554,1.57206 1.43233,1.57206 1.32847,0 2.72285,-1.46942 2.72285,-2.99016 0,-1.02103 -0.63926,-1.59096 -1.43234,-1.59096 -1.24056,0 -2.72284,1.41809 -2.72284,3.00906"
       id="path42"
       style="stroke-width:0.14866757" />
    <path
       inkscape:connector-curvature="0"
       class="Note"
       d="m 76.884588,212.28308 c 0,0.74281 0.395542,1.57206 1.432333,1.57206 1.328475,0 2.722847,-1.46941 2.722847,-2.99015 0,-1.02104 -0.639255,-1.59097 -1.432339,-1.59097 -1.240555,0 -2.722841,1.41809 -2.722841,3.00906"
       id="path43"
       style="stroke-width:0.14866757" />
    <path
       inkscape:connector-curvature="0"
       class="Note"
       d="m 172.98668,205.80031 c 0,0.74281 0.39554,1.57206 1.43234,1.57206 1.32846,0 2.72284,-1.46942 2.72284,-2.99016 0,-1.02103 -0.63925,-1.59096 -1.43234,-1.59096 -1.24056,0 -2.72284,1.41809 -2.72284,3.00906"
       id="path44"
       style="stroke-width:0.14866757" />
    <path
       inkscape:connector-curvature="0"
       class="Note"
       d="m 188.21611,182.03021 c 0,0.74281 0.39554,1.57207 1.43233,1.57207 1.32847,0 2.72285,-1.46943 2.72285,-2.99017 0,-1.02102 -0.63926,-1.59096 -1.43234,-1.59096 -1.24056,0 -2.72284,1.41809 -2.72284,3.00906"
       id="path45"
       style="stroke-width:0.14866757" />
    <path
       inkscape:connector-curvature="0"
       class="Note"
       d="m 15.969972,212.28308 c 0,0.74281 0.395542,1.57206 1.432339,1.57206 1.328469,0 2.722841,-1.46941 2.722841,-2.99015 0,-1.02104 -0.639258,-1.59097 -1.432333,-1.59097 -1.240556,0 -2.722847,1.41809 -2.722847,3.00906"
       id="path46"
       style="stroke-width:0.14866757" />
    <path
       inkscape:connector-curvature="0"
       class="Note"
       d="m 157.75854,188.51298 c 0,0.74282 0.39554,1.57206 1.43233,1.57206 1.32848,0 2.72285,-1.46941 2.72285,-2.99015 0,-1.02104 -0.63925,-1.59097 -1.43234,-1.59097 -1.24055,0 -2.72284,1.4181 -2.72284,3.00906"
       id="path47"
       style="stroke-width:0.14866757" />
    <path
       inkscape:connector-curvature="0"
       class="Note"
       d="m 208.17493,199.31754 c 0,0.74281 0.39554,1.57207 1.43233,1.57207 1.32848,0 2.72285,-1.46943 2.72285,-2.99017 0,-1.02102 -0.63926,-1.59096 -1.43234,-1.59096 -1.24056,0 -2.72284,1.41809 -2.72284,3.00906"
       id="path48"
       style="stroke-width:0.14866757" />
    <path
       inkscape:connector-curvature="0"
       class="Note"
       d="m 31.198625,192.83477 c 0,0.74281 0.395542,1.57206 1.432336,1.57206 1.328468,0 2.722845,-1.46941 2.722845,-2.99015 0,-1.02103 -0.639259,-1.59097 -1.432336,-1.59097 -1.240558,0 -2.722845,1.41809 -2.722845,3.00906"
       id="path49"
       style="stroke-width:0.14866757" />
    <path
       inkscape:connector-curvature="0"
       class="Note"
       d="m 223.40306,192.83477 c 0,0.74281 0.39555,1.57206 1.43234,1.57206 1.32847,0 2.72284,-1.46941 2.72284,-2.99015 0,-1.02103 -0.63925,-1.59097 -1.43233,-1.59097 -1.24056,0 -2.72285,1.41809 -2.72285,3.00906"
       id="path50"
       style="stroke-width:0.14866757" />
    <path
       inkscape:connector-curvature="0"
       class="Note"
       d="m 92.112724,182.03021 c 0,0.74281 0.395542,1.57207 1.432339,1.57207 1.328468,0 2.722841,-1.46943 2.722841,-2.99017 0,-1.02102 -0.639255,-1.59096 -1.432339,-1.59096 -1.240555,0 -2.722841,1.41809 -2.722841,3.00906"
       id="path51"
       style="stroke-width:0.14866757" />
    <path
       inkscape:connector-curvature="0"
       class="Note"
       d="m 46.427277,212.28308 c 0,0.74281 0.395541,1.57206 1.432338,1.57206 1.328468,0 2.722846,-1.46941 2.722846,-2.99015 0,-1.02104 -0.639258,-1.59097 -1.432339,-1.59097 -1.240555,0 -2.722845,1.41809 -2.722845,3.00906"
       id="path52"
       style="stroke-width:0.14866757" />
    <path
       inkscape:connector-curvature="0"
       class="Note"
       d="m 112.07283,205.80031 c 0,0.74281 0.39554,1.57206 1.43234,1.57206 1.32847,0 2.72284,-1.46942 2.72284,-2.99016 0,-1.02103 -0.63925,-1.59096 -1.43234,-1.59096 -1.24055,0 -2.72284,1.41809 -2.72284,3.00906"
       id="path53"
       style="stroke-width:0.14866757" />
    <path
       inkscape:connector-curvature="0"
       class="Note"
       d="m 253.86063,188.51298 c 0,0.74282 0.39554,1.57206 1.43233,1.57206 1.32848,0 2.72285,-1.46941 2.72285,-2.99015 0,-1.02104 -0.63925,-1.59097 -1.43234,-1.59097 -1.24055,0 -2.72284,1.4181 -2.72284,3.00906"
       id="path54"
       style="stroke-width:0.14866757" />
    <path
       inkscape:connector-curvature="0"
       class="Note"
       d="m 61.655937,188.51298 c 0,0.74282 0.395542,1.57206 1.432333,1.57206 1.328468,0 2.722847,-1.46941 2.722847,-2.99015 0,-1.02104 -0.639267,-1.59097 -1.432339,-1.59097 -1.240555,0 -2.722841,1.4181 -2.722841,3.00906"
       id="path55"
       style="stroke-width:0.14866757" />
    <path
       inkscape:connector-curvature="0"
       class="Note"
       d="m 269.08877,199.31754 c 0,0.74281 0.39554,1.57207 1.43233,1.57207 1.32847,0 2.72285,-1.46943 2.72285,-2.99017 0,-1.02102 -0.63925,-1.59096 -1.43234,-1.59096 -1.24055,0 -2.72284,1.41809 -2.72284,3.00906"
       id="path56"
       style="stroke-width:0.14866757" />
    <path
       inkscape:connector-curvature="0"
       class="Note"
       d="m 127.30097,192.83477 c 0,0.74281 0.39555,1.57206 1.43234,1.57206 1.32847,0 2.72284,-1.46941 2.72284,-2.99015 0,-1.02103 -0.63925,-1.59097 -1.43233,-1.59097 -1.24056,0 -2.72285,1.41809 -2.72285,3.00906"
       id="path57"
       style="stroke-width:0.14866757" />
    <path
       inkscape:connector-curvature="0"
       class="Note"
       d="m 284.3182,182.03021 c 0,0.74281 0.39554,1.57207 1.43233,1.57207 1.32847,0 2.72285,-1.46943 2.72285,-2.99017 0,-1.02102 -0.63926,-1.59096 -1.43234,-1.59096 -1.24056,0 -2.72284,1.41809 -2.72284,3.00906"
       id="path58"
       style="stroke-width:0.14866757" />
    <path
       inkscape:connector-curvature="0"
       class="Note"
       d="m 238.63249,199.31754 c 0,0.74281 0.39555,1.57207 1.43234,1.57207 1.32846,0 2.72284,-1.46943 2.72284,-2.99017 0,-1.02102 -0.63925,-1.59096 -1.43234,-1.59096 -1.24056,0 -2.72284,1.41809 -2.72284,3.00906"
       id="path59"
       style="stroke-width:0.14866757" />
    <path
       inkscape:connector-curvature="0"
       class="Clef"
       d="m 0.91053192,192.05685 c 0,-2.5931 -1.36841224,-4.35693 -3.23425272,-4.35693 -0.1278516,-1.03724 -0.243712,-2.07448 -0.3575755,-3.02527 1.3424425,-1.92052 2.28734178,-4.09762 2.28734178,-6.82847 0,-1.59097 -0.3575852,-2.8524 -0.5753276,-3.4763 -0.30564578,-0.88061 -0.67721938,-1.50468 -0.89496648,-1.50468 -0.087894,0 -0.4974185,0.22698 -0.906953,0.89963 -0.8310358,1.31539 -1.0607597,3.50871 -1.0607597,4.96191 0,0.9346 0.063926,1.78005 0.2816682,3.73567 -0.013978,0 -0.6792114,0.91569 -0.946906,1.22632 -1.1646386,1.45321 -2.7747757,3.56009 -2.7747757,7.00134 0,3.24947 2.0835828,5.79123 4.4628268,5.79123 0.3695668,0 0.7151657,-0.0513 1.0228134,-0.12154 0.2297238,1.66118 0.383555,2.87129 0.383555,3.78698 0,1.79896 -0.6912027,2.74976 -1.9697193,2.74976 -0.3196292,0 -0.5873141,-0.0864 -0.6012974,-0.10535 -0.023963,0 -0.049943,-0.0162 -0.049943,-0.0324 0,-0.0351 0.02596,-0.054 0.063926,-0.0702 0.6012973,-0.12155 1.2006026,-0.81304 1.2006026,-1.9178 0,-0.9346 -0.5233979,-1.92051 -1.4822854,-1.92051 -0.8829704,0 -1.458303,0.98591 -1.458303,2.12579 0,1.14259 0.6392584,2.64711 2.3652608,2.64711 1.6500755,0 2.45514658,-1.26413 2.45514658,-3.47635 0,-0.67259 -0.075907,-1.45051 -0.20375908,-2.43642 -0.037942,-0.34575 -0.1018868,-0.88328 -0.1917775,-1.53965 1.25253719,-0.56995 2.18545988,-2.31757 2.18545988,-4.11383 M -3.0269053,177.89754 c 0.1278517,-0.6915 0.7031842,-2.50666 1.368422,-2.50666 0.1917775,0 0.5114067,0.82923 0.5114067,2.03934 0,1.78006 -0.9968436,3.13062 -1.8798287,4.32182 -0.075907,-0.69149 -0.1398283,-1.38298 -0.1398283,-2.09067 0,-0.65638 0.049938,-1.22902 0.1398283,-1.76383 m 0.383555,17.87609 c -1.8278697,0 -3.3880643,-1.72873 -3.3880643,-4.34072 0,-2.10689 1.1127138,-3.99227 2.2254227,-5.32393 0.2157454,-0.24311 0.4215111,-0.50242 0.6132886,-0.74281 0.1138635,0.93188 0.2177472,1.72872 0.2936497,2.45532 -1.1646386,0.4484 -1.9557214,2.12579 -1.9557214,3.73297 0,1.22902 0.7031842,2.88752 1.7259975,2.88752 0.1018722,0 0.2177424,-0.0702 0.2177424,-0.2431 0,-0.13776 -0.1158702,-0.24041 -0.2816682,-0.37816 -0.4994252,-0.39977 -0.7810933,-0.86437 -0.7810933,-1.69632 0,-1.05344 0.5893158,-1.90161 1.3304463,-2.142 l 0.7411452,5.66969 c -0.2557033,0.0864 -0.4854418,0.12154 -0.7411452,0.12154 m 1.2785165,-0.32953 c -0.2676849,-2.05557 -0.6132789,-4.80532 -0.7031842,-5.56705 1.29051278,0 1.8418725,1.21012 1.95573595,2.04207 0.0139784,0.13776 0.0379416,0.32684 0.0379416,0.53482 0,1.24522 -0.38355507,2.50665 -1.29050795,2.99016 m -0.4994154,9.05959 c 0,-0.64016 -0.4334926,-0.91567 -0.8550086,-0.91567 -0.5373716,0 -1.0627664,0.44839 -1.0627664,1.22631 0,0.32955 0.089891,0.57264 0.2816682,0.81304 -0.3316059,0.17287 -0.6772194,0.51861 -0.6772194,1.05615 0,0.56994 0.3835551,0.95079 0.9469109,0.95079 0.689196,0 1.1746378,-0.51861 1.1746378,-1.26413 0,-0.39707 -0.1278517,-0.7239 -0.3575902,-0.95079 0.3715736,-0.22421 0.5493677,-0.49971 0.5493677,-0.9157 m -0.7910828,0.69149 c -0.1917775,-0.13774 -0.2437267,-0.17287 -0.2816682,-0.20798 l -0.013978,-0.0162 c -0.2037737,-0.15667 -0.2676995,-0.27821 -0.2676995,-0.4835 0,-0.31333 0.1798008,-0.53753 0.4355042,-0.53753 0.2557033,0 0.3955316,0.20798 0.3955316,0.56994 0,0.27822 -0.075902,0.46729 -0.26768,0.67527 m -0.4874387,2.07448 c -0.2796713,0 -0.4714488,-0.2404 -0.4714488,-0.60506 0,-0.32683 0.1138635,-0.62125 0.3316059,-0.79412 0.051949,0.0351 0.063926,0.0513 0.1018868,0.0675 0.1538165,0.10535 0.1538165,0.10535 0.179796,0.14046 0.2557033,0.18909 0.3455988,0.36196 0.3455988,0.60506 0,0.32683 -0.2057656,0.58614 -0.4874387,0.58614"
       id="path60"
       style="stroke-width:0.14866757" />
    <path
       inkscape:connector-curvature="0"
       class="TimeSig"
       d="m 7.440903,182.72177 c -0.7810883,0 -1.0607597,0.31063 -1.2405609,0.56994 -0.037941,-0.36196 -0.063928,-0.64017 -0.063928,-0.91569 0,-0.98591 0.2557031,-2.26626 1.1506651,-2.26626 0.3196292,0 0.5114062,0.14046 0.6392583,0.32955 -0.2676801,0.15666 -0.4854371,0.62125 -0.4854371,1.02102 0,0.62127 0.357585,1.10477 0.8190544,1.10477 0.4594623,0 0.8310359,-0.4835 0.8310359,-1.10477 v -0.054 c 0,-0.15397 -0.025961,-0.41328 -0.077914,-0.55103 -0.165808,-0.62395 -0.7031845,-1.53964 -1.9817011,-1.53964 -1.1506651,0 -1.981701,1.48561 -2.2374041,2.28245 -0.1278515,0.41328 -0.3196292,1.26143 -0.3196292,2.22844 0,1.05614 0.2177518,2.24735 0.9708743,3.14683 0.7431466,0.7617 1.2145957,0.79683 1.6620764,0.79683 0.4494775,0 2.1235309,-0.7104 2.1235309,-2.71464 0,-1.69362 -0.9848571,-2.33378 -1.7899234,-2.33378 m -0.4734503,4.3218 c -0.4215117,0 -0.7671105,-0.77792 -0.7671105,-1.74762 0,-0.96701 0.3455988,-1.76114 0.7671105,-1.76114 0.4215155,0 0.7810979,0.79413 0.7810979,1.76114 0,0.9697 -0.3595824,1.74762 -0.7810979,1.74762"
       id="path61"
       style="stroke-width:0.14866757" />
    <path
       inkscape:connector-curvature="0"
       class="TimeSig"
       d="m 6.5859476,194.30418 v 1.27765 H 5.5251738 c -0.089896,0 -0.1797864,0.10533 -0.1797864,0.2431 v 0.32954 c 0,0.13775 0.089891,0.2404 0.1797864,0.2404 h 3.8735057 c 0.1038838,0 0.1797864,-0.10265 0.1797864,-0.2404 v -0.32954 c 0,-0.13777 -0.075903,-0.2431 -0.1797864,-0.2431 H 8.2620031 v -1.27765 h 1.1366764 c 0.1038838,0 0.1797864,-0.12154 0.1797864,-0.25931 v -0.32953 c 0,-0.12156 -0.075903,-0.2404 -0.1797864,-0.2404 H 8.2620031 v -2.74975 c 0,-0.10265 -0.037941,-0.18908 -0.1018825,-0.2242 l -0.1538212,-0.10534 c -0.025961,-0.0162 -0.063928,-0.0324 -0.089905,-0.0324 -0.037941,0.0162 -0.089891,0.0324 -0.1158603,0.0675 l -1.1626564,1.43431 c -0.037941,0.054 -0.051929,0.12155 -0.051929,0.19178 v 1.4181 H 5.1156495 c 0,0 1.4203563,-2.07447 2.9285973,-4.80803 0.051942,-0.0864 0.063928,-0.17288 0.063928,-0.2404 0,-0.0864 -0.025961,-0.15666 -0.037941,-0.17287 l -0.2816862,-0.38085 c -0.025961,-0.0351 -0.075903,-0.0703 -0.1278515,-0.0703 -0.075903,0 -1.8038974,0 -1.8917957,0 -0.1038793,0 -0.1678047,0.10535 -0.179796,0.208 0,0 -0.063928,1.28033 -0.3955413,2.67952 -0.3336128,1.4019 -0.717168,2.26626 -1.0487833,2.90372 0,0 -0.037941,0.0864 -0.037941,0.19179 0,0.0351 0,0.0675 0.01198,0.10264 0.051942,0.12155 0.1278515,0.31064 0.1278515,0.31064 0,0 0.025961,0.10533 0.1398383,0.10533 h 2.1994529"
       id="path62"
       style="stroke-width:0.14866757" />
    <path
       inkscape:connector-curvature="0"
       class="Fingering"
       d="m 175.23926,172.13834 -0.93814,0.1035 -0.0206,0.25318 h 0.12371 c 0.21135,0 0.29382,0.0627 0.29382,0.21519 0,0.068 -0.0142,0.16606 -0.0464,0.30754 l -0.65851,3.02211 c -0.10438,0.50374 -0.10953,0.50914 -0.45876,0.53092 l -0.0232,0.25039 h 1.23841 l 0.0206,-0.25039 h -0.0632 c -0.24743,0 -0.3299,-0.0408 -0.3299,-0.18244 0,-0.0543 0.0219,-0.17424 0.0593,-0.34848 l 0.25128,-1.13539 c 0.13918,0.48197 0.2732,0.61265 0.61341,0.61265 0.83377,0 1.33892,-1.22512 1.33892,-2.2434 0,-0.3403 -0.0503,-0.57169 -0.16882,-0.77312 -0.13402,-0.22339 -0.3402,-0.36226 -0.54123,-0.36226 -0.26418,0 -0.53609,0.20979 -0.76676,0.59366 l 0.076,-0.59366 m 0.53094,0.37027 c 0.23196,0 0.38659,0.24238 0.38659,0.61265 0,0.38386 -0.0876,0.85763 -0.24356,1.28784 -0.17912,0.52273 -0.3866,0.75953 -0.65851,0.75953 -0.25257,0 -0.43169,-0.26956 -0.43169,-0.63983 0,-0.62623 0.3634,-2.02019 0.94717,-2.02019"
       id="path63"
       style="stroke-width:0.14984746" />
    <path
       inkscape:connector-curvature="0"
       class="Fingering"
       d="m 88.918126,178.83369 c -0.720357,0 -1.246137,1.05906 -1.246137,2.52376 0,1.43473 0.509024,2.48577 1.2049,2.48577 0.721651,0 1.228099,-1.01567 1.228099,-2.46678 0,-0.73775 -0.114692,-1.35039 -0.331189,-1.83218 -0.201034,-0.4384 -0.530929,-0.71057 -0.855673,-0.71057 m -0.03611,0.29935 c 0.168816,0 0.335051,0.15247 0.458767,0.433 0.139173,0.32671 0.185566,0.72416 0.185566,1.67972 0,0.98291 -0.03611,1.44309 -0.139179,1.74802 -0.118554,0.34291 -0.304126,0.54992 -0.498711,0.54992 -0.175259,0 -0.336338,-0.15247 -0.458761,-0.43021 -0.145623,-0.3295 -0.185566,-0.75954 -0.185566,-1.9031 0,-0.81669 0.03611,-1.21971 0.139173,-1.52726 0.118554,-0.34849 0.30412,-0.55009 0.498711,-0.55009"
       id="path64"
       style="stroke-width:0.14984746" />
    <path
       inkscape:connector-curvature="0"
       class="Fingering"
       d="m 74.173367,210.2113 c -0.720879,0 -1.246394,1.05906 -1.246394,2.52377 0,1.43473 0.50941,2.48577 1.204121,2.48577 0.722816,0 1.228234,-1.01567 1.228234,-2.46678 0,-0.73776 -0.114692,-1.3504 -0.330159,-1.83219 -0.20142,-0.43839 -0.531572,-0.71057 -0.855802,-0.71057 m -0.03618,0.29936 c 0.169073,0 0.334284,0.15246 0.459025,0.433 0.138921,0.3267 0.185308,0.72415 0.185308,1.67971 0,0.98291 -0.03618,1.4431 -0.138915,1.74803 -0.118818,0.34291 -0.304126,0.54991 -0.499354,0.54991 -0.175267,0 -0.336345,-0.15247 -0.459161,-0.43021 -0.144966,-0.3295 -0.185173,-0.75953 -0.185173,-1.9031 0,-0.81668 0.03624,-1.21971 0.138915,-1.52725 0.118818,-0.34849 0.303998,-0.55009 0.499355,-0.55009"
       id="path65"
       style="stroke-width:0.14984746" />
    <path
       inkscape:connector-curvature="0"
       class="Fingering"
       d="m 190.98157,173.55077 -0.14175,0.62885 c -0.0335,-0.43283 -0.29124,-0.73235 -0.62758,-0.73235 -0.77706,0 -1.26675,1.32321 -1.26675,2.2434 0,0.68339 0.30412,1.13538 0.7616,1.13538 0.32603,0 0.52577,-0.17425 0.7835,-0.6752 -0.0206,0.10611 -0.0245,0.15246 -0.0245,0.22321 0,0.27234 0.12887,0.45199 0.31443,0.45199 0.41238,0 0.69975,-0.63443 0.85568,-1.08642 l -0.16108,-0.11692 c -0.19588,0.53633 -0.37759,0.82209 -0.51031,0.82209 -0.0619,0 -0.10825,-0.0789 -0.10825,-0.17424 0,-0.0789 0.0206,-0.19603 0.0567,-0.37847 l 0.51546,-2.34132 h -0.44717 m -0.68041,0.28036 c 0.24098,0 0.39046,0.22878 0.39046,0.62083 0,0.40286 -0.10309,0.95295 -0.2616,1.39117 -0.16107,0.433 -0.34665,0.62903 -0.60438,0.62903 -0.25773,0 -0.41237,-0.25876 -0.41237,-0.68339 0,-0.62624 0.28995,-1.95764 0.88789,-1.95764"
       id="path66"
       style="stroke-width:0.14984746" />
    <path
       inkscape:connector-curvature="0"
       class="Fingering"
       d="m 108.3937,202.36681 c -0.72037,0 -1.24615,1.05906 -1.24615,2.52376 0,1.43491 0.51032,2.48578 1.20491,2.48578 0.72294,0 1.2281,-1.0155 1.2281,-2.46661 0,-0.73793 -0.11469,-1.35039 -0.3299,-1.83236 -0.20232,-0.43839 -0.53222,-0.71057 -0.85696,-0.71057 m -0.0361,0.29953 c 0.17011,0 0.33506,0.15247 0.46006,0.43282 0.13789,0.32671 0.18428,0.72416 0.18428,1.6799 0,0.98273 -0.0361,1.44292 -0.13789,1.74785 -0.11985,0.34308 -0.30412,0.54991 -0.5,0.54991 -0.17525,0 -0.33634,-0.15247 -0.45877,-0.43021 -0.14562,-0.32932 -0.18557,-0.75953 -0.18557,-1.90293 0,-0.81686 0.0361,-1.21971 0.13918,-1.52743 0.11856,-0.34848 0.30413,-0.54991 0.49871,-0.54991"
       id="path67"
       style="stroke-width:0.14984746" />
    <path
       inkscape:connector-curvature="0"
       class="Fingering"
       d="m 18.2223,172.13834 -0.938275,0.1035 -0.02021,0.25318 h 0.122811 c 0.211469,0 0.294073,0.0627 0.294073,0.21519 0,0.068 -0.01418,0.16606 -0.04637,0.30754 l -0.65838,3.02211 c -0.104766,0.50374 -0.108765,0.50914 -0.459151,0.53092 l -0.02202,0.25039 h 1.238276 l 0.02012,-0.25039 h -0.06237 c -0.247682,0 -0.330281,-0.0408 -0.330281,-0.18244 0,-0.0543 0.02216,-0.17424 0.05837,-0.34848 l 0.251807,-1.13539 c 0.138917,0.48197 0.273841,0.61265 0.614048,0.61265 0.833637,0 1.339053,-1.22512 1.339053,-2.2434 0,-0.3403 -0.05039,-0.57169 -0.169203,-0.77312 -0.134924,-0.22339 -0.340207,-0.36226 -0.541629,-0.36226 -0.263788,0 -0.535564,0.20979 -0.767138,0.59366 l 0.07654,-0.59366 m 0.531576,0.37027 c 0.231569,0 0.386598,0.24238 0.386598,0.61265 0,0.38386 -0.08866,0.85763 -0.243687,1.28784 -0.179124,0.52273 -0.386599,0.75953 -0.65838,0.75953 -0.253736,0 -0.432991,-0.26956 -0.432991,-0.63983 0,-0.62623 0.364565,-2.02019 0.94846,-2.02019"
       id="path68"
       style="stroke-width:0.14984746" />
    <path
       inkscape:connector-curvature="0"
       class="Fingering"
       d="m 129.63732,171.8308 c -0.15464,0 -0.27706,0.16884 -0.27706,0.37846 0,0.20143 0.12242,0.37567 0.2732,0.37567 0.15979,0 0.28222,-0.16884 0.28222,-0.37567 0,-0.20962 -0.12243,-0.37846 -0.27836,-0.37846 m 0.0928,1.7015 -0.9884,0.1035 -0.0206,0.25318 h 0.12371 c 0.21134,0 0.29382,0.0627 0.29382,0.21519 0,0.068 -0.0103,0.14689 -0.0464,0.30754 l -0.30025,1.35859 c -0.0967,0.4438 -0.11211,0.5419 -0.11211,0.70238 0,0.24516 0.15464,0.43299 0.35051,0.43299 0.44201,0 0.74614,-0.62083 0.96393,-1.07264 l -0.16109,-0.11989 c -0.26804,0.54992 -0.48325,0.84405 -0.62243,0.84405 -0.0516,0 -0.0889,-0.0627 -0.0889,-0.14706 0,-0.0681 0.0206,-0.19603 0.0631,-0.38927 l 0.5451,-2.48856"
       id="path69"
       style="stroke-width:0.14984746" />
    <path
       inkscape:connector-curvature="0"
       class="Fingering"
       d="m 13.258757,208.90378 c -0.720752,0 -1.246395,1.05906 -1.246395,2.52393 0,1.43473 0.509537,2.4856 1.204124,2.4856 0.722939,0 1.228229,-1.0155 1.228229,-2.46661 0,-0.73775 -0.114692,-1.35039 -0.33016,-1.83236 -0.201416,-0.43822 -0.53157,-0.71056 -0.855798,-0.71056 m -0.03623,0.29952 c 0.169198,0 0.334275,0.15247 0.459151,0.43282 0.138918,0.32672 0.185178,0.72434 0.185178,1.6799 0,0.98291 -0.03619,1.44291 -0.138918,1.74785 -0.118811,0.34308 -0.303994,0.55008 -0.499357,0.55008 -0.175129,0 -0.336213,-0.15246 -0.45915,-0.43021 -0.144977,-0.32949 -0.185183,-0.7597 -0.185183,-1.9031 0,-0.81686 0.03619,-1.21971 0.138918,-1.52742 0.118817,-0.34849 0.303999,-0.54992 0.499361,-0.54992"
       id="path70"
       style="stroke-width:0.14984746" />
    <path
       inkscape:connector-curvature="0"
       class="Fingering"
       d="m 210.42751,172.13834 -0.93815,0.1035 -0.0206,0.25318 h 0.12243 c 0.21134,0 0.29381,0.0627 0.29381,0.21519 0,0.068 -0.0142,0.16606 -0.0464,0.30754 l -0.65851,3.02211 c -0.10437,0.50374 -0.10824,0.50914 -0.45875,0.53092 l -0.022,0.25039 h 1.2384 l 0.0206,-0.25039 h -0.0632 c -0.24742,0 -0.3299,-0.0408 -0.3299,-0.18244 0,-0.0543 0.0219,-0.17424 0.058,-0.34848 l 0.25258,-1.13539 c 0.13789,0.48197 0.2732,0.61265 0.61341,0.61265 0.83376,0 1.33892,-1.22512 1.33892,-2.2434 0,-0.3403 -0.0503,-0.57169 -0.16882,-0.77312 -0.13531,-0.22339 -0.3402,-0.36226 -0.54124,-0.36226 -0.26417,0 -0.53608,0.20979 -0.76804,0.59366 l 0.0773,-0.59366 m 0.53093,0.37027 c 0.23196,0 0.3866,0.24238 0.3866,0.61265 0,0.38386 -0.0889,0.85763 -0.24356,1.28784 -0.17912,0.52273 -0.3866,0.75953 -0.6585,0.75953 -0.25387,0 -0.433,-0.26956 -0.433,-0.63983 0,-0.62623 0.3647,-2.02019 0.94846,-2.02019"
       id="path71"
       style="stroke-width:0.14984746" />
    <path
       inkscape:connector-curvature="0"
       class="Fingering"
       d="m 205.46358,196.53781 c -0.72037,0 -1.24614,1.05906 -1.24614,2.52376 0,1.4349 0.50902,2.48577 1.20361,2.48577 0.72294,0 1.2281,-1.0155 1.2281,-2.46661 0,-0.73792 -0.11469,-1.35039 -0.3299,-1.83235 -0.20103,-0.4384 -0.53093,-0.71057 -0.85567,-0.71057 m -0.0361,0.29953 c 0.1688,0 0.33376,0.15246 0.45876,0.43282 0.13917,0.32671 0.18556,0.72416 0.18556,1.6799 0,0.98273 -0.0361,1.44291 -0.13918,1.74784 -0.11855,0.34309 -0.30412,0.54992 -0.49871,0.54992 -0.17526,0 -0.33634,-0.15247 -0.46005,-0.43021 -0.14433,-0.32932 -0.18427,-0.75954 -0.18427,-1.9031 0,-0.81669 0.0361,-1.21971 0.13788,-1.52726 0.11984,-0.34849 0.30413,-0.54991 0.50001,-0.54991"
       id="path72"
       style="stroke-width:0.14984746" />
    <path
       inkscape:connector-curvature="0"
       class="Fingering"
       d="m 33.535488,171.8308 c -0.155026,0 -0.277836,0.16884 -0.277836,0.37846 0,0.20143 0.12281,0.37567 0.273841,0.37567 0.159021,0 0.281831,-0.16884 0.281831,-0.37567 0,-0.20962 -0.12281,-0.37846 -0.277836,-0.37846 m 0.09266,1.7015 -0.988663,0.1035 -0.0201,0.25318 h 0.12281 c 0.211341,0 0.293944,0.0627 0.293944,0.21519 0,0.068 -0.01005,0.14689 -0.04626,0.30754 l -0.300001,1.35859 c -0.09665,0.4438 -0.112758,0.5419 -0.112758,0.70238 0,0.24516 0.155027,0.43299 0.35026,0.43299 0.443042,0 0.747038,-0.62083 0.964564,-1.07264 l -0.161083,-0.11989 c -0.267784,0.54992 -0.483249,0.84405 -0.622167,0.84405 -0.05245,0 -0.08866,-0.0627 -0.08866,-0.14706 0,-0.0681 0.0201,-0.19603 0.06237,-0.38927 l 0.545749,-2.48856"
       id="path73"
       style="stroke-width:0.14984746" />
    <path
       inkscape:connector-curvature="0"
       class="Fingering"
       d="m 28.487406,189.77224 c -0.720749,0 -1.246396,1.05906 -1.246396,2.52376 0,1.43473 0.509538,2.48577 1.204128,2.48577 0.722941,0 1.228225,-1.01549 1.228225,-2.46677 0,-0.73776 -0.114691,-1.3504 -0.330155,-1.83219 -0.201418,-0.4384 -0.531574,-0.71057 -0.855802,-0.71057 m -0.03622,0.29936 c 0.169202,0 0.33428,0.15246 0.459151,0.43299 0.138918,0.32671 0.185181,0.72416 0.185181,1.67972 0,0.98291 -0.03622,1.44309 -0.138918,1.74802 -0.118815,0.34292 -0.303995,0.54991 -0.499357,0.54991 -0.175129,0 -0.336212,-0.15246 -0.459151,-0.4302 -0.144975,-0.32932 -0.185181,-0.75953 -0.185181,-1.9031 0,-0.81668 0.03622,-1.21971 0.138918,-1.52725 0.118815,-0.34849 0.303996,-0.55009 0.499357,-0.55009"
       id="path74"
       style="stroke-width:0.14984746" />
    <path
       inkscape:connector-curvature="0"
       class="Fingering"
       d="m 225.7407,171.8308 c -0.15593,0 -0.27835,0.16884 -0.27835,0.37846 0,0.20143 0.12242,0.37567 0.27448,0.37567 0.15851,0 0.28094,-0.16884 0.28094,-0.37567 0,-0.20962 -0.12243,-0.37846 -0.27707,-0.37846 m 0.0928,1.7015 -0.9897,0.1035 -0.0193,0.25318 h 0.12242 c 0.21135,0 0.29382,0.0627 0.29382,0.21519 0,0.068 -0.0103,0.14689 -0.0464,0.30754 l -0.30025,1.35859 c -0.0967,0.4438 -0.11211,0.5419 -0.11211,0.70238 0,0.24516 0.15463,0.43299 0.35051,0.43299 0.4433,0 0.74614,-0.62083 0.96392,-1.07264 l -0.16108,-0.11989 c -0.26805,0.54992 -0.48325,0.84405 -0.62243,0.84405 -0.0516,0 -0.0876,-0.0627 -0.0876,-0.14706 0,-0.0681 0.0193,-0.19603 0.0619,-0.38927 l 0.5464,-2.48856"
       id="path75"
       style="stroke-width:0.14984746" />
    <path
       inkscape:connector-curvature="0"
       class="Fingering"
       d="m 48.679604,172.13834 -0.938402,0.1035 -0.02012,0.25318 h 0.12281 c 0.211469,0 0.294074,0.0627 0.294074,0.21519 0,0.068 -0.01418,0.16606 -0.04642,0.30754 l -0.65838,3.02211 c -0.104765,0.50374 -0.108764,0.50914 -0.459151,0.53092 l -0.02216,0.25039 h 1.238407 l 0.02012,-0.25039 h -0.06237 c -0.247681,0 -0.330286,-0.0408 -0.330286,-0.18244 0,-0.0543 0.02216,-0.17424 0.05838,-0.34848 l 0.251675,-1.13539 c 0.139044,0.48197 0.273841,0.61265 0.614175,0.61265 0.833636,0 1.339053,-1.22512 1.339053,-2.2434 0,-0.3403 -0.05039,-0.57169 -0.169203,-0.77312 -0.134924,-0.22339 -0.340207,-0.36226 -0.541628,-0.36226 -0.263789,0 -0.535565,0.20979 -0.76714,0.59366 l 0.07655,-0.59366 m 0.531576,0.37027 c 0.231574,0 0.386598,0.24238 0.386598,0.61265 0,0.38386 -0.08866,0.85763 -0.243687,1.28784 -0.179251,0.52273 -0.386599,0.75953 -0.658376,0.75953 -0.25374,0 -0.432991,-0.26956 -0.432991,-0.63983 0,-0.62623 0.364434,-2.02019 0.948456,-2.02019"
       id="path76"
       style="stroke-width:0.14984746" />
    <path
       inkscape:connector-curvature="0"
       class="Fingering"
       d="m 144.78169,172.13834 -0.93814,0.1035 -0.0206,0.25318 h 0.12372 c 0.21134,0 0.29381,0.0627 0.29381,0.21519 0,0.068 -0.0142,0.16606 -0.0463,0.30754 l -0.65851,3.02211 c -0.10438,0.50374 -0.10825,0.50914 -0.45876,0.53092 l -0.0219,0.25039 h 1.2384 l 0.0193,-0.25039 h -0.0619 c -0.24742,0 -0.33118,-0.0408 -0.33118,-0.18244 0,-0.0543 0.0232,-0.17424 0.0593,-0.34848 l 0.25129,-1.13539 c 0.13918,0.48197 0.27449,0.61265 0.61469,0.61265 0.83376,0 1.33892,-1.22512 1.33892,-2.2434 0,-0.3403 -0.0503,-0.57169 -0.1701,-0.77312 -0.13402,-0.22339 -0.34021,-0.36226 -0.54124,-0.36226 -0.26418,0 -0.53479,0.20979 -0.76675,0.59366 l 0.076,-0.59366 m 0.53223,0.37027 c 0.23067,0 0.3866,0.24238 0.3866,0.61265 0,0.38386 -0.0889,0.85763 -0.24356,1.28784 -0.17912,0.52273 -0.3866,0.75953 -0.65851,0.75953 -0.25387,0 -0.43299,-0.26956 -0.43299,-0.63983 0,-0.62623 0.36469,-2.02019 0.94846,-2.02019"
       id="path77"
       style="stroke-width:0.14984746" />
    <path
       inkscape:connector-curvature="0"
       class="Fingering"
       d="m 240.88378,172.13834 -0.93814,0.1035 -0.0193,0.25318 h 0.12242 c 0.21134,0 0.29382,0.0627 0.29382,0.21519 0,0.068 -0.0142,0.16606 -0.0464,0.30754 l -0.6585,3.02211 c -0.10438,0.50374 -0.10825,0.50914 -0.45876,0.53092 l -0.022,0.25039 h 1.23841 l 0.0193,-0.25039 h -0.0619 c -0.24743,0 -0.3299,-0.0408 -0.3299,-0.18244 0,-0.0543 0.022,-0.17424 0.058,-0.34848 l 0.2513,-1.13539 c 0.13917,0.48197 0.27448,0.61265 0.61469,0.61265 0.83376,0 1.33892,-1.22512 1.33892,-2.2434 0,-0.3403 -0.0503,-0.57169 -0.16882,-0.77312 -0.13531,-0.22339 -0.3402,-0.36226 -0.54253,-0.36226 -0.26289,0 -0.53479,0.20979 -0.76675,0.59366 l 0.076,-0.59366 m 0.53221,0.37027 c 0.23197,0 0.3866,0.24238 0.3866,0.61265 0,0.38386 -0.0889,0.85763 -0.24355,1.28784 -0.17913,0.52273 -0.3866,0.75953 -0.65851,0.75953 -0.25386,0 -0.43299,-0.26956 -0.43299,-0.63983 0,-0.62623 0.36469,-2.02019 0.94845,-2.02019"
       id="path78"
       style="stroke-width:0.14984746" />
    <path
       inkscape:connector-curvature="0"
       class="Fingering"
       d="m 43.23268,209.55754 c -0.720879,0 -1.246395,1.05906 -1.246395,2.52376 0,1.4349 0.509409,2.48577 1.204128,2.48577 0.722813,0 1.228224,-1.0155 1.228224,-2.46661 0,-0.73792 -0.114819,-1.35039 -0.330281,-1.83235 -0.20129,-0.4384 -0.531576,-0.71057 -0.855676,-0.71057 m -0.03633,0.29952 c 0.169203,0 0.33428,0.15247 0.459151,0.43283 0.138917,0.32671 0.185183,0.72416 0.185183,1.67989 0,0.98274 -0.03619,1.44292 -0.138918,1.74785 -0.118817,0.34309 -0.303994,0.54992 -0.499357,0.54992 -0.17513,0 -0.336213,-0.15247 -0.459024,-0.43022 -0.144976,-0.32932 -0.185309,-0.75953 -0.185309,-1.90292 0,-0.81686 0.03633,-1.21971 0.138917,-1.52743 0.118817,-0.34849 0.304126,-0.54992 0.499357,-0.54992"
       id="path79"
       style="stroke-width:0.14984746" />
    <path
       inkscape:connector-curvature="0"
       class="Fingering"
       d="m 114.32413,172.13834 -0.93815,0.1035 -0.0193,0.25318 h 0.12242 c 0.21134,0 0.29381,0.0627 0.29381,0.21519 0,0.068 -0.0142,0.16606 -0.0463,0.30754 l -0.65851,3.02211 c -0.10438,0.50374 -0.10825,0.50914 -0.45876,0.53092 l -0.0219,0.25039 h 1.2384 l 0.0193,-0.25039 h -0.0619 c -0.24743,0 -0.3299,-0.0408 -0.3299,-0.18244 0,-0.0543 0.0219,-0.17424 0.058,-0.34848 l 0.25128,-1.13539 c 0.13918,0.48197 0.27449,0.61265 0.6147,0.61265 0.83377,0 1.33892,-1.22512 1.33892,-2.2434 0,-0.3403 -0.0503,-0.57169 -0.16881,-0.77312 -0.13531,-0.22339 -0.34021,-0.36226 -0.54253,-0.36226 -0.26289,0 -0.53479,0.20979 -0.76675,0.59366 l 0.076,-0.59366 m 0.53221,0.37027 c 0.23196,0 0.3866,0.24238 0.3866,0.61265 0,0.38386 -0.0889,0.85763 -0.24356,1.28784 -0.17912,0.52273 -0.3866,0.75953 -0.6585,0.75953 -0.25387,0 -0.43299,-0.26956 -0.43299,-0.63983 0,-0.62623 0.36469,-2.02019 0.94845,-2.02019"
       id="path80"
       style="stroke-width:0.14984746" />
    <path
       inkscape:connector-curvature="0"
       class="Fingering"
       d="m 254.9328,173.5323 -0.93815,0.1035 -0.0154,0.25318 h 0.12371 c 0.20619,0 0.28867,0.0627 0.28867,0.22059 0,0.0626 -0.0167,0.16884 -0.0426,0.30214 l -0.52578,2.39586 h 0.44974 l 0.21134,-0.98274 c 0.23067,-1.06724 0.70103,-1.87312 1.08763,-1.87312 0.13403,0 0.2165,0.0953 0.2165,0.26955 0,0.14149 -0.0426,0.43283 -0.10438,0.69698 l -0.41109,1.88933 h 0.44717 l 0.22165,-1.01009 c 0.12887,-0.57989 0.25773,-0.96915 0.42269,-1.26868 0.18556,-0.34849 0.44974,-0.57709 0.64433,-0.57709 0.12886,0 0.20103,0.0897 0.20103,0.25579 0,0.0981 -0.0258,0.25056 -0.0722,0.44659 l -0.23711,0.99092 c -0.13918,0.54191 -0.14304,0.58547 -0.14304,0.7787 0,0.29413 0.1585,0.48736 0.40077,0.48736 0.1714,0 0.33634,-0.11168 0.5116,-0.3321 0.10825,-0.14167 0.17912,-0.26677 0.39046,-0.68339 l -0.15979,-0.14707 c -0.26675,0.54452 -0.45876,0.80868 -0.59149,0.80868 -0.0567,0 -0.10825,-0.0763 -0.10825,-0.17425 0,-0.0627 0.0154,-0.13887 0.0619,-0.34308 l 0.32474,-1.3504 c 0.0361,-0.15246 0.0619,-0.37027 0.0619,-0.52273 0,-0.37027 -0.20104,-0.63443 -0.47938,-0.63443 -0.36599,0 -0.69589,0.32131 -0.99486,0.98291 0.0206,-0.13347 0.0309,-0.25038 0.0309,-0.3349 0,-0.37027 -0.21777,-0.64801 -0.5,-0.64801 -0.32603,0 -0.56185,0.24516 -0.92397,0.94214 l 0.15077,-0.94214"
       id="path81"
       style="stroke-width:0.14984746" />
    <path
       inkscape:connector-curvature="0"
       class="Fingering"
       d="m 158.83071,173.5323 -0.93815,0.1035 -0.0167,0.25318 h 0.125 c 0.20618,0 0.28866,0.0627 0.28866,0.22059 0,0.0626 -0.0167,0.16884 -0.0425,0.30214 l -0.52577,2.39586 h 0.44845 l 0.21263,-0.98274 c 0.23067,-1.06724 0.69975,-1.87312 1.08635,-1.87312 0.1353,0 0.21777,0.0953 0.21777,0.26955 0,0.14149 -0.0426,0.43283 -0.10438,0.69698 l -0.41108,1.88933 h 0.44716 l 0.22166,-1.01009 c 0.12886,-0.57989 0.25773,-0.96915 0.42268,-1.26868 0.18556,-0.34849 0.44845,-0.57709 0.64433,-0.57709 0.12887,0 0.20104,0.0897 0.20104,0.25579 0,0.0981 -0.0257,0.25056 -0.0722,0.44659 l -0.23712,0.99092 c -0.13917,0.54191 -0.14304,0.58547 -0.14304,0.7787 0,0.29413 0.15851,0.48736 0.40078,0.48736 0.1701,0 0.33505,-0.11168 0.51031,-0.3321 0.10953,-0.14167 0.17912,-0.26677 0.39175,-0.68339 l -0.15979,-0.14707 c -0.26804,0.54452 -0.45877,0.80868 -0.5915,0.80868 -0.0567,0 -0.10954,-0.0763 -0.10954,-0.17425 0,-0.0627 0.0167,-0.13887 0.0632,-0.34308 l 0.32345,-1.3504 c 0.0361,-0.15246 0.0632,-0.37027 0.0632,-0.52273 0,-0.37027 -0.20103,-0.63443 -0.47938,-0.63443 -0.36598,0 -0.69717,0.32131 -0.99485,0.98291 0.0206,-0.13347 0.0297,-0.25038 0.0297,-0.3349 0,-0.37027 -0.21649,-0.64801 -0.49871,-0.64801 -0.32603,0 -0.56186,0.24516 -0.92397,0.94214 l 0.15077,-0.94214"
       id="path82"
       style="stroke-width:0.14984746" />
    <path
       inkscape:connector-curvature="0"
       class="Fingering"
       d="m 62.72823,173.5323 -0.938276,0.1035 -0.01616,0.25318 h 0.124876 c 0.205412,0 0.287885,0.0627 0.287885,0.22059 0,0.0626 -0.01609,0.16884 -0.04229,0.30214 l -0.525522,2.39586 h 0.44897 l 0.211476,-0.98274 c 0.231566,-1.06724 0.700768,-1.87312 1.087368,-1.87312 0.134796,0 0.217398,0.0953 0.217398,0.26955 0,0.14149 -0.04229,0.43283 -0.104637,0.69698 l -0.41083,1.88933 h 0.44704 l 0.221524,-1.01009 c 0.128866,-0.57989 0.257726,-0.96915 0.422803,-1.26868 0.185185,-0.34849 0.448976,-0.57709 0.644333,-0.57709 0.128867,0 0.201292,0.0897 0.201292,0.25579 0,0.0981 -0.02613,0.25056 -0.07242,0.44659 l -0.23763,0.99092 c -0.138916,0.54191 -0.142913,0.58547 -0.142913,0.7787 0,0.29413 0.159025,0.48736 0.400646,0.48736 0.17114,0 0.336216,-0.11168 0.511476,-0.3321 0.108763,-0.14167 0.179122,-0.26677 0.390591,-0.68339 l -0.159019,-0.14707 c -0.267788,0.54452 -0.459154,0.80868 -0.592018,0.80868 -0.05645,0 -0.108763,-0.0763 -0.108763,-0.17425 0,-0.0627 0.01609,-0.13887 0.06251,-0.34308 l 0.324095,-1.3504 c 0.03618,-0.15246 0.06251,-0.37027 0.06251,-0.52273 0,-0.37027 -0.20142,-0.63443 -0.479257,-0.63443 -0.36649,0 -0.696649,0.32131 -0.994718,0.98291 0.02008,-0.13347 0.03013,-0.25038 0.03013,-0.3349 0,-0.37027 -0.217397,-0.64801 -0.499354,-0.64801 -0.326161,0 -0.561731,0.24516 -0.924101,0.94214 l 0.150901,-0.94214"
       id="path83"
       style="stroke-width:0.14984746" />
    <path
       inkscape:connector-curvature="0"
       class="Fingering"
       d="m 271.34135,172.13834 -0.93814,0.1035 -0.0206,0.25318 h 0.12372 c 0.21134,0 0.29381,0.0627 0.29381,0.21519 0,0.068 -0.0142,0.16606 -0.0464,0.30754 l -0.65851,3.02211 c -0.10438,0.50374 -0.10825,0.50914 -0.45876,0.53092 l -0.0219,0.25039 h 1.23841 l 0.0193,-0.25039 h -0.0619 c -0.24743,0 -0.33119,-0.0408 -0.33119,-0.18244 0,-0.0543 0.0232,-0.17424 0.0593,-0.34848 l 0.25129,-1.13539 c 0.13918,0.48197 0.27449,0.61265 0.61469,0.61265 0.83377,0 1.33893,-1.22512 1.33893,-2.2434 0,-0.3403 -0.0503,-0.57169 -0.17011,-0.77312 -0.13402,-0.22339 -0.3402,-0.36226 -0.54124,-0.36226 -0.26417,0 -0.53479,0.20979 -0.76675,0.59366 l 0.076,-0.59366 m 0.53222,0.37027 c 0.23067,0 0.3866,0.24238 0.3866,0.61265 0,0.38386 -0.0889,0.85763 -0.24356,1.28784 -0.17912,0.52273 -0.3866,0.75953 -0.65851,0.75953 -0.25386,0 -0.43299,-0.26956 -0.43299,-0.63983 0,-0.62623 0.36469,-2.02019 0.94846,-2.02019"
       id="path84"
       style="stroke-width:0.14984746" />
    <path
       inkscape:connector-curvature="0"
       class="Fingering"
       d="m 58.944715,185.45708 c -0.720879,0 -1.246396,1.05905 -1.246396,2.52375 0,1.4349 0.509405,2.48578 1.204124,2.48578 0.722812,0 1.228229,-1.0155 1.228229,-2.46661 0,-0.73793 -0.114692,-1.3504 -0.330159,-1.83235 -0.201417,-0.43841 -0.531571,-0.71057 -0.855798,-0.71057 m -0.03624,0.29952 c 0.169071,0 0.33428,0.15246 0.459019,0.43283 0.139049,0.3267 0.185315,0.72416 0.185315,1.67989 0,0.98274 -0.03624,1.44291 -0.138923,1.74784 -0.118812,0.34309 -0.304122,0.54992 -0.499357,0.54992 -0.175257,0 -0.33634,-0.15246 -0.459151,-0.43021 -0.144971,-0.32932 -0.185178,-0.75953 -0.185178,-1.90292 0,-0.81686 0.03619,-1.21972 0.138918,-1.52743 0.118812,-0.34849 0.303995,-0.54992 0.499357,-0.54992"
       id="path85"
       style="stroke-width:0.14984746" />
    <path
       inkscape:connector-curvature="0"
       class="Fingering"
       d="m 79.137171,172.13834 -0.938148,0.1035 -0.0206,0.25318 h 0.122423 c 0.211341,0 0.293814,0.0627 0.293814,0.21519 0,0.068 -0.01287,0.16606 -0.04512,0.30754 l -0.658508,3.02211 c -0.105667,0.50374 -0.109529,0.50914 -0.460049,0.53092 l -0.02189,0.25039 h 1.238405 l 0.0206,-0.25039 h -0.06315 c -0.247421,0 -0.329895,-0.0408 -0.329895,-0.18244 0,-0.0543 0.02195,-0.17424 0.058,-0.34848 l 0.252583,-1.13539 c 0.137885,0.48197 0.273196,0.61265 0.613403,0.61265 0.833768,0 1.338922,-1.22512 1.338922,-2.2434 0,-0.3403 -0.05027,-0.57169 -0.168816,-0.77312 -0.13531,-0.22339 -0.340207,-0.36226 -0.541235,-0.36226 -0.264183,0 -0.536092,0.20979 -0.76805,0.59366 l 0.07732,-0.59366 m 0.530928,0.37027 c 0.231959,0 0.386601,0.24238 0.386601,0.61265 0,0.38386 -0.08763,0.85763 -0.243559,1.28784 -0.179129,0.52273 -0.3866,0.75953 -0.658508,0.75953 -0.253865,0 -0.432993,-0.26956 -0.432993,-0.63983 0,-0.62623 0.364694,-2.02019 0.948459,-2.02019"
       id="path86"
       style="stroke-width:0.14984746" />
    <path
       inkscape:connector-curvature="0"
       class="Fingering"
       d="m 287.08366,173.55077 -0.14046,0.62885 c -0.0348,-0.43283 -0.29252,-0.73235 -0.62887,-0.73235 -0.77706,0 -1.26675,1.32321 -1.26675,2.2434 0,0.68339 0.30412,1.13538 0.7616,1.13538 0.32603,0 0.52578,-0.17425 0.7835,-0.6752 -0.0206,0.10611 -0.0245,0.15246 -0.0245,0.22321 0,0.27234 0.12886,0.45199 0.31443,0.45199 0.41238,0 0.70104,-0.63443 0.85568,-1.08642 l -0.16108,-0.11692 c -0.19588,0.53633 -0.37629,0.82209 -0.50903,0.82209 -0.0632,0 -0.10953,-0.0789 -0.10953,-0.17424 0,-0.0789 0.0206,-0.19603 0.0567,-0.37847 l 0.51546,-2.34132 h -0.44717 m -0.68041,0.28036 c 0.24098,0 0.39047,0.22878 0.39047,0.62083 0,0.40286 -0.1031,0.95295 -0.26161,1.39117 -0.16107,0.433 -0.34665,0.62903 -0.60438,0.62903 -0.25773,0 -0.41237,-0.25876 -0.41237,-0.68339 0,-0.62624 0.28995,-1.95764 0.88789,-1.95764"
       id="path87"
       style="stroke-width:0.14984746" />
    <path
       inkscape:connector-curvature="0"
       class="Fingering"
       d="m 94.879486,173.55077 -0.141754,0.62885 c -0.03354,-0.43283 -0.291239,-0.73235 -0.627577,-0.73235 -0.777069,0 -1.266755,1.32321 -1.266755,2.2434 0,0.68339 0.30412,1.13538 0.761594,1.13538 0.326032,0 0.524492,-0.17425 0.782218,-0.6752 -0.01931,0.10611 -0.02317,0.15246 -0.02317,0.22321 0,0.27234 0.128861,0.45199 0.313145,0.45199 0.413663,0 0.701033,-0.63443 0.855668,-1.08642 l -0.161079,-0.11692 c -0.19459,0.53633 -0.376287,0.82209 -0.509023,0.82209 -0.06186,0 -0.108248,-0.0789 -0.108248,-0.17424 0,-0.0789 0.01931,-0.19603 0.05542,-0.37847 l 0.515467,-2.34132 h -0.44588 m -0.681702,0.28036 c 0.242271,0 0.391756,0.22878 0.391756,0.62083 0,0.40286 -0.103098,0.95295 -0.262889,1.39117 -0.161085,0.433 -0.345357,0.62903 -0.603097,0.62903 -0.257733,0 -0.413655,-0.25876 -0.413655,-0.68339 0,-0.62624 0.289945,-1.95764 0.887885,-1.95764"
       id="path88"
       style="stroke-width:0.14984746" />
    <path
       inkscape:connector-curvature="0"
       class="Fingering"
       d="m 124.38439,189.79583 c -0.72075,0 -1.2464,1.05906 -1.2464,2.52376 0,1.43473 0.50954,2.48577 1.20413,2.48577 0.72294,0 1.22822,-1.01549 1.22822,-2.46677 0,-0.73776 -0.11469,-1.3504 -0.33015,-1.83219 -0.20142,-0.4384 -0.53158,-0.71057 -0.8558,-0.71057 m -0.0362,0.29936 c 0.1692,0 0.33428,0.15246 0.45915,0.43299 0.13892,0.32671 0.18518,0.72416 0.18518,1.67972 0,0.98291 -0.0362,1.44309 -0.13892,1.74802 -0.11881,0.34292 -0.30399,0.54991 -0.49936,0.54991 -0.17513,0 -0.33621,-0.15246 -0.45915,-0.4302 -0.14497,-0.32932 -0.18518,-0.75953 -0.18518,-1.9031 0,-0.81668 0.0362,-1.21971 0.13892,-1.52725 0.11881,-0.34849 0.304,-0.55009 0.49936,-0.55009"
       id="path74-3"
       style="stroke-width:0.14984746" />
    <path
       inkscape:connector-curvature="0"
       class="Fingering"
       d="m 154.62248,185.26012 c -0.72075,0 -1.2464,1.05906 -1.2464,2.52376 0,1.43473 0.50954,2.48577 1.20413,2.48577 0.72294,0 1.22822,-1.01549 1.22822,-2.46677 0,-0.73776 -0.11469,-1.3504 -0.33015,-1.83219 -0.20142,-0.4384 -0.53157,-0.71057 -0.8558,-0.71057 m -0.0362,0.29936 c 0.1692,0 0.33428,0.15246 0.45915,0.43299 0.13892,0.32671 0.18518,0.72416 0.18518,1.67972 0,0.98291 -0.0362,1.44309 -0.13892,1.74802 -0.11881,0.34292 -0.30399,0.54991 -0.49936,0.54991 -0.17512,0 -0.33621,-0.15246 -0.45915,-0.4302 -0.14497,-0.32932 -0.18518,-0.75953 -0.18518,-1.9031 0,-0.81668 0.0362,-1.21971 0.13892,-1.52725 0.11882,-0.34849 0.304,-0.55009 0.49936,-0.55009"
       id="path74-6"
       style="stroke-width:0.14984746" />
    <path
       inkscape:connector-curvature="0"
       class="Fingering"
       d="m 139.33007,202.65767 c -0.72075,0 -1.2464,1.05906 -1.2464,2.52376 0,1.43473 0.50954,2.48577 1.20413,2.48577 0.72294,0 1.22823,-1.01549 1.22823,-2.46677 0,-0.73776 -0.1147,-1.3504 -0.33016,-1.83219 -0.20142,-0.4384 -0.53157,-0.71057 -0.8558,-0.71057 m -0.0362,0.29936 c 0.1692,0 0.33428,0.15246 0.45915,0.43299 0.13892,0.32671 0.18518,0.72416 0.18518,1.67972 0,0.98291 -0.0362,1.44309 -0.13892,1.74802 -0.11881,0.34292 -0.30399,0.54991 -0.49935,0.54991 -0.17513,0 -0.33622,-0.15246 -0.45916,-0.4302 -0.14497,-0.32932 -0.18518,-0.75953 -0.18518,-1.9031 0,-0.81668 0.0362,-1.21971 0.13892,-1.52725 0.11882,-0.34849 0.304,-0.55009 0.49936,-0.55009"
       id="path74-7"
       style="stroke-width:0.14984746" />
    <path
       inkscape:connector-curvature="0"
       class="Fingering"
       d="m 169.78764,203.18684 c -0.72074,0 -1.24639,1.05906 -1.24639,2.52376 0,1.43473 0.50954,2.48577 1.20413,2.48577 0.72294,0 1.22822,-1.01549 1.22822,-2.46677 0,-0.73776 -0.11469,-1.3504 -0.33015,-1.83219 -0.20142,-0.4384 -0.53158,-0.71057 -0.85581,-0.71057 m -0.0362,0.29936 c 0.16921,0 0.33428,0.15246 0.45916,0.43299 0.13891,0.32671 0.18518,0.72416 0.18518,1.67972 0,0.98291 -0.0362,1.44309 -0.13892,1.74802 -0.11882,0.34292 -0.304,0.54991 -0.49936,0.54991 -0.17513,0 -0.33621,-0.15246 -0.45915,-0.4302 -0.14497,-0.32932 -0.18518,-0.75953 -0.18518,-1.9031 0,-0.81668 0.0362,-1.21971 0.13892,-1.52725 0.11881,-0.34849 0.30399,-0.55009 0.49935,-0.55009"
       id="path74-5"
       style="stroke-width:0.14984746" />
    <path
       inkscape:connector-curvature="0"
       class="Fingering"
       d="m 185.42754,178.83452 c -0.72075,0 -1.2464,1.05906 -1.2464,2.52376 0,1.43473 0.50954,2.48577 1.20413,2.48577 0.72294,0 1.22822,-1.01549 1.22822,-2.46677 0,-0.73776 -0.11469,-1.3504 -0.33015,-1.83219 -0.20142,-0.4384 -0.53157,-0.71057 -0.8558,-0.71057 m -0.0362,0.29936 c 0.1692,0 0.33428,0.15246 0.45915,0.43299 0.13892,0.32671 0.18518,0.72416 0.18518,1.67972 0,0.98291 -0.0362,1.44309 -0.13892,1.74802 -0.11881,0.34292 -0.30399,0.54991 -0.49936,0.54991 -0.17512,0 -0.33621,-0.15246 -0.45915,-0.4302 -0.14497,-0.32932 -0.18518,-0.75953 -0.18518,-1.9031 0,-0.81668 0.0362,-1.21971 0.13892,-1.52725 0.11882,-0.34849 0.304,-0.55009 0.49936,-0.55009"
       id="path74-35"
       style="stroke-width:0.14984746" />
    <path
       inkscape:connector-curvature="0"
       class="Fingering"
       d="m 221.32258,189.88956 c -0.72074,0 -1.24639,1.05906 -1.24639,2.52376 0,1.43473 0.50954,2.48577 1.20413,2.48577 0.72294,0 1.22822,-1.01549 1.22822,-2.46677 0,-0.73776 -0.11469,-1.3504 -0.33015,-1.83219 -0.20142,-0.4384 -0.53158,-0.71057 -0.85581,-0.71057 m -0.0362,0.29936 c 0.16921,0 0.33428,0.15246 0.45916,0.43299 0.13891,0.32671 0.18518,0.72416 0.18518,1.67972 0,0.98291 -0.0362,1.44309 -0.13892,1.74802 -0.11882,0.34292 -0.304,0.54991 -0.49936,0.54991 -0.17513,0 -0.33621,-0.15246 -0.45915,-0.4302 -0.14497,-0.32932 -0.18518,-0.75953 -0.18518,-1.9031 0,-0.81668 0.0362,-1.21971 0.13892,-1.52725 0.11881,-0.34849 0.30399,-0.55009 0.49935,-0.55009"
       id="path74-62"
       style="stroke-width:0.14984746" />
    <path
       inkscape:connector-curvature="0"
       class="Fingering"
       d="m 236.22758,196.0324 c -0.72075,0 -1.2464,1.05906 -1.2464,2.52376 0,1.43473 0.50954,2.48577 1.20413,2.48577 0.72294,0 1.22822,-1.01549 1.22822,-2.46677 0,-0.73776 -0.11469,-1.3504 -0.33015,-1.83219 -0.20142,-0.4384 -0.53157,-0.71057 -0.8558,-0.71057 m -0.0362,0.29936 c 0.1692,0 0.33428,0.15246 0.45915,0.43299 0.13892,0.32671 0.18518,0.72416 0.18518,1.67972 0,0.98291 -0.0362,1.44309 -0.13892,1.74802 -0.11881,0.34292 -0.30399,0.54991 -0.49936,0.54991 -0.17512,0 -0.33621,-0.15246 -0.45915,-0.4302 -0.14497,-0.32932 -0.18518,-0.75953 -0.18518,-1.9031 0,-0.81668 0.0362,-1.21971 0.13892,-1.52725 0.11882,-0.34849 0.304,-0.55009 0.49936,-0.55009"
       id="path74-9"
       style="stroke-width:0.14984746" />
    <path
       inkscape:connector-curvature="0"
       class="Fingering"
       d="m 251.15769,185.14662 c -0.72075,0 -1.2464,1.05906 -1.2464,2.52376 0,1.43473 0.50954,2.48577 1.20413,2.48577 0.72294,0 1.22822,-1.01549 1.22822,-2.46677 0,-0.73776 -0.11469,-1.3504 -0.33015,-1.83219 -0.20142,-0.4384 -0.53157,-0.71057 -0.8558,-0.71057 m -0.0362,0.29936 c 0.1692,0 0.33428,0.15246 0.45915,0.43299 0.13892,0.32671 0.18518,0.72416 0.18518,1.67972 0,0.98291 -0.0362,1.44309 -0.13892,1.74802 -0.11881,0.34292 -0.30399,0.54991 -0.49936,0.54991 -0.17512,0 -0.33621,-0.15246 -0.45915,-0.4302 -0.14497,-0.32932 -0.18518,-0.75953 -0.18518,-1.9031 0,-0.81668 0.0362,-1.21971 0.13892,-1.52725 0.11882,-0.34849 0.304,-0.55009 0.49936,-0.55009"
       id="path74-1"
       style="stroke-width:0.14984746" />
    <path
       inkscape:connector-curvature="0"
       class="Fingering"
       d="m 266.80597,196.33479 c -0.72075,0 -1.24639,1.05906 -1.24639,2.52376 0,1.43473 0.50953,2.48577 1.20412,2.48577 0.72294,0 1.22823,-1.01549 1.22823,-2.46677 0,-0.73776 -0.11469,-1.3504 -0.33016,-1.83219 -0.20141,-0.4384 -0.53157,-0.71057 -0.8558,-0.71057 m -0.0362,0.29936 c 0.1692,0 0.33428,0.15246 0.45915,0.43299 0.13892,0.32671 0.18518,0.72416 0.18518,1.67972 0,0.98291 -0.0362,1.44309 -0.13891,1.74802 -0.11882,0.34292 -0.304,0.54991 -0.49936,0.54991 -0.17513,0 -0.33621,-0.15246 -0.45915,-0.4302 -0.14498,-0.32932 -0.18518,-0.75953 -0.18518,-1.9031 0,-0.81668 0.0362,-1.21971 0.13891,-1.52725 0.11882,-0.34849 0.304,-0.55009 0.49936,-0.55009"
       id="path74-2"
       style="stroke-width:0.14984746" />
  </g>
</svg>
