<?xml version="1.0" encoding="UTF-8" standalone="no"?>
<!-- Created with Inkscape (http://www.inkscape.org/) -->

<svg
   width="297mm"
   height="210mm"
   viewBox="0 0 297 210"
   version="1.1"
   id="svg1007"
   inkscape:version="1.2.2 (b0a8486541, 2022-12-01)"
   sodipodi:docname="exercice2.svg"
   xmlns:inkscape="http://www.inkscape.org/namespaces/inkscape"
   xmlns:sodipodi="http://sodipodi.sourceforge.net/DTD/sodipodi-0.dtd"
   xmlns="http://www.w3.org/2000/svg"
   xmlns:svg="http://www.w3.org/2000/svg"
   xmlns:rdf="http://www.w3.org/1999/02/22-rdf-syntax-ns#"
   xmlns:cc="http://creativecommons.org/ns#"
   xmlns:dc="http://purl.org/dc/elements/1.1/">
  <defs
     id="defs1001" />
  <sodipodi:namedview
     id="base"
     pagecolor="#ffffff"
     bordercolor="#666666"
     borderopacity="1.0"
     inkscape:pageopacity="0.0"
     inkscape:pageshadow="2"
     inkscape:zoom="0.35"
     inkscape:cx="350"
     inkscape:cy="332.85714"
     inkscape:document-units="mm"
     inkscape:current-layer="layer1"
     showgrid="false"
     inkscape:window-width="1280"
     inkscape:window-height="651"
     inkscape:window-x="0"
     inkscape:window-y="32"
     inkscape:window-maximized="1"
     inkscape:showpageshadow="2"
     inkscape:pagecheckerboard="0"
     inkscape:deskcolor="#d1d1d1" />
  <metadata
     id="metadata1004">
    <rdf:RDF>
      <cc:Work
         rdf:about="">
        <dc:format>image/svg+xml</dc:format>
        <dc:type
           rdf:resource="http://purl.org/dc/dcmitype/StillImage" />
        <dc:title />
      </cc:Work>
    </rdf:RDF>
  </metadata>
  <g
     inkscape:label="Calque 1"
     inkscape:groupmode="layer"
     id="layer1"
     transform="translate(0,-87)">
    <polyline
       style="fill:none;stroke:#000000;stroke-width:2.73;stroke-linejoin:bevel"
       class="StaffLines"
       points="336.614,634.252 2763.78,634.252"
       id="polyline1"
       transform="matrix(0.11739082,0,0,0.17424458,-34.791735,68.6231)" />
    <polyline
       style="fill:none;stroke:#000000;stroke-width:2.73;stroke-linejoin:bevel"
       class="StaffLines"
       points="336.614,659.055 2763.78,659.055"
       id="polyline2"
       transform="matrix(0.11739082,0,0,0.17424458,-34.791735,68.6231)" />
    <polyline
       style="fill:none;stroke:#000000;stroke-width:2.73;stroke-linejoin:bevel"
       class="StaffLines"
       points="336.614,683.858 2763.78,683.858"
       id="polyline3"
       transform="matrix(0.11739082,0,0,0.17424458,-34.791735,68.6231)" />
    <polyline
       style="fill:none;stroke:#000000;stroke-width:2.73;stroke-linejoin:bevel"
       class="StaffLines"
       points="336.614,708.661 2763.78,708.661"
       id="polyline4"
       transform="matrix(0.11739082,0,0,0.17424458,-34.791735,68.6231)" />
    <polyline
       style="fill:none;stroke:#000000;stroke-width:2.73;stroke-linejoin:bevel"
       class="StaffLines"
       points="336.614,733.465 2763.78,733.465"
       id="polyline5"
       transform="matrix(0.11739082,0,0,0.17424458,-34.791735,68.6231)" />
    <polyline
       style="fill:none;stroke:#000000;stroke-width:4.46;stroke-linejoin:bevel"
       class="BarLine"
       points="2739.59,632.888 2739.59,734.829"
       id="polyline6"
       transform="matrix(0.11739082,0,0,0.17424458,-34.791735,68.6231)" />
    <polyline
       style="fill:none;stroke:#000000;stroke-width:13.64;stroke-linejoin:bevel"
       class="BarLine"
       points="2756.96,632.888 2756.96,734.829"
       id="polyline7"
       transform="matrix(0.11739082,0,0,0.17424458,-34.791735,68.6231)" />
    <polyline
       style="fill:none;stroke:#000000;stroke-width:4.46;stroke-linejoin:bevel"
       class="BarLine"
       points="1993.84,632.888 1993.84,734.829"
       id="polyline8"
       transform="matrix(0.11739082,0,0,0.17424458,-34.791735,68.6231)" />
    <polyline
       style="fill:none;stroke:#000000;stroke-width:4.46;stroke-linejoin:bevel"
       class="BarLine"
       points="1248.09,632.888 1248.09,734.829"
       id="polyline9"
       transform="matrix(0.11739082,0,0,0.17424458,-34.791735,68.6231)" />
    <polyline
       style="fill:none;stroke:#000000;stroke-width:3.97;stroke-linejoin:bevel"
       class="LedgerLine"
       points="764.481,783.071 814.08,783.071"
       id="polyline10"
       transform="matrix(0.11739082,0,0,0.17424458,-34.791735,68.6231)" />
    <polyline
       style="fill:none;stroke:#000000;stroke-width:3.97;stroke-linejoin:bevel"
       class="LedgerLine"
       points="764.481,758.268 814.08,758.268"
       id="polyline11"
       transform="matrix(0.11739082,0,0,0.17424458,-34.791735,68.6231)" />
    <polyline
       style="fill:none;stroke:#000000;stroke-width:3.97;stroke-linejoin:bevel"
       class="LedgerLine"
       points="1510.23,758.268 1559.83,758.268"
       id="polyline12"
       transform="matrix(0.11739082,0,0,0.17424458,-34.791735,68.6231)" />
    <polyline
       style="fill:none;stroke:#000000;stroke-width:3.97;stroke-linejoin:bevel"
       class="LedgerLine"
       points="1746.58,783.071 1796.18,783.071"
       id="polyline13"
       transform="matrix(0.11739082,0,0,0.17424458,-34.791735,68.6231)" />
    <polyline
       style="fill:none;stroke:#000000;stroke-width:3.97;stroke-linejoin:bevel"
       class="LedgerLine"
       points="528.133,807.874 577.732,807.874"
       id="polyline14"
       transform="matrix(0.11739082,0,0,0.17424458,-34.791735,68.6231)" />
    <polyline
       style="fill:none;stroke:#000000;stroke-width:3.97;stroke-linejoin:bevel"
       class="LedgerLine"
       points="528.133,758.268 577.732,758.268"
       id="polyline15"
       transform="matrix(0.11739082,0,0,0.17424458,-34.791735,68.6231)" />
    <polyline
       style="fill:none;stroke:#000000;stroke-width:3.97;stroke-linejoin:bevel"
       class="LedgerLine"
       points="1000.83,758.268 1050.43,758.268"
       id="polyline16"
       transform="matrix(0.11739082,0,0,0.17424458,-34.791735,68.6231)" />
    <polyline
       style="fill:none;stroke:#000000;stroke-width:3.97;stroke-linejoin:bevel"
       class="LedgerLine"
       points="1746.58,758.268 1796.18,758.268"
       id="polyline17"
       transform="matrix(0.11739082,0,0,0.17424458,-34.791735,68.6231)" />
    <polyline
       style="fill:none;stroke:#000000;stroke-width:3.97;stroke-linejoin:bevel"
       class="LedgerLine"
       points="1000.83,807.874 1050.43,807.874"
       id="polyline18"
       transform="matrix(0.11739082,0,0,0.17424458,-34.791735,68.6231)" />
    <polyline
       style="fill:none;stroke:#000000;stroke-width:3.97;stroke-linejoin:bevel"
       class="LedgerLine"
       points="1000.83,783.071 1050.43,783.071"
       id="polyline19"
       transform="matrix(0.11739082,0,0,0.17424458,-34.791735,68.6231)" />
    <polyline
       style="fill:none;stroke:#000000;stroke-width:3.97;stroke-linejoin:bevel"
       class="LedgerLine"
       points="528.133,783.071 577.732,783.071"
       id="polyline20"
       transform="matrix(0.11739082,0,0,0.17424458,-34.791735,68.6231)" />
    <polyline
       style="fill:none;stroke:#000000;stroke-width:3.97;stroke-linejoin:bevel"
       class="LedgerLine"
       points="1273.89,783.071 1323.48,783.071"
       id="polyline21"
       transform="matrix(0.11739082,0,0,0.17424458,-34.791735,68.6231)" />
    <polyline
       style="fill:none;stroke:#000000;stroke-width:3.97;stroke-linejoin:bevel"
       class="LedgerLine"
       points="1273.89,758.268 1323.48,758.268"
       id="polyline22"
       transform="matrix(0.11739082,0,0,0.17424458,-34.791735,68.6231)" />
    <polyline
       style="fill:none;stroke:#000000;stroke-width:3.97;stroke-linejoin:bevel"
       class="LedgerLine"
       points="1510.23,783.071 1559.83,783.071"
       id="polyline23"
       transform="matrix(0.11739082,0,0,0.17424458,-34.791735,68.6231)" />
    <polyline
       style="fill:none;stroke:#000000;stroke-width:3.97;stroke-linejoin:bevel"
       class="LedgerLine"
       points="764.481,807.874 814.08,807.874"
       id="polyline24"
       transform="matrix(0.11739082,0,0,0.17424458,-34.791735,68.6231)" />
    <polyline
       style="fill:none;stroke:#000000;stroke-width:2.73;stroke-linejoin:bevel"
       class="Stem"
       points="1431.61,704.693 1431.61,621.85"
       id="polyline25"
       transform="matrix(0.11739082,0,0,0.17424458,-34.791735,68.6231)" />
    <polyline
       style="fill:none;stroke:#000000;stroke-width:2.73;stroke-linejoin:bevel"
       class="Stem"
       points="1040.38,816.307 1040.38,683.858"
       id="polyline26"
       transform="matrix(0.11739082,0,0,0.17424458,-34.791735,68.6231)" />
    <polyline
       style="fill:none;stroke:#000000;stroke-width:2.73;stroke-linejoin:bevel"
       class="Stem"
       points="1874.8,650.82 1874.8,733.465"
       id="polyline27"
       transform="matrix(0.11739082,0,0,0.17424458,-34.791735,68.6231)" />
    <polyline
       style="fill:none;stroke:#000000;stroke-width:2.73;stroke-linejoin:bevel"
       class="Stem"
       points="567.686,816.307 567.686,683.858"
       id="polyline28"
       transform="matrix(0.11739082,0,0,0.17424458,-34.791735,68.6231)" />
    <polyline
       style="fill:none;stroke:#000000;stroke-width:2.73;stroke-linejoin:bevel"
       class="Stem"
       points="804.034,816.307 804.034,683.858"
       id="polyline29"
       transform="matrix(0.11739082,0,0,0.17424458,-34.791735,68.6231)" />
    <polyline
       style="fill:none;stroke:#000000;stroke-width:2.73;stroke-linejoin:bevel"
       class="Stem"
       points="1786.13,779.102 1786.13,683.858"
       id="polyline30"
       transform="matrix(0.11739082,0,0,0.17424458,-34.791735,68.6231)" />
    <polyline
       style="fill:none;stroke:#000000;stroke-width:2.73;stroke-linejoin:bevel"
       class="Stem"
       points="1129.05,650.82 1129.05,733.465"
       id="polyline31"
       transform="matrix(0.11739082,0,0,0.17424458,-34.791735,68.6231)" />
    <polyline
       style="fill:none;stroke:#000000;stroke-width:2.73;stroke-linejoin:bevel"
       class="Stem"
       points="685.86,704.693 685.86,621.85"
       id="polyline32"
       transform="matrix(0.11739082,0,0,0.17424458,-34.791735,68.6231)" />
    <polyline
       style="fill:none;stroke:#000000;stroke-width:2.73;stroke-linejoin:bevel"
       class="Stem"
       points="1549.79,779.102 1549.79,683.858"
       id="polyline33"
       transform="matrix(0.11739082,0,0,0.17424458,-34.791735,68.6231)" />
    <polyline
       style="fill:none;stroke:#000000;stroke-width:2.73;stroke-linejoin:bevel"
       class="Stem"
       points="1638.45,688.025 1638.45,758.268"
       id="polyline34"
       transform="matrix(0.11739082,0,0,0.17424458,-34.791735,68.6231)" />
    <polyline
       style="fill:none;stroke:#000000;stroke-width:2.73;stroke-linejoin:bevel"
       class="Stem"
       points="1313.44,779.102 1313.44,683.858"
       id="polyline35"
       transform="matrix(0.11739082,0,0,0.17424458,-34.791735,68.6231)" />
    <polyline
       style="fill:none;stroke:#000000;stroke-width:2.73;stroke-linejoin:bevel"
       class="Stem"
       points="2059.19,741.898 2059.19,659.055"
       id="polyline36"
       transform="matrix(0.11739082,0,0,0.17424458,-34.791735,68.6231)" />
    <polyline
       style="fill:none;stroke:#000000;stroke-width:2.73;stroke-linejoin:bevel"
       class="Stem"
       points="2177.37,704.693 2177.37,621.85"
       id="polyline37"
       transform="matrix(0.11739082,0,0,0.17424458,-34.791735,68.6231)" />
    <polyline
       style="fill:none;stroke:#000000;stroke-width:2.73;stroke-linejoin:bevel"
       class="Stem"
       points="2295.54,741.898 2295.54,659.055"
       id="polyline38"
       transform="matrix(0.11739082,0,0,0.17424458,-34.791735,68.6231)" />
    <polyline
       style="fill:none;stroke:#000000;stroke-width:2.73;stroke-linejoin:bevel"
       class="Stem"
       points="892.7,688.025 892.7,758.268"
       id="polyline39"
       transform="matrix(0.11739082,0,0,0.17424458,-34.791735,68.6231)" />
    <polyline
       style="fill:none;stroke:#000000;stroke-width:2.73;stroke-linejoin:bevel"
       class="Stem"
       points="2384.2,688.025 2384.2,758.268"
       id="polyline40"
       transform="matrix(0.11739082,0,0,0.17424458,-34.791735,68.6231)" />
    <polyline
       style="fill:none;stroke:#000000;stroke-width:2.73;stroke-linejoin:bevel"
       class="Stem"
       points="2531.89,741.898 2531.89,659.055"
       id="polyline41"
       transform="matrix(0.11739082,0,0,0.17424458,-34.791735,68.6231)" />
    <polyline
       style="fill:none;stroke:#000000;stroke-width:2.73;stroke-linejoin:bevel"
       class="Stem"
       points="2620.55,650.82 2620.55,733.465"
       id="polyline42"
       transform="matrix(0.11739082,0,0,0.17424458,-34.791735,68.6231)" />
    <path
       inkscape:connector-curvature="0"
       class="Note"
       d="m 143.51436,205.79558 c 0,0.74281 0.36032,1.57206 1.30478,1.57206 1.21017,0 2.48038,-1.46942 2.48038,-2.99016 0,-1.02103 -0.58233,-1.59096 -1.30479,-1.59096 -1.13008,0 -2.48037,1.41809 -2.48037,3.00906"
       id="path42"
       style="stroke-width:0.141894" />
    <path
       inkscape:connector-curvature="0"
       class="Note"
       d="m 83.715471,212.27835 c 0,0.74281 0.360319,1.57206 1.304784,1.57206 1.210174,0 2.480378,-1.46941 2.480378,-2.99015 0,-1.02104 -0.58233,-1.59097 -1.30479,-1.59097 -1.130083,0 -2.480372,1.41809 -2.480372,3.00906"
       id="path43"
       style="stroke-width:0.141894" />
    <path
       inkscape:connector-curvature="0"
       class="Note"
       d="m 171.25968,205.79558 c 0,0.74281 0.36032,1.57206 1.30479,1.57206 1.21016,0 2.48037,-1.46942 2.48037,-2.99016 0,-1.02103 -0.58232,-1.59096 -1.30479,-1.59096 -1.13009,0 -2.48037,1.41809 -2.48037,3.00906"
       id="path44"
       style="stroke-width:0.141894" />
    <path
       inkscape:connector-curvature="0"
       class="Note"
       d="m 185.13293,182.02548 c 0,0.74281 0.36032,1.57207 1.30478,1.57207 1.21017,0 2.48038,-1.46943 2.48038,-2.99017 0,-1.02102 -0.58233,-1.59096 -1.30479,-1.59096 -1.13009,0 -2.48037,1.41809 -2.48037,3.00906"
       id="path45"
       style="stroke-width:0.141894" />
    <path
       inkscape:connector-curvature="0"
       class="Note"
       d="m 28.225298,212.27835 c 0,0.74281 0.360319,1.57206 1.304789,1.57206 1.210169,0 2.480372,-1.46941 2.480372,-2.99015 0,-1.02104 -0.582332,-1.59097 -1.304783,-1.59097 -1.130085,0 -2.480378,1.41809 -2.480378,3.00906"
       id="path46"
       style="stroke-width:0.141894" />
    <path
       inkscape:connector-curvature="0"
       class="Note"
       d="m 157.3876,188.50825 c 0,0.74282 0.36032,1.57206 1.30479,1.57206 1.21017,0 2.48038,-1.46941 2.48038,-2.99015 0,-1.02104 -0.58233,-1.59097 -1.30479,-1.59097 -1.13008,0 -2.48038,1.4181 -2.48038,3.00906"
       id="path47"
       style="stroke-width:0.141894" />
    <path
       inkscape:connector-curvature="0"
       class="Note"
       d="m 203.31442,199.31281 c 0,0.74281 0.36031,1.57207 1.30478,1.57207 1.21018,0 2.48038,-1.46943 2.48038,-2.99017 0,-1.02102 -0.58233,-1.59096 -1.30479,-1.59096 -1.13009,0 -2.48037,1.41809 -2.48037,3.00906"
       id="path48"
       style="stroke-width:0.141894" />
    <path
       inkscape:connector-curvature="0"
       class="Note"
       d="m 42.09784,192.83004 c 0,0.74281 0.360319,1.57206 1.304787,1.57206 1.210168,0 2.480376,-1.46941 2.480376,-2.99015 0,-1.02103 -0.582333,-1.59097 -1.304787,-1.59097 -1.130086,0 -2.480376,1.41809 -2.480376,3.00906"
       id="path49"
       style="stroke-width:0.141894" />
    <path
       inkscape:connector-curvature="0"
       class="Note"
       d="m 217.18648,192.83004 c 0,0.74281 0.36033,1.57206 1.30479,1.57206 1.21017,0 2.48038,-1.46941 2.48038,-2.99015 0,-1.02103 -0.58233,-1.59097 -1.30479,-1.59097 -1.13008,0 -2.48038,1.41809 -2.48038,3.00906"
       id="path50"
       style="stroke-width:0.141894" />
    <path
       inkscape:connector-curvature="0"
       class="Note"
       d="m 97.587543,182.02548 c 0,0.74281 0.360319,1.57207 1.304789,1.57207 1.210168,0 2.480368,-1.46943 2.480368,-2.99017 0,-1.02102 -0.58232,-1.59096 -1.30478,-1.59096 -1.130089,0 -2.480377,1.41809 -2.480377,3.00906"
       id="path51"
       style="stroke-width:0.141894" />
    <path
       inkscape:connector-curvature="0"
       class="Note"
       d="m 55.970382,212.27835 c 0,0.74281 0.360318,1.57206 1.304788,1.57206 1.210168,0 2.480377,-1.46941 2.480377,-2.99015 0,-1.02104 -0.582332,-1.59097 -1.304789,-1.59097 -1.130084,0 -2.480376,1.41809 -2.480376,3.00906"
       id="path52"
       style="stroke-width:0.141894" />
    <path
       inkscape:connector-curvature="0"
       class="Note"
       d="m 115.7702,205.79558 c 0,0.74281 0.36032,1.57206 1.30479,1.57206 1.21017,0 2.48037,-1.46942 2.48037,-2.99016 0,-1.02103 -0.58232,-1.59096 -1.30479,-1.59096 -1.13007,0 -2.48037,1.41809 -2.48037,3.00906"
       id="path53"
       style="stroke-width:0.141894" />
    <path
       inkscape:connector-curvature="0"
       class="Note"
       d="m 244.93181,188.50825 c 0,0.74282 0.36032,1.57206 1.30478,1.57206 1.21018,0 2.48038,-1.46941 2.48038,-2.99015 0,-1.02104 -0.58232,-1.59097 -1.30479,-1.59097 -1.13008,0 -2.48037,1.4181 -2.48037,3.00906"
       id="path54"
       style="stroke-width:0.141894" />
    <path
       inkscape:connector-curvature="0"
       class="Note"
       d="m 69.842931,188.50825 c 0,0.74282 0.360319,1.57206 1.304783,1.57206 1.210168,0 2.480378,-1.46941 2.480378,-2.99015 0,-1.02104 -0.58234,-1.59097 -1.304789,-1.59097 -1.130084,0 -2.480372,1.4181 -2.480372,3.00906"
       id="path55"
       style="stroke-width:0.141894" />
    <path
       inkscape:connector-curvature="0"
       class="Note"
       d="m 258.80388,199.31281 c 0,0.74281 0.36032,1.57207 1.30479,1.57207 1.21016,0 2.48038,-1.46943 2.48038,-2.99017 0,-1.02102 -0.58233,-1.59096 -1.30479,-1.59096 -1.13008,0 -2.48038,1.41809 -2.48038,3.00906"
       id="path56"
       style="stroke-width:0.141894" />
    <path
       inkscape:connector-curvature="0"
       class="Note"
       d="m 129.64228,192.83004 c 0,0.74281 0.36032,1.57206 1.30479,1.57206 1.21017,0 2.48037,-1.46941 2.48037,-2.99015 0,-1.02103 -0.58232,-1.59097 -1.30478,-1.59097 -1.13009,0 -2.48038,1.41809 -2.48038,3.00906"
       id="path57"
       style="stroke-width:0.141894" />
    <path
       inkscape:connector-curvature="0"
       class="Note"
       d="m 272.67713,182.02548 c 0,0.74281 0.36032,1.57207 1.30479,1.57207 1.21017,0 2.48038,-1.46943 2.48038,-2.99017 0,-1.02102 -0.58234,-1.59096 -1.30479,-1.59096 -1.13009,0 -2.48038,1.41809 -2.48038,3.00906"
       id="path58"
       style="stroke-width:0.141894" />
    <path
       inkscape:connector-curvature="0"
       class="Note"
       d="m 231.05973,199.31281 c 0,0.74281 0.36033,1.57207 1.30479,1.57207 1.21016,0 2.48038,-1.46943 2.48038,-2.99017 0,-1.02102 -0.58233,-1.59096 -1.30479,-1.59096 -1.13009,0 -2.48038,1.41809 -2.48038,3.00906"
       id="path59"
       style="stroke-width:0.141894" />
    <path
       inkscape:connector-curvature="0"
       class="Clef"
       d="m 14.5069,192.05212 c 0,-2.5931 -1.246555,-4.35693 -2.946243,-4.35693 -0.116466,-1.03724 -0.222009,-2.07448 -0.325733,-3.02527 1.222898,-1.92052 2.083654,-4.09762 2.083654,-6.82847 0,-1.59097 -0.325742,-2.8524 -0.524095,-3.4763 -0.278428,-0.88061 -0.616913,-1.50468 -0.815269,-1.50468 -0.08007,0 -0.453124,0.22698 -0.826189,0.89963 -0.757032,1.31539 -0.966299,3.50871 -0.966299,4.96191 0,0.9346 0.05823,1.78005 0.256585,3.73567 -0.01273,0 -0.6187272,0.91569 -0.8625837,1.22632 -1.0609276,1.45321 -2.5276821,3.56009 -2.5276821,7.00134 0,3.24947 1.8980399,5.79123 4.0654128,5.79123 0.336656,0 0.65148,-0.0513 0.931731,-0.12154 0.209267,1.66118 0.3494,2.87129 0.3494,3.78698 0,1.79896 -0.629651,2.74976 -1.794316,2.74976 -0.291166,0 -0.535014,-0.0864 -0.547752,-0.10535 -0.02183,0 -0.0455,-0.0162 -0.0455,-0.0324 0,-0.0351 0.02365,-0.054 0.05823,-0.0702 0.547752,-0.12155 1.093689,-0.81304 1.093689,-1.9178 0,-0.9346 -0.476789,-1.92051 -1.3502878,-1.92051 -0.8043419,0 -1.3284412,0.98591 -1.3284412,2.12579 0,1.14259 0.5823325,2.64711 2.154634,2.64711 1.503137,0 2.236516,-1.26413 2.236516,-3.47635 0,-0.67259 -0.06915,-1.45051 -0.185614,-2.43642 -0.03456,-0.34575 -0.09281,-0.88328 -0.1747,-1.53965 1.140999,-0.56995 1.990845,-2.31757 1.990845,-4.11383 m -3.586807,-14.15935 c 0.116466,-0.6915 0.640565,-2.50666 1.246564,-2.50666 0.174699,0 0.465866,0.82923 0.465866,2.03934 0,1.78006 -0.908075,3.13062 -1.71243,4.32182 -0.06915,-0.69149 -0.127377,-1.38298 -0.127377,-2.09067 0,-0.65638 0.04549,-1.22902 0.127377,-1.76383 m 0.349399,17.87609 c -1.665098,0 -3.0863574,-1.72873 -3.0863574,-4.34072 0,-2.10689 1.0136267,-3.99227 2.0272494,-5.32393 0.196533,-0.24311 0.383975,-0.50242 0.558675,-0.74281 0.103724,0.93188 0.198357,1.72872 0.2675,2.45532 -1.0609275,0.4484 -1.7815645,2.12579 -1.7815645,3.73297 0,1.22902 0.6405657,2.88752 1.5722975,2.88752 0.0928,0 0.198352,-0.0702 0.198352,-0.2431 0,-0.13776 -0.105551,-0.24041 -0.256585,-0.37816 -0.454952,-0.39977 -0.711537,-0.86437 -0.711537,-1.69632 0,-1.05344 0.536837,-1.90161 1.21197,-2.142 l 0.675146,5.66969 c -0.232933,0.0864 -0.442213,0.12154 -0.675146,0.12154 m 1.164665,-0.32953 c -0.243848,-2.05557 -0.558667,-4.80532 -0.640566,-5.56705 1.175593,0 1.677854,1.21012 1.781578,2.04207 0.01273,0.13776 0.03456,0.32684 0.03456,0.53482 0,1.24522 -0.3494,2.50665 -1.175589,2.99016 m -0.454942,9.05959 c 0,-0.64016 -0.39489,-0.91567 -0.77887,-0.91567 -0.489519,0 -0.968127,0.44839 -0.968127,1.22631 0,0.32955 0.08189,0.57264 0.256585,0.81304 -0.302076,0.17287 -0.6169127,0.51861 -0.6169127,1.05615 0,0.56994 0.3493997,0.95079 0.8625887,0.95079 0.627823,0 1.070036,-0.51861 1.070036,-1.26413 0,-0.39707 -0.116466,-0.7239 -0.325747,-0.95079 0.338485,-0.22421 0.500447,-0.49971 0.500447,-0.9157 m -0.720637,0.69149 c -0.1747,-0.13774 -0.222023,-0.17287 -0.256586,-0.20798 l -0.01273,-0.0162 c -0.185627,-0.15667 -0.243861,-0.27821 -0.243861,-0.4835 0,-0.31333 0.16379,-0.53753 0.396723,-0.53753 0.232933,0 0.360309,0.20798 0.360309,0.56994 0,0.27822 -0.06914,0.46729 -0.243843,0.67527 m -0.444032,2.07448 c -0.254767,0 -0.429466,-0.2404 -0.429466,-0.60506 0,-0.32683 0.103724,-0.62125 0.302076,-0.79412 0.04732,0.0351 0.05823,0.0513 0.09281,0.0675 0.140119,0.10535 0.140119,0.10535 0.163785,0.14046 0.232933,0.18909 0.314824,0.36196 0.314824,0.60506 0,0.32683 -0.187443,0.58614 -0.444033,0.58614"
       id="path60"
       style="stroke-width:0.141894" />
    <path
       inkscape:connector-curvature="0"
       class="TimeSig"
       d="m 20.455742,182.71704 c -0.711532,0 -0.966299,0.31063 -1.130089,0.56994 -0.03456,-0.36196 -0.05823,-0.64017 -0.05823,-0.91569 0,-0.98591 0.232933,-2.26626 1.048199,-2.26626 0.291166,0 0.465865,0.14046 0.582332,0.32955 -0.243843,0.15666 -0.442209,0.62125 -0.442209,1.02102 0,0.62127 0.325742,1.10477 0.746118,1.10477 0.418547,0 0.757032,-0.4835 0.757032,-1.10477 v -0.054 c 0,-0.15397 -0.02365,-0.41328 -0.07098,-0.55103 -0.151043,-0.62395 -0.640566,-1.53964 -1.805231,-1.53964 -1.048198,0 -1.805231,1.48561 -2.038163,2.28245 -0.116467,0.41328 -0.291167,1.26143 -0.291167,2.22844 0,1.05614 0.198362,2.24735 0.884419,3.14683 0.676969,0.7617 1.106436,0.79683 1.514068,0.79683 0.409452,0 1.934431,-0.7104 1.934431,-2.71464 0,-1.69362 -0.897156,-2.33378 -1.630531,-2.33378 m -0.43129,4.3218 c -0.383976,0 -0.698799,-0.77792 -0.698799,-1.74762 0,-0.96701 0.314823,-1.76114 0.698799,-1.76114 0.38398,0 0.711541,0.79413 0.711541,1.76114 0,0.9697 -0.327561,1.74762 -0.711541,1.74762"
       id="path61"
       style="stroke-width:0.141894" />
    <path
       inkscape:connector-curvature="0"
       class="TimeSig"
       d="m 19.67692,194.29945 v 1.27765 h -0.966311 c -0.08189,0 -0.163777,0.10533 -0.163777,0.2431 v 0.32954 c 0,0.13775 0.08189,0.2404 0.163777,0.2404 h 3.52857 c 0.09463,0 0.163776,-0.10265 0.163776,-0.2404 v -0.32954 c 0,-0.13777 -0.06914,-0.2431 -0.163776,-0.2431 h -1.035456 v -1.27765 h 1.035456 c 0.09463,0 0.163776,-0.12154 0.163776,-0.25931 v -0.32953 c 0,-0.12156 -0.06914,-0.2404 -0.163776,-0.2404 h -1.035456 v -2.74975 c 0,-0.10265 -0.03456,-0.18908 -0.09281,-0.2242 l -0.140123,-0.10534 c -0.02365,-0.0162 -0.05823,-0.0324 -0.0819,-0.0324 -0.03456,0.0162 -0.08189,0.0324 -0.105543,0.0675 l -1.059122,1.43431 c -0.03456,0.054 -0.04731,0.12155 -0.04731,0.19178 v 1.4181 h -1.339369 c 0,0 1.293874,-2.07447 2.667806,-4.80803 0.04732,-0.0864 0.05823,-0.17288 0.05823,-0.2404 0,-0.0864 -0.02365,-0.15666 -0.03456,-0.17287 l -0.256602,-0.38085 c -0.02365,-0.0351 -0.06914,-0.0703 -0.116466,-0.0703 -0.06914,0 -1.643261,0 -1.723332,0 -0.09463,0 -0.152861,0.10535 -0.163785,0.208 0,0 -0.05823,1.28033 -0.360318,2.67952 -0.303905,1.4019 -0.653304,2.26626 -0.955389,2.90372 0,0 -0.03456,0.0864 -0.03456,0.19179 0,0.0351 0,0.0675 0.01091,0.10264 0.04732,0.12155 0.116466,0.31064 0.116466,0.31064 0,0 0.02365,0.10533 0.127386,0.10533 h 2.003592"
       id="path62"
       style="stroke-width:0.141894" />
    <path
       inkscape:connector-curvature="0"
       class="Fingering"
       d="m 173.31167,172.13361 -0.8546,0.1035 -0.0188,0.25318 h 0.1127 c 0.19253,0 0.26765,0.0627 0.26765,0.21519 0,0.068 -0.0129,0.16606 -0.0423,0.30754 l -0.59987,3.02211 c -0.0951,0.50374 -0.0998,0.50914 -0.4179,0.53092 l -0.0211,0.25039 h 1.12813 l 0.0188,-0.25039 h -0.0576 c -0.2254,0 -0.30053,-0.0408 -0.30053,-0.18244 0,-0.0543 0.0199,-0.17424 0.054,-0.34848 l 0.22891,-1.13539 c 0.12678,0.48197 0.24887,0.61265 0.55878,0.61265 0.75952,0 1.21969,-1.22512 1.21969,-2.2434 0,-0.3403 -0.0458,-0.57169 -0.15379,-0.77312 -0.12208,-0.22339 -0.3099,-0.36226 -0.49303,-0.36226 -0.24065,0 -0.48835,0.20979 -0.69848,0.59366 l 0.0692,-0.59366 m 0.48366,0.37027 c 0.21131,0 0.35217,0.24238 0.35217,0.61265 0,0.38386 -0.0798,0.85763 -0.22187,1.28784 -0.16317,0.52273 -0.35218,0.75953 -0.59987,0.75953 -0.23008,0 -0.39325,-0.26956 -0.39325,-0.63983 0,-0.62623 0.33104,-2.02019 0.86282,-2.02019"
       id="path63"
       style="stroke-width:0.14302" />
    <path
       inkscape:connector-curvature="0"
       class="Fingering"
       d="m 94.677423,178.82896 c -0.656209,0 -1.135168,1.05906 -1.135168,2.52376 0,1.43473 0.463695,2.48577 1.097604,2.48577 0.657388,0 1.118736,-1.01567 1.118736,-2.46678 0,-0.73775 -0.104478,-1.35039 -0.301696,-1.83218 -0.183132,-0.4384 -0.48365,-0.71057 -0.779476,-0.71057 m -0.03289,0.29935 c 0.153783,0 0.305215,0.15247 0.417914,0.433 0.126779,0.32671 0.169041,0.72416 0.169041,1.67972 0,0.98291 -0.03289,1.44309 -0.126785,1.74802 -0.107997,0.34291 -0.277044,0.54992 -0.454301,0.54992 -0.159652,0 -0.306387,-0.15247 -0.417908,-0.43021 -0.132655,-0.3295 -0.169041,-0.75954 -0.169041,-1.9031 0,-0.81669 0.03289,-1.21971 0.126779,-1.52726 0.107997,-0.34849 0.277038,-0.55009 0.454301,-0.55009"
       id="path64"
       style="stroke-width:0.14302" />
    <path
       inkscape:connector-curvature="0"
       class="Fingering"
       d="m 81.245684,210.20657 c -0.656685,0 -1.135402,1.05906 -1.135402,2.52377 0,1.43473 0.464047,2.48577 1.096894,2.48577 0.658449,0 1.118859,-1.01567 1.118859,-2.46678 0,-0.73776 -0.104478,-1.3504 -0.300758,-1.83219 -0.183483,-0.43839 -0.484235,-0.71057 -0.779593,-0.71057 m -0.03296,0.29936 c 0.154017,0 0.304516,0.15246 0.418149,0.433 0.12655,0.3267 0.168806,0.72415 0.168806,1.67971 0,0.98291 -0.03296,1.4431 -0.126544,1.74803 -0.108238,0.34291 -0.277044,0.54991 -0.454887,0.54991 -0.159659,0 -0.306393,-0.15247 -0.418273,-0.43021 -0.132056,-0.3295 -0.168683,-0.75953 -0.168683,-1.9031 0,-0.81668 0.03301,-1.21971 0.126545,-1.52725 0.108237,-0.34849 0.276927,-0.55009 0.454887,-0.55009"
       id="path65"
       style="stroke-width:0.14302" />
    <path
       inkscape:connector-curvature="0"
       class="Fingering"
       d="m 187.65213,173.54604 -0.12913,0.62885 c -0.0305,-0.43283 -0.26531,-0.73235 -0.5717,-0.73235 -0.70786,0 -1.15394,1.32321 -1.15394,2.2434 0,0.68339 0.27704,1.13538 0.69378,1.13538 0.29699,0 0.47895,-0.17425 0.71373,-0.6752 -0.0188,0.10611 -0.0223,0.15246 -0.0223,0.22321 0,0.27234 0.11739,0.45199 0.28643,0.45199 0.37566,0 0.63744,-0.63443 0.77948,-1.08642 l -0.14674,-0.11692 c -0.17843,0.53633 -0.34396,0.82209 -0.46486,0.82209 -0.0564,0 -0.0986,-0.0789 -0.0986,-0.17424 0,-0.0789 0.0188,-0.19603 0.0516,-0.37847 l 0.46956,-2.34132 h -0.40735 m -0.61982,0.28036 c 0.21952,0 0.35569,0.22878 0.35569,0.62083 0,0.40286 -0.0939,0.95295 -0.23831,1.39117 -0.14672,0.433 -0.31578,0.62903 -0.55056,0.62903 -0.23478,0 -0.37565,-0.25876 -0.37565,-0.68339 0,-0.62624 0.26413,-1.95764 0.80883,-1.95764"
       id="path66"
       style="stroke-width:0.14302" />
    <path
       inkscape:connector-curvature="0"
       class="Fingering"
       d="m 112.4187,202.36208 c -0.65622,0 -1.13518,1.05906 -1.13518,2.52376 0,1.43491 0.46487,2.48578 1.09761,2.48578 0.65856,0 1.11874,-1.0155 1.11874,-2.46661 0,-0.73793 -0.10448,-1.35039 -0.30052,-1.83236 -0.18431,-0.43839 -0.48483,-0.71057 -0.78065,-0.71057 m -0.0329,0.29953 c 0.15496,0 0.30522,0.15247 0.41909,0.43282 0.12561,0.32671 0.16787,0.72416 0.16787,1.6799 0,0.98273 -0.0329,1.44292 -0.12561,1.74785 -0.10918,0.34308 -0.27704,0.54991 -0.45547,0.54991 -0.15965,0 -0.30639,-0.15247 -0.41792,-0.43021 -0.13265,-0.32932 -0.16905,-0.75953 -0.16905,-1.90293 0,-0.81686 0.0329,-1.21971 0.12679,-1.52743 0.108,-0.34848 0.27705,-0.54991 0.4543,-0.54991"
       id="path67"
       style="stroke-width:0.14302" />
    <path
       inkscape:connector-curvature="0"
       class="Fingering"
       d="m 30.277056,172.13361 -0.854721,0.1035 -0.01841,0.25318 H 29.5158 c 0.192638,0 0.267886,0.0627 0.267886,0.21519 0,0.068 -0.01292,0.16606 -0.04224,0.30754 l -0.599751,3.02211 c -0.09544,0.50374 -0.09908,0.50914 -0.418264,0.53092 l -0.02006,0.25039 h 1.128008 l 0.01833,-0.25039 h -0.05682 c -0.225626,0 -0.30087,-0.0408 -0.30087,-0.18244 0,-0.0543 0.02019,-0.17424 0.05317,-0.34848 l 0.229383,-1.13539 c 0.126547,0.48197 0.249456,0.61265 0.559367,0.61265 0.759402,0 1.219811,-1.22512 1.219811,-2.2434 0,-0.3403 -0.0459,-0.57169 -0.154136,-0.77312 -0.122909,-0.22339 -0.309911,-0.36226 -0.493397,-0.36226 -0.240298,0 -0.487872,0.20979 -0.698824,0.59366 l 0.06972,-0.59366 m 0.484239,0.37027 c 0.210948,0 0.352172,0.24238 0.352172,0.61265 0,0.38386 -0.08076,0.85763 -0.221987,1.28784 -0.163173,0.52273 -0.352173,0.75953 -0.599751,0.75953 -0.231141,0 -0.394434,-0.26956 -0.394434,-0.63983 0,-0.62623 0.332101,-2.02019 0.864,-2.02019"
       id="path68"
       style="stroke-width:0.14302" />
    <path
       inkscape:connector-curvature="0"
       class="Fingering"
       d="m 131.77058,171.82607 c -0.14087,0 -0.25239,0.16884 -0.25239,0.37846 0,0.20143 0.11152,0.37567 0.24887,0.37567 0.14556,0 0.25709,-0.16884 0.25709,-0.37567 0,-0.20962 -0.11153,-0.37846 -0.25357,-0.37846 m 0.0845,1.7015 -0.90038,0.1035 -0.0188,0.25318 h 0.1127 c 0.19252,0 0.26765,0.0627 0.26765,0.21519 0,0.068 -0.009,0.14689 -0.0423,0.30754 l -0.27352,1.35859 c -0.0881,0.4438 -0.10212,0.5419 -0.10212,0.70238 0,0.24516 0.14087,0.43299 0.31929,0.43299 0.40265,0 0.6797,-0.62083 0.8781,-1.07264 l -0.14675,-0.11989 c -0.24417,0.54992 -0.44022,0.84405 -0.567,0.84405 -0.047,0 -0.081,-0.0627 -0.081,-0.14706 0,-0.0681 0.0188,-0.19603 0.0575,-0.38927 l 0.49656,-2.48856"
       id="path69"
       style="stroke-width:0.14302" />
    <path
       inkscape:connector-curvature="0"
       class="Fingering"
       d="m 25.755516,208.89905 c -0.656569,0 -1.135403,1.05906 -1.135403,2.52393 0,1.43473 0.464163,2.4856 1.096897,2.4856 0.658561,0 1.118855,-1.0155 1.118855,-2.46661 0,-0.73775 -0.104479,-1.35039 -0.300759,-1.83236 -0.18348,-0.43822 -0.484234,-0.71056 -0.77959,-0.71056 m -0.033,0.29952 c 0.154131,0 0.304507,0.15247 0.418263,0.43282 0.126548,0.32672 0.168688,0.72434 0.168688,1.6799 0,0.98291 -0.03297,1.44291 -0.126547,1.74785 -0.108231,0.34308 -0.276924,0.55008 -0.454889,0.55008 -0.159534,0 -0.306274,-0.15246 -0.418263,-0.43021 -0.132067,-0.32949 -0.168693,-0.7597 -0.168693,-1.9031 0,-0.81686 0.03297,-1.21971 0.126548,-1.52742 0.108236,-0.34849 0.276928,-0.54992 0.454893,-0.54992"
       id="path70"
       style="stroke-width:0.14302" />
    <path
       inkscape:connector-curvature="0"
       class="Fingering"
       d="m 205.36641,172.13361 -0.85461,0.1035 -0.0188,0.25318 h 0.11153 c 0.19252,0 0.26765,0.0627 0.26765,0.21519 0,0.068 -0.0129,0.16606 -0.0423,0.30754 l -0.59987,3.02211 c -0.0951,0.50374 -0.0986,0.50914 -0.4179,0.53092 l -0.02,0.25039 h 1.12812 l 0.0188,-0.25039 h -0.0576 c -0.22538,0 -0.30052,-0.0408 -0.30052,-0.18244 0,-0.0543 0.0199,-0.17424 0.0528,-0.34848 l 0.23008,-1.13539 c 0.12561,0.48197 0.24888,0.61265 0.55879,0.61265 0.75951,0 1.21969,-1.22512 1.21969,-2.2434 0,-0.3403 -0.0458,-0.57169 -0.15379,-0.77312 -0.12326,-0.22339 -0.3099,-0.36226 -0.49304,-0.36226 -0.24065,0 -0.48834,0.20979 -0.69965,0.59366 l 0.0704,-0.59366 m 0.48365,0.37027 c 0.2113,0 0.35217,0.24238 0.35217,0.61265 0,0.38386 -0.081,0.85763 -0.22187,1.28784 -0.16317,0.52273 -0.35217,0.75953 -0.59986,0.75953 -0.23126,0 -0.39444,-0.26956 -0.39444,-0.63983 0,-0.62623 0.33222,-2.02019 0.864,-2.02019"
       id="path71"
       style="stroke-width:0.14302" />
    <path
       inkscape:connector-curvature="0"
       class="Fingering"
       d="m 200.84451,196.53308 c -0.65622,0 -1.13517,1.05906 -1.13517,2.52376 0,1.4349 0.46369,2.48577 1.09643,2.48577 0.65856,0 1.11874,-1.0155 1.11874,-2.46661 0,-0.73792 -0.10448,-1.35039 -0.30052,-1.83235 -0.18313,-0.4384 -0.48365,-0.71057 -0.77948,-0.71057 m -0.0329,0.29953 c 0.15377,0 0.30404,0.15246 0.41791,0.43282 0.12677,0.32671 0.16903,0.72416 0.16903,1.6799 0,0.98273 -0.0329,1.44291 -0.12678,1.74784 -0.108,0.34309 -0.27704,0.54992 -0.4543,0.54992 -0.15966,0 -0.30639,-0.15247 -0.41909,-0.43021 -0.13147,-0.32932 -0.16786,-0.75954 -0.16786,-1.9031 0,-0.81669 0.0329,-1.21971 0.1256,-1.52726 0.10917,-0.34849 0.27705,-0.54991 0.45549,-0.54991"
       id="path72"
       style="stroke-width:0.14302" />
    <path
       inkscape:connector-curvature="0"
       class="Fingering"
       d="m 44.226606,171.82607 c -0.141221,0 -0.253095,0.16884 -0.253095,0.37846 0,0.20143 0.111874,0.37567 0.249456,0.37567 0.14486,0 0.256733,-0.16884 0.256733,-0.37567 0,-0.20962 -0.111873,-0.37846 -0.253094,-0.37846 m 0.08441,1.7015 -0.900622,0.1035 -0.01831,0.25318 h 0.111873 c 0.192522,0 0.267769,0.0627 0.267769,0.21519 0,0.068 -0.0092,0.14689 -0.04214,0.30754 l -0.273286,1.35859 c -0.08804,0.4438 -0.102717,0.5419 -0.102717,0.70238 0,0.24516 0.141222,0.43299 0.31907,0.43299 0.403589,0 0.680514,-0.62083 0.878669,-1.07264 l -0.146738,-0.11989 c -0.243938,0.54992 -0.440216,0.84405 -0.566763,0.84405 -0.04778,0 -0.08076,-0.0627 -0.08076,-0.14706 0,-0.0681 0.01831,-0.19603 0.05682,-0.38927 l 0.49715,-2.48856"
       id="path73"
       style="stroke-width:0.14302" />
    <path
       inkscape:connector-curvature="0"
       class="Fingering"
       d="m 39.628055,189.76751 c -0.656566,0 -1.135404,1.05906 -1.135404,2.52376 0,1.43473 0.464163,2.48577 1.0969,2.48577 0.658563,0 1.118852,-1.01549 1.118852,-2.46677 0,-0.73776 -0.104478,-1.3504 -0.300755,-1.83219 -0.183482,-0.4384 -0.484237,-0.71057 -0.779593,-0.71057 m -0.03299,0.29936 c 0.154134,0 0.304512,0.15246 0.418263,0.43299 0.126548,0.32671 0.168691,0.72416 0.168691,1.67972 0,0.98291 -0.03299,1.44309 -0.126548,1.74802 -0.108234,0.34292 -0.276924,0.54991 -0.454889,0.54991 -0.159534,0 -0.306272,-0.15246 -0.418263,-0.4302 -0.132065,-0.32932 -0.168691,-0.75953 -0.168691,-1.9031 0,-0.81668 0.03299,-1.21971 0.126547,-1.52725 0.108235,-0.34849 0.276925,-0.55009 0.45489,-0.55009"
       id="path74"
       style="stroke-width:0.14302" />
    <path
       inkscape:connector-curvature="0"
       class="Fingering"
       d="m 219.31596,171.82607 c -0.14205,0 -0.25357,0.16884 -0.25357,0.37846 0,0.20143 0.11152,0.37567 0.25004,0.37567 0.1444,0 0.25592,-0.16884 0.25592,-0.37567 0,-0.20962 -0.11152,-0.37846 -0.25239,-0.37846 m 0.0845,1.7015 -0.90156,0.1035 -0.0176,0.25318 h 0.11152 c 0.19253,0 0.26766,0.0627 0.26766,0.21519 0,0.068 -0.009,0.14689 -0.0423,0.30754 l -0.27351,1.35859 c -0.0881,0.4438 -0.10213,0.5419 -0.10213,0.70238 0,0.24516 0.14086,0.43299 0.3193,0.43299 0.40382,0 0.67969,-0.62083 0.87808,-1.07264 l -0.14673,-0.11989 c -0.24419,0.54992 -0.44022,0.84405 -0.56701,0.84405 -0.047,0 -0.0798,-0.0627 -0.0798,-0.14706 0,-0.0681 0.0176,-0.19603 0.0564,-0.38927 l 0.49774,-2.48856"
       id="path75"
       style="stroke-width:0.14302" />
    <path
       inkscape:connector-curvature="0"
       class="Fingering"
       d="m 58.022139,172.13361 -0.854837,0.1035 -0.01833,0.25318 h 0.111873 c 0.192638,0 0.267887,0.0627 0.267887,0.21519 0,0.068 -0.01292,0.16606 -0.04229,0.30754 l -0.599752,3.02211 c -0.09544,0.50374 -0.09908,0.50914 -0.418263,0.53092 l -0.02019,0.25039 h 1.128127 l 0.01833,-0.25039 h -0.05682 c -0.225625,0 -0.300874,-0.0408 -0.300874,-0.18244 0,-0.0543 0.02019,-0.17424 0.05318,-0.34848 l 0.229263,-1.13539 c 0.126662,0.48197 0.249455,0.61265 0.559483,0.61265 0.759401,0 1.21981,-1.22512 1.21981,-2.2434 0,-0.3403 -0.0459,-0.57169 -0.154135,-0.77312 -0.122909,-0.22339 -0.309912,-0.36226 -0.493396,-0.36226 -0.240299,0 -0.487873,0.20979 -0.698827,0.59366 l 0.06973,-0.59366 m 0.484239,0.37027 c 0.210952,0 0.352171,0.24238 0.352171,0.61265 0,0.38386 -0.08076,0.85763 -0.221986,1.28784 -0.163289,0.52273 -0.352173,0.75953 -0.599748,0.75953 -0.231145,0 -0.394433,-0.26956 -0.394433,-0.63983 0,-0.62623 0.331981,-2.02019 0.863996,-2.02019"
       id="path76"
       style="stroke-width:0.14302" />
    <path
       inkscape:connector-curvature="0"
       class="Fingering"
       d="m 145.56634,172.13361 -0.8546,0.1035 -0.0188,0.25318 h 0.1127 c 0.19252,0 0.26765,0.0627 0.26765,0.21519 0,0.068 -0.0129,0.16606 -0.0422,0.30754 l -0.59987,3.02211 c -0.0951,0.50374 -0.0986,0.50914 -0.41791,0.53092 l -0.02,0.25039 h 1.12812 l 0.0176,-0.25039 h -0.0564 c -0.22539,0 -0.30169,-0.0408 -0.30169,-0.18244 0,-0.0543 0.0211,-0.17424 0.054,-0.34848 l 0.22891,-1.13539 c 0.12679,0.48197 0.25005,0.61265 0.55995,0.61265 0.75952,0 1.21969,-1.22512 1.21969,-2.2434 0,-0.3403 -0.0458,-0.57169 -0.15495,-0.77312 -0.12209,-0.22339 -0.30992,-0.36226 -0.49304,-0.36226 -0.24066,0 -0.48717,0.20979 -0.69848,0.59366 l 0.0692,-0.59366 m 0.48483,0.37027 c 0.21013,0 0.35218,0.24238 0.35218,0.61265 0,0.38386 -0.081,0.85763 -0.22188,1.28784 -0.16316,0.52273 -0.35217,0.75953 -0.59987,0.75953 -0.23126,0 -0.39443,-0.26956 -0.39443,-0.63983 0,-0.62623 0.33222,-2.02019 0.864,-2.02019"
       id="path77"
       style="stroke-width:0.14302" />
    <path
       inkscape:connector-curvature="0"
       class="Fingering"
       d="m 233.11055,172.13361 -0.8546,0.1035 -0.0176,0.25318 h 0.11152 c 0.19252,0 0.26765,0.0627 0.26765,0.21519 0,0.068 -0.0129,0.16606 -0.0423,0.30754 l -0.59986,3.02211 c -0.0951,0.50374 -0.0986,0.50914 -0.41791,0.53092 l -0.02,0.25039 h 1.12813 l 0.0176,-0.25039 h -0.0564 c -0.2254,0 -0.30053,-0.0408 -0.30053,-0.18244 0,-0.0543 0.02,-0.17424 0.0528,-0.34848 l 0.22892,-1.13539 c 0.12678,0.48197 0.25004,0.61265 0.55995,0.61265 0.75952,0 1.21969,-1.22512 1.21969,-2.2434 0,-0.3403 -0.0458,-0.57169 -0.15378,-0.77312 -0.12327,-0.22339 -0.30991,-0.36226 -0.49422,-0.36226 -0.23948,0 -0.48717,0.20979 -0.69847,0.59366 l 0.0692,-0.59366 m 0.48482,0.37027 c 0.21131,0 0.35217,0.24238 0.35217,0.61265 0,0.38386 -0.081,0.85763 -0.22186,1.28784 -0.16318,0.52273 -0.35218,0.75953 -0.59987,0.75953 -0.23126,0 -0.39443,-0.26956 -0.39443,-0.63983 0,-0.62623 0.33221,-2.02019 0.86399,-2.02019"
       id="path78"
       style="stroke-width:0.14302" />
    <path
       inkscape:connector-curvature="0"
       class="Fingering"
       d="m 53.060263,209.55281 c -0.656684,0 -1.135403,1.05906 -1.135403,2.52376 0,1.4349 0.464046,2.48577 1.0969,2.48577 0.658447,0 1.118851,-1.0155 1.118851,-2.46661 0,-0.73792 -0.104594,-1.35039 -0.300869,-1.83235 -0.183366,-0.4384 -0.48424,-0.71057 -0.779479,-0.71057 m -0.03309,0.29952 c 0.154135,0 0.304512,0.15247 0.418263,0.43283 0.126547,0.32671 0.168693,0.72416 0.168693,1.67989 0,0.98274 -0.03297,1.44292 -0.126548,1.74785 -0.108236,0.34309 -0.276923,0.54992 -0.454889,0.54992 -0.159535,0 -0.306273,-0.15247 -0.418148,-0.43022 -0.132066,-0.32932 -0.168807,-0.75953 -0.168807,-1.90292 0,-0.81686 0.0331,-1.21971 0.126546,-1.52743 0.108237,-0.34849 0.277044,-0.54992 0.45489,-0.54992"
       id="path79"
       style="stroke-width:0.14302" />
    <path
       inkscape:connector-curvature="0"
       class="Fingering"
       d="m 117.82103,172.13361 -0.85461,0.1035 -0.0176,0.25318 h 0.11151 c 0.19252,0 0.26765,0.0627 0.26765,0.21519 0,0.068 -0.0129,0.16606 -0.0422,0.30754 l -0.59987,3.02211 c -0.0951,0.50374 -0.0986,0.50914 -0.4179,0.53092 l -0.02,0.25039 h 1.12812 l 0.0176,-0.25039 h -0.0564 c -0.2254,0 -0.30052,-0.0408 -0.30052,-0.18244 0,-0.0543 0.0199,-0.17424 0.0528,-0.34848 l 0.22891,-1.13539 c 0.12678,0.48197 0.25004,0.61265 0.55996,0.61265 0.75952,0 1.21969,-1.22512 1.21969,-2.2434 0,-0.3403 -0.0458,-0.57169 -0.15378,-0.77312 -0.12326,-0.22339 -0.30991,-0.36226 -0.49422,-0.36226 -0.23948,0 -0.48716,0.20979 -0.69847,0.59366 l 0.0692,-0.59366 m 0.48482,0.37027 c 0.2113,0 0.35217,0.24238 0.35217,0.61265 0,0.38386 -0.081,0.85763 -0.22187,1.28784 -0.16317,0.52273 -0.35217,0.75953 -0.59986,0.75953 -0.23126,0 -0.39443,-0.26956 -0.39443,-0.63983 0,-0.62623 0.33221,-2.02019 0.86399,-2.02019"
       id="path80"
       style="stroke-width:0.14302" />
    <path
       inkscape:connector-curvature="0"
       class="Fingering"
       d="m 245.9085,173.52757 -0.85461,0.1035 -0.014,0.25318 h 0.11269 c 0.18783,0 0.26296,0.0627 0.26296,0.22059 0,0.0626 -0.0152,0.16884 -0.0388,0.30214 l -0.47896,2.39586 h 0.40969 l 0.19252,-0.98274 c 0.21013,-1.06724 0.6386,-1.87312 0.99078,-1.87312 0.12209,0 0.19722,0.0953 0.19722,0.26955 0,0.14149 -0.0388,0.43283 -0.0951,0.69698 l -0.37448,1.88933 h 0.40735 l 0.20191,-1.01009 c 0.11739,-0.57989 0.23478,-0.96915 0.38505,-1.26868 0.16904,-0.34849 0.40969,-0.57709 0.58695,-0.57709 0.11739,0 0.18313,0.0897 0.18313,0.25579 0,0.0981 -0.0235,0.25056 -0.0658,0.44659 l -0.216,0.99092 c -0.12678,0.54191 -0.1303,0.58547 -0.1303,0.7787 0,0.29413 0.14439,0.48736 0.36508,0.48736 0.15614,0 0.30639,-0.11168 0.46605,-0.3321 0.0986,-0.14167 0.16316,-0.26677 0.35569,-0.68339 l -0.14557,-0.14707 c -0.24299,0.54452 -0.4179,0.80868 -0.53881,0.80868 -0.0516,0 -0.0986,-0.0763 -0.0986,-0.17425 0,-0.0627 0.014,-0.13887 0.0564,-0.34308 l 0.29583,-1.3504 c 0.0329,-0.15246 0.0564,-0.37027 0.0564,-0.52273 0,-0.37027 -0.18313,-0.63443 -0.43669,-0.63443 -0.3334,0 -0.63392,0.32131 -0.90627,0.98291 0.0188,-0.13347 0.0282,-0.25038 0.0282,-0.3349 0,-0.37027 -0.19837,-0.64801 -0.45547,-0.64801 -0.297,0 -0.51182,0.24516 -0.84169,0.94214 l 0.13734,-0.94214"
       id="path81"
       style="stroke-width:0.14302" />
    <path
       inkscape:connector-curvature="0"
       class="Fingering"
       d="m 158.3643,173.52757 -0.85461,0.1035 -0.0152,0.25318 h 0.11387 c 0.18782,0 0.26295,0.0627 0.26295,0.22059 0,0.0626 -0.0152,0.16884 -0.0387,0.30214 l -0.47895,2.39586 h 0.40852 l 0.1937,-0.98274 c 0.21012,-1.06724 0.63743,-1.87312 0.98961,-1.87312 0.12325,0 0.19837,0.0953 0.19837,0.26955 0,0.14149 -0.0388,0.43283 -0.0951,0.69698 l -0.37447,1.88933 h 0.40734 l 0.20192,-1.01009 c 0.11738,-0.57989 0.23478,-0.96915 0.38504,-1.26868 0.16903,-0.34849 0.40851,-0.57709 0.58695,-0.57709 0.11739,0 0.18314,0.0897 0.18314,0.25579 0,0.0981 -0.0234,0.25056 -0.0658,0.44659 l -0.21601,0.99092 c -0.12677,0.54191 -0.1303,0.58547 -0.1303,0.7787 0,0.29413 0.14439,0.48736 0.36509,0.48736 0.15495,0 0.30521,-0.11168 0.46487,-0.3321 0.0998,-0.14167 0.16317,-0.26677 0.35686,-0.68339 l -0.14556,-0.14707 c -0.24417,0.54452 -0.41792,0.80868 -0.53883,0.80868 -0.0516,0 -0.0998,-0.0763 -0.0998,-0.17425 0,-0.0627 0.0152,-0.13887 0.0576,-0.34308 l 0.29465,-1.3504 c 0.0329,-0.15246 0.0576,-0.37027 0.0576,-0.52273 0,-0.37027 -0.18313,-0.63443 -0.43669,-0.63443 -0.33339,0 -0.63509,0.32131 -0.90626,0.98291 0.0188,-0.13347 0.0271,-0.25038 0.0271,-0.3349 0,-0.37027 -0.19722,-0.64801 -0.4543,-0.64801 -0.297,0 -0.51183,0.24516 -0.8417,0.94214 l 0.13735,-0.94214"
       id="path82"
       style="stroke-width:0.14302" />
    <path
       inkscape:connector-curvature="0"
       class="Fingering"
       d="m 70.819736,173.52757 -0.854723,0.1035 -0.01472,0.25318 h 0.113756 c 0.18712,0 0.262249,0.0627 0.262249,0.22059 0,0.0626 -0.01466,0.16884 -0.03852,0.30214 l -0.478724,2.39586 h 0.408989 l 0.192644,-0.98274 c 0.210945,-1.06724 0.638365,-1.87312 0.990538,-1.87312 0.122792,0 0.198039,0.0953 0.198039,0.26955 0,0.14149 -0.03852,0.43283 -0.09532,0.69698 l -0.374246,1.88933 h 0.407231 l 0.201797,-1.01009 c 0.117391,-0.57989 0.234776,-0.96915 0.385153,-1.26868 0.168694,-0.34849 0.408995,-0.57709 0.586955,-0.57709 0.117391,0 0.183367,0.0897 0.183367,0.25579 0,0.0981 -0.0238,0.25056 -0.06597,0.44659 l -0.216469,0.99092 c -0.126546,0.54191 -0.130187,0.58547 -0.130187,0.7787 0,0.29413 0.144864,0.48736 0.364969,0.48736 0.1559,0 0.306276,-0.11168 0.465929,-0.3321 0.09908,-0.14167 0.163171,-0.26677 0.355809,-0.68339 l -0.144859,-0.14707 c -0.243941,0.54452 -0.418266,0.80868 -0.539298,0.80868 -0.05142,0 -0.09908,-0.0763 -0.09908,-0.17425 0,-0.0627 0.01466,-0.13887 0.05694,-0.34308 l 0.295235,-1.3504 c 0.03296,-0.15246 0.05694,-0.37027 0.05694,-0.52273 0,-0.37027 -0.183483,-0.63443 -0.436579,-0.63443 -0.333854,0 -0.634612,0.32131 -0.906138,0.98291 0.01829,-0.13347 0.02745,-0.25038 0.02745,-0.3349 0,-0.37027 -0.198038,-0.64801 -0.454887,-0.64801 -0.297116,0 -0.511709,0.24516 -0.84181,0.94214 l 0.137463,-0.94214"
       id="path83"
       style="stroke-width:0.14302" />
    <path
       inkscape:connector-curvature="0"
       class="Fingering"
       d="m 260.85587,172.13361 -0.8546,0.1035 -0.0188,0.25318 h 0.1127 c 0.19252,0 0.26765,0.0627 0.26765,0.21519 0,0.068 -0.0129,0.16606 -0.0423,0.30754 l -0.59987,3.02211 c -0.0951,0.50374 -0.0986,0.50914 -0.41791,0.53092 l -0.0199,0.25039 h 1.12813 l 0.0176,-0.25039 h -0.0564 c -0.22539,0 -0.30169,-0.0408 -0.30169,-0.18244 0,-0.0543 0.0211,-0.17424 0.054,-0.34848 l 0.22891,-1.13539 c 0.12679,0.48197 0.25005,0.61265 0.55995,0.61265 0.75952,0 1.2197,-1.22512 1.2197,-2.2434 0,-0.3403 -0.0458,-0.57169 -0.15496,-0.77312 -0.12209,-0.22339 -0.30991,-0.36226 -0.49304,-0.36226 -0.24065,0 -0.48717,0.20979 -0.69848,0.59366 l 0.0692,-0.59366 m 0.48482,0.37027 c 0.21013,0 0.35218,0.24238 0.35218,0.61265 0,0.38386 -0.081,0.85763 -0.22188,1.28784 -0.16316,0.52273 -0.35217,0.75953 -0.59987,0.75953 -0.23125,0 -0.39443,-0.26956 -0.39443,-0.63983 0,-0.62623 0.33222,-2.02019 0.864,-2.02019"
       id="path84"
       style="stroke-width:0.14302" />
    <path
       inkscape:connector-curvature="0"
       class="Fingering"
       d="m 67.373143,185.45235 c -0.656685,0 -1.135405,1.05905 -1.135405,2.52375 0,1.4349 0.464043,2.48578 1.096897,2.48578 0.658446,0 1.118855,-1.0155 1.118855,-2.46661 0,-0.73793 -0.104478,-1.3504 -0.300758,-1.83235 -0.183481,-0.43841 -0.484235,-0.71057 -0.779589,-0.71057 m -0.03301,0.29952 c 0.154015,0 0.304512,0.15246 0.418143,0.43283 0.126667,0.3267 0.168813,0.72416 0.168813,1.67989 0,0.98274 -0.03301,1.44291 -0.126552,1.74784 -0.108232,0.34309 -0.27704,0.54992 -0.454889,0.54992 -0.159651,0 -0.306389,-0.15246 -0.418264,-0.43021 -0.132061,-0.32932 -0.168688,-0.75953 -0.168688,-1.90292 0,-0.81686 0.03297,-1.21972 0.126548,-1.52743 0.108231,-0.34849 0.276924,-0.54992 0.454889,-0.54992"
       id="path85"
       style="stroke-width:0.14302" />
    <path
       inkscape:connector-curvature="0"
       class="Fingering"
       d="m 85.767462,172.13361 -0.854606,0.1035 -0.01877,0.25318 h 0.111521 c 0.192522,0 0.26765,0.0627 0.26765,0.21519 0,0.068 -0.01172,0.16606 -0.0411,0.30754 l -0.599868,3.02211 c -0.09626,0.50374 -0.09977,0.50914 -0.419081,0.53092 l -0.01994,0.25039 h 1.128125 l 0.01877,-0.25039 h -0.05753 c -0.225388,0 -0.300518,-0.0408 -0.300518,-0.18244 0,-0.0543 0.02,-0.17424 0.05284,-0.34848 l 0.230091,-1.13539 c 0.125606,0.48197 0.248868,0.61265 0.558779,0.61265 0.759521,0 1.219692,-1.22512 1.219692,-2.2434 0,-0.3403 -0.04579,-0.57169 -0.153783,-0.77312 -0.123261,-0.22339 -0.309912,-0.36226 -0.493038,-0.36226 -0.240658,0 -0.488353,0.20979 -0.699656,0.59366 l 0.07044,-0.59366 m 0.483649,0.37027 c 0.211303,0 0.352174,0.24238 0.352174,0.61265 0,0.38386 -0.07983,0.85763 -0.22187,1.28784 -0.163178,0.52273 -0.352173,0.75953 -0.599868,0.75953 -0.231258,0 -0.394435,-0.26956 -0.394435,-0.63983 0,-0.62623 0.332218,-2.02019 0.863999,-2.02019"
       id="path86"
       style="stroke-width:0.14302" />
    <path
       inkscape:connector-curvature="0"
       class="Fingering"
       d="m 275.19633,173.54604 -0.12795,0.62885 c -0.0317,-0.43283 -0.26647,-0.73235 -0.57287,-0.73235 -0.70786,0 -1.15395,1.32321 -1.15395,2.2434 0,0.68339 0.27704,1.13538 0.69378,1.13538 0.297,0 0.47896,-0.17425 0.71373,-0.6752 -0.0188,0.10611 -0.0223,0.15246 -0.0223,0.22321 0,0.27234 0.11739,0.45199 0.28643,0.45199 0.37566,0 0.63862,-0.63443 0.77949,-1.08642 l -0.14674,-0.11692 c -0.17844,0.53633 -0.34278,0.82209 -0.4637,0.82209 -0.0576,0 -0.0998,-0.0789 -0.0998,-0.17424 0,-0.0789 0.0188,-0.19603 0.0516,-0.37847 l 0.46956,-2.34132 h -0.40735 m -0.61982,0.28036 c 0.21952,0 0.3557,0.22878 0.3557,0.62083 0,0.40286 -0.0939,0.95295 -0.23831,1.39117 -0.14673,0.433 -0.31578,0.62903 -0.55056,0.62903 -0.23478,0 -0.37565,-0.25876 -0.37565,-0.68339 0,-0.62624 0.26413,-1.95764 0.80882,-1.95764"
       id="path87"
       style="stroke-width:0.14302" />
    <path
       inkscape:connector-curvature="0"
       class="Fingering"
       d="m 100.10793,173.54604 -0.129136,0.62885 c -0.03055,-0.43283 -0.265304,-0.73235 -0.571691,-0.73235 -0.707872,0 -1.153951,1.32321 -1.153951,2.2434 0,0.68339 0.277038,1.13538 0.693774,1.13538 0.296999,0 0.477786,-0.17425 0.712562,-0.6752 -0.01759,0.10611 -0.02111,0.15246 -0.02111,0.22321 0,0.27234 0.117386,0.45199 0.285259,0.45199 0.376823,0 0.638603,-0.63443 0.779473,-1.08642 l -0.14674,-0.11692 c -0.17726,0.53633 -0.34277,0.82209 -0.46369,0.82209 -0.0563,0 -0.09861,-0.0789 -0.09861,-0.17424 0,-0.0789 0.01759,-0.19603 0.05048,-0.37847 l 0.46956,-2.34132 h -0.40617 m -0.620997,0.28036 c 0.220697,0 0.35687,0.22878 0.35687,0.62083 0,0.40286 -0.09392,0.95295 -0.239479,1.39117 -0.14674,0.433 -0.314603,0.62903 -0.549391,0.62903 -0.234782,0 -0.376819,-0.25876 -0.376819,-0.68339 0,-0.62624 0.264125,-1.95764 0.808819,-1.95764"
       id="path88"
       style="stroke-width:0.14302" />
    <path
       inkscape:connector-curvature="0"
       class="Fingering"
       d="m 126.98542,189.7911 c -0.65657,0 -1.13541,1.05906 -1.13541,2.52376 0,1.43473 0.46417,2.48577 1.0969,2.48577 0.65857,0 1.11885,-1.01549 1.11885,-2.46677 0,-0.73776 -0.10448,-1.3504 -0.30075,-1.83219 -0.18348,-0.4384 -0.48424,-0.71057 -0.77959,-0.71057 m -0.033,0.29936 c 0.15414,0 0.30452,0.15246 0.41827,0.43299 0.12655,0.32671 0.16869,0.72416 0.16869,1.67972 0,0.98291 -0.033,1.44309 -0.12655,1.74802 -0.10823,0.34292 -0.27692,0.54991 -0.4549,0.54991 -0.15953,0 -0.30627,-0.15246 -0.41826,-0.4302 -0.13206,-0.32932 -0.16869,-0.75953 -0.16869,-1.9031 0,-0.81668 0.033,-1.21971 0.12655,-1.52725 0.10823,-0.34849 0.27693,-0.55009 0.45489,-0.55009"
       id="path74-3"
       style="stroke-width:0.14302" />
    <path
       inkscape:connector-curvature="0"
       class="Fingering"
       d="m 154.53081,185.25539 c -0.65657,0 -1.13541,1.05906 -1.13541,2.52376 0,1.43473 0.46417,2.48577 1.0969,2.48577 0.65857,0 1.11885,-1.01549 1.11885,-2.46677 0,-0.73776 -0.10448,-1.3504 -0.30075,-1.83219 -0.18348,-0.4384 -0.48423,-0.71057 -0.77959,-0.71057 m -0.033,0.29936 c 0.15414,0 0.30452,0.15246 0.41827,0.43299 0.12655,0.32671 0.16869,0.72416 0.16869,1.67972 0,0.98291 -0.033,1.44309 -0.12655,1.74802 -0.10823,0.34292 -0.27692,0.54991 -0.4549,0.54991 -0.15952,0 -0.30627,-0.15246 -0.41826,-0.4302 -0.13206,-0.32932 -0.16869,-0.75953 -0.16869,-1.9031 0,-0.81668 0.033,-1.21971 0.12655,-1.52725 0.10824,-0.34849 0.27693,-0.55009 0.45489,-0.55009"
       id="path74-6"
       style="stroke-width:0.14302" />
    <path
       inkscape:connector-curvature="0"
       class="Fingering"
       d="m 140.60019,202.65294 c -0.65657,0 -1.13541,1.05906 -1.13541,2.52376 0,1.43473 0.46417,2.48577 1.0969,2.48577 0.65856,0 1.11886,-1.01549 1.11886,-2.46677 0,-0.73776 -0.10449,-1.3504 -0.30076,-1.83219 -0.18348,-0.4384 -0.48423,-0.71057 -0.77959,-0.71057 m -0.033,0.29936 c 0.15413,0 0.30451,0.15246 0.41826,0.43299 0.12655,0.32671 0.16869,0.72416 0.16869,1.67972 0,0.98291 -0.033,1.44309 -0.12655,1.74802 -0.10823,0.34292 -0.27691,0.54991 -0.45488,0.54991 -0.15953,0 -0.30628,-0.15246 -0.41827,-0.4302 -0.13206,-0.32932 -0.16869,-0.75953 -0.16869,-1.9031 0,-0.81668 0.033,-1.21971 0.12655,-1.52725 0.10824,-0.34849 0.27693,-0.55009 0.45489,-0.55009"
       id="path74-7"
       style="stroke-width:0.14302" />
    <path
       inkscape:connector-curvature="0"
       class="Fingering"
       d="m 168.34551,203.18211 c -0.65655,0 -1.1354,1.05906 -1.1354,2.52376 0,1.43473 0.46417,2.48577 1.09691,2.48577 0.65856,0 1.11884,-1.01549 1.11884,-2.46677 0,-0.73776 -0.10447,-1.3504 -0.30075,-1.83219 -0.18348,-0.4384 -0.48424,-0.71057 -0.7796,-0.71057 m -0.033,0.29936 c 0.15414,0 0.30451,0.15246 0.41827,0.43299 0.12654,0.32671 0.16869,0.72416 0.16869,1.67972 0,0.98291 -0.033,1.44309 -0.12655,1.74802 -0.10824,0.34292 -0.27693,0.54991 -0.45489,0.54991 -0.15954,0 -0.30627,-0.15246 -0.41827,-0.4302 -0.13206,-0.32932 -0.16869,-0.75953 -0.16869,-1.9031 0,-0.81668 0.033,-1.21971 0.12655,-1.52725 0.10823,-0.34849 0.27692,-0.55009 0.45489,-0.55009"
       id="path74-5"
       style="stroke-width:0.14302" />
    <path
       inkscape:connector-curvature="0"
       class="Fingering"
       d="m 182.59268,178.82979 c -0.65657,0 -1.13541,1.05906 -1.13541,2.52376 0,1.43473 0.46417,2.48577 1.09691,2.48577 0.65856,0 1.11884,-1.01549 1.11884,-2.46677 0,-0.73776 -0.10447,-1.3504 -0.30075,-1.83219 -0.18348,-0.4384 -0.48423,-0.71057 -0.77959,-0.71057 m -0.033,0.29936 c 0.15414,0 0.30452,0.15246 0.41827,0.43299 0.12655,0.32671 0.16869,0.72416 0.16869,1.67972 0,0.98291 -0.033,1.44309 -0.12655,1.74802 -0.10823,0.34292 -0.27692,0.54991 -0.45489,0.54991 -0.15953,0 -0.30627,-0.15246 -0.41827,-0.4302 -0.13206,-0.32932 -0.16869,-0.75953 -0.16869,-1.9031 0,-0.81668 0.033,-1.21971 0.12655,-1.52725 0.10824,-0.34849 0.27693,-0.55009 0.45489,-0.55009"
       id="path74-35"
       style="stroke-width:0.14302" />
    <path
       inkscape:connector-curvature="0"
       class="Fingering"
       d="m 215.29127,189.88483 c -0.65656,0 -1.1354,1.05906 -1.1354,2.52376 0,1.43473 0.46417,2.48577 1.0969,2.48577 0.65857,0 1.11885,-1.01549 1.11885,-2.46677 0,-0.73776 -0.10448,-1.3504 -0.30075,-1.83219 -0.18348,-0.4384 -0.48424,-0.71057 -0.7796,-0.71057 m -0.033,0.29936 c 0.15415,0 0.30452,0.15246 0.41828,0.43299 0.12654,0.32671 0.16869,0.72416 0.16869,1.67972 0,0.98291 -0.033,1.44309 -0.12655,1.74802 -0.10824,0.34292 -0.27693,0.54991 -0.4549,0.54991 -0.15953,0 -0.30627,-0.15246 -0.41826,-0.4302 -0.13206,-0.32932 -0.16869,-0.75953 -0.16869,-1.9031 0,-0.81668 0.033,-1.21971 0.12655,-1.52725 0.10823,-0.34849 0.27692,-0.55009 0.45488,-0.55009"
       id="path74-62"
       style="stroke-width:0.14302" />
    <path
       inkscape:connector-curvature="0"
       class="Fingering"
       d="m 228.86898,196.02767 c -0.65657,0 -1.13541,1.05906 -1.13541,2.52376 0,1.43473 0.46417,2.48577 1.09691,2.48577 0.65856,0 1.11884,-1.01549 1.11884,-2.46677 0,-0.73776 -0.10447,-1.3504 -0.30075,-1.83219 -0.18348,-0.4384 -0.48423,-0.71057 -0.77959,-0.71057 m -0.033,0.29936 c 0.15414,0 0.30452,0.15246 0.41827,0.43299 0.12655,0.32671 0.16869,0.72416 0.16869,1.67972 0,0.98291 -0.033,1.44309 -0.12655,1.74802 -0.10823,0.34292 -0.27692,0.54991 -0.45489,0.54991 -0.15953,0 -0.30627,-0.15246 -0.41827,-0.4302 -0.13206,-0.32932 -0.16869,-0.75953 -0.16869,-1.9031 0,-0.81668 0.033,-1.21971 0.12655,-1.52725 0.10824,-0.34849 0.27693,-0.55009 0.45489,-0.55009"
       id="path74-9"
       style="stroke-width:0.14302" />
    <path
       inkscape:connector-curvature="0"
       class="Fingering"
       d="m 242.46957,185.14189 c -0.65657,0 -1.13541,1.05906 -1.13541,2.52376 0,1.43473 0.46416,2.48577 1.0969,2.48577 0.65856,0 1.11885,-1.01549 1.11885,-2.46677 0,-0.73776 -0.10448,-1.3504 -0.30075,-1.83219 -0.18349,-0.4384 -0.48424,-0.71057 -0.77959,-0.71057 m -0.033,0.29936 c 0.15413,0 0.30451,0.15246 0.41826,0.43299 0.12655,0.32671 0.16869,0.72416 0.16869,1.67972 0,0.98291 -0.033,1.44309 -0.12655,1.74802 -0.10823,0.34292 -0.27692,0.54991 -0.45489,0.54991 -0.15953,0 -0.30627,-0.15246 -0.41826,-0.4302 -0.13206,-0.32932 -0.16869,-0.75953 -0.16869,-1.9031 0,-0.81668 0.033,-1.21971 0.12655,-1.52725 0.10824,-0.34849 0.27693,-0.55009 0.45489,-0.55009"
       id="path74-1"
       style="stroke-width:0.14302" />
    <path
       inkscape:connector-curvature="0"
       class="Fingering"
       d="m 256.72437,196.33006 c -0.65657,0 -1.1354,1.05906 -1.1354,2.52376 0,1.43473 0.46415,2.48577 1.09689,2.48577 0.65856,0 1.11886,-1.01549 1.11886,-2.46677 0,-0.73776 -0.10448,-1.3504 -0.30076,-1.83219 -0.18348,-0.4384 -0.48424,-0.71057 -0.77959,-0.71057 m -0.033,0.29936 c 0.15413,0 0.30451,0.15246 0.41826,0.43299 0.12655,0.32671 0.16869,0.72416 0.16869,1.67972 0,0.98291 -0.033,1.44309 -0.12654,1.74802 -0.10824,0.34292 -0.27693,0.54991 -0.45489,0.54991 -0.15953,0 -0.30627,-0.15246 -0.41826,-0.4302 -0.13207,-0.32932 -0.16869,-0.75953 -0.16869,-1.9031 0,-0.81668 0.033,-1.21971 0.12654,-1.52725 0.10824,-0.34849 0.27693,-0.55009 0.45489,-0.55009"
       id="path74-2"
       style="stroke-width:0.14302" />
  </g>
</svg>
