<?xml version="1.0" encoding="UTF-8" standalone="no"?>
<!-- Created with Inkscape (http://www.inkscape.org/) -->

<svg
   width="297mm"
   height="210mm"
   viewBox="0 0 297 210"
   version="1.1"
   id="svg870"
   inkscape:version="1.2.2 (b0a8486541, 2022-12-01)"
   sodipodi:docname="timesignature.svg"
   xmlns:inkscape="http://www.inkscape.org/namespaces/inkscape"
   xmlns:sodipodi="http://sodipodi.sourceforge.net/DTD/sodipodi-0.dtd"
   xmlns="http://www.w3.org/2000/svg"
   xmlns:svg="http://www.w3.org/2000/svg"
   xmlns:rdf="http://www.w3.org/1999/02/22-rdf-syntax-ns#"
   xmlns:cc="http://creativecommons.org/ns#"
   xmlns:dc="http://purl.org/dc/elements/1.1/">
  <defs
     id="defs864">
    <marker
       style="overflow:visible"
       id="TriangleStart"
       refX="0"
       refY="0"
       orient="auto-start-reverse"
       inkscape:stockid="TriangleStart"
       markerWidth="5.3244081"
       markerHeight="6.155385"
       viewBox="0 0 5.3244081 6.1553851"
       inkscape:isstock="true"
       inkscape:collect="always"
       preserveAspectRatio="xMidYMid">
      <path
         transform="scale(0.5)"
         style="fill:context-stroke;fill-rule:evenodd;stroke:context-stroke;stroke-width:1pt"
         d="M 5.77,0 -2.88,5 V -5 Z"
         id="path135" />
    </marker>
    <inkscape:path-effect
       effect="powerstroke"
       id="path-effect3337"
       is_visible="true"
       offset_points="1,0.12808547"
       sort_points="true"
       interpolator_type="CubicBezierJohan"
       interpolator_beta="0.2"
       start_linecap_type="zerowidth"
       linejoin_type="extrp_arc"
       miter_limit="4"
       end_linecap_type="zerowidth" />
    <marker
       inkscape:stockid="Arrow2Lstart"
       orient="auto"
       refY="0"
       refX="0"
       id="Arrow2Lstart"
       style="overflow:visible"
       inkscape:isstock="true">
      <path
         id="path1527"
         style="fill:#e95ef2;fill-opacity:1;fill-rule:evenodd;stroke:#799ad4;stroke-width:0.625;stroke-linejoin:round;stroke-opacity:1"
         d="M 8.7185878,4.0337352 -2.2072895,0.01601326 8.7185884,-4.0017078 c -1.7454984,2.3720609 -1.7354408,5.6174519 -6e-7,8.035443 z"
         transform="matrix(1.1,0,0,1.1,1.1,0)" />
    </marker>
    <marker
       inkscape:stockid="Arrow1Lstart"
       orient="auto"
       refY="0.0"
       refX="0.0"
       id="Arrow1Lstart"
       style="overflow:visible"
       inkscape:isstock="true">
      <path
         id="path1509"
         d="M 0.0,0.0 L 5.0,-5.0 L -12.5,0.0 L 5.0,5.0 L 0.0,0.0 z "
         style="fill-rule:evenodd;stroke:#799ad4;stroke-width:1pt;stroke-opacity:1;fill:#e95ef2;fill-opacity:1"
         transform="scale(0.8) translate(12.5,0)" />
    </marker>
    <inkscape:path-effect
       effect="powerstroke"
       id="path-effect1507"
       is_visible="true"
       offset_points="1,0.13229166"
       sort_points="true"
       interpolator_type="CubicBezierJohan"
       interpolator_beta="0.2"
       start_linecap_type="zerowidth"
       linejoin_type="extrp_arc"
       miter_limit="4"
       end_linecap_type="zerowidth" />
  </defs>
  <sodipodi:namedview
     id="base"
     pagecolor="#ffffff"
     bordercolor="#666666"
     borderopacity="1.0"
     inkscape:pageopacity="0.0"
     inkscape:pageshadow="2"
     inkscape:zoom="1.4"
     inkscape:cx="295.71429"
     inkscape:cy="502.5"
     inkscape:document-units="mm"
     inkscape:current-layer="layer1"
     showgrid="false"
     inkscape:window-width="1280"
     inkscape:window-height="651"
     inkscape:window-x="0"
     inkscape:window-y="32"
     inkscape:window-maximized="1"
     inkscape:showpageshadow="2"
     inkscape:pagecheckerboard="0"
     inkscape:deskcolor="#d1d1d1" />
  <metadata
     id="metadata867">
    <rdf:RDF>
      <cc:Work
         rdf:about="">
        <dc:format>image/svg+xml</dc:format>
        <dc:type
           rdf:resource="http://purl.org/dc/dcmitype/StillImage" />
        <dc:title />
      </cc:Work>
    </rdf:RDF>
  </metadata>
  <g
     inkscape:label="Calque 1"
     inkscape:groupmode="layer"
     id="layer1"
     transform="translate(0,-87)">
    <polyline
       transform="matrix(0.38608922,0,0,0.43209217,-82.628973,-111.12491)"
       style="fill:none;stroke:#000000;stroke-width:2.73;stroke-linejoin:bevel"
       class="StaffLines"
       points="336.599,634.199 826.642,634.199"
       id="polyline8" />
    <polyline
       transform="matrix(0.38608922,0,0,0.43209217,-82.628973,-111.12491)"
       style="fill:none;stroke:#000000;stroke-width:2.73;stroke-linejoin:bevel"
       class="StaffLines"
       points="336.599,658.999 826.642,658.999"
       id="polyline10" />
    <polyline
       transform="matrix(0.38608922,0,0,0.43209217,-82.628973,-111.12491)"
       style="fill:none;stroke:#000000;stroke-width:2.73;stroke-linejoin:bevel"
       class="StaffLines"
       points="336.599,683.799 826.642,683.799"
       id="polyline12" />
    <polyline
       transform="matrix(0.38608922,0,0,0.43209217,-82.628973,-111.12491)"
       style="fill:none;stroke:#000000;stroke-width:2.73;stroke-linejoin:bevel"
       class="StaffLines"
       points="336.599,708.599 826.642,708.599"
       id="polyline14" />
    <polyline
       transform="matrix(0.38608922,0,0,0.43209217,-82.628973,-111.12491)"
       style="fill:none;stroke:#000000;stroke-width:2.73;stroke-linejoin:bevel"
       class="StaffLines"
       points="336.599,733.399 826.642,733.399"
       id="polyline16" />
    <polyline
       transform="matrix(0.38608922,0,0,0.43209217,-82.628973,-111.12491)"
       style="fill:none;stroke:#000000;stroke-width:4.46;stroke-linejoin:bevel"
       class="BarLine"
       points="801.594,632.835 801.594,734.763"
       id="polyline18" />
    <polyline
       transform="matrix(0.38608922,0,0,0.43209217,-82.628973,-111.12491)"
       style="fill:none;stroke:#000000;stroke-width:13.64;stroke-linejoin:bevel"
       class="BarLine"
       points="819.822,632.835 819.822,734.763"
       id="polyline20" />
    <path
       id="path22"
       style="stroke-width:0.405176"
       class="Clef"
       d="m 70.709379,147.34257 c -0.263319,0 -1.490327,0.56263 -2.717147,2.23035 -2.489493,3.26152 -3.177584,8.69991 -3.177584,12.30313 0,2.3173 0.191581,4.41361 0.843877,9.26248 -0.04189,0 -2.034595,2.27047 -2.83652,3.04064 -3.488846,3.60318 -8.312671,8.82717 -8.312671,17.35967 0,8.05697 6.241829,14.35933 13.36921,14.35933 1.107094,0 2.142287,-0.12718 3.063896,-0.30127 0.688167,4.11881 1.149284,7.11922 1.149284,9.3896 0,4.46052 -2.070426,6.81819 -5.900415,6.81819 -0.957494,0 -1.759541,-0.21407 -1.801441,-0.26096 -0.07185,0 -0.149861,-0.0404 -0.149861,-0.0806 0,-0.0871 0.078,-0.13391 0.191719,-0.17415 1.801278,-0.30138 3.59668,-2.01611 3.59668,-4.75526 0,-2.31735 -1.568076,-4.76199 -4.440556,-4.76199 -2.645069,0 -4.368726,2.44464 -4.368726,5.271 0,2.83299 1.915395,6.56342 7.085873,6.56342 0.300979,0 0.59213,-0.0121 0.874365,-0.0351 0.102566,-0.0302 0.205372,-0.059 0.309025,-0.0858 0.266497,-0.0702 0.535856,-0.10047 0.807186,-0.10025 0.03597,3e-5 0.07197,5.4e-4 0.108004,0.002 3.527902,-0.79937 5.25601,-3.75734 5.25601,-8.4 0,-1.66767 -0.227297,-3.59646 -0.610299,-6.04098 -0.11371,-0.85727 -0.305356,-2.18985 -0.574642,-3.81733 3.752157,-1.41317 6.546887,-5.74667 6.546887,-10.20041 0,-6.42952 -4.099415,-10.80296 -9.688814,-10.80296 -0.383003,-2.57185 -0.73015,-5.1434 -1.071253,-7.50084 4.021491,-4.76187 6.852295,-10.16021 6.852295,-16.93126 0,-3.94477 -1.07112,-7.07266 -1.723409,-8.61963 -0.915593,-2.18345 -2.02869,-3.73052 -2.680973,-3.73052 z m 0.6165,6.26215 c 0.574499,0 1.531689,2.05609 1.531689,5.05654 0,4.41358 -2.986077,7.76258 -5.63118,10.71614 -0.227385,-1.71454 -0.419096,-3.42944 -0.419096,-5.18418 0,-1.62746 0.149811,-3.04729 0.419096,-4.37338 0.382997,-1.71448 2.10668,-6.21512 4.099491,-6.21512 z m -4.596102,24.73389 c 0.341095,2.31062 0.65214,4.28597 0.879533,6.08748 -3.48886,1.1118 -5.858557,5.27132 -5.858557,9.25629 0,3.04728 2.10623,7.15925 5.170227,7.15925 0.30517,0 0.652673,-0.17393 0.652673,-0.60255 0,-0.34158 -0.347205,-0.59636 -0.843876,-0.93792 -1.496108,-0.99122 -2.339909,-2.14314 -2.339909,-4.20595 0,-2.61199 1.765122,-4.71471 3.985287,-5.31079 l 2.220536,14.05806 c -0.766,0.21431 -1.454536,0.30127 -2.220536,0.30127 -5.475656,0 -10.149252,-4.2868 -10.149252,-10.76316 0,-5.22405 3.333502,-9.8984 6.666777,-13.20023 0.646308,-0.60281 1.262598,-1.24568 1.837097,-1.84175 z m 3.369303,11.18433 c 3.86592,0 5.517455,3.00044 5.858558,5.06326 0.04189,0.34155 0.113688,0.81031 0.113688,1.32602 0,3.08745 -1.149003,6.2157 -3.865914,7.41453 C 71.403528,198.23 70.368406,191.41166 70.09908,189.52294 Z m -0.287321,34.4749 c 0.02247,0.0359 0.04151,0.0724 0.0584,0.10955 0.01543,-0.009 0.03152,-0.0169 0.04754,-0.0253 -0.03556,-0.0278 -0.06875,-0.0585 -0.105937,-0.0842 z m 0.27957,6.7293 c -0.0086,0.50274 -0.224062,0.97643 -0.510046,1.42421 -0.141072,0.19296 -0.294532,0.37438 -0.457337,0.54725 0.562479,-0.48911 0.91855,-1.16387 0.994255,-1.96009 -0.009,-0.003 -0.01787,-0.008 -0.02687,-0.0114 z" />
    <path
       style="stroke-width:0.405176"
       inkscape:connector-curvature="0"
       class="TimeSig"
       d="m 96.023222,179.06842 v 3.16788 h -3.177724 c -0.269286,0 -0.538572,0.26121 -0.538572,0.60277 v 0.81713 c 0,0.34153 0.269286,0.59602 0.538572,0.59602 h 11.603742 c 0.31118,0 0.53857,-0.25449 0.53857,-0.59602 v -0.81713 c 0,-0.34156 -0.22739,-0.60277 -0.53857,-0.60277 h -3.40511 v -3.16788 h 3.40511 c 0.31118,0 0.53857,-0.30139 0.53857,-0.64295 v -0.81708 c 0,-0.30138 -0.22739,-0.59609 -0.53857,-0.59609 h -3.40511 v -6.81797 c 0,-0.25452 -0.11371,-0.46882 -0.30521,-0.5559 l -0.46079,-0.26119 c -0.0779,-0.0402 -0.1915,-0.0804 -0.26933,-0.0804 -0.113672,0.0402 -0.269289,0.0804 -0.347074,0.16747 l -3.482927,3.55635 c -0.113685,0.13395 -0.155577,0.30138 -0.155577,0.47551 v 3.51614 h -4.404526 c 0,0 4.254925,-5.14362 8.773114,-11.92146 0.15561,-0.21431 0.19149,-0.42864 0.19149,-0.59607 0,-0.21431 -0.0778,-0.3884 -0.11368,-0.42863 l -0.843818,-0.9443 c -0.07778,-0.0871 -0.227386,-0.17417 -0.383003,-0.17417 -0.227386,0 -5.403877,0 -5.667188,0 -0.311186,0 -0.502687,0.26119 -0.538612,0.51575 0,0 -0.191501,3.17453 -1.184909,6.64383 -0.999391,3.47598 -2.148392,5.61916 -3.1418,7.19976 0,0 -0.113709,0.2143 -0.113709,0.47551 0,0.0871 0,0.16742 0.03588,0.2545 0.155593,0.30138 0.383003,0.7702 0.383003,0.7702 0,0 0.07778,0.2612 0.418903,0.2612 h 6.588827"
       id="path24" />
    <path
       style="stroke-width:0.405176"
       inkscape:connector-curvature="0"
       class="TimeSig"
       d="m 96.023222,200.50021 v 3.16794 h -3.177724 c -0.269286,0 -0.538572,0.26114 -0.538572,0.60271 v 0.81713 c 0,0.34153 0.269286,0.59603 0.538572,0.59603 h 11.603742 c 0.31118,0 0.53857,-0.2545 0.53857,-0.59603 v -0.81713 c 0,-0.34157 -0.22739,-0.60271 -0.53857,-0.60271 h -3.40511 v -3.16794 h 3.40511 c 0.31118,0 0.53857,-0.30139 0.53857,-0.64295 v -0.8171 c 0,-0.30138 -0.22739,-0.59606 -0.53857,-0.59606 h -3.40511 v -6.81799 c 0,-0.25451 -0.11371,-0.46884 -0.30521,-0.5559 l -0.46079,-0.26119 c -0.0779,-0.0402 -0.1915,-0.0804 -0.26933,-0.0804 -0.113672,0.0402 -0.269289,0.0804 -0.347074,0.16749 l -3.482927,3.55635 c -0.113685,0.13396 -0.155577,0.30138 -0.155577,0.47551 v 3.51616 h -4.404526 c 0,0 4.254925,-5.14363 8.773114,-11.92149 0.15561,-0.21431 0.19149,-0.42862 0.19149,-0.59606 0,-0.21433 -0.0778,-0.38842 -0.11368,-0.42863 l -0.843818,-0.94431 c -0.07778,-0.0871 -0.227386,-0.17417 -0.383003,-0.17417 -0.227386,0 -5.403877,0 -5.667188,0 -0.311186,0 -0.502687,0.2612 -0.538612,0.51574 0,0 -0.191501,3.17454 -1.184909,6.64385 -0.999391,3.47599 -2.148392,5.61916 -3.1418,7.19975 0,0 -0.113709,0.21433 -0.113709,0.47552 0,0.0871 0,0.16744 0.03588,0.2545 0.155593,0.30139 0.383003,0.77022 0.383003,0.77022 0,0 0.07778,0.26119 0.418903,0.26119 h 6.588827"
       id="path26" />
    <path
       style="fill:#000000;fill-opacity:1;stroke:#000000;stroke-width:1.465;stroke-dasharray:none;stroke-opacity:1;marker-start:url(#TriangleStart)"
       d="m 106.96172,217.43398 36.59316,38.96645"
       id="path1036" />
  </g>
</svg>
