<?xml version="1.0" encoding="UTF-8" standalone="no"?>
<svg
   width="296.92599mm"
   height="210.058mm"
   viewBox="0 0 4208.4 2977.2"
   version="1.2"
   id="svg82"
   sodipodi:docname="liés_descendants.svg"
   inkscape:version="1.2.2 (b0a8486541, 2022-12-01)"
   xmlns:inkscape="http://www.inkscape.org/namespaces/inkscape"
   xmlns:sodipodi="http://sodipodi.sourceforge.net/DTD/sodipodi-0.dtd"
   xmlns="http://www.w3.org/2000/svg"
   xmlns:svg="http://www.w3.org/2000/svg"
   xmlns:rdf="http://www.w3.org/1999/02/22-rdf-syntax-ns#"
   xmlns:cc="http://creativecommons.org/ns#"
   xmlns:dc="http://purl.org/dc/elements/1.1/">
  <defs
     id="defs86" />
  <sodipodi:namedview
     id="namedview84"
     pagecolor="#ffffff"
     bordercolor="#000000"
     borderopacity="0.25"
     inkscape:showpageshadow="2"
     inkscape:pageopacity="0.0"
     inkscape:pagecheckerboard="0"
     inkscape:deskcolor="#d1d1d1"
     inkscape:document-units="mm"
     showgrid="false"
     inkscape:zoom="0.9652905"
     inkscape:cx="211.33534"
     inkscape:cy="382.26834"
     inkscape:window-width="1104"
     inkscape:window-height="552"
     inkscape:window-x="0"
     inkscape:window-y="32"
     inkscape:window-maximized="1"
     inkscape:current-layer="svg82" />
  <title
     id="title2">Partition sans titre</title>
  <desc
     id="desc4">Generated by MuseScore Studio 4.5.2</desc>
  <polyline
     class="StaffLines"
     fill="none"
     stroke="#000000"
     stroke-width="2.73"
     stroke-linejoin="bevel"
     points="336.599,634.198 2764.6,634.198"
     id="polyline6"
     transform="matrix(1.6684548,0,0,2.6752333,-488.72894,-199.18045)" />
  <polyline
     class="StaffLines"
     fill="none"
     stroke="#000000"
     stroke-width="2.73"
     stroke-linejoin="bevel"
     points="336.599,658.998 2764.6,658.998"
     id="polyline8"
     transform="matrix(1.6684548,0,0,2.6752333,-488.72894,-199.18045)" />
  <polyline
     class="StaffLines"
     fill="none"
     stroke="#000000"
     stroke-width="2.73"
     stroke-linejoin="bevel"
     points="336.599,683.798 2764.6,683.798"
     id="polyline10"
     transform="matrix(1.6684548,0,0,2.6752333,-488.72894,-199.18045)" />
  <polyline
     class="StaffLines"
     fill="none"
     stroke="#000000"
     stroke-width="2.73"
     stroke-linejoin="bevel"
     points="336.599,708.598 2764.6,708.598"
     id="polyline12"
     transform="matrix(1.6684548,0,0,2.6752333,-488.72894,-199.18045)" />
  <polyline
     class="StaffLines"
     fill="none"
     stroke="#000000"
     stroke-width="2.73"
     stroke-linejoin="bevel"
     points="336.599,733.398 2764.6,733.398"
     id="polyline14"
     transform="matrix(1.6684548,0,0,2.6752333,-488.72894,-199.18045)" />
  <path
     class="SlurSegment"
     stroke="#000000"
     stroke-width="2.61975"
     stroke-linecap="round"
     stroke-linejoin="round"
     fill-rule="evenodd"
     d="m 3201.643,1437.7359 c 93.8005,-113.5289 364.8744,-93.6252 451.8009,33.1729 -87.527,-105.5888 -358.6176,-125.4925 -451.8009,-33.1729"
     id="path18" />
  <path
     class="SlurSegment"
     stroke="#000000"
     stroke-width="2.61975"
     stroke-linecap="round"
     stroke-linejoin="round"
     fill-rule="evenodd"
     d="m 2298.0411,1482.1876 c 96.053,-109.0292 367.127,-75.99 451.801,55.067 -85.6751,-109.8853 -356.7491,-142.9271 -451.801,-55.067"
     id="path20" />
  <path
     class="SlurSegment"
     stroke="#000000"
     stroke-width="2.61975"
     stroke-linecap="round"
     stroke-linejoin="round"
     fill-rule="evenodd"
     d="m 1335.2593,1537.2546 c 91.5314,-117.9671 362.6053,-111.1988 451.8008,11.2787 -89.3958,-101.2495 -360.4695,-108.0179 -451.8008,-11.2787"
     id="path22" />
  <path
     class="SlurSegment"
     stroke="#000000"
     stroke-width="2.61975"
     stroke-linecap="round"
     stroke-linejoin="round"
     fill-rule="evenodd"
     d="m 470.94965,1480.8606 c 84.71079,-116.394 338.4144,-115.5968 422.83985,1.327 -84.45213,-95.6931 -338.15575,-96.4904 -422.83985,-1.327"
     id="path24" />
  <polyline
     class="BarLine"
     fill="none"
     stroke="#000000"
     stroke-width="4.46"
     stroke-linejoin="bevel"
     points="2739.55,632.834 2739.55,734.762"
     id="polyline26"
     transform="matrix(1.6684548,0,0,2.6752333,-488.72894,-199.18045)" />
  <polyline
     class="BarLine"
     fill="none"
     stroke="#000000"
     stroke-width="13.64"
     stroke-linejoin="bevel"
     points="2757.78,632.834 2757.78,734.762"
     id="polyline28"
     transform="matrix(1.6684548,0,0,2.6752333,-488.72894,-199.18045)" />
  <polyline
     class="BarLine"
     fill="none"
     stroke="#000000"
     stroke-width="4.46"
     stroke-linejoin="bevel"
     points="1620.92,632.834 1620.92,734.762"
     id="polyline30"
     transform="matrix(1.6684548,0,0,2.6752333,-488.72894,-199.18045)" />
  <polyline
     class="Stem"
     fill="none"
     stroke="#000000"
     stroke-width="2.48"
     stroke-linejoin="bevel"
     points="566.51,692.23 566.51,615.598"
     id="polyline32"
     transform="matrix(1.6684548,0,0,2.6752333,-488.72894,-199.18045)" />
  <polyline
     class="Stem"
     fill="none"
     stroke="#000000"
     stroke-width="2.48"
     stroke-linejoin="bevel"
     points="2467.77,650.765 2467.77,733.398"
     id="polyline34"
     transform="matrix(1.6684548,0,0,2.6752333,-488.72894,-199.18045)" />
  <polyline
     class="Stem"
     fill="none"
     stroke="#000000"
     stroke-width="2.48"
     stroke-linejoin="bevel"
     points="2196.98,638.365 2196.98,720.998"
     id="polyline36"
     transform="matrix(1.6684548,0,0,2.6752333,-488.72894,-199.18045)" />
  <polyline
     class="Stem"
     fill="none"
     stroke="#000000"
     stroke-width="2.48"
     stroke-linejoin="bevel"
     points="1926.19,675.565 1926.19,751.999"
     id="polyline38"
     transform="matrix(1.6684548,0,0,2.6752333,-488.72894,-199.18045)" />
  <polyline
     class="Stem"
     fill="none"
     stroke="#000000"
     stroke-width="2.48"
     stroke-linejoin="bevel"
     points="1655.4,663.165 1655.4,745.799"
     id="polyline40"
     transform="matrix(1.6684548,0,0,2.6752333,-488.72894,-199.18045)" />
  <polyline
     class="Stem"
     fill="none"
     stroke="#000000"
     stroke-width="2.48"
     stroke-linejoin="bevel"
     points="1349.14,687.965 1349.14,758.199"
     id="polyline42"
     transform="matrix(1.6684548,0,0,2.6752333,-488.72894,-199.18045)" />
  <polyline
     class="Stem"
     fill="none"
     stroke="#000000"
     stroke-width="2.48"
     stroke-linejoin="bevel"
     points="1078.35,675.565 1078.35,751.999"
     id="polyline44"
     transform="matrix(1.6684548,0,0,2.6752333,-488.72894,-199.18045)" />
  <polyline
     class="Stem"
     fill="none"
     stroke="#000000"
     stroke-width="2.48"
     stroke-linejoin="bevel"
     points="837.302,704.63 837.302,621.798"
     id="polyline46"
     transform="matrix(1.6684548,0,0,2.6752333,-488.72894,-199.18045)" />
  <path
     class="Note"
     d="m 1308.3805,1608.1202 c 0,11.4032 5.1205,24.1333 18.5424,24.1333 17.1978,0 35.2485,-22.5576 35.2485,-45.9031 0,-15.6742 -8.2755,-24.4235 -18.5423,-24.4235 -16.0596,0 -35.2486,21.7697 -35.2486,46.1933"
     id="path48"
     style="stroke-width:2.0958" />
  <path
     class="Note"
     d="m 1760.1814,1641.2931 c 0,11.4031 5.1204,24.1333 18.5424,24.1333 17.1978,0 35.2485,-22.5576 35.2485,-45.9031 0,-15.6742 -8.2755,-24.4235 -18.5423,-24.4235 -16.0596,0 -35.2486,21.7697 -35.2486,46.1933"
     id="path50"
     style="stroke-width:2.0958" />
  <path
     class="Note"
     d="m 856.57461,1707.6389 c 0,11.4031 5.12049,24.1333 18.54231,24.1333 17.19773,0 35.24866,-22.5576 35.24866,-45.9031 0,-15.6742 -8.27554,-24.4235 -18.54233,-24.4235 -16.05969,0 -35.24864,21.7697 -35.24864,46.1933"
     id="path52"
     style="stroke-width:2.0958" />
  <path
     class="Note"
     d="m 2271.1624,1574.9473 c 0,11.4032 5.1205,24.1333 18.5423,24.1333 17.1978,0 35.2487,-22.5576 35.2487,-45.9031 0,-15.6742 -8.2756,-24.4235 -18.5424,-24.4235 -16.0595,0 -35.2486,21.7697 -35.2486,46.1933"
     id="path54"
     style="stroke-width:2.0958" />
  <path
     class="Note"
     d="m 2722.9634,1608.1202 c 0,11.4032 5.1204,24.1333 18.5422,24.1333 17.1978,0 35.2487,-22.5576 35.2487,-45.9031 0,-15.6742 -8.2755,-24.4235 -18.5424,-24.4235 -16.0595,0 -35.2485,21.7697 -35.2485,46.1933"
     id="path56"
     style="stroke-width:2.0958" />
  <path
     class="Note"
     d="m 404.77204,1674.466 c 0,11.4031 5.1205,24.1333 18.54236,24.1333 17.19774,0 35.24869,-22.5576 35.24869,-45.9031 0,-15.6742 -8.27554,-24.4235 -18.54234,-24.4235 -16.05969,0 -35.24871,21.7697 -35.24871,46.1933"
     id="path58"
     style="stroke-width:2.0958" />
  <path
     class="Note"
     d="m 3174.7643,1508.6015 c 0,11.4032 5.1205,24.1334 18.5422,24.1334 17.1979,0 35.2487,-22.5577 35.2487,-45.9031 0,-15.6743 -8.2755,-24.4236 -18.5424,-24.4236 -16.0595,0 -35.2485,21.7697 -35.2485,46.1933"
     id="path60"
     style="stroke-width:2.0958" />
  <path
     class="Note"
     d="m 3626.5652,1541.7744 c 0,11.4032 5.1204,24.1333 18.5422,24.1333 17.1979,0 35.2487,-22.5576 35.2487,-45.903 0,-15.6743 -8.2756,-24.4236 -18.5423,-24.4236 -16.0596,0 -35.2486,21.7697 -35.2486,46.1933"
     id="path62"
     style="stroke-width:2.0958" />
  <path
     class="Clef"
     d="m 173.91057,1886.7726 c 0,-9.8274 -5.61182,-14.0568 -11.06856,-14.0568 -6.95659,0 -13.75809,6.8832 -13.75809,18.8254 0,5.0591 1.16372,8.7909 3.49129,12.4813 -4.31885,2.6538 -8.61187,7.9615 -8.61187,16.2133 0,8.7494 4.96532,14.5961 12.25825,14.5961 8.92203,0 15.20632,-7.9615 15.20632,-19.4062 0,-6.0955 -1.65513,-11.1129 -4.62919,-14.596 4.81023,-3.4418 7.11185,-7.6712 7.11185,-14.0571 m -16.5511,42.4613 c -3.62056,0 -6.10322,-3.6904 -6.10322,-9.2884 0,-5.3077 1.47404,-9.5371 4.29286,-12.1909 0.67248,0.539 0.82756,0.539 1.31896,1.0366 1.99126,1.6172 1.99126,1.6172 2.32757,2.1562 3.12916,2.9028 4.47392,5.5566 4.47392,9.2884 0,5.0174 -2.66373,8.9981 -6.31009,8.9981 m 6.31009,-31.846 c -2.48265,-2.1146 -3.15511,-2.6538 -3.64637,-3.1928 l -0.3363,-0.2486 c -2.48266,-2.4051 -3.31022,-4.271 -3.31022,-7.4225 0,-4.81 2.32758,-8.2518 5.6378,-8.2518 3.12915,0 5.12039,3.1928 5.12039,8.7494 0,4.2711 -0.98264,7.1736 -3.4653,10.3664 m 46.16198,-201.4425 c 0,-40.0564 -17.71478,-67.1337 -41.86912,-67.1337 -1.65511,-15.923 -3.15496,-31.5973 -4.629,-46.4421 17.37864,-29.4825 29.61089,-62.9041 29.61089,-104.8264 0,-24.1749 -4.62918,-43.7883 -7.44799,-53.366 -3.9567,-13.5186 -8.76695,-22.807 -11.58575,-22.807 -1.1379,0 -6.43937,3.1925 -11.74103,13.5186 -10.7582,20.193 -13.73209,53.8635 -13.73209,76.1722 0,14.3474 0.82755,27.3263 3.64635,57.3478 -0.18107,0 -8.79276,14.0571 -12.25822,18.8257 -15.0769,22.3087 -35.921,54.6523 -35.921,107.4802 0,49.884 26.97314,88.9035 57.77373,88.9035 4.78425,0 9.25818,-0.7879 13.24086,-1.8659 2.97392,25.2529 4.96535,44.0784 4.96535,58.1355 0,27.6166 -8.94803,42.2126 -25.65421,42.2126 -3.98267,0 -7.44797,-1.3269 -7.78431,-1.6172 -0.15516,0 -0.49122,-0.2488 -0.49122,-0.4976 0,-0.539 0.33614,-0.8293 0.82756,-1.0782 7.78413,-1.866 15.54246,-12.73 15.54246,-29.4409 0,-14.3474 -6.77569,-29.4825 -19.18901,-29.4825 -11.58577,0 -18.8785,15.1351 -18.8785,32.6339 0,17.5403 8.27554,40.6369 30.61952,40.6369 21.36116,0 31.78321,-19.4062 31.78321,-53.367 0,-10.325 -0.98262,-22.2673 -2.63774,-37.4024 -0.49142,-5.3077 -1.31896,-13.5595 -2.48266,-23.6358 16.21476,-8.7494 28.29192,-35.5779 28.29192,-62.9042 m -50.97221,-217.6143 c 1.65512,-10.6153 9.10309,-38.4806 17.71496,-38.4806 2.48267,0 6.62044,12.7299 6.62044,31.3068 0,27.3262 -12.90473,48.0593 -24.3354,66.3458 -0.98264,-10.6153 -1.81019,-21.2307 -1.81019,-32.0947 0,-10.0763 0.64647,-18.8671 1.81019,-27.0773 m 4.96531,274.4229 c -23.66275,0 -43.86033,-26.5383 -43.86033,-66.6361 0,-32.3437 14.22362,-61.287 28.80927,-81.7297 2.793,-3.7321 5.45673,-7.4225 7.9394,-11.4033 1.47404,14.3058 2.63775,26.5384 3.80147,37.6927 -15.07691,6.8835 -25.31789,32.634 -25.31789,57.3063 0,18.8671 9.1031,44.3273 22.34397,44.3273 1.3188,0 2.81882,-1.078 2.81882,-3.7318 0,-2.1148 -1.50002,-3.6907 -3.64637,-5.8054 -6.46534,-6.137 -10.11172,-13.2692 -10.11172,-26.0407 0,-16.1718 7.62905,-29.1923 17.22338,-32.8828 l 9.59451,87.0376 c -3.31022,1.0782 -6.28429,1.8659 -9.59451,1.8659 m 16.5511,-5.0588 c -3.46529,-31.5558 -7.93923,-73.7683 -9.10309,-85.4619 16.70634,0 23.844,18.577 25.31803,31.3485 0.18107,2.1148 0.4914,5.0174 0.4914,8.2103 0,19.1159 -4.96532,38.232 -16.70634,45.9031"
     id="path64"
     style="stroke-width:2.0958" />
  <path
     class="TimeSig"
     d="m 283.30278,1597.5048 v 19.6137 h -13.73229 c -1.1637,0 -2.32741,1.617 -2.32741,3.7318 v 5.059 c 0,2.1146 1.16371,3.6904 2.32741,3.6904 h 50.14467 c 1.34478,0 2.32742,-1.5758 2.32742,-3.6904 v -5.059 c 0,-2.1148 -0.98264,-3.7318 -2.32742,-3.7318 h -14.89598 v -19.6137 h 14.89598 c 1.34478,0 2.32742,-1.8659 2.32742,-3.9808 v -5.0588 c 0,-1.8659 -0.98264,-3.6904 -2.32742,-3.6904 h -14.89598 v -42.2126 c 0,-1.5757 -0.4914,-2.9026 -1.13788,-3.4417 l -1.99127,-1.6172 c -0.33631,-0.2488 -0.49139,-0.2488 -0.82756,-0.2488 -0.18105,0 -0.18105,0 -0.33631,0 -0.49123,0 -1.16371,0.2488 -1.49986,0.7879 l -15.05122,22.0185 c -0.49125,0.8293 -0.6723,1.866 -0.6723,2.9441 v 21.7698 h -19.18897 c 0,0 18.54247,-31.8461 38.06747,-73.8099 0.67246,-1.327 0.82754,-2.6539 0.82754,-3.6905 0,-1.3269 -0.33616,-2.4049 -0.49124,-2.6538 l -3.64652,-5.8467 c -0.49124,-0.539 -0.98265,-1.0782 -1.65513,-1.0782 -0.98263,0 -23.35243,0 -24.67137,0 -1.16371,0 -1.99127,1.6172 -2.14652,3.1931 0,0 -0.82755,19.6548 -5.12048,41.1343 -4.3188,21.521 -9.28413,34.7901 -13.57706,44.5762 0,0 -0.49137,1.3269 -0.49137,2.9441 0,0.539 0,1.0367 0.15516,1.5757 0.49139,1.8659 1.65511,4.7687 1.65511,4.7687 0,0 0.33621,1.617 1.81027,1.617 h 28.47311"
     id="path66"
     style="stroke-width:2.0958" />
  <path
     class="TimeSig"
     d="m 283.30278,1730.1964 v 19.6137 h -13.73229 c -1.1637,0 -2.32741,1.6169 -2.32741,3.7318 v 5.059 c 0,2.1146 1.16371,3.6904 2.32741,3.6904 h 50.14467 c 1.34478,0 2.32742,-1.5758 2.32742,-3.6904 v -5.059 c 0,-2.1149 -0.98264,-3.7318 -2.32742,-3.7318 h -14.89598 v -19.6137 h 14.89598 c 1.34478,0 2.32742,-1.866 2.32742,-3.9808 v -5.0588 c 0,-1.866 -0.98264,-3.6905 -2.32742,-3.6905 h -14.89598 v -42.2125 c 0,-1.5758 -0.4914,-2.9027 -1.13788,-3.4417 l -1.99127,-1.6172 c -0.33631,-0.2488 -0.49139,-0.2488 -0.82756,-0.2488 -0.18105,0 -0.18105,0 -0.33631,0 -0.49123,0 -1.16371,0.2488 -1.49986,0.7879 l -15.05122,22.0185 c -0.49125,0.8293 -0.6723,1.866 -0.6723,2.9441 v 21.7697 h -19.18897 c 0,0 18.54247,-31.846 38.06747,-73.8099 0.67246,-1.3269 0.82754,-2.6538 0.82754,-3.6904 0,-1.3269 -0.33616,-2.4049 -0.49124,-2.6538 l -3.64652,-5.8467 c -0.49124,-0.539 -0.98265,-1.0782 -1.65513,-1.0782 -0.98263,0 -23.35243,0 -24.67137,0 -1.16371,0 -1.99127,1.6172 -2.14652,3.193 0,0 -0.82755,19.6549 -5.12048,41.1344 -4.3188,21.5209 -9.28413,34.7901 -13.57706,44.5761 0,0 -0.49137,1.3269 -0.49137,2.9441 0,0.5391 0,1.0368 0.15516,1.5758 0.49139,1.8659 1.65511,4.7687 1.65511,4.7687 0,0 0.33621,1.617 1.81027,1.617 h 28.47311"
     id="path68"
     style="stroke-width:2.0958" />
  <path
     class="Fingering"
     d="m 1338.6296,1385.1889 c -2.0189,0 -3.604,2.5923 -3.604,5.8107 0,3.0925 1.5851,5.7678 3.5539,5.7678 2.0522,0 3.6373,-2.5923 3.6373,-5.7678 0,-3.2184 -1.5851,-5.8107 -3.5872,-5.8107 m 1.2013,26.1237 -12.8138,1.5891 -0.2502,3.8871 h 1.5849 c 2.7364,0 3.8042,0.9631 3.8042,3.3039 0,1.0434 -0.1335,2.2552 -0.6007,4.7218 l -3.8875,20.8588 c -1.2514,6.8138 -1.4516,8.32 -1.4516,10.7839 0,3.764 2.0022,6.6479 4.5382,6.6479 5.7396,0 9.6604,-9.5318 12.4801,-16.4687 l -2.0855,-1.8406 c -3.4704,8.4431 -6.2568,12.9588 -8.0587,12.9588 -0.6673,0 -1.1346,-0.963 -1.1346,-2.2578 0,-1.0461 0.2503,-3.0097 0.8009,-5.9765 l 7.0743,-38.2077"
     id="path70"
     style="stroke-width:2.1127" />
  <path
     class="Fingering"
     d="m 390.46004,1700.2217 h -2.94482 l -0.67906,5.4762 c -0.85925,6.9369 -1.38148,7.5656 -5.52593,7.5656 h -14.93767 c 4.58825,-7.6913 6.12656,-9.9492 10.40115,-15.2997 6.07485,-7.4826 8.68097,-11.2038 10.19258,-14.4221 2.13896,-4.7218 3.20677,-9.4035 3.20677,-14.671 0,-12.2071 -6.2567,-20.8588 -15.01609,-20.8588 -8.47242,0 -14.93768,8.6517 -14.93768,20.107 0,6.7711 2.1373,11.3698 5.26565,11.3698 2.47765,0 4.14612,-2.6753 4.14612,-6.5624 0,-2.6752 -0.93935,-5.1016 -2.34585,-6.062 -2.45097,-1.6293 -2.58111,-1.8406 -2.58111,-3.2183 0,-1.6319 0.6507,-4.0958 1.59004,-5.8936 1.66845,-3.3039 4.40471,-5.1418 7.53307,-5.1418 5.55429,0 8.81278,5.4762 8.81278,14.4623 0,7.9 -2.32082,15.091 -7.87345,24.4945 -4.92693,8.3199 -8.00357,13.5848 -9.14979,15.634 -2.39924,4.473 -3.59886,6.9396 -6.51866,13.1247 v 3.0097 h 30.08558 l 1.27637,-23.1141"
     id="path72"
     style="stroke-width:2.1127" />
  <path
     class="Fingering"
     d="m 418.64525,1381.35 -12.14802,1.5891 -0.20856,3.8871 h 1.61674 c 2.65785,0 3.72732,0.9631 3.72732,3.3868 0,0.9604 -0.20855,2.5923 -0.54725,4.6389 l -6.80395,36.7844 h 5.81289 l 2.73793,-15.0883 c 2.99821,-16.3858 9.07139,-28.7587 14.07675,-28.7587 1.74688,0 2.81636,1.4633 2.81636,4.1386 0,2.1722 -0.54726,6.6452 -1.35645,10.7009 l -5.31737,29.0075 h 5.78786 l 2.86641,-15.5083 c 1.66847,-8.9032 3.33691,-14.8796 5.47587,-19.4784 2.39757,-5.3504 5.81289,-8.8603 8.34228,-8.8603 1.66846,0 2.60612,1.3777 2.60612,3.9272 0,1.5062 -0.33869,3.847 -0.93766,6.8566 l -3.07664,15.2141 c -1.79859,8.32 -1.85198,8.9888 -1.85198,11.9556 0,4.5158 2.06053,7.4826 5.18889,7.4826 2.21572,0 4.353,-1.7148 6.6221,-5.099 1.40651,-2.1749 2.31916,-4.0957 5.05708,-10.4922 l -2.06054,-2.2579 c -3.46705,8.3601 -5.94303,12.4157 -7.66321,12.4157 -0.73078,0 -1.40818,-1.1717 -1.40818,-2.6752 0,-0.9631 0.20857,-2.1322 0.80754,-5.2675 l 4.19783,-20.7331 c 0.46884,-2.3408 0.80753,-5.6849 0.80753,-8.0257 0,-5.6849 -2.60613,-9.7405 -6.2033,-9.7405 -4.7451,0 -9.02135,4.9331 -12.87881,15.091 0.26028,-2.0493 0.3904,-3.8443 0.3904,-5.1418 0,-5.6849 -2.81466,-9.9492 -6.46525,-9.9492 -4.22286,0 -7.2728,3.764 -11.96616,14.465 l 1.95543,-14.465"
     id="path74"
     style="stroke-width:2.1127" />
  <path
     class="Fingering"
     d="m 831.54773,1651.8134 c -9.33329,0 -16.13727,16.2601 -16.13727,38.7481 0,22.0305 6.59548,38.1649 15.59002,38.1649 9.3584,0 15.90208,-15.5913 15.90208,-37.8707 0,-11.3296 -1.48662,-20.733 -4.27465,-28.1327 -2.60778,-6.7309 -6.88232,-10.9096 -11.08018,-10.9096 m -0.46878,4.5987 c 2.189,0 4.32631,2.3408 5.94295,6.6453 1.79869,5.0161 2.3993,11.1183 2.3993,25.7919 0,15.0883 -0.47047,22.1536 -1.79857,26.8353 -1.5384,5.2675 -3.93759,8.443 -6.46533,8.443 -2.26904,0 -4.35469,-2.3408 -5.94465,-6.6051 -1.87704,-5.0562 -2.39749,-11.6614 -2.39749,-29.2162 0,-12.5415 0.46879,-18.7267 1.79846,-23.4511 1.5384,-5.3505 3.93589,-8.4431 6.46533,-8.4431"
     id="path76"
     style="stroke-width:2.1127" />
  <path
     class="Fingering"
     d="m 1714.9662,1593.5254 c -9.3432,0 -16.1506,16.2601 -16.1506,38.7481 0,22.0279 6.6071,38.1649 15.6001,38.1649 9.36,0 15.9004,-15.5913 15.9004,-37.8733 0,-11.3269 -1.485,-20.7331 -4.2713,-28.1301 -2.6194,-6.7309 -6.8907,-10.9096 -11.0786,-10.9096 m -0.4838,4.5961 c 2.2023,0 4.338,2.3408 5.9564,6.6479 1.7852,5.0161 2.3859,11.1183 2.3859,25.7893 0,15.091 -0.4672,22.1562 -1.7853,26.8379 -1.5516,5.2649 -3.9375,8.443 -6.4736,8.443 -2.2691,0 -4.3546,-2.3408 -5.9396,-6.6051 -1.8854,-5.0562 -2.4026,-11.6614 -2.4026,-29.2189 0,-12.5388 0.4672,-18.7266 1.8018,-23.4484 1.5351,-5.3505 3.9376,-8.4457 6.457,-8.4457"
     id="path78"
     style="stroke-width:2.1127" />
  <path
     class="Fingering"
     d="m 1272.0916,1576.7704 c -2.269,4.3901 -8.3924,7.6913 -14.5489,7.9 v 4.6388 h 5.873 c 3.8875,0.086 4.2713,0.7117 4.1376,6.7309 v 42.8867 c 0,5.4762 0,5.6849 -0.3836,6.648 -0.5506,1.0433 -1.802,1.5034 -5.556,1.5034 h -4.3214 v 5.0161 h 26.4284 v -5.0161 h -3.6706 c -3.7539,0 -5.0053,-0.4601 -5.5559,-1.5034 -0.4673,-0.9631 -0.4673,-1.0889 -0.4673,-6.648 v -44.1815 c 0,-5.9791 0.1502,-11.0353 0.4673,-17.9749 h -2.4026"
     id="path80"
     style="stroke-width:2.1127" />
  <metadata
     id="metadata315">
    <rdf:RDF>
      <cc:Work
         rdf:about="">
        <dc:title>Partition sans titre</dc:title>
      </cc:Work>
    </rdf:RDF>
  </metadata>
  <text
     xml:space="preserve"
     style="font-size:210px;font-family:sans-serif;-inkscape-font-specification:sans-serif;fill:#000000;stroke:#000000;stroke-width:3.75;paint-order:stroke fill markers"
     x="1194.3932"
     y="756.7525"
     id="text513"><tspan
       sodipodi:role="line"
       id="tspan511"
       style="stroke-width:3.75"
       x="1194.3932"
       y="756.7525">Liés descendants.</tspan></text>
  <path
     style="fill:#ffff00;fill-opacity:1;stroke:#ff0000;stroke-width:3.74411;stroke-opacity:1;paint-order:stroke fill markers"
     d="m 3418.1792,1083.4275 1.2686,177.8932 z"
     id="path368" />
  <path
     style="fill:#ffff00;fill-opacity:1;stroke:#ff0000;stroke-width:3.74411;stroke-opacity:1;paint-order:stroke fill markers"
     d="m 3418.1282,1260.336 c -1.7146,-3.1688 -12.6971,-29.0214 -12.6971,-29.0214 z"
     id="path370" />
  <path
     style="fill:#ffff00;fill-opacity:1;stroke:#ff0000;stroke-width:3.74411;stroke-opacity:1;paint-order:stroke fill markers"
     d="m 3416.4234,1257.9764 16.6701,-23.4648 z"
     id="path372" />
  <path
     style="fill:#ffff00;fill-opacity:1;stroke:#ff0000;stroke-width:3.75;stroke-opacity:1;paint-order:stroke fill markers"
     d="m 2515.7338,1119.5615 1.2724,177.8896 z"
     id="path368-9" />
  <path
     style="fill:#ffff00;fill-opacity:1;stroke:#ff0000;stroke-width:3.75;stroke-opacity:1;paint-order:stroke fill markers"
     d="m 2515.6826,1296.4664 c -1.72,-3.1687 -12.7374,-29.0208 -12.7374,-29.0208 z"
     id="path370-3" />
  <path
     style="fill:#ffff00;fill-opacity:1;stroke:#ff0000;stroke-width:3.75;stroke-opacity:1;paint-order:stroke fill markers"
     d="m 2513.9723,1294.1069 16.7229,-23.4644 z"
     id="path372-6" />
  <path
     style="fill:#ffff00;fill-opacity:1;stroke:#ff0000;stroke-width:3.75;stroke-opacity:1;paint-order:stroke fill markers"
     d="m 1555.2597,1194.5615 1.2724,177.8896 z"
     id="path368-0" />
  <path
     style="fill:#ffff00;fill-opacity:1;stroke:#ff0000;stroke-width:3.75;stroke-opacity:1;paint-order:stroke fill markers"
     d="m 1555.2085,1371.4664 c -1.72,-3.1687 -12.7374,-29.0208 -12.7374,-29.0208 z"
     id="path370-6" />
  <path
     style="fill:#ffff00;fill-opacity:1;stroke:#ff0000;stroke-width:3.75;stroke-opacity:1;paint-order:stroke fill markers"
     d="m 1553.4982,1369.1069 16.7229,-23.4644 z"
     id="path372-2" />
  <path
     style="fill:#ffff00;fill-opacity:1;stroke:#ff0000;stroke-width:3.75;stroke-opacity:1;paint-order:stroke fill markers"
     d="m 679.02015,1157.0615 1.27238,177.8896 z"
     id="path368-6" />
  <path
     style="fill:#ffff00;fill-opacity:1;stroke:#ff0000;stroke-width:3.75;stroke-opacity:1;paint-order:stroke fill markers"
     d="m 678.96896,1333.9664 c -1.72001,-3.1687 -12.73743,-29.0208 -12.73743,-29.0208 z"
     id="path370-1" />
  <path
     style="fill:#ffff00;fill-opacity:1;stroke:#ff0000;stroke-width:3.75;stroke-opacity:1;paint-order:stroke fill markers"
     d="m 677.2587,1331.6069 16.72286,-23.4644 z"
     id="path372-8" />
</svg>
