<?xml version="1.0" encoding="UTF-8" standalone="no"?>
<svg
   width="297mm"
   height="210mm"
   viewBox="0 0 4209.4489 2976.378"
   version="1.2"
   id="svg114"
   sodipodi:docname="liés_ascendants.svg"
   inkscape:version="1.2.2 (b0a8486541, 2022-12-01)"
   xmlns:inkscape="http://www.inkscape.org/namespaces/inkscape"
   xmlns:sodipodi="http://sodipodi.sourceforge.net/DTD/sodipodi-0.dtd"
   xmlns="http://www.w3.org/2000/svg"
   xmlns:svg="http://www.w3.org/2000/svg"
   xmlns:rdf="http://www.w3.org/1999/02/22-rdf-syntax-ns#"
   xmlns:cc="http://creativecommons.org/ns#"
   xmlns:dc="http://purl.org/dc/elements/1.1/">
  <defs
     id="defs118" />
  <sodipodi:namedview
     id="namedview116"
     pagecolor="#ffffff"
     bordercolor="#000000"
     borderopacity="0.25"
     inkscape:showpageshadow="2"
     inkscape:pageopacity="0.0"
     inkscape:pagecheckerboard="0"
     inkscape:deskcolor="#d1d1d1"
     inkscape:document-units="mm"
     showgrid="false"
     inkscape:zoom="4.8592169"
     inkscape:cx="195.81344"
     inkscape:cy="377.11838"
     inkscape:window-width="1280"
     inkscape:window-height="651"
     inkscape:window-x="0"
     inkscape:window-y="32"
     inkscape:window-maximized="1"
     inkscape:current-layer="svg114" />
  <title
     id="title2">liés_ascendants</title>
  <desc
     id="desc4">Generated by MuseScore Studio 4.5.2</desc>
  <polyline
     class="StaffLines"
     fill="none"
     stroke="#000000"
     stroke-width="2.73"
     stroke-linejoin="bevel"
     points="336.598,634.198 2764.6,634.198"
     id="polyline6"
     transform="matrix(1.6829426,0,0,2.8827196,-510.19382,-304.3783)" />
  <polyline
     class="StaffLines"
     fill="none"
     stroke="#000000"
     stroke-width="2.73"
     stroke-linejoin="bevel"
     points="336.598,658.998 2764.6,658.998"
     id="polyline8"
     transform="matrix(1.6829426,0,0,2.8827196,-510.19382,-304.3783)" />
  <polyline
     class="StaffLines"
     fill="none"
     stroke="#000000"
     stroke-width="2.73"
     stroke-linejoin="bevel"
     points="336.598,683.798 2764.6,683.798"
     id="polyline10"
     transform="matrix(1.6829426,0,0,2.8827196,-510.19382,-304.3783)" />
  <polyline
     class="StaffLines"
     fill="none"
     stroke="#000000"
     stroke-width="2.73"
     stroke-linejoin="bevel"
     points="336.598,708.598 2764.6,708.598"
     id="polyline12"
     transform="matrix(1.6829426,0,0,2.8827196,-510.19382,-304.3783)" />
  <polyline
     class="StaffLines"
     fill="none"
     stroke="#000000"
     stroke-width="2.73"
     stroke-linejoin="bevel"
     points="336.598,733.398 2764.6,733.398"
     id="polyline14"
     transform="matrix(1.6829426,0,0,2.8827196,-510.19382,-304.3783)" />
  <path
     class="SlurSegment"
     stroke="#000000"
     stroke-width="2.73123"
     stroke-linecap="round"
     stroke-linejoin="round"
     fill-rule="evenodd"
     d="m 3032.2488,1459.4944 c 73.6961,-117.9465 229.6208,-135.8193 311.8325,-35.7457 -81.3198,-77.2483 -237.2444,-59.3754 -311.8325,35.7457"
     id="path18" />
  <path
     class="SlurSegment"
     stroke="#000000"
     stroke-width="2.73123"
     stroke-linecap="round"
     stroke-linejoin="round"
     fill-rule="evenodd"
     d="m 2348.89,1495.2401 c 73.6961,-117.9464 229.6207,-135.8193 311.8324,-35.7457 -81.3197,-77.2482 -237.2444,-59.3754 -311.8324,35.7457"
     id="path20" />
  <path
     class="SlurSegment"
     stroke="#000000"
     stroke-width="2.73123"
     stroke-linecap="round"
     stroke-linejoin="round"
     fill-rule="evenodd"
     d="m 1725.2083,1566.7316 c 70.9025,-123.611 226.827,-153.28 311.8493,-59.3379 -83.5413,-71.2032 -239.4659,-41.5342 -311.8493,59.3379"
     id="path22" />
  <path
     class="SlurSegment"
     stroke="#000000"
     stroke-width="2.73123"
     stroke-linecap="round"
     stroke-linejoin="round"
     fill-rule="evenodd"
     d="m 1041.8546,1578.8851 c 76.5099,-112.1666 232.4261,-118.2434 311.8442,-12.1535 -79.1152,-83.2184 -235.0297,-77.1416 -311.8442,12.1535"
     id="path24" />
  <path
     class="SlurSegment"
     stroke="#000000"
     stroke-width="2.73123"
     stroke-linecap="round"
     stroke-linejoin="round"
     fill-rule="evenodd"
     d="m 457.81793,1507.3937 c 70.4749,-104.8128 211.78654,-105.5277 282.6216,-1.4299 -70.79635,-81.2206 -212.10631,-80.5057 -282.6216,1.4299"
     id="path26" />
  <polyline
     class="BarLine"
     fill="none"
     stroke="#000000"
     stroke-width="4.46"
     stroke-linejoin="bevel"
     points="2055.56,632.834 2055.56,734.762"
     id="polyline28"
     transform="matrix(1.6829426,0,0,2.8827196,-510.19382,-304.3783)" />
  <polyline
     class="BarLine"
     fill="none"
     stroke="#000000"
     stroke-width="4.46"
     stroke-linejoin="bevel"
     points="1278.93,632.834 1278.93,734.762"
     id="polyline30"
     transform="matrix(1.6829426,0,0,2.8827196,-510.19382,-304.3783)" />
  <polyline
     class="BarLine"
     fill="none"
     stroke="#000000"
     stroke-width="4.46"
     stroke-linejoin="bevel"
     points="2739.55,632.834 2739.55,734.762"
     id="polyline32"
     transform="matrix(1.6829426,0,0,2.8827196,-510.19382,-304.3783)" />
  <polyline
     class="BarLine"
     fill="none"
     stroke="#000000"
     stroke-width="13.64"
     stroke-linejoin="bevel"
     points="2757.78,632.834 2757.78,734.762"
     id="polyline34"
     transform="matrix(1.6829426,0,0,2.8827196,-510.19382,-304.3783)" />
  <polyline
     class="Stem"
     fill="none"
     stroke="#000000"
     stroke-width="2.48"
     stroke-linejoin="bevel"
     points="1092.64,675.565 1092.64,751.998"
     id="polyline36"
     transform="matrix(1.6829426,0,0,2.8827196,-510.19382,-304.3783)" />
  <polyline
     class="Stem"
     fill="none"
     stroke="#000000"
     stroke-width="2.48"
     stroke-linejoin="bevel"
     points="1683.99,650.765 1683.99,733.398"
     id="polyline38"
     transform="matrix(1.6829426,0,0,2.8827196,-510.19382,-304.3783)" />
  <polyline
     class="Stem"
     fill="none"
     stroke="#000000"
     stroke-width="2.48"
     stroke-linejoin="bevel"
     points="1498.69,663.165 1498.69,745.798"
     id="polyline40"
     transform="matrix(1.6829426,0,0,2.8827196,-510.19382,-304.3783)" />
  <polyline
     class="Stem"
     fill="none"
     stroke="#000000"
     stroke-width="2.48"
     stroke-linejoin="bevel"
     points="2275.33,625.965 2275.33,708.598"
     id="polyline42"
     transform="matrix(1.6829426,0,0,2.8827196,-510.19382,-304.3783)" />
  <polyline
     class="Stem"
     fill="none"
     stroke="#000000"
     stroke-width="2.48"
     stroke-linejoin="bevel"
     points="1313.4,675.565 1313.4,751.998"
     id="polyline44"
     transform="matrix(1.6829426,0,0,2.8827196,-510.19382,-304.3783)" />
  <polyline
     class="Stem"
     fill="none"
     stroke="#000000"
     stroke-width="2.48"
     stroke-linejoin="bevel"
     points="1869.28,638.365 1869.28,720.998"
     id="polyline46"
     transform="matrix(1.6829426,0,0,2.8827196,-510.19382,-304.3783)" />
  <polyline
     class="Stem"
     fill="none"
     stroke="#000000"
     stroke-width="2.48"
     stroke-linejoin="bevel"
     points="566.51,704.63 566.51,621.798"
     id="polyline48"
     transform="matrix(1.6829426,0,0,2.8827196,-510.19382,-304.3783)" />
  <polyline
     class="Stem"
     fill="none"
     stroke="#000000"
     stroke-width="2.48"
     stroke-linejoin="bevel"
     points="907.351,687.965 907.351,758.198"
     id="polyline50"
     transform="matrix(1.6829426,0,0,2.8827196,-510.19382,-304.3783)" />
  <polyline
     class="Stem"
     fill="none"
     stroke="#000000"
     stroke-width="2.48"
     stroke-linejoin="bevel"
     points="2090.04,638.365 2090.04,720.998"
     id="polyline52"
     transform="matrix(1.6829426,0,0,2.8827196,-510.19382,-304.3783)" />
  <polyline
     class="Stem"
     fill="none"
     stroke="#000000"
     stroke-width="2.48"
     stroke-linejoin="bevel"
     points="751.803,692.23 751.803,615.598"
     id="polyline54"
     transform="matrix(1.6829426,0,0,2.8827196,-510.19382,-304.3783)" />
  <path
     class="Note"
     d="m 1698.0961,1643.0934 c 0,12.2876 5.1649,26.005 18.7035,26.005 17.3468,0 35.5546,-24.3071 35.5546,-49.4632 0,-16.8898 -8.3474,-26.3177 -18.7034,-26.3177 -16.1991,0 -35.5547,23.4581 -35.5547,49.7759"
     id="path56"
     style="stroke-width:2.18498" />
  <path
     class="Note"
     d="m 2633.6102,1535.8562 c 0,12.2876 5.165,26.0051 18.7035,26.0051 17.3469,0 35.5547,-24.3072 35.5547,-49.4632 0,-16.8899 -8.3475,-26.3178 -18.7035,-26.3178 -16.1991,0 -35.5547,23.4581 -35.5547,49.7759"
     id="path58"
     style="stroke-width:2.18498" />
  <path
     class="Note"
     d="m 3316.9692,1500.1105 c 0,12.2876 5.1649,26.0051 18.7033,26.0051 17.3469,0 35.5547,-24.3072 35.5547,-49.4632 0,-16.8899 -8.3475,-26.3178 -18.7034,-26.3178 -16.1992,0 -35.5546,23.4581 -35.5546,49.7759"
     id="path60"
     style="stroke-width:2.18498" />
  <path
     class="Note"
     d="m 2321.7778,1571.6019 c 0,12.2876 5.165,26.0051 18.7034,26.0051 17.347,0 35.5548,-24.3071 35.5548,-49.4632 0,-16.8899 -8.3475,-26.3177 -18.7035,-26.3177 -16.1991,0 -35.5547,23.458 -35.5547,49.7758"
     id="path62"
     style="stroke-width:2.18498" />
  <path
     class="Note"
     d="m 3005.1366,1535.8562 c 0,12.2876 5.165,26.0051 18.7035,26.0051 17.3469,0 35.5547,-24.3072 35.5547,-49.4632 0,-16.8899 -8.3475,-26.3178 -18.7035,-26.3178 -16.1991,0 -35.5547,23.4581 -35.5547,49.7759"
     id="path64"
     style="stroke-width:2.18498" />
  <path
     class="Note"
     d="m 2009.9286,1607.3477 c 0,12.2875 5.165,26.005 18.7034,26.005 17.3468,0 35.5546,-24.3071 35.5546,-49.4632 0,-16.8898 -8.3474,-26.3177 -18.7033,-26.3177 -16.1992,0 -35.5547,23.4581 -35.5547,49.7759"
     id="path66"
     style="stroke-width:2.18498" />
  <path
     class="Note"
     d="m 1326.5697,1643.0934 c 0,12.2876 5.1649,26.005 18.7035,26.005 17.3468,0 35.5546,-24.3071 35.5546,-49.4632 0,-16.8898 -8.3474,-26.3177 -18.7034,-26.3177 -16.1991,0 -35.5547,23.4581 -35.5547,49.7759"
     id="path68"
     style="stroke-width:2.18498" />
  <path
     class="Note"
     d="m 1014.739,1678.8391 c 0,12.2876 5.1649,26.0051 18.7033,26.0051 17.3471,0 35.5548,-24.3072 35.5548,-49.4632 0,-16.8899 -8.3475,-26.3178 -18.7034,-26.3178 -16.1991,0 -35.5547,23.4581 -35.5547,49.7759"
     id="path70"
     style="stroke-width:2.18498" />
  <path
     class="Note"
     d="m 702.90149,1714.5848 c 0,12.2876 5.16495,26.0051 18.70335,26.0051 17.34705,0 35.55472,-24.3072 35.55472,-49.4632 0,-16.8899 -8.34739,-26.3177 -18.70334,-26.3177 -16.19912,0 -35.55473,23.458 -35.55473,49.7758"
     id="path72"
     style="stroke-width:2.18498" />
  <path
     class="Note"
     d="m 391.06401,1750.3305 c 0,12.2876 5.16495,26.0051 18.70334,26.0051 17.34706,0 35.55473,-24.3071 35.55473,-49.4632 0,-16.8898 -8.3474,-26.3177 -18.70335,-26.3177 -16.19912,0 -35.55472,23.4581 -35.55472,49.7758"
     id="path74"
     style="stroke-width:2.18498" />
  <path
     class="Clef"
     d="m 158.19781,1943.3574 c 0,-10.5896 -5.66054,-15.1471 -11.16465,-15.1471 -7.01698,0 -13.87754,7.4171 -13.87754,20.2856 0,5.4514 1.17381,9.4726 3.5216,13.4493 -4.35635,2.8596 -8.68662,8.5789 -8.68662,17.4707 0,9.428 5.00843,15.7282 12.36465,15.7282 8.99949,0 15.33834,-8.579 15.33834,-20.9113 0,-6.5683 -1.66949,-11.9748 -4.66936,-15.7281 4.85201,-3.7087 7.17358,-8.2661 7.17358,-15.1473 m -16.6948,45.7545 c -3.65198,0 -6.1562,-3.9766 -6.1562,-10.0088 0,-5.7193 1.48684,-10.2768 4.33014,-13.1364 0.6783,0.5808 0.83474,0.5808 1.3304,1.117 2.00856,1.7426 2.00856,1.7426 2.34779,2.3234 3.15631,3.1279 4.51276,5.9876 4.51276,10.0088 0,5.4065 -2.68685,9.696 -6.36489,9.696 m 6.36489,-34.3159 c -2.50421,-2.2786 -3.18251,-2.8596 -3.67802,-3.4404 l -0.33924,-0.2679 c -2.50421,-2.5917 -3.33895,-4.6023 -3.33895,-7.9981 0,-5.1832 2.34778,-8.8918 5.68673,-8.8918 3.15632,0 5.16488,3.4404 5.16488,9.4279 0,4.6024 -0.99118,7.73 -3.4954,11.1705 m 46.56278,-217.066 c 0,-43.163 -17.86861,-72.3404 -42.23263,-72.3404 -1.66948,-17.158 -3.18238,-34.048 -4.66922,-50.044 17.52954,-31.7691 29.86798,-67.7828 29.86798,-112.9565 0,-26.0498 -4.66935,-47.1844 -7.51266,-57.5049 -3.99104,-14.5671 -8.84305,-24.5759 -11.68634,-24.5759 -1.14778,0 -6.49527,3.4402 -11.84295,14.5671 -10.85161,21.7591 -13.85134,58.0411 -13.85134,82.0799 0,15.4602 0.83475,29.4456 3.67803,61.7955 -0.18264,0 -8.86912,15.1473 -12.36466,20.2858 -15.20778,24.0389 -36.23287,58.891 -36.23287,115.8161 0,53.7528 27.20733,95.7986 58.27534,95.7986 4.82579,0 9.33857,-0.849 13.35583,-2.0106 2.99973,27.2113 5.00844,47.4969 5.00844,62.6442 0,29.7585 -9.0257,45.4866 -25.87693,45.4866 -4.01727,0 -7.51265,-1.4298 -7.85189,-1.7427 -0.15651,0 -0.49551,-0.2681 -0.49551,-0.5362 0,-0.5807 0.33907,-0.8936 0.83475,-1.1618 7.85172,-2.0107 15.6774,-13.7172 15.6774,-31.7242 0,-15.4602 -6.8345,-31.7691 -19.35559,-31.7691 -11.68636,0 -19.04243,16.3089 -19.04243,35.1649 0,18.9007 8.34739,43.7885 30.88536,43.7885 21.54665,0 32.05919,-20.9112 32.05919,-57.506 0,-11.1258 -0.99118,-23.9942 -2.66065,-40.3031 -0.49569,-5.7193 -1.33042,-14.6112 -2.50422,-25.469 16.35555,-9.428 28.53757,-38.3371 28.53757,-67.7828 m -51.41477,-234.4919 c 1.66948,-11.4386 9.18214,-41.465 17.86876,-41.465 2.50422,0 6.67791,13.7172 6.67791,33.7348 0,29.4456 -13.01677,51.7867 -24.54667,71.4914 -0.99119,-11.4386 -1.82593,-22.8772 -1.82593,-34.5838 0,-10.8578 0.65211,-20.3305 1.82593,-29.1774 m 5.00844,295.7064 c -23.86822,0 -44.24116,-28.5966 -44.24116,-71.8042 0,-34.8522 14.34712,-66.0402 29.0594,-88.0685 2.81725,-4.0215 5.50411,-7.9981 8.00833,-12.2876 1.48683,15.4153 2.66065,28.5966 3.83447,40.616 -15.2078,7.4174 -25.5377,35.1649 -25.5377,61.7508 0,20.3304 9.18214,47.7652 22.53797,47.7652 1.33025,0 2.84328,-1.1616 2.84328,-4.0212 0,-2.2789 -1.51303,-3.9769 -3.67802,-6.2557 -6.52149,-6.6129 -10.19952,-14.2983 -10.19952,-28.0604 0,-17.426 7.6953,-31.4563 17.37295,-35.433 l 9.6778,93.7879 c -3.33897,1.1619 -6.33885,2.0107 -9.6778,2.0107 m 16.69479,-5.4511 c -3.49541,-34.0032 -8.00817,-79.4896 -9.18214,-92.0902 16.85137,0 24.051,20.0178 25.53785,33.7799 0.18263,2.2788 0.49566,5.4065 0.49566,8.8471 0,20.5984 -5.00844,41.1971 -16.85137,49.4632"
     id="path76"
     style="stroke-width:2.18498" />
  <path
     class="TimeSig"
     d="m 268.53993,1631.6547 v 21.1348 h -13.85149 c -1.17382,0 -2.34762,1.7424 -2.34762,4.0213 v 5.4514 c 0,2.2786 1.1738,3.9766 2.34762,3.9766 h 50.58003 c 1.35646,0 2.34763,-1.698 2.34763,-3.9766 v -5.4514 c 0,-2.2789 -0.99117,-4.0213 -2.34763,-4.0213 h -15.02531 v -21.1348 h 15.02531 c 1.35646,0 2.34763,-2.0107 2.34763,-4.2895 v -5.4512 c 0,-2.0107 -0.99117,-3.9767 -2.34763,-3.9767 h -15.02531 v -45.4864 c 0,-1.6979 -0.49566,-3.1278 -1.14776,-3.7086 l -2.00855,-1.7426 c -0.33923,-0.2681 -0.49567,-0.2681 -0.83473,-0.2681 -0.18265,0 -0.18265,0 -0.33924,0 -0.49551,0 -1.17382,0.2681 -1.5129,0.8489 l -15.18189,23.7263 c -0.49551,0.8936 -0.67816,2.0107 -0.67816,3.1724 v 23.4581 h -19.35555 c 0,0 18.70347,-34.3159 38.39798,-79.5344 0.6783,-1.4298 0.83474,-2.8596 0.83474,-3.9766 0,-1.4298 -0.33908,-2.5914 -0.49551,-2.8596 l -3.67819,-6.3002 c -0.4955,-0.5808 -0.99118,-1.1618 -1.66947,-1.1618 -0.99119,0 -23.55519,0 -24.88561,0 -1.1738,0 -2.00854,1.7426 -2.16514,3.4407 0,0 -0.83474,21.1792 -5.16495,44.3246 -4.35629,23.1901 -9.36473,37.4884 -13.69495,48.0333 0,0 -0.49563,1.4299 -0.49563,3.1725 0,0.5808 0,1.1172 0.15652,1.698 0.49563,2.0106 1.66948,5.1385 1.66948,5.1385 0,0 0.33912,1.7424 1.82599,1.7424 h 28.72029"
     id="path78"
     style="stroke-width:2.18498" />
  <path
     class="TimeSig"
     d="m 268.53993,1774.6376 v 21.1348 h -13.85149 c -1.17382,0 -2.34762,1.7424 -2.34762,4.0213 v 5.4514 c 0,2.2785 1.1738,3.9766 2.34762,3.9766 h 50.58003 c 1.35646,0 2.34763,-1.6981 2.34763,-3.9766 v -5.4514 c 0,-2.2789 -0.99117,-4.0213 -2.34763,-4.0213 h -15.02531 v -21.1348 h 15.02531 c 1.35646,0 2.34763,-2.0107 2.34763,-4.2895 v -5.4512 c 0,-2.0107 -0.99117,-3.9767 -2.34763,-3.9767 h -15.02531 v -45.4864 c 0,-1.6979 -0.49566,-3.1278 -1.14776,-3.7086 l -2.00855,-1.7426 c -0.33923,-0.2681 -0.49567,-0.2681 -0.83473,-0.2681 -0.18265,0 -0.18265,0 -0.33924,0 -0.49551,0 -1.17382,0.2681 -1.5129,0.8489 l -15.18189,23.7263 c -0.49551,0.8936 -0.67816,2.0106 -0.67816,3.1724 v 23.4581 h -19.35555 c 0,0 18.70347,-34.3159 38.39798,-79.5344 0.6783,-1.4298 0.83474,-2.8596 0.83474,-3.9766 0,-1.4298 -0.33908,-2.5914 -0.49551,-2.8596 l -3.67819,-6.3002 c -0.4955,-0.5808 -0.99118,-1.1619 -1.66947,-1.1619 -0.99119,0 -23.55519,0 -24.88561,0 -1.1738,0 -2.00854,1.7427 -2.16514,3.4408 0,0 -0.83474,21.1792 -5.16495,44.3246 -4.35629,23.1901 -9.36473,37.4883 -13.69495,48.0333 0,0 -0.49563,1.4299 -0.49563,3.1725 0,0.5808 0,1.1172 0.15652,1.6979 0.49563,2.0107 1.66948,5.1386 1.66948,5.1386 0,0 0.33912,1.7424 1.82599,1.7424 h 28.72029"
     id="path80"
     style="stroke-width:2.18498" />
  <path
     class="Rest"
     d="m 3628.8016,1663.9599 c 0,4.0214 0,4.0214 2.3476,4.0214 h 49.5888 c 2.3216,0 2.3216,0 2.3216,-4.0214 v -30.8754 c 0,-4.0213 0,-4.0213 -2.3216,-4.0213 h -49.5888 c -2.3476,0 -2.3476,0 -2.3476,4.0213 v 30.8754"
     id="path82"
     style="stroke-width:2.18498" />
  <path
     class="Fingering"
     d="m 3278.1436,1478.0591 c 6.1428,-3.785 8.9532,-9.6859 8.9532,-18.9193 0,-12.0699 -5.4021,-19.8187 -13.7328,-19.8187 -7.8929,0 -13.8505,7.9736 -13.8505,18.4667 0,4.7306 1.8007,8.063 4.4429,8.063 2.3393,0 3.9718,-2.7934 3.9718,-6.9358 0,-2.5224 -0.5554,-4.0099 -2.1038,-5.8548 -0.6563,-0.8129 -0.875,-1.3059 -0.875,-2.0727 0,-3.2431 3.8876,-6.711 7.7246,-6.711 4.8806,0 7.4218,5.1803 7.4218,14.9988 0,10.7209 -2.5412,16.3508 -7.3376,16.3508 -0.6059,0 -1.7671,-0.089 -2.76,-0.2248 -0.5554,-0.092 -1.0771,-0.092 -1.4642,-0.092 -1.4305,0 -2.1709,1.0378 -2.1709,3.1105 0,1.9343 0.6731,2.8827 2.1709,2.8827 0.3871,0 0.9088,0 1.5147,-0.1355 1.3631,-0.092 2.4571,-0.092 3.1807,-0.092 4.9816,0 7.6911,6.0826 7.6911,17.5241 0,11.9806 -3.3659,18.6454 -9.4413,18.6454 -4.2411,0 -8.8187,-3.9176 -8.8187,-7.4749 0,-1.0377 0.1347,-1.2626 1.4305,-2.5223 1.8513,-1.9834 2.5918,-3.9205 2.5918,-6.8033 0,-4.1886 -1.8176,-7.2961 -4.2241,-7.2961 -2.8948,0 -4.7628,4.0531 -4.7628,10.1789 0,11.1705 5.9744,18.8731 14.5911,18.8731 9.761,0 16.0889,-9.1872 16.0889,-23.3759 0,-10.8564 -3.2313,-17.4319 -10.2323,-20.7643"
     id="path84"
     style="stroke-width:2.2026" />
  <path
     class="Fingering"
     d="m 355.64481,1692.4556 c -9.41439,0 -16.27743,17.5212 -16.27743,41.7562 0,23.7363 6.65267,41.122 15.72373,41.122 9.44131,0 16.04181,-16.8005 16.04181,-40.8078 0,-12.2054 -1.49951,-22.341 -4.31338,-30.3146 -2.62876,-7.2501 -6.94214,-11.7558 -11.17473,-11.7558 m -0.4746,4.9554 c 2.2097,0 4.36555,2.5224 5.99633,7.1607 1.81421,5.4051 2.41838,11.9835 2.41838,27.7923 0,16.2614 -0.4729,23.8718 -1.8142,28.9166 -1.55168,5.676 -3.97007,9.1007 -6.52141,9.1007 -2.28712,0 -4.39079,-2.5224 -5.99464,-7.1174 -1.89331,-5.4513 -2.42007,-12.5687 -2.42007,-31.4851 0,-13.5142 0.4729,-20.179 1.8142,-25.2699 1.55168,-5.7655 3.97175,-9.0979 6.52141,-9.0979"
     id="path86"
     style="stroke-width:2.2026" />
  <path
     class="Fingering"
     d="m 3010.7072,1321.7898 -12.2518,1.7123 -0.2188,4.1886 h 1.6325 c 2.6927,0 3.7698,1.0349 3.7698,3.6466 0,1.0378 -0.2189,2.7934 -0.5554,5.0016 l -6.8664,39.6374 h 5.8566 l 2.7768,-16.2615 c 3.0126,-17.6566 9.1385,-30.9892 14.1873,-30.9892 1.767,0 2.8442,1.5768 2.8442,4.4596 0,2.3407 -0.5554,7.1606 -1.3632,11.5308 l -5.3686,31.2603 h 5.8398 l 2.8947,-16.7112 c 1.6829,-9.5937 3.3659,-16.0365 5.5201,-20.9891 2.4233,-5.7654 5.8566,-9.5504 8.4146,-9.5504 1.6829,0 2.6255,1.4875 2.6255,4.2347 0,1.6201 -0.3367,4.1425 -0.9426,7.3855 l -3.0966,16.397 c -1.8176,8.9623 -1.868,9.683 -1.868,12.8828 0,4.8632 2.07,8.0601 5.2339,8.0601 2.2216,0 4.3757,-1.8449 6.6645,-5.4945 1.4305,-2.3407 2.3393,-4.4134 5.1161,-11.306 l -2.0868,-2.4301 c -3.5005,9.0085 -5.9913,13.3758 -7.7247,13.3758 -0.7405,0 -1.4305,-1.2597 -1.4305,-2.8827 0,-1.0349 0.2187,-2.2975 0.8246,-5.6761 l 4.2242,-22.3411 c 0.4712,-2.5223 0.8247,-6.1257 0.8247,-8.6481 0,-6.1258 -2.6254,-10.4931 -6.2606,-10.4931 -4.7795,0 -9.1048,5.3157 -12.9924,16.2585 0.2694,-2.2053 0.3871,-4.1425 0.3871,-5.5377 0,-6.1258 -2.8272,-10.7208 -6.513,-10.7208 -4.2578,0 -7.3375,4.0531 -12.0667,15.584 l 1.9691,-15.584"
     id="path88"
     style="stroke-width:2.2026" />
  <path
     class="Fingering"
     d="m 2594.8521,1477.9496 c -2.2888,4.7305 -8.4653,8.2878 -14.6752,8.5126 v 5.0016 h 5.9071 c 3.9212,0.089 4.3252,0.7639 4.1906,7.25 v 46.2129 c 0,5.9009 0,6.1258 -0.404,7.1635 -0.5386,1.1243 -1.8008,1.6201 -5.5874,1.6201 h -4.3756 v 5.4051 h 26.6746 v -5.4051 h -3.7192 c -3.7867,0 -5.0489,-0.4958 -5.6043,-1.6201 -0.4712,-1.0377 -0.4712,-1.1703 -0.4712,-7.1635 v -47.6081 c 0,-6.4429 0.1683,-11.8912 0.4712,-19.369 h -2.4066"
     id="path90"
     style="stroke-width:2.2026" />
  <path
     class="Fingering"
     d="m 2273.7298,1525.2867 c -9.4245,0 -16.2908,17.5212 -16.2908,41.7533 0,23.7392 6.6644,41.1249 15.7355,41.1249 9.4413,0 16.0384,-16.8005 16.0384,-40.8078 0,-12.2083 -1.4978,-22.3411 -4.3084,-30.3147 -2.6421,-7.25 -6.9505,-11.7557 -11.1747,-11.7557 m -0.4881,4.9554 c 2.2215,0 4.3757,2.5224 6.0082,7.1607 1.8176,5.4051 2.4066,11.9806 2.4066,27.7923 0,16.2585 -0.4712,23.8718 -1.8008,28.9165 -1.5651,5.6761 -3.9717,9.0979 -6.5298,9.0979 -2.2888,0 -4.3925,-2.5224 -5.9912,-7.1145 -1.9018,-5.4513 -2.4235,-12.5687 -2.4235,-31.4851 0,-13.5142 0.4713,-20.179 1.8176,-25.2699 1.5483,-5.7655 3.9718,-9.0979 6.5129,-9.0979"
     id="path92"
     style="stroke-width:2.2026" />
  <path
     class="Fingering"
     d="m 2352.2727,1358.2245 c -2.0195,0 -3.6182,2.7933 -3.6182,6.2612 0,3.3325 1.5987,6.2152 3.5678,6.2152 2.0868,0 3.6856,-2.7934 3.6856,-6.2152 0,-3.4679 -1.5988,-6.2612 -3.6352,-6.2612 m 1.2118,28.1526 -12.9082,1.7095 -0.2525,4.1914 h 1.5989 c 2.76,0 3.837,1.0349 3.837,3.5573 0,1.1272 -0.1346,2.433 -0.6057,5.0909 l -3.9214,22.4737 c -1.2621,7.3423 -1.4641,8.9652 -1.4641,11.6231 0,4.0531 2.0196,7.1607 4.5776,7.1607 5.7725,0 9.7442,-10.2683 12.5884,-17.746 l -2.1037,-1.9834 c -3.5005,9.1008 -6.3111,13.9639 -8.1286,13.9639 -0.6732,0 -1.1613,-1.0349 -1.1613,-2.433 0,-1.1242 0.2694,-3.243 0.8247,-6.44 l 7.1189,-41.1681"
     id="path94"
     style="stroke-width:2.2026" />
  <path
     class="Fingering"
     d="m 1971.1199,1630.2494 c 6.1259,-3.785 8.9364,-9.6859 8.9364,-18.9193 0,-12.0699 -5.3853,-19.8187 -13.716,-19.8187 -7.893,0 -13.8674,7.9736 -13.8674,18.4667 0,4.7306 1.8175,8.063 4.443,8.063 2.3393,0 3.9717,-2.7905 3.9717,-6.9358 0,-2.5224 -0.5553,-4.0099 -2.1037,-5.8548 -0.6563,-0.8101 -0.8583,-1.3059 -0.8583,-2.0727 0,-3.2431 3.8876,-6.711 7.7248,-6.711 4.8636,0 7.4217,5.1803 7.4217,14.9988 0,10.7209 -2.5581,16.3508 -7.3376,16.3508 -0.6059,0 -1.7671,-0.089 -2.7601,-0.2248 -0.5553,-0.089 -1.0938,-0.089 -1.4809,-0.089 -1.4137,0 -2.1542,1.0349 -2.1542,3.1076 0,1.9371 0.6563,2.8827 2.1542,2.8827 0.3871,0 0.9256,0 1.5315,-0.1355 1.3631,-0.089 2.4403,-0.089 3.1807,-0.089 4.9648,0 7.6742,6.0797 7.6742,17.5212 0,11.9806 -3.3659,18.6454 -9.4412,18.6454 -4.2411,0 -8.8018,-3.9176 -8.8018,-7.4749 0,-1.0377 0.1178,-1.2626 1.4136,-2.5223 1.8681,-1.9834 2.6086,-3.9205 2.6086,-6.8033 0,-4.1886 -1.8176,-7.2961 -4.2411,-7.2961 -2.8946,0 -4.7627,4.0531 -4.7627,10.1789 0,11.1705 5.9744,18.8731 14.5912,18.8731 9.761,0 16.1057,-9.1872 16.1057,-23.376 0,-10.8563 -3.2313,-17.4318 -10.2323,-20.7642"
     id="path96"
     style="stroke-width:2.2026" />
  <path
     class="Fingering"
     d="m 1712.0982,1431.0247 -12.2518,1.7094 -0.2188,4.1886 h 1.6325 c 2.6758,0 3.7529,1.0378 3.7529,3.6495 0,1.0349 -0.2019,2.7934 -0.5385,4.9987 l -6.8665,39.6374 h 5.8568 l 2.76,-16.2586 c 3.0292,-17.6566 9.1551,-30.9892 14.204,-30.9892 1.7671,0 2.8441,1.5768 2.8441,4.4596 0,2.3407 -0.5553,7.1606 -1.3799,11.5308 l -5.3518,31.2574 h 5.8398 l 2.8778,-16.7083 c 1.6829,-9.5966 3.3659,-16.0365 5.5369,-20.9919 2.4067,-5.7655 5.8566,-9.5476 8.4147,-9.5476 1.683,0 2.6254,1.4846 2.6254,4.2347 0,1.6201 -0.3365,4.1425 -0.9424,7.3855 l -3.1135,16.3969 c -1.8175,8.9624 -1.868,9.6831 -1.868,12.88 0,4.8661 2.0868,8.063 5.2339,8.063 2.2383,0 4.3925,-1.8449 6.6813,-5.4945 1.4136,-2.3436 2.3392,-4.4134 5.0993,-11.306 l -2.07,-2.433 c -3.5005,9.0085 -5.9912,13.3787 -7.7416,13.3787 -0.7237,0 -1.4136,-1.2626 -1.4136,-2.8827 0,-1.0349 0.2188,-2.2975 0.8078,-5.6761 l 4.241,-22.3411 c 0.4713,-2.5224 0.8078,-6.1258 0.8078,-8.6481 0,-6.1258 -2.6254,-10.4931 -6.2437,-10.4931 -4.7964,0 -9.1047,5.3128 -12.9923,16.2585 0.2524,-2.2053 0.3871,-4.1425 0.3871,-5.5406 0,-6.1258 -2.8442,-10.7179 -6.513,-10.7179 -4.2579,0 -7.3377,4.0531 -12.0835,15.584 l 1.9858,-15.584"
     id="path98"
     style="stroke-width:2.2026" />
  <path
     class="Fingering"
     d="m 1287.8115,1587.1845 c -2.2887,4.7305 -8.4652,8.2878 -14.6752,8.5126 v 4.9987 h 5.924 c 3.9212,0.092 4.3083,0.7668 4.1736,7.2529 v 46.2129 c 0,5.9009 0,6.1258 -0.387,7.1635 -0.5554,1.1243 -1.8176,1.6201 -5.6042,1.6201 h -4.3589 v 5.4051 h 26.6579 v -5.4051 h -3.7025 c -3.7866,0 -5.0489,-0.4958 -5.6042,-1.6201 -0.4713,-1.0377 -0.4713,-1.1732 -0.4713,-7.1635 v -47.6081 c 0,-6.4429 0.1516,-11.8913 0.4713,-19.369 h -2.4235"
     id="path100"
     style="stroke-width:2.2026" />
  <path
     class="Fingering"
     d="m 983.52885,1634.8272 c -9.41446,0 -16.27745,17.5211 -16.27745,41.7533 0,23.7392 6.65268,41.1249 15.72366,41.1249 9.44139,0 16.04183,-16.8005 16.04183,-40.8078 0,-12.2083 -1.4995,-22.3411 -4.31333,-30.3147 -2.62872,-7.2529 -6.94221,-11.7557 -11.17471,-11.7557 m -0.47467,4.9554 c 2.20975,0 4.36556,2.5224 5.99637,7.1606 1.8142,5.4051 2.41842,11.9806 2.41842,27.7923 0,16.2586 -0.47292,23.8718 -1.81431,28.9166 -1.55159,5.6761 -3.97,9.0979 -6.52137,9.0979 -2.28711,0 -4.39073,-2.5224 -5.99462,-7.1175 -1.89331,-5.4483 -2.42006,-12.5657 -2.42006,-31.4821 0,-13.5142 0.47291,-20.1791 1.81419,-25.27 1.5517,-5.7654 3.97177,-9.0978 6.52138,-9.0978"
     id="path102"
     style="stroke-width:2.2026" />
  <path
     class="Fingering"
     d="m 1045.2474,1402.872 c -2.0246,0 -3.6284,2.7934 -3.6284,6.2613 0,3.3324 1.6038,6.2151 3.5762,6.2151 2.0768,0 3.6806,-2.7933 3.6806,-6.2151 0,-3.4679 -1.6038,-6.2613 -3.6284,-6.2613 m 1.2101,28.1527 -12.9116,1.7094 -0.2626,4.1886 h 1.6039 c 2.76,0 3.8388,1.0378 3.8388,3.5602 0,1.1242 -0.1313,2.433 -0.6042,5.088 l -3.9179,22.4765 c -1.2622,7.3423 -1.4725,8.9653 -1.4725,11.6232 0,4.0531 2.0245,7.1606 4.5742,7.1606 5.786,0 9.756,-10.2711 12.5968,-17.746 l -2.1037,-1.9833 c -3.4972,9.0979 -6.311,13.9639 -8.1252,13.9639 -0.685,0 -1.1579,-1.0349 -1.1579,-2.433 0,-1.1243 0.2626,-3.2431 0.8145,-6.44 l 7.1274,-41.1681"
     id="path104"
     style="stroke-width:2.2026" />
  <path
     class="Fingering"
     d="m 682.36454,1708.3365 h -2.97039 l -0.68495,5.8981 c -0.86672,7.4777 -1.39349,8.1552 -5.57391,8.1552 H 658.0679 c 4.6281,-8.2878 6.17977,-10.7208 10.49146,-16.4863 6.12759,-8.063 8.75635,-12.0728 10.28111,-15.5407 2.15753,-5.088 3.23461,-10.1328 3.23461,-15.8089 0,-13.1538 -6.31103,-22.4765 -15.14648,-22.4765 -8.54599,0 -15.06739,9.3227 -15.06739,21.6665 0,7.2962 2.15585,12.2516 5.31137,12.2516 2.49916,0 4.18211,-2.8828 4.18211,-7.0742 0,-2.8828 -0.9475,-5.4945 -2.36622,-6.5294 -2.47224,-1.7585 -2.60351,-1.9833 -2.60351,-3.4679 0,-1.7585 0.65635,-4.4163 1.60385,-6.3506 1.68293,-3.5602 4.44296,-5.5406 7.59848,-5.5406 5.60251,0 8.8893,5.9009 8.8893,15.5839 0,8.5127 -2.34097,16.2615 -7.94181,26.3942 -4.96973,8.9653 -8.07307,14.6385 -9.22925,16.8466 -2.42007,4.8199 -3.63011,7.4778 -6.57526,14.1427 v 3.243 h 30.34682 l 1.28745,-24.9067"
     id="path106"
     style="stroke-width:2.2026" />
  <path
     class="Fingering"
     d="m 405.05937,1416.6111 -12.25352,1.7094 -0.21036,4.1886 h 1.62909 c 2.6826,0 3.76137,1.0378 3.76137,3.6495 0,1.0349 -0.21037,2.7934 -0.552,4.9987 l -6.86472,39.6374 h 5.86505 l 2.76002,-16.2586 c 3.02426,-17.6566 9.15185,-30.9892 14.20068,-30.9892 1.76204,0 2.83912,1.5768 2.83912,4.4596 0,2.3407 -0.55201,7.1606 -1.36655,11.5308 l -5.36522,31.2574 h 5.83813 l 2.89298,-16.7083 c 1.68293,-9.5965 3.36588,-16.0365 5.52173,-20.9919 2.42007,-5.7655 5.86505,-9.5476 8.41472,-9.5476 1.68293,0 2.63043,1.4846 2.63043,4.2347 0,1.6201 -0.34164,4.1425 -0.9475,7.3855 l -3.10334,16.3969 c -1.81422,8.9624 -1.86639,9.6831 -1.86639,12.88 0,4.8661 2.07675,8.063 5.23228,8.063 2.23663,0 4.39247,-1.8449 6.67959,-5.4945 1.42041,-2.3436 2.34098,-4.4134 5.101,-11.306 l -2.07675,-2.433 c -3.49715,9.0085 -5.99464,13.3787 -7.73143,13.3787 -0.73545,0 -1.41873,-1.2626 -1.41873,-2.8827 0,-1.0349 0.21038,-2.2975 0.81455,-5.6761 l 4.23428,-22.3411 c 0.47291,-2.5224 0.81454,-6.1258 0.81454,-8.6481 0,-6.1258 -2.63044,-10.4931 -6.25886,-10.4931 -4.78629,0 -9.09798,5.3128 -12.99063,16.2585 0.26422,-2.2053 0.39549,-4.1425 0.39549,-5.5406 0,-6.1258 -2.84081,-10.7179 -6.5214,-10.7179 -4.25954,0 -7.33764,4.0531 -12.07006,15.584 l 1.97241,-15.584"
     id="path108"
     style="stroke-width:2.2026" />
  <polyline
     class="NoteLineSegment"
     fill="none"
     stroke="#000000"
     stroke-dasharray="18.6, 20.7831"
     stroke-dashoffset="0"
     stroke-width="3.72"
     stroke-linejoin="miter"
     stroke-miterlimit="2"
     points="1129.83,671.398 1305.96,671.398"
     id="polyline110"
     transform="matrix(1.6829426,0,0,2.8827196,-510.19382,-304.3783)" />
  <polyline
     class="NoteLineSegment"
     fill="none"
     stroke="#000000"
     stroke-dasharray="18.6, 20.7831"
     stroke-dashoffset="0"
     stroke-width="3.72"
     stroke-linejoin="miter"
     stroke-miterlimit="2"
     points="1903.96,644.203 2080.1,644.203"
     id="polyline112"
     transform="matrix(1.6829426,0,0,2.8827196,-510.19382,-304.3783)" />
  <metadata
     id="metadata798">
    <rdf:RDF>
      <cc:Work
         rdf:about="">
        <dc:title>liés_ascendants</dc:title>
      </cc:Work>
    </rdf:RDF>
  </metadata>
  <text
     xml:space="preserve"
     style="font-size:210px;font-family:sans-serif;-inkscape-font-specification:sans-serif;fill:#000000;stroke:#000000;stroke-width:0"
     x="1243.9105"
     y="586.49445"
     id="text2575"><tspan
       sodipodi:role="line"
       id="tspan2573"
       style="font-size:210px;stroke-width:0"
       x="1243.9105"
       y="586.49445">Liés ascendants.</tspan></text>
  <path
     style="fill:#000000;stroke:#000000;stroke-width:10.4173;stroke-dasharray:none;marker-mid:;stroke-dashoffset:0"
     d="M 1974.0803,727.09866 684.02897,1365.4483 Z"
     id="path5954" />
  <path
     style="fill:#000000;stroke:#000000;stroke-width:10.4173;stroke-dasharray:none;stroke-dashoffset:0"
     d="m 686.04017,1365.1755 22.42792,-55.956 -18.63566,54.1993 z"
     id="path14019" />
  <path
     style="fill:#000000;stroke:#000000;stroke-width:10.4173;stroke-dasharray:none;stroke-dashoffset:0"
     d="m 732.09565,1380.715 -52.06924,-11.7209 z"
     id="path14021" />
</svg>
