<?xml version="1.0" encoding="UTF-8" standalone="no"?>
<svg
   width="297mm"
   height="210mm"
   viewBox="0 0 4209.4489 2976.378"
   version="1.2"
   id="svg322"
   sodipodi:docname="corde_a_vide_pouce_0.svg"
   inkscape:version="1.2.2 (b0a8486541, 2022-12-01)"
   xmlns:inkscape="http://www.inkscape.org/namespaces/inkscape"
   xmlns:sodipodi="http://sodipodi.sourceforge.net/DTD/sodipodi-0.dtd"
   xmlns="http://www.w3.org/2000/svg"
   xmlns:svg="http://www.w3.org/2000/svg"
   xmlns:rdf="http://www.w3.org/1999/02/22-rdf-syntax-ns#"
   xmlns:cc="http://creativecommons.org/ns#"
   xmlns:dc="http://purl.org/dc/elements/1.1/">
  <defs
     id="defs326" />
  <sodipodi:namedview
     id="namedview324"
     pagecolor="#ffffff"
     bordercolor="#000000"
     borderopacity="0.25"
     inkscape:showpageshadow="2"
     inkscape:pageopacity="0.0"
     inkscape:pagecheckerboard="0"
     inkscape:deskcolor="#d1d1d1"
     inkscape:document-units="mm"
     showgrid="false"
     inkscape:zoom="1.3651269"
     inkscape:cx="240.2707"
     inkscape:cy="383.8471"
     inkscape:window-width="1104"
     inkscape:window-height="552"
     inkscape:window-x="0"
     inkscape:window-y="32"
     inkscape:window-maximized="1"
     inkscape:current-layer="svg322" />
  <title
     id="title2">corde_a_vide_pouce_0</title>
  <desc
     id="desc4">Generated by MuseScore Studio 4.5.2</desc>
  <polyline
     class="StaffLines"
     fill="none"
     stroke="#000000"
     stroke-width="2.73"
     stroke-linejoin="bevel"
     points="336.598,634.198 2764.6,634.198"
     id="polyline6"
     transform="matrix(1.5315264,0,0,1.7882811,-174.59965,-166.5741)" />
  <polyline
     class="StaffLines"
     fill="none"
     stroke="#000000"
     stroke-width="2.73"
     stroke-linejoin="bevel"
     points="336.598,658.998 2764.6,658.998"
     id="polyline8"
     transform="matrix(1.5315264,0,0,1.7882811,-174.59965,-166.5741)" />
  <polyline
     class="StaffLines"
     fill="none"
     stroke="#000000"
     stroke-width="2.73"
     stroke-linejoin="bevel"
     points="336.598,683.798 2764.6,683.798"
     id="polyline10"
     transform="matrix(1.5315264,0,0,1.7882811,-174.59965,-166.5741)" />
  <polyline
     class="StaffLines"
     fill="none"
     stroke="#000000"
     stroke-width="2.73"
     stroke-linejoin="bevel"
     points="336.598,708.598 2764.6,708.598"
     id="polyline12"
     transform="matrix(1.5315264,0,0,1.7882811,-174.59965,-166.5741)" />
  <polyline
     class="StaffLines"
     fill="none"
     stroke="#000000"
     stroke-width="2.73"
     stroke-linejoin="bevel"
     points="336.598,733.398 2764.6,733.398"
     id="polyline14"
     transform="matrix(1.5315264,0,0,1.7882811,-174.59965,-166.5741)" />
  <polyline
     class="StaffLines"
     fill="none"
     stroke="#000000"
     stroke-width="2.73"
     stroke-linejoin="bevel"
     points="212.598,1316.2 2764.6,1316.2"
     id="polyline16"
     transform="matrix(1.5315264,0,0,1.7882811,-174.59965,-166.5741)" />
  <polyline
     class="StaffLines"
     fill="none"
     stroke="#000000"
     stroke-width="2.73"
     stroke-linejoin="bevel"
     points="212.598,1341 2764.6,1341"
     id="polyline18"
     transform="matrix(1.5315264,0,0,1.7882811,-174.59965,-166.5741)" />
  <polyline
     class="StaffLines"
     fill="none"
     stroke="#000000"
     stroke-width="2.73"
     stroke-linejoin="bevel"
     points="212.598,1365.8 2764.6,1365.8"
     id="polyline20"
     transform="matrix(1.5315264,0,0,1.7882811,-174.59965,-166.5741)" />
  <polyline
     class="StaffLines"
     fill="none"
     stroke="#000000"
     stroke-width="2.73"
     stroke-linejoin="bevel"
     points="212.598,1390.6 2764.6,1390.6"
     id="polyline22"
     transform="matrix(1.5315264,0,0,1.7882811,-174.59965,-166.5741)" />
  <polyline
     class="StaffLines"
     fill="none"
     stroke="#000000"
     stroke-width="2.73"
     stroke-linejoin="bevel"
     points="212.598,1415.4 2764.6,1415.4"
     id="polyline24"
     transform="matrix(1.5315264,0,0,1.7882811,-174.59965,-166.5741)" />
  <path
     class="MeasureNumber"
     d="m 157.8687,2071.0842 c -1.91441,1.3412 -2.46576,2.1996 -2.46576,3.6302 0,1.3591 0.98171,2.3784 2.20233,2.3784 1.60351,0 2.51324,-1.377 2.70468,-4.0236 1.8899,-1.7883 3.92377,-2.5752 6.36502,-2.5752 4.5471,0 7.05881,3.2905 7.05881,9.2097 0,9.3169 -5.1444,16.8814 -11.46195,16.8814 -3.6144,0 -6.55646,-1.985 -6.55646,-4.3634 0,-0.4113 0.0704,-0.5544 0.35838,-0.769 1.96188,-1.073 3.56539,-1.8419 3.56539,-4.8641 0,-2.289 -1.53153,-4.0058 -3.68485,-4.0058 -2.68017,0 -4.71404,2.6288 -4.71404,6.0623 0,6.3305 4.66656,10.8727 11.22302,10.8727 9.90745,0 17.94796,-9.2096 17.94796,-20.6367 0,-7.2426 -4.71557,-12.3392 -11.39149,-12.3392 -2.65567,0 -4.78602,0.6438 -7.72961,2.3785 l 3.42296,-13.5194 c 3.25449,0.7868 5.83818,1.1445 8.04051,1.1445 4.04323,0 7.65763,-1.5022 9.667,-3.9879 1.05369,-1.4306 1.65098,-2.6646 1.65098,-3.5766 0,-0.447 -0.19144,-0.8762 -0.43036,-0.8762 -0.16693,0 -0.3109,0.089 -0.67081,0.2861 -2.00936,1.1445 -4.59458,1.7883 -6.98682,1.7883 -3.66188,0 -8.01601,-0.6975 -12.54014,-2.0744 l -5.57475,22.9794"
     id="path28"
     style="stroke-width:1.65493" />
  <polyline
     class="BarLine"
     fill="none"
     stroke="#000000"
     stroke-width="4.46"
     stroke-linejoin="bevel"
     points="2739.55,1314.83 2739.55,1416.76"
     id="polyline30"
     transform="matrix(1.5315264,0,0,1.7882811,-174.59965,-166.5741)" />
  <polyline
     class="BarLine"
     fill="none"
     stroke="#000000"
     stroke-width="13.64"
     stroke-linejoin="bevel"
     points="2757.78,1314.83 2757.78,1416.76"
     id="polyline32"
     transform="matrix(1.5315264,0,0,1.7882811,-174.59965,-166.5741)" />
  <path
     class="BarLine"
     d="m 3496.443,2253.6856 c 0,-5.1557 -3.5133,-9.3966 -7.9049,-9.3966 -4.4154,0 -7.905,4.2409 -7.905,9.3966 0,5.1556 3.4896,9.3965 7.905,9.3965 4.3916,0 7.9049,-4.2409 7.9049,-9.3965"
     id="path34"
     style="stroke-width:1.64169" />
  <path
     class="BarLine"
     d="m 3496.443,2298.0349 c 0,-5.1556 -3.5133,-9.3965 -7.9049,-9.3965 -4.4154,0 -7.905,4.2409 -7.905,9.3965 0,5.1556 3.4896,9.3966 7.905,9.3966 4.3916,0 7.9049,-4.241 7.9049,-9.3966"
     id="path36"
     style="stroke-width:1.64169" />
  <polyline
     class="BarLine"
     fill="none"
     stroke="#000000"
     stroke-width="4.46"
     stroke-linejoin="bevel"
     points="2408.38,1314.83 2408.38,1416.76"
     id="polyline38"
     transform="matrix(1.5315264,0,0,1.7882811,-174.59965,-166.5741)" />
  <polyline
     class="BarLine"
     fill="none"
     stroke="#000000"
     stroke-width="13.64"
     stroke-linejoin="bevel"
     points="2426.61,1314.83 2426.61,1416.76"
     id="polyline40"
     transform="matrix(1.5315264,0,0,1.7882811,-174.59965,-166.5741)" />
  <polyline
     class="BarLine"
     fill="none"
     stroke="#000000"
     stroke-width="4.46"
     stroke-linejoin="bevel"
     points="1872.53,1314.83 1872.53,1416.76"
     id="polyline42"
     transform="matrix(1.5315264,0,0,1.7882811,-174.59965,-166.5741)" />
  <polyline
     class="BarLine"
     fill="none"
     stroke="#000000"
     stroke-width="4.46"
     stroke-linejoin="bevel"
     points="1356.17,1314.83 1356.17,1416.76"
     id="polyline44"
     transform="matrix(1.5315264,0,0,1.7882811,-174.59965,-166.5741)" />
  <polyline
     class="BarLine"
     fill="none"
     stroke="#000000"
     stroke-width="4.46"
     stroke-linejoin="bevel"
     points="839.803,1314.83 839.803,1416.76"
     id="polyline46"
     transform="matrix(1.5315264,0,0,1.7882811,-174.59965,-166.5741)" />
  <polyline
     class="BarLine"
     fill="none"
     stroke="#000000"
     stroke-width="4.46"
     stroke-linejoin="bevel"
     points="2762.37,632.834 2762.37,734.762"
     id="polyline48"
     transform="matrix(1.5315264,0,0,1.7882811,-174.59965,-166.5741)" />
  <polyline
     class="BarLine"
     fill="none"
     stroke="#000000"
     stroke-width="4.46"
     stroke-linejoin="bevel"
     points="2197.35,632.834 2197.35,734.762"
     id="polyline50"
     transform="matrix(1.5315264,0,0,1.7882811,-174.59965,-166.5741)" />
  <polyline
     class="BarLine"
     fill="none"
     stroke="#000000"
     stroke-width="4.46"
     stroke-linejoin="bevel"
     points="1632.33,632.834 1632.33,734.762"
     id="polyline52"
     transform="matrix(1.5315264,0,0,1.7882811,-174.59965,-166.5741)" />
  <polyline
     class="BarLine"
     fill="none"
     stroke="#000000"
     stroke-width="4.46"
     stroke-linejoin="bevel"
     points="1067.31,632.834 1067.31,734.762"
     id="polyline54"
     transform="matrix(1.5315264,0,0,1.7882811,-174.59965,-166.5741)" />
  <polyline
     class="LedgerLine"
     fill="none"
     stroke="#000000"
     stroke-width="3.97"
     stroke-linejoin="bevel"
     points="1224.75,782.998 1273.34,782.998"
     id="polyline56"
     transform="matrix(1.5315264,0,0,1.7882811,-174.59965,-166.5741)" />
  <polyline
     class="LedgerLine"
     fill="none"
     stroke="#000000"
     stroke-width="3.97"
     stroke-linejoin="bevel"
     points="659.73,758.198 708.323,758.198"
     id="polyline58"
     transform="matrix(1.5315264,0,0,1.7882811,-174.59965,-166.5741)" />
  <polyline
     class="LedgerLine"
     fill="none"
     stroke="#000000"
     stroke-width="3.97"
     stroke-linejoin="bevel"
     points="1357.14,758.198 1405.73,758.198"
     id="polyline60"
     transform="matrix(1.5315264,0,0,1.7882811,-174.59965,-166.5741)" />
  <polyline
     class="LedgerLine"
     fill="none"
     stroke="#000000"
     stroke-width="3.97"
     stroke-linejoin="bevel"
     points="1357.14,782.998 1405.73,782.998"
     id="polyline62"
     transform="matrix(1.5315264,0,0,1.7882811,-174.59965,-166.5741)" />
  <polyline
     class="LedgerLine"
     fill="none"
     stroke="#000000"
     stroke-width="3.97"
     stroke-linejoin="bevel"
     points="1489.53,758.198 1538.12,758.198"
     id="polyline64"
     transform="matrix(1.5315264,0,0,1.7882811,-174.59965,-166.5741)" />
  <polyline
     class="LedgerLine"
     fill="none"
     stroke="#000000"
     stroke-width="3.97"
     stroke-linejoin="bevel"
     points="1489.53,782.998 1538.12,782.998"
     id="polyline66"
     transform="matrix(1.5315264,0,0,1.7882811,-174.59965,-166.5741)" />
  <polyline
     class="LedgerLine"
     fill="none"
     stroke="#000000"
     stroke-width="3.97"
     stroke-linejoin="bevel"
     points="2258.26,1465 2306.85,1465"
     id="polyline68"
     transform="matrix(1.5315264,0,0,1.7882811,-174.59965,-166.5741)" />
  <polyline
     class="LedgerLine"
     fill="none"
     stroke="#000000"
     stroke-width="3.97"
     stroke-linejoin="bevel"
     points="2258.26,1440.2 2306.85,1440.2"
     id="polyline70"
     transform="matrix(1.5315264,0,0,1.7882811,-174.59965,-166.5741)" />
  <polyline
     class="LedgerLine"
     fill="none"
     stroke="#000000"
     stroke-width="3.97"
     stroke-linejoin="bevel"
     points="2138.03,1465 2186.62,1465"
     id="polyline72"
     transform="matrix(1.5315264,0,0,1.7882811,-174.59965,-166.5741)" />
  <polyline
     class="LedgerLine"
     fill="none"
     stroke="#000000"
     stroke-width="3.97"
     stroke-linejoin="bevel"
     points="527.341,807.798 575.934,807.798"
     id="polyline74"
     transform="matrix(1.5315264,0,0,1.7882811,-174.59965,-166.5741)" />
  <polyline
     class="LedgerLine"
     fill="none"
     stroke="#000000"
     stroke-width="3.97"
     stroke-linejoin="bevel"
     points="527.341,782.998 575.934,782.998"
     id="polyline76"
     transform="matrix(1.5315264,0,0,1.7882811,-174.59965,-166.5741)" />
  <polyline
     class="LedgerLine"
     fill="none"
     stroke="#000000"
     stroke-width="3.97"
     stroke-linejoin="bevel"
     points="2138.03,1440.2 2186.62,1440.2"
     id="polyline78"
     transform="matrix(1.5315264,0,0,1.7882811,-174.59965,-166.5741)" />
  <polyline
     class="LedgerLine"
     fill="none"
     stroke="#000000"
     stroke-width="3.97"
     stroke-linejoin="bevel"
     points="2017.81,1465 2066.4,1465"
     id="polyline80"
     transform="matrix(1.5315264,0,0,1.7882811,-174.59965,-166.5741)" />
  <polyline
     class="LedgerLine"
     fill="none"
     stroke="#000000"
     stroke-width="3.97"
     stroke-linejoin="bevel"
     points="527.341,758.198 575.934,758.198"
     id="polyline82"
     transform="matrix(1.5315264,0,0,1.7882811,-174.59965,-166.5741)" />
  <polyline
     class="LedgerLine"
     fill="none"
     stroke="#000000"
     stroke-width="3.97"
     stroke-linejoin="bevel"
     points="2017.81,1440.2 2066.4,1440.2"
     id="polyline84"
     transform="matrix(1.5315264,0,0,1.7882811,-174.59965,-166.5741)" />
  <polyline
     class="LedgerLine"
     fill="none"
     stroke="#000000"
     stroke-width="3.97"
     stroke-linejoin="bevel"
     points="1897.58,1465 1946.17,1465"
     id="polyline86"
     transform="matrix(1.5315264,0,0,1.7882811,-174.59965,-166.5741)" />
  <polyline
     class="LedgerLine"
     fill="none"
     stroke="#000000"
     stroke-width="3.97"
     stroke-linejoin="bevel"
     points="1897.58,1440.2 1946.17,1440.2"
     id="polyline88"
     transform="matrix(1.5315264,0,0,1.7882811,-174.59965,-166.5741)" />
  <polyline
     class="LedgerLine"
     fill="none"
     stroke="#000000"
     stroke-width="3.97"
     stroke-linejoin="bevel"
     points="1224.75,758.198 1273.34,758.198"
     id="polyline90"
     transform="matrix(1.5315264,0,0,1.7882811,-174.59965,-166.5741)" />
  <polyline
     class="LedgerLine"
     fill="none"
     stroke="#000000"
     stroke-width="3.97"
     stroke-linejoin="bevel"
     points="924.508,807.798 973.1,807.798"
     id="polyline92"
     transform="matrix(1.5315264,0,0,1.7882811,-174.59965,-166.5741)" />
  <polyline
     class="LedgerLine"
     fill="none"
     stroke="#000000"
     stroke-width="3.97"
     stroke-linejoin="bevel"
     points="792.119,758.198 840.711,758.198"
     id="polyline94"
     transform="matrix(1.5315264,0,0,1.7882811,-174.59965,-166.5741)" />
  <polyline
     class="LedgerLine"
     fill="none"
     stroke="#000000"
     stroke-width="3.97"
     stroke-linejoin="bevel"
     points="659.73,807.798 708.323,807.798"
     id="polyline96"
     transform="matrix(1.5315264,0,0,1.7882811,-174.59965,-166.5741)" />
  <polyline
     class="LedgerLine"
     fill="none"
     stroke="#000000"
     stroke-width="3.97"
     stroke-linejoin="bevel"
     points="924.508,782.998 973.1,782.998"
     id="polyline98"
     transform="matrix(1.5315264,0,0,1.7882811,-174.59965,-166.5741)" />
  <polyline
     class="LedgerLine"
     fill="none"
     stroke="#000000"
     stroke-width="3.97"
     stroke-linejoin="bevel"
     points="2456.24,1465 2509.61,1465"
     id="polyline100"
     transform="matrix(1.5315264,0,0,1.7882811,-174.59965,-166.5741)" />
  <polyline
     class="LedgerLine"
     fill="none"
     stroke="#000000"
     stroke-width="3.97"
     stroke-linejoin="bevel"
     points="659.73,782.998 708.323,782.998"
     id="polyline102"
     transform="matrix(1.5315264,0,0,1.7882811,-174.59965,-166.5741)" />
  <polyline
     class="LedgerLine"
     fill="none"
     stroke="#000000"
     stroke-width="3.97"
     stroke-linejoin="bevel"
     points="2456.24,1440.2 2509.61,1440.2"
     id="polyline104"
     transform="matrix(1.5315264,0,0,1.7882811,-174.59965,-166.5741)" />
  <polyline
     class="LedgerLine"
     fill="none"
     stroke="#000000"
     stroke-width="3.97"
     stroke-linejoin="bevel"
     points="924.508,758.198 973.1,758.198"
     id="polyline106"
     transform="matrix(1.5315264,0,0,1.7882811,-174.59965,-166.5741)" />
  <polyline
     class="LedgerLine"
     fill="none"
     stroke="#000000"
     stroke-width="3.97"
     stroke-linejoin="bevel"
     points="792.119,782.998 840.711,782.998"
     id="polyline108"
     transform="matrix(1.5315264,0,0,1.7882811,-174.59965,-166.5741)" />
  <polyline
     class="LedgerLine"
     fill="none"
     stroke="#000000"
     stroke-width="3.97"
     stroke-linejoin="bevel"
     points="2456.24,1489.8 2509.61,1489.8"
     id="polyline110"
     transform="matrix(1.5315264,0,0,1.7882811,-174.59965,-166.5741)" />
  <polyline
     class="LedgerLine"
     fill="none"
     stroke="#000000"
     stroke-width="3.97"
     stroke-linejoin="bevel"
     points="792.119,807.798 840.711,807.798"
     id="polyline112"
     transform="matrix(1.5315264,0,0,1.7882811,-174.59965,-166.5741)" />
  <polyline
     class="LedgerLine"
     fill="none"
     stroke="#000000"
     stroke-width="3.97"
     stroke-linejoin="bevel"
     points="1092.36,758.198 1140.95,758.198"
     id="polyline114"
     transform="matrix(1.5315264,0,0,1.7882811,-174.59965,-166.5741)" />
  <polyline
     class="LedgerLine"
     fill="none"
     stroke="#000000"
     stroke-width="3.97"
     stroke-linejoin="bevel"
     points="1092.36,782.998 1140.95,782.998"
     id="polyline116"
     transform="matrix(1.5315264,0,0,1.7882811,-174.59965,-166.5741)" />
  <polyline
     class="Stem"
     fill="none"
     stroke="#000000"
     stroke-width="2.48"
     stroke-linejoin="bevel"
     points="2658.73,704.63 2658.73,621.798"
     id="polyline118"
     transform="matrix(1.5315264,0,0,1.7882811,-174.59965,-166.5741)" />
  <polyline
     class="Stem"
     fill="none"
     stroke="#000000"
     stroke-width="2.48"
     stroke-linejoin="bevel"
     points="2526.34,704.63 2526.34,621.798"
     id="polyline120"
     transform="matrix(1.5315264,0,0,1.7882811,-174.59965,-166.5741)" />
  <polyline
     class="Stem"
     fill="none"
     stroke="#000000"
     stroke-width="2.48"
     stroke-linejoin="bevel"
     points="1263.92,779.03 1263.92,683.798"
     id="polyline122"
     transform="matrix(1.5315264,0,0,1.7882811,-174.59965,-166.5741)" />
  <polyline
     class="Stem"
     fill="none"
     stroke="#000000"
     stroke-width="2.48"
     stroke-linejoin="bevel"
     points="566.51,816.23 566.51,683.798"
     id="polyline124"
     transform="matrix(1.5315264,0,0,1.7882811,-174.59965,-166.5741)" />
  <polyline
     class="Stem"
     fill="none"
     stroke="#000000"
     stroke-width="2.48"
     stroke-linejoin="bevel"
     points="2177.2,1461.03 2177.2,1365.8"
     id="polyline126"
     transform="matrix(1.5315264,0,0,1.7882811,-174.59965,-166.5741)" />
  <polyline
     class="Stem"
     fill="none"
     stroke="#000000"
     stroke-width="2.48"
     stroke-linejoin="bevel"
     points="698.899,816.23 698.899,683.798"
     id="polyline128"
     transform="matrix(1.5315264,0,0,1.7882811,-174.59965,-166.5741)" />
  <polyline
     class="Stem"
     fill="none"
     stroke="#000000"
     stroke-width="2.48"
     stroke-linejoin="bevel"
     points="831.287,816.23 831.287,683.798"
     id="polyline130"
     transform="matrix(1.5315264,0,0,1.7882811,-174.59965,-166.5741)" />
  <polyline
     class="Stem"
     fill="none"
     stroke="#000000"
     stroke-width="2.48"
     stroke-linejoin="bevel"
     points="357.911,1369.96 357.911,1440.2"
     id="polyline132"
     transform="matrix(1.5315264,0,0,1.7882811,-174.59965,-166.5741)" />
  <polyline
     class="Stem"
     fill="none"
     stroke="#000000"
     stroke-width="2.48"
     stroke-linejoin="bevel"
     points="2056.97,1461.03 2056.97,1365.8"
     id="polyline134"
     transform="matrix(1.5315264,0,0,1.7882811,-174.59965,-166.5741)" />
  <polyline
     class="Stem"
     fill="none"
     stroke="#000000"
     stroke-width="2.48"
     stroke-linejoin="bevel"
     points="478.136,1369.96 478.136,1440.2"
     id="polyline136"
     transform="matrix(1.5315264,0,0,1.7882811,-174.59965,-166.5741)" />
  <polyline
     class="Stem"
     fill="none"
     stroke="#000000"
     stroke-width="2.48"
     stroke-linejoin="bevel"
     points="598.361,1369.96 598.361,1440.2"
     id="polyline138"
     transform="matrix(1.5315264,0,0,1.7882811,-174.59965,-166.5741)" />
  <polyline
     class="Stem"
     fill="none"
     stroke="#000000"
     stroke-width="2.48"
     stroke-linejoin="bevel"
     points="718.586,1369.96 718.586,1440.2"
     id="polyline140"
     transform="matrix(1.5315264,0,0,1.7882811,-174.59965,-166.5741)" />
  <polyline
     class="Stem"
     fill="none"
     stroke="#000000"
     stroke-width="2.48"
     stroke-linejoin="bevel"
     points="1936.75,1461.03 1936.75,1365.8"
     id="polyline142"
     transform="matrix(1.5315264,0,0,1.7882811,-174.59965,-166.5741)" />
  <polyline
     class="Stem"
     fill="none"
     stroke="#000000"
     stroke-width="2.48"
     stroke-linejoin="bevel"
     points="904.02,1386.63 904.02,1303.8"
     id="polyline144"
     transform="matrix(1.5315264,0,0,1.7882811,-174.59965,-166.5741)" />
  <polyline
     class="Stem"
     fill="none"
     stroke="#000000"
     stroke-width="2.48"
     stroke-linejoin="bevel"
     points="1024.24,1386.63 1024.24,1303.8"
     id="polyline146"
     transform="matrix(1.5315264,0,0,1.7882811,-174.59965,-166.5741)" />
  <polyline
     class="Stem"
     fill="none"
     stroke="#000000"
     stroke-width="2.48"
     stroke-linejoin="bevel"
     points="1144.47,1386.63 1144.47,1303.8"
     id="polyline148"
     transform="matrix(1.5315264,0,0,1.7882811,-174.59965,-166.5741)" />
  <polyline
     class="Stem"
     fill="none"
     stroke="#000000"
     stroke-width="2.48"
     stroke-linejoin="bevel"
     points="1264.7,1386.63 1264.7,1303.8"
     id="polyline150"
     transform="matrix(1.5315264,0,0,1.7882811,-174.59965,-166.5741)" />
  <polyline
     class="Stem"
     fill="none"
     stroke="#000000"
     stroke-width="2.48"
     stroke-linejoin="bevel"
     points="1781.06,1423.83 1781.06,1341"
     id="polyline152"
     transform="matrix(1.5315264,0,0,1.7882811,-174.59965,-166.5741)" />
  <polyline
     class="Stem"
     fill="none"
     stroke="#000000"
     stroke-width="2.48"
     stroke-linejoin="bevel"
     points="1420.38,1423.83 1420.38,1341"
     id="polyline154"
     transform="matrix(1.5315264,0,0,1.7882811,-174.59965,-166.5741)" />
  <polyline
     class="Stem"
     fill="none"
     stroke="#000000"
     stroke-width="2.48"
     stroke-linejoin="bevel"
     points="1660.83,1423.83 1660.83,1341"
     id="polyline156"
     transform="matrix(1.5315264,0,0,1.7882811,-174.59965,-166.5741)" />
  <polyline
     class="Stem"
     fill="none"
     stroke="#000000"
     stroke-width="2.48"
     stroke-linejoin="bevel"
     points="1540.61,1423.83 1540.61,1341"
     id="polyline158"
     transform="matrix(1.5315264,0,0,1.7882811,-174.59965,-166.5741)" />
  <polyline
     class="Stem"
     fill="none"
     stroke="#000000"
     stroke-width="2.48"
     stroke-linejoin="bevel"
     points="1961.33,741.83 1961.33,658.998"
     id="polyline160"
     transform="matrix(1.5315264,0,0,1.7882811,-174.59965,-166.5741)" />
  <polyline
     class="Stem"
     fill="none"
     stroke="#000000"
     stroke-width="2.48"
     stroke-linejoin="bevel"
     points="1696.55,741.83 1696.55,658.998"
     id="polyline162"
     transform="matrix(1.5315264,0,0,1.7882811,-174.59965,-166.5741)" />
  <polyline
     class="Stem"
     fill="none"
     stroke="#000000"
     stroke-width="2.48"
     stroke-linejoin="bevel"
     points="1131.53,779.03 1131.53,683.798"
     id="polyline164"
     transform="matrix(1.5315264,0,0,1.7882811,-174.59965,-166.5741)" />
  <polyline
     class="Stem"
     fill="none"
     stroke="#000000"
     stroke-width="2.48"
     stroke-linejoin="bevel"
     points="1828.94,741.83 1828.94,658.998"
     id="polyline166"
     transform="matrix(1.5315264,0,0,1.7882811,-174.59965,-166.5741)" />
  <polyline
     class="Stem"
     fill="none"
     stroke="#000000"
     stroke-width="2.48"
     stroke-linejoin="bevel"
     points="1528.7,779.03 1528.7,683.798"
     id="polyline168"
     transform="matrix(1.5315264,0,0,1.7882811,-174.59965,-166.5741)" />
  <polyline
     class="Stem"
     fill="none"
     stroke="#000000"
     stroke-width="2.48"
     stroke-linejoin="bevel"
     points="2297.42,1461.03 2297.42,1365.8"
     id="polyline170"
     transform="matrix(1.5315264,0,0,1.7882811,-174.59965,-166.5741)" />
  <polyline
     class="Stem"
     fill="none"
     stroke="#000000"
     stroke-width="2.48"
     stroke-linejoin="bevel"
     points="2093.71,741.83 2093.71,658.998"
     id="polyline172"
     transform="matrix(1.5315264,0,0,1.7882811,-174.59965,-166.5741)" />
  <polyline
     class="Stem"
     fill="none"
     stroke="#000000"
     stroke-width="2.48"
     stroke-linejoin="bevel"
     points="963.676,816.23 963.676,683.798"
     id="polyline174"
     transform="matrix(1.5315264,0,0,1.7882811,-174.59965,-166.5741)" />
  <polyline
     class="Stem"
     fill="none"
     stroke="#000000"
     stroke-width="2.48"
     stroke-linejoin="bevel"
     points="2393.96,704.63 2393.96,621.798"
     id="polyline176"
     transform="matrix(1.5315264,0,0,1.7882811,-174.59965,-166.5741)" />
  <polyline
     class="Stem"
     fill="none"
     stroke="#000000"
     stroke-width="2.48"
     stroke-linejoin="bevel"
     points="1396.31,779.03 1396.31,683.798"
     id="polyline178"
     transform="matrix(1.5315264,0,0,1.7882811,-174.59965,-166.5741)" />
  <polyline
     class="Stem"
     fill="none"
     stroke="#000000"
     stroke-width="2.48"
     stroke-linejoin="bevel"
     points="2261.57,704.63 2261.57,621.798"
     id="polyline180"
     transform="matrix(1.5315264,0,0,1.7882811,-174.59965,-166.5741)" />
  <path
     class="Note"
     d="m 1530.7397,2327.6659 c 0,7.6225 4.7002,16.132 17.0206,16.132 15.7862,0 32.3558,-15.0787 32.3558,-30.6842 0,-10.4775 -7.5964,-16.3261 -17.0206,-16.3261 -14.7418,0 -32.3558,14.5521 -32.3558,30.8783"
     id="path182"
     style="stroke-width:1.64169" />
  <path
     class="Note"
     d="m 645.57102,1307.6267 c 0,7.6226 4.70025,16.1322 17.02059,16.1322 15.78631,0 32.35582,-15.0789 32.35582,-30.6843 0,-10.4775 -7.59637,-16.3261 -17.02059,-16.3261 -14.74166,0 -32.35582,14.5521 -32.35582,30.8782"
     id="path184"
     style="stroke-width:1.64169" />
  <path
     class="Note"
     d="m 1162.4765,2327.6659 c 0,7.6225 4.7002,16.132 17.0206,16.132 15.7863,0 32.3558,-15.0787 32.3558,-30.6842 0,-10.4775 -7.5964,-16.3261 -17.0206,-16.3261 -14.7417,0 -32.3558,14.5521 -32.3558,30.8783"
     id="path186"
     style="stroke-width:1.64169" />
  <path
     class="Note"
     d="m 2119.1827,1241.1027 c 0,7.6225 4.7003,16.1321 17.0206,16.1321 15.7863,0 32.3558,-15.0788 32.3558,-30.6843 0,-10.4775 -7.5963,-16.326 -17.0206,-16.326 -14.7417,0 -32.3558,14.5521 -32.3558,30.8782"
     id="path188"
     style="stroke-width:1.64169" />
  <path
     class="Note"
     d="m 3444.3512,1108.0546 c 0,7.6225 4.7003,16.1321 17.0207,16.1321 15.7862,0 32.3558,-15.0788 32.3558,-30.6843 0,-10.4775 -7.5964,-16.326 -17.0207,-16.326 -14.7417,0 -32.3558,14.5521 -32.3558,30.8782"
     id="path190"
     style="stroke-width:1.64169" />
  <path
     class="Note"
     d="m 1346.6042,2327.6659 c 0,7.6225 4.7003,16.132 17.0207,16.132 15.7862,0 32.3558,-15.0787 32.3558,-30.6842 0,-10.4775 -7.5964,-16.3261 -17.0207,-16.3261 -14.7417,0 -32.3558,14.5521 -32.3558,30.8783"
     id="path192"
     style="stroke-width:1.64169" />
  <path
     class="Note"
     d="m 1713.6652,1241.1027 c 0,7.6225 4.7002,16.1321 17.0206,16.1321 15.7862,0 32.3558,-15.0788 32.3558,-30.6843 0,-10.4775 -7.5964,-16.326 -17.0206,-16.326 -14.7417,0 -32.3558,14.5521 -32.3558,30.8782"
     id="path194"
     style="stroke-width:1.64169" />
  <path
     class="Note"
     d="m 1510.9064,1241.1027 c 0,7.6225 4.7003,16.1321 17.0206,16.1321 15.7862,0 32.3558,-15.0788 32.3558,-30.6843 0,-10.4775 -7.5964,-16.326 -17.0206,-16.326 -14.7417,0 -32.3558,14.5521 -32.3558,30.8782"
     id="path196"
     style="stroke-width:1.64169" />
  <path
     class="Note"
     d="m 2505.694,2394.1899 c 0,7.6226 4.7003,16.1321 17.0207,16.1321 15.7862,0 32.3558,-15.0788 32.3558,-30.6842 0,-10.4776 -7.5964,-16.3261 -17.0207,-16.3261 -14.7417,0 -32.3558,14.5521 -32.3558,30.8782"
     id="path198"
     style="stroke-width:1.64169" />
  <path
     class="Note"
     d="m 1953.3031,2394.1899 c 0,7.6226 4.7003,16.1321 17.0206,16.1321 15.7862,0 32.3558,-15.0788 32.3558,-30.6842 0,-10.4776 -7.5964,-16.3261 -17.0206,-16.3261 -14.7417,0 -32.3558,14.5521 -32.3558,30.8782"
     id="path200"
     style="stroke-width:1.64169" />
  <path
     class="Note"
     d="m 3296.513,2460.714 c 0,7.6225 4.7003,16.1321 17.0206,16.1321 15.7862,0 32.3558,-15.0788 32.3558,-30.6843 0,-10.4775 -7.5964,-16.3261 -17.0206,-16.3261 -14.7417,0 -32.3558,14.5522 -32.3558,30.8783"
     id="path202"
     style="stroke-width:1.64169" />
  <path
     class="Note"
     d="m 2137.4232,2394.1899 c 0,7.6226 4.7003,16.1321 17.0206,16.1321 15.7862,0 32.3558,-15.0788 32.3558,-30.6842 0,-10.4776 -7.5964,-16.3261 -17.0206,-16.3261 -14.7417,0 -32.3558,14.5521 -32.3558,30.8782"
     id="path204"
     style="stroke-width:1.64169" />
  <path
     class="Note"
     d="m 1714.8598,2327.6659 c 0,7.6225 4.7002,16.132 17.0206,16.132 15.7862,0 32.3558,-15.0787 32.3558,-30.6842 0,-10.4775 -7.5964,-16.3261 -17.0206,-16.3261 -14.7418,0 -32.3558,14.5521 -32.3558,30.8783"
     id="path206"
     style="stroke-width:1.64169" />
  <path
     class="Note"
     d="m 1916.424,1241.1027 c 0,7.6225 4.7002,16.1321 17.0206,16.1321 15.7862,0 32.3558,-15.0788 32.3558,-30.6843 0,-10.4775 -7.5964,-16.326 -17.0207,-16.326 -14.7417,0 -32.3557,14.5521 -32.3557,30.8782"
     id="path208"
     style="stroke-width:1.64169" />
  <path
     class="Note"
     d="m 2321.5586,2394.1899 c 0,7.6226 4.7003,16.1321 17.0206,16.1321 15.7863,0 32.3558,-15.0788 32.3558,-30.6842 0,-10.4776 -7.5963,-16.3261 -17.0206,-16.3261 -14.7417,0 -32.3558,14.5521 -32.3558,30.8782"
     id="path210"
     style="stroke-width:1.64169" />
  <path
     class="Note"
     d="m 371.6514,2283.3165 c 0,7.6225 4.70025,16.1321 17.02059,16.1321 15.78631,0 32.35582,-15.0788 32.35582,-30.6843 0,-10.4775 -7.59637,-16.3261 -17.02059,-16.3261 -14.74166,0 -32.35582,14.5522 -32.35582,30.8783"
     id="path212"
     style="stroke-width:1.64169" />
  <path
     class="Note"
     d="m 1051.0855,1307.6267 c 0,7.6226 4.7003,16.1322 17.0206,16.1322 15.7863,0 32.3558,-15.0789 32.3558,-30.6843 0,-10.4775 -7.5963,-16.3261 -17.0206,-16.3261 -14.7416,0 -32.3558,14.5521 -32.3558,30.8782"
     id="path214"
     style="stroke-width:1.64169" />
  <path
     class="Note"
     d="m 3647.11,1108.0546 c 0,7.6225 4.7003,16.1321 17.0206,16.1321 15.7862,0 32.3558,-15.0788 32.3558,-30.6843 0,-10.4775 -7.5963,-16.326 -17.0206,-16.326 -14.7417,0 -32.3558,14.5521 -32.3558,30.8782"
     id="path216"
     style="stroke-width:1.64169" />
  <path
     class="Note"
     d="m 2928.2575,2460.714 c 0,7.6225 4.7002,16.1321 17.0206,16.1321 15.7862,0 32.3558,-15.0788 32.3558,-30.6843 0,-10.4775 -7.5964,-16.3261 -17.0206,-16.3261 -14.7417,0 -32.3558,14.5522 -32.3558,30.8783"
     id="path218"
     style="stroke-width:1.64169" />
  <path
     class="Note"
     d="m 3241.5925,1108.0546 c 0,7.6225 4.7002,16.1321 17.0206,16.1321 15.7862,0 32.3558,-15.0788 32.3558,-30.6843 0,-10.4775 -7.5964,-16.326 -17.0206,-16.326 -14.7417,0 -32.3558,14.5521 -32.3558,30.8782"
     id="path220"
     style="stroke-width:1.64169" />
  <path
     class="Note"
     d="m 3849.8688,1108.0546 c 0,7.6225 4.7003,16.1321 17.0206,16.1321 15.7862,0 32.3558,-15.0788 32.3558,-30.6843 0,-10.4775 -7.5964,-16.326 -17.0206,-16.326 -14.7417,0 -32.3558,14.5521 -32.3558,30.8782"
     id="path222"
     style="stroke-width:1.64169" />
  <path
     class="Note"
     d="m 2984.5258,1174.5786 c 0,7.6226 4.7002,16.1321 17.0206,16.1321 15.7862,0 32.3558,-15.0788 32.3558,-30.6842 0,-10.4775 -7.5964,-16.3261 -17.0206,-16.3261 -14.7418,0 -32.3558,14.5521 -32.3558,30.8782"
     id="path224"
     style="stroke-width:1.64169" />
  <path
     class="Note"
     d="m 3112.3776,2460.714 c 0,7.6225 4.7002,16.1321 17.0206,16.1321 15.7862,0 32.3558,-15.0788 32.3558,-30.6843 0,-10.4775 -7.5964,-16.3261 -17.0206,-16.3261 -14.7417,0 -32.3558,14.5522 -32.3558,30.8783"
     id="path226"
     style="stroke-width:1.64169" />
  <path
     class="Note"
     d="m 2781.767,1174.5786 c 0,7.6226 4.7002,16.1321 17.0206,16.1321 15.7862,0 32.3558,-15.0788 32.3558,-30.6842 0,-10.4775 -7.5964,-16.3261 -17.0206,-16.3261 -14.7417,0 -32.3558,14.5521 -32.3558,30.8782"
     id="path228"
     style="stroke-width:1.64169" />
  <path
     class="Note"
     d="m 1253.8428,1307.6267 c 0,7.6226 4.7002,16.1322 17.0205,16.1322 15.7864,0 32.3559,-15.0789 32.3559,-30.6843 0,-10.4775 -7.5964,-16.3261 -17.0206,-16.3261 -14.7417,0 -32.3558,14.5521 -32.3558,30.8782"
     id="path230"
     style="stroke-width:1.64169" />
  <path
     class="Note"
     d="m 2579.0082,1174.5786 c 0,7.6226 4.7003,16.1321 17.0206,16.1321 15.7862,0 32.3558,-15.0788 32.3558,-30.6842 0,-10.4775 -7.5964,-16.3261 -17.0206,-16.3261 -14.7417,0 -32.3558,14.5521 -32.3558,30.8782"
     id="path232"
     style="stroke-width:1.64169" />
  <path
     class="Note"
     d="m 555.77916,2283.3165 c 0,7.6225 4.70025,16.1321 17.02059,16.1321 15.78631,0 32.35582,-15.0788 32.35582,-30.6843 0,-10.4775 -7.59637,-16.3261 -17.02059,-16.3261 -14.74166,0 -32.35582,14.5522 -32.35582,30.8783"
     id="path234"
     style="stroke-width:1.64169" />
  <path
     class="Note"
     d="m 2744.1221,2460.714 c 0,7.6225 4.7002,16.1321 17.0206,16.1321 15.7862,0 32.3558,-15.0788 32.3558,-30.6843 0,-10.4775 -7.5964,-16.3261 -17.0206,-16.3261 -14.7417,0 -32.3558,14.5522 -32.3558,30.8783"
     id="path236"
     style="stroke-width:1.64169" />
  <path
     class="Note"
     d="m 739.90692,2283.3165 c 0,7.6225 4.70025,16.1321 17.02059,16.1321 15.78631,0 32.35582,-15.0788 32.35582,-30.6843 0,-10.4775 -7.59637,-16.3261 -17.02059,-16.3261 -14.74166,0 -32.35582,14.5522 -32.35582,30.8783"
     id="path238"
     style="stroke-width:1.64169" />
  <path
     class="Note"
     d="m 3628.1551,2495.6668 c -20.9613,0 -28.4152,12.4178 -28.4152,23.9487 0,11.5308 7.4539,23.9486 28.4152,23.9486 20.9612,0 28.249,-12.4178 28.249,-23.9486 0,-11.5309 -7.2878,-23.9487 -28.249,-23.9487 m 7.7388,41.1341 c -1.8279,0.7206 -4.2492,1.081 -6.5281,1.081 -4.2493,0 -7.1454,-1.4137 -9.1157,-5.8486 -1.9703,-4.4349 -4.7002,-15.7995 -4.8664,-20.5947 -0.3086,-4.7953 1.2107,-7.6226 4.8664,-9.0362 1.8279,-0.7207 4.2492,-1.081 6.5281,-1.081 4.2493,0 7.0029,1.081 9.1157,5.8763 2.1365,4.7675 4.8664,16.132 4.8664,20.567 0,4.6012 -1.2107,7.8166 -4.8664,9.0362"
     id="path240"
     style="stroke-width:1.64169" />
  <path
     class="Note"
     d="m 2376.2494,1174.5786 c 0,7.6226 4.7003,16.1321 17.0206,16.1321 15.7863,0 32.3558,-15.0788 32.3558,-30.6842 0,-10.4775 -7.5963,-16.3261 -17.0206,-16.3261 -14.7417,0 -32.3558,14.5521 -32.3558,30.8782"
     id="path242"
     style="stroke-width:1.64169" />
  <path
     class="Note"
     d="m 924.03468,2283.3165 c 0,7.6225 4.70025,16.1321 17.02062,16.1321 15.7863,0 32.3558,-15.0788 32.3558,-30.6843 0,-10.4775 -7.5964,-16.3261 -17.0206,-16.3261 -14.7417,0 -32.35582,14.5522 -32.35582,30.8783"
     id="path244"
     style="stroke-width:1.64169" />
  <path
     class="Note"
     d="m 848.32826,1307.6267 c 0,7.6226 4.70026,16.1322 17.02059,16.1322 15.78632,0 32.35583,-15.0789 32.35583,-30.6843 0,-10.4775 -7.59638,-16.3261 -17.02059,-16.3261 -14.74166,0 -32.35583,14.5521 -32.35583,30.8782"
     id="path246"
     style="stroke-width:1.64169" />
  <path
     class="Clef"
     d="m 433.65604,1227.7978 c 0,-6.5692 -5.15124,-9.3964 -10.16014,-9.3964 -6.38566,0 -12.62897,4.6012 -12.62897,12.5841 0,3.3817 1.06821,5.8763 3.20476,8.3432 -3.9644,1.7739 -7.90508,5.3219 -7.90508,10.8379 0,5.8486 4.55783,9.7568 11.25219,9.7568 8.18981,0 13.95833,-5.3219 13.95833,-12.9721 0,-4.0747 -1.51927,-7.4286 -4.24925,-9.7569 4.41547,-2.3007 6.52816,-5.1279 6.52816,-9.3966 m -15.19274,28.3836 c -3.32341,0 -5.60232,-2.4669 -5.60232,-6.2089 0,-3.5479 1.35307,-6.3751 3.94055,-8.1491 0.61727,0.3603 0.75964,0.3603 1.21071,0.6929 1.82784,1.0811 1.82784,1.0811 2.13655,1.4414 2.87233,1.9403 4.10674,3.7143 4.10674,6.2089 0,3.3539 -2.44511,6.0148 -5.79223,6.0148 m 5.79223,-21.2877 c -2.27891,-1.4135 -2.89617,-1.7739 -3.3471,-2.1342 l -0.30871,-0.1662 c -2.27891,-1.6077 -3.03855,-2.855 -3.03855,-4.9616 0,-3.2153 2.13654,-5.516 5.17509,-5.516 2.87235,0 4.70019,2.1343 4.70019,5.8486 0,2.8551 -0.90201,4.7952 -3.18092,6.9295 m 42.37348,-134.6558 c 0,-26.776 -16.26095,-44.876 -38.43292,-44.876 -1.51928,-10.6439 -2.89606,-21.1215 -4.24911,-31.0446 15.95238,-19.7078 27.18071,-42.04872 27.18071,-70.07201 0,-16.15984 -4.24925,-29.27059 -6.83673,-35.67287 -3.63197,-9.03663 -8.04743,-15.24554 -10.63492,-15.24554 -1.0445,0 -5.91088,2.1341 -10.77741,9.03663 -9.87528,13.49818 -12.60512,36.00548 -12.60512,50.91787 0,9.59064 0.75964,18.26645 3.3471,38.33452 -0.1662,0 -8.07114,9.3966 -11.25218,12.5842 -13.83953,14.9125 -32.97297,36.5328 -32.97297,71.846 0,33.3453 24.75945,59.4282 53.03224,59.4282 4.39161,0 8.49837,-0.5267 12.1542,-1.2473 2.72983,16.8804 4.55782,29.4645 4.55782,38.8611 0,18.4605 -8.21365,28.2173 -23.54875,28.2173 -3.65583,0 -6.83674,-0.8869 -7.14545,-1.081 -0.14243,0 -0.45092,-0.1663 -0.45092,-0.3327 0,-0.3602 0.30855,-0.5543 0.75963,-0.7207 7.1453,-1.2473 14.26689,-8.5094 14.26689,-19.68 0,-9.5906 -6.21959,-19.7077 -17.61414,-19.7077 -10.63492,0 -17.32916,10.1171 -17.32916,21.8143 0,11.725 7.59637,27.164 28.10657,27.164 19.60807,0 29.17478,-12.9722 29.17478,-35.6735 0,-6.9019 -0.90199,-14.8848 -2.42127,-25.0019 -0.45108,-3.548 -1.21071,-9.064 -2.27891,-15.7996 14.88403,-5.8486 25.97002,-23.7822 25.97002,-42.0487 M 419.84008,954.77207 c 1.51928,-7.0959 8.35601,-25.72263 16.26109,-25.72263 2.27891,0 6.0771,8.50941 6.0771,20.92723 0,18.26645 -11.84564,32.12563 -22.33819,44.34937 -0.90201,-7.0959 -1.66164,-14.1918 -1.66164,-21.45392 0,-6.73559 0.59343,-12.61189 1.66164,-18.10005 m 4.55782,183.44003 c -21.72076,0 -40.26073,-17.7397 -40.26073,-44.5434 0,-21.6204 13.05629,-40.9677 26.4449,-54.6328 2.56377,-2.4947 5.0089,-4.9616 7.28781,-7.6226 1.35306,9.5628 2.42127,17.7398 3.48948,25.196 -13.83954,4.6013 -23.24004,21.8143 -23.24004,38.3068 0,12.6118 8.356,29.6309 20.5102,29.6309 1.21056,0 2.58746,-0.7206 2.58746,-2.4946 0,-1.4137 -1.3769,-2.467 -3.3471,-3.8806 -5.93474,-4.1023 -9.28186,-8.8699 -9.28186,-17.4072 0,-10.8101 7.00295,-19.5138 15.80988,-21.9807 l 8.80708,58.1809 c -3.03855,0.7208 -5.76853,1.2473 -8.80708,1.2473 m 15.19275,-3.3816 c -3.18092,-21.0937 -7.28767,-49.311 -8.35601,-57.1276 15.33523,0 21.8871,12.4179 23.24018,20.9551 0.1662,1.4137 0.45106,3.354 0.45106,5.4883 0,12.7781 -4.55782,25.5564 -15.33523,30.6842"
     id="path248"
     style="stroke-width:1.64169" />
  <path
     class="Clef"
     d="m 243.74677,2447.4092 c 0,-6.5693 -5.15124,-9.3966 -10.16015,-9.3966 -6.38565,0 -12.62896,4.6013 -12.62896,12.5842 0,3.3816 1.06821,5.8763 3.20476,8.3432 -3.9644,1.774 -7.90508,5.3219 -7.90508,10.8379 0,5.8485 4.55783,9.7568 11.25219,9.7568 8.1898,0 13.95833,-5.3219 13.95833,-12.9722 0,-4.0746 -1.51927,-7.4285 -4.24925,-9.7568 4.41547,-2.3006 6.52816,-5.1279 6.52816,-9.3965 m -15.19274,28.3836 c -3.32341,0 -5.60232,-2.467 -5.60232,-6.209 0,-3.5479 1.35307,-6.3752 3.94055,-8.1492 0.61727,0.3604 0.75964,0.3604 1.2107,0.693 1.82785,1.081 1.82785,1.081 2.13656,1.4414 2.87233,1.9402 4.10674,3.7142 4.10674,6.2089 0,3.3539 -2.44511,6.0149 -5.79223,6.0149 m 5.79223,-21.2877 c -2.27891,-1.4137 -2.89618,-1.774 -3.3471,-2.1344 l -0.30871,-0.1663 c -2.27891,-1.6076 -3.03855,-2.855 -3.03855,-4.9615 0,-3.2154 2.13654,-5.516 5.17509,-5.516 2.87234,0 4.70019,2.1343 4.70019,5.8486 0,2.855 -0.90201,4.7952 -3.18092,6.9296 m 42.37348,-134.6558 c 0,-26.776 -16.26095,-44.876 -38.43292,-44.876 -1.51928,-10.6439 -2.89606,-21.1214 -4.24911,-31.0446 15.95237,-19.7078 27.18071,-42.0487 27.18071,-70.072 0,-16.1598 -4.24925,-29.2706 -6.83673,-35.6728 -3.63197,-9.0367 -8.04744,-15.2456 -10.63492,-15.2456 -1.0445,0 -5.91088,2.1341 -10.77741,9.0367 -9.87528,13.4981 -12.60512,36.0054 -12.60512,50.9179 0,9.5905 0.75963,18.2664 3.3471,38.3345 -0.1662,0 -8.07114,9.3965 -11.25218,12.5841 -13.83953,14.9125 -32.97297,36.5328 -32.97297,71.846 0,33.3452 24.75945,59.4281 53.03224,59.4281 4.39161,0 8.49836,-0.5266 12.15419,-1.2473 2.72984,16.8805 4.55783,29.4646 4.55783,38.8612 0,18.4604 -8.21366,28.2172 -23.54875,28.2172 -3.65583,0 -6.83674,-0.8869 -7.14545,-1.081 -0.14243,0 -0.45092,-0.1663 -0.45092,-0.3326 0,-0.3603 0.30855,-0.5544 0.75963,-0.7207 7.14529,-1.2473 14.26689,-8.5095 14.26689,-19.68 0,-9.5906 -6.21959,-19.7078 -17.61414,-19.7078 -10.63492,0 -17.32916,10.1172 -17.32916,21.8144 0,11.7249 7.59637,27.164 28.10657,27.164 19.60807,0 29.17478,-12.9722 29.17478,-35.6735 0,-6.9019 -0.90199,-14.8848 -2.42127,-25.002 -0.45108,-3.548 -1.21072,-9.0639 -2.27891,-15.7995 14.88403,-5.8485 25.97002,-23.7823 25.97002,-42.0487 m -46.78893,-145.466 c 1.51927,-7.0959 8.35601,-25.7226 16.26109,-25.7226 2.27891,0 6.0771,8.5095 6.0771,20.9274 0,18.2664 -11.84564,32.1255 -22.33819,44.3493 -0.90201,-7.0959 -1.66164,-14.1918 -1.66164,-21.454 0,-6.7355 0.59343,-12.6118 1.66164,-18.1001 m 4.55782,183.4401 c -21.72076,0 -40.26073,-17.7397 -40.26073,-44.5434 0,-21.6203 13.05629,-40.9677 26.44489,-54.6329 2.56378,-2.4946 5.00891,-4.9615 7.28782,-7.6225 1.35306,9.5628 2.42127,17.7397 3.48947,25.196 -13.83953,4.6012 -23.24004,21.8143 -23.24004,38.3068 0,12.6118 8.35601,29.6309 20.51021,29.6309 1.21056,0 2.58746,-0.7207 2.58746,-2.4947 0,-1.4136 -1.3769,-2.4669 -3.3471,-3.8805 -5.93474,-4.1024 -9.28186,-8.8699 -9.28186,-17.4072 0,-10.8101 7.00295,-19.5137 15.80988,-21.9806 l 8.80708,58.1808 c -3.03855,0.7207 -5.76853,1.2473 -8.80708,1.2473 m 15.19274,-3.3816 c -3.18091,-21.0937 -7.28766,-49.311 -8.356,-57.1275 15.33523,0 21.8871,12.4178 23.24017,20.955 0.16621,1.4137 0.45107,3.354 0.45107,5.4883 0,12.7781 -4.55782,25.5563 -15.33524,30.6842"
     id="path250"
     style="stroke-width:1.64169" />
  <path
     class="Fingering"
     d="m 3323.2688,2115.2726 -11.1495,1.073 -0.2451,2.593 h 1.4703 c 2.5117,0 3.4919,0.6438 3.4919,2.1996 0,0.6974 -0.1685,1.7167 -0.5514,3.1652 l -7.8261,31.0088 c -1.2405,5.1682 -1.2865,5.2218 -5.4522,5.4543 l -0.2757,2.5751 h 14.718 l 0.245,-2.5751 h -0.7351 c -2.9559,0 -3.936,-0.4292 -3.936,-1.8777 0,-0.5544 0.2756,-1.7883 0.7045,-3.5766 l 2.9864,-11.6417 c 1.6541,4.9357 3.2469,6.2769 7.3054,6.2769 9.8937,0 15.9126,-12.5716 15.9126,-23.0152 0,-3.505 -0.5973,-5.8656 -2.0216,-7.94 -1.5928,-2.289 -4.0433,-3.7196 -6.4325,-3.7196 -3.1396,0 -6.3711,2.1459 -9.1125,6.098 l 0.9036,-6.098 m 6.3252,3.809 c 2.7414,0 4.5946,2.4858 4.5946,6.2769 0,3.9521 -1.0568,8.7984 -2.8946,13.2154 -2.1442,5.3649 -4.5946,7.7969 -7.8261,7.7969 -3.0171,0 -5.146,-2.7539 -5.146,-6.563 0,-6.4199 4.3189,-20.7262 11.2721,-20.7262"
     id="path256"
     style="stroke-width:1.65493" />
  <path
     class="Fingering"
     d="m 3268.3482,895.66845 -11.1495,1.06045 -0.2297,2.59837 h 1.4549 c 2.5117,0 3.4919,0.64378 3.4919,2.20853 0,0.69743 -0.1684,1.70423 -0.5513,3.15632 l -7.8261,31.01594 c -1.2406,5.16992 -1.2865,5.22536 -5.4523,5.4489 l -0.2603,2.57155 h 14.7179 l 0.2298,-2.57155 h -0.7352 c -2.9405,0 -3.9207,-0.41846 -3.9207,-1.87233 0,-0.55795 0.2604,-1.78828 0.6892,-3.57657 l 2.9865,-11.65065 c 1.654,4.9446 3.2622,6.28581 7.3054,6.28581 9.909,0 15.9125,-12.5734 15.9125,-23.02412 0,-3.49251 -0.5973,-5.86735 -2.0063,-7.9346 -1.6081,-2.29258 -4.0432,-3.71605 -6.4477,-3.71605 -3.1243,0 -6.3558,2.1513 -9.1126,6.09089 l 0.9036,-6.09089 m 6.3252,3.8001 c 2.7568,0 4.5946,2.48571 4.5946,6.28581 0,3.93958 -1.0567,8.80192 -2.8946,13.21718 -2.1288,5.36484 -4.5945,7.79512 -7.8261,7.79512 -3.0171,0 -5.1459,-2.76647 -5.1459,-6.56657 0,-6.42529 4.3342,-20.73154 11.272,-20.73154"
     id="path258"
     style="stroke-width:1.65493" />
  <path
     class="Fingering"
     d="m 3011.2815,895.66845 -11.1495,1.06045 -0.245,2.59837 h 1.4702 c 2.5117,0 3.4919,0.64378 3.4919,2.20853 0,0.69743 -0.1684,1.70423 -0.5513,3.15632 l -7.8261,31.01594 c -1.2406,5.16992 -1.2865,5.22536 -5.4523,5.4489 l -0.2603,2.57155 h 14.7026 l 0.2451,-2.57155 h -0.7352 c -2.9558,0 -3.936,-0.41846 -3.936,-1.87233 0,-0.55795 0.2757,-1.78828 0.7045,-3.57657 l 2.9865,-11.65065 c 1.654,4.9446 3.2621,6.28581 7.3054,6.28581 9.8936,0 15.9125,-12.5734 15.9125,-23.02412 0,-3.49251 -0.5973,-5.86735 -2.0216,-7.9346 -1.5928,-2.29258 -4.0432,-3.71605 -6.4324,-3.71605 -3.1396,0 -6.3711,2.1513 -9.1126,6.09089 l 0.9036,-6.09089 m 6.3252,3.8001 c 2.7415,0 4.5946,2.48571 4.5946,6.28581 0,3.93958 -1.0567,8.80192 -2.8946,13.21718 -2.1288,5.36484 -4.5946,7.79512 -7.8261,7.79512 -3.0171,0 -5.1459,-2.76647 -5.1459,-6.56657 0,-6.42529 4.3342,-20.73154 11.272,-20.73154"
     id="path260"
     style="stroke-width:1.65493" />
  <path
     class="Fingering"
     d="m 2808.5228,895.66845 -11.1496,1.06045 -0.2297,2.59837 h 1.455 c 2.5117,0 3.4918,0.64378 3.4918,2.20853 0,0.69743 -0.1684,1.70423 -0.5513,3.15632 l -7.8261,31.01594 c -1.2405,5.16992 -1.2865,5.22536 -5.4522,5.4489 l -0.2604,2.57155 h 14.718 l 0.2297,-2.57155 h -0.7351 c -2.9406,0 -3.9207,-0.41846 -3.9207,-1.87233 0,-0.55795 0.2603,-1.78828 0.6891,-3.57657 l 2.9865,-11.65065 c 1.6541,4.9446 3.2622,6.28581 7.3054,6.28581 9.909,0 15.9126,-12.5734 15.9126,-23.02412 0,-3.49251 -0.5973,-5.86735 -2.0063,-7.9346 -1.6081,-2.29258 -4.0586,-3.71605 -6.4478,-3.71605 -3.1243,0 -6.3558,2.1513 -9.1125,6.09089 l 0.9036,-6.09089 m 6.3252,3.8001 c 2.7414,0 4.5945,2.48571 4.5945,6.28581 0,3.93958 -1.0567,8.80192 -2.8946,13.21718 -2.1288,5.36484 -4.5945,7.79512 -7.826,7.79512 -3.0172,0 -5.146,-2.76647 -5.146,-6.56657 0,-6.42529 4.3342,-20.73154 11.2721,-20.73154"
     id="path262"
     style="stroke-width:1.65493" />
  <path
     class="Fingering"
     d="m 3139.1487,2115.2726 -11.1649,1.073 -0.2297,2.593 h 1.455 c 2.5117,0 3.4918,0.6438 3.4918,2.1996 0,0.6974 -0.1684,1.7167 -0.5513,3.1652 l -7.8261,31.0088 c -1.2405,5.1682 -1.2865,5.2218 -5.4522,5.4543 l -0.2604,2.5751 h 14.718 l 0.245,-2.5751 h -0.7504 c -2.9406,0 -3.9207,-0.4292 -3.9207,-1.8777 0,-0.5544 0.2603,-1.7883 0.6891,-3.5766 l 2.9865,-11.6417 c 1.6541,4.9357 3.2622,6.2769 7.3054,6.2769 9.909,0 15.9126,-12.5716 15.9126,-23.0152 0,-3.505 -0.5973,-5.8656 -2.0063,-7.94 -1.6081,-2.289 -4.0433,-3.7196 -6.4325,-3.7196 -3.1396,0 -6.3711,2.1459 -9.1278,6.098 l 0.9189,-6.098 m 6.3099,3.809 c 2.7567,0 4.5945,2.4858 4.5945,6.2769 0,3.9521 -1.0567,8.7984 -2.8946,13.2154 -2.1288,5.3649 -4.5945,7.7969 -7.8261,7.7969 -3.0171,0 -5.1459,-2.7539 -5.1459,-6.563 0,-6.4199 4.3342,-20.7262 11.2721,-20.7262"
     id="path264"
     style="stroke-width:1.65493" />
  <path
     class="Fingering"
     d="m 2605.764,895.66845 -11.1495,1.06045 -0.2298,2.59837 h 1.455 c 2.5117,0 3.4919,0.64378 3.4919,2.20853 0,0.69743 -0.1685,1.70423 -0.5514,3.15632 l -7.8261,31.01594 c -1.2405,5.16992 -1.2865,5.22536 -5.4522,5.4489 l -0.2604,2.57155 h 14.718 l 0.2297,-2.57155 h -0.7351 c -2.9405,0 -3.9207,-0.41846 -3.9207,-1.87233 0,-0.55795 0.2603,-1.78828 0.6892,-3.57657 l 2.9864,-11.65065 c 1.6541,4.9446 3.2622,6.28581 7.3054,6.28581 9.909,0 15.9126,-12.5734 15.9126,-23.02412 0,-3.49251 -0.5973,-5.86735 -2.0063,-7.9346 -1.6081,-2.29258 -4.0432,-3.71605 -6.4477,-3.71605 -3.1244,0 -6.3559,2.1513 -9.1126,6.09089 l 0.9036,-6.09089 m 6.3252,3.8001 c 2.7567,0 4.5946,2.48571 4.5946,6.28581 0,3.93958 -1.0568,8.80192 -2.8946,13.21718 -2.1288,5.36484 -4.5946,7.79512 -7.8261,7.79512 -3.0171,0 -5.146,-2.76647 -5.146,-6.56657 0,-6.42529 4.3343,-20.73154 11.2721,-20.73154"
     id="path266"
     style="stroke-width:1.65493" />
  <path
     class="Fingering"
     d="m 2403.0205,895.66845 -11.1648,1.06045 -0.2297,2.59837 h 1.4549 c 2.5117,0 3.4919,0.64378 3.4919,2.20853 0,0.69743 -0.1685,1.70423 -0.5514,3.15632 l -7.8261,31.01594 c -1.2405,5.16992 -1.2864,5.22536 -5.4522,5.4489 l -0.2604,2.57155 h 14.718 l 0.2297,-2.57155 h -0.7351 c -2.9405,0 -3.9207,-0.41846 -3.9207,-1.87233 0,-0.55795 0.2604,-1.78828 0.6892,-3.57657 l 2.9865,-11.65065 c 1.654,4.9446 3.2621,6.28581 7.3053,6.28581 9.909,0 15.9126,-12.5734 15.9126,-23.02412 0,-3.49251 -0.5973,-5.86735 -2.0063,-7.9346 -1.6081,-2.29258 -4.0432,-3.71605 -6.4477,-3.71605 -3.1243,0 -6.3559,2.1513 -9.1126,6.09089 l 0.9189,-6.09089 m 6.3099,3.8001 c 2.7567,0 4.5946,2.48571 4.5946,6.28581 0,3.93958 -1.0568,8.80192 -2.8946,13.21718 -2.1288,5.36484 -4.5946,7.79512 -7.8261,7.79512 -3.0171,0 -5.1459,-2.76647 -5.1459,-6.56657 0,-6.42529 4.3342,-20.73154 11.272,-20.73154"
     id="path268"
     style="stroke-width:1.65493" />
  <path
     class="Fingering"
     d="m 2145.9385,895.66845 -11.1495,1.06045 -0.2451,2.59837 h 1.4703 c 2.5117,0 3.4919,0.64378 3.4919,2.20853 0,0.69743 -0.1685,1.70423 -0.5514,3.15632 l -7.8261,31.01594 c -1.2405,5.16992 -1.2864,5.22536 -5.4522,5.4489 l -0.2604,2.57155 h 14.718 l 0.2297,-2.57155 h -0.7351 c -2.9405,0 -3.936,-0.41846 -3.936,-1.87233 0,-0.55795 0.2757,-1.78828 0.7045,-3.57657 l 2.9865,-11.65065 c 1.654,4.9446 3.2621,6.28581 7.3053,6.28581 9.909,0 15.9126,-12.5734 15.9126,-23.02412 0,-3.49251 -0.5973,-5.86735 -2.0216,-7.9346 -1.5928,-2.29258 -4.0432,-3.71605 -6.4324,-3.71605 -3.1397,0 -6.3559,2.1513 -9.1126,6.09089 l 0.9036,-6.09089 m 6.3252,3.8001 c 2.7414,0 4.5946,2.48571 4.5946,6.28581 0,3.93958 -1.0568,8.80192 -2.8946,13.21718 -2.1288,5.36484 -4.5946,7.79512 -7.8261,7.79512 -3.0171,0 -5.1459,-2.76647 -5.1459,-6.56657 0,-6.42529 4.3342,-20.73154 11.272,-20.73154"
     id="path270"
     style="stroke-width:1.65493" />
  <path
     class="Fingering"
     d="m 1943.1797,895.66845 -11.1495,1.06045 -0.2297,2.59837 h 1.4549 c 2.5117,0 3.4919,0.64378 3.4919,2.20853 0,0.69743 -0.1685,1.70423 -0.5513,3.15632 l -7.8261,31.01594 c -1.2406,5.16992 -1.2865,5.22536 -5.4523,5.4489 l -0.2603,2.57155 h 14.7179 l 0.2298,-2.57155 h -0.7352 c -2.9405,0 -3.9207,-0.41846 -3.9207,-1.87233 0,-0.55795 0.2604,-1.78828 0.6892,-3.57657 l 2.9865,-11.65065 c 1.654,4.9446 3.2621,6.28581 7.3054,6.28581 9.9089,0 15.9125,-12.5734 15.9125,-23.02412 0,-3.49251 -0.5973,-5.86735 -2.0063,-7.9346 -1.6081,-2.29258 -4.0432,-3.71605 -6.4477,-3.71605 -3.1243,0 -6.3558,2.1513 -9.1126,6.09089 l 0.9036,-6.09089 m 6.3252,3.8001 c 2.7568,0 4.5946,2.48571 4.5946,6.28581 0,3.93958 -1.0568,8.80192 -2.8946,13.21718 -2.1288,5.36484 -4.5946,7.79512 -7.8261,7.79512 -3.0171,0 -5.1459,-2.76647 -5.1459,-6.56657 0,-6.42529 4.3342,-20.73154 11.272,-20.73154"
     id="path272"
     style="stroke-width:1.65493" />
  <path
     class="Fingering"
     d="m 1980.0589,2115.2726 -11.1495,1.073 -0.2451,2.593 h 1.4703 c 2.5117,0 3.4919,0.6438 3.4919,2.1996 0,0.6974 -0.1685,1.7167 -0.5514,3.1652 l -7.8261,31.0088 c -1.2405,5.1682 -1.2865,5.2218 -5.4522,5.4543 l -0.2604,2.5751 h 14.7027 l 0.245,-2.5751 h -0.7351 c -2.9559,0 -3.936,-0.4292 -3.936,-1.8777 0,-0.5544 0.2756,-1.7883 0.7045,-3.5766 l 2.9864,-11.6417 c 1.6541,4.9357 3.2622,6.2769 7.3054,6.2769 9.8937,0 15.9126,-12.5716 15.9126,-23.0152 0,-3.505 -0.5973,-5.8656 -2.0216,-7.94 -1.5928,-2.289 -4.0433,-3.7196 -6.4324,-3.7196 -3.1397,0 -6.3712,2.1459 -9.1126,6.098 l 0.9036,-6.098 m 6.3252,3.809 c 2.7414,0 4.5946,2.4858 4.5946,6.2769 0,3.9521 -1.0568,8.7984 -2.8946,13.2154 -2.1289,5.3649 -4.5946,7.7969 -7.8261,7.7969 -3.0171,0 -5.146,-2.7539 -5.146,-6.563 0,-6.4199 4.3343,-20.7262 11.2721,-20.7262"
     id="path274"
     style="stroke-width:1.65493" />
  <path
     class="Fingering"
     d="m 1740.4209,895.66845 -11.1495,1.06045 -0.2297,2.59837 h 1.4549 c 2.5118,0 3.4919,0.64378 3.4919,2.20853 0,0.69743 -0.1684,1.70423 -0.5513,3.15632 l -7.8261,31.01594 c -1.2406,5.16992 -1.2865,5.22536 -5.4523,5.4489 l -0.2603,2.57155 h 14.718 l 0.2297,-2.57155 h -0.7351 c -2.9406,0 -3.9208,-0.41846 -3.9208,-1.87233 0,-0.55795 0.2604,-1.78828 0.6892,-3.57657 l 2.9865,-11.65065 c 1.6541,4.9446 3.2622,6.28581 7.3054,6.28581 9.909,0 15.9125,-12.5734 15.9125,-23.02412 0,-3.49251 -0.5972,-5.86735 -2.0063,-7.9346 -1.6081,-2.29258 -4.0432,-3.71605 -6.4477,-3.71605 -3.1243,0 -6.3558,2.1513 -9.1126,6.09089 l 0.9036,-6.09089 m 6.3252,3.8001 c 2.7568,0 4.5946,2.48571 4.5946,6.28581 0,3.93958 -1.0567,8.80192 -2.8946,13.21718 -2.1288,5.36484 -4.5945,7.79512 -7.8261,7.79512 -3.0171,0 -5.1459,-2.76647 -5.1459,-6.56657 0,-6.42529 4.3342,-20.73154 11.272,-20.73154"
     id="path276"
     style="stroke-width:1.65493" />
  <path
     class="Fingering"
     d="m 1537.6775,895.66845 -11.1648,1.06045 -0.2298,2.59837 h 1.455 c 2.5117,0 3.4919,0.64378 3.4919,2.20853 0,0.69743 -0.1685,1.70423 -0.5514,3.15632 l -7.8261,31.01594 c -1.2405,5.16992 -1.2865,5.22536 -5.4522,5.4489 l -0.2604,2.57155 h 14.718 l 0.245,-2.57155 h -0.7504 c -2.9406,0 -3.9207,-0.41846 -3.9207,-1.87233 0,-0.55795 0.2603,-1.78828 0.6892,-3.57657 l 2.9864,-11.65065 c 1.6541,4.9446 3.2622,6.28581 7.3054,6.28581 9.909,0 15.9126,-12.5734 15.9126,-23.02412 0,-3.49251 -0.5973,-5.86735 -2.0063,-7.9346 -1.6081,-2.29258 -4.0433,-3.71605 -6.4324,-3.71605 -3.1397,0 -6.3712,2.1513 -9.1279,6.09089 l 0.9189,-6.09089 m 6.3099,3.8001 c 2.7567,0 4.5945,2.48571 4.5945,6.28581 0,3.93958 -1.0567,8.80192 -2.8945,13.21718 -2.1289,5.36484 -4.5946,7.79512 -7.8261,7.79512 -3.0171,0 -5.146,-2.76647 -5.146,-6.56657 0,-6.42529 4.3343,-20.73154 11.2721,-20.73154"
     id="path278"
     style="stroke-width:1.65493" />
  <path
     class="Fingering"
     d="m 639.29789,857.0988 -11.15105,1.06045 -0.23891,2.59838 h 1.45954 c 2.5117,0 3.49341,0.64378 3.49341,2.20852 0,0.69743 -0.16693,1.70424 -0.54982,3.15632 l -7.8261,31.01595 c -1.2436,5.16992 -1.2926,5.22535 -5.45529,5.44889 l -0.26343,2.57155 h 14.71644 l 0.23892,-2.57155 h -0.74126 c -2.94359,0 -3.92377,-0.41846 -3.92377,-1.87233 0,-0.55794 0.26189,-1.78828 0.69378,-3.57656 l 2.99107,-11.65065 c 1.65099,4.94459 3.2545,6.2858 7.29773,6.2858 9.90744,0 15.91409,-12.5734 15.91409,-23.02411 0,-3.49252 -0.59883,-5.86736 -2.00937,-7.93461 -1.6035,-2.29257 -4.04476,-3.71605 -6.43853,-3.71605 -3.13351,0 -6.36503,2.15131 -9.11718,6.09089 l 0.90973,-6.09089 m 6.31754,3.8001 c 2.75216,0 4.59458,2.48571 4.59458,6.28581 0,3.93958 -1.05216,8.80192 -2.89611,13.21718 -2.12883,5.36485 -4.59458,7.79512 -7.82457,7.79512 -3.01558,0 -5.1444,-2.76647 -5.1444,-6.56657 0,-6.42529 4.33116,-20.73154 11.2705,-20.73154"
     id="path280"
     style="stroke-width:1.65493" />
  <path
     class="Fingering"
     d="m 1280.6001,895.66845 -11.1511,1.06045 -0.2389,2.59837 h 1.4595 c 2.5133,0 3.4934,0.64378 3.4934,2.20853 0,0.69743 -0.1669,1.70423 -0.5498,3.15632 l -7.8261,31.01594 c -1.2436,5.16992 -1.291,5.22536 -5.4553,5.4489 l -0.2634,2.57155 h 14.7164 l 0.2405,-2.57155 h -0.7428 c -2.9436,0 -3.9238,-0.41846 -3.9238,-1.87233 0,-0.55795 0.2635,-1.78828 0.6938,-3.57657 l 2.9911,-11.65065 c 1.651,4.9446 3.2545,6.28581 7.2992,6.28581 9.906,0 15.9126,-12.5734 15.9126,-23.02412 0,-3.49251 -0.5973,-5.86735 -2.0094,-7.9346 -1.6035,-2.29258 -4.0447,-3.71605 -6.437,-3.71605 -3.135,0 -6.3665,2.1513 -9.1171,6.09089 l 0.9082,-6.09089 m 6.3175,3.8001 c 2.7522,0 4.5946,2.48571 4.5946,6.28581 0,3.93958 -1.0522,8.80192 -2.8946,13.21718 -2.1304,5.36484 -4.5946,7.79512 -7.8261,7.79512 -3.014,0 -5.1444,-2.76647 -5.1444,-6.56657 0,-6.42529 4.3312,-20.73154 11.2705,-20.73154"
     id="path282"
     style="stroke-width:1.65493" />
  <path
     class="Fingering"
     d="m 1077.8443,895.66845 -11.1525,1.06045 -0.239,2.59837 h 1.4596 c 2.5132,0 3.4934,0.64378 3.4934,2.20853 0,0.69743 -0.1669,1.70423 -0.5498,3.15632 l -7.8246,31.01594 c -1.2451,5.16992 -1.2926,5.22536 -5.4568,5.4489 l -0.2634,2.57155 h 14.7179 l 0.239,-2.57155 h -0.7413 c -2.9436,0 -3.9253,-0.41846 -3.9253,-1.87233 0,-0.55795 0.2634,-1.78828 0.6938,-3.57657 l 2.991,-11.65065 c 1.651,4.9446 3.2545,6.28581 7.2993,6.28581 9.9074,0 15.9141,-12.5734 15.9141,-23.02412 0,-3.49251 -0.5988,-5.86735 -2.0109,-7.9346 -1.6035,-2.29258 -4.0448,-3.71605 -6.437,-3.71605 -3.135,0 -6.365,2.1513 -9.1172,6.09089 l 0.9097,-6.09089 m 6.3176,3.8001 c 2.7506,0 4.5946,2.48571 4.5946,6.28581 0,3.93958 -1.0537,8.80192 -2.8962,13.21718 -2.1303,5.36484 -4.5945,7.79512 -7.8245,7.79512 -3.0156,0 -5.1459,-2.76647 -5.1459,-6.56657 0,-6.42529 4.3311,-20.73154 11.272,-20.73154"
     id="path284"
     style="stroke-width:1.65493" />
  <path
     class="Fingering"
     d="m 875.08709,895.66845 -11.15104,1.06045 -0.24045,2.59837 h 1.45955 c 2.51323,0 3.49494,0.64378 3.49494,2.20853 0,0.69743 -0.16847,1.70423 -0.55135,3.15632 l -7.82457,31.01594 c -1.24513,5.16992 -1.29261,5.22536 -5.45683,5.4489 l -0.26189,2.57155 h 14.71644 l 0.23892,-2.57155 h -0.74126 c -2.9436,0 -3.9253,-0.41846 -3.9253,-1.87233 0,-0.55795 0.26342,-1.78828 0.69378,-3.57657 l 2.9926,-11.65065 c 1.65098,4.9446 3.25449,6.28581 7.29772,6.28581 9.90745,0 15.91409,-12.5734 15.91409,-23.02412 0,-3.49251 -0.59882,-5.86735 -2.01089,-7.9346 -1.60351,-2.29258 -4.04323,-3.71605 -6.43701,-3.71605 -3.13503,0 -6.36502,2.1513 -9.11717,6.09089 l 0.90972,-6.09089 m 6.31755,3.8001 c 2.75215,0 4.59458,2.48571 4.59458,6.28581 0,3.93958 -1.05369,8.80192 -2.89612,13.21718 -2.12882,5.36484 -4.59458,7.79512 -7.82457,7.79512 -3.01557,0 -5.14592,-2.76647 -5.14592,-6.56657 0,-6.42529 4.33268,-20.73154 11.27203,-20.73154"
     id="path286"
     style="stroke-width:1.65493" />
  <path
     class="Fingering"
     d="m 3630.156,2115.2726 -11.1495,1.073 -0.245,2.593 h 1.4549 c 2.5117,0 3.4919,0.6438 3.4919,2.1996 0,0.6974 -0.1685,1.7167 -0.5514,3.1652 l -7.8261,31.0088 c -1.2405,5.1682 -1.2864,5.2218 -5.4522,5.4543 l -0.2603,2.5751 h 14.7179 l 0.2451,-2.5751 h -0.7505 c -2.9405,0 -3.9207,-0.4292 -3.9207,-1.8777 0,-0.5544 0.2604,-1.7883 0.6892,-3.5766 l 3.0018,-11.6417 c 1.6387,4.9357 3.2468,6.2769 7.2901,6.2769 9.9089,0 15.9125,-12.5716 15.9125,-23.0152 0,-3.505 -0.5973,-5.8656 -2.0063,-7.94 -1.6081,-2.289 -4.0432,-3.7196 -6.4324,-3.7196 -3.1396,0 -6.3711,2.1459 -9.1279,6.098 l 0.9189,-6.098 m 6.3099,3.809 c 2.7568,0 4.5946,2.4858 4.5946,6.2769 0,3.9521 -1.0568,8.7984 -2.8946,13.2154 -2.1288,5.3649 -4.5946,7.7969 -7.8261,7.7969 -3.0171,0 -5.1459,-2.7539 -5.1459,-6.563 0,-6.4199 4.3342,-20.7262 11.272,-20.7262"
     id="path288"
     style="stroke-width:1.65493" />
  <path
     class="Fingering"
     d="m 2955.0132,2115.2726 -11.1495,1.073 -0.245,2.593 h 1.4703 c 2.5117,0 3.4918,0.6438 3.4918,2.1996 0,0.6974 -0.1684,1.7167 -0.5513,3.1652 l -7.8261,31.0088 c -1.2405,5.1682 -1.2865,5.2218 -5.4522,5.4543 l -0.2757,2.5751 h 14.7179 l 0.2451,-2.5751 h -0.7351 c -2.9559,0 -3.9361,-0.4292 -3.9361,-1.8777 0,-0.5544 0.2757,-1.7883 0.7045,-3.5766 l 2.9865,-11.6417 c 1.6541,4.9357 3.2469,6.2769 7.3054,6.2769 9.8937,0 15.9126,-12.5716 15.9126,-23.0152 0,-3.505 -0.5973,-5.8656 -2.0217,-7.94 -1.5927,-2.289 -4.0432,-3.7196 -6.4324,-3.7196 -3.1396,0 -6.3711,2.1459 -9.1126,6.098 l 0.9036,-6.098 m 6.3253,3.809 c 2.7414,0 4.5945,2.4858 4.5945,6.2769 0,3.9521 -1.0567,8.7984 -2.8946,13.2154 -2.1441,5.3649 -4.5945,7.7969 -7.8261,7.7969 -3.0171,0 -5.1459,-2.7539 -5.1459,-6.563 0,-6.4199 4.3189,-20.7262 11.2721,-20.7262"
     id="path290"
     style="stroke-width:1.65493" />
  <path
     class="Fingering"
     d="m 2164.1943,2115.2726 -11.1495,1.073 -0.2451,2.593 h 1.455 c 2.5117,0 3.4919,0.6438 3.4919,2.1996 0,0.6974 -0.1685,1.7167 -0.5514,3.1652 l -7.8261,31.0088 c -1.2405,5.1682 -1.2865,5.2218 -5.4522,5.4543 l -0.2604,2.5751 h 14.718 l 0.245,-2.5751 h -0.7504 c -2.9405,0 -3.9207,-0.4292 -3.9207,-1.8777 0,-0.5544 0.2603,-1.7883 0.6892,-3.5766 l 3.0018,-11.6417 c 1.6387,4.9357 3.2468,6.2769 7.29,6.2769 9.909,0 15.9126,-12.5716 15.9126,-23.0152 0,-3.505 -0.5973,-5.8656 -2.0063,-7.94 -1.6081,-2.289 -4.0432,-3.7196 -6.4324,-3.7196 -3.1397,0 -6.3712,2.1459 -9.1279,6.098 l 0.9189,-6.098 m 6.3099,3.809 c 2.7567,0 4.5946,2.4858 4.5946,6.2769 0,3.9521 -1.0568,8.7984 -2.8946,13.2154 -2.1289,5.3649 -4.5946,7.7969 -7.8261,7.7969 -3.0171,0 -5.146,-2.7539 -5.146,-6.563 0,-6.4199 4.3343,-20.7262 11.2721,-20.7262"
     id="path292"
     style="stroke-width:1.65493" />
  <path
     class="Fingering"
     d="m 2348.3144,2115.2726 -11.1495,1.073 -0.2451,2.593 h 1.4703 c 2.5117,0 3.4919,0.6438 3.4919,2.1996 0,0.6974 -0.1685,1.7167 -0.5514,3.1652 l -7.8261,31.0088 c -1.2405,5.1682 -1.2865,5.2218 -5.4522,5.4543 l -0.2604,2.5751 h 14.7027 l 0.245,-2.5751 h -0.7351 c -2.9558,0 -3.936,-0.4292 -3.936,-1.8777 0,-0.5544 0.2757,-1.7883 0.7045,-3.5766 l 2.9865,-11.6417 c 1.654,4.9357 3.2621,6.2769 7.3053,6.2769 9.8937,0 15.9126,-12.5716 15.9126,-23.0152 0,-3.505 -0.5973,-5.8656 -2.0216,-7.94 -1.5928,-2.289 -4.0432,-3.7196 -6.4324,-3.7196 -3.1397,0 -6.3712,2.1459 -9.1126,6.098 l 0.9036,-6.098 m 6.3252,3.809 c 2.7414,0 4.5946,2.4858 4.5946,6.2769 0,3.9521 -1.0568,8.7984 -2.8946,13.2154 -2.1288,5.3649 -4.5946,7.7969 -7.8261,7.7969 -3.0171,0 -5.1459,-2.7539 -5.1459,-6.563 0,-6.4199 4.3342,-20.7262 11.272,-20.7262"
     id="path294"
     style="stroke-width:1.65493" />
  <path
     class="Fingering"
     d="m 1741.6155,2115.2726 -11.1495,1.073 -0.245,2.593 h 1.4702 c 2.5117,0 3.4919,0.6438 3.4919,2.1996 0,0.6974 -0.1684,1.7167 -0.5513,3.1652 l -7.8261,31.0088 c -1.2406,5.1682 -1.2865,5.2218 -5.4523,5.4543 l -0.2603,2.5751 h 14.7179 l 0.2298,-2.5751 h -0.7352 c -2.9405,0 -3.936,-0.4292 -3.936,-1.8777 0,-0.5544 0.2757,-1.7883 0.7045,-3.5766 l 2.9865,-11.6417 c 1.654,4.9357 3.2621,6.2769 7.3054,6.2769 9.909,0 15.9125,-12.5716 15.9125,-23.0152 0,-3.505 -0.5973,-5.8656 -2.0216,-7.94 -1.5928,-2.289 -4.0432,-3.7196 -6.4324,-3.7196 -3.1396,0 -6.3558,2.1459 -9.1126,6.098 l 0.9036,-6.098 m 6.3252,3.809 c 2.7415,0 4.5946,2.4858 4.5946,6.2769 0,3.9521 -1.0567,8.7984 -2.8946,13.2154 -2.1288,5.3649 -4.5946,7.7969 -7.8261,7.7969 -3.0171,0 -5.1459,-2.7539 -5.1459,-6.563 0,-6.4199 4.3342,-20.7262 11.272,-20.7262"
     id="path296"
     style="stroke-width:1.65493" />
  <path
     class="Fingering"
     d="m 1557.4954,2115.2726 -11.1495,1.073 -0.245,2.593 h 1.4549 c 2.5117,0 3.4919,0.6438 3.4919,2.1996 0,0.6974 -0.1685,1.7167 -0.5513,3.1652 l -7.8108,31.0088 c -1.2559,5.1682 -1.3018,5.2218 -5.4676,5.4543 l -0.2603,2.5751 h 14.7179 l 0.2451,-2.5751 h -0.7505 c -2.9405,0 -3.9207,-0.4292 -3.9207,-1.8777 0,-0.5544 0.2604,-1.7883 0.6892,-3.5766 l 3.0018,-11.6417 c 1.6387,4.9357 3.2468,6.2769 7.2901,6.2769 9.9089,0 15.9125,-12.5716 15.9125,-23.0152 0,-3.505 -0.5973,-5.8656 -2.0063,-7.94 -1.6081,-2.289 -4.0432,-3.7196 -6.4324,-3.7196 -3.1396,0 -6.3711,2.1459 -9.1279,6.098 l 0.9189,-6.098 m 6.3099,3.809 c 2.7568,0 4.5946,2.4858 4.5946,6.2769 0,3.9521 -1.0568,8.7984 -2.8946,13.2154 -2.1288,5.3649 -4.5946,7.7969 -7.8261,7.7969 -3.0171,0 -5.1459,-2.7539 -5.1459,-6.563 0,-6.4199 4.3342,-20.7262 11.272,-20.7262"
     id="path298"
     style="stroke-width:1.65493" />
  <path
     class="Fingering"
     d="m 2532.4498,2115.2726 -11.1495,1.073 -0.245,2.593 h 1.4549 c 2.5117,0 3.4919,0.6438 3.4919,2.1996 0,0.6974 -0.1685,1.7167 -0.5514,3.1652 l -7.8261,31.0088 c -1.2405,5.1682 -1.2865,5.2218 -5.4522,5.4543 l -0.2604,2.5751 h 14.718 l 0.2451,-2.5751 h -0.7505 c -2.9405,0 -3.9207,-0.4292 -3.9207,-1.8777 0,-0.5544 0.2604,-1.7883 0.6892,-3.5766 l 3.0018,-11.6417 c 1.6387,4.9357 3.2468,6.2769 7.29,6.2769 9.909,0 15.9126,-12.5716 15.9126,-23.0152 0,-3.505 -0.5973,-5.8656 -2.0063,-7.94 -1.6081,-2.289 -4.0432,-3.7196 -6.4324,-3.7196 -3.1396,0 -6.3712,2.1459 -9.1279,6.098 l 0.9189,-6.098 m 6.3099,3.809 c 2.7567,0 4.5946,2.4858 4.5946,6.2769 0,3.9521 -1.0568,8.7984 -2.8946,13.2154 -2.1288,5.3649 -4.5946,7.7969 -7.8261,7.7969 -3.0171,0 -5.1459,-2.7539 -5.1459,-6.563 0,-6.4199 4.3342,-20.7262 11.272,-20.7262"
     id="path300"
     style="stroke-width:1.65493" />
  <path
     class="Fingering"
     d="m 1373.36,2115.2726 -11.1495,1.073 -0.245,2.593 h 1.4702 c 2.5117,0 3.4919,0.6438 3.4919,2.1996 0,0.6974 -0.1685,1.7167 -0.5513,3.1652 l -7.8261,31.0088 c -1.2406,5.1682 -1.2865,5.2218 -5.4553,5.4543 l -0.2635,2.5751 h 14.7241 l 0.2298,-2.5751 h -0.7352 c -2.9405,0 -3.936,-0.4292 -3.936,-1.8777 0,-0.5544 0.2757,-1.7883 0.7045,-3.5766 l 2.9865,-11.6417 c 1.654,4.9357 3.2621,6.2769 7.3054,6.2769 9.9089,0 15.9125,-12.5716 15.9125,-23.0152 0,-3.505 -0.5973,-5.8656 -2.0216,-7.94 -1.5928,-2.289 -4.0432,-3.7196 -6.4324,-3.7196 -3.1396,0 -6.3558,2.1459 -9.1126,6.098 l 0.9036,-6.098 m 6.3252,3.809 c 2.7414,0 4.5946,2.4858 4.5946,6.2769 0,3.9521 -1.0568,8.7984 -2.8946,13.2154 -2.1288,5.3649 -4.5946,7.7969 -7.8261,7.7969 -3.0171,0 -5.1459,-2.7539 -5.1459,-6.563 0,-6.4199 4.3342,-20.7262 11.272,-20.7262"
     id="path302"
     style="stroke-width:1.65493" />
  <path
     class="Fingering"
     d="m 1189.2353,2115.2726 -11.151,1.073 -0.2405,2.593 h 1.4611 c 2.5117,0 3.4934,0.6438 3.4934,2.1996 0,0.6974 -0.1685,1.7167 -0.5513,3.1652 l -7.8246,31.0088 c -1.2436,5.1682 -1.2926,5.2218 -5.4553,5.4543 l -0.2634,2.5751 h 14.7164 l 0.2389,-2.5751 h -0.7412 c -2.9436,0 -3.9253,-0.4292 -3.9253,-1.8777 0,-0.5544 0.2634,-1.7883 0.6953,-3.5766 l 2.9911,-11.6417 c 1.6509,4.9357 3.2544,6.2769 7.2977,6.2769 9.9074,0 15.9141,-12.5716 15.9141,-23.0152 0,-3.505 -0.5989,-5.8656 -2.0109,-7.94 -1.602,-2.289 -4.0433,-3.7196 -6.437,-3.7196 -3.1351,0 -6.3651,2.1459 -9.1172,6.098 l 0.9097,-6.098 m 6.3176,3.809 c 2.7521,0 4.5945,2.4858 4.5945,6.2769 0,3.9521 -1.0536,8.7984 -2.8961,13.2154 -2.1288,5.3649 -4.5946,7.7969 -7.8245,7.7969 -3.0156,0 -5.1444,-2.7539 -5.1444,-6.563 0,-6.4199 4.3311,-20.7262 11.2705,-20.7262"
     id="path304"
     style="stroke-width:1.65493" />
  <path
     class="Fingering"
     d="m 950.7935,2115.2726 -11.151,1.073 -0.2405,2.593 h 1.4596 c 2.5132,0 3.4949,0.6438 3.4949,2.1996 0,0.6974 -0.1685,1.7167 -0.5513,3.1652 l -7.82462,31.0088 c -1.24513,5.1682 -1.29261,5.2218 -5.45683,5.4543 l -0.26189,2.5751 h 14.71644 l 0.2389,-2.5751 h -0.7412 c -2.9436,0 -3.9253,-0.4292 -3.9253,-1.8777 0,-0.5544 0.2634,-1.7883 0.6937,-3.5766 l 2.9926,-11.6417 c 1.651,4.9357 3.2545,6.2769 7.2978,6.2769 9.9074,0 15.9141,-12.5716 15.9141,-23.0152 0,-3.505 -0.5989,-5.8656 -2.0109,-7.94 -1.6035,-2.289 -4.0433,-3.7196 -6.437,-3.7196 -3.1351,0 -6.3651,2.1459 -9.1172,6.098 l 0.9097,-6.098 m 6.3176,3.809 c 2.7521,0 4.5945,2.4858 4.5945,6.2769 0,3.9521 -1.0537,8.7984 -2.8961,13.2154 -2.1288,5.3649 -4.5946,7.7969 -7.8246,7.7969 -3.0155,0 -5.1459,-2.7539 -5.1459,-6.563 0,-6.4199 4.3327,-20.7262 11.2721,-20.7262"
     id="path306"
     style="stroke-width:1.65493" />
  <path
     class="Fingering"
     d="m 766.66575,2115.2726 -11.15105,1.073 -0.24045,2.593 h 1.45955 c 2.51323,0 3.49494,0.6438 3.49494,2.1996 0,0.6974 -0.16847,1.7167 -0.55135,3.1652 l -7.82457,31.0088 c -1.24513,5.1682 -1.2926,5.2218 -5.45682,5.4543 l -0.2619,2.5751 h 14.71644 l 0.23892,-2.5751 h -0.74126 c -2.94359,0 -3.9253,-0.4292 -3.9253,-1.8777 0,-0.5544 0.26342,-1.7883 0.69378,-3.5766 l 2.9926,-11.6417 c 1.65099,4.9357 3.2545,6.2769 7.29773,6.2769 9.90744,0 15.91409,-12.5716 15.91409,-23.0152 0,-3.505 -0.59883,-5.8656 -2.0109,-7.94 -1.60351,-2.289 -4.04323,-3.7196 -6.437,-3.7196 -3.13504,0 -6.36503,2.1459 -9.11718,6.098 l 0.90973,-6.098 m 6.31754,3.809 c 2.75216,0 4.59458,2.4858 4.59458,6.2769 0,3.9521 -1.05369,8.7984 -2.89611,13.2154 -2.12883,5.3649 -4.59458,7.7969 -7.82457,7.7969 -3.01558,0 -5.14593,-2.7539 -5.14593,-6.563 0,-6.4199 4.33269,-20.7262 11.27203,-20.7262"
     id="path308"
     style="stroke-width:1.65493" />
  <path
     class="Fingering"
     d="m 582.53799,2115.2726 -11.15258,1.073 -0.23892,2.593 h 1.45955 c 2.51323,0 3.49494,0.6438 3.49494,2.1996 0,0.6974 -0.16847,1.7167 -0.55135,3.1652 l -7.82457,31.0088 c -1.24513,5.1682 -1.2926,5.2218 -5.45682,5.4543 l -0.26343,2.5751 h 14.71797 l 0.23892,-2.5751 h -0.74126 c -2.94359,0 -3.9253,-0.4292 -3.9253,-1.8777 0,-0.5544 0.26342,-1.7883 0.69378,-3.5766 l 2.99107,-11.6417 c 1.65252,4.9357 3.2545,6.2769 7.29926,6.2769 9.90744,0 15.91409,-12.5716 15.91409,-23.0152 0,-3.505 -0.59883,-5.8656 -2.0109,-7.94 -1.6035,-2.289 -4.04323,-3.7196 -6.437,-3.7196 -3.13504,0 -6.36503,2.1459 -9.11718,6.098 l 0.90973,-6.098 m 6.31754,3.809 c 2.75216,0 4.59458,2.4858 4.59458,6.2769 0,3.9521 -1.05369,8.7984 -2.89611,13.2154 -2.13036,5.3649 -4.59458,7.7969 -7.82457,7.7969 -3.01558,0 -5.14593,-2.7539 -5.14593,-6.563 0,-6.4199 4.33116,-20.7262 11.27203,-20.7262"
     id="path310"
     style="stroke-width:1.65493" />
  <path
     class="Fingering"
     d="m 2770.8931,2115.2726 -11.1648,1.073 -0.2297,2.593 h 1.4549 c 2.5117,0 3.4919,0.6438 3.4919,2.1996 0,0.6974 -0.1684,1.7167 -0.5513,3.1652 l -7.8261,31.0088 c -1.2406,5.1682 -1.2865,5.2218 -5.4523,5.4543 l -0.2603,2.5751 h 14.7179 l 0.2451,-2.5751 h -0.7505 c -2.9405,0 -3.9207,-0.4292 -3.9207,-1.8777 0,-0.5544 0.2604,-1.7883 0.6892,-3.5766 l 2.9865,-11.6417 c 1.654,4.9357 3.2622,6.2769 7.3054,6.2769 9.909,0 15.9125,-12.5716 15.9125,-23.0152 0,-3.505 -0.5973,-5.8656 -2.0063,-7.94 -1.6081,-2.289 -4.0432,-3.7196 -6.4324,-3.7196 -3.1396,0 -6.3711,2.1459 -9.1279,6.098 l 0.9189,-6.098 m 6.3099,3.809 c 2.7568,0 4.5946,2.4858 4.5946,6.2769 0,3.9521 -1.0567,8.7984 -2.8946,13.2154 -2.1288,5.3649 -4.5945,7.7969 -7.8261,7.7969 -3.0171,0 -5.1459,-2.7539 -5.1459,-6.563 0,-6.4199 4.3342,-20.7262 11.272,-20.7262"
     id="path312"
     style="stroke-width:1.65493" />
  <path
     class="Fingering"
     d="m 398.41023,2115.2726 -11.15258,1.073 -0.23891,2.593 h 1.45954 c 2.51324,0 3.49341,0.6438 3.49341,2.1996 0,0.6974 -0.16693,1.7167 -0.54982,3.1652 l -7.82456,31.0088 c -1.24514,5.1682 -1.29261,5.2218 -5.45683,5.4543 l -0.26343,2.5751 h 14.71797 l 0.23892,-2.5751 h -0.74126 c -2.94359,0 -3.9253,-0.4292 -3.9253,-1.8777 0,-0.5544 0.26342,-1.7883 0.69378,-3.5766 l 2.99107,-11.6417 c 1.65099,4.9357 3.2545,6.2769 7.29926,6.2769 9.90744,0 15.91409,-12.5716 15.91409,-23.0152 0,-3.505 -0.59883,-5.8656 -2.0109,-7.94 -1.6035,-2.289 -4.04476,-3.7196 -6.437,-3.7196 -3.13504,0 -6.36502,2.1459 -9.11718,6.098 l 0.90973,-6.098 m 6.31755,3.809 c 2.75062,0 4.59457,2.4858 4.59457,6.2769 0,3.9521 -1.05369,8.7984 -2.89611,13.2154 -2.13036,5.3649 -4.59458,7.7969 -7.82457,7.7969 -3.01558,0 -5.14593,-2.7539 -5.14593,-6.563 0,-6.4199 4.33116,-20.7262 11.27204,-20.7262"
     id="path314"
     style="stroke-width:1.65493" />
  <path
     class="Fingering"
     d="m 3876.6246,895.66845 -11.1495,1.06045 -0.2451,2.59837 h 1.4703 c 2.5117,0 3.4919,0.64378 3.4919,2.20853 0,0.69743 -0.1685,1.70423 -0.5514,3.15632 l -7.8261,31.01594 c -1.2405,5.16992 -1.3018,5.22536 -5.4522,5.4489 l -0.2757,2.57155 h 14.718 l 0.245,-2.57155 h -0.7351 c -2.9559,0 -3.936,-0.41846 -3.936,-1.87233 0,-0.55795 0.2603,-1.78828 0.7045,-3.57657 l 2.9864,-11.65065 c 1.6541,4.9446 3.2469,6.28581 7.2901,6.28581 9.909,0 15.9279,-12.5734 15.9279,-23.02412 0,-3.49251 -0.6126,-5.86735 -2.0216,-7.9346 -1.5928,-2.29258 -4.0433,-3.71605 -6.4325,-3.71605 -3.1396,0 -6.3711,2.1513 -9.1125,6.09089 l 0.9036,-6.09089 m 6.3252,3.8001 c 2.7414,0 4.5945,2.48571 4.5945,6.28581 0,3.93958 -1.0567,8.80192 -2.9099,13.21718 -2.1288,5.36484 -4.5945,7.79512 -7.8107,7.79512 -3.0171,0 -5.146,-2.76647 -5.146,-6.56657 0,-6.42529 4.3189,-20.73154 11.2721,-20.73154"
     id="path316"
     style="stroke-width:1.65493" />
  <path
     class="Fingering"
     d="m 3673.8658,895.66845 -11.1495,1.06045 -0.2451,2.59837 h 1.4703 c 2.5117,0 3.4919,0.64378 3.4919,2.20853 0,0.69743 -0.1685,1.70423 -0.5514,3.15632 l -7.8261,31.01594 c -1.2405,5.16992 -1.2865,5.22536 -5.4522,5.4489 l -0.2604,2.57155 h 14.7027 l 0.245,-2.57155 h -0.7351 c -2.9558,0 -3.936,-0.41846 -3.936,-1.87233 0,-0.55795 0.2756,-1.78828 0.7045,-3.57657 l 2.9865,-11.65065 c 1.654,4.9446 3.2621,6.28581 7.3053,6.28581 9.8937,0 15.9126,-12.5734 15.9126,-23.02412 0,-3.49251 -0.5973,-5.86735 -2.0216,-7.9346 -1.5928,-2.29258 -4.0433,-3.71605 -6.4324,-3.71605 -3.1397,0 -6.3712,2.1513 -9.1126,6.09089 l 0.9036,-6.09089 m 6.3252,3.8001 c 2.7414,0 4.5946,2.48571 4.5946,6.28581 0,3.93958 -1.0568,8.80192 -2.8946,13.21718 -2.1288,5.36484 -4.5946,7.79512 -7.8261,7.79512 -3.0171,0 -5.1459,-2.76647 -5.1459,-6.56657 0,-6.42529 4.3342,-20.73154 11.272,-20.73154"
     id="path318"
     style="stroke-width:1.65493" />
  <path
     class="Fingering"
     d="m 3471.107,895.66845 -11.1495,1.06045 -0.2297,2.59837 h 1.4549 c 2.5117,0 3.4919,0.64378 3.4919,2.20853 0,0.69743 -0.1685,1.70423 -0.5514,3.15632 l -7.8261,31.01594 c -1.2405,5.16992 -1.2864,5.22536 -5.4522,5.4489 l -0.2603,2.57155 h 14.7179 l 0.2298,-2.57155 h -0.7352 c -2.9405,0 -3.9207,-0.41846 -3.9207,-1.87233 0,-0.55795 0.2604,-1.78828 0.6892,-3.57657 l 2.9865,-11.65065 c 1.654,4.9446 3.2621,6.28581 7.3054,6.28581 9.9089,0 15.9125,-12.5734 15.9125,-23.02412 0,-3.49251 -0.5973,-5.86735 -2.0063,-7.9346 -1.6081,-2.29258 -4.0585,-3.71605 -6.4477,-3.71605 -3.1243,0 -6.3558,2.1513 -9.1126,6.09089 l 0.9036,-6.09089 m 6.3252,3.8001 c 2.7414,0 4.5946,2.48571 4.5946,6.28581 0,3.93958 -1.0568,8.80192 -2.8946,13.21718 -2.1288,5.36484 -4.5946,7.79512 -7.8261,7.79512 -3.0171,0 -5.1459,-2.76647 -5.1459,-6.56657 0,-6.42529 4.3342,-20.73154 11.272,-20.73154"
     id="path320"
     style="stroke-width:1.65493" />
  <metadata
     id="metadata555">
    <rdf:RDF>
      <cc:Work
         rdf:about="">
        <dc:title>corde_a_vide_pouce_0</dc:title>
      </cc:Work>
    </rdf:RDF>
  </metadata>
  <text
     xml:space="preserve"
     style="font-size:105px;font-family:sans-serif;-inkscape-font-specification:sans-serif;fill:#000000;stroke:#000000;stroke-width:0;stroke-dasharray:none;stroke-dashoffset:0"
     x="1601.7155"
     y="359.86188"
     id="text829"><tspan
       sodipodi:role="line"
       id="tspan827"
       style="stroke-width:0;stroke-dasharray:none;stroke-dashoffset:0"
       x="1601.7155"
       y="359.86188">Un premier exercice.</tspan></text>
</svg>
