<?xml version="1.0" encoding="UTF-8" standalone="no"?>
<svg
   width="297mm"
   height="210mm"
   viewBox="0 0 4209.4517 2976.3717"
   version="1.2"
   id="svg162"
   sodipodi:docname="ex_corde_a_vide_03.svg"
   inkscape:version="1.2.2 (b0a8486541, 2022-12-01)"
   xmlns:inkscape="http://www.inkscape.org/namespaces/inkscape"
   xmlns:sodipodi="http://sodipodi.sourceforge.net/DTD/sodipodi-0.dtd"
   xmlns="http://www.w3.org/2000/svg"
   xmlns:svg="http://www.w3.org/2000/svg"
   xmlns:rdf="http://www.w3.org/1999/02/22-rdf-syntax-ns#"
   xmlns:cc="http://creativecommons.org/ns#"
   xmlns:dc="http://purl.org/dc/elements/1.1/">
  <defs
     id="defs166" />
  <sodipodi:namedview
     id="namedview164"
     pagecolor="#ffffff"
     bordercolor="#000000"
     borderopacity="0.25"
     inkscape:showpageshadow="2"
     inkscape:pageopacity="0.0"
     inkscape:pagecheckerboard="0"
     inkscape:deskcolor="#d1d1d1"
     inkscape:document-units="mm"
     showgrid="false"
     inkscape:zoom="0.42939113"
     inkscape:cx="394.74499"
     inkscape:cy="376.11396"
     inkscape:window-width="1280"
     inkscape:window-height="651"
     inkscape:window-x="0"
     inkscape:window-y="32"
     inkscape:window-maximized="1"
     inkscape:current-layer="svg162" />
  <title
     id="title2">cordeavide0020</title>
  <desc
     id="desc4">Generated by MuseScore Studio 4.5.2</desc>
  <polyline
     class="StaffLines"
     fill="none"
     stroke="#000000"
     stroke-width="2.73"
     stroke-linejoin="bevel"
     points="336.614,634.252 2763.78,634.252"
     id="polyline6"
     transform="matrix(1.5104253,0,0,2.6331024,-242.69497,-271.95714)" />
  <polyline
     class="StaffLines"
     fill="none"
     stroke="#000000"
     stroke-width="2.73"
     stroke-linejoin="bevel"
     points="336.614,659.055 2763.78,659.055"
     id="polyline8"
     transform="matrix(1.5104253,0,0,2.6331024,-242.69497,-271.95714)" />
  <polyline
     class="StaffLines"
     fill="none"
     stroke="#000000"
     stroke-width="2.73"
     stroke-linejoin="bevel"
     points="336.614,683.858 2763.78,683.858"
     id="polyline10"
     transform="matrix(1.5104253,0,0,2.6331024,-242.69497,-271.95714)" />
  <polyline
     class="StaffLines"
     fill="none"
     stroke="#000000"
     stroke-width="2.73"
     stroke-linejoin="bevel"
     points="336.614,708.661 2763.78,708.661"
     id="polyline12"
     transform="matrix(1.5104253,0,0,2.6331024,-242.69497,-271.95714)" />
  <polyline
     class="StaffLines"
     fill="none"
     stroke="#000000"
     stroke-width="2.73"
     stroke-linejoin="bevel"
     points="336.614,733.465 2763.78,733.465"
     id="polyline14"
     transform="matrix(1.5104253,0,0,2.6331024,-242.69497,-271.95714)" />
  <path
     class="Text"
     d="m 1019.2247,293.29757 h -99.8528 v 9.47789 h 2.99668 c 9.46436,0.20158 12.62716,0.80265 13.94876,2.83494 0.9909,1.80505 0.9909,2.20454 0.9909,12.48509 v 95.94994 c 0,10.27872 0,10.68004 -0.9909,12.51258 -1.3216,2.0048 -4.4844,2.80562 -13.94876,2.80562 h -2.99668 v 9.47789 h 102.0248 l 3.3274,-53.83085 h -7.3165 c -6.3241,35.87746 -13.121,43.55214 -38.56266,44.35296 h -10.9506 c -9.9824,-0.3995 -12.461,-2.40429 -11.9656,-9.67765 v -51.39723 h 3.3274 c 17.1101,-0.80082 23.24701,6.64296 23.93121,29.03476 h 7.7878 v -66.11437 h -7.7878 c -1.015,19.75662 -7.48111,27.60172 -23.26961,27.60172 h -3.989 v -45.95643 c -0.1647,-8.4755 1.4862,-9.87739 10.4551,-10.07897 h 8.6608 c 27.23606,-0.19975 34.05566,7.04428 39.36626,41.91934 h 7.1504 l -2.3366,-51.39723 m 66.6007,94.14671 18.9513,-26.82838 c 4.1536,-5.84213 7.9765,-8.448 12.461,-8.448 h 1.4862 v -7.27152 h -34.3848 v 7.27152 h 3.1613 c 4.9799,0 7.4827,1.40373 7.4827,4.43841 0,2.0048 -1.1812,4.83974 -3.329,8.04668 l -10.4778,15.3182 -12.7918,-19.75661 c -0.9909,-1.60347 -1.6524,-3.20695 -1.6524,-4.40909 0,-2.63519 2.1478,-3.63759 7.3165,-3.63759 h 2.3124 v -7.27152 h -39.3647 v 7.27152 c 6.1354,0.6029 8.472,2.40612 13.7827,10.88162 l 20.2729,30.83797 -19.116,27.00064 c -5.6414,7.67468 -10.4551,10.91094 -14.9396,10.70936 h -1.015 v 7.24403 h 35.0706 v -7.24403 h -2.5013 c -3.8244,0 -4.6506,-0.19974 -5.8061,-0.83014 -1.3457,-1.00239 -2.3366,-2.80562 -2.3366,-4.63816 0,-1.40372 0.4954,-3.20694 1.3458,-4.40908 l 13.9473,-20.15794 12.6256,20.35768 c 1.157,2.0048 2.1478,4.63816 2.1478,6.04188 0,2.60588 -2.4771,3.63576 -8.8027,3.63576 h -1.157 v 7.24403 h 41.8675 v -7.24403 h -1.1555 c -5.8302,0 -9.629,-2.63336 -14.4684,-9.87738 l -20.9329,-34.27583 m 111.3228,6.04189 c 0.1662,-30.23691 -13.9714,-51.59699 -34.2443,-51.59699 -21.2638,0 -37.2169,22.36249 -37.2169,52.59939 0,28.43368 15.1269,47.38947 37.5477,47.38947 15.9546,0 27.094,-9.47789 33.9135,-28.63343 l -5.8287,-3.83734 c -6.7969,15.51978 -13.7826,21.55983 -24.922,21.55983 -8.4735,0 -14.6088,-4.20751 -18.9272,-13.28591 -2.9981,-6.04005 -4.3198,-13.11366 -4.1536,-24.19502 h 53.8315 m -53.6669,-8.67525 c 0,-14.11604 5.3107,-34.27398 19.2579,-34.27398 9.9824,0 16.6147,10.70936 16.6147,27.02996 0,5.64055 -1.4862,7.24402 -6.7969,7.24402 h -29.0757 m 92.3489,-39.91454 -29.4064,2.23204 v 8.67707 h 6.7969 c 6.3241,0.19975 7.1503,1.40189 7.1503,10.07897 v 57.63886 c -0.1646,3.03469 -0.3308,4.23683 -0.9908,5.23923 -1.157,1.80506 -4.4845,2.6352 -11.6348,2.83494 h -0.6616 v 7.24403 h 44.3688 v -7.24403 h -2.9967 c -11.1394,-0.42881 -12.6257,-1.43121 -12.6257,-8.67524 v -10.88162 c 0.1647,-33.87266 10.1244,-59.67115 23.0808,-60.47381 -2.3124,3.20695 -2.974,5.24107 -2.974,9.04908 0,6.47071 3.8229,11.10886 9.1336,11.10886 6.1338,0 10.1213,-5.43898 10.1213,-13.51498 0,-9.87738 -5.6339,-16.3206 -14.4397,-16.3206 -10.4793,0 -19.4467,10.07897 -24.922,28.00304 v -24.99584 m 104.2949,64.30931 c -5.3167,14.51738 -10.9506,20.35952 -19.5902,20.35952 -13.2918,0 -21.5991,-14.71713 -21.5991,-38.28359 0,-24.59634 8.1412,-40.74468 20.4209,-40.74468 4.9996,0 9.3194,2.83494 9.3194,6.06937 0,0.60107 -0.1662,1.20398 -1.012,2.40613 -2.6433,3.83733 -3.3078,5.8403 -3.3078,9.27631 0,6.64296 4.1536,11.28294 9.9537,11.28294 5.9963,0 10.15,-5.64239 10.15,-13.68723 0,-13.71656 -11.1318,-23.99528 -25.934,-23.99528 -21.5991,0 -37.0507,21.36008 -37.0507,51.59699 0,28.63343 14.1376,48.39187 34.7398,48.39187 14.7719,0 23.2454,-8.27575 30.3897,-29.63583 l -6.4797,-3.03652 m 35.8726,-114.5044 c -5.3167,0 -9.6365,5.23923 -9.6365,11.71176 0,6.44138 4.3198,11.68244 9.4704,11.68244 5.4979,0 9.8177,-5.24106 9.8177,-11.68244 0,-6.47253 -4.3198,-11.71176 -9.6516,-11.71176 m 7.8089,50.19509 -31.2205,2.23204 v 8.67707 h 8.4735 c 6.2985,0.19975 7.1141,1.40189 7.1141,10.07897 v 57.63886 c -0.151,3.03469 -0.3172,4.23683 -0.9818,5.23923 -1.163,1.80506 -4.3198,2.6352 -11.4792,2.83494 h -1.1479 v 7.24403 h 43.0471 v -7.24403 h -1.1781 c -11.1168,-0.42881 -12.6272,-1.43121 -12.6272,-8.67524 v -78.02587 m 82.3937,64.30931 c -5.3167,14.51738 -10.9506,20.35952 -19.5902,20.35952 -13.2918,0 -21.5991,-14.71713 -21.5991,-38.28359 0,-24.59634 8.1412,-40.74468 20.4209,-40.74468 4.9996,0 9.3194,2.83494 9.3194,6.06937 0,0.60107 -0.1662,1.20398 -1.012,2.40613 -2.6433,3.83733 -3.3078,5.8403 -3.3078,9.27631 0,6.64296 4.1536,11.28294 9.9537,11.28294 5.9963,0 10.15,-5.64239 10.15,-13.68723 0,-13.71656 -11.1318,-23.99528 -25.934,-23.99528 -21.5991,0 -37.0507,21.36008 -37.0507,51.59699 0,28.63343 14.1376,48.39187 34.7398,48.39187 14.7719,0 23.2454,-8.27575 30.3897,-29.63583 l -6.4797,-3.03652 m 86.7286,-15.71952 c 0.1662,-30.23691 -13.9714,-51.59699 -34.2413,-51.59699 -21.2668,0 -37.232,22.36249 -37.232,52.59939 0,28.43368 15.1345,47.38947 37.5492,47.38947 15.9652,0 27.097,-9.47789 33.9241,-28.63343 l -5.8302,-3.83734 c -6.7969,15.51978 -13.7902,21.55983 -24.922,21.55983 -8.4735,0 -14.6059,-4.20751 -18.9257,-13.28591 -3.0057,-6.04005 -4.3198,-13.11366 -4.1536,-24.19502 h 53.8315 m -53.6654,-8.67525 c 0,-14.11604 5.3016,-34.27398 19.2579,-34.27398 9.9839,0 16.6147,10.70936 16.6147,27.02996 0,5.64055 -1.4953,7.24402 -6.7969,7.24402 h -29.0757 m 168.7598,55.43433 28.9096,-1.40373 v -8.67524 h -2.9907 c -9.4703,-0.60107 -10.3011,-1.80322 -10.3011,-14.71713 V 290.26288 l -32.5647,2.23386 v 8.67525 h 9.8026 c 6.3136,0.20158 7.1443,1.40372 7.1443,10.07896 v 45.55694 c -6.1323,-10.28055 -13.2917,-14.91871 -22.9131,-14.91871 -18.7897,0 -33.0632,21.96116 -33.0632,50.99591 0,28.63344 13.775,48.99295 33.0632,48.99295 10.4521,0 17.5964,-5.44081 22.9131,-17.55389 v 15.9211 M 1648.418,352.7708 c 6.812,0 13.3069,6.04006 16.2824,15.3182 2.1599,6.04188 3.1568,14.3158 3.1568,24.19502 0,23.56463 -7.6428,38.68308 -19.6053,38.68308 -11.7814,0 -18.7746,-13.28591 -18.7746,-35.67588 0,-12.08377 0.9969,-21.16034 3.1719,-27.80329 2.8094,-9.07657 8.9719,-14.71713 15.7688,-14.71713 m 129.081,40.71537 c 0.1661,-30.23691 -13.9715,-51.59699 -34.2414,-51.59699 -21.2668,0 -37.2169,22.36249 -37.2169,52.59939 0,28.43368 15.1345,47.38947 37.5492,47.38947 15.9501,0 27.097,-9.47789 33.9091,-28.63343 l -5.8152,-3.83734 c -6.7969,15.51978 -13.7902,21.55983 -24.922,21.55983 -8.4735,0 -14.6209,-4.20751 -18.9407,-13.28591 -2.9907,-6.04005 -4.3198,-13.11366 -4.1537,-24.19502 h 53.8316 m -53.6655,-8.67525 c 0,-14.11604 5.3167,-34.27398 19.258,-34.27398 9.9839,0 16.6146,10.70936 16.6146,27.02996 0,5.64055 -1.4802,7.24402 -6.7969,7.24402 h -29.0757 m 169.9229,24.39477 c -5.3016,14.51738 -10.9506,20.35952 -19.5902,20.35952 -13.2767,0 -21.584,-14.71713 -21.584,-38.28359 0,-24.59634 8.1412,-40.74468 20.4058,-40.74468 5.0147,0 9.3345,2.83494 9.3345,6.06937 0,0.60107 -0.1662,1.20398 -1.0271,2.40613 -2.6433,3.83733 -3.2927,5.8403 -3.2927,9.27631 0,6.64296 4.1536,11.28294 9.9537,11.28294 5.9963,0 10.15,-5.64239 10.15,-13.68723 0,-13.71656 -11.1469,-23.99528 -25.934,-23.99528 -21.5991,0 -37.0507,21.36008 -37.0507,51.59699 0,28.63343 14.1225,48.39187 34.7398,48.39187 14.7719,0 23.2454,-8.27575 30.3897,-29.63583 l -6.4948,-3.03652 m 51.143,-67.31651 c -20.4361,0 -36.22,21.96116 -36.22,50.1951 0,27.6017 15.9501,49.79376 35.8877,49.79376 19.9527,0 35.9028,-22.19206 35.9028,-49.99534 0,-27.63103 -15.9501,-49.99352 -35.5705,-49.99352 m 0,8.64776 c 11.6454,0 18.11,14.71712 18.11,41.34576 0,26.80089 -6.4646,41.31826 -18.4423,41.31826 -11.9626,0 -18.4272,-14.51737 -18.4272,-41.11668 0,-27.43129 6.2985,-41.54734 18.7595,-41.54734 m 74.0864,-5.64056 -29.408,2.23204 v 8.67707 h 6.7969 c 6.3287,0.19975 7.1594,1.40189 7.1594,10.07897 v 57.63886 c -0.1661,3.03469 -0.3323,4.23683 -0.9969,5.23923 -1.163,1.80506 -4.4859,2.6352 -11.6303,2.83494 h -0.6645 v 7.24403 h 44.3612 v -7.24403 h -2.9907 c -11.1469,-0.42881 -12.6271,-1.43121 -12.6271,-8.67524 v -10.88162 c 0.1661,-33.87266 10.1198,-59.67115 23.0793,-60.47381 -2.311,3.20695 -2.9756,5.24107 -2.9756,9.04908 0,6.47071 3.8214,11.10886 9.1381,11.10886 6.1323,0 10.1198,-5.43898 10.1198,-13.51498 0,-9.87738 -5.6338,-16.3206 -14.4396,-16.3206 -10.4824,0 -19.4543,10.07897 -24.922,28.00304 v -24.99584 m 102.6334,95.34887 28.9095,-1.40373 v -8.67524 h -2.9906 c -9.4704,-0.60107 -10.286,-1.80322 -10.286,-14.71713 V 290.26288 l -32.5799,2.23386 v 8.67525 h 9.8026 c 6.3287,0.20158 7.1444,1.40372 7.1444,10.07896 v 45.55694 c -6.1324,-10.28055 -13.2767,-14.91871 -22.9132,-14.91871 -18.7897,0 -33.0632,21.96116 -33.0632,50.99591 0,28.63344 13.7902,48.99295 33.0632,48.99295 10.4521,0 17.6116,-5.44081 22.9132,-17.55389 v 15.9211 m -19.6054,-87.47445 c 6.8121,0 13.3069,6.04006 16.2824,15.3182 2.175,6.04188 3.1568,14.3158 3.1568,24.19502 0,23.56463 -7.6427,38.68308 -19.6053,38.68308 -11.7813,0 -18.7595,-13.28591 -18.7595,-35.67588 0,-12.08377 0.9818,-21.16034 3.1568,-27.80329 2.8094,-9.07657 8.9719,-14.71713 15.7688,-14.71713 m 129.0961,40.71537 c 0.1661,-30.23691 -13.9714,-51.59699 -34.2414,-51.59699 -21.2667,0 -37.2319,22.36249 -37.2319,52.59939 0,28.43368 15.1344,47.38947 37.5491,47.38947 15.9652,0 27.0971,-9.47789 33.9242,-28.63343 l -5.8303,-3.83734 c -6.7969,15.51978 -13.7901,21.55983 -24.922,21.55983 -8.4735,0 -14.6058,-4.20751 -18.9256,-13.28591 -3.0057,-6.04005 -4.3198,-13.11366 -4.1537,-24.19502 h 53.8316 m -53.6654,-8.67525 c 0,-14.11604 5.3016,-34.27398 19.2579,-34.27398 9.9839,0 16.6147,10.70936 16.6147,27.02996 0,5.64055 -1.4953,7.24402 -6.7969,7.24402 h -29.0757 m 163.1259,-53.80152 -23.2756,-28.23394 c -4.1537,-5.03948 -5.6339,-6.24163 -8.3074,-6.24163 -3.3229,0 -5.8,3.0072 -5.8,7.04428 0,2.83494 1.6463,5.84031 4.3198,7.87442 l 26.4022,19.55687 h 6.661 m 17.5965,42.9199 c 0,-12.683 -1.8125,-19.15553 -6.6459,-23.99344 -5.4829,-5.44081 -13.624,-8.04668 -24.2423,-8.04668 -18.7897,0 -32.3987,10.68004 -32.3987,25.39717 0,7.44561 3.8214,12.28534 9.6215,12.28534 5.3167,0 8.9719,-4.23866 8.9719,-10.28054 0,-2.60587 -0.8308,-5.44081 -2.4771,-8.24643 -1.012,-1.43121 -1.1781,-1.83254 -1.1781,-2.83494 0,-4.03709 6.6458,-7.67284 14.6209,-7.67284 5.3167,0 11.1469,2.03228 13.7902,5.03948 3.1567,3.23444 4.3198,8.07417 4.3198,17.15074 v 7.8451 c -17.2793,3.6376 -22.747,5.24106 -30.8882,9.07841 -14.4699,6.47069 -21.2668,15.71952 -21.2668,28.63342 0,14.51555 9.2891,23.59395 24.0913,23.59395 11.449,0 21.7652,-5.66987 28.9095,-15.95042 2.6432,10.28055 6.7969,14.31763 14.6058,14.31763 7.4917,0 15.3006,-5.84214 15.3006,-11.68244 0,-1.40372 -0.6646,-2.43362 -1.6765,-2.43362 -0.6646,0 -1.3292,0.22907 -2.4771,0.83015 -2.3412,1.20214 -3.3381,1.40372 -4.6522,1.40372 -4.6672,0 -6.3286,-3.63759 -6.3286,-13.91631 V 373.9293 m -15.6178,24.59635 c 0,12.08377 -0.4985,14.91871 -3.3079,20.15794 -4.1536,7.4456 -11.6302,12.48509 -18.9558,12.48509 -7.6428,0 -13.1105,-6.64296 -13.1105,-15.71953 0,-8.448 3.4891,-14.51738 10.7844,-18.72672 5.1657,-2.83494 11.6303,-4.83973 24.5898,-7.47309 v 9.27631 m 128.0991,15.9211 -18.9558,-53.20045 c -0.4833,-1.63279 -0.8156,-3.23627 -0.8156,-4.43841 0,-3.43601 2.1599,-4.63999 8.9568,-4.63999 h 2.3412 v -7.27152 h -39.2258 v 7.27152 h 1.3443 c 6.3136,0 8.6396,2.00479 10.9506,8.67707 l 28.5923,81.03307 h 5.8152 l 23.5777,-70.75435 c 4.6521,-13.71473 8.6396,-18.35289 15.4668,-18.95579 h 0.6645 v -7.27152 h -33.2293 v 7.27152 h 2.326 c 5.8152,0 8.972,2.40612 8.972,7.04428 0,2.43362 -0.4985,5.44081 -1.5105,8.47549 l -15.2704,46.75908 m 69.9025,-119.74546 c -5.3016,0 -9.6214,5.23923 -9.6214,11.71176 0,6.44138 4.3198,11.68244 9.4553,11.68244 5.4979,0 9.8177,-5.24106 9.8177,-11.68244 0,-6.47253 -4.3198,-11.71176 -9.6516,-11.71176 m 7.8089,50.19509 -31.2205,2.23204 v 8.67707 h 8.4735 c 6.2985,0.19975 7.1292,1.40189 7.1292,10.07897 v 57.63886 c -0.1661,3.03469 -0.3323,4.23683 -0.9969,5.23923 -1.1479,1.80506 -4.3198,2.6352 -11.4641,2.83494 h -1.163 v 7.24403 h 43.0471 v -7.24403 h -1.1781 c -11.1168,-0.42881 -12.6272,-1.43121 -12.6272,-8.67524 v -78.02587 m 81.2458,95.34887 28.9095,-1.40373 v -8.67524 h -3.0057 c -9.4553,-0.60107 -10.286,-1.80322 -10.286,-14.71713 V 290.26288 l -32.5648,2.23386 v 8.67525 h 9.7876 c 6.3287,0.20158 7.1594,1.40372 7.1594,10.07896 v 45.55694 c -6.1474,-10.28055 -13.2917,-14.91871 -22.9283,-14.91871 -18.7745,0 -33.0632,21.96116 -33.0632,50.99591 0,28.63344 13.7902,48.99295 33.0632,48.99295 10.4673,0 17.6116,-5.44081 22.9283,-17.55389 v 15.9211 M 2609.985,352.7708 c 6.8271,0 13.3068,6.04006 16.2824,15.3182 2.175,6.04188 3.1719,14.3158 3.1719,24.19502 0,23.56463 -7.6579,38.68308 -19.6205,38.68308 -11.7813,0 -18.7595,-13.28591 -18.7595,-35.67588 0,-12.08377 0.9969,-21.16034 3.1568,-27.80329 2.8094,-9.07657 8.972,-14.71713 15.7689,-14.71713 m 129.096,40.71537 c 0.1662,-30.23691 -13.9714,-51.59699 -34.2413,-51.59699 -21.2668,0 -37.2169,22.36249 -37.2169,52.59939 0,28.43368 15.1194,47.38947 37.5492,47.38947 15.9501,0 27.0819,-9.47789 33.909,-28.63343 l -5.8302,-3.83734 c -6.7969,15.51978 -13.7751,21.55983 -24.922,21.55983 -8.4735,0 -14.6058,-4.20751 -18.9257,-13.28591 -3.0057,-6.04005 -4.3198,-13.11366 -4.1536,-24.19502 h 53.8315 m -53.6654,-8.67525 c 0,-14.11604 5.3016,-34.27398 19.2579,-34.27398 9.9839,0 16.6147,10.70936 16.6147,27.02996 0,5.64055 -1.4953,7.24402 -6.7969,7.24402 h -29.0757 m 138.8685,-39.91454 -28.7585,2.23204 v 8.67707 h 5.9964 c 6.3136,0.19975 7.1292,1.40189 7.1292,10.07897 v 57.63886 c -0.1661,3.03469 -0.3323,4.23683 -0.9818,5.23923 -1.163,1.80506 -4.3198,2.6352 -11.4792,2.83494 h -0.6646 v 7.24403 h 42.0352 v -7.24403 h -0.6495 c -11.147,-0.42881 -12.6272,-1.43121 -12.6272,-8.67524 v -29.83558 c 0,-9.87922 1.1479,-18.95579 2.9907,-23.59394 3.489,-9.0784 10.9505,-15.32004 18.0949,-15.32004 4.3198,0 9.3042,2.83494 11.8115,7.07361 2.4922,4.40909 3.6552,10.47846 3.6552,20.15794 v 42.11908 c -0.1661,3.03469 -0.3323,4.23683 -0.9969,5.23923 -1.1781,1.80506 -4.501,2.6352 -11.6302,2.83494 h -0.6646 v 7.24403 h 42.0351 v -7.24403 h -0.6646 c -10.9657,-0.42881 -12.461,-1.43121 -12.461,-8.67524 V 382.4048 c 0,-14.51554 -0.5135,-18.15313 -3.4891,-24.99584 -4.1536,-9.67764 -12.461,-15.51978 -22.4449,-15.51978 -10.7844,0 -18.9256,6.04189 -26.2361,19.35712 v -16.34992 m 102.1652,-44.32547 c -14.4548,0 -25.5866,13.48749 -25.5866,30.63823 0,17.52274 10.9657,31.03772 24.922,31.03772 13.9412,0 24.922,-13.51498 24.922,-30.83797 0,-17.35049 -10.6485,-30.83798 -24.2574,-30.83798 m -0.3323,11.4827 c 8.3073,0 15.1194,8.67524 15.1194,19.35528 0,10.88162 -6.8121,19.35712 -15.4517,19.35712 -8.6396,0 -15.6178,-8.67708 -15.6178,-19.15554 0,-11.11069 6.9782,-19.55686 15.9501,-19.55686 m 90.3687,52.59938 c 15.1043,-6.64296 22.0825,-16.92167 22.0825,-33.04252 0,-21.18965 -13.2918,-34.67531 -33.894,-34.67531 -19.4392,0 -34.2111,13.91631 -34.2111,32.2417 0,8.27392 4.4859,14.11605 10.9506,14.11605 5.8302,0 9.8177,-4.83974 9.8177,-12.08377 0,-4.4384 -1.3442,-7.07176 -5.1505,-10.27871 -1.6766,-1.43305 -2.175,-2.23386 -2.175,-3.63759 0,-5.64056 9.6365,-11.68244 19.122,-11.68244 11.9474,0 18.261,9.04908 18.261,26.19982 0,18.72672 -6.3136,28.60411 -18.0949,28.60411 -1.5104,0 -4.3198,-0.19975 -6.8271,-0.39949 -1.3141,-0.20159 -2.6584,-0.20159 -3.6553,-0.20159 -3.489,0 -5.3015,1.83255 -5.3015,5.44081 0,3.43601 1.6463,5.03949 5.3015,5.03949 0.9969,0 2.3412,0 3.8214,-0.19975 3.3381,-0.20158 5.9813,-0.20158 7.8089,-0.20158 12.31,0 18.9408,10.68004 18.9408,30.63823 0,20.98808 -8.3074,32.67051 -23.2455,32.67051 -10.4823,0 -21.7652,-6.8427 -21.7652,-13.11365 0,-1.80322 0.3323,-2.20454 3.474,-4.43841 4.6672,-3.40669 6.4797,-6.8427 6.4797,-11.88219 0,-7.24402 -4.486,-12.68483 -10.4522,-12.68483 -7.1443,0 -11.7964,7.04428 -11.7964,17.72432 0,19.55686 14.772,33.07184 36.0388,33.07184 24.0912,0 39.709,-16.15017 39.709,-40.94627 0,-18.92646 -7.975,-30.43848 -25.2392,-36.27878 m 57.6228,51.82606 c -5.8001,0 -10.4522,5.64055 -10.4522,12.48508 0,7.04245 4.6521,12.71233 10.286,12.71233 5.8303,0 10.4824,-5.66988 10.4824,-12.71233 0,-6.84453 -4.6521,-12.48508 -10.3162,-12.48508"
     id="path26"
     style="stroke-width:1.66371" />
  <polyline
     class="BarLine"
     fill="none"
     stroke="#000000"
     stroke-width="4.46"
     stroke-linejoin="bevel"
     points="2761.55,632.888 2761.55,734.829"
     id="polyline34"
     transform="matrix(1.5104253,0,0,2.6331024,-242.69497,-271.95714)" />
  <polyline
     class="BarLine"
     fill="none"
     stroke="#000000"
     stroke-width="4.46"
     stroke-linejoin="bevel"
     points="2013.9,632.888 2013.9,734.829"
     id="polyline36"
     transform="matrix(1.5104253,0,0,2.6331024,-242.69497,-271.95714)" />
  <polyline
     class="BarLine"
     fill="none"
     stroke="#000000"
     stroke-width="4.46"
     stroke-linejoin="bevel"
     points="1249.98,632.888 1249.98,734.829"
     id="polyline38"
     transform="matrix(1.5104253,0,0,2.6331024,-242.69497,-271.95714)" />
  <polyline
     class="LedgerLine"
     fill="none"
     stroke="#000000"
     stroke-width="3.97"
     stroke-linejoin="bevel"
     points="528.125,783.071 577.716,783.071"
     id="polyline40"
     transform="matrix(1.5104253,0,0,2.6331024,-242.69497,-271.95714)" />
  <polyline
     class="LedgerLine"
     fill="none"
     stroke="#000000"
     stroke-width="3.97"
     stroke-linejoin="bevel"
     points="1292.05,783.071 1341.64,783.071"
     id="polyline42"
     transform="matrix(1.5104253,0,0,2.6331024,-242.69497,-271.95714)" />
  <polyline
     class="LedgerLine"
     fill="none"
     stroke="#000000"
     stroke-width="3.97"
     stroke-linejoin="bevel"
     points="1292.05,758.268 1341.64,758.268"
     id="polyline44"
     transform="matrix(1.5104253,0,0,2.6331024,-242.69497,-271.95714)" />
  <polyline
     class="LedgerLine"
     fill="none"
     stroke="#000000"
     stroke-width="3.97"
     stroke-linejoin="bevel"
     points="528.125,758.268 577.716,758.268"
     id="polyline46"
     transform="matrix(1.5104253,0,0,2.6331024,-242.69497,-271.95714)" />
  <polyline
     class="LedgerLine"
     fill="none"
     stroke="#000000"
     stroke-width="3.97"
     stroke-linejoin="bevel"
     points="528.125,807.874 577.716,807.874"
     id="polyline48"
     transform="matrix(1.5104253,0,0,2.6331024,-242.69497,-271.95714)" />
  <polyline
     class="Stem"
     fill="none"
     stroke="#000000"
     stroke-width="2.73"
     stroke-linejoin="bevel"
     points="2405.21,688.025 2405.21,758.268"
     id="polyline50"
     transform="matrix(1.5104253,0,0,2.6331024,-242.69497,-271.95714)" />
  <polyline
     class="Stem"
     fill="none"
     stroke="#000000"
     stroke-width="2.73"
     stroke-linejoin="bevel"
     points="1509.33,704.693 1509.33,621.85"
     id="polyline52"
     transform="matrix(1.5104253,0,0,2.6331024,-242.69497,-271.95714)" />
  <polyline
     class="Stem"
     fill="none"
     stroke="#000000"
     stroke-width="2.73"
     stroke-linejoin="bevel"
     points="2582.94,650.82 2582.94,733.465"
     id="polyline54"
     transform="matrix(1.5104253,0,0,2.6331024,-242.69497,-271.95714)" />
  <polyline
     class="Stem"
     fill="none"
     stroke="#000000"
     stroke-width="2.73"
     stroke-linejoin="bevel"
     points="1657.56,688.025 1657.56,758.268"
     id="polyline56"
     transform="matrix(1.5104253,0,0,2.6331024,-242.69497,-271.95714)" />
  <polyline
     class="Stem"
     fill="none"
     stroke="#000000"
     stroke-width="2.73"
     stroke-linejoin="bevel"
     points="1331.6,779.102 1331.6,683.858"
     id="polyline58"
     transform="matrix(1.5104253,0,0,2.6331024,-242.69497,-271.95714)" />
  <polyline
     class="Stem"
     fill="none"
     stroke="#000000"
     stroke-width="2.73"
     stroke-linejoin="bevel"
     points="2256.98,704.693 2256.98,621.85"
     id="polyline60"
     transform="matrix(1.5104253,0,0,2.6331024,-242.69497,-271.95714)" />
  <polyline
     class="Stem"
     fill="none"
     stroke="#000000"
     stroke-width="2.73"
     stroke-linejoin="bevel"
     points="567.671,816.307 567.671,683.858"
     id="polyline62"
     transform="matrix(1.5104253,0,0,2.6331024,-242.69497,-271.95714)" />
  <polyline
     class="Stem"
     fill="none"
     stroke="#000000"
     stroke-width="2.73"
     stroke-linejoin="bevel"
     points="2079.24,741.898 2079.24,659.055"
     id="polyline64"
     transform="matrix(1.5104253,0,0,2.6331024,-242.69497,-271.95714)" />
  <polyline
     class="Stem"
     fill="none"
     stroke="#000000"
     stroke-width="2.73"
     stroke-linejoin="bevel"
     points="1071.37,650.82 1071.37,733.465"
     id="polyline66"
     transform="matrix(1.5104253,0,0,2.6331024,-242.69497,-271.95714)" />
  <polyline
     class="Stem"
     fill="none"
     stroke="#000000"
     stroke-width="2.73"
     stroke-linejoin="bevel"
     points="745.405,704.693 745.405,621.85"
     id="polyline68"
     transform="matrix(1.5104253,0,0,2.6331024,-242.69497,-271.95714)" />
  <polyline
     class="Stem"
     fill="none"
     stroke="#000000"
     stroke-width="2.73"
     stroke-linejoin="bevel"
     points="1835.3,650.82 1835.3,733.465"
     id="polyline70"
     transform="matrix(1.5104253,0,0,2.6331024,-242.69497,-271.95714)" />
  <polyline
     class="Stem"
     fill="none"
     stroke="#000000"
     stroke-width="2.73"
     stroke-linejoin="bevel"
     points="893.639,688.025 893.639,758.268"
     id="polyline72"
     transform="matrix(1.5104253,0,0,2.6331024,-242.69497,-271.95714)" />
  <path
     class="Note"
     d="m 2851.2301,1702.9645 c 0,11.225 4.6361,23.7563 16.7882,23.7563 15.5709,0 31.9141,-22.2052 31.9141,-45.1859 0,-15.4293 -7.4926,-24.0419 -16.7882,-24.0419 -14.5404,0 -31.9141,21.4296 -31.9141,45.4715"
     id="path74"
     style="stroke-width:1.97856" />
  <path
     class="Note"
     d="m 2258.8715,1539.6911 c 0,11.225 4.6361,23.7563 16.7882,23.7563 15.5709,0 31.9141,-22.2052 31.9141,-45.1859 0,-15.4293 -7.4926,-24.0419 -16.7882,-24.0419 -14.5404,0 -31.9141,21.4296 -31.9141,45.4715"
     id="path76"
     style="stroke-width:1.97856" />
  <path
     class="Note"
     d="m 3119.678,1605 c 0,11.225 4.6361,23.7563 16.7882,23.7563 15.5708,0 31.9141,-22.2052 31.9141,-45.1859 0,-15.4294 -7.4926,-24.0419 -16.7882,-24.0419 -14.5404,0 -31.9141,21.4295 -31.9141,45.4715"
     id="path78"
     style="stroke-width:1.97856" />
  <path
     class="Note"
     d="m 2527.3194,1441.7265 c 0,11.2251 4.6361,23.7563 16.7882,23.7563 15.5708,0 31.9141,-22.2051 31.9141,-45.1858 0,-15.4294 -7.4926,-24.042 -16.7882,-24.042 -14.5404,0 -31.9141,21.4296 -31.9141,45.4715"
     id="path80"
     style="stroke-width:1.97856" />
  <path
     class="Note"
     d="m 3656.5889,1441.7265 c 0,11.2251 4.6361,23.7563 16.7882,23.7563 15.5708,0 31.9141,-22.2051 31.9141,-45.1858 0,-15.4294 -7.4926,-24.042 -16.7882,-24.042 -14.5404,0 -31.9141,21.4296 -31.9141,45.4715"
     id="path82"
     style="stroke-width:1.97856" />
  <path
     class="Note"
     d="m 3388.141,1539.6911 c 0,11.225 4.6361,23.7563 16.7882,23.7563 15.5708,0 31.9141,-22.2052 31.9141,-45.1859 0,-15.4293 -7.4926,-24.0419 -16.7882,-24.0419 -14.5404,0 -31.9141,21.4296 -31.9141,45.4715"
     id="path84"
     style="stroke-width:1.97856" />
  <path
     class="Note"
     d="m 1990.4236,1605 c 0,11.225 4.6361,23.7563 16.7882,23.7563 15.5709,0 31.9141,-22.2052 31.9141,-45.1859 0,-15.4294 -7.4926,-24.0419 -16.7882,-24.0419 -14.5404,0 -31.9141,21.4295 -31.9141,45.4715"
     id="path86"
     style="stroke-width:1.97856" />
  <path
     class="Note"
     d="m 836.56585,1605 c 0,11.225 4.63608,23.7563 16.78821,23.7563 15.57079,0 31.91409,-22.2052 31.91409,-45.1859 0,-15.4294 -7.49266,-24.0419 -16.78821,-24.0419 -14.54041,0 -31.91409,21.4295 -31.91409,45.4715"
     id="path88"
     style="stroke-width:1.97856" />
  <path
     class="Note"
     d="m 1105.0198,1539.6911 c 0,11.225 4.6361,23.7563 16.7883,23.7563 15.5707,0 31.914,-22.2052 31.914,-45.1859 0,-15.4293 -7.4926,-24.0419 -16.7882,-24.0419 -14.5404,0 -31.9141,21.4296 -31.9141,45.4715"
     id="path90"
     style="stroke-width:1.97856" />
  <path
     class="Note"
     d="m 568.11192,1898.8937 c 0,11.225 4.63608,23.7563 16.78821,23.7563 15.57079,0 31.91409,-22.2052 31.91409,-45.1859 0,-15.4293 -7.49268,-24.0419 -16.78821,-24.0419 -14.54041,0 -31.91409,21.4295 -31.91409,45.4715"
     id="path92"
     style="stroke-width:1.97856" />
  <path
     class="Note"
     d="m 1373.4753,1441.7265 c 0,11.2251 4.6361,23.7563 16.7882,23.7563 15.5708,0 31.9141,-22.2051 31.9141,-45.1858 0,-15.4294 -7.4926,-24.042 -16.7882,-24.042 -14.5404,0 -31.9141,21.4296 -31.9141,45.4715"
     id="path94"
     style="stroke-width:1.97856" />
  <path
     class="Note"
     d="m 1721.9606,1800.9291 c 0,11.225 4.6361,23.7563 16.7882,23.7563 15.5709,0 31.9141,-22.2052 31.9141,-45.1859 0,-15.4293 -7.4926,-24.0419 -16.7882,-24.0419 -14.5404,0 -31.9141,21.4295 -31.9141,45.4715"
     id="path96"
     style="stroke-width:1.97856" />
  <path
     class="Clef"
     d="m 359.08997,1781.3348 c 0,-9.6738 -5.08092,-13.8372 -10.02143,-13.8372 -6.29847,0 -12.45655,6.7757 -12.45655,18.5314 0,4.9799 1.05363,8.6535 3.161,12.2862 -3.91026,2.6124 -7.79716,7.8371 -7.79716,15.96 0,8.6127 4.4956,14.3681 11.09859,14.3681 8.07798,0 13.76777,-7.8371 13.76777,-19.103 0,-6.0003 -1.49854,-10.9393 -4.19125,-14.368 4.35517,-3.388 6.43903,-7.5513 6.43903,-13.8375 m -14.98532,41.7979 c -3.27803,0 -5.52583,-3.6327 -5.52583,-9.1433 0,-5.2247 1.33459,-9.388 3.88675,-12.0004 0.60885,0.5306 0.74926,0.5306 1.19417,1.0204 1.80289,1.592 1.80289,1.592 2.10739,2.1225 2.83312,2.8574 4.05067,5.4698 4.05067,9.1433 0,4.939 -2.41172,8.8575 -5.71315,8.8575 m 5.71315,-31.3484 c -2.24778,-2.0815 -2.85665,-2.6124 -3.30141,-3.1429 l -0.3045,-0.2449 c -2.2478,-2.3676 -2.99706,-4.2043 -2.99706,-7.3065 0,-4.735 2.10739,-8.1229 5.10445,-8.1229 2.83312,0 4.63601,3.1429 4.63601,8.6127 0,4.2043 -0.88969,7.0615 -3.13749,10.2044 m 41.79497,-198.2951 c 0,-39.4305 -16.03894,-66.0848 -37.90822,-66.0848 -1.49852,-15.6742 -2.8565,-31.1036 -4.1911,-45.7164 15.7346,-29.0219 26.80964,-61.9213 26.80964,-103.1886 0,-23.7971 -4.19123,-43.1041 -6.74338,-52.5322 -3.5824,-13.3074 -7.93759,-22.4507 -10.48974,-22.4507 -1.03023,0 -5.83018,3.1427 -10.63028,13.3075 -9.74046,19.8775 -12.43302,53.0219 -12.43302,74.982 0,14.1233 0.74926,26.8993 3.30141,56.4517 -0.16394,0 -7.96095,13.8375 -11.09858,18.5317 -13.65057,21.9601 -32.52279,53.7983 -32.52279,105.8008 0,49.1046 24.42143,87.5145 52.30822,87.5145 4.33166,0 8.38233,-0.7756 11.98826,-1.8367 2.69256,24.8582 4.49558,43.3896 4.49558,57.227 0,27.1851 -8.10151,41.5532 -23.22724,41.5532 -3.60591,0 -6.7434,-1.3062 -7.0479,-1.592 -0.14047,0 -0.44476,-0.2452 -0.44476,-0.4898 0,-0.5306 0.30435,-0.8164 0.74926,-1.0614 7.04775,-1.8368 14.07212,-12.531 14.07212,-28.9809 0,-14.1232 -6.13468,-29.0218 -17.37368,-29.0218 -10.48973,0 -17.09257,14.8986 -17.09257,32.124 0,17.2662 7.49267,40.0019 27.72286,40.0019 19.34035,0 28.77646,-19.1029 28.77646,-52.5332 0,-10.1637 -0.88968,-21.9193 -2.38821,-36.8179 -0.44491,-5.2248 -1.19419,-13.3477 -2.2478,-23.2666 14.68082,-8.6127 25.61546,-35.0219 25.61546,-61.9213 m -46.15014,-214.2142 c 1.49852,-10.4495 8.24192,-37.8794 16.03908,-37.8794 2.2478,0 5.99414,12.5311 5.99414,30.8176 0,26.8993 -11.68391,47.3085 -22.03322,65.3093 -0.88969,-10.4495 -1.63895,-20.899 -1.63895,-31.5932 0,-9.9189 0.58532,-18.5724 1.63895,-26.6543 m 4.4956,270.1352 c -21.42422,0 -39.71106,-26.1237 -39.71106,-65.5949 0,-31.8384 12.87803,-60.3294 26.08385,-80.4528 2.52877,-3.6737 4.94051,-7.3065 7.18831,-11.225 1.3346,14.0822 2.38821,26.1237 3.44182,37.1037 -13.65057,6.776 -22.92274,32.124 -22.92274,56.4109 0,18.5723 8.24192,43.6347 20.23018,43.6347 1.19404,0 2.55215,-1.0611 2.55215,-3.6735 0,-2.0818 -1.35811,-3.633 -3.30141,-5.7147 -5.85371,-6.0411 -9.15513,-13.0618 -9.15513,-25.6338 0,-15.9192 6.90733,-28.7362 15.59403,-32.369 l 8.68683,85.6776 c -2.99706,1.0614 -5.68977,1.8368 -8.68683,1.8368 m 14.98532,-4.9797 c -3.13749,-31.0628 -7.18816,-72.6158 -8.24194,-84.1267 15.1259,0 21.58831,18.2868 22.92291,30.8588 0.16393,2.0817 0.44491,4.939 0.44491,8.082 0,18.8172 -4.4956,37.6346 -15.12588,45.1859"
     id="path100"
     style="stroke-width:1.97856" />
  <path
     class="Fingering"
     d="m 3086.3882,1556.7456 c -8.4584,0 -14.6058,16.004 -14.6058,38.1379 0,21.6836 5.9662,37.5638 14.1074,37.5638 8.4735,0 14.3943,-15.3457 14.3943,-37.2742 0,-11.1512 -1.3442,-20.4065 -3.8667,-27.6897 -2.3562,-6.6222 -6.238,-10.7378 -10.0292,-10.7378 m -0.4229,4.5263 c 1.9787,0 3.912,2.304 5.3771,6.5407 1.6313,4.937 2.175,10.9431 2.175,25.3857 0,14.8507 -0.4229,21.8047 -1.6312,26.4127 -1.3896,5.1845 -3.5646,8.31 -5.8605,8.31 -2.0542,0 -3.9422,-2.3039 -5.3771,-6.4985 -1.6917,-4.9792 -2.175,-11.4803 -2.175,-28.7587 0,-12.344 0.438,-18.4317 1.6313,-23.0818 1.3895,-5.2662 3.5646,-8.3101 5.8604,-8.3101"
     id="path114"
     style="stroke-width:1.99427" />
  <path
     class="Fingering"
     d="m 2225.5817,1491.4368 c -8.4584,0 -14.6058,16.004 -14.6058,38.1379 0,21.6836 5.9662,37.5638 14.1074,37.5638 8.4735,0 14.3943,-15.3457 14.3943,-37.2742 0,-11.1512 -1.3442,-20.4065 -3.8666,-27.6897 -2.3563,-6.6249 -6.2381,-10.7378 -10.0293,-10.7378 m -0.4229,4.5263 c 1.9787,0 3.912,2.304 5.3771,6.5406 1.6313,4.9371 2.175,10.9432 2.175,25.3858 0,14.8507 -0.4229,21.8047 -1.6312,26.4126 -1.3896,5.1846 -3.5646,8.3101 -5.8605,8.3101 -2.0541,0 -3.9422,-2.304 -5.3771,-6.5011 -1.6917,-4.9766 -2.175,-11.4777 -2.175,-28.7561 0,-12.344 0.4229,-18.4318 1.6313,-23.0818 1.3896,-5.2662 3.5646,-8.3101 5.8604,-8.3101"
     id="path116"
     style="stroke-width:1.99427" />
  <path
     class="Fingering"
     d="m 3400.6926,1313.3101 -10.9959,1.564 -0.1812,3.8259 h 1.45 c 2.4167,0 3.3833,0.9479 3.3833,3.3335 0,0.9453 -0.1963,2.5515 -0.4984,4.5658 l -6.1625,36.2052 h 5.2714 l 2.477,-14.8507 c 2.7037,-16.1278 8.2168,-28.3059 12.748,-28.3059 1.5709,0 2.5376,1.4403 2.5376,4.0734 0,2.1381 -0.4985,6.5407 -1.2235,10.5325 l -4.8182,28.5507 h 5.2411 l 2.598,-15.2641 c 1.5104,-8.763 3.0208,-14.6453 4.9542,-19.1716 2.175,-5.2662 5.2713,-8.7209 7.5521,-8.7209 1.5104,0 2.3562,1.3561 2.3562,3.8654 0,1.4825 -0.302,3.7864 -0.8458,6.7487 l -2.7792,14.9744 c -1.6312,8.189 -1.6765,8.8473 -1.6765,11.7674 0,4.4446 1.8578,7.3647 4.6974,7.3647 2.0088,0 3.9422,-1.6878 5.9964,-5.0186 1.2687,-2.1408 2.0995,-4.0313 4.5766,-10.3271 l -1.873,-2.2223 c -3.1266,8.2284 -5.3771,12.2202 -6.9328,12.2202 -0.6646,0 -1.2688,-1.1533 -1.2688,-2.6331 0,-0.9479 0.1813,-2.0986 0.725,-5.1846 l 3.8063,-20.4065 c 0.4229,-2.304 0.725,-5.5953 0.725,-7.8993 0,-5.5954 -2.3563,-9.5871 -5.6188,-9.5871 -4.2896,0 -8.1563,4.8554 -11.6605,14.8533 0.2417,-2.017 0.3625,-3.7838 0.3625,-5.0608 0,-5.5954 -2.5526,-9.7925 -5.8604,-9.7925 -3.8214,0 -6.5855,3.7047 -10.8298,14.2371 l 1.7672,-14.2371"
     id="path118"
     style="stroke-width:1.99427" />
  <path
     class="Fingering"
     d="m 3354.8361,1491.4368 c -8.4433,0 -14.6058,16.004 -14.6058,38.1379 0,21.6836 5.9662,37.5638 14.1074,37.5638 8.4735,0 14.4094,-15.3457 14.4094,-37.2742 0,-11.1512 -1.3442,-20.4065 -3.8818,-27.6897 -2.3562,-6.6249 -6.2229,-10.7378 -10.0292,-10.7378 m -0.4229,4.5263 c 1.9787,0 3.9271,2.304 5.3771,6.5406 1.6313,4.9371 2.175,10.9432 2.175,25.3858 0,14.8507 -0.4229,21.8047 -1.6312,26.4126 -1.3896,5.1846 -3.5646,8.3101 -5.8454,8.3101 -2.0542,0 -3.9422,-2.304 -5.3771,-6.5011 -1.7068,-4.9766 -2.175,-11.4777 -2.175,-28.7561 0,-12.344 0.4229,-18.4318 1.6313,-23.0818 1.3895,-5.2662 3.5646,-8.3101 5.8453,-8.3101"
     id="path120"
     style="stroke-width:1.99427" />
  <path
     class="Fingering"
     d="m 3689.0026,1313.6102 -1.6615,9.5029 c -0.3927,-6.5406 -3.4135,-11.0669 -7.3557,-11.0669 -9.1079,0 -14.8475,19.9958 -14.8475,33.9012 0,10.327 3.5646,17.1573 8.9266,17.1573 3.8214,0 6.1474,-2.6331 9.1683,-10.2033 -0.2266,1.6035 -0.2719,2.304 -0.2719,3.373 0,4.1129 1.5104,6.8303 3.6703,6.8303 4.8485,0 8.2168,-9.5872 10.0444,-16.4174 l -1.8881,-1.7695 c -2.2958,8.1047 -4.4255,12.4256 -5.9812,12.4256 -0.725,0 -1.2688,-1.1928 -1.2688,-2.6331 0,-1.1928 0.2266,-2.9622 0.6646,-5.7191 l 6.0417,-35.381 h -5.2412 m -7.975,4.2367 c 2.8245,0 4.5766,3.4573 4.5766,9.3817 0,6.0878 -1.2084,14.3978 -3.0662,21.0227 -1.888,6.5407 -4.0631,9.5029 -7.0839,9.5029 -3.0209,0 -4.8334,-3.9075 -4.8334,-10.327 0,-9.4608 3.3985,-29.5803 10.4069,-29.5803"
     id="path122"
     style="stroke-width:1.99427" />
  <path
     class="Fingering"
     d="m 2816.732,1690.4914 c -8.4433,0 -14.6058,16.004 -14.6058,38.1379 0,21.6836 5.9813,37.5638 14.1225,37.5638 8.4734,0 14.3943,-15.3457 14.3943,-37.2742 0,-11.1512 -1.3443,-20.4065 -3.8667,-27.6897 -2.3713,-6.6249 -6.238,-10.7378 -10.0443,-10.7378 m -0.4229,4.5263 c 1.9937,0 3.9271,2.304 5.3922,6.5407 1.6161,4.937 2.1599,10.9431 2.1599,25.3857 0,14.8507 -0.4229,21.8047 -1.6162,26.4127 -1.4047,5.1845 -3.5646,8.31 -5.8604,8.31 -2.0542,0 -3.9422,-2.3039 -5.3771,-6.5011 -1.7068,-4.9766 -2.175,-11.4777 -2.175,-28.7561 0,-12.344 0.4229,-18.4317 1.6312,-23.0818 1.3896,-5.2662 3.5646,-8.3101 5.8454,-8.3101"
     id="path124"
     style="stroke-width:1.99427" />
  <path
     class="Fingering"
     d="m 594.50358,1292.2452 -10.99741,1.5641 -0.23563,3.8259 h 1.43944 c 2.4771,0 3.44528,0.9479 3.44528,3.2519 0,1.0269 -0.16464,2.5093 -0.54224,4.6474 l -7.71828,45.6685 c -1.22646,7.6123 -1.27328,7.694 -5.38013,8.0231 l -0.25979,3.7838 h 14.51367 l 0.23714,-3.7838 h -0.73256 c -2.90303,0 -3.86971,-0.6161 -3.86971,-2.7569 0,-0.8215 0.2598,-2.6331 0.68423,-5.2662 l 2.94986,-17.1573 c 1.62824,7.2832 3.20965,9.258 7.19868,9.258 9.76943,0 15.69332,-18.5133 15.69332,-33.9012 0,-5.1424 -0.58906,-8.6392 -1.98168,-11.683 -1.58141,-3.3757 -3.98903,-5.4743 -6.34831,-5.4743 -3.09184,0 -6.27884,3.1703 -8.99308,8.971 l 0.8972,-8.971 m 6.2305,5.5954 c 2.71424,0 4.53128,3.6626 4.53128,9.258 0,5.8007 -1.03766,12.9601 -2.85471,19.4612 -2.101,7.8993 -4.53127,11.4777 -7.71827,11.4777 -2.97403,0 -5.07352,-4.0734 -5.07352,-9.6687 0,-9.4634 4.27148,-30.5282 11.11522,-30.5282"
     id="path126"
     style="stroke-width:1.99427" />
  <path
     class="Fingering"
     d="m 536.32804,1849.1438 c -8.44932,0 -14.60884,16.004 -14.60884,38.1404 0,21.681 5.97071,37.5613 14.11342,37.5613 8.47197,0 14.39586,-15.3458 14.39586,-37.2742 0,-11.1486 -1.34579,-20.4066 -3.87122,-27.6897 -2.35928,-6.6223 -6.2305,-10.7378 -10.02922,-10.7378 m -0.42594,4.5263 c 1.98318,0 3.91804,2.3039 5.38164,6.5406 1.62824,4.9371 2.17048,10.9458 2.17048,25.3857 0,14.8534 -0.42443,21.8047 -1.62824,26.4127 -1.39261,5.1846 -3.56309,8.3127 -5.85289,8.3127 -2.05267,0 -3.9407,-2.304 -5.38014,-6.5011 -1.69923,-4.9792 -2.17199,-11.4804 -2.17199,-28.7588 0,-12.344 0.42594,-18.4317 1.62824,-23.0818 1.39261,-5.2662 3.5646,-8.31 5.8529,-8.31"
     id="path128"
     style="stroke-width:1.99427" />
  <path
     class="Fingering"
     d="m 863.94986,1287.5978 c -1.81855,0 -3.25799,2.5515 -3.25799,5.7191 0,3.0439 1.43944,5.677 3.20966,5.677 1.86537,0 3.30481,-2.5515 3.30481,-5.677 0,-3.1676 -1.43944,-5.7191 -3.25648,-5.7191 m 1.08449,25.7123 -11.58799,1.564 -0.23562,3.8259 h 1.43943 c 2.47861,0 3.44679,0.9479 3.44679,3.2519 0,1.0269 -0.11932,2.2197 -0.54375,4.6474 l -3.51627,20.5303 c -1.13282,6.7065 -1.32162,8.189 -1.32162,10.6141 0,3.7047 1.81704,6.5432 4.10684,6.5432 5.19134,0 8.75594,-9.3817 11.30403,-16.2094 l -1.88804,-1.8115 c -3.13866,8.31 -5.66409,12.7547 -7.29233,12.7547 -0.61323,0 -1.03766,-0.9479 -1.03766,-2.2223 0,-1.0296 0.23563,-2.9623 0.73105,-5.8824 l 6.39514,-37.6059"
     id="path130"
     style="stroke-width:1.99427" />
  <path
     class="Fingering"
     d="m 797.83854,1596.516 c -8.4478,0 -14.60883,16.004 -14.60883,38.1379 0,21.6809 5.97222,37.5638 14.11341,37.5638 8.47349,0 14.39587,-15.3483 14.39587,-37.2768 0,-11.1486 -1.34428,-20.4066 -3.86971,-27.6871 -2.3608,-6.6249 -6.23051,-10.7378 -10.03074,-10.7378 m -0.42443,4.5237 c 1.98319,0 3.91805,2.304 5.38165,6.5432 1.62824,4.9371 2.17048,10.9432 2.17048,25.3832 0,14.8533 -0.42443,21.8073 -1.62824,26.4152 -1.39261,5.182 -3.56309,8.3101 -5.8529,8.3101 -2.05266,0 -3.94069,-2.304 -5.38164,-6.5011 -1.69923,-4.9792 -2.17048,-11.4777 -2.17048,-28.7588 0,-12.3413 0.42443,-18.4317 1.62824,-23.0791 1.39261,-5.2662 3.56309,-8.3127 5.85289,-8.3127"
     id="path132"
     style="stroke-width:1.99427" />
  <path
     class="Fingering"
     d="m 1117.5821,1313.3101 -10.9975,1.564 -0.1888,3.8259 h 1.4636 c 2.4077,0 3.3743,0.9479 3.3743,3.3335 0,0.9453 -0.1888,2.5515 -0.4954,4.5658 l -6.1595,36.2052 h 5.2623 l 2.4786,-14.8507 c 2.7143,-16.1278 8.2122,-28.3059 12.7435,-28.3059 1.5814,0 2.5496,1.4403 2.5496,4.0734 0,2.1381 -0.4954,6.5407 -1.228,10.5325 l -4.8137,28.5507 h 5.2396 l 2.595,-15.2641 c 1.5104,-8.763 3.0208,-14.6453 4.9572,-19.1716 2.1705,-5.2662 5.2623,-8.7209 7.5521,-8.7209 1.5104,0 2.3593,1.3561 2.3593,3.8654 0,1.4825 -0.3066,3.7864 -0.8489,6.7487 l -2.7852,14.9744 c -1.6282,8.189 -1.6751,8.8473 -1.6751,11.7674 0,4.4446 1.8639,7.3647 4.696,7.3647 2.0058,0 3.9407,-1.6878 5.9948,-5.0186 1.2733,-2.1408 2.0995,-4.0313 4.5781,-10.3271 l -1.8638,-2.2223 c -3.1402,8.2284 -5.3817,12.2202 -6.9389,12.2202 -0.6616,0 -1.2748,-1.1533 -1.2748,-2.6331 0,-0.9479 0.1888,-2.0986 0.731,-5.1846 l 3.8002,-20.4065 c 0.4245,-2.304 0.7311,-5.5953 0.7311,-7.8993 0,-5.5954 -2.3593,-9.5871 -5.6158,-9.5871 -4.2956,0 -8.1668,4.8554 -11.6589,14.8533 0.2356,-2.017 0.3534,-3.7838 0.3534,-5.0608 0,-5.5954 -2.5481,-9.7925 -5.8529,-9.7925 -3.8229,0 -6.5839,3.7047 -10.8328,14.2371 l 1.7703,-14.2371"
     id="path134"
     style="stroke-width:1.99427" />
  <path
     class="Fingering"
     d="m 1057.8115,1511.9566 c -8.4478,0 -14.6073,16.0066 -14.6073,38.1405 0,21.6809 5.9707,37.5612 14.1119,37.5612 8.4735,0 14.3974,-15.3458 14.3974,-37.2742 0,-11.1486 -1.3458,-20.4066 -3.8713,-27.6871 -2.3593,-6.6249 -6.2305,-10.7404 -10.0307,-10.7404 m -0.4244,4.5263 c 1.9832,0 3.918,2.3039 5.3816,6.5432 1.6283,4.9371 2.1705,10.9432 2.1705,25.3831 0,14.8534 -0.4244,21.8048 -1.6282,26.4127 -1.3927,5.1846 -3.5631,8.3127 -5.8529,8.3127 -2.0527,0 -3.9407,-2.304 -5.3802,-6.5011 -1.6992,-4.9792 -2.172,-11.4777 -2.172,-28.7588 0,-12.3413 0.4245,-18.4317 1.6283,-23.0818 1.3926,-5.2662 3.5646,-8.31 5.8529,-8.31"
     id="path136"
     style="stroke-width:1.99427" />
  <path
     class="Fingering"
     d="m 1405.889,1313.6102 -1.6615,9.5029 c -0.3927,-6.5406 -3.4135,-11.0669 -7.3557,-11.0669 -9.1079,0 -14.8475,19.9958 -14.8475,33.9012 0,10.327 3.5646,17.1573 8.9266,17.1573 3.8214,0 6.1474,-2.6331 9.1683,-10.2033 -0.2266,1.6035 -0.2719,2.304 -0.2719,3.373 0,4.1129 1.5104,6.8303 3.6703,6.8303 4.8485,0 8.2168,-9.5872 10.0444,-16.4174 l -1.8881,-1.7695 c -2.2958,8.1047 -4.4255,12.4256 -5.9812,12.4256 -0.725,0 -1.2688,-1.1928 -1.2688,-2.6331 0,-1.1928 0.2266,-2.9622 0.6646,-5.7191 l 6.0417,-35.381 h -5.2412 m -7.975,4.2367 c 2.8245,0 4.5766,3.4573 4.5766,9.3817 0,6.0878 -1.2084,14.3978 -3.0662,21.0227 -1.888,6.5407 -4.063,9.5029 -7.0839,9.5029 -3.0209,0 -4.8334,-3.9075 -4.8334,-10.327 0,-9.4608 3.3985,-29.5803 10.4069,-29.5803"
     id="path138"
     style="stroke-width:1.99427" />
  <path
     class="Fingering"
     d="m 1340.1855,1393.4722 c -8.4584,0 -14.6209,16.004 -14.6209,38.1405 0,21.681 5.9813,37.5612 14.1225,37.5612 8.4735,0 14.3943,-15.3457 14.3943,-37.2742 0,-11.1485 -1.3443,-20.4065 -3.8667,-27.6897 -2.3713,-6.6222 -6.238,-10.7378 -10.0292,-10.7378 m -0.4229,4.5263 c 1.9787,0 3.912,2.304 5.3771,6.5407 1.6313,4.937 2.175,10.9458 2.175,25.3857 0,14.8533 -0.438,21.8047 -1.6312,26.4126 -1.3896,5.1846 -3.5646,8.3101 -5.8605,8.3101 -2.0542,0 -3.9422,-2.3039 -5.3771,-6.4985 -1.7068,-4.9792 -2.175,-11.4803 -2.175,-28.7587 0,-12.344 0.4229,-18.4317 1.6312,-23.0818 1.3896,-5.2662 3.5646,-8.3101 5.8605,-8.3101"
     id="path140"
     style="stroke-width:1.99427" />
  <path
     class="Fingering"
     d="m 1748.3629,1292.2452 -11.011,1.5641 -0.2266,3.8259 h 1.4349 c 2.4771,0 3.4438,0.9479 3.4438,3.2519 0,1.0269 -0.1662,2.5093 -0.5438,4.6474 l -7.7183,45.6685 c -1.2234,7.6123 -1.2687,7.694 -5.3771,8.0231 l -0.2568,3.7838 h 14.5152 l 0.2266,-3.7838 h -0.725 c -2.9,0 -3.8667,-0.6161 -3.8667,-2.7569 0,-0.8215 0.2568,-2.6331 0.6797,-5.2662 l 2.9453,-17.1573 c 1.6313,7.2832 3.2172,9.258 7.2048,9.258 9.7724,0 15.6933,-18.5133 15.6933,-33.9012 0,-5.1424 -0.5891,-8.6392 -1.9787,-11.683 -1.5859,-3.3757 -3.9875,-5.4743 -6.3589,-5.4743 -3.0812,0 -6.2682,3.1703 -8.987,8.971 l 0.9063,-8.971 m 6.2229,5.5954 c 2.7188,0 4.5313,3.6626 4.5313,9.258 0,5.8007 -1.0422,12.9601 -2.8547,19.4612 -2.0995,7.8993 -4.5313,11.4777 -7.7183,11.4777 -2.9755,0 -5.075,-4.0734 -5.075,-9.6687 0,-9.4634 4.2745,-30.5282 11.1167,-30.5282"
     id="path142"
     style="stroke-width:1.99427" />
  <path
     class="Fingering"
     d="m 1688.6708,1752.6748 c -8.4432,0 -14.6058,16.004 -14.6058,38.1378 0,21.681 5.9662,37.5639 14.1074,37.5639 8.4735,0 14.3944,-15.3484 14.3944,-37.2768 0,-11.1486 -1.3443,-20.4066 -3.8667,-27.6871 -2.3563,-6.6249 -6.2381,-10.7378 -10.0293,-10.7378 m -0.4229,4.5237 c 1.9787,0 3.912,2.3039 5.3771,6.5432 1.6313,4.9371 2.1751,10.9432 2.1751,25.3831 0,14.8534 -0.423,21.8074 -1.6313,26.4153 -1.3896,5.182 -3.5646,8.3101 -5.8605,8.3101 -2.039,0 -3.9271,-2.304 -5.3771,-6.5012 -1.6916,-4.9791 -2.175,-11.4776 -2.175,-28.7587 0,-12.3413 0.438,-18.4317 1.6313,-23.0791 1.3896,-5.2662 3.5646,-8.3127 5.8604,-8.3127"
     id="path144"
     style="stroke-width:1.99427" />
  <path
     class="Fingering"
     d="m 2017.8076,1287.5978 c -1.8276,0 -3.2625,2.5515 -3.2625,5.7191 0,3.0439 1.4349,5.677 3.2021,5.677 1.8729,0 3.3078,-2.5515 3.3078,-5.677 0,-3.1676 -1.4349,-5.7191 -3.2474,-5.7191 m 1.0724,25.7123 -11.5849,1.564 -0.2266,3.8259 h 1.4349 c 2.4771,0 3.4438,0.9479 3.4438,3.2519 0,1.0269 -0.1209,2.2197 -0.5438,4.6474 l -3.5193,20.5303 c -1.1328,6.7065 -1.314,8.189 -1.314,10.6141 0,3.7047 1.8125,6.5432 4.1083,6.5432 5.1808,0 8.7454,-9.3817 11.298,-16.2094 l -1.888,-1.8115 c -3.1417,8.31 -5.6641,12.7547 -7.2954,12.7547 -0.6042,0 -1.0271,-0.9479 -1.0271,-2.2223 0,-1.0296 0.2266,-2.9623 0.725,-5.8824 l 6.3891,-37.6059"
     id="path146"
     style="stroke-width:1.99427" />
  <path
     class="Fingering"
     d="m 1957.1187,1556.7456 c -8.4432,0 -14.6058,16.004 -14.6058,38.1379 0,21.6836 5.9662,37.5638 14.1225,37.5638 8.4584,0 14.3944,-15.3457 14.3944,-37.2742 0,-11.1512 -1.3443,-20.4065 -3.8818,-27.6897 -2.3563,-6.6222 -6.223,-10.7378 -10.0293,-10.7378 m -0.4229,4.5263 c 1.9787,0 3.9271,2.304 5.3771,6.5407 1.6313,4.937 2.175,10.9431 2.175,25.3857 0,14.8507 -0.4229,21.8047 -1.6312,26.4127 -1.3896,5.1845 -3.5646,8.31 -5.8454,8.31 -2.0541,0 -3.9422,-2.3039 -5.3771,-6.4985 -1.7068,-4.9792 -2.175,-11.4803 -2.175,-28.7587 0,-12.344 0.4229,-18.4317 1.6313,-23.0818 1.3896,-5.2662 3.5646,-8.3101 5.8453,-8.3101"
     id="path148"
     style="stroke-width:1.99427" />
  <path
     class="Fingering"
     d="m 2271.4382,1313.3101 -10.9959,1.564 -0.1963,3.8259 h 1.4651 c 2.4016,0 3.3683,0.9479 3.3683,3.3335 0,0.9453 -0.1813,2.5515 -0.4834,4.5658 l -6.1625,36.2052 h 5.2563 l 2.4771,-14.8507 c 2.7187,-16.1278 8.2167,-28.3059 12.7479,-28.3059 1.586,0 2.5527,1.4403 2.5527,4.0734 0,2.1381 -0.4985,6.5407 -1.2235,10.5325 l -4.8182,28.5507 h 5.2411 l 2.598,-15.2641 c 1.5104,-8.763 3.0208,-14.6453 4.9542,-19.1716 2.1599,-5.2662 5.2562,-8.7209 7.5521,-8.7209 1.5104,0 2.3563,1.3561 2.3563,3.8654 0,1.4825 -0.3021,3.7864 -0.8459,6.7487 l -2.7943,14.9744 c -1.6312,8.189 -1.6765,8.8473 -1.6765,11.7674 0,4.4446 1.8729,7.3647 4.6974,7.3647 2.0089,0 3.9422,-1.6878 5.9964,-5.0186 1.2838,-2.1408 2.0995,-4.0313 4.5766,-10.3271 l -1.8579,-2.2223 c -3.1416,8.2284 -5.3771,12.2202 -6.9479,12.2202 -0.6495,0 -1.2688,-1.1533 -1.2688,-2.6331 0,-0.9479 0.1964,-2.0986 0.7401,-5.1846 l 3.7912,-20.4065 c 0.4229,-2.304 0.7401,-5.5953 0.7401,-7.8993 0,-5.5954 -2.3714,-9.5871 -5.6188,-9.5871 -4.3047,0 -8.1714,4.8554 -11.6605,14.8533 0.2266,-2.017 0.3474,-3.7838 0.3474,-5.0608 0,-5.5954 -2.5526,-9.7925 -5.8453,-9.7925 -3.8214,0 -6.5855,3.7047 -10.8298,14.2371 l 1.7672,-14.2371"
     id="path150"
     style="stroke-width:1.99427" />
  <path
     class="Fingering"
     d="m 2559.7331,1313.6102 -1.6463,9.5029 c -0.4079,-6.5406 -3.4287,-11.0669 -7.3709,-11.0669 -9.1079,0 -14.8324,19.9958 -14.8324,33.9012 0,10.327 3.5495,17.1573 8.9115,17.1573 3.8214,0 6.1626,-2.6331 9.1834,-10.2033 -0.2417,1.6035 -0.287,2.304 -0.287,3.373 0,4.1129 1.5104,6.8303 3.6855,6.8303 4.8333,0 8.2167,-9.5872 10.0292,-16.4174 l -1.888,-1.7695 c -2.2959,8.1047 -4.4105,12.4256 -5.9662,12.4256 -0.7401,0 -1.2839,-1.1928 -1.2839,-2.6331 0,-1.1928 0.2417,-2.9622 0.6646,-5.7191 l 6.0417,-35.381 h -5.2412 m -7.975,4.2367 c 2.8396,0 4.5766,3.4573 4.5766,9.3817 0,6.0878 -1.1933,14.3978 -3.0662,21.0227 -1.888,6.5407 -4.063,9.5029 -7.0839,9.5029 -3.0208,0 -4.8334,-3.9075 -4.8334,-10.327 0,-9.4608 3.3985,-29.5803 10.4069,-29.5803"
     id="path152"
     style="stroke-width:1.99427" />
  <path
     class="Fingering"
     d="m 2494.0296,1393.4722 c -8.4433,0 -14.6058,16.004 -14.6058,38.1405 0,21.681 5.9662,37.5612 14.1074,37.5612 8.4735,0 14.3943,-15.3457 14.3943,-37.2742 0,-11.1485 -1.3442,-20.4065 -3.8667,-27.6897 -2.3562,-6.6222 -6.2229,-10.7378 -10.0292,-10.7378 m -0.4229,4.5263 c 1.9787,0 3.912,2.304 5.3771,6.5407 1.6313,4.937 2.175,10.9458 2.175,25.3857 0,14.8533 -0.4229,21.8047 -1.6312,26.4126 -1.3896,5.1846 -3.5646,8.3101 -5.8454,8.3101 -2.0542,0 -3.9422,-2.3039 -5.3922,-6.4985 -1.6917,-4.9792 -2.1599,-11.4803 -2.1599,-28.7587 0,-12.344 0.4229,-18.4317 1.6313,-23.0818 1.3895,-5.2662 3.5495,-8.3101 5.8453,-8.3101"
     id="path154"
     style="stroke-width:1.99427" />
  <path
     class="Fingering"
     d="m 2877.6172,1292.2452 -10.9959,1.5641 -0.2416,3.8259 h 1.45 c 2.4771,0 3.4438,0.9479 3.4438,3.2519 0,1.0269 -0.1662,2.5093 -0.5438,4.6474 l -7.7183,45.6685 c -1.2234,7.6123 -1.2838,7.694 -5.3771,8.0231 l -0.2719,3.7838 h 14.5152 l 0.2417,-3.7838 h -0.725 c -2.9151,0 -3.8818,-0.6161 -3.8818,-2.7569 0,-0.8215 0.2568,-2.6331 0.6948,-5.2662 l 2.9453,-17.1573 c 1.6313,7.2832 3.2021,9.258 7.1896,9.258 9.7725,0 15.7085,-18.5133 15.7085,-33.9012 0,-5.1424 -0.6042,-8.6392 -1.9938,-11.683 -1.5708,-3.3757 -3.9875,-5.4743 -6.3438,-5.4743 -3.0964,0 -6.2834,3.1703 -8.987,8.971 l 0.8911,-8.971 m 6.2381,5.5954 c 2.7037,0 4.5313,3.6626 4.5313,9.258 0,5.8007 -1.0422,12.9601 -2.8698,19.4612 -2.0995,7.8993 -4.5313,11.4777 -7.7032,11.4777 -2.9755,0 -5.075,-4.0734 -5.075,-9.6687 0,-9.4634 4.2594,-30.5282 11.1167,-30.5282"
     id="path156"
     style="stroke-width:1.99427" />
  <path
     class="Fingering"
     d="m 3147.062,1287.5978 c -1.8125,0 -3.2625,2.5515 -3.2625,5.7191 0,3.0439 1.45,5.677 3.2172,5.677 1.8578,0 3.3078,-2.5515 3.3078,-5.677 0,-3.1676 -1.45,-5.7191 -3.2625,-5.7191 m 1.0875,25.7123 -11.5849,1.564 -0.2417,3.8259 h 1.4349 c 2.4922,0 3.4589,0.9479 3.4589,3.2519 0,1.0269 -0.1209,2.2197 -0.5438,4.6474 l -3.5193,20.5303 c -1.1328,6.7065 -1.3292,8.189 -1.3292,10.6141 0,3.7047 1.8277,6.5432 4.1084,6.5432 5.1959,0 8.7605,-9.3817 11.3131,-16.2094 l -1.888,-1.8115 c -3.1417,8.31 -5.6641,12.7547 -7.2954,12.7547 -0.6193,0 -1.0422,-0.9479 -1.0422,-2.2223 0,-1.0296 0.2417,-2.9623 0.7401,-5.8824 l 6.3891,-37.6059"
     id="path158"
     style="stroke-width:1.99427" />
  <path
     class="Fingering"
     d="m 3623.2991,1393.4722 c -8.4584,0 -14.6058,16.004 -14.6058,38.1405 0,21.681 5.9662,37.5612 14.1074,37.5612 8.4735,0 14.3943,-15.3457 14.3943,-37.2742 0,-11.1485 -1.3443,-20.4065 -3.8667,-27.6897 -2.3562,-6.6222 -6.238,-10.7378 -10.0292,-10.7378 m -0.4229,4.5263 c 1.9787,0 3.912,2.304 5.3771,6.5407 1.6313,4.937 2.175,10.9458 2.175,25.3857 0,14.8533 -0.438,21.8047 -1.6312,26.4126 -1.3896,5.1846 -3.5646,8.3101 -5.8605,8.3101 -2.0542,0 -3.9422,-2.3039 -5.3771,-6.4985 -1.6917,-4.9792 -2.175,-11.4803 -2.175,-28.7587 0,-12.344 0.4229,-18.4317 1.6312,-23.0818 1.3896,-5.2662 3.5646,-8.3101 5.8605,-8.3101"
     id="path160"
     style="stroke-width:1.99427" />
  <metadata
     id="metadata950">
    <rdf:RDF>
      <cc:Work
         rdf:about="">
        <dc:title>cordeavide0020</dc:title>
      </cc:Work>
    </rdf:RDF>
  </metadata>
</svg>
