<?xml version="1.0" encoding="UTF-8" standalone="no"?>
<!-- Created with Inkscape (http://www.inkscape.org/) -->

<svg
   width="297mm"
   height="210mm"
   viewBox="0 0 297 210"
   version="1.1"
   id="svg830"
   inkscape:version="1.2.2 (b0a8486541, 2022-12-01)"
   sodipodi:docname="rosace.svg"
   xmlns:inkscape="http://www.inkscape.org/namespaces/inkscape"
   xmlns:sodipodi="http://sodipodi.sourceforge.net/DTD/sodipodi-0.dtd"
   xmlns="http://www.w3.org/2000/svg"
   xmlns:svg="http://www.w3.org/2000/svg">
  <sodipodi:namedview
     id="namedview832"
     pagecolor="#ffffff"
     bordercolor="#000000"
     borderopacity="1"
     inkscape:showpageshadow="true"
     inkscape:pageopacity="0.0"
     inkscape:pagecheckerboard="false"
     inkscape:deskcolor="#003b00"
     inkscape:document-units="mm"
     showgrid="true"
     inkscape:zoom="0.3107219"
     inkscape:cx="550.33134"
     inkscape:cy="550.33134"
     inkscape:window-width="1104"
     inkscape:window-height="552"
     inkscape:window-x="0"
     inkscape:window-y="32"
     inkscape:window-maximized="1"
     inkscape:current-layer="g6757"
     showborder="true"
     borderlayer="true"
     shape-rendering="auto">
    <inkscape:grid
       type="xygrid"
       id="grid3436"
       originx="0"
       originy="0" />
  </sodipodi:namedview>
  <defs
     id="defs827">
    <linearGradient
       id="linearGradient8333"
       inkscape:swatch="solid">
      <stop
         style="stop-color:#000000;stop-opacity:1;"
         offset="0"
         id="stop8331" />
    </linearGradient>
  </defs>
  <g
     inkscape:label="Calque 1"
     inkscape:groupmode="layer"
     id="layer1" />
  <g
     inkscape:label="Copie de Calque 1"
     inkscape:groupmode="layer"
     id="g896" />
  <g
     inkscape:label="Copie de Copie de Calque 3"
     inkscape:groupmode="layer"
     id="g908" />
  <g
     inkscape:label="Copie de Copie de Calque 2"
     inkscape:groupmode="layer"
     id="g904" />
  <g
     inkscape:label="Copie de Copie de Copie de Calque 3"
     inkscape:groupmode="layer"
     id="g6749" />
  <g
     inkscape:label="Copie de Copie de Copie de Copie de Calque 4"
     inkscape:groupmode="layer"
     id="g6757">
    <ellipse
       style="fill:#ffffff;stroke:#000000;stroke-width:38.0533;stroke-dasharray:3.4248;stroke-dashoffset:0;stroke-opacity:1;paint-order:markers stroke fill"
       id="path5043"
       cx="145.03868"
       cy="76.336174"
       rx="41.841221"
       ry="39.681671" />
    <ellipse
       style="fill:#ffffff;stroke:#000000;stroke-width:5.32747;stroke-dasharray:0.79912;stroke-dashoffset:0;stroke-opacity:1;paint-order:markers stroke fill"
       id="path8545"
       cx="144.42307"
       cy="77.425827"
       rx="44.945568"
       ry="43.865795" />
    <rect
       style="fill:#000000;fill-opacity:1;stroke:#ffffff;stroke-width:1.77582;stroke-dasharray:none;stroke-dashoffset:0;stroke-opacity:1;paint-order:markers stroke fill"
       id="rect8602"
       width="156.56714"
       height="2.1595469"
       x="64.753578"
       y="50.915417" />
    <rect
       style="fill:#000000;fill-opacity:1;stroke:#ffffff;stroke-width:1.52213;stroke-dasharray:none;stroke-dashoffset:0;stroke-opacity:1;paint-order:markers stroke fill"
       id="rect11464"
       width="156.02727"
       height="1.8896034"
       x="65.029404"
       y="62.476891" />
    <rect
       style="fill:#000000;fill-opacity:1;stroke:#ffffff;stroke-width:1.52213;stroke-dasharray:none;stroke-dashoffset:0;stroke-opacity:1;paint-order:markers stroke fill"
       id="rect11518"
       width="155.58614"
       height="1.8896034"
       x="65.036682"
       y="71.385017" />
    <rect
       style="fill:#000000;fill-opacity:1;stroke:#ffffff;stroke-width:1.52213;stroke-dasharray:none;stroke-dashoffset:0;stroke-opacity:1;paint-order:markers stroke fill"
       id="rect11520"
       width="154.94748"
       height="0.26994336"
       x="65.576576"
       y="100.53891" />
    <rect
       style="fill:#000000;fill-opacity:1;stroke:#ffffff;stroke-width:1.52213;stroke-dasharray:none;stroke-dashoffset:0;stroke-opacity:1;paint-order:markers stroke fill"
       id="rect11522"
       width="155.48737"
       height="1.61966"
       x="65.306633"
       y="81.102982" />
    <rect
       style="fill:#000000;fill-opacity:1;stroke:#ffffff;stroke-width:1.52213;stroke-dasharray:none;stroke-dashoffset:0;stroke-opacity:1;paint-order:markers stroke fill"
       id="rect11524"
       width="155.74414"
       height="1.0797734"
       x="65.530487"
       y="90.465401" />
    <text
       xml:space="preserve"
       style="font-size:8.05462px;font-family:'Courier New';-inkscape-font-specification:'Courier New, Normal';fill:#000000;fill-opacity:1;stroke:#ffffff;stroke-width:1.52213;stroke-dasharray:3.4248;stroke-dashoffset:0;stroke-opacity:1;paint-order:markers stroke fill"
       x="223.15106"
       y="51.962265"
       id="text11603"><tspan
         sodipodi:role="line"
         id="tspan11601"
         style="stroke-width:1.52213"
         x="223.15106"
         y="51.962265">Mi</tspan></text>
    <text
       xml:space="preserve"
       style="font-size:8.05462px;font-family:'Courier New';-inkscape-font-specification:'Courier New, Normal';fill:#000000;fill-opacity:1;stroke:#ffffff;stroke-width:1.52213;stroke-dasharray:3.4248;stroke-dashoffset:0;stroke-opacity:1;paint-order:markers stroke fill"
       x="222.78235"
       y="62.54932"
       id="text11607"><tspan
         sodipodi:role="line"
         id="tspan11605"
         style="stroke-width:1.52213"
         x="222.78235"
         y="62.54932">La</tspan></text>
    <text
       xml:space="preserve"
       style="font-size:8.05462px;font-family:'Courier New';-inkscape-font-specification:'Courier New, Normal';fill:#000000;fill-opacity:1;stroke:#ffffff;stroke-width:1.52213;stroke-dasharray:3.4248;stroke-dashoffset:0;stroke-opacity:1;paint-order:markers stroke fill"
       x="222.49925"
       y="72.096092"
       id="text11661"><tspan
         sodipodi:role="line"
         id="tspan11659"
         style="stroke-width:1.52213"
         x="222.49925"
         y="72.096092">Ré</tspan></text>
    <text
       xml:space="preserve"
       style="font-size:8.05462px;font-family:'Courier New';-inkscape-font-specification:'Courier New, Normal';fill:#000000;fill-opacity:1;stroke:#ffffff;stroke-width:1.52213;stroke-dasharray:3.4248;stroke-dashoffset:0;stroke-opacity:1;paint-order:markers stroke fill"
       x="221.89351"
       y="82.17617"
       id="text11665"><tspan
         sodipodi:role="line"
         id="tspan11663"
         style="stroke-width:1.52213"
         x="221.89351"
         y="82.17617">Sol</tspan></text>
    <text
       xml:space="preserve"
       style="font-size:8.05462px;font-family:'Courier New';-inkscape-font-specification:'Courier New, Normal';fill:#000000;fill-opacity:1;stroke:#ffffff;stroke-width:1.52213;stroke-dasharray:3.4248;stroke-dashoffset:0;stroke-opacity:1;paint-order:markers stroke fill"
       x="223.2959"
       y="91.913185"
       id="text11669"><tspan
         sodipodi:role="line"
         id="tspan11667"
         style="stroke-width:1.52213"
         x="223.2959"
         y="91.913185">Si</tspan></text>
    <text
       xml:space="preserve"
       style="font-size:8.05462px;font-family:'Courier New';-inkscape-font-specification:'Courier New, Normal';fill:#000000;fill-opacity:1;stroke:#ffffff;stroke-width:1.52213;stroke-dasharray:3.4248;stroke-dashoffset:0;stroke-opacity:1;paint-order:markers stroke fill"
       x="223.69095"
       y="100.9142"
       id="text11673"><tspan
         sodipodi:role="line"
         id="tspan11671"
         style="stroke-width:1.52213"
         x="223.69095"
         y="100.9142">Mi</tspan></text>
    <ellipse
       style="fill:#000000;fill-opacity:0;stroke:#000000;stroke-width:1.77582;stroke-dasharray:none;stroke-dashoffset:0;stroke-opacity:1;paint-order:markers stroke fill"
       id="path15527"
       cx="144.85434"
       cy="76.533882"
       rx="60.717445"
       ry="58.235428" />
    <polyline
       class="StaffLines"
       fill="none"
       stroke="#000000"
       stroke-width="2.73"
       stroke-linejoin="bevel"
       points="336.614,634.252 2763.78,634.252"
       id="polyline1"
       transform="matrix(0.10375464,0,0,0.10375464,-12.759851,106.58504)" />
    <polyline
       class="StaffLines"
       fill="none"
       stroke="#000000"
       stroke-width="2.73"
       stroke-linejoin="bevel"
       points="336.614,659.055 2763.78,659.055"
       id="polyline2"
       transform="matrix(0.10375464,0,0,0.10375464,-12.759851,106.58504)" />
    <polyline
       class="StaffLines"
       fill="none"
       stroke="#000000"
       stroke-width="2.73"
       stroke-linejoin="bevel"
       points="336.614,683.858 2763.78,683.858"
       id="polyline3"
       transform="matrix(0.10375464,0,0,0.10375464,-12.759851,106.58504)" />
    <polyline
       class="StaffLines"
       fill="none"
       stroke="#000000"
       stroke-width="2.73"
       stroke-linejoin="bevel"
       points="336.614,708.661 2763.78,708.661"
       id="polyline4"
       transform="matrix(0.10375464,0,0,0.10375464,-12.759851,106.58504)" />
    <polyline
       class="StaffLines"
       fill="none"
       stroke="#000000"
       stroke-width="2.73"
       stroke-linejoin="bevel"
       points="336.614,733.465 2763.78,733.465"
       id="polyline5"
       transform="matrix(0.10375464,0,0,0.10375464,-12.759851,106.58504)" />
    <polyline
       class="BarLine"
       fill="none"
       stroke="#000000"
       stroke-width="4.46"
       stroke-linejoin="bevel"
       points="2739.59,632.888 2739.59,734.829"
       id="polyline6"
       transform="matrix(0.10375464,0,0,0.10375464,-12.759851,106.58504)" />
    <polyline
       class="BarLine"
       fill="none"
       stroke="#000000"
       stroke-width="13.64"
       stroke-linejoin="bevel"
       points="2756.96,632.888 2756.96,734.829"
       id="polyline7"
       transform="matrix(0.10375464,0,0,0.10375464,-12.759851,106.58504)" />
    <polyline
       class="LedgerLine"
       fill="none"
       stroke="#000000"
       stroke-width="3.97"
       stroke-linejoin="bevel"
       points="894.891,783.071 944.49,783.071"
       id="polyline8"
       transform="matrix(0.10375464,0,0,0.10375464,-12.759851,106.58504)" />
    <polyline
       class="LedgerLine"
       fill="none"
       stroke="#000000"
       stroke-width="3.97"
       stroke-linejoin="bevel"
       points="894.891,758.268 944.49,758.268"
       id="polyline9"
       transform="matrix(0.10375464,0,0,0.10375464,-12.759851,106.58504)" />
    <polyline
       class="LedgerLine"
       fill="none"
       stroke="#000000"
       stroke-width="3.97"
       stroke-linejoin="bevel"
       points="528.133,807.874 577.732,807.874"
       id="polyline10"
       transform="matrix(0.10375464,0,0,0.10375464,-12.759851,106.58504)" />
    <polyline
       class="LedgerLine"
       fill="none"
       stroke="#000000"
       stroke-width="3.97"
       stroke-linejoin="bevel"
       points="528.133,783.071 577.732,783.071"
       id="polyline11"
       transform="matrix(0.10375464,0,0,0.10375464,-12.759851,106.58504)" />
    <polyline
       class="LedgerLine"
       fill="none"
       stroke="#000000"
       stroke-width="3.97"
       stroke-linejoin="bevel"
       points="528.133,758.268 577.732,758.268"
       id="polyline12"
       transform="matrix(0.10375464,0,0,0.10375464,-12.759851,106.58504)" />
    <polyline
       class="Stem"
       fill="none"
       stroke="#000000"
       stroke-width="2.73"
       stroke-linejoin="bevel"
       points="567.686,816.307 567.686,683.858"
       id="polyline13"
       transform="matrix(0.10375464,0,0,0.10375464,-12.759851,106.58504)" />
    <polyline
       class="Stem"
       fill="none"
       stroke="#000000"
       stroke-width="2.73"
       stroke-linejoin="bevel"
       points="934.445,779.102 934.445,683.858"
       id="polyline14"
       transform="matrix(0.10375464,0,0,0.10375464,-12.759851,106.58504)" />
    <polyline
       class="Stem"
       fill="none"
       stroke="#000000"
       stroke-width="2.73"
       stroke-linejoin="bevel"
       points="1301.2,741.898 1301.2,659.055"
       id="polyline15"
       transform="matrix(0.10375464,0,0,0.10375464,-12.759851,106.58504)" />
    <polyline
       class="Stem"
       fill="none"
       stroke="#000000"
       stroke-width="2.73"
       stroke-linejoin="bevel"
       points="2371.97,650.82 2371.97,733.465"
       id="polyline16"
       transform="matrix(0.10375464,0,0,0.10375464,-12.759851,106.58504)" />
    <polyline
       class="Stem"
       fill="none"
       stroke="#000000"
       stroke-width="2.73"
       stroke-linejoin="bevel"
       points="2005.21,688.025 2005.21,758.268"
       id="polyline17"
       transform="matrix(0.10375464,0,0,0.10375464,-12.759851,106.58504)" />
    <polyline
       class="Stem"
       fill="none"
       stroke="#000000"
       stroke-width="2.73"
       stroke-linejoin="bevel"
       points="1667.96,704.693 1667.96,621.85"
       id="polyline18"
       transform="matrix(0.10375464,0,0,0.10375464,-12.759851,106.58504)" />
    <path
       class="Note"
       d="m 195.14888,177.97114 c 0,0.4423 0.31847,0.93608 1.15322,0.93608 1.06959,0 2.19225,-0.87497 2.19225,-1.7805 0,-0.60799 -0.51468,-0.94735 -1.15321,-0.94735 -0.99882,0 -2.19226,0.84441 -2.19226,1.79177"
       id="path18"
       style="stroke-width:0.102938" />
    <path
       class="Note"
       d="m 80.989932,188.26494 c 0,0.44231 0.318458,0.93609 1.153223,0.93609 1.069592,0 2.192254,-0.87497 2.192254,-1.78049 0,-0.60799 -0.514691,-0.94735 -1.153223,-0.94735 -0.998819,0 -2.192254,0.8444 -2.192254,1.79175"
       id="path19"
       style="stroke-width:0.102938" />
    <path
       class="Note"
       d="m 233.20091,174.11094 c 0,0.44232 0.31845,0.93609 1.15321,0.93609 1.06959,0 2.19225,-0.87497 2.19225,-1.7805 0,-0.60797 -0.51468,-0.94734 -1.15321,-0.94734 -0.99883,0 -2.19225,0.84439 -2.19225,1.79175"
       id="path20"
       style="stroke-width:0.102938" />
    <path
       class="Note"
       d="m 119.04277,184.40474 c 0,0.44232 0.31847,0.93612 1.15323,0.93612 1.06959,0 2.19225,-0.87498 2.19225,-1.78053 0,-0.60797 -0.51469,-0.94734 -1.15323,-0.94734 -0.9988,0 -2.19225,0.8444 -2.19225,1.79175"
       id="path21"
       style="stroke-width:0.102938" />
    <path
       class="Note"
       d="m 42.937092,192.12514 c 0,0.4423 0.318456,0.93609 1.153214,0.93609 1.069594,0 2.192254,-0.87498 2.192254,-1.78051 0,-0.60798 -0.514685,-0.94735 -1.153221,-0.94735 -0.998814,0 -2.192247,0.84442 -2.192247,1.79177"
       id="path22"
       style="stroke-width:0.102938" />
    <path
       class="Note"
       d="m 157.09582,180.54456 c 0,0.4423 0.31847,0.93609 1.15322,0.93609 1.0696,0 2.19227,-0.87498 2.19227,-1.7805 0,-0.60799 -0.5147,-0.94735 -1.15324,-0.94735 -0.9988,0 -2.19225,0.84441 -2.19225,1.79176"
       id="path23"
       style="stroke-width:0.102938" />
    <path
       class="Clef"
       d="m 30.812226,180.08134 c 0,-1.54407 -1.101752,-2.59435 -2.604008,-2.59435 -0.102947,-0.61764 -0.196221,-1.23526 -0.287894,-1.80141 1.080846,-1.14358 1.84162,-2.43995 1.84162,-4.06604 0,-0.94735 -0.287909,-1.69848 -0.463223,-2.06997 -0.246082,-0.52438 -0.545247,-0.89598 -0.720561,-0.89598 -0.07079,0 -0.400497,0.13516 -0.730225,0.53569 -0.669094,0.78325 -0.854056,2.08927 -0.854056,2.9546 0,0.5565 0.05149,1.05993 0.22679,2.22441 -0.0113,0 -0.546856,0.54524 -0.762389,0.73021 -0.937697,0.86533 -2.234068,2.11988 -2.234068,4.16899 0,1.9349 1.677564,3.44841 3.593175,3.44841 0.297549,0 0.575802,-0.0305 0.8235,-0.0723 0.184953,0.98916 0.308814,1.70972 0.308814,2.25497 0,1.0712 -0.556512,1.63736 -1.58589,1.63736 -0.257347,0 -0.472862,-0.0515 -0.484129,-0.0626 -0.01929,0 -0.04019,-0.009 -0.04019,-0.0194 0,-0.021 0.02089,-0.0321 0.05149,-0.0417 0.484123,-0.0723 0.96665,-0.48412 0.96665,-1.14195 0,-0.55652 -0.421411,-1.14358 -1.193449,-1.14358 -0.710904,0 -1.17412,0.58706 -1.17412,1.26581 0,0.68034 0.514684,1.57623 1.904345,1.57623 1.328531,0 1.976723,-0.75273 1.976723,-2.07002 0,-0.40048 -0.06109,-0.86371 -0.164057,-1.45077 -0.03059,-0.20587 -0.08202,-0.52595 -0.154399,-0.9168 1.008454,-0.33937 1.759585,-1.38 1.759585,-2.44959 m -3.170192,-8.43133 c 0.102947,-0.41176 0.566162,-1.49259 1.101768,-1.49259 0.154408,0 0.411746,0.49376 0.411746,1.21432 0,1.05995 -0.802584,1.86415 -1.513514,2.57346 -0.06109,-0.41177 -0.112573,-0.8235 -0.112573,-1.24492 0,-0.39085 0.04019,-0.73182 0.112573,-1.05027 m 0.308816,10.64439 c -1.471679,0 -2.727846,-1.02936 -2.727846,-2.58469 0,-1.25455 0.895883,-2.37722 1.791766,-3.17016 0.173705,-0.14476 0.339371,-0.29918 0.493778,-0.44231 0.09168,0.55489 0.175315,1.02937 0.236425,1.46204 -0.937689,0.267 -1.574617,1.26581 -1.574617,2.2228 0,0.73184 0.566162,1.71939 1.389662,1.71939 0.08201,0 0.175313,-0.0418 0.175313,-0.14476 0,-0.082 -0.0933,-0.14315 -0.226783,-0.22518 -0.402105,-0.23804 -0.628888,-0.51468 -0.628888,-1.01007 0,-0.62727 0.474481,-1.13233 1.07119,-1.27547 l 0.596725,3.37603 c -0.205878,0.0515 -0.390848,0.0723 -0.596725,0.0723 m 1.029377,-0.19623 c -0.215519,-1.224 -0.49377,-2.86136 -0.566154,-3.31492 1.039033,0 1.48295,0.72056 1.574623,1.21595 0.0113,0.082 0.03059,0.19462 0.03059,0.31846 0,0.74148 -0.308808,1.49261 -1.039032,1.78051 m -0.402091,5.39457 c 0,-0.38118 -0.349026,-0.54524 -0.688397,-0.54524 -0.432659,0 -0.855674,0.26699 -0.855674,0.73021 0,0.19623 0.07238,0.34097 0.226786,0.48413 -0.266995,0.10287 -0.545255,0.30881 -0.545255,0.6289 0,0.33936 0.308815,0.56614 0.762389,0.56614 0.554896,0 0.945743,-0.30881 0.945743,-0.75273 0,-0.23644 -0.102946,-0.43105 -0.287909,-0.56616 0.299167,-0.1335 0.442317,-0.29754 0.442317,-0.54525 m -0.636928,0.41175 c -0.154408,-0.082 -0.196236,-0.10287 -0.226783,-0.12384 l -0.0113,-0.009 c -0.164065,-0.0933 -0.215534,-0.16569 -0.215534,-0.28792 0,-0.18656 0.144766,-0.32007 0.350636,-0.32007 0.205876,0 0.318457,0.12385 0.318457,0.33939 0,0.16565 -0.06109,0.27823 -0.215519,0.40209 m -0.392449,1.23526 c -0.225174,0 -0.379581,-0.14316 -0.379581,-0.3603 0,-0.19461 0.09168,-0.36992 0.266986,-0.47286 0.04179,0.0209 0.05149,0.0305 0.08204,0.0403 0.123846,0.0627 0.123846,0.0627 0.144759,0.0836 0.205878,0.11265 0.278253,0.21553 0.278253,0.36029 0,0.19461 -0.165665,0.34902 -0.392449,0.34902"
       id="path24"
       style="stroke-width:0.102938" />
    <path
       class="StaffText"
       d="m 118.48768,161.33023 h 0.30088 c 0.52397,0.0211 0.73148,0.23345 0.78855,0.8041 l 0.026,0.26426 c 0.0634,0.58684 0.2542,0.82516 0.66403,0.82516 0.42539,0 0.6277,-0.28533 0.64431,-0.90786 h -0.21892 c -0.0197,0.35828 -0.0831,0.5139 -0.22203,0.5139 -0.12035,0 -0.17224,-0.0891 -0.2594,-0.44572 l -0.0831,-0.32756 c -0.11517,-0.47655 -0.31748,-0.69547 -0.72108,-0.79921 0.74703,-0.10372 1.10394,-0.40362 1.10394,-0.92893 0,-0.59171 -0.49802,-0.92892 -1.3706,-0.92892 h -1.79392 v 0.24477 h 0.0934 c 0.29569,0.005 0.39425,0.0211 0.4368,0.073 0.03,0.0455 0.03,0.0568 0.03,0.32102 v 2.47559 c 0,0.25939 0,0.26902 -0.03,0.32091 -0.0425,0.0518 -0.14111,0.0681 -0.4368,0.0681 h -0.0934 v 0.24311 h 1.70158 v -0.24311 h -0.0934 c -0.29571,0 -0.39428,-0.0163 -0.43681,-0.0681 -0.0301,-0.0518 -0.0301,-0.0616 -0.0301,-0.32091 v -1.18353 m 0,-0.2431 v -1.14296 c -0.0108,-0.28533 0.0155,-0.30483 0.35796,-0.29995 h 0.28013 c 0.51464,0 0.74808,0.21726 0.74808,0.68903 0,0.54637 -0.29258,0.75388 -0.81551,0.75388 h -0.57066 m 3.51729,-0.71664 h 0.2127 l 0.82485,-0.50415 c 0.0831,-0.0518 0.13488,-0.12969 0.13488,-0.20107 0,-0.10371 -0.0778,-0.18157 -0.18158,-0.18157 -0.0831,0 -0.13487,0.0307 -0.25938,0.16052 l -0.73147,0.72627 m 1.45775,1.60819 c 0.005,-0.77815 -0.43577,-1.32773 -1.06866,-1.32773 -0.66403,0 -1.16207,0.57552 -1.16207,1.35368 0,0.73116 0.47209,1.21911 1.17244,1.21911 0.49698,0 0.84559,-0.24309 1.05829,-0.73592 l -0.18157,-0.099 c -0.21269,0.39883 -0.43163,0.55446 -0.77815,0.55446 -0.26458,0 -0.45757,-0.10867 -0.59141,-0.34207 -0.0923,-0.15565 -0.13488,-0.33721 -0.12969,-0.62253 h 1.68082 m -1.67668,-0.22368 c 0,-0.36317 0.16706,-0.88193 0.60386,-0.88193 0.31125,0 0.51878,0.27558 0.51878,0.69546 0,0.14589 -0.0477,0.18647 -0.21477,0.18647 h -0.90787"
       id="path39"
       style="stroke-width:0.103754" />
    <path
       class="StaffText"
       d="m 83.02425,161.9569 h -0.226913 c -0.171919,0.93379 -0.405363,1.16247 -1.209462,1.17866 h -0.218818 c -0.311265,-0.012 -0.389077,-0.0634 -0.372894,-0.24964 v -2.61503 c 0,-0.25939 0,-0.27557 0.03085,-0.3209 0.04212,-0.0518 0.141108,-0.0681 0.436079,-0.0729 h 0.0941 v -0.24485 h -1.702308 v 0.24485 h 0.09411 c 0.294979,0.005 0.393847,0.0211 0.434421,0.0729 0.03248,0.0453 0.03248,0.0568 0.03248,0.3209 v 2.46905 c 0,0.26593 0,0.27568 -0.03248,0.32268 -0.04056,0.0518 -0.139442,0.0729 -0.434421,0.0729 h -0.09411 v 0.24322 h 3.06076 l 0.108641,-1.42187 m 2.417165,-0.24796 c 0,-0.32745 -0.05672,-0.49284 -0.207508,-0.61764 -0.170259,-0.14112 -0.424768,-0.20753 -0.757098,-0.20753 -0.585171,0 -1.011606,0.27392 -1.011606,0.65334 0,0.19123 0.119954,0.31605 0.30151,0.31605 0.165388,0 0.280549,-0.10856 0.280549,-0.26416 0,-0.0681 -0.02595,-0.13944 -0.07778,-0.21238 -0.03248,-0.0374 -0.03739,-0.047 -0.03739,-0.0729 0,-0.10372 0.207507,-0.19786 0.457145,-0.19786 0.165385,0 0.346956,0.0518 0.429649,0.12968 0.09888,0.0845 0.136227,0.20754 0.136227,0.44097 v 0.20264 c -0.539931,0.0941 -0.711755,0.13455 -0.966265,0.23344 -0.450714,0.16706 -0.663094,0.40537 -0.663094,0.73769 0,0.3729 0.290201,0.60634 0.752216,0.60634 0.35837,0 0.679288,-0.14598 0.903089,-0.41025 0.08259,0.26427 0.212277,0.36803 0.455477,0.36803 0.233452,0 0.478309,-0.1491 0.478309,-0.29985 0,-0.0374 -0.02123,-0.0634 -0.05183,-0.0634 -0.02114,0 -0.04228,0.007 -0.07778,0.0211 -0.07305,0.0307 -0.103747,0.0374 -0.145981,0.0374 -0.145879,0 -0.197753,-0.094 -0.197753,-0.35826 v -1.04242 m -0.486296,0.63228 c 0,0.31126 -0.01632,0.3842 -0.103757,0.51877 -0.129695,0.19121 -0.363149,0.32092 -0.591823,0.32092 -0.238215,0 -0.410142,-0.17017 -0.410142,-0.40361 0,-0.21892 0.108643,-0.37456 0.337203,-0.48319 0.160514,-0.0729 0.363149,-0.1248 0.768519,-0.19121 v 0.23832"
       id="path40"
       style="stroke-width:0.103754" />
    <path
       class="StaffText"
       d="m 158.24958,160.47779 h -0.1909 l -0.20753,0.31126 c -0.25004,-0.23345 -0.57584,-0.35826 -0.94519,-0.35826 -0.68375,0 -1.13509,0.4312 -1.13509,1.08454 0,0.56577 0.2791,0.84623 1.04275,1.0441 l 0.49282,0.12315 c 0.38389,0.0989 0.42021,0.11023 0.52812,0.19297 0.15562,0.11829 0.24071,0.2901 0.24071,0.49284 0,0.20751 -0.0799,0.37767 -0.23552,0.52353 -0.17016,0.14599 -0.3424,0.20275 -0.62772,0.20275 -0.78231,0 -1.17138,-0.57553 -1.30627,-1.27587 h -0.22412 l 0.0219,1.4785 h 0.20233 l 0.23345,-0.3535 c 0.34652,0.28533 0.63187,0.38909 1.08942,0.38909 0.76157,0 1.25023,-0.44573 1.25023,-1.14129 0,-0.32746 -0.10371,-0.59659 -0.31125,-0.79435 -0.14006,-0.13458 -0.34239,-0.22203 -0.75741,-0.32579 l -0.55613,-0.14112 c -0.46067,-0.1183 -0.67959,-0.32101 -0.67959,-0.63705 0,-0.36313 0.29674,-0.61287 0.7377,-0.61287 0.66818,0 1.03753,0.55447 1.17761,1.14617 h 0.22308 l -0.0634,-1.3488 m 1.89871,1.28241 c -0.63708,0 -1.1299,0.56577 -1.1299,1.29205 0,0.71 0.49802,1.28063 1.12055,1.28063 0.62252,0 1.11951,-0.57063 1.11951,-1.28717 0,-0.7101 -0.49699,-1.28551 -1.11016,-1.28551 m 0,0.22201 c 0.36312,0 0.56545,0.37935 0.56545,1.0635 0,0.6906 -0.20233,1.06348 -0.5748,1.06348 -0.37353,0 -0.57584,-0.37288 -0.57584,-1.05694 0,-0.70688 0.1961,-1.07004 0.58519,-1.07004 m 2.34588,-1.55142 -0.95972,0.0584 v 0.22204 h 0.25419 c 0.19195,0.005 0.21788,0.0374 0.21788,0.25938 v 2.89061 c -0.005,0.0778 -0.0109,0.10856 -0.0312,0.13446 -0.0373,0.0472 -0.13487,0.0681 -0.35795,0.0731 h -0.0363 v 0.18634 h 1.34258 v -0.18634 h -0.0354 c -0.34758,-0.012 -0.39425,-0.0374 -0.39425,-0.22382 v -3.41414"
       id="path41"
       style="stroke-width:0.103754" />
    <path
       class="StaffText"
       d="m 196.30262,160.43141 h -0.19089 l -0.20752,0.31127 c -0.25004,-0.23346 -0.57584,-0.35828 -0.94521,-0.35828 -0.68374,0 -1.13507,0.43121 -1.13507,1.08455 0,0.56578 0.2791,0.84632 1.04275,1.04408 l 0.49282,0.12317 c 0.38389,0.0989 0.4202,0.11023 0.5281,0.19297 0.15563,0.11829 0.24072,0.2902 0.24072,0.49283 0,0.20752 -0.0799,0.37768 -0.23553,0.52366 -0.17016,0.14587 -0.34238,0.20263 -0.62771,0.20263 -0.78231,0 -1.17138,-0.57553 -1.30627,-1.27586 h -0.22411 l 0.0219,1.4785 h 0.20232 l 0.23346,-0.35339 c 0.34652,0.28531 0.63185,0.38907 1.08941,0.38907 0.76157,0 1.25025,-0.44584 1.25025,-1.1413 0,-0.32755 -0.10371,-0.59659 -0.31126,-0.79444 -0.14006,-0.13457 -0.3424,-0.22204 -0.75742,-0.32579 l -0.55611,-0.14112 c -0.46067,-0.1183 -0.6796,-0.3209 -0.6796,-0.63704 0,-0.36316 0.29673,-0.61289 0.7377,-0.61289 0.66818,0 1.03754,0.55448 1.17762,1.14618 h 0.22306 l -0.0634,-1.3488 m 1.31353,0.0681 c -0.16704,0 -0.30192,0.13447 -0.30192,0.29986 0,0.16704 0.13488,0.3015 0.29674,0.3015 0.17014,0 0.30503,-0.13446 0.30503,-0.3015 0,-0.16539 -0.13489,-0.29986 -0.29985,-0.29986 m 0.24278,1.29207 -0.97425,0.0568 v 0.2237 h 0.26457 c 0.19609,0.005 0.22204,0.0357 0.22204,0.25937 v 1.48339 c -0.005,0.0778 -0.009,0.10867 -0.0312,0.13456 -0.0354,0.047 -0.13385,0.068 -0.35796,0.0729 h -0.0354 v 0.18644 h 1.34363 v -0.18644 h -0.0374 c -0.34654,-0.012 -0.39427,-0.0374 -0.39427,-0.22379 v -2.00692"
       id="path42"
       style="stroke-width:0.103754" />
    <path
       class="StaffText"
       d="m 232.85851,160.28262 h -1.33741 v 0.24475 h 0.0986 c 0.29468,0.005 0.39427,0.0211 0.42956,0.073 0.0373,0.0454 0.0373,0.0518 0.0373,0.32101 v 1.98754 c 0,0.70521 -0.0986,0.85109 -0.60282,0.87703 v 0.2432 h 1.4785 v -0.24319 c -0.49801,-0.026 -0.59658,-0.17182 -0.59658,-0.87703 v -2.29391 l 1.23468,3.41414 h 0.20751 l 1.1579,-3.41414 v 2.77543 c 0,0.26582 0,0.27557 -0.0312,0.32744 -0.0415,0.0518 -0.14111,0.068 -0.43578,0.068 h -0.0944 v 0.24321 h 1.70261 v -0.24321 h -0.0943 c -0.29465,0 -0.39322,-0.0161 -0.43576,-0.068 -0.0312,-0.0518 -0.0312,-0.0567 -0.0312,-0.32744 v -2.46906 c 0,-0.26426 0,-0.27556 0.0312,-0.32101 0.0425,-0.0518 0.14111,-0.068 0.43576,-0.073 h 0.0943 v -0.24476 h -1.30212 l -0.94935,2.76568 -0.99709,-2.76568 m 4.21348,0.0373 c -0.16704,0 -0.30192,0.13455 -0.30192,0.29994 0,0.16694 0.13488,0.30152 0.29673,0.30152 0.17016,0 0.30504,-0.13458 0.30504,-0.30152 0,-0.16539 -0.13488,-0.29994 -0.29985,-0.29994 m 0.2428,1.29205 -0.97427,0.0567 v 0.2237 h 0.26459 c 0.19609,0.005 0.22202,0.0357 0.22202,0.25938 v 1.48339 c -0.005,0.0778 -0.0108,0.10868 -0.0312,0.13458 -0.0352,0.047 -0.13489,0.068 -0.35795,0.073 h -0.0363 v 0.18643 h 1.34467 v -0.18643 h -0.0373 c -0.34758,-0.0108 -0.39426,-0.0373 -0.39426,-0.2237 v -2.00704"
       id="path43"
       style="stroke-width:0.103754" />
    <path
       class="StaffText"
       d="m 43.341417,159.2459 h -1.337498 v 0.24477 h 0.09898 c 0.294979,0.005 0.393853,0.0211 0.429548,0.0729 0.03738,0.0454 0.03738,0.0518 0.03738,0.32102 v 1.98753 c 0,0.70521 -0.09898,0.85109 -0.603122,0.87703 v 0.24319 h 1.478497 v -0.24319 c -0.497706,-0.026 -0.596586,-0.17182 -0.596586,-0.87703 v -2.29391 l 1.235306,3.41413 h 0.207509 l 1.157583,-3.41413 v 2.77544 c 0,0.26581 0,0.27557 -0.03081,0.32745 -0.04225,0.0518 -0.141106,0.068 -0.436077,0.068 h -0.0941 v 0.24319 h 1.702306 v -0.24319 h -0.09411 c -0.294979,0 -0.39396,-0.0161 -0.436085,-0.068 -0.03081,-0.0518 -0.03081,-0.0567 -0.03081,-0.32745 v -2.46906 c 0,-0.26426 0,-0.27556 0.03081,-0.32102 0.0421,-0.0518 0.141106,-0.068 0.436085,-0.0729 h 0.09411 v -0.24477 h -1.30181 l -0.950083,2.76569 -0.996984,-2.76569 m 4.213374,0.0373 c -0.166939,0 -0.301509,0.13458 -0.301509,0.29997 0,0.16694 0.13457,0.30151 0.296741,0.30151 0.170152,0 0.304728,-0.13458 0.304728,-0.30151 0,-0.16539 -0.134576,-0.29997 -0.29996,-0.29997 m 0.243206,1.29207 -0.974262,0.0567 v 0.2237 h 0.264165 c 0.196197,0.005 0.222138,0.0357 0.222138,0.2594 v 1.48338 c -0.0045,0.0778 -0.0097,0.10867 -0.03081,0.13456 -0.0357,0.047 -0.134569,0.068 -0.358263,0.073 h -0.0357 v 0.18645 h 1.343935 v -0.18645 h -0.03722 c -0.346959,-0.0109 -0.393958,-0.0373 -0.393958,-0.2237 v -2.00703"
       id="path44"
       style="stroke-width:0.103754" />
  </g>
  <g
     inkscape:label="Copie de Copie de Copie de Copie de Calque 3"
     inkscape:groupmode="layer"
     id="g6753" />
  <g
     inkscape:label="Copie de Copie de Copie de Calque 2"
     inkscape:groupmode="layer"
     id="g6745" />
  <g
     inkscape:label="Copie de Copie de Calque 1"
     inkscape:groupmode="layer"
     id="g900" />
</svg>
