<?xml version="1.0" encoding="UTF-8" standalone="no"?>
<svg
   width="297mm"
   height="210mm"
   viewBox="0 0 1122.5197 793.7008"
   version="1.2"
   id="svg264"
   sodipodi:docname="il_court_il_court_le_furet.svg"
   inkscape:version="1.2.2 (b0a8486541, 2022-12-01)"
   xmlns:inkscape="http://www.inkscape.org/namespaces/inkscape"
   xmlns:sodipodi="http://sodipodi.sourceforge.net/DTD/sodipodi-0.dtd"
   xmlns="http://www.w3.org/2000/svg"
   xmlns:svg="http://www.w3.org/2000/svg"
   xmlns:rdf="http://www.w3.org/1999/02/22-rdf-syntax-ns#"
   xmlns:cc="http://creativecommons.org/ns#"
   xmlns:dc="http://purl.org/dc/elements/1.1/">
  <defs
     id="defs268" />
  <sodipodi:namedview
     id="namedview266"
     pagecolor="#ffffff"
     bordercolor="#000000"
     borderopacity="0.25"
     inkscape:showpageshadow="2"
     inkscape:pageopacity="0.0"
     inkscape:pagecheckerboard="0"
     inkscape:deskcolor="#d1d1d1"
     showgrid="false"
     inkscape:zoom="0.18201692"
     inkscape:cx="126.36188"
     inkscape:cy="659.27936"
     inkscape:window-width="1104"
     inkscape:window-height="552"
     inkscape:window-x="0"
     inkscape:window-y="32"
     inkscape:window-maximized="1"
     inkscape:current-layer="svg264"
     inkscape:document-units="mm" />
  <title
     id="title2">il_court_il_court_le_furet</title>
  <desc
     id="desc4">Generated by MuseScore Studio 4.3.2</desc>
  <polyline
     class="StaffLines"
     fill="none"
     stroke="#000000"
     stroke-width="2.73"
     stroke-linejoin="bevel"
     points="336.599,634.199 2764.6,634.199"
     id="polyline6"
     transform="matrix(0.40897169,0,0,0.4727589,-55.265849,-63.566195)" />
  <polyline
     class="StaffLines"
     fill="none"
     stroke="#000000"
     stroke-width="2.73"
     stroke-linejoin="bevel"
     points="336.599,658.999 2764.6,658.999"
     id="polyline8"
     transform="matrix(0.40897169,0,0,0.4727589,-55.265849,-63.566195)" />
  <polyline
     class="StaffLines"
     fill="none"
     stroke="#000000"
     stroke-width="2.73"
     stroke-linejoin="bevel"
     points="336.599,683.799 2764.6,683.799"
     id="polyline10"
     transform="matrix(0.40897169,0,0,0.4727589,-55.265849,-63.566195)" />
  <polyline
     class="StaffLines"
     fill="none"
     stroke="#000000"
     stroke-width="2.73"
     stroke-linejoin="bevel"
     points="336.599,708.599 2764.6,708.599"
     id="polyline12"
     transform="matrix(0.40897169,0,0,0.4727589,-55.265849,-63.566195)" />
  <polyline
     class="StaffLines"
     fill="none"
     stroke="#000000"
     stroke-width="2.73"
     stroke-linejoin="bevel"
     points="336.599,733.399 2764.6,733.399"
     id="polyline14"
     transform="matrix(0.40897169,0,0,0.4727589,-55.265849,-63.566195)" />
  <polyline
     class="StaffLines"
     fill="none"
     stroke="#000000"
     stroke-width="2.73"
     stroke-linejoin="bevel"
     points="212.598,1316.2 2764.6,1316.2"
     id="polyline16"
     transform="matrix(0.40897169,0,0,0.4727589,-55.265849,-63.566195)" />
  <polyline
     class="StaffLines"
     fill="none"
     stroke="#000000"
     stroke-width="2.73"
     stroke-linejoin="bevel"
     points="212.598,1341 2764.6,1341"
     id="polyline18"
     transform="matrix(0.40897169,0,0,0.4727589,-55.265849,-63.566195)" />
  <polyline
     class="StaffLines"
     fill="none"
     stroke="#000000"
     stroke-width="2.73"
     stroke-linejoin="bevel"
     points="212.598,1365.8 2764.6,1365.8"
     id="polyline20"
     transform="matrix(0.40897169,0,0,0.4727589,-55.265849,-63.566195)" />
  <polyline
     class="StaffLines"
     fill="none"
     stroke="#000000"
     stroke-width="2.73"
     stroke-linejoin="bevel"
     points="212.598,1390.6 2764.6,1390.6"
     id="polyline22"
     transform="matrix(0.40897169,0,0,0.4727589,-55.265849,-63.566195)" />
  <polyline
     class="StaffLines"
     fill="none"
     stroke="#000000"
     stroke-width="2.73"
     stroke-linejoin="bevel"
     points="212.598,1415.4 2764.6,1415.4"
     id="polyline24"
     transform="matrix(0.40897169,0,0,0.4727589,-55.265849,-63.566195)" />
  <path
     class="Text"
     d="m 302.29237,40.605283 h 0.89443 c 2.56916,0.05197 3.419,0.207069 3.78298,0.731351 0.26869,0.465665 0.26869,0.620728 0.26869,3.220912 v 24.753181 c 0,2.600184 0,2.755247 -0.26869,3.228 -0.36398,0.517194 -1.21382,0.723785 -3.78298,0.723785 h -0.89443 v 2.445121 h 14.88903 v -2.445121 h -0.90096 c -2.51763,0 -3.37403,-0.155103 -3.73187,-0.723785 -0.27483,-0.472753 -0.27483,-0.576288 -0.27483,-3.228 V 44.557546 c 0,-2.65217 0,-2.755247 0.27483,-3.220912 0.35784,-0.524282 1.16925,-0.679345 3.73187,-0.731351 h 0.90096 v -2.445102 h -14.88903 v 2.445102 m 25.86747,-3.228 -8.32013,0.576288 v 2.238053 h 2.20477 c 1.66124,0.05197 1.88495,0.362131 1.88495,2.600164 v 28.964041 c -0.0446,0.782898 -0.0896,1.093023 -0.26829,1.35162 -0.31327,0.465665 -1.16965,0.679842 -3.10573,0.73137 h -0.31327 v 1.868814 h 11.64956 v -1.868814 h -0.31327 c -3.00963,-0.110702 -3.41859,-0.369239 -3.41859,-2.238053 V 37.377283 m 35.22227,30.68488 c -1.43548,3.745214 -2.96504,5.252355 -5.30436,5.252355 -3.59486,0 -5.84625,-3.796723 -5.84625,-9.876396 0,-6.345379 2.2064,-10.511321 5.52725,-10.511321 1.3537,0 2.52335,0.731351 2.52335,1.565777 0,0.155103 -0.0449,0.310603 -0.274,0.620728 -0.7157,0.989948 -0.89565,1.506683 -0.89565,2.393096 0,1.713752 1.12467,2.910788 2.69921,2.910788 1.62362,0 2.74829,-1.455633 2.74829,-3.531038 0,-3.538603 -3.0182,-6.190296 -7.02613,-6.190296 -5.84544,0 -10.03085,5.510474 -10.03085,13.310987 0,7.386854 3.82757,12.484147 9.40512,12.484147 3.99974,0 6.29408,-2.134977 8.23259,-7.645451 l -1.75857,-0.783376 m 13.97047,-17.366307 c -5.53338,0 -9.81122,5.665537 -9.81122,12.949334 0,7.120691 4.32282,12.8458 9.72125,12.8458 5.39843,0 9.71718,-5.725109 9.71718,-12.897806 0,-7.128257 -4.31875,-12.897328 -9.62721,-12.897328 m 0,2.230945 c 3.14908,0 4.89948,3.796723 4.89948,10.666383 0,6.914101 -1.7504,10.659295 -4.98945,10.659295 -3.23906,0 -4.98946,-3.745194 -4.98946,-10.607289 0,-7.076729 1.70542,-10.718389 5.07943,-10.718389 m 29.68726,23.142964 8.1917,-0.362132 V 73.46958 h -1.12467 c -2.61333,-0.103534 -2.83826,-0.413659 -2.83826,-3.796722 V 51.471647 l -8.45345,0.57581 v 2.238511 h 2.29434 c 1.70541,0.05157 1.93034,0.361673 1.93034,2.600184 v 6.389341 c 0,4.528551 -0.94063,10.039025 -5.89329,10.039025 -1.3905,0 -2.56015,-0.568722 -3.14908,-1.610218 -0.58073,-0.989947 -0.6707,-1.507141 -0.6707,-4.365922 V 51.471647 l -7.87271,0.57581 v 2.238511 h 1.70541 c 1.7136,0.05157 1.93853,0.361673 1.93853,2.600184 v 11.228017 c 0,2.651712 0.17585,3.84827 0.85475,5.045286 1.21465,2.134519 3.37402,3.331535 6.06913,3.331535 2.97323,0 5.04263,-1.403627 7.01796,-4.735161 v 4.313936 m 17.77799,-24.598118 -7.96266,0.57581 v 2.238511 h 1.84037 c 1.71359,0.05157 1.93851,0.361673 1.93851,2.600184 v 14.869677 c -0.0449,0.782898 -0.09,1.093023 -0.2699,1.35162 -0.31492,0.465665 -1.21465,0.679842 -3.1491,0.73137 h -0.17993 v 1.868814 h 12.01149 v -1.868814 h -0.80977 c -3.01821,-0.110702 -3.41901,-0.369239 -3.41901,-2.238053 v -2.807233 c 0.0449,-8.738475 2.74012,-15.393978 6.2491,-15.601047 -0.62572,0.827319 -0.80567,1.352099 -0.80567,2.33448 0,1.669311 1.0347,2.865869 2.47428,2.865869 1.66042,0 2.7401,-1.403149 2.7401,-3.486597 0,-2.548179 -1.52546,-4.210382 -3.90976,-4.210382 -2.83827,0 -5.26756,2.600165 -6.74805,7.224226 v -6.448435 m 20.67762,0 V 41.174005 h -1.84446 c -0.44987,6.766604 -2.4293,10.194107 -6.07323,10.511798 v 2.023877 h 3.68893 v 13.259479 c 0,3.64166 0.09,4.941752 0.53575,6.13829 0.72387,2.186525 2.52335,3.383541 5.1326,3.383541 4.04881,0 6.65806,-3.538604 6.65806,-9.049077 0,-0.317692 0,-0.679823 -0.0449,-1.196558 h -1.89353 c -0.13085,4.675589 -1.30053,7.069163 -3.5049,7.069163 -1.0347,0 -1.93853,-0.620728 -2.24933,-1.507141 -0.26993,-0.731371 -0.4049,-2.031463 -0.4049,-3.900277 V 53.70968 h 6.61308 v -2.238033 h -6.61308 m 13.17708,33.802257 c 4.05291,-3.220912 5.89737,-6.397364 5.89737,-10.031478 0,-3.124446 -1.48866,-5.148801 -3.69301,-5.148801 -1.66043,0 -2.92006,1.352079 -2.92006,3.117358 0,1.87638 1.21464,3.065372 3.10409,3.065372 0.22494,0 0.53985,0 0.6748,-0.05157 h 0.13084 c 0.23313,0 0.319,0.162669 0.319,0.472754 0,2.178959 -1.53365,4.624061 -4.53958,7.069163 l 1.02652,1.507161 m 28.5953,-46.751592 c -1.43549,0 -2.60515,1.3516 -2.60515,3.02139 0,1.661745 1.16966,3.013843 2.56016,3.013843 1.48867,0 2.65832,-1.352098 2.65832,-3.013843 0,-1.66979 -1.16965,-3.02139 -2.61333,-3.02139 m 2.11438,12.949334 -8.45344,0.57581 v 2.238511 h 2.29433 c 1.70541,0.05157 1.93035,0.361673 1.93035,2.600184 v 14.869677 c -0.0449,0.782898 -0.09,1.093023 -0.26992,1.35162 -0.31082,0.465666 -1.16557,0.679842 -3.1041,0.731371 h -0.31082 v 1.868814 h 11.65569 V 73.83878 h -0.32309 c -3.01002,-0.110703 -3.419,-0.36924 -3.419,-2.238054 V 51.471607 m 14.22812,-14.094364 -8.32256,0.576288 v 2.238053 h 2.20435 c 1.66451,0.05197 1.88536,0.362131 1.88536,2.600165 v 28.96404 c -0.0449,0.782898 -0.09,1.093023 -0.26583,1.35162 -0.3149,0.465666 -1.16965,0.679842 -3.10818,0.731371 h -0.31082 v 1.868814 h 11.64751 V 73.83878 h -0.31082 c -3.01003,-0.110703 -3.41901,-0.36924 -3.41901,-2.238054 V 37.377283 m 35.22066,30.68488 c -1.4355,3.745214 -2.96505,5.252355 -5.30438,5.252355 -3.59485,0 -5.8442,-3.796723 -5.8442,-9.876396 0,-6.345379 2.20435,-10.511321 5.5252,-10.511321 1.3537,0 2.52337,0.731351 2.52337,1.565777 0,0.155103 -0.0449,0.310603 -0.27402,0.620728 -0.7157,0.989948 -0.89565,1.506683 -0.89565,2.393096 0,1.713752 1.12468,2.910788 2.69923,2.910788 1.62361,0 2.74828,-1.455633 2.74828,-3.531038 0,-3.538603 -3.01821,-6.190296 -7.02614,-6.190296 -5.8442,0 -10.03208,5.510474 -10.03208,13.310987 0,7.386854 3.82798,12.484147 9.40636,12.484147 3.99975,0 6.29408,-2.134977 8.2326,-7.645451 l -1.75857,-0.783376 m 13.97047,-17.366307 c -5.5334,0 -9.81123,5.665537 -9.81123,12.949334 0,7.120691 4.32283,12.8458 9.72126,12.8458 5.39841,0 9.71716,-5.725109 9.71716,-12.897806 0,-7.128257 -4.31875,-12.897328 -9.62719,-12.897328 m 0,2.230945 c 3.14908,0 4.89948,3.796723 4.89948,10.666383 0,6.914101 -1.7504,10.659295 -4.98945,10.659295 -3.23907,0 -4.98947,-3.745194 -4.98947,-10.607289 0,-7.076729 1.70542,-10.718389 5.07944,-10.718389 m 29.68726,23.142964 8.19169,-0.362132 V 73.46958 h -1.12468 c -2.61331,-0.103534 -2.83825,-0.413659 -2.83825,-3.796722 V 51.471647 l -8.45344,0.57581 v 2.238511 h 2.29433 c 1.7054,0.05157 1.93035,0.361673 1.93035,2.600184 v 6.389341 c 0,4.528551 -0.94065,10.039025 -5.89329,10.039025 -1.39051,0 -2.56017,-0.568722 -3.14909,-1.610218 -0.58073,-0.989947 -0.67071,-1.507141 -0.67071,-4.365922 V 51.471647 l -7.8727,0.57581 v 2.238511 h 1.7054 c 1.7136,0.05157 1.93853,0.361673 1.93853,2.600184 v 11.228017 c 0,2.651712 0.17587,3.84827 0.85475,5.045286 1.21465,2.134519 3.37402,3.331535 6.06915,3.331535 2.97321,0 5.04261,-1.403627 7.01796,-4.735161 v 4.313936 m 17.77799,-24.598118 -7.96268,0.57581 v 2.238511 h 1.84038 c 1.71358,0.05157 1.93852,0.361673 1.93852,2.600184 v 14.869677 c -0.0449,0.782898 -0.09,1.093023 -0.26992,1.35162 -0.3149,0.465665 -1.21465,0.679842 -3.14908,0.73137 H 592.484 v 1.868814 h 12.01149 v -1.868814 h -0.80975 c -3.01822,-0.110702 -3.41901,-0.369239 -3.41901,-2.238053 v -2.807233 c 0.0449,-8.738475 2.74011,-15.393978 6.24909,-15.601047 -0.62573,0.827319 -0.80568,1.352099 -0.80568,2.33448 0,1.669311 1.0347,2.865869 2.47428,2.865869 1.66043,0 2.74011,-1.403149 2.74011,-3.486597 0,-2.548179 -1.52546,-4.210382 -3.90976,-4.210382 -2.83828,0 -5.26756,2.600165 -6.74804,7.224226 v -6.448435 m 20.67761,0 V 41.174005 h -1.84447 c -0.44987,6.766604 -2.42928,10.194107 -6.07323,10.511798 v 2.023877 h 3.68893 v 13.259479 c 0,3.64166 0.09,4.941752 0.53575,6.13829 0.72388,2.186525 2.52336,3.383541 5.1326,3.383541 4.04881,0 6.65806,-3.538604 6.65806,-9.049077 0,-0.317692 0,-0.679823 -0.0449,-1.196558 h -1.89353 c -0.13084,4.675589 -1.30052,7.069163 -3.50488,7.069163 -1.0347,0 -1.93853,-0.620728 -2.24935,-1.507141 -0.26992,-0.731371 -0.40488,-2.031463 -0.40488,-3.900277 V 53.70968 h 6.61307 v -2.238033 h -6.61307 m 13.17707,33.802257 c 4.05291,-3.220912 5.89736,-6.397364 5.89736,-10.031478 0,-3.124446 -1.48865,-5.148801 -3.69301,-5.148801 -1.66042,0 -2.92005,1.352079 -2.92005,3.117358 0,1.87638 1.21465,3.065372 3.10408,3.065372 0.22495,0 0.53985,0 0.67482,-0.05157 h 0.13084 c 0.23311,0 0.31899,0.162669 0.31899,0.472754 0,2.178959 -1.53364,4.624061 -4.53958,7.069163 l 1.02652,1.507161 m 30.6238,-47.896622 -8.32258,0.576288 v 2.238053 h 2.20437 c 1.6645,0.05197 1.88535,0.362131 1.88535,2.600165 v 28.96404 c -0.0449,0.782898 -0.09,1.093023 -0.26583,1.35162 -0.31491,0.465666 -1.16966,0.679842 -3.10819,0.731371 h -0.31081 v 1.868814 H 668.4751 V 73.83878 h -0.31082 c -3.01003,-0.110703 -3.419,-0.36924 -3.419,-2.238054 V 37.377283 m 26.05558,26.62956 c 0.0449,-7.800513 -3.78298,-13.310987 -9.27139,-13.310987 -5.75831,0 -10.07706,5.769071 -10.07706,13.569584 0,7.335326 4.09791,12.22555 10.16704,12.22555 4.31875,0 7.33696,-2.445102 9.18141,-7.386854 l -1.57453,-0.989967 c -1.84037,4.003811 -3.73392,5.562022 -6.74803,5.562022 -2.29435,0 -3.95885,-1.085458 -5.12851,-3.427503 -0.80977,-1.558212 -1.16967,-3.383063 -1.12467,-6.241845 h 14.57574 m -14.5308,-2.238033 c 0,-3.64166 1.43957,-8.842009 5.21439,-8.842009 2.70331,0 4.49869,2.762793 4.49869,6.973195 0,1.455155 -0.4008,1.868814 -1.84038,1.868814 h -7.8727 m 37.8258,-10.297163 v -2.962316 c 0,-2.600164 0.13495,-4.313916 0.49075,-5.355411 0.72388,-2.29004 2.30251,-3.693666 4.09791,-3.693666 0.94472,0 1.52545,0.310603 1.52545,0.886432 0,0.207069 0,0.258597 -0.26991,0.672257 -0.26584,0.472753 -0.40079,1.093501 -0.40079,1.669789 0,1.558211 1.07968,2.755227 2.47428,2.755227 1.48047,0 2.51517,-1.300072 2.51517,-3.176452 0,-3.013844 -2.24935,-4.890224 -5.8892,-4.890224 -3.10818,0 -5.40251,1.248564 -6.97296,3.848728 -1.3496,2.186505 -1.80356,4.424559 -1.80356,8.63494 v 1.610696 h -3.95477 v 2.238033 h 3.95471 v 18.046149 c -0.0449,0.73137 -0.0859,1.041495 -0.26584,1.35162 -0.3149,0.465665 -1.16965,0.679842 -3.10818,0.73137 h -0.17585 v 1.868814 h 12.01149 v -1.868814 h -0.80976 c -3.01822,-0.110702 -3.419,-0.369239 -3.419,-2.238053 V 53.70968 h 4.94446 v -2.238033 h -4.94446 m 25.02906,24.598118 8.19171,-0.362132 V 73.46958 h -1.12467 c -2.61333,-0.103534 -2.83828,-0.413659 -2.83828,-3.796722 V 51.471647 l -8.45343,0.57581 v 2.238511 h 2.29432 c 1.70542,0.05157 1.93035,0.361673 1.93035,2.600184 v 6.389341 c 0,4.528551 -0.94064,10.039025 -5.89328,10.039025 -1.3905,0 -2.56017,-0.568722 -3.14908,-1.610218 -0.58074,-0.989947 -0.67072,-1.507141 -0.67072,-4.365922 V 51.471647 l -7.8727,0.57581 v 2.238511 h 1.70542 c 1.71358,0.05157 1.93852,0.361673 1.93852,2.600184 v 11.228017 c 0,2.651712 0.17585,3.84827 0.85475,5.045286 1.21464,2.134519 3.37401,3.331535 6.06914,3.331535 2.97323,0 5.04262,-1.403627 7.01795,-4.735161 v 4.313936 m 17.778,-24.598118 -7.96268,0.57581 v 2.238511 h 1.84037 c 1.7136,0.05157 1.93853,0.361673 1.93853,2.600184 v 14.869677 c -0.0449,0.782898 -0.09,1.093023 -0.26992,1.35162 -0.31491,0.465665 -1.21465,0.679842 -3.14908,0.73137 h -0.17995 v 1.868814 h 12.01151 v -1.868814 h -0.80977 c -3.01821,-0.110702 -3.41901,-0.369239 -3.41901,-2.238053 v -2.807233 c 0.0449,-8.738475 2.74011,-15.393978 6.24908,-15.601047 -0.62572,0.827319 -0.80567,1.352099 -0.80567,2.33448 0,1.669311 1.0347,2.865869 2.47428,2.865869 1.66042,0 2.74012,-1.403149 2.74012,-3.486597 0,-2.548179 -1.52547,-4.210382 -3.90978,-4.210382 -2.83825,0 -5.26755,2.600165 -6.74803,7.224226 V 51.471647 M 788.545,64.006843 c 0.0449,-7.800513 -3.78298,-13.310987 -9.27138,-13.310987 -5.75833,0 -10.07707,5.769071 -10.07707,13.569584 0,7.335326 4.09789,12.22555 10.16704,12.22555 4.31873,0 7.33696,-2.445102 9.18141,-7.386854 l -1.57454,-0.989967 c -1.84038,4.003811 -3.73391,5.562022 -6.74804,5.562022 -2.29433,0 -3.95883,-1.085458 -5.1285,-3.427503 -0.80976,-1.558212 -1.16966,-3.383063 -1.12468,-6.241845 H 788.545 M 774.01424,61.76881 c 0,-3.64166 1.43958,-8.842009 5.21438,-8.842009 2.7033,0 4.4987,2.762793 4.4987,6.973195 0,1.455155 -0.4008,1.868814 -1.84038,1.868814 h -7.8727 M 798.02906,51.471647 V 41.174005 h -1.84447 c -0.44986,6.766604 -2.42929,10.194107 -6.07322,10.511798 v 2.023877 h 3.68891 v 13.259479 c 0,3.64166 0.09,4.941752 0.53577,6.13829 0.72388,2.186525 2.52335,3.383541 5.13259,3.383541 4.04882,0 6.65805,-3.538604 6.65805,-9.049077 0,-0.317692 0,-0.679823 -0.0449,-1.196558 h -1.89355 c -0.13084,4.675589 -1.30053,7.069163 -3.50488,7.069163 -1.0347,0 -1.93853,-0.620728 -2.24935,-1.507141 -0.26992,-0.731371 -0.40488,-2.031463 -0.40488,-3.900277 V 53.70968 h 6.61308 v -2.238033 h -6.61308"
     id="path26"
     style="stroke-width:0.43971" />
  <path
     class="MeasureNumber"
     d="m 33.514946,527.99228 c -0.511211,0.35456 -0.658443,0.5815 -0.658443,0.9597 0,0.3593 0.262156,0.62877 0.588102,0.62877 0.428198,0 0.67072,-0.36402 0.721838,-1.06371 0.505073,-0.47276 1.048195,-0.68076 1.700089,-0.68076 1.213826,0 1.884957,0.86987 1.884957,2.43943 0,2.45834 -1.373746,4.4581 -3.06075,4.4581 -0.965167,0 -1.751207,-0.52476 -1.751207,-1.14879 0,-0.11349 0.01924,-0.15132 0.09604,-0.20802 0.5239,-0.28365 0.952083,-0.48693 0.952083,-1.2859 0,-0.60514 -0.408961,-1.05898 -0.983978,-1.05898 -0.7157,0 -1.258822,0.69496 -1.258822,1.60737 0,1.66886 1.245738,2.86966 2.996944,2.86966 2.64524,0 4.792338,-2.43471 4.792338,-5.45564 0,-1.91467 -1.258821,-3.25731 -3.041527,-3.25731 -0.70915,0 -1.278029,0.17023 -2.064069,0.62405 l 0.913637,-3.57406 c 0.869069,0.208 1.559407,0.30256 2.147098,0.30256 1.080091,0 2.044861,-0.39712 2.581845,-1.05424 0.280952,-0.37822 0.440871,-0.70441 0.440871,-0.94553 0,-0.11827 -0.0511,-0.23166 -0.114983,-0.23166 -0.04494,0 -0.08297,0.0237 -0.179127,0.0757 -0.536572,0.30258 -1.226926,0.47278 -1.865735,0.47278 -0.977854,0 -2.140959,-0.18438 -3.348662,-0.54842 l -1.488655,6.07496"
     id="path28"
     style="stroke-width:0.43971" />
  <polyline
     class="BarLine"
     fill="none"
     stroke="#000000"
     stroke-width="4.46"
     stroke-linejoin="bevel"
     points="924.9,632.835 924.9,734.763"
     id="polyline30"
     transform="matrix(0.40897169,0,0,0.4727589,-55.265849,-63.566195)" />
  <polyline
     class="BarLine"
     fill="none"
     stroke="#000000"
     stroke-width="4.46"
     stroke-linejoin="bevel"
     points="2226.81,1314.84 2226.81,1416.76"
     id="polyline32"
     transform="matrix(0.40897169,0,0,0.4727589,-55.265849,-63.566195)" />
  <polyline
     class="BarLine"
     fill="none"
     stroke="#000000"
     stroke-width="4.46"
     stroke-linejoin="bevel"
     points="2762.37,632.835 2762.37,734.763"
     id="polyline34"
     transform="matrix(0.40897169,0,0,0.4727589,-55.265849,-63.566195)" />
  <polyline
     class="BarLine"
     fill="none"
     stroke="#000000"
     stroke-width="4.46"
     stroke-linejoin="bevel"
     points="1555.38,1314.84 1555.38,1416.76"
     id="polyline36"
     transform="matrix(0.40897169,0,0,0.4727589,-55.265849,-63.566195)" />
  <polyline
     class="BarLine"
     fill="none"
     stroke="#000000"
     stroke-width="4.46"
     stroke-linejoin="bevel"
     points="1787.28,632.835 1787.28,734.763"
     id="polyline38"
     transform="matrix(0.40897169,0,0,0.4727589,-55.265849,-63.566195)" />
  <polyline
     class="BarLine"
     fill="none"
     stroke="#000000"
     stroke-width="4.46"
     stroke-linejoin="bevel"
     points="963.296,1314.84 963.296,1416.76"
     id="polyline40"
     transform="matrix(0.40897169,0,0,0.4727589,-55.265849,-63.566195)" />
  <polyline
     class="BarLine"
     fill="none"
     stroke="#000000"
     stroke-width="4.46"
     stroke-linejoin="bevel"
     points="1356.09,632.835 1356.09,734.763"
     id="polyline42"
     transform="matrix(0.40897169,0,0,0.4727589,-55.265849,-63.566195)" />
  <polyline
     class="BarLine"
     fill="none"
     stroke="#000000"
     stroke-width="4.46"
     stroke-linejoin="bevel"
     points="2739.55,1314.84 2739.55,1416.76"
     id="polyline44"
     transform="matrix(0.40897169,0,0,0.4727589,-55.265849,-63.566195)" />
  <polyline
     class="BarLine"
     fill="none"
     stroke="#000000"
     stroke-width="13.64"
     stroke-linejoin="bevel"
     points="2757.78,1314.84 2757.78,1416.76"
     id="polyline46"
     transform="matrix(0.40897169,0,0,0.4727589,-55.265849,-63.566195)" />
  <polyline
     class="BarLine"
     fill="none"
     stroke="#000000"
     stroke-width="4.46"
     stroke-linejoin="bevel"
     points="2274.83,632.835 2274.83,734.763"
     id="polyline48"
     transform="matrix(0.40897169,0,0,0.4727589,-55.265849,-63.566195)" />
  <polyline
     class="Stem"
     fill="none"
     stroke="#000000"
     stroke-width="2.48"
     stroke-linejoin="bevel"
     points="833.376,1374.23 833.376,1310"
     id="polyline50"
     transform="matrix(0.40897169,0,0,0.4727589,-55.265849,-63.566195)" />
  <polyline
     class="Stem"
     fill="none"
     stroke="#000000"
     stroke-width="2.48"
     stroke-linejoin="bevel"
     points="1421.55,741.831 1421.55,658.999"
     id="polyline52"
     transform="matrix(0.40897169,0,0,0.4727589,-55.265849,-63.566195)" />
  <polyline
     class="Stem"
     fill="none"
     stroke="#000000"
     stroke-width="2.48"
     stroke-linejoin="bevel"
     points="1028.76,1423.83 1028.76,1341"
     id="polyline54"
     transform="matrix(0.40897169,0,0,0.4727589,-55.265849,-63.566195)" />
  <polyline
     class="Stem"
     fill="none"
     stroke="#000000"
     stroke-width="2.48"
     stroke-linejoin="bevel"
     points="1266.78,1386.63 1266.78,1316.25"
     id="polyline56"
     transform="matrix(0.40897169,0,0,0.4727589,-55.265849,-63.566195)" />
  <polyline
     class="Stem"
     fill="none"
     stroke="#000000"
     stroke-width="2.48"
     stroke-linejoin="bevel"
     points="1590.62,704.631 1590.62,634.266"
     id="polyline58"
     transform="matrix(0.40897169,0,0,0.4727589,-55.265849,-63.566195)" />
  <polyline
     class="Stem"
     fill="none"
     stroke="#000000"
     stroke-width="2.48"
     stroke-linejoin="bevel"
     points="615.529,741.831 615.529,659.197"
     id="polyline60"
     transform="matrix(0.40897169,0,0,0.4727589,-55.265849,-63.566195)" />
  <polyline
     class="Stem"
     fill="none"
     stroke="#000000"
     stroke-width="2.48"
     stroke-linejoin="bevel"
     points="1425.46,1399.03 1425.46,1322.35"
     id="polyline62"
     transform="matrix(0.40897169,0,0,0.4727589,-55.265849,-63.566195)" />
  <polyline
     class="Stem"
     fill="none"
     stroke="#000000"
     stroke-width="2.48"
     stroke-linejoin="bevel"
     points="1620.85,1411.43 1620.85,1341.05"
     id="polyline64"
     transform="matrix(0.40897169,0,0,0.4727589,-55.265849,-63.566195)" />
  <polyline
     class="Stem"
     fill="none"
     stroke="#000000"
     stroke-width="2.48"
     stroke-linejoin="bevel"
     points="1779.53,1423.83 1779.53,1347.15"
     id="polyline66"
     transform="matrix(0.40897169,0,0,0.4727589,-55.265849,-63.566195)" />
  <polyline
     class="Stem"
     fill="none"
     stroke="#000000"
     stroke-width="2.48"
     stroke-linejoin="bevel"
     points="728.239,704.631 728.239,609.265"
     id="polyline68"
     transform="matrix(0.40897169,0,0,0.4727589,-55.265849,-63.566195)" />
  <polyline
     class="Stem"
     fill="none"
     stroke="#000000"
     stroke-width="2.48"
     stroke-linejoin="bevel"
     points="1703.33,717.031 1703.33,640.332"
     id="polyline70"
     transform="matrix(0.40897169,0,0,0.4727589,-55.265849,-63.566195)" />
  <polyline
     class="Stem"
     fill="none"
     stroke="#000000"
     stroke-width="2.48"
     stroke-linejoin="bevel"
     points="1938.21,1411.43 1938.21,1340.95"
     id="polyline72"
     transform="matrix(0.40897169,0,0,0.4727589,-55.265849,-63.566195)" />
  <polyline
     class="Stem"
     fill="none"
     stroke="#000000"
     stroke-width="2.48"
     stroke-linejoin="bevel"
     points="2096.89,1399.03 2096.89,1334.85"
     id="polyline74"
     transform="matrix(0.40897169,0,0,0.4727589,-55.265849,-63.566195)" />
  <polyline
     class="Stem"
     fill="none"
     stroke="#000000"
     stroke-width="2.48"
     stroke-linejoin="bevel"
     points="1852.74,729.431 1852.74,659.066"
     id="polyline76"
     transform="matrix(0.40897169,0,0,0.4727589,-55.265849,-63.566195)" />
  <polyline
     class="Stem"
     fill="none"
     stroke="#000000"
     stroke-width="2.48"
     stroke-linejoin="bevel"
     points="840.95,655.031 840.95,597.132"
     id="polyline78"
     transform="matrix(0.40897169,0,0,0.4727589,-55.265849,-63.566195)" />
  <polyline
     class="Stem"
     fill="none"
     stroke="#000000"
     stroke-width="2.48"
     stroke-linejoin="bevel"
     points="2292.27,1386.63 2292.27,1303.8"
     id="polyline80"
     transform="matrix(0.40897169,0,0,0.4727589,-55.265849,-63.566195)" />
  <polyline
     class="Stem"
     fill="none"
     stroke="#000000"
     stroke-width="2.48"
     stroke-linejoin="bevel"
     points="1965.45,741.831 1965.45,665.132"
     id="polyline82"
     transform="matrix(0.40897169,0,0,0.4727589,-55.265849,-63.566195)" />
  <polyline
     class="Stem"
     fill="none"
     stroke="#000000"
     stroke-width="2.48"
     stroke-linejoin="bevel"
     points="2078.16,729.431 2078.16,658.932"
     id="polyline84"
     transform="matrix(0.40897169,0,0,0.4727589,-55.265849,-63.566195)" />
  <polyline
     class="Stem"
     fill="none"
     stroke="#000000"
     stroke-width="2.48"
     stroke-linejoin="bevel"
     points="960.612,687.965 960.612,758.199"
     id="polyline86"
     transform="matrix(0.40897169,0,0,0.4727589,-55.265849,-63.566195)" />
  <polyline
     class="Stem"
     fill="none"
     stroke="#000000"
     stroke-width="2.48"
     stroke-linejoin="bevel"
     points="2190.88,717.031 2190.88,652.866"
     id="polyline88"
     transform="matrix(0.40897169,0,0,0.4727589,-55.265849,-63.566195)" />
  <polyline
     class="Stem"
     fill="none"
     stroke="#000000"
     stroke-width="2.48"
     stroke-linejoin="bevel"
     points="2340.29,704.631 2340.29,634.266"
     id="polyline90"
     transform="matrix(0.40897169,0,0,0.4727589,-55.265849,-63.566195)" />
  <polyline
     class="Stem"
     fill="none"
     stroke="#000000"
     stroke-width="2.48"
     stroke-linejoin="bevel"
     points="2453,741.831 2453,640.332"
     id="polyline92"
     transform="matrix(0.40897169,0,0,0.4727589,-55.265849,-63.566195)" />
  <polyline
     class="Stem"
     fill="none"
     stroke="#000000"
     stroke-width="2.48"
     stroke-linejoin="bevel"
     points="1159.43,692.231 1159.43,627.999"
     id="polyline94"
     transform="matrix(0.40897169,0,0,0.4727589,-55.265849,-63.566195)" />
  <polyline
     class="Stem"
     fill="none"
     stroke="#000000"
     stroke-width="2.48"
     stroke-linejoin="bevel"
     points="2565.71,704.631 2565.71,634.132"
     id="polyline96"
     transform="matrix(0.40897169,0,0,0.4727589,-55.265849,-63.566195)" />
  <polyline
     class="Stem"
     fill="none"
     stroke="#000000"
     stroke-width="2.48"
     stroke-linejoin="bevel"
     points="2678.42,692.231 2678.42,628.066"
     id="polyline98"
     transform="matrix(0.40897169,0,0,0.4727589,-55.265849,-63.566195)" />
  <polyline
     class="Stem"
     fill="none"
     stroke="#000000"
     stroke-width="2.48"
     stroke-linejoin="bevel"
     points="406.922,1369.97 406.922,1440.2"
     id="polyline100"
     transform="matrix(0.40897169,0,0,0.4727589,-55.265849,-63.566195)" />
  <polyline
     class="Stem"
     fill="none"
     stroke="#000000"
     stroke-width="2.48"
     stroke-linejoin="bevel"
     points="1272.14,692.231 1272.14,627.999"
     id="polyline102"
     transform="matrix(0.40897169,0,0,0.4727589,-55.265849,-63.566195)" />
  <polyline
     class="Stem"
     fill="none"
     stroke="#000000"
     stroke-width="2.48"
     stroke-linejoin="bevel"
     points="674.695,1374.23 674.695,1310"
     id="polyline104"
     transform="matrix(0.40897169,0,0,0.4727589,-55.265849,-63.566195)" />
  <path
     class="Hook"
     d="m 195.96096,258.62867 c 0,0.13918 0.038,0.41772 0.32329,0.51297 1.74324,0.65948 5.23607,3.19491 7.87311,8.39761 0.72901,1.45092 1.90809,3.47338 1.90809,7.36444 0,3.37808 -0.73533,6.84411 -1.82565,10.2222 -0.0824,0.28579 -0.12673,0.5203 -0.12673,0.70347 0,0.32978 0.1648,0.46897 0.45005,0.46897 0.24091,0 0.44375,-0.18317 0.60856,-0.51291 1.82565,-3.75182 2.51663,-8.11918 2.51663,-12.38396 -0.20284,-6.05271 -3.20758,-10.50799 -3.20758,-10.50799 0.12041,0 -3.73371,-5.76698 -4.83038,-7.73814 -1.49601,-2.67465 -2.18696,-5.34195 -2.26938,-5.53247 -0.038,-0.13917 -0.4057,-1.83194 -0.4057,-1.83194 -0.038,-0.18318 -0.24089,-0.37372 -0.48811,-0.37372 -0.28525,0 -0.52614,0.28577 -0.52614,0.6082 v 10.60327"
     id="path106"
     style="stroke-width:0.436193" />
  <path
     class="Note"
     d="m 183.79323,290.98808 c 0,2.01513 1.25514,4.26478 4.5451,4.26478 4.21552,0 8.64016,-3.98631 8.64016,-8.11186 0,-2.7699 -2.0285,-4.31604 -4.5451,-4.31604 -3.93655,0 -8.64016,3.84705 -8.64016,8.16312"
     id="path108"
     style="stroke-width:0.436193" />
  <path
     class="Note"
     d="m 515.03291,601.68571 c 0,2.01513 1.25513,4.26475 4.5451,4.26475 4.21553,0 8.64014,-3.98631 8.64014,-8.11183 0,-2.7699 -2.02849,-4.31605 -4.5451,-4.31605 -3.93652,0 -8.64014,3.84706 -8.64014,8.16313"
     id="path110"
     style="stroke-width:0.436193" />
  <path
     class="Note"
     d="m 781.96874,285.12587 c 0,2.01513 1.25514,4.26477 4.5451,4.26477 4.21552,0 8.64014,-3.98631 8.64014,-8.11185 0,-2.7699 -2.0285,-4.31605 -4.5451,-4.31605 -3.93651,0 -8.64014,3.84708 -8.64014,8.16313"
     id="path112"
     style="stroke-width:0.436193" />
  <path
     class="Note"
     d="m 594.93779,607.54792 c 0,2.01513 1.25514,4.26475 4.54512,4.26475 4.21552,0 8.64014,-3.98631 8.64014,-8.11183 0,-2.7699 -2.0285,-4.31607 -4.54511,-4.31607 -3.93652,0 -8.64015,3.84708 -8.64015,8.16315"
     id="path114"
     style="stroke-width:0.436193" />
  <path
     class="Note"
     d="m 628.67387,279.26366 c 0,2.01513 1.25514,4.26477 4.54511,4.26477 4.21552,0 8.64014,-3.98631 8.64014,-8.11185 0,-2.7699 -2.02849,-4.31605 -4.54511,-4.31605 -3.93651,0 -8.64014,3.84708 -8.64014,8.16313"
     id="path116"
     style="stroke-width:0.436193" />
  <path
     class="Note"
     d="m 582.57868,273.40144 c 0,2.01514 1.25512,4.26478 4.5451,4.26478 4.21552,0 8.64014,-3.98631 8.64014,-8.11185 0,-2.7699 -2.0285,-4.31605 -4.5451,-4.31605 -3.93653,0 -8.64014,3.84708 -8.64014,8.16312"
     id="path118"
     style="stroke-width:0.436193" />
  <path
     class="Note"
     d="m 110.6466,584.09907 c 0,2.01514 1.25514,4.26476 4.5451,4.26476 4.21552,0 8.64016,-3.98631 8.64016,-8.11184 0,-2.7699 -2.0285,-4.31604 -4.54509,-4.31604 -3.93656,0 -8.64017,3.84707 -8.64017,8.16312"
     id="path120"
     style="stroke-width:0.436193" />
  <path
     class="Note"
     d="m 229.88844,273.40144 c 0,2.01514 1.25512,4.26478 4.5451,4.26478 4.2155,0 8.64016,-3.98631 8.64016,-8.11185 0,-2.7699 -2.0285,-4.31605 -4.5451,-4.31605 -3.93656,0 -8.64016,3.84708 -8.64016,8.16312"
     id="path122"
     style="stroke-width:0.436193" />
  <path
     class="Note"
     d="m 659.83342,613.41013 c 0,2.01513 1.25514,4.26476 4.54512,4.26476 4.21551,0 8.64014,-3.98631 8.64014,-8.11184 0,-2.7699 -2.0285,-4.31606 -4.54512,-4.31606 -3.93651,0 -8.64014,3.84707 -8.64014,8.16314"
     id="path124"
     style="stroke-width:0.436193" />
  <path
     class="Note"
     d="m 1027.4581,267.53925 c 0,2.01514 1.2551,4.26476 4.5451,4.26476 4.2155,0 8.6401,-3.98631 8.6401,-8.11185 0,-2.76991 -2.0285,-4.31605 -4.5451,-4.31605 -3.9365,0 -8.6401,3.84708 -8.6401,8.16314"
     id="path126"
     style="stroke-width:0.436193" />
  <path
     class="Note"
     d="m 724.73315,607.54792 c 0,2.01513 1.25514,4.26475 4.5451,4.26475 4.21552,0 8.64014,-3.98631 8.64014,-8.11183 0,-2.7699 -2.0285,-4.31607 -4.5451,-4.31607 -3.93651,0 -8.64014,3.84708 -8.64014,8.16315"
     id="path128"
     style="stroke-width:0.436193" />
  <path
     class="Note"
     d="m 275.98363,249.95262 c 0,2.01513 1.25514,4.26477 4.5451,4.26477 4.21552,0 8.64016,-3.98633 8.64016,-8.11185 0,-2.7699 -2.0285,-4.31605 -4.5451,-4.31605 -3.93655,0 -8.64016,3.84706 -8.64016,8.16313"
     id="path130"
     style="stroke-width:0.436193" />
  <path
     class="Note"
     d="m 207.99045,589.96128 c 0,2.01514 1.25514,4.26476 4.5451,4.26476 4.21552,0 8.64016,-3.98631 8.64016,-8.11183 0,-2.76991 -2.0285,-4.31605 -4.5451,-4.31605 -3.93655,0 -8.64016,3.84707 -8.64016,8.16312"
     id="path132"
     style="stroke-width:0.436193" />
  <path
     class="Note"
     d="m 981.3629,273.40144 c 0,2.01514 1.25512,4.26478 4.5451,4.26478 4.21551,0 8.64014,-3.98631 8.64014,-8.11185 0,-2.7699 -2.0285,-4.31605 -4.5451,-4.31605 -3.93653,0 -8.64014,3.84708 -8.64014,8.16312"
     id="path134"
     style="stroke-width:0.436193" />
  <path
     class="Note"
     d="m 337.09014,261.67704 c 0,2.01514 1.25513,4.26476 4.5451,4.26476 4.21552,0 8.64016,-3.98631 8.64016,-8.11186 0,-2.76988 -2.0285,-4.31604 -4.5451,-4.31604 -3.93655,0 -8.64016,3.84707 -8.64016,8.16314"
     id="path136"
     style="stroke-width:0.436193" />
  <path
     class="Note"
     d="m 935.26769,290.98808 c 0,2.01513 1.25513,4.26478 4.5451,4.26478 4.21553,0 8.64014,-3.98631 8.64014,-8.11186 0,-2.7699 -2.0285,-4.31604 -4.5451,-4.31604 -3.93652,0 -8.64014,3.84705 -8.64014,8.16312"
     id="path138"
     style="stroke-width:0.436193" />
  <path
     class="Note"
     d="m 689.77834,285.12587 c 0,2.01513 1.25513,4.26477 4.5451,4.26477 4.21552,0 8.64014,-3.98631 8.64014,-8.11185 0,-2.7699 -2.0285,-4.31605 -4.5451,-4.31605 -3.93651,0 -8.64014,3.84708 -8.64014,8.16313"
     id="path140"
     style="stroke-width:0.436193" />
  <path
     class="Note"
     d="m 406.23416,267.53925 c 0,2.01514 1.25514,4.26476 4.54512,4.26476 4.21551,0 8.64014,-3.98631 8.64014,-8.11185 0,-2.76991 -2.0285,-4.31605 -4.54512,-4.31605 -3.93651,0 -8.64014,3.84708 -8.64014,8.16314"
     id="path142"
     style="stroke-width:0.436193" />
  <path
     class="Note"
     d="m 789.62878,601.68571 c 0,2.01513 1.25513,4.26475 4.5451,4.26475 4.21552,0 8.64014,-3.98631 8.64014,-8.11183 0,-2.7699 -2.0285,-4.31605 -4.5451,-4.31605 -3.93651,0 -8.64014,3.84706 -8.64014,8.16313"
     id="path144"
     style="stroke-width:0.436193" />
  <path
     class="Note"
     d="m 735.87353,290.98808 c 0,2.01513 1.25514,4.26478 4.54512,4.26478 4.21551,0 8.64014,-3.98631 8.64014,-8.11186 0,-2.7699 -2.0285,-4.31604 -4.54512,-4.31604 -3.93651,0 -8.64014,3.84705 -8.64014,8.16312"
     id="path146"
     style="stroke-width:0.436193" />
  <path
     class="Note"
     d="m 452.32937,267.53925 c 0,2.01514 1.25514,4.26476 4.5451,4.26476 4.21552,0 8.64014,-3.98631 8.64014,-8.11185 0,-2.76991 -2.0285,-4.31605 -4.5451,-4.31605 -3.93651,0 -8.64014,3.84708 -8.64014,8.16314"
     id="path148"
     style="stroke-width:0.436193" />
  <path
     class="Note"
     d="m 869.53367,595.82349 c 0,2.01514 1.25513,4.26476 4.5451,4.26476 4.21553,0 8.64014,-3.98631 8.64014,-8.11183 0,-2.7699 -2.0285,-4.31605 -4.5451,-4.31605 -3.93652,0 -8.64014,3.84708 -8.64014,8.16312"
     id="path150"
     style="stroke-width:0.436193" />
  <path
     class="Note"
     d="m 513.43384,290.98808 c 0,2.01513 1.25512,4.26478 4.5451,4.26478 4.21551,0 8.64014,-3.98631 8.64014,-8.11186 0,-2.7699 -2.0285,-4.31604 -4.5451,-4.31604 -3.93653,0 -8.64014,3.84705 -8.64014,8.16312"
     id="path152"
     style="stroke-width:0.436193" />
  <path
     class="Note"
     d="m 889.1725,273.40144 c 0,2.01514 1.25512,4.26478 4.5451,4.26478 4.21551,0 8.64014,-3.98631 8.64014,-8.11185 0,-2.7699 -2.0285,-4.31605 -4.54512,-4.31605 -3.93651,0 -8.64012,3.84708 -8.64012,8.16312"
     id="path154"
     style="stroke-width:0.436193" />
  <path
     class="Note"
     d="m 272.88649,589.96128 c 0,2.01514 1.25514,4.26476 4.54511,4.26476 4.21551,0 8.64015,-3.98631 8.64015,-8.11183 0,-2.76991 -2.0285,-4.31605 -4.5451,-4.31605 -3.93655,0 -8.64016,3.84707 -8.64016,8.16312"
     id="path156"
     style="stroke-width:0.436193" />
  <path
     class="Note"
     d="m 828.06393,279.26366 c 0,2.01513 1.25514,4.26477 4.54512,4.26477 4.21551,0 8.64014,-3.98631 8.64014,-8.11185 0,-2.7699 -2.0285,-4.31605 -4.54512,-4.31605 -3.93651,0 -8.64014,3.84708 -8.64014,8.16313"
     id="path158"
     style="stroke-width:0.436193" />
  <path
     class="Note"
     d="m 352.79301,613.41013 c 0,2.01513 1.25514,4.26476 4.54512,4.26476 4.21551,0 8.64014,-3.98631 8.64014,-8.11184 0,-2.7699 -2.0285,-4.31606 -4.54512,-4.31606 -3.93651,0 -8.64014,3.84707 -8.64014,8.16314"
     id="path160"
     style="stroke-width:0.436193" />
  <path
     class="Note"
     d="m 450.13728,595.82349 c 0,2.01514 1.25513,4.26476 4.5451,4.26476 4.21553,0 8.64014,-3.98631 8.64014,-8.11183 0,-2.7699 -2.02849,-4.31605 -4.5451,-4.31605 -3.93652,0 -8.64014,3.84708 -8.64014,8.16312"
     id="path162"
     style="stroke-width:0.436193" />
  <path
     class="Clef"
     d="m 115.9653,271.29106 c 0,-7.03468 -4.34224,-11.8197 -10.26295,-11.8197 -0.4057,-2.81386 -0.77336,-5.62773 -1.13466,-8.2071 4.25984,-5.21007 7.25821,-11.11622 7.25821,-18.5246 0,-4.31605 -1.1347,-7.73813 -1.82564,-9.43068 -0.96987,-2.38896 -2.14897,-4.08198 -2.83991,-4.08198 -0.27892,0 -1.57842,0.61577 -2.87796,2.44056 -2.63705,3.56845 -3.36601,9.51861 -3.36601,13.46091 0,2.53544 0.20285,4.82902 0.8938,10.13434 -0.0444,0 -2.155292,2.48411 -3.004741,3.32682 -3.695653,3.94232 -8.80495,9.65798 -8.80495,18.99356 0,8.81533 6.611653,15.71076 14.161501,15.71076 1.1727,0 2.26936,-0.13918 3.2456,-0.32974 0.72896,4.50655 1.2171,7.78938 1.2171,10.27351 0,4.88033 -2.19334,7.45971 -6.25034,7.45971 -1.01426,0 -1.86367,-0.23451 -1.90806,-0.2858 -0.0761,0 -0.15847,-0.044 -0.15847,-0.088 0,-0.0952 0.0824,-0.14654 0.20286,-0.19055 1.90804,-0.32973 3.80977,-2.20563 3.80977,-5.20269 0,-2.53544 -1.66085,-5.21005 -4.70361,-5.21005 -2.801855,0 -4.6275,2.67461 -4.6275,5.76696 0,3.09966 2.028502,7.18122 7.50545,7.18122 5.23606,0 7.79071,-3.42939 7.79071,-9.43086 0,-1.82459 -0.24086,-3.935 -0.64656,-6.60963 -0.12042,-0.93794 -0.32331,-2.39618 -0.60855,-4.17685 3.97457,-1.54617 6.93491,-6.2872 6.93491,-11.16018 m -12.49431,-38.41217 c 0.4057,-1.8759 2.23136,-6.80017 4.3423,-6.80017 0.60854,0 1.6228,2.2496 1.6228,5.53244 0,4.82901 -3.1632,8.49289 -5.9651,11.72442 -0.24087,-1.8759 -0.44371,-3.7518 -0.44371,-5.67167 0,-1.78065 0.15847,-3.33414 0.44371,-4.78502 m 1.2171,48.49517 c -5.80021,0 -10.751042,-4.68978 -10.751042,-11.77573 0,-5.71567 3.530873,-10.83044 7.061732,-14.44302 0.68461,-0.65951 1.33755,-1.36298 1.9461,-2.01515 0.36131,2.52807 0.69095,4.68978 0.93181,6.66094 -3.69564,1.21643 -6.205912,5.76696 -6.205912,10.12699 0,3.33414 2.231346,7.83338 5.476952,7.83338 0.32326,0 0.69095,-0.19054 0.69095,-0.65947 0,-0.37372 -0.36769,-0.65221 -0.8938,-1.02591 -1.58479,-1.08452 -2.47859,-2.34489 -2.47859,-4.60184 0,-2.85784 1.87004,-5.15877 4.2218,-5.81094 l 2.3518,15.381 c -0.8114,0.2345 -1.5404,0.32975 -2.3518,0.32975 m 4.057,-0.89398 c -0.8494,-5.57643 -1.94606,-13.0361 -2.23134,-15.10256 4.09505,0 5.84464,3.28287 6.20595,5.53982 0.0443,0.37372 0.12042,0.88665 0.12042,1.45089 0,3.37811 -1.2171,6.80017 -4.09507,8.11185 m -1.58474,24.57734 c 0,-1.73667 -1.37557,-2.48409 -2.71313,-2.48409 -1.7052,0 -3.37238,1.21639 -3.37238,3.32678 0,0.89401 0.28524,1.55349 0.8938,2.20565 -1.05226,0.46897 -2.148947,1.40694 -2.148947,2.86518 0,1.54616 1.217087,2.57935 3.004727,2.57935 2.18697,0 3.72737,-1.40691 3.72737,-3.42939 0,-1.07717 -0.4057,-1.96383 -1.1347,-2.57936 1.17909,-0.60822 1.74326,-1.35564 1.74326,-2.48412 m -2.51027,1.8759 c -0.60856,-0.37368 -0.7734,-0.46897 -0.8938,-0.56422 l -0.0444,-0.044 c -0.6466,-0.42504 -0.84945,-0.75476 -0.84945,-1.31168 0,-0.85003 0.57054,-1.45824 1.38194,-1.45824 0.8114,0 1.25511,0.56422 1.25511,1.54617 0,0.75476 -0.24086,1.2677 -0.84941,1.83192 m -1.54673,5.62772 c -0.88747,0 -1.49603,-0.65214 -1.49603,-1.64141 0,-0.88665 0.36133,-1.68536 1.05228,-2.15435 0.16482,0.0952 0.20284,0.13917 0.32329,0.18317 0.4881,0.2858 0.4881,0.2858 0.57054,0.38105 0.8114,0.51295 1.09665,0.98194 1.09665,1.64142 0,0.88665 -0.65293,1.5901 -1.54673,1.5901"
     id="path164"
     style="stroke-width:0.436193" />
  <path
     class="Clef"
     d="m 65.252407,593.71309 c 0,-7.03464 -4.342245,-11.81968 -10.262958,-11.81968 -0.4057,-2.81386 -0.773352,-5.62773 -1.13466,-8.20708 4.259848,-5.21009 7.258216,-11.11622 7.258216,-18.52464 0,-4.31605 -1.134704,-7.73811 -1.825659,-9.43064 -0.969852,-2.389 -2.148949,-4.082 -2.839889,-4.082 -0.278926,0 -1.578424,0.61577 -2.877967,2.44058 -2.637046,3.56843 -3.366005,9.51857 -3.366005,13.46091 0,2.5354 0.202843,4.82898 0.893798,10.1343 -0.04435,0 -2.155292,2.48411 -3.004742,3.32684 -3.695653,3.9423 -8.80495,9.65796 -8.80495,18.99356 0,8.81535 6.611653,15.71078 14.161483,15.71078 1.172723,0 2.269379,-0.13938 3.245604,-0.32976 0.728974,4.50653 1.217116,7.78936 1.217116,10.27349 0,4.88033 -2.193341,7.45971 -6.250346,7.45971 -1.014258,0 -1.863664,-0.23449 -1.908056,-0.28578 -0.07607,0 -0.158465,-0.044 -0.158465,-0.088 0,-0.0952 0.08238,-0.14654 0.202857,-0.19055 1.908042,-0.32969 3.80977,-2.20561 3.80977,-5.20267 0,-2.53544 -1.660866,-5.21009 -4.703612,-5.21009 -2.801855,0 -4.627499,2.67465 -4.627499,5.767 0,3.09966 2.028502,7.18122 7.505451,7.18122 5.236058,0 7.790706,-3.42939 7.790706,-9.43088 0,-1.82457 -0.240862,-3.93496 -0.646562,-6.60959 -0.120417,-0.93796 -0.323304,-2.39618 -0.608544,-4.17687 3.974549,-1.54617 6.934913,-6.28718 6.934913,-11.1602 M 52.758089,555.30088 c 0.405701,-1.87592 2.23136,-6.80017 4.342289,-6.80017 0.608558,0 1.622802,2.24962 1.622802,5.53246 0,4.82899 -3.163207,8.49287 -5.965091,11.72442 -0.240862,-1.8759 -0.443705,-3.75181 -0.443705,-5.67169 0,-1.78065 0.158465,-3.33412 0.443705,-4.78502 m 1.217102,48.49517 c -5.800209,0 -10.751041,-4.68976 -10.751041,-11.77571 0,-5.71569 3.530873,-10.83043 7.061732,-14.44302 0.684611,-0.65955 1.337547,-1.363 1.946105,-2.01513 0.361308,2.52803 0.690941,4.68976 0.931803,6.66094 -3.695638,1.21641 -6.205909,5.76694 -6.205909,10.12697 0,3.33412 2.231345,7.83336 5.476949,7.83336 0.323259,0 0.690955,-0.19054 0.690955,-0.65945 0,-0.37376 -0.367696,-0.65221 -0.893798,-1.02593 -1.584797,-1.0845 -2.478595,-2.34489 -2.478595,-4.60184 0,-2.85782 1.870037,-5.15877 4.221799,-5.8109 l 2.351805,15.38098 c -0.811401,0.23448 -1.540404,0.32973 -2.351805,0.32973 m 4.057004,-0.89398 c -0.849405,-5.57643 -1.946061,-13.0361 -2.231345,-15.10256 4.095054,0 5.84463,3.28287 6.205953,5.53984 0.04435,0.3737 0.120416,0.88665 0.120416,1.45089 0,3.37809 -1.217086,6.80015 -4.095053,8.11183 m -1.584739,24.57732 c 0,-1.73663 -1.375566,-2.48407 -2.713128,-2.48407 -1.705199,0 -3.372379,1.21641 -3.372379,3.32681 0,0.89398 0.28524,1.55348 0.893798,2.20564 -1.052263,0.46899 -2.148962,1.40694 -2.148962,2.86518 0,1.54614 1.217101,2.57935 3.004741,2.57935 2.186968,0 3.727372,-1.40693 3.727372,-3.42939 0,-1.07717 -0.4057,-1.96383 -1.134704,-2.57936 1.179082,-0.6082 1.743262,-1.35564 1.743262,-2.48416 m -2.51027,1.87596 c -0.608558,-0.37372 -0.773397,-0.46903 -0.893813,-0.56424 l -0.04435,-0.044 c -0.646606,-0.425 -0.849449,-0.75476 -0.849449,-1.31168 0,-0.85001 0.570539,-1.45822 1.38194,-1.45822 0.811401,0 1.255106,0.56418 1.255106,1.54617 0,0.75474 -0.240863,1.2677 -0.849406,1.83194 m -1.546734,5.6277 c -0.887469,0 -1.496027,-0.65216 -1.496027,-1.64141 0,-0.88665 0.361323,-1.68538 1.052263,-2.15435 0.164839,0.0952 0.202858,0.13917 0.323304,0.18317 0.488097,0.28578 0.488097,0.28578 0.570538,0.38105 0.811401,0.51293 1.096656,0.9819 1.096656,1.64142 0,0.88665 -0.652936,1.5901 -1.546734,1.5901"
     id="path166"
     style="stroke-width:0.436193" />
  <path
     class="KeySig"
     d="m 135.55607,231.33275 c 0.24723,-0.044 0.45007,-0.37372 0.45007,-0.65952 v -2.76255 c 0,-0.46897 -0.28528,-0.65947 -0.65293,-0.65947 l -1.33755,0.32973 v -6.99071 h -1.1347 v 7.26914 l -3.61326,0.85002 v -6.61694 h -1.1347 v 6.89542 l -1.58475,0.37372 c -0.24089,0.0512 -0.44374,0.37368 -0.44374,0.65948 v 2.71861 c 0,0.51295 0.32329,0.65951 0.69096,0.65951 l 1.33753,-0.32975 v 7.73813 l -1.58475,0.37372 c -0.24089,0.044 -0.44374,0.37372 -0.44374,0.65951 v 2.71857 c 0,0.51296 0.32329,0.65221 0.69096,0.65221 l 1.33753,-0.32243 v 6.98335 h 1.1347 v -7.26914 l 3.61326,-0.84271 v 6.61699 h 1.1347 v -6.89542 l 1.54041,-0.32978 c 0.24723,-0.0512 0.45007,-0.37368 0.45007,-0.65947 v -2.76259 c 0,-0.46898 -0.28528,-0.6595 -0.65293,-0.6595 l -1.33755,0.32976 v -7.73814 l 1.54041,-0.32975 m -6.28837,1.45091 3.61326,-0.84271 v 7.73814 l -3.61326,0.89399 v -7.78942"
     id="path168"
     style="stroke-width:0.436193" />
  <path
     class="KeySig"
     d="m 84.843583,553.7548 c 0.24722,-0.044 0.450078,-0.37372 0.450078,-0.65954 v -2.76253 c 0,-0.46897 -0.285284,-0.65949 -0.652936,-0.65949 l -1.337547,0.32975 v -6.99073 h -1.134704 v 7.26914 l -3.613256,0.85002 v -6.61692 h -1.134704 v 6.89542 l -1.584768,0.37372 c -0.240877,0.0512 -0.443735,0.37366 -0.443735,0.6595 v 2.71859 c 0,0.51295 0.323289,0.65949 0.69097,0.65949 l 1.337533,-0.32973 v 7.73811 l -1.584768,0.37372 c -0.240877,0.044 -0.443735,0.37372 -0.443735,0.65955 v 2.71855 c 0,0.51294 0.323289,0.65221 0.69097,0.65221 l 1.337533,-0.32241 v 6.98335 h 1.134704 v -7.26918 l 3.613256,-0.84269 v 6.61701 h 1.134704 v -6.89542 l 1.540405,-0.3298 c 0.24722,-0.0512 0.450078,-0.37368 0.450078,-0.65951 v -2.76255 c 0,-0.469 -0.285284,-0.65952 -0.652936,-0.65952 l -1.337547,0.32976 v -7.73812 l 1.540405,-0.32975 m -6.288365,1.45089 3.613256,-0.84269 v 7.73812 l -3.613256,0.89399 v -7.78942"
     id="path170"
     style="stroke-width:0.436193" />
  <path
     class="TimeSig"
     d="m 160.79164,250.04787 c -0.32326,1.02588 -1.13466,4.40401 -3.12514,4.40401 -2.63706,0 -3.20756,-1.87592 -5.39457,-1.87592 -0.32326,0 -0.65289,0.0514 -1.05859,0.13917 0,0 1.01426,-1.78063 5.31846,-3.3268 4.29791,-1.54616 5.39455,-3.98631 5.39455,-6.80017 0,-1.97115 -0.76701,-5.86221 -6.89691,-5.86221 -6.12354,0 -7.26458,4.26474 -7.26458,6.42643 0,1.91989 1.38193,3.46605 3.04277,3.46605 1.66716,0 3.00471,-1.54616 3.00471,-3.46605 0,-1.31168 -0.8114,-2.76986 -1.86367,-3.23885 -0.12673,-0.044 -0.28528,-0.27847 -0.28528,-0.51295 0,-0.28582 0.20284,-0.60823 0.93185,-0.84271 0.20285,-0.0952 0.77339,-0.23449 1.38194,-0.23449 2.30742,0 2.75746,1.64142 2.75746,4.0303 0,5.48849 -5.64174,6.66093 -7.99355,10.74252 0,0 -1.2171,1.96384 -1.2171,4.1695 0,2.20564 0.97621,2.34487 1.45799,2.34487 0.65292,0 1.34388,-0.6082 1.34388,-1.45091 0,-0.19054 -0.0444,-0.37368 -0.12673,-0.60816 -0.24088,-0.65954 -0.32329,-1.17245 -0.32329,-1.5535 0,-0.13917 0,-0.27848 0.0443,-0.41772 0.038,-0.28575 0.36132,-0.75472 1.33753,-0.75472 1.17275,0 1.6228,1.59743 2.3518,2.81386 0.72901,1.22372 1.86371,1.97115 3.16321,1.97115 1.2995,0 3.04275,-1.07719 3.77808,-2.81386 0.729,-1.73667 1.66082,-5.25401 1.66082,-6.5144 0,-0.61553 -0.32326,-0.89398 -0.69095,-0.89398 -0.28524,0 -0.56417,0.19055 -0.72901,0.6595"
     id="path172"
     style="stroke-width:0.436193" />
  <path
     class="TimeSig"
     d="m 154.01542,277.38775 v 3.46607 h -3.36607 c -0.28524,0 -0.57049,0.28574 -0.57049,0.65948 v 0.894 c 0,0.37369 0.28525,0.65216 0.57049,0.65216 h 12.29146 c 0.32963,0 0.5705,-0.27847 0.5705,-0.65216 v -0.894 c 0,-0.37374 -0.24087,-0.65948 -0.5705,-0.65948 h -3.60691 v -3.46607 h 3.60691 c 0.32963,0 0.5705,-0.32973 0.5705,-0.70347 v -0.89398 c 0,-0.32974 -0.24087,-0.65217 -0.5705,-0.65217 h -3.60691 v -7.45966 c 0,-0.27847 -0.12042,-0.51296 -0.3233,-0.60821 l -0.4881,-0.28579 c -0.0824,-0.044 -0.20286,-0.088 -0.28529,-0.088 -0.12041,0.044 -0.28525,0.088 -0.36765,0.18318 l -3.68935,3.89104 c -0.12042,0.14654 -0.16479,0.32975 -0.16479,0.52028 v 3.84707 h -4.66558 c 0,0 4.5071,-5.62772 9.29308,-13.04345 0.16482,-0.23448 0.20284,-0.46899 0.20284,-0.65217 0,-0.23448 -0.0824,-0.42498 -0.12042,-0.46897 l -0.89383,-1.03321 c -0.0824,-0.0952 -0.24087,-0.19054 -0.40571,-0.19054 -0.24086,0 -5.72414,0 -6.00307,0 -0.32963,0 -0.53247,0.28579 -0.57052,0.56428 0,0 -0.20286,3.47334 -1.25514,7.26912 -1.05862,3.80312 -2.27572,6.14801 -3.32801,7.87737 0,0 -0.12042,0.23449 -0.12042,0.52026 0,0.0954 0,0.18318 0.038,0.27847 0.16482,0.32974 0.4057,0.84271 0.4057,0.84271 0,0 0.0824,0.28575 0.44373,0.28575 h 6.97934"
     id="path174"
     style="stroke-width:0.436193" />
  <path
     class="Rest"
     d="m 976.20821,589.91003 c -0.038,-0.044 -0.12042,-0.13937 -0.24085,-0.32243 l -4.66555,-6.66098 c -0.0444,-0.0514 -0.0824,-0.19054 -0.0824,-0.28577 0,-0.13918 0.038,-0.32243 0.0824,-0.41768 l 4.13307,-7.22518 c 0.0444,-0.0954 0.0824,-0.23449 0.0824,-0.3298 v -0.41764 c 0,-0.13937 -0.038,-0.28582 -0.12042,-0.37376 l -6.5736,-10.27347 c 0,0 -0.15848,-0.28584 -0.4057,-0.28584 -0.12042,0 -0.20285,0 -0.32329,0.14655 -0.16483,0.13937 -0.20286,0.32241 -0.20286,0.46897 0,0.2785 0.12042,0.51299 0.12042,0.51299 l 3.08716,4.88025 c 0.0761,0.13937 0.12042,0.32241 0.12042,0.55689 0,0.19055 -0.0443,0.42507 -0.12042,0.56424 l -4.10141,7.22523 c -0.038,0.0952 -0.0824,0.27846 -0.0824,0.37371 v 0.42501 c 0,0.13918 0.0443,0.27847 0.12673,0.37372 l 4.53882,6.52171 c -0.15853,-0.0514 -0.52619,-0.14654 -1.01429,-0.14654 -2.06654,0 -3.68934,1.97115 -3.68934,4.36737 0,0.65213 0.12042,1.31164 0.44374,1.82458 0.85577,1.5022 3.89852,5.95746 3.89852,5.95746 0,0 0.20284,0.28583 0.48814,0.28583 0.0761,0 0.15844,0 0.24085,-0.0952 0.20286,-0.19054 0.28525,-0.37372 0.28525,-0.56428 0,-0.19054 -0.0824,-0.32976 -0.12041,-0.42497 -0.12673,-0.23448 -1.41999,-2.95314 -1.41999,-2.95314 0,0 -0.28525,-0.65945 -0.28525,-1.50218 0,-1.50214 0.96991,-2.71861 2.26937,-2.71861 0.52619,0 0.97623,0.19054 1.29952,0.42507 l 1.5848,1.17242 c 0,0 0.15843,0.088 0.32325,0.088 0.15851,0 0.2853,-0.044 0.4057,-0.23449 0.0824,-0.13937 0.12042,-0.2785 0.12042,-0.41774 0,-0.13917 -0.038,-0.23448 -0.12042,-0.37366 l -0.0824,-0.14654"
     id="path176"
     style="stroke-width:0.436193" />
  <path
     class="Beam"
     fill-rule="evenodd"
     d="m 594.74558,233.32166 47.10945,2.9311 v 5.87073 l -47.10945,-2.93111 v -5.87072"
     id="path178"
     style="stroke-width:0.43971" />
  <path
     class="Beam"
     fill-rule="evenodd"
     d="m 418.40108,230.39481 h 47.10945 v 5.86221 h -47.10945 v -5.86221"
     id="path180"
     style="stroke-width:0.43971" />
  <path
     class="Beam"
     fill-rule="evenodd"
     d="m 242.05616,221.58448 47.10985,-5.86222 v 5.89624 l -47.10985,5.86221 v -5.89623"
     id="path182"
     style="stroke-width:0.43971" />
  <path
     class="Beam"
     fill-rule="evenodd"
     d="m 220.15818,552.81686 h 65.91028 v 5.86221 h -65.91028 v -5.86221"
     id="path184"
     style="stroke-width:0.43971" />
  <path
     class="Beam"
     fill-rule="evenodd"
     d="m 993.5298,233.32166 47.1095,-2.93111 v 5.87073 l -47.1095,2.9311 v -5.87072"
     id="path186"
     style="stroke-width:0.43971" />
  <path
     class="Beam"
     fill-rule="evenodd"
     d="m 794.13564,245.04609 47.11355,-2.93112 v 5.87073 l -47.11355,2.9311 v -5.87071"
     id="path188"
     style="stroke-width:0.43971" />
  <path
     class="Beam"
     fill-rule="evenodd"
     d="m 736.90005,567.47238 65.90989,-2.9311 v 5.86219 l -65.90989,2.93112 v -5.86221"
     id="path190"
     style="stroke-width:0.43971" />
  <path
     class="Beam"
     fill-rule="evenodd"
     d="m 607.10879,567.47238 65.90989,2.93109 v 5.86221 l -65.90989,-2.93109 v -5.86221"
     id="path192"
     style="stroke-width:0.43971" />
  <path
     class="Beam"
     fill-rule="evenodd"
     d="m 901.3394,233.32166 47.10945,2.9311 v 5.87073 l -47.10945,-2.93111 v -5.87072"
     id="path194"
     style="stroke-width:0.43971" />
  <path
     class="Beam"
     fill-rule="evenodd"
     d="m 462.30419,555.74795 65.90988,2.93112 v 5.86221 l -65.90988,-2.93112 v -5.86221"
     id="path196"
     style="stroke-width:0.43971" />
  <path
     class="Beam"
     fill-rule="evenodd"
     d="m 701.94524,245.04609 47.10945,2.93109 v 5.87071 l -47.10945,-2.93109 v -5.87071"
     id="path198"
     style="stroke-width:0.43971" />
  <path
     class="Fingering"
     d="m 892.57514,218.13617 -2.97732,0.28035 -0.0532,0.68739 h 0.39669 c 0.65027,0 0.91201,0.16964 0.91201,0.59803 0,0.17024 -0.049,0.4581 -0.13084,0.82023 l -1.66861,6.50044 h 1.42322 l 0.67072,-2.66682 c 0.73614,-2.89566 2.22481,-5.08216 3.45172,-5.08216 0.42942,0 0.69117,0.2586 0.69117,0.73135 0,0.38389 -0.13496,1.17434 -0.33536,1.89103 l -1.30053,5.1266 h 1.41914 l 0.69934,-2.74057 c 0.40896,-1.57334 0.81793,-2.62997 1.3455,-3.44263 0.58484,-0.94553 1.42324,-1.56578 2.04486,-1.56578 0.40898,0 0.63801,0.24394 0.63801,0.69448 0,0.26568 -0.0818,0.67936 -0.22903,1.21121 l -0.7566,2.68904 c -0.44169,1.46981 -0.45395,1.588 -0.45395,2.1123 0,0.79801 0.50711,1.32231 1.27189,1.32231 0.54394,0 1.06742,-0.30258 1.62362,-0.90108 0.34354,-0.38388 0.56847,-0.72381 1.23919,-1.85416 l -0.50303,-0.39901 c -0.85067,1.47738 -1.45595,2.19407 -1.88127,2.19407 -0.17587,0 -0.34354,-0.20659 -0.34354,-0.47275 0,-0.16964 0.0532,-0.37681 0.19631,-0.93087 l 1.0306,-3.66388 c 0.11454,-0.41366 0.19631,-1.00461 0.19631,-1.41828 0,-1.00461 -0.638,-1.72084 -1.51729,-1.72084 -1.16556,0 -2.21254,0.8713 -3.15726,2.66636 0.0614,-0.36167 0.0941,-0.67936 0.0941,-0.90865 0,-1.0046 -0.69116,-1.75771 -1.58273,-1.75771 -1.0347,0 -1.78312,0.66471 -2.93641,2.55574 l 0.48259,-2.55574"
     id="path200"
     style="stroke-width:0.43971" />
  <path
     class="Fingering"
     d="m 223.4414,269.908 c -2.28779,0 -3.95557,2.87343 -3.95557,6.84791 0,3.8927 1.61666,6.74391 3.82102,6.74391 2.29434,0 3.89832,-2.75525 3.89832,-6.69238 0,-2.00165 -0.3644,-3.66388 -1.0482,-4.97153 -0.63881,-1.189 -1.687,-1.92791 -2.71557,-1.92791 m -0.11527,0.81266 c 0.53698,0 1.06088,0.41368 1.45717,1.17434 0.44087,0.88643 0.58769,1.96526 0.58769,4.55788 0,2.66682 -0.11498,3.91491 -0.44087,4.74223 -0.37707,0.93087 -0.96477,1.4925 -1.58477,1.4925 -0.5558,0 -1.06701,-0.41366 -1.45676,-1.16725 -0.46009,-0.89397 -0.5881,-2.06122 -0.5881,-5.16345 0,-2.21631 0.11498,-3.30932 0.44087,-4.14422 0.37708,-0.94551 0.96518,-1.49203 1.58477,-1.49203"
     id="path202"
     style="stroke-width:0.43971" />
  <path
     class="Fingering"
     d="m 356.19648,543.45622 -2.97896,0.28366 -0.0511,0.6855 h 0.3963 c 0.65026,0 0.91201,0.17024 0.91201,0.6004 0,0.16546 -0.0491,0.45386 -0.13084,0.81788 l -1.66943,6.50042 h 1.42404 l 0.67071,-2.66634 c 0.73615,-2.89803 2.22481,-5.08216 3.45172,-5.08216 0.42943,0 0.69117,0.26001 0.69117,0.73276 0,0.38294 -0.13495,1.17245 -0.33127,1.89105 l -1.30461,5.12469 h 1.41912 l 0.70344,-2.74198 c 0.40897,-1.5743 0.81793,-2.62854 1.34142,-3.4417 0.58483,-0.94551 1.42322,-1.56482 2.04486,-1.56482 0.40898,0 0.63799,0.24109 0.63799,0.69495 0,0.26475 -0.0818,0.68078 -0.22901,1.21026 l -0.75662,2.69 c -0.44167,1.47028 -0.45395,1.58847 -0.45395,2.11323 0,0.79423 0.50713,1.31901 1.27191,1.31901 0.54392,0 1.06741,-0.30258 1.62362,-0.89826 0.34762,-0.38766 0.56847,-0.72331 1.23917,-1.85321 l -0.50303,-0.40185 c -0.85065,1.47975 -1.45594,2.19362 -1.88127,2.19362 -0.17585,0 -0.34354,-0.20803 -0.34354,-0.47278 0,-0.17023 0.0532,-0.37348 0.2004,-0.93133 l 1.02653,-3.66388 c 0.11454,-0.41129 0.20039,-1.00225 0.20039,-1.41828 0,-1.00225 -0.64209,-1.72084 -1.52138,-1.72084 -1.16557,0 -2.21253,0.87461 -3.15726,2.66637 0.0614,-0.35931 0.094,-0.67604 0.094,-0.9077 0,-1.00225 -0.69116,-1.75867 -1.58272,-1.75867 -1.0347,0 -1.78311,0.6666 -2.93233,2.55764 l 0.4785,-2.55764"
     id="path204"
     style="stroke-width:0.43971" />
  <path
     class="Fingering"
     d="m 211.39269,537.59401 -2.97773,0.28366 -0.0511,0.6855 h 0.39629 c 0.6515,0 0.91365,0.17023 0.91365,0.6004 0,0.16545 -0.0511,0.45386 -0.13422,0.81788 l -1.66778,6.50042 h 1.42485 l 0.67113,-2.66635 c 0.73492,-2.89802 2.22357,-5.08216 3.45049,-5.08216 0.42819,0 0.69033,0.26001 0.69033,0.73279 0,0.38292 -0.13407,1.17242 -0.33248,1.89103 l -1.3034,5.12469 h 1.41872 l 0.70262,-2.74199 c 0.40897,-1.57429 0.81795,-2.62853 1.34224,-3.44169 0.5877,-0.94551 1.42487,-1.56483 2.04487,-1.56483 0.40897,0 0.63881,0.2411 0.63881,0.69496 0,0.26475 -0.083,0.68078 -0.22984,1.21025 l -0.75414,2.69 c -0.44087,1.47029 -0.45397,1.58848 -0.45397,2.11324 0,0.79423 0.50509,1.31901 1.2719,1.31901 0.54312,0 1.06701,-0.30258 1.62322,-0.89826 0.34475,-0.38766 0.56846,-0.72331 1.23958,-1.85321 l -0.50507,-0.40185 c -0.84985,1.47974 -1.45676,2.19361 -1.87841,2.19361 -0.17913,0 -0.34517,-0.20802 -0.34517,-0.47277 0,-0.17023 0.0511,-0.37348 0.19794,-0.93133 l 1.02897,-3.66388 c 0.11498,-0.41129 0.19794,-1.00225 0.19794,-1.41828 0,-1.00223 -0.63881,-1.72084 -1.52055,-1.72084 -1.16312,0 -2.21132,0.8746 -3.15685,2.66637 0.0637,-0.35931 0.0957,-0.67604 0.0957,-0.9077 0,-1.00225 -0.68995,-1.75867 -1.58477,-1.75867 -1.03511,0 -1.78271,0.6666 -2.93315,2.55763 l 0.47931,-2.55763"
     id="path206"
     style="stroke-width:0.43971" />
  <path
     class="Fingering"
     d="m 283.39911,195.96425 c -0.49199,0 -0.88174,0.4581 -0.88174,1.02683 0,0.54652 0.38975,1.01927 0.86907,1.01927 0.50466,0 0.89441,-0.4581 0.89441,-1.01927 0,-0.56873 -0.38975,-1.02683 -0.88174,-1.02683 m 0.29405,4.6165 -3.13763,0.28082 -0.0639,0.68691 h 0.38975 c 0.67111,0 0.93286,0.17023 0.93286,0.58385 0,0.18437 -0.0319,0.39855 -0.14685,0.83443 l -0.95208,3.6861 c -0.30674,1.20412 -0.35786,1.47028 -0.35786,1.90569 0,0.66516 0.492,1.17481 1.11159,1.17481 1.40604,0 2.37081,-1.68444 3.06115,-2.91031 L 284.019,206.4978 c -0.84984,1.49202 -1.53363,2.29003 -1.9745,2.29003 -0.16646,0 -0.28138,-0.17023 -0.28138,-0.399 0,-0.18477 0.0637,-0.53185 0.19835,-1.05615 l 1.73159,-6.75193"
     id="path208"
     style="stroke-width:0.43971" />
  <path
     class="Fingering"
     d="m 453.53992,540.54876 -2.97731,0.27892 -0.0532,0.69024 h 0.39672 c 0.65026,0 0.91609,0.17023 0.91609,0.59566 0,0.17023 -0.0532,0.45858 -0.13496,0.8226 l -1.6686,6.50044 h 1.42322 l 0.6707,-2.66637 c 0.73616,-2.898 2.22481,-5.08214 3.45172,-5.08214 0.42943,0 0.69118,0.25528 0.69118,0.72805 0,0.38766 -0.13496,1.17716 -0.33128,1.89103 l -1.30461,5.12943 h 1.41912 l 0.70344,-2.74201 c 0.40898,-1.57427 0.81794,-2.62853 1.34142,-3.44168 0.58893,-0.9455 1.42322,-1.56482 2.04487,-1.56482 0.40897,0 0.63798,0.2411 0.63798,0.69496 0,0.26473 -0.0818,0.67604 -0.22901,1.21025 l -0.75661,2.69 c -0.4376,1.46555 -0.45396,1.58374 -0.45396,2.1085 0,0.79897 0.50713,1.32373 1.27191,1.32373 0.54393,0 1.06742,-0.30256 1.62362,-0.90296 0.34763,-0.38294 0.56847,-0.72333 1.23918,-1.85323 l -0.50304,-0.39711 c -0.85065,1.47501 -1.45593,2.19359 -1.87717,2.19359 -0.17995,0 -0.34764,-0.208 -0.34764,-0.47275 0,-0.17023 0.0532,-0.3782 0.20041,-0.93133 l 1.02652,-3.66388 c 0.11454,-0.41131 0.20039,-1.00225 0.20039,-1.41828 0,-1.00225 -0.64208,-1.72084 -1.52137,-1.72084 -1.16557,0 -2.21254,0.86987 -3.15726,2.66637 0.0655,-0.35931 0.0941,-0.68078 0.0941,-0.9077 0,-1.00699 -0.68707,-1.75867 -1.58271,-1.75867 -1.0347,0 -1.78312,0.66658 -2.93233,2.55761 l 0.47849,-2.55761"
     id="path210"
     style="stroke-width:0.43971" />
  <path
     class="Fingering"
     d="m 270.75697,247.39285 c 1.48907,-0.62073 2.17287,-1.58848 2.17287,-3.1027 0,-1.97946 -1.30994,-3.25022 -3.33558,-3.25022 -1.91724,0 -3.36788,1.30763 -3.36788,3.02849 0,0.77579 0.44088,1.3223 1.08011,1.3223 0.56846,0 0.96475,-0.45763 0.96475,-1.13745 0,-0.41368 -0.13407,-0.65762 -0.51121,-0.96018 -0.15949,-0.1328 -0.21063,-0.21416 -0.21063,-0.33991 0,-0.53187 0.94555,-1.10059 1.87841,-1.10059 1.18234,0 1.80234,0.84956 1.80234,2.45978 0,1.75817 -0.62,2.68147 -1.78312,2.68147 -0.14685,0 -0.42818,-0.0139 -0.6707,-0.0368 -0.13452,-0.0139 -0.26216,-0.0139 -0.35786,-0.0139 -0.34517,0 -0.52429,0.16964 -0.52429,0.50963 0,0.31769 0.1599,0.47277 0.52429,0.47277 0.0958,0 0.2233,0 0.37053,-0.0223 0.33209,-0.0139 0.59424,-0.0139 0.77296,-0.0139 1.2081,0 1.86614,0.99705 1.86614,2.87343 0,1.96478 -0.81795,3.05781 -2.29393,3.05781 -1.02897,0 -2.14096,-0.64247 -2.14096,-1.22587 0,-0.17023 0.0319,-0.20707 0.34517,-0.41366 0.45354,-0.32525 0.63269,-0.64295 0.63269,-1.11572 0,-0.68691 -0.44087,-1.19654 -1.02898,-1.19654 -0.70302,0 -1.15658,0.66469 -1.15658,1.66931 0,1.83194 1.45063,3.09514 3.54661,3.09514 2.37081,0 3.91059,-1.50668 3.91059,-3.83359 0,-1.78042 -0.78563,-2.85876 -2.48574,-3.40529"
     id="path212"
     style="stroke-width:0.43971" />
  <path
     class="Fingering"
     d="m 984.76554,218.07281 -2.97732,0.28084 -0.0532,0.68691 h 0.39669 c 0.65027,0 0.91201,0.17023 0.91201,0.59851 0,0.16963 -0.049,0.4581 -0.13084,0.81977 l -1.6686,6.50042 h 1.42321 l 0.67072,-2.66635 c 0.73614,-2.89565 2.22481,-5.08216 3.45173,-5.08216 0.42941,0 0.69116,0.25812 0.69116,0.73089 0,0.38436 -0.13496,1.1748 -0.33127,1.89104 l -1.30462,5.12658 h 1.41914 l 0.70342,-2.74057 c 0.40897,-1.57335 0.81795,-2.6295 1.34142,-3.44216 0.58485,-0.94553 1.42324,-1.56578 2.04486,-1.56578 0.40898,0 0.63801,0.24347 0.63801,0.694 0,0.26618 -0.0818,0.67984 -0.22903,1.21169 l -0.7566,2.68859 c -0.44169,1.47026 -0.45395,1.58845 -0.45395,2.11275 0,0.79801 0.50711,1.32232 1.27189,1.32232 0.54394,0 1.06742,-0.30306 1.62362,-0.90109 0.34762,-0.38435 0.56847,-0.72426 1.23919,-1.85416 l -0.50303,-0.39901 c -0.85067,1.47738 -1.45595,2.19408 -1.88127,2.19408 -0.17587,0 -0.34354,-0.20707 -0.34354,-0.47276 0,-0.17023 0.0532,-0.3768 0.20039,-0.93087 l 1.02652,-3.66388 c 0.11454,-0.41366 0.20039,-1.0046 0.20039,-1.41828 0,-1.0046 -0.64208,-1.72132 -1.52137,-1.72132 -1.16556,0 -2.21254,0.87178 -3.15726,2.66685 0.0614,-0.36214 0.0941,-0.67983 0.0941,-0.90866 0,-1.0046 -0.69116,-1.75819 -1.58273,-1.75819 -1.0347,0 -1.78312,0.66519 -2.93233,2.55622 l 0.47851,-2.55622"
     id="path214"
     style="stroke-width:0.43971" />
  <path
     class="Fingering"
     d="m 340.49237,221.0356 -2.97772,0.28082 -0.0511,0.68691 h 0.39629 c 0.65149,0 0.91365,0.16964 0.91365,0.59853 0,0.16964 -0.0511,0.45762 -0.13408,0.81975 l -1.66778,6.50044 h 1.42485 l 0.67113,-2.66684 c 0.73492,-2.89564 2.22358,-5.08216 3.45049,-5.08216 0.4282,0 0.69034,0.25861 0.69034,0.73137 0,0.38435 -0.13408,1.17479 -0.33248,1.89103 l -1.30341,5.1266 h 1.41832 l 0.70302,-2.74059 c 0.40898,-1.57334 0.81795,-2.62947 1.34184,-3.44216 0.5881,-0.9455 1.42527,-1.56625 2.04486,-1.56625 0.40897,0 0.63922,0.24396 0.63922,0.69449 0,0.26617 -0.083,0.67983 -0.23025,1.21167 l -0.75373,2.68859 c -0.44087,1.46981 -0.45397,1.588 -0.45397,2.11276 0,0.79755 0.50509,1.32231 1.27191,1.32231 0.54312,0 1.067,-0.30304 1.6228,-0.90154 0.34517,-0.3839 0.56888,-0.72381 1.23999,-1.85371 l -0.50507,-0.399 c -0.84985,1.47737 -1.45676,2.19361 -1.87841,2.19361 -0.17912,0 -0.34517,-0.20661 -0.34517,-0.47277 0,-0.16964 0.0511,-0.37631 0.19794,-0.93038 l 1.02897,-3.6639 c 0.11499,-0.41366 0.19794,-1.0046 0.19794,-1.41826 0,-1.00462 -0.63881,-1.72132 -1.52096,-1.72132 -1.16271,0 -2.2109,0.87176 -3.15644,2.66683 0.0637,-0.36213 0.0958,-0.67982 0.0958,-0.90863 0,-1.00463 -0.68994,-1.7582 -1.58477,-1.7582 -1.03511,0 -1.7827,0.66469 -2.93315,2.55573 l 0.47931,-2.55573"
     id="path216"
     style="stroke-width:0.43971" />
  <path
     class="Fingering"
     d="m 522.44756,538.81846 c -0.49075,0 -0.87929,0.45858 -0.87929,1.02589 0,0.54839 0.38854,1.02116 0.86703,1.02116 0.50303,0 0.89565,-0.45857 0.89565,-1.02116 0,-0.56731 -0.39262,-1.02589 -0.88339,-1.02589 m 0.29446,4.61885 -3.13681,0.27894 -0.0655,0.6855 h 0.39262 c 0.67072,0 0.93246,0.17023 0.93246,0.58622 0,0.18437 -0.0327,0.39711 -0.14723,0.83204 l -0.95291,3.68753 c -0.30672,1.20554 -0.35989,1.47027 -0.35989,1.90521 0,0.6666 0.49485,1.17245 1.11239,1.17245 1.40688,0 2.37205,-1.68303 3.06321,-2.90746 l -0.51122,-0.32622 c -0.85066,1.49392 -1.53364,2.28815 -1.97532,2.28815 -0.16769,0 -0.2822,-0.16545 -0.2822,-0.39711 0,-0.18437 0.0655,-0.52948 0.2004,-1.05424 l 1.72994,-6.75101"
     id="path218"
     style="stroke-width:0.43971" />
  <path
     class="Fingering"
     d="m 785.37138,223.88917 -2.97731,0.28082 -0.049,0.68693 h 0.3926 c 0.65436,0 0.9161,0.16963 0.9161,0.5985 0,0.16964 -0.0532,0.45763 -0.13495,0.81976 l -1.66861,6.50044 h 1.42732 l 0.67072,-2.66683 c 0.73206,-2.89565 2.22071,-5.08216 3.44762,-5.08216 0.42942,0 0.69116,0.2586 0.69116,0.73135 0,0.38435 -0.13495,1.17482 -0.33126,1.89104 l -1.30462,5.1266 h 1.41913 l 0.70343,-2.74058 c 0.40897,-1.57334 0.81795,-2.62949 1.34144,-3.44215 0.58891,-0.94553 1.4273,-1.56626 2.04484,-1.56626 0.40898,0 0.638,0.24395 0.638,0.69448 0,0.26616 -0.0818,0.67982 -0.22902,1.21169 l -0.7525,2.68857 c -0.44169,1.4698 -0.45397,1.58799 -0.45397,2.11277 0,0.79754 0.50305,1.32229 1.2719,1.32229 0.54393,0 1.06742,-0.30303 1.62363,-0.90154 0.34354,-0.38387 0.56847,-0.7238 1.23919,-1.85368 l -0.50713,-0.39901 c -0.85067,1.47736 -1.45594,2.1936 -1.87719,2.1936 -0.17994,0 -0.34353,-0.2066 -0.34353,-0.47276 0,-0.16983 0.049,-0.37633 0.1963,-0.93039 l 1.03061,-3.66388 c 0.11455,-0.41366 0.19631,-1.00462 0.19631,-1.41828 0,-1.00462 -0.638,-1.72132 -1.52137,-1.72132 -1.16149,0 -2.21255,0.87178 -3.15726,2.66684 0.0653,-0.36215 0.0981,-0.67984 0.0981,-0.90865 0,-1.0046 -0.69117,-1.75819 -1.58681,-1.75819 -1.0347,0 -1.78312,0.66471 -2.93232,2.55574 l 0.47849,-2.55574"
     id="path220"
     style="stroke-width:0.43971" />
  <path
     class="Fingering"
     d="m 331.65695,252.97094 c -2.28738,0 -3.95557,2.87341 -3.95557,6.84744 0,3.89317 1.61707,6.74438 3.82142,6.74438 2.29433,0 3.89791,-2.75524 3.89791,-6.69237 0,-2.00214 -0.36398,-3.66388 -1.04778,-4.97154 -0.63922,-1.18947 -1.68701,-1.92791 -2.71598,-1.92791 m -0.11498,0.81266 c 0.53698,0 1.06087,0.41366 1.45717,1.17434 0.44087,0.88641 0.58769,1.96478 0.58769,4.55786 0,2.66637 -0.11498,3.91493 -0.44087,4.74225 -0.37708,0.93087 -0.96477,1.49203 -1.58477,1.49203 -0.55579,0 -1.06701,-0.41366 -1.45717,-1.16723 -0.46009,-0.89352 -0.58769,-2.06077 -0.58769,-5.16348 0,-2.21583 0.11498,-3.30931 0.44087,-4.14374 0.37708,-0.9455 0.96477,-1.49203 1.58477,-1.49203"
     id="path222"
     style="stroke-width:0.43971" />
  <path
     class="Fingering"
     d="m 409.63681,215.17339 -2.97731,0.28082 -0.0532,0.68691 h 0.3967 c 0.65026,0 0.912,0.16964 0.912,0.59805 0,0.17023 -0.049,0.4581 -0.13084,0.82023 l -1.6686,6.50044 h 1.42322 l 0.67071,-2.66684 c 0.73615,-2.89564 2.2248,-5.08214 3.45173,-5.08214 0.42941,0 0.69116,0.25859 0.69116,0.73135 0,0.38435 -0.13496,1.17433 -0.33536,1.89103 l -1.30053,5.1266 h 1.41912 l 0.69934,-2.74059 c 0.40898,-1.57334 0.81795,-2.62995 1.34552,-3.44216 0.58483,-0.94551 1.42322,-1.56623 2.04487,-1.56623 0.40897,0 0.638,0.24394 0.638,0.69447 0,0.26569 -0.0818,0.67935 -0.22903,1.21121 l -0.7566,2.68905 c -0.44169,1.46981 -0.45397,1.588 -0.45397,2.11276 0,0.79755 0.50713,1.32231 1.27191,1.32231 0.54393,0 1.06742,-0.30304 1.62362,-0.90155 0.34354,-0.38389 0.56847,-0.7238 1.23919,-1.85416 l -0.50305,-0.39854 c -0.85065,1.47737 -1.45593,2.19361 -1.88127,2.19361 -0.17585,0 -0.34352,-0.20661 -0.34352,-0.47277 0,-0.16964 0.0532,-0.37679 0.19631,-0.93038 l 1.0306,-3.66388 c 0.11454,-0.41368 0.19631,-1.00462 0.19631,-1.41828 0,-1.00462 -0.638,-1.72132 -1.51729,-1.72132 -1.16558,0 -2.21254,0.87176 -3.15726,2.66683 0.0614,-0.36213 0.0941,-0.67983 0.0941,-0.90864 0,-1.00462 -0.69116,-1.75819 -1.58271,-1.75819 -1.0347,0 -1.78312,0.66469 -2.93642,2.55573 l 0.48258,-2.55573"
     id="path224"
     style="stroke-width:0.43971" />
  <path
     class="Fingering"
     d="m 459.74402,210.55642 c -0.49077,0 -0.88337,0.45812 -0.88337,1.02684 0,0.5465 0.3926,1.01928 0.87111,1.01928 0.50303,0 0.89564,-0.45765 0.89564,-1.01928 0,-0.56872 -0.39261,-1.02684 -0.88338,-1.02684 m 0.29447,4.61697 -3.13682,0.28082 -0.0655,0.68691 h 0.38852 c 0.67072,0 0.93247,0.16964 0.93247,0.5834 0,0.18476 -0.0286,0.399 -0.14723,0.83488 l -0.94881,3.6861 c -0.30674,1.20412 -0.3599,1.46981 -0.3599,1.90569 0,0.66471 0.49077,1.17434 1.1124,1.17434 1.40686,0 2.37204,-1.68397 3.0591,-2.91031 l -0.51121,-0.32478 c -0.84657,1.49203 -1.53363,2.28958 -1.97125,2.28958 -0.16767,0 -0.28218,-0.16964 -0.28218,-0.39855 0,-0.18477 0.0655,-0.53185 0.19631,-1.05661 l 1.73404,-6.75147"
     id="path226"
     style="stroke-width:0.43971" />
  <path
     class="Fingering"
     d="m 598.34044,546.3117 -2.97731,0.27892 -0.049,0.69022 h 0.3967 c 0.65028,0 0.91201,0.17023 0.91201,0.59568 0,0.17023 -0.049,0.45858 -0.13496,0.8226 l -1.6686,6.50044 h 1.42731 l 0.67071,-2.66637 c 0.73615,-2.898 2.22481,-5.08216 3.45172,-5.08216 0.42533,0 0.68708,0.25529 0.68708,0.72805 0,0.38293 -0.13084,1.17718 -0.33128,1.89103 l -1.30461,5.12945 h 1.41912 l 0.70344,-2.74201 c 0.40898,-1.57428 0.81794,-2.62853 1.34143,-3.44168 0.58892,-0.94552 1.42731,-1.56484 2.04486,-1.56484 0.40897,0 0.64208,0.24112 0.64208,0.69024 0,0.26947 -0.0859,0.68078 -0.23311,1.21499 l -0.75251,2.68526 c -0.44169,1.47029 -0.45396,1.58848 -0.45396,2.11324 0,0.79896 0.50304,1.32372 1.27191,1.32372 0.54393,0 1.06742,-0.30255 1.62361,-0.90297 0.34354,-0.38294 0.56847,-0.72331 1.23919,-1.85321 l -0.50713,-0.39711 c -0.84657,1.475 -1.45594,2.19359 -1.87718,2.19359 -0.17995,0 -0.34354,-0.208 -0.34354,-0.47275 0,-0.17024 0.049,-0.37822 0.19631,-0.93133 l 1.0306,-3.6639 c 0.11455,-0.41601 0.19631,-1.00697 0.19631,-1.41826 0,-1.00699 -0.63798,-1.72084 -1.52137,-1.72084 -1.16148,0 -2.20845,0.86986 -3.15726,2.66634 0.0655,-0.36402 0.0981,-0.68077 0.0981,-0.90769 0,-1.00697 -0.69117,-1.75865 -1.58681,-1.75865 -1.0347,0 -1.78312,0.66658 -2.93233,2.55761 l 0.47849,-2.55761"
     id="path228"
     style="stroke-width:0.43971" />
  <path
     class="Fingering"
     d="m 516.83648,221.0356 -2.97732,0.28082 -0.0532,0.68691 h 0.39669 c 0.65436,0 0.91611,0.16964 0.91611,0.59853 0,0.16964 -0.0532,0.45762 -0.13496,0.81975 l -1.6686,6.50044 h 1.42732 l 0.6707,-2.66684 c 0.73206,-2.89564 2.22073,-5.08216 3.44764,-5.08216 0.42942,0 0.69116,0.25861 0.69116,0.73137 0,0.38435 -0.13495,1.17479 -0.33126,1.89103 l -1.30463,5.1266 h 1.41914 l 0.70342,-2.74059 c 0.40898,-1.57334 0.81795,-2.62947 1.34143,-3.44216 0.58892,-0.9455 1.42323,-1.56625 2.04486,-1.56625 0.40897,0 0.638,0.24396 0.638,0.69449 0,0.26617 -0.0818,0.67983 -0.22903,1.21167 l -0.75251,2.68859 c -0.44168,1.46981 -0.45396,1.588 -0.45396,2.11276 0,0.79755 0.50304,1.32231 1.27191,1.32231 0.53985,0 1.06742,-0.30304 1.62361,-0.90154 0.34354,-0.3839 0.56848,-0.72381 1.23919,-1.85371 l -0.50712,-0.399 c -0.85067,1.47737 -1.45595,2.19361 -1.87719,2.19361 -0.17994,0 -0.34762,-0.20661 -0.34762,-0.47277 0,-0.16964 0.0532,-0.37631 0.20039,-0.93038 l 1.02652,-3.6639 c 0.11866,-0.41366 0.20041,-1.0046 0.20041,-1.41826 0,-1.00462 -0.638,-1.72132 -1.52139,-1.72132 -1.16147,0 -2.21253,0.87176 -3.15726,2.66683 0.0655,-0.36213 0.0981,-0.67982 0.0981,-0.90863 0,-1.00463 -0.69116,-1.7582 -1.58681,-1.7582 -1.0347,0 -1.78312,0.66469 -2.93233,2.55573 l 0.47851,-2.55573"
     id="path230"
     style="stroke-width:0.43971" />
  <path
     class="Fingering"
     d="m 585.98133,218.13617 -2.97733,0.28035 -0.0532,0.68739 h 0.3967 c 0.65026,0 0.91201,0.16964 0.91201,0.59803 0,0.17024 -0.049,0.4581 -0.13085,0.82023 l -1.6686,6.50044 h 1.42322 l 0.67072,-2.66682 c 0.73614,-2.89566 2.22481,-5.08216 3.45172,-5.08216 0.42942,0 0.69116,0.2586 0.69116,0.73135 0,0.38389 -0.13495,1.17434 -0.33536,1.89103 l -1.30053,5.1266 h 1.41914 l 0.69934,-2.74057 c 0.40896,-1.57334 0.81794,-2.62997 1.34551,-3.44263 0.58484,-0.94553 1.42323,-1.56578 2.04486,-1.56578 0.40897,0 0.638,0.24394 0.638,0.69448 0,0.26568 -0.0818,0.67936 -0.22903,1.21121 l -0.75659,2.68904 c -0.4417,1.46981 -0.45396,1.588 -0.45396,2.1123 0,0.79801 0.50712,1.32231 1.27189,1.32231 0.54395,0 1.06742,-0.30258 1.62363,-0.90108 0.34354,-0.38388 0.56847,-0.72381 1.23919,-1.85416 l -0.50304,-0.39901 c -0.85067,1.47738 -1.45595,2.19407 -1.88127,2.19407 -0.17586,0 -0.34354,-0.20659 -0.34354,-0.47275 0,-0.16964 0.0532,-0.37681 0.19631,-0.93087 l 1.0306,-3.66388 c 0.11455,-0.41366 0.19631,-1.00461 0.19631,-1.41828 0,-1.00461 -0.638,-1.72084 -1.51729,-1.72084 -1.16556,0 -2.21253,0.8713 -3.15726,2.66636 0.0614,-0.36167 0.0941,-0.67936 0.0941,-0.90865 0,-1.0046 -0.69116,-1.75771 -1.58272,-1.75771 -1.0347,0 -1.78312,0.66471 -2.93642,2.55574 l 0.48259,-2.55574"
     id="path232"
     style="stroke-width:0.43971" />
  <path
     class="Fingering"
     d="m 636.08853,216.38743 c -0.49076,0 -0.88337,0.45764 -0.88337,1.02684 0,0.5465 0.39261,1.01926 0.87111,1.01926 0.50303,0 0.89564,-0.4581 0.89564,-1.01926 0,-0.5692 -0.39261,-1.02684 -0.88338,-1.02684 m 0.29446,4.6165 -3.13682,0.28081 -0.0655,0.68691 h 0.38853 c 0.67071,0 0.93245,0.17024 0.93245,0.58388 0,0.18437 -0.0286,0.39853 -0.14723,0.8344 l -0.94881,3.6861 c -0.30674,1.20413 -0.3599,1.46981 -0.3599,1.90569 0,0.66519 0.49077,1.17482 1.1124,1.17482 1.40688,0 2.37204,-1.68445 3.05912,-2.91079 l -0.51123,-0.32478 c -0.84657,1.49203 -1.53363,2.29004 -1.97123,2.29004 -0.16768,0 -0.2822,-0.17023 -0.2822,-0.399 0,-0.18477 0.0655,-0.53185 0.19631,-1.05613 l 1.73404,-6.75195"
     id="path234"
     style="stroke-width:0.43971" />
  <path
     class="Fingering"
     d="m 667.25218,540.62912 c -0.49486,0 -0.88338,0.45857 -0.88338,1.03062 0,0.54368 0.38852,1.01643 0.8711,1.01643 0.50305,0 0.89156,-0.45858 0.89156,-1.01643 0,-0.57205 -0.38851,-1.03062 -0.87928,-1.03062 m 0.29446,4.61886 -3.1409,0.27893 -0.0614,0.69023 h 0.38852 c 0.67072,0 0.93247,0.17024 0.93247,0.58149 0,0.18437 -0.0327,0.39711 -0.14723,0.83677 l -0.95291,3.6828 c -0.30672,1.20554 -0.3558,1.47028 -0.3558,1.90523 0,0.66658 0.49076,1.17716 1.1124,1.17716 1.40686,0 2.36794,-1.68303 3.0591,-2.9122 l -0.51121,-0.32619 c -0.85065,1.49392 -1.53363,2.29287 -1.97533,2.29287 -0.16359,0 -0.2781,-0.17024 -0.2781,-0.40184 0,-0.18437 0.0614,-0.52949 0.19631,-1.05425 l 1.73404,-6.751"
     id="path236"
     style="stroke-width:0.43971" />
  <path
     class="Fingering"
     d="m 835.47859,218.2085 c -0.49076,0 -0.87929,0.4581 -0.87929,1.02684 0,0.54698 0.38853,1.01973 0.86703,1.01973 0.50712,0 0.89564,-0.45809 0.89564,-1.01973 0,-0.56874 -0.38852,-1.02684 -0.88338,-1.02684 m 0.29446,4.61697 -3.1368,0.28082 -0.0614,0.68691 h 0.38852 c 0.67072,0 0.93247,0.16964 0.93247,0.5834 0,0.18477 -0.0327,0.399 -0.14724,0.83488 l -0.9529,3.6861 c -0.30672,1.20412 -0.3558,1.46981 -0.3558,1.90569 0,0.66471 0.49075,1.17434 1.1124,1.17434 1.40277,0 2.36794,-1.68397 3.0591,-2.91031 l -0.51121,-0.32478 c -0.85065,1.49203 -1.53363,2.28956 -1.97533,2.28956 -0.16359,0 -0.2822,-0.16964 -0.2822,-0.39853 0,-0.18477 0.0655,-0.53185 0.20041,-1.05662 l 1.72994,-6.75146"
     id="path238"
     style="stroke-width:0.43971" />
  <path
     class="Fingering"
     d="m 114.04883,543.45622 -2.97772,0.28366 -0.0511,0.6855 h 0.39629 c 0.6519,0 0.91365,0.17024 0.91365,0.6004 0,0.16546 -0.0511,0.45386 -0.13408,0.81788 l -1.66778,6.50042 h 1.42485 l 0.67113,-2.66634 c 0.73492,-2.89803 2.22399,-5.08216 3.4509,-5.08216 0.42779,0 0.68994,0.26001 0.68994,0.73276 0,0.38294 -0.13407,1.17245 -0.33208,1.89105 l -1.3038,5.12469 h 1.41871 l 0.70302,-2.74198 c 0.40898,-1.5743 0.81795,-2.62854 1.34184,-3.4417 0.58769,-0.94551 1.42486,-1.56482 2.04486,-1.56482 0.40898,0 0.63881,0.24109 0.63881,0.69495 0,0.26475 -0.083,0.68078 -0.22983,1.21026 l -0.75415,2.69 c -0.44087,1.47028 -0.45356,1.58847 -0.45356,2.11323 0,0.79423 0.50468,1.31901 1.2715,1.31901 0.54312,0 1.067,-0.30258 1.62321,-0.89826 0.34517,-0.38766 0.56847,-0.72331 1.2396,-1.85321 l -0.50468,-0.40185 c -0.84984,1.47975 -1.45717,2.19362 -1.87882,2.19362 -0.17912,0 -0.34517,-0.20803 -0.34517,-0.47278 0,-0.17023 0.0511,-0.37348 0.19835,-0.93133 l 1.02857,-3.66388 c 0.11498,-0.41129 0.19834,-1.00225 0.19834,-1.41828 0,-1.00225 -0.63922,-1.72084 -1.52096,-1.72084 -1.16312,0 -2.2109,0.87461 -3.15685,2.66637 0.0637,-0.35931 0.0957,-0.67604 0.0957,-0.9077 0,-1.00225 -0.68994,-1.75867 -1.58477,-1.75867 -1.03511,0 -1.7827,0.6666 -2.93274,2.55764 l 0.47891,-2.55764"
     id="path240"
     style="stroke-width:0.43971" />
  <path
     class="Fingering"
     d="m 728.1317,546.3117 -2.97731,0.27892 -0.0491,0.69022 h 0.3967 c 0.65026,0 0.91201,0.17023 0.91201,0.59568 0,0.17023 -0.049,0.45858 -0.13496,0.8226 l -1.66452,6.50044 h 1.42323 l 0.67071,-2.66637 c 0.73615,-2.898 2.22481,-5.08216 3.45172,-5.08216 0.42533,0 0.69116,0.25529 0.69116,0.72805 0,0.38293 -0.13495,1.17718 -0.33536,1.89103 l -1.30053,5.12945 h 1.41504 l 0.70344,-2.74201 c 0.40898,-1.57428 0.81794,-2.62853 1.34142,-3.44168 0.58893,-0.94552 1.42732,-1.56484 2.04487,-1.56484 0.40897,0 0.64208,0.24112 0.64208,0.69024 0,0.26947 -0.0859,0.68078 -0.23311,1.21499 l -0.75251,2.68526 c -0.4417,1.47029 -0.45396,1.58848 -0.45396,2.11324 0,0.79896 0.50713,1.32372 1.27191,1.32372 0.54393,0 1.06742,-0.30255 1.62361,-0.90297 0.34354,-0.38294 0.56847,-0.72331 1.23918,-1.85321 l -0.50303,-0.39711 c -0.85067,1.475 -1.46003,2.19359 -1.88127,2.19359 -0.17995,0 -0.34354,-0.208 -0.34354,-0.47275 0,-0.17024 0.0491,-0.37822 0.19631,-0.93133 l 1.0306,-3.6639 c 0.11455,-0.41601 0.19631,-1.00697 0.19631,-1.41826 0,-1.00699 -0.63799,-1.72084 -1.52137,-1.72084 -1.16148,0 -2.20845,0.86986 -3.15316,2.66634 0.0614,-0.36402 0.094,-0.68077 0.094,-0.90769 0,-1.00697 -0.69116,-1.75865 -1.58681,-1.75865 -1.0347,0 -1.77903,0.66658 -2.93233,2.55761 l 0.47849,-2.55761"
     id="path242"
     style="stroke-width:0.43971" />
  <path
     class="Fingering"
     d="m 693.18098,223.88917 -2.97731,0.28082 -0.0532,0.68693 h 0.3967 c 0.65436,0 0.91611,0.16963 0.91611,0.5985 0,0.16964 -0.0532,0.45763 -0.13496,0.81976 l -1.6686,6.50044 h 1.42731 l 0.67072,-2.66683 c 0.73206,-2.89565 2.22072,-5.08216 3.44763,-5.08216 0.42942,0 0.69116,0.2586 0.69116,0.73135 0,0.38435 -0.13496,1.17482 -0.33126,1.89104 l -1.30463,5.1266 h 1.41914 l 0.70342,-2.74058 c 0.40898,-1.57334 0.81795,-2.62949 1.34144,-3.44215 0.58891,-0.94553 1.42322,-1.56626 2.04485,-1.56626 0.40897,0 0.638,0.24395 0.638,0.69448 0,0.26616 -0.0818,0.67982 -0.22903,1.21169 l -0.7525,2.68857 c -0.44169,1.4698 -0.45397,1.58799 -0.45397,2.11277 0,0.79754 0.50305,1.32229 1.27191,1.32229 0.53985,0 1.06742,-0.30303 1.62362,-0.90154 0.34354,-0.38387 0.56847,-0.7238 1.23918,-1.85368 l -0.50712,-0.39901 c -0.85067,1.47736 -1.45594,2.1936 -1.87719,2.1936 -0.17995,0 -0.34762,-0.2066 -0.34762,-0.47276 0,-0.16983 0.0532,-0.37633 0.20039,-0.93039 l 1.02652,-3.66388 c 0.11866,-0.41366 0.20041,-1.00462 0.20041,-1.41828 0,-1.00462 -0.638,-1.72132 -1.52138,-1.72132 -1.16149,0 -2.21254,0.87178 -3.15727,2.66684 0.0655,-0.36215 0.0981,-0.67984 0.0981,-0.90865 0,-1.0046 -0.69117,-1.75819 -1.58681,-1.75819 -1.0347,0 -1.78312,0.66471 -2.93232,2.55574 l 0.47849,-2.55574"
     id="path244"
     style="stroke-width:0.43971" />
  <path
     class="Fingering"
     d="m 1034.8727,210.5881 c -0.4907,0 -0.8833,0.4581 -0.8833,1.02684 0,0.5465 0.3926,1.01925 0.8711,1.01925 0.503,0 0.8956,-0.4581 0.8956,-1.01925 0,-0.56874 -0.3926,-1.02684 -0.8834,-1.02684 m 0.2945,4.61697 -3.1368,0.28034 -0.066,0.68739 h 0.3885 c 0.6707,0 0.9325,0.16963 0.9325,0.58339 0,0.18477 -0.029,0.39901 -0.1432,0.83489 l -0.9529,3.68562 c -0.3067,1.20412 -0.3599,1.47029 -0.3599,1.90617 0,0.66471 0.4948,1.17433 1.1124,1.17433 1.4069,0 2.372,-1.68396 3.0632,-2.91031 l -0.5112,-0.32525 c -0.8507,1.4925 -1.5337,2.29004 -1.9754,2.29004 -0.1676,0 -0.2821,-0.16964 -0.2821,-0.39901 0,-0.18437 0.065,-0.53185 0.1963,-1.05613 l 1.734,-6.75147"
     id="path246"
     style="stroke-width:0.43971" />
  <path
     class="Fingering"
     d="m 942.68234,216.38743 c -0.49077,0 -0.88337,0.45764 -0.88337,1.02684 0,0.5465 0.3926,1.01926 0.87111,1.01926 0.50303,0 0.89565,-0.4581 0.89565,-1.01926 0,-0.5692 -0.39262,-1.02684 -0.88339,-1.02684 m 0.29447,4.6165 -3.13682,0.28081 -0.0655,0.68691 h 0.38854 c 0.6707,0 0.93245,0.17024 0.93245,0.58388 0,0.18437 -0.0286,0.39853 -0.14724,0.8344 l -0.9488,3.6861 c -0.30674,1.20413 -0.3599,1.46981 -0.3599,1.90569 0,0.66519 0.49077,1.17482 1.1124,1.17482 1.40686,0 2.37204,-1.68445 3.05912,-2.91079 l -0.51123,-0.32478 c -0.84657,1.49203 -1.53364,2.29004 -1.97125,2.29004 -0.16767,0 -0.28218,-0.17023 -0.28218,-0.399 0,-0.18477 0.0655,-0.53185 0.19631,-1.05613 l 1.73404,-6.75195"
     id="path248"
     style="stroke-width:0.43971" />
  <path
     class="Fingering"
     d="m 797.04343,540.62912 c -0.49485,0 -0.88338,0.45857 -0.88338,1.03062 0,0.54368 0.38853,1.01643 0.87111,1.01643 0.50304,0 0.89156,-0.45858 0.89156,-1.01643 0,-0.57205 -0.38852,-1.03062 -0.87929,-1.03062 m 0.29447,4.61886 -3.1409,0.27893 -0.0614,0.69023 h 0.38852 c 0.67072,0 0.93247,0.17024 0.93247,0.58149 0,0.18437 -0.0327,0.39711 -0.14724,0.83677 l -0.9488,3.6828 c -0.30674,1.20554 -0.3599,1.47028 -0.3599,1.90523 0,0.66658 0.49075,1.17716 1.1124,1.17716 1.40686,0 2.37204,-1.68303 3.0591,-2.9122 l -0.51121,-0.32619 c -0.84657,1.49392 -1.53363,2.29287 -1.97125,2.29287 -0.16767,0 -0.28218,-0.17024 -0.28218,-0.40184 0,-0.18437 0.0614,-0.52949 0.19631,-1.05425 l 1.73404,-6.751"
     id="path250"
     style="stroke-width:0.43971" />
  <path
     class="Fingering"
     d="m 743.28819,218.2085 c -0.49076,0 -0.87929,0.4581 -0.87929,1.02684 0,0.54698 0.38853,1.01973 0.86702,1.01973 0.50713,0 0.89565,-0.45809 0.89565,-1.01973 0,-0.56874 -0.38852,-1.02684 -0.88338,-1.02684 m 0.29446,4.61697 -3.1368,0.28082 -0.0655,0.68691 h 0.3926 c 0.67072,0 0.93247,0.16964 0.93247,0.5834 0,0.18477 -0.0327,0.399 -0.14723,0.83488 l -0.95291,3.6861 c -0.30672,1.20412 -0.3558,1.46981 -0.3558,1.90569 0,0.66471 0.49075,1.17434 1.1124,1.17434 1.40277,0 2.36794,-1.68397 3.0591,-2.91031 l -0.51121,-0.32478 c -0.85065,1.49203 -1.53365,2.28956 -1.97533,2.28956 -0.16359,0 -0.2822,-0.16964 -0.2822,-0.39853 0,-0.18477 0.0655,-0.53185 0.20041,-1.05662 l 1.72994,-6.75146"
     id="path252"
     style="stroke-width:0.43971" />
  <path
     class="Fingering"
     d="m 191.20871,216.41863 c -0.4924,0 -0.88215,0.4581 -0.88215,1.02684 0,0.54698 0.38975,1.01974 0.86906,1.01974 0.50508,0 0.89483,-0.4581 0.89483,-1.01974 0,-0.56874 -0.38975,-1.02684 -0.88174,-1.02684 m 0.29364,4.61697 -3.13763,0.28082 -0.0639,0.68691 h 0.38976 c 0.67111,0 0.93327,0.16964 0.93327,0.5834 0,0.18477 -0.0323,0.399 -0.14723,0.83488 l -0.95209,3.6861 c -0.30672,1.20413 -0.35785,1.46981 -0.35785,1.90569 0,0.66471 0.492,1.17434 1.112,1.17434 1.40564,0 2.37081,-1.68397 3.06075,-2.91031 l -0.51123,-0.32478 c -0.84983,1.49203 -1.53363,2.28958 -1.9745,2.28958 -0.16605,0 -0.28097,-0.16984 -0.28097,-0.39855 0,-0.18477 0.0637,-0.53184 0.19794,-1.0566 l 1.73159,-6.75148"
     id="path254"
     style="stroke-width:0.43971" />
  <path
     class="Fingering"
     d="m 280.30156,532.97988 c -0.49199,0 -0.88174,0.45858 -0.88174,1.02589 0,0.54841 0.38975,1.02117 0.86907,1.02117 0.50466,0 0.89482,-0.45858 0.89482,-1.02117 0,-0.56731 -0.39016,-1.02589 -0.88215,-1.02589 m 0.29405,4.61413 -3.13764,0.28366 -0.0637,0.6855 h 0.38975 c 0.67112,0 0.93286,0.17023 0.93286,0.58148 0,0.18437 -0.0319,0.40186 -0.14685,0.8368 l -0.95208,3.68751 c -0.30674,1.20082 -0.35786,1.47029 -0.35786,1.90521 0,0.66187 0.49199,1.17245 1.112,1.17245 1.40563,0 2.3704,-1.68301 3.06074,-2.90746 l -0.51121,-0.32621 c -0.84985,1.4892 -1.53365,2.28816 -1.97452,2.28816 -0.16605,0 -0.28137,-0.17023 -0.28137,-0.39711 0,-0.18437 0.0642,-0.53422 0.19835,-1.059 l 1.73159,-6.75099"
     id="path256"
     style="stroke-width:0.43971" />
  <path
     class="Fingering"
     d="m 872.93631,541.09243 -2.97731,0.28365 -0.0532,0.68551 h 0.39672 c 0.65434,0 0.91609,0.17024 0.91609,0.6004 0,0.16546 -0.0532,0.45384 -0.13496,0.81786 l -1.6686,6.50045 h 1.42322 l 0.6748,-2.66637 c 0.73206,-2.89801 2.22071,-5.08214 3.44762,-5.08214 0.42943,0 0.69116,0.26001 0.69116,0.73276 0,0.38294 -0.13495,1.17245 -0.33126,1.89104 l -1.30462,5.12471 h 1.41913 l 0.70344,-2.74201 c 0.40896,-1.57428 0.81794,-2.62854 1.34142,-3.44168 0.58893,-0.94553 1.42322,-1.56482 2.04487,-1.56482 0.40896,0 0.63798,0.24109 0.63798,0.69495 0,0.26473 -0.0818,0.68076 -0.22902,1.21026 l -0.7525,2.69 c -0.4417,1.47027 -0.45396,1.58847 -0.45396,2.11323 0,0.79423 0.50303,1.31899 1.27189,1.31899 0.53985,0 1.06334,-0.30256 1.61953,-0.89824 0.34764,-0.38766 0.56848,-0.72333 1.24328,-1.8532 l -0.50713,-0.40186 c -0.85065,1.47973 -1.45593,2.1936 -1.87717,2.1936 -0.17995,0 -0.34764,-0.20801 -0.34764,-0.47276 0,-0.17023 0.0532,-0.37348 0.20041,-0.93133 l 1.02652,-3.66388 c 0.11454,-0.41131 0.20039,-1.00225 0.20039,-1.41828 0,-1.00225 -0.638,-1.72084 -1.52137,-1.72084 -1.16148,0 -2.21254,0.87461 -3.15726,2.66635 0.0655,-0.35928 0.0941,-0.67604 0.0941,-0.9077 0,-1.00223 -0.68707,-1.75865 -1.58271,-1.75865 -1.0347,0 -1.78312,0.66658 -2.93233,2.55762 l 0.47849,-2.55762"
     id="path258"
     style="stroke-width:0.43971" />
  <path
     class="Fingering"
     d="m 176.33154,288.57913 c -2.28738,0 -3.95557,2.87344 -3.95557,6.84744 0,3.89317 1.61707,6.74439 3.82142,6.74439 2.29435,0 3.89793,-2.75525 3.89793,-6.69238 0,-2.00213 -0.364,-3.66388 -1.0478,-4.97154 -0.63922,-1.18945 -1.68701,-1.92791 -2.71598,-1.92791 m -0.11498,0.81269 c 0.53698,0 1.06088,0.41366 1.45717,1.17432 0.44087,0.88643 0.58769,1.96478 0.58769,4.55788 0,2.66634 -0.11498,3.91491 -0.44087,4.74224 -0.37707,0.93086 -0.96476,1.49201 -1.58477,1.49201 -0.55578,0 -1.06701,-0.41366 -1.45715,-1.16723 -0.4601,-0.89352 -0.5877,-2.06075 -0.5877,-5.16299 0,-2.21629 0.11484,-3.30932 0.44088,-4.14422 0.37706,-0.94551 0.96475,-1.49201 1.58475,-1.49201"
     id="path260"
     style="stroke-width:0.43971" />
  <path
     class="Fingering"
     d="m 233.29067,206.31673 -2.97772,0.28082 -0.0511,0.68691 h 0.3963 c 0.65189,0 0.91364,0.17023 0.91364,0.5985 0,0.16964 -0.0511,0.45812 -0.13408,0.81978 l -1.66778,6.50044 h 1.42487 l 0.67111,-2.66637 c 0.73492,-2.89565 2.22399,-5.08216 3.4509,-5.08216 0.42779,0 0.68994,0.2586 0.68994,0.73137 0,0.38387 -0.13407,1.17432 -0.33208,1.89104 l -1.3038,5.12612 h 1.41872 l 0.70303,-2.74059 c 0.40896,-1.57335 0.81793,-2.62948 1.34183,-3.44216 0.58769,-0.94551 1.42485,-1.56578 2.04485,-1.56578 0.40898,0 0.63882,0.24347 0.63882,0.69402 0,0.26616 -0.083,0.67982 -0.22984,1.21167 l -0.75415,2.68859 c -0.44087,1.47028 -0.45354,1.58847 -0.45354,2.11275 0,0.79801 0.50466,1.32232 1.27149,1.32232 0.54311,0 1.06701,-0.30304 1.6232,-0.90109 0.34518,-0.38435 0.56848,-0.72379 1.2396,-1.85416 l -0.50468,-0.39901 c -0.84983,1.47738 -1.45715,2.19407 -1.8788,2.19407 -0.17914,0 -0.34519,-0.20706 -0.34519,-0.47275 0,-0.17023 0.0511,-0.37678 0.19837,-0.93087 l 1.02856,-3.66388 c 0.11498,-0.41366 0.19835,-1.0046 0.19835,-1.41826 0,-1.00462 -0.63922,-1.72132 -1.52096,-1.72132 -1.16312,0 -2.21091,0.87176 -3.15687,2.66682 0.0639,-0.36213 0.0958,-0.67934 0.0958,-0.90863 0,-1.00462 -0.68993,-1.75819 -1.58477,-1.75819 -1.0351,0 -1.7827,0.66517 -2.93273,2.5562 l 0.47891,-2.5562"
     id="path262"
     style="stroke-width:0.43971" />
  <metadata
     id="metadata497">
    <rdf:RDF>
      <cc:Work
         rdf:about="">
        <dc:title>il_court_il_court_le_furet</dc:title>
      </cc:Work>
    </rdf:RDF>
  </metadata>
</svg>
