<?xml version="1.0" encoding="UTF-8" standalone="no"?>
<svg
   width="297mm"
   height="210mm"
   viewBox="0 0 1122.5197 793.7008"
   version="1.2"
   id="svg114"
   sodipodi:docname="joyeux_anniversaire.svg"
   inkscape:version="1.3 (0e150ed6c4, 2023-07-21)"
   xmlns:inkscape="http://www.inkscape.org/namespaces/inkscape"
   xmlns:sodipodi="http://sodipodi.sourceforge.net/DTD/sodipodi-0.dtd"
   xmlns="http://www.w3.org/2000/svg"
   xmlns:svg="http://www.w3.org/2000/svg"
   xmlns:rdf="http://www.w3.org/1999/02/22-rdf-syntax-ns#"
   xmlns:cc="http://creativecommons.org/ns#"
   xmlns:dc="http://purl.org/dc/elements/1.1/">
  <defs
     id="defs114" />
  <sodipodi:namedview
     id="namedview114"
     pagecolor="#ffffff"
     bordercolor="#000000"
     borderopacity="0.25"
     inkscape:showpageshadow="2"
     inkscape:pageopacity="0.0"
     inkscape:pagecheckerboard="0"
     inkscape:deskcolor="#d1d1d1"
     inkscape:zoom="0.56078321"
     inkscape:cx="576.87177"
     inkscape:cy="406.57423"
     inkscape:window-width="1440"
     inkscape:window-height="872"
     inkscape:window-x="-8"
     inkscape:window-y="-8"
     inkscape:window-maximized="1"
     inkscape:current-layer="svg114"
     inkscape:document-units="mm" />
  <title
     id="title1">joyeux_anniversaire</title>
  <desc
     id="desc1">Generated by MuseScore Studio 4.3.0</desc>
  <polyline
     class="StaffLines"
     fill="none"
     stroke="#000000"
     stroke-width="2.73"
     stroke-linejoin="bevel"
     points="336.598,634.198 2764.6,634.198"
     id="polyline1"
     transform="matrix(0.4220684,0,0,0.4220684,-71.516874,-74.674225)" />
  <polyline
     class="StaffLines"
     fill="none"
     stroke="#000000"
     stroke-width="2.73"
     stroke-linejoin="bevel"
     points="336.598,658.998 2764.6,658.998"
     id="polyline2"
     transform="matrix(0.4220684,0,0,0.4220684,-71.516874,-74.674225)" />
  <polyline
     class="StaffLines"
     fill="none"
     stroke="#000000"
     stroke-width="2.73"
     stroke-linejoin="bevel"
     points="336.598,683.798 2764.6,683.798"
     id="polyline3"
     transform="matrix(0.4220684,0,0,0.4220684,-71.516874,-74.674225)" />
  <polyline
     class="StaffLines"
     fill="none"
     stroke="#000000"
     stroke-width="2.73"
     stroke-linejoin="bevel"
     points="336.598,708.598 2764.6,708.598"
     id="polyline4"
     transform="matrix(0.4220684,0,0,0.4220684,-71.516874,-74.674225)" />
  <polyline
     class="StaffLines"
     fill="none"
     stroke="#000000"
     stroke-width="2.73"
     stroke-linejoin="bevel"
     points="336.598,733.398 2764.6,733.398"
     id="polyline5"
     transform="matrix(0.4220684,0,0,0.4220684,-71.516874,-74.674225)" />
  <polyline
     class="StaffLines"
     fill="none"
     stroke="#000000"
     stroke-width="2.73"
     stroke-linejoin="bevel"
     points="212.598,1241.8 2764.6,1241.8"
     id="polyline6"
     transform="matrix(0.4220684,0,0,0.4220684,-71.516874,-74.674225)" />
  <polyline
     class="StaffLines"
     fill="none"
     stroke="#000000"
     stroke-width="2.73"
     stroke-linejoin="bevel"
     points="212.598,1266.6 2764.6,1266.6"
     id="polyline7"
     transform="matrix(0.4220684,0,0,0.4220684,-71.516874,-74.674225)" />
  <polyline
     class="StaffLines"
     fill="none"
     stroke="#000000"
     stroke-width="2.73"
     stroke-linejoin="bevel"
     points="212.598,1291.4 2764.6,1291.4"
     id="polyline8"
     transform="matrix(0.4220684,0,0,0.4220684,-71.516874,-74.674225)" />
  <polyline
     class="StaffLines"
     fill="none"
     stroke="#000000"
     stroke-width="2.73"
     stroke-linejoin="bevel"
     points="212.598,1316.2 2764.6,1316.2"
     id="polyline9"
     transform="matrix(0.4220684,0,0,0.4220684,-71.516874,-74.674225)" />
  <polyline
     class="StaffLines"
     fill="none"
     stroke="#000000"
     stroke-width="2.73"
     stroke-linejoin="bevel"
     points="212.598,1341 2764.6,1341"
     id="polyline10"
     transform="matrix(0.4220684,0,0,0.4220684,-71.516874,-74.674225)" />
  <polyline
     class="StaffLines"
     fill="none"
     stroke="#000000"
     stroke-width="2.73"
     stroke-linejoin="bevel"
     points="212.598,1849.4 2764.6,1849.4"
     id="polyline11"
     transform="matrix(0.4220684,0,0,0.4220684,-71.516874,-74.674225)" />
  <polyline
     class="StaffLines"
     fill="none"
     stroke="#000000"
     stroke-width="2.73"
     stroke-linejoin="bevel"
     points="212.598,1874.2 2764.6,1874.2"
     id="polyline12"
     transform="matrix(0.4220684,0,0,0.4220684,-71.516874,-74.674225)" />
  <polyline
     class="StaffLines"
     fill="none"
     stroke="#000000"
     stroke-width="2.73"
     stroke-linejoin="bevel"
     points="212.598,1899 2764.6,1899"
     id="polyline13"
     transform="matrix(0.4220684,0,0,0.4220684,-71.516874,-74.674225)" />
  <polyline
     class="StaffLines"
     fill="none"
     stroke="#000000"
     stroke-width="2.73"
     stroke-linejoin="bevel"
     points="212.598,1923.8 2764.6,1923.8"
     id="polyline14"
     transform="matrix(0.4220684,0,0,0.4220684,-71.516874,-74.674225)" />
  <polyline
     class="StaffLines"
     fill="none"
     stroke="#000000"
     stroke-width="2.73"
     stroke-linejoin="bevel"
     points="212.598,1948.6 2764.6,1948.6"
     id="polyline15"
     transform="matrix(0.4220684,0,0,0.4220684,-71.516874,-74.674225)" />
  <path
     class="Text"
     d="m 349.53132,17.483562 h 0.83741 c 2.64347,0.04653 3.52974,0.18483 3.89698,0.652955 0.28274,0.415729 0.28274,0.507771 0.28274,2.875571 v 14.950495 c 0,4.082179 -0.13504,5.941835 -0.60354,7.379435 -0.88637,2.605027 -2.78567,3.996558 -5.48181,3.996558 -1.94574,0 -3.75933,-0.791345 -4.73523,-2.044486 -0.50767,-0.652956 -0.87706,-1.57599 -0.87706,-2.13653 0,-0.415728 0.2309,-0.74537 0.55384,-0.74537 h 0.13839 c 0.79135,0.191159 1.16073,0.237226 1.72118,0.237226 1.66887,0 2.92154,-1.443928 2.92154,-3.34323 0,-1.952072 -1.4375,-3.343603 -3.48199,-3.343603 -2.69074,0 -4.64281,2.367334 -4.64281,5.664962 0,2.228945 1.02224,4.503865 2.69744,5.895489 1.57599,1.345557 3.71298,1.998512 6.49605,1.998512 4.13336,0 7.10051,-1.351885 8.72964,-3.950583 1.20717,-1.852863 1.71782,-4.642813 1.71782,-9.193117 V 21.012088 c 0,-2.3678 0,-2.459842 0.32081,-2.875571 0.32917,-0.468125 1.20707,-0.606515 3.8577,-0.652955 h 0.88636 v -2.182504 h -15.23546 v 2.182504 m 27.74557,9.008658 c -5.71057,0 -10.12546,5.058448 -10.12546,11.560824 0,6.357192 4.46124,11.468502 10.03258,11.468502 5.57133,0 10.02839,-5.11131 10.02839,-11.514942 0,-6.363893 -4.45706,-11.514384 -9.93551,-11.514384 m 0,1.991718 c 3.24988,0 5.0564,3.389578 5.0564,9.522666 0,6.172827 -1.80652,9.51643 -5.14928,9.51643 -3.34277,0 -5.14919,-3.343603 -5.14919,-9.46999 0,-6.317918 1.75998,-9.569106 5.24207,-9.569106 m 23.75403,14.442724 -5.10703,-11.930112 c -0.18995,-0.468125 -0.28283,-0.699023 -0.28283,-0.929828 0,-0.883854 0.56138,-1.206702 2.13988,-1.206702 h 0.97497 V 27.184822 H 387.7104 v 1.675198 h 0.50646 c 1.57432,0.0456 2.18214,0.507679 3.1571,2.505818 l 7.56771,17.133465 -0.78511,1.622429 c -1.67557,3.528061 -3.8577,5.987811 -5.34332,5.987811 -0.41368,0 -0.74705,-0.184458 -0.74705,-0.461703 0,-0.09214 0.0465,-0.230898 0.0931,-0.415356 0.13932,-0.422057 0.24057,-0.83732 0.24057,-1.213402 0,-1.206702 -0.97915,-2.084227 -2.3678,-2.084227 -1.62913,0 -2.78985,1.207167 -2.78985,2.875572 0,2.090554 1.76426,3.574501 4.22494,3.574501 2.46059,0 4.54984,-1.207074 6.4027,-3.712891 1.44775,-1.906097 2.3678,-3.851375 4.4149,-8.916244 l 5.29269,-13.136813 c 1.07204,-2.690741 2.08507,-3.712985 3.89996,-3.75896 h 0.27436 v -1.675198 h -9.28553 v 1.675198 h 0.74704 c 1.76008,0 2.50712,0.507679 2.50712,1.71438 0,0.514565 -0.13932,1.068311 -0.46431,1.859656 l -4.22485,10.492606 m 31.29634,-4.550677 c 0.0465,-6.964172 -3.90414,-11.883765 -9.56827,-11.883765 -5.94277,0 -10.39982,5.150491 -10.39982,12.11457 0,6.548816 4.22913,10.914756 10.49261,10.914756 4.45705,0 7.57189,-2.18297 9.47548,-6.594884 l -1.62494,-0.88376 c -1.89931,3.574501 -3.85352,4.966032 -6.96418,4.966032 -2.3678,0 -4.08562,-0.969474 -5.29269,-3.060029 -0.83574,-1.391531 -1.20717,-3.020755 -1.16073,-5.57292 h 15.04254 m -14.9961,-1.998139 c 0,-3.251188 1.48572,-7.893908 5.38139,-7.893908 2.78986,0 4.64272,2.466544 4.64272,6.225503 0,1.299116 -0.41359,1.668405 -1.8993,1.668405 h -8.12481 m 35.74501,12.767618 8.45399,-0.323313 v -1.998047 h -1.16073 c -2.69698,-0.09214 -2.92909,-0.369381 -2.92909,-3.389671 V 27.184822 l -8.72415,0.514472 v 1.998046 h 2.3678 c 1.75998,0.0456 1.99218,0.323314 1.99218,2.321453 v 5.704609 c 0,4.042626 -0.97077,8.962219 -6.08208,8.962219 -1.435,0 -2.64207,-0.507771 -3.24989,-1.437599 -0.59935,-0.883761 -0.69223,-1.345464 -0.69223,-3.897722 V 27.184822 l -8.1248,0.514472 v 1.998046 h 1.76007 c 1.76845,0.0456 2.00056,0.323314 2.00056,2.321453 v 10.024109 c 0,2.367334 0.18148,3.436018 0.88218,4.504329 1.25351,1.905631 3.48199,2.974315 6.26347,2.974315 3.06841,0 5.2041,-1.253142 7.24272,-4.227456 v 3.851374 m 24.34064,-12.160638 5.29697,-6.179528 c 1.16064,-1.345557 2.22848,-1.945278 3.48209,-1.945278 h 0.41359 v -1.675198 h -9.60624 v 1.675198 h 0.88208 c 1.39284,0 2.09344,0.322848 2.09344,1.021778 0,0.461797 -0.33336,1.114752 -0.93271,1.853328 l -2.92918,3.528061 -3.57068,-4.550304 c -0.27855,-0.369288 -0.46431,-0.73867 -0.46431,-1.015543 0,-0.606887 0.59935,-0.83732 2.047,-0.83732 h 0.64579 V 27.184822 H 463.7717 v 1.675198 c 1.71782,0.13839 2.36779,0.553746 3.85342,2.505818 l 5.66422,7.102562 -5.33923,6.219175 c -1.57851,1.767148 -2.9249,2.512518 -4.17841,2.466171 h -0.28283 v 1.668405 h 9.80047 v -1.668405 h -0.69642 c -1.07213,0 -1.30005,-0.0456 -1.62504,-0.191252 -0.37561,-0.230898 -0.65416,-0.646161 -0.65416,-1.068218 0,-0.323313 0.13932,-0.73867 0.3799,-1.015543 l 3.89567,-4.642719 3.52843,4.688787 c 0.3208,0.461704 0.59935,1.068219 0.59935,1.391532 0,0.600186 -0.69213,0.837413 -2.46059,0.837413 h -0.3208 v 1.668405 h 11.69968 v -1.668405 h -0.32499 c -1.62913,0 -2.6885,-0.606515 -4.04337,-2.275013 l -5.84988,-7.893907 m 44.62952,-3.112798 c 0,-2.921546 -0.51066,-4.412287 -1.86133,-5.526573 -1.52788,-1.253048 -3.8028,-1.853235 -6.77423,-1.853235 -5.24625,0 -9.05333,2.45975 -9.05333,5.849793 0,1.714473 1.06785,2.829131 2.69279,2.829131 1.48143,0 2.50284,-0.976175 2.50284,-2.3678 0,-0.600186 -0.22792,-1.252676 -0.69214,-1.899302 -0.28283,-0.329642 -0.32927,-0.422057 -0.32927,-0.652955 0,-0.929736 1.86134,-1.767149 4.08991,-1.767149 1.48143,0 3.11066,0.468032 3.84923,1.160727 0.88637,0.74537 1.20708,1.859563 1.20708,3.950118 v 1.80726 c -4.8242,0.837413 -6.35627,1.206701 -8.63128,2.090554 -4.04337,1.490275 -5.94267,3.620476 -5.94267,6.594791 0,3.343603 2.59991,5.434158 6.73616,5.434158 3.19507,0 6.0778,-1.30591 8.07846,-3.673338 0.73857,2.367428 1.8993,3.297256 4.08134,3.297256 2.08925,0 4.27138,-1.345185 4.27138,-2.690741 0,-0.323313 -0.18157,-0.560447 -0.4685,-0.560447 -0.18148,0 -0.36724,0.05305 -0.69222,0.191159 -0.64998,0.276873 -0.92853,0.323313 -1.29996,0.323313 -1.30423,0 -1.76426,-0.837785 -1.76426,-3.205213 v -9.331507 m -4.36845,5.664591 c 0,2.783156 -0.13504,3.436111 -0.92006,4.642812 -1.16073,1.714845 -3.25417,2.875478 -5.29698,2.875478 -2.13569,0 -3.66775,-1.529921 -3.66775,-3.620476 0,-1.945743 0.97496,-3.343603 3.01359,-4.313078 1.44346,-0.652955 3.25407,-1.114751 6.8712,-1.721266 v 2.13653 m 18.41489,-12.351797 -8.03192,0.514472 v 1.998046 h 1.67557 c 1.75998,0.0456 1.9879,0.323314 1.9879,2.321453 V 45.29409 c -0.0419,0.69893 -0.0884,0.976268 -0.27427,1.206701 -0.32498,0.415728 -1.20716,0.606887 -3.20772,0.652955 h -0.18148 v 1.668405 h 11.74612 v -1.668405 h -0.18567 c -3.11494,-0.09884 -3.52853,-0.329642 -3.52853,-1.99814 v -6.871664 c 0,-2.275385 0.3208,-4.365846 0.83565,-5.434157 0.97925,-2.090462 3.06003,-3.528434 5.06068,-3.528434 1.20707,0 2.59572,0.652862 3.29633,1.629131 0.7006,1.015542 1.0214,2.413402 1.0214,4.642812 v 9.700796 c -0.0465,0.69893 -0.0931,0.976268 -0.27436,1.206701 -0.33346,0.415728 -1.26198,0.606887 -3.25417,0.652955 h -0.18566 v 1.668405 h 11.74612 v -1.668405 h -0.18148 c -3.06841,-0.09884 -3.48209,-0.329642 -3.48209,-1.99814 V 35.8241 c 0,-3.343604 -0.1477,-4.181389 -0.97915,-5.757378 -1.16073,-2.228945 -3.48209,-3.574502 -6.27195,-3.574502 -3.01359,0 -5.2885,1.391532 -7.33132,4.458262 v -3.76566 m 28.27856,0 -8.03192,0.514472 v 1.998046 h 1.67557 c 1.76007,0.0456 1.98799,0.323314 1.98799,2.321453 V 45.29409 c -0.0419,0.69893 -0.0884,0.976268 -0.27436,1.206701 -0.32498,0.415728 -1.20716,0.606887 -3.20772,0.652955 h -0.18148 v 1.668405 h 11.74612 v -1.668405 h -0.18567 c -3.11485,-0.09884 -3.52853,-0.329642 -3.52853,-1.99814 v -6.871664 c 0,-2.275385 0.3208,-4.365846 0.83574,-5.434157 0.97916,-2.090462 3.05994,-3.528434 5.06059,-3.528434 1.20707,0 2.59572,0.652862 3.29633,1.629131 0.7006,1.015542 1.0214,2.413402 1.0214,4.642812 v 9.700796 c -0.0465,0.69893 -0.0931,0.976268 -0.27436,1.206701 -0.33336,0.415728 -1.26198,0.606887 -3.25407,0.652955 h -0.18576 v 1.668405 h 11.74621 v -1.668405 h -0.18157 c -3.06841,-0.09884 -3.482,-0.329642 -3.482,-1.99814 V 35.8241 c 0,-3.343604 -0.14779,-4.181389 -0.97924,-5.757378 -1.16064,-2.228945 -3.48209,-3.574502 -6.27195,-3.574502 -3.01359,0 -5.2885,1.391532 -7.33132,4.458262 v -3.76566 M 590.7425,15.623906 c -1.48153,0 -2.68861,1.207166 -2.68861,2.697441 0,1.483574 1.20708,2.690741 2.64216,2.690741 1.53635,0 2.74342,-1.207167 2.74342,-2.690741 0,-1.490275 -1.20707,-2.697441 -2.69697,-2.697441 m 2.18203,11.560916 -8.72415,0.514472 v 1.998046 h 2.3678 c 1.76007,0.0456 1.99218,0.323314 1.99218,2.321453 V 45.29409 c -0.0465,0.69893 -0.0931,0.976268 -0.27855,1.206701 -0.3208,0.415728 -1.20288,0.606887 -3.20353,0.652955 h -0.32071 v 1.668405 h 12.02895 v -1.668405 h -0.33346 c -3.10647,-0.09884 -3.52853,-0.329642 -3.52853,-1.99814 V 27.184822 m 17.64245,16.018713 -5.29688,-12.253053 c -0.13514,-0.376082 -0.22792,-0.74537 -0.22792,-1.022243 0,-0.791346 0.60772,-1.068219 2.50702,-1.068219 h 0.64998 v -1.675198 h -10.9611 v 1.675198 h 0.37561 c 1.76427,0 2.41424,0.461331 3.06003,1.998047 l 7.98977,18.663479 h 1.62922 l 6.58418,-16.296145 c 1.30005,-3.158679 2.41424,-4.226991 4.32202,-4.365381 h 0.18576 v -1.675198 h -9.28554 v 1.675198 h 0.64998 c 1.62494,0 2.50712,0.553746 2.50712,1.621965 0,0.56054 -0.13932,1.253141 -0.42215,1.952071 l -4.2671,10.769479 m 31.52854,-4.82755 c 0.0465,-6.964172 -3.90415,-11.883765 -9.56827,-11.883765 -5.94277,0 -10.39982,5.150491 -10.39982,12.11457 0,6.548816 4.22913,10.914756 10.4927,10.914756 4.45696,0 7.5719,-2.18297 9.47539,-6.594884 l -1.62494,-0.88376 c -1.89931,3.574501 -3.85352,4.966032 -6.96418,4.966032 -2.3678,0 -4.08562,-0.969474 -5.29269,-3.060029 -0.83574,-1.391531 -1.20717,-3.020755 -1.16073,-5.57292 h 15.04254 m -14.9961,-1.998139 c 0,-3.251188 1.48572,-7.893908 5.38139,-7.893908 2.78986,0 4.64272,2.466544 4.64272,6.225503 0,1.299116 -0.41359,1.668405 -1.8993,1.668405 h -8.12481 m 25.81369,-9.193024 -8.21768,0.514472 v 1.998046 h 1.8993 c 1.76854,0.0456 2.00065,0.323314 2.00065,2.321453 V 45.29409 c -0.0465,0.69893 -0.0931,0.976268 -0.27855,1.206701 -0.32499,0.415728 -1.2536,0.606887 -3.24998,0.652955 h -0.18566 v 1.668405 h 12.39609 v -1.668405 h -0.83564 c -3.11485,-0.09884 -3.52853,-0.329642 -3.52853,-1.99814 v -2.50619 c 0.0465,-7.801492 2.82792,-13.743421 6.44924,-13.928251 -0.64579,0.738576 -0.83146,1.207074 -0.83146,2.084133 0,1.490368 1.06785,2.558586 2.55347,2.558586 1.71363,0 2.82792,-1.252676 2.82792,-3.112797 0,-2.27492 -1.57432,-3.758867 -4.035,-3.758867 -2.92917,0 -5.43629,2.32136 -6.96417,6.449608 v -5.757006 m 29.59545,-0.507771 h -1.62494 l -1.34639,1.668404 c -1.67139,-1.299116 -3.34277,-1.853235 -5.66422,-1.853235 -4.08553,0 -6.7826,2.644673 -6.7826,6.733181 0,4.359146 2.8363,5.473897 6.55049,6.357658 l 2.46068,0.56054 c 3.66357,0.877059 4.96352,1.806887 4.96352,3.666451 0,2.18297 -1.8993,3.712984 -4.59628,3.712984 -3.94221,0 -6.72778,-2.505818 -7.84207,-7.14863 h -1.85714 v 8.77106 h 1.62075 l 1.62923,-1.899303 c 1.8993,1.530015 3.98855,2.275385 6.35635,2.275385 4.54984,0 7.5719,-2.835925 7.5719,-7.155331 0,-2.038158 -0.65426,-3.620942 -1.94993,-4.689253 -1.11429,-0.969474 -2.04709,-1.345091 -4.87492,-1.945278 l -2.32136,-0.514472 c -2.55356,-0.553746 -2.55356,-0.553746 -3.38921,-1.022243 -1.0214,-0.461796 -1.62494,-1.437599 -1.62494,-2.459843 0,-1.899303 1.76417,-3.198419 4.31345,-3.198419 3.81135,0 5.66422,2.690648 6.78269,5.941836 h 1.62494 v -7.801492 m 23.98196,7.194977 c 0,-2.921546 -0.51075,-4.412287 -1.86133,-5.526573 -1.52788,-1.253048 -3.80289,-1.853235 -6.77423,-1.853235 -5.24625,0 -9.05333,2.45975 -9.05333,5.849793 0,1.714473 1.06785,2.829131 2.69279,2.829131 1.48144,0 2.50284,-0.976175 2.50284,-2.3678 0,-0.600186 -0.22792,-1.252676 -0.69213,-1.899302 -0.28283,-0.329642 -0.32927,-0.422057 -0.32927,-0.652955 0,-0.929736 1.86133,-1.767149 4.0899,-1.767149 1.48143,0 3.11056,0.468032 3.84923,1.160727 0.88637,0.74537 1.20708,1.859563 1.20708,3.950118 v 1.80726 c -4.8242,0.837413 -6.35636,1.206701 -8.63128,2.090554 -4.04337,1.490275 -5.94276,3.620476 -5.94276,6.594791 0,3.343603 2.6,5.434158 6.73625,5.434158 3.19507,0 6.0778,-1.30591 8.07836,-3.673338 0.73867,2.367428 1.89931,3.297256 4.08144,3.297256 2.08925,0 4.27129,-1.345185 4.27129,-2.690741 0,-0.323313 -0.18148,-0.560447 -0.4685,-0.560447 -0.18148,0 -0.36715,0.05305 -0.69213,0.191159 -0.64998,0.276873 -0.92853,0.323313 -1.29996,0.323313 -1.30423,0 -1.76426,-0.837785 -1.76426,-3.205213 v -9.331507 m -4.36845,5.664591 c 0,2.783156 -0.13504,3.436111 -0.92006,4.642812 -1.16073,1.714845 -3.25417,2.875478 -5.29698,2.875478 -2.13569,0 -3.66775,-1.529921 -3.66775,-3.620476 0,-1.945743 0.97496,-3.343603 3.0135,-4.313078 1.44355,-0.652955 3.25416,-1.114751 6.87129,-1.721266 v 2.13653 m 16.50712,-23.912713 c -1.48143,0 -2.6886,1.207166 -2.6886,2.697441 0,1.483574 1.20717,2.690741 2.64216,2.690741 1.53635,0 2.74342,-1.207167 2.74342,-2.690741 0,-1.490275 -1.20707,-2.697441 -2.69698,-2.697441 m 2.18214,11.560916 -8.72416,0.514472 v 1.998046 h 2.3678 c 1.75998,0.0456 1.99209,0.323314 1.99209,2.321453 V 45.29409 c -0.0465,0.69893 -0.0931,0.976268 -0.27855,1.206701 -0.3208,0.415728 -1.20288,0.606887 -3.20344,0.652955 h -0.3208 v 1.668405 h 12.02895 v -1.668405 h -0.33346 c -3.10638,-0.09884 -3.52843,-0.329642 -3.52843,-1.99814 V 27.184822 m 14.40512,0 -8.21769,0.514472 v 1.998046 h 1.89931 c 1.76854,0.0456 2.00065,0.323314 2.00065,2.321453 V 45.29409 c -0.0465,0.69893 -0.0931,0.976268 -0.27855,1.206701 -0.32499,0.415728 -1.25361,0.606887 -3.24998,0.652955 h -0.18567 v 1.668405 h 12.3961 v -1.668405 h -0.83564 c -3.11485,-0.09884 -3.52853,-0.329642 -3.52853,-1.99814 v -2.50619 c 0.0465,-7.801492 2.82792,-13.743421 6.44924,-13.928251 -0.64579,0.738576 -0.83146,1.207074 -0.83146,2.084133 0,1.490368 1.06784,2.558586 2.55347,2.558586 1.71363,0 2.82792,-1.252676 2.82792,-3.112797 0,-2.27492 -1.57432,-3.758867 -4.035,-3.758867 -2.92918,0 -5.4363,2.32136 -6.96417,6.449608 v -5.757006 m 32.65548,11.191163 c 0.0465,-6.964172 -3.90414,-11.883765 -9.56827,-11.883765 -5.94276,0 -10.39982,5.150491 -10.39982,12.11457 0,6.548816 4.22914,10.914756 10.49261,10.914756 4.45705,0 7.5719,-2.18297 9.47548,-6.594884 l -1.62494,-0.88376 c -1.8994,3.574501 -3.85352,4.966032 -6.96417,4.966032 -2.3678,0 -4.08563,-0.969474 -5.2927,-3.060029 -0.83574,-1.391531 -1.20717,-3.020755 -1.16073,-5.57292 h 15.04254 m -14.9961,-1.998139 c 0,-3.251188 1.48563,-7.893908 5.38139,-7.893908 2.78986,0 4.64272,2.466544 4.64272,6.225503 0,1.299116 -0.41359,1.668405 -1.8993,1.668405 h -8.12481"
     id="path15"
     style="stroke-width:0.422068" />
  <path
     class="MeasureNumber"
     d="m 27.282142,416.56693 h -0.916706 l -7.861055,8.13756 v 0.70479 h 4.755051 l -0.270544,1.02988 c -0.336436,1.2831 -0.336436,1.2831 -1.806888,1.2831 h -0.30349 l -0.09874,0.79349 H 26.029 l 0.08562,-0.79349 h -0.303489 c -1.114286,0 -1.351885,-0.0847 -1.351885,-0.45165 0,-0.13932 0.03257,-0.30386 0.1718,-0.83145 l 0.283202,-1.02988 h 1.92592 l 0.250721,-0.91168 h -1.939042 l 2.130201,-7.93067 m -3.76566,7.93067 h -3.785576 l 5.216754,-5.36864 -1.431178,5.36864"
     id="path16"
     style="stroke-width:0.422068" />
  <path
     class="MeasureNumber"
     d="m 26.840262,673.079 c -0.896883,0.10135 -1.991811,0.1731 -2.934669,0.1731 -0.474825,0 -1.015542,-0.0214 -1.622429,-0.0549 -0.56054,-0.0298 -1.114659,-0.0633 -1.688321,-0.0971 l -0.422057,-0.0214 -1.635459,3.56231 0.620009,0.2026 0.408935,-0.67957 c 0.791438,-1.30842 1.160726,-1.49409 2.8819,-1.48143 h 2.855283 l -1.839741,2.63788 c -2.163146,3.03471 -2.163146,3.03471 -2.987437,4.38529 -0.74537,1.1987 -1.04886,1.93737 -1.04886,2.5451 0,0.59516 0.376082,0.9623 0.963146,0.9623 0.626431,0 0.94295,-0.30386 1.167055,-1.09316 0.844114,-3.17394 1.351885,-4.27557 3.693068,-8.0657 l 1.589577,-2.46487 v -0.51075"
     id="path17"
     style="stroke-width:0.422068" />
  <polyline
     class="BarLine"
     fill="none"
     stroke="#000000"
     stroke-width="4.46"
     stroke-linejoin="bevel"
     points="2762.37,632.834 2762.37,734.762"
     id="polyline17"
     transform="matrix(0.4220684,0,0,0.4220684,-71.516874,-74.674225)" />
  <polyline
     class="BarLine"
     fill="none"
     stroke="#000000"
     stroke-width="4.46"
     stroke-linejoin="bevel"
     points="2739.55,1848.03 2739.55,1949.96"
     id="polyline18"
     transform="matrix(0.4220684,0,0,0.4220684,-71.516874,-74.674225)" />
  <polyline
     class="BarLine"
     fill="none"
     stroke="#000000"
     stroke-width="13.64"
     stroke-linejoin="bevel"
     points="2757.78,1848.03 2757.78,1949.96"
     id="polyline19"
     transform="matrix(0.4220684,0,0,0.4220684,-71.516874,-74.674225)" />
  <polyline
     class="BarLine"
     fill="none"
     stroke="#000000"
     stroke-width="4.46"
     stroke-linejoin="bevel"
     points="2038.41,632.834 2038.41,734.762"
     id="polyline20"
     transform="matrix(0.4220684,0,0,0.4220684,-71.516874,-74.674225)" />
  <polyline
     class="BarLine"
     fill="none"
     stroke="#000000"
     stroke-width="4.46"
     stroke-linejoin="bevel"
     points="2181.4,1848.03 2181.4,1949.96"
     id="polyline21"
     transform="matrix(0.4220684,0,0,0.4220684,-71.516874,-74.674225)" />
  <polyline
     class="BarLine"
     fill="none"
     stroke="#000000"
     stroke-width="4.46"
     stroke-linejoin="bevel"
     points="1950.97,1240.43 1950.97,1342.36"
     id="polyline22"
     transform="matrix(0.4220684,0,0,0.4220684,-71.516874,-74.674225)" />
  <polyline
     class="BarLine"
     fill="none"
     stroke="#000000"
     stroke-width="4.46"
     stroke-linejoin="bevel"
     points="1322.01,1848.03 1322.01,1949.96"
     id="polyline23"
     transform="matrix(0.4220684,0,0,0.4220684,-71.516874,-74.674225)" />
  <polyline
     class="BarLine"
     fill="none"
     stroke="#000000"
     stroke-width="4.46"
     stroke-linejoin="bevel"
     points="1274.02,632.834 1274.02,734.762"
     id="polyline24"
     transform="matrix(0.4220684,0,0,0.4220684,-71.516874,-74.674225)" />
  <polyline
     class="BarLine"
     fill="none"
     stroke="#000000"
     stroke-width="4.46"
     stroke-linejoin="bevel"
     points="2762.37,1240.43 2762.37,1342.36"
     id="polyline25"
     transform="matrix(0.4220684,0,0,0.4220684,-71.516874,-74.674225)" />
  <polyline
     class="BarLine"
     fill="none"
     stroke="#000000"
     stroke-width="4.46"
     stroke-linejoin="bevel"
     points="1182.61,1240.43 1182.61,1342.36"
     id="polyline26"
     transform="matrix(0.4220684,0,0,0.4220684,-71.516874,-74.674225)" />
  <polyline
     class="Stem"
     fill="none"
     stroke="#000000"
     stroke-width="2.48"
     stroke-linejoin="bevel"
     points="2467.72,741.83 2467.72,665.198"
     id="polyline27"
     transform="matrix(0.4220684,0,0,0.4220684,-71.516874,-74.674225)" />
  <polyline
     class="Stem"
     fill="none"
     stroke="#000000"
     stroke-width="2.48"
     stroke-linejoin="bevel"
     points="955.38,1890.76 955.38,1954.8"
     id="polyline28"
     transform="matrix(0.4220684,0,0,0.4220684,-71.516874,-74.674225)" />
  <polyline
     class="Stem"
     fill="none"
     stroke="#000000"
     stroke-width="2.48"
     stroke-linejoin="bevel"
     points="1138.2,1890.76 1138.2,1954.8"
     id="polyline29"
     transform="matrix(0.4220684,0,0,0.4220684,-71.516874,-74.674225)" />
  <polyline
     class="Stem"
     fill="none"
     stroke="#000000"
     stroke-width="2.48"
     stroke-linejoin="bevel"
     points="1357.72,1903.16 1357.72,1973.4"
     id="polyline30"
     transform="matrix(0.4220684,0,0,0.4220684,-71.516874,-74.674225)" />
  <polyline
     class="Stem"
     fill="none"
     stroke="#000000"
     stroke-width="2.48"
     stroke-linejoin="bevel"
     points="2629.42,741.83 2629.42,665.198"
     id="polyline31"
     transform="matrix(0.4220684,0,0,0.4220684,-71.516874,-74.674225)" />
  <polyline
     class="Stem"
     fill="none"
     stroke="#000000"
     stroke-width="2.48"
     stroke-linejoin="bevel"
     points="979.37,741.83 979.37,665.198"
     id="polyline32"
     transform="matrix(0.4220684,0,0,0.4220684,-71.516874,-74.674225)" />
  <polyline
     class="Stem"
     fill="none"
     stroke="#000000"
     stroke-width="2.48"
     stroke-linejoin="bevel"
     points="1935.93,1907.43 1935.93,1830.8"
     id="polyline33"
     transform="matrix(0.4220684,0,0,0.4220684,-71.516874,-74.674225)" />
  <polyline
     class="Stem"
     fill="none"
     stroke="#000000"
     stroke-width="2.48"
     stroke-linejoin="bevel"
     points="2246.87,1919.83 2246.87,1837"
     id="polyline34"
     transform="matrix(0.4220684,0,0,0.4220684,-71.516874,-74.674225)" />
  <polyline
     class="Stem"
     fill="none"
     stroke="#000000"
     stroke-width="2.48"
     stroke-linejoin="bevel"
     points="436.674,1337.03 436.674,1254.2"
     id="polyline35"
     transform="matrix(0.4220684,0,0,0.4220684,-71.516874,-74.674225)" />
  <polyline
     class="Stem"
     fill="none"
     stroke="#000000"
     stroke-width="2.48"
     stroke-linejoin="bevel"
     points="1141.08,741.83 1141.08,665.198"
     id="polyline36"
     transform="matrix(0.4220684,0,0,0.4220684,-71.516874,-74.674225)" />
  <polyline
     class="Stem"
     fill="none"
     stroke="#000000"
     stroke-width="2.48"
     stroke-linejoin="bevel"
     points="694.906,1349.43 694.906,1266.6"
     id="polyline37"
     transform="matrix(0.4220684,0,0,0.4220684,-71.516874,-74.674225)" />
  <polyline
     class="Stem"
     fill="none"
     stroke="#000000"
     stroke-width="2.48"
     stroke-linejoin="bevel"
     points="953.138,1299.83 953.138,1223.2"
     id="polyline38"
     transform="matrix(0.4220684,0,0,0.4220684,-71.516874,-74.674225)" />
  <polyline
     class="Stem"
     fill="none"
     stroke="#000000"
     stroke-width="2.48"
     stroke-linejoin="bevel"
     points="1339.49,729.43 1339.49,646.598"
     id="polyline39"
     transform="matrix(0.4220684,0,0,0.4220684,-71.516874,-74.674225)" />
  <polyline
     class="Stem"
     fill="none"
     stroke="#000000"
     stroke-width="2.48"
     stroke-linejoin="bevel"
     points="1248.07,1312.23 1248.07,1229.4"
     id="polyline40"
     transform="matrix(0.4220684,0,0,0.4220684,-71.516874,-74.674225)" />
  <polyline
     class="Stem"
     fill="none"
     stroke="#000000"
     stroke-width="2.48"
     stroke-linejoin="bevel"
     points="1635.42,1349.43 1635.42,1272.8"
     id="polyline41"
     transform="matrix(0.4220684,0,0,0.4220684,-71.516874,-74.674225)" />
  <polyline
     class="Stem"
     fill="none"
     stroke="#000000"
     stroke-width="2.48"
     stroke-linejoin="bevel"
     points="1582.05,741.83 1582.05,658.998"
     id="polyline42"
     transform="matrix(0.4220684,0,0,0.4220684,-71.516874,-74.674225)" />
  <polyline
     class="Stem"
     fill="none"
     stroke="#000000"
     stroke-width="2.48"
     stroke-linejoin="bevel"
     points="1807.58,1349.43 1807.58,1272.8"
     id="polyline43"
     transform="matrix(0.4220684,0,0,0.4220684,-71.516874,-74.674225)" />
  <polyline
     class="Stem"
     fill="none"
     stroke="#000000"
     stroke-width="2.48"
     stroke-linejoin="bevel"
     points="1986.68,1270.76 1986.68,1353.4"
     id="polyline44"
     transform="matrix(0.4220684,0,0,0.4220684,-71.516874,-74.674225)" />
  <polyline
     class="Stem"
     fill="none"
     stroke="#000000"
     stroke-width="2.48"
     stroke-linejoin="bevel"
     points="1824.61,704.63 1824.61,621.798"
     id="polyline45"
     transform="matrix(0.4220684,0,0,0.4220684,-71.516874,-74.674225)" />
  <polyline
     class="Stem"
     fill="none"
     stroke="#000000"
     stroke-width="2.48"
     stroke-linejoin="bevel"
     points="2244.91,1295.56 2244.91,1365.8"
     id="polyline46"
     transform="matrix(0.4220684,0,0,0.4220684,-71.516874,-74.674225)" />
  <polyline
     class="Stem"
     fill="none"
     stroke="#000000"
     stroke-width="2.48"
     stroke-linejoin="bevel"
     points="2532.9,1312.23 2532.9,1229.4"
     id="polyline47"
     transform="matrix(0.4220684,0,0,0.4220684,-71.516874,-74.674225)" />
  <polyline
     class="Stem"
     fill="none"
     stroke="#000000"
     stroke-width="2.48"
     stroke-linejoin="bevel"
     points="436.674,1932.23 436.674,1849.4"
     id="polyline48"
     transform="matrix(0.4220684,0,0,0.4220684,-71.516874,-74.674225)" />
  <polyline
     class="Stem"
     fill="none"
     stroke="#000000"
     stroke-width="2.48"
     stroke-linejoin="bevel"
     points="2103.87,717.03 2103.87,634.198"
     id="polyline49"
     transform="matrix(0.4220684,0,0,0.4220684,-71.516874,-74.674225)" />
  <polyline
     class="Stem"
     fill="none"
     stroke="#000000"
     stroke-width="2.48"
     stroke-linejoin="bevel"
     points="710.903,1944.63 710.903,1861.8"
     id="polyline50"
     transform="matrix(0.4220684,0,0,0.4220684,-71.516874,-74.674225)" />
  <polyline
     class="Stem"
     fill="none"
     stroke="#000000"
     stroke-width="2.48"
     stroke-linejoin="bevel"
     points="1661.7,1919.83 1661.7,1837"
     id="polyline51"
     transform="matrix(0.4220684,0,0,0.4220684,-71.516874,-74.674225)" />
  <path
     class="Note"
     d="m 397.01277,241.86337 c 0,1.79907 1.2953,3.80745 4.69065,3.80745 4.35049,0 8.9169,-3.55887 8.9169,-7.24207 0,-2.47288 -2.09354,-3.85324 -4.69075,-3.85324 -4.06254,0 -8.9168,3.43453 -8.9168,7.28786"
     id="path51"
     style="stroke-width:0.418692" />
  <path
     class="Note"
     d="m 984.46027,482.612 c 0,1.79907 1.2953,3.80745 4.69065,3.80745 4.35039,0 8.9168,-3.55887 8.9168,-7.24198 0,-2.47296 -2.09344,-3.85332 -4.69065,-3.85332 -4.06264,0 -8.9168,3.43462 -8.9168,7.28785"
     id="path52"
     style="stroke-width:0.418692" />
  <path
     class="Note"
     d="m 451.09097,475.32415 c -4.06263,0 -8.91689,3.39534 -8.91689,7.28785 0,1.79907 1.29539,3.80745 4.69064,3.80745 4.35049,0 8.9169,-3.55887 8.9169,-7.24198 0,-2.47296 -2.09353,-3.85332 -4.69065,-3.85332 m -5.77664,9.1262 c -1.38037,0 -1.67483,-1.12527 -1.67483,-1.5047 0,-2.05417 7.03276,-5.65231 9.00187,-5.65231 1.00754,0 1.67482,0.58874 1.67482,1.5047 0,2.09344 -7.07855,5.65231 -9.00186,5.65231"
     id="path53"
     style="stroke-width:0.418692" />
  <path
     class="Note"
     d="m 99.708696,744.29438 c 0,1.79907 1.295304,3.80754 4.690654,3.80754 4.35049,0 8.9168,-3.55886 8.9168,-7.24207 0,-2.47287 -2.09344,-3.85332 -4.69065,-3.85332 -4.06264,0 -8.916804,3.43462 -8.916804,7.28785"
     id="path54"
     style="stroke-width:0.418692" />
  <path
     class="Note"
     d="m 328.76351,241.86337 c 0,1.79907 1.2953,3.80745 4.69065,3.80745 4.35049,0 8.9168,-3.55887 8.9168,-7.24207 0,-2.47288 -2.09344,-3.85324 -4.69065,-3.85324 -4.06263,0 -8.9168,3.43453 -8.9168,7.28786"
     id="path55"
     style="stroke-width:0.418692" />
  <path
     class="Note"
     d="m 317.69175,477.3784 c 0,1.79907 1.2954,3.80745 4.69065,3.80745 4.35049,0 8.9169,-3.55886 8.9169,-7.24207 0,-2.47287 -2.09354,-3.85323 -4.69065,-3.85323 -4.06264,0 -8.9169,3.43453 -8.9169,7.28785"
     id="path56"
     style="stroke-width:0.418692" />
  <path
     class="Note"
     d="m 678.32141,498.31299 c 0,1.79907 1.2953,3.80744 4.69064,3.80744 4.35049,0 8.91681,-3.55886 8.91681,-7.24206 0,-2.47288 -2.09344,-3.85324 -4.69065,-3.85324 -4.06264,0 -8.9168,3.43453 -8.9168,7.28786"
     id="path57"
     style="stroke-width:0.418692" />
  <path
     class="Note"
     d="m 99.708696,493.0793 c 0,1.79907 1.295304,3.80754 4.690654,3.80754 4.35049,0 8.9168,-3.55896 8.9168,-7.24207 0,-2.47297 -2.09344,-3.85333 -4.69065,-3.85333 -4.06264,0 -8.916804,3.43462 -8.916804,7.28786"
     id="path58"
     style="stroke-width:0.418692" />
  <path
     class="Note"
     d="m 480.75957,236.62968 c 0,1.79907 1.2954,3.80754 4.69065,3.80754 4.35049,0 8.9169,-3.55887 8.9169,-7.24207 0,-2.47297 -2.09354,-3.85333 -4.69065,-3.85333 -4.06264,0 -8.9169,3.43462 -8.9169,7.28786"
     id="path59"
     style="stroke-width:0.418692" />
  <path
     class="Note"
     d="m 583.13654,241.86337 c 0,1.79907 1.2953,3.80745 4.69064,3.80745 4.35049,0 8.91681,-3.55887 8.91681,-7.24207 0,-2.47288 -2.09344,-3.85324 -4.69065,-3.85324 -4.06264,0 -8.9168,3.43453 -8.9168,7.28786"
     id="path60"
     style="stroke-width:0.418692" />
  <path
     class="Note"
     d="m 872.64862,731.77293 c -4.06264,0 -8.91681,3.39534 -8.91681,7.28785 0,1.79907 1.2953,3.80745 4.69065,3.80745 4.35049,0 8.9168,-3.55886 8.9168,-7.24207 0,-2.47287 -2.09344,-3.85323 -4.69064,-3.85323 m -5.77665,9.1262 c -1.38036,0 -1.67473,-1.12527 -1.67473,-1.5047 0,-2.05417 7.03267,-5.65231 9.00186,-5.65231 1.00745,0 1.67474,0.58874 1.67474,1.50461 0,2.09353 -7.07846,5.6524 -9.00187,5.6524"
     id="path61"
     style="stroke-width:0.418692" />
  <path
     class="Note"
     d="m 685.5134,226.16239 c 0,1.79907 1.29531,3.80754 4.69065,3.80754 4.35049,0 8.9169,-3.55896 8.9169,-7.24207 0,-2.47297 -2.09353,-3.85333 -4.69074,-3.85333 -4.06255,0 -8.91681,3.43462 -8.91681,7.28786"
     id="path62"
     style="stroke-width:0.418692" />
  <path
     class="Note"
     d="m 732.49807,733.82709 c 0,1.79907 1.2953,3.80754 4.69065,3.80754 4.35049,0 8.9168,-3.55886 8.9168,-7.24207 0,-2.47287 -2.09344,-3.85333 -4.69065,-3.85333 -4.06254,0 -8.9168,3.43463 -8.9168,7.28786"
     id="path63"
     style="stroke-width:0.418692" />
  <path
     class="Note"
     d="m 766.47454,461.67742 c 0,1.79907 1.29539,3.80745 4.69074,3.80745 4.3504,0 8.9168,-3.55887 8.9168,-7.24207 0,-2.47287 -2.09344,-3.85324 -4.69065,-3.85324 -4.06263,0 -8.91689,3.43463 -8.91689,7.28786"
     id="path64"
     style="stroke-width:0.418692" />
  <path
     class="Note"
     d="m 812.29708,224.10822 c -4.06264,0 -8.9168,3.39535 -8.9168,7.28786 0,1.79907 1.2953,3.80744 4.69064,3.80744 4.35049,0 8.91681,-3.55886 8.91681,-7.24206 0,-2.47288 -2.09344,-3.85324 -4.69065,-3.85324 m -5.77664,9.1262 c -1.38037,0 -1.67474,-1.12527 -1.67474,-1.5047 0,-2.05426 7.03267,-5.6524 9.00187,-5.6524 1.00744,0 1.67473,0.58883 1.67473,1.5047 0,2.09344 -7.07846,5.6524 -9.00186,5.6524"
     id="path65"
     style="stroke-width:0.418692" />
  <path
     class="Note"
     d="m 616.75423,739.06078 c 0,1.79907 1.2954,3.80745 4.69065,3.80745 4.35049,0 8.9169,-3.55886 8.9169,-7.24207 0,-2.47287 -2.09354,-3.85323 -4.69065,-3.85323 -4.06264,0 -8.9169,3.43462 -8.9169,7.28785"
     id="path66"
     style="stroke-width:0.418692" />
  <path
     class="Note"
     d="m 956.9456,241.86337 c 0,1.79907 1.2953,3.80745 4.69065,3.80745 4.35049,0 8.9168,-3.55887 8.9168,-7.24207 0,-2.47288 -2.09344,-3.85324 -4.69065,-3.85324 -4.06264,0 -8.9168,3.43453 -8.9168,7.28786"
     id="path67"
     style="stroke-width:0.418692" />
  <path
     class="Note"
     d="m 215.45206,749.52808 c 0,1.79907 1.2953,3.80744 4.69065,3.80744 4.35049,0 8.91681,-3.55886 8.91681,-7.24207 0,-2.47287 -2.09344,-3.85323 -4.69065,-3.85323 -4.06264,0 -8.91681,3.43462 -8.91681,7.28786"
     id="path68"
     style="stroke-width:0.418692" />
  <path
     class="Note"
     d="m 501.0104,728.59349 c 0,1.79907 1.29539,3.80745 4.69074,3.80745 4.3504,0 8.9168,-3.55887 8.9168,-7.24207 0,-2.47287 -2.09344,-3.85323 -4.69065,-3.85323 -4.06263,0 -8.91689,3.43452 -8.91689,7.28785"
     id="path69"
     style="stroke-width:0.418692" />
  <path
     class="Note"
     d="m 1025.1983,241.86337 c 0,1.79907 1.2953,3.80745 4.6907,3.80745 4.3504,0 8.9168,-3.55887 8.9168,-7.24207 0,-2.47288 -2.0935,-3.85324 -4.6907,-3.85324 -4.0626,0 -8.9168,3.43453 -8.9168,7.28786"
     id="path70"
     style="stroke-width:0.418692" />
  <path
     class="Note"
     d="m 208.70018,498.31299 c 0,1.79907 1.29539,3.80744 4.69065,3.80744 4.35058,0 8.91689,-3.55886 8.91689,-7.24206 0,-2.47288 -2.09344,-3.85324 -4.69065,-3.85324 -4.06263,0 -8.91689,3.43453 -8.91689,7.28786"
     id="path71"
     style="stroke-width:0.418692" />
  <path
     class="Note"
     d="m 408.35796,723.3598 c 0,1.79907 1.29539,3.80754 4.69065,3.80754 4.35049,0 8.9169,-3.55887 8.9169,-7.24207 0,-2.47287 -2.09354,-3.85333 -4.69065,-3.85333 -4.06264,0 -8.9169,3.43463 -8.9169,7.28786"
     id="path72"
     style="stroke-width:0.418692" />
  <path
     class="Note"
     d="m 875.46528,472.14471 c 0,1.79907 1.29539,3.80745 4.69064,3.80745 4.35049,0 8.9169,-3.55887 8.9169,-7.24198 0,-2.47296 -2.09353,-3.85333 -4.69065,-3.85333 -4.06263,0 -8.91689,3.43463 -8.91689,7.28786"
     id="path73"
     style="stroke-width:0.418692" />
  <path
     class="Note"
     d="m 331.19543,723.3598 c 0,1.79907 1.29531,3.80754 4.69065,3.80754 4.35049,0 8.91681,-3.55887 8.91681,-7.24207 0,-2.47287 -2.09344,-3.85333 -4.69065,-3.85333 -4.06255,0 -8.91681,3.43463 -8.91681,7.28786"
     id="path74"
     style="stroke-width:0.418692" />
  <path
     class="Note"
     d="m 605.66228,498.31299 c 0,1.79907 1.29539,3.80744 4.69065,3.80744 4.35049,0 8.91689,-3.55886 8.91689,-7.24206 0,-2.47288 -2.09353,-3.85324 -4.69065,-3.85324 -4.06263,0 -8.91689,3.43453 -8.91689,7.28786"
     id="path75"
     style="stroke-width:0.418692" />
  <path
     class="Clef"
     d="m 105.19721,224.27835 c 0,-6.28042 -4.48125,-10.55236 -10.59154,-10.55236 -0.418707,-2.51215 -0.798139,-5.02429 -1.171057,-7.32713 4.396279,-4.65147 7.490647,-9.92434 7.490647,-16.5383 0,-3.85333 -1.171054,-6.90843 -1.88413,-8.41955 -1.000931,-2.13281 -2.217777,-3.6443 -2.930853,-3.6443 -0.287855,0 -1.628944,0.54974 -2.970034,2.17887 -2.721546,3.18586 -3.473803,8.498 -3.473803,12.0176 0,2.26356 0.209307,4.31131 0.922383,9.04774 -0.0456,0 -2.224291,2.21778 -3.100979,2.97013 -3.813961,3.51959 -9.086928,8.62234 -9.086928,16.95701 0,7.87008 6.823456,14.02616 14.61499,14.02616 1.210331,0 2.342021,-0.12434 3.34956,-0.29437 0.75235,4.02327 1.256119,6.95412 1.256119,9.1719 0,4.35709 -2.263658,6.65984 -6.450538,6.65984 -1.046719,0 -1.923314,-0.20931 -1.969102,-0.25509 -0.07818,0 -0.163611,-0.0391 -0.163611,-0.0782 0,-0.0847 0.08469,-0.13085 0.209399,-0.17013 1.969103,-0.29437 3.931784,-1.9691 3.931784,-4.64486 0,-2.26356 -1.7141,-4.65137 -4.854259,-4.65137 -2.891579,0 -4.775712,2.38781 -4.775712,5.14863 0,2.76724 2.09344,6.41117 7.745838,6.41117 5.403725,0 8.040115,-3.06171 8.040115,-8.41964 0,-1.62895 -0.248487,-3.51308 -0.667194,-5.90089 -0.124337,-0.83741 -0.333644,-2.13923 -0.628106,-3.72899 4.101911,-1.38036 7.157011,-5.61303 7.157011,-9.96352 M 92.30283,189.98517 c 0.418707,-1.67473 2.30284,-6.07101 4.481342,-6.07101 0.628013,0 1.674733,2.00838 1.674733,4.93923 0,4.31122 -3.264496,7.58223 -6.156075,10.46729 -0.248581,-1.67473 -0.457981,-3.34956 -0.457981,-5.06357 0,-1.58967 0.163612,-2.97664 0.457981,-4.27194 m 1.256027,43.29541 c -5.98595,0 -11.095305,-4.18697 -11.095305,-10.51317 0,-5.10275 3.643929,-9.66915 7.287858,-12.89438 0.706561,-0.58873 1.380456,-1.21684 2.00847,-1.79907 0.372824,2.25706 0.713076,4.18698 0.961657,5.94677 -3.814055,1.086 -6.404656,5.14863 -6.404656,9.04114 0,2.97664 2.302746,6.9934 5.652305,6.9934 0.333644,0 0.713077,-0.17004 0.713077,-0.58874 0,-0.33365 -0.379433,-0.58223 -0.922383,-0.91587 -1.635552,-0.96826 -2.557935,-2.09344 -2.557935,-4.10842 0,-2.55142 1.929921,-4.60568 4.356912,-5.18791 l 2.427176,13.73179 c -0.837413,0.2094 -1.589763,0.29446 -2.427176,0.29446 m 4.186972,-0.79814 c -0.876594,-4.9785 -2.008377,-11.63834 -2.302839,-13.4832 4.226246,0 6.03183,2.93085 6.40475,4.94574 0.0456,0.33374 0.12424,0.79163 0.12424,1.29539 0,3.01592 -1.25602,6.07102 -4.226151,7.24207 m -1.635552,21.94203 c 0,-1.55049 -1.419545,-2.21768 -2.800001,-2.21768 -1.759796,0 -3.480318,1.0859 -3.480318,2.97003 0,0.79814 0.29437,1.38688 0.922383,1.9692 -1.085901,0.41861 -2.217777,1.25603 -2.217777,2.55793 0,1.38037 1.25612,2.30275 3.100979,2.30275 2.25705,0 3.846721,-1.25603 3.846721,-3.06161 0,-0.96175 -0.418707,-1.75328 -1.171057,-2.30284 1.216846,-0.54304 1.79907,-1.21024 1.79907,-2.21778 m -2.590601,1.67474 c -0.628014,-0.33355 -0.798139,-0.41862 -0.922476,-0.50368 l -0.0456,-0.0391 c -0.667287,-0.37952 -0.876594,-0.67389 -0.876594,-1.17106 0,-0.75886 0.588739,-1.3019 1.426152,-1.3019 0.837413,0 1.295301,0.50377 1.295301,1.38036 0,0.67389 -0.248581,1.13178 -0.876594,1.63555 m -1.596278,5.02429 c -0.915868,0 -1.543882,-0.58222 -1.543882,-1.46542 0,-0.79163 0.372825,-1.5047 1.085901,-1.92341 0.170126,0.0847 0.2094,0.12434 0.333644,0.16361 0.503769,0.2551 0.503769,0.2551 0.588832,0.34016 0.837413,0.45798 1.131783,0.87669 1.131783,1.46543 0,0.79153 -0.673895,1.41963 -1.596278,1.41963"
     id="path76"
     style="stroke-width:0.418692" />
  <path
     class="Clef"
     d="m 52.860748,737.17665 c 0,-6.28032 -4.481342,-10.55235 -10.591629,-10.55235 -0.418706,-2.51215 -0.798046,-5.0243 -1.170964,-7.32704 4.39628,-4.65147 7.49065,-9.92434 7.49065,-16.5384 0,-3.85323 -1.171056,-6.90842 -1.884133,-8.41945 -1.000931,-2.13281 -2.217776,-3.6443 -2.930852,-3.6443 -0.287855,0 -1.628945,0.54974 -2.970127,2.17887 -2.721453,3.18586 -3.473803,8.498 -3.473803,12.0176 0,2.26356 0.209399,4.31121 0.922476,9.04765 -0.0456,0 -2.224292,2.21778 -3.100979,2.97013 -3.813962,3.51959 -9.086928,8.62243 -9.086928,16.95701 0,7.87008 6.823362,14.02615 14.61499,14.02615 1.210238,0 2.34202,-0.12424 3.349559,-0.29437 0.752257,4.02337 1.256027,6.95422 1.256027,9.172 0,4.357 -2.263566,6.65984 -6.450445,6.65984 -1.04672,0 -1.923407,-0.2094 -1.969196,-0.25519 -0.07818,0 -0.163518,-0.0391 -0.163518,-0.0782 0,-0.0847 0.08469,-0.13086 0.209307,-0.17013 1.969196,-0.29437 3.931784,-1.9692 3.931784,-4.64486 0,-2.26357 -1.714007,-4.65138 -4.854167,-4.65138 -2.891579,0 -4.775712,2.38781 -4.775712,5.14854 0,2.76734 2.09344,6.41126 7.745746,6.41126 5.403725,0 8.040208,-3.0617 8.040208,-8.41964 0,-1.62894 -0.248581,-3.51307 -0.667287,-5.90098 -0.124244,-0.83732 -0.333644,-2.13922 -0.628014,-3.72889 4.101817,-1.38046 7.157007,-5.61313 7.157007,-9.96362 M 39.966373,702.88348 c 0.418613,-1.67483 2.302746,-6.07101 4.481342,-6.07101 0.628013,0 1.674733,2.00837 1.674733,4.93922 0,4.31122 -3.264497,7.58223 -6.156075,10.4673 -0.248581,-1.67474 -0.457981,-3.34956 -0.457981,-5.06357 0,-1.58967 0.163518,-2.97664 0.457981,-4.27194 m 1.256026,43.29532 c -5.985949,0 -11.095305,-4.18688 -11.095305,-10.51308 0,-5.10275 3.643929,-9.66916 7.287858,-12.89438 0.706562,-0.58883 1.380364,-1.21684 2.00847,-1.79907 0.372825,2.25696 0.712983,4.18688 0.961564,5.94677 -3.813961,1.0859 -6.404563,5.14854 -6.404563,9.04105 0,2.97664 2.302747,6.99348 5.652306,6.99348 0.333644,0 0.713076,-0.17012 0.713076,-0.58874 0,-0.33364 -0.379432,-0.58231 -0.922383,-0.91596 -1.635552,-0.96817 -2.558028,-2.09344 -2.558028,-4.10833 0,-2.55142 1.929922,-4.60568 4.357005,-5.1879 l 2.427084,13.73179 c -0.83732,0.2093 -1.589671,0.29437 -2.427084,0.29437 m 4.186973,-0.79814 c -0.876687,-4.97851 -2.008377,-11.63826 -2.30284,-13.48312 4.226154,0 6.031832,2.93076 6.404656,4.94575 0.0456,0.33364 0.124337,0.79162 0.124337,1.2953 0,3.01591 -1.256119,6.0711 -4.226153,7.24207 m -1.635552,21.94212 c 0,-1.55049 -1.419638,-2.21778 -2.800001,-2.21778 -1.759796,0 -3.480318,1.086 -3.480318,2.97013 0,0.79814 0.294369,1.38688 0.922383,1.9691 -1.085994,0.41871 -2.217777,1.25612 -2.217777,2.55794 0,1.38036 1.25612,2.30284 3.100978,2.30284 2.256958,0 3.846721,-1.25612 3.846721,-3.06171 0,-0.96166 -0.418706,-1.75328 -1.171056,-2.30274 1.216845,-0.54305 1.79907,-1.21034 1.79907,-2.21778 m -2.590602,1.67473 c -0.628106,-0.33364 -0.798232,-0.4187 -0.922476,-0.50377 l -0.0456,-0.0391 c -0.667288,-0.37943 -0.876687,-0.67389 -0.876687,-1.17105 0,-0.75887 0.588832,-1.30191 1.426245,-1.30191 0.83732,0 1.295301,0.50377 1.295301,1.38046 0,0.6738 -0.248581,1.13169 -0.876595,1.63545 m -1.596278,5.0243 c -0.915868,0 -1.543974,-0.58223 -1.543974,-1.46543 0,-0.79153 0.372918,-1.50461 1.085994,-1.92331 0.170126,0.0847 0.209307,0.12424 0.333643,0.16351 0.50377,0.25519 0.50377,0.25519 0.588833,0.34016 0.83732,0.45798 1.131782,0.87669 1.131782,1.46543 0,0.79162 -0.673895,1.41964 -1.596278,1.41964"
     id="path77"
     style="stroke-width:0.418692" />
  <path
     class="Clef"
     d="m 52.860748,480.72787 c 0,-6.28032 -4.481342,-10.55235 -10.591629,-10.55235 -0.418706,-2.51215 -0.798046,-5.0243 -1.170964,-7.32704 4.39628,-4.65147 7.49065,-9.92434 7.49065,-16.5384 0,-3.85323 -1.171056,-6.90833 -1.884133,-8.41945 -1.000931,-2.13281 -2.217776,-3.6443 -2.930852,-3.6443 -0.287855,0 -1.628945,0.54974 -2.970127,2.17887 -2.721453,3.18586 -3.473803,8.498 -3.473803,12.01759 0,2.26357 0.209399,4.31122 0.922476,9.04775 -0.0456,0 -2.224292,2.21768 -3.100979,2.97004 -3.813962,3.51968 -9.086928,8.62243 -9.086928,16.95701 0,7.87017 6.823362,14.02625 14.61499,14.02625 1.210238,0 2.34202,-0.12434 3.349559,-0.29447 0.752257,4.02336 1.256027,6.95422 1.256027,9.17199 0,4.35701 -2.263566,6.65985 -6.450445,6.65985 -1.04672,0 -1.923407,-0.2094 -1.969196,-0.25519 -0.07818,0 -0.163518,-0.0391 -0.163518,-0.0782 0,-0.0847 0.08469,-0.13085 0.209307,-0.17012 1.969196,-0.29437 3.931784,-1.9691 3.931784,-4.64486 0,-2.26357 -1.714007,-4.65138 -4.854167,-4.65138 -2.891579,0 -4.775712,2.38781 -4.775712,5.14854 0,2.76734 2.09344,6.41126 7.745746,6.41126 5.403725,0 8.040208,-3.0617 8.040208,-8.41964 0,-1.62894 -0.248581,-3.51307 -0.667287,-5.90088 -0.124244,-0.83742 -0.333644,-2.13932 -0.628014,-3.72899 4.101817,-1.38037 7.157007,-5.61313 7.157007,-9.96362 M 39.966373,446.4347 c 0.418613,-1.67474 2.302746,-6.07102 4.481342,-6.07102 0.628013,0 1.674733,2.00838 1.674733,4.93923 0,4.31122 -3.264497,7.58223 -6.156075,10.4673 -0.248581,-1.67474 -0.457981,-3.34956 -0.457981,-5.06357 0,-1.58967 0.163518,-2.97664 0.457981,-4.27194 m 1.256026,43.29532 c -5.985949,0 -11.095305,-4.18688 -11.095305,-10.51309 0,-5.10274 3.643929,-9.66915 7.287858,-12.89437 0.706562,-0.58874 1.380364,-1.21685 2.00847,-1.79907 0.372825,2.25705 0.712983,4.18697 0.961564,5.94677 -3.813961,1.08599 -6.404563,5.14853 -6.404563,9.04114 0,2.97664 2.302747,6.99339 5.652306,6.99339 0.333644,0 0.713076,-0.17003 0.713076,-0.58874 0,-0.33364 -0.379432,-0.58222 -0.922383,-0.91586 -1.635552,-0.96827 -2.558028,-2.09354 -2.558028,-4.10843 0,-2.55142 1.929922,-4.60568 4.357005,-5.1879 l 2.427084,13.73179 c -0.83732,0.2094 -1.589671,0.29437 -2.427084,0.29437 m 4.186973,-0.79805 c -0.876687,-4.9785 -2.008377,-11.63835 -2.30284,-13.48321 4.226154,0 6.031832,2.93085 6.404656,4.94575 0.0456,0.33364 0.124337,0.79162 0.124337,1.29539 0,3.01582 -1.256119,6.07101 -4.226153,7.24207 M 43.77382,510.874 c 0,-1.55049 -1.419638,-2.21778 -2.800001,-2.21778 -1.759796,0 -3.480318,1.086 -3.480318,2.97013 0,0.79814 0.294369,1.38688 0.922383,1.9691 -1.085994,0.41871 -2.217777,1.25612 -2.217777,2.55803 0,1.38036 1.25612,2.30275 3.100978,2.30275 2.256958,0 3.846721,-1.25603 3.846721,-3.06171 0,-0.96166 -0.418706,-1.75319 -1.171056,-2.30275 1.216845,-0.54304 1.79907,-1.21033 1.79907,-2.21777 m -2.590602,1.67473 c -0.628106,-0.33364 -0.798232,-0.41861 -0.922476,-0.50368 l -0.0456,-0.0391 c -0.667288,-0.37944 -0.876687,-0.67381 -0.876687,-1.17106 0,-0.75887 0.588832,-1.30182 1.426245,-1.30182 0.83732,0 1.295301,0.50368 1.295301,1.38037 0,0.6738 -0.248581,1.13178 -0.876595,1.63546 m -1.596278,5.02429 c -0.915868,0 -1.543974,-0.58222 -1.543974,-1.46533 0,-0.79163 0.372918,-1.5047 1.085994,-1.92341 0.170126,0.0847 0.209307,0.12434 0.333643,0.16352 0.50377,0.25519 0.50377,0.25519 0.588833,0.34025 0.83732,0.45789 1.131782,0.87659 1.131782,1.46542 0,0.79154 -0.673895,1.41955 -1.596278,1.41955"
     id="path78"
     style="stroke-width:0.418692" />
  <path
     class="KeySig"
     d="m 125.41582,188.60444 c 0.2551,-0.0391 0.4645,-0.33365 0.4645,-0.58884 v -2.46626 c 0,-0.41871 -0.29446,-0.58883 -0.6739,-0.58883 l -1.38036,0.29437 v -6.24114 h -1.17105 v 6.48972 l -3.72899,0.75886 v -5.9074 h -1.17097 v 6.15608 l -1.63555,0.33364 c -0.24858,0.0456 -0.45789,0.33364 -0.45789,0.58874 v 2.42718 c 0,0.45788 0.33365,0.58873 0.71308,0.58873 l 1.38036,-0.29436 v 6.90842 l -1.63555,0.33364 c -0.24858,0.0391 -0.45789,0.33365 -0.45789,0.58884 v 2.42699 c 0,0.45798 0.33365,0.58231 0.71308,0.58231 l 1.38036,-0.28785 v 6.23453 h 1.17097 v -6.48972 l 3.72899,-0.75235 v 5.90749 h 1.17105 v -6.15607 l 1.58976,-0.29437 c 0.2551,-0.0456 0.4645,-0.33364 0.4645,-0.58874 v -2.46645 c 0,-0.41861 -0.29446,-0.58874 -0.6739,-0.58874 l -1.38036,0.29437 v -6.90842 l 1.58976,-0.29437 m -6.4898,1.2953 3.72899,-0.75226 v 6.90833 l -3.72899,0.79814 v -6.95421"
     id="path79"
     style="stroke-width:0.418692" />
  <path
     class="KeySig"
     d="m 73.079276,445.05405 c 0.255189,-0.0391 0.464496,-0.33364 0.464496,-0.58883 v -2.46636 c 0,-0.41861 -0.29437,-0.58873 -0.673802,-0.58873 l -1.380364,0.29436 v -6.24113 h -1.171057 v 6.48972 l -3.728992,0.75895 v -5.90749 h -1.170963 v 6.15607 l -1.635552,0.33365 c -0.248581,0.0456 -0.457981,0.33364 -0.457981,0.58874 v 2.42708 c 0,0.45798 0.333644,0.58883 0.713076,0.58883 l 1.380457,-0.29437 v 6.90843 l -1.635552,0.33364 c -0.248581,0.0391 -0.457981,0.33365 -0.457981,0.58874 v 2.42709 c 0,0.45798 0.333644,0.58231 0.713076,0.58231 l 1.380457,-0.28785 v 6.23453 h 1.170963 v -6.48972 l 3.728992,-0.75235 v 5.90749 h 1.171057 v -6.15607 l 1.58967,-0.29437 c 0.255189,-0.0456 0.464496,-0.33365 0.464496,-0.58883 v -2.46636 c 0,-0.41861 -0.29437,-0.58874 -0.673802,-0.58874 l -1.380364,0.29437 v -6.90843 l 1.58967,-0.29437 m -6.489719,1.2953 3.728992,-0.75235 v 6.90843 l -3.728992,0.79814 v -6.95422"
     id="path80"
     style="stroke-width:0.418692" />
  <path
     class="KeySig"
     d="m 73.079276,701.50283 c 0.255189,-0.0391 0.464496,-0.33364 0.464496,-0.58883 v -2.46635 c 0,-0.41871 -0.29437,-0.58874 -0.673802,-0.58874 l -1.380364,0.29437 v -6.24114 h -1.171057 v 6.48972 l -3.728992,0.75886 v -5.90749 h -1.170963 v 6.15617 l -1.635552,0.33364 c -0.248581,0.0456 -0.457981,0.33364 -0.457981,0.58874 v 2.42708 c 0,0.45798 0.333644,0.58883 0.713076,0.58883 l 1.380457,-0.29437 v 6.90834 l -1.635552,0.33364 c -0.248581,0.0391 -0.457981,0.33364 -0.457981,0.58883 v 2.42709 c 0,0.45798 0.333644,0.58222 0.713076,0.58222 l 1.380457,-0.28785 v 6.23462 h 1.170963 v -6.48972 l 3.728992,-0.75235 v 5.90749 h 1.171057 v -6.15607 l 1.58967,-0.29437 c 0.255189,-0.0456 0.464496,-0.33364 0.464496,-0.58883 V 709 c 0,-0.41871 -0.29437,-0.58874 -0.673802,-0.58874 l -1.380364,0.29437 v -6.90843 l 1.58967,-0.29437 m -6.489719,1.29531 3.728992,-0.75235 v 6.90842 l -3.728992,0.79814 v -6.95421"
     id="path81"
     style="stroke-width:0.418692" />
  <path
     class="TimeSig"
     d="m 148.79713,203.01003 c 2.09344,-0.79814 3.55886,-2.13923 3.55886,-4.44198 0,-0.37301 -0.12424,-5.10945 -7.32713,-5.10945 -7.20279,0 -6.99349,5.10945 -6.99349,5.10945 h 0.0391 l -0.0391,0.0847 c 0,1.5047 1.21685,2.68227 2.72155,2.68227 1.5047,0 2.68227,-1.17757 2.68227,-2.68227 0,-1.21684 -0.92248,-2.38781 -2.09353,-2.63639 0.0391,-0.0456 0.0782,-0.0847 0.12434,-0.12434 0.58222,-0.4187 1.38036,-0.62801 2.1785,-0.62801 1.75328,0 3.63741,1.04672 3.63741,3.30377 0,2.63639 -1.96259,3.01582 -2.46636,3.10089 -0.50377,0.0847 -2.84579,0.24858 -3.34955,0.24858 -0.50377,0 -0.54296,0.58883 -0.54296,0.58883 v 0.83732 c 0,0 0.0782,0.45798 0.54296,0.50377 0.71307,0.0391 1.67473,0.0391 3.01591,0.24858 1.83834,0.24858 2.8,1.5047 2.8,4.43555 0,2.80652 -1.88413,3.55887 -3.63741,3.55887 -1.17757,0 -2.26357,-0.33364 -2.72146,-0.66729 1.38037,-0.0847 2.51215,-1.2953 2.51215,-2.68218 0,-1.5047 -1.17757,-2.72154 -2.68227,-2.72154 -1.5047,0 -2.72155,1.21684 -2.72155,2.72154 0,3.43453 3.14026,5.15515 6.24123,5.15515 4.01676,0 8.37376,-1.38697 8.37376,-5.94677 0,-3.05519 -2.09344,-4.35701 -3.9383,-4.93932 h 0.0847"
     id="path82"
     style="stroke-width:0.418692" />
  <path
     class="TimeSig"
     d="m 144.46627,229.72125 v 3.09447 h -3.4738 c -0.29446,0 -0.58883,0.25509 -0.58883,0.58873 v 0.79814 c 0,0.33365 0.29437,0.58223 0.58883,0.58223 h 12.68498 c 0.34025,0 0.58883,-0.24858 0.58883,-0.58223 v -0.79814 c 0,-0.33364 -0.24858,-0.58873 -0.58883,-0.58873 h -3.72239 v -3.09447 h 3.72239 c 0.34025,0 0.58883,-0.29437 0.58883,-0.62801 v -0.79814 c 0,-0.29437 -0.24858,-0.58223 -0.58883,-0.58223 h -3.72239 v -6.65984 c 0,-0.24858 -0.12434,-0.45789 -0.33364,-0.54295 l -0.50377,-0.25519 c -0.0847,-0.0391 -0.20931,-0.0782 -0.29437,-0.0782 -0.12425,0.0391 -0.29437,0.0782 -0.37943,0.16351 l -3.80754,3.4739 c -0.12425,0.13076 -0.17004,0.29437 -0.17004,0.46449 v 3.43453 h -4.81498 c 0,0 4.65147,-5.02429 9.5907,-11.64486 0.17012,-0.2094 0.2093,-0.41871 0.2093,-0.58222 0,-0.2094 -0.0847,-0.37944 -0.12424,-0.41871 l -0.92248,-0.92248 c -0.0847,-0.0847 -0.24858,-0.17003 -0.4187,-0.17003 -0.24859,0 -5.90741,0 -6.19526,0 -0.34025,0 -0.54956,0.2551 -0.58883,0.50377 0,0 -0.20931,3.10089 -1.2953,6.48972 -1.09261,3.39525 -2.34863,5.48879 -3.43463,7.03267 0,0 -0.12433,0.20931 -0.12433,0.46449 0,0.0847 0,0.16362 0.0391,0.24858 0.17012,0.29437 0.4187,0.75236 0.4187,0.75236 0,0 0.0847,0.25509 0.45798,0.25509 h 7.2028"
     id="path83"
     style="stroke-width:0.418692" />
  <path
     class="Rest"
     d="m 175.19723,213.51659 c 0,0.58883 0,0.58883 0.58883,0.58883 h 12.43649 c 0.58223,0 0.58223,0 0.58223,-0.58883 v -4.52052 c 0,-0.58883 0,-0.58883 -0.58223,-0.58883 h -12.43649 c -0.58883,0 -0.58883,0 -0.58883,0.58883 v 4.52052"
     id="path84"
     style="stroke-width:0.418692" />
  <path
     class="Beam"
     fill-rule="evenodd"
     d="m 618.21882,459.91762 h 73.71004 v 5.2336 h -73.71004 v -5.2336"
     id="path85"
     style="stroke-width:0.422068" />
  <path
     class="Beam"
     fill-rule="evenodd"
     d="m 341.32089,203.46801 h 69.29943 v 5.23369 h -69.29943 v -5.23369"
     id="path86"
     style="stroke-width:0.422068" />
  <path
     class="Beam"
     fill-rule="evenodd"
     d="m 969.50633,203.46801 h 69.29527 v 5.23369 h -69.29527 v -5.23369"
     id="path87"
     style="stroke-width:0.422068" />
  <path
     class="Beam"
     fill-rule="evenodd"
     d="m 331.19543,747.76828 h 78.20925 v 5.2336 h -78.20925 v -5.2336"
     id="path88"
     style="stroke-width:0.422068" />
  <path
     class="Fingering"
     d="m 336.13913,177.73873 -3.07306,0.25025 -0.0661,0.61331 h 0.40223 c 0.69223,0 0.96277,0.15189 0.96277,0.52127 0,0.16454 -0.0456,0.40223 -0.15151,0.7449 l -2.15682,7.32034 c -0.34267,1.2202 -0.35616,1.23332 -1.50339,1.28609 l -0.0726,0.60688 h 4.05566 l 0.0661,-0.60688 h -0.20428 c -0.81127,0 -1.08135,-0.0987 -1.08135,-0.44188 0,-0.13169 0.0726,-0.42215 0.19116,-0.84421 l 0.82429,-2.74975 c 0.45501,1.16706 0.89689,1.48358 2.01117,1.48358 2.73039,0 4.38567,-2.96761 4.38567,-5.43416 0,-0.82429 -0.165,-1.38483 -0.55374,-1.87268 -0.44188,-0.54109 -1.11466,-0.87706 -1.77432,-0.87706 -0.86356,0 -1.75412,0.50777 -2.51261,1.4376 l 0.25072,-1.4376 m 1.741,0.89688 c 0.75849,0 1.26626,0.58669 1.26626,1.48357 0,0.92983 -0.28999,2.07744 -0.79814,3.1195 -0.58669,1.26617 -1.26626,1.83984 -2.15635,1.83984 -0.83108,0 -1.41778,-0.65296 -1.41778,-1.54984 0,-1.51652 1.19368,-4.89307 3.10601,-4.89307"
     id="path89"
     style="stroke-width:0.422068" />
  <path
     class="Fingering"
     d="m 404.39053,177.73873 -3.07268,0.25025 -0.067,0.61331 h 0.40521 c 0.69214,0 0.96231,0.15189 0.96231,0.52127 0,0.16454 -0.0465,0.40223 -0.15198,0.7449 l -2.15682,7.32034 c -0.34183,1.2202 -0.35868,1.23332 -1.50256,1.28609 l -0.0763,0.60688 h 4.05612 l 0.067,-0.60688 h -0.20261 c -0.81452,0 -1.08469,-0.0987 -1.08469,-0.44188 0,-0.13169 0.0717,-0.42215 0.19414,-0.84421 l 0.82308,-2.74975 c 0.45584,1.16706 0.89474,1.48358 2.00903,1.48358 2.73076,0 4.38948,-2.96761 4.38948,-5.43416 0,-0.82429 -0.16882,-1.38483 -0.55709,-1.87268 -0.439,-0.54109 -1.11429,-0.87706 -1.77274,-0.87706 -0.86524,0 -1.75579,0.50777 -2.51131,1.4376 l 0.24905,-1.4376 m 1.74314,0.89688 c 0.75551,0 1.26626,0.58669 1.26626,1.48357 0,0.92983 -0.2913,2.07744 -0.80195,3.1195 -0.58669,1.26617 -1.26627,1.83984 -2.15254,1.83984 -0.83155,0 -1.41815,-0.65296 -1.41815,-1.54984 0,-1.51652 1.19023,-4.89307 3.10638,-4.89307"
     id="path90"
     style="stroke-width:0.422068" />
  <path
     class="Fingering"
     d="m 325.06747,432.48318 -3.07316,0.25323 -0.0661,0.61201 h 0.40223 c 0.69214,0 0.96268,0.15188 0.96268,0.51912 0,0.16464 -0.0456,0.40522 -0.15151,0.74705 l -2.15673,7.31866 c -0.34276,1.21983 -0.35625,1.23248 -1.50339,1.2873 l -0.0726,0.60782 h 4.05566 l 0.0661,-0.60782 h -0.20428 c -0.81117,0 -1.08134,-0.10126 -1.08134,-0.44309 0,-0.13085 0.0726,-0.42215 0.19125,-0.84421 l 0.82429,-2.7476 c 0.455,1.16491 0.89688,1.48143 2.01117,1.48143 2.73029,0 4.38567,-2.96715 4.38567,-5.43202 0,-0.82726 -0.16501,-1.38436 -0.55375,-1.87398 -0.44188,-0.54026 -1.11466,-0.8779 -1.77441,-0.8779 -0.86356,0 -1.75412,0.50647 -2.51252,1.43927 l 0.25073,-1.43927 m 1.74099,0.89902 c 0.75849,0 1.26617,0.5866 1.26617,1.48144 0,0.9328 -0.2899,2.07659 -0.79814,3.11912 -0.58659,1.26617 -1.26617,1.84021 -2.15635,1.84021 -0.83099,0 -1.41768,-0.64998 -1.41768,-1.549 0,-1.51522 1.19358,-4.89177 3.106,-4.89177"
     id="path91"
     style="stroke-width:0.422068" />
  <path
     class="Fingering"
     d="m 107.08432,688.93196 -3.07306,0.25323 -0.0661,0.61201 h 0.40223 c 0.6926,0 0.96278,0.15188 0.96278,0.51912 0,0.16464 -0.0465,0.40522 -0.15152,0.74705 l -2.15635,7.31866 c -0.34314,1.21983 -0.35626,1.23248 -1.50386,1.2873 l -0.0726,0.60782 h 4.05603 l 0.0661,-0.60782 h -0.20475 c -0.8108,0 -1.08134,-0.10126 -1.08134,-0.44318 0,-0.13085 0.0726,-0.42206 0.19125,-0.84412 l 0.82429,-2.74769 c 0.455,1.16491 0.89688,1.48152 2.01154,1.48152 2.73039,0 4.3853,-2.96715 4.3853,-5.43201 0,-0.82727 -0.16454,-1.38446 -0.55375,-1.87399 -0.44188,-0.54026 -1.11465,-0.8779 -1.77394,-0.8779 -0.86394,0 -1.75412,0.50647 -2.51261,1.43918 l 0.25035,-1.43918 m 1.741,0.89893 c 0.75849,0 1.26626,0.58669 1.26626,1.48153 0,0.93271 -0.29,2.07659 -0.79777,3.11903 -0.58706,1.26626 -1.26617,1.84021 -2.15672,1.84021 -0.83062,0 -1.41778,-0.64998 -1.41778,-1.54891 0,-1.51531 1.19367,-4.89186 3.10601,-4.89186"
     id="path92"
     style="stroke-width:0.422068" />
  <path
     class="Fingering"
     d="m 685.69917,434.18834 -3.07269,0.24896 -0.0679,0.612 h 0.40102 c 0.69642,0 0.9665,0.15198 0.9665,0.52341 0,0.16463 -0.0465,0.40093 -0.15198,0.74286 l -2.15672,7.32285 c -0.34612,1.21982 -0.35877,1.23248 -1.50675,1.2873 l -0.0717,0.60363 h 4.05603 l 0.0679,-0.60363 h -0.2068 c -0.81042,0 -1.0805,-0.10126 -1.0805,-0.44319 0,-0.13076 0.0717,-0.42205 0.18985,-0.84411 l 0.82727,-2.75189 c 0.45584,1.16911 0.89484,1.48572 2.00912,1.48572 2.73076,0 4.38521,-2.96715 4.38521,-5.4363 0,-0.82299 -0.16454,-1.38437 -0.55291,-1.86971 -0.44309,-0.54453 -1.11419,-0.8779 -1.77264,-0.8779 -0.86524,0 -1.75579,0.50647 -2.51131,1.435 l 0.24905,-1.435 m 1.73885,0.89475 c 0.7598,0 1.26627,0.58669 1.26627,1.48571 0,0.92853 -0.28702,2.0766 -0.79777,3.11904 -0.5866,1.26626 -1.26617,1.84029 -2.15672,1.84029 -0.82727,0 -1.41815,-0.65425 -1.41815,-1.549 0,-1.51949 1.19441,-4.89604 3.10637,-4.89604"
     id="path93"
     style="stroke-width:0.422068" />
  <path
     class="Fingering"
     d="m 449.55184,432.48318 -3.0726,0.25323 -0.0679,0.61201 h 0.40093 c 0.69223,0 0.96231,0.15188 0.96231,0.51912 0,0.16464 -0.0465,0.40522 -0.15188,0.74705 l -2.15682,7.31866 c -0.34183,1.21983 -0.35449,1.23248 -1.50256,1.2873 l -0.0717,0.60782 h 4.05612 l 0.0679,-0.60782 h -0.2068 c -0.81033,0 -1.0805,-0.10126 -1.0805,-0.44309 0,-0.13085 0.0717,-0.42215 0.18995,-0.84421 l 0.82727,-2.7476 c 0.45165,1.16491 0.89474,1.48143 2.00903,1.48143 2.73076,0 4.3853,-2.96715 4.3853,-5.43202 0,-0.82726 -0.16464,-1.38436 -0.55291,-1.87398 -0.44319,-0.54026 -1.11429,-0.8779 -1.77264,-0.8779 -0.86524,0 -1.75589,0.50647 -2.51559,1.43927 l 0.25323,-1.43927 m 1.73895,0.89902 c 0.7597,0 1.26617,0.5866 1.26617,1.48144 0,0.9328 -0.2912,2.07659 -0.79767,3.11912 -0.58669,1.26617 -1.26617,1.84021 -2.15682,1.84021 -0.83146,0 -1.41815,-0.64998 -1.41815,-1.549 0,-1.51522 1.19451,-4.89177 3.10647,-4.89177"
     id="path94"
     style="stroke-width:0.422068" />
  <path
     class="Fingering"
     d="m 222.82768,688.93196 -3.07305,0.25323 -0.0661,0.61201 h 0.40223 c 0.6926,0 0.96278,0.15188 0.96278,0.51912 0,0.16464 -0.0456,0.40522 -0.15152,0.74705 l -2.15681,7.31866 c -0.34268,1.21983 -0.3558,1.23248 -1.5034,1.2873 l -0.0726,0.60782 h 4.05565 l 0.0661,-0.60782 h -0.20466 c -0.81126,0 -1.08134,-0.10126 -1.08134,-0.44318 0,-0.13085 0.0726,-0.42206 0.19116,-0.84412 l 0.82429,-2.74769 c 0.45501,1.16491 0.89689,1.48152 2.01164,1.48152 2.72992,0 4.3853,-2.96715 4.3853,-5.43201 0,-0.82727 -0.16464,-1.38446 -0.55384,-1.87399 -0.44188,-0.54026 -1.11466,-0.8779 -1.77395,-0.8779 -0.86393,0 -1.75449,0.50647 -2.51251,1.43918 l 0.25025,-1.43918 m 1.741,0.89893 c 0.75849,0 1.26626,0.58669 1.26626,1.48153 0,0.93271 -0.28999,2.07659 -0.79776,3.11903 -0.58707,1.26626 -1.26618,1.84021 -2.15673,1.84021 -0.83062,0 -1.41778,-0.64998 -1.41778,-1.54891 0,-1.51531 1.19368,-4.89186 3.10601,-4.89186"
     id="path95"
     style="stroke-width:0.422068" />
  <path
     class="Fingering"
     d="m 883.12158,431.74032 c -0.51065,0 -0.91158,0.40521 -0.91158,0.91587 0,0.48543 0.40093,0.90749 0.89474,0.90749 0.52341,0 0.92434,-0.40521 0.92434,-0.90749 0,-0.51066 -0.40093,-0.91587 -0.9075,-0.91587 m 0.29968,4.11941 -3.23723,0.25323 -0.0633,0.61201 h 0.40093 c 0.69223,0 0.9623,0.15188 0.9623,0.51912 0,0.16464 -0.0335,0.35877 -0.15188,0.74705 l -0.98343,3.29214 c -0.31662,1.07203 -0.36725,1.30842 -0.36725,1.70097 0,0.59088 0.50647,1.04672 1.14807,1.04672 1.44765,0 2.44375,-1.50256 3.15701,-2.6 l -0.5275,-0.28692 c -0.87799,1.32945 -1.58279,2.04281 -2.03863,2.04281 -0.16882,0 -0.28701,-0.15198 -0.28701,-0.35458 0,-0.16464 0.0633,-0.47697 0.2026,-0.94547 l 1.7853,-6.02708"
     id="path96"
     style="stroke-width:0.422068" />
  <path
     class="Fingering"
     d="m 334.70665,692.30851 -3.07306,0.25323 -0.0531,0.61201 h 0.40894 c 0.6724,0 0.94295,0.15188 0.94295,0.53178 0,0.15198 -0.053,0.4094 -0.13848,0.73439 l -1.72118,5.80344 h 1.47046 l 0.6926,-2.38045 c 0.75849,-2.58725 2.29483,-4.53728 3.561,-4.53728 0.44188,0 0.71252,0.22792 0.71252,0.64998 0,0.34611 -0.13848,1.051 -0.34323,1.68832 l -1.34509,4.57943 h 1.46375 l 0.72555,-2.44802 c 0.42206,-1.40549 0.84411,-2.34667 1.38474,-3.07259 0.60698,-0.84421 1.47091,-1.39712 2.11037,-1.39712 0.42206,0 0.65966,0.21527 0.65966,0.62048 0,0.23639 -0.0856,0.60353 -0.2376,1.0805 l -0.77785,2.40158 c -0.455,1.31261 -0.4685,1.41815 -0.4685,1.88665 0,0.70907 0.52127,1.17757 1.31261,1.17757 0.56054,0 1.10117,-0.27017 1.67483,-0.80195 0.35617,-0.34612 0.58706,-0.64998 1.27967,-1.65873 l -0.52127,-0.35458 c -0.87706,1.32108 -1.5034,1.9584 -1.93858,1.9584 -0.18483,0 -0.35616,-0.18567 -0.35616,-0.42206 0,-0.15188 0.053,-0.33765 0.20428,-0.83146 l 1.06189,-3.27101 c 0.11856,-0.36724 0.20428,-0.89483 0.20428,-1.26626 0,-0.89474 -0.65928,-1.53625 -1.56966,-1.53625 -1.19991,0 -2.28172,0.78083 -3.25752,2.38046 0.0661,-0.32081 0.0987,-0.60782 0.0987,-0.81043 0,-0.89474 -0.71206,-1.57003 -1.63556,-1.57003 -1.06821,0 -1.83974,0.59507 -3.02699,2.28339 l 0.49465,-2.28339"
     id="path97"
     style="stroke-width:0.422068" />
  <path
     class="Fingering"
     d="m 987.97186,433.74935 -3.07688,0.25323 -0.0512,0.61201 h 0.4095 c 0.67101,0 0.94118,0.15198 0.94118,0.53178 0,0.15198 -0.0503,0.40949 -0.13932,0.73448 l -1.71782,5.80345 h 1.46887 l 0.69213,-2.38055 c 0.7597,-2.58725 2.29605,-4.53718 3.56231,-4.53718 0.44309,0 0.71326,0.22792 0.71326,0.64997 0,0.34612 -0.13932,1.05091 -0.34611,1.68823 l -1.34221,4.57953 h 1.4604 l 0.72592,-2.44802 c 0.42215,-1.4055 0.84421,-2.34668 1.38446,-3.07269 0.60773,-0.84411 1.47297,-1.39702 2.11029,-1.39702 0.42205,0 0.66263,0.21526 0.66263,0.62038 0,0.23639 -0.0884,0.60363 -0.24058,1.0805 l -0.77654,2.40159 c -0.45584,1.31261 -0.4685,1.41814 -0.4685,1.88664 0,0.70908 0.52331,1.17757 1.31261,1.17757 0.56138,0 1.10163,-0.27008 1.67557,-0.80186 0.35458,-0.34611 0.58669,-0.65007 1.27892,-1.65882 l -0.51912,-0.35449 c -0.8779,1.32108 -1.50684,1.9584 -1.94156,1.9584 -0.18148,0 -0.35449,-0.18567 -0.35449,-0.42206 0,-0.15197 0.0503,-0.33764 0.20251,-0.83145 l 1.06366,-3.27111 c 0.1182,-0.36714 0.20261,-0.89474 0.20261,-1.26617 0,-0.89474 -0.65845,-1.53634 -1.57013,-1.53634 -1.1987,0 -2.2792,0.78083 -3.25416,2.38046 0.0633,-0.32071 0.0971,-0.60773 0.0971,-0.81033 0,-0.89484 -0.71326,-1.57013 -1.63341,-1.57013 -1.07203,0 -1.8402,0.59516 -3.03043,2.28339 l 0.49809,-2.28339"
     id="path98"
     style="stroke-width:0.422068" />
  <path
     class="Fingering"
     d="m 416.01008,688.1891 c -0.50647,0 -0.91168,0.40521 -0.91168,0.91587 0,0.48534 0.40521,0.90749 0.89902,0.90749 0.51913,0 0.92434,-0.40521 0.92434,-0.90749 0,-0.51066 -0.40521,-0.91587 -0.91168,-0.91587 m 0.30386,4.11941 -3.23722,0.25323 -0.0679,0.61201 h 0.40102 c 0.69642,0 0.9665,0.15188 0.9665,0.51912 0,0.16464 -0.0335,0.35878 -0.15198,0.74705 l -0.98334,3.29214 c -0.31661,1.07203 -0.37143,1.30842 -0.37143,1.70097 0,0.59088 0.51066,1.04672 1.14798,1.04672 1.45193,0 2.44802,-1.50256 3.16128,-2.6 l -0.52759,-0.28701 c -0.8779,1.32954 -1.58269,2.04281 -2.03853,2.04281 -0.17311,0 -0.29121,-0.15189 -0.29121,-0.35449 0,-0.16464 0.067,-0.47697 0.2068,-0.94547 l 1.78529,-6.02708"
     id="path99"
     style="stroke-width:0.422068" />
  <path
     class="Fingering"
     d="m 1032.5761,177.73873 -3.0769,0.25025 -0.063,0.61331 h 0.401 c 0.6922,0 0.9624,0.15189 0.9624,0.52127 0,0.16454 -0.047,0.40223 -0.152,0.7449 l -2.1567,7.32034 c -0.342,1.2202 -0.3546,1.23332 -1.5026,1.28609 l -0.072,0.60688 h 4.0561 l 0.068,-0.60688 h -0.2069 c -0.8103,0 -1.0804,-0.0987 -1.0804,-0.44188 0,-0.13169 0.072,-0.42215 0.1899,-0.84421 l 0.823,-2.74975 c 0.4559,1.16706 0.8991,1.48358 2.0133,1.48358 2.7308,0 4.3853,-2.96761 4.3853,-5.43416 0,-0.82429 -0.1646,-1.38483 -0.553,-1.87268 -0.4431,-0.54109 -1.1142,-0.87706 -1.7726,-0.87706 -0.8652,0 -1.7558,0.50777 -2.5156,1.4376 l 0.2533,-1.4376 m 1.7389,0.89688 c 0.7597,0 1.2663,0.58669 1.2663,1.48357 0,0.92983 -0.2913,2.07744 -0.7978,3.1195 -0.5867,1.26617 -1.2662,1.83984 -2.1567,1.83984 -0.8315,0 -1.4182,-0.65296 -1.4182,-1.54984 0,-1.51652 1.1944,-4.89307 3.1064,-4.89307"
     id="path100"
     style="stroke-width:0.422068" />
  <path
     class="Fingering"
     d="m 107.08432,432.48318 -3.07306,0.25323 -0.0661,0.61201 h 0.40223 c 0.6926,0 0.96278,0.15188 0.96278,0.51912 0,0.16464 -0.0465,0.40522 -0.15152,0.74705 l -2.15635,7.31866 c -0.34314,1.21983 -0.35626,1.23248 -1.50386,1.2873 l -0.0726,0.60782 h 4.05603 l 0.0661,-0.60782 h -0.20475 c -0.8108,0 -1.08134,-0.10126 -1.08134,-0.44309 0,-0.13085 0.0726,-0.42215 0.19125,-0.84421 l 0.82429,-2.7476 c 0.455,1.16491 0.89688,1.48143 2.01154,1.48143 2.73039,0 4.3853,-2.96715 4.3853,-5.43202 0,-0.82726 -0.16454,-1.38436 -0.55375,-1.87398 -0.44188,-0.54026 -1.11465,-0.8779 -1.77394,-0.8779 -0.86394,0 -1.75412,0.50647 -2.51261,1.43927 l 0.25035,-1.43927 m 1.741,0.89902 c 0.75849,0 1.26626,0.5866 1.26626,1.48144 0,0.9328 -0.29,2.07659 -0.79777,3.11912 -0.58706,1.26617 -1.26617,1.84021 -2.15672,1.84021 -0.83062,0 -1.41778,-0.64998 -1.41778,-1.549 0,-1.51522 1.19367,-4.89177 3.10601,-4.89177"
     id="path101"
     style="stroke-width:0.422068" />
  <path
     class="Fingering"
     d="m 613.03585,434.18834 -3.07269,0.24896 -0.0633,0.612 h 0.40093 c 0.69223,0 0.96231,0.15198 0.96231,0.52341 0,0.16463 -0.0465,0.40093 -0.15189,0.74286 l -2.15681,7.32285 c -0.34184,1.21982 -0.3545,1.23248 -1.50256,1.2873 l -0.0717,0.60363 h 4.05612 l 0.0633,-0.60363 h -0.20261 c -0.81033,0 -1.0805,-0.10126 -1.0805,-0.44319 0,-0.13076 0.0717,-0.42205 0.18995,-0.84411 l 0.82308,-2.75189 c 0.45575,1.16911 0.89893,1.48572 2.01322,1.48572 2.73076,0 4.38529,-2.96715 4.38529,-5.4363 0,-0.82299 -0.16463,-1.38437 -0.5529,-1.86971 -0.44319,-0.54453 -1.11429,-0.8779 -1.77692,-0.8779 -0.86106,0 -1.75161,0.50647 -2.51131,1.435 l 0.24904,-1.435 m 1.74314,0.89475 c 0.7597,0 1.26617,0.58669 1.26617,1.48571 0,0.92853 -0.2912,2.0766 -0.79767,3.11904 -0.58669,1.26626 -1.26617,1.84029 -2.15682,1.84029 -0.83146,0 -1.41815,-0.65425 -1.41815,-1.549 0,-1.51949 1.19451,-4.89604 3.10647,-4.89604"
     id="path102"
     style="stroke-width:0.422068" />
  <path
     class="Fingering"
     d="m 504.52208,692.30851 -3.07269,0.25323 -0.0503,0.61201 h 0.40521 c 0.67529,0 0.94537,0.15188 0.94537,0.53178 0,0.15198 -0.0549,0.4094 -0.13923,0.73439 l -1.7221,5.80344 h 1.47305 l 0.69214,-2.38045 c 0.75551,-2.58725 2.29186,-4.53728 3.55812,-4.53728 0.44309,0 0.71326,0.22792 0.71326,0.64998 0,0.34611 -0.13932,1.051 -0.34192,1.68832 l -1.3464,4.57943 h 1.46459 l 0.72601,-2.44802 c 0.42206,-1.40549 0.84412,-2.34667 1.38437,-3.07259 0.60782,-0.84421 1.47306,-1.39712 2.11038,-1.39712 0.42205,0 0.65835,0.21527 0.65835,0.62048 0,0.23639 -0.0847,0.60353 -0.2363,1.0805 l -0.77664,2.40158 c -0.45584,1.31261 -0.46849,1.41815 -0.46849,1.88665 0,0.70907 0.51912,1.17757 1.31261,1.17757 0.56138,0 1.10163,-0.27017 1.67566,-0.80195 0.35449,-0.34612 0.58669,-0.64998 1.27883,-1.65873 l -0.52331,-0.35458 c -0.8779,1.32108 -1.50256,1.9584 -1.93737,1.9584 -0.18567,0 -0.35449,-0.18567 -0.35449,-0.42206 0,-0.15188 0.0502,-0.33765 0.2026,-0.83146 l 1.06357,-3.27101 c 0.11819,-0.36724 0.2026,-0.89483 0.2026,-1.26626 0,-0.89474 -0.65844,-1.53625 -1.57012,-1.53625 -1.19861,0 -2.28339,0.78083 -3.25836,2.38046 0.0679,-0.32081 0.10135,-0.60782 0.10135,-0.81043 0,-0.89474 -0.71335,-1.57003 -1.63769,-1.57003 -1.06775,0 -1.8402,0.59507 -3.02615,2.28339 l 0.49381,-2.28339"
     id="path103"
     style="stroke-width:0.422068" />
  <path
     class="Fingering"
     d="m 964.32336,177.73873 -3.07269,0.25025 -0.0679,0.61331 h 0.40103 c 0.69213,0 0.96649,0.15189 0.96649,0.52127 0,0.16454 -0.0465,0.40223 -0.15188,0.7449 l -2.15682,7.32034 c -0.34611,1.2202 -0.35877,1.23332 -1.50675,1.28609 l -0.0717,0.60688 h 4.05603 l 0.0679,-0.60688 h -0.2068 c -0.81042,0 -1.0805,-0.0987 -1.0805,-0.44188 0,-0.13169 0.0717,-0.42215 0.18995,-0.84421 l 0.82718,-2.74975 c 0.45584,1.16706 0.89483,1.48358 2.00912,1.48358 2.73076,0 4.38529,-2.96761 4.38529,-5.43416 0,-0.82429 -0.16463,-1.38483 -0.5529,-1.87268 -0.44319,-0.54109 -1.11429,-0.87706 -1.77274,-0.87706 -0.86524,0 -1.75579,0.50777 -2.51549,1.4376 l 0.25323,-1.4376 m 1.73895,0.89688 c 0.7597,0 1.26617,0.58669 1.26617,1.48357 0,0.92983 -0.28702,2.07744 -0.79777,3.1195 -0.58659,1.26617 -1.26617,1.83984 -2.15672,1.83984 -0.83146,0 -1.41815,-0.65296 -1.41815,-1.54984 0,-1.51652 1.19442,-4.89307 3.10647,-4.89307"
     id="path104"
     style="stroke-width:0.422068" />
  <path
     class="Fingering"
     d="m 810.75804,176.03524 -3.07269,0.25025 -0.0679,0.61331 h 0.40102 c 0.69214,0 0.96231,0.15198 0.96231,0.52127 0,0.16463 -0.0419,0.40223 -0.14779,0.7449 l -2.15672,7.32043 c -0.34612,1.2202 -0.35877,1.23323 -1.50675,1.286 l -0.0717,0.60698 h 4.05603 l 0.0679,-0.60698 h -0.2068 c -0.81042,0 -1.0805,-0.0987 -1.0805,-0.44188 0,-0.13169 0.0717,-0.42206 0.18985,-0.84412 l 0.82727,-2.74984 c 0.45166,1.16706 0.89484,1.48358 2.00903,1.48358 2.73085,0 4.3853,-2.96752 4.3853,-5.43416 0,-0.82429 -0.16454,-1.38474 -0.55291,-1.87268 -0.44309,-0.54109 -1.11419,-0.87706 -1.77264,-0.87706 -0.86524,0 -1.75579,0.50777 -2.5155,1.4376 l 0.25324,-1.4376 m 1.73885,0.89688 c 0.7598,0 1.26627,0.58669 1.26627,1.48357 0,0.92983 -0.28702,2.07743 -0.79777,3.1195 -0.58669,1.26627 -1.26617,1.83983 -2.15672,1.83983 -0.83146,0 -1.41815,-0.65295 -1.41815,-1.54983 0,-1.51652 1.19442,-4.89307 3.10637,-4.89307"
     id="path105"
     style="stroke-width:0.422068" />
  <path
     class="Fingering"
     d="m 624.40635,688.1891 c -0.50647,0 -0.9074,0.40521 -0.9074,0.91587 0,0.48534 0.40093,0.90749 0.89475,0.90749 0.5234,0 0.92433,-0.40521 0.92433,-0.90749 0,-0.51066 -0.40093,-0.91587 -0.91168,-0.91587 m 0.30387,4.11941 -3.23723,0.25323 -0.0679,0.61201 h 0.40521 c 0.69223,0 0.96231,0.15188 0.96231,0.51912 0,0.16464 -0.0335,0.35878 -0.15198,0.74705 l -0.98334,3.29214 c -0.31661,1.07203 -0.36724,1.30842 -0.36724,1.70097 0,0.59088 0.50647,1.04672 1.14379,1.04672 1.45193,0 2.44802,-1.50256 3.16128,-2.6 l -0.52759,-0.28701 c -0.8779,1.32954 -1.58269,2.04281 -2.03853,2.04281 -0.17311,0 -0.29121,-0.15189 -0.29121,-0.35449 0,-0.16464 0.0679,-0.47697 0.2068,-0.94547 l 1.78529,-6.02708"
     id="path106"
     style="stroke-width:0.422068" />
  <path
     class="Fingering"
     d="m 692.88698,176.03524 -3.07269,0.25025 -0.0633,0.61331 h 0.40093 c 0.69223,0 0.9623,0.15198 0.9623,0.52127 0,0.16463 -0.0465,0.40223 -0.15188,0.7449 l -2.15682,7.32043 c -0.34183,1.2202 -0.35449,1.23323 -1.50256,1.286 l -0.0717,0.60698 h 4.05612 l 0.0633,-0.60698 h -0.20261 c -0.81033,0 -1.0805,-0.0987 -1.0805,-0.44188 0,-0.13169 0.0717,-0.42206 0.18995,-0.84412 l 0.82298,-2.74984 c 0.45584,1.16706 0.89903,1.48358 2.01331,1.48358 2.73076,0 4.3853,-2.96752 4.3853,-5.43416 0,-0.82429 -0.16463,-1.38474 -0.55291,-1.87268 -0.44318,-0.54109 -1.11847,-0.87706 -1.77692,-0.87706 -0.86105,0 -1.7516,0.50777 -2.51131,1.4376 l 0.24905,-1.4376 m 1.74314,0.89688 c 0.75551,0 1.26617,0.58669 1.26617,1.48357 0,0.92983 -0.29121,2.07743 -0.79768,3.1195 -0.58669,1.26627 -1.26626,1.83983 -2.15681,1.83983 -0.83146,0 -1.41815,-0.65295 -1.41815,-1.54983 0,-1.51652 1.19451,-4.89307 3.10647,-4.89307"
     id="path107"
     style="stroke-width:0.422068" />
  <path
     class="Fingering"
     d="m 736.00966,687.58128 -3.0726,0.25324 -0.0549,0.612 h 0.4094 c 0.6753,0 0.94547,0.15198 0.94547,0.53188 0,0.15188 -0.0549,0.4094 -0.13932,0.73439 l -1.72201,5.80344 h 1.46877 l 0.69642,-2.38055 c 0.75551,-2.58725 2.29186,-4.53718 3.55803,-4.53718 0.44318,0 0.71335,0.22792 0.71335,0.64998 0,0.34611 -0.13932,1.05091 -0.34192,1.68823 l -1.3464,4.57952 h 1.46459 l 0.72592,-2.44802 c 0.42206,-1.40549 0.84421,-2.34667 1.38446,-3.07269 0.60772,-0.84411 1.46878,-1.39702 2.11028,-1.39702 0.42206,0 0.65845,0.21526 0.65845,0.62048 0,0.23629 -0.0847,0.60353 -0.23639,1.08041 l -0.77655,2.40158 c -0.45584,1.3127 -0.46849,1.41815 -0.46849,1.88665 0,0.70907 0.51912,1.17757 1.31261,1.17757 0.55709,0 1.09735,-0.27008 1.67138,-0.80186 0.35877,-0.34612 0.58669,-0.65007 1.28311,-1.65873 l -0.52341,-0.35458 c -0.87789,1.32108 -1.50256,1.9584 -1.93727,1.9584 -0.18567,0 -0.35877,-0.18567 -0.35877,-0.42206 0,-0.15198 0.0549,-0.33765 0.20679,-0.83146 l 1.05938,-3.2711 c 0.11819,-0.36715 0.20688,-0.89474 0.20688,-1.26617 0,-0.89474 -0.65844,-1.53635 -1.57012,-1.53635 -1.1987,0 -2.28339,0.78083 -3.25836,2.38046 0.0679,-0.32071 0.0971,-0.60772 0.0971,-0.81033 0,-0.89483 -0.70907,-1.57013 -1.63341,-1.57013 -1.06784,0 -1.8402,0.59516 -3.02624,2.28339 l 0.49381,-2.28339"
     id="path108"
     style="stroke-width:0.422068" />
  <path
     class="Fingering"
     d="m 216.07589,432.48318 -3.07315,0.25323 -0.0661,0.61201 h 0.40223 c 0.69223,0 0.96278,0.15188 0.96278,0.51912 0,0.16464 -0.0465,0.40522 -0.15161,0.74705 l -2.15672,7.31866 c -0.34277,1.21983 -0.3558,1.23248 -1.5034,1.2873 l -0.0726,0.60782 h 4.05565 l 0.0661,-0.60782 h -0.20475 c -0.81116,0 -1.08134,-0.10126 -1.08134,-0.44309 0,-0.13085 0.0726,-0.42215 0.19126,-0.84421 l 0.82429,-2.7476 c 0.455,1.16491 0.89688,1.48143 2.01154,1.48143 2.72992,0 4.38529,-2.96715 4.38529,-5.43202 0,-0.82726 -0.16463,-1.38436 -0.55374,-1.87398 -0.44188,-0.54026 -1.11466,-0.8779 -1.77394,-0.8779 -0.86394,0 -1.75459,0.50647 -2.51299,1.43927 l 0.25072,-1.43927 m 1.741,0.89902 c 0.75849,0 1.26617,0.5866 1.26617,1.48144 0,0.9328 -0.2899,2.07659 -0.79767,3.11912 -0.58707,1.26617 -1.26617,1.84021 -2.15673,1.84021 -0.83108,0 -1.41777,-0.64998 -1.41777,-1.549 0,-1.51522 1.19358,-4.89177 3.106,-4.89177"
     id="path109"
     style="stroke-width:0.422068" />
  <path
     class="Fingering"
     d="m 769.98622,435.85973 -3.07269,0.25323 -0.0503,0.61201 h 0.40521 c 0.67529,0 0.94537,0.15188 0.94537,0.53178 0,0.15198 -0.0549,0.4094 -0.13923,0.73439 l -1.7221,5.80344 h 1.47305 l 0.69214,-2.38045 c 0.75551,-2.58725 2.29186,-4.53728 3.55812,-4.53728 0.44309,0 0.71326,0.22792 0.71326,0.65007 0,0.34602 -0.13932,1.05091 -0.34192,1.68823 l -1.3464,4.57943 h 1.46459 l 0.72601,-2.44802 c 0.42206,-1.40549 0.84412,-2.34667 1.38437,-3.07259 0.60782,-0.84421 1.47306,-1.39712 2.11038,-1.39712 0.42205,0 0.65835,0.21527 0.65835,0.62048 0,0.23639 -0.0847,0.60353 -0.2363,1.0805 l -0.77664,2.40158 c -0.45584,1.31261 -0.46849,1.41815 -0.46849,1.88665 0,0.70907 0.51912,1.17757 1.31261,1.17757 0.56138,0 1.10163,-0.27017 1.67566,-0.80195 0.35449,-0.34612 0.58669,-0.64998 1.27883,-1.65873 l -0.52331,-0.35449 c -0.8779,1.32108 -1.50256,1.9584 -1.93737,1.9584 -0.18567,0 -0.35449,-0.18576 -0.35449,-0.42215 0,-0.15189 0.0503,-0.33765 0.2026,-0.83146 l 1.06357,-3.27101 c 0.11819,-0.36724 0.20261,-0.89474 0.20261,-1.26617 0,-0.89483 -0.65845,-1.53634 -1.57013,-1.53634 -1.19861,0 -2.28339,0.78083 -3.25835,2.38045 0.0679,-0.3208 0.10134,-0.60781 0.10134,-0.81042 0,-0.89474 -0.71335,-1.57003 -1.63769,-1.57003 -1.06775,0 -1.8402,0.59507 -3.02615,2.28339 l 0.49381,-2.28339"
     id="path110"
     style="stroke-width:0.422068" />
  <path
     class="Fingering"
     d="m 590.51001,176.03524 -3.07259,0.25025 -0.0679,0.61331 h 0.40521 c 0.69214,0 0.96231,0.15198 0.96231,0.52127 0,0.16463 -0.0465,0.40223 -0.15197,0.7449 l -2.15673,7.32043 c -0.34193,1.2202 -0.35458,1.23323 -1.50256,1.286 l -0.0717,0.60698 h 4.05603 l 0.0633,-0.60698 h -0.20251 c -0.81042,0 -1.08478,-0.0987 -1.08478,-0.44188 0,-0.13169 0.0763,-0.42206 0.19423,-0.84412 l 0.82298,-2.74984 c 0.45584,1.16706 0.89903,1.48358 2.01331,1.48358 2.73076,0 4.38521,-2.96752 4.38521,-5.43416 0,-0.82429 -0.16454,-1.38474 -0.5571,-1.87268 -0.4389,-0.54109 -1.11429,-0.87706 -1.77264,-0.87706 -0.86524,0 -1.75161,0.50777 -2.51131,1.4376 l 0.24896,-1.4376 m 1.74313,0.89688 c 0.75552,0 1.26627,0.58669 1.26627,1.48357 0,0.92983 -0.29121,2.07743 -0.79777,3.1195 -0.5866,1.26627 -1.26617,1.83983 -2.15673,1.83983 -0.83145,0 -1.41814,-0.65295 -1.41814,-1.54983 0,-1.51652 1.19441,-4.89307 3.10637,-4.89307"
     id="path111"
     style="stroke-width:0.422068" />
  <path
     class="Fingering"
     d="m 488.13315,176.03524 -3.07269,0.25025 -0.0679,0.61331 h 0.40512 c 0.69223,0 0.96231,0.15198 0.96231,0.52127 0,0.16463 -0.0465,0.40223 -0.15189,0.7449 l -2.15681,7.32043 c -0.34184,1.2202 -0.3545,1.23323 -1.50256,1.286 l -0.0717,0.60698 h 4.05184 l 0.0679,-0.60698 h -0.2026 c -0.81462,0 -1.08469,-0.0987 -1.08469,-0.44188 0,-0.13169 0.0763,-0.42206 0.19413,-0.84412 l 0.82308,-2.74984 c 0.45575,1.16706 0.89893,1.48358 2.01322,1.48358 2.72657,0 4.3853,-2.96752 4.3853,-5.43416 0,-0.82429 -0.16464,-1.38474 -0.5571,-1.87268 -0.43899,-0.54109 -1.11429,-0.87706 -1.77273,-0.87706 -0.86524,0 -1.7558,0.50777 -2.51131,1.4376 l 0.24905,-1.4376 m 1.74313,0.89688 c 0.75552,0 1.26617,0.58669 1.26617,1.48357 0,0.92983 -0.2912,2.07743 -0.79767,3.1195 -0.58669,1.26627 -1.26617,1.83983 -2.15682,1.83983 -0.83145,0 -1.41815,-0.65295 -1.41815,-1.54983 0,-1.51652 1.19451,-4.89307 3.10647,-4.89307"
     id="path112"
     style="stroke-width:0.422068" />
  <path
     class="Fingering"
     d="m 871.10957,688.93196 -3.07268,0.25323 -0.067,0.61201 h 0.40093 c 0.69223,0 0.9665,0.15188 0.9665,0.51912 0,0.16464 -0.0465,0.40522 -0.15189,0.74705 l -2.15682,7.31866 c -0.34611,1.21983 -0.35877,1.23248 -1.50674,1.2873 l -0.0717,0.60782 h 4.05603 l 0.0679,-0.60782 h -0.20679 c -0.81043,0 -1.08051,-0.10126 -1.08051,-0.44318 0,-0.13085 0.0717,-0.42206 0.18995,-0.84412 l 0.82727,-2.74769 c 0.45575,1.16491 0.89474,1.48152 2.00903,1.48152 2.73076,0 4.3853,-2.96715 4.3853,-5.43201 0,-0.82727 -0.16464,-1.38446 -0.55291,-1.87399 -0.44318,-0.54026 -1.11429,-0.8779 -1.77273,-0.8779 -0.86524,0 -1.7558,0.50647 -2.5155,1.43918 l 0.25323,-1.43918 m 1.73895,0.89893 c 0.75971,0 1.26617,0.58669 1.26617,1.48153 0,0.93271 -0.28701,2.07659 -0.79767,3.11903 -0.58669,1.26626 -1.26626,1.84021 -2.15682,1.84021 -0.83145,0 -1.41815,-0.64998 -1.41815,-1.54891 0,-1.51531 1.19442,-4.89186 3.10647,-4.89186"
     id="path113"
     style="stroke-width:0.422068" />
  <path
     class="NoteDot"
     d="m 882.57296,732.0673 c 0,1.17105 0.92238,2.09344 2.09344,2.09344 1.17105,0 2.09344,-0.92239 2.09344,-2.09344 0,-1.17097 -0.92239,-2.09344 -2.09344,-2.09344 -1.17106,0 -2.09344,0.92247 -2.09344,2.09344"
     id="path114"
     style="stroke-width:0.418692" />
  <metadata
     id="metadata114">
    <rdf:RDF>
      <cc:Work
         rdf:about="">
        <dc:title>joyeux_anniversaire</dc:title>
      </cc:Work>
    </rdf:RDF>
  </metadata>
</svg>
