<?xml version="1.0" encoding="UTF-8" standalone="no"?>
<svg
   id="svg1060"
   version="1.1"
   viewBox="0 0 297 210"
   height="210mm"
   width="297mm"
   sodipodi:docname="ex_rythmique.svg"
   inkscape:version="1.2.2 (b0a8486541, 2022-12-01)"
   xmlns:inkscape="http://www.inkscape.org/namespaces/inkscape"
   xmlns:sodipodi="http://sodipodi.sourceforge.net/DTD/sodipodi-0.dtd"
   xmlns="http://www.w3.org/2000/svg"
   xmlns:svg="http://www.w3.org/2000/svg"
   xmlns:rdf="http://www.w3.org/1999/02/22-rdf-syntax-ns#"
   xmlns:cc="http://creativecommons.org/ns#"
   xmlns:dc="http://purl.org/dc/elements/1.1/">
  <sodipodi:namedview
     id="namedview81"
     pagecolor="#ffffff"
     bordercolor="#000000"
     borderopacity="0.25"
     inkscape:showpageshadow="2"
     inkscape:pageopacity="0.0"
     inkscape:pagecheckerboard="0"
     inkscape:deskcolor="#d1d1d1"
     inkscape:document-units="mm"
     showgrid="false"
     inkscape:zoom="0.2412748"
     inkscape:cx="443.47772"
     inkscape:cy="613.40844"
     inkscape:window-width="1104"
     inkscape:window-height="552"
     inkscape:window-x="0"
     inkscape:window-y="32"
     inkscape:window-maximized="1"
     inkscape:current-layer="svg1060" />
  <defs
     id="defs1054" />
  <metadata
     id="metadata1057">
    <rdf:RDF>
      <cc:Work
         rdf:about="">
        <dc:format>image/svg+xml</dc:format>
        <dc:type
           rdf:resource="http://purl.org/dc/dcmitype/StillImage" />
        <dc:title />
      </cc:Work>
    </rdf:RDF>
  </metadata>
  <g
     transform="translate(0,-87)"
     id="layer1">
    <polyline
       id="polyline8"
       points="336.598,386.198 2764.6,386.198"
       class="StaffLines"
       style="fill:none;stroke:#000000;stroke-width:2.73000002;stroke-linejoin:bevel"
       transform="matrix(0.11168279,0,0,0.11168279,-21.042495,86.641189)" />
    <polyline
       id="polyline10"
       points="336.598,410.998 2764.6,410.998"
       class="StaffLines"
       style="fill:none;stroke:#000000;stroke-width:2.73000002;stroke-linejoin:bevel"
       transform="matrix(0.11168279,0,0,0.11168279,-21.042495,86.641189)" />
    <polyline
       id="polyline12"
       points="336.598,435.798 2764.6,435.798"
       class="StaffLines"
       style="fill:none;stroke:#000000;stroke-width:2.73000002;stroke-linejoin:bevel"
       transform="matrix(0.11168279,0,0,0.11168279,-21.042495,86.641189)" />
    <polyline
       id="polyline14"
       points="336.598,460.598 2764.6,460.598"
       class="StaffLines"
       style="fill:none;stroke:#000000;stroke-width:2.73000002;stroke-linejoin:bevel"
       transform="matrix(0.11168279,0,0,0.11168279,-21.042495,86.641189)" />
    <polyline
       id="polyline16"
       points="336.598,485.398 2764.6,485.398"
       class="StaffLines"
       style="fill:none;stroke:#000000;stroke-width:2.73000002;stroke-linejoin:bevel"
       transform="matrix(0.11168279,0,0,0.11168279,-21.042495,86.641189)" />
    <polyline
       id="polyline18"
       points="212.598,919.398 2764.6,919.398"
       class="StaffLines"
       style="fill:none;stroke:#000000;stroke-width:2.73000002;stroke-linejoin:bevel"
       transform="matrix(0.11168279,0,0,0.11168279,-21.042495,86.641189)" />
    <polyline
       id="polyline20"
       points="212.598,944.198 2764.6,944.198"
       class="StaffLines"
       style="fill:none;stroke:#000000;stroke-width:2.73000002;stroke-linejoin:bevel"
       transform="matrix(0.11168279,0,0,0.11168279,-21.042495,86.641189)" />
    <polyline
       id="polyline22"
       points="212.598,968.998 2764.6,968.998"
       class="StaffLines"
       style="fill:none;stroke:#000000;stroke-width:2.73000002;stroke-linejoin:bevel"
       transform="matrix(0.11168279,0,0,0.11168279,-21.042495,86.641189)" />
    <polyline
       id="polyline24"
       points="212.598,993.798 2764.6,993.798"
       class="StaffLines"
       style="fill:none;stroke:#000000;stroke-width:2.73000002;stroke-linejoin:bevel"
       transform="matrix(0.11168279,0,0,0.11168279,-21.042495,86.641189)" />
    <polyline
       id="polyline26"
       points="212.598,1018.6 2764.6,1018.6"
       class="StaffLines"
       style="fill:none;stroke:#000000;stroke-width:2.73000002;stroke-linejoin:bevel"
       transform="matrix(0.11168279,0,0,0.11168279,-21.042495,86.641189)" />
    <polyline
       id="polyline28"
       points="212.598,1452.6 2764.6,1452.6"
       class="StaffLines"
       style="fill:none;stroke:#000000;stroke-width:2.73000002;stroke-linejoin:bevel"
       transform="matrix(0.11168279,0,0,0.11168279,-21.042495,86.641189)" />
    <polyline
       id="polyline30"
       points="212.598,1477.4 2764.6,1477.4"
       class="StaffLines"
       style="fill:none;stroke:#000000;stroke-width:2.73000002;stroke-linejoin:bevel"
       transform="matrix(0.11168279,0,0,0.11168279,-21.042495,86.641189)" />
    <polyline
       id="polyline32"
       points="212.598,1502.2 2764.6,1502.2"
       class="StaffLines"
       style="fill:none;stroke:#000000;stroke-width:2.73000002;stroke-linejoin:bevel"
       transform="matrix(0.11168279,0,0,0.11168279,-21.042495,86.641189)" />
    <polyline
       id="polyline34"
       points="212.598,1527 2764.6,1527"
       class="StaffLines"
       style="fill:none;stroke:#000000;stroke-width:2.73000002;stroke-linejoin:bevel"
       transform="matrix(0.11168279,0,0,0.11168279,-21.042495,86.641189)" />
    <polyline
       id="polyline36"
       points="212.598,1551.8 2764.6,1551.8"
       class="StaffLines"
       style="fill:none;stroke:#000000;stroke-width:2.73000002;stroke-linejoin:bevel"
       transform="matrix(0.11168279,0,0,0.11168279,-21.042495,86.641189)" />
    <path
       style="stroke-width:0.11168279"
       id="path38"
       d="m 4.9836137,240.18715 c -0.237328,0.0267 -0.5270314,0.0459 -0.776528,0.0459 -0.1256445,0 -0.2687066,-0.006 -0.4293088,-0.0146 -0.1483191,-0.007 -0.2949517,-0.0167 -0.4467343,-0.0256 l -0.1116836,-0.006 -0.4327646,0.9426 0.1640581,0.0537 0.10822,-0.1798 c 0.2094052,-0.34622 0.3071269,-0.39536 0.7625738,-0.39201 h 0.7555322 l -0.4868255,0.69802 c -0.5723711,0.80299 -0.5723711,0.80299 -0.7904889,1.16038 -0.1972378,0.31717 -0.2775351,0.51262 -0.2775351,0.67344 0,0.15746 0.099508,0.25465 0.2548614,0.25465 0.1657358,0 0.2494966,-0.0804 0.3088057,-0.28926 0.2233594,-0.83986 0.3577166,-1.13135 0.9772215,-2.13427 l 0.4205961,-0.65223 v -0.13513"
       class="MeasureNumber" />
    <path
       style="stroke-width:0.11168279"
       id="path40"
       d="M 5.1005466,180.62068 H 4.857977 l -2.0800953,2.15337 v 0.18672 h 1.2582191 l -0.071573,0.27228 c -0.089006,0.34018 -0.089006,0.34018 -0.4781129,0.34018 h -0.080304 l -0.026125,0.20942 h 1.388998 l 0.022685,-0.20942 h -0.080295 c -0.2948447,0 -0.3577242,-0.0226 -0.3577242,-0.12038 0,-0.0366 0.00868,-0.0802 0.045438,-0.2198 l 0.074936,-0.27228 h 0.5096068 l 0.066359,-0.24079 H 4.53692 l 0.5636593,-2.0993 m -0.9964317,2.0993 H 3.1024572 l 1.3804009,-1.42049 -0.3787124,1.42049"
       class="MeasureNumber" />
    <path
       id="path42"
       d="m 62.901749,133.29086 c 4.257461,-3.42252 17.029725,-3.42252 21.287067,0 -4.257342,-2.5362 -17.029606,-2.5362 -21.287067,0"
       class="TieSegment"
       style="fill-rule:evenodd;stroke:#000000;stroke-width:0.13848665;stroke-linecap:round;stroke-linejoin:round" />
    <path
       id="path44"
       d="m 86.142382,192.82894 c 5.914048,-3.80425 23.654848,-3.80425 29.567328,0 -5.91248,-2.91792 -23.65328,-2.91792 -29.567328,0"
       class="TieSegment"
       style="fill-rule:evenodd;stroke:#000000;stroke-width:0.13848665;stroke-linecap:round;stroke-linejoin:round" />
    <path
       id="path46"
       d="m 187.12639,133.29086 c 5.07709,-3.64847 20.30952,-3.64847 25.38661,0 -5.07709,-2.76214 -20.30952,-2.76214 -25.38661,0"
       class="TieSegment"
       style="fill-rule:evenodd;stroke:#000000;stroke-width:0.13848665;stroke-linecap:round;stroke-linejoin:round" />
    <path
       id="path48"
       d="m 90.65705,252.3896 c 6.274332,-3.83741 25.09845,-3.83741 31.3728,0 -6.27435,-2.95065 -25.098468,-2.95065 -31.3728,0"
       class="TieSegment"
       style="fill-rule:evenodd;stroke:#000000;stroke-width:0.13848665;stroke-linecap:round;stroke-linejoin:round" />
    <polyline
       id="polyline50"
       points="2762.37,918.034 2762.37,1019.96"
       class="BarLine"
       style="fill:none;stroke:#000000;stroke-width:4.46000004;stroke-linejoin:bevel"
       transform="matrix(0.11168279,0,0,0.11168279,-21.042495,86.641189)" />
    <polyline
       id="polyline52"
       points="1320.02,384.834 1320.02,486.762"
       class="BarLine"
       style="fill:none;stroke:#000000;stroke-width:4.46000004;stroke-linejoin:bevel"
       transform="matrix(0.11168279,0,0,0.11168279,-21.042495,86.641189)" />
    <polyline
       id="polyline54"
       points="1910.15,918.034 1910.15,1019.96"
       class="BarLine"
       style="fill:none;stroke:#000000;stroke-width:4.46000004;stroke-linejoin:bevel"
       transform="matrix(0.11168279,0,0,0.11168279,-21.042495,86.641189)" />
    <polyline
       id="polyline56"
       points="1174.43,918.034 1174.43,1019.96"
       class="BarLine"
       style="fill:none;stroke:#000000;stroke-width:4.46000004;stroke-linejoin:bevel"
       transform="matrix(0.11168279,0,0,0.11168279,-21.042495,86.641189)" />
    <polyline
       id="polyline58"
       points="1231.02,1451.23 1231.02,1553.16"
       class="BarLine"
       style="fill:none;stroke:#000000;stroke-width:4.46000004;stroke-linejoin:bevel"
       transform="matrix(0.11168279,0,0,0.11168279,-21.042495,86.641189)" />
    <polyline
       id="polyline60"
       points="2739.55,1451.23 2739.55,1553.16"
       class="BarLine"
       style="fill:none;stroke:#000000;stroke-width:4.46000004;stroke-linejoin:bevel"
       transform="matrix(0.11168279,0,0,0.11168279,-21.042495,86.641189)" />
    <polyline
       id="polyline62"
       points="2757.78,1451.23 2757.78,1553.16"
       class="BarLine"
       style="fill:none;stroke:#000000;stroke-width:13.64000034;stroke-linejoin:bevel"
       transform="matrix(0.11168279,0,0,0.11168279,-21.042495,86.641189)" />
    <polyline
       id="polyline64"
       points="2041.19,384.834 2041.19,486.762"
       class="BarLine"
       style="fill:none;stroke:#000000;stroke-width:4.46000004;stroke-linejoin:bevel"
       transform="matrix(0.11168279,0,0,0.11168279,-21.042495,86.641189)" />
    <polyline
       id="polyline66"
       points="2139.83,1451.23 2139.83,1553.16"
       class="BarLine"
       style="fill:none;stroke:#000000;stroke-width:4.46000004;stroke-linejoin:bevel"
       transform="matrix(0.11168279,0,0,0.11168279,-21.042495,86.641189)" />
    <polyline
       id="polyline68"
       points="2762.37,384.834 2762.37,486.762"
       class="BarLine"
       style="fill:none;stroke:#000000;stroke-width:4.46000004;stroke-linejoin:bevel"
       transform="matrix(0.11168279,0,0,0.11168279,-21.042495,86.641189)" />
    <polyline
       id="polyline70"
       points="1844.64,439.965 1844.64,510.198"
       class="Stem"
       style="fill:none;stroke:#000000;stroke-width:2.48000002;stroke-linejoin:bevel"
       transform="matrix(0.11168279,0,0,0.11168279,-21.042495,86.641189)" />
    <polyline
       id="polyline72"
       points="980.852,1506.36 980.852,1576.6"
       class="Stem"
       style="fill:none;stroke:#000000;stroke-width:2.48000002;stroke-linejoin:bevel"
       transform="matrix(0.11168279,0,0,0.11168279,-21.042495,86.641189)" />
    <polyline
       id="polyline74"
       points="1210.14,973.165 1210.14,1043.4"
       class="Stem"
       style="fill:none;stroke:#000000;stroke-width:2.48000002;stroke-linejoin:bevel"
       transform="matrix(0.11168279,0,0,0.11168279,-21.042495,86.641189)" />
    <polyline
       id="polyline76"
       points="1355.73,439.965 1355.73,510.198"
       class="Stem"
       style="fill:none;stroke:#000000;stroke-width:2.48000002;stroke-linejoin:bevel"
       transform="matrix(0.11168279,0,0,0.11168279,-21.042495,86.641189)" />
    <polyline
       id="polyline78"
       points="2076.91,439.965 2076.91,510.198"
       class="Stem"
       style="fill:none;stroke:#000000;stroke-width:2.48000002;stroke-linejoin:bevel"
       transform="matrix(0.11168279,0,0,0.11168279,-21.042495,86.641189)" />
    <polyline
       id="polyline80"
       points="940.431,973.165 940.431,1043.4"
       class="Stem"
       style="fill:none;stroke:#000000;stroke-width:2.48000002;stroke-linejoin:bevel"
       transform="matrix(0.11168279,0,0,0.11168279,-21.042495,86.641189)" />
    <polyline
       id="polyline82"
       points="2178.86,973.165 2178.86,1043.4"
       class="Stem"
       style="fill:none;stroke:#000000;stroke-width:2.48000002;stroke-linejoin:bevel"
       transform="matrix(0.11168279,0,0,0.11168279,-21.042495,86.641189)" />
    <polyline
       id="polyline84"
       points="357.919,973.165 357.919,1043.4"
       class="Stem"
       style="fill:none;stroke:#000000;stroke-width:2.48000002;stroke-linejoin:bevel"
       transform="matrix(0.11168279,0,0,0.11168279,-21.042495,86.641189)" />
    <polyline
       id="polyline86"
       points="1266.73,1506.36 1266.73,1576.6"
       class="Stem"
       style="fill:none;stroke:#000000;stroke-width:2.48000002;stroke-linejoin:bevel"
       transform="matrix(0.11168279,0,0,0.11168279,-21.042495,86.641189)" />
    <polyline
       id="polyline88"
       points="731.678,1506.36 731.678,1576.6"
       class="Stem"
       style="fill:none;stroke:#000000;stroke-width:2.48000002;stroke-linejoin:bevel"
       transform="matrix(0.11168279,0,0,0.11168279,-21.042495,86.641189)" />
    <polyline
       id="polyline90"
       points="536.773,439.965 536.773,510.198"
       class="Stem"
       style="fill:none;stroke:#000000;stroke-width:2.48000002;stroke-linejoin:bevel"
       transform="matrix(0.11168279,0,0,0.11168279,-21.042495,86.641189)" />
    <polyline
       id="polyline92"
       points="927.9,439.965 927.9,510.198"
       class="Stem"
       style="fill:none;stroke:#000000;stroke-width:2.48000002;stroke-linejoin:bevel"
       transform="matrix(0.11168279,0,0,0.11168279,-21.042495,86.641189)" />
    <polyline
       id="polyline94"
       points="2565.81,439.965 2565.81,510.198"
       class="Stem"
       style="fill:none;stroke:#000000;stroke-width:2.48000002;stroke-linejoin:bevel"
       transform="matrix(0.11168279,0,0,0.11168279,-21.042495,86.641189)" />
    <polyline
       id="polyline96"
       points="732.336,439.965 732.336,510.198"
       class="Stem"
       style="fill:none;stroke:#000000;stroke-width:2.48000002;stroke-linejoin:bevel"
       transform="matrix(0.11168279,0,0,0.11168279,-21.042495,86.641189)" />
    <path
       id="path98"
       d="m 83.848971,195.32725 c 0,0.47605 0.342754,1.00748 1.24119,1.00748 1.151172,0 2.359461,-0.94172 2.359461,-1.91631 0,-0.65436 -0.553936,-1.01961 -1.24118,-1.01961 -1.075002,0 -2.359471,0.90882 -2.359471,1.92844"
       class="Note"
       style="stroke-width:0.11078934" />
    <path
       id="path100"
       d="m 224.51964,193.39881 c -1.07501,0 -2.35948,0.89843 -2.35948,1.92844 0,0.47605 0.34277,1.00748 1.24121,1.00748 1.15116,0 2.35944,-0.94172 2.35944,-1.91631 0,-0.65436 -0.55393,-1.01961 -1.24117,-1.01961 m -1.52855,2.41486 c -0.36527,0 -0.44316,-0.29775 -0.44316,-0.39814 0,-0.54357 1.86092,-1.49567 2.38198,-1.49567 0.26658,0 0.44314,0.1558 0.44314,0.39817 0,0.55393 -1.87301,1.49564 -2.38196,1.49564"
       class="Note"
       style="stroke-width:0.11078934" />
    <path
       id="path102"
       d="m 82.449477,135.77798 c 0,0.47604 0.342754,1.00749 1.241179,1.00749 1.151182,0 2.359471,-0.94171 2.359471,-1.91632 0,-0.65434 -0.553936,-1.0196 -1.24118,-1.0196 -1.075002,0 -2.35947,0.90882 -2.35947,1.92843"
       class="Note"
       style="stroke-width:0.11078934" />
    <path
       id="path104"
       d="m 60.534856,254.87672 c 0,0.47606 0.342752,1.00749 1.241185,1.00749 1.15118,0 2.359469,-0.94171 2.359469,-1.9163 0,-0.65436 -0.553942,-1.01961 -1.241186,-1.01961 -1.074996,0 -2.359468,0.90882 -2.359468,1.92842"
       class="Note"
       style="stroke-width:0.11078934" />
    <path
       id="path106"
       d="m 223.86148,252.90501 c -1.52854,0 -2.07211,0.77553 -2.07211,1.49567 0,0.72013 0.54357,1.49565 2.07211,1.49565 1.52855,0 2.05999,-0.77552 2.05999,-1.49565 0,-0.72014 -0.53144,-1.49567 -2.05999,-1.49567 m 0.0883,2.63645 c -0.30986,0 -0.52105,-0.0883 -0.66474,-0.36525 -0.14367,-0.27698 -0.34274,-0.99711 -0.35486,-1.2862 -0.0225,-0.29948 0.0883,-0.47605 0.35486,-0.56433 0.13331,-0.045 0.30987,-0.0676 0.48817,-0.0676 0.29775,0 0.49856,0.0676 0.65262,0.367 0.1558,0.28735 0.36699,1.00748 0.36699,1.28446 0,0.54357 -0.39988,0.63184 -0.84304,0.63184"
       class="Note"
       style="stroke-width:0.11078934" />
    <path
       id="path108"
       d="m 60.608341,135.77798 c 0,0.47604 0.342759,1.00749 1.241185,1.00749 1.15118,0 2.359477,-0.94171 2.359477,-1.91632 0,-0.65434 -0.553951,-1.0196 -1.241193,-1.0196 -1.074997,0 -2.359469,0.90882 -2.359469,1.92843"
       class="Note"
       style="stroke-width:0.11078934" />
    <path
       id="path110"
       d="m 116.33029,193.39881 c -1.07501,0 -2.35947,0.89843 -2.35947,1.92844 0,0.47605 0.34275,1.00748 1.24118,1.00748 1.15117,0 2.35947,-0.94172 2.35947,-1.91631 0,-0.65436 -0.55394,-1.01961 -1.24118,-1.01961 m -1.52856,2.41486 c -0.36525,0 -0.44315,-0.29775 -0.44315,-0.39814 0,-0.54357 1.86092,-1.49567 2.38196,-1.49567 0.26659,0 0.44317,0.1558 0.44317,0.39817 0,0.55393 -1.87303,1.49564 -2.38198,1.49564"
       class="Note"
       style="stroke-width:0.11078934" />
    <path
       id="path112"
       d="m 132.59017,133.84955 c -1.07499,0 -2.35946,0.89844 -2.35946,1.92843 0,0.47604 0.34276,1.00749 1.24119,1.00749 1.15117,0 2.35947,-0.94171 2.35947,-1.91632 0,-0.65434 -0.55395,-1.0196 -1.2412,-1.0196 m -1.52854,2.41486 c -0.36525,0 -0.44315,-0.29775 -0.44315,-0.39815 0,-0.54355 1.86091,-1.49565 2.38197,-1.49565 0.26659,0 0.44316,0.1558 0.44316,0.39814 0,0.55396 -1.87304,1.49566 -2.38198,1.49566"
       class="Note"
       style="stroke-width:0.11078934" />
    <path
       id="path114"
       d="m 21.151876,193.39881 c -1.074996,0 -2.359468,0.89843 -2.359468,1.92844 0,0.47605 0.34276,1.00748 1.241186,1.00748 1.151179,0 2.359469,-0.94172 2.359469,-1.91631 0,-0.65436 -0.553951,-1.01961 -1.241187,-1.01961 m -1.52855,2.41486 c -0.365257,0 -0.443156,-0.29775 -0.443156,-0.39814 0,-0.54357 1.86092,-1.49567 2.381974,-1.49567 0.266592,0 0.443156,0.1558 0.443156,0.39817 0,0.55393 -1.873027,1.49564 -2.381974,1.49564"
       class="Note"
       style="stroke-width:0.11078934" />
    <path
       id="path116"
       d="m 184.83355,135.77798 c 0,0.47604 0.34275,1.00749 1.24119,1.00749 1.15117,0 2.35945,-0.94171 2.35945,-1.91632 0,-0.65434 -0.55394,-1.0196 -1.24118,-1.0196 -1.07501,0 -2.35946,0.90882 -2.35946,1.92843"
       class="Note"
       style="stroke-width:0.11078934" />
    <path
       id="path118"
       d="m 38.767321,135.77798 c 0,0.47604 0.34276,1.00749 1.241186,1.00749 1.151178,0 2.359468,-0.94171 2.359468,-1.91632 0,-0.65434 -0.553943,-1.0196 -1.241186,-1.0196 -1.074995,0 -2.359468,0.90882 -2.359468,1.92843"
       class="Note"
       style="stroke-width:0.11078934" />
    <path
       id="path120"
       d="m 265.37583,135.77798 c 0,0.47604 0.34275,1.00749 1.24118,1.00749 1.15117,0 2.35947,-0.94171 2.35947,-1.91632 0,-0.65434 -0.55395,-1.0196 -1.24119,-1.0196 -1.075,0 -2.35946,0.90882 -2.35946,1.92843"
       class="Note"
       style="stroke-width:0.11078934" />
    <path
       id="path122"
       d="m 120.29094,254.87672 c 0,0.47606 0.34276,1.00749 1.24119,1.00749 1.15117,0 2.35947,-0.94171 2.35947,-1.9163 0,-0.65436 -0.55394,-1.01961 -1.24119,-1.01961 -1.075,0 -2.35947,0.90882 -2.35947,1.92842"
       class="Note"
       style="stroke-width:0.11078934" />
    <path
       id="path124"
       d="m 210.77411,135.77798 c 0,0.47604 0.34276,1.00749 1.24118,1.00749 1.15117,0 2.35947,-0.94171 2.35947,-1.91632 0,-0.65434 -0.55394,-1.0196 -1.24118,-1.0196 -1.07501,0 -2.35947,0.90882 -2.35947,1.92843"
       class="Note"
       style="stroke-width:0.11078934" />
    <path
       id="path126"
       d="m 88.363303,254.87672 c 0,0.47606 0.342754,1.00749 1.24118,1.00749 1.151182,0 2.359481,-0.94171 2.359481,-1.9163 0,-0.65436 -0.553957,-1.01961 -1.24119,-1.01961 -1.075002,0 -2.359471,0.90882 -2.359471,1.92842"
       class="Note"
       style="stroke-width:0.11078934" />
    <path
       id="path128"
       d="m 25.717521,138.04915 c 0,-1.66183 -1.185783,-2.79223 -2.802623,-2.79223 -0.110786,-0.66473 -0.211191,-1.32948 -0.309855,-1.9388 1.163286,-1.23081 1.982081,-2.62607 1.982081,-4.3762 0,-1.01959 -0.309863,-1.82802 -0.49855,-2.22786 -0.264852,-0.56435 -0.586838,-0.96431 -0.775523,-0.96431 -0.07617,0 -0.431033,0.14547 -0.785915,0.57654 -0.720131,0.84301 -0.919199,2.24864 -0.919199,3.17997 0,0.59896 0.0554,1.14078 0.244079,2.39409 -0.01211,0 -0.588571,0.58684 -0.820535,0.78591 -1.00922,0.93132 -2.404472,2.28156 -2.404472,4.48697 0,2.08249 1.805519,3.71144 3.867246,3.71144 0.320247,0 0.619719,-0.0328 0.886312,-0.0779 0.199068,1.06461 0.332368,1.84013 0.332368,2.42697 0,1.1529 -0.598961,1.76226 -1.706853,1.76226 -0.276976,0 -0.508933,-0.0555 -0.521055,-0.0675 -0.02077,0 -0.04329,-0.0103 -0.04329,-0.0208 0,-0.0225 0.02253,-0.0346 0.0554,-0.045 0.521055,-0.0779 1.040378,-0.52105 1.040378,-1.22906 0,-0.59895 -0.453546,-1.2308 -1.284464,-1.2308 -0.765133,0 -1.263691,0.63185 -1.263691,1.36237 0,0.73224 0.553951,1.69646 2.049606,1.69646 1.42987,0 2.127496,-0.81016 2.127496,-2.22791 0,-0.43104 -0.06574,-0.92959 -0.176563,-1.56143 -0.03288,-0.22158 -0.08829,-0.56608 -0.166189,-0.98673 1.085388,-0.36526 1.8938,-1.48526 1.8938,-2.63644 m -3.411968,-9.07434 c 0.110796,-0.44315 0.609344,-1.60643 1.1858,-1.60643 0.166188,0 0.443163,0.53142 0.443163,1.30694 0,1.14079 -0.863813,2.00634 -1.628963,2.76974 -0.06574,-0.44316 -0.121169,-0.88632 -0.121169,-1.33985 0,-0.42065 0.0433,-0.78764 0.121169,-1.1304 m 0.332369,11.45631 c -1.583928,0 -2.935909,-1.1079 -2.935909,-2.78185 0,-1.35025 0.964218,-2.55855 1.92842,-3.41196 0.186962,-0.15581 0.365265,-0.32199 0.531453,-0.47605 0.09866,0.59722 0.188686,1.10789 0.254463,1.57354 -1.009214,0.28738 -1.694725,1.36237 -1.694725,2.39237 0,0.78763 0.609337,1.85052 1.495656,1.85052 0.08827,0 0.188685,-0.045 0.188685,-0.15579 0,-0.0883 -0.100416,-0.15407 -0.244079,-0.24236 -0.43278,-0.25619 -0.676859,-0.55394 -0.676859,-1.08712 0,-0.67512 0.510671,-1.21869 1.152895,-1.37274 l 0.642233,3.63354 c -0.221575,0.0555 -0.420652,0.0779 -0.642233,0.0779 m 1.1079,-0.21119 c -0.231964,-1.31735 -0.531437,-3.0796 -0.609342,-3.56777 1.118283,0 1.596058,0.77553 1.69473,1.30871 0.0121,0.0883 0.03288,0.20946 0.03288,0.34275 0,0.79803 -0.332369,1.60645 -1.118283,1.91631 m -0.432766,5.80605 c 0,-0.41026 -0.375647,-0.58684 -0.740904,-0.58684 -0.46566,0 -0.920938,0.28737 -0.920938,0.78592 0,0.2112 0.07789,0.36699 0.244079,0.52105 -0.287351,0.1108 -0.586831,0.33237 -0.586831,0.67685 0,0.36527 0.332362,0.60934 0.820535,0.60934 0.597214,0 1.017872,-0.33236 1.017872,-0.81014 0,-0.25447 -0.110787,-0.46394 -0.309863,-0.60934 0.321985,-0.14369 0.47605,-0.32026 0.47605,-0.58684 m -0.68551,0.44315 c -0.16618,-0.0883 -0.211199,-0.11078 -0.244079,-0.13329 l -0.01211,-0.0104 c -0.176578,-0.1004 -0.231971,-0.17831 -0.231971,-0.30987 0,-0.2008 0.155805,-0.34449 0.377386,-0.34449 0.221575,0 0.342744,0.13329 0.342744,0.36526 0,0.17831 -0.06574,0.29948 -0.231956,0.43276 m -0.422383,1.32948 c -0.242356,0 -0.408543,-0.15407 -0.408543,-0.38777 0,-0.20945 0.09867,-0.39814 0.287358,-0.50892 0.04498,0.0225 0.0554,0.0328 0.08829,0.0433 0.133292,0.0676 0.133292,0.0676 0.155806,0.09 0.221582,0.12116 0.299472,0.23196 0.299472,0.38775 0,0.20947 -0.178303,0.37564 -0.422382,0.37564"
       class="Clef"
       style="stroke-width:0.11078934" />
    <path
       id="path130"
       d="m 11.868858,257.1479 c 0,-1.66183 -1.185791,-2.79223 -2.8026235,-2.79223 -0.110787,-0.66474 -0.211192,-1.32947 -0.309855,-1.93882 1.163286,-1.2308 1.9820805,-2.62605 1.9820805,-4.37617 0,-1.01962 -0.309864,-1.82803 -0.498549,-2.22786 -0.2648525,-0.56436 -0.5868385,-0.9643 -0.7755235,-0.9643 -0.07617,0 -0.431041,0.14545 -0.785915,0.57654 -0.720131,0.84299 -0.9192,2.24863 -0.9192,3.17994 0,0.59897 0.0554,1.1408 0.24408,2.3941 -0.01211,0 -0.58857,0.58684 -0.820535,0.78591 -1.0092206,0.93132 -2.4044718,2.28157 -2.4044718,4.48696 0,2.0825 1.8055182,3.71145 3.8672458,3.71145 0.32024,0 0.619719,-0.0328 0.886311,-0.0779 0.199061,1.06462 0.332369,1.84014 0.332369,2.42699 0,1.15289 -0.598961,1.76223 -1.706854,1.76223 -0.276974,0 -0.508931,-0.0555 -0.521054,-0.0675 -0.02077,0 -0.04329,-0.0104 -0.04329,-0.0208 0,-0.0225 0.02253,-0.0346 0.0554,-0.045 0.521053,-0.0779 1.040376,-0.52105 1.040376,-1.22906 0,-0.59896 -0.453553,-1.2308 -1.284471,-1.2308 -0.7651334,0 -1.2636822,0.63184 -1.2636822,1.36236 0,0.73225 0.5539419,1.69646 2.0496052,1.69646 1.42987,0 2.1274945,-0.81014 2.1274945,-2.2279 0,-0.43104 -0.06574,-0.92959 -0.176563,-1.56144 -0.03287,-0.22157 -0.08829,-0.56606 -0.1661875,-0.98672 1.0853795,-0.36525 1.8937985,-1.48527 1.8937985,-2.63644 m -3.4119675,-9.07434 c 0.110786,-0.44315 0.609342,-1.60645 1.185799,-1.60645 0.166187,0 0.4431625,0.53144 0.4431625,1.30697 0,1.14078 -0.8638135,2.00633 -1.6289615,2.76973 -0.06574,-0.44316 -0.12117,-0.88631 -0.12117,-1.33984 0,-0.42066 0.04329,-0.78766 0.12117,-1.13041 m 0.332368,11.4563 c -1.583937,0 -2.9359093,-1.10789 -2.9359093,-2.78184 0,-1.35025 0.9642098,-2.55854 1.9284203,-3.41196 0.186961,-0.15581 0.365265,-0.32198 0.531452,-0.47605 0.09867,0.59721 0.188686,1.1079 0.254455,1.57356 -1.009213,0.28734 -1.6947234,1.36236 -1.6947234,2.39235 0,0.78765 0.6093434,1.85053 1.4956614,1.85053 0.08827,0 0.188687,-0.045 0.188687,-0.1558 0,-0.0883 -0.100416,-0.15407 -0.24408,-0.24235 -0.43278,-0.2562 -0.67686,-0.55394 -0.67686,-1.08711 0,-0.67514 0.510673,-1.2187 1.152897,-1.37275 l 0.642232,3.63353 c -0.221574,0.0555 -0.42065,0.0779 -0.642232,0.0779 m 1.107893,-0.21119 c -0.231957,-1.31736 -0.531438,-3.0796 -0.609336,-3.56777 1.1182815,0 1.5960575,0.77553 1.6947285,1.3087 0.01211,0.0883 0.03288,0.20947 0.03288,0.34276 0,0.79803 -0.332369,1.60644 -1.1182825,1.91631 m -0.432765,5.80606 c 0,-0.41026 -0.375647,-0.58684 -0.740912,-0.58684 -0.465653,0 -0.920931,0.28736 -0.920931,0.7859 0,0.2112 0.0779,0.367 0.244079,0.52106 -0.28735,0.11079 -0.586839,0.33237 -0.586839,0.67686 0,0.36526 0.332369,0.60934 0.820544,0.60934 0.597213,0 1.017871,-0.33237 1.017871,-0.81015 0,-0.25447 -0.110788,-0.46393 -0.309871,-0.60934 0.321993,-0.14368 0.476059,-0.32025 0.476059,-0.58683 m -0.685511,0.44315 c -0.166179,-0.0884 -0.211198,-0.11083 -0.244078,-0.13334 l -0.01211,-0.0104 c -0.176578,-0.1004 -0.231971,-0.1783 -0.231971,-0.30987 0,-0.20081 0.155805,-0.34447 0.377379,-0.34447 0.221581,0 0.342752,0.13328 0.342752,0.36526 0,0.17828 -0.06574,0.29947 -0.231958,0.43277 m -0.422375,1.32946 c -0.242356,0 -0.408544,-0.15407 -0.408544,-0.38776 0,-0.20947 0.09867,-0.39816 0.287358,-0.50895 0.04498,0.0225 0.0554,0.0328 0.08829,0.0433 0.133285,0.0675 0.133285,0.0675 0.155805,0.09 0.221574,0.12118 0.299472,0.23197 0.299472,0.38777 0,0.20946 -0.178302,0.37564 -0.422381,0.37564"
       class="Clef"
       style="stroke-width:0.11078934" />
    <path
       id="path132"
       d="m 11.868858,197.59842 c 0,-1.66185 -1.185791,-2.79224 -2.8026235,-2.79224 -0.110787,-0.66473 -0.211192,-1.32946 -0.309855,-1.93882 1.163286,-1.2308 1.9820805,-2.62605 1.9820805,-4.37617 0,-1.0196 -0.309864,-1.82803 -0.498549,-2.22786 -0.2648525,-0.56436 -0.5868385,-0.96431 -0.7755235,-0.96431 -0.07617,0 -0.431041,0.14546 -0.785915,0.57655 -0.720131,0.84299 -0.9192,2.24863 -0.9192,3.17994 0,0.59898 0.0554,1.1408 0.24408,2.3941 -0.01211,0 -0.58857,0.58684 -0.820535,0.78591 -1.0092206,0.93133 -2.4044718,2.28157 -2.4044718,4.48697 0,2.08251 1.8055182,3.71145 3.8672458,3.71145 0.32024,0 0.619719,-0.0328 0.886311,-0.0779 0.199061,1.06461 0.332369,1.84015 0.332369,2.42698 0,1.15292 -0.598961,1.76225 -1.706854,1.76225 -0.276974,0 -0.508931,-0.0555 -0.521054,-0.0676 -0.02077,0 -0.04329,-0.0104 -0.04329,-0.0208 0,-0.0225 0.02253,-0.0346 0.0554,-0.0451 0.521053,-0.0779 1.040376,-0.52105 1.040376,-1.22907 0,-0.59895 -0.453553,-1.23079 -1.284471,-1.23079 -0.7651334,0 -1.2636822,0.63184 -1.2636822,1.36236 0,0.73226 0.5539419,1.69647 2.0496052,1.69647 1.42987,0 2.1274945,-0.81016 2.1274945,-2.22791 0,-0.43104 -0.06574,-0.92959 -0.176563,-1.56144 -0.03287,-0.22156 -0.08829,-0.56606 -0.1661875,-0.98672 1.0853795,-0.36525 1.8937985,-1.48527 1.8937985,-2.63644 m -3.4119645,-9.07427 c 0.110786,-0.44315 0.609342,-1.60644 1.185798,-1.60644 0.166188,0 0.4431625,0.53144 0.4431625,1.30696 0,1.14079 -0.8638125,2.00633 -1.6289605,2.76974 -0.06574,-0.44317 -0.121171,-0.88631 -0.121171,-1.33986 0,-0.42066 0.04329,-0.78765 0.121171,-1.1304 m 0.332367,11.45631 c -1.583936,0 -2.9359086,-1.10789 -2.9359086,-2.78185 0,-1.35025 0.9642098,-2.55854 1.9284206,-3.41196 0.186961,-0.1558 0.365265,-0.32199 0.531452,-0.47605 0.09867,0.59722 0.188686,1.10789 0.254455,1.57355 -1.009213,0.28736 -1.6947237,1.36237 -1.6947237,2.39236 0,0.78764 0.6093427,1.85053 1.4956617,1.85053 0.08827,0 0.188687,-0.045 0.188687,-0.15579 0,-0.0883 -0.100416,-0.15407 -0.24408,-0.24235 -0.43278,-0.25622 -0.67686,-0.55396 -0.67686,-1.08713 0,-0.67512 0.510673,-1.21869 1.152896,-1.37275 l 0.642232,3.63353 c -0.221573,0.0555 -0.420649,0.0779 -0.642232,0.0779 m 1.107893,-0.21111 c -0.231956,-1.31738 -0.531437,-3.07963 -0.609336,-3.56779 1.1182825,0 1.5960585,0.77553 1.6947295,1.3087 0.01211,0.0883 0.03288,0.20947 0.03288,0.34275 0,0.79803 -0.33237,1.60645 -1.1182835,1.91632 m -0.432765,5.80605 c 0,-0.41027 -0.375647,-0.58683 -0.740911,-0.58683 -0.465653,0 -0.920932,0.28735 -0.920932,0.7859 0,0.21121 0.0779,0.36699 0.24408,0.52106 -0.287351,0.11079 -0.586839,0.33237 -0.586839,0.67685 0,0.36526 0.332369,0.60935 0.820543,0.60935 0.597213,0 1.017872,-0.33238 1.017872,-0.81015 0,-0.25447 -0.110788,-0.46394 -0.309872,-0.60934 0.321994,-0.14369 0.476059,-0.32026 0.476059,-0.58684 m -0.68551,0.44315 c -0.16618,-0.0883 -0.211199,-0.11079 -0.244079,-0.13328 l -0.01211,-0.0104 c -0.176579,-0.1004 -0.231972,-0.17832 -0.231972,-0.30986 0,-0.20082 0.155805,-0.34451 0.37738,-0.34451 0.221581,0 0.342752,0.1333 0.342752,0.36527 0,0.1783 -0.06574,0.29948 -0.231958,0.43276 m -0.422382,1.32948 c -0.242355,0 -0.408544,-0.15407 -0.408544,-0.38777 0,-0.20945 0.09867,-0.39814 0.287358,-0.50893 0.04498,0.0225 0.0554,0.0328 0.08829,0.0433 0.133286,0.0676 0.133286,0.0676 0.155805,0.09 0.221575,0.12117 0.299473,0.23196 0.299473,0.38775 0,0.20945 -0.178302,0.37563 -0.422382,0.37563"
       class="Clef"
       style="stroke-width:0.11078934" />
    <path
       id="path134"
       d="m 30.635536,133.94996 v 0.8188 h -0.919208 c -0.07789,0 -0.155797,0.0676 -0.155797,0.15578 v 0.21121 c 0,0.0883 0.0779,0.15406 0.155797,0.15406 h 3.356575 c 0.09001,0 0.155789,-0.0658 0.155789,-0.15406 v -0.21121 c 0,-0.0883 -0.06574,-0.15578 -0.155789,-0.15578 H 32.08792 v -0.8188 h 0.984983 c 0.09001,0 0.155789,-0.0779 0.155789,-0.16618 v -0.2112 c 0,-0.0779 -0.06574,-0.15407 -0.155789,-0.15407 H 32.08792 v -1.76225 c 0,-0.0657 -0.03288,-0.12117 -0.0883,-0.14367 l -0.133286,-0.0675 c -0.02253,-0.0103 -0.0554,-0.0208 -0.0779,-0.0208 -0.03287,0.0104 -0.07789,0.0208 -0.100395,0.0433 l -1.007497,0.91919 c -0.03287,0.0346 -0.04498,0.0779 -0.04498,0.12291 v 0.90883 h -1.274081 c 0,0 1.230809,-1.32947 2.537764,-3.08134 0.04505,-0.0555 0.0554,-0.1108 0.0554,-0.15407 0,-0.0554 -0.02253,-0.10039 -0.03288,-0.11079 l -0.244081,-0.2441 c -0.02253,-0.0225 -0.06574,-0.0451 -0.110794,-0.0451 -0.06574,0 -1.563156,0 -1.639323,0 -0.09002,0 -0.145415,0.0675 -0.155806,0.13331 0,0 -0.0554,0.82053 -0.342759,1.71723 -0.289082,0.89844 -0.62145,1.45238 -0.908808,1.86092 0,0 -0.03288,0.0554 -0.03288,0.1229 0,0.0225 0,0.0433 0.01042,0.0658 0.04498,0.0779 0.110787,0.19907 0.110787,0.19907 0,0 0.02253,0.0675 0.121178,0.0675 h 1.90593"
       class="TimeSig"
       style="stroke-width:0.11078934" />
    <path
       id="path136"
       d="m 30.635536,139.48941 v 0.81882 h -0.919208 c -0.07789,0 -0.155797,0.0676 -0.155797,0.15579 v 0.2112 c 0,0.0883 0.0779,0.15406 0.155797,0.15406 h 3.356575 c 0.09001,0 0.155789,-0.0657 0.155789,-0.15406 v -0.2112 c 0,-0.0883 -0.06574,-0.15579 -0.155789,-0.15579 H 32.08792 v -0.81882 h 0.984983 c 0.09001,0 0.155789,-0.0779 0.155789,-0.16617 v -0.2112 c 0,-0.0779 -0.06574,-0.15406 -0.155789,-0.15406 H 32.08792 v -1.76225 c 0,-0.0658 -0.03288,-0.12116 -0.0883,-0.14367 l -0.133286,-0.0675 c -0.02253,-0.0103 -0.0554,-0.0209 -0.0779,-0.0209 -0.03287,0.0104 -0.07789,0.0209 -0.100395,0.0433 l -1.007497,0.91921 c -0.03287,0.0346 -0.04498,0.0779 -0.04498,0.12291 v 0.90883 h -1.274081 c 0,0 1.230809,-1.32948 2.537764,-3.08135 0.04505,-0.0555 0.0554,-0.11078 0.0554,-0.15405 0,-0.0555 -0.02253,-0.10039 -0.03288,-0.1108 l -0.244087,-0.24408 c -0.02253,-0.0225 -0.06574,-0.045 -0.110794,-0.045 -0.06574,0 -1.563156,0 -1.639323,0 -0.09002,0 -0.145415,0.0675 -0.155806,0.13333 0,0 -0.0554,0.82051 -0.342759,1.71721 -0.289082,0.89844 -0.62145,1.45239 -0.908808,1.86092 0,0 -0.03288,0.0555 -0.03288,0.12291 0,0.0225 0,0.0433 0.01042,0.0657 0.04498,0.0779 0.110787,0.19908 0.110787,0.19908 0,0 0.02253,0.0675 0.121178,0.0675 h 1.90593"
       class="TimeSig"
       style="stroke-width:0.11078934" />
    <path
       id="path138"
       d="m 153.00506,194.75079 c 0,0.15581 0,0.15581 0.15581,0.15581 h 3.29078 c 0.15407,0 0.15407,0 0.15407,-0.15581 v -1.19618 c 0,-0.1558 0,-0.1558 -0.15407,-0.1558 h -3.29078 c -0.15581,0 -0.15581,0 -0.15581,0.1558 v 1.19618"
       class="Rest"
       style="stroke-width:0.11078934" />
    <path
       id="path140"
       d="m 60.374477,196.7 c -0.01034,-0.0103 -0.03287,-0.0328 -0.06574,-0.0761 l -1.27408,-1.57357 c -0.01211,-0.0122 -0.02253,-0.045 -0.02253,-0.0676 0,-0.0328 0.01042,-0.0761 0.02253,-0.0986 l 1.128666,-1.70684 c 0.0121,-0.0225 0.02253,-0.0554 0.02253,-0.0779 v -0.0987 c 0,-0.0328 -0.01034,-0.0675 -0.03288,-0.0883 l -1.795134,-2.42697 c 0,0 -0.0433,-0.0676 -0.110787,-0.0676 -0.03287,0 -0.0554,0 -0.08828,0.0347 -0.04497,0.0328 -0.0554,0.0761 -0.0554,0.11078 0,0.0657 0.03287,0.12118 0.03287,0.12118 l 0.843047,1.15289 c 0.02077,0.0328 0.03287,0.0761 0.03287,0.13158 0,0.045 -0.0121,0.1004 -0.03287,0.13328 l -1.120016,1.70686 c -0.01042,0.0225 -0.02253,0.0657 -0.02253,0.0883 v 0.10039 c 0,0.0328 0.01211,0.0657 0.03463,0.0883 l 1.239453,1.54066 c -0.0433,-0.0122 -0.143675,-0.0346 -0.276976,-0.0346 -0.564332,0 -1.007488,0.46565 -1.007488,1.03174 0,0.15406 0.03287,0.30985 0.121178,0.43103 0.233696,0.35486 1.064613,1.40737 1.064613,1.40737 0,0 0.0554,0.0675 0.1333,0.0675 0.02077,0 0.0433,0 0.06574,-0.0225 0.0554,-0.045 0.0779,-0.0883 0.0779,-0.1333 0,-0.045 -0.02253,-0.0779 -0.03288,-0.1004 -0.03463,-0.0555 -0.387763,-0.69762 -0.387763,-0.69762 0,0 -0.07791,-0.1558 -0.07791,-0.35488 0,-0.35486 0.264861,-0.64223 0.619734,-0.64223 0.143683,0 0.266585,0.045 0.354868,0.1004 l 0.432779,0.27696 c 0,0 0.04329,0.0209 0.08827,0.0209 0.0433,0 0.07791,-0.0104 0.110788,-0.0554 0.02253,-0.0328 0.03288,-0.0657 0.03288,-0.0987 0,-0.0328 -0.01035,-0.0554 -0.03288,-0.0883 l -0.02253,-0.0346"
       class="Rest"
       style="stroke-width:0.11078934" />
    <path
       id="path142"
       d="m 198.68623,196.7 c -0.0104,-0.0103 -0.0328,-0.0328 -0.0657,-0.0761 l -1.27408,-1.57357 c -0.0122,-0.0122 -0.0225,-0.045 -0.0225,-0.0676 0,-0.0328 0.0104,-0.0761 0.0225,-0.0986 l 1.12867,-1.70684 c 0.0122,-0.0225 0.0225,-0.0554 0.0225,-0.0779 v -0.0987 c 0,-0.0328 -0.0104,-0.0675 -0.0328,-0.0883 l -1.79514,-2.42697 c 0,0 -0.0433,-0.0676 -0.11077,-0.0676 -0.0328,0 -0.0555,0 -0.0883,0.0347 -0.045,0.0328 -0.0554,0.0761 -0.0554,0.11078 0,0.0657 0.0328,0.12118 0.0328,0.12118 l 0.84304,1.15289 c 0.0209,0.0328 0.0328,0.0761 0.0328,0.13158 0,0.045 -0.0122,0.1004 -0.0328,0.13328 l -1.12001,1.70686 c -0.0103,0.0225 -0.0225,0.0657 -0.0225,0.0883 v 0.10039 c 0,0.0328 0.0122,0.0657 0.0346,0.0883 l 1.23945,1.54066 c -0.0433,-0.0122 -0.14368,-0.0346 -0.27697,-0.0346 -0.56434,0 -1.0075,0.46565 -1.0075,1.03174 0,0.15406 0.0328,0.30985 0.12117,0.43103 0.23371,0.35486 1.06463,1.40737 1.06463,1.40737 0,0 0.0555,0.0675 0.1333,0.0675 0.0208,0 0.0433,0 0.0657,-0.0225 0.0555,-0.045 0.0779,-0.0883 0.0779,-0.1333 0,-0.045 -0.0225,-0.0779 -0.0328,-0.1004 -0.0346,-0.0555 -0.38776,-0.69762 -0.38776,-0.69762 0,0 -0.0779,-0.1558 -0.0779,-0.35488 0,-0.35486 0.26486,-0.64223 0.61973,-0.64223 0.14367,0 0.26658,0.045 0.35487,0.1004 l 0.43277,0.27696 c 0,0 0.0433,0.0209 0.0883,0.0209 0.0433,0 0.0779,-0.0104 0.11078,-0.0554 0.0225,-0.0328 0.0328,-0.0657 0.0328,-0.0987 0,-0.0328 -0.0104,-0.0554 -0.0328,-0.0883 l -0.0225,-0.0346"
       class="Rest"
       style="stroke-width:0.11078934" />
    <path
       id="path144"
       d="m 263.74257,196.7 c -0.0104,-0.0103 -0.0328,-0.0328 -0.0657,-0.0761 l -1.27408,-1.57357 c -0.0122,-0.0122 -0.0225,-0.045 -0.0225,-0.0676 0,-0.0328 0.0103,-0.0761 0.0225,-0.0986 l 1.12866,-1.70684 c 0.0122,-0.0225 0.0225,-0.0554 0.0225,-0.0779 v -0.0987 c 0,-0.0328 -0.0104,-0.0675 -0.0328,-0.0883 l -1.79514,-2.42697 c 0,0 -0.0433,-0.0676 -0.11079,-0.0676 -0.0328,0 -0.0554,0 -0.0883,0.0347 -0.045,0.0328 -0.0555,0.0761 -0.0555,0.11078 0,0.0657 0.0328,0.12118 0.0328,0.12118 l 0.84306,1.15289 c 0.0207,0.0328 0.0328,0.0761 0.0328,0.13158 0,0.045 -0.0122,0.1004 -0.0328,0.13328 l -1.12002,1.70686 c -0.0104,0.0225 -0.0225,0.0657 -0.0225,0.0883 v 0.10039 c 0,0.0328 0.0122,0.0657 0.0346,0.0883 l 1.23946,1.54066 c -0.0433,-0.0122 -0.14368,-0.0346 -0.27696,-0.0346 -0.56434,0 -1.00751,0.46565 -1.00751,1.03174 0,0.15406 0.0328,0.30985 0.12119,0.43103 0.23368,0.35486 1.06461,1.40737 1.06461,1.40737 0,0 0.0555,0.0675 0.13329,0.0675 0.0209,0 0.0433,0 0.0657,-0.0225 0.0554,-0.045 0.0779,-0.0883 0.0779,-0.1333 0,-0.045 -0.0225,-0.0779 -0.0328,-0.1004 -0.0346,-0.0555 -0.38776,-0.69762 -0.38776,-0.69762 0,0 -0.0779,-0.1558 -0.0779,-0.35488 0,-0.35486 0.26485,-0.64223 0.61972,-0.64223 0.14369,0 0.2666,0.045 0.35487,0.1004 l 0.43278,0.27696 c 0,0 0.0433,0.0209 0.0883,0.0209 0.0433,0 0.0779,-0.0104 0.11079,-0.0554 0.0225,-0.0328 0.0328,-0.0657 0.0328,-0.0987 0,-0.0328 -0.0104,-0.0554 -0.0328,-0.0883 l -0.0225,-0.0346"
       class="Rest"
       style="stroke-width:0.11078934" />
    <path
       id="path146"
       d="m 232.61479,135.20153 c 0,0.15579 0,0.15579 0.1558,0.15579 h 3.29079 c 0.15406,0 0.15406,0 0.15406,-0.15579 v -1.19618 c 0,-0.1558 0,-0.1558 -0.15406,-0.1558 h -3.29079 c -0.1558,0 -0.1558,0 -0.1558,0.1558 v 1.19618"
       class="Rest"
       style="stroke-width:0.11078934" />
    <path
       id="path148"
       d="m 150.66711,256.24948 c -0.0104,-0.0104 -0.0329,-0.0329 -0.0657,-0.0761 l -1.27407,-1.57355 c -0.0122,-0.0122 -0.0225,-0.045 -0.0225,-0.0675 0,-0.0328 0.0104,-0.0761 0.0225,-0.0986 l 1.12867,-1.70685 c 0.0122,-0.0225 0.0225,-0.0554 0.0225,-0.0779 v -0.0986 c 0,-0.0328 -0.0103,-0.0676 -0.0328,-0.0883 l -1.79513,-2.42697 c 0,0 -0.0433,-0.0675 -0.11079,-0.0675 -0.0328,0 -0.0555,0 -0.0883,0.0346 -0.045,0.0328 -0.0554,0.0761 -0.0554,0.11079 0,0.0657 0.0329,0.12118 0.0329,0.12118 l 0.84304,1.1529 c 0.0208,0.0328 0.0329,0.0761 0.0329,0.13156 0,0.045 -0.0122,0.10039 -0.0329,0.13329 l -1.12002,1.70684 c -0.0104,0.0225 -0.0225,0.0657 -0.0225,0.0883 v 0.10039 c 0,0.0328 0.0122,0.0657 0.0346,0.0883 l 1.23945,1.54067 c -0.0433,-0.0122 -0.14368,-0.0346 -0.27697,-0.0346 -0.56434,0 -1.00749,0.46566 -1.00749,1.03171 0,0.15407 0.0328,0.30987 0.12117,0.43105 0.2337,0.35487 1.06462,1.40737 1.06462,1.40737 0,0 0.0555,0.0674 0.1333,0.0674 0.0209,0 0.0433,0 0.0657,-0.0225 0.0555,-0.045 0.0779,-0.0883 0.0779,-0.13331 0,-0.045 -0.0225,-0.0779 -0.0328,-0.10039 -0.0346,-0.0555 -0.38777,-0.69764 -0.38777,-0.69764 0,0 -0.0779,-0.15578 -0.0779,-0.35486 0,-0.35488 0.26485,-0.64223 0.61973,-0.64223 0.14367,0 0.26658,0.045 0.35486,0.10039 l 0.43278,0.27698 c 0,0 0.0433,0.0209 0.0883,0.0209 0.0433,0 0.0779,-0.0104 0.11078,-0.0555 0.0225,-0.0328 0.0328,-0.0657 0.0328,-0.0986 0,-0.0329 -0.0104,-0.0555 -0.0328,-0.0883 l -0.0225,-0.0346"
       class="Rest"
       style="stroke-width:0.11078934" />
    <path
       id="path150"
       d="m 175.94806,254.30028 c 0,0.1558 0,0.1558 0.15579,0.1558 h 3.29079 c 0.15408,0 0.15408,0 0.15408,-0.1558 v -1.19618 c 0,-0.1558 0,-0.1558 -0.15408,-0.1558 h -3.29079 c -0.15579,0 -0.15579,0 -0.15579,0.1558 v 1.19618"
       class="Rest"
       style="stroke-width:0.11078934" />
    <path
       id="path152"
       d="m 165.54101,137.15073 c -0.0104,-0.0104 -0.0328,-0.0328 -0.0657,-0.0761 l -1.27408,-1.57357 c -0.0122,-0.0122 -0.0225,-0.045 -0.0225,-0.0675 0,-0.0328 0.0104,-0.0761 0.0225,-0.0986 l 1.12867,-1.70685 c 0.0122,-0.0225 0.0225,-0.0555 0.0225,-0.0779 v -0.0986 c 0,-0.0328 -0.0104,-0.0675 -0.0328,-0.0883 l -1.79513,-2.42699 c 0,0 -0.0433,-0.0674 -0.1108,-0.0674 -0.0328,0 -0.0554,0 -0.0883,0.0346 -0.045,0.0328 -0.0554,0.0761 -0.0554,0.11078 0,0.0658 0.0328,0.12119 0.0328,0.12119 l 0.84305,1.15291 c 0.0208,0.0328 0.0328,0.0761 0.0328,0.13154 0,0.045 -0.0122,0.1004 -0.0328,0.13331 l -1.12002,1.70684 c -0.0104,0.0225 -0.0225,0.0658 -0.0225,0.0883 v 0.1004 c 0,0.0328 0.0122,0.0658 0.0346,0.0883 l 1.23945,1.54066 c -0.0433,-0.0122 -0.14368,-0.0346 -0.27697,-0.0346 -0.56433,0 -1.00749,0.46566 -1.00749,1.03173 0,0.15406 0.0328,0.30985 0.12118,0.43104 0.2337,0.35486 1.06461,1.40736 1.06461,1.40736 0,0 0.0555,0.0675 0.13329,0.0675 0.0208,0 0.0433,0 0.0657,-0.0225 0.0554,-0.045 0.0779,-0.0883 0.0779,-0.13329 0,-0.045 -0.0225,-0.0779 -0.0328,-0.10039 -0.0346,-0.0555 -0.38776,-0.69764 -0.38776,-0.69764 0,0 -0.0779,-0.15579 -0.0779,-0.35486 0,-0.35488 0.26486,-0.64223 0.61973,-0.64223 0.14368,0 0.26659,0.045 0.35488,0.10039 l 0.43276,0.27698 c 0,0 0.0433,0.0208 0.0883,0.0208 0.0433,0 0.0779,-0.0103 0.11079,-0.0554 0.0225,-0.0328 0.0328,-0.0658 0.0328,-0.0986 0,-0.0328 -0.0104,-0.0555 -0.0328,-0.0883 l -0.0225,-0.0346"
       class="Rest"
       style="stroke-width:0.11078934" />
    <path
       id="path154"
       d="m 106.83831,137.15073 c -0.0104,-0.0104 -0.0328,-0.0328 -0.0657,-0.0761 l -1.27408,-1.57357 c -0.0122,-0.0122 -0.0225,-0.045 -0.0225,-0.0675 0,-0.0328 0.0104,-0.0761 0.0225,-0.0986 l 1.12867,-1.70685 c 0.0122,-0.0225 0.0225,-0.0555 0.0225,-0.0779 v -0.0986 c 0,-0.0328 -0.0104,-0.0675 -0.0328,-0.0883 l -1.79514,-2.42699 c 0,0 -0.0433,-0.0674 -0.11078,-0.0674 -0.0328,0 -0.0555,0 -0.0883,0.0346 -0.045,0.0328 -0.0555,0.0761 -0.0555,0.11078 0,0.0658 0.0329,0.12119 0.0329,0.12119 l 0.84303,1.15291 c 0.0209,0.0328 0.0328,0.0761 0.0328,0.13154 0,0.045 -0.0122,0.1004 -0.0328,0.13331 l -1.12001,1.70684 c -0.0104,0.0225 -0.0225,0.0658 -0.0225,0.0883 v 0.1004 c 0,0.0328 0.0122,0.0658 0.0346,0.0883 l 1.23945,1.54066 c -0.0433,-0.0122 -0.14369,-0.0346 -0.27698,-0.0346 -0.56433,0 -1.00748,0.46566 -1.00748,1.03173 0,0.15406 0.0328,0.30985 0.12118,0.43104 0.23368,0.35486 1.0646,1.40736 1.0646,1.40736 0,0 0.0555,0.0675 0.13331,0.0675 0.0208,0 0.0433,0 0.0657,-0.0225 0.0554,-0.045 0.0779,-0.0883 0.0779,-0.13329 0,-0.045 -0.0225,-0.0779 -0.0328,-0.10039 -0.0346,-0.0555 -0.38776,-0.69764 -0.38776,-0.69764 0,0 -0.0779,-0.15579 -0.0779,-0.35486 0,-0.35488 0.26486,-0.64223 0.61972,-0.64223 0.14368,0 0.26659,0.045 0.35487,0.10039 l 0.43277,0.27698 c 0,0 0.0433,0.0208 0.0883,0.0208 0.0433,0 0.0779,-0.0103 0.11079,-0.0554 0.0225,-0.0328 0.0328,-0.0658 0.0328,-0.0986 0,-0.0328 -0.0104,-0.0555 -0.0328,-0.0883 l -0.0225,-0.0346"
       class="Rest"
       style="stroke-width:0.11078934" />
    <path
       id="path156"
       d="m 18.792408,254.30028 c 0,0.1558 0,0.1558 0.155798,0.1558 h 3.29079 c 0.154067,0 0.154067,0 0.154067,-0.1558 v -1.19618 c 0,-0.1558 0,-0.1558 -0.154067,-0.1558 h -3.29079 c -0.155798,0 -0.155798,0 -0.155798,0.1558 v 1.19618"
       class="Rest"
       style="stroke-width:0.11078934" />
  </g>
  <text
     xml:space="preserve"
     style="font-size:9.525px;font-family:sans-serif;-inkscape-font-specification:sans-serif;fill:#000000;stroke:#000000;stroke-width:0.264583;paint-order:stroke fill markers"
     x="73.686142"
     y="17.320549"
     id="text364"><tspan
       sodipodi:role="line"
       id="tspan362"
       style="font-size:9.525px;stroke-width:0.264583"
       x="73.686142"
       y="17.320549">Exercice rythmique sur la liaison</tspan></text>
</svg>
