<?xml version="1.0" encoding="UTF-8" standalone="no"?>
<svg
   width="297mm"
   height="210mm"
   viewBox="0 0 1122.5197 793.7008"
   version="1.2"
   id="svg132"
   sodipodi:docname="oh_when_the_saints.svg"
   inkscape:version="1.3 (0e150ed6c4, 2023-07-21)"
   xmlns:inkscape="http://www.inkscape.org/namespaces/inkscape"
   xmlns:sodipodi="http://sodipodi.sourceforge.net/DTD/sodipodi-0.dtd"
   xmlns="http://www.w3.org/2000/svg"
   xmlns:svg="http://www.w3.org/2000/svg"
   xmlns:rdf="http://www.w3.org/1999/02/22-rdf-syntax-ns#"
   xmlns:cc="http://creativecommons.org/ns#"
   xmlns:dc="http://purl.org/dc/elements/1.1/">
  <defs
     id="defs132" />
  <sodipodi:namedview
     id="namedview132"
     pagecolor="#ffffff"
     bordercolor="#000000"
     borderopacity="0.25"
     inkscape:showpageshadow="2"
     inkscape:pageopacity="0.0"
     inkscape:pagecheckerboard="0"
     inkscape:deskcolor="#d1d1d1"
     inkscape:zoom="0.56078321"
     inkscape:cx="459.17923"
     inkscape:cy="274.61593"
     inkscape:window-width="1440"
     inkscape:window-height="872"
     inkscape:window-x="-8"
     inkscape:window-y="-8"
     inkscape:window-maximized="1"
     inkscape:current-layer="svg132"
     inkscape:document-units="mm" />
  <title
     id="title1">oh_when_the_saints</title>
  <desc
     id="desc1">Generated by MuseScore Studio 4.3.0</desc>
  <polyline
     class="StaffLines"
     fill="none"
     stroke="#000000"
     stroke-width="2.73"
     stroke-linejoin="bevel"
     points="336.598,634.198 2764.6,634.198"
     id="polyline1"
     transform="matrix(0.33852771,0,0,0.33852771,55.033111,-56.699893)" />
  <polyline
     class="StaffLines"
     fill="none"
     stroke="#000000"
     stroke-width="2.73"
     stroke-linejoin="bevel"
     points="336.598,658.998 2764.6,658.998"
     id="polyline2"
     transform="matrix(0.33852771,0,0,0.33852771,55.033111,-56.699893)" />
  <polyline
     class="StaffLines"
     fill="none"
     stroke="#000000"
     stroke-width="2.73"
     stroke-linejoin="bevel"
     points="336.598,683.798 2764.6,683.798"
     id="polyline3"
     transform="matrix(0.33852771,0,0,0.33852771,55.033111,-56.699893)" />
  <polyline
     class="StaffLines"
     fill="none"
     stroke="#000000"
     stroke-width="2.73"
     stroke-linejoin="bevel"
     points="336.598,708.598 2764.6,708.598"
     id="polyline4"
     transform="matrix(0.33852771,0,0,0.33852771,55.033111,-56.699893)" />
  <polyline
     class="StaffLines"
     fill="none"
     stroke="#000000"
     stroke-width="2.73"
     stroke-linejoin="bevel"
     points="336.598,733.398 2764.6,733.398"
     id="polyline5"
     transform="matrix(0.33852771,0,0,0.33852771,55.033111,-56.699893)" />
  <polyline
     class="StaffLines"
     fill="none"
     stroke="#000000"
     stroke-width="2.73"
     stroke-linejoin="bevel"
     points="212.598,1192.2 2764.6,1192.2"
     id="polyline6"
     transform="matrix(0.33852771,0,0,0.33852771,55.033111,-56.699893)" />
  <polyline
     class="StaffLines"
     fill="none"
     stroke="#000000"
     stroke-width="2.73"
     stroke-linejoin="bevel"
     points="212.598,1217 2764.6,1217"
     id="polyline7"
     transform="matrix(0.33852771,0,0,0.33852771,55.033111,-56.699893)" />
  <polyline
     class="StaffLines"
     fill="none"
     stroke="#000000"
     stroke-width="2.73"
     stroke-linejoin="bevel"
     points="212.598,1241.8 2764.6,1241.8"
     id="polyline8"
     transform="matrix(0.33852771,0,0,0.33852771,55.033111,-56.699893)" />
  <polyline
     class="StaffLines"
     fill="none"
     stroke="#000000"
     stroke-width="2.73"
     stroke-linejoin="bevel"
     points="212.598,1266.6 2764.6,1266.6"
     id="polyline9"
     transform="matrix(0.33852771,0,0,0.33852771,55.033111,-56.699893)" />
  <polyline
     class="StaffLines"
     fill="none"
     stroke="#000000"
     stroke-width="2.73"
     stroke-linejoin="bevel"
     points="212.598,1291.4 2764.6,1291.4"
     id="polyline10"
     transform="matrix(0.33852771,0,0,0.33852771,55.033111,-56.699893)" />
  <polyline
     class="StaffLines"
     fill="none"
     stroke="#000000"
     stroke-width="2.73"
     stroke-linejoin="bevel"
     points="212.598,1750.2 2764.6,1750.2"
     id="polyline11"
     transform="matrix(0.33852771,0,0,0.33852771,55.033111,-56.699893)" />
  <polyline
     class="StaffLines"
     fill="none"
     stroke="#000000"
     stroke-width="2.73"
     stroke-linejoin="bevel"
     points="212.598,1775 2764.6,1775"
     id="polyline12"
     transform="matrix(0.33852771,0,0,0.33852771,55.033111,-56.699893)" />
  <polyline
     class="StaffLines"
     fill="none"
     stroke="#000000"
     stroke-width="2.73"
     stroke-linejoin="bevel"
     points="212.598,1799.8 2764.6,1799.8"
     id="polyline13"
     transform="matrix(0.33852771,0,0,0.33852771,55.033111,-56.699893)" />
  <polyline
     class="StaffLines"
     fill="none"
     stroke="#000000"
     stroke-width="2.73"
     stroke-linejoin="bevel"
     points="212.598,1824.6 2764.6,1824.6"
     id="polyline14"
     transform="matrix(0.33852771,0,0,0.33852771,55.033111,-56.699893)" />
  <polyline
     class="StaffLines"
     fill="none"
     stroke="#000000"
     stroke-width="2.73"
     stroke-linejoin="bevel"
     points="212.598,1849.4 2764.6,1849.4"
     id="polyline15"
     transform="matrix(0.33852771,0,0,0.33852771,55.033111,-56.699893)" />
  <polyline
     class="StaffLines"
     fill="none"
     stroke="#000000"
     stroke-width="2.73"
     stroke-linejoin="bevel"
     points="212.598,2308.2 2764.6,2308.2"
     id="polyline16"
     transform="matrix(0.33852771,0,0,0.33852771,55.033111,-56.699893)" />
  <polyline
     class="StaffLines"
     fill="none"
     stroke="#000000"
     stroke-width="2.73"
     stroke-linejoin="bevel"
     points="212.598,2333 2764.6,2333"
     id="polyline17"
     transform="matrix(0.33852771,0,0,0.33852771,55.033111,-56.699893)" />
  <polyline
     class="StaffLines"
     fill="none"
     stroke="#000000"
     stroke-width="2.73"
     stroke-linejoin="bevel"
     points="212.598,2357.8 2764.6,2357.8"
     id="polyline18"
     transform="matrix(0.33852771,0,0,0.33852771,55.033111,-56.699893)" />
  <polyline
     class="StaffLines"
     fill="none"
     stroke="#000000"
     stroke-width="2.73"
     stroke-linejoin="bevel"
     points="212.598,2382.6 2764.6,2382.6"
     id="polyline19"
     transform="matrix(0.33852771,0,0,0.33852771,55.033111,-56.699893)" />
  <polyline
     class="StaffLines"
     fill="none"
     stroke="#000000"
     stroke-width="2.73"
     stroke-linejoin="bevel"
     points="212.598,2407.4 2764.6,2407.4"
     id="polyline20"
     transform="matrix(0.33852771,0,0,0.33852771,55.033111,-56.699893)" />
  <path
     class="Text"
     d="m 405.35174,15.582547 c -7.86061,0 -12.95816,6.44286 -12.95816,14.043824 0,7.410373 5.09755,13.964265 12.81261,13.964265 7.29188,0 12.80311,-6.035268 12.80311,-14.001505 0,-7.897179 -5.51123,-14.006584 -12.65756,-14.006584 m -0.0373,1.750864 c 2.49155,0 4.58027,1.15845 5.92084,3.205515 1.38119,2.19502 1.86191,4.469586 1.86191,9.050205 0,4.538644 -0.48072,6.812866 -1.86191,9.045127 -1.34057,2.089383 -3.39205,3.205514 -6.02917,3.205514 -2.64729,0 -4.69199,-1.079221 -6.03596,-3.205514 -1.41165,-2.232261 -1.8619,-4.506483 -1.8619,-9.124342 0,-4.501404 0.48409,-6.738729 1.8619,-8.97099 1.38119,-2.163521 3.35143,-3.205515 6.14429,-3.205515 m 21.96367,-1.750864 -6.88905,0.412669 v 1.602592 h 1.79083 c 1.41166,0.03725 1.59446,0.259305 1.59446,1.861896 V 40.23685 c -0.0338,0.523701 -0.0711,0.746111 -0.22005,0.930947 -0.26067,0.333442 -0.96819,0.486806 -2.57281,0.523702 h -0.14556 v 1.338195 h 9.42123 v -1.338195 h -0.14896 c -2.49833,-0.0792 -2.83009,-0.264397 -2.83009,-1.602591 V 34.57734 c 0,-1.824999 0.25727,-3.501728 0.67029,-4.358554 0.81922,-1.676728 2.45433,-2.830085 4.05895,-2.830085 0.96818,0 2.08194,0.560943 2.60666,1.306722 0.5992,0.814493 0.85647,1.935702 0.85647,3.760703 v 7.780724 c -0.0373,0.523701 -0.0745,0.746111 -0.22005,0.930947 -0.26743,0.333442 -1.01219,0.486806 -2.61004,0.523702 h -0.14895 v 1.338195 h 9.42122 v -1.338195 h -0.14556 c -2.46111,-0.0792 -2.79286,-0.264397 -2.79286,-1.602591 v -7.48451 c 0,-2.681813 -0.11852,-3.3538 -0.78538,-4.617859 -0.93095,-1.825001 -2.79286,-2.866995 -5.03053,-2.866995 -2.41709,0 -4.20452,1.079235 -5.88022,3.575879 V 15.582547 m 46.09732,22.644451 -3.64934,-9.568816 c -0.11176,-0.264397 -0.14894,-0.486461 -0.14894,-0.782675 0,-0.671974 0.33513,-0.856812 1.56061,-0.856812 h 0.89371 v -1.343617 h -8.34132 v 1.343617 h 0.63643 c 1.18824,0.03684 1.67572,0.333111 1.97023,1.37509 l 0.30129,0.967858 -3.27694,8.680186 -3.6121,-9.346406 c -0.0745,-0.264728 -0.14895,-0.597852 -0.14895,-0.819916 0,-0.634748 0.40623,-0.856812 1.52677,-0.856812 h 0.6669 v -1.343617 h -8.189 v 1.343617 h 0.66691 c 1.04266,0.03684 1.53014,0.481038 1.93638,1.824656 l 5.58571,14.747285 h 1.30672 l 4.4347,-11.769258 4.53627,11.769258 h 1.15777 l 5.20993,-13.742187 c 0.82264,-2.200429 1.38121,-2.792858 2.75563,-2.829754 h 0.26748 v -1.343617 h -7.04139 v 1.343617 h 0.63305 c 1.30335,0 1.82467,0.370006 1.82467,1.37509 0,0.375429 -0.10831,0.856813 -0.30129,1.343619 l -3.16185,8.489594 m 16.19178,-22.644451 -6.88904,0.412669 v 1.602592 h 1.79081 c 1.41167,0.03725 1.59446,0.259305 1.59446,1.861896 V 40.23685 c -0.0338,0.523701 -0.0711,0.746111 -0.22003,0.930947 -0.26067,0.333442 -0.96819,0.486806 -2.57282,0.523702 h -0.14556 v 1.338195 h 9.42122 v -1.338195 h -0.14895 c -2.49833,-0.0792 -2.83009,-0.264397 -2.83009,-1.602591 V 34.57734 c 0,-1.824999 0.25728,-3.501728 0.67028,-4.358554 0.81924,-1.676728 2.45433,-2.830085 4.05895,-2.830085 0.96818,0 2.08194,0.560943 2.60667,1.306722 0.59919,0.814493 0.85647,1.935702 0.85647,3.760703 v 7.780724 c -0.0373,0.523701 -0.0745,0.746111 -0.22004,0.930947 -0.26743,0.333442 -1.0122,0.486806 -2.61005,0.523702 h -0.14895 v 1.338195 h 9.42121 v -1.338195 h -0.14555 c -2.4611,-0.0792 -2.79286,-0.264397 -2.79286,-1.602591 v -7.48451 c 0,-2.681813 -0.11852,-3.3538 -0.78538,-4.617859 -0.93096,-1.825001 -2.79286,-2.866995 -5.03052,-2.866995 -2.41709,0 -4.20452,1.079235 -5.88023,3.575879 V 15.582547 m 32.54944,19.068586 c 0.0373,-5.585704 -3.13139,-9.531589 -7.67443,-9.531589 -4.76646,0 -8.34132,4.131054 -8.34132,9.716771 0,5.252593 3.39205,8.754321 8.41579,8.754321 3.57487,0 6.0732,-1.750864 7.59996,-5.289488 l -1.30334,-0.708884 c -1.52337,2.866995 -3.09075,3.983111 -5.5857,3.983111 -1.89913,0 -3.27695,-0.777597 -4.24513,-2.454325 -0.6703,-1.116117 -0.9682,-2.422839 -0.93096,-4.469917 h 12.06513 m -12.02788,-1.602592 c 0,-2.607676 1.19162,-6.331483 4.31622,-6.331483 2.23768,0 3.72382,1.978365 3.72382,4.993287 0,1.041996 -0.33177,1.338196 -1.52338,1.338196 h -6.51666 m 20.77883,-7.373463 -6.44218,0.412655 v 1.602591 h 1.34395 c 1.41167,0.03684 1.59446,0.25932 1.59446,1.861911 V 40.19994 c -0.0338,0.560611 -0.0711,0.783021 -0.22003,0.967857 -0.26068,0.333442 -0.96819,0.486806 -2.57281,0.523702 h -0.14557 v 1.338195 h 9.42122 v -1.338195 h -0.14895 c -2.49832,-0.0792 -2.83009,-0.264397 -2.83009,-1.602591 V 34.57734 c 0,-1.824999 0.25728,-3.501728 0.67028,-4.358554 0.78539,-1.676728 2.45432,-2.830085 4.05895,-2.830085 0.96819,0 2.08195,0.523702 2.64391,1.306722 0.56194,0.814493 0.81924,1.935702 0.81924,3.723793 v 7.780724 c -0.0373,0.560611 -0.0745,0.783021 -0.22006,0.967857 -0.26743,0.333442 -1.01219,0.486806 -2.61004,0.523702 h -0.14895 v 1.338195 h 9.42121 v -1.338195 h -0.14555 c -2.4611,-0.0792 -2.79285,-0.264397 -2.79285,-1.602591 v -7.48451 c 0,-2.681813 -0.11853,-3.3538 -0.78539,-4.617859 -0.93096,-1.78776 -2.79285,-2.866995 -5.03052,-2.866995 -2.41709,0 -4.24176,1.116131 -5.88023,3.575879 v -3.020345 m 32.95229,0 V 18.3016 h -1.52676 c -0.37238,4.845016 -2.01086,7.299341 -5.02714,7.526828 v 1.449241 h 3.05352 v 9.494679 c 0,2.607676 0.0745,3.538638 0.44347,4.395449 0.5992,1.565683 2.08872,2.422839 4.24853,2.422839 3.35142,0 5.51123,-2.533884 5.51123,-6.479756 0,-0.227486 0,-0.48646 -0.0373,-0.856811 h -1.5674 c -0.10831,3.348033 -1.07651,5.062001 -2.90117,5.062001 -0.85648,0 -1.60462,-0.444487 -1.86191,-1.07922 -0.22343,-0.523371 -0.33514,-1.454319 -0.33514,-2.792859 V 27.277669 h 5.474 v -1.602591 h -5.474 m 14.78013,-10.092531 -6.88904,0.412669 v 1.602592 h 1.79081 c 1.41166,0.03725 1.59446,0.259305 1.59446,1.861896 V 40.23685 c -0.0338,0.523701 -0.0711,0.746111 -0.22004,0.930947 -0.26067,0.333442 -0.96819,0.486806 -2.57281,0.523702 h -0.14556 v 1.338195 h 9.42121 v -1.338195 h -0.14895 c -2.49832,-0.0792 -2.83008,-0.264397 -2.83008,-1.602591 V 34.57734 c 0,-1.824999 0.25728,-3.501728 0.67027,-4.358554 0.81925,-1.676728 2.45433,-2.830085 4.05895,-2.830085 0.96819,0 2.08195,0.560943 2.60667,1.306722 0.59919,0.814493 0.85648,1.935702 0.85648,3.760703 v 7.780724 c -0.0373,0.523701 -0.0745,0.746111 -0.22005,0.930947 -0.26743,0.333442 -1.0122,0.486806 -2.61005,0.523702 h -0.14895 v 1.338195 h 9.42122 v -1.338195 h -0.14556 c -2.46109,-0.0792 -2.79285,-0.264397 -2.79285,-1.602591 v -7.48451 c 0,-2.681813 -0.11853,-3.3538 -0.78539,-4.617859 -0.93095,-1.825001 -2.79285,-2.866995 -5.03052,-2.866995 -2.41709,0 -4.20451,1.079235 -5.88022,3.575879 V 15.582547 m 32.54944,19.068586 c 0.0373,-5.585704 -3.13139,-9.531589 -7.67443,-9.531589 -4.76648,0 -8.34132,4.131054 -8.34132,9.716771 0,5.252593 3.39205,8.754321 8.41579,8.754321 3.57486,0 6.0732,-1.750864 7.59996,-5.289488 l -1.30335,-0.708884 c -1.52336,2.866995 -3.09075,3.983111 -5.5857,3.983111 -1.89914,0 -3.27694,-0.777597 -4.24513,-2.454325 -0.6703,-1.116117 -0.96819,-2.422839 -0.93095,-4.469917 h 12.06513 m -12.02789,-1.602592 c 0,-2.607676 1.19162,-6.331483 4.31623,-6.331483 2.23767,0 3.72381,1.978365 3.72381,4.993287 0,1.041996 -0.33176,1.338196 -1.52337,1.338196 h -6.51667 m 38.34842,-7.78071 h -1.30333 l -1.07991,1.338194 c -1.34056,-1.041994 -2.68113,-1.486481 -4.54303,-1.486481 -3.27696,0 -5.44015,2.121215 -5.44015,5.400534 0,3.496321 2.27492,4.390373 5.25396,5.099243 l 1.97361,0.449565 c 2.93843,0.703462 3.98108,1.449242 3.98108,2.940801 0,1.750864 -1.52337,2.978027 -3.68656,2.978027 -3.16185,0 -5.39614,-2.009839 -6.28984,-5.733645 h -1.48952 v 7.034944 h 1.29993 l 1.30673,-1.523378 c 1.52338,1.227163 3.19908,1.825001 5.09823,1.825001 3.64932,0 6.07319,-2.274566 6.07319,-5.739054 0,-1.634754 -0.52473,-2.904235 -1.56401,-3.761047 -0.89371,-0.777597 -1.64185,-1.07889 -3.90999,-1.560273 l -1.86191,-0.412669 c -2.04809,-0.444143 -2.04809,-0.444143 -2.71838,-0.819917 -0.81922,-0.37035 -1.30333,-1.153026 -1.30333,-1.972929 0,-1.523376 1.41505,-2.565371 3.45976,-2.565371 3.05691,0 4.54305,2.158111 5.44014,4.765801 h 1.30333 v -6.257346 m 19.23515,5.770872 c 0,-2.34328 -0.40963,-3.53897 -1.49292,-4.432678 -1.22546,-1.005084 -3.05013,-1.486481 -5.43336,-1.486481 -4.20791,0 -7.26142,1.972942 -7.26142,4.691996 0,1.375104 0.85647,2.269157 2.15981,2.269157 1.18823,0 2.00746,-0.783021 2.00746,-1.899137 0,-0.481397 -0.1828,-1.004754 -0.55518,-1.523378 -0.22681,-0.264397 -0.26405,-0.338533 -0.26405,-0.523702 0,-0.745779 1.4929,-1.417422 3.28034,-1.417422 1.18822,0 2.49494,0.375428 3.08738,0.930962 0.71089,0.597838 0.96818,1.491546 0.96818,3.168273 v 1.449573 c -3.86937,0.671642 -5.09824,0.967857 -6.92289,1.676727 -3.2431,1.195346 -4.76648,2.903891 -4.76648,5.289503 0,2.681812 2.08533,4.35854 5.40291,4.35854 2.56265,0 4.87479,-1.047403 6.47941,-2.946208 0.59243,1.898805 1.52338,2.644585 3.27357,2.644585 1.67571,0 3.42591,-1.07889 3.42591,-2.158125 0,-0.259305 -0.14558,-0.449551 -0.37578,-0.449551 -0.14556,0 -0.29451,0.04236 -0.55519,0.153351 -0.52133,0.222064 -0.74476,0.259305 -1.04266,0.259305 -1.04605,0 -1.41504,-0.671975 -1.41504,-2.570781 v -7.484509 m -3.50376,4.543377 c 0,2.232262 -0.10831,2.755963 -0.73799,3.723808 -0.93096,1.375449 -2.61006,2.306397 -4.24852,2.306397 -1.71296,0 -2.94182,-1.227162 -2.94182,-2.90389 0,-1.560619 0.78201,-2.681827 2.4171,-3.459424 1.15776,-0.523702 2.61004,-0.894053 5.51123,-1.380514 v 1.713623 m 13.23982,-19.179616 c -1.18824,0 -2.15643,0.968188 -2.15643,2.163532 0,1.189923 0.96819,2.158112 2.11919,2.158112 1.23224,0 2.20042,-0.968189 2.20042,-2.158112 0,-1.195344 -0.96818,-2.163532 -2.16318,-2.163532 m 1.75019,9.272614 -6.99737,0.412655 v 1.602591 h 1.89913 c 1.41167,0.03684 1.59786,0.25932 1.59786,1.861911 V 40.19994 c -0.0373,0.560611 -0.0745,0.783021 -0.22343,0.967857 -0.25728,0.333442 -0.96481,0.486806 -2.56943,0.523702 h -0.25727 v 1.338195 h 9.64803 v -1.338195 h -0.26743 c -2.49158,-0.0792 -2.83009,-0.264397 -2.83009,-1.602591 v -14.41383 m 11.62841,0 -6.44218,0.412655 v 1.602591 h 1.34396 c 1.41166,0.03684 1.59447,0.25932 1.59447,1.861911 V 40.19994 c -0.0339,0.560611 -0.0711,0.783021 -0.22005,0.967857 -0.26067,0.333442 -0.96818,0.486806 -2.5728,0.523702 h -0.14558 v 1.338195 h 9.42124 v -1.338195 h -0.14897 c -2.49832,-0.0792 -2.83009,-0.264397 -2.83009,-1.602591 V 34.57734 c 0,-1.824999 0.25729,-3.501728 0.6703,-4.358554 0.78538,-1.676728 2.45432,-2.830085 4.05894,-2.830085 0.9682,0 2.08196,0.523702 2.6439,1.306722 0.56196,0.814493 0.81925,1.935702 0.81925,3.723793 v 7.780724 c -0.0373,0.560611 -0.0745,0.783021 -0.22006,0.967857 -0.26743,0.333442 -1.01219,0.486806 -2.61005,0.523702 h -0.14895 v 1.338195 h 9.42124 v -1.338195 h -0.14558 c -2.46109,-0.0792 -2.79286,-0.264397 -2.79286,-1.602591 v -7.48451 c 0,-2.681813 -0.11852,-3.3538 -0.78537,-4.617859 -0.93095,-1.78776 -2.79286,-2.866995 -5.03053,-2.866995 -2.41708,0 -4.24174,1.116131 -5.88023,3.575879 v -3.020345 m 22.45793,0 V 18.3016 h -1.52675 c -0.37238,4.845016 -2.01086,7.299341 -5.02713,7.526828 v 1.449241 h 3.05351 v 9.494679 c 0,2.607676 0.0745,3.538638 0.44347,4.395449 0.59921,1.565683 2.08872,2.422839 4.24853,2.422839 3.35142,0 5.51122,-2.533884 5.51122,-6.479756 0,-0.227486 0,-0.48646 -0.0373,-0.856811 h -1.56739 c -0.10831,3.348033 -1.07652,5.062001 -2.90117,5.062001 -0.85648,0 -1.60463,-0.444487 -1.86191,-1.07922 -0.22343,-0.523371 -0.33514,-1.454319 -0.33514,-2.792859 V 27.277669 h 5.474 v -1.602591 h -5.474 m 21.85534,-0.407247 h -1.30332 l -1.07992,1.338194 c -1.34056,-1.041994 -2.68113,-1.486481 -4.54302,-1.486481 -3.27696,0 -5.44015,2.121215 -5.44015,5.400534 0,3.496321 2.2749,4.390373 5.25396,5.099243 l 1.97361,0.449565 c 2.93842,0.703462 3.98108,1.449242 3.98108,2.940801 0,1.750864 -1.52337,2.978027 -3.68656,2.978027 -3.16186,0 -5.39614,-2.009839 -6.28985,-5.733645 h -1.48953 v 7.034944 h 1.29995 l 1.30673,-1.523378 c 1.52338,1.227163 3.19908,1.825001 5.09822,1.825001 3.64932,0 6.07318,-2.274566 6.07318,-5.739054 0,-1.634754 -0.52471,-2.904235 -1.56399,-3.761047 -0.89371,-0.777597 -1.64186,-1.07889 -3.91001,-1.560273 l -1.86189,-0.412669 c -2.04809,-0.444143 -2.04809,-0.444143 -2.71837,-0.819917 -0.81924,-0.37035 -1.30334,-1.153026 -1.30334,-1.972929 0,-1.523376 1.41504,-2.565371 3.45976,-2.565371 3.0569,0 4.54304,2.158111 5.44014,4.765801 h 1.30332 v -6.257346"
     id="path20"
     style="stroke-width:0.338528" />
  <path
     class="MeasureNumber"
     d="m 132.88027,698.31507 h -0.39134 c -0.74611,0.55519 -2.17944,1.02574 -3.15812,1.02574 l -0.15844,0.59581 h 0.93096 c 0.82498,0 0.92012,0.027 0.92012,0.27083 0,0.12184 0,0.12184 -0.13205,0.60934 l -1.44924,5.41645 c -0.18009,0.67705 -0.19059,0.71768 -0.31211,0.83954 -0.13784,0.13205 -0.42317,0.17604 -1.13746,0.18958 h -0.58158 l -0.0691,0.63644 h 5.00918 l 0.0796,-0.63644 h -0.7302 c -0.8778,0 -1.06839,-0.0677 -1.06839,-0.36223 0,-0.0981 0.0528,-0.40962 0.12184,-0.66689 l 2.12629,-7.91817 m 7.44762,0 h -0.39135 c -0.74612,0.55519 -2.17944,1.02574 -3.15813,1.02574 l -0.15842,0.59581 h 0.93094 c 0.825,0 0.92013,0.027 0.92013,0.27083 0,0.12184 0,0.12184 -0.13205,0.60934 l -1.44924,5.41645 c -0.18009,0.67705 -0.1906,0.71768 -0.31213,0.83954 -0.13784,0.13205 -0.42316,0.17604 -1.13745,0.18958 h -0.5816 l -0.069,0.63644 h 5.0092 l 0.0796,-0.63644 h -0.73021 c -0.87781,0 -1.06839,-0.0677 -1.06839,-0.36223 0,-0.0981 0.0529,-0.40962 0.12183,-0.66689 l 2.12629,-7.91817"
     id="path21"
     style="stroke-width:0.338528" />
  <path
     class="MeasureNumber"
     d="m 133.92226,509.46739 c -0.71937,0.0812 -1.59751,0.1388 -2.35379,0.1388 -0.38084,0 -0.8145,-0.0169 -1.3013,-0.044 -0.44957,-0.0237 -0.89405,-0.0508 -1.35411,-0.0778 l -0.33853,-0.0169 -1.31178,2.85717 0.49729,0.1625 0.32803,-0.54503 c 0.63473,-1.04945 0.93095,-1.1984 2.31146,-1.18824 h 2.29015 l -1.47564,2.1158 c -1.73496,2.43402 -1.73496,2.43402 -2.3961,3.51729 -0.59785,0.96144 -0.84125,1.55385 -0.84125,2.04133 0,0.47733 0.30163,0.77185 0.77252,0.77185 0.50237,0 0.75627,-0.24375 0.93603,-0.87679 0.67707,-2.54573 1.08431,-3.42928 2.96212,-6.46927 l 1.2749,-1.97699 v -0.40962"
     id="path22"
     style="stroke-width:0.338528" />
  <path
     class="MeasureNumber"
     d="m 131.9439,325.17291 c 0.64015,-0.20312 0.89405,-0.31483 1.22208,-0.5315 0.63475,-0.41638 1.02609,-1.16114 1.02609,-1.91945 0,-1.2864 -1.02609,-2.15304 -2.54439,-2.15304 -1.47563,0 -2.72413,0.9208 -2.72413,2.03118 0,0.55517 0.33853,0.93772 0.85716,0.93772 0.44414,0 0.77219,-0.32838 0.77219,-0.77185 0,-0.23357 -0.0687,-0.39946 -0.28573,-0.60935 -0.13743,-0.1286 -0.19025,-0.21666 -0.19025,-0.31145 0,-0.32837 0.67705,-0.66689 1.3118,-0.66689 0.90962,0 1.44923,0.50102 1.44923,1.34396 0,1.19837 -0.85174,2.33584 -1.76135,2.33584 -0.0373,0 -0.15877,-0.009 -0.30705,-0.0237 -0.39641,-0.027 -0.39641,-0.027 -0.47597,-0.027 -0.29622,0 -0.46007,0.13537 -0.46007,0.37916 0,0.21665 0.14794,0.34869 0.39134,0.34869 0.0687,0 0.16385,-0.009 0.26982,-0.0237 0.19025,-0.0373 0.39675,-0.0542 0.51828,-0.0542 0.63473,0 1.06839,0.5721 1.06839,1.40827 0,1.46243 -0.71937,2.87071 -2.35886,2.87071 -0.75661,0 -1.40725,-0.37914 -1.40725,-0.81584 0,-0.14557 0.0582,-0.19973 0.2698,-0.29452 0.39675,-0.17604 0.55552,-0.41977 0.55552,-0.782 0,-0.47733 -0.37543,-0.84293 -0.86223,-0.84293 -0.58193,0 -0.96277,0.4604 -0.96277,1.16453 0,1.31011 0.99968,2.1361 2.62359,2.1361 2.04707,0 3.60227,-1.36425 3.60227,-3.17877 0,-1.05621 -0.65064,-1.64862 -1.59751,-1.94991"
     id="path23"
     style="stroke-width:0.338528" />
  <path
     class="TieSegment"
     stroke="#000000"
     stroke-width="0.419774"
     stroke-linecap="round"
     stroke-linejoin="round"
     fill-rule="evenodd"
     d="m 231.62981,760.23518 c 21.10992,9.74283 84.43965,9.74283 105.54923,0 -21.10958,12.43074 -84.43931,12.43074 -105.54923,0"
     id="path24" />
  <path
     class="TieSegment"
     stroke="#000000"
     stroke-width="0.419774"
     stroke-linecap="round"
     stroke-linejoin="round"
     fill-rule="evenodd"
     d="m 182.07411,579.81683 c 30.83953,11.66905 123.35847,11.66905 154.19802,0 -30.83955,14.35696 -123.35849,14.35696 -154.19802,0"
     id="path25" />
  <path
     class="TieSegment"
     stroke="#000000"
     stroke-width="0.419774"
     stroke-linecap="round"
     stroke-linejoin="round"
     fill-rule="evenodd"
     d="m 182.07411,378.32514 c 30.60831,11.62842 122.43361,11.62842 153.04228,0 -30.60867,14.31634 -122.43397,14.31634 -153.04228,0"
     id="path26" />
  <path
     class="TieSegment"
     stroke="#000000"
     stroke-width="0.419774"
     stroke-linecap="round"
     stroke-linejoin="round"
     fill-rule="evenodd"
     d="m 491.77788,189.42567 c 37.47839,12.80513 149.91022,12.80513 187.38862,0 -37.4784,15.49169 -149.91023,15.49169 -187.38862,0"
     id="path27" />
  <polyline
     class="BarLine"
     fill="none"
     stroke="#000000"
     stroke-width="4.46"
     stroke-linejoin="bevel"
     points="2159.48,1748.83 2159.48,1850.76"
     id="polyline27"
     transform="matrix(0.33852771,0,0,0.33852771,55.033111,-56.699893)" />
  <polyline
     class="BarLine"
     fill="none"
     stroke="#000000"
     stroke-width="4.46"
     stroke-linejoin="bevel"
     points="2164.03,1190.83 2164.03,1292.76"
     id="polyline28"
     transform="matrix(0.33852771,0,0,0.33852771,55.033111,-56.699893)" />
  <polyline
     class="BarLine"
     fill="none"
     stroke="#000000"
     stroke-width="4.46"
     stroke-linejoin="bevel"
     points="783.552,1748.83 783.552,1850.76"
     id="polyline29"
     transform="matrix(0.33852771,0,0,0.33852771,55.033111,-56.699893)" />
  <polyline
     class="BarLine"
     fill="none"
     stroke="#000000"
     stroke-width="4.46"
     stroke-linejoin="bevel"
     points="1565.69,1190.83 1565.69,1292.76"
     id="polyline30"
     transform="matrix(0.33852771,0,0,0.33852771,55.033111,-56.699893)" />
  <polyline
     class="BarLine"
     fill="none"
     stroke="#000000"
     stroke-width="4.46"
     stroke-linejoin="bevel"
     points="2762.37,1748.83 2762.37,1850.76"
     id="polyline31"
     transform="matrix(0.33852771,0,0,0.33852771,55.033111,-56.699893)" />
  <polyline
     class="BarLine"
     fill="none"
     stroke="#000000"
     stroke-width="4.46"
     stroke-linejoin="bevel"
     points="1796.45,632.834 1796.45,734.762"
     id="polyline32"
     transform="matrix(0.33852771,0,0,0.33852771,55.033111,-56.699893)" />
  <polyline
     class="BarLine"
     fill="none"
     stroke="#000000"
     stroke-width="4.46"
     stroke-linejoin="bevel"
     points="2762.37,632.834 2762.37,734.762"
     id="polyline33"
     transform="matrix(0.33852771,0,0,0.33852771,55.033111,-56.699893)" />
  <polyline
     class="BarLine"
     fill="none"
     stroke="#000000"
     stroke-width="4.46"
     stroke-linejoin="bevel"
     points="2739.55,2306.83 2739.55,2408.76"
     id="polyline34"
     transform="matrix(0.33852771,0,0,0.33852771,55.033111,-56.699893)" />
  <polyline
     class="BarLine"
     fill="none"
     stroke="#000000"
     stroke-width="13.64"
     stroke-linejoin="bevel"
     points="2757.78,2306.83 2757.78,2408.76"
     id="polyline35"
     transform="matrix(0.33852771,0,0,0.33852771,55.033111,-56.699893)" />
  <polyline
     class="BarLine"
     fill="none"
     stroke="#000000"
     stroke-width="4.46"
     stroke-linejoin="bevel"
     points="1575.17,1748.83 1575.17,1850.76"
     id="polyline36"
     transform="matrix(0.33852771,0,0,0.33852771,55.033111,-56.699893)" />
  <polyline
     class="BarLine"
     fill="none"
     stroke="#000000"
     stroke-width="4.46"
     stroke-linejoin="bevel"
     points="1234.68,632.834 1234.68,734.762"
     id="polyline37"
     transform="matrix(0.33852771,0,0,0.33852771,55.033111,-56.699893)" />
  <polyline
     class="BarLine"
     fill="none"
     stroke="#000000"
     stroke-width="4.46"
     stroke-linejoin="bevel"
     points="780.138,1190.83 780.138,1292.76"
     id="polyline38"
     transform="matrix(0.33852771,0,0,0.33852771,55.033111,-56.699893)" />
  <polyline
     class="BarLine"
     fill="none"
     stroke="#000000"
     stroke-width="4.46"
     stroke-linejoin="bevel"
     points="2369.1,2306.83 2369.1,2408.76"
     id="polyline39"
     transform="matrix(0.33852771,0,0,0.33852771,55.033111,-56.699893)" />
  <polyline
     class="BarLine"
     fill="none"
     stroke="#000000"
     stroke-width="4.46"
     stroke-linejoin="bevel"
     points="1890.57,2306.83 1890.57,2408.76"
     id="polyline40"
     transform="matrix(0.33852771,0,0,0.33852771,55.033111,-56.699893)" />
  <polyline
     class="BarLine"
     fill="none"
     stroke="#000000"
     stroke-width="4.46"
     stroke-linejoin="bevel"
     points="1412.04,2306.83 1412.04,2408.76"
     id="polyline41"
     transform="matrix(0.33852771,0,0,0.33852771,55.033111,-56.699893)" />
  <polyline
     class="BarLine"
     fill="none"
     stroke="#000000"
     stroke-width="4.46"
     stroke-linejoin="bevel"
     points="2762.37,1190.83 2762.37,1292.76"
     id="polyline42"
     transform="matrix(0.33852771,0,0,0.33852771,55.033111,-56.699893)" />
  <polyline
     class="BarLine"
     fill="none"
     stroke="#000000"
     stroke-width="4.46"
     stroke-linejoin="bevel"
     points="786.231,2306.83 786.231,2408.76"
     id="polyline43"
     transform="matrix(0.33852771,0,0,0.33852771,55.033111,-56.699893)" />
  <polyline
     class="LedgerLine"
     fill="none"
     stroke="#000000"
     stroke-width="3.97"
     stroke-linejoin="bevel"
     points="1960.33,1874.2 2008.93,1874.2"
     id="polyline44"
     transform="matrix(0.33852771,0,0,0.33852771,55.033111,-56.699893)" />
  <polyline
     class="LedgerLine"
     fill="none"
     stroke="#000000"
     stroke-width="3.97"
     stroke-linejoin="bevel"
     points="2055.04,758.198 2103.64,758.198"
     id="polyline45"
     transform="matrix(0.33852771,0,0,0.33852771,55.033111,-56.699893)" />
  <polyline
     class="LedgerLine"
     fill="none"
     stroke="#000000"
     stroke-width="3.97"
     stroke-linejoin="bevel"
     points="1601.46,1874.2 1650.06,1874.2"
     id="polyline46"
     transform="matrix(0.33852771,0,0,0.33852771,55.033111,-56.699893)" />
  <polyline
     class="LedgerLine"
     fill="none"
     stroke="#000000"
     stroke-width="3.97"
     stroke-linejoin="bevel"
     points="2190.32,1316.2 2238.92,1316.2"
     id="polyline47"
     transform="matrix(0.33852771,0,0,0.33852771,55.033111,-56.699893)" />
  <polyline
     class="LedgerLine"
     fill="none"
     stroke="#000000"
     stroke-width="3.97"
     stroke-linejoin="bevel"
     points="527.349,758.198 575.949,758.198"
     id="polyline48"
     transform="matrix(0.33852771,0,0,0.33852771,55.033111,-56.699893)" />
  <polyline
     class="LedgerLine"
     fill="none"
     stroke="#000000"
     stroke-width="3.97"
     stroke-linejoin="bevel"
     points="993.638,1316.2 1042.24,1316.2"
     id="polyline49"
     transform="matrix(0.33852771,0,0,0.33852771,55.033111,-56.699893)" />
  <polyline
     class="LedgerLine"
     fill="none"
     stroke="#000000"
     stroke-width="3.97"
     stroke-linejoin="bevel"
     points="1916.85,2432.2 1965.46,2432.2"
     id="polyline50"
     transform="matrix(0.33852771,0,0,0.33852771,55.033111,-56.699893)" />
  <polyline
     class="LedgerLine"
     fill="none"
     stroke="#000000"
     stroke-width="3.97"
     stroke-linejoin="bevel"
     points="2395.38,2432.2 2448.75,2432.2"
     id="polyline51"
     transform="matrix(0.33852771,0,0,0.33852771,55.033111,-56.699893)" />
  <polyline
     class="Stem"
     fill="none"
     stroke="#000000"
     stroke-width="2.48"
     stroke-linejoin="bevel"
     points="1640.64,1870.23 1640.64,1787.4"
     id="polyline52"
     transform="matrix(0.33852771,0,0,0.33852771,55.033111,-56.699893)" />
  <polyline
     class="Stem"
     fill="none"
     stroke="#000000"
     stroke-width="2.48"
     stroke-linejoin="bevel"
     points="1031.13,717.03 1031.13,634.198"
     id="polyline53"
     transform="matrix(0.33852771,0,0,0.33852771,55.033111,-56.699893)" />
  <polyline
     class="Stem"
     fill="none"
     stroke="#000000"
     stroke-width="2.48"
     stroke-linejoin="bevel"
     points="1407.24,1275.03 1407.24,1192.2"
     id="polyline54"
     transform="matrix(0.33852771,0,0,0.33852771,55.033111,-56.699893)" />
  <polyline
     class="Stem"
     fill="none"
     stroke="#000000"
     stroke-width="2.48"
     stroke-linejoin="bevel"
     points="1037.75,1845.43 1037.75,1762.6"
     id="polyline55"
     transform="matrix(0.33852771,0,0,0.33852771,55.033111,-56.699893)" />
  <polyline
     class="Stem"
     fill="none"
     stroke="#000000"
     stroke-width="2.48"
     stroke-linejoin="bevel"
     points="2558.83,717.03 2558.83,634.198"
     id="polyline56"
     transform="matrix(0.33852771,0,0,0.33852771,55.033111,-56.699893)" />
  <polyline
     class="Stem"
     fill="none"
     stroke="#000000"
     stroke-width="2.48"
     stroke-linejoin="bevel"
     points="845.602,1262.63 845.602,1179.8"
     id="polyline57"
     transform="matrix(0.33852771,0,0,0.33852771,55.033111,-56.699893)" />
  <polyline
     class="Stem"
     fill="none"
     stroke="#000000"
     stroke-width="2.48"
     stroke-linejoin="bevel"
     points="2224.94,1845.43 2224.94,1762.6"
     id="polyline58"
     transform="matrix(0.33852771,0,0,0.33852771,55.033111,-56.699893)" />
  <polyline
     class="Stem"
     fill="none"
     stroke="#000000"
     stroke-width="2.48"
     stroke-linejoin="bevel"
     points="2508.04,1820.63 2508.04,1737.8"
     id="polyline59"
     transform="matrix(0.33852771,0,0,0.33852771,55.033111,-56.699893)" />
  <polyline
     class="Stem"
     fill="none"
     stroke="#000000"
     stroke-width="2.48"
     stroke-linejoin="bevel"
     points="2229.49,1312.23 2229.49,1229.4"
     id="polyline60"
     transform="matrix(0.33852771,0,0,0.33852771,55.033111,-56.699893)" />
  <polyline
     class="Stem"
     fill="none"
     stroke="#000000"
     stroke-width="2.48"
     stroke-linejoin="bevel"
     points="2326.52,729.43 2326.52,646.598"
     id="polyline61"
     transform="matrix(0.33852771,0,0,0.33852771,55.033111,-56.699893)" />
  <polyline
     class="Stem"
     fill="none"
     stroke="#000000"
     stroke-width="2.48"
     stroke-linejoin="bevel"
     points="1032.81,1312.23 1032.81,1229.4"
     id="polyline62"
     transform="matrix(0.33852771,0,0,0.33852771,55.033111,-56.699893)" />
  <polyline
     class="Stem"
     fill="none"
     stroke="#000000"
     stroke-width="2.48"
     stroke-linejoin="bevel"
     points="387.671,2378.63 387.671,2295.8"
     id="polyline63"
     transform="matrix(0.33852771,0,0,0.33852771,55.033111,-56.699893)" />
  <polyline
     class="Stem"
     fill="none"
     stroke="#000000"
     stroke-width="2.48"
     stroke-linejoin="bevel"
     points="2094.22,754.23 2094.22,671.398"
     id="polyline64"
     transform="matrix(0.33852771,0,0,0.33852771,55.033111,-56.699893)" />
  <polyline
     class="Stem"
     fill="none"
     stroke="#000000"
     stroke-width="2.48"
     stroke-linejoin="bevel"
     points="1861.91,704.63 1861.91,621.798"
     id="polyline65"
     transform="matrix(0.33852771,0,0,0.33852771,55.033111,-56.699893)" />
  <polyline
     class="Stem"
     fill="none"
     stroke="#000000"
     stroke-width="2.48"
     stroke-linejoin="bevel"
     points="1999.51,1870.23 1999.51,1787.4"
     id="polyline66"
     transform="matrix(0.33852771,0,0,0.33852771,55.033111,-56.699893)" />
  <polyline
     class="Stem"
     fill="none"
     stroke="#000000"
     stroke-width="2.48"
     stroke-linejoin="bevel"
     points="851.695,2391.03 851.695,2308.2"
     id="polyline67"
     transform="matrix(0.33852771,0,0,0.33852771,55.033111,-56.699893)" />
  <polyline
     class="Stem"
     fill="none"
     stroke="#000000"
     stroke-width="2.48"
     stroke-linejoin="bevel"
     points="998.971,2391.03 998.971,2308.2"
     id="polyline68"
     transform="matrix(0.33852771,0,0,0.33852771,55.033111,-56.699893)" />
  <polyline
     class="Stem"
     fill="none"
     stroke="#000000"
     stroke-width="2.48"
     stroke-linejoin="bevel"
     points="1146.25,2403.43 1146.25,2320.6"
     id="polyline69"
     transform="matrix(0.33852771,0,0,0.33852771,55.033111,-56.699893)" />
  <polyline
     class="Stem"
     fill="none"
     stroke="#000000"
     stroke-width="2.48"
     stroke-linejoin="bevel"
     points="1293.52,2391.03 1293.52,2308.2"
     id="polyline70"
     transform="matrix(0.33852771,0,0,0.33852771,55.033111,-56.699893)" />
  <polyline
     class="Stem"
     fill="none"
     stroke="#000000"
     stroke-width="2.48"
     stroke-linejoin="bevel"
     points="1226.47,1845.43 1226.47,1762.6"
     id="polyline71"
     transform="matrix(0.33852771,0,0,0.33852771,55.033111,-56.699893)" />
  <polyline
     class="Stem"
     fill="none"
     stroke="#000000"
     stroke-width="2.48"
     stroke-linejoin="bevel"
     points="2510.31,1287.43 2510.31,1204.6"
     id="polyline72"
     transform="matrix(0.33852771,0,0,0.33852771,55.033111,-56.699893)" />
  <polyline
     class="Stem"
     fill="none"
     stroke="#000000"
     stroke-width="2.48"
     stroke-linejoin="bevel"
     points="1477.5,2378.63 1477.5,2295.8"
     id="polyline73"
     transform="matrix(0.33852771,0,0,0.33852771,55.033111,-56.699893)" />
  <polyline
     class="Stem"
     fill="none"
     stroke="#000000"
     stroke-width="2.48"
     stroke-linejoin="bevel"
     points="534.946,2391.03 534.946,2308.2"
     id="polyline74"
     transform="matrix(0.33852771,0,0,0.33852771,55.033111,-56.699893)" />
  <polyline
     class="Stem"
     fill="none"
     stroke="#000000"
     stroke-width="2.48"
     stroke-linejoin="bevel"
     points="798.83,729.43 798.83,646.598"
     id="polyline75"
     transform="matrix(0.33852771,0,0,0.33852771,55.033111,-56.699893)" />
  <polyline
     class="Stem"
     fill="none"
     stroke="#000000"
     stroke-width="2.48"
     stroke-linejoin="bevel"
     points="1220.03,1287.43 1220.03,1204.6"
     id="polyline76"
     transform="matrix(0.33852771,0,0,0.33852771,55.033111,-56.699893)" />
  <polyline
     class="Stem"
     fill="none"
     stroke="#000000"
     stroke-width="2.48"
     stroke-linejoin="bevel"
     points="1956.03,2428.23 1956.03,2345.4"
     id="polyline77"
     transform="matrix(0.33852771,0,0,0.33852771,55.033111,-56.699893)" />
  <polyline
     class="Stem"
     fill="none"
     stroke="#000000"
     stroke-width="2.48"
     stroke-linejoin="bevel"
     points="566.525,754.23 566.525,671.398"
     id="polyline78"
     transform="matrix(0.33852771,0,0,0.33852771,55.033111,-56.699893)" />
  <polyline
     class="Stem"
     fill="none"
     stroke="#000000"
     stroke-width="2.48"
     stroke-linejoin="bevel"
     points="2176.94,2415.83 2176.94,2333"
     id="polyline79"
     transform="matrix(0.33852771,0,0,0.33852771,55.033111,-56.699893)" />
  <polyline
     class="Stem"
     fill="none"
     stroke="#000000"
     stroke-width="2.48"
     stroke-linejoin="bevel"
     points="1415.2,1857.83 1415.2,1775"
     id="polyline80"
     transform="matrix(0.33852771,0,0,0.33852771,55.033111,-56.699893)" />
  <polyline
     class="Stem"
     fill="none"
     stroke="#000000"
     stroke-width="2.48"
     stroke-linejoin="bevel"
     points="849.016,1857.83 849.016,1775"
     id="polyline81"
     transform="matrix(0.33852771,0,0,0.33852771,55.033111,-56.699893)" />
  <polyline
     class="Stem"
     fill="none"
     stroke="#000000"
     stroke-width="2.48"
     stroke-linejoin="bevel"
     points="1631.15,1262.63 1631.15,1179.8"
     id="polyline82"
     transform="matrix(0.33852771,0,0,0.33852771,55.033111,-56.699893)" />
  <polyline
     class="Stem"
     fill="none"
     stroke="#000000"
     stroke-width="2.48"
     stroke-linejoin="bevel"
     points="1911.97,1287.43 1911.97,1204.6"
     id="polyline83"
     transform="matrix(0.33852771,0,0,0.33852771,55.033111,-56.699893)" />
  <polyline
     class="Stem"
     fill="none"
     stroke="#000000"
     stroke-width="2.48"
     stroke-linejoin="bevel"
     points="1698.41,2403.43 1698.41,2320.6"
     id="polyline84"
     transform="matrix(0.33852771,0,0,0.33852771,55.033111,-56.699893)" />
  <path
     class="Note"
     d="m 900.7317,556.5439 c -3.2585,0 -7.1519,2.72329 -7.1519,5.84536 0,1.44297 1.03894,3.05386 3.76223,3.05386 3.48938,0 7.15191,-2.85447 7.15191,-5.80863 0,-1.98344 -1.6791,-3.09059 -3.76224,-3.09059 m -4.63326,7.31982 c -1.10715,0 -1.34327,-0.90253 -1.34327,-1.20685 0,-1.64762 5.64072,-4.53357 7.22011,-4.53357 0.80807,0 1.34329,0.47225 1.34329,1.20685 0,1.6791 -5.67746,4.53357 -7.22013,4.53357"
     id="path84"
     style="stroke-width:0.335819" />
  <path
     class="Note"
     d="m 490.95644,178.6151 c -4.63327,0 -6.28088,2.35075 -6.28088,4.53359 0,2.18281 1.64761,4.53356 6.28088,4.53356 4.63326,0 6.24415,-2.35075 6.24415,-4.53356 0,-2.18284 -1.61089,-4.53359 -6.24415,-4.53359 m 0.2676,7.99146 c -0.93924,0 -1.5794,-0.26759 -2.01492,-1.10715 -0.43551,-0.83954 -1.03894,-3.02237 -1.07567,-3.89865 -0.0682,-0.90777 0.26762,-1.44297 1.07567,-1.71057 0.40403,-0.13646 0.93925,-0.20467 1.47971,-0.20467 0.90252,0 1.51118,0.20467 1.97818,1.11242 0.47226,0.87104 1.11241,3.05386 1.11241,3.89341 0,1.64762 -1.21209,1.91521 -2.55538,1.91521"
     id="path85"
     style="stroke-width:0.335819" />
  <path
     class="Note"
     d="m 674.85028,184.59165 c 0,1.44298 1.03893,3.05387 3.76221,3.05387 3.48939,0 7.15191,-2.85448 7.15191,-5.80863 0,-1.98343 -1.6791,-3.09058 -3.76222,-3.09058 -3.2585,0 -7.1519,2.75476 -7.1519,5.84534"
     id="path86"
     style="stroke-width:0.335819" />
  <path
     class="Note"
     d="m 753.49364,201.38264 c 0,1.44297 1.03895,3.05385 3.76224,3.05385 3.48936,0 7.1519,-2.85446 7.1519,-5.80863 0,-1.98344 -1.67909,-3.09058 -3.76223,-3.09058 -3.25849,0 -7.15191,2.75476 -7.15191,5.84536"
     id="path87"
     style="stroke-width:0.335819" />
  <path
     class="Note"
     d="m 832.13363,192.98714 c 0,1.44298 1.03895,3.05386 3.76224,3.05386 3.48936,0 7.1519,-2.85446 7.1519,-5.80862 0,-1.98345 -1.67909,-3.09059 -3.76223,-3.09059 -3.2585,0 -7.15191,2.75476 -7.15191,5.84535"
     id="path88"
     style="stroke-width:0.335819" />
  <path
     class="Note"
     d="m 910.77362,188.7894 c 0,1.44298 1.03895,3.05386 3.76224,3.05386 3.48936,0 7.1519,-2.85447 7.1519,-5.80863 0,-1.98343 -1.67909,-3.09058 -3.76223,-3.09058 -3.2585,0 -7.15191,2.75476 -7.15191,5.84535"
     id="path89"
     style="stroke-width:0.335819" />
  <path
     class="Note"
     d="m 175.77884,751.28772 c 0,1.44298 1.03895,3.05386 3.76222,3.05386 3.48939,0 7.15191,-2.85446 7.15191,-5.80863 0,-1.98343 -1.67908,-3.09058 -3.76222,-3.09058 -3.25849,0 -7.15191,2.75476 -7.15191,5.84535"
     id="path90"
     style="stroke-width:0.335819" />
  <path
     class="Note"
     d="m 181.253,367.51426 c -4.63325,0 -6.28087,2.35073 -6.28087,4.53356 0,2.18282 1.64762,4.53356 6.28087,4.53356 4.63326,0 6.24416,-2.35074 6.24416,-4.53356 0,-2.18283 -1.6109,-4.53356 -6.24416,-4.53356 m 0.26761,7.99144 c -0.93926,0 -1.5794,-0.26759 -2.01491,-1.10714 -0.43554,-0.83955 -1.03894,-3.02238 -1.07568,-3.89866 -0.0681,-0.90777 0.26763,-1.44297 1.07568,-1.71058 0.40402,-0.13646 0.93925,-0.20464 1.47972,-0.20464 0.90251,0 1.51118,0.20464 1.97817,1.1124 0.47223,0.87104 1.1124,3.05386 1.1124,3.89341 0,1.64762 -1.21211,1.91521 -2.55538,1.91521"
     id="path91"
     style="stroke-width:0.335819" />
  <path
     class="Note"
     d="m 232.78743,749.64011 c -3.25849,0 -7.15191,2.72329 -7.15191,5.84535 0,1.44298 1.03892,3.05386 3.76221,3.05386 3.4894,0 7.15191,-2.85446 7.15191,-5.80862 0,-1.98345 -1.6791,-3.09059 -3.76221,-3.09059 m -4.63328,7.31982 c -1.10714,0 -1.34327,-0.90252 -1.34327,-1.20686 0,-1.64761 5.64073,-4.53356 7.22011,-4.53356 0.80809,0 1.34329,0.47224 1.34329,1.20685 0,1.6791 -5.67743,4.53357 -7.22013,4.53357"
     id="path92"
     style="stroke-width:0.335819" />
  <path
     class="Note"
     d="m 330.80118,373.49079 c 0,1.44298 1.03893,3.05386 3.76222,3.05386 3.4894,0 7.15191,-2.85447 7.15191,-5.80862 0,-1.98344 -1.67911,-3.09059 -3.76222,-3.09059 -3.25849,0 -7.15191,2.75476 -7.15191,5.84535"
     id="path93"
     style="stroke-width:0.335819" />
  <path
     class="Note"
     d="m 394.17695,390.28178 c 0,1.44295 1.03894,3.05384 3.76222,3.05384 3.48938,0 7.15192,-2.85446 7.15192,-5.80862 0,-1.98344 -1.67911,-3.0906 -3.76224,-3.0906 -3.25849,0 -7.1519,2.75479 -7.1519,5.84538"
     id="path94"
     style="stroke-width:0.335819" />
  <path
     class="Note"
     d="m 457.55272,381.88628 c 0,1.44298 1.03894,3.05386 3.76223,3.05386 3.48938,0 7.15191,-2.85446 7.15191,-5.80863 0,-1.98343 -1.6791,-3.09058 -3.76223,-3.09058 -3.25851,0 -7.15191,2.75477 -7.15191,5.84535"
     id="path95"
     style="stroke-width:0.335819" />
  <path
     class="Note"
     d="m 332.86382,755.48546 c 0,1.44298 1.03895,3.05386 3.76223,3.05386 3.4894,0 7.15191,-2.85446 7.15191,-5.80862 0,-1.98345 -1.67909,-3.09059 -3.76223,-3.09059 -3.25849,0 -7.15191,2.75475 -7.15191,5.84535"
     id="path96"
     style="stroke-width:0.335819" />
  <path
     class="Note"
     d="m 520.93188,377.68854 c 0,1.44297 1.03894,3.05385 3.76223,3.05385 3.48937,0 7.15191,-2.85447 7.15191,-5.80862 0,-1.98343 -1.67911,-3.09059 -3.76224,-3.09059 -3.25849,0 -7.1519,2.75477 -7.1519,5.84536"
     id="path97"
     style="stroke-width:0.335819" />
  <path
     class="Note"
     d="m 382.72083,755.48546 c 0,1.44298 1.03895,3.05386 3.76222,3.05386 3.4894,0 7.15193,-2.85446 7.15193,-5.80862 0,-1.98345 -1.67911,-3.09059 -3.76223,-3.09059 -3.2585,0 -7.15192,2.75475 -7.15192,5.84535"
     id="path98"
     style="stroke-width:0.335819" />
  <path
     class="Note"
     d="m 603.88353,367.64544 c -3.2585,0 -7.15191,2.72329 -7.15191,5.84535 0,1.44298 1.03894,3.05386 3.76223,3.05386 3.48937,0 7.1519,-2.85447 7.1519,-5.80862 0,-1.98344 -1.67909,-3.09059 -3.76222,-3.09059 m -4.63326,7.31981 c -1.10716,0 -1.34329,-0.90251 -1.34329,-1.20685 0,-1.64761 5.64072,-4.53357 7.22013,-4.53357 0.80807,0 1.34327,0.47225 1.34327,1.20686 0,1.6791 -5.67744,4.53356 -7.22011,4.53356"
     id="path99"
     style="stroke-width:0.335819" />
  <path
     class="Note"
     d="m 432.57615,759.68322 c 0,1.44295 1.03894,3.05384 3.76222,3.05384 3.48938,0 7.15191,-2.85446 7.15191,-5.80862 0,-1.98344 -1.67911,-3.0906 -3.76222,-3.0906 -3.2585,0 -7.15191,2.75479 -7.15191,5.84538"
     id="path100"
     style="stroke-width:0.335819" />
  <path
     class="Note"
     d="m 698.94888,376.04093 c -3.25849,0 -7.1519,2.72327 -7.1519,5.84535 0,1.44298 1.03894,3.05386 3.76222,3.05386 3.48937,0 7.1519,-2.85446 7.1519,-5.80863 0,-1.98343 -1.67909,-3.09058 -3.76222,-3.09058 m -4.63325,7.3198 c -1.10716,0 -1.3433,-0.90251 -1.3433,-1.20684 0,-1.64761 5.64072,-4.53356 7.22014,-4.53356 0.80806,0 1.34326,0.47224 1.34326,1.20685 0,1.6791 -5.67744,4.53355 -7.2201,4.53355"
     id="path101"
     style="stroke-width:0.335819" />
  <path
     class="Note"
     d="m 482.43451,755.48546 c 0,1.44298 1.03894,3.05386 3.76223,3.05386 3.48937,0 7.15189,-2.85446 7.15189,-5.80862 0,-1.98345 -1.67909,-3.09059 -3.76221,-3.09059 -3.2585,0 -7.15191,2.75475 -7.15191,5.84535"
     id="path102"
     style="stroke-width:0.335819" />
  <path
     class="Note"
     d="m 806.43819,384.4364 c -3.2585,0 -7.15189,2.72329 -7.15189,5.84538 0,1.44295 1.03893,3.05384 3.76222,3.05384 3.48938,0 7.1519,-2.85446 7.1519,-5.80862 0,-1.98344 -1.67909,-3.0906 -3.76223,-3.0906 m -4.63326,7.31983 c -1.10714,0 -1.34327,-0.90252 -1.34327,-1.20686 0,-1.64761 5.64071,-4.53355 7.22011,-4.53355 0.80807,0 1.34329,0.47223 1.34329,1.20683 0,1.67911 -5.67746,4.53358 -7.22013,4.53358"
     id="path103"
     style="stroke-width:0.335819" />
  <path
     class="Note"
     d="m 901.50355,376.04093 c -3.2585,0 -7.1519,2.72327 -7.1519,5.84535 0,1.44298 1.03893,3.05386 3.76222,3.05386 3.48938,0 7.15191,-2.85446 7.15191,-5.80863 0,-1.98343 -1.67911,-3.09058 -3.76223,-3.09058 m -4.63326,7.3198 c -1.10715,0 -1.34327,-0.90251 -1.34327,-1.20684 0,-1.64761 5.64071,-4.53356 7.22011,-4.53356 0.80806,0 1.34329,0.47224 1.34329,1.20685 0,1.6791 -5.67746,4.53355 -7.22013,4.53355"
     id="path104"
     style="stroke-width:0.335819" />
  <path
     class="Note"
     d="m 551.86874,745.44237 c -3.25849,0 -7.15191,2.72327 -7.15191,5.84535 0,1.44298 1.03895,3.05386 3.76224,3.05386 3.48936,0 7.1519,-2.85446 7.1519,-5.80863 0,-1.98343 -1.67909,-3.09058 -3.76223,-3.09058 m -4.63325,7.3198 c -1.10717,0 -1.34329,-0.90251 -1.34329,-1.20684 0,-1.64761 5.64073,-4.53356 7.22013,-4.53356 0.80805,0 1.34327,0.47224 1.34327,1.20685 0,1.6791 -5.67745,4.53355 -7.22011,4.53355"
     id="path105"
     style="stroke-width:0.335819" />
  <path
     class="Note"
     d="m 181.253,569.00596 c -4.63325,0 -6.28087,2.35073 -6.28087,4.53355 0,2.18283 1.64762,4.53357 6.28087,4.53357 4.63326,0 6.24416,-2.35074 6.24416,-4.53357 0,-2.18282 -1.6109,-4.53355 -6.24416,-4.53355 m 0.26761,7.99144 c -0.93926,0 -1.5794,-0.26759 -2.01491,-1.10715 -0.43554,-0.83954 -1.03894,-3.02237 -1.07568,-3.89865 -0.0681,-0.90777 0.26763,-1.44297 1.07568,-1.71059 0.40402,-0.13646 0.93925,-0.20464 1.47972,-0.20464 0.90251,0 1.51118,0.20464 1.97817,1.11241 0.47223,0.87102 1.1124,3.05386 1.1124,3.89341 0,1.64762 -1.21211,1.91521 -2.55538,1.91521"
     id="path106"
     style="stroke-width:0.335819" />
  <path
     class="Note"
     d="m 626.6529,753.83784 c -3.2585,0 -7.15191,2.72329 -7.15191,5.84538 0,1.44295 1.03895,3.05384 3.76223,3.05384 3.48937,0 7.15191,-2.85446 7.15191,-5.80862 0,-1.98344 -1.6791,-3.0906 -3.76223,-3.0906 m -4.63327,7.31983 c -1.10715,0 -1.34327,-0.90252 -1.34327,-1.20686 0,-1.64761 5.64072,-4.53355 7.22011,-4.53355 0.80808,0 1.34329,0.47223 1.34329,1.20683 0,1.67911 -5.67745,4.53358 -7.22013,4.53358"
     id="path107"
     style="stroke-width:0.335819" />
  <path
     class="Note"
     d="m 331.95691,574.98249 c 0,1.44298 1.03895,3.05386 3.76222,3.05386 3.48939,0 7.15191,-2.85447 7.15191,-5.80862 0,-1.98345 -1.6791,-3.09059 -3.76222,-3.09059 -3.25848,0 -7.15191,2.75475 -7.15191,5.84535"
     id="path108"
     style="stroke-width:0.335819" />
  <path
     class="Note"
     d="m 395.84588,570.78475 c 0,1.44298 1.03895,3.05386 3.76224,3.05386 3.48936,0 7.1519,-2.85447 7.1519,-5.80864 0,-1.98343 -1.67909,-3.09058 -3.76223,-3.09058 -3.25849,0 -7.15191,2.75477 -7.15191,5.84536"
     id="path109"
     style="stroke-width:0.335819" />
  <path
     class="Note"
     d="m 459.73623,570.78475 c 0,1.44298 1.03893,3.05386 3.76222,3.05386 3.48937,0 7.15191,-2.85447 7.15191,-5.80864 0,-1.98343 -1.6791,-3.09058 -3.76224,-3.09058 -3.25849,0 -7.15189,2.75477 -7.15189,5.84536"
     id="path110"
     style="stroke-width:0.335819" />
  <path
     class="Note"
     d="m 523.62656,574.98249 c 0,1.44298 1.03894,3.05386 3.76223,3.05386 3.48937,0 7.1519,-2.85447 7.1519,-5.80862 0,-1.98345 -1.67909,-3.09059 -3.76222,-3.09059 -3.2585,0 -7.15191,2.75475 -7.15191,5.84535"
     id="path111"
     style="stroke-width:0.335819" />
  <path
     class="Note"
     d="m 713.8644,762.23333 c -3.25849,0 -7.15191,2.72329 -7.15191,5.84536 0,1.44297 1.03895,3.05387 3.76224,3.05387 3.48938,0 7.15191,-2.85447 7.15191,-5.80863 0,-1.98344 -1.6791,-3.0906 -3.76224,-3.0906 m -4.63325,7.31983 c -1.10715,0 -1.34328,-0.90252 -1.34328,-1.20685 0,-1.64762 5.64072,-4.53358 7.22012,-4.53358 0.80807,0 1.34328,0.47226 1.34328,1.20685 0,1.67911 -5.67746,4.53358 -7.22012,4.53358"
     id="path112"
     style="stroke-width:0.335819" />
  <path
     class="Note"
     d="m 607.09615,573.33487 c -3.2585,0 -7.1519,2.72329 -7.1519,5.84535 0,1.44298 1.03894,3.05387 3.76223,3.05387 3.48937,0 7.15191,-2.85447 7.15191,-5.80862 0,-1.98344 -1.67911,-3.0906 -3.76224,-3.0906 m -4.63326,7.31982 c -1.10715,0 -1.34327,-0.90251 -1.34327,-1.20685 0,-1.64761 5.64072,-4.53358 7.22011,-4.53358 0.80806,0 1.34329,0.47226 1.34329,1.20686 0,1.67911 -5.67745,4.53357 -7.22013,4.53357"
     id="path113"
     style="stroke-width:0.335819" />
  <path
     class="Note"
     d="m 788.64857,758.0356 c -3.25851,0 -7.15191,2.72327 -7.15191,5.84536 0,1.44297 1.03894,3.05386 3.76223,3.05386 3.48937,0 7.1519,-2.85447 7.1519,-5.80865 0,-1.98343 -1.67909,-3.09057 -3.76222,-3.09057 m -4.63327,7.3198 c -1.10716,0 -1.34328,-0.90251 -1.34328,-1.20684 0,-1.64761 5.64074,-4.53356 7.22013,-4.53356 0.80806,0 1.34327,0.47225 1.34327,1.20685 0,1.6791 -5.67744,4.53355 -7.22012,4.53355"
     id="path114"
     style="stroke-width:0.335819" />
  <path
     class="Note"
     d="m 721.43169,579.18022 c 0,1.44298 1.03894,3.05387 3.76222,3.05387 3.48938,0 7.15191,-2.85447 7.15191,-5.80862 0,-1.98344 -1.6791,-3.0906 -3.76222,-3.0906 -3.2585,0 -7.15191,2.75477 -7.15191,5.84535"
     id="path115"
     style="stroke-width:0.335819" />
  <path
     class="Note"
     d="m 236.32588,201.38264 c 0,1.44297 1.03894,3.05385 3.76222,3.05385 3.48939,0 7.15192,-2.85446 7.15192,-5.80863 0,-1.98344 -1.67911,-3.09058 -3.76223,-3.09058 -3.25848,0 -7.15191,2.75476 -7.15191,5.84536"
     id="path116"
     style="stroke-width:0.335819" />
  <path
     class="Note"
     d="m 314.96722,192.98714 c 0,1.44298 1.03894,3.05386 3.76223,3.05386 3.48938,0 7.15191,-2.85446 7.15191,-5.80862 0,-1.98345 -1.67911,-3.09059 -3.76223,-3.09059 -3.25849,0 -7.15191,2.75476 -7.15191,5.84535"
     id="path117"
     style="stroke-width:0.335819" />
  <path
     class="Note"
     d="m 874.98904,762.10216 c -4.63325,0 -6.28087,2.35073 -6.28087,4.53355 0,2.18284 1.64762,4.53357 6.28087,4.53357 4.63326,0 6.24414,-2.35073 6.24414,-4.53357 0,-2.18282 -1.61088,-4.53355 -6.24414,-4.53355 m 0.26761,7.99145 c -0.93924,0 -1.57941,-0.2676 -2.01492,-1.10715 -0.43551,-0.83956 -1.03894,-3.02237 -1.07567,-3.89866 -0.0681,-0.90776 0.2676,-1.44298 1.07567,-1.71058 0.40404,-0.13647 0.93925,-0.20464 1.4797,-0.20464 0.90253,0 1.5112,0.20464 1.97819,1.11241 0.47225,0.87104 1.1124,3.05385 1.1124,3.89341 0,1.64761 -1.21209,1.91521 -2.55537,1.91521"
     id="path118"
     style="stroke-width:0.335819" />
  <path
     class="Note"
     d="m 804.8979,564.93939 c -3.2585,0 -7.15191,2.72328 -7.15191,5.84536 0,1.44298 1.03895,3.05386 3.76224,3.05386 3.48936,0 7.15189,-2.85447 7.15189,-5.80864 0,-1.98343 -1.67909,-3.09058 -3.76222,-3.09058 m -4.63326,7.31981 c -1.10716,0 -1.34328,-0.90251 -1.34328,-1.20685 0,-1.64762 5.64071,-4.53356 7.22012,-4.53356 0.80806,0 1.34328,0.47225 1.34328,1.20686 0,1.67908 -5.67745,4.53355 -7.22012,4.53355"
     id="path119"
     style="stroke-width:0.335819" />
  <path
     class="Note"
     d="m 393.60822,188.7894 c 0,1.44298 1.03894,3.05386 3.76223,3.05386 3.48938,0 7.15191,-2.85447 7.15191,-5.80863 0,-1.98343 -1.6791,-3.09058 -3.76223,-3.09058 -3.2585,0 -7.15191,2.75476 -7.15191,5.84535"
     id="path120"
     style="stroke-width:0.335819" />
  <path
     class="Clef"
     d="m 154.79249,371.97961 c 0,-5.03729 -3.59432,-8.46371 -8.49518,-8.46371 -0.33584,-2.01491 -0.64015,-4.02983 -0.93923,-5.87684 3.52611,-3.73075 6.008,-7.95998 6.008,-13.26486 0,-3.09059 -0.93923,-5.54103 -1.51117,-6.753 -0.80281,-1.71067 -1.77881,-2.92297 -2.35075,-2.92297 -0.23087,0 -1.30653,0.44092 -2.38223,1.7476 -2.18283,2.55525 -2.78622,6.81596 -2.78622,9.63894 0,1.81552 0.16791,3.45789 0.73984,7.25685 -0.0367,0 -1.78404,1.7788 -2.48718,2.38223 -3.05909,2.82298 -7.28833,6.91577 -7.28833,13.60069 0,6.31236 5.47281,11.24994 11.72223,11.24994 0.97071,0 1.87846,-0.0996 2.68654,-0.23612 0.60341,3.22702 1.00746,5.57775 1.00746,7.35655 0,3.49462 -1.81554,5.34162 -5.17373,5.34162 -0.83954,0 -1.54265,-0.1679 -1.5794,-0.20464 -0.063,0 -0.13121,-0.0315 -0.13121,-0.063 0,-0.0681 0.0681,-0.10499 0.16791,-0.13646 1.57939,-0.23612 3.15354,-1.57939 3.15354,-3.72549 0,-1.81552 -1.37477,-3.73075 -3.89342,-3.73075 -2.31923,0 -3.83042,1.91523 -3.83042,4.12953 0,2.21957 1.6791,5.14224 6.21265,5.14224 4.33416,0 6.44878,-2.45568 6.44878,-6.75312 0,-1.30655 -0.19936,-2.81774 -0.53519,-4.73295 -0.0997,-0.67165 -0.26761,-1.71583 -0.50373,-2.9909 3.28997,-1.10715 5.7404,-4.50208 5.7404,-7.99145 m -10.34219,-27.50567 c 0.33581,-1.34327 1.84701,-4.86938 3.59434,-4.86938 0.50372,0 1.34327,1.61089 1.34327,3.96161 0,3.4579 -2.61836,6.0815 -4.93761,8.39549 -0.19938,-1.34326 -0.36729,-2.68656 -0.36729,-4.06132 0,-1.27504 0.13122,-2.38745 0.36729,-3.4264 m 1.00745,34.72583 c -4.80115,0 -8.89921,-3.35818 -8.89921,-8.43222 0,-4.09278 2.9227,-7.75532 5.84536,-10.34219 0.5667,-0.47223 1.10717,-0.97596 1.61091,-1.44296 0.29907,1.81028 0.57192,3.35819 0.7713,4.76967 -3.05908,0.87104 -5.13696,4.12954 -5.13696,7.2516 0,2.38748 1.847,5.60925 4.53356,5.60925 0.26759,0 0.57193,-0.13646 0.57193,-0.47225 0,-0.26761 -0.30434,-0.46699 -0.73983,-0.7346 -1.31181,-0.77659 -2.05167,-1.67911 -2.05167,-3.29523 0,-2.0464 1.54793,-3.69402 3.49461,-4.161 l 1.94672,11.01381 c -0.67165,0.16791 -1.27508,0.23612 -1.94672,0.23612 m 3.35819,-0.64015 c -0.7031,-3.9931 -1.61085,-9.33474 -1.84701,-10.81444 3.3897,0 4.83793,2.35074 5.137,3.96687 0.0367,0.26761 0.0997,0.63492 0.0997,1.03895 0,2.41894 -1.00745,4.86938 -3.38968,5.80862 m -1.31179,17.59905 c 0,-1.24359 -1.13862,-1.7788 -2.24578,-1.7788 -1.41149,0 -2.79151,0.87103 -2.79151,2.38223 0,0.64015 0.23613,1.11238 0.73985,1.57938 -0.87101,0.33583 -1.77879,1.00747 -1.77879,2.05166 0,1.10714 1.00746,1.847 2.48717,1.847 1.81027,0 3.08534,-1.00746 3.08534,-2.45567 0,-0.77134 -0.33581,-1.40625 -0.93926,-1.84701 0.976,-0.43552 1.44298,-0.97072 1.44298,-1.77879 m -2.07787,1.34327 c -0.50374,-0.26761 -0.64018,-0.33581 -0.73986,-0.40403 l -0.0367,-0.0315 c -0.53523,-0.30433 -0.70314,-0.54045 -0.70314,-0.93924 0,-0.60868 0.47227,-1.04419 1.1439,-1.04419 0.67164,0 1.03892,0.40403 1.03892,1.10715 0,0.54046 -0.19937,0.90776 -0.7031,1.3118 m -1.28031,4.02983 c -0.7346,0 -1.23834,-0.46699 -1.23834,-1.17536 0,-0.63492 0.29909,-1.20686 0.87102,-1.54268 0.13647,0.0681 0.16791,0.0996 0.26761,0.13123 0.40404,0.20464 0.40404,0.20464 0.47227,0.27285 0.67165,0.3673 0.90775,0.70311 0.90775,1.17536 0,0.63492 -0.54046,1.13864 -1.28031,1.13864"
     id="path121"
     style="stroke-width:0.335819" />
  <path
     class="Clef"
     d="m 154.79249,749.77653 c 0,-5.03729 -3.59432,-8.4637 -8.49518,-8.4637 -0.33584,-2.01492 -0.64015,-4.02983 -0.93923,-5.87684 3.52611,-3.73075 6.008,-7.95997 6.008,-13.26487 0,-3.0906 -0.93923,-5.54101 -1.51117,-6.75299 -0.80281,-1.71069 -1.77881,-2.92298 -2.35075,-2.92298 -0.23087,0 -1.30653,0.44094 -2.38223,1.74761 -2.18283,2.55525 -2.78622,6.81595 -2.78622,9.63895 0,1.81552 0.16791,3.45788 0.73984,7.25684 -0.0367,0 -1.78404,1.77879 -2.48718,2.38221 -3.05909,2.823 -7.28833,6.91579 -7.28833,13.6007 0,6.31235 5.47281,11.24996 11.72223,11.24996 0.97071,0 1.87846,-0.0997 2.68654,-0.23613 0.60341,3.22701 1.00746,5.57775 1.00746,7.35655 0,3.49462 -1.81554,5.34162 -5.17373,5.34162 -0.83954,0 -1.54265,-0.1679 -1.5794,-0.20463 -0.063,0 -0.13121,-0.0315 -0.13121,-0.063 0,-0.0682 0.0681,-0.105 0.16791,-0.13647 1.57939,-0.23612 3.15354,-1.5794 3.15354,-3.72549 0,-1.81552 -1.37477,-3.73075 -3.89342,-3.73075 -2.31923,0 -3.83042,1.91523 -3.83042,4.12953 0,2.21955 1.6791,5.14224 6.21265,5.14224 4.33416,0 6.44878,-2.45568 6.44878,-6.75312 0,-1.30654 -0.19936,-2.81774 -0.53519,-4.73297 -0.0997,-0.67163 -0.26761,-1.71581 -0.50373,-2.99088 3.28997,-1.10716 5.7404,-4.50208 5.7404,-7.99146 M 144.45026,722.2708 c 0.33581,-1.34328 1.84701,-4.86938 3.59434,-4.86938 0.50372,0 1.34327,1.61089 1.34327,3.96161 0,3.4579 -2.61836,6.08148 -4.93761,8.39549 -0.19938,-1.34328 -0.36729,-2.68655 -0.36729,-4.06131 0,-1.27507 0.13122,-2.38747 0.36729,-3.42641 m 1.00745,34.72584 c -4.80115,0 -8.89921,-3.3582 -8.89921,-8.43223 0,-4.09279 2.9227,-7.75533 5.84536,-10.34219 0.5667,-0.47224 1.10717,-0.97596 1.61091,-1.44297 0.29907,1.81027 0.57192,3.35819 0.7713,4.76969 -3.05908,0.87102 -5.13696,4.12952 -5.13696,7.25159 0,2.38747 1.847,5.60925 4.53356,5.60925 0.26759,0 0.57193,-0.13646 0.57193,-0.47225 0,-0.26761 -0.30434,-0.467 -0.73983,-0.7346 -1.31181,-0.77659 -2.05167,-1.6791 -2.05167,-3.29523 0,-2.0464 1.54793,-3.69401 3.49461,-4.16102 l 1.94672,11.01383 c -0.67165,0.16791 -1.27508,0.23613 -1.94672,0.23613 m 3.35819,-0.64016 c -0.7031,-3.9931 -1.61085,-9.33473 -1.84701,-10.81444 3.3897,0 4.83793,2.35073 5.137,3.96687 0.0367,0.2676 0.0997,0.6349 0.0997,1.03895 0,2.41894 -1.00745,4.86938 -3.38968,5.80862 m -1.31179,17.59904 c 0,-1.24359 -1.13862,-1.7788 -2.24578,-1.7788 -1.41149,0 -2.79151,0.87104 -2.79151,2.38222 0,0.64016 0.23613,1.11241 0.73985,1.57941 -0.87101,0.33582 -1.77879,1.00746 -1.77879,2.05165 0,1.10714 1.00746,1.847 2.48717,1.847 1.81027,0 3.08534,-1.00746 3.08534,-2.45569 0,-0.77133 -0.33581,-1.40623 -0.93926,-1.847 0.976,-0.43551 1.44298,-0.97073 1.44298,-1.77879 m -2.07787,1.34328 c -0.50374,-0.26762 -0.64018,-0.33583 -0.73986,-0.40403 l -0.0367,-0.0315 c -0.53523,-0.30434 -0.70314,-0.54046 -0.70314,-0.93925 0,-0.60867 0.47227,-1.04418 1.1439,-1.04418 0.67164,0 1.03892,0.40403 1.03892,1.10715 0,0.54046 -0.19937,0.90776 -0.7031,1.31179 m -1.28031,4.02984 c -0.7346,0 -1.23834,-0.467 -1.23834,-1.17537 0,-0.63491 0.29909,-1.20684 0.87102,-1.54268 0.13647,0.0681 0.16791,0.0997 0.26761,0.13122 0.40404,0.20464 0.40404,0.20464 0.47227,0.27284 0.67165,0.36732 0.90775,0.70314 0.90775,1.17538 0,0.6349 -0.54046,1.13864 -1.28031,1.13864"
     id="path122"
     style="stroke-width:0.335819" />
  <path
     class="Clef"
     d="m 196.76993,183.08047 c 0,-5.03731 -3.5943,-8.46371 -8.49519,-8.46371 -0.33581,-2.01492 -0.64014,-4.02983 -0.93922,-5.87684 3.5261,-3.73075 6.00801,-7.95996 6.00801,-13.26486 0,-3.09059 -0.93925,-5.54103 -1.51119,-6.753 -0.80281,-1.71067 -1.7788,-2.92297 -2.35073,-2.92297 -0.23088,0 -1.30655,0.44092 -2.38224,1.7476 -2.18283,2.55525 -2.78623,6.81596 -2.78623,9.63893 0,1.81553 0.16791,3.4579 0.73985,7.25686 -0.0367,0 -1.78405,1.7788 -2.48718,2.38223 -3.05907,2.82296 -7.28833,6.91577 -7.28833,13.60068 0,6.31238 5.47282,11.24996 11.72222,11.24996 0.97071,0 1.87846,-0.0997 2.68655,-0.23611 0.6034,3.22699 1.00747,5.57773 1.00747,7.35653 0,3.49465 -1.81556,5.34164 -5.17374,5.34164 -0.83955,0 -1.54266,-0.16791 -1.5794,-0.20464 -0.063,0 -0.13122,-0.0315 -0.13122,-0.063 0,-0.0681 0.0682,-0.105 0.16791,-0.13646 1.57939,-0.23612 3.15354,-1.5794 3.15354,-3.72549 0,-1.81553 -1.37477,-3.73075 -3.89341,-3.73075 -2.31925,0 -3.83044,1.91522 -3.83044,4.12954 0,2.21956 1.6791,5.14223 6.21267,5.14223 4.33416,0 6.44877,-2.45567 6.44877,-6.75313 0,-1.30655 -0.19937,-2.81772 -0.53519,-4.73294 -0.0997,-0.67164 -0.26762,-1.71583 -0.50373,-2.99091 3.28996,-1.10716 5.74038,-4.50205 5.74038,-7.99144 m -10.34219,-27.50571 c 0.33582,-1.34328 1.84702,-4.86939 3.59435,-4.86939 0.50374,0 1.34327,1.61086 1.34327,3.96159 0,3.45791 -2.61834,6.0815 -4.93762,8.39549 -0.19938,-1.34326 -0.36728,-2.68656 -0.36728,-4.0613 0,-1.27507 0.13121,-2.38747 0.36728,-3.42639 m 1.00747,34.72581 c -4.80116,0 -8.89922,-3.35819 -8.89922,-8.4322 0,-4.09283 2.9227,-7.75534 5.84537,-10.34219 0.5667,-0.47226 1.10716,-0.97598 1.6109,-1.44297 0.29906,1.81026 0.57192,3.35818 0.7713,4.76967 -3.05907,0.87103 -5.13697,4.12954 -5.13697,7.2516 0,2.38747 1.84702,5.60924 4.53358,5.60924 0.26757,0 0.57193,-0.13646 0.57193,-0.47223 0,-0.26762 -0.30436,-0.46702 -0.73984,-0.73462 -1.31182,-0.77657 -2.05166,-1.6791 -2.05166,-3.29522 0,-2.04641 1.54792,-3.69404 3.49461,-4.16104 l 1.94671,11.01384 c -0.67164,0.16793 -1.27507,0.23612 -1.94671,0.23612 m 3.35818,-0.64014 c -0.7031,-3.99311 -1.61085,-9.33474 -1.84699,-10.81446 3.38969,0 4.83791,2.35075 5.13699,3.96688 0.0367,0.26762 0.0997,0.63492 0.0997,1.03895 0,2.41895 -1.00745,4.86938 -3.38971,5.80863 m -1.31177,17.59902 c 0,-1.24357 -1.13863,-1.77876 -2.24579,-1.77876 -1.41147,0 -2.79149,0.87102 -2.79149,2.38221 0,0.64017 0.23611,1.11238 0.73984,1.57939 -0.87102,0.33582 -1.7788,1.00746 -1.7788,2.05165 0,1.10716 1.00745,1.847 2.48718,1.847 1.81027,0 3.08533,-1.00745 3.08533,-2.45567 0,-0.77135 -0.33581,-1.40624 -0.93925,-1.84701 0.976,-0.43552 1.44298,-0.97073 1.44298,-1.77881 m -2.07789,1.34329 c -0.50372,-0.26759 -0.64016,-0.33582 -0.73983,-0.40403 l -0.0367,-0.0315 c -0.53522,-0.30435 -0.70314,-0.54047 -0.70314,-0.93926 0,-0.60868 0.47226,-1.04419 1.1439,-1.04419 0.67165,0 1.03894,0.40403 1.03894,1.10716 0,0.54046 -0.19938,0.90775 -0.70313,1.31178 m -1.2803,4.02983 c -0.73461,0 -1.23833,-0.46699 -1.23833,-1.17536 0,-0.6349 0.29909,-1.20684 0.87101,-1.54266 0.13646,0.0681 0.16791,0.0997 0.26761,0.13123 0.40404,0.20465 0.40404,0.20465 0.47227,0.27285 0.67164,0.36731 0.90774,0.70314 0.90774,1.17536 0,0.63492 -0.54046,1.13864 -1.2803,1.13864"
     id="path123"
     style="stroke-width:0.335819" />
  <path
     class="Clef"
     d="m 154.79249,560.87808 c 0,-5.03731 -3.59432,-8.46371 -8.49518,-8.46371 -0.33584,-2.01491 -0.64015,-4.02984 -0.93923,-5.87684 3.52611,-3.73075 6.008,-7.95998 6.008,-13.26487 0,-3.09058 -0.93923,-5.54102 -1.51117,-6.75299 -0.80281,-1.71069 -1.77881,-2.92298 -2.35075,-2.92298 -0.23087,0 -1.30653,0.44093 -2.38223,1.74761 -2.18283,2.55525 -2.78622,6.81596 -2.78622,9.63894 0,1.81552 0.16791,3.45789 0.73984,7.25685 -0.0367,0 -1.78404,1.7788 -2.48718,2.38221 -3.05909,2.823 -7.28833,6.91578 -7.28833,13.60069 0,6.31236 5.47281,11.24996 11.72223,11.24996 0.97071,0 1.87846,-0.0997 2.68654,-0.23612 0.60341,3.22701 1.00746,5.57774 1.00746,7.35654 0,3.49462 -1.81554,5.34163 -5.17373,5.34163 -0.83954,0 -1.54265,-0.16791 -1.5794,-0.20464 -0.063,0 -0.13121,-0.0315 -0.13121,-0.063 0,-0.0681 0.0681,-0.105 0.16791,-0.13646 1.57939,-0.23613 3.15354,-1.57939 3.15354,-3.7255 0,-1.81552 -1.37477,-3.73074 -3.89342,-3.73074 -2.31923,0 -3.83042,1.91522 -3.83042,4.12953 0,2.21956 1.6791,5.14224 6.21265,5.14224 4.33416,0 6.44878,-2.45568 6.44878,-6.75313 0,-1.30654 -0.19936,-2.81773 -0.53519,-4.73294 -0.0997,-0.67165 -0.26761,-1.71583 -0.50373,-2.9909 3.28997,-1.10715 5.7404,-4.50208 5.7404,-7.99145 m -10.34219,-27.50567 c 0.33581,-1.34329 1.84701,-4.86938 3.59434,-4.86938 0.50372,0 1.34327,1.61088 1.34327,3.96161 0,3.45789 -2.61836,6.08149 -4.93761,8.39549 -0.19938,-1.34327 -0.36729,-2.68656 -0.36729,-4.06132 0,-1.27507 0.13122,-2.38746 0.36729,-3.4264 m 1.00745,34.72583 c -4.80115,0 -8.89921,-3.35819 -8.89921,-8.43222 0,-4.0928 2.9227,-7.75532 5.84536,-10.34219 0.5667,-0.47224 1.10717,-0.97597 1.61091,-1.44298 0.29907,1.81028 0.57192,3.3582 0.7713,4.76969 -3.05908,0.87104 -5.13696,4.12953 -5.13696,7.2516 0,2.38748 1.847,5.60924 4.53356,5.60924 0.26759,0 0.57193,-0.13645 0.57193,-0.47224 0,-0.26761 -0.30434,-0.467 -0.73983,-0.7346 -1.31181,-0.7766 -2.05167,-1.67911 -2.05167,-3.29524 0,-2.0464 1.54793,-3.69401 3.49461,-4.16102 l 1.94672,11.01384 c -0.67165,0.1679 -1.27508,0.23612 -1.94672,0.23612 m 3.35819,-0.64015 c -0.7031,-3.99311 -1.61085,-9.33474 -1.84701,-10.81445 3.3897,0 4.83793,2.35075 5.137,3.96688 0.0367,0.26761 0.0997,0.63491 0.0997,1.03894 0,2.41895 -1.00745,4.86938 -3.38968,5.80863 m -1.31179,17.59903 c 0,-1.24357 -1.13862,-1.77879 -2.24578,-1.77879 -1.41149,0 -2.79151,0.87103 -2.79151,2.38221 0,0.64017 0.23613,1.11241 0.73985,1.57941 -0.87101,0.33582 -1.77879,1.00746 -1.77879,2.05165 0,1.10715 1.00746,1.84701 2.48717,1.84701 1.81027,0 3.08534,-1.00746 3.08534,-2.45567 0,-0.77135 -0.33581,-1.40626 -0.93926,-1.84702 0.976,-0.43551 1.44298,-0.97073 1.44298,-1.7788 m -2.07787,1.34329 c -0.50374,-0.26761 -0.64018,-0.33582 -0.73986,-0.40403 l -0.0367,-0.0315 c -0.53523,-0.30434 -0.70314,-0.54045 -0.70314,-0.93923 0,-0.60868 0.47227,-1.04419 1.1439,-1.04419 0.67164,0 1.03892,0.40402 1.03892,1.10715 0,0.54046 -0.19937,0.90776 -0.7031,1.31179 m -1.28031,4.02983 c -0.7346,0 -1.23834,-0.46699 -1.23834,-1.17537 0,-0.6349 0.29909,-1.20684 0.87102,-1.54266 0.13647,0.0681 0.16791,0.0997 0.26761,0.13122 0.40404,0.20464 0.40404,0.20464 0.47227,0.27286 0.67165,0.3673 0.90775,0.70311 0.90775,1.17536 0,0.63491 -0.54046,1.13863 -1.28031,1.13863"
     id="path124"
     style="stroke-width:0.335819" />
  <path
     class="TimeSig"
     d="m 211.67716,170.65514 v 2.48193 h -2.78624 c -0.23613,0 -0.47223,0.20462 -0.47223,0.47223 v 0.64018 c 0,0.26758 0.2361,0.46698 0.47223,0.46698 h 10.17429 c 0.27285,0 0.47223,-0.1994 0.47223,-0.46698 v -0.64018 c 0,-0.26761 -0.19938,-0.47223 -0.47223,-0.47223 h -2.98564 v -2.48193 h 2.98564 c 0.27285,0 0.47223,-0.23612 0.47223,-0.50373 v -0.64014 c 0,-0.23613 -0.19938,-0.46701 -0.47223,-0.46701 h -2.98564 v -5.34163 c 0,-0.1994 -0.0997,-0.3673 -0.26762,-0.43552 l -0.40402,-0.20464 c -0.0683,-0.0315 -0.16791,-0.063 -0.23616,-0.063 -0.0996,0.0315 -0.2361,0.063 -0.3043,0.13122 l -3.05388,2.78625 c -0.0996,0.105 -0.13647,0.23612 -0.13647,0.37255 v 2.75477 h -3.86191 c 0,0 3.73076,-4.02983 7.69236,-9.33999 0.13646,-0.16792 0.1679,-0.33583 0.1679,-0.46699 0,-0.16791 -0.0681,-0.30433 -0.0996,-0.33583 L 214.836,158.1616 c -0.0681,-0.0681 -0.19938,-0.13645 -0.33581,-0.13645 -0.19938,0 -4.7382,0 -4.96906,0 -0.27287,0 -0.44077,0.20465 -0.47227,0.40405 0,0 -0.1679,2.48714 -1.03894,5.20519 -0.87629,2.72328 -1.88374,4.40239 -2.75477,5.64073 0,0 -0.0997,0.1679 -0.0997,0.37254 0,0.0682 0,0.13122 0.0315,0.19939 0.13647,0.23613 0.33582,0.60345 0.33582,0.60345 0,0 0.0681,0.20462 0.36731,0.20462 h 5.77714"
     id="path125"
     style="stroke-width:0.335819" />
  <path
     class="TimeSig"
     d="m 211.67716,187.44612 v 2.48193 h -2.78624 c -0.23613,0 -0.47223,0.20463 -0.47223,0.47223 v 0.64018 c 0,0.26757 0.2361,0.46699 0.47223,0.46699 h 10.17429 c 0.27285,0 0.47223,-0.19942 0.47223,-0.46699 v -0.64018 c 0,-0.2676 -0.19938,-0.47223 -0.47223,-0.47223 h -2.98564 v -2.48193 h 2.98564 c 0.27285,0 0.47223,-0.23613 0.47223,-0.50374 v -0.64015 c 0,-0.23612 -0.19938,-0.467 -0.47223,-0.467 h -2.98564 v -5.34163 c 0,-0.19938 -0.0997,-0.3673 -0.26762,-0.4355 l -0.40402,-0.20464 c -0.0683,-0.0315 -0.16791,-0.063 -0.23616,-0.063 -0.0996,0.0315 -0.2361,0.063 -0.3043,0.13122 l -3.05388,2.78625 c -0.0996,0.105 -0.13647,0.23612 -0.13647,0.37255 v 2.75477 h -3.86191 c 0,0 3.73076,-4.02984 7.69236,-9.34 0.13646,-0.1679 0.1679,-0.33582 0.1679,-0.46699 0,-0.1679 -0.0681,-0.30432 -0.0996,-0.33581 l -0.73987,-0.73984 c -0.0681,-0.0682 -0.19938,-0.13647 -0.33581,-0.13647 -0.19938,0 -4.7382,0 -4.96906,0 -0.27287,0 -0.44077,0.20465 -0.47227,0.40406 0,0 -0.1679,2.48715 -1.03894,5.2052 -0.87629,2.72329 -1.88374,4.40238 -2.75477,5.64071 0,0 -0.0997,0.16791 -0.0997,0.37255 0,0.0681 0,0.13122 0.0315,0.19941 0.13647,0.2361 0.33582,0.60342 0.33582,0.60342 0,0 0.0681,0.20463 0.36731,0.20463 h 5.77714"
     id="path126"
     style="stroke-width:0.335819" />
  <path
     class="Fingering"
     d="m 491.39873,144.38625 -2.46448,0.20075 -0.0542,0.49187 h 0.3216 c 0.5552,0 0.77525,0.12183 0.77525,0.41808 0,0.13205 -0.0373,0.32261 -0.12184,0.5975 l -1.72987,5.87143 c -0.27759,0.97867 -0.28775,0.98918 -1.20854,1.0315 l -0.0575,0.48679 h 3.25324 l 0.0542,-0.48679 h -0.16588 c -0.64997,0 -0.86664,-0.0792 -0.86664,-0.35445 0,-0.10555 0.0575,-0.33853 0.15235,-0.67705 l 0.66351,-2.20551 c 0.36561,0.93603 0.71768,1.18992 1.61139,1.18992 2.19028,0 3.5173,-2.38018 3.5173,-4.35854 0,-0.66113 -0.13205,-1.1107 -0.44346,-1.50204 -0.35546,-0.43401 -0.89372,-0.70346 -1.42182,-0.70346 -0.69398,0 -1.40827,0.40724 -2.01763,1.15301 l 0.20312,-1.15301 m 1.39473,0.71936 c 0.60936,0 1.01559,0.47056 1.01559,1.18993 0,0.74578 -0.2302,1.66622 -0.63982,2.50205 -0.47055,1.01558 -1.01559,1.47565 -1.72989,1.47565 -0.66689,0 -1.13744,-0.5237 -1.13744,-1.24307 0,-1.21633 0.95804,-3.92456 2.49156,-3.92456"
     id="path127"
     style="stroke-width:0.338528" />
  <path
     class="Fingering"
     d="m 399.52569,144.38625 -2.46448,0.20075 -0.0542,0.49187 h 0.3216 c 0.55518,0 0.77184,0.12183 0.77184,0.41808 0,0.13205 -0.0373,0.32261 -0.12184,0.5975 l -1.72647,5.87143 c -0.27761,0.97867 -0.28776,0.98918 -1.20855,1.0315 l -0.0575,0.48679 h 3.25326 l 0.0542,-0.48679 h -0.16589 c -0.64997,0 -0.86663,-0.0792 -0.86663,-0.35445 0,-0.10555 0.0575,-0.33853 0.15235,-0.67705 l 0.6635,-2.20551 c 0.36222,0.93603 0.71768,1.18992 1.61139,1.18992 2.19028,0 3.51731,-2.38018 3.51731,-4.35854 0,-0.66113 -0.13204,-1.1107 -0.44347,-1.50204 -0.35546,-0.43401 -0.89372,-0.70346 -1.42182,-0.70346 -0.69398,0 -1.40827,0.40724 -2.01762,1.15301 l 0.20312,-1.15301 m 1.39472,0.71936 c 0.60936,0 1.01559,0.47056 1.01559,1.18993 0,0.74578 -0.23359,1.66622 -0.63981,2.50205 -0.47056,1.01558 -1.01559,1.47565 -1.72988,1.47565 -0.6669,0 -1.13746,-0.5237 -1.13746,-1.24307 0,-1.21633 0.95803,-3.92456 2.49156,-3.92456"
     id="path128"
     style="stroke-width:0.338528" />
  <path
     class="Fingering"
     d="m 320.88334,144.38625 -2.46484,0.20075 -0.0531,0.49187 h 0.32263 c 0.55552,0 0.77252,0.12183 0.77252,0.41808 0,0.13205 -0.0373,0.32261 -0.12183,0.5975 l -1.72954,5.87143 c -0.27522,0.97867 -0.28572,0.98918 -1.20617,1.0315 l -0.0579,0.48679 h 3.25291 l 0.0529,-0.48679 h -0.16385 c -0.65065,0 -0.86765,-0.0792 -0.86765,-0.35445 0,-0.10555 0.0583,-0.33853 0.15336,-0.67705 l 0.66148,-2.20551 c 0.36492,0.93603 0.71937,1.18992 1.61309,1.18992 2.18993,0 3.51764,-2.38018 3.51764,-4.35854 0,-0.66113 -0.13232,-1.1107 -0.44448,-1.50204 -0.35445,-0.43401 -0.89373,-0.70346 -1.42284,-0.70346 -0.69297,0 -1.40692,0.40724 -2.01526,1.15301 l 0.20109,-1.15301 m 1.39642,0.71936 c 0.60835,0 1.01559,0.47056 1.01559,1.18993 0,0.74578 -0.23291,1.66622 -0.64016,2.50205 -0.47055,1.01558 -1.01558,1.47565 -1.72953,1.47565 -0.66656,0 -1.13746,-0.5237 -1.13746,-1.24307 0,-1.21633 0.9577,-3.92456 2.49156,-3.92456"
     id="path129"
     style="stroke-width:0.338528" />
  <path
     class="Fingering"
     d="m 242.24199,144.38625 -2.46516,0.20075 -0.0529,0.49187 h 0.32262 c 0.55552,0 0.77252,0.12183 0.77252,0.41808 0,0.13205 -0.0373,0.32261 -0.12184,0.5975 l -1.72953,5.87143 c -0.27523,0.97867 -0.28571,0.98918 -1.20617,1.0315 l -0.0582,0.48679 h 3.25325 l 0.0529,-0.48679 h -0.16386 c -0.65064,0 -0.86764,-0.0792 -0.86764,-0.35445 0,-0.10555 0.0582,-0.33853 0.15335,-0.67705 l 0.66114,-2.20551 c 0.36527,0.93603 0.71938,1.18992 1.61343,1.18992 2.18994,0 3.51764,-2.38018 3.51764,-4.35854 0,-0.66113 -0.13231,-1.1107 -0.44447,-1.50204 -0.35445,-0.43401 -0.89373,-0.70346 -1.42284,-0.70346 -0.69297,0 -1.40692,0.40724 -2.01526,1.15301 l 0.20109,-1.15301 m 1.39642,0.71936 c 0.60834,0 1.01558,0.47056 1.01558,1.18993 0,0.74578 -0.2329,1.66622 -0.64015,2.50205 -0.47089,1.01558 -1.01558,1.47565 -1.72955,1.47565 -0.66655,0 -1.13744,-0.5237 -1.13744,-1.24307 0,-1.21633 0.95735,-3.92456 2.49156,-3.92456"
     id="path130"
     style="stroke-width:0.338528" />
  <path
     class="NoteDot"
     d="m 615.05274,573.571 c 0,0.93924 0.73984,1.6791 1.6791,1.6791 0.93924,0 1.67909,-0.73986 1.67909,-1.6791 0,-0.93924 -0.73985,-1.67911 -1.67909,-1.67911 -0.93926,0 -1.6791,0.73987 -1.6791,1.67911"
     id="path131"
     style="stroke-width:0.335819" />
  <path
     class="NoteDot"
     d="m 240.74468,754.07397 c 0,0.93924 0.73985,1.6791 1.6791,1.6791 0.93924,0 1.67909,-0.73986 1.67909,-1.6791 0,-0.93924 -0.73985,-1.67911 -1.67909,-1.67911 -0.93925,0 -1.6791,0.73987 -1.6791,1.67911"
     id="path132"
     style="stroke-width:0.335819" />
  <metadata
     id="metadata132">
    <rdf:RDF>
      <cc:Work
         rdf:about="">
        <dc:title>oh_when_the_saints</dc:title>
      </cc:Work>
    </rdf:RDF>
  </metadata>
</svg>
