<?xml version="1.0" encoding="UTF-8" standalone="no"?>
<svg
   width="297mm"
   height="210mm"
   viewBox="0 0 4209.4489 2976.3779"
   version="1.2"
   id="svg68"
   sodipodi:docname="string_number.svg"
   inkscape:version="1.2.2 (b0a8486541, 2022-12-01)"
   xmlns:inkscape="http://www.inkscape.org/namespaces/inkscape"
   xmlns:sodipodi="http://sodipodi.sourceforge.net/DTD/sodipodi-0.dtd"
   xmlns="http://www.w3.org/2000/svg"
   xmlns:svg="http://www.w3.org/2000/svg"
   xmlns:rdf="http://www.w3.org/1999/02/22-rdf-syntax-ns#"
   xmlns:cc="http://creativecommons.org/ns#"
   xmlns:dc="http://purl.org/dc/elements/1.1/">
  <defs
     id="defs72" />
  <sodipodi:namedview
     id="namedview70"
     pagecolor="#ffffff"
     bordercolor="#000000"
     borderopacity="0.25"
     inkscape:showpageshadow="2"
     inkscape:pageopacity="0.0"
     inkscape:pagecheckerboard="0"
     inkscape:deskcolor="#d1d1d1"
     inkscape:document-units="mm"
     showgrid="false"
     inkscape:zoom="0.9652905"
     inkscape:cx="369.31887"
     inkscape:cy="342.90196"
     inkscape:window-width="1104"
     inkscape:window-height="552"
     inkscape:window-x="0"
     inkscape:window-y="32"
     inkscape:window-maximized="1"
     inkscape:current-layer="svg68" />
  <title
     id="title2">Partition sans titre</title>
  <desc
     id="desc4">Generated by MuseScore Studio 4.5.2</desc>
  <polyline
     class="StaffLines"
     fill="none"
     stroke="#000000"
     stroke-width="2.73"
     stroke-linejoin="bevel"
     points="336.598,634.198 2764.6,634.198"
     id="polyline6"
     transform="matrix(1.6300259,0,0,2.9423164,-456.82832,-621.59975)" />
  <polyline
     class="StaffLines"
     fill="none"
     stroke="#000000"
     stroke-width="2.73"
     stroke-linejoin="bevel"
     points="336.598,658.998 2764.6,658.998"
     id="polyline8"
     transform="matrix(1.6300259,0,0,2.9423164,-456.82832,-621.59975)" />
  <polyline
     class="StaffLines"
     fill="none"
     stroke="#000000"
     stroke-width="2.73"
     stroke-linejoin="bevel"
     points="336.598,683.798 2764.6,683.798"
     id="polyline10"
     transform="matrix(1.6300259,0,0,2.9423164,-456.82832,-621.59975)" />
  <polyline
     class="StaffLines"
     fill="none"
     stroke="#000000"
     stroke-width="2.73"
     stroke-linejoin="bevel"
     points="336.598,708.598 2764.6,708.598"
     id="polyline12"
     transform="matrix(1.6300259,0,0,2.9423164,-456.82832,-621.59975)" />
  <polyline
     class="StaffLines"
     fill="none"
     stroke="#000000"
     stroke-width="2.73"
     stroke-linejoin="bevel"
     points="336.598,733.398 2764.6,733.398"
     id="polyline14"
     transform="matrix(1.6300259,0,0,2.9423164,-456.82832,-621.59975)" />
  <polyline
     class="BarLine"
     fill="none"
     stroke="#000000"
     stroke-width="4.46"
     stroke-linejoin="bevel"
     points="2739.55,632.834 2739.55,734.762"
     id="polyline22"
     transform="matrix(1.6300259,0,0,2.9423164,-456.82832,-621.59975)" />
  <polyline
     class="BarLine"
     fill="none"
     stroke="#000000"
     stroke-width="13.64"
     stroke-linejoin="bevel"
     points="2757.78,632.834 2757.78,734.762"
     id="polyline24"
     transform="matrix(1.6300259,0,0,2.9423164,-456.82832,-621.59975)" />
  <polyline
     class="BarLine"
     fill="none"
     stroke="#000000"
     stroke-width="4.46"
     stroke-linejoin="bevel"
     points="1924.21,632.834 1924.21,734.762"
     id="polyline26"
     transform="matrix(2.4785978,0,0,2.9423164,-742.45584,-621.59975)" />
  <polyline
     class="Stem"
     fill="none"
     stroke="#000000"
     stroke-width="2.48"
     stroke-linejoin="bevel"
     points="536.765,650.765 536.765,733.398"
     id="polyline28"
     transform="matrix(2.4785978,0,0,2.9423164,-742.45584,-621.59975)" />
  <polyline
     class="Stem"
     fill="none"
     stroke="#000000"
     stroke-width="2.48"
     stroke-linejoin="bevel"
     points="1606.35,741.83 1606.35,658.998"
     id="polyline30"
     transform="matrix(2.4785978,0,0,2.9423164,-742.45584,-621.59975)" />
  <polyline
     class="Stem"
     fill="none"
     stroke="#000000"
     stroke-width="2.48"
     stroke-linejoin="bevel"
     points="883.379,687.965 883.379,758.198"
     id="polyline32"
     transform="matrix(2.4785978,0,0,2.9423164,-742.45584,-621.59975)" />
  <polyline
     class="Stem"
     fill="none"
     stroke="#000000"
     stroke-width="2.48"
     stroke-linejoin="bevel"
     points="1259.74,704.63 1259.74,621.798"
     id="polyline34"
     transform="matrix(2.4785978,0,0,2.9423164,-742.45584,-621.59975)" />
  <path
     class="Note"
     d="m 1444.0119,1402.6184 c 0,12.5416 7.6069,26.5426 27.5459,26.5426 25.5483,0 52.3642,-24.8096 52.3642,-50.4857 0,-17.2391 -12.2939,-26.8619 -27.5459,-26.8619 -23.8576,0 -52.3642,23.9431 -52.3642,50.805"
     id="path36"
     style="stroke-width:2.67892" />
  <path
     class="Note"
     d="m 3162.2281,1585.042 c 0,12.5416 7.6068,26.5426 27.5459,26.5426 25.5481,0 52.3641,-24.8096 52.3641,-50.4857 0,-17.239 -12.2939,-26.8619 -27.5459,-26.8619 -23.8577,0 -52.3641,23.9431 -52.3641,50.805"
     id="path38"
     style="stroke-width:2.67892" />
  <path
     class="Note"
     d="m 2303.1213,1475.5878 c 0,12.5416 7.6069,26.5427 27.5459,26.5427 25.5481,0 52.364,-24.8097 52.364,-50.4858 0,-17.239 -12.2937,-26.8619 -27.5458,-26.8619 -23.8578,0 -52.3641,23.9431 -52.3641,50.805"
     id="path40"
     style="stroke-width:2.67892" />
  <path
     class="Note"
     d="m 584.89528,1293.1642 c 0,12.5416 7.6068,26.5426 27.54584,26.5426 25.54832,0 52.36414,-24.8096 52.36414,-50.4857 0,-17.239 -12.29384,-26.8619 -27.54584,-26.8619 -23.85767,0 -52.36414,23.9431 -52.36414,50.805"
     id="path42"
     style="stroke-width:2.67892" />
  <path
     class="Clef"
     d="m 241.93547,1672.6053 c 0,-10.8086 -8.33669,-15.4602 -16.44302,-15.4602 -10.33444,0 -20.43852,7.5704 -20.43852,20.7049 0,5.5641 1.72877,9.6685 5.18653,13.7274 -6.41592,2.9188 -12.79345,8.7563 -12.79345,17.8319 0,9.6228 7.3763,16.0533 18.21035,16.0533 13.25426,0 22.58994,-8.7564 22.58994,-21.3436 0,-6.7041 -2.45875,-12.2224 -6.8769,-16.0533 7.14591,-3.7853 10.56507,-8.4371 10.56507,-15.4604 m -24.58769,46.7005 c -5.37857,0 -9.06672,-4.059 -9.06672,-10.2157 0,-5.8376 2.1898,-10.4894 6.37734,-13.4082 0.99896,0.5929 1.22938,0.5929 1.95938,1.1402 2.95815,1.7786 2.95815,1.7786 3.45776,2.3715 4.64854,3.1925 6.64629,6.1113 6.64629,10.2157 0,5.5183 -3.95713,9.8965 -9.37405,9.8965 m 9.37405,-35.0254 c -3.68815,-2.3257 -4.68713,-2.9187 -5.4169,-3.5116 l -0.49961,-0.2734 c -3.68816,-2.6452 -4.91754,-4.6975 -4.91754,-8.1636 0,-5.2902 3.45775,-9.0755 8.37528,-9.0755 4.64856,0 7.60672,3.5116 7.60672,9.6228 0,4.6976 -1.4598,7.8898 -5.14795,11.4015 m 68.57656,-221.5536 c 0,-44.0555 -26.31647,-73.836 -62.19923,-73.836 -2.45876,-17.5127 -4.68693,-34.7519 -6.8767,-51.0786 25.81709,-32.426 43.98885,-69.1842 43.98885,-115.2917 0,-26.5883 -6.87692,-48.1599 -11.06446,-58.6938 -5.87792,-14.8683 -13.02385,-25.084 -17.21138,-25.084 -1.69041,0 -9.56609,3.5114 -17.44199,14.8683 -15.982,22.209 -20.39994,59.241 -20.39994,83.7768 0,15.7798 1.22939,30.0543 5.4169,63.073 -0.26898,0 -13.0622,15.4605 -18.21035,20.7052 -22.39767,24.5359 -53.36292,60.1085 -53.36292,118.2105 0,54.8641 40.0703,97.7791 85.82653,97.7791 7.1073,0 13.75362,-0.8665 19.67015,-2.0521 4.41793,27.7738 7.3763,48.4789 7.3763,63.9393 0,30.3737 -13.29283,46.427 -38.11091,46.427 -5.91654,0 -11.06446,-1.4594 -11.56408,-1.7788 -0.2305,0 -0.72977,-0.2737 -0.72977,-0.5473 0,-0.5927 0.49937,-0.9121 1.22939,-1.1857 11.56383,-2.0523 23.0893,-14.0009 23.0893,-32.3802 0,-15.7797 -10.06568,-32.4258 -28.50645,-32.4258 -17.21139,0 -28.04524,16.6461 -28.04524,35.8918 0,19.2915 12.29385,44.6938 45.48724,44.6938 31.73337,0 47.21599,-21.3436 47.21599,-58.6948 0,-11.3559 -1.45977,-24.4904 -3.91854,-41.1364 -0.73003,-5.8375 -1.95941,-14.9133 -3.68815,-25.9955 24.08808,-9.6228 42.02946,-39.1297 42.02946,-69.1841 m -75.72246,-239.3398 c 2.45877,-11.6751 13.52323,-42.3223 26.31669,-42.3223 3.68815,0 9.83508,14.0009 9.83508,34.4323 0,30.0543 -19.1708,52.8572 -36.15177,72.9694 -1.45979,-11.6751 -2.68917,-23.3502 -2.68917,-35.2988 0,-11.0824 0.9604,-20.7507 2.68917,-29.7806 m 7.3763,301.8198 c -35.15253,0 -65.15731,-29.1877 -65.15731,-73.2886 0,-35.5728 21.13009,-67.4056 42.79799,-89.8893 4.14917,-4.1047 8.10633,-8.1634 11.79448,-12.5416 2.18977,15.7339 3.91854,29.1878 5.64731,41.4556 -22.39767,7.5707 -37.61131,35.892 -37.61131,63.0275 0,20.7507 13.52323,48.7527 33.19339,48.7527 1.95915,0 4.18751,-1.1856 4.18751,-4.1044 0,-2.326 -2.22836,-4.059 -5.4169,-6.3849 -9.60469,-6.7497 -15.02161,-14.5939 -15.02161,-28.6405 0,-17.7863 11.33346,-32.1067 25.58645,-36.1657 l 14.25324,95.727 c -4.91754,1.1859 -9.33569,2.0522 -14.25324,2.0522 m 24.5877,-5.5639 c -5.14795,-34.7061 -11.79423,-81.1329 -13.52323,-93.9939 24.8183,0 35.42174,20.4316 37.61154,34.4782 0.26897,2.3259 0.73,5.5183 0.73,9.03 0,21.0243 -7.37632,42.0488 -24.81831,50.4857"
     id="path44"
     style="stroke-width:2.67892" />
  <path
     class="TimeSig"
     d="m 404.44473,1354.4584 v 21.5719 h -20.40015 c -1.72877,0 -3.45752,1.7783 -3.45752,4.1044 v 5.564 c 0,2.3256 1.72875,4.0588 3.45752,4.0588 h 74.49306 c 1.99776,0 3.45755,-1.7332 3.45755,-4.0588 v -5.564 c 0,-2.3261 -1.45979,-4.1044 -3.45755,-4.1044 h -22.12892 v -21.5719 h 22.12892 c 1.99776,0 3.45755,-2.0521 3.45755,-4.3782 v -5.5638 c 0,-2.0522 -1.45979,-4.0589 -3.45755,-4.0589 h -22.12892 v -46.4268 c 0,-1.733 -0.72999,-3.1924 -1.6904,-3.7853 l -2.95814,-1.7786 c -0.4996,-0.2736 -0.73001,-0.2736 -1.22938,-0.2736 -0.269,0 -0.269,0 -0.4996,0 -0.72978,0 -1.72878,0.2736 -2.22817,0.8665 l -22.35952,24.2167 c -0.72978,0.9121 -0.99878,2.0523 -0.99878,3.238 v 23.9431 h -28.50641 c 0,0 27.54602,-35.0253 56.55164,-81.1786 0.99897,-1.4594 1.22939,-2.9188 1.22939,-4.059 0,-1.4593 -0.4994,-2.645 -0.72977,-2.9187 l -5.41715,-6.4303 c -0.72978,-0.5929 -1.4598,-1.1859 -2.45878,-1.1859 -1.45979,0 -34.69151,0 -36.65092,0 -1.72875,0 -2.95814,1.7786 -3.18877,3.5118 0,0 -1.22938,21.617 -7.60682,45.241 -6.41585,23.6695 -13.79215,38.2634 -20.16959,49.0264 0,0 -0.72993,1.4594 -0.72993,3.238 0,0.5929 0,1.1403 0.2305,1.733 0.72995,2.0523 2.45877,5.2449 2.45877,5.2449 0,0 0.49943,1.7783 2.68928,1.7783 h 42.29856"
     id="path46"
     style="stroke-width:2.67892" />
  <path
     class="TimeSig"
     d="m 404.44473,1500.3974 v 21.5718 h -20.40015 c -1.72877,0 -3.45752,1.7785 -3.45752,4.1044 v 5.564 c 0,2.3258 1.72875,4.0588 3.45752,4.0588 h 74.49306 c 1.99776,0 3.45755,-1.733 3.45755,-4.0588 v -5.564 c 0,-2.3259 -1.45979,-4.1044 -3.45755,-4.1044 h -22.12892 v -21.5718 h 22.12892 c 1.99776,0 3.45755,-2.0522 3.45755,-4.3781 v -5.564 c 0,-2.0522 -1.45979,-4.0589 -3.45755,-4.0589 h -22.12892 v -46.4268 c 0,-1.733 -0.72999,-3.1924 -1.6904,-3.7853 l -2.95814,-1.7786 c -0.4996,-0.2736 -0.73001,-0.2736 -1.22938,-0.2736 -0.269,0 -0.269,0 -0.4996,0 -0.72978,0 -1.72878,0.2736 -2.22817,0.8665 l -22.35952,24.2167 c -0.72978,0.9121 -0.99878,2.0523 -0.99878,3.238 v 23.9431 h -28.50641 c 0,0 27.54602,-35.0253 56.55164,-81.1786 0.99897,-1.4594 1.22939,-2.9188 1.22939,-4.059 0,-1.4594 -0.4994,-2.645 -0.72977,-2.9187 l -5.41715,-6.4303 c -0.72978,-0.5929 -1.4598,-1.1859 -2.45878,-1.1859 -1.45979,0 -34.69151,0 -36.65092,0 -1.72875,0 -2.95814,1.7786 -3.18877,3.5118 0,0 -1.22938,21.617 -7.60682,45.241 -6.41585,23.6695 -13.79215,38.2634 -20.16959,49.0264 0,0 -0.72993,1.4594 -0.72993,3.238 0,0.5929 0,1.1403 0.2305,1.733 0.72995,2.0523 2.45877,5.2448 2.45877,5.2448 0,0 0.49943,1.7785 2.68928,1.7785 h 42.29856"
     id="path48"
     style="stroke-width:2.67892" />
  <path
     class="Fingering"
     fill="none"
     stroke="#000000"
     stroke-width="6.6973"
     stroke-linecap="square"
     stroke-linejoin="miter"
     stroke-miterlimit="2"
     fill-rule="evenodd"
     d="m 1539.1076,1021.4222 c 0,42.5724 -29.0739,77.0887 -64.9392,77.0887 -35.8653,0 -64.9393,-34.5163 -64.9393,-77.0887 0,-42.57532 29.074,-77.08872 64.9393,-77.08872 35.8653,0 64.9392,34.5134 64.9392,77.08872"
     id="path52" />
  <path
     class="Fingering"
     d="m 1484.5112,1018.3544 c 12.393,-5.3315 18.1234,-13.6082 18.1234,-26.52502 0,-17.0124 -10.9206,-27.8608 -27.8048,-27.8608 -15.9572,0 -28.0775,11.172 -28.0775,25.8836 0,6.6643 3.6781,11.35442 8.9848,11.35442 4.7614,0 8.0555,-3.90742 8.0555,-9.70082 0,-3.5867 -1.0856,-5.6993 -4.2235,-8.2738 -1.393,-1.1505 -1.7797,-1.7948 -1.7797,-2.8982 0,-4.5518 7.8994,-9.3772 15.6846,-9.3772 9.7979,0 14.988,7.2646 14.988,21.0082 0,15.03522 -5.1901,22.98832 -14.8715,22.98832 -1.2021,0 -3.5246,-0.1854 -5.5768,-0.3207 -1.0856,-0.1854 -2.1689,-0.1854 -3.0214,-0.1854 -2.8281,0 -4.3376,1.4712 -4.3376,4.3664 0,2.7599 1.3558,4.0457 4.3376,4.0457 0.8525,0 1.9358,0 3.1378,-0.1353 2.7488,-0.1854 4.9176,-0.1854 6.4271,-0.1854 10.0705,0 15.5309,8.5974 15.5309,24.5948 0,16.8271 -6.8162,26.2072 -19.0927,26.2072 -8.5586,0 -17.8533,-5.4727 -17.8533,-10.4834 0,-1.4712 0.2701,-1.7919 2.8652,-3.5867 3.8343,-2.757 5.3067,-5.4698 5.3067,-9.5155 0,-5.8375 -3.6807,-10.2069 -8.561,-10.2069 -5.8868,0 -9.6815,5.6552 -9.6815,14.2526 0,15.6767 12.1228,26.5279 29.5895,26.5279 19.7495,0 32.5688,-12.9668 32.5688,-32.8715 0,-15.2177 -6.5435,-24.4124 -20.7186,-29.1025"
     id="path54"
     style="stroke-width:2.70052" />
  <path
     class="Fingering"
     fill="none"
     stroke="#000000"
     stroke-width="6.6973"
     stroke-linecap="square"
     stroke-linejoin="miter"
     stroke-miterlimit="2"
     fill-rule="evenodd"
     d="m 663.0752,1808.5624 c 0,41.7603 -28.52123,75.6175 -63.69996,75.6175 -35.18121,0 -63.69997,-33.8572 -63.69997,-75.6175 0,-41.7632 28.51876,-75.6175 63.69997,-75.6175 35.17873,0 63.69996,33.8543 63.69996,75.6175"
     id="path56" />
  <path
     class="Fingering"
     d="m 630.78355,1831.5259 h -5.96352 l -1.39544,8.2296 c -1.74246,10.5276 -2.86527,11.4927 -11.30737,11.4927 h -30.51898 c 9.41124,-11.631 12.54914,-15.0352 21.2639,-23.1266 12.39298,-11.3073 17.69718,-17.0095 20.83509,-21.8349 4.37472,-7.1263 6.5435,-14.2526 6.5435,-22.1615 0,-18.4807 -12.81683,-31.5829 -30.67265,-31.5829 -17.31053,0 -30.51649,13.1022 -30.51649,30.4354 0,10.2039 4.3772,17.1478 10.76702,17.1478 5.03404,0 8.4421,-4.0457 8.4421,-9.8862 0,-4.0457 -1.8986,-7.7677 -4.76386,-9.1947 -5.03404,-2.4363 -5.30668,-2.757 -5.30668,-4.8725 0,-2.4363 1.3558,-6.1612 3.2544,-8.8711 3.40808,-5.0578 9.02458,-7.7707 15.4144,-7.7707 11.30737,0 18.00702,8.2297 18.00702,21.8379 0,11.9517 -4.80105,22.803 -16.11089,37.0555 -10.06807,12.5961 -16.34139,20.5492 -18.66633,23.6298 -4.91753,6.7585 -7.35894,10.4805 -13.36212,19.8606 v 4.5518 h 61.4618 l 2.5951,-34.94"
     id="path58"
     style="stroke-width:2.70052" />
  <path
     class="Fingering"
     fill="none"
     stroke="#000000"
     stroke-width="6.6973"
     stroke-linecap="square"
     stroke-linejoin="miter"
     stroke-miterlimit="2"
     fill-rule="evenodd"
     d="m 2398.2747,1805.1434 c 0,41.7603 -28.5286,75.6176 -63.7,75.6176 -35.1713,0 -63.6999,-33.8573 -63.6999,-75.6176 0,-41.7632 28.5286,-75.6175 63.6999,-75.6175 35.1714,0 63.7,33.8543 63.7,75.6175"
     id="path60" />
  <path
     class="Fingering"
     d="m 2340.7853,1751.8601 -46.3001,76.5443 v 9.0594 h 38.2943 v 8.4121 c 0,8.2738 0,8.5974 -0.8427,10.0215 -1.0906,1.7948 -3.6932,2.298 -11.4264,2.298 h -1.5119 v 7.5882 h 39.8063 v -7.5882 h -0.5453 c -7.7828,0 -10.3854,-0.5032 -11.4511,-2.298 -0.818,-1.4241 -0.818,-1.6094 -0.818,-10.0215 v -8.4121 h 16.4827 v -9.0594 h -16.4827 v -44.1789 c 0,-20.2284 0,-20.6874 0.694,-32.3654 h -5.8991 m -8.0058,76.5443 h -30.0158 l 30.0158,-49.0072 v 49.0072"
     id="path62"
     style="stroke-width:2.70052" />
  <path
     class="Fingering"
     fill="none"
     stroke="#000000"
     stroke-width="6.6973"
     stroke-linecap="square"
     stroke-linejoin="miter"
     stroke-miterlimit="2"
     fill-rule="evenodd"
     d="m 3268.5847,1807.9622 c 0,42.5753 -29.0739,77.0887 -64.9393,77.0887 -35.8652,0 -64.9392,-34.5134 -64.9392,-77.0887 0,-42.5753 29.074,-77.0887 64.9392,-77.0887 35.8654,0 64.9393,34.5134 64.9393,77.0887"
     id="path64" />
  <path
     class="Fingering"
     d="m 3190.0643,1772.7736 c 7.3368,2.1155 11.0298,2.7599 16.4827,2.7599 11.575,0 20.0271,-4.69 24.563,-13.7465 1.4623,-2.9423 2.0076,-4.5518 2.0076,-5.8405 0,-0.9651 -0.2726,-1.4712 -1.0906,-1.4712 -0.3717,0 -0.917,0.1854 -1.7846,0.6444 -6.6426,3.4013 -10.1871,4.2311 -18.1186,4.2311 -8.6998,0 -14.1776,-0.9651 -28.0824,-4.8755 -0.5453,13.6083 -1.735,30.8944 -3.6684,50.9874 -2.8751,3.5397 -3.7923,5.6522 -3.7923,8.2268 0,3.4042 1.7846,5.5168 4.3376,5.5168 3.5692,0 5.6017,-3.4013 6.147,-9.8832 4.7589,-4.0457 9.2699,-5.7935 14.7228,-5.7935 12.269,0 19.4818,10.9896 19.4818,29.6086 0,16.8271 -4.4862,30.7089 -20.2998,30.7089 -8.1793,0 -16.6561,-5.0107 -16.6561,-10.0215 0,-1.1034 0.8675,-2.4362 2.4786,-3.5396 4.2384,-3.0806 5.4777,-5.1961 5.4777,-9.5625 0,-5.6552 -3.7179,-10.0216 -8.6008,-10.0216 -5.4776,0 -9.8399,5.9759 -9.8399,13.6083 0,8.0913 3.9409,16.1827 10.1126,21.1935 4.6102,3.5396 10.0631,5.3314 17.3006,5.3314 21.3904,0 34.8987,-14.894 34.8987,-38.662 0,-22.0232 -12.269,-36.7348 -30.8338,-36.7348 -5.8495,0 -10.0631,1.1033 -17.5733,4.8283 l 2.3299,-27.493"
     id="path66"
     style="stroke-width:2.70052" />
  <metadata
     id="metadata301">
    <rdf:RDF>
      <cc:Work
         rdf:about="">
        <dc:title>Partition sans titre</dc:title>
      </cc:Work>
    </rdf:RDF>
  </metadata>
  <text
     xml:space="preserve"
     style="font-size:120px;font-family:sans-serif;-inkscape-font-specification:sans-serif;fill:#000000;stroke:#000000;stroke-width:1.125"
     x="136.8535"
     y="2404.8174"
     id="text544"><tspan
       sodipodi:role="line"
       id="tspan542"
       style="stroke-width:1.125"
       x="136.8535"
       y="2404.8174">Jouer le Mi sur la corde de Si</tspan></text>
  <path
     style="fill:#000000;stroke:#000000;stroke-width:7.0866142;stroke-dasharray:none"
     d="m 603.888,2240.7927 -5.27614,-304.3458 z"
     id="path609" />
  <path
     style="fill:#000000;stroke:#000000;stroke-width:7.0866;stroke-dasharray:none"
     d="m 598.17848,1935.2821 -21.25294,51.701 z"
     id="path1165" />
  <path
     style="fill:#000000;stroke:#000000;stroke-width:7.0866;stroke-dasharray:none"
     d="m 596.49146,1937.5252 c 0,0 25.67456,52.1318 24.18098,42.6633 -1.49359,-9.4684 -24.18098,-42.6633 -24.18098,-42.6633 z"
     id="path1167" />
  <text
     xml:space="preserve"
     style="font-size:120px;font-family:sans-serif;-inkscape-font-specification:sans-serif;fill:#000000;stroke:#000000;stroke-width:1.41732;stroke-dasharray:none"
     x="754.20801"
     y="618.45203"
     id="text1259"><tspan
       sodipodi:role="line"
       id="tspan1257"
       style="stroke-width:1.41732;stroke-dasharray:none"
       x="754.20801"
       y="618.45203">Jouer le Si sur la corde de Sol</tspan></text>
  <path
     style="fill:#000000;stroke:#000000;stroke-width:5.66929134;stroke-dasharray:none"
     d="m 1461.0506,708.29992 4.4839,194.87412 z"
     id="path1261" />
  <path
     style="fill:#000000;stroke:#000000;stroke-width:5.66929;stroke-dasharray:none"
     d="m 1463.2815,901.10704 c -6.3939,-10.88959 -17.5417,-33.77798 -17.5417,-33.77798 z"
     id="path1263" />
  <path
     style="fill:#000000;stroke:#000000;stroke-width:5.66929;stroke-dasharray:none"
     d="m 1462.0823,897.80752 c 1.6049,-2.75178 19.6709,-26.81857 19.6709,-26.81857 z"
     id="path1265" />
</svg>
