<?xml version="1.0" encoding="UTF-8" standalone="no"?>
<!-- Created with Inkscape (http://www.inkscape.org/) -->

<svg
   width="74mm"
   height="52mm"
   viewBox="0 0 74 52"
   version="1.1"
   id="SVGRoot"
   sodipodi:docname="_svg_porte_and_key.svg"
   inkscape:version="1.2.2 (732a01da63, 2022-12-09)"
   xmlns:inkscape="http://www.inkscape.org/namespaces/inkscape"
   xmlns:sodipodi="http://sodipodi.sourceforge.net/DTD/sodipodi-0.dtd"
   xmlns="http://www.w3.org/2000/svg"
   xmlns:svg="http://www.w3.org/2000/svg">
  <sodipodi:namedview
     id="namedview178"
     pagecolor="#ffffff"
     bordercolor="#000000"
     borderopacity="0.25"
     inkscape:showpageshadow="2"
     inkscape:pageopacity="0.0"
     inkscape:pagecheckerboard="0"
     inkscape:deskcolor="#d1d1d1"
     inkscape:document-units="mm"
     showgrid="false"
     inkscape:zoom="1.7417504"
     inkscape:cx="355.38962"
     inkscape:cy="198.65074"
     inkscape:window-width="1920"
     inkscape:window-height="1046"
     inkscape:window-x="-11"
     inkscape:window-y="-11"
     inkscape:window-maximized="1"
     inkscape:current-layer="SVGRoot" />
  <defs
     id="defs173" />
  <g
     inkscape:label="Calque 1"
     inkscape:groupmode="layer"
     id="layer1" />
  <rect
     style="fill:#000000;stroke-width:0.264583"
     id="rect594"
     width="69.445267"
     height="0.46421677"
     x="2.3750222"
     y="19.54431" />
  <rect
     style="fill:#000000;stroke-width:0.264583"
     id="rect594-1"
     width="69.445267"
     height="0.46421677"
     x="2.3352463"
     y="23.335417" />
  <rect
     style="fill:#000000;stroke-width:0.264583"
     id="rect594-6"
     width="69.445267"
     height="0.46421677"
     x="2.2557034"
     y="26.971777" />
  <rect
     style="fill:#000000;stroke-width:0.264583"
     id="rect594-9"
     width="69.445267"
     height="0.46421677"
     x="2.414799"
     y="30.762882" />
  <rect
     style="fill:#000000;stroke-width:0.264583"
     id="rect594-7"
     width="69.445267"
     height="0.46421677"
     x="2.414798"
     y="34.399246" />
  <path
     sodipodi:nodetypes="cssssssssscsssssssssc"
     id="path1947"
     d="m 6.5004875,37.917529 c -0.1556284,0.806493 0.7112026,2.481346 2.4551727,2.536062 2.1083168,0.06615 3.4552848,-1.499314 2.8277588,-4.054163 L 8.636317,22.301232 c -0.3746355,-1.678264 -0.093441,-2.588538 0.1066039,-3.131023 0.5336924,-1.447314 1.8670541,-2.04427 2.1916671,-1.580913 0.185331,0.264546 0.633451,1.50152 -0.64217,3.717028 -0.9948723,1.727903 -5.6236618,3.993717 -5.963356,8.048561 -0.2940735,3.526052 3.5086051,6.130254 6.790659,5.106484 2.179048,-0.679709 3.302358,-3.889781 1.953603,-5.5456 C 9.5139484,24.546056 3.8055909,31.233618 9.3353499,33.065697 8.7340487,32.606497 8.3241853,32.250922 8.2478703,31.816314 7.5048638,27.584938 14.059548,28.702097 12.293452,32.716359 11.567228,34.367034 8.6338571,34.686352 6.9633266,33.213711 5.5639276,31.980082 4.9429641,29.60363 6.5002481,27.897575 8.6094273,25.5869 11.09967,23.51259 11.761073,20.349433 12.543201,16.608897 9.9895928,13.692729 8.3751741,17.372105 7.8334585,18.606712 7.6316652,19.846074 8.1503667,22.221051 l 3.1446193,14.398254 c 0.225131,1.030806 0.07442,2.449282 -0.91674,3.101218 -0.4909774,0.322942 -2.2283648,0.545199 -2.6534201,-0.225678"
     style="fill:#000000;fill-opacity:1;fill-rule:nonzero;stroke:#000000;stroke-width:0.0267303;stroke-linecap:butt;stroke-linejoin:miter;stroke-miterlimit:4;stroke-dasharray:none;stroke-opacity:1" />
  <ellipse
     transform="matrix(-0.99979896,-0.02005092,0.01756601,-0.99984571,0,0)"
     id="path4608"
     style="fill:#000000;fill-opacity:1;stroke:#000000;stroke-width:0.0267303;stroke-miterlimit:4;stroke-dasharray:none;stroke-opacity:1"
     cx="-8.5328407"
     cy="-37.372944"
     rx="1.5736374"
     ry="1.7101083" />
</svg>
