<?xml version="1.0" encoding="UTF-8" standalone="no"?>
<!-- Created with Inkscape (http://www.inkscape.org/) -->

<svg
   width="297mm"
   height="210mm"
   viewBox="0 0 297 210"
   version="1.1"
   id="SVGRoot"
   sodipodi:docname="name_the_note_2.svg"
   inkscape:version="1.2.2 (b0a8486541, 2022-12-01)"
   xmlns:inkscape="http://www.inkscape.org/namespaces/inkscape"
   xmlns:sodipodi="http://sodipodi.sourceforge.net/DTD/sodipodi-0.dtd"
   xmlns="http://www.w3.org/2000/svg"
   xmlns:svg="http://www.w3.org/2000/svg">
  <sodipodi:namedview
     id="namedview178"
     pagecolor="#ffffff"
     bordercolor="#000000"
     borderopacity="0.25"
     inkscape:showpageshadow="2"
     inkscape:pageopacity="0.0"
     inkscape:pagecheckerboard="0"
     inkscape:deskcolor="#d1d1d1"
     inkscape:document-units="mm"
     showgrid="false"
     inkscape:zoom="0.46229354"
     inkscape:cx="446.68589"
     inkscape:cy="392.60769"
     inkscape:window-width="1280"
     inkscape:window-height="651"
     inkscape:window-x="0"
     inkscape:window-y="32"
     inkscape:window-maximized="1"
     inkscape:current-layer="SVGRoot" />
  <defs
     id="defs173">
    <linearGradient
       id="linearGradient6989"
       inkscape:swatch="solid">
      <stop
         style="stop-color:#0000ff;stop-opacity:1;"
         offset="0"
         id="stop6987" />
    </linearGradient>
    <linearGradient
       id="linearGradient4036"
       inkscape:swatch="solid">
      <stop
         style="stop-color:#000000;stop-opacity:1;"
         offset="0"
         id="stop4034" />
    </linearGradient>
  </defs>
  <g
     inkscape:label="Calque 1"
     inkscape:groupmode="layer"
     id="layer1" />
  <rect
     style="fill:#000000;stroke-width:1.05833"
     id="rect594"
     width="277.78107"
     height="1.8568671"
     x="8.2367401"
     y="85.39444" />
  <rect
     style="fill:#000000;stroke-width:1.05833"
     id="rect594-1"
     width="277.78107"
     height="1.8568671"
     x="8.0776367"
     y="100.55886" />
  <rect
     style="fill:#000000;stroke-width:1.05833"
     id="rect594-6"
     width="277.78107"
     height="1.8568671"
     x="7.7594657"
     y="115.1043" />
  <rect
     style="fill:#000000;stroke-width:1.05833"
     id="rect594-9"
     width="277.78107"
     height="1.8568671"
     x="8.3958473"
     y="130.26872" />
  <rect
     style="fill:#000000;stroke-width:1.05833"
     id="rect594-7"
     width="277.78107"
     height="1.8568671"
     x="8.3958435"
     y="144.81418" />
  <path
     sodipodi:nodetypes="cssssssssscsssssssssc"
     id="path1947"
     d="m 24.738602,158.88731 c -0.622514,3.22598 2.84481,9.92539 9.82069,10.14425 8.433268,0.2646 13.82114,-5.99725 11.311036,-16.21665 L 33.28192,96.422125 c -1.498542,-6.713056 -0.373764,-10.354152 0.426415,-12.524092 2.13477,-5.789256 7.468217,-8.17708 8.766669,-6.323652 0.741324,1.058184 2.533804,6.00608 -2.56868,14.868112 -3.97949,6.911612 -22.494648,15.974867 -23.853424,32.194247 -1.176294,14.10421 14.03442,24.52101 27.162636,20.42593 8.716192,-2.71883 13.209432,-15.55912 7.814412,-22.1824 -14.237503,-17.47885 -37.070932,9.2714 -14.951897,16.59972 -2.405205,-1.8368 -4.044658,-3.2591 -4.349918,-4.99754 -2.972026,-16.9255 23.246711,-12.45686 16.182327,3.60018 -2.904896,6.6027 -14.63838,7.87998 -21.320502,1.98941 -5.597596,-4.93451 -8.08145,-14.44032 -1.852314,-21.26454 8.436717,-9.2427 18.397688,-17.53994 21.0433,-30.192571 3.128512,-14.962144 -7.085921,-26.626816 -13.543596,-11.909312 -2.166862,4.938428 -2.974036,9.895876 -0.89923,19.395784 l 12.578478,57.593019 c 0.900524,4.12322 0.29768,9.79713 -3.66696,12.40487 -1.96391,1.29177 -8.91346,2.1808 -10.613681,-0.90271"
     style="fill:#000000;fill-opacity:1;fill-rule:nonzero;stroke:#000000;stroke-width:0.106921;stroke-linecap:butt;stroke-linejoin:miter;stroke-miterlimit:4;stroke-dasharray:none;stroke-opacity:1" />
  <ellipse
     transform="matrix(-0.99979896,-0.02005092,0.01756601,-0.99984571,0,0)"
     id="path4608"
     style="fill:#000000;fill-opacity:1;stroke:#000000;stroke-width:0.106921;stroke-miterlimit:4;stroke-dasharray:none;stroke-opacity:1"
     cx="-32.994984"
     cy="-156.73286"
     rx="6.2945495"
     ry="6.8404331" />
  <ellipse
     style="fill:#000000;stroke-width:1.05833"
     id="path169"
     cx="103.14838"
     cy="116.68766"
     rx="8.4986305"
     ry="8.2962818" />
  <ellipse
     style="fill:#000000;stroke-width:1.05833"
     id="path169-3"
     cx="132.66698"
     cy="123.54824"
     rx="8.4986305"
     ry="8.2962818" />
  <ellipse
     style="fill:#000000;stroke-width:1.05833"
     id="path169-6"
     cx="159.25452"
     cy="130.48073"
     rx="8.4986305"
     ry="8.2962818" />
  <ellipse
     style="fill:#000000;stroke-width:1.05833"
     id="path169-7"
     cx="186.66811"
     cy="138.24037"
     rx="8.4986305"
     ry="8.2962818" />
  <ellipse
     style="fill:#000000;stroke-width:1.05833"
     id="path169-5"
     cx="214.62044"
     cy="146.22502"
     rx="8.4986305"
     ry="8.2962818" />
  <ellipse
     style="fill:#000000;stroke-width:1.05833"
     id="path169-35"
     cx="245.63844"
     cy="153.77748"
     rx="8.4986305"
     ry="8.2962818" />
</svg>
