<?xml version="1.0" encoding="UTF-8" standalone="no"?>
<svg
   width="297mm"
   height="210mm"
   viewBox="0 0 1122.5197 793.7008"
   version="1.2"
   id="svg14"
   sodipodi:docname="_svg_noire_et_soupir.svg"
   inkscape:version="1.3 (0e150ed6c4, 2023-07-21)"
   xmlns:inkscape="http://www.inkscape.org/namespaces/inkscape"
   xmlns:sodipodi="http://sodipodi.sourceforge.net/DTD/sodipodi-0.dtd"
   xmlns="http://www.w3.org/2000/svg"
   xmlns:svg="http://www.w3.org/2000/svg"
   xmlns:rdf="http://www.w3.org/1999/02/22-rdf-syntax-ns#"
   xmlns:cc="http://creativecommons.org/ns#"
   xmlns:dc="http://purl.org/dc/elements/1.1/">
  <defs
     id="defs14" />
  <sodipodi:namedview
     id="namedview14"
     pagecolor="#ffffff"
     bordercolor="#000000"
     borderopacity="0.25"
     inkscape:showpageshadow="2"
     inkscape:pageopacity="0.0"
     inkscape:pagecheckerboard="0"
     inkscape:deskcolor="#d1d1d1"
     inkscape:zoom="0.56078321"
     inkscape:cx="450.26313"
     inkscape:cy="369.1266"
     inkscape:window-width="1440"
     inkscape:window-height="872"
     inkscape:window-x="-8"
     inkscape:window-y="-8"
     inkscape:window-maximized="1"
     inkscape:current-layer="svg14"
     inkscape:document-units="mm" />
  <title
     id="title1">Partition sans titre</title>
  <desc
     id="desc1">Generated by MuseScore Studio 4.3.2</desc>
  <polyline
     class="StaffLines"
     fill="none"
     stroke="#000000"
     stroke-width="2.73"
     stroke-linejoin="bevel"
     points="336.598,634.198 864.332,634.198"
     id="polyline1"
     transform="matrix(1.760278,0,0,1.760278,-493.07637,-755.49717)" />
  <polyline
     class="StaffLines"
     fill="none"
     stroke="#000000"
     stroke-width="2.73"
     stroke-linejoin="bevel"
     points="336.598,658.998 864.332,658.998"
     id="polyline2"
     transform="matrix(1.760278,0,0,1.760278,-493.07637,-755.49717)" />
  <polyline
     class="StaffLines"
     fill="none"
     stroke="#000000"
     stroke-width="2.73"
     stroke-linejoin="bevel"
     points="336.598,683.798 864.332,683.798"
     id="polyline3"
     transform="matrix(1.760278,0,0,1.760278,-493.07637,-755.49717)" />
  <polyline
     class="StaffLines"
     fill="none"
     stroke="#000000"
     stroke-width="2.73"
     stroke-linejoin="bevel"
     points="336.598,708.598 864.332,708.598"
     id="polyline4"
     transform="matrix(1.760278,0,0,1.760278,-493.07637,-755.49717)" />
  <polyline
     class="StaffLines"
     fill="none"
     stroke="#000000"
     stroke-width="2.73"
     stroke-linejoin="bevel"
     points="336.598,733.398 864.332,733.398"
     id="polyline5"
     transform="matrix(1.760278,0,0,1.760278,-493.07637,-755.49717)" />
  <polyline
     class="BarLine"
     fill="none"
     stroke="#000000"
     stroke-width="4.46"
     stroke-linejoin="bevel"
     points="839.284,632.834 839.284,734.762"
     id="polyline6"
     transform="matrix(1.760278,0,0,1.760278,-493.07637,-755.49717)" />
  <polyline
     class="BarLine"
     fill="none"
     stroke="#000000"
     stroke-width="13.64"
     stroke-linejoin="bevel"
     points="857.512,632.834 857.512,734.762"
     id="polyline7"
     transform="matrix(1.760278,0,0,1.760278,-493.07637,-755.49717)" />
  <path
     class="Accidental"
     d="m 383.54697,331.36097 c 0.35469,0.5184 1.22779,1.06409 1.93718,1.06409 0.6822,0 1.74616,-0.54569 2.10098,-1.06409 l 14.48785,-20.43595 c 0.1637,-0.32741 0.35482,-1.0368 0.35482,-1.39149 0,-1.3915 -0.8731,-2.42831 -2.29188,-2.42831 -0.51846,0 -1.20051,0 -1.55533,0.32741 l -10.66805,8.04887 v -63.73618 h -4.88397 v 63.89989 l -10.64089,-8.02159 c -0.35469,-0.35469 -0.87309,-0.5184 -1.3915,-0.5184 -1.41878,0 -2.45558,1.03681 -2.45558,2.42831 0,0.35469 0.35469,1.06408 0.5184,1.39149 l 14.48797,20.43595"
     id="path7"
     style="stroke-width:1.7462" />
  <polyline
     class="Stem"
     fill="none"
     stroke="#000000"
     stroke-width="2.48"
     stroke-linejoin="bevel"
     points="536.773,687.965 536.773,758.198"
     id="polyline8"
     transform="matrix(1.760278,0,0,1.760278,-589.07637,-755.49717)" />
  <path
     class="Note"
     d="m 353.61061,455.5169 c 0,7.50319 5.40229,15.87951 19.56282,15.87951 18.14418,0 37.18854,-14.8427 37.18854,-30.20377 0,-10.31347 -8.73097,-16.07042 -19.56281,-16.07042 -16.9435,0 -37.18855,14.32422 -37.18855,30.39468"
     id="path8"
     style="stroke-width:1.7462" />
  <path
     class="Clef"
     d="m 243.9274,491.31392 c 0,-26.19298 -18.68971,-44.00959 -44.17333,-44.00959 -1.74619,-10.47718 -3.32861,-20.95435 -4.88377,-30.55843 18.33506,-19.39918 31.24048,-41.39026 31.24048,-68.97474 0,-16.07042 -4.88392,-28.81223 -7.85788,-35.11425 -4.17444,-8.89513 -9.24941,-15.19889 -12.22337,-15.19889 -1.20051,0 -6.79374,2.29276 -12.38714,9.0872 -11.35028,13.28681 -14.48785,35.44167 -14.48785,50.12054 0,9.44046 0.8731,17.98041 3.84704,37.73425 -0.19103,0 -9.27667,9.24942 -12.93284,12.38715 -15.90663,14.67889 -37.89787,35.96065 -37.89787,70.7209 0,32.82311 28.45757,58.49759 60.95324,58.49759 5.04754,0 9.76769,-0.51844 13.96956,-1.22774 3.13758,16.77973 5.23859,29.0031 5.23859,38.25251 0,18.17144 -9.44046,27.77552 -26.90242,27.77552 -4.36549,0 -8.0215,-0.8731 -8.21254,-1.06414 -0.32741,0 -0.68205,-0.16371 -0.68205,-0.32741 0,-0.35465 0.35464,-0.54569 0.87309,-0.70947 8.21253,-1.22775 16.39782,-8.21254 16.39782,-19.37179 0,-9.44044 -7.14856,-19.39917 -20.24503,-19.39917 -12.05959,0 -19.91747,9.95873 -19.91747,21.47278 0,11.54132 8.73098,26.73863 32.30462,26.73863 22.53677,0 33.53238,-12.76906 33.53238,-35.11495 0,-6.79375 -1.03671,-14.65164 -2.78291,-24.61036 -0.51845,-3.49239 -1.39155,-8.92202 -2.61929,-15.55214 17.10714,-5.75702 29.84894,-23.40985 29.84894,-41.554 M 190.14999,348.2896 c 1.7462,-6.98478 9.60408,-25.31984 18.68988,-25.31984 2.61929,0 6.98478,8.37616 6.98478,20.59953 0,17.98042 -13.61492,31.62257 -25.67466,43.6549 -1.03673,-6.98479 -1.90983,-13.96957 -1.90983,-21.11797 0,-6.63012 0.68208,-12.4144 1.90983,-17.81662 m 5.23859,180.56749 c -24.96502,0 -46.27415,-17.46196 -46.27415,-43.84585 0,-21.28185 15.19745,-40.32621 30.39475,-53.77734 2.94671,-2.45566 5.75705,-5.07495 8.37634,-7.50322 1.55515,9.41305 2.97394,17.46196 4.01067,24.8014 -15.90663,4.52927 -26.71122,21.47279 -26.71122,37.70696 0,12.41436 9.60408,29.16692 23.57365,29.16692 1.39137,0 2.97393,-0.7093 2.97393,-2.4555 0,-1.39155 -1.58256,-2.42842 -3.84703,-3.81989 -6.82117,-4.03808 -10.66822,-8.73098 -10.66822,-17.13455 0,-10.64088 8.04893,-19.20824 18.17128,-21.63649 l 10.12252,57.2698 c -3.4924,0.8731 -6.63013,1.22776 -10.12252,1.22776 m 17.46196,-3.32861 c -3.65603,-20.7634 -8.37616,-48.53883 -9.60408,-56.23309 17.62574,0 25.15621,12.22346 26.71138,20.62703 0.19102,1.3915 0.51843,3.3014 0.51843,5.40229 0,12.57807 -5.23858,25.31984 -17.62573,30.20377 m -6.82101,91.5115 c 0,-6.46635 -5.92064,-9.24926 -11.67768,-9.24926 -7.33943,0 -14.51525,4.52911 -14.51525,12.38699 0,3.32877 1.22775,5.78427 3.84705,8.21254 -4.52911,1.7462 -9.24942,5.23859 -9.24942,10.6682 0,5.75703 5.23859,9.60408 12.93283,9.60408 9.41306,0 16.04318,-5.23859 16.04318,-12.76906 0,-4.01083 -1.7462,-7.31219 -4.88393,-9.60407 5.07497,-2.26464 7.50322,-5.04757 7.50322,-9.24942 m -10.80458,6.98478 c -2.6193,-1.39137 -3.32876,-1.74619 -3.84704,-2.10085 l -0.19104,-0.16353 c -2.78307,-1.58258 -3.65617,-2.81034 -3.65617,-4.88395 0,-3.16498 2.45566,-5.42961 5.94805,-5.42961 3.49239,0 5.40222,2.10086 5.40222,5.75702 0,2.81034 -1.03673,4.72015 -3.65602,6.82101 m -6.65738,20.95435 c -3.8198,0 -6.43909,-2.42827 -6.43909,-6.11168 0,-3.30137 1.55517,-6.27533 4.52912,-8.02152 0.70946,0.35466 0.8731,0.51845 1.39154,0.68207 2.10085,1.06412 2.10085,1.06412 2.45567,1.41879 3.49239,1.90999 4.72014,3.65618 4.72014,6.11168 0,3.30137 -2.81032,5.92066 -6.65738,5.92066"
     id="path9"
     style="stroke-width:1.7462" />
  <path
     class="Rest"
     d="m 755.15087,477.15345 c -0.16353,-0.16371 -0.51844,-0.51846 -1.03672,-1.20051 L 734.0329,451.15141 c -0.19104,-0.19099 -0.35482,-0.70939 -0.35482,-1.06408 0,-0.51841 0.16371,-1.20051 0.35482,-1.55521 l 17.78937,-26.90229 c 0.19087,-0.35482 0.35465,-0.8731 0.35465,-1.22792 v -1.55515 c 0,-0.51846 -0.16371,-1.06415 -0.51844,-1.39156 l -28.29383,-38.25251 c 0,0 -0.68211,-1.06412 -1.7462,-1.06412 -0.5184,0 -0.87309,0 -1.3915,0.54568 -0.70939,0.51844 -0.87309,1.20051 -0.87309,1.7462 0,1.03687 0.5184,1.90997 0.5184,1.90997 l 13.28754,18.17128 c 0.32742,0.51844 0.51828,1.20051 0.51828,2.07361 0,0.70946 -0.19086,1.58256 -0.51828,2.10084 l -17.65303,26.90241 c -0.16371,0.3547 -0.3547,1.03681 -0.3547,1.3915 v 1.58249 c 0,0.51841 0.19099,1.03681 0.54569,1.3915 l 19.53565,24.28304 c -0.68223,-0.19099 -2.26465,-0.54569 -4.36558,-0.54569 -8.89468,0 -15.87946,7.33952 -15.87946,16.26154 0,2.42825 0.5184,4.88377 1.9099,6.79374 3.68338,5.59325 16.77981,22.18211 16.77981,22.18211 0,0 0.8731,1.06412 2.10102,1.06412 0.32741,0 0.68205,0 1.03671,-0.35464 0.8731,-0.70948 1.22776,-1.39156 1.22776,-2.10102 0,-0.70932 -0.35466,-1.22776 -0.51828,-1.58242 -0.54568,-0.8731 -6.11177,-10.99561 -6.11177,-10.99561 0,0 -1.22779,-2.4555 -1.22779,-5.59325 0,-5.59323 4.17458,-10.12251 9.76781,-10.12251 2.26466,0 4.20172,0.70948 5.59325,1.58258 l 6.82117,4.36549 c 0,0 0.68205,0.32741 1.39137,0.32741 0.68224,0 1.22792,-0.16388 1.7462,-0.8731 0.35482,-0.51845 0.51844,-1.03689 0.51844,-1.55533 0,-0.51828 -0.16371,-0.8731 -0.51844,-1.39138 l -0.35466,-0.54568"
     id="path12"
     style="stroke-width:1.7462" />
  <path
     class="StaffText"
     d="m 278.90935,155.87393 h -18.12558 v 4.15426 h 2.20034 c 5.00624,0.1637 6.68378,0.7974 8.08672,2.88685 v 37.43407 c 0,11.96461 -1.67754,14.5223 -10.20433,14.96237 v 4.12609 h 25.08396 v -4.12609 c -8.44405,-0.44007 -10.1216,-2.99776 -10.1216,-14.96237 v -32.67604 l 39.24892,53.00198 h 3.71419 v -45.6845 c 0,-11.96461 1.67754,-14.52229 10.20257,-14.96236 v -4.15426 h -25.08396 v 4.15426 c 8.44405,0.44007 10.1216,2.88685 10.1216,14.96236 v 27.64165 l -35.12283,-46.75827 m 72.77693,21.23423 c -10.80986,0 -19.17118,9.5988 -19.17118,21.92075 0,12.04734 8.44405,21.72887 19.00572,21.72887 10.56167,0 19.00572,-9.68153 19.00572,-21.83977 0,-12.04558 -8.44405,-21.80985 -18.84026,-21.80985 m 0,3.767 c 6.16098,0 9.5988,6.43734 9.5988,18.04285 0,11.71817 -3.43782,18.04285 -9.76426,18.04285 -6.32468,0 -9.76426,-6.32468 -9.76426,-17.93195 0,-11.99278 3.32868,-18.15375 9.92972,-18.15375 m 35.83751,-24.36753 c -2.83229,0 -5.11537,2.28132 -5.11537,5.0872 0,2.83405 2.28308,5.11537 5.03439,5.11537 2.88686,0 5.16994,-2.28132 5.16994,-5.11537 0,-2.80588 -2.28308,-5.0872 -5.08896,-5.0872 m 4.12609,21.92074 -16.52901,0.96287 v 3.79516 h 4.48166 c 3.32869,0.0827 3.76876,0.60554 3.76876,4.4007 v 25.16669 c -0.0827,1.32021 -0.16547,1.84302 -0.5228,2.28308 -0.60554,0.79741 -2.28308,1.15475 -6.07824,1.23748 h -0.60554 v 3.16322 h 22.80088 v -3.16322 h -0.63194 c -5.88637,-0.19363 -6.68377,-0.6337 -6.68377,-3.79692 v -34.04906 m 27.47794,0 -15.59607,0.96287 v 3.79516 h 3.60329 c 3.35509,0.0827 3.79516,0.60554 3.79516,4.4007 v 25.16669 c -0.0827,1.32021 -0.1637,1.84302 -0.5228,2.28308 -0.63194,0.79741 -2.39222,1.15475 -6.16097,1.23748 h -0.35734 v 3.16322 h 23.48915 v -3.16322 h -1.56841 c -5.91277,-0.19363 -6.68201,-0.6337 -6.68201,-3.79692 v -4.75803 c 0.081,-14.76873 5.3618,-26.04684 12.21105,-26.40417 -1.20932,1.4311 -1.56841,2.31124 -1.56841,3.96062 0,2.83405 2.00848,4.84077 4.84076,4.84077 3.24596,0 5.36357,-2.36405 5.36357,-5.88461 0,-4.31972 -2.99775,-7.12385 -7.64489,-7.12385 -5.5572,0 -10.31523,4.4007 -13.20208,12.23922 v -10.91901 m 62.2135,21.20607 c 0.0827,-13.20208 -7.39845,-22.52628 -18.12558,-22.52628 -11.27634,0 -19.72039,9.76427 -19.72039,22.96635 0,12.40292 8.00398,20.68327 19.88586,20.68327 8.44405,0 14.35682,-4.12609 17.96011,-12.48741 l -3.08048,-1.67755 c -3.60329,6.76475 -7.31572,9.40517 -13.20209,9.40517 -4.48343,0 -7.75578,-1.84125 -10.03886,-5.80188 -1.56665,-2.64042 -2.28308,-5.7209 -2.20035,-10.56167 h 28.52178 m -28.43905,-3.79692 c 0,-6.16097 2.83229,-14.96236 10.2325,-14.96236 5.28083,0 8.80139,4.67706 8.80139,11.79914 0,2.47671 -0.79917,3.16322 -3.63146,3.16322 h -15.40243"
     id="path13"
     style="stroke-width:1.76028" />
  <path
     class="StaffText"
     d="m 648.676,160.77801 h -3.24419 l -3.52056,5.28083 c -4.23699,-3.96063 -9.76426,-6.07824 -16.03613,-6.07824 -11.60728,0 -19.25216,7.31572 -19.25216,18.40019 0,9.59879 4.72986,14.35858 17.68551,17.71367 l 8.36132,2.08945 c 6.51831,1.67755 7.12209,1.87118 8.9651,3.27412 2.64041,2.00672 4.07152,4.9235 4.07152,8.36132 0,3.52056 -1.34837,6.40741 -3.98879,8.88413 -2.88686,2.47495 -5.80364,3.43782 -10.6444,3.43782 -13.28482,0 -19.88586,-9.76426 -22.16718,-21.64614 h -3.79692 l 0.35733,25.08396 h 3.43959 l 3.96062,-5.99551 c 5.88461,4.84077 10.72538,6.60105 18.48292,6.60105 12.92572,0 21.20431,-7.56392 21.20431,-19.36306 0,-5.5572 -1.76028,-10.1216 -5.28083,-13.47845 -2.36406,-2.28308 -5.80188,-3.767 -12.84299,-5.52727 l -9.43509,-2.39398 c -7.81036,-2.00672 -11.52454,-5.44454 -11.52454,-10.80811 0,-6.16097 5.03439,-10.39796 12.51558,-10.39796 11.3309,0 17.60278,9.40693 19.96683,19.44579 h 3.79692 L 648.676,160.77801 m 32.20781,21.75703 c -10.80811,0 -19.16943,9.5988 -19.16943,21.92075 0,12.04734 8.44229,21.72887 19.00396,21.72887 10.56167,0 19.00572,-9.68153 19.00572,-21.83977 0,-12.04559 -8.44405,-21.80985 -18.84025,-21.80985 m 0,3.767 c 6.16097,0 9.59879,6.43733 9.59879,18.04285 0,11.71817 -3.43782,18.04285 -9.76426,18.04285 -6.32468,0 -9.7625,-6.32468 -9.7625,-17.93195 0,-11.99278 3.32692,-18.15375 9.92797,-18.15375 m 58.08917,39.16618 16.03613,-0.60377 v -3.79692 h -2.20034 c -5.11713,-0.16371 -5.5572,-0.68651 -5.5572,-6.40741 v -30.80487 l -16.52901,0.96287 v 3.79516 h 4.48343 c 3.32692,0.0827 3.76699,0.60554 3.76699,4.4007 v 10.8081 c 0,7.67482 -1.84301,16.99901 -11.52454,16.99901 -2.72315,0 -5.00447,-0.96287 -6.16097,-2.72315 -1.12658,-1.67755 -1.32021,-2.55768 -1.32021,-7.39845 v -26.84424 l -15.40243,0.96287 v 3.79516 h 3.35685 c 3.32692,0.0827 3.76699,0.60554 3.76699,4.4007 v 19.00572 c 0,4.48343 0.35734,6.51831 1.67755,8.52503 2.39397,3.60329 6.60104,5.63993 11.88187,5.63993 5.80364,0 9.87516,-2.36582 13.72489,-8.00399 v 7.28755 m 36.00297,-41.61297 -15.2088,0.96287 v 3.79516 h 3.16322 c 3.32692,0.0827 3.76699,0.60554 3.76699,4.4007 v 43.01591 c -0.0827,1.23748 -0.16547,1.76028 -0.5228,2.20035 -0.60378,0.79741 -2.28308,1.1565 -6.07824,1.23748 h -0.32917 v 3.16321 h 22.88361 v -3.16321 h -0.99104 c -5.88637,-0.16371 -6.68377,-0.60378 -6.68377,-3.767 v -16.63991 c 2.91678,5.08721 6.16097,7.12385 11.63544,7.12385 11.68824,0 17.76648,-11.52454 17.76648,-22.00348 0,-9.95789 -6.07824,-21.64614 -17.24368,-21.64614 -5.47447,0 -9.07776,2.28308 -12.15824,7.56392 v -6.24371 m 10.56167,3.43782 c 6.07824,0 9.59879,6.05008 9.59879,16.36531 0,11.35907 -3.52055,17.76649 -9.84523,17.76649 -6.35461,0 -10.39797,-6.51831 -10.39797,-16.63991 0,-11.00174 3.96063,-17.49189 10.64441,-17.49189 m 36.80213,-25.35856 c -2.83405,0 -5.11713,2.28132 -5.11713,5.0872 0,2.83405 2.28308,5.11537 5.0344,5.11537 2.88685,0 5.16993,-2.28132 5.16993,-5.11537 0,-2.80588 -2.28308,-5.0872 -5.0872,-5.0872 m 4.12433,21.92074 -16.52901,0.96287 v 3.79516 h 4.48343 c 3.32692,0.0827 3.76699,0.60554 3.76699,4.4007 v 25.16669 c -0.0827,1.32021 -0.16546,1.84301 -0.5228,2.28308 -0.60378,0.79741 -2.28308,1.15475 -6.07824,1.23748 h -0.60554 v 3.16322 h 22.80265 v -3.16322 h -0.6337 c -5.88637,-0.19363 -6.68378,-0.6337 -6.68378,-3.79692 v -34.04906 m 27.47794,0 -15.59606,0.96287 v 3.79516 h 3.60329 c 3.35509,0.0827 3.79516,0.60554 3.79516,4.4007 v 25.16669 c -0.081,1.32021 -0.16371,1.84301 -0.52105,2.28308 -0.6337,0.79741 -2.39397,1.15475 -6.16097,1.23748 h -0.3591 v 3.16322 h 23.48915 v -3.16322 h -1.56664 c -5.91454,-0.19363 -6.68378,-0.6337 -6.68378,-3.79692 v -4.75803 c 0.0827,-14.76873 5.36357,-26.04684 12.21105,-26.40417 -1.20931,1.4311 -1.56665,2.31124 -1.56665,3.96062 0,2.83405 2.00672,4.84077 4.84077,4.84077 3.24419,0 5.3618,-2.36406 5.3618,-5.88461 0,-4.31972 -2.99775,-7.12385 -7.64488,-7.12385 -5.5572,0 -10.31523,4.4007 -13.20209,12.23922 v -10.91901"
     id="path14"
     style="stroke-width:1.76028" />
  <metadata
     id="metadata14">
    <rdf:RDF>
      <cc:Work
         rdf:about="">
        <dc:title>Partition sans titre</dc:title>
      </cc:Work>
    </rdf:RDF>
  </metadata>
  <path
     class="Accidental"
     d="m 727.30705,330.41972 c 0.35469,0.5184 1.22779,1.06409 1.93718,1.06409 0.6822,0 1.74616,-0.54569 2.10098,-1.06409 l 14.48785,-20.43595 c 0.1637,-0.32741 0.35482,-1.0368 0.35482,-1.39149 0,-1.3915 -0.8731,-2.42831 -2.29188,-2.42831 -0.51846,0 -1.20051,0 -1.55533,0.32741 l -10.66805,8.04887 v -63.73618 h -4.88397 v 63.89989 l -10.64089,-8.02159 c -0.35469,-0.35469 -0.87309,-0.5184 -1.3915,-0.5184 -1.41878,0 -2.45558,1.03681 -2.45558,2.42831 0,0.35469 0.35469,1.06408 0.5184,1.39149 l 14.48797,20.43595"
     id="path7-1"
     style="stroke-width:1.7462" />
  <text
     xml:space="preserve"
     style="font-size:53.3333px;fill:#000000"
     x="442.23862"
     y="640.17609"
     id="text14"><tspan
       sodipodi:role="line"
       id="tspan14"
       x="442.23862"
       y="640.17609"
       style="font-size:53.3333px">Hampe</tspan></text>
  <path
     class="Accidental"
     d="m 375.36349,565.82541 c -0.62687,-0.0397 -1.59444,0.31225 -2.03124,0.87121 -0.42005,0.53754 -0.64519,1.7119 -0.45519,2.31067 l 7.18192,23.99888 c 0.15719,0.33058 0.59848,0.91797 0.87796,1.13637 1.09644,0.85679 2.45099,0.80723 3.32458,-0.31071 0.31924,-0.40852 0.7392,-0.94594 0.69969,-1.42712 l 0.22654,-13.3619 50.22118,39.24455 3.00722,-3.84835 -50.35016,-39.34534 12.8726,-3.44537 c 0.49787,-0.0611 0.94607,-0.36876 1.26527,-0.77724 0.87359,-1.11793 0.69502,-2.57328 -0.40141,-3.43008 -0.27948,-0.21839 -1.05684,-0.37571 -1.41563,-0.44831 l -25.02333,-1.16726"
     id="path7-4"
     style="stroke-width:1.7462" />
</svg>
