<?xml version="1.0" encoding="UTF-8" standalone="no"?>
<svg
   width="297mm"
   height="210mm"
   viewBox="0 0 1122.5197 793.7008"
   version="1.2"
   id="svg80"
   sodipodi:docname="dodo_sissi.svg"
   inkscape:version="1.2.2 (b0a8486541, 2022-12-01)"
   xmlns:inkscape="http://www.inkscape.org/namespaces/inkscape"
   xmlns:sodipodi="http://sodipodi.sourceforge.net/DTD/sodipodi-0.dtd"
   xmlns="http://www.w3.org/2000/svg"
   xmlns:svg="http://www.w3.org/2000/svg"
   xmlns:rdf="http://www.w3.org/1999/02/22-rdf-syntax-ns#"
   xmlns:cc="http://creativecommons.org/ns#"
   xmlns:dc="http://purl.org/dc/elements/1.1/">
  <defs
     id="defs80" />
  <sodipodi:namedview
     id="namedview80"
     pagecolor="#ffffff"
     bordercolor="#000000"
     borderopacity="0.25"
     inkscape:showpageshadow="2"
     inkscape:pageopacity="0.0"
     inkscape:pagecheckerboard="0"
     inkscape:deskcolor="#d1d1d1"
     inkscape:zoom="2.2431328"
     inkscape:cx="483.02981"
     inkscape:cy="582.89015"
     inkscape:window-width="1280"
     inkscape:window-height="651"
     inkscape:window-x="0"
     inkscape:window-y="32"
     inkscape:window-maximized="1"
     inkscape:current-layer="svg80"
     inkscape:document-units="mm"
     showgrid="false" />
  <title
     id="title1">dodo_sissi</title>
  <desc
     id="desc1">Generated by MuseScore Studio 4.3.2</desc>
  <polyline
     class="StaffLines"
     fill="none"
     stroke="#000000"
     stroke-width="2.73"
     stroke-linejoin="bevel"
     points="336.598,634.198 2764.6,634.198"
     id="polyline1"
     transform="matrix(0.41842001,0,0,0.41842001,-66.675272,8.1736573)" />
  <polyline
     class="StaffLines"
     fill="none"
     stroke="#000000"
     stroke-width="2.73"
     stroke-linejoin="bevel"
     points="336.598,658.998 2764.6,658.998"
     id="polyline2"
     transform="matrix(0.41842001,0,0,0.41842001,-66.675272,8.1736573)" />
  <polyline
     class="StaffLines"
     fill="none"
     stroke="#000000"
     stroke-width="2.73"
     stroke-linejoin="bevel"
     points="336.598,683.798 2764.6,683.798"
     id="polyline3"
     transform="matrix(0.41842001,0,0,0.41842001,-66.675272,8.1736573)" />
  <polyline
     class="StaffLines"
     fill="none"
     stroke="#000000"
     stroke-width="2.73"
     stroke-linejoin="bevel"
     points="336.598,708.598 2764.6,708.598"
     id="polyline4"
     transform="matrix(0.41842001,0,0,0.41842001,-66.675272,8.1736573)" />
  <polyline
     class="StaffLines"
     fill="none"
     stroke="#000000"
     stroke-width="2.73"
     stroke-linejoin="bevel"
     points="336.598,733.398 2764.6,733.398"
     id="polyline5"
     transform="matrix(0.41842001,0,0,0.41842001,-66.675272,8.1736573)" />
  <polyline
     class="StaffLines"
     fill="none"
     stroke="#000000"
     stroke-width="2.73"
     stroke-linejoin="bevel"
     points="212.598,1316.2 2764.6,1316.2"
     id="polyline6"
     transform="matrix(0.41842001,0,0,0.41842001,-66.675272,8.1736573)" />
  <polyline
     class="StaffLines"
     fill="none"
     stroke="#000000"
     stroke-width="2.73"
     stroke-linejoin="bevel"
     points="212.598,1341 2764.6,1341"
     id="polyline7"
     transform="matrix(0.41842001,0,0,0.41842001,-66.675272,8.1736573)" />
  <polyline
     class="StaffLines"
     fill="none"
     stroke="#000000"
     stroke-width="2.73"
     stroke-linejoin="bevel"
     points="212.598,1365.8 2764.6,1365.8"
     id="polyline8"
     transform="matrix(0.41842001,0,0,0.41842001,-66.675272,8.1736573)" />
  <polyline
     class="StaffLines"
     fill="none"
     stroke="#000000"
     stroke-width="2.73"
     stroke-linejoin="bevel"
     points="212.598,1390.6 2764.6,1390.6"
     id="polyline9"
     transform="matrix(0.41842001,0,0,0.41842001,-66.675272,8.1736573)" />
  <polyline
     class="StaffLines"
     fill="none"
     stroke="#000000"
     stroke-width="2.73"
     stroke-linejoin="bevel"
     points="212.598,1415.4 2764.6,1415.4"
     id="polyline10"
     transform="matrix(0.41842001,0,0,0.41842001,-66.675272,8.1736573)" />
  <path
     class="Text"
     d="m 429.88054,98.208021 h -27.3856 v 2.163649 h 0.82846 c 2.62348,0.046 3.49798,0.18327 3.86206,0.6473 0.27612,0.41214 0.27612,0.50336 0.27612,2.8507 v 21.90804 c 0,2.34734 0,2.43856 -0.27612,2.85698 -0.36408,0.45775 -1.23858,0.64102 -3.86206,0.64102 h -0.82846 v 2.16365 h 15.78701 v -2.16365 h -1.5147 c -2.63188,0 -3.49797,-0.18327 -3.87037,-0.64102 -0.27621,-0.41842 -0.27621,-0.55566 -0.27621,-2.85698 v -10.44752 h 0.92053 c 4.74075,-0.18285 6.4395,1.51677 6.63196,6.62945 h 2.1549 v -15.09576 h -2.1549 c -0.28453,4.51098 -2.07535,6.25664 -6.44782,6.30266 h -1.10467 v -10.49355 c -0.0462,-1.9352 0.41012,-2.25529 2.89549,-2.30132 h 2.11718 c 7.55249,-0.0456 9.44378,1.65444 10.86641,9.57136 h 2.02931 l -0.64852,-11.735009 m 20.9545,18.410489 c 0,-2.89631 -0.5063,-4.37417 -1.84526,-5.47879 -1.5147,-1.2423 -3.76998,-1.83729 -6.71562,-1.83729 -5.20101,0 -8.97511,2.43855 -8.97511,5.7993 0,1.69962 1.05855,2.80467 2.66951,2.80467 1.46866,0 2.48118,-0.96781 2.48118,-2.34733 0,-0.595 -0.22589,-1.24188 -0.68616,-1.88289 -0.28041,-0.32679 -0.32636,-0.41843 -0.32636,-0.6473 0,-0.92178 1.84518,-1.75192 4.05443,-1.75192 1.46866,0 3.08374,0.46402 3.81602,1.15065 0.87869,0.73893 1.19665,1.84356 1.19665,3.91599 v 1.79168 c -4.7825,0.83015 -6.30139,1.19626 -8.55668,2.07243 -4.00847,1.47744 -5.89137,3.58921 -5.89137,6.53781 0,3.31473 2.57753,5.38716 6.67799,5.38716 3.1675,0 6.02527,-1.29459 8.00855,-3.64151 0.73227,2.34692 1.88289,3.2687 4.04619,3.2687 2.07115,0 4.23437,-1.3335 4.23437,-2.66743 0,-0.3205 -0.17994,-0.55566 -0.46447,-0.55566 -0.17985,0 -0.36399,0.0523 -0.68615,0.18954 -0.64441,0.27449 -0.92053,0.32051 -1.28872,0.32051 -1.29293,0 -1.74899,-0.83056 -1.74899,-3.17747 v -9.25085 m -4.33072,5.61561 c 0,2.75906 -0.1339,3.40636 -0.91213,4.60262 -1.15062,1.70004 -3.22605,2.85069 -5.25116,2.85069 -2.11718,0 -3.63608,-1.51677 -3.63608,-3.5892 0,-1.92892 0.96656,-3.31473 2.98756,-4.27584 1.43094,-0.64729 3.22597,-1.10504 6.81181,-1.70631 v 2.11804 m 16.36446,-23.706006 c -1.46867,0 -2.66532,1.196679 -2.66532,2.674116 0,1.47076 1.19665,2.66744 2.61928,2.66744 1.52302,0 2.71975,-1.19668 2.71975,-2.66744 0,-1.477437 -1.19673,-2.674116 -2.67371,-2.674116 m 2.16321,11.460946 -8.64875,0.51005 v 1.9808 h 2.34736 c 1.74479,0.0456 1.97496,0.32051 1.97496,2.30131 v 13.16057 c -0.0462,0.6929 -0.0921,0.9678 -0.27621,1.19626 -0.31796,0.41214 -1.19245,0.60168 -3.17581,0.6473 h -0.31796 v 1.65401 h 11.92495 v -1.65401 h -0.33056 c -3.07955,-0.0979 -3.49798,-0.32679 -3.49798,-1.98081 v -17.81548 m 23.11772,-0.50336 h -1.61097 l -1.33476,1.65402 c -1.65691,-1.2879 -3.31383,-1.83729 -5.61515,-1.83729 -4.05031,0 -6.72403,2.62182 -6.72403,6.67506 0,4.32143 2.81182,5.42648 6.49385,6.30265 l 2.43943,0.55566 c 3.63188,0.86948 4.9206,1.79126 4.9206,3.63482 0,2.16407 -1.88289,3.68084 -4.55661,3.68084 -3.908,0 -6.66959,-2.48416 -7.77417,-7.08678 h -1.84106 v 8.69519 h 1.60668 l 1.61509,-1.88289 c 1.88289,1.51677 3.95412,2.2557 6.30148,2.2557 4.51057,0 7.50645,-2.81136 7.50645,-7.09347 0,-2.02055 -0.64861,-3.58963 -1.93313,-4.64865 -1.10467,-0.96111 -2.02931,-1.3335 -4.83273,-1.9285 l -2.30133,-0.51006 c -2.53141,-0.54896 -2.53141,-0.54896 -3.35995,-1.01341 -1.01251,-0.45774 -1.61088,-1.42514 -1.61088,-2.43855 0,-1.88288 1.74899,-3.17078 4.27628,-3.17078 3.7783,0 5.61516,2.66742 6.72394,5.89051 h 1.61097 v -7.73407 m 33.85013,22.27417 8.00863,-0.32051 v -1.9808 h -0.83266 c -2.61937,-0.13724 -2.84946,-0.41173 -2.84946,-3.36033 V 97.514701 l -9.02114,0.510054 v 1.980805 h 2.71135 c 1.75319,0.046 1.98328,0.32051 1.98328,2.30131 v 10.40192 c -1.70296,-2.34734 -3.68203,-3.40636 -6.35155,-3.40636 -5.20101,0 -9.15925,5.01476 -9.15925,11.6438 0,6.53781 3.82022,11.18645 9.15925,11.18645 2.89961,0 4.87877,-1.24229 6.35155,-4.00763 v 3.63482 m -5.43522,-19.97286 c 1.89121,0 3.68623,1.37953 4.51057,3.49757 0.60249,1.37953 0.8787,3.26912 0.8787,5.5244 0,5.38088 -2.12147,8.83285 -5.43531,8.83285 -3.26368,0 -5.19681,-3.03355 -5.19681,-8.14622 0,-2.75906 0.27621,-4.8315 0.8745,-6.34827 0.7783,-2.07243 2.48546,-3.36033 4.36835,-3.36033 m 25.90433,-2.48458 c -5.66119,0 -10.03786,5.01476 -10.03786,11.46094 0,6.30224 4.42271,11.36931 9.94588,11.36931 5.52308,0 9.94159,-5.06707 9.94159,-11.41533 0,-6.30894 -4.41851,-11.41492 -9.84961,-11.41492 m 0,1.97453 c 3.22185,0 5.01267,3.36033 5.01267,9.44039 0,6.11939 -1.79082,9.43411 -5.10465,9.43411 -3.31392,0 -5.10474,-3.31472 -5.10474,-9.38809 0,-6.26333 1.74478,-9.48641 5.19672,-9.48641 m 28.9045,20.48291 8.00854,-0.32051 v -1.9808 h -0.83266 c -2.61928,-0.13724 -2.84945,-0.41173 -2.84945,-3.36033 V 97.514701 l -9.02115,0.510054 v 1.980805 h 2.71135 c 1.75319,0.046 1.98337,0.32051 1.98337,2.30131 v 10.40192 c -1.70296,-2.34734 -3.68212,-3.40636 -6.35163,-3.40636 -5.20093,0 -9.15925,5.01476 -9.15925,11.6438 0,6.53781 3.82021,11.18645 9.15925,11.18645 2.89969,0 4.87876,-1.24229 6.35163,-4.00763 v 3.63482 m -5.43531,-19.97286 c 1.8913,0 3.68632,1.37953 4.51058,3.49757 0.60257,1.37953 0.87869,3.26912 0.87869,5.5244 0,5.38088 -2.12138,8.83285 -5.4353,8.83285 -3.26368,0 -5.19673,-3.03355 -5.19673,-8.14622 0,-2.75906 0.27613,-4.8315 0.8745,-6.34827 0.77822,-2.07243 2.48537,-3.36033 4.36826,-3.36033 m 25.90442,-2.48458 c -5.66127,0 -10.03794,5.01476 -10.03794,11.46094 0,6.30224 4.4227,11.36931 9.94587,11.36931 5.52317,0 9.94168,-5.06707 9.94168,-11.41533 0,-6.30894 -4.41851,-11.41492 -9.84961,-11.41492 m 0,1.97453 c 3.22185,0 5.01267,3.36033 5.01267,9.44039 0,6.11939 -1.79082,9.43411 -5.10474,9.43411 -3.31392,0 -5.10474,-3.31472 -5.10474,-9.38809 0,-6.26333 1.74479,-9.48641 5.19681,-9.48641 m 42.33574,-1.79126 h -1.61096 l -1.33476,1.65402 c -1.65692,-1.2879 -3.31384,-1.83729 -5.61516,-1.83729 -4.05031,0 -6.72402,2.62182 -6.72402,6.67506 0,4.32143 2.81182,5.42648 6.49385,6.30265 l 2.43942,0.55566 c 3.63188,0.86948 4.92061,1.79126 4.92061,3.63482 0,2.16407 -1.8829,3.68084 -4.55661,3.68084 -3.90801,0 -6.66959,-2.48416 -7.77426,-7.08678 h -1.84106 v 8.69519 h 1.60677 l 1.61508,-1.88289 c 1.8829,1.51677 3.95413,2.2557 6.3014,2.2557 4.51057,0 7.50653,-2.81136 7.50653,-7.09347 0,-2.02055 -0.6486,-3.58963 -1.93313,-4.64865 -1.10466,-0.96111 -2.02931,-1.3335 -4.83273,-1.9285 l -2.30132,-0.51006 c -2.53149,-0.54896 -2.53149,-0.54896 -3.35995,-1.01341 -1.0126,-0.45774 -1.61089,-1.42514 -1.61089,-2.43855 0,-1.88288 1.74899,-3.17078 4.2762,-3.17078 3.77839,0 5.61524,2.66742 6.72403,5.89051 h 1.61096 v -7.73407 m 10.70318,-10.957586 c -1.46866,0 -2.66531,1.196679 -2.66531,2.674116 0,1.47076 1.19665,2.66744 2.61928,2.66744 1.52301,0 2.71975,-1.19668 2.71975,-2.66744 0,-1.477437 -1.19674,-2.674116 -2.67372,-2.674116 m 2.16322,11.460946 -8.64875,0.51005 v 1.9808 h 2.34736 c 1.74478,0.0456 1.97496,0.32051 1.97496,2.30131 v 13.16057 c -0.0462,0.6929 -0.0921,0.9678 -0.27621,1.19626 -0.31796,0.41214 -1.19245,0.60168 -3.17582,0.6473 h -0.31796 v 1.65401 h 11.92496 v -1.65401 h -0.33056 c -3.07955,-0.0979 -3.49798,-0.32679 -3.49798,-1.98081 v -17.81548 m 23.11772,-0.50336 h -1.61097 l -1.33476,1.65402 c -1.65692,-1.2879 -3.31383,-1.83729 -5.61516,-1.83729 -4.0503,0 -6.72402,2.62182 -6.72402,6.67506 0,4.32143 2.81182,5.42648 6.49385,6.30265 l 2.43943,0.55566 c 3.63187,0.86948 4.9206,1.79126 4.9206,3.63482 0,2.16407 -1.88289,3.68084 -4.55661,3.68084 -3.908,0 -6.66959,-2.48416 -7.77417,-7.08678 h -1.84106 v 8.69519 h 1.60668 l 1.61509,-1.88289 c 1.88289,1.51677 3.95412,2.2557 6.30147,2.2557 4.51049,0 7.50645,-2.81136 7.50645,-7.09347 0,-2.02055 -0.6486,-3.58963 -1.93312,-4.64865 -1.10467,-0.96111 -2.02932,-1.3335 -4.83274,-1.9285 l -2.30132,-0.51006 c -2.53149,-0.54896 -2.53149,-0.54896 -3.35995,-1.01341 -1.01252,-0.45774 -1.61088,-1.42514 -1.61088,-2.43855 0,-1.88288 1.74898,-3.17078 4.27628,-3.17078 3.7783,0 5.61515,2.66742 6.72394,5.89051 h 1.61097 v -7.73407 m 21.3394,0 h -1.61088 l -1.33476,1.65402 c -1.657,-1.2879 -3.31392,-1.83729 -5.61524,-1.83729 -4.05031,0 -6.72402,2.62182 -6.72402,6.67506 0,4.32143 2.81182,5.42648 6.49393,6.30265 l 2.43934,0.55566 c 3.63188,0.86948 4.92061,1.79126 4.92061,3.63482 0,2.16407 -1.88289,3.68084 -4.55661,3.68084 -3.908,0 -6.66959,-2.48416 -7.77417,-7.08678 h -1.84106 v 8.69519 h 1.60668 l 1.61517,-1.88289 c 1.88289,1.51677 3.95404,2.2557 6.30139,2.2557 4.51058,0 7.50645,-2.81136 7.50645,-7.09347 0,-2.02055 -0.6486,-3.58963 -1.93312,-4.64865 -1.10459,-0.96111 -2.02932,-1.3335 -4.83274,-1.9285 l -2.30132,-0.51006 c -2.53141,-0.54896 -2.53141,-0.54896 -3.35995,-1.01341 -1.01252,-0.45774 -1.61089,-1.42514 -1.61089,-2.43855 0,-1.88288 1.74899,-3.17078 4.27629,-3.17078 3.7783,0 5.61515,2.66742 6.72402,5.89051 h 1.61088 v -7.73407 m 10.70319,-10.957586 c -1.46867,0 -2.66532,1.196679 -2.66532,2.674116 0,1.47076 1.19665,2.66744 2.61928,2.66744 1.5231,0 2.71975,-1.19668 2.71975,-2.66744 0,-1.477437 -1.19665,-2.674116 -2.67371,-2.674116 m 2.16321,11.460946 -8.64875,0.51005 v 1.9808 h 2.34736 c 1.74478,0.0456 1.97496,0.32051 1.97496,2.30131 v 13.16057 c -0.0462,0.6929 -0.0921,0.9678 -0.27621,1.19626 -0.31796,0.41214 -1.19245,0.60168 -3.17573,0.6473 h -0.31804 v 1.65401 h 11.92495 v -1.65401 h -0.33056 c -3.07955,-0.0979 -3.49798,-0.32679 -3.49798,-1.98081 v -17.81548"
     id="path10"
     style="stroke-width:0.41842" />
  <path
     class="MeasureNumber"
     d="m 24.503083,532.5418 c 0.287465,-1.47702 0.620966,-2.39336 1.255289,-3.51891 0.758146,-1.31802 1.660698,-1.99168 2.660695,-1.99168 0.523016,0 0.836859,0.20084 0.836859,0.52303 0,0.11715 -0.03276,0.17992 -0.150201,0.39749 -0.150201,0.28871 -0.215893,0.48537 -0.215893,0.73643 0,0.53976 0.398688,0.90378 0.967737,0.90378 0.68624,0 1.15692,-0.5021 1.15692,-1.25526 0,-1.1381 -1.07199,-1.97494 -2.562744,-1.97494 -3.726469,0 -5.988476,4.87041 -5.988476,8.07969 0,2.46868 1.222611,3.94989 3.262425,3.94989 2.510494,0 4.367095,-2.07119 4.367095,-4.53149 0,-1.70297 -1.150706,-2.89547 -2.824341,-2.89547 -1.170359,0 -2.078707,0.50629 -2.765365,1.57744 m 2.229328,-0.61089 c 1.039396,0 1.608447,0.71969 1.608447,2.02934 0,2.12557 -1.124745,3.74485 -2.615164,3.74485 -1.07241,0 -1.706313,-0.78244 -1.706313,-2.12556 0,-2.09211 1.156919,-3.64863 2.71303,-3.64863"
     id="path11"
     style="stroke-width:0.41842" />
  <polyline
     class="BarLine"
     fill="none"
     stroke="#000000"
     stroke-width="4.46"
     stroke-linejoin="bevel"
     points="2310.11,632.834 2310.11,734.762"
     id="polyline11"
     transform="matrix(0.41842001,0,0,0.41842001,-66.675272,8.1736573)" />
  <polyline
     class="BarLine"
     fill="none"
     stroke="#000000"
     stroke-width="4.46"
     stroke-linejoin="bevel"
     points="1405.58,632.834 1405.58,734.762"
     id="polyline12"
     transform="matrix(0.41842001,0,0,0.41842001,-66.675272,8.1736573)" />
  <polyline
     class="BarLine"
     fill="none"
     stroke="#000000"
     stroke-width="4.46"
     stroke-linejoin="bevel"
     points="953.323,632.834 953.323,734.762"
     id="polyline13"
     transform="matrix(0.41842001,0,0,0.41842001,-66.675272,8.1736573)" />
  <polyline
     class="BarLine"
     fill="none"
     stroke="#000000"
     stroke-width="4.46"
     stroke-linejoin="bevel"
     points="1857.85,632.834 1857.85,734.762"
     id="polyline14"
     transform="matrix(0.41842001,0,0,0.41842001,-66.675272,8.1736573)" />
  <polyline
     class="BarLine"
     fill="none"
     stroke="#000000"
     stroke-width="4.46"
     stroke-linejoin="bevel"
     points="1255.26,1314.83 1255.26,1416.76"
     id="polyline15"
     transform="matrix(0.41842001,0,0,0.41842001,-66.675272,8.1736573)" />
  <polyline
     class="BarLine"
     fill="none"
     stroke="#000000"
     stroke-width="4.46"
     stroke-linejoin="bevel"
     points="2739.55,1314.83 2739.55,1416.76"
     id="polyline16"
     transform="matrix(0.41842001,0,0,0.41842001,-66.675272,8.1736573)" />
  <polyline
     class="BarLine"
     fill="none"
     stroke="#000000"
     stroke-width="13.64"
     stroke-linejoin="bevel"
     points="2757.78,1314.83 2757.78,1416.76"
     id="polyline17"
     transform="matrix(0.41842001,0,0,0.41842001,-66.675272,8.1736573)" />
  <polyline
     class="BarLine"
     fill="none"
     stroke="#000000"
     stroke-width="4.46"
     stroke-linejoin="bevel"
     points="788.732,1314.83 788.732,1416.76"
     id="polyline18"
     transform="matrix(0.41842001,0,0,0.41842001,-66.675272,8.1736573)" />
  <polyline
     class="BarLine"
     fill="none"
     stroke="#000000"
     stroke-width="4.46"
     stroke-linejoin="bevel"
     points="2762.37,632.834 2762.37,734.762"
     id="polyline19"
     transform="matrix(0.41842001,0,0,0.41842001,-66.675272,8.1736573)" />
  <polyline
     class="BarLine"
     fill="none"
     stroke="#000000"
     stroke-width="4.46"
     stroke-linejoin="bevel"
     points="2273.03,1314.83 2273.03,1416.76"
     id="polyline20"
     transform="matrix(0.41842001,0,0,0.41842001,-66.675272,8.1736573)" />
  <path
     class="BarLine"
     d="m 657.13826,574.46331 c 0,-1.20631 -0.95985,-2.1986 -2.15969,-2.1986 -1.20632,0 -2.15969,0.99229 -2.15969,2.1986 0,1.2063 0.95337,2.19859 2.15969,2.19859 1.19984,0 2.15969,-0.99229 2.15969,-2.19859"
     id="path20"
     style="stroke-width:0.415073" />
  <path
     class="BarLine"
     d="m 657.13826,584.84012 c 0,-1.2063 -0.95985,-2.19859 -2.15969,-2.19859 -1.20632,0 -2.15969,0.99229 -2.15969,2.19859 0,1.2063 0.95337,2.19859 2.15969,2.19859 1.19984,0 2.15969,-0.99229 2.15969,-2.19859"
     id="path21"
     style="stroke-width:0.415073" />
  <polyline
     class="BarLine"
     fill="none"
     stroke="#000000"
     stroke-width="4.46"
     stroke-linejoin="bevel"
     points="1741.27,1314.83 1741.27,1416.76"
     id="polyline21"
     transform="matrix(0.41842001,0,0,0.41842001,-66.675272,8.1736573)" />
  <polyline
     class="BarLine"
     fill="none"
     stroke="#000000"
     stroke-width="13.64"
     stroke-linejoin="bevel"
     points="1759.5,1314.83 1759.5,1416.76"
     id="polyline22"
     transform="matrix(0.41842001,0,0,0.41842001,-66.675272,8.1736573)" />
  <polyline
     class="Stem"
     fill="none"
     stroke="#000000"
     stroke-width="2.48"
     stroke-linejoin="bevel"
     points="1535.63,1361.83 1535.63,1291.4"
     id="polyline23"
     transform="matrix(0.41842001,0,0,0.41842001,-66.675272,8.1736573)" />
  <polyline
     class="Stem"
     fill="none"
     stroke="#000000"
     stroke-width="2.48"
     stroke-linejoin="bevel"
     points="1290.97,1320.36 1290.97,1403"
     id="polyline24"
     transform="matrix(0.41842001,0,0,0.41842001,-52.877036,-8.0619279)" />
  <polyline
     class="Stem"
     fill="none"
     stroke="#000000"
     stroke-width="2.48"
     stroke-linejoin="bevel"
     points="566.525,667.43 566.525,603.198"
     id="polyline25"
     transform="matrix(0.41842001,0,0,0.41842001,-66.675272,8.1736573)" />
  <polyline
     class="Stem"
     fill="none"
     stroke="#000000"
     stroke-width="2.48"
     stroke-linejoin="bevel"
     points="2131.09,667.43 2131.09,603.198"
     id="polyline26"
     transform="matrix(0.41842001,0,0,0.41842001,-66.675272,8.1736573)" />
  <polyline
     class="Stem"
     fill="none"
     stroke="#000000"
     stroke-width="2.48"
     stroke-linejoin="bevel"
     points="1069.11,1349.43 1069.11,1285.2"
     id="polyline27"
     transform="matrix(0.41842001,0,0,0.41842001,-66.675272,8.1736573)" />
  <polyline
     class="Stem"
     fill="none"
     stroke="#000000"
     stroke-width="2.48"
     stroke-linejoin="bevel"
     points="854.196,1349.43 854.196,1285.2"
     id="polyline28"
     transform="matrix(0.41842001,0,0,0.41842001,-66.675272,8.1736573)" />
  <polyline
     class="Stem"
     fill="none"
     stroke="#000000"
     stroke-width="2.48"
     stroke-linejoin="bevel"
     points="774.304,667.43 774.304,603.198"
     id="polyline29"
     transform="matrix(0.41842001,0,0,0.41842001,-66.675272,8.1736573)" />
  <polyline
     class="Stem"
     fill="none"
     stroke="#000000"
     stroke-width="2.48"
     stroke-linejoin="bevel"
     points="2583.35,679.83 2583.35,609.398"
     id="polyline30"
     transform="matrix(0.41842001,0,0,0.41842001,-66.675272,8.1736573)" />
  <polyline
     class="Stem"
     fill="none"
     stroke="#000000"
     stroke-width="2.48"
     stroke-linejoin="bevel"
     points="1018.79,679.83 1018.79,609.398"
     id="polyline31"
     transform="matrix(0.41842001,0,0,0.41842001,-66.675272,8.1736573)" />
  <polyline
     class="Stem"
     fill="none"
     stroke="#000000"
     stroke-width="2.48"
     stroke-linejoin="bevel"
     points="602.581,1349.43 602.581,1285.2"
     id="polyline32"
     transform="matrix(0.41842001,0,0,0.41842001,-66.675272,8.1736573)" />
  <polyline
     class="Stem"
     fill="none"
     stroke="#000000"
     stroke-width="2.48"
     stroke-linejoin="bevel"
     points="1226.57,679.83 1226.57,609.398"
     id="polyline33"
     transform="matrix(0.41842001,0,0,0.41842001,-66.675272,8.1736573)" />
  <polyline
     class="Stem"
     fill="none"
     stroke="#000000"
     stroke-width="2.48"
     stroke-linejoin="bevel"
     points="2375.57,679.83 2375.57,609.398"
     id="polyline34"
     transform="matrix(0.41842001,0,0,0.41842001,-66.675272,8.1736573)" />
  <polyline
     class="Stem"
     fill="none"
     stroke="#000000"
     stroke-width="2.48"
     stroke-linejoin="bevel"
     points="1471.05,667.43 1471.05,603.198"
     id="polyline35"
     transform="matrix(0.41842001,0,0,0.41842001,-66.675272,8.1736573)" />
  <polyline
     class="Stem"
     fill="none"
     stroke="#000000"
     stroke-width="2.48"
     stroke-linejoin="bevel"
     points="387.671,1361.83 387.671,1291.4"
     id="polyline36"
     transform="matrix(0.41842001,0,0,0.41842001,-66.675272,8.1736573)" />
  <polyline
     class="Stem"
     fill="none"
     stroke="#000000"
     stroke-width="2.48"
     stroke-linejoin="bevel"
     points="1678.83,667.43 1678.83,603.198"
     id="polyline37"
     transform="matrix(0.41842001,0,0,0.41842001,-66.675272,8.1736573)" />
  <polyline
     class="Stem"
     fill="none"
     stroke="#000000"
     stroke-width="2.48"
     stroke-linejoin="bevel"
     points="1923.31,667.43 1923.31,603.198"
     id="polyline38"
     transform="matrix(0.41842001,0,0,0.41842001,-66.675272,8.1736573)" />
  <polyline
     class="Stem"
     fill="none"
     stroke="#000000"
     stroke-width="2.48"
     stroke-linejoin="bevel"
     points="2086.88,1361.83 2086.88,1291.4"
     id="polyline39"
     transform="matrix(0.41842001,0,0,0.41842001,-66.675272,8.1736573)" />
  <polyline
     class="Stem"
     fill="none"
     stroke="#000000"
     stroke-width="2.48"
     stroke-linejoin="bevel"
     points="2338.49,1349.43 2338.49,1285.2"
     id="polyline40"
     transform="matrix(0.41842001,0,0,0.41842001,-66.675272,8.1736573)" />
  <polyline
     class="Stem"
     fill="none"
     stroke="#000000"
     stroke-width="2.48"
     stroke-linejoin="bevel"
     points="2553.4,1349.43 2553.4,1285.2"
     id="polyline41"
     transform="matrix(0.41842001,0,0,0.41842001,-66.675272,8.1736573)" />
  <polyline
     class="Stem"
     fill="none"
     stroke="#000000"
     stroke-width="2.48"
     stroke-linejoin="bevel"
     points="1871.97,1349.43 1871.97,1285.2"
     id="polyline42"
     transform="matrix(0.41842001,0,0,0.41842001,-66.675272,8.1736573)" />
  <path
     class="Note"
     d="m 725.10935,290.84462 c 0,1.78352 1.2841,3.77457 4.6501,3.77457 4.31283,0 8.8397,-3.52812 8.8397,-7.17946 0,-2.45152 -2.07535,-3.81996 -4.65011,-3.81996 -4.02746,0 -8.83969,3.40489 -8.83969,7.22485"
     id="path42"
     style="stroke-width:0.415073" />
  <path
     class="Note"
     d="m 82.566349,581.39632 c 0,1.78351 1.28419,3.77456 4.65011,3.77456 4.3129,0 8.83977,-3.52812 8.83977,-7.17946 0,-2.45152 -2.07534,-3.81997 -4.6501,-3.81997 -4.02746,0 -8.83978,3.4049 -8.83978,7.22487"
     id="path43"
     style="stroke-width:0.415073" />
  <path
     class="Note"
     d="m 172.489,576.20791 c 0,1.78351 1.28418,3.77457 4.6501,3.77457 4.31291,0 8.83978,-3.52813 8.83978,-7.17947 0,-2.45152 -2.07535,-3.81996 -4.65011,-3.81996 -4.02745,0 -8.83977,3.40489 -8.83977,7.22486"
     id="path44"
     style="stroke-width:0.415073" />
  <path
     class="Note"
     d="m 277.7698,576.20791 c 0,1.78351 1.28411,3.77457 4.65011,3.77457 4.31291,0 8.83978,-3.52813 8.83978,-7.17947 0,-2.45152 -2.07543,-3.81996 -4.65011,-3.81996 -4.02754,0 -8.83978,3.40489 -8.83978,7.22486"
     id="path45"
     style="stroke-width:0.415073" />
  <path
     class="Note"
     d="m 367.69077,576.20791 c 0,1.78351 1.2841,3.77457 4.6501,3.77457 4.31283,0 8.83978,-3.52813 8.83978,-7.17947 0,-2.45152 -2.07543,-3.81996 -4.6501,-3.81996 -4.02755,0 -8.83978,3.40489 -8.83978,7.22486"
     id="path46"
     style="stroke-width:0.415073" />
  <path
     class="Note"
     d="m 157.40251,290.84462 c 0,1.78352 1.2841,3.77457 4.65011,3.77457 4.31282,0 8.83969,-3.52812 8.83969,-7.17946 0,-2.45152 -2.07535,-3.81996 -4.65011,-3.81996 -4.02745,0 -8.83969,3.40489 -8.83969,7.22485"
     id="path47"
     style="stroke-width:0.415073" />
  <path
     class="Note"
     d="m 244.34138,290.84462 c 0,1.78352 1.2841,3.77457 4.65011,3.77457 4.3129,0 8.83977,-3.52812 8.83977,-7.17946 0,-2.45152 -2.07543,-3.81996 -4.6501,-3.81996 -4.02754,0 -8.83978,3.40489 -8.83978,7.22485"
     id="path48"
     style="stroke-width:0.415073" />
  <path
     class="Note"
     d="m 346.63798,296.03303 c 0,1.78352 1.28411,3.77457 4.65011,3.77457 4.31282,0 8.83969,-3.52812 8.83969,-7.17946 0,-2.45152 -2.07534,-3.81996 -4.6501,-3.81996 -4.02746,0 -8.8397,3.40488 -8.8397,7.22485"
     id="path49"
     style="stroke-width:0.415073" />
  <path
     class="Note"
     d="m 433.57517,296.03303 c 0,1.78352 1.2841,3.77457 4.65011,3.77457 4.31291,0 8.83977,-3.52812 8.83977,-7.17946 0,-2.45152 -2.07534,-3.81996 -4.6501,-3.81996 -4.02754,0 -8.83978,3.40488 -8.83978,7.22485"
     id="path50"
     style="stroke-width:0.415073" />
  <path
     class="Note"
     d="m 703.62763,576.20791 c 0,1.78351 1.28411,3.77457 4.65011,3.77457 4.31291,0 8.83978,-3.52813 8.83978,-7.17947 0,-2.45152 -2.07535,-3.81996 -4.65011,-3.81996 -4.02754,0 -8.83978,3.40489 -8.83978,7.22486"
     id="path51"
     style="stroke-width:0.415073" />
  <path
     class="Note"
     d="m 535.87472,290.84462 c 0,1.78352 1.2841,3.77457 4.6501,3.77457 4.31283,0 8.8397,-3.52812 8.8397,-7.17946 0,-2.45152 -2.07535,-3.81996 -4.65011,-3.81996 -4.02746,0 -8.83969,3.40489 -8.83969,7.22485"
     id="path52"
     style="stroke-width:0.415073" />
  <path
     class="Note"
     d="m 793.55028,581.39632 c 0,1.78351 1.2841,3.77456 4.6501,3.77456 4.31291,0 8.83978,-3.52812 8.83978,-7.17946 0,-2.45152 -2.07535,-3.81997 -4.6501,-3.81997 -4.02755,0 -8.83978,3.4049 -8.83978,7.22487"
     id="path53"
     style="stroke-width:0.415073" />
  <path
     class="Note"
     d="m 562.89623,581.39632 c 0,1.78351 1.28411,3.77456 4.65011,3.77456 4.31291,0 8.83978,-3.52812 8.83978,-7.17946 0,-2.45152 -2.07535,-3.81997 -4.65011,-3.81997 -4.02754,0 -8.83978,3.4049 -8.83978,7.22487"
     id="path54"
     style="stroke-width:0.415073" />
  <path
     class="Note"
     d="m 622.814,290.84462 c 0,1.78352 1.2841,3.77457 4.65011,3.77457 4.31282,0 8.83978,-3.52812 8.83978,-7.17946 0,-2.45152 -2.07544,-3.81996 -4.65011,-3.81996 -4.02754,0 -8.83978,3.40489 -8.83978,7.22485"
     id="path55"
     style="stroke-width:0.415073" />
  <path
     class="Note"
     d="m 812.04863,290.84462 c 0,1.78352 1.28411,3.77457 4.65011,3.77457 4.31282,0 8.83978,-3.52812 8.83978,-7.17946 0,-2.45152 -2.07543,-3.81996 -4.65011,-3.81996 -4.02754,0 -8.83978,3.40489 -8.83978,7.22485"
     id="path56"
     style="stroke-width:0.415073" />
  <path
     class="Note"
     d="m 898.8289,576.20791 c 0,1.78351 1.28418,3.77457 4.65019,3.77457 4.31282,0 8.83969,-3.52813 8.83969,-7.17947 0,-2.45152 -2.07535,-3.81996 -4.6501,-3.81996 -4.02746,0 -8.83978,3.40489 -8.83978,7.22486"
     id="path57"
     style="stroke-width:0.415073" />
  <path
     class="Note"
     d="m 914.34398,296.03303 c 0,1.78352 1.2841,3.77457 4.6501,3.77457 4.31283,0 8.8397,-3.52812 8.8397,-7.17946 0,-2.45152 -2.07535,-3.81996 -4.65011,-3.81996 -4.02746,0 -8.83969,3.40488 -8.83969,7.22485"
     id="path58"
     style="stroke-width:0.415073" />
  <path
     class="Note"
     d="m 988.75148,576.20791 c 0,1.78351 1.2842,3.77457 4.6502,3.77457 4.3128,0 8.83972,-3.52813 8.83972,-7.17947 0,-2.45152 -2.0753,-3.81996 -4.65012,-3.81996 -4.0275,0 -8.8398,3.40489 -8.8398,7.22486"
     id="path59"
     style="stroke-width:0.415073" />
  <path
     class="Note"
     d="m 1001.2832,296.03303 c 0,1.78352 1.2841,3.77457 4.6501,3.77457 4.313,0 8.8398,-3.52812 8.8398,-7.17946 0,-2.45152 -2.0753,-3.81996 -4.6501,-3.81996 -4.0275,0 -8.8398,3.40488 -8.8398,7.22485"
     id="path60"
     style="stroke-width:0.415073" />
  <path
     class="Note"
     d="m 474.48014,581.27085 c 0,1.78352 1.2841,3.77457 4.6501,3.77457 4.31291,0 8.83978,-3.52812 8.83978,-7.17946 0,-2.45152 -2.07535,-3.81997 -4.6501,-3.81997 -4.02755,0 -8.83978,3.4049 -8.83978,7.22486"
     id="path61"
     style="stroke-width:0.415073" />
  <path
     class="Clef"
     d="m 108.51134,304.54202 c 0,-6.2261 -4.44253,-10.46113 -10.500051,-10.46113 -0.41507,-2.49043 -0.79116,-4.98087 -1.16087,-7.26377 4.358271,-4.61121 7.425891,-9.83851 7.425891,-16.39537 0,-3.81995 -1.16087,-6.8487 -1.86777,-8.3467 -0.99227,-2.11437 -2.19867,-3.61279 -2.905571,-3.61279 -0.28537,0 -1.61484,0.54499 -2.94438,2.16004 -2.698,3.15829 -3.4438,8.42452 -3.4438,11.9137 0,2.24402 0.2075,4.27397 0.9144,8.96948 -0.0454,0 -2.20505,2.1986 -3.07408,2.94444 -3.78108,3.48918 -9.00838,8.54788 -9.00838,16.81043 0,7.80209 6.76435,13.90494 14.48862,13.90494 1.19985,0 2.32182,-0.12323 3.32056,-0.29183 0.745791,3.98856 1.245201,6.89407 1.245201,9.09266 0,4.31937 -2.243941,6.60227 -6.394721,6.60227 -1.03763,0 -1.90667,-0.20753 -1.95211,-0.25294 -0.0781,0 -0.16213,-0.0389 -0.16213,-0.0779 0,-0.0843 0.0843,-0.1297 0.20757,-0.16864 1.95212,-0.29183 3.89776,-1.95213 3.89776,-4.60469 0,-2.244 -1.69926,-4.6112 -4.81224,-4.6112 -2.86659,0 -4.73444,2.3672 -4.73444,5.1041 0,2.74338 2.07535,6.3558 7.67883,6.3558 5.357001,0 7.970741,-3.03522 7.970741,-8.34686 0,-1.61489 -0.24647,-3.48271 -0.66154,-5.84991 -0.12324,-0.83014 -0.33073,-2.12077 -0.62256,-3.69676 4.06635,-1.36845 7.09507,-5.56455 7.09507,-9.87743 M 95.728449,270.54492 c 0.41507,-1.66029 2.28284,-6.01855 4.442531,-6.01855 0.62264,0 1.66036,1.99102 1.66036,4.89653 0,4.27396 -3.236301,7.51672 -6.102891,10.37682 -0.24647,-1.6603 -0.45405,-3.32058 -0.45405,-5.01977 0,-1.57598 0.16213,-2.95091 0.45405,-4.23503 m 1.2452,42.92109 c -5.9342,0 -10.99946,-4.15072 -10.99946,-10.4222 0,-5.05873 3.61247,-9.58559 7.22486,-12.78294 0.70044,-0.58371 1.36845,-1.20632 1.99109,-1.78352 0.36962,2.23749 0.7069,4.15073 0.95338,5.89532 -3.78108,1.07661 -6.34937,5.1041 -6.34937,8.96298 0,2.95091 2.28293,6.93301 5.60348,6.93301 0.33082,0 0.70699,-0.1686 0.70699,-0.58367 0,-0.33077 -0.37617,-0.57724 -0.91448,-0.908 -1.62138,-0.95985 -2.53586,-2.07535 -2.53586,-4.0729 0,-2.52934 1.91322,-4.56582 4.31937,-5.14301 l 2.40608,13.61309 c -0.83014,0.20754 -1.57594,0.29184 -2.40608,0.29184 m 4.150701,-0.79121 c -0.86903,-4.93549 -1.991011,-11.53773 -2.282921,-13.36667 4.189671,0 5.979651,2.90553 6.349361,4.90306 0.0454,0.33077 0.12323,0.78475 0.12323,1.28414 0,2.98982 -1.24521,6.01855 -4.18967,7.17947 m -1.621381,21.75238 c 0,-1.53705 -1.40734,-2.19856 -2.77579,-2.19856 -1.74462,0 -3.45026,1.07657 -3.45026,2.9444 0,0.79126 0.29184,1.37493 0.9144,1.95213 -1.07653,0.41507 -2.19858,1.24522 -2.19858,2.53584 0,1.36845 1.24521,2.28291 3.07417,2.28291 2.23747,0 3.81349,-1.24523 3.81349,-3.03523 0,-0.95337 -0.41507,-1.73811 -1.16095,-2.28289 1.20632,-0.53831 1.78352,-1.19982 1.78352,-2.1986 m -2.56821,1.66029 c -0.62265,-0.33073 -0.79124,-0.41507 -0.91448,-0.49938 l -0.0454,-0.0389 c -0.66154,-0.37618 -0.86904,-0.66802 -0.86904,-1.16092 0,-0.75232 0.58367,-1.29063 1.4139,-1.29063 0.83013,0 1.2841,0.49938 1.2841,1.36845 0,0.66802 -0.24647,1.12199 -0.86904,1.62136 m -1.58248,4.98088 c -0.90802,0 -1.53058,-0.5772 -1.53058,-1.45275 0,-0.78475 0.36962,-1.49166 1.07653,-1.90673 0.16868,0.0843 0.20757,0.12324 0.33081,0.16213 0.49941,0.25294 0.49941,0.25294 0.58375,0.33725 0.83014,0.45401 1.12197,0.86907 1.12197,1.45275 0,0.78474 -0.668,1.40735 -1.58248,1.40735"
     id="path62"
     style="stroke-width:0.415073" />
  <path
     class="Clef"
     d="m 56.627239,589.9053 c 0,-6.22608 -4.44253,-10.46112 -10.50006,-10.46112 -0.41507,-2.49044 -0.79116,-4.98087 -1.16086,-7.26377 4.35827,-4.61121 7.42588,-9.83853 7.42588,-16.39537 0,-3.81997 -1.16086,-6.8487 -1.86777,-8.34669 -0.99227,-2.1144 -2.19858,-3.61281 -2.90548,-3.61281 -0.28537,0 -1.61492,0.54499 -2.94447,2.16006 -2.69799,3.15827 -3.44379,8.42451 -3.44379,11.91371 0,2.24399 0.20758,4.27396 0.91448,8.96946 -0.0454,0 -2.20513,2.19859 -3.07417,2.94442 -3.78107,3.48921 -9.00837,8.5479 -9.00837,16.81045 0,7.80206 6.76443,13.90493 14.48862,13.90493 1.19984,0 2.32181,-0.12322 3.32064,-0.29184 0.74579,3.98858 1.2452,6.89409 1.2452,9.09268 0,4.31935 -2.24403,6.60225 -6.39472,6.60225 -1.03772,0 -1.90675,-0.20754 -1.9522,-0.25294 -0.0781,0 -0.16213,-0.0389 -0.16213,-0.0778 0,-0.0843 0.0844,-0.12971 0.20758,-0.16862 1.95211,-0.29185 3.89776,-1.95214 3.89776,-4.60472 0,-2.24398 -1.69918,-4.61119 -4.81224,-4.61119 -2.86659,0 -4.73445,2.36721 -4.73445,5.10409 0,2.74337 2.07544,6.35581 7.67892,6.35581 5.357,0 7.97066,-3.03523 7.97066,-8.34686 0,-1.61489 -0.24647,-3.48272 -0.66154,-5.84993 -0.12324,-0.83014 -0.33073,-2.12076 -0.62257,-3.69674 4.06636,-1.36844 7.09508,-5.56457 7.09508,-9.87744 m -12.7829,-33.99703 c 0.41507,-1.6603 2.28284,-6.01856 4.44262,-6.01856 0.62256,0 1.66027,1.99106 1.66027,4.89656 0,4.27395 -3.2363,7.5167 -6.10289,10.37682 -0.24647,-1.66029 -0.45396,-3.32058 -0.45396,-5.01979 0,-1.57598 0.16213,-2.9509 0.45396,-4.23503 m 1.24521,42.9211 c -5.93421,0 -10.99947,-4.15072 -10.99947,-10.42221 0,-5.0587 3.61248,-9.58559 7.22495,-12.78294 0.70044,-0.5837 1.36845,-1.20631 1.99101,-1.78352 0.3697,2.2375 0.7069,4.15072 0.95337,5.89533 -3.78107,1.07659 -6.34928,5.10409 -6.34928,8.96298 0,2.9509 2.28284,6.933 5.60348,6.933 0.33073,0 0.70691,-0.16862 0.70691,-0.58369 0,-0.33076 -0.37618,-0.57721 -0.91448,-0.90797 -1.62139,-0.95986 -2.53587,-2.07537 -2.53587,-4.07291 0,-2.52934 1.91331,-4.5658 4.31938,-5.143 l 2.40616,13.61308 c -0.83022,0.20754 -1.57602,0.29185 -2.40616,0.29185 m 4.1507,-0.79123 c -0.86904,-4.93547 -1.99101,-11.53772 -2.28284,-13.36664 4.18959,0 5.97965,2.90551 6.34927,4.90305 0.0454,0.33075 0.12324,0.78474 0.12324,1.28413 0,2.98982 -1.24521,6.01855 -4.18967,7.17946 m -1.6213,21.7524 c 0,-1.53707 -1.40743,-2.19859 -2.77587,-2.19859 -1.74453,0 -3.45026,1.07659 -3.45026,2.94442 0,0.79124 0.29183,1.37493 0.91448,1.95214 -1.07661,0.41508 -2.19867,1.24522 -2.19867,2.53584 0,1.36844 1.2453,2.2829 3.07417,2.2829 2.23748,0 3.8135,-1.24522 3.8135,-3.03523 0,-0.95336 -0.41507,-1.73811 -1.16095,-2.2829 1.2064,-0.53829 1.7836,-1.19981 1.7836,-2.19858 m -2.56829,1.66029 c -0.62265,-0.33076 -0.79125,-0.41507 -0.91448,-0.49939 l -0.0454,-0.0389 c -0.66154,-0.37616 -0.86911,-0.66801 -0.86911,-1.1609 0,-0.75233 0.58375,-1.29062 1.41389,-1.29062 0.83014,0 1.2841,0.49938 1.2841,1.36844 0,0.66801 -0.24647,1.12199 -0.86903,1.62137 m -1.58249,4.98088 c -0.90793,0 -1.53058,-0.57721 -1.53058,-1.45275 0,-0.78475 0.36971,-1.49167 1.07661,-1.90674 0.1686,0.0843 0.2075,0.12322 0.33073,0.16214 0.49941,0.25293 0.49941,0.25293 0.58375,0.33723 0.83014,0.45399 1.12198,0.86906 1.12198,1.45276 0,0.78475 -0.66801,1.40736 -1.58249,1.40736"
     id="path63"
     style="stroke-width:0.415073" />
  <path
     class="TimeSig"
     d="m 133.86989,285.74052 c -0.33072,0.90798 -1.16086,3.89781 -3.19732,3.89781 -2.69799,0 -3.28166,-1.66031 -5.51922,-1.66031 -0.33073,0 -0.66792,0.0454 -1.08299,0.12323 0,0 1.03763,-1.57598 5.44126,-2.94442 4.39717,-1.36845 5.51923,-3.52812 5.51923,-6.01855 0,-1.74459 -0.78478,-5.18841 -7.05627,-5.18841 -6.26502,0 -7.43236,3.77454 -7.43236,5.68778 0,1.69921 1.41381,3.06766 3.11298,3.06766 1.70573,0 3.07417,-1.36845 3.07417,-3.06766 0,-1.16092 -0.83014,-2.45151 -1.90675,-2.86658 -0.1297,-0.0389 -0.29183,-0.24646 -0.29183,-0.454 0,-0.25295 0.20749,-0.53831 0.95337,-0.74584 0.2075,-0.0843 0.79125,-0.20755 1.41381,-0.20755 2.3608,0 2.82123,1.45276 2.82123,3.56706 0,4.85764 -5.77208,5.89533 -8.17824,9.50778 0,0 -1.24521,1.73811 -1.24521,3.69024 0,1.95213 0.99874,2.07536 1.49168,2.07536 0.66801,0 1.37492,-0.5383 1.37492,-1.28414 0,-0.16861 -0.0454,-0.33074 -0.12971,-0.53827 -0.24647,-0.58372 -0.33081,-1.03768 -0.33081,-1.37493 0,-0.12324 0,-0.24647 0.0454,-0.36971 0.0386,-0.2529 0.36962,-0.66797 1.36845,-0.66797 1.19984,0 1.66027,1.41382 2.40607,2.49043 0.74588,1.08305 1.90675,1.74459 3.2363,1.74459 1.32955,0 3.11306,-0.95338 3.86541,-2.49043 0.7458,-1.53706 1.69918,-4.65012 1.69918,-5.76563 0,-0.54479 -0.33073,-0.79123 -0.70691,-0.79123 -0.29183,0 -0.5772,0.16862 -0.74588,0.58369"
     id="path64"
     style="stroke-width:0.415073" />
  <path
     class="TimeSig"
     d="m 126.9367,309.93795 v 3.06768 h -3.44379 c -0.29184,0 -0.58367,0.25291 -0.58367,0.58368 v 0.79125 c 0,0.33073 0.29183,0.5772 0.58367,0.5772 h 12.5754 c 0.3372,0 0.58367,-0.24647 0.58367,-0.5772 v -0.79125 c 0,-0.33077 -0.24647,-0.58368 -0.58367,-0.58368 h -3.69026 v -3.06768 h 3.69026 c 0.3372,0 0.58367,-0.29184 0.58367,-0.6226 v -0.79123 c 0,-0.29185 -0.24647,-0.57721 -0.58367,-0.57721 h -3.69026 v -6.60225 c 0,-0.24645 -0.12324,-0.45399 -0.33073,-0.53829 l -0.49941,-0.25294 c -0.0843,-0.0389 -0.20758,-0.0779 -0.29192,-0.0779 -0.12315,0.0389 -0.29183,0.0779 -0.37609,0.16217 l -3.7746,3.44381 c -0.12316,0.1297 -0.1686,0.29184 -0.1686,0.46046 v 3.4049 h -4.77334 c 0,0 4.61121,-4.98088 9.50778,-11.54423 0.1686,-0.20754 0.2075,-0.41507 0.2075,-0.5772 0,-0.20754 -0.0843,-0.37614 -0.12316,-0.41507 l -0.91456,-0.91445 c -0.0843,-0.0843 -0.24639,-0.16865 -0.41507,-0.16865 -0.24639,0 -5.85633,0 -6.1417,0 -0.33728,0 -0.54477,0.25295 -0.58375,0.49941 0,0 -0.20749,3.07412 -1.2841,6.43362 -1.08308,3.36599 -2.32829,5.44135 -3.4049,6.97193 0,0 -0.12324,0.20753 -0.12324,0.46047 0,0.0843 0,0.16216 0.0386,0.24646 0.16868,0.29184 0.41507,0.74584 0.41507,0.74584 0,0 0.0843,0.25291 0.45404,0.25291 h 7.14053"
     id="path65"
     style="stroke-width:0.415073" />
  <path
     class="Fermata"
     d="m 1005.0022,530.98445 c -3.8978,-4.23505 -7.34812,-4.48149 -9.50132,-4.48149 -2.1597,0 -5.5646,0.24644 -9.4689,4.48149 -2.03,2.24398 -3.4438,6.68007 -3.4438,8.92406 0,0.79123 0.1686,1.32953 0.5837,1.32953 1.1609,0 0.5772,-3.57352 4.0664,-7.10164 3.0677,-3.06765 7.1795,-3.11304 8.1783,-3.11304 h 0.1621 c 0.9987,0 5.11062,0.0454 8.17822,3.11304 3.4893,3.52812 2.9055,7.10164 4.0665,7.10164 0.415,0 0.5836,-0.49939 0.5836,-1.32953 0,-2.24399 -1.3684,-6.72548 -3.4048,-8.92406 m -12.36792,7.92529 c 0,1.58246 1.2841,2.8666 2.8666,2.8666 1.576,0 2.8601,-1.28414 2.8601,-2.8666 0,-1.57598 -1.2841,-2.86011 -2.8601,-2.86011 -1.5825,0 -2.8666,1.28413 -2.8666,2.86011"
     id="path66"
     style="stroke-width:0.415073" />
  <path
     class="Fingering"
     d="m 441.16529,319.99532 c -0.5063,0 -0.90373,0.40544 -0.90373,0.9088 0,0.48369 0.39743,0.90212 0.88701,0.90212 0.51882,0 0.91633,-0.40545 0.91633,-0.90212 0,-0.50336 -0.39751,-0.9088 -0.89961,-0.9088 m 0.29713,4.08629 -3.20934,0.24812 -0.063,0.60797 h 0.39751 c 0.68624,0 0.95396,0.15063 0.95396,0.51675 0,0.16318 -0.0336,0.35314 -0.15062,0.7385 l -0.97488,3.26243 c -0.31384,1.06571 -0.36408,1.30128 -0.36408,1.68706 0,0.5883 0.50219,1.03936 1.13811,1.03936 1.43522,0 2.4227,-1.49083 3.12986,-2.57579 l -0.5231,-0.28788 c -0.87029,1.32053 -1.56905,2.02683 -2.02091,2.02683 -0.16742,0 -0.28453,-0.15022 -0.28453,-0.35315 0,-0.16319 0.063,-0.47072 0.20086,-0.93475 l 1.7699,-5.97545"
     id="path67"
     style="stroke-width:0.41842" />
  <path
     class="Fingering"
     d="m 76.149529,574.47167 c -2.34072,0 -4.04703,2.53981 -4.04703,6.05872 0,3.4436 1.65406,5.97086 3.90977,5.97086 2.34693,0 3.98798,-2.43939 3.98798,-5.92483 0,-1.7741 -0.37282,-3.24275 -1.07241,-4.40178 -0.65365,-1.05023 -1.72606,-1.70297 -2.77831,-1.70297 m -0.11802,0.7155 c 0.54939,0 1.08534,0.36821 1.49084,1.04186 0.45102,0.78245 0.60122,1.73645 0.60122,4.03358 0,2.35989 -0.11752,3.46451 -0.45102,4.19675 -0.38576,0.82429 -0.98706,1.3222 -1.62139,1.3222 -0.56863,0 -1.09164,-0.3682 -1.49042,-1.03349 -0.47068,-0.79081 -0.60164,-1.82431 -0.60164,-4.56915 0,-1.96239 0.11794,-2.92894 0.45102,-3.66954 0.38575,-0.83684 0.98748,-1.32221 1.62139,-1.32221"
     id="path68"
     style="stroke-width:0.41842" />
  <path
     class="Fingering"
     d="m 341.33029,286.08949 c -2.34064,0 -4.04695,2.54315 -4.04695,6.06039 0,3.44569 1.65398,5.96918 3.90968,5.96918 2.34694,0 3.98798,-2.43855 3.98798,-5.92315 0,-1.77201 -0.37282,-3.24275 -1.07241,-4.40011 -0.65356,-1.05232 -1.72597,-1.70631 -2.7783,-1.70631 m -0.11761,0.71926 c 0.54897,0 1.08501,0.36612 1.49042,1.03936 0.45111,0.78453 0.60173,1.73895 0.60173,4.03399 0,2.35989 -0.11803,3.46493 -0.45145,4.19716 -0.38541,0.82387 -0.98706,1.32054 -1.62138,1.32054 -0.56863,0 -1.09173,-0.36612 -1.49042,-1.03266 -0.47076,-0.79124 -0.60173,-1.82431 -0.60173,-4.56999 0,-1.96155 0.11803,-2.92893 0.45153,-3.66787 0.38533,-0.83684 0.98698,-1.32053 1.6213,-1.32053"
     id="path69"
     style="stroke-width:0.41842" />
  <path
     class="Fingering"
     d="m 529.88288,280.61572 c -0.56905,0.68662 -2.10878,1.20295 -3.6486,1.23559 v 0.72596 h 1.46867 c 0.97488,0.013 1.07535,0.11088 1.04183,1.05233 v 6.7081 c 0,0.85609 0,0.88915 -0.10039,1.03936 -0.1381,0.16361 -0.45186,0.23515 -1.39331,0.23515 h -1.08375 v 0.78454 h 6.62776 v -0.78454 h -0.92053 c -0.94145,0 -1.25521,-0.0716 -1.39331,-0.23515 -0.11719,-0.15021 -0.11719,-0.16988 -0.11719,-1.03936 v -6.91062 c 0,-0.93475 0.042,-1.72598 0.11719,-2.81136 h -0.59837"
     id="path70"
     style="stroke-width:0.41842" />
  <path
     class="Fingering"
     d="m 702.66947,539.12355 -3.04611,0.25105 -0.0504,0.60671 h 0.40171 c 0.66944,0 0.93724,0.15063 0.93724,0.5314 0,0.15063 -0.0546,0.40586 -0.1381,0.72386 l -1.70715,5.75328 h 1.46034 l 0.68616,-2.35989 c 0.74899,-2.56073 2.272,-4.49802 3.52729,-4.49802 0.43935,0 0.70715,0.23014 0.70715,0.64856 0,0.33892 -0.1381,1.03767 -0.33896,1.67367 l -1.33475,4.53568 h 1.45194 l 0.71967,-2.42684 c 0.41843,-1.38915 0.83686,-2.32642 1.3724,-3.0461 0.60256,-0.83684 1.46034,-1.38497 2.09214,-1.38497 0.41843,0 0.65272,0.21758 0.65272,0.61508 0,0.23432 -0.084,0.60253 -0.23429,1.07115 l -0.7699,2.38082 c -0.45187,1.30128 -0.46447,1.40589 -0.46447,1.87033 0,0.70713 0.5147,1.16739 1.30133,1.16739 0.55645,0 1.09206,-0.26779 1.66111,-0.795 0.35148,-0.33891 0.58157,-0.64017 1.26781,-1.6402 l -0.51882,-0.35566 c -0.87037,1.30966 -1.48958,1.94147 -1.92061,1.94147 -0.18405,0 -0.35147,-0.17992 -0.35147,-0.41842 0,-0.15063 0.0504,-0.33055 0.20085,-0.82428 l 1.05443,-3.24276 c 0.11719,-0.36402 0.20086,-0.88705 0.20086,-1.25526 0,-0.88705 -0.65272,-1.52305 -1.55653,-1.52305 -1.18834,0 -2.26369,0.77408 -3.23025,2.35989 0.0672,-0.318 0.10047,-0.59834 0.10047,-0.80337 0,-0.88704 -0.70716,-1.55652 -1.62348,-1.55652 -1.05864,0 -1.82434,0.58997 -3.00008,2.26365 l 0.48958,-2.26365"
     id="path71"
     style="stroke-width:0.41842" />
  <path
     class="Fingering"
     d="m 699.85345,571.47579 c -0.56905,0.6862 -2.10458,1.20504 -3.6486,1.23434 v 0.72804 h 1.46867 c 0.97488,0.0125 1.07535,0.1088 1.04183,1.05024 v 6.71145 c 0,0.85359 0,0.88706 -0.10039,1.03769 -0.1339,0.16318 -0.44775,0.23431 -1.38919,0.23431 h -1.08787 v 0.78663 h 6.63196 v -0.78663 h -0.92473 c -0.94145,0 -1.25521,-0.0712 -1.39331,-0.23431 -0.11719,-0.15063 -0.11719,-0.17155 -0.11719,-1.03769 v -6.91229 c 0,-0.93307 0.042,-1.72389 0.11719,-2.81178 h -0.59837"
     id="path72"
     style="stroke-width:0.41842" />
  <path
     class="Fingering"
     d="m 163.16955,574.4926 c -0.56863,0.6862 -2.10509,1.20504 -3.64818,1.23852 v 0.72386 h 1.47118 c 0.97404,0.0125 1.07199,0.11297 1.03932,1.05442 v 6.70727 c 0,0.85776 0,0.88706 -0.0979,1.03769 -0.13726,0.16318 -0.45111,0.23849 -1.39255,0.23849 h -1.08535 v 0.78245 h 6.62944 v -0.78245 h -0.92179 c -0.94145,0 -1.25529,-0.0753 -1.39289,-0.23849 -0.11761,-0.15063 -0.11761,-0.16737 -0.11761,-1.03769 v -6.91229 c 0,-0.93308 0.0395,-1.72389 0.11761,-2.81178 h -0.60131"
     id="path73"
     style="stroke-width:0.41842" />
  <path
     class="Fingering"
     d="m 350.11882,320.31583 -3.04653,0.24812 -0.0521,0.60796 h 0.40549 c 0.6665,0 0.93473,0.15063 0.93473,0.52972 0,0.15021 -0.0521,0.40545 -0.13727,0.72555 l -1.70631,5.75327 h 1.45782 l 0.68658,-2.35989 c 0.75193,-2.56282 2.27494,-4.49802 3.53149,-4.49802 0.43515,0 0.70296,0.22888 0.70296,0.6473 0,0.33976 -0.13391,1.03936 -0.33896,1.67368 l -1.33266,4.53693 h 1.44984 l 0.71968,-2.42517 c 0.41843,-1.39292 0.83685,-2.32767 1.37239,-3.04693 0.60257,-0.83684 1.46034,-1.38581 2.09215,-1.38581 0.41843,0 0.65692,0.21549 0.65692,0.61466 0,0.23516 -0.0879,0.60128 -0.23849,1.072 l -0.76991,2.37997 c -0.45195,1.30087 -0.46447,1.40547 -0.46447,1.8695 0,0.70629 0.5147,1.17032 1.30133,1.17032 0.55645,0 1.09206,-0.26779 1.66112,-0.79751 0.35147,-0.34018 0.58156,-0.6406 1.2678,-1.64104 l -0.5147,-0.35315 c -0.87029,1.30757 -1.49369,1.94189 -1.92472,1.94189 -0.18406,0 -0.35148,-0.18327 -0.35148,-0.41842 0,-0.15021 0.0504,-0.33349 0.20085,-0.82387 l 1.05444,-3.24275 c 0.11718,-0.36612 0.20085,-0.88915 0.20085,-1.25527 0,-0.88914 -0.65272,-1.52304 -1.55653,-1.52304 -1.18833,0 -2.25948,0.77115 -3.23025,2.35988 0.0672,-0.32009 0.10047,-0.60126 0.10047,-0.8042 0,-0.88914 -0.70715,-1.55568 -1.62348,-1.55568 -1.05737,0 -1.82224,0.58829 -2.99924,2.26198 l 0.49042,-2.26198"
     id="path74"
     style="stroke-width:0.41842" />
  <path
     class="Fingering"
     d="m 795.51684,536.87245 c -0.5021,0 -0.89961,0.40586 -0.89961,0.90797 0,0.48537 0.39751,0.90379 0.88709,0.90379 0.51882,0 0.91633,-0.40586 0.91633,-0.90379 0,-0.50211 -0.39751,-0.90797 -0.90381,-0.90797 m 0.30124,4.08796 -3.20925,0.24688 -0.0672,0.6067 h 0.40171 c 0.68615,0 0.95396,0.15064 0.95396,0.51884 0,0.16319 -0.0336,0.35148 -0.15062,0.73642 l -0.97488,3.26368 c -0.31384,1.06697 -0.36828,1.30129 -0.36828,1.68623 0,0.58997 0.5063,1.04187 1.13811,1.04187 1.43942,0 2.4269,-1.49376 3.13398,-2.57747 l -0.52302,-0.28871 c -0.87029,1.32221 -1.56905,2.02934 -2.021,2.02934 -0.17153,0 -0.28864,-0.15063 -0.28864,-0.35566 0,-0.16318 0.0672,-0.46863 0.20497,-0.93308 l 1.76991,-5.97504"
     id="path75"
     style="stroke-width:0.41842" />
  <path
     class="Fingering"
     d="m 251.92814,319.99532 c -0.50336,0 -0.90205,0.40544 -0.90205,0.9088 0,0.48369 0.39869,0.90212 0.88911,0.90212 0.5163,0 0.91507,-0.40545 0.91507,-0.90212 0,-0.50336 -0.39877,-0.9088 -0.90213,-0.9088 m 0.3009,4.08629 -3.21017,0.24812 -0.0655,0.60797 h 0.39919 c 0.68624,0 0.95438,0.15063 0.95438,0.51675 0,0.16318 -0.0328,0.35314 -0.15062,0.7385 l -0.97404,3.26243 c -0.31384,1.06571 -0.36618,1.30128 -0.36618,1.68706 0,0.5883 0.50345,1.03936 1.13777,1.03936 1.4385,0 2.42556,-1.49083 3.13137,-2.57579 l -0.52301,-0.28788 c -0.86945,1.32053 -1.56905,2.02683 -2.02007,2.02683 -0.16995,0 -0.28747,-0.15022 -0.28747,-0.35315 0,-0.16319 0.0655,-0.47072 0.20254,-0.93475 l 1.772,-5.97545"
     id="path76"
     style="stroke-width:0.41842" />
  <path
     class="Fingering"
     d="m 149.19227,279.45878 c -0.56863,0.68663 -2.10509,1.20297 -3.64826,1.2356 v 0.72554 h 1.47118 c 0.97412,0.0134 1.07199,0.1113 1.0394,1.05274 v 6.7077 c 0,0.8565 0,0.88914 -0.0979,1.03977 -0.13727,0.16318 -0.45103,0.23515 -1.39247,0.23515 h -1.08544 v 0.78454 h 6.62944 v -0.78454 h -0.9217 c -0.94145,0 -1.25529,-0.072 -1.39298,-0.23515 -0.11752,-0.15063 -0.11752,-0.1703 -0.11752,-1.03977 v -6.91021 c 0,-0.93517 0.0395,-1.72599 0.11752,-2.81137 h -0.60122"
     id="path77"
     style="stroke-width:0.41842" />
  <path
     class="Fingering"
     d="m 160.88335,320.31583 -3.04653,0.24812 -0.0521,0.60796 h 0.4055 c 0.66691,0 0.93472,0.15063 0.93472,0.52972 0,0.15021 -0.0521,0.40545 -0.13726,0.72555 l -1.70631,5.75327 h 1.45782 l 0.68657,-2.35989 c 0.75193,-2.56282 2.27537,-4.49802 3.53066,-4.49802 0.43766,0 0.70589,0.22888 0.70589,0.6473 0,0.33976 -0.13726,1.03936 -0.3398,1.67368 l -1.33392,4.53693 h 1.45153 l 0.71925,-2.42517 c 0.41843,-1.39292 0.83686,-2.32767 1.37281,-3.04693 0.60131,-0.83684 1.45783,-1.38581 2.09215,-1.38581 0.41843,0 0.65356,0.21549 0.65356,0.61466 0,0.23516 -0.0849,0.60128 -0.23513,1.072 l -0.77159,2.37997 c -0.4511,1.30087 -0.46404,1.40547 -0.46404,1.8695 0,0.70629 0.5163,1.17032 1.3009,1.17032 0.55561,0 1.09165,-0.26779 1.6607,-0.79751 0.35316,-0.34018 0.58157,-0.6406 1.26823,-1.64104 l -0.51638,-0.35315 c -0.86946,1.30757 -1.49084,1.94189 -1.92221,1.94189 -0.18321,0 -0.35316,-0.18327 -0.35316,-0.41842 0,-0.15021 0.0521,-0.33349 0.20296,-0.82387 l 1.05233,-3.24275 c 0.11761,-0.36612 0.20296,-0.88915 0.20296,-1.25527 0,-0.88914 -0.65398,-1.52304 -1.55611,-1.52304 -1.19002,0 -2.26201,0.77115 -3.22983,2.35988 0.0655,-0.32009 0.0979,-0.60126 0.0979,-0.8042 0,-0.88914 -0.7059,-1.55568 -1.62139,-1.55568 -1.05905,0 -1.82392,0.58829 -3.00049,2.26198 l 0.49,-2.26198"
     id="path78"
     style="stroke-width:0.41842" />
  <path
     class="VoltaSegment"
     d="m 277.37061,531.24052 h -0.80418 c -1.45153,1.08371 -3.08585,1.53978 -5.82525,1.58581 v 1.28874 h 0.96782 c 2.04603,0 2.07241,0.046 2.04603,1.93728 v 8.16337 c 0,1.42681 0,1.49795 -0.15692,1.72808 -0.20918,0.25523 -0.67322,0.34728 -1.91549,0.34728 h -0.73227 v 1.23853 h 9.17933 v -1.23853 h -0.73891 c -1.21598,0 -1.65406,-0.0921 -1.86324,-0.34728 -0.15692,-0.23013 -0.15692,-0.32219 -0.15692,-1.72808 v -12.9752 m 8.04786,12.30991 c -1.19623,0 -2.16405,0.96656 -2.16405,2.16324 0,1.17157 0.96782,2.16323 2.1444,2.16323 1.21639,0 2.18371,-0.96655 2.18371,-2.16323 0,-1.19668 -0.96732,-2.16324 -2.16406,-2.16324"
     id="path79"
     style="stroke-width:0.41842" />
  <polyline
     class="VoltaSegment"
     fill="none"
     stroke="#000000"
     stroke-width="2.73"
     stroke-linejoin="miter"
     stroke-miterlimit="2"
     points="790.964,1289.03 790.964,1234.47 1745.68,1234.47 1745.68,1289.03"
     id="polyline79"
     transform="matrix(0.41842001,0,0,0.41842001,-66.675272,8.1736573)" />
  <path
     class="VoltaSegment"
     d="m 689.17119,540.62568 -0.25101,1.15066 c -0.20926,0.9247 -0.34728,1.21759 -0.53142,1.33475 -0.23009,0.16318 -0.27612,0.16318 -1.72807,0.18411 h -4.43522 c 0.80334,-0.69458 1.40171,-1.12555 2.30132,-1.72808 3.24269,-2.0921 3.90801,-2.59839 4.57333,-3.45196 0.78662,-1.02932 1.24269,-2.25529 1.24269,-3.33062 0,-2.46868 -2.41011,-4.33065 -5.65288,-4.33065 -3.13398,0 -5.5524,2.02933 -5.5524,4.64864 0,1.60673 0.90381,2.6486 2.2804,2.6486 1.19665,0 1.95816,-0.75734 1.95816,-1.95402 0,-0.99584 -0.43935,-1.56907 -1.4979,-2.07536 -0.25529,-0.11716 -0.36827,-0.25524 -0.36827,-0.43516 0,-0.74061 1.24277,-1.51886 2.39339,-1.51886 1.60676,0 2.53141,0.98747 2.53141,2.69462 0,1.90799 -0.74059,3.26368 -3.17993,5.86625 -2.57333,2.73647 -3.46874,3.76997 -4.61936,5.43109 v 1.07953 c 0.59417,-0.067 0.84937,-0.0921 1.19665,-0.0921 h 8.64875 c 0.43935,0 0.71127,0.0251 1.40591,0.0921 l 0.52722,-6.21354 h -1.24277 m 5.61104,2.13812 c -1.19666,0 -2.16322,0.97074 -2.16322,2.16742 0,1.16739 0.96656,2.16323 2.1423,2.16323 1.21757,0 2.18413,-0.97073 2.18413,-2.16323 0,-1.19668 -0.96656,-2.16742 -2.16321,-2.16742"
     id="path80"
     style="stroke-width:0.41842" />
  <polyline
     class="VoltaSegment"
     fill="none"
     stroke="#000000"
     stroke-width="2.73"
     stroke-linejoin="miter"
     stroke-miterlimit="2"
     points="1766.32,1287.16 1766.32,1232.6 2273.03,1232.6"
     id="polyline80"
     transform="matrix(0.41842001,0,0,0.41842001,-66.675272,8.1736573)" />
  <metadata
     id="metadata80">
    <rdf:RDF>
      <cc:Work
         rdf:about="">
        <dc:title>dodo_sissi</dc:title>
      </cc:Work>
    </rdf:RDF>
  </metadata>
</svg>
