<?xml version="1.0" encoding="UTF-8" standalone="no"?>
<!-- Created with Inkscape (http://www.inkscape.org/) -->

<svg
   version="1.1"
   id="svg2"
   width="210mm"
   height="296.99997mm"
   viewBox="0 0 793.7008 1122.5196"
   sodipodi:docname="main_gauche.svg"
   inkscape:version="1.2.2 (b0a8486541, 2022-12-01)"
   inkscape:export-filename="il_1588xN.7543014186_r2my.svg"
   inkscape:export-xdpi="96"
   inkscape:export-ydpi="96"
   xmlns:inkscape="http://www.inkscape.org/namespaces/inkscape"
   xmlns:sodipodi="http://sodipodi.sourceforge.net/DTD/sodipodi-0.dtd"
   xmlns="http://www.w3.org/2000/svg"
   xmlns:svg="http://www.w3.org/2000/svg">
  <defs
     id="defs6">
    <linearGradient
       id="linearGradient2962"
       inkscape:swatch="solid">
      <stop
         style="stop-color:#000000;stop-opacity:1;"
         offset="0"
         id="stop2960" />
    </linearGradient>
  </defs>
  <sodipodi:namedview
     id="namedview4"
     pagecolor="#ffffff"
     bordercolor="#000000"
     borderopacity="0.25"
     inkscape:showpageshadow="2"
     inkscape:pageopacity="0.0"
     inkscape:pagecheckerboard="0"
     inkscape:deskcolor="#d1d1d1"
     showgrid="false"
     inkscape:zoom="0.60601266"
     inkscape:cx="549.49347"
     inkscape:cy="422.43342"
     inkscape:window-width="1104"
     inkscape:window-height="552"
     inkscape:window-x="0"
     inkscape:window-y="32"
     inkscape:window-maximized="1"
     inkscape:current-layer="g8"
     inkscape:document-units="mm" />
  <g
     inkscape:groupmode="layer"
     inkscape:label="Image"
     id="g8">
    <path
       style="fill:#000000;fill-opacity:0.114537;fill-rule:nonzero;stroke:#000000;stroke-width:10.712;stroke-dasharray:none;stroke-opacity:1;paint-order:stroke fill markers"
       d="m 272.00376,989.66597 6.25718,-62.68763 -6.92561,-45.45006 -44.09815,-44.71902 -69.4873,-78.71552 -14.37393,-20.88283 -23.60116,-82.88387 -24.965298,-62.72686 -11.042853,-45.1862 c 0,0 -13.547201,-37.30412 -12.608155,-45.2446 0.939033,-7.9405 -12.036746,-23.83611 -12.036746,-23.83611 l 14.038488,-11.2997 22.250334,-4.3601 24.30605,4.77362 16.03522,6.77641 28.80732,31.84627 12.90348,20.24335 6.51323,20.0881 2.97192,16.29634 16.81362,21.59786 13.69876,28.11148 13.46632,5.5826 18.62026,-46.84239 11.90718,-84.73455 -3.03716,-179.54222 2.08205,-95.86049 4.50071,-35.20528 4.6576,-19.3937 7.82317,-9.66721 11.53725,-7.45654 17.65059,-1.84347 12.37553,6.10886 16.95716,17.94334 4.39515,39.76098 0.39746,61.3414 5.2365,62.11154 7.13723,63.41882 5.00341,60.46924 c 0,0 14.91749,1.92175 22.74716,-2.57107 7.82969,-4.49281 3.6218,-87.30616 3.6218,-87.30616 l -3.714,-52.01206 6.93912,-97.1344 9.41481,-69.45429 4.90292,-25.482 9.88934,-10.58357 22.21348,-9.337218 17.4523,1.291697 16.56509,11.632681 8.25166,20.79378 -4.80491,51.55218 -0.60698,83.78174 0.78951,50.76422 -6.06731,134.64119 c 0,0 8.47059,10.4909 11.61899,4.83529 3.14841,-5.65561 12.60421,-89.36598 12.60421,-89.36598 l 8.28853,-73.25494 9.09464,-51.98117 6.74635,-48.98996 10.91566,-35.17139 19.07092,-18.82583 20.51985,7.49903 17.01973,13.661 5.06222,25.52841 -4.17808,52.11576 -1.19284,78.39895 -3.5599,48.43558 c 0,0 -10.98495,41.91331 -10.2733,47.33253 0.71156,5.41921 -0.5319,41.06252 -0.5319,41.06252 l -1.59409,28.10214 6.31768,11.73778 9.57235,4.06799 20.89272,-43.0867 19.4155,-57.65194 8.52241,-64.15549 14.36435,-31.45168 7.16984,-21.44573 22.41539,-4.91299 18.71326,5.65465 7.9259,17.45479 3.5267,32.03829 -8.08806,48.1373 -13.74125,69.02655 -16.66404,75.66991 -2.33869,65.57093 -11.45338,104.10247 -15.7063,75.07484 -14.03323,45.25817 -20.24135,41.8161 -20.90075,43.91676 -5.72945,20.78686 0.3764,38.7712 -4.51754,33.79679 z"
       id="path302" />
    <text
       xml:space="preserve"
       style="font-size:72px;font-family:sans-serif;-inkscape-font-specification:sans-serif;fill:#000000;fill-opacity:1;stroke:#00ffff;stroke-width:5.29134;stroke-dasharray:none;stroke-opacity:1;paint-order:stroke fill markers"
       x="272.53146"
       y="124.29739"
       id="text5765"><tspan
         sodipodi:role="line"
         id="tspan5763"
         x="272.53146"
         y="124.29739"
         style="font-size:72px;fill:#000000;fill-opacity:1;stroke:#00ffff;stroke-width:5.29134;stroke-dasharray:none;stroke-opacity:1">1</tspan></text>
    <text
       xml:space="preserve"
       style="font-size:72px;font-family:sans-serif;-inkscape-font-specification:sans-serif;fill:#000000;fill-opacity:1;stroke:#00ffff;stroke-width:5.29134;stroke-dasharray:none;stroke-opacity:1;paint-order:stroke fill markers"
       x="418.32941"
       y="81.271378"
       id="text6286"><tspan
         sodipodi:role="line"
         id="tspan6284"
         x="418.32941"
         y="81.271378">2</tspan></text>
    <text
       xml:space="preserve"
       style="font-size:72px;font-family:sans-serif;-inkscape-font-specification:sans-serif;fill:#000000;fill-opacity:1;stroke:#00ffff;stroke-width:5.29134;stroke-dasharray:none;stroke-opacity:1;paint-order:stroke fill markers"
       x="539.98962"
       y="122.63338"
       id="text6290"><tspan
         sodipodi:role="line"
         id="tspan6288"
         x="539.98962"
         y="122.63338">3</tspan></text>
    <text
       xml:space="preserve"
       style="font-size:72px;font-family:sans-serif;-inkscape-font-specification:sans-serif;fill:#000000;fill-opacity:1;stroke:#00ffff;stroke-width:5.29134;stroke-dasharray:none;stroke-opacity:1;paint-order:stroke fill markers"
       x="650.83893"
       y="256.24387"
       id="text6294"><tspan
         sodipodi:role="line"
         id="tspan6292"
         x="650.83893"
         y="256.24387">4</tspan></text>
    <text
       xml:space="preserve"
       style="font-size:72px;font-family:sans-serif;-inkscape-font-specification:sans-serif;fill:#000000;fill-opacity:1;stroke:#ffffff;stroke-width:5.29134;stroke-dasharray:none;stroke-opacity:1;paint-order:stroke fill markers"
       x="-349.58038"
       y="310.90799"
       id="text7089"
       transform="rotate(-91.849861)"><tspan
         sodipodi:role="line"
         id="tspan7087"
         x="-349.58038"
         y="310.90799">index</tspan></text>
    <text
       xml:space="preserve"
       style="font-size:72px;font-family:sans-serif;-inkscape-font-specification:sans-serif;fill:#000000;fill-opacity:1;stroke:#ffffff;stroke-width:5.29134;stroke-dasharray:none;stroke-opacity:1;paint-order:stroke fill markers"
       x="-320.44104"
       y="467.45181"
       id="text8356"
       transform="rotate(-86.094929)"><tspan
         sodipodi:role="line"
         id="tspan8354"
         x="-320.44104"
         y="467.45181">majeur</tspan></text>
    <text
       xml:space="preserve"
       style="font-size:72px;font-family:sans-serif;-inkscape-font-specification:sans-serif;fill:#000000;fill-opacity:1;stroke:#ffffff;stroke-width:5.29134;stroke-dasharray:none;stroke-opacity:1;paint-order:stroke fill markers"
       x="-399.67377"
       y="595.66681"
       id="text10607"
       transform="rotate(-82.190286)"><tspan
         sodipodi:role="line"
         id="tspan10605"
         x="-399.67377"
         y="595.66681">annulaire</tspan></text>
    <text
       xml:space="preserve"
       style="font-size:64px;font-family:sans-serif;-inkscape-font-specification:sans-serif;fill:#000000;fill-opacity:1;stroke:#ffffff;stroke-width:5.29134;stroke-dasharray:none;stroke-opacity:1;paint-order:stroke fill markers"
       x="-415.66644"
       y="754.85199"
       id="text12084"
       transform="rotate(-74.641551)"><tspan
         sodipodi:role="line"
         id="tspan12082"
         x="-415.66644"
         y="754.85199"
         style="font-size:64px">auriculaire</tspan></text>
  </g>
</svg>
