<?xml version="1.0" encoding="UTF-8" standalone="no"?>
<!-- Created with Inkscape (http://www.inkscape.org/) -->

<svg
   width="37mm"
   height="26mm"
   viewBox="0 0 37 26"
   version="1.1"
   id="svg1077"
   inkscape:version="1.2.2 (b0a8486541, 2022-12-01)"
   sodipodi:docname="point_d_orgue.svg"
   xmlns:inkscape="http://www.inkscape.org/namespaces/inkscape"
   xmlns:sodipodi="http://sodipodi.sourceforge.net/DTD/sodipodi-0.dtd"
   xmlns="http://www.w3.org/2000/svg"
   xmlns:svg="http://www.w3.org/2000/svg">
  <sodipodi:namedview
     id="namedview1079"
     pagecolor="#ffffff"
     bordercolor="#000000"
     borderopacity="0.25"
     inkscape:showpageshadow="2"
     inkscape:pageopacity="0.0"
     inkscape:pagecheckerboard="0"
     inkscape:deskcolor="#d1d1d1"
     inkscape:document-units="mm"
     showgrid="false"
     inkscape:zoom="1.9300999"
     inkscape:cx="81.861046"
     inkscape:cy="67.872133"
     inkscape:window-width="1104"
     inkscape:window-height="552"
     inkscape:window-x="0"
     inkscape:window-y="32"
     inkscape:window-maximized="1"
     inkscape:current-layer="layer1" />
  <defs
     id="defs1074" />
  <g
     inkscape:label="Calque 1"
     inkscape:groupmode="layer"
     id="layer1">
    <path
       class="Fermata"
       d="M 28.782091,9.9442243 C 24.806861,5.6250464 21.288002,5.373711 19.092029,5.373711 c -2.202601,0 -5.675138,0.2513358 -9.6569957,4.5705133 -2.0703253,2.2885567 -3.5122099,6.8127677 -3.5122099,9.1013337 0,0.806947 0.1719501,1.35594 0.595295,1.35594 1.1839609,0 0.5886659,-3.644506 4.1471776,-7.242711 3.128639,-3.128588 7.322118,-3.1748799 8.340759,-3.1748799 h 0.16532 c 1.018539,0 5.212141,0.046302 8.340677,3.1748799 3.558615,3.598205 2.963217,7.242711 4.147279,7.242711 0.423244,0 0.595194,-0.50931 0.595194,-1.35594 0,-2.288566 -1.395584,-6.859079 -3.472434,-9.1013337 M 16.168486,18.026948 c 0,1.613894 1.309608,2.923544 2.923543,2.923544 1.607307,0 2.916915,-1.30965 2.916915,-2.923544 0,-1.607287 -1.309608,-2.916925 -2.916915,-2.916925 -1.613935,0 -2.923543,1.309638 -2.923543,2.916925"
       id="path66"
       style="stroke-width:0.423317" />
  </g>
</svg>
