<?xml version="1.0" encoding="UTF-8" standalone="no"?>
<svg
   width="297mm"
   height="210mm"
   viewBox="0 0 1122.5197 793.7008"
   version="1.2"
   id="svg73"
   sodipodi:docname="le_recit_dore.svg"
   inkscape:version="1.3 (0e150ed6c4, 2023-07-21)"
   xmlns:inkscape="http://www.inkscape.org/namespaces/inkscape"
   xmlns:sodipodi="http://sodipodi.sourceforge.net/DTD/sodipodi-0.dtd"
   xmlns="http://www.w3.org/2000/svg"
   xmlns:svg="http://www.w3.org/2000/svg"
   xmlns:rdf="http://www.w3.org/1999/02/22-rdf-syntax-ns#"
   xmlns:cc="http://creativecommons.org/ns#"
   xmlns:dc="http://purl.org/dc/elements/1.1/">
  <defs
     id="defs73" />
  <sodipodi:namedview
     id="namedview73"
     pagecolor="#ffffff"
     bordercolor="#000000"
     borderopacity="0.25"
     inkscape:showpageshadow="2"
     inkscape:pageopacity="0.0"
     inkscape:pagecheckerboard="0"
     inkscape:deskcolor="#d1d1d1"
     inkscape:zoom="0.56078321"
     inkscape:cx="746.2777"
     inkscape:cy="497.51846"
     inkscape:window-width="1440"
     inkscape:window-height="872"
     inkscape:window-x="-8"
     inkscape:window-y="-8"
     inkscape:window-maximized="1"
     inkscape:current-layer="svg73"
     inkscape:document-units="mm" />
  <title
     id="title1">le_recit_dore</title>
  <desc
     id="desc1">Generated by MuseScore Studio 4.3.2</desc>
  <polyline
     class="StaffLines"
     fill="none"
     stroke="#000000"
     stroke-width="2.73"
     stroke-linejoin="bevel"
     points="336.598,634.198 2764.6,634.198"
     id="polyline1"
     transform="matrix(0.42832621,0,0,0.42832621,-81.750409,-13.460963)" />
  <polyline
     class="StaffLines"
     fill="none"
     stroke="#000000"
     stroke-width="2.73"
     stroke-linejoin="bevel"
     points="336.598,658.998 2764.6,658.998"
     id="polyline2"
     transform="matrix(0.42832621,0,0,0.42832621,-81.750409,-13.460963)" />
  <polyline
     class="StaffLines"
     fill="none"
     stroke="#000000"
     stroke-width="2.73"
     stroke-linejoin="bevel"
     points="336.598,683.798 2764.6,683.798"
     id="polyline3"
     transform="matrix(0.42832621,0,0,0.42832621,-81.750409,-13.460963)" />
  <polyline
     class="StaffLines"
     fill="none"
     stroke="#000000"
     stroke-width="2.73"
     stroke-linejoin="bevel"
     points="336.598,708.598 2764.6,708.598"
     id="polyline4"
     transform="matrix(0.42832621,0,0,0.42832621,-81.750409,-13.460963)" />
  <polyline
     class="StaffLines"
     fill="none"
     stroke="#000000"
     stroke-width="2.73"
     stroke-linejoin="bevel"
     points="336.598,733.398 2764.6,733.398"
     id="polyline5"
     transform="matrix(0.42832621,0,0,0.42832621,-81.750409,-13.460963)" />
  <polyline
     class="StaffLines"
     fill="none"
     stroke="#000000"
     stroke-width="2.73"
     stroke-linejoin="bevel"
     points="212.598,1316.2 2764.6,1316.2"
     id="polyline6"
     transform="matrix(0.42832621,0,0,0.42832621,-81.750409,-13.460963)" />
  <polyline
     class="StaffLines"
     fill="none"
     stroke="#000000"
     stroke-width="2.73"
     stroke-linejoin="bevel"
     points="212.598,1341 2764.6,1341"
     id="polyline7"
     transform="matrix(0.42832621,0,0,0.42832621,-81.750409,-13.460963)" />
  <polyline
     class="StaffLines"
     fill="none"
     stroke="#000000"
     stroke-width="2.73"
     stroke-linejoin="bevel"
     points="212.598,1365.8 2764.6,1365.8"
     id="polyline8"
     transform="matrix(0.42832621,0,0,0.42832621,-81.750409,-13.460963)" />
  <polyline
     class="StaffLines"
     fill="none"
     stroke="#000000"
     stroke-width="2.73"
     stroke-linejoin="bevel"
     points="212.598,1390.6 2764.6,1390.6"
     id="polyline9"
     transform="matrix(0.42832621,0,0,0.42832621,-81.750409,-13.460963)" />
  <polyline
     class="StaffLines"
     fill="none"
     stroke="#000000"
     stroke-width="2.73"
     stroke-linejoin="bevel"
     points="212.598,1415.4 2764.6,1415.4"
     id="polyline10"
     transform="matrix(0.42832621,0,0,0.42832621,-81.750409,-13.460963)" />
  <path
     class="Text"
     d="m 448.58598,99.813335 h -2.0731 c -1.55482,8.479575 -3.67503,10.553965 -10.97799,10.694875 h -1.97887 c -2.82696,-0.0938 -3.5337,-0.56238 -3.39235,-2.26241 V 84.50067 c 0,-2.355785 0,-2.496286 0.27841,-2.918184 0.38121,-0.475008 1.2807,-0.61551 3.96203,-0.662621 h 0.85236 V 78.70499 H 419.7939 v 2.214875 h 0.85236 c 2.68132,0.04708 3.58081,0.187613 3.95345,0.662621 0.28699,0.421898 0.28699,0.515287 0.28699,2.918184 v 22.42674 c 0,2.40291 0,2.49629 -0.28699,2.92461 -0.37264,0.4686 -1.27213,0.65619 -3.95345,0.65619 h -0.85236 v 2.21488 h 27.80265 l 0.98943,-12.909755 m 23.59649,2.308685 c 0.0471,-7.067382 -3.96202,-12.059955 -9.71014,-12.059955 -6.03085,0 -10.55397,5.226857 -10.55397,12.294245 0,6.64591 4.29183,11.07651 10.64819,11.07651 4.52312,0 7.68417,-2.2153 9.61592,-6.69258 l -1.64904,-0.89692 c -1.92748,3.62749 -3.91062,5.03968 -7.06739,5.03968 -2.40291,0 -4.1462,-0.98387 -5.37122,-3.10536 -0.84807,-1.41219 -1.225,-3.06553 -1.17789,-5.65562 h 15.26554 m -15.21843,-2.0277 c 0,-3.299391 1.50771,-8.010993 5.46116,-8.010993 2.83123,0 4.71158,2.503152 4.71158,6.317816 0,1.318394 -0.41975,1.693177 -1.92746,1.693177 h -8.24528 m 39.47455,-9.329371 -8.33952,0.52212 v 2.027703 h 1.92748 c 1.79468,0.04675 2.03027,0.328098 2.03027,2.355801 v 13.472137 c -0.0471,0.70931 -0.0943,0.99072 -0.28271,1.22459 -0.32981,0.4219 -1.27213,0.61592 -3.29811,0.66261 h -0.18847 v 1.69318 h 12.57996 v -1.69318 h -0.8481 c -3.16105,-0.10021 -3.5808,-0.33451 -3.5808,-2.02769 v -2.5434 c 0.0471,-7.917176 2.86978,-13.947155 6.54482,-14.134769 -0.65533,0.749571 -0.84381,1.225021 -0.84381,2.115077 0,1.512415 1.08367,2.596509 2.59138,2.596509 1.73901,0 2.8698,-1.271266 2.8698,-3.158908 0,-2.308673 -1.59767,-3.814664 -4.09481,-3.814664 -2.97258,0 -5.51685,2.355785 -7.06738,6.54525 v -5.842366 m 19.89575,-3.245857 h 1.93604 l 7.48714,-4.5711 c 0.75814,-0.475433 1.22501,-1.177892 1.22501,-1.840514 0,-0.943608 -0.70246,-1.646492 -1.64478,-1.646492 -0.75814,0 -1.225,0.280986 -2.35578,1.458879 l -6.64763,6.599227 m 13.24385,14.602928 c 0.0471,-7.067382 -3.96202,-12.059955 -9.71016,-12.059955 -6.03083,0 -10.55395,5.226857 -10.55395,12.294245 0,6.64591 4.29183,11.07651 10.64819,11.07651 4.52312,0 7.68417,-2.2153 9.61592,-6.69258 l -1.64906,-0.89692 c -1.92747,3.62749 -3.91062,5.03968 -7.06737,5.03968 -2.40292,0 -4.14621,-0.98387 -5.37122,-3.10536 -0.84809,-1.41219 -1.22502,-3.06553 -1.17789,-5.65562 h 15.26554 m -15.21843,-2.0277 c 0,-3.299391 1.50771,-8.010993 5.46116,-8.010993 2.83123,0 4.71158,2.503152 4.71158,6.317816 0,1.318394 -0.41975,1.693177 -1.92746,1.693177 h -8.24528 m 35.09704,5.70231 c -1.50342,3.39276 -3.10535,4.75827 -5.55538,4.75827 -3.76498,0 -6.12078,-3.43988 -6.12078,-8.94816 0,-5.748995 2.30867,-9.523413 5.78669,-9.523413 1.41775,0 2.64277,0.662622 2.64277,1.418617 0,0.14091 -0.0471,0.281412 -0.28699,0.562399 -0.74957,0.896921 -0.93803,1.36508 -0.93803,2.168187 0,1.552678 1.1779,2.637213 2.82696,2.637213 1.70046,0 2.87835,-1.318394 2.87835,-3.19917 0,-3.205595 -3.16105,-5.608508 -7.35864,-5.608508 -6.12079,0 -10.50686,4.992573 -10.50686,12.059955 0,6.69259 4.00915,11.3108 9.85151,11.3108 4.18903,0 6.59194,-1.93431 8.62221,-6.92688 l -1.84181,-0.70931 m 10.24557,-26.763966 c -1.50342,0 -2.72844,1.225004 -2.72844,2.737436 0,1.505566 1.22502,2.73057 2.68133,2.73057 1.5591,0 2.78412,-1.225004 2.78412,-2.73057 0,-1.512432 -1.22502,-2.737436 -2.73701,-2.737436 m 2.21445,11.732285 -8.8535,0.52212 v 2.027703 h 2.4029 c 1.78613,0.04675 2.0217,0.328098 2.0217,2.355801 v 13.472137 c -0.0471,0.70931 -0.0942,0.99072 -0.28269,1.22459 -0.32553,0.4219 -1.22073,0.61592 -3.251,0.66261 h -0.32552 v 1.69318 h 12.2073 v -1.69318 h -0.33839 c -3.15248,-0.10021 -3.5808,-0.33451 -3.5808,-2.02769 V 90.764949 m 14.43031,0 v -9.329372 h -1.93175 c -0.47116,6.130202 -2.54426,9.235574 -6.36064,9.523394 v 1.833664 h 3.86349 v 12.013275 c 0,3.29939 0.0942,4.4773 0.56111,5.56139 0.75813,1.981 2.64277,3.06552 5.3755,3.06552 4.24043,0 6.97314,-3.20602 6.97314,-8.19859 0,-0.28784 0,-0.61549 -0.0471,-1.08409 h -1.98315 c -0.13699,4.23615 -1.36208,6.40476 -3.67075,6.40476 -1.08367,0 -2.03027,-0.56238 -2.3558,-1.36551 -0.28269,-0.66218 -0.42404,-1.84008 -0.42404,-3.53369 V 92.792635 h 6.92604 v -2.027686 h -6.92604 m 40.45969,22.286241 8.19817,-0.3281 v -2.02769 h -0.85238 c -2.68131,-0.14042 -2.91689,-0.42149 -2.91689,-3.43989 V 77.995257 l -9.23472,0.522136 v 2.027686 h 2.77555 c 1.7947,0.04708 2.03027,0.328099 2.03027,2.355801 v 10.648192 c -1.74328,-2.402913 -3.76927,-3.487007 -6.50199,-3.487007 -5.32409,0 -9.37606,5.133483 -9.37606,11.919455 0,6.6926 3.91062,11.4513 9.37606,11.4513 2.9683,0 4.99429,-1.27169 6.50199,-4.1025 v 3.72087 m -5.56396,-20.445727 c 1.93605,0 3.77357,1.412193 4.61736,3.58038 0.61679,1.412193 0.89949,3.346505 0.89949,5.655197 0,5.50827 -2.17162,9.04196 -5.56396,9.04196 -3.34095,0 -5.31981,-3.10536 -5.31981,-8.33908 0,-2.824383 0.28269,-4.945884 0.89521,-6.498562 0.79668,-2.121501 2.54425,-3.439895 4.47171,-3.439895 m 26.51768,-2.543398 c -5.79525,0 -10.27555,5.133483 -10.27555,11.732285 0,6.45145 4.52741,11.63847 10.18133,11.63847 5.6539,0 10.17702,-5.18702 10.17702,-11.68558 0,-6.458318 -4.52312,-11.685175 -10.0828,-11.685175 m 0,2.021262 c 3.29812,0 5.13136,3.439895 5.13136,9.663913 0,6.26426 -1.83324,9.65747 -5.22558,9.65747 -3.39236,0 -5.22558,-3.39321 -5.22558,-9.61036 0,-6.411614 1.78611,-9.711023 5.3198,-9.711023 m 21.01368,-1.318378 -8.3395,0.52212 v 2.027703 h 1.92746 c 1.7947,0.04675 2.03027,0.328098 2.03027,2.355801 v 13.472137 c -0.0471,0.70931 -0.0942,0.99072 -0.2827,1.22459 -0.3298,0.4219 -1.27212,0.61592 -3.2981,0.66261 h -0.18847 v 1.69318 h 12.57994 v -1.69318 h -0.84808 c -3.16105,-0.10021 -3.58082,-0.33451 -3.58082,-2.02769 v -2.5434 c 0.0471,-7.917176 2.8698,-13.947155 6.54483,-14.134769 -0.65533,0.749571 -0.8438,1.225021 -0.8438,2.115077 0,1.512415 1.08367,2.596509 2.59138,2.596509 1.739,0 2.86978,-1.271266 2.86978,-3.158908 0,-2.308673 -1.59767,-3.814664 -4.0948,-3.814664 -2.97259,0 -5.51684,2.355785 -7.06739,6.54525 V 90.764949 M 678.67,87.519092 h 1.93603 l 7.48714,-4.5711 c 0.75813,-0.475433 1.22502,-1.177892 1.22502,-1.840514 0,-0.943608 -0.70246,-1.646492 -1.64478,-1.646492 -0.75813,0 -1.22502,0.280986 -2.3558,1.458879 L 678.67,87.519092 m 13.24383,14.602928 c 0.0471,-7.067382 -3.96201,-12.059955 -9.71014,-12.059955 -6.03085,0 -10.55397,5.226857 -10.55397,12.294245 0,6.64591 4.29183,11.07651 10.64819,11.07651 4.52313,0 7.68417,-2.2153 9.61592,-6.69258 l -1.64904,-0.89692 c -1.92748,3.62749 -3.91062,5.03968 -7.06739,5.03968 -2.40291,0 -4.14619,-0.98387 -5.37121,-3.10536 -0.84808,-1.41219 -1.22501,-3.06553 -1.1779,-5.65562 h 15.26554 m -15.21842,-2.0277 c 0,-3.299391 1.5077,-8.010993 5.46115,-8.010993 2.83124,0 4.71159,2.503152 4.71159,6.317816 0,1.318394 -0.41976,1.693177 -1.92747,1.693177 h -8.24527"
     id="path10"
     style="stroke-width:0.428326" />
  <path
     class="MeasureNumber"
     d="m 11.231925,522.49936 c -0.53541,0.32125 -0.689594,0.52685 -0.689594,0.86951 0,0.32552 0.274546,0.56967 0.615918,0.56967 0.448461,0 0.702884,-0.32981 0.756437,-0.96374 0.528544,-0.42833 1.097367,-0.61679 1.780112,-0.61679 1.271707,0 1.974166,0.78812 1.974166,2.20588 0,2.23159 -1.438756,4.04341 -3.205595,4.04341 -1.010859,0 -1.833664,-0.47545 -1.833664,-1.04512 0,-0.0986 0.01962,-0.13274 0.100206,-0.18418 0.548684,-0.25699 0.997145,-0.44117 0.997145,-1.16505 0,-0.54826 -0.428322,-0.95945 -1.030558,-0.95945 -0.7495711,0 -1.3183771,0.62964 -1.3183771,1.45202 0,1.51627 1.3051041,2.60422 3.1387681,2.60422 2.770849,0 5.019561,-2.20586 5.019561,-4.94287 0,-1.73472 -1.318819,-2.95546 -3.185896,-2.95546 -0.742722,0 -1.338517,0.15415 -2.161764,0.56967 l 0.957308,-3.23814 c 0.910195,0.18847 1.632777,0.27412 2.248712,0.27412 1.130781,0 2.14164,-0.35979 2.703598,-0.95516 0.294685,-0.34267 0.461734,-0.6382 0.461734,-0.85664 0,-0.10708 -0.05362,-0.20988 -0.120313,-0.20988 -0.04675,0 -0.08696,0.0214 -0.187597,0.0685 -0.561974,0.27412 -1.284981,0.42832 -1.954027,0.42832 -1.024133,0 -2.241863,-0.16705 -3.507129,-0.49685 l -1.559119,5.50399"
     id="path11"
     style="stroke-width:0.428326" />
  <path
     class="BarLine"
     d="m 1086.7891,566.23576 c 0,-1.23488 -0.9826,-2.25064 -2.2108,-2.25064 -1.2349,0 -2.2108,1.01576 -2.2108,2.25064 0,1.23486 0.9759,2.25064 2.2108,2.25064 1.2282,0 2.2108,-1.01578 2.2108,-2.25064"
     id="path12"
     style="stroke-width:0.4249" />
  <path
     class="BarLine"
     d="m 1086.7891,576.85824 c 0,-1.23487 -0.9826,-2.25065 -2.2108,-2.25065 -1.2349,0 -2.2108,1.01578 -2.2108,2.25065 0,1.23487 0.9759,2.25064 2.2108,2.25064 1.2282,0 2.2108,-1.01577 2.2108,-2.25064"
     id="path13"
     style="stroke-width:0.4249" />
  <polyline
     class="BarLine"
     fill="none"
     stroke="#000000"
     stroke-width="4.46"
     stroke-linejoin="bevel"
     points="2739.55,1314.83 2739.55,1416.76"
     id="polyline13"
     transform="matrix(0.42832621,0,0,0.42832621,-81.750409,-13.460963)" />
  <polyline
     class="BarLine"
     fill="none"
     stroke="#000000"
     stroke-width="13.64"
     stroke-linejoin="bevel"
     points="2757.78,1314.83 2757.78,1416.76"
     id="polyline14"
     transform="matrix(0.42832621,0,0,0.42832621,-81.750409,-13.460963)" />
  <polyline
     class="BarLine"
     fill="none"
     stroke="#000000"
     stroke-width="4.46"
     stroke-linejoin="bevel"
     points="1625.08,632.834 1625.08,734.762"
     id="polyline15"
     transform="matrix(0.42832621,0,0,0.42832621,-81.750409,-13.460963)" />
  <polyline
     class="BarLine"
     fill="none"
     stroke="#000000"
     stroke-width="4.46"
     stroke-linejoin="bevel"
     points="2233.15,1314.83 2233.15,1416.76"
     id="polyline16"
     transform="matrix(0.42832621,0,0,0.42832621,-81.750409,-13.460963)" />
  <polyline
     class="BarLine"
     fill="none"
     stroke="#000000"
     stroke-width="4.46"
     stroke-linejoin="bevel"
     points="1596.17,1314.83 1596.17,1416.76"
     id="polyline17"
     transform="matrix(0.42832621,0,0,0.42832621,-81.750409,-13.460963)" />
  <polyline
     class="BarLine"
     fill="none"
     stroke="#000000"
     stroke-width="4.46"
     stroke-linejoin="bevel"
     points="2762.37,632.834 2762.37,734.762"
     id="polyline18"
     transform="matrix(0.42832621,0,0,0.42832621,-81.750409,-13.460963)" />
  <polyline
     class="BarLine"
     fill="none"
     stroke="#000000"
     stroke-width="4.46"
     stroke-linejoin="bevel"
     points="1063.07,632.834 1063.07,734.762"
     id="polyline19"
     transform="matrix(0.42832621,0,0,0.42832621,-81.750409,-13.460963)" />
  <polyline
     class="BarLine"
     fill="none"
     stroke="#000000"
     stroke-width="4.46"
     stroke-linejoin="bevel"
     points="959.188,1314.83 959.188,1416.76"
     id="polyline20"
     transform="matrix(0.42832621,0,0,0.42832621,-81.750409,-13.460963)" />
  <polyline
     class="BarLine"
     fill="none"
     stroke="#000000"
     stroke-width="4.46"
     stroke-linejoin="bevel"
     points="2200.36,632.834 2200.36,734.762"
     id="polyline21"
     transform="matrix(0.42832621,0,0,0.42832621,-81.750409,-13.460963)" />
  <polyline
     class="Stem"
     fill="none"
     stroke="#000000"
     stroke-width="2.48"
     stroke-linejoin="bevel"
     points="1932.02,1345.16 1932.02,1427.8"
     id="polyline22"
     transform="matrix(0.42832621,0,0,0.42832621,-81.750409,-13.460963)" />
  <polyline
     class="Stem"
     fill="none"
     stroke="#000000"
     stroke-width="2.48"
     stroke-linejoin="bevel"
     points="1631.88,1357.56 1631.88,1434"
     id="polyline23"
     transform="matrix(0.42832621,0,0,0.42832621,-81.750409,-13.460963)" />
  <polyline
     class="Stem"
     fill="none"
     stroke="#000000"
     stroke-width="2.48"
     stroke-linejoin="bevel"
     points="536.773,663.165 536.773,745.798"
     id="polyline24"
     transform="matrix(0.42832621,0,0,0.42832621,-81.750409,-13.460963)" />
  <polyline
     class="Stem"
     fill="none"
     stroke="#000000"
     stroke-width="2.48"
     stroke-linejoin="bevel"
     points="799.425,687.965 799.425,758.198"
     id="polyline25"
     transform="matrix(0.42832621,0,0,0.42832621,-81.750409,-13.460963)" />
  <polyline
     class="Stem"
     fill="none"
     stroke="#000000"
     stroke-width="2.48"
     stroke-linejoin="bevel"
     points="1295.04,1369.96 1295.04,1440.2"
     id="polyline26"
     transform="matrix(0.42832621,0,0,0.42832621,-81.750409,-13.460963)" />
  <polyline
     class="Stem"
     fill="none"
     stroke="#000000"
     stroke-width="2.48"
     stroke-linejoin="bevel"
     points="2236.07,663.165 2236.07,745.798"
     id="polyline27"
     transform="matrix(0.42832621,0,0,0.42832621,-81.750409,-13.460963)" />
  <polyline
     class="Stem"
     fill="none"
     stroke="#000000"
     stroke-width="2.48"
     stroke-linejoin="bevel"
     points="1674.07,675.565 1674.07,751.998"
     id="polyline28"
     transform="matrix(0.42832621,0,0,0.42832621,-81.750409,-13.460963)" />
  <polyline
     class="Stem"
     fill="none"
     stroke="#000000"
     stroke-width="2.48"
     stroke-linejoin="bevel"
     points="994.9,1345.16 994.9,1427.8"
     id="polyline29"
     transform="matrix(0.42832621,0,0,0.42832621,-81.750409,-13.460963)" />
  <polyline
     class="Stem"
     fill="none"
     stroke="#000000"
     stroke-width="2.48"
     stroke-linejoin="bevel"
     points="1361.43,687.965 1361.43,758.198"
     id="polyline30"
     transform="matrix(0.42832621,0,0,0.42832621,-81.750409,-13.460963)" />
  <polyline
     class="Stem"
     fill="none"
     stroke="#000000"
     stroke-width="2.48"
     stroke-linejoin="bevel"
     points="658.057,1369.96 658.057,1440.2"
     id="polyline31"
     transform="matrix(0.42832621,0,0,0.42832621,-81.750409,-13.460963)" />
  <polyline
     class="Stem"
     fill="none"
     stroke="#000000"
     stroke-width="2.48"
     stroke-linejoin="bevel"
     points="1936.72,663.165 1936.72,745.798"
     id="polyline32"
     transform="matrix(0.42832621,0,0,0.42832621,-81.750409,-13.460963)" />
  <polyline
     class="Stem"
     fill="none"
     stroke="#000000"
     stroke-width="2.48"
     stroke-linejoin="bevel"
     points="2498.73,687.965 2498.73,758.198"
     id="polyline33"
     transform="matrix(0.42832621,0,0,0.42832621,-81.750409,-13.460963)" />
  <polyline
     class="Stem"
     fill="none"
     stroke="#000000"
     stroke-width="2.48"
     stroke-linejoin="bevel"
     points="357.919,1345.16 357.919,1427.8"
     id="polyline34"
     transform="matrix(0.42832621,0,0,0.42832621,-81.750409,-13.460963)" />
  <polyline
     class="Stem"
     fill="none"
     stroke="#000000"
     stroke-width="2.48"
     stroke-linejoin="bevel"
     points="2268.86,1369.96 2268.86,1440.2"
     id="polyline35"
     transform="matrix(0.42832621,0,0,0.42832621,-81.750409,-13.460963)" />
  <polyline
     class="Stem"
     fill="none"
     stroke="#000000"
     stroke-width="2.48"
     stroke-linejoin="bevel"
     points="1098.78,663.165 1098.78,745.798"
     id="polyline36"
     transform="matrix(0.42832621,0,0,0.42832621,-81.750409,-13.460963)" />
  <path
     class="Note"
     d="m 260.13316,281.21356 c 0,1.82575 1.31452,3.86395 4.76019,3.86395 4.415,0 9.04904,-3.61167 9.04904,-7.34945 0,-2.50956 -2.12449,-3.91039 -4.76019,-3.91039 -4.12285,0 -9.04904,3.48548 -9.04904,7.39589"
     id="path36"
     style="stroke-width:0.4249" />
  <path
     class="Note"
     d="m 388.35476,270.59108 c 0,1.82574 1.31452,3.86394 4.7602,3.86394 4.41497,0 9.04902,-3.61166 9.04902,-7.34946 0,-2.50956 -2.12449,-3.91039 -4.7602,-3.91039 -4.12285,0 -9.04902,3.48551 -9.04902,7.39591"
     id="path37"
     style="stroke-width:0.4249" />
  <path
     class="Note"
     d="m 500.85464,281.21356 c 0,1.82575 1.31452,3.86395 4.7602,3.86395 4.41497,0 9.04902,-3.61167 9.04902,-7.34945 0,-2.50956 -2.12449,-3.91039 -4.7602,-3.91039 -4.12285,0 -9.04902,3.48548 -9.04902,7.39589"
     id="path38"
     style="stroke-width:0.4249" />
  <path
     class="Note"
     d="m 634.76654,275.90232 c 0,1.82574 1.31454,3.86394 4.7602,3.86394 4.41497,0 9.04904,-3.61166 9.04904,-7.34944 0,-2.50956 -2.12449,-3.91041 -4.7602,-3.91041 -4.12285,0 -9.04904,3.4855 -9.04904,7.39591"
     id="path39"
     style="stroke-width:0.4249" />
  <path
     class="Note"
     d="m 875.48587,270.59108 c 0,1.82574 1.31454,3.86394 4.7602,3.86394 4.41497,0 9.04904,-3.61166 9.04904,-7.34946 0,-2.50956 -2.12449,-3.91039 -4.7602,-3.91039 -4.12285,0 -9.04904,3.48551 -9.04904,7.39591"
     id="path40"
     style="stroke-width:0.4249" />
  <path
     class="Note"
     d="m 745.25328,562.71042 c 0,1.82573 1.31454,3.86391 4.76022,3.86391 4.41497,0 9.04902,-3.61163 9.04902,-7.34941 0,-2.50958 -2.12449,-3.91041 -4.7602,-3.91041 -4.12285,0 -9.04904,3.4855 -9.04904,7.39591"
     id="path41"
     style="stroke-width:0.4249" />
  <path
     class="Note"
     d="m 987.99006,281.21356 c 0,1.82575 1.3145,3.86395 4.7602,3.86395 4.415,0 9.04904,-3.61167 9.04904,-7.34945 0,-2.50956 -2.12454,-3.91039 -4.76024,-3.91039 -4.1228,0 -9.049,3.48548 -9.049,7.39589"
     id="path42"
     style="stroke-width:0.4249" />
  <path
     class="Note"
     d="m 71.024557,562.71042 c 0,1.82573 1.314536,3.86391 4.760201,3.86391 4.414988,0 9.04904,-3.61163 9.04904,-7.34941 0,-2.50958 -2.124509,-3.91041 -4.760202,-3.91041 -4.122835,0 -9.049039,3.4855 -9.049039,7.39591"
     id="path43"
     style="stroke-width:0.4249" />
  <path
     class="Note"
     d="m 199.58153,573.3329 c 0,1.82575 1.31454,3.86393 4.7602,3.86393 4.415,0 9.04904,-3.61164 9.04904,-7.34944 0,-2.50956 -2.12449,-3.9104 -4.76018,-3.9104 -4.12286,0 -9.04906,3.48551 -9.04906,7.39591"
     id="path44"
     style="stroke-width:0.4249" />
  <path
     class="Note"
     d="m 343.86023,562.71042 c 0,1.82573 1.31453,3.86391 4.7602,3.86391 4.41497,0 9.04904,-3.61163 9.04904,-7.34941 0,-2.50958 -2.12451,-3.91041 -4.76022,-3.91041 -4.12285,0 -9.04902,3.4855 -9.04902,7.39591"
     id="path45"
     style="stroke-width:0.4249" />
  <path
     class="Note"
     d="m 472.41806,573.3329 c 0,1.82575 1.31454,3.86393 4.7602,3.86393 4.41497,0 9.04902,-3.61164 9.04902,-7.34944 0,-2.50956 -2.12449,-3.9104 -4.7602,-3.9104 -4.12285,0 -9.04902,3.48551 -9.04902,7.39591"
     id="path46"
     style="stroke-width:0.4249" />
  <path
     class="Note"
     d="m 616.69547,568.02166 c 0,1.82573 1.31451,3.86393 4.7602,3.86393 4.41497,0 9.04902,-3.61165 9.04902,-7.34944 0,-2.50956 -2.12449,-3.9104 -4.7602,-3.9104 -4.12285,0 -9.04902,3.4855 -9.04902,7.39591"
     id="path47"
     style="stroke-width:0.4249" />
  <path
     class="Note"
     d="m 147.63242,270.59108 c 0,1.82574 1.31453,3.86394 4.7602,3.86394 4.415,0 9.04904,-3.61166 9.04904,-7.34946 0,-2.50956 -2.12451,-3.91039 -4.7602,-3.91039 -4.12284,0 -9.04904,3.48551 -9.04904,7.39591"
     id="path48"
     style="stroke-width:0.4249" />
  <path
     class="Note"
     d="m 898.57973,565.93699 c -4.12285,0 -9.04904,3.44568 -9.04904,7.39591 0,1.82575 1.31453,3.86393 4.7602,3.86393 4.41497,0 9.04904,-3.61164 9.04904,-7.34944 0,-2.50956 -2.12449,-3.9104 -4.7602,-3.9104 m -5.8623,9.26148 c -1.40083,0 -1.69958,-1.14191 -1.69958,-1.52698 0,-2.08466 7.13697,-5.73614 9.13533,-5.73614 1.02242,0 1.69961,0.59751 1.69961,1.52698 0,2.1245 -7.18347,5.73614 -9.13536,5.73614"
     id="path49"
     style="stroke-width:0.4249" />
  <path
     class="Note"
     d="m 747.26642,270.59108 c 0,1.82574 1.31454,3.86394 4.7602,3.86394 4.41497,0 9.04904,-3.61166 9.04904,-7.34946 0,-2.50956 -2.12449,-3.91039 -4.7602,-3.91039 -4.12285,0 -9.04904,3.48551 -9.04904,7.39591"
     id="path50"
     style="stroke-width:0.4249" />
  <path
     class="Clef"
     d="m 44.471321,582.04334 c 0,-6.37349 -4.547741,-10.70879 -10.748627,-10.70879 -0.424905,-2.54939 -0.809956,-5.09879 -1.188371,-7.43575 4.461446,-4.72036 7.601718,-10.07145 7.601718,-16.78354 0,-3.91039 -1.188403,-7.01084 -1.912048,-8.54428 -1.015764,-2.16446 -2.250658,-3.69834 -2.974302,-3.69834 -0.292119,0 -1.653113,0.55789 -3.014156,2.21118 -2.761842,3.23306 -3.525308,8.62397 -3.525308,12.19579 0,2.2971 0.212445,4.37513 0.936089,9.18181 -0.04642,0 -2.257278,2.25064 -3.146925,3.01412 -3.870538,3.57181 -9.22163,8.75028 -9.22163,17.20845 0,7.98678 6.924531,14.23413 14.831674,14.23413 1.228208,0 2.376757,-0.1262 3.399191,-0.29876 0.763465,4.08302 1.274698,7.05732 1.274698,9.30796 0,4.42161 -2.297132,6.75856 -6.546133,6.75856 -1.062254,0 -1.951869,-0.21246 -1.998343,-0.25892 -0.07961,0 -0.16597,-0.0399 -0.16597,-0.0796 0,-0.0863 0.08631,-0.13273 0.212444,-0.17262 1.998344,-0.29876 3.990066,-1.99834 3.990066,-4.71373 0,-2.29711 -1.739441,-4.72036 -4.926187,-4.72036 -2.934449,0 -4.846497,2.42325 -4.846497,5.22493 0,2.80833 2.124493,6.50628 7.860636,6.50628 5.483846,0 8.159393,-3.10708 8.159393,-8.54446 0,-1.65313 -0.252266,-3.56518 -0.677154,-5.98843 -0.126198,-0.84981 -0.33861,-2.17098 -0.63735,-3.78427 4.162657,-1.40084 7.263092,-5.69631 7.263092,-10.11128 m -13.08558,-34.802 c 0.424905,-1.6996 2.336953,-6.16105 4.54779,-6.16105 0.637349,0 1.699587,2.0382 1.699587,5.0125 0,4.37513 -3.312896,7.69467 -6.247377,10.62248 -0.252265,-1.69959 -0.464726,-3.39919 -0.464726,-5.13863 0,-1.61328 0.16597,-3.02076 0.464726,-4.3353 m 1.274699,43.93728 c -6.074705,0 -11.259827,-4.249 -11.259827,-10.66897 0,-5.17846 3.697963,-9.81252 7.39591,-13.08558 0.717024,-0.59751 1.400864,-1.23486 2.038213,-1.82573 0.378398,2.29046 0.723628,4.24898 0.97591,6.0349 -3.870554,1.10207 -6.49961,5.22493 -6.49961,9.17517 0,3.02078 2.336937,7.09716 5.736144,7.09716 0.338561,0 0.723645,-0.17263 0.723645,-0.59752 0,-0.33859 -0.385084,-0.59087 -0.936089,-0.92947 -1.659799,-0.98257 -2.595888,-2.1245 -2.595888,-4.16932 0,-2.58924 1.958539,-4.67391 4.421592,-5.26478 l 2.463102,13.93537 c -0.84981,0.21246 -1.613309,0.29877 -2.463102,0.29877 m 4.249001,-0.80997 c -0.889615,-5.05232 -2.038165,-11.81088 -2.336953,-13.68309 4.288854,0 6.121228,2.9743 6.499642,5.01912 0.04643,0.33859 0.126198,0.80333 0.126198,1.31453 0,3.06062 -1.274699,6.16105 -4.288838,7.34944 m -1.65975,22.26739 c 0,-1.57345 -1.440669,-2.25064 -2.841517,-2.25064 -1.785899,0 -3.531976,1.10209 -3.531976,3.01414 0,0.80997 0.298739,1.40748 0.936088,1.99836 -1.102059,0.42489 -2.250641,1.2747 -2.250641,2.59587 0,1.40083 1.274699,2.33694 3.146926,2.33694 2.290462,0 3.90377,-1.2747 3.90377,-3.10708 0,-0.97594 -0.424905,-1.77926 -1.188403,-2.33695 1.234894,-0.55104 1.825753,-1.22822 1.825753,-2.25064 m -2.629072,1.6996 c -0.63735,-0.33859 -0.809973,-0.4249 -0.936089,-0.5112 l -0.04642,-0.0399 c -0.677203,-0.38507 -0.889648,-0.68383 -0.889648,-1.18839 0,-0.77014 0.597528,-1.32117 1.447322,-1.32117 0.84981,0 1.31452,0.5112 1.31452,1.40083 0,0.68382 -0.252266,1.14856 -0.889615,1.65976 m -1.619929,5.0988 c -0.929468,0 -1.566818,-0.59088 -1.566818,-1.48714 0,-0.80334 0.378415,-1.52698 1.102076,-1.95189 0.172623,0.0863 0.212444,0.1262 0.338593,0.16597 0.511201,0.25894 0.511201,0.25894 0.597545,0.34523 0.849793,0.46474 1.148533,0.88965 1.148533,1.48716 0,0.80332 -0.683823,1.44067 -1.619929,1.44067"
     id="path51"
     style="stroke-width:0.4249" />
  <path
     class="Clef"
     d="m 97.583778,289.92401 c 0,-6.37351 -4.54774,-10.70881 -10.748646,-10.70881 -0.424888,-2.5494 -0.809939,-5.09879 -1.188354,-7.43573 4.46145,-4.72038 7.6017,-10.07144 7.6017,-16.78354 0,-3.91039 -1.18839,-7.01085 -1.91205,-8.5443 -1.01576,-2.16444 -2.25064,-3.69834 -2.97428,-3.69834 -0.29212,0 -1.653116,0.5579 -3.014159,2.21118 -2.761841,3.23307 -3.525307,8.62399 -3.525307,12.19577 0,2.29713 0.212445,4.37515 0.936089,9.18183 -0.04642,0 -2.257278,2.25065 -3.146925,3.01415 -3.870538,3.5718 -9.221647,8.75025 -9.221647,17.20842 0,7.98682 6.924547,14.23414 14.831674,14.23414 1.228225,0 2.376755,-0.12619 3.399205,-0.29874 0.76345,4.083 1.2747,7.05729 1.2747,9.30795 0,4.42162 -2.29715,6.75857 -6.546132,6.75857 -1.062254,0 -1.951869,-0.21244 -1.998343,-0.25893 -0.07961,0 -0.16597,-0.0399 -0.16597,-0.0796 0,-0.0863 0.08631,-0.13274 0.212444,-0.17263 1.998343,-0.29875 3.990066,-1.99835 3.990066,-4.71371 0,-2.29713 -1.739457,-4.72038 -4.926204,-4.72038 -2.934448,0 -4.846496,2.42325 -4.846496,5.22495 0,2.80833 2.124508,6.50628 7.860652,6.50628 5.483843,0 8.159393,-3.10709 8.159393,-8.54448 0,-1.65311 -0.25227,-3.56516 -0.67717,-5.98841 -0.1262,-0.84979 -0.33859,-2.17098 -0.63735,-3.78429 4.16266,-1.40085 7.26311,-5.69629 7.26311,-10.11128 M 84.498196,255.12214 c 0.424888,-1.69959 2.336936,-6.16103 4.547772,-6.16103 0.63735,0 1.6996,2.03815 1.6996,5.01245 0,4.37515 -3.312891,7.69468 -6.247372,10.62249 -0.252266,-1.6996 -0.464726,-3.39919 -0.464726,-5.13861 0,-1.61329 0.16597,-3.02078 0.464726,-4.3353 m 1.274698,43.93727 c -6.074704,0 -11.259843,-4.249 -11.259843,-10.66895 0,-5.17849 3.69798,-9.81254 7.395926,-13.08558 0.717025,-0.59753 1.400848,-1.23488 2.038198,-1.82576 0.378414,2.29048 0.723644,4.249 0.975909,6.0349 -3.870537,1.10211 -6.499593,5.22495 -6.499593,9.17519 0,3.02076 2.336937,7.09716 5.736144,7.09716 0.338561,0 0.723645,-0.17261 0.723645,-0.5975 0,-0.33861 -0.385084,-0.59091 -0.936105,-0.9295 -1.659783,-0.98258 -2.595872,-2.12449 -2.595872,-4.16933 0,-2.58922 1.958522,-4.6739 4.421591,-5.26478 l 2.463084,13.93539 c -0.849791,0.21246 -1.61329,0.29876 -2.463084,0.29876 m 4.248984,-0.80996 c -0.88961,-5.05232 -2.03815,-11.81088 -2.33694,-13.68312 4.28884,0 6.12123,2.97432 6.49965,5.01915 0.0464,0.33859 0.12619,0.80332 0.12619,1.31454 0,3.06059 -1.27469,6.16104 -4.28885,7.34943 m -1.65973,22.26739 c 0,-1.57345 -1.440672,-2.25061 -2.84152,-2.25061 -1.785899,0 -3.531977,1.10206 -3.531977,3.01411 0,0.80999 0.29874,1.40748 0.936089,1.99834 -1.102059,0.42491 -2.250641,1.2747 -2.250641,2.59589 0,1.40085 1.274699,2.33694 3.146926,2.33694 2.290462,0 3.903773,-1.2747 3.903773,-3.10708 0,-0.97595 -0.424908,-1.77926 -1.188406,-2.33695 1.234876,-0.55105 1.825756,-1.22821 1.825756,-2.25064 m -2.629076,1.69959 c -0.637349,-0.33856 -0.809988,-0.42489 -0.936088,-0.51119 l -0.04643,-0.0399 c -0.677203,-0.38509 -0.889647,-0.68383 -0.889647,-1.18841 0,-0.77012 0.597528,-1.32117 1.447322,-1.32117 0.84981,0 1.31452,0.5112 1.31452,1.40085 0,0.68384 -0.252266,1.14855 -0.889615,1.65975 m -1.619929,5.09879 c -0.929468,0 -1.566818,-0.59087 -1.566818,-1.48716 0,-0.8033 0.378415,-1.52696 1.102059,-1.95185 0.17264,0.0863 0.212461,0.1262 0.33861,0.16595 0.5112,0.25894 0.5112,0.25894 0.597528,0.34525 0.84981,0.46474 1.14855,0.88965 1.14855,1.48714 0,0.80332 -0.68384,1.44067 -1.619929,1.44067"
     id="path52"
     style="stroke-width:0.4249" />
  <path
     class="TimeSig"
     d="m 123.54269,270.67738 c -0.33856,0.92947 -1.18835,3.99008 -3.27304,3.99008 -2.76184,0 -3.35934,-1.6996 -5.64985,-1.6996 -0.33856,0 -0.68379,0.0464 -1.10868,0.1262 0,0 1.06224,-1.6133 5.57012,-3.01414 4.5013,-1.40085 5.64985,-3.61166 5.64985,-6.16105 0,-1.7859 -0.80332,-5.31124 -7.22328,-5.31124 -6.41333,0 -7.60836,3.86391 -7.60836,5.82244 0,1.73944 1.44731,3.14029 3.18675,3.14029 1.74606,0 3.14691,-1.40085 3.14691,-3.14029 0,-1.18841 -0.8498,-2.50955 -1.95187,-2.93445 -0.13274,-0.0399 -0.29879,-0.2523 -0.29879,-0.46474 0,-0.25894 0.21246,-0.55106 0.97596,-0.7635 0.21244,-0.0863 0.80999,-0.21246 1.44734,-0.21246 2.41661,0 2.88795,1.48716 2.88795,3.6515 0,4.97265 -5.90875,6.0349 -8.37185,9.73288 0,0 -1.2747,1.77926 -1.2747,3.77761 0,1.99834 1.02242,2.12451 1.527,2.12451 0.68382,0 1.40747,-0.55106 1.40747,-1.31456 0,-0.1726 -0.0464,-0.33856 -0.13274,-0.55102 -0.25228,-0.59753 -0.33859,-1.06224 -0.33859,-1.40747 0,-0.12619 0,-0.25231 0.0464,-0.37846 0.0399,-0.25889 0.37842,-0.68379 1.40083,-0.68379 1.22826,0 1.69959,1.44729 2.46311,2.5494 0.76349,1.10869 1.9519,1.7859 3.31289,1.7859 1.361,0 3.18675,-0.97596 3.95687,-2.5494 0.76351,-1.57346 1.73942,-4.76022 1.73942,-5.90213 0,-0.55769 -0.33856,-0.80997 -0.72364,-0.80997 -0.29876,0 -0.59088,0.17262 -0.76352,0.59751"
     id="path53"
     style="stroke-width:0.4249" />
  <path
     class="TimeSig"
     d="M 116.44536,295.44769 V 298.588 H 112.92 c -0.29874,0 -0.5975,0.2589 -0.5975,0.59749 v 0.80999 c 0,0.33856 0.29876,0.59086 0.5975,0.59086 h 12.87313 c 0.34523,0 0.59752,-0.2523 0.59752,-0.59086 v -0.80999 c 0,-0.33859 -0.25229,-0.59749 -0.59752,-0.59749 h -3.7776 v -3.14031 h 3.7776 c 0.34523,0 0.59752,-0.29874 0.59752,-0.63735 v -0.80996 c 0,-0.29875 -0.25229,-0.59087 -0.59752,-0.59087 h -3.7776 v -6.75856 c 0,-0.25228 -0.1262,-0.46473 -0.33861,-0.55104 l -0.51118,-0.25892 c -0.0863,-0.0399 -0.21247,-0.0798 -0.29879,-0.0798 -0.1262,0.0399 -0.29876,0.0798 -0.38505,0.16599 l -3.86395,3.52534 c -0.1262,0.13273 -0.17259,0.29875 -0.17259,0.47138 v 3.4855 h -4.88637 c 0,0 4.7204,-5.0988 9.73285,-11.81754 0.17264,-0.21246 0.21246,-0.4249 0.21246,-0.59087 0,-0.21245 -0.0863,-0.38504 -0.1262,-0.42489 l -0.93614,-0.93611 c -0.0863,-0.0863 -0.25227,-0.17264 -0.4249,-0.17264 -0.25227,0 -5.99503,0 -6.28715,0 -0.34523,0 -0.55768,0.25894 -0.59753,0.51125 0,0 -0.21246,3.1469 -1.31454,6.58593 -1.10873,3.44568 -2.38343,5.57017 -3.4855,7.13699 0,0 -0.1262,0.21244 -0.1262,0.47138 0,0.0863 0,0.16598 0.0399,0.25228 0.1726,0.29875 0.42489,0.76351 0.42489,0.76351 0,0 0.0863,0.25889 0.46474,0.25889 h 7.30961"
     id="path54"
     style="stroke-width:0.4249" />
  <path
     class="Fingering"
     d="m 74.587805,536.50992 -3.118645,0.25699 -0.05345,0.62106 h 0.414606 c 0.682761,0 0.957324,0.15415 0.957324,0.5397 0,0.15415 -0.05362,0.41549 -0.14042,0.74528 l -1.746716,5.8895 h 1.492292 l 0.702885,-2.41576 c 0.769268,-2.62564 2.328812,-4.60452 3.613793,-4.60452 0.448444,0 0.723007,0.23131 0.723007,0.65963 0,0.35123 -0.140911,1.06654 -0.348222,1.71331 l -1.365081,4.64734 h 1.485443 l 0.736281,-2.48429 c 0.428338,-1.42633 0.856659,-2.3815 1.405343,-3.11822 0.615935,-0.85666 1.492717,-1.41777 2.141624,-1.41777 0.428338,0 0.669487,0.21845 0.669487,0.62965 0,0.23986 -0.08696,0.61251 -0.241149,1.09652 l -0.789408,2.43718 c -0.46216,1.33209 -0.47545,1.43916 -0.47545,1.91461 0,0.71959 0.528986,1.19502 1.332093,1.19502 0.568823,0 1.117506,-0.27412 1.699603,-0.81381 0.361512,-0.35123 0.595812,-0.65963 1.29868,-1.68332 l -0.52897,-0.3598 c -0.890072,1.34066 -1.525705,1.98743 -1.967741,1.98743 -0.187172,0 -0.361071,-0.18847 -0.361071,-0.42832 0,-0.15416 0.05362,-0.34267 0.207312,-0.8438 l 1.077669,-3.31953 c 0.120313,-0.37265 0.207311,-0.90806 0.207311,-1.28498 0,-0.90806 -0.669045,-1.5591 -1.592956,-1.5591 -1.21773,0 -2.315522,0.7924 -3.305817,2.41576 0.06686,-0.32554 0.100206,-0.6168 0.100206,-0.8224 0,-0.90805 -0.723007,-1.59336 -1.659766,-1.59336 -1.084078,0 -1.867061,0.60393 -3.071943,2.31723 l 0.501997,-2.31723"
     id="path55"
     style="stroke-width:0.428326" />
  <path
     class="Fingering"
     d="m 626.40132,268.26719 c -0.58252,0.70289 -2.15447,1.23145 -3.735,1.26484 v 0.74315 h 1.50772 c 0.998,0.0131 1.0965,0.11345 1.06224,1.07724 v 6.86693 c 0,0.87636 0,0.91019 -0.0986,1.06397 -0.1414,0.16747 -0.4626,0.24071 -1.42633,0.24071 h -1.10937 v 0.80312 h 6.78468 v -0.80312 h -0.94231 c -0.96374,0 -1.28499,-0.0732 -1.42632,-0.24071 -0.11999,-0.15383 -0.11999,-0.1739 -0.11999,-1.06397 v -7.07424 c 0,-0.95688 0.0386,-1.76684 0.11999,-2.87792 h -0.6168"
     id="path56"
     style="stroke-width:0.428326" />
  <path
     class="Fingering"
     d="m 879.04955,244.39228 -3.11821,0.254 -0.0515,0.62236 h 0.41549 c 0.68103,0 0.95516,0.15415 0.95516,0.54226 0,0.15382 -0.0513,0.41505 -0.1414,0.74272 l -1.74756,5.88949 h 1.49486 l 0.70244,-2.41576 c 0.77098,-2.6235 2.3301,-4.60451 3.61508,-4.60451 0.44546,0 0.71958,0.2343 0.71958,0.66262 0,0.3478 -0.13699,1.06397 -0.34693,1.7133 l -1.36637,4.64435 h 1.48629 l 0.73672,-2.48258 c 0.42832,-1.4259 0.85666,-2.38278 1.40492,-3.11907 0.61678,-0.85665 1.49486,-1.41862 2.14162,-1.41862 0.42832,0 0.67248,0.22058 0.67248,0.62921 0,0.24072 -0.0899,0.61551 -0.24416,1.09738 l -0.78811,2.43631 c -0.46259,1.33167 -0.47544,1.43876 -0.47544,1.91376 0,0.72301 0.52683,1.19804 1.3321,1.19804 0.56967,0 1.11793,-0.27414 1.70045,-0.8164 0.3598,-0.34822 0.59537,-0.65576 1.29783,-1.67989 l -0.53113,-0.36151 c -0.88664,1.33852 -1.52484,1.98786 -1.96602,1.98786 -0.18847,0 -0.35978,-0.18761 -0.35978,-0.42832 0,-0.15382 0.0513,-0.34139 0.20559,-0.84338 l 1.07937,-3.31952 c 0.11999,-0.37479 0.20561,-0.9102 0.20561,-1.28498 0,-0.9102 -0.66819,-1.55912 -1.59338,-1.55912 -1.21645,0 -2.31295,0.78941 -3.30668,2.41576 0.0685,-0.32766 0.10282,-0.61549 0.10282,-0.82323 0,-0.91019 -0.72387,-1.59253 -1.66191,-1.59253 -1.08367,0 -1.8675,0.60224 -3.07109,2.31554 l 0.50113,-2.31554"
     id="path57"
     style="stroke-width:0.428326" />
  <path
     class="Fingering"
     d="m 207.34794,532.32944 c -0.51527,0 -0.92347,0.41121 -0.92347,0.92947 0,0.49258 0.4082,0.9209 0.9102,0.9209 0.52856,0 0.93674,-0.41119 0.93674,-0.9209 0,-0.51826 -0.40818,-0.92947 -0.92347,-0.92947 m 0.30798,4.18048 -3.28612,0.25699 -0.0669,0.62106 h 0.4082 c 0.70246,0 0.977,0.15415 0.977,0.52685 0,0.16705 -0.0333,0.36408 -0.15382,0.75813 l -0.99715,3.34095 c -0.32125,1.08795 -0.37478,1.32781 -0.37478,1.72615 0,0.59967 0.51527,1.06226 1.16419,1.06226 1.47258,0 2.483,-1.52484 3.20602,-2.63849 l -0.53541,-0.29127 c -0.89005,1.34924 -1.60623,2.0731 -2.06796,2.0731 -0.17433,0 -0.29469,-0.15415 -0.29469,-0.35978 0,-0.16705 0.0669,-0.48402 0.20731,-0.95947 l 1.81397,-6.11648"
     id="path58"
     style="stroke-width:0.428326" />
  <path
     class="Fingering"
     d="m 638.33021,244.39228 -3.11822,0.254 -0.0557,0.62236 h 0.41547 c 0.68105,0 0.95518,0.15415 0.95518,0.54226 0,0.15382 -0.0515,0.41505 -0.13698,0.74272 l -1.74758,5.88949 h 1.49057 l 0.70246,-2.41576 c 0.77099,-2.6235 2.3301,-4.60451 3.61507,-4.60451 0.44975,0 0.72387,0.2343 0.72387,0.66262 0,0.3478 -0.1414,1.06397 -0.35123,1.7133 l -1.36207,4.64435 h 1.48629 l 0.73244,-2.48258 c 0.42832,-1.4259 0.85666,-2.38278 1.4092,-3.11907 0.6125,-0.85665 1.49058,-1.41862 2.14163,-1.41862 0.42832,0 0.66819,0.22058 0.66819,0.62921 0,0.24072 -0.0857,0.61551 -0.23987,1.09738 l -0.7924,2.43631 c -0.46259,1.33167 -0.47543,1.43876 -0.47543,1.91376 0,0.72301 0.53111,1.19804 1.33209,1.19804 0.56967,0 1.11793,-0.27414 1.70045,-0.8164 0.3598,-0.34822 0.59537,-0.65576 1.29783,-1.67989 l -0.52684,-0.36151 c -0.89093,1.33852 -1.52484,1.98786 -1.97031,1.98786 -0.18418,0 -0.3598,-0.18761 -0.3598,-0.42832 0,-0.15382 0.0557,-0.34139 0.2056,-0.84338 l 1.07938,-3.31952 c 0.11999,-0.37479 0.2056,-0.9102 0.2056,-1.28498 0,-0.9102 -0.66818,-1.55912 -1.58908,-1.55912 -1.22074,0 -2.31726,0.78941 -3.30669,2.41576 0.0643,-0.32766 0.0986,-0.61549 0.0986,-0.82323 0,-0.91019 -0.72387,-1.59253 -1.65762,-1.59253 -1.08367,0 -1.8675,0.60224 -3.07539,2.31554 l 0.50543,-2.31554"
     id="path59"
     style="stroke-width:0.428326" />
  <path
     class="Fingering"
     d="m 508.62018,240.20926 c -0.51399,0 -0.9209,0.41504 -0.9209,0.93031 0,0.49515 0.40691,0.92347 0.90806,0.92347 0.53112,0 0.93803,-0.41504 0.93803,-0.92347 0,-0.51527 -0.40691,-0.93031 -0.92519,-0.93031 m 0.30841,4.18302 -3.28527,0.254 -0.0685,0.62236 h 0.41119 c 0.70246,0 0.97658,0.15415 0.97658,0.52898 0,0.16705 -0.0343,0.36152 -0.15415,0.756 l -0.99799,3.33965 c -0.32125,1.09096 -0.37265,1.33211 -0.37265,1.72702 0,0.60222 0.514,1.06397 1.16076,1.06397 1.47345,0 2.48431,-1.52613 3.20816,-2.63679 l -0.53539,-0.29468 c -0.89092,1.35179 -1.60623,2.07481 -2.06881,2.07481 -0.17562,0 -0.29556,-0.15382 -0.29556,-0.36151 0,-0.16705 0.0685,-0.48186 0.20988,-0.95688 l 1.81183,-6.11693"
     id="path60"
     style="stroke-width:0.428326" />
  <path
     class="Fingering"
     d="m 391.91843,244.39228 -3.11822,0.254 -0.0557,0.62236 h 0.41547 c 0.68533,0 0.95945,0.15415 0.95945,0.54226 0,0.15382 -0.0557,0.41505 -0.1414,0.74272 l -1.74757,5.88949 h 1.49058 l 0.70674,-2.41576 c 0.7667,-2.6235 2.32581,-4.60451 3.61079,-4.60451 0.44973,0 0.72387,0.2343 0.72387,0.66262 0,0.3478 -0.1414,1.06397 -0.34695,1.7133 l -1.36635,4.64435 h 1.48629 l 0.73672,-2.48258 c 0.42832,-1.4259 0.85665,-2.38278 1.4049,-3.11907 0.61679,-0.85665 1.49058,-1.41862 2.14163,-1.41862 0.42834,0 0.66819,0.22058 0.66819,0.62921 0,0.24072 -0.0857,0.61551 -0.23985,1.09738 l -0.78812,2.43631 c -0.4626,1.33167 -0.47545,1.43876 -0.47545,1.91376 0,0.72301 0.52684,1.19804 1.33209,1.19804 0.56539,0 1.11365,-0.27414 1.69617,-0.8164 0.36408,-0.34822 0.59537,-0.65576 1.30212,-1.67989 l -0.53113,-0.36151 c -0.89091,1.33852 -1.52484,1.98786 -1.96601,1.98786 -0.18846,0 -0.36408,-0.18761 -0.36408,-0.42832 0,-0.15382 0.0557,-0.34139 0.20988,-0.84338 l 1.0751,-3.31952 c 0.11999,-0.37479 0.20988,-0.9102 0.20988,-1.28498 0,-0.9102 -0.6682,-1.55912 -1.59338,-1.55912 -1.21644,0 -2.31724,0.78941 -3.30667,2.41576 0.0685,-0.32766 0.0986,-0.61549 0.0986,-0.82323 0,-0.91019 -0.71959,-1.59253 -1.65762,-1.59253 -1.08365,0 -1.8675,0.60224 -3.07109,2.31554 l 0.50114,-2.31554"
     id="path61"
     style="stroke-width:0.428326" />
  <path
     class="Fingering"
     d="m 347.4239,536.50992 -3.11907,0.25699 -0.0535,0.62106 h 0.41505 c 0.68232,0 0.95687,0.15415 0.95687,0.5397 0,0.15415 -0.0536,0.41549 -0.14042,0.74528 l -1.74672,5.8895 h 1.4923 l 0.70288,-2.41576 c 0.76884,-2.62564 2.32795,-4.60452 3.61293,-4.60452 0.44975,0 0.72387,0.23131 0.72387,0.65963 0,0.35123 -0.1414,1.06654 -0.34695,1.71331 l -1.36635,4.64734 h 1.48629 l 0.73672,-2.48429 c 0.42832,-1.42633 0.85665,-2.3815 1.4049,-3.11822 0.61681,-0.85666 1.49058,-1.41777 2.14164,-1.41777 0.42833,0 0.66818,0.21845 0.66818,0.62965 0,0.23986 -0.0856,0.61251 -0.23985,1.09652 l -0.7924,2.43718 c -0.45832,1.33209 -0.47117,1.43916 -0.47117,1.91461 0,0.71959 0.52684,1.19502 1.32781,1.19502 0.56967,0 1.11793,-0.27412 1.70045,-0.81381 0.36408,-0.35123 0.59539,-0.65963 1.29783,-1.68332 l -0.52683,-0.3598 c -0.89092,1.34066 -1.52485,1.98743 -1.96602,1.98743 -0.18846,0 -0.36408,-0.18847 -0.36408,-0.42832 0,-0.15416 0.0557,-0.34267 0.20988,-0.8438 l 1.0751,-3.31953 c 0.11999,-0.37265 0.20988,-0.90806 0.20988,-1.28498 0,-0.90806 -0.67246,-1.5591 -1.59337,-1.5591 -1.22073,0 -2.31725,0.7924 -3.30668,2.41576 0.0685,-0.32554 0.0986,-0.6168 0.0986,-0.8224 0,-0.90805 -0.71957,-1.59336 -1.65761,-1.59336 -1.08366,0 -1.8675,0.60393 -3.0711,2.31723 l 0.50114,-2.31723"
     id="path62"
     style="stroke-width:0.428326" />
  <path
     class="Fingering"
     d="m 251.68314,272.86399 c -2.39564,0 -4.14235,2.60336 -4.14235,6.20388 0,3.52684 1.69318,6.1105 4.00185,6.1105 2.40291,0 4.08282,-2.49671 4.08282,-6.06382 0,-1.81354 -0.38165,-3.31953 -1.09781,-4.50385 -0.66905,-1.07767 -1.76684,-1.74671 -2.84451,-1.74671 m -0.12031,0.73585 c 0.5624,0 1.11108,0.37479 1.52613,1.0644 0.46173,0.80311 0.61549,1.78013 0.61549,4.12906 0,2.41619 -0.12031,3.54741 -0.46173,4.29698 -0.39491,0.84295 -1.01042,1.35179 -1.65977,1.35179 -0.58208,0 -1.11749,-0.37478 -1.52569,-1.05753 -0.48187,-0.80997 -0.61593,-1.86707 -0.61593,-4.67819 0,-2.00756 0.12031,-2.99828 0.46173,-3.75427 0.39493,-0.85665 1.01084,-1.35224 1.65977,-1.35224"
     id="path63"
     style="stroke-width:0.428326" />
  <path
     class="Fingering"
     d="m 737.75757,267.46623 c 1.55912,-0.5624 2.27443,-1.43876 2.27443,-2.81112 0,-1.7934 -1.37065,-2.94474 -3.49086,-2.94474 -2.00886,0 -3.52941,1.18476 -3.52941,2.74428 0,0.70246 0.46258,1.19803 1.13078,1.19803 0.59537,0 1.01084,-0.41504 1.01084,-1.03098 0,-0.37478 -0.1414,-0.59537 -0.53539,-0.86993 -0.16705,-0.12031 -0.21846,-0.19402 -0.21846,-0.30796 0,-0.48187 0.98944,-0.99715 1.96602,-0.99715 1.23787,0 1.88892,0.76971 1.88892,2.22859 0,1.59294 -0.65105,2.42946 -1.8675,2.42946 -0.15416,0 -0.44974,-0.0131 -0.70246,-0.0333 -0.1414,-0.0131 -0.27412,-0.0131 -0.37693,-0.0131 -0.3598,0 -0.54826,0.15382 -0.54826,0.46173 0,0.28784 0.16705,0.42832 0.54826,0.42832 0.10282,0 0.23559,0 0.38978,-0.0201 0.34694,-0.0131 0.62108,-0.0131 0.80954,-0.0131 1.26355,0 1.95316,0.90333 1.95316,2.60336 0,1.78013 -0.85664,2.77085 -2.40291,2.77085 -1.07509,0 -2.24015,-0.58252 -2.24015,-1.11108 0,-0.15383 0.0343,-0.18762 0.3598,-0.37479 0.47545,-0.29469 0.66391,-0.5821 0.66391,-1.01042 0,-0.62278 -0.4626,-1.08453 -1.07938,-1.08453 -0.73673,0 -1.21216,0.60266 -1.21216,1.51285 0,1.65977 1.52056,2.80382 3.71786,2.80382 2.48002,0 4.0948,-1.36508 4.0948,-3.47329 0,-1.61308 -0.82238,-2.59008 -2.60423,-3.08523"
     id="path64"
     style="stroke-width:0.428326" />
  <path
     class="Fingering"
     d="m 480.18361,532.32944 c -0.514,0 -0.92519,0.41121 -0.92519,0.92947 0,0.49258 0.41119,0.9209 0.91234,0.9209 0.52684,0 0.93803,-0.41119 0.93803,-0.9209 0,-0.51826 -0.41119,-0.92947 -0.92518,-0.92947 m 0.3084,4.18048 -3.28527,0.25699 -0.0685,0.62106 h 0.40691 c 0.70246,0 0.98086,0.15415 0.98086,0.52685 0,0.16705 -0.0343,0.36408 -0.15415,0.75813 l -0.99801,3.34095 c -0.32125,1.08795 -0.37693,1.32781 -0.37693,1.72615 0,0.59967 0.51828,1.06226 1.16505,1.06226 1.47344,0 2.4843,-1.52484 3.20818,-2.63849 l -0.53541,-0.29127 c -0.89093,1.34924 -1.60623,2.0731 -2.06882,2.0731 -0.17561,0 -0.29555,-0.15415 -0.29555,-0.35978 0,-0.16705 0.0685,-0.48402 0.20559,-0.95947 l 1.81611,-6.11648"
     id="path65"
     style="stroke-width:0.428326" />
  <path
     class="Fingering"
     d="m 267.89914,240.20926 c -0.51528,0 -0.92347,0.41504 -0.92347,0.93031 0,0.49515 0.40819,0.92347 0.91019,0.92347 0.52899,0 0.93719,-0.41504 0.93719,-0.92347 0,-0.51527 -0.4082,-0.93031 -0.92391,-0.93031 m 0.30797,4.18302 -3.28612,0.254 -0.0669,0.62236 h 0.4082 c 0.70289,0 0.97701,0.15415 0.97701,0.52898 0,0.16705 -0.0333,0.36152 -0.15383,0.756 l -0.99714,3.33965 c -0.32125,1.09096 -0.37479,1.33211 -0.37479,1.72702 0,0.60222 0.51527,1.06397 1.16462,1.06397 1.47215,0 2.483,-1.52613 3.2056,-2.63679 l -0.53541,-0.29468 c -0.89006,1.35179 -1.60623,2.07481 -2.06797,2.07481 -0.1739,0 -0.29468,-0.15382 -0.29468,-0.36151 0,-0.16705 0.0672,-0.48186 0.20773,-0.95688 l 1.81354,-6.11693"
     id="path66"
     style="stroke-width:0.428326" />
  <path
     class="Fingering"
     d="m 151.19567,244.39228 -3.11865,0.254 -0.0534,0.62236 h 0.41504 c 0.68275,0 0.95689,0.15415 0.95689,0.54226 0,0.15382 -0.0536,0.41505 -0.14042,0.74272 l -1.74672,5.88949 h 1.49229 l 0.70289,-2.41576 c 0.76971,-2.6235 2.32923,-4.60451 3.61422,-4.60451 0.44803,0 0.72258,0.2343 0.72258,0.66262 0,0.3478 -0.14042,1.06397 -0.3478,1.7133 l -1.3655,4.64435 h 1.48586 l 0.7363,-2.48258 c 0.42832,-1.4259 0.85664,-2.38278 1.40533,-3.11907 0.61551,-0.85665 1.49229,-1.41862 2.14164,-1.41862 0.42832,0 0.66904,0.22058 0.66904,0.62921 0,0.24072 -0.087,0.61551 -0.24072,1.09738 l -0.78983,2.43631 c -0.46174,1.33167 -0.47501,1.43876 -0.47501,1.91376 0,0.72301 0.52854,1.19804 1.33166,1.19804 0.56881,0 1.1175,-0.27414 1.70002,-0.8164 0.36151,-0.34822 0.59538,-0.65576 1.29827,-1.67989 l -0.52856,-0.36151 c -0.89006,1.33852 -1.52613,1.98786 -1.96773,1.98786 -0.18761,0 -0.36151,-0.18761 -0.36151,-0.42832 0,-0.15382 0.0534,-0.34139 0.20774,-0.84338 l 1.07724,-3.31952 c 0.12031,-0.37479 0.20774,-0.9102 0.20774,-1.28498 0,-0.9102 -0.66947,-1.55912 -1.59294,-1.55912 -1.21817,0 -2.31554,0.78941 -3.30626,2.41576 0.0669,-0.32766 0.10021,-0.61549 0.10021,-0.82323 0,-0.91019 -0.72259,-1.59253 -1.65975,-1.59253 -1.0841,0 -1.86708,0.60224 -3.07154,2.31554 l 0.50157,-2.31554"
     id="path67"
     style="stroke-width:0.428326" />
  <path
     class="Fingering"
     d="m 617.72772,535.67467 -1.93174,-2.47144 c -0.3084,-0.42832 -0.39406,-0.47971 -0.65107,-0.47971 -0.35979,0 -0.66818,0.32551 -0.66818,0.66818 0,0.15415 0.0986,0.3084 0.25271,0.44975 l 2.31724,1.83322 h 0.68104 m 1.95746,1.09224 h -1.49486 l -0.80098,2.74129 c -0.70244,2.3815 -2.28297,4.33037 -3.49513,4.33037 -0.41549,0 -0.73672,-0.32124 -0.73672,-0.73672 0,-0.21844 0.0471,-0.49258 0.18846,-0.96801 l 1.67904,-5.62392 -3.30668,0.25699 -0.0513,0.62106 h 0.40691 c 0.70245,0 0.96373,0.15415 0.96373,0.5397 0,0.17561 -0.0513,0.41549 -0.1414,0.74528 l -0.68103,2.30869 c -0.53113,1.71331 -0.53113,1.71331 -0.53113,2.24015 0,0.9466 0.65105,1.58052 1.62763,1.58052 1.19932,0 2.1759,-0.70246 3.18675,-2.28298 -0.1756,0.60394 -0.20988,0.84379 -0.20988,1.16504 0,0.6682 0.4626,1.13078 1.1008,1.13078 1.04084,0 1.88035,-0.70245 3.0968,-2.56996 l -0.51399,-0.30838 c -0.83523,1.25498 -1.50771,1.94031 -1.88035,1.94031 -0.15415,0 -0.3084,-0.19275 -0.3084,-0.41119 0,-0.18846 0.0685,-0.51828 0.20131,-1.01084 l 1.70047,-5.68818 m 5.4997,-0.25699 -3.11822,0.25699 -0.0557,0.62106 h 0.41547 c 0.68533,0 0.95945,0.15415 0.95945,0.5397 0,0.15415 -0.0557,0.41549 -0.1414,0.74528 l -1.74758,5.8895 h 1.49486 l 0.70245,-2.41576 c 0.76671,-2.62564 2.32581,-4.60452 3.61079,-4.60452 0.44975,0 0.72387,0.23131 0.72387,0.65963 0,0.35123 -0.1414,1.06654 -0.34694,1.71331 l -1.36636,4.64734 h 1.48629 l 0.73673,-2.48429 c 0.42832,-1.42633 0.85664,-2.3815 1.4049,-3.11822 0.6168,-0.85666 1.49057,-1.41777 2.14164,-1.41777 0.42832,0 0.66818,0.21845 0.66818,0.62965 0,0.23986 -0.0857,0.61251 -0.23986,1.09652 l -0.78812,2.43718 c -0.4626,1.33209 -0.47545,1.43916 -0.47545,1.91461 0,0.71959 0.52685,1.19502 1.3321,1.19502 0.56539,0 1.11793,-0.27412 1.69617,-0.81381 0.36407,-0.35123 0.59967,-0.65963 1.30211,-1.68332 l -0.53111,-0.3598 c -0.89092,1.34066 -1.52486,1.98743 -1.96603,1.98743 -0.18846,0 -0.36408,-0.18847 -0.36408,-0.42832 0,-0.15416 0.0557,-0.34267 0.20988,-0.8438 l 1.07511,-3.31953 c 0.12423,-0.37265 0.20987,-0.90806 0.20987,-1.28498 0,-0.90806 -0.66818,-1.5591 -1.59336,-1.5591 -1.21646,0 -2.31726,0.7924 -3.30669,2.41576 0.0685,-0.32554 0.10283,-0.6168 0.10283,-0.8224 0,-0.90805 -0.72388,-1.59336 -1.66191,-1.59336 -1.08367,0 -1.8675,0.60393 -3.07111,2.31723 l 0.50115,-2.31723"
     id="path68"
     style="stroke-width:0.428326" />
  <path
     class="Fingering"
     d="m 140.67339,267.49748 c 1.55955,-0.56196 2.27528,-1.43874 2.27528,-2.81067 0,-1.79383 -1.37193,-2.94475 -3.49343,-2.94475 -2.00756,0 -3.52685,1.18434 -3.52685,2.74386 0,0.70289 0.46175,1.19804 1.1308,1.19804 0.5958,0 1.01085,-0.41505 1.01085,-1.03056 0,-0.37479 -0.14042,-0.5958 -0.53541,-0.87036 -0.16748,-0.12031 -0.22101,-0.19402 -0.22101,-0.30753 0,-0.48188 0.99072,-0.99757 1.96772,-0.99757 1.2383,0 1.8872,0.76969 1.8872,2.22901 0,1.59252 -0.6489,2.42904 -1.86706,2.42904 -0.15415,0 -0.44846,-0.0131 -0.70288,-0.0333 -0.14059,-0.0131 -0.27414,-0.0131 -0.37479,-0.0131 -0.36151,0 -0.5487,0.15382 -0.5487,0.46174 0,0.28783 0.16749,0.42832 0.5487,0.42832 0.1007,0 0.23429,0 0.38806,-0.0201 0.34822,-0.0131 0.62279,-0.0131 0.80996,-0.0131 1.26485,0 1.95445,0.90335 1.95445,2.60338 0,1.78011 -0.85664,2.77083 -2.4029,2.77083 -1.07724,0 -2.24186,-0.5821 -2.24186,-1.11107 0,-0.15382 0.0333,-0.18718 0.36151,-0.37478 0.47501,-0.29426 0.66218,-0.5821 0.66218,-1.01044 0,-0.62234 -0.46173,-1.08409 -1.07723,-1.08409 -0.7363,0 -1.21132,0.60224 -1.21132,1.51243 0,1.65977 1.51928,2.80425 3.71446,2.80425 2.48257,0 4.09565,-1.36551 4.09565,-3.47372 0,-1.61265 -0.82325,-2.5901 -2.60338,-3.08525"
     id="path69"
     style="stroke-width:0.428326" />
  <path
     class="Fingering"
     d="m 753.01884,532.32944 c -0.51399,0 -0.9209,0.41121 -0.9209,0.92947 0,0.49258 0.40691,0.9209 0.90806,0.9209 0.52684,0 0.93803,-0.41119 0.93803,-0.9209 0,-0.51826 -0.41119,-0.92947 -0.92519,-0.92947 m 0.30841,4.18048 -3.28527,0.25699 -0.0685,0.62106 h 0.41119 c 0.70246,0 0.97658,0.15415 0.97658,0.52685 0,0.16705 -0.0343,0.36408 -0.15415,0.75813 l -0.99799,3.34095 c -0.32125,1.08795 -0.37693,1.32781 -0.37693,1.72615 0,0.59967 0.51828,1.06226 1.16504,1.06226 1.47345,0 2.48429,-1.52484 3.20816,-2.63849 l -0.53541,-0.29127 c -0.8909,1.34924 -1.60621,2.0731 -2.06881,2.0731 -0.17561,0 -0.29554,-0.15415 -0.29554,-0.35978 0,-0.16705 0.0685,-0.48402 0.20988,-0.95947 l 1.81183,-6.11648"
     id="path70"
     style="stroke-width:0.428326" />
  <path
     class="Fingering"
     d="m 755.03198,240.20926 c -0.51399,0 -0.92518,0.41504 -0.92518,0.93031 0,0.49515 0.41119,0.92347 0.91233,0.92347 0.52683,0 0.93804,-0.41504 0.93804,-0.92347 0,-0.51527 -0.41121,-0.93031 -0.92519,-0.93031 m 0.30839,4.18302 -3.28526,0.254 -0.0685,0.62236 h 0.40692 c 0.70673,0 0.98087,0.15415 0.98087,0.52898 0,0.16705 -0.0343,0.36152 -0.15416,0.756 l -0.99799,3.33965 c -0.32125,1.09096 -0.37693,1.33211 -0.37693,1.72702 0,0.60222 0.51827,1.06397 1.16505,1.06397 1.47344,0 2.48428,-1.52613 3.20816,-2.63679 l -0.53541,-0.29468 c -0.89092,1.35179 -1.60622,2.07481 -2.06882,2.07481 -0.17561,0 -0.29553,-0.15382 -0.29553,-0.36151 0,-0.16705 0.0685,-0.48186 0.20988,-0.95688 l 1.8118,-6.11693"
     id="path71"
     style="stroke-width:0.428326" />
  <path
     class="Fingering"
     d="m 893.09436,536.50992 -3.1182,0.25699 -0.0515,0.62106 h 0.41121 c 0.68531,0 0.95945,0.15415 0.95945,0.5397 0,0.15415 -0.0557,0.41549 -0.1414,0.74528 l -1.74757,5.8895 h 1.49486 l 0.70244,-2.41576 c 0.76671,-2.62564 2.32583,-4.60452 3.61081,-4.60452 0.44973,0 0.72385,0.23131 0.72385,0.65963 0,0.35123 -0.1414,1.06654 -0.34693,1.71331 l -1.36637,4.64734 h 1.48629 l 0.73673,-2.48429 c 0.42833,-1.42633 0.85666,-2.3815 1.40491,-3.11822 0.61679,-0.85666 1.49486,-1.41777 2.14163,-1.41777 0.42832,0 0.66819,0.21845 0.66819,0.62965 0,0.23986 -0.0856,0.61251 -0.23987,1.09652 l -0.78812,2.43718 c -0.46258,1.33209 -0.47543,1.43916 -0.47543,1.91461 0,0.71959 0.52684,1.19502 1.33209,1.19502 0.56968,0 1.11793,-0.27412 1.70046,-0.81381 0.35979,-0.35123 0.59537,-0.65963 1.29783,-1.68332 l -0.53113,-0.3598 c -0.89092,1.34066 -1.52484,1.98743 -1.96601,1.98743 -0.18848,0 -0.3598,-0.18847 -0.3598,-0.42832 0,-0.15416 0.0513,-0.34267 0.2056,-0.8438 l 1.07937,-3.31953 c 0.11998,-0.37265 0.20561,-0.90806 0.20561,-1.28498 0,-0.90806 -0.6682,-1.5591 -1.59338,-1.5591 -1.21644,0 -2.31724,0.7924 -3.30669,2.41576 0.0685,-0.32554 0.10283,-0.6168 0.10283,-0.8224 0,-0.90805 -0.72388,-1.59336 -1.66191,-1.59336 -1.08367,0 -1.8675,0.60393 -3.07109,2.31723 l 0.50113,-2.31723"
     id="path72"
     style="stroke-width:0.428326" />
  <path
     class="Fingering"
     d="m 995.75556,240.20926 c -0.5182,0 -0.9251,0.41504 -0.9251,0.93031 0,0.49515 0.4069,0.92347 0.9123,0.92347 0.5268,0 0.9337,-0.41504 0.9337,-0.92347 0,-0.51527 -0.4069,-0.93031 -0.9209,-0.93031 m 0.3084,4.18302 -3.2895,0.254 -0.064,0.62236 h 0.4069 c 0.7025,0 0.9766,0.15415 0.9766,0.52898 0,0.16705 -0.034,0.36152 -0.1541,0.756 l -0.9937,3.33965 c -0.3213,1.09096 -0.377,1.33211 -0.377,1.72702 0,0.60222 0.514,1.06397 1.1651,1.06397 1.4734,0 2.4843,-1.52613 3.2039,-2.63679 l -0.5354,-0.29468 c -0.8867,1.35179 -1.6063,2.07481 -2.0646,2.07481 -0.1756,0 -0.2955,-0.15382 -0.2955,-0.36151 0,-0.16705 0.064,-0.48186 0.2056,-0.95688 l 1.8161,-6.11693"
     id="path73"
     style="stroke-width:0.428326" />
  <metadata
     id="metadata73">
    <rdf:RDF>
      <cc:Work
         rdf:about="">
        <dc:title>le_recit_dore</dc:title>
      </cc:Work>
    </rdf:RDF>
  </metadata>
</svg>
