<?xml version="1.0" encoding="UTF-8" standalone="no"?>
<svg
   xmlns:dc="http://purl.org/dc/elements/1.1/"
   xmlns:cc="http://creativecommons.org/ns#"
   xmlns:rdf="http://www.w3.org/1999/02/22-rdf-syntax-ns#"
   xmlns:svg="http://www.w3.org/2000/svg"
   xmlns="http://www.w3.org/2000/svg"
   id="svg1060"
   version="1.1"
   viewBox="0 0 297 210"
   height="210mm"
   width="297mm">
  <defs
     id="defs1054" />
  <metadata
     id="metadata1057">
    <rdf:RDF>
      <cc:Work
         rdf:about="">
        <dc:format>image/svg+xml</dc:format>
        <dc:type
           rdf:resource="http://purl.org/dc/dcmitype/StillImage" />
        <dc:title></dc:title>
      </cc:Work>
    </rdf:RDF>
  </metadata>
  <g
     transform="translate(0,-87)"
     id="layer1">
    <polyline
       id="polyline8"
       points="336.598,386.198 2764.6,386.198"
       class="StaffLines"
       style="fill:none;stroke:#000000;stroke-width:2.73000002;stroke-linejoin:bevel"
       transform="matrix(0.11190879,0,0,0.11190879,-19.399416,91.732659)" />
    <polyline
       id="polyline10"
       points="336.598,410.998 2764.6,410.998"
       class="StaffLines"
       style="fill:none;stroke:#000000;stroke-width:2.73000002;stroke-linejoin:bevel"
       transform="matrix(0.11190879,0,0,0.11190879,-19.399416,91.732659)" />
    <polyline
       id="polyline12"
       points="336.598,435.798 2764.6,435.798"
       class="StaffLines"
       style="fill:none;stroke:#000000;stroke-width:2.73000002;stroke-linejoin:bevel"
       transform="matrix(0.11190879,0,0,0.11190879,-19.399416,91.732659)" />
    <polyline
       id="polyline14"
       points="336.598,460.598 2764.6,460.598"
       class="StaffLines"
       style="fill:none;stroke:#000000;stroke-width:2.73000002;stroke-linejoin:bevel"
       transform="matrix(0.11190879,0,0,0.11190879,-19.399416,91.732659)" />
    <polyline
       id="polyline16"
       points="336.598,485.398 2764.6,485.398"
       class="StaffLines"
       style="fill:none;stroke:#000000;stroke-width:2.73000002;stroke-linejoin:bevel"
       transform="matrix(0.11190879,0,0,0.11190879,-19.399416,91.732659)" />
    <polyline
       id="polyline18"
       points="212.598,919.398 2764.6,919.398"
       class="StaffLines"
       style="fill:none;stroke:#000000;stroke-width:2.73000002;stroke-linejoin:bevel"
       transform="matrix(0.11190879,0,0,0.11190879,-19.399416,91.732659)" />
    <polyline
       id="polyline20"
       points="212.598,944.198 2764.6,944.198"
       class="StaffLines"
       style="fill:none;stroke:#000000;stroke-width:2.73000002;stroke-linejoin:bevel"
       transform="matrix(0.11190879,0,0,0.11190879,-19.399416,91.732659)" />
    <polyline
       id="polyline22"
       points="212.598,968.998 2764.6,968.998"
       class="StaffLines"
       style="fill:none;stroke:#000000;stroke-width:2.73000002;stroke-linejoin:bevel"
       transform="matrix(0.11190879,0,0,0.11190879,-19.399416,91.732659)" />
    <polyline
       id="polyline24"
       points="212.598,993.798 2764.6,993.798"
       class="StaffLines"
       style="fill:none;stroke:#000000;stroke-width:2.73000002;stroke-linejoin:bevel"
       transform="matrix(0.11190879,0,0,0.11190879,-19.399416,91.732659)" />
    <polyline
       id="polyline26"
       points="212.598,1018.6 2764.6,1018.6"
       class="StaffLines"
       style="fill:none;stroke:#000000;stroke-width:2.73000002;stroke-linejoin:bevel"
       transform="matrix(0.11190879,0,0,0.11190879,-19.399416,91.732659)" />
    <polyline
       id="polyline28"
       points="212.598,1452.6 950.703,1452.6"
       class="StaffLines"
       style="fill:none;stroke:#000000;stroke-width:2.73000002;stroke-linejoin:bevel"
       transform="matrix(0.11190879,0,0,0.11190879,-19.399416,91.732659)" />
    <polyline
       id="polyline30"
       points="212.598,1477.4 950.703,1477.4"
       class="StaffLines"
       style="fill:none;stroke:#000000;stroke-width:2.73000002;stroke-linejoin:bevel"
       transform="matrix(0.11190879,0,0,0.11190879,-19.399416,91.732659)" />
    <polyline
       id="polyline32"
       points="212.598,1502.2 950.703,1502.2"
       class="StaffLines"
       style="fill:none;stroke:#000000;stroke-width:2.73000002;stroke-linejoin:bevel"
       transform="matrix(0.11190879,0,0,0.11190879,-19.399416,91.732659)" />
    <polyline
       id="polyline34"
       points="212.598,1527 950.703,1527"
       class="StaffLines"
       style="fill:none;stroke:#000000;stroke-width:2.73000002;stroke-linejoin:bevel"
       transform="matrix(0.11190879,0,0,0.11190879,-19.399416,91.732659)" />
    <polyline
       id="polyline36"
       points="212.598,1551.8 950.703,1551.8"
       class="StaffLines"
       style="fill:none;stroke:#000000;stroke-width:2.73000002;stroke-linejoin:bevel"
       transform="matrix(0.11190879,0,0,0.11190879,-19.399416,91.732659)" />
    <path
       style="stroke-width:0.11190877"
       id="path38"
       d="M 6.7965261,185.90233 H 6.5534637 l -2.084304,2.15771 v 0.18712 h 1.2607656 l -0.071738,0.27283 c -0.089194,0.34088 -0.089194,0.34088 -0.4790805,0.34088 h -0.080466 l -0.026185,0.20983 h 1.3918077 l 0.022713,-0.20983 h -0.080455 c -0.2954383,0 -0.3584433,-0.0227 -0.3584433,-0.12065 0,-0.0367 0.00871,-0.0804 0.045542,-0.22023 l 0.075093,-0.27283 h 0.5106382 l 0.066482,-0.24127 H 6.231723 l 0.5648023,-2.10356 m -0.998449,2.10356 H 4.7943666 l 1.3831919,-1.42338 -0.3794825,1.42338"
       class="MeasureNumber" />
    <path
       style="stroke-width:0.11190877"
       id="path40"
       d="m 6.679358,245.58933 c -0.2378063,0.0269 -0.5280947,0.0459 -0.7780994,0.0459 -0.1258984,0 -0.2692524,-0.005 -0.4301777,-0.0146 -0.1486153,-0.007 -0.295553,-0.0168 -0.4476374,-0.0258 l -0.1119078,-0.005 -0.4336456,0.9445 0.1643921,0.0537 0.1084398,-0.18017 c 0.2098312,-0.34692 0.3077514,-0.39616 0.764115,-0.3928 h 0.7570644 l -0.4878108,0.69943 c -0.5735328,0.80462 -0.5735328,0.80462 -0.7920901,1.16273 -0.1976328,0.31782 -0.2780933,0.51367 -0.2780933,0.67481 0,0.1578 0.099706,0.25516 0.2553753,0.25516 0.166073,0 0.2500046,-0.0806 0.309427,-0.28985 0.2238187,-0.84155 0.3584434,-1.13364 0.9792001,-2.13858 l 0.4214484,-0.65355 v -0.1354"
       class="MeasureNumber" />
    <polyline
       id="polyline42"
       points="1206.2,918.034 1206.2,1019.96"
       class="BarLine"
       style="fill:none;stroke:#000000;stroke-width:4.46000004;stroke-linejoin:bevel"
       transform="matrix(0.11190879,0,0,0.11190879,-19.399416,91.732659)" />
    <polyline
       id="polyline44"
       points="925.655,1451.23 925.655,1553.16"
       class="BarLine"
       style="fill:none;stroke:#000000;stroke-width:4.46000004;stroke-linejoin:bevel"
       transform="matrix(0.11190879,0,0,0.11190879,-19.399416,91.732659)" />
    <polyline
       id="polyline46"
       points="943.883,1451.23 943.883,1553.16"
       class="BarLine"
       style="fill:none;stroke:#000000;stroke-width:13.64000034;stroke-linejoin:bevel"
       transform="matrix(0.11190879,0,0,0.11190879,-19.399416,91.732659)" />
    <polyline
       id="polyline48"
       points="1009.98,384.834 1009.98,486.762"
       class="BarLine"
       style="fill:none;stroke:#000000;stroke-width:4.46000004;stroke-linejoin:bevel"
       transform="matrix(0.11190879,0,0,0.11190879,-19.399416,91.732659)" />
    <polyline
       id="polyline50"
       points="2762.37,384.834 2762.37,486.762"
       class="BarLine"
       style="fill:none;stroke:#000000;stroke-width:4.46000004;stroke-linejoin:bevel"
       transform="matrix(0.11190879,0,0,0.11190879,-19.399416,91.732659)" />
    <polyline
       id="polyline52"
       points="1984.29,918.034 1984.29,1019.96"
       class="BarLine"
       style="fill:none;stroke:#000000;stroke-width:4.46000004;stroke-linejoin:bevel"
       transform="matrix(0.11190879,0,0,0.11190879,-19.399416,91.732659)" />
    <polyline
       id="polyline54"
       points="622.739,1451.23 622.739,1553.16"
       class="BarLine"
       style="fill:none;stroke:#000000;stroke-width:4.46000004;stroke-linejoin:bevel"
       transform="matrix(0.11190879,0,0,0.11190879,-19.399416,91.732659)" />
    <polyline
       id="polyline56"
       points="2762.37,918.034 2762.37,1019.96"
       class="BarLine"
       style="fill:none;stroke:#000000;stroke-width:4.46000004;stroke-linejoin:bevel"
       transform="matrix(0.11190879,0,0,0.11190879,-19.399416,91.732659)" />
    <polyline
       id="polyline58"
       points="1886.17,384.834 1886.17,486.762"
       class="BarLine"
       style="fill:none;stroke:#000000;stroke-width:4.46000004;stroke-linejoin:bevel"
       transform="matrix(0.11190879,0,0,0.11190879,-19.399416,91.732659)" />
    <polyline
       id="polyline60"
       points="2549.55,973.165 2549.55,1043.4"
       class="Stem"
       style="fill:none;stroke:#000000;stroke-width:2.48000002;stroke-linejoin:bevel"
       transform="matrix(0.11190879,0,0,0.11190879,-19.399416,91.732659)" />
    <polyline
       id="polyline62"
       points="1771.47,973.165 1771.47,1043.4"
       class="Stem"
       style="fill:none;stroke:#000000;stroke-width:2.48000002;stroke-linejoin:bevel"
       transform="matrix(0.11190879,0,0,0.11190879,-19.399416,91.732659)" />
    <polyline
       id="polyline64"
       points="1045.69,439.965 1045.69,510.198"
       class="Stem"
       style="fill:none;stroke:#000000;stroke-width:2.48000002;stroke-linejoin:bevel"
       transform="matrix(0.11190879,0,0,0.11190879,-19.399416,91.732659)" />
    <polyline
       id="polyline66"
       points="569.741,973.165 569.741,1043.4"
       class="Stem"
       style="fill:none;stroke:#000000;stroke-width:2.48000002;stroke-linejoin:bevel"
       transform="matrix(0.11190879,0,0,0.11190879,-19.399416,91.732659)" />
    <polyline
       id="polyline68"
       points="2551.5,439.965 2551.5,510.198"
       class="Stem"
       style="fill:none;stroke:#000000;stroke-width:2.48000002;stroke-linejoin:bevel"
       transform="matrix(0.11190879,0,0,0.11190879,-19.399416,91.732659)" />
    <polyline
       id="polyline70"
       points="1255.56,439.965 1255.56,510.198"
       class="Stem"
       style="fill:none;stroke:#000000;stroke-width:2.48000002;stroke-linejoin:bevel"
       transform="matrix(0.11190879,0,0,0.11190879,-19.399416,91.732659)" />
    <polyline
       id="polyline72"
       points="2131.76,439.965 2131.76,510.198"
       class="Stem"
       style="fill:none;stroke:#000000;stroke-width:2.48000002;stroke-linejoin:bevel"
       transform="matrix(0.11190879,0,0,0.11190879,-19.399416,91.732659)" />
    <polyline
       id="polyline74"
       points="1559.65,973.165 1559.65,1043.4"
       class="Stem"
       style="fill:none;stroke:#000000;stroke-width:2.48000002;stroke-linejoin:bevel"
       transform="matrix(0.11190879,0,0,0.11190879,-19.399416,91.732659)" />
    <polyline
       id="polyline76"
       points="1921.89,439.965 1921.89,510.198"
       class="Stem"
       style="fill:none;stroke:#000000;stroke-width:2.48000002;stroke-linejoin:bevel"
       transform="matrix(0.11190879,0,0,0.11190879,-19.399416,91.732659)" />
    <polyline
       id="polyline78"
       points="993.387,973.165 993.387,1043.4"
       class="Stem"
       style="fill:none;stroke:#000000;stroke-width:2.48000002;stroke-linejoin:bevel"
       transform="matrix(0.11190879,0,0,0.11190879,-19.399416,91.732659)" />
    <polyline
       id="polyline80"
       points="1465.44,439.965 1465.44,510.198"
       class="Stem"
       style="fill:none;stroke:#000000;stroke-width:2.48000002;stroke-linejoin:bevel"
       transform="matrix(0.11190879,0,0,0.11190879,-19.399416,91.732659)" />
    <path
       id="path82"
       d="m 44.220838,200.63864 c 0,0.47701 0.343449,1.00953 1.243695,1.00953 1.15351,0 2.364247,-0.94362 2.364247,-1.92018 0,-0.65568 -0.555066,-1.02167 -1.243698,-1.02167 -1.077173,0 -2.364244,0.91065 -2.364244,1.93232"
       class="Note"
       style="stroke-width:0.11101351" />
    <path
       id="path84"
       d="m 97.483711,140.96889 c 0,0.477 0.34345,1.00952 1.243694,1.00952 1.153503,0 2.364245,-0.94361 2.364245,-1.92019 0,-0.65567 -0.55507,-1.02166 -1.243702,-1.02166 -1.077167,0 -2.364237,0.91065 -2.364237,1.93233"
       class="Note"
       style="stroke-width:0.11101351" />
    <path
       id="path86"
       d="m 56.224564,256.94526 c -1.531639,0 -2.0763,0.77709 -2.0763,1.49868 0,0.72159 0.544661,1.4987 2.0763,1.4987 1.531647,0 2.064164,-0.77711 2.064164,-1.4987 0,-0.72159 -0.532517,-1.49868 -2.064164,-1.49868 m 0.08847,2.64178 c -0.310498,0 -0.522114,-0.0885 -0.666084,-0.36599 -0.14397,-0.27755 -0.343442,-0.99913 -0.355587,-1.2888 -0.02256,-0.30009 0.08846,-0.47702 0.355587,-0.56548 0.133558,-0.0451 0.310489,-0.0676 0.48916,-0.0676 0.298346,0 0.499557,0.0676 0.653931,0.36773 0.156107,0.28794 0.367731,1.00953 0.367731,1.28706 0,0.54467 -0.400682,0.63313 -0.844738,0.63313"
       class="Note"
       style="stroke-width:0.11101351" />
    <path
       id="path88"
       d="m 155.00035,200.63864 c 0,0.47701 0.34345,1.00953 1.24369,1.00953 1.15351,0 2.36424,-0.94362 2.36424,-1.92018 0,-0.65568 -0.55506,-1.02167 -1.24369,-1.02167 -1.07717,0 -2.36424,0.91065 -2.36424,1.93232"
       class="Note"
       style="stroke-width:0.11101351" />
    <path
       id="path90"
       d="m 91.630541,200.63864 c 0,0.47701 0.34345,1.00953 1.243695,1.00953 1.153513,0 2.364248,-0.94362 2.364248,-1.92018 0,-0.65568 -0.555063,-1.02167 -1.243695,-1.02167 -1.077177,0 -2.364248,0.91065 -2.364248,1.93232"
       class="Note"
       style="stroke-width:0.11101351" />
    <path
       id="path92"
       d="m 178.70487,200.63864 c 0,0.47701 0.34344,1.00953 1.2437,1.00953 1.15349,0 2.36424,-0.94362 2.36424,-1.92018 0,-0.65568 -0.55508,-1.02167 -1.2437,-1.02167 -1.07718,0 -2.36424,0.91065 -2.36424,1.93232"
       class="Note"
       style="stroke-width:0.11101351" />
    <path
       id="path94"
       d="m 144.45742,140.96889 c 0,0.477 0.34345,1.00952 1.2437,1.00952 1.15351,0 2.36424,-0.94361 2.36424,-1.92019 0,-0.65567 -0.55507,-1.02166 -1.2437,-1.02166 -1.07718,0 -2.36424,0.91065 -2.36424,1.93233"
       class="Note"
       style="stroke-width:0.11101351" />
    <path
       id="path96"
       d="m 265.99707,140.96889 c 0,0.477 0.34345,1.00952 1.2437,1.00952 1.1535,0 2.36425,-0.94361 2.36425,-1.92019 0,-0.65567 -0.55508,-1.02166 -1.24371,-1.02166 -1.07718,0 -2.36424,0.91065 -2.36424,1.93233"
       class="Note"
       style="stroke-width:0.11101351" />
    <path
       id="path98"
       d="m 219.02449,140.96889 c 0,0.477 0.34344,1.00952 1.24368,1.00952 1.15351,0 2.36424,-0.94361 2.36424,-1.92019 0,-0.65567 -0.55506,-1.02166 -1.24369,-1.02166 -1.07718,0 -2.36423,0.91065 -2.36423,1.93233"
       class="Note"
       style="stroke-width:0.11101351" />
    <path
       id="path100"
       d="m 265.77886,200.63864 c 0,0.47701 0.34343,1.00953 1.24369,1.00953 1.15349,0 2.36424,-0.94362 2.36424,-1.92018 0,-0.65568 -0.55507,-1.02167 -1.2437,-1.02167 -1.07717,0 -2.36423,0.91065 -2.36423,1.93232"
       class="Note"
       style="stroke-width:0.11101351" />
    <path
       id="path102"
       d="m 195.53818,140.96889 c 0,0.477 0.34345,1.00952 1.24371,1.00952 1.15349,0 2.36424,-0.94361 2.36424,-1.92019 0,-0.65567 -0.55508,-1.02166 -1.24371,-1.02166 -1.07718,0 -2.36424,0.91065 -2.36424,1.93233"
       class="Note"
       style="stroke-width:0.11101351" />
    <path
       id="path104"
       d="m 120.97001,140.96889 c 0,0.477 0.34345,1.00952 1.24369,1.00952 1.1535,0 2.36425,-0.94361 2.36425,-1.92019 0,-0.65567 -0.55507,-1.02166 -1.2437,-1.02166 -1.07718,0 -2.36424,0.91065 -2.36424,1.93233"
       class="Note"
       style="stroke-width:0.11101351" />
    <path
       id="path106"
       d="m 13.578537,262.58441 c 0,-1.66521 -1.18819,-2.79789 -2.8083,-2.79789 -0.111012,-0.66608 -0.211613,-1.33217 -0.31048,-1.94275 1.165642,-1.23328 1.986095,-2.63136 1.986095,-4.38502 0,-1.02168 -0.310492,-1.83173 -0.49956,-2.23237 -0.265388,-0.56551 -0.588028,-0.96627 -0.777092,-0.96627 -0.07633,0 -0.431912,0.14576 -0.78751,0.57772 -0.7215862,0.84469 -0.9210549,2.25318 -0.9210549,3.18639 0,0.60017 0.055513,1.14309 0.2445733,2.39893 -0.012137,0 -0.5897618,0.58803 -0.8222005,0.78751 -1.0112558,0.9332 -2.4093367,2.28618 -2.4093367,4.49603 0,2.08672 1.8091753,3.71896 3.8750718,3.71896 0.320896,0 0.620975,-0.033 0.888106,-0.078 0.199469,1.06677 0.33304,1.84387 0.33304,2.43189 0,1.15524 -0.600171,1.7658 -1.7103079,1.7658 -0.2775306,0 -0.5099608,-0.0554 -0.5221039,-0.0676 -0.020812,0 -0.043365,-0.0106 -0.043365,-0.0208 0,-0.0226 0.022543,-0.0347 0.055502,-0.0451 0.5221092,-0.078 1.042484,-0.5221 1.042484,-1.23155 0,-0.60017 -0.4544689,-1.23329 -1.2870701,-1.23329 -0.7666782,0 -1.2662394,0.63312 -1.2662394,1.36511 0,0.73373 0.5550664,1.6999 2.0537488,1.6999 1.4327637,0 2.1318017,-0.81178 2.1318017,-2.23241 0,-0.43191 -0.06591,-0.93147 -0.17692,-1.5646 -0.03295,-0.22202 -0.08846,-0.5672 -0.166522,-0.9887 1.087577,-0.36601 1.897634,-1.48828 1.897634,-2.64178 m -3.418872,-9.09282 c 0.111011,-0.44406 0.610571,-1.6097 1.188198,-1.6097 0.166521,0 0.444056,0.53252 0.444056,1.30961 0,1.14309 -0.865562,2.01038 -1.632254,2.77535 -0.06592,-0.44406 -0.121416,-0.88812 -0.121416,-1.34257 0,-0.42152 0.04336,-0.78924 0.121416,-1.13269 m 0.333041,11.47949 c -1.5871419,0 -2.9418554,-1.11014 -2.9418554,-2.78749 0,-1.35298 0.9661682,-2.56371 1.932329,-3.41886 0.1873373,-0.15611 0.3660015,-0.32264 0.5325214,-0.47702 0.09887,0.59844 0.189069,1.11014 0.254975,1.57675 -1.0112525,0.28794 -1.6981519,1.36512 -1.6981519,2.3972 0,0.78923 0.6105759,1.85426 1.4986829,1.85426 0.08846,0 0.189068,-0.0451 0.189068,-0.1561 0,-0.0885 -0.100608,-0.15438 -0.244574,-0.24284 -0.4336498,-0.25672 -0.6782242,-0.55508 -0.6782242,-1.08933 0,-0.67649 0.5117043,-1.22115 1.1552292,-1.37552 l 0.643533,3.64089 c -0.222025,0.0554 -0.421508,0.0781 -0.643533,0.0781 m 1.110132,-0.21163 c -0.232427,-1.32001 -0.532509,-3.08583 -0.610571,-3.57498 1.120545,0 1.599292,0.7771 1.698159,1.31135 0.01214,0.0885 0.03295,0.20989 0.03295,0.34345 0,0.79964 -0.333041,1.60969 -1.120546,1.92018 m -0.433642,5.81781 c 0,-0.41111 -0.376402,-0.58803 -0.742404,-0.58803 -0.4666006,0 -0.9227996,0.28795 -0.9227996,0.7875 0,0.21162 0.078055,0.36774 0.2445743,0.52211 -0.2879354,0.11102 -0.5880267,0.33305 -0.5880267,0.67823 0,0.36599 0.33304,0.61057 0.8221994,0.61057 0.5984286,0 1.0199366,-0.33304 1.0199366,-0.81179 0,-0.25498 -0.111015,-0.46486 -0.310493,-0.61057 0.322636,-0.14397 0.477013,-0.32089 0.477013,-0.58802 m -0.686895,0.44405 c -0.166521,-0.0885 -0.211625,-0.11101 -0.244574,-0.13356 l -0.01214,-0.0106 c -0.176933,-0.10067 -0.2324428,-0.17867 -0.2324428,-0.31049 0,-0.20122 0.1561198,-0.34519 0.3781458,-0.34519 0.222029,0 0.343444,0.13356 0.343444,0.36601 0,0.17866 -0.06592,0.30007 -0.232429,0.43364 m -0.423238,1.33216 c -0.2428435,0 -0.4093646,-0.15437 -0.4093646,-0.38854 0,-0.20989 0.098867,-0.39896 0.2879355,-0.50998 0.045107,0.0226 0.055513,0.033 0.088472,0.0434 0.133558,0.0676 0.133558,0.0676 0.156119,0.0902 0.222027,0.12143 0.30008,0.23244 0.30008,0.38855 0,0.20989 -0.178664,0.37641 -0.423238,0.37641"
       class="Clef"
       style="stroke-width:0.11101351" />
    <path
       id="path108"
       d="m 27.455224,143.24466 c 0,-1.66521 -1.188189,-2.79789 -2.808295,-2.79789 -0.111015,-0.66608 -0.211617,-1.33216 -0.310485,-1.94273 1.165642,-1.2333 1.986096,-2.63136 1.986096,-4.38504 0,-1.02167 -0.310493,-1.83172 -0.49956,-2.23236 -0.265387,-0.56551 -0.588024,-0.96626 -0.777093,-0.96626 -0.07632,0 -0.431907,0.14574 -0.787508,0.57771 -0.721587,0.8447 -0.921056,2.25318 -0.921056,3.18638 0,0.60017 0.05551,1.1431 0.244574,2.39893 -0.01214,0 -0.589762,0.58804 -0.822201,0.78752 -1.011252,0.9332 -2.409337,2.28617 -2.409337,4.49604 0,2.08672 1.809174,3.71896 3.875071,3.71896 0.320897,0 0.620976,-0.0329 0.88811,-0.078 0.19947,1.06676 0.333041,1.84387 0.333041,2.43189 0,1.15523 -0.600175,1.76581 -1.710307,1.76581 -0.277536,0 -0.509966,-0.0555 -0.522109,-0.0678 -0.02081,0 -0.04336,-0.0106 -0.04336,-0.0208 0,-0.0226 0.02254,-0.0347 0.05551,-0.0451 0.522109,-0.078 1.042485,-0.5221 1.042485,-1.23154 0,-0.60017 -0.454465,-1.23329 -1.287065,-1.23329 -0.766684,0 -1.266244,0.63312 -1.266244,1.36512 0,0.73373 0.555065,1.69988 2.053749,1.69988 1.432763,0 2.131805,-0.81178 2.131805,-2.23241 0,-0.43191 -0.06592,-0.93146 -0.176925,-1.56459 -0.03295,-0.22202 -0.08846,-0.56721 -0.16652,-0.98872 1.08758,-0.36599 1.897632,-1.48827 1.897632,-2.64176 M 24.03636,134.1519 c 0.111015,-0.44405 0.610576,-1.60969 1.188199,-1.60969 0.16652,0 0.444055,0.53251 0.444055,1.3096 0,1.1431 -0.865563,2.01039 -1.632254,2.77533 -0.06592,-0.44404 -0.121416,-0.8881 -0.121416,-1.34256 0,-0.42151 0.04337,-0.78923 0.121416,-1.13268 m 0.333041,11.47949 c -1.587137,0 -2.941855,-1.11013 -2.941855,-2.78748 0,-1.35299 0.966168,-2.56371 1.932333,-3.41887 0.187334,-0.15612 0.365997,-0.32264 0.532517,-0.47701 0.09887,0.59843 0.189069,1.11014 0.254979,1.57673 -1.011256,0.28795 -1.698151,1.36513 -1.698151,2.39721 0,0.78923 0.610571,1.85427 1.498682,1.85427 0.08845,0 0.189064,-0.0451 0.189064,-0.15611 0,-0.0884 -0.100609,-0.15438 -0.244574,-0.24284 -0.433651,-0.25672 -0.678224,-0.55508 -0.678224,-1.08933 0,-0.67648 0.511704,-1.22115 1.155229,-1.37553 l 0.643532,3.6409 c -0.222025,0.0555 -0.421507,0.0781 -0.643532,0.0781 m 1.110136,-0.21162 c -0.23243,-1.32002 -0.53251,-3.08583 -0.610576,-3.57499 1.120546,0 1.599292,0.7771 1.698164,1.31135 0.01214,0.0884 0.03295,0.20989 0.03295,0.34345 0,0.79965 -0.33304,1.6097 -1.120551,1.92019 m -0.433641,5.81779 c 0,-0.41108 -0.376403,-0.58801 -0.742401,-0.58801 -0.466604,0 -0.922802,0.28794 -0.922802,0.7875 0,0.21162 0.07806,0.36773 0.244574,0.52211 -0.287936,0.11101 -0.588024,0.33304 -0.588024,0.67823 0,0.36599 0.333041,0.61056 0.822196,0.61056 0.598429,0 1.019936,-0.33304 1.019936,-0.81178 0,-0.25499 -0.111011,-0.46487 -0.310492,-0.61057 0.32264,-0.14398 0.477013,-0.3209 0.477013,-0.58804 m -0.686895,0.44406 c -0.166517,-0.0884 -0.211621,-0.11101 -0.244571,-0.13357 l -0.01214,-0.0106 c -0.176934,-0.10066 -0.232439,-0.17866 -0.232439,-0.3105 0,-0.2012 0.156119,-0.34518 0.378145,-0.34518 0.222025,0 0.343441,0.13356 0.343441,0.36601 0,0.17866 -0.06591,0.30008 -0.232427,0.43364 m -0.42324,1.33215 c -0.24284,0 -0.40936,-0.15437 -0.40936,-0.38854 0,-0.20987 0.09887,-0.39895 0.287936,-0.50996 0.04511,0.0225 0.05551,0.0329 0.08846,0.0434 0.133559,0.0676 0.133559,0.0676 0.156115,0.0901 0.22203,0.12143 0.300083,0.23245 0.300083,0.38855 0,0.20988 -0.178667,0.37641 -0.423241,0.37641"
       class="Clef"
       style="stroke-width:0.11101351" />
    <path
       id="path110"
       d="m 13.578537,202.91442 c 0,-1.66521 -1.18819,-2.79789 -2.8083,-2.79789 -0.111012,-0.66608 -0.211613,-1.33216 -0.31048,-1.94274 1.165642,-1.23329 1.986095,-2.63136 1.986095,-4.38503 0,-1.02166 -0.310492,-1.83171 -0.49956,-2.23236 -0.265388,-0.5655 -0.588028,-0.96627 -0.777092,-0.96627 -0.07633,0 -0.431912,0.14577 -0.78751,0.57772 -0.7215862,0.8447 -0.9210549,2.25318 -0.9210549,3.18638 0,0.60017 0.055513,1.14309 0.2445733,2.39893 -0.012137,0 -0.5897618,0.58803 -0.8222005,0.78752 -1.0112558,0.93319 -2.4093367,2.28617 -2.4093367,4.49604 0,2.08671 1.8091753,3.71896 3.8750718,3.71896 0.320896,0 0.620975,-0.033 0.888106,-0.078 0.199469,1.06676 0.33304,1.84386 0.33304,2.43189 0,1.15524 -0.600171,1.76581 -1.7103079,1.76581 -0.2775306,0 -0.5099608,-0.0554 -0.5221039,-0.0676 -0.020812,0 -0.043365,-0.0106 -0.043365,-0.0208 0,-0.0226 0.022543,-0.0347 0.055502,-0.0451 0.5221092,-0.078 1.042484,-0.52211 1.042484,-1.23155 0,-0.60018 -0.4544689,-1.2333 -1.2870701,-1.2333 -0.7666782,0 -1.2662394,0.63312 -1.2662394,1.36513 0,0.73373 0.5550664,1.69989 2.0537488,1.69989 1.4327637,0 2.1318017,-0.81179 2.1318017,-2.23242 0,-0.4319 -0.06591,-0.93146 -0.17692,-1.56459 -0.03295,-0.22202 -0.08846,-0.56721 -0.166522,-0.98872 1.087577,-0.36599 1.897634,-1.48827 1.897634,-2.64177 m -3.418865,-9.09271 c 0.111011,-0.44404 0.610572,-1.60968 1.188199,-1.60968 0.16652,0 0.444056,0.53251 0.444056,1.3096 0,1.14309 -0.865564,2.01038 -1.632255,2.77534 -0.06592,-0.44406 -0.121415,-0.88812 -0.121415,-1.34258 0,-0.4215 0.04336,-0.78923 0.121415,-1.13268 m 0.333041,11.47949 c -1.5871414,0 -2.941855,-1.11013 -2.941855,-2.78747 0,-1.35299 0.9661683,-2.56373 1.932328,-3.41887 0.1873384,-0.15613 0.3660015,-0.32264 0.532523,-0.47701 0.09887,0.59842 0.189068,1.11013 0.254974,1.57673 -1.011252,0.28795 -1.6981515,1.36512 -1.6981515,2.3972 0,0.78923 0.6105749,1.85427 1.4986825,1.85427 0.08846,0 0.189068,-0.0451 0.189068,-0.15611 0,-0.0885 -0.100609,-0.15439 -0.244573,-0.24285 -0.4336514,-0.25671 -0.6782247,-0.55506 -0.6782247,-1.08931 0,-0.6765 0.5117032,-1.22115 1.1552287,-1.37553 l 0.643533,3.6409 c -0.222026,0.0554 -0.421508,0.078 -0.643533,0.078 m 1.110132,-0.21161 c -0.232426,-1.32003 -0.53251,-3.08583 -0.610572,-3.57498 1.120545,0 1.599292,0.77709 1.698161,1.31134 0.01214,0.0884 0.03295,0.20988 0.03295,0.34345 0,0.79965 -0.333041,1.6097 -1.120546,1.92019 m -0.433642,5.81779 c 0,-0.41109 -0.376403,-0.588 -0.742404,-0.588 -0.4666001,0 -0.9227991,0.28792 -0.9227991,0.7875 0,0.21162 0.078055,0.36772 0.2445744,0.5221 -0.2879365,0.111 -0.5880279,0.33303 -0.5880279,0.67823 0,0.36599 0.3330401,0.61057 0.8222005,0.61057 0.5984281,0 1.0199361,-0.33304 1.0199361,-0.81179 0,-0.25499 -0.111015,-0.46487 -0.310493,-0.61058 0.322635,-0.14397 0.477013,-0.32088 0.477013,-0.58803 m -0.686895,0.44406 c -0.16652,-0.0884 -0.211626,-0.11101 -0.244574,-0.13356 l -0.01214,-0.0106 c -0.176934,-0.10066 -0.2324432,-0.17867 -0.2324432,-0.3105 0,-0.20121 0.1561182,-0.34518 0.3781442,-0.34518 0.22203,0 0.343445,0.13356 0.343445,0.366 0,0.17866 -0.06592,0.30009 -0.23243,0.43365 m -0.423236,1.33215 c -0.242845,0 -0.409365,-0.15438 -0.409365,-0.38854 0,-0.20989 0.098867,-0.39896 0.2879355,-0.50996 0.045107,0.0226 0.055513,0.033 0.088471,0.0434 0.133558,0.0676 0.133558,0.0676 0.156119,0.0901 0.222026,0.12143 0.300079,0.23244 0.300079,0.38854 0,0.20989 -0.178663,0.37641 -0.423236,0.37641"
       class="Clef"
       style="stroke-width:0.11101351" />
    <path
       id="path112"
       d="m 32.383184,139.13716 v 0.82047 H 31.46212 c -0.07805,0 -0.156106,0.0676 -0.156106,0.15611 v 0.21162 c 0,0.0884 0.07804,0.15438 0.156106,0.15438 h 3.363363 c 0.09019,0 0.156107,-0.0659 0.156107,-0.15438 v -0.21162 c 0,-0.0884 -0.06592,-0.15611 -0.156107,-0.15611 h -0.986975 v -0.82047 h 0.986975 c 0.09019,0 0.156107,-0.0781 0.156107,-0.16652 v -0.21161 c 0,-0.0781 -0.06592,-0.15439 -0.156107,-0.15439 h -0.986975 v -1.7658 c 0,-0.0658 -0.03295,-0.12142 -0.08847,-0.14398 l -0.133558,-0.0676 c -0.02254,-0.0106 -0.05551,-0.0208 -0.07807,-0.0208 -0.03295,0.0106 -0.07806,0.0208 -0.100599,0.0434 l -1.009534,0.92107 c -0.03295,0.0347 -0.0451,0.078 -0.0451,0.12315 v 0.91066 h -1.276656 c 0,0 1.233299,-1.33215 2.542899,-3.08757 0.04511,-0.0555 0.05551,-0.11101 0.05551,-0.15438 0,-0.0555 -0.02254,-0.10055 -0.03295,-0.111 l -0.244587,-0.24458 c -0.02254,-0.0226 -0.06592,-0.0451 -0.111015,-0.0451 -0.06591,0 -1.566322,0 -1.642641,0 -0.0902,0 -0.145706,0.0676 -0.156119,0.13358 0,0 -0.05551,0.82218 -0.34345,1.7207 -0.289674,0.90025 -0.622716,1.45532 -0.910655,1.86469 0,0 -0.03295,0.0555 -0.03295,0.12315 0,0.0225 0,0.0434 0.01041,0.0658 0.0451,0.0781 0.111011,0.19949 0.111011,0.19949 0,0 0.02254,0.0676 0.121425,0.0676 h 1.909779"
       class="TimeSig"
       style="stroke-width:0.11101351" />
    <path
       id="path114"
       d="m 32.383184,144.68783 v 0.82047 H 31.46212 c -0.07805,0 -0.156106,0.0676 -0.156106,0.15611 v 0.21163 c 0,0.0884 0.07804,0.15436 0.156106,0.15436 h 3.363363 c 0.09019,0 0.156107,-0.0658 0.156107,-0.15436 v -0.21163 c 0,-0.0884 -0.06592,-0.15611 -0.156107,-0.15611 h -0.986975 v -0.82047 h 0.986975 c 0.09019,0 0.156107,-0.078 0.156107,-0.16651 v -0.21163 c 0,-0.078 -0.06592,-0.15437 -0.156107,-0.15437 h -0.986975 v -1.76581 c 0,-0.0659 -0.03295,-0.12143 -0.08847,-0.14397 l -0.133558,-0.0676 c -0.02254,-0.0106 -0.05551,-0.0208 -0.07807,-0.0208 -0.03295,0.0106 -0.07806,0.0208 -0.100599,0.0434 l -1.009534,0.92106 c -0.03295,0.0347 -0.0451,0.078 -0.0451,0.12317 v 0.91065 h -1.276656 c 0,0 1.233299,-1.33216 2.542899,-3.08757 0.04511,-0.0555 0.05551,-0.11102 0.05551,-0.15437 0,-0.0555 -0.02254,-0.10066 -0.03295,-0.11103 l -0.244587,-0.24456 c -0.02254,-0.0226 -0.06592,-0.0451 -0.111015,-0.0451 -0.06591,0 -1.566322,0 -1.642641,0 -0.0902,0 -0.145706,0.0676 -0.156119,0.13357 0,0 -0.05551,0.82219 -0.34345,1.7207 -0.289674,0.90026 -0.622716,1.45532 -0.910655,1.86469 0,0 -0.03295,0.0554 -0.03295,0.12315 0,0.0225 0,0.0434 0.01041,0.0658 0.0451,0.078 0.111011,0.19948 0.111011,0.19948 0,0 0.02254,0.0676 0.121425,0.0676 h 1.909779"
       class="TimeSig"
       style="stroke-width:0.11101351" />
    <path
       id="path116"
       d="m 70.479006,202.01417 c -0.01062,-0.0106 -0.03302,-0.033 -0.06594,-0.0763 l -1.276643,-1.57675 c -0.0121,-0.0121 -0.02251,-0.0451 -0.02251,-0.0676 0,-0.033 0.01062,-0.0763 0.02251,-0.0988 l 1.130949,-1.71031 c 0.0121,-0.0225 0.02262,-0.0554 0.02262,-0.078 v -0.099 c 0,-0.033 -0.01062,-0.0676 -0.03302,-0.0884 l -1.798758,-2.43189 c 0,0 -0.04343,-0.0676 -0.111015,-0.0676 -0.03292,0 -0.05543,0 -0.08845,0.0347 -0.04513,0.033 -0.05543,0.0763 -0.05543,0.11102 0,0.0658 0.03302,0.12142 0.03302,0.12142 l 0.844742,1.15523 c 0.02081,0.033 0.03302,0.0763 0.03302,0.13183 0,0.0451 -0.0121,0.10056 -0.03302,0.13356 l -1.122284,1.71031 c -0.01062,0.0226 -0.02262,0.0659 -0.02262,0.0884 v 0.10055 c 0,0.0329 0.0121,0.0658 0.03472,0.0885 l 1.241964,1.54379 c -0.04343,-0.0121 -0.143963,-0.0347 -0.277531,-0.0347 -0.56548,0 -1.009529,0.46661 -1.009529,1.03383 0,0.15437 0.03292,0.31048 0.12141,0.43191 0.234177,0.35558 1.066783,1.4102 1.066783,1.4102 0,0 0.05543,0.0676 0.133557,0.0676 0.02081,0 0.04343,0 0.06594,-0.0225 0.05543,-0.0451 0.07805,-0.0884 0.07805,-0.13357 0,-0.0451 -0.02262,-0.078 -0.03302,-0.10056 -0.03472,-0.0554 -0.388546,-0.69903 -0.388546,-0.69903 0,0 -0.07805,-0.15612 -0.07805,-0.3556 0,-0.35559 0.265395,-0.64353 0.620982,-0.64353 0.143974,0 0.267125,0.0451 0.355587,0.10067 l 0.433653,0.27753 c 0,0 0.04343,0.0208 0.08845,0.0208 0.04343,0 0.07804,-0.0106 0.111014,-0.0554 0.02251,-0.033 0.03292,-0.0658 0.03292,-0.0989 0,-0.033 -0.01062,-0.0555 -0.03292,-0.0884 l -0.02251,-0.0347"
       class="Rest"
       style="stroke-width:0.11101351" />
    <path
       id="path118"
       d="m 170.49703,142.34442 c -0.0106,-0.0106 -0.033,-0.0329 -0.0658,-0.0763 l -1.27666,-1.57675 c -0.0121,-0.0121 -0.0225,-0.0451 -0.0225,-0.0676 0,-0.033 0.0106,-0.0763 0.0225,-0.0988 l 1.13094,-1.7103 c 0.0121,-0.0226 0.0226,-0.0554 0.0226,-0.078 v -0.0988 c 0,-0.0329 -0.0106,-0.0676 -0.033,-0.0885 l -1.79877,-2.43189 c 0,0 -0.0434,-0.0676 -0.11101,-0.0676 -0.033,0 -0.0555,0 -0.0885,0.0347 -0.0451,0.033 -0.0555,0.0764 -0.0555,0.11103 0,0.0658 0.033,0.12142 0.033,0.12142 l 0.84476,1.15522 c 0.0208,0.033 0.033,0.0763 0.033,0.13184 0,0.0451 -0.0121,0.10066 -0.033,0.13356 l -1.12229,1.7103 c -0.0106,0.0226 -0.0226,0.0659 -0.0226,0.0884 v 0.10056 c 0,0.0329 0.0121,0.0658 0.0347,0.0885 l 1.24196,1.54378 c -0.0434,-0.0121 -0.14397,-0.0347 -0.27753,-0.0347 -0.56548,0 -1.00953,0.4666 -1.00953,1.03382 0,0.15437 0.033,0.31048 0.12142,0.4319 0.23417,0.3556 1.06677,1.41022 1.06677,1.41022 0,0 0.0554,0.0676 0.13356,0.0676 0.0208,0 0.0433,0 0.0658,-0.0226 0.0555,-0.0451 0.078,-0.0884 0.078,-0.13358 0,-0.0451 -0.0225,-0.078 -0.033,-0.10056 -0.0347,-0.0555 -0.38855,-0.69904 -0.38855,-0.69904 0,0 -0.078,-0.15611 -0.078,-0.35559 0,-0.35558 0.26538,-0.64353 0.62098,-0.64353 0.14396,0 0.26712,0.0451 0.35558,0.10056 l 0.43365,0.27753 c 0,0 0.0434,0.0208 0.0884,0.0208 0.0434,0 0.078,-0.0106 0.11102,-0.0555 0.0226,-0.033 0.033,-0.0658 0.033,-0.0989 0,-0.0329 -0.0106,-0.0554 -0.033,-0.0884 l -0.0225,-0.0347"
       class="Rest"
       style="stroke-width:0.11101351" />
    <path
       id="path120"
       d="m 230.22207,200.06103 c 0,0.15611 0,0.15611 0.15611,0.15611 h 3.29746 c 0.15438,0 0.15438,0 0.15438,-0.15611 v -1.19861 c 0,-0.1561 0,-0.1561 -0.15438,-0.1561 h -3.29746 c -0.15611,0 -0.15611,0 -0.15611,0.1561 v 1.19861"
       class="Rest"
       style="stroke-width:0.11101351" />
    <path
       id="path122"
       d="m 209.07087,202.01417 c -0.0106,-0.0106 -0.033,-0.033 -0.0658,-0.0763 l -1.27665,-1.57675 c -0.0121,-0.0121 -0.0226,-0.0451 -0.0226,-0.0676 0,-0.033 0.0106,-0.0763 0.0226,-0.0988 l 1.13095,-1.71031 c 0.0121,-0.0225 0.0226,-0.0554 0.0226,-0.078 v -0.099 c 0,-0.033 -0.0106,-0.0676 -0.0329,-0.0884 l -1.79877,-2.43189 c 0,0 -0.0433,-0.0676 -0.111,-0.0676 -0.033,0 -0.0555,0 -0.0884,0.0347 -0.0451,0.033 -0.0555,0.0763 -0.0555,0.11102 0,0.0658 0.033,0.12142 0.033,0.12142 l 0.84473,1.15523 c 0.0208,0.033 0.033,0.0763 0.033,0.13183 0,0.0451 -0.0121,0.10056 -0.033,0.13356 l -1.12228,1.71031 c -0.0106,0.0226 -0.0226,0.0659 -0.0226,0.0884 v 0.10055 c 0,0.0329 0.0121,0.0658 0.0347,0.0885 l 1.24196,1.54379 c -0.0434,-0.0121 -0.14397,-0.0347 -0.27753,-0.0347 -0.56548,0 -1.00953,0.46661 -1.00953,1.03383 0,0.15437 0.033,0.31048 0.12142,0.43191 0.23417,0.35558 1.06676,1.4102 1.06676,1.4102 0,0 0.0555,0.0676 0.13357,0.0676 0.0208,0 0.0434,0 0.0658,-0.0225 0.0555,-0.0451 0.078,-0.0884 0.078,-0.13357 0,-0.0451 -0.0226,-0.078 -0.033,-0.10056 -0.0347,-0.0554 -0.38855,-0.69903 -0.38855,-0.69903 0,0 -0.078,-0.15612 -0.078,-0.3556 0,-0.35559 0.26539,-0.64353 0.62099,-0.64353 0.14396,0 0.26711,0.0451 0.35558,0.10067 l 0.43365,0.27753 c 0,0 0.0434,0.0208 0.0884,0.0208 0.0434,0 0.078,-0.0106 0.11101,-0.0554 0.0226,-0.033 0.033,-0.0658 0.033,-0.0989 0,-0.033 -0.0106,-0.0555 -0.033,-0.0884 l -0.0226,-0.0347"
       class="Rest"
       style="stroke-width:0.11101351" />
    <path
       id="path124"
       d="m 245.06408,142.34442 c -0.0106,-0.0106 -0.0329,-0.0329 -0.0658,-0.0763 l -1.27665,-1.57675 c -0.0121,-0.0121 -0.0226,-0.0451 -0.0226,-0.0676 0,-0.033 0.0106,-0.0763 0.0226,-0.0988 l 1.13095,-1.7103 c 0.0121,-0.0226 0.0226,-0.0554 0.0226,-0.078 v -0.0988 c 0,-0.0329 -0.0106,-0.0676 -0.033,-0.0885 l -1.79877,-2.43189 c 0,0 -0.0433,-0.0676 -0.11101,-0.0676 -0.033,0 -0.0554,0 -0.0884,0.0347 -0.0451,0.033 -0.0555,0.0764 -0.0555,0.11103 0,0.0658 0.033,0.12142 0.033,0.12142 l 0.84473,1.15522 c 0.0208,0.033 0.033,0.0763 0.033,0.13184 0,0.0451 -0.0121,0.10066 -0.033,0.13356 l -1.12228,1.7103 c -0.0106,0.0226 -0.0225,0.0659 -0.0225,0.0884 v 0.10056 c 0,0.0329 0.0121,0.0658 0.0347,0.0885 l 1.24196,1.54378 c -0.0434,-0.0121 -0.14397,-0.0347 -0.27752,-0.0347 -0.56548,0 -1.00954,0.4666 -1.00954,1.03382 0,0.15437 0.033,0.31048 0.12142,0.4319 0.23416,0.3556 1.06677,1.41022 1.06677,1.41022 0,0 0.0555,0.0676 0.13357,0.0676 0.0208,0 0.0434,0 0.0658,-0.0226 0.0555,-0.0451 0.078,-0.0884 0.078,-0.13358 0,-0.0451 -0.0225,-0.078 -0.0329,-0.10056 -0.0347,-0.0555 -0.38855,-0.69904 -0.38855,-0.69904 0,0 -0.078,-0.15611 -0.078,-0.35559 0,-0.35558 0.26538,-0.64353 0.62098,-0.64353 0.14396,0 0.26713,0.0451 0.35559,0.10056 l 0.43364,0.27753 c 0,0 0.0434,0.0208 0.0885,0.0208 0.0434,0 0.078,-0.0106 0.11103,-0.0555 0.0226,-0.033 0.033,-0.0658 0.033,-0.0989 0,-0.0329 -0.0106,-0.0554 -0.033,-0.0884 l -0.0226,-0.0347"
       class="Rest"
       style="stroke-width:0.11101351" />
    <path
       id="path126"
       d="m 30.16185,257.01118 c -0.09019,0 -0.156112,0.0658 -0.156112,0.15611 v 1.1986 c 0,0.0885 0.06592,0.15438 0.156112,0.15438 h 3.297452 c 0.08846,0 0.154372,-0.0658 0.154372,-0.15438 v -1.1986 c 0,-0.0903 -0.06591,-0.15611 -0.154372,-0.15611 H 30.16185"
       class="Rest"
       style="stroke-width:0.11101351" />
    <path
       id="path128"
       d="m 62.531129,137.67144 c -0.0902,0 -0.156115,0.0658 -0.156115,0.1561 v 1.1986 c 0,0.0884 0.06589,0.15439 0.156115,0.15439 h 3.297447 c 0.08845,0 0.15438,-0.0659 0.15438,-0.15439 v -1.1986 c 0,-0.0902 -0.06594,-0.1561 -0.15438,-0.1561 h -3.297447"
       class="Rest"
       style="stroke-width:0.11101351" />
    <path
       id="path130"
       d="m 23.069406,202.01417 c -0.01041,-0.0106 -0.03295,-0.033 -0.06591,-0.0763 l -1.276657,-1.57675 c -0.01214,-0.0121 -0.02254,-0.0451 -0.02254,-0.0676 0,-0.033 0.01041,-0.0763 0.02254,-0.0988 l 1.13095,-1.71031 c 0.01214,-0.0225 0.02254,-0.0554 0.02254,-0.078 v -0.099 c 0,-0.033 -0.01041,-0.0676 -0.03295,-0.0884 l -1.798766,-2.43189 c 0,0 -0.04336,-0.0676 -0.111015,-0.0676 -0.03295,0 -0.0555,0 -0.08846,0.0347 -0.0451,0.033 -0.05551,0.0763 -0.05551,0.11102 0,0.0658 0.03295,0.12142 0.03295,0.12142 l 0.844749,1.15523 c 0.02081,0.033 0.03295,0.0763 0.03295,0.13183 0,0.0451 -0.01214,0.10056 -0.03295,0.13356 l -1.122284,1.71031 c -0.01041,0.0226 -0.02254,0.0659 -0.02254,0.0884 v 0.10055 c 0,0.0329 0.01214,0.0658 0.03469,0.0885 l 1.241969,1.54379 c -0.04338,-0.0121 -0.143972,-0.0347 -0.277539,-0.0347 -0.565475,0 -1.009531,0.46661 -1.009531,1.03383 0,0.15437 0.03295,0.31048 0.121425,0.43191 0.234168,0.35558 1.066765,1.4102 1.066765,1.4102 0,0 0.05551,0.0676 0.133572,0.0676 0.02081,0 0.04336,0 0.06592,-0.0225 0.05551,-0.0451 0.07806,-0.0884 0.07806,-0.13357 0,-0.0451 -0.02254,-0.078 -0.03295,-0.10056 -0.03468,-0.0554 -0.388554,-0.69903 -0.388554,-0.69903 0,0 -0.07806,-0.15612 -0.07806,-0.3556 0,-0.35559 0.2654,-0.64353 0.620984,-0.64353 0.143977,0 0.267122,0.0451 0.355589,0.10067 l 0.433654,0.27753 c 0,0 0.04336,0.0208 0.08845,0.0208 0.04338,0 0.07807,-0.0106 0.111015,-0.0554 0.02254,-0.033 0.03295,-0.0658 0.03295,-0.0989 0,-0.033 -0.01041,-0.0555 -0.03295,-0.0884 l -0.02254,-0.0347"
       class="Rest"
       style="stroke-width:0.11101351" />
    <path
       id="path132"
       d="m 119.44245,200.06103 c 0,0.15611 0,0.15611 0.15611,0.15611 h 3.29746 c 0.15437,0 0.15437,0 0.15437,-0.15611 v -1.19861 c 0,-0.1561 0,-0.1561 -0.15437,-0.1561 h -3.29746 c -0.15611,0 -0.15611,0 -0.15611,0.1561 v 1.19861"
       class="Rest"
       style="stroke-width:0.11101351" />
    <path
       style="stroke-width:0.11190877"
       id="path134"
       d="m 98.414791,131.34858 -0.814692,0.0664 -0.01455,0.16261 h 0.108552 c 0.179046,0 0.250678,0.0402 0.250678,0.14167 0,0.0402 -0.01455,0.10844 -0.03695,0.19405 l -0.456578,1.53874 h 0.390563 l 0.183528,-0.63116 c 0.200315,-0.68544 0.607666,-1.20302 0.943386,-1.20302 0.117503,0 0.189124,0.0612 0.189124,0.17312 0,0.0909 -0.03695,0.27798 -0.09068,0.44764 l -0.356989,1.21342 h 0.388324 l 0.192479,-0.64862 c 0.111906,-0.37254 0.223813,-0.62255 0.367065,-0.81492 0.161144,-0.22382 0.389439,-0.37064 0.559529,-0.37064 0.11192,0 0.17459,0.0577 0.17459,0.1644 0,0.0629 -0.0224,0.1608 -0.0626,0.2867 l -0.20591,0.63654 c -0.12086,0.34792 -0.124224,0.3759 -0.124224,0.50001 0,0.18891 0.137654,0.313 0.348034,0.313 0.14773,0 0.29208,-0.0716 0.44317,-0.21329 0.0951,-0.091 0.15666,-0.17133 0.34019,-0.43891 l -0.13876,-0.0945 c -0.23278,0.34972 -0.39839,0.51937 -0.51366,0.51937 -0.0492,0 -0.0951,-0.0491 -0.0951,-0.1119 0,-0.0402 0.0145,-0.0892 0.0548,-0.22035 l 0.28088,-0.8673 c 0.0325,-0.0979 0.0548,-0.23781 0.0548,-0.33573 0,-0.23781 -0.17458,-0.40735 -0.4163,-0.40735 -0.31782,0 -0.605423,0.20625 -0.863938,0.63116 0.01784,-0.0856 0.02687,-0.1608 0.02687,-0.21508 0,-0.23781 -0.189123,-0.41608 -0.434195,-0.41608 -0.283138,0 -0.487934,0.15735 -0.802385,0.60498 l 0.130934,-0.60498"
       class="Fingering" />
    <path
       style="stroke-width:0.11190877"
       id="path136"
       d="m 123.00003,130.25569 c -0.13541,0 -0.24171,0.10844 -0.24171,0.24306 0,0.12937 0.1063,0.24128 0.23723,0.24128 0.13877,0 0.24508,-0.10844 0.24508,-0.24128 0,-0.13462 -0.10631,-0.24306 -0.2406,-0.24306 m 0.0794,1.09289 -0.85835,0.0664 -0.0168,0.16261 h 0.10632 c 0.18353,0 0.25515,0.0402 0.25515,0.1382 0,0.0437 -0.009,0.0944 -0.0403,0.19752 l -0.26074,0.87255 c -0.0839,0.28504 -0.0974,0.34804 -0.0974,0.45121 0,0.15736 0.1343,0.27799 0.3044,0.27799 0.38384,0 0.64795,-0.39873 0.83707,-0.68892 l -0.13989,-0.077 c -0.23276,0.35319 -0.41965,0.5421 -0.54051,0.5421 -0.0447,0 -0.0761,-0.0401 -0.0761,-0.0945 0,-0.0437 0.0168,-0.12589 0.0537,-0.25 l 0.47337,-1.59818"
       class="Fingering" />
    <path
       style="stroke-width:0.11190877"
       id="path138"
       d="m 145.38851,131.34858 -0.81582,0.0664 -0.0134,0.16261 h 0.10856 c 0.17793,0 0.24956,0.0402 0.24956,0.14167 0,0.0402 -0.0134,0.10844 -0.0369,0.19405 l -0.45547,1.53874 h 0.38944 l 0.18353,-0.63116 c 0.20144,-0.68544 0.60878,-1.20302 0.94451,-1.20302 0.1175,0 0.18912,0.0612 0.18912,0.17312 0,0.0909 -0.0369,0.27798 -0.0917,0.44764 l -0.35586,1.21342 h 0.38831 l 0.19136,-0.64862 c 0.11192,-0.37254 0.22383,-0.62255 0.3682,-0.81492 0.16002,-0.22382 0.38943,-0.37064 0.55953,-0.37064 0.11191,0 0.17459,0.0577 0.17459,0.1644 0,0.0629 -0.0235,0.1608 -0.0626,0.2867 l -0.20704,0.63654 c -0.12086,0.34792 -0.12421,0.3759 -0.12421,0.50001 0,0.18891 0.13876,0.313 0.34803,0.313 0.14884,0 0.29208,-0.0716 0.44428,-0.21329 0.094,-0.091 0.15555,-0.17133 0.33908,-0.43891 l -0.13764,-0.0945 c -0.23278,0.34972 -0.39952,0.51937 -0.51479,0.51937 -0.0481,0 -0.094,-0.0491 -0.094,-0.1119 0,-0.0402 0.0134,-0.0892 0.0537,-0.22035 l 0.28201,-0.8673 c 0.0313,-0.0979 0.0537,-0.23781 0.0537,-0.33573 0,-0.23781 -0.17458,-0.40735 -0.41518,-0.40735 -0.31894,0 -0.60543,0.20625 -0.86394,0.63116 0.0168,-0.0856 0.0258,-0.1608 0.0258,-0.21508 0,-0.23781 -0.18913,-0.41608 -0.43309,-0.41608 -0.28425,0 -0.48792,0.15735 -0.80351,0.60498 l 0.13206,-0.60498"
       class="Fingering" />
    <path
       style="stroke-width:0.11190877"
       id="path140"
       d="m 196.46926,131.34858 -0.8158,0.0664 -0.0134,0.16261 h 0.10856 c 0.17793,0 0.24955,0.0402 0.24955,0.14167 0,0.0402 -0.0134,0.10844 -0.0369,0.19405 l -0.45546,1.53874 h 0.38944 l 0.18353,-0.63116 c 0.20143,-0.68544 0.60877,-1.20302 0.9445,-1.20302 0.11752,0 0.18914,0.0612 0.18914,0.17312 0,0.0909 -0.037,0.27798 -0.0917,0.44764 l -0.35587,1.21342 h 0.3872 l 0.19249,-0.64862 c 0.11191,-0.37254 0.22381,-0.62255 0.36706,-0.81492 0.16115,-0.22382 0.39056,-0.37064 0.55954,-0.37064 0.11192,0 0.1757,0.0577 0.1757,0.1644 0,0.0629 -0.0235,0.1608 -0.0638,0.2867 l -0.20591,0.63654 c -0.12085,0.34792 -0.12421,0.3759 -0.12421,0.50001 0,0.18891 0.13876,0.313 0.34803,0.313 0.14885,0 0.29209,-0.0716 0.44429,-0.21329 0.094,-0.091 0.15555,-0.17133 0.33908,-0.43891 l -0.13765,-0.0945 c -0.23278,0.34972 -0.39952,0.51937 -0.51479,0.51937 -0.0481,0 -0.094,-0.0491 -0.094,-0.1119 0,-0.0402 0.0134,-0.0892 0.0537,-0.22035 l 0.28201,-0.8673 c 0.0313,-0.0979 0.0537,-0.23781 0.0537,-0.33573 0,-0.23781 -0.17458,-0.40735 -0.4163,-0.40735 -0.31782,0 -0.6043,0.20625 -0.86282,0.63116 0.0168,-0.0856 0.0258,-0.1608 0.0258,-0.21508 0,-0.23781 -0.18913,-0.41608 -0.4331,-0.41608 -0.28424,0 -0.48791,0.15735 -0.8035,0.60498 l 0.13206,-0.60498"
       class="Fingering" />
    <path
       style="stroke-width:0.11190877"
       id="path142"
       d="m 267.80887,189.92545 c -0.13541,0 -0.24172,0.10844 -0.24172,0.24307 0,0.12936 0.10631,0.24128 0.23836,0.24128 0.13766,0 0.24397,-0.10845 0.24397,-0.24128 0,-0.13463 -0.10631,-0.24307 -0.24061,-0.24307 m 0.0806,1.0929 -0.85946,0.0664 -0.0168,0.16261 h 0.10631 c 0.18353,0 0.25515,0.0402 0.25515,0.1382 0,0.0436 -0.009,0.0945 -0.0403,0.19752 l -0.26074,0.87255 c -0.0839,0.28504 -0.0974,0.34804 -0.0974,0.45122 0,0.15734 0.13429,0.27798 0.30438,0.27798 0.38497,0 0.64796,-0.39873 0.83709,-0.68891 l -0.13989,-0.077 c -0.23277,0.35319 -0.41965,0.54209 -0.54052,0.54209 -0.0447,0 -0.0761,-0.0402 -0.0761,-0.0944 0,-0.0436 0.0168,-0.1259 0.0537,-0.25001 l 0.47449,-1.59816"
       class="Fingering" />
    <path
       style="stroke-width:0.11190877"
       id="path144"
       d="m 93.659781,189.92545 c -0.13428,0 -0.241716,0.10844 -0.241716,0.24307 0,0.12936 0.107436,0.24128 0.23836,0.24128 0.137656,0 0.245082,-0.10845 0.245082,-0.24128 0,-0.13463 -0.107426,-0.24307 -0.241726,-0.24307 m 0.08059,1.0929 -0.858323,0.0664 -0.01784,0.16261 h 0.106321 c 0.183528,0 0.255148,0.0402 0.255148,0.1382 0,0.0436 -0.0074,0.0945 -0.04024,0.19752 l -0.259629,0.87255 c -0.08389,0.28504 -0.09843,0.34804 -0.09843,0.45122 0,0.15734 0.134301,0.27798 0.304396,0.27798 0.384968,0 0.649067,-0.39873 0.837076,-0.68891 l -0.139886,-0.077 c -0.23165,0.35319 -0.419648,0.54209 -0.539402,0.54209 -0.04587,0 -0.0772,-0.0402 -0.0772,-0.0944 0,-0.0436 0.01784,-0.1259 0.05373,-0.25001 l 0.474491,-1.59816"
       class="Fingering" />
    <path
       style="stroke-width:0.11190877"
       id="path146"
       d="m 221.05339,130.25569 c -0.13429,0 -0.24173,0.10844 -0.24173,0.24306 0,0.12937 0.10744,0.24128 0.23836,0.24128 0.13765,0 0.24509,-0.10844 0.24509,-0.24128 0,-0.13462 -0.10744,-0.24306 -0.24172,-0.24306 m 0.0806,1.09289 -0.85834,0.0664 -0.0178,0.16261 h 0.10631 c 0.18465,0 0.25628,0.0402 0.25628,0.1382 0,0.0437 -0.008,0.0944 -0.0402,0.19752 l -0.26075,0.87255 c -0.0839,0.28504 -0.0984,0.34804 -0.0984,0.45121 0,0.15736 0.13541,0.27799 0.30439,0.27799 0.38497,0 0.64907,-0.39873 0.83819,-0.68892 l -0.13988,-0.077 c -0.23277,0.35319 -0.41966,0.5421 -0.54052,0.5421 -0.0459,0 -0.0772,-0.0401 -0.0772,-0.0945 0,-0.0437 0.0178,-0.12589 0.0548,-0.25 l 0.47337,-1.59818"
       class="Fingering" />
    <path
       style="stroke-width:0.11190877"
       id="path148"
       d="m 266.92815,131.34858 -0.81469,0.0664 -0.0134,0.16261 h 0.10855 c 0.17793,0 0.24955,0.0402 0.24955,0.14167 0,0.0402 -0.0134,0.10844 -0.0369,0.19405 l -0.45659,1.53874 h 0.39057 l 0.18353,-0.63116 c 0.20144,-0.68544 0.60878,-1.20302 0.94451,-1.20302 0.11639,0 0.18801,0.0612 0.18801,0.17312 0,0.0909 -0.0358,0.27798 -0.0907,0.44764 l -0.35699,1.21342 h 0.38832 l 0.19249,-0.64862 c 0.11191,-0.37254 0.22381,-0.62255 0.36705,-0.81492 0.16116,-0.22382 0.39057,-0.37064 0.55955,-0.37064 0.11192,0 0.17569,0.0577 0.17569,0.1644 0,0.0629 -0.0235,0.1608 -0.0638,0.2867 l -0.20591,0.63654 c -0.12086,0.34792 -0.12421,0.3759 -0.12421,0.50001 0,0.18891 0.13763,0.313 0.34803,0.313 0.14884,0 0.29207,-0.0716 0.44428,-0.21329 0.094,-0.091 0.15556,-0.17133 0.33908,-0.43891 l -0.13765,-0.0945 c -0.23277,0.34972 -0.39952,0.51937 -0.51478,0.51937 -0.0493,0 -0.094,-0.0491 -0.094,-0.1119 0,-0.0402 0.0134,-0.0892 0.0537,-0.22035 l 0.28201,-0.8673 c 0.0313,-0.0979 0.0537,-0.23781 0.0537,-0.33573 0,-0.23781 -0.17459,-0.40735 -0.4163,-0.40735 -0.31782,0 -0.60432,0.20625 -0.86394,0.63116 0.0178,-0.0856 0.0269,-0.1608 0.0269,-0.21508 0,-0.23781 -0.18912,-0.41608 -0.43419,-0.41608 -0.28314,0 -0.48794,0.15735 -0.8024,0.60498 l 0.13093,-0.60498"
       class="Fingering" />
    <path
       style="stroke-width:0.11190877"
       id="path150"
       d="m 180.73377,189.92545 c -0.13429,0 -0.24061,0.10844 -0.24061,0.24307 0,0.12936 0.10632,0.24128 0.23726,0.24128 0.13877,0 0.24507,-0.10845 0.24507,-0.24128 0,-0.13463 -0.1063,-0.24307 -0.24172,-0.24307 m 0.0806,1.0929 -0.85834,0.0664 -0.0178,0.16261 h 0.10743 c 0.18354,0 0.25515,0.0402 0.25515,0.1382 0,0.0436 -0.008,0.0945 -0.0403,0.19752 l -0.26074,0.87255 c -0.0839,0.28504 -0.0974,0.34804 -0.0974,0.45122 0,0.15734 0.1343,0.27798 0.30328,0.27798 0.38497,0 0.64907,-0.39873 0.83819,-0.68891 l -0.13987,-0.077 c -0.23278,0.35319 -0.41967,0.54209 -0.54053,0.54209 -0.0459,0 -0.0773,-0.0402 -0.0773,-0.0944 0,-0.0436 0.0178,-0.1259 0.0548,-0.25001 l 0.47336,-1.59816"
       class="Fingering" />
    <path
       style="stroke-width:0.11190877"
       id="path152"
       d="m 155.93143,191.01835 -0.8147,0.0664 -0.0145,0.16261 h 0.10855 c 0.17794,0 0.24955,0.0402 0.24955,0.14167 0,0.0401 -0.0134,0.10844 -0.0358,0.19405 l -0.45658,1.53874 h 0.38944 l 0.18353,-0.63116 c 0.20144,-0.68545 0.60879,-1.20302 0.94451,-1.20302 0.11751,0 0.18912,0.0612 0.18912,0.17313 0,0.0909 -0.037,0.27797 -0.0907,0.44763 l -0.35699,1.21342 h 0.38834 l 0.19248,-0.64862 c 0.11191,-0.37254 0.22381,-0.62255 0.36705,-0.81491 0.16003,-0.22383 0.38945,-0.37065 0.55956,-0.37065 0.1119,0 0.17457,0.0577 0.17457,0.1644 0,0.0629 -0.0224,0.1608 -0.0627,0.2867 l -0.20702,0.63655 c -0.12087,0.34792 -0.12423,0.37589 -0.12423,0.5 0,0.1889 0.13877,0.31301 0.34804,0.31301 0.14884,0 0.29208,-0.0716 0.44428,-0.21329 0.0951,-0.091 0.15555,-0.17134 0.33908,-0.43891 l -0.13765,-0.0945 c -0.23277,0.34973 -0.39839,0.51939 -0.51477,0.51939 -0.0481,0 -0.094,-0.0491 -0.094,-0.11192 0,-0.0401 0.0146,-0.0892 0.0548,-0.22035 l 0.28089,-0.8673 c 0.0313,-0.0979 0.0548,-0.23779 0.0548,-0.33572 0,-0.2378 -0.17569,-0.40735 -0.41629,-0.40735 -0.31894,0 -0.60544,0.20625 -0.86395,0.63117 0.0168,-0.0856 0.0258,-0.16081 0.0258,-0.21509 0,-0.2378 -0.18913,-0.41608 -0.43309,-0.41608 -0.28313,0 -0.48792,0.15734 -0.80238,0.60498 l 0.13093,-0.60498"
       class="Fingering" />
    <path
       style="stroke-width:0.11190877"
       id="path154"
       d="m 46.249968,189.92545 c -0.134624,0 -0.241278,0.10844 -0.241278,0.24307 0,0.12936 0.106654,0.24128 0.237807,0.24128 0.138095,0 0.244749,-0.10845 0.244749,-0.24128 0,-0.13463 -0.106654,-0.24307 -0.241278,-0.24307 m 0.08047,1.0929 -0.858564,0.0664 -0.01747,0.16261 h 0.106649 c 0.183643,0 0.255264,0.0402 0.255264,0.1382 0,0.0436 -0.0087,0.0945 -0.04018,0.19752 l -0.260524,0.87255 c -0.08393,0.28504 -0.09792,0.34804 -0.09792,0.45122 0,0.15734 0.134629,0.27798 0.30417,0.27798 0.384745,0 0.648736,-0.39873 0.837638,-0.68891 l -0.139889,-0.077 c -0.232549,0.35319 -0.419658,0.54209 -0.540297,0.54209 -0.04552,0 -0.07702,-0.0402 -0.07702,-0.0944 0,-0.0436 0.01747,-0.1259 0.05429,-0.25001 l 0.473819,-1.59816"
       class="Fingering" />
    <path
       style="stroke-width:0.11190877"
       id="path156"
       d="m 55.346026,250.68788 -0.814919,0.0671 -0.01403,0.16226 h 0.10844 c 0.178381,0 0.250115,0.0402 0.250115,0.14101 0,0.0402 -0.01403,0.10855 -0.03682,0.19472 l -0.456364,1.53875 h 0.390004 l 0.183528,-0.63117 c 0.201102,-0.686 0.608561,-1.20301 0.944287,-1.20301 0.117168,0 0.188793,0.0604 0.188793,0.17233 0,0.0917 -0.03674,0.27866 -0.09087,0.44764 l -0.356769,1.21421 h 0.38821 l 0.192373,-0.64908 c 0.111911,-0.37264 0.223814,-0.6222 0.367174,-0.81469 0.160924,-0.22382 0.389887,-0.37041 0.559547,-0.37041 0.111903,0 0.17491,0.057 0.17491,0.16449 0,0.0627 -0.02288,0.16004 -0.06299,0.2865 l -0.206359,0.63675 c -0.120638,0.34805 -0.124102,0.37602 -0.124102,0.50024 0,0.188 0.138088,0.31222 0.347924,0.31222 0.148609,0 0.292079,-0.0716 0.444166,-0.21262 0.09445,-0.0917 0.15566,-0.17235 0.339188,-0.4398 l -0.138094,-0.094 c -0.232543,0.35026 -0.398733,0.51924 -0.514106,0.51924 -0.04889,0 -0.09445,-0.0492 -0.09445,-0.11189 0,-0.0403 0.01403,-0.0895 0.05429,-0.22047 l 0.281454,-0.86729 c 0.03158,-0.0974 0.05429,-0.23725 0.05429,-0.33573 0,-0.23724 -0.17491,-0.40735 -0.416187,-0.40735 -0.31827,0 -0.604981,0.20704 -0.863825,0.63117 0.01755,-0.0851 0.02632,-0.16115 0.02632,-0.21487 0,-0.23724 -0.188902,-0.4163 -0.433651,-0.4163 -0.28335,0 -0.487922,0.15779 -0.802612,0.60543 l 0.131161,-0.60543"
       class="Fingering" />
  </g>
</svg>
