<?xml version="1.0" encoding="UTF-8" standalone="no"?>
<svg
   width="297mm"
   height="210mm"
   viewBox="0 0 4209.4489 2976.378"
   version="1.2"
   id="svg80"
   sodipodi:docname="point_de_prolongation.svg"
   inkscape:version="1.2.2 (b0a8486541, 2022-12-01)"
   xmlns:inkscape="http://www.inkscape.org/namespaces/inkscape"
   xmlns:sodipodi="http://sodipodi.sourceforge.net/DTD/sodipodi-0.dtd"
   xmlns="http://www.w3.org/2000/svg"
   xmlns:svg="http://www.w3.org/2000/svg"
   xmlns:rdf="http://www.w3.org/1999/02/22-rdf-syntax-ns#"
   xmlns:cc="http://creativecommons.org/ns#"
   xmlns:dc="http://purl.org/dc/elements/1.1/">
  <defs
     id="defs84">
    <marker
       style="overflow:visible"
       id="TriangleStart"
       refX="0"
       refY="0"
       orient="13"
       inkscape:stockid="TriangleStart"
       markerWidth="5.3244081"
       markerHeight="6.155385"
       viewBox="0 0 5.3244081 6.1553851"
       inkscape:isstock="true"
       inkscape:collect="always"
       preserveAspectRatio="xMidYMid">
      <path
         transform="scale(0.5)"
         style="fill:context-stroke;fill-rule:evenodd;stroke:context-stroke;stroke-width:1pt"
         d="M 5.77,0 -2.88,5 V -5 Z"
         id="path135" />
    </marker>
    <marker
       style="overflow:visible"
       id="marker10395"
       refX="0"
       refY="0"
       orient="17,00"
       inkscape:stockid="TriangleStart"
       markerWidth="5.3244081"
       markerHeight="6.155385"
       viewBox="0 0 5.3244081 6.1553851"
       inkscape:isstock="true"
       inkscape:collect="always"
       preserveAspectRatio="xMidYMid">
      <path
         transform="scale(0.5)"
         style="fill:context-stroke;fill-rule:evenodd;stroke:context-stroke;stroke-width:1pt"
         d="M 5.77,0 -2.88,5 V -5 Z"
         id="path10393" />
    </marker>
    <marker
       style="overflow:visible"
       id="TriangleStart-6"
       refX="0"
       refY="0"
       orient="-15"
       inkscape:stockid="TriangleStart"
       markerWidth="5.3244081"
       markerHeight="6.155385"
       viewBox="0 0 5.3244081 6.1553851"
       inkscape:isstock="true"
       inkscape:collect="always"
       preserveAspectRatio="xMidYMid">
      <path
         transform="scale(0.5)"
         style="fill:context-stroke;fill-rule:evenodd;stroke:context-stroke;stroke-width:1pt"
         d="M 5.77,0 -2.88,5 V -5 Z"
         id="path135-7" />
    </marker>
  </defs>
  <sodipodi:namedview
     id="namedview82"
     pagecolor="#ffffff"
     bordercolor="#000000"
     borderopacity="0.25"
     inkscape:showpageshadow="2"
     inkscape:pageopacity="0.0"
     inkscape:pagecheckerboard="0"
     inkscape:deskcolor="#d1d1d1"
     inkscape:document-units="mm"
     showgrid="false"
     inkscape:zoom="0.85899631"
     inkscape:cx="388.24381"
     inkscape:cy="319.559"
     inkscape:window-width="1280"
     inkscape:window-height="651"
     inkscape:window-x="0"
     inkscape:window-y="32"
     inkscape:window-maximized="1"
     inkscape:current-layer="svg80" />
  <title
     id="title2">Partition sans titre</title>
  <desc
     id="desc4">Generated by MuseScore Studio 4.5.2</desc>
  <polyline
     class="StaffLines"
     fill="none"
     stroke="#000000"
     stroke-width="2.73"
     stroke-linejoin="bevel"
     points="336.598,626.258 2764.6,626.258"
     id="polyline6"
     transform="matrix(1.1375202,0,0,3.3222498,-128.24928,-1257.427)" />
  <polyline
     class="StaffLines"
     fill="none"
     stroke="#000000"
     stroke-width="2.73"
     stroke-linejoin="bevel"
     points="336.598,651.058 2764.6,651.058"
     id="polyline8"
     transform="matrix(1.1375202,0,0,3.3222498,-128.24928,-1257.427)" />
  <polyline
     class="StaffLines"
     fill="none"
     stroke="#000000"
     stroke-width="2.73"
     stroke-linejoin="bevel"
     points="336.598,675.858 2764.6,675.858"
     id="polyline10"
     transform="matrix(1.1375202,0,0,3.3222498,-128.24928,-1257.427)" />
  <polyline
     class="StaffLines"
     fill="none"
     stroke="#000000"
     stroke-width="2.73"
     stroke-linejoin="bevel"
     points="336.598,700.658 2764.6,700.658"
     id="polyline12"
     transform="matrix(1.1375202,0,0,3.3222498,-128.24928,-1257.427)" />
  <polyline
     class="StaffLines"
     fill="none"
     stroke="#000000"
     stroke-width="2.73"
     stroke-linejoin="bevel"
     points="336.598,725.458 2764.6,725.458"
     id="polyline14"
     transform="matrix(1.1375202,0,0,3.3222498,-128.24928,-1257.427)" />
  <polyline
     class="StaffLines"
     fill="none"
     stroke="#000000"
     stroke-width="2.73"
     stroke-linejoin="bevel"
     points="212.598,1233.86 2764.6,1233.86"
     id="polyline16"
     transform="matrix(1.1530718,0,0,3.3222498,15.309833,-2198.2678)" />
  <polyline
     class="StaffLines"
     fill="none"
     stroke="#000000"
     stroke-width="2.73"
     stroke-linejoin="bevel"
     points="212.598,1258.66 2764.6,1258.66"
     id="polyline18"
     transform="matrix(1.1530718,0,0,3.3222498,15.309833,-2198.2678)" />
  <polyline
     class="StaffLines"
     fill="none"
     stroke="#000000"
     stroke-width="2.73"
     stroke-linejoin="bevel"
     points="212.598,1283.46 2764.6,1283.46"
     id="polyline20"
     transform="matrix(1.1530718,0,0,3.3222498,15.309833,-2198.2678)" />
  <polyline
     class="StaffLines"
     fill="none"
     stroke="#000000"
     stroke-width="2.73"
     stroke-linejoin="bevel"
     points="212.598,1308.26 2764.6,1308.26"
     id="polyline22"
     transform="matrix(1.1530718,0,0,3.3222498,15.309833,-2198.2678)" />
  <polyline
     class="StaffLines"
     fill="none"
     stroke="#000000"
     stroke-width="2.73"
     stroke-linejoin="bevel"
     points="212.598,1333.06 2764.6,1333.06"
     id="polyline24"
     transform="matrix(1.1530718,0,0,3.3222498,15.309833,-2198.2678)" />
  <polyline
     class="BarLine"
     fill="none"
     stroke="#000000"
     stroke-width="4.46"
     stroke-linejoin="bevel"
     points="2762.37,1232.49 2762.37,1334.42"
     id="polyline40"
     transform="matrix(1.1530718,0,0,3.3222498,15.309833,-2198.2678)" />
  <polyline
     class="BarLine"
     fill="none"
     stroke="#000000"
     stroke-width="4.46"
     stroke-linejoin="bevel"
     points="2762.37,624.894 2762.37,726.822"
     id="polyline42"
     transform="matrix(1.1375202,0,0,3.3222498,-128.24928,-1257.427)" />
  <polyline
     class="Stem"
     fill="none"
     stroke="#000000"
     stroke-width="2.48"
     stroke-linejoin="bevel"
     points="536.765,680.024 536.765,750.258"
     id="polyline48"
     transform="matrix(4.0023149,0,0,3.3222498,-1092.5334,-1257.427)" />
  <polyline
     class="Stem"
     fill="none"
     stroke="#000000"
     stroke-width="2.48"
     stroke-linejoin="bevel"
     points="357.911,1287.62 357.911,1357.86"
     id="polyline50"
     transform="matrix(4.0023149,0,0,3.3222498,-590.43355,-2198.2678)" />
  <path
     class="Note"
     d="m 1135.3613,944.42911 c -38.5242,0 -84.5551,26.7257 -84.5551,57.36509 0,14.1611 12.2831,29.9702 44.4797,29.9702 41.2541,0 84.555,-28.0134 84.555,-57.00499 0,-19.465 -19.8514,-30.3303 -44.4796,-30.3303 m -10.7322,58.03459 c -1.1787,0.6179 -30.1496,13.8006 -44.0455,13.8006 -13.0897,0 -15.8813,-8.8571 -15.8813,-11.8438 0,-13.85209 39.7029,-29.97009 41.3161,-30.63949 1.5509,-0.6694 29.7772,-13.852 44.0453,-13.852 9.5537,0 15.8812,4.6344 15.8812,11.8437 0,14.2126 -40.075,30.02149 -41.3158,30.69099"
     id="path52"
     style="stroke-width:3.61729" />
  <path
     class="Note"
     d="m 837.07618,2079.5589 c 0,14.1611 12.2831,29.9706 44.4796,29.9706 41.2541,0 84.555,-28.0137 84.555,-57.0052 0,-19.4652 -19.8515,-30.3303 -44.4797,-30.3303 -38.5241,0 -84.5549,27.0345 -84.5549,57.3649"
     id="path54"
     style="stroke-width:3.61729" />
  <path
     class="Clef"
     d="m 497.012,1306.6438 c 0,-12.2041 -13.46168,-17.4565 -26.55133,-17.4565 -16.68758,0 -33.00311,8.548 -33.00311,23.3785 0,6.2825 2.79153,10.9169 8.37494,15.4999 -10.36009,3.2957 -20.65825,9.8869 -20.65825,20.1346 0,10.8655 11.91089,18.1261 29.40522,18.1261 21.40227,0 36.47709,-9.8869 36.47709,-24.0996 0,-7.5698 -3.9703,-13.8006 -11.10451,-18.1262 11.53888,-4.274 17.05995,-9.5264 17.05995,-17.4568 m -39.70296,52.7308 c -8.68502,0 -14.64046,-4.583 -14.64046,-11.5349 0,-6.5913 3.53594,-11.8436 10.29776,-15.1394 1.61313,0.6695 1.98514,0.6695 3.16393,1.2874 4.77666,2.0084 4.77666,2.0084 5.58343,2.6778 7.50625,3.6048 10.73211,6.9004 10.73211,11.5348 0,6.2308 -6.38981,11.1743 -15.13677,11.1743 m 15.13677,-39.548 c -5.95546,-2.6262 -7.56859,-3.2957 -8.74696,-3.9651 l -0.80677,-0.3088 c -5.95545,-2.9869 -7.9406,-5.3041 -7.9406,-9.2178 0,-5.9733 5.58343,-10.2474 13.52403,-10.2474 7.50623,0 12.28291,3.965 12.28291,10.8655 0,5.3039 -2.35718,8.9085 -8.31261,12.8736 m 110.73394,-250.162 c 0,-49.7442 -42.49449,-83.37029 -100.43619,-83.37029 -3.97032,-19.7741 -7.56819,-39.2392 -11.10412,-57.6742 41.68812,-36.6131 71.03099,-78.1176 71.03099,-130.1791 0,-30.02161 -11.10453,-54.3786 -17.86635,-66.27267 -9.49139,-16.78816 -21.03026,-28.32302 -27.79208,-28.32302 -2.72957,0 -15.44681,3.9647 -28.16449,16.78816 -25.80691,25.07676 -32.94075,66.89063 -32.94075,94.59473 0,17.8174 1.98514,33.9352 8.74696,71.2174 -0.43434,0 -21.0922,17.4569 -29.4052,23.3788 -36.16662,27.7042 -86.16774,67.8701 -86.16774,133.47469 0,61.9484 64.70352,110.4052 138.58836,110.4052 11.47652,0 22.20865,-0.9786 31.76236,-2.3174 7.13383,31.3603 11.91088,54.739 11.91088,72.1957 0,34.2958 -21.46459,52.4219 -61.53959,52.4219 -9.5537,0 -17.86632,-1.6477 -18.67307,-2.0083 -0.37202,0 -1.17839,-0.3091 -1.17839,-0.6179 0,-0.6694 0.80637,-1.0299 1.98514,-1.339 18.67271,-2.3173 37.28348,-15.8087 37.28348,-36.5613 0,-17.8173 -16.25361,-36.6129 -46.03084,-36.6129 -27.79208,0 -45.28598,18.7956 -45.28598,40.5265 0,21.7825 19.85147,50.465 73.45048,50.465 51.24144,0 76.24198,-24.0995 76.24198,-66.274 0,-12.8222 -2.35715,-27.6526 -6.32746,-46.4481 -1.17878,-6.5914 -3.16393,-16.839 -5.95544,-29.3523 38.89621,-10.8655 67.86706,-44.1824 67.86706,-78.1176 M 460.90693,799.41951 c 3.97029,-13.1827 21.83663,-47.78726 42.49487,-47.78726 5.95544,0 15.88118,15.80866 15.88118,38.87836 0,33.9352 -30.956,59.6826 -58.37605,82.3918 -2.35717,-13.1827 -4.34231,-26.3653 -4.34231,-39.8568 0,-12.5134 1.55078,-23.4303 4.34231,-33.6261 m 11.91088,340.79289 c -56.76253,0 -105.21272,-32.9568 -105.21272,-82.7522 0,-40.1661 34.1198,-76.10939 69.10803,-101.49629 6.69988,-4.6347 13.08967,-9.2176 19.04513,-14.1611 3.53595,17.7655 6.32746,32.9566 9.11897,46.8087 -36.16661,8.5483 -60.73282,40.52649 -60.73282,71.16599 0,23.4301 21.83662,55.0479 53.59898,55.0479 3.16355,0 6.76182,-1.3386 6.76182,-4.6344 0,-2.6262 -3.59827,-4.5832 -8.74695,-7.2093 -15.50916,-7.6213 -24.25613,-16.4783 -24.25613,-32.3387 0,-20.0831 18.30067,-36.2527 41.31569,-40.8357 l 23.01542,108.088 c -7.94061,1.3389 -15.07481,2.3171 -23.01542,2.3171 m 39.70298,-6.2824 c -8.31261,-39.1875 -19.04472,-91.6094 -21.83664,-106.131 40.07538,0 57.19728,23.0698 60.73323,38.9303 0.43434,2.6262 1.17879,6.2309 1.17879,10.196 0,23.739 -11.91091,47.4785 -40.07538,57.0047"
     id="path58"
     style="stroke-width:3.61729" />
  <path
     class="Clef"
     d="m 502.82482,2384.4088 c 0,-12.2046 -13.46166,-17.4566 -26.55134,-17.4566 -16.68753,0 -33.00309,8.5478 -33.00309,23.3784 0,6.2826 2.79153,10.917 8.37495,15.5 -10.36012,3.2956 -20.65827,9.8869 -20.65827,20.1343 0,10.8659 11.91091,18.1262 29.40522,18.1262 21.40229,0 36.47711,-9.8869 36.47711,-24.0995 0,-7.5699 -3.97029,-13.8006 -11.10451,-18.1262 11.53887,-4.2742 17.05993,-9.5263 17.05993,-17.4566 m -39.70294,52.7305 c -8.68502,0 -14.64049,-4.583 -14.64049,-11.5347 0,-6.5915 3.53598,-11.8436 10.29776,-15.1394 1.61314,0.6693 1.98515,0.6693 3.16394,1.2872 4.77667,2.0086 4.77667,2.0086 5.58344,2.6777 7.50623,3.6049 10.73209,6.9007 10.73209,11.5348 0,6.2311 -6.38977,11.1744 -15.13674,11.1744 m 15.13674,-39.5481 c -5.95544,-2.6258 -7.56857,-3.2957 -8.74694,-3.965 l -0.80678,-0.3089 c -5.95546,-2.9872 -7.9406,-5.3041 -7.9406,-9.2178 0,-5.9733 5.58344,-10.2475 13.52403,-10.2475 7.50625,0 12.2829,3.9649 12.2829,10.8656 0,5.304 -2.35715,8.9082 -8.31261,12.8734 m 110.73397,-250.162 c 0,-49.744 -42.4945,-83.3701 -100.43621,-83.3701 -3.97029,-19.7742 -7.56818,-39.2394 -11.1041,-57.6744 41.68811,-36.613 71.03096,-78.1174 71.03096,-130.1791 0,-30.0214 -11.1045,-54.3785 -17.86634,-66.2724 -9.49138,-16.7882 -21.03024,-28.3233 -27.79208,-28.3233 -2.72957,0 -15.44679,3.965 -28.16447,16.7883 -25.80694,25.0768 -32.94075,66.8907 -32.94075,94.5946 0,17.8176 1.98516,33.9354 8.74694,71.2176 -0.43433,0 -21.0922,17.4569 -29.40521,23.3788 -36.16659,27.704 -86.16771,67.8701 -86.16771,133.4744 0,61.9488 64.70351,110.4055 138.58837,110.4055 11.47653,0 22.20865,-0.9787 31.76237,-2.3174 7.13379,31.3606 11.91088,54.739 11.91088,72.1955 0,34.296 -21.4646,52.4222 -61.5396,52.4222 -9.55372,0 -17.86632,-1.648 -18.67311,-2.0084 -0.37183,0 -1.17836,-0.3088 -1.17836,-0.618 0,-0.6692 0.80634,-1.0297 1.98515,-1.339 18.67268,-2.3172 37.28344,-15.8087 37.28344,-36.5612 0,-17.8174 -16.25361,-36.6132 -46.03084,-36.6132 -27.79208,0 -45.28598,18.7958 -45.28598,40.5269 0,21.7825 19.85149,50.4651 73.45048,50.4651 51.24144,0 76.242,-24.0997 76.242,-66.2744 0,-12.8218 -2.35714,-27.6524 -6.32743,-46.4479 -1.1788,-6.5914 -3.16397,-16.8388 -5.95547,-29.3525 38.89619,-10.8653 67.86707,-44.1823 67.86707,-78.1176 M 466.71976,1877.1841 c 3.97029,-13.1828 21.83662,-47.7873 42.49489,-47.7873 5.95546,0 15.8812,15.8085 15.8812,38.8785 0,33.9351 -30.95606,59.6823 -58.37609,82.3917 -2.35717,-13.1828 -4.34232,-26.3655 -4.34232,-39.8568 0,-12.5135 1.55082,-23.4303 4.34232,-33.6261 m 11.91087,340.7928 c -56.76249,0 -105.21273,-32.9567 -105.21273,-82.7523 0,-40.1661 34.11982,-76.1094 69.10805,-101.4963 6.69988,-4.6346 13.08969,-9.2174 19.04513,-14.1611 3.53595,17.7657 6.32748,32.9568 9.11897,46.8088 -36.16659,8.5484 -60.73282,40.5264 -60.73282,71.166 0,23.43 21.83665,55.0479 53.59901,55.0479 3.16352,0 6.76179,-1.3385 6.76179,-4.6341 0,-2.6264 -3.59827,-4.5835 -8.74695,-7.2097 -15.50916,-7.6214 -24.25613,-16.4784 -24.25613,-32.3388 0,-20.0829 18.30069,-36.2524 41.31568,-40.8356 l 23.01542,108.088 c -7.94056,1.3391 -15.07482,2.3172 -23.01542,2.3172 m 39.70297,-6.282 c -8.31261,-39.1881 -19.04469,-91.6098 -21.83662,-106.1313 40.07538,0 57.19726,23.0696 60.73324,38.9301 0.43434,2.6262 1.17876,6.2308 1.17876,10.196 0,23.7392 -11.91089,47.4785 -40.07538,57.0052"
     id="path60"
     style="stroke-width:3.61729" />
  <path
     class="TimeSig"
     d="m 759.42378,947.41561 v 24.3573 h -32.9412 c -2.7914,0 -5.5829,2.0081 -5.5829,4.6344 v 6.2826 c 0,2.6258 2.7915,4.5828 5.5829,4.5828 h 120.2878 c 3.2258,0 5.583,-1.957 5.583,-4.5828 v -6.2826 c 0,-2.6263 -2.3572,-4.6344 -5.583,-4.6344 h -35.7327 v -24.3573 h 35.7327 c 3.2258,0 5.583,-2.3172 5.583,-4.9435 v -6.2823 c 0,-2.3174 -2.3572,-4.583 -5.583,-4.583 h -35.7327 v -52.4218 c 0,-1.9568 -1.1788,-3.6047 -2.7296,-4.2742 l -4.7766,-2.0082 c -0.8068,-0.309 -1.1788,-0.309 -1.9852,-0.309 -0.4343,0 -0.4343,0 -0.8067,0 -1.1785,0 -2.7916,0.309 -3.5979,0.9784 l -36.1051,27.3438 c -1.1784,1.0298 -1.6128,2.3172 -1.6128,3.6561 v 27.0349 h -46.0307 c 0,0 44.4799,-39.5481 91.3167,-91.6611 1.6131,-1.6478 1.9852,-3.2957 1.9852,-4.5829 0,-1.6479 -0.8064,-2.9865 -1.1784,-3.2958 l -8.7474,-7.2606 c -1.1783,-0.6694 -2.3571,-1.339 -3.9702,-1.339 -2.3572,0 -56.0182,0 -59.182,0 -2.7916,0 -4.7768,2.0083 -5.1492,3.9653 0,0 -1.9852,24.4084 -12.283,51.0829 -10.3601,26.7258 -22.271,43.2041 -32.5689,55.3568 0,0 -1.1787,1.6479 -1.1787,3.6563 0,0.6693 0,1.2875 0.3722,1.9569 1.1787,2.3172 3.9703,5.9219 3.9703,5.9219 0,0 0.8065,2.0081 4.3425,2.0081 h 68.3016"
     id="path62"
     style="stroke-width:3.61729" />
  <path
     class="TimeSig"
     d="m 759.42378,1112.1991 v 24.3574 h -32.9412 c -2.7914,0 -5.5829,2.008 -5.5829,4.6344 v 6.2825 c 0,2.626 2.7915,4.583 5.5829,4.583 h 120.2878 c 3.2258,0 5.583,-1.957 5.583,-4.583 v -6.2825 c 0,-2.6264 -2.3572,-4.6344 -5.583,-4.6344 h -35.7327 v -24.3574 h 35.7327 c 3.2258,0 5.583,-2.3172 5.583,-4.9435 v -6.2822 c 0,-2.3173 -2.3572,-4.5831 -5.583,-4.5831 h -35.7327 v -52.4218 c 0,-1.9567 -1.1788,-3.6046 -2.7296,-4.274 l -4.7766,-2.0083 c -0.8068,-0.3091 -1.1788,-0.3091 -1.9852,-0.3091 -0.4343,0 -0.4343,0 -0.8067,0 -1.1785,0 -2.7916,0.3091 -3.5979,0.9784 l -36.1051,27.344 c -1.1784,1.0298 -1.6128,2.3172 -1.6128,3.656 v 27.0348 h -46.0307 c 0,0 44.4799,-39.5481 91.3167,-91.661 1.6131,-1.6479 1.9852,-3.2958 1.9852,-4.583 0,-1.64789 -0.8064,-2.98649 -1.1784,-3.29559 l -8.7474,-7.2608 c -1.1783,-0.6693 -2.3571,-1.339 -3.9702,-1.339 -2.3572,0 -56.0182,0 -59.182,0 -2.7916,0 -4.7768,2.0084 -5.1492,3.9654 0,0 -1.9852,24.40849 -12.283,51.08279 -10.3601,26.7258 -22.271,43.2043 -32.5689,55.357 0,0 -1.1787,1.6477 -1.1787,3.6561 0,0.6695 0,1.2876 0.3722,1.957 1.1787,2.3171 3.9703,5.9218 3.9703,5.9218 0,0 0.8065,2.0081 4.3425,2.0081 h 68.3016"
     id="path64"
     style="stroke-width:3.61729" />
  <path
     class="Rest"
     d="m 1802.2664,2120.3945 c -0.372,-0.3091 -1.1789,-0.9784 -2.3571,-2.266 l -45.6584,-46.8087 c -0.4345,-0.3605 -0.8069,-1.339 -0.8069,-2.0083 0,-0.9784 0.3721,-2.2658 0.8069,-2.9351 l 40.4471,-50.7738 c 0.4339,-0.6695 0.8065,-1.6481 0.8065,-2.3174 v -2.9353 c 0,-0.9784 -0.3722,-2.0082 -1.1787,-2.6261 l -64.3312,-72.1959 c 0,0 -1.551,-2.0082 -3.9702,-2.0082 -1.179,0 -1.9854,0.3605 -3.1641,1.0297 -1.613,0.9785 -1.9851,2.2659 -1.9851,3.2957 0,1.9569 1.1789,3.6049 1.1789,3.6049 l 30.2113,34.2954 c 0.7445,0.9786 1.1786,2.2658 1.1786,3.9136 0,1.3389 -0.4341,2.9868 -1.1786,3.9652 l -40.1373,50.7739 c -0.3722,0.6694 -0.8065,1.9568 -0.8065,2.6263 v 2.9867 c 0,0.9784 0.4343,1.9568 1.2409,2.6263 l 44.4177,45.8301 c -1.5511,-0.3603 -5.1489,-1.0298 -9.9259,-1.0298 -6.6998,0 -15.4469,1.339 -22.581,6.5913 -8.7471,6.5914 -13.5238,15.8604 -13.5238,24.0995 0,4.5833 1.1786,9.2178 4.3426,12.8225 8.3747,10.5562 38.1519,41.8652 38.1519,41.8652 0,0 1.9851,2.0083 4.7771,2.0083 0.7444,0 1.5508,0 2.357,-0.6693 1.9851,-1.339 2.7916,-2.6264 2.7916,-3.9653 0,-1.3388 -0.8065,-2.3172 -1.1783,-2.9865 -1.2407,-1.6481 -13.8964,-20.7525 -13.8964,-20.7525 0,0 -2.7916,-4.6347 -2.7916,-10.5565 0,-4.2742 1.5509,-9.5266 6.762,-13.8522 4.7148,-3.9137 10.2978,-5.2525 15.447,-5.2525 5.1493,0 9.5534,1.3388 12.7172,2.9867 l 15.5093,8.2393 c 0,0 1.5508,0.6179 3.1633,0.6179 1.5513,0 2.7921,-0.3091 3.9705,-1.6479 0.8068,-1.2873 1.1788,-1.9567 1.1788,-2.9351 0,-0.9784 -0.3717,-1.6479 -1.1788,-2.6264 l -0.8063,-1.0297"
     id="path66"
     style="stroke-width:3.61729" />
  <path
     class="Rest"
     d="m 2596.0769,2120.3945 c -0.3723,-0.3091 -1.1788,-0.9784 -2.3571,-2.266 l -45.6584,-46.8087 c -0.4343,-0.3605 -0.8068,-1.339 -0.8068,-2.0083 0,-0.9784 0.3725,-2.2658 0.8068,-2.9351 l 40.4472,-50.7738 c 0.4341,-0.6695 0.8063,-1.6481 0.8063,-2.3174 v -2.9353 c 0,-0.9784 -0.3721,-2.0082 -1.1786,-2.6261 l -64.3313,-72.1959 c 0,0 -1.5508,-2.0082 -3.9702,-2.0082 -1.1787,0 -1.9853,0.3605 -3.1639,1.0297 -1.613,0.9785 -1.9851,2.2659 -1.9851,3.2957 0,1.9569 1.1786,3.6049 1.1786,3.6049 l 30.2116,34.2954 c 0.7446,0.9786 1.1786,2.2658 1.1786,3.9136 0,1.3389 -0.434,2.9868 -1.1786,3.9652 l -40.1373,50.7739 c -0.3721,0.6694 -0.8064,1.9568 -0.8064,2.6263 v 2.9867 c 0,0.9784 0.4343,1.9568 1.2407,2.6263 l 44.4179,45.8301 c -1.5512,-0.3603 -5.1492,-1.0298 -9.926,-1.0298 -6.6998,0 -15.4468,1.339 -22.581,6.5913 -8.7471,6.5914 -13.5238,15.8604 -13.5238,24.0995 0,4.5833 1.1786,9.2178 4.3425,12.8225 8.3748,10.5562 38.152,41.8652 38.152,41.8652 0,0 1.9851,2.0083 4.7771,2.0083 0.7443,0 1.5506,0 2.357,-0.6693 1.9854,-1.339 2.7914,-2.6264 2.7914,-3.9653 0,-1.3388 -0.806,-2.3172 -1.1783,-2.9865 -1.2406,-1.6481 -13.8962,-20.7525 -13.8962,-20.7525 0,0 -2.7917,-4.6347 -2.7917,-10.5565 0,-4.2742 1.551,-9.5266 6.7621,-13.8522 4.7149,-3.9137 10.2981,-5.2525 15.4468,-5.2525 5.1493,0 9.5535,1.3388 12.7174,2.9867 l 15.5093,8.2393 c 0,0 1.5506,0.6179 3.1635,0.6179 1.5511,0 2.7917,-0.3091 3.9702,-1.6479 0.8069,-1.2873 1.179,-1.9567 1.179,-2.9351 0,-0.9784 -0.3724,-1.6479 -1.179,-2.6264 l -0.8063,-1.0297"
     id="path68"
     style="stroke-width:3.61729" />
  <path
     class="Rest"
     d="m 2322.8149,1042.6299 c -0.3724,-0.3091 -1.1792,-0.9786 -2.3575,-2.2658 l -45.6584,-46.80909 c -0.4341,-0.3605 -0.807,-1.3387 -0.807,-2.0082 0,-0.9784 0.3723,-2.2658 0.807,-2.9353 l 40.4473,-50.7738 c 0.4339,-0.6696 0.8065,-1.6479 0.8065,-2.3175 v -2.9352 c 0,-0.9784 -0.3722,-2.0084 -1.1786,-2.6263 l -64.3312,-72.1957 c 0,0 -1.551,-2.0082 -3.9703,-2.0082 -1.1788,0 -1.9852,0.3605 -3.1639,1.0298 -1.613,0.9784 -1.9852,2.2658 -1.9852,3.2956 0,1.957 1.1788,3.6049 1.1788,3.6049 l 30.2114,34.2954 c 0.7444,0.9785 1.1782,2.2658 1.1782,3.9136 0,1.3391 -0.4338,2.9868 -1.1782,3.9651 l -40.1372,50.774 c -0.3722,0.6694 -0.8064,1.9568 -0.8064,2.6263 v 2.9867 c 0,0.9784 0.4342,1.9568 1.2407,2.6263 l 44.4176,45.83029 c -1.5512,-0.3603 -5.149,-1.0298 -9.9257,-1.0298 -6.6999,0 -15.4469,1.3388 -22.581,6.5913 -8.7472,6.5915 -13.5238,15.8605 -13.5238,24.0998 0,4.5829 1.1786,9.2173 4.3425,12.822 8.3748,10.5565 38.1515,41.8654 38.1515,41.8654 0,0 1.9853,2.0082 4.7773,2.0082 0.7443,0 1.5508,0 2.3573,-0.6691 1.9851,-1.3391 2.7913,-2.6265 2.7913,-3.9654 0,-1.3388 -0.8062,-2.3172 -1.1783,-2.9867 -1.2409,-1.6477 -13.8961,-20.7525 -13.8961,-20.7525 0,0 -2.7916,-4.6343 -2.7916,-10.5564 0,-4.274 1.5509,-9.5264 6.7619,-13.8518 4.7147,-3.9137 10.2979,-5.2528 15.4468,-5.2528 5.1493,0 9.5532,1.3391 12.7174,2.987 l 15.5091,8.2391 c 0,0 1.5508,0.618 3.1634,0.618 1.5514,0 2.792,-0.3092 3.9703,-1.6479 0.8069,-1.2876 1.179,-1.9569 1.179,-2.9355 0,-0.9781 -0.3721,-1.6477 -1.179,-2.6258 l -0.8059,-1.03"
     id="path70"
     style="stroke-width:3.61729" />
  <path
     class="NoteDot"
     d="m 3607.582,2676.8274 c 0,7.7611 8.6701,13.8745 19.6766,13.8745 11.0068,0 19.6767,-6.1134 19.6767,-13.8745 0,-7.7612 -8.6699,-13.8747 -19.6767,-13.8747 -11.0065,0 -19.6766,6.1135 -19.6766,13.8747"
     id="path74"
     style="stroke-width:3.30457" />
  <path
     class="NoteDot"
     d="m 1015.6754,2024.5112 c 0,9.2175 8.7471,16.4783 19.8515,16.4783 11.1044,0 19.8515,-7.2608 19.8515,-16.4783 0,-9.2179 -8.7471,-16.4785 -19.8515,-16.4785 -11.1044,0 -19.8515,7.2606 -19.8515,16.4785"
     id="path76"
     style="stroke-width:3.61729" />
  <path
     class="NoteDot"
     d="m 1827.0251,2026.0653 c 0,9.2176 8.747,16.4782 19.8514,16.4782 11.1044,0 19.8515,-7.2606 19.8515,-16.4782 0,-9.2179 -8.7471,-16.4786 -19.8515,-16.4786 -11.1044,0 -19.8514,7.2607 -19.8514,16.4786"
     id="path76-3"
     style="stroke-width:3.61729" />
  <path
     class="NoteDot"
     d="m 1229.4095,946.74631 c 0,9.2176 8.7471,16.4783 19.8515,16.4783 11.1044,0 19.8514,-7.2607 19.8514,-16.4783 0,-9.2177 -8.747,-16.4785 -19.8514,-16.4785 -11.1044,0 -19.8515,7.2608 -19.8515,16.4785"
     id="path78"
     style="stroke-width:3.61729" />
  <metadata
     id="metadata1680">
    <rdf:RDF>
      <cc:Work
         rdf:about="">
        <dc:title>Partition sans titre</dc:title>
      </cc:Work>
    </rdf:RDF>
  </metadata>
  <text
     xml:space="preserve"
     style="font-size:180px;font-family:sans-serif;-inkscape-font-specification:sans-serif;fill:#1a1a1a;stroke:#666666;stroke-width:0;stroke-dasharray:none"
     x="1255.4222"
     y="278.03424"
     id="text10044"><tspan
       sodipodi:role="line"
       id="tspan10042"
       style="stroke-width:0;stroke-dasharray:none"
       x="1255.4222"
       y="278.03424">Point de prolongation</tspan></text>
  <path
     style="fill:#1a1a1a;stroke:#666666;stroke-width:15.59055148;stroke-dasharray:none;marker-mid:url(#marker10395)"
     d="M 1998.1694,408.09436 1348.9975,893.62784 Z"
     id="path10144" />
  <path
     style="fill:#1a1a1a;stroke:#666666;stroke-width:12.1319;stroke-dasharray:none;marker-mid:url(#TriangleStart)"
     d="M 1998.669,403.93888 1098.8606,1929.339 Z"
     id="path10974" />
  <path
     style="fill:#1a1a1a;stroke:#666666;stroke-width:12.1402;stroke-dasharray:none;marker-mid:url(#TriangleStart-6)"
     d="M 1999.3606,412.59335 1860.3301,1906.9791 Z"
     id="path10974-5" />
</svg>
