<?xml version="1.0" encoding="UTF-8" standalone="no"?>
<svg
   width="297mm"
   height="210mm"
   viewBox="0 0 4209.4489 2976.378"
   version="1.2"
   id="svg240"
   sodipodi:docname="ex_corde_si_mi.svg"
   inkscape:version="1.2.2 (b0a8486541, 2022-12-01)"
   xmlns:inkscape="http://www.inkscape.org/namespaces/inkscape"
   xmlns:sodipodi="http://sodipodi.sourceforge.net/DTD/sodipodi-0.dtd"
   xmlns="http://www.w3.org/2000/svg"
   xmlns:svg="http://www.w3.org/2000/svg"
   xmlns:rdf="http://www.w3.org/1999/02/22-rdf-syntax-ns#"
   xmlns:cc="http://creativecommons.org/ns#"
   xmlns:dc="http://purl.org/dc/elements/1.1/">
  <defs
     id="defs244" />
  <sodipodi:namedview
     id="namedview242"
     pagecolor="#ffffff"
     bordercolor="#000000"
     borderopacity="0.25"
     inkscape:showpageshadow="2"
     inkscape:pageopacity="0.0"
     inkscape:pagecheckerboard="0"
     inkscape:deskcolor="#d1d1d1"
     inkscape:document-units="mm"
     showgrid="false"
     inkscape:zoom="0.42949815"
     inkscape:cx="394.64663"
     inkscape:cy="376.02024"
     inkscape:window-width="1280"
     inkscape:window-height="651"
     inkscape:window-x="0"
     inkscape:window-y="32"
     inkscape:window-maximized="1"
     inkscape:current-layer="svg240" />
  <title
     id="title2">ex_corde_si_mi</title>
  <desc
     id="desc4">Generated by MuseScore Studio 4.5.2</desc>
  <polyline
     class="StaffLines"
     fill="none"
     stroke="#000000"
     stroke-width="2.73"
     stroke-linejoin="bevel"
     points="336.598,634.198 2764.6,634.198"
     id="polyline6"
     transform="matrix(1.5512204,0,0,1.6841635,-226.67533,-9.1443244)" />
  <polyline
     class="StaffLines"
     fill="none"
     stroke="#000000"
     stroke-width="2.73"
     stroke-linejoin="bevel"
     points="336.598,658.998 2764.6,658.998"
     id="polyline8"
     transform="matrix(1.5512204,0,0,1.6841635,-226.67533,-9.1443244)" />
  <polyline
     class="StaffLines"
     fill="none"
     stroke="#000000"
     stroke-width="2.73"
     stroke-linejoin="bevel"
     points="336.598,683.798 2764.6,683.798"
     id="polyline10"
     transform="matrix(1.5512204,0,0,1.6841635,-226.67533,-9.1443244)" />
  <polyline
     class="StaffLines"
     fill="none"
     stroke="#000000"
     stroke-width="2.73"
     stroke-linejoin="bevel"
     points="336.598,708.598 2764.6,708.598"
     id="polyline12"
     transform="matrix(1.5512204,0,0,1.6841635,-226.67533,-9.1443244)" />
  <polyline
     class="StaffLines"
     fill="none"
     stroke="#000000"
     stroke-width="2.73"
     stroke-linejoin="bevel"
     points="336.598,733.398 2764.6,733.398"
     id="polyline14"
     transform="matrix(1.5512204,0,0,1.6841635,-226.67533,-9.1443244)" />
  <polyline
     class="StaffLines"
     fill="none"
     stroke="#000000"
     stroke-width="2.73"
     stroke-linejoin="bevel"
     points="212.598,1316.2 2764.6,1316.2"
     id="polyline16"
     transform="matrix(1.5512204,0,0,1.6841635,-226.67533,-9.1443244)" />
  <polyline
     class="StaffLines"
     fill="none"
     stroke="#000000"
     stroke-width="2.73"
     stroke-linejoin="bevel"
     points="212.598,1341 2764.6,1341"
     id="polyline18"
     transform="matrix(1.5512204,0,0,1.6841635,-226.67533,-9.1443244)" />
  <polyline
     class="StaffLines"
     fill="none"
     stroke="#000000"
     stroke-width="2.73"
     stroke-linejoin="bevel"
     points="212.598,1365.8 2764.6,1365.8"
     id="polyline20"
     transform="matrix(1.5512204,0,0,1.6841635,-226.67533,-9.1443244)" />
  <polyline
     class="StaffLines"
     fill="none"
     stroke="#000000"
     stroke-width="2.73"
     stroke-linejoin="bevel"
     points="212.598,1390.6 2764.6,1390.6"
     id="polyline22"
     transform="matrix(1.5512204,0,0,1.6841635,-226.67533,-9.1443244)" />
  <polyline
     class="StaffLines"
     fill="none"
     stroke="#000000"
     stroke-width="2.73"
     stroke-linejoin="bevel"
     points="212.598,1415.4 2764.6,1415.4"
     id="polyline24"
     transform="matrix(1.5512204,0,0,1.6841635,-226.67533,-9.1443244)" />
  <path
     class="Text"
     d="M 727.93791,353.24894 H 625.38829 v 8.70881 h 3.07762 c 9.71995,0.18526 12.9682,0.73766 14.32552,2.6054 1.0176,1.6589 1.0176,2.02605 1.0176,11.47421 v 88.18111 c 0,9.44816 0,9.81531 -1.0176,11.49947 -1.35732,1.84248 -4.60557,2.58014 -14.32552,2.58014 h -3.07762 v 8.70881 h 104.78028 l 3.41734,-49.4723 h -7.51411 c -6.49496,32.97423 -13.47546,40.02583 -39.60421,40.76349 h -11.24635 c -10.25201,-0.36883 -12.79757,-2.21131 -12.28877,-8.89575 v -47.23574 h 3.41734 c 17.57223,-0.73597 23.87483,6.1051 24.57754,26.68389 h 7.99809 v -60.76125 h -7.99809 c -1.04242,18.15697 -7.6832,25.36855 -23.8981,25.36855 h -4.09678 v -42.23713 c -0.16908,-7.78926 1.5264,-9.07764 10.73755,-9.2629 h 8.8947 c 27.9716,-0.18358 34.97536,6.47392 40.42945,38.52524 h 7.34348 l -2.39974,-47.23405 m 68.39951,86.5239 19.46317,-24.65784 c 4.26585,-5.36911 8.19199,-7.76231 12.79756,-7.76231 h 1.5264 v -6.68444 h -35.31353 v 6.68444 h 3.24671 c 5.11437,0 7.68474,1.28839 7.68474,4.07736 0,1.84248 -1.21305,4.44788 -3.41889,7.39516 l -10.76081,14.07793 -13.13729,-18.15697 c -1.0176,-1.47364 -1.69703,-2.94729 -1.69703,-4.0521 0,-2.42182 2.20583,-3.34138 7.51411,-3.34138 h 2.37492 v -6.68444 h -40.42791 v 6.68444 c 6.30106,0.55241 8.7008,2.20962 14.15489,9.99888 l 20.82048,28.3411 -19.63225,24.81615 c -5.79381,7.0516 -10.73754,10.02583 -15.34312,9.84057 h -1.04242 v 6.6575 h 36.01779 v -6.6575 h -2.56882 c -3.92769,0 -4.77621,-0.18357 -5.96289,-0.76292 -1.38214,-0.92124 -2.39974,-2.57846 -2.39974,-4.26262 0,-1.29007 0.5088,-2.94729 1.38213,-4.0521 l 14.32397,-18.5258 12.96665,18.70937 c 1.18824,1.84248 2.20584,4.26262 2.20584,5.55269 0,2.39488 -2.544,3.34138 -9.04051,3.34138 h -1.18824 v 6.6575 h 42.99828 v -6.6575 h -1.18668 c -5.98771,0 -9.88903,-2.42014 -14.85914,-9.07764 l -21.49837,-31.49891 m 114.32959,5.551 c 0.1706,-27.7887 -14.3488,-47.41931 -35.16926,-47.41931 -21.83808,0 -38.22207,20.55185 -38.22207,48.34055 0,26.13148 15.53547,43.55247 38.56179,43.55247 16.38554,0 27.82574,-8.71049 34.82954,-26.31506 l -5.9862,-3.52663 c -6.9804,14.26318 -14.1548,19.81586 -25.59509,19.81586 -8.70234,0 -15.0034,-3.86852 -19.43834,-12.21018 -3.07917,-5.55269 -4.43649,-12.05356 -4.26586,-22.2377 h 55.28549 m -55.1164,-7.97283 c 0,-12.97311 5.45409,-31.49891 19.77806,-31.49891 10.25201,0 17.06344,9.84225 17.06344,24.84141 0,5.18386 -1.5264,6.6575 -6.98051,6.6575 h -29.86099 m 94.8432,-36.68276 -30.2007,2.05299 v 7.97283 h 6.9804 c 6.495,0.18358 7.3435,1.29007 7.3435,9.2629 v 52.972 c -0.1691,2.78897 -0.3397,3.89547 -1.0176,4.81502 -1.1882,1.6589 -4.6056,2.42183 -11.949,2.6054 h -0.6795 v 6.6575 h 45.5671 v -6.6575 h -3.0776 c -11.4402,-0.39409 -12.9666,-1.31533 -12.9666,-7.97283 V 462.376 c 0.169,-31.13008 10.3978,-54.83973 23.7042,-55.5774 -2.375,2.94729 -3.0544,4.81671 -3.0544,8.3164 0,5.94678 3.9261,10.2094 9.3802,10.2094 6.3011,0 10.3979,-4.9986 10.3979,-12.4207 0,-9.07765 -5.7923,-14.99917 -14.8328,-14.99917 -10.7624,0 -19.972,9.2629 -25.5951,25.73571 v -22.97199 m 107.10549,59.10403 c -5.4525,13.34026 -11.2463,18.70937 -20.1162,18.70937 -13.6461,0 -22.1778,-13.52551 -22.1778,-35.18386 0,-22.60484 8.3611,-37.44569 20.9647,-37.44569 5.1392,0 9.5742,2.6054 9.5742,5.57795 0,0.55409 -0.1691,1.1065 -1.0424,2.21131 -2.7147,3.52664 -3.3926,5.36743 -3.3926,8.52523 0,6.1051 4.2659,10.3694 10.2288,10.3694 6.1552,0 10.4211,-5.18386 10.4211,-12.57902 0,-12.60428 -11.4403,-22.05244 -26.636,-22.05244 -22.1778,0 -38.05459,19.63061 -38.05459,47.41931 0,26.31506 14.51949,44.47371 35.67809,44.47371 15.174,0 23.8748,-7.60568 31.2183,-27.23629 l -6.6656,-2.78898 m 36.8415,-105.23496 c -5.4525,0 -9.889,4.81671 -9.889,10.76349 0,5.91984 4.4365,10.73655 9.7199,10.73655 5.648,0 10.083,-4.81671 10.083,-10.73655 0,-5.94678 -4.435,-10.76349 -9.9139,-10.76349 m 8.0229,46.13093 -32.0668,2.05299 v 7.97283 h 8.7023 c 6.4717,0.18358 7.3202,1.29007 7.3202,9.2629 v 52.972 c -0.1706,2.78897 -0.3397,3.89547 -1.0191,4.81502 -1.1867,1.6589 -4.4349,2.42183 -11.7784,2.6054 h -1.1883 v 6.6575 h 44.2098 v -6.6575 h -1.2115 c -11.417,-0.39409 -12.9682,-1.31533 -12.9682,-7.97283 v -71.70831 m 84.6144,59.10403 c -5.4525,13.34026 -11.2463,18.70937 -20.1177,18.70937 -13.6446,0 -22.1763,-13.52551 -22.1763,-35.18386 0,-22.60484 8.3611,-37.44569 20.9648,-37.44569 5.1391,0 9.5741,2.6054 9.5741,5.57795 0,0.55409 -0.1691,1.1065 -1.0424,2.21131 -2.7147,3.52664 -3.3926,5.36743 -3.3926,8.52523 0,6.1051 4.2659,10.3694 10.2272,10.3694 6.1568,0 10.4227,-5.18386 10.4227,-12.57902 0,-12.60428 -11.4403,-22.05244 -26.6376,-22.05244 -22.1778,0 -38.053,19.63061 -38.053,47.41931 0,26.31506 14.5179,44.47371 35.6781,44.47371 15.1725,0 23.8748,-7.60568 31.2183,-27.23629 l -6.6656,-2.78898 m 89.0742,-14.44844 c 0.1691,-27.7887 -14.3488,-47.41931 -35.1693,-47.41931 -21.838,0 -38.222,20.55185 -38.222,48.34055 0,26.13148 15.5354,43.55247 38.5618,43.55247 16.3839,0 27.8242,-8.71049 34.8295,-26.31506 l -5.9862,-3.52663 c -6.9804,14.26318 -14.1548,19.81586 -25.5951,19.81586 -8.7023,0 -15.0034,-3.86852 -19.4399,-12.21018 -3.0776,-5.55269 -4.4349,-12.05356 -4.2658,-22.2377 h 55.287 m -55.1164,-7.97283 c 0,-12.97311 5.4525,-31.49891 19.7781,-31.49891 10.252,0 17.0634,9.84225 17.0634,24.84141 0,5.18386 -1.528,6.6575 -6.9805,6.6575 h -29.861 m 175.0428,-38.70881 h -5.9877 l -4.9484,6.6575 c -6.1273,-5.18386 -12.2857,-7.39517 -20.8174,-7.39517 -15.0003,0 -24.9126,10.55297 -24.9126,26.86747 0,17.39404 10.4242,21.84191 24.075,25.36855 l 9.0281,2.23657 c 13.4801,3.49969 18.2578,7.2099 18.2578,14.63033 0,8.71049 -6.9805,14.81558 -16.8928,14.81558 -14.4884,0 -24.7264,-9.99887 -28.8216,-28.52467 h -6.8409 v 34.9986 h 5.9722 l 5.9877,-7.57874 c 6.9805,6.1051 14.659,9.07933 23.3614,9.07933 16.7221,0 27.8289,-11.3159 27.8289,-28.55163 0,-8.13282 -2.4044,-14.44843 -7.1822,-18.71105 -4.0952,-3.86853 -7.5079,-5.36743 -17.9011,-7.76231 l -8.5317,-2.053 c -9.3849,-2.20962 -9.3849,-2.20962 -12.4718,-4.07904 -3.7539,-1.84248 -5.9567,-5.73626 -5.9567,-9.81531 0,-7.57873 6.4686,-12.76259 15.8535,-12.76259 14.0075,0 20.8174,10.73655 24.9126,23.70966 h 5.9877 V 398.6422 m 82.7266,89.65476 31.0709,-1.29007 v -7.97283 h -4.2658 c -9.9123,-0.36883 -10.7655,-1.47364 -10.7655,-13.52552 v -64.84029 l -32.0637,2.05299 v 7.97283 h 8.7023 c 6.4686,0.18358 7.3218,1.29007 7.3218,9.2629 v 22.76316 c 0,16.13091 -3.5678,35.76152 -22.3531,35.76152 -5.2741,0 -9.7106,-2.02604 -11.9444,-5.73626 -2.2027,-3.52664 -2.544,-5.36911 -2.544,-15.55325 v -56.52389 l -29.861,2.05299 v 7.97283 h 6.4686 c 6.4996,0.18358 7.3528,1.29007 7.3528,9.2629 v 39.99889 c 0,9.44647 0.667,13.71077 3.242,17.97339 4.6072,7.604 12.7976,11.8683 23.0201,11.8683 11.2774,0 19.1266,-5.00028 26.619,-16.86858 v 15.36799 m 67.7418,-87.62871 -30.2023,2.05299 v 7.97283 h 6.9805 c 6.4996,0.18358 7.3528,1.29007 7.3528,9.2629 v 52.972 c -0.1706,2.78897 -0.3413,3.89547 -1.0238,4.81502 -1.1789,1.6589 -4.6071,2.42183 -11.9444,2.6054 h -0.6825 v 6.6575 h 45.5748 v -6.6575 h -3.0869 c -11.4325,-0.39409 -12.9682,-1.31533 -12.9682,-7.97283 V 462.376 c 0.1706,-31.13008 10.3932,-54.83973 23.7026,-55.5774 -2.3733,2.94729 -3.0559,4.81671 -3.0559,8.3164 0,5.94678 3.9401,10.2094 9.3849,10.2094 6.298,0 10.3932,-4.9986 10.3932,-12.4207 0,-9.07765 -5.7861,-14.99917 -14.8297,-14.99917 -10.7655,0 -19.9642,9.2629 -25.5951,25.73571 v -22.97199 m 124.1907,-50.20997 -31.5518,2.053 v 7.97283 h 8.361 c 6.298,0.18525 7.1512,1.29006 7.1512,9.26289 v 103.18197 c -0.1707,2.78897 -0.3413,3.89547 -1.0238,4.81502 -1.179,1.6589 -4.4365,2.42183 -11.7738,2.6054 h -1.1944 v 6.6575 h 44.1942 v -6.6575 h -1.1944 c -11.417,-0.39409 -12.9682,-1.31533 -12.9682,-7.97283 V 350.45828 m 98.2853,94.86556 c 0.1706,-27.7887 -14.3488,-47.41931 -35.1662,-47.41931 -21.8411,0 -38.222,20.55185 -38.222,48.34055 0,26.13148 15.5432,43.55247 38.5633,43.55247 16.3809,0 27.8289,-8.71049 34.8249,-26.31506 l -5.9877,-3.52663 c -6.9805,14.26318 -14.1471,19.81586 -25.5951,19.81586 -8.7024,0 -15.0003,-3.86852 -19.4368,-12.21018 -3.0715,-5.55269 -4.4365,-12.05356 -4.2659,-22.2377 h 55.2855 m -55.1149,-7.97283 c 0,-12.97311 5.4603,-31.49891 19.7781,-31.49891 10.2536,0 17.0634,9.84225 17.0634,24.84141 0,5.18386 -1.5202,6.6575 -6.9805,6.6575 h -29.861 m 126.9054,-38.70881 h -5.9722 l -4.9484,6.6575 c -6.1428,-5.18386 -12.2857,-7.39517 -20.8174,-7.39517 -15.0158,0 -24.9281,10.55297 -24.9281,26.86747 0,17.39404 10.4242,21.84191 24.0749,25.36855 l 9.0437,2.23657 c 13.4645,3.49969 18.2423,7.2099 18.2423,14.63033 0,8.71049 -6.9805,14.81558 -16.8928,14.81558 -14.4884,0 -24.7264,-9.99887 -28.8217,-28.52467 h -6.8253 v 34.9986 h 5.9567 l 5.9877,-7.57874 c 6.9805,6.1051 14.659,9.07933 23.3613,9.07933 16.7222,0 27.8289,-11.3159 27.8289,-28.55163 0,-8.13282 -2.4044,-14.44843 -7.1666,-18.71105 -4.0952,-3.86853 -7.5234,-5.36743 -17.9166,-7.76231 l -8.5317,-2.053 c -9.3849,-2.20962 -9.3849,-2.20962 -12.4563,-4.07904 -3.754,-1.84248 -5.9722,-5.73626 -5.9722,-9.81531 0,-7.57873 6.4841,-12.76259 15.8535,-12.76259 14.0075,0 20.8173,10.73655 24.9281,23.70966 h 5.9722 V 398.6422 m 125.897,61.13008 c -5.4448,13.34026 -11.2463,18.70937 -20.1193,18.70937 -13.6352,0 -22.1669,-13.52551 -22.1669,-35.18386 0,-22.60484 8.361,-37.44569 20.9569,-37.44569 5.1346,0 9.5711,2.6054 9.5711,5.57795 0,0.55409 -0.1707,1.1065 -1.0393,2.21131 -2.7147,3.52664 -3.3972,5.36743 -3.3972,8.52523 0,6.1051 4.2658,10.3694 10.238,10.3694 6.1584,0 10.4242,-5.18386 10.4242,-12.57902 0,-12.60428 -11.448,-22.05244 -26.6499,-22.05244 -22.167,0 -38.0515,19.63061 -38.0515,47.41931 0,26.31506 14.5195,44.47371 35.6781,44.47371 15.1709,0 23.8733,-7.60568 31.2261,-27.23629 l -6.6703,-2.78898 m 52.5243,-61.86775 c -20.988,0 -37.1982,20.1847 -37.1982,46.13093 0,25.36687 16.3809,45.76209 36.857,45.76209 20.4761,0 36.8725,-20.39522 36.8725,-45.94735 0,-25.39382 -16.3964,-45.94567 -36.5313,-45.94567 m 0,7.94757 c 11.9444,0 18.5837,13.52552 18.5837,37.9981 0,24.63089 -6.6393,37.97283 -18.9249,37.97283 -12.2857,0 -18.9249,-13.34194 -18.9249,-37.78757 0,-25.21025 6.4686,-38.18336 19.2661,-38.18336 m 76.0874,-5.18385 -30.2023,2.05299 v 7.97283 h 6.9805 c 6.4996,0.18358 7.3373,1.29007 7.3373,9.2629 v 52.972 c -0.1706,2.78897 -0.3413,3.89547 -1.0083,4.81502 -1.1944,1.6589 -4.6071,2.42183 -11.9599,2.6054 h -0.667 v 6.6575 h 45.5593 v -6.6575 h -3.0714 c -11.448,-0.39409 -12.9682,-1.31533 -12.9682,-7.97283 V 462.376 c 0.1706,-31.13008 10.3932,-54.83973 23.7026,-55.5774 -2.3733,2.94729 -3.0559,4.81671 -3.0559,8.3164 0,5.94678 3.9246,10.2094 9.3849,10.2094 6.298,0 10.3932,-4.9986 10.3932,-12.4207 0,-9.07765 -5.786,-14.99917 -14.8297,-14.99917 -10.7654,0 -19.9797,9.2629 -25.5951,25.73571 v -22.97199 m 105.4054,87.62871 29.6904,-1.29007 v -7.97283 h -3.0714 c -9.7262,-0.55241 -10.5794,-1.65722 -10.5794,-13.52552 V 350.45828 l -33.4443,2.053 v 7.97283 h 10.0675 c 6.4841,0.18525 7.3372,1.29006 7.3372,9.26289 v 41.86831 c -6.2979,-9.44816 -13.6507,-13.71078 -23.532,-13.71078 -19.2972,0 -33.9562,20.1847 -33.9562,46.86691 0,26.31505 14.1471,45.02611 33.9562,45.02611 10.7345,0 18.0717,-5.00028 23.532,-16.13092 v 14.63033 m -20.1348,-80.39186 c 6.996,0 13.6662,5.55268 16.7221,14.07792 2.2183,5.55269 3.2421,13.15837 3.2421,22.23601 0,21.65834 -7.8492,35.55269 -20.1349,35.55269 -12.0995,0 -19.2816,-12.21018 -19.2816,-32.78898 0,-11.10537 1.0238,-19.44703 3.2575,-25.55212 2.8853,-8.34167 9.2143,-13.52552 16.1948,-13.52552 m 132.5673,37.41874 c 0.1706,-27.7887 -14.3488,-47.41931 -35.1662,-47.41931 -21.8412,0 -38.2221,20.55185 -38.2221,48.34055 0,26.13148 15.5433,43.55247 38.5634,43.55247 16.3809,0 27.8289,-8.71049 34.8249,-26.31506 l -5.9722,-3.52663 c -6.9805,14.26318 -14.1627,19.81586 -25.5952,19.81586 -8.7023,0 -15.0158,-3.86852 -19.4523,-12.21018 -3.0714,-5.55269 -4.4365,-12.05356 -4.2658,-22.2377 h 55.2855 m -55.1149,-7.97283 c 0,-12.97311 5.4603,-31.49891 19.7781,-31.49891 10.2535,0 17.0634,9.84225 17.0634,24.84141 0,5.18386 -1.5202,6.6575 -6.9805,6.6575 h -29.861 m 126.9209,-38.70881 h -5.9877 l -4.9484,6.6575 c -6.1274,-5.18386 -12.2857,-7.39517 -20.8174,-7.39517 -15.0003,0 -24.9281,10.55297 -24.9281,26.86747 0,17.39404 10.4242,21.84191 24.0749,25.36855 l 9.0436,2.23657 c 13.4801,3.49969 18.2424,7.2099 18.2424,14.63033 0,8.71049 -6.9805,14.81558 -16.8928,14.81558 -14.4884,0 -24.711,-9.99887 -28.8062,-28.52467 h -6.8409 v 34.9986 h 5.9567 l 5.9877,-7.57874 c 6.9805,6.1051 14.6746,9.07933 23.3614,9.07933 16.7377,0 27.8289,-11.3159 27.8289,-28.55163 0,-8.13282 -2.3889,-14.44843 -7.1666,-18.71105 -4.0952,-3.86853 -7.5234,-5.36743 -17.9166,-7.76231 l -8.5317,-2.053 c -9.3849,-2.20962 -9.3849,-2.20962 -12.4563,-4.07904 -3.754,-1.84248 -5.9567,-5.73626 -5.9567,-9.81531 0,-7.57873 6.4686,-12.76259 15.8379,-12.76259 14.0231,0 20.8329,10.73655 24.9282,23.70966 h 5.9877 V 398.6422 m 124.7026,89.65476 29.6903,-1.29007 v -7.97283 h -3.0869 c -9.7106,-0.55241 -10.5638,-1.65722 -10.5638,-13.52552 V 350.45828 l -33.4443,2.053 v 7.97283 h 10.0519 c 6.4996,0.18525 7.3528,1.29006 7.3528,9.26289 v 41.86831 c -6.3135,-9.44816 -13.6508,-13.71078 -23.5476,-13.71078 -19.2816,0 -33.9562,20.1847 -33.9562,46.86691 0,26.31505 14.1627,45.02611 33.9562,45.02611 10.75,0 18.0873,-5.00028 23.5476,-16.13092 v 14.63033 m -20.1504,-80.39186 c 7.0115,0 13.6663,5.55268 16.7222,14.07792 2.2337,5.55269 3.2575,13.15837 3.2575,22.23601 0,21.65834 -7.8647,35.55269 -20.1503,35.55269 -12.084,0 -19.2662,-12.21018 -19.2662,-32.78898 0,-11.10537 1.0238,-19.44703 3.2421,-25.55212 2.8852,-8.34167 9.2142,-13.52552 16.1947,-13.52552 m 132.5828,37.41874 c 0.1707,-27.7887 -14.3488,-47.41931 -35.1661,-47.41931 -21.8412,0 -38.2221,20.55185 -38.2221,48.34055 0,26.13148 15.5277,43.55247 38.5633,43.55247 16.3809,0 27.8289,-8.71049 34.8249,-26.31506 l -5.9877,-3.52663 c -6.9805,14.26318 -14.1471,19.81586 -25.5951,19.81586 -8.7024,0 -15.0003,-3.86852 -19.4368,-12.21018 -3.0714,-5.55269 -4.4365,-12.05356 -4.2659,-22.2377 h 55.2855 m -55.1148,-7.97283 c 0,-12.97311 5.4603,-31.49891 19.778,-31.49891 10.2536,0 17.0634,9.84225 17.0634,24.84141 0,5.18386 -1.5202,6.6575 -6.9804,6.6575 h -29.861 m 201.6586,-85.20857 h -6.329 l -6.8098,11.10538 c -8.1905,-8.34166 -18.9559,-12.78954 -31.071,-12.78954 -22.5237,0 -37.3534,15.39494 -37.3534,38.73576 0,20.1847 9.2143,30.18358 34.2975,37.23686 l 16.2103,4.44619 c 12.6269,3.52664 13.8213,3.89547 17.4047,6.84275 5.119,4.26262 7.8647,10.39466 7.8647,17.60457 0,7.42042 -2.5751,13.52551 -7.6941,18.70937 -5.6464,5.18385 -11.2619,7.23685 -20.6467,7.23685 -25.7658,0 -38.5634,-20.57879 -42.9999,-45.57683 h -7.3372 l 0.667,52.78673 h 6.6702 l 7.6786,-12.57733 c 11.417,10.18414 20.8018,13.89435 35.8332,13.89435 25.0832,0 41.1228,-15.94735 41.1228,-40.76181 0,-11.68473 -3.4127,-21.31646 -10.2536,-28.34279 -4.5916,-4.81502 -11.2463,-7.97283 -24.9126,-11.68304 l -18.2423,-5.00028 c -15.1865,-4.26262 -22.3531,-11.47252 -22.3531,-22.78842 0,-12.97311 9.7262,-21.86718 24.2301,-21.86718 22.0118,0 34.1268,19.84113 38.7339,40.94539 h 7.3218 l -2.0321,-48.15698 m 39.8974,2.39488 c -5.4603,0 -9.8968,4.81671 -9.8968,10.76349 0,5.91984 4.4365,10.73655 9.7262,10.73655 5.6464,0 10.0829,-4.81671 10.0829,-10.73655 0,-5.94678 -4.4365,-10.76349 -9.9123,-10.76349 m 8.0198,46.13093 -32.0637,2.05299 v 7.97283 h 8.7023 c 6.4686,0.18358 7.3218,1.29007 7.3218,9.2629 v 52.972 c -0.1706,2.78897 -0.3413,3.89547 -1.0238,4.81502 -1.1945,1.6589 -4.4365,2.42183 -11.7738,2.6054 h -1.1944 v 6.6575 h 44.2098 v -6.6575 h -1.21 c -11.417,-0.39409 -12.9682,-1.31533 -12.9682,-7.97283 v -71.70831 m 145.3804,44.65559 c 0.1706,-27.7887 -14.3488,-47.41931 -35.1662,-47.41931 -21.8412,0 -38.2221,20.55185 -38.2221,48.34055 0,26.13148 15.5278,43.55247 38.5634,43.55247 16.3809,0 27.8134,-8.71049 34.8249,-26.31506 l -5.9877,-3.52663 c -6.9805,14.26318 -14.1627,19.81586 -25.5952,19.81586 -8.7023,0 -15.0003,-3.86852 -19.4368,-12.21018 -3.0869,-5.55269 -4.4365,-12.05356 -4.2658,-22.2377 h 55.2855 m -55.1149,-7.97283 c 0,-12.97311 5.4448,-31.49891 19.7781,-31.49891 10.2535,0 17.0634,9.84225 17.0634,24.84141 0,5.18386 -1.5357,6.6575 -6.9805,6.6575 h -29.861 m 90.7464,-36.68276 v -36.68277 h -7.0115 c -1.6908,24.10375 -9.2143,36.31394 -23.0201,37.44569 v 7.20991 h 13.9765 v 47.23573 c 0,12.97311 0.3412,17.60456 2.0476,21.86718 2.7301,7.78926 9.571,12.05356 19.4523,12.05356 15.3726,0 25.2539,-12.60596 25.2539,-32.23657 0,-1.13176 0,-2.42015 -0.1552,-4.26262 h -7.1821 c -0.5119,16.65637 -4.9484,25.18329 -13.3095,25.18329 -3.9246,0 -7.3373,-2.2113 -8.5317,-5.36911 -1.0083,-2.60372 -1.5202,-7.23517 -1.5202,-13.89435 v -50.57711 h 25.0832 v -7.97283 h -25.0832 m 145.52,87.62871 29.6903,-1.29007 v -7.97283 h -3.0714 c -9.7261,-0.55241 -10.5793,-1.65722 -10.5793,-13.52552 V 350.45828 l -33.4443,2.053 v 7.97283 h 10.0674 c 6.4841,0.18525 7.3373,1.29006 7.3373,9.26289 v 41.86831 c -6.298,-9.44816 -13.6508,-13.71078 -23.532,-13.71078 -19.2972,0 -33.9562,20.1847 -33.9562,46.86691 0,26.31505 14.1471,45.02611 33.9562,45.02611 10.7344,0 18.0717,-5.00028 23.532,-16.13092 v 14.63033 m -20.1349,-80.39186 c 6.9961,0 13.6663,5.55268 16.7222,14.07792 2.2182,5.55269 3.2421,13.15837 3.2421,22.23601 0,21.65834 -7.8492,35.55269 -20.1349,35.55269 -12.0995,0 -19.2817,-12.21018 -19.2817,-32.78898 0,-11.10537 1.0238,-19.44703 3.2576,-25.55212 2.8853,-8.34167 9.2143,-13.52552 16.1947,-13.52552 m 132.5673,37.41874 c 0.1707,-27.7887 -14.3488,-47.41931 -35.1661,-47.41931 -21.8412,0 -38.2221,20.55185 -38.2221,48.34055 0,26.13148 15.5432,43.55247 38.5633,43.55247 16.3809,0 27.8289,-8.71049 34.8249,-26.31506 l -5.9722,-3.52663 c -6.9805,14.26318 -14.1626,19.81586 -25.5951,19.81586 -8.7023,0 -15.0158,-3.86852 -19.4523,-12.21018 -3.0714,-5.55269 -4.4365,-12.05356 -4.2659,-22.2377 h 55.2855 m -55.1148,-7.97283 c 0,-12.97311 5.4603,-31.49891 19.778,-31.49891 10.2536,0 17.0635,9.84225 17.0635,24.84141 0,5.18386 -1.5202,6.6575 -6.9805,6.6575 h -29.861 m 157.4488,-84.10207 h -44.0081 v 8.70881 h 3.2421 c 9.7261,0.18526 12.9682,0.73766 14.1626,2.6054 1.21,1.6589 1.21,1.84247 1.21,11.47421 v 70.94538 c 0,25.21025 -3.2576,30.3941 -19.8091,31.31534 v 8.70881 h 48.6307 v -8.70881 c -16.3964,-0.92124 -19.6074,-6.10509 -19.6074,-31.31534 v -81.86718 l 40.5955,121.89133 h 6.8253 l 38.067,-121.89133 v 99.10291 c 0,9.44816 0,9.81531 -1.0238,11.68473 -1.3806,1.84079 -4.6382,2.39488 -14.3488,2.39488 h -3.087 v 8.70881 h 55.9991 v -8.70881 h -3.0869 c -9.7107,0 -12.9682,-0.55409 -14.3488,-2.39488 -1.0083,-1.86942 -1.0083,-2.053 -1.0083,-11.68473 v -88.18111 c 0,-9.44816 0,-9.81531 1.0083,-11.47421 1.3806,-1.86774 4.6381,-2.42014 14.3488,-2.6054 h 3.0869 v -8.70881 h -42.8292 l -31.2416,98.73409 -32.7773,-98.73409 m 139.2221,1.28838 c -5.4448,0 -9.8813,4.81671 -9.8813,10.76349 0,5.91984 4.4365,10.73655 9.7106,10.73655 5.6465,0 10.083,-4.81671 10.083,-10.73655 0,-5.94678 -4.4365,-10.76349 -9.9123,-10.76349 m 8.0353,46.13093 -32.0792,2.05299 v 7.97283 h 8.7023 c 6.4686,0.18358 7.3218,1.29007 7.3218,9.2629 v 52.972 c -0.1707,2.78897 -0.3413,3.89547 -1.0083,4.81502 -1.1945,1.6589 -4.4365,2.42183 -11.7893,2.6054 h -1.1789 v 6.6575 h 44.2097 v -6.6575 h -1.2254 c -11.4015,-0.39409 -12.9527,-1.31533 -12.9527,-7.97283 v -71.70831"
     id="path26"
     style="stroke-width:1.61633" />
  <path
     class="MeasureNumber"
     d="m 125.74952,2099.4958 c 2.93336,-1.0105 4.09677,-1.5663 5.59991,-2.6441 2.90853,-2.0716 4.70174,-5.7767 4.70174,-9.5492 0,-6.3999 -4.70174,-10.7113 -11.65897,-10.7113 -6.76177,0 -12.48267,4.5809 -12.48267,10.105 0,2.762 1.55122,4.6651 3.92769,4.6651 2.0352,0 3.53834,-1.6336 3.53834,-3.8399 0,-1.1621 -0.3149,-1.9873 -1.30923,-3.0315 -0.6298,-0.64 -0.87179,-1.0779 -0.87179,-1.5494 0,-1.6337 3.10244,-3.3178 6.01098,-3.3178 4.16813,0 6.64077,2.4925 6.64077,6.6861 0,5.9619 -3.90287,11.6207 -8.071,11.6207 -0.17063,0 -0.72752,-0.05 -1.40695,-0.1179 -1.81648,-0.1347 -1.81648,-0.1347 -2.18102,-0.1347 -1.35732,0 -2.10811,0.6737 -2.10811,1.8863 0,1.0778 0.67789,1.7347 1.79321,1.7347 0.3149,0 0.75079,-0.051 1.23633,-0.1179 0.87178,-0.1853 1.81803,-0.2695 2.37491,-0.2695 2.90854,0 4.89566,2.8462 4.89566,7.0061 0,7.2756 -3.29635,14.2817 -10.80891,14.2817 -3.46698,0 -6.44842,-1.8862 -6.44842,-4.0588 0,-0.7242 0.26681,-0.9937 1.23632,-1.4652 1.81803,-0.8758 2.54555,-2.0884 2.54555,-3.8904 0,-2.3747 -1.7203,-4.1936 -3.95095,-4.1936 -2.66655,0 -4.41167,2.2904 -4.41167,5.7935 0,6.5177 4.58075,10.6271 12.02195,10.6271 9.38023,0 16.50654,-6.7872 16.50654,-15.8143 0,-5.2546 -2.98145,-8.2019 -7.32021,-9.7008"
     id="path28"
     style="stroke-width:1.61633" />
  <polyline
     class="BarLine"
     fill="none"
     stroke="#000000"
     stroke-width="4.46"
     stroke-linejoin="bevel"
     points="2739.55,1314.83 2739.55,1416.76"
     id="polyline30"
     transform="matrix(1.5512204,0,0,1.6841635,-226.67533,-9.1443244)" />
  <polyline
     class="BarLine"
     fill="none"
     stroke="#000000"
     stroke-width="13.64"
     stroke-linejoin="bevel"
     points="2757.78,1314.83 2757.78,1416.76"
     id="polyline32"
     transform="matrix(1.5512204,0,0,1.6841635,-226.67533,-9.1443244)" />
  <polyline
     class="BarLine"
     fill="none"
     stroke="#000000"
     stroke-width="4.46"
     stroke-linejoin="bevel"
     points="1523.24,1314.83 1523.24,1416.76"
     id="polyline34"
     transform="matrix(1.5512204,0,0,1.6841635,-226.67533,-9.1443244)" />
  <polyline
     class="BarLine"
     fill="none"
     stroke="#000000"
     stroke-width="4.46"
     stroke-linejoin="bevel"
     points="2762.37,632.834 2762.37,734.762"
     id="polyline36"
     transform="matrix(1.5512204,0,0,1.6841635,-226.67533,-9.1443244)" />
  <polyline
     class="BarLine"
     fill="none"
     stroke="#000000"
     stroke-width="4.46"
     stroke-linejoin="bevel"
     points="1624.89,632.834 1624.89,734.762"
     id="polyline38"
     transform="matrix(1.5512204,0,0,1.6841635,-226.67533,-9.1443244)" />
  <polyline
     class="Stem"
     fill="none"
     stroke="#000000"
     stroke-width="2.48"
     stroke-linejoin="bevel"
     points="2156.39,1357.56 2156.39,1434"
     id="polyline40"
     transform="matrix(1.5512204,0,0,1.6841635,-226.67533,-9.1443244)" />
  <polyline
     class="Stem"
     fill="none"
     stroke="#000000"
     stroke-width="2.48"
     stroke-linejoin="bevel"
     points="1574.23,1345.16 1574.23,1427.8"
     id="polyline42"
     transform="matrix(1.5512204,0,0,1.6841635,-226.67533,-9.1443244)" />
  <polyline
     class="Stem"
     fill="none"
     stroke="#000000"
     stroke-width="2.48"
     stroke-linejoin="bevel"
     points="357.911,1307.96 357.911,1390.6"
     id="polyline44"
     transform="matrix(1.5512204,0,0,1.6841635,-226.67533,-9.1443244)" />
  <polyline
     class="Stem"
     fill="none"
     stroke="#000000"
     stroke-width="2.48"
     stroke-linejoin="bevel"
     points="539.405,687.965 539.405,758.198"
     id="polyline46"
     transform="matrix(1.5512204,0,0,1.6841635,-226.67533,-9.1443244)" />
  <polyline
     class="Stem"
     fill="none"
     stroke="#000000"
     stroke-width="2.48"
     stroke-linejoin="bevel"
     points="1676.88,650.765 1676.88,733.398"
     id="polyline48"
     transform="matrix(1.5512204,0,0,1.6841635,-226.67533,-9.1443244)" />
  <polyline
     class="Stem"
     fill="none"
     stroke="#000000"
     stroke-width="2.48"
     stroke-linejoin="bevel"
     points="1443.15,663.165 1443.15,745.798"
     id="polyline50"
     transform="matrix(1.5512204,0,0,1.6841635,-226.67533,-9.1443244)" />
  <polyline
     class="Stem"
     fill="none"
     stroke="#000000"
     stroke-width="2.48"
     stroke-linejoin="bevel"
     points="2580.63,625.965 2580.63,708.598"
     id="polyline52"
     transform="matrix(1.5512204,0,0,1.6841635,-226.67533,-9.1443244)" />
  <polyline
     class="Stem"
     fill="none"
     stroke="#000000"
     stroke-width="2.48"
     stroke-linejoin="bevel"
     points="1857.63,650.765 1857.63,733.398"
     id="polyline54"
     transform="matrix(1.5512204,0,0,1.6841635,-226.67533,-9.1443244)" />
  <polyline
     class="Stem"
     fill="none"
     stroke="#000000"
     stroke-width="2.48"
     stroke-linejoin="bevel"
     points="1768.28,1345.16 1768.28,1427.8"
     id="polyline56"
     transform="matrix(1.5512204,0,0,1.6841635,-226.67533,-9.1443244)" />
  <polyline
     class="Stem"
     fill="none"
     stroke="#000000"
     stroke-width="2.48"
     stroke-linejoin="bevel"
     points="2399.88,625.965 2399.88,708.598"
     id="polyline58"
     transform="matrix(1.5512204,0,0,1.6841635,-226.67533,-9.1443244)" />
  <polyline
     class="Stem"
     fill="none"
     stroke="#000000"
     stroke-width="2.48"
     stroke-linejoin="bevel"
     points="2038.38,638.365 2038.38,720.998"
     id="polyline60"
     transform="matrix(1.5512204,0,0,1.6841635,-226.67533,-9.1443244)" />
  <polyline
     class="Stem"
     fill="none"
     stroke="#000000"
     stroke-width="2.48"
     stroke-linejoin="bevel"
     points="1962.34,1357.56 1962.34,1434"
     id="polyline62"
     transform="matrix(1.5512204,0,0,1.6841635,-226.67533,-9.1443244)" />
  <polyline
     class="Stem"
     fill="none"
     stroke="#000000"
     stroke-width="2.48"
     stroke-linejoin="bevel"
     points="2219.13,638.365 2219.13,720.998"
     id="polyline64"
     transform="matrix(1.5512204,0,0,1.6841635,-226.67533,-9.1443244)" />
  <polyline
     class="Stem"
     fill="none"
     stroke="#000000"
     stroke-width="2.48"
     stroke-linejoin="bevel"
     points="1262.4,663.165 1262.4,745.798"
     id="polyline66"
     transform="matrix(1.5512204,0,0,1.6841635,-226.67533,-9.1443244)" />
  <polyline
     class="Stem"
     fill="none"
     stroke="#000000"
     stroke-width="2.48"
     stroke-linejoin="bevel"
     points="1134.13,1332.76 1134.13,1415.4"
     id="polyline68"
     transform="matrix(1.5512204,0,0,1.6841635,-226.67533,-9.1443244)" />
  <polyline
     class="Stem"
     fill="none"
     stroke="#000000"
     stroke-width="2.48"
     stroke-linejoin="bevel"
     points="1328.19,1332.76 1328.19,1415.4"
     id="polyline70"
     transform="matrix(1.5512204,0,0,1.6841635,-226.67533,-9.1443244)" />
  <polyline
     class="Stem"
     fill="none"
     stroke="#000000"
     stroke-width="2.48"
     stroke-linejoin="bevel"
     points="720.154,687.965 720.154,758.198"
     id="polyline72"
     transform="matrix(1.5512204,0,0,1.6841635,-226.67533,-9.1443244)" />
  <polyline
     class="Stem"
     fill="none"
     stroke="#000000"
     stroke-width="2.48"
     stroke-linejoin="bevel"
     points="940.078,1320.36 940.078,1403"
     id="polyline74"
     transform="matrix(1.5512204,0,0,1.6841635,-226.67533,-9.1443244)" />
  <polyline
     class="Stem"
     fill="none"
     stroke="#000000"
     stroke-width="2.48"
     stroke-linejoin="bevel"
     points="900.903,675.565 900.903,751.998"
     id="polyline76"
     transform="matrix(1.5512204,0,0,1.6841635,-226.67533,-9.1443244)" />
  <polyline
     class="Stem"
     fill="none"
     stroke="#000000"
     stroke-width="2.48"
     stroke-linejoin="bevel"
     points="2544.51,1369.96 2544.51,1440.2"
     id="polyline78"
     transform="matrix(1.5512204,0,0,1.6841635,-226.67533,-9.1443244)" />
  <polyline
     class="Stem"
     fill="none"
     stroke="#000000"
     stroke-width="2.48"
     stroke-linejoin="bevel"
     points="746.022,1320.36 746.022,1403"
     id="polyline80"
     transform="matrix(1.5512204,0,0,1.6841635,-226.67533,-9.1443244)" />
  <polyline
     class="Stem"
     fill="none"
     stroke="#000000"
     stroke-width="2.48"
     stroke-linejoin="bevel"
     points="1081.65,675.565 1081.65,751.998"
     id="polyline82"
     transform="matrix(1.5512204,0,0,1.6841635,-226.67533,-9.1443244)" />
  <polyline
     class="Stem"
     fill="none"
     stroke="#000000"
     stroke-width="2.48"
     stroke-linejoin="bevel"
     points="551.966,1307.96 551.966,1390.6"
     id="polyline84"
     transform="matrix(1.5512204,0,0,1.6841635,-226.67533,-9.1443244)" />
  <polyline
     class="Stem"
     fill="none"
     stroke="#000000"
     stroke-width="2.48"
     stroke-linejoin="bevel"
     points="2350.45,1369.96 2350.45,1440.2"
     id="polyline86"
     transform="matrix(1.5512204,0,0,1.6841635,-226.67533,-9.1443244)" />
  <path
     class="Note"
     d="m 2213.3788,2256.3411 c 0,7.1788 4.7607,15.1928 17.2394,15.1928 15.9892,0 32.7719,-14.2008 32.7719,-28.8977 0,-9.8675 -7.6941,-15.3755 -17.2395,-15.3755 -14.9313,0 -32.7718,13.7048 -32.7718,29.0804"
     id="path88"
     style="stroke-width:1.6034" />
  <path
     class="Note"
     d="m 3774.5269,1045.0873 c 0,7.1788 4.7607,15.1929 17.2395,15.1929 15.9892,0 32.7719,-14.2009 32.7719,-28.8978 0,-9.8675 -7.6941,-15.3755 -17.2395,-15.3755 -14.9313,0 -32.7719,13.7048 -32.7719,29.0804"
     id="path90"
     style="stroke-width:1.6034" />
  <path
     class="Note"
     d="m 928.64571,2214.5739 c 0,7.1787 4.7606,15.1928 17.2394,15.1928 15.9893,0 32.7719,-14.2009 32.7719,-28.8977 0,-9.8675 -7.6941,-15.3756 -17.2395,-15.3756 -14.9312,0 -32.7718,13.7049 -32.7718,29.0805"
     id="path92"
     style="stroke-width:1.6034" />
  <path
     class="Note"
     d="m 627.62204,2193.6902 c 0,7.1788 4.7607,15.1929 17.23946,15.1929 15.98931,0 32.77189,-14.2009 32.77189,-28.8978 0,-9.8675 -7.69405,-15.3755 -17.23946,-15.3755 -14.93122,0 -32.77189,13.7049 -32.77189,29.0804"
     id="path94"
     style="stroke-width:1.6034" />
  <path
     class="Note"
     d="m 1831.7165,2235.4575 c 0,7.1787 4.7607,15.1928 17.2395,15.1928 15.9892,0 32.7718,-14.2008 32.7718,-28.8977 0,-9.8675 -7.694,-15.3756 -17.2394,-15.3756 -14.9313,0 -32.7719,13.7049 -32.7719,29.0805"
     id="path96"
     style="stroke-width:1.6034" />
  <path
     class="Note"
     d="m 3494.1438,1045.0873 c 0,7.1788 4.7607,15.1929 17.2395,15.1929 15.9892,0 32.7719,-14.2009 32.7719,-28.8978 0,-9.8675 -7.6941,-15.3755 -17.2395,-15.3755 -14.9313,0 -32.7719,13.7048 -32.7719,29.0804"
     id="path98"
     style="stroke-width:1.6034" />
  <path
     class="Note"
     d="m 1229.6693,2214.5739 c 0,7.1787 4.7607,15.1928 17.2394,15.1928 15.9893,0 32.7719,-14.2009 32.7719,-28.8977 0,-9.8675 -7.694,-15.3756 -17.2394,-15.3756 -14.9313,0 -32.7719,13.7049 -32.7719,29.0805"
     id="path100"
     style="stroke-width:1.6034" />
  <path
     class="Note"
     d="m 326.59998,2193.6902 c 0,7.1788 4.76069,15.1929 17.23946,15.1929 15.98931,0 32.77188,-14.2009 32.77188,-28.8978 0,-9.8675 -7.69405,-15.3755 -17.23945,-15.3755 -14.93123,0 -32.77189,13.7049 -32.77189,29.0804"
     id="path102"
     style="stroke-width:1.6034" />
  <path
     class="Note"
     d="m 2514.3931,2256.3411 c 0,7.1788 4.7607,15.1928 17.2395,15.1928 15.9892,0 32.7718,-14.2008 32.7718,-28.8977 0,-9.8675 -7.694,-15.3755 -17.2395,-15.3755 -14.9313,0 -32.7718,13.7048 -32.7718,29.0804"
     id="path104"
     style="stroke-width:1.6034" />
  <path
     class="Note"
     d="m 1530.6867,2235.4575 c 0,7.1787 4.7607,15.1928 17.2395,15.1928 15.9892,0 32.7718,-14.2008 32.7718,-28.8977 0,-9.8675 -7.694,-15.3756 -17.2395,-15.3756 -14.9312,0 -32.7718,13.7049 -32.7718,29.0805"
     id="path106"
     style="stroke-width:1.6034" />
  <path
     class="Note"
     d="m 3213.7608,1065.9709 c 0,7.1788 4.7607,15.1929 17.2394,15.1929 15.9893,0 32.7719,-14.2009 32.7719,-28.8977 0,-9.8676 -7.694,-15.3756 -17.2395,-15.3756 -14.9313,0 -32.7718,13.7049 -32.7718,29.0804"
     id="path108"
     style="stroke-width:1.6034" />
  <path
     class="Note"
     d="m 3116.4372,2277.2247 c 0,7.1788 4.7607,15.1929 17.2395,15.1929 15.9892,0 32.7718,-14.2009 32.7718,-28.8977 0,-9.8676 -7.694,-15.3756 -17.2394,-15.3756 -14.9313,0 -32.7719,13.7049 -32.7719,29.0804"
     id="path110"
     style="stroke-width:1.6034" />
  <path
     class="Note"
     d="m 1168.9002,1128.6218 c 0,7.1788 4.7607,15.1929 17.2395,15.1929 15.9893,0 32.7719,-14.2009 32.7719,-28.8978 0,-9.8675 -7.6941,-15.3755 -17.2395,-15.3755 -14.9312,0 -32.7719,13.7048 -32.7719,29.0804"
     id="path112"
     style="stroke-width:1.6034" />
  <path
     class="Note"
     d="m 1449.2786,1128.6218 c 0,7.1788 4.7607,15.1929 17.2395,15.1929 15.9892,0 32.7719,-14.2009 32.7719,-28.8978 0,-9.8675 -7.6941,-15.3755 -17.2395,-15.3755 -14.9313,0 -32.7719,13.7048 -32.7719,29.0804"
     id="path114"
     style="stroke-width:1.6034" />
  <path
     class="Note"
     d="m 3417.467,2298.1084 c 0,7.1787 4.7607,15.1928 17.2395,15.1928 15.9892,0 32.7719,-14.2009 32.7719,-28.8977 0,-9.8675 -7.6941,-15.3756 -17.2395,-15.3756 -14.9313,0 -32.7719,13.7049 -32.7719,29.0805"
     id="path116"
     style="stroke-width:1.6034" />
  <path
     class="Note"
     d="m 1729.6617,1107.7382 c 0,7.1787 4.7607,15.1929 17.2395,15.1929 15.9892,0 32.7719,-14.2009 32.7719,-28.8978 0,-9.8675 -7.6941,-15.3755 -17.2395,-15.3755 -14.9313,0 -32.7719,13.7048 -32.7719,29.0804"
     id="path118"
     style="stroke-width:1.6034" />
  <path
     class="Note"
     d="m 3718.4968,2298.1084 c 0,7.1787 4.7607,15.1928 17.2395,15.1928 15.9892,0 32.7719,-14.2009 32.7719,-28.8977 0,-9.8675 -7.6941,-15.3756 -17.2395,-15.3756 -14.9313,0 -32.7719,13.7049 -32.7719,29.0805"
     id="path120"
     style="stroke-width:1.6034" />
  <path
     class="Note"
     d="m 2010.0448,1107.7382 c 0,7.1787 4.7607,15.1929 17.2395,15.1929 15.9892,0 32.7718,-14.2009 32.7718,-28.8978 0,-9.8675 -7.694,-15.3755 -17.2395,-15.3755 -14.9312,0 -32.7718,13.7048 -32.7718,29.0804"
     id="path122"
     style="stroke-width:1.6034" />
  <path
     class="Note"
     d="m 888.51869,1149.5055 c 0,7.1787 4.76072,15.1928 17.23942,15.1928 15.9894,0 32.7719,-14.2009 32.7719,-28.8977 0,-9.8675 -7.694,-15.3756 -17.2394,-15.3756 -14.9313,0 -32.77192,13.7049 -32.77192,29.0805"
     id="path124"
     style="stroke-width:1.6034" />
  <path
     class="Note"
     d="m 2372.6115,1086.8546 c 0,7.1787 4.7607,15.1928 17.2395,15.1928 15.9892,0 32.7719,-14.2009 32.7719,-28.8977 0,-9.8675 -7.6941,-15.3756 -17.2395,-15.3756 -14.9313,0 -32.7719,13.7049 -32.7719,29.0805"
     id="path126"
     style="stroke-width:1.6034" />
  <path
     class="Note"
     d="m 2652.9946,1086.8546 c 0,7.1787 4.7607,15.1928 17.2395,15.1928 15.9892,0 32.7718,-14.2009 32.7718,-28.8977 0,-9.8675 -7.694,-15.3756 -17.2394,-15.3756 -14.9313,0 -32.7719,13.7049 -32.7719,29.0805"
     id="path128"
     style="stroke-width:1.6034" />
  <path
     class="Note"
     d="m 608.13717,1149.5055 c 0,7.1787 4.76069,15.1928 17.23945,15.1928 15.98931,0 32.77189,-14.2009 32.77189,-28.8977 0,-9.8675 -7.69405,-15.3756 -17.23946,-15.3756 -14.93122,0 -32.77188,13.7049 -32.77188,29.0805"
     id="path130"
     style="stroke-width:1.6034" />
  <path
     class="Note"
     d="m 2815.4229,2277.2247 c 0,7.1788 4.7607,15.1929 17.2395,15.1929 15.9892,0 32.7718,-14.2009 32.7718,-28.8977 0,-9.8676 -7.694,-15.3756 -17.2395,-15.3756 -14.9312,0 -32.7718,13.7049 -32.7718,29.0804"
     id="path132"
     style="stroke-width:1.6034" />
  <path
     class="Note"
     d="m 2933.3777,1065.9709 c 0,7.1788 4.7607,15.1929 17.2395,15.1929 15.9892,0 32.7718,-14.2009 32.7718,-28.8977 0,-9.8676 -7.694,-15.3756 -17.2395,-15.3756 -14.9312,0 -32.7718,13.7049 -32.7718,29.0804"
     id="path134"
     style="stroke-width:1.6034" />
  <path
     class="Clef"
     d="m 389.40194,1304.0443 c 0,-6.1868 -5.21748,-8.8493 -10.29079,-8.8493 -6.46777,0 -12.79137,4.3332 -12.79137,11.8513 0,3.1849 1.08195,5.5342 3.24598,7.8575 -4.01538,1.6707 -8.00673,5.012 -8.00673,10.2069 0,5.5081 4.61643,9.1888 11.39687,9.1888 8.29512,0 14.13783,-5.0121 14.13783,-12.2169 0,-3.8374 -1.53881,-6.9961 -4.3039,-9.1888 4.47225,-2.1668 6.61211,-4.8293 6.61211,-8.8495 m -15.3881,26.731 c -3.36615,0 -5.67437,-2.3232 -5.67437,-5.8474 0,-3.3414 1.37047,-6.004 3.99123,-7.6747 0.6252,0.3394 0.76941,0.3394 1.22627,0.6526 1.85135,1.0181 1.85135,1.0181 2.16403,1.3575 2.90927,1.8274 4.15955,3.4981 4.15955,5.8474 0,3.1586 -2.47655,5.6646 -5.86671,5.6646 m 5.86671,-20.0483 c -2.30821,-1.3312 -2.93342,-1.6706 -3.39014,-2.01 l -0.31268,-0.1564 c -2.30822,-1.5142 -3.07762,-2.6888 -3.07762,-4.6728 0,-3.0281 2.16401,-5.1948 5.24163,-5.1948 2.90928,0 4.76063,2.01 4.76063,5.5081 0,2.6888 -0.9136,4.516 -3.22182,6.526 m 42.91836,-126.8159 c 0,-25.217 -16.47005,-42.2632 -38.92713,-42.2632 -1.53881,-10.0242 -2.9333,-19.8918 -4.30375,-29.2371 16.15751,-18.5604 27.53023,-39.6005 27.53023,-65.9923 0,-15.2189 -4.30389,-27.5663 -6.92464,-33.5959 -3.67868,-8.5105 -8.15092,-14.35788 -10.77168,-14.35788 -1.05793,0 -5.98689,2.00988 -10.916,8.51048 -10.00227,12.7123 -12.76721,33.9092 -12.76721,47.9533 0,9.0323 0.76941,17.203 3.39015,36.1027 -0.16834,0 -8.17493,8.8494 -11.39688,11.8515 -14.01749,14.0442 -33.39697,34.4057 -33.39697,67.6629 0,31.4039 25.07784,55.9682 53.71419,55.9682 4.44807,0 8.60764,-0.496 12.31048,-1.1747 2.76494,15.8976 4.61643,27.749 4.61643,36.5985 0,17.3857 -8.31927,26.5745 -23.85156,26.5745 -3.70284,0 -6.92465,-0.8353 -7.23733,-1.0181 -0.14426,0 -0.45672,-0.1567 -0.45672,-0.3133 0,-0.3393 0.31252,-0.5221 0.7694,-0.6788 7.23717,-1.1746 14.45035,-8.0139 14.45035,-18.5341 0,-9.0323 -6.29957,-18.5604 -17.84065,-18.5604 -10.77167,0 -17.552,9.5281 -17.552,20.5443 0,11.0423 7.69406,25.5825 28.468,25.5825 19.86021,0 29.54994,-12.2169 29.54994,-33.5966 0,-6.5 -0.91359,-14.0181 -2.4524,-23.5462 -0.45688,-3.3414 -1.22629,-8.5362 -2.30822,-14.8797 15.07543,-5.5081 26.30397,-22.3976 26.30397,-39.6006 m -47.39059,-136.9965 c 1.53881,-6.6828 8.46346,-24.225 16.47019,-24.225 2.30822,0 6.15524,8.0139 6.15524,19.7088 0,17.2029 -11.99796,30.2552 -22.62543,41.7672 -0.91361,-6.6827 -1.68301,-13.3655 -1.68301,-20.2048 0,-6.3434 0.60107,-11.8776 1.68301,-17.0462 m 4.61643,172.7597 c -22.00007,0 -40.77845,-16.7069 -40.77845,-41.9499 0,-20.3616 13.22419,-38.5825 26.78496,-51.4521 2.59674,-2.3494 5.07331,-4.6727 7.38152,-7.1787 1.37046,9.006 2.45241,16.7069 3.53435,23.729 -14.01749,4.3334 -23.53888,20.5443 -23.53888,36.0765 0,11.8775 8.46346,27.9057 20.77394,27.9057 1.22613,0 2.62074,-0.6786 2.62074,-2.3493 0,-1.3314 -1.39461,-2.3234 -3.39015,-3.6547 -6.01105,-3.8635 -9.40121,-8.3535 -9.40121,-16.3937 0,-10.1807 7.093,-18.3776 16.01318,-20.7009 l 8.92033,54.7935 c -3.07762,0.6788 -5.84271,1.1746 -8.92033,1.1746 m 15.38811,-3.1847 c -3.22182,-19.8655 -7.38137,-46.44 -8.46346,-53.8015 15.53243,0 22.16855,11.6949 23.53902,19.7351 0.16834,1.3313 0.45687,3.1586 0.45687,5.1687 0,12.0342 -4.61643,24.0685 -15.53243,28.8977"
     id="path136"
     style="stroke-width:1.6034" />
  <path
     class="Clef"
     d="m 197.05062,2452.6472 c 0,-6.1868 -5.21748,-8.8494 -10.2908,-8.8494 -6.46776,0 -12.79136,4.3333 -12.79136,11.8514 0,3.1848 1.08194,5.5342 3.24597,7.8575 -4.01538,1.6707 -8.00673,5.0121 -8.00673,10.2069 0,5.508 4.61643,9.1888 11.39688,9.1888 8.29512,0 14.13782,-5.0121 14.13782,-12.217 0,-3.8373 -1.53881,-6.996 -4.30389,-9.1888 4.47225,-2.1666 6.61211,-4.8293 6.61211,-8.8494 m -15.38811,26.7311 c -3.36615,0 -5.67436,-2.3234 -5.67436,-5.8475 0,-3.3413 1.37047,-6.004 3.99123,-7.6747 0.6252,0.3394 0.7694,0.3394 1.22627,0.6526 1.85135,1.0181 1.85135,1.0181 2.16403,1.3575 2.90926,1.8273 4.15955,3.498 4.15955,5.8474 0,3.1586 -2.47656,5.6647 -5.86672,5.6647 m 5.86672,-20.0483 c -2.30822,-1.3314 -2.93342,-1.6707 -3.39015,-2.0101 l -0.31268,-0.1566 c -2.30821,-1.5141 -3.07762,-2.6888 -3.07762,-4.6727 0,-3.0281 2.16402,-5.1948 5.24164,-5.1948 2.90928,0 4.76063,2.01 4.76063,5.508 0,2.6888 -0.91361,4.5161 -3.22182,6.5262 m 42.91836,-126.8159 c 0,-25.2169 -16.47005,-42.2632 -38.92713,-42.2632 -1.53881,-10.0241 -2.9333,-19.8917 -4.30376,-29.2371 16.15751,-18.5603 27.53024,-39.6006 27.53024,-65.9922 0,-15.219 -4.30389,-27.5664 -6.92465,-33.5959 -3.67867,-8.5106 -8.15092,-14.358 -10.77167,-14.358 -1.05793,0 -5.98689,2.0099 -10.916,8.5106 -10.00227,12.7122 -12.76721,33.9091 -12.76721,47.9533 0,9.0322 0.7694,17.2029 3.39014,36.1026 -0.16833,0 -8.17493,8.8494 -11.39687,11.8515 -14.0175,14.0442 -33.39697,34.4057 -33.39697,67.6629 0,31.4038 25.07783,55.9681 53.71418,55.9681 4.44808,0 8.60765,-0.4959 12.31049,-1.1747 2.76494,15.8977 4.61643,27.7492 4.61643,36.5986 0,17.3856 -8.31927,26.5744 -23.85156,26.5744 -3.70285,0 -6.92465,-0.8353 -7.23733,-1.0181 -0.14427,0 -0.45673,-0.1566 -0.45673,-0.3132 0,-0.3394 0.31253,-0.5221 0.76941,-0.6787 7.23717,-1.1747 14.45034,-8.0141 14.45034,-18.5343 0,-9.0321 -6.29956,-18.5603 -17.84064,-18.5603 -10.77168,0 -17.552,9.5282 -17.552,20.5443 0,11.0422 7.69405,25.5824 28.468,25.5824 19.86021,0 29.54994,-12.2169 29.54994,-33.5965 0,-6.5 -0.91359,-14.0181 -2.4524,-23.5463 -0.45688,-3.3414 -1.22629,-8.5362 -2.30822,-14.8796 15.07543,-5.508 26.30397,-22.3977 26.30397,-39.6006 M 183.057,2195.5175 c 1.53881,-6.6827 8.46346,-24.225 16.47019,-24.225 2.30821,0 6.15524,8.0141 6.15524,19.709 0,17.2028 -11.99796,30.2551 -22.62543,41.7672 -0.91361,-6.6827 -1.68301,-13.3655 -1.68301,-20.2049 0,-6.3434 0.60106,-11.8776 1.68301,-17.0463 m 4.61643,172.7599 c -22.00007,0 -40.77845,-16.7069 -40.77845,-41.95 0,-20.3616 13.22418,-38.5825 26.78495,-51.4521 2.59675,-2.3494 5.07332,-4.6727 7.38153,-7.1787 1.37046,9.006 2.4524,16.7069 3.53435,23.729 -14.0175,4.3334 -23.53889,20.5443 -23.53889,36.0765 0,11.8775 8.46346,27.9057 20.77395,27.9057 1.22613,0 2.62074,-0.6787 2.62074,-2.3494 0,-1.3313 -1.39461,-2.3233 -3.39015,-3.6546 -6.01106,-3.8635 -9.40122,-8.3535 -9.40122,-16.3937 0,-10.1807 7.09301,-18.3776 16.01319,-20.7009 l 8.92032,54.7934 c -3.07762,0.6788 -5.8427,1.1748 -8.92032,1.1748 m 15.38811,-3.1848 c -3.22183,-19.8656 -7.38138,-46.44 -8.46346,-53.8014 15.53243,0 22.16855,11.6948 23.53902,19.735 0.16834,1.3313 0.45687,3.1586 0.45687,5.1687 0,12.0342 -4.61643,24.0684 -15.53243,28.8977"
     id="path138"
     style="stroke-width:1.6034" />
  <path
     class="TimeSig"
     d="m 501.42326,1093.5373 c -9.40106,0 -12.76721,3.002 -14.93124,5.5081 -0.45687,-3.498 -0.76941,-6.1868 -0.76941,-8.8495 0,-2.6887 0.31254,-5.012 0.76941,-8.0141 0.91374,-6.1868 4.76077,-13.8876 13.07989,-13.8876 3.84702,0 6.15524,1.3574 7.69405,3.1848 -3.22181,1.514 -5.8427,6.004 -5.8427,9.8674 0,6.0042 4.30389,10.6769 9.85807,10.6769 5.53003,0 10.00226,-4.6727 10.00226,-10.6769 v -0.3393 c 0,0 0,0 0,-0.1828 0,-1.4879 -0.31252,-3.9939 -0.93774,-5.3253 -1.99568,-6.03 -8.46346,-14.8795 -23.85156,-14.8795 -13.8493,0 -23.85157,14.3574 -26.92919,22.0583 -1.53881,3.994 -3.84703,12.1909 -3.84703,21.5363 0,10.2069 2.62079,21.719 11.68535,30.4118 8.94441,7.3614 14.61878,7.7009 20.00461,7.7009 5.40984,0 25.55858,-6.8656 25.55858,-26.2352 0,-16.3675 -11.85362,-22.5543 -21.54335,-22.5543 m -5.69838,41.7672 c -5.0733,0 -9.23286,-7.5181 -9.23286,-16.8895 0,-9.3455 4.15956,-17.0202 9.23286,-17.0202 5.0733,0 9.4012,7.6747 9.4012,17.0202 0,9.3714 -4.3279,16.8895 -9.4012,16.8895"
     id="path140"
     style="stroke-width:1.6034" />
  <path
     class="TimeSig"
     d="m 491.1077,1205.4736 v 12.3475 h -12.76735 c -1.08194,0 -2.16387,1.018 -2.16387,2.3493 v 3.1849 c 0,1.3312 1.08193,2.3232 2.16387,2.3232 h 46.62119 c 1.25028,0 2.16389,-0.992 2.16389,-2.3232 v -3.1849 c 0,-1.3313 -0.91361,-2.3493 -2.16389,-2.3493 h -13.8493 v -12.3475 h 13.8493 c 1.25028,0 2.16389,-1.1747 2.16389,-2.5061 v -3.1847 c 0,-1.1747 -0.91361,-2.3233 -2.16389,-2.3233 h -13.8493 v -26.5744 c 0,-0.992 -0.45686,-1.8273 -1.05793,-2.1667 l -1.85134,-1.0181 c -0.31267,-0.1566 -0.45688,-0.1566 -0.7694,-0.1566 -0.16835,0 -0.16835,0 -0.31268,0 -0.45673,0 -1.08195,0.1566 -1.39449,0.496 l -13.99362,13.8615 c -0.45672,0.5221 -0.62508,1.1747 -0.62508,1.8534 v 13.7049 h -17.84061 c 0,0 17.23956,-20.0483 35.39261,-46.4662 0.6252,-0.8353 0.76941,-1.6706 0.76941,-2.3232 0,-0.8354 -0.31254,-1.514 -0.45673,-1.6707 l -3.3903,-3.6807 c -0.45673,-0.3393 -0.91361,-0.6788 -1.53881,-0.6788 -0.91361,0 -21.71155,0 -22.93783,0 -1.08193,0 -1.85134,1.0181 -1.99568,2.0102 0,0 -0.76941,12.3734 -4.7607,25.8956 -4.01533,13.5483 -8.63176,21.9017 -12.62305,28.0624 0,0 -0.45684,0.8353 -0.45684,1.8534 0,0.3394 0,0.6527 0.14427,0.992 0.45683,1.1747 1.53881,3.0021 1.53881,3.0021 0,0 0.31257,1.018 1.68307,1.018 h 26.47238"
     id="path142"
     style="stroke-width:1.6034" />
  <path
     class="Fingering"
     d="m 3746.6049,2136.8842 c -1.8614,0 -3.3351,1.6168 -3.3351,3.6547 0,1.9368 1.4737,3.6209 3.2886,3.6209 1.9235,0 3.3972,-1.6168 3.3972,-3.6209 0,-2.0379 -1.4737,-3.6547 -3.3507,-3.6547 m 1.1169,16.4375 -11.8978,1.0105 -0.2482,2.442 h 1.4891 c 2.544,0 3.5368,0.6063 3.5368,2.0715 0,0.6568 -0.1241,1.4316 -0.5584,2.981 l -3.6144,13.1365 c -1.1634,4.2777 -1.3495,5.2209 -1.3495,6.7871 0,2.3579 1.8614,4.1768 4.2193,4.1768 5.3207,0 8.9816,-5.9956 11.6031,-10.3745 l -1.939,-1.1452 c -3.2265,5.3051 -5.8171,8.1513 -7.4924,8.1513 -0.6205,0 -1.0703,-0.6063 -1.0703,-1.4147 0,-0.6568 0.2482,-1.9031 0.7601,-3.7725 l 6.5616,-24.0498"
     id="path144"
     style="stroke-width:1.61633" />
  <path
     class="Fingering"
     d="m 621.03711,1004.7255 -11.29443,0.9987 -0.1939,2.4471 h 1.50158 c 2.47264,0 3.46698,0.6063 3.46698,2.1321 0,0.6047 -0.19391,1.632 -0.50881,2.9204 l -6.32742,23.1572 h 5.406 l 2.544,-9.4987 c 2.78754,-10.3155 8.43554,-18.1047 13.0892,-18.1047 1.62413,0 2.61691,0.9212 2.61691,2.6054 0,1.3675 -0.5088,4.1834 -1.25959,6.7366 l -4.94529,18.2614 h 5.38118 l 2.66655,-9.7614 c 1.55122,-5.6066 3.10244,-9.369 5.08955,-12.2641 2.23066,-3.3683 5.406,-5.5779 7.7561,-5.5779 1.55122,0 2.42456,0.8673 2.42456,2.474 0,0.9465 -0.3149,2.4202 -0.87334,4.3148 l -2.86045,9.5796 c -1.67221,5.236 -1.7203,5.6571 -1.7203,7.5248 0,2.8429 1.91421,4.7106 4.82274,4.7106 2.06158,0 4.04869,-1.0778 6.1568,-3.21 1.30923,-1.3692 2.15774,-2.5785 4.70175,-6.6053 l -1.91421,-1.4214 c -3.22344,5.263 -5.52545,7.8162 -7.12631,7.8162 -0.67788,0 -1.30767,-0.7377 -1.30767,-1.6842 0,-0.6046 0.1939,-1.3423 0.75079,-3.3161 l 3.90287,-13.0523 c 0.43589,-1.4736 0.75079,-3.5788 0.75079,-5.0525 0,-3.5788 -2.42456,-6.1303 -5.76899,-6.1303 -4.41167,0 -8.3859,3.1039 -11.97387,9.4987 0.24354,-1.2884 0.36454,-2.4202 0.36454,-3.237 0,-3.5788 -2.61846,-6.2617 -6.01098,-6.2617 -3.92614,0 -6.76332,2.3679 -11.12536,9.1046 l 1.81803,-9.1046"
     id="path146"
     style="stroke-width:1.61633" />
  <path
     class="Fingering"
     d="m 3684.3079,2267.2385 c -8.6868,0 -15.0158,10.2397 -15.0158,24.4035 0,13.8607 6.1429,24.0162 14.5039,24.0162 8.7024,0 14.7832,-9.8187 14.7832,-23.8309 0,-7.1409 -1.3806,-13.0523 -3.9712,-17.7174 -2.4354,-4.2441 -6.4065,-6.8714 -10.3001,-6.8714 m -0.4498,2.8968 c 2.0476,0 4.0332,1.482 5.5378,4.1935 1.6598,3.1494 2.2183,6.9893 2.2183,16.2354 0,9.4986 -0.4344,13.9448 -1.6598,16.8921 -1.4427,3.3178 -3.6609,5.3051 -6.0188,5.3051 -2.1096,0 -4.0486,-1.4652 -5.5223,-4.1599 -1.7529,-3.183 -2.2338,-7.3261 -2.2338,-18.391 0,-7.8819 0.4344,-11.7892 1.6754,-14.7533 1.4271,-3.3683 3.6608,-5.3219 6.0032,-5.3219"
     id="path148"
     style="stroke-width:1.61633" />
  <path
     class="Fingering"
     d="m 1543.5928,2152.5133 -11.2929,0.9936 -0.2016,2.4589 h 1.5047 c 2.4664,0 3.4747,0.6063 3.4747,2.1221 0,0.6062 -0.2017,1.6336 -0.5119,2.9304 l -6.329,23.1572 h 5.3983 l 2.544,-9.4986 c 2.7922,-10.324 8.4386,-18.1048 13.0923,-18.1048 1.6288,0 2.6215,0.9095 2.6215,2.5936 0,1.381 -0.5119,4.1936 -1.2565,6.7367 l -4.9483,18.2731 h 5.3827 l 2.6681,-9.7681 c 1.5512,-5.6083 3.1024,-9.364 5.088,-12.2607 2.2337,-3.3683 5.3982,-5.5746 7.7561,-5.5746 1.5512,0 2.4199,0.8589 2.4199,2.4757 0,0.9432 -0.3102,2.4084 -0.8687,4.3115 l -2.8697,9.5829 c -1.6599,5.2377 -1.7219,5.6588 -1.7219,7.5113 0,2.8463 1.9235,4.7157 4.8243,4.7157 2.0631,0 4.0487,-1.0779 6.1583,-3.1999 1.3186,-1.381 2.1562,-2.5936 4.7002,-6.6188 l -1.908,-1.4147 c -3.2265,5.2546 -5.5223,7.8145 -7.1201,7.8145 -0.6825,0 -1.3185,-0.741 -1.3185,-1.6841 0,-0.6063 0.2017,-1.3473 0.7601,-3.3178 l 3.8936,-13.0523 c 0.4343,-1.4652 0.7601,-3.5704 0.7601,-5.0525 0,-3.5704 -2.4355,-6.1303 -5.7706,-6.1303 -4.421,0 -8.3921,3.0988 -11.9754,9.4987 0.2482,-1.28 0.3568,-2.4252 0.3568,-3.2336 0,-3.5873 -2.6061,-6.2651 -6.0032,-6.2651 -3.9246,0 -6.7634,2.3746 -11.1223,9.1113 l 1.8149,-9.1113"
     id="path150"
     style="stroke-width:1.61633" />
  <path
     class="Fingering"
     d="m 1797.5276,2204.5876 c -8.6868,0 -15.0003,10.2397 -15.0003,24.4035 0,13.8607 6.1273,24.0162 14.4884,24.0162 8.7023,0 14.7831,-9.8187 14.7831,-23.8309 0,-7.1409 -1.3806,-13.0523 -3.9711,-17.7174 -2.4199,-4.2441 -6.4065,-6.8714 -10.3001,-6.8714 m -0.4343,2.8968 c 2.0321,0 4.0176,1.482 5.5223,4.1935 1.6753,3.1494 2.2338,6.9893 2.2338,16.2354 0,9.4987 -0.4344,13.9448 -1.6754,16.8921 -1.4271,3.3178 -3.6608,5.3051 -6.0187,5.3051 -2.1096,0 -4.0487,-1.4652 -5.5223,-4.1598 -1.7374,-3.1831 -2.2338,-7.3261 -2.2338,-18.3911 0,-7.8819 0.4344,-11.7891 1.6753,-14.7533 1.4271,-3.3683 3.6609,-5.3219 6.0188,-5.3219"
     id="path152"
     style="stroke-width:1.61633" />
  <path
     class="Fingering"
     d="m 2542.5167,2136.8842 c -1.8615,0 -3.3351,1.6168 -3.3351,3.6547 0,1.9368 1.4736,3.6209 3.2886,3.6209 1.908,0 3.3971,-1.6168 3.3971,-3.6209 0,-2.0379 -1.4891,-3.6547 -3.3506,-3.6547 m 1.1169,16.4375 -11.8979,1.0105 -0.2482,2.442 h 1.4892 c 2.544,0 3.5368,0.6063 3.5368,2.0715 0,0.6568 -0.1241,1.4316 -0.5585,2.981 l -3.6143,13.1365 c -1.1634,4.2777 -1.3651,5.2209 -1.3651,6.7871 0,2.3579 1.877,4.1768 4.2193,4.1768 5.3362,0 8.9971,-5.9956 11.6187,-10.3745 l -1.9391,-1.1452 c -3.2265,5.3051 -5.817,8.1513 -7.4924,8.1513 -0.636,0 -1.0703,-0.6063 -1.0703,-1.4147 0,-0.6568 0.2482,-1.9031 0.7601,-3.7725 l 6.5617,-24.0498"
     id="path154"
     style="stroke-width:1.61633" />
  <path
     class="Fingering"
     d="m 3430.3732,2153.3217 -11.3084,1.0105 -0.1862,2.442 h 1.5047 c 2.4665,0 3.4592,0.6063 3.4592,2.122 0,0.6063 -0.1861,1.6337 -0.5119,2.9305 l -6.3134,23.1572 h 5.3982 l 2.544,-9.4986 c 2.7922,-10.324 8.4386,-18.1048 13.0923,-18.1048 1.6288,0 2.6216,0.9095 2.6216,2.5936 0,1.381 -0.5119,4.1936 -1.272,6.7367 l -4.9329,18.2731 h 5.3827 l 2.6526,-9.7681 c 1.5512,-5.6083 3.1025,-9.364 5.1035,-12.2607 2.2183,-3.3683 5.3983,-5.5746 7.7561,-5.5746 1.5512,0 2.4199,0.8589 2.4199,2.4757 0,0.9432 -0.3257,2.4084 -0.8687,4.3115 l -2.8697,9.5829 c -1.6753,5.2377 -1.7219,5.6588 -1.7219,7.5282 0,2.8294 1.9235,4.6988 4.8243,4.6988 2.0632,0 4.0487,-1.0779 6.1584,-3.1999 1.303,-1.381 2.1562,-2.5936 4.7002,-6.6188 l -1.908,-1.4147 c -3.2266,5.2715 -5.5379,7.8145 -7.1356,7.8145 -0.6671,0 -1.3031,-0.741 -1.3031,-1.6841 0,-0.6063 0.1862,-1.3473 0.7446,-3.3178 l 3.9091,-13.0523 c 0.4343,-1.4652 0.7446,-3.5704 0.7446,-5.0525 0,-3.5704 -2.4199,-6.1303 -5.755,-6.1303 -4.421,0 -8.3921,3.1157 -11.9755,9.4987 0.2327,-1.28 0.3568,-2.4252 0.3568,-3.2336 0,-3.5705 -2.6215,-6.2651 -6.0032,-6.2651 -3.9401,0 -6.7633,2.3746 -11.1378,9.1113 l 1.8305,-9.1113"
     id="path156"
     style="stroke-width:1.61633" />
  <path
     class="Fingering"
     d="m 1859.8401,2136.0758 c -1.877,0 -3.3506,1.6168 -3.3506,3.6547 0,1.9368 1.4736,3.6209 3.3041,3.6209 1.908,0 3.3816,-1.6336 3.3816,-3.6209 0,-2.0379 -1.4736,-3.6547 -3.3351,-3.6547 m 1.1169,16.4375 -11.9134,0.9936 -0.2327,2.4589 h 1.4737 c 2.544,0 3.5368,0.6063 3.5368,2.0715 0,0.6568 -0.1241,1.4316 -0.5584,2.981 l -3.6144,13.1196 c -1.1634,4.2946 -1.3496,5.2378 -1.3496,6.804 0,2.3579 1.8615,4.1768 4.2194,4.1768 5.3362,0 8.9815,-5.9956 11.6031,-10.3745 l -1.939,-1.1452 c -3.2266,5.3051 -5.8171,8.1513 -7.4924,8.1513 -0.6205,0 -1.0549,-0.6063 -1.0549,-1.4146 0,-0.6569 0.2327,-1.9032 0.7446,-3.7726 l 6.5772,-24.0498"
     id="path158"
     style="stroke-width:1.61633" />
  <path
     class="Fingering"
     d="m 3383.2781,2267.2385 c -8.6713,0 -15.0003,10.2397 -15.0003,24.4035 0,13.8607 6.1273,24.0162 14.4884,24.0162 8.7024,0 14.7831,-9.8187 14.7831,-23.8309 0,-7.1409 -1.3805,-13.0523 -3.9711,-17.7174 -2.4199,-4.2441 -6.391,-6.8714 -10.3001,-6.8714 m -0.4343,2.8968 c 2.0321,0 4.0176,1.482 5.5223,4.1935 1.6753,3.1494 2.2338,6.9893 2.2338,16.2354 0,9.4986 -0.4344,13.9448 -1.6753,16.8921 -1.4272,3.3178 -3.6609,5.3051 -6.0033,5.3051 -2.1096,0 -4.0486,-1.4652 -5.5378,-4.1599 -1.7374,-3.183 -2.2183,-7.3261 -2.2183,-18.391 0,-7.8819 0.4344,-11.7892 1.6598,-14.7533 1.4427,-3.3683 3.6609,-5.3219 6.0188,-5.3219"
     id="path160"
     style="stroke-width:1.61633" />
  <path
     class="Fingering"
     d="m 3144.5608,2136.8842 c -1.8614,0 -3.3351,1.6168 -3.3351,3.6547 0,1.9368 1.4737,3.6209 3.2886,3.6209 1.9235,0 3.3972,-1.6168 3.3972,-3.6209 0,-2.0379 -1.4737,-3.6547 -3.3507,-3.6547 m 1.1169,16.4375 -11.8979,1.0105 -0.2482,2.442 h 1.4892 c 2.544,0 3.5368,0.6063 3.5368,2.0715 0,0.6568 -0.1241,1.4316 -0.5584,2.981 l -3.6144,13.1365 c -1.1634,4.2777 -1.3495,5.2209 -1.3495,6.7871 0,2.3579 1.8614,4.1768 4.2038,4.1768 5.3362,0 8.997,-5.9956 11.6186,-10.3745 l -1.939,-1.1452 c -3.2266,5.3051 -5.8171,8.1513 -7.4924,8.1513 -0.636,0 -1.0704,-0.6063 -1.0704,-1.4147 0,-0.6568 0.2482,-1.9031 0.7601,-3.7725 l 6.5617,-24.0498"
     id="path162"
     style="stroke-width:1.61633" />
  <path
     class="Fingering"
     d="m 3086.1574,2247.1969 c -2.1097,2.7621 -7.8027,4.8504 -13.5267,4.9852 v 2.9136 h 5.4603 c 3.5989,0.05 3.9712,0.4547 3.8471,4.2441 v 26.9971 c 0,3.4357 0,3.5704 -0.3568,4.1767 -0.5119,0.6569 -1.6753,0.9432 -5.1656,0.9432 h -4.0332 v 3.1662 h 24.5869 v -3.1662 h -3.4127 c -3.4903,0 -4.6537,-0.2863 -5.1656,-0.9432 -0.4343,-0.6063 -0.4343,-0.6905 -0.4343,-4.1767 v -27.8224 c 0,-3.7557 0.1396,-6.9387 0.4343,-11.3176 h -2.2337"
     id="path164"
     style="stroke-width:1.61633" />
  <path
     class="Fingering"
     d="m 2184.5881,2248.1064 c 5.6464,-2.2063 8.237,-5.6588 8.237,-11.0481 0,-7.0567 -4.9639,-11.5871 -12.6425,-11.5871 -7.2752,0 -12.782,4.6652 -12.782,10.7955 0,2.762 1.6753,4.7157 4.0952,4.7157 2.1717,0 3.6609,-1.6337 3.6609,-4.0589 0,-1.482 -0.4964,-2.3409 -1.939,-3.4188 -0.605,-0.4716 -0.7912,-0.7747 -0.7912,-1.2126 0,-1.9031 3.5834,-3.9241 7.1201,-3.9241 4.4831,0 6.8409,3.0315 6.8409,8.7576 0,6.2651 -2.3578,9.5661 -6.7633,9.5661 -0.5584,0 -1.6288,-0.067 -2.544,-0.1347 -0.5119,-0.051 -0.9928,-0.051 -1.3651,-0.051 -1.303,0 -1.9855,0.6063 -1.9855,1.8021 0,1.1452 0.6049,1.6842 1.9855,1.6842 0.3723,0 0.8532,0 1.4116,-0.067 1.2565,-0.051 2.2493,-0.051 2.9318,-0.051 4.5761,0 7.0736,3.5535 7.0736,10.2228 0,7.0062 -3.1024,10.8966 -8.7023,10.8966 -3.8936,0 -8.1129,-2.2905 -8.1129,-4.362 0,-0.6063 0.1241,-0.741 1.303,-1.4821 1.7219,-1.1452 2.4044,-2.2736 2.4044,-3.9578 0,-2.4588 -1.6753,-4.2777 -3.9091,-4.2777 -2.6526,0 -4.3744,2.3746 -4.3744,5.9619 0,6.5177 5.4913,11.0144 13.4491,11.0144 8.9815,0 14.8296,-5.3724 14.8296,-13.6585 0,-6.3325 -2.9783,-10.1724 -9.4314,-12.126"
     id="path166"
     style="stroke-width:1.61633" />
  <path
     class="Fingering"
     d="m 2828.3135,2153.3217 -11.2929,1.0105 -0.1861,2.442 h 1.5047 c 2.4664,0 3.4592,0.6063 3.4592,2.122 0,0.6063 -0.1861,1.6337 -0.5119,2.9305 l -6.3135,23.1572 h 5.3983 l 2.544,-9.4986 c 2.7922,-10.324 8.4386,-18.1048 13.0923,-18.1048 1.6132,0 2.6215,0.9095 2.6215,2.5936 0,1.381 -0.5119,4.1936 -1.272,6.7367 l -4.9328,18.2731 h 5.3672 l 2.6681,-9.7681 c 1.5512,-5.6083 3.1024,-9.364 5.088,-12.2607 2.2337,-3.3683 5.4137,-5.5746 7.7561,-5.5746 1.5512,0 2.4354,0.8589 2.4354,2.4757 0,0.9432 -0.3258,2.4084 -0.8842,4.3115 l -2.8542,9.5829 c -1.6754,5.2377 -1.7219,5.6588 -1.7219,7.5282 0,2.8294 1.9235,4.6988 4.8243,4.6988 2.0631,0 4.0487,-1.0779 6.1583,-3.1999 1.3031,-1.381 2.1562,-2.5936 4.7002,-6.6188 l -1.908,-1.4147 c -3.2265,5.2715 -5.5378,7.8145 -7.1356,7.8145 -0.6825,0 -1.303,-0.741 -1.303,-1.6841 0,-0.6063 0.1862,-1.3473 0.7446,-3.3178 l 3.9091,-13.0523 c 0.4343,-1.4652 0.7446,-3.5704 0.7446,-5.0525 0,-3.5704 -2.42,-6.1303 -5.7706,-6.1303 -4.4055,0 -8.3766,3.1157 -11.9599,9.4987 0.2327,-1.28 0.3568,-2.4252 0.3568,-3.2336 0,-3.5705 -2.6216,-6.2651 -6.0188,-6.2651 -3.9245,0 -6.7478,2.3746 -11.1222,9.1113 l 1.8149,-9.1113"
     id="path168"
     style="stroke-width:1.61633" />
  <path
     class="Fingering"
     d="m 2226.2694,2153.3217 -11.2929,1.0105 -0.1861,2.442 h 1.5046 c 2.4665,0 3.4593,0.6063 3.4593,2.122 0,0.6063 -0.1862,1.6337 -0.5119,2.9305 l -6.329,23.1572 h 5.4137 l 2.544,-9.4986 c 2.7922,-10.324 8.4387,-18.1048 13.0923,-18.1048 1.6133,0 2.6061,0.9095 2.6061,2.5936 0,1.381 -0.4964,4.1936 -1.2565,6.7367 l -4.9484,18.2731 h 5.3828 l 2.6681,-9.7681 c 1.5512,-5.6083 3.1024,-9.364 5.088,-12.2607 2.2337,-3.3683 5.4137,-5.5746 7.7561,-5.5746 1.5512,0 2.4354,0.8589 2.4354,2.4757 0,0.9432 -0.3258,2.4084 -0.8842,4.3115 l -2.8543,9.5829 c -1.6753,5.2377 -1.7218,5.6588 -1.7218,7.5282 0,2.8294 1.908,4.6988 4.8243,4.6988 2.0631,0 4.0487,-1.0779 6.1583,-3.1999 1.303,-1.381 2.1562,-2.5936 4.7002,-6.6188 l -1.9235,-1.4147 c -3.211,5.2715 -5.5223,7.8145 -7.1201,7.8145 -0.6825,0 -1.303,-0.741 -1.303,-1.6841 0,-0.6063 0.1861,-1.3473 0.7446,-3.3178 l 3.909,-13.0523 c 0.4344,-1.4652 0.7446,-3.5704 0.7446,-5.0525 0,-3.5704 -2.4199,-6.1303 -5.7705,-6.1303 -4.4055,0 -8.3766,3.1157 -11.9754,9.4987 0.2482,-1.28 0.3723,-2.4252 0.3723,-3.2336 0,-3.5705 -2.6216,-6.2651 -6.0188,-6.2651 -3.9246,0 -6.7633,2.3746 -11.1222,9.1113 l 1.8149,-9.1113"
     id="path170"
     style="stroke-width:1.61633" />
  <path
     class="Fingering"
     d="m 2785.1276,2247.1969 c -2.1097,2.7621 -7.8027,4.8504 -13.5112,4.9852 v 2.9136 h 5.4448 c 3.6143,0.05 3.9711,0.4547 3.8625,4.2441 v 26.9971 c 0,3.4357 0,3.5704 -0.3722,4.1767 -0.512,0.6569 -1.6754,0.9432 -5.1656,0.9432 h -4.0177 v 3.1662 h 24.5714 v -3.1662 h -3.4127 c -3.4903,0 -4.6537,-0.2863 -5.1656,-0.9432 -0.4343,-0.6063 -0.4343,-0.6905 -0.4343,-4.1767 v -27.8224 c 0,-3.7557 0.1396,-6.9387 0.4343,-11.3176 h -2.2337"
     id="path172"
     style="stroke-width:1.61633" />
  <path
     class="Fingering"
     d="m 2485.6179,2248.1064 c 5.6465,-2.2063 8.237,-5.6588 8.237,-11.0481 0,-7.0567 -4.9639,-11.5871 -12.658,-11.5871 -7.2597,0 -12.7665,4.6652 -12.7665,10.7955 0,2.762 1.6753,4.7157 4.0952,4.7157 2.1562,0 3.6609,-1.6337 3.6609,-4.0589 0,-1.482 -0.5119,-2.3409 -1.939,-3.4188 -0.605,-0.4716 -0.8067,-0.7747 -0.8067,-1.2126 0,-1.9031 3.5989,-3.9241 7.1357,-3.9241 4.483,0 6.8253,3.0315 6.8253,8.7576 0,6.2651 -2.3423,9.5661 -6.7633,9.5661 -0.5429,0 -1.6133,-0.067 -2.544,-0.1347 -0.4964,-0.051 -0.9928,-0.051 -1.3496,-0.051 -1.303,0 -1.9855,0.6063 -1.9855,1.8021 0,1.1452 0.605,1.6842 1.9855,1.6842 0.3568,0 0.8532,0 1.4117,-0.067 1.2564,-0.051 2.2492,-0.051 2.9318,-0.051 4.5761,0 7.0735,3.5535 7.0735,10.2228 0,7.0062 -3.1024,10.8966 -8.7023,10.8966 -3.9091,0 -8.1284,-2.2905 -8.1284,-4.362 0,-0.6063 0.1241,-0.741 1.3185,-1.4821 1.7219,-1.1452 2.4044,-2.2736 2.4044,-3.9578 0,-2.4588 -1.6753,-4.2777 -3.9091,-4.2777 -2.6681,0 -4.3899,2.3746 -4.3899,5.9619 0,6.5177 5.5068,11.0144 13.4491,11.0144 8.997,0 14.8451,-5.3724 14.8451,-13.6585 0,-6.3325 -2.9938,-10.1724 -9.4314,-12.126"
     id="path174"
     style="stroke-width:1.61633" />
  <path
     class="Fingering"
     d="m 1257.7882,2115.1922 c -1.8661,0 -3.3444,1.6168 -3.3444,3.6546 0,1.9368 1.4783,3.621 3.2964,3.621 1.9157,0 3.394,-1.6336 3.394,-3.621 0,-2.0378 -1.4783,-3.6546 -3.346,-3.6546 m 1.1154,16.4374 -11.901,0.9937 -0.242,2.4589 h 1.4783 c 2.5456,0 3.5384,0.6063 3.5384,2.0715 0,0.6568 -0.121,1.4315 -0.5569,2.981 l -3.6113,13.1196 c -1.1634,4.2946 -1.3573,5.2378 -1.3573,6.804 0,2.3579 1.8661,4.1767 4.2178,4.1767 5.3315,0 8.9924,-5.9956 11.6093,-10.3744 l -1.939,-1.1452 c -3.2234,5.3051 -5.8171,8.1513 -7.4893,8.1513 -0.6298,0 -1.0672,-0.6063 -1.0672,-1.4147 0,-0.6568 0.2435,-1.9031 0.7523,-3.7725 l 6.5679,-24.0499"
     id="path176"
     style="stroke-width:1.61633" />
  <path
     class="Fingering"
     d="m 573.94827,1118.6423 c -8.67753,0 -15.0034,10.2364 -15.0034,24.3951 0,13.8674 6.13197,24.0246 14.4946,24.0246 8.70079,0 14.78468,-9.8153 14.78468,-23.841 0,-7.1308 -1.38214,-13.0523 -3.97578,-17.7107 -2.423,-4.2356 -6.39878,-6.868 -10.3001,-6.868 m -0.43589,2.8951 c 2.0352,0 4.02231,1.4736 5.52544,4.1834 1.67222,3.1579 2.23066,7.0011 2.23066,16.2371 0,9.5004 -0.43745,13.9466 -1.67377,16.8938 -1.42867,3.3162 -3.65933,5.3153 -6.01098,5.3153 -2.10811,0 -4.04713,-1.4737 -5.52544,-4.1566 -1.74513,-3.1847 -2.23066,-7.3429 -2.23066,-18.3944 0,-7.8954 0.43744,-11.7892 1.67377,-14.7634 1.42867,-3.3683 3.65933,-5.3152 6.01098,-5.3152"
     id="path178"
     style="stroke-width:1.61633" />
  <path
     class="Fingering"
     d="m 916.63921,988.27795 c -1.8661,0 -3.3444,1.63196 -3.3444,3.65801 0,1.94689 1.4783,3.63105 3.2963,3.63105 1.9142,0 3.3941,-1.63195 3.3941,-3.63105 0,-2.02605 -1.4799,-3.65801 -3.346,-3.65801 m 1.1153,16.44755 -11.9009,0.9987 -0.242,2.4471 h 1.4783 c 2.5455,0 3.5383,0.6063 3.5383,2.0799 0,0.6569 -0.121,1.4215 -0.5569,2.9726 l -3.6112,13.1314 c -1.1634,4.2896 -1.3573,5.2377 -1.3573,6.7905 0,2.368 1.8661,4.1835 4.2177,4.1835 5.3316,0 8.9909,-6.0007 11.6094,-10.3677 l -1.939,-1.1587 c -3.2235,5.3152 -5.8171,8.1581 -7.4893,8.1581 -0.6298,0 -1.0673,-0.6046 -1.0673,-1.4215 0,-0.6568 0.2436,-1.8946 0.7524,-3.7624 l 6.5678,-24.0515"
     id="path180"
     style="stroke-width:1.61633" />
  <path
     class="Fingering"
     d="m 854.3298,1118.6423 c -8.67753,0 -15.00341,10.2364 -15.00341,24.3951 0,13.8674 6.13198,24.0246 14.49461,24.0246 8.70079,0 14.78468,-9.8153 14.78468,-23.841 0,-7.1308 -1.38214,-13.0523 -3.97578,-17.7107 -2.42301,-4.2356 -6.39878,-6.868 -10.3001,-6.868 m -0.4359,2.8951 c 2.0352,0 4.02232,1.4736 5.52545,4.1834 1.67222,3.1579 2.23066,7.0011 2.23066,16.2371 0,9.5004 -0.43745,13.9466 -1.67377,16.8938 -1.42868,3.3162 -3.65933,5.3153 -6.01098,5.3153 -2.10811,0 -4.04713,-1.4737 -5.52545,-4.1566 -1.74512,-3.1847 -2.23065,-7.3429 -2.23065,-18.3944 0,-7.8954 0.43744,-11.7892 1.67376,-14.7634 1.42868,-3.3683 3.65933,-5.3152 6.01098,-5.3152"
     id="path182"
     style="stroke-width:1.61633" />
  <path
     class="Fingering"
     d="m 1181.8002,1004.7255 -11.2945,0.9987 -0.1939,2.4471 h 1.5016 c 2.4726,0 3.467,0.6063 3.467,2.1321 0,0.6047 -0.1939,1.632 -0.5088,2.9204 l -6.3274,23.1572 h 5.406 l 2.544,-9.4987 c 2.7875,-10.3155 8.4355,-18.1047 13.0892,-18.1047 1.6241,0 2.6169,0.9212 2.6169,2.6054 0,1.3675 -0.5088,4.1834 -1.2596,6.7366 l -4.9453,18.2614 h 5.3812 l 2.6665,-9.7614 c 1.5512,-5.6066 3.1025,-9.369 5.0896,-12.2641 2.2306,-3.3683 5.406,-5.5779 7.7561,-5.5779 1.5512,0 2.4245,0.8673 2.4245,2.474 0,0.9465 -0.3149,2.4202 -0.8733,4.3148 l -2.8605,9.5796 c -1.6722,5.236 -1.7203,5.6571 -1.7203,7.5248 0,2.8429 1.9142,4.7106 4.8228,4.7106 2.0615,0 4.0487,-1.0778 6.1568,-3.21 1.3092,-1.3692 2.1577,-2.5785 4.7017,-6.6053 l -1.9142,-1.4214 c -3.2234,5.263 -5.5254,7.8162 -7.1263,7.8162 -0.6779,0 -1.3077,-0.7377 -1.3077,-1.6842 0,-0.6046 0.1939,-1.3423 0.7508,-3.3161 l 3.9029,-13.0523 c 0.4359,-1.4736 0.7508,-3.5788 0.7508,-5.0525 0,-3.5788 -2.4246,-6.1303 -5.769,-6.1303 -4.4117,0 -8.3859,3.1039 -11.9739,9.4987 0.2436,-1.2884 0.3646,-2.4202 0.3646,-3.237 0,-3.5788 -2.6185,-6.2617 -6.011,-6.2617 -3.9262,0 -6.7633,2.3679 -11.1254,9.1046 l 1.8181,-9.1046"
     id="path184"
     style="stroke-width:1.61633" />
  <path
     class="Fingering"
     d="m 1138.6126,1098.6008 c -2.1081,2.7637 -7.8042,4.8419 -13.5235,4.9733 v 2.922 h 5.4525 c 3.6113,0.052 3.9758,0.4463 3.8548,4.2357 v 27.0005 c 0,3.4458 0,3.5789 -0.3645,4.1835 -0.5088,0.6585 -1.6722,0.9465 -5.1625,0.9465 h -4.0238 v 3.1578 h 24.5775 v -3.1578 h -3.4174 c -3.4902,0 -4.6536,-0.288 -5.1624,-0.9465 -0.4359,-0.6046 -0.4359,-0.6838 -0.4359,-4.1835 v -27.8156 c 0,-3.7625 0.1443,-6.9472 0.4359,-11.3159 h -2.2307"
     id="path186"
     style="stroke-width:1.61633" />
  <path
     class="Fingering"
     d="m 1477.4023,988.27795 c -1.8615,0 -3.3507,1.63196 -3.3507,3.65801 0,1.94689 1.4892,3.63105 3.3041,3.63105 1.908,0 3.3972,-1.63195 3.3972,-3.63105 0,-2.02605 -1.4892,-3.65801 -3.3506,-3.65801 m 1.1168,16.44755 -11.8978,0.9987 -0.2482,2.4471 h 1.4736 c 2.544,0 3.5523,0.6063 3.5523,2.0799 0,0.6569 -0.1241,1.4215 -0.5584,2.9726 l -3.6143,13.1314 c -1.1635,4.2896 -1.3651,5.2377 -1.3651,6.7905 0,2.368 1.877,4.1835 4.2193,4.1835 5.3362,0 8.9971,-6.0007 11.6186,-10.3677 l -1.939,-1.1587 c -3.2265,5.3152 -5.8171,8.1581 -7.4924,8.1581 -0.636,0 -1.0703,-0.6046 -1.0703,-1.4215 0,-0.6568 0.2482,-1.8946 0.7446,-3.7624 l 6.5771,-24.0515"
     id="path188"
     style="stroke-width:1.61633" />
  <path
     class="Fingering"
     d="m 1418.9988,1098.6008 c -2.1096,2.7637 -7.8026,4.8419 -13.5266,4.9733 v 2.922 h 5.4448 c 3.6143,0.052 3.9866,0.4463 3.8625,4.2357 v 27.0005 c 0,3.4458 0,3.5789 -0.3723,4.1835 -0.4964,0.6585 -1.6598,0.9465 -5.1501,0.9465 h -4.0331 v 3.1578 h 24.5868 v -3.1578 h -3.4282 c -3.4902,0 -4.6536,-0.288 -5.1655,-0.9465 -0.4344,-0.6046 -0.4344,-0.6838 -0.4344,-4.1835 v -27.8156 c 0,-3.7625 0.1551,-6.9472 0.4344,-11.3159 h -2.2183"
     id="path190"
     style="stroke-width:1.61633" />
  <path
     class="Fingering"
     d="m 1742.5679,1004.7255 -11.2929,0.9987 -0.2017,2.4471 h 1.5047 c 2.4664,0 3.4592,0.6063 3.4592,2.1321 0,0.6047 -0.1861,1.632 -0.4964,2.9204 l -6.3289,23.1572 h 5.3982 l 2.544,-9.4987 c 2.7922,-10.3155 8.4386,-18.1047 13.0923,-18.1047 1.6288,0 2.6216,0.9212 2.6216,2.6054 0,1.3675 -0.5119,4.1834 -1.272,6.7366 l -4.9329,18.2614 h 5.3827 l 2.6526,-9.7614 c 1.5512,-5.6066 3.1025,-9.369 5.1035,-12.2641 2.2183,-3.3683 5.3983,-5.5779 7.7561,-5.5779 1.5512,0 2.4199,0.8673 2.4199,2.474 0,0.9465 -0.3102,2.4202 -0.8687,4.3148 l -2.8697,9.5796 c -1.6753,5.236 -1.7219,5.6571 -1.7219,7.5248 0,2.8429 1.9235,4.7106 4.8243,4.7106 2.0632,0 4.0487,-1.0778 6.1584,-3.21 1.303,-1.3692 2.1562,-2.5785 4.7002,-6.6053 l -1.908,-1.4214 c -3.2266,5.263 -5.5224,7.8162 -7.1356,7.8162 -0.6671,0 -1.3031,-0.7377 -1.3031,-1.6842 0,-0.6046 0.2017,-1.3423 0.7446,-3.3161 l 3.9091,-13.0523 c 0.4343,-1.4736 0.7446,-3.5788 0.7446,-5.0525 0,-3.5788 -2.4199,-6.1303 -5.755,-6.1303 -4.421,0 -8.3922,3.1039 -11.9755,9.4987 0.2327,-1.2884 0.3568,-2.4202 0.3568,-3.237 0,-3.5788 -2.6216,-6.2617 -6.0032,-6.2617 -3.9246,0 -6.7633,2.3679 -11.1378,9.1046 l 1.8305,-9.1046"
     id="path192"
     style="stroke-width:1.61633" />
  <path
     class="Fingering"
     d="m 1700.8866,1099.5068 c 5.6464,-2.2113 8.237,-5.6587 8.237,-11.0531 0,-7.0516 -4.9795,-11.5786 -12.658,-11.5786 -7.2752,0 -12.7665,4.6584 -12.7665,10.7887 0,2.7637 1.6753,4.7106 4.0952,4.7106 2.1562,0 3.6609,-1.6303 3.6609,-4.0521 0,-1.4736 -0.5119,-2.3427 -1.9391,-3.4205 -0.6049,-0.4733 -0.8066,-0.7629 -0.8066,-1.2109 0,-1.8947 3.5833,-3.9208 7.1356,-3.9208 4.483,0 6.8254,3.0265 6.8254,8.7627 0,6.2634 -2.3424,9.5526 -6.7633,9.5526 -0.5585,0 -1.6133,-0.052 -2.544,-0.1314 -0.5119,-0.052 -0.9928,-0.052 -1.3496,-0.052 -1.3185,0 -1.9856,0.6047 -1.9856,1.8156 0,1.1317 0.605,1.6841 1.9856,1.6841 0.3568,0 0.8377,0 1.3961,-0.079 1.272,-0.052 2.2648,-0.052 2.9318,-0.052 4.5916,0 7.0891,3.5519 7.0891,10.2364 0,6.9994 -3.1025,10.8931 -8.7024,10.8931 -3.909,0 -8.1284,-2.2887 -8.1284,-4.367 0,-0.6063 0.1241,-0.7377 1.3186,-1.4736 1.7218,-1.1587 2.3889,-2.2905 2.3889,-3.9747 0,-2.447 -1.6754,-4.2626 -3.8936,-4.2626 -2.6681,0 -4.39,2.368 -4.39,5.9468 0,6.5261 5.5069,11.0262 13.4491,11.0262 8.9971,0 14.8297,-5.3674 14.8297,-13.6569 0,-6.3425 -2.9784,-10.1841 -9.4159,-12.131"
     id="path194"
     style="stroke-width:1.61633" />
  <path
     class="Fingering"
     d="m 2038.1684,988.27795 c -1.8614,0 -3.3506,1.63196 -3.3506,3.65801 0,1.94689 1.4892,3.63105 3.3041,3.63105 1.908,0 3.3816,-1.63195 3.3816,-3.63105 0,-2.02605 -1.4736,-3.65801 -3.3351,-3.65801 m 1.1169,16.44755 -11.8979,0.9987 -0.2482,2.4471 h 1.4737 c 2.544,0 3.5368,0.6063 3.5368,2.0799 0,0.6569 -0.1086,1.4215 -0.5585,2.9726 l -3.5988,13.1314 c -1.1634,4.2896 -1.3651,5.2377 -1.3651,6.7905 0,2.368 1.8615,4.1835 4.2194,4.1835 5.3362,0 8.997,-6.0007 11.6031,-10.3677 l -1.939,-1.1587 c -3.2111,5.3152 -5.8171,8.1581 -7.4769,8.1581 -0.636,0 -1.0704,-0.6046 -1.0704,-1.4215 0,-0.6568 0.2327,-1.8946 0.7446,-3.7624 l 6.5772,-24.0515"
     id="path196"
     style="stroke-width:1.61633" />
  <path
     class="Fingering"
     d="m 1981.2541,1099.5068 c 5.6465,-2.2113 8.2525,-5.6587 8.2525,-11.0531 0,-7.0516 -4.9794,-11.5786 -12.6579,-11.5786 -7.2752,0 -12.7666,4.6584 -12.7666,10.7887 0,2.7637 1.6598,4.7106 4.0953,4.7106 2.1562,0 3.6608,-1.6303 3.6608,-4.0521 0,-1.4736 -0.5119,-2.3427 -1.939,-3.4205 -0.605,-0.4733 -0.8066,-0.7629 -0.8066,-1.2109 0,-1.8947 3.5833,-3.9208 7.1201,-3.9208 4.483,0 6.8409,3.0265 6.8409,8.7627 0,6.2634 -2.3579,9.5526 -6.7634,9.5526 -0.5584,0 -1.6287,-0.052 -2.544,-0.1314 -0.5119,-0.052 -0.9927,-0.052 -1.3495,-0.052 -1.3186,0 -2.0011,0.6047 -2.0011,1.8156 0,1.1317 0.605,1.6841 2.0011,1.6841 0.3568,0 0.8376,0 1.3961,-0.079 1.2565,-0.052 2.2492,-0.052 2.9318,-0.052 4.5916,0 7.0735,3.5519 7.0735,10.2364 0,6.9994 -3.1024,10.8931 -8.6868,10.8931 -3.9091,0 -8.1284,-2.2887 -8.1284,-4.367 0,-0.6063 0.1241,-0.7377 1.303,-1.4736 1.7219,-1.1587 2.4044,-2.2905 2.4044,-3.9747 0,-2.447 -1.6753,-4.2626 -3.8935,-4.2626 -2.6681,0 -4.39,2.368 -4.39,5.9468 0,6.5261 5.4913,11.0262 13.4491,11.0262 8.9971,0 14.8297,-5.3674 14.8297,-13.6569 0,-6.3425 -2.9784,-10.1841 -9.4315,-12.131"
     id="path198"
     style="stroke-width:1.61633" />
  <path
     class="Fingering"
     d="m 2385.5177,1003.9154 -11.2929,1.0004 -0.2017,2.4471 h 1.5047 c 2.482,0 3.4748,0.6046 3.4748,2.1321 0,0.6047 -0.2017,1.6303 -0.512,2.9204 l -6.3289,23.1572 h 5.3982 l 2.544,-9.5003 c 2.7922,-10.3155 8.4387,-18.1048 13.0923,-18.1048 1.6288,0 2.6216,0.9212 2.6216,2.6054 0,1.3692 -0.5119,4.1852 -1.2565,6.7367 l -4.9484,18.263 h 5.3827 l 2.6681,-9.7631 c 1.5513,-5.6049 3.1025,-9.3673 5.088,-12.2624 2.2338,-3.3683 5.3983,-5.5796 7.7561,-5.5796 1.5513,0 2.4199,0.869 2.4199,2.474 0,0.9482 -0.3102,2.4219 -0.8686,4.3166 l -2.8698,9.5778 c -1.6598,5.2361 -1.7063,5.6571 -1.7063,7.5265 0,2.8412 1.908,4.7106 4.8087,4.7106 2.0632,0 4.0487,-1.0795 6.1584,-3.2117 1.3185,-1.3675 2.1562,-2.5784 4.7002,-6.6036 l -1.908,-1.4214 c -3.2266,5.263 -5.5224,7.8145 -7.1201,7.8145 -0.6826,0 -1.3186,-0.736 -1.3186,-1.6842 0,-0.6046 0.2017,-1.3406 0.7601,-3.3144 l 3.8936,-13.0523 c 0.4343,-1.4736 0.7601,-3.5788 0.7601,-5.0525 0,-3.5788 -2.4354,-6.132 -5.7705,-6.132 -4.421,0 -8.3921,3.1056 -11.9755,9.5004 0.2482,-1.2901 0.3568,-2.4219 0.3568,-3.237 0,-3.5788 -2.606,-6.2634 -6.0032,-6.2634 -3.9246,0 -6.7633,2.3679 -11.1223,9.1046 l 1.815,-9.1046"
     id="path200"
     style="stroke-width:1.61633" />
  <path
     class="Fingering"
     d="m 2338.4226,1055.9914 c -8.6713,0 -15.0003,10.2364 -15.0003,24.3951 0,13.8674 6.1273,24.0246 14.4884,24.0246 8.7024,0 14.7987,-9.8153 14.7987,-23.841 0,-7.1307 -1.3806,-13.0523 -3.9867,-17.7107 -2.4199,-4.2356 -6.391,-6.868 -10.3001,-6.868 m -0.4343,2.8951 c 2.0321,0 4.0332,1.4736 5.5223,4.1835 1.6753,3.1578 2.2338,7.001 2.2338,16.237 0,9.5004 -0.4344,13.9465 -1.6753,16.8938 -1.4272,3.3161 -3.6609,5.3153 -6.0033,5.3153 -2.1096,0 -4.0486,-1.4737 -5.5223,-4.1566 -1.7529,-3.1847 -2.2338,-7.3429 -2.2338,-18.3944 0,-7.8954 0.4344,-11.7891 1.6754,-14.7634 1.4271,-3.3683 3.6608,-5.3152 6.0032,-5.3152"
     id="path202"
     style="stroke-width:1.61633" />
  <path
     class="Fingering"
     d="m 2681.1182,987.46787 c -1.8614,0 -3.3506,1.63195 -3.3506,3.658 0,1.94858 1.4892,3.63274 3.3041,3.63274 1.908,0 3.3972,-1.63195 3.3972,-3.63274 0,-2.02605 -1.4892,-3.658 -3.3507,-3.658 m 1.1169,16.44753 -11.8979,1.0004 -0.2481,2.4471 h 1.4736 c 2.544,0 3.5523,0.6046 3.5523,2.0782 0,0.6586 -0.1241,1.4215 -0.5584,2.9743 l -3.6144,13.1314 c -1.1634,4.2896 -1.3651,5.2361 -1.3651,6.7889 0,2.3679 1.877,4.1834 4.2194,4.1834 5.3362,0 8.997,-5.999 11.6186,-10.3677 l -1.939,-1.157 c -3.2266,5.3152 -5.8171,8.1564 -7.4924,8.1564 -0.636,0 -1.0704,-0.6046 -1.0704,-1.4197 0,-0.6586 0.2482,-1.8947 0.7446,-3.7642 l 6.5772,-24.0515"
     id="path204"
     style="stroke-width:1.61633" />
  <path
     class="Fingering"
     d="m 2618.8057,1055.9914 c -8.6713,0 -15.0003,10.2364 -15.0003,24.3951 0,13.8674 6.1273,24.0246 14.4884,24.0246 8.7023,0 14.7986,-9.8153 14.7986,-23.841 0,-7.1307 -1.3961,-13.0523 -3.9866,-17.7107 -2.4199,-4.2356 -6.391,-6.868 -10.3001,-6.868 m -0.4343,2.8951 c 2.0321,0 4.0176,1.4736 5.5223,4.1835 1.6753,3.1578 2.2338,7.001 2.2338,16.237 0,9.5004 -0.4344,13.9465 -1.6754,16.8938 -1.4271,3.3161 -3.6608,5.3153 -6.0032,5.3153 -2.1096,0 -4.0487,-1.4737 -5.5223,-4.1566 -1.7529,-3.1847 -2.2338,-7.3429 -2.2338,-18.3944 0,-7.8954 0.4344,-11.7891 1.6753,-14.7634 1.4272,-3.3683 3.6609,-5.3152 6.0033,-5.3152"
     id="path206"
     style="stroke-width:1.61633" />
  <path
     class="Fingering"
     d="m 2903.0979,1035.9499 c -2.1097,2.7637 -7.8027,4.842 -13.5267,4.9733 v 2.922 h 5.4448 c 3.6143,0.052 3.9866,0.4463 3.8625,4.2357 v 27.0005 c 0,3.4458 0,3.5789 -0.3723,4.1835 -0.4963,0.6585 -1.6598,0.9465 -5.15,0.9465 h -4.0332 v 3.1578 h 24.5869 v -3.1578 h -3.4282 c -3.4903,0 -4.6537,-0.288 -5.1656,-0.9465 -0.4343,-0.6046 -0.4343,-0.6838 -0.4343,-4.1835 v -27.8156 c 0,-3.7624 0.1551,-6.9472 0.4343,-11.3159 h -2.2182"
     id="path208"
     style="stroke-width:1.61633" />
  <path
     class="Fingering"
     d="m 1496.4978,2204.5876 c -8.6713,0 -15.0003,10.2397 -15.0003,24.4035 0,13.8607 6.1273,24.0162 14.4884,24.0162 8.7023,0 14.7986,-9.8187 14.7986,-23.8309 0,-7.1409 -1.3806,-13.0523 -3.9866,-17.7174 -2.4199,-4.2441 -6.391,-6.8714 -10.3001,-6.8714 m -0.4344,2.8968 c 2.0321,0 4.0332,1.482 5.5224,4.1935 1.6753,3.1494 2.2337,6.9893 2.2337,16.2354 0,9.4987 -0.4343,13.9448 -1.6753,16.8921 -1.4271,3.3178 -3.6609,5.3051 -6.0032,5.3051 -2.1097,0 -4.0487,-1.4652 -5.5223,-4.1598 -1.7529,-3.1831 -2.2338,-7.3261 -2.2338,-18.3911 0,-7.8819 0.4343,-11.7891 1.6753,-14.7533 1.4271,-3.3683 3.6609,-5.3219 6.0032,-5.3219"
     id="path210"
     style="stroke-width:1.61633" />
  <path
     class="Fingering"
     d="m 1199.3817,2184.5461 c -2.1097,2.762 -7.8058,4.8504 -13.5251,4.9851 v 2.9136 h 5.4525 c 3.6128,0.05 3.9758,0.4547 3.8548,4.2441 v 26.9971 c 0,3.4357 0,3.5704 -0.3645,4.1767 -0.5088,0.6569 -1.6722,0.9432 -5.1625,0.9432 h -4.0223 v 3.1662 h 24.576 v -3.1662 h -3.4173 c -3.4903,0 -4.6537,-0.2863 -5.1625,-0.9432 -0.4359,-0.6063 -0.4359,-0.6905 -0.4359,-4.1767 v -27.8224 c 0,-3.7556 0.1458,-6.9387 0.4359,-11.3175 h -2.2291"
     id="path212"
     style="stroke-width:1.61633" />
  <path
     class="Fingering"
     d="m 941.54401,2131.6296 -11.2944,0.9937 -0.1939,2.4589 h 1.5031 c 2.4727,0 3.4655,0.6063 3.4655,2.122 0,0.6063 -0.1939,1.6337 -0.5088,2.9305 l -6.3259,23.1572 h 5.4044 l 2.5456,-9.4987 c 2.7875,-10.3239 8.4355,-18.1047 13.0892,-18.1047 1.6226,0 2.6169,0.9094 2.6169,2.5936 0,1.381 -0.5088,4.1936 -1.2596,6.7366 l -4.9453,18.2732 h 5.3812 l 2.6666,-9.7681 c 1.5512,-5.6083 3.1024,-9.364 5.0895,-12.2607 2.2291,-3.3684 5.4045,-5.5746 7.7561,-5.5746 1.5512,0 2.423,0.8589 2.423,2.4757 0,0.9431 -0.3149,2.4084 -0.8718,4.3115 l -2.8604,9.5828 c -1.6722,5.2378 -1.7203,5.6588 -1.7203,7.5114 0,2.8463 1.9142,4.7157 4.8227,4.7157 2.06,0 4.0472,-1.0779 6.1568,-3.1999 1.3092,-1.3811 2.1562,-2.5936 4.7018,-6.6188 l -1.9142,-1.4147 c -3.2235,5.2546 -5.527,7.8145 -7.1264,7.8145 -0.6794,0 -1.3092,-0.741 -1.3092,-1.6841 0,-0.6063 0.1939,-1.3474 0.7524,-3.3178 l 3.9013,-13.0523 c 0.4359,-1.4652 0.7523,-3.5704 0.7523,-5.0525 0,-3.5704 -2.4245,-6.1304 -5.769,-6.1304 -4.4116,0 -8.3859,3.0989 -11.9738,9.4987 0.242,-1.2799 0.3629,-2.4252 0.3629,-3.2336 0,-3.5872 -2.6169,-6.2651 -6.0109,-6.2651 -3.9262,0 -6.7618,2.3747 -11.1238,9.1114 l 1.8164,-9.1114"
     id="path214"
     style="stroke-width:1.61633" />
  <path
     class="Fingering"
     d="m 898.35811,2184.5461 c -2.1081,2.762 -7.8042,4.8504 -13.52512,4.9851 v 2.9136 h 5.45409 c 3.61123,0.05 3.97423,0.4547 3.85323,4.2441 v 26.9971 c 0,3.4357 0,3.5704 -0.363,4.1767 -0.5088,0.6569 -1.6722,0.9432 -5.16244,0.9432 H 884.591 v 3.1662 h 24.57751 v -3.1662 h -3.4173 c -3.4903,0 -4.6537,-0.2863 -5.1625,-0.9432 -0.4374,-0.6063 -0.4374,-0.6905 -0.4374,-4.1767 v -27.8224 c 0,-3.7556 0.1458,-6.9387 0.4374,-11.3175 h -2.2306"
     id="path216"
     style="stroke-width:1.61633" />
  <path
     class="Fingering"
     d="m 655.74257,2094.3086 c -1.86612,0 -3.34443,1.6168 -3.34443,3.6546 0,1.9368 1.47831,3.621 3.29634,3.621 1.91421,0 3.39407,-1.6337 3.39407,-3.621 0,-2.0378 -1.47986,-3.6546 -3.34598,-3.6546 m 1.11532,16.4374 -11.90096,0.9937 -0.24199,2.4588 h 1.47831 c 2.54556,0 3.53834,0.6063 3.53834,2.0716 0,0.6568 -0.121,1.4315 -0.55689,2.9809 l -3.61124,13.1197 c -1.16342,4.2946 -1.35732,5.2377 -1.35732,6.804 0,2.3578 1.86612,4.1767 4.21777,4.1767 5.33154,0 8.99087,-5.9956 11.60933,-10.3744 l -1.93902,-1.1453 c -3.22344,5.3052 -5.81708,8.1514 -7.48929,8.1514 -0.6298,0 -1.06724,-0.6063 -1.06724,-1.4147 0,-0.6568 0.24354,-1.9031 0.75234,-3.7725 l 6.56786,-24.0499"
     id="path218"
     style="stroke-width:1.61633" />
  <path
     class="Fingering"
     d="m 598.8376,2185.4555 c 5.64799,-2.2062 8.24163,-5.6588 8.24163,-11.0481 0,-7.0566 -4.96856,-11.587 -12.6533,-11.587 -7.27057,0 -12.77275,4.6651 -12.77275,10.7954 0,2.7621 1.67222,4.7157 4.09677,4.7157 2.1562,0 3.65933,-1.6336 3.65933,-4.0588 0,-1.4821 -0.5088,-2.341 -1.93902,-3.4189 -0.60653,-0.4716 -0.80043,-0.7747 -0.80043,-1.2126 0,-1.9031 3.58797,-3.9241 7.1263,-3.9241 4.48458,0 6.83468,3.0315 6.83468,8.7577 0,6.2651 -2.3501,9.566 -6.76177,9.566 -0.55689,0 -1.62413,-0.067 -2.54555,-0.1347 -0.5088,-0.05 -0.99278,-0.05 -1.35732,-0.05 -1.30768,0 -1.98711,0.6063 -1.98711,1.802 0,1.1452 0.60652,1.6842 1.98711,1.6842 0.36454,0 0.84852,0 1.40696,-0.067 1.25959,-0.05 2.25392,-0.05 2.9318,-0.05 4.58076,0 7.07822,3.5536 7.07822,10.2229 0,7.0061 -3.10244,10.8965 -8.70234,10.8965 -3.90132,0 -8.11909,-2.2905 -8.11909,-4.362 0,-0.6063 0.12099,-0.741 1.30923,-1.4821 1.7203,-1.1452 2.39974,-2.2736 2.39974,-3.9577 0,-2.4589 -1.67222,-4.2778 -3.90287,-4.2778 -2.66655,0 -4.38685,2.3747 -4.38685,5.9619 0,6.5177 5.50217,11.0145 13.45218,11.0145 8.99242,0 14.83277,-5.3725 14.83277,-13.6586 0,-6.3325 -2.98145,-10.1724 -9.42832,-12.126"
     id="path220"
     style="stroke-width:1.61633" />
  <path
     class="Fingering"
     d="m 339.49838,2110.746 -11.29444,0.9937 -0.1939,2.4588 h 1.50313 c 2.47265,0 3.46543,0.6063 3.46543,2.1221 0,0.6063 -0.1939,1.6336 -0.5088,2.9304 l -6.32588,23.1573 h 5.40445 l 2.54556,-9.4987 c 2.78754,-10.3239 8.43398,-18.1048 13.08764,-18.1048 1.62413,0 2.61846,0.9095 2.61846,2.5937 0,1.381 -0.5088,4.1935 -1.26114,6.7366 l -4.94374,18.2732 h 5.38118 l 2.665,-9.7682 c 1.55122,-5.6082 3.10244,-9.3639 5.0911,-12.2607 2.22911,-3.3683 5.40446,-5.5746 7.75611,-5.5746 1.55122,0 2.423,0.859 2.423,2.4758 0,0.9431 -0.31489,2.4083 -0.87178,4.3114 l -2.86045,9.5829 c -1.67222,5.2378 -1.72031,5.6588 -1.72031,7.5114 0,2.8462 1.91421,4.7156 4.82275,4.7156 2.06002,0 4.04713,-1.0778 6.15679,-3.1999 1.30768,-1.381 2.1562,-2.5936 4.70175,-6.6187 l -1.91421,-1.4147 c -3.22498,5.2546 -5.52699,7.8145 -7.1263,7.8145 -0.67944,0 -1.30923,-0.741 -1.30923,-1.6842 0,-0.6063 0.1939,-1.3473 0.75079,-3.3178 l 3.90287,-13.0522 c 0.43589,-1.4653 0.75079,-3.5705 0.75079,-5.0525 0,-3.5705 -2.42301,-6.1304 -5.76744,-6.1304 -4.41167,0 -8.38745,3.0989 -11.97387,9.4987 0.24199,-1.28 0.36299,-2.4252 0.36299,-3.2336 0,-3.5873 -2.61691,-6.2651 -6.01098,-6.2651 -3.92614,0 -6.76177,2.3747 -11.12535,9.1113 l 1.81803,-9.1113"
     id="path222"
     style="stroke-width:1.61633" />
  <path
     class="Fingering"
     d="m 297.81553,2185.4555 c 5.64645,-2.2062 8.24009,-5.6588 8.24009,-11.0481 0,-7.0566 -4.96856,-11.587 -12.65176,-11.587 -7.27212,0 -12.77274,4.6651 -12.77274,10.7954 0,2.7621 1.67221,4.7157 4.09522,4.7157 2.15774,0 3.66088,-1.6336 3.66088,-4.0588 0,-1.4821 -0.51035,-2.341 -1.93903,-3.4189 -0.60653,-0.4716 -0.80043,-0.7747 -0.80043,-1.2126 0,-1.9031 3.58642,-3.9241 7.12631,-3.9241 4.48303,0 6.83468,3.0315 6.83468,8.7577 0,6.2651 -2.35165,9.566 -6.76177,9.566 -0.55844,0 -1.62413,-0.067 -2.54556,-0.1347 -0.5088,-0.05 -0.99433,-0.05 -1.35731,-0.05 -1.30923,0 -1.98712,0.6063 -1.98712,1.802 0,1.1452 0.60498,1.6842 1.98712,1.6842 0.36298,0 0.84851,0 1.4054,-0.067 1.26114,-0.05 2.25392,-0.05 2.93336,-0.05 4.58075,0 7.07667,3.5536 7.07667,10.2229 0,7.0061 -3.10244,10.8965 -8.7008,10.8965 -3.90287,0 -8.11909,-2.2905 -8.11909,-4.362 0,-0.6063 0.121,-0.741 1.30768,-1.4821 1.72186,-1.1452 2.39974,-2.2736 2.39974,-3.9577 0,-2.4589 -1.67222,-4.2778 -3.90132,-4.2778 -2.66655,0 -4.3884,2.3747 -4.3884,5.9619 0,6.5177 5.50218,11.0145 13.45218,11.0145 8.99243,0 14.83432,-5.3725 14.83432,-13.6586 0,-6.3325 -2.98144,-10.1724 -9.42832,-12.126"
     id="path224"
     style="stroke-width:1.61633" />
  <path
     class="Fingering"
     d="m 3745.7363,1036.856 c 5.6464,-2.2113 8.2369,-5.6588 8.2369,-11.0532 0,-7.0516 -4.9639,-11.5786 -12.6424,-11.5786 -7.2752,0 -12.7821,4.6584 -12.7821,10.7887 0,2.7637 1.6754,4.7106 4.0953,4.7106 2.1717,0 3.6608,-1.6302 3.6608,-4.0521 0,-1.4736 -0.4963,-2.3426 -1.939,-3.4205 -0.605,-0.4733 -0.7911,-0.7629 -0.7911,-1.2109 0,-1.8947 3.5833,-3.9208 7.1201,-3.9208 4.483,0 6.8409,3.0265 6.8409,8.7628 0,6.2634 -2.3579,9.5525 -6.7633,9.5525 -0.5585,0 -1.6288,-0.052 -2.544,-0.1313 -0.5119,-0.052 -0.9928,-0.052 -1.3651,-0.052 -1.303,0 -1.9856,0.6046 -1.9856,1.8155 0,1.1317 0.605,1.6842 1.9856,1.6842 0.3723,0 0.8532,0 1.4116,-0.079 1.2565,-0.052 2.2493,-0.052 2.9318,-0.052 4.5761,0 7.0736,3.5519 7.0736,10.2363 0,6.9994 -3.1025,10.8932 -8.7024,10.8932 -3.8935,0 -8.1129,-2.2888 -8.1129,-4.3671 0,-0.6063 0.1241,-0.7376 1.3031,-1.4736 1.7218,-1.1587 2.4044,-2.2905 2.4044,-3.9746 0,-2.4471 -1.6754,-4.2626 -3.9091,-4.2626 -2.6526,0 -4.3745,2.3679 -4.3745,5.9467 0,6.5262 5.4914,11.0263 13.4491,11.0263 8.9816,0 14.8297,-5.3675 14.8297,-13.6569 0,-6.3426 -2.9784,-10.1842 -9.4314,-12.1311"
     id="path226"
     style="stroke-width:1.61633" />
  <path
     class="Fingering"
     d="m 3802.6505,945.70061 c -1.8769,0 -3.3506,1.63196 -3.3506,3.65801 0,1.94858 1.4737,3.63274 3.3041,3.63274 1.908,0 3.3817,-1.63196 3.3817,-3.63274 0,-2.02605 -1.4737,-3.65801 -3.3352,-3.65801 m 1.1169,16.44755 -11.9134,1.00039 -0.2326,2.44709 h 1.4736 c 2.544,0 3.5368,0.60461 3.5368,2.07826 0,0.6585 -0.1241,1.42143 -0.5584,2.97423 l -3.6144,13.13142 c -1.1634,4.28957 -1.3495,5.23607 -1.3495,6.78887 0,2.36793 1.8614,4.18346 4.2193,4.18346 5.3362,0 8.9815,-5.99899 11.6031,-10.36771 l -1.939,-1.15702 c -3.2266,5.31522 -5.8171,8.1564 -7.4924,8.1564 -0.6205,0 -1.0548,-0.60461 -1.0548,-1.41975 0,-0.65851 0.2326,-1.89468 0.7445,-3.7641 l 6.5772,-24.05154"
     id="path228"
     style="stroke-width:1.61633" />
  <path
     class="Fingering"
     d="m 3469.2002,1036.856 c 5.6465,-2.2113 8.2525,-5.6588 8.2525,-11.0532 0,-7.0516 -4.9794,-11.5786 -12.658,-11.5786 -7.2752,0 -12.7665,4.6584 -12.7665,10.7887 0,2.7637 1.6598,4.7106 4.0952,4.7106 2.1562,0 3.6609,-1.6302 3.6609,-4.0521 0,-1.4736 -0.5119,-2.3426 -1.939,-3.4205 -0.6205,-0.4733 -0.8067,-0.7629 -0.8067,-1.2109 0,-1.8947 3.5834,-3.9208 7.1201,-3.9208 4.4831,0 6.8409,3.0265 6.8409,8.7628 0,6.2634 -2.3578,9.5525 -6.7633,9.5525 -0.5584,0 -1.6288,-0.052 -2.544,-0.1313 -0.5119,-0.052 -0.9928,-0.052 -1.3651,-0.052 -1.303,0 -1.9855,0.6046 -1.9855,1.8155 0,1.1317 0.6049,1.6842 1.9855,1.6842 0.3723,0 0.8532,0 1.4116,-0.079 1.2565,-0.052 2.2493,-0.052 2.9319,-0.052 4.5761,0 7.0735,3.5519 7.0735,10.2363 0,6.9994 -3.1024,10.8932 -8.7023,10.8932 -3.8936,0 -8.1129,-2.2888 -8.1129,-4.3671 0,-0.6063 0.1241,-0.7376 1.303,-1.4736 1.7219,-1.1587 2.4044,-2.2905 2.4044,-3.9746 0,-2.4471 -1.6753,-4.2626 -3.8936,-4.2626 -2.6681,0 -4.3899,2.3679 -4.3899,5.9467 0,6.5262 5.4913,11.0263 13.4491,11.0263 8.997,0 14.8296,-5.3675 14.8296,-13.6569 0,-6.3426 -2.9783,-10.1842 -9.4314,-12.1311"
     id="path230"
     style="stroke-width:1.61633" />
  <path
     class="Fingering"
     d="m 3507.0345,962.14816 -11.2929,1.00039 -0.1862,2.44709 h 1.5047 c 2.4665,0 3.4593,0.60461 3.4593,2.13215 0,0.60461 -0.1862,1.63027 -0.5119,2.92034 l -6.3135,23.15725 h 5.3982 l 2.544,-9.50037 c 2.7922,-10.3155 8.4387,-18.10476 13.0923,-18.10476 1.6133,0 2.6216,0.92124 2.6216,2.6054 0,1.36923 -0.5119,4.18515 -1.272,6.73666 l -4.9329,18.26307 h 5.3672 l 2.6681,-9.7631 c 1.5513,-5.60489 3.1025,-9.36732 5.088,-12.26239 2.2338,-3.36833 5.4138,-5.57964 7.7561,-5.57964 1.5513,0 2.4355,0.86903 2.4355,2.47404 0,0.94818 -0.3258,2.42183 -0.8842,4.31651 l -2.8543,9.57784 c -1.6753,5.23606 -1.7218,5.6571 -1.7218,7.52653 0,2.84118 1.9235,4.7106 4.8243,4.7106 2.0631,0 4.0486,-1.07955 6.1583,-3.2117 1.303,-1.36754 2.1562,-2.57845 4.7002,-6.6036 l -1.908,-1.42144 c -3.2265,5.26301 -5.5379,7.81452 -7.1356,7.81452 -0.6826,0 -1.303,-0.73598 -1.303,-1.68416 0,-0.60462 0.1861,-1.3406 0.7445,-3.31444 l 3.9091,-13.05226 c 0.4344,-1.47365 0.7446,-3.57885 0.7446,-5.05249 0,-3.57885 -2.4199,-6.13204 -5.7705,-6.13204 -4.4055,0 -8.3766,3.10559 -11.9599,9.50036 0.2326,-1.29007 0.3567,-2.42182 0.3567,-3.23696 0,-3.57885 -2.6215,-6.2634 -6.0187,-6.2634 -3.9246,0 -6.7478,2.36793 -11.1222,9.10458 l 1.8149,-9.10458"
     id="path232"
     style="stroke-width:1.61633" />
  <path
     class="Fingering"
     d="m 3183.4809,1035.9499 c -2.1096,2.7637 -7.8181,4.842 -13.5266,4.9733 v 2.922 h 5.4448 c 3.6143,0.052 3.9711,0.4463 3.8625,4.2357 v 27.0005 c 0,3.4458 0,3.5789 -0.3723,4.1835 -0.5119,0.6585 -1.6753,0.9465 -5.1655,0.9465 h -4.0177 v 3.1578 h 24.5713 v -3.1578 h -3.4127 c -3.4902,0 -4.6536,-0.288 -5.1655,-0.9465 -0.4344,-0.6046 -0.4344,-0.6838 -0.4344,-4.1835 v -27.8156 c 0,-3.7624 0.1552,-6.9472 0.4344,-11.3159 h -2.2183"
     id="path234"
     style="stroke-width:1.61633" />
  <path
     class="Fingering"
     d="m 3241.8844,966.58424 c -1.8615,0 -3.3507,1.63196 -3.3507,3.65801 0,1.94857 1.4892,3.63274 3.3041,3.63274 1.908,0 3.3817,-1.63196 3.3817,-3.63274 0,-2.02605 -1.4737,-3.65801 -3.3351,-3.65801 m 1.1169,16.44754 -11.8979,1.0004 -0.2482,2.44709 h 1.4737 c 2.544,0 3.5367,0.60461 3.5367,2.07825 0,0.65851 -0.1085,1.42144 -0.5584,2.97424 l -3.5988,13.13144 c -1.1634,4.2895 -1.3651,5.236 -1.3651,6.7888 0,2.368 1.8615,4.1835 4.2193,4.1835 5.3362,0 8.9971,-5.999 11.6032,-10.3677 l -1.9391,-1.157 c -3.211,5.3152 -5.817,8.1564 -7.4769,8.1564 -0.636,0 -1.0703,-0.6046 -1.0703,-1.4198 0,-0.6585 0.2327,-1.8947 0.7446,-3.7641 l 6.5772,-24.05152"
     id="path236"
     style="stroke-width:1.61633" />
  <path
     class="Fingering"
     d="m 2946.2838,983.03178 -11.2929,1.0004 -0.2016,2.44709 h 1.5047 c 2.4664,0 3.4592,0.60461 3.4592,2.13215 0,0.60461 -0.1862,1.63027 -0.4964,2.92034 l -6.329,23.15724 h 5.3983 l 2.544,-9.5004 c 2.7922,-10.31546 8.4386,-18.10472 13.0923,-18.10472 1.6288,0 2.6215,0.92124 2.6215,2.6054 0,1.36923 -0.5119,4.18515 -1.2565,6.73666 l -4.9483,18.26306 h 5.3827 l 2.6681,-9.7631 c 1.5512,-5.60489 3.1024,-9.36731 5.088,-12.26239 2.2182,-3.36832 5.3982,-5.57963 7.7561,-5.57963 1.5512,0 2.4199,0.86903 2.4199,2.47404 0,0.94818 -0.3102,2.42182 -0.8687,4.31651 l -2.8697,9.57787 c -1.6754,5.236 -1.7219,5.6571 -1.7219,7.5265 0,2.8412 1.9235,4.7106 4.8243,4.7106 2.0631,0 4.0487,-1.0796 6.1583,-3.2117 1.3186,-1.3675 2.1562,-2.5785 4.7002,-6.6036 l -1.908,-1.4214 c -3.2265,5.263 -5.5223,7.8145 -7.1356,7.8145 -0.667,0 -1.303,-0.736 -1.303,-1.6842 0,-0.6046 0.2017,-1.3406 0.7601,-3.3144 l 3.8936,-13.05229 c 0.4343,-1.47364 0.7601,-3.57884 0.7601,-5.05249 0,-3.57884 -2.4355,-6.13204 -5.7706,-6.13204 -4.421,0 -8.3921,3.1056 -11.9754,9.50037 0.2327,-1.29007 0.3568,-2.42183 0.3568,-3.23696 0,-3.57885 -2.6216,-6.26341 -6.0032,-6.26341 -3.9246,0 -6.7634,2.36794 -11.1223,9.10459 l 1.8149,-9.10459"
     id="path238"
     style="stroke-width:1.61633" />
  <metadata
     id="metadata923">
    <rdf:RDF>
      <cc:Work
         rdf:about="">
        <dc:title>ex_corde_si_mi</dc:title>
      </cc:Work>
    </rdf:RDF>
  </metadata>
</svg>
