<?xml version="1.0" encoding="UTF-8" standalone="no"?>
<svg
   width="297mm"
   height="210mm"
   viewBox="0 0 4209.4489 2976.378"
   version="1.2"
   id="svg194"
   sodipodi:docname="ex_corde_si_mi_2.svg"
   inkscape:version="1.2.2 (b0a8486541, 2022-12-01)"
   xmlns:inkscape="http://www.inkscape.org/namespaces/inkscape"
   xmlns:sodipodi="http://sodipodi.sourceforge.net/DTD/sodipodi-0.dtd"
   xmlns="http://www.w3.org/2000/svg"
   xmlns:svg="http://www.w3.org/2000/svg"
   xmlns:rdf="http://www.w3.org/1999/02/22-rdf-syntax-ns#"
   xmlns:cc="http://creativecommons.org/ns#"
   xmlns:dc="http://purl.org/dc/elements/1.1/">
  <defs
     id="defs198" />
  <sodipodi:namedview
     id="namedview196"
     pagecolor="#ffffff"
     bordercolor="#000000"
     borderopacity="0.25"
     inkscape:showpageshadow="2"
     inkscape:pageopacity="0.0"
     inkscape:pagecheckerboard="0"
     inkscape:deskcolor="#d1d1d1"
     inkscape:document-units="mm"
     showgrid="false"
     inkscape:zoom="0.42949815"
     inkscape:cx="494.76348"
     inkscape:cy="315.48448"
     inkscape:window-width="1280"
     inkscape:window-height="651"
     inkscape:window-x="0"
     inkscape:window-y="32"
     inkscape:window-maximized="1"
     inkscape:current-layer="svg194" />
  <title
     id="title2">exo_corde_mi_si_2</title>
  <desc
     id="desc4">Generated by MuseScore Studio 4.5.2</desc>
  <polyline
     class="StaffLines"
     fill="none"
     stroke="#000000"
     stroke-width="2.73"
     stroke-linejoin="bevel"
     points="336.598,634.198 2764.6,634.198"
     id="polyline6"
     transform="matrix(1.5455547,0,0,1.9765636,-213.64327,-148.54509)" />
  <polyline
     class="StaffLines"
     fill="none"
     stroke="#000000"
     stroke-width="2.73"
     stroke-linejoin="bevel"
     points="336.598,658.998 2764.6,658.998"
     id="polyline8"
     transform="matrix(1.5455547,0,0,1.9765636,-213.64327,-148.54509)" />
  <polyline
     class="StaffLines"
     fill="none"
     stroke="#000000"
     stroke-width="2.73"
     stroke-linejoin="bevel"
     points="336.598,683.798 2764.6,683.798"
     id="polyline10"
     transform="matrix(1.5455547,0,0,1.9765636,-213.64327,-148.54509)" />
  <polyline
     class="StaffLines"
     fill="none"
     stroke="#000000"
     stroke-width="2.73"
     stroke-linejoin="bevel"
     points="336.598,708.598 2764.6,708.598"
     id="polyline12"
     transform="matrix(1.5455547,0,0,1.9765636,-213.64327,-148.54509)" />
  <polyline
     class="StaffLines"
     fill="none"
     stroke="#000000"
     stroke-width="2.73"
     stroke-linejoin="bevel"
     points="336.598,733.398 2764.6,733.398"
     id="polyline14"
     transform="matrix(1.5455547,0,0,1.9765636,-213.64327,-148.54509)" />
  <polyline
     class="StaffLines"
     fill="none"
     stroke="#000000"
     stroke-width="2.73"
     stroke-linejoin="bevel"
     points="212.598,1241.8 2764.6,1241.8"
     id="polyline16"
     transform="matrix(1.5455547,0,0,1.9765636,-213.64327,-148.54509)" />
  <polyline
     class="StaffLines"
     fill="none"
     stroke="#000000"
     stroke-width="2.73"
     stroke-linejoin="bevel"
     points="212.598,1266.6 2764.6,1266.6"
     id="polyline18"
     transform="matrix(1.5455547,0,0,1.9765636,-213.64327,-148.54509)" />
  <polyline
     class="StaffLines"
     fill="none"
     stroke="#000000"
     stroke-width="2.73"
     stroke-linejoin="bevel"
     points="212.598,1291.4 2764.6,1291.4"
     id="polyline20"
     transform="matrix(1.5455547,0,0,1.9765636,-213.64327,-148.54509)" />
  <polyline
     class="StaffLines"
     fill="none"
     stroke="#000000"
     stroke-width="2.73"
     stroke-linejoin="bevel"
     points="212.598,1316.2 2764.6,1316.2"
     id="polyline22"
     transform="matrix(1.5455547,0,0,1.9765636,-213.64327,-148.54509)" />
  <polyline
     class="StaffLines"
     fill="none"
     stroke="#000000"
     stroke-width="2.73"
     stroke-linejoin="bevel"
     points="212.598,1341 2764.6,1341"
     id="polyline24"
     transform="matrix(1.5455547,0,0,1.9765636,-213.64327,-148.54509)" />
  <path
     class="Text"
     d="M 561.29013,276.76593 H 459.11505 v 10.22081 h 3.06638 c 9.68445,0.21742 12.92084,0.86573 14.2732,3.05774 1.01388,1.94691 1.01388,2.37781 1.01388,13.46633 V 407.0017 c 0,11.08852 0,11.51941 -1.01388,13.49597 -1.35236,2.16236 -4.58875,3.0281 -14.2732,3.0281 h -3.06638 v 10.22081 h 104.39758 l 3.40486,-58.06155 h -7.48667 c -6.47123,38.69913 -13.42623,46.975 -39.45955,47.84074 H 508.766 c -10.21457,-0.43287 -12.75083,-2.59523 -12.24389,-10.44021 v -55.43668 h 3.40486 c 17.50804,-0.86376 23.78763,7.16505 24.48777,31.31668 h 7.96888 V 317.6551 h -7.96888 c -1.03862,21.30933 -7.65513,29.77297 -23.81082,29.77297 h -4.08181 v -49.57023 c -0.16846,-9.14161 1.52083,-10.65368 10.69833,-10.8711 h 8.86221 c 27.86944,-0.21545 34.84762,7.59791 40.28179,45.21389 h 7.31666 l -2.39097,-55.4347 m 68.14969,101.54595 19.39207,-28.93887 c 4.25028,-6.30128 8.16207,-9.10998 12.75083,-9.10998 h 1.52082 v -7.84498 h -35.18455 v 7.84498 h 3.23485 c 5.09569,0 7.65667,1.51207 7.65667,4.78526 0,2.16236 -1.20862,5.2201 -3.4064,8.67909 l -10.72151,16.5221 -13.0893,-21.30934 c -1.01389,-1.72949 -1.69084,-3.45898 -1.69084,-4.75561 0,-2.8423 2.19778,-3.9215 7.48667,-3.9215 h 2.36624 v -7.84498 h -40.28025 v 7.84498 c 6.27805,0.64831 8.66902,2.59325 14.10319,11.73486 l 20.74443,33.26161 -19.56054,29.12466 c -5.77264,8.27587 -10.69832,11.76649 -15.28708,11.54906 h -1.03861 v 7.81336 h 35.88623 v -7.81336 h -2.55943 c -3.91335,0 -4.75877,-0.21544 -5.94112,-0.89538 -1.37709,-1.08118 -2.39097,-3.02612 -2.39097,-5.00268 0,-1.51405 0.50694,-3.45899 1.37709,-4.75561 l 14.27165,-21.7422 12.91929,21.95764 c 1.1839,2.16236 2.19778,5.00268 2.19778,6.51673 0,2.81068 -2.53471,3.9215 -9.00749,3.9215 h -1.1839 v 7.81336 h 42.84124 v -7.81336 h -1.18235 c -5.96585,0 -9.85292,-2.84032 -14.80487,-10.65367 l -21.41984,-36.96767 m 113.91201,6.51475 c 0.17001,-32.6133 -14.29638,-55.65212 -35.04081,-55.65212 -21.75832,0 -38.08247,24.12 -38.08247,56.7333 0,30.66836 15.47873,51.11394 38.42094,51.11394 16.3257,0 27.72416,-10.22279 34.70234,-30.88381 l -5.96429,-4.13892 c -6.955,16.73951 -14.10319,23.25624 -25.50166,23.25624 -8.67056,0 -14.9486,-4.54016 -19.36734,-14.33008 -3.06793,-6.51673 -4.42029,-14.14627 -4.25028,-26.09855 h 55.08357 m -54.9151,-9.35705 c 0,-15.22547 5.43417,-36.96767 19.70582,-36.96767 10.21457,0 17.0011,11.55104 17.0011,29.15431 0,6.08387 -1.52082,7.81336 -6.95499,7.81336 h -29.75193 m 94.49676,-43.05153 -30.09041,2.40943 v 9.35705 h 6.955 c 6.47124,0.21545 7.31666,1.51405 7.31666,10.8711 v 62.16885 c -0.16847,3.27319 -0.33848,4.5718 -1.01389,5.651 -1.18389,1.94692 -4.58875,2.8423 -11.90541,3.05774 h -0.67695 v 7.81336 h 45.40067 v -7.81336 h -3.06638 c -11.39847,-0.46251 -12.91929,-1.54369 -12.91929,-9.35705 v -11.73683 c 0.16846,-36.5348 10.35985,-64.36086 23.61762,-65.2266 -2.36625,3.45899 -3.0432,5.65297 -3.0432,9.76027 0,6.97925 3.9118,11.98193 9.34597,11.98193 6.27804,0 10.35985,-5.86644 10.35985,-14.57716 0,-10.65367 -5.7711,-17.60327 -14.77859,-17.60327 -10.72306,0 -19.89902,10.8711 -25.50165,30.20387 v -26.96033 m 106.71437,69.36552 c -5.43263,15.65636 -11.20527,21.95764 -20.04276,21.95764 -13.59624,0 -22.09679,-15.87378 -22.09679,-41.29238 0,-26.52944 8.33054,-43.94692 20.88817,-43.94692 5.12042,0 9.53916,3.05775 9.53916,6.54638 0,0.65029 -0.16846,1.2986 -1.03861,2.59523 -2.70472,4.13892 -3.38013,6.29931 -3.38013,10.00536 0,7.16505 4.25028,12.1697 10.19139,12.1697 6.13276,0 10.38304,-6.08386 10.38304,-14.76295 0,-14.7926 -11.39847,-25.88112 -26.53872,-25.88112 -22.0968,0 -37.91555,23.03882 -37.91555,55.65212 0,30.88381 14.46639,52.19512 35.54776,52.19512 15.11861,0 23.78763,-8.92617 31.10428,-31.96499 l -6.64124,-3.27319 M 926.35477,278.278 c -5.4326,0 -9.8529,5.65297 -9.8529,12.63221 0,6.94763 4.4203,12.6006 9.6844,12.6006 5.6274,0 10.0462,-5.65297 10.0462,-12.6006 0,-6.97924 -4.4188,-12.63221 -9.8777,-12.63221 m 7.9936,54.14005 -31.9497,2.40943 v 9.35705 h 8.6706 c 6.448,0.21545 7.2934,1.51405 7.2934,10.8711 v 62.16885 c -0.17,3.27319 -0.3384,4.5718 -1.0154,5.651 -1.1823,1.94692 -4.4187,2.8423 -11.7354,3.05774 h -1.1839 v 7.81336 h 44.0483 v -7.81336 h -1.207 c -11.3753,-0.46251 -12.9209,-1.54369 -12.9209,-9.35705 v -84.15812 m 84.30543,69.36552 c -5.4326,15.65636 -11.2053,21.95764 -20.04433,21.95764 -13.5947,0 -22.0953,-15.87378 -22.0953,-41.29238 0,-26.52944 8.3306,-43.94692 20.8882,-43.94692 5.12043,0 9.53923,3.05775 9.53923,6.54638 0,0.65029 -0.1685,1.2986 -1.0386,2.59523 -2.7048,4.13892 -3.3802,6.29931 -3.3802,10.00536 0,7.16505 4.2503,12.1697 10.1899,12.1697 6.1343,0 10.3846,-6.08386 10.3846,-14.76295 0,-14.7926 -11.3985,-25.88112 -26.54033,-25.88112 -22.0968,0 -37.914,23.03882 -37.914,55.65212 0,30.88381 14.4648,52.19512 35.5478,52.19512 15.11703,0 23.78763,-8.92617 31.10423,-31.96499 l -6.6412,-3.27319 m 88.7488,-16.95694 c 0.1685,-32.6133 -14.2963,-55.65212 -35.0408,-55.65212 -21.7583,0 -38.0825,24.12 -38.0825,56.7333 0,30.66836 15.4788,51.11394 38.421,51.11394 16.3241,0 27.7226,-10.22279 34.7023,-30.88381 l -5.9643,-4.13892 c -6.955,16.73951 -14.1032,23.25624 -25.5016,23.25624 -8.6706,0 -14.9486,-4.54016 -19.3689,-14.33008 -3.0664,-6.51673 -4.4187,-14.14627 -4.2503,-26.09855 h 55.0851 m -54.9151,-9.35705 c 0,-15.22547 5.4327,-36.96767 19.7059,-36.96767 10.2145,0 17.0011,11.55104 17.0011,29.15431 0,6.08387 -1.5224,7.81336 -6.955,7.81336 h -29.752 m 174.4066,-45.42934 h -5.9658 l -4.9257,7.81336 c -6.1096,-6.08386 -12.2439,-8.67909 -20.7445,-8.67909 -14.9486,0 -24.8262,12.38515 -24.8262,31.53212 0,20.41395 10.3846,25.63405 23.9808,29.77297 l 9.0075,2.62488 c 13.4278,4.1073 18.185,8.46167 18.185,17.17041 0,10.22278 -6.955,17.38783 -16.8326,17.38783 -14.4417,0 -24.6315,-11.73486 -28.7133,-33.47706 h -6.8098 v 41.07497 h 5.9396 l 5.9659,-8.89454 c 6.955,7.16504 14.6101,10.65566 23.2791,10.65566 16.6642,0 27.7242,-13.28054 27.7242,-33.50869 0,-9.54482 -2.391,-16.95694 -7.1482,-21.95962 -4.0818,-4.54016 -7.4867,-6.29931 -17.8465,-9.10998 l -8.5006,-2.40943 c -9.346,-2.59325 -9.346,-2.59325 -12.4124,-4.78724 -3.7433,-2.16236 -5.9411,-6.73217 -5.9411,-11.51941 0,-8.89454 6.4481,-14.9784 15.7941,-14.9784 13.9579,0 20.7444,12.60059 24.8247,27.82606 h 5.9658 v -36.5348 m 82.4213,105.22039 30.9575,-1.51405 v -9.35705 h -4.2503 c -9.8761,-0.43287 -10.7215,-1.7295 -10.7215,-15.87378 v -76.0977 l -31.9481,2.40943 v 9.35705 h 8.669 c 6.448,0.21545 7.2934,1.51405 7.2934,10.8711 v 26.71523 c 0,18.93153 -3.5501,41.97035 -22.2668,41.97035 -5.2641,0 -9.6829,-2.3778 -11.9054,-6.73217 -2.1978,-4.13892 -2.5347,-6.30129 -2.5347,-18.25356 v -66.33743 l -29.7519,2.40943 v 9.35705 h 6.448 c 6.4713,0.21545 7.3167,1.51405 7.3167,10.8711 v 46.94339 c 0,11.08654 0.6754,16.0912 3.2364,21.09388 4.5872,8.92419 12.7508,13.92885 22.9407,13.92885 11.23,0 19.0551,-5.86842 26.517,-19.79727 v 18.03615 m 67.4944,-102.84258 -30.0919,2.40943 v 9.35705 h 6.955 c 6.4758,0.21545 7.3259,1.51405 7.3259,10.8711 v 62.16885 c -0.17,3.27319 -0.34,4.5718 -1.0201,5.651 -1.1746,1.94692 -4.5903,2.8423 -11.9007,3.05774 h -0.6801 v 7.81336 h 45.4084 v -7.81336 h -3.0756 c -11.3908,-0.46251 -12.9209,-1.54369 -12.9209,-9.35705 v -11.73683 c 0.17,-36.5348 10.3552,-64.36086 23.6161,-65.2266 -2.3647,3.45899 -3.0448,5.65297 -3.0448,9.76027 0,6.97925 3.9258,11.98193 9.3507,11.98193 6.2749,0 10.3552,-5.86644 10.3552,-14.57716 0,-10.65367 -5.7649,-17.60327 -14.7755,-17.60327 -10.7262,0 -19.8913,10.8711 -25.5017,30.20387 v -26.96033 m 123.7371,-58.92729 -31.4366,2.40943 v 9.35705 h 8.3306 c 6.2749,0.21742 7.125,1.51405 7.125,10.8711 v 121.09614 c -0.17,3.27319 -0.34,4.5718 -1.0201,5.651 -1.1746,1.94692 -4.4203,2.8423 -11.7307,3.05774 h -1.1901 v 7.81336 h 44.0328 v -7.81336 h -1.19 c -11.3753,-0.46251 -12.9209,-1.54369 -12.9209,-9.35705 V 273.49076 m 97.9264,111.33587 c 0.17,-32.6133 -14.2964,-55.65212 -35.0378,-55.65212 -21.7614,0 -38.0824,24.12 -38.0824,56.7333 0,30.66836 15.4864,51.11394 38.4225,51.11394 16.321,0 27.7272,-10.22279 34.6977,-30.88381 l -5.9659,-4.13892 c -6.955,16.73951 -14.0954,23.25624 -25.5016,23.25624 -8.6706,0 -14.9455,-4.54016 -19.3658,-14.33008 -3.0602,-6.51673 -4.4203,-14.14627 -4.2503,-26.09855 h 55.0836 m -54.9136,-9.35705 c 0,-15.22547 5.4404,-36.96767 19.7058,-36.96767 10.2161,0 17.0011,11.55104 17.0011,29.15431 0,6.08387 -1.5146,7.81336 -6.955,7.81336 h -29.7519 m 126.4418,-45.42934 h -5.9503 l -4.9304,7.81336 c -6.1204,-6.08386 -12.2408,-8.67909 -20.7413,-8.67909 -14.961,0 -24.8371,12.38515 -24.8371,31.53212 0,20.41395 10.3862,25.63405 23.987,29.77297 l 9.0106,2.62488 c 13.4154,4.1073 18.1757,8.46167 18.1757,17.17041 0,10.22278 -6.955,17.38783 -16.831,17.38783 -14.4355,0 -24.6362,-11.73486 -28.7165,-33.47706 h -6.8004 v 41.07497 h 5.9349 l 5.9659,-8.89454 c 6.955,7.16504 14.6055,10.65566 23.276,10.65566 16.6611,0 27.7273,-13.28054 27.7273,-33.50869 0,-9.54482 -2.3956,-16.95694 -7.1405,-21.95962 -4.0802,-4.54016 -7.4959,-6.29931 -17.8511,-9.10998 l -8.5006,-2.40943 c -9.3506,-2.59325 -9.3506,-2.59325 -12.4108,-4.78724 -3.7402,-2.16236 -5.9504,-6.73217 -5.9504,-11.51941 0,-8.89454 6.4604,-14.9784 15.7956,-14.9784 13.9563,0 20.7413,12.60059 24.8371,27.82606 h 5.9503 v -36.5348 m 125.4373,71.74333 c -5.4249,15.65636 -11.2053,21.95764 -20.0459,21.95764 -13.5854,0 -22.086,-15.87378 -22.086,-41.29238 0,-26.52944 8.3306,-43.94692 20.8805,-43.94692 5.1158,0 9.5361,3.05775 9.5361,6.54638 0,0.65029 -0.1701,1.2986 -1.0356,2.59523 -2.7047,4.13892 -3.3847,6.29931 -3.3847,10.00536 0,7.16505 4.2502,12.1697 10.2006,12.1697 6.1359,0 10.3862,-6.08386 10.3862,-14.76295 0,-14.7926 -11.4062,-25.88112 -26.5527,-25.88112 -22.086,0 -37.9124,23.03882 -37.9124,55.65212 0,30.88381 14.4664,52.19512 35.5477,52.19512 15.1156,0 23.7861,-8.92617 31.112,-31.96499 l -6.6458,-3.27319 m 52.3324,-72.60906 c -20.9113,0 -37.0624,23.68911 -37.0624,54.14005 0,29.771 16.3211,53.70719 36.7224,53.70719 20.4013,0 36.7379,-23.93619 36.7379,-53.92461 0,-29.80263 -16.3366,-53.92263 -36.3979,-53.92263 m 0,9.3274 c 11.9008,0 18.5158,15.87378 18.5158,44.59523 0,28.90724 -6.615,44.56558 -18.8558,44.56558 -12.2408,0 -18.8558,-15.65834 -18.8558,-44.34816 0,-29.58718 6.445,-44.81265 19.1958,-44.81265 m 75.8095,-6.08386 -30.092,2.40943 v 9.35705 h 6.955 c 6.4759,0.21545 7.3105,1.51405 7.3105,10.8711 v 62.16885 c -0.17,3.27319 -0.34,4.5718 -1.0046,5.651 -1.1901,1.94692 -4.5903,2.8423 -11.9162,3.05774 h -0.6646 v 7.81336 h 45.3929 v -7.81336 h -3.0602 c -11.4062,-0.46251 -12.9208,-1.54369 -12.9208,-9.35705 v -11.73683 c 0.17,-36.5348 10.3552,-64.36086 23.6161,-65.2266 -2.3647,3.45899 -3.0448,5.65297 -3.0448,9.76027 0,6.97925 3.9103,11.98193 9.3506,11.98193 6.275,0 10.3553,-5.86644 10.3553,-14.57716 0,-10.65367 -5.765,-17.60327 -14.7756,-17.60327 -10.7261,0 -19.9067,10.8711 -25.5016,30.20387 v -26.96033 m 105.0204,102.84258 29.582,-1.51405 v -9.35705 h -3.0602 c -9.6907,-0.64832 -10.5407,-1.94494 -10.5407,-15.87378 V 273.49076 l -33.3222,2.40943 v 9.35705 h 10.0307 c 6.4604,0.21742 7.3104,1.51405 7.3104,10.8711 v 49.13737 c -6.2749,-11.08852 -13.6008,-16.0912 -23.446,-16.0912 -19.2267,0 -33.8322,23.68911 -33.8322,55.00381 0,30.8838 14.0954,52.84343 33.8322,52.84343 10.6952,0 18.0057,-5.86842 23.446,-18.93153 v 17.17041 m -20.0613,-94.34929 c 6.9705,0 13.6164,6.51673 16.6611,16.5221 2.2102,6.51673 3.2302,15.44289 3.2302,26.09657 0,25.4186 -7.8205,41.72525 -20.0613,41.72525 -12.0553,0 -19.2112,-14.33008 -19.2112,-38.48171 0,-13.03346 1.02,-22.82338 3.2456,-29.98843 2.8748,-9.78991 9.1806,-15.87378 16.1356,-15.87378 m 132.0831,43.91529 c 0.1701,-32.6133 -14.2963,-55.65212 -35.0377,-55.65212 -21.7614,0 -38.0825,24.12 -38.0825,56.7333 0,30.66836 15.4865,51.11394 38.4225,51.11394 16.3211,0 27.7273,-10.22279 34.6977,-30.88381 l -5.9503,-4.13892 c -6.955,16.73951 -14.111,23.25624 -25.5017,23.25624 -8.6706,0 -14.961,-4.54016 -19.3813,-14.33008 -3.0602,-6.51673 -4.4202,-14.14627 -4.2502,-26.09855 h 55.0835 m -54.9135,-9.35705 c 0,-15.22547 5.4403,-36.96767 19.7058,-36.96767 10.2161,0 17.0011,11.55104 17.0011,29.15431 0,6.08387 -1.5146,7.81336 -6.955,7.81336 h -29.7519 m 126.4573,-45.42934 h -5.9659 l -4.9303,7.81336 c -6.1049,-6.08386 -12.2408,-8.67909 -20.7413,-8.67909 -14.9456,0 -24.8371,12.38515 -24.8371,31.53212 0,20.41395 10.3861,25.63405 23.987,29.77297 l 9.0106,2.62488 c 13.4309,4.1073 18.1757,8.46167 18.1757,17.17041 0,10.22278 -6.955,17.38783 -16.8311,17.38783 -14.4355,0 -24.6207,-11.73486 -28.7009,-33.47706 h -6.8159 v 41.07497 h 5.9349 l 5.9658,-8.89454 c 6.955,7.16504 14.621,10.65566 23.2761,10.65566 16.6765,0 27.7273,-13.28054 27.7273,-33.50869 0,-9.54482 -2.3802,-16.95694 -7.1405,-21.95962 -4.0803,-4.54016 -7.4959,-6.29931 -17.8512,-9.10998 l -8.5005,-2.40943 c -9.3506,-2.59325 -9.3506,-2.59325 -12.4108,-4.78724 -3.7403,-2.16236 -5.935,-6.73217 -5.935,-11.51941 0,-8.89454 6.445,-14.9784 15.7802,-14.9784 13.9718,0 20.7568,12.60059 24.837,27.82606 h 5.9659 v -36.5348 m 124.2471,105.22039 29.5819,-1.51405 v -9.35705 h -3.0756 c -9.6752,-0.64832 -10.5253,-1.94494 -10.5253,-15.87378 V 273.49076 l -33.3221,2.40943 v 9.35705 h 10.0152 c 6.4759,0.21742 7.3259,1.51405 7.3259,10.8711 v 49.13737 c -6.2904,-11.08852 -13.6009,-16.0912 -23.4615,-16.0912 -19.2113,0 -33.8322,23.68911 -33.8322,55.00381 0,30.8838 14.1109,52.84343 33.8322,52.84343 10.7107,0 18.0212,-5.86842 23.4615,-18.93153 v 17.17041 m -20.0767,-94.34929 c 6.9859,0 13.6163,6.51673 16.661,16.5221 2.2256,6.51673 3.2457,15.44289 3.2457,26.09657 0,25.4186 -7.836,41.72525 -20.0768,41.72525 -12.0398,0 -19.1957,-14.33008 -19.1957,-38.48171 0,-13.03346 1.02,-22.82338 3.2302,-29.98843 2.8747,-9.78991 9.1806,-15.87378 16.1356,-15.87378 m 132.0985,43.91529 c 0.17,-32.6133 -14.2964,-55.65212 -35.0377,-55.65212 -21.7614,0 -38.0825,24.12 -38.0825,56.7333 0,30.66836 15.471,51.11394 38.4225,51.11394 16.3211,0 27.7273,-10.22279 34.6977,-30.88381 l -5.9658,-4.13892 c -6.955,16.73951 -14.0955,23.25624 -25.5017,23.25624 -8.6705,0 -14.9455,-4.54016 -19.3658,-14.33008 -3.0602,-6.51673 -4.4203,-14.14627 -4.2503,-26.09855 h 55.0836 m -54.9135,-9.35705 c 0,-15.22547 5.4403,-36.96767 19.7058,-36.96767 10.2161,0 17.0011,11.55104 17.0011,29.15431 0,6.08387 -1.5147,7.81336 -6.955,7.81336 h -29.7519 m 200.9221,-100.00226 h -6.3059 l -6.785,13.03346 c -8.1605,-9.78992 -18.8867,-15.01002 -30.9574,-15.01002 -22.4415,0 -37.217,18.06777 -37.217,45.46096 0,23.68912 9.1806,35.42397 34.1722,43.70182 l 16.1511,5.21813 c 12.5808,4.13892 13.7709,4.57179 17.3411,8.03078 5.1003,5.00268 7.8359,12.19935 7.8359,20.66102 0,8.70874 -2.5656,15.87378 -7.6659,21.95764 -5.6258,6.08386 -11.2207,8.49329 -20.5713,8.49329 -25.6717,0 -38.4225,-24.15163 -42.8428,-53.48976 h -7.3105 l 0.6646,61.95143 h 6.6459 l 7.6505,-14.76097 c 11.3753,11.95228 20.7259,16.30665 35.7023,16.30665 24.9916,0 40.9726,-18.71608 40.9726,-47.83877 0,-13.7134 -3.4002,-25.01737 -10.2161,-33.26359 -4.5748,-5.651 -11.2052,-9.35705 -24.8216,-13.71142 l -18.1757,-5.86842 c -15.131,-5.00268 -22.2714,-13.46435 -22.2714,-26.74488 0,-15.22547 9.6906,-25.6637 24.1415,-25.6637 21.9314,0 34.0022,23.28589 38.5925,48.05421 h 7.295 l -2.0246,-56.51786 m 39.7516,2.81068 c -5.4403,0 -9.8606,5.65297 -9.8606,12.63221 0,6.94763 4.4203,12.6006 9.6906,12.6006 5.6258,0 10.0461,-5.65297 10.0461,-12.6006 0,-6.97924 -4.4203,-12.63221 -9.8761,-12.63221 m 7.9905,54.14005 -31.9466,2.40943 v 9.35705 h 8.6706 c 6.445,0.21545 7.295,1.51405 7.295,10.8711 v 62.16885 c -0.17,3.27319 -0.34,4.5718 -1.0201,5.651 -1.19,1.94692 -4.4202,2.8423 -11.7307,3.05774 h -1.1901 v 7.81336 h 44.0483 v -7.81336 h -1.2055 c -11.3753,-0.46251 -12.9209,-1.54369 -12.9209,-9.35705 v -84.15812 m 144.8494,52.40858 c 0.17,-32.6133 -14.2963,-55.65212 -35.0377,-55.65212 -21.7614,0 -38.0825,24.12 -38.0825,56.7333 0,30.66836 15.471,51.11394 38.4225,51.11394 16.3211,0 27.7118,-10.22279 34.6977,-30.88381 l -5.9658,-4.13892 c -6.955,16.73951 -14.1109,23.25624 -25.5017,23.25624 -8.6705,0 -14.9455,-4.54016 -19.3658,-14.33008 -3.0756,-6.51673 -4.4202,-14.14627 -4.2502,-26.09855 h 55.0835 m -54.9135,-9.35705 c 0,-15.22547 5.4249,-36.96767 19.7058,-36.96767 10.2161,0 17.0011,11.55104 17.0011,29.15431 0,6.08387 -1.5301,7.81336 -6.955,7.81336 h -29.7519 m 90.4149,-43.05153 v -43.05153 h -6.9859 c -1.6846,28.28858 -9.1806,42.61866 -22.936,43.94691 v 8.46167 h 13.9254 v 55.43668 c 0,15.22547 0.3401,20.66102 2.0402,25.6637 2.7201,9.14161 9.536,14.14627 19.3812,14.14627 15.3165,0 25.1617,-14.79458 25.1617,-37.83341 0,-1.32825 0,-2.84032 -0.1546,-5.00268 h -7.1559 c -0.5101,19.54821 -4.9303,29.55555 -13.2609,29.55555 -3.9102,0 -7.3105,-2.59522 -8.5005,-6.30128 -1.0046,-3.05577 -1.5147,-8.49132 -1.5147,-16.30665 V 341.7751 h 24.9916 v -9.35705 h -24.9916 m 144.9885,102.84258 29.5819,-1.51405 v -9.35705 h -3.0602 c -9.6906,-0.64832 -10.5407,-1.94494 -10.5407,-15.87378 V 273.49076 l -33.3221,2.40943 v 9.35705 h 10.0306 c 6.4605,0.21742 7.3105,1.51405 7.3105,10.8711 v 49.13737 c -6.2749,-11.08852 -13.6009,-16.0912 -23.4461,-16.0912 -19.2267,0 -33.8321,23.68911 -33.8321,55.00381 0,30.8838 14.0954,52.84343 33.8321,52.84343 10.6953,0 18.0058,-5.86842 23.4461,-18.93153 v 17.17041 m -20.0613,-94.34929 c 6.9705,0 13.6163,6.51673 16.6611,16.5221 2.2101,6.51673 3.2302,15.44289 3.2302,26.09657 0,25.4186 -7.8205,41.72525 -20.0613,41.72525 -12.0553,0 -19.2112,-14.33008 -19.2112,-38.48171 0,-13.03346 1.02,-22.82338 3.2456,-29.98843 2.8747,-9.78991 9.1806,-15.87378 16.1356,-15.87378 m 132.0831,43.91529 c 0.17,-32.6133 -14.2964,-55.65212 -35.0377,-55.65212 -21.7614,0 -38.0825,24.12 -38.0825,56.7333 0,30.66836 15.4865,51.11394 38.4225,51.11394 16.3211,0 27.7273,-10.22279 34.6977,-30.88381 l -5.9504,-4.13892 c -6.955,16.73951 -14.1109,23.25624 -25.5016,23.25624 -8.6706,0 -14.961,-4.54016 -19.3813,-14.33008 -3.0602,-6.51673 -4.4203,-14.14627 -4.2503,-26.09855 h 55.0836 m -54.9135,-9.35705 c 0,-15.22547 5.4403,-36.96767 19.7058,-36.96767 10.2161,0 17.0011,11.55104 17.0011,29.15431 0,6.08387 -1.5147,7.81336 -6.955,7.81336 h -29.7519 m 156.8738,-98.70365 h -43.8474 v 10.22081 h 3.2302 c 9.6906,0.21742 12.9208,0.86573 14.1109,3.05774 1.2055,1.94691 1.2055,2.16236 1.2055,13.46633 v 83.26274 c 0,29.58718 -3.2456,35.67104 -19.7367,36.75222 v 10.22081 h 48.4531 v -10.22081 c -16.3365,-1.08118 -19.5358,-7.16504 -19.5358,-36.75222 v -96.08076 l 40.4472,143.05379 h 6.8004 L 3250.563,290.69279 V 407.0017 c 0,11.08852 0,11.51941 -1.02,13.7134 -1.3756,2.16038 -4.6212,2.81067 -14.2964,2.81067 h -3.0757 v 10.22081 h 55.7946 v -10.22081 h -3.0757 c -9.6752,0 -12.9208,-0.65029 -14.2964,-2.81067 -1.0046,-2.19399 -1.0046,-2.40943 -1.0046,-13.7134 V 303.51081 c 0,-11.08852 0,-11.51942 1.0046,-13.46633 1.3756,-2.19201 4.6212,-2.84032 14.2964,-3.05774 h 3.0757 v -10.22081 h -42.6728 l -31.1275,115.87603 -32.6575,-115.87603 m 138.7135,1.51207 c -5.4249,0 -9.8452,5.65297 -9.8452,12.63221 0,6.94763 4.4203,12.6006 9.6752,12.6006 5.6258,0 10.0461,-5.65297 10.0461,-12.6006 0,-6.97924 -4.4203,-12.63221 -9.8761,-12.63221 m 8.006,54.14005 -31.9621,2.40943 v 9.35705 h 8.6706 c 6.4449,0.21545 7.295,1.51405 7.295,10.8711 v 62.16885 c -0.17,3.27319 -0.3401,4.5718 -1.0046,5.651 -1.1901,1.94692 -4.4203,2.8423 -11.7463,3.05774 h -1.1746 v 7.81336 h 44.0483 v -7.81336 h -1.221 c -11.3598,-0.46251 -12.9053,-1.54369 -12.9053,-9.35705 v -84.15812 m 99.781,0 -29.4119,2.40943 v 9.35705 h 6.1358 c 6.445,0.21545 7.2796,1.51405 7.2796,10.8711 v 62.16885 c -0.17,3.27319 -0.3246,4.5718 -1.0046,5.651 -1.1901,1.94692 -4.4203,2.8423 -11.7462,3.05774 h -0.6646 v 7.81336 h 42.9973 v -7.81336 h -0.6646 c -11.4062,-0.46251 -12.9208,-1.54369 -12.9208,-9.35705 v -32.18043 c 0,-10.65565 1.1746,-20.44557 3.0602,-25.44825 3.5702,-9.78992 11.2052,-16.52408 18.5312,-16.52408 4.4203,0 9.5051,3.05775 12.0708,7.62954 2.5656,4.75561 3.7402,11.30199 3.7402,21.7422 v 45.42933 c -0.17,3.27319 -0.34,4.5718 -1.0201,5.651 -1.2055,1.94692 -4.6057,2.8423 -11.9007,3.05774 h -0.6801 v 7.81336 h 43.0128 v -7.81336 h -0.68 c -11.2208,-0.46251 -12.7509,-1.54369 -12.7509,-9.35705 v -43.69984 c 0,-15.65834 -0.5255,-19.58182 -3.5702,-26.9623 -4.2503,-10.43824 -12.7508,-16.73952 -22.9669,-16.73952 -11.0353,0 -19.3658,6.51673 -26.8463,20.87844 v -17.6349 m 104.5413,-47.80912 c -14.7755,0 -26.1817,14.54751 -26.1817,33.04617 0,18.90187 11.2362,33.47903 25.5016,33.47903 14.281,0 25.5017,-14.57716 25.5017,-33.26359 0,-18.7141 -10.8962,-33.26161 -24.8216,-33.26161 m -0.34,12.38515 c 8.5005,0 15.4864,9.35705 15.4864,20.87646 0,11.73684 -6.9859,20.87844 -15.8265,20.87844 -8.8405,0 -15.981,-9.35705 -15.981,-20.66102 0,-11.9839 7.1405,-21.09388 16.3211,-21.09388 m 119.4868,89.77947 h -7.4805 l -1.7001,11.08654 c -2.1947,14.14429 -3.5702,15.44289 -14.0955,15.44289 h -38.0824 c 11.7307,-15.65833 15.6255,-20.1985 26.5217,-31.0696 15.471,-15.22547 22.086,-22.855 25.9962,-29.36976 5.4404,-9.57447 8.1606,-19.11732 8.1606,-29.77297 0,-24.79995 -15.9811,-42.40322 -38.2525,-42.40322 -21.576,0 -38.0825,17.60327 -38.0825,40.85952 0,13.71142 5.4404,23.07045 13.4309,23.07045 6.3058,0 10.5561,-5.43555 10.5561,-13.28053 0,-5.43555 -2.3956,-10.43823 -5.9658,-12.38515 -6.275,-3.27319 -6.615,-3.70605 -6.615,-6.51673 0,-3.27319 1.6847,-8.27587 4.0803,-11.98193 4.2502,-6.73217 11.2052,-10.40858 19.1958,-10.40858 14.1263,0 22.4569,11.08852 22.4569,29.34011 0,16.0912 -5.9659,30.66836 -20.0613,49.78568 -12.5808,16.95496 -20.4014,27.60864 -23.307,31.74757 -6.1049,9.1416 -9.1806,14.14428 -16.6611,26.74488 v 6.08386 h 76.675 l 3.2302,-46.97303 m 31.9466,22.85302 c -5.9349,0 -10.6952,6.08387 -10.6952,13.46633 0,7.59791 4.7603,13.71142 10.5252,13.71142 5.9658,0 10.7262,-6.11351 10.7262,-13.71142 0,-7.38246 -4.7604,-13.46633 -10.5562,-13.46633"
     id="path36"
     style="stroke-width:1.74782" />
  <path
     class="MeasureNumber"
     d="m 137.4944,2179.1353 c 2.92264,-1.186 4.08181,-1.8383 5.57945,-3.1033 2.89791,-2.4311 4.68457,-6.7796 4.68457,-11.2071 0,-7.5109 -4.68457,-12.5709 -11.61639,-12.5709 -6.73707,0 -12.43707,5.3762 -12.43707,11.8594 0,3.2415 1.54555,5.475 3.91334,5.475 2.02777,0 3.52541,-1.9172 3.52541,-4.5065 0,-1.3638 -0.31375,-2.3324 -1.30445,-3.5578 -0.62749,-0.7511 -0.8686,-1.265 -0.8686,-1.8185 0,-1.9172 3.09111,-3.8938 5.98903,-3.8938 4.1529,0 6.61652,2.9253 6.61652,7.847 0,6.997 -3.88862,13.6382 -8.04153,13.6382 -0.17001,0 -0.72486,-0.059 -1.40181,-0.1383 -1.80985,-0.1581 -1.80985,-0.1581 -2.17305,-0.1581 -1.35236,0 -2.10041,0.7906 -2.10041,2.2137 0,1.265 0.6754,2.0359 1.78666,2.0359 0.31375,0 0.74805,-0.059 1.23181,-0.1384 0.8686,-0.2174 1.81139,-0.3162 2.36624,-0.3162 2.89791,0 4.87777,3.3404 4.87777,8.2225 0,8.5387 -3.2843,16.7612 -10.76942,16.7612 -3.45432,0 -6.42488,-2.2137 -6.42488,-4.7635 0,-0.8499 0.26584,-1.1662 1.23181,-1.7196 1.81139,-1.0278 2.53626,-2.4509 2.53626,-4.5659 0,-2.7869 -1.71402,-4.9216 -3.93653,-4.9216 -2.65681,0 -4.39556,2.6881 -4.39556,6.7994 0,7.6493 4.56402,12.4721 11.97805,12.4721 9.34597,0 16.44625,-7.9656 16.44625,-18.5599 0,-6.1669 -2.97056,-9.6259 -7.29347,-11.385"
     id="path40"
     style="stroke-width:1.74782" />
  <polyline
     class="BarLine"
     fill="none"
     stroke="#000000"
     stroke-width="4.46"
     stroke-linejoin="bevel"
     points="2762.37,1240.43 2762.37,1342.36"
     id="polyline46"
     transform="matrix(1.5455547,0,0,1.9765636,-213.64327,-148.54509)" />
  <polyline
     class="BarLine"
     fill="none"
     stroke="#000000"
     stroke-width="4.46"
     stroke-linejoin="bevel"
     points="1534.14,1240.43 1534.14,1342.36"
     id="polyline48"
     transform="matrix(1.5455547,0,0,1.9765636,-213.64327,-148.54509)" />
  <polyline
     class="BarLine"
     fill="none"
     stroke="#000000"
     stroke-width="4.46"
     stroke-linejoin="bevel"
     points="2762.37,632.834 2762.37,734.762"
     id="polyline50"
     transform="matrix(1.5455547,0,0,1.9765636,-213.64327,-148.54509)" />
  <polyline
     class="BarLine"
     fill="none"
     stroke="#000000"
     stroke-width="4.46"
     stroke-linejoin="bevel"
     points="1624.89,632.834 1624.89,734.762"
     id="polyline52"
     transform="matrix(1.5455547,0,0,1.9765636,-213.64327,-148.54509)" />
  <polyline
     class="Stem"
     fill="none"
     stroke="#000000"
     stroke-width="2.48"
     stroke-linejoin="bevel"
     points="1586.14,1295.56 1586.14,1365.8"
     id="polyline54"
     transform="matrix(1.5455547,0,0,1.9765636,-213.64327,-148.54509)" />
  <polyline
     class="Stem"
     fill="none"
     stroke="#000000"
     stroke-width="2.48"
     stroke-linejoin="bevel"
     points="357.911,1258.36 357.911,1341"
     id="polyline56"
     transform="matrix(1.5455547,0,0,1.9765636,-213.64327,-148.54509)" />
  <polyline
     class="Stem"
     fill="none"
     stroke="#000000"
     stroke-width="2.48"
     stroke-linejoin="bevel"
     points="2219.13,650.765 2219.13,733.398"
     id="polyline58"
     transform="matrix(1.5455547,0,0,1.9765636,-213.64327,-148.54509)" />
  <polyline
     class="Stem"
     fill="none"
     stroke="#000000"
     stroke-width="2.48"
     stroke-linejoin="bevel"
     points="539.405,687.965 539.405,758.198"
     id="polyline60"
     transform="matrix(1.5455547,0,0,1.9765636,-213.64327,-148.54509)" />
  <polyline
     class="Stem"
     fill="none"
     stroke="#000000"
     stroke-width="2.48"
     stroke-linejoin="bevel"
     points="1948.01,638.365 1948.01,720.998"
     id="polyline62"
     transform="matrix(1.5455547,0,0,1.9765636,-213.64327,-148.54509)" />
  <polyline
     class="Stem"
     fill="none"
     stroke="#000000"
     stroke-width="2.48"
     stroke-linejoin="bevel"
     points="2467.57,1283.16 2467.57,1359.6"
     id="polyline64"
     transform="matrix(1.5455547,0,0,1.9765636,-213.64327,-148.54509)" />
  <polyline
     class="Stem"
     fill="none"
     stroke="#000000"
     stroke-width="2.48"
     stroke-linejoin="bevel"
     points="810.529,675.565 810.529,751.998"
     id="polyline66"
     transform="matrix(1.5455547,0,0,1.9765636,-213.64327,-148.54509)" />
  <polyline
     class="Stem"
     fill="none"
     stroke="#000000"
     stroke-width="2.48"
     stroke-linejoin="bevel"
     points="651.721,1233.56 651.721,1316.2"
     id="polyline68"
     transform="matrix(1.5455547,0,0,1.9765636,-213.64327,-148.54509)" />
  <polyline
     class="Stem"
     fill="none"
     stroke="#000000"
     stroke-width="2.48"
     stroke-linejoin="bevel"
     points="1676.88,650.765 1676.88,733.398"
     id="polyline70"
     transform="matrix(1.5455547,0,0,1.9765636,-213.64327,-148.54509)" />
  <polyline
     class="Stem"
     fill="none"
     stroke="#000000"
     stroke-width="2.48"
     stroke-linejoin="bevel"
     points="1879.95,1270.76 1879.95,1353.4"
     id="polyline72"
     transform="matrix(1.5455547,0,0,1.9765636,-213.64327,-148.54509)" />
  <polyline
     class="Stem"
     fill="none"
     stroke="#000000"
     stroke-width="2.48"
     stroke-linejoin="bevel"
     points="945.532,1258.36 945.532,1341"
     id="polyline74"
     transform="matrix(1.5455547,0,0,1.9765636,-213.64327,-148.54509)" />
  <polyline
     class="Stem"
     fill="none"
     stroke="#000000"
     stroke-width="2.48"
     stroke-linejoin="bevel"
     points="2173.76,1295.56 2173.76,1365.8"
     id="polyline76"
     transform="matrix(1.5455547,0,0,1.9765636,-213.64327,-148.54509)" />
  <polyline
     class="Stem"
     fill="none"
     stroke="#000000"
     stroke-width="2.48"
     stroke-linejoin="bevel"
     points="2490.25,625.965 2490.25,708.598"
     id="polyline78"
     transform="matrix(1.5455547,0,0,1.9765636,-213.64327,-148.54509)" />
  <polyline
     class="Stem"
     fill="none"
     stroke="#000000"
     stroke-width="2.48"
     stroke-linejoin="bevel"
     points="1352.78,663.165 1352.78,745.798"
     id="polyline80"
     transform="matrix(1.5455547,0,0,1.9765636,-213.64327,-148.54509)" />
  <polyline
     class="Stem"
     fill="none"
     stroke="#000000"
     stroke-width="2.48"
     stroke-linejoin="bevel"
     points="1081.65,687.965 1081.65,758.198"
     id="polyline82"
     transform="matrix(1.5455547,0,0,1.9765636,-213.64327,-148.54509)" />
  <polyline
     class="Stem"
     fill="none"
     stroke="#000000"
     stroke-width="2.48"
     stroke-linejoin="bevel"
     points="1239.34,1245.96 1239.34,1328.6"
     id="polyline84"
     transform="matrix(1.5455547,0,0,1.9765636,-213.64327,-148.54509)" />
  <path
     class="Note"
     d="m 618.12017,1211.2664 c 0,8.4251 4.74331,17.8307 17.17649,17.8307 15.93092,0 32.6522,-16.6665 32.6522,-33.915 0,-11.5806 -7.66596,-18.0449 -17.1765,-18.0449 -14.87669,0 -32.65219,16.0842 -32.65219,34.1292"
     id="path86"
     style="stroke-width:1.73384" />
  <path
     class="Note"
     d="m 1037.1572,1186.757 c 0,8.4251 4.7433,17.8307 17.1765,17.8307 15.9309,0 32.6522,-16.6665 32.6522,-33.9149 0,-11.5807 -7.666,-18.045 -17.1765,-18.045 -14.8767,0 -32.6522,16.0842 -32.6522,34.1292"
     id="path88"
     style="stroke-width:1.73384" />
  <path
     class="Note"
     d="m 337.61127,2338.7022 c 0,8.4251 4.74331,17.8306 17.17649,17.8306 15.93091,0 32.65219,-16.6664 32.65219,-33.9148 0,-11.5807 -7.66595,-18.0451 -17.17649,-18.0451 -14.87669,0 -32.65219,16.0843 -32.65219,34.1293"
     id="path90"
     style="stroke-width:1.73384" />
  <path
     class="Note"
     d="m 2690.0058,2363.2116 c 0,8.4251 4.7433,17.8306 17.1765,17.8306 15.9308,0 32.6522,-16.6664 32.6522,-33.9149 0,-11.5806 -7.666,-18.045 -17.1765,-18.045 -14.8768,0 -32.6522,16.0843 -32.6522,34.1293"
     id="path92"
     style="stroke-width:1.73384" />
  <path
     class="Note"
     d="m 791.71069,2289.6835 c 0,8.4251 4.74331,17.8305 17.17649,17.8305 15.93092,0 32.6522,-16.6663 32.6522,-33.9148 0,-11.5807 -7.66596,-18.0451 -17.1765,-18.0451 -14.87669,0 -32.65219,16.0843 -32.65219,34.1294"
     id="path94"
     style="stroke-width:1.73384" />
  <path
     class="Note"
     d="m 1699.908,2314.1928 c 0,8.4252 4.7433,17.8306 17.1765,17.8306 15.9308,0 32.6522,-16.6664 32.6522,-33.9148 0,-11.5807 -7.6659,-18.0451 -17.1765,-18.0451 -14.8768,0 -32.6522,16.0843 -32.6522,34.1293"
     id="path96"
     style="stroke-width:1.73384" />
  <path
     class="Note"
     d="m 1245.8117,2338.7022 c 0,8.4251 4.7433,17.8306 17.1765,17.8306 15.9309,0 32.6522,-16.6664 32.6522,-33.9148 0,-11.5807 -7.666,-18.0451 -17.1765,-18.0451 -14.8767,0 -32.6522,16.0843 -32.6522,34.1293"
     id="path98"
     style="stroke-width:1.73384" />
  <path
     class="Note"
     d="m 2235.9064,2412.2304 c 0,8.4251 4.7433,17.8306 17.1765,17.8306 15.9308,0 32.6522,-16.6664 32.6522,-33.9149 0,-11.5807 -7.666,-18.045 -17.1766,-18.045 -14.8767,0 -32.6521,16.0843 -32.6521,34.1293"
     id="path100"
     style="stroke-width:1.73384" />
  <path
     class="Note"
     d="m 1875.2357,1162.2477 c 0,8.4251 4.7434,17.8306 17.1766,17.8306 15.9308,0 32.6521,-16.6664 32.6521,-33.9149 0,-11.5807 -7.6659,-18.045 -17.1765,-18.045 -14.8767,0 -32.6522,16.0842 -32.6522,34.1293"
     id="path102"
     style="stroke-width:1.73384" />
  <path
     class="Note"
     d="m 3633.2578,1088.7195 c 0,8.4251 4.7433,17.8306 17.1766,17.8306 15.9308,0 32.6521,-16.6664 32.6521,-33.9149 0,-11.5807 -7.6659,-18.045 -17.1765,-18.045 -14.8767,0 -32.6522,16.0843 -32.6522,34.1293"
     id="path104"
     style="stroke-width:1.73384" />
  <path
     class="Note"
     d="m 3144.1052,2412.2304 c 0,8.4251 4.7433,17.8306 17.1766,17.8306 15.9308,0 32.6521,-16.6664 32.6521,-33.9149 0,-11.5807 -7.6659,-18.045 -17.1765,-18.045 -14.8767,0 -32.6522,16.0843 -32.6522,34.1293"
     id="path106"
     style="stroke-width:1.73384" />
  <path
     class="Note"
     d="m 3214.227,1137.7383 c 0,8.4251 4.7434,17.8306 17.1766,17.8306 15.9308,0 32.6521,-16.6664 32.6521,-33.9149 0,-11.5807 -7.6659,-18.045 -17.1765,-18.045 -14.8767,0 -32.6522,16.0842 -32.6522,34.1293"
     id="path108"
     style="stroke-width:1.73384" />
  <path
     class="Note"
     d="m 1456.1895,1211.2664 c 0,8.4251 4.7433,17.8307 17.1765,17.8307 15.9308,0 32.6522,-16.6665 32.6522,-33.915 0,-11.5806 -7.666,-18.0449 -17.1765,-18.0449 -14.8768,0 -32.6522,16.0842 -32.6522,34.1292"
     id="path110"
     style="stroke-width:1.73384" />
  <path
     class="Note"
     d="m 2376.15,1137.7383 c 0,8.4251 4.7433,17.8306 17.1765,17.8306 15.9308,0 32.6522,-16.6664 32.6522,-33.9149 0,-11.5807 -7.6659,-18.045 -17.1765,-18.045 -14.8768,0 -32.6522,16.0842 -32.6522,34.1293"
     id="path112"
     style="stroke-width:1.73384" />
  <path
     class="Note"
     d="m 3598.2047,2387.721 c 0,8.4251 4.7433,17.8306 17.1765,17.8306 15.9308,0 32.6521,-16.6664 32.6521,-33.9149 0,-11.5807 -7.6659,-18.045 -17.1765,-18.045 -14.8767,0 -32.6521,16.0843 -32.6521,34.1293"
     id="path114"
     style="stroke-width:1.73384" />
  <path
     class="Note"
     d="m 2795.1963,1113.2289 c 0,8.4251 4.7433,17.8306 17.1765,17.8306 15.9308,0 32.6521,-16.6664 32.6521,-33.9149 0,-11.5807 -7.6659,-18.045 -17.1765,-18.045 -14.8767,0 -32.6521,16.0842 -32.6521,34.1293"
     id="path116"
     style="stroke-width:1.73384" />
  <path
     class="Clef"
     d="m 400.18386,1392.6359 c 0,-7.2609 -5.19843,-10.3857 -10.25321,-10.3857 -6.44415,0 -12.74465,5.0856 -12.74465,13.9089 0,3.7378 1.078,6.495 3.23412,9.2216 -4.00071,1.9608 -7.97749,5.8823 -7.97749,11.9791 0,6.4643 4.59957,10.7841 11.35525,10.7841 8.26483,0 14.08619,-5.8823 14.08619,-14.338 0,-4.5036 -1.53319,-8.2107 -4.28817,-10.7841 4.45591,-2.5429 6.58796,-5.6678 6.58796,-10.3859 m -15.33191,31.372 c -3.35385,0 -5.65364,-2.7266 -5.65364,-6.8626 0,-3.9215 1.36547,-7.0464 3.97665,-9.0072 0.62292,0.3983 0.7666,0.3983 1.2218,0.7659 1.84458,1.1949 1.84458,1.1949 2.15612,1.5931 2.89864,2.1447 4.14436,4.1054 4.14436,6.8627 0,3.707 -2.46751,6.6481 -5.84529,6.6481 m 5.84529,-23.529 c -2.29978,-1.5624 -2.9227,-1.9608 -3.37776,-2.359 l -0.31154,-0.1836 c -2.29979,-1.7771 -3.06638,-3.1557 -3.06638,-5.4841 0,-3.5538 2.15611,-6.0967 5.22249,-6.0967 2.89866,0 4.74325,2.359 4.74325,6.4644 0,3.1556 -0.91027,5.3001 -3.21006,7.6591 m 42.7616,-148.8333 c 0,-29.5952 -16.40989,-49.6009 -38.78495,-49.6009 -1.53319,-11.7645 -2.92258,-23.3453 -4.28803,-34.3132 16.0985,-21.7827 27.42968,-46.4759 27.42968,-77.4496 0,-17.8613 -4.28817,-32.3525 -6.89935,-39.4288 -3.66524,-9.9881 -8.12115,-16.8507 -10.73233,-16.8507 -1.05407,0 -5.96503,2.3588 -10.87613,9.9881 -9.96574,14.9193 -12.72058,39.7964 -12.72058,56.2788 0,10.6005 0.76659,20.1897 3.37776,42.3707 -0.16772,0 -8.14507,10.3859 -11.35525,13.9092 -13.9663,16.4825 -33.27499,40.3791 -33.27499,79.4103 0,36.8561 24.98624,65.6852 53.518,65.6852 4.43183,0 8.5762,-0.5821 12.26552,-1.3786 2.75484,18.6578 4.59957,32.5668 4.59957,42.9527 0,20.4041 -8.28889,31.1882 -23.76445,31.1882 -3.68931,0 -6.89935,-0.9803 -7.21089,-1.1948 -0.14374,0 -0.45506,-0.1839 -0.45506,-0.3677 0,-0.3982 0.31138,-0.6127 0.7666,-0.7966 7.21073,-1.3786 14.39756,-9.4054 14.39756,-21.752 0,-10.6004 -6.27656,-21.7828 -17.77548,-21.7828 -10.73233,0 -17.48789,11.1824 -17.48789,24.1112 0,12.9594 7.66595,30.024 28.36402,30.024 19.78767,0 29.44201,-14.338 29.44201,-39.4295 0,-7.6286 -0.91025,-16.4519 -2.44344,-27.6343 -0.45522,-3.9215 -1.22181,-10.0183 -2.29979,-17.463 15.02037,-6.4644 26.20789,-26.2862 26.20789,-46.4759 m -47.2175,-160.7816 c 1.5332,-7.843 8.43255,-28.4309 16.41004,-28.4309 2.29979,0 6.13276,9.4054 6.13276,23.1306 0,20.1897 -11.95414,35.508 -22.5428,49.0188 -0.91027,-7.843 -1.67686,-15.686 -1.67686,-23.7127 0,-7.4448 0.59887,-13.9398 1.67686,-20.0058 m 4.59958,202.7538 c -21.91973,0 -40.62952,-19.6075 -40.62952,-49.2332 0,-23.8967 13.17589,-45.281 26.68713,-60.3849 2.58726,-2.7574 5.05478,-5.484 7.35457,-8.4252 1.36545,10.5697 2.44344,19.6075 3.52144,27.8488 -13.9663,5.0858 -23.45292,24.1111 -23.45292,42.34 0,13.9397 8.43255,32.7507 20.69807,32.7507 1.22165,0 2.61117,-0.7965 2.61117,-2.7572 0,-1.5626 -1.38952,-2.7268 -3.37776,-4.2893 -5.9891,-4.5342 -9.36688,-9.8037 -9.36688,-19.2398 0,-11.9484 7.06709,-21.5684 15.9547,-24.295 l 8.88774,64.3065 c -3.06638,0.7967 -5.82136,1.3786 -8.88774,1.3786 m 15.3319,-3.7376 c -3.21006,-23.3146 -7.35442,-54.5028 -8.43255,-63.1424 15.4757,0 22.08759,13.7253 23.45305,23.1615 0.16773,1.5624 0.4552,3.707 0.4552,6.066 0,14.1236 -4.59957,28.2472 -15.4757,33.9149"
     id="path120"
     style="stroke-width:1.73384" />
  <path
     class="Clef"
     d="m 208.53507,2593.5999 c 0,-7.2609 -5.19842,-10.3859 -10.25321,-10.3859 -6.44414,0 -12.74464,5.0857 -12.74464,13.9091 0,3.7377 1.07799,6.495 3.23412,9.2217 -4.00071,1.9607 -7.97749,5.8822 -7.97749,11.9789 0,6.4644 4.59957,10.7841 11.35525,10.7841 8.26483,0 14.08619,-5.8822 14.08619,-14.3379 0,-4.5036 -1.53319,-8.2107 -4.28817,-10.7842 4.45591,-2.5428 6.58795,-5.6678 6.58795,-10.3858 m -15.3319,31.372 c -3.35385,0 -5.65364,-2.7267 -5.65364,-6.8626 0,-3.9215 1.36547,-7.0465 3.97665,-9.0072 0.62292,0.3982 0.7666,0.3982 1.2218,0.7659 1.84458,1.1948 1.84458,1.1948 2.15612,1.5931 2.89864,2.1446 4.14436,4.1053 4.14436,6.8626 0,3.7071 -2.46751,6.6482 -5.84529,6.6482 m 5.84529,-23.529 c -2.29979,-1.5625 -2.92271,-1.9608 -3.37776,-2.3591 l -0.31154,-0.1838 c -2.29979,-1.7769 -3.06638,-3.1556 -3.06638,-5.4839 0,-3.5539 2.15611,-6.0968 5.22249,-6.0968 2.89866,0 4.74324,2.3591 4.74324,6.4644 0,3.1556 -0.91026,5.3001 -3.21005,7.6592 m 42.7616,-148.8333 c 0,-29.5951 -16.40989,-49.6009 -38.78495,-49.6009 -1.53319,-11.7645 -2.92258,-23.3451 -4.28803,-34.3131 16.09849,-21.7827 27.42968,-46.4759 27.42968,-77.4497 0,-17.8612 -4.28817,-32.3524 -6.89935,-39.4287 -3.66524,-9.9881 -8.12115,-16.8507 -10.73234,-16.8507 -1.05406,0 -5.96502,2.3588 -10.87613,9.9881 -9.96573,14.9193 -12.72058,39.7963 -12.72058,56.2789 0,10.6003 0.7666,20.1896 3.37777,42.3706 -0.16773,0 -8.14508,10.3859 -11.35525,13.9091 -13.9663,16.4826 -33.27499,40.3792 -33.27499,79.4104 0,36.856 24.98624,65.6852 53.518,65.6852 4.43183,0 8.5762,-0.5821 12.26552,-1.3787 2.75484,18.6578 4.59957,32.5669 4.59957,42.9527 0,20.4041 -8.28889,31.1882 -23.76445,31.1882 -3.68932,0 -6.89936,-0.9804 -7.21089,-1.1948 -0.14374,0 -0.45506,-0.1838 -0.45506,-0.3677 0,-0.3982 0.31138,-0.6127 0.76659,-0.7965 7.21074,-1.3787 14.39757,-9.4055 14.39757,-21.7521 0,-10.6003 -6.27656,-21.7827 -17.77548,-21.7827 -10.73234,0 -17.48789,11.1824 -17.48789,24.1111 0,12.9593 7.66595,30.024 28.36402,30.024 19.78767,0 29.44201,-14.338 29.44201,-39.4295 0,-7.6285 -0.91025,-16.4519 -2.44345,-27.6343 -0.45521,-3.9215 -1.2218,-10.0182 -2.29978,-17.463 15.02036,-6.4643 26.20789,-26.2863 26.20789,-46.4759 m -47.2175,-160.7816 c 1.53319,-7.843 8.43255,-28.4309 16.41004,-28.4309 2.29978,0 6.13276,9.4055 6.13276,23.1308 0,20.1896 -11.95414,35.508 -22.5428,49.0188 -0.91027,-7.8431 -1.67686,-15.6861 -1.67686,-23.7129 0,-7.4447 0.59887,-13.9397 1.67686,-20.0058 m 4.59957,202.7539 c -21.91972,0 -40.62951,-19.6075 -40.62951,-49.2332 0,-23.8966 13.17589,-45.2811 26.68713,-60.385 2.58726,-2.7573 5.05478,-5.484 7.35457,-8.4251 1.36545,10.5697 2.44344,19.6075 3.52143,27.8488 -13.96629,5.0857 -23.45291,24.1111 -23.45291,42.34 0,13.9397 8.43255,32.7506 20.69807,32.7506 1.22165,0 2.61117,-0.7965 2.61117,-2.7573 0,-1.5624 -1.38952,-2.7266 -3.37776,-4.2891 -5.98911,-4.5343 -9.36688,-9.8038 -9.36688,-19.2399 0,-11.9483 7.06709,-21.5682 15.95469,-24.2949 l 8.88775,64.3065 c -3.06638,0.7965 -5.82137,1.3786 -8.88775,1.3786 m 15.33191,-3.7376 c -3.21006,-23.3146 -7.35442,-54.5028 -8.43255,-63.1423 15.4757,0 22.08758,13.7252 23.45305,23.1613 0.16772,1.5625 0.4552,3.7071 0.4552,6.0661 0,14.1235 -4.59957,28.2471 -15.4757,33.9149"
     id="path122"
     style="stroke-width:1.73384" />
  <path
     class="TimeSig"
     d="m 501.51815,1178.914 v 14.4913 h -12.72072 c -1.07799,0 -2.15597,1.1947 -2.15597,2.7572 v 3.7378 c 0,1.5623 1.07798,2.7266 2.15597,2.7266 h 46.4509 c 1.24572,0 2.15599,-1.1643 2.15599,-2.7266 v -3.7378 c 0,-1.5625 -0.91027,-2.7572 -2.15599,-2.7572 h -13.79871 v -14.4913 h 13.79871 c 1.24572,0 2.15599,-1.3786 2.15599,-2.9411 v -3.7377 c 0,-1.3786 -0.91027,-2.7266 -2.15599,-2.7266 h -13.79871 v -31.1882 c 0,-1.1642 -0.4552,-2.1446 -1.05407,-2.5429 l -1.84457,-1.1948 c -0.31154,-0.1838 -0.45521,-0.1838 -0.76659,-0.1838 -0.16774,0 -0.16774,0 -0.31154,0 -0.45506,0 -1.078,0.1838 -1.38939,0.5821 l -13.94251,16.2681 c -0.45506,0.6127 -0.6228,1.3786 -0.6228,2.1752 v 16.0843 h -17.77546 c 0,0 17.1766,-23.529 35.26335,-54.5335 0.62292,-0.9804 0.76659,-1.9608 0.76659,-2.7266 0,-0.9804 -0.3114,-1.7769 -0.45505,-1.9608 l -3.37792,-4.3197 c -0.45506,-0.3983 -0.91027,-0.7967 -1.53319,-0.7967 -0.91027,0 -21.63225,0 -22.85406,0 -1.07798,0 -1.84457,1.1949 -1.98839,2.3592 0,0 -0.76659,14.5217 -4.7433,30.3916 -4.00067,15.9005 -8.60024,25.7042 -12.57695,32.9345 0,0 -0.45517,0.9804 -0.45517,2.1752 0,0.3983 0,0.766 0.14374,1.1642 0.45516,1.3786 1.53319,3.5233 1.53319,3.5233 0,0 0.31143,1.1947 1.67692,1.1947 h 26.3757"
     id="path124"
     style="stroke-width:1.73384" />
  <path
     class="TimeSig"
     d="m 501.51815,1276.9516 v 14.4913 h -12.72072 c -1.07799,0 -2.15597,1.1947 -2.15597,2.7572 v 3.7378 c 0,1.5623 1.07798,2.7266 2.15597,2.7266 h 46.4509 c 1.24572,0 2.15599,-1.1643 2.15599,-2.7266 v -3.7378 c 0,-1.5625 -0.91027,-2.7572 -2.15599,-2.7572 h -13.79871 v -14.4913 h 13.79871 c 1.24572,0 2.15599,-1.3787 2.15599,-2.9412 v -3.7376 c 0,-1.3787 -0.91027,-2.7267 -2.15599,-2.7267 h -13.79871 v -31.1882 c 0,-1.1642 -0.4552,-2.1446 -1.05407,-2.5428 l -1.84457,-1.1949 c -0.31154,-0.1838 -0.45521,-0.1838 -0.76659,-0.1838 -0.16774,0 -0.16774,0 -0.31154,0 -0.45506,0 -1.078,0.1838 -1.38939,0.5821 l -13.94251,16.2681 c -0.45506,0.6128 -0.6228,1.3787 -0.6228,2.1752 v 16.0843 h -17.77546 c 0,0 17.1766,-23.529 35.26335,-54.5335 0.62292,-0.9803 0.76659,-1.9607 0.76659,-2.7266 0,-0.9804 -0.3114,-1.7768 -0.45505,-1.9607 l -3.37792,-4.3198 c -0.45506,-0.3982 -0.91027,-0.7966 -1.53319,-0.7966 -0.91027,0 -21.63225,0 -22.85406,0 -1.07798,0 -1.84457,1.1949 -1.98839,2.3591 0,0 -0.76659,14.5218 -4.7433,30.3916 -4.00067,15.9005 -8.60024,25.7043 -12.57695,32.9345 0,0 -0.45517,0.9804 -0.45517,2.1752 0,0.3983 0,0.7661 0.14374,1.1643 0.45516,1.3786 1.53319,3.5233 1.53319,3.5233 0,0 0.31143,1.1947 1.67692,1.1947 h 26.3757"
     id="path126"
     style="stroke-width:1.73384" />
  <path
     class="Fingering"
     d="m 350.46256,2241.3575 -11.25319,1.1661 -0.19319,2.8858 h 1.49764 c 2.46362,0 3.45277,0.7116 3.45277,2.4905 0,0.7116 -0.19319,1.9173 -0.50694,3.4392 l -6.30277,27.1778 h 5.38471 l 2.53626,-11.1479 c 2.77736,-12.1163 8.40318,-21.248 13.03984,-21.248 1.6182,0 2.6089,1.0673 2.6089,3.0439 0,1.6208 -0.50695,4.9216 -1.25654,7.9063 l -4.92568,21.4457 h 5.36153 l 2.65526,-11.4641 c 1.54555,-6.582 3.09111,-10.9897 5.07251,-14.3894 2.22096,-3.9531 5.38471,-6.5424 7.72777,-6.5424 1.54556,0 2.41416,1.008 2.41416,2.9055 0,1.1069 -0.31375,2.8265 -0.8686,5.06 l -2.85,11.2467 c -1.66611,6.1471 -1.71402,6.6412 -1.71402,8.8155 0,3.3404 1.90721,5.5343 4.80512,5.5343 2.0525,0 4.03236,-1.265 6.13431,-3.7554 1.3029,-1.6208 2.14832,-3.0439 4.68458,-7.7679 l -1.90722,-1.6603 c -3.21321,6.1668 -5.50681,9.1712 -7.10028,9.1712 -0.67695,0 -1.30444,-0.8697 -1.30444,-1.9765 0,-0.7116 0.19319,-1.5813 0.74805,-3.8939 l 3.88861,-15.3183 c 0.4343,-1.7197 0.74805,-4.1904 0.74805,-5.9297 0,-4.1904 -2.41416,-7.1947 -5.74637,-7.1947 -4.39556,0 -8.35682,3.6368 -11.93014,11.1478 0.24111,-1.5022 0.36166,-2.8463 0.36166,-3.795 0,-4.2101 -2.60735,-7.3528 -5.98902,-7.3528 -3.9118,0 -6.73708,2.7869 -11.08472,10.6932 l 1.81139,-10.6932"
     id="path130"
     style="stroke-width:1.74782" />
  <path
     class="Fingering"
     d="m 3568.02,2352.4799 c -2.102,3.2415 -7.7742,5.6925 -13.4773,5.8506 v 3.4195 h 5.4404 c 3.6011,0.059 3.9566,0.5336 3.833,4.9809 v 31.6843 c 0,4.0322 0,4.1903 -0.3555,4.9019 -0.51,0.7708 -1.6692,1.1069 -5.1467,1.1069 h -4.003 v 3.7159 h 24.4816 v -3.7159 h -3.4002 c -3.4775,0 -4.6367,-0.3361 -5.1467,-1.1069 -0.4328,-0.7116 -0.4328,-0.8104 -0.4328,-4.9019 v -32.6528 c 0,-4.4078 0.1391,-8.1435 0.4328,-13.2825 h -2.2256"
     id="path132"
     style="stroke-width:1.74782" />
  <path
     class="Fingering"
     d="m 2201.8424,2376.001 c -8.6551,0 -14.961,12.0175 -14.961,28.6404 0,16.2671 6.1204,28.1858 14.4509,28.1858 8.6706,0 14.7292,-11.5234 14.7292,-27.9684 0,-8.3806 -1.3756,-15.3184 -3.9567,-20.7934 -2.4265,-4.981 -6.3831,-8.0644 -10.2624,-8.0644 m -0.4482,3.3997 c 2.0401,0 4.0184,1.7393 5.5176,4.9216 1.6692,3.6962 2.2101,8.2028 2.2101,19.0541 0,11.1478 -0.4327,16.3659 -1.6537,19.8249 -1.4374,3.8938 -3.6475,6.2262 -5.9968,6.2262 -2.1019,0 -4.0339,-1.7196 -5.5021,-4.8821 -1.7465,-3.7357 -2.2256,-8.5981 -2.2256,-21.5841 0,-9.2503 0.4327,-13.8359 1.6692,-17.3147 1.4219,-3.9531 3.6475,-6.2459 5.9813,-6.2459"
     id="path134"
     style="stroke-width:1.74782" />
  <path
     class="Fingering"
     d="m 2248.7499,2242.3062 -11.2516,1.186 -0.1855,2.866 h 1.4838 c 2.4729,0 3.462,0.7115 3.462,2.4904 0,0.7116 -0.2009,1.9173 -0.51,3.4393 l -6.3059,27.1777 h 5.394 l 2.5347,-11.1478 c 2.7666,-12.1163 8.3924,-21.2481 13.029,-21.2481 1.6229,0 2.612,1.0674 2.612,3.0439 0,1.6208 -0.51,4.9217 -1.2519,7.9063 l -4.9303,21.4457 h 5.3631 l 2.6583,-11.4641 c 1.5456,-6.5819 3.0911,-10.9896 5.0695,-14.3893 2.2256,-3.9532 5.3939,-6.5425 7.7277,-6.5425 1.5456,0 2.4111,1.0081 2.4111,2.9056 0,1.1069 -0.3091,2.8265 -0.8655,5.06 l -2.8438,11.2466 c -1.6692,6.1472 -1.7156,6.6413 -1.7156,8.8353 0,3.3206 1.901,5.5146 4.8067,5.5146 2.0556,0 4.0339,-1.265 6.1358,-3.7555 1.2983,-1.6208 2.1483,-3.0439 4.6831,-7.7679 l -1.9165,-1.6603 c -3.2148,6.1867 -5.5022,9.1713 -7.0941,9.1713 -0.6801,0 -1.2983,-0.8697 -1.2983,-1.9766 0,-0.7116 0.1855,-1.5812 0.7419,-3.8938 l 3.8948,-15.3184 c 0.4327,-1.7196 0.7418,-4.1903 0.7418,-5.9297 0,-4.1903 -2.411,-7.1947 -5.7494,-7.1947 -4.3894,0 -8.3615,3.6567 -11.9317,11.1478 0.2473,-1.5021 0.3709,-2.8462 0.3709,-3.795 0,-4.1903 -2.612,-7.3528 -5.9967,-7.3528 -3.9103,0 -6.7386,2.787 -11.0817,10.6932 l 1.8083,-10.6932"
     id="path136"
     style="stroke-width:1.74782" />
  <path
     class="Fingering"
     d="m 3626.2256,2223.015 c -1.8702,0 -3.3384,1.8975 -3.3384,4.2891 0,2.2731 1.4682,4.2496 3.2765,4.2496 1.9165,0 3.3848,-1.8975 3.3848,-4.2496 0,-2.3916 -1.4683,-4.2891 -3.3229,-4.2891 m 1.0973,19.2912 -11.8544,1.186 -0.2318,2.866 h 1.4682 c 2.5348,0 3.5239,0.7115 3.5239,2.4312 0,0.7708 -0.1236,1.68 -0.5564,3.4985 l -3.6011,15.4172 c -1.1592,5.0204 -1.3447,6.1273 -1.3447,7.9655 0,2.7672 1.8547,4.9019 4.2039,4.9019 5.3013,0 8.9488,-7.0366 11.5608,-12.1756 l -1.932,-1.3441 c -3.2147,6.2262 -5.7958,9.5666 -7.465,9.5666 -0.6182,0 -1.051,-0.7116 -1.051,-1.6603 0,-0.7709 0.2319,-2.2336 0.7419,-4.4276 l 6.5377,-28.2253"
     id="path138"
     style="stroke-width:1.74782" />
  <path
     class="Fingering"
     d="m 2718.0113,2223.015 c -1.8547,0 -3.323,1.8975 -3.323,4.2891 0,2.2731 1.4683,4.2496 3.2766,4.2496 1.9165,0 3.3848,-1.8975 3.3848,-4.2496 0,-2.3916 -1.4683,-4.2891 -3.3384,-4.2891 m 1.1128,19.2912 -11.8544,1.186 -0.2319,2.866 h 1.4683 c 2.5347,0 3.5239,0.7115 3.5239,2.4312 0,0.7708 -0.1237,1.68 -0.5564,3.4985 l -3.6012,15.4172 c -1.1591,5.0204 -1.3446,6.1273 -1.3446,7.9655 0,2.7672 1.8547,4.9019 4.2039,4.9019 5.3013,0 8.9488,-7.0366 11.5607,-12.1756 l -1.9319,-1.3441 c -3.2148,6.2262 -5.7958,9.5666 -7.465,9.5666 -0.6182,0 -1.0665,-0.7116 -1.0665,-1.6603 0,-0.7709 0.2473,-2.2336 0.7574,-4.4276 l 6.5377,-28.2253"
     id="path140"
     style="stroke-width:1.74782" />
  <path
     class="Fingering"
     d="m 3156.9488,2242.3062 -11.2516,1.186 -0.1855,2.866 h 1.4837 c 2.4729,0 3.4621,0.7115 3.4621,2.4904 0,0.7116 -0.201,1.9173 -0.5101,3.4393 l -6.3058,27.1777 h 5.394 l 2.5347,-11.1478 c 2.7665,-12.1163 8.4078,-21.2481 13.0444,-21.2481 1.6074,0 2.5966,1.0674 2.5966,3.0439 0,1.6208 -0.5101,4.9217 -1.2519,7.9063 l -4.9303,21.4457 h 5.363 l 2.6584,-11.4641 c 1.5455,-6.5819 3.0911,-10.9896 5.0694,-14.3893 2.2256,-3.9532 5.394,-6.5425 7.7278,-6.5425 1.5455,0 2.411,1.0081 2.411,2.9056 0,1.1069 -0.3091,2.8265 -0.8655,5.06 l -2.8438,11.2466 c -1.6692,6.1472 -1.7156,6.6413 -1.7156,8.8353 0,3.3206 1.9011,5.5146 4.8067,5.5146 2.0556,0 4.0339,-1.265 6.1359,-3.7555 1.2982,-1.6208 2.1483,-3.0439 4.683,-7.7679 l -1.9165,-1.6603 c -3.1993,6.1867 -5.5022,9.1713 -7.0941,9.1713 -0.68,0 -1.2982,-0.8697 -1.2982,-1.9766 0,-0.7116 0.1854,-1.5812 0.7418,-3.8938 l 3.8948,-15.3184 c 0.4328,-1.7196 0.7419,-4.1903 0.7419,-5.9297 0,-4.1903 -2.4111,-7.1947 -5.7495,-7.1947 -4.3894,0 -8.346,3.6567 -11.9317,11.1478 0.2473,-1.5021 0.371,-2.8462 0.371,-3.795 0,-4.1903 -2.612,-7.3528 -5.9968,-7.3528 -3.9102,0 -6.7386,2.787 -11.0816,10.6932 l 1.8083,-10.6932"
     id="path142"
     style="stroke-width:1.74782" />
  <path
     class="Fingering"
     d="m 3110.0412,2376.001 c -8.6551,0 -14.961,12.0175 -14.961,28.6404 0,16.2671 6.1204,28.1858 14.451,28.1858 8.6705,0 14.7291,-11.5234 14.7291,-27.9684 0,-8.3806 -1.3755,-15.3184 -3.9566,-20.7934 -2.4265,-4.981 -6.3832,-8.0644 -10.2625,-8.0644 m -0.4327,3.3997 c 2.0246,0 4.0029,1.7393 5.5021,4.9216 1.6692,3.6962 2.2256,8.2028 2.2256,19.0541 0,11.1478 -0.4482,16.3659 -1.6692,19.8249 -1.4219,3.8938 -3.6475,6.2262 -5.9967,6.2262 -2.102,0 -4.0339,-1.7196 -5.5022,-4.8821 -1.7465,-3.7357 -2.2256,-8.5981 -2.2256,-21.5841 0,-9.2503 0.4328,-13.8359 1.6692,-17.3147 1.4219,-3.9531 3.6475,-6.2459 5.9968,-6.2459"
     id="path144"
     style="stroke-width:1.74782" />
  <path
     class="Fingering"
     d="m 2661.3203,2353.5472 c 5.6258,-2.5893 8.2069,-6.6412 8.2069,-12.9662 0,-8.2818 -4.9458,-13.5988 -12.5963,-13.5988 -7.2486,0 -12.7353,5.4751 -12.7353,12.6698 0,3.2415 1.6692,5.5344 4.0802,5.5344 2.1484,0 3.6475,-1.9173 3.6475,-4.7636 0,-1.7393 -0.51,-2.7474 -1.9319,-4.0124 -0.6028,-0.5534 -0.7882,-0.9092 -0.7882,-1.4231 0,-2.2335 3.5702,-4.6054 7.0941,-4.6054 4.4666,0 6.8159,3.5578 6.8159,10.2781 0,7.3528 -2.3493,11.2269 -6.7387,11.2269 -0.5564,0 -1.6228,-0.079 -2.5347,-0.1581 -0.51,-0.059 -0.9891,-0.059 -1.3601,-0.059 -1.2982,0 -1.9783,0.7115 -1.9783,2.1149 0,1.3441 0.6028,1.9766 1.9783,1.9766 0.371,0 0.8501,0 1.4065,-0.079 1.2519,-0.059 2.2411,-0.059 2.9211,-0.059 4.5594,0 7.0477,4.1706 7.0477,11.9978 0,8.2225 -3.0911,12.7883 -8.6705,12.7883 -3.8794,0 -8.0833,-2.6881 -8.0833,-5.1193 0,-0.7115 0.1237,-0.8697 1.2983,-1.7394 1.7155,-1.344 2.3956,-2.6683 2.3956,-4.6449 0,-2.8858 -1.6692,-5.0205 -3.8948,-5.0205 -2.6584,0 -4.3739,2.787 -4.3739,6.9971 0,7.6493 5.4867,12.9267 13.4154,12.9267 8.9487,0 14.7755,-6.3052 14.7755,-16.0299 0,-7.4319 -2.9675,-11.9385 -9.397,-14.2313"
     id="path146"
     style="stroke-width:1.74782" />
  <path
     class="Fingering"
     d="m 1669.7388,2278.9517 c -2.102,3.2416 -7.7741,5.6925 -13.4772,5.8506 v 3.4195 h 5.4249 c 3.6011,0.059 3.972,0.5337 3.8484,4.9809 v 31.6843 c 0,4.0322 0,4.1904 -0.3709,4.9019 -0.4946,0.7709 -1.6538,1.1069 -5.1313,1.1069 h -4.0184 v 3.7159 h 24.497 v -3.7159 h -3.4157 c -3.4775,0 -4.6366,-0.336 -5.1467,-1.1069 -0.4327,-0.7115 -0.4327,-0.8104 -0.4327,-4.9019 v -32.6528 c 0,-4.4077 0.1545,-8.1434 0.4327,-13.2825 h -2.2101"
     id="path148"
     style="stroke-width:1.74782" />
  <path
     class="Fingering"
     d="m 1006.9802,1151.5238 c -2.1004,3.2436 -7.77573,5.6826 -13.47573,5.8368 v 3.4293 h 5.4342 c 3.59803,0.061 3.95973,0.5238 3.83923,4.9711 v 31.6883 c 0,4.044 0,4.2002 -0.3617,4.9098 -0.5069,0.7728 -1.6661,1.1108 -5.14363,1.1108 h -4.0092 v 3.706 h 24.48783 v -3.706 h -3.4049 c -3.4775,0 -4.6366,-0.338 -5.1451,-1.1108 -0.4343,-0.7096 -0.4343,-0.8025 -0.4343,-4.9098 v -32.645 c 0,-4.4156 0.1453,-8.1533 0.4343,-13.2805 h -2.221"
     id="path150"
     style="stroke-width:1.74782" />
  <path
     class="Fingering"
     d="m 1065.175,1022.047 c -1.8593,0 -3.3322,1.9153 -3.3322,4.2931 0,2.2849 1.4729,4.2615 3.2843,4.2615 1.9072,0 3.3801,-1.9153 3.3801,-4.2615 0,-2.3778 -1.4729,-4.2931 -3.3322,-4.2931 m 1.1112,19.3031 -11.8575,1.1721 -0.2426,2.872 h 1.4745 c 2.5347,0 3.5254,0.7115 3.5254,2.441 0,0.7709 -0.1206,1.6683 -0.5564,3.4887 l -3.5981,15.4113 c -1.1592,5.0343 -1.3523,6.1471 -1.3523,7.9695 0,2.779 1.8593,4.9098 4.2023,4.9098 5.3136,0 8.9596,-7.0425 11.5669,-12.1678 l -1.9319,-1.3598 c -3.2117,6.238 -5.7958,9.5744 -7.4619,9.5744 -0.6275,0 -1.0618,-0.7096 -1.0618,-1.6682 0,-0.7709 0.2411,-2.2236 0.748,-4.4156 l 6.5454,-28.2274"
     id="path152"
     style="stroke-width:1.74782" />
  <path
     class="Fingering"
     d="m 1422.1255,1175.0449 c -8.6397,0 -14.9455,12.0136 -14.9455,28.6305 0,16.2751 6.1049,28.1957 14.4354,28.1957 8.6706,0 14.7292,-11.5194 14.7292,-27.9802 0,-8.3688 -1.3756,-15.3184 -3.9566,-20.7856 -2.4111,-4.971 -6.3677,-8.0604 -10.2625,-8.0604 m -0.4328,3.3977 c 2.0247,0 4.003,1.7295 5.5022,4.9098 1.6692,3.7061 2.2256,8.2166 2.2256,19.0561 0,11.1498 -0.4328,16.3679 -1.6692,19.8269 -1.4219,3.8918 -3.6475,6.238 -5.9813,6.238 -2.102,0 -4.0339,-1.7295 -5.5176,-4.8781 -1.7311,-3.7377 -2.2102,-8.6179 -2.2102,-21.5881 0,-9.2661 0.4328,-13.8359 1.6692,-17.3265 1.4219,-3.9532 3.6321,-6.2381 5.9813,-6.2381"
     id="path154"
     style="stroke-width:1.74782" />
  <path
     class="Fingering"
     d="m 1469.0485,1041.3501 -11.2516,1.1721 -0.2009,2.872 h 1.4991 c 2.4575,0 3.4466,0.7115 3.4466,2.5023 0,0.7096 -0.1854,1.9153 -0.4945,3.4274 l -6.3059,27.1777 h 5.3785 l 2.5347,-11.1478 c 2.782,-12.1065 8.4079,-21.2481 13.0445,-21.2481 1.6228,0 2.612,1.0812 2.612,3.0578 0,1.605 -0.51,4.9098 -1.2519,7.9062 l -4.9303,21.4319 h 5.3631 l 2.6583,-11.4561 c 1.5456,-6.58 3.0911,-10.9957 5.0694,-14.3934 2.2102,-3.9531 5.3786,-6.5464 7.7278,-6.5464 1.5456,0 2.4111,1.018 2.4111,2.9036 0,1.1108 -0.3091,2.8403 -0.8655,5.064 l -2.8593,11.2427 c -1.6538,6.1451 -1.7156,6.6393 -1.7156,8.8313 0,3.3364 1.9165,5.5284 4.8067,5.5284 2.0556,0 4.0339,-1.265 6.1358,-3.7673 1.3138,-1.6069 2.1484,-3.0261 4.6831,-7.7521 l -1.9011,-1.6682 c -3.2147,6.1768 -5.5021,9.1732 -7.0941,9.1732 -0.68,0 -1.3137,-0.8657 -1.3137,-1.9765 0,-0.7096 0.2009,-1.5754 0.7573,-3.8919 l 3.8794,-15.3184 c 0.4327,-1.7295 0.7573,-4.2002 0.7573,-5.9297 0,-4.2002 -2.4265,-7.1947 -5.7495,-7.1947 -4.4048,0 -8.3614,3.6428 -11.9316,11.1478 0.2318,-1.512 0.3554,-2.8403 0.3554,-3.7989 0,-4.2002 -2.5965,-7.3489 -5.9813,-7.3489 -3.9102,0 -6.7386,2.7791 -11.0816,10.6853 l 1.8083,-10.6853"
     id="path156"
     style="stroke-width:1.74782" />
  <path
     class="Fingering"
     d="m 1846.5503,1152.5872 c 5.6258,-2.5952 8.2068,-6.6412 8.2068,-12.9722 0,-8.2759 -4.9457,-13.5889 -12.5962,-13.5889 -7.2487,0 -12.7354,5.4672 -12.7354,12.6619 0,3.2436 1.6692,5.5285 4.0803,5.5285 2.1483,0 3.6475,-1.9134 3.6475,-4.7557 0,-1.7294 -0.5101,-2.7494 -1.932,-4.0144 -0.6027,-0.5554 -0.7882,-0.8953 -0.7882,-1.4211 0,-2.2236 3.5702,-4.6014 7.0941,-4.6014 4.4667,0 6.8159,3.5518 6.8159,10.284 0,7.3509 -2.3492,11.2111 -6.7386,11.2111 -0.5564,0 -1.6229,-0.061 -2.5347,-0.1542 -0.5101,-0.061 -0.9892,-0.061 -1.3601,-0.061 -1.2983,0 -1.9783,0.7096 -1.9783,2.1308 0,1.3282 0.6027,1.9765 1.9783,1.9765 0.3709,0 0.85,0 1.4064,-0.093 1.2519,-0.061 2.2411,-0.061 2.9211,-0.061 4.5594,0 7.0478,4.1685 7.0478,12.0135 0,8.2146 -3.0911,12.7844 -8.6706,12.7844 -3.8793,0 -8.0833,-2.6861 -8.0833,-5.1252 0,-0.7116 0.1082,-0.8657 1.2983,-1.7295 1.7156,-1.3599 2.3956,-2.6881 2.3956,-4.6647 0,-2.8719 -1.6692,-5.0027 -3.8948,-5.0027 -2.6583,0 -4.3739,2.7791 -4.3739,6.9793 0,7.6592 5.4867,12.9405 13.4154,12.9405 8.9488,0 14.7755,-6.2993 14.7755,-16.0279 0,-7.4437 -2.9674,-11.9523 -9.3969,-14.2372"
     id="path158"
     style="stroke-width:1.74782" />
  <path
     class="Fingering"
     d="m 1903.2412,1022.047 c -1.8547,0 -3.3229,1.9153 -3.3229,4.2931 0,2.2849 1.4682,4.2615 3.2765,4.2615 1.9165,0 3.3848,-1.9153 3.3848,-4.2615 0,-2.3778 -1.4683,-4.2931 -3.3384,-4.2931 m 1.1128,19.3031 -11.8544,1.1721 -0.2473,2.872 h 1.4837 c 2.5347,0 3.5239,0.7115 3.5239,2.441 0,0.7709 -0.1236,1.6683 -0.5564,3.4887 l -3.6011,15.4113 c -1.1592,5.0343 -1.3447,6.1471 -1.3447,7.9695 0,2.779 1.8547,4.9098 4.2039,4.9098 5.3013,0 8.9488,-7.0425 11.5608,-12.1678 l -1.932,-1.3598 c -3.2147,6.238 -5.7958,9.5744 -7.465,9.5744 -0.6182,0 -1.0664,-0.7096 -1.0664,-1.6682 0,-0.7709 0.2473,-2.2236 0.7573,-4.4156 l 6.5377,-28.2274"
     id="path160"
     style="stroke-width:1.74782" />
  <path
     class="Fingering"
     d="m 630.97301,1041.3501 -11.25319,1.1721 -0.19319,2.872 h 1.49609 c 2.46362,0 3.45432,0.7115 3.45432,2.5023 0,0.7096 -0.1932,1.9153 -0.50694,3.4274 l -6.30432,27.1777 h 5.38626 l 2.53471,-11.1478 c 2.77736,-12.1065 8.40472,-21.2481 13.04139,-21.2481 1.61819,0 2.60735,1.0812 2.60735,3.0578 0,1.605 -0.50694,4.9098 -1.25499,7.9062 l -4.92723,21.4319 h 5.36153 l 2.65681,-11.4561 c 1.54555,-6.58 3.09111,-10.9957 5.07096,-14.3934 2.22251,-3.9531 5.38626,-6.5464 7.72778,-6.5464 1.54555,0 2.4157,1.018 2.4157,2.9036 0,1.1108 -0.31375,2.8403 -0.87015,5.064 l -2.85,11.2427 c -1.66611,6.1451 -1.71402,6.6393 -1.71402,8.8313 0,3.3364 1.90721,5.5284 4.80513,5.5284 2.05404,0 4.03389,-1.265 6.1343,-3.7673 1.30445,-1.6069 2.14987,-3.0261 4.68458,-7.7521 l -1.90721,-1.6682 c -3.21167,6.1768 -5.50527,9.1732 -7.10028,9.1732 -0.67541,0 -1.30291,-0.8657 -1.30291,-1.9765 0,-0.7096 0.1932,-1.5754 0.74805,-3.8919 l 3.88862,-15.3184 c 0.4343,-1.7295 0.74805,-4.2002 0.74805,-5.9297 0,-4.2002 -2.4157,-7.1947 -5.74792,-7.1947 -4.39556,0 -8.35527,3.6428 -11.93014,11.1478 0.24265,-1.512 0.36321,-2.8403 0.36321,-3.7989 0,-4.2002 -2.6089,-7.3489 -5.98903,-7.3489 -3.9118,0 -6.73861,2.7791 -11.08471,10.6853 l 1.81139,-10.6853"
     id="path162"
     style="stroke-width:1.74782" />
  <path
     class="Fingering"
     d="m 584.05615,1175.0449 c -8.64584,0 -14.94861,12.0136 -14.94861,28.6305 0,16.2751 6.10958,28.1957 14.44167,28.1957 8.66901,0 14.73068,-11.5194 14.73068,-27.9802 0,-8.3688 -1.37709,-15.3184 -3.96126,-20.7856 -2.41416,-4.971 -6.37541,-8.0604 -10.26248,-8.0604 m -0.4343,3.3977 c 2.02776,0 4.00762,1.7295 5.50526,4.9098 1.66611,3.7061 2.22251,8.2166 2.22251,19.0561 0,11.1498 -0.43585,16.3679 -1.66765,19.8269 -1.42346,3.8918 -3.64597,6.238 -5.98903,6.238 -2.10041,0 -4.03235,-1.7295 -5.50526,-4.8781 -1.73875,-3.7377 -2.22251,-8.6179 -2.22251,-21.5881 0,-9.2661 0.43584,-13.8359 1.66765,-17.3265 1.42346,-3.9532 3.64597,-6.2381 5.98903,-6.2381"
     id="path164"
     style="stroke-width:1.74782" />
  <path
     class="Fingering"
     d="m 2342.086,1101.5168 c -8.6397,0 -14.9455,12.0135 -14.9455,28.6305 0,16.275 6.1049,28.1957 14.4355,28.1957 8.6705,0 14.7446,-11.5195 14.7446,-27.9803 0,-8.3687 -1.3756,-15.3183 -3.9721,-20.7855 -2.4111,-4.9711 -6.3677,-8.0604 -10.2625,-8.0604 m -0.4328,3.3977 c 2.0247,0 4.0185,1.7295 5.5022,4.9098 1.6692,3.706 2.2256,8.2165 2.2256,19.056 0,11.1498 -0.4327,16.3679 -1.6692,19.8269 -1.4219,3.8919 -3.6475,6.238 -5.9813,6.238 -2.1019,0 -4.0339,-1.7294 -5.5022,-4.8781 -1.7464,-3.7377 -2.2256,-8.6178 -2.2256,-21.588 0,-9.2662 0.4328,-13.836 1.6692,-17.3266 1.422,-3.9531 3.6476,-6.238 5.9813,-6.238"
     id="path166"
     style="stroke-width:1.74782" />
  <path
     class="Fingering"
     d="m 2389.009,1040.3994 -11.2516,1.1741 -0.2009,2.8719 h 1.4992 c 2.4728,0 3.462,0.7096 3.462,2.5024 0,0.7095 -0.2009,1.9133 -0.51,3.4273 l -6.3059,27.1778 h 5.3785 l 2.5347,-11.1498 c 2.782,-12.1065 8.4079,-21.2481 13.0445,-21.2481 1.6229,0 2.612,1.0812 2.612,3.0578 0,1.6069 -0.51,4.9117 -1.2519,7.9062 l -4.9303,21.4339 h 5.3631 l 2.6583,-11.4581 c 1.5456,-6.5781 3.0911,-10.9937 5.0694,-14.3914 2.2256,-3.9532 5.3786,-6.5484 7.7278,-6.5484 1.5456,0 2.4111,1.0199 2.4111,2.9036 0,1.1128 -0.3091,2.8423 -0.8655,5.0659 l -2.8593,11.2408 c -1.6537,6.1451 -1.7001,6.6392 -1.7001,8.8332 0,3.3345 1.901,5.5285 4.7912,5.5285 2.0556,0 4.0339,-1.267 6.1359,-3.7693 1.3137,-1.605 2.1483,-3.0261 4.683,-7.7501 l -1.901,-1.6683 c -3.2148,6.1768 -5.5022,9.1713 -7.0941,9.1713 -0.6801,0 -1.3138,-0.8638 -1.3138,-1.9766 0,-0.7095 0.201,-1.5733 0.7574,-3.8898 l 3.8793,-15.3184 c 0.4328,-1.7295 0.7573,-4.2002 0.7573,-5.9297 0,-4.2002 -2.4265,-7.1967 -5.7494,-7.1967 -4.4049,0 -8.3615,3.6448 -11.9317,11.1498 0.2473,-1.5141 0.3555,-2.8423 0.3555,-3.799 0,-4.2002 -2.5966,-7.3508 -5.9813,-7.3508 -3.9103,0 -6.7387,2.779 -11.0817,10.6853 l 1.8083,-10.6853"
     id="path168"
     style="stroke-width:1.74782" />
  <path
     class="Fingering"
     d="m 2733.7759,1092.8001 c -2.1019,3.2436 -7.7741,5.6826 -13.4772,5.8368 v 3.4274 h 5.4403 c 3.5857,0.063 3.9567,0.5257 3.833,4.973 v 31.6863 c 0,4.046 0,4.2002 -0.3555,4.9117 -0.51,0.7709 -1.6692,1.1109 -5.1467,1.1109 h -4.0184 v 3.706 h 24.497 v -3.706 h -3.4002 c -3.4775,0 -4.6367,-0.34 -5.1467,-1.1109 -0.4327,-0.7115 -0.4327,-0.8044 -0.4327,-4.9117 v -32.643 c 0,-4.4176 0.1391,-8.1533 0.4327,-13.2805 h -2.2256"
     id="path170"
     style="stroke-width:1.74782" />
  <path
     class="Fingering"
     d="m 2823.2017,996.58689 c -1.8547,0 -3.3229,1.91529 -3.3229,4.29311 0,2.2869 1.4682,4.2634 3.2765,4.2634 1.9165,0 3.3848,-1.9153 3.3848,-4.2634 0,-2.37782 -1.4683,-4.29311 -3.3384,-4.29311 m 1.1128,19.30311 -11.8544,1.1741 -0.2318,2.8719 h 1.4683 c 2.5347,0 3.5238,0.7096 3.5238,2.4391 0,0.7729 -0.1236,1.6682 -0.5564,3.4906 l -3.6011,15.4113 c -1.1592,5.0343 -1.3447,6.1451 -1.3447,7.9675 0,2.7791 1.8547,4.9098 4.2039,4.9098 5.3013,0 8.9488,-7.0405 11.5608,-12.1677 l -1.9319,-1.3579 c -3.2148,6.238 -5.7959,9.5725 -7.4651,9.5725 -0.6182,0 -1.0664,-0.7096 -1.0664,-1.6663 0,-0.7728 0.2473,-2.2236 0.7573,-4.4176 l 6.5377,-28.2273"
     id="path172"
     style="stroke-width:1.74782" />
  <path
     class="Fingering"
     d="m 3180.163,1101.5168 c -8.6396,0 -14.9455,12.0135 -14.9455,28.6305 0,16.275 6.1049,28.1957 14.4355,28.1957 8.6706,0 14.7291,-11.5195 14.7291,-27.9803 0,-8.3687 -1.3755,-15.3183 -3.9566,-20.7855 -2.4111,-4.9711 -6.3677,-8.0604 -10.2625,-8.0604 m -0.4327,3.3977 c 2.0246,0 4.003,1.7295 5.5021,4.9098 1.6692,3.706 2.2256,8.2165 2.2256,19.056 0,11.1498 -0.4327,16.3679 -1.6692,19.8269 -1.4219,3.8919 -3.6475,6.238 -5.9813,6.238 -2.1019,0 -4.0339,-1.7294 -5.5176,-4.8781 -1.731,-3.7377 -2.2101,-8.6178 -2.2101,-21.588 0,-9.2662 0.4327,-13.836 1.6537,-17.3266 1.4374,-3.9531 3.6475,-6.238 5.9968,-6.238"
     id="path174"
     style="stroke-width:1.74782" />
  <path
     class="Fingering"
     d="m 3227.0861,1040.3994 -11.2671,1.1741 -0.1855,2.8719 h 1.4992 c 2.4574,0 3.4466,0.7096 3.4466,2.5024 0,0.7095 -0.1855,1.9133 -0.5101,3.4273 l -6.2904,27.1778 h 5.3786 l 2.5347,-11.1498 c 2.782,-12.1065 8.4078,-21.2481 13.0445,-21.2481 1.6228,0 2.6119,1.0812 2.6119,3.0578 0,1.6069 -0.51,4.9117 -1.2673,7.9062 l -4.9149,21.4339 h 5.3631 l 2.6429,-11.4581 c 1.5456,-6.5781 3.0911,-10.9937 5.0849,-14.3914 2.2101,-3.9532 5.3785,-6.5484 7.7277,-6.5484 1.5456,0 2.4111,1.0199 2.4111,2.9036 0,1.1128 -0.3246,2.8423 -0.8655,5.0659 l -2.8593,11.2408 c -1.6692,6.1451 -1.7155,6.6392 -1.7155,8.8332 0,3.3345 1.9164,5.5285 4.8066,5.5285 2.0556,0 4.0339,-1.267 6.1359,-3.7693 1.2983,-1.605 2.1483,-3.0261 4.683,-7.7501 l -1.901,-1.6683 c -3.2148,6.1768 -5.5176,9.1713 -7.1096,9.1713 -0.6646,0 -1.2982,-0.8638 -1.2982,-1.9766 0,-0.7095 0.1854,-1.5733 0.7418,-3.8898 l 3.8948,-15.3184 c 0.4328,-1.7295 0.7419,-4.2002 0.7419,-5.9297 0,-4.2002 -2.4111,-7.1967 -5.734,-7.1967 -4.4048,0 -8.3615,3.6448 -11.9317,11.1498 0.2318,-1.5141 0.3555,-2.8423 0.3555,-3.799 0,-4.2002 -2.612,-7.3508 -5.9813,-7.3508 -3.9257,0 -6.7386,2.779 -11.0971,10.6853 l 1.8238,-10.6853"
     id="path176"
     style="stroke-width:1.74782" />
  <path
     class="Fingering"
     d="m 3580.539,1111.5617 c 5.6258,-2.5953 8.2069,-6.6413 8.2069,-12.9722 0,-8.2759 -4.9458,-13.5889 -12.6118,-13.5889 -7.2332,0 -12.7199,5.4672 -12.7199,12.6619 0,3.2435 1.6692,5.5284 4.0803,5.5284 2.1483,0 3.6475,-1.9153 3.6475,-4.7556 0,-1.7295 -0.51,-2.7494 -1.932,-4.0144 -0.6027,-0.5574 -0.8036,-0.8954 -0.8036,-1.4212 0,-2.2236 3.5856,-4.6014 7.1095,-4.6014 4.4667,0 6.8005,3.5519 6.8005,10.2841 0,7.3508 -2.3338,11.211 -6.7387,11.211 -0.5564,0 -1.6073,-0.061 -2.5347,-0.1541 -0.4946,-0.063 -0.9891,-0.063 -1.3446,-0.063 -1.3137,0 -1.9783,0.7116 -1.9783,2.1327 0,1.3263 0.6027,1.9766 1.9783,1.9766 0.3555,0 0.85,0 1.391,-0.093 1.2673,-0.063 2.2565,-0.063 2.9365,-0.063 4.5594,0 7.0478,4.1706 7.0478,12.0156 0,8.2146 -3.0911,12.7844 -8.6706,12.7844 -3.8948,0 -8.0987,-2.6862 -8.0987,-5.1252 0,-0.7116 0.1236,-0.8658 1.3137,-1.7295 1.7156,-1.3599 2.3802,-2.6882 2.3802,-4.6647 0,-2.872 -1.6538,-5.0027 -3.8794,-5.0027 -2.6583,0 -4.3739,2.779 -4.3739,6.9792 0,7.6592 5.4867,12.9406 13.4,12.9406 8.9642,0 14.7909,-6.2993 14.7909,-16.028 0,-7.4437 -2.9829,-11.9522 -9.3969,-14.2371"
     id="path178"
     style="stroke-width:1.74782" />
  <path
     class="Fingering"
     d="m 3661.2787,972.0775 c -1.8546,0 -3.3229,1.91529 -3.3229,4.29309 0,2.28689 1.4683,4.26345 3.2766,4.26345 1.9165,0 3.3847,-1.91529 3.3847,-4.26345 0,-2.3778 -1.4682,-4.29309 -3.3384,-4.29309 m 1.1128,19.30312 -11.8544,1.17408 -0.2473,2.87194 h 1.4838 c 2.5347,0 3.5238,0.70959 3.5238,2.43908 0,0.77284 -0.1236,1.66822 -0.5564,3.49058 l -3.6011,15.4113 c -1.1592,5.0343 -1.3601,6.1451 -1.3601,7.9675 0,2.7791 1.8701,4.9098 4.2039,4.9098 5.3167,0 8.9642,-7.0405 11.5762,-12.1677 l -1.9319,-1.3579 c -3.2148,6.238 -5.7958,9.5725 -7.465,9.5725 -0.6337,0 -1.0665,-0.7096 -1.0665,-1.6663 0,-0.7728 0.2473,-2.2236 0.7573,-4.4176 l 6.5377,-28.22728"
     id="path180"
     style="stroke-width:1.74782" />
  <path
     class="Fingering"
     d="m 280.59885,2315.1426 c -8.64583,0 -14.94861,12.0175 -14.94861,28.6404 0,16.2671 6.10958,28.1858 14.44167,28.1858 8.66901,0 14.73068,-11.5234 14.73068,-27.9684 0,-8.3806 -1.37709,-15.3184 -3.95971,-20.7934 -2.4157,-4.981 -6.37542,-8.0644 -10.26403,-8.0644 m -0.4343,3.3997 c 2.02777,0 4.00762,1.7394 5.50526,4.9019 1.66611,3.7159 2.22251,8.2225 2.22251,19.0738 0,11.1478 -0.43584,16.3659 -1.66611,19.8249 -1.425,3.8939 -3.64751,6.2262 -5.98902,6.2262 -2.10196,0 -4.0339,-1.7196 -5.50681,-4.8821 -1.73875,-3.7357 -2.22096,-8.6178 -2.22096,-21.5841 0,-9.2701 0.4343,-13.8359 1.6661,-17.3147 1.42501,-3.9531 3.64597,-6.2459 5.98903,-6.2459"
     id="path182"
     style="stroke-width:1.74782" />
  <path
     class="Fingering"
     d="m 763.03138,2280.0191 c 5.62736,-2.5893 8.21153,-6.6413 8.21153,-12.9663 0,-8.2818 -4.95196,-13.5988 -12.60709,-13.5988 -7.24401,0 -12.72609,5.4751 -12.72609,12.6698 0,3.2416 1.6661,5.5344 4.08181,5.5344 2.14832,0 3.64596,-1.9173 3.64596,-4.7635 0,-1.7394 -0.50694,-2.7475 -1.93194,-4.0125 -0.60432,-0.5534 -0.79751,-0.9092 -0.79751,-1.4231 0,-2.2335 3.57487,-4.6054 7.10028,-4.6054 4.4682,0 6.80971,3.5578 6.80971,10.2782 0,7.3528 -2.34151,11.2268 -6.73707,11.2268 -0.55486,0 -1.6182,-0.079 -2.53626,-0.1581 -0.50694,-0.059 -0.98915,-0.059 -1.35236,-0.059 -1.3029,0 -1.97985,0.7116 -1.97985,2.1149 0,1.3441 0.60431,1.9766 1.97985,1.9766 0.36321,0 0.84542,0 1.40182,-0.079 1.25499,-0.059 2.24569,-0.059 2.9211,-0.059 4.56402,0 7.05237,4.1706 7.05237,11.9978 0,8.2225 -3.09111,12.7884 -8.67057,12.7884 -3.88707,0 -8.08943,-2.6882 -8.08943,-5.1193 0,-0.7116 0.12055,-0.8697 1.30445,-1.7394 1.71402,-1.3441 2.39097,-2.6684 2.39097,-4.6449 0,-2.8858 -1.66765,-5.0205 -3.88861,-5.0205 -2.65681,0 -4.37083,2.7869 -4.37083,6.997 0,7.6493 5.48208,12.9267 13.40305,12.9267 8.95958,0 14.77859,-6.3052 14.77859,-16.0299 0,-7.4319 -2.97055,-11.9384 -9.39388,-14.2312"
     id="path184"
     style="stroke-width:1.74782" />
  <path
     class="Fingering"
     d="m 819.72851,2173.0474 c -1.8593,0 -3.33222,1.8975 -3.33222,4.2892 0,2.273 1.47292,4.2496 3.28431,4.2496 1.90721,0 3.38012,-1.9173 3.38012,-4.2496 0,-2.3917 -1.47291,-4.2892 -3.33221,-4.2892 m 1.11125,19.2913 -11.85749,1.1662 -0.24111,2.8858 h 1.47291 c 2.53626,0 3.52541,0.7115 3.52541,2.4311 0,0.7709 -0.12055,1.6801 -0.55485,3.4985 l -3.59805,15.3975 c -1.15917,5.0402 -1.35236,6.1471 -1.35236,7.9853 0,2.7672 1.8593,4.9019 4.20082,4.9019 5.31361,0 8.95958,-7.0366 11.56847,-12.1757 l -1.93194,-1.344 c -3.21166,6.2261 -5.79583,9.5665 -7.46194,9.5665 -0.62904,0 -1.06334,-0.7115 -1.06334,-1.6603 0,-0.7708 0.24111,-2.2335 0.74959,-4.4275 l 6.54388,-28.2253"
     id="path186"
     style="stroke-width:1.74782" />
  <path
     class="Fingering"
     d="m 1211.7461,2302.4728 c -8.6458,0 -14.9486,12.0175 -14.9486,28.6404 0,16.2671 6.1096,28.1858 14.4417,28.1858 8.669,0 14.7307,-11.5233 14.7307,-27.9684 0,-8.3806 -1.3771,-15.3183 -3.9598,-20.7934 -2.4157,-4.9809 -6.3754,-8.0644 -10.264,-8.0644 m -0.4343,3.3997 c 2.0278,0 4.0076,1.7394 5.5053,4.9216 1.6661,3.6962 2.2225,8.2028 2.2225,19.0541 0,11.1478 -0.4359,16.366 -1.6661,19.825 -1.425,3.8938 -3.6475,6.2261 -5.989,6.2261 -2.102,0 -4.0339,-1.7196 -5.5069,-4.8821 -1.7387,-3.7357 -2.2209,-8.598 -2.2209,-21.5841 0,-9.2503 0.4343,-13.8359 1.6661,-17.3147 1.425,-3.9531 3.646,-6.2459 5.989,-6.2459"
     id="path188"
     style="stroke-width:1.74782" />
  <path
     class="Fingering"
     d="m 1258.663,2241.3575 -11.2532,1.1661 -0.1932,2.8858 h 1.4961 c 2.4636,0 3.4543,0.7116 3.4543,2.4905 0,0.7116 -0.1932,1.9173 -0.5069,3.4392 l -6.3028,27.1778 h 5.3847 l 2.5363,-11.1479 c 2.7758,-12.1163 8.4031,-21.248 13.0398,-21.248 1.6182,0 2.6089,1.0673 2.6089,3.0439 0,1.6208 -0.5085,4.9216 -1.2565,7.9063 l -4.9257,21.4457 h 5.36 l 2.6568,-11.4641 c 1.5455,-6.582 3.0911,-10.9897 5.0709,-14.3894 2.2226,-3.9531 5.3863,-6.5424 7.7278,-6.5424 1.5456,0 2.4157,1.008 2.4157,2.9055 0,1.1069 -0.3137,2.8265 -0.8701,5.06 l -2.8485,11.2467 c -1.6676,6.1471 -1.7156,6.6412 -1.7156,8.8155 0,3.3404 1.9088,5.5343 4.8067,5.5343 2.0525,0 4.0324,-1.265 6.1328,-3.7554 1.3044,-1.6208 2.1499,-3.0439 4.6861,-7.7679 l -1.9088,-1.6603 c -3.2116,6.1668 -5.5052,9.1712 -7.1002,9.1712 -0.6754,0 -1.3029,-0.8697 -1.3029,-1.9765 0,-0.7116 0.1932,-1.5813 0.748,-3.8939 l 3.8886,-15.3183 c 0.4343,-1.7197 0.7481,-4.1904 0.7481,-5.9297 0,-4.1904 -2.4142,-7.1947 -5.7479,-7.1947 -4.3941,0 -8.3553,3.6368 -11.9286,11.1478 0.2411,-1.5022 0.3616,-2.8463 0.3616,-3.795 0,-4.2101 -2.6089,-7.3528 -5.989,-7.3528 -3.9118,0 -6.7371,2.7869 -11.0847,10.6932 l 1.8114,-10.6932"
     id="path190"
     style="stroke-width:1.74782" />
  <path
     class="Fingering"
     d="m 1727.9289,2197.5568 c -1.8546,0 -3.3384,1.8975 -3.3384,4.2892 0,2.273 1.4838,4.2496 3.2921,4.2496 1.901,0 3.3847,-1.9173 3.3847,-4.2496 0,-2.3917 -1.4837,-4.2892 -3.3384,-4.2892 m 1.1128,19.2913 -11.8544,1.1662 -0.2473,2.8857 h 1.4683 c 2.5347,0 3.5239,0.7116 3.5239,2.4312 0,0.7709 -0.1082,1.6801 -0.541,3.4985 l -3.6011,15.3975 c -1.1592,5.0402 -1.3601,6.1471 -1.3601,7.9853 0,2.7672 1.8701,4.9019 4.2039,4.9019 5.3167,0 8.9642,-7.0366 11.5762,-12.1757 l -1.9319,-1.344 c -3.2148,6.2261 -5.7959,9.5665 -7.4651,9.5665 -0.6336,0 -1.0664,-0.7115 -1.0664,-1.6603 0,-0.7708 0.2473,-2.2335 0.7419,-4.4275 l 6.5531,-28.2253"
     id="path192"
     style="stroke-width:1.74782" />
  <metadata
     id="metadata982">
    <rdf:RDF>
      <cc:Work
         rdf:about="">
        <dc:title>exo_corde_mi_si_2</dc:title>
      </cc:Work>
    </rdf:RDF>
  </metadata>
</svg>
