<?xml version="1.0" encoding="UTF-8" standalone="no"?>
<!-- Created with Inkscape (http://www.inkscape.org/) -->

<svg
   width="297mm"
   height="210mm"
   viewBox="0 0 297 210"
   version="1.1"
   id="svg1"
   inkscape:version="1.2.2 (b0a8486541, 2022-12-01)"
   sodipodi:docname="note_si_mi.svg"
   xmlns:inkscape="http://www.inkscape.org/namespaces/inkscape"
   xmlns:sodipodi="http://sodipodi.sourceforge.net/DTD/sodipodi-0.dtd"
   xmlns="http://www.w3.org/2000/svg"
   xmlns:svg="http://www.w3.org/2000/svg">
  <sodipodi:namedview
     id="namedview1"
     pagecolor="#ffffff"
     bordercolor="#000000"
     borderopacity="0.25"
     inkscape:showpageshadow="2"
     inkscape:pageopacity="0.0"
     inkscape:pagecheckerboard="0"
     inkscape:deskcolor="#d1d1d1"
     inkscape:document-units="mm"
     inkscape:zoom="0.52560325"
     inkscape:cx="594.55492"
     inkscape:cy="345.3175"
     inkscape:window-width="1280"
     inkscape:window-height="651"
     inkscape:window-x="0"
     inkscape:window-y="32"
     inkscape:window-maximized="1"
     inkscape:current-layer="layer1"
     showgrid="false" />
  <defs
     id="defs1" />
  <g
     inkscape:label="Calque 1"
     inkscape:groupmode="layer"
     id="layer1">
    <rect
       style="fill:#333333;fill-rule:evenodd;stroke-width:0.343873;stroke-linecap:round;stroke-linejoin:bevel"
       id="rect1"
       width="6.7260275"
       height="1.2537866"
       x="80.577919"
       y="93.582596"
       transform="matrix(0.99915251,0.04116143,-0.02662414,0.99964551,0,0)" />
    <rect
       style="fill:#333333;fill-rule:evenodd;stroke-width:0.343873;stroke-linecap:round;stroke-linejoin:bevel"
       id="rect1-1"
       width="6.7260275"
       height="1.2537866"
       x="93.961922"
       y="93.596413"
       transform="matrix(0.99915251,0.04116143,-0.02662414,0.99964551,0,0)" />
    <rect
       style="fill:#333333;fill-rule:evenodd;stroke-width:0.343873;stroke-linecap:round;stroke-linejoin:bevel"
       id="rect1-0"
       width="6.7260275"
       height="1.2537866"
       x="85.153076"
       y="86.814842"
       transform="matrix(0.99915251,0.04116143,-0.02662414,0.99964551,0,0)" />
    <rect
       style="fill:#333333;fill-rule:evenodd;stroke-width:0.343873;stroke-linecap:round;stroke-linejoin:bevel"
       id="rect1-0-6"
       width="6.7260275"
       height="1.2537866"
       x="106.72123"
       y="39.139721"
       transform="matrix(0.99915251,0.04116143,-0.02662414,0.99964551,0,0)" />
    <rect
       style="fill:#333333;fill-rule:evenodd;stroke-width:0.449804;stroke-linecap:round;stroke-linejoin:bevel"
       id="rect3-6"
       width="1.0491391"
       height="8.3665094"
       x="51.43589"
       y="117.04776"
       transform="matrix(0.93048247,-0.36633642,0.34713896,0.9378137,0,0)" />
    <rect
       style="fill:#333333;fill-rule:evenodd;stroke-width:0.338543;stroke-linecap:round;stroke-linejoin:bevel"
       id="rect3-6-7"
       width="1.0491391"
       height="4.7394032"
       x="89.17453"
       y="82.016258"
       transform="matrix(0.93048247,-0.36633642,0.34713896,0.9378137,0,0)" />
    <rect
       style="fill:#333333;fill-rule:evenodd;stroke-width:0.449804;stroke-linecap:round;stroke-linejoin:bevel"
       id="rect3"
       width="1.0491391"
       height="8.3665094"
       x="45.253742"
       y="114.25941"
       transform="matrix(0.93048247,-0.36633642,0.34713896,0.9378137,0,0)" />
    <rect
       style="fill:#333333;fill-rule:evenodd;stroke-width:1.49761;stroke-linecap:round;stroke-linejoin:bevel"
       id="rect5"
       width="52.034191"
       height="0.66068262"
       x="-40.741505"
       y="113.88318"
       transform="matrix(0.44999892,-0.8930291,0.88139044,0.4723885,0,0)" />
    <rect
       style="fill:#333333;fill-rule:evenodd;stroke-width:1.13863;stroke-linecap:round;stroke-linejoin:bevel"
       id="rect5-1"
       width="39.495136"
       height="0.50316101"
       x="-9.184041"
       y="154.96614"
       transform="matrix(0.50520133,-0.86300151,0.84889691,0.52855844,0,0)" />
    <rect
       style="fill:#333333;fill-rule:evenodd;stroke-width:1.13173;stroke-linecap:round;stroke-linejoin:bevel"
       id="rect5-66"
       width="39.255619"
       height="0.50010961"
       x="6.5045419"
       y="193.47768"
       transform="matrix(0.50520133,-0.86300151,0.84889691,0.52855844,0,0)" />
    <rect
       style="fill:#333333;fill-rule:evenodd;stroke-width:1.16832;stroke-linecap:round;stroke-linejoin:bevel"
       id="rect5-7"
       width="40.524883"
       height="0.51627982"
       x="21.758047"
       y="231.86299"
       transform="matrix(0.50520133,-0.86300151,0.84889691,0.52855844,0,0)" />
    <rect
       style="fill:#333333;fill-rule:evenodd;stroke-width:1.49292;stroke-linecap:round;stroke-linejoin:bevel"
       id="rect5-9"
       width="51.87104"
       height="0.65861106"
       x="-37.786758"
       y="120.1376"
       transform="matrix(0.44999892,-0.8930291,0.88139044,0.4723885,0,0)" />
    <rect
       style="fill:#333333;fill-rule:evenodd;stroke-width:1.48251;stroke-linecap:round;stroke-linejoin:bevel"
       id="rect5-6"
       width="51.509266"
       height="0.65401769"
       x="-40.055042"
       y="122.7389"
       transform="matrix(0.44999892,-0.8930291,0.88139044,0.4723885,0,0)" />
    <rect
       style="fill:#333333;fill-rule:evenodd;stroke-width:1.78119;stroke-linecap:round;stroke-linejoin:bevel"
       id="rect6"
       width="182.8524"
       height="0.56884742"
       x="99.146103"
       y="30.938808"
       transform="matrix(0.98664825,0.16286567,-0.15336063,0.98817029,0,0)" />
    <rect
       style="fill:#333333;fill-rule:evenodd;stroke-width:1.78119;stroke-linecap:round;stroke-linejoin:bevel"
       id="rect6-0"
       width="182.8524"
       height="0.56884742"
       x="96.750031"
       y="37.529987"
       transform="matrix(0.98664825,0.16286567,-0.15336063,0.98817029,0,0)" />
    <rect
       style="fill:#333333;fill-rule:evenodd;stroke-width:1.78106;stroke-linecap:round;stroke-linejoin:bevel"
       id="rect6-0-0"
       width="183.39037"
       height="0.56709927"
       x="95.14566"
       y="43.748505"
       transform="matrix(0.98600054,0.1667421,-0.16427745,0.98641417,0,0)" />
    <rect
       style="fill:#333333;fill-rule:evenodd;stroke-width:1.6488;stroke-linecap:round;stroke-linejoin:bevel"
       id="rect7"
       width="186.59175"
       height="1.1169696"
       x="91.596474"
       y="50.011364"
       transform="matrix(0.98573046,0.16833143,-0.15852409,0.98735511,0,0)" />
    <rect
       style="fill:#333333;fill-rule:evenodd;stroke-width:1.66438;stroke-linecap:round;stroke-linejoin:bevel"
       id="rect7-8"
       width="188.35419"
       height="1.1275197"
       x="89.464569"
       y="58.424942"
       transform="matrix(0.98573046,0.16833143,-0.15852409,0.98735511,0,0)" />
    <rect
       style="fill:#333333;fill-rule:evenodd;stroke-width:1.64384;stroke-linecap:round;stroke-linejoin:bevel"
       id="rect7-8-8"
       width="187.32896"
       height="1.1058837"
       x="88.693817"
       y="67.72982"
       transform="matrix(0.98690503,0.16130239,-0.16889236,0.9856345,0,0)" />
    <text
       xml:space="preserve"
       style="font-size:10.1023px;fill:#ffffff;fill-rule:evenodd;stroke-width:0.447046;stroke-linecap:round;stroke-linejoin:bevel;stroke-dasharray:none"
       x="67.799141"
       y="77.471344"
       id="text7"
       transform="matrix(0.9199452,-0.36218784,0.35118932,0.94875597,0,0)"><tspan
         sodipodi:role="line"
         id="tspan7"
         style="font-style:normal;font-variant:normal;font-weight:normal;font-stretch:normal;font-size:10.1023px;font-family:'Adobe Arabic';-inkscape-font-specification:'Adobe Arabic';fill:#ffffff;stroke:#666666;stroke-width:0.447046;stroke-dasharray:none"
         x="67.799141"
         y="77.471344">Mi</tspan></text>
    <text
       xml:space="preserve"
       style="font-size:10.1023px;fill:#ffffff;fill-rule:evenodd;stroke-width:0.447046;stroke-linecap:round;stroke-linejoin:bevel;stroke-dasharray:none"
       x="60.46204"
       y="81.882919"
       id="text7-8"
       transform="matrix(0.9199452,-0.36218784,0.35118932,0.94875597,0,0)"><tspan
         sodipodi:role="line"
         id="tspan7-7"
         style="font-style:normal;font-variant:normal;font-weight:normal;font-stretch:normal;font-size:10.1023px;font-family:'Adobe Arabic';-inkscape-font-specification:'Adobe Arabic';fill:#ffffff;stroke:#666666;stroke-width:0.447046;stroke-dasharray:none"
         x="60.46204"
         y="81.882919">Si</tspan></text>
    <text
       xml:space="preserve"
       style="font-size:11.2248px;fill:#ffffff;fill-rule:evenodd;stroke-width:0.447046;stroke-linecap:round;stroke-linejoin:bevel;stroke-dasharray:none"
       x="101.43542"
       y="93.704369"
       id="text7-2"
       transform="matrix(0.92851722,-0.33812271,0.32785498,0.95759644,0,0)"><tspan
         sodipodi:role="line"
         id="tspan7-3"
         style="font-style:normal;font-variant:normal;font-weight:normal;font-stretch:normal;font-size:11.2248px;font-family:'Adobe Arabic';-inkscape-font-specification:'Adobe Arabic';fill:#ffffff;stroke:#666666;stroke-width:0.447046;stroke-dasharray:none"
         x="101.43542"
         y="93.704369">Fa</tspan></text>
    <text
       xml:space="preserve"
       style="font-size:11.2248px;fill:#ffffff;fill-rule:evenodd;stroke-width:0.447046;stroke-linecap:round;stroke-linejoin:bevel;stroke-dasharray:none"
       x="96.214554"
       y="99.116364"
       id="text7-2-4"
       transform="matrix(0.92851722,-0.33812271,0.32785498,0.95759644,0,0)"><tspan
         sodipodi:role="line"
         id="tspan7-3-6"
         style="font-style:normal;font-variant:normal;font-weight:normal;font-stretch:normal;font-size:11.2248px;font-family:'Adobe Arabic';-inkscape-font-specification:'Adobe Arabic';fill:#ffffff;stroke:#666666;stroke-width:0.447046;stroke-dasharray:none"
         x="96.214554"
         y="99.116364">Do</tspan></text>
    <text
       xml:space="preserve"
       style="font-size:11.2248px;fill:#ffffff;fill-rule:evenodd;stroke-width:0.447046;stroke-linecap:round;stroke-linejoin:bevel;stroke-dasharray:none"
       x="167.38632"
       y="138.49123"
       id="text7-2-4-6"
       transform="matrix(0.92851722,-0.33812271,0.32785498,0.95759644,0,0)"><tspan
         sodipodi:role="line"
         id="tspan7-3-6-8"
         style="font-style:normal;font-variant:normal;font-weight:normal;font-stretch:normal;font-size:11.2248px;font-family:'Adobe Arabic';-inkscape-font-specification:'Adobe Arabic';fill:#ffffff;stroke:#666666;stroke-width:0.447046;stroke-dasharray:none"
         x="167.38632"
         y="138.49123">Ré</tspan></text>
    <text
       xml:space="preserve"
       style="font-size:11.2248px;fill:#ffffff;fill-rule:evenodd;stroke-width:0.447046;stroke-linecap:round;stroke-linejoin:bevel;stroke-dasharray:none"
       x="172.42365"
       y="132.35275"
       id="text7-2-1"
       transform="matrix(0.92851722,-0.33812271,0.32785498,0.95759644,0,0)"><tspan
         sodipodi:role="line"
         id="tspan7-3-8"
         style="font-style:normal;font-variant:normal;font-weight:normal;font-stretch:normal;font-size:11.2248px;font-family:'Adobe Arabic';-inkscape-font-specification:'Adobe Arabic';fill:#ffffff;stroke:#666666;stroke-width:0.447046;stroke-dasharray:none"
         x="172.42365"
         y="132.35275">Sol</tspan></text>
    <polyline
       class="StaffLines"
       fill="none"
       stroke="#000000"
       stroke-width="2.73"
       stroke-linejoin="bevel"
       points="336.599,634.199 2764.6,634.199"
       id="polyline1"
       transform="matrix(0.10253958,0,0,0.16902991,-11.800978,52.544691)" />
    <polyline
       class="StaffLines"
       fill="none"
       stroke="#000000"
       stroke-width="2.73"
       stroke-linejoin="bevel"
       points="336.599,658.999 2764.6,658.999"
       id="polyline2"
       transform="matrix(0.10253958,0,0,0.16902991,-11.800978,52.544691)" />
    <polyline
       class="StaffLines"
       fill="none"
       stroke="#000000"
       stroke-width="2.73"
       stroke-linejoin="bevel"
       points="336.599,683.799 2764.6,683.799"
       id="polyline3"
       transform="matrix(0.10253958,0,0,0.16902991,-11.800978,52.544691)" />
    <polyline
       class="StaffLines"
       fill="none"
       stroke="#000000"
       stroke-width="2.73"
       stroke-linejoin="bevel"
       points="336.599,708.599 2764.6,708.599"
       id="polyline4"
       transform="matrix(0.10253958,0,0,0.16902991,-11.800978,52.544691)" />
    <polyline
       class="StaffLines"
       fill="none"
       stroke="#000000"
       stroke-width="2.73"
       stroke-linejoin="bevel"
       points="336.599,733.399 2764.6,733.399"
       id="polyline5"
       transform="matrix(0.10253958,0,0,0.16902991,-11.800978,52.544691)" />
    <polyline
       class="BarLine"
       fill="none"
       stroke="#000000"
       stroke-width="4.46"
       stroke-linejoin="bevel"
       points="2739.55,632.835 2739.55,734.763"
       id="polyline6"
       transform="matrix(0.10253958,0,0,0.16902991,-11.800978,52.544691)" />
    <polyline
       class="BarLine"
       fill="none"
       stroke="#000000"
       stroke-width="13.64"
       stroke-linejoin="bevel"
       points="2757.78,632.835 2757.78,734.763"
       id="polyline7"
       transform="matrix(0.10253958,0,0,0.16902991,-11.800978,52.544691)" />
    <polyline
       class="Stem"
       fill="none"
       stroke="#000000"
       stroke-width="2.48"
       stroke-linejoin="bevel"
       points="536.774,687.965 536.774,758.199"
       id="polyline8"
       transform="matrix(0.10253958,0,0,0.16902991,-11.800978,52.544691)" />
    <polyline
       class="Stem"
       fill="none"
       stroke="#000000"
       stroke-width="2.48"
       stroke-linejoin="bevel"
       points="903.738,675.565 903.738,751.999"
       id="polyline9"
       transform="matrix(0.10253958,0,0,0.16902991,-11.800978,52.544691)" />
    <polyline
       class="Stem"
       fill="none"
       stroke="#000000"
       stroke-width="2.48"
       stroke-linejoin="bevel"
       points="1270.7,663.165 1270.7,745.799"
       id="polyline10"
       transform="matrix(0.10253958,0,0,0.16902991,-11.800978,52.544691)" />
    <polyline
       class="Stem"
       fill="none"
       stroke="#000000"
       stroke-width="2.48"
       stroke-linejoin="bevel"
       points="1637.67,650.765 1637.67,733.399"
       id="polyline11"
       transform="matrix(0.10253958,0,0,0.16902991,-11.800978,52.544691)" />
    <polyline
       class="Stem"
       fill="none"
       stroke="#000000"
       stroke-width="2.48"
       stroke-linejoin="bevel"
       points="2004.63,638.365 2004.63,720.999"
       id="polyline12"
       transform="matrix(0.10253958,0,0,0.16902991,-11.800978,52.544691)" />
    <polyline
       class="Stem"
       fill="none"
       stroke="#000000"
       stroke-width="2.48"
       stroke-linejoin="bevel"
       points="2371.6,625.965 2371.6,708.599"
       id="polyline13"
       transform="matrix(0.10253958,0,0,0.16902991,-11.800978,52.544691)" />
    <path
       class="Note"
       d="m 43.112461,168.83197 c 0,0.72049 0.314691,1.5248 1.139574,1.5248 1.056934,0 2.166305,-1.42524 2.166305,-2.90031 0,-0.99035 -0.508599,-1.54315 -1.139573,-1.54315 -0.986992,0 -2.166306,1.37549 -2.166306,2.91866"
       id="path13"
       style="stroke-width:0.130598" />
    <path
       class="Note"
       d="m 80.740798,166.736 c 0,0.72046 0.314697,1.52482 1.139574,1.52482 1.056934,0 2.166305,-1.42527 2.166305,-2.90032 0,-0.99034 -0.508593,-1.54315 -1.139574,-1.54315 -0.986991,0 -2.166305,1.37548 -2.166305,2.91865"
       id="path14"
       style="stroke-width:0.130598" />
    <path
       class="Note"
       d="m 118.36892,164.64001 c 0,0.72049 0.31471,1.52483 1.13957,1.52483 1.05695,0 2.16632,-1.42527 2.16632,-2.9003 0,-0.99036 -0.5086,-1.54316 -1.13958,-1.54316 -0.98698,0 -2.16631,1.37548 -2.16631,2.91863"
       id="path15"
       style="stroke-width:0.130598" />
    <path
       class="Note"
       d="m 155.99788,162.54407 c 0,0.72047 0.31471,1.5248 1.13958,1.5248 1.05692,0 2.1663,-1.42527 2.1663,-2.9003 0,-0.99036 -0.50859,-1.54316 -1.13957,-1.54316 -0.987,0 -2.16631,1.37547 -2.16631,2.91866"
       id="path16"
       style="stroke-width:0.130598" />
    <path
       class="Note"
       d="m 193.62581,160.44807 c 0,0.7205 0.3147,1.52483 1.13957,1.52483 1.05694,0 2.1663,-1.42526 2.1663,-2.90031 0,-0.99035 -0.50859,-1.54315 -1.13956,-1.54315 -0.98699,0 -2.16631,1.37549 -2.16631,2.91863"
       id="path17"
       style="stroke-width:0.130598" />
    <path
       class="Note"
       d="m 231.25475,158.3521 c 0,0.72049 0.31471,1.52482 1.13959,1.52482 1.05693,0 2.16629,-1.42526 2.16629,-2.90031 0,-0.99034 -0.50859,-1.54315 -1.13956,-1.54315 -0.987,0 -2.16632,1.37548 -2.16632,2.91864"
       id="path18"
       style="stroke-width:0.130598" />
    <path
       class="Clef"
       d="m 31.131025,172.26934 c 0,-2.51516 -1.088715,-4.22601 -2.573188,-4.22601 -0.101717,-1.00606 -0.193897,-2.01212 -0.284489,-2.93435 1.068052,-1.8628 1.819821,-3.97449 1.819821,-6.6233 0,-1.54314 -0.284497,-2.76666 -0.457735,-3.3718 -0.243169,-0.85416 -0.538797,-1.45948 -0.712036,-1.45948 -0.06993,0 -0.39575,0.22016 -0.721578,0.87259 -0.661176,1.27588 -0.843948,3.40329 -0.843948,4.81283 0,0.9065 0.05085,1.72656 0.224099,3.62341 -0.01115,0 -0.540382,0.88815 -0.753362,1.18948 -0.926595,1.40953 -2.207626,3.45309 -2.207626,6.79092 0,3.15184 1.657712,5.61723 3.550647,5.61723 0.294029,0 0.568984,-0.0499 0.813752,-0.11782 0.182772,1.61127 0.305159,2.78502 0.305159,3.67318 0,1.74492 -0.549927,2.66713 -1.567119,2.66713 -0.254295,0 -0.467268,-0.0839 -0.478393,-0.10214 -0.01906,0 -0.03975,-0.0158 -0.03975,-0.0315 0,-0.0342 0.02065,-0.0525 0.05084,-0.0681 0.478399,-0.11782 0.955211,-0.78861 0.955211,-1.86018 0,-0.90651 -0.416421,-1.86277 -1.179314,-1.86277 -0.702496,0 -1.160237,0.95626 -1.160237,2.06189 0,1.10826 0.508599,2.56757 1.88181,2.56757 1.312814,0 1.953327,-1.22613 1.953327,-3.37192 0,-0.65236 -0.06041,-1.40689 -0.16211,-2.36318 -0.03019,-0.33535 -0.08106,-0.85673 -0.152575,-1.49338 0.996523,-0.55282 1.73876,-2.24791 1.73876,-3.99023 m -3.13264,-13.73385 c 0.101717,-0.67071 0.559452,-2.43132 1.088721,-2.43132 0.152577,0 0.406876,0.80432 0.406876,1.97805 0,1.72657 -0.793096,3.03656 -1.495597,4.19195 -0.06041,-0.67069 -0.111256,-1.34142 -0.111256,-2.02785 0,-0.63665 0.03975,-1.19207 0.111256,-1.71083 m 0.305151,17.33893 c -1.454257,0 -2.695556,-1.67678 -2.695556,-4.21028 0,-2.04359 0.88528,-3.87231 1.770556,-5.16394 0.171652,-0.2358 0.335353,-0.48731 0.487935,-0.72051 0.0906,0.90389 0.173241,1.67677 0.233631,2.38155 -0.926595,0.43492 -1.555982,2.0619 -1.555982,3.62081 0,1.19206 0.559458,2.80075 1.373209,2.80075 0.08105,0 0.173241,-0.0681 0.173241,-0.23582 0,-0.13363 -0.09219,-0.23318 -0.224099,-0.36679 -0.397343,-0.38775 -0.621442,-0.83839 -0.621442,-1.64533 0,-1.02177 0.46886,-1.84448 1.058507,-2.07764 l 0.589661,5.4993 c -0.203441,0.0837 -0.386219,0.11782 -0.589661,0.11782 m 1.0172,-0.31962 c -0.212973,-1.99381 -0.487929,-4.66093 -0.559459,-5.39976 1.026733,0 1.465398,1.17374 1.555989,1.98071 0.01115,0.13363 0.0302,0.317 0.0302,0.51874 0,1.20779 -0.305158,2.43132 -1.026732,2.90031 m -0.397337,8.78736 c 0,-0.62095 -0.344892,-0.88817 -0.680247,-0.88817 -0.427539,0 -0.845547,0.43493 -0.845547,1.18946 0,0.31965 0.07152,0.55544 0.224099,0.78862 -0.263826,0.16767 -0.538795,0.50302 -0.538795,1.02439 0,0.55283 0.30516,0.92222 0.75336,0.92222 0.548335,0 0.934548,-0.50302 0.934548,-1.22612 0,-0.38516 -0.101718,-0.70216 -0.284496,-0.92223 0.295627,-0.21747 0.437078,-0.48468 0.437078,-0.88817 m -0.629387,0.67066 c -0.152584,-0.13377 -0.193911,-0.16768 -0.224099,-0.20172 l -0.01115,-0.0158 c -0.162115,-0.15192 -0.21298,-0.26988 -0.21298,-0.46898 0,-0.3039 0.143051,-0.52138 0.346492,-0.52138 0.203434,0 0.314684,0.20174 0.314684,0.5528 0,0.26989 -0.06041,0.45327 -0.212966,0.655 m -0.387807,2.01215 c -0.222511,0 -0.375087,-0.23319 -0.375087,-0.58688 0,-0.31702 0.09059,-0.60259 0.263825,-0.77026 0.04135,0.0342 0.05085,0.0499 0.08106,0.0656 0.122379,0.10215 0.122379,0.10215 0.14305,0.13634 0.203435,0.1834 0.274956,0.35109 0.274956,0.58686 0,0.317 -0.163707,0.56853 -0.387805,0.56853"
       id="path19"
       style="stroke-width:0.130598" />
    <path
       class="StaffText"
       d="m 45.197706,143.94813 h -0.188984 l -0.205078,0.50708 c -0.246813,-0.38029 -0.568787,-0.58381 -0.934133,-0.58381 -0.676047,0 -1.121477,0.70266 -1.121477,1.76703 0,0.92174 0.275523,1.37861 1.030216,1.70079 l 0.487063,0.2008 c 0.379701,0.16109 0.414975,0.17951 0.522236,0.31422 0.153807,0.19288 0.237173,0.47277 0.237173,0.80288 0,0.33808 -0.07854,0.61544 -0.232355,0.85313 -0.168169,0.23764 -0.338077,0.33009 -0.620061,0.33009 -0.773763,0 -1.158287,-0.9376 -1.291277,-2.07856 H 42.65985 l 0.0209,2.40868 h 0.200261 l 0.230711,-0.57572 c 0.342791,0.46484 0.624775,0.63388 1.076667,0.63388 0.752947,0 1.235297,-0.72634 1.235297,-1.85934 0,-0.53346 -0.10254,-0.97192 -0.307619,-1.2941 -0.137813,-0.21924 -0.338075,-0.36189 -0.748231,-0.53092 l -0.549615,-0.22973 c -0.454964,-0.19285 -0.671327,-0.52296 -0.671327,-1.03799 0,-0.59161 0.293263,-0.99829 0.729061,-0.99829 0.660047,0 1.025392,0.90313 1.163205,1.86725 h 0.221079 l -0.06257,-2.19737 m 1.297846,0.11083 c -0.165091,0 -0.298086,0.21924 -0.298086,0.4885 0,0.27214 0.132995,0.49137 0.293262,0.49137 0.168169,0 0.301164,-0.21923 0.301164,-0.49137 0,-0.26926 -0.132995,-0.4885 -0.29634,-0.4885 m 0.24025,2.10494 -0.962848,0.0924 v 0.36443 h 0.261168 c 0.193801,0.009 0.219433,0.0582 0.219433,0.42258 v 2.41662 c -0.005,0.12679 -0.0095,0.17697 -0.03045,0.21923 -0.03517,0.0765 -0.132896,0.1107 -0.354074,0.11881 h -0.03516 v 0.30375 h 1.328194 v -0.30375 h -0.03689 c -0.342788,-0.0184 -0.389339,-0.0609 -0.389339,-0.36443 v -3.26971"
       id="path22"
       style="stroke-width:0.131652" />
    <path
       class="StaffText"
       d="m 79.51576,150.94022 h 1.722354 c 0.456613,0 0.805965,-0.11882 1.076666,-0.37236 0.51752,-0.48072 0.805959,-1.44472 0.805959,-2.71242 0,-1.16733 -0.256346,-2.07859 -0.729054,-2.58565 -0.281985,-0.29582 -0.661684,-0.43324 -1.246472,-0.43324 H 79.51576 v 0.3989 h 0.09782 c 0.286699,0.009 0.384524,0.0342 0.424512,0.11881 0.03046,0.0738 0.03046,0.0925 0.03046,0.52298 v 4.02242 c 0,0.43305 0,0.44893 -0.03046,0.52552 -0.04001,0.0843 -0.137813,0.10827 -0.424512,0.11882 h -0.09782 v 0.39622 m 1.419558,-0.39622 c -0.261168,0 -0.291623,-0.0525 -0.291623,-0.46484 v -4.37094 c 0,-0.41465 0.0353,-0.47279 0.291623,-0.47279 h 0.267624 c 0.876302,0 1.24001,0.78431 1.24001,2.6543 0,1.89364 -0.328434,2.65427 -1.158389,2.65427 h -0.349245 m 3.721874,-3.66845 c -0.629694,0 -1.116757,0.92171 -1.116757,2.1049 0,1.15685 0.491886,2.08651 1.107123,2.08651 0.615235,0 1.107117,-0.92966 1.107117,-2.09699 0,-1.15682 -0.491882,-2.09442 -1.097483,-2.09442 m 0,0.36188 c 0.35889,0 0.559152,0.61798 0.559152,1.73254 0,1.12509 -0.200262,1.73258 -0.568786,1.73258 -0.368429,0 -0.568787,-0.60749 -0.568787,-1.7221 0,-1.15141 0.193902,-1.74302 0.578421,-1.74302"
       id="path23"
       style="stroke-width:0.131652" />
    <path
       class="StaffText"
       d="m 118.51043,147.98219 h 0.29839 c 0.5168,0.0343 0.72187,0.38034 0.77827,1.30997 l 0.0257,0.43054 c 0.0626,0.95605 0.25123,1.3443 0.65729,1.3443 0.41938,0 0.61935,-0.46484 0.63574,-1.479 h -0.21636 c -0.0195,0.58362 -0.082,0.8372 -0.21942,0.8372 -0.11896,0 -0.17023,-0.14517 -0.25635,-0.72634 l -0.082,-0.53346 c -0.11381,-0.77653 -0.31376,-1.13301 -0.71263,-1.30203 0.73828,-0.16902 1.09101,-0.6577 1.09101,-1.51333 0,-0.96415 -0.49219,-1.51349 -1.35353,-1.51349 h -1.77392 v 0.3989 h 0.0933 c 0.29121,0.009 0.38862,0.0342 0.43066,0.11881 0.0308,0.0738 0.0308,0.0925 0.0308,0.52298 v 4.0329 c 0,0.42257 0,0.43845 -0.0308,0.52296 -0.0421,0.0845 -0.13945,0.11084 -0.43066,0.11084 h -0.0933 v 0.3962 h 1.68266 v -0.3962 h -0.0933 c -0.29122,0 -0.38967,-0.0264 -0.43069,-0.11084 -0.0308,-0.0845 -0.0308,-0.10043 -0.0308,-0.52296 v -1.92798 m 0,-0.39619 v -1.86203 c -0.009,-0.46484 0.0163,-0.49646 0.35376,-0.4885 h 0.27788 c 0.50758,0 0.73828,0.35393 0.73828,1.12236 0,0.89012 -0.28813,1.22817 -0.80596,1.22817 h -0.56396 m 3.47711,-1.16731 h 0.20919 l 0.81621,-0.8215 c 0.081,-0.0845 0.13228,-0.21128 0.13228,-0.32741 0,-0.16904 -0.0769,-0.2958 -0.17945,-0.2958 -0.081,0 -0.13228,0.0502 -0.25635,0.26149 l -0.72188,1.18322 m 1.43966,2.61995 c 0.005,-1.26772 -0.43067,-2.16306 -1.05514,-2.16306 -0.65726,0 -1.14947,0.9376 -1.14947,2.20534 0,1.19113 0.46657,1.98607 1.1587,1.98607 0.49219,0 0.83672,-0.39619 1.04591,-1.19908 l -0.17944,-0.1611 c -0.20919,0.64976 -0.42555,0.9033 -0.76905,0.9033 -0.26045,0 -0.45118,-0.17698 -0.58447,-0.55729 -0.0912,-0.25355 -0.13331,-0.54934 -0.12819,-1.01418 h 1.66115 m -1.65601,-0.36442 c 0,-0.59161 0.16509,-1.43676 0.59575,-1.43676 0.30762,0 0.51268,0.44892 0.51268,1.133 0,0.23766 -0.0461,0.30376 -0.21122,0.30376 h -0.89721"
       id="path24"
       style="stroke-width:0.131652" />
    <path
       class="StaffText"
       d="m 157.11146,144.83655 h -1.32174 v 0.3989 h 0.0974 c 0.29225,0.009 0.38965,0.0342 0.42451,0.11881 0.0369,0.0738 0.0369,0.0845 0.0369,0.52298 v 3.23793 c 0,1.14891 -0.0974,1.38657 -0.59576,1.42883 v 0.3962 h 1.46119 v -0.3962 c -0.49218,-0.0423 -0.58959,-0.27992 -0.58959,-1.42883 v -3.73707 l 1.22124,5.5621 h 0.20508 l 1.14332,-5.5621 v 4.52156 c 0,0.43305 0,0.44893 -0.0296,0.53344 -0.0421,0.0845 -0.13945,0.11084 -0.43169,0.11084 h -0.0923 v 0.3962 h 1.68165 v -0.3962 h -0.0923 c -0.29222,0 -0.38964,-0.0264 -0.43168,-0.11084 -0.0297,-0.0845 -0.0297,-0.0925 -0.0297,-0.53344 v -4.02242 c 0,-0.43052 0,-0.44911 0.0297,-0.52298 0.0421,-0.0845 0.13946,-0.11083 0.43168,-0.11881 h 0.0923 v -0.3989 h -1.28585 l -0.93926,4.50582 -0.98541,-4.50582 m 4.16413,0.0609 c -0.16509,0 -0.29837,0.21921 -0.29837,0.48849 0,0.27214 0.13328,0.49136 0.29325,0.49136 0.16817,0 0.30146,-0.21922 0.30146,-0.49136 0,-0.26928 -0.13329,-0.48849 -0.29634,-0.48849 m 0.23995,2.10493 -0.96284,0.0925 v 0.3644 h 0.26147 c 0.19379,0.009 0.21944,0.0581 0.21944,0.42257 v 2.41663 c -0.005,0.12679 -0.009,0.17698 -0.0308,0.21923 -0.0349,0.0765 -0.13228,0.11098 -0.35376,0.11881 h -0.0349 v 0.30376 h 1.32789 v -0.30376 h -0.0369 c -0.34249,-0.0184 -0.38965,-0.0609 -0.38965,-0.36443 v -3.26971"
       id="path25"
       style="stroke-width:0.131652" />
    <path
       class="StaffText"
       d="m 195.3495,144.92006 h -3.05055 v 0.39872 h 0.0912 c 0.29327,0.009 0.3917,0.0342 0.43169,0.11881 0.0296,0.0742 0.0296,0.0925 0.0296,0.523 v 4.02239 c 0,0.43321 0,0.44896 -0.0296,0.52553 -0.04,0.0845 -0.13842,0.11909 -0.43169,0.11909 h -0.0912 v 0.39602 h 1.75753 v -0.39599 h -0.16816 c -0.29327,0 -0.38863,-0.0343 -0.43068,-0.1191 -0.0308,-0.0765 -0.0308,-0.10271 -0.0308,-0.52551 v -1.91749 h 0.10253 c 0.52706,-0.0343 0.71778,0.28009 0.73931,1.21752 h 0.23994 v -2.77311 h -0.23994 c -0.0328,0.82927 -0.23071,1.14891 -0.71776,1.15955 h -0.12409 v -1.92812 c -0.003,-0.35648 0.0471,-0.41464 0.32197,-0.42257 h 0.23789 c 0.84083,-0.009 1.05103,0.30375 1.20894,1.75909 h 0.22662 l -0.0729,-2.15784 m 2.29588,3.38332 c 0,-0.53365 -0.0554,-0.80292 -0.20508,-1.00643 -0.16817,-0.22971 -0.4194,-0.33804 -0.74752,-0.33804 -0.57833,0 -0.99975,0.44639 -0.99975,1.06438 0,0.31169 0.11791,0.51503 0.29735,0.51503 0.16408,0 0.27789,-0.17698 0.27789,-0.43052 0,-0.11083 -0.0256,-0.22702 -0.0769,-0.34601 -0.0328,-0.0609 -0.0369,-0.0765 -0.0369,-0.11881 0,-0.16901 0.20509,-0.32216 0.45117,-0.32216 0.16406,0 0.34351,0.0845 0.42452,0.21132 0.0984,0.13732 0.13535,0.33805 0.13535,0.71835 v 0.33012 c -0.53424,0.15317 -0.70342,0.21924 -0.95566,0.3803 -0.44503,0.27216 -0.65524,0.66025 -0.65524,1.20183 0,0.60732 0.28711,0.98764 0.74342,0.98764 0.35479,0 0.67164,-0.23768 0.89312,-0.66819 0.081,0.43051 0.20919,0.59956 0.45014,0.59956 0.23072,0 0.47271,-0.24289 0.47271,-0.48866 0,-0.0609 -0.0215,-0.10271 -0.0513,-0.10271 -0.0215,0 -0.0421,0.0114 -0.0769,0.0342 -0.0728,0.0502 -0.10254,0.0609 -0.14459,0.0609 -0.14458,0 -0.19584,-0.15329 -0.19584,-0.58384 v -1.69805 m -0.4799,1.0299 c 0,0.50708 -0.0164,0.6259 -0.10254,0.84513 -0.12817,0.3117 -0.35889,0.52301 -0.5855,0.52301 -0.23481,0 -0.40503,-0.27741 -0.40503,-0.65772 0,-0.35648 0.10767,-0.61002 0.33326,-0.78701 0.15894,-0.11881 0.35888,-0.20333 0.75981,-0.31169 v 0.38828"
       id="path26"
       style="stroke-width:0.131652" />
    <path
       class="StaffText"
       d="m 232.06791,145.20571 h -0.18868 l -0.20509,0.5071 c -0.24712,-0.38031 -0.56908,-0.58383 -0.93413,-0.58383 -0.67573,0 -1.12178,0.70266 -1.12178,1.76702 0,0.92173 0.27583,1.37862 1.03052,1.70081 l 0.48707,0.20079 c 0.37939,0.16107 0.41529,0.17952 0.52192,0.31422 0.15382,0.19286 0.2379,0.47278 0.2379,0.80291 0,0.33803 -0.0789,0.61543 -0.23277,0.8531 -0.16816,0.23762 -0.33839,0.33009 -0.62036,0.33009 -0.77316,0 -1.15767,-0.93762 -1.29097,-2.07854 h -0.2215 l 0.0215,2.40865 h 0.19996 l 0.23072,-0.57571 c 0.34248,0.46484 0.62446,0.63386 1.07667,0.63386 0.75263,0 1.2356,-0.72632 1.2356,-1.85931 0,-0.53348 -0.10254,-0.97194 -0.30762,-1.29411 -0.13843,-0.21924 -0.33839,-0.36188 -0.74854,-0.53093 l -0.54962,-0.2297 c -0.45528,-0.19287 -0.67163,-0.52297 -0.67163,-1.03802 0,-0.59159 0.29326,-0.99829 0.72906,-0.99829 0.66036,0 1.02539,0.90312 1.16382,1.8673 h 0.22046 l -0.0626,-2.19741 m 1.87646,2.08904 c -0.62958,0 -1.11665,0.92173 -1.11665,2.10494 0,1.15685 0.49221,2.08649 1.10743,2.08649 0.61524,0 1.1064,-0.92964 1.1064,-2.09697 0,-1.15685 -0.49116,-2.09446 -1.09718,-2.09446 m 0,0.3619 c 0.3589,0 0.55886,0.61797 0.55886,1.73256 0,1.12507 -0.19996,1.73254 -0.56808,1.73254 -0.36914,0 -0.56909,-0.60747 -0.56909,-1.72206 0,-1.15144 0.1938,-1.74304 0.57831,-1.74304 m 2.31843,-2.52767 -0.94848,0.0952 v 0.36187 h 0.2512 c 0.18972,0.009 0.21535,0.0609 0.21535,0.42257 v 4.70899 c -0.005,0.12679 -0.0102,0.17698 -0.0309,0.21926 -0.037,0.0765 -0.1333,0.11069 -0.35376,0.11882 h -0.0359 v 0.30373 h 1.32686 v -0.30373 h -0.0349 c -0.34352,-0.0184 -0.38966,-0.0609 -0.38966,-0.36443 v -5.56228"
       id="path27"
       style="stroke-width:0.131652" />
    <path
       fill="#000000"
       d="m 67.489528,43.201724 -49.506302,-10.652952 -6.505913,16.413213 4.129279,18.213991 49.814385,6.164239 -0.730685,-15.3681 z M 60.885724,29.02116 c 0.360093,-5.24654 -8.960638,-6.824752 -9.32073,-1.578204 l -0.09513,1.38596 4.530335,2.683685 4.790396,-1.10548 z m -3.746,54.578657 -4.530327,-2.683686 -4.790386,1.10549 -0.09503,1.384501 c -0.360093,5.246547 8.960629,6.82476 9.320731,1.578213 z M 56.856962,47.210176 a 2.3609319,1.9102955 82.601921 0 1 -2.071981,2.008062 2.3609319,1.9102955 82.601921 0 1 -1.751902,-2.655532 2.3609319,1.9102955 82.601921 0 1 2.07199,-2.008063 2.3609319,1.9102955 82.601921 0 1 1.751893,2.655533 z m -1.280343,18.654391 a 2.3609319,1.9102955 82.601921 0 1 -2.071981,2.008063 2.3609319,1.9102955 82.601921 0 1 -1.751902,-2.655532 2.3609319,1.9102955 82.601921 0 1 2.071981,-2.008062 2.3609319,1.9102955 82.601921 0 1 1.751902,2.655531 z m 1.340103,-31.85409 -0.761883,0.1806 -0.344588,0.08908 -1.045458,-0.61931 -0.280075,4.080649 2.143927,0.466211 z m -2.784733,40.573286 -2.157936,-0.26219 -0.281078,4.095234 0.761892,-0.180587 0.344589,-0.08907 1.045458,0.619325 z M 45.630188,25.848344 c 0.360092,-5.246548 -8.960639,-6.824759 -9.320731,-1.578212 l -0.09512,1.385961 4.530327,2.683692 4.790404,-1.105488 z m -3.826027,55.744553 -4.530318,-2.683694 -4.790404,1.105489 -0.09502,1.384493 c -0.360101,5.246555 8.96063,6.824752 9.320722,1.578205 z M 41.561412,44.620305 a 2.3609319,1.9102955 82.601921 0 1 -2.071981,2.008063 2.3609319,1.9102955 82.601921 0 1 -1.751902,-2.655533 2.3609319,1.9102955 82.601921 0 1 2.071981,-2.008063 2.3609319,1.9102955 82.601921 0 1 1.751902,2.655533 z m -1.280334,18.654384 a 2.3609319,1.9102955 82.601921 0 1 -2.07199,2.008058 2.3609319,1.9102955 82.601921 0 1 -1.751911,-2.655526 2.3609319,1.9102955 82.601921 0 1 2.072007,-2.008057 2.3609319,1.9102955 82.601921 0 1 1.751894,2.655525 z m 1.37971,-32.431211 -0.761477,0.174802 -0.344597,0.08909 -1.045458,-0.61931 -0.273075,3.978628 2.143936,0.46622 z m -2.871354,41.835381 -2.157945,-0.262189 -0.274077,3.993201 0.761884,-0.1806 0.344597,-0.08908 1.045458,0.619316 z M 30.374651,22.675514 c 0.360093,-5.246547 -8.96063,-6.824752 -9.320722,-1.578204 l -0.09513,1.385961 4.530327,2.683691 4.790404,-1.105481 z m -3.906035,56.910446 -4.530336,-2.683685 -4.790395,1.105487 -0.09502,1.384511 c -0.360101,5.246539 8.96063,6.824752 9.320723,1.578197 z M 26.26588,42.030427 a 2.3609319,1.9102955 82.601921 0 1 -2.072008,2.008064 2.3609319,1.9102955 82.601921 0 1 -1.751893,-2.655532 2.3609319,1.9102955 82.601921 0 1 2.07199,-2.008064 2.3609319,1.9102955 82.601921 0 1 1.751911,2.655532 z m -1.280343,18.654392 a 2.3609319,1.9102955 82.601921 0 1 -2.07199,2.008057 2.3609319,1.9102955 82.601921 0 1 -1.751902,-2.655526 2.3609319,1.9102955 82.601921 0 1 2.071981,-2.008062 2.3609319,1.9102955 82.601921 0 1 1.751911,2.655531 z m 1.419412,-33.009791 -0.761581,0.176239 -0.344096,0.08178 -1.045466,-0.619309 -0.266161,3.878072 2.144929,0.451637 z m -2.95908,43.113501 -2.156934,-0.276764 -0.267077,3.891182 0.761883,-0.1806 0.344597,-0.08908 1.045458,0.619316 z"
       id="path1"
       style="stroke-width:0.132732" />
  </g>
</svg>
