<?xml version="1.0" encoding="UTF-8" standalone="no"?>
<svg width="210.058mm" height="296.926mm" viewBox="0 0 2977.2 4208.4"
 xmlns="http://www.w3.org/2000/svg" xmlns:xlink="http://www.w3.org/1999/xlink" version="1.2" baseProfile="full">
<title>bella_ciao</title>
<desc>Generated by MuseScore Studio 4.5.2</desc>
<polyline class="StaffLines" fill="none" stroke="#000000" stroke-width="2.73" stroke-linejoin="bevel" points="336.599,634.198 2764.6,634.198" />
<polyline class="StaffLines" fill="none" stroke="#000000" stroke-width="2.73" stroke-linejoin="bevel" points="336.599,658.998 2764.6,658.998" />
<polyline class="StaffLines" fill="none" stroke="#000000" stroke-width="2.73" stroke-linejoin="bevel" points="336.599,683.798 2764.6,683.798" />
<polyline class="StaffLines" fill="none" stroke="#000000" stroke-width="2.73" stroke-linejoin="bevel" points="336.599,708.598 2764.6,708.598" />
<polyline class="StaffLines" fill="none" stroke="#000000" stroke-width="2.73" stroke-linejoin="bevel" points="336.599,733.398 2764.6,733.398" />
<polyline class="StaffLines" fill="none" stroke="#000000" stroke-width="2.73" stroke-linejoin="bevel" points="212.598,1316.2 2764.6,1316.2" />
<polyline class="StaffLines" fill="none" stroke="#000000" stroke-width="2.73" stroke-linejoin="bevel" points="212.598,1341 2764.6,1341" />
<polyline class="StaffLines" fill="none" stroke="#000000" stroke-width="2.73" stroke-linejoin="bevel" points="212.598,1365.8 2764.6,1365.8" />
<polyline class="StaffLines" fill="none" stroke="#000000" stroke-width="2.73" stroke-linejoin="bevel" points="212.598,1390.6 2764.6,1390.6" />
<polyline class="StaffLines" fill="none" stroke="#000000" stroke-width="2.73" stroke-linejoin="bevel" points="212.598,1415.4 2764.6,1415.4" />
<path class="Text" d="M1228.9,215.176 L1228.9,220.348 L1230.88,220.348 C1237.15,220.458 1239.24,220.786 1240.11,221.895 C1240.79,222.88 1240.79,223.098 1240.79,228.708 L1240.79,281.067 C1240.79,286.676 1240.79,286.895 1240.11,287.895 C1239.24,288.989 1237.15,289.426 1230.88,289.426 L1228.9,289.426 L1228.9,294.598 L1268.83,294.598 C1287.86,294.598 1299.3,286.567 1299.3,273.036 C1299.3,262.036 1292.36,255.77 1277.3,253.13 C1282.58,252.036 1285,251.036 1287.86,248.942 C1292.36,245.536 1295.11,240.145 1295.11,234.645 C1295.11,227.505 1290.72,220.567 1284.33,217.817 C1280.38,216.051 1274.88,215.176 1268.4,215.176 L1228.9,215.176 M1253.1,250.926 L1253.1,225.848 C1253.1,221.551 1254.54,220.458 1260.36,220.348 L1264.75,220.348 C1275.54,220.348 1282.36,223.864 1282.36,235.864 C1282.36,246.755 1277.08,250.926 1262.9,250.926 L1253.1,250.926 M1253.1,256.098 L1262.79,256.098 C1279.61,256.098 1285.77,260.614 1285.77,272.708 C1285.77,287.442 1276.54,289.426 1264.1,289.426 L1259.47,289.426 C1253.97,289.426 1252.88,288.333 1253.1,282.505 L1253.1,256.098 M1356.16,269.848 C1356.27,253.348 1346.91,241.692 1333.49,241.692 C1319.41,241.692 1308.85,253.895 1308.85,270.395 C1308.85,285.911 1318.86,296.255 1333.71,296.255 C1344.27,296.255 1351.65,291.083 1356.16,280.63 L1352.3,278.536 C1347.8,287.005 1343.18,290.301 1335.8,290.301 C1330.19,290.301 1326.13,288.005 1323.27,283.051 C1321.29,279.755 1320.41,275.895 1320.52,269.848 L1356.16,269.848 M1320.63,265.114 C1320.63,257.411 1324.15,246.411 1333.38,246.411 C1339.99,246.411 1344.38,252.255 1344.38,261.161 C1344.38,264.239 1343.4,265.114 1339.88,265.114 L1320.63,265.114 M1379.79,213.52 L1359.44,214.739 L1359.44,219.473 L1364.83,219.473 C1368.9,219.583 1369.44,220.239 1369.44,224.973 L1369.44,286.239 C1369.33,287.895 1369.22,288.551 1368.79,289.098 C1368.02,290.083 1365.93,290.536 1361.19,290.645 L1360.43,290.645 L1360.43,294.598 L1388.91,294.598 L1388.91,290.645 L1388.15,290.645 C1380.79,290.411 1379.79,289.864 1379.79,285.911 L1379.79,213.52 M1414.43,213.52 L1394.08,214.739 L1394.08,219.473 L1399.47,219.473 C1403.54,219.583 1404.08,220.239 1404.08,224.973 L1404.08,286.239 C1403.97,287.895 1403.86,288.551 1403.43,289.098 C1402.66,290.083 1400.57,290.536 1395.83,290.645 L1395.07,290.645 L1395.07,294.598 L1423.55,294.598 L1423.55,290.645 L1422.79,290.645 C1415.43,290.411 1414.43,289.864 1414.43,285.911 L1414.43,213.52 M1476.35,259.176 C1476.35,252.255 1475.15,248.723 1471.94,246.083 C1468.32,243.114 1462.93,241.692 1455.9,241.692 C1443.46,241.692 1434.44,247.52 1434.44,255.551 C1434.44,259.614 1436.97,262.255 1440.82,262.255 C1444.33,262.255 1446.75,259.942 1446.75,256.645 C1446.75,255.223 1446.21,253.676 1445.11,252.145 C1444.44,251.364 1444.33,251.145 1444.33,250.598 C1444.33,248.395 1448.74,246.411 1454.02,246.411 C1457.54,246.411 1461.4,247.52 1463.15,249.161 C1465.24,250.926 1466,253.567 1466,258.52 L1466,262.801 C1454.57,264.786 1450.94,265.661 1445.55,267.755 C1435.97,271.286 1431.47,276.333 1431.47,283.38 C1431.47,291.301 1437.63,296.255 1447.43,296.255 C1455,296.255 1461.83,293.161 1466.57,287.551 C1468.32,293.161 1471.07,295.364 1476.24,295.364 C1481.19,295.364 1486.36,292.176 1486.36,288.989 C1486.36,288.223 1485.93,287.661 1485.25,287.661 C1484.82,287.661 1484.38,287.786 1483.61,288.114 C1482.07,288.77 1481.41,288.88 1480.54,288.88 C1477.44,288.88 1476.35,286.895 1476.35,281.286 L1476.35,259.176 M1466,272.598 C1466,279.192 1465.68,280.739 1463.82,283.598 C1461.07,287.661 1456.11,290.411 1451.27,290.411 C1446.21,290.411 1442.58,286.786 1442.58,281.833 C1442.58,277.223 1444.9,273.911 1449.72,271.614 C1453.15,270.067 1457.43,268.973 1466,267.536 L1466,272.598 M1588.66,214.411 L1584.47,214.411 L1580.07,220.895 C1572.05,215.067 1567.97,213.52 1560.38,213.52 C1549.93,213.52 1541.02,217.926 1533.66,226.723 C1526.61,235.083 1523.32,244.333 1523.32,255.661 C1523.32,279.411 1538.82,296.255 1560.49,296.255 C1578.1,296.255 1589.32,285.911 1591.85,267.426 L1586.68,266.551 C1583.71,282.942 1575.35,291.083 1561.82,291.083 C1545.54,291.083 1537.83,279.864 1537.83,256.098 C1537.83,243.551 1539.49,235.301 1543.22,228.708 C1546.63,222.551 1553.35,218.692 1560.49,218.692 C1568.19,218.692 1575.02,222.77 1579.19,229.801 C1581.29,233.442 1582.82,237.505 1585.46,246.192 L1590.3,246.192 L1588.66,214.411 M1615.25,215.942 C1611.74,215.942 1608.88,218.801 1608.88,222.333 C1608.88,225.848 1611.74,228.708 1615.15,228.708 C1618.79,228.708 1621.65,225.848 1621.65,222.333 C1621.65,218.801 1618.79,215.942 1615.25,215.942 M1620.43,243.333 L1599.75,244.551 L1599.75,249.286 L1605.36,249.286 C1609.54,249.395 1610.08,250.051 1610.08,254.786 L1610.08,286.239 C1609.97,287.895 1609.86,288.551 1609.43,289.098 C1608.66,290.083 1606.57,290.536 1601.83,290.645 L1601.07,290.645 L1601.07,294.598 L1629.57,294.598 L1629.57,290.645 L1628.79,290.645 C1621.43,290.411 1620.43,289.864 1620.43,285.911 L1620.43,243.333 M1682.13,259.176 C1682.13,252.255 1680.93,248.723 1677.72,246.083 C1674.1,243.114 1668.71,241.692 1661.68,241.692 C1649.24,241.692 1640.22,247.52 1640.22,255.551 C1640.22,259.614 1642.75,262.255 1646.6,262.255 C1650.11,262.255 1652.54,259.942 1652.54,256.645 C1652.54,255.223 1651.99,253.676 1650.9,252.145 C1650.22,251.364 1650.11,251.145 1650.11,250.598 C1650.11,248.395 1654.52,246.411 1659.8,246.411 C1663.32,246.411 1667.18,247.52 1668.93,249.161 C1671.02,250.926 1671.79,253.567 1671.79,258.52 L1671.79,262.801 C1660.35,264.786 1656.72,265.661 1651.33,267.755 C1641.75,271.286 1637.25,276.333 1637.25,283.38 C1637.25,291.301 1643.41,296.255 1653.21,296.255 C1660.79,296.255 1667.61,293.161 1672.35,287.551 C1674.1,293.161 1676.85,295.364 1682.02,295.364 C1686.97,295.364 1692.15,292.176 1692.15,288.989 C1692.15,288.223 1691.71,287.661 1691.04,287.661 C1690.6,287.661 1690.16,287.786 1689.4,288.114 C1687.85,288.77 1687.19,288.88 1686.32,288.88 C1683.22,288.88 1682.13,286.895 1682.13,281.286 L1682.13,259.176 M1671.79,272.598 C1671.79,279.192 1671.46,280.739 1669.6,283.598 C1666.85,287.661 1661.9,290.411 1657.05,290.411 C1651.99,290.411 1648.36,286.786 1648.36,281.833 C1648.36,277.223 1650.68,273.911 1655.5,271.614 C1658.93,270.067 1663.21,268.973 1671.79,267.536 L1671.79,272.598 M1721.29,241.692 C1707.75,241.692 1697.3,253.676 1697.3,269.083 C1697.3,284.145 1707.86,296.255 1721.07,296.255 C1734.27,296.255 1744.83,284.145 1744.83,268.973 C1744.83,253.895 1734.27,241.692 1721.29,241.692 M1721.29,246.411 C1728.99,246.411 1733.27,254.442 1733.27,268.973 C1733.27,283.598 1728.99,291.52 1721.07,291.52 C1713.15,291.52 1708.86,283.598 1708.86,269.083 C1708.86,254.114 1713.04,246.411 1721.29,246.411"/>
<path class="MeasureNumber" d="M217.083,1251.29 C215.833,1252.04 215.473,1252.52 215.473,1253.32 C215.473,1254.08 216.114,1254.65 216.911,1254.65 C217.958,1254.65 218.551,1253.88 218.676,1252.4 C219.911,1251.4 221.239,1250.96 222.833,1250.96 C225.801,1250.96 227.442,1252.8 227.442,1256.11 C227.442,1261.32 224.083,1265.55 219.958,1265.55 C217.598,1265.55 215.676,1264.44 215.676,1263.11 C215.676,1262.88 215.723,1262.8 215.911,1262.68 C217.192,1262.08 218.239,1261.65 218.239,1259.96 C218.239,1258.68 217.239,1257.72 215.833,1257.72 C214.083,1257.72 212.755,1259.19 212.755,1261.11 C212.755,1264.65 215.801,1267.19 220.083,1267.19 C226.551,1267.19 231.801,1262.04 231.801,1255.65 C231.801,1251.6 228.723,1248.76 224.364,1248.76 C222.63,1248.76 221.239,1249.11 219.317,1250.08 L221.551,1242.52 C223.676,1242.96 225.364,1243.16 226.801,1243.16 C229.442,1243.16 231.801,1242.32 233.114,1240.93 C233.801,1240.13 234.192,1239.44 234.192,1238.93 C234.192,1238.68 234.067,1238.44 233.911,1238.44 C233.801,1238.44 233.708,1238.49 233.473,1238.6 C232.161,1239.24 230.473,1239.6 228.911,1239.6 C226.52,1239.6 223.676,1239.21 220.723,1238.44 L217.083,1251.29 "/>
<path class="TieSegment" stroke="#000000" stroke-width="1.24" stroke-linecap="round" stroke-linejoin="round" fill-rule="evenodd" d="M1204.91,1310.5 C1222.56,1287.41 1275.51,1287.41 1293.16,1310.5 C1275.51,1294.91 1222.56,1294.91 1204.91,1310.5"/>
<path class="TieSegment" stroke="#000000" stroke-width="1.24" stroke-linecap="round" stroke-linejoin="round" fill-rule="evenodd" d="M470.41,1298.1 C488.059,1275.01 541.006,1275.01 558.655,1298.1 C541.006,1282.51 488.059,1282.51 470.41,1298.1"/>
<path class="TieSegment" stroke="#000000" stroke-width="1.24" stroke-linecap="round" stroke-linejoin="round" fill-rule="evenodd" d="M1396.8,678.102 C1408.8,658.616 1444.81,658.616 1456.82,678.102 C1444.81,664.985 1408.8,664.985 1396.8,678.102"/>
<path class="TieSegment" stroke="#000000" stroke-width="1.24" stroke-linecap="round" stroke-linejoin="round" fill-rule="evenodd" d="M869.532,678.102 C881.536,658.616 917.548,658.616 929.552,678.102 C917.548,664.985 881.536,664.985 869.532,678.102"/>
<polyline class="BarLine" fill="none" stroke="#000000" stroke-width="4.46" stroke-linejoin="bevel" points="2762.37,632.834 2762.37,734.762" />
<polyline class="BarLine" fill="none" stroke="#000000" stroke-width="4.46" stroke-linejoin="bevel" points="1792.44,1314.84 1792.44,1416.76" />
<polyline class="BarLine" fill="none" stroke="#000000" stroke-width="4.46" stroke-linejoin="bevel" points="1057.94,1314.84 1057.94,1416.76" />
<polyline class="BarLine" fill="none" stroke="#000000" stroke-width="4.46" stroke-linejoin="bevel" points="1805.31,632.834 1805.31,734.762" />
<polyline class="BarLine" fill="none" stroke="#000000" stroke-width="4.46" stroke-linejoin="bevel" points="2739.55,1314.84 2739.55,1416.76" />
<polyline class="BarLine" fill="none" stroke="#000000" stroke-width="13.64" stroke-linejoin="bevel" points="2757.78,1314.84 2757.78,1416.76" />
<polyline class="BarLine" fill="none" stroke="#000000" stroke-width="4.46" stroke-linejoin="bevel" points="737.144,632.834 737.144,734.762" />
<polyline class="BarLine" fill="none" stroke="#000000" stroke-width="4.46" stroke-linejoin="bevel" points="750.784,632.834 750.784,734.762" />
<polyline class="BarLine" fill="none" stroke="#000000" stroke-width="4.46" stroke-linejoin="bevel" points="2387.14,1314.84 2387.14,1416.76" />
<polyline class="BarLine" fill="none" stroke="#000000" stroke-width="4.46" stroke-linejoin="bevel" points="2300.09,632.834 2300.09,734.762" />
<polyline class="BarLine" fill="none" stroke="#000000" stroke-width="4.46" stroke-linejoin="bevel" points="1278.05,632.834 1278.05,734.762" />
<polyline class="Stem" fill="none" stroke="#000000" stroke-width="2.48" stroke-linejoin="bevel" points="2031.98,692.23 2031.98,621.684" />
<polyline class="Stem" fill="none" stroke="#000000" stroke-width="2.48" stroke-linejoin="bevel" points="2259.41,692.23 2259.41,621.684" />
<polyline class="Stem" fill="none" stroke="#000000" stroke-width="2.48" stroke-linejoin="bevel" points="566.51,729.43 566.51,634.024" />
<polyline class="Stem" fill="none" stroke="#000000" stroke-width="2.48" stroke-linejoin="bevel" points="1826.91,1369.97 1826.91,1440.2" />
<polyline class="Stem" fill="none" stroke="#000000" stroke-width="2.48" stroke-linejoin="bevel" points="2194.43,679.83 2194.43,615.712" />
<polyline class="Stem" fill="none" stroke="#000000" stroke-width="2.48" stroke-linejoin="bevel" points="2626.97,663.165 2626.97,733.285" />
<polyline class="Stem" fill="none" stroke="#000000" stroke-width="2.48" stroke-linejoin="bevel" points="1966.72,1332.77 1966.72,1415.4" />
<polyline class="Stem" fill="none" stroke="#000000" stroke-width="2.48" stroke-linejoin="bevel" points="1967,679.83 1967,615.712" />
<polyline class="Stem" fill="none" stroke="#000000" stroke-width="2.48" stroke-linejoin="bevel" points="1839.78,675.565 1839.78,751.999" />
<polyline class="Stem" fill="none" stroke="#000000" stroke-width="2.48" stroke-linejoin="bevel" points="1764.64,679.83 1764.64,615.772" />
<polyline class="Stem" fill="none" stroke="#000000" stroke-width="2.48" stroke-linejoin="bevel" points="2106.53,1357.57 2106.53,1434" />
<polyline class="Stem" fill="none" stroke="#000000" stroke-width="2.48" stroke-linejoin="bevel" points="1699.66,692.23 1699.66,624.898" />
<polyline class="Stem" fill="none" stroke="#000000" stroke-width="2.48" stroke-linejoin="bevel" points="451.116,1320.37 451.116,1390.6" />
<polyline class="Stem" fill="none" stroke="#000000" stroke-width="2.48" stroke-linejoin="bevel" points="1278.82,1332.77 1278.82,1415.4" />
<polyline class="Stem" fill="none" stroke="#000000" stroke-width="2.48" stroke-linejoin="bevel" points="1185.62,1332.77 1185.62,1396.72" />
<polyline class="Stem" fill="none" stroke="#000000" stroke-width="2.48" stroke-linejoin="bevel" points="1092.41,1320.37 1092.41,1390.68" />
<polyline class="Stem" fill="none" stroke="#000000" stroke-width="2.48" stroke-linejoin="bevel" points="1511.84,1332.77 1511.84,1409.28" />
<polyline class="Stem" fill="none" stroke="#000000" stroke-width="2.48" stroke-linejoin="bevel" points="963.744,1345.17 963.744,1415.36" />
<polyline class="Stem" fill="none" stroke="#000000" stroke-width="2.48" stroke-linejoin="bevel" points="870.539,1332.77 870.539,1412.3" />
<polyline class="Stem" fill="none" stroke="#000000" stroke-width="2.48" stroke-linejoin="bevel" points="777.334,1320.37 777.334,1409.24" />
<polyline class="Stem" fill="none" stroke="#000000" stroke-width="2.48" stroke-linejoin="bevel" points="544.321,1320.37 544.321,1403" />
<polyline class="Stem" fill="none" stroke="#000000" stroke-width="2.48" stroke-linejoin="bevel" points="2334.56,650.765 2334.56,733.398" />
<polyline class="Stem" fill="none" stroke="#000000" stroke-width="2.48" stroke-linejoin="bevel" points="1605.04,1345.17 1605.04,1415.4" />
<polyline class="Stem" fill="none" stroke="#000000" stroke-width="2.48" stroke-linejoin="bevel" points="357.911,1320.37 357.911,1390.6" />
<polyline class="Stem" fill="none" stroke="#000000" stroke-width="2.48" stroke-linejoin="bevel" points="2691.95,650.765 2691.95,727.312" />
<polyline class="Stem" fill="none" stroke="#000000" stroke-width="2.48" stroke-linejoin="bevel" points="1698.25,1357.57 1698.25,1421.52" />
<polyline class="Stem" fill="none" stroke="#000000" stroke-width="2.48" stroke-linejoin="bevel" points="2067.22,675.565 2067.22,751.999" />
<polyline class="Stem" fill="none" stroke="#000000" stroke-width="2.48" stroke-linejoin="bevel" points="2529.5,650.765 2529.5,733.398" />
<polyline class="Stem" fill="none" stroke="#000000" stroke-width="2.48" stroke-linejoin="bevel" points="2432.03,650.765 2432.03,733.398" />
<polyline class="Stem" fill="none" stroke="#000000" stroke-width="2.48" stroke-linejoin="bevel" points="1172.4,692.23 1172.4,624.898" />
<polyline class="Stem" fill="none" stroke="#000000" stroke-width="2.48" stroke-linejoin="bevel" points="850.237,700.365 850.237,764.285" />
<polyline class="Stem" fill="none" stroke="#000000" stroke-width="2.48" stroke-linejoin="bevel" points="2246.34,1369.97 2246.34,1440.2" />
<polyline class="Stem" fill="none" stroke="#000000" stroke-width="2.48" stroke-linejoin="bevel" points="944.962,692.23 944.962,615.598" />
<polyline class="Stem" fill="none" stroke="#000000" stroke-width="2.48" stroke-linejoin="bevel" points="1377.5,700.365 1377.5,764.285" />
<polyline class="Stem" fill="none" stroke="#000000" stroke-width="2.48" stroke-linejoin="bevel" points="1312.52,675.565 1312.52,758.312" />
<polyline class="Stem" fill="none" stroke="#000000" stroke-width="2.48" stroke-linejoin="bevel" points="1107.41,729.43 1107.41,634.024" />
<polyline class="Stem" fill="none" stroke="#000000" stroke-width="2.48" stroke-linejoin="bevel" points="785.256,675.565 785.256,758.312" />
<polyline class="Stem" fill="none" stroke="#000000" stroke-width="2.48" stroke-linejoin="bevel" points="1472.23,692.23 1472.23,615.598" />
<polyline class="Stem" fill="none" stroke="#000000" stroke-width="2.48" stroke-linejoin="bevel" points="1237.38,679.83 1237.38,615.772" />
<polyline class="Stem" fill="none" stroke="#000000" stroke-width="2.48" stroke-linejoin="bevel" points="696.472,679.83 696.472,615.772" />
<polyline class="Stem" fill="none" stroke="#000000" stroke-width="2.48" stroke-linejoin="bevel" points="631.491,692.23 631.491,624.898" />
<polyline class="Stem" fill="none" stroke="#000000" stroke-width="2.48" stroke-linejoin="bevel" points="1634.68,729.43 1634.68,634.024" />
<path class="Note" transform="matrix(0.992001,0,0,0.992001,2625.73,658.998)" d="M0,4.20313 C0,8.5 3.09375,13.2969 11.2031,13.2969 C21.5938,13.2969 32.5,4.79688 32.5,-4 C32.5,-9.90625 27.5,-13.2031 21.2969,-13.2031 C11.5938,-13.2031 0,-5 0,4.20313"/>
<path class="Note" transform="matrix(0.992001,0,0,0.992001,1076.43,733.398)" d="M0,4.20313 C0,8.5 3.09375,13.2969 11.2031,13.2969 C21.5938,13.2969 32.5,4.79688 32.5,-4 C32.5,-9.90625 27.5,-13.2031 21.2969,-13.2031 C11.5938,-13.2031 0,-5 0,4.20313"/>
<path class="Note" transform="matrix(0.992001,0,0,0.992001,2690.71,646.598)" d="M0,4.20313 C0,8.5 3.09375,13.2969 11.2031,13.2969 C21.5938,13.2969 32.5,4.79688 32.5,-4 C32.5,-9.90625 27.5,-13.2031 21.2969,-13.2031 C11.5938,-13.2031 0,-5 0,4.20313"/>
<path class="Note" transform="matrix(0.992001,0,0,0.992001,913.978,696.198)" d="M0,4.20313 C0,8.5 3.09375,13.2969 11.2031,13.2969 C21.5938,13.2969 32.5,4.79688 32.5,-4 C32.5,-9.90625 27.5,-13.2031 21.2969,-13.2031 C11.5938,-13.2031 0,-5 0,4.20313"/>
<path class="Note" transform="matrix(0.992001,0,0,0.992001,1697.01,1353.4)" d="M0,4.20313 C0,8.5 3.09375,13.2969 11.2031,13.2969 C21.5938,13.2969 32.5,4.79688 32.5,-4 C32.5,-9.90625 27.5,-13.2031 21.2969,-13.2031 C11.5938,-13.2031 0,-5 0,4.20313"/>
<path class="Note" transform="matrix(0.992001,0,0,0.992001,2528.26,646.598)" d="M0,4.20313 C0,8.5 3.09375,13.2969 11.2031,13.2969 C21.5938,13.2969 32.5,4.79688 32.5,-4 C32.5,-9.90625 27.5,-13.2031 21.2969,-13.2031 C11.5938,-13.2031 0,-5 0,4.20313"/>
<path class="Note" transform="matrix(0.992001,0,0,0.992001,848.997,696.198)" d="M0,4.20313 C0,8.5 3.09375,13.2969 11.2031,13.2969 C21.5938,13.2969 32.5,4.79688 32.5,-4 C32.5,-9.90625 27.5,-13.2031 21.2969,-13.2031 C11.5938,-13.2031 0,-5 0,4.20313"/>
<path class="Note" transform="matrix(0.992001,0,0,0.992001,449.876,1316.2)" d="M0,4.20313 C0,8.5 3.09375,13.2969 11.2031,13.2969 C21.5938,13.2969 32.5,4.79688 32.5,-4 C32.5,-9.90625 27.5,-13.2031 21.2969,-13.2031 C11.5938,-13.2031 0,-5 0,4.20313"/>
<path class="Note" transform="matrix(0.992001,0,0,0.992001,356.671,1316.2)" d="M0,4.20313 C0,8.5 3.09375,13.2969 11.2031,13.2969 C21.5938,13.2969 32.5,4.79688 32.5,-4 C32.5,-9.90625 27.5,-13.2031 21.2969,-13.2031 C11.5938,-13.2031 0,-5 0,4.20313"/>
<path class="Note" transform="matrix(0.992001,0,0,0.992001,1603.8,1341)" d="M0,4.20313 C0,8.5 3.09375,13.2969 11.2031,13.2969 C21.5938,13.2969 32.5,4.79688 32.5,-4 C32.5,-9.90625 27.5,-13.2031 21.2969,-13.2031 C11.5938,-13.2031 0,-5 0,4.20313"/>
<path class="Note" transform="matrix(0.992001,0,0,0.992001,2420.37,1378.2)" d="M18.7031,-13.5938 C4.90625,-13.5938 0,-6.59375 0,-0.09375 C0,6.40625 4.90625,13.4063 18.7031,13.4063 C32.5,13.4063 37.2969,6.40625 37.2969,-0.09375 C37.2969,-6.59375 32.5,-13.5938 18.7031,-13.5938 M23.7969,9.59375 C22.5938,10 21,10.2031 19.5,10.2031 C16.7031,10.2031 14.7969,9.40625 13.5,6.90625 C12.2031,4.40625 10.4063,-2 10.2969,-4.70313 C10.0938,-7.40625 11.0938,-9 13.5,-9.79688 C14.7031,-10.2031 16.2969,-10.4063 17.7969,-10.4063 C20.5938,-10.4063 22.4063,-9.79688 23.7969,-7.09375 C25.2031,-4.40625 27,2 27,4.5 C27,7.09375 26.2031,8.90625 23.7969,9.59375"/>
<path class="Note" transform="matrix(0.992001,0,0,0.992001,535.526,733.398)" d="M0,4.20313 C0,8.5 3.09375,13.2969 11.2031,13.2969 C21.5938,13.2969 32.5,4.79688 32.5,-4 C32.5,-9.90625 27.5,-13.2031 21.2969,-13.2031 C11.5938,-13.2031 0,-5 0,4.20313"/>
<path class="Note" transform="matrix(0.992001,0,0,0.992001,543.081,1316.2)" d="M0,4.20313 C0,8.5 3.09375,13.2969 11.2031,13.2969 C21.5938,13.2969 32.5,4.79688 32.5,-4 C32.5,-9.90625 27.5,-13.2031 21.2969,-13.2031 C11.5938,-13.2031 0,-5 0,4.20313"/>
<path class="Note" transform="matrix(0.992001,0,0,0.992001,776.094,1316.2)" d="M0,4.20313 C0,8.5 3.09375,13.2969 11.2031,13.2969 C21.5938,13.2969 32.5,4.79688 32.5,-4 C32.5,-9.90625 27.5,-13.2031 21.2969,-13.2031 C11.5938,-13.2031 0,-5 0,4.20313"/>
<path class="Note" transform="matrix(0.992001,0,0,0.992001,784.016,671.398)" d="M0,4.20313 C0,8.5 3.09375,13.2969 11.2031,13.2969 C21.5938,13.2969 32.5,4.79688 32.5,-4 C32.5,-9.90625 27.5,-13.2031 21.2969,-13.2031 C11.5938,-13.2031 0,-5 0,4.20313"/>
<path class="Note" transform="matrix(0.992001,0,0,0.992001,869.299,1328.6)" d="M0,4.20313 C0,8.5 3.09375,13.2969 11.2031,13.2969 C21.5938,13.2969 32.5,4.79688 32.5,-4 C32.5,-9.90625 27.5,-13.2031 21.2969,-13.2031 C11.5938,-13.2031 0,-5 0,4.20313"/>
<path class="Note" transform="matrix(0.992001,0,0,0.992001,1510.6,1328.6)" d="M0,4.20313 C0,8.5 3.09375,13.2969 11.2031,13.2969 C21.5938,13.2969 32.5,4.79688 32.5,-4 C32.5,-9.90625 27.5,-13.2031 21.2969,-13.2031 C11.5938,-13.2031 0,-5 0,4.20313"/>
<path class="Note" transform="matrix(0.992001,0,0,0.992001,962.504,1341)" d="M0,4.20313 C0,8.5 3.09375,13.2969 11.2031,13.2969 C21.5938,13.2969 32.5,4.79688 32.5,-4 C32.5,-9.90625 27.5,-13.2031 21.2969,-13.2031 C11.5938,-13.2031 0,-5 0,4.20313"/>
<path class="Note" transform="matrix(0.992001,0,0,0.992001,665.488,683.798)" d="M0,4.20313 C0,8.5 3.09375,13.2969 11.2031,13.2969 C21.5938,13.2969 32.5,4.79688 32.5,-4 C32.5,-9.90625 27.5,-13.2031 21.2969,-13.2031 C11.5938,-13.2031 0,-5 0,4.20313"/>
<path class="Note" transform="matrix(0.992001,0,0,0.992001,600.507,696.198)" d="M0,4.20313 C0,8.5 3.09375,13.2969 11.2031,13.2969 C21.5938,13.2969 32.5,4.79688 32.5,-4 C32.5,-9.90625 27.5,-13.2031 21.2969,-13.2031 C11.5938,-13.2031 0,-5 0,4.20313"/>
<path class="Note" transform="matrix(0.992001,0,0,0.992001,1091.17,1316.2)" d="M0,4.20313 C0,8.5 3.09375,13.2969 11.2031,13.2969 C21.5938,13.2969 32.5,4.79688 32.5,-4 C32.5,-9.90625 27.5,-13.2031 21.2969,-13.2031 C11.5938,-13.2031 0,-5 0,4.20313"/>
<path class="Note" transform="matrix(0.992001,0,0,0.992001,1277.58,1328.6)" d="M0,4.20313 C0,8.5 3.09375,13.2969 11.2031,13.2969 C21.5938,13.2969 32.5,4.79688 32.5,-4 C32.5,-9.90625 27.5,-13.2031 21.2969,-13.2031 C11.5938,-13.2031 0,-5 0,4.20313"/>
<path class="Note" transform="matrix(0.992001,0,0,0.992001,1184.38,1328.6)" d="M0,4.20313 C0,8.5 3.09375,13.2969 11.2031,13.2969 C21.5938,13.2969 32.5,4.79688 32.5,-4 C32.5,-9.90625 27.5,-13.2031 21.2969,-13.2031 C11.5938,-13.2031 0,-5 0,4.20313"/>
<path class="Note" transform="matrix(0.992001,0,0,0.992001,1825.67,1365.8)" d="M0,4.20313 C0,8.5 3.09375,13.2969 11.2031,13.2969 C21.5938,13.2969 32.5,4.79688 32.5,-4 C32.5,-9.90625 27.5,-13.2031 21.2969,-13.2031 C11.5938,-13.2031 0,-5 0,4.20313"/>
<path class="Note" transform="matrix(0.992001,0,0,0.992001,1733.66,683.798)" d="M0,4.20313 C0,8.5 3.09375,13.2969 11.2031,13.2969 C21.5938,13.2969 32.5,4.79688 32.5,-4 C32.5,-9.90625 27.5,-13.2031 21.2969,-13.2031 C11.5938,-13.2031 0,-5 0,4.20313"/>
<path class="Note" transform="matrix(0.992001,0,0,0.992001,1441.24,696.198)" d="M0,4.20313 C0,8.5 3.09375,13.2969 11.2031,13.2969 C21.5938,13.2969 32.5,4.79688 32.5,-4 C32.5,-9.90625 27.5,-13.2031 21.2969,-13.2031 C11.5938,-13.2031 0,-5 0,4.20313"/>
<path class="Note" transform="matrix(0.992001,0,0,0.992001,1838.54,671.398)" d="M0,4.20313 C0,8.5 3.09375,13.2969 11.2031,13.2969 C21.5938,13.2969 32.5,4.79688 32.5,-4 C32.5,-9.90625 27.5,-13.2031 21.2969,-13.2031 C11.5938,-13.2031 0,-5 0,4.20313"/>
<path class="Note" transform="matrix(0.992001,0,0,0.992001,1965.48,1328.6)" d="M0,4.20313 C0,8.5 3.09375,13.2969 11.2031,13.2969 C21.5938,13.2969 32.5,4.79688 32.5,-4 C32.5,-9.90625 27.5,-13.2031 21.2969,-13.2031 C11.5938,-13.2031 0,-5 0,4.20313"/>
<path class="Note" transform="matrix(0.992001,0,0,0.992001,1603.69,733.398)" d="M0,4.20313 C0,8.5 3.09375,13.2969 11.2031,13.2969 C21.5938,13.2969 32.5,4.79688 32.5,-4 C32.5,-9.90625 27.5,-13.2031 21.2969,-13.2031 C11.5938,-13.2031 0,-5 0,4.20313"/>
<path class="Note" transform="matrix(0.992001,0,0,0.992001,1936.02,683.798)" d="M0,4.20313 C0,8.5 3.09375,13.2969 11.2031,13.2969 C21.5938,13.2969 32.5,4.79688 32.5,-4 C32.5,-9.90625 27.5,-13.2031 21.2969,-13.2031 C11.5938,-13.2031 0,-5 0,4.20313"/>
<path class="Note" transform="matrix(0.992001,0,0,0.992001,1376.26,696.198)" d="M0,4.20313 C0,8.5 3.09375,13.2969 11.2031,13.2969 C21.5938,13.2969 32.5,4.79688 32.5,-4 C32.5,-9.90625 27.5,-13.2031 21.2969,-13.2031 C11.5938,-13.2031 0,-5 0,4.20313"/>
<path class="Note" transform="matrix(0.992001,0,0,0.992001,2001,696.198)" d="M0,4.20313 C0,8.5 3.09375,13.2969 11.2031,13.2969 C21.5938,13.2969 32.5,4.79688 32.5,-4 C32.5,-9.90625 27.5,-13.2031 21.2969,-13.2031 C11.5938,-13.2031 0,-5 0,4.20313"/>
<path class="Note" transform="matrix(0.992001,0,0,0.992001,2430.79,646.598)" d="M0,4.20313 C0,8.5 3.09375,13.2969 11.2031,13.2969 C21.5938,13.2969 32.5,4.79688 32.5,-4 C32.5,-9.90625 27.5,-13.2031 21.2969,-13.2031 C11.5938,-13.2031 0,-5 0,4.20313"/>
<path class="Note" transform="matrix(0.992001,0,0,0.992001,1668.68,696.198)" d="M0,4.20313 C0,8.5 3.09375,13.2969 11.2031,13.2969 C21.5938,13.2969 32.5,4.79688 32.5,-4 C32.5,-9.90625 27.5,-13.2031 21.2969,-13.2031 C11.5938,-13.2031 0,-5 0,4.20313"/>
<path class="Note" transform="matrix(0.992001,0,0,0.992001,2065.98,671.398)" d="M0,4.20313 C0,8.5 3.09375,13.2969 11.2031,13.2969 C21.5938,13.2969 32.5,4.79688 32.5,-4 C32.5,-9.90625 27.5,-13.2031 21.2969,-13.2031 C11.5938,-13.2031 0,-5 0,4.20313"/>
<path class="Note" transform="matrix(0.992001,0,0,0.992001,2163.45,683.798)" d="M0,4.20313 C0,8.5 3.09375,13.2969 11.2031,13.2969 C21.5938,13.2969 32.5,4.79688 32.5,-4 C32.5,-9.90625 27.5,-13.2031 21.2969,-13.2031 C11.5938,-13.2031 0,-5 0,4.20313"/>
<path class="Note" transform="matrix(0.992001,0,0,0.992001,2245.1,1365.8)" d="M0,4.20313 C0,8.5 3.09375,13.2969 11.2031,13.2969 C21.5938,13.2969 32.5,4.79688 32.5,-4 C32.5,-9.90625 27.5,-13.2031 21.2969,-13.2031 C11.5938,-13.2031 0,-5 0,4.20313"/>
<path class="Note" transform="matrix(0.992001,0,0,0.992001,1206.39,683.798)" d="M0,4.20313 C0,8.5 3.09375,13.2969 11.2031,13.2969 C21.5938,13.2969 32.5,4.79688 32.5,-4 C32.5,-9.90625 27.5,-13.2031 21.2969,-13.2031 C11.5938,-13.2031 0,-5 0,4.20313"/>
<path class="Note" transform="matrix(0.992001,0,0,0.992001,2105.29,1353.4)" d="M0,4.20313 C0,8.5 3.09375,13.2969 11.2031,13.2969 C21.5938,13.2969 32.5,4.79688 32.5,-4 C32.5,-9.90625 27.5,-13.2031 21.2969,-13.2031 C11.5938,-13.2031 0,-5 0,4.20313"/>
<path class="Note" transform="matrix(0.992001,0,0,0.992001,2228.43,696.198)" d="M0,4.20313 C0,8.5 3.09375,13.2969 11.2031,13.2969 C21.5938,13.2969 32.5,4.79688 32.5,-4 C32.5,-9.90625 27.5,-13.2031 21.2969,-13.2031 C11.5938,-13.2031 0,-5 0,4.20313"/>
<path class="Note" transform="matrix(0.992001,0,0,0.992001,2333.32,646.598)" d="M0,4.20313 C0,8.5 3.09375,13.2969 11.2031,13.2969 C21.5938,13.2969 32.5,4.79688 32.5,-4 C32.5,-9.90625 27.5,-13.2031 21.2969,-13.2031 C11.5938,-13.2031 0,-5 0,4.20313"/>
<path class="Note" transform="matrix(0.992001,0,0,0.992001,1141.41,696.198)" d="M0,4.20313 C0,8.5 3.09375,13.2969 11.2031,13.2969 C21.5938,13.2969 32.5,4.79688 32.5,-4 C32.5,-9.90625 27.5,-13.2031 21.2969,-13.2031 C11.5938,-13.2031 0,-5 0,4.20313"/>
<path class="Note" transform="matrix(0.992001,0,0,0.992001,1311.28,671.398)" d="M0,4.20313 C0,8.5 3.09375,13.2969 11.2031,13.2969 C21.5938,13.2969 32.5,4.79688 32.5,-4 C32.5,-9.90625 27.5,-13.2031 21.2969,-13.2031 C11.5938,-13.2031 0,-5 0,4.20313"/>
<path class="Clef" transform="matrix(0.992001,0,0,0.992001,355.199,708.598)" d="M42.2969,71.7031 C42.2969,68 38.9063,66.4063 35.6094,66.4063 C31.4063,66.4063 27.2969,69 27.2969,73.5 C27.2969,75.4063 28,76.8125 29.4063,78.2031 C26.7969,79.2031 24.2031,81.2031 24.2031,84.3125 C24.2031,87.6094 27.2031,89.8125 31.6094,89.8125 C37,89.8125 40.7969,86.8125 40.7969,82.5 C40.7969,80.2031 39.7969,78.3125 38,77 C40.9063,75.7031 42.2969,74.1094 42.2969,71.7031 M32.2969,87.7031 C30.1094,87.7031 28.6094,86.3125 28.6094,84.2031 C28.6094,82.2031 29.5,80.6094 31.2031,79.6094 C31.6094,79.8125 31.7031,79.8125 32,80 C33.2031,80.6094 33.2031,80.6094 33.4063,80.8125 C35.2969,81.9063 36.1094,82.9063 36.1094,84.3125 C36.1094,86.2031 34.5,87.7031 32.2969,87.7031 M36.1094,75.7031 C34.6094,74.9063 34.2031,74.7031 33.9063,74.5 L33.7031,74.4063 C32.2031,73.5 31.7031,72.7969 31.7031,71.6094 C31.7031,69.7969 33.1094,68.5 35.1094,68.5 C37,68.5 38.2031,69.7031 38.2031,71.7969 C38.2031,73.4063 37.6094,74.5 36.1094,75.7031 M64,-0.203125 C64,-15.2969 53.2969,-25.5 38.7031,-25.5 C37.7031,-31.5 36.7969,-37.4063 35.9063,-43 C46.4063,-54.1094 53.7969,-66.7031 53.7969,-82.5 C53.7969,-91.6094 51,-99 49.2969,-102.609 C46.9063,-107.703 44,-111.203 42.2969,-111.203 C41.6094,-111.203 38.4063,-110 35.2031,-106.109 C28.7031,-98.5 26.9063,-85.8125 26.9063,-77.4063 C26.9063,-72 27.4063,-67.1094 29.1094,-55.7969 C29,-55.7969 23.7969,-50.5 21.7031,-48.7031 C12.5938,-40.2969 0,-28.1094 0,-8.20313 C0,10.5938 16.2969,25.2969 34.9063,25.2969 C37.7969,25.2969 40.5,25 42.9063,24.5938 C44.7031,34.1094 45.9063,41.2031 45.9063,46.5 C45.9063,56.9063 40.5,62.4063 30.4063,62.4063 C28,62.4063 25.9063,61.9063 25.7031,61.7969 C25.6094,61.7969 25.4063,61.7031 25.4063,61.6094 C25.4063,61.4063 25.6094,61.2969 25.9063,61.2031 C30.6094,60.5 35.2969,56.4063 35.2969,50.1094 C35.2969,44.7031 31.2031,39 23.7031,39 C16.7031,39 12.2969,44.7031 12.2969,51.2969 C12.2969,57.9063 17.2969,66.6094 30.7969,66.6094 C43.7031,66.6094 50,59.2969 50,46.5 C50,42.6094 49.4063,38.1094 48.4063,32.4063 C48.1094,30.4063 47.6094,27.2969 46.9063,23.5 C56.7031,20.2031 64,10.0938 64,-0.203125 M33.2031,-82.2031 C34.2031,-86.2031 38.7031,-96.7031 43.9063,-96.7031 C45.4063,-96.7031 47.9063,-91.9063 47.9063,-84.9063 C47.9063,-74.6094 40.1094,-66.7969 33.2031,-59.9063 C32.6094,-63.9063 32.1094,-67.9063 32.1094,-72 C32.1094,-75.7969 32.5,-79.1094 33.2031,-82.2031 M36.2031,21.2031 C21.9063,21.2031 9.70313,11.2031 9.70313,-3.90625 C9.70313,-16.0938 18.2969,-27 27.1094,-34.7031 C28.7969,-36.1094 30.4063,-37.5 31.9063,-39 C32.7969,-33.6094 33.5,-29 34.2031,-24.7969 C25.0938,-22.2031 18.9063,-12.5 18.9063,-3.20313 C18.9063,3.90625 24.4063,13.5 32.4063,13.5 C33.2031,13.5 34.1094,13.0938 34.1094,12.0938 C34.1094,11.2969 33.2031,10.7031 31.9063,9.90625 C28,7.59375 25.7969,4.90625 25.7969,0.09375 C25.7969,-6 30.4063,-10.9063 36.2031,-12.2969 L42,20.5 C40,20.9063 38.2031,21.2031 36.2031,21.2031 M46.2031,19.2969 C44.1094,7.40625 41.4063,-8.5 40.7031,-12.9063 C50.7969,-12.9063 55.1094,-5.90625 56,-1.09375 C56.1094,-0.296875 56.2969,0.796875 56.2969,2 C56.2969,9.20313 53.2969,16.4063 46.2031,19.2969"/>
<path class="Clef" transform="matrix(0.992001,0,0,0.992001,231.198,1390.6)" d="M42.2969,71.7031 C42.2969,68 38.9063,66.4063 35.6094,66.4063 C31.4063,66.4063 27.2969,69 27.2969,73.5 C27.2969,75.4063 28,76.8125 29.4063,78.2031 C26.7969,79.2031 24.2031,81.2031 24.2031,84.3125 C24.2031,87.6094 27.2031,89.8125 31.6094,89.8125 C37,89.8125 40.7969,86.8125 40.7969,82.5 C40.7969,80.2031 39.7969,78.3125 38,77 C40.9063,75.7031 42.2969,74.1094 42.2969,71.7031 M32.2969,87.7031 C30.1094,87.7031 28.6094,86.3125 28.6094,84.2031 C28.6094,82.2031 29.5,80.6094 31.2031,79.6094 C31.6094,79.8125 31.7031,79.8125 32,80 C33.2031,80.6094 33.2031,80.6094 33.4063,80.8125 C35.2969,81.9063 36.1094,82.9063 36.1094,84.3125 C36.1094,86.2031 34.5,87.7031 32.2969,87.7031 M36.1094,75.7031 C34.6094,74.9063 34.2031,74.7031 33.9063,74.5 L33.7031,74.4063 C32.2031,73.5 31.7031,72.7969 31.7031,71.6094 C31.7031,69.7969 33.1094,68.5 35.1094,68.5 C37,68.5 38.2031,69.7031 38.2031,71.7969 C38.2031,73.4063 37.6094,74.5 36.1094,75.7031 M64,-0.203125 C64,-15.2969 53.2969,-25.5 38.7031,-25.5 C37.7031,-31.5 36.7969,-37.4063 35.9063,-43 C46.4063,-54.1094 53.7969,-66.7031 53.7969,-82.5 C53.7969,-91.6094 51,-99 49.2969,-102.609 C46.9063,-107.703 44,-111.203 42.2969,-111.203 C41.6094,-111.203 38.4063,-110 35.2031,-106.109 C28.7031,-98.5 26.9063,-85.8125 26.9063,-77.4063 C26.9063,-72 27.4063,-67.1094 29.1094,-55.7969 C29,-55.7969 23.7969,-50.5 21.7031,-48.7031 C12.5938,-40.2969 0,-28.1094 0,-8.20313 C0,10.5938 16.2969,25.2969 34.9063,25.2969 C37.7969,25.2969 40.5,25 42.9063,24.5938 C44.7031,34.1094 45.9063,41.2031 45.9063,46.5 C45.9063,56.9063 40.5,62.4063 30.4063,62.4063 C28,62.4063 25.9063,61.9063 25.7031,61.7969 C25.6094,61.7969 25.4063,61.7031 25.4063,61.6094 C25.4063,61.4063 25.6094,61.2969 25.9063,61.2031 C30.6094,60.5 35.2969,56.4063 35.2969,50.1094 C35.2969,44.7031 31.2031,39 23.7031,39 C16.7031,39 12.2969,44.7031 12.2969,51.2969 C12.2969,57.9063 17.2969,66.6094 30.7969,66.6094 C43.7031,66.6094 50,59.2969 50,46.5 C50,42.6094 49.4063,38.1094 48.4063,32.4063 C48.1094,30.4063 47.6094,27.2969 46.9063,23.5 C56.7031,20.2031 64,10.0938 64,-0.203125 M33.2031,-82.2031 C34.2031,-86.2031 38.7031,-96.7031 43.9063,-96.7031 C45.4063,-96.7031 47.9063,-91.9063 47.9063,-84.9063 C47.9063,-74.6094 40.1094,-66.7969 33.2031,-59.9063 C32.6094,-63.9063 32.1094,-67.9063 32.1094,-72 C32.1094,-75.7969 32.5,-79.1094 33.2031,-82.2031 M36.2031,21.2031 C21.9063,21.2031 9.70313,11.2031 9.70313,-3.90625 C9.70313,-16.0938 18.2969,-27 27.1094,-34.7031 C28.7969,-36.1094 30.4063,-37.5 31.9063,-39 C32.7969,-33.6094 33.5,-29 34.2031,-24.7969 C25.0938,-22.2031 18.9063,-12.5 18.9063,-3.20313 C18.9063,3.90625 24.4063,13.5 32.4063,13.5 C33.2031,13.5 34.1094,13.0938 34.1094,12.0938 C34.1094,11.2969 33.2031,10.7031 31.9063,9.90625 C28,7.59375 25.7969,4.90625 25.7969,0.09375 C25.7969,-6 30.4063,-10.9063 36.2031,-12.2969 L42,20.5 C40,20.9063 38.2031,21.2031 36.2031,21.2031 M46.2031,19.2969 C44.1094,7.40625 41.4063,-8.5 40.7031,-12.9063 C50.7969,-12.9063 55.1094,-5.90625 56,-1.09375 C56.1094,-0.296875 56.2969,0.796875 56.2969,2 C56.2969,9.20313 53.2969,16.4063 46.2031,19.2969"/>
<path class="TimeSig" transform="matrix(0.992001,0,0,0.992001,442.092,658.998)" d="M20.7969,12.7031 L20.7969,20.0938 L12.5,20.0938 C11.7969,20.0938 11.0938,20.7031 11.0938,21.5 L11.0938,23.4063 C11.0938,24.2031 11.7969,24.7969 12.5,24.7969 L42.7969,24.7969 C43.6094,24.7969 44.2031,24.2031 44.2031,23.4063 L44.2031,21.5 C44.2031,20.7031 43.6094,20.0938 42.7969,20.0938 L33.7969,20.0938 L33.7969,12.7031 L42.7969,12.7031 C43.6094,12.7031 44.2031,12 44.2031,11.2031 L44.2031,9.29688 C44.2031,8.59375 43.6094,7.90625 42.7969,7.90625 L33.7969,7.90625 L33.7969,-8 C33.7969,-8.59375 33.5,-9.09375 33.1094,-9.29688 L31.9063,-9.90625 C31.7031,-10 31.6094,-10 31.4063,-10 C31.2969,-10 31.2969,-10 31.2031,-10 C30.9063,-10 30.5,-9.90625 30.2969,-9.70313 L21.2031,-1.40625 C20.9063,-1.09375 20.7969,-0.703125 20.7969,-0.296875 L20.7969,7.90625 L9.20313,7.90625 C9.20313,7.90625 20.4063,-4.09375 32.2031,-19.9063 C32.6094,-20.4063 32.7031,-20.9063 32.7031,-21.2969 C32.7031,-21.7969 32.5,-22.2031 32.4063,-22.2969 L30.2031,-24.5 C29.9063,-24.7031 29.6094,-24.9063 29.2031,-24.9063 C28.6094,-24.9063 15.0938,-24.9063 14.2969,-24.9063 C13.5938,-24.9063 13.0938,-24.2969 13,-23.7031 C13,-23.7031 12.5,-16.2969 9.90625,-8.20313 C7.29688,-0.09375 4.29688,4.90625 1.70313,8.59375 C1.70313,8.59375 1.40625,9.09375 1.40625,9.70313 C1.40625,9.90625 1.40625,10.0938 1.5,10.2969 C1.79688,11 2.5,12.0938 2.5,12.0938 C2.5,12.0938 2.70313,12.7031 3.59375,12.7031 L20.7969,12.7031 "/>
<path class="TimeSig" transform="matrix(0.992001,0,0,0.992001,442.092,708.598)" d="M20.7969,12.7031 L20.7969,20.0938 L12.5,20.0938 C11.7969,20.0938 11.0938,20.7031 11.0938,21.5 L11.0938,23.4063 C11.0938,24.2031 11.7969,24.7969 12.5,24.7969 L42.7969,24.7969 C43.6094,24.7969 44.2031,24.2031 44.2031,23.4063 L44.2031,21.5 C44.2031,20.7031 43.6094,20.0938 42.7969,20.0938 L33.7969,20.0938 L33.7969,12.7031 L42.7969,12.7031 C43.6094,12.7031 44.2031,12 44.2031,11.2031 L44.2031,9.29688 C44.2031,8.59375 43.6094,7.90625 42.7969,7.90625 L33.7969,7.90625 L33.7969,-8 C33.7969,-8.59375 33.5,-9.09375 33.1094,-9.29688 L31.9063,-9.90625 C31.7031,-10 31.6094,-10 31.4063,-10 C31.2969,-10 31.2969,-10 31.2031,-10 C30.9063,-10 30.5,-9.90625 30.2969,-9.70313 L21.2031,-1.40625 C20.9063,-1.09375 20.7969,-0.703125 20.7969,-0.296875 L20.7969,7.90625 L9.20313,7.90625 C9.20313,7.90625 20.4063,-4.09375 32.2031,-19.9063 C32.6094,-20.4063 32.7031,-20.9063 32.7031,-21.2969 C32.7031,-21.7969 32.5,-22.2031 32.4063,-22.2969 L30.2031,-24.5 C29.9063,-24.7031 29.6094,-24.9063 29.2031,-24.9063 C28.6094,-24.9063 15.0938,-24.9063 14.2969,-24.9063 C13.5938,-24.9063 13.0938,-24.2969 13,-23.7031 C13,-23.7031 12.5,-16.2969 9.90625,-8.20313 C7.29688,-0.09375 4.29688,4.90625 1.70313,8.59375 C1.70313,8.59375 1.40625,9.09375 1.40625,9.70313 C1.40625,9.90625 1.40625,10.0938 1.5,10.2969 C1.79688,11 2.5,12.0938 2.5,12.0938 C2.5,12.0938 2.70313,12.7031 3.59375,12.7031 L20.7969,12.7031 "/>
<path class="Rest" transform="matrix(0.992001,0,0,0.992001,1538.71,683.798)" d="M26.7031,-20.2969 C26.6094,-20.2969 26.4063,-20.4063 26.2969,-20.4063 C25.7031,-20.4063 25.2031,-20.0938 25,-19.5938 C24.5938,-19 21.5,-13.0938 17,-9.79688 C15.7031,-8.79688 14.0938,-8.09375 12.5,-7.79688 C13.5938,-9.09375 14.2969,-10.7031 14.2969,-12.5938 C14.2969,-16.5 11.0938,-19.7031 7.20313,-19.7031 C3.20313,-19.7031 0,-16.5 0,-12.5938 C0,-9.5 1.90625,-7 4.5,-5.90625 C6,-5.20313 8,-4.70313 10,-4.70313 C12.9063,-4.70313 16,-5.59375 18.7031,-7.59375 C19.9063,-8.5 21.0938,-9.70313 22.2031,-10.9063 L10.7969,24.7031 L13.5,25.5 L27.5,-18.5938 C27.6094,-18.7031 27.6094,-18.9063 27.6094,-19.0938 C27.6094,-19.5938 27.2969,-20 26.7031,-20.2969"/>
<path class="Rest" transform="matrix(0.992001,0,0,0.992001,1011.45,683.798)" d="M26.7031,-20.2969 C26.6094,-20.2969 26.4063,-20.4063 26.2969,-20.4063 C25.7031,-20.4063 25.2031,-20.0938 25,-19.5938 C24.5938,-19 21.5,-13.0938 17,-9.79688 C15.7031,-8.79688 14.0938,-8.09375 12.5,-7.79688 C13.5938,-9.09375 14.2969,-10.7031 14.2969,-12.5938 C14.2969,-16.5 11.0938,-19.7031 7.20313,-19.7031 C3.20313,-19.7031 0,-16.5 0,-12.5938 C0,-9.5 1.90625,-7 4.5,-5.90625 C6,-5.20313 8,-4.70313 10,-4.70313 C12.9063,-4.70313 16,-5.59375 18.7031,-7.59375 C19.9063,-8.5 21.0938,-9.70313 22.2031,-10.9063 L10.7969,24.7031 L13.5,25.5 L27.5,-18.5938 C27.6094,-18.7031 27.6094,-18.9063 27.6094,-19.0938 C27.6094,-19.5938 27.2969,-20 26.7031,-20.2969"/>
<path class="Rest" transform="matrix(0.992001,0,0,0.992001,682.889,1365.8)" d="M26.7031,-20.2969 C26.6094,-20.2969 26.4063,-20.4063 26.2969,-20.4063 C25.7031,-20.4063 25.2031,-20.0938 25,-19.5938 C24.5938,-19 21.5,-13.0938 17,-9.79688 C15.7031,-8.79688 14.0938,-8.09375 12.5,-7.79688 C13.5938,-9.09375 14.2969,-10.7031 14.2969,-12.5938 C14.2969,-16.5 11.0938,-19.7031 7.20313,-19.7031 C3.20313,-19.7031 0,-16.5 0,-12.5938 C0,-9.5 1.90625,-7 4.5,-5.90625 C6,-5.20313 8,-4.70313 10,-4.70313 C12.9063,-4.70313 16,-5.59375 18.7031,-7.59375 C19.9063,-8.5 21.0938,-9.70313 22.2031,-10.9063 L10.7969,24.7031 L13.5,25.5 L27.5,-18.5938 C27.6094,-18.7031 27.6094,-18.9063 27.6094,-19.0938 C27.6094,-19.5938 27.2969,-20 26.7031,-20.2969"/>
<path class="Rest" transform="matrix(0.992001,0,0,0.992001,1417.39,1365.8)" d="M26.7031,-20.2969 C26.6094,-20.2969 26.4063,-20.4063 26.2969,-20.4063 C25.7031,-20.4063 25.2031,-20.0938 25,-19.5938 C24.5938,-19 21.5,-13.0938 17,-9.79688 C15.7031,-8.79688 14.0938,-8.09375 12.5,-7.79688 C13.5938,-9.09375 14.2969,-10.7031 14.2969,-12.5938 C14.2969,-16.5 11.0938,-19.7031 7.20313,-19.7031 C3.20313,-19.7031 0,-16.5 0,-12.5938 C0,-9.5 1.90625,-7 4.5,-5.90625 C6,-5.20313 8,-4.70313 10,-4.70313 C12.9063,-4.70313 16,-5.59375 18.7031,-7.59375 C19.9063,-8.5 21.0938,-9.70313 22.2031,-10.9063 L10.7969,24.7031 L13.5,25.5 L27.5,-18.5938 C27.6094,-18.7031 27.6094,-18.9063 27.6094,-19.0938 C27.6094,-19.5938 27.2969,-20 26.7031,-20.2969"/>
<path class="Beam" fill-rule="evenodd" d="M1106.17,627.938 L1238.62,609.337 L1238.62,621.859 L1106.17,640.459 L1106.17,627.938 "/>
<path class="Beam" fill-rule="evenodd" d="M1633.44,627.938 L1765.88,609.337 L1765.88,621.859 L1633.44,640.459 L1633.44,627.938 "/>
<path class="Beam" fill-rule="evenodd" d="M776.094,1403 L964.984,1409.2 L964.984,1421.6 L776.094,1415.4 L776.094,1403 "/>
<path class="Beam" fill-rule="evenodd" d="M1965.76,609.372 L2033.22,615.572 L2033.22,628.024 L1965.76,621.824 L1965.76,609.372 "/>
<path class="Beam" fill-rule="evenodd" d="M1091.17,1384.39 L1186.86,1390.59 L1186.86,1403.01 L1091.17,1396.81 L1091.17,1384.39 "/>
<path class="Beam" fill-rule="evenodd" d="M2625.73,727.172 L2693.19,720.972 L2693.19,733.425 L2625.73,739.625 L2625.73,727.172 "/>
<path class="Beam" fill-rule="evenodd" d="M784.016,751.972 L851.477,758.172 L851.477,770.625 L784.016,764.425 L784.016,751.972 "/>
<path class="Beam" fill-rule="evenodd" d="M1510.6,1402.99 L1699.49,1415.39 L1699.49,1427.81 L1510.6,1415.41 L1510.6,1402.99 "/>
<path class="Beam" fill-rule="evenodd" d="M565.27,627.938 L697.712,609.337 L697.712,621.859 L565.27,640.459 L565.27,627.938 "/>
<path class="Beam" fill-rule="evenodd" d="M356.671,1384.4 L452.356,1384.4 L452.356,1396.8 L356.671,1396.8 L356.671,1384.4 "/>
<path class="Beam" fill-rule="evenodd" d="M1311.28,751.972 L1378.74,758.172 L1378.74,770.625 L1311.28,764.425 L1311.28,751.972 "/>
<path class="Beam" fill-rule="evenodd" d="M2193.19,609.372 L2260.65,615.572 L2260.65,628.024 L2193.19,621.824 L2193.19,609.372 "/>
<path class="Fingering" d="M1833.99,1284 L1826.71,1284.6 L1826.58,1286.05 L1827.55,1286.05 C1829.15,1286.05 1829.79,1286.41 1829.79,1287.31 C1829.79,1287.67 1829.66,1288.28 1829.46,1289.05 L1825.38,1302.8 L1828.86,1302.8 L1830.51,1297.16 C1832.3,1291.03 1835.94,1286.41 1838.94,1286.41 C1839.99,1286.41 1840.63,1286.96 1840.63,1287.96 C1840.63,1288.77 1840.3,1290.44 1839.82,1291.96 L1836.63,1302.8 L1840.1,1302.8 L1841.82,1297 C1842.82,1293.67 1843.82,1291.44 1845.1,1289.72 C1846.54,1287.72 1848.58,1286.41 1850.1,1286.41 C1851.1,1286.41 1851.66,1286.92 1851.66,1287.88 C1851.66,1288.44 1851.46,1289.31 1851.1,1290.44 L1849.26,1296.13 C1848.18,1299.24 1848.15,1299.49 1848.15,1300.6 C1848.15,1302.28 1849.38,1303.39 1851.26,1303.39 C1852.58,1303.39 1853.86,1302.75 1855.22,1301.49 C1856.07,1300.67 1856.61,1299.96 1858.26,1297.56 L1857.02,1296.72 C1854.94,1299.85 1853.46,1301.36 1852.43,1301.36 C1851.99,1301.36 1851.58,1300.92 1851.58,1300.36 C1851.58,1300 1851.71,1299.56 1852.07,1298.39 L1854.58,1290.64 C1854.86,1289.77 1855.07,1288.52 1855.07,1287.64 C1855.07,1285.52 1853.51,1284 1851.35,1284 C1848.51,1284 1845.94,1285.85 1843.63,1289.64 C1843.79,1288.88 1843.86,1288.21 1843.86,1287.72 C1843.86,1285.6 1842.18,1284 1839.99,1284 C1837.46,1284 1835.63,1285.41 1832.82,1289.41 L1833.99,1284 "/>
<path class="Fingering" d="M1983.61,1273.76 C1982.41,1273.76 1981.45,1274.72 1981.45,1275.93 C1981.45,1277.08 1982.41,1278.08 1983.58,1278.08 C1984.81,1278.08 1985.77,1277.12 1985.77,1275.93 C1985.77,1274.72 1984.81,1273.76 1983.61,1273.76 M1984.33,1283.52 L1976.66,1284.12 L1976.5,1285.57 L1977.45,1285.57 C1979.09,1285.57 1979.73,1285.93 1979.73,1286.8 C1979.73,1287.19 1979.66,1287.65 1979.38,1288.57 L1977.05,1296.37 C1976.3,1298.91 1976.17,1299.47 1976.17,1300.4 C1976.17,1301.8 1977.38,1302.88 1978.89,1302.88 C1982.33,1302.88 1984.69,1299.32 1986.38,1296.72 L1985.13,1296.04 C1983.05,1299.19 1981.38,1300.88 1980.3,1300.88 C1979.89,1300.88 1979.61,1300.52 1979.61,1300.04 C1979.61,1299.65 1979.77,1298.91 1980.09,1297.8 L1984.33,1283.52 "/>
<path class="Fingering" d="M2113.6,1284 L2106.32,1284.6 L2106.2,1286.05 L2107.17,1286.05 C2108.76,1286.05 2109.4,1286.41 2109.4,1287.31 C2109.4,1287.67 2109.28,1288.28 2109.07,1289.05 L2105,1302.8 L2108.48,1302.8 L2110.12,1297.16 C2111.92,1291.03 2115.56,1286.41 2118.56,1286.41 C2119.6,1286.41 2120.25,1286.96 2120.25,1287.96 C2120.25,1288.77 2119.92,1290.44 2119.43,1291.96 L2116.25,1302.8 L2119.71,1302.8 L2121.43,1297 C2122.43,1293.67 2123.43,1291.44 2124.71,1289.72 C2126.15,1287.72 2128.2,1286.41 2129.71,1286.41 C2130.71,1286.41 2131.28,1286.92 2131.28,1287.88 C2131.28,1288.44 2131.07,1289.31 2130.71,1290.44 L2128.87,1296.13 C2127.79,1299.24 2127.76,1299.49 2127.76,1300.6 C2127.76,1302.28 2129,1303.39 2130.87,1303.39 C2132.2,1303.39 2133.48,1302.75 2134.84,1301.49 C2135.68,1300.67 2136.23,1299.96 2137.87,1297.56 L2136.64,1296.72 C2134.56,1299.85 2133.07,1301.36 2132.04,1301.36 C2131.6,1301.36 2131.2,1300.92 2131.2,1300.36 C2131.2,1300 2131.32,1299.56 2131.68,1298.39 L2134.2,1290.64 C2134.48,1289.77 2134.68,1288.52 2134.68,1287.64 C2134.68,1285.52 2133.12,1284 2130.96,1284 C2128.12,1284 2125.56,1285.85 2123.25,1289.64 C2123.4,1288.88 2123.48,1288.21 2123.48,1287.72 C2123.48,1285.6 2121.79,1284 2119.6,1284 C2117.07,1284 2115.25,1285.41 2112.43,1289.41 L2113.6,1284 "/>
<path class="Fingering" d="M1528.72,1273.76 C1527.52,1273.76 1526.57,1274.72 1526.57,1275.93 C1526.57,1277.08 1527.52,1278.08 1528.69,1278.08 C1529.93,1278.08 1530.88,1277.12 1530.88,1275.93 C1530.88,1274.72 1529.93,1273.76 1528.72,1273.76 M1529.44,1283.52 L1521.77,1284.12 L1521.61,1285.57 L1522.57,1285.57 C1524.21,1285.57 1524.85,1285.93 1524.85,1286.8 C1524.85,1287.19 1524.77,1287.65 1524.49,1288.57 L1522.16,1296.37 C1521.41,1298.91 1521.29,1299.47 1521.29,1300.4 C1521.29,1301.8 1522.49,1302.88 1524,1302.88 C1527.44,1302.88 1529.8,1299.32 1531.49,1296.72 L1530.24,1296.04 C1528.16,1299.19 1526.49,1300.88 1525.41,1300.88 C1525,1300.88 1524.72,1300.52 1524.72,1300.04 C1524.72,1299.65 1524.88,1298.91 1525.21,1297.8 L1529.44,1283.52 "/>
<path class="Fingering" d="M2431.07,1284 L2423.79,1284.6 L2423.66,1286.05 L2424.63,1286.05 C2426.23,1286.05 2426.87,1286.41 2426.87,1287.31 C2426.87,1287.67 2426.74,1288.28 2426.54,1289.05 L2422.46,1302.8 L2425.95,1302.8 L2427.59,1297.16 C2429.38,1291.03 2433.02,1286.41 2436.02,1286.41 C2437.07,1286.41 2437.71,1286.96 2437.71,1287.96 C2437.71,1288.77 2437.38,1290.44 2436.9,1291.96 L2433.71,1302.8 L2437.18,1302.8 L2438.9,1297 C2439.9,1293.67 2440.9,1291.44 2442.18,1289.72 C2443.62,1287.72 2445.66,1286.41 2447.18,1286.41 C2448.18,1286.41 2448.74,1286.92 2448.74,1287.88 C2448.74,1288.44 2448.54,1289.31 2448.18,1290.44 L2446.34,1296.13 C2445.26,1299.24 2445.23,1299.49 2445.23,1300.6 C2445.23,1302.28 2446.46,1303.39 2448.34,1303.39 C2449.66,1303.39 2450.95,1302.75 2452.31,1301.49 C2453.15,1300.67 2453.7,1299.96 2455.34,1297.56 L2454.1,1296.72 C2452.02,1299.85 2450.54,1301.36 2449.51,1301.36 C2449.07,1301.36 2448.66,1300.92 2448.66,1300.36 C2448.66,1300 2448.79,1299.56 2449.15,1298.39 L2451.66,1290.64 C2451.95,1289.77 2452.15,1288.52 2452.15,1287.64 C2452.15,1285.52 2450.59,1284 2448.43,1284 C2445.59,1284 2443.02,1285.85 2440.71,1289.64 C2440.87,1288.88 2440.95,1288.21 2440.95,1287.72 C2440.95,1285.6 2439.26,1284 2437.07,1284 C2434.54,1284 2432.71,1285.41 2429.9,1289.41 L2431.07,1284 "/>
<path class="Fingering" d="M553.654,585.862 C552.451,585.862 551.497,586.83 551.497,588.034 C551.497,589.19 552.451,590.19 553.622,590.19 C554.857,590.19 555.81,589.221 555.81,588.034 C555.81,586.83 554.857,585.862 553.654,585.862 M554.372,595.627 L546.701,596.221 L546.544,597.674 L547.497,597.674 C549.138,597.674 549.779,598.034 549.779,598.909 C549.779,599.299 549.701,599.752 549.419,600.674 L547.091,608.471 C546.341,611.018 546.216,611.58 546.216,612.502 C546.216,613.909 547.419,614.987 548.935,614.987 C552.372,614.987 554.732,611.424 556.419,608.83 L555.169,608.143 C553.091,611.299 551.419,612.987 550.341,612.987 C549.935,612.987 549.654,612.627 549.654,612.143 C549.654,611.752 549.81,611.018 550.138,609.909 L554.372,595.627 "/>
<path class="Fingering" d="M1612.12,1284 L1604.83,1284.6 L1604.71,1286.05 L1605.68,1286.05 C1607.27,1286.05 1607.91,1286.41 1607.91,1287.31 C1607.91,1287.67 1607.79,1288.28 1607.58,1289.05 L1603.51,1302.8 L1606.99,1302.8 L1608.63,1297.16 C1610.43,1291.03 1614.07,1286.41 1617.07,1286.41 C1618.12,1286.41 1618.76,1286.96 1618.76,1287.96 C1618.76,1288.77 1618.43,1290.44 1617.94,1291.96 L1614.76,1302.8 L1618.23,1302.8 L1619.94,1297 C1620.94,1293.67 1621.94,1291.44 1623.23,1289.72 C1624.66,1287.72 1626.71,1286.41 1628.23,1286.41 C1629.23,1286.41 1629.79,1286.92 1629.79,1287.88 C1629.79,1288.44 1629.58,1289.31 1629.23,1290.44 L1627.38,1296.13 C1626.3,1299.24 1626.27,1299.49 1626.27,1300.6 C1626.27,1302.28 1627.51,1303.39 1629.38,1303.39 C1630.71,1303.39 1631.99,1302.75 1633.35,1301.49 C1634.19,1300.67 1634.74,1299.96 1636.38,1297.56 L1635.15,1296.72 C1633.07,1299.85 1631.58,1301.36 1630.55,1301.36 C1630.12,1301.36 1629.71,1300.92 1629.71,1300.36 C1629.71,1300 1629.83,1299.56 1630.19,1298.39 L1632.71,1290.64 C1632.99,1289.77 1633.19,1288.52 1633.19,1287.64 C1633.19,1285.52 1631.63,1284 1629.48,1284 C1626.63,1284 1624.07,1285.85 1621.76,1289.64 C1621.91,1288.88 1621.99,1288.21 1621.99,1287.72 C1621.99,1285.6 1620.3,1284 1618.12,1284 C1615.58,1284 1613.76,1285.41 1610.94,1289.41 L1612.12,1284 "/>
<path class="Fingering" d="M2263.22,1274.24 C2262.02,1274.24 2261.07,1275.21 2261.07,1276.41 C2261.07,1277.56 2262.02,1278.56 2263.19,1278.56 C2264.43,1278.56 2265.38,1277.6 2265.38,1276.41 C2265.38,1275.21 2264.43,1274.24 2263.22,1274.24 M2263.94,1284 L2256.27,1284.6 L2256.12,1286.05 L2257.07,1286.05 C2258.71,1286.05 2259.35,1286.41 2259.35,1287.28 C2259.35,1287.67 2259.27,1288.13 2258.99,1289.05 L2256.66,1296.85 C2255.91,1299.39 2255.79,1299.96 2255.79,1300.88 C2255.79,1302.28 2256.99,1303.36 2258.51,1303.36 C2261.94,1303.36 2264.3,1299.8 2265.99,1297.21 L2264.74,1296.52 C2262.66,1299.67 2260.99,1301.36 2259.91,1301.36 C2259.51,1301.36 2259.22,1301 2259.22,1300.52 C2259.22,1300.13 2259.38,1299.39 2259.71,1298.28 L2263.94,1284 "/>
<path class="Fingering" d="M1715.13,1274.24 C1713.93,1274.24 1712.98,1275.21 1712.98,1276.41 C1712.98,1277.56 1713.93,1278.56 1715.1,1278.56 C1716.34,1278.56 1717.29,1277.6 1717.29,1276.41 C1717.29,1275.21 1716.34,1274.24 1715.13,1274.24 M1715.85,1284 L1708.18,1284.6 L1708.02,1286.05 L1708.98,1286.05 C1710.62,1286.05 1711.26,1286.41 1711.26,1287.28 C1711.26,1287.67 1711.18,1288.13 1710.9,1289.05 L1708.57,1296.85 C1707.82,1299.39 1707.7,1299.96 1707.7,1300.88 C1707.7,1302.28 1708.9,1303.36 1710.41,1303.36 C1713.85,1303.36 1716.21,1299.8 1717.9,1297.21 L1716.65,1296.52 C1714.57,1299.67 1712.9,1301.36 1711.82,1301.36 C1711.41,1301.36 1711.13,1301 1711.13,1300.52 C1711.13,1300.13 1711.29,1299.39 1711.62,1298.28 L1715.85,1284 "/>
<path class="Fingering" d="M2074.29,602.001 L2067.01,602.595 L2066.89,604.048 L2067.86,604.048 C2069.45,604.048 2070.09,604.408 2070.09,605.314 C2070.09,605.673 2069.97,606.283 2069.76,607.048 L2065.68,620.798 L2069.17,620.798 L2070.81,615.158 C2072.61,609.033 2076.25,604.408 2079.25,604.408 C2080.29,604.408 2080.93,604.955 2080.93,605.955 C2080.93,606.767 2080.61,608.439 2080.12,609.955 L2076.93,620.798 L2080.4,620.798 L2082.12,615.001 C2083.12,611.673 2084.12,609.439 2085.4,607.72 C2086.84,605.72 2088.89,604.408 2090.4,604.408 C2091.4,604.408 2091.97,604.923 2091.97,605.876 C2091.97,606.439 2091.76,607.314 2091.4,608.439 L2089.56,614.126 C2088.48,617.236 2088.45,617.486 2088.45,618.595 C2088.45,620.283 2089.68,621.392 2091.56,621.392 C2092.89,621.392 2094.17,620.751 2095.53,619.486 C2096.37,618.673 2096.92,617.955 2098.56,615.564 L2097.32,614.72 C2095.25,617.845 2093.76,619.361 2092.73,619.361 C2092.29,619.361 2091.89,618.923 2091.89,618.361 C2091.89,618.001 2092.01,617.564 2092.37,616.392 L2094.89,608.642 C2095.17,607.767 2095.37,606.517 2095.37,605.642 C2095.37,603.517 2093.81,602.001 2091.65,602.001 C2088.81,602.001 2086.25,603.845 2083.93,607.642 C2084.09,606.876 2084.17,606.205 2084.17,605.72 C2084.17,603.595 2082.48,602.001 2080.29,602.001 C2077.76,602.001 2075.93,603.408 2073.12,607.408 L2074.29,602.001 "/>
<path class="Fingering" d="M792.332,602.001 L785.05,602.595 L784.925,604.048 L785.894,604.048 C787.488,604.048 788.128,604.408 788.128,605.314 C788.128,605.673 788.003,606.283 787.8,607.048 L783.722,620.798 L787.207,620.798 L788.847,615.158 C790.644,609.033 794.285,604.408 797.285,604.408 C798.332,604.408 798.972,604.955 798.972,605.955 C798.972,606.767 798.644,608.439 798.16,609.955 L794.972,620.798 L798.441,620.798 L800.16,615.001 C801.16,611.673 802.16,609.439 803.441,607.72 C804.878,605.72 806.925,604.408 808.441,604.408 C809.441,604.408 810.003,604.923 810.003,605.876 C810.003,606.439 809.8,607.314 809.441,608.439 L807.597,614.126 C806.519,617.236 806.488,617.486 806.488,618.595 C806.488,620.283 807.722,621.392 809.597,621.392 C810.925,621.392 812.207,620.751 813.566,619.486 C814.41,618.673 814.957,617.955 816.597,615.564 L815.363,614.72 C813.285,617.845 811.8,619.361 810.769,619.361 C810.332,619.361 809.925,618.923 809.925,618.361 C809.925,618.001 810.05,617.564 810.41,616.392 L812.925,608.642 C813.207,607.767 813.41,606.517 813.41,605.642 C813.41,603.517 811.847,602.001 809.691,602.001 C806.847,602.001 804.285,603.845 801.972,607.642 C802.128,606.876 802.207,606.205 802.207,605.72 C802.207,603.595 800.519,602.001 798.332,602.001 C795.8,602.001 793.972,603.408 791.16,607.408 L792.332,602.001 "/>
<path class="Fingering" d="M867.125,592.236 C865.922,592.236 864.969,593.205 864.969,594.408 C864.969,595.564 865.922,596.564 867.094,596.564 C868.328,596.564 869.281,595.595 869.281,594.408 C869.281,593.205 868.328,592.236 867.125,592.236 M867.844,602.001 L860.172,602.595 L860.016,604.048 L860.969,604.048 C862.609,604.048 863.25,604.408 863.25,605.283 C863.25,605.673 863.172,606.126 862.891,607.048 L860.562,614.845 C859.812,617.392 859.687,617.955 859.687,618.876 C859.687,620.283 860.891,621.361 862.406,621.361 C865.844,621.361 868.203,617.798 869.891,615.205 L868.641,614.517 C866.562,617.673 864.891,619.361 863.812,619.361 C863.406,619.361 863.125,619.001 863.125,618.517 C863.125,618.126 863.281,617.392 863.609,616.283 L867.844,602.001 "/>
<path class="Fingering" d="M1094.56,585.862 C1093.35,585.862 1092.4,586.83 1092.4,588.034 C1092.4,589.19 1093.35,590.19 1094.53,590.19 C1095.76,590.19 1096.71,589.221 1096.71,588.034 C1096.71,586.83 1095.76,585.862 1094.56,585.862 M1095.28,595.627 L1087.6,596.221 L1087.45,597.674 L1088.4,597.674 C1090.04,597.674 1090.68,598.034 1090.68,598.909 C1090.68,599.299 1090.6,599.752 1090.32,600.674 L1088,608.471 C1087.25,611.018 1087.12,611.58 1087.12,612.502 C1087.12,613.909 1088.32,614.987 1089.84,614.987 C1093.28,614.987 1095.64,611.424 1097.32,608.83 L1096.07,608.143 C1094,611.299 1092.32,612.987 1091.25,612.987 C1090.84,612.987 1090.56,612.627 1090.56,612.143 C1090.56,611.752 1090.71,611.018 1091.04,609.909 L1095.28,595.627 "/>
<path class="Fingering" d="M1149.73,586.501 L1142.45,587.095 L1142.32,588.548 L1143.29,588.548 C1144.88,588.548 1145.52,588.908 1145.52,589.814 C1145.52,590.173 1145.4,590.783 1145.2,591.548 L1141.12,605.298 L1144.6,605.298 L1146.24,599.658 C1148.04,593.533 1151.68,588.908 1154.68,588.908 C1155.73,588.908 1156.37,589.455 1156.37,590.455 C1156.37,591.267 1156.04,592.939 1155.55,594.455 L1152.37,605.298 L1155.84,605.298 L1157.55,599.501 C1158.55,596.173 1159.55,593.939 1160.84,592.22 C1162.27,590.22 1164.32,588.908 1165.84,588.908 C1166.84,588.908 1167.4,589.423 1167.4,590.376 C1167.4,590.939 1167.2,591.814 1166.84,592.939 L1164.99,598.626 C1163.91,601.736 1163.88,601.986 1163.88,603.095 C1163.88,604.783 1165.12,605.892 1166.99,605.892 C1168.32,605.892 1169.6,605.251 1170.96,603.986 C1171.8,603.173 1172.35,602.455 1173.99,600.064 L1172.76,599.22 C1170.68,602.345 1169.2,603.861 1168.16,603.861 C1167.73,603.861 1167.32,603.423 1167.32,602.861 C1167.32,602.501 1167.45,602.064 1167.8,600.892 L1170.32,593.142 C1170.6,592.267 1170.8,591.017 1170.8,590.142 C1170.8,588.017 1169.24,586.501 1167.09,586.501 C1164.24,586.501 1161.68,588.345 1159.37,592.142 C1159.52,591.376 1159.6,590.705 1159.6,590.22 C1159.6,588.095 1157.91,586.501 1155.73,586.501 C1153.2,586.501 1151.37,587.908 1148.55,591.908 L1149.73,586.501 "/>
<path class="Fingering" d="M1224.52,567.61 C1223.32,567.61 1222.36,568.579 1222.36,569.782 C1222.36,570.938 1223.32,571.938 1224.49,571.938 C1225.72,571.938 1226.68,570.969 1226.68,569.782 C1226.68,568.579 1225.72,567.61 1224.52,567.61 M1225.24,577.376 L1217.57,577.969 L1217.41,579.422 L1218.36,579.422 C1220,579.422 1220.64,579.782 1220.64,580.657 C1220.64,581.047 1220.57,581.501 1220.29,582.422 L1217.96,590.219 C1217.21,592.766 1217.08,593.329 1217.08,594.251 C1217.08,595.657 1218.29,596.735 1219.8,596.735 C1223.24,596.735 1225.6,593.172 1227.29,590.579 L1226.04,589.891 C1223.96,593.047 1222.29,594.735 1221.21,594.735 C1220.8,594.735 1220.52,594.376 1220.52,593.891 C1220.52,593.501 1220.68,592.766 1221,591.657 L1225.24,577.376 "/>
<path class="Fingering" d="M1319.6,602.001 L1312.31,602.595 L1312.19,604.048 L1313.16,604.048 C1314.75,604.048 1315.39,604.408 1315.39,605.314 C1315.39,605.673 1315.27,606.283 1315.06,607.048 L1310.99,620.798 L1314.47,620.798 L1316.11,615.158 C1317.91,609.033 1321.55,604.408 1324.55,604.408 C1325.6,604.408 1326.24,604.955 1326.24,605.955 C1326.24,606.767 1325.91,608.439 1325.42,609.955 L1322.24,620.798 L1325.71,620.798 L1327.42,615.001 C1328.42,611.673 1329.42,609.439 1330.71,607.72 C1332.14,605.72 1334.19,604.408 1335.71,604.408 C1336.71,604.408 1337.27,604.923 1337.27,605.876 C1337.27,606.439 1337.06,607.314 1336.71,608.439 L1334.86,614.126 C1333.78,617.236 1333.75,617.486 1333.75,618.595 C1333.75,620.283 1334.99,621.392 1336.86,621.392 C1338.19,621.392 1339.47,620.751 1340.83,619.486 C1341.67,618.673 1342.22,617.955 1343.86,615.564 L1342.63,614.72 C1340.55,617.845 1339.06,619.361 1338.03,619.361 C1337.6,619.361 1337.19,618.923 1337.19,618.361 C1337.19,618.001 1337.31,617.564 1337.67,616.392 L1340.19,608.642 C1340.47,607.767 1340.67,606.517 1340.67,605.642 C1340.67,603.517 1339.11,602.001 1336.96,602.001 C1334.11,602.001 1331.55,603.845 1329.24,607.642 C1329.39,606.876 1329.47,606.205 1329.47,605.72 C1329.47,603.595 1327.78,602.001 1325.6,602.001 C1323.06,602.001 1321.24,603.408 1318.42,607.408 L1319.6,602.001 "/>
<path class="Fingering" d="M1394.39,592.236 C1393.19,592.236 1392.23,593.205 1392.23,594.408 C1392.23,595.564 1393.19,596.564 1394.36,596.564 C1395.59,596.564 1396.55,595.595 1396.55,594.408 C1396.55,593.205 1395.59,592.236 1394.39,592.236 M1395.11,602.001 L1387.44,602.595 L1387.28,604.048 L1388.23,604.048 C1389.87,604.048 1390.51,604.408 1390.51,605.283 C1390.51,605.673 1390.44,606.126 1390.15,607.048 L1387.83,614.845 C1387.08,617.392 1386.95,617.955 1386.95,618.876 C1386.95,620.283 1388.15,621.361 1389.67,621.361 C1393.11,621.361 1395.47,617.798 1397.15,615.205 L1395.9,614.517 C1393.83,617.673 1392.15,619.361 1391.08,619.361 C1390.67,619.361 1390.39,619.001 1390.39,618.517 C1390.39,618.126 1390.55,617.392 1390.87,616.283 L1395.11,602.001 "/>
<path class="Fingering" d="M1621.82,585.862 C1620.62,585.862 1619.67,586.83 1619.67,588.034 C1619.67,589.19 1620.62,590.19 1621.79,590.19 C1623.03,590.19 1623.98,589.221 1623.98,588.034 C1623.98,586.83 1623.03,585.862 1621.82,585.862 M1622.54,595.627 L1614.87,596.221 L1614.71,597.674 L1615.67,597.674 C1617.31,597.674 1617.95,598.034 1617.95,598.909 C1617.95,599.299 1617.87,599.752 1617.59,600.674 L1615.26,608.471 C1614.51,611.018 1614.38,611.58 1614.38,612.502 C1614.38,613.909 1615.59,614.987 1617.1,614.987 C1620.54,614.987 1622.9,611.424 1624.59,608.83 L1623.34,608.143 C1621.26,611.299 1619.59,612.987 1618.51,612.987 C1618.1,612.987 1617.82,612.627 1617.82,612.143 C1617.82,611.752 1617.98,611.018 1618.31,609.909 L1622.54,595.627 "/>
<path class="Fingering" d="M1676.99,586.501 L1669.71,587.095 L1669.58,588.548 L1670.55,588.548 C1672.15,588.548 1672.79,588.908 1672.79,589.814 C1672.79,590.173 1672.66,590.783 1672.46,591.548 L1668.38,605.298 L1671.87,605.298 L1673.51,599.658 C1675.3,593.533 1678.94,588.908 1681.94,588.908 C1682.99,588.908 1683.63,589.455 1683.63,590.455 C1683.63,591.267 1683.3,592.939 1682.82,594.455 L1679.63,605.298 L1683.1,605.298 L1684.82,599.501 C1685.82,596.173 1686.82,593.939 1688.1,592.22 C1689.54,590.22 1691.58,588.908 1693.1,588.908 C1694.1,588.908 1694.66,589.423 1694.66,590.376 C1694.66,590.939 1694.46,591.814 1694.1,592.939 L1692.26,598.626 C1691.18,601.736 1691.15,601.986 1691.15,603.095 C1691.15,604.783 1692.38,605.892 1694.26,605.892 C1695.58,605.892 1696.87,605.251 1698.23,603.986 C1699.07,603.173 1699.62,602.455 1701.26,600.064 L1700.02,599.22 C1697.94,602.345 1696.46,603.861 1695.43,603.861 C1694.99,603.861 1694.58,603.423 1694.58,602.861 C1694.58,602.501 1694.71,602.064 1695.07,600.892 L1697.58,593.142 C1697.87,592.267 1698.07,591.017 1698.07,590.142 C1698.07,588.017 1696.51,586.501 1694.35,586.501 C1691.51,586.501 1688.94,588.345 1686.63,592.142 C1686.79,591.376 1686.87,590.705 1686.87,590.22 C1686.87,588.095 1685.18,586.501 1682.99,586.501 C1680.46,586.501 1678.63,587.908 1675.82,591.908 L1676.99,586.501 "/>
<path class="Fingering" d="M1751.78,567.61 C1750.58,567.61 1749.63,568.579 1749.63,569.782 C1749.63,570.938 1750.58,571.938 1751.75,571.938 C1752.99,571.938 1753.94,570.969 1753.94,569.782 C1753.94,568.579 1752.99,567.61 1751.78,567.61 M1752.5,577.376 L1744.83,577.969 L1744.67,579.422 L1745.63,579.422 C1747.27,579.422 1747.91,579.782 1747.91,580.657 C1747.91,581.047 1747.83,581.501 1747.55,582.422 L1745.22,590.219 C1744.47,592.766 1744.35,593.329 1744.35,594.251 C1744.35,595.657 1745.55,596.735 1747.07,596.735 C1750.5,596.735 1752.86,593.172 1754.55,590.579 L1753.3,589.891 C1751.22,593.047 1749.55,594.735 1748.47,594.735 C1748.07,594.735 1747.78,594.376 1747.78,593.891 C1747.78,593.501 1747.94,592.766 1748.27,591.657 L1752.5,577.376 "/>
<path class="Fingering" d="M1846.86,602.001 L1839.58,602.595 L1839.45,604.048 L1840.42,604.048 C1842.02,604.048 1842.66,604.408 1842.66,605.314 C1842.66,605.673 1842.53,606.283 1842.33,607.048 L1838.25,620.798 L1841.74,620.798 L1843.38,615.158 C1845.17,609.033 1848.81,604.408 1851.81,604.408 C1852.86,604.408 1853.5,604.955 1853.5,605.955 C1853.5,606.767 1853.17,608.439 1852.69,609.955 L1849.5,620.798 L1852.97,620.798 L1854.69,615.001 C1855.69,611.673 1856.69,609.439 1857.97,607.72 C1859.41,605.72 1861.45,604.408 1862.97,604.408 C1863.97,604.408 1864.53,604.923 1864.53,605.876 C1864.53,606.439 1864.33,607.314 1863.97,608.439 L1862.13,614.126 C1861.05,617.236 1861.02,617.486 1861.02,618.595 C1861.02,620.283 1862.25,621.392 1864.13,621.392 C1865.45,621.392 1866.74,620.751 1868.09,619.486 C1868.94,618.673 1869.49,617.955 1871.13,615.564 L1869.89,614.72 C1867.81,617.845 1866.33,619.361 1865.3,619.361 C1864.86,619.361 1864.45,618.923 1864.45,618.361 C1864.45,618.001 1864.58,617.564 1864.94,616.392 L1867.45,608.642 C1867.74,607.767 1867.94,606.517 1867.94,605.642 C1867.94,603.517 1866.38,602.001 1864.22,602.001 C1861.38,602.001 1858.81,603.845 1856.5,607.642 C1856.66,606.876 1856.74,606.205 1856.74,605.72 C1856.74,603.595 1855.05,602.001 1852.86,602.001 C1850.33,602.001 1848.5,603.408 1845.69,607.408 L1846.86,602.001 "/>
<path class="Fingering" d="M1944.33,577.315 L1937.05,577.909 L1936.93,579.362 L1937.89,579.362 C1939.49,579.362 1940.13,579.722 1940.13,580.628 C1940.13,580.987 1940,581.597 1939.8,582.362 L1935.72,596.112 L1939.21,596.112 L1940.85,590.472 C1942.64,584.347 1946.28,579.722 1949.28,579.722 C1950.33,579.722 1950.97,580.269 1950.97,581.269 C1950.97,582.081 1950.64,583.753 1950.16,585.269 L1946.97,596.112 L1950.44,596.112 L1952.16,590.315 C1953.16,586.987 1954.16,584.753 1955.44,583.034 C1956.88,581.034 1958.93,579.722 1960.44,579.722 C1961.44,579.722 1962,580.237 1962,581.19 C1962,581.753 1961.8,582.628 1961.44,583.753 L1959.6,589.44 C1958.52,592.55 1958.49,592.8 1958.49,593.909 C1958.49,595.597 1959.72,596.706 1961.6,596.706 C1962.93,596.706 1964.21,596.065 1965.57,594.8 C1966.41,593.987 1966.96,593.269 1968.6,590.878 L1967.36,590.034 C1965.28,593.159 1963.8,594.675 1962.77,594.675 C1962.33,594.675 1961.93,594.237 1961.93,593.675 C1961.93,593.315 1962.05,592.878 1962.41,591.706 L1964.93,583.956 C1965.21,583.081 1965.41,581.831 1965.41,580.956 C1965.41,578.831 1963.85,577.315 1961.69,577.315 C1958.85,577.315 1956.28,579.159 1953.97,582.956 C1954.13,582.19 1954.21,581.519 1954.21,581.034 C1954.21,578.909 1952.52,577.315 1950.33,577.315 C1947.8,577.315 1945.97,578.722 1943.16,582.722 L1944.33,577.315 "/>
<path class="Fingering" d="M683.615,567.61 C682.412,567.61 681.459,568.579 681.459,569.782 C681.459,570.938 682.412,571.938 683.584,571.938 C684.819,571.938 685.772,570.969 685.772,569.782 C685.772,568.579 684.819,567.61 683.615,567.61 M684.334,577.376 L676.662,577.969 L676.506,579.422 L677.459,579.422 C679.1,579.422 679.74,579.782 679.74,580.657 C679.74,581.047 679.662,581.501 679.381,582.422 L677.053,590.219 C676.303,592.766 676.178,593.329 676.178,594.251 C676.178,595.657 677.381,596.735 678.897,596.735 C682.334,596.735 684.694,593.172 686.381,590.579 L685.131,589.891 C683.053,593.047 681.381,594.735 680.303,594.735 C679.897,594.735 679.615,594.376 679.615,593.891 C679.615,593.501 679.772,592.766 680.1,591.657 L684.334,577.376 "/>
<path class="Fingering" d="M2019.13,573.522 C2017.92,573.522 2016.97,574.491 2016.97,575.694 C2016.97,576.85 2017.92,577.85 2019.09,577.85 C2020.33,577.85 2021.28,576.881 2021.28,575.694 C2021.28,574.491 2020.33,573.522 2019.13,573.522 M2019.84,583.287 L2012.17,583.881 L2012.02,585.334 L2012.97,585.334 C2014.61,585.334 2015.25,585.694 2015.25,586.569 C2015.25,586.959 2015.17,587.412 2014.89,588.334 L2012.56,596.131 C2011.81,598.678 2011.69,599.241 2011.69,600.162 C2011.69,601.569 2012.89,602.647 2014.41,602.647 C2017.84,602.647 2020.2,599.084 2021.89,596.491 L2020.64,595.803 C2018.56,598.959 2016.89,600.647 2015.81,600.647 C2015.41,600.647 2015.13,600.287 2015.13,599.803 C2015.13,599.412 2015.28,598.678 2015.61,597.569 L2019.84,583.287 "/>
<path class="Fingering" d="M364.986,1271.12 L357.705,1271.72 L357.58,1273.17 L358.549,1273.17 C360.143,1273.17 360.783,1273.53 360.783,1274.43 C360.783,1274.79 360.658,1275.4 360.455,1276.17 L356.377,1289.92 L359.861,1289.92 L361.502,1284.28 C363.299,1278.15 366.94,1273.53 369.94,1273.53 C370.986,1273.53 371.627,1274.07 371.627,1275.07 C371.627,1275.89 371.299,1277.56 370.815,1279.07 L367.627,1289.92 L371.096,1289.92 L372.815,1284.12 C373.815,1280.79 374.815,1278.56 376.096,1276.84 C377.533,1274.84 379.58,1273.53 381.096,1273.53 C382.096,1273.53 382.658,1274.04 382.658,1275 C382.658,1275.56 382.455,1276.43 382.096,1277.56 L380.252,1283.25 C379.174,1286.36 379.143,1286.61 379.143,1287.72 C379.143,1289.4 380.377,1290.51 382.252,1290.51 C383.58,1290.51 384.861,1289.87 386.221,1288.61 C387.065,1287.79 387.611,1287.07 389.252,1284.68 L388.018,1283.84 C385.94,1286.97 384.455,1288.48 383.424,1288.48 C382.986,1288.48 382.58,1288.04 382.58,1287.48 C382.58,1287.12 382.705,1286.68 383.065,1285.51 L385.58,1277.76 C385.861,1276.89 386.065,1275.64 386.065,1274.76 C386.065,1272.64 384.502,1271.12 382.346,1271.12 C379.502,1271.12 376.94,1272.97 374.627,1276.76 C374.783,1276 374.861,1275.32 374.861,1274.84 C374.861,1272.72 373.174,1271.12 370.986,1271.12 C368.455,1271.12 366.627,1272.53 363.815,1276.53 L364.986,1271.12 "/>
<path class="Fingering" d="M1202.51,1272.06 C1201.3,1272.06 1200.35,1273.02 1200.35,1274.23 C1200.35,1275.38 1201.3,1276.38 1202.47,1276.38 C1203.71,1276.38 1204.66,1275.41 1204.66,1274.23 C1204.66,1273.02 1203.71,1272.06 1202.51,1272.06 M1203.22,1281.82 L1195.55,1282.41 L1195.4,1283.87 L1196.35,1283.87 C1197.99,1283.87 1198.63,1284.23 1198.63,1285.1 C1198.63,1285.49 1198.55,1285.95 1198.27,1286.87 L1195.94,1294.66 C1195.19,1297.21 1195.07,1297.77 1195.07,1298.7 C1195.07,1300.1 1196.27,1301.18 1197.79,1301.18 C1201.22,1301.18 1203.58,1297.62 1205.27,1295.02 L1204.02,1294.34 C1201.94,1297.49 1200.27,1299.18 1199.19,1299.18 C1198.79,1299.18 1198.51,1298.82 1198.51,1298.34 C1198.51,1297.95 1198.66,1297.21 1198.99,1296.1 L1203.22,1281.82 "/>
<path class="Fingering" d="M1099.49,1271.12 L1092.21,1271.72 L1092.08,1273.17 L1093.05,1273.17 C1094.64,1273.17 1095.28,1273.53 1095.28,1274.43 C1095.28,1274.79 1095.16,1275.4 1094.96,1276.17 L1090.88,1289.92 L1094.36,1289.92 L1096,1284.28 C1097.8,1278.15 1101.44,1273.53 1104.44,1273.53 C1105.49,1273.53 1106.13,1274.07 1106.13,1275.07 C1106.13,1275.89 1105.8,1277.56 1105.32,1279.07 L1102.13,1289.92 L1105.6,1289.92 L1107.32,1284.12 C1108.32,1280.79 1109.32,1278.56 1110.6,1276.84 C1112.03,1274.84 1114.08,1273.53 1115.6,1273.53 C1116.6,1273.53 1117.16,1274.04 1117.16,1275 C1117.16,1275.56 1116.96,1276.43 1116.6,1277.56 L1114.75,1283.25 C1113.68,1286.36 1113.64,1286.61 1113.64,1287.72 C1113.64,1289.4 1114.88,1290.51 1116.75,1290.51 C1118.08,1290.51 1119.36,1289.87 1120.72,1288.61 C1121.57,1287.79 1122.11,1287.07 1123.75,1284.68 L1122.52,1283.84 C1120.44,1286.97 1118.96,1288.48 1117.93,1288.48 C1117.49,1288.48 1117.08,1288.04 1117.08,1287.48 C1117.08,1287.12 1117.21,1286.68 1117.57,1285.51 L1120.08,1277.76 C1120.36,1276.89 1120.57,1275.64 1120.57,1274.76 C1120.57,1272.64 1119,1271.12 1116.85,1271.12 C1114,1271.12 1111.44,1272.97 1109.13,1276.76 C1109.28,1276 1109.36,1275.32 1109.36,1274.84 C1109.36,1272.72 1107.68,1271.12 1105.49,1271.12 C1102.96,1271.12 1101.13,1272.53 1098.32,1276.53 L1099.49,1271.12 "/>
<path class="Fingering" d="M980.632,1274.24 C979.428,1274.24 978.475,1275.21 978.475,1276.41 C978.475,1277.56 979.428,1278.56 980.6,1278.56 C981.835,1278.56 982.788,1277.6 982.788,1276.41 C982.788,1275.21 981.835,1274.24 980.632,1274.24 M981.35,1284 L973.678,1284.6 L973.522,1286.05 L974.475,1286.05 C976.116,1286.05 976.757,1286.41 976.757,1287.28 C976.757,1287.67 976.678,1288.13 976.397,1289.05 L974.069,1296.85 C973.319,1299.39 973.194,1299.96 973.194,1300.88 C973.194,1302.28 974.397,1303.36 975.913,1303.36 C979.35,1303.36 981.71,1299.8 983.397,1297.21 L982.147,1296.52 C980.069,1299.67 978.397,1301.36 977.319,1301.36 C976.913,1301.36 976.632,1301 976.632,1300.52 C976.632,1300.13 976.788,1299.39 977.116,1298.28 L981.35,1284 "/>
<path class="Fingering" d="M877.614,1283.52 L870.333,1284.12 L870.208,1285.57 L871.176,1285.57 C872.77,1285.57 873.411,1285.93 873.411,1286.83 C873.411,1287.19 873.286,1287.8 873.083,1288.57 L869.005,1302.32 L872.489,1302.32 L874.13,1296.68 C875.926,1290.55 879.567,1285.93 882.567,1285.93 C883.614,1285.93 884.255,1286.47 884.255,1287.47 C884.255,1288.29 883.926,1289.96 883.442,1291.47 L880.255,1302.32 L883.723,1302.32 L885.442,1296.52 C886.442,1293.19 887.442,1290.96 888.723,1289.24 C890.161,1287.24 892.208,1285.93 893.723,1285.93 C894.723,1285.93 895.286,1286.44 895.286,1287.4 C895.286,1287.96 895.083,1288.83 894.723,1289.96 L892.88,1295.65 C891.801,1298.76 891.77,1299.01 891.77,1300.12 C891.77,1301.8 893.005,1302.91 894.88,1302.91 C896.208,1302.91 897.489,1302.27 898.848,1301.01 C899.692,1300.19 900.239,1299.47 901.88,1297.08 L900.645,1296.24 C898.567,1299.37 897.083,1300.88 896.051,1300.88 C895.614,1300.88 895.208,1300.44 895.208,1299.88 C895.208,1299.52 895.333,1299.08 895.692,1297.91 L898.208,1290.16 C898.489,1289.29 898.692,1288.04 898.692,1287.16 C898.692,1285.04 897.13,1283.52 894.973,1283.52 C892.13,1283.52 889.567,1285.37 887.255,1289.16 C887.411,1288.4 887.489,1287.72 887.489,1287.24 C887.489,1285.12 885.801,1283.52 883.614,1283.52 C881.083,1283.52 879.255,1284.93 876.442,1288.93 L877.614,1283.52 "/>
<path class="Fingering" d="M794.221,1261.36 C793.018,1261.36 792.065,1262.32 792.065,1263.53 C792.065,1264.68 793.018,1265.68 794.19,1265.68 C795.425,1265.68 796.378,1264.72 796.378,1263.53 C796.378,1262.32 795.425,1261.36 794.221,1261.36 M794.94,1271.12 L787.268,1271.72 L787.112,1273.17 L788.065,1273.17 C789.706,1273.17 790.346,1273.53 790.346,1274.4 C790.346,1274.79 790.268,1275.25 789.987,1276.17 L787.659,1283.97 C786.909,1286.51 786.784,1287.07 786.784,1288 C786.784,1289.4 787.987,1290.48 789.503,1290.48 C792.94,1290.48 795.3,1286.92 796.987,1284.32 L795.737,1283.64 C793.659,1286.79 791.987,1288.48 790.909,1288.48 C790.503,1288.48 790.221,1288.12 790.221,1287.64 C790.221,1287.25 790.378,1286.51 790.706,1285.4 L794.94,1271.12 "/>
<path class="Fingering" d="M468.004,1259.66 C466.801,1259.66 465.848,1260.62 465.848,1261.83 C465.848,1262.98 466.801,1263.98 467.973,1263.98 C469.207,1263.98 470.16,1263.01 470.16,1261.83 C470.16,1260.62 469.207,1259.66 468.004,1259.66 M468.723,1269.42 L461.051,1270.01 L460.895,1271.47 L461.848,1271.47 C463.488,1271.47 464.129,1271.83 464.129,1272.7 C464.129,1273.09 464.051,1273.55 463.77,1274.47 L461.441,1282.26 C460.691,1284.81 460.566,1285.37 460.566,1286.3 C460.566,1287.7 461.77,1288.78 463.285,1288.78 C466.723,1288.78 469.082,1285.22 470.77,1282.62 L469.52,1281.94 C467.441,1285.09 465.77,1286.78 464.691,1286.78 C464.285,1286.78 464.004,1286.42 464.004,1285.94 C464.004,1285.55 464.16,1284.81 464.488,1283.7 L468.723,1269.42 "/>
<path class="Fingering" d="M608.822,586.501 L601.541,587.095 L601.416,588.548 L602.385,588.548 C603.978,588.548 604.619,588.908 604.619,589.814 C604.619,590.173 604.494,590.783 604.291,591.548 L600.213,605.298 L603.697,605.298 L605.338,599.658 C607.135,593.533 610.775,588.908 613.775,588.908 C614.822,588.908 615.463,589.455 615.463,590.455 C615.463,591.267 615.135,592.939 614.65,594.455 L611.463,605.298 L614.931,605.298 L616.65,599.501 C617.65,596.173 618.65,593.939 619.931,592.22 C621.369,590.22 623.416,588.908 624.931,588.908 C625.931,588.908 626.494,589.423 626.494,590.376 C626.494,590.939 626.291,591.814 625.931,592.939 L624.088,598.626 C623.01,601.736 622.978,601.986 622.978,603.095 C622.978,604.783 624.213,605.892 626.088,605.892 C627.416,605.892 628.697,605.251 630.056,603.986 C630.9,603.173 631.447,602.455 633.088,600.064 L631.853,599.22 C629.775,602.345 628.291,603.861 627.26,603.861 C626.822,603.861 626.416,603.423 626.416,602.861 C626.416,602.501 626.541,602.064 626.9,600.892 L629.416,593.142 C629.697,592.267 629.9,591.017 629.9,590.142 C629.9,588.017 628.338,586.501 626.181,586.501 C623.338,586.501 620.775,588.345 618.463,592.142 C618.619,591.376 618.697,590.705 618.697,590.22 C618.697,588.095 617.01,586.501 614.822,586.501 C612.291,586.501 610.463,587.908 607.65,591.908 L608.822,586.501 "/>
<path class="Fingering" d="M2171.76,577.315 L2164.48,577.909 L2164.36,579.362 L2165.33,579.362 C2166.92,579.362 2167.56,579.722 2167.56,580.628 C2167.56,580.987 2167.44,581.597 2167.23,582.362 L2163.16,596.112 L2166.64,596.112 L2168.28,590.472 C2170.08,584.347 2173.72,579.722 2176.72,579.722 C2177.76,579.722 2178.41,580.269 2178.41,581.269 C2178.41,582.081 2178.08,583.753 2177.59,585.269 L2174.41,596.112 L2177.87,596.112 L2179.59,590.315 C2180.59,586.987 2181.59,584.753 2182.87,583.034 C2184.31,581.034 2186.36,579.722 2187.87,579.722 C2188.87,579.722 2189.44,580.237 2189.44,581.19 C2189.44,581.753 2189.23,582.628 2188.87,583.753 L2187.03,589.44 C2185.95,592.55 2185.92,592.8 2185.92,593.909 C2185.92,595.597 2187.16,596.706 2189.03,596.706 C2190.36,596.706 2191.64,596.065 2193,594.8 C2193.84,593.987 2194.39,593.269 2196.03,590.878 L2194.8,590.034 C2192.72,593.159 2191.23,594.675 2190.2,594.675 C2189.76,594.675 2189.36,594.237 2189.36,593.675 C2189.36,593.315 2189.48,592.878 2189.84,591.706 L2192.36,583.956 C2192.64,583.081 2192.84,581.831 2192.84,580.956 C2192.84,578.831 2191.28,577.315 2189.12,577.315 C2186.28,577.315 2183.72,579.159 2181.41,582.956 C2181.56,582.19 2181.64,581.519 2181.64,581.034 C2181.64,578.909 2179.95,577.315 2177.76,577.315 C2175.23,577.315 2173.41,578.722 2170.59,582.722 L2171.76,577.315 "/>
<path class="Fingering" d="M2708.84,591.755 C2707.64,591.755 2706.69,592.724 2706.69,593.927 C2706.69,595.083 2707.64,596.083 2708.81,596.083 C2710.04,596.083 2711,595.115 2711,593.927 C2711,592.724 2710.04,591.755 2708.84,591.755 M2709.56,601.521 L2701.89,602.115 L2701.73,603.568 L2702.69,603.568 C2704.33,603.568 2704.97,603.927 2704.97,604.802 C2704.97,605.193 2704.89,605.646 2704.61,606.568 L2702.28,614.365 C2701.53,616.912 2701.4,617.474 2701.4,618.396 C2701.4,619.802 2702.61,620.88 2704.12,620.88 C2707.56,620.88 2709.92,617.318 2711.61,614.724 L2710.36,614.037 C2708.28,617.193 2706.61,618.88 2705.53,618.88 C2705.12,618.88 2704.84,618.521 2704.84,618.037 C2704.84,617.646 2705,616.912 2705.33,615.802 L2709.56,601.521 "/>
<path class="Fingering" d="M2634.05,602.001 L2626.77,602.595 L2626.64,604.048 L2627.61,604.048 C2629.2,604.048 2629.85,604.408 2629.85,605.314 C2629.85,605.673 2629.72,606.283 2629.52,607.048 L2625.44,620.798 L2628.92,620.798 L2630.56,615.158 C2632.36,609.033 2636,604.408 2639,604.408 C2640.05,604.408 2640.69,604.955 2640.69,605.955 C2640.69,606.767 2640.36,608.439 2639.88,609.955 L2636.69,620.798 L2640.16,620.798 L2641.88,615.001 C2642.88,611.673 2643.88,609.439 2645.16,607.72 C2646.6,605.72 2648.64,604.408 2650.16,604.408 C2651.16,604.408 2651.72,604.923 2651.72,605.876 C2651.72,606.439 2651.52,607.314 2651.16,608.439 L2649.31,614.126 C2648.24,617.236 2648.2,617.486 2648.2,618.595 C2648.2,620.283 2649.44,621.392 2651.31,621.392 C2652.64,621.392 2653.92,620.751 2655.28,619.486 C2656.13,618.673 2656.67,617.955 2658.31,615.564 L2657.08,614.72 C2655,617.845 2653.52,619.361 2652.49,619.361 C2652.05,619.361 2651.64,618.923 2651.64,618.361 C2651.64,618.001 2651.77,617.564 2652.13,616.392 L2654.64,608.642 C2654.92,607.767 2655.13,606.517 2655.13,605.642 C2655.13,603.517 2653.56,602.001 2651.41,602.001 C2648.56,602.001 2646,603.845 2643.69,607.642 C2643.85,606.876 2643.92,606.205 2643.92,605.72 C2643.92,603.595 2642.24,602.001 2640.05,602.001 C2637.52,602.001 2635.69,603.408 2632.88,607.408 L2634.05,602.001 "/>
<path class="Fingering" d="M2536.58,601.521 L2529.3,602.115 L2529.17,603.568 L2530.14,603.568 C2531.73,603.568 2532.37,603.927 2532.37,604.833 C2532.37,605.193 2532.25,605.802 2532.05,606.568 L2527.97,620.318 L2531.45,620.318 L2533.09,614.677 C2534.89,608.552 2538.53,603.927 2541.53,603.927 C2542.58,603.927 2543.22,604.474 2543.22,605.474 C2543.22,606.287 2542.89,607.958 2542.41,609.474 L2539.22,620.318 L2542.69,620.318 L2544.41,614.521 C2545.41,611.193 2546.41,608.958 2547.69,607.24 C2549.12,605.24 2551.17,603.927 2552.69,603.927 C2553.69,603.927 2554.25,604.443 2554.25,605.396 C2554.25,605.958 2554.05,606.833 2553.69,607.958 L2551.84,613.646 C2550.76,616.755 2550.73,617.005 2550.73,618.115 C2550.73,619.802 2551.97,620.912 2553.84,620.912 C2555.17,620.912 2556.45,620.271 2557.81,619.005 C2558.66,618.193 2559.2,617.474 2560.84,615.083 L2559.61,614.24 C2557.53,617.365 2556.05,618.88 2555.01,618.88 C2554.58,618.88 2554.17,618.443 2554.17,617.88 C2554.17,617.521 2554.3,617.083 2554.66,615.912 L2557.17,608.162 C2557.45,607.287 2557.66,606.037 2557.66,605.162 C2557.66,603.037 2556.09,601.521 2553.94,601.521 C2551.09,601.521 2548.53,603.365 2546.22,607.162 C2546.37,606.396 2546.45,605.724 2546.45,605.24 C2546.45,603.115 2544.76,601.521 2542.58,601.521 C2540.05,601.521 2538.22,602.927 2535.41,606.927 L2536.58,601.521 "/>
<path class="Fingering" d="M2448.92,591.755 C2447.71,591.755 2446.76,592.724 2446.76,593.927 C2446.76,595.083 2447.71,596.083 2448.89,596.083 C2450.12,596.083 2451.07,595.115 2451.07,593.927 C2451.07,592.724 2450.12,591.755 2448.92,591.755 M2449.64,601.521 L2441.96,602.115 L2441.81,603.568 L2442.76,603.568 C2444.4,603.568 2445.04,603.927 2445.04,604.802 C2445.04,605.193 2444.96,605.646 2444.68,606.568 L2442.36,614.365 C2441.61,616.912 2441.48,617.474 2441.48,618.396 C2441.48,619.802 2442.68,620.88 2444.2,620.88 C2447.64,620.88 2450,617.318 2451.68,614.724 L2450.43,614.037 C2448.36,617.193 2446.68,618.88 2445.61,618.88 C2445.2,618.88 2444.92,618.521 2444.92,618.037 C2444.92,617.646 2445.07,616.912 2445.4,615.802 L2449.64,601.521 "/>
<path class="Fingering" d="M2341.63,601.521 L2334.35,602.115 L2334.23,603.568 L2335.2,603.568 C2336.79,603.568 2337.43,603.927 2337.43,604.833 C2337.43,605.193 2337.31,605.802 2337.1,606.568 L2333.02,620.318 L2336.51,620.318 L2338.15,614.677 C2339.95,608.552 2343.59,603.927 2346.59,603.927 C2347.63,603.927 2348.27,604.474 2348.27,605.474 C2348.27,606.287 2347.95,607.958 2347.46,609.474 L2344.27,620.318 L2347.74,620.318 L2349.46,614.521 C2350.46,611.193 2351.46,608.958 2352.74,607.24 C2354.18,605.24 2356.23,603.927 2357.74,603.927 C2358.74,603.927 2359.31,604.443 2359.31,605.396 C2359.31,605.958 2359.1,606.833 2358.74,607.958 L2356.9,613.646 C2355.82,616.755 2355.79,617.005 2355.79,618.115 C2355.79,619.802 2357.02,620.912 2358.9,620.912 C2360.23,620.912 2361.51,620.271 2362.87,619.005 C2363.71,618.193 2364.26,617.474 2365.9,615.083 L2364.67,614.24 C2362.59,617.365 2361.1,618.88 2360.07,618.88 C2359.63,618.88 2359.23,618.443 2359.23,617.88 C2359.23,617.521 2359.35,617.083 2359.71,615.912 L2362.23,608.162 C2362.51,607.287 2362.71,606.037 2362.71,605.162 C2362.71,603.037 2361.15,601.521 2358.99,601.521 C2356.15,601.521 2353.59,603.365 2351.27,607.162 C2351.43,606.396 2351.51,605.724 2351.51,605.24 C2351.51,603.115 2349.82,601.521 2347.63,601.521 C2345.1,601.521 2343.27,602.927 2340.46,606.927 L2341.63,601.521 "/>
<path class="Fingering" d="M2246.56,573.522 C2245.36,573.522 2244.4,574.491 2244.4,575.694 C2244.4,576.85 2245.36,577.85 2246.53,577.85 C2247.76,577.85 2248.71,576.881 2248.71,575.694 C2248.71,574.491 2247.76,573.522 2246.56,573.522 M2247.28,583.287 L2239.61,583.881 L2239.45,585.334 L2240.4,585.334 C2242.04,585.334 2242.68,585.694 2242.68,586.569 C2242.68,586.959 2242.61,587.412 2242.32,588.334 L2240,596.131 C2239.25,598.678 2239.12,599.241 2239.12,600.162 C2239.12,601.569 2240.32,602.647 2241.84,602.647 C2245.28,602.647 2247.64,599.084 2249.32,596.491 L2248.07,595.803 C2246,598.959 2244.32,600.647 2243.25,600.647 C2242.84,600.647 2242.56,600.287 2242.56,599.803 C2242.56,599.412 2242.71,598.678 2243.04,597.569 L2247.28,583.287 "/>
<path class="StaffText" d="M2419.15,1227.24 L2416.63,1227.24 L2402.83,1262.23 C2401.21,1266.9 2399.66,1268.34 2396.24,1268.59 L2395.99,1268.59 L2395.99,1271.4 L2411.9,1271.4 L2411.9,1268.59 L2410.69,1268.59 C2407.46,1268.59 2405.83,1267.45 2405.83,1265.16 C2405.83,1264.38 2406.02,1263.66 2406.38,1262.63 L2408.35,1257.35 L2424.26,1257.35 L2427.49,1265.4 C2427.85,1266.35 2427.98,1266.71 2427.98,1267.02 C2427.98,1267.98 2426.48,1268.59 2424.26,1268.59 L2421.74,1268.59 L2421.74,1271.4 L2440.33,1271.4 L2440.33,1268.59 L2439.49,1268.59 C2436.37,1268.52 2435.83,1268.16 2434.46,1264.74 L2419.15,1227.24 M2416.21,1237.09 L2422.99,1254.12 L2409.55,1254.12 L2416.21,1237.09 M2451.85,1243.45 L2441.16,1244.1 L2441.16,1246.68 L2443.63,1246.68 C2445.91,1246.74 2446.21,1247.1 2446.21,1249.68 L2446.21,1266.84 C2446.15,1267.74 2446.08,1268.1 2445.85,1268.4 C2445.43,1268.95 2444.29,1269.18 2441.71,1269.24 L2441.48,1269.24 L2441.48,1271.4 L2456.58,1271.4 L2456.58,1269.24 L2456.35,1269.24 C2452.38,1269.12 2451.85,1268.82 2451.85,1266.6 L2451.85,1255.49 C2451.85,1250.16 2454.79,1246.2 2458.69,1246.2 C2462.1,1246.2 2463.85,1248.66 2463.85,1253.52 L2463.85,1266.9 C2463.79,1267.68 2463.73,1268.1 2463.43,1268.4 C2463.07,1268.95 2461.87,1269.18 2459.29,1269.24 L2459.05,1269.24 L2459.05,1271.4 L2474.23,1271.4 L2474.23,1269.24 L2473.99,1269.24 C2470.02,1269.12 2469.49,1268.82 2469.49,1266.66 L2469.49,1256.04 C2469.49,1250.04 2472.19,1246.2 2476.38,1246.2 C2479.8,1246.2 2481.49,1248.77 2481.49,1254.18 L2481.49,1266.84 C2481.43,1267.68 2481.37,1268.1 2481.07,1268.4 C2480.71,1268.95 2479.51,1269.18 2476.93,1269.24 L2476.69,1269.24 L2476.69,1271.4 L2491.87,1271.4 L2491.87,1269.24 L2491.63,1269.24 C2487.66,1269.12 2487.13,1268.82 2487.13,1266.6 L2487.13,1252.98 C2487.13,1249.26 2486.77,1247.99 2485.21,1245.96 C2483.46,1243.74 2481.01,1242.54 2478.13,1242.54 C2474.23,1242.54 2471.35,1244.4 2468.77,1248.54 C2467.74,1244.95 2464.51,1242.54 2460.49,1242.54 C2456.83,1242.54 2454.19,1244.27 2451.85,1248.06 L2451.85,1243.45 "/>
<path class="StaffText" d="M1102.44,1214.36 L1099.93,1214.36 L1086.13,1249.35 C1084.51,1254.02 1082.96,1255.46 1079.54,1255.71 L1079.29,1255.71 L1079.29,1258.52 L1095.19,1258.52 L1095.19,1255.71 L1093.99,1255.71 C1090.76,1255.71 1089.13,1254.57 1089.13,1252.28 C1089.13,1251.5 1089.32,1250.78 1089.68,1249.75 L1091.65,1244.47 L1107.55,1244.47 L1110.79,1252.52 C1111.15,1253.47 1111.27,1253.83 1111.27,1254.14 C1111.27,1255.1 1109.77,1255.71 1107.55,1255.71 L1105.04,1255.71 L1105.04,1258.52 L1123.63,1258.52 L1123.63,1255.71 L1122.79,1255.71 C1119.66,1255.64 1119.13,1255.28 1117.76,1251.86 L1102.44,1214.36 M1099.51,1224.21 L1106.29,1241.24 L1092.85,1241.24 L1099.51,1224.21 M1135.15,1230.57 L1124.46,1231.22 L1124.46,1233.8 L1126.93,1233.8 C1129.21,1233.86 1129.51,1234.22 1129.51,1236.8 L1129.51,1253.96 C1129.44,1254.86 1129.38,1255.22 1129.15,1255.52 C1128.73,1256.07 1127.59,1256.3 1125.01,1256.36 L1124.77,1256.36 L1124.77,1258.52 L1139.88,1258.52 L1139.88,1256.36 L1139.65,1256.36 C1135.68,1256.24 1135.15,1255.94 1135.15,1253.72 L1135.15,1242.61 C1135.15,1237.28 1138.09,1233.32 1141.99,1233.32 C1145.4,1233.32 1147.15,1235.78 1147.15,1240.64 L1147.15,1254.02 C1147.09,1254.8 1147.02,1255.22 1146.73,1255.52 C1146.37,1256.07 1145.16,1256.3 1142.59,1256.36 L1142.35,1256.36 L1142.35,1258.52 L1157.52,1258.52 L1157.52,1256.36 L1157.29,1256.36 C1153.32,1256.24 1152.79,1255.94 1152.79,1253.78 L1152.79,1243.16 C1152.79,1237.16 1155.49,1233.32 1159.68,1233.32 C1163.1,1233.32 1164.79,1235.89 1164.79,1241.3 L1164.79,1253.96 C1164.73,1254.8 1164.66,1255.22 1164.37,1255.52 C1164.01,1256.07 1162.8,1256.3 1160.23,1256.36 L1159.99,1256.36 L1159.99,1258.52 L1175.16,1258.52 L1175.16,1256.36 L1174.93,1256.36 C1170.96,1256.24 1170.43,1255.94 1170.43,1253.72 L1170.43,1240.1 C1170.43,1236.38 1170.07,1235.11 1168.51,1233.08 C1166.76,1230.86 1164.3,1229.66 1161.43,1229.66 C1157.52,1229.66 1154.65,1231.52 1152.07,1235.66 C1151.04,1232.07 1147.8,1229.66 1143.79,1229.66 C1140.13,1229.66 1137.49,1231.39 1135.15,1235.17 L1135.15,1230.57 "/>
<path class="StaffText" d="M800.248,535.242 L797.732,535.242 L783.936,570.226 C782.311,574.898 780.764,576.336 777.342,576.586 L777.092,576.586 L777.092,579.398 L792.998,579.398 L792.998,576.586 L791.795,576.586 C788.561,576.586 786.936,575.445 786.936,573.164 C786.936,572.383 787.123,571.664 787.482,570.633 L789.451,565.351 L805.357,565.351 L808.592,573.398 C808.951,574.351 809.076,574.711 809.076,575.023 C809.076,575.976 807.576,576.586 805.357,576.586 L802.842,576.586 L802.842,579.398 L821.436,579.398 L821.436,576.586 L820.592,576.586 C817.467,576.523 816.936,576.164 815.561,572.742 L800.248,535.242 M797.311,545.086 L804.092,562.117 L790.654,562.117 L797.311,545.086 M832.951,551.445 L822.264,552.101 L822.264,554.68 L824.732,554.68 C827.014,554.742 827.311,555.101 827.311,557.68 L827.311,574.836 C827.248,575.742 827.186,576.101 826.951,576.398 C826.529,576.945 825.389,577.18 822.811,577.242 L822.576,577.242 L822.576,579.398 L837.686,579.398 L837.686,577.242 L837.451,577.242 C833.482,577.117 832.951,576.82 832.951,574.601 L832.951,563.492 C832.951,558.164 835.889,554.195 839.795,554.195 C843.201,554.195 844.951,556.664 844.951,561.523 L844.951,574.898 C844.889,575.68 844.826,576.101 844.529,576.398 C844.17,576.945 842.967,577.18 840.389,577.242 L840.154,577.242 L840.154,579.398 L855.326,579.398 L855.326,577.242 L855.092,577.242 C851.123,577.117 850.592,576.82 850.592,574.664 L850.592,564.039 C850.592,558.039 853.295,554.195 857.482,554.195 C860.904,554.195 862.592,556.773 862.592,562.18 L862.592,574.836 C862.529,575.68 862.467,576.101 862.17,576.398 C861.811,576.945 860.607,577.18 858.029,577.242 L857.795,577.242 L857.795,579.398 L872.967,579.398 L872.967,577.242 L872.732,577.242 C868.764,577.117 868.232,576.82 868.232,574.601 L868.232,560.976 C868.232,557.258 867.873,555.992 866.311,553.961 C864.561,551.742 862.107,550.539 859.232,550.539 C855.326,550.539 852.451,552.398 849.873,556.539 C848.842,552.945 845.607,550.539 841.592,550.539 C837.936,550.539 835.295,552.273 832.951,556.055 L832.951,551.445 "/>
<path class="StaffText" d="M1852.55,1227.09 L1816.49,1227.09 L1816.49,1229.9 L1817.57,1229.9 C1820.99,1229.96 1822.13,1230.13 1822.61,1230.74 C1822.97,1231.27 1822.97,1231.4 1822.97,1234.46 L1822.97,1263.02 C1822.97,1266.09 1822.97,1266.2 1822.61,1266.74 C1822.13,1267.34 1820.99,1267.59 1817.57,1267.59 L1816.49,1267.59 L1816.49,1270.4 L1853.33,1270.4 L1854.54,1254.38 L1851.89,1254.38 C1849.61,1265.06 1847.16,1267.34 1837.97,1267.59 L1834.02,1267.59 C1830.41,1267.46 1829.52,1266.85 1829.69,1264.7 L1829.69,1249.4 L1830.89,1249.4 C1837.07,1249.16 1839.29,1251.38 1839.54,1258.04 L1842.35,1258.04 L1842.35,1238.37 L1839.54,1238.37 C1839.18,1244.24 1836.83,1246.59 1831.13,1246.59 L1829.69,1246.59 L1829.69,1232.9 C1829.63,1230.38 1830.24,1229.96 1833.47,1229.9 L1836.6,1229.9 C1846.43,1229.84 1848.89,1231.99 1850.82,1242.38 L1853.39,1242.38 L1852.55,1227.09 M1861.61,1242.68 L1864.25,1243.1 L1865.33,1238.37 C1866.22,1234.4 1866.64,1233.81 1868.38,1233.81 C1868.69,1233.81 1869.16,1233.81 1869.71,1233.87 C1877.08,1234.23 1877.08,1234.23 1879.85,1234.23 C1880.63,1234.23 1882,1234.23 1883.69,1234.16 L1879.61,1242.38 C1875.16,1251.2 1874.63,1252.27 1873.13,1255.99 C1871.27,1260.49 1870.3,1264.27 1870.3,1266.81 C1870.3,1269.56 1871.74,1271.24 1874.08,1271.24 C1876.97,1271.24 1878.11,1269.32 1878.05,1264.1 C1877.74,1255.46 1878.83,1251.26 1885.24,1237.23 C1886.33,1234.88 1887.47,1232.48 1888.55,1230.13 L1888.55,1228.4 C1884.94,1228.7 1883.02,1228.82 1879.3,1228.82 C1874.08,1228.82 1869.94,1228.63 1863.47,1228.16 L1861.61,1242.68 "/>
<path class="StaffText" d="M349.965,1258.52 L370.137,1258.52 C375.465,1258.52 379.544,1257.67 382.731,1255.88 C388.794,1252.46 392.153,1245.61 392.153,1236.61 C392.153,1228.35 389.153,1221.86 383.637,1218.25 C380.325,1216.16 375.887,1215.21 369.044,1215.21 L349.965,1215.21 L349.965,1218.02 L351.106,1218.02 C354.465,1218.08 355.606,1218.25 356.09,1218.86 C356.45,1219.39 356.45,1219.52 356.45,1222.58 L356.45,1251.14 C356.45,1254.21 356.45,1254.32 356.09,1254.86 C355.606,1255.46 354.465,1255.64 351.106,1255.71 L349.965,1255.71 L349.965,1258.52 M366.59,1255.71 C363.528,1255.71 363.169,1255.33 363.169,1252.39 L363.169,1221.38 C363.169,1218.44 363.59,1218.02 366.59,1218.02 L369.715,1218.02 C379.965,1218.02 384.231,1223.6 384.231,1236.86 C384.231,1250.3 380.387,1255.71 370.669,1255.71 L366.59,1255.71 M406.965,1230.57 L396.278,1231.22 L396.278,1233.8 L398.747,1233.8 C401.028,1233.86 401.325,1234.22 401.325,1236.8 L401.325,1253.96 C401.262,1254.86 401.2,1255.22 400.965,1255.52 C400.544,1256.07 399.403,1256.3 396.825,1256.36 L396.59,1256.36 L396.59,1258.52 L411.7,1258.52 L411.7,1256.36 L411.465,1256.36 C407.497,1256.24 406.965,1255.94 406.965,1253.72 L406.965,1242.61 C406.965,1237.28 409.903,1233.32 413.809,1233.32 C417.215,1233.32 418.965,1235.78 418.965,1240.64 L418.965,1254.02 C418.903,1254.8 418.84,1255.22 418.544,1255.52 C418.184,1256.07 416.981,1256.3 414.403,1256.36 L414.169,1256.36 L414.169,1258.52 L429.34,1258.52 L429.34,1256.36 L429.106,1256.36 C425.137,1256.24 424.606,1255.94 424.606,1253.78 L424.606,1243.16 C424.606,1237.16 427.309,1233.32 431.497,1233.32 C434.919,1233.32 436.606,1235.89 436.606,1241.3 L436.606,1253.96 C436.544,1254.8 436.481,1255.22 436.184,1255.52 C435.825,1256.07 434.622,1256.3 432.044,1256.36 L431.809,1256.36 L431.809,1258.52 L446.981,1258.52 L446.981,1256.36 L446.747,1256.36 C442.778,1256.24 442.247,1255.94 442.247,1253.72 L442.247,1240.1 C442.247,1236.38 441.887,1235.11 440.325,1233.08 C438.575,1230.86 436.122,1229.66 433.247,1229.66 C429.34,1229.66 426.465,1231.52 423.887,1235.66 C422.856,1232.07 419.622,1229.66 415.606,1229.66 C411.95,1229.66 409.309,1231.39 406.965,1235.17 L406.965,1230.57 "/>
</svg>
