<?xml version="1.0" encoding="UTF-8" standalone="no"?>
<svg
   width="297mm"
   height="210mm"
   viewBox="0 0 4209.4489 2976.378"
   version="1.2"
   id="svg278"
   sodipodi:docname="bella_ciao.svg"
   inkscape:version="1.2.2 (b0a8486541, 2022-12-01)"
   xmlns:inkscape="http://www.inkscape.org/namespaces/inkscape"
   xmlns:sodipodi="http://sodipodi.sourceforge.net/DTD/sodipodi-0.dtd"
   xmlns="http://www.w3.org/2000/svg"
   xmlns:svg="http://www.w3.org/2000/svg"
   xmlns:rdf="http://www.w3.org/1999/02/22-rdf-syntax-ns#"
   xmlns:cc="http://creativecommons.org/ns#"
   xmlns:dc="http://purl.org/dc/elements/1.1/">
  <defs
     id="defs282" />
  <sodipodi:namedview
     id="namedview280"
     pagecolor="#ffffff"
     bordercolor="#000000"
     borderopacity="0.25"
     inkscape:showpageshadow="2"
     inkscape:pageopacity="0.0"
     inkscape:pagecheckerboard="0"
     inkscape:deskcolor="#d1d1d1"
     inkscape:document-units="mm"
     showgrid="false"
     inkscape:zoom="0.34128173"
     inkscape:cx="556.72479"
     inkscape:cy="383.8471"
     inkscape:window-width="1104"
     inkscape:window-height="552"
     inkscape:window-x="0"
     inkscape:window-y="32"
     inkscape:window-maximized="1"
     inkscape:current-layer="svg278" />
  <title
     id="title2">bella_ciao</title>
  <desc
     id="desc4">Generated by MuseScore Studio 4.5.2</desc>
  <polyline
     class="StaffLines"
     fill="none"
     stroke="#000000"
     stroke-width="2.73"
     stroke-linejoin="bevel"
     points="336.598,634.198 2764.6,634.198"
     id="polyline6"
     transform="matrix(1.5506084,0,0,1.8603773,-220.9955,-272.2917)" />
  <polyline
     class="StaffLines"
     fill="none"
     stroke="#000000"
     stroke-width="2.73"
     stroke-linejoin="bevel"
     points="336.598,658.998 2764.6,658.998"
     id="polyline8"
     transform="matrix(1.5506084,0,0,1.8603773,-220.9955,-272.2917)" />
  <polyline
     class="StaffLines"
     fill="none"
     stroke="#000000"
     stroke-width="2.73"
     stroke-linejoin="bevel"
     points="336.598,683.798 2764.6,683.798"
     id="polyline10"
     transform="matrix(1.5506084,0,0,1.8603773,-220.9955,-272.2917)" />
  <polyline
     class="StaffLines"
     fill="none"
     stroke="#000000"
     stroke-width="2.73"
     stroke-linejoin="bevel"
     points="336.598,708.598 2764.6,708.598"
     id="polyline12"
     transform="matrix(1.5506084,0,0,1.8603773,-220.9955,-272.2917)" />
  <polyline
     class="StaffLines"
     fill="none"
     stroke="#000000"
     stroke-width="2.73"
     stroke-linejoin="bevel"
     points="336.598,733.398 2764.6,733.398"
     id="polyline14"
     transform="matrix(1.5506084,0,0,1.8603773,-220.9955,-272.2917)" />
  <polyline
     class="StaffLines"
     fill="none"
     stroke="#000000"
     stroke-width="2.73"
     stroke-linejoin="bevel"
     points="212.598,1316.2 2764.6,1316.2"
     id="polyline16"
     transform="matrix(1.5506084,0,0,1.8603773,-220.9955,-272.2917)" />
  <polyline
     class="StaffLines"
     fill="none"
     stroke="#000000"
     stroke-width="2.73"
     stroke-linejoin="bevel"
     points="212.598,1341 2764.6,1341"
     id="polyline18"
     transform="matrix(1.5506084,0,0,1.8603773,-220.9955,-272.2917)" />
  <polyline
     class="StaffLines"
     fill="none"
     stroke="#000000"
     stroke-width="2.73"
     stroke-linejoin="bevel"
     points="212.598,1365.8 2764.6,1365.8"
     id="polyline20"
     transform="matrix(1.5506084,0,0,1.8603773,-220.9955,-272.2917)" />
  <polyline
     class="StaffLines"
     fill="none"
     stroke="#000000"
     stroke-width="2.73"
     stroke-linejoin="bevel"
     points="212.598,1390.6 2764.6,1390.6"
     id="polyline22"
     transform="matrix(1.5506084,0,0,1.8603773,-220.9955,-272.2917)" />
  <polyline
     class="StaffLines"
     fill="none"
     stroke="#000000"
     stroke-width="2.73"
     stroke-linejoin="bevel"
     points="212.598,1415.4 2764.6,1415.4"
     id="polyline24"
     transform="matrix(1.5506084,0,0,1.8603773,-220.9955,-272.2917)" />
  <path
     class="Text"
     d="m 1684.5473,128.01869 v 9.62002 h 3.0701 c 9.7224,0.20464 12.9632,0.81484 14.3122,2.878 1.0544,1.83247 1.0544,2.23804 1.0544,12.67475 v 97.40749 c 0,10.43672 0,10.84228 -1.0544,12.70266 -1.349,2.03525 -4.5898,2.8501 -14.3122,2.8501 h -3.0701 v 9.62 h 61.9157 c 29.5082,0 47.2471,-14.94068 47.2471,-40.11345 0,-20.46414 -10.7612,-32.12127 -34.1134,-37.03266 8.1873,-2.03526 11.9397,-3.89563 16.3745,-7.79126 6.9777,-6.33645 11.2418,-16.36575 11.2418,-26.59782 0,-13.28309 -6.8071,-26.19039 -16.7155,-31.30643 -6.1249,-3.28357 -14.6532,-4.9114 -24.7012,-4.9114 h -61.249 m 37.5247,66.5085 v -46.65641 c 0,-7.99218 2.2329,-10.02743 11.2574,-10.23207 h 6.8072 c 16.7311,0 27.3062,6.54108 27.3062,28.86561 0,20.26137 -8.1872,28.02287 -30.1749,28.02287 h -15.1959 m 0,9.62 h 15.0254 c 26.0812,0 35.633,8.40147 35.633,30.90087 0,27.4108 -14.3122,31.10365 -33.6017,31.10365 h -7.1794 c -8.5283,0 -10.2184,-2.03526 -9.8773,-12.87753 v -49.12699 m 159.8057,25.58019 c 0.1706,-30.69623 -14.3431,-52.38079 -35.1523,-52.38079 -21.8325,0 -38.207,22.70219 -38.207,53.39842 0,28.86561 15.5216,48.10936 38.5481,48.10936 16.3745,0 27.818,-9.62188 34.8112,-29.0684 l -5.9854,-3.89563 c -6.9777,15.75553 -14.1415,21.8892 -25.585,21.8892 -8.6989,0 -14.9943,-4.27329 -19.4291,-13.48773 -3.0702,-6.13367 -4.4348,-13.31472 -4.2642,-24.56443 h 55.2637 m -55.0931,-8.80702 c 0,-14.33049 5.4582,-34.79464 19.7703,-34.79464 10.2495,0 17.0567,10.87204 17.0567,27.44056 0,5.72625 -1.5197,7.35408 -6.9778,7.35408 h -29.8492 m 91.7339,-95.98431 -31.5548,2.2678 v 8.80703 h 8.3578 c 6.311,0.20464 7.1483,1.42505 7.1483,10.23207 v 113.97787 c -0.1706,3.08079 -0.3412,4.30306 -1.0079,5.31883 -1.194,1.83247 -4.4348,2.67521 -11.7846,2.878 h -1.1785 v 7.35406 h 44.1614 v -7.35406 h -1.1785 c -11.4125,-0.43533 -12.9632,-1.45295 -12.9632,-8.80703 V 124.93605 m 53.7132,0 -31.5549,2.2678 v 8.80703 h 8.3578 c 6.3109,0.20464 7.1483,1.42505 7.1483,10.23207 v 113.97787 c -0.1706,3.08079 -0.3411,4.30306 -1.0079,5.31883 -1.194,1.83247 -4.4347,2.67521 -11.7847,2.878 h -1.1785 v 7.35406 h 44.1614 v -7.35406 h -1.1784 c -11.4126,-0.43533 -12.9631,-1.45295 -12.9631,-8.80703 V 124.93605 m 96.0137,84.93924 c 0,-12.87753 -1.8608,-19.44837 -6.8382,-24.35977 -5.6132,-5.52347 -13.9711,-8.16893 -24.8718,-8.16893 -19.2896,0 -33.2761,10.84229 -33.2761,25.78484 0,7.55685 3.923,12.47011 9.893,12.47011 5.4426,0 9.195,-4.30305 9.195,-10.43672 0,-2.64546 -0.8373,-5.5216 -2.543,-8.3717 -1.0388,-1.45295 -1.2094,-1.86038 -1.2094,-2.878 0,-4.09841 6.8381,-7.7894 15.0254,-7.7894 5.4581,0 11.4435,2.06316 14.157,5.11604 3.2408,3.28543 4.4192,8.19681 4.4192,17.41127 v 7.96614 c -17.7234,3.69099 -23.3521,5.31881 -31.7099,9.21444 -14.8548,6.569 -21.8326,15.95832 -21.8326,29.0684 0,14.7379 9.5517,23.95236 24.7478,23.95236 11.7381,0 22.3287,-5.75602 29.6786,-16.19087 2.7136,10.43485 6.9777,14.53326 14.9944,14.53326 7.6755,0 15.6921,-5.92901 15.6921,-11.8599 0,-1.42505 -0.6667,-2.47058 -1.7211,-2.47058 -0.6668,0 -1.3491,0.23255 -2.5431,0.84275 -2.3879,1.22041 -3.4113,1.42505 -4.7603,1.42505 -4.8069,0 -6.497,-3.69285 -6.497,-14.12771 v -41.13108 m -16.0489,24.96813 c 0,12.26732 -0.4961,15.14533 -3.3803,20.46415 -4.2641,7.55871 -11.9552,12.67475 -19.4601,12.67475 -7.8461,0 -13.4748,-6.74387 -13.4748,-15.95832 0,-8.57633 3.5974,-14.7379 11.0713,-19.0112 5.3186,-2.878 11.9552,-4.91325 25.2439,-7.58662 v 9.41724 m 190.1976,-108.24978 h -6.497 l -6.8227,12.0627 c -12.4358,-10.84229 -18.7623,-13.72029 -30.5314,-13.72029 -16.2039,0 -30.0199,8.19868 -41.4323,24.56256 -10.9318,15.55276 -16.0333,32.76124 -16.0333,53.83559 0,44.18396 24.0344,75.52017 57.6361,75.52017 27.3063,0 44.704,-19.24375 48.6271,-53.63096 l -8.0167,-1.62783 c -4.6052,30.49159 -17.5684,45.63691 -38.5481,45.63691 -25.2439,0 -37.1991,-20.87157 -37.1991,-65.0853 0,-23.34029 2.5741,-38.6884 8.3579,-50.95573 5.2875,-11.45248 15.7076,-18.63354 26.7789,-18.63354 11.9398,0 22.5303,7.58662 28.9964,20.66879 3.2563,6.77178 5.6288,14.33049 9.7223,30.49159 h 7.5049 l -2.543,-59.12466 m 41.2308,2.84824 c -5.4427,0 -9.8774,5.32068 -9.8774,11.88968 0,6.53922 4.4347,11.8599 9.7223,11.8599 5.6443,0 10.079,-5.32068 10.079,-11.8599 0,-6.569 -4.4347,-11.88968 -9.9239,-11.88968 m 8.0321,50.9576 -32.0666,2.26779 v 8.80703 h 8.6989 c 6.4816,0.20279 7.3189,1.42505 7.3189,10.23208 v 58.51444 c -0.1706,3.08079 -0.3412,4.30306 -1.0078,5.31883 -1.1941,1.83247 -4.4349,2.67521 -11.7847,2.878 h -1.1785 v 7.35406 h 44.1923 v -7.35406 h -1.2094 c -11.4125,-0.43533 -12.9631,-1.45295 -12.9631,-8.80703 v -79.21114 m 95.6725,29.47581 c 0,-12.87753 -1.8607,-19.44837 -6.8382,-24.35977 -5.6132,-5.52347 -13.9709,-8.16893 -24.8717,-8.16893 -19.2896,0 -33.276,10.84229 -33.276,25.78484 0,7.55685 3.923,12.47011 9.8928,12.47011 5.4426,0 9.2107,-4.30305 9.2107,-10.43672 0,-2.64546 -0.8529,-5.5216 -2.543,-8.3717 -1.0545,-1.45295 -1.2251,-1.86038 -1.2251,-2.878 0,-4.09841 6.8383,-7.7894 15.0254,-7.7894 5.4582,0 11.4435,2.06316 14.1571,5.11604 3.2408,3.28543 4.4347,8.19681 4.4347,17.41127 v 7.96614 c -17.7389,3.69099 -23.3676,5.31881 -31.7254,9.21444 -14.8548,6.569 -21.8326,15.95832 -21.8326,29.0684 0,14.7379 9.5518,23.95236 24.7477,23.95236 11.7536,0 22.3288,-5.75602 29.6787,-16.19087 2.7135,10.43485 6.9778,14.53326 14.9944,14.53326 7.6754,0 15.7076,-5.92901 15.7076,-11.8599 0,-1.42505 -0.6822,-2.47058 -1.7211,-2.47058 -0.6823,0 -1.3645,0.23255 -2.543,0.84275 -2.4034,1.22041 -3.4269,1.42505 -4.7759,1.42505 -4.8069,0 -6.4971,-3.69285 -6.4971,-14.12771 v -41.13108 m -16.0333,24.96813 c 0,12.26732 -0.5117,15.14533 -3.3958,20.46415 -4.2642,7.55871 -11.9396,12.67475 -19.4601,12.67475 -7.8461,0 -13.4748,-6.74387 -13.4748,-15.95832 0,-8.57633 3.5974,-14.7379 11.0714,-19.0112 5.3185,-2.878 11.9552,-4.91325 25.2593,-7.58662 v 9.41724 m 76.7552,-57.49683 c -20.9952,0 -37.1991,22.29663 -37.1991,50.95761 0,28.02099 16.3744,50.55017 36.8579,50.55017 20.4681,0 36.8425,-22.52918 36.8425,-50.75482 0,-28.05077 -16.3744,-50.75296 -36.5013,-50.75296 m 0,8.77913 c 11.9397,0 18.5763,14.94069 18.5763,41.97383 0,27.20802 -6.6366,41.94593 -18.9175,41.94593 -12.2807,0 -18.9329,-14.73791 -18.9329,-41.74128 0,-27.848 6.4816,-42.17848 19.2741,-42.17848"
     id="path26"
     style="stroke-width:1.69844" />
  <path
     class="MeasureNumber"
     d="m 115.61524,2055.5797 c -1.93826,1.3953 -2.49648,2.2883 -2.49648,3.7766 0,1.4139 0.99394,2.4743 2.22978,2.4743 1.62348,0 2.54455,-1.4325 2.73837,-4.1858 1.91345,-1.8605 3.97265,-2.679 6.44432,-2.679 4.60377,0 7.14676,3.4231 7.14676,9.5809 0,9.6926 -5.2085,17.562 -11.60475,17.562 -3.65943,0 -6.63816,-2.065 -6.63816,-4.5393 0,-0.4279 0.0713,-0.5767 0.36284,-0.8 1.98634,-1.1162 3.60982,-1.9162 3.60982,-5.0602 0,-2.3813 -1.55061,-4.1673 -3.73076,-4.1673 -2.71357,0 -4.77277,2.7348 -4.77277,6.3067 0,6.5858 4.7247,11.3111 11.36285,11.3111 10.03089,0 18.17159,-9.581 18.17159,-21.4687 0,-7.5346 -4.77432,-12.8366 -11.53343,-12.8366 -2.68876,0 -4.84566,0.6698 -7.82592,2.4743 l 3.46561,-14.0645 c 3.29504,0.8186 5.91092,1.1907 8.14069,1.1907 4.09361,0 7.75305,-1.5628 9.78745,-4.1487 1.06681,-1.4883 1.67154,-2.7719 1.67154,-3.7207 0,-0.4651 -0.19382,-0.9116 -0.43571,-0.9116 -0.16902,0 -0.31478,0.093 -0.67917,0.2976 -2.0344,1.1907 -4.65183,1.8605 -7.07387,1.8605 -3.70751,0 -8.11589,-0.7256 -12.69639,-2.1581 l -5.64421,23.9058"
     id="path28"
     style="stroke-width:1.69844" />
  <path
     class="TieSegment"
     stroke="#000000"
     stroke-width="2.10607"
     stroke-linecap="round"
     stroke-linejoin="round"
     fill-rule="evenodd"
     d="m 1647.3482,2165.7327 c 27.3682,-42.9561 109.4729,-42.9561 136.8412,0 -27.3683,-29.0033 -109.473,-29.0033 -136.8412,0"
     id="path30" />
  <path
     class="TieSegment"
     stroke="#000000"
     stroke-width="2.10607"
     stroke-linecap="round"
     stroke-linejoin="round"
     fill-rule="evenodd"
     d="m 1944.8945,989.23385 c 18.6073,-36.25127 74.4447,-36.25127 93.0674,0 -18.6227,-24.40257 -74.4601,-24.40257 -93.0674,0"
     id="path32" />
  <path
     class="TieSegment"
     stroke="#000000"
     stroke-width="2.10607"
     stroke-linecap="round"
     stroke-linejoin="round"
     fill-rule="evenodd"
     d="m 1127.3067,989.23385 c 18.6135,-36.25127 74.4555,-36.25127 93.0691,0 -18.6136,-24.40257 -74.4556,-24.40257 -93.0691,0"
     id="path34" />
  <polyline
     class="BarLine"
     fill="none"
     stroke="#000000"
     stroke-width="4.46"
     stroke-linejoin="bevel"
     points="2300.09,632.834 2300.09,734.762"
     id="polyline36"
     transform="matrix(1.5506084,0,0,1.8603773,-220.9955,-272.2917)" />
  <polyline
     class="BarLine"
     fill="none"
     stroke="#000000"
     stroke-width="4.46"
     stroke-linejoin="bevel"
     points="2739.55,1314.83 2739.55,1416.76"
     id="polyline38"
     transform="matrix(1.5506084,0,0,1.8603773,-220.9955,-272.2917)" />
  <polyline
     class="BarLine"
     fill="none"
     stroke="#000000"
     stroke-width="13.64"
     stroke-linejoin="bevel"
     points="2757.78,1314.83 2757.78,1416.76"
     id="polyline40"
     transform="matrix(1.5506084,0,0,1.8603773,-220.9955,-272.2917)" />
  <polyline
     class="BarLine"
     fill="none"
     stroke="#000000"
     stroke-width="4.46"
     stroke-linejoin="bevel"
     points="1792.44,1314.83 1792.44,1416.76"
     id="polyline42"
     transform="matrix(1.5506084,0,0,1.8603773,-220.9955,-272.2917)" />
  <polyline
     class="BarLine"
     fill="none"
     stroke="#000000"
     stroke-width="4.46"
     stroke-linejoin="bevel"
     points="1278.05,632.834 1278.05,734.762"
     id="polyline44"
     transform="matrix(1.5506084,0,0,1.8603773,-220.9955,-272.2917)" />
  <polyline
     class="BarLine"
     fill="none"
     stroke="#000000"
     stroke-width="4.46"
     stroke-linejoin="bevel"
     points="1057.94,1314.83 1057.94,1416.76"
     id="polyline46"
     transform="matrix(1.5506084,0,0,1.8603773,-220.9955,-272.2917)" />
  <polyline
     class="BarLine"
     fill="none"
     stroke="#000000"
     stroke-width="4.46"
     stroke-linejoin="bevel"
     points="737.144,632.834 737.144,734.762"
     id="polyline48"
     transform="matrix(1.5506084,0,0,1.8603773,-220.9955,-272.2917)" />
  <polyline
     class="BarLine"
     fill="none"
     stroke="#000000"
     stroke-width="4.46"
     stroke-linejoin="bevel"
     points="750.784,632.834 750.784,734.762"
     id="polyline50"
     transform="matrix(1.5506084,0,0,1.8603773,-220.9955,-272.2917)" />
  <polyline
     class="BarLine"
     fill="none"
     stroke="#000000"
     stroke-width="4.46"
     stroke-linejoin="bevel"
     points="2762.37,632.834 2762.37,734.762"
     id="polyline52"
     transform="matrix(1.5506084,0,0,1.8603773,-220.9955,-272.2917)" />
  <polyline
     class="BarLine"
     fill="none"
     stroke="#000000"
     stroke-width="4.46"
     stroke-linejoin="bevel"
     points="2387.14,1314.83 2387.14,1416.76"
     id="polyline54"
     transform="matrix(1.5506084,0,0,1.8603773,-220.9955,-272.2917)" />
  <polyline
     class="BarLine"
     fill="none"
     stroke="#000000"
     stroke-width="4.46"
     stroke-linejoin="bevel"
     points="1805.31,632.834 1805.31,734.762"
     id="polyline56"
     transform="matrix(1.5506084,0,0,1.8603773,-220.9955,-272.2917)" />
  <polyline
     class="Stem"
     fill="none"
     stroke="#000000"
     stroke-width="2.48"
     stroke-linejoin="bevel"
     points="1839.78,663.165 1839.78,745.798"
     id="polyline58"
     transform="matrix(1.5506084,0,0,1.8603773,-220.9955,-272.2917)" />
  <polyline
     class="Stem"
     fill="none"
     stroke="#000000"
     stroke-width="2.48"
     stroke-linejoin="bevel"
     points="2067.22,675.565 2067.22,751.998"
     id="polyline60"
     transform="matrix(1.5506084,0,0,1.8603773,-220.9955,-272.2917)" />
  <polyline
     class="Stem"
     fill="none"
     stroke="#000000"
     stroke-width="2.48"
     stroke-linejoin="bevel"
     points="1092.41,1320.36 1092.41,1390.68"
     id="polyline62"
     transform="matrix(1.5506084,0,0,1.8603773,-220.9955,-272.2917)" />
  <polyline
     class="Stem"
     fill="none"
     stroke="#000000"
     stroke-width="2.48"
     stroke-linejoin="bevel"
     points="2031.98,692.23 2031.98,621.684"
     id="polyline64"
     transform="matrix(1.5506084,0,0,1.8603773,-220.9955,-272.2917)" />
  <polyline
     class="Stem"
     fill="none"
     stroke="#000000"
     stroke-width="2.48"
     stroke-linejoin="bevel"
     points="1185.62,1332.76 1185.62,1396.72"
     id="polyline66"
     transform="matrix(1.5506084,0,0,1.8603773,-220.9955,-272.2917)" />
  <polyline
     class="Stem"
     fill="none"
     stroke="#000000"
     stroke-width="2.48"
     stroke-linejoin="bevel"
     points="1967,679.83 1967,615.712"
     id="polyline68"
     transform="matrix(1.5506084,0,0,1.8603773,-220.9955,-272.2917)" />
  <polyline
     class="Stem"
     fill="none"
     stroke="#000000"
     stroke-width="2.48"
     stroke-linejoin="bevel"
     points="1764.64,679.83 1764.64,615.773"
     id="polyline70"
     transform="matrix(1.5506084,0,0,1.8603773,-220.9955,-272.2917)" />
  <polyline
     class="Stem"
     fill="none"
     stroke="#000000"
     stroke-width="2.48"
     stroke-linejoin="bevel"
     points="1278.82,1332.76 1278.82,1415.4"
     id="polyline72"
     transform="matrix(1.5506084,0,0,1.8603773,-220.9955,-272.2917)" />
  <polyline
     class="Stem"
     fill="none"
     stroke="#000000"
     stroke-width="2.48"
     stroke-linejoin="bevel"
     points="566.51,729.43 566.51,634.024"
     id="polyline74"
     transform="matrix(1.5506084,0,0,1.8603773,-220.9955,-272.2917)" />
  <polyline
     class="Stem"
     fill="none"
     stroke="#000000"
     stroke-width="2.48"
     stroke-linejoin="bevel"
     points="2194.43,679.83 2194.43,615.712"
     id="polyline76"
     transform="matrix(1.5506084,0,0,1.8603773,-220.9955,-272.2917)" />
  <polyline
     class="Stem"
     fill="none"
     stroke="#000000"
     stroke-width="2.48"
     stroke-linejoin="bevel"
     points="2259.41,692.23 2259.41,621.684"
     id="polyline78"
     transform="matrix(1.5506084,0,0,1.8603773,-220.9955,-272.2917)" />
  <polyline
     class="Stem"
     fill="none"
     stroke="#000000"
     stroke-width="2.48"
     stroke-linejoin="bevel"
     points="963.743,1345.16 963.743,1415.36"
     id="polyline80"
     transform="matrix(1.5506084,0,0,1.8603773,-220.9955,-272.2917)" />
  <polyline
     class="Stem"
     fill="none"
     stroke="#000000"
     stroke-width="2.48"
     stroke-linejoin="bevel"
     points="2334.56,650.765 2334.56,733.398"
     id="polyline82"
     transform="matrix(1.5506084,0,0,1.8603773,-220.9955,-272.2917)" />
  <polyline
     class="Stem"
     fill="none"
     stroke="#000000"
     stroke-width="2.48"
     stroke-linejoin="bevel"
     points="870.538,1332.76 870.538,1412.3"
     id="polyline84"
     transform="matrix(1.5506084,0,0,1.8603773,-220.9955,-272.2917)" />
  <polyline
     class="Stem"
     fill="none"
     stroke="#000000"
     stroke-width="2.48"
     stroke-linejoin="bevel"
     points="2432.03,650.765 2432.03,733.398"
     id="polyline86"
     transform="matrix(1.5506084,0,0,1.8603773,-220.9955,-272.2917)" />
  <polyline
     class="Stem"
     fill="none"
     stroke="#000000"
     stroke-width="2.48"
     stroke-linejoin="bevel"
     points="2529.5,650.765 2529.5,733.398"
     id="polyline88"
     transform="matrix(1.5506084,0,0,1.8603773,-220.9955,-272.2917)" />
  <polyline
     class="Stem"
     fill="none"
     stroke="#000000"
     stroke-width="2.48"
     stroke-linejoin="bevel"
     points="777.333,1320.36 777.333,1409.24"
     id="polyline90"
     transform="matrix(1.5506084,0,0,1.8603773,-220.9955,-272.2917)" />
  <polyline
     class="Stem"
     fill="none"
     stroke="#000000"
     stroke-width="2.48"
     stroke-linejoin="bevel"
     points="2626.97,663.165 2626.97,733.284"
     id="polyline92"
     transform="matrix(1.5506084,0,0,1.8603773,-220.9955,-272.2917)" />
  <polyline
     class="Stem"
     fill="none"
     stroke="#000000"
     stroke-width="2.48"
     stroke-linejoin="bevel"
     points="544.321,1320.36 544.321,1403"
     id="polyline94"
     transform="matrix(1.5506084,0,0,1.8603773,-220.9955,-272.2917)" />
  <polyline
     class="Stem"
     fill="none"
     stroke="#000000"
     stroke-width="2.48"
     stroke-linejoin="bevel"
     points="2691.95,650.765 2691.95,727.312"
     id="polyline96"
     transform="matrix(1.5506084,0,0,1.8603773,-220.9955,-272.2917)" />
  <polyline
     class="Stem"
     fill="none"
     stroke="#000000"
     stroke-width="2.48"
     stroke-linejoin="bevel"
     points="451.116,1320.36 451.116,1390.6"
     id="polyline98"
     transform="matrix(1.5506084,0,0,1.8603773,-220.9955,-272.2917)" />
  <polyline
     class="Stem"
     fill="none"
     stroke="#000000"
     stroke-width="2.48"
     stroke-linejoin="bevel"
     points="357.911,1320.36 357.911,1390.6"
     id="polyline100"
     transform="matrix(1.5506084,0,0,1.8603773,-220.9955,-272.2917)" />
  <polyline
     class="Stem"
     fill="none"
     stroke="#000000"
     stroke-width="2.48"
     stroke-linejoin="bevel"
     points="1312.52,663.165 1312.52,758.312"
     id="polyline102"
     transform="matrix(1.5506084,0,0,1.8603773,-220.9955,-272.2917)" />
  <polyline
     class="Stem"
     fill="none"
     stroke="#000000"
     stroke-width="2.48"
     stroke-linejoin="bevel"
     points="850.237,700.365 850.237,764.284"
     id="polyline104"
     transform="matrix(1.5506084,0,0,1.8603773,-220.9955,-272.2917)" />
  <polyline
     class="Stem"
     fill="none"
     stroke="#000000"
     stroke-width="2.48"
     stroke-linejoin="bevel"
     points="944.962,692.23 944.962,615.598"
     id="polyline106"
     transform="matrix(1.5506084,0,0,1.8603773,-220.9955,-272.2917)" />
  <polyline
     class="Stem"
     fill="none"
     stroke="#000000"
     stroke-width="2.48"
     stroke-linejoin="bevel"
     points="2106.53,1357.56 2106.53,1434"
     id="polyline108"
     transform="matrix(1.5506084,0,0,1.8603773,-220.9955,-272.2917)" />
  <polyline
     class="Stem"
     fill="none"
     stroke="#000000"
     stroke-width="2.48"
     stroke-linejoin="bevel"
     points="2246.34,1369.96 2246.34,1440.2"
     id="polyline110"
     transform="matrix(1.5506084,0,0,1.8603773,-220.9955,-272.2917)" />
  <polyline
     class="Stem"
     fill="none"
     stroke="#000000"
     stroke-width="2.48"
     stroke-linejoin="bevel"
     points="1107.41,729.43 1107.41,634.024"
     id="polyline112"
     transform="matrix(1.5506084,0,0,1.8603773,-220.9955,-272.2917)" />
  <polyline
     class="Stem"
     fill="none"
     stroke="#000000"
     stroke-width="2.48"
     stroke-linejoin="bevel"
     points="1966.72,1332.76 1966.72,1415.4"
     id="polyline114"
     transform="matrix(1.5506084,0,0,1.8603773,-220.9955,-272.2917)" />
  <polyline
     class="Stem"
     fill="none"
     stroke="#000000"
     stroke-width="2.48"
     stroke-linejoin="bevel"
     points="1172.4,692.23 1172.4,624.898"
     id="polyline116"
     transform="matrix(1.5506084,0,0,1.8603773,-220.9955,-272.2917)" />
  <polyline
     class="Stem"
     fill="none"
     stroke="#000000"
     stroke-width="2.48"
     stroke-linejoin="bevel"
     points="1826.91,1369.96 1826.91,1440.2"
     id="polyline118"
     transform="matrix(1.5506084,0,0,1.8603773,-220.9955,-272.2917)" />
  <polyline
     class="Stem"
     fill="none"
     stroke="#000000"
     stroke-width="2.48"
     stroke-linejoin="bevel"
     points="785.256,675.565 785.256,758.312"
     id="polyline120"
     transform="matrix(1.5506084,0,0,1.8603773,-220.9955,-272.2917)" />
  <polyline
     class="Stem"
     fill="none"
     stroke="#000000"
     stroke-width="2.48"
     stroke-linejoin="bevel"
     points="1237.38,679.83 1237.38,615.773"
     id="polyline122"
     transform="matrix(1.5506084,0,0,1.8603773,-220.9955,-272.2917)" />
  <polyline
     class="Stem"
     fill="none"
     stroke="#000000"
     stroke-width="2.48"
     stroke-linejoin="bevel"
     points="696.472,679.83 696.472,615.773"
     id="polyline124"
     transform="matrix(1.5506084,0,0,1.8603773,-220.9955,-272.2917)" />
  <polyline
     class="Stem"
     fill="none"
     stroke="#000000"
     stroke-width="2.48"
     stroke-linejoin="bevel"
     points="1377.5,700.365 1377.5,764.284"
     id="polyline126"
     transform="matrix(1.5506084,0,0,1.8603773,-220.9955,-272.2917)" />
  <polyline
     class="Stem"
     fill="none"
     stroke="#000000"
     stroke-width="2.48"
     stroke-linejoin="bevel"
     points="1698.24,1382.36 1698.24,1446.28"
     id="polyline128"
     transform="matrix(1.5506084,0,0,1.8603773,-220.9955,-272.2917)" />
  <polyline
     class="Stem"
     fill="none"
     stroke="#000000"
     stroke-width="2.48"
     stroke-linejoin="bevel"
     points="1472.23,692.23 1472.23,615.598"
     id="polyline130"
     transform="matrix(1.5506084,0,0,1.8603773,-220.9955,-272.2917)" />
  <polyline
     class="Stem"
     fill="none"
     stroke="#000000"
     stroke-width="2.48"
     stroke-linejoin="bevel"
     points="1605.04,1345.16 1605.04,1437.1"
     id="polyline132"
     transform="matrix(1.5506084,0,0,1.8603773,-220.9955,-272.2917)" />
  <polyline
     class="Stem"
     fill="none"
     stroke="#000000"
     stroke-width="2.48"
     stroke-linejoin="bevel"
     points="631.491,692.23 631.491,624.898"
     id="polyline134"
     transform="matrix(1.5506084,0,0,1.8603773,-220.9955,-272.2917)" />
  <polyline
     class="Stem"
     fill="none"
     stroke="#000000"
     stroke-width="2.48"
     stroke-linejoin="bevel"
     points="1634.68,729.43 1634.68,634.024"
     id="polyline136"
     transform="matrix(1.5506084,0,0,1.8603773,-220.9955,-272.2917)" />
  <polyline
     class="Stem"
     fill="none"
     stroke="#000000"
     stroke-width="2.48"
     stroke-linejoin="bevel"
     points="1511.83,1332.76 1511.83,1427.92"
     id="polyline138"
     transform="matrix(1.5506084,0,0,1.8603773,-220.9955,-272.2917)" />
  <polyline
     class="Stem"
     fill="none"
     stroke="#000000"
     stroke-width="2.48"
     stroke-linejoin="bevel"
     points="1699.66,692.23 1699.66,624.898"
     id="polyline140"
     transform="matrix(1.5506084,0,0,1.8603773,-220.9955,-272.2917)" />
  <path
     class="Note"
     d="m 609.39409,1099.8621 c 0,7.9298 4.75883,16.7825 17.23267,16.7825 15.983,0 32.75896,-15.6868 32.75896,-31.9213 0,-10.9 -7.69102,-16.9843 -17.23266,-16.9843 -14.92533,0 -32.75897,15.1387 -32.75897,32.1231"
     id="path142"
     style="stroke-width:1.68485" />
  <path
     class="Note"
     d="m 332.06157,2184.0936 c 0,7.93 4.75881,16.7825 17.23266,16.7825 15.98301,0 32.75896,-15.6867 32.75896,-31.9213 0,-10.8999 -7.69102,-16.9843 -17.23266,-16.9843 -14.92534,0 -32.75896,15.1389 -32.75896,32.1231"
     id="path144"
     style="stroke-width:1.68485" />
  <path
     class="Note"
     d="m 3560.82,2266.5931 c -21.2225,0 -28.7693,12.9184 -28.7693,24.9141 0,11.9957 7.5468,24.9142 28.7693,24.9142 21.2223,0 28.6009,-12.9185 28.6009,-24.9142 0,-11.9957 -7.3786,-24.9141 -28.6009,-24.9141 m 7.8351,42.7923 c -1.8506,0.7498 -4.3021,1.1246 -6.6094,1.1246 -4.3022,0 -7.2344,-1.4706 -9.2292,-6.0843 -1.9948,-4.6138 -4.7588,-16.4364 -4.9271,-21.4251 -0.3124,-4.9886 1.2258,-7.9299 4.9271,-9.4005 1.8506,-0.7497 4.3022,-1.1245 6.6094,-1.1245 4.3022,0 7.0902,1.1245 9.2292,6.1131 2.1632,4.9598 4.9271,16.7825 4.9271,21.3962 0,4.7868 -1.2258,8.1317 -4.9271,9.4005"
     id="path146"
     style="stroke-width:1.68485" />
  <path
     class="Note"
     d="m 476.58604,2184.0936 c 0,7.93 4.75881,16.7825 17.23265,16.7825 15.983,0 32.75896,-15.6867 32.75896,-31.9213 0,-10.8999 -7.69102,-16.9843 -17.23265,-16.9843 -14.92534,0 -32.75896,15.1389 -32.75896,32.1231"
     id="path148"
     style="stroke-width:1.68485" />
  <path
     class="Note"
     d="m 3260.2755,2276.3684 c 0,7.9298 4.7589,16.7825 17.2327,16.7825 15.9829,0 32.759,-15.6867 32.759,-31.9213 0,-10.9 -7.691,-16.9844 -17.2327,-16.9844 -14.9254,0 -32.759,15.1388 -32.759,32.1232"
     id="path150"
     style="stroke-width:1.68485" />
  <path
     class="Note"
     d="m 1760.0309,2207.1624 c 0,7.9298 4.7589,16.7824 17.2327,16.7824 15.9829,0 32.759,-15.6867 32.759,-31.9212 0,-10.9 -7.6911,-16.9844 -17.2327,-16.9844 -14.9255,0 -32.759,15.1388 -32.759,32.1232"
     id="path152"
     style="stroke-width:1.68485" />
  <path
     class="Note"
     d="m 621.11049,2184.0936 c 0,7.93 4.75883,16.7825 17.23266,16.7825 15.98301,0 32.75897,-15.6867 32.75897,-31.9213 0,-10.8999 -7.69102,-16.9843 -17.23267,-16.9843 -14.92532,0 -32.75896,15.1389 -32.75896,32.1231"
     id="path154"
     style="stroke-width:1.68485" />
  <path
     class="Note"
     d="m 3043.485,2253.2997 c 0,7.9299 4.7588,16.7824 17.2327,16.7824 15.9829,0 32.7589,-15.6867 32.7589,-31.9213 0,-10.8999 -7.6909,-16.9843 -17.2327,-16.9843 -14.9253,0 -32.7589,15.1389 -32.7589,32.1232"
     id="path156"
     style="stroke-width:1.68485" />
  <path
     class="Note"
     d="m 982.42084,2184.0936 c 0,7.93 4.75884,16.7825 17.23271,16.7825 15.98305,0 32.75895,-15.6867 32.75895,-31.9213 0,-10.8999 -7.691,-16.9843 -17.2326,-16.9843 -14.9254,0 -32.75906,15.1389 -32.75906,32.1231"
     id="path158"
     style="stroke-width:1.68485" />
  <path
     class="Note"
     d="m 2826.6944,2207.1624 c 0,7.9298 4.7589,16.7824 17.2327,16.7824 15.9829,0 32.759,-15.6867 32.759,-31.9212 0,-10.9 -7.6911,-16.9844 -17.2327,-16.9844 -14.9254,0 -32.759,15.1388 -32.759,32.1232"
     id="path160"
     style="stroke-width:1.68485" />
  <path
     class="Note"
     d="m 1126.9454,2207.1624 c 0,7.9298 4.7588,16.7824 17.2327,16.7824 15.9829,0 32.7589,-15.6867 32.7589,-31.9212 0,-10.9 -7.6911,-16.9844 -17.2327,-16.9844 -14.9253,0 -32.7589,15.1388 -32.7589,32.1232"
     id="path162"
     style="stroke-width:1.68485" />
  <path
     class="Note"
     d="m 2609.9039,2276.3684 c 0,7.9298 4.7588,16.7825 17.2327,16.7825 15.9829,0 32.7589,-15.6867 32.7589,-31.9213 0,-10.9 -7.691,-16.9844 -17.2327,-16.9844 -14.9254,0 -32.7589,15.1388 -32.7589,32.1232"
     id="path164"
     style="stroke-width:1.68485" />
  <path
     class="Note"
     d="m 1271.4698,2230.231 c 0,7.9298 4.7589,16.7825 17.2327,16.7825 15.983,0 32.759,-15.6867 32.759,-31.9213 0,-10.8999 -7.6911,-16.9843 -17.2327,-16.9843 -14.9254,0 -32.759,15.1388 -32.759,32.1231"
     id="path166"
     style="stroke-width:1.68485" />
  <path
     class="Note"
     d="m 2410.3871,2299.4371 c 0,7.9298 4.7589,16.7824 17.2327,16.7824 15.9829,0 32.759,-15.6867 32.759,-31.9213 0,-10.8999 -7.6911,-16.9843 -17.2328,-16.9843 -14.9254,0 -32.7589,15.1389 -32.7589,32.1232"
     id="path168"
     style="stroke-width:1.68485" />
  <path
     class="Note"
     d="m 1470.982,2184.0936 c 0,7.93 4.7588,16.7825 17.2327,16.7825 15.9829,0 32.7589,-15.6867 32.7589,-31.9213 0,-10.8999 -7.691,-16.9843 -17.2327,-16.9843 -14.9253,0 -32.7589,15.1389 -32.7589,32.1231"
     id="path170"
     style="stroke-width:1.68485" />
  <path
     class="Note"
     d="m 2265.8704,2230.231 c 0,7.9298 4.7588,16.7825 17.2326,16.7825 15.983,0 32.759,-15.6867 32.759,-31.9213 0,-10.8999 -7.691,-16.9843 -17.2326,-16.9843 -14.9255,0 -32.759,15.1388 -32.759,32.1231"
     id="path172"
     style="stroke-width:1.68485" />
  <path
     class="Note"
     d="m 1615.5142,2207.1624 c 0,7.9298 4.7588,16.7824 17.2326,16.7824 15.983,0 32.759,-15.6867 32.759,-31.9212 0,-10.9 -7.691,-16.9844 -17.2326,-16.9844 -14.9255,0 -32.759,15.1388 -32.759,32.1232"
     id="path174"
     style="stroke-width:1.68485" />
  <path
     class="Note"
     d="m 2121.3382,2207.1624 c 0,7.9298 4.7588,16.7824 17.2327,16.7824 15.9829,0 32.7589,-15.6867 32.7589,-31.9212 0,-10.9 -7.6911,-16.9844 -17.2327,-16.9844 -14.9254,0 -32.7589,15.1388 -32.7589,32.1232"
     id="path176"
     style="stroke-width:1.68485" />
  <path
     class="Note"
     d="m 3397.0702,938.38136 c 0,7.92986 4.7589,16.78253 17.2327,16.78253 15.983,0 32.759,-15.68676 32.759,-31.92134 0,-10.89996 -7.691,-16.98428 -17.2326,-16.98428 -14.9255,0 -32.7591,15.13879 -32.7591,32.12309"
     id="path178"
     style="stroke-width:1.68485" />
  <path
     class="Note"
     d="m 2467.2325,1007.5874 c 0,7.9298 4.7587,16.7825 17.2326,16.7825 15.9829,0 32.7589,-15.6867 32.7589,-31.92131 0,-10.90001 -7.691,-16.98432 -17.2326,-16.98432 -14.9255,0 -32.7589,15.13879 -32.7589,32.12313"
     id="path180"
     style="stroke-width:1.68485" />
  <path
     class="Note"
     d="m 2629.8602,961.45001 c 0,7.92985 4.7588,16.78252 17.2327,16.78252 15.9829,0 32.7589,-15.6867 32.7589,-31.92131 0,-10.89995 -7.691,-16.98427 -17.2327,-16.98427 -14.9253,0 -32.7589,15.13878 -32.7589,32.12306"
     id="path182"
     style="stroke-width:1.68485" />
  <path
     class="Note"
     d="m 2781.0135,1007.5874 c 0,7.9298 4.7588,16.7825 17.2327,16.7825 15.9829,0 32.7589,-15.6867 32.7589,-31.92131 0,-10.90001 -7.6909,-16.98432 -17.2327,-16.98432 -14.9253,0 -32.7589,15.13879 -32.7589,32.12313"
     id="path184"
     style="stroke-width:1.68485" />
  <path
     class="Note"
     d="m 2366.4584,1030.6561 c 0,7.9299 4.7588,16.7825 17.2327,16.7825 15.9829,0 32.7589,-15.6868 32.7589,-31.9214 0,-10.8999 -7.691,-16.98419 -17.2327,-16.98419 -14.9253,0 -32.7589,15.13879 -32.7589,32.12309"
     id="path186"
     style="stroke-width:1.68485" />
  <path
     class="Note"
     d="m 2265.6999,1099.8621 c 0,7.9298 4.7587,16.7825 17.2326,16.7825 15.983,0 32.7589,-15.6868 32.7589,-31.9213 0,-10.9 -7.691,-16.9843 -17.2326,-16.9843 -14.9255,0 -32.7589,15.1387 -32.7589,32.1231"
     id="path188"
     style="stroke-width:1.68485" />
  <path
     class="Note"
     d="m 2013.8035,1030.6561 c 0,7.9299 4.7588,16.7825 17.2327,16.7825 15.9828,0 32.7589,-15.6868 32.7589,-31.9214 0,-10.8999 -7.6911,-16.98419 -17.2327,-16.98419 -14.9254,0 -32.7589,15.13879 -32.7589,32.12309"
     id="path190"
     style="stroke-width:1.68485" />
  <path
     class="Note"
     d="m 2881.7721,1030.6561 c 0,7.9299 4.7588,16.7825 17.2327,16.7825 15.9829,0 32.7589,-15.6868 32.7589,-31.9214 0,-10.8999 -7.691,-16.98419 -17.2327,-16.98419 -14.9253,0 -32.7589,15.13879 -32.7589,32.12309"
     id="path192"
     style="stroke-width:1.68485" />
  <path
     class="Note"
     d="m 2982.5306,984.51874 c 0,7.92985 4.7588,16.78256 17.2327,16.78256 15.9829,0 32.7589,-15.68684 32.7589,-31.92144 0,-10.89991 -7.691,-16.98422 -17.2327,-16.98422 -14.9253,0 -32.7589,15.13878 -32.7589,32.1231"
     id="path194"
     style="stroke-width:1.68485" />
  <path
     class="Note"
     d="m 3133.6684,1007.5874 c 0,7.9298 4.7588,16.7825 17.2327,16.7825 15.9829,0 32.7589,-15.6867 32.7589,-31.92131 0,-10.90001 -7.691,-16.98432 -17.2327,-16.98432 -14.9253,0 -32.7589,15.13879 -32.7589,32.12313"
     id="path196"
     style="stroke-width:1.68485" />
  <path
     class="Note"
     d="m 1913.045,1030.6561 c 0,7.9299 4.7588,16.7825 17.2327,16.7825 15.9828,0 32.7589,-15.6868 32.7589,-31.9214 0,-10.8999 -7.6911,-16.98419 -17.2327,-16.98419 -14.9254,0 -32.7589,15.13879 -32.7589,32.12309"
     id="path198"
     style="stroke-width:1.68485" />
  <path
     class="Note"
     d="m 3234.427,1030.6561 c 0,7.9299 4.7587,16.7825 17.2326,16.7825 15.983,0 32.7589,-15.6868 32.7589,-31.9214 0,-10.8999 -7.6909,-16.98419 -17.2326,-16.98419 -14.9254,0 -32.7589,15.13879 -32.7589,32.12309"
     id="path200"
     style="stroke-width:1.68485" />
  <path
     class="Note"
     d="m 1812.2865,961.45001 c 0,7.92985 4.7587,16.78252 17.2326,16.78252 15.9829,0 32.7589,-15.6867 32.7589,-31.92131 0,-10.89995 -7.691,-16.98427 -17.2326,-16.98427 -14.9255,0 -32.7589,15.13878 -32.7589,32.12306"
     id="path202"
     style="stroke-width:1.68485" />
  <path
     class="Note"
     d="m 1649.6431,1007.5874 c 0,7.9298 4.7588,16.7825 17.2326,16.7825 15.983,0 32.759,-15.6867 32.759,-31.92131 0,-10.90001 -7.691,-16.98432 -17.2326,-16.98432 -14.9255,0 -32.759,15.13879 -32.759,32.12313"
     id="path204"
     style="stroke-width:1.68485" />
  <path
     class="Note"
     d="m 3548.2081,938.38136 c 0,7.92986 4.7588,16.78253 17.2326,16.78253 15.983,0 32.759,-15.68676 32.759,-31.92134 0,-10.89996 -7.691,-16.98428 -17.2326,-16.98428 -14.9255,0 -32.759,15.13879 -32.759,32.12309"
     id="path206"
     style="stroke-width:1.68485" />
  <path
     class="Note"
     d="m 3699.3459,938.38136 c 0,7.92986 4.7588,16.78253 17.2326,16.78253 15.983,0 32.759,-15.68676 32.759,-31.92134 0,-10.89996 -7.691,-16.98428 -17.2326,-16.98428 -14.9255,0 -32.759,15.13879 -32.759,32.12309"
     id="path208"
     style="stroke-width:1.68485" />
  <path
     class="Note"
     d="m 1548.8845,1030.6561 c 0,7.9299 4.7589,16.7825 17.2327,16.7825 15.9829,0 32.759,-15.6868 32.759,-31.9214 0,-10.8999 -7.6911,-16.98419 -17.2327,-16.98419 -14.9254,0 -32.759,15.13879 -32.759,32.12309"
     id="path210"
     style="stroke-width:1.68485" />
  <path
     class="Note"
     d="m 3850.4837,961.45001 c 0,7.92985 4.7588,16.78252 17.2326,16.78252 15.983,0 32.759,-15.6867 32.759,-31.92131 0,-10.89995 -7.691,-16.98427 -17.2326,-16.98427 -14.9255,0 -32.759,15.13878 -32.759,32.12306"
     id="path212"
     style="stroke-width:1.68485" />
  <path
     class="Note"
     d="m 1448.126,1099.8621 c 0,7.9298 4.7589,16.7825 17.2327,16.7825 15.9829,0 32.759,-15.6868 32.759,-31.9213 0,-10.9 -7.6911,-16.9843 -17.2328,-16.9843 -14.9253,0 -32.7589,15.1387 -32.7589,32.1231"
     id="path214"
     style="stroke-width:1.68485" />
  <path
     class="Note"
     d="m 3951.2422,938.38136 c 0,7.92986 4.7589,16.78253 17.2327,16.78253 15.9829,0 32.759,-15.68676 32.759,-31.92134 0,-10.89996 -7.6911,-16.98428 -17.2327,-16.98428 -14.9254,0 -32.759,15.13879 -32.759,32.12309"
     id="path216"
     style="stroke-width:1.68485" />
  <path
     class="Note"
     d="m 1196.225,1030.6561 c 0,7.9299 4.7588,16.7825 17.2327,16.7825 15.983,0 32.7589,-15.6868 32.7589,-31.9214 0,-10.8999 -7.691,-16.98419 -17.2327,-16.98419 -14.9252,0 -32.7589,15.13879 -32.7589,32.12309"
     id="path218"
     style="stroke-width:1.68485" />
  <path
     class="Note"
     d="m 1095.4665,1030.6561 c 0,7.9299 4.7588,16.7825 17.2326,16.7825 15.9831,0 32.759,-15.6868 32.759,-31.9214 0,-10.8999 -7.691,-16.98419 -17.2327,-16.98419 -14.9253,0 -32.7589,15.13879 -32.7589,32.12309"
     id="path220"
     style="stroke-width:1.68485" />
  <path
     class="Note"
     d="m 994.70631,984.51874 c 0,7.92985 4.75884,16.78256 17.23279,16.78256 15.9829,0 32.7589,-15.68684 32.7589,-31.92144 0,-10.89991 -7.6911,-16.98422 -17.2326,-16.98422 -14.9254,0 -32.75909,15.13878 -32.75909,32.1231"
     id="path222"
     style="stroke-width:1.68485" />
  <path
     class="Note"
     d="m 810.91428,1007.5874 c 0,7.9298 4.75881,16.7825 17.23265,16.7825 15.98301,0 32.75896,-15.6867 32.75896,-31.92131 0,-10.90001 -7.69101,-16.98432 -17.23265,-16.98432 -14.92534,0 -32.75896,15.13879 -32.75896,32.12313"
     id="path224"
     style="stroke-width:1.68485" />
  <path
     class="Note"
     d="m 710.15418,1030.6561 c 0,7.9299 4.75883,16.7825 17.23266,16.7825 15.98301,0 32.75896,-15.6868 32.75896,-31.9214 0,-10.8999 -7.69101,-16.98419 -17.23266,-16.98419 -14.92533,0 -32.75896,15.13879 -32.75896,32.12309"
     id="path226"
     style="stroke-width:1.68485" />
  <path
     class="Clef"
     d="m 202.56332,2447.0766 c 0,-6.8341 -5.21543,-9.7753 -10.28674,-9.7753 -6.46521,0 -12.78632,4.7867 -12.78632,13.0914 0,3.518 1.08152,6.1132 3.24469,8.6796 -4.01379,1.8455 -8.00357,5.5365 -8.00357,11.2748 0,6.0844 4.61461,10.1502 11.39239,10.1502 8.29184,0 14.13224,-5.5364 14.13224,-13.4952 0,-4.2388 -1.53821,-7.7279 -4.3022,-10.1502 4.47048,-2.3933 6.60951,-5.3346 6.60951,-9.7753 m -15.38204,29.5279 c -3.36482,0 -5.67213,-2.5664 -5.67213,-6.4592 0,-3.691 1.36994,-6.6322 3.98965,-8.4778 0.62497,0.3749 0.76911,0.3749 1.22579,0.721 1.85062,1.1246 1.85062,1.1246 2.16318,1.4994 2.90812,2.0185 4.15791,3.864 4.15791,6.4592 0,3.4892 -2.47558,6.2574 -5.8644,6.2574 m 5.8644,-22.1459 c -2.3073,-1.4706 -2.93227,-1.8455 -3.38881,-2.2203 l -0.31255,-0.1731 c -2.30731,-1.6725 -3.07641,-2.9701 -3.07641,-5.1616 0,-3.345 2.16316,-5.7383 5.23956,-5.7383 2.90814,0 4.75876,2.2203 4.75876,6.0843 0,2.9701 -0.91324,4.9887 -3.22055,7.209 m 42.90143,-140.0845 c 0,-27.8555 -16.46356,-46.6853 -38.91178,-46.6853 -1.5382,-11.073 -2.93214,-21.9729 -4.30205,-32.2961 16.15114,-20.5023 27.51938,-43.744 27.51938,-72.8971 0,-16.8113 -4.3022,-30.4507 -6.92192,-37.111 -3.67723,-9.4011 -8.14771,-15.8603 -10.76742,-15.8603 -1.05752,0 -5.98453,2.2203 -10.9117,9.4011 -9.99832,14.0424 -12.76217,37.457 -12.76217,52.9707 0,9.9772 0.76909,19.0028 3.3888,39.8799 -0.16827,0 -8.1717,9.7754 -11.39238,13.0916 -14.01197,15.5137 -33.3838,38.0056 -33.3838,74.7425 0,34.6895 25.06795,61.8241 53.693,61.8241 4.44633,0 8.60425,-0.548 12.30563,-1.2977 2.76385,17.5611 4.61461,30.6525 4.61461,40.4279 0,19.2047 -8.31599,29.3548 -23.84216,29.3548 -3.70137,0 -6.92191,-0.9227 -7.23447,-1.1246 -0.1442,0 -0.45654,-0.173 -0.45654,-0.346 0,-0.3748 0.3124,-0.5767 0.7691,-0.7497 7.23432,-1.2976 14.44465,-8.8526 14.44465,-20.4735 0,-9.9772 -6.29709,-20.5023 -17.83362,-20.5023 -10.76742,0 -17.54506,10.5251 -17.54506,22.6939 0,12.1976 7.69101,28.2591 28.45676,28.2591 19.85238,0 29.53829,-13.4952 29.53829,-37.1117 0,-7.1801 -0.91323,-15.4849 -2.45144,-26.01 -0.4567,-3.691 -1.2258,-9.4293 -2.30731,-16.4364 15.06948,-6.0843 26.2936,-24.7412 26.2936,-43.7439 m -47.3719,-151.3306 c 1.5382,-7.382 8.46012,-26.7597 16.46369,-26.7597 2.30731,0 6.15282,8.8526 6.15282,21.7711 0,19.0028 -11.99323,33.4208 -22.61651,46.1374 -0.91324,-7.382 -1.68235,-14.764 -1.68235,-22.319 0,-7.0072 0.60084,-13.1203 1.68235,-18.8298 m 4.61461,190.8356 c -21.99139,0 -40.76236,-18.4549 -40.76236,-46.3392 0,-22.4919 13.21897,-42.6194 26.77439,-56.8354 2.59572,-2.5953 5.0713,-5.1616 7.37861,-7.9299 1.36992,9.9484 2.45144,18.455 3.53295,26.2118 -14.01196,4.7867 -23.52959,22.6938 -23.52959,39.8512 0,13.1202 8.46011,30.8254 20.76575,30.8254 1.22564,0 2.6197,-0.7497 2.6197,-2.5952 0,-1.4706 -1.39406,-2.5664 -3.38881,-4.037 -6.00868,-4.2677 -9.3975,-9.2275 -9.3975,-18.1089 0,-11.2459 7.09019,-20.3004 16.00686,-22.8669 l 8.9168,60.5265 c -3.0764,0.7498 -5.84039,1.2976 -8.9168,1.2976 m 15.38203,-3.518 c -3.22055,-21.9441 -7.37845,-51.2989 -8.46011,-59.4306 15.5263,0 22.15981,12.9185 23.52974,21.7998 0.16827,1.4707 0.45668,3.4892 0.45668,5.7095 0,13.2934 -4.61461,26.5867 -15.52631,31.9213"
     id="path228"
     style="stroke-width:1.68485" />
  <path
     class="Clef"
     d="m 394.83876,1178.2955 c 0,-6.834 -5.21543,-9.7751 -10.28673,-9.7751 -6.46522,0 -12.78632,4.7865 -12.78632,13.0913 0,3.5181 1.08151,6.1132 3.2447,8.6796 -4.0138,1.8454 -8.00358,5.5365 -8.00358,11.2748 0,6.0844 4.61461,10.1503 11.39238,10.1503 8.29184,0 14.13224,-5.5365 14.13224,-13.4953 0,-4.2389 -1.5382,-7.7279 -4.30219,-10.1502 4.47048,-2.3934 6.6095,-5.3346 6.6095,-9.7754 m -15.38203,29.5279 c -3.36483,0 -5.67213,-2.5664 -5.67213,-6.4592 0,-3.691 1.36993,-6.6322 3.98965,-8.4777 0.62496,0.3749 0.76911,0.3749 1.22579,0.7209 1.85062,1.1246 1.85062,1.1246 2.16318,1.4995 2.90812,2.0186 4.1579,3.864 4.1579,6.4592 0,3.4891 -2.47557,6.2573 -5.86439,6.2573 m 5.86439,-22.1459 c -2.3073,-1.4704 -2.93226,-1.8455 -3.3888,-2.2203 l -0.31256,-0.1729 c -2.30731,-1.6725 -3.0764,-2.9701 -3.0764,-5.1617 0,-3.3449 2.16315,-5.7383 5.23956,-5.7383 2.90813,0 4.75876,2.2204 4.75876,6.0844 0,2.9702 -0.91325,4.9885 -3.22056,7.2089 m 42.90143,-140.0845 c 0,-27.8555 -16.46355,-46.68529 -38.91177,-46.68529 -1.5382,-11.07301 -2.93214,-21.97301 -4.30206,-32.2961 16.15114,-20.50239 27.51939,-43.744 27.51939,-72.89708 0,-16.81133 -4.3022,-30.45065 -6.92192,-37.11105 -3.67722,-9.40094 -8.1477,-15.86017 -10.76743,-15.86017 -1.05751,0 -5.98452,2.22014 -10.9117,9.40095 -9.99831,14.04237 -12.76217,37.45708 -12.76217,52.97067 0,9.9773 0.76911,19.00288 3.38881,39.88003 -0.16827,0 -8.1717,9.77538 -11.39238,13.09155 -14.01196,15.51359 -33.3838,38.00561 -33.3838,74.74249 0,34.6895 25.06795,61.824 53.693,61.824 4.44632,0 8.60425,-0.5479 12.30564,-1.2975 2.76384,17.5609 4.61461,30.6524 4.61461,40.4278 0,19.2047 -8.316,29.3549 -23.84216,29.3549 -3.70139,0 -6.92192,-0.9227 -7.23447,-1.1246 -0.14422,0 -0.45655,-0.173 -0.45655,-0.346 0,-0.3748 0.3124,-0.5767 0.7691,-0.7498 7.23432,-1.2977 14.44465,-8.8525 14.44465,-20.4734 0,-9.9773 -6.29709,-20.5024 -17.83361,-20.5024 -10.76743,0 -17.54508,10.5251 -17.54508,22.6939 0,12.1976 7.69102,28.2592 28.45677,28.2592 19.85238,0 29.53829,-13.4953 29.53829,-37.1118 0,-7.1802 -0.91324,-15.4848 -2.45144,-26.0099 -0.4567,-3.691 -1.2258,-9.4294 -2.3073,-16.4365 15.06947,-6.0845 26.29358,-24.7411 26.29358,-43.7439 M 380.85066,894.26256 c 1.5382,-7.38198 8.46012,-26.75967 16.4637,-26.75967 2.3073,0 6.15281,8.85247 6.15281,21.77094 0,19.00288 -11.99322,33.4208 -22.61651,46.13736 -0.91324,-7.38198 -1.68235,-14.76396 -1.68235,-22.31886 0,-7.00715 0.60083,-13.12035 1.68235,-18.82977 m 4.61461,190.83554 c -21.99139,0 -40.76237,-18.455 -40.76237,-46.3391 0,-22.4921 13.21897,-42.61944 26.77439,-56.83551 2.59572,-2.59525 5.07132,-5.16159 7.37862,-7.92985 1.36992,9.94829 2.45144,18.45495 3.53295,26.21166 -14.01196,4.7869 -23.52959,22.694 -23.52959,39.8513 0,13.1202 8.46012,30.8254 20.76575,30.8254 1.22564,0 2.6197,-0.7496 2.6197,-2.5951 0,-1.4707 -1.39406,-2.5665 -3.38881,-4.0371 -6.00869,-4.2677 -9.39751,-9.2274 -9.39751,-18.1089 0,-11.2459 7.09021,-20.3005 16.00687,-22.8668 l 8.91681,60.5264 c -3.07642,0.7498 -5.8404,1.2976 -8.91681,1.2976 m 15.38204,-3.5179 c -3.22055,-21.9442 -7.37846,-51.299 -8.46012,-59.4308 15.52631,0 22.15981,12.9186 23.52974,21.7999 0.16827,1.4707 0.45668,3.4892 0.45668,5.7096 0,13.2933 -4.61461,26.5867 -15.5263,31.9213"
     id="path230"
     style="stroke-width:1.68485" />
  <path
     class="TimeSig"
     d="m 496.50441,977.1367 v 13.63946 h -12.76232 c -1.08151,0 -2.16302,1.12452 -2.16302,2.59515 v 3.51807 c 0,1.47052 1.08151,2.56635 2.16302,2.56635 h 46.60279 c 1.24979,0 2.16305,-1.09583 2.16305,-2.56635 v -3.51807 c 0,-1.47063 -0.91326,-2.59515 -2.16305,-2.59515 H 516.50105 V 977.1367 h 13.84383 c 1.24979,0 2.16305,-1.29752 2.16305,-2.76825 v -3.51797 c 0,-1.29752 -0.91326,-2.56634 -2.16305,-2.56634 h -13.84383 v -29.3549 c 0,-1.09576 -0.45668,-2.0185 -1.05752,-2.39337 l -1.8506,-1.1246 c -0.31255,-0.17301 -0.4567,-0.17301 -0.7691,-0.17301 -0.16828,0 -0.16828,0 -0.31256,0 -0.45654,0 -1.08151,0.17301 -1.39393,0.54788 l -13.9881,15.31188 c -0.45655,0.57671 -0.62483,1.29752 -0.62483,2.04733 v 15.13879 h -17.83358 c 0,0 17.23276,-22.14592 35.37865,-51.3279 0.62496,-0.92275 0.7691,-1.8455 0.7691,-2.56634 0,-0.92275 -0.31241,-1.67241 -0.45654,-1.84549 l -3.38897,-4.06582 c -0.45655,-0.37482 -0.91324,-0.74983 -1.5382,-0.74983 -0.91325,0 -21.70299,0 -22.92879,0 -1.0815,0 -1.8506,1.12466 -1.99488,2.2205 0,0 -0.76911,13.66812 -4.75883,28.60512 -4.01374,14.96578 -8.62835,24.19325 -12.61807,30.99858 0,0 -0.45665,0.92272 -0.45665,2.04734 0,0.37481 0,0.72092 0.1442,1.09572 0.45665,1.29762 1.53821,3.31627 1.53821,3.31627 0,0 0.31244,1.12441 1.6824,1.12441 h 26.46195"
     id="path232"
     style="stroke-width:1.68485" />
  <path
     class="TimeSig"
     d="m 496.50441,1069.4114 v 13.6394 h -12.76232 c -1.08151,0 -2.16302,1.1246 -2.16302,2.5952 v 3.5181 c 0,1.4705 1.08151,2.5663 2.16302,2.5663 h 46.60279 c 1.24979,0 2.16305,-1.0958 2.16305,-2.5663 v -3.5181 c 0,-1.4706 -0.91326,-2.5952 -2.16305,-2.5952 h -13.84383 v -13.6394 h 13.84383 c 1.24979,0 2.16305,-1.2976 2.16305,-2.7683 v -3.5179 c 0,-1.2977 -0.91326,-2.5664 -2.16305,-2.5664 h -13.84383 v -29.3549 c 0,-1.0957 -0.45668,-2.0184 -1.05752,-2.3933 l -1.8506,-1.1247 c -0.31255,-0.173 -0.4567,-0.173 -0.7691,-0.173 -0.16828,0 -0.16828,0 -0.31256,0 -0.45654,0 -1.08151,0.173 -1.39393,0.548 l -13.9881,15.3117 c -0.45655,0.5767 -0.62483,1.2977 -0.62483,2.0474 v 15.1388 h -17.83358 c 0,0 17.23276,-22.1459 35.37865,-51.3279 0.62496,-0.9227 0.7691,-1.8454 0.7691,-2.5662 0,-0.9229 -0.31241,-1.6725 -0.45654,-1.8456 l -3.38897,-4.0658 c -0.45655,-0.3749 -0.91324,-0.7499 -1.5382,-0.7499 -0.91325,0 -21.70299,0 -22.92879,0 -1.0815,0 -1.8506,1.1247 -1.99488,2.2206 0,0 -0.76911,13.6681 -4.75883,28.6051 -4.01374,14.9658 -8.62835,24.1933 -12.61807,30.9984 0,0 -0.45665,0.9229 -0.45665,2.0474 0,0.3749 0,0.721 0.1442,1.0958 0.45665,1.2976 1.53821,3.3162 1.53821,3.3162 0,0 0.31244,1.1245 1.6824,1.1245 h 26.46195"
     id="path234"
     style="stroke-width:1.68485" />
  <path
     class="Rest"
     d="m 878.97122,2231.1538 c -0.1442,0 -0.45654,-0.2019 -0.62483,-0.2019 -0.91337,0 -1.68247,0.5767 -1.99489,1.4995 -0.62482,1.0957 -5.38371,11.9956 -12.30563,18.0801 -1.99488,1.8454 -4.47032,3.143 -6.92191,3.6909 1.68248,-2.3933 2.76399,-5.3635 2.76399,-8.8525 0,-7.2091 -4.92702,-13.1204 -10.91167,-13.1204 -6.15281,0 -11.07987,5.9113 -11.07987,13.1204 0,5.7095 2.93221,10.3232 6.92191,12.3417 2.30731,1.2976 5.38372,2.2203 8.46013,2.2203 4.47048,0 9.22922,-1.6436 13.38715,-5.3346 1.85075,-1.6725 3.67737,-3.8928 5.3837,-6.1132 l -17.54507,65.7169 4.15793,1.4706 21.53485,-81.3747 c 0.16827,-0.2018 0.16827,-0.5768 0.16827,-0.9228 0,-0.9227 -0.48069,-1.6725 -1.39406,-2.2203"
     id="path236"
     style="stroke-width:1.68485" />
  <path
     class="Rest"
     d="m 1388.4424,962.37272 c -0.1443,0 -0.4567,-0.2019 -0.625,-0.2019 -0.9133,0 -1.6824,0.57671 -1.9948,1.49953 -0.6249,1.09582 -5.3837,11.99572 -12.3057,18.08014 -1.9948,1.84543 -4.4704,3.14306 -6.9219,3.69097 1.6824,-2.39334 2.764,-5.3634 2.764,-8.85267 0,-7.20893 -4.9271,-13.12024 -10.9117,-13.12024 -6.1527,0 -11.0798,5.91131 -11.0798,13.12024 0,5.70961 2.9321,10.3233 6.9219,12.34184 2.3073,1.29762 5.3837,2.22034 8.4601,2.22034 4.4704,0 9.2292,-1.64363 13.3872,-5.3346 1.8506,-1.67254 3.6772,-3.89288 5.3837,-6.11332 l -17.5451,65.71695 4.1579,1.4706 21.5349,-81.37482 c 0.1682,-0.2017 0.1682,-0.57671 0.1682,-0.92272 0,-0.92271 -0.4806,-1.67243 -1.3939,-2.22034"
     id="path238"
     style="stroke-width:1.68485" />
  <path
     class="Rest"
     d="m 2206.0161,962.37272 c -0.1442,0 -0.4566,-0.2019 -0.6249,-0.2019 -0.9133,0 -1.6823,0.57671 -1.9948,1.49953 -0.6249,1.09582 -5.3838,11.99572 -12.3056,18.08014 -1.9949,1.84543 -4.4704,3.14306 -6.922,3.69097 1.6825,-2.39334 2.764,-5.3634 2.764,-8.85267 0,-7.20893 -4.927,-13.12024 -10.9116,-13.12024 -6.1529,0 -11.0799,5.91131 -11.0799,13.12024 0,5.70961 2.9322,10.3233 6.9219,12.34184 2.3073,1.29762 5.3837,2.22034 8.4602,2.22034 4.4704,0 9.2292,-1.64363 13.3871,-5.3346 1.8506,-1.67254 3.6773,-3.89288 5.3837,-6.11332 l -17.5451,65.71695 4.158,1.4706 21.5347,-81.37482 c 0.1684,-0.2017 0.1684,-0.57671 0.1684,-0.92272 0,-0.92271 -0.4808,-1.67243 -1.3941,-2.22034"
     id="path240"
     style="stroke-width:1.68485" />
  <path
     class="Rest"
     d="m 2017.8963,2231.1538 c -0.1442,0 -0.4566,-0.2019 -0.6248,-0.2019 -0.9133,0 -1.6825,0.5767 -1.995,1.4995 -0.6248,1.0957 -5.3837,11.9956 -12.3055,18.0801 -1.9949,1.8454 -4.4705,3.143 -6.922,3.6909 1.6824,-2.3933 2.764,-5.3635 2.764,-8.8525 0,-7.2091 -4.9271,-13.1204 -10.9117,-13.1204 -6.1528,0 -11.0798,5.9113 -11.0798,13.1204 0,5.7095 2.9322,10.3232 6.9218,12.3417 2.3074,1.2976 5.3838,2.2203 8.4602,2.2203 4.4704,0 9.2292,-1.6436 13.3872,-5.3346 1.8507,-1.6725 3.6773,-3.8928 5.3837,-6.1132 l -17.5452,65.7169 4.158,1.4706 21.5349,-81.3747 c 0.1682,-0.2018 0.1682,-0.5768 0.1682,-0.9228 0,-0.9227 -0.4807,-1.6725 -1.394,-2.2203"
     id="path242"
     style="stroke-width:1.68485" />
  <path
     class="Beam"
     fill-rule="evenodd"
     d="m 2827.1286,861.37012 104.6041,11.53434 v 23.16728 l -104.6041,-11.53435 v -23.16727"
     id="path244"
     style="stroke-width:1.69844" />
  <path
     class="Beam"
     fill-rule="evenodd"
     d="m 3179.7835,861.37012 104.6041,11.53434 v 23.16728 l -104.6041,-11.53435 v -23.16727"
     id="path246"
     style="stroke-width:1.69844" />
  <path
     class="Beam"
     fill-rule="evenodd"
     d="m 1812.2865,1126.6599 104.604,11.5343 v 23.1673 l -104.604,-11.5343 v -23.1673"
     id="path248"
     style="stroke-width:1.69844" />
  <path
     class="Beam"
     fill-rule="evenodd"
     d="m 982.42084,2337.8176 292.89456,11.5343 v 23.0687 l -292.89456,-11.5344 v -23.0686"
     id="path250"
     style="stroke-width:1.69844" />
  <path
     class="Beam"
     fill-rule="evenodd"
     d="m 1494.2411,895.90988 205.3781,-34.60301 v 23.29378 l -205.3781,34.60302 v -23.29379"
     id="path252"
     style="stroke-width:1.69844" />
  <path
     class="Beam"
     fill-rule="evenodd"
     d="m 655.51694,895.90988 205.36569,-34.60301 v 23.29378 l -205.36569,34.60302 v -23.29379"
     id="path254"
     style="stroke-width:1.69844" />
  <path
     class="Beam"
     fill-rule="evenodd"
     d="m 3850.4837,1080.5225 104.6041,-11.5343 v 23.1672 l -104.6041,11.5344 v -23.1673"
     id="path256"
     style="stroke-width:1.69844" />
  <path
     class="Beam"
     fill-rule="evenodd"
     d="m 2121.3382,2372.3647 292.8944,34.6031 v 23.1803 l -292.8944,-34.603 v -23.1804"
     id="path258"
     style="stroke-width:1.69844" />
  <path
     class="Beam"
     fill-rule="evenodd"
     d="m 1470.982,2303.196 148.3777,11.5343 v 23.1059 l -148.3777,-11.5343 v -23.1059"
     id="path260"
     style="stroke-width:1.69844" />
  <path
     class="Beam"
     fill-rule="evenodd"
     d="m 2311.8304,895.90988 205.3626,-34.60301 v 23.29378 l -205.3626,34.60302 v -23.29379"
     id="path262"
     style="stroke-width:1.69844" />
  <path
     class="Beam"
     fill-rule="evenodd"
     d="m 994.70631,1126.6599 104.60569,11.5343 v 23.1673 l -104.60569,-11.5343 v -23.1673"
     id="path264"
     style="stroke-width:1.69844" />
  <path
     class="Beam"
     fill-rule="evenodd"
     d="m 332.06157,2303.2146 h 148.36997 v 23.0686 H 332.06157 v -23.0686"
     id="path266"
     style="stroke-width:1.69844" />
  <path
     class="StaffText"
     d="m 2651.5842,2026.5578 h -55.9149 v 5.2277 h 1.6747 c 5.303,0.1116 7.0707,0.4279 7.815,1.5627 0.5582,0.986 0.5582,1.2278 0.5582,6.9207 v 53.1323 c 0,5.7113 0,5.916 -0.5582,6.9206 -0.7443,1.1163 -2.512,1.5813 -7.815,1.5813 h -1.6747 v 5.2277 h 57.1244 l 1.8763,-29.8033 h -4.1092 c -3.5353,19.8503 -7.3343,24.1106 -21.5844,24.5756 h -6.1249 c -5.5977,-0.2418 -6.9778,-1.3767 -6.7142,-5.3764 v -28.4639 h 1.8608 c 9.5827,-0.4465 13.0251,3.6836 13.4128,16.0737 h 4.3571 v -36.5936 h -4.3571 c -0.5583,10.9205 -4.2023,15.2923 -13.0406,15.2923 h -2.233 v -25.4686 c -0.093,-4.6882 0.8528,-5.4695 5.8614,-5.5811 h 4.8533 c 15.2425,-0.1116 19.057,3.8881 22.0497,23.2175 h 3.985 l -1.3025,-28.4452 m 14.0485,29.0033 4.0936,0.7814 1.6747,-8.7996 c 1.38,-7.3857 2.0313,-8.502 4.7293,-8.502 0.4808,0 1.2096,0 2.0624,0.1303 11.4279,0.6697 11.4279,0.6697 15.7231,0.6697 1.2095,0 3.3339,0 5.9544,-0.1302 l -6.3264,15.2923 c -6.9003,16.4085 -7.7222,18.3991 -10.0481,25.3198 -2.8841,8.3717 -4.3881,15.4039 -4.3881,20.1106 0,5.116 2.2328,8.2601 5.8612,8.2601 4.4813,0 6.249,-3.5719 6.156,-13.2831 -0.4808,-16.0737 1.2094,-23.8872 11.1489,-49.9883 1.6901,-4.3719 3.4578,-8.8368 5.1324,-13.2087 v -3.2184 c -5.5977,0.558 -8.5748,0.7813 -14.3431,0.7813 -8.0942,0 -14.5137,-0.3535 -24.5461,-1.2278 l -2.8842,27.0126"
     id="path268"
     style="stroke-width:1.69844" />
  <path
     class="StaffText"
     d="m 3530.159,2024.9765 h -3.9076 l -21.3983,65.0946 c -2.5121,8.688 -4.9155,11.367 -10.2186,11.832 h -0.3876 v 5.2277 h 24.6702 v -5.2277 h -1.8762 c -5.0086,0 -7.536,-2.1208 -7.536,-6.381 0,-1.4512 0.2946,-2.7906 0.8528,-4.7068 l 3.0548,-9.8229 h 24.6701 l 5.0084,14.9761 c 0.5583,1.7674 0.7443,2.4371 0.7443,3.0138 0,1.786 -2.3259,2.9208 -5.7527,2.9208 h -3.9075 v 5.2277 h 28.8257 v -5.2277 h -1.3025 c -4.8378,-0.1302 -5.6752,-0.8 -7.7995,-7.1625 l -23.7398,-69.7641 m -4.5588,18.3247 10.5131,31.6823 h -20.8401 l 10.327,-31.6823 m 55.2637,11.832 -16.576,1.2093 v 4.7998 h 3.83 c 3.5354,0.1115 4.0005,0.7813 4.0005,5.5811 v 31.9241 c -0.093,1.6743 -0.2015,2.3441 -0.5582,2.9021 -0.6512,1.0233 -2.4189,1.4511 -6.4195,1.5628 h -0.3721 v 4.0184 h 23.4297 v -4.0184 h -0.3566 c -6.156,-0.2232 -6.9778,-0.7814 -6.9778,-4.9114 v -20.6688 c 0,-9.9159 4.5588,-17.2829 10.6062,-17.2829 5.2875,0 8.0011,4.5765 8.0011,13.618 v 24.8918 c -0.093,1.451 -0.2016,2.2325 -0.6513,2.7905 -0.5582,1.0233 -2.4189,1.4511 -6.4195,1.5628 h -0.3722 v 4.0184 h 23.5228 v -4.0184 h -0.3566 c -6.1559,-0.2232 -6.9778,-0.7814 -6.9778,-4.7998 v -19.7572 c 0,-11.1623 4.1867,-18.3061 10.6837,-18.3061 5.3031,0 7.9236,4.7812 7.9236,14.8458 v 23.5524 c -0.093,1.5626 -0.186,2.3441 -0.6512,2.9021 -0.5582,1.0233 -2.419,1.4511 -6.4195,1.5628 h -0.3722 v 4.0184 h 23.5382 v -4.0184 h -0.3721 c -6.1559,-0.2232 -6.9777,-0.7814 -6.9777,-4.9114 v -25.3383 c 0,-6.9207 -0.5582,-9.2833 -2.9772,-13.0599 -2.7136,-4.13 -6.5126,-6.3625 -10.9784,-6.3625 -6.0628,0 -10.513,3.4603 -14.5136,11.1623 -1.5972,-6.6788 -6.6056,-11.1623 -12.839,-11.1623 -5.6753,0 -9.7688,3.2184 -13.3973,10.2507 v -8.5578"
     id="path270"
     style="stroke-width:1.69844" />
  <path
     class="StaffText"
     d="m 1019.8758,765.43046 h -3.9013 l -21.39375,65.0853 c -2.51975,8.68982 -4.91854,11.36504 -10.22474,11.83014 h -0.38767 v 5.23138 h 24.66556 v -5.23138 h -1.8669 c -5.0146,0 -7.53443,-2.12269 -7.53443,-6.36621 0,-1.45296 0.29152,-2.79057 0.84823,-4.70861 l 3.0531,-9.82466 h 24.664 l 5.0147,14.9686 c 0.5582,1.7748 0.7521,2.44267 0.7521,3.02311 0,1.7748 -2.326,2.90777 -5.7668,2.90777 h -3.9013 v 5.23138 h 28.832 v -5.23138 h -1.3087 c -4.8457,-0.11721 -5.669,-0.78508 -7.8011,-7.15129 l -23.743,-69.76415 m -4.5557,18.31355 10.5148,31.68409 h -20.8355 l 10.3207,-31.68409 m 55.2653,11.83014 -16.5729,1.22227 v 4.79606 h 3.8285 c 3.5369,0.11534 3.9974,0.78508 3.9974,5.58112 v 31.91664 c -0.096,1.6855 -0.1938,2.35524 -0.5567,2.90591 -0.6543,1.01762 -2.4236,1.45481 -6.421,1.57015 h -0.3629 v 4.01098 h 23.4282 v -4.01098 h -0.3629 c -6.1543,-0.23254 -6.9777,-0.78507 -6.9777,-4.91138 v -20.6688 c 0,-9.91209 4.5541,-17.29593 10.6108,-17.29593 5.283,0 7.9966,4.59327 7.9966,13.63285 v 24.88254 c -0.097,1.45482 -0.1939,2.2399 -0.6544,2.79057 -0.5583,1.01762 -2.4236,1.45481 -6.4212,1.57015 h -0.3627 v 4.01098 h 23.5258 v -4.01098 h -0.3644 c -6.1528,-0.23254 -6.9777,-0.78507 -6.9777,-4.79604 v -19.76652 c 0,-11.16226 4.1912,-18.31355 10.6851,-18.31355 5.3063,0 7.9221,4.79605 7.9221,14.85512 v 23.54493 c -0.096,1.57016 -0.1938,2.35524 -0.6543,2.90591 -0.5566,1.01762 -2.4221,1.45481 -6.4195,1.57015 h -0.3644 v 4.01098 h 23.5258 v -4.01098 h -0.3629 c -6.1543,-0.23254 -6.9777,-0.78507 -6.9777,-4.91138 v -25.34765 c 0,-6.91874 -0.5566,-9.27398 -2.9802,-13.05241 -2.7136,-4.12817 -6.5173,-6.36621 -10.9753,-6.36621 -6.0566,0 -10.5146,3.45845 -14.5121,11.16227 -1.6002,-6.6862 -6.6149,-11.16227 -12.8421,-11.16227 -5.6691,0 -9.7642,3.2259 -13.3973,10.26184 v -8.57634"
     id="path272"
     style="stroke-width:1.69844" />
  <path
     class="StaffText"
     d="m 321.66319,2093.2896 h 31.27887 c 8.26165,0 14.58503,-1.5813 19.52837,-4.9114 9.39979,-6.3625 14.60983,-19.1061 14.60983,-35.8495 0,-15.3667 -4.65182,-27.4406 -13.20498,-34.1565 -5.13561,-3.8882 -12.01722,-5.6555 -22.62958,-5.6555 h -29.58251 v 5.2276 h 1.76925 c 5.20849,0.1117 6.97774,0.4279 7.72823,1.5627 0.55822,0.986 0.55822,1.2279 0.55822,6.9206 v 53.1324 c 0,5.7114 0,5.916 -0.55822,6.9206 -0.75049,1.1162 -2.51974,1.4511 -7.72823,1.5814 h -1.76925 v 5.2276 m 25.77887,-5.2276 c -4.74796,0 -5.30619,-0.7071 -5.30619,-6.1765 v -57.6903 c 0,-5.4696 0.65437,-6.2509 5.30619,-6.2509 h 4.84565 c 15.89373,0 22.50863,10.3809 22.50863,35.0495 0,25.0034 -5.96054,35.0682 -21.0309,35.0682 h -6.32338 m 62.60582,-46.7699 -16.57136,1.2092 v 4.7997 h 3.82846 c 3.53694,0.1117 3.99746,0.7814 3.99746,5.5812 v 31.924 c -0.0977,1.6744 -0.19382,2.3441 -0.55822,2.9022 -0.65435,1.0232 -2.42205,1.4512 -6.41952,1.5628 h -0.36439 v 4.0184 h 23.4297 v -4.0184 h -0.3644 c -6.15281,-0.2233 -6.97773,-0.7814 -6.97773,-4.9115 v -20.6687 c 0,-9.9158 4.55568,-17.2829 10.61236,-17.2829 5.28137,0 7.99494,4.5765 7.99494,13.6179 v 24.8919 c -0.0962,1.4511 -0.19383,2.2324 -0.65436,2.7905 -0.55667,1.0232 -2.42205,1.4512 -6.41952,1.5628 h -0.36439 v 4.0184 h 23.52583 v -4.0184 h -0.36284 c -6.15437,-0.2233 -6.97774,-0.7814 -6.97774,-4.7998 v -19.7572 c 0,-11.1623 4.19129,-18.3061 10.68525,-18.3061 5.30462,0 7.92205,4.7811 7.92205,14.8457 v 23.5524 c -0.0977,1.5628 -0.19382,2.3441 -0.65435,2.9022 -0.55668,1.0232 -2.42206,1.4512 -6.42108,1.5628 h -0.36284 v 4.0184 h 23.52583 v -4.0184 h -0.36284 c -6.15437,-0.2233 -6.97774,-0.7814 -6.97774,-4.9115 v -25.3383 c 0,-6.9205 -0.55822,-9.2833 -2.98027,-13.0598 -2.71356,-4.1301 -6.5172,-6.3625 -10.97521,-6.3625 -6.05822,0 -10.51622,3.4603 -14.51369,11.1623 -1.59868,-6.6788 -6.61334,-11.1623 -12.84059,-11.1623 -5.66902,0 -9.76418,3.2185 -13.3988,10.2506 v -8.5576"
     id="path274"
     style="stroke-width:1.69844" />
  <path
     class="StaffText"
     d="m 1488.4573,2011.1353 h -3.892 l -21.3984,65.0947 c -2.512,8.6879 -4.9155,11.3668 -10.2185,11.832 h -0.3877 v 5.2276 h 24.6547 v -5.2276 h -1.8607 c -5.0085,0 -7.536,-2.1209 -7.536,-6.3812 0,-1.451 0.2946,-2.7906 0.8528,-4.7068 l 3.0548,-9.8227 h 24.6546 l 5.024,14.976 c 0.5583,1.7674 0.7443,2.4371 0.7443,3.0139 0,1.7859 -2.3259,2.9208 -5.7683,2.9208 h -3.892 v 5.2276 h 28.8258 v -5.2276 h -1.3025 c -4.8534,-0.1303 -5.6752,-0.8 -7.7996,-7.1625 l -23.7553,-69.7642 m -4.5433,18.3247 10.5132,31.6823 h -20.8402 l 10.327,-31.6823 m 55.2637,11.8321 -16.5759,1.2092 v 4.7997 h 3.8299 c 3.5355,0.1117 4.0006,0.7814 4.0006,5.5812 v 31.924 c -0.1085,1.6744 -0.2016,2.3441 -0.5582,2.9022 -0.6513,1.0232 -2.4345,1.4512 -6.4195,1.5628 h -0.3722 v 4.0184 h 23.4297 v -4.0184 h -0.3566 c -6.156,-0.2233 -6.9778,-0.7814 -6.9778,-4.9115 v -20.6687 c 0,-9.9158 4.5433,-17.2829 10.6062,-17.2829 5.2875,0 8.0011,4.5765 8.0011,13.6179 v 24.8919 c -0.1085,1.4511 -0.2015,2.2324 -0.6512,2.7905 -0.5582,1.0232 -2.4345,1.4512 -6.4351,1.5628 h -0.3566 v 4.0184 h 23.5228 v -4.0184 h -0.3566 c -6.156,-0.2233 -6.9779,-0.7814 -6.9779,-4.7998 v -19.7572 c 0,-11.1623 4.1867,-18.3061 10.6838,-18.3061 5.303,0 7.9236,4.7811 7.9236,14.8457 v 23.5524 c -0.093,1.5628 -0.2016,2.3441 -0.6513,2.9022 -0.5582,1.0232 -2.4345,1.4512 -6.4195,1.5628 h -0.3722 v 4.0184 h 23.5227 v -4.0184 h -0.3566 c -6.1559,-0.2233 -6.9777,-0.7814 -6.9777,-4.9115 v -25.3383 c 0,-6.9205 -0.5582,-9.2833 -2.9772,-13.0598 -2.7135,-4.1301 -6.5281,-6.3625 -10.9783,-6.3625 -6.0628,0 -10.5131,3.4603 -14.5136,11.1623 -1.5972,-6.6788 -6.6212,-11.1623 -12.8391,-11.1623 -5.6753,0 -9.7688,3.2185 -13.3973,10.2506 v -8.5576"
     id="path276"
     style="stroke-width:1.69844" />
  <metadata
     id="metadata407">
    <rdf:RDF>
      <cc:Work
         rdf:about="">
        <dc:title>bella_ciao</dc:title>
      </cc:Work>
    </rdf:RDF>
  </metadata>
</svg>
