<?xml version="1.0" encoding="UTF-8" standalone="no"?>
<svg width="2977.2px" height="4208.4px" viewBox="0 0 2977.2 4208.4"
 xmlns="http://www.w3.org/2000/svg" xmlns:xlink="http://www.w3.org/1999/xlink" version="1.2" baseProfile="tiny">
<title>il_court_il_court_le_furet</title>
<desc>Generated by MuseScore Studio 4.3.2</desc>
<polyline class="StaffLines" fill="none" stroke="#000000" stroke-width="2.73" stroke-linejoin="bevel" points="336.599,634.199 2764.6,634.199"/>
<polyline class="StaffLines" fill="none" stroke="#000000" stroke-width="2.73" stroke-linejoin="bevel" points="336.599,658.999 2764.6,658.999"/>
<polyline class="StaffLines" fill="none" stroke="#000000" stroke-width="2.73" stroke-linejoin="bevel" points="336.599,683.799 2764.6,683.799"/>
<polyline class="StaffLines" fill="none" stroke="#000000" stroke-width="2.73" stroke-linejoin="bevel" points="336.599,708.599 2764.6,708.599"/>
<polyline class="StaffLines" fill="none" stroke="#000000" stroke-width="2.73" stroke-linejoin="bevel" points="336.599,733.399 2764.6,733.399"/>
<polyline class="StaffLines" fill="none" stroke="#000000" stroke-width="2.73" stroke-linejoin="bevel" points="212.598,1316.2 2764.6,1316.2"/>
<polyline class="StaffLines" fill="none" stroke="#000000" stroke-width="2.73" stroke-linejoin="bevel" points="212.598,1341 2764.6,1341"/>
<polyline class="StaffLines" fill="none" stroke="#000000" stroke-width="2.73" stroke-linejoin="bevel" points="212.598,1365.8 2764.6,1365.8"/>
<polyline class="StaffLines" fill="none" stroke="#000000" stroke-width="2.73" stroke-linejoin="bevel" points="212.598,1390.6 2764.6,1390.6"/>
<polyline class="StaffLines" fill="none" stroke="#000000" stroke-width="2.73" stroke-linejoin="bevel" points="212.598,1415.4 2764.6,1415.4"/>
<path class="Text" d="M874.286,220.348 L876.473,220.348 C882.755,220.458 884.833,220.786 885.723,221.895 C886.38,222.88 886.38,223.208 886.38,228.708 L886.38,281.067 C886.38,286.567 886.38,286.895 885.723,287.895 C884.833,288.989 882.755,289.426 876.473,289.426 L874.286,289.426 L874.286,294.598 L910.692,294.598 L910.692,289.426 L908.489,289.426 C902.333,289.426 900.239,289.098 899.364,287.895 C898.692,286.895 898.692,286.676 898.692,281.067 L898.692,228.708 C898.692,223.098 898.692,222.88 899.364,221.895 C900.239,220.786 902.223,220.458 908.489,220.348 L910.692,220.348 L910.692,215.176 L874.286,215.176 L874.286,220.348 M937.536,213.52 L917.192,214.739 L917.192,219.473 L922.583,219.473 C926.645,219.583 927.192,220.239 927.192,224.973 L927.192,286.239 C927.083,287.895 926.973,288.551 926.536,289.098 C925.77,290.083 923.676,290.536 918.942,290.645 L918.176,290.645 L918.176,294.598 L946.661,294.598 L946.661,290.645 L945.895,290.645 C938.536,290.411 937.536,289.864 937.536,285.911 L937.536,213.52 M1023.66,278.426 C1020.15,286.348 1016.41,289.536 1010.69,289.536 C1001.9,289.536 996.395,281.505 996.395,268.645 C996.395,255.223 1001.79,246.411 1009.91,246.411 C1013.22,246.411 1016.08,247.958 1016.08,249.723 C1016.08,250.051 1015.97,250.38 1015.41,251.036 C1013.66,253.13 1013.22,254.223 1013.22,256.098 C1013.22,259.723 1015.97,262.255 1019.82,262.255 C1023.79,262.255 1026.54,259.176 1026.54,254.786 C1026.54,247.301 1019.16,241.692 1009.36,241.692 C995.067,241.692 984.833,253.348 984.833,269.848 C984.833,285.473 994.192,296.255 1007.83,296.255 C1017.61,296.255 1023.22,291.739 1027.96,280.083 L1023.66,278.426 M1057.82,241.692 C1044.29,241.692 1033.83,253.676 1033.83,269.083 C1033.83,284.145 1044.4,296.255 1057.6,296.255 C1070.8,296.255 1081.36,284.145 1081.36,268.973 C1081.36,253.895 1070.8,241.692 1057.82,241.692 M1057.82,246.411 C1065.52,246.411 1069.8,254.442 1069.8,268.973 C1069.8,283.598 1065.52,291.52 1057.6,291.52 C1049.68,291.52 1045.4,283.598 1045.4,269.083 C1045.4,254.114 1049.57,246.411 1057.82,246.411 M1130.41,295.364 L1150.44,294.598 L1150.44,289.864 L1147.69,289.864 C1141.3,289.645 1140.75,288.989 1140.75,281.833 L1140.75,243.333 L1120.08,244.551 L1120.08,249.286 L1125.69,249.286 C1129.86,249.395 1130.41,250.051 1130.41,254.786 L1130.41,268.301 C1130.41,277.88 1128.11,289.536 1116,289.536 C1112.6,289.536 1109.74,288.333 1108.3,286.13 C1106.88,284.036 1106.66,282.942 1106.66,276.895 L1106.66,243.333 L1087.41,244.551 L1087.41,249.286 L1091.58,249.286 C1095.77,249.395 1096.32,250.051 1096.32,254.786 L1096.32,278.536 C1096.32,284.145 1096.75,286.676 1098.41,289.208 C1101.38,293.723 1106.66,296.255 1113.25,296.255 C1120.52,296.255 1125.58,293.286 1130.41,286.239 L1130.41,295.364 M1173.88,243.333 L1154.41,244.551 L1154.41,249.286 L1158.91,249.286 C1163.1,249.395 1163.65,250.051 1163.65,254.786 L1163.65,286.239 C1163.54,287.895 1163.43,288.551 1162.99,289.098 C1162.22,290.083 1160.02,290.536 1155.29,290.645 L1154.85,290.645 L1154.85,294.598 L1184.22,294.598 L1184.22,290.645 L1182.24,290.645 C1174.86,290.411 1173.88,289.864 1173.88,285.911 L1173.88,279.973 C1173.99,261.489 1180.58,247.411 1189.16,246.973 C1187.63,248.723 1187.19,249.833 1187.19,251.911 C1187.19,255.442 1189.72,257.973 1193.24,257.973 C1197.3,257.973 1199.94,255.005 1199.94,250.598 C1199.94,245.208 1196.21,241.692 1190.38,241.692 C1183.44,241.692 1177.5,247.192 1173.88,256.973 L1173.88,243.333 M1224.44,243.333 L1224.44,221.551 L1219.93,221.551 C1218.83,235.864 1213.99,243.114 1205.08,243.786 L1205.08,248.067 L1214.1,248.067 L1214.1,276.114 C1214.1,283.817 1214.32,286.567 1215.41,289.098 C1217.18,293.723 1221.58,296.255 1227.96,296.255 C1237.86,296.255 1244.24,288.77 1244.24,277.114 C1244.24,276.442 1244.24,275.676 1244.13,274.583 L1239.5,274.583 C1239.18,284.473 1236.32,289.536 1230.93,289.536 C1228.4,289.536 1226.19,288.223 1225.43,286.348 C1224.77,284.801 1224.44,282.051 1224.44,278.098 L1224.44,248.067 L1240.61,248.067 L1240.61,243.333 L1224.44,243.333 M1256.66,314.833 C1266.57,308.02 1271.08,301.301 1271.08,293.614 C1271.08,287.005 1267.44,282.723 1262.05,282.723 C1257.99,282.723 1254.91,285.583 1254.91,289.317 C1254.91,293.286 1257.88,295.801 1262.5,295.801 C1263.05,295.801 1263.82,295.801 1264.15,295.692 L1264.47,295.692 C1265.04,295.692 1265.25,296.036 1265.25,296.692 C1265.25,301.301 1261.5,306.473 1254.15,311.645 L1256.66,314.833 M1326.58,215.942 C1323.07,215.942 1320.21,218.801 1320.21,222.333 C1320.21,225.848 1323.07,228.708 1326.47,228.708 C1330.11,228.708 1332.97,225.848 1332.97,222.333 C1332.97,218.801 1330.11,215.942 1326.58,215.942 M1331.75,243.333 L1311.08,244.551 L1311.08,249.286 L1316.69,249.286 C1320.86,249.395 1321.41,250.051 1321.41,254.786 L1321.41,286.239 C1321.3,287.895 1321.19,288.551 1320.75,289.098 C1319.99,290.083 1317.9,290.536 1313.16,290.645 L1312.4,290.645 L1312.4,294.598 L1340.9,294.598 L1340.9,290.645 L1340.11,290.645 C1332.75,290.411 1331.75,289.864 1331.75,285.911 L1331.75,243.333 M1366.54,213.52 L1346.19,214.739 L1346.19,219.473 L1351.58,219.473 C1355.65,219.583 1356.19,220.239 1356.19,224.973 L1356.19,286.239 C1356.08,287.895 1355.97,288.551 1355.54,289.098 C1354.77,290.083 1352.68,290.536 1347.94,290.645 L1347.18,290.645 L1347.18,294.598 L1375.66,294.598 L1375.66,290.645 L1374.9,290.645 C1367.54,290.411 1366.54,289.864 1366.54,285.911 L1366.54,213.52 M1452.66,278.426 C1449.15,286.348 1445.41,289.536 1439.69,289.536 C1430.9,289.536 1425.4,281.505 1425.4,268.645 C1425.4,255.223 1430.79,246.411 1438.91,246.411 C1442.22,246.411 1445.08,247.958 1445.08,249.723 C1445.08,250.051 1444.97,250.38 1444.41,251.036 C1442.66,253.13 1442.22,254.223 1442.22,256.098 C1442.22,259.723 1444.97,262.255 1448.82,262.255 C1452.79,262.255 1455.54,259.176 1455.54,254.786 C1455.54,247.301 1448.16,241.692 1438.36,241.692 C1424.07,241.692 1413.83,253.348 1413.83,269.848 C1413.83,285.473 1423.19,296.255 1436.83,296.255 C1446.61,296.255 1452.22,291.739 1456.96,280.083 L1452.66,278.426 M1486.82,241.692 C1473.29,241.692 1462.83,253.676 1462.83,269.083 C1462.83,284.145 1473.4,296.255 1486.6,296.255 C1499.8,296.255 1510.36,284.145 1510.36,268.973 C1510.36,253.895 1499.8,241.692 1486.82,241.692 M1486.82,246.411 C1494.52,246.411 1498.8,254.442 1498.8,268.973 C1498.8,283.598 1494.52,291.52 1486.6,291.52 C1478.68,291.52 1474.4,283.598 1474.4,269.083 C1474.4,254.114 1478.57,246.411 1486.82,246.411 M1559.41,295.364 L1579.44,294.598 L1579.44,289.864 L1576.69,289.864 C1570.3,289.645 1569.75,288.989 1569.75,281.833 L1569.75,243.333 L1549.08,244.551 L1549.08,249.286 L1554.69,249.286 C1558.86,249.395 1559.41,250.051 1559.41,254.786 L1559.41,268.301 C1559.41,277.88 1557.11,289.536 1545,289.536 C1541.6,289.536 1538.74,288.333 1537.3,286.13 C1535.88,284.036 1535.66,282.942 1535.66,276.895 L1535.66,243.333 L1516.41,244.551 L1516.41,249.286 L1520.58,249.286 C1524.77,249.395 1525.32,250.051 1525.32,254.786 L1525.32,278.536 C1525.32,284.145 1525.75,286.676 1527.41,289.208 C1530.38,293.723 1535.66,296.255 1542.25,296.255 C1549.52,296.255 1554.58,293.286 1559.41,286.239 L1559.41,295.364 M1602.88,243.333 L1583.41,244.551 L1583.41,249.286 L1587.91,249.286 C1592.1,249.395 1592.65,250.051 1592.65,254.786 L1592.65,286.239 C1592.54,287.895 1592.43,288.551 1591.99,289.098 C1591.22,290.083 1589.02,290.536 1584.29,290.645 L1583.85,290.645 L1583.85,294.598 L1613.22,294.598 L1613.22,290.645 L1611.24,290.645 C1603.86,290.411 1602.88,289.864 1602.88,285.911 L1602.88,279.973 C1602.99,261.489 1609.58,247.411 1618.16,246.973 C1616.63,248.723 1616.19,249.833 1616.19,251.911 C1616.19,255.442 1618.72,257.973 1622.24,257.973 C1626.3,257.973 1628.94,255.005 1628.94,250.598 C1628.94,245.208 1625.21,241.692 1619.38,241.692 C1612.44,241.692 1606.5,247.192 1602.88,256.973 L1602.88,243.333 M1653.44,243.333 L1653.44,221.551 L1648.93,221.551 C1647.83,235.864 1642.99,243.114 1634.08,243.786 L1634.08,248.067 L1643.1,248.067 L1643.1,276.114 C1643.1,283.817 1643.32,286.567 1644.41,289.098 C1646.18,293.723 1650.58,296.255 1656.96,296.255 C1666.86,296.255 1673.24,288.77 1673.24,277.114 C1673.24,276.442 1673.24,275.676 1673.13,274.583 L1668.5,274.583 C1668.18,284.473 1665.32,289.536 1659.93,289.536 C1657.4,289.536 1655.19,288.223 1654.43,286.348 C1653.77,284.801 1653.44,282.051 1653.44,278.098 L1653.44,248.067 L1669.61,248.067 L1669.61,243.333 L1653.44,243.333 M1685.66,314.833 C1695.57,308.02 1700.08,301.301 1700.08,293.614 C1700.08,287.005 1696.44,282.723 1691.05,282.723 C1686.99,282.723 1683.91,285.583 1683.91,289.317 C1683.91,293.286 1686.88,295.801 1691.5,295.801 C1692.05,295.801 1692.82,295.801 1693.15,295.692 L1693.47,295.692 C1694.04,295.692 1694.25,296.036 1694.25,296.692 C1694.25,301.301 1690.5,306.473 1683.15,311.645 L1685.66,314.833 M1760.54,213.52 L1740.19,214.739 L1740.19,219.473 L1745.58,219.473 C1749.65,219.583 1750.19,220.239 1750.19,224.973 L1750.19,286.239 C1750.08,287.895 1749.97,288.551 1749.54,289.098 C1748.77,290.083 1746.68,290.536 1741.94,290.645 L1741.18,290.645 L1741.18,294.598 L1769.66,294.598 L1769.66,290.645 L1768.9,290.645 C1761.54,290.411 1760.54,289.864 1760.54,285.911 L1760.54,213.52 M1824.25,269.848 C1824.36,253.348 1815,241.692 1801.58,241.692 C1787.5,241.692 1776.94,253.895 1776.94,270.395 C1776.94,285.911 1786.96,296.255 1801.8,296.255 C1812.36,296.255 1819.74,291.083 1824.25,280.63 L1820.4,278.536 C1815.9,287.005 1811.27,290.301 1803.9,290.301 C1798.29,290.301 1794.22,288.005 1791.36,283.051 C1789.38,279.755 1788.5,275.895 1788.61,269.848 L1824.25,269.848 M1788.72,265.114 C1788.72,257.411 1792.24,246.411 1801.47,246.411 C1808.08,246.411 1812.47,252.255 1812.47,261.161 C1812.47,264.239 1811.49,265.114 1807.97,265.114 L1788.72,265.114 M1881.21,243.333 L1881.21,237.067 C1881.21,231.567 1881.54,227.942 1882.41,225.739 C1884.18,220.895 1888.04,217.926 1892.43,217.926 C1894.74,217.926 1896.16,218.583 1896.16,219.801 C1896.16,220.239 1896.16,220.348 1895.5,221.223 C1894.85,222.223 1894.52,223.536 1894.52,224.755 C1894.52,228.051 1897.16,230.583 1900.57,230.583 C1904.19,230.583 1906.72,227.833 1906.72,223.864 C1906.72,217.489 1901.22,213.52 1892.32,213.52 C1884.72,213.52 1879.11,216.161 1875.27,221.661 C1871.97,226.286 1870.86,231.02 1870.86,239.926 L1870.86,243.333 L1861.19,243.333 L1861.19,248.067 L1870.86,248.067 L1870.86,286.239 C1870.75,287.786 1870.65,288.442 1870.21,289.098 C1869.44,290.083 1867.35,290.536 1862.61,290.645 L1862.18,290.645 L1862.18,294.598 L1891.55,294.598 L1891.55,290.645 L1889.57,290.645 C1882.19,290.411 1881.21,289.864 1881.21,285.911 L1881.21,248.067 L1893.3,248.067 L1893.3,243.333 L1881.21,243.333 M1942.41,295.364 L1962.44,294.598 L1962.44,289.864 L1959.69,289.864 C1953.3,289.645 1952.75,288.989 1952.75,281.833 L1952.75,243.333 L1932.08,244.551 L1932.08,249.286 L1937.69,249.286 C1941.86,249.395 1942.41,250.051 1942.41,254.786 L1942.41,268.301 C1942.41,277.88 1940.11,289.536 1928,289.536 C1924.6,289.536 1921.74,288.333 1920.3,286.13 C1918.88,284.036 1918.66,282.942 1918.66,276.895 L1918.66,243.333 L1899.41,244.551 L1899.41,249.286 L1903.58,249.286 C1907.77,249.395 1908.32,250.051 1908.32,254.786 L1908.32,278.536 C1908.32,284.145 1908.75,286.676 1910.41,289.208 C1913.38,293.723 1918.66,296.255 1925.25,296.255 C1932.52,296.255 1937.58,293.286 1942.41,286.239 L1942.41,295.364 M1985.88,243.333 L1966.41,244.551 L1966.41,249.286 L1970.91,249.286 C1975.1,249.395 1975.65,250.051 1975.65,254.786 L1975.65,286.239 C1975.54,287.895 1975.43,288.551 1974.99,289.098 C1974.22,290.083 1972.02,290.536 1967.29,290.645 L1966.85,290.645 L1966.85,294.598 L1996.22,294.598 L1996.22,290.645 L1994.24,290.645 C1986.86,290.411 1985.88,289.864 1985.88,285.911 L1985.88,279.973 C1985.99,261.489 1992.58,247.411 2001.16,246.973 C1999.63,248.723 1999.19,249.833 1999.19,251.911 C1999.19,255.442 2001.72,257.973 2005.24,257.973 C2009.3,257.973 2011.94,255.005 2011.94,250.598 C2011.94,245.208 2008.21,241.692 2002.38,241.692 C1995.44,241.692 1989.5,247.192 1985.88,256.973 L1985.88,243.333 M2063.25,269.848 C2063.36,253.348 2054,241.692 2040.58,241.692 C2026.5,241.692 2015.94,253.895 2015.94,270.395 C2015.94,285.911 2025.96,296.255 2040.8,296.255 C2051.36,296.255 2058.74,291.083 2063.25,280.63 L2059.4,278.536 C2054.9,287.005 2050.27,290.301 2042.9,290.301 C2037.29,290.301 2033.22,288.005 2030.36,283.051 C2028.38,279.755 2027.5,275.895 2027.61,269.848 L2063.25,269.848 M2027.72,265.114 C2027.72,257.411 2031.24,246.411 2040.47,246.411 C2047.08,246.411 2051.47,252.255 2051.47,261.161 C2051.47,264.239 2050.49,265.114 2046.97,265.114 L2027.72,265.114 M2086.44,243.333 L2086.44,221.551 L2081.93,221.551 C2080.83,235.864 2075.99,243.114 2067.08,243.786 L2067.08,248.067 L2076.1,248.067 L2076.1,276.114 C2076.1,283.817 2076.32,286.567 2077.41,289.098 C2079.18,293.723 2083.58,296.255 2089.96,296.255 C2099.86,296.255 2106.24,288.77 2106.24,277.114 C2106.24,276.442 2106.24,275.676 2106.13,274.583 L2101.5,274.583 C2101.18,284.473 2098.32,289.536 2092.93,289.536 C2090.4,289.536 2088.19,288.223 2087.43,286.348 C2086.77,284.801 2086.44,282.051 2086.44,278.098 L2086.44,248.067 L2102.61,248.067 L2102.61,243.333 L2086.44,243.333 "/>
<path class="MeasureNumber" d="M217.083,1251.29 C215.833,1252.04 215.473,1252.52 215.473,1253.32 C215.473,1254.08 216.114,1254.65 216.911,1254.65 C217.958,1254.65 218.551,1253.88 218.676,1252.4 C219.911,1251.4 221.239,1250.96 222.833,1250.96 C225.801,1250.96 227.442,1252.8 227.442,1256.12 C227.442,1261.32 224.083,1265.55 219.958,1265.55 C217.598,1265.55 215.676,1264.44 215.676,1263.12 C215.676,1262.88 215.723,1262.8 215.911,1262.68 C217.192,1262.08 218.239,1261.65 218.239,1259.96 C218.239,1258.68 217.239,1257.72 215.833,1257.72 C214.083,1257.72 212.755,1259.19 212.755,1261.12 C212.755,1264.65 215.801,1267.19 220.083,1267.19 C226.551,1267.19 231.801,1262.04 231.801,1255.65 C231.801,1251.6 228.723,1248.76 224.364,1248.76 C222.63,1248.76 221.239,1249.12 219.317,1250.08 L221.551,1242.52 C223.676,1242.96 225.364,1243.16 226.801,1243.16 C229.442,1243.16 231.801,1242.32 233.114,1240.93 C233.801,1240.13 234.192,1239.44 234.192,1238.93 C234.192,1238.68 234.067,1238.44 233.911,1238.44 C233.801,1238.44 233.708,1238.49 233.473,1238.6 C232.161,1239.24 230.473,1239.6 228.911,1239.6 C226.52,1239.6 223.676,1239.21 220.723,1238.44 L217.083,1251.29 "/>
<polyline class="BarLine" fill="none" stroke="#000000" stroke-width="4.46" stroke-linejoin="bevel" points="924.9,632.835 924.9,734.763"/>
<polyline class="BarLine" fill="none" stroke="#000000" stroke-width="4.46" stroke-linejoin="bevel" points="2226.81,1314.84 2226.81,1416.76"/>
<polyline class="BarLine" fill="none" stroke="#000000" stroke-width="4.46" stroke-linejoin="bevel" points="2762.37,632.835 2762.37,734.763"/>
<polyline class="BarLine" fill="none" stroke="#000000" stroke-width="4.46" stroke-linejoin="bevel" points="1555.38,1314.84 1555.38,1416.76"/>
<polyline class="BarLine" fill="none" stroke="#000000" stroke-width="4.46" stroke-linejoin="bevel" points="1787.28,632.835 1787.28,734.763"/>
<polyline class="BarLine" fill="none" stroke="#000000" stroke-width="4.46" stroke-linejoin="bevel" points="963.296,1314.84 963.296,1416.76"/>
<polyline class="BarLine" fill="none" stroke="#000000" stroke-width="4.46" stroke-linejoin="bevel" points="1356.09,632.835 1356.09,734.763"/>
<polyline class="BarLine" fill="none" stroke="#000000" stroke-width="4.46" stroke-linejoin="bevel" points="2739.55,1314.84 2739.55,1416.76"/>
<polyline class="BarLine" fill="none" stroke="#000000" stroke-width="13.64" stroke-linejoin="bevel" points="2757.78,1314.84 2757.78,1416.76"/>
<polyline class="BarLine" fill="none" stroke="#000000" stroke-width="4.46" stroke-linejoin="bevel" points="2274.83,632.835 2274.83,734.763"/>
<polyline class="Stem" fill="none" stroke="#000000" stroke-width="2.48" stroke-linejoin="bevel" points="833.376,1374.23 833.376,1310"/>
<polyline class="Stem" fill="none" stroke="#000000" stroke-width="2.48" stroke-linejoin="bevel" points="1421.55,741.831 1421.55,658.999"/>
<polyline class="Stem" fill="none" stroke="#000000" stroke-width="2.48" stroke-linejoin="bevel" points="1028.76,1423.83 1028.76,1341"/>
<polyline class="Stem" fill="none" stroke="#000000" stroke-width="2.48" stroke-linejoin="bevel" points="1266.78,1386.63 1266.78,1316.25"/>
<polyline class="Stem" fill="none" stroke="#000000" stroke-width="2.48" stroke-linejoin="bevel" points="1590.62,704.631 1590.62,634.266"/>
<polyline class="Stem" fill="none" stroke="#000000" stroke-width="2.48" stroke-linejoin="bevel" points="615.529,741.831 615.529,659.197"/>
<polyline class="Stem" fill="none" stroke="#000000" stroke-width="2.48" stroke-linejoin="bevel" points="1425.46,1399.03 1425.46,1322.35"/>
<polyline class="Stem" fill="none" stroke="#000000" stroke-width="2.48" stroke-linejoin="bevel" points="1620.85,1411.43 1620.85,1341.05"/>
<polyline class="Stem" fill="none" stroke="#000000" stroke-width="2.48" stroke-linejoin="bevel" points="1779.53,1423.83 1779.53,1347.15"/>
<polyline class="Stem" fill="none" stroke="#000000" stroke-width="2.48" stroke-linejoin="bevel" points="728.239,704.631 728.239,609.265"/>
<polyline class="Stem" fill="none" stroke="#000000" stroke-width="2.48" stroke-linejoin="bevel" points="1703.33,717.031 1703.33,640.332"/>
<polyline class="Stem" fill="none" stroke="#000000" stroke-width="2.48" stroke-linejoin="bevel" points="1938.21,1411.43 1938.21,1340.95"/>
<polyline class="Stem" fill="none" stroke="#000000" stroke-width="2.48" stroke-linejoin="bevel" points="2096.89,1399.03 2096.89,1334.85"/>
<polyline class="Stem" fill="none" stroke="#000000" stroke-width="2.48" stroke-linejoin="bevel" points="1852.74,729.431 1852.74,659.066"/>
<polyline class="Stem" fill="none" stroke="#000000" stroke-width="2.48" stroke-linejoin="bevel" points="840.95,655.031 840.95,597.132"/>
<polyline class="Stem" fill="none" stroke="#000000" stroke-width="2.48" stroke-linejoin="bevel" points="2292.27,1386.63 2292.27,1303.8"/>
<polyline class="Stem" fill="none" stroke="#000000" stroke-width="2.48" stroke-linejoin="bevel" points="1965.45,741.831 1965.45,665.132"/>
<polyline class="Stem" fill="none" stroke="#000000" stroke-width="2.48" stroke-linejoin="bevel" points="2078.16,729.431 2078.16,658.932"/>
<polyline class="Stem" fill="none" stroke="#000000" stroke-width="2.48" stroke-linejoin="bevel" points="960.612,687.965 960.612,758.199"/>
<polyline class="Stem" fill="none" stroke="#000000" stroke-width="2.48" stroke-linejoin="bevel" points="2190.88,717.031 2190.88,652.866"/>
<polyline class="Stem" fill="none" stroke="#000000" stroke-width="2.48" stroke-linejoin="bevel" points="2340.29,704.631 2340.29,634.266"/>
<polyline class="Stem" fill="none" stroke="#000000" stroke-width="2.48" stroke-linejoin="bevel" points="2453,741.831 2453,640.332"/>
<polyline class="Stem" fill="none" stroke="#000000" stroke-width="2.48" stroke-linejoin="bevel" points="1159.43,692.231 1159.43,627.999"/>
<polyline class="Stem" fill="none" stroke="#000000" stroke-width="2.48" stroke-linejoin="bevel" points="2565.71,704.631 2565.71,634.132"/>
<polyline class="Stem" fill="none" stroke="#000000" stroke-width="2.48" stroke-linejoin="bevel" points="2678.42,692.231 2678.42,628.066"/>
<polyline class="Stem" fill="none" stroke="#000000" stroke-width="2.48" stroke-linejoin="bevel" points="406.922,1369.97 406.922,1440.2"/>
<polyline class="Stem" fill="none" stroke="#000000" stroke-width="2.48" stroke-linejoin="bevel" points="1272.14,692.231 1272.14,627.999"/>
<polyline class="Stem" fill="none" stroke="#000000" stroke-width="2.48" stroke-linejoin="bevel" points="674.695,1374.23 674.695,1310"/>
<path class="Hook" transform="matrix(0.992001,0,0,0.992001,614.289,658.999)" d="M0,22.7031 C0,23 0.09375,23.5938 0.796875,23.7969 C5.09375,25.2031 13.7031,30.6094 20.2031,41.7031 C22,44.7969 24.9063,49.1094 24.9063,57.4063 C24.9063,64.6094 23.0938,72 20.4063,79.2031 C20.2031,79.8125 20.0938,80.3125 20.0938,80.7031 C20.0938,81.4063 20.5,81.7031 21.2031,81.7031 C21.7969,81.7031 22.2969,81.3125 22.7031,80.6094 C27.2031,72.6094 28.9063,63.2969 28.9063,54.2031 C28.4063,41.2969 21,31.7969 21,31.7969 C21.2969,31.7969 11.7969,19.5 9.09375,15.2969 C5.40625,9.59375 3.70313,3.90625 3.5,3.5 C3.40625,3.20313 2.5,-0.40625 2.5,-0.40625 C2.40625,-0.796875 1.90625,-1.20313 1.29688,-1.20313 C0.59375,-1.20313 0,-0.59375 0,0.09375 L0,22.7031 "/>
<path class="Note" transform="matrix(0.992001,0,0,0.992001,584.537,745.799)" d="M0,4.20313 C0,8.5 3.09375,13.2969 11.2031,13.2969 C21.5938,13.2969 32.5,4.79688 32.5,-4 C32.5,-9.90625 27.5,-13.2031 21.2969,-13.2031 C11.5938,-13.2031 0,-5 0,4.20313"/>
<path class="Note" transform="matrix(0.992001,0,0,0.992001,1394.47,1403)" d="M0,4.20313 C0,8.5 3.09375,13.2969 11.2031,13.2969 C21.5938,13.2969 32.5,4.79688 32.5,-4 C32.5,-9.90625 27.5,-13.2031 21.2969,-13.2031 C11.5938,-13.2031 0,-5 0,4.20313"/>
<path class="Note" transform="matrix(0.992001,0,0,0.992001,2047.17,733.399)" d="M0,4.20313 C0,8.5 3.09375,13.2969 11.2031,13.2969 C21.5938,13.2969 32.5,4.79688 32.5,-4 C32.5,-9.90625 27.5,-13.2031 21.2969,-13.2031 C11.5938,-13.2031 0,-5 0,4.20313"/>
<path class="Note" transform="matrix(0.992001,0,0,0.992001,1589.85,1415.4)" d="M0,4.20313 C0,8.5 3.09375,13.2969 11.2031,13.2969 C21.5938,13.2969 32.5,4.79688 32.5,-4 C32.5,-9.90625 27.5,-13.2031 21.2969,-13.2031 C11.5938,-13.2031 0,-5 0,4.20313"/>
<path class="Note" transform="matrix(0.992001,0,0,0.992001,1672.34,720.999)" d="M0,4.20313 C0,8.5 3.09375,13.2969 11.2031,13.2969 C21.5938,13.2969 32.5,4.79688 32.5,-4 C32.5,-9.90625 27.5,-13.2031 21.2969,-13.2031 C11.5938,-13.2031 0,-5 0,4.20313"/>
<path class="Note" transform="matrix(0.992001,0,0,0.992001,1559.63,708.599)" d="M0,4.20313 C0,8.5 3.09375,13.2969 11.2031,13.2969 C21.5938,13.2969 32.5,4.79688 32.5,-4 C32.5,-9.90625 27.5,-13.2031 21.2969,-13.2031 C11.5938,-13.2031 0,-5 0,4.20313"/>
<path class="Note" transform="matrix(0.992001,0,0,0.992001,405.682,1365.8)" d="M0,4.20313 C0,8.5 3.09375,13.2969 11.2031,13.2969 C21.5938,13.2969 32.5,4.79688 32.5,-4 C32.5,-9.90625 27.5,-13.2031 21.2969,-13.2031 C11.5938,-13.2031 0,-5 0,4.20313"/>
<path class="Note" transform="matrix(0.992001,0,0,0.992001,697.247,708.599)" d="M0,4.20313 C0,8.5 3.09375,13.2969 11.2031,13.2969 C21.5938,13.2969 32.5,4.79688 32.5,-4 C32.5,-9.90625 27.5,-13.2031 21.2969,-13.2031 C11.5938,-13.2031 0,-5 0,4.20313"/>
<path class="Note" transform="matrix(0.992001,0,0,0.992001,1748.53,1427.8)" d="M0,4.20313 C0,8.5 3.09375,13.2969 11.2031,13.2969 C21.5938,13.2969 32.5,4.79688 32.5,-4 C32.5,-9.90625 27.5,-13.2031 21.2969,-13.2031 C11.5938,-13.2031 0,-5 0,4.20313"/>
<path class="Note" transform="matrix(0.992001,0,0,0.992001,2647.43,696.199)" d="M0,4.20313 C0,8.5 3.09375,13.2969 11.2031,13.2969 C21.5938,13.2969 32.5,4.79688 32.5,-4 C32.5,-9.90625 27.5,-13.2031 21.2969,-13.2031 C11.5938,-13.2031 0,-5 0,4.20313"/>
<path class="Note" transform="matrix(0.992001,0,0,0.992001,1907.22,1415.4)" d="M0,4.20313 C0,8.5 3.09375,13.2969 11.2031,13.2969 C21.5938,13.2969 32.5,4.79688 32.5,-4 C32.5,-9.90625 27.5,-13.2031 21.2969,-13.2031 C11.5938,-13.2031 0,-5 0,4.20313"/>
<path class="Note" transform="matrix(0.992001,0,0,0.992001,809.957,658.999)" d="M0,4.20313 C0,8.5 3.09375,13.2969 11.2031,13.2969 C21.5938,13.2969 32.5,4.79688 32.5,-4 C32.5,-9.90625 27.5,-13.2031 21.2969,-13.2031 C11.5938,-13.2031 0,-5 0,4.20313"/>
<path class="Note" transform="matrix(0.992001,0,0,0.992001,643.703,1378.2)" d="M0,4.20313 C0,8.5 3.09375,13.2969 11.2031,13.2969 C21.5938,13.2969 32.5,4.79688 32.5,-4 C32.5,-9.90625 27.5,-13.2031 21.2969,-13.2031 C11.5938,-13.2031 0,-5 0,4.20313"/>
<path class="Note" transform="matrix(0.992001,0,0,0.992001,2534.72,708.599)" d="M0,4.20313 C0,8.5 3.09375,13.2969 11.2031,13.2969 C21.5938,13.2969 32.5,4.79688 32.5,-4 C32.5,-9.90625 27.5,-13.2031 21.2969,-13.2031 C11.5938,-13.2031 0,-5 0,4.20313"/>
<path class="Note" transform="matrix(0.992001,0,0,0.992001,959.372,683.799)" d="M0,4.20313 C0,8.5 3.09375,13.2969 11.2031,13.2969 C21.5938,13.2969 32.5,4.79688 32.5,-4 C32.5,-9.90625 27.5,-13.2031 21.2969,-13.2031 C11.5938,-13.2031 0,-5 0,4.20313"/>
<path class="Note" transform="matrix(0.992001,0,0,0.992001,2422.01,745.799)" d="M0,4.20313 C0,8.5 3.09375,13.2969 11.2031,13.2969 C21.5938,13.2969 32.5,4.79688 32.5,-4 C32.5,-9.90625 27.5,-13.2031 21.2969,-13.2031 C11.5938,-13.2031 0,-5 0,4.20313"/>
<path class="Note" transform="matrix(0.992001,0,0,0.992001,1821.75,733.399)" d="M0,4.20313 C0,8.5 3.09375,13.2969 11.2031,13.2969 C21.5938,13.2969 32.5,4.79688 32.5,-4 C32.5,-9.90625 27.5,-13.2031 21.2969,-13.2031 C11.5938,-13.2031 0,-5 0,4.20313"/>
<path class="Note" transform="matrix(0.992001,0,0,0.992001,1128.44,696.199)" d="M0,4.20313 C0,8.5 3.09375,13.2969 11.2031,13.2969 C21.5938,13.2969 32.5,4.79688 32.5,-4 C32.5,-9.90625 27.5,-13.2031 21.2969,-13.2031 C11.5938,-13.2031 0,-5 0,4.20313"/>
<path class="Note" transform="matrix(0.992001,0,0,0.992001,2065.9,1403)" d="M0,4.20313 C0,8.5 3.09375,13.2969 11.2031,13.2969 C21.5938,13.2969 32.5,4.79688 32.5,-4 C32.5,-9.90625 27.5,-13.2031 21.2969,-13.2031 C11.5938,-13.2031 0,-5 0,4.20313"/>
<path class="Note" transform="matrix(0.992001,0,0,0.992001,1934.46,745.799)" d="M0,4.20313 C0,8.5 3.09375,13.2969 11.2031,13.2969 C21.5938,13.2969 32.5,4.79688 32.5,-4 C32.5,-9.90625 27.5,-13.2031 21.2969,-13.2031 C11.5938,-13.2031 0,-5 0,4.20313"/>
<path class="Note" transform="matrix(0.992001,0,0,0.992001,1241.15,696.199)" d="M0,4.20313 C0,8.5 3.09375,13.2969 11.2031,13.2969 C21.5938,13.2969 32.5,4.79688 32.5,-4 C32.5,-9.90625 27.5,-13.2031 21.2969,-13.2031 C11.5938,-13.2031 0,-5 0,4.20313"/>
<path class="Note" transform="matrix(0.992001,0,0,0.992001,2261.28,1390.6)" d="M0,4.20313 C0,8.5 3.09375,13.2969 11.2031,13.2969 C21.5938,13.2969 32.5,4.79688 32.5,-4 C32.5,-9.90625 27.5,-13.2031 21.2969,-13.2031 C11.5938,-13.2031 0,-5 0,4.20313"/>
<path class="Note" transform="matrix(0.992001,0,0,0.992001,1390.56,745.799)" d="M0,4.20313 C0,8.5 3.09375,13.2969 11.2031,13.2969 C21.5938,13.2969 32.5,4.79688 32.5,-4 C32.5,-9.90625 27.5,-13.2031 21.2969,-13.2031 C11.5938,-13.2031 0,-5 0,4.20313"/>
<path class="Note" transform="matrix(0.992001,0,0,0.992001,2309.3,708.599)" d="M0,4.20313 C0,8.5 3.09375,13.2969 11.2031,13.2969 C21.5938,13.2969 32.5,4.79688 32.5,-4 C32.5,-9.90625 27.5,-13.2031 21.2969,-13.2031 C11.5938,-13.2031 0,-5 0,4.20313"/>
<path class="Note" transform="matrix(0.992001,0,0,0.992001,802.384,1378.2)" d="M0,4.20313 C0,8.5 3.09375,13.2969 11.2031,13.2969 C21.5938,13.2969 32.5,4.79688 32.5,-4 C32.5,-9.90625 27.5,-13.2031 21.2969,-13.2031 C11.5938,-13.2031 0,-5 0,4.20313"/>
<path class="Note" transform="matrix(0.992001,0,0,0.992001,2159.88,720.999)" d="M0,4.20313 C0,8.5 3.09375,13.2969 11.2031,13.2969 C21.5938,13.2969 32.5,4.79688 32.5,-4 C32.5,-9.90625 27.5,-13.2031 21.2969,-13.2031 C11.5938,-13.2031 0,-5 0,4.20313"/>
<path class="Note" transform="matrix(0.992001,0,0,0.992001,997.768,1427.8)" d="M0,4.20313 C0,8.5 3.09375,13.2969 11.2031,13.2969 C21.5938,13.2969 32.5,4.79688 32.5,-4 C32.5,-9.90625 27.5,-13.2031 21.2969,-13.2031 C11.5938,-13.2031 0,-5 0,4.20313"/>
<path class="Note" transform="matrix(0.992001,0,0,0.992001,1235.79,1390.6)" d="M0,4.20313 C0,8.5 3.09375,13.2969 11.2031,13.2969 C21.5938,13.2969 32.5,4.79688 32.5,-4 C32.5,-9.90625 27.5,-13.2031 21.2969,-13.2031 C11.5938,-13.2031 0,-5 0,4.20313"/>
<path class="Clef" transform="matrix(0.992001,0,0,0.992001,355.199,708.599)" d="M64,-0.296875 C64,-15.2969 53.2969,-25.5 38.7031,-25.5 C37.7031,-31.5 36.7969,-37.5 35.9063,-43 C46.4063,-54.1094 53.7969,-66.7031 53.7969,-82.5 C53.7969,-91.7031 51,-99 49.2969,-102.609 C46.9063,-107.703 44,-111.313 42.2969,-111.313 C41.6094,-111.313 38.4063,-110 35.2031,-106.109 C28.7031,-98.5 26.9063,-85.8125 26.9063,-77.4063 C26.9063,-72 27.4063,-67.1094 29.1094,-55.7969 C29,-55.7969 23.7969,-50.5 21.7031,-48.7031 C12.5938,-40.2969 0,-28.1094 0,-8.20313 C0,10.5938 16.2969,25.2969 34.9063,25.2969 C37.7969,25.2969 40.5,25 42.9063,24.5938 C44.7031,34.2031 45.9063,41.2031 45.9063,46.5 C45.9063,56.9063 40.5,62.4063 30.5,62.4063 C28,62.4063 25.9063,61.9063 25.7969,61.7969 C25.6094,61.7969 25.4063,61.7031 25.4063,61.6094 C25.4063,61.4063 25.6094,61.2969 25.9063,61.2031 C30.6094,60.5 35.2969,56.5 35.2969,50.1094 C35.2969,44.7031 31.2031,39 23.7031,39 C16.7969,39 12.2969,44.7031 12.2969,51.2969 C12.2969,57.9063 17.2969,66.6094 30.7969,66.6094 C43.7031,66.6094 50,59.2969 50,46.5 C50,42.6094 49.4063,38.1094 48.4063,32.4063 C48.1094,30.4063 47.6094,27.2969 46.9063,23.5 C56.7031,20.2031 64,10.0938 64,-0.296875 M33.2031,-82.2031 C34.2031,-86.2031 38.7031,-96.7031 43.9063,-96.7031 C45.4063,-96.7031 47.9063,-91.9063 47.9063,-84.9063 C47.9063,-74.6094 40.1094,-66.7969 33.2031,-59.9063 C32.6094,-63.9063 32.1094,-67.9063 32.1094,-72 C32.1094,-75.7969 32.5,-79.1094 33.2031,-82.2031 M36.2031,21.2031 C21.9063,21.2031 9.70313,11.2031 9.70313,-3.90625 C9.70313,-16.0938 18.4063,-27 27.1094,-34.7031 C28.7969,-36.1094 30.4063,-37.6094 31.9063,-39 C32.7969,-33.6094 33.6094,-29 34.2031,-24.7969 C25.0938,-22.2031 18.9063,-12.5 18.9063,-3.20313 C18.9063,3.90625 24.4063,13.5 32.4063,13.5 C33.2031,13.5 34.1094,13.0938 34.1094,12.0938 C34.1094,11.2969 33.2031,10.7031 31.9063,9.90625 C28,7.59375 25.7969,4.90625 25.7969,0.09375 C25.7969,-6 30.4063,-10.9063 36.2031,-12.2969 L42,20.5 C40,21 38.2031,21.2031 36.2031,21.2031 M46.2031,19.2969 C44.1094,7.40625 41.4063,-8.5 40.7031,-12.9063 C50.7969,-12.9063 55.1094,-5.90625 56,-1.09375 C56.1094,-0.296875 56.2969,0.796875 56.2969,2 C56.2969,9.20313 53.2969,16.5 46.2031,19.2969 M42.2969,71.7031 C42.2969,68 38.9063,66.4063 35.6094,66.4063 C31.4063,66.4063 27.2969,69 27.2969,73.5 C27.2969,75.4063 28,76.8125 29.5,78.2031 C26.9063,79.2031 24.2031,81.2031 24.2031,84.3125 C24.2031,87.6094 27.2031,89.8125 31.6094,89.8125 C37,89.8125 40.7969,86.8125 40.7969,82.5 C40.7969,80.2031 39.7969,78.3125 38,77 C40.9063,75.7031 42.2969,74.1094 42.2969,71.7031 M36.1094,75.7031 C34.6094,74.9063 34.2031,74.7031 33.9063,74.5 L33.7969,74.4063 C32.2031,73.5 31.7031,72.7969 31.7031,71.6094 C31.7031,69.7969 33.1094,68.5 35.1094,68.5 C37.1094,68.5 38.2031,69.7031 38.2031,71.7969 C38.2031,73.4063 37.6094,74.5 36.1094,75.7031 M32.2969,87.7031 C30.1094,87.7031 28.6094,86.3125 28.6094,84.2031 C28.6094,82.3125 29.5,80.6094 31.2031,79.6094 C31.6094,79.8125 31.7031,79.9063 32,80 C33.2031,80.6094 33.2031,80.6094 33.4063,80.8125 C35.4063,81.9063 36.1094,82.9063 36.1094,84.3125 C36.1094,86.2031 34.5,87.7031 32.2969,87.7031"/>
<path class="Clef" transform="matrix(0.992001,0,0,0.992001,231.198,1390.6)" d="M64,-0.296875 C64,-15.2969 53.2969,-25.5 38.7031,-25.5 C37.7031,-31.5 36.7969,-37.5 35.9063,-43 C46.4063,-54.1094 53.7969,-66.7031 53.7969,-82.5 C53.7969,-91.7031 51,-99 49.2969,-102.609 C46.9063,-107.703 44,-111.313 42.2969,-111.313 C41.6094,-111.313 38.4063,-110 35.2031,-106.109 C28.7031,-98.5 26.9063,-85.8125 26.9063,-77.4063 C26.9063,-72 27.4063,-67.1094 29.1094,-55.7969 C29,-55.7969 23.7969,-50.5 21.7031,-48.7031 C12.5938,-40.2969 0,-28.1094 0,-8.20313 C0,10.5938 16.2969,25.2969 34.9063,25.2969 C37.7969,25.2969 40.5,25 42.9063,24.5938 C44.7031,34.2031 45.9063,41.2031 45.9063,46.5 C45.9063,56.9063 40.5,62.4063 30.5,62.4063 C28,62.4063 25.9063,61.9063 25.7969,61.7969 C25.6094,61.7969 25.4063,61.7031 25.4063,61.6094 C25.4063,61.4063 25.6094,61.2969 25.9063,61.2031 C30.6094,60.5 35.2969,56.5 35.2969,50.1094 C35.2969,44.7031 31.2031,39 23.7031,39 C16.7969,39 12.2969,44.7031 12.2969,51.2969 C12.2969,57.9063 17.2969,66.6094 30.7969,66.6094 C43.7031,66.6094 50,59.2969 50,46.5 C50,42.6094 49.4063,38.1094 48.4063,32.4063 C48.1094,30.4063 47.6094,27.2969 46.9063,23.5 C56.7031,20.2031 64,10.0938 64,-0.296875 M33.2031,-82.2031 C34.2031,-86.2031 38.7031,-96.7031 43.9063,-96.7031 C45.4063,-96.7031 47.9063,-91.9063 47.9063,-84.9063 C47.9063,-74.6094 40.1094,-66.7969 33.2031,-59.9063 C32.6094,-63.9063 32.1094,-67.9063 32.1094,-72 C32.1094,-75.7969 32.5,-79.1094 33.2031,-82.2031 M36.2031,21.2031 C21.9063,21.2031 9.70313,11.2031 9.70313,-3.90625 C9.70313,-16.0938 18.4063,-27 27.1094,-34.7031 C28.7969,-36.1094 30.4063,-37.6094 31.9063,-39 C32.7969,-33.6094 33.6094,-29 34.2031,-24.7969 C25.0938,-22.2031 18.9063,-12.5 18.9063,-3.20313 C18.9063,3.90625 24.4063,13.5 32.4063,13.5 C33.2031,13.5 34.1094,13.0938 34.1094,12.0938 C34.1094,11.2969 33.2031,10.7031 31.9063,9.90625 C28,7.59375 25.7969,4.90625 25.7969,0.09375 C25.7969,-6 30.4063,-10.9063 36.2031,-12.2969 L42,20.5 C40,21 38.2031,21.2031 36.2031,21.2031 M46.2031,19.2969 C44.1094,7.40625 41.4063,-8.5 40.7031,-12.9063 C50.7969,-12.9063 55.1094,-5.90625 56,-1.09375 C56.1094,-0.296875 56.2969,0.796875 56.2969,2 C56.2969,9.20313 53.2969,16.5 46.2031,19.2969 M42.2969,71.7031 C42.2969,68 38.9063,66.4063 35.6094,66.4063 C31.4063,66.4063 27.2969,69 27.2969,73.5 C27.2969,75.4063 28,76.8125 29.5,78.2031 C26.9063,79.2031 24.2031,81.2031 24.2031,84.3125 C24.2031,87.6094 27.2031,89.8125 31.6094,89.8125 C37,89.8125 40.7969,86.8125 40.7969,82.5 C40.7969,80.2031 39.7969,78.3125 38,77 C40.9063,75.7031 42.2969,74.1094 42.2969,71.7031 M36.1094,75.7031 C34.6094,74.9063 34.2031,74.7031 33.9063,74.5 L33.7969,74.4063 C32.2031,73.5 31.7031,72.7969 31.7031,71.6094 C31.7031,69.7969 33.1094,68.5 35.1094,68.5 C37.1094,68.5 38.2031,69.7031 38.2031,71.7969 C38.2031,73.4063 37.6094,74.5 36.1094,75.7031 M32.2969,87.7031 C30.1094,87.7031 28.6094,86.3125 28.6094,84.2031 C28.6094,82.3125 29.5,80.6094 31.2031,79.6094 C31.6094,79.8125 31.7031,79.9063 32,80 C33.2031,80.6094 33.2031,80.6094 33.4063,80.8125 C35.4063,81.9063 36.1094,82.9063 36.1094,84.3125 C36.1094,86.2031 34.5,87.7031 32.2969,87.7031"/>
<path class="KeySig" transform="matrix(0.992001,0,0,0.992001,443.479,634.199)" d="M23.2969,-10.5 C23.9063,-10.5938 24.4063,-11.2969 24.4063,-11.9063 L24.4063,-17.7969 C24.4063,-18.7969 23.7031,-19.2031 22.7969,-19.2031 L19.5,-18.5 L19.5,-33.4063 L16.7031,-33.4063 L16.7031,-17.9063 L7.79688,-16.0938 L7.79688,-30.2031 L5,-30.2031 L5,-15.5 L1.09375,-14.7031 C0.5,-14.5938 0,-13.9063 0,-13.2969 L0,-7.5 C0,-6.40625 0.796875,-6.09375 1.70313,-6.09375 L5,-6.79688 L5,9.70313 L1.09375,10.5 C0.5,10.5938 0,11.2969 0,11.9063 L0,17.7031 C0,18.7969 0.796875,19.0938 1.70313,19.0938 L5,18.4063 L5,33.2969 L7.79688,33.2969 L7.79688,17.7969 L16.7031,16 L16.7031,30.1094 L19.5,30.1094 L19.5,15.4063 L23.2969,14.7031 C23.9063,14.5938 24.4063,13.9063 24.4063,13.2969 L24.4063,7.40625 C24.4063,6.40625 23.7031,6 22.7969,6 L19.5,6.70313 L19.5,-9.79688 L23.2969,-10.5 M7.79688,-7.40625 L16.7031,-9.20313 L16.7031,7.29688 L7.79688,9.20313 L7.79688,-7.40625 "/>
<path class="KeySig" transform="matrix(0.992001,0,0,0.992001,319.479,1316.2)" d="M23.2969,-10.5 C23.9063,-10.5938 24.4063,-11.2969 24.4063,-11.9063 L24.4063,-17.7969 C24.4063,-18.7969 23.7031,-19.2031 22.7969,-19.2031 L19.5,-18.5 L19.5,-33.4063 L16.7031,-33.4063 L16.7031,-17.9063 L7.79688,-16.0938 L7.79688,-30.2031 L5,-30.2031 L5,-15.5 L1.09375,-14.7031 C0.5,-14.5938 0,-13.9063 0,-13.2969 L0,-7.5 C0,-6.40625 0.796875,-6.09375 1.70313,-6.09375 L5,-6.79688 L5,9.70313 L1.09375,10.5 C0.5,10.5938 0,11.2969 0,11.9063 L0,17.7031 C0,18.7969 0.796875,19.0938 1.70313,19.0938 L5,18.4063 L5,33.2969 L7.79688,33.2969 L7.79688,17.7969 L16.7031,16 L16.7031,30.1094 L19.5,30.1094 L19.5,15.4063 L23.2969,14.7031 C23.9063,14.5938 24.4063,13.9063 24.4063,13.2969 L24.4063,7.40625 C24.4063,6.40625 23.7031,6 22.7969,6 L19.5,6.70313 L19.5,-9.79688 L23.2969,-10.5 M7.79688,-7.40625 L16.7031,-9.20313 L16.7031,7.29688 L7.79688,9.20313 L7.79688,-7.40625 "/>
<path class="TimeSig" transform="matrix(0.992001,0,0,0.992001,494.365,659.495)" d="M34.2031,3.90625 C33.4063,6.09375 31.4063,13.2969 26.5,13.2969 C20,13.2969 18.5938,9.29688 13.2031,9.29688 C12.4063,9.29688 11.5938,9.40625 10.5938,9.59375 C10.5938,9.59375 13.0938,5.79688 23.7031,2.5 C34.2969,-0.796875 37,-6 37,-12 C37,-16.2031 35.1094,-24.5 20,-24.5 C4.90625,-24.5 2.09375,-15.4063 2.09375,-10.7969 C2.09375,-6.70313 5.5,-3.40625 9.59375,-3.40625 C13.7031,-3.40625 17,-6.70313 17,-10.7969 C17,-13.5938 15,-16.7031 12.4063,-17.7031 C12.0938,-17.7969 11.7031,-18.2969 11.7031,-18.7969 C11.7031,-19.4063 12.2031,-20.0938 14,-20.5938 C14.5,-20.7969 15.9063,-21.0938 17.4063,-21.0938 C23.0938,-21.0938 24.2031,-17.5938 24.2031,-12.5 C24.2031,-0.796875 10.2969,1.70313 4.5,10.4063 C4.5,10.4063 1.5,14.5938 1.5,19.2969 C1.5,24 3.90625,24.2969 5.09375,24.2969 C6.70313,24.2969 8.40625,23 8.40625,21.2031 C8.40625,20.7969 8.29688,20.4063 8.09375,19.9063 C7.5,18.5 7.29688,17.4063 7.29688,16.5938 C7.29688,16.2969 7.29688,16 7.40625,15.7031 C7.5,15.0938 8.29688,14.0938 10.7031,14.0938 C13.5938,14.0938 14.7031,17.5 16.5,20.0938 C18.2969,22.7031 21.0938,24.2969 24.2969,24.2969 C27.5,24.2969 31.7969,22 33.6094,18.2969 C35.4063,14.5938 37.7031,7.09375 37.7031,4.40625 C37.7031,3.09375 36.9063,2.5 36,2.5 C35.2969,2.5 34.6094,2.90625 34.2031,3.90625"/>
<path class="TimeSig" transform="matrix(0.992001,0,0,0.992001,491.095,708.599)" d="M20.7969,12.7031 L20.7969,20.0938 L12.5,20.0938 C11.7969,20.0938 11.0938,20.7031 11.0938,21.5 L11.0938,23.4063 C11.0938,24.2031 11.7969,24.7969 12.5,24.7969 L42.7969,24.7969 C43.6094,24.7969 44.2031,24.2031 44.2031,23.4063 L44.2031,21.5 C44.2031,20.7031 43.6094,20.0938 42.7969,20.0938 L33.9063,20.0938 L33.9063,12.7031 L42.7969,12.7031 C43.6094,12.7031 44.2031,12 44.2031,11.2031 L44.2031,9.29688 C44.2031,8.59375 43.6094,7.90625 42.7969,7.90625 L33.9063,7.90625 L33.9063,-8 C33.9063,-8.59375 33.6094,-9.09375 33.1094,-9.29688 L31.9063,-9.90625 C31.7031,-10 31.4063,-10.0938 31.2031,-10.0938 C30.9063,-10 30.5,-9.90625 30.2969,-9.70313 L21.2031,-1.40625 C20.9063,-1.09375 20.7969,-0.703125 20.7969,-0.296875 L20.7969,7.90625 L9.29688,7.90625 C9.29688,7.90625 20.4063,-4.09375 32.2031,-19.9063 C32.6094,-20.4063 32.7031,-20.9063 32.7031,-21.2969 C32.7031,-21.7969 32.5,-22.2031 32.4063,-22.2969 L30.2031,-24.5 C30,-24.7031 29.6094,-24.9063 29.2031,-24.9063 C28.6094,-24.9063 15.0938,-24.9063 14.4063,-24.9063 C13.5938,-24.9063 13.0938,-24.2969 13,-23.7031 C13,-23.7031 12.5,-16.2969 9.90625,-8.20313 C7.29688,-0.09375 4.29688,4.90625 1.70313,8.59375 C1.70313,8.59375 1.40625,9.09375 1.40625,9.70313 C1.40625,9.90625 1.40625,10.0938 1.5,10.2969 C1.90625,11 2.5,12.0938 2.5,12.0938 C2.5,12.0938 2.70313,12.7031 3.59375,12.7031 L20.7969,12.7031 "/>
<path class="Rest" transform="matrix(0.992001,0,0,0.992001,2499.3,1365.8)" d="M23,16.5938 C22.9063,16.5 22.7031,16.2969 22.4063,15.9063 L10.9063,1.70313 C10.7969,1.59375 10.7031,1.29688 10.7031,1.09375 C10.7031,0.796875 10.7969,0.40625 10.9063,0.203125 L21.0938,-15.2031 C21.2031,-15.4063 21.2969,-15.7031 21.2969,-15.9063 L21.2969,-16.7969 C21.2969,-17.0938 21.2031,-17.4063 21,-17.5938 L4.79688,-39.5 C4.79688,-39.5 4.40625,-40.1094 3.79688,-40.1094 C3.5,-40.1094 3.29688,-40.1094 3,-39.7969 C2.59375,-39.5 2.5,-39.1094 2.5,-38.7969 C2.5,-38.2031 2.79688,-37.7031 2.79688,-37.7031 L10.4063,-27.2969 C10.5938,-27 10.7031,-26.6094 10.7031,-26.1094 C10.7031,-25.7031 10.5938,-25.2031 10.4063,-24.9063 L0.296875,-9.5 C0.203125,-9.29688 0.09375,-8.90625 0.09375,-8.70313 L0.09375,-7.79688 C0.09375,-7.5 0.203125,-7.20313 0.40625,-7 L11.5938,6.90625 C11.2031,6.79688 10.2969,6.59375 9.09375,6.59375 C4,6.59375 0,10.7969 0,15.9063 C0,17.2969 0.296875,18.7031 1.09375,19.7969 C3.20313,23 10.7031,32.5 10.7031,32.5 C10.7031,32.5 11.2031,33.1094 11.9063,33.1094 C12.0938,33.1094 12.2969,33.1094 12.5,32.9063 C13,32.5 13.2031,32.1094 13.2031,31.7031 C13.2031,31.2969 13,31 12.9063,30.7969 C12.5938,30.2969 9.40625,24.5 9.40625,24.5 C9.40625,24.5 8.70313,23.0938 8.70313,21.2969 C8.70313,18.0938 11.0938,15.5 14.2969,15.5 C15.5938,15.5 16.7031,15.9063 17.5,16.4063 L21.4063,18.9063 C21.4063,18.9063 21.7969,19.0938 22.2031,19.0938 C22.5938,19.0938 22.9063,19 23.2031,18.5938 C23.4063,18.2969 23.5,18 23.5,17.7031 C23.5,17.4063 23.4063,17.2031 23.2031,16.9063 L23,16.5938 "/>
<path class="Beam" fill-rule="evenodd" d="M1589.38,627.99 L1704.57,634.19 L1704.57,646.608 L1589.38,640.408 L1589.38,627.99 "/>
<path class="Beam" fill-rule="evenodd" d="M1158.19,621.799 L1273.38,621.799 L1273.38,634.199 L1158.19,634.199 L1158.19,621.799 "/>
<path class="Beam" fill-rule="evenodd" d="M726.999,603.163 L842.19,590.763 L842.19,603.235 L726.999,615.635 L726.999,603.163 "/>
<path class="Beam" fill-rule="evenodd" d="M673.455,1303.8 L834.616,1303.8 L834.616,1316.2 L673.455,1316.2 L673.455,1303.8 "/>
<path class="Beam" fill-rule="evenodd" d="M2564.47,627.99 L2679.66,621.79 L2679.66,634.208 L2564.47,640.408 L2564.47,627.99 "/>
<path class="Beam" fill-rule="evenodd" d="M2076.92,652.79 L2192.12,646.59 L2192.12,659.008 L2076.92,665.208 L2076.92,652.79 "/>
<path class="Beam" fill-rule="evenodd" d="M1936.97,1334.8 L2098.13,1328.6 L2098.13,1341 L1936.97,1347.2 L1936.97,1334.8 "/>
<path class="Beam" fill-rule="evenodd" d="M1619.61,1334.8 L1780.77,1341 L1780.77,1353.4 L1619.61,1347.2 L1619.61,1334.8 "/>
<path class="Beam" fill-rule="evenodd" d="M2339.05,627.99 L2454.24,634.19 L2454.24,646.608 L2339.05,640.408 L2339.05,627.99 "/>
<path class="Beam" fill-rule="evenodd" d="M1265.54,1310 L1426.7,1316.2 L1426.7,1328.6 L1265.54,1322.4 L1265.54,1310 "/>
<path class="Beam" fill-rule="evenodd" d="M1851.5,652.79 L1966.69,658.99 L1966.69,671.408 L1851.5,665.208 L1851.5,652.79 "/>
<path class="Fingering" d="M2317.62,595.869 L2310.34,596.462 L2310.21,597.916 L2311.18,597.916 C2312.77,597.916 2313.41,598.275 2313.41,599.181 C2313.41,599.541 2313.29,600.15 2313.09,600.916 L2309.01,614.666 L2312.49,614.666 L2314.13,609.025 C2315.93,602.9 2319.57,598.275 2322.57,598.275 C2323.62,598.275 2324.26,598.822 2324.26,599.822 C2324.26,600.634 2323.93,602.306 2323.44,603.822 L2320.26,614.666 L2323.73,614.666 L2325.44,608.869 C2326.44,605.541 2327.44,603.306 2328.73,601.587 C2330.16,599.587 2332.21,598.275 2333.73,598.275 C2334.73,598.275 2335.29,598.791 2335.29,599.744 C2335.29,600.306 2335.09,601.181 2334.73,602.306 L2332.88,607.994 C2331.8,611.103 2331.77,611.353 2331.77,612.462 C2331.77,614.15 2333.01,615.259 2334.88,615.259 C2336.21,615.259 2337.49,614.619 2338.85,613.353 C2339.69,612.541 2340.24,611.822 2341.88,609.431 L2340.65,608.587 C2338.57,611.712 2337.09,613.228 2336.05,613.228 C2335.62,613.228 2335.21,612.791 2335.21,612.228 C2335.21,611.869 2335.34,611.431 2335.69,610.259 L2338.21,602.509 C2338.49,601.634 2338.69,600.384 2338.69,599.509 C2338.69,597.384 2337.13,595.869 2334.98,595.869 C2332.13,595.869 2329.57,597.712 2327.26,601.509 C2327.41,600.744 2327.49,600.072 2327.49,599.587 C2327.49,597.462 2325.8,595.869 2323.62,595.869 C2321.09,595.869 2319.26,597.275 2316.44,601.275 L2317.62,595.869 "/>
<path class="Fingering" d="M681.483,705.379 C675.889,705.379 671.811,711.457 671.811,719.864 C671.811,728.098 675.764,734.129 681.154,734.129 C686.764,734.129 690.686,728.301 690.686,719.973 C690.686,715.739 689.795,712.223 688.123,709.457 C686.561,706.942 683.998,705.379 681.483,705.379 M681.201,707.098 C682.514,707.098 683.795,707.973 684.764,709.582 C685.842,711.457 686.201,713.739 686.201,719.223 C686.201,724.864 685.92,727.504 685.123,729.254 C684.201,731.223 682.764,732.411 681.248,732.411 C679.889,732.411 678.639,731.536 677.686,729.942 C676.561,728.051 676.248,725.582 676.248,719.02 C676.248,714.332 676.529,712.02 677.326,710.254 C678.248,708.254 679.686,707.098 681.201,707.098"/>
<path class="Fingering" d="M1006.09,1284 L998.806,1284.6 L998.681,1286.05 L999.65,1286.05 C1001.24,1286.05 1001.88,1286.41 1001.88,1287.32 C1001.88,1287.67 1001.76,1288.28 1001.56,1289.05 L997.478,1302.8 L1000.96,1302.8 L1002.6,1297.16 C1004.4,1291.03 1008.04,1286.41 1011.04,1286.41 C1012.09,1286.41 1012.73,1286.96 1012.73,1287.96 C1012.73,1288.77 1012.4,1290.44 1011.92,1291.96 L1008.73,1302.8 L1012.2,1302.8 L1013.92,1297 C1014.92,1293.67 1015.92,1291.44 1017.2,1289.72 C1018.63,1287.72 1020.68,1286.41 1022.2,1286.41 C1023.2,1286.41 1023.76,1286.92 1023.76,1287.88 C1023.76,1288.44 1023.56,1289.32 1023.2,1290.44 L1021.35,1296.13 C1020.27,1299.24 1020.24,1299.49 1020.24,1300.6 C1020.24,1302.28 1021.48,1303.39 1023.35,1303.39 C1024.68,1303.39 1025.96,1302.75 1027.32,1301.49 C1028.17,1300.67 1028.71,1299.96 1030.35,1297.57 L1029.12,1296.72 C1027.04,1299.85 1025.56,1301.36 1024.52,1301.36 C1024.09,1301.36 1023.68,1300.92 1023.68,1300.36 C1023.68,1300 1023.81,1299.57 1024.17,1298.39 L1026.68,1290.64 C1026.96,1289.77 1027.17,1288.52 1027.17,1287.64 C1027.17,1285.52 1025.6,1284 1023.45,1284 C1020.6,1284 1018.04,1285.85 1015.73,1289.64 C1015.88,1288.88 1015.96,1288.21 1015.96,1287.72 C1015.96,1285.6 1014.27,1284 1012.09,1284 C1009.56,1284 1007.73,1285.41 1004.92,1289.41 L1006.09,1284 "/>
<path class="Fingering" d="M652.022,1271.6 L644.741,1272.2 L644.616,1273.65 L645.585,1273.65 C647.178,1273.65 647.819,1274.01 647.819,1274.92 C647.819,1275.27 647.694,1275.88 647.491,1276.65 L643.413,1290.4 L646.897,1290.4 L648.538,1284.76 C650.335,1278.63 653.975,1274.01 656.975,1274.01 C658.022,1274.01 658.663,1274.56 658.663,1275.56 C658.663,1276.37 658.335,1278.04 657.85,1279.56 L654.663,1290.4 L658.132,1290.4 L659.85,1284.6 C660.85,1281.27 661.85,1279.04 663.132,1277.32 C664.569,1275.32 666.616,1274.01 668.132,1274.01 C669.132,1274.01 669.694,1274.52 669.694,1275.48 C669.694,1276.04 669.491,1276.92 669.132,1278.04 L667.288,1283.73 C666.21,1286.84 666.178,1287.09 666.178,1288.2 C666.178,1289.88 667.413,1290.99 669.288,1290.99 C670.616,1290.99 671.897,1290.35 673.257,1289.09 C674.1,1288.27 674.647,1287.56 676.288,1285.17 L675.053,1284.32 C672.975,1287.45 671.491,1288.96 670.46,1288.96 C670.022,1288.96 669.616,1288.52 669.616,1287.96 C669.616,1287.6 669.741,1287.17 670.1,1285.99 L672.616,1278.24 C672.897,1277.37 673.1,1276.12 673.1,1275.24 C673.1,1273.12 671.538,1271.6 669.382,1271.6 C666.538,1271.6 663.975,1273.45 661.663,1277.24 C661.819,1276.48 661.897,1275.81 661.897,1275.32 C661.897,1273.2 660.21,1271.6 658.022,1271.6 C655.491,1271.6 653.663,1273.01 650.85,1277.01 L652.022,1271.6 "/>
<path class="Fingering" d="M828.089,548.97 C826.886,548.97 825.933,549.939 825.933,551.142 C825.933,552.298 826.886,553.298 828.058,553.298 C829.292,553.298 830.245,552.329 830.245,551.142 C830.245,549.939 829.292,548.97 828.089,548.97 M828.808,558.735 L821.136,559.329 L820.98,560.782 L821.933,560.782 C823.574,560.782 824.214,561.142 824.214,562.017 C824.214,562.407 824.136,562.86 823.855,563.782 L821.527,571.579 C820.777,574.126 820.652,574.689 820.652,575.61 C820.652,577.017 821.855,578.095 823.37,578.095 C826.808,578.095 829.167,574.532 830.855,571.939 L829.605,571.251 C827.527,574.407 825.855,576.095 824.777,576.095 C824.37,576.095 824.089,575.735 824.089,575.251 C824.089,574.86 824.245,574.126 824.574,573.017 L828.808,558.735 "/>
<path class="Fingering" d="M1244.11,1277.85 L1236.83,1278.44 L1236.7,1279.9 L1237.67,1279.9 C1239.26,1279.9 1239.91,1280.26 1239.91,1281.16 C1239.91,1281.52 1239.78,1282.13 1239.58,1282.9 L1235.5,1296.65 L1238.98,1296.65 L1240.62,1291.01 C1242.42,1284.88 1246.06,1280.26 1249.06,1280.26 C1250.11,1280.26 1250.75,1280.8 1250.75,1281.8 C1250.75,1282.62 1250.42,1284.29 1249.94,1285.8 L1246.75,1296.65 L1250.22,1296.65 L1251.94,1290.85 C1252.94,1287.52 1253.94,1285.29 1255.22,1283.57 C1256.66,1281.57 1258.7,1280.26 1260.22,1280.26 C1261.22,1280.26 1261.78,1280.77 1261.78,1281.73 C1261.78,1282.29 1261.58,1283.16 1261.22,1284.29 L1259.37,1289.98 C1258.3,1293.08 1258.26,1293.33 1258.26,1294.44 C1258.26,1296.13 1259.5,1297.24 1261.37,1297.24 C1262.7,1297.24 1263.98,1296.6 1265.34,1295.33 C1266.19,1294.52 1266.73,1293.8 1268.37,1291.41 L1267.14,1290.57 C1265.06,1293.69 1263.58,1295.21 1262.55,1295.21 C1262.11,1295.21 1261.7,1294.77 1261.7,1294.21 C1261.7,1293.85 1261.83,1293.41 1262.19,1292.24 L1264.7,1284.49 C1264.98,1283.62 1265.19,1282.37 1265.19,1281.49 C1265.19,1279.37 1263.62,1277.85 1261.47,1277.85 C1258.62,1277.85 1256.06,1279.69 1253.75,1283.49 C1253.91,1282.73 1253.98,1282.05 1253.98,1281.57 C1253.98,1279.44 1252.3,1277.85 1250.11,1277.85 C1247.58,1277.85 1245.75,1279.26 1242.94,1283.26 L1244.11,1277.85 "/>
<path class="Fingering" d="M797.177,657.754 C800.818,656.441 802.49,654.394 802.49,651.191 C802.49,647.004 799.287,644.316 794.334,644.316 C789.646,644.316 786.099,647.082 786.099,650.722 C786.099,652.363 787.177,653.519 788.74,653.519 C790.13,653.519 791.099,652.551 791.099,651.113 C791.099,650.238 790.771,649.722 789.849,649.082 C789.459,648.801 789.334,648.629 789.334,648.363 C789.334,647.238 791.646,646.035 793.927,646.035 C796.818,646.035 798.334,647.832 798.334,651.238 C798.334,654.957 796.818,656.91 793.974,656.91 C793.615,656.91 792.927,656.879 792.334,656.832 C792.005,656.801 791.693,656.801 791.459,656.801 C790.615,656.801 790.177,657.16 790.177,657.879 C790.177,658.551 790.568,658.879 791.459,658.879 C791.693,658.879 792.005,658.879 792.365,658.832 C793.177,658.801 793.818,658.801 794.255,658.801 C797.209,658.801 798.818,660.91 798.818,664.879 C798.818,669.035 796.818,671.347 793.209,671.347 C790.693,671.347 787.974,669.988 787.974,668.754 C787.974,668.394 788.052,668.316 788.818,667.879 C789.927,667.191 790.365,666.519 790.365,665.519 C790.365,664.066 789.287,662.988 787.849,662.988 C786.13,662.988 785.021,664.394 785.021,666.519 C785.021,670.394 788.568,673.066 793.693,673.066 C799.49,673.066 803.255,669.879 803.255,664.957 C803.255,661.191 801.334,658.91 797.177,657.754"/>
<path class="Fingering" d="M2543.04,595.735 L2535.76,596.329 L2535.63,597.782 L2536.6,597.782 C2538.19,597.782 2538.83,598.142 2538.83,599.048 C2538.83,599.407 2538.71,600.017 2538.51,600.782 L2534.43,614.532 L2537.91,614.532 L2539.55,608.892 C2541.35,602.767 2544.99,598.142 2547.99,598.142 C2549.04,598.142 2549.68,598.688 2549.68,599.688 C2549.68,600.501 2549.35,602.173 2548.87,603.688 L2545.68,614.532 L2549.15,614.532 L2550.87,608.735 C2551.87,605.407 2552.87,603.173 2554.15,601.454 C2555.58,599.454 2557.63,598.142 2559.15,598.142 C2560.15,598.142 2560.71,598.657 2560.71,599.61 C2560.71,600.173 2560.51,601.048 2560.15,602.173 L2558.3,607.86 C2557.22,610.97 2557.19,611.22 2557.19,612.329 C2557.19,614.017 2558.43,615.126 2560.3,615.126 C2561.63,615.126 2562.91,614.485 2564.27,613.22 C2565.12,612.407 2565.66,611.688 2567.3,609.298 L2566.07,608.454 C2563.99,611.579 2562.51,613.095 2561.47,613.095 C2561.04,613.095 2560.63,612.657 2560.63,612.095 C2560.63,611.735 2560.76,611.298 2561.12,610.126 L2563.63,602.376 C2563.91,601.501 2564.12,600.251 2564.12,599.376 C2564.12,597.251 2562.55,595.735 2560.4,595.735 C2557.55,595.735 2554.99,597.579 2552.68,601.376 C2552.83,600.61 2552.91,599.938 2552.91,599.454 C2552.91,597.329 2551.22,595.735 2549.04,595.735 C2546.51,595.735 2544.68,597.142 2541.87,601.142 L2543.04,595.735 "/>
<path class="Fingering" d="M967.691,602.002 L960.41,602.596 L960.285,604.049 L961.254,604.049 C962.847,604.049 963.488,604.408 963.488,605.315 C963.488,605.674 963.363,606.283 963.16,607.049 L959.082,620.799 L962.566,620.799 L964.207,615.158 C966.004,609.033 969.644,604.408 972.644,604.408 C973.691,604.408 974.332,604.955 974.332,605.955 C974.332,606.768 974.004,608.44 973.519,609.955 L970.332,620.799 L973.8,620.799 L975.519,615.002 C976.519,611.674 977.519,609.44 978.8,607.721 C980.238,605.721 982.285,604.408 983.8,604.408 C984.8,604.408 985.363,604.924 985.363,605.877 C985.363,606.44 985.16,607.315 984.8,608.44 L982.957,614.127 C981.879,617.236 981.847,617.486 981.847,618.596 C981.847,620.283 983.082,621.393 984.957,621.393 C986.285,621.393 987.566,620.752 988.925,619.486 C989.769,618.674 990.316,617.955 991.957,615.565 L990.722,614.721 C988.644,617.846 987.16,619.361 986.129,619.361 C985.691,619.361 985.285,618.924 985.285,618.361 C985.285,618.002 985.41,617.565 985.769,616.393 L988.285,608.643 C988.566,607.768 988.769,606.518 988.769,605.643 C988.769,603.518 987.207,602.002 985.05,602.002 C982.207,602.002 979.644,603.846 977.332,607.643 C977.488,606.877 977.566,606.205 977.566,605.721 C977.566,603.596 975.879,602.002 973.691,602.002 C971.16,602.002 969.332,603.408 966.519,607.408 L967.691,602.002 "/>
<path class="Fingering" d="M1412.6,1274.19 C1411.4,1274.19 1410.45,1275.16 1410.45,1276.36 C1410.45,1277.52 1411.4,1278.52 1412.57,1278.52 C1413.8,1278.52 1414.76,1277.55 1414.76,1276.36 C1414.76,1275.16 1413.8,1274.19 1412.6,1274.19 M1413.32,1283.96 L1405.65,1284.55 L1405.49,1286 L1406.45,1286 C1408.09,1286 1408.73,1286.36 1408.73,1287.24 C1408.73,1287.63 1408.65,1288.08 1408.37,1289 L1406.04,1296.8 C1405.29,1299.35 1405.16,1299.91 1405.16,1300.83 C1405.16,1302.24 1406.37,1303.31 1407.88,1303.31 C1411.32,1303.31 1413.68,1299.75 1415.37,1297.16 L1414.12,1296.47 C1412.04,1299.63 1410.37,1301.31 1409.29,1301.31 C1408.88,1301.31 1408.6,1300.96 1408.6,1300.47 C1408.6,1300.08 1408.76,1299.35 1409.09,1298.24 L1413.32,1283.96 "/>
<path class="Fingering" d="M2055.49,608.038 L2048.21,608.632 L2048.09,610.085 L2049.05,610.085 C2050.65,610.085 2051.29,610.444 2051.29,611.351 C2051.29,611.71 2051.16,612.319 2050.96,613.085 L2046.88,626.835 L2050.37,626.835 L2052.01,621.194 C2053.8,615.069 2057.44,610.444 2060.44,610.444 C2061.49,610.444 2062.13,610.991 2062.13,611.991 C2062.13,612.804 2061.8,614.476 2061.32,615.991 L2058.13,626.835 L2061.6,626.835 L2063.32,621.038 C2064.32,617.71 2065.32,615.476 2066.6,613.757 C2068.04,611.757 2070.09,610.444 2071.6,610.444 C2072.6,610.444 2073.16,610.96 2073.16,611.913 C2073.16,612.476 2072.96,613.351 2072.6,614.476 L2070.76,620.163 C2069.68,623.272 2069.65,623.522 2069.65,624.632 C2069.65,626.319 2070.88,627.429 2072.76,627.429 C2074.09,627.429 2075.37,626.788 2076.73,625.522 C2077.57,624.71 2078.12,623.991 2079.76,621.601 L2078.52,620.757 C2076.44,623.882 2074.96,625.397 2073.93,625.397 C2073.49,625.397 2073.09,624.96 2073.09,624.397 C2073.09,624.038 2073.21,623.601 2073.57,622.429 L2076.09,614.679 C2076.37,613.804 2076.57,612.554 2076.57,611.679 C2076.57,609.554 2075.01,608.038 2072.85,608.038 C2070.01,608.038 2067.44,609.882 2065.13,613.679 C2065.29,612.913 2065.37,612.241 2065.37,611.757 C2065.37,609.632 2063.68,608.038 2061.49,608.038 C2058.96,608.038 2057.13,609.444 2054.32,613.444 L2055.49,608.038 "/>
<path class="Fingering" d="M946.087,669.553 C940.494,669.553 936.415,675.631 936.415,684.037 C936.415,692.272 940.369,698.303 945.759,698.303 C951.369,698.303 955.29,692.475 955.29,684.147 C955.29,679.912 954.4,676.397 952.728,673.631 C951.165,671.115 948.603,669.553 946.087,669.553 M945.806,671.272 C947.119,671.272 948.4,672.147 949.369,673.756 C950.447,675.631 950.806,677.912 950.806,683.397 C950.806,689.037 950.525,691.678 949.728,693.428 C948.806,695.397 947.369,696.584 945.853,696.584 C944.494,696.584 943.244,695.709 942.29,694.115 C941.165,692.225 940.853,689.756 940.853,683.193 C940.853,678.506 941.134,676.193 941.931,674.428 C942.853,672.428 944.29,671.272 945.806,671.272"/>
<path class="Fingering" d="M1136.76,589.602 L1129.48,590.196 L1129.35,591.649 L1130.32,591.649 C1131.91,591.649 1132.55,592.008 1132.55,592.914 C1132.55,593.274 1132.43,593.883 1132.23,594.649 L1128.15,608.399 L1131.63,608.399 L1133.27,602.758 C1135.07,596.633 1138.71,592.008 1141.71,592.008 C1142.76,592.008 1143.4,592.555 1143.4,593.555 C1143.4,594.368 1143.07,596.039 1142.58,597.555 L1139.4,608.399 L1142.87,608.399 L1144.58,602.602 C1145.58,599.274 1146.58,597.039 1147.87,595.321 C1149.3,593.321 1151.35,592.008 1152.87,592.008 C1153.87,592.008 1154.43,592.524 1154.43,593.477 C1154.43,594.039 1154.23,594.914 1153.87,596.039 L1152.02,601.727 C1150.94,604.836 1150.91,605.086 1150.91,606.196 C1150.91,607.883 1152.15,608.993 1154.02,608.993 C1155.35,608.993 1156.63,608.352 1157.99,607.086 C1158.83,606.274 1159.38,605.555 1161.02,603.164 L1159.79,602.321 C1157.71,605.446 1156.23,606.961 1155.19,606.961 C1154.76,606.961 1154.35,606.524 1154.35,605.961 C1154.35,605.602 1154.48,605.164 1154.83,603.993 L1157.35,596.243 C1157.63,595.368 1157.83,594.118 1157.83,593.243 C1157.83,591.118 1156.27,589.602 1154.12,589.602 C1151.27,589.602 1148.71,591.446 1146.4,595.243 C1146.55,594.477 1146.63,593.805 1146.63,593.321 C1146.63,591.196 1144.94,589.602 1142.76,589.602 C1140.23,589.602 1138.4,591.008 1135.58,595.008 L1136.76,589.602 "/>
<path class="Fingering" d="M1259.28,579.836 C1258.08,579.836 1257.12,580.805 1257.12,582.008 C1257.12,583.164 1258.08,584.164 1259.25,584.164 C1260.48,584.164 1261.44,583.196 1261.44,582.008 C1261.44,580.805 1260.48,579.836 1259.28,579.836 M1260,589.602 L1252.33,590.196 L1252.17,591.649 L1253.12,591.649 C1254.76,591.649 1255.4,592.008 1255.4,592.883 C1255.4,593.274 1255.33,593.727 1255.04,594.649 L1252.72,602.446 C1251.97,604.993 1251.84,605.555 1251.84,606.477 C1251.84,607.883 1253.04,608.961 1254.56,608.961 C1258,608.961 1260.36,605.399 1262.04,602.805 L1260.79,602.118 C1258.72,605.274 1257.04,606.961 1255.97,606.961 C1255.56,606.961 1255.28,606.602 1255.28,606.118 C1255.28,605.727 1255.44,604.993 1255.76,603.883 L1260,589.602 "/>
<path class="Fingering" d="M1598.17,1290.04 L1590.89,1290.63 L1590.77,1292.09 L1591.74,1292.09 C1593.33,1292.09 1593.97,1292.45 1593.97,1293.35 C1593.97,1293.71 1593.85,1294.32 1593.64,1295.09 L1589.56,1308.84 L1593.05,1308.84 L1594.69,1303.2 C1596.49,1297.07 1600.13,1292.45 1603.13,1292.45 C1604.17,1292.45 1604.81,1292.99 1604.81,1293.99 C1604.81,1294.8 1604.49,1296.48 1604,1297.99 L1600.81,1308.84 L1604.28,1308.84 L1606,1303.04 C1607,1299.71 1608,1297.48 1609.28,1295.76 C1610.72,1293.76 1612.77,1292.45 1614.28,1292.45 C1615.28,1292.45 1615.85,1292.96 1615.85,1293.91 C1615.85,1294.48 1615.64,1295.35 1615.28,1296.48 L1613.44,1302.16 C1612.36,1305.27 1612.33,1305.52 1612.33,1306.63 C1612.33,1308.32 1613.56,1309.43 1615.44,1309.43 C1616.77,1309.43 1618.05,1308.79 1619.41,1307.52 C1620.25,1306.71 1620.8,1305.99 1622.44,1303.6 L1621.2,1302.76 C1619.13,1305.88 1617.64,1307.4 1616.61,1307.4 C1616.17,1307.4 1615.77,1306.96 1615.77,1306.4 C1615.77,1306.04 1615.89,1305.6 1616.25,1304.43 L1618.77,1296.68 C1619.05,1295.8 1619.25,1294.55 1619.25,1293.68 C1619.25,1291.55 1617.69,1290.04 1615.53,1290.04 C1612.69,1290.04 1610.13,1291.88 1607.81,1295.68 C1607.97,1294.91 1608.05,1294.24 1608.05,1293.76 C1608.05,1291.63 1606.36,1290.04 1604.17,1290.04 C1601.64,1290.04 1599.81,1291.45 1597,1295.45 L1598.17,1290.04 "/>
<path class="Fingering" d="M1398.88,602.002 L1391.6,602.596 L1391.47,604.049 L1392.44,604.049 C1394.04,604.049 1394.68,604.408 1394.68,605.315 C1394.68,605.674 1394.55,606.283 1394.35,607.049 L1390.27,620.799 L1393.76,620.799 L1395.4,615.158 C1397.19,609.033 1400.83,604.408 1403.83,604.408 C1404.88,604.408 1405.52,604.955 1405.52,605.955 C1405.52,606.768 1405.19,608.44 1404.71,609.955 L1401.52,620.799 L1404.99,620.799 L1406.71,615.002 C1407.71,611.674 1408.71,609.44 1409.99,607.721 C1411.43,605.721 1413.47,604.408 1414.99,604.408 C1415.99,604.408 1416.55,604.924 1416.55,605.877 C1416.55,606.44 1416.35,607.315 1415.99,608.44 L1414.15,614.127 C1413.07,617.236 1413.04,617.486 1413.04,618.596 C1413.04,620.283 1414.27,621.393 1416.15,621.393 C1417.47,621.393 1418.76,620.752 1420.12,619.486 C1420.96,618.674 1421.51,617.955 1423.15,615.565 L1421.91,614.721 C1419.83,617.846 1418.35,619.361 1417.32,619.361 C1416.88,619.361 1416.47,618.924 1416.47,618.361 C1416.47,618.002 1416.6,617.565 1416.96,616.393 L1419.47,608.643 C1419.76,607.768 1419.96,606.518 1419.96,605.643 C1419.96,603.518 1418.4,602.002 1416.24,602.002 C1413.4,602.002 1410.83,603.846 1408.52,607.643 C1408.68,606.877 1408.76,606.205 1408.76,605.721 C1408.76,603.596 1407.07,602.002 1404.88,602.002 C1402.35,602.002 1400.52,603.408 1397.71,607.408 L1398.88,602.002 "/>
<path class="Fingering" d="M1567.95,595.869 L1560.67,596.462 L1560.54,597.916 L1561.51,597.916 C1563.1,597.916 1563.74,598.275 1563.74,599.181 C1563.74,599.541 1563.62,600.15 1563.42,600.916 L1559.34,614.666 L1562.82,614.666 L1564.46,609.025 C1566.26,602.9 1569.9,598.275 1572.9,598.275 C1573.95,598.275 1574.59,598.822 1574.59,599.822 C1574.59,600.634 1574.26,602.306 1573.77,603.822 L1570.59,614.666 L1574.06,614.666 L1575.77,608.869 C1576.77,605.541 1577.77,603.306 1579.06,601.587 C1580.49,599.587 1582.54,598.275 1584.06,598.275 C1585.06,598.275 1585.62,598.791 1585.62,599.744 C1585.62,600.306 1585.42,601.181 1585.06,602.306 L1583.21,607.994 C1582.13,611.103 1582.1,611.353 1582.1,612.462 C1582.1,614.15 1583.34,615.259 1585.21,615.259 C1586.54,615.259 1587.82,614.619 1589.18,613.353 C1590.02,612.541 1590.57,611.822 1592.21,609.431 L1590.98,608.587 C1588.9,611.712 1587.42,613.228 1586.38,613.228 C1585.95,613.228 1585.54,612.791 1585.54,612.228 C1585.54,611.869 1585.67,611.431 1586.02,610.259 L1588.54,602.509 C1588.82,601.634 1589.02,600.384 1589.02,599.509 C1589.02,597.384 1587.46,595.869 1585.31,595.869 C1582.46,595.869 1579.9,597.712 1577.59,601.509 C1577.74,600.744 1577.82,600.072 1577.82,599.587 C1577.82,597.462 1576.13,595.869 1573.95,595.869 C1571.42,595.869 1569.59,597.275 1566.77,601.275 L1567.95,595.869 "/>
<path class="Fingering" d="M1690.47,592.17 C1689.27,592.17 1688.31,593.138 1688.31,594.342 C1688.31,595.498 1689.27,596.498 1690.44,596.498 C1691.67,596.498 1692.63,595.529 1692.63,594.342 C1692.63,593.138 1691.67,592.17 1690.47,592.17 M1691.19,601.935 L1683.52,602.529 L1683.36,603.982 L1684.31,603.982 C1685.95,603.982 1686.59,604.342 1686.59,605.217 C1686.59,605.607 1686.52,606.06 1686.23,606.982 L1683.91,614.779 C1683.16,617.326 1683.03,617.888 1683.03,618.81 C1683.03,620.217 1684.23,621.295 1685.75,621.295 C1689.19,621.295 1691.55,617.732 1693.23,615.138 L1691.98,614.451 C1689.91,617.607 1688.23,619.295 1687.16,619.295 C1686.75,619.295 1686.47,618.935 1686.47,618.451 C1686.47,618.06 1686.63,617.326 1686.95,616.217 L1691.19,601.935 "/>
<path class="Fingering" d="M1766.67,1278.02 C1765.46,1278.02 1764.51,1278.99 1764.51,1280.2 C1764.51,1281.35 1765.46,1282.35 1766.64,1282.35 C1767.87,1282.35 1768.82,1281.38 1768.82,1280.2 C1768.82,1278.99 1767.87,1278.02 1766.67,1278.02 M1767.39,1287.79 L1759.71,1288.38 L1759.56,1289.84 L1760.51,1289.84 C1762.15,1289.84 1762.79,1290.2 1762.79,1291.07 C1762.79,1291.46 1762.71,1291.91 1762.43,1292.84 L1760.1,1300.63 C1759.35,1303.18 1759.23,1303.74 1759.23,1304.66 C1759.23,1306.07 1760.43,1307.15 1761.95,1307.15 C1765.39,1307.15 1767.74,1303.59 1769.43,1300.99 L1768.18,1300.3 C1766.1,1303.46 1764.43,1305.15 1763.35,1305.15 C1762.95,1305.15 1762.67,1304.79 1762.67,1304.3 C1762.67,1303.91 1762.82,1303.18 1763.15,1302.07 L1767.39,1287.79 "/>
<path class="Fingering" d="M2178.01,596.022 C2176.81,596.022 2175.86,596.991 2175.86,598.194 C2175.86,599.351 2176.81,600.351 2177.98,600.351 C2179.22,600.351 2180.17,599.382 2180.17,598.194 C2180.17,596.991 2179.22,596.022 2178.01,596.022 M2178.73,605.788 L2171.06,606.382 L2170.91,607.835 L2171.86,607.835 C2173.5,607.835 2174.14,608.194 2174.14,609.069 C2174.14,609.46 2174.06,609.913 2173.78,610.835 L2171.45,618.632 C2170.7,621.179 2170.58,621.741 2170.58,622.663 C2170.58,624.069 2171.78,625.147 2173.3,625.147 C2176.73,625.147 2179.09,621.585 2180.78,618.991 L2179.53,618.304 C2177.45,621.46 2175.78,623.147 2174.7,623.147 C2174.3,623.147 2174.01,622.788 2174.01,622.304 C2174.01,621.913 2174.17,621.179 2174.5,620.069 L2178.73,605.788 "/>
<path class="Fingering" d="M414.001,1284 L406.72,1284.6 L406.595,1286.05 L407.564,1286.05 C409.158,1286.05 409.798,1286.41 409.798,1287.32 C409.798,1287.67 409.673,1288.28 409.47,1289.05 L405.392,1302.8 L408.876,1302.8 L410.517,1297.16 C412.314,1291.03 415.955,1286.41 418.955,1286.41 C420.001,1286.41 420.642,1286.96 420.642,1287.96 C420.642,1288.77 420.314,1290.44 419.83,1291.96 L416.642,1302.8 L420.111,1302.8 L421.83,1297 C422.83,1293.67 423.83,1291.44 425.111,1289.72 C426.548,1287.72 428.595,1286.41 430.111,1286.41 C431.111,1286.41 431.673,1286.92 431.673,1287.88 C431.673,1288.44 431.47,1289.32 431.111,1290.44 L429.267,1296.13 C428.189,1299.24 428.158,1299.49 428.158,1300.6 C428.158,1302.28 429.392,1303.39 431.267,1303.39 C432.595,1303.39 433.876,1302.75 435.236,1301.49 C436.08,1300.67 436.626,1299.96 438.267,1297.57 L437.033,1296.72 C434.955,1299.85 433.47,1301.36 432.439,1301.36 C432.001,1301.36 431.595,1300.92 431.595,1300.36 C431.595,1300 431.72,1299.57 432.08,1298.39 L434.595,1290.64 C434.876,1289.77 435.08,1288.52 435.08,1287.64 C435.08,1285.52 433.517,1284 431.361,1284 C428.517,1284 425.955,1285.85 423.642,1289.64 C423.798,1288.88 423.876,1288.21 423.876,1287.72 C423.876,1285.6 422.189,1284 420.001,1284 C417.47,1284 415.642,1285.41 412.83,1289.41 L414.001,1284 "/>
<path class="Fingering" d="M1915.53,1290.04 L1908.25,1290.63 L1908.13,1292.09 L1909.1,1292.09 C1910.69,1292.09 1911.33,1292.45 1911.33,1293.35 C1911.33,1293.71 1911.21,1294.32 1911,1295.09 L1906.93,1308.84 L1910.41,1308.84 L1912.05,1303.2 C1913.85,1297.07 1917.49,1292.45 1920.49,1292.45 C1921.53,1292.45 1922.18,1292.99 1922.18,1293.99 C1922.18,1294.8 1921.85,1296.48 1921.36,1297.99 L1918.18,1308.84 L1921.64,1308.84 L1923.36,1303.04 C1924.36,1299.71 1925.36,1297.48 1926.64,1295.76 C1928.08,1293.76 1930.13,1292.45 1931.64,1292.45 C1932.64,1292.45 1933.21,1292.96 1933.21,1293.91 C1933.21,1294.48 1933,1295.35 1932.64,1296.48 L1930.8,1302.16 C1929.72,1305.27 1929.69,1305.52 1929.69,1306.63 C1929.69,1308.32 1930.93,1309.43 1932.8,1309.43 C1934.13,1309.43 1935.41,1308.79 1936.77,1307.52 C1937.61,1306.71 1938.16,1305.99 1939.8,1303.6 L1938.57,1302.76 C1936.49,1305.88 1935,1307.4 1933.97,1307.4 C1933.53,1307.4 1933.13,1306.96 1933.13,1306.4 C1933.13,1306.04 1933.25,1305.6 1933.61,1304.43 L1936.13,1296.68 C1936.41,1295.8 1936.61,1294.55 1936.61,1293.68 C1936.61,1291.55 1935.05,1290.04 1932.89,1290.04 C1930.05,1290.04 1927.49,1291.88 1925.18,1295.68 C1925.33,1294.91 1925.41,1294.24 1925.41,1293.76 C1925.41,1291.63 1923.72,1290.04 1921.53,1290.04 C1919,1290.04 1917.18,1291.45 1914.36,1295.45 L1915.53,1290.04 "/>
<path class="Fingering" d="M1830.07,608.038 L1822.79,608.632 L1822.66,610.085 L1823.63,610.085 C1825.23,610.085 1825.87,610.444 1825.87,611.351 C1825.87,611.71 1825.74,612.319 1825.54,613.085 L1821.46,626.835 L1824.95,626.835 L1826.59,621.194 C1828.38,615.069 1832.02,610.444 1835.02,610.444 C1836.07,610.444 1836.71,610.991 1836.71,611.991 C1836.71,612.804 1836.38,614.476 1835.9,615.991 L1832.71,626.835 L1836.18,626.835 L1837.9,621.038 C1838.9,617.71 1839.9,615.476 1841.18,613.757 C1842.62,611.757 1844.66,610.444 1846.18,610.444 C1847.18,610.444 1847.74,610.96 1847.74,611.913 C1847.74,612.476 1847.54,613.351 1847.18,614.476 L1845.34,620.163 C1844.26,623.272 1844.23,623.522 1844.23,624.632 C1844.23,626.319 1845.46,627.429 1847.34,627.429 C1848.66,627.429 1849.95,626.788 1851.31,625.522 C1852.15,624.71 1852.7,623.991 1854.34,621.601 L1853.1,620.757 C1851.02,623.882 1849.54,625.397 1848.51,625.397 C1848.07,625.397 1847.66,624.96 1847.66,624.397 C1847.66,624.038 1847.79,623.601 1848.15,622.429 L1850.66,614.679 C1850.95,613.804 1851.15,612.554 1851.15,611.679 C1851.15,609.554 1849.59,608.038 1847.43,608.038 C1844.59,608.038 1842.02,609.882 1839.71,613.679 C1839.87,612.913 1839.95,612.241 1839.95,611.757 C1839.95,609.632 1838.26,608.038 1836.07,608.038 C1833.54,608.038 1831.71,609.444 1828.9,613.444 L1830.07,608.038 "/>
<path class="Fingering" d="M2665.56,579.903 C2664.36,579.903 2663.4,580.872 2663.4,582.075 C2663.4,583.231 2664.36,584.231 2665.53,584.231 C2666.76,584.231 2667.72,583.262 2667.72,582.075 C2667.72,580.872 2666.76,579.903 2665.56,579.903 M2666.28,589.669 L2658.61,590.262 L2658.45,591.716 L2659.4,591.716 C2661.04,591.716 2661.68,592.075 2661.68,592.95 C2661.68,593.341 2661.61,593.794 2661.33,594.716 L2659,602.512 C2658.25,605.059 2658.12,605.622 2658.12,606.544 C2658.12,607.95 2659.33,609.028 2660.84,609.028 C2664.28,609.028 2666.64,605.466 2668.33,602.872 L2667.08,602.184 C2665,605.341 2663.33,607.028 2662.25,607.028 C2661.84,607.028 2661.56,606.669 2661.56,606.184 C2661.56,605.794 2661.72,605.059 2662.04,603.95 L2666.28,589.669 "/>
<path class="Fingering" d="M2440.14,592.17 C2438.94,592.17 2437.98,593.138 2437.98,594.342 C2437.98,595.498 2438.94,596.498 2440.11,596.498 C2441.34,596.498 2442.3,595.529 2442.3,594.342 C2442.3,593.138 2441.34,592.17 2440.14,592.17 M2440.86,601.935 L2433.19,602.529 L2433.03,603.982 L2433.98,603.982 C2435.62,603.982 2436.26,604.342 2436.26,605.217 C2436.26,605.607 2436.19,606.06 2435.9,606.982 L2433.58,614.779 C2432.83,617.326 2432.7,617.888 2432.7,618.81 C2432.7,620.217 2433.9,621.295 2435.42,621.295 C2438.86,621.295 2441.22,617.732 2442.9,615.138 L2441.65,614.451 C2439.58,617.607 2437.9,619.295 2436.83,619.295 C2436.42,619.295 2436.14,618.935 2436.14,618.451 C2436.14,618.06 2436.3,617.326 2436.62,616.217 L2440.86,601.935 "/>
<path class="Fingering" d="M2084.03,1278.02 C2082.82,1278.02 2081.87,1278.99 2081.87,1280.2 C2081.87,1281.35 2082.82,1282.35 2084,1282.35 C2085.23,1282.35 2086.18,1281.38 2086.18,1280.2 C2086.18,1278.99 2085.23,1278.02 2084.03,1278.02 M2084.75,1287.79 L2077.07,1288.38 L2076.92,1289.84 L2077.87,1289.84 C2079.51,1289.84 2080.15,1290.2 2080.15,1291.07 C2080.15,1291.46 2080.07,1291.91 2079.79,1292.84 L2077.47,1300.63 C2076.72,1303.18 2076.59,1303.74 2076.59,1304.66 C2076.59,1306.07 2077.79,1307.15 2079.31,1307.15 C2082.75,1307.15 2085.11,1303.59 2086.79,1300.99 L2085.54,1300.3 C2083.47,1303.46 2081.79,1305.15 2080.72,1305.15 C2080.31,1305.15 2080.03,1304.79 2080.03,1304.3 C2080.03,1303.91 2080.18,1303.18 2080.51,1302.07 L2084.75,1287.79 "/>
<path class="Fingering" d="M1952.59,596.022 C1951.39,596.022 1950.44,596.991 1950.44,598.194 C1950.44,599.351 1951.39,600.351 1952.56,600.351 C1953.8,600.351 1954.75,599.382 1954.75,598.194 C1954.75,596.991 1953.8,596.022 1952.59,596.022 M1953.31,605.788 L1945.64,606.382 L1945.48,607.835 L1946.44,607.835 C1948.08,607.835 1948.72,608.194 1948.72,609.069 C1948.72,609.46 1948.64,609.913 1948.36,610.835 L1946.03,618.632 C1945.28,621.179 1945.16,621.741 1945.16,622.663 C1945.16,624.069 1946.36,625.147 1947.88,625.147 C1951.31,625.147 1953.67,621.585 1955.36,618.991 L1954.11,618.304 C1952.03,621.46 1950.36,623.147 1949.28,623.147 C1948.88,623.147 1948.59,622.788 1948.59,622.304 C1948.59,621.913 1948.75,621.179 1949.08,620.069 L1953.31,605.788 "/>
<path class="Fingering" d="M602.669,592.236 C601.465,592.236 600.512,593.205 600.512,594.408 C600.512,595.565 601.465,596.565 602.637,596.565 C603.872,596.565 604.825,595.596 604.825,594.408 C604.825,593.205 603.872,592.236 602.669,592.236 M603.387,602.002 L595.715,602.596 L595.559,604.049 L596.512,604.049 C598.153,604.049 598.794,604.408 598.794,605.283 C598.794,605.674 598.715,606.127 598.434,607.049 L596.106,614.846 C595.356,617.393 595.231,617.955 595.231,618.877 C595.231,620.283 596.434,621.361 597.95,621.361 C601.387,621.361 603.747,617.799 605.434,615.205 L604.184,614.518 C602.106,617.674 600.434,619.361 599.356,619.361 C598.95,619.361 598.669,619.002 598.669,618.518 C598.669,618.127 598.825,617.393 599.153,616.283 L603.387,602.002 "/>
<path class="Fingering" d="M820.515,1261.84 C819.312,1261.84 818.359,1262.81 818.359,1264.01 C818.359,1265.17 819.312,1266.17 820.484,1266.17 C821.718,1266.17 822.672,1265.2 822.672,1264.01 C822.672,1262.81 821.718,1261.84 820.515,1261.84 M821.234,1271.6 L813.562,1272.2 L813.406,1273.65 L814.359,1273.65 C816,1273.65 816.64,1274.01 816.64,1274.88 C816.64,1275.27 816.562,1275.73 816.281,1276.65 L813.953,1284.45 C813.203,1286.99 813.078,1287.56 813.078,1288.48 C813.078,1289.88 814.281,1290.96 815.797,1290.96 C819.234,1290.96 821.593,1287.4 823.281,1284.81 L822.031,1284.12 C819.953,1287.27 818.281,1288.96 817.203,1288.96 C816.797,1288.96 816.515,1288.6 816.515,1288.12 C816.515,1287.73 816.672,1286.99 817,1285.88 L821.234,1271.6 "/>
<path class="Fingering" d="M2269.6,1279 L2262.32,1279.6 L2262.19,1281.05 L2263.16,1281.05 C2264.76,1281.05 2265.4,1281.41 2265.4,1282.32 C2265.4,1282.67 2265.27,1283.28 2265.07,1284.05 L2260.99,1297.8 L2264.47,1297.8 L2266.12,1292.16 C2267.91,1286.03 2271.55,1281.41 2274.55,1281.41 C2275.6,1281.41 2276.24,1281.96 2276.24,1282.96 C2276.24,1283.77 2275.91,1285.44 2275.43,1286.96 L2272.24,1297.8 L2275.71,1297.8 L2277.43,1292 C2278.43,1288.67 2279.43,1286.44 2280.71,1284.72 C2282.15,1282.72 2284.19,1281.41 2285.71,1281.41 C2286.71,1281.41 2287.27,1281.92 2287.27,1282.88 C2287.27,1283.44 2287.07,1284.32 2286.71,1285.44 L2284.87,1291.13 C2283.79,1294.24 2283.76,1294.49 2283.76,1295.6 C2283.76,1297.28 2284.99,1298.39 2286.87,1298.39 C2288.19,1298.39 2289.47,1297.75 2290.83,1296.49 C2291.68,1295.67 2292.22,1294.96 2293.87,1292.57 L2292.63,1291.72 C2290.55,1294.85 2289.07,1296.36 2288.04,1296.36 C2287.6,1296.36 2287.19,1295.92 2287.19,1295.36 C2287.19,1295 2287.32,1294.57 2287.68,1293.39 L2290.19,1285.64 C2290.47,1284.77 2290.68,1283.52 2290.68,1282.64 C2290.68,1280.52 2289.12,1279 2286.96,1279 C2284.12,1279 2281.55,1280.85 2279.24,1284.64 C2279.4,1283.88 2279.47,1283.21 2279.47,1282.72 C2279.47,1280.6 2277.79,1279 2275.6,1279 C2273.07,1279 2271.24,1280.41 2268.43,1284.41 L2269.6,1279 "/>
<path class="Fingering" d="M566.292,744.873 C560.699,744.873 556.62,750.951 556.62,759.357 C556.62,767.592 560.574,773.623 565.964,773.623 C571.574,773.623 575.495,767.795 575.495,759.467 C575.495,755.232 574.605,751.717 572.933,748.951 C571.37,746.435 568.808,744.873 566.292,744.873 M566.011,746.592 C567.324,746.592 568.605,747.467 569.574,749.076 C570.652,750.951 571.011,753.232 571.011,758.717 C571.011,764.357 570.73,766.998 569.933,768.748 C569.011,770.717 567.574,771.904 566.058,771.904 C564.699,771.904 563.449,771.029 562.495,769.435 C561.37,767.545 561.058,765.076 561.058,758.514 C561.058,753.826 561.339,751.514 562.136,749.748 C563.058,747.748 564.495,746.592 566.011,746.592"/>
<path class="Fingering" d="M705.566,570.868 L698.285,571.462 L698.16,572.915 L699.129,572.915 C700.723,572.915 701.363,573.275 701.363,574.181 C701.363,574.54 701.238,575.15 701.035,575.915 L696.957,589.665 L700.441,589.665 L702.082,584.025 C703.879,577.9 707.52,573.275 710.52,573.275 C711.566,573.275 712.207,573.822 712.207,574.822 C712.207,575.634 711.879,577.306 711.395,578.822 L708.207,589.665 L711.676,589.665 L713.395,583.868 C714.395,580.54 715.395,578.306 716.676,576.587 C718.113,574.587 720.16,573.275 721.676,573.275 C722.676,573.275 723.238,573.79 723.238,574.743 C723.238,575.306 723.035,576.181 722.676,577.306 L720.832,582.993 C719.754,586.103 719.723,586.353 719.723,587.462 C719.723,589.15 720.957,590.259 722.832,590.259 C724.16,590.259 725.441,589.618 726.801,588.353 C727.645,587.54 728.191,586.822 729.832,584.431 L728.598,583.587 C726.52,586.712 725.035,588.228 724.004,588.228 C723.566,588.228 723.16,587.79 723.16,587.228 C723.16,586.868 723.285,586.431 723.645,585.259 L726.16,577.509 C726.441,576.634 726.645,575.384 726.645,574.509 C726.645,572.384 725.082,570.868 722.926,570.868 C720.082,570.868 717.52,572.712 715.207,576.509 C715.363,575.743 715.441,575.072 715.441,574.587 C715.441,572.462 713.754,570.868 711.566,570.868 C709.035,570.868 707.207,572.275 704.395,576.275 L705.566,570.868 "/>
</svg>
