<?xml version="1.0" encoding="UTF-8" standalone="no"?>
<svg
   width="296.92599mm"
   height="210.058mm"
   viewBox="0 0 4208.4 2977.2"
   version="1.2"
   id="svg576"
   sodipodi:docname="rythmique_1.svg"
   inkscape:version="1.2.2 (b0a8486541, 2022-12-01)"
   xmlns:inkscape="http://www.inkscape.org/namespaces/inkscape"
   xmlns:sodipodi="http://sodipodi.sourceforge.net/DTD/sodipodi-0.dtd"
   xmlns="http://www.w3.org/2000/svg"
   xmlns:svg="http://www.w3.org/2000/svg"
   xmlns:rdf="http://www.w3.org/1999/02/22-rdf-syntax-ns#"
   xmlns:cc="http://creativecommons.org/ns#"
   xmlns:dc="http://purl.org/dc/elements/1.1/">
  <defs
     id="defs580" />
  <sodipodi:namedview
     id="namedview578"
     pagecolor="#ffffff"
     bordercolor="#000000"
     borderopacity="0.25"
     inkscape:showpageshadow="2"
     inkscape:pageopacity="0.0"
     inkscape:pagecheckerboard="0"
     inkscape:deskcolor="#d1d1d1"
     inkscape:document-units="mm"
     showgrid="false"
     inkscape:zoom="0.34128173"
     inkscape:cx="533.28375"
     inkscape:cy="439.51957"
     inkscape:window-width="1104"
     inkscape:window-height="552"
     inkscape:window-x="0"
     inkscape:window-y="32"
     inkscape:window-maximized="1"
     inkscape:current-layer="svg576" />
  <title
     id="title2">rythmique_1</title>
  <desc
     id="desc4">Generated by MuseScore Studio 4.5.2</desc>
  <polyline
     class="StaffLines"
     fill="none"
     stroke="#000000"
     stroke-width="2.73"
     stroke-linejoin="bevel"
     points="336.598,667.478 2764.6,667.478"
     id="polyline6"
     transform="matrix(1.5535766,0,0,1.672601,-242.5737,-207.76917)" />
  <polyline
     class="StaffLines"
     fill="none"
     stroke="#000000"
     stroke-width="2.73"
     stroke-linejoin="bevel"
     points="336.598,692.278 2764.6,692.278"
     id="polyline8"
     transform="matrix(1.5535766,0,0,1.672601,-242.5737,-207.76917)" />
  <polyline
     class="StaffLines"
     fill="none"
     stroke="#000000"
     stroke-width="2.73"
     stroke-linejoin="bevel"
     points="336.598,717.078 2764.6,717.078"
     id="polyline10"
     transform="matrix(1.5535766,0,0,1.672601,-242.5737,-207.76917)" />
  <polyline
     class="StaffLines"
     fill="none"
     stroke="#000000"
     stroke-width="2.73"
     stroke-linejoin="bevel"
     points="336.598,741.878 2764.6,741.878"
     id="polyline12"
     transform="matrix(1.5535766,0,0,1.672601,-242.5737,-207.76917)" />
  <polyline
     class="StaffLines"
     fill="none"
     stroke="#000000"
     stroke-width="2.73"
     stroke-linejoin="bevel"
     points="336.598,766.678 2764.6,766.678"
     id="polyline14"
     transform="matrix(1.5535766,0,0,1.672601,-242.5737,-207.76917)" />
  <polyline
     class="StaffLines"
     fill="none"
     stroke="#000000"
     stroke-width="2.73"
     stroke-linejoin="bevel"
     points="212.598,1464.09 2764.6,1464.09"
     id="polyline16"
     transform="matrix(1.5535766,0,0,1.672601,-242.5737,-207.76917)" />
  <polyline
     class="StaffLines"
     fill="none"
     stroke="#000000"
     stroke-width="2.73"
     stroke-linejoin="bevel"
     points="212.598,1488.89 2764.6,1488.89"
     id="polyline18"
     transform="matrix(1.5535766,0,0,1.672601,-242.5737,-207.76917)" />
  <polyline
     class="StaffLines"
     fill="none"
     stroke="#000000"
     stroke-width="2.73"
     stroke-linejoin="bevel"
     points="212.598,1513.69 2764.6,1513.69"
     id="polyline20"
     transform="matrix(1.5535766,0,0,1.672601,-242.5737,-207.76917)" />
  <polyline
     class="StaffLines"
     fill="none"
     stroke="#000000"
     stroke-width="2.73"
     stroke-linejoin="bevel"
     points="212.598,1538.49 2764.6,1538.49"
     id="polyline22"
     transform="matrix(1.5535766,0,0,1.672601,-242.5737,-207.76917)" />
  <polyline
     class="StaffLines"
     fill="none"
     stroke="#000000"
     stroke-width="2.73"
     stroke-linejoin="bevel"
     points="212.598,1563.29 2764.6,1563.29"
     id="polyline24"
     transform="matrix(1.5535766,0,0,1.672601,-242.5737,-207.76917)" />
  <path
     class="Text"
     d="m 1605.6542,220.5806 h 9.9119 c 17.2602,0.7326 24.0959,8.28607 25.9602,28.51283 l 0.8545,9.3833 c 2.0663,20.80214 8.3738,29.27052 21.9054,29.27052 13.9977,0 20.6471,-10.14098 21.1908,-32.19758 h -7.1931 c -0.6835,12.67498 -2.7343,18.21463 -7.3484,18.21463 -3.9305,0 -5.6394,-3.13612 -8.5446,-15.83619 l -2.7188,-11.57774 c -3.7751,-16.93509 -10.44,-24.67086 -23.7697,-28.35561 24.6087,-3.65965 36.3848,-14.34924 36.3848,-32.93016 0,-20.95937 -16.3902,-32.9285 -45.1004,-32.9285 h -59.1291 v 8.64902 h 3.0761 c 9.7409,0.18399 12.9879,0.7326 14.355,2.58751 1.0098,1.64752 1.0098,2.01214 1.0098,11.39544 v 87.7597 c 0,9.1993 0,9.56393 -1.0098,11.42052 -1.3671,1.82815 -4.6141,2.37844 -14.355,2.37844 h -3.0761 v 8.64902 h 56.053 v -8.64902 h -3.0916 c -9.7254,0 -12.9879,-0.55029 -14.3395,-2.37844 -1.0254,-1.85659 -1.0254,-2.22122 -1.0254,-11.42052 V 220.5806 m 0,-8.64901 v -40.48364 c -0.3418,-10.11255 0.5127,-10.84515 11.7917,-10.66283 h 9.2283 c 16.9184,0 24.6242,7.73578 24.6242,24.46179 0,19.34028 -9.6012,26.68468 -26.8614,26.68468 h -18.7828 m 129.3353,49.68127 -18.7827,-47.27775 c -0.7146,-1.85491 -1.0409,-2.76983 -1.0409,-3.68473 0,-3.50243 2.0507,-4.78198 7.861,-4.78198 h 3.5888 v -6.63854 h -40.657 v 6.63854 h 1.8643 c 5.8103,0.18232 8.0319,2.01215 11.6362,9.93024 l 27.8401,67.89757 -2.8896,6.42948 c -6.1677,13.98126 -14.1998,23.72918 -19.6684,23.72918 -1.5225,0 -2.7343,-0.73092 -2.7343,-1.82982 0,-0.36463 0.171,-0.91491 0.3418,-1.64584 0.4972,-1.6726 0.87,-3.31844 0.87,-4.80872 0,-4.78198 -3.5887,-8.25931 -8.7155,-8.25931 -5.9968,0 -10.2691,4.78364 -10.2691,11.39543 0,8.2844 6.5094,14.16525 15.5513,14.16525 9.0573,0 16.763,-4.78363 23.5833,-14.71387 5.3132,-7.55346 8.7155,-15.26248 16.2348,-35.33369 l 19.4974,-52.05971 c 3.9306,-10.66283 7.6591,-14.71387 14.3395,-14.89619 h 1.0254 v -6.63854 h -34.1787 v 6.63854 h 2.7343 c 6.4784,0 9.2283,2.01215 9.2283,6.79411 0,2.03891 -0.5127,4.23336 -1.6935,7.36948 l -15.5668,41.58087 m 73.6551,-62.383 v -36.43093 h -7.0222 c -1.6934,23.93827 -9.2282,36.06462 -23.0551,37.18862 v 7.1604 h 13.9977 v 46.91144 c 0,12.88404 0.3418,17.4837 2.0508,21.71705 2.7343,7.73578 9.5855,11.97081 19.4818,11.97081 15.396,0 25.2922,-12.51942 25.2922,-32.01526 0,-1.12399 0,-2.40353 -0.1708,-4.23336 h -7.1776 c -0.5127,16.54203 -4.9558,25.01041 -13.3297,25.01041 -3.9305,0 -7.3484,-2.19613 -8.5446,-5.33225 -1.0098,-2.58584 -1.5225,-7.18549 -1.5225,-13.79896 v -50.22988 h 25.1213 v -7.91809 h -25.1213 m 67.2853,-49.86526 -31.5997,2.03891 v 7.91809 h 8.2029 c 6.4785,0.18398 7.3328,1.2812 7.3328,9.1993 v 102.65589 c -0.1708,2.58751 -0.3417,3.68641 -1.0253,4.59965 -1.1962,1.64751 -4.4432,2.4052 -11.7916,2.58751 h -0.6836 v 6.6118 h 43.236 v -6.6118 h -0.6835 c -11.4654,-0.39138 -12.988,-1.30629 -12.988,-7.91809 v -27.23162 c 0,-9.01698 1.1963,-17.30138 3.0761,-21.53473 3.7753,-8.2844 11.2634,-13.98295 18.6275,-13.98295 4.4431,0 9.5544,2.7715 11.9625,6.45624 2.7498,4.02428 3.9305,9.56394 3.9305,18.58092 v 38.44307 c -0.1709,2.58751 -0.3417,3.68641 -1.0098,4.59965 -1.2117,1.64751 -4.6452,2.4052 -11.9781,2.58751 h -0.668 v 6.6118 h 43.2205 v -6.6118 h -0.668 c -11.2945,-0.39138 -12.817,-1.30629 -12.817,-7.91809 v -36.97954 c 0,-13.25034 -0.5438,-16.57045 -3.6043,-22.81594 -4.2724,-9.017 -12.817,-14.16526 -23.0862,-14.16526 -11.0925,0 -19.2954,5.33224 -26.9857,17.66768 v -64.7882 m 104.5713,49.86526 -30.419,2.03889 v 7.91809 h 7.0221 c 6.4785,0.18232 7.3329,1.28122 7.3329,9.19931 v 52.60832 c -0.1708,2.76983 -0.3418,3.86873 -1.0253,4.78197 -1.1808,1.64751 -4.4433,2.4052 -11.7917,2.58751 h -0.6835 v 6.6118 h 43.0651 v -6.6118 h -0.6836 c -11.279,-0.39138 -12.817,-1.30629 -12.817,-8.1004 v -34.05416 c 0,-16.35971 8.3738,-28.51283 19.4974,-28.51283 9.7254,0 14.6813,7.55347 14.6813,22.44966 v 41.03057 c -0.1709,2.4052 -0.3418,3.68641 -1.1807,4.59965 -1.0254,1.64751 -4.4433,2.4052 -11.8072,2.58751 h -0.668 v 6.6118 h 43.2205 v -6.6118 h -0.668 c -11.2946,-0.39138 -12.8171,-1.30629 -12.8171,-7.91809 v -32.56387 c 0,-18.39861 7.6902,-30.18543 19.6372,-30.18543 9.7565,0 14.5415,7.91976 14.5415,24.48855 v 38.80936 c -0.1709,2.58752 -0.3418,3.86873 -1.1962,4.78197 -1.0409,1.64751 -4.4433,2.4052 -11.7917,2.58751 h -0.6836 v 6.6118 h 43.2361 v -6.6118 h -0.6836 c -11.2945,-0.39138 -12.817,-1.30629 -12.817,-8.1004 v -41.76317 c 0,-11.42052 -1.0409,-15.28926 -5.4841,-21.53475 -4.956,-6.79577 -11.9471,-10.48051 -20.15,-10.48051 -11.1235,0 -19.3264,5.69687 -26.6748,18.3986 -2.8897,-11.05421 -12.1335,-18.3986 -23.5678,-18.3986 -10.44,0 -17.9438,5.33224 -24.6242,16.90999 v -14.16525 m 144.7312,-45.81422 c -5.4686,0 -9.9118,4.78364 -9.9118,10.68959 0,5.8792 4.4432,10.66284 9.741,10.66284 5.6549,0 10.0982,-4.78364 10.0982,-10.66284 0,-5.90595 -4.4433,-10.68959 -9.9274,-10.68959 m 8.032,45.81422 -32.1124,2.03889 v 7.91809 h 8.7156 c 6.4784,0.18232 7.3328,1.28122 7.3328,9.19931 v 52.60832 c -0.1709,2.76983 -0.3417,3.86873 -1.0254,4.78197 -1.1962,1.64751 -4.4431,2.4052 -11.7915,2.58751 h -1.1963 v 6.6118 h 44.2769 v -6.6118 h -1.2118 c -11.4343,-0.39138 -12.9879,-1.30629 -12.9879,-7.91809 v -71.216 m 95.3585,0 -8.0475,12.51774 c -6.8358,-10.29653 -15.194,-15.26248 -25.9758,-15.26248 -20.849,0 -36.5712,20.41075 -36.5712,47.64403 0,25.21948 14.7123,43.6181 34.7069,43.6181 10.5799,0 16.3902,-3.32011 23.226,-13.43434 v 34.0274 c -0.1554,2.58751 -0.3263,3.68474 -1.0099,4.59966 -1.2118,1.6475 -4.4431,2.4052 -11.9625,2.5875 h -1.8798 v 6.6118 h 44.4323 v -6.6118 h -0.6836 c -11.2945,-0.36629 -12.817,-1.30629 -12.817,-7.91809 v -79.47531 c 0.1709,-10.5056 0.1709,-11.2382 0.1709,-13.25035 0.3418,-3.50242 0.8389,-6.08826 2.7188,-15.65386 h -6.3076 m -32.4853,5.14826 c 6.8513,0 12.9879,4.80872 16.2349,12.51775 2.5789,6.08993 3.5888,12.51941 3.5888,23.18224 0,25.21948 -6.494,37.71214 -19.8237,37.71214 -12.817,0 -20.1499,-12.67664 -20.1499,-34.75999 0,-25.9504 6.6494,-38.65214 20.1499,-38.65214 m 118.9263,81.87883 31.1182,-1.2812 v -7.91809 h -4.2723 c -9.9274,-0.36631 -10.7819,-1.46353 -10.7819,-13.43267 v -64.39513 l -32.1124,2.03889 v 7.91809 h 8.7155 c 6.4785,0.18232 7.3329,1.28122 7.3329,9.19931 v 22.60688 c 0,16.02017 -3.5732,35.51601 -22.387,35.51601 -5.2977,0 -9.7409,-2.01214 -11.9625,-5.69688 -2.2217,-3.50242 -2.5479,-5.33225 -2.5479,-15.44647 v -56.13583 l -29.9063,2.03889 v 7.91809 h 6.4783 c 6.5096,0.18232 7.3484,1.28122 7.3484,9.19931 v 39.72428 c 0,9.38162 0.6837,13.61664 3.2626,17.85 4.5986,7.55179 12.817,11.78682 23.0551,11.78682 11.2945,0 19.1556,-4.96595 26.6593,-16.75278 v 15.26248 m 113.4733,-42.67808 c 0.1708,-27.59792 -14.3707,-47.09375 -35.2196,-47.09375 -21.8744,0 -38.2801,20.41075 -38.2801,48.00866 0,25.95208 15.5668,43.25347 38.6219,43.25347 16.4057,0 27.8712,-8.6507 34.8778,-26.13439 l -5.9968,-3.50243 c -6.9911,14.16526 -14.1687,19.67982 -25.634,19.67982 -8.7156,0 -15.0232,-3.84196 -19.4663,-12.12635 -3.0761,-5.51457 -4.4433,-11.97082 -4.2724,-22.08503 h 55.3695 m -55.1986,-7.91809 c 0,-12.88404 5.4686,-31.28266 19.8081,-31.28266 10.2691,0 17.0893,9.77468 17.0893,24.67087 0,5.14827 -1.5225,6.61179 -6.991,6.61179 h -29.9064 m 163.6848,-80.20624 c -5.7949,7.5267 -21.5325,13.25034 -37.2547,13.61665 v 7.89133 h 15.0385 c 9.9119,0.20907 10.9372,1.30797 10.5954,11.60451 v 73.77675 c 0,9.38329 0,9.74792 -1.0253,11.42052 -1.3516,1.82983 -4.6141,2.56243 -14.1686,2.56243 h -11.1236 v 8.64902 h 67.6738 v -8.64902 h -9.3992 c -9.5855,0 -12.817,-0.7326 -14.1996,-2.56243 -1.1807,-1.6726 -1.1807,-1.85491 -1.1807,-11.42052 V 186.3709 c 0,-10.3233 0.3417,-18.97231 1.1807,-30.91636 h -6.1367"
     id="path26"
     style="stroke-width:1.61199" />
  <path
     class="MeasureNumber"
     d="m 110.38647,2133.7552 c 2.93781,-0.9869 4.103,-1.5388 5.60841,-2.6093 2.91296,-2.0573 4.70889,-5.7537 4.70889,-9.4837 0,-6.3558 -4.70889,-10.6377 -11.67668,-10.6377 -6.77205,0 -12.501632,4.5495 -12.501632,10.0356 0,2.7431 1.55357,4.6165 3.933652,4.6165 2.03829,0 3.54371,-1.6058 3.54371,-3.8136 0,-1.1374 -0.31538,-1.957 -1.31121,-2.9939 -0.63076,-0.6357 -0.87312,-1.0706 -0.87312,-1.5556 0,-1.6056 3.10715,-3.2783 6.02011,-3.2783 4.17446,0 6.65087,2.4755 6.65087,6.6235 0,5.9377 -3.90881,11.5577 -8.08326,11.5577 -0.1709,0 -0.72863,-0.05 -1.4091,-0.1338 -1.81923,-0.1339 -1.81923,-0.1339 -2.18432,-0.1339 -1.35939,0 -2.11132,0.6858 -2.11132,1.8901 0,1.0705 0.67891,1.7228 1.79593,1.7228 0.31539,0 0.75194,-0.05 1.23821,-0.1339 0.87311,-0.1839 1.82079,-0.2508 2.37852,-0.2508 2.91296,0 4.90308,2.81 4.90308,6.9413 0,7.2424 -3.30134,14.2003 -10.82532,14.2003 -3.472239,0 -6.458211,-1.8899 -6.458211,-4.0309 0,-0.736 0.267218,-0.9869 1.238198,-1.4552 1.820799,-0.8697 2.549418,-2.074 2.549418,-3.8804 0,-2.3416 -1.722917,-4.1481 -3.956951,-4.1481 -2.670598,0 -4.418373,2.2747 -4.418373,5.7538 0,6.473 4.587708,10.5541 12.040219,10.5541 9.39447,0 16.53161,-6.7405 16.53161,-15.7057 0,-5.2353 -2.98598,-8.1623 -7.33133,-9.6509"
     id="path28"
     style="stroke-width:1.61199" />
  <polyline
     class="BarLine"
     fill="none"
     stroke="#000000"
     stroke-width="4.46"
     stroke-linejoin="bevel"
     points="2739.55,1462.73 2739.55,1564.66"
     id="polyline30"
     transform="matrix(1.5535766,0,0,1.672601,-242.5737,-207.76917)" />
  <polyline
     class="BarLine"
     fill="none"
     stroke="#000000"
     stroke-width="13.64"
     stroke-linejoin="bevel"
     points="2757.78,1462.73 2757.78,1564.66"
     id="polyline32"
     transform="matrix(1.5535766,0,0,1.672601,-242.5737,-207.76917)" />
  <polyline
     class="BarLine"
     fill="none"
     stroke="#000000"
     stroke-width="4.46"
     stroke-linejoin="bevel"
     points="1526.54,1462.73 1526.54,1564.66"
     id="polyline34"
     transform="matrix(1.5535766,0,0,1.672601,-242.5737,-207.76917)" />
  <polyline
     class="BarLine"
     fill="none"
     stroke="#000000"
     stroke-width="4.46"
     stroke-linejoin="bevel"
     points="2762.37,666.114 2762.37,768.042"
     id="polyline36"
     transform="matrix(1.5535766,0,0,1.672601,-242.5737,-207.76917)" />
  <polyline
     class="BarLine"
     fill="none"
     stroke="#000000"
     stroke-width="4.46"
     stroke-linejoin="bevel"
     points="1633.57,666.114 1633.57,768.042"
     id="polyline38"
     transform="matrix(1.5535766,0,0,1.672601,-242.5737,-207.76917)" />
  <path
     class="Arpeggio"
     d="m 2623.9429,2584.5212 c 5.8515,-18.0959 17.4102,-46.1211 17.4102,-47.2879 0,-1.011 -0.7706,-2.3332 -1.8542,-2.3332 l -0.1445,0.1815 c -2.1672,1.3222 -14.7854,5.6257 -15.4115,5.6257 -0.6261,0 -13.0997,-3.9665 -15.869,-5.6257 l -0.1685,-0.1815 c -1.0596,0 -1.6857,1.3222 -1.6857,2.3332 0,1.1668 11.8717,29.192 17.7232,47.2879"
     id="path40"
     style="stroke-width:1.59909" />
  <polyline
     class="Arpeggio"
     fill="none"
     stroke="#000000"
     stroke-width="4.46"
     stroke-linejoin="bevel"
     points="1845.02,1457.16 1845.02,1654.61"
     id="polyline42"
     transform="matrix(1.5535766,0,0,1.672601,-242.5737,-207.76917)" />
  <path
     class="Arpeggio"
     d="m 2175.2389,2229.4497 c -5.8515,18.0959 -17.7232,46.1471 -17.7232,47.2878 0,1.011 0.6261,2.3332 1.6857,2.3332 l 0.1686,-0.1554 c 2.7692,-1.6593 15.2429,-5.6519 15.8689,-5.6519 0.6261,0 13.2443,4.3037 15.4115,5.6519 l 0.1445,0.1554 c 1.0836,0 1.8542,-1.3222 1.8542,-2.3332 0,-1.1407 -11.5586,-29.1919 -17.4102,-47.2878"
     id="path44"
     style="stroke-width:1.59909" />
  <polyline
     class="Arpeggio"
     fill="none"
     stroke="#000000"
     stroke-width="4.46"
     stroke-linejoin="bevel"
     points="1556.2,1471.98 1556.2,1669.43"
     id="polyline46"
     transform="matrix(1.5535766,0,0,1.672601,-242.5737,-207.76917)" />
  <path
     class="Arpeggio"
     d="m 739.43119,2584.5212 c 5.85157,-18.0959 17.41018,-46.1211 17.41018,-47.2879 0,-1.011 -0.77057,-2.3332 -1.85415,-2.3332 l -0.14448,0.1815 c -2.16716,1.3222 -14.78531,5.6257 -15.41148,5.6257 -0.62601,0 -13.09976,-3.9665 -15.86901,-5.6257 l -0.16857,-0.1815 c -1.05953,0 -1.68562,1.3222 -1.68562,2.3332 0,1.1668 11.87165,29.192 17.7232,47.2879"
     id="path48"
     style="stroke-width:1.59909" />
  <polyline
     class="Arpeggio"
     fill="none"
     stroke="#000000"
     stroke-width="4.46"
     stroke-linejoin="bevel"
     points="632,1457.16 632,1654.61"
     id="polyline50"
     transform="matrix(1.5535766,0,0,1.672601,-242.5737,-207.76917)" />
  <path
     class="Arpeggio"
     d="m 3589.5219,1252.102 c 5.8515,-18.0958 17.4101,-46.1211 17.4101,-47.2877 0,-1.0112 -0.7705,-2.3333 -1.8542,-2.3333 l -0.1445,0.1815 c -2.1672,1.3222 -14.7853,5.6257 -15.4114,5.6257 -0.6261,0 -13.0999,-3.9665 -15.869,-5.6257 l -0.1686,-0.1815 c -1.0596,0 -1.6856,1.3221 -1.6856,2.3333 0,1.1666 11.8716,29.1919 17.7232,47.2877"
     id="path52"
     style="stroke-width:1.59909" />
  <polyline
     class="Arpeggio"
     fill="none"
     stroke="#000000"
     stroke-width="4.46"
     stroke-linejoin="bevel"
     points="2466.53,660.542 2466.53,857.989"
     id="polyline54"
     transform="matrix(1.5535766,0,0,1.672601,-242.5737,-207.76917)" />
  <path
     class="Arpeggio"
     d="m 3521.3665,2584.5212 c 5.8515,-18.0959 17.4101,-46.1211 17.4101,-47.2879 0,-1.011 -0.7705,-2.3332 -1.8541,-2.3332 l -0.1446,0.1815 c -2.1672,1.3222 -14.7854,5.6257 -15.4114,5.6257 -0.6261,0 -13.0998,-3.9665 -15.869,-5.6257 l -0.1686,-0.1815 c -1.0596,0 -1.6857,1.3222 -1.6857,2.3332 0,1.1668 11.8717,29.192 17.7233,47.2879"
     id="path56"
     style="stroke-width:1.59909" />
  <polyline
     class="Arpeggio"
     fill="none"
     stroke="#000000"
     stroke-width="4.46"
     stroke-linejoin="bevel"
     points="2422.66,1457.16 2422.66,1654.61"
     id="polyline58"
     transform="matrix(1.5535766,0,0,1.672601,-242.5737,-207.76917)" />
  <path
     class="Arpeggio"
     d="m 2341.5337,1252.102 c 5.8517,-18.0958 17.4103,-46.1211 17.4103,-47.2877 0,-1.0112 -0.7707,-2.3333 -1.8543,-2.3333 l -0.1445,0.1815 c -2.1672,1.3222 -14.7854,5.6257 -15.4115,5.6257 -0.6261,0 -13.0997,-3.9665 -15.869,-5.6257 l -0.1685,-0.1815 c -1.0596,0 -1.6857,1.3221 -1.6857,2.3333 0,1.1666 11.8717,29.1919 17.7232,47.2877"
     id="path60"
     style="stroke-width:1.59909" />
  <polyline
     class="Arpeggio"
     fill="none"
     stroke="#000000"
     stroke-width="4.46"
     stroke-linejoin="bevel"
     points="1663.23,660.542 1663.23,857.989"
     id="polyline62"
     transform="matrix(1.5535766,0,0,1.672601,-242.5737,-207.76917)" />
  <path
     class="Arpeggio"
     d="m 1419.8434,897.02888 c -5.8516,18.09596 -17.7232,46.14714 -17.7232,47.28786 0,1.01109 0.6261,2.33328 1.6857,2.33328 l 0.1685,-0.15556 c 2.7692,-1.65921 15.2429,-5.65171 15.869,-5.65171 0.6261,0 13.2443,4.3036 15.4115,5.65171 l 0.1444,0.15556 c 1.0837,0 1.8542,-1.32219 1.8542,-2.33328 0,-1.14072 -11.5586,-29.1919 -17.4101,-47.28786"
     id="path64"
     style="stroke-width:1.59909" />
  <polyline
     class="Arpeggio"
     fill="none"
     stroke="#000000"
     stroke-width="4.46"
     stroke-linejoin="bevel"
     points="1069.97,675.368 1069.97,872.815"
     id="polyline66"
     transform="matrix(1.5535766,0,0,1.672601,-242.5737,-207.76917)" />
  <path
     class="Arpeggio"
     d="m 290.72409,2229.4497 c -5.85155,18.0959 -17.7232,46.1471 -17.7232,47.2878 0,1.011 0.62608,2.3332 1.68562,2.3332 l 0.16857,-0.1554 c 2.76925,-1.6593 15.24299,-5.6519 15.86901,-5.6519 0.62616,0 13.24431,4.3037 15.41147,5.6519 l 0.14464,0.1554 c 1.08357,0 1.85415,-1.3222 1.85415,-2.3332 0,-1.1407 -11.55862,-29.1919 -17.41019,-47.2878"
     id="path68"
     style="stroke-width:1.59909" />
  <polyline
     class="Arpeggio"
     fill="none"
     stroke="#000000"
     stroke-width="4.46"
     stroke-linejoin="bevel"
     points="343.178,1471.98 343.178,1669.43"
     id="polyline70"
     transform="matrix(1.5535766,0,0,1.672601,-242.5737,-207.76917)" />
  <path
     class="Arpeggio"
     d="m 1003.85,897.02888 c -5.85165,18.09596 -17.72324,46.14714 -17.72324,47.28786 0,1.01109 0.62609,2.33328 1.68555,2.33328 l 0.16857,-0.15556 c 2.76926,-1.65921 15.24302,-5.65171 15.86912,-5.65171 0.6261,0 13.2442,4.3036 15.4114,5.65171 l 0.1447,0.15556 c 1.0835,0 1.8541,-1.32219 1.8541,-2.33328 0,-1.14072 -11.5586,-29.1919 -17.4102,-47.28786"
     id="path72"
     style="stroke-width:1.59909" />
  <polyline
     class="Arpeggio"
     fill="none"
     stroke="#000000"
     stroke-width="4.46"
     stroke-linejoin="bevel"
     points="802.2,675.368 802.2,872.815"
     id="polyline74"
     transform="matrix(1.5535766,0,0,1.672601,-242.5737,-207.76917)" />
  <path
     class="Arpeggio"
     d="m 2757.5194,1252.102 c 5.8516,-18.0958 17.4102,-46.1211 17.4102,-47.2877 0,-1.0112 -0.7706,-2.3333 -1.8542,-2.3333 l -0.1445,0.1815 c -2.1672,1.3222 -14.7854,5.6257 -15.4115,5.6257 -0.626,0 -13.0997,-3.9665 -15.8689,-5.6257 l -0.1686,-0.1815 c -1.0596,0 -1.6857,1.3221 -1.6857,2.3333 0,1.1666 11.8717,29.1919 17.7232,47.2877"
     id="path76"
     style="stroke-width:1.59909" />
  <polyline
     class="Arpeggio"
     fill="none"
     stroke="#000000"
     stroke-width="4.46"
     stroke-linejoin="bevel"
     points="1931,660.542 1931,857.989"
     id="polyline78"
     transform="matrix(1.5535766,0,0,1.672601,-242.5737,-207.76917)" />
  <path
     class="Arpeggio"
     d="m 1636.847,2584.5212 c 5.8515,-18.0959 17.4101,-46.1211 17.4101,-47.2879 0,-1.011 -0.7705,-2.3332 -1.8541,-2.3332 l -0.1446,0.1815 c -2.1672,1.3222 -14.7853,5.6257 -15.4114,5.6257 -0.6261,0 -13.0997,-3.9665 -15.869,-5.6257 l -0.1686,-0.1815 c -1.0595,0 -1.6856,1.3222 -1.6856,2.3332 0,1.1668 11.8717,29.192 17.7232,47.2879"
     id="path80"
     style="stroke-width:1.59909" />
  <polyline
     class="Arpeggio"
     fill="none"
     stroke="#000000"
     stroke-width="4.46"
     stroke-linejoin="bevel"
     points="1209.64,1457.16 1209.64,1654.61"
     id="polyline82"
     transform="matrix(1.5535766,0,0,1.672601,-242.5737,-207.76917)" />
  <path
     class="Arpeggio"
     d="m 1835.8446,897.02888 c -5.8516,18.09596 -17.7232,46.14714 -17.7232,47.28786 0,1.01109 0.6261,2.33328 1.6856,2.33328 l 0.1685,-0.15556 c 2.7693,-1.65921 15.243,-5.65171 15.8691,-5.65171 0.6261,0 13.2443,4.3036 15.4115,5.65171 l 0.1444,0.15556 c 1.0836,0 1.8542,-1.32219 1.8542,-2.33328 0,-1.14072 -11.5586,-29.1919 -17.4101,-47.28786"
     id="path84"
     style="stroke-width:1.59909" />
  <polyline
     class="Arpeggio"
     fill="none"
     stroke="#000000"
     stroke-width="4.46"
     stroke-linejoin="bevel"
     points="1337.73,675.368 1337.73,872.815"
     id="polyline86"
     transform="matrix(1.5535766,0,0,1.672601,-242.5737,-207.76917)" />
  <path
     class="Arpeggio"
     d="m 3072.6469,2229.4497 c -5.8515,18.0959 -17.7232,46.1471 -17.7232,47.2878 0,1.011 0.6261,2.3332 1.6856,2.3332 l 0.1686,-0.1554 c 2.7693,-1.6593 15.2429,-5.6519 15.869,-5.6519 0.6261,0 13.2442,4.3037 15.4114,5.6519 l 0.1446,0.1554 c 1.0836,0 1.8542,-1.3222 1.8542,-2.3332 0,-1.1407 -11.5586,-29.1919 -17.4102,-47.2878"
     id="path88"
     style="stroke-width:1.59909" />
  <polyline
     class="Arpeggio"
     fill="none"
     stroke="#000000"
     stroke-width="4.46"
     stroke-linejoin="bevel"
     points="2133.84,1471.98 2133.84,1669.43"
     id="polyline90"
     transform="matrix(1.5535766,0,0,1.672601,-242.5737,-207.76917)" />
  <path
     class="Arpeggio"
     d="m 587.85337,897.02888 c -5.85154,18.09596 -17.72319,46.14714 -17.72319,47.28786 0,1.01109 0.62608,2.33328 1.68562,2.33328 l 0.16857,-0.15556 c 2.76925,-1.65921 15.24299,-5.65171 15.869,-5.65171 0.62617,0 13.24432,4.3036 15.41148,5.65171 l 0.14449,0.15556 c 1.08357,0 1.85415,-1.32219 1.85415,-2.33328 0,-1.14072 -11.55861,-29.1919 -17.41019,-47.28786"
     id="path92"
     style="stroke-width:1.59909" />
  <polyline
     class="Arpeggio"
     fill="none"
     stroke="#000000"
     stroke-width="4.46"
     stroke-linejoin="bevel"
     points="534.433,675.368 534.433,872.815"
     id="polyline94"
     transform="matrix(1.5535766,0,0,1.672601,-242.5737,-207.76917)" />
  <path
     class="Arpeggio"
     d="m 3173.5207,1252.102 c 5.8515,-18.0958 17.4101,-46.1211 17.4101,-47.2877 0,-1.0112 -0.7705,-2.3333 -1.8541,-2.3333 l -0.1446,0.1815 c -2.1672,1.3222 -14.7854,5.6257 -15.4114,5.6257 -0.6261,0 -13.0998,-3.9665 -15.869,-5.6257 l -0.1686,-0.1815 c -1.0596,0 -1.6857,1.3221 -1.6857,2.3333 0,1.1666 11.8717,29.1919 17.7233,47.2877"
     id="path96"
     style="stroke-width:1.59909" />
  <polyline
     class="Arpeggio"
     fill="none"
     stroke="#000000"
     stroke-width="4.46"
     stroke-linejoin="bevel"
     points="2198.76,660.542 2198.76,857.989"
     id="polyline98"
     transform="matrix(1.5535766,0,0,1.672601,-242.5737,-207.76917)" />
  <path
     class="Arpeggio"
     d="m 1188.1383,2229.4497 c -5.8515,18.0959 -17.7232,46.1471 -17.7232,47.2878 0,1.011 0.6261,2.3332 1.6857,2.3332 l 0.1685,-0.1554 c 2.7693,-1.6593 15.243,-5.6519 15.869,-5.6519 0.6262,0 13.2443,4.3037 15.4115,5.6519 l 0.1445,0.1554 c 1.0835,0 1.8541,-1.3222 1.8541,-2.3332 0,-1.1407 -11.5586,-29.1919 -17.4102,-47.2878"
     id="path100"
     style="stroke-width:1.59909" />
  <polyline
     class="Arpeggio"
     fill="none"
     stroke="#000000"
     stroke-width="4.46"
     stroke-linejoin="bevel"
     points="920.822,1471.98 920.822,1669.43"
     id="polyline102"
     transform="matrix(1.5535766,0,0,1.672601,-242.5737,-207.76917)" />
  <polyline
     class="LedgerLine"
     fill="none"
     stroke="#000000"
     stroke-width="3.97"
     stroke-linejoin="bevel"
     points="1680.89,816.278 1729.48,816.278"
     id="polyline104"
     transform="matrix(1.5535766,0,0,1.672601,-242.5737,-207.76917)" />
  <polyline
     class="LedgerLine"
     fill="none"
     stroke="#000000"
     stroke-width="3.97"
     stroke-linejoin="bevel"
     points="1680.89,791.478 1729.48,791.478"
     id="polyline106"
     transform="matrix(1.5535766,0,0,1.672601,-242.5737,-207.76917)" />
  <polyline
     class="LedgerLine"
     fill="none"
     stroke="#000000"
     stroke-width="3.97"
     stroke-linejoin="bevel"
     points="938.476,1588.09 987.069,1588.09"
     id="polyline108"
     transform="matrix(1.5535766,0,0,1.672601,-242.5737,-207.76917)" />
  <polyline
     class="LedgerLine"
     fill="none"
     stroke="#000000"
     stroke-width="3.97"
     stroke-linejoin="bevel"
     points="649.655,1612.89 698.247,1612.89"
     id="polyline110"
     transform="matrix(1.5535766,0,0,1.672601,-242.5737,-207.76917)" />
  <polyline
     class="LedgerLine"
     fill="none"
     stroke="#000000"
     stroke-width="3.97"
     stroke-linejoin="bevel"
     points="649.655,1637.69 698.247,1637.69"
     id="polyline112"
     transform="matrix(1.5535766,0,0,1.672601,-242.5737,-207.76917)" />
  <polyline
     class="LedgerLine"
     fill="none"
     stroke="#000000"
     stroke-width="3.97"
     stroke-linejoin="bevel"
     points="1355.39,791.478 1403.98,791.478"
     id="polyline114"
     transform="matrix(1.5535766,0,0,1.672601,-242.5737,-207.76917)" />
  <polyline
     class="LedgerLine"
     fill="none"
     stroke="#000000"
     stroke-width="3.97"
     stroke-linejoin="bevel"
     points="1680.89,841.078 1729.48,841.078"
     id="polyline116"
     transform="matrix(1.5535766,0,0,1.672601,-242.5737,-207.76917)" />
  <polyline
     class="LedgerLine"
     fill="none"
     stroke="#000000"
     stroke-width="3.97"
     stroke-linejoin="bevel"
     points="649.655,1588.09 698.247,1588.09"
     id="polyline118"
     transform="matrix(1.5535766,0,0,1.672601,-242.5737,-207.76917)" />
  <polyline
     class="LedgerLine"
     fill="none"
     stroke="#000000"
     stroke-width="3.97"
     stroke-linejoin="bevel"
     points="2440.32,1612.89 2488.91,1612.89"
     id="polyline120"
     transform="matrix(1.5535766,0,0,1.672601,-242.5737,-207.76917)" />
  <polyline
     class="LedgerLine"
     fill="none"
     stroke="#000000"
     stroke-width="3.97"
     stroke-linejoin="bevel"
     points="2440.32,1637.69 2488.91,1637.69"
     id="polyline122"
     transform="matrix(1.5535766,0,0,1.672601,-242.5737,-207.76917)" />
  <polyline
     class="LedgerLine"
     fill="none"
     stroke="#000000"
     stroke-width="3.97"
     stroke-linejoin="bevel"
     points="360.833,1637.69 409.425,1637.69"
     id="polyline124"
     transform="matrix(1.5535766,0,0,1.672601,-242.5737,-207.76917)" />
  <polyline
     class="LedgerLine"
     fill="none"
     stroke="#000000"
     stroke-width="3.97"
     stroke-linejoin="bevel"
     points="360.833,1612.89 409.425,1612.89"
     id="polyline126"
     transform="matrix(1.5535766,0,0,1.672601,-242.5737,-207.76917)" />
  <polyline
     class="LedgerLine"
     fill="none"
     stroke="#000000"
     stroke-width="3.97"
     stroke-linejoin="bevel"
     points="360.833,1588.09 409.425,1588.09"
     id="polyline128"
     transform="matrix(1.5535766,0,0,1.672601,-242.5737,-207.76917)" />
  <polyline
     class="LedgerLine"
     fill="none"
     stroke="#000000"
     stroke-width="3.97"
     stroke-linejoin="bevel"
     points="1948.65,791.478 1997.24,791.478"
     id="polyline130"
     transform="matrix(1.5535766,0,0,1.672601,-242.5737,-207.76917)" />
  <polyline
     class="LedgerLine"
     fill="none"
     stroke="#000000"
     stroke-width="3.97"
     stroke-linejoin="bevel"
     points="1948.65,816.278 1997.24,816.278"
     id="polyline132"
     transform="matrix(1.5535766,0,0,1.672601,-242.5737,-207.76917)" />
  <polyline
     class="LedgerLine"
     fill="none"
     stroke="#000000"
     stroke-width="3.97"
     stroke-linejoin="bevel"
     points="1948.65,841.078 1997.24,841.078"
     id="polyline134"
     transform="matrix(1.5535766,0,0,1.672601,-242.5737,-207.76917)" />
  <polyline
     class="LedgerLine"
     fill="none"
     stroke="#000000"
     stroke-width="3.97"
     stroke-linejoin="bevel"
     points="2484.19,791.478 2532.78,791.478"
     id="polyline136"
     transform="matrix(1.5535766,0,0,1.672601,-242.5737,-207.76917)" />
  <polyline
     class="LedgerLine"
     fill="none"
     stroke="#000000"
     stroke-width="3.97"
     stroke-linejoin="bevel"
     points="552.087,791.478 600.68,791.478"
     id="polyline138"
     transform="matrix(1.5535766,0,0,1.672601,-242.5737,-207.76917)" />
  <polyline
     class="LedgerLine"
     fill="none"
     stroke="#000000"
     stroke-width="3.97"
     stroke-linejoin="bevel"
     points="2484.19,841.078 2532.78,841.078"
     id="polyline140"
     transform="matrix(1.5535766,0,0,1.672601,-242.5737,-207.76917)" />
  <polyline
     class="LedgerLine"
     fill="none"
     stroke="#000000"
     stroke-width="3.97"
     stroke-linejoin="bevel"
     points="2484.19,816.278 2532.78,816.278"
     id="polyline142"
     transform="matrix(1.5535766,0,0,1.672601,-242.5737,-207.76917)" />
  <polyline
     class="LedgerLine"
     fill="none"
     stroke="#000000"
     stroke-width="3.97"
     stroke-linejoin="bevel"
     points="1573.85,1637.69 1622.44,1637.69"
     id="polyline144"
     transform="matrix(1.5535766,0,0,1.672601,-242.5737,-207.76917)" />
  <polyline
     class="LedgerLine"
     fill="none"
     stroke="#000000"
     stroke-width="3.97"
     stroke-linejoin="bevel"
     points="552.087,816.278 600.68,816.278"
     id="polyline146"
     transform="matrix(1.5535766,0,0,1.672601,-242.5737,-207.76917)" />
  <polyline
     class="LedgerLine"
     fill="none"
     stroke="#000000"
     stroke-width="3.97"
     stroke-linejoin="bevel"
     points="552.087,841.078 600.68,841.078"
     id="polyline148"
     transform="matrix(1.5535766,0,0,1.672601,-242.5737,-207.76917)" />
  <polyline
     class="LedgerLine"
     fill="none"
     stroke="#000000"
     stroke-width="3.97"
     stroke-linejoin="bevel"
     points="2151.49,1637.69 2200.09,1637.69"
     id="polyline150"
     transform="matrix(1.5535766,0,0,1.672601,-242.5737,-207.76917)" />
  <polyline
     class="LedgerLine"
     fill="none"
     stroke="#000000"
     stroke-width="3.97"
     stroke-linejoin="bevel"
     points="2151.49,1612.89 2200.09,1612.89"
     id="polyline152"
     transform="matrix(1.5535766,0,0,1.672601,-242.5737,-207.76917)" />
  <polyline
     class="LedgerLine"
     fill="none"
     stroke="#000000"
     stroke-width="3.97"
     stroke-linejoin="bevel"
     points="2151.49,1588.09 2200.09,1588.09"
     id="polyline154"
     transform="matrix(1.5535766,0,0,1.672601,-242.5737,-207.76917)" />
  <polyline
     class="LedgerLine"
     fill="none"
     stroke="#000000"
     stroke-width="3.97"
     stroke-linejoin="bevel"
     points="1862.67,1637.69 1911.26,1637.69"
     id="polyline156"
     transform="matrix(1.5535766,0,0,1.672601,-242.5737,-207.76917)" />
  <polyline
     class="LedgerLine"
     fill="none"
     stroke="#000000"
     stroke-width="3.97"
     stroke-linejoin="bevel"
     points="1862.67,1612.89 1911.26,1612.89"
     id="polyline158"
     transform="matrix(1.5535766,0,0,1.672601,-242.5737,-207.76917)" />
  <polyline
     class="LedgerLine"
     fill="none"
     stroke="#000000"
     stroke-width="3.97"
     stroke-linejoin="bevel"
     points="1862.67,1588.09 1911.26,1588.09"
     id="polyline160"
     transform="matrix(1.5535766,0,0,1.672601,-242.5737,-207.76917)" />
  <polyline
     class="LedgerLine"
     fill="none"
     stroke="#000000"
     stroke-width="3.97"
     stroke-linejoin="bevel"
     points="819.854,791.478 868.447,791.478"
     id="polyline162"
     transform="matrix(1.5535766,0,0,1.672601,-242.5737,-207.76917)" />
  <polyline
     class="LedgerLine"
     fill="none"
     stroke="#000000"
     stroke-width="3.97"
     stroke-linejoin="bevel"
     points="819.854,816.278 868.447,816.278"
     id="polyline164"
     transform="matrix(1.5535766,0,0,1.672601,-242.5737,-207.76917)" />
  <polyline
     class="LedgerLine"
     fill="none"
     stroke="#000000"
     stroke-width="3.97"
     stroke-linejoin="bevel"
     points="819.854,841.078 868.447,841.078"
     id="polyline166"
     transform="matrix(1.5535766,0,0,1.672601,-242.5737,-207.76917)" />
  <polyline
     class="LedgerLine"
     fill="none"
     stroke="#000000"
     stroke-width="3.97"
     stroke-linejoin="bevel"
     points="2216.42,841.078 2265.01,841.078"
     id="polyline168"
     transform="matrix(1.5535766,0,0,1.672601,-242.5737,-207.76917)" />
  <polyline
     class="LedgerLine"
     fill="none"
     stroke="#000000"
     stroke-width="3.97"
     stroke-linejoin="bevel"
     points="2440.32,1588.09 2488.91,1588.09"
     id="polyline170"
     transform="matrix(1.5535766,0,0,1.672601,-242.5737,-207.76917)" />
  <polyline
     class="LedgerLine"
     fill="none"
     stroke="#000000"
     stroke-width="3.97"
     stroke-linejoin="bevel"
     points="938.476,1612.89 987.069,1612.89"
     id="polyline172"
     transform="matrix(1.5535766,0,0,1.672601,-242.5737,-207.76917)" />
  <polyline
     class="LedgerLine"
     fill="none"
     stroke="#000000"
     stroke-width="3.97"
     stroke-linejoin="bevel"
     points="1573.85,1612.89 1622.44,1612.89"
     id="polyline174"
     transform="matrix(1.5535766,0,0,1.672601,-242.5737,-207.76917)" />
  <polyline
     class="LedgerLine"
     fill="none"
     stroke="#000000"
     stroke-width="3.97"
     stroke-linejoin="bevel"
     points="1573.85,1588.09 1622.44,1588.09"
     id="polyline176"
     transform="matrix(1.5535766,0,0,1.672601,-242.5737,-207.76917)" />
  <polyline
     class="LedgerLine"
     fill="none"
     stroke="#000000"
     stroke-width="3.97"
     stroke-linejoin="bevel"
     points="1087.62,791.478 1136.21,791.478"
     id="polyline178"
     transform="matrix(1.5535766,0,0,1.672601,-242.5737,-207.76917)" />
  <polyline
     class="LedgerLine"
     fill="none"
     stroke="#000000"
     stroke-width="3.97"
     stroke-linejoin="bevel"
     points="1087.62,816.278 1136.21,816.278"
     id="polyline180"
     transform="matrix(1.5535766,0,0,1.672601,-242.5737,-207.76917)" />
  <polyline
     class="LedgerLine"
     fill="none"
     stroke="#000000"
     stroke-width="3.97"
     stroke-linejoin="bevel"
     points="1087.62,841.078 1136.21,841.078"
     id="polyline182"
     transform="matrix(1.5535766,0,0,1.672601,-242.5737,-207.76917)" />
  <polyline
     class="LedgerLine"
     fill="none"
     stroke="#000000"
     stroke-width="3.97"
     stroke-linejoin="bevel"
     points="2216.42,816.278 2265.01,816.278"
     id="polyline184"
     transform="matrix(1.5535766,0,0,1.672601,-242.5737,-207.76917)" />
  <polyline
     class="LedgerLine"
     fill="none"
     stroke="#000000"
     stroke-width="3.97"
     stroke-linejoin="bevel"
     points="1227.3,1637.69 1275.89,1637.69"
     id="polyline186"
     transform="matrix(1.5535766,0,0,1.672601,-242.5737,-207.76917)" />
  <polyline
     class="LedgerLine"
     fill="none"
     stroke="#000000"
     stroke-width="3.97"
     stroke-linejoin="bevel"
     points="1227.3,1612.89 1275.89,1612.89"
     id="polyline188"
     transform="matrix(1.5535766,0,0,1.672601,-242.5737,-207.76917)" />
  <polyline
     class="LedgerLine"
     fill="none"
     stroke="#000000"
     stroke-width="3.97"
     stroke-linejoin="bevel"
     points="1227.3,1588.09 1275.89,1588.09"
     id="polyline190"
     transform="matrix(1.5535766,0,0,1.672601,-242.5737,-207.76917)" />
  <polyline
     class="LedgerLine"
     fill="none"
     stroke="#000000"
     stroke-width="3.97"
     stroke-linejoin="bevel"
     points="1355.39,816.278 1403.98,816.278"
     id="polyline192"
     transform="matrix(1.5535766,0,0,1.672601,-242.5737,-207.76917)" />
  <polyline
     class="LedgerLine"
     fill="none"
     stroke="#000000"
     stroke-width="3.97"
     stroke-linejoin="bevel"
     points="1355.39,841.078 1403.98,841.078"
     id="polyline194"
     transform="matrix(1.5535766,0,0,1.672601,-242.5737,-207.76917)" />
  <polyline
     class="LedgerLine"
     fill="none"
     stroke="#000000"
     stroke-width="3.97"
     stroke-linejoin="bevel"
     points="2216.42,791.478 2265.01,791.478"
     id="polyline196"
     transform="matrix(1.5535766,0,0,1.672601,-242.5737,-207.76917)" />
  <polyline
     class="LedgerLine"
     fill="none"
     stroke="#000000"
     stroke-width="3.97"
     stroke-linejoin="bevel"
     points="938.476,1637.69 987.069,1637.69"
     id="polyline198"
     transform="matrix(1.5535766,0,0,1.672601,-242.5737,-207.76917)" />
  <polyline
     class="Stem"
     fill="none"
     stroke="#000000"
     stroke-width="2.48"
     stroke-linejoin="bevel"
     points="2479.48,1646.13 2479.48,1414.49"
     id="polyline200"
     transform="matrix(1.5535766,0,0,1.672601,-242.5737,-207.76917)" />
  <polyline
     class="Stem"
     fill="none"
     stroke="#000000"
     stroke-width="2.48"
     stroke-linejoin="bevel"
     points="2523.35,849.51 2523.35,617.878"
     id="polyline202"
     transform="matrix(1.5535766,0,0,1.672601,-242.5737,-207.76917)" />
  <polyline
     class="Stem"
     fill="none"
     stroke="#000000"
     stroke-width="2.48"
     stroke-linejoin="bevel"
     points="400.001,1646.13 400.001,1414.49"
     id="polyline204"
     transform="matrix(1.5535766,0,0,1.672601,-242.5737,-207.76917)" />
  <polyline
     class="Stem"
     fill="none"
     stroke="#000000"
     stroke-width="2.48"
     stroke-linejoin="bevel"
     points="688.823,1646.13 688.823,1414.49"
     id="polyline206"
     transform="matrix(1.5535766,0,0,1.672601,-242.5737,-207.76917)" />
  <polyline
     class="Stem"
     fill="none"
     stroke="#000000"
     stroke-width="2.48"
     stroke-linejoin="bevel"
     points="977.645,1646.13 977.645,1414.49"
     id="polyline208"
     transform="matrix(1.5535766,0,0,1.672601,-242.5737,-207.76917)" />
  <polyline
     class="Stem"
     fill="none"
     stroke="#000000"
     stroke-width="2.48"
     stroke-linejoin="bevel"
     points="1266.47,1646.13 1266.47,1414.49"
     id="polyline210"
     transform="matrix(1.5535766,0,0,1.672601,-242.5737,-207.76917)" />
  <polyline
     class="Stem"
     fill="none"
     stroke="#000000"
     stroke-width="2.48"
     stroke-linejoin="bevel"
     points="1613.02,1646.13 1613.02,1414.49"
     id="polyline212"
     transform="matrix(1.5535766,0,0,1.672601,-242.5737,-207.76917)" />
  <polyline
     class="Stem"
     fill="none"
     stroke="#000000"
     stroke-width="2.48"
     stroke-linejoin="bevel"
     points="1901.84,1646.13 1901.84,1414.49"
     id="polyline214"
     transform="matrix(1.5535766,0,0,1.672601,-242.5737,-207.76917)" />
  <polyline
     class="Stem"
     fill="none"
     stroke="#000000"
     stroke-width="2.48"
     stroke-linejoin="bevel"
     points="2190.66,1646.13 2190.66,1414.49"
     id="polyline216"
     transform="matrix(1.5535766,0,0,1.672601,-242.5737,-207.76917)" />
  <polyline
     class="Stem"
     fill="none"
     stroke="#000000"
     stroke-width="2.48"
     stroke-linejoin="bevel"
     points="1394.56,849.51 1394.56,617.878"
     id="polyline218"
     transform="matrix(1.5535766,0,0,1.672601,-242.5737,-207.76917)" />
  <polyline
     class="Stem"
     fill="none"
     stroke="#000000"
     stroke-width="2.48"
     stroke-linejoin="bevel"
     points="2255.59,849.51 2255.59,617.878"
     id="polyline220"
     transform="matrix(1.5535766,0,0,1.672601,-242.5737,-207.76917)" />
  <polyline
     class="Stem"
     fill="none"
     stroke="#000000"
     stroke-width="2.48"
     stroke-linejoin="bevel"
     points="859.023,849.51 859.023,617.878"
     id="polyline222"
     transform="matrix(1.5535766,0,0,1.672601,-242.5737,-207.76917)" />
  <polyline
     class="Stem"
     fill="none"
     stroke="#000000"
     stroke-width="2.48"
     stroke-linejoin="bevel"
     points="1987.82,849.51 1987.82,617.878"
     id="polyline224"
     transform="matrix(1.5535766,0,0,1.672601,-242.5737,-207.76917)" />
  <polyline
     class="Stem"
     fill="none"
     stroke="#000000"
     stroke-width="2.48"
     stroke-linejoin="bevel"
     points="1126.79,849.51 1126.79,617.878"
     id="polyline226"
     transform="matrix(1.5535766,0,0,1.672601,-242.5737,-207.76917)" />
  <polyline
     class="Stem"
     fill="none"
     stroke="#000000"
     stroke-width="2.48"
     stroke-linejoin="bevel"
     points="1720.05,849.51 1720.05,617.878"
     id="polyline228"
     transform="matrix(1.5535766,0,0,1.672601,-242.5737,-207.76917)" />
  <polyline
     class="Stem"
     fill="none"
     stroke="#000000"
     stroke-width="2.48"
     stroke-linejoin="bevel"
     points="591.256,849.51 591.256,617.878"
     id="polyline230"
     transform="matrix(1.5535766,0,0,1.672601,-242.5737,-207.76917)" />
  <path
     class="Note"
     d="m 1459.8511,1102.2914 c 0,7.1295 4.7679,15.0886 17.2657,15.0886 16.0135,0 32.8216,-14.1035 32.8216,-28.6994 0,-9.7997 -7.7058,-15.27 -17.2656,-15.27 -14.954,0 -32.8217,13.6108 -32.8217,28.8808"
     id="path232"
     style="stroke-width:1.59909" />
  <path
     class="Note"
     d="m 2215.2311,2372.4847 c 0,7.1294 4.7679,15.0885 17.2657,15.0885 16.0134,0 32.8216,-14.1033 32.8216,-28.6993 0,-9.7997 -7.7057,-15.27 -17.2657,-15.27 -14.9539,0 -32.8216,13.6108 -32.8216,28.8808"
     id="path234"
     style="stroke-width:1.59909" />
  <path
     class="Note"
     d="m 2215.2311,2434.7055 c 0,7.1294 4.7679,15.0885 17.2657,15.0885 16.0134,0 32.8216,-14.1034 32.8216,-28.6993 0,-9.7998 -7.7057,-15.2701 -17.2657,-15.2701 -14.9539,0 -32.8216,13.6108 -32.8216,28.8809"
     id="path236"
     style="stroke-width:1.59909" />
  <path
     class="Note"
     d="m 2215.2311,2476.1859 c 0,7.1295 4.7679,15.0886 17.2657,15.0886 16.0134,0 32.8216,-14.1034 32.8216,-28.6994 0,-9.7997 -7.7057,-15.2699 -17.2657,-15.2699 -14.9539,0 -32.8216,13.6108 -32.8216,28.8807"
     id="path238"
     style="stroke-width:1.59909" />
  <path
     class="Note"
     d="m 2215.2311,2559.147 c 0,7.1294 4.7679,15.0885 17.2657,15.0885 16.0134,0 32.8216,-14.1034 32.8216,-28.6993 0,-9.7998 -7.7057,-15.2701 -17.2657,-15.2701 -14.9539,0 -32.8216,13.6108 -32.8216,28.8809"
     id="path240"
     style="stroke-width:1.59909" />
  <path
     class="Note"
     d="m 1043.8468,1040.0706 c 0,7.1295 4.7679,15.0886 17.2656,15.0886 16.0137,0 32.8217,-14.1034 32.8217,-28.6993 0,-9.7998 -7.7057,-15.27 -17.2657,-15.27 -14.9539,0 -32.8216,13.6107 -32.8216,28.8807"
     id="path242"
     style="stroke-width:1.59909" />
  <path
     class="Note"
     d="m 1043.8468,998.59018 c 0,7.12942 4.7679,15.08852 17.2656,15.08852 16.0137,0 32.8217,-14.10343 32.8217,-28.69931 0,-9.7998 -7.7057,-15.27003 -17.2657,-15.27003 -14.9539,0 -32.8216,13.61075 -32.8216,28.88082"
     id="path244"
     style="stroke-width:1.59909" />
  <path
     class="Note"
     d="m 1043.8468,936.36938 c 0,7.12946 4.7679,15.08857 17.2656,15.08857 16.0137,0 32.8217,-14.10341 32.8217,-28.69936 0,-9.79977 -7.7057,-15.26999 -17.2657,-15.26999 -14.9539,0 -32.8216,13.61076 -32.8216,28.88078"
     id="path246"
     style="stroke-width:1.59909" />
  <path
     class="Note"
     d="m 1459.8511,1226.7329 c 0,7.1295 4.7679,15.0886 17.2657,15.0886 16.0135,0 32.8216,-14.1034 32.8216,-28.6994 0,-9.7997 -7.7058,-15.27 -17.2656,-15.27 -14.954,0 -32.8217,13.6108 -32.8217,28.8808"
     id="path248"
     style="stroke-width:1.59909" />
  <path
     class="Note"
     d="m 1459.8511,1143.7719 c 0,7.1295 4.7679,15.0886 17.2657,15.0886 16.0135,0 32.8216,-14.1035 32.8216,-28.6994 0,-9.7998 -7.7058,-15.2699 -17.2656,-15.2699 -14.954,0 -32.8217,13.6107 -32.8217,28.8807"
     id="path250"
     style="stroke-width:1.59909" />
  <path
     class="Note"
     d="m 2215.2311,2268.7834 c 0,7.1295 4.7679,15.0885 17.2657,15.0885 16.0134,0 32.8216,-14.1033 32.8216,-28.6993 0,-9.7997 -7.7057,-15.27 -17.2657,-15.27 -14.9539,0 -32.8216,13.6108 -32.8216,28.8808"
     id="path252"
     style="stroke-width:1.59909" />
  <path
     class="Note"
     d="m 1676.8392,2268.7834 c 0,7.1295 4.7679,15.0885 17.2656,15.0885 16.0135,0 32.8216,-14.1033 32.8216,-28.6993 0,-9.7997 -7.7057,-15.27 -17.2657,-15.27 -14.9539,0 -32.8215,13.6108 -32.8215,28.8808"
     id="path254"
     style="stroke-width:1.59909" />
  <path
     class="Note"
     d="m 1676.8392,2331.0042 c 0,7.1294 4.7679,15.0885 17.2656,15.0885 16.0135,0 32.8216,-14.1033 32.8216,-28.6993 0,-9.7998 -7.7057,-15.2701 -17.2657,-15.2701 -14.9539,0 -32.8215,13.6108 -32.8215,28.8809"
     id="path256"
     style="stroke-width:1.59909" />
  <path
     class="Note"
     d="m 1676.8392,2372.4847 c 0,7.1294 4.7679,15.0885 17.2656,15.0885 16.0135,0 32.8216,-14.1033 32.8216,-28.6993 0,-9.7997 -7.7057,-15.27 -17.2657,-15.27 -14.9539,0 -32.8215,13.6108 -32.8215,28.8808"
     id="path258"
     style="stroke-width:1.59909" />
  <path
     class="Note"
     d="m 1676.8392,2434.7055 c 0,7.1294 4.7679,15.0885 17.2656,15.0885 16.0135,0 32.8216,-14.1034 32.8216,-28.6993 0,-9.7998 -7.7057,-15.2701 -17.2657,-15.2701 -14.9539,0 -32.8215,13.6108 -32.8215,28.8809"
     id="path260"
     style="stroke-width:1.59909" />
  <path
     class="Note"
     d="m 1676.8392,2476.1859 c 0,7.1295 4.7679,15.0886 17.2656,15.0886 16.0135,0 32.8216,-14.1034 32.8216,-28.6994 0,-9.7997 -7.7057,-15.2699 -17.2657,-15.2699 -14.9539,0 -32.8215,13.6108 -32.8215,28.8807"
     id="path262"
     style="stroke-width:1.59909" />
  <path
     class="Note"
     d="m 1676.8392,2559.147 c 0,7.1294 4.7679,15.0885 17.2656,15.0885 16.0135,0 32.8216,-14.1034 32.8216,-28.6993 0,-9.7998 -7.7057,-15.2701 -17.2657,-15.2701 -14.9539,0 -32.8215,13.6108 -32.8215,28.8809"
     id="path264"
     style="stroke-width:1.59909" />
  <path
     class="Note"
     d="m 1459.8511,1040.0706 c 0,7.1295 4.7679,15.0886 17.2657,15.0886 16.0135,0 32.8216,-14.1034 32.8216,-28.6993 0,-9.7998 -7.7058,-15.27 -17.2656,-15.27 -14.954,0 -32.8217,13.6107 -32.8217,28.8807"
     id="path266"
     style="stroke-width:1.59909" />
  <path
     class="Note"
     d="m 1459.8511,998.59018 c 0,7.12942 4.7679,15.08852 17.2657,15.08852 16.0135,0 32.8216,-14.10343 32.8216,-28.69931 0,-9.7998 -7.7058,-15.27003 -17.2656,-15.27003 -14.954,0 -32.8217,13.61075 -32.8217,28.88082"
     id="path268"
     style="stroke-width:1.59909" />
  <path
     class="Note"
     d="m 1459.8511,936.36938 c 0,7.12946 4.7679,15.08857 17.2657,15.08857 16.0135,0 32.8216,-14.10341 32.8216,-28.69936 0,-9.79977 -7.7058,-15.26999 -17.2656,-15.26999 -14.954,0 -32.8217,13.61076 -32.8217,28.88078"
     id="path270"
     style="stroke-width:1.59909" />
  <path
     class="Note"
     d="m 1875.8368,1226.7329 c 0,7.1295 4.7679,15.0886 17.2656,15.0886 16.0135,0 32.8217,-14.1034 32.8217,-28.6994 0,-9.7997 -7.7058,-15.27 -17.2657,-15.27 -14.954,0 -32.8216,13.6108 -32.8216,28.8808"
     id="path272"
     style="stroke-width:1.59909" />
  <path
     class="Note"
     d="m 1228.1352,2268.7834 c 0,7.1295 4.7679,15.0885 17.2656,15.0885 16.0136,0 32.8217,-14.1033 32.8217,-28.6993 0,-9.7997 -7.7058,-15.27 -17.2657,-15.27 -14.9539,0 -32.8216,13.6108 -32.8216,28.8808"
     id="path274"
     style="stroke-width:1.59909" />
  <path
     class="Note"
     d="m 2663.9506,2331.0042 c 0,7.1294 4.768,15.0885 17.2657,15.0885 16.0135,0 32.8217,-14.1033 32.8217,-28.6993 0,-9.7998 -7.7058,-15.2701 -17.2657,-15.2701 -14.954,0 -32.8217,13.6108 -32.8217,28.8809"
     id="path276"
     style="stroke-width:1.59909" />
  <path
     class="Note"
     d="m 3112.6547,2268.7834 c 0,7.1295 4.7679,15.0885 17.2655,15.0885 16.0136,0 32.8217,-14.1033 32.8217,-28.6993 0,-9.7997 -7.7057,-15.27 -17.2657,-15.27 -14.9539,0 -32.8215,13.6108 -32.8215,28.8808"
     id="path278"
     style="stroke-width:1.59909" />
  <path
     class="Note"
     d="m 3112.6547,2331.0042 c 0,7.1294 4.7679,15.0885 17.2655,15.0885 16.0136,0 32.8217,-14.1033 32.8217,-28.6993 0,-9.7998 -7.7057,-15.2701 -17.2657,-15.2701 -14.9539,0 -32.8215,13.6108 -32.8215,28.8809"
     id="path280"
     style="stroke-width:1.59909" />
  <path
     class="Note"
     d="m 3112.6547,2372.4847 c 0,7.1294 4.7679,15.0885 17.2655,15.0885 16.0136,0 32.8217,-14.1033 32.8217,-28.6993 0,-9.7997 -7.7057,-15.27 -17.2657,-15.27 -14.9539,0 -32.8215,13.6108 -32.8215,28.8808"
     id="path282"
     style="stroke-width:1.59909" />
  <path
     class="Note"
     d="m 3112.6547,2434.7055 c 0,7.1294 4.7679,15.0885 17.2655,15.0885 16.0136,0 32.8217,-14.1034 32.8217,-28.6993 0,-9.7998 -7.7057,-15.2701 -17.2657,-15.2701 -14.9539,0 -32.8215,13.6108 -32.8215,28.8809"
     id="path284"
     style="stroke-width:1.59909" />
  <path
     class="Note"
     d="m 3112.6547,2476.1859 c 0,7.1295 4.7679,15.0886 17.2655,15.0886 16.0136,0 32.8217,-14.1034 32.8217,-28.6994 0,-9.7997 -7.7057,-15.2699 -17.2657,-15.2699 -14.9539,0 -32.8215,13.6108 -32.8215,28.8807"
     id="path286"
     style="stroke-width:1.59909" />
  <path
     class="Note"
     d="m 3112.6547,2559.147 c 0,7.1294 4.7679,15.0885 17.2655,15.0885 16.0136,0 32.8217,-14.1034 32.8217,-28.6993 0,-9.7998 -7.7057,-15.2701 -17.2657,-15.2701 -14.9539,0 -32.8215,13.6108 -32.8215,28.8809"
     id="path288"
     style="stroke-width:1.59909" />
  <path
     class="Note"
     d="m 627.85021,1226.7329 c 0,7.1295 4.76792,15.0886 17.26564,15.0886 16.0136,0 32.82166,-14.1034 32.82166,-28.6994 0,-9.7997 -7.70573,-15.27 -17.26564,-15.27 -14.9539,0 -32.82166,13.6108 -32.82166,28.8808"
     id="path290"
     style="stroke-width:1.59909" />
  <path
     class="Note"
     d="m 627.85021,1143.7719 c 0,7.1295 4.76792,15.0886 17.26564,15.0886 16.0136,0 32.82166,-14.1035 32.82166,-28.6994 0,-9.7998 -7.70573,-15.2699 -17.26564,-15.2699 -14.9539,0 -32.82166,13.6107 -32.82166,28.8807"
     id="path292"
     style="stroke-width:1.59909" />
  <path
     class="Note"
     d="m 627.85021,1102.2914 c 0,7.1295 4.76792,15.0886 17.26564,15.0886 16.0136,0 32.82166,-14.1035 32.82166,-28.6994 0,-9.7997 -7.70573,-15.27 -17.26564,-15.27 -14.9539,0 -32.82166,13.6108 -32.82166,28.8808"
     id="path294"
     style="stroke-width:1.59909" />
  <path
     class="Note"
     d="m 627.85021,1040.0706 c 0,7.1295 4.76792,15.0886 17.26564,15.0886 16.0136,0 32.82166,-14.1034 32.82166,-28.6993 0,-9.7998 -7.70573,-15.27 -17.26564,-15.27 -14.9539,0 -32.82166,13.6107 -32.82166,28.8807"
     id="path296"
     style="stroke-width:1.59909" />
  <path
     class="Note"
     d="m 627.85021,998.59018 c 0,7.12942 4.76792,15.08852 17.26564,15.08852 16.0136,0 32.82166,-14.10343 32.82166,-28.69931 0,-9.7998 -7.70573,-15.27003 -17.26564,-15.27003 -14.9539,0 -32.82166,13.61075 -32.82166,28.88082"
     id="path298"
     style="stroke-width:1.59909" />
  <path
     class="Note"
     d="m 2663.9506,2268.7834 c 0,7.1295 4.768,15.0885 17.2657,15.0885 16.0135,0 32.8217,-14.1033 32.8217,-28.6993 0,-9.7997 -7.7058,-15.27 -17.2657,-15.27 -14.954,0 -32.8217,13.6108 -32.8217,28.8808"
     id="path300"
     style="stroke-width:1.59909" />
  <path
     class="Note"
     d="m 2215.2311,2331.0042 c 0,7.1294 4.7679,15.0885 17.2657,15.0885 16.0134,0 32.8216,-14.1033 32.8216,-28.6993 0,-9.7998 -7.7057,-15.2701 -17.2657,-15.2701 -14.9539,0 -32.8216,13.6108 -32.8216,28.8809"
     id="path302"
     style="stroke-width:1.59909" />
  <path
     class="Note"
     d="m 2663.9506,2372.4847 c 0,7.1294 4.768,15.0885 17.2657,15.0885 16.0135,0 32.8217,-14.1033 32.8217,-28.6993 0,-9.7997 -7.7058,-15.27 -17.2657,-15.27 -14.954,0 -32.8217,13.6108 -32.8217,28.8808"
     id="path304"
     style="stroke-width:1.59909" />
  <path
     class="Note"
     d="m 2663.9506,2434.7055 c 0,7.1294 4.768,15.0885 17.2657,15.0885 16.0135,0 32.8217,-14.1034 32.8217,-28.6993 0,-9.7998 -7.7058,-15.2701 -17.2657,-15.2701 -14.954,0 -32.8217,13.6108 -32.8217,28.8809"
     id="path306"
     style="stroke-width:1.59909" />
  <path
     class="Note"
     d="m 2663.9506,2476.1859 c 0,7.1295 4.768,15.0886 17.2657,15.0886 16.0135,0 32.8217,-14.1034 32.8217,-28.6994 0,-9.7997 -7.7058,-15.2699 -17.2657,-15.2699 -14.954,0 -32.8217,13.6108 -32.8217,28.8807"
     id="path308"
     style="stroke-width:1.59909" />
  <path
     class="Note"
     d="m 2663.9506,2559.147 c 0,7.1294 4.768,15.0885 17.2657,15.0885 16.0135,0 32.8217,-14.1034 32.8217,-28.6993 0,-9.7998 -7.7058,-15.2701 -17.2657,-15.2701 -14.954,0 -32.8217,13.6108 -32.8217,28.8809"
     id="path310"
     style="stroke-width:1.59909" />
  <path
     class="Note"
     d="m 627.85021,936.36938 c 0,7.12946 4.76792,15.08857 17.26564,15.08857 16.0136,0 32.82166,-14.10341 32.82166,-28.69936 0,-9.79977 -7.70573,-15.26999 -17.26564,-15.26999 -14.9539,0 -32.82166,13.61076 -32.82166,28.88078"
     id="path312"
     style="stroke-width:1.59909" />
  <path
     class="Note"
     d="m 3561.3586,2268.7834 c 0,7.1295 4.7679,15.0885 17.2657,15.0885 16.0134,0 32.8216,-14.1033 32.8216,-28.6993 0,-9.7997 -7.7057,-15.27 -17.2657,-15.27 -14.9539,0 -32.8216,13.6108 -32.8216,28.8808"
     id="path314"
     style="stroke-width:1.59909" />
  <path
     class="Note"
     d="m 3561.3586,2331.0042 c 0,7.1294 4.7679,15.0885 17.2657,15.0885 16.0134,0 32.8216,-14.1033 32.8216,-28.6993 0,-9.7998 -7.7057,-15.2701 -17.2657,-15.2701 -14.9539,0 -32.8216,13.6108 -32.8216,28.8809"
     id="path316"
     style="stroke-width:1.59909" />
  <path
     class="Note"
     d="m 1043.8468,1226.7329 c 0,7.1295 4.7679,15.0886 17.2656,15.0886 16.0137,0 32.8217,-14.1034 32.8217,-28.6994 0,-9.7997 -7.7057,-15.27 -17.2657,-15.27 -14.9539,0 -32.8216,13.6108 -32.8216,28.8808"
     id="path318"
     style="stroke-width:1.59909" />
  <path
     class="Note"
     d="m 1043.8468,1143.7719 c 0,7.1295 4.7679,15.0886 17.2656,15.0886 16.0137,0 32.8217,-14.1035 32.8217,-28.6994 0,-9.7998 -7.7057,-15.2699 -17.2657,-15.2699 -14.9539,0 -32.8216,13.6107 -32.8216,28.8807"
     id="path320"
     style="stroke-width:1.59909" />
  <path
     class="Note"
     d="m 1043.8468,1102.2914 c 0,7.1295 4.7679,15.0886 17.2656,15.0886 16.0137,0 32.8217,-14.1035 32.8217,-28.6994 0,-9.7997 -7.7057,-15.27 -17.2657,-15.27 -14.9539,0 -32.8216,13.6108 -32.8216,28.8808"
     id="path322"
     style="stroke-width:1.59909" />
  <path
     class="Note"
     d="m 3213.5128,1102.2914 c 0,7.1295 4.7679,15.0886 17.2657,15.0886 16.0134,0 32.8216,-14.1035 32.8216,-28.6994 0,-9.7997 -7.7057,-15.27 -17.2657,-15.27 -14.9539,0 -32.8216,13.6108 -32.8216,28.8808"
     id="path324"
     style="stroke-width:1.59909" />
  <path
     class="Note"
     d="m 3629.514,1040.0706 c 0,7.1295 4.768,15.0886 17.2657,15.0886 16.0134,0 32.8216,-14.1034 32.8216,-28.6993 0,-9.7998 -7.7057,-15.27 -17.2657,-15.27 -14.9539,0 -32.8216,13.6107 -32.8216,28.8807"
     id="path326"
     style="stroke-width:1.59909" />
  <path
     class="Note"
     d="m 330.72247,2476.1859 c 0,7.1295 4.76793,15.0886 17.26564,15.0886 16.0136,0 32.82166,-14.1034 32.82166,-28.6994 0,-9.7997 -7.70573,-15.2699 -17.26563,-15.2699 -14.95391,0 -32.82167,13.6108 -32.82167,28.8807"
     id="path328"
     style="stroke-width:1.59909" />
  <path
     class="Note"
     d="m 330.72247,2559.147 c 0,7.1294 4.76793,15.0885 17.26564,15.0885 16.0136,0 32.82166,-14.1034 32.82166,-28.6993 0,-9.7998 -7.70573,-15.2701 -17.26563,-15.2701 -14.95391,0 -32.82167,13.6108 -32.82167,28.8809"
     id="path330"
     style="stroke-width:1.59909" />
  <path
     class="Note"
     d="m 2381.5259,936.36938 c 0,7.12946 4.768,15.08857 17.2657,15.08857 16.0135,0 32.8217,-14.10341 32.8217,-28.69936 0,-9.79977 -7.7058,-15.26999 -17.2657,-15.26999 -14.954,0 -32.8217,13.61076 -32.8217,28.88078"
     id="path332"
     style="stroke-width:1.59909" />
  <path
     class="Note"
     d="m 3561.3586,2372.4847 c 0,7.1294 4.7679,15.0885 17.2657,15.0885 16.0134,0 32.8216,-14.1033 32.8216,-28.6993 0,-9.7997 -7.7057,-15.27 -17.2657,-15.27 -14.9539,0 -32.8216,13.6108 -32.8216,28.8808"
     id="path334"
     style="stroke-width:1.59909" />
  <path
     class="Note"
     d="m 3561.3586,2434.7055 c 0,7.1294 4.7679,15.0885 17.2657,15.0885 16.0134,0 32.8216,-14.1034 32.8216,-28.6993 0,-9.7998 -7.7057,-15.2701 -17.2657,-15.2701 -14.9539,0 -32.8216,13.6108 -32.8216,28.8809"
     id="path336"
     style="stroke-width:1.59909" />
  <path
     class="Note"
     d="m 2797.5271,1226.7329 c 0,7.1295 4.7679,15.0886 17.2657,15.0886 16.0135,0 32.8217,-14.1034 32.8217,-28.6994 0,-9.7997 -7.7057,-15.27 -17.2657,-15.27 -14.9539,0 -32.8217,13.6108 -32.8217,28.8808"
     id="path338"
     style="stroke-width:1.59909" />
  <path
     class="Note"
     d="m 2797.5271,1143.7719 c 0,7.1295 4.7679,15.0886 17.2657,15.0886 16.0135,0 32.8217,-14.1035 32.8217,-28.6994 0,-9.7998 -7.7057,-15.2699 -17.2657,-15.2699 -14.9539,0 -32.8217,13.6107 -32.8217,28.8807"
     id="path340"
     style="stroke-width:1.59909" />
  <path
     class="Note"
     d="m 3561.3586,2559.147 c 0,7.1294 4.7679,15.0885 17.2657,15.0885 16.0134,0 32.8216,-14.1034 32.8216,-28.6993 0,-9.7998 -7.7057,-15.2701 -17.2657,-15.2701 -14.9539,0 -32.8216,13.6108 -32.8216,28.8809"
     id="path342"
     style="stroke-width:1.59909" />
  <path
     class="Note"
     d="m 2797.5271,1102.2914 c 0,7.1295 4.7679,15.0886 17.2657,15.0886 16.0135,0 32.8217,-14.1035 32.8217,-28.6994 0,-9.7997 -7.7057,-15.27 -17.2657,-15.27 -14.9539,0 -32.8217,13.6108 -32.8217,28.8808"
     id="path344"
     style="stroke-width:1.59909" />
  <path
     class="Note"
     d="m 3561.3586,2476.1859 c 0,7.1295 4.7679,15.0886 17.2657,15.0886 16.0134,0 32.8216,-14.1034 32.8216,-28.6994 0,-9.7997 -7.7057,-15.2699 -17.2657,-15.2699 -14.9539,0 -32.8216,13.6108 -32.8216,28.8807"
     id="path346"
     style="stroke-width:1.59909" />
  <path
     class="Note"
     d="m 3629.514,936.36938 c 0,7.12946 4.768,15.08857 17.2657,15.08857 16.0134,0 32.8216,-14.10341 32.8216,-28.69936 0,-9.79977 -7.7057,-15.26999 -17.2657,-15.26999 -14.9539,0 -32.8216,13.61076 -32.8216,28.88078"
     id="path348"
     style="stroke-width:1.59909" />
  <path
     class="Note"
     d="m 3629.514,998.59018 c 0,7.12942 4.768,15.08852 17.2657,15.08852 16.0134,0 32.8216,-14.10343 32.8216,-28.69931 0,-9.7998 -7.7057,-15.27003 -17.2657,-15.27003 -14.9539,0 -32.8216,13.61075 -32.8216,28.88082"
     id="path350"
     style="stroke-width:1.59909" />
  <path
     class="Note"
     d="m 1228.1352,2372.4847 c 0,7.1294 4.7679,15.0885 17.2656,15.0885 16.0136,0 32.8217,-14.1033 32.8217,-28.6993 0,-9.7997 -7.7058,-15.27 -17.2657,-15.27 -14.9539,0 -32.8216,13.6108 -32.8216,28.8808"
     id="path352"
     style="stroke-width:1.59909" />
  <path
     class="Note"
     d="m 3629.514,1102.2914 c 0,7.1295 4.768,15.0886 17.2657,15.0886 16.0134,0 32.8216,-14.1035 32.8216,-28.6994 0,-9.7997 -7.7057,-15.27 -17.2657,-15.27 -14.9539,0 -32.8216,13.6108 -32.8216,28.8808"
     id="path354"
     style="stroke-width:1.59909" />
  <path
     class="Note"
     d="m 3629.514,1143.7719 c 0,7.1295 4.768,15.0886 17.2657,15.0886 16.0134,0 32.8216,-14.1035 32.8216,-28.6994 0,-9.7998 -7.7057,-15.2699 -17.2657,-15.2699 -14.9539,0 -32.8216,13.6107 -32.8216,28.8807"
     id="path356"
     style="stroke-width:1.59909" />
  <path
     class="Note"
     d="m 3629.514,1226.7329 c 0,7.1295 4.768,15.0886 17.2657,15.0886 16.0134,0 32.8216,-14.1034 32.8216,-28.6994 0,-9.7997 -7.7057,-15.27 -17.2657,-15.27 -14.9539,0 -32.8216,13.6108 -32.8216,28.8808"
     id="path358"
     style="stroke-width:1.59909" />
  <path
     class="Note"
     d="m 2797.5271,1040.0706 c 0,7.1295 4.7679,15.0886 17.2657,15.0886 16.0135,0 32.8217,-14.1034 32.8217,-28.6993 0,-9.7998 -7.7057,-15.27 -17.2657,-15.27 -14.9539,0 -32.8217,13.6107 -32.8217,28.8807"
     id="path360"
     style="stroke-width:1.59909" />
  <path
     class="Note"
     d="m 2797.5271,998.59018 c 0,7.12942 4.7679,15.08852 17.2657,15.08852 16.0135,0 32.8217,-14.10343 32.8217,-28.69931 0,-9.7998 -7.7057,-15.27003 -17.2657,-15.27003 -14.9539,0 -32.8217,13.61075 -32.8217,28.88082"
     id="path362"
     style="stroke-width:1.59909" />
  <path
     class="Note"
     d="m 2797.5271,936.36938 c 0,7.12946 4.7679,15.08857 17.2657,15.08857 16.0135,0 32.8217,-14.10341 32.8217,-28.69936 0,-9.79977 -7.7057,-15.26999 -17.2657,-15.26999 -14.9539,0 -32.8217,13.61076 -32.8217,28.88078"
     id="path364"
     style="stroke-width:1.59909" />
  <path
     class="Note"
     d="m 3213.5128,1226.7329 c 0,7.1295 4.7679,15.0886 17.2657,15.0886 16.0134,0 32.8216,-14.1034 32.8216,-28.6994 0,-9.7997 -7.7057,-15.27 -17.2657,-15.27 -14.9539,0 -32.8216,13.6108 -32.8216,28.8808"
     id="path366"
     style="stroke-width:1.59909" />
  <path
     class="Note"
     d="m 3213.5128,936.36938 c 0,7.12946 4.7679,15.08857 17.2657,15.08857 16.0134,0 32.8216,-14.10341 32.8216,-28.69936 0,-9.79977 -7.7057,-15.26999 -17.2657,-15.26999 -14.9539,0 -32.8216,13.61076 -32.8216,28.88078"
     id="path368"
     style="stroke-width:1.59909" />
  <path
     class="Note"
     d="m 3213.5128,998.59018 c 0,7.12942 4.7679,15.08852 17.2657,15.08852 16.0134,0 32.8216,-14.10343 32.8216,-28.69931 0,-9.7998 -7.7057,-15.27003 -17.2657,-15.27003 -14.9539,0 -32.8216,13.61075 -32.8216,28.88082"
     id="path370"
     style="stroke-width:1.59909" />
  <path
     class="Note"
     d="m 3213.5128,1040.0706 c 0,7.1295 4.7679,15.0886 17.2657,15.0886 16.0134,0 32.8216,-14.1034 32.8216,-28.6993 0,-9.7998 -7.7057,-15.27 -17.2657,-15.27 -14.9539,0 -32.8216,13.6107 -32.8216,28.8807"
     id="path372"
     style="stroke-width:1.59909" />
  <path
     class="Note"
     d="m 3213.5128,1143.7719 c 0,7.1295 4.7679,15.0886 17.2657,15.0886 16.0134,0 32.8216,-14.1035 32.8216,-28.6994 0,-9.7998 -7.7057,-15.2699 -17.2657,-15.2699 -14.9539,0 -32.8216,13.6107 -32.8216,28.8807"
     id="path374"
     style="stroke-width:1.59909" />
  <path
     class="Note"
     d="m 779.42957,2434.7055 c 0,7.1294 4.76792,15.0885 17.26564,15.0885 16.0136,0 32.82166,-14.1034 32.82166,-28.6993 0,-9.7998 -7.70573,-15.2701 -17.26563,-15.2701 -14.95391,0 -32.82167,13.6108 -32.82167,28.8809"
     id="path376"
     style="stroke-width:1.59909" />
  <path
     class="Note"
     d="m 1228.1352,2434.7055 c 0,7.1294 4.7679,15.0885 17.2656,15.0885 16.0136,0 32.8217,-14.1034 32.8217,-28.6993 0,-9.7998 -7.7058,-15.2701 -17.2657,-15.2701 -14.9539,0 -32.8216,13.6108 -32.8216,28.8809"
     id="path378"
     style="stroke-width:1.59909" />
  <path
     class="Note"
     d="m 1228.1352,2476.1859 c 0,7.1295 4.7679,15.0886 17.2656,15.0886 16.0136,0 32.8217,-14.1034 32.8217,-28.6994 0,-9.7997 -7.7058,-15.2699 -17.2657,-15.2699 -14.9539,0 -32.8216,13.6108 -32.8216,28.8807"
     id="path380"
     style="stroke-width:1.59909" />
  <path
     class="Note"
     d="m 1228.1352,2559.147 c 0,7.1294 4.7679,15.0885 17.2656,15.0885 16.0136,0 32.8217,-14.1034 32.8217,-28.6993 0,-9.7998 -7.7058,-15.2701 -17.2657,-15.2701 -14.9539,0 -32.8216,13.6108 -32.8216,28.8809"
     id="path382"
     style="stroke-width:1.59909" />
  <path
     class="Note"
     d="m 1875.8368,1143.7719 c 0,7.1295 4.7679,15.0886 17.2656,15.0886 16.0135,0 32.8217,-14.1035 32.8217,-28.6994 0,-9.7998 -7.7058,-15.2699 -17.2657,-15.2699 -14.954,0 -32.8216,13.6107 -32.8216,28.8807"
     id="path384"
     style="stroke-width:1.59909" />
  <path
     class="Note"
     d="m 1875.8368,1102.2914 c 0,7.1295 4.7679,15.0886 17.2656,15.0886 16.0135,0 32.8217,-14.1035 32.8217,-28.6994 0,-9.7997 -7.7058,-15.27 -17.2657,-15.27 -14.954,0 -32.8216,13.6108 -32.8216,28.8808"
     id="path386"
     style="stroke-width:1.59909" />
  <path
     class="Note"
     d="m 1875.8368,1040.0706 c 0,7.1295 4.7679,15.0886 17.2656,15.0886 16.0135,0 32.8217,-14.1034 32.8217,-28.6993 0,-9.7998 -7.7058,-15.27 -17.2657,-15.27 -14.954,0 -32.8216,13.6107 -32.8216,28.8807"
     id="path388"
     style="stroke-width:1.59909" />
  <path
     class="Note"
     d="m 1875.8368,998.59018 c 0,7.12942 4.7679,15.08852 17.2656,15.08852 16.0135,0 32.8217,-14.10343 32.8217,-28.69931 0,-9.7998 -7.7058,-15.27003 -17.2657,-15.27003 -14.954,0 -32.8216,13.61075 -32.8216,28.88082"
     id="path390"
     style="stroke-width:1.59909" />
  <path
     class="Note"
     d="m 1875.8368,936.36938 c 0,7.12946 4.7679,15.08857 17.2656,15.08857 16.0135,0 32.8217,-14.10341 32.8217,-28.69936 0,-9.79977 -7.7058,-15.26999 -17.2657,-15.26999 -14.954,0 -32.8216,13.61076 -32.8216,28.88078"
     id="path392"
     style="stroke-width:1.59909" />
  <path
     class="Note"
     d="m 779.42957,2268.7834 c 0,7.1295 4.76792,15.0885 17.26564,15.0885 16.0136,0 32.82166,-14.1033 32.82166,-28.6993 0,-9.7997 -7.70573,-15.27 -17.26563,-15.27 -14.95391,0 -32.82167,13.6108 -32.82167,28.8808"
     id="path394"
     style="stroke-width:1.59909" />
  <path
     class="Note"
     d="m 779.42957,2331.0042 c 0,7.1294 4.76792,15.0885 17.26564,15.0885 16.0136,0 32.82166,-14.1033 32.82166,-28.6993 0,-9.7998 -7.70573,-15.2701 -17.26563,-15.2701 -14.95391,0 -32.82167,13.6108 -32.82167,28.8809"
     id="path396"
     style="stroke-width:1.59909" />
  <path
     class="Note"
     d="m 779.42957,2372.4847 c 0,7.1294 4.76792,15.0885 17.26564,15.0885 16.0136,0 32.82166,-14.1033 32.82166,-28.6993 0,-9.7997 -7.70573,-15.27 -17.26563,-15.27 -14.95391,0 -32.82167,13.6108 -32.82167,28.8808"
     id="path398"
     style="stroke-width:1.59909" />
  <path
     class="Note"
     d="m 330.72247,2434.7055 c 0,7.1294 4.76793,15.0885 17.26564,15.0885 16.0136,0 32.82166,-14.1034 32.82166,-28.6993 0,-9.7998 -7.70573,-15.2701 -17.26563,-15.2701 -14.95391,0 -32.82167,13.6108 -32.82167,28.8809"
     id="path400"
     style="stroke-width:1.59909" />
  <path
     class="Note"
     d="m 779.42957,2476.1859 c 0,7.1295 4.76792,15.0886 17.26564,15.0886 16.0136,0 32.82166,-14.1034 32.82166,-28.6994 0,-9.7997 -7.70573,-15.2699 -17.26563,-15.2699 -14.95391,0 -32.82167,13.6108 -32.82167,28.8807"
     id="path402"
     style="stroke-width:1.59909" />
  <path
     class="Note"
     d="m 779.42957,2559.147 c 0,7.1294 4.76792,15.0885 17.26564,15.0885 16.0136,0 32.82166,-14.1034 32.82166,-28.6993 0,-9.7998 -7.70573,-15.2701 -17.26563,-15.2701 -14.95391,0 -32.82167,13.6108 -32.82167,28.8809"
     id="path404"
     style="stroke-width:1.59909" />
  <path
     class="Note"
     d="m 2381.5259,1226.7329 c 0,7.1295 4.768,15.0886 17.2657,15.0886 16.0135,0 32.8217,-14.1034 32.8217,-28.6994 0,-9.7997 -7.7058,-15.27 -17.2657,-15.27 -14.954,0 -32.8217,13.6108 -32.8217,28.8808"
     id="path406"
     style="stroke-width:1.59909" />
  <path
     class="Note"
     d="m 1228.1352,2331.0042 c 0,7.1294 4.7679,15.0885 17.2656,15.0885 16.0136,0 32.8217,-14.1033 32.8217,-28.6993 0,-9.7998 -7.7058,-15.2701 -17.2657,-15.2701 -14.9539,0 -32.8216,13.6108 -32.8216,28.8809"
     id="path408"
     style="stroke-width:1.59909" />
  <path
     class="Note"
     d="m 2381.5259,1143.7719 c 0,7.1295 4.768,15.0886 17.2657,15.0886 16.0135,0 32.8217,-14.1035 32.8217,-28.6994 0,-9.7998 -7.7058,-15.2699 -17.2657,-15.2699 -14.954,0 -32.8217,13.6107 -32.8217,28.8807"
     id="path410"
     style="stroke-width:1.59909" />
  <path
     class="Note"
     d="m 2381.5259,1102.2914 c 0,7.1295 4.768,15.0886 17.2657,15.0886 16.0135,0 32.8217,-14.1035 32.8217,-28.6994 0,-9.7997 -7.7058,-15.27 -17.2657,-15.27 -14.954,0 -32.8217,13.6108 -32.8217,28.8808"
     id="path412"
     style="stroke-width:1.59909" />
  <path
     class="Note"
     d="m 2381.5259,1040.0706 c 0,7.1295 4.768,15.0886 17.2657,15.0886 16.0135,0 32.8217,-14.1034 32.8217,-28.6993 0,-9.7998 -7.7058,-15.27 -17.2657,-15.27 -14.954,0 -32.8217,13.6107 -32.8217,28.8807"
     id="path414"
     style="stroke-width:1.59909" />
  <path
     class="Note"
     d="m 2381.5259,998.59018 c 0,7.12942 4.768,15.08852 17.2657,15.08852 16.0135,0 32.8217,-14.10343 32.8217,-28.69931 0,-9.7998 -7.7058,-15.27003 -17.2657,-15.27003 -14.954,0 -32.8217,13.61075 -32.8217,28.88082"
     id="path416"
     style="stroke-width:1.59909" />
  <path
     class="Note"
     d="m 330.72247,2268.7834 c 0,7.1295 4.76793,15.0885 17.26564,15.0885 16.0136,0 32.82166,-14.1033 32.82166,-28.6993 0,-9.7997 -7.70573,-15.27 -17.26563,-15.27 -14.95391,0 -32.82167,13.6108 -32.82167,28.8808"
     id="path418"
     style="stroke-width:1.59909" />
  <path
     class="Note"
     d="m 330.72247,2331.0042 c 0,7.1294 4.76793,15.0885 17.26564,15.0885 16.0136,0 32.82166,-14.1033 32.82166,-28.6993 0,-9.7998 -7.70573,-15.2701 -17.26563,-15.2701 -14.95391,0 -32.82167,13.6108 -32.82167,28.8809"
     id="path420"
     style="stroke-width:1.59909" />
  <path
     class="Note"
     d="m 330.72247,2372.4847 c 0,7.1294 4.76793,15.0885 17.26564,15.0885 16.0136,0 32.82166,-14.1033 32.82166,-28.6993 0,-9.7997 -7.70573,-15.27 -17.26563,-15.27 -14.95391,0 -32.82167,13.6108 -32.82167,28.8808"
     id="path422"
     style="stroke-width:1.59909" />
  <path
     class="Clef"
     d="m 374.43937,1152.068 c 0,-6.1443 -5.22541,-8.7886 -10.30643,-8.7886 -6.47759,0 -12.81079,4.3035 -12.81079,11.7701 0,3.1629 1.08358,5.4961 3.25091,7.8034 -4.02149,1.6593 -8.0189,4.9777 -8.0189,10.1369 0,5.4702 4.62345,9.1257 11.41419,9.1257 8.30771,0 14.1593,-4.9777 14.1593,-12.1331 0,-3.8111 -1.54116,-6.948 -4.31043,-9.1257 4.47904,-2.1518 6.62215,-4.7962 6.62215,-8.7887 m -15.41148,26.5475 c -3.37127,0 -5.68299,-2.3073 -5.68299,-5.8073 0,-3.3184 1.37256,-5.9627 3.99729,-7.622 0.62616,0.337 0.77058,0.337 1.22814,0.6481 1.85416,1.0112 1.85416,1.0112 2.16731,1.3482 2.91369,1.8148 4.16587,3.474 4.16587,5.8073 0,3.1369 -2.48031,5.6257 -5.87562,5.6257 m 5.87562,-19.9106 c -2.31172,-1.3221 -2.93788,-1.6593 -3.39529,-1.9963 l -0.31316,-0.1555 c -2.31172,-1.5037 -3.08229,-2.6704 -3.08229,-4.6407 0,-3.0073 2.1673,-5.1591 5.2496,-5.1591 2.91369,0 4.76786,1.9961 4.76786,5.4703 0,2.6703 -0.915,4.4849 -3.22672,6.4812 m 42.98355,-125.9451 c 0,-25.0439 -16.49507,-41.97305 -38.98626,-41.97305 -1.54114,-9.95535 -2.93775,-19.75525 -4.31029,-29.03638 16.18205,-18.43294 27.57206,-39.32868 27.57206,-65.53921 0,-15.11449 -4.31043,-27.37713 -6.93516,-33.36525 -3.68427,-8.45208 -8.16331,-14.25936 -10.78804,-14.25936 -1.05954,0 -5.99598,1.99606 -10.93259,8.45208 -10.01745,12.62501 -12.7866,33.67636 -12.7866,47.62411 0,8.97024 0.77057,17.08483 3.39529,35.85475 -0.16858,0 -8.18734,8.78872 -11.41418,11.77017 -14.03878,13.94775 -33.4477,34.16946 -33.4477,67.19844 0,31.1882 25.11593,55.5839 53.79577,55.5839 4.45484,0 8.62073,-0.4927 12.32919,-1.1667 2.76915,15.7885 4.62344,27.5585 4.62344,36.3472 0,17.2664 -8.3319,26.3921 -23.88779,26.3921 -3.70847,0 -6.93517,-0.8296 -7.24832,-1.0111 -0.14448,0 -0.45742,-0.1555 -0.45742,-0.3111 0,-0.337 0.313,-0.5185 0.77057,-0.6742 7.24816,-1.1665 14.4723,-7.9589 14.4723,-18.4069 0,-8.9701 -6.30914,-18.4329 -17.86775,-18.4329 -10.78804,0 -17.57866,9.4628 -17.57866,20.4033 0,10.9664 7.70575,25.4068 28.51124,25.4068 19.89038,0 29.59483,-12.1331 29.59483,-33.366 0,-6.4553 -0.91498,-13.9218 -2.45612,-23.3845 -0.45759,-3.3184 -1.22816,-8.4776 -2.31173,-14.7775 15.09833,-5.4703 26.34392,-22.2438 26.34392,-39.3287 M 360.42449,896.70368 c 1.54114,-6.63688 8.47631,-24.0587 16.49521,-24.0587 2.31172,0 6.16459,7.95896 6.16459,19.5735 0,17.08483 -12.01619,30.04749 -22.6598,41.48051 -0.91499,-6.63688 -1.68556,-13.27376 -1.68556,-20.06611 0,-6.29988 0.60197,-11.79605 1.68556,-16.9292 m 4.62345,171.57362 c -22.03349,0 -40.84039,-16.5921 -40.84039,-41.6619 0,-20.2218 13.24426,-38.31756 26.82563,-51.09871 2.60069,-2.33336 5.08102,-4.64074 7.39274,-7.12954 1.37254,8.94416 2.45613,16.59224 3.53971,23.56602 -14.03878,4.30375 -23.57464,20.40333 -23.57464,35.82883 0,11.7961 8.47632,27.7142 20.80551,27.7142 1.22799,0 2.62472,-0.674 2.62472,-2.3332 0,-1.3223 -1.39673,-2.3075 -3.3953,-3.6297 -6.02019,-3.8368 -9.41549,-8.296 -9.41549,-16.281 0,-10.1109 7.10377,-18.2515 16.03751,-20.5588 l 8.93387,54.4173 c -3.0823,0.6741 -5.85158,1.1665 -8.93387,1.1665 m 15.41148,-3.1628 c -3.22672,-19.7291 -7.39259,-46.1212 -8.47632,-53.4322 15.55603,0 22.20222,11.6147 23.57478,19.5996 0.16859,1.3222 0.45755,3.137 0.45755,5.1333 0,11.9515 -4.62344,23.9032 -15.55601,28.6993"
     id="path424"
     style="stroke-width:1.59909" />
  <path
     class="Clef"
     d="m 181.79587,2484.482 c 0,-6.1442 -5.22541,-8.7886 -10.30643,-8.7886 -6.47759,0 -12.81079,4.3035 -12.81079,11.7701 0,3.1629 1.08358,5.4961 3.2509,7.8035 -4.02147,1.6592 -8.01889,4.9776 -8.01889,10.1368 0,5.4703 4.62344,9.1257 11.41419,9.1257 8.30772,0 14.15929,-4.9776 14.15929,-12.1331 0,-3.811 -1.54114,-6.948 -4.31043,-9.1257 4.47905,-2.1518 6.62216,-4.7962 6.62216,-8.7887 m -15.41148,26.5476 c -3.37126,0 -5.68299,-2.3074 -5.68299,-5.8073 0,-3.3184 1.37255,-5.9628 3.9973,-7.622 0.62615,0.3369 0.77057,0.3369 1.22813,0.6481 1.85416,1.0111 1.85416,1.0111 2.16732,1.3481 2.91368,1.8147 4.16587,3.474 4.16587,5.8073 0,3.1369 -2.48032,5.6258 -5.87563,5.6258 m 5.87563,-19.9107 c -2.31172,-1.3222 -2.93788,-1.6592 -3.3953,-1.9963 l -0.31316,-0.1555 c -2.31172,-1.5036 -3.08229,-2.6703 -3.08229,-4.6406 0,-3.0074 2.16731,-5.1591 5.2496,-5.1591 2.9137,0 4.76787,1.9962 4.76787,5.4702 0,2.6703 -0.915,4.485 -3.22672,6.4813 m 42.98354,-125.9451 c 0,-25.0439 -16.49506,-41.9731 -38.98625,-41.9731 -1.54115,-9.9554 -2.93776,-19.7551 -4.31029,-29.0363 16.18205,-18.433 27.57205,-39.3288 27.57205,-65.5393 0,-15.1144 -4.31043,-27.3771 -6.93517,-33.3652 -3.68426,-8.4522 -8.1633,-14.2594 -10.78803,-14.2594 -1.05954,0 -5.99599,1.996 -10.93259,8.4521 -10.01745,12.625 -12.7866,33.6763 -12.7866,47.6241 0,8.9702 0.77058,17.0848 3.3953,35.8548 -0.1686,0 -8.18734,8.7887 -11.41419,11.77 -14.03878,13.9479 -33.4477,34.1696 -33.4477,67.1985 0,31.1881 25.11593,55.5839 53.79578,55.5839 4.45483,0 8.62072,-0.4927 12.32918,-1.1666 2.76914,15.7884 4.62344,27.5585 4.62344,36.3473 0,17.2662 -8.3319,26.3919 -23.88778,26.3919 -3.70848,0 -6.93517,-0.8296 -7.24833,-1.0111 -0.14448,0 -0.45742,-0.1555 -0.45742,-0.3111 0,-0.337 0.313,-0.5185 0.77058,-0.6741 7.24816,-1.1666 14.47229,-7.9591 14.47229,-18.407 0,-8.9701 -6.30913,-18.4328 -17.86774,-18.4328 -10.78804,0 -17.57866,9.4627 -17.57866,20.4032 0,10.9664 7.70574,25.4068 28.51123,25.4068 19.89038,0 29.59484,-12.1331 29.59484,-33.3658 0,-6.4555 -0.91498,-13.922 -2.45613,-23.3848 -0.45758,-3.3184 -1.22816,-8.4775 -2.31173,-14.7774 15.09833,-5.4701 26.34392,-22.2438 26.34392,-39.3286 m -47.46257,-136.0561 c 1.54115,-6.6369 8.47632,-24.0587 16.49521,-24.0587 2.31172,0 6.16459,7.959 6.16459,19.5736 0,17.0848 -12.01619,30.0474 -22.6598,41.4805 -0.91499,-6.6369 -1.68557,-13.2738 -1.68557,-20.0662 0,-6.2998 0.60199,-11.796 1.68557,-16.9292 m 4.62344,171.5737 c -22.03348,0 -40.84039,-16.5922 -40.84039,-41.662 0,-20.2217 13.24428,-38.3176 26.82564,-51.0987 2.60069,-2.3334 5.08103,-4.6406 7.39275,-7.1296 1.37254,8.9443 2.45612,16.5923 3.53971,23.5662 -14.03879,4.3036 -23.57464,20.4032 -23.57464,35.8288 0,11.796 8.47632,27.7142 20.8055,27.7142 1.22799,0 2.62472,-0.6741 2.62472,-2.3334 0,-1.3222 -1.39673,-2.3073 -3.39529,-3.6294 -6.0202,-3.837 -9.4155,-8.2962 -9.4155,-16.2812 0,-10.1109 7.10378,-18.2514 16.0375,-20.5588 l 8.93388,54.4173 c -3.08229,0.6741 -5.85157,1.1666 -8.93388,1.1666 m 15.41149,-3.1629 c -3.22672,-19.7291 -7.39259,-46.1211 -8.47632,-53.432 15.55603,0 22.20223,11.6145 23.57478,19.5995 0.16859,1.3222 0.45756,3.137 0.45756,5.1332 0,11.9516 -4.62344,23.9031 -15.55602,28.6993"
     id="path426"
     style="stroke-width:1.59909" />
  <path
     class="TimeSig"
     d="m 476.29962,971.21294 v 12.26283 h -12.78675 c -1.08358,0 -2.16716,1.01097 -2.16716,2.33315 v 3.163 c 0,1.32208 1.08358,2.30727 2.16716,2.30727 h 46.692 c 1.25218,0 2.16718,-0.98519 2.16718,-2.30727 v -3.163 c 0,-1.32218 -0.915,-2.33315 -2.16718,-2.33315 h -13.87033 v -12.26283 h 13.87033 c 1.25218,0 2.16718,-1.16653 2.16718,-2.48881 v -3.16285 c 0,-1.16663 -0.915,-2.30735 -2.16718,-2.30735 h -13.87033 v -26.39198 c 0,-0.98515 -0.45756,-1.81477 -1.05954,-2.15179 l -1.85415,-1.01109 c -0.31316,-0.15556 -0.45757,-0.15556 -0.77057,-0.15556 -0.16861,0 -0.16861,0 -0.31316,0 -0.45742,0 -1.08358,0.15556 -1.3966,0.49259 l -14.01488,13.76634 c -0.45741,0.51851 -0.62602,1.16665 -0.62602,1.8407 v 13.61079 H 458.4319 c 0,0 17.26575,-19.91064 35.44638,-46.14714 0.62615,-0.82962 0.77057,-1.65923 0.77057,-2.30731 0,-0.82961 -0.31302,-1.5036 -0.45743,-1.65922 l -3.39545,-3.65543 c -0.45741,-0.337 -0.91498,-0.67415 -1.54114,-0.67415 -0.91499,0 -21.74453,0 -22.97268,0 -1.08357,0 -1.85414,1.01114 -1.9987,1.99636 0,0 -0.77058,12.28855 -4.76793,25.71789 -4.02144,13.45524 -8.64488,21.75134 -12.64223,27.86972 0,0 -0.45753,0.8296 -0.45753,1.84069 0,0.33703 0,0.64822 0.14449,0.9852 0.45753,1.16661 1.54114,2.98143 1.54114,2.98143 0,0 0.31305,1.01097 1.68564,1.01097 h 26.51259"
     id="path428"
     style="stroke-width:1.59909" />
  <path
     class="TimeSig"
     d="m 476.29962,1054.174 v 12.2628 h -12.78675 c -1.08358,0 -2.16716,1.011 -2.16716,2.3332 v 3.163 c 0,1.322 1.08358,2.3072 2.16716,2.3072 h 46.692 c 1.25218,0 2.16718,-0.9852 2.16718,-2.3072 v -3.163 c 0,-1.3222 -0.915,-2.3332 -2.16718,-2.3332 h -13.87033 v -12.2628 h 13.87033 c 1.25218,0 2.16718,-1.1666 2.16718,-2.4888 v -3.1629 c 0,-1.1667 -0.915,-2.3074 -2.16718,-2.3074 h -13.87033 v -26.3919 c 0,-0.9852 -0.45756,-1.8148 -1.05954,-2.1519 l -1.85415,-1.011 c -0.31316,-0.1556 -0.45757,-0.1556 -0.77057,-0.1556 -0.16861,0 -0.16861,0 -0.31316,0 -0.45742,0 -1.08358,0.1556 -1.3966,0.4927 l -14.01488,13.7663 c -0.45741,0.5184 -0.62602,1.1666 -0.62602,1.8406 v 13.6108 H 458.4319 c 0,0 17.26575,-19.9106 35.44638,-46.1471 0.62615,-0.82963 0.77057,-1.65926 0.77057,-2.30726 0,-0.82964 -0.31302,-1.50362 -0.45743,-1.65928 l -3.39545,-3.65544 c -0.45741,-0.33699 -0.91498,-0.67408 -1.54114,-0.67408 -0.91499,0 -21.74453,0 -22.97268,0 -1.08357,0 -1.85414,1.01107 -1.9987,1.99637 0,0 -0.77058,12.28849 -4.76793,25.71789 -4.02144,13.4552 -8.64488,21.7513 -12.64223,27.8696 0,0 -0.45753,0.8297 -0.45753,1.8408 0,0.3369 0,0.6482 0.14449,0.9852 0.45753,1.1666 1.54114,2.9814 1.54114,2.9814 0,0 0.31305,1.011 1.68564,1.011 h 26.51259"
     id="path430"
     style="stroke-width:1.59909" />
  <path
     class="Harmony"
     d="m 591.2728,564.1178 h -20.02561 v 3.94567 h 1.48056 c 4.41682,0.0786 5.89893,0.34121 6.43181,1.17751 0.55929,0.73093 0.55929,0.8363 0.55929,5.17336 v 32.04201 c 0,11.367 -1.48056,13.72035 -9.03094,14.1385 v 3.9189 h 22.13846 v -3.9189 c -7.4525,-0.41815 -8.93306,-2.7715 -8.93306,-14.1385 v -36.9812 l 18.49689,55.0386 h 3.10715 l 17.33325,-55.0386 v 44.74207 c 0,4.28688 0,4.44243 -0.46141,5.27873 -0.63075,0.8363 -2.11287,1.0989 -6.52969,1.0989 h -1.40909 v 3.9189 h 25.48953 v -3.9189 h -1.40909 c -4.41682,0 -5.89738,-0.2626 -6.52968,-1.0989 -0.46141,-0.8363 -0.46141,-0.91324 -0.46141,-5.27873 v -39.80288 c 0,-4.26012 0,-4.44243 0.46141,-5.17336 0.6323,-0.8363 2.11286,-1.0989 6.52968,-1.17751 h 1.40909 V 564.1178 H 620.42722 L 606.20267,608.70266 591.2728,564.1178 m 63.38126,0.60047 c -2.49971,0 -4.51469,2.16936 -4.51469,4.83549 0,2.69121 2.01498,4.86058 4.44167,4.86058 2.54942,0 4.56441,-2.16937 4.56441,-4.86058 0,-2.66613 -2.01499,-4.83549 -4.49139,-4.83549 m 3.64158,20.83057 -14.58964,0.91324 v 3.6078 h 3.95696 c 2.93782,0.0787 3.32622,0.5737 3.32622,4.1815 v 23.91318 c -0.0731,1.25445 -0.14604,1.74954 -0.46142,2.16769 -0.53443,0.75936 -2.01499,1.0989 -5.3645,1.17751 h -0.53443 v 3.00399 h 20.12348 v -3.00399 h -0.55774 c -5.19516,-0.18398 -5.89893,-0.60213 -5.89893,-3.6078 v -32.35312 m 24.05558,0 -13.81129,0.91324 v 3.6078 h 3.17862 c 2.93781,0.0787 3.3262,0.5737 3.3262,4.1815 v 23.91318 c -0.073,1.25445 -0.14603,1.74954 -0.46141,2.16769 -0.53443,0.75936 -2.01498,1.0989 -5.3645,1.17751 h -0.29052 v 3.00399 h 19.56419 v -3.00399 h -0.31537 c -5.12215,-0.18398 -5.82592,-0.60213 -5.82592,-3.68641 v -15.47156 c 0,-7.44809 3.81093,-12.96265 8.86005,-12.96265 4.41837,0 6.67572,3.42381 6.67572,10.19282 v 18.65954 c -0.073,1.09889 -0.14604,1.6726 -0.53443,2.09075 -0.45985,0.75936 -2.01344,1.0989 -5.3645,1.17751 h -0.31537 v 3.00399 h 19.66206 v -3.00399 h -0.31538 c -5.12214,-0.18398 -5.8259,-0.60213 -5.8259,-3.6078 v -14.79081 c 0,-8.363 3.49554,-13.72201 8.93305,-13.72201 4.44323,0 6.6027,3.6078 6.6027,11.13449 v 17.64093 c -0.073,1.17583 -0.14447,1.74954 -0.53287,2.16769 -0.46141,0.75936 -2.01499,1.0989 -5.36606,1.17751 h -0.31537 v 3.00399 h 19.66362 v -3.00399 h -0.31693 c -5.12059,-0.18398 -5.82591,-0.60213 -5.82591,-3.68641 v -18.97232 c 0,-5.20179 -0.45986,-6.953 -2.47485,-9.80144 -2.25735,-3.0826 -5.43751,-4.7552 -9.17697,-4.7552 -5.04913,0 -8.78703,2.58584 -12.11169,8.363 -1.33608,-5.0178 -5.53539,-8.363 -10.73056,-8.363 -4.73374,0 -8.15627,2.43029 -11.19041,7.68225 v -6.4278"
     id="path438"
     style="stroke-width:1.61199" />
  <polyline
     class="FretDiagram"
     fill="none"
     stroke="#000000"
     stroke-width="7.44"
     stroke-linejoin="bevel"
     points="531.991,533.31 620.775,533.31"
     id="polyline542"
     transform="matrix(1.5535766,0,0,1.672601,-242.5737,-207.76917)" />
  <polyline
     class="FretDiagram"
     fill="none"
     stroke="#000000"
     stroke-width="1.98"
     stroke-linejoin="bevel"
     points="532.983,536.038 532.983,606.47"
     id="polyline544"
     transform="matrix(1.5535766,0,0,1.672601,-242.5737,-207.76917)" />
  <polyline
     class="FretDiagram"
     fill="none"
     stroke="#000000"
     stroke-width="1.98"
     stroke-linejoin="bevel"
     points="550.343,536.038 550.343,606.47"
     id="polyline546"
     transform="matrix(1.5535766,0,0,1.672601,-242.5737,-207.76917)" />
  <polyline
     class="FretDiagram"
     fill="none"
     stroke="#000000"
     stroke-width="1.98"
     stroke-linejoin="bevel"
     points="567.703,536.038 567.703,606.47"
     id="polyline548"
     transform="matrix(1.5535766,0,0,1.672601,-242.5737,-207.76917)" />
  <polyline
     class="FretDiagram"
     fill="none"
     stroke="#000000"
     stroke-width="1.98"
     stroke-linejoin="bevel"
     points="585.063,536.038 585.063,606.47"
     id="polyline550"
     transform="matrix(1.5535766,0,0,1.672601,-242.5737,-207.76917)" />
  <polyline
     class="FretDiagram"
     fill="none"
     stroke="#000000"
     stroke-width="1.98"
     stroke-linejoin="bevel"
     points="602.423,536.038 602.423,606.47"
     id="polyline552"
     transform="matrix(1.5535766,0,0,1.672601,-242.5737,-207.76917)" />
  <polyline
     class="FretDiagram"
     fill="none"
     stroke="#000000"
     stroke-width="1.98"
     stroke-linejoin="bevel"
     points="619.783,536.038 619.783,606.47"
     id="polyline554"
     transform="matrix(1.5535766,0,0,1.672601,-242.5737,-207.76917)" />
  <polyline
     class="FretDiagram"
     fill="none"
     stroke="#000000"
     stroke-width="1.98"
     stroke-linejoin="bevel"
     points="532.983,553.398 619.783,553.398"
     id="polyline556"
     transform="matrix(1.5535766,0,0,1.672601,-242.5737,-207.76917)" />
  <polyline
     class="FretDiagram"
     fill="none"
     stroke="#000000"
     stroke-width="1.98"
     stroke-linejoin="bevel"
     points="532.983,570.758 619.783,570.758"
     id="polyline558"
     transform="matrix(1.5535766,0,0,1.672601,-242.5737,-207.76917)" />
  <polyline
     class="FretDiagram"
     fill="none"
     stroke="#000000"
     stroke-width="1.98"
     stroke-linejoin="bevel"
     points="532.983,588.118 619.783,588.118"
     id="polyline560"
     transform="matrix(1.5535766,0,0,1.672601,-242.5737,-207.76917)" />
  <polyline
     class="FretDiagram"
     fill="none"
     stroke="#000000"
     stroke-width="1.98"
     stroke-linejoin="bevel"
     points="532.983,605.478 619.783,605.478"
     id="polyline562"
     transform="matrix(1.5535766,0,0,1.672601,-242.5737,-207.76917)" />
  <path
     class="FretDiagram"
     fill-rule="evenodd"
     d="m 622.05847,732.36307 c 0,5.72866 -4.31117,10.37013 -9.63217,10.37013 -5.31945,0 -9.63218,-4.64147 -9.63218,-10.37013 0,-5.72699 4.31273,-10.37013 9.63218,-10.37013 5.321,0 9.63217,4.64314 9.63217,10.37013"
     id="path564"
     style="stroke-width:1.61199" />
  <path
     class="FretDiagram"
     fill-rule="evenodd"
     d="m 649.02856,732.36307 c 0,5.72866 -4.31117,10.37013 -9.63217,10.37013 -5.31945,0 -9.63218,-4.64147 -9.63218,-10.37013 0,-5.72699 4.31273,-10.37013 9.63218,-10.37013 5.321,0 9.63217,4.64314 9.63217,10.37013"
     id="path566"
     style="stroke-width:1.61199" />
  <path
     class="FretDiagram"
     fill="none"
     stroke="#000000"
     stroke-width="3.83654"
     stroke-linejoin="bevel"
     fill-rule="evenodd"
     d="m 596.24424,658.11297 c 0,6.41441 -4.83006,11.61453 -10.78803,11.61453 -5.95797,0 -10.78804,-5.20012 -10.78804,-11.61453 0,-6.41443 4.83007,-11.61455 10.78804,-11.61455 5.95797,0 10.78803,5.20012 10.78803,11.61455"
     id="path568" />
  <path
     class="FretDiagram"
     fill="none"
     stroke="#000000"
     stroke-width="3.83654"
     stroke-linejoin="bevel"
     fill-rule="evenodd"
     d="m 677.15451,658.11297 c 0,6.41441 -4.83006,11.61453 -10.78803,11.61453 -5.95797,0 -10.78804,-5.20012 -10.78804,-11.61453 0,-6.41443 4.83007,-11.61455 10.78804,-11.61455 5.95797,0 10.78803,5.20012 10.78803,11.61455"
     id="path570" />
  <path
     class="FretDiagram"
     fill="none"
     stroke="#000000"
     stroke-width="3.83654"
     stroke-linejoin="bevel"
     fill-rule="evenodd"
     d="m 704.1246,658.11297 c 0,6.41441 -4.83006,11.61453 -10.78803,11.61453 -5.95797,0 -10.78804,-5.20012 -10.78804,-11.61453 0,-6.41443 4.83007,-11.61455 10.78804,-11.61455 5.95797,0 10.78803,5.20012 10.78803,11.61455"
     id="path572" />
  <path
     class="FretDiagram"
     fill="none"
     stroke="#000000"
     stroke-width="3.83654"
     stroke-linejoin="bevel"
     fill-rule="evenodd"
     d="m 731.09469,658.11297 c 0,6.41441 -4.83006,11.61453 -10.78803,11.61453 -5.95797,0 -10.78804,-5.20012 -10.78804,-11.61453 0,-6.41443 4.83007,-11.61455 10.78804,-11.61455 5.95797,0 10.78803,5.20012 10.78803,11.61455"
     id="path574" />
  <metadata
     id="metadata809">
    <rdf:RDF>
      <cc:Work
         rdf:about="">
        <dc:title>rythmique_1</dc:title>
      </cc:Work>
    </rdf:RDF>
  </metadata>
</svg>
