<?xml version="1.0" encoding="UTF-8" standalone="no"?>
<svg
   width="297mm"
   height="210mm"
   viewBox="0 0 1122.5197 793.7008"
   version="1.2"
   id="svg122"
   sodipodi:docname="savez_vous_planter_les_choux.svg"
   inkscape:version="1.3 (0e150ed6c4, 2023-07-21)"
   xmlns:inkscape="http://www.inkscape.org/namespaces/inkscape"
   xmlns:sodipodi="http://sodipodi.sourceforge.net/DTD/sodipodi-0.dtd"
   xmlns="http://www.w3.org/2000/svg"
   xmlns:svg="http://www.w3.org/2000/svg"
   xmlns:rdf="http://www.w3.org/1999/02/22-rdf-syntax-ns#"
   xmlns:cc="http://creativecommons.org/ns#"
   xmlns:dc="http://purl.org/dc/elements/1.1/">
  <defs
     id="defs122" />
  <sodipodi:namedview
     id="namedview122"
     pagecolor="#ffffff"
     bordercolor="#000000"
     borderopacity="0.25"
     inkscape:showpageshadow="2"
     inkscape:pageopacity="0.0"
     inkscape:pagecheckerboard="0"
     inkscape:deskcolor="#d1d1d1"
     inkscape:zoom="0.56078321"
     inkscape:cx="671.38244"
     inkscape:cy="431.53931"
     inkscape:window-width="1440"
     inkscape:window-height="872"
     inkscape:window-x="-8"
     inkscape:window-y="-8"
     inkscape:window-maximized="1"
     inkscape:current-layer="svg122"
     inkscape:document-units="mm" />
  <title
     id="title1">savez_vous_planter_les_choux</title>
  <desc
     id="desc1">Generated by MuseScore Studio 4.3.2</desc>
  <polyline
     class="StaffLines"
     fill="none"
     stroke="#000000"
     stroke-width="2.73"
     stroke-linejoin="bevel"
     points="336.598,634.198 2764.6,634.198"
     id="polyline1"
     transform="matrix(0.42700742,0,0,0.42700742,-76.120364,-77.3753)" />
  <polyline
     class="StaffLines"
     fill="none"
     stroke="#000000"
     stroke-width="2.73"
     stroke-linejoin="bevel"
     points="336.598,658.998 2764.6,658.998"
     id="polyline2"
     transform="matrix(0.42700742,0,0,0.42700742,-76.120364,-77.3753)" />
  <polyline
     class="StaffLines"
     fill="none"
     stroke="#000000"
     stroke-width="2.73"
     stroke-linejoin="bevel"
     points="336.598,683.798 2764.6,683.798"
     id="polyline3"
     transform="matrix(0.42700742,0,0,0.42700742,-76.120364,-77.3753)" />
  <polyline
     class="StaffLines"
     fill="none"
     stroke="#000000"
     stroke-width="2.73"
     stroke-linejoin="bevel"
     points="336.598,708.598 2764.6,708.598"
     id="polyline4"
     transform="matrix(0.42700742,0,0,0.42700742,-76.120364,-77.3753)" />
  <polyline
     class="StaffLines"
     fill="none"
     stroke="#000000"
     stroke-width="2.73"
     stroke-linejoin="bevel"
     points="336.598,733.398 2764.6,733.398"
     id="polyline5"
     transform="matrix(0.42700742,0,0,0.42700742,-76.120364,-77.3753)" />
  <polyline
     class="StaffLines"
     fill="none"
     stroke="#000000"
     stroke-width="2.73"
     stroke-linejoin="bevel"
     points="212.598,1241.8 2764.6,1241.8"
     id="polyline6"
     transform="matrix(0.42700742,0,0,0.42700742,-76.120364,-77.3753)" />
  <polyline
     class="StaffLines"
     fill="none"
     stroke="#000000"
     stroke-width="2.73"
     stroke-linejoin="bevel"
     points="212.598,1266.6 2764.6,1266.6"
     id="polyline7"
     transform="matrix(0.42700742,0,0,0.42700742,-76.120364,-77.3753)" />
  <polyline
     class="StaffLines"
     fill="none"
     stroke="#000000"
     stroke-width="2.73"
     stroke-linejoin="bevel"
     points="212.598,1291.4 2764.6,1291.4"
     id="polyline8"
     transform="matrix(0.42700742,0,0,0.42700742,-76.120364,-77.3753)" />
  <polyline
     class="StaffLines"
     fill="none"
     stroke="#000000"
     stroke-width="2.73"
     stroke-linejoin="bevel"
     points="212.598,1316.2 2764.6,1316.2"
     id="polyline9"
     transform="matrix(0.42700742,0,0,0.42700742,-76.120364,-77.3753)" />
  <polyline
     class="StaffLines"
     fill="none"
     stroke="#000000"
     stroke-width="2.73"
     stroke-linejoin="bevel"
     points="212.598,1341 2764.6,1341"
     id="polyline10"
     transform="matrix(0.42700742,0,0,0.42700742,-76.120364,-77.3753)" />
  <polyline
     class="StaffLines"
     fill="none"
     stroke="#000000"
     stroke-width="2.73"
     stroke-linejoin="bevel"
     points="212.598,1849.4 2764.6,1849.4"
     id="polyline11"
     transform="matrix(0.42700742,0,0,0.42700742,-76.120364,-77.3753)" />
  <polyline
     class="StaffLines"
     fill="none"
     stroke="#000000"
     stroke-width="2.73"
     stroke-linejoin="bevel"
     points="212.598,1874.2 2764.6,1874.2"
     id="polyline12"
     transform="matrix(0.42700742,0,0,0.42700742,-76.120364,-77.3753)" />
  <polyline
     class="StaffLines"
     fill="none"
     stroke="#000000"
     stroke-width="2.73"
     stroke-linejoin="bevel"
     points="212.598,1899 2764.6,1899"
     id="polyline13"
     transform="matrix(0.42700742,0,0,0.42700742,-76.120364,-77.3753)" />
  <polyline
     class="StaffLines"
     fill="none"
     stroke="#000000"
     stroke-width="2.73"
     stroke-linejoin="bevel"
     points="212.598,1923.8 2764.6,1923.8"
     id="polyline14"
     transform="matrix(0.42700742,0,0,0.42700742,-76.120364,-77.3753)" />
  <polyline
     class="StaffLines"
     fill="none"
     stroke="#000000"
     stroke-width="2.73"
     stroke-linejoin="bevel"
     points="212.598,1948.6 2764.6,1948.6"
     id="polyline15"
     transform="matrix(0.42700742,0,0,0.42700742,-76.120364,-77.3753)" />
  <path
     class="Text"
     d="m 270.25139,14.226334 h -1.74134 l -1.87499,2.815683 c -2.25502,-2.114965 -5.21759,-3.242691 -8.55338,-3.242691 -6.19845,0 -10.28148,3.903274 -10.28148,9.821169 0,5.117684 2.53514,7.652831 9.4407,9.441132 l 4.46351,1.127304 c 3.47627,0.894151 3.80335,0.987669 4.79059,1.734928 1.40784,1.080756 2.16194,2.63549 2.16194,4.463513 0,1.881388 -0.70755,3.429297 -2.11539,4.743621 -1.55431,1.314333 -3.10221,1.834849 -5.68433,1.834849 -7.09216,0 -10.61497,-5.217598 -11.8362,-11.555675 h -2.02146 l 0.1866,13.383699 h 1.83486 l 2.11496,-3.188896 c 3.14277,2.582116 5.72488,3.522815 9.86131,3.522815 6.90555,0 11.32252,-4.043332 11.32252,-10.334861 0,-2.962575 -0.94069,-5.404633 -2.82251,-7.186109 -1.26736,-1.220814 -3.0958,-2.021455 -6.8586,-2.962145 l -5.02417,-1.267793 c -4.17656,-1.080757 -6.15147,-2.908771 -6.15147,-5.777837 0,-3.289231 2.67564,-5.544262 6.672,-5.544262 6.05795,0 9.39416,5.03058 10.66195,10.381409 h 2.01462 l -0.56024,-12.209853 m 25.04654,19.068869 c 0,-2.955742 -0.51369,-4.463935 -1.88139,-5.591232 -1.54791,-1.267784 -3.8499,-1.874993 -6.85218,-1.874993 -5.3107,0 -9.1606,2.488599 -9.1606,5.918325 0,1.734506 1.08076,2.862232 2.72217,2.862232 1.50136,0 2.53515,-0.987669 2.53515,-2.39551 0,-0.60721 -0.23314,-1.267363 -0.7003,-1.921533 -0.28694,-0.333499 -0.33349,-0.427007 -0.33349,-0.660583 0,-0.9407 1.8814,-1.78788 4.13643,-1.78788 1.50136,0 3.14918,0.473548 3.89644,1.174266 0.89415,0.754101 1.22081,1.881398 1.22081,3.996362 v 1.828445 c -4.88368,0.84719 -6.43159,1.220814 -8.73358,2.114974 -4.08988,1.507763 -6.01142,3.662863 -6.01142,6.671987 0,3.382758 2.62867,5.497722 6.81206,5.497722 3.23586,0 6.1519,-1.321158 8.17335,-3.716246 0.74725,2.395088 1.92153,3.335779 4.13002,3.335779 2.11496,0 4.32345,-1.360872 4.32345,-2.722166 0,-0.327094 -0.18703,-0.567065 -0.47398,-0.567065 -0.18661,0 -0.37364,0.05338 -0.7003,0.193431 -0.66057,0.280116 -0.94069,0.327085 -1.31432,0.327085 -1.32117,0 -1.78832,-0.84761 -1.78832,-3.24269 v -9.44071 m -4.41696,5.730868 c 0,2.815683 -0.14006,3.476266 -0.93387,4.69708 -1.17427,1.734936 -3.28923,2.909202 -5.35766,2.909202 -2.1615,0 -3.70941,-1.5479 -3.70941,-3.662873 0,-1.968502 0.98725,-3.382748 3.04884,-4.363583 1.46121,-0.660583 3.28923,-1.127727 6.9521,-1.74134 v 2.161514 m 21.81112,3.709842 -5.35767,-12.396452 c -0.14005,-0.380468 -0.23357,-0.754101 -0.23357,-1.034217 0,-0.80064 0.61361,-1.080757 2.53514,-1.080757 h 0.66059 v -1.69479 h -11.08897 v 1.69479 h 0.38047 c 1.78148,0 2.44205,0.466722 3.0958,2.021457 l 8.07984,18.881841 h 1.64782 l 6.66558,-16.486753 c 1.31433,-3.19573 2.44163,-4.276486 4.37,-4.416545 h 0.18702 v -1.69479 h -9.39416 v 1.69479 h 0.66015 c 1.64143,0 2.53558,0.560241 2.53558,1.640998 0,0.567064 -0.14007,1.267784 -0.42701,1.974906 l -4.31661,10.895522 m 31.89872,-4.884118 c 0.0466,-7.045621 -3.94981,-12.022817 -9.6811,-12.022817 -6.01142,0 -10.5219,5.210772 -10.5219,12.256393 0,6.625449 4.27692,11.042414 10.61542,11.042414 4.51003,0 7.65922,-2.208483 9.58758,-6.671988 l -1.64825,-0.89416 c -1.92153,3.616325 -3.89644,5.024176 -7.04562,5.024176 -2.39507,0 -4.13001,-0.980843 -5.35083,-3.095807 -0.84718,-1.407842 -1.22081,-3.056094 -1.17427,-5.638211 h 15.21897 m -15.17242,-2.021446 c 0,-3.289239 1.50136,-7.98632 5.44435,-7.98632 2.82251,0 4.69708,2.495432 4.69708,6.298354 0,1.314332 -0.42018,1.687966 -1.92154,1.687966 h -8.21989 m 36.06377,-9.300652 h -16.95518 l -0.42701,7.93978 h 1.88182 c 0.37362,-4.176985 2.20763,-5.964873 5.96529,-5.918325 h 4.0822 l -12.81664,18.181123 v 1.687957 h 18.26952 l 0.32452,-8.406494 h -1.87456 c -0.47398,4.603563 -2.30158,6.431588 -6.48625,6.385039 h -4.78676 l 12.82305,-18.17429 v -1.69479 m 4.50066,8.833501 v 3.896448 h 11.69572 v -3.896448 h -11.69572 m 26.40187,7.372715 -5.35895,-12.396452 c -0.13664,-0.380468 -0.23059,-0.754101 -0.23059,-1.034217 0,-0.80064 0.6149,-1.080757 2.53643,-1.080757 h 0.6576 v -1.69479 H 382.8998 v 1.69479 h 0.38002 c 1.78489,0 2.44249,0.466722 3.09581,2.021457 l 8.08325,18.881841 h 1.64826 l 6.6613,-16.486753 c 1.31519,-3.19573 2.44248,-4.276486 4.37256,-4.416545 h 0.18789 v -1.69479 h -9.39417 v 1.69479 h 0.65759 c 1.64397,0 2.53643,0.560241 2.53643,1.640998 0,0.567064 -0.14091,1.267784 -0.42701,1.974906 l -4.31704,10.895522 m 21.89267,-16.906935 c -5.77741,0 -10.24391,5.117684 -10.24391,11.696162 0,6.431588 4.51346,11.602645 10.14996,11.602645 5.6365,0 10.1457,-5.171057 10.1457,-11.649615 0,-6.43842 -4.5092,-11.649192 -10.05175,-11.649192 m 0,2.015051 c 3.28795,0 5.11554,3.429297 5.11554,9.634141 0,6.244981 -1.82759,9.627739 -5.20949,9.627739 -3.3819,0 -5.20949,-3.382758 -5.20949,-9.580769 0,-6.391871 1.78062,-9.681111 5.30344,-9.681111 m 30.99646,20.903289 8.55297,-0.327086 v -2.021455 h -1.17428 c -2.72857,-0.09351 -2.96344,-0.373625 -2.96344,-3.429297 V 26.529697 l -8.82623,0.520525 v 2.021455 h 2.39551 c 1.78061,0.04658 2.01547,0.327086 2.01547,2.348541 v 5.771424 c 0,4.08988 -0.98211,9.067077 -6.15318,9.067077 -1.45182,0 -2.67306,-0.513691 -3.28795,-1.454381 -0.60635,-0.89416 -0.70029,-1.361302 -0.70029,-3.943419 V 26.529697 l -8.2199,0.520525 v 2.021455 h 1.78063 c 1.78916,0.04658 2.024,0.327086 2.024,2.348541 v 10.141419 c 0,2.395091 0.18362,3.476268 0.89245,4.557025 1.26822,1.927937 3.52282,3.009123 6.33679,3.009123 3.10435,0 5.265,-1.267784 7.32745,-4.276907 v 3.89644 m 27.58041,-22.731313 h -1.64398 l -1.36215,1.687966 c -1.69095,-1.314332 -3.3819,-1.874993 -5.73045,-1.874993 -4.13342,0 -6.862,2.675626 -6.862,6.812054 0,4.410132 2.86949,5.537858 6.62715,6.432008 l 2.48946,0.567065 c 3.70642,0.887325 5.0216,1.828024 5.0216,3.709412 0,2.208484 -1.92153,3.756392 -4.6501,3.756392 -3.98826,0 -6.8065,-2.535148 -7.93381,-7.232228 h -1.87883 v 8.873637 h 1.63972 l 1.64823,-1.921533 c 1.92153,1.547908 4.03523,2.302 6.43074,2.302 4.60314,0 7.66052,-2.869066 7.66052,-7.239052 0,-2.062022 -0.66187,-3.663304 -1.97277,-4.74406 -1.12731,-0.980835 -2.071,-1.360873 -4.93194,-1.968073 l -2.34854,-0.520525 c -2.5834,-0.560232 -2.5834,-0.560232 -3.42887,-1.034209 -1.03336,-0.467151 -1.64398,-1.45439 -1.64398,-2.488597 0,-1.921534 1.78489,-3.235866 4.36402,-3.235866 3.85586,0 5.73043,2.722174 6.862,6.011413 h 1.64398 v -7.892811 m 26.13712,0.513692 -8.12594,0.520525 v 2.021455 h 1.69521 c 1.78062,0.04658 2.0112,0.327086 2.0112,2.348541 v 22.964879 c -0.0469,0.660583 -0.0896,0.940698 -0.27755,1.174275 -0.32879,0.420603 -1.22123,0.614035 -3.24525,0.660583 h -0.18361 v 1.687956 h 12.21668 v -1.687956 h -0.52096 c -3.1513,-0.09352 -3.56978,-0.333499 -3.56978,-2.021455 v -8.88048 c 1.54577,2.728579 3.28796,3.809765 6.19589,3.809765 6.25139,0 9.4881,-6.158305 9.4881,-11.742703 0,-5.311124 -3.23671,-11.556104 -9.19774,-11.556104 -2.91647,0 -4.84654,1.221244 -6.48625,4.036507 v -3.335788 m 5.63651,1.834849 c 3.24097,0 5.1198,3.242269 5.1198,8.733587 0,6.064787 -1.87883,9.48768 -5.26072,9.48768 -3.38189,0 -5.54256,-3.476275 -5.54256,-8.874075 0,-5.871347 2.11368,-9.347192 5.68348,-9.347192 m 21.40587,-14.56522 -8.6896,0.520525 v 2.021447 h 2.30157 c 1.73792,0.04694 1.9685,0.327094 1.9685,2.34854 v 26.16104 c -0.0469,0.707123 -0.0939,0.987667 -0.27755,1.220814 -0.32879,0.420602 -1.22125,0.614034 -3.24526,0.660583 h -0.32452 v 1.687957 h 12.16117 v -1.687957 h -0.32453 c -3.14277,-0.09992 -3.56978,-0.333498 -3.56978,-2.021455 V 13.799326 m 26.59402,19.495877 c 0,-2.955742 -0.51667,-4.463935 -1.88309,-5.591232 -1.54577,-1.267784 -3.84735,-1.874993 -6.85347,-1.874993 -5.3077,0 -9.15931,2.488599 -9.15931,5.918325 0,1.734506 1.08032,2.862232 2.7243,2.862232 1.4988,0 2.53215,-0.987669 2.53215,-2.39551 0,-0.60721 -0.23058,-1.267363 -0.70028,-1.921533 -0.2861,-0.333499 -0.33307,-0.427007 -0.33307,-0.660583 0,-0.9407 1.8831,-1.78788 4.1377,-1.78788 1.49879,0 3.14704,0.473548 3.89431,1.174266 0.89671,0.754101 1.22124,1.881398 1.22124,3.996362 v 1.828445 c -4.8807,0.84719 -6.43073,1.220814 -8.7323,2.114974 -4.09074,1.507763 -6.01227,3.662863 -6.01227,6.671987 0,3.382758 2.63037,5.497722 6.81504,5.497722 3.23244,0 6.1489,-1.321158 8.17292,-3.716246 0.74727,2.395088 1.92154,3.335779 4.12917,3.335779 2.11368,0 4.32131,-1.360872 4.32131,-2.722166 0,-0.327094 -0.18362,-0.567065 -0.47398,-0.567065 -0.18361,0 -0.37149,0.05338 -0.70029,0.193431 -0.65759,0.280116 -0.93941,0.327085 -1.31518,0.327085 -1.31946,0 -1.7849,-0.84761 -1.7849,-3.24269 v -9.44071 m -4.41952,5.730868 c 0,2.815683 -0.13664,3.476266 -0.93088,4.69708 -1.17427,1.734936 -3.29223,2.909202 -5.35894,2.909202 -2.16066,0 -3.7107,-1.5479 -3.7107,-3.662873 0,-1.968502 0.98639,-3.382748 3.04884,-4.363583 1.46037,-0.660583 3.29222,-1.127727 6.95168,-1.74134 v 2.161514 m 18.63033,-12.496374 -8.12595,0.520525 v 2.021455 h 1.69523 c 1.78061,0.04658 2.0112,0.327086 2.0112,2.348541 v 13.43066 c -0.0427,0.707123 -0.0896,0.987667 -0.27756,1.220814 -0.3288,0.420602 -1.22125,0.614034 -3.24525,0.660583 h -0.18362 v 1.687957 h 11.88361 v -1.687957 h -0.18787 c -3.15132,-0.09992 -3.56979,-0.333498 -3.56979,-2.021455 v -6.952104 c 0,-2.302001 0.32453,-4.416965 0.84548,-5.497722 0.99065,-2.114974 3.0958,-3.569785 5.11982,-3.569785 1.22124,0 2.62609,0.660584 3.33493,1.648252 0.70883,1.027374 1.03334,2.441629 1.03334,4.697082 v 9.814335 c -0.0469,0.707123 -0.0939,0.987667 -0.27755,1.220814 -0.33732,0.420602 -1.27675,0.614034 -3.29222,0.660583 h -0.18788 v 1.687957 h 11.88361 v -1.687957 h -0.1836 c -3.10435,-0.09992 -3.52282,-0.333498 -3.52282,-2.021455 v -9.440711 c 0,-3.382749 -0.14946,-4.230359 -0.99066,-5.824807 -1.17427,-2.255022 -3.52281,-3.616324 -6.34533,-3.616324 -3.04883,0 -5.35041,1.407842 -7.41712,4.510483 v -3.809764 m 28.32767,0 v -9.300644 h -1.9258 c -0.46971,6.111327 -2.53643,9.207134 -6.34106,9.494075 v 1.828024 h 3.85162 V 40.52743 c 0,3.289239 0.0939,4.463505 0.55938,5.544262 0.75579,1.974907 2.63462,3.056093 5.35892,3.056093 4.22738,0 6.95169,-3.196151 6.95169,-8.173347 0,-0.286951 0,-0.613614 -0.0469,-1.080757 h -1.97705 c -0.13664,4.223104 -1.35788,6.385038 -3.65944,6.385038 -1.08034,0 -2.02402,-0.560661 -2.34855,-1.361293 -0.28183,-0.660154 -0.42273,-1.834428 -0.42273,-3.522816 V 28.551152 h 6.9047 v -2.021455 h -6.9047 m 31.51742,11.322098 c 0.0469,-7.045621 -3.94982,-12.022817 -9.68027,-12.022817 -6.01226,0 -10.52145,5.210772 -10.52145,12.256393 0,6.625449 4.27861,11.042414 10.6154,11.042414 4.50919,0 7.6605,-2.208483 9.58632,-6.671988 l -1.64399,-0.89416 c -1.92153,3.616325 -3.89857,5.024176 -7.04561,5.024176 -2.39551,0 -4.13344,-0.980843 -5.35468,-3.095807 -0.84547,-1.407842 -1.22125,-3.056094 -1.17427,-5.638211 h 15.21855 m -15.17157,-2.021446 c 0,-3.289239 1.50305,-7.98632 5.44433,-7.98632 2.82253,0 4.69709,2.495432 4.69709,6.298354 0,1.314332 -0.41848,1.687966 -1.92154,1.687966 h -8.21988 m 26.11577,-9.300652 -8.31384,0.520525 v 2.021455 h 1.92153 c 1.78916,0.04658 2.02402,0.327086 2.02402,2.348541 v 13.43066 c -0.0469,0.707123 -0.0939,0.987667 -0.28183,1.220814 -0.3288,0.420602 -1.26821,0.614034 -3.28796,0.660583 h -0.18788 v 1.687957 h 12.54121 v -1.687957 h -0.84547 c -3.15132,-0.09992 -3.56978,-0.333498 -3.56978,-2.021455 v -2.535568 c 0.0469,-7.892811 2.86094,-13.904215 6.52467,-14.091243 -0.65332,0.747259 -0.84121,1.221235 -0.84121,2.108561 0,1.507763 1.08032,2.58852 2.5834,2.58852 1.73364,0 2.86095,-1.267363 2.86095,-3.149181 0,-2.301572 -1.59274,-3.802931 -4.0822,-3.802931 -2.96343,0 -5.49984,2.34854 -7.04561,6.525104 v -5.824385 m 34.44241,-12.730371 -8.6896,0.520525 v 2.021447 h 2.30157 c 1.73791,0.04694 1.9685,0.327094 1.9685,2.34854 v 26.16104 c -0.0469,0.707123 -0.0939,0.987667 -0.27755,1.220814 -0.3288,0.420602 -1.22124,0.614034 -3.24525,0.660583 h -0.32453 v 1.687957 h 12.16116 v -1.687957 h -0.32451 c -3.14279,-0.09992 -3.56979,-0.333498 -3.56979,-2.021455 V 13.799326 m 27.20464,24.052469 c 0.047,-7.045621 -3.94982,-12.022817 -9.68025,-12.022817 -6.01226,0 -10.52147,5.210772 -10.52147,12.256393 0,6.625449 4.27863,11.042414 10.6154,11.042414 4.5092,0 7.66053,-2.208483 9.58632,-6.671988 l -1.64398,-0.89416 c -1.92153,3.616325 -3.89857,5.024176 -7.04562,5.024176 -2.39551,0 -4.13342,-0.980843 -5.35468,-3.095807 -0.84547,-1.407842 -1.22123,-3.056094 -1.17425,-5.638211 h 15.21853 m -15.17157,-2.021446 c 0,-3.289239 1.50307,-7.98632 5.44435,-7.98632 2.82251,0 4.69708,2.495432 4.69708,6.298354 0,1.314332 -0.41847,1.687966 -1.92153,1.687966 h -8.2199 m 35.13411,-9.814344 h -1.64393 l -1.36215,1.687966 c -1.69095,-1.314332 -3.3819,-1.874993 -5.73043,-1.874993 -4.13344,0 -6.86201,2.675626 -6.86201,6.812054 0,4.410132 2.86949,5.537858 6.62715,6.432008 l 2.48946,0.567065 c 3.70638,0.887325 5.02159,1.828024 5.02159,3.709412 0,2.208484 -1.92152,3.756392 -4.6501,3.756392 -3.98824,0 -6.80649,-2.535148 -7.93379,-7.232228 h -1.87885 v 8.873637 h 1.63973 l 1.64824,-1.921533 c 1.92153,1.547908 4.03522,2.302 6.43073,2.302 4.60306,0 7.66047,-2.869066 7.66047,-7.239052 0,-2.062022 -0.66182,-3.663304 -1.97273,-4.74406 -1.12731,-0.980835 -2.071,-1.360873 -4.93193,-1.968073 l -2.34855,-0.520525 c -2.58339,-0.560232 -2.58339,-0.560232 -3.42886,-1.034209 -1.03337,-0.467151 -1.64399,-1.45439 -1.64399,-2.488597 0,-1.921534 1.7849,-3.235866 4.36402,-3.235866 3.85588,0 5.7304,2.722174 6.862,6.011413 h 1.64393 v -7.892811 m 34.86944,15.499094 c -1.49875,3.382327 -3.09575,4.74362 -5.53827,4.74362 -3.75336,0 -6.10192,-3.429298 -6.10192,-8.920606 0,-5.731298 2.30154,-9.494084 5.76881,-9.494084 1.41339,0 2.63465,0.660575 2.63465,1.414246 0,0.140488 -0.0465,0.280546 -0.28609,0.560661 -0.74726,0.89415 -0.93517,1.360872 -0.93517,2.161513 0,1.547899 1.17432,2.629086 2.81827,2.629086 1.69525,0 2.86949,-1.314332 2.86949,-3.189317 0,-3.195731 -3.15128,-5.59124 -7.336,-5.59124 -6.10191,0 -10.47446,4.977196 -10.47446,12.022817 0,6.671997 3.99681,11.27599 9.82116,11.27599 4.17611,0 6.5717,-1.928368 8.59567,-6.905563 l -1.83614,-0.707123 m 11.71713,-27.715773 -8.68964,0.520525 v 2.021447 h 2.25891 c 1.78062,0.04694 2.01116,0.327094 2.01116,2.34854 v 26.207588 c -0.043,0.660575 -0.0896,0.941119 -0.27756,1.174266 -0.32882,0.420602 -1.22127,0.614034 -3.24525,0.660583 h -0.1836 v 1.687957 h 11.88363 v -1.687957 h -0.18792 c -3.15127,-0.09992 -3.56973,-0.333498 -3.56973,-2.021455 v -6.952104 c 0,-2.302001 0.3245,-4.416965 0.84543,-5.497722 1.03335,-2.114974 3.09584,-3.569785 5.11981,-3.569785 1.22126,0 2.62614,0.707554 3.28795,1.648252 0.75587,1.027374 1.08037,2.441629 1.08037,4.743621 v 9.814344 c -0.0475,0.660575 -0.094,0.941119 -0.27756,1.174266 -0.33731,0.420602 -1.2768,0.614034 -3.29226,0.660583 H 776.4 v 1.687957 h 11.88356 v -1.687957 h -0.18362 c -3.10434,-0.09992 -3.5228,-0.333498 -3.5228,-2.021455 v -9.440711 c 0,-3.382749 -0.1494,-4.230359 -0.99063,-5.824807 -1.17423,-2.301992 -3.5228,-3.616324 -6.34536,-3.616324 -3.04881,0 -5.30343,1.361302 -7.41705,4.510483 V 13.799326 m 31.05194,12.029652 c -5.77741,0 -10.24392,5.117684 -10.24392,11.696162 0,6.431588 4.51344,11.602645 10.14996,11.602645 5.63652,0 10.14575,-5.171057 10.14575,-11.649615 0,-6.43842 -4.50923,-11.649192 -10.05179,-11.649192 m 0,2.015051 c 3.28796,0 5.11551,3.429297 5.11551,9.634141 0,6.244981 -1.82755,9.627739 -5.20947,9.627739 -3.38191,0 -5.20946,-3.382758 -5.20946,-9.580769 0,-6.391871 1.78061,-9.681111 5.30342,-9.681111 m 30.9965,20.903289 8.55296,-0.327086 v -2.021455 h -1.17433 c -2.72852,-0.09351 -2.96336,-0.373625 -2.96336,-3.429297 V 26.529697 l -8.82632,0.520525 v 2.021455 h 2.3955 c 1.78071,0.04658 2.01555,0.327086 2.01555,2.348541 v 5.771424 c 0,4.08988 -0.98212,9.067077 -6.15324,9.067077 -1.45181,0 -2.67308,-0.513691 -3.28795,-1.454381 -0.6063,-0.89416 -0.70026,-1.361302 -0.70026,-3.943419 V 26.529697 l -8.21993,0.520525 v 2.021455 h 1.78062 c 1.7892,0.04658 2.02405,0.327086 2.02405,2.348541 v 10.141419 c 0,2.395091 0.18362,3.476268 0.89246,4.557025 1.2682,1.927937 3.5228,3.009123 6.33678,3.009123 3.10433,0 5.26499,-1.267784 7.32747,-4.276907 v 3.89644 m 24.62552,-12.302934 5.35895,-6.251814 c 1.17425,-1.361302 2.25452,-1.968083 3.52281,-1.968083 h 0.41847 v -1.69479 h -9.71869 v 1.69479 h 0.89236 c 1.40918,0 2.11803,0.326665 2.11803,1.033788 0,0.467143 -0.33731,1.127726 -0.94369,1.874994 l -2.96346,3.569354 -3.61247,-4.603571 c -0.28186,-0.373634 -0.46968,-0.747259 -0.46968,-1.027375 0,-0.614043 0.60628,-0.84719 2.07099,-0.84719 h 0.65331 v -1.69479 h -11.13207 v 1.69479 c 1.7379,0.140059 2.39549,0.560241 3.89854,2.535148 l 5.7304,7.185679 -5.40159,6.291958 c -1.597,1.78788 -2.95915,2.541973 -4.22735,2.495003 h -0.28617 v 1.687957 h 9.91511 v -1.687957 h -0.70455 c -1.08458,0 -1.31513,-0.04658 -1.64393,-0.193441 -0.38004,-0.233567 -0.66191,-0.653739 -0.66191,-1.080747 0,-0.327094 0.14098,-0.747267 0.38434,-1.027383 l 3.94126,-4.697081 3.56984,4.743621 c 0.3245,0.467151 0.60628,1.080757 0.60628,1.407851 0,0.607199 -0.70024,0.84718 -2.48945,0.84718 h -0.32451 v 1.687957 h 11.83661 v -1.687957 h -0.3288 c -1.64823,0 -2.72001,-0.613613 -4.09067,-2.301571 l -5.91831,-7.98632"
     id="path15"
     style="stroke-width:0.427008" />
  <path
     class="MeasureNumber"
     d="m 23.834802,419.61436 h -0.92746 l -7.953011,8.2327 v 0.7131 h 4.810667 l -0.273708,1.0419 c -0.340326,1.29811 -0.340326,1.29811 -1.828022,1.29811 h -0.307017 l -0.09991,0.80277 h 5.310705 l 0.08674,-0.80277 h -0.307017 c -1.127296,0 -1.367705,-0.0855 -1.367705,-0.4569 0,-0.14092 0.03338,-0.30746 0.173801,-0.84121 l 0.286516,-1.0419 h 1.948429 l 0.253646,-0.92234 h -1.961677 l 2.155113,-8.02346 m -3.809761,8.02346 h -3.829832 l 5.277811,-5.43153 -1.447976,5.43153"
     id="path16"
     style="stroke-width:0.427008" />
  <path
     class="MeasureNumber"
     d="m 23.387721,679.1281 c -0.907387,0.10245 -2.015037,0.17509 -2.96897,0.17509 -0.480391,0 -1.02739,-0.0214 -1.641423,-0.0556 -0.567061,-0.0299 -1.127723,-0.0641 -1.708032,-0.0982 l -0.427008,-0.0214 -1.654648,3.60395 0.62727,0.20497 0.413772,-0.68749 c 0.800632,-1.32372 1.174269,-1.51162 2.91561,-1.4988 h 2.888698 l -1.86132,2.6688 c -2.188411,3.07018 -2.188411,3.07018 -3.022353,4.43661 -0.75411,1.21269 -1.061115,1.95997 -1.061115,2.57484 0,0.6021 0.380462,0.97358 0.974422,0.97358 0.63368,0 0.953945,-0.30743 1.180679,-1.10595 0.854016,-3.21109 1.367705,-4.32557 3.736316,-8.16011 l 1.608102,-2.49372 v -0.51668"
     id="path17"
     style="stroke-width:0.427008" />
  <polyline
     class="BarLine"
     fill="none"
     stroke="#000000"
     stroke-width="4.46"
     stroke-linejoin="bevel"
     points="1194.71,1848.03 1194.71,1949.96"
     id="polyline17"
     transform="matrix(0.42700742,0,0,0.42700742,-76.120364,-77.3753)" />
  <polyline
     class="BarLine"
     fill="none"
     stroke="#000000"
     stroke-width="4.46"
     stroke-linejoin="bevel"
     points="1969.99,632.834 1969.99,734.762"
     id="polyline18"
     transform="matrix(0.42700742,0,0,0.42700742,-76.120364,-77.3753)" />
  <polyline
     class="BarLine"
     fill="none"
     stroke="#000000"
     stroke-width="4.46"
     stroke-linejoin="bevel"
     points="2762.37,1240.43 2762.37,1342.36"
     id="polyline19"
     transform="matrix(0.42700742,0,0,0.42700742,-76.120364,-77.3753)" />
  <polyline
     class="BarLine"
     fill="none"
     stroke="#000000"
     stroke-width="4.46"
     stroke-linejoin="bevel"
     points="2739.55,1848.03 2739.55,1949.96"
     id="polyline20"
     transform="matrix(0.42700742,0,0,0.42700742,-76.120364,-77.3753)" />
  <polyline
     class="BarLine"
     fill="none"
     stroke="#000000"
     stroke-width="13.64"
     stroke-linejoin="bevel"
     points="2757.78,1848.03 2757.78,1949.96"
     id="polyline21"
     transform="matrix(0.42700742,0,0,0.42700742,-76.120364,-77.3753)" />
  <polyline
     class="BarLine"
     fill="none"
     stroke="#000000"
     stroke-width="4.46"
     stroke-linejoin="bevel"
     points="1069.66,632.834 1069.66,734.762"
     id="polyline22"
     transform="matrix(0.42700742,0,0,0.42700742,-76.120364,-77.3753)" />
  <polyline
     class="BarLine"
     fill="none"
     stroke="#000000"
     stroke-width="4.46"
     stroke-linejoin="bevel"
     points="1982.34,1240.43 1982.34,1342.36"
     id="polyline23"
     transform="matrix(0.42700742,0,0,0.42700742,-76.120364,-77.3753)" />
  <polyline
     class="BarLine"
     fill="none"
     stroke="#000000"
     stroke-width="4.46"
     stroke-linejoin="bevel"
     points="1202.32,1240.43 1202.32,1342.36"
     id="polyline24"
     transform="matrix(0.42700742,0,0,0.42700742,-76.120364,-77.3753)" />
  <polyline
     class="BarLine"
     fill="none"
     stroke="#000000"
     stroke-width="4.46"
     stroke-linejoin="bevel"
     points="2072.23,1848.03 2072.23,1949.96"
     id="polyline25"
     transform="matrix(0.42700742,0,0,0.42700742,-76.120364,-77.3753)" />
  <polyline
     class="BarLine"
     fill="none"
     stroke="#000000"
     stroke-width="4.46"
     stroke-linejoin="bevel"
     points="2762.37,632.834 2762.37,734.762"
     id="polyline26"
     transform="matrix(0.42700742,0,0,0.42700742,-76.120364,-77.3753)" />
  <polyline
     class="LedgerLine"
     fill="none"
     stroke="#000000"
     stroke-width="3.97"
     stroke-linejoin="bevel"
     points="627.433,758.198 676.033,758.198"
     id="polyline27"
     transform="matrix(0.42700742,0,0,0.42700742,-76.120364,-77.3753)" />
  <polyline
     class="LedgerLine"
     fill="none"
     stroke="#000000"
     stroke-width="3.97"
     stroke-linejoin="bevel"
     points="843.339,758.198 891.94,758.198"
     id="polyline28"
     transform="matrix(0.42700742,0,0,0.42700742,-76.120364,-77.3753)" />
  <polyline
     class="LedgerLine"
     fill="none"
     stroke="#000000"
     stroke-width="3.97"
     stroke-linejoin="bevel"
     points="1786.1,1365.8 1834.7,1365.8"
     id="polyline29"
     transform="matrix(0.42700742,0,0,0.42700742,-76.120364,-77.3753)" />
  <polyline
     class="LedgerLine"
     fill="none"
     stroke="#000000"
     stroke-width="3.97"
     stroke-linejoin="bevel"
     points="1600.27,1365.8 1648.87,1365.8"
     id="polyline30"
     transform="matrix(0.42700742,0,0,0.42700742,-76.120364,-77.3753)" />
  <polyline
     class="Stem"
     fill="none"
     stroke="#000000"
     stroke-width="2.48"
     stroke-linejoin="bevel"
     points="1680.59,1919.83 1680.59,1849.43"
     id="polyline31"
     transform="matrix(0.42700742,0,0,0.42700742,-76.120364,-77.3753)" />
  <polyline
     class="Stem"
     fill="none"
     stroke="#000000"
     stroke-width="2.48"
     stroke-linejoin="bevel"
     points="803.062,1957.03 803.062,1880.36"
     id="polyline32"
     transform="matrix(0.42700742,0,0,0.42700742,-76.120364,-77.3753)" />
  <polyline
     class="Stem"
     fill="none"
     stroke="#000000"
     stroke-width="2.48"
     stroke-linejoin="bevel"
     points="1013.27,1944.63 1013.27,1874.23"
     id="polyline33"
     transform="matrix(0.42700742,0,0,0.42700742,-76.120364,-77.3753)" />
  <polyline
     class="Stem"
     fill="none"
     stroke="#000000"
     stroke-width="2.48"
     stroke-linejoin="bevel"
     points="1260.18,1932.23 1260.18,1855.53"
     id="polyline34"
     transform="matrix(0.42700742,0,0,0.42700742,-76.120364,-77.3753)" />
  <polyline
     class="Stem"
     fill="none"
     stroke="#000000"
     stroke-width="2.48"
     stroke-linejoin="bevel"
     points="666.609,766.63 666.609,689.998"
     id="polyline35"
     transform="matrix(0.42700742,0,0,0.42700742,-76.120364,-77.3753)" />
  <polyline
     class="Stem"
     fill="none"
     stroke="#000000"
     stroke-width="2.48"
     stroke-linejoin="bevel"
     points="1470.38,1907.43 1470.38,1843.27"
     id="polyline36"
     transform="matrix(0.42700742,0,0,0.42700742,-76.120364,-77.3753)" />
  <polyline
     class="Stem"
     fill="none"
     stroke="#000000"
     stroke-width="2.48"
     stroke-linejoin="bevel"
     points="1890.79,1932.23 1890.79,1855.56"
     id="polyline37"
     transform="matrix(0.42700742,0,0,0.42700742,-76.120364,-77.3753)" />
  <polyline
     class="Stem"
     fill="none"
     stroke="#000000"
     stroke-width="2.48"
     stroke-linejoin="bevel"
     points="882.516,766.63 882.516,689.998"
     id="polyline38"
     transform="matrix(0.42700742,0,0,0.42700742,-76.120364,-77.3753)" />
  <polyline
     class="Stem"
     fill="none"
     stroke="#000000"
     stroke-width="2.48"
     stroke-linejoin="bevel"
     points="2137.7,1944.63 2137.7,1861.8"
     id="polyline39"
     transform="matrix(0.42700742,0,0,0.42700742,-76.120364,-77.3753)" />
  <polyline
     class="Stem"
     fill="none"
     stroke="#000000"
     stroke-width="2.48"
     stroke-linejoin="bevel"
     points="1135.13,704.63 1135.13,634.198"
     id="polyline40"
     transform="matrix(0.42700742,0,0,0.42700742,-76.120364,-77.3753)" />
  <polyline
     class="Stem"
     fill="none"
     stroke="#000000"
     stroke-width="2.48"
     stroke-linejoin="bevel"
     points="1351.03,704.63 1351.03,634.198"
     id="polyline41"
     transform="matrix(0.42700742,0,0,0.42700742,-76.120364,-77.3753)" />
  <polyline
     class="Stem"
     fill="none"
     stroke="#000000"
     stroke-width="2.48"
     stroke-linejoin="bevel"
     points="1566.94,717.03 1566.94,640.363"
     id="polyline42"
     transform="matrix(0.42700742,0,0,0.42700742,-76.120364,-77.3753)" />
  <polyline
     class="Stem"
     fill="none"
     stroke="#000000"
     stroke-width="2.48"
     stroke-linejoin="bevel"
     points="1782.85,704.63 1782.85,634.234"
     id="polyline43"
     transform="matrix(0.42700742,0,0,0.42700742,-76.120364,-77.3753)" />
  <polyline
     class="Stem"
     fill="none"
     stroke="#000000"
     stroke-width="2.48"
     stroke-linejoin="bevel"
     points="1639.44,1374.23 1639.44,1297.6"
     id="polyline44"
     transform="matrix(0.42700742,0,0,0.42700742,-76.120364,-77.3753)" />
  <polyline
     class="Stem"
     fill="none"
     stroke="#000000"
     stroke-width="2.48"
     stroke-linejoin="bevel"
     points="2035.46,729.43 2035.46,646.598"
     id="polyline45"
     transform="matrix(0.42700742,0,0,0.42700742,-76.120364,-77.3753)" />
  <polyline
     class="Stem"
     fill="none"
     stroke="#000000"
     stroke-width="2.48"
     stroke-linejoin="bevel"
     points="2359.32,741.83 2359.32,665.163"
     id="polyline46"
     transform="matrix(0.42700742,0,0,0.42700742,-76.120364,-77.3753)" />
  <polyline
     class="Stem"
     fill="none"
     stroke="#000000"
     stroke-width="2.48"
     stroke-linejoin="bevel"
     points="1267.78,1312.23 1267.78,1241.84"
     id="polyline47"
     transform="matrix(0.42700742,0,0,0.42700742,-76.120364,-77.3753)" />
  <polyline
     class="Stem"
     fill="none"
     stroke="#000000"
     stroke-width="2.48"
     stroke-linejoin="bevel"
     points="2575.22,729.43 2575.22,659.034"
     id="polyline48"
     transform="matrix(0.42700742,0,0,0.42700742,-76.120364,-77.3753)" />
  <polyline
     class="Stem"
     fill="none"
     stroke="#000000"
     stroke-width="2.48"
     stroke-linejoin="bevel"
     points="487.754,1324.63 487.754,1248"
     id="polyline49"
     transform="matrix(0.42700742,0,0,0.42700742,-76.120364,-77.3753)" />
  <polyline
     class="Stem"
     fill="none"
     stroke="#000000"
     stroke-width="2.48"
     stroke-linejoin="bevel"
     points="1453.61,1337.03 1453.61,1247.96"
     id="polyline50"
     transform="matrix(0.42700742,0,0,0.42700742,-76.120364,-77.3753)" />
  <polyline
     class="Stem"
     fill="none"
     stroke="#000000"
     stroke-width="2.48"
     stroke-linejoin="bevel"
     points="673.585,1324.63 673.585,1248"
     id="polyline51"
     transform="matrix(0.42700742,0,0,0.42700742,-76.120364,-77.3753)" />
  <polyline
     class="Stem"
     fill="none"
     stroke="#000000"
     stroke-width="2.48"
     stroke-linejoin="bevel"
     points="859.416,1337.03 859.416,1266.56"
     id="polyline52"
     transform="matrix(0.42700742,0,0,0.42700742,-76.120364,-77.3753)" />
  <polyline
     class="Stem"
     fill="none"
     stroke="#000000"
     stroke-width="2.48"
     stroke-linejoin="bevel"
     points="1045.25,1324.63 1045.25,1260.44"
     id="polyline53"
     transform="matrix(0.42700742,0,0,0.42700742,-76.120364,-77.3753)" />
  <polyline
     class="Stem"
     fill="none"
     stroke="#000000"
     stroke-width="2.48"
     stroke-linejoin="bevel"
     points="1825.27,1374.23 1825.27,1297.6"
     id="polyline54"
     transform="matrix(0.42700742,0,0,0.42700742,-76.120364,-77.3753)" />
  <polyline
     class="Stem"
     fill="none"
     stroke="#000000"
     stroke-width="2.48"
     stroke-linejoin="bevel"
     points="2047.81,1312.23 2047.81,1241.8"
     id="polyline55"
     transform="matrix(0.42700742,0,0,0.42700742,-76.120364,-77.3753)" />
  <polyline
     class="Stem"
     fill="none"
     stroke="#000000"
     stroke-width="2.48"
     stroke-linejoin="bevel"
     points="2233.64,1312.23 2233.64,1241.8"
     id="polyline56"
     transform="matrix(0.42700742,0,0,0.42700742,-76.120364,-77.3753)" />
  <polyline
     class="Stem"
     fill="none"
     stroke="#000000"
     stroke-width="2.48"
     stroke-linejoin="bevel"
     points="2419.47,1324.63 2419.47,1247.96"
     id="polyline57"
     transform="matrix(0.42700742,0,0,0.42700742,-76.120364,-77.3753)" />
  <polyline
     class="Stem"
     fill="none"
     stroke="#000000"
     stroke-width="2.48"
     stroke-linejoin="bevel"
     points="2605.3,1312.23 2605.3,1241.84"
     id="polyline58"
     transform="matrix(0.42700742,0,0,0.42700742,-76.120364,-77.3753)" />
  <polyline
     class="Stem"
     fill="none"
     stroke="#000000"
     stroke-width="2.48"
     stroke-linejoin="bevel"
     points="487.754,1944.63 487.754,1861.8"
     id="polyline59"
     transform="matrix(0.42700742,0,0,0.42700742,-76.120364,-77.3753)" />
  <path
     class="Note"
     d="m 610.69971,512.90673 c 0,1.82011 1.31047,3.85202 4.74555,3.85202 4.40137,0 9.02117,-3.60052 9.02117,-7.32679 0,-2.50184 -2.11796,-3.89837 -4.74555,-3.89837 -4.11017,0 -9.02117,3.47477 -9.02117,7.37314"
     id="path59"
     style="stroke-width:0.423591" />
  <path
     class="Note"
     d="m 118.92038,491.72716 c 0,1.82012 1.31049,3.85202 4.74554,3.85202 4.4014,0 9.02119,-3.60053 9.02119,-7.32679 0,-2.50184 -2.11796,-3.89837 -4.74554,-3.89837 -4.11015,0 -9.02119,3.47477 -9.02119,7.37314"
     id="path60"
     style="stroke-width:0.423591" />
  <path
     class="Note"
     d="m 253.55925,761.76665 c 0,1.82011 1.31047,3.85205 4.74553,3.85205 4.4014,0 9.02119,-3.60054 9.02119,-7.32686 0,-2.50181 -2.11796,-3.89836 -4.74554,-3.89836 -4.11015,0 -9.02118,3.4748 -9.02118,7.37317"
     id="path61"
     style="stroke-width:0.423591" />
  <path
     class="Note"
     d="m 195.2928,253.45616 c 0,1.82013 1.31048,3.85204 4.74554,3.85204 4.4014,0 9.02118,-3.60053 9.02118,-7.32681 0,-2.50183 -2.11796,-3.89835 -4.74554,-3.89835 -4.11014,0 -9.02118,3.47476 -9.02118,7.37312"
     id="path62"
     style="stroke-width:0.423591" />
  <path
     class="Note"
     d="m 356.9719,491.72716 c 0,1.82012 1.31048,3.85202 4.74554,3.85202 4.40139,0 9.02117,-3.60053 9.02117,-7.32679 0,-2.50184 -2.11794,-3.89837 -4.74553,-3.89837 -4.11016,0 -9.02118,3.47477 -9.02118,7.37314"
     id="path63"
     style="stroke-width:0.423591" />
  <path
     class="Note"
     d="m 287.48627,253.45616 c 0,1.82013 1.31047,3.85204 4.74553,3.85204 4.4014,0 9.02119,-3.60053 9.02119,-7.32681 0,-2.50183 -2.11796,-3.89835 -4.74554,-3.89835 -4.11015,0 -9.02118,3.47476 -9.02118,7.37312"
     id="path64"
     style="stroke-width:0.423591" />
  <path
     class="Note"
     d="m 943.77827,491.72716 c 0,1.82012 1.31047,3.85202 4.74559,3.85202 4.40138,0 9.02113,-3.60053 9.02113,-7.32679 0,-2.50184 -2.11793,-3.89837 -4.74551,-3.89837 -4.11019,0 -9.02121,3.47477 -9.02121,7.37314"
     id="path65"
     style="stroke-width:0.423591" />
  <path
     class="Note"
     d="m 451.99812,486.43227 c 0,1.82012 1.3105,3.85203 4.74555,3.85203 4.40138,0 9.02117,-3.60053 9.02117,-7.32682 0,-2.50182 -2.11795,-3.89836 -4.74555,-3.89836 -4.11014,0 -9.02117,3.47479 -9.02117,7.37315"
     id="path66"
     style="stroke-width:0.423591" />
  <path
     class="Note"
     d="m 1023.1291,486.43227 c 0,1.82012 1.3106,3.85203 4.7456,3.85203 4.4014,0 9.0211,-3.60053 9.0211,-7.32682 0,-2.50182 -2.1179,-3.89836 -4.7455,-3.89836 -4.1102,0 -9.0212,3.47479 -9.0212,7.37315"
     id="path67"
     style="stroke-width:0.423591" />
  <path
     class="Note"
     d="m 1010.2847,237.57149 c 0,1.82012 1.3105,3.85203 4.7456,3.85203 4.4014,0 9.0212,-3.60052 9.0212,-7.3268 0,-2.50184 -2.1179,-3.89836 -4.7456,-3.89836 -4.1101,0 -9.0212,3.47476 -9.0212,7.37313"
     id="path68"
     style="stroke-width:0.423591" />
  <path
     class="Note"
     d="m 918.08949,242.86638 c 0,1.82011 1.31056,3.85205 4.74558,3.85205 4.40139,0 9.02114,-3.60054 9.02114,-7.32682 0,-2.50183 -2.11793,-3.89836 -4.7455,-3.89836 -4.1102,0 -9.02122,3.47476 -9.02122,7.37313"
     id="path69"
     style="stroke-width:0.423591" />
  <path
     class="Note"
     d="m 779.7989,237.57149 c 0,1.82012 1.31047,3.85203 4.74559,3.85203 4.40138,0 9.02113,-3.60052 9.02113,-7.3268 0,-2.50184 -2.11793,-3.89836 -4.7455,-3.89836 -4.11019,0 -9.02122,3.47476 -9.02122,7.37313"
     id="path70"
     style="stroke-width:0.423591" />
  <path
     class="Note"
     d="m 690.05048,512.90673 c 0,1.82011 1.3105,3.85202 4.74555,3.85202 4.40138,0 9.02118,-3.60052 9.02118,-7.32679 0,-2.50184 -2.11796,-3.89837 -4.74555,-3.89837 -4.11015,0 -9.02118,3.47477 -9.02118,7.37314"
     id="path71"
     style="stroke-width:0.423591" />
  <path
     class="Note"
     d="m 118.92038,756.47173 c 0,1.82011 1.31049,3.85206 4.74554,3.85206 4.4014,0 9.02119,-3.60055 9.02119,-7.32677 0,-2.50191 -2.11796,-3.89836 -4.74554,-3.89836 -4.11015,0 -9.02119,3.4747 -9.02119,7.37307"
     id="path72"
     style="stroke-width:0.423591" />
  <path
     class="Note"
     d="m 531.34892,497.02205 c 0,1.82011 1.31049,3.85203 4.74554,3.85203 4.40139,0 9.02117,-3.60052 9.02117,-7.3268 0,-2.50184 -2.11795,-3.89837 -4.74554,-3.89837 -4.11016,0 -9.02117,3.47477 -9.02117,7.37314"
     id="path73"
     style="stroke-width:0.423591" />
  <path
     class="Note"
     d="m 343.31791,756.47173 c 0,1.82011 1.31049,3.85206 4.74554,3.85206 4.40139,0 9.02118,-3.60055 9.02118,-7.32677 0,-2.50191 -2.11796,-3.89836 -4.74555,-3.89836 -4.11014,0 -9.02117,3.4747 -9.02117,7.37307"
     id="path74"
     style="stroke-width:0.423591" />
  <path
     class="Note"
     d="m 671.93256,226.98171 c 0,1.82011 1.3105,3.85204 4.74555,3.85204 4.40139,0 9.02117,-3.60054 9.02117,-7.32683 0,-2.50183 -2.11796,-3.89834 -4.74554,-3.89834 -4.11016,0 -9.02118,3.47477 -9.02118,7.37313"
     id="path75"
     style="stroke-width:0.423591" />
  <path
     class="Note"
     d="m 579.74167,232.27659 c 0,1.82013 1.31049,3.85205 4.74554,3.85205 4.40138,0 9.02118,-3.60054 9.02118,-7.32682 0,-2.50183 -2.11796,-3.89835 -4.74555,-3.89835 -4.11016,0 -9.02117,3.47477 -9.02117,7.37312"
     id="path76"
     style="stroke-width:0.423591" />
  <path
     class="Note"
     d="m 785.0767,486.43227 c 0,1.82012 1.31048,3.85203 4.7456,3.85203 4.40137,0 9.02112,-3.60053 9.02112,-7.32682 0,-2.50182 -2.11792,-3.89836 -4.7455,-3.89836 -4.11019,0 -9.02122,3.47479 -9.02122,7.37315"
     id="path77"
     style="stroke-width:0.423591" />
  <path
     class="Note"
     d="m 448.7486,751.17682 c 0,1.8202 1.31049,3.85205 4.74554,3.85205 4.40138,0 9.02118,-3.60055 9.02118,-7.32676 0,-2.50182 -2.11796,-3.89837 -4.74554,-3.89837 -4.11016,0 -9.02118,3.47472 -9.02118,7.37308"
     id="path78"
     style="stroke-width:0.423591" />
  <path
     class="Note"
     d="m 198.2716,491.72716 c 0,1.82012 1.31049,3.85202 4.74554,3.85202 4.40141,0 9.02119,-3.60053 9.02119,-7.32679 0,-2.50184 -2.11797,-3.89837 -4.74556,-3.89837 -4.11014,0 -9.02117,3.47477 -9.02117,7.37314"
     id="path79"
     style="stroke-width:0.423591" />
  <path
     class="Note"
     d="m 538.50983,740.58708 c 0,1.82012 1.31049,3.85206 4.74554,3.85206 4.40139,0 9.02117,-3.60055 9.02117,-7.32686 0,-2.50181 -2.11795,-3.89836 -4.74553,-3.89836 -4.11016,0 -9.02118,3.4748 -9.02118,7.37316"
     id="path80"
     style="stroke-width:0.423591" />
  <path
     class="Note"
     d="m 628.26679,745.88199 c 0,1.82012 1.31049,3.85198 4.74555,3.85198 4.40137,0 9.02117,-3.60047 9.02117,-7.32677 0,-2.50183 -2.11796,-3.89837 -4.74555,-3.89837 -4.11016,0 -9.02117,3.4748 -9.02117,7.37316"
     id="path81"
     style="stroke-width:0.423591" />
  <path
     class="Note"
     d="m 864.42749,486.43227 c 0,1.82012 1.31047,3.85203 4.74558,3.85203 4.40139,0 9.02114,-3.60053 9.02114,-7.32682 0,-2.50182 -2.11793,-3.89836 -4.7455,-3.89836 -4.1102,0 -9.02122,3.47479 -9.02122,7.37315"
     id="path82"
     style="stroke-width:0.423591" />
  <path
     class="Note"
     d="m 718.02802,751.17682 c 0,1.8202 1.31048,3.85205 4.74551,3.85205 4.40138,0 9.02122,-3.60055 9.02122,-7.32676 0,-2.50182 -2.11794,-3.89837 -4.7456,-3.89837 -4.1101,0 -9.02113,3.47472 -9.02113,7.37308"
     id="path83"
     style="stroke-width:0.423591" />
  <path
     class="Note"
     d="m 487.54649,226.98171 c 0,1.82011 1.31049,3.85204 4.74555,3.85204 4.40138,0 9.02117,-3.60054 9.02117,-7.32683 0,-2.50183 -2.11795,-3.89834 -4.74555,-3.89834 -4.11016,0 -9.02117,3.47477 -9.02117,7.37313"
     id="path84"
     style="stroke-width:0.423591" />
  <path
     class="Note"
     d="m 395.35133,226.98171 c 0,1.82011 1.31047,3.85204 4.74555,3.85204 4.40137,0 9.02117,-3.60054 9.02117,-7.32683 0,-2.50183 -2.11796,-3.89834 -4.74555,-3.89834 -4.11017,0 -9.02117,3.47477 -9.02117,7.37313"
     id="path85"
     style="stroke-width:0.423591" />
  <path
     class="Note"
     d="m 277.62239,497.02205 c 0,1.82011 1.31048,3.85203 4.74553,3.85203 4.40143,0 9.02119,-3.60052 9.02119,-7.3268 0,-2.50184 -2.11796,-3.89837 -4.74554,-3.89837 -4.11015,0 -9.02118,3.47477 -9.02118,7.37314"
     id="path86"
     style="stroke-width:0.423591" />
  <path
     class="Note"
     d="m 823.46043,756.47173 c 0,1.82011 1.31048,3.85206 4.74551,3.85206 4.40137,0 9.02122,-3.60055 9.02122,-7.32677 0,-2.50191 -2.11794,-3.89836 -4.7456,-3.89836 -4.1101,0 -9.02113,3.4747 -9.02113,7.37307"
     id="path87"
     style="stroke-width:0.423591" />
  <path
     class="Clef"
     d="m 102.66166,225.07555 c 0,-6.35388 -4.533751,-10.67583 -10.715556,-10.67583 -0.423589,-2.54155 -0.807447,-5.08309 -1.184698,-7.41285 4.447703,-4.70584 7.578303,-10.04043 7.578303,-16.73186 0,-3.89836 -1.18475,-6.98926 -1.906171,-8.518 -1.012629,-2.15777 -2.243723,-3.68694 -2.965135,-3.68694 -0.291228,0 -1.648019,0.55618 -3.004867,2.20437 -2.753346,3.22311 -3.514455,8.59742 -3.514455,12.15823 0,2.29006 0.2118,4.36166 0.933212,9.15355 -0.04631,0 -2.250329,2.24371 -3.137238,3.00487 -3.858629,3.56079 -9.193253,8.72331 -9.193253,17.15543 0,7.96222 6.903226,14.19032 14.786015,14.19032 1.224418,0 2.369431,-0.12576 3.388724,-0.29782 0.761109,4.07042 1.270767,7.03555 1.270767,9.27927 0,4.40802 -2.29006,6.73778 -6.525974,6.73778 -1.058967,0 -1.945842,-0.2118 -1.992192,-0.25814 -0.07946,0 -0.165451,-0.0397 -0.165451,-0.0795 0,-0.0859 0.08605,-0.13237 0.211801,-0.17209 1.992191,-0.29784 3.977776,-1.99219 3.977776,-4.6992 0,-2.29006 -1.7341,-4.70584 -4.911035,-4.70584 -2.925416,0 -4.831572,2.41578 -4.831572,5.20884 0,2.7997 2.117957,6.48625 7.836438,6.48625 5.466962,0 8.13427,-3.09751 8.13427,-8.51816 0,-1.64803 -0.25149,-3.5542 -0.675071,-5.96997 -0.125777,-0.84719 -0.337566,-2.16431 -0.635389,-3.77264 4.14983,-1.39653 7.240751,-5.67875 7.240751,-10.08015 M 89.616347,190.38075 c 0.4236,-1.69435 2.329757,-6.14207 4.533783,-6.14207 0.63539,0 1.694368,2.03189 1.694368,4.99703 0,4.36168 -3.302701,7.67098 -6.228151,10.58977 -0.251486,-1.69436 -0.463275,-3.38872 -0.463275,-5.12278 0,-1.60833 0.165451,-3.01147 0.463275,-4.32195 m 1.270778,43.80198 c -6.056001,0 -11.225163,-4.23591 -11.225163,-10.63611 0,-5.16253 3.686583,-9.78231 7.373153,-13.04527 0.714806,-0.5957 1.396533,-1.23109 2.031923,-1.82014 0.37724,2.28342 0.721424,4.23592 0.972909,6.01632 -3.858628,1.09871 -6.479591,5.20886 -6.479591,9.14694 0,3.01147 2.329746,7.07529 5.718471,7.07529 0.33752,0 0.721424,-0.17206 0.721424,-0.59566 0,-0.33755 -0.383904,-0.58907 -0.933213,-0.92663 -1.654671,-0.97955 -2.587896,-2.11795 -2.587896,-4.15648 0,-2.58126 1.952506,-4.65953 4.407983,-5.24857 l 2.455512,13.89249 c -0.847178,0.21179 -1.608333,0.29782 -2.455512,0.29782 m 4.235914,-0.80744 c -0.886874,-5.03678 -2.031876,-11.77453 -2.329745,-13.64101 4.275635,0 6.102375,2.96516 6.479625,5.0037 0.0463,0.33755 0.12577,0.80084 0.12577,1.31048 0,3.05118 -1.27078,6.14208 -4.27565,7.32683 m -1.654636,22.1988 c 0,-1.5686 -1.43623,-2.24368 -2.832763,-2.24368 -1.780403,0 -3.521108,1.09867 -3.521108,3.00484 0,0.80749 0.297835,1.40314 0.933224,1.99219 -1.098675,0.42359 -2.243734,1.27078 -2.243734,2.58789 0,1.39652 1.270778,2.32975 3.13725,2.32975 2.283408,0 3.891741,-1.27078 3.891741,-3.09751 0,-0.97295 -0.423589,-1.77379 -1.184732,-2.32976 1.23107,-0.54935 1.820122,-1.22444 1.820122,-2.24372 m -2.620974,1.69437 c -0.63539,-0.33752 -0.807482,-0.42359 -0.933213,-0.50962 l -0.04631,-0.0396 c -0.67512,-0.38392 -0.886909,-0.68174 -0.886909,-1.18474 0,-0.76777 0.595693,-1.31713 1.442871,-1.31713 0.847189,0 1.310475,0.50963 1.310475,1.39654 0,0.68173 -0.251485,1.14501 -0.886875,1.65464 m -1.61494,5.08309 c -0.926617,0 -1.562007,-0.58904 -1.562007,-1.48257 0,-0.80084 0.377263,-1.52226 1.098687,-1.94585 0.172092,0.0861 0.211789,0.12577 0.337555,0.16545 0.509623,0.25814 0.509623,0.25814 0.595692,0.34417 0.84719,0.46332 1.145013,0.88692 1.145013,1.48257 0,0.80085 -0.681727,1.43623 -1.61494,1.43623"
     id="path88"
     style="stroke-width:0.423591" />
  <path
     class="Clef"
     d="m 49.712729,484.52611 c 0,-6.35387 -4.533741,-10.67583 -10.71554,-10.67583 -0.423595,-2.54156 -0.807457,-5.0831 -1.18471,-7.41285 4.447715,-4.70583 7.578302,-10.04043 7.578302,-16.73186 0,-3.89837 -1.184736,-6.98926 -1.906154,-8.51799 -1.01264,-2.15779 -2.243718,-3.68695 -2.965146,-3.68695 -0.291213,0 -1.648018,0.55618 -3.004869,2.20438 -2.753344,3.2231 -3.51445,8.59741 -3.51445,12.15823 0,2.29005 0.211794,4.36166 0.933211,9.15354 -0.0463,0 -2.250328,2.24371 -3.137244,3.00486 -3.858616,3.5608 -9.19324,8.72333 -9.19324,17.15545 0,7.96218 6.903214,14.1903 14.786005,14.1903 1.224433,0 2.369436,-0.12575 3.388731,-0.29783 0.761107,4.07045 1.270777,7.03558 1.270777,9.27929 0,4.408 -2.290072,6.73776 -6.525983,6.73776 -1.058974,0 -1.945851,-0.2118 -1.992194,-0.25813 -0.07945,0 -0.165451,-0.0397 -0.165451,-0.0795 0,-0.0861 0.08599,-0.13239 0.211794,-0.17208 1.992193,-0.29785 3.977777,-1.99221 3.977777,-4.69923 0,-2.29005 -1.734095,-4.70583 -4.911033,-4.70583 -2.925408,0 -4.831565,2.41578 -4.831565,5.20885 0,2.79967 2.117957,6.48623 7.836434,6.48623 5.466964,0 8.134269,-3.09751 8.134269,-8.51815 0,-1.64803 -0.251481,-3.55419 -0.675076,-5.96999 -0.125762,-0.84718 -0.337564,-2.16429 -0.635387,-3.77261 4.149846,-1.39653 7.240742,-5.67877 7.240742,-10.08015 M 36.667432,449.83128 c 0.423595,-1.69436 2.329757,-6.14207 4.53378,-6.14207 0.635387,0 1.69437,2.03191 1.69437,4.99704 0,4.36167 -3.302701,7.67098 -6.22815,10.5898 -0.25149,-1.69437 -0.463284,-3.38873 -0.463284,-5.12281 0,-1.60833 0.16546,-3.01147 0.463284,-4.32196 m 1.270775,43.802 c -6.055997,0 -11.225158,-4.23591 -11.225158,-10.63612 0,-5.16252 3.686593,-9.78232 7.373143,-13.04529 0.714809,-0.59568 1.396539,-1.23106 2.031926,-1.82012 0.377244,2.28343 0.721419,4.23591 0.972909,6.01633 -3.858625,1.09868 -6.479596,5.20884 -6.479596,9.14692 0,3.01148 2.329749,7.0753 5.718481,7.0753 0.33752,0 0.721418,-0.17209 0.721418,-0.59567 0,-0.33756 -0.383898,-0.58906 -0.933212,-0.92662 -1.654673,-0.97955 -2.587893,-2.11796 -2.587893,-4.15649 0,-2.58125 1.952506,-4.6595 4.407982,-5.24856 l 2.455512,13.89247 c -0.847181,0.2118 -1.608331,0.29785 -2.455512,0.29785 m 4.235912,-0.80748 c -0.886877,-5.03676 -2.031881,-11.77451 -2.329749,-13.64097 4.275645,0 6.102378,2.96515 6.479631,5.00369 0.0463,0.33754 0.125762,0.80084 0.125762,1.31047 0,3.0512 -1.270775,6.14209 -4.275644,7.32681 m -1.654638,22.19884 c 0,-1.56861 -1.436226,-2.24371 -2.832764,-2.24371 -1.780391,0 -3.521105,1.09868 -3.521105,3.00485 0,0.80747 0.297833,1.40314 0.933221,1.99221 -1.098671,0.42358 -2.243719,1.27076 -2.243719,2.58787 0,1.39653 1.270766,2.32976 3.137233,2.32976 2.283416,0 3.891746,-1.27078 3.891746,-3.09751 0,-0.97295 -0.423586,-1.7738 -1.184736,-2.32976 1.231079,-0.54934 1.820124,-1.22444 1.820124,-2.24371 m -2.620971,1.69437 c -0.635388,-0.33756 -0.807483,-0.42359 -0.933211,-0.50964 l -0.0463,-0.0396 c -0.675112,-0.38388 -0.886913,-0.68173 -0.886913,-1.18475 0,-0.76775 0.595691,-1.31709 1.442881,-1.31709 0.847181,0 1.310463,0.50963 1.310463,1.39653 0,0.68171 -0.25149,1.14501 -0.886877,1.65465 m -1.614941,5.08309 c -0.926602,0 -1.561989,-0.58905 -1.561989,-1.48257 0,-0.80085 0.377252,-1.52227 1.09867,-1.94587 0.172096,0.086 0.211793,0.12575 0.337555,0.16547 0.509626,0.25813 0.509626,0.25813 0.595701,0.34416 0.84718,0.46331 1.145004,0.8869 1.145004,1.48257 0,0.80085 -0.681722,1.43624 -1.614941,1.43624"
     id="path89"
     style="stroke-width:0.423591" />
  <path
     class="Clef"
     d="m 49.712729,743.9758 c 0,-6.35387 -4.533741,-10.67581 -10.71554,-10.67581 -0.423595,-2.54158 -0.807457,-5.08308 -1.18471,-7.41284 4.447715,-4.70582 7.578302,-10.04046 7.578302,-16.73187 0,-3.89836 -1.184736,-6.98926 -1.906154,-8.51799 -1.01264,-2.1578 -2.243718,-3.68696 -2.965146,-3.68696 -0.291213,0 -1.648018,0.55618 -3.004869,2.2044 -2.753344,3.22309 -3.51445,8.59739 -3.51445,12.15821 0,2.29004 0.211794,4.36167 0.933211,9.15354 -0.0463,0 -2.250328,2.24369 -3.137244,3.00484 -3.858616,3.56087 -9.19324,8.72331 -9.19324,17.15544 0,7.96225 6.903214,14.19038 14.786005,14.19038 1.224433,0 2.369436,-0.12575 3.388731,-0.2979 0.761107,4.07051 1.270777,7.03557 1.270777,9.27934 0,4.40802 -2.290072,6.73778 -6.525983,6.73778 -1.058974,0 -1.945851,-0.21184 -1.992194,-0.25814 -0.07945,0 -0.165451,-0.0394 -0.165451,-0.0797 0,-0.0859 0.08599,-0.13238 0.211794,-0.17205 1.992193,-0.29791 3.977777,-1.99227 3.977777,-4.69929 0,-2.28998 -1.734095,-4.70582 -4.911033,-4.70582 -2.925408,0 -4.831565,2.41584 -4.831565,5.20883 0,2.79973 2.117957,6.48627 7.836434,6.48627 5.466964,0 8.134269,-3.09754 8.134269,-8.51812 0,-1.64805 -0.251481,-3.55425 -0.675076,-5.96999 -0.125762,-0.84723 -0.337564,-2.16432 -0.635387,-3.77261 4.149846,-1.39654 7.240742,-5.6788 7.240742,-10.08018 M 36.667432,709.28105 c 0.423595,-1.69436 2.329757,-6.14207 4.53378,-6.14207 0.635387,0 1.69437,2.0319 1.69437,4.99705 0,4.36167 -3.302701,7.67097 -6.22815,10.58981 -0.25149,-1.69438 -0.463284,-3.38876 -0.463284,-5.12284 0,-1.60832 0.16546,-3.01146 0.463284,-4.32195 m 1.270775,43.80198 c -6.055997,0 -11.225158,-4.23586 -11.225158,-10.63613 0,-5.16254 3.686593,-9.78228 7.373143,-13.04524 0.714809,-0.59573 1.396539,-1.23112 2.031926,-1.82013 0.377244,2.28346 0.721419,4.23586 0.972909,6.0163 -3.858625,1.09873 -6.479596,5.20883 -6.479596,9.14697 0,3.01146 2.329749,7.07526 5.718481,7.07526 0.33752,0 0.721418,-0.17206 0.721418,-0.59562 0,-0.33759 -0.383898,-0.5891 -0.933212,-0.92668 -1.654673,-0.97951 -2.587893,-2.11793 -2.587893,-4.1565 0,-2.58126 1.952506,-4.65943 4.407982,-5.24852 l 2.455512,13.89248 c -0.847181,0.21182 -1.608331,0.29781 -2.455512,0.29781 m 4.235912,-0.80746 c -0.886877,-5.03678 -2.031881,-11.77454 -2.329749,-13.64096 4.275645,0 6.102378,2.96515 6.479631,5.00364 0.0463,0.33757 0.125762,0.80092 0.125762,1.31055 0,3.05115 -1.270775,6.14205 -4.275644,7.32677 m -1.654638,22.19885 c 0,-1.56861 -1.436226,-2.24368 -2.832764,-2.24368 -1.780391,0 -3.521105,1.09864 -3.521105,3.00483 0,0.80746 0.297833,1.40309 0.933221,1.99218 -1.098671,0.42356 -2.243719,1.27079 -2.243719,2.58789 0,1.39655 1.270766,2.32976 3.137233,2.32976 2.283416,0 3.891746,-1.27079 3.891746,-3.09754 0,-0.97289 -0.423586,-1.77381 -1.184736,-2.32976 1.231079,-0.54932 1.820124,-1.22439 1.820124,-2.24368 m -2.620971,1.69436 c -0.635388,-0.33758 -0.807483,-0.42357 -0.933211,-0.50965 l -0.0463,-0.0394 c -0.675112,-0.38388 -0.886913,-0.68179 -0.886913,-1.1848 0,-0.7677 0.595691,-1.31711 1.442881,-1.31711 0.847181,0 1.310463,0.50965 1.310463,1.39655 0,0.6817 -0.25149,1.14504 -0.886877,1.65468 m -1.614941,5.08309 c -0.926602,0 -1.561989,-0.5891 -1.561989,-1.48253 0,-0.80092 0.377252,-1.5223 1.09867,-1.94588 0.172096,0.0859 0.211793,0.12576 0.337555,0.16544 0.509626,0.25814 0.509626,0.25814 0.595701,0.34412 0.84718,0.46334 1.145004,0.88691 1.145004,1.48262 0,0.80083 -0.681722,1.43623 -1.614941,1.43623"
     id="path90"
     style="stroke-width:0.423591" />
  <path
     class="KeySig"
     d="m 65.382626,467.49641 c -2.117957,0 -3.349016,1.31048 -3.560828,1.56861 l 0.172092,-13.60126 c 0,-0.33754 -0.251508,-0.58905 -0.595669,-0.58905 h -0.503017 c -0.344161,0 -0.59567,0.25151 -0.59567,0.58905 l 0.211789,25.46182 c 0,0.33755 0.251508,0.58906 0.595669,0.58906 0.07946,0 0.251509,-0.0397 0.337555,-0.0795 3.640245,-1.82674 7.45257,-5.29489 7.45257,-9.66318 0,-2.19738 -1.012641,-4.27562 -3.514491,-4.27562 m -3.68657,11.94659 0.125742,-8.26003 c 0.08605,-0.38387 0.721447,-1.60832 2.415804,-1.60832 1.528917,0 1.654648,1.43624 1.654648,2.32976 0,3.76599 -1.396522,5.3346 -4.196194,7.53859"
     id="path91"
     style="stroke-width:0.423591" />
  <path
     class="KeySig"
     d="m 77.156925,451.61173 c -2.117957,0 -3.349016,1.31048 -3.560816,1.56861 l 0.17208,-13.60126 c 0,-0.33754 -0.251508,-0.58905 -0.59567,-0.58905 h -0.503017 c -0.344161,0 -0.595669,0.25151 -0.595669,0.58905 l 0.211788,25.46183 c 0,0.33754 0.251509,0.58905 0.595682,0.58905 0.07946,0 0.251497,-0.0396 0.337543,-0.0795 3.640244,-1.82672 7.452569,-5.29488 7.452569,-9.66316 0,-2.19739 -1.012641,-4.27563 -3.51449,-4.27563 m -3.686571,11.94659 0.125755,-8.26003 c 0.08605,-0.38388 0.721435,-1.60832 2.415791,-1.60832 1.528917,0 1.654649,1.43624 1.654649,2.32976 0,3.766 -1.396522,5.3346 -4.196195,7.53859"
     id="path92"
     style="stroke-width:0.423591" />
  <path
     class="KeySig"
     d="m 88.931651,472.7913 c -2.117946,0 -3.349016,1.31049 -3.560816,1.56861 l 0.172092,-13.60126 c 0,-0.33755 -0.251509,-0.58906 -0.59567,-0.58906 H 84.44424 c -0.344173,0 -0.595681,0.25151 -0.595681,0.58906 l 0.2118,25.46181 c 0,0.33756 0.251509,0.58907 0.59567,0.58907 0.07946,0 0.251508,-0.0396 0.337543,-0.0795 3.640256,-1.82673 7.452581,-5.29489 7.452581,-9.66318 0,-2.19738 -1.012641,-4.27561 -3.514502,-4.27561 m -3.686571,11.94658 0.125755,-8.26003 c 0.08605,-0.38388 0.721435,-1.60832 2.415803,-1.60832 1.528917,0 1.654648,1.43624 1.654648,2.32975 0,3.766 -1.396521,5.33461 -4.196206,7.5386"
     id="path93"
     style="stroke-width:0.423591" />
  <path
     class="KeySig"
     d="m 118.33154,208.04585 c -2.11796,0 -3.34902,1.31046 -3.56082,1.56861 l 0.1721,-13.60127 c 0,-0.33752 -0.25151,-0.58905 -0.59568,-0.58905 h -0.50302 c -0.34417,0 -0.59568,0.25153 -0.59568,0.58905 l 0.21181,25.46182 c 0,0.33756 0.2515,0.58908 0.59567,0.58908 0.0795,0 0.25151,-0.0397 0.33754,-0.0795 3.64025,-1.82674 7.45258,-5.29491 7.45258,-9.6632 0,-2.19739 -1.01264,-4.27562 -3.5145,-4.27562 m -3.68657,11.94659 0.12575,-8.26002 c 0.0861,-0.38388 0.72143,-1.60834 2.4158,-1.60834 1.52893,0 1.65464,1.43625 1.65464,2.32976 0,3.766 -1.39652,5.33461 -4.19619,7.5386"
     id="path94"
     style="stroke-width:0.423591" />
  <path
     class="KeySig"
     d="m 130.10584,192.16117 c -2.11795,0 -3.34902,1.31046 -3.56082,1.5686 l 0.1721,-13.60126 c 0,-0.33752 -0.25151,-0.58905 -0.59567,-0.58905 h -0.50302 c -0.34417,0 -0.59568,0.25153 -0.59568,0.58905 l 0.2118,25.46182 c 0,0.33756 0.25151,0.58909 0.59567,0.58909 0.0795,0 0.25151,-0.0397 0.33754,-0.0795 3.64026,-1.82674 7.45258,-5.29492 7.45258,-9.6632 0,-2.19741 -1.01264,-4.27563 -3.5145,-4.27563 m -3.68657,11.94659 0.12575,-8.26002 c 0.0861,-0.38388 0.72144,-1.60835 2.41581,-1.60835 1.52891,0 1.65464,1.43626 1.65464,2.32978 0,3.766 -1.39652,5.3346 -4.1962,7.53859"
     id="path95"
     style="stroke-width:0.423591" />
  <path
     class="KeySig"
     d="m 141.88058,213.34074 c -2.11797,0 -3.34903,1.31046 -3.56082,1.5686 l 0.17208,-13.60127 c 0,-0.33751 -0.2515,-0.58904 -0.59568,-0.58904 h -0.50301 c -0.34417,0 -0.59568,0.25153 -0.59568,0.58904 l 0.2118,25.46182 c 0,0.33757 0.2515,0.58909 0.59568,0.58909 0.0795,0 0.25151,-0.0397 0.33755,-0.0795 3.64024,-1.82674 7.45257,-5.29492 7.45257,-9.6632 0,-2.1974 -1.01264,-4.27563 -3.51449,-4.27563 m -3.68657,11.94659 0.12575,-8.26003 c 0.0861,-0.38388 0.72142,-1.60833 2.41579,-1.60833 1.52893,0 1.65465,1.43625 1.65465,2.32976 0,3.76599 -1.39652,5.33461 -4.19619,7.5386"
     id="path96"
     style="stroke-width:0.423591" />
  <path
     class="KeySig"
     d="m 65.382626,726.94612 c -2.117957,0 -3.349016,1.31047 -3.560828,1.5686 l 0.172092,-13.60124 c 0,-0.33756 -0.251508,-0.58907 -0.595669,-0.58907 h -0.503017 c -0.344161,0 -0.59567,0.25151 -0.59567,0.58907 l 0.211789,25.46177 c 0,0.33758 0.251508,0.58909 0.595669,0.58909 0.07946,0 0.251509,-0.0394 0.337555,-0.0797 3.640245,-1.82674 7.45257,-5.29491 7.45257,-9.66315 0,-2.19738 -1.012641,-4.27563 -3.514491,-4.27563 m -3.68657,11.94661 0.125742,-8.26008 c 0.08605,-0.38388 0.721447,-1.60828 2.415804,-1.60828 1.528917,0 1.654648,1.43623 1.654648,2.32975 0,3.76599 -1.396522,5.3346 -4.196194,7.53861"
     id="path97"
     style="stroke-width:0.423591" />
  <path
     class="KeySig"
     d="m 77.156925,711.06143 c -2.117957,0 -3.349016,1.31049 -3.560816,1.56862 l 0.17208,-13.60125 c 0,-0.33756 -0.251508,-0.58906 -0.59567,-0.58906 h -0.503017 c -0.344161,0 -0.595669,0.2515 -0.595669,0.58906 l 0.211788,25.46181 c 0,0.33758 0.251509,0.58909 0.595682,0.58909 0.07946,0 0.251497,-0.0394 0.337543,-0.0797 3.640244,-1.82674 7.452569,-5.29491 7.452569,-9.66319 0,-2.19737 -1.012641,-4.27562 -3.51449,-4.27562 m -3.686571,11.94663 0.125755,-8.26006 c 0.08605,-0.38388 0.721435,-1.60832 2.415791,-1.60832 1.528917,0 1.654649,1.43623 1.654649,2.32974 0,3.76604 -1.396522,5.33464 -4.196195,7.53864"
     id="path98"
     style="stroke-width:0.423591" />
  <path
     class="KeySig"
     d="m 88.931651,732.24103 c -2.117946,0 -3.349016,1.31047 -3.560816,1.56861 l 0.172092,-13.60129 c 0,-0.33758 -0.251509,-0.58909 -0.59567,-0.58909 H 84.44424 c -0.344173,0 -0.595681,0.25151 -0.595681,0.58909 l 0.2118,25.46182 c 0,0.33758 0.251509,0.58909 0.59567,0.58909 0.07946,0 0.251508,-0.0394 0.337543,-0.0797 3.640256,-1.82674 7.452581,-5.29491 7.452581,-9.66315 0,-2.19738 -1.012641,-4.27563 -3.514502,-4.27563 m -3.686571,11.9466 0.125755,-8.26006 c 0.08605,-0.38389 0.721435,-1.60829 2.415803,-1.60829 1.528917,0 1.654648,1.43623 1.654648,2.32976 0,3.76599 -1.396521,5.33459 -4.196206,7.53859"
     id="path99"
     style="stroke-width:0.423591" />
  <path
     class="TimeSig"
     d="m 171.27682,205.88818 c -0.33752,0.92661 -1.1847,3.97779 -3.26297,3.97779 -2.75335,0 -3.349,-1.69437 -5.63245,-1.69437 -0.33751,0 -0.68168,0.0463 -1.10527,0.12576 0,0 1.05897,-1.60833 5.55298,-3.00486 4.48744,-1.39652 5.63245,-3.60052 5.63245,-6.14207 0,-1.7804 -0.80084,-5.29489 -7.20106,-5.29489 -6.39357,0 -7.58492,3.85201 -7.58492,5.80451 0,1.73409 1.44286,3.13061 3.17694,3.13061 1.74068,0 3.13723,-1.39652 3.13723,-3.13061 0,-1.18474 -0.84719,-2.50181 -1.94586,-2.92541 -0.13237,-0.0396 -0.29787,-0.25152 -0.29787,-0.46332 0,-0.25813 0.21179,-0.54936 0.97295,-0.76115 0.21179,-0.086 0.80749,-0.21179 1.44288,-0.21179 2.40916,0 2.87905,1.48257 2.87905,3.64026 0,4.95734 -5.89055,6.01632 -8.34606,9.70291 0,0 -1.27077,1.77379 -1.27077,3.76598 0,1.99219 1.01926,2.11794 1.52228,2.11794 0.68172,0 1.40315,-0.54934 1.40315,-1.3105 0,-0.17207 -0.0463,-0.33752 -0.13237,-0.54932 -0.25151,-0.59568 -0.33756,-1.05896 -0.33756,-1.40314 0,-0.12576 0,-0.25153 0.0463,-0.37728 0.0397,-0.25809 0.37726,-0.6817 1.39652,-0.6817 1.22448,0 1.69436,1.44284 2.45551,2.54155 0.76115,1.10528 1.94589,1.78039 3.3027,1.78039 1.35681,0 3.17693,-0.97293 3.94469,-2.54153 0.76115,-1.5686 1.73406,-4.74556 1.73406,-5.88396 0,-0.55597 -0.33752,-0.80748 -0.72142,-0.80748 -0.29782,0 -0.58904,0.17209 -0.76116,0.59568"
     id="path100"
     style="stroke-width:0.423591" />
  <path
     class="TimeSig"
     d="m 164.20175,230.58222 v 3.13063 h -3.51449 c -0.29783,0 -0.59565,0.2581 -0.59565,0.59566 v 0.80749 c 0,0.33752 0.29782,0.58904 0.59565,0.58904 h 12.8335 c 0.34417,0 0.59567,-0.25152 0.59567,-0.58904 v -0.80749 c 0,-0.33756 -0.2515,-0.59566 -0.59567,-0.59566 h -3.76598 v -3.13063 h 3.76598 c 0.34417,0 0.59567,-0.29782 0.59567,-0.63539 v -0.80746 c 0,-0.29783 -0.2515,-0.58905 -0.59567,-0.58905 h -3.76598 v -6.73775 c 0,-0.25151 -0.12576,-0.4633 -0.33756,-0.54936 l -0.50961,-0.25812 c -0.0861,-0.0397 -0.2118,-0.0795 -0.29787,-0.0795 -0.12572,0.0397 -0.29784,0.0795 -0.38386,0.16549 l -3.85206,3.51448 c -0.12572,0.13237 -0.17207,0.29783 -0.17207,0.46992 v 3.47477 h -4.8713 c 0,0 4.70585,-5.08309 9.70288,-11.78115 0.1721,-0.21179 0.21178,-0.42359 0.21178,-0.58904 0,-0.2118 -0.086,-0.38387 -0.12572,-0.42361 l -0.93324,-0.93321 c -0.0859,-0.086 -0.2515,-0.1721 -0.4236,-0.1721 -0.25149,0 -5.97658,0 -6.26779,0 -0.34418,0 -0.55598,0.25814 -0.59571,0.50967 0,0 -0.21179,3.1372 -1.31047,6.56566 -1.10532,3.43505 -2.37609,5.55301 -3.47479,7.115 0,0 -0.12575,0.2118 -0.12575,0.46993 0,0.086 0,0.16548 0.0396,0.25151 0.17209,0.29783 0.4236,0.76115 0.4236,0.76115 0,0 0.086,0.25811 0.46329,0.25811 h 7.28711"
     id="path101"
     style="stroke-width:0.423591" />
  <path
     class="Rest"
     d="m 967.83844,740.54077 c -0.0394,-0.0394 -0.12576,-0.12575 -0.25151,-0.29127 l -4.87126,-6.01629 c -0.0465,-0.0466 -0.086,-0.17206 -0.086,-0.25814 0,-0.12576 0.0394,-0.29118 0.086,-0.37727 l 4.31531,-6.52594 c 0.0465,-0.0859 0.0859,-0.21182 0.0859,-0.29781 v -0.37726 c 0,-0.12575 -0.0394,-0.25813 -0.12575,-0.33758 l -6.86352,-9.27928 c 0,0 -0.16543,-0.25813 -0.42357,-0.25813 -0.12575,0 -0.21182,0 -0.33758,0.13237 -0.17206,0.12576 -0.21183,0.29121 -0.21183,0.42358 0,0.25151 0.12575,0.46331 0.12575,0.46331 l 3.2233,4.40796 c 0.0797,0.12575 0.12575,0.29127 0.12575,0.50302 0,0.17214 -0.0465,0.38389 -0.12575,0.50963 l -4.28226,6.52603 c -0.0394,0.0859 -0.0859,0.25151 -0.0859,0.3375 v 0.38388 c 0,0.12575 0.0465,0.25151 0.13237,0.33759 l 4.73887,5.89054 c -0.16543,-0.0466 -0.54932,-0.13238 -1.05895,-0.13238 -2.1577,0 -3.85207,1.78043 -3.85207,3.94467 0,0.58909 0.12575,1.18472 0.46334,1.64805 0.89353,1.35687 4.07043,5.38091 4.07043,5.38091 0,0 0.21182,0.25812 0.50964,0.25812 0.0797,0 0.16544,0 0.2515,-0.0859 0.21184,-0.17215 0.29782,-0.33759 0.29782,-0.50964 0,-0.17206 -0.0859,-0.29782 -0.12576,-0.3839 -0.13237,-0.21182 -1.48253,-2.66733 -1.48253,-2.66733 0,0 -0.29781,-0.59564 -0.29781,-1.35678 0,-1.35678 1.01266,-2.45551 2.36944,-2.45551 0.54932,0 1.01928,0.17206 1.35678,0.38388 l 1.65468,1.05897 c 0,0 0.16543,0.0797 0.33758,0.0797 0.16544,0 0.29781,-0.0394 0.42356,-0.21182 0.0859,-0.12576 0.12576,-0.25151 0.12576,-0.37727 0,-0.12575 -0.0394,-0.21174 -0.12576,-0.33749 l -0.0859,-0.13239"
     id="path102"
     style="stroke-width:0.423591" />
  <path
     class="Beam"
     fill-rule="evenodd"
     d="m 461.45635,712.32794 90.81592,-5.29489 v 5.30343 l -90.81592,5.2949 v -5.30344"
     id="path103"
     style="stroke-width:0.427008" />
  <path
     class="Beam"
     fill-rule="evenodd"
     d="m 408.05906,190.7845 h 93.24989 v 5.29489 h -93.24989 v -5.29489"
     id="path104"
     style="stroke-width:0.427008" />
  <path
     class="Beam"
     fill-rule="evenodd"
     d="m 956.48172,452.88251 80.40988,-2.64745 v 5.29489 l -80.40988,2.64744 v -5.29488"
     id="path105"
     style="stroke-width:0.427008" />
  <path
     class="Beam"
     fill-rule="evenodd"
     d="m 592.44514,193.43109 93.25414,-2.64744 v 5.29703 l -93.25414,2.64744 v -5.29703"
     id="path106"
     style="stroke-width:0.427008" />
  <path
     class="Beam"
     fill-rule="evenodd"
     d="m 640.97453,709.68477 90.81591,2.64744 v 5.29489 l -90.81591,-2.64744 v -5.29489"
     id="path107"
     style="stroke-width:0.427008" />
  <path
     class="Beam"
     fill-rule="evenodd"
     d="m 930.79724,204.02088 93.24996,-2.64745 v 5.29703 l -93.24996,2.64745 v -5.29703"
     id="path108"
     style="stroke-width:0.427008" />
  <path
     class="Beam"
     fill-rule="evenodd"
     d="m 266.26357,722.922 90.81935,-2.64746 v 5.29491 l -90.81935,2.64746 V 722.922"
     id="path109"
     style="stroke-width:0.427008" />
  <path
     class="Beam"
     fill-rule="evenodd"
     d="m 131.62471,452.88251 h 80.41019 v 5.29488 h -80.41019 v -5.29488"
     id="path110"
     style="stroke-width:0.427008" />
  <path
     class="Beam"
     fill-rule="evenodd"
     d="m 290.32714,460.82485 80.41147,-2.64746 v 5.2949 l -80.41147,2.64745 v -5.29489"
     id="path111"
     style="stroke-width:0.427008" />
  <path
     class="Beam"
     fill-rule="evenodd"
     d="m 464.7016,450.23506 80.40977,2.64745 v 5.29488 l -80.40977,-2.64744 v -5.29489"
     id="path112"
     style="stroke-width:0.427008" />
  <path
     class="Beam"
     fill-rule="evenodd"
     d="m 797.78016,450.23506 h 80.40983 v 5.29489 h -80.40983 v -5.29489"
     id="path113"
     style="stroke-width:0.427008" />
  <path
     class="Beam"
     fill-rule="evenodd"
     d="m 623.40317,474.06207 h 80.40977 v 5.29489 h -80.40977 v -5.29489"
     id="path114"
     style="stroke-width:0.427008" />
  <path
     class="Beam"
     fill-rule="evenodd"
     d="M 207.99712,214.61152 H 301.25 v 5.29488 h -93.25288 v -5.29488"
     id="path115"
     style="stroke-width:0.427008" />
  <path
     class="StaffText"
     d="m 628.48029,676.79239 v 1.00773 h 0.38858 c 1.2127,0.0214 1.62263,0.0855 1.78917,0.29891 0.13237,0.18788 0.13237,0.23485 0.13237,1.32372 v 10.15851 c 0,1.09314 0,1.13584 -0.13237,1.32798 -0.16654,0.21351 -0.57647,0.29891 -1.78917,0.29891 h -0.38858 v 1.00347 h 7.75445 c 3.68936,0 5.9098,-1.56285 5.9098,-4.18467 0,-2.13504 -1.34082,-3.35628 -4.27008,-3.86442 1.02909,-0.2135 1.49452,-0.40566 2.04964,-0.81132 0.87962,-0.66185 1.41338,-1.70803 1.41338,-2.77555 0,-1.38776 -0.854,-2.7371 -2.09234,-3.27088 -0.7686,-0.33732 -1.83613,-0.51239 -3.09579,-0.51239 h -7.66906 m 4.69708,6.94313 v -4.86789 c 0,-0.83266 0.28183,-1.04616 1.40914,-1.06751 h 0.854 c 2.09661,0 3.41606,0.67894 3.41606,3.0104 0,2.11368 -1.02055,2.925 -3.77474,2.925 h -1.90446 m 0,1.00347 h 1.88311 c 3.26233,0 4.46222,0.87537 4.46222,3.22391 0,2.86094 -1.79343,3.24525 -4.21029,3.24525 h -0.89244 c -1.06753,0 -1.28102,-0.2135 -1.2426,-1.34507 v -5.12409 m 13.87775,-8.26687 -3.668,0.23913 v 0.9138 h 0.74726 c 0.80705,0.0214 0.9138,0.15373 0.9138,1.06751 v 8.30957 c 0,2.9677 -0.1281,4.59033 -0.38003,5.5084 h 0.80704 l 1.04617,-1.66533 c 0.87536,1.15292 1.8831,1.68668 3.20255,1.68668 2.65172,0 4.59033,-2.26315 4.59033,-5.35894 0,-3.07446 -1.79343,-5.23085 -4.35547,-5.23085 -1.30238,0 -2.08807,0.44836 -2.90365,1.66106 v -7.13103 m 2.52361,6.55884 c 1.60128,0 2.49372,1.55857 2.49372,4.35547 0,2.71151 -0.8711,4.22311 -2.43395,4.22311 -1.68667,0 -2.69013,-1.55432 -2.69013,-4.18041 0,-2.86521 0.92233,-4.39817 2.63036,-4.39817"
     id="path116"
     style="stroke-width:0.427008" />
  <path
     class="StaffText"
     d="m 127.13814,417.9106 v 1.00773 h 0.3873 c 1.21398,0.0171 1.62091,0.0855 1.78788,0.29891 0.13365,0.18789 0.13365,0.23485 0.13365,1.31946 v 10.16277 c 0,1.09314 0,1.13584 -0.13365,1.32799 -0.16697,0.2135 -0.5739,0.29891 -1.78788,0.29891 h -0.3873 v 1.00346 h 7.75318 c 3.68934,0 5.91106,-1.56284 5.91106,-4.18467 0,-2.13504 -1.34081,-3.35628 -4.27007,-3.86441 1.02781,-0.21351 1.49452,-0.40565 2.04835,-0.81132 0.88091,-0.66186 1.41468,-1.70803 1.41468,-2.77555 0,-1.38777 -0.85402,-2.73711 -2.09533,-3.27088 -0.7669,-0.3416 -1.83442,-0.5124 -3.0958,-0.5124 h -7.66607 m 4.69709,6.94314 v -4.86788 c 0,-0.83694 0.28053,-1.05045 1.40784,-1.06753 h 0.85401 c 2.09489,0 3.41607,0.67894 3.41607,3.00614 0,2.11795 -1.02056,2.92927 -3.77646,2.92927 h -1.90146 m 0,1.00347 h 1.88182 c 3.26233,0 4.4635,0.87109 4.4635,3.21964 0,2.8652 -1.79471,3.24952 -4.21028,3.24952 h -0.89374 c -1.06751,0 -1.28101,-0.21351 -1.2413,-1.34508 v -5.12408 m 13.87773,-8.26687 -3.66926,0.23912 v 0.9138 h 0.74726 c 0.80704,0.0214 0.91379,0.15371 0.91379,1.06752 v 8.30529 c 0,2.97198 -0.12682,4.59034 -0.38004,5.51267 h 0.80705 l 1.04744,-1.66961 c 0.87409,1.1572 1.88183,1.69095 3.20255,1.69095 2.64873,0 4.59035,-2.26313 4.59035,-5.35893 0,-3.07446 -1.79473,-5.23084 -4.35676,-5.23084 -1.3011,0 -2.08807,0.44835 -2.90238,1.66106 v -7.13103 m 2.52233,6.55884 c 1.60129,0 2.49501,1.55858 2.49501,4.35548 0,2.70722 -0.87407,4.2231 -2.43523,4.2231 -1.68795,0 -2.68886,-1.55431 -2.68886,-4.18468 0,-2.86095 0.92106,-4.3939 2.62908,-4.3939"
     id="path117"
     style="stroke-width:0.427008" />
  <path
     class="StaffText"
     d="m 465.02186,418.40166 h -12.83157 v 1.00773 h 0.38003 c 1.22123,0.0213 1.6269,0.0854 1.79769,0.29891 0.12384,0.18788 0.12384,0.23486 0.12384,1.32373 v 10.1585 c 0,1.09314 0,1.13584 -0.12384,1.32798 -0.17079,0.21351 -0.57646,0.29891 -1.79769,0.29891 h -0.38003 v 1.00347 h 13.10912 l 0.42701,-5.70054 H 464.787 c -0.81131,3.80036 -1.68667,4.61167 -4.95756,4.69707 h -1.40486 c -1.28101,-0.0427 -1.60126,-0.25619 -1.53722,-1.02481 v -5.44435 h 0.42701 c 2.19482,-0.0855 2.98905,0.70456 3.07445,3.07446 h 1.00347 v -7.00293 h -1.00347 c -0.13237,2.09234 -0.96077,2.925 -2.98904,2.925 h -0.51242 v -4.86788 c -0.0214,-0.90098 0.19216,-1.04616 1.34081,-1.06752 h 1.11448 c 3.50147,-0.0214 4.37684,0.74726 5.06004,4.44088 h 0.91806 l -0.29889,-5.44861 m 5.7646,-0.32026 -3.67228,0.23912 v 0.9138 h 0.74728 c 0.8113,0.0214 0.91807,0.15373 0.91807,1.06751 v 8.30957 c 0,2.9677 -0.12811,4.59033 -0.38432,5.5084 h 0.81132 l 1.04616,-1.66533 c 0.87537,1.15291 1.87884,1.68669 3.20256,1.68669 2.64744,0 4.59033,-2.26315 4.59033,-5.35895 0,-3.07445 -1.79343,-5.23085 -4.35547,-5.23085 -1.30238,0 -2.09234,0.44836 -2.90365,1.66106 v -7.13102 m 2.51933,6.55883 c 1.60129,0 2.498,1.55858 2.498,4.35548 0,2.7115 -0.87536,4.2231 -2.43394,4.2231 -1.69095,0 -2.69015,-1.55431 -2.69015,-4.1804 0,-2.86522 0.91807,-4.39818 2.62609,-4.39818"
     id="path118"
     style="stroke-width:0.427008" />
  <path
     class="StaffText"
     d="m 461.64849,674.67443 h -12.70347 v 1.00773 h 0.38004 c 1.22124,0.0214 1.6269,0.0854 1.79343,0.29891 0.12811,0.18788 0.12811,0.23485 0.12811,1.32371 v 10.15852 c 0,1.09314 0,1.13584 -0.12811,1.32798 -0.16653,0.21351 -0.57219,0.29891 -1.79343,0.29891 h -0.38004 v 1.00347 h 7.31892 v -1.00347 h -0.7003 c -1.22124,0 -1.62263,-0.0855 -1.79769,-0.29891 -0.12384,-0.19214 -0.12384,-0.26047 -0.12384,-1.32798 v -4.84227 h 0.42701 c 2.19482,-0.0855 2.98904,0.70456 3.07445,3.07445 h 0.99919 v -7.00292 h -0.99919 c -0.13237,2.09234 -0.96077,2.89938 -2.98905,2.92501 h -0.51241 v -4.86789 c -0.0214,-0.90098 0.19215,-1.04616 1.3408,-1.06752 h 0.98639 c 3.50145,-0.0214 4.37682,0.76862 5.03869,4.44088 h 0.93941 l -0.29891,-5.44861 m 5.05577,5.46996 -3.7961,0.23485 v 0.91807 h 0.87537 c 0.80704,0.0214 0.9138,0.14945 0.9138,1.06751 v 6.10622 c -0.0214,0.32024 -0.0427,0.44835 -0.1281,0.55511 -0.14518,0.19214 -0.55511,0.27755 -1.47318,0.29891 h -0.0812 v 0.7686 h 5.37602 v -0.7686 h -0.0854 c -1.40912,-0.0469 -1.60127,-0.15373 -1.60127,-0.93943 v -3.94981 c 0,-1.90019 1.04617,-3.30931 2.43394,-3.30931 1.21697,0 1.83613,0.87537 1.83613,2.60047 v 4.76541 c -0.0214,0.27755 -0.0385,0.427 -0.14518,0.53376 -0.12811,0.19214 -0.55511,0.27755 -1.47745,0.29891 h -0.0855 v 0.7686 h 5.40591 v -0.7686 h -0.0896 c -1.40486,-0.0469 -1.60129,-0.15373 -1.60129,-0.91807 v -3.77902 c 0,-2.13504 0.96077,-3.50146 2.4553,-3.50146 1.22123,0 1.81478,0.91807 1.81478,2.8396 v 4.50493 c -0.0171,0.2989 -0.0385,0.44835 -0.14518,0.55511 -0.1281,0.19214 -0.55511,0.27755 -1.47318,0.29891 h -0.0896 v 0.7686 h 5.40592 v -0.7686 h -0.0855 c -1.40912,-0.0469 -1.60126,-0.15373 -1.60126,-0.93943 v -4.84653 c 0,-1.32372 -0.12811,-1.77208 -0.68322,-2.49799 -0.61916,-0.78997 -1.49453,-1.21698 -2.51935,-1.21698 -1.38777,0 -2.41685,0.66187 -3.33066,2.13504 -0.36721,-1.28102 -1.52014,-2.13504 -2.95062,-2.13504 -1.29809,0 -2.24179,0.61916 -3.07445,1.96424 v -1.64398"
     id="path119"
     style="stroke-width:0.427008" />
  <path
     class="StaffText"
     d="m 130.65156,667.1164 h -0.81387 l -0.85402,1.25967 c -1.55474,-1.13585 -2.34855,-1.43475 -3.82299,-1.43475 -2.02829,0 -3.75639,0.85401 -5.18431,2.56204 -1.3677,1.6269 -2.00821,3.42034 -2.00821,5.61942 0,4.60742 3.00912,7.8783 7.21899,7.8783 3.41606,0 5.59122,-2.00694 6.08485,-5.5938 l -1.0073,-0.1708 c -0.5739,3.18119 -2.19526,4.76113 -4.82392,4.76113 -3.1624,0 -4.65693,-2.17775 -4.65693,-6.78943 0,-2.43394 0.32024,-4.03521 1.04744,-5.31624 0.66058,-1.19562 1.96808,-1.94288 3.35586,-1.94288 1.49452,0 2.81568,0.78569 3.62956,2.15639 0.40736,0.70457 0.70071,1.49453 1.21441,3.1812 h 0.9407 l -0.32026,-6.17025 m 6.01824,5.61514 -3.79652,0.23486 v 0.91807 h 0.87409 c 0.80747,0.0213 0.91422,0.14945 0.91422,1.06751 v 6.10621 c -0.0201,0.32024 -0.0401,0.44835 -0.12683,0.55511 -0.14689,0.19214 -0.55382,0.27755 -1.47446,0.2989 H 132.98 v 0.76861 h 5.37773 v -0.76861 h -0.0867 c -1.40784,-0.0469 -1.60126,-0.15372 -1.60126,-0.93942 v -3.94981 c 0,-1.90019 1.04744,-3.30931 2.4352,-3.30931 1.21442,0 1.83486,0.87537 1.83486,2.60047 v 4.76541 c -0.0201,0.27755 -0.0401,0.427 -0.14689,0.53376 -0.12681,0.19214 -0.55382,0.27755 -1.47446,0.2989 h -0.0867 v 0.76861 h 5.4042 v -0.76861 h -0.0867 c -1.40784,-0.0469 -1.60127,-0.15372 -1.60127,-0.91806 v -3.77902 c 0,-2.13504 0.96076,-3.50146 2.45529,-3.50146 1.22124,0 1.81479,0.91806 1.81479,2.8396 v 4.50493 c -0.0201,0.2989 -0.0402,0.44835 -0.14691,0.55511 -0.12639,0.19214 -0.55339,0.27755 -1.47446,0.2989 h -0.0867 v 0.76861 h 5.40421 v -0.76861 h -0.0867 c -1.40784,-0.0469 -1.60129,-0.15372 -1.60129,-0.93942 v -4.84653 c 0,-1.32372 -0.12682,-1.77208 -0.68021,-2.49799 -0.62088,-0.78997 -1.49453,-1.21698 -2.52234,-1.21698 -1.38777,0 -2.41515,0.66186 -3.32937,2.13504 -0.3668,-1.28102 -1.52101,-2.13504 -2.94891,-2.13504 -1.3011,0 -2.24179,0.61917 -3.07574,1.96424 v -1.64398"
     id="path120"
     style="stroke-width:0.427008" />
  <path
     class="StaffText"
     d="m 408.37505,156.83357 h -12.82729 v 1.00731 h 0.38003 c 1.22123,0.0201 1.62688,0.0872 1.79342,0.30061 0.12811,0.1866 0.12811,0.23315 0.12811,1.32074 v 10.16149 c 0,1.09442 0,1.13414 -0.12811,1.328 -0.16654,0.2135 -0.57219,0.30018 -1.79342,0.30018 h -0.38003 v 1.00048 h 13.10912 l 0.42701,-5.69756 h -0.93942 c -0.81558,3.7961 -1.69095,4.6104 -4.95756,4.69708 h -1.40913 c -1.28102,-0.0469 -1.60127,-0.26047 -1.53295,-1.02781 v -5.44434 h 0.42701 c 2.19481,-0.0867 2.98905,0.70756 3.07445,3.07617 h 0.9992 v -7.00591 h -0.9992 c -0.13237,2.09531 -0.96077,2.92927 -2.98905,2.92927 h -0.51241 v -4.87089 c -0.0214,-0.90055 0.19216,-1.04744 1.34081,-1.06751 h 1.11448 c 3.50147,-0.0196 4.37683,0.74727 5.05577,4.44386 h 0.92233 l -0.30317,-5.45117 m 5.7646,-0.32025 -3.668,0.2404 v 0.91379 h 0.74727 c 0.80705,0.0201 0.91379,0.15372 0.91379,1.06753 v 8.30657 c 0,2.96898 -0.1281,4.59033 -0.38003,5.51139 h 0.80704 l 1.04617,-1.66833 c 0.87537,1.15421 1.8831,1.68797 3.20255,1.68797 2.65172,0 4.59033,-2.26144 4.59033,-5.35724 0,-3.07616 -1.79343,-5.23083 -4.35548,-5.23083 -1.30236,0 -2.08806,0.44664 -2.90364,1.66105 v -7.1323 m 2.52361,6.55841 c 1.60129,0 2.49372,1.56156 2.49372,4.35718 0,2.7085 -0.87109,4.2231 -2.43393,4.2231 -1.68668,0 -2.69015,-1.55431 -2.69015,-4.1834 0,-2.86223 0.92233,-4.39688 2.63036,-4.39688"
     id="path121"
     style="stroke-width:0.427008" />
  <path
     class="StaffText"
     d="m 836.48418,679.96931 h -12.83163 v 1.00774 h 0.38005 c 1.22125,0.0214 1.62691,0.0855 1.79342,0.29891 0.12809,0.18788 0.12809,0.23485 0.12809,1.32373 v 10.1585 c 0,1.09313 0,1.13584 -0.12809,1.328 -0.16651,0.2135 -0.57217,0.29889 -1.79342,0.29889 h -0.38005 v 1.00347 h 13.10911 l 0.42707,-5.70054 h -0.93948 c -0.81553,3.80036 -1.68666,4.61168 -4.95752,4.69707 h -1.40908 c -1.2811,-0.0427 -1.6013,-0.2562 -1.53296,-1.02481 v -5.44434 h 0.42697 c 2.19479,-0.0853 2.98908,0.70457 3.07443,3.07445 h 1.00353 v -7.00291 h -1.00353 c -0.13238,2.09232 -0.96071,2.92499 -2.98907,2.92499 h -0.51233 v -4.86788 c -0.0215,-0.90099 0.19213,-1.04617 1.34074,-1.06753 h 1.1145 c 3.5015,-0.0214 4.37685,0.74727 5.05577,4.44088 h 0.92238 l -0.2989,-5.44862 m 5.76452,-0.32024 -3.6722,0.23912 v 0.91379 h 0.74727 c 0.80701,0.0214 0.91377,0.15372 0.91377,1.06753 v 8.30955 c 0,2.9677 -0.12387,4.59033 -0.38004,5.50839 h 0.80702 l 1.05045,-1.66532 c 0.87113,1.15293 1.87887,1.68668 3.2026,1.68668 2.64746,0 4.59027,-2.26314 4.59027,-5.35895 0,-3.07444 -1.79763,-5.23083 -4.35972,-5.23083 -1.29812,0 -2.08802,0.44836 -2.89942,1.66106 v -7.13102 m 2.51938,6.55882 c 1.6013,0 2.49797,1.55859 2.49797,4.35548 0,2.7115 -0.87536,4.22311 -2.43814,4.22311 -1.68675,0 -2.68589,-1.55431 -2.68589,-4.18041 0,-2.86522 0.91808,-4.39818 2.62606,-4.39818"
     id="path122"
     style="stroke-width:0.427008" />
  <metadata
     id="metadata122">
    <rdf:RDF>
      <cc:Work
         rdf:about="">
        <dc:title>savez_vous_planter_les_choux</dc:title>
      </cc:Work>
    </rdf:RDF>
  </metadata>
</svg>
