<?xml version="1.0" encoding="UTF-8" standalone="no"?>
<svg
   width="210mm"
   height="297mm"
   viewBox="0 0 2976.378 4209.4489"
   version="1.2"
   id="svg404"
   sodipodi:docname="exercice_corde_a_vide_08.svg"
   inkscape:version="1.2.2 (b0a8486541, 2022-12-01)"
   xmlns:inkscape="http://www.inkscape.org/namespaces/inkscape"
   xmlns:sodipodi="http://sodipodi.sourceforge.net/DTD/sodipodi-0.dtd"
   xmlns="http://www.w3.org/2000/svg"
   xmlns:svg="http://www.w3.org/2000/svg"
   xmlns:rdf="http://www.w3.org/1999/02/22-rdf-syntax-ns#"
   xmlns:cc="http://creativecommons.org/ns#"
   xmlns:dc="http://purl.org/dc/elements/1.1/">
  <defs
     id="defs408" />
  <sodipodi:namedview
     id="namedview406"
     pagecolor="#ffffff"
     bordercolor="#000000"
     borderopacity="0.25"
     inkscape:showpageshadow="2"
     inkscape:pageopacity="0.0"
     inkscape:pagecheckerboard="0"
     inkscape:deskcolor="#d1d1d1"
     inkscape:document-units="mm"
     showgrid="false"
     inkscape:zoom="0.42949815"
     inkscape:cx="394.64663"
     inkscape:cy="562.28414"
     inkscape:window-width="1280"
     inkscape:window-height="651"
     inkscape:window-x="0"
     inkscape:window-y="32"
     inkscape:window-maximized="1"
     inkscape:current-layer="svg404" />
  <title
     id="title2">exercice_corde_a_vide_03</title>
  <desc
     id="desc4">Generated by MuseScore Studio 4.5.2</desc>
  <polyline
     class="StaffLines"
     fill="none"
     stroke="#000000"
     stroke-width="2.73"
     stroke-linejoin="bevel"
     points="336.598,634.198 2764.6,634.198"
     id="polyline6"
     transform="matrix(1.1003379,0,0,1.2820712,-149.85001,90.291136)" />
  <polyline
     class="StaffLines"
     fill="none"
     stroke="#000000"
     stroke-width="2.73"
     stroke-linejoin="bevel"
     points="336.598,658.998 2764.6,658.998"
     id="polyline8"
     transform="matrix(1.1003379,0,0,1.2820712,-149.85001,90.291136)" />
  <polyline
     class="StaffLines"
     fill="none"
     stroke="#000000"
     stroke-width="2.73"
     stroke-linejoin="bevel"
     points="336.598,683.798 2764.6,683.798"
     id="polyline10"
     transform="matrix(1.1003379,0,0,1.2820712,-149.85001,90.291136)" />
  <polyline
     class="StaffLines"
     fill="none"
     stroke="#000000"
     stroke-width="2.73"
     stroke-linejoin="bevel"
     points="336.598,708.598 2764.6,708.598"
     id="polyline12"
     transform="matrix(1.1003379,0,0,1.2820712,-149.85001,90.291136)" />
  <polyline
     class="StaffLines"
     fill="none"
     stroke="#000000"
     stroke-width="2.73"
     stroke-linejoin="bevel"
     points="336.598,733.398 2764.6,733.398"
     id="polyline14"
     transform="matrix(1.1003379,0,0,1.2820712,-149.85001,90.291136)" />
  <polyline
     class="StaffLines"
     fill="none"
     stroke="#000000"
     stroke-width="2.73"
     stroke-linejoin="bevel"
     points="212.598,1192.2 2764.6,1192.2"
     id="polyline16"
     transform="matrix(1.1003379,0,0,1.2820712,-149.85001,90.291136)" />
  <polyline
     class="StaffLines"
     fill="none"
     stroke="#000000"
     stroke-width="2.73"
     stroke-linejoin="bevel"
     points="212.598,1217 2764.6,1217"
     id="polyline18"
     transform="matrix(1.1003379,0,0,1.2820712,-149.85001,90.291136)" />
  <polyline
     class="StaffLines"
     fill="none"
     stroke="#000000"
     stroke-width="2.73"
     stroke-linejoin="bevel"
     points="212.598,1241.8 2764.6,1241.8"
     id="polyline20"
     transform="matrix(1.1003379,0,0,1.2820712,-149.85001,90.291136)" />
  <polyline
     class="StaffLines"
     fill="none"
     stroke="#000000"
     stroke-width="2.73"
     stroke-linejoin="bevel"
     points="212.598,1266.6 2764.6,1266.6"
     id="polyline22"
     transform="matrix(1.1003379,0,0,1.2820712,-149.85001,90.291136)" />
  <polyline
     class="StaffLines"
     fill="none"
     stroke="#000000"
     stroke-width="2.73"
     stroke-linejoin="bevel"
     points="212.598,1291.4 2764.6,1291.4"
     id="polyline24"
     transform="matrix(1.1003379,0,0,1.2820712,-149.85001,90.291136)" />
  <polyline
     class="StaffLines"
     fill="none"
     stroke="#000000"
     stroke-width="2.73"
     stroke-linejoin="bevel"
     points="212.598,1750.2 2764.6,1750.2"
     id="polyline26"
     transform="matrix(1.1003379,0,0,1.2820712,-149.85001,90.291136)" />
  <polyline
     class="StaffLines"
     fill="none"
     stroke="#000000"
     stroke-width="2.73"
     stroke-linejoin="bevel"
     points="212.598,1775 2764.6,1775"
     id="polyline28"
     transform="matrix(1.1003379,0,0,1.2820712,-149.85001,90.291136)" />
  <polyline
     class="StaffLines"
     fill="none"
     stroke="#000000"
     stroke-width="2.73"
     stroke-linejoin="bevel"
     points="212.598,1799.8 2764.6,1799.8"
     id="polyline30"
     transform="matrix(1.1003379,0,0,1.2820712,-149.85001,90.291136)" />
  <polyline
     class="StaffLines"
     fill="none"
     stroke="#000000"
     stroke-width="2.73"
     stroke-linejoin="bevel"
     points="212.598,1824.6 2764.6,1824.6"
     id="polyline32"
     transform="matrix(1.1003379,0,0,1.2820712,-149.85001,90.291136)" />
  <polyline
     class="StaffLines"
     fill="none"
     stroke="#000000"
     stroke-width="2.73"
     stroke-linejoin="bevel"
     points="212.598,1849.4 2764.6,1849.4"
     id="polyline34"
     transform="matrix(1.1003379,0,0,1.2820712,-149.85001,90.291136)" />
  <polyline
     class="StaffLines"
     fill="none"
     stroke="#000000"
     stroke-width="2.73"
     stroke-linejoin="bevel"
     points="212.598,2308.2 2764.6,2308.2"
     id="polyline36"
     transform="matrix(1.1003379,0,0,1.2820712,-149.85001,90.291136)" />
  <polyline
     class="StaffLines"
     fill="none"
     stroke="#000000"
     stroke-width="2.73"
     stroke-linejoin="bevel"
     points="212.598,2333 2764.6,2333"
     id="polyline38"
     transform="matrix(1.1003379,0,0,1.2820712,-149.85001,90.291136)" />
  <polyline
     class="StaffLines"
     fill="none"
     stroke="#000000"
     stroke-width="2.73"
     stroke-linejoin="bevel"
     points="212.598,2357.8 2764.6,2357.8"
     id="polyline40"
     transform="matrix(1.1003379,0,0,1.2820712,-149.85001,90.291136)" />
  <polyline
     class="StaffLines"
     fill="none"
     stroke="#000000"
     stroke-width="2.73"
     stroke-linejoin="bevel"
     points="212.598,2382.6 2764.6,2382.6"
     id="polyline42"
     transform="matrix(1.1003379,0,0,1.2820712,-149.85001,90.291136)" />
  <polyline
     class="StaffLines"
     fill="none"
     stroke="#000000"
     stroke-width="2.73"
     stroke-linejoin="bevel"
     points="212.598,2407.4 2764.6,2407.4"
     id="polyline44"
     transform="matrix(1.1003379,0,0,1.2820712,-149.85001,90.291136)" />
  <path
     class="Text"
     d="m 868.3972,366.16336 h -72.74224 v 6.62959 h 2.18307 c 6.89472,0.14103 9.19883,0.56155 10.16163,1.98337 0.72182,1.26284 0.72182,1.54233 0.72182,8.73475 v 67.12796 c 0,7.19242 0,7.47191 -0.72182,8.75398 -0.9628,1.40259 -3.26691,1.96413 -10.16163,1.96413 h -2.18307 v 6.62959 h 74.32453 l 2.42404,-37.66084 h -5.33003 c -4.60712,25.10168 -9.55864,30.46971 -28.09273,31.03125 h -7.97745 c -7.27213,-0.28077 -9.07779,-1.68335 -8.71688,-6.77189 V 418.627 h 2.42405 c 12.46463,-0.56027 16.9353,4.6475 17.43375,20.31313 h 5.67334 v -46.25456 h -5.67334 c -0.73943,13.82201 -5.44997,19.31184 -16.9518,19.31184 h -2.906 v -32.15307 c -0.11993,-5.92958 1.08274,-6.91036 7.61654,-7.05139 h 6.30934 c 19.84129,-0.13974 24.80932,4.92828 28.67811,29.32738 h 5.209 l -1.70223,-35.95697 m 48.51833,65.86641 13.8059,-18.77081 c 3.0259,-4.08724 5.8109,-5.90906 9.0778,-5.90906 h 1.0827 v -5.08854 h -25.0492 v 5.08854 h 2.303 c 3.6279,0 5.4511,0.98078 5.4511,3.10389 0,1.40259 -0.8604,3.38595 -2.4251,5.62958 l -7.6331,10.71683 -9.3187,-13.82201 c -0.7218,-1.12181 -1.2038,-2.24362 -1.2038,-3.08466 0,-1.84362 1.5647,-2.54363 5.33,-2.54363 h 1.6847 v -5.08854 h -28.677 v 5.08854 c 4.4695,0.42052 6.1717,1.68207 10.0405,7.61165 l 14.7688,21.5747 -13.9259,18.89132 c -4.1098,5.36803 -7.6165,7.63217 -10.8834,7.49114 h -0.7395 v 5.06802 h 25.5488 v -5.06802 h -1.8222 c -2.786,0 -3.3879,-0.13975 -4.2297,-0.58078 -0.9804,-0.70129 -1.7022,-1.96285 -1.7022,-3.24492 0,-0.98207 0.3609,-2.24363 0.9804,-3.08467 l 10.1605,-14.10278 9.1977,14.24253 c 0.8429,1.40259 1.5647,3.24492 1.5647,4.22699 0,1.8231 -1.8045,2.54363 -6.4128,2.54363 h -0.8428 v 5.06802 h 30.5003 v -5.06802 h -0.8418 c -4.2473,0 -7.0147,-1.84234 -10.5401,-6.91037 l -15.2496,-23.97857 m 81.096,4.2257 c 0.121,-21.15417 -10.1781,-36.09799 -24.9447,-36.09799 -15.4927,0 -27.1123,15.64511 -27.1123,36.79929 0,19.89261 11.0254,33.15436 27.3544,33.15436 11.6196,0 19.7401,-6.63088 24.7026,-20.03237 l -4.2473,-2.68465 c -4.9515,10.85786 -10.0351,15.08485 -18.1556,15.08485 -6.1729,0 -10.6403,-2.94492 -13.7872,-9.29502 -2.1787,-4.22699 -3.147,-9.17578 -3.026,-16.92847 h 39.2161 m -39.095,-6.06932 c 0,-9.8758 3.8732,-23.97858 14.0293,-23.97858 7.2732,0 12.1037,7.49243 12.1037,18.91055 0,3.94622 -1.0783,5.06803 -4.9515,5.06803 h -21.1815 m 67.27467,-27.92479 -21.4235,1.56284 v 6.06933 h 4.9515 c 4.6104,0.13974 5.2156,0.98206 5.2156,7.05139 v 40.32498 c -0.1211,2.12311 -0.2421,2.96543 -0.7262,3.66544 -0.8363,1.26284 -3.268,1.84362 -8.4726,1.98337 h -0.4842 v 5.06802 h 32.3279 v -5.06802 h -2.1896 c -8.1095,-0.30001 -9.1989,-1.0013 -9.1989,-6.06933 v -7.61294 c 0.1211,-23.6978 7.3723,-41.7468 16.8132,-42.30834 -1.6835,2.24362 -2.1677,3.66672 -2.1677,6.33086 0,4.527 2.7949,7.77192 6.6571,7.77192 4.4673,0 7.3722,-3.80519 7.3722,-9.45528 0,-6.91036 -4.1042,-11.41812 -10.5192,-11.41812 -7.6363,0 -14.1613,7.05139 -18.1556,19.59133 v -17.48745 m 75.9784,44.993 c -3.8732,10.15529 -7.9775,14.24253 -14.2714,14.24253 -9.683,0 -15.7348,-10.29631 -15.7348,-26.78375 0,-17.20796 5.9308,-28.50557 14.8765,-28.50557 3.6421,0 6.7891,1.98337 6.7891,4.24622 0,0.4218 -0.121,0.84232 -0.7372,1.68336 -1.9256,2.68466 -2.4098,4.08596 -2.4098,6.48985 0,4.6475 3.026,7.89371 7.2513,7.89371 4.3683,0 7.3942,-3.94622 7.3942,-9.57579 0,-9.59502 -8.1095,-16.78744 -18.8928,-16.78744 -15.7348,0 -26.9913,14.94382 -26.9913,36.09799 0,20.03237 10.2992,33.85566 25.3078,33.85566 10.7613,0 16.9342,-5.78984 22.1498,-20.73366 l -4.7314,-2.12311 m 26.133,-80.11021 c -3.8732,0 -7.0202,3.66672 -7.0202,8.19371 0,4.50648 3.147,8.17321 6.8992,8.17321 4.0052,0 7.1522,-3.66673 7.1522,-8.17321 0,-4.52699 -3.147,-8.19371 -7.0312,-8.19371 m 5.6887,35.11721 -22.7439,1.56284 v 6.06933 h 6.1729 c 4.5884,0.13974 5.1935,0.98206 5.1935,7.05139 v 40.32498 c -0.121,2.12311 -0.242,2.96543 -0.7262,3.66544 -0.8472,1.26284 -3.1469,1.84362 -8.3515,1.98337 h -0.8473 v 5.06802 h 31.3596 v -5.06802 h -0.8582 c -8.0985,-0.30001 -9.1989,-1.0013 -9.1989,-6.06933 v -54.58802 m 60.0235,44.993 c -3.8732,10.15529 -7.9775,14.24253 -14.2714,14.24253 -9.683,0 -15.7348,-10.29631 -15.7348,-26.78375 0,-17.20796 5.9308,-28.50557 14.8765,-28.50557 3.6421,0 6.7891,1.98337 6.7891,4.24622 0,0.4218 -0.121,0.84232 -0.7372,1.68336 -1.9256,2.68466 -2.4098,4.08596 -2.4098,6.48985 0,4.6475 3.026,7.89371 7.2513,7.89371 4.3683,0 7.3942,-3.94622 7.3942,-9.57579 0,-9.59502 -8.1094,-16.78744 -18.8928,-16.78744 -15.7348,0 -26.9912,14.94382 -26.9912,36.09799 0,20.03237 10.2991,33.85566 25.3077,33.85566 10.7613,0 16.9342,-5.78984 22.1388,-20.73366 l -4.7204,-2.12311 m 63.1814,-10.99889 c 0.121,-21.15417 -10.1781,-36.09799 -24.9447,-36.09799 -15.4927,0 -27.1123,15.64511 -27.1123,36.79929 0,19.89261 11.0144,33.15436 27.3544,33.15436 11.6196,0 19.7291,-6.63088 24.7026,-20.03237 l -4.2473,-2.68465 c -4.9515,10.85786 -10.0461,15.08485 -18.1556,15.08485 -6.1729,0 -10.6403,-2.94492 -13.7872,-9.29502 -2.1897,-4.22699 -3.147,-9.17578 -3.026,-16.92847 h 39.2161 m -39.095,-6.06932 c 0,-9.8758 3.8622,-23.97858 14.0293,-23.97858 7.2732,0 12.1037,7.49243 12.1037,18.91055 0,3.94622 -1.0893,5.06803 -4.9515,5.06803 h -21.1815 m 124.1621,-29.46712 h -4.2473 l -3.5101,5.06802 c -4.3463,-3.94621 -8.7147,-5.62957 -14.7665,-5.62957 -10.6403,0 -17.6714,8.03346 -17.6714,20.45288 0,13.24123 7.3942,16.62718 17.0772,19.31184 l 6.404,1.70259 c 9.5619,2.66414 12.9509,5.48854 12.9509,11.13735 0,6.63087 -4.9515,11.27838 -11.9826,11.27838 -10.2772,0 -17.5394,-7.61166 -20.4443,-21.71444 h -4.8525 v 26.64272 h 4.2363 l 4.2473,-5.76932 c 4.9515,4.64751 10.3982,6.91165 16.5711,6.91165 11.8616,0 19.7401,-8.61424 19.7401,-21.73496 0,-6.19112 -1.7056,-10.99888 -5.0946,-14.24381 -2.9049,-2.94491 -5.3256,-4.08596 -12.6979,-5.90906 l -6.0519,-1.56285 c -6.657,-1.68207 -6.657,-1.68207 -8.8467,-3.10517 -2.6628,-1.40259 -4.2253,-4.36674 -4.2253,-7.47191 0,-5.76932 4.5884,-9.71554 11.2455,-9.71554 9.936,0 14.7665,8.1732 17.6714,18.049 h 4.2473 v -23.6978 m 58.681,68.24977 22.0398,-0.98207 v -6.06932 h -3.0259 c -7.0312,-0.28077 -7.6364,-1.12181 -7.6364,-10.29631 v -49.35974 l -22.744,1.56284 v 6.06933 h 6.1729 c 4.5884,0.13974 5.1936,0.98206 5.1936,7.05139 v 17.32847 c 0,12.27968 -2.5308,27.2235 -15.8558,27.2235 -3.7412,0 -6.8882,-1.54233 -8.4726,-4.36673 -1.5625,-2.68466 -1.8046,-4.08725 -1.8046,-11.83993 v -43.02887 l -21.1815,1.56284 v 6.06933 h 4.5884 c 4.6104,0.13974 5.2156,0.98206 5.2156,7.05139 v 30.44919 c 0,7.19114 0.4732,10.43734 2.2997,13.68226 3.268,5.78855 9.0778,9.03476 16.329,9.03476 7.9995,0 13.5672,-3.80647 18.8818,-12.84123 v 11.6989 m 48.0518,-66.70744 -21.4236,1.56284 v 6.06933 h 4.9515 c 4.6104,0.13974 5.2156,0.98206 5.2156,7.05139 v 40.32498 c -0.121,2.12311 -0.242,2.96543 -0.7262,3.66544 -0.8363,1.26284 -3.268,1.84362 -8.4726,1.98337 h -0.4841 v 5.06802 h 32.3279 v -5.06802 h -2.1897 c -8.1095,-0.30001 -9.1988,-1.0013 -9.1988,-6.06933 v -7.61294 c 0.121,-23.6978 7.3722,-41.7468 16.8131,-42.30834 -1.6835,2.24362 -2.1676,3.66672 -2.1676,6.33086 0,4.527 2.7948,7.77192 6.657,7.77192 4.4674,0 7.3723,-3.80519 7.3723,-9.45528 0,-6.91036 -4.1043,-11.41812 -10.5192,-11.41812 -7.6364,0 -14.1614,7.05139 -18.1556,19.59133 v -17.48745 m 110.2428,44.993 c -3.8731,10.15529 -7.9774,14.24253 -14.2713,14.24253 -9.683,0 -15.7349,-10.29631 -15.7349,-26.78375 0,-17.20796 5.9308,-28.50557 14.8766,-28.50557 3.6421,0 6.7891,1.98337 6.7891,4.24622 0,0.4218 -0.1211,0.84232 -0.7372,1.68336 -1.9256,2.68466 -2.4098,4.08596 -2.4098,6.48985 0,4.6475 3.0259,7.89371 7.2622,7.89371 4.3574,0 7.3833,-3.94622 7.3833,-9.57579 0,-9.59502 -8.1095,-16.78744 -18.8928,-16.78744 -15.7238,0 -26.9913,14.94382 -26.9913,36.09799 0,20.03237 10.2992,33.85566 25.3078,33.85566 10.7613,0 16.9342,-5.78984 22.1498,-20.73366 l -4.7315,-2.12311 m 37.2575,-47.09688 c -14.8876,0 -26.3971,15.36562 -26.3971,35.11721 0,19.31056 11.6305,34.83644 26.155,34.83644 14.5245,0 26.155,-15.52588 26.155,-34.97747 0,-19.33107 -11.6305,-34.97618 -25.9129,-34.97618 m 0,6.05009 c 8.4726,0 13.182,10.29632 13.182,28.92609 0,18.75029 -4.7094,28.90686 -13.4241,28.90686 -8.7147,0 -13.4241,-10.15657 -13.4241,-28.76583 0,-19.19132 4.5884,-29.06712 13.6662,-29.06712 m 53.9716,-3.94621 -21.4236,1.56284 v 6.06933 h 4.9515 c 4.5994,0.13974 5.2046,0.98206 5.2046,7.05139 v 40.32498 c -0.121,2.12311 -0.2421,2.96543 -0.7262,3.66544 -0.8363,1.26284 -3.257,1.84362 -8.4726,1.98337 h -0.4842 v 5.06802 h 32.328 v -5.06802 h -2.1897 c -8.1095,-0.30001 -9.1878,-1.0013 -9.1878,-6.06933 v -7.61294 c 0.11,-23.6978 7.3722,-41.7468 16.8131,-42.30834 -1.6835,2.24362 -2.1676,3.66672 -2.1676,6.33086 0,4.527 2.7838,7.77192 6.646,7.77192 4.4784,0 7.3833,-3.80519 7.3833,-9.45528 0,-6.91036 -4.1153,-11.41812 -10.5193,-11.41812 -7.6363,0 -14.1723,7.05139 -18.1555,19.59133 v -17.48745 m 74.7679,66.70744 21.0605,-0.98207 v -6.06932 h -2.1897 c -6.8881,-0.42052 -7.4933,-1.26156 -7.4933,-10.29631 v -87.58213 l -23.7233,1.56284 v 6.06933 h 7.1302 c 4.6104,0.14103 5.2156,0.98207 5.2156,7.05139 v 31.87229 c -4.4674,-7.19242 -9.683,-10.43734 -16.6921,-10.43734 -13.6882,0 -24.0864,15.36562 -24.0864,35.67747 0,20.03237 10.0351,34.27618 24.0864,34.27618 7.6143,0 12.8189,-3.80647 16.6921,-12.27968 v 11.13735 m -14.2934,-61.19838 c 4.9736,0 9.705,4.22699 11.8727,10.71683 1.5735,4.22699 2.2997,10.01682 2.2997,16.92719 0,16.48743 -5.5677,27.06452 -14.2934,27.06452 -8.5716,0 -13.6662,-9.29502 -13.6662,-24.96065 0,-8.45397 0.7262,-14.80407 2.3107,-19.45158 2.0466,-6.3501 6.525,-10.29631 11.4765,-10.29631 m 94.0459,28.48505 c 0.1211,-21.15417 -10.1781,-36.09799 -24.9446,-36.09799 -15.4928,0 -27.1124,15.64511 -27.1124,36.79929 0,19.89261 11.0254,33.15436 27.3544,33.15436 11.6196,0 19.7401,-6.63088 24.7026,-20.03237 l -4.2473,-2.68465 c -4.9515,10.85786 -10.0351,15.08485 -18.1556,15.08485 -6.1729,0 -10.6402,-2.94492 -13.7872,-9.29502 -2.1787,-4.22699 -3.147,-9.17578 -3.0259,-16.92847 h 39.216 m -39.095,-6.06932 c 0,-9.8758 3.8732,-23.97858 14.0293,-23.97858 7.2732,0 12.1037,7.49243 12.1037,18.91055 0,3.94622 -1.0783,5.06803 -4.9515,5.06803 h -21.1815 m 118.8365,-37.64033 -16.9452,-19.75287 c -3.0259,-3.52569 -4.1153,-4.36673 -6.0519,-4.36673 -2.4317,0 -4.2363,2.10388 -4.2363,4.92828 0,1.98336 1.2104,4.08596 3.147,5.50906 l 19.2449,13.68226 h 4.8415 m 12.8299,30.02867 c 0,-8.87449 -1.3314,-13.40277 -4.8524,-16.78744 -3.9833,-3.80647 -9.9141,-5.62957 -17.6605,-5.62957 -13.6772,0 -23.6022,7.47191 -23.6022,17.7695 0,5.20778 2.7838,8.59373 7.0201,8.59373 3.8622,0 6.525,-2.96543 6.525,-7.19242 0,-1.82311 -0.5941,-3.80519 -1.8045,-5.76932 -0.7372,-1.0013 -0.8583,-1.28207 -0.8583,-1.98337 0,-2.8244 4.8525,-5.36803 10.6623,-5.36803 3.8732,0 8.1095,1.42182 10.0351,3.5257 2.3107,2.26414 3.1469,5.6488 3.1469,11.9989 v 5.48983 c -12.5768,2.54363 -16.571,3.66544 -22.5019,6.3501 -10.5412,4.52699 -15.4927,10.99761 -15.4927,20.03236 0,10.15657 6.7781,16.50667 17.5614,16.50667 8.3295,0 15.8448,-3.96673 21.0604,-11.15787 1.9256,7.19114 4.9516,10.01554 10.6403,10.01554 5.4467,0 11.1354,-4.08596 11.1354,-8.1732 0,-0.98207 -0.4731,-1.70259 -1.2213,-1.70259 -0.4732,0 -0.9573,0.16026 -1.8046,0.58078 -1.6945,0.84103 -2.4207,0.98206 -3.378,0.98206 -3.4111,0 -4.6105,-2.54491 -4.6105,-9.73605 v -28.34531 m -11.3885,17.20668 c 0,8.45398 -0.3521,10.43734 -2.3987,14.10278 -3.0259,5.20906 -8.4836,8.73475 -13.8092,8.73475 -5.5677,0 -9.562,-4.64751 -9.562,-10.9976 0,-5.91035 2.5418,-10.15657 7.8564,-13.10149 3.7632,-1.98336 8.4836,-3.38595 17.9135,-5.22828 v 6.48984 M 1979.502,450.9198 1965.6928,413.7 c -0.3631,-1.14233 -0.6052,-2.26414 -0.6052,-3.10518 0,-2.40388 1.5845,-3.24492 6.536,-3.24492 h 1.7055 v -5.08854 h -28.5758 v 5.08854 h 0.9793 c 4.5884,0 6.294,1.4013 7.9775,6.06932 l 20.8184,56.69191 h 4.2473 l 17.1763,-49.50077 c 3.389,-9.59502 6.2939,-12.83994 11.2564,-13.26046 h 0.4842 v -5.08854 h -24.2075 v 5.08854 h 1.7056 c 4.2253,0 6.536,1.68207 6.536,4.927 0,1.70259 -0.3631,3.80647 -1.1004,5.92958 l -11.1244,32.71332 m 50.9236,-83.77565 c -3.8731,0 -7.0201,3.66672 -7.0201,8.19371 0,4.50648 3.147,8.17321 6.8991,8.17321 4.0052,0 7.1522,-3.66673 7.1522,-8.17321 0,-4.52699 -3.147,-8.19371 -7.0312,-8.19371 m 5.6888,35.11721 -22.744,1.56284 v 6.06933 h 6.1729 c 4.5884,0.13974 5.1936,0.98206 5.1936,7.05139 v 40.32498 c -0.121,2.12311 -0.2421,2.96543 -0.7262,3.66544 -0.8473,1.26284 -3.147,1.84362 -8.3516,1.98337 h -0.8472 v 5.06802 h 31.3596 v -5.06802 h -0.8583 c -8.0985,-0.30001 -9.1988,-1.0013 -9.1988,-6.06933 v -54.58802 m 59.1762,66.70744 21.0604,-0.98207 v -6.06932 h -2.1786 c -6.8992,-0.42052 -7.5043,-1.26156 -7.5043,-10.29631 v -87.58213 l -23.7233,1.56284 v 6.06933 h 7.1412 c 4.5994,0.14103 5.2046,0.98207 5.2046,7.05139 v 31.87229 c -4.4674,-7.19242 -9.683,-10.43734 -16.6922,-10.43734 -13.6882,0 -24.0864,15.36562 -24.0864,35.67747 0,20.03237 10.0351,34.27618 24.0864,34.27618 7.6144,0 12.83,-3.80647 16.6922,-12.27968 v 11.13735 m -14.2824,-61.19838 c 4.9625,0 9.694,4.22699 11.8616,10.71683 1.5845,4.22699 2.2997,10.01682 2.2997,16.92719 0,16.48743 -5.5677,27.06452 -14.2824,27.06452 -8.5826,0 -13.6662,-9.29502 -13.6662,-24.96065 0,-8.45397 0.7153,-14.80407 2.2998,-19.45158 2.0466,-6.3501 6.536,-10.29631 11.4875,-10.29631 m 94.0459,28.48505 c 0.11,-21.15417 -10.1782,-36.09799 -24.9557,-36.09799 -15.4818,0 -27.1123,15.64511 -27.1123,36.79929 0,19.89261 11.0254,33.15436 27.3544,33.15436 11.6195,0 19.74,-6.63088 24.7136,-20.03237 l -4.2473,-2.68465 c -4.9516,10.85786 -10.0461,15.08485 -18.1556,15.08485 -6.1729,0 -10.6513,-2.94492 -13.7983,-9.29502 -2.1786,-4.22699 -3.1359,-9.17578 -3.0259,-16.92847 h 39.2271 m -39.106,-6.06932 c 0,-9.8758 3.8731,-23.97858 14.0293,-23.97858 7.2732,0 12.1037,7.49243 12.1037,18.91055 0,3.94622 -1.0783,5.06803 -4.9515,5.06803 h -21.1815"
     id="path46"
     style="stroke-width:1.18774" />
  <path
     class="MeasureNumber"
     d="m 101.37584,2253.0555 c -1.10034,5.9488 -4.056942,16.1412 -10.349782,16.1412 -1.27199,0 -2.09724,-0.6154 -2.09724,-1.5385 0,-0.3589 0.0858,-0.5 0.42913,-1.1282 0.44784,-0.6538 0.67121,-1.282 0.67121,-2 0,-1.6795 -1.15206,-2.9616 -2.64852,-2.9616 -1.75283,0 -2.99071,1.5129 -2.99071,3.7821 0,3.4872 2.81906,5.9873 6.73957,5.9873 9.627952,0 15.782142,-14.3464 15.782142,-24.0901 0,-8.0002 -3.30101,-12.7695 -8.750992,-12.7695 -6.55031,0 -11.43251,7.0386 -11.43251,14.3721 0,4.859 3.19759,8.5514 7.479,8.5514 2.90489,0 5.13968,-1.3847 7.168702,-4.3462 m -3.249302,-16.4106 c 2.802562,0 4.608222,2.6026 4.608222,6.7053 0,6.359 -2.991822,11.0258 -7.032262,11.0258 -2.78496,0 -4.31553,-2.2052 -4.31553,-6.0514 0,-4.6026 1.89149,-11.6797 6.73957,-11.6797"
     id="path48"
     style="stroke-width:1.18774" />
  <path
     class="MeasureNumber"
     d="m 89.014648,1535.5572 c -1.37543,0.9615 -1.77155,1.5769 -1.77155,2.6026 0,0.9743 0.70532,1.7051 1.58229,1.7051 1.15205,0 1.80565,-0.9872 1.94319,-2.8846 1.35782,-1.2821 2.81907,-1.8462 4.57301,-1.8462 3.2669,0 5.071462,2.359 5.071462,6.6026 0,6.6796 -3.696042,12.1028 -8.234932,12.1028 -2.5968,0 -4.71055,-1.4231 -4.71055,-3.1283 0,-0.2948 0.0506,-0.3974 0.25748,-0.5513 1.40953,-0.7692 2.56159,-1.3205 2.56159,-3.4872 0,-1.641 -1.10034,-2.8718 -2.64742,-2.8718 -1.92559,0 -3.38684,1.8846 -3.38684,4.3462 0,4.5385 3.35273,7.795 8.06328,7.795 7.11809,0 12.894862,-6.6027 12.894862,-14.7951 0,-5.1924 -3.38794,-8.8463 -8.184312,-8.8463 -1.90799,0 -3.43856,0.4615 -5.55341,1.7051 l 2.45926,-9.6924 c 2.33821,0.5641 4.19448,0.8205 5.77677,0.8205 2.904892,0 5.501692,-1.0769 6.945332,-2.859 0.75704,-1.0257 1.18617,-1.9103 1.18617,-2.5641 0,-0.3206 -0.13755,-0.6283 -0.3092,-0.6283 -0.11993,0 -0.22337,0.064 -0.48195,0.2052 -1.44364,0.8205 -3.30101,1.282 -5.01974,1.282 -2.630912,0 -5.759172,-0.5 -9.009562,-1.4872 l -4.00523,16.4747"
     id="path50"
     style="stroke-width:1.18774" />
  <path
     class="MeasureNumber"
     d="m 102.08116,2949.6816 h -1.27199 c -2.425152,2.1026 -7.083982,3.8847 -10.265052,3.8847 l -0.51496,2.2565 h 3.02593 c 2.68152,0 2.99071,0.1025 2.99071,1.0256 0,0.4616 0,0.4616 -0.42913,2.3077 l -4.71054,20.5132 c -0.58538,2.5641 -0.61949,2.718 -1.01452,3.1795 -0.44783,0.5 -1.37542,0.6667 -3.69713,0.718 h -1.89038 l -0.22447,2.4103 h 16.281702 l 0.25858,-2.4103 h -2.373432 c -2.85318,0 -3.47267,-0.2564 -3.47267,-1.3718 0,-0.3718 0.17166,-1.5513 0.39613,-2.5257 l 6.911222,-29.9877 m 19.2218,17.6285 c 2.07964,-0.7692 2.90489,-1.1923 3.97112,-2.0128 2.06313,-1.577 3.33513,-4.3975 3.33513,-7.2694 0,-4.8719 -3.33513,-8.154 -8.26904,-8.154 -4.79748,0 -8.85442,3.4873 -8.85442,7.6925 0,2.1026 1.10033,3.5513 2.78495,3.5513 1.44365,0 2.50987,-1.2436 2.50987,-2.9231 0,-0.8846 -0.22337,-1.5129 -0.92868,-2.3077 -0.44674,-0.4872 -0.61839,-0.8206 -0.61839,-1.1795 0,-1.2437 2.20067,-2.5257 4.26381,-2.5257 2.95661,0 4.71054,1.8974 4.71054,5.0898 0,4.5385 -2.76735,8.8463 -5.72505,8.8463 -0.11994,0 -0.51606,-0.039 -0.99691,-0.09 -1.2896,-0.1025 -1.2896,-0.1025 -1.54708,-0.1025 -0.96279,0 -1.49646,0.5128 -1.49646,1.4359 0,0.8205 0.48195,1.3205 1.272,1.3205 0.22446,0 0.53366,-0.038 0.87696,-0.09 0.6195,-0.141 1.2896,-0.2051 1.68572,-0.2051 2.06314,0 3.47267,2.1667 3.47267,5.3334 0,5.5385 -2.33822,10.8719 -7.66826,10.8719 -2.45815,0 -4.573,-1.4359 -4.573,-3.0898 0,-0.5513 0.18926,-0.7564 0.87697,-1.1154 1.28959,-0.6666 1.80455,-1.5897 1.80455,-2.9615 0,-1.8078 -1.22027,-3.1924 -2.80256,-3.1924 -1.89038,0 -3.12826,1.7436 -3.12826,4.4103 0,4.9616 3.2493,8.0899 8.52762,8.0899 6.65374,0 11.7076,-5.1668 11.7076,-12.0387 0,-4 -2.11485,-6.2436 -5.1914,-7.3847"
     id="path52"
     style="stroke-width:1.18774" />
  <polyline
     class="BarLine"
     fill="none"
     stroke="#000000"
     stroke-width="4.46"
     stroke-linejoin="bevel"
     points="2762.37,1748.83 2762.37,1850.76"
     id="polyline54"
     transform="matrix(1.1003379,0,0,1.2820712,-149.85001,90.291136)" />
  <polyline
     class="BarLine"
     fill="none"
     stroke="#000000"
     stroke-width="4.46"
     stroke-linejoin="bevel"
     points="2152.64,1748.83 2152.64,1850.76"
     id="polyline56"
     transform="matrix(1.1003379,0,0,1.2820712,-149.85001,90.291136)" />
  <polyline
     class="BarLine"
     fill="none"
     stroke="#000000"
     stroke-width="4.46"
     stroke-linejoin="bevel"
     points="1542.9,1748.83 1542.9,1850.76"
     id="polyline58"
     transform="matrix(1.1003379,0,0,1.2820712,-149.85001,90.291136)" />
  <polyline
     class="BarLine"
     fill="none"
     stroke="#000000"
     stroke-width="4.46"
     stroke-linejoin="bevel"
     points="933.172,1748.83 933.172,1850.76"
     id="polyline60"
     transform="matrix(1.1003379,0,0,1.2820712,-149.85001,90.291136)" />
  <polyline
     class="BarLine"
     fill="none"
     stroke="#000000"
     stroke-width="4.46"
     stroke-linejoin="bevel"
     points="2739.55,2306.83 2739.55,2408.76"
     id="polyline62"
     transform="matrix(1.1003379,0,0,1.2820712,-149.85001,90.291136)" />
  <polyline
     class="BarLine"
     fill="none"
     stroke="#000000"
     stroke-width="13.64"
     stroke-linejoin="bevel"
     points="2757.78,2306.83 2757.78,2408.76"
     id="polyline64"
     transform="matrix(1.1003379,0,0,1.2820712,-149.85001,90.291136)" />
  <polyline
     class="BarLine"
     fill="none"
     stroke="#000000"
     stroke-width="4.46"
     stroke-linejoin="bevel"
     points="2762.37,1190.83 2762.37,1292.76"
     id="polyline66"
     transform="matrix(1.1003379,0,0,1.2820712,-149.85001,90.291136)" />
  <polyline
     class="BarLine"
     fill="none"
     stroke="#000000"
     stroke-width="4.46"
     stroke-linejoin="bevel"
     points="1054.89,2306.83 1054.89,2408.76"
     id="polyline68"
     transform="matrix(1.1003379,0,0,1.2820712,-149.85001,90.291136)" />
  <polyline
     class="BarLine"
     fill="none"
     stroke="#000000"
     stroke-width="4.46"
     stroke-linejoin="bevel"
     points="2152.64,1190.83 2152.64,1292.76"
     id="polyline70"
     transform="matrix(1.1003379,0,0,1.2820712,-149.85001,90.291136)" />
  <polyline
     class="BarLine"
     fill="none"
     stroke="#000000"
     stroke-width="4.46"
     stroke-linejoin="bevel"
     points="1542.9,1190.83 1542.9,1292.76"
     id="polyline72"
     transform="matrix(1.1003379,0,0,1.2820712,-149.85001,90.291136)" />
  <polyline
     class="BarLine"
     fill="none"
     stroke="#000000"
     stroke-width="4.46"
     stroke-linejoin="bevel"
     points="933.172,1190.83 933.172,1292.76"
     id="polyline74"
     transform="matrix(1.1003379,0,0,1.2820712,-149.85001,90.291136)" />
  <polyline
     class="BarLine"
     fill="none"
     stroke="#000000"
     stroke-width="4.46"
     stroke-linejoin="bevel"
     points="1786.34,2306.83 1786.34,2408.76"
     id="polyline76"
     transform="matrix(1.1003379,0,0,1.2820712,-149.85001,90.291136)" />
  <polyline
     class="BarLine"
     fill="none"
     stroke="#000000"
     stroke-width="4.46"
     stroke-linejoin="bevel"
     points="2762.37,632.834 2762.37,734.762"
     id="polyline78"
     transform="matrix(1.1003379,0,0,1.2820712,-149.85001,90.291136)" />
  <polyline
     class="BarLine"
     fill="none"
     stroke="#000000"
     stroke-width="4.46"
     stroke-linejoin="bevel"
     points="2262.95,2306.83 2262.95,2408.76"
     id="polyline80"
     transform="matrix(1.1003379,0,0,1.2820712,-149.85001,90.291136)" />
  <polyline
     class="BarLine"
     fill="none"
     stroke="#000000"
     stroke-width="4.46"
     stroke-linejoin="bevel"
     points="2192.97,632.834 2192.97,734.762"
     id="polyline82"
     transform="matrix(1.1003379,0,0,1.2820712,-149.85001,90.291136)" />
  <polyline
     class="BarLine"
     fill="none"
     stroke="#000000"
     stroke-width="4.46"
     stroke-linejoin="bevel"
     points="1623.57,632.834 1623.57,734.762"
     id="polyline84"
     transform="matrix(1.1003379,0,0,1.2820712,-149.85001,90.291136)" />
  <polyline
     class="BarLine"
     fill="none"
     stroke="#000000"
     stroke-width="4.46"
     stroke-linejoin="bevel"
     points="1054.17,632.834 1054.17,734.762"
     id="polyline86"
     transform="matrix(1.1003379,0,0,1.2820712,-149.85001,90.291136)" />
  <polyline
     class="LedgerLine"
     fill="none"
     stroke="#000000"
     stroke-width="3.97"
     stroke-linejoin="bevel"
     points="1149.64,1316.2 1198.23,1316.2"
     id="polyline88"
     transform="matrix(1.1003379,0,0,1.2820712,-149.85001,90.291136)" />
  <polyline
     class="LedgerLine"
     fill="none"
     stroke="#000000"
     stroke-width="3.97"
     stroke-linejoin="bevel"
     points="2369.11,1899 2417.7,1899"
     id="polyline90"
     transform="matrix(1.1003379,0,0,1.2820712,-149.85001,90.291136)" />
  <polyline
     class="LedgerLine"
     fill="none"
     stroke="#000000"
     stroke-width="3.97"
     stroke-linejoin="bevel"
     points="2369.11,1874.2 2417.7,1874.2"
     id="polyline92"
     transform="matrix(1.1003379,0,0,1.2820712,-149.85001,90.291136)" />
  <polyline
     class="LedgerLine"
     fill="none"
     stroke="#000000"
     stroke-width="3.97"
     stroke-linejoin="bevel"
     points="1759.38,1341 1807.97,1341"
     id="polyline94"
     transform="matrix(1.1003379,0,0,1.2820712,-149.85001,90.291136)" />
  <polyline
     class="LedgerLine"
     fill="none"
     stroke="#000000"
     stroke-width="3.97"
     stroke-linejoin="bevel"
     points="2369.11,1923.8 2417.7,1923.8"
     id="polyline96"
     transform="matrix(1.1003379,0,0,1.2820712,-149.85001,90.291136)" />
  <polyline
     class="LedgerLine"
     fill="none"
     stroke="#000000"
     stroke-width="3.97"
     stroke-linejoin="bevel"
     points="539.91,1365.8 588.502,1365.8"
     id="polyline98"
     transform="matrix(1.1003379,0,0,1.2820712,-149.85001,90.291136)" />
  <polyline
     class="LedgerLine"
     fill="none"
     stroke="#000000"
     stroke-width="3.97"
     stroke-linejoin="bevel"
     points="539.91,1341 588.502,1341"
     id="polyline100"
     transform="matrix(1.1003379,0,0,1.2820712,-149.85001,90.291136)" />
  <polyline
     class="LedgerLine"
     fill="none"
     stroke="#000000"
     stroke-width="3.97"
     stroke-linejoin="bevel"
     points="580.483,2432.2 629.075,2432.2"
     id="polyline102"
     transform="matrix(1.1003379,0,0,1.2820712,-149.85001,90.291136)" />
  <polyline
     class="LedgerLine"
     fill="none"
     stroke="#000000"
     stroke-width="3.97"
     stroke-linejoin="bevel"
     points="580.483,2457 629.075,2457"
     id="polyline104"
     transform="matrix(1.1003379,0,0,1.2820712,-149.85001,90.291136)" />
  <polyline
     class="LedgerLine"
     fill="none"
     stroke="#000000"
     stroke-width="3.97"
     stroke-linejoin="bevel"
     points="580.483,2481.8 629.075,2481.8"
     id="polyline106"
     transform="matrix(1.1003379,0,0,1.2820712,-149.85001,90.291136)" />
  <polyline
     class="LedgerLine"
     fill="none"
     stroke="#000000"
     stroke-width="3.97"
     stroke-linejoin="bevel"
     points="1149.64,1341 1198.23,1341"
     id="polyline108"
     transform="matrix(1.1003379,0,0,1.2820712,-149.85001,90.291136)" />
  <polyline
     class="LedgerLine"
     fill="none"
     stroke="#000000"
     stroke-width="3.97"
     stroke-linejoin="bevel"
     points="1149.64,1365.8 1198.23,1365.8"
     id="polyline110"
     transform="matrix(1.1003379,0,0,1.2820712,-149.85001,90.291136)" />
  <polyline
     class="LedgerLine"
     fill="none"
     stroke="#000000"
     stroke-width="3.97"
     stroke-linejoin="bevel"
     points="1759.38,1316.2 1807.97,1316.2"
     id="polyline112"
     transform="matrix(1.1003379,0,0,1.2820712,-149.85001,90.291136)" />
  <polyline
     class="LedgerLine"
     fill="none"
     stroke="#000000"
     stroke-width="3.97"
     stroke-linejoin="bevel"
     points="539.91,1316.2 588.502,1316.2"
     id="polyline114"
     transform="matrix(1.1003379,0,0,1.2820712,-149.85001,90.291136)" />
  <polyline
     class="LedgerLine"
     fill="none"
     stroke="#000000"
     stroke-width="3.97"
     stroke-linejoin="bevel"
     points="1759.38,1923.8 1807.97,1923.8"
     id="polyline116"
     transform="matrix(1.1003379,0,0,1.2820712,-149.85001,90.291136)" />
  <polyline
     class="LedgerLine"
     fill="none"
     stroke="#000000"
     stroke-width="3.97"
     stroke-linejoin="bevel"
     points="2369.11,1316.2 2417.7,1316.2"
     id="polyline118"
     transform="matrix(1.1003379,0,0,1.2820712,-149.85001,90.291136)" />
  <polyline
     class="LedgerLine"
     fill="none"
     stroke="#000000"
     stroke-width="3.97"
     stroke-linejoin="bevel"
     points="2369.11,1341 2417.7,1341"
     id="polyline120"
     transform="matrix(1.1003379,0,0,1.2820712,-149.85001,90.291136)" />
  <polyline
     class="LedgerLine"
     fill="none"
     stroke="#000000"
     stroke-width="3.97"
     stroke-linejoin="bevel"
     points="1759.38,1899 1807.97,1899"
     id="polyline122"
     transform="matrix(1.1003379,0,0,1.2820712,-149.85001,90.291136)" />
  <polyline
     class="LedgerLine"
     fill="none"
     stroke="#000000"
     stroke-width="3.97"
     stroke-linejoin="bevel"
     points="1759.38,1874.2 1807.97,1874.2"
     id="polyline124"
     transform="matrix(1.1003379,0,0,1.2820712,-149.85001,90.291136)" />
  <polyline
     class="LedgerLine"
     fill="none"
     stroke="#000000"
     stroke-width="3.97"
     stroke-linejoin="bevel"
     points="699.48,782.998 748.072,782.998"
     id="polyline126"
     transform="matrix(1.1003379,0,0,1.2820712,-149.85001,90.291136)" />
  <polyline
     class="LedgerLine"
     fill="none"
     stroke="#000000"
     stroke-width="3.97"
     stroke-linejoin="bevel"
     points="699.48,758.198 748.072,758.198"
     id="polyline128"
     transform="matrix(1.1003379,0,0,1.2820712,-149.85001,90.291136)" />
  <polyline
     class="LedgerLine"
     fill="none"
     stroke="#000000"
     stroke-width="3.97"
     stroke-linejoin="bevel"
     points="539.91,1874.2 588.502,1874.2"
     id="polyline130"
     transform="matrix(1.1003379,0,0,1.2820712,-149.85001,90.291136)" />
  <polyline
     class="LedgerLine"
     fill="none"
     stroke="#000000"
     stroke-width="3.97"
     stroke-linejoin="bevel"
     points="539.91,1899 588.502,1899"
     id="polyline132"
     transform="matrix(1.1003379,0,0,1.2820712,-149.85001,90.291136)" />
  <polyline
     class="LedgerLine"
     fill="none"
     stroke="#000000"
     stroke-width="3.97"
     stroke-linejoin="bevel"
     points="1149.64,1874.2 1198.23,1874.2"
     id="polyline134"
     transform="matrix(1.1003379,0,0,1.2820712,-149.85001,90.291136)" />
  <polyline
     class="LedgerLine"
     fill="none"
     stroke="#000000"
     stroke-width="3.97"
     stroke-linejoin="bevel"
     points="1149.64,1899 1198.23,1899"
     id="polyline136"
     transform="matrix(1.1003379,0,0,1.2820712,-149.85001,90.291136)" />
  <polyline
     class="LedgerLine"
     fill="none"
     stroke="#000000"
     stroke-width="3.97"
     stroke-linejoin="bevel"
     points="2407.68,782.998 2456.27,782.998"
     id="polyline138"
     transform="matrix(1.1003379,0,0,1.2820712,-149.85001,90.291136)" />
  <polyline
     class="LedgerLine"
     fill="none"
     stroke="#000000"
     stroke-width="3.97"
     stroke-linejoin="bevel"
     points="1838.28,807.798 1886.87,807.798"
     id="polyline140"
     transform="matrix(1.1003379,0,0,1.2820712,-149.85001,90.291136)" />
  <polyline
     class="LedgerLine"
     fill="none"
     stroke="#000000"
     stroke-width="3.97"
     stroke-linejoin="bevel"
     points="1311.93,2481.8 1360.53,2481.8"
     id="polyline142"
     transform="matrix(1.1003379,0,0,1.2820712,-149.85001,90.291136)" />
  <polyline
     class="LedgerLine"
     fill="none"
     stroke="#000000"
     stroke-width="3.97"
     stroke-linejoin="bevel"
     points="1838.28,782.998 1886.87,782.998"
     id="polyline144"
     transform="matrix(1.1003379,0,0,1.2820712,-149.85001,90.291136)" />
  <polyline
     class="LedgerLine"
     fill="none"
     stroke="#000000"
     stroke-width="3.97"
     stroke-linejoin="bevel"
     points="1838.28,758.198 1886.87,758.198"
     id="polyline146"
     transform="matrix(1.1003379,0,0,1.2820712,-149.85001,90.291136)" />
  <polyline
     class="LedgerLine"
     fill="none"
     stroke="#000000"
     stroke-width="3.97"
     stroke-linejoin="bevel"
     points="1311.93,2457 1360.53,2457"
     id="polyline148"
     transform="matrix(1.1003379,0,0,1.2820712,-149.85001,90.291136)" />
  <polyline
     class="LedgerLine"
     fill="none"
     stroke="#000000"
     stroke-width="3.97"
     stroke-linejoin="bevel"
     points="1311.93,2432.2 1360.53,2432.2"
     id="polyline150"
     transform="matrix(1.1003379,0,0,1.2820712,-149.85001,90.291136)" />
  <polyline
     class="LedgerLine"
     fill="none"
     stroke="#000000"
     stroke-width="3.97"
     stroke-linejoin="bevel"
     points="1268.88,782.998 1317.47,782.998"
     id="polyline152"
     transform="matrix(1.1003379,0,0,1.2820712,-149.85001,90.291136)" />
  <polyline
     class="LedgerLine"
     fill="none"
     stroke="#000000"
     stroke-width="3.97"
     stroke-linejoin="bevel"
     points="1268.88,758.198 1317.47,758.198"
     id="polyline154"
     transform="matrix(1.1003379,0,0,1.2820712,-149.85001,90.291136)" />
  <polyline
     class="LedgerLine"
     fill="none"
     stroke="#000000"
     stroke-width="3.97"
     stroke-linejoin="bevel"
     points="2288,2432.2 2336.59,2432.2"
     id="polyline156"
     transform="matrix(1.1003379,0,0,1.2820712,-149.85001,90.291136)" />
  <polyline
     class="LedgerLine"
     fill="none"
     stroke="#000000"
     stroke-width="3.97"
     stroke-linejoin="bevel"
     points="2407.68,758.198 2456.27,758.198"
     id="polyline158"
     transform="matrix(1.1003379,0,0,1.2820712,-149.85001,90.291136)" />
  <polyline
     class="LedgerLine"
     fill="none"
     stroke="#000000"
     stroke-width="3.97"
     stroke-linejoin="bevel"
     points="2407.68,807.798 2456.27,807.798"
     id="polyline160"
     transform="matrix(1.1003379,0,0,1.2820712,-149.85001,90.291136)" />
  <polyline
     class="LedgerLine"
     fill="none"
     stroke="#000000"
     stroke-width="3.97"
     stroke-linejoin="bevel"
     points="2288,2457 2336.59,2457"
     id="polyline162"
     transform="matrix(1.1003379,0,0,1.2820712,-149.85001,90.291136)" />
  <polyline
     class="Stem"
     fill="none"
     stroke="#000000"
     stroke-width="2.48"
     stroke-linejoin="bevel"
     points="1675.56,650.765 1675.56,733.398"
     id="polyline164"
     transform="matrix(1.1003379,0,0,1.2820712,-149.85001,90.291136)" />
  <polyline
     class="Stem"
     fill="none"
     stroke="#000000"
     stroke-width="2.48"
     stroke-linejoin="bevel"
     points="1106.16,650.765 1106.16,733.398"
     id="polyline166"
     transform="matrix(1.1003379,0,0,1.2820712,-149.85001,90.291136)" />
  <polyline
     class="Stem"
     fill="none"
     stroke="#000000"
     stroke-width="2.48"
     stroke-linejoin="bevel"
     points="1798.54,1337.03 1798.54,1241.8"
     id="polyline168"
     transform="matrix(1.1003379,0,0,1.2820712,-149.85001,90.291136)" />
  <polyline
     class="Stem"
     fill="none"
     stroke="#000000"
     stroke-width="2.48"
     stroke-linejoin="bevel"
     points="1960.22,1208.76 1960.22,1291.4"
     id="polyline170"
     transform="matrix(1.1003379,0,0,1.2820712,-149.85001,90.291136)" />
  <polyline
     class="Stem"
     fill="none"
     stroke="#000000"
     stroke-width="2.48"
     stroke-linejoin="bevel"
     points="1960.22,1766.76 1960.22,1849.4"
     id="polyline172"
     transform="matrix(1.1003379,0,0,1.2820712,-149.85001,90.291136)" />
  <polyline
     class="Stem"
     fill="none"
     stroke="#000000"
     stroke-width="2.48"
     stroke-linejoin="bevel"
     points="1188.81,1895.03 1188.81,1799.8"
     id="polyline174"
     transform="matrix(1.1003379,0,0,1.2820712,-149.85001,90.291136)" />
  <polyline
     class="Stem"
     fill="none"
     stroke="#000000"
     stroke-width="2.48"
     stroke-linejoin="bevel"
     points="1350.49,1766.76 1350.49,1849.4"
     id="polyline176"
     transform="matrix(1.1003379,0,0,1.2820712,-149.85001,90.291136)" />
  <polyline
     class="Stem"
     fill="none"
     stroke="#000000"
     stroke-width="2.48"
     stroke-linejoin="bevel"
     points="1877.45,816.23 1877.45,683.798"
     id="polyline178"
     transform="matrix(1.1003379,0,0,1.2820712,-149.85001,90.291136)" />
  <polyline
     class="Stem"
     fill="none"
     stroke="#000000"
     stroke-width="2.48"
     stroke-linejoin="bevel"
     points="2187.11,1208.76 2187.11,1291.4"
     id="polyline180"
     transform="matrix(1.1003379,0,0,1.2820712,-149.85001,90.291136)" />
  <polyline
     class="Stem"
     fill="none"
     stroke="#000000"
     stroke-width="2.48"
     stroke-linejoin="bevel"
     points="2408.28,1337.03 2408.28,1241.8"
     id="polyline182"
     transform="matrix(1.1003379,0,0,1.2820712,-149.85001,90.291136)" />
  <polyline
     class="Stem"
     fill="none"
     stroke="#000000"
     stroke-width="2.48"
     stroke-linejoin="bevel"
     points="1553.35,2324.76 1553.35,2407.4"
     id="polyline184"
     transform="matrix(1.1003379,0,0,1.2820712,-149.85001,90.291136)" />
  <polyline
     class="Stem"
     fill="none"
     stroke="#000000"
     stroke-width="2.48"
     stroke-linejoin="bevel"
     points="738.648,779.03 738.648,683.798"
     id="polyline186"
     transform="matrix(1.1003379,0,0,1.2820712,-149.85001,90.291136)" />
  <polyline
     class="Stem"
     fill="none"
     stroke="#000000"
     stroke-width="2.48"
     stroke-linejoin="bevel"
     points="2569.95,1208.76 2569.95,1291.4"
     id="polyline188"
     transform="matrix(1.1003379,0,0,1.2820712,-149.85001,90.291136)" />
  <polyline
     class="Stem"
     fill="none"
     stroke="#000000"
     stroke-width="2.48"
     stroke-linejoin="bevel"
     points="1820.81,2324.76 1820.81,2407.4"
     id="polyline190"
     transform="matrix(1.1003379,0,0,1.2820712,-149.85001,90.291136)" />
  <polyline
     class="Stem"
     fill="none"
     stroke="#000000"
     stroke-width="2.48"
     stroke-linejoin="bevel"
     points="1450.44,650.765 1450.44,733.398"
     id="polyline192"
     transform="matrix(1.1003379,0,0,1.2820712,-149.85001,90.291136)" />
  <polyline
     class="Stem"
     fill="none"
     stroke="#000000"
     stroke-width="2.48"
     stroke-linejoin="bevel"
     points="2327.16,2453.03 2327.16,2357.8"
     id="polyline194"
     transform="matrix(1.1003379,0,0,1.2820712,-149.85001,90.291136)" />
  <polyline
     class="Stem"
     fill="none"
     stroke="#000000"
     stroke-width="2.48"
     stroke-linejoin="bevel"
     points="1798.54,1932.23 1798.54,1799.8"
     id="polyline196"
     transform="matrix(1.1003379,0,0,1.2820712,-149.85001,90.291136)" />
  <polyline
     class="Stem"
     fill="none"
     stroke="#000000"
     stroke-width="2.48"
     stroke-linejoin="bevel"
     points="357.911,1766.76 357.911,1849.4"
     id="polyline198"
     transform="matrix(1.1003379,0,0,1.2820712,-149.85001,90.291136)" />
  <polyline
     class="Stem"
     fill="none"
     stroke="#000000"
     stroke-width="2.48"
     stroke-linejoin="bevel"
     points="1577.38,1766.76 1577.38,1849.4"
     id="polyline200"
     transform="matrix(1.1003379,0,0,1.2820712,-149.85001,90.291136)" />
  <polyline
     class="Stem"
     fill="none"
     stroke="#000000"
     stroke-width="2.48"
     stroke-linejoin="bevel"
     points="579.078,1895.03 579.078,1799.8"
     id="polyline202"
     transform="matrix(1.1003379,0,0,1.2820712,-149.85001,90.291136)" />
  <polyline
     class="Stem"
     fill="none"
     stroke="#000000"
     stroke-width="2.48"
     stroke-linejoin="bevel"
     points="967.644,1766.76 967.644,1849.4"
     id="polyline204"
     transform="matrix(1.1003379,0,0,1.2820712,-149.85001,90.291136)" />
  <polyline
     class="Stem"
     fill="none"
     stroke="#000000"
     stroke-width="2.48"
     stroke-linejoin="bevel"
     points="1308.05,779.03 1308.05,683.798"
     id="polyline206"
     transform="matrix(1.1003379,0,0,1.2820712,-149.85001,90.291136)" />
  <polyline
     class="Stem"
     fill="none"
     stroke="#000000"
     stroke-width="2.48"
     stroke-linejoin="bevel"
     points="740.757,1766.76 740.757,1849.4"
     id="polyline208"
     transform="matrix(1.1003379,0,0,1.2820712,-149.85001,90.291136)" />
  <polyline
     class="Stem"
     fill="none"
     stroke="#000000"
     stroke-width="2.48"
     stroke-linejoin="bevel"
     points="740.757,1208.76 740.757,1291.4"
     id="polyline210"
     transform="matrix(1.1003379,0,0,1.2820712,-149.85001,90.291136)" />
  <polyline
     class="Stem"
     fill="none"
     stroke="#000000"
     stroke-width="2.48"
     stroke-linejoin="bevel"
     points="2589.24,650.765 2589.24,733.398"
     id="polyline212"
     transform="matrix(1.1003379,0,0,1.2820712,-149.85001,90.291136)" />
  <polyline
     class="Stem"
     fill="none"
     stroke="#000000"
     stroke-width="2.48"
     stroke-linejoin="bevel"
     points="619.651,2490.23 619.651,2357.8"
     id="polyline214"
     transform="matrix(1.1003379,0,0,1.2820712,-149.85001,90.291136)" />
  <polyline
     class="Stem"
     fill="none"
     stroke="#000000"
     stroke-width="2.48"
     stroke-linejoin="bevel"
     points="357.911,2324.76 357.911,2407.4"
     id="polyline216"
     transform="matrix(1.1003379,0,0,1.2820712,-149.85001,90.291136)" />
  <polyline
     class="Stem"
     fill="none"
     stroke="#000000"
     stroke-width="2.48"
     stroke-linejoin="bevel"
     points="2446.85,816.23 2446.85,683.798"
     id="polyline218"
     transform="matrix(1.1003379,0,0,1.2820712,-149.85001,90.291136)" />
  <polyline
     class="Stem"
     fill="none"
     stroke="#000000"
     stroke-width="2.48"
     stroke-linejoin="bevel"
     points="536.765,650.765 536.765,733.398"
     id="polyline220"
     transform="matrix(1.1003379,0,0,1.2820712,-149.85001,90.291136)" />
  <polyline
     class="Stem"
     fill="none"
     stroke="#000000"
     stroke-width="2.48"
     stroke-linejoin="bevel"
     points="2569.95,1766.76 2569.95,1849.4"
     id="polyline222"
     transform="matrix(1.1003379,0,0,1.2820712,-149.85001,90.291136)" />
  <polyline
     class="Stem"
     fill="none"
     stroke="#000000"
     stroke-width="2.48"
     stroke-linejoin="bevel"
     points="357.911,1208.76 357.911,1291.4"
     id="polyline224"
     transform="matrix(1.1003379,0,0,1.2820712,-149.85001,90.291136)" />
  <polyline
     class="Stem"
     fill="none"
     stroke="#000000"
     stroke-width="2.48"
     stroke-linejoin="bevel"
     points="579.078,1374.23 579.078,1241.8"
     id="polyline226"
     transform="matrix(1.1003379,0,0,1.2820712,-149.85001,90.291136)" />
  <polyline
     class="Stem"
     fill="none"
     stroke="#000000"
     stroke-width="2.48"
     stroke-linejoin="bevel"
     points="821.903,2324.76 821.903,2407.4"
     id="polyline228"
     transform="matrix(1.1003379,0,0,1.2820712,-149.85001,90.291136)" />
  <polyline
     class="Stem"
     fill="none"
     stroke="#000000"
     stroke-width="2.48"
     stroke-linejoin="bevel"
     points="2244.96,650.765 2244.96,733.398"
     id="polyline230"
     transform="matrix(1.1003379,0,0,1.2820712,-149.85001,90.291136)" />
  <polyline
     class="Stem"
     fill="none"
     stroke="#000000"
     stroke-width="2.48"
     stroke-linejoin="bevel"
     points="1577.38,1208.76 1577.38,1291.4"
     id="polyline232"
     transform="matrix(1.1003379,0,0,1.2820712,-149.85001,90.291136)" />
  <polyline
     class="Stem"
     fill="none"
     stroke="#000000"
     stroke-width="2.48"
     stroke-linejoin="bevel"
     points="1089.36,2324.76 1089.36,2407.4"
     id="polyline234"
     transform="matrix(1.1003379,0,0,1.2820712,-149.85001,90.291136)" />
  <polyline
     class="Stem"
     fill="none"
     stroke="#000000"
     stroke-width="2.48"
     stroke-linejoin="bevel"
     points="881.042,650.765 881.042,733.398"
     id="polyline236"
     transform="matrix(1.1003379,0,0,1.2820712,-149.85001,90.291136)" />
  <polyline
     class="Stem"
     fill="none"
     stroke="#000000"
     stroke-width="2.48"
     stroke-linejoin="bevel"
     points="2187.11,1766.76 2187.11,1849.4"
     id="polyline238"
     transform="matrix(1.1003379,0,0,1.2820712,-149.85001,90.291136)" />
  <polyline
     class="Stem"
     fill="none"
     stroke="#000000"
     stroke-width="2.48"
     stroke-linejoin="bevel"
     points="967.644,1208.76 967.644,1291.4"
     id="polyline240"
     transform="matrix(1.1003379,0,0,1.2820712,-149.85001,90.291136)" />
  <polyline
     class="Stem"
     fill="none"
     stroke="#000000"
     stroke-width="2.48"
     stroke-linejoin="bevel"
     points="1351.1,2490.23 1351.1,2357.8"
     id="polyline242"
     transform="matrix(1.1003379,0,0,1.2820712,-149.85001,90.291136)" />
  <polyline
     class="Stem"
     fill="none"
     stroke="#000000"
     stroke-width="2.48"
     stroke-linejoin="bevel"
     points="1350.49,1208.76 1350.49,1291.4"
     id="polyline244"
     transform="matrix(1.1003379,0,0,1.2820712,-149.85001,90.291136)" />
  <polyline
     class="Stem"
     fill="none"
     stroke="#000000"
     stroke-width="2.48"
     stroke-linejoin="bevel"
     points="1188.81,1374.23 1188.81,1241.8"
     id="polyline246"
     transform="matrix(1.1003379,0,0,1.2820712,-149.85001,90.291136)" />
  <polyline
     class="Stem"
     fill="none"
     stroke="#000000"
     stroke-width="2.48"
     stroke-linejoin="bevel"
     points="2019.84,650.765 2019.84,733.398"
     id="polyline248"
     transform="matrix(1.1003379,0,0,1.2820712,-149.85001,90.291136)" />
  <polyline
     class="Stem"
     fill="none"
     stroke="#000000"
     stroke-width="2.48"
     stroke-linejoin="bevel"
     points="2408.28,1932.23 2408.28,1799.8"
     id="polyline250"
     transform="matrix(1.1003379,0,0,1.2820712,-149.85001,90.291136)" />
  <path
     class="Note"
     d="m 2465.9724,2577.9829 c 0,5.4649 3.3769,11.5656 12.2286,11.5656 11.3417,0 23.2463,-10.8104 23.2463,-21.9984 0,-7.5117 -5.4577,-11.7047 -12.2286,-11.7047 -10.5913,0 -23.2463,10.4329 -23.2463,22.1375"
     id="path252"
     style="stroke-width:1.17823" />
  <path
     class="Note"
     d="m 2255.3457,2355.4154 c 0,5.4648 3.377,11.5655 12.2286,11.5655 11.3418,0 23.2463,-10.8104 23.2463,-21.9984 0,-7.5116 -5.4577,-11.7046 -12.2286,-11.7046 -10.5913,0 -23.2463,10.4328 -23.2463,22.1375"
     id="path254"
     style="stroke-width:1.17823" />
  <path
     class="Note"
     d="m 242.60862,3070.8111 c 0,5.4648 3.37693,11.5655 12.22858,11.5655 11.34181,0 23.24631,-10.8104 23.24631,-21.9984 0,-7.5116 -5.45768,-11.7046 -12.22858,-11.7046 -10.59127,0 -23.24631,10.4328 -23.24631,22.1375"
     id="path256"
     style="stroke-width:1.17823" />
  <path
     class="Note"
     d="m 439.40846,924.62141 c 0,5.4648 3.37693,11.5656 12.22858,11.5656 11.34181,0 23.24631,-10.8105 23.24631,-21.9985 0,-7.5116 -5.45768,-11.7046 -12.22858,-11.7046 -10.59127,0 -23.24631,10.4328 -23.24631,22.1375"
     id="path258"
     style="stroke-width:1.17823" />
  <path
     class="Note"
     d="m 497.88261,3293.3786 c 0,5.4649 3.37694,11.5656 12.22859,11.5656 11.34181,0 23.24631,-10.8104 23.24631,-21.9984 0,-7.5117 -5.45768,-11.7047 -12.22858,-11.7047 -10.59127,0 -23.24632,10.4329 -23.24632,22.1375"
     id="path260"
     style="stroke-width:1.17823" />
  <path
     class="Note"
     d="m 2005.6901,2355.4154 c 0,5.4648 3.3769,11.5655 12.2286,11.5655 11.3417,0 23.2462,-10.8104 23.2462,-21.9984 0,-7.5116 -5.4576,-11.7046 -12.2286,-11.7046 -10.5913,0 -23.2462,10.4328 -23.2462,22.1375"
     id="path262"
     style="stroke-width:1.17823" />
  <path
     class="Note"
     d="m 1334.781,2355.4154 c 0,5.4648 3.3769,11.5655 12.2286,11.5655 11.3417,0 23.2463,-10.8104 23.2463,-21.9984 0,-7.5116 -5.4577,-11.7046 -12.2286,-11.7046 -10.5913,0 -23.2463,10.4328 -23.2463,22.1375"
     id="path264"
     style="stroke-width:1.17823" />
  <path
     class="Note"
     d="m 2676.5991,2355.4154 c 0,5.4648 3.3769,11.5655 12.2286,11.5655 11.3417,0 23.2463,-10.8104 23.2463,-21.9984 0,-7.5116 -5.4577,-11.7046 -12.2286,-11.7046 -10.5913,0 -23.2463,10.4328 -23.2463,22.1375"
     id="path266"
     style="stroke-width:1.17823" />
  <path
     class="Note"
     d="m 1795.0634,2577.9829 c 0,5.4649 3.3769,11.5656 12.2286,11.5656 11.3417,0 23.2463,-10.8104 23.2463,-21.9984 0,-7.5117 -5.4577,-11.7047 -12.2286,-11.7047 -10.5913,0 -23.2463,10.4329 -23.2463,22.1375"
     id="path268"
     style="stroke-width:1.17823" />
  <path
     class="Note"
     d="m 1047.4498,3070.8111 c 0,5.4648 3.3769,11.5655 12.2286,11.5655 11.3417,0 23.2463,-10.8104 23.2463,-21.9984 0,-7.5116 -5.4577,-11.7046 -12.2286,-11.7046 -10.5914,0 -23.2463,10.4328 -23.2463,22.1375"
     id="path270"
     style="stroke-width:1.17823" />
  <path
     class="Note"
     d="m 1065.9354,924.62141 c 0,5.4648 3.377,11.5656 12.2286,11.5656 11.3418,0 23.2463,-10.8105 23.2463,-21.9985 0,-7.5116 -5.4576,-11.7046 -12.2286,-11.7046 -10.5913,0 -23.2463,10.4328 -23.2463,22.1375"
     id="path272"
     style="stroke-width:1.17823" />
  <path
     class="Note"
     d="m 1584.4367,2355.4154 c 0,5.4648 3.3769,11.5655 12.2286,11.5655 11.3417,0 23.2463,-10.8104 23.2463,-21.9984 0,-7.5116 -5.4577,-11.7046 -12.2286,-11.7046 -10.5913,0 -23.2463,10.4328 -23.2463,22.1375"
     id="path274"
     style="stroke-width:1.17823" />
  <path
     class="Note"
     d="m 753.15661,3070.8111 c 0,5.4648 3.37694,11.5655 12.22859,11.5655 11.34181,0 23.24631,-10.8104 23.24631,-21.9984 0,-7.5116 -5.45768,-11.7046 -12.22859,-11.7046 -10.59127,0 -23.24631,10.4328 -23.24631,22.1375"
     id="path276"
     style="stroke-width:1.17823" />
  <path
     class="Note"
     d="m 1302.7282,3293.3786 c 0,5.4649 3.3769,11.5656 12.2286,11.5656 11.3417,0 23.2463,-10.8104 23.2463,-21.9984 0,-7.5117 -5.4577,-11.7047 -12.2286,-11.7047 -10.5914,0 -23.2463,10.4329 -23.2463,22.1375"
     id="path278"
     style="stroke-width:1.17823" />
  <path
     class="Note"
     d="m 1875.5382,3048.6736 c -10.5913,0 -23.2463,10.3136 -23.2463,22.1375 0,5.4648 3.377,11.5655 12.2286,11.5655 11.3418,0 23.2463,-10.8104 23.2463,-21.9984 0,-7.5116 -5.4576,-11.7046 -12.2286,-11.7046 m -2.9505,22.3958 c -0.3241,0.2385 -8.2889,5.3257 -12.1092,5.3257 -3.5987,0 -4.3662,-3.418 -4.3662,-4.5705 0,-5.3456 10.9154,-11.5656 11.3588,-11.8239 0.4264,-0.2584 8.1865,-5.3456 12.1092,-5.3456 2.6265,0 4.3662,1.7884 4.3662,4.5705 0,5.4847 -11.0177,11.5855 -11.3588,11.8438"
     id="path280"
     style="stroke-width:1.17823" />
  <path
     class="Note"
     d="m 1557.9956,3070.8111 c 0,5.4648 3.3769,11.5655 12.2286,11.5655 11.3417,0 23.2463,-10.8104 23.2463,-21.9984 0,-7.5116 -5.4577,-11.7046 -12.2287,-11.7046 -10.5913,0 -23.2462,10.4328 -23.2462,22.1375"
     id="path282"
     style="stroke-width:1.17823" />
  <path
     class="Note"
     d="m 242.60862,1640.0197 c 0,5.4648 3.37693,11.5655 12.22858,11.5655 11.34181,0 23.24631,-10.8104 23.24631,-21.9984 0,-7.5116 -5.45768,-11.7047 -12.22858,-11.7047 -10.59127,0 -23.24631,10.4329 -23.24631,22.1376"
     id="path284"
     style="stroke-width:1.17823" />
  <path
     class="Note"
     d="m 1881.88,1147.1889 c 0,5.4649 3.377,11.5656 12.2286,11.5656 11.3418,0 23.2463,-10.8104 23.2463,-21.9984 0,-7.5117 -5.4577,-11.7047 -12.2286,-11.7047 -10.5913,0 -23.2463,10.4329 -23.2463,22.1375"
     id="path286"
     style="stroke-width:1.17823" />
  <path
     class="Note"
     d="m 2071.2922,924.62141 c 0,5.4648 3.3769,11.5656 12.2286,11.5656 11.3417,0 23.2463,-10.8105 23.2463,-21.9985 0,-7.5116 -5.4577,-11.7046 -12.2286,-11.7046 -10.5913,0 -23.2463,10.4328 -23.2463,22.1375"
     id="path288"
     style="stroke-width:1.17823" />
  <path
     class="Note"
     d="m 1692.4679,924.62141 c 0,5.4648 3.3769,11.5656 12.2286,11.5656 11.3417,0 23.2463,-10.8105 23.2463,-21.9985 0,-7.5116 -5.4577,-11.7046 -12.2287,-11.7046 -10.5913,0 -23.2462,10.4328 -23.2462,22.1375"
     id="path290"
     style="stroke-width:1.17823" />
  <path
     class="Note"
     d="m 2319.0003,924.62141 c 0,5.4648 3.3769,11.5656 12.2286,11.5656 11.3417,0 23.2463,-10.8105 23.2463,-21.9985 0,-7.5116 -5.4577,-11.7046 -12.2286,-11.7046 -10.5913,0 -23.2463,10.4328 -23.2463,22.1375"
     id="path292"
     style="stroke-width:1.17823" />
  <path
     class="Note"
     d="m 2508.4124,1147.1889 c 0,5.4649 3.377,11.5656 12.2286,11.5656 11.3418,0 23.2463,-10.8104 23.2463,-21.9984 0,-7.5117 -5.4576,-11.7047 -12.2286,-11.7047 -10.5913,0 -23.2463,10.4329 -23.2463,22.1375"
     id="path294"
     style="stroke-width:1.17823" />
  <path
     class="Note"
     d="m 1444.7598,924.62141 c 0,5.4648 3.3769,11.5656 12.2286,11.5656 11.3417,0 23.2463,-10.8105 23.2463,-21.9985 0,-7.5116 -5.4577,-11.7046 -12.2286,-11.7046 -10.5913,0 -23.2463,10.4328 -23.2463,22.1375"
     id="path296"
     style="stroke-width:1.17823" />
  <path
     class="Note"
     d="m 2697.8246,924.62141 c 0,5.4648 3.377,11.5656 12.2286,11.5656 11.3418,0 23.2463,-10.8105 23.2463,-21.9985 0,-7.5116 -5.4577,-11.7046 -12.2286,-11.7046 -10.5913,0 -23.2463,10.4328 -23.2463,22.1375"
     id="path298"
     style="stroke-width:1.17823" />
  <path
     class="Note"
     d="m 1124.1543,2530.2899 c 0,5.4648 3.377,11.5655 12.2286,11.5655 11.3418,0 23.2463,-10.8104 23.2463,-21.9984 0,-7.5116 -5.4577,-11.7046 -12.2286,-11.7046 -10.5913,0 -23.2463,10.4328 -23.2463,22.1375"
     id="path300"
     style="stroke-width:1.17823" />
  <path
     class="Note"
     d="m 818.2295,924.62141 c 0,5.4648 3.37693,11.5656 12.22858,11.5656 11.34181,0 23.24631,-10.8105 23.24631,-21.9985 0,-7.5116 -5.45767,-11.7046 -12.22858,-11.7046 -10.59127,0 -23.24631,10.4328 -23.24631,22.1375"
     id="path302"
     style="stroke-width:1.17823" />
  <path
     class="Note"
     d="m 453.2386,1862.5872 c 0,5.4649 3.37694,11.5656 12.22859,11.5656 11.34181,0 23.24631,-10.8104 23.24631,-21.9984 0,-7.5117 -5.45768,-11.7047 -12.22859,-11.7047 -10.59126,0 -23.24631,10.4329 -23.24631,22.1375"
     id="path304"
     style="stroke-width:1.17823" />
  <path
     class="Note"
     d="m 663.86859,1640.0197 c 0,5.4648 3.37694,11.5655 12.22858,11.5655 11.34181,0 23.24632,-10.8104 23.24632,-21.9984 0,-7.5116 -5.45768,-11.7047 -12.22859,-11.7047 -10.59127,0 -23.24631,10.4329 -23.24631,22.1376"
     id="path306"
     style="stroke-width:1.17823" />
  <path
     class="Note"
     d="m 913.52093,1640.0197 c 0,5.4648 3.377,11.5655 12.2286,11.5655 11.3418,0 23.2463,-10.8104 23.2463,-21.9984 0,-7.5116 -5.4576,-11.7047 -12.2286,-11.7047 -10.5912,0 -23.2463,10.4329 -23.2463,22.1376"
     id="path308"
     style="stroke-width:1.17823" />
  <path
     class="Note"
     d="m 1124.1543,1862.5872 c 0,5.4649 3.377,11.5656 12.2286,11.5656 11.3418,0 23.2463,-10.8104 23.2463,-21.9984 0,-7.5117 -5.4577,-11.7047 -12.2286,-11.7047 -10.5913,0 -23.2463,10.4329 -23.2463,22.1375"
     id="path310"
     style="stroke-width:1.17823" />
  <path
     class="Note"
     d="m 1334.781,1640.0197 c 0,5.4648 3.3769,11.5655 12.2286,11.5655 11.3417,0 23.2463,-10.8104 23.2463,-21.9984 0,-7.5116 -5.4577,-11.7047 -12.2286,-11.7047 -10.5913,0 -23.2463,10.4329 -23.2463,22.1376"
     id="path312"
     style="stroke-width:1.17823" />
  <path
     class="Note"
     d="m 1255.3476,1099.4959 c 0,5.4648 3.3769,11.5656 12.2286,11.5656 11.3418,0 23.2463,-10.8105 23.2463,-21.9985 0,-7.5116 -5.4577,-11.7046 -12.2286,-11.7046 -10.5913,0 -23.2463,10.4328 -23.2463,22.1375"
     id="path314"
     style="stroke-width:1.17823" />
  <path
     class="Note"
     d="m 1795.0634,1814.8942 c 0,5.4648 3.3769,11.5655 12.2286,11.5655 11.3417,0 23.2463,-10.8104 23.2463,-21.9984 0,-7.5116 -5.4577,-11.7046 -12.2286,-11.7046 -10.5913,0 -23.2463,10.4328 -23.2463,22.1375"
     id="path316"
     style="stroke-width:1.17823" />
  <path
     class="Note"
     d="m 913.52093,2355.4154 c 0,5.4648 3.377,11.5655 12.2286,11.5655 11.3418,0 23.2463,-10.8104 23.2463,-21.9984 0,-7.5116 -5.4576,-11.7046 -12.2286,-11.7046 -10.5912,0 -23.2463,10.4328 -23.2463,22.1375"
     id="path318"
     style="stroke-width:1.17823" />
  <path
     class="Note"
     d="m 663.86859,2355.4154 c 0,5.4648 3.37694,11.5655 12.22858,11.5655 11.34181,0 23.24632,-10.8104 23.24632,-21.9984 0,-7.5116 -5.45768,-11.7046 -12.22859,-11.7046 -10.59127,0 -23.24631,10.4328 -23.24631,22.1375"
     id="path320"
     style="stroke-width:1.17823" />
  <path
     class="Note"
     d="m 453.2386,2530.2899 c 0,5.4648 3.37694,11.5655 12.22859,11.5655 11.34181,0 23.24631,-10.8104 23.24631,-21.9984 0,-7.5116 -5.45768,-11.7046 -12.22859,-11.7046 -10.59126,0 -23.24631,10.4328 -23.24631,22.1375"
     id="path322"
     style="stroke-width:1.17823" />
  <path
     class="Note"
     d="m 242.60862,2355.4154 c 0,5.4648 3.37693,11.5655 12.22858,11.5655 11.34181,0 23.24631,-10.8104 23.24631,-21.9984 0,-7.5116 -5.45768,-11.7046 -12.22858,-11.7046 -10.59127,0 -23.24631,10.4328 -23.24631,22.1375"
     id="path324"
     style="stroke-width:1.17823" />
  <path
     class="Note"
     d="m 2676.5991,1640.0197 c 0,5.4648 3.3769,11.5655 12.2286,11.5655 11.3417,0 23.2463,-10.8104 23.2463,-21.9984 0,-7.5116 -5.4577,-11.7047 -12.2286,-11.7047 -10.5913,0 -23.2463,10.4329 -23.2463,22.1376"
     id="path326"
     style="stroke-width:1.17823" />
  <path
     class="Note"
     d="m 2465.9724,1814.8942 c 0,5.4648 3.3769,11.5655 12.2286,11.5655 11.3417,0 23.2463,-10.8104 23.2463,-21.9984 0,-7.5116 -5.4577,-11.7046 -12.2286,-11.7046 -10.5913,0 -23.2463,10.4328 -23.2463,22.1375"
     id="path328"
     style="stroke-width:1.17823" />
  <path
     class="Note"
     d="m 1584.4367,1640.0197 c 0,5.4648 3.3769,11.5655 12.2286,11.5655 11.3417,0 23.2463,-10.8104 23.2463,-21.9984 0,-7.5116 -5.4577,-11.7047 -12.2286,-11.7047 -10.5913,0 -23.2463,10.4329 -23.2463,22.1376"
     id="path330"
     style="stroke-width:1.17823" />
  <path
     class="Note"
     d="m 2255.3457,1640.0197 c 0,5.4648 3.377,11.5655 12.2286,11.5655 11.3418,0 23.2463,-10.8104 23.2463,-21.9984 0,-7.5116 -5.4577,-11.7047 -12.2286,-11.7047 -10.5913,0 -23.2463,10.4329 -23.2463,22.1376"
     id="path332"
     style="stroke-width:1.17823" />
  <path
     class="Note"
     d="m 2005.6901,1640.0197 c 0,5.4648 3.3769,11.5655 12.2286,11.5655 11.3417,0 23.2462,-10.8104 23.2462,-21.9984 0,-7.5116 -5.4576,-11.7047 -12.2286,-11.7047 -10.5913,0 -23.2462,10.4329 -23.2462,22.1376"
     id="path334"
     style="stroke-width:1.17823" />
  <path
     class="Note"
     d="m 628.81953,1099.4959 c 0,5.4648 3.37693,11.5656 12.22858,11.5656 11.34181,0 23.24631,-10.8105 23.24631,-21.9985 0,-7.5116 -5.45767,-11.7046 -12.22858,-11.7046 -10.59127,0 -23.24631,10.4328 -23.24631,22.1375"
     id="path336"
     style="stroke-width:1.17823" />
  <path
     class="Note"
     d="m 2399.9703,3223.5481 c -10.5913,0 -23.2463,10.3136 -23.2463,22.1375 0,5.4648 3.3769,11.5655 12.2286,11.5655 11.3417,0 23.2463,-10.8104 23.2463,-21.9984 0,-7.5116 -5.4577,-11.7046 -12.2286,-11.7046 m -2.9506,22.3958 c -0.324,0.2385 -8.2888,5.3257 -12.1092,5.3257 -3.5986,0 -4.3661,-3.418 -4.3661,-4.5705 0,-5.3456 10.9153,-11.5656 11.3588,-11.8239 0.4263,-0.2584 8.1865,-5.3456 12.1092,-5.3456 2.6265,0 4.3661,1.7885 4.3661,4.5705 0,5.4847 -11.0177,11.5855 -11.3588,11.8438"
     id="path338"
     style="stroke-width:1.17823" />
  <path
     class="Clef"
     d="m 150.71447,1805.3556 c 0,-4.7097 -3.70096,-6.7367 -7.29965,-6.7367 -4.58782,0 -9.07338,3.2988 -9.07338,9.022 0,2.4244 0.76746,4.2128 2.30249,5.9815 -2.84826,1.2718 -5.67947,3.8154 -5.67947,7.77 0,4.193 3.2746,6.9949 8.08422,6.9949 5.88404,0 10.02848,-3.8154 10.02848,-9.3001 0,-2.9212 -1.09153,-5.3257 -3.05291,-6.995 3.17233,-1.6494 4.69022,-3.6763 4.69022,-6.7366 m -10.91536,20.349 c -2.38773,0 -4.02503,-1.7686 -4.02503,-4.4514 0,-2.5436 0.97212,-4.5705 2.83112,-5.8423 0.44348,0.2583 0.54577,0.2583 0.86984,0.4968 1.31323,0.775 1.31323,0.775 1.53503,1.0333 2.06365,1.3911 2.95052,2.6629 2.95052,4.4514 0,2.4045 -1.75671,4.3122 -4.16148,4.3122 m 4.16148,-15.2618 c -1.6373,-1.0135 -2.08078,-1.2718 -2.40475,-1.5301 l -0.2218,-0.1193 c -1.6373,-1.1525 -2.18307,-2.0468 -2.18307,-3.5571 0,-2.3051 1.53502,-3.9545 3.71809,-3.9545 2.06366,0 3.37689,1.5301 3.37689,4.193 0,2.0468 -0.64805,3.4379 -2.28536,4.968 m 30.44358,-96.5387 c 0,-19.1964 -11.68282,-32.1729 -27.61245,-32.1729 -1.09154,-7.6309 -2.0807,-15.1425 -3.05281,-22.2567 11.46112,-14.1291 19.52821,-30.146 19.52821,-50.2367 0,-11.5855 -3.05291,-20.985 -4.91191,-25.5749 -2.60942,-6.4787 -5.78174,-10.93 -7.64074,-10.93 -0.75043,0 -4.24672,1.53 -7.74313,6.4786 -7.09497,9.6773 -9.05625,25.8134 -9.05625,36.5046 0,6.8757 0.54577,13.0957 2.40476,27.4831 -0.11941,0 -5.79879,6.7367 -8.08423,9.0219 -9.94313,10.6912 -23.6897,26.1915 -23.6897,51.5085 0,23.9062 17.78863,42.6058 38.10145,42.6058 3.15519,0 6.10572,-0.3775 8.73228,-0.8942 1.96128,12.1021 3.27461,21.124 3.27461,27.8607 0,13.2348 -5.90117,20.2298 -16.9188,20.2298 -2.62656,0 -4.91191,-0.6359 -5.1337,-0.775 -0.10233,0 -0.32397,-0.1193 -0.32397,-0.2385 0,-0.2583 0.22168,-0.3975 0.54576,-0.5167 5.1336,-0.8942 10.25017,-6.1007 10.25017,-14.1092 0,-6.8757 -4.46852,-14.129 -12.65503,-14.129 -7.64075,0 -12.45028,7.2533 -12.45028,15.6393 0,8.4059 5.45768,19.4747 20.1934,19.4747 14.08758,0 20.96087,-9.3002 20.96087,-25.5754 0,-4.9482 -0.64805,-10.6714 -1.73958,-17.9247 -0.32409,-2.5436 -0.86985,-6.4981 -1.63731,-11.3271 10.69356,-4.193 18.65838,-17.0502 18.65838,-30.146 m -33.6159,-104.2887 c 1.09154,-5.0873 6.00345,-18.4414 11.68292,-18.4414 1.6373,0 4.36614,6.1008 4.36614,15.0035 0,13.0957 -8.5106,23.0317 -16.04906,31.7953 -0.64805,-5.0872 -1.19382,-10.1745 -1.19382,-15.381 0,-4.8289 0.42636,-9.0418 1.19382,-12.9764 m 3.27461,131.5135 c -15.60547,0 -28.92566,-12.7181 -28.92566,-31.9344 0,-15.5003 9.3804,-29.371 18.99956,-39.168 1.84196,-1.7884 3.59868,-3.5571 5.23599,-5.4648 0.97211,6.8559 1.73958,12.7182 2.50704,18.0638 -9.94313,3.2987 -16.697,15.6393 -16.697,27.4632 0,9.0418 6.00344,21.2433 14.73572,21.2433 0.86974,0 1.85899,-0.5167 1.85899,-1.7885 0,-1.0135 -0.98925,-1.7686 -2.40475,-2.7821 -4.26387,-2.9411 -6.66863,-6.3591 -6.66863,-12.4797 0,-7.7501 5.03132,-13.9899 11.35874,-15.7586 l 6.32751,41.7116 c -2.18307,0.5167 -4.14444,0.8942 -6.32751,0.8942 m 10.91535,-2.4244 c -2.28536,-15.1226 -5.23588,-35.3524 -6.00344,-40.9564 11.01773,0 15.72497,8.9027 16.6971,15.0233 0.11941,1.0135 0.32407,2.4046 0.32407,3.9347 0,9.1611 -3.27461,18.3221 -11.01773,21.9984"
     id="path340"
     style="stroke-width:1.17823" />
  <path
     class="Clef"
     d="m 150.71447,3236.147 c 0,-4.7097 -3.70096,-6.7367 -7.29965,-6.7367 -4.58782,0 -9.07338,3.2988 -9.07338,9.022 0,2.4244 0.76746,4.2128 2.30249,5.9815 -2.84826,1.2718 -5.67947,3.8154 -5.67947,7.77 0,4.193 3.2746,6.9949 8.08422,6.9949 5.88404,0 10.02848,-3.8154 10.02848,-9.3001 0,-2.9212 -1.09153,-5.3257 -3.05291,-6.995 3.17233,-1.6494 4.69022,-3.6763 4.69022,-6.7366 m -10.91536,20.349 c -2.38773,0 -4.02503,-1.7686 -4.02503,-4.4513 0,-2.5437 0.97212,-4.5706 2.83112,-5.8424 0.44348,0.2583 0.54577,0.2583 0.86984,0.4968 1.31323,0.775 1.31323,0.775 1.53503,1.0333 2.06365,1.3911 2.95052,2.6629 2.95052,4.4514 0,2.4045 -1.75671,4.3122 -4.16148,4.3122 m 4.16148,-15.2618 c -1.6373,-1.0134 -2.08078,-1.2718 -2.40475,-1.5301 l -0.2218,-0.1193 c -1.6373,-1.1525 -2.18307,-2.0468 -2.18307,-3.5571 0,-2.3051 1.53502,-3.9545 3.71809,-3.9545 2.06366,0 3.37689,1.5301 3.37689,4.193 0,2.0468 -0.64805,3.4379 -2.28536,4.968 m 30.44358,-96.5386 c 0,-19.1965 -11.68282,-32.173 -27.61245,-32.173 -1.09154,-7.6309 -2.0807,-15.1425 -3.05281,-22.2567 11.46112,-14.1291 19.52821,-30.146 19.52821,-50.2367 0,-11.5854 -3.05291,-20.985 -4.91191,-25.5749 -2.60942,-6.4787 -5.78174,-10.93 -7.64074,-10.93 -0.75043,0 -4.24672,1.53 -7.74313,6.4787 -7.09497,9.6772 -9.05625,25.8133 -9.05625,36.5045 0,6.8757 0.54577,13.0957 2.40476,27.4831 -0.11941,0 -5.79879,6.7367 -8.08423,9.0219 -9.94313,10.6912 -23.6897,26.1915 -23.6897,51.5085 0,23.9062 17.78863,42.6058 38.10145,42.6058 3.15519,0 6.10572,-0.3775 8.73228,-0.8942 1.96128,12.1021 3.27461,21.124 3.27461,27.8607 0,13.2348 -5.90117,20.2298 -16.9188,20.2298 -2.62656,0 -4.91191,-0.6359 -5.1337,-0.775 -0.10233,0 -0.32397,-0.1193 -0.32397,-0.2385 0,-0.2583 0.22168,-0.3974 0.54576,-0.5167 5.1336,-0.8942 10.25017,-6.1007 10.25017,-14.1092 0,-6.8757 -4.46852,-14.129 -12.65503,-14.129 -7.64075,0 -12.45028,7.2533 -12.45028,15.6393 0,8.4059 5.45768,19.4747 20.1934,19.4747 14.08758,0 20.96087,-9.3002 20.96087,-25.5754 0,-4.9482 -0.64805,-10.6713 -1.73958,-17.9247 -0.32409,-2.5436 -0.86985,-6.4981 -1.63731,-11.3271 10.69356,-4.193 18.65838,-17.0502 18.65838,-30.1459 m -33.6159,-104.2888 c 1.09154,-5.0873 6.00345,-18.4414 11.68292,-18.4414 1.6373,0 4.36614,6.1008 4.36614,15.0035 0,13.0957 -8.5106,23.0318 -16.04906,31.7953 -0.64805,-5.0872 -1.19382,-10.1745 -1.19382,-15.381 0,-4.8289 0.42636,-9.0418 1.19382,-12.9764 m 3.27461,131.5135 c -15.60547,0 -28.92566,-12.7181 -28.92566,-31.9344 0,-15.5003 9.3804,-29.371 18.99956,-39.1679 1.84196,-1.7885 3.59868,-3.5572 5.23599,-5.4649 0.97211,6.8559 1.73958,12.7182 2.50704,18.0638 -9.94313,3.2987 -16.697,15.6393 -16.697,27.4632 0,9.0418 6.00344,21.2433 14.73572,21.2433 0.86974,0 1.85899,-0.5167 1.85899,-1.7885 0,-1.0135 -0.98925,-1.7686 -2.40475,-2.7821 -4.26387,-2.9411 -6.66863,-6.3591 -6.66863,-12.4797 0,-7.7501 5.03132,-13.9899 11.35874,-15.7586 l 6.32751,41.7116 c -2.18307,0.5167 -4.14444,0.8942 -6.32751,0.8942 m 10.91535,-2.4244 c -2.28536,-15.1226 -5.23588,-35.3524 -6.00344,-40.9564 11.01773,0 15.72497,8.9027 16.6971,15.0233 0.11941,1.0135 0.32407,2.4046 0.32407,3.9347 0,9.1611 -3.27461,18.3221 -11.01773,21.9984"
     id="path342"
     style="stroke-width:1.17823" />
  <path
     class="Clef"
     d="m 287.15637,1089.9572 c 0,-4.7096 -3.70095,-6.7365 -7.29964,-6.7365 -4.58783,0 -9.07339,3.2987 -9.07339,9.0219 0,2.4244 0.76746,4.2128 2.30249,5.9814 -2.84826,1.2718 -5.67947,3.8155 -5.67947,7.7701 0,4.193 3.27461,6.9949 8.08423,6.9949 5.88403,0 10.02848,-3.8154 10.02848,-9.3001 0,-2.9212 -1.09154,-5.3257 -3.05291,-6.995 3.17233,-1.6494 4.69021,-3.6763 4.69021,-6.7367 m -10.91535,20.3491 c -2.38774,0 -4.02504,-1.7686 -4.02504,-4.4514 0,-2.5436 0.97213,-4.5705 2.83113,-5.8423 0.44348,0.2583 0.54576,0.2583 0.86984,0.4968 1.31323,0.775 1.31323,0.775 1.53502,1.0333 2.06365,1.3911 2.95053,2.6629 2.95053,4.4514 0,2.4045 -1.75672,4.3122 -4.16148,4.3122 m 4.16148,-15.2618 c -1.63731,-1.0134 -2.08079,-1.2718 -2.40476,-1.5301 l -0.2218,-0.1191 c -1.6373,-1.1527 -2.18307,-2.0469 -2.18307,-3.5572 0,-2.3051 1.53502,-3.9546 3.71809,-3.9546 2.06366,0 3.37689,1.5302 3.37689,4.1931 0,2.0469 -0.64805,3.4378 -2.28535,4.968 m 30.44357,-96.53879 c 0,-19.1964 -11.68281,-32.1729 -27.61245,-32.1729 -1.09153,-7.6309 -2.08069,-15.1426 -3.05281,-22.2567 11.46112,-14.1291 19.52821,-30.146 19.52821,-50.2367 0,-11.5855 -3.05291,-20.985 -4.9119,-25.5749 -2.60942,-6.4787 -5.78175,-10.93 -7.64075,-10.93 -0.75043,0 -4.24672,1.53 -7.74312,6.4786 -7.09498,9.6772 -9.05626,25.8134 -9.05626,36.5045 0,6.8758 0.54577,13.0958 2.40476,27.4832 -0.11941,0 -5.79878,6.7366 -8.08423,9.022 -9.94312,10.6911 -23.6897,26.1913 -23.6897,51.5084 0,23.90619 17.78863,42.60579 38.10145,42.60579 3.15519,0 6.10573,-0.3775 8.73229,-0.8942 1.96127,12.1021 3.2746,21.124 3.2746,27.8607 0,13.2348 -5.90116,20.2298 -16.91879,20.2298 -2.62657,0 -4.91191,-0.6359 -5.13371,-0.775 -0.10233,0 -0.32397,-0.1193 -0.32397,-0.2385 0,-0.2583 0.22169,-0.3974 0.54577,-0.5167 5.13359,-0.8942 10.25016,-6.1007 10.25016,-14.1092 0,-6.8758 -4.46851,-14.129 -12.65503,-14.129 -7.64074,0 -12.45028,7.2532 -12.45028,15.6393 0,8.406 5.45768,19.4747 20.1934,19.4747 14.08759,0 20.96087,-9.3002 20.96087,-25.5754 0,-4.9482 -0.64804,-10.6713 -1.73958,-17.9246 -0.32408,-2.5436 -0.86985,-6.4982 -1.6373,-11.3272 10.69355,-4.193 18.65837,-17.0502 18.65837,-30.14599 m -33.61589,-104.2887 c 1.09153,-5.0873 6.00344,-18.4413 11.68291,-18.4413 1.6373,0 4.36614,6.1006 4.36614,15.0033 0,13.0958 -8.51059,23.0318 -16.04905,31.7954 -0.64806,-5.0873 -1.19383,-10.1745 -1.19383,-15.381 0,-4.8289 0.42636,-9.0418 1.19383,-12.9764 m 3.2746,131.51349 c -15.60546,0 -28.92566,-12.7181 -28.92566,-31.93439 0,-15.5003 9.3804,-29.371 18.99956,-39.1679 1.84196,-1.7886 3.59869,-3.5572 5.23599,-5.4649 0.97211,6.8559 1.73958,12.7182 2.50704,18.0637 -9.94312,3.2989 -16.697,15.6394 -16.697,27.4633 0,9.04179 6.00345,21.24329 14.73573,21.24329 0.86974,0 1.85898,-0.5166 1.85898,-1.7884 0,-1.0136 -0.98924,-1.7687 -2.40475,-2.7822 -4.26387,-2.9411 -6.66863,-6.3591 -6.66863,-12.47969 0,-7.7501 5.03133,-13.99 11.35874,-15.7586 l 6.32752,41.71159 c -2.18307,0.5167 -4.14445,0.8942 -6.32752,0.8942 m 10.91535,-2.4243 c -2.28535,-15.1227 -5.23588,-35.35249 -6.00344,-40.95649 11.01773,0 15.72497,8.9027 16.6971,15.0233 0.11941,1.0135 0.32407,2.4046 0.32407,3.93469 0,9.1611 -3.2746,18.3222 -11.01773,21.9985"
     id="path344"
     style="stroke-width:1.17823" />
  <path
     class="Clef"
     d="m 150.71447,2520.7513 c 0,-4.7097 -3.70096,-6.7367 -7.29965,-6.7367 -4.58782,0 -9.07338,3.2988 -9.07338,9.022 0,2.4244 0.76746,4.2128 2.30249,5.9815 -2.84826,1.2718 -5.67947,3.8154 -5.67947,7.77 0,4.193 3.2746,6.9949 8.08422,6.9949 5.88404,0 10.02848,-3.8154 10.02848,-9.3001 0,-2.9212 -1.09153,-5.3257 -3.05291,-6.995 3.17233,-1.6494 4.69022,-3.6763 4.69022,-6.7366 m -10.91536,20.349 c -2.38773,0 -4.02503,-1.7686 -4.02503,-4.4513 0,-2.5437 0.97212,-4.5706 2.83112,-5.8424 0.44348,0.2583 0.54577,0.2583 0.86984,0.4968 1.31323,0.775 1.31323,0.775 1.53503,1.0333 2.06365,1.3911 2.95052,2.6629 2.95052,4.4514 0,2.4045 -1.75671,4.3122 -4.16148,4.3122 m 4.16148,-15.2618 c -1.6373,-1.0134 -2.08078,-1.2718 -2.40475,-1.5301 l -0.2218,-0.1193 c -1.6373,-1.1525 -2.18307,-2.0468 -2.18307,-3.5571 0,-2.3051 1.53502,-3.9545 3.71809,-3.9545 2.06366,0 3.37689,1.5301 3.37689,4.193 0,2.0468 -0.64805,3.4379 -2.28536,4.968 m 30.44358,-96.5386 c 0,-19.1965 -11.68282,-32.173 -27.61245,-32.173 -1.09154,-7.6309 -2.0807,-15.1425 -3.05281,-22.2567 11.46112,-14.1291 19.52821,-30.146 19.52821,-50.2367 0,-11.5854 -3.05291,-20.985 -4.91191,-25.5749 -2.60942,-6.4787 -5.78174,-10.93 -7.64074,-10.93 -0.75043,0 -4.24672,1.53 -7.74313,6.4787 -7.09497,9.6772 -9.05625,25.8133 -9.05625,36.5045 0,6.8757 0.54577,13.0957 2.40476,27.4831 -0.11941,0 -5.79879,6.7367 -8.08423,9.0219 -9.94313,10.6912 -23.6897,26.1915 -23.6897,51.5085 0,23.9062 17.78863,42.6058 38.10145,42.6058 3.15519,0 6.10572,-0.3775 8.73228,-0.8942 1.96128,12.1021 3.27461,21.124 3.27461,27.8607 0,13.2348 -5.90117,20.2298 -16.9188,20.2298 -2.62656,0 -4.91191,-0.6359 -5.1337,-0.775 -0.10233,0 -0.32397,-0.1193 -0.32397,-0.2385 0,-0.2583 0.22168,-0.3975 0.54576,-0.5167 5.1336,-0.8942 10.25017,-6.1007 10.25017,-14.1092 0,-6.8757 -4.46852,-14.129 -12.65503,-14.129 -7.64075,0 -12.45028,7.2533 -12.45028,15.6393 0,8.4059 5.45768,19.4747 20.1934,19.4747 14.08758,0 20.96087,-9.3002 20.96087,-25.5754 0,-4.9482 -0.64805,-10.6714 -1.73958,-17.9247 -0.32409,-2.5436 -0.86985,-6.4981 -1.63731,-11.3271 10.69356,-4.193 18.65838,-17.0502 18.65838,-30.1459 m -33.6159,-104.2888 c 1.09154,-5.0873 6.00345,-18.4414 11.68292,-18.4414 1.6373,0 4.36614,6.1008 4.36614,15.0035 0,13.0957 -8.5106,23.0317 -16.04906,31.7953 -0.64805,-5.0872 -1.19382,-10.1745 -1.19382,-15.381 0,-4.8289 0.42636,-9.0418 1.19382,-12.9764 m 3.27461,131.5135 c -15.60547,0 -28.92566,-12.7181 -28.92566,-31.9344 0,-15.5003 9.3804,-29.371 18.99956,-39.168 1.84196,-1.7884 3.59868,-3.5571 5.23599,-5.4648 0.97211,6.8559 1.73958,12.7182 2.50704,18.0638 -9.94313,3.2987 -16.697,15.6393 -16.697,27.4632 0,9.0418 6.00344,21.2433 14.73572,21.2433 0.86974,0 1.85899,-0.5167 1.85899,-1.7885 0,-1.0135 -0.98925,-1.7686 -2.40475,-2.7821 -4.26387,-2.9411 -6.66863,-6.3591 -6.66863,-12.4797 0,-7.7501 5.03132,-13.9899 11.35874,-15.7586 l 6.32751,41.7116 c -2.18307,0.5167 -4.14444,0.8942 -6.32751,0.8942 m 10.91535,-2.4244 c -2.28536,-15.1226 -5.23588,-35.3524 -6.00344,-40.9564 11.01773,0 15.72497,8.9027 16.6971,15.0233 0.11941,1.0135 0.32407,2.4046 0.32407,3.9347 0,9.1611 -3.27461,18.3221 -11.01773,21.9984"
     id="path346"
     style="stroke-width:1.17823" />
  <path
     class="TimeSig"
     d="m 370.59055,933.78241 c 8.73228,-3.9545 9.27805,-10.5719 9.27805,-12.8572 0,-0.2584 0,-0.4969 0,-0.6359 0,-1.1328 -0.32397,-15.5202 -19.10187,-15.5202 -18.77779,0 -18.23203,15.5202 -18.23203,15.5202 h 0.10234 l -0.10234,0.2583 c 0,4.5706 3.17228,8.1476 7.09498,8.1476 3.92276,0 6.99271,-3.577 6.99271,-8.1476 0,-3.6963 -2.40487,-7.2533 -5.45773,-8.0085 0.10233,-0.1391 0.20466,-0.2583 0.32404,-0.3776 1.51798,-1.2718 3.59866,-1.9077 5.67945,-1.9077 4.57081,0 9.48272,3.1795 9.48272,10.0355 0,8.0084 -5.11658,9.161 -6.42991,9.4193 -1.31323,0.2584 -7.41895,0.7552 -8.73226,0.7552 -1.31325,0 -1.41558,1.7885 -1.41558,1.7885 v 2.5436 c 0,0 0.20466,1.391 1.41558,1.5301 1.85908,0.1193 4.36612,0.1193 7.86252,0.7552 4.79249,0.7551 7.29965,4.5706 7.29965,13.4733 0,8.5251 -4.91191,10.8105 -9.48272,10.8105 -3.06994,0 -5.90116,-1.0136 -7.09503,-2.0271 3.59863,-0.2583 6.54927,-3.9346 6.54927,-8.1475 0,-4.5706 -3.06995,-8.2668 -6.99271,-8.2668 -3.9227,0 -7.09498,3.6962 -7.09498,8.2668 0,0 0,0.2583 0,0.5166 0,1.6495 0.32405,6.24 4.26381,10.4329 4.24676,4.5706 9.60208,4.7098 12.00695,4.7098 10.47186,0 21.8307,-4.2129 21.8307,-18.0639 0,-9.2802 -5.45767,-13.2348 -10.26731,-15.0034 h 0.2217"
     id="path348"
     style="stroke-width:1.17823" />
  <path
     class="TimeSig"
     d="m 359.30003,1014.9202 v 9.3996 h -9.05636 c -0.76746,0 -1.53491,0.7749 -1.53491,1.7884 v 2.4245 c 0,1.0133 0.76745,1.7685 1.53491,1.7685 h 33.07013 c 0.88687,0 1.53493,-0.7552 1.53493,-1.7685 v -2.4245 c 0,-1.0135 -0.64806,-1.7884 -1.53493,-1.7884 h -9.82382 v -9.3996 h 9.82382 c 0.88687,0 1.53493,-0.8942 1.53493,-1.9077 v -2.4244 c 0,-0.8943 -0.64806,-1.7686 -1.53493,-1.7686 h -9.82382 v -20.22979 c 0,-0.7552 -0.32407,-1.3911 -0.75043,-1.6494 l -1.31322,-0.775 c -0.22179,-0.1193 -0.32408,-0.1193 -0.54576,-0.1193 -0.11942,0 -0.11942,0 -0.2218,0 -0.32397,0 -0.76746,0.1193 -0.98916,0.3776 l -9.92619,10.5521 c -0.32397,0.3974 -0.44339,0.8942 -0.44339,1.4109 v 10.43289 h -12.65501 c 0,0 12.22866,-15.26179 25.10529,-35.37239 0.44348,-0.6359 0.54576,-1.2719 0.54576,-1.7686 0,-0.6359 -0.22169,-1.1525 -0.32397,-1.2718 l -2.40487,-2.802 c -0.32397,-0.2583 -0.64805,-0.5167 -1.09153,-0.5167 -0.64806,0 -15.4008,0 -16.27065,0 -0.76746,0 -1.31322,0.775 -1.41561,1.5302 0,0 -0.54577,9.4194 -3.37694,19.7131 -2.84822,10.3137 -6.12283,16.67269 -8.954,21.36249 0,0 -0.32405,0.6359 -0.32405,1.411 0,0.2583 0,0.4968 0.10233,0.7551 0.32405,0.8942 1.09154,2.2854 1.09154,2.2854 0,0 0.22172,0.7749 1.19387,0.7749 h 18.77784"
     id="path350"
     style="stroke-width:1.17823" />
  <path
     class="Fingering"
     d="m 2717.7737,848.96311 c -1.3314,0 -2.3767,1.2424 -2.3767,2.7847 0,1.4834 1.0453,2.7654 2.3437,2.7654 1.3534,0 2.3988,-1.2423 2.3988,-2.7654 0,-1.5423 -1.0454,-2.7847 -2.3658,-2.7847 m 0.7923,12.5208 -8.4506,0.7615 -0.1651,1.8629 h 1.0454 c 1.8045,0 2.5087,0.4602 2.5087,1.582 0,0.5013 -0.088,1.0821 -0.3961,2.2642 l -2.5638,9.9963 c -0.8252,3.2654 -0.9573,3.9859 -0.9573,5.168 0,1.8026 1.3204,3.1847 2.9929,3.1847 3.7852,0 6.382,-4.5668 8.2306,-7.8925 l -1.3754,-0.8807 c -2.2888,4.0462 -4.1263,6.209 -5.3147,6.209 -0.4401,0 -0.7482,-0.4602 -0.7482,-1.0808 0,-0.5012 0.165,-1.4423 0.5282,-2.8654 l 4.6654,-18.3092"
     id="path352"
     style="stroke-width:1.18774" />
  <path
     class="Fingering"
     d="m 1464.7089,848.96311 c -1.3204,0 -2.3767,1.2424 -2.3767,2.7847 0,1.4834 1.0563,2.7654 2.3437,2.7654 1.3534,0 2.4097,-1.2423 2.4097,-2.7654 0,-1.5423 -1.0563,-2.7847 -2.3767,-2.7847 m 0.7923,12.5208 -8.4396,0.7615 -0.1761,1.8629 h 1.0453 c 1.8046,0 2.5088,0.4602 2.5088,1.582 0,0.5013 -0.077,1.0821 -0.3961,2.2642 l -2.5528,9.9963 c -0.8253,3.2654 -0.9683,3.9859 -0.9683,5.168 0,1.8026 1.3204,3.1847 2.9929,3.1847 3.7852,0 6.382,-4.5668 8.2305,-7.8925 l -1.3754,-0.8807 c -2.2777,4.0462 -4.1262,6.209 -5.3036,6.209 -0.4511,0 -0.7592,-0.4602 -0.7592,-1.0808 0,-0.5012 0.176,-1.4423 0.5281,-2.8654 l 4.6655,-18.3092"
     id="path354"
     style="stroke-width:1.18774" />
  <path
     class="Fingering"
     d="m 1075.0903,861.48391 -8.0105,0.7615 -0.1431,1.8629 h 1.0674 c 1.7605,0 2.4647,0.4602 2.4647,1.6231 0,0.4602 -0.143,1.241 -0.3631,2.2231 l -4.4894,17.6284 h 3.8292 l 1.8156,-7.2321 c 1.9696,-7.8527 5.9748,-13.7823 9.2758,-13.7823 1.1554,0 1.8596,0.7013 1.8596,1.9834 0,1.0423 -0.3631,3.1859 -0.8913,5.1283 l -3.5101,13.9027 h 3.8182 l 1.8926,-7.4321 c 1.1003,-4.2668 2.2007,-7.1309 3.6091,-9.3348 1.5845,-2.5641 3.8292,-4.2475 5.5017,-4.2475 1.1003,0 1.7165,0.6616 1.7165,1.8834 0,0.7218 -0.22,1.8436 -0.6162,3.2859 l -2.0246,7.2912 c -1.1884,3.9859 -1.2214,4.3064 -1.2214,5.7295 0,2.1629 1.3535,3.586 3.4221,3.586 1.4524,0 2.8609,-0.8218 4.3573,-2.4449 0.9353,-1.0411 1.5295,-1.9629 3.3451,-5.027 l -1.3645,-1.0821 c -2.2887,4.0065 -3.9172,5.9488 -5.0505,5.9488 -0.4842,0 -0.9353,-0.5602 -0.9353,-1.282 0,-0.4603 0.143,-1.0206 0.5392,-2.5232 l 2.7618,-9.936 c 0.3081,-1.1218 0.5392,-2.7244 0.5392,-3.8462 0,-2.7244 -1.7166,-4.668 -4.0933,-4.668 -3.1249,0 -5.9528,2.3641 -8.4946,7.2321 0.1761,-0.982 0.2531,-1.8436 0.2531,-2.4641 0,-2.7244 -1.8486,-4.768 -4.2583,-4.768 -2.7839,0 -4.7975,1.8025 -7.8894,6.9308 l 1.2874,-6.9308"
     id="path356"
     style="stroke-width:1.18774" />
  <path
     class="Fingering"
     d="m 1420.5083,901.12681 c -6.1509,0 -10.6402,7.7924 -10.6402,18.5708 0,10.5566 4.3463,18.2887 10.2771,18.2887 6.1729,0 10.4862,-7.4719 10.4862,-18.149 0,-5.4283 -0.9793,-9.936 -2.8168,-13.4822 -1.7165,-3.2244 -4.5334,-5.2283 -7.3063,-5.2283 m -0.3081,2.2039 c 1.4415,0 2.8499,1.1218 3.9172,3.1846 1.1884,2.4039 1.5845,5.3296 1.5845,12.3605 0,7.2321 -0.3081,10.6168 -1.1883,12.8604 -1.0123,2.5244 -2.5968,4.0462 -4.2583,4.0462 -1.4965,0 -2.8719,-1.1218 -3.9282,-3.1641 -1.2324,-2.4244 -1.5735,-5.5898 -1.5735,-14.0028 0,-6.0103 0.3081,-8.9745 1.1773,-11.2386 1.0233,-2.5642 2.5968,-4.0462 4.2693,-4.0462"
     id="path358"
     style="stroke-width:1.18774" />
  <path
     class="Fingering"
     d="m 1231.0962,1076.0013 c -6.1509,0 -10.6403,7.7924 -10.6403,18.5708 0,10.5566 4.3463,18.2887 10.2772,18.2887 6.1728,0 10.4972,-7.4719 10.4972,-18.149 0,-5.4283 -0.9903,-9.936 -2.8279,-13.4822 -1.7165,-3.2244 -4.5334,-5.2283 -7.3062,-5.2283 m -0.3081,2.2039 c 1.4414,0 2.8498,1.1218 3.9172,3.1846 1.1883,2.4039 1.5845,5.3296 1.5845,12.3605 0,7.2321 -0.3081,10.6168 -1.1884,12.8604 -1.0123,2.5244 -2.5968,4.0462 -4.2583,4.0462 -1.4965,0 -2.8719,-1.1218 -3.9172,-3.1641 -1.2434,-2.4244 -1.5845,-5.5898 -1.5845,-14.0028 0,-6.0103 0.3081,-8.9745 1.1884,-11.2386 1.0123,-2.5642 2.5968,-4.0462 4.2583,-4.0462"
     id="path360"
     style="stroke-width:1.18774" />
  <path
     class="Fingering"
     d="m 1262.2137,1150.5986 -8.0104,0.7616 -0.1651,1.8628 h 1.0453 c 1.8046,0 2.5088,0.4603 2.5088,1.5821 0,0.5013 -0.121,1.2218 -0.3961,2.2641 l -5.6227,22.2363 c -0.8913,3.7052 -0.9243,3.7449 -3.9173,3.9052 l -0.187,1.8436 h 10.5742 l 0.1651,-1.8436 h -0.5282 c -2.1126,0 -2.8168,-0.3 -2.8168,-1.3411 0,-0.4013 0.187,-1.282 0.4951,-2.5641 l 2.1457,-8.354 c 1.1883,3.5462 2.3437,4.5078 5.2486,4.5078 7.1192,0 11.4325,-9.0156 11.4325,-16.5067 0,-2.5052 -0.4291,-4.2078 -1.4414,-5.6898 -1.1554,-1.6424 -2.9049,-2.6642 -4.6325,-2.6642 -2.2447,0 -4.5664,1.5424 -6.547,4.3668 l 0.6492,-4.3668 m 4.5444,2.7244 c 1.9806,0 3.301,1.7834 3.301,4.5078 0,2.8244 -0.7592,6.3091 -2.0796,9.4745 -1.5295,3.8462 -3.301,5.5898 -5.6227,5.5898 -2.1677,0 -3.6972,-1.9833 -3.6972,-4.7077 0,-4.6078 3.114,-14.8644 8.0985,-14.8644"
     id="path362"
     style="stroke-width:1.18774" />
  <path
     class="Fingering"
     d="m 1701.6227,861.48391 -8.0105,0.7615 -0.143,1.8629 h 1.0673 c 1.7605,0 2.4647,0.4602 2.4647,1.6231 0,0.4602 -0.143,1.241 -0.3631,2.2231 l -4.4893,17.6284 h 3.8291 l 1.8046,-7.2321 c 1.9806,-7.8527 5.9858,-13.7823 9.2868,-13.7823 1.1554,0 1.8596,0.7013 1.8596,1.9834 0,1.0423 -0.3631,3.1859 -0.8913,5.1283 l -3.51,13.9027 h 3.8181 l 1.8926,-7.4321 c 1.1004,-4.2668 2.2007,-7.1309 3.6091,-9.3348 1.5845,-2.5641 3.8292,-4.2475 5.5017,-4.2475 1.1004,0 1.7165,0.6616 1.7165,1.8834 0,0.7218 -0.22,1.8436 -0.6161,3.2859 l -2.0357,7.2912 c -1.1773,3.9859 -1.2103,4.3064 -1.2103,5.7295 0,2.1629 1.3534,3.586 3.411,3.586 1.4635,0 2.8719,-0.8218 4.3683,-2.4449 0.9353,-1.0411 1.5295,-1.9629 3.3341,-5.027 l -1.3534,-1.0821 c -2.2888,4.0065 -3.9173,5.9488 -5.0506,5.9488 -0.4841,0 -0.9353,-0.5602 -0.9353,-1.282 0,-0.4603 0.1431,-1.0206 0.5392,-2.5232 l 2.7618,-9.936 c 0.3081,-1.1218 0.5392,-2.7244 0.5392,-3.8462 0,-2.7244 -1.7275,-4.668 -4.0933,-4.668 -3.1359,0 -5.9528,2.3641 -8.4946,7.2321 0.1761,-0.982 0.2531,-1.8436 0.2531,-2.4641 0,-2.7244 -1.8486,-4.768 -4.2583,-4.768 -2.7839,0 -4.7975,1.8025 -7.8894,6.9308 l 1.2874,-6.9308"
     id="path364"
     style="stroke-width:1.18774" />
  <path
     class="Fingering"
     d="m 1668.2164,901.12681 c -6.1509,0 -10.6403,7.7924 -10.6403,18.5708 0,10.5566 4.3464,18.2887 10.2772,18.2887 6.1729,0 10.4972,-7.4719 10.4972,-18.149 0,-5.4283 -0.9793,-9.936 -2.8278,-13.4822 -1.7166,-3.2244 -4.5334,-5.2283 -7.3063,-5.2283 m -0.3081,2.2039 c 1.4415,0 2.8609,1.1218 3.9172,3.1846 1.1884,2.4039 1.5845,5.3296 1.5845,12.3605 0,7.2321 -0.3081,10.6168 -1.1884,12.8604 -1.0123,2.5244 -2.5968,4.0462 -4.2583,4.0462 -1.4964,0 -2.8719,-1.1218 -3.9172,-3.1641 -1.2434,-2.4244 -1.5845,-5.5898 -1.5845,-14.0028 0,-6.0103 0.3081,-8.9745 1.1884,-11.2386 1.0123,-2.5642 2.5968,-4.0462 4.2583,-4.0462"
     id="path366"
     style="stroke-width:1.18774" />
  <path
     class="Fingering"
     d="m 1041.684,901.12681 c -6.1509,0 -10.6403,7.7924 -10.6403,18.5708 0,10.5566 4.3574,18.2887 10.2882,18.2887 6.1729,0 10.4862,-7.4719 10.4862,-18.149 0,-5.4283 -0.9793,-9.936 -2.8279,-13.4822 -1.7165,-3.2244 -4.5334,-5.2283 -7.3062,-5.2283 m -0.3081,2.2039 c 1.4524,0 2.8609,1.1218 3.9282,3.1846 1.1774,2.4039 1.5735,5.3296 1.5735,12.3605 0,7.2321 -0.3081,10.6168 -1.1884,12.8604 -1.0123,2.5244 -2.5858,4.0462 -4.2583,4.0462 -1.4964,0 -2.8719,-1.1218 -3.9172,-3.1641 -1.2434,-2.4244 -1.5845,-5.5898 -1.5845,-14.0028 0,-6.0103 0.3081,-8.9745 1.1884,-11.2386 1.0123,-2.5642 2.5968,-4.0462 4.2583,-4.0462"
     id="path368"
     style="stroke-width:1.18774" />
  <path
     class="Fingering"
     d="m 1857.6286,1123.6943 c -6.1509,0 -10.6403,7.7925 -10.6403,18.5708 0,10.5566 4.3463,18.2888 10.2772,18.2888 6.1729,0 10.4862,-7.4719 10.4862,-18.149 0,-5.4283 -0.9793,-9.9361 -2.8169,-13.4823 -1.7165,-3.2244 -4.5334,-5.2283 -7.3062,-5.2283 m -0.3081,2.2039 c 1.4414,0 2.8499,1.1218 3.9172,3.1847 1.1884,2.4039 1.5845,5.3295 1.5845,12.3604 0,7.2322 -0.3081,10.6169 -1.1884,12.8605 -1.0123,2.5244 -2.5968,4.0462 -4.2583,4.0462 -1.4965,0 -2.8719,-1.1218 -3.9282,-3.1641 -1.2324,-2.4244 -1.5735,-5.5899 -1.5735,-14.0028 0,-6.0104 0.3081,-8.9745 1.1774,-11.2387 1.0233,-2.5641 2.5968,-4.0462 4.2693,-4.0462"
     id="path370"
     style="stroke-width:1.18774" />
  <path
     class="Fingering"
     d="m 2091.2413,848.96311 c -1.3314,0 -2.3767,1.2424 -2.3767,2.7847 0,1.4834 1.0453,2.7654 2.3437,2.7654 1.3534,0 2.3988,-1.2423 2.3988,-2.7654 0,-1.5423 -1.0454,-2.7847 -2.3658,-2.7847 m 0.7923,12.5208 -8.4506,0.7615 -0.1651,1.8629 h 1.0453 c 1.8046,0 2.5088,0.4602 2.5088,1.582 0,0.5013 -0.088,1.0821 -0.3961,2.2642 l -2.5528,9.9963 c -0.8252,3.2654 -0.9683,3.9859 -0.9683,5.168 0,1.8026 1.3204,3.1847 2.9929,3.1847 3.7852,0 6.382,-4.5668 8.2306,-7.8925 l -1.3755,-0.8807 c -2.2777,4.0462 -4.1262,6.209 -5.3036,6.209 -0.4511,0 -0.7592,-0.4602 -0.7592,-1.0808 0,-0.5012 0.165,-1.4423 0.5281,-2.8654 l 4.6655,-18.3092"
     id="path372"
     style="stroke-width:1.18774" />
  <path
     class="Fingering"
     d="m 2047.0408,901.12681 c -6.1509,0 -10.6403,7.7924 -10.6403,18.5708 0,10.5566 4.3463,18.2887 10.2771,18.2887 6.1729,0 10.4863,-7.4719 10.4863,-18.149 0,-5.4283 -0.9793,-9.936 -2.8169,-13.4822 -1.7165,-3.2244 -4.5334,-5.2283 -7.3062,-5.2283 m -0.3081,2.2039 c 1.4414,0 2.8498,1.1218 3.9172,3.1846 1.1883,2.4039 1.5844,5.3296 1.5844,12.3605 0,7.2321 -0.308,10.6168 -1.1883,12.8604 -1.0123,2.5244 -2.5968,4.0462 -4.2583,4.0462 -1.4965,0 -2.8719,-1.1218 -3.9282,-3.1641 -1.2324,-2.4244 -1.5735,-5.5898 -1.5735,-14.0028 0,-6.0103 0.3081,-8.9745 1.1773,-11.2386 1.0234,-2.5642 2.5968,-4.0462 4.2694,-4.0462"
     id="path374"
     style="stroke-width:1.18774" />
  <path
     class="Fingering"
     d="m 793.97695,901.12681 c -6.15419,0 -10.64137,7.7924 -10.64137,18.5708 0,10.5566 4.34964,18.2887 10.28046,18.2887 6.17289,0 10.48842,-7.4719 10.48842,-18.149 0,-5.4283 -0.9804,-9.936 -2.82017,-13.4822 -1.71872,-3.2244 -4.53889,-5.2283 -7.30734,-5.2283 m -0.3092,2.2039 c 1.44475,0 2.85428,1.1218 3.92051,3.1846 1.18616,2.4039 1.58118,5.3296 1.58118,12.3605 0,7.2321 -0.30919,10.6168 -1.18616,12.8604 -1.01451,2.5244 -2.5957,4.0462 -4.26381,4.0462 -1.49536,0 -2.87078,-1.1218 -3.9194,-3.1641 -1.23788,-2.4244 -1.58229,-5.5898 -1.58229,-14.0028 0,-6.0103 0.30919,-8.9745 1.18616,-11.2386 1.01452,-2.5642 2.5968,-4.0462 4.26381,-4.0462"
     id="path376"
     style="stroke-width:1.18774" />
  <path
     class="Fingering"
     d="m 2328.1551,861.48391 -8.0105,0.7615 -0.143,1.8629 h 1.0673 c 1.7495,0 2.4538,0.4602 2.4538,1.6231 0,0.4602 -0.1321,1.241 -0.3521,2.2231 l -4.4894,17.6284 h 3.8292 l 1.8045,-7.2321 c 1.9806,-7.8527 5.9858,-13.7823 9.2869,-13.7823 1.1553,0 1.8595,0.7013 1.8595,1.9834 0,1.0423 -0.3631,3.1859 -0.8912,5.1283 l -3.5101,13.9027 h 3.8181 l 1.8926,-7.4321 c 1.1004,-4.2668 2.2007,-7.1309 3.6091,-9.3348 1.5735,-2.5641 3.8292,-4.2475 5.5017,-4.2475 1.1004,0 1.7166,0.6616 1.7166,1.8834 0,0.7218 -0.2201,1.8436 -0.6162,3.2859 l -2.0357,7.2912 c -1.1773,3.9859 -1.2213,4.3064 -1.2213,5.7295 0,2.1629 1.3644,3.586 3.422,3.586 1.4635,0 2.8719,-0.8218 4.3684,-2.4449 0.9352,-1.0411 1.5294,-1.9629 3.334,-5.027 l -1.3534,-1.0821 c -2.2887,4.0065 -3.9172,5.9488 -5.0506,5.9488 -0.4841,0 -0.9353,-0.5602 -0.9353,-1.282 0,-0.4603 0.1431,-1.0206 0.5392,-2.5232 l 2.7618,-9.936 c 0.3081,-1.1218 0.5392,-2.7244 0.5392,-3.8462 0,-2.7244 -1.7275,-4.668 -4.0932,-4.668 -3.136,0 -5.9529,2.3641 -8.4947,7.2321 0.1651,-0.982 0.2531,-1.8436 0.2531,-2.4641 0,-2.7244 -1.8485,-4.768 -4.2583,-4.768 -2.7838,0 -4.7975,1.8025 -7.8894,6.9308 l 1.2874,-6.9308"
     id="path378"
     style="stroke-width:1.18774" />
  <path
     class="Fingering"
     d="m 2294.7488,901.12681 c -6.1509,0 -10.6402,7.7924 -10.6402,18.5708 0,10.5566 4.3463,18.2887 10.2771,18.2887 6.1729,0 10.4972,-7.4719 10.4972,-18.149 0,-5.4283 -0.9903,-9.936 -2.8278,-13.4822 -1.7166,-3.2244 -4.5334,-5.2283 -7.3063,-5.2283 m -0.3081,2.2039 c 1.4415,0 2.8499,1.1218 3.9172,3.1846 1.1884,2.4039 1.5845,5.3296 1.5845,12.3605 0,7.2321 -0.3081,10.6168 -1.1883,12.8604 -1.0124,2.5244 -2.5968,4.0462 -4.2584,4.0462 -1.4964,0 -2.8718,-1.1218 -3.9172,-3.1641 -1.2433,-2.4244 -1.5844,-5.5898 -1.5844,-14.0028 0,-6.0103 0.3081,-8.9745 1.1883,-11.2386 1.0123,-2.5642 2.5968,-4.0462 4.2583,-4.0462"
     id="path380"
     style="stroke-width:1.18774" />
  <path
     class="Fingering"
     d="m 2512.1866,1186.5928 -8.0105,0.7615 -0.165,1.8629 h 1.0453 c 1.8046,0 2.5088,0.4615 2.5088,1.5833 0,0.5 -0.1211,1.2218 -0.3961,2.2629 l -5.6228,22.2362 c -0.8912,3.7065 -0.9242,3.7462 -3.9172,3.9065 l -0.187,1.8423 h 10.5742 l 0.1651,-1.8423 h -0.5282 c -2.1126,0 -2.8169,-0.3013 -2.8169,-1.3423 0,-0.4013 0.1871,-1.2821 0.4952,-2.5642 l 2.1457,-8.3539 c 1.1883,3.5462 2.3437,4.5077 5.2486,4.5077 7.1192,0 11.4325,-9.0142 11.4325,-16.5067 0,-2.5038 -0.4292,-4.2064 -1.4415,-5.6898 -1.1553,-1.6423 -2.9049,-2.6641 -4.6324,-2.6641 -2.2447,0 -4.5664,1.5423 -6.547,4.368 l 0.6492,-4.368 m 4.5444,2.7244 c 1.9806,0 3.301,1.7833 3.301,4.5077 0,2.8244 -0.7592,6.3104 -2.0796,9.4758 -1.5295,3.8462 -3.301,5.5886 -5.6228,5.5886 -2.1676,0 -3.6971,-1.9834 -3.6971,-4.7078 0,-4.6078 3.114,-14.8643 8.0985,-14.8643"
     id="path382"
     style="stroke-width:1.18774" />
  <path
     class="Fingering"
     d="m 2484.161,1123.6943 c -6.1509,0 -10.6403,7.7925 -10.6403,18.5708 0,10.5566 4.3464,18.2888 10.2772,18.2888 6.1729,0 10.4862,-7.4719 10.4862,-18.149 0,-5.4283 -0.9793,-9.9361 -2.8169,-13.4823 -1.7165,-3.2244 -4.5334,-5.2283 -7.3062,-5.2283 m -0.3081,2.2039 c 1.4414,0 2.8499,1.1218 3.9172,3.1847 1.1884,2.4039 1.5845,5.3295 1.5845,12.3604 0,7.2322 -0.3081,10.6169 -1.1884,12.8605 -1.0123,2.5244 -2.5968,4.0462 -4.2583,4.0462 -1.4964,0 -2.8719,-1.1218 -3.9282,-3.1641 -1.2324,-2.4244 -1.5735,-5.5899 -1.5735,-14.0028 0,-6.0104 0.3081,-8.9745 1.1774,-11.2387 1.0233,-2.5641 2.5968,-4.0462 4.2693,-4.0462"
     id="path384"
     style="stroke-width:1.18774" />
  <path
     class="Fingering"
     d="m 1885.6652,1186.5928 -8.0215,0.7615 -0.165,1.8629 h 1.0453 c 1.8046,0 2.5088,0.4615 2.5088,1.5833 0,0.5 -0.1211,1.2218 -0.3962,2.2629 l -5.6227,22.2362 c -0.8913,3.7065 -0.9243,3.7462 -3.9172,3.9065 l -0.187,1.8423 h 10.5742 l 0.1761,-1.8423 h -0.5392 c -2.1127,0 -2.8169,-0.3013 -2.8169,-1.3423 0,-0.4013 0.1871,-1.2821 0.4952,-2.5642 l 2.1456,-8.3539 c 1.1884,3.5462 2.3438,4.5077 5.2487,4.5077 7.1191,0 11.4325,-9.0142 11.4325,-16.5067 0,-2.5038 -0.4292,-4.2064 -1.4415,-5.6898 -1.1553,-1.6423 -2.9049,-2.6641 -4.6214,-2.6641 -2.2557,0 -4.5774,1.5423 -6.558,4.368 l 0.6602,-4.368 m 4.5334,2.7244 c 1.9806,0 3.301,1.7833 3.301,4.5077 0,2.8244 -0.7592,6.3104 -2.0796,9.4758 -1.5295,3.8462 -3.3011,5.5886 -5.6228,5.5886 -2.1676,0 -3.6971,-1.9834 -3.6971,-4.7078 0,-4.6078 3.114,-14.8643 8.0985,-14.8643"
     id="path386"
     style="stroke-width:1.18774" />
  <path
     class="Fingering"
     d="m 2673.5732,901.12681 c -6.1619,0 -10.6403,7.7924 -10.6403,18.5708 0,10.5566 4.3463,18.2887 10.2772,18.2887 6.1729,0 10.4862,-7.4719 10.4862,-18.149 0,-5.4283 -0.9793,-9.936 -2.8169,-13.4822 -1.7165,-3.2244 -4.5444,-5.2283 -7.3062,-5.2283 m -0.3081,2.2039 c 1.4414,0 2.8498,1.1218 3.9172,3.1846 1.1883,2.4039 1.5845,5.3296 1.5845,12.3605 0,7.2321 -0.3081,10.6168 -1.1884,12.8604 -1.0123,2.5244 -2.5968,4.0462 -4.2693,4.0462 -1.4965,0 -2.8719,-1.1218 -3.9172,-3.1641 -1.2324,-2.4244 -1.5845,-5.5898 -1.5845,-14.0028 0,-6.0103 0.3191,-8.9745 1.1884,-11.2386 1.0123,-2.5642 2.5968,-4.0462 4.2693,-4.0462"
     id="path388"
     style="stroke-width:1.18774" />
  <path
     class="Fingering"
     d="m 838.17642,848.96311 c -1.3237,0 -2.37233,1.2424 -2.37233,2.7847 0,1.4834 1.04863,2.7654 2.33822,2.7654 1.35782,0 2.40644,-1.2423 2.40644,-2.7654 0,-1.5423 -1.04862,-2.7847 -2.37233,-2.7847 m 0.79115,12.5208 -8.4418,0.7615 -0.17165,1.8629 h 1.04862 c 1.80456,0 2.50987,0.4602 2.50987,1.582 0,0.5013 -0.0858,1.0821 -0.39502,2.2642 l -2.56268,9.9963 c -0.82526,3.2654 -0.9628,3.9859 -0.9628,5.168 0,1.8026 1.32481,3.1847 2.99182,3.1847 3.78296,0 6.37866,-4.5668 8.23603,-7.8925 l -1.37542,-0.8807 c -2.28761,4.0462 -4.12627,6.209 -5.31354,6.209 -0.44673,0 -0.75593,-0.4602 -0.75593,-1.0808 0,-0.5012 0.17165,-1.4423 0.53256,-2.8654 l 4.65994,-18.3092"
     id="path390"
     style="stroke-width:1.18774" />
  <path
     class="Fingering"
     d="m 604.56698,1076.0013 c -6.15529,0 -10.64247,7.7924 -10.64247,18.5708 0,10.5566 4.34964,18.2887 10.28156,18.2887 6.17179,0 10.48732,-7.4719 10.48732,-18.149 0,-5.4283 -0.9793,-9.936 -2.81907,-13.4822 -1.71983,-3.2244 -4.53889,-5.2283 -7.30734,-5.2283 m -0.3092,2.2039 c 1.44365,0 2.85428,1.1218 3.91941,3.1846 1.18726,2.4039 1.58228,5.3296 1.58228,12.3605 0,7.2321 -0.30919,10.6168 -1.18616,12.8604 -1.01451,2.5244 -2.5968,4.0462 -4.26381,4.0462 -1.49646,0 -2.87188,-1.1218 -3.9205,-3.1641 -1.23788,-2.4244 -1.58119,-5.5898 -1.58119,-14.0028 0,-6.0103 0.30919,-8.9745 1.18616,-11.2386 1.01452,-2.5642 2.5957,-4.0462 4.26381,-4.0462"
     id="path392"
     style="stroke-width:1.18774" />
  <path
     class="Fingering"
     d="m 448.55887,861.48391 -8.01156,0.7615 -0.13755,1.8629 h 1.06513 c 1.75394,0 2.45926,0.4602 2.45926,1.6231 0,0.4602 -0.13755,1.241 -0.36091,2.2231 l -4.48828,17.6284 h 3.83467 l 1.80456,-7.2321 c 1.97731,-7.8527 5.98364,-13.7823 9.28465,-13.7823 1.15205,0 1.85627,0.7013 1.85627,1.9834 0,1.0423 -0.36091,3.1859 -0.89347,5.1283 l -3.50788,13.9027 h 3.81707 l 1.89148,-7.4321 c 1.10034,-4.2668 2.20068,-7.1309 3.61021,-9.3348 1.58229,-2.5641 3.83468,-4.2475 5.50169,-4.2475 1.10034,0 1.71983,0.6616 1.71983,1.8834 0,0.7218 -0.22337,1.8436 -0.61949,3.2859 l -2.02903,7.2912 c -1.18616,3.9859 -1.22027,4.3064 -1.22027,5.7295 0,2.1629 1.35782,3.586 3.42095,3.586 1.46235,0 2.87188,-0.8218 4.36724,-2.4449 0.92869,-1.0411 1.53057,-1.9629 3.33513,-5.027 l -1.35782,-1.0821 c -2.2865,4.0065 -3.9194,5.9488 -5.05495,5.9488 -0.48085,0 -0.92759,-0.5602 -0.92759,-1.282 0,-0.4603 0.13754,-1.0206 0.53257,-2.5232 l 2.76845,-9.936 c 0.30919,-1.1218 0.53256,-2.7244 0.53256,-3.8462 0,-2.7244 -1.71983,-4.668 -4.09216,-4.668 -3.12936,0 -5.94842,2.3641 -8.49351,7.2321 0.17276,-0.982 0.25858,-1.8436 0.25858,-2.4641 0,-2.7244 -1.85737,-4.768 -4.26381,-4.768 -2.78495,0 -4.79747,1.8025 -7.89162,6.9308 l 1.2896,-6.9308"
     id="path394"
     style="stroke-width:1.18774" />
  <path
     class="Fingering"
     d="m 635.68674,1150.5986 -8.01156,0.7616 -0.17166,1.8628 h 1.04862 c 1.80566,0 2.50988,0.4603 2.50988,1.5821 0,0.5013 -0.11994,1.2218 -0.39503,2.2641 l -5.62272,22.2363 c -0.89348,3.7052 -0.92759,3.7449 -3.91941,3.9052 l -0.18925,1.8436 h 10.57314 l 0.17276,-1.8436 h -0.53367 c -2.11485,0 -2.81906,-0.3 -2.81906,-1.3411 0,-0.4013 0.18925,-1.282 0.49845,-2.5641 l 2.14896,-8.354 c 1.18616,3.5462 2.33822,4.5078 5.24421,4.5078 7.11699,0 11.43251,-9.0156 11.43251,-16.5067 0,-2.5052 -0.42913,-4.2078 -1.44364,-5.6898 -1.15206,-1.6424 -2.906,-2.6642 -4.62472,-2.6642 -2.25239,0 -4.57411,1.5424 -6.55031,4.3668 l 0.6525,-4.3668 m 4.53889,2.7244 c 1.97731,0 3.30101,1.7834 3.30101,4.5078 0,2.8244 -0.75593,6.3091 -2.07964,9.4745 -1.53057,3.8462 -3.30101,5.5898 -5.62272,5.5898 -2.16547,0 -3.69604,-1.9833 -3.69604,-4.7077 0,-4.6078 3.11176,-14.8644 8.09739,-14.8644"
     id="path396"
     style="stroke-width:1.18774" />
  <path
     class="Fingering"
     d="m 415.15701,901.12681 c -6.15529,0 -10.64247,7.7924 -10.64247,18.5708 0,10.5566 4.34964,18.2887 10.28156,18.2887 6.17179,0 10.48732,-7.4719 10.48732,-18.149 0,-5.4283 -0.9804,-9.936 -2.82017,-13.4822 -1.71873,-3.2244 -4.53889,-5.2283 -7.30624,-5.2283 m -0.3092,2.2039 c 1.44365,0 2.85318,1.1218 3.91941,3.1846 1.18616,2.4039 1.58228,5.3296 1.58228,12.3605 0,7.2321 -0.31029,10.6168 -1.18726,12.8604 -1.01341,2.5244 -2.5957,4.0462 -4.26381,4.0462 -1.49536,0 -2.87078,-1.1218 -3.9194,-3.1641 -1.23789,-2.4244 -1.58229,-5.5898 -1.58229,-14.0028 0,-6.0103 0.31029,-8.9745 1.18726,-11.2386 1.01341,-2.5642 2.5957,-4.0462 4.26381,-4.0462"
     id="path398"
     style="stroke-width:1.18774" />
  <path
     class="NoteDot"
     d="m 1901.4,3065.4655 c 0,3.5571 2.4048,6.3591 5.4577,6.3591 3.0529,0 5.4577,-2.802 5.4577,-6.3591 0,-3.5571 -2.4048,-6.3591 -5.4577,-6.3591 -3.0529,0 -5.4577,2.802 -5.4577,6.3591"
     id="path400"
     style="stroke-width:1.17823" />
  <path
     class="NoteDot"
     d="m 2425.8211,3224.4423 c 0,3.5571 2.4048,6.3591 5.4577,6.3591 3.0528,0 5.4576,-2.802 5.4576,-6.3591 0,-3.5571 -2.4048,-6.3591 -5.4576,-6.3591 -3.0529,0 -5.4577,2.802 -5.4577,6.3591"
     id="path402"
     style="stroke-width:1.17823" />
  <metadata
     id="metadata1087">
    <rdf:RDF>
      <cc:Work
         rdf:about="">
        <dc:title>exercice_corde_a_vide_03</dc:title>
      </cc:Work>
    </rdf:RDF>
  </metadata>
</svg>
