<?xml version="1.0" encoding="UTF-8" standalone="no"?>
<!-- Created with Inkscape (http://www.inkscape.org/) -->

<svg
   width="297mm"
   height="210mm"
   viewBox="0 0 297 210"
   version="1.1"
   id="svg1282"
   inkscape:version="1.2.2 (b0a8486541, 2022-12-01)"
   sodipodi:docname="exo_rythm_1.svg"
   xmlns:inkscape="http://www.inkscape.org/namespaces/inkscape"
   xmlns:sodipodi="http://sodipodi.sourceforge.net/DTD/sodipodi-0.dtd"
   xmlns="http://www.w3.org/2000/svg"
   xmlns:svg="http://www.w3.org/2000/svg"
   xmlns:rdf="http://www.w3.org/1999/02/22-rdf-syntax-ns#"
   xmlns:cc="http://creativecommons.org/ns#"
   xmlns:dc="http://purl.org/dc/elements/1.1/">
  <defs
     id="defs1276" />
  <sodipodi:namedview
     id="base"
     pagecolor="#ffffff"
     bordercolor="#666666"
     borderopacity="1.0"
     inkscape:pageopacity="0.0"
     inkscape:pageshadow="2"
     inkscape:zoom="0.35"
     inkscape:cx="684.28572"
     inkscape:cy="492.85714"
     inkscape:document-units="mm"
     inkscape:current-layer="layer1"
     showgrid="false"
     inkscape:window-width="1280"
     inkscape:window-height="651"
     inkscape:window-x="0"
     inkscape:window-y="32"
     inkscape:window-maximized="1"
     inkscape:showpageshadow="2"
     inkscape:pagecheckerboard="0"
     inkscape:deskcolor="#d1d1d1" />
  <metadata
     id="metadata1279">
    <rdf:RDF>
      <cc:Work
         rdf:about="">
        <dc:format>image/svg+xml</dc:format>
        <dc:type
           rdf:resource="http://purl.org/dc/dcmitype/StillImage" />
        <dc:title />
      </cc:Work>
    </rdf:RDF>
  </metadata>
  <g
     inkscape:label="Calque 1"
     inkscape:groupmode="layer"
     id="layer1"
     transform="translate(0,-87)">
    <polyline
       transform="matrix(0.112075,0,0,0.11521688,-17.755839,79.540173)"
       style="fill:none;stroke:#000000;stroke-width:2.73;stroke-linejoin:bevel"
       class="StaffLines"
       points="212.598,894.599 2764.6,894.599"
       id="polyline18" />
    <polyline
       transform="matrix(0.112075,0,0,0.11521688,-17.755839,79.540173)"
       style="fill:none;stroke:#000000;stroke-width:2.73;stroke-linejoin:bevel"
       class="StaffLines"
       points="212.598,919.399 2764.6,919.399"
       id="polyline20" />
    <polyline
       transform="matrix(0.112075,0,0,0.11521688,-17.755839,79.540173)"
       style="fill:none;stroke:#000000;stroke-width:2.73;stroke-linejoin:bevel"
       class="StaffLines"
       points="212.598,944.199 2764.6,944.199"
       id="polyline22" />
    <polyline
       transform="matrix(0.112075,0,0,0.11521688,-17.755839,79.540173)"
       style="fill:none;stroke:#000000;stroke-width:2.73;stroke-linejoin:bevel"
       class="StaffLines"
       points="212.598,968.999 2764.6,968.999"
       id="polyline24" />
    <polyline
       transform="matrix(0.112075,0,0,0.11521688,-17.755839,79.540173)"
       style="fill:none;stroke:#000000;stroke-width:2.73;stroke-linejoin:bevel"
       class="StaffLines"
       points="212.598,993.799 2764.6,993.799"
       id="polyline26" />
    <polyline
       transform="matrix(0.11186554,0,0,0.11521688,-18.551351,-39.665602)"
       style="fill:none;stroke:#000000;stroke-width:2.73;stroke-linejoin:bevel"
       class="StaffLines"
       points="212.598,1403 2764.6,1403"
       id="polyline28" />
    <polyline
       transform="matrix(0.11186554,0,0,0.11521688,-18.551351,-39.665602)"
       style="fill:none;stroke:#000000;stroke-width:2.73;stroke-linejoin:bevel"
       class="StaffLines"
       points="212.598,1427.8 2764.6,1427.8"
       id="polyline30" />
    <polyline
       transform="matrix(0.11186554,0,0,0.11521688,-18.551351,-39.665602)"
       style="fill:none;stroke:#000000;stroke-width:2.73;stroke-linejoin:bevel"
       class="StaffLines"
       points="212.598,1452.6 2764.6,1452.6"
       id="polyline32" />
    <polyline
       transform="matrix(0.11186554,0,0,0.11521688,-18.551351,-39.665602)"
       style="fill:none;stroke:#000000;stroke-width:2.73;stroke-linejoin:bevel"
       class="StaffLines"
       points="212.598,1477.4 2764.6,1477.4"
       id="polyline34" />
    <polyline
       transform="matrix(0.11186554,0,0,0.11521688,-18.551351,-39.665602)"
       style="fill:none;stroke:#000000;stroke-width:2.73;stroke-linejoin:bevel"
       class="StaffLines"
       points="212.598,1502.2 2764.6,1502.2"
       id="polyline36" />
    <polyline
       transform="matrix(0.11416959,0,0,0.11521688,-19.503067,29.217617)"
       style="fill:none;stroke:#000000;stroke-width:2.73;stroke-linejoin:bevel"
       class="StaffLines"
       points="212.598,1911.4 2764.6,1911.4"
       id="polyline38" />
    <polyline
       transform="matrix(0.11416959,0,0,0.11521688,-19.503067,29.217617)"
       style="fill:none;stroke:#000000;stroke-width:2.73;stroke-linejoin:bevel"
       class="StaffLines"
       points="212.598,1936.2 2764.6,1936.2"
       id="polyline40" />
    <polyline
       transform="matrix(0.11416959,0,0,0.11521688,-19.503067,29.217617)"
       style="fill:none;stroke:#000000;stroke-width:2.73;stroke-linejoin:bevel"
       class="StaffLines"
       points="212.598,1961 2764.6,1961"
       id="polyline42" />
    <polyline
       transform="matrix(0.11416959,0,0,0.11521688,-19.503067,29.217617)"
       style="fill:none;stroke:#000000;stroke-width:2.73;stroke-linejoin:bevel"
       class="StaffLines"
       points="212.598,1985.8 2764.6,1985.8"
       id="polyline44" />
    <polyline
       transform="matrix(0.11416959,0,0,0.11521688,-19.503067,29.217617)"
       style="fill:none;stroke:#000000;stroke-width:2.73;stroke-linejoin:bevel"
       class="StaffLines"
       points="212.598,2010.6 2764.6,2010.6"
       id="polyline46" />
    <polyline
       transform="matrix(0.11521688,0,0,0.11521688,-19.263839,-39.665602)"
       style="fill:none;stroke:#000000;stroke-width:4.46;stroke-linejoin:bevel"
       class="BarLine"
       points="955.769,1401.64 955.769,1503.56"
       id="polyline54" />
    <polyline
       transform="matrix(0.11521688,0,0,0.11521688,-18.423797,79.540173)"
       style="fill:none;stroke:#000000;stroke-width:4.46;stroke-linejoin:bevel"
       class="BarLine"
       points="955.769,893.235 955.769,995.163"
       id="polyline56" />
    <polyline
       transform="matrix(0.11521688,0,0,0.11521688,-18.423797,79.540173)"
       style="fill:none;stroke:#000000;stroke-width:4.46;stroke-linejoin:bevel"
       class="BarLine"
       points="1534.48,893.235 1534.48,995.163"
       id="polyline58" />
    <polyline
       transform="matrix(0.11521688,0,0,0.11521688,-18.423797,79.540173)"
       style="fill:none;stroke:#000000;stroke-width:4.46;stroke-linejoin:bevel"
       class="BarLine"
       points="2113.18,893.235 2113.18,995.163"
       id="polyline60" />
    <polyline
       transform="matrix(0.11521688,0,0,0.11521688,-19.72572,29.217617)"
       style="fill:none;stroke:#000000;stroke-width:4.46;stroke-linejoin:bevel"
       class="BarLine"
       points="2094.63,1910.04 2094.63,2011.96"
       id="polyline62" />
    <polyline
       transform="matrix(0.11521688,0,0,0.11521688,-18.423797,79.540173)"
       style="fill:none;stroke:#000000;stroke-width:4.46;stroke-linejoin:bevel"
       class="BarLine"
       points="2691.89,893.235 2691.89,995.163"
       id="polyline64" />
    <polyline
       transform="matrix(0.11521688,0,0,0.11521688,-19.72572,29.217617)"
       style="fill:none;stroke:#000000;stroke-width:4.46;stroke-linejoin:bevel"
       class="BarLine"
       points="1449.7,1910.04 1449.7,2011.96"
       id="polyline68" />
    <polyline
       transform="matrix(0.11521688,0,0,0.11521688,-19.263839,-39.665602)"
       style="fill:none;stroke:#000000;stroke-width:4.46;stroke-linejoin:bevel"
       class="BarLine"
       points="2691.89,1401.64 2691.89,1503.56"
       id="polyline72" />
    <polyline
       transform="matrix(0.11521688,0,0,0.11521688,-19.72572,29.217617)"
       style="fill:none;stroke:#000000;stroke-width:4.46;stroke-linejoin:bevel"
       class="BarLine"
       points="804.767,1910.04 804.767,2011.96"
       id="polyline74" />
    <polyline
       transform="matrix(0.11521688,0,0,0.11521688,-19.72572,29.217617)"
       style="fill:none;stroke:#000000;stroke-width:4.46;stroke-linejoin:bevel"
       class="BarLine"
       points="2739.55,1910.04 2739.55,2011.96"
       id="polyline76" />
    <polyline
       transform="matrix(0.11521688,0,0,0.11521688,-19.263839,-39.665602)"
       style="fill:none;stroke:#000000;stroke-width:4.46;stroke-linejoin:bevel"
       class="BarLine"
       points="1534.48,1401.64 1534.48,1503.56"
       id="polyline82" />
    <polyline
       transform="matrix(0.11521688,0,0,0.11521688,-19.263839,-39.665602)"
       style="fill:none;stroke:#000000;stroke-width:4.46;stroke-linejoin:bevel"
       class="BarLine"
       points="2113.18,1401.64 2113.18,1503.56"
       id="polyline84" />
    <polyline
       transform="matrix(0.11521688,0,0,0.11521688,-19.72572,29.217617)"
       style="fill:none;stroke:#000000;stroke-width:2.48;stroke-linejoin:bevel"
       class="Stem"
       points="2304.12,1965.17 2304.12,2035.4"
       id="polyline88" />
    <polyline
       transform="matrix(0.11521688,0,0,0.11521688,-19.263839,-39.665602)"
       style="fill:none;stroke:#000000;stroke-width:2.48;stroke-linejoin:bevel"
       class="Stem"
       points="2284.4,1456.77 2284.4,1527"
       id="polyline90" />
    <polyline
       transform="matrix(0.11521688,0,0,0.11521688,-19.263839,-39.665602)"
       style="fill:none;stroke:#000000;stroke-width:2.48;stroke-linejoin:bevel"
       class="Stem"
       points="2148.9,1456.77 2148.9,1527"
       id="polyline92" />
    <polyline
       transform="matrix(0.11521688,0,0,0.11521688,-19.72572,29.217617)"
       style="fill:none;stroke:#000000;stroke-width:2.48;stroke-linejoin:bevel"
       class="Stem"
       points="1274.93,1965.17 1274.93,2035.4"
       id="polyline94" />
    <polyline
       transform="matrix(0.11521688,0,0,0.11521688,-19.263839,-39.665602)"
       style="fill:none;stroke:#000000;stroke-width:2.48;stroke-linejoin:bevel"
       class="Stem"
       points="548.274,1456.77 548.274,1527"
       id="polyline96" />
    <polyline
       transform="matrix(0.11521688,0,0,0.11521688,-19.72572,29.217617)"
       style="fill:none;stroke:#000000;stroke-width:2.48;stroke-linejoin:bevel"
       class="Stem"
       points="840.479,1965.17 840.479,2035.4"
       id="polyline98" />
    <polyline
       transform="matrix(0.11521688,0,0,0.11521688,-19.263839,-39.665602)"
       style="fill:none;stroke:#000000;stroke-width:2.48;stroke-linejoin:bevel"
       class="Stem"
       points="683.775,1456.77 683.775,1527"
       id="polyline100" />
    <polyline
       transform="matrix(0.11521688,0,0,0.11521688,-19.72572,29.217617)"
       style="fill:none;stroke:#000000;stroke-width:2.48;stroke-linejoin:bevel"
       class="Stem"
       points="1101.15,1965.17 1101.15,2035.4"
       id="polyline102" />
    <polyline
       transform="matrix(0.11521688,0,0,0.11521688,-19.263839,-39.665602)"
       style="fill:none;stroke:#000000;stroke-width:2.48;stroke-linejoin:bevel"
       class="Stem"
       points="819.276,1456.77 819.276,1527"
       id="polyline104" />
    <polyline
       transform="matrix(0.11521688,0,0,0.11521688,-19.263839,-39.665602)"
       style="fill:none;stroke:#000000;stroke-width:2.48;stroke-linejoin:bevel"
       class="Stem"
       points="1976.69,1456.77 1976.69,1527"
       id="polyline106" />
    <polyline
       transform="matrix(0.11521688,0,0,0.11521688,-19.263839,-39.665602)"
       style="fill:none;stroke:#000000;stroke-width:2.48;stroke-linejoin:bevel"
       class="Stem"
       points="412.773,1456.77 412.773,1527"
       id="polyline108" />
    <polyline
       transform="matrix(0.11521688,0,0,0.11521688,-19.263839,-39.665602)"
       style="fill:none;stroke:#000000;stroke-width:2.48;stroke-linejoin:bevel"
       class="Stem"
       points="991.481,1456.77 991.481,1527"
       id="polyline110" />
    <polyline
       transform="matrix(0.11521688,0,0,0.11521688,-19.263839,-39.665602)"
       style="fill:none;stroke:#000000;stroke-width:2.48;stroke-linejoin:bevel"
       class="Stem"
       points="1841.19,1456.77 1841.19,1527"
       id="polyline112" />
    <polyline
       transform="matrix(0.11521688,0,0,0.11521688,-19.263839,-39.665602)"
       style="fill:none;stroke:#000000;stroke-width:2.48;stroke-linejoin:bevel"
       class="Stem"
       points="1126.98,1456.77 1126.98,1527"
       id="polyline114" />
    <polyline
       transform="matrix(0.11521688,0,0,0.11521688,-19.263839,-39.665602)"
       style="fill:none;stroke:#000000;stroke-width:2.48;stroke-linejoin:bevel"
       class="Stem"
       points="1262.48,1456.77 1262.48,1527"
       id="polyline116" />
    <polyline
       transform="matrix(0.11521688,0,0,0.11521688,-19.263839,-39.665602)"
       style="fill:none;stroke:#000000;stroke-width:2.48;stroke-linejoin:bevel"
       class="Stem"
       points="1705.69,1456.77 1705.69,1527"
       id="polyline118" />
    <polyline
       transform="matrix(0.11521688,0,0,0.11521688,-19.263839,-39.665602)"
       style="fill:none;stroke:#000000;stroke-width:2.48;stroke-linejoin:bevel"
       class="Stem"
       points="1397.98,1456.77 1397.98,1527"
       id="polyline120" />
    <polyline
       transform="matrix(0.11521688,0,0,0.11521688,-19.263839,-39.665602)"
       style="fill:none;stroke:#000000;stroke-width:2.48;stroke-linejoin:bevel"
       class="Stem"
       points="1570.19,1456.77 1570.19,1527"
       id="polyline122" />
    <polyline
       transform="matrix(0.11521688,0,0,0.11521688,-19.72572,29.217617)"
       style="fill:none;stroke:#000000;stroke-width:2.48;stroke-linejoin:bevel"
       class="Stem"
       points="1659.19,1965.17 1659.19,2035.4"
       id="polyline124" />
    <polyline
       transform="matrix(0.11521688,0,0,0.11521688,-18.423797,79.540173)"
       style="fill:none;stroke:#000000;stroke-width:2.48;stroke-linejoin:bevel"
       class="Stem"
       points="683.775,948.366 683.775,1018.6"
       id="polyline126" />
    <polyline
       transform="matrix(0.11521688,0,0,0.11521688,-18.423797,79.540173)"
       style="fill:none;stroke:#000000;stroke-width:2.48;stroke-linejoin:bevel"
       class="Stem"
       points="1262.48,948.366 1262.48,1018.6"
       id="polyline128" />
    <polyline
       transform="matrix(0.11521688,0,0,0.11521688,-19.72572,29.217617)"
       style="fill:none;stroke:#000000;stroke-width:2.48;stroke-linejoin:bevel"
       class="Stem"
       points="2564.78,1965.17 2564.78,2035.4"
       id="polyline130" />
    <polyline
       transform="matrix(0.11521688,0,0,0.11521688,-18.423797,79.540173)"
       style="fill:none;stroke:#000000;stroke-width:2.48;stroke-linejoin:bevel"
       class="Stem"
       points="412.773,948.366 412.773,1018.6"
       id="polyline132" />
    <polyline
       transform="matrix(0.11521688,0,0,0.11521688,-18.423797,79.540173)"
       style="fill:none;stroke:#000000;stroke-width:2.48;stroke-linejoin:bevel"
       class="Stem"
       points="1570.19,948.366 1570.19,1018.6"
       id="polyline134" />
    <polyline
       transform="matrix(0.11521688,0,0,0.11521688,-18.423797,79.540173)"
       style="fill:none;stroke:#000000;stroke-width:2.48;stroke-linejoin:bevel"
       class="Stem"
       points="991.481,948.366 991.481,1018.6"
       id="polyline136" />
    <polyline
       transform="matrix(0.11521688,0,0,0.11521688,-18.423797,79.540173)"
       style="fill:none;stroke:#000000;stroke-width:2.48;stroke-linejoin:bevel"
       class="Stem"
       points="1841.19,948.366 1841.19,1018.6"
       id="polyline138" />
    <polyline
       transform="matrix(0.11521688,0,0,0.11521688,-19.72572,29.217617)"
       style="fill:none;stroke:#000000;stroke-width:2.48;stroke-linejoin:bevel"
       class="Stem"
       points="1832.97,1965.17 1832.97,2035.4"
       id="polyline140" />
    <polyline
       transform="matrix(0.11521688,0,0,0.11521688,-19.263839,-39.665602)"
       style="fill:none;stroke:#000000;stroke-width:2.48;stroke-linejoin:bevel"
       class="Stem"
       points="2555.4,1456.77 2555.4,1527"
       id="polyline142" />
    <polyline
       transform="matrix(0.11521688,0,0,0.11521688,-18.423797,79.540173)"
       style="fill:none;stroke:#000000;stroke-width:2.48;stroke-linejoin:bevel"
       class="Stem"
       points="2148.9,948.366 2148.9,1018.6"
       id="polyline144" />
    <polyline
       transform="matrix(0.11521688,0,0,0.11521688,-19.72572,29.217617)"
       style="fill:none;stroke:#000000;stroke-width:2.48;stroke-linejoin:bevel"
       class="Stem"
       points="2130.34,1965.17 2130.34,2035.4"
       id="polyline146" />
    <polyline
       transform="matrix(0.11521688,0,0,0.11521688,-18.423797,79.540173)"
       style="fill:none;stroke:#000000;stroke-width:2.48;stroke-linejoin:bevel"
       class="Stem"
       points="2419.9,948.366 2419.9,1018.6"
       id="polyline148" />
    <polyline
       transform="matrix(0.11521688,0,0,0.11521688,-19.263839,-39.665602)"
       style="fill:none;stroke:#000000;stroke-width:2.48;stroke-linejoin:bevel"
       class="Stem"
       points="2419.9,1456.77 2419.9,1527"
       id="polyline150" />
    <polyline
       transform="matrix(0.11521688,0,0,0.11521688,-19.72572,29.217617)"
       style="fill:none;stroke:#000000;stroke-width:2.48;stroke-linejoin:bevel"
       class="Stem"
       points="1485.41,1965.17 1485.41,2035.4"
       id="polyline152" />
    <path
       style="stroke-width:0.114295"
       inkscape:connector-curvature="0"
       class="Note"
       d="m 62.649891,186.81879 c -1.109014,0 -2.434134,0.92686 -2.434134,1.98945 0,0.49112 0.353598,1.03938 1.280459,1.03938 1.187614,0 2.434134,-0.97152 2.434134,-1.97696 0,-0.67506 -0.571469,-1.05187 -1.280459,-1.05187 m -1.576916,2.49128 c -0.376822,0 -0.457187,-0.30717 -0.457187,-0.41075 0,-0.56076 1.919806,-1.54299 2.457351,-1.54299 0.275033,0 0.45718,0.16073 0.45718,0.41075 0,0.57148 -1.932301,1.54299 -2.457344,1.54299"
       id="path154" />
    <path
       style="stroke-width:0.114295"
       inkscape:connector-curvature="0"
       class="Note"
       d="m 161.50569,128.17884 c 0,0.49111 0.3536,1.03937 1.28046,1.03937 1.18761,0 2.43413,-0.97151 2.43413,-1.97696 0,-0.67505 -0.57148,-1.05186 -1.28047,-1.05186 -1.109,0 -2.43412,0.93757 -2.43412,1.98945"
       id="path158" />
    <path
       style="stroke-width:0.114295"
       inkscape:connector-curvature="0"
       class="Note"
       d="m 29.552943,253.60421 c -1.576916,0 -2.13767,0.80008 -2.13767,1.54299 0,0.74292 0.560754,1.543 2.13767,1.543 1.576923,0 2.125183,-0.80008 2.125183,-1.543 0,-0.74291 -0.54826,-1.54299 -2.125183,-1.54299 m 0.09108,2.71988 c -0.319667,0 -0.537538,-0.0911 -0.685766,-0.37682 -0.148229,-0.28574 -0.353598,-1.02865 -0.3661,-1.32689 -0.0232,-0.30896 0.09108,-0.49112 0.3661,-0.5822 0.137506,-0.0464 0.319666,-0.0697 0.50362,-0.0697 0.307165,0 0.514328,0.0697 0.673265,0.37861 0.160722,0.29645 0.3786,1.03937 0.3786,1.32511 0,0.56076 -0.412532,0.65184 -0.869719,0.65184"
       id="path160" />
    <path
       style="stroke-width:0.114295"
       inkscape:connector-curvature="0"
       class="Note"
       d="m 228.18284,128.17884 c 0,0.49111 0.35361,1.03937 1.28047,1.03937 1.18761,0 2.43413,-0.97151 2.43413,-1.97696 0,-0.67505 -0.57147,-1.05186 -1.28046,-1.05186 -1.10902,0 -2.43414,0.93757 -2.43414,1.98945"
       id="path162" />
    <path
       style="stroke-width:0.114295"
       inkscape:connector-curvature="0"
       class="Note"
       d="m 275.63736,255.63832 c 0,0.49111 0.35361,1.03937 1.28047,1.03937 1.18761,0 2.43413,-0.97151 2.43413,-1.97695 0,-0.67505 -0.57148,-1.05187 -1.28046,-1.05187 -1.10902,0 -2.43414,0.93757 -2.43414,1.98945"
       id="path164" />
    <path
       style="stroke-width:0.114295"
       inkscape:connector-curvature="0"
       class="Note"
       d="m 177.11757,128.17884 c 0,0.49111 0.35361,1.03937 1.28047,1.03937 1.1876,0 2.43412,-0.97151 2.43412,-1.97696 0,-0.67505 -0.57147,-1.05186 -1.28046,-1.05186 -1.10901,0 -2.43413,0.93757 -2.43413,1.98945"
       id="path166" />
    <path
       style="stroke-width:0.114295"
       inkscape:connector-curvature="0"
       class="Note"
       d="m 275.01851,128.17884 c 0,0.49111 0.3536,1.03937 1.28046,1.03937 1.18762,0 2.43414,-0.97151 2.43414,-1.97696 0,-0.67505 -0.57148,-1.05186 -1.28047,-1.05186 -1.109,0 -2.43413,0.93757 -2.43413,1.98945"
       id="path168" />
    <path
       style="stroke-width:0.114295"
       inkscape:connector-curvature="0"
       class="Note"
       d="m 243.79473,128.17884 c 0,0.49111 0.3536,1.03937 1.28047,1.03937 1.18761,0 2.43413,-0.97151 2.43413,-1.97696 0,-0.67505 -0.57148,-1.05186 -1.28046,-1.05186 -1.10901,0 -2.43414,0.93757 -2.43414,1.98945"
       id="path170" />
    <path
       style="stroke-width:0.114295"
       inkscape:connector-curvature="0"
       class="Note"
       d="m 192.72946,128.17884 c 0,0.49111 0.3536,1.03937 1.28047,1.03937 1.1876,0 2.43412,-0.97151 2.43412,-1.97696 0,-0.67505 -0.57147,-1.05186 -1.28046,-1.05186 -1.109,0 -2.43413,0.93757 -2.43413,1.98945"
       id="path172" />
    <path
       style="stroke-width:0.114295"
       inkscape:connector-curvature="0"
       class="Note"
       d="m 208.34135,128.17884 c 0,0.49111 0.3536,1.03937 1.28047,1.03937 1.1876,0 2.43412,-0.97151 2.43412,-1.97696 0,-0.67505 -0.57147,-1.05186 -1.28046,-1.05186 -1.10901,0 -2.43413,0.93757 -2.43413,1.98945"
       id="path176" />
    <path
       style="stroke-width:0.114295"
       inkscape:connector-curvature="0"
       class="Note"
       d="m 259.40663,128.17884 c 0,0.49111 0.35359,1.03937 1.28045,1.03937 1.18761,0 2.43413,-0.97151 2.43413,-1.97696 0,-0.67505 -0.57147,-1.05186 -1.28046,-1.05186 -1.109,0 -2.43412,0.93757 -2.43412,1.98945"
       id="path178" />
    <path
       style="stroke-width:0.114295"
       inkscape:connector-curvature="0"
       class="Note"
       d="m 248.03906,253.64887 c -1.109,0 -2.43413,0.92686 -2.43413,1.98945 0,0.49111 0.35361,1.03937 1.28047,1.03937 1.18761,0 2.43412,-0.97151 2.43412,-1.97695 0,-0.67505 -0.57147,-1.05187 -1.28046,-1.05187 m -1.57691,2.49127 c -0.37682,0 -0.45719,-0.30716 -0.45719,-0.41074 0,-0.56076 1.91981,-1.54299 2.45735,-1.54299 0.27504,0 0.45718,0.16073 0.45718,0.41075 0,0.57148 -1.93229,1.54298 -2.45734,1.54298"
       id="path180" />
    <path
       style="stroke-width:0.114295"
       inkscape:connector-curvature="0"
       class="Note"
       d="m 127.02487,255.63832 c 0,0.49111 0.3536,1.03937 1.28046,1.03937 1.18761,0 2.43413,-0.97151 2.43413,-1.97695 0,-0.67505 -0.57148,-1.05187 -1.28046,-1.05187 -1.10901,0 -2.43413,0.93757 -2.43413,1.98945"
       id="path182" />
    <path
       style="stroke-width:0.114295"
       inkscape:connector-curvature="0"
       class="Note"
       d="m 171.29811,255.63832 c 0,0.49111 0.35361,1.03937 1.28047,1.03937 1.1876,0 2.43412,-0.97151 2.43412,-1.97695 0,-0.67505 -0.57147,-1.05187 -1.28046,-1.05187 -1.10901,0 -2.43413,0.93757 -2.43413,1.98945"
       id="path184" />
    <path
       style="stroke-width:0.114295"
       inkscape:connector-curvature="0"
       class="Note"
       d="m 98.102814,186.81879 c -1.10901,0 -2.43413,0.92686 -2.43413,1.98945 0,0.49112 0.3536,1.03938 1.28046,1.03938 1.18761,0 2.43413,-0.97152 2.43413,-1.97696 0,-0.67506 -0.57147,-1.05187 -1.28046,-1.05187 m -1.57692,2.49128 c -0.37681,0 -0.45718,-0.30717 -0.45718,-0.41075 0,-0.56076 1.91981,-1.54299 2.45735,-1.54299 0.27503,0 0.45718,0.16073 0.45718,0.41075 0,0.57148 -1.9323,1.54299 -2.45735,1.54299"
       id="path186" />
    <path
       style="stroke-width:0.114295"
       inkscape:connector-curvature="0"
       class="Note"
       d="m 129.32647,186.81879 c -1.10901,0 -2.43413,0.92686 -2.43413,1.98945 0,0.49112 0.3536,1.03938 1.28046,1.03938 1.18761,0 2.43413,-0.97152 2.43413,-1.97696 0,-0.67506 -0.57147,-1.05187 -1.28046,-1.05187 m -1.57692,2.49128 c -0.37681,0 -0.45718,-0.30717 -0.45718,-0.41075 0,-0.56076 1.9198,-1.54299 2.45735,-1.54299 0.27503,0 0.45718,0.16073 0.45718,0.41075 0,0.57148 -1.93229,1.54299 -2.45735,1.54299"
       id="path188" />
    <path
       style="stroke-width:0.114295"
       inkscape:connector-curvature="0"
       class="Note"
       d="m 31.425885,186.81879 c -1.109014,0 -2.434134,0.92686 -2.434134,1.98945 0,0.49112 0.353605,1.03938 1.280466,1.03938 1.187607,0 2.434127,-0.97152 2.434127,-1.97696 0,-0.67506 -0.571469,-1.05187 -1.280459,-1.05187 m -1.576916,2.49128 c -0.376822,0 -0.457187,-0.30717 -0.457187,-0.41075 0,-0.56076 1.919814,-1.54299 2.457351,-1.54299 0.275034,0 0.45718,0.16073 0.45718,0.41075 0,0.57148 -1.932293,1.54299 -2.457344,1.54299"
       id="path190" />
    <path
       style="stroke-width:0.114295"
       inkscape:connector-curvature="0"
       class="Note"
       d="m 164.77985,186.81879 c -1.109,0 -2.43412,0.92686 -2.43412,1.98945 0,0.49112 0.3536,1.03938 1.28046,1.03938 1.18761,0 2.43413,-0.97152 2.43413,-1.97696 0,-0.67506 -0.57148,-1.05187 -1.28047,-1.05187 m -1.57691,2.49128 c -0.37682,0 -0.45718,-0.30717 -0.45718,-0.41075 0,-0.56076 1.9198,-1.54299 2.45735,-1.54299 0.27503,0 0.45718,0.16073 0.45718,0.41075 0,0.57148 -1.93229,1.54299 -2.45735,1.54299"
       id="path192" />
    <path
       style="stroke-width:0.114295"
       inkscape:connector-curvature="0"
       class="Note"
       d="m 196.00363,186.81879 c -1.109,0 -2.43413,0.92686 -2.43413,1.98945 0,0.49112 0.3536,1.03938 1.28047,1.03938 1.1876,0 2.43412,-0.97152 2.43412,-1.97696 0,-0.67506 -0.57147,-1.05187 -1.28046,-1.05187 m -1.57691,2.49128 c -0.37682,0 -0.45719,-0.30717 -0.45719,-0.41075 0,-0.56076 1.91981,-1.54299 2.45735,-1.54299 0.27504,0 0.45718,0.16073 0.45718,0.41075 0,0.57148 -1.93229,1.54299 -2.45734,1.54299"
       id="path194" />
    <path
       style="stroke-width:0.114295"
       inkscape:connector-curvature="0"
       class="Note"
       d="m 151.27572,255.63832 c 0,0.49111 0.3536,1.03937 1.28047,1.03937 1.1876,0 2.43412,-0.97151 2.43412,-1.97695 0,-0.67505 -0.57147,-1.05187 -1.28046,-1.05187 -1.10901,0 -2.43413,0.93757 -2.43413,1.98945"
       id="path196" />
    <path
       style="stroke-width:0.114295"
       inkscape:connector-curvature="0"
       class="Note"
       d="m 193.75463,253.64887 c -1.10901,0 -2.43413,0.92686 -2.43413,1.98945 0,0.49111 0.3536,1.03937 1.28046,1.03937 1.18761,0 2.43413,-0.97151 2.43413,-1.97695 0,-0.67505 -0.57147,-1.05187 -1.28046,-1.05187 m -1.57692,2.49127 c -0.37682,0 -0.45718,-0.30716 -0.45718,-0.41074 0,-0.56076 1.9198,-1.54299 2.45735,-1.54299 0.27503,0 0.45717,0.16073 0.45717,0.41075 0,0.57148 -1.93228,1.54298 -2.45734,1.54298"
       id="path198" />
    <path
       style="stroke-width:0.114295"
       inkscape:connector-curvature="0"
       class="Note"
       d="m 231.45702,186.81879 c -1.10902,0 -2.43414,0.92686 -2.43414,1.98945 0,0.49112 0.35361,1.03938 1.28047,1.03938 1.18761,0 2.43413,-0.97152 2.43413,-1.97696 0,-0.67506 -0.57147,-1.05187 -1.28046,-1.05187 m -1.57692,2.49128 c -0.37682,0 -0.45718,-0.30717 -0.45718,-0.41075 0,-0.56076 1.9198,-1.54299 2.45735,-1.54299 0.27503,0 0.45718,0.16073 0.45718,0.41075 0,0.57148 -1.93229,1.54299 -2.45735,1.54299"
       id="path200" />
    <path
       style="stroke-width:0.114295"
       inkscape:connector-curvature="0"
       class="Note"
       d="m 262.68079,186.81879 c -1.109,0 -2.43412,0.92686 -2.43412,1.98945 0,0.49112 0.35359,1.03938 1.28045,1.03938 1.18761,0 2.43413,-0.97152 2.43413,-1.97696 0,-0.67506 -0.57147,-1.05187 -1.28046,-1.05187 m -1.57691,2.49128 c -0.37682,0 -0.45718,-0.30717 -0.45718,-0.41075 0,-0.56076 1.9198,-1.54299 2.45734,-1.54299 0.27503,0 0.45718,0.16073 0.45718,0.41075 0,0.57148 -1.93229,1.54299 -2.45734,1.54299"
       id="path202" />
    <path
       style="stroke-width:0.114295"
       inkscape:connector-curvature="0"
       class="Note"
       d="m 28.151709,128.17884 c 0,0.49111 0.353605,1.03937 1.280466,1.03937 1.187607,0 2.434127,-0.97151 2.434127,-1.97696 0,-0.67505 -0.571469,-1.05186 -1.280459,-1.05186 -1.109014,0 -2.434134,0.93757 -2.434134,1.98945"
       id="path208" />
    <path
       style="stroke-width:0.114295"
       inkscape:connector-curvature="0"
       class="Note"
       d="m 43.763719,128.17884 c 0,0.49111 0.353598,1.03937 1.280459,1.03937 1.187607,0 2.434134,-0.97151 2.434134,-1.97696 0,-0.67505 -0.571476,-1.05186 -1.280459,-1.05186 -1.109021,0 -2.434134,0.93757 -2.434134,1.98945"
       id="path210" />
    <path
       style="stroke-width:0.114295"
       inkscape:connector-curvature="0"
       class="Note"
       d="m 107.00248,255.63832 c 0,0.49111 0.3536,1.03937 1.28046,1.03937 1.1876,0 2.43413,-0.97151 2.43413,-1.97695 0,-0.67505 -0.57147,-1.05187 -1.28046,-1.05187 -1.10901,0 -2.43413,0.93757 -2.43413,1.98945"
       id="path212" />
    <path
       style="stroke-width:0.114295"
       inkscape:connector-curvature="0"
       class="Note"
       d="m 59.375715,128.17884 c 0,0.49111 0.353598,1.03937 1.280459,1.03937 1.187614,0 2.434134,-0.97151 2.434134,-1.97696 0,-0.67505 -0.571469,-1.05186 -1.280459,-1.05186 -1.109014,0 -2.434134,0.93757 -2.434134,1.98945"
       id="path214" />
    <path
       style="stroke-width:0.114295"
       inkscape:connector-curvature="0"
       class="Note"
       d="m 74.987718,128.17884 c 0,0.49111 0.353598,1.03937 1.280466,1.03937 1.1876,0 2.434127,-0.97151 2.434127,-1.97696 0,-0.67505 -0.57147,-1.05186 -1.280459,-1.05186 -1.109021,0 -2.434134,0.93757 -2.434134,1.98945"
       id="path216" />
    <path
       style="stroke-width:0.114295"
       inkscape:connector-curvature="0"
       class="Note"
       d="m 79.402915,253.64887 c -1.109021,0 -2.434134,0.92686 -2.434134,1.98945 0,0.49111 0.353598,1.03937 1.280459,1.03937 1.187607,0 2.434134,-0.97151 2.434134,-1.97695 0,-0.67505 -0.571469,-1.05187 -1.280459,-1.05187 m -1.576916,2.49127 c -0.376822,0 -0.457187,-0.30716 -0.457187,-0.41074 0,-0.56076 1.919806,-1.54299 2.457351,-1.54299 0.275026,0 0.45718,0.16073 0.45718,0.41075 0,0.57148 -1.932301,1.54298 -2.457344,1.54298"
       id="path218" />
    <path
       style="stroke-width:0.114295"
       inkscape:connector-curvature="0"
       class="Note"
       d="m 225.58254,255.63832 c 0,0.49111 0.3536,1.03937 1.28046,1.03937 1.18762,0 2.43414,-0.97151 2.43414,-1.97695 0,-0.67505 -0.57148,-1.05187 -1.28046,-1.05187 -1.10902,0 -2.43414,0.93757 -2.43414,1.98945"
       id="path220" />
    <path
       style="stroke-width:0.114295"
       inkscape:connector-curvature="0"
       class="Note"
       d="m 94.828642,128.17884 c 0,0.49111 0.3536,1.03937 1.28046,1.03937 1.18761,0 2.43413,-0.97151 2.43413,-1.97696 0,-0.67505 -0.57147,-1.05186 -1.28046,-1.05186 -1.10901,0 -2.43413,0.93757 -2.43413,1.98945"
       id="path222" />
    <path
       style="stroke-width:0.114295"
       inkscape:connector-curvature="0"
       class="Note"
       d="m 110.44041,128.17884 c 0,0.49111 0.3536,1.03937 1.28047,1.03937 1.1876,0 2.43413,-0.97151 2.43413,-1.97696 0,-0.67505 -0.57148,-1.05186 -1.28047,-1.05186 -1.10902,0 -2.43413,0.93757 -2.43413,1.98945"
       id="path224" />
    <path
       style="stroke-width:0.114295"
       inkscape:connector-curvature="0"
       class="Note"
       d="m 126.0523,128.17884 c 0,0.49111 0.3536,1.03937 1.28046,1.03937 1.18761,0 2.43413,-0.97151 2.43413,-1.97696 0,-0.67505 -0.57147,-1.05186 -1.28046,-1.05186 -1.10901,0 -2.43413,0.93757 -2.43413,1.98945"
       id="path226" />
    <path
       style="stroke-width:0.114295"
       inkscape:connector-curvature="0"
       class="Note"
       d="m 141.66418,128.17884 c 0,0.49111 0.3536,1.03937 1.28047,1.03937 1.18761,0 2.43413,-0.97151 2.43413,-1.97696 0,-0.67505 -0.57148,-1.05186 -1.28046,-1.05186 -1.10901,0 -2.43414,0.93757 -2.43414,1.98945"
       id="path228" />
    <path
       style="stroke-width:0.114295"
       inkscape:connector-curvature="0"
       class="Clef"
       d="m 14.22709,257.98136 c 0,-1.71442 -1.223311,-2.88059 -2.891314,-2.88059 -0.114297,-0.68577 -0.217871,-1.37154 -0.31966,-2.00016 1.200094,-1.26976 2.044811,-2.70916 2.044811,-4.51467 0,-1.05187 -0.319673,-1.88587 -0.514328,-2.29836 -0.273233,-0.58223 -0.605415,-0.99483 -0.80007,-0.99483 -0.07858,0 -0.444678,0.15007 -0.810792,0.5948 -0.742912,0.86967 -0.948275,2.31979 -0.948275,3.28058 0,0.61791 0.05716,1.17688 0.251803,2.46984 -0.01252,0 -0.607194,0.60543 -0.84651,0.8108 -1.04115,0.96078 -2.48056,2.35377 -2.48056,4.62896 0,2.1484 1.862658,3.82889 3.989624,3.82889 0.330382,0 0.639333,-0.034 0.91436,-0.0804 0.20537,1.09829 0.34289,1.89836 0.34289,2.50378 0,1.18938 -0.617917,1.81801 -1.760869,1.81801 -0.285733,0 -0.525035,-0.0572 -0.537536,-0.0697 -0.02144,0 -0.04465,-0.0107 -0.04465,-0.0214 0,-0.0232 0.0232,-0.0357 0.05716,-0.0465 0.537536,-0.0804 1.073295,-0.53753 1.073295,-1.26795 0,-0.61792 -0.467896,-1.26976 -1.325112,-1.26976 -0.789347,0 -1.303675,0.65184 -1.303675,1.40548 0,0.75542 0.571476,1.75015 2.114458,1.75015 1.475121,0 2.194826,-0.83579 2.194826,-2.29841 0,-0.44467 -0.06785,-0.959 -0.182153,-1.61084 -0.03389,-0.2286 -0.09108,-0.58398 -0.171438,-1.01796 1.119722,-0.37681 1.953724,-1.53226 1.953724,-2.71987 m -3.519939,-9.36149 c 0.114297,-0.45718 0.628625,-1.65728 1.223325,-1.65728 0.171445,0 0.457179,0.54826 0.457179,1.34832 0,1.17689 -0.89115,2.06981 -1.680504,2.85738 -0.06785,-0.45718 -0.125005,-0.91436 -0.125005,-1.38225 0,-0.43397 0.04465,-0.81257 0.125005,-1.16617 m 0.342883,11.81884 c -1.634055,0 -3.028818,-1.14295 -3.028818,-2.86988 0,-1.39298 0.994731,-2.6395 1.989456,-3.51993 0.192875,-0.16074 0.376819,-0.33218 0.548257,-0.49111 0.101796,0.61611 0.194662,1.14295 0.262519,1.62335 -1.041149,0.29645 -1.748352,1.40547 -1.748352,2.46806 0,0.81256 0.628624,1.90908 1.542989,1.90908 0.09107,0 0.194647,-0.0464 0.194647,-0.16072 0,-0.0911 -0.103581,-0.15895 -0.251803,-0.25003 -0.446462,-0.2643 -0.698265,-0.57147 -0.698265,-1.12152 0,-0.69649 0.526827,-1.25726 1.18937,-1.41619 l 0.662556,3.74853 c -0.228586,0.0572 -0.433963,0.0804 -0.662556,0.0804 m 1.142953,-0.21786 c -0.239302,-1.35905 -0.548246,-3.17706 -0.628625,-3.68068 1.153675,0 1.646573,0.80007 1.748368,1.35011 0.01252,0.0911 0.03389,0.2161 0.03389,0.35361 0,0.82328 -0.342883,1.65727 -1.153668,1.97696 m -0.446465,5.98978 c 0,-0.42325 -0.38753,-0.6054 -0.764345,-0.6054 -0.480396,0 -0.950082,0.29645 -0.950082,0.81077 0,0.21788 0.08037,0.3786 0.251801,0.53755 -0.296441,0.11429 -0.605406,0.34288 -0.605406,0.69827 0,0.37682 0.34289,0.62863 0.846507,0.62863 0.616117,0 1.05008,-0.34289 1.05008,-0.83579 0,-0.26252 -0.11429,-0.47861 -0.319666,-0.62863 0.332174,-0.14822 0.491111,-0.33038 0.491111,-0.6054 m -0.707197,0.45718 c -0.171445,-0.0911 -0.217885,-0.11429 -0.251809,-0.13751 l -0.01252,-0.0107 c -0.182167,-0.10357 -0.239308,-0.18394 -0.239308,-0.31966 0,-0.20717 0.160729,-0.35539 0.389323,-0.35539 0.228586,0 0.353591,0.13752 0.353591,0.37682 0,0.18394 -0.06785,0.30896 -0.239302,0.44646 m -0.435749,1.37155 c -0.250017,0 -0.42146,-0.15895 -0.42146,-0.40004 0,-0.21609 0.101787,-0.41075 0.296441,-0.52504 0.04641,0.0232 0.05716,0.0339 0.09109,0.0446 0.137507,0.0697 0.137507,0.0697 0.16073,0.0929 0.228594,0.12501 0.308951,0.2393 0.308951,0.40003 0,0.21609 -0.183946,0.38753 -0.435749,0.38753"
       id="path232" />
    <path
       style="stroke-width:0.114295"
       inkscape:connector-curvature="0"
       class="Clef"
       d="m 15.529013,191.15129 c 0,-1.71443 -1.223311,-2.8806 -2.891314,-2.8806 -0.114297,-0.68577 -0.217871,-1.37154 -0.31966,-2.00016 1.200094,-1.26976 2.044811,-2.70916 2.044811,-4.51466 0,-1.05188 -0.319673,-1.88588 -0.514328,-2.29837 -0.273233,-0.58222 -0.605415,-0.99482 -0.80007,-0.99482 -0.07858,0 -0.444678,0.15007 -0.810792,0.59478 -0.742912,0.86968 -0.948275,2.3198 -0.948275,3.28059 0,0.61792 0.05716,1.17688 0.251803,2.46985 -0.01252,0 -0.607194,0.60541 -0.84651,0.81079 -1.0411499,0.96078 -2.4805599,2.35376 -2.4805599,4.62896 0,2.1484 1.8626579,3.82889 3.9896239,3.82889 0.330382,0 0.639333,-0.034 0.91436,-0.0804 0.20537,1.09829 0.34289,1.89836 0.34289,2.50377 0,1.18939 -0.617917,1.81802 -1.760869,1.81802 -0.285733,0 -0.525035,-0.0572 -0.537536,-0.0697 -0.02144,0 -0.04465,-0.0107 -0.04465,-0.0214 0,-0.0232 0.0232,-0.0357 0.05716,-0.0464 0.537536,-0.0804 1.073295,-0.53755 1.073295,-1.26796 0,-0.61792 -0.467896,-1.26975 -1.325112,-1.26975 -0.789347,0 -1.3036749,0.65183 -1.3036749,1.40548 0,0.75542 0.5714759,1.75014 2.1144579,1.75014 1.475121,0 2.194826,-0.83578 2.194826,-2.29841 0,-0.44467 -0.06785,-0.959 -0.182153,-1.61084 -0.03389,-0.22859 -0.09108,-0.58398 -0.171438,-1.01795 1.119722,-0.37682 1.953724,-1.53226 1.953724,-2.71987 m -3.519939,-9.36149 c 0.114297,-0.45718 0.628625,-1.65728 1.223325,-1.65728 0.171445,0 0.457179,0.54824 0.457179,1.34831 0,1.1769 -0.89115,2.06983 -1.680504,2.85739 -0.06785,-0.45718 -0.125005,-0.91436 -0.125005,-1.38226 0,-0.43396 0.04465,-0.81256 0.125005,-1.16616 m 0.342883,11.81884 c -1.634055,0 -3.0288179,-1.14296 -3.0288179,-2.86988 0,-1.39298 0.9947309,-2.63951 1.9894559,-3.51994 0.192875,-0.16073 0.376819,-0.33217 0.548257,-0.49111 0.101796,0.61612 0.194662,1.14295 0.262519,1.62334 -1.041149,0.29647 -1.748352,1.40548 -1.748352,2.46807 0,0.81257 0.628624,1.90909 1.542989,1.90909 0.09107,0 0.194647,-0.0464 0.194647,-0.16072 0,-0.0911 -0.103581,-0.15895 -0.251803,-0.25003 -0.446462,-0.26431 -0.698265,-0.57147 -0.698265,-1.12152 0,-0.69649 0.526827,-1.25726 1.18937,-1.41619 l 0.662556,3.74853 c -0.228586,0.0572 -0.433963,0.0804 -0.662556,0.0804 m 1.142953,-0.21787 c -0.239302,-1.35905 -0.548246,-3.17705 -0.628625,-3.68067 1.153675,0 1.646573,0.80007 1.748368,1.35011 0.01252,0.0911 0.03389,0.2161 0.03389,0.3536 0,0.82329 -0.342883,1.65728 -1.153668,1.97696 m -0.446465,5.98978 c 0,-0.42325 -0.38753,-0.6054 -0.764345,-0.6054 -0.480396,0 -0.950082,0.29645 -0.950082,0.81078 0,0.21788 0.08037,0.3786 0.251801,0.53754 -0.296441,0.11429 -0.605406,0.34288 -0.605406,0.69828 0,0.37681 0.34289,0.62862 0.846507,0.62862 0.616117,0 1.05008,-0.34289 1.05008,-0.83579 0,-0.26252 -0.11429,-0.47861 -0.319666,-0.62862 0.332174,-0.14823 0.491111,-0.33038 0.491111,-0.60541 m -0.707197,0.45718 c -0.171445,-0.0911 -0.217885,-0.1143 -0.251809,-0.13751 l -0.01252,-0.0107 c -0.182167,-0.10358 -0.239308,-0.18394 -0.239308,-0.31967 0,-0.20716 0.160729,-0.35539 0.389323,-0.35539 0.228586,0 0.353591,0.13751 0.353591,0.37682 0,0.18395 -0.06785,0.30895 -0.239302,0.44646 m -0.435749,1.37154 c -0.250017,0 -0.42146,-0.15893 -0.42146,-0.40003 0,-0.21609 0.101787,-0.41074 0.296441,-0.52504 0.04641,0.0232 0.05716,0.0339 0.09109,0.0446 0.137507,0.0697 0.137507,0.0697 0.16073,0.0929 0.228594,0.12501 0.308951,0.2393 0.308951,0.40003 0,0.21608 -0.183946,0.38753 -0.435749,0.38753"
       id="path234" />
    <path
       style="stroke-width:0.114295"
       inkscape:connector-curvature="0"
       class="Clef"
       d="m 14.688971,130.52189 c 0,-1.71443 -1.223311,-2.8806 -2.891314,-2.8806 -0.114297,-0.68577 -0.217871,-1.37154 -0.31966,-2.00016 1.200094,-1.26977 2.044811,-2.70916 2.044811,-4.51467 0,-1.05187 -0.319673,-1.88587 -0.514328,-2.29836 -0.273233,-0.58223 -0.605415,-0.99483 -0.80007,-0.99483 -0.07858,0 -0.444678,0.15007 -0.810792,0.5948 -0.742912,0.86966 -0.948275,2.31979 -0.948275,3.28058 0,0.6179 0.05716,1.17688 0.251803,2.46984 -0.01252,0 -0.607194,0.60542 -0.8465098,0.8108 -1.04115,0.96077 -2.48056,2.35376 -2.48056,4.62895 0,2.14841 1.862658,3.8289 3.9896238,3.8289 0.330382,0 0.639333,-0.0339 0.91436,-0.0804 0.20537,1.0983 0.34289,1.89836 0.34289,2.50378 0,1.18939 -0.617917,1.81801 -1.760869,1.81801 -0.285733,0 -0.525035,-0.0572 -0.537536,-0.0697 -0.02144,0 -0.04465,-0.0107 -0.04465,-0.0214 0,-0.0232 0.0232,-0.0357 0.05716,-0.0464 0.537536,-0.0804 1.073295,-0.53754 1.073295,-1.26795 0,-0.61792 -0.467896,-1.26976 -1.325112,-1.26976 -0.7893468,0 -1.3036748,0.65184 -1.3036748,1.40548 0,0.75542 0.571476,1.75015 2.1144578,1.75015 1.475121,0 2.194826,-0.83578 2.194826,-2.29841 0,-0.44468 -0.06785,-0.95901 -0.182153,-1.61085 -0.03389,-0.22858 -0.09108,-0.58397 -0.171438,-1.01794 1.119722,-0.37682 1.953724,-1.53226 1.953724,-2.71987 m -3.519939,-9.3615 c 0.114297,-0.45718 0.628625,-1.65728 1.223325,-1.65728 0.171445,0 0.457179,0.54826 0.457179,1.34832 0,1.17689 -0.89115,2.06982 -1.680504,2.85739 -0.06785,-0.45718 -0.125005,-0.91437 -0.125005,-1.38227 0,-0.43396 0.04465,-0.81256 0.125005,-1.16616 m 0.342883,11.81884 c -1.6340548,0 -3.0288178,-1.14295 -3.0288178,-2.86988 0,-1.39298 0.994731,-2.6395 1.9894558,-3.51993 0.192875,-0.16074 0.376819,-0.33218 0.548257,-0.49111 0.101796,0.61611 0.194662,1.14295 0.262519,1.62334 -1.041149,0.29646 -1.7483518,1.40548 -1.7483518,2.46807 0,0.81256 0.6286238,1.90908 1.5429888,1.90908 0.09107,0 0.194647,-0.0464 0.194647,-0.16071 0,-0.0911 -0.103581,-0.15895 -0.251803,-0.25003 -0.446462,-0.26432 -0.698265,-0.57148 -0.698265,-1.12153 0,-0.69648 0.526827,-1.25725 1.18937,-1.41618 l 0.662556,3.74852 c -0.228586,0.0572 -0.433963,0.0804 -0.662556,0.0804 m 1.142953,-0.21786 c -0.239302,-1.35905 -0.548246,-3.17706 -0.628625,-3.68069 1.153675,0 1.646573,0.80008 1.748368,1.35013 0.01252,0.0911 0.03389,0.21609 0.03389,0.3536 0,0.82328 -0.342883,1.65728 -1.153668,1.97696 m -0.446465,5.98978 c 0,-0.42325 -0.38753,-0.60541 -0.764345,-0.60541 -0.480396,0 -0.950082,0.29645 -0.950082,0.81078 0,0.21788 0.08037,0.37861 0.251801,0.53755 -0.296441,0.11429 -0.605406,0.34288 -0.605406,0.69827 0,0.37681 0.34289,0.62862 0.846507,0.62862 0.616117,0 1.05008,-0.34288 1.05008,-0.83578 0,-0.26252 -0.11429,-0.47861 -0.319666,-0.62862 0.332174,-0.14823 0.491111,-0.33039 0.491111,-0.60541 m -0.707197,0.45718 c -0.171445,-0.0911 -0.217885,-0.1143 -0.251809,-0.13751 l -0.01252,-0.0107 c -0.182167,-0.10358 -0.239308,-0.18394 -0.239308,-0.31967 0,-0.20715 0.160729,-0.35538 0.389323,-0.35538 0.228586,0 0.353591,0.13751 0.353591,0.37681 0,0.18395 -0.06785,0.30896 -0.239302,0.44647 m -0.435749,1.37154 c -0.250017,0 -0.42146,-0.15894 -0.42146,-0.40003 0,-0.21609 0.101787,-0.41075 0.296441,-0.52504 0.04641,0.0232 0.05716,0.0339 0.09109,0.0446 0.137507,0.0697 0.137507,0.0697 0.16073,0.0929 0.228594,0.12501 0.308951,0.2393 0.308951,0.40003 0,0.21609 -0.183946,0.38753 -0.435749,0.38753"
       id="path236" />
    <path
       style="stroke-width:0.114295"
       inkscape:connector-curvature="0"
       class="TimeSig"
       d="m 20.602644,186.92237 v 0.84472 h -0.948299 c -0.08036,0 -0.160715,0.0697 -0.160715,0.16072 v 0.21788 c 0,0.0911 0.08036,0.15894 0.160715,0.15894 h 3.462791 c 0.09287,0 0.16073,-0.0679 0.16073,-0.15894 v -0.21788 c 0,-0.0911 -0.06785,-0.16072 -0.16073,-0.16072 h -1.016148 v -0.84472 h 1.016148 c 0.09287,0 0.16073,-0.0804 0.16073,-0.17145 v -0.21787 c 0,-0.0804 -0.06785,-0.15893 -0.16073,-0.15893 h -1.016148 v -1.81801 c 0,-0.0679 -0.03396,-0.12502 -0.09108,-0.14823 l -0.137513,-0.0697 c -0.0232,-0.0107 -0.05716,-0.0214 -0.08037,-0.0214 -0.03389,0.0107 -0.08037,0.0214 -0.103575,0.0446 l -1.039378,0.94829 c -0.03389,0.0357 -0.04641,0.0804 -0.04641,0.1268 v 0.93758 h -1.314398 c 0,0 1.269751,-1.37154 2.618073,-3.17884 0.04648,-0.0572 0.05716,-0.1143 0.05716,-0.15894 0,-0.0572 -0.0232,-0.10358 -0.03389,-0.1143 l -0.25181,-0.2518 c -0.0232,-0.0232 -0.06785,-0.0464 -0.114296,-0.0464 -0.06785,0 -1.612627,0 -1.691206,0 -0.09287,0 -0.150015,0.0697 -0.160737,0.13752 0,0 -0.05716,0.8465 -0.353598,1.77158 -0.298243,0.92686 -0.641126,1.49833 -0.937576,1.9198 0,0 -0.03389,0.0572 -0.03389,0.1268 0,0.0232 0,0.0446 0.01069,0.0678 0.04641,0.0804 0.114297,0.20538 0.114297,0.20538 0,0 0.0232,0.0697 0.125005,0.0697 h 1.966239"
       id="path238" />
    <path
       style="stroke-width:0.114295"
       inkscape:connector-curvature="0"
       class="TimeSig"
       d="m 20.602644,192.63713 v 0.84472 h -0.948299 c -0.08036,0 -0.160715,0.0696 -0.160715,0.16072 v 0.21788 c 0,0.0911 0.08036,0.15895 0.160715,0.15895 h 3.462791 c 0.09287,0 0.16073,-0.0678 0.16073,-0.15895 v -0.21788 c 0,-0.0911 -0.06785,-0.16072 -0.16073,-0.16072 h -1.016148 v -0.84472 h 1.016148 c 0.09287,0 0.16073,-0.0804 0.16073,-0.17145 v -0.21787 c 0,-0.0804 -0.06785,-0.15894 -0.16073,-0.15894 h -1.016148 v -1.81801 c 0,-0.0679 -0.03396,-0.12501 -0.09108,-0.14823 l -0.137513,-0.0697 c -0.0232,-0.0107 -0.05716,-0.0214 -0.08037,-0.0214 -0.03389,0.0107 -0.08037,0.0214 -0.103575,0.0446 l -1.039378,0.9483 c -0.03389,0.0357 -0.04641,0.0804 -0.04641,0.12679 v 0.93758 h -1.314398 c 0,0 1.269751,-1.37154 2.618073,-3.17884 0.04648,-0.0572 0.05716,-0.11429 0.05716,-0.15894 0,-0.0572 -0.0232,-0.10358 -0.03389,-0.1143 l -0.25181,-0.2518 c -0.0232,-0.0232 -0.06785,-0.0464 -0.114296,-0.0464 -0.06785,0 -1.612627,0 -1.691206,0 -0.09287,0 -0.150015,0.0697 -0.160737,0.13753 0,0 -0.05716,0.84649 -0.353598,1.77157 -0.298243,0.92686 -0.641126,1.49834 -0.937576,1.9198 0,0 -0.03389,0.0572 -0.03389,0.1268 0,0.0232 0,0.0447 0.01069,0.0678 0.04641,0.0804 0.114297,0.20538 0.114297,0.20538 0,0 0.0232,0.0697 0.125005,0.0697 h 1.966239"
       id="path240" />
    <path
       style="stroke-width:0.114295"
       inkscape:connector-curvature="0"
       class="TimeSig"
       d="m 19.300721,253.75245 v 0.84472 h -0.948299 c -0.08036,0 -0.160715,0.0696 -0.160715,0.16072 v 0.21788 c 0,0.0911 0.08036,0.15895 0.160715,0.15895 h 3.462791 c 0.09287,0 0.16073,-0.0678 0.16073,-0.15895 v -0.21788 c 0,-0.0911 -0.06785,-0.16072 -0.16073,-0.16072 h -1.016148 v -0.84472 h 1.016148 c 0.09287,0 0.16073,-0.0804 0.16073,-0.17145 v -0.21787 c 0,-0.0804 -0.06785,-0.15894 -0.16073,-0.15894 h -1.016148 v -1.818 c 0,-0.0679 -0.03396,-0.12502 -0.09108,-0.14823 l -0.137513,-0.0697 c -0.0232,-0.0107 -0.05716,-0.0214 -0.08037,-0.0214 -0.03389,0.0107 -0.08037,0.0214 -0.103575,0.0446 l -1.039378,0.94829 c -0.03389,0.0357 -0.04641,0.0804 -0.04641,0.1268 v 0.93758 h -1.314398 c 0,0 1.269751,-1.37154 2.618073,-3.17884 0.04648,-0.0572 0.05716,-0.1143 0.05716,-0.15894 0,-0.0572 -0.0232,-0.10358 -0.03389,-0.1143 l -0.25181,-0.2518 c -0.0232,-0.0232 -0.06785,-0.0465 -0.114296,-0.0465 -0.06785,0 -1.612627,0 -1.691206,0 -0.09287,0 -0.150015,0.0697 -0.160737,0.13753 0,0 -0.05716,0.8465 -0.353598,1.77157 -0.298243,0.92686 -0.641126,1.49835 -0.937576,1.91981 0,0 -0.03389,0.0572 -0.03389,0.1268 0,0.0232 0,0.0446 0.01069,0.0679 0.04641,0.0803 0.114297,0.20537 0.114297,0.20537 0,0 0.0232,0.0696 0.125005,0.0696 h 1.966239"
       id="path242" />
    <path
       style="stroke-width:0.114295"
       inkscape:connector-curvature="0"
       class="TimeSig"
       d="m 19.300721,259.46721 v 0.84472 h -0.948299 c -0.08036,0 -0.160715,0.0696 -0.160715,0.16072 v 0.21788 c 0,0.0911 0.08036,0.15895 0.160715,0.15895 h 3.462791 c 0.09287,0 0.16073,-0.0679 0.16073,-0.15895 v -0.21788 c 0,-0.0911 -0.06785,-0.16072 -0.16073,-0.16072 h -1.016148 v -0.84472 h 1.016148 c 0.09287,0 0.16073,-0.0804 0.16073,-0.17145 v -0.21788 c 0,-0.0804 -0.06785,-0.15893 -0.16073,-0.15893 h -1.016148 v -1.81801 c 0,-0.0678 -0.03396,-0.12501 -0.09108,-0.14823 l -0.137513,-0.0697 c -0.0232,-0.0107 -0.05716,-0.0215 -0.08037,-0.0215 -0.03389,0.0107 -0.08037,0.0215 -0.103575,0.0447 l -1.039378,0.94829 c -0.03389,0.0357 -0.04641,0.0804 -0.04641,0.1268 v 0.93758 h -1.314398 c 0,0 1.269751,-1.37154 2.618073,-3.17884 0.04648,-0.0572 0.05716,-0.1143 0.05716,-0.15893 0,-0.0572 -0.0232,-0.10359 -0.03389,-0.1143 l -0.25181,-0.25181 c -0.0232,-0.0232 -0.06785,-0.0465 -0.114296,-0.0465 -0.06785,0 -1.612627,0 -1.691206,0 -0.09287,0 -0.150015,0.0697 -0.160737,0.13752 0,0 -0.05716,0.84651 -0.353598,1.77158 -0.298243,0.92687 -0.641126,1.49834 -0.937576,1.91981 0,0 -0.03389,0.0572 -0.03389,0.12679 0,0.0232 0,0.0446 0.01069,0.0678 0.04641,0.0804 0.114297,0.20539 0.114297,0.20539 0,0 0.0232,0.0696 0.125005,0.0696 h 1.966239"
       id="path244" />
    <path
       style="stroke-width:0.114295"
       inkscape:connector-curvature="0"
       class="TimeSig"
       d="m 19.762602,126.29296 v 0.84473 h -0.948299 c -0.08036,0 -0.160715,0.0696 -0.160715,0.16072 v 0.21788 c 0,0.0911 0.08036,0.15894 0.160715,0.15894 h 3.462791 c 0.09287,0 0.16073,-0.0678 0.16073,-0.15894 v -0.21788 c 0,-0.0911 -0.06785,-0.16072 -0.16073,-0.16072 h -1.016148 v -0.84473 h 1.016148 c 0.09287,0 0.16073,-0.0804 0.16073,-0.17144 v -0.21787 c 0,-0.0804 -0.06785,-0.15895 -0.16073,-0.15895 h -1.016148 v -1.818 c 0,-0.0678 -0.03396,-0.12501 -0.09108,-0.14823 l -0.137513,-0.0697 c -0.0232,-0.0107 -0.05716,-0.0214 -0.08037,-0.0214 -0.03389,0.0107 -0.08037,0.0214 -0.103575,0.0446 l -1.039378,0.9483 c -0.03389,0.0357 -0.04641,0.0804 -0.04641,0.12679 v 0.93758 h -1.314398 c 0,0 1.269751,-1.37154 2.618073,-3.17885 0.04648,-0.0572 0.05716,-0.1143 0.05716,-0.15893 0,-0.0572 -0.0232,-0.10358 -0.03389,-0.11429 l -0.25181,-0.25181 c -0.0232,-0.0232 -0.06785,-0.0465 -0.114296,-0.0465 -0.06785,0 -1.612627,0 -1.691206,0 -0.09287,0 -0.150015,0.0697 -0.160737,0.13752 0,0 -0.05716,0.8465 -0.353598,1.77157 -0.298243,0.92687 -0.641126,1.49834 -0.937576,1.9198 0,0 -0.03389,0.0572 -0.03389,0.1268 0,0.0232 0,0.0447 0.01069,0.0678 0.04641,0.0804 0.114297,0.20539 0.114297,0.20539 0,0 0.0232,0.0696 0.125005,0.0696 h 1.966239"
       id="path254" />
    <path
       style="stroke-width:0.114295"
       inkscape:connector-curvature="0"
       class="TimeSig"
       d="m 19.762602,132.00772 v 0.84472 h -0.948299 c -0.08036,0 -0.160715,0.0697 -0.160715,0.16073 v 0.21788 c 0,0.0911 0.08036,0.15894 0.160715,0.15894 h 3.462791 c 0.09287,0 0.16073,-0.0678 0.16073,-0.15894 v -0.21788 c 0,-0.0911 -0.06785,-0.16073 -0.16073,-0.16073 h -1.016148 v -0.84472 h 1.016148 c 0.09287,0 0.16073,-0.0804 0.16073,-0.17144 v -0.21788 c 0,-0.0804 -0.06785,-0.15894 -0.16073,-0.15894 h -1.016148 v -1.818 c 0,-0.0678 -0.03396,-0.12502 -0.09108,-0.14823 l -0.137513,-0.0697 c -0.0232,-0.0107 -0.05716,-0.0215 -0.08037,-0.0215 -0.03389,0.0107 -0.08037,0.0215 -0.103575,0.0447 l -1.039378,0.94829 c -0.03389,0.0357 -0.04641,0.0804 -0.04641,0.12681 v 0.93757 h -1.314398 c 0,0 1.269751,-1.37154 2.618073,-3.17884 0.04648,-0.0572 0.05716,-0.11429 0.05716,-0.15893 0,-0.0572 -0.0232,-0.10359 -0.03389,-0.1143 l -0.25181,-0.2518 c -0.0232,-0.0232 -0.06785,-0.0465 -0.114296,-0.0465 -0.06785,0 -1.612627,0 -1.691206,0 -0.09287,0 -0.150015,0.0697 -0.160737,0.13753 0,0 -0.05716,0.84649 -0.353598,1.77157 -0.298243,0.92686 -0.641126,1.49834 -0.937576,1.9198 0,0 -0.03389,0.0572 -0.03389,0.1268 0,0.0232 0,0.0446 0.01069,0.0678 0.04641,0.0804 0.114297,0.20538 0.114297,0.20538 0,0 0.0232,0.0696 0.125005,0.0696 h 1.966239"
       id="path256" />
    <path
       inkscape:connector-curvature="0"
       class="Fingering"
       d="m 226.54115,245.73318 -0.83878,0.0691 -0.015,0.16706 h 0.11176 c 0.18319,0 0.25693,0.0415 0.25693,0.14633 0,0.0415 -0.0138,0.11061 -0.0369,0.19933 l -0.47008,1.58422 h 0.40095 l 0.18896,-0.64982 c 0.20739,-0.70628 0.62678,-1.23858 0.97243,-1.23858 0.12098,0 0.19472,0.0633 0.19472,0.17859 0,0.0933 -0.038,0.28573 -0.0945,0.46086 l -0.36639,1.24895 h 0.3998 l 0.19702,-0.66826 c 0.11522,-0.38251 0.23044,-0.6406 0.37907,-0.83877 0.16476,-0.23044 0.40095,-0.38137 0.57609,-0.38137 0.11521,0 0.17973,0.0599 0.17973,0.16936 0,0.0645 -0.0231,0.16592 -0.0645,0.29496 l -0.21316,0.65559 c -0.12443,0.35832 -0.12789,0.38713 -0.12789,0.51502 0,0.19356 0.14288,0.32145 0.35833,0.32145 0.15324,0 0.30072,-0.0737 0.45741,-0.21891 0.0968,-0.0933 0.16015,-0.17628 0.3491,-0.45165 l -0.14171,-0.0979 c -0.23965,0.36063 -0.41017,0.5346 -0.53,0.5346 -0.0496,0 -0.0968,-0.0496 -0.0968,-0.11522 0,-0.0415 0.015,-0.091 0.0553,-0.22698 l 0.29034,-0.89293 c 0.0323,-0.10023 0.0553,-0.24426 0.0553,-0.34564 0,-0.24426 -0.17974,-0.41939 -0.42746,-0.41939 -0.32836,0 -0.62332,0.21314 -0.88947,0.64982 0.0173,-0.0876 0.0265,-0.16476 0.0265,-0.22122 0,-0.24426 -0.19472,-0.4286 -0.44589,-0.4286 -0.2915,0 -0.50235,0.16245 -0.82726,0.62332 l 0.13595,-0.62332"
       id="path266"
       style="stroke-width:0.115217" />
    <path
       inkscape:connector-curvature="0"
       class="Fingering"
       d="m 247.69381,244.60866 c -0.13941,0 -0.24887,0.11176 -0.24887,0.25002 0,0.13365 0.10946,0.24887 0.24542,0.24887 0.14171,0 0.25117,-0.11176 0.25117,-0.24887 0,-0.13826 -0.10946,-0.25002 -0.24772,-0.25002 m 0.083,1.12452 -0.88487,0.0691 -0.0173,0.16706 h 0.10946 c 0.18896,0 0.26269,0.0415 0.26269,0.14171 0,0.0461 -0.009,0.0979 -0.0415,0.20395 l -0.26731,0.89868 c -0.0864,0.29266 -0.10139,0.35833 -0.10139,0.46433 0,0.1613 0.13826,0.28573 0.31339,0.28573 0.39635,0 0.66826,-0.41017 0.86182,-0.70858 l -0.14401,-0.0795 c -0.2385,0.36409 -0.43207,0.55765 -0.55536,0.55765 -0.0472,0 -0.0795,-0.0415 -0.0795,-0.0968 0,-0.0449 0.0173,-0.13019 0.0553,-0.25809 l 0.48853,-1.64529"
       id="path274"
       style="stroke-width:0.115217" />
    <path
       inkscape:connector-curvature="0"
       class="Fingering"
       d="m 276.59597,245.73318 -0.83878,0.0691 -0.0138,0.16706 h 0.11176 c 0.1832,0 0.25694,0.0415 0.25694,0.14633 0,0.0415 -0.015,0.11061 -0.038,0.19933 l -0.47008,1.58422 h 0.4021 l 0.18896,-0.64982 c 0.20739,-0.70628 0.62678,-1.23858 0.97243,-1.23858 0.11982,0 0.19357,0.0633 0.19357,0.17859 0,0.0933 -0.0369,0.28573 -0.0933,0.46086 l -0.36755,1.24895 h 0.39981 l 0.19817,-0.66826 c 0.11522,-0.38251 0.23044,-0.6406 0.37791,-0.83877 0.16591,-0.23044 0.40211,-0.38137 0.57608,-0.38137 0.11522,0 0.17975,0.0599 0.17975,0.16936 0,0.0645 -0.0231,0.16592 -0.0645,0.29496 l -0.212,0.65559 c -0.12443,0.35832 -0.12789,0.38713 -0.12789,0.51502 0,0.19356 0.14172,0.32145 0.35833,0.32145 0.15323,0 0.30071,-0.0737 0.45741,-0.21891 0.0968,-0.0933 0.16014,-0.17628 0.3491,-0.45165 l -0.14286,-0.0979 c -0.2385,0.36063 -0.41018,0.5346 -0.52885,0.5346 -0.0507,0 -0.0968,-0.0496 -0.0968,-0.11522 0,-0.0415 0.0138,-0.091 0.0553,-0.22698 l 0.29035,-0.89293 c 0.0323,-0.10023 0.0553,-0.24426 0.0553,-0.34564 0,-0.24426 -0.17974,-0.41939 -0.42861,-0.41939 -0.32722,0 -0.62217,0.21314 -0.88948,0.64982 0.0184,-0.0876 0.0276,-0.16476 0.0276,-0.22122 0,-0.24426 -0.19472,-0.4286 -0.44704,-0.4286 -0.2915,0 -0.50235,0.16245 -0.82611,0.62332 l 0.13481,-0.62332"
       id="path278"
       style="stroke-width:0.115217" />
    <path
       inkscape:connector-curvature="0"
       class="Fingering"
       d="m 192.27795,245.73318 -0.83878,0.0691 -0.0138,0.16706 h 0.11176 c 0.1832,0 0.25693,0.0415 0.25693,0.14633 0,0.0415 -0.0138,0.11061 -0.038,0.19933 l -0.46893,1.58422 h 0.40096 l 0.18895,-0.64982 c 0.20739,-0.70628 0.62678,-1.23858 0.97243,-1.23858 0.11983,0 0.19472,0.0633 0.19472,0.17859 0,0.0933 -0.038,0.28573 -0.0945,0.46086 l -0.36639,1.24895 h 0.39865 l 0.19818,-0.66826 c 0.11521,-0.38251 0.23042,-0.6406 0.37791,-0.83877 0.16591,-0.23044 0.4021,-0.38137 0.57608,-0.38137 0.11522,0 0.18089,0.0599 0.18089,0.16936 0,0.0645 -0.0242,0.16592 -0.0657,0.29496 l -0.212,0.65559 c -0.12443,0.35832 -0.12789,0.38713 -0.12789,0.51502 0,0.19356 0.14286,0.32145 0.35832,0.32145 0.15324,0 0.30072,-0.0737 0.45741,-0.21891 0.0968,-0.0933 0.16016,-0.17628 0.34911,-0.45165 l -0.14172,-0.0979 c -0.23964,0.36063 -0.41132,0.5346 -0.52999,0.5346 -0.0507,0 -0.0968,-0.0496 -0.0968,-0.11522 0,-0.0415 0.0138,-0.091 0.0553,-0.22698 l 0.29034,-0.89293 c 0.0323,-0.10023 0.0553,-0.24426 0.0553,-0.34564 0,-0.24426 -0.17973,-0.41939 -0.4286,-0.41939 -0.32722,0 -0.62217,0.21314 -0.88832,0.64982 0.0173,-0.0876 0.0265,-0.16476 0.0265,-0.22122 0,-0.24426 -0.19471,-0.4286 -0.44704,-0.4286 -0.2915,0 -0.50119,0.16245 -0.8261,0.62332 l 0.1348,-0.62332"
       id="path280"
       style="stroke-width:0.115217" />
    <path
       inkscape:connector-curvature="0"
       class="Fingering"
       d="m 61.17425,178.90345 -0.838895,0.0684 -0.01441,0.16741 h 0.111646 c 0.183658,0 0.257393,0.0415 0.257393,0.14586 0,0.0414 -0.01441,0.11165 -0.03783,0.19979 l -0.469857,1.58424 h 0.401416 l 0.189072,-0.64983 c 0.207043,-0.7057 0.626551,-1.23858 0.972197,-1.23858 0.120519,0 0.194373,0.0629 0.194373,0.17813 0,0.0937 -0.03783,0.28631 -0.09355,0.46086 l -0.367309,1.24942 h 0.399687 l 0.198058,-0.66792 c 0.115218,-0.38344 0.230435,-0.64084 0.378024,-0.83889 0.165567,-0.23044 0.401417,-0.3816 0.576082,-0.3816 0.115225,0 0.179973,0.0593 0.179973,0.16914 0,0.0649 -0.02341,0.16568 -0.06476,0.2953 l -0.212465,0.65523 c -0.124203,0.35833 -0.127775,0.38713 -0.127775,0.51492 0,0.19447 0.142175,0.32225 0.358211,0.32225 0.15301,0 0.300598,-0.0739 0.457292,-0.2196 0.09725,-0.0937 0.160153,-0.17651 0.349225,-0.45188 l -0.142175,-0.0973 c -0.239421,0.36006 -0.410521,0.53473 -0.529311,0.53473 -0.05048,0 -0.09724,-0.0505 -0.09724,-0.11522 0,-0.0415 0.01441,-0.0918 0.0559,-0.22686 l 0.289777,-0.89293 c 0.03234,-0.10082 0.0559,-0.24484 0.0559,-0.34565 0,-0.24484 -0.180086,-0.4195 -0.428493,-0.4195 -0.327675,0 -0.622859,0.21245 -0.889357,0.64993 0.018,-0.0883 0.02693,-0.16568 0.02693,-0.22145 0,-0.24483 -0.194374,-0.42848 -0.446465,-0.42848 -0.291612,0 -0.502227,0.1621 -0.826218,0.62297 l 0.134919,-0.62297"
       id="path282"
       style="stroke-width:0.115217" />
    <path
       inkscape:connector-curvature="0"
       class="Fingering"
       d="m 173.38699,244.60866 c -0.13826,0 -0.24886,0.11176 -0.24886,0.25002 0,0.13365 0.1106,0.24887 0.2454,0.24887 0.14173,0 0.25118,-0.11176 0.25118,-0.24887 0,-0.13826 -0.10945,-0.25002 -0.24772,-0.25002 m 0.083,1.12452 -0.88372,0.0691 -0.0184,0.16706 h 0.10946 c 0.18895,0 0.26269,0.0415 0.26269,0.14171 0,0.0461 -0.008,0.0979 -0.0415,0.20395 l -0.2673,0.89868 c -0.0864,0.29266 -0.10139,0.35833 -0.10139,0.46433 0,0.1613 0.13826,0.28573 0.31339,0.28573 0.39635,0 0.66826,-0.41017 0.86183,-0.70858 l -0.14403,-0.0795 c -0.2385,0.36409 -0.43206,0.55765 -0.55535,0.55765 -0.0472,0 -0.0795,-0.0415 -0.0795,-0.0968 0,-0.0449 0.0173,-0.13019 0.0553,-0.25809 l 0.48852,-1.64529"
       id="path284"
       style="stroke-width:0.115217" />
    <path
       inkscape:connector-curvature="0"
       class="Fingering"
       d="m 29.950357,178.90345 -0.839008,0.0684 -0.01441,0.16741 h 0.111646 c 0.183651,0 0.257505,0.0415 0.257505,0.14586 0,0.0414 -0.01441,0.11165 -0.0379,0.19979 l -0.469857,1.58424 h 0.401529 l 0.18896,-0.64983 c 0.207043,-0.7057 0.62655,-1.23858 0.972197,-1.23858 0.120631,0 0.194373,0.0629 0.194373,0.17813 0,0.0937 -0.03783,0.28631 -0.09356,0.46086 l -0.367316,1.24942 h 0.399687 l 0.198064,-0.66792 c 0.115211,-0.38344 0.230436,-0.64084 0.378025,-0.83889 0.165679,-0.23044 0.401416,-0.3816 0.576088,-0.3816 0.115211,0 0.18008,0.0593 0.18008,0.16914 0,0.0649 -0.02348,0.16568 -0.0649,0.2953 l -0.212457,0.65523 c -0.124204,0.35833 -0.127775,0.38713 -0.127775,0.51492 0,0.19447 0.142174,0.32225 0.358203,0.32225 0.15301,0 0.300725,-0.0739 0.4573,-0.2196 0.09724,-0.0937 0.160265,-0.17651 0.349225,-0.45188 l -0.142182,-0.0973 c -0.239414,0.36006 -0.410515,0.53473 -0.529304,0.53473 -0.05034,0 -0.09724,-0.0505 -0.09724,-0.11522 0,-0.0415 0.01441,-0.0918 0.0559,-0.22686 l 0.289771,-0.89293 c 0.03248,-0.10082 0.0559,-0.24484 0.0559,-0.34565 0,-0.24484 -0.180086,-0.4195 -0.428493,-0.4195 -0.327675,0 -0.622859,0.21245 -0.889357,0.64993 0.01807,-0.0883 0.02707,-0.16568 0.02707,-0.22145 0,-0.24483 -0.194486,-0.42848 -0.446465,-0.42848 -0.291732,0 -0.502347,0.1621 -0.826337,0.62297 l 0.135038,-0.62297"
       id="path286"
       style="stroke-width:0.115217" />
    <path
       inkscape:connector-curvature="0"
       class="Fingering"
       d="m 152.23432,245.73318 -0.83878,0.0691 -0.015,0.16706 h 0.11176 c 0.18319,0 0.25693,0.0415 0.25693,0.14633 0,0.0415 -0.0138,0.11061 -0.0369,0.19933 l -0.47009,1.58422 h 0.40095 l 0.18896,-0.64982 c 0.2074,-0.70628 0.62679,-1.23858 0.97243,-1.23858 0.12098,0 0.19472,0.0633 0.19472,0.17859 0,0.0933 -0.038,0.28573 -0.0933,0.46086 l -0.36754,1.24895 h 0.3998 l 0.19817,-0.66826 c 0.11522,-0.38251 0.23044,-0.6406 0.37792,-0.83877 0.16476,-0.23044 0.40095,-0.38137 0.57609,-0.38137 0.11521,0 0.17973,0.0599 0.17973,0.16936 0,0.0645 -0.0231,0.16592 -0.0645,0.29496 l -0.21314,0.65559 c -0.12328,0.35832 -0.12789,0.38713 -0.12789,0.51502 0,0.19356 0.14286,0.32145 0.35832,0.32145 0.15324,0 0.30072,-0.0737 0.45742,-0.21891 0.0979,-0.0933 0.16014,-0.17628 0.34909,-0.45165 l -0.14171,-0.0979 c -0.23965,0.36063 -0.41017,0.5346 -0.52884,0.5346 -0.0507,0 -0.0979,-0.0496 -0.0979,-0.11522 0,-0.0415 0.015,-0.091 0.0565,-0.22698 l 0.28919,-0.89293 c 0.0323,-0.10023 0.0565,-0.24426 0.0565,-0.34564 0,-0.24426 -0.18089,-0.41939 -0.42861,-0.41939 -0.32836,0 -0.62332,0.21314 -0.88947,0.64982 0.0173,-0.0876 0.0265,-0.16476 0.0265,-0.22122 0,-0.24426 -0.19357,-0.4286 -0.4459,-0.4286 -0.29149,0 -0.50234,0.16245 -0.8261,0.62332 l 0.1348,-0.62332"
       id="path288"
       style="stroke-width:0.115217" />
    <path
       inkscape:connector-curvature="0"
       class="Fingering"
       d="m 129.11375,244.60866 c -0.13941,0 -0.24887,0.11176 -0.24887,0.25002 0,0.13365 0.10946,0.24887 0.24542,0.24887 0.14171,0 0.25117,-0.11176 0.25117,-0.24887 0,-0.13826 -0.10946,-0.25002 -0.24772,-0.25002 m 0.083,1.12452 -0.88487,0.0691 -0.0173,0.16706 h 0.10945 c 0.18896,0 0.2627,0.0415 0.2627,0.14171 0,0.0461 -0.009,0.0979 -0.0415,0.20395 l -0.26846,0.89868 c -0.0864,0.29266 -0.10023,0.35833 -0.10023,0.46433 0,0.1613 0.13826,0.28573 0.31339,0.28573 0.39634,0 0.66826,-0.41017 0.86182,-0.70858 l -0.14402,-0.0795 c -0.23965,0.36409 -0.43206,0.55765 -0.5565,0.55765 -0.0461,0 -0.0783,-0.0415 -0.0783,-0.0968 0,-0.0449 0.0173,-0.13019 0.0553,-0.25809 l 0.48852,-1.64529"
       id="path290"
       style="stroke-width:0.115217" />
    <path
       inkscape:connector-curvature="0"
       class="Fingering"
       d="m 29.110315,118.27369 -0.839008,0.0691 -0.01441,0.16707 h 0.111646 c 0.183651,0 0.257505,0.0415 0.257505,0.14632 0,0.0404 -0.01441,0.11061 -0.0379,0.19933 l -0.469857,1.58423 h 0.401529 l 0.18896,-0.64982 c 0.207043,-0.70628 0.62655,-1.23858 0.972197,-1.23858 0.120631,0 0.194373,0.0634 0.194373,0.17858 0,0.0933 -0.03783,0.28574 -0.09356,0.46087 l -0.367316,1.24895 h 0.399687 l 0.198064,-0.66826 c 0.115211,-0.38367 0.230436,-0.6406 0.378025,-0.83878 0.165679,-0.23043 0.401416,-0.38136 0.576088,-0.38136 0.115211,0 0.18008,0.0588 0.18008,0.16937 0,0.0645 -0.02348,0.16591 -0.0649,0.29495 l -0.212457,0.65558 c -0.124204,0.35833 -0.127775,0.38713 -0.127775,0.51503 0,0.19356 0.142174,0.32145 0.358203,0.32145 0.15301,0 0.300725,-0.0737 0.4573,-0.21891 0.09724,-0.0945 0.160265,-0.17628 0.349225,-0.45166 l -0.142182,-0.0979 c -0.239414,0.36063 -0.410515,0.5346 -0.529304,0.5346 -0.05034,0 -0.09724,-0.0507 -0.09724,-0.11521 0,-0.0415 0.01441,-0.091 0.0559,-0.22697 l 0.289771,-0.89293 c 0.03248,-0.10024 0.0559,-0.24427 0.0559,-0.34565 0,-0.24426 -0.180086,-0.4194 -0.428493,-0.4194 -0.327675,0 -0.622859,0.21315 -0.889357,0.64982 0.01807,-0.0876 0.02707,-0.16475 0.02707,-0.22121 0,-0.24426 -0.194486,-0.42861 -0.446465,-0.42861 -0.291732,0 -0.502347,0.16246 -0.826337,0.62333 l 0.135038,-0.62333"
       id="path292"
       style="stroke-width:0.115217" />
    <path
       inkscape:connector-curvature="0"
       class="Fingering"
       d="m 107.96108,245.73318 -0.83878,0.0691 -0.015,0.16706 h 0.11175 c 0.1832,0 0.25693,0.0415 0.25693,0.14633 0,0.0415 -0.0138,0.11061 -0.0369,0.19933 l -0.47008,1.58422 h 0.40095 l 0.18895,-0.64982 c 0.2074,-0.70628 0.62678,-1.23858 0.97244,-1.23858 0.12097,0 0.19471,0.0633 0.19471,0.17859 0,0.0933 -0.038,0.28573 -0.0945,0.46086 l -0.36638,1.24895 h 0.39979 l 0.19703,-0.66826 c 0.11522,-0.38251 0.23043,-0.6406 0.37906,-0.83877 0.16476,-0.23044 0.40096,-0.38137 0.57609,-0.38137 0.11521,0 0.17974,0.0599 0.17974,0.16936 0,0.0645 -0.0231,0.16592 -0.0645,0.29496 l -0.21315,0.65559 c -0.12443,0.35832 -0.12789,0.38713 -0.12789,0.51502 0,0.19356 0.14287,0.32145 0.35832,0.32145 0.15325,0 0.30072,-0.0737 0.45742,-0.21891 0.0968,-0.0933 0.16015,-0.17628 0.3491,-0.45165 l -0.14172,-0.0979 c -0.23964,0.36063 -0.41017,0.5346 -0.52999,0.5346 -0.0496,0 -0.0968,-0.0496 -0.0968,-0.11522 0,-0.0415 0.015,-0.091 0.0553,-0.22698 l 0.29035,-0.89293 c 0.0323,-0.10023 0.0553,-0.24426 0.0553,-0.34564 0,-0.24426 -0.17973,-0.41939 -0.42745,-0.41939 -0.32837,0 -0.62332,0.21314 -0.88948,0.64982 0.0173,-0.0876 0.0265,-0.16476 0.0265,-0.22122 0,-0.24426 -0.19472,-0.4286 -0.44589,-0.4286 -0.2915,0 -0.50234,0.16245 -0.82726,0.62332 l 0.13596,-0.62332"
       id="path294"
       style="stroke-width:0.115217" />
    <path
       inkscape:connector-curvature="0"
       class="Fingering"
       d="m 45.852826,117.14918 c -0.138603,0 -0.248407,0.11176 -0.248407,0.25002 0,0.13365 0.109804,0.24887 0.244835,0.24887 0.142175,0 0.251978,-0.11176 0.251978,-0.24887 0,-0.13826 -0.109803,-0.25002 -0.248406,-0.25002 m 0.08285,1.12451 -0.88395,0.0691 -0.018,0.16707 h 0.109804 c 0.188959,0 0.262806,0.0415 0.262806,0.14172 0,0.0449 -0.009,0.0979 -0.04134,0.20393 l -0.26822,0.89869 c -0.08641,0.29265 -0.100818,0.35833 -0.100818,0.46433 0,0.1613 0.13861,0.28573 0.313163,0.28573 0.396115,0 0.667914,-0.41017 0.8624,-0.70858 l -0.144024,-0.0795 c -0.239421,0.36293 -0.432065,0.55764 -0.556268,0.55764 -0.0469,0 -0.07927,-0.0415 -0.07927,-0.0968 0,-0.0449 0.018,-0.1302 0.05576,-0.25809 l 0.48794,-1.6453"
       id="path296"
       style="stroke-width:0.115217" />
    <path
       inkscape:connector-curvature="0"
       class="Fingering"
       d="m 60.334208,118.27369 -0.838895,0.0691 -0.01441,0.16707 h 0.111646 c 0.183658,0 0.257393,0.0415 0.257393,0.14632 0,0.0404 -0.01441,0.11061 -0.03783,0.19933 l -0.469857,1.58423 h 0.401416 l 0.189072,-0.64982 c 0.207043,-0.70628 0.626551,-1.23858 0.972197,-1.23858 0.120519,0 0.194373,0.0634 0.194373,0.17858 0,0.0933 -0.03783,0.28574 -0.09355,0.46087 l -0.367309,1.24895 h 0.399687 l 0.198058,-0.66826 c 0.115218,-0.38367 0.230435,-0.6406 0.378024,-0.83878 0.165567,-0.23043 0.401417,-0.38136 0.576082,-0.38136 0.115225,0 0.179973,0.0588 0.179973,0.16937 0,0.0645 -0.02341,0.16591 -0.06476,0.29495 l -0.212465,0.65558 c -0.124203,0.35833 -0.127775,0.38713 -0.127775,0.51503 0,0.19356 0.142175,0.32145 0.358211,0.32145 0.15301,0 0.300598,-0.0737 0.457292,-0.21891 0.09725,-0.0945 0.160153,-0.17628 0.349225,-0.45166 l -0.142175,-0.0979 c -0.239421,0.36063 -0.410521,0.5346 -0.529311,0.5346 -0.05048,0 -0.09724,-0.0507 -0.09724,-0.11521 0,-0.0415 0.01441,-0.091 0.0559,-0.22697 l 0.289777,-0.89293 c 0.03234,-0.10024 0.0559,-0.24427 0.0559,-0.34565 0,-0.24426 -0.180086,-0.4194 -0.428493,-0.4194 -0.327675,0 -0.622859,0.21315 -0.889357,0.64982 0.018,-0.0876 0.02693,-0.16475 0.02693,-0.22121 0,-0.24426 -0.194374,-0.42861 -0.446465,-0.42861 -0.291612,0 -0.502227,0.16246 -0.826218,0.62333 l 0.134919,-0.62333"
       id="path298"
       style="stroke-width:0.115217" />
    <path
       inkscape:connector-curvature="0"
       class="Fingering"
       d="m 77.927267,245.73318 -0.838895,0.0691 -0.01441,0.16706 h 0.111646 c 0.183658,0 0.2574,0.0415 0.2574,0.14633 0,0.0415 -0.01441,0.11061 -0.03783,0.19933 l -0.469857,1.58422 h 0.401409 l 0.189079,-0.64982 c 0.207044,-0.70628 0.626544,-1.23858 0.972197,-1.23858 0.120512,0 0.194366,0.0633 0.194366,0.17859 0,0.0933 -0.03783,0.28573 -0.09356,0.46086 l -0.367309,1.24895 h 0.399687 l 0.198058,-0.66826 c 0.115218,-0.38251 0.230435,-0.6406 0.378024,-0.83877 0.165567,-0.23044 0.401417,-0.38137 0.576089,-0.38137 0.115211,0 0.179967,0.0599 0.179967,0.16936 0,0.0645 -0.02341,0.16592 -0.06476,0.29496 l -0.212458,0.65559 c -0.124203,0.35832 -0.127775,0.38713 -0.127775,0.51502 0,0.19356 0.142182,0.32145 0.358211,0.32145 0.15301,0 0.300605,-0.0737 0.457299,-0.21891 0.09724,-0.0933 0.160146,-0.17628 0.349218,-0.45165 l -0.142175,-0.0979 c -0.239421,0.36063 -0.410514,0.5346 -0.529311,0.5346 -0.05048,0 -0.09724,-0.0496 -0.09724,-0.11522 0,-0.0415 0.01441,-0.091 0.0559,-0.22698 L 80.3,246.49821 c 0.03241,-0.10023 0.0559,-0.24426 0.0559,-0.34564 0,-0.24426 -0.180093,-0.41939 -0.4285,-0.41939 -0.327675,0 -0.622859,0.21314 -0.889357,0.64982 0.018,-0.0876 0.02693,-0.16476 0.02693,-0.22122 0,-0.24426 -0.194374,-0.4286 -0.446465,-0.4286 -0.291612,0 -0.502234,0.16245 -0.826218,0.62332 l 0.134912,-0.62332"
       id="path300"
       style="stroke-width:0.115217" />
    <path
       inkscape:connector-curvature="0"
       class="Fingering"
       d="m 77.076831,117.14918 c -0.138603,0 -0.248407,0.11176 -0.248407,0.25002 0,0.13365 0.109804,0.24887 0.244836,0.24887 0.142174,0 0.251978,-0.11176 0.251978,-0.24887 0,-0.13826 -0.109804,-0.25002 -0.248407,-0.25002 m 0.08284,1.12451 -0.883943,0.0691 -0.01807,0.16707 h 0.109909 c 0.18896,0 0.262814,0.0415 0.262814,0.14172 0,0.0449 -0.009,0.0979 -0.04148,0.20393 l -0.268228,0.89869 c -0.08641,0.29265 -0.100811,0.35833 -0.100811,0.46433 0,0.1613 0.138603,0.28573 0.313276,0.28573 0.396115,0 0.667907,-0.41017 0.86228,-0.70858 l -0.144024,-0.0795 c -0.239414,0.36293 -0.432058,0.55764 -0.556268,0.55764 -0.04676,0 -0.07915,-0.0415 -0.07915,-0.0968 0,-0.0449 0.018,-0.1302 0.05576,-0.25809 l 0.48794,-1.6453"
       id="path302"
       style="stroke-width:0.115217" />
    <path
       inkscape:connector-curvature="0"
       class="Fingering"
       d="m 28.648434,245.73318 -0.839008,0.0691 -0.01441,0.16706 h 0.111646 c 0.183651,0 0.257505,0.0415 0.257505,0.14633 0,0.0415 -0.01441,0.11061 -0.0379,0.19933 l -0.469857,1.58422 h 0.401529 l 0.18896,-0.64982 c 0.207043,-0.70628 0.62655,-1.23858 0.972197,-1.23858 0.120631,0 0.194373,0.0633 0.194373,0.17859 0,0.0933 -0.03783,0.28573 -0.09356,0.46086 l -0.367316,1.24895 h 0.399687 l 0.198064,-0.66826 c 0.115211,-0.38251 0.230436,-0.6406 0.378025,-0.83877 0.165679,-0.23044 0.401416,-0.38137 0.576088,-0.38137 0.115211,0 0.18008,0.0599 0.18008,0.16936 0,0.0645 -0.02348,0.16592 -0.0649,0.29496 l -0.212457,0.65559 c -0.124204,0.35832 -0.127775,0.38713 -0.127775,0.51502 0,0.19356 0.142174,0.32145 0.358203,0.32145 0.15301,0 0.300725,-0.0737 0.4573,-0.21891 0.09724,-0.0933 0.160265,-0.17628 0.349225,-0.45165 l -0.142182,-0.0979 c -0.239414,0.36063 -0.410515,0.5346 -0.529304,0.5346 -0.05034,0 -0.09724,-0.0496 -0.09724,-0.11522 0,-0.0415 0.01441,-0.091 0.0559,-0.22698 l 0.289771,-0.89293 c 0.03248,-0.10023 0.0559,-0.24426 0.0559,-0.34564 0,-0.24426 -0.180086,-0.41939 -0.428493,-0.41939 -0.327675,0 -0.622859,0.21314 -0.889357,0.64982 0.01807,-0.0876 0.02707,-0.16476 0.02707,-0.22122 0,-0.24426 -0.194486,-0.4286 -0.446465,-0.4286 -0.291732,0 -0.502347,0.16245 -0.826337,0.62332 l 0.135038,-0.62332"
       id="path304"
       style="stroke-width:0.115217" />
  </g>
</svg>
