<?xml version="1.0" encoding="UTF-8" standalone="no"?>
<svg
   width="297mm"
   height="210mm"
   viewBox="0 0 297 210"
   version="1.1"
   id="svg958"
   sodipodi:docname="figure.svg"
   inkscape:version="1.2.2 (b0a8486541, 2022-12-01)"
   xmlns:inkscape="http://www.inkscape.org/namespaces/inkscape"
   xmlns:sodipodi="http://sodipodi.sourceforge.net/DTD/sodipodi-0.dtd"
   xmlns="http://www.w3.org/2000/svg"
   xmlns:svg="http://www.w3.org/2000/svg"
   xmlns:rdf="http://www.w3.org/1999/02/22-rdf-syntax-ns#"
   xmlns:cc="http://creativecommons.org/ns#"
   xmlns:dc="http://purl.org/dc/elements/1.1/">
  <sodipodi:namedview
     id="namedview43"
     pagecolor="#ffffff"
     bordercolor="#000000"
     borderopacity="0.25"
     inkscape:showpageshadow="2"
     inkscape:pageopacity="0.0"
     inkscape:pagecheckerboard="0"
     inkscape:deskcolor="#d1d1d1"
     inkscape:document-units="mm"
     showgrid="false"
     inkscape:zoom="0.30364087"
     inkscape:cx="505.53141"
     inkscape:cy="426.49067"
     inkscape:window-width="1280"
     inkscape:window-height="651"
     inkscape:window-x="0"
     inkscape:window-y="32"
     inkscape:window-maximized="1"
     inkscape:current-layer="svg958" />
  <defs
     id="defs952" />
  <metadata
     id="metadata955">
    <rdf:RDF>
      <cc:Work
         rdf:about="">
        <dc:format>image/svg+xml</dc:format>
        <dc:type
           rdf:resource="http://purl.org/dc/dcmitype/StillImage" />
        <dc:title />
      </cc:Work>
    </rdf:RDF>
  </metadata>
  <polyline
     id="polyline8"
     points="336.598,386.198 2764.6,386.198"
     class="StaffLines"
     style="fill:none;stroke:#000000;stroke-width:2.73;stroke-linejoin:bevel"
     transform="matrix(0.11398111,0,0,0.1677957,-30.894599,3.0998152)" />
  <polyline
     id="polyline10"
     points="336.598,410.998 2764.6,410.998"
     class="StaffLines"
     style="fill:none;stroke:#000000;stroke-width:2.73;stroke-linejoin:bevel"
     transform="matrix(0.11398111,0,0,0.1677957,-30.894599,3.0998152)" />
  <polyline
     id="polyline12"
     points="336.598,435.798 2764.6,435.798"
     class="StaffLines"
     style="fill:none;stroke:#000000;stroke-width:2.73;stroke-linejoin:bevel"
     transform="matrix(0.11398111,0,0,0.1677957,-30.894599,3.0998152)" />
  <polyline
     id="polyline14"
     points="336.598,460.598 2764.6,460.598"
     class="StaffLines"
     style="fill:none;stroke:#000000;stroke-width:2.73;stroke-linejoin:bevel"
     transform="matrix(0.11398111,0,0,0.1677957,-30.894599,3.0998152)" />
  <polyline
     id="polyline16"
     points="336.598,485.398 2764.6,485.398"
     class="StaffLines"
     style="fill:none;stroke:#000000;stroke-width:2.73;stroke-linejoin:bevel"
     transform="matrix(0.11398111,0,0,0.1677957,-30.894599,3.0998152)" />
  <polyline
     id="polyline32"
     points="2691.89,384.834 2691.89,486.762"
     class="BarLine"
     style="fill:none;stroke:#000000;stroke-width:4.46;stroke-linejoin:bevel"
     transform="matrix(0.15864632,0,0,0.1677957,-142.46356,3.0998152)" />
  <polyline
     id="polyline34"
     points="862.974,992.434 862.974,1094.36"
     class="BarLine"
     style="fill:none;stroke:#000000;stroke-width:4.46;stroke-linejoin:bevel"
     transform="matrix(-0.15864632,0,0,0.1677957,238.28784,-37.298219)" />
  <polyline
     id="polyline36"
     points="950.333,384.834 950.333,486.762"
     class="BarLine"
     style="fill:none;stroke:#000000;stroke-width:4.46;stroke-linejoin:bevel"
     transform="matrix(0.15864632,0,0,0.1677957,-50.796119,3.0998152)" />
  <polyline
     id="polyline38"
     points="1632.81,992.434 1632.81,1094.36"
     class="BarLine"
     style="fill:none;stroke:#000000;stroke-width:4.46;stroke-linejoin:bevel"
     transform="matrix(0.15864632,0,0,0.1677957,-57.523809,-36.576825)" />
  <polyline
     id="polyline40"
     points="1665.21,384.834 1665.21,486.762"
     class="BarLine"
     style="fill:none;stroke:#000000;stroke-width:4.46;stroke-linejoin:bevel"
     transform="matrix(0.15864632,0,0,0.1677957,-67.020446,3.0998152)" />
  <polyline
     id="polyline42"
     points="1045.36,439.965 1045.36,510.198"
     class="Stem"
     style="fill:none;stroke:#000000;stroke-width:2.48;stroke-linejoin:bevel"
     transform="matrix(0.15864632,0,0,0.1677957,-19.969903,3.0998152)" />
  <polyline
     id="polyline44"
     points="536.773,439.965 536.773,510.198"
     class="Stem"
     style="fill:none;stroke:#000000;stroke-width:2.48;stroke-linejoin:bevel"
     transform="matrix(0.15864632,0,0,0.1677957,-28.082067,3.0998152)" />
  <path
     id="path46"
     d="m 149.02768,74.027125 c -1.52703,0 -3.35164,1.349831 -3.35164,2.897345 0,0.715206 0.48689,1.513673 1.76309,1.513673 1.63528,0 3.35166,-1.414848 3.35166,-2.879118 0,-0.983131 -0.78688,-1.5319 -1.76311,-1.5319 m -2.17132,3.628166 c -0.51885,0 -0.6295,-0.447349 -0.6295,-0.59819 0,-0.816676 2.64345,-2.247122 3.38361,-2.247122 0.37868,0 0.62951,0.234067 0.62951,0.598189 0,0.832257 -2.66067,2.247123 -3.38362,2.247123"
     class="Note"
     style="stroke-width:0.161852" />
  <path
     id="path48"
     d="m 56.878283,76.92447 c 0,0.715206 0.486889,1.513673 1.763112,1.513673 1.635258,0 3.351647,-1.414848 3.351647,-2.879118 0,-0.983131 -0.78689,-1.5319 -1.76311,-1.5319 -1.527047,0 -3.351649,1.365429 -3.351649,2.897345"
     class="Note"
     style="stroke-width:0.161852" />
  <path
     id="path50"
     d="m 236.0735,73.962106 c -2.17133,0 -2.94346,1.165168 -2.94346,2.247124 0,1.081939 0.77213,2.247122 2.94346,2.247122 2.17131,0 2.92622,-1.165183 2.92622,-2.247122 0,-1.081956 -0.75491,-2.247124 -2.92622,-2.247124 m 0.12539,3.96106 c -0.44017,0 -0.74016,-0.132633 -0.94426,-0.54877 -0.20409,-0.41612 -0.48689,-1.498076 -0.5041,-1.932421 -0.032,-0.449944 0.1254,-0.715224 0.5041,-0.847872 0.18935,-0.06761 0.44017,-0.101344 0.69343,-0.101344 0.42296,0 0.70821,0.101344 0.92706,0.55138 0.22131,0.43175 0.52131,1.51369 0.52131,1.929827 0,0.816659 -0.56804,0.949307 -1.19754,0.949307"
     class="Note"
     style="stroke-width:0.161852" />
  <path
     id="path84"
     d="m 58.957614,140.5419 c -0.01471,-0.0162 -0.04672,-0.0494 -0.09344,-0.11448 l -1.809832,-2.36417 c -0.0172,-0.0182 -0.03197,-0.0676 -0.03197,-0.10144 0,-0.0494 0.01471,-0.11448 0.03197,-0.14821 l 1.603279,-2.5644 c 0.0172,-0.0339 0.03197,-0.0834 0.03197,-0.11707 v -0.14819 c 0,-0.0494 -0.01472,-0.10133 -0.04671,-0.13264 l -2.55,-3.64635 c 0,0 -0.06148,-0.10154 -0.157381,-0.10154 -0.04672,0 -0.07869,0 -0.1254,0.0519 -0.06392,0.0494 -0.07869,0.11447 -0.07869,0.16644 0,0.0989 0.04671,0.18207 0.04671,0.18207 l 1.197552,1.73214 c 0.0295,0.0494 0.04671,0.11448 0.04671,0.19767 0,0.0676 -0.0172,0.15079 -0.04671,0.20026 l -1.590989,2.56444 c -0.01472,0.0339 -0.03197,0.0989 -0.03197,0.13263 v 0.15079 c 0,0.0494 0.0172,0.0989 0.04917,0.13264 l 1.760665,2.31473 c -0.06148,-0.0184 -0.204107,-0.0519 -0.393451,-0.0519 -0.80164,0 -1.431152,0.69961 -1.431152,1.5501 0,0.23147 0.04672,0.46553 0.172131,0.64759 0.331967,0.53317 1.512294,2.1145 1.512294,2.1145 0,0 0.07869,0.10133 0.189357,0.10133 0.0295,0 0.06148,0 0.09342,-0.0339 0.07869,-0.0676 0.110654,-0.13263 0.110654,-0.2003 0,-0.0676 -0.03197,-0.11707 -0.04672,-0.15079 -0.04917,-0.0834 -0.550831,-1.04815 -0.550831,-1.04815 0,0 -0.110651,-0.23406 -0.110651,-0.53315 0,-0.53317 0.376235,-0.96493 0.880332,-0.96493 0.204102,0 0.378683,0.0676 0.504096,0.1508 l 0.61476,0.41613 c 0,0 0.06148,0.0312 0.1254,0.0312 0.06148,0 0.110668,-0.0162 0.157374,-0.0834 0.03197,-0.0494 0.04672,-0.099 0.04672,-0.14821 0,-0.0494 -0.01471,-0.0832 -0.04672,-0.13262 l -0.03197,-0.0519"
     class="Rest"
     style="stroke-width:0.161852" />
  <path
     id="path86"
     d="m 145.92935,137.61334 c 0,0.23408 0,0.23408 0.22129,0.23408 h 4.6746 c 0.21886,0 0.21886,0 0.21886,-0.23408 v -1.79717 c 0,-0.23406 0,-0.23406 -0.21886,-0.23406 h -4.6746 c -0.22129,0 -0.22129,0 -0.22129,0.23406 v 1.79717"
     class="Rest"
     style="stroke-width:0.161852" />
  <path
     id="path88"
     d="m 240.48824,133.89593 c -0.12785,0 -0.2213,0.0989 -0.2213,0.23407 v 1.79718 c 0,0.13263 0.0935,0.23148 0.2213,0.23148 h 4.6746 c 0.12541,0 0.21886,-0.0989 0.21886,-0.23148 V 134.13 c 0,-0.13523 -0.0935,-0.23407 -0.21886,-0.23407 h -4.6746"
     class="Rest"
     style="stroke-width:0.161852" />
  <polyline
     id="polyline32-3"
     points="2691.89,384.834 2691.89,486.762"
     class="BarLine"
     style="fill:none;stroke:#000000;stroke-width:4.46;stroke-linejoin:bevel"
     transform="matrix(0.15864632,0,0,0.1677957,-419.71537,3.1156869)" />
  <polyline
     id="polyline8-6"
     points="336.598,386.198 2764.6,386.198"
     class="StaffLines"
     style="fill:none;stroke:#000000;stroke-width:2.73;stroke-linejoin:bevel"
     transform="matrix(0.11398111,0,0,0.1677957,-30.067646,64.791689)" />
  <polyline
     id="polyline10-7"
     points="336.598,410.998 2764.6,410.998"
     class="StaffLines"
     style="fill:none;stroke:#000000;stroke-width:2.73;stroke-linejoin:bevel"
     transform="matrix(0.11398111,0,0,0.1677957,-30.067646,64.791689)" />
  <polyline
     id="polyline12-5"
     points="336.598,435.798 2764.6,435.798"
     class="StaffLines"
     style="fill:none;stroke:#000000;stroke-width:2.73;stroke-linejoin:bevel"
     transform="matrix(0.11398111,0,0,0.1677957,-30.067646,64.791689)" />
  <polyline
     id="polyline14-3"
     points="336.598,460.598 2764.6,460.598"
     class="StaffLines"
     style="fill:none;stroke:#000000;stroke-width:2.73;stroke-linejoin:bevel"
     transform="matrix(0.11398111,0,0,0.1677957,-30.067646,64.791689)" />
  <polyline
     id="polyline16-5"
     points="336.598,485.398 2764.6,485.398"
     class="StaffLines"
     style="fill:none;stroke:#000000;stroke-width:2.73;stroke-linejoin:bevel"
     transform="matrix(0.11398111,0,0,0.1677957,-30.067646,64.791689)" />
  <polyline
     id="polyline32-6"
     points="2691.89,384.834 2691.89,486.762"
     class="BarLine"
     style="fill:none;stroke:#000000;stroke-width:4.46;stroke-linejoin:bevel"
     transform="matrix(0.15864632,0,0,0.1677957,-141.63659,64.791689)" />
  <polyline
     id="polyline32-3-2"
     points="2691.89,384.834 2691.89,486.762"
     class="BarLine"
     style="fill:none;stroke:#000000;stroke-width:4.46;stroke-linejoin:bevel"
     transform="matrix(0.15864632,0,0,0.1677957,-418.8884,64.807563)" />
  <text
     id="text945"
     y="58.679802"
     x="7.4653735"
     style="font-style:normal;font-weight:normal;font-size:16.6856px;line-height:1.25;font-family:sans-serif;letter-spacing:0px;word-spacing:0px;fill:#000000;fill-opacity:1;stroke:none;stroke-width:0.41714"
     xml:space="preserve"
     transform="scale(0.9723544,1.0284316)"><tspan
       style="font-size:5.56187px;stroke-width:0.41714"
       y="58.679802"
       x="7.4653735"
       id="tspan943">La noire vaut 1 temps</tspan></text>
  <text
     id="text945-9"
     y="58.974201"
     x="102.30064"
     style="font-style:normal;font-weight:normal;font-size:16.6856px;line-height:1.25;font-family:sans-serif;letter-spacing:0px;word-spacing:0px;fill:#000000;fill-opacity:1;stroke:none;stroke-width:0.41714"
     xml:space="preserve"
     transform="scale(0.9723544,1.0284316)"><tspan
       style="font-size:5.56187px;stroke-width:0.41714"
       y="58.974201"
       x="102.30064"
       id="tspan943-1">La blanche vaut 2 temps</tspan></text>
  <text
     id="text945-2"
     y="58.974201"
     x="202.49268"
     style="font-style:normal;font-weight:normal;font-size:16.6856px;line-height:1.25;font-family:sans-serif;letter-spacing:0px;word-spacing:0px;fill:#000000;fill-opacity:1;stroke:none;stroke-width:0.41714"
     xml:space="preserve"
     transform="scale(0.9723544,1.0284316)"><tspan
       style="font-size:5.56187px;stroke-width:0.41714"
       y="58.974201"
       x="202.49268"
       id="tspan943-7">La ronde vaut 4 temps</tspan></text>
  <text
     id="text945-0"
     y="118.99022"
     x="207.70067"
     style="font-style:normal;font-weight:normal;font-size:16.6856px;line-height:1.25;font-family:sans-serif;letter-spacing:0px;word-spacing:0px;fill:#000000;fill-opacity:1;stroke:none;stroke-width:0.41714"
     xml:space="preserve"
     transform="scale(0.9723544,1.0284316)"><tspan
       style="font-size:5.56187px;stroke-width:0.41714"
       y="118.99022"
       x="207.70067"
       id="tspan943-9">La pause vaut 4 temps</tspan></text>
  <text
     id="text945-3"
     y="119.48624"
     x="103.29269"
     style="font-style:normal;font-weight:normal;font-size:16.6856px;line-height:1.25;font-family:sans-serif;letter-spacing:0px;word-spacing:0px;fill:#000000;fill-opacity:1;stroke:none;stroke-width:0.41714"
     xml:space="preserve"
     transform="scale(0.9723544,1.0284316)"><tspan
       style="font-size:5.56187px;stroke-width:0.41714"
       y="119.48624"
       x="103.29269"
       id="tspan943-6">La demi-pause vaut 2 temps</tspan></text>
  <text
     id="text945-06"
     y="119.73425"
     x="7.316648"
     style="font-style:normal;font-weight:normal;font-size:16.6856px;line-height:1.25;font-family:sans-serif;letter-spacing:0px;word-spacing:0px;fill:#000000;fill-opacity:1;stroke:none;stroke-width:0.41714"
     xml:space="preserve"
     transform="scale(0.9723544,1.0284316)"><tspan
       style="font-size:5.56187px;stroke-width:0.41714"
       y="119.73425"
       x="7.316648"
       id="tspan943-2">Le soupir vaut 1 temps</tspan></text>
</svg>
