<?xml version="1.0" encoding="UTF-8" standalone="no"?>
<svg
   width="296.92599mm"
   height="210.058mm"
   viewBox="0 0 4208.4 2977.2"
   version="1.2"
   id="svg32"
   sodipodi:docname="la_ronde.svg"
   inkscape:version="1.2.2 (b0a8486541, 2022-12-01)"
   xmlns:inkscape="http://www.inkscape.org/namespaces/inkscape"
   xmlns:sodipodi="http://sodipodi.sourceforge.net/DTD/sodipodi-0.dtd"
   xmlns="http://www.w3.org/2000/svg"
   xmlns:svg="http://www.w3.org/2000/svg"
   xmlns:rdf="http://www.w3.org/1999/02/22-rdf-syntax-ns#"
   xmlns:cc="http://creativecommons.org/ns#"
   xmlns:dc="http://purl.org/dc/elements/1.1/">
  <defs
     id="defs36">
    <marker
       style="overflow:visible"
       id="TriangleStart"
       refX="0"
       refY="0"
       orient="auto-start-reverse"
       inkscape:stockid="TriangleStart"
       markerWidth="5.3244081"
       markerHeight="6.155385"
       viewBox="0 0 5.3244081 6.1553851"
       inkscape:isstock="true"
       inkscape:collect="always"
       preserveAspectRatio="xMidYMid">
      <path
         transform="scale(0.5)"
         style="fill:context-stroke;fill-rule:evenodd;stroke:context-stroke;stroke-width:1pt"
         d="M 5.77,0 -2.88,5 V -5 Z"
         id="path135" />
    </marker>
    <marker
       style="overflow:visible"
       id="TriangleStart-3"
       refX="0"
       refY="0"
       orient="auto-start-reverse"
       inkscape:stockid="TriangleStart"
       markerWidth="5.3244081"
       markerHeight="6.155385"
       viewBox="0 0 5.3244081 6.1553851"
       inkscape:isstock="true"
       inkscape:collect="always"
       preserveAspectRatio="xMidYMid">
      <path
         transform="scale(0.5)"
         style="fill:context-stroke;fill-rule:evenodd;stroke:context-stroke;stroke-width:1pt"
         d="M 5.77,0 -2.88,5 V -5 Z"
         id="path135-6" />
    </marker>
  </defs>
  <sodipodi:namedview
     id="namedview34"
     pagecolor="#ffffff"
     bordercolor="#000000"
     borderopacity="0.25"
     inkscape:showpageshadow="2"
     inkscape:pageopacity="0.0"
     inkscape:pagecheckerboard="0"
     inkscape:deskcolor="#d1d1d1"
     inkscape:document-units="mm"
     showgrid="false"
     inkscape:zoom="0.42949815"
     inkscape:cx="394.64663"
     inkscape:cy="376.02024"
     inkscape:window-width="1280"
     inkscape:window-height="651"
     inkscape:window-x="0"
     inkscape:window-y="32"
     inkscape:window-maximized="1"
     inkscape:current-layer="svg32" />
  <title
     id="title2">Partition sans titre</title>
  <desc
     id="desc4">Generated by MuseScore Studio 4.5.2</desc>
  <polyline
     class="StaffLines"
     fill="none"
     stroke="#000000"
     stroke-width="2.73"
     stroke-linejoin="bevel"
     points="336.598,634.198 909.426,634.198"
     id="polyline6"
     transform="matrix(6.4617946,0,0,7.8140698,-1901.321,-3922.42)" />
  <polyline
     class="StaffLines"
     fill="none"
     stroke="#000000"
     stroke-width="2.73"
     stroke-linejoin="bevel"
     points="336.598,658.998 909.426,658.998"
     id="polyline8"
     transform="matrix(6.4617946,0,0,7.8140698,-1901.321,-3922.42)" />
  <polyline
     class="StaffLines"
     fill="none"
     stroke="#000000"
     stroke-width="2.73"
     stroke-linejoin="bevel"
     points="336.598,683.798 909.426,683.798"
     id="polyline10"
     transform="matrix(6.4617946,0,0,7.8140698,-1901.321,-3922.42)" />
  <polyline
     class="StaffLines"
     fill="none"
     stroke="#000000"
     stroke-width="2.73"
     stroke-linejoin="bevel"
     points="336.598,708.598 909.426,708.598"
     id="polyline12"
     transform="matrix(6.4617946,0,0,7.8140698,-1901.321,-3922.42)" />
  <polyline
     class="StaffLines"
     fill="none"
     stroke="#000000"
     stroke-width="2.73"
     stroke-linejoin="bevel"
     points="336.598,733.398 909.426,733.398"
     id="polyline14"
     transform="matrix(6.4617946,0,0,7.8140698,-1901.321,-3922.42)" />
  <polyline
     class="BarLine"
     fill="none"
     stroke="#000000"
     stroke-width="4.46"
     stroke-linejoin="bevel"
     points="698.306,632.834 698.306,734.762"
     id="polyline16"
     transform="matrix(6.4617946,0,0,7.8140698,-1901.321,-3922.42)" />
  <polyline
     class="BarLine"
     fill="none"
     stroke="#000000"
     stroke-width="4.46"
     stroke-linejoin="bevel"
     points="884.378,632.834 884.378,734.762"
     id="polyline18"
     transform="matrix(6.4617946,0,0,7.8140698,-1901.321,-3922.42)" />
  <polyline
     class="BarLine"
     fill="none"
     stroke="#000000"
     stroke-width="13.64"
     stroke-linejoin="bevel"
     points="902.606,632.834 902.606,734.762"
     id="polyline20"
     transform="matrix(6.4617946,0,0,7.8140698,-1901.321,-3922.42)" />
  <path
     class="Note"
     d="m 1663.5959,1315.4521 c -88.4391,0 -119.8887,54.2613 -119.8887,104.6465 0,50.385 31.4496,104.6463 119.8887,104.6463 88.4396,0 119.1882,-54.2613 119.1882,-104.6463 0,-50.3852 -30.7486,-104.6465 -119.1882,-104.6465 m 32.6518,179.7397 c -7.712,3.149 -17.9284,4.7233 -27.5435,4.7233 -17.9284,0 -30.1474,-6.1768 -38.4606,-25.5557 -8.3133,-19.3788 -19.8309,-69.0373 -20.5323,-89.9908 -1.3018,-20.9534 5.1083,-33.3074 20.5323,-39.4844 7.712,-3.1489 17.9284,-4.724 27.5435,-4.724 17.9284,0 29.5468,4.724 38.4606,25.6774 9.0139,20.8323 20.5322,70.4907 20.5322,89.8696 0,20.1056 -5.1082,34.1554 -20.5322,39.4846"
     id="path22"
     style="stroke-width:7.04899" />
  <path
     class="Clef"
     d="m 665.02282,2170.4249 c 0,-28.7048 -21.73406,-41.0585 -42.86754,-41.0585 -26.94225,0 -53.28392,20.1052 -53.28392,54.9872 0,14.7768 4.50695,25.6771 13.52142,36.4564 -16.72651,7.7516 -33.353,23.2546 -33.353,47.3574 0,25.556 19.23033,42.6335 47.47512,42.6335 34.55429,0 58.89277,-23.2546 58.89277,-56.6833 0,-17.8044 -6.4101,-32.4596 -17.92838,-42.6335 18.62967,-10.053 27.54353,-22.4068 27.54353,-41.0592 m -64.10097,124.0249 c -14.02212,0 -23.63728,-10.7794 -23.63728,-27.1304 0,-15.5032 5.70891,-27.8569 16.62594,-35.6085 2.60439,1.5744 3.20509,1.5744 5.10821,3.0278 7.71194,4.7238 7.71194,4.7238 9.01447,6.2982 12.11892,8.4786 17.32713,16.2302 17.32713,27.1305 0,14.6551 -10.31638,26.2824 -24.43847,26.2824 m 24.43847,-93.0187 c -9.61514,-6.1764 -12.21951,-7.7515 -14.12205,-9.3259 l -1.30252,-0.726 c -9.61516,-7.0252 -12.82015,-12.4753 -12.82015,-21.6803 0,-14.0498 9.01446,-24.1027 21.83463,-24.1027 12.11896,0 19.83099,9.326 19.83099,25.5561 0,12.4754 -3.80575,20.9533 -13.4209,30.2792 M 804.1419,1613.0397 c 0,-117.0003 -68.60797,-196.0902 -162.15564,-196.0902 -6.4101,-46.5094 -12.21899,-92.2925 -17.92779,-135.6523 67.30605,-86.1151 114.6805,-183.736 114.6805,-306.18653 0,-70.61197 -17.92839,-127.90066 -28.84545,-155.87604 -15.32395,-39.48645 -33.95362,-66.6169 -44.8707,-66.6169 -4.40695,0 -24.93911,9.32516 -45.4719,39.48645 -41.66566,58.98161 -53.18338,157.32949 -53.18338,222.49062 0,41.9072 3.20508,79.817 14.12211,167.5065 -0.70126,0 -34.0537,41.0591 -47.47512,54.988 -58.39149,65.1611 -139.11904,159.6333 -139.11904,313.9378 0,145.7055 104.46474,259.6775 223.75288,259.6775 18.529,0 35.85617,-2.3015 51.28079,-5.4502 11.51771,73.7607 19.2303,128.748 19.2303,169.8072 0,80.665 -34.65492,123.2985 -99.3565,123.2985 -15.42465,0 -28.8455,-3.8757 -30.14802,-4.7238 -0.60088,0 -1.90256,-0.7267 -1.90256,-1.4533 0,-1.5744 1.30187,-2.4225 3.20508,-3.1495 30.14726,-5.4501 60.19465,-37.1827 60.19465,-85.9935 0,-41.9071 -26.2416,-86.1151 -74.31732,-86.1151 -44.87073,0 -73.11497,44.208 -73.11497,95.32 0,51.2332 32.05049,118.6958 118.58686,118.6958 82.73008,0 123.09381,-56.6833 123.09381,-155.8791 0,-30.1583 -3.80567,-65.0403 -10.21577,-109.2481 -1.90319,-15.5031 -5.10824,-39.6059 -9.61515,-69.0377 62.79849,-25.5561 109.57233,-103.919 109.57233,-183.7361 M 606.73066,977.41207 c 6.41015,-31.00619 35.2556,-112.39754 68.6086,-112.39754 9.61516,0 25.6404,37.18269 25.6404,91.4436 0,79.81697 -49.97893,140.37607 -94.249,193.78887 -3.80568,-31.0062 -7.01077,-62.0124 -7.01077,-93.745 0,-29.4318 2.50382,-55.1088 7.01077,-79.08993 m 19.23035,801.55923 c -91.64395,0 -169.8675,-77.5157 -169.8675,-194.6366 0,-94.4726 55.08688,-179.0126 111.5759,-238.7236 10.81702,-10.901 21.13355,-21.6804 30.74861,-33.3077 5.70882,41.7856 10.21587,77.5155 14.72279,110.0962 -58.39157,20.106 -98.05408,95.3201 -98.05408,167.3854 0,55.1087 35.25557,129.4752 86.53638,129.4752 5.10755,0 10.91701,-3.1488 10.91701,-10.9002 0,-6.1774 -5.80946,-10.7801 -14.1221,-16.957 -25.03971,-17.9254 -39.16183,-38.7578 -39.16183,-76.0621 0,-47.2361 29.54677,-85.2676 66.70482,-96.0469 l 37.15869,254.2271 c -12.82021,3.1494 -24.33848,5.4502 -37.15869,5.4502 m 64.101,-14.7761 c -13.42089,-92.1711 -30.748,-215.4693 -35.25555,-249.625 64.70221,0 92.34577,54.2613 98.05463,91.5657 0.70123,6.1771 1.90313,14.6552 1.90313,23.9814 0,55.8354 -19.23029,111.6712 -64.70221,134.0779"
     id="path24"
     style="stroke-width:7.04899" />
  <path
     class="TimeSig"
     d="m 1088.6904,1325.5052 v 57.2893 h -53.1839 c -4.507,0 -9.0139,4.7231 -9.0139,10.9002 v 14.7768 c 0,6.1765 4.5069,10.7793 9.0139,10.7793 h 194.2061 c 5.2082,0 9.014,-4.6028 9.014,-10.7793 v -14.7768 c 0,-6.1771 -3.8058,-10.9002 -9.014,-10.9002 h -57.6909 v -57.2893 h 57.6909 c 5.2082,0 9.014,-5.4502 9.014,-11.6274 v -14.7763 c 0,-5.4502 -3.8058,-10.7794 -9.014,-10.7794 h -57.6909 v -123.2982 c 0,-4.6026 -1.9031,-8.4783 -4.407,-10.0528 l -7.7118,-4.7237 c -1.3027,-0.7267 -1.9034,-0.7267 -3.2052,-0.7267 -0.7013,0 -0.7013,0 -1.3025,0 -1.9025,0 -4.5069,0.7267 -5.8088,2.3013 l -58.2922,64.3137 c -1.9026,2.4223 -2.6038,5.4503 -2.6038,8.5994 v 63.587 h -74.3172 c 0,0 71.8134,-93.0188 147.4322,-215.5907 2.6043,-3.8758 3.205,-7.7514 3.205,-10.7792 0,-3.8758 -1.3019,-7.0245 -1.9026,-7.7516 l -14.1227,-17.0775 c -1.9026,-1.5744 -3.8057,-3.1494 -6.41,-3.1494 -3.8059,0 -90.4421,0 -95.5503,0 -4.5069,0 -7.712,4.7238 -8.3133,9.3266 0,0 -3.205,57.4097 -19.8313,120.1489 -16.7263,62.8603 -35.95668,101.6181 -52.58288,130.2021 0,0 -1.9029,3.8757 -1.9029,8.5993 0,1.5745 0,3.0283 0.601,4.6027 1.903,5.4501 6.41,13.9288 6.41,13.9288 0,0 1.302,4.7231 7.0111,4.7231 h 110.27388"
     id="path26"
     style="stroke-width:7.04899" />
  <path
     class="TimeSig"
     d="m 1088.6904,1713.083 v 57.2893 h -53.1839 c -4.507,0 -9.0139,4.7231 -9.0139,10.9003 v 14.7768 c 0,6.1765 4.5069,10.7793 9.0139,10.7793 h 194.2061 c 5.2082,0 9.014,-4.6028 9.014,-10.7793 v -14.7768 c 0,-6.1772 -3.8058,-10.9003 -9.014,-10.9003 h -57.6909 v -57.2893 h 57.6909 c 5.2082,0 9.014,-5.4501 9.014,-11.6274 v -14.7762 c 0,-5.4503 -3.8058,-10.7795 -9.014,-10.7795 h -57.6909 v -123.2982 c 0,-4.6025 -1.9031,-8.4782 -4.407,-10.0529 l -7.7118,-4.7235 c -1.3027,-0.7267 -1.9034,-0.7267 -3.2052,-0.7267 -0.7013,0 -0.7013,0 -1.3025,0 -1.9025,0 -4.5069,0.7267 -5.8088,2.3012 l -58.2922,64.3137 c -1.9026,2.4224 -2.6038,5.4504 -2.6038,8.5995 v 63.5869 h -74.3172 c 0,0 71.8134,-93.0187 147.4322,-215.5906 2.6043,-3.8757 3.205,-7.7515 3.205,-10.7792 0,-3.8758 -1.3019,-7.0245 -1.9026,-7.7516 l -14.1227,-17.0775 c -1.9026,-1.5744 -3.8057,-3.1494 -6.41,-3.1494 -3.8059,0 -90.4421,0 -95.5503,0 -4.5069,0 -7.712,4.7238 -8.3133,9.3266 0,0 -3.205,57.4096 -19.8313,120.1489 -16.7263,62.8603 -35.95668,101.6181 -52.58288,130.202 0,0 -1.9029,3.8757 -1.9029,8.5994 0,1.5745 0,3.0283 0.601,4.6027 1.903,5.45 6.41,13.9288 6.41,13.9288 0,0 1.302,4.723 7.0111,4.723 h 110.27388"
     id="path28"
     style="stroke-width:7.04899" />
  <path
     class="Rest"
     d="m 3117.0701,1223.1604 c -5.2082,0 -9.0141,4.6026 -9.0141,10.9008 v 83.6924 c 0,6.1771 3.8059,10.78 9.0141,10.78 h 190.4001 c 5.1084,0 8.9139,-4.6029 8.9139,-10.78 v -83.6924 c 0,-6.2982 -3.8055,-10.9008 -8.9139,-10.9008 h -190.4001"
     id="path30"
     style="stroke-width:7.04899" />
  <text
     xml:space="preserve"
     style="font-size:180px;font-family:sans-serif;-inkscape-font-specification:sans-serif;fill:#1a1a1a;stroke:#666666;stroke-width:5.66929"
     x="1382.5844"
     y="663.54816"
     id="text3136"><tspan
       sodipodi:role="line"
       id="tspan3134"
       style="stroke-width:5.66929"
       x="1382.5844"
       y="663.54816">Ronde</tspan></text>
  <path
     style="fill:#1a1a1a;stroke:#666666;stroke-width:13.5369;stroke-dasharray:none;marker-start:url(#TriangleStart)"
     d="m 1662.0963,1137.1211 c -2.006,-330.23224 -1.2098,-330.21894 -1.2098,-330.21894 l -1.8238,4.3854 z"
     id="path8554" />
  <path
     style="fill:#1a1a1a;stroke:#666666;stroke-width:13.5369;stroke-dasharray:none;marker-start:url(#TriangleStart-3)"
     d="m 3212.5655,1567.3615 c 5.2369,330.1966 4.4406,330.1912 4.4406,330.1912 l 1.7808,-4.4031 z"
     id="path8554-7" />
  <metadata
     id="metadata715">
    <rdf:RDF>
      <cc:Work
         rdf:about="">
        <dc:title>Partition sans titre</dc:title>
      </cc:Work>
    </rdf:RDF>
  </metadata>
  <text
     xml:space="preserve"
     style="font-size:180px;font-family:sans-serif;-inkscape-font-specification:sans-serif;fill:#1a1a1a;stroke:#666666;stroke-width:5.66929"
     x="2955.9419"
     y="2161.887"
     id="text6052"><tspan
       sodipodi:role="line"
       id="tspan6050"
       style="stroke-width:5.66929"
       x="2955.9419"
       y="2161.887">Pause</tspan></text>
</svg>
