<?xml version="1.0" encoding="UTF-8" standalone="no"?>
<!-- Created with Inkscape (http://www.inkscape.org/) -->

<svg
   width="297mm"
   height="210mm"
   viewBox="0 0 297 210"
   version="1.1"
   id="svg1186"
   sodipodi:docname="ex_corde_a_vide_02.svg"
   inkscape:version="1.2.2 (b0a8486541, 2022-12-01)"
   xmlns:inkscape="http://www.inkscape.org/namespaces/inkscape"
   xmlns:sodipodi="http://sodipodi.sourceforge.net/DTD/sodipodi-0.dtd"
   xmlns="http://www.w3.org/2000/svg"
   xmlns:svg="http://www.w3.org/2000/svg"
   xmlns:rdf="http://www.w3.org/1999/02/22-rdf-syntax-ns#"
   xmlns:cc="http://creativecommons.org/ns#"
   xmlns:dc="http://purl.org/dc/elements/1.1/">
  <defs
     id="defs1180" />
  <sodipodi:namedview
     id="base"
     pagecolor="#ffffff"
     bordercolor="#666666"
     borderopacity="1.0"
     inkscape:pageopacity="0.0"
     inkscape:pageshadow="2"
     inkscape:zoom="1.4"
     inkscape:cx="301.78571"
     inkscape:cy="153.92857"
     inkscape:document-units="mm"
     inkscape:current-layer="layer1"
     showgrid="false"
     inkscape:window-width="1280"
     inkscape:window-height="651"
     inkscape:window-x="0"
     inkscape:window-y="32"
     inkscape:window-maximized="1"
     inkscape:showpageshadow="2"
     inkscape:pagecheckerboard="0"
     inkscape:deskcolor="#d1d1d1" />
  <metadata
     id="metadata1183">
    <rdf:RDF>
      <cc:Work
         rdf:about="">
        <dc:format>image/svg+xml</dc:format>
        <dc:type
           rdf:resource="http://purl.org/dc/dcmitype/StillImage" />
        <dc:title />
      </cc:Work>
    </rdf:RDF>
  </metadata>
  <g
     inkscape:label="Calque 1"
     inkscape:groupmode="layer"
     id="layer1"
     transform="translate(0,-87)">
    <polyline
       transform="matrix(0.11304325,0,0,0.11304325,-19.220081,84.572553)"
       style="fill:none;stroke:#000000;stroke-width:2.73000002;stroke-linejoin:bevel"
       class="StaffLines"
       points="336.598,386.198 2764.6,386.198"
       id="polyline8" />
    <polyline
       transform="matrix(0.11304325,0,0,0.11304325,-19.220081,84.572553)"
       style="fill:none;stroke:#000000;stroke-width:2.73000002;stroke-linejoin:bevel"
       class="StaffLines"
       points="336.598,410.998 2764.6,410.998"
       id="polyline10" />
    <polyline
       transform="matrix(0.11304325,0,0,0.11304325,-19.220081,84.572553)"
       style="fill:none;stroke:#000000;stroke-width:2.73000002;stroke-linejoin:bevel"
       class="StaffLines"
       points="336.598,435.798 2764.6,435.798"
       id="polyline12" />
    <polyline
       transform="matrix(0.11304325,0,0,0.11304325,-19.220081,84.572553)"
       style="fill:none;stroke:#000000;stroke-width:2.73000002;stroke-linejoin:bevel"
       class="StaffLines"
       points="336.598,460.598 2764.6,460.598"
       id="polyline14" />
    <polyline
       transform="matrix(0.11304325,0,0,0.11304325,-19.220081,84.572553)"
       style="fill:none;stroke:#000000;stroke-width:2.73000002;stroke-linejoin:bevel"
       class="StaffLines"
       points="336.598,485.398 2764.6,485.398"
       id="polyline16" />
    <polyline
       transform="matrix(0.11304325,0,0,0.11304325,-19.220081,84.572553)"
       style="fill:none;stroke:#000000;stroke-width:2.73000002;stroke-linejoin:bevel"
       class="StaffLines"
       points="212.598,919.398 2764.6,919.398"
       id="polyline18" />
    <polyline
       transform="matrix(0.11304325,0,0,0.11304325,-19.220081,84.572553)"
       style="fill:none;stroke:#000000;stroke-width:2.73000002;stroke-linejoin:bevel"
       class="StaffLines"
       points="212.598,944.198 2764.6,944.198"
       id="polyline20" />
    <polyline
       transform="matrix(0.11304325,0,0,0.11304325,-19.220081,84.572553)"
       style="fill:none;stroke:#000000;stroke-width:2.73000002;stroke-linejoin:bevel"
       class="StaffLines"
       points="212.598,968.998 2764.6,968.998"
       id="polyline22" />
    <polyline
       transform="matrix(0.11304325,0,0,0.11304325,-19.220081,84.572553)"
       style="fill:none;stroke:#000000;stroke-width:2.73000002;stroke-linejoin:bevel"
       class="StaffLines"
       points="212.598,993.798 2764.6,993.798"
       id="polyline24" />
    <polyline
       transform="matrix(0.11304325,0,0,0.11304325,-19.220081,84.572553)"
       style="fill:none;stroke:#000000;stroke-width:2.73000002;stroke-linejoin:bevel"
       class="StaffLines"
       points="212.598,1018.6 2764.6,1018.6"
       id="polyline26" />
    <polyline
       transform="matrix(0.11304325,0,0,0.11304325,-19.220081,84.572553)"
       style="fill:none;stroke:#000000;stroke-width:2.73000002;stroke-linejoin:bevel"
       class="StaffLines"
       points="212.598,1452.6 2764.6,1452.6"
       id="polyline28" />
    <polyline
       transform="matrix(0.11304325,0,0,0.11304325,-19.220081,84.572553)"
       style="fill:none;stroke:#000000;stroke-width:2.73000002;stroke-linejoin:bevel"
       class="StaffLines"
       points="212.598,1477.4 2764.6,1477.4"
       id="polyline30" />
    <polyline
       transform="matrix(0.11304325,0,0,0.11304325,-19.220081,84.572553)"
       style="fill:none;stroke:#000000;stroke-width:2.73000002;stroke-linejoin:bevel"
       class="StaffLines"
       points="212.598,1502.2 2764.6,1502.2"
       id="polyline32" />
    <polyline
       transform="matrix(0.11304325,0,0,0.11304325,-19.220081,84.572553)"
       style="fill:none;stroke:#000000;stroke-width:2.73000002;stroke-linejoin:bevel"
       class="StaffLines"
       points="212.598,1527 2764.6,1527"
       id="polyline34" />
    <polyline
       transform="matrix(0.11304325,0,0,0.11304325,-19.220081,84.572553)"
       style="fill:none;stroke:#000000;stroke-width:2.73000002;stroke-linejoin:bevel"
       class="StaffLines"
       points="212.598,1551.8 2764.6,1551.8"
       id="polyline36" />
    <path
       inkscape:connector-curvature="0"
       class="MeasureNumber"
       d="m 5.319685,181.16642 c -0.1413064,0.0848 -0.1820029,0.1395 -0.1820029,0.22959 0,0.0866 0.072464,0.15012 0.1625582,0.15012 0.1183552,0 0.1855002,-0.0865 0.1996348,-0.25435 0.1394926,-0.11303 0.2896155,-0.16244 0.4698056,-0.16244 0.3356232,0 0.5210181,0.20845 0.5210181,0.58285 0,0.58816 -0.3797117,1.0669 -0.846012,1.0669 -0.2667867,0 -0.4839402,-0.12548 -0.4839402,-0.2756 0,-0.0264 0.00487,-0.0353 0.026426,-0.0493 0.1448038,-0.0672 0.2631601,-0.11667 0.2631601,-0.30738 0,-0.1448 -0.1130383,-0.25265 -0.2719767,-0.25265 -0.1978289,0 -0.3479518,0.16606 -0.3479518,0.38333 0,0.39916 0.3444465,0.68709 0.8283799,0.68709 0.7312822,0 1.3247543,-0.58286 1.3247543,-1.30532 0,-0.4575 -0.3480573,-0.77887 -0.8408141,-0.77887 -0.1960162,0 -0.3532551,0.0406 -0.5705299,0.15012 l 0.2526521,-0.85494 c 0.240218,0.0495 0.4309229,0.0724 0.5934811,0.0724 0.298432,0 0.5652108,-0.0955 0.7135289,-0.25254 0.077747,-0.0901 0.1218617,-0.16787 0.1218617,-0.22609 0,-0.0283 -0.014148,-0.0549 -0.031799,-0.0549 -0.012278,0 -0.022934,0.006 -0.04953,0.0177 -0.1483091,0.0724 -0.3391286,0.11302 -0.5157068,0.11302 -0.2702841,0 -0.5916673,-0.0441 -0.9255991,-0.13067 l -0.4114691,1.45192"
       id="path38"
       style="stroke-width:0.11304324" />
    <path
       inkscape:connector-curvature="0"
       class="MeasureNumber"
       d="m 6.5896093,241.62692 c -0.1130383,0.52452 -0.4167884,1.42321 -1.0632788,1.42321 -0.130685,0 -0.2154689,-0.0543 -0.2154689,-0.13565 0,-0.0316 0.00873,-0.0441 0.044077,-0.0994 0.046027,-0.0577 0.068961,-0.11302 0.068961,-0.17634 0,-0.14808 -0.1183642,-0.26113 -0.2721059,-0.26113 -0.1800756,0 -0.3072485,0.13339 -0.3072485,0.33348 0,0.30748 0.2896166,0.52791 0.6923916,0.52791 0.9891243,0 1.6213815,-1.26495 1.6213815,-2.12407 0,-0.7054 -0.3391274,-1.12592 -0.8990372,-1.12592 -0.6729457,0 -1.1745179,0.62061 -1.1745179,1.26721 0,0.42844 0.3285071,0.754 0.76836,0.754 0.298432,0 0.5280196,-0.12208 0.736471,-0.38321 m -0.3338093,-1.44695 c 0.2879161,0 0.4734163,0.22947 0.4734163,0.59121 0,0.56069 -0.3073619,0.97217 -0.7224588,0.97217 -0.2861101,0 -0.4433582,-0.19444 -0.4433582,-0.53357 0,-0.40582 0.1943248,-1.02981 0.6924007,-1.02981"
       id="path40"
       style="stroke-width:0.11304324" />
    <polyline
       transform="matrix(0.11304325,0,0,0.11304325,-19.220081,84.572553)"
       style="fill:none;stroke:#000000;stroke-width:4.46000004;stroke-linejoin:bevel"
       class="BarLine"
       points="1066.39,384.834 1066.39,486.762"
       id="polyline42" />
    <polyline
       transform="matrix(0.11304325,0,0,0.11304325,-19.220081,84.572553)"
       style="fill:none;stroke:#000000;stroke-width:4.46000004;stroke-linejoin:bevel"
       class="BarLine"
       points="2135.22,1451.23 2135.22,1553.16"
       id="polyline44" />
    <polyline
       transform="matrix(0.11304325,0,0,0.11304325,-19.220081,84.572553)"
       style="fill:none;stroke:#000000;stroke-width:4.46000004;stroke-linejoin:bevel"
       class="BarLine"
       points="1631.72,384.834 1631.72,486.762"
       id="polyline46" />
    <polyline
       transform="matrix(0.11304325,0,0,0.11304325,-19.220081,84.572553)"
       style="fill:none;stroke:#000000;stroke-width:4.46000004;stroke-linejoin:bevel"
       class="BarLine"
       points="2152.33,918.034 2152.33,1019.96"
       id="polyline48" />
    <polyline
       transform="matrix(0.11304325,0,0,0.11304325,-19.220081,84.572553)"
       style="fill:none;stroke:#000000;stroke-width:4.46000004;stroke-linejoin:bevel"
       class="BarLine"
       points="2197.04,384.834 2197.04,486.762"
       id="polyline50" />
    <polyline
       transform="matrix(0.11304325,0,0,0.11304325,-19.220081,84.572553)"
       style="fill:none;stroke:#000000;stroke-width:4.46000004;stroke-linejoin:bevel"
       class="BarLine"
       points="926.543,1451.23 926.543,1553.16"
       id="polyline52" />
    <polyline
       transform="matrix(0.11304325,0,0,0.11304325,-19.220081,84.572553)"
       style="fill:none;stroke:#000000;stroke-width:4.46000004;stroke-linejoin:bevel"
       class="BarLine"
       points="2762.37,918.034 2762.37,1019.96"
       id="polyline54" />
    <polyline
       transform="matrix(0.11304325,0,0,0.11304325,-19.220081,84.572553)"
       style="fill:none;stroke:#000000;stroke-width:4.46000004;stroke-linejoin:bevel"
       class="BarLine"
       points="1542.29,918.034 1542.29,1019.96"
       id="polyline56" />
    <polyline
       transform="matrix(0.11304325,0,0,0.11304325,-19.220081,84.572553)"
       style="fill:none;stroke:#000000;stroke-width:4.46000004;stroke-linejoin:bevel"
       class="BarLine"
       points="1530.88,1451.23 1530.88,1553.16"
       id="polyline58" />
    <polyline
       transform="matrix(0.11304325,0,0,0.11304325,-19.220081,84.572553)"
       style="fill:none;stroke:#000000;stroke-width:4.46000004;stroke-linejoin:bevel"
       class="BarLine"
       points="2762.37,384.834 2762.37,486.762"
       id="polyline60" />
    <polyline
       transform="matrix(0.11304325,0,0,0.11304325,-19.220081,84.572553)"
       style="fill:none;stroke:#000000;stroke-width:4.46000004;stroke-linejoin:bevel"
       class="BarLine"
       points="2739.55,1451.23 2739.55,1553.16"
       id="polyline62" />
    <polyline
       transform="matrix(0.11304325,0,0,0.11304325,-19.220081,84.572553)"
       style="fill:none;stroke:#000000;stroke-width:13.64000034;stroke-linejoin:bevel"
       class="BarLine"
       points="2757.78,1451.23 2757.78,1553.16"
       id="polyline64" />
    <polyline
       transform="matrix(0.11304325,0,0,0.11304325,-19.220081,84.572553)"
       style="fill:none;stroke:#000000;stroke-width:4.46000004;stroke-linejoin:bevel"
       class="BarLine"
       points="932.247,918.034 932.247,1019.96"
       id="polyline66" />
    <polyline
       transform="matrix(0.11304325,0,0,0.11304325,-19.220081,84.572553)"
       style="fill:none;stroke:#000000;stroke-width:3.97000003;stroke-linejoin:bevel"
       class="LedgerLine"
       points="1557.17,1601.4 1605.77,1601.4"
       id="polyline68" />
    <polyline
       transform="matrix(0.11304325,0,0,0.11304325,-19.220081,84.572553)"
       style="fill:none;stroke:#000000;stroke-width:3.97000003;stroke-linejoin:bevel"
       class="LedgerLine"
       points="632.311,1601.4 680.911,1601.4"
       id="polyline70" />
    <polyline
       transform="matrix(0.11304325,0,0,0.11304325,-19.220081,84.572553)"
       style="fill:none;stroke:#000000;stroke-width:3.97000003;stroke-linejoin:bevel"
       class="LedgerLine"
       points="1840.98,1576.6 1889.58,1576.6"
       id="polyline72" />
    <polyline
       transform="matrix(0.11304325,0,0,0.11304325,-19.220081,84.572553)"
       style="fill:none;stroke:#000000;stroke-width:3.97000003;stroke-linejoin:bevel"
       class="LedgerLine"
       points="1557.17,1576.6 1605.77,1576.6"
       id="polyline74" />
    <polyline
       transform="matrix(0.11304325,0,0,0.11304325,-19.220081,84.572553)"
       style="fill:none;stroke:#000000;stroke-width:3.97000003;stroke-linejoin:bevel"
       class="LedgerLine"
       points="1840.98,1601.4 1889.58,1601.4"
       id="polyline76" />
    <polyline
       transform="matrix(0.11304325,0,0,0.11304325,-19.220081,84.572553)"
       style="fill:none;stroke:#000000;stroke-width:3.97000003;stroke-linejoin:bevel"
       class="LedgerLine"
       points="348.495,1576.6 397.095,1576.6"
       id="polyline78" />
    <polyline
       transform="matrix(0.11304325,0,0,0.11304325,-19.220081,84.572553)"
       style="fill:none;stroke:#000000;stroke-width:3.97000003;stroke-linejoin:bevel"
       class="LedgerLine"
       points="632.311,1576.6 680.911,1576.6"
       id="polyline80" />
    <polyline
       transform="matrix(0.11304325,0,0,0.11304325,-19.220081,84.572553)"
       style="fill:none;stroke:#000000;stroke-width:3.97000003;stroke-linejoin:bevel"
       class="LedgerLine"
       points="348.495,1601.4 397.095,1601.4"
       id="polyline82" />
    <polyline
       transform="matrix(0.11304325,0,0,0.11304325,-19.220081,84.572553)"
       style="fill:none;stroke:#000000;stroke-width:2.48000002;stroke-linejoin:bevel"
       class="Stem"
       points="671.487,1597.43 671.487,1502.2"
       id="polyline84" />
    <polyline
       transform="matrix(0.11304325,0,0,0.11304325,-19.220081,84.572553)"
       style="fill:none;stroke:#000000;stroke-width:2.48000002;stroke-linejoin:bevel"
       class="Stem"
       points="997.712,1027.03 997.712,944.198"
       id="polyline86" />
    <polyline
       transform="matrix(0.11304325,0,0,0.11304325,-19.220081,84.572553)"
       style="fill:none;stroke:#000000;stroke-width:2.48000002;stroke-linejoin:bevel"
       class="Stem"
       points="1596.34,1597.43 1596.34,1502.2"
       id="polyline88" />
    <polyline
       transform="matrix(0.11304325,0,0,0.11304325,-19.220081,84.572553)"
       style="fill:none;stroke:#000000;stroke-width:2.48000002;stroke-linejoin:bevel"
       class="Stem"
       points="387.671,1597.43 387.671,1502.2"
       id="polyline90" />
    <polyline
       transform="matrix(0.11304325,0,0,0.11304325,-19.220081,84.572553)"
       style="fill:none;stroke:#000000;stroke-width:2.48000002;stroke-linejoin:bevel"
       class="Stem"
       points="1284.38,1027.03 1284.38,944.198"
       id="polyline92" />
    <polyline
       transform="matrix(0.11304325,0,0,0.11304325,-19.220081,84.572553)"
       style="fill:none;stroke:#000000;stroke-width:2.48000002;stroke-linejoin:bevel"
       class="Stem"
       points="2504.46,989.83 2504.46,906.998"
       id="polyline94" />
    <polyline
       transform="matrix(0.11304325,0,0,0.11304325,-19.220081,84.572553)"
       style="fill:none;stroke:#000000;stroke-width:2.48000002;stroke-linejoin:bevel"
       class="Stem"
       points="1607.75,1027.03 1607.75,944.198"
       id="polyline96" />
    <polyline
       transform="matrix(0.11304325,0,0,0.11304325,-19.220081,84.572553)"
       style="fill:none;stroke:#000000;stroke-width:2.48000002;stroke-linejoin:bevel"
       class="Stem"
       points="2217.79,989.83 2217.79,906.998"
       id="polyline98" />
    <polyline
       transform="matrix(0.11304325,0,0,0.11304325,-19.220081,84.572553)"
       style="fill:none;stroke:#000000;stroke-width:2.48000002;stroke-linejoin:bevel"
       class="Stem"
       points="1894.42,1027.03 1894.42,944.198"
       id="polyline100" />
    <polyline
       transform="matrix(0.11304325,0,0,0.11304325,-19.220081,84.572553)"
       style="fill:none;stroke:#000000;stroke-width:2.48000002;stroke-linejoin:bevel"
       class="Stem"
       points="1275.82,1560.23 1275.82,1477.4"
       id="polyline102" />
    <polyline
       transform="matrix(0.11304325,0,0,0.11304325,-19.220081,84.572553)"
       style="fill:none;stroke:#000000;stroke-width:2.48000002;stroke-linejoin:bevel"
       class="Stem"
       points="992.008,1560.23 992.008,1477.4"
       id="polyline104" />
    <polyline
       transform="matrix(0.11304325,0,0,0.11304325,-19.220081,84.572553)"
       style="fill:none;stroke:#000000;stroke-width:2.48000002;stroke-linejoin:bevel"
       class="Stem"
       points="2262.51,456.63 2262.51,373.798"
       id="polyline106" />
    <polyline
       transform="matrix(0.11304325,0,0,0.11304325,-19.220081,84.572553)"
       style="fill:none;stroke:#000000;stroke-width:2.48000002;stroke-linejoin:bevel"
       class="Stem"
       points="1396.16,493.83 1396.16,410.998"
       id="polyline108" />
    <polyline
       transform="matrix(0.11304325,0,0,0.11304325,-19.220081,84.572553)"
       style="fill:none;stroke:#000000;stroke-width:2.48000002;stroke-linejoin:bevel"
       class="Stem"
       points="1697.18,493.83 1697.18,410.998"
       id="polyline110" />
    <polyline
       transform="matrix(0.11304325,0,0,0.11304325,-19.220081,84.572553)"
       style="fill:none;stroke:#000000;stroke-width:2.48000002;stroke-linejoin:bevel"
       class="Stem"
       points="2200.68,1560.23 2200.68,1477.4"
       id="polyline112" />
    <polyline
       transform="matrix(0.11304325,0,0,0.11304325,-19.220081,84.572553)"
       style="fill:none;stroke:#000000;stroke-width:2.48000002;stroke-linejoin:bevel"
       class="Stem"
       points="1961.49,493.83 1961.49,410.998"
       id="polyline114" />
    <polyline
       transform="matrix(0.11304325,0,0,0.11304325,-19.220081,84.572553)"
       style="fill:none;stroke:#000000;stroke-width:2.48000002;stroke-linejoin:bevel"
       class="Stem"
       points="1131.85,493.83 1131.85,410.998"
       id="polyline116" />
    <polyline
       transform="matrix(0.11304325,0,0,0.11304325,-19.220081,84.572553)"
       style="fill:none;stroke:#000000;stroke-width:2.48000002;stroke-linejoin:bevel"
       class="Stem"
       points="830.837,456.63 830.837,373.798"
       id="polyline118" />
    <polyline
       transform="matrix(0.11304325,0,0,0.11304325,-19.220081,84.572553)"
       style="fill:none;stroke:#000000;stroke-width:2.48000002;stroke-linejoin:bevel"
       class="Stem"
       points="2526.82,456.63 2526.82,373.798"
       id="polyline120" />
    <polyline
       transform="matrix(0.11304325,0,0,0.11304325,-19.220081,84.572553)"
       style="fill:none;stroke:#000000;stroke-width:2.48000002;stroke-linejoin:bevel"
       class="Stem"
       points="2484.5,1560.23 2484.5,1477.4"
       id="polyline122" />
    <polyline
       transform="matrix(0.11304325,0,0,0.11304325,-19.220081,84.572553)"
       style="fill:none;stroke:#000000;stroke-width:2.48000002;stroke-linejoin:bevel"
       class="Stem"
       points="1880.16,1597.43 1880.16,1502.2"
       id="polyline124" />
    <polyline
       transform="matrix(0.11304325,0,0,0.11304325,-19.220081,84.572553)"
       style="fill:none;stroke:#000000;stroke-width:2.48000002;stroke-linejoin:bevel"
       class="Stem"
       points="566.525,456.63 566.525,373.798"
       id="polyline126" />
    <polyline
       transform="matrix(0.11304325,0,0,0.11304325,-19.220081,84.572553)"
       style="fill:none;stroke:#000000;stroke-width:2.48000002;stroke-linejoin:bevel"
       class="Stem"
       points="387.671,989.83 387.671,906.998"
       id="polyline128" />
    <polyline
       transform="matrix(0.11304325,0,0,0.11304325,-19.220081,84.572553)"
       style="fill:none;stroke:#000000;stroke-width:2.48000002;stroke-linejoin:bevel"
       class="Stem"
       points="674.339,989.83 674.339,906.998"
       id="polyline130" />
    <path
       style="stroke-width:0.1121389"
       inkscape:connector-curvature="0"
       class="Note"
       d="m 41.318307,137.11137 c 0,0.48186 0.346928,1.01978 1.256302,1.01978 1.165199,0 2.388213,-0.9532 2.388213,-1.93967 0,-0.66231 -0.560698,-1.03201 -1.25631,-1.03201 -1.088093,0 -2.388205,0.91988 -2.388205,1.9519"
       id="path132" />
    <path
       style="stroke-width:0.1121389"
       inkscape:connector-curvature="0"
       class="Note"
       d="m 169.13144,141.31659 c 0,0.48184 0.34693,1.01976 1.2563,1.01976 1.1652,0 2.38821,-0.95318 2.38821,-1.93965 0,-0.66233 -0.5607,-1.03203 -1.25631,-1.03203 -1.08809,0 -2.3882,0.91988 -2.3882,1.95192"
       id="path134" />
    <path
       style="stroke-width:0.1121389"
       inkscape:connector-curvature="0"
       class="Note"
       d="m 53.183549,266.07133 c 0,0.48185 0.346928,1.01976 1.25631,1.01976 1.165198,0 2.388204,-0.95317 2.388204,-1.93964 0,-0.66232 -0.56069,-1.03204 -1.256302,-1.03204 -1.088092,0 -2.388212,0.9199 -2.388212,1.95192"
       id="path136" />
    <path
       style="stroke-width:0.1121389"
       inkscape:connector-curvature="0"
       class="Note"
       d="m 71.196994,137.11137 c 0,0.48186 0.346928,1.01978 1.256302,1.01978 1.165198,0 2.388213,-0.9532 2.388213,-1.93967 0,-0.66231 -0.560697,-1.03201 -1.25631,-1.03201 -1.088091,0 -2.388205,0.91988 -2.388205,1.9519"
       id="path138" />
    <path
       style="stroke-width:0.1121389"
       inkscape:connector-curvature="0"
       class="Note"
       d="m 226.0487,261.86613 c 0,0.48183 0.34694,1.01976 1.25631,1.01976 1.16519,0 2.38822,-0.95318 2.38822,-1.93966 0,-0.66231 -0.5607,-1.03202 -1.25631,-1.03202 -1.0881,0 -2.38822,0.91988 -2.38822,1.95192"
       id="path140" />
    <path
       style="stroke-width:0.1121389"
       inkscape:connector-curvature="0"
       class="Note"
       d="m 105.2247,141.31659 c 0,0.48184 0.34693,1.01976 1.25631,1.01976 1.16519,0 2.38821,-0.95318 2.38821,-1.93965 0,-0.66233 -0.5607,-1.03203 -1.25631,-1.03203 -1.08809,0 -2.38821,0.91988 -2.38821,1.95192"
       id="path142" />
    <path
       style="stroke-width:0.1121389"
       inkscape:connector-curvature="0"
       class="Note"
       d="m 21.100067,266.07133 c 0,0.48185 0.346928,1.01976 1.25631,1.01976 1.165199,0 2.388205,-0.95317 2.388205,-1.93964 0,-0.66232 -0.56069,-1.03204 -1.256302,-1.03204 -1.088099,0 -2.388213,0.9199 -2.388213,1.95192"
       id="path144" />
    <path
       style="stroke-width:0.1121389"
       inkscape:connector-curvature="0"
       class="Note"
       d="m 260.38898,197.38604 c 0,0.48184 0.34693,1.01976 1.2563,1.01976 1.1652,0 2.38822,-0.95319 2.38822,-1.93966 0,-0.66232 -0.5607,-1.03202 -1.25632,-1.03202 -1.08809,0 -2.3882,0.91988 -2.3882,1.95192"
       id="path146" />
    <path
       style="stroke-width:0.1121389"
       inkscape:connector-curvature="0"
       class="Note"
       d="m 258.13264,261.86613 c 0,0.48183 0.34692,1.01976 1.25631,1.01976 1.16519,0 2.3882,-0.95318 2.3882,-1.93966 0,-0.66231 -0.56069,-1.03202 -1.2563,-1.03202 -1.0881,0 -2.38821,0.91988 -2.38821,1.95192"
       id="path148" />
    <path
       style="stroke-width:0.1121389"
       inkscape:connector-curvature="0"
       class="Note"
       d="m 227.98288,197.38604 c 0,0.48184 0.34693,1.01976 1.2563,1.01976 1.1652,0 2.38821,-0.95319 2.38821,-1.93966 0,-0.66232 -0.5607,-1.03202 -1.2563,-1.03202 -1.0881,0 -2.38821,0.91988 -2.38821,1.95192"
       id="path150" />
    <path
       style="stroke-width:0.1121389"
       inkscape:connector-curvature="0"
       class="Note"
       d="m 135.10316,141.31659 c 0,0.48184 0.34694,1.01976 1.25631,1.01976 1.16519,0 2.3882,-0.95318 2.3882,-1.93965 0,-0.66233 -0.5607,-1.03203 -1.2563,-1.03203 -1.08809,0 -2.38821,0.91988 -2.38821,1.95192"
       id="path152" />
    <path
       style="stroke-width:0.1121389"
       inkscape:connector-curvature="0"
       class="Note"
       d="m 53.505948,197.38604 c 0,0.48184 0.346928,1.01976 1.25631,1.01976 1.165199,0 2.388204,-0.95319 2.388204,-1.93966 0,-0.66232 -0.560689,-1.03202 -1.256301,-1.03202 -1.088092,0 -2.388213,0.91988 -2.388213,1.95192"
       id="path154" />
    <path
       style="stroke-width:0.1121389"
       inkscape:connector-curvature="0"
       class="Note"
       d="m 89.416167,261.86613 c 0,0.48183 0.346936,1.01976 1.25631,1.01976 1.165198,0 2.388204,-0.95318 2.388204,-1.93966 0,-0.66231 -0.56069,-1.03202 -1.256301,-1.03202 -1.088092,0 -2.388213,0.91988 -2.388213,1.95192"
       id="path156" />
    <path
       style="stroke-width:0.1121389"
       inkscape:connector-curvature="0"
       class="Note"
       d="m 199.0099,141.31659 c 0,0.48184 0.34692,1.01976 1.2563,1.01976 1.1652,0 2.3882,-0.95318 2.3882,-1.93965 0,-0.66233 -0.56069,-1.03203 -1.2563,-1.03203 -1.0881,0 -2.3882,0.91988 -2.3882,1.95192"
       id="path158" />
    <path
       style="stroke-width:0.1121389"
       inkscape:connector-curvature="0"
       class="Note"
       d="m 191.42808,201.59147 c 0,0.48184 0.34694,1.01977 1.25631,1.01977 1.16519,0 2.3882,-0.95319 2.3882,-1.93967 0,-0.66232 -0.56069,-1.03202 -1.2563,-1.03202 -1.0881,0 -2.38821,0.91988 -2.38821,1.95192"
       id="path160" />
    <path
       style="stroke-width:0.1121389"
       inkscape:connector-curvature="0"
       class="Note"
       d="m 189.81608,266.07133 c 0,0.48185 0.34694,1.01976 1.25631,1.01976 1.1652,0 2.3882,-0.95317 2.3882,-1.93964 0,-0.66232 -0.56068,-1.03204 -1.2563,-1.03204 -1.0881,0 -2.38821,0.9199 -2.38821,1.95192"
       id="path162" />
    <path
       style="stroke-width:0.1121389"
       inkscape:connector-curvature="0"
       class="Note"
       d="m 121.49953,261.86613 c 0,0.48183 0.34694,1.01976 1.25631,1.01976 1.1652,0 2.38822,-0.95318 2.38822,-1.93966 0,-0.66231 -0.5607,-1.03202 -1.25632,-1.03202 -1.08809,0 -2.38821,0.91988 -2.38821,1.95192"
       id="path164" />
    <path
       style="stroke-width:0.1121389"
       inkscape:connector-curvature="0"
       class="Note"
       d="m 159.02198,201.59147 c 0,0.48184 0.34692,1.01977 1.25631,1.01977 1.16519,0 2.3882,-0.95319 2.3882,-1.93967 0,-0.66232 -0.56069,-1.03202 -1.25631,-1.03202 -1.0881,0 -2.3882,0.91988 -2.3882,1.95192"
       id="path166" />
    <path
       style="stroke-width:0.1121389"
       inkscape:connector-curvature="0"
       class="Note"
       d="m 233.03705,137.11137 c 0,0.48186 0.34691,1.01978 1.2563,1.01978 1.16519,0 2.3882,-0.9532 2.3882,-1.93967 0,-0.66231 -0.56069,-1.03201 -1.2563,-1.03201 -1.0881,0 -2.3882,0.91988 -2.3882,1.9519"
       id="path168" />
    <path
       style="stroke-width:0.1121389"
       inkscape:connector-curvature="0"
       class="Note"
       d="m 262.91663,137.11137 c 0,0.48186 0.34693,1.01978 1.25631,1.01978 1.16518,0 2.3882,-0.9532 2.3882,-1.93967 0,-0.66231 -0.56069,-1.03201 -1.2563,-1.03201 -1.0881,0 -2.38821,0.91988 -2.38821,1.9519"
       id="path170" />
    <path
       style="stroke-width:0.1121389"
       inkscape:connector-curvature="0"
       class="Note"
       d="m 122.46719,201.59147 c 0,0.48184 0.34692,1.01977 1.2563,1.01977 1.16519,0 2.38821,-0.95319 2.38821,-1.93967 0,-0.66232 -0.56069,-1.03202 -1.25631,-1.03202 -1.0881,0 -2.3882,0.91988 -2.3882,1.95192"
       id="path172" />
    <path
       style="stroke-width:0.1121389"
       inkscape:connector-curvature="0"
       class="Note"
       d="m 157.73216,266.07133 c 0,0.48185 0.34692,1.01976 1.25631,1.01976 1.16518,0 2.3882,-0.95317 2.3882,-1.93964 0,-0.66232 -0.56069,-1.03204 -1.25631,-1.03204 -1.08809,0 -2.3882,0.9199 -2.3882,1.95192"
       id="path174" />
    <path
       style="stroke-width:0.1121389"
       inkscape:connector-curvature="0"
       class="Note"
       d="m 90.060973,201.59147 c 0,0.48184 0.346921,1.01977 1.256303,1.01977 1.165198,0 2.388204,-0.95319 2.388204,-1.93967 0,-0.66232 -0.56069,-1.03202 -1.256302,-1.03202 -1.088092,0 -2.388205,0.91988 -2.388205,1.95192"
       id="path176" />
    <path
       style="stroke-width:0.1121389"
       inkscape:connector-curvature="0"
       class="Note"
       d="m 21.100067,197.38604 c 0,0.48184 0.346928,1.01976 1.25631,1.01976 1.165199,0 2.388205,-0.95319 2.388205,-1.93966 0,-0.66232 -0.56069,-1.03202 -1.256302,-1.03202 -1.088099,0 -2.388213,0.91988 -2.388213,1.95192"
       id="path178" />
    <path
       style="stroke-width:0.1121389"
       inkscape:connector-curvature="0"
       class="Clef"
       d="m 28.10954,136.60675 c 0,-1.68208 -1.200234,-2.82625 -2.836759,-2.82625 -0.112143,-0.67283 -0.213762,-1.34566 -0.313632,-1.96243 1.177454,-1.2458 2.006224,-2.65805 2.006224,-4.42949 0,-1.03202 -0.313641,-1.85028 -0.504622,-2.255 -0.26808,-0.57124 -0.593986,-0.97605 -0.784967,-0.97605 -0.0771,0 -0.436291,0.14723 -0.795499,0.58357 -0.728899,0.85326 -0.930389,2.27603 -0.930389,3.21868 0,0.60627 0.05604,1.15469 0.247049,2.42326 -0.01228,0 -0.595733,0.59399 -0.830535,0.7955 -1.021508,0.94265 -2.433756,2.30934 -2.433756,4.5416 0,2.10787 1.827515,3.75667 3.914352,3.75667 0.324148,0 0.627272,-0.0332 0.89711,-0.0789 0.201497,1.07759 0.33642,1.86255 0.33642,2.45654 0,1.16695 -0.606258,1.78372 -1.727653,1.78372 -0.280336,0 -0.51513,-0.0561 -0.527394,-0.0684 -0.02098,0 -0.04384,-0.0102 -0.04384,-0.021 0,-0.0228 0.02278,-0.035 0.05604,-0.0456 0.527402,-0.0789 1.053056,-0.52741 1.053056,-1.24405 0,-0.60625 -0.459071,-1.24579 -1.300113,-1.24579 -0.77446,0 -1.279082,0.63954 -1.279082,1.37897 0,0.74117 0.56069,1.71712 2.074564,1.71712 1.447292,0 2.15342,-0.82002 2.15342,-2.25505 0,-0.43628 -0.0666,-0.94091 -0.178718,-1.58044 -0.03326,-0.22428 -0.08937,-0.57298 -0.16821,-0.99875 1.098607,-0.36971 1.916869,-1.50336 1.916869,-2.66856 m -3.453524,-9.18488 c 0.112132,-0.44856 0.616765,-1.62602 1.200243,-1.62602 0.168202,0 0.448554,0.53792 0.448554,1.32289 0,1.15468 -0.874337,2.03077 -1.648797,2.80347 -0.0666,-0.44855 -0.12265,-0.89711 -0.12265,-1.35618 0,-0.42577 0.04384,-0.79723 0.12265,-1.14416 m 0.336413,11.59586 c -1.603229,0 -2.971674,-1.1214 -2.971674,-2.81573 0,-1.3667 0.975956,-2.58972 1.951913,-3.45353 0.189241,-0.1577 0.369716,-0.32592 0.537918,-0.48185 0.09987,0.60449 0.19099,1.12139 0.257565,1.59272 -1.021508,0.29087 -1.715372,1.37896 -1.715372,2.4215 0,0.79724 0.616773,1.87306 1.513883,1.87306 0.08936,0 0.190981,-0.0456 0.190981,-0.15768 0,-0.0893 -0.101622,-0.15596 -0.247057,-0.24531 -0.438039,-0.25932 -0.685097,-0.56069 -0.685097,-1.10037 0,-0.68334 0.516895,-1.23352 1.16694,-1.38946 l 0.65006,3.6778 c -0.224277,0.056 -0.425783,0.0788 -0.65006,0.0788 m 1.121395,-0.21376 c -0.234793,-1.33341 -0.537918,-3.11712 -0.616774,-3.61123 1.131912,0 1.615511,0.78497 1.715381,1.32465 0.01228,0.0893 0.03326,0.212 0.03326,0.34692 0,0.80775 -0.336412,1.62601 -1.131903,1.93966 m -0.438039,5.87677 c 0,-0.41526 -0.380215,-0.59398 -0.749923,-0.59398 -0.471335,0 -0.932162,0.29086 -0.932162,0.79548 0,0.21377 0.07889,0.37146 0.247057,0.52741 -0.29086,0.11212 -0.593993,0.3364 -0.593993,0.68509 0,0.36972 0.33642,0.61677 0.830535,0.61677 0.604501,0 1.030276,-0.33642 1.030276,-0.82002 0,-0.25757 -0.112131,-0.46959 -0.313641,-0.61676 0.325913,-0.14544 0.481851,-0.32415 0.481851,-0.59399 m -0.693855,0.44855 c -0.168211,-0.0893 -0.213771,-0.11212 -0.247058,-0.1349 l -0.01228,-0.0102 c -0.178734,-0.10169 -0.234802,-0.18048 -0.234802,-0.31364 0,-0.20325 0.157703,-0.34868 0.38198,-0.34868 0.224278,0 0.346921,0.1349 0.346921,0.3697 0,0.18048 -0.0666,0.30312 -0.234786,0.43804 m -0.427523,1.34567 c -0.245309,0 -0.413519,-0.15595 -0.413519,-0.39249 0,-0.21201 0.09988,-0.403 0.29086,-0.51513 0.04554,0.0228 0.05604,0.0332 0.08937,0.0439 0.134915,0.0684 0.134915,0.0684 0.157702,0.0911 0.224278,0.12266 0.303117,0.23479 0.303117,0.39249 0,0.212 -0.180474,0.38022 -0.427523,0.38022"
       id="path180" />
    <path
       style="stroke-width:0.1121389"
       inkscape:connector-curvature="0"
       class="Clef"
       d="m 14.092181,257.15629 c 0,-1.68208 -1.200235,-2.82625 -2.836769,-2.82625 -0.112142,-0.67283 -0.213761,-1.34567 -0.313632,-1.96243 1.177463,-1.2458 2.006233,-2.65805 2.006233,-4.42949 0,-1.03202 -0.31364,-1.85028 -0.504622,-2.255 -0.268081,-0.57124 -0.593993,-0.97605 -0.784975,-0.97605 -0.0771,0 -0.436283,0.14723 -0.795491,0.58357 -0.728899,0.85326 -0.9303975,2.27602 -0.9303975,3.21869 0,0.60626 0.056037,1.15468 0.2470575,2.42325 -0.01228,0 -0.5957338,0.59399 -0.830534,0.79548 -1.0215087,0.94267 -2.4337653,2.30937 -2.4337653,4.54164 0,2.10785 1.8275236,3.75664 3.9143513,3.75664 0.324156,0 0.627273,-0.0332 0.897118,-0.0788 0.20149,1.07759 0.336412,1.86256 0.336412,2.45654 0,1.16696 -0.606257,1.78372 -1.727643,1.78372 -0.280346,0 -0.5151302,-0.0561 -0.5274033,-0.0684 -0.020984,0 -0.043839,-0.0102 -0.043839,-0.021 0,-0.0228 0.022775,-0.035 0.056037,-0.0456 0.5274023,-0.0788 1.0530473,-0.52741 1.0530473,-1.24404 0,-0.60625 -0.45907,-1.2458 -1.3001127,-1.2458 -0.7744512,0 -1.279082,0.63955 -1.279082,1.37897 0,0.74116 0.5606976,1.71712 2.0745737,1.71712 1.447283,0 2.153418,-0.82001 2.153418,-2.25504 0,-0.43629 -0.0666,-0.94091 -0.178725,-1.58046 -0.03326,-0.22427 -0.08936,-0.57297 -0.168202,-0.99874 1.098599,-0.3697 1.91687,-1.50336 1.91687,-2.66856 m -3.453533,-9.18487 c 0.112143,-0.44855 0.616766,-1.62602 1.200243,-1.62602 0.16821,0 0.448555,0.53792 0.448555,1.3229 0,1.15467 -0.87433,2.03076 -1.648798,2.80347 -0.0666,-0.44856 -0.12265,-0.89712 -0.12265,-1.35619 0,-0.42578 0.04384,-0.79723 0.12265,-1.14416 m 0.33642,11.59586 c -1.6032292,0 -2.971682,-1.12138 -2.971682,-2.81573 0,-1.3667 0.9759658,-2.5897 1.9519225,-3.45353 0.1892335,-0.15769 0.3697075,-0.3259 0.5379175,-0.48185 0.09988,0.60449 0.190982,1.12139 0.257565,1.59272 -1.0215093,0.29086 -1.7153724,1.37896 -1.7153724,2.4215 0,0.79724 0.6167656,1.87308 1.5138744,1.87308 0.08936,0 0.190991,-0.0456 0.190991,-0.15771 0,-0.0893 -0.101634,-0.15593 -0.247058,-0.2453 -0.438047,-0.25932 -0.6851043,-0.56069 -0.6851043,-1.10036 0,-0.68335 0.5168943,-1.23353 1.1669463,-1.38946 l 0.650053,3.67779 c -0.224278,0.0561 -0.425783,0.0788 -0.650053,0.0788 m 1.121388,-0.21375 c -0.234785,-1.3334 -0.53791,-3.11712 -0.616765,-3.61122 1.131911,0 1.61551,0.78497 1.71538,1.32463 0.01228,0.0893 0.03326,0.21202 0.03326,0.34694 0,0.80775 -0.336412,1.62601 -1.13191,1.93965 m -0.43804,5.87678 c 0,-0.41527 -0.380215,-0.594 -0.749922,-0.594 -0.471335,0 -0.9321547,0.29088 -0.9321547,0.7955 0,0.21376 0.078801,0.37146 0.2470487,0.52739 -0.2908526,0.11212 -0.5939848,0.33643 -0.5939848,0.6851 0,0.36971 0.3364122,0.61676 0.8305358,0.61676 0.604492,0 1.030275,-0.33641 1.030275,-0.82 0,-0.25757 -0.112131,-0.46959 -0.31364,-0.61677 0.325904,-0.14542 0.481842,-0.32416 0.481842,-0.59398 m -0.693856,0.44856 c -0.168209,-0.0893 -0.213769,-0.11212 -0.247049,-0.13493 l -0.01228,-0.0102 c -0.178725,-0.1017 -0.234793,-0.18049 -0.234793,-0.31365 0,-0.20325 0.157702,-0.34868 0.381972,-0.34868 0.224277,0 0.346927,0.13491 0.346927,0.3697 0,0.18048 -0.0666,0.30313 -0.234784,0.43805 m -0.427532,1.34567 c -0.245301,0 -0.413511,-0.15595 -0.413511,-0.39249 0,-0.21201 0.09988,-0.403 0.290861,-0.51514 0.04554,0.0228 0.05604,0.0332 0.08936,0.0439 0.134913,0.0684 0.134913,0.0684 0.157703,0.0912 0.224277,0.12265 0.303124,0.23478 0.303124,0.39248 0,0.21202 -0.180475,0.38023 -0.427532,0.38023"
       id="path182" />
    <path
       style="stroke-width:0.1121389"
       inkscape:connector-curvature="0"
       class="Clef"
       d="m 14.092181,196.88141 c 0,-1.68209 -1.200235,-2.82626 -2.836769,-2.82626 -0.112142,-0.67283 -0.213761,-1.34566 -0.313632,-1.96243 1.177463,-1.24579 2.006233,-2.65803 2.006233,-4.42949 0,-1.03201 -0.31364,-1.85028 -0.504622,-2.25499 -0.268081,-0.57124 -0.593993,-0.97606 -0.784975,-0.97606 -0.0771,0 -0.436283,0.14723 -0.795491,0.58357 -0.728899,0.85326 -0.9303975,2.27603 -0.9303975,3.21868 0,0.60627 0.056037,1.15469 0.2470575,2.42326 -0.01228,0 -0.5957338,0.59399 -0.830534,0.7955 -1.0215087,0.94265 -2.4337653,2.30935 -2.4337653,4.54162 0,2.10785 1.8275236,3.75665 3.9143513,3.75665 0.324156,0 0.627273,-0.0332 0.897118,-0.0788 0.20149,1.07758 0.336412,1.86256 0.336412,2.45654 0,1.16695 -0.606257,1.78371 -1.727643,1.78371 -0.280346,0 -0.5151302,-0.056 -0.5274033,-0.0684 -0.020984,0 -0.043839,-0.0102 -0.043839,-0.021 0,-0.0228 0.022775,-0.035 0.056037,-0.0456 0.5274023,-0.0788 1.0530473,-0.52739 1.0530473,-1.24403 0,-0.60625 -0.45907,-1.2458 -1.3001127,-1.2458 -0.7744512,0 -1.279082,0.63955 -1.279082,1.37896 0,0.74117 0.5606976,1.71712 2.0745737,1.71712 1.447283,0 2.153418,-0.82001 2.153418,-2.25504 0,-0.43628 -0.0666,-0.94091 -0.178725,-1.58045 -0.03326,-0.22428 -0.08936,-0.57297 -0.168202,-0.99875 1.098599,-0.3697 1.91687,-1.50335 1.91687,-2.66855 m -3.453533,-9.18487 c 0.112143,-0.44855 0.616766,-1.62601 1.200243,-1.62601 0.16821,0 0.448555,0.5379 0.448555,1.32288 0,1.15469 -0.87433,2.03076 -1.648798,2.80347 -0.0666,-0.44856 -0.12265,-0.89712 -0.12265,-1.35618 0,-0.42578 0.04384,-0.79724 0.12265,-1.14416 m 0.33642,11.59585 c -1.6032292,0 -2.971682,-1.12138 -2.971682,-2.81573 0,-1.3667 0.9759658,-2.5897 1.9519225,-3.45352 0.1892335,-0.1577 0.3697075,-0.32591 0.5379175,-0.48185 0.09988,0.6045 0.190982,1.12138 0.257565,1.59272 -1.0215093,0.29086 -1.7153724,1.37895 -1.7153724,2.42151 0,0.79723 0.6167656,1.87306 1.5138744,1.87306 0.08936,0 0.190991,-0.0456 0.190991,-0.15769 0,-0.0893 -0.101634,-0.15595 -0.247058,-0.24531 -0.438047,-0.25931 -0.6851043,-0.56069 -0.6851043,-1.10036 0,-0.68334 0.5168943,-1.23354 1.1669463,-1.38947 l 0.650053,3.67781 c -0.224278,0.056 -0.425783,0.0788 -0.650053,0.0788 m 1.121388,-0.21376 c -0.234785,-1.3334 -0.53791,-3.1171 -0.616765,-3.61123 1.131911,0 1.61551,0.78498 1.71538,1.32465 0.01228,0.0893 0.03326,0.21201 0.03326,0.34693 0,0.80775 -0.336412,1.62601 -1.13191,1.93965 m -0.43804,5.87678 c 0,-0.41526 -0.380215,-0.59397 -0.749922,-0.59397 -0.471335,0 -0.9321547,0.29084 -0.9321547,0.79547 0,0.21378 0.078801,0.37146 0.2470487,0.52739 -0.2908526,0.11212 -0.5939848,0.33643 -0.5939848,0.68512 0,0.3697 0.3364122,0.61676 0.8305358,0.61676 0.604492,0 1.030275,-0.33642 1.030275,-0.82002 0,-0.25757 -0.112131,-0.46958 -0.31364,-0.61676 0.325904,-0.14544 0.481842,-0.32415 0.481842,-0.59399 m -0.693856,0.44855 c -0.168209,-0.0893 -0.213769,-0.11212 -0.247049,-0.13491 l -0.01228,-0.0102 c -0.178725,-0.10169 -0.234793,-0.18048 -0.234793,-0.31364 0,-0.20326 0.157702,-0.34869 0.381972,-0.34869 0.224277,0 0.346927,0.13491 0.346927,0.36971 0,0.18048 -0.0666,0.30312 -0.234784,0.43803 m -0.427532,1.34567 c -0.245301,0 -0.413511,-0.15593 -0.413511,-0.39247 0,-0.21202 0.09988,-0.403 0.290861,-0.51514 0.04554,0.0228 0.05604,0.0332 0.08936,0.0439 0.134913,0.0684 0.134913,0.0684 0.157703,0.0911 0.224277,0.12266 0.303124,0.2348 0.303124,0.39248 0,0.21202 -0.180475,0.38023 -0.427532,0.38023"
       id="path184" />
    <path
       inkscape:connector-curvature="0"
       class="Marker"
       d="m 284.28971,178.40918 h -3.69764 v 0.29142 h 0.11076 c 0.35496,0.007 0.47365,0.0247 0.52339,0.0884 0.0362,0.0548 0.0362,0.067 0.0362,0.38502 v 2.95857 c 0,0.31788 0,0.33031 -0.0362,0.38502 -0.0498,0.0637 -0.16843,0.0883 -0.52339,0.0883 h -0.11076 v 0.29142 h 2.13199 v -0.29142 h -0.20574 c -0.35268,0 -0.47139,-0.0246 -0.52226,-0.0883 -0.0373,-0.0548 -0.0373,-0.0741 -0.0373,-0.38502 v -1.41134 h 0.12547 c 0.63983,-0.0246 0.86931,0.20495 0.89531,0.89552 h 0.29166 v -2.03828 h -0.29166 c -0.0384,0.6076 -0.28035,0.84431 -0.87044,0.85133 h -0.15034 v -1.41835 c -0.006,-0.26137 0.0566,-0.30375 0.39226,-0.31087 h 0.286 c 1.01965,-0.005 1.274,0.22438 1.4673,1.29298 h 0.27243 l -0.0871,-1.5844 m 1.34973,0.0441 c -0.19896,0 -0.36174,0.16074 -0.36174,0.36026 0,0.19783 0.16278,0.36039 0.35495,0.36039 0.20462,0 0.3674,-0.16256 0.3674,-0.36039 0,-0.19952 -0.16278,-0.36026 -0.36061,-0.36026 m 0.29165,1.54722 -1.16886,0.0689 v 0.26668 h 0.31764 c 0.23626,0.006 0.26679,0.0442 0.26679,0.31087 v 1.77873 c -0.006,0.0918 -0.0125,0.12888 -0.0373,0.16064 -0.0441,0.0566 -0.16051,0.0813 -0.42956,0.0866 h -0.0418 v 0.22427 h 1.60861 v -0.22427 h -0.0418 c -0.41712,-0.0122 -0.47365,-0.0424 -0.47365,-0.26668 v -2.40578 m 1.91948,0 -1.07504,0.0689 v 0.26668 h 0.22382 c 0.23513,0.006 0.26679,0.0441 0.26679,0.31086 v 1.77874 c -0.005,0.0918 -0.0125,0.12887 -0.0373,0.16063 -0.0441,0.0566 -0.16165,0.0813 -0.42844,0.0866 h -0.0249 v 0.22429 h 1.57244 v -0.22429 h -0.0249 c -0.416,-0.0122 -0.47253,-0.0424 -0.47253,-0.26667 v -0.92028 c 0,-0.30374 0.0452,-0.58465 0.11189,-0.72766 0.13112,-0.27911 0.41147,-0.47161 0.67826,-0.47161 0.16052,0 0.34817,0.0865 0.442,0.21726 0.0927,0.136 0.13565,0.3232 0.13565,0.62174 v 1.29999 c -0.006,0.0918 -0.0125,0.12888 -0.0373,0.16065 -0.0441,0.0566 -0.1673,0.0813 -0.43408,0.0866 h -0.0248 v 0.22427 h 1.57129 V 182.673 h -0.0237 c -0.41035,-0.0122 -0.46687,-0.0424 -0.46687,-0.26668 v -1.24879 c 0,-0.44865 -0.0192,-0.5599 -0.13113,-0.77185 -0.15487,-0.29855 -0.46574,-0.47874 -0.83878,-0.47874 -0.4047,0 -0.70765,0.18732 -0.98235,0.5971 v -0.5035 m 5.44642,1.49783 c 0.005,-0.93261 -0.52339,-1.59143 -1.28077,-1.59143 -0.79696,0 -1.39384,0.69069 -1.39384,1.62331 0,0.87607 0.56523,1.46073 1.40626,1.46073 0.59462,0 1.01174,-0.29323 1.26835,-0.8832 l -0.21931,-0.11835 c -0.25433,0.47874 -0.51546,0.66593 -0.9326,0.66593 -0.31652,0 -0.546,-0.13067 -0.70878,-0.41159 -0.11076,-0.18538 -0.16052,-0.40266 -0.15487,-0.7454 h 2.01556 m -2.00877,-0.26668 c 0,-0.43622 0.19781,-1.05796 0.72121,-1.05796 0.37191,0 0.62175,0.33031 0.62175,0.83369 0,0.17488 -0.0566,0.22427 -0.25436,0.22427 h -1.0886"
       id="path190"
       style="stroke-width:0.11304324" />
    <path
       inkscape:connector-curvature="0"
       class="Jump"
       d="m 258.99968,242.69744 h 2.09017 c 0.55279,0 0.97443,-0.0871 1.30452,-0.27357 0.62739,-0.35382 0.97557,-1.06373 0.97557,-1.99634 0,-0.85687 -0.31088,-1.52834 -0.88175,-1.90251 -0.34252,-0.21705 -0.80147,-0.31539 -1.51139,-0.31539 h -1.97712 v 0.29051 h 0.1187 c 0.34817,0.008 0.46686,0.0248 0.51546,0.0882 0.0373,0.0553 0.0373,0.0678 0.0373,0.38548 v 2.95833 c 0,0.31879 0,0.3301 -0.0373,0.38548 -0.0486,0.0633 -0.16729,0.0814 -0.51546,0.0882 h -0.1187 v 0.29165 m 1.72278,-0.29165 c -0.31765,0 -0.35495,-0.0384 -0.35495,-0.34252 v -3.21495 c 0,-0.30408 0.0441,-0.34817 0.35495,-0.34817 h 0.3233 c 1.0626,0 1.50461,0.57992 1.50461,1.95226 0,1.39381 -0.39905,1.95338 -1.40626,1.95338 h -0.42165 m 3.78468,-0.39904 c -0.21704,0 -0.39225,0.17522 -0.39225,0.38661 0,0.21704 0.17521,0.38999 0.38774,0.38999 0.21704,0 0.38999,-0.17295 0.38999,-0.38999 0,-0.21139 -0.17295,-0.38661 -0.38548,-0.38661 m 4.84843,-3.84234 h -0.23626 l -0.24869,0.36739 c -0.45218,-0.33009 -0.68392,-0.416 -1.11348,-0.416 -0.59009,0 -1.09313,0.2487 -1.51025,0.74496 -0.39679,0.47365 -0.58445,0.99591 -0.58445,1.63573 0,1.34183 0.87835,2.29477 2.10149,2.29477 0.99477,0 1.62895,-0.58555 1.77252,-1.62894 l -0.29166,-0.0497 c -0.16843,0.92581 -0.64096,1.38477 -1.40627,1.38477 -0.92016,0 -1.35426,-0.63417 -1.35426,-1.97599 0,-0.70878 0.0927,-1.17452 0.30297,-1.54756 0.19443,-0.34819 0.57312,-0.56523 0.9767,-0.56523 0.4352,0 0.82182,0.22949 1.05695,0.6274 0.11869,0.2046 0.20461,0.43408 0.35496,0.92582 h 0.27355 l -0.0939,-1.79739 m 1.33618,3.84234 c -0.21817,0 -0.39226,0.17522 -0.39226,0.38662 0,0.21703 0.17409,0.38999 0.3866,0.38999 0.21706,0 0.39,-0.17296 0.39,-0.38999 0,-0.2114 -0.17294,-0.38662 -0.38434,-0.38662 m 5.41364,-1.31017 c 0,-0.39226 -0.0689,-0.59234 -0.24983,-0.74044 -0.2046,-0.16843 -0.50982,-0.24869 -0.90773,-0.24869 -0.70313,0 -1.21183,0.33009 -1.21183,0.78339 0,0.22948 0.14357,0.3787 0.36061,0.3787 0.20009,0 0.33574,-0.13113 0.33574,-0.31652 0,-0.0814 -0.0316,-0.16731 -0.0939,-0.25662 -0.0373,-0.0418 -0.0418,-0.0543 -0.0418,-0.0859 0,-0.12435 0.24643,-0.2374 0.54487,-0.2374 0.20008,0 0.41712,0.0644 0.5166,0.156 0.11757,0.10067 0.16166,0.2487 0.16166,0.53018 v 0.24191 c -0.64548,0.11076 -0.85121,0.16052 -1.15643,0.27921 -0.54035,0.19896 -0.79469,0.48496 -0.79469,0.88287 0,0.44652 0.34817,0.728 0.90095,0.728 0.42842,0 0.8139,-0.17522 1.08295,-0.49174 0.0984,0.31652 0.25435,0.44199 0.54486,0.44199 0.28149,0 0.57314,-0.17973 0.57314,-0.36059 0,-0.0441 -0.0249,-0.0757 -0.0621,-0.0757 -0.0249,0 -0.0498,0.007 -0.0939,0.0249 -0.0859,0.0373 -0.12322,0.0441 -0.17296,0.0441 -0.17522,0 -0.23626,-0.1119 -0.23626,-0.42956 v -1.248 m -0.58557,0.75739 c 0,0.37303 -0.0192,0.46121 -0.12322,0.62174 -0.15487,0.22948 -0.43635,0.38435 -0.7099,0.38435 -0.286,0 -0.49061,-0.20462 -0.49061,-0.48383 0,-0.26113 0.13,-0.44879 0.40357,-0.57878 0.1933,-0.0871 0.43521,-0.1481 0.92016,-0.22948 v 0.286 m 2.4994,-3.33817 -1.14966,0.0689 v 0.26678 h 0.30408 c 0.23175,0.007 0.26113,0.0441 0.26113,0.31088 v 3.46363 c -0.006,0.0916 -0.0125,0.12888 -0.0373,0.16053 -0.0441,0.0566 -0.16052,0.0814 -0.42843,0.0859 h -0.043 v 0.22496 h 1.60974 v -0.22496 h -0.0441 c -0.416,-0.0125 -0.47253,-0.0418 -0.47253,-0.26678 v -4.0899 m 6.29538,0.0939 h -3.69877 v 0.29052 h 0.11189 c 0.35495,0.008 0.47251,0.0249 0.52226,0.0882 0.0373,0.0554 0.0373,0.0678 0.0373,0.38548 v 2.95835 c 0,0.31878 0,0.33008 -0.0373,0.38547 -0.0498,0.0633 -0.16731,0.0882 -0.52226,0.0882 h -0.11189 v 0.29165 h 2.13199 v -0.29165 h -0.20461 c -0.35381,0 -0.47139,-0.0249 -0.52339,-0.0882 -0.0362,-0.0553 -0.0362,-0.0746 -0.0362,-0.38547 v -1.41078 h 0.12547 c 0.6387,-0.0248 0.86818,0.2046 0.89531,0.8953 h 0.29165 v -2.03817 h -0.29165 c -0.0396,0.60705 -0.28148,0.84443 -0.87157,0.85122 h -0.14921 v -1.4187 c -0.006,-0.26113 0.0566,-0.30295 0.39113,-0.31086 h 0.28712 c 1.01852,-0.005 1.27287,0.22495 1.46731,1.29321 h 0.27243 l -0.0871,-1.58374 m 1.34973,0.0441 c -0.20009,0 -0.36174,0.16052 -0.36174,0.35948 0,0.19783 0.16165,0.3606 0.35496,0.3606 0.20461,0 0.36739,-0.16277 0.36739,-0.3606 0,-0.19896 -0.16278,-0.35948 -0.36061,-0.35948 m 0.29165,1.54643 -1.16999,0.0689 v 0.26678 h 0.31879 c 0.23625,0.006 0.26564,0.0441 0.26564,0.31087 v 1.77929 c -0.005,0.0916 -0.0113,0.12888 -0.0362,0.16053 -0.0441,0.0566 -0.16165,0.0814 -0.42957,0.0859 h -0.043 v 0.22496 h 1.60973 v -0.22496 h -0.043 c -0.416,-0.0125 -0.47252,-0.0418 -0.47252,-0.26678 v -2.40556 m 1.91948,0 -1.07504,0.0689 v 0.2668 h 0.22382 c 0.23513,0.006 0.26678,0.0441 0.26678,0.31087 v 1.77929 c -0.006,0.0916 -0.0125,0.12887 -0.0373,0.16053 -0.0441,0.0565 -0.16279,0.0814 -0.42956,0.0859 h -0.0237 v 0.22497 h 1.5713 v -0.22497 h -0.0248 c -0.41487,-0.0125 -0.47139,-0.0418 -0.47139,-0.26677 v -0.92017 c 0,-0.30296 0.0441,-0.58444 0.11189,-0.72688 0.13001,-0.27921 0.41149,-0.47252 0.67826,-0.47252 0.16053,0 0.34704,0.0871 0.44088,0.21819 0.0939,0.13565 0.13565,0.3233 0.13565,0.62172 v 1.30001 c -0.005,0.0916 -0.0113,0.12886 -0.0362,0.16052 -0.0441,0.0565 -0.16843,0.0814 -0.43522,0.0859 h -0.0249 v 0.22496 h 1.57244 v -0.22496 h -0.025 c -0.40922,-0.0125 -0.46574,-0.0418 -0.46574,-0.26678 v -1.248 c 0,-0.44878 -0.0203,-0.56069 -0.13113,-0.77209 -0.15486,-0.29842 -0.46574,-0.47816 -0.83877,-0.47816 -0.4047,0 -0.70878,0.18652 -0.98235,0.59687 v -0.50418 m 5.44529,1.49782 c 0.006,-0.9326 -0.52226,-1.59051 -1.28077,-1.59051 -0.79583,0 -1.39271,0.68956 -1.39271,1.62217 0,0.87608 0.56523,1.46164 1.40513,1.46164 0.59575,0 1.01287,-0.29391 1.26835,-0.884 L 293.10239,241.79 c -0.25435,0.47817 -0.51662,0.66583 -0.93261,0.66583 -0.31653,0 -0.54599,-0.13113 -0.70879,-0.41149 -0.11076,-0.18538 -0.16052,-0.40355 -0.15599,-0.74608 h 2.01556 m -2.00765,-0.26678 c 0,-0.43635 0.19783,-1.05808 0.72009,-1.05808 0.37304,0 0.62173,0.33122 0.62173,0.83426 0,0.17521 -0.0566,0.22382 -0.25435,0.22382 h -1.08747"
       id="path192"
       style="stroke-width:0.11304324" />
    <path
       inkscape:connector-curvature="0"
       class="Fingering"
       d="m 235.01303,123.68574 -0.82295,0.067 -0.018,0.16425 h 0.1085 c 0.18539,0 0.25774,0.0407 0.25774,0.13961 0,0.0441 -0.0125,0.1077 -0.0407,0.19953 l -0.57765,1.96062 c -0.0916,0.32681 -0.0961,0.33031 -0.40243,0.34444 l -0.0203,0.16255 h 1.08634 l 0.018,-0.16255 h -0.0554 c -0.21703,0 -0.28938,-0.0264 -0.28938,-0.11836 0,-0.0353 0.0192,-0.11303 0.0519,-0.22608 l 0.22044,-0.73647 c 0.12208,0.31256 0.23965,0.39735 0.53808,0.39735 0.73139,0 1.17452,-0.79482 1.17452,-1.45544 0,-0.22079 -0.0441,-0.37089 -0.14808,-0.50158 -0.11761,-0.14492 -0.29848,-0.2349 -0.47483,-0.2349 -0.23174,0 -0.47026,0.13599 -0.67261,0.38503 l 0.0667,-0.38503 m 0.46574,0.24022 c 0.20348,0 0.33914,0.15712 0.33914,0.39734 0,0.24904 -0.0769,0.5564 -0.21367,0.83551 -0.15712,0.33912 -0.33912,0.49275 -0.57764,0.49275 -0.22157,0 -0.3787,-0.17488 -0.3787,-0.4151 0,-0.40617 0.31879,-1.3105 0.83087,-1.3105"
       id="path194"
       style="stroke-width:0.11304324" />
    <path
       inkscape:connector-curvature="0"
       class="Fingering"
       d="m 23.075501,244.23483 -0.823069,0.0678 -0.01765,0.16391 h 0.107733 c 0.185395,0 0.25785,0.0407 0.25785,0.13904 0,0.0441 -0.01228,0.1085 -0.04059,0.20009 l -0.577646,1.96017 c -0.09179,0.32669 -0.0953,0.33008 -0.402662,0.34478 l -0.01944,0.16279 h 1.08623 l 0.01773,-0.16279 h -0.05481 c -0.217267,0 -0.289617,-0.0272 -0.289617,-0.11869 0,-0.035 0.01944,-0.11303 0.05124,-0.22609 l 0.220773,-0.73591 c 0.121861,0.312 0.240216,0.39678 0.538763,0.39678 0.731169,0 1.174518,-0.79469 1.174518,-1.45486 0,-0.22156 -0.04408,-0.37079 -0.148309,-0.50192 -0.118357,-0.14469 -0.298546,-0.23512 -0.475116,-0.23512 -0.231402,0 -0.469928,0.13564 -0.67306,0.38548 l 0.06718,-0.38548 m 0.466308,0.24078 c 0.203133,0 0.339129,0.15712 0.339129,0.39678 0,0.24983 -0.07767,0.55617 -0.213656,0.83539 -0.157239,0.33913 -0.339129,0.49286 -0.577654,0.49286 -0.222578,0 -0.379712,-0.17408 -0.379712,-0.41486 0,-0.40582 0.319692,-1.31017 0.831893,-1.31017"
       id="path196"
       style="stroke-width:0.11304324" />
    <path
       inkscape:connector-curvature="0"
       class="Fingering"
       d="m 43.293847,123.68574 -0.823176,0.067 -0.01765,0.16425 h 0.107722 c 0.185508,0 0.257971,0.0407 0.257971,0.13961 0,0.0441 -0.01245,0.1077 -0.04074,0.19953 l -0.577541,1.96062 c -0.0919,0.32681 -0.09541,0.33031 -0.402767,0.34444 l -0.01944,0.16255 h 1.086351 l 0.01765,-0.16255 h -0.05473 c -0.217266,0 -0.289729,-0.0264 -0.289729,-0.11836 0,-0.0353 0.01943,-0.11303 0.05123,-0.22608 l 0.220772,-0.73647 c 0.121968,0.31256 0.240218,0.39735 0.538757,0.39735 0.731282,0 1.17464,-0.79482 1.17464,-1.45544 0,-0.22079 -0.04416,-0.37089 -0.148431,-0.50158 -0.118357,-0.14492 -0.298432,-0.2349 -0.475117,-0.2349 -0.231402,0 -0.469806,0.13599 -0.672946,0.38503 l 0.06718,-0.38503 m 0.466301,0.24022 c 0.20314,0 0.339136,0.15712 0.339136,0.39734 0,0.24904 -0.07775,0.5564 -0.213769,0.83551 -0.157239,0.33912 -0.339129,0.49275 -0.577533,0.49275 -0.222586,0 -0.379825,-0.17488 -0.379825,-0.4151 0,-0.40617 0.319684,-1.3105 0.831991,-1.3105"
       id="path198"
       style="stroke-width:0.11304324" />
    <path
       inkscape:connector-curvature="0"
       class="Fingering"
       d="m 228.02357,244.23483 -0.82296,0.0678 -0.017,0.16391 h 0.10736 c 0.18539,0 0.25774,0.0407 0.25774,0.13904 0,0.0441 -0.0125,0.1085 -0.0407,0.20009 l -0.57766,1.96017 c -0.0916,0.32669 -0.095,0.33008 -0.40242,0.34478 l -0.0192,0.16279 h 1.08634 l 0.017,-0.16279 h -0.0542 c -0.21704,0 -0.28938,-0.0272 -0.28938,-0.11869 0,-0.035 0.0192,-0.11303 0.0508,-0.22609 l 0.22043,-0.73591 c 0.1221,0.312 0.24079,0.39678 0.53922,0.39678 0.73139,0 1.17452,-0.79469 1.17452,-1.45486 0,-0.22156 -0.0441,-0.37079 -0.14808,-0.50192 -0.1187,-0.14469 -0.29844,-0.23512 -0.47592,-0.23512 -0.23061,0 -0.46912,0.13564 -0.6726,0.38548 l 0.0667,-0.38548 m 0.46685,0.24078 c 0.20349,0 0.33914,0.15712 0.33914,0.39678 0,0.24983 -0.078,0.55617 -0.21366,0.83539 -0.15712,0.33913 -0.33913,0.49286 -0.57764,0.49286 -0.2227,0 -0.37983,-0.17408 -0.37983,-0.41486 0,-0.40582 0.31992,-1.31017 0.83199,-1.31017"
       id="path200"
       style="stroke-width:0.11304324" />
    <path
       inkscape:connector-curvature="0"
       class="Fingering"
       d="m 73.17242,123.68574 -0.823069,0.067 -0.01765,0.16425 h 0.107721 c 0.185386,0 0.257849,0.0407 0.257849,0.13961 0,0.0441 -0.01228,0.1077 -0.04059,0.19953 l -0.577646,1.96062 c -0.09179,0.32681 -0.0953,0.33031 -0.402662,0.34444 l -0.01944,0.16255 h 1.086229 l 0.01773,-0.16255 h -0.05481 c -0.217267,0 -0.289617,-0.0264 -0.289617,-0.11836 0,-0.0353 0.01944,-0.11303 0.05123,-0.22608 l 0.220772,-0.73647 c 0.121862,0.31256 0.240218,0.39735 0.538763,0.39735 0.731161,0 1.174519,-0.79482 1.174519,-1.45544 0,-0.22079 -0.04408,-0.37089 -0.148317,-0.50158 -0.118323,-0.14492 -0.298513,-0.2349 -0.475084,-0.2349 -0.231402,0 -0.46992,0.13599 -0.67306,0.38503 l 0.06718,-0.38503 m 0.466308,0.24022 c 0.203132,0 0.339128,0.15712 0.339128,0.39734 0,0.24904 -0.07767,0.5564 -0.213656,0.83551 -0.157239,0.33912 -0.339128,0.49275 -0.577646,0.49275 -0.222586,0 -0.379719,-0.17488 -0.379719,-0.4151 0,-0.40617 0.319691,-1.3105 0.831893,-1.3105"
       id="path202"
       style="stroke-width:0.11304324" />
    <path
       inkscape:connector-curvature="0"
       class="Fingering"
       d="m 107.2007,123.68574 -0.82409,0.067 -0.0169,0.16425 h 0.10738 c 0.1854,0 0.25775,0.0407 0.25775,0.13961 0,0.0441 -0.0124,0.1077 -0.0407,0.19953 l -0.57765,1.96062 c -0.0916,0.32681 -0.0949,0.33031 -0.40243,0.34444 l -0.0192,0.16255 h 1.08634 l 0.0181,-0.16255 h -0.0554 c -0.21705,0 -0.2894,-0.0264 -0.2894,-0.11836 0,-0.0353 0.0192,-0.11303 0.0508,-0.22608 l 0.22043,-0.73647 c 0.1221,0.31256 0.24079,0.39735 0.53923,0.39735 0.73138,0 1.17451,-0.79482 1.17451,-1.45544 0,-0.22079 -0.0441,-0.37089 -0.14809,-0.50158 -0.11868,-0.14492 -0.29843,-0.2349 -0.47477,-0.2349 -0.23174,0 -0.47026,0.13599 -0.67374,0.38503 l 0.0678,-0.38503 m 0.46573,0.24022 c 0.20349,0 0.33914,0.15712 0.33914,0.39734 0,0.24904 -0.078,0.5564 -0.21366,0.83551 -0.15712,0.33912 -0.33912,0.49275 -0.57764,0.49275 -0.2227,0 -0.37983,-0.17488 -0.37983,-0.4151 0,-0.40617 0.31991,-1.3105 0.83199,-1.3105"
       id="path204"
       style="stroke-width:0.11304324" />
    <path
       inkscape:connector-curvature="0"
       class="Fingering"
       d="m 137.07915,123.68574 -0.82296,0.067 -0.018,0.16425 h 0.10736 c 0.18539,0 0.25774,0.0407 0.25774,0.13961 0,0.0441 -0.0125,0.1077 -0.0407,0.19953 l -0.57652,1.96062 c -0.0927,0.32681 -0.0961,0.33031 -0.40357,0.34444 l -0.0192,0.16255 h 1.08635 l 0.018,-0.16255 h -0.0554 c -0.21705,0 -0.2894,-0.0264 -0.2894,-0.11836 0,-0.0353 0.0192,-0.11303 0.0509,-0.22608 l 0.22156,-0.73647 c 0.12096,0.31256 0.23966,0.39735 0.53809,0.39735 0.73138,0 1.17451,-0.79482 1.17451,-1.45544 0,-0.22079 -0.0441,-0.37089 -0.14808,-0.50158 -0.1187,-0.14492 -0.29845,-0.2349 -0.47479,-0.2349 -0.23173,0 -0.47026,0.13599 -0.67373,0.38503 l 0.0678,-0.38503 m 0.46573,0.24022 c 0.20348,0 0.33912,0.15712 0.33912,0.39734 0,0.24904 -0.078,0.5564 -0.21364,0.83551 -0.15712,0.33912 -0.33912,0.49275 -0.57765,0.49275 -0.2227,0 -0.37982,-0.17488 -0.37982,-0.4151 0,-0.40617 0.31991,-1.3105 0.83199,-1.3105"
       id="path206"
       style="stroke-width:0.11304324" />
    <path
       inkscape:connector-curvature="0"
       class="Fingering"
       d="m 171.10629,123.68574 -0.82295,0.067 -0.017,0.16425 h 0.10735 c 0.18539,0 0.25774,0.0407 0.25774,0.13961 0,0.0441 -0.0125,0.1077 -0.0407,0.19953 l -0.57766,1.96062 c -0.0916,0.32681 -0.095,0.33031 -0.40243,0.34444 l -0.0191,0.16255 h 1.08634 l 0.017,-0.16255 h -0.0542 c -0.21703,0 -0.28938,-0.0264 -0.28938,-0.11836 0,-0.0353 0.0192,-0.11303 0.0509,-0.22608 l 0.22043,-0.73647 c 0.12209,0.31256 0.24078,0.39735 0.53922,0.39735 0.73139,0 1.17452,-0.79482 1.17452,-1.45544 0,-0.22079 -0.0441,-0.37089 -0.14808,-0.50158 -0.11872,-0.14492 -0.2996,-0.2349 -0.47594,-0.2349 -0.23061,0 -0.46912,0.13599 -0.67261,0.38503 l 0.0667,-0.38503 m 0.46687,0.24022 c 0.20235,0 0.33914,0.15712 0.33914,0.39734 0,0.24904 -0.078,0.5564 -0.21366,0.83551 -0.15713,0.33912 -0.33913,0.49275 -0.57764,0.49275 -0.2227,0 -0.37983,-0.17488 -0.37983,-0.4151 0,-0.40617 0.31991,-1.3105 0.83199,-1.3105"
       id="path208"
       style="stroke-width:0.11304324" />
    <path
       inkscape:connector-curvature="0"
       class="Fingering"
       d="m 191.79096,244.23483 -0.82296,0.0678 -0.017,0.16391 h 0.10735 c 0.18538,0 0.25773,0.0407 0.25773,0.13904 0,0.0441 -0.0125,0.1085 -0.0407,0.20009 l -0.57765,1.96017 c -0.0916,0.32669 -0.095,0.33008 -0.40243,0.34478 l -0.0192,0.16279 h 1.08634 l 0.017,-0.16279 h -0.0542 c -0.21704,0 -0.28938,-0.0272 -0.28938,-0.11869 0,-0.035 0.0192,-0.11303 0.0508,-0.22609 l 0.22044,-0.73591 c 0.12208,0.312 0.24078,0.39678 0.53921,0.39678 0.7314,0 1.17451,-0.79469 1.17451,-1.45486 0,-0.22156 -0.0441,-0.37079 -0.14808,-0.50192 -0.11869,-0.14469 -0.29842,-0.23512 -0.47591,-0.23512 -0.23061,0 -0.46912,0.13564 -0.67261,0.38548 l 0.0667,-0.38548 m 0.46688,0.24078 c 0.20347,0 0.33913,0.15712 0.33913,0.39678 0,0.24983 -0.078,0.55617 -0.21365,0.83539 -0.15714,0.33913 -0.33913,0.49286 -0.57765,0.49286 -0.2227,0 -0.37983,-0.17408 -0.37983,-0.41486 0,-0.40582 0.31991,-1.31017 0.832,-1.31017"
       id="path210"
       style="stroke-width:0.11304324" />
    <path
       inkscape:connector-curvature="0"
       class="Fingering"
       d="m 200.98476,123.68574 -0.82295,0.067 -0.017,0.16425 h 0.10736 c 0.18539,0 0.25774,0.0407 0.25774,0.13961 0,0.0441 -0.0125,0.1077 -0.0407,0.19953 l -0.57765,1.96062 c -0.0916,0.32681 -0.095,0.33031 -0.40244,0.34444 l -0.0192,0.16255 h 1.08635 l 0.017,-0.16255 h -0.0542 c -0.21704,0 -0.28939,-0.0264 -0.28939,-0.11836 0,-0.0353 0.0192,-0.11303 0.0509,-0.22608 l 0.22043,-0.73647 c 0.12209,0.31256 0.24078,0.39735 0.53922,0.39735 0.73139,0 1.17452,-0.79482 1.17452,-1.45544 0,-0.22079 -0.0441,-0.37089 -0.14808,-0.50158 -0.11868,-0.14492 -0.29842,-0.2349 -0.4759,-0.2349 -0.2306,0 -0.46913,0.13599 -0.6726,0.38503 l 0.0667,-0.38503 m 0.46685,0.24022 c 0.20349,0 0.33914,0.15712 0.33914,0.39734 0,0.24904 -0.078,0.5564 -0.21365,0.83551 -0.15714,0.33912 -0.33914,0.49275 -0.57766,0.49275 -0.22269,0 -0.37983,-0.17488 -0.37983,-0.4151 0,-0.40617 0.31991,-1.3105 0.832,-1.3105"
       id="path212"
       style="stroke-width:0.11304324" />
    <path
       inkscape:connector-curvature="0"
       class="Fingering"
       d="m 229.95887,183.96039 -0.82296,0.067 -0.018,0.16426 h 0.10736 c 0.18539,0 0.25774,0.0407 0.25774,0.1396 0,0.0441 -0.0125,0.1077 -0.0407,0.19953 l -0.57766,1.96061 c -0.0916,0.32681 -0.095,0.33032 -0.40243,0.34445 l -0.0192,0.16256 h 1.08634 l 0.018,-0.16256 h -0.0553 c -0.21704,0 -0.28939,-0.0264 -0.28939,-0.11836 0,-0.0353 0.0192,-0.11303 0.0509,-0.22609 l 0.22156,-0.73646 c 0.12097,0.31256 0.23965,0.39734 0.53809,0.39734 0.73139,0 1.17452,-0.79481 1.17452,-1.45543 0,-0.22077 -0.0441,-0.37089 -0.14808,-0.50158 -0.1187,-0.14492 -0.29844,-0.2349 -0.47478,-0.2349 -0.23175,0 -0.47027,0.136 -0.67374,0.38503 l 0.0678,-0.38503 m 0.46573,0.24021 c 0.20349,0 0.33914,0.15713 0.33914,0.39736 0,0.24903 -0.078,0.55639 -0.21366,0.8355 -0.15713,0.33913 -0.33913,0.49275 -0.57764,0.49275 -0.2227,0 -0.37983,-0.17488 -0.37983,-0.41509 0,-0.40618 0.31991,-1.31052 0.83199,-1.31052"
       id="path214"
       style="stroke-width:0.11304324" />
    <path
       inkscape:connector-curvature="0"
       class="Fingering"
       d="m 264.89149,123.68574 -0.82294,0.067 -0.018,0.16425 h 0.1085 c 0.1854,0 0.25774,0.0407 0.25774,0.13961 0,0.0441 -0.0125,0.1077 -0.0407,0.19953 l -0.57765,1.96062 c -0.0916,0.32681 -0.095,0.33031 -0.40243,0.34444 l -0.0192,0.16255 h 1.08521 l 0.018,-0.16255 h -0.0542 c -0.21819,0 -0.29053,-0.0264 -0.29053,-0.11836 0,-0.0353 0.0203,-0.11303 0.0519,-0.22608 l 0.22043,-0.73647 c 0.12209,0.31256 0.24078,0.39735 0.53922,0.39735 0.73026,0 1.17451,-0.79482 1.17451,-1.45544 0,-0.22079 -0.0441,-0.37089 -0.14921,-0.50158 -0.11758,-0.14492 -0.29845,-0.2349 -0.4748,-0.2349 -0.23175,0 -0.47026,0.13599 -0.6726,0.38503 l 0.0667,-0.38503 m 0.46687,0.24022 c 0.20235,0 0.33912,0.15712 0.33912,0.39734 0,0.24904 -0.078,0.5564 -0.21364,0.83551 -0.15713,0.33912 -0.33913,0.49275 -0.57766,0.49275 -0.22268,0 -0.37982,-0.17488 -0.37982,-0.4151 0,-0.40617 0.31991,-1.3105 0.832,-1.3105"
       id="path216"
       style="stroke-width:0.11304324" />
    <path
       inkscape:connector-curvature="0"
       class="Fingering"
       d="m 159.70814,244.23483 -0.82295,0.0678 -0.018,0.16391 h 0.10736 c 0.1854,0 0.25775,0.0407 0.25775,0.13904 0,0.0441 -0.0113,0.1085 -0.0396,0.20009 l -0.57766,1.96017 c -0.0927,0.32669 -0.0961,0.33008 -0.40357,0.34478 l -0.0192,0.16279 h 1.08634 l 0.018,-0.16279 h -0.0554 c -0.21703,0 -0.28938,-0.0272 -0.28938,-0.11869 0,-0.035 0.0192,-0.11303 0.0508,-0.22609 l 0.22156,-0.73591 c 0.12097,0.312 0.23965,0.39678 0.53809,0.39678 0.73139,0 1.17453,-0.79469 1.17453,-1.45486 0,-0.22156 -0.0441,-0.37079 -0.14809,-0.50192 -0.1187,-0.14469 -0.29844,-0.23512 -0.47478,-0.23512 -0.23174,0 -0.47027,0.13564 -0.67374,0.38548 l 0.0678,-0.38548 m 0.46573,0.24078 c 0.20349,0 0.33914,0.15712 0.33914,0.39678 0,0.24983 -0.0769,0.55617 -0.21366,0.83539 -0.15713,0.33913 -0.33913,0.49286 -0.57764,0.49286 -0.2227,0 -0.37983,-0.17408 -0.37983,-0.41486 0,-0.40582 0.31991,-1.31017 0.83199,-1.31017"
       id="path218"
       style="stroke-width:0.11304324" />
    <path
       inkscape:connector-curvature="0"
       class="Fingering"
       d="m 55.159097,244.23483 -0.823183,0.0678 -0.01765,0.16391 h 0.107722 c 0.1855,0 0.25785,0.0407 0.25785,0.13904 0,0.0441 -0.01228,0.1085 -0.04059,0.20009 l -0.57754,1.96017 c -0.0919,0.32669 -0.09541,0.33008 -0.402769,0.34478 l -0.01944,0.16279 h 1.086351 l 0.01765,-0.16279 h -0.05473 c -0.217275,0 -0.28973,-0.0272 -0.28973,-0.11869 0,-0.035 0.01944,-0.11303 0.05124,-0.22609 l 0.220773,-0.73591 c 0.121861,0.312 0.240217,0.39678 0.538763,0.39678 0.731283,0 1.174633,-0.79469 1.174633,-1.45486 0,-0.22156 -0.04416,-0.37079 -0.148424,-0.50192 -0.118356,-0.14469 -0.298545,-0.23512 -0.475116,-0.23512 -0.231402,0 -0.469814,0.13564 -0.672954,0.38548 l 0.06718,-0.38548 m 0.4663,0.24078 c 0.203027,0 0.339129,0.15712 0.339129,0.39678 0,0.24983 -0.07775,0.55617 -0.213762,0.83539 -0.157239,0.33913 -0.339128,0.49286 -0.57754,0.49286 -0.222578,0 -0.379825,-0.17408 -0.379825,-0.41486 0,-0.40582 0.31969,-1.31017 0.831998,-1.31017"
       id="path220"
       style="stroke-width:0.11304324" />
    <path
       inkscape:connector-curvature="0"
       class="Fingering"
       d="m 262.36385,183.96039 -0.82296,0.067 -0.017,0.16426 h 0.10736 c 0.1854,0 0.25774,0.0407 0.25774,0.1396 0,0.0441 -0.0125,0.1077 -0.0407,0.19953 l -0.57765,1.96061 c -0.0916,0.32681 -0.095,0.33032 -0.40243,0.34445 l -0.0192,0.16256 h 1.08634 l 0.017,-0.16256 h -0.0543 c -0.21703,0 -0.28938,-0.0264 -0.28938,-0.11836 0,-0.0353 0.0192,-0.11303 0.0508,-0.22609 l 0.22043,-0.73646 c 0.12208,0.31256 0.24078,0.39734 0.53922,0.39734 0.73139,0 1.17453,-0.79481 1.17453,-1.45543 0,-0.22077 -0.0441,-0.37089 -0.1481,-0.50158 -0.1187,-0.14492 -0.29843,-0.2349 -0.47591,-0.2349 -0.23061,0 -0.46912,0.136 -0.67261,0.38503 l 0.0667,-0.38503 m 0.46687,0.24021 c 0.20347,0 0.33913,0.15713 0.33913,0.39736 0,0.24903 -0.078,0.55639 -0.21365,0.8355 -0.15713,0.33913 -0.33913,0.49275 -0.57765,0.49275 -0.2227,0 -0.37983,-0.17488 -0.37983,-0.41509 0,-0.40618 0.31991,-1.31052 0.832,-1.31052"
       id="path222"
       style="stroke-width:0.11304324" />
    <path
       inkscape:connector-curvature="0"
       class="Fingering"
       d="m 23.075501,183.96039 -0.823069,0.067 -0.01765,0.16426 h 0.107733 c 0.185395,0 0.25785,0.0407 0.25785,0.1396 0,0.0441 -0.01228,0.1077 -0.04059,0.19953 l -0.577646,1.96061 c -0.09179,0.32681 -0.0953,0.33032 -0.402662,0.34445 l -0.01944,0.16256 h 1.08623 l 0.01773,-0.16256 h -0.05481 c -0.217267,0 -0.289617,-0.0264 -0.289617,-0.11836 0,-0.0353 0.01944,-0.11303 0.05124,-0.22609 l 0.220773,-0.73646 c 0.121861,0.31256 0.240216,0.39734 0.538763,0.39734 0.731169,0 1.174518,-0.79481 1.174518,-1.45543 0,-0.22077 -0.04408,-0.37089 -0.148309,-0.50158 -0.118357,-0.14492 -0.298546,-0.2349 -0.475116,-0.2349 -0.231402,0 -0.469928,0.136 -0.67306,0.38503 l 0.06718,-0.38503 m 0.466308,0.24021 c 0.203133,0 0.339129,0.15713 0.339129,0.39736 0,0.24903 -0.07767,0.55639 -0.213656,0.8355 -0.157239,0.33913 -0.339129,0.49275 -0.577654,0.49275 -0.222578,0 -0.379712,-0.17488 -0.379712,-0.41509 0,-0.40618 0.319692,-1.31052 0.831893,-1.31052"
       id="path224"
       style="stroke-width:0.11304324" />
    <path
       inkscape:connector-curvature="0"
       class="Fingering"
       d="m 55.481496,183.96039 -0.823184,0.067 -0.01765,0.16426 h 0.107733 c 0.1855,0 0.257858,0.0407 0.257858,0.1396 0,0.0441 -0.01228,0.1077 -0.04059,0.19953 l -0.57754,1.96061 c -0.0919,0.32681 -0.09541,0.33032 -0.402775,0.34445 l -0.01944,0.16256 h 1.086344 l 0.01765,-0.16256 h -0.05473 c -0.217268,0 -0.28973,-0.0264 -0.28973,-0.11836 0,-0.0353 0.01943,-0.11303 0.05123,-0.22609 l 0.220772,-0.73646 c 0.121861,0.31256 0.240217,0.39734 0.538763,0.39734 0.731275,0 1.174633,-0.79481 1.174633,-1.45543 0,-0.22077 -0.04416,-0.37089 -0.148432,-0.50158 -0.118356,-0.14492 -0.298545,-0.2349 -0.475116,-0.2349 -0.231402,0 -0.469806,0.136 -0.672946,0.38503 l 0.06718,-0.38503 m 0.466308,0.24021 c 0.203019,0 0.339129,0.15713 0.339129,0.39736 0,0.24903 -0.07775,0.55639 -0.21377,0.8355 -0.157239,0.33913 -0.339128,0.49275 -0.577532,0.49275 -0.222586,0 -0.379825,-0.17488 -0.379825,-0.41509 0,-0.40618 0.319682,-1.31052 0.831998,-1.31052"
       id="path226"
       style="stroke-width:0.11304324" />
    <path
       inkscape:connector-curvature="0"
       class="Fingering"
       d="m 92.036514,183.96039 -0.82307,0.067 -0.01773,0.16426 h 0.107846 c 0.185387,0 0.25785,0.0407 0.25785,0.1396 0,0.0441 -0.01245,0.1077 -0.04066,0.19953 l -0.577541,1.96061 c -0.09179,0.32681 -0.09541,0.33032 -0.402662,0.34445 l -0.01944,0.16256 h 1.08623 l 0.01765,-0.16256 h -0.05473 c -0.217266,0 -0.28973,-0.0264 -0.28973,-0.11836 0,-0.0353 0.01943,-0.11303 0.05132,-0.22609 l 0.220772,-0.73646 c 0.121862,0.31256 0.240218,0.39734 0.53865,0.39734 0.731274,0 1.174632,-0.79481 1.174632,-1.45543 0,-0.22077 -0.04425,-0.37089 -0.148423,-0.50158 -0.118242,-0.14492 -0.29844,-0.2349 -0.475125,-0.2349 -0.231394,0 -0.469806,0.136 -0.672946,0.38503 l 0.06718,-0.38503 m 0.4663,0.24021 c 0.20314,0 0.339128,0.15713 0.339128,0.39736 0,0.24903 -0.07775,0.55639 -0.213761,0.8355 -0.157134,0.33913 -0.339129,0.49275 -0.577541,0.49275 -0.222586,0 -0.379711,-0.17488 -0.379711,-0.41509 0,-0.40618 0.319691,-1.31052 0.831885,-1.31052"
       id="path228"
       style="stroke-width:0.11304324" />
    <path
       inkscape:connector-curvature="0"
       class="Fingering"
       d="m 124.44205,183.96039 -0.82295,0.067 -0.017,0.16426 h 0.10736 c 0.18539,0 0.25774,0.0407 0.25774,0.1396 0,0.0441 -0.0125,0.1077 -0.0407,0.19953 l -0.57764,1.96061 c -0.0916,0.32681 -0.095,0.33032 -0.40244,0.34445 l -0.0192,0.16256 h 1.08635 l 0.017,-0.16256 h -0.0542 c -0.21705,0 -0.28939,-0.0264 -0.28939,-0.11836 0,-0.0353 0.0192,-0.11303 0.0508,-0.22609 l 0.22044,-0.73646 c 0.12208,0.31256 0.24078,0.39734 0.53921,0.39734 0.73139,0 1.17451,-0.79481 1.17451,-1.45543 0,-0.22077 -0.0441,-0.37089 -0.14808,-0.50158 -0.11869,-0.14492 -0.29842,-0.2349 -0.47591,-0.2349 -0.2306,0 -0.46913,0.136 -0.67261,0.38503 l 0.0667,-0.38503 m 0.46688,0.24021 c 0.20347,0 0.33913,0.15713 0.33913,0.39736 0,0.24903 -0.078,0.55639 -0.21367,0.8355 -0.15712,0.33913 -0.33912,0.49275 -0.57764,0.49275 -0.22269,0 -0.37983,-0.17488 -0.37983,-0.41509 0,-0.40618 0.31992,-1.31052 0.83201,-1.31052"
       id="path230"
       style="stroke-width:0.11304324" />
    <path
       inkscape:connector-curvature="0"
       class="Fingering"
       d="m 123.47553,244.23483 -0.82295,0.0678 -0.018,0.16391 h 0.10736 c 0.18539,0 0.25774,0.0407 0.25774,0.13904 0,0.0441 -0.0125,0.1085 -0.0407,0.20009 l -0.57652,1.96017 c -0.0927,0.32669 -0.0961,0.33008 -0.40356,0.34478 l -0.0192,0.16279 h 1.08635 l 0.018,-0.16279 h -0.0554 c -0.21704,0 -0.28939,-0.0272 -0.28939,-0.11869 0,-0.035 0.0192,-0.11303 0.0509,-0.22609 l 0.22156,-0.73591 c 0.12096,0.312 0.23966,0.39678 0.53809,0.39678 0.73139,0 1.17452,-0.79469 1.17452,-1.45486 0,-0.22156 -0.0441,-0.37079 -0.14808,-0.50192 -0.11871,-0.14469 -0.29844,-0.23512 -0.47478,-0.23512 -0.23175,0 -0.47026,0.13564 -0.67374,0.38548 l 0.0678,-0.38548 m 0.46573,0.24078 c 0.20347,0 0.33913,0.15712 0.33913,0.39678 0,0.24983 -0.078,0.55617 -0.21364,0.83539 -0.15714,0.33913 -0.33914,0.49286 -0.57766,0.49286 -0.22269,0 -0.37983,-0.17408 -0.37983,-0.41486 0,-0.40582 0.31991,-1.31017 0.832,-1.31017"
       id="path232"
       style="stroke-width:0.11304324" />
    <path
       inkscape:connector-curvature="0"
       class="Fingering"
       d="m 160.99798,183.96039 -0.82409,0.067 -0.017,0.16426 h 0.10736 c 0.18539,0 0.25774,0.0407 0.25774,0.1396 0,0.0441 -0.0125,0.1077 -0.0407,0.19953 l -0.57765,1.96061 c -0.0916,0.32681 -0.095,0.33032 -0.40244,0.34445 l -0.0192,0.16256 h 1.08635 l 0.018,-0.16256 h -0.0554 c -0.21704,0 -0.28939,-0.0264 -0.28939,-0.11836 0,-0.0353 0.0192,-0.11303 0.0508,-0.22609 l 0.22043,-0.73646 c 0.12207,0.31256 0.24078,0.39734 0.53922,0.39734 0.73139,0 1.17452,-0.79481 1.17452,-1.45543 0,-0.22077 -0.0441,-0.37089 -0.1481,-0.50158 -0.11869,-0.14492 -0.29842,-0.2349 -0.47478,-0.2349 -0.23173,0 -0.47025,0.136 -0.67374,0.38503 l 0.0678,-0.38503 m 0.46574,0.24021 c 0.20347,0 0.33913,0.15713 0.33913,0.39736 0,0.24903 -0.078,0.55639 -0.21365,0.8355 -0.15713,0.33913 -0.33914,0.49275 -0.57765,0.49275 -0.2227,0 -0.37983,-0.17488 -0.37983,-0.41509 0,-0.40618 0.31991,-1.31052 0.832,-1.31052"
       id="path234"
       style="stroke-width:0.11304324" />
    <path
       inkscape:connector-curvature="0"
       class="Fingering"
       d="m 193.40294,183.96039 -0.82294,0.067 -0.017,0.16426 h 0.10735 c 0.18539,0 0.25774,0.0407 0.25774,0.1396 0,0.0441 -0.0125,0.1077 -0.0407,0.19953 l -0.57767,1.96061 c -0.0916,0.32681 -0.095,0.33032 -0.40243,0.34445 l -0.0192,0.16256 h 1.08634 l 0.017,-0.16256 h -0.0542 c -0.21704,0 -0.28939,-0.0264 -0.28939,-0.11836 0,-0.0353 0.0192,-0.11303 0.0509,-0.22609 l 0.22044,-0.73646 c 0.12209,0.31256 0.24077,0.39734 0.53921,0.39734 0.73139,0 1.17453,-0.79481 1.17453,-1.45543 0,-0.22077 -0.0441,-0.37089 -0.14809,-0.50158 -0.1187,-0.14492 -0.29844,-0.2349 -0.47592,-0.2349 -0.2306,0 -0.46913,0.136 -0.6726,0.38503 l 0.0667,-0.38503 m 0.46687,0.24021 c 0.20347,0 0.33913,0.15713 0.33913,0.39736 0,0.24903 -0.078,0.55639 -0.21365,0.8355 -0.15713,0.33913 -0.33913,0.49275 -0.57765,0.49275 -0.2227,0 -0.37983,-0.17488 -0.37983,-0.41509 0,-0.40618 0.31991,-1.31052 0.832,-1.31052"
       id="path236"
       style="stroke-width:0.11304324" />
    <path
       inkscape:connector-curvature="0"
       class="Fingering"
       d="m 91.391715,244.23483 -0.823069,0.0678 -0.01773,0.16391 h 0.107846 c 0.185395,0 0.257858,0.0407 0.257858,0.13904 0,0.0441 -0.01245,0.1085 -0.04074,0.20009 l -0.57754,1.96017 c -0.09178,0.32669 -0.09541,0.33008 -0.402654,0.34478 l -0.01944,0.16279 h 1.086238 l 0.01765,-0.16279 h -0.05473 c -0.217267,0 -0.28973,-0.0272 -0.28973,-0.11869 0,-0.035 0.01944,-0.11303 0.05132,-0.22609 l 0.220772,-0.73591 c 0.121862,0.312 0.240218,0.39678 0.53865,0.39678 0.731275,0 1.174633,-0.79469 1.174633,-1.45486 0,-0.22156 -0.04416,-0.37079 -0.148424,-0.50192 -0.118249,-0.14469 -0.29844,-0.23512 -0.475124,-0.23512 -0.231402,0 -0.469806,0.13564 -0.672946,0.38548 l 0.06718,-0.38548 m 0.466308,0.24078 c 0.203141,0 0.339129,0.15712 0.339129,0.39678 0,0.24983 -0.07775,0.55617 -0.213762,0.83539 -0.157133,0.33913 -0.339136,0.49286 -0.57754,0.49286 -0.222586,0 -0.379711,-0.17408 -0.379711,-0.41486 0,-0.40582 0.319683,-1.31017 0.831884,-1.31017"
       id="path238"
       style="stroke-width:0.11304324" />
    <path
       inkscape:connector-curvature="0"
       class="Fingering"
       d="m 260.1075,244.23483 -0.82295,0.0678 -0.018,0.16391 h 0.1085 c 0.18538,0 0.25774,0.0407 0.25774,0.13904 0,0.0441 -0.0125,0.1085 -0.0407,0.20009 l -0.57765,1.96017 c -0.0916,0.32669 -0.095,0.33008 -0.40243,0.34478 l -0.0203,0.16279 h 1.08635 l 0.018,-0.16279 h -0.0543 c -0.21817,0 -0.29052,-0.0272 -0.29052,-0.11869 0,-0.035 0.0203,-0.11303 0.0519,-0.22609 l 0.22044,-0.73591 c 0.12208,0.312 0.23965,0.39678 0.53921,0.39678 0.73026,0 1.17452,-0.79469 1.17452,-1.45486 0,-0.22156 -0.0441,-0.37079 -0.14922,-0.50192 -0.11755,-0.14469 -0.29843,-0.23512 -0.47477,-0.23512 -0.23174,0 -0.47026,0.13564 -0.67262,0.38548 l 0.0667,-0.38548 m 0.46687,0.24078 c 0.20235,0 0.33912,0.15712 0.33912,0.39678 0,0.24983 -0.078,0.55617 -0.21364,0.83539 -0.15827,0.33913 -0.33914,0.49286 -0.57766,0.49286 -0.22269,0 -0.37982,-0.17408 -0.37982,-0.41486 0,-0.40582 0.31878,-1.31017 0.832,-1.31017"
       id="path240"
       style="stroke-width:0.11304324" />
  </g>
</svg>
