<?xml version="1.0" encoding="UTF-8" standalone="no"?>
<!-- Created with Inkscape (http://www.inkscape.org/) -->

<svg
   width="297mm"
   height="210mm"
   viewBox="0 0 297 210"
   version="1.1"
   id="svg401"
   inkscape:version="1.2.2 (b0a8486541, 2022-12-01)"
   sodipodi:docname="first_excercice.svg"
   xmlns:inkscape="http://www.inkscape.org/namespaces/inkscape"
   xmlns:sodipodi="http://sodipodi.sourceforge.net/DTD/sodipodi-0.dtd"
   xmlns="http://www.w3.org/2000/svg"
   xmlns:svg="http://www.w3.org/2000/svg">
  <sodipodi:namedview
     id="namedview403"
     pagecolor="#ffffff"
     bordercolor="#000000"
     borderopacity="0.25"
     inkscape:showpageshadow="2"
     inkscape:pageopacity="0.0"
     inkscape:pagecheckerboard="0"
     inkscape:deskcolor="#d1d1d1"
     inkscape:document-units="mm"
     showgrid="false"
     inkscape:zoom="0.85878226"
     inkscape:cx="232.30568"
     inkscape:cy="375.53174"
     inkscape:window-width="1280"
     inkscape:window-height="651"
     inkscape:window-x="0"
     inkscape:window-y="32"
     inkscape:window-maximized="1"
     inkscape:current-layer="layer1" />
  <defs
     id="defs398" />
  <g
     inkscape:label="Calque 1"
     inkscape:groupmode="layer"
     id="layer1">
    <polyline
       class="StaffLines"
       fill="none"
       stroke="#000000"
       stroke-width="2.73"
       stroke-linejoin="bevel"
       points="336.599,386.199 2764.6,386.199"
       id="polyline6"
       transform="matrix(0.12000057,0,0,0.22629735,-37.072624,-0.09664168)" />
    <polyline
       class="StaffLines"
       fill="none"
       stroke="#000000"
       stroke-width="2.73"
       stroke-linejoin="bevel"
       points="336.599,410.999 2764.6,410.999"
       id="polyline8"
       transform="matrix(0.12000057,0,0,0.22629735,-37.072624,-0.09664168)" />
    <polyline
       class="StaffLines"
       fill="none"
       stroke="#000000"
       stroke-width="2.73"
       stroke-linejoin="bevel"
       points="336.599,435.799 2764.6,435.799"
       id="polyline10"
       transform="matrix(0.12000057,0,0,0.22629735,-37.072624,-0.09664168)" />
    <polyline
       class="StaffLines"
       fill="none"
       stroke="#000000"
       stroke-width="2.73"
       stroke-linejoin="bevel"
       points="336.599,460.599 2764.6,460.599"
       id="polyline12"
       transform="matrix(0.12000057,0,0,0.22629735,-37.072624,-0.09664168)" />
    <polyline
       class="StaffLines"
       fill="none"
       stroke="#000000"
       stroke-width="2.73"
       stroke-linejoin="bevel"
       points="336.599,485.399 2764.6,485.399"
       id="polyline14"
       transform="matrix(0.12000057,0,0,0.22629735,-37.072624,-0.09664168)" />
    <polyline
       class="BarLine"
       fill="none"
       stroke="#000000"
       stroke-width="4.46"
       stroke-linejoin="bevel"
       points="2762.37,384.835 2762.37,486.763"
       id="polyline32"
       transform="matrix(0.12000057,0,0,0.22629735,-37.072624,-0.09664168)" />
    <polyline
       class="LedgerLine"
       fill="none"
       stroke="#000000"
       stroke-width="3.97"
       stroke-linejoin="bevel"
       points="1268.88,559.799 1317.47,559.799"
       id="polyline34"
       transform="matrix(0.12000057,0,0,0.22629735,-37.072624,-0.09664168)" />
    <polyline
       class="LedgerLine"
       fill="none"
       stroke="#000000"
       stroke-width="3.97"
       stroke-linejoin="bevel"
       points="1268.88,534.999 1317.47,534.999"
       id="polyline36"
       transform="matrix(0.12000057,0,0,0.22629735,-37.072624,-0.09664168)" />
    <polyline
       class="LedgerLine"
       fill="none"
       stroke="#000000"
       stroke-width="3.97"
       stroke-linejoin="bevel"
       points="1268.88,510.199 1317.47,510.199"
       id="polyline38"
       transform="matrix(0.12000057,0,0,0.22629735,-37.072624,-0.09664168)" />
    <polyline
       class="LedgerLine"
       fill="none"
       stroke="#000000"
       stroke-width="3.97"
       stroke-linejoin="bevel"
       points="2010.42,510.199 2059.01,510.199"
       id="polyline40"
       transform="matrix(0.12000057,0,0,0.22629735,-37.072624,-0.09664168)" />
    <polyline
       class="LedgerLine"
       fill="none"
       stroke="#000000"
       stroke-width="3.97"
       stroke-linejoin="bevel"
       points="2010.42,534.999 2059.01,534.999"
       id="polyline42"
       transform="matrix(0.12000057,0,0,0.22629735,-37.072624,-0.09664168)" />
    <polyline
       class="LedgerLine"
       fill="none"
       stroke="#000000"
       stroke-width="3.97"
       stroke-linejoin="bevel"
       points="2010.42,559.799 2059.01,559.799"
       id="polyline44"
       transform="matrix(0.12000057,0,0,0.22629735,-37.072624,-0.09664168)" />
    <polyline
       class="LedgerLine"
       fill="none"
       stroke="#000000"
       stroke-width="3.97"
       stroke-linejoin="bevel"
       points="527.342,559.799 575.934,559.799"
       id="polyline46"
       transform="matrix(0.12000057,0,0,0.22629735,-37.072624,-0.09664168)" />
    <polyline
       class="LedgerLine"
       fill="none"
       stroke="#000000"
       stroke-width="3.97"
       stroke-linejoin="bevel"
       points="527.342,534.999 575.934,534.999"
       id="polyline48"
       transform="matrix(0.12000057,0,0,0.22629735,-37.072624,-0.09664168)" />
    <polyline
       class="LedgerLine"
       fill="none"
       stroke="#000000"
       stroke-width="3.97"
       stroke-linejoin="bevel"
       points="527.342,510.199 575.934,510.199"
       id="polyline50"
       transform="matrix(0.12000057,0,0,0.22629735,-37.072624,-0.09664168)" />
    <polyline
       class="Stem"
       fill="none"
       stroke="#000000"
       stroke-width="2.48"
       stroke-linejoin="bevel"
       points="2390.61,402.765 2390.61,485.399"
       id="polyline52"
       transform="matrix(0.12000057,0,0,0.22629735,-37.072624,-0.09664168)" />
    <polyline
       class="Stem"
       fill="none"
       stroke="#000000"
       stroke-width="2.48"
       stroke-linejoin="bevel"
       points="2049.59,568.231 2049.59,435.799"
       id="polyline54"
       transform="matrix(0.12000057,0,0,0.22629735,-37.072624,-0.09664168)" />
    <polyline
       class="Stem"
       fill="none"
       stroke="#000000"
       stroke-width="2.48"
       stroke-linejoin="bevel"
       points="1649.07,439.965 1649.07,510.199"
       id="polyline56"
       transform="matrix(0.12000057,0,0,0.22629735,-37.072624,-0.09664168)" />
    <polyline
       class="Stem"
       fill="none"
       stroke="#000000"
       stroke-width="2.48"
       stroke-linejoin="bevel"
       points="1308.05,568.231 1308.05,435.799"
       id="polyline58"
       transform="matrix(0.12000057,0,0,0.22629735,-37.072624,-0.09664168)" />
    <polyline
       class="Stem"
       fill="none"
       stroke="#000000"
       stroke-width="2.48"
       stroke-linejoin="bevel"
       points="937.279,456.631 937.279,373.799"
       id="polyline60"
       transform="matrix(0.12000057,0,0,0.22629735,-37.072624,-0.09664168)" />
    <polyline
       class="Stem"
       fill="none"
       stroke="#000000"
       stroke-width="2.48"
       stroke-linejoin="bevel"
       points="566.51,568.231 566.51,435.799"
       id="polyline62"
       transform="matrix(0.12000057,0,0,0.22629735,-37.072624,-0.09664168)" />
    <path
       class="Note"
       d="m 116.1753,130.33402 c 0,0.96459 0.3683,2.04144 1.33364,2.04144 1.23691,0 2.53518,-1.90815 2.53518,-3.88294 0,-1.32587 -0.59519,-2.06598 -1.3336,-2.06598 -1.15508,0 -2.53522,1.8415 -2.53522,3.90748"
       id="path64"
       style="stroke-width:0.163471" />
    <path
       class="Note"
       d="m 160.66792,99.467063 c 0,0.964597 0.36829,2.041437 1.33364,2.041437 1.23691,0 2.53518,-1.908146 2.53518,-3.882932 0,-1.325877 -0.5952,-2.06598 -1.33361,-2.06598 -1.15508,0 -2.53521,1.841492 -2.53521,3.907475"
       id="path66"
       style="stroke-width:0.163471" />
    <path
       class="Note"
       d="m 71.683291,105.07924 c 0,0.96459 0.368281,2.04144 1.333624,2.04144 1.236917,0 2.535196,-1.90815 2.535196,-3.88294 0,-1.32587 -0.595202,-2.06598 -1.333623,-2.06598 -1.155063,0 -2.535197,1.84149 -2.535197,3.90748"
       id="path68"
       style="stroke-width:0.163471" />
    <path
       class="Note"
       d="m 205.16052,130.33402 c 0,0.96459 0.3683,2.04144 1.33363,2.04144 1.23692,0 2.53519,-1.90815 2.53519,-3.88294 0,-1.32587 -0.59519,-2.06598 -1.3336,-2.06598 -1.15508,0 -2.53522,1.8415 -2.53522,3.90748"
       id="path70"
       style="stroke-width:0.163471" />
    <path
       class="Note"
       d="m 27.1908,130.33402 c 0,0.96459 0.368282,2.04144 1.333624,2.04144 1.236918,0 2.535197,-1.90815 2.535197,-3.88294 0,-1.32587 -0.595203,-2.06598 -1.333624,-2.06598 -1.155064,0 -2.535197,1.8415 -2.535197,3.90748"
       id="path72"
       style="stroke-width:0.163471" />
    <path
       class="Note"
       d="m 249.65314,91.048806 c 0,0.964592 0.36829,2.041435 1.33361,2.041435 1.23693,0 2.53521,-1.908146 2.53521,-3.882934 0,-1.325877 -0.5952,-2.065979 -1.33361,-2.065979 -1.15508,0 -2.53521,1.841492 -2.53521,3.907478"
       id="path74"
       style="stroke-width:0.163471" />
    <path
       class="Clef"
       d="m 10.586512,120.23213 c 0,-0.83131 -0.403621,-1.18908 -0.7960845,-1.18908 -0.5003403,0 -0.9895275,0.58226 -0.9895275,1.59245 0,0.42794 0.083694,0.74361 0.2511061,1.05579 -0.3106246,0.22448 -0.619393,0.67346 -0.619393,1.37148 0,0.7401 0.3571215,1.23468 0.8816501,1.23468 0.641702,0 1.0936868,-0.67347 1.0936868,-1.64157 0,-0.51563 -0.119035,-0.94004 -0.332945,-1.23467 0.345967,-0.29114 0.511507,-0.64891 0.511507,-1.18908 m -1.1904083,3.59178 c -0.2604019,0 -0.4389621,-0.31217 -0.4389621,-0.7857 0,-0.44897 0.1060155,-0.80674 0.3087562,-1.03123 0.04837,0.0456 0.059536,0.0456 0.094871,0.0877 0.1432243,0.13679 0.1432243,0.13679 0.1674092,0.1824 0.2250604,0.24555 0.3217801,0.47002 0.3217801,0.7857 0,0.42442 -0.1915842,0.76115 -0.4538434,0.76115 m 0.4538434,-2.69385 C 9.6713992,120.95121 9.6230316,120.9056 9.5877012,120.85999 l -0.024179,-0.0211 c -0.1785614,-0.20345 -0.2380833,-0.36129 -0.2380833,-0.62787 0,-0.40689 0.1674104,-0.69802 0.4054881,-0.69802 0.2250602,0 0.368278,0.27009 0.368278,0.74011 0,0.3613 -0.07066,0.60681 -0.2492342,0.87689 m 3.3201082,-17.03997 c 0,-3.38836 -1.274104,-5.678828 -3.011359,-5.678828 -0.119036,-1.346926 -0.2269158,-2.672812 -0.3329341,-3.928527 1.2499271,-2.493919 2.1297101,-5.321044 2.1297101,-8.867243 0,-2.044946 -0.332946,-3.704041 -0.535685,-4.514216 -0.284578,-1.143537 -0.630545,-1.929242 -0.833283,-1.929242 -0.08185,0 -0.46314,0.270056 -0.84445,1.143537 -0.773764,1.708124 -0.9876567,4.556306 -0.9876567,6.44339 0,1.213645 0.059536,2.311522 0.2622581,4.851034 -0.013113,0 -0.6324047,1.189085 -0.8816512,1.592469 -1.0843775,1.887082 -2.5835521,4.623023 -2.5835521,9.091716 0,4.21968 1.939993,7.52033 4.1552693,7.52033 0.3441006,0 0.6658786,-0.0666 0.9523256,-0.15783 0.213893,2.13613 0.357121,3.72858 0.357121,4.91767 0,2.33607 -0.643568,3.57075 -1.8451295,3.57075 -0.2864475,0 -0.5356818,-0.11225 -0.5598722,-0.13679 -0.011278,0 -0.035324,-0.0211 -0.035324,-0.042 0,-0.0456 0.024179,-0.0702 0.059536,-0.0912 0.5598589,-0.15783 1.1178626,-1.07681 1.1178626,-2.49039 0,-1.21364 -0.4873286,-2.49391 -1.3801341,-2.49391 -0.8332836,0 -1.3578,1.28027 -1.3578,2.76049 0,1.48373 0.5952015,3.43746 2.2022512,3.43746 1.536363,0 2.28595,-1.64157 2.28595,-4.5143 0,-0.8734 -0.07066,-1.88358 -0.189716,-3.16386 -0.03533,-0.44897 -0.09487,-1.14699 -0.178561,-1.99935 1.166218,-0.74011 2.034847,-3.00952 2.034847,-5.32105 M 9.5040077,85.682065 C 9.6230427,84.784115 10.158732,82.427 10.778124,82.427 c 0.178562,0 0.476162,1.076822 0.476162,2.648233 0,2.311521 -0.928148,4.065327 -1.7502783,5.612178 -0.070658,-0.897947 -0.1301937,-1.795896 -0.1301937,-2.71488 0,-0.852354 0.046501,-1.595969 0.1301937,-2.290466 m 0.3571227,23.213365 c -1.7019009,0 -3.1545731,-2.24487 -3.1545731,-5.63673 0,-2.73594 1.023007,-5.184244 2.072053,-6.913492 0.2008811,-0.315701 0.3924653,-0.627867 0.5710266,-0.964598 0.1060155,1.210121 0.1897156,2.244871 0.2734114,3.188416 -1.0843764,0.582274 -1.8209415,2.760494 -1.8209415,4.847524 0,1.59596 0.6547245,3.74964 1.6070498,3.74964 0.09486,0 0.2027385,-0.0912 0.2027385,-0.31568 0,-0.1789 -0.1078729,-0.3122 -0.2622582,-0.49107 -0.46501,-0.51912 -0.7272693,-1.12243 -0.7272693,-2.20278 0,-1.36797 0.548708,-2.46937 1.2387628,-2.78155 l 0.6900676,7.36249 c -0.238082,0.0912 -0.451987,0.15783 -0.6900676,0.15783 m 1.1904046,-0.42791 c -0.249234,-2.6693 -0.571012,-6.24004 -0.654722,-7.2292 1.201572,0 1.714937,1.57142 1.820953,2.65176 0.01311,0.17887 0.03533,0.42442 0.03533,0.6945 0,1.61702 -0.357121,3.23403 -1.201573,3.88294"
       id="path76"
       style="stroke-width:0.163471" />
    <path
       class="Fingering"
       d="m 118.36651,73.822708 -1.506,0.236934 -0.0337,0.562123 h 0.19799 c 0.33962,0 0.47279,0.138042 0.47279,0.484503 0,0.155466 -0.0264,0.374748 -0.0743,0.685906 l -1.05961,6.774891 c -0.16685,1.124246 -0.174,1.142123 -0.73681,1.188059 l -0.0336,0.562123 h 1.98723 l 0.031,-0.562123 h -0.0984 c -0.396,0 -0.5292,-0.09211 -0.5292,-0.406655 0,-0.123785 0.0337,-0.389004 0.09,-0.781404 l 0.40679,-2.542451 c 0.22322,1.074913 0.43922,1.372041 0.98401,1.372041 1.34281,0 2.15521,-2.747477 2.15521,-5.028101 0,-0.763753 -0.0852,-1.279938 -0.2736,-1.732533 -0.216,-0.498532 -0.54841,-0.813312 -0.87,-0.813312 -0.4224,0 -0.86162,0.470246 -1.2348,1.329497 l 0.12484,-1.329497 m 0.8532,0.830964 c 0.37201,0 0.6204,0.544471 0.6204,1.371815 0,0.85925 -0.1403,1.920132 -0.38879,2.888911 -0.29041,1.17041 -0.62042,1.700851 -1.05961,1.700851 -0.4068,0 -0.69481,-0.608287 -0.69481,-1.43563 0,-1.403723 0.5868,-4.525947 1.52281,-4.525947"
       id="path86"
       style="stroke-width:0.164791" />
    <path
       class="Fingering"
       d="m 252.64596,76.827937 -0.2232,1.403949 c -0.0577,-0.969006 -0.47279,-1.640657 -1.01041,-1.640657 -1.25041,0 -2.03881,2.970153 -2.03881,5.027875 0,1.531129 0.48961,2.545844 1.22641,2.545844 0.522,0 0.8436,-0.388777 1.2588,-1.513249 -0.0325,0.233314 -0.0419,0.342841 -0.0419,0.498534 0,0.60806 0.2088,1.014715 0.50638,1.014715 0.66241,0 1.12562,-1.421372 1.37522,-2.436089 l -0.25801,-0.26522 c -0.3144,1.202092 -0.60479,1.842059 -0.82079,1.842059 -0.0973,0 -0.17281,-0.169723 -0.17281,-0.388778 0,-0.173342 0.0324,-0.438565 0.09,-0.845221 l 0.82919,-5.243761 h -0.71999 m -1.0932,0.622317 c 0.38759,0 0.62759,0.516411 0.62759,1.389692 0,0.90881 -0.16446,2.139189 -0.4212,3.125846 -0.2568,0.965158 -0.5556,1.403722 -0.9672,1.403722 -0.41519,0 -0.6636,-0.576379 -0.6636,-1.531128 0,-1.403723 0.46439,-4.388132 1.42441,-4.388132"
       id="path88"
       style="stroke-width:0.164791" />
    <path
       class="Fingering"
       d="m 207.35054,73.822708 -1.50481,0.236934 -0.0337,0.562123 h 0.198 c 0.3396,0 0.47278,0.138042 0.47278,0.484503 0,0.155466 -0.0264,0.374748 -0.0756,0.685906 l -1.05841,6.774891 c -0.16684,1.124246 -0.17519,1.142123 -0.7368,1.188059 l -0.0349,0.562123 h 1.98842 l 0.031,-0.562123 h -0.0996 c -0.39481,0 -0.52799,-0.09211 -0.52799,-0.406655 0,-0.123785 0.0337,-0.389004 0.09,-0.781404 l 0.40682,-2.542451 c 0.2232,1.074913 0.43798,1.372041 0.98398,1.372041 1.34281,0 2.15402,-2.747477 2.15402,-5.028101 0,-0.763753 -0.0841,-1.279938 -0.27359,-1.732533 -0.21481,-0.498532 -0.54722,-0.813312 -0.87001,-0.813312 -0.42121,0 -0.86039,0.470246 -1.23361,1.329497 l 0.12366,-1.329497 m 0.85321,0.830964 c 0.37318,0 0.62038,0.544471 0.62038,1.371815 0,0.85925 -0.14048,1.920132 -0.38759,2.888911 -0.29042,1.17041 -0.62039,1.700851 -1.05961,1.700851 -0.4068,0 -0.69479,-0.608287 -0.69479,-1.43563 0,-1.403723 0.58678,-4.525947 1.52161,-4.525947"
       id="path90"
       style="stroke-width:0.164791" />
    <path
       class="Fingering"
       d="m 29.381171,73.822708 -1.505648,0.236934 -0.03372,0.562123 h 0.198721 c 0.339361,0 0.472443,0.138042 0.472443,0.484503 0,0.155466 -0.02616,0.374748 -0.07501,0.685906 l -1.059365,6.774891 c -0.166798,1.124246 -0.174361,1.142123 -0.736804,1.188059 l -0.03384,0.562123 h 1.987569 l 0.03181,-0.562123 h -0.09936 c -0.395642,0 -0.528722,-0.09211 -0.528722,-0.406655 0,-0.123785 0.03372,-0.389004 0.09,-0.781404 l 0.406923,-2.542451 c 0.223079,1.074913 0.438721,1.372041 0.984363,1.372041 1.342447,0 2.15437,-2.747477 2.15437,-5.028101 0,-0.763753 -0.08435,-1.279938 -0.273722,-1.732533 -0.21564,-0.498532 -0.547561,-0.813312 -0.870002,-0.813312 -0.421924,0 -0.860646,0.470246 -1.233846,1.329497 l 0.123834,-1.329497 m 0.853083,0.830964 c 0.373084,0 0.620645,0.544471 0.620645,1.371815 0,0.85925 -0.140639,1.920132 -0.388082,2.888911 -0.290643,1.17041 -0.620642,1.700851 -1.059485,1.700851 -0.406802,0 -0.695524,-0.608287 -0.695524,-1.43563 0,-1.403723 0.586803,-4.525947 1.522446,-4.525947"
       id="path92"
       style="stroke-width:0.164791" />
    <path
       class="Fingering"
       d="m 74.121102,72.730144 c -0.249361,0 -0.448081,0.374749 -0.448081,0.8416 0,0.452595 0.19872,0.844995 0.438721,0.844995 0.256801,0 0.455642,-0.374749 0.455642,-0.844995 0,-0.466851 -0.198841,-0.8416 -0.446282,-0.8416 m 0.148088,3.808132 -1.590008,0.236935 -0.03181,0.562122 h 0.198719 c 0.339364,0 0.470643,0.138042 0.470643,0.484502 0,0.155469 -0.01684,0.32519 -0.07321,0.685909 l -0.481802,3.044377 c -0.157562,1.000687 -0.18192,1.216348 -0.18192,1.577067 0,0.54809 0.24936,0.968778 0.564361,0.968778 0.710643,0 1.200007,-1.389465 1.546928,-2.404408 l -0.25692,-0.26522 c -0.429363,1.234225 -0.778086,1.888223 -1.001165,1.888223 -0.08256,0 -0.140639,-0.141438 -0.140639,-0.328809 0,-0.155467 0.03372,-0.434943 0.09936,-0.873282 l 0.877444,-5.576192"
       id="path94"
       style="stroke-width:0.164791" />
    <path
       class="Fingering"
       d="m 160.96672,76.699852 -1.5072,0.236935 -0.0251,0.562123 h 0.19921 c 0.33,0 0.46319,0.138042 0.46319,0.498532 0,0.141436 -0.024,0.374975 -0.0659,0.671878 l -0.8448,5.371166 h 0.72 l 0.33841,-2.203003 c 0.3732,-2.386759 1.12681,-4.200532 1.74839,-4.200532 0.21481,0 0.34802,0.219057 0.34802,0.611681 0,0.31116 -0.0672,0.965159 -0.16685,1.55919 l -0.66119,4.232664 h 0.72001 l 0.35518,-2.262973 c 0.20882,-1.297814 0.41521,-2.171096 0.6792,-2.842973 0.29882,-0.781405 0.72241,-1.297589 1.03562,-1.297589 0.2076,0 0.324,0.205024 0.324,0.579774 0,0.219281 -0.0432,0.562349 -0.11632,0.997066 l -0.38038,2.220655 c -0.22562,1.216349 -0.23281,1.308226 -0.23281,1.74679 0,0.65762 0.2568,1.092564 0.64559,1.092564 0.27362,0 0.53762,-0.247577 0.82081,-0.749724 0.17282,-0.31116 0.28921,-0.59403 0.62762,-1.527507 l -0.25689,-0.32881 c -0.42841,1.216348 -0.7368,1.810378 -0.95161,1.810378 -0.09,0 -0.17279,-0.173134 -0.17279,-0.389005 0,-0.141435 0.024,-0.314552 0.0996,-0.767148 l 0.52079,-3.026727 c 0.0577,-0.346461 0.0996,-0.830964 0.0996,-1.174031 0,-0.827343 -0.32279,-1.421374 -0.77039,-1.421374 -0.58681,0 -1.11841,0.721437 -1.59841,2.202779 0.0349,-0.296902 0.0492,-0.562123 0.0492,-0.749497 0,-0.827343 -0.34682,-1.453282 -0.80281,-1.453282 -0.5208,0 -0.9012,0.548092 -1.48081,2.110902 l 0.23991,-2.110902"
       id="path96"
       style="stroke-width:0.164791" />
  </g>
</svg>
