<?xml version="1.0" encoding="UTF-8" standalone="no"?>
<!-- Created with Inkscape (http://www.inkscape.org/) -->

<svg
   width="297mm"
   height="210mm"
   viewBox="0 0 297 210"
   version="1.1"
   id="svg1"
   sodipodi:docname="corde_a_vide.svg"
   inkscape:version="1.3 (0e150ed6c4, 2023-07-21)"
   xmlns:inkscape="http://www.inkscape.org/namespaces/inkscape"
   xmlns:sodipodi="http://sodipodi.sourceforge.net/DTD/sodipodi-0.dtd"
   xmlns="http://www.w3.org/2000/svg"
   xmlns:svg="http://www.w3.org/2000/svg"
   xmlns:rdf="http://www.w3.org/1999/02/22-rdf-syntax-ns#"
   xmlns:cc="http://creativecommons.org/ns#"
   xmlns:dc="http://purl.org/dc/elements/1.1/">
  <title
     id="title1">corde_a_vide</title>
  <sodipodi:namedview
     id="namedview1"
     pagecolor="#ffffff"
     bordercolor="#000000"
     borderopacity="0.25"
     inkscape:showpageshadow="2"
     inkscape:pageopacity="0.0"
     inkscape:pagecheckerboard="0"
     inkscape:deskcolor="#d1d1d1"
     inkscape:document-units="mm"
     inkscape:zoom="0.52560325"
     inkscape:cx="396.68704"
     inkscape:cy="256.84772"
     inkscape:window-width="1440"
     inkscape:window-height="872"
     inkscape:window-x="-8"
     inkscape:window-y="-8"
     inkscape:window-maximized="1"
     inkscape:current-layer="layer1" />
  <defs
     id="defs1" />
  <g
     inkscape:label="Calque 1"
     inkscape:groupmode="layer"
     id="layer1">
    <polyline
       class="StaffLines"
       fill="none"
       stroke="#000000"
       stroke-width="2.73"
       stroke-linejoin="bevel"
       points="336.614,634.252 2763.78,634.252"
       id="polyline1"
       transform="matrix(0.12072618,0,0,0.12072618,-39.854542,17.641533)" />
    <polyline
       class="StaffLines"
       fill="none"
       stroke="#000000"
       stroke-width="2.73"
       stroke-linejoin="bevel"
       points="336.614,659.055 2763.78,659.055"
       id="polyline2"
       transform="matrix(0.12072618,0,0,0.12072618,-39.854542,17.641533)" />
    <polyline
       class="StaffLines"
       fill="none"
       stroke="#000000"
       stroke-width="2.73"
       stroke-linejoin="bevel"
       points="336.614,683.858 2763.78,683.858"
       id="polyline3"
       transform="matrix(0.12072618,0,0,0.12072618,-39.854542,17.641533)" />
    <polyline
       class="StaffLines"
       fill="none"
       stroke="#000000"
       stroke-width="2.73"
       stroke-linejoin="bevel"
       points="336.614,708.661 2763.78,708.661"
       id="polyline4"
       transform="matrix(0.12072618,0,0,0.12072618,-39.854542,17.641533)" />
    <polyline
       class="StaffLines"
       fill="none"
       stroke="#000000"
       stroke-width="2.73"
       stroke-linejoin="bevel"
       points="336.614,733.465 2763.78,733.465"
       id="polyline5"
       transform="matrix(0.12072618,0,0,0.12072618,-39.854542,17.641533)" />
    <polyline
       class="BarLine"
       fill="none"
       stroke="#000000"
       stroke-width="4.46"
       stroke-linejoin="bevel"
       points="2739.59,632.888 2739.59,734.829"
       id="polyline6"
       transform="matrix(0.12072618,0,0,0.12072618,-39.854542,17.641533)" />
    <polyline
       class="BarLine"
       fill="none"
       stroke="#000000"
       stroke-width="13.64"
       stroke-linejoin="bevel"
       points="2756.96,632.888 2756.96,734.829"
       id="polyline7"
       transform="matrix(0.12072618,0,0,0.12072618,-39.854542,17.641533)" />
    <polyline
       class="LedgerLine"
       fill="none"
       stroke="#000000"
       stroke-width="3.97"
       stroke-linejoin="bevel"
       points="894.891,783.071 944.49,783.071"
       id="polyline8"
       transform="matrix(0.12072618,0,0,0.12072618,-39.854542,17.641533)" />
    <polyline
       class="LedgerLine"
       fill="none"
       stroke="#000000"
       stroke-width="3.97"
       stroke-linejoin="bevel"
       points="894.891,758.268 944.49,758.268"
       id="polyline9"
       transform="matrix(0.12072618,0,0,0.12072618,-39.854542,17.641533)" />
    <polyline
       class="LedgerLine"
       fill="none"
       stroke="#000000"
       stroke-width="3.97"
       stroke-linejoin="bevel"
       points="528.133,807.874 577.732,807.874"
       id="polyline10"
       transform="matrix(0.12072618,0,0,0.12072618,-39.854542,17.641533)" />
    <polyline
       class="LedgerLine"
       fill="none"
       stroke="#000000"
       stroke-width="3.97"
       stroke-linejoin="bevel"
       points="528.133,783.071 577.732,783.071"
       id="polyline11"
       transform="matrix(0.12072618,0,0,0.12072618,-39.854542,17.641533)" />
    <polyline
       class="LedgerLine"
       fill="none"
       stroke="#000000"
       stroke-width="3.97"
       stroke-linejoin="bevel"
       points="528.133,758.268 577.732,758.268"
       id="polyline12"
       transform="matrix(0.12072618,0,0,0.12072618,-39.854542,17.641533)" />
    <polyline
       class="Stem"
       fill="none"
       stroke="#000000"
       stroke-width="2.73"
       stroke-linejoin="bevel"
       points="567.686,816.307 567.686,683.858"
       id="polyline13"
       transform="matrix(0.12072618,0,0,0.12072618,-39.854542,17.641533)" />
    <polyline
       class="Stem"
       fill="none"
       stroke="#000000"
       stroke-width="2.73"
       stroke-linejoin="bevel"
       points="934.445,779.102 934.445,683.858"
       id="polyline14"
       transform="matrix(0.12072618,0,0,0.12072618,-39.854542,17.641533)" />
    <polyline
       class="Stem"
       fill="none"
       stroke="#000000"
       stroke-width="2.73"
       stroke-linejoin="bevel"
       points="1301.2,741.898 1301.2,659.055"
       id="polyline15"
       transform="matrix(0.12072618,0,0,0.12072618,-39.854542,17.641533)" />
    <polyline
       class="Stem"
       fill="none"
       stroke="#000000"
       stroke-width="2.73"
       stroke-linejoin="bevel"
       points="2371.97,650.82 2371.97,733.465"
       id="polyline16"
       transform="matrix(0.12072618,0,0,0.12072618,-39.854542,17.641533)" />
    <polyline
       class="Stem"
       fill="none"
       stroke="#000000"
       stroke-width="2.73"
       stroke-linejoin="bevel"
       points="2005.21,688.025 2005.21,758.268"
       id="polyline17"
       transform="matrix(0.12072618,0,0,0.12072618,-39.854542,17.641533)" />
    <polyline
       class="Stem"
       fill="none"
       stroke="#000000"
       stroke-width="2.73"
       stroke-linejoin="bevel"
       points="1667.96,704.693 1667.96,621.85"
       id="polyline18"
       transform="matrix(0.12072618,0,0,0.12072618,-39.854542,17.641533)" />
    <path
       class="Note"
       d="m 202.06261,100.70453 c 0,0.51466 0.37056,1.08921 1.34186,1.08921 1.24455,0 2.55085,-1.01809 2.55085,-2.071748 0,-0.707423 -0.59888,-1.102306 -1.34186,-1.102306 -1.16219,0 -2.55085,0.982529 -2.55085,2.084844"
       id="path18"
       style="stroke-width:0.119776" />
    <path
       class="Note"
       d="m 69.230247,112.68214 c 0,0.51466 0.370556,1.08921 1.341858,1.08921 1.244553,0 2.550849,-1.0181 2.550849,-2.07175 0,-0.70742 -0.598873,-1.1023 -1.341858,-1.1023 -1.162193,0 -2.550849,0.98252 -2.550849,2.08484"
       id="path19"
       style="stroke-width:0.119776" />
    <path
       class="Note"
       d="m 246.33894,96.212913 c 0,0.514659 0.37055,1.089215 1.34185,1.089215 1.24455,0 2.55085,-1.0181 2.55085,-2.071753 0,-0.707423 -0.59888,-1.102305 -1.34185,-1.102305 -1.16221,0 -2.55085,0.982529 -2.55085,2.084843"
       id="path20"
       style="stroke-width:0.119776" />
    <path
       class="Note"
       d="m 113.50754,108.19052 c 0,0.51466 0.37056,1.08922 1.34186,1.08922 1.24455,0 2.55085,-1.0181 2.55085,-2.07176 0,-0.70742 -0.59888,-1.1023 -1.34186,-1.1023 -1.16219,0 -2.55085,0.98253 -2.55085,2.08484"
       id="path21"
       style="stroke-width:0.119776" />
    <path
       class="Note"
       d="m 24.952962,117.17376 c 0,0.51465 0.370548,1.08921 1.34185,1.08921 1.244553,0 2.550849,-1.0181 2.550849,-2.07175 0,-0.70743 -0.598873,-1.10231 -1.341858,-1.10231 -1.162194,0 -2.550841,0.98253 -2.550841,2.08485"
       id="path22"
       style="stroke-width:0.119776" />
    <path
       class="Note"
       d="m 157.78507,103.6989 c 0,0.51466 0.37056,1.08921 1.34186,1.08921 1.24455,0 2.55085,-1.0181 2.55085,-2.07174 0,-0.70743 -0.59888,-1.10231 -1.34186,-1.10231 -1.16219,0 -2.55085,0.98253 -2.55085,2.08484"
       id="path23"
       style="stroke-width:0.119776" />
    <path
       class="Clef"
       d="m 10.844787,103.15991 c 0,-1.79664 -1.2819703,-3.01872 -3.0299555,-3.01872 -0.1197765,-0.718657 -0.2283174,-1.437307 -0.3349854,-2.096077 1.2576438,-1.330632 2.1428588,-2.839046 2.1428588,-4.731134 0,-1.102306 -0.335003,-1.976294 -0.5389939,-2.408566 -0.2863328,-0.610136 -0.6344353,-1.042524 -0.8384263,-1.042524 -0.08236,0 -0.4660063,0.157264 -0.8496706,0.623315 -0.778538,0.911369 -0.993756,2.43102 -0.993756,3.437884 0,0.647535 0.05991,1.233308 0.263888,2.588275 -0.01314,0 -0.636308,0.634435 -0.887096,0.849662 -1.091079,1.006855 -2.599502,2.466617 -2.599502,4.850915 0,2.2514 1.951967,4.01248 4.180922,4.01248 0.3462206,0 0.669988,-0.0355 0.9582023,-0.0842 0.2152089,1.15096 0.3593293,1.98938 0.3593293,2.62383 0,1.24642 -0.6475436,1.90518 -1.8452996,1.90518 -0.299441,0 -0.550211,-0.0599 -0.56332,-0.0729 -0.02245,0 -0.04677,-0.0112 -0.04677,-0.0225 0,-0.0243 0.02432,-0.0374 0.05991,-0.0486 0.563312,-0.0842 1.124768,-0.56331 1.124768,-1.32875 0,-0.64755 -0.490341,-1.33063 -1.388665,-1.33063 -0.82719,0 -1.366175,0.68308 -1.366175,1.47286 0,0.79164 0.598873,1.83406 2.215846,1.83406 1.5458404,0 2.300061,-0.87585 2.300061,-2.40861 0,-0.466 -0.071089,-1.00499 -0.1908915,-1.68809 -0.035589,-0.23954 -0.095441,-0.61197 -0.1796558,-1.06675 1.1734115,-0.39489 2.0474082,-1.60574 2.0474082,-2.85028 M 7.1560661,93.349555 c 0.119776,-0.479097 0.6587704,-1.736741 1.2819877,-1.736741 0.1796647,0 0.4790969,0.574538 0.4790969,1.412964 0,1.233318 -0.9338675,2.169067 -1.7610846,2.994394 -0.07109,-0.479106 -0.130994,-0.958203 -0.130994,-1.448536 0,-0.454779 0.04677,-0.851534 0.130994,-1.222081 m 0.359329,12.385535 c -1.712405,0 -3.174049,-1.19775 -3.174049,-3.00748 0,-1.45977 1.042426,-2.766069 2.084852,-3.68871 0.202119,-0.168447 0.394883,-0.348111 0.574547,-0.514668 0.106677,0.645663 0.203991,1.197756 0.275097,1.701188 -1.091069,0.31068 -1.832182,1.47287 -1.832182,2.5864 0,0.85154 0.658771,2.00063 1.616974,2.00063 0.09543,0 0.20399,-0.0486 0.20399,-0.16843 0,-0.0954 -0.108558,-0.16657 -0.263879,-0.26201 -0.467879,-0.27698 -0.731758,-0.59888 -0.731758,-1.1753 0,-0.72988 0.552094,-1.31754 1.246408,-1.4841 l 0.6943327,3.92827 c -0.2395529,0.0599 -0.4547795,0.0842 -0.6943327,0.0842 m 1.1977558,-0.22831 c -0.2507708,-1.42422 -0.5745382,-3.3294 -0.6587615,-3.85716 1.2089912,0 1.7255227,0.83843 1.8321908,1.41485 0.013135,0.0954 0.035589,0.22645 0.035589,0.37056 0,0.86276 -0.3593204,1.73675 -1.2089912,2.07175 m -0.4678612,6.27697 c 0,-0.44353 -0.4061182,-0.63442 -0.8010007,-0.63442 -0.503432,0 -0.995638,0.31067 -0.995638,0.84965 0,0.22833 0.08422,0.39676 0.26388,0.56332 -0.310668,0.11977 -0.634445,0.35932 -0.634445,0.73176 0,0.39488 0.35933,0.65876 0.887097,0.65876 0.645662,0 1.100442,-0.35933 1.100442,-0.87586 0,-0.27511 -0.1197764,-0.50156 -0.3350031,-0.65876 0.3481025,-0.15534 0.5146678,-0.34622 0.5146678,-0.63445 m -0.7411127,0.47911 c -0.179665,-0.0954 -0.228335,-0.11978 -0.263879,-0.1441 l -0.01314,-0.0113 c -0.1909,-0.10855 -0.250789,-0.19277 -0.250789,-0.335 0,-0.21709 0.168447,-0.37243 0.407991,-0.37243 0.2395533,0 0.3705477,0.1441 0.3705477,0.3949 0,0.19275 -0.071088,0.32375 -0.2507717,0.46786 m -0.456643,1.43731 c -0.262006,0 -0.441671,-0.16657 -0.441671,-0.41922 0,-0.22645 0.106668,-0.43044 0.310659,-0.55021 0.04863,0.0243 0.05991,0.0356 0.09545,0.0468 0.144103,0.073 0.144103,0.073 0.168438,0.0973 0.239553,0.13101 0.323767,0.25078 0.323767,0.41921 0,0.22645 -0.192764,0.40611 -0.456643,0.40611"
       id="path24"
       style="stroke-width:0.119776" />
    <path
       class="TimeSig"
       d="m 16.962651,96.692054 c -0.731749,0 -0.993756,0.215227 -1.162194,0.394892 -0.03559,-0.25078 -0.05991,-0.443544 -0.05991,-0.634436 0,-0.683096 0.239544,-1.570193 1.077979,-1.570193 0.299441,0 0.479097,0.09732 0.598874,0.228326 -0.250771,0.10855 -0.454771,0.430445 -0.454771,0.707423 0,0.430445 0.334994,0.765448 0.76732,0.765448 0.430436,0 0.778538,-0.335003 0.778538,-0.765448 v -0.03745 c 0,-0.106677 -0.02432,-0.286342 -0.07295,-0.381783 -0.15533,-0.432308 -0.658762,-1.066744 -1.856517,-1.066744 -1.077979,0 -1.856526,1.029318 -2.09607,1.581403 -0.119777,0.286341 -0.299441,0.873997 -0.299441,1.543985 0,0.731758 0.203991,1.557094 0.909541,2.180293 0.696205,0.52776 1.137876,0.55209 1.557094,0.55209 0.421081,0 1.989384,-0.492201 1.989384,-1.880848 0,-1.17343 -0.922641,-1.616973 -1.676853,-1.616973 m -0.443543,2.994382 c -0.394892,0 -0.71865,-0.538985 -0.71865,-1.210846 0,-0.669997 0.323758,-1.220218 0.71865,-1.220218 0.394891,0 0.731758,0.550221 0.731758,1.220218 0,0.671861 -0.336867,1.210846 -0.731758,1.210846"
       id="path25"
       style="stroke-width:0.119776" />
    <path
       class="TimeSig"
       d="m 16.161695,104.71699 v 0.88522 H 15.16793 c -0.08422,0 -0.168429,0.073 -0.168429,0.16843 v 0.22833 c 0,0.0954 0.08422,0.16656 0.168429,0.16656 h 3.628829 c 0.09731,0 0.168429,-0.0711 0.168429,-0.16656 v -0.22833 c 0,-0.0954 -0.07109,-0.16843 -0.168429,-0.16843 h -1.06488 v -0.88522 h 1.06488 c 0.09731,0 0.168429,-0.0842 0.168429,-0.17967 v -0.22831 c 0,-0.0842 -0.07109,-0.16657 -0.168429,-0.16657 h -1.06488 v -1.90518 c 0,-0.0711 -0.03559,-0.131 -0.09545,-0.15533 l -0.144103,-0.073 c -0.02432,-0.0112 -0.05991,-0.0224 -0.08422,-0.0224 -0.0355,0.0113 -0.08422,0.0224 -0.108541,0.0468 l -1.089215,0.99377 c -0.03559,0.0375 -0.04863,0.0842 -0.04863,0.13287 v 0.98254 h -1.37742 c 0,0 1.33064,-1.43731 2.743605,-3.33126 0.04863,-0.0599 0.05991,-0.11978 0.05991,-0.16656 0,-0.0599 -0.02432,-0.10854 -0.03559,-0.11978 L 17.288326,100.261 c -0.02432,-0.0243 -0.07109,-0.0486 -0.119776,-0.0486 -0.07109,0 -1.689943,0 -1.772294,0 -0.09731,0 -0.157202,0.0729 -0.168438,0.14411 0,0 -0.05991,0.88708 -0.370556,1.85652 -0.312541,0.97131 -0.67187,1.57018 -0.982538,2.01185 0,0 -0.0355,0.0599 -0.0355,0.13288 0,0.0243 0,0.0468 0.01118,0.0711 0.04864,0.0842 0.119776,0.21522 0.119776,0.21522 0,0 0.02432,0.073 0.131004,0.073 h 2.060517"
       id="path26"
       style="stroke-width:0.119776" />
    <path
       class="Fingering"
       d="m 27.06301,89.359279 -0.879011,0.07171 -0.01899,0.175414 h 0.115046 c 0.198116,0 0.275497,0.04349 0.275497,0.14909 0,0.04713 -0.01331,0.115055 -0.04349,0.213088 L 25.89528,92.06245 c -0.09816,0.349025 -0.101894,0.352771 -0.430152,0.367858 l -0.02068,0.173479 h 1.160064 l 0.01882,-0.173479 h -0.0584 c -0.232036,0 -0.309425,-0.02822 -0.309425,-0.126406 0,-0.03763 0.02077,-0.120717 0.05467,-0.241452 l 0.235896,-0.78665 c 0.130142,0.333929 0.25654,0.424472 0.575257,0.424472 0.780978,0 1.254466,-0.848819 1.254466,-1.554352 0,-0.235772 -0.04721,-0.396098 -0.158515,-0.535657 -0.126397,-0.15477 -0.318718,-0.250992 -0.507408,-0.250992 -0.247123,0 -0.501737,0.145363 -0.718685,0.411318 l 0.07171,-0.411318 m 0.498,0.256548 c 0.21694,0 0.362179,0.167923 0.362179,0.424472 0,0.265955 -0.08307,0.594214 -0.228291,0.892288 -0.167817,0.362178 -0.362178,0.526249 -0.616792,0.526249 -0.237716,0 -0.405639,-0.186764 -0.405639,-0.443313 0,-0.433887 0.341535,-1.399696 0.888543,-1.399696"
       id="path27"
       style="stroke-width:0.120726" />
    <path
       class="Fingering"
       d="m 111.23427,106.28823 c -0.67486,0 -1.16742,0.7339 -1.16742,1.74872 0,0.99406 0.47686,1.72216 1.12757,1.72216 0.67729,0 1.15053,-0.70359 1.15053,-1.709 0,-0.51115 -0.10745,-0.93562 -0.30906,-1.26944 -0.18833,-0.30374 -0.49739,-0.49244 -0.80162,-0.49244 m -0.0338,0.20753 c 0.15815,0 0.31268,0.10564 0.42979,0.30001 0.13038,0.22636 0.17384,0.50174 0.17384,1.1638 0,0.68101 -0.0338,0.99973 -0.13038,1.21101 -0.11107,0.2377 -0.28491,0.38112 -0.46721,0.38112 -0.16419,0 -0.31509,-0.10563 -0.43099,-0.29807 -0.13522,-0.22829 -0.17263,-0.52624 -0.17263,-1.31857 0,-0.56584 0.0338,-0.84509 0.12917,-1.05829 0.11227,-0.24145 0.28491,-0.38101 0.46841,-0.38101"
       id="path28"
       style="stroke-width:0.120726" />
    <path
       class="Fingering"
       d="m 155.2124,101.51279 c -0.67606,0 -1.16742,0.73377 -1.16742,1.7486 0,0.99418 0.47686,1.72227 1.12758,1.72227 0.67727,0 1.15052,-0.70359 1.15052,-1.709 0,-0.51127 -0.10745,-0.93562 -0.30905,-1.26955 -0.18834,-0.30374 -0.49861,-0.49232 -0.80163,-0.49232 m -0.0338,0.20752 c 0.15815,0 0.31269,0.10564 0.42979,0.29989 0.13039,0.22636 0.17385,0.50174 0.17385,1.16392 0,0.6809 -0.0338,0.99973 -0.13039,1.21101 -0.11106,0.23771 -0.28491,0.38101 -0.46842,0.38101 -0.16418,0 -0.31509,-0.10564 -0.42978,-0.29808 -0.13522,-0.22817 -0.17384,-0.52624 -0.17384,-1.31845 0,-0.56596 0.035,-0.84508 0.13038,-1.05828 0.11106,-0.24146 0.28491,-0.38102 0.46841,-0.38102"
       id="path29"
       style="stroke-width:0.120726" />
    <path
       class="Fingering"
       d="m 159.97384,89.146201 c -0.14487,0 -0.25956,0.11698 -0.25956,0.262219 0,0.139559 0.11469,0.260285 0.25594,0.260285 0.1497,0 0.26439,-0.11699 0.26439,-0.260285 0,-0.145239 -0.11469,-0.262219 -0.26077,-0.262219 m 0.0869,1.178887 -0.92596,0.07171 -0.0193,0.175413 h 0.11589 c 0.198,0 0.27525,0.04349 0.27525,0.149099 0,0.04704 -0.01,0.10177 -0.0434,0.213079 l -0.28129,0.941296 c -0.0905,0.3075 -0.10624,0.375464 -0.10624,0.48665 0,0.169866 0.14608,0.300009 0.32838,0.300009 0.4153,0 0.70021,-0.430152 0.90424,-0.743198 l -0.1509,-0.08307 c -0.25112,0.381011 -0.45273,0.584798 -0.58312,0.584798 -0.0495,0 -0.0833,-0.04349 -0.0833,-0.101893 0,-0.04722 0.0193,-0.135814 0.0591,-0.26971 l 0.51067,-1.72421"
       id="path30"
       style="stroke-width:0.120726" />
    <path
       class="Fingering"
       d="m 71.340304,89.359279 -0.879012,0.07171 -0.0189,0.175414 h 0.11517 c 0.197991,0 0.275372,0.04349 0.275372,0.14909 0,0.04713 -0.01331,0.115055 -0.04349,0.213088 l -0.616783,2.093869 c -0.09803,0.349025 -0.101894,0.352771 -0.430027,0.367858 l -0.02077,0.173479 h 1.160055 l 0.01881,-0.173479 h -0.0584 c -0.232027,0 -0.309417,-0.02822 -0.309417,-0.126406 0,-0.03763 0.02077,-0.120717 0.05485,-0.241452 l 0.235772,-0.78665 c 0.130143,0.333929 0.256549,0.424472 0.575266,0.424472 0.780979,0 1.254467,-0.848819 1.254467,-1.554352 0,-0.235772 -0.04722,-0.396098 -0.158516,-0.535657 -0.126282,-0.15477 -0.318717,-0.250992 -0.507417,-0.250992 -0.247123,0 -0.501737,0.145363 -0.718676,0.411318 l 0.07171,-0.411318 m 0.497991,0.256548 c 0.216949,0 0.362178,0.167923 0.362178,0.424472 0,0.265955 -0.08307,0.594214 -0.22829,0.892288 -0.167808,0.362178 -0.362178,0.526249 -0.616792,0.526249 -0.237707,0 -0.405515,-0.186764 -0.405515,-0.443313 0,-0.433887 0.341411,-1.399696 0.888419,-1.399696"
       id="path31"
       style="stroke-width:0.120726" />
    <path
       class="Fingering"
       d="m 115.61784,89.359279 -0.87889,0.07171 -0.0193,0.175414 h 0.11469 c 0.19799,0 0.27526,0.04349 0.27526,0.14909 0,0.04713 -0.0121,0.115055 -0.0422,0.213088 l -0.61691,2.093869 c -0.099,0.349025 -0.10262,0.352771 -0.431,0.367858 l -0.0205,0.173479 h 1.16018 l 0.0193,-0.173479 h -0.0591 c -0.2318,0 -0.30906,-0.02822 -0.30906,-0.126406 0,-0.03763 0.0205,-0.120717 0.0543,-0.241452 l 0.23663,-0.78665 c 0.12917,0.333929 0.25593,0.424472 0.57465,0.424472 0.7811,0 1.25434,-0.848819 1.25434,-1.554352 0,-0.235772 -0.0471,-0.396098 -0.15815,-0.535657 -0.12676,-0.15477 -0.31872,-0.250992 -0.50705,-0.250992 -0.24748,0 -0.50222,0.145363 -0.71952,0.411318 l 0.0724,-0.411318 m 0.49739,0.256548 c 0.2173,0 0.36218,0.167923 0.36218,0.424472 0,0.265955 -0.0821,0.594214 -0.22818,0.892288 -0.16781,0.362178 -0.36218,0.526249 -0.61691,0.526249 -0.23783,0 -0.40564,-0.186764 -0.40564,-0.443313 0,-0.433887 0.34165,-1.399696 0.88855,-1.399696"
       id="path32"
       style="stroke-width:0.120726" />
    <path
       class="Fingering"
       d="m 199.54668,98.690207 c -0.67486,0 -1.16743,0.733773 -1.16743,1.748603 0,0.99406 0.47687,1.72228 1.12759,1.72228 0.67727,0 1.15052,-0.7036 1.15052,-1.70912 0,-0.511157 -0.10745,-0.935629 -0.30906,-1.269443 -0.18834,-0.303745 -0.49739,-0.49232 -0.80162,-0.49232 m -0.0338,0.207408 c 0.15815,0 0.31268,0.105638 0.42979,0.300009 0.13038,0.226356 0.17384,0.501737 0.17384,1.163796 0,0.68102 -0.0338,0.99986 -0.13038,1.21113 -0.11107,0.23759 -0.28491,0.38102 -0.46721,0.38102 -0.16419,0 -0.3151,-0.10564 -0.431,-0.29809 -0.13521,-0.22816 -0.17263,-0.52624 -0.17263,-1.31857 0,-0.56584 0.0338,-0.845081 0.12917,-1.05816 0.11228,-0.241452 0.28491,-0.381135 0.46842,-0.381135"
       id="path33"
       style="stroke-width:0.120726" />
    <path
       class="Fingering"
       d="m 203.06705,90.325088 -0.87888,0.07171 -0.0157,0.175413 h 0.1171 c 0.19196,0 0.26921,0.04349 0.26921,0.152836 0,0.04331 -0.0145,0.11699 -0.0386,0.209342 l -0.49257,1.659982 h 0.42013 l 0.19799,-0.680896 c 0.21731,-0.739444 0.65675,-1.297803 1.01893,-1.297803 0.12676,0 0.20402,0.06603 0.20402,0.186764 0,0.09802 -0.0398,0.299885 -0.0978,0.482905 l -0.38512,1.30903 h 0.41892 l 0.20765,-0.699844 c 0.12073,-0.401778 0.24145,-0.67148 0.39598,-0.879012 0.17264,-0.241452 0.42013,-0.399843 0.60364,-0.399843 0.12072,0 0.18833,0.06221 0.18833,0.177224 0,0.06798 -0.0241,0.173603 -0.0676,0.309425 l -0.22334,0.686567 c -0.12918,0.375455 -0.13401,0.405639 -0.13401,0.539527 0,0.203786 0.14971,0.337665 0.37546,0.337665 0.16056,0 0.3151,-0.07739 0.47928,-0.230101 0.10262,-0.09815 0.16781,-0.18483 0.3658,-0.473488 l -0.14849,-0.101893 c -0.25111,0.377265 -0.42978,0.560294 -0.55413,0.560294 -0.0532,0 -0.10262,-0.0529 -0.10262,-0.120726 0,-0.04349 0.0157,-0.09622 0.0592,-0.237716 l 0.30302,-0.935625 c 0.0338,-0.105639 0.0592,-0.256539 0.0592,-0.362178 0,-0.256549 -0.18954,-0.439568 -0.4491,-0.439568 -0.34407,0 -0.65314,0.222628 -0.93201,0.68102 0.0181,-0.09248 0.0278,-0.173488 0.0278,-0.232036 0,-0.256539 -0.20282,-0.448984 -0.46721,-0.448984 -0.30543,0 -0.52636,0.169867 -0.8656,0.652771 l 0.14124,-0.652771"
       id="path34"
       style="stroke-width:0.120726" />
    <path
       class="Fingering"
       d="m 66.372421,110.56508 c -0.675224,0 -1.167545,0.73389 -1.167545,1.74872 0,0.99406 0.477233,1.72215 1.127945,1.72215 0.677275,0 1.150763,-0.70359 1.150763,-1.709 0,-0.51115 -0.107565,-0.93562 -0.309417,-1.26943 -0.188575,-0.30375 -0.498,-0.49244 -0.801746,-0.49244 m -0.0339,0.20753 c 0.158516,0 0.313171,0.10563 0.430151,0.3 0.130143,0.22636 0.173479,0.50174 0.173479,1.1638 0,0.68102 -0.0339,0.99974 -0.130142,1.21101 -0.11131,0.2377 -0.284789,0.38113 -0.467808,0.38113 -0.164071,0 -0.314981,-0.10564 -0.430027,-0.29807 -0.135823,-0.2283 -0.173603,-0.52625 -0.173603,-1.31857 0,-0.56585 0.0339,-0.84508 0.130142,-1.0583 0.11131,-0.24144 0.284913,-0.381 0.467808,-0.381"
       id="path35"
       style="stroke-width:0.120726" />
    <path
       class="Fingering"
       d="m 22.679686,115.15569 c -0.675224,0 -1.167545,0.73378 -1.167545,1.74872 0,0.99406 0.477233,1.72216 1.127945,1.72216 0.677275,0 1.150763,-0.70359 1.150763,-1.709 0,-0.51116 -0.107565,-0.93562 -0.309426,-1.26956 -0.188575,-0.30362 -0.497991,-0.49232 -0.801737,-0.49232 m -0.0339,0.20753 c 0.158516,0 0.313162,0.10564 0.430152,0.29988 0.130142,0.22637 0.173479,0.50187 0.173479,1.16392 0,0.68102 -0.0339,0.99974 -0.130143,1.21101 -0.11131,0.23771 -0.284788,0.38113 -0.467808,0.38113 -0.164071,0 -0.314981,-0.10563 -0.430027,-0.29807 -0.135822,-0.22829 -0.173612,-0.52637 -0.173612,-1.31857 0,-0.56597 0.0339,-0.84509 0.130151,-1.05829 0.11131,-0.24145 0.284913,-0.38101 0.467808,-0.38101"
       id="path36"
       style="stroke-width:0.120726" />
    <path
       class="Fingering"
       d="m 243.19643,94.01195 c -0.67485,0 -1.16742,0.733773 -1.16742,1.748713 0,0.994066 0.47687,1.722168 1.12759,1.722168 0.67726,0 1.15051,-0.703598 1.15051,-1.709007 0,-0.511153 -0.10744,-0.935624 -0.30906,-1.269553 -0.18833,-0.303631 -0.49739,-0.492321 -0.80162,-0.492321 m -0.0338,0.207523 c 0.15815,0 0.31268,0.105639 0.42978,0.299885 0.13039,0.226365 0.17385,0.501861 0.17385,1.163924 0,0.68102 -0.0338,0.999729 -0.13039,1.211006 -0.11107,0.237707 -0.28492,0.381126 -0.46721,0.381126 -0.16419,0 -0.3151,-0.10563 -0.43099,-0.298065 -0.13521,-0.2283 -0.17264,-0.526374 -0.17264,-1.318571 0,-0.565965 0.0338,-0.845091 0.12918,-1.058285 0.11227,-0.241461 0.28492,-0.38102 0.46842,-0.38102"
       id="path37"
       style="stroke-width:0.120726" />
    <path
       class="Fingering"
       d="m 248.93093,90.337886 -0.1328,0.435707 c -0.0314,-0.299885 -0.27284,-0.507417 -0.58794,-0.507417 -0.72797,0 -1.18674,0.916792 -1.18674,1.554351 0,0.473488 0.28492,0.78665 0.7135,0.78665 0.30543,0 0.49135,-0.120726 0.7328,-0.467817 -0.0181,0.07357 -0.0217,0.105639 -0.0217,0.154655 0,0.1887 0.12072,0.313162 0.29336,0.313162 0.38753,0 0.65676,-0.439559 0.80162,-0.752721 l -0.15091,-0.08103 c -0.18229,0.371594 -0.35251,0.569586 -0.47686,0.569586 -0.058,0 -0.10141,-0.05467 -0.10141,-0.120726 0,-0.05467 0.0181,-0.135814 0.0532,-0.26222 l 0.48289,-1.6222 h -0.41891 m -0.63744,0.194246 c 0.22576,0 0.3658,0.158516 0.3658,0.430152 0,0.279117 -0.0966,0.660252 -0.24507,0.963882 -0.15091,0.3 -0.32475,0.435814 -0.5662,0.435814 -0.24146,0 -0.38754,-0.179274 -0.38754,-0.473479 0,-0.433897 0.27164,-1.356369 0.83301,-1.356369"
       id="path38"
       style="stroke-width:0.120726" />
    <path
       class="StaffText"
       d="m 112.86166,81.341615 h 0.3501 c 0.60967,0.0245 0.85112,0.271636 0.91752,0.935625 l 0.0302,0.307491 c 0.0737,0.68283 0.29578,0.960137 0.77265,0.960137 0.49497,0 0.73039,-0.331994 0.74971,-1.056351 h -0.25474 c -0.023,0.416866 -0.0966,0.597951 -0.25835,0.597951 -0.14004,0 -0.2004,-0.103704 -0.30182,-0.518635 l -0.0966,-0.381135 c -0.134,-0.554499 -0.36942,-0.809228 -0.83904,-0.929954 0.86923,-0.120726 1.28452,-0.469627 1.28452,-1.080864 0,-0.688501 -0.57948,-1.080854 -1.59479,-1.080854 h -2.08736 v 0.284788 h 0.10866 c 0.34406,0.0053 0.45875,0.0245 0.50825,0.08485 0.035,0.05289 0.035,0.06603 0.035,0.373529 v 2.880528 c 0,0.301811 0,0.313037 -0.035,0.373405 -0.0495,0.06035 -0.16419,0.07934 -0.50825,0.07934 h -0.10866 v 0.282863 h 1.97991 v -0.282863 h -0.10865 c -0.34407,0 -0.45876,-0.01899 -0.50826,-0.07934 -0.035,-0.06035 -0.035,-0.07162 -0.035,-0.373405 v -1.377127 m 0,-0.282863 v -1.329922 c -0.0121,-0.331994 0.0181,-0.354687 0.4165,-0.349016 h 0.32596 c 0.59881,0 0.87044,0.252803 0.87044,0.801746 0,0.63574 -0.34044,0.877192 -0.94891,0.877192 h -0.66399 m 4.09262,-0.833856 h 0.24749 l 0.95976,-0.586608 c 0.0966,-0.06035 0.15695,-0.15091 0.15695,-0.23397 0,-0.120727 -0.0905,-0.211269 -0.21127,-0.211269 -0.0966,0 -0.15694,0.03585 -0.30182,0.186765 l -0.85111,0.845082 m 1.69619,1.871259 c 0.006,-0.90545 -0.50704,-1.544935 -1.24347,-1.544935 -0.77265,0 -1.35214,0.669668 -1.35214,1.575118 0,0.850754 0.54931,1.418529 1.36421,1.418529 0.57828,0 0.98392,-0.282862 1.2314,-0.856309 l -0.21126,-0.11517 c -0.24749,0.464071 -0.50223,0.645156 -0.90544,0.645156 -0.30786,0 -0.53241,-0.126397 -0.68815,-0.398033 -0.10745,-0.181094 -0.15694,-0.392362 -0.15091,-0.724356 h 1.95576 m -1.95093,-0.260285 c 0,-0.422546 0.19437,-1.026176 0.70263,-1.026176 0.36217,0 0.60363,0.320652 0.60363,0.809227 0,0.169743 -0.0556,0.216949 -0.2499,0.216949 h -1.05636"
       id="path39"
       style="stroke-width:0.120726" />
    <path
       class="StaffText"
       d="m 71.597331,82.070799 h -0.26403 c -0.200041,1.086535 -0.471677,1.352615 -1.407302,1.371448 h -0.254614 c -0.362178,-0.01331 -0.45272,-0.07366 -0.433887,-0.29046 v -3.042788 c 0,-0.301811 0,-0.320644 0.03585,-0.373405 0.04899,-0.06035 0.164187,-0.07934 0.507408,-0.08485 h 0.1095 v -0.284913 h -1.980758 v 0.284913 h 0.109499 c 0.34323,0.0053 0.458276,0.0245 0.505482,0.08485 0.03781,0.05272 0.03781,0.06603 0.03781,0.373405 v 2.872922 c 0,0.309425 0,0.320767 -0.03781,0.375464 -0.04721,0.06035 -0.162252,0.08484 -0.505482,0.08484 h -0.109499 v 0.282987 h 3.561423 l 0.126406,-1.654434 m 2.812555,-0.288534 c 0,-0.381011 -0.06603,-0.573447 -0.241453,-0.718685 -0.198106,-0.164187 -0.494255,-0.241452 -0.880937,-0.241452 -0.680896,0 -1.177086,0.318717 -1.177086,0.760211 0,0.222504 0.139568,0.367734 0.350836,0.367734 0.192436,0 0.326439,-0.126282 0.326439,-0.307367 0,-0.07934 -0.03017,-0.162252 -0.09054,-0.247123 -0.03781,-0.04349 -0.04349,-0.05467 -0.04349,-0.08485 0,-0.120726 0.241452,-0.230225 0.53192,-0.230225 0.192436,0 0.403704,0.06035 0.499927,0.150901 0.115055,0.09816 0.158515,0.241461 0.158515,0.513088 v 0.235781 c -0.628258,0.109499 -0.828184,0.156581 -1.124324,0.271636 -0.524439,0.19437 -0.771562,0.471677 -0.771562,0.858359 0,0.433888 0.337674,0.705524 0.875266,0.705524 0.41699,0 0.790395,-0.169858 1.050804,-0.477349 0.0961,0.307491 0.246999,0.428217 0.529986,0.428217 0.271636,0 0.556549,-0.173487 0.556549,-0.348901 0,-0.04349 -0.02467,-0.07366 -0.06035,-0.07366 -0.02458,0 -0.04917,0.008 -0.09054,0.0245 -0.08502,0.03585 -0.120726,0.04349 -0.169866,0.04349 -0.169734,0 -0.230101,-0.109384 -0.230101,-0.416866 v -1.21294 m -0.565841,0.735707 c 0,0.362178 -0.01899,0.44705 -0.120726,0.60363 -0.15091,0.222496 -0.422546,0.373405 -0.688626,0.373405 -0.277183,0 -0.477233,-0.197991 -0.477233,-0.469627 0,-0.254729 0.126406,-0.435822 0.392362,-0.56222 0.186765,-0.08484 0.422546,-0.145229 0.894223,-0.222495 v 0.277307"
       id="path40"
       style="stroke-width:0.120726" />
    <path
       class="StaffText"
       d="m 159.12755,80.349732 h -0.22213 l -0.24146,0.362178 c -0.29095,-0.271636 -0.67003,-0.416865 -1.09981,-0.416865 -0.79559,0 -1.32075,0.501736 -1.32075,1.261948 0,0.658317 0.32475,0.984641 1.2133,1.214866 l 0.57345,0.143304 c 0.44669,0.115046 0.48894,0.128332 0.61449,0.224545 0.18109,0.137633 0.28009,0.337551 0.28009,0.573456 0,0.241452 -0.093,0.439443 -0.27405,0.609177 -0.19799,0.169867 -0.3984,0.235905 -0.73039,0.235905 -0.91028,0 -1.363,-0.669669 -1.51994,-1.484576 h -0.26078 l 0.0254,1.720348 h 0.23541 l 0.27165,-0.41131 c 0.40321,0.331995 0.73522,0.452721 1.26762,0.452721 0.88613,0 1.45474,-0.518635 1.45474,-1.327987 0,-0.381011 -0.12072,-0.694172 -0.36217,-0.924282 -0.16298,-0.156581 -0.3984,-0.25835 -0.8813,-0.379076 l -0.6471,-0.164187 c -0.53603,-0.137633 -0.79075,-0.373529 -0.79075,-0.741263 0,-0.422537 0.34528,-0.71313 0.85836,-0.71313 0.77748,0 1.20726,0.645165 1.37024,1.333667 h 0.25957 l -0.0737,-1.569439 m 2.20929,1.492173 c -0.74127,0 -1.31471,0.658318 -1.31471,1.503401 0,0.826134 0.57948,1.490123 1.30383,1.490123 0.72436,0 1.30264,-0.663989 1.30264,-1.497729 0,-0.82625 -0.57828,-1.495795 -1.29176,-1.495795 m 0,0.25835 c 0.42253,0 0.65795,0.441379 0.65795,1.237445 0,0.803556 -0.23542,1.237444 -0.66883,1.237444 -0.43461,0 -0.67002,-0.433888 -0.67002,-1.229838 0,-0.822505 0.22818,-1.245051 0.6809,-1.245051 m 2.72961,-1.80521 -1.11671,0.06798 v 0.25835 h 0.29577 c 0.22335,0.0053 0.25353,0.04349 0.25353,0.301819 v 3.363432 c -0.006,0.09054 -0.0121,0.126282 -0.0362,0.156457 -0.0434,0.05485 -0.15694,0.07934 -0.4165,0.08502 h -0.0422 v 0.216824 h 1.56219 v -0.216824 h -0.0411 c -0.40443,-0.01331 -0.45875,-0.04349 -0.45875,-0.260409 v -3.972609"
       id="path41"
       style="stroke-width:0.120726" />
    <path
       class="StaffText"
       d="m 203.40508,80.295763 h -0.22213 l -0.24145,0.362179 c -0.29095,-0.271636 -0.67003,-0.416866 -1.09982,-0.416866 -0.79559,0 -1.32075,0.501737 -1.32075,1.261948 0,0.658327 0.32476,0.984765 1.21331,1.214866 l 0.57344,0.143304 c 0.44669,0.115055 0.48894,0.128332 0.6145,0.224555 0.18108,0.137624 0.28008,0.337665 0.28008,0.573446 0,0.241452 -0.093,0.439444 -0.27405,0.609302 -0.19799,0.169742 -0.39839,0.235781 -0.73039,0.235781 -0.91028,0 -1.363,-0.669669 -1.51994,-1.484568 h -0.26077 l 0.0254,1.720349 h 0.23541 l 0.27164,-0.411195 c 0.40322,0.331995 0.73522,0.452721 1.26762,0.452721 0.88614,0 1.45476,-0.518759 1.45476,-1.327987 0,-0.381135 -0.12073,-0.694173 -0.36218,-0.924398 -0.16298,-0.156581 -0.3984,-0.258359 -0.8813,-0.379085 l -0.6471,-0.164187 c -0.53602,-0.137624 -0.79075,-0.373405 -0.79075,-0.741254 0,-0.422546 0.34527,-0.71313 0.85836,-0.71313 0.77748,0 1.20727,0.645157 1.37024,1.333658 h 0.25956 l -0.0737,-1.569439 m 1.5284,0.07934 c -0.19437,0 -0.35131,0.156465 -0.35131,0.348901 0,0.19437 0.15694,0.350827 0.34527,0.350827 0.19799,0 0.35493,-0.156457 0.35493,-0.350827 0,-0.192436 -0.15694,-0.348901 -0.34889,-0.348901 m 0.28249,1.503409 -1.13362,0.06603 v 0.260294 h 0.30786 c 0.22817,0.0053 0.25835,0.04154 0.25835,0.301811 v 1.726019 c -0.006,0.09055 -0.0108,0.126406 -0.0362,0.156581 -0.0411,0.05467 -0.15574,0.07916 -0.41651,0.08484 h -0.0411 v 0.216948 h 1.5634 v -0.216948 h -0.0435 c -0.40322,-0.01331 -0.45876,-0.04349 -0.45876,-0.2604 v -2.335206"
       id="path42"
       style="stroke-width:0.120726" />
    <path
       class="StaffText"
       d="m 245.94054,80.12264 h -1.55616 v 0.284797 h 0.11469 c 0.34287,0.0053 0.45875,0.0245 0.49981,0.08485 0.0434,0.05289 0.0434,0.06035 0.0434,0.373529 v 2.312628 c 0,0.820578 -0.11469,0.990312 -0.70142,1.020496 v 0.282987 h 1.72034 V 84.19894 c -0.57948,-0.03017 -0.69417,-0.199918 -0.69417,-1.020496 v -2.669135 l 1.43664,3.972618 h 0.24146 l 1.3473,-3.972618 v 3.22942 c 0,0.309301 0,0.320652 -0.0362,0.381019 -0.0483,0.06035 -0.16419,0.07916 -0.50706,0.07916 h -0.10985 v 0.282987 h 1.98111 v -0.282987 h -0.10986 c -0.34286,0 -0.45755,-0.01881 -0.50705,-0.07916 -0.0362,-0.06035 -0.0362,-0.06603 -0.0362,-0.381019 v -2.872918 c 0,-0.307491 0,-0.320652 0.0362,-0.373529 0.0495,-0.06035 0.16419,-0.07916 0.50705,-0.08485 h 0.10986 v -0.284797 h -1.51511 l -1.10464,3.218077 -1.16018,-3.218077 m 4.90268,0.04331 c -0.19437,0 -0.35131,0.156581 -0.35131,0.349017 0,0.194246 0.15694,0.350827 0.34528,0.350827 0.19799,0 0.35494,-0.156581 0.35494,-0.350827 0,-0.192436 -0.15695,-0.349017 -0.34891,-0.349017 m 0.2825,1.503401 -1.13361,0.06603 v 0.260285 h 0.30785 c 0.22817,0.0053 0.25835,0.04153 0.25835,0.301811 V 84.0235 c -0.006,0.09054 -0.0121,0.126398 -0.0362,0.156581 -0.041,0.05467 -0.15694,0.07917 -0.4165,0.08485 h -0.0422 v 0.216939 h 1.56462 v -0.216939 h -0.0434 c -0.40443,-0.01313 -0.45876,-0.04331 -0.45876,-0.260285 v -2.33533"
       id="path43"
       style="stroke-width:0.120726" />
    <path
       class="StaffText"
       d="m 25.423424,78.916346 h -1.556277 v 0.284798 h 0.11517 c 0.34323,0.0053 0.458276,0.02449 0.499811,0.08484 0.04349,0.05289 0.04349,0.06035 0.04349,0.37353 v 2.312636 c 0,0.82057 -0.11517,0.990313 -0.701778,1.020496 v 0.282978 h 1.72034 V 82.99265 c -0.579118,-0.03017 -0.694173,-0.199926 -0.694173,-1.020496 v -2.669135 l 1.437371,3.972609 h 0.241452 l 1.346934,-3.972609 v 3.22942 c 0,0.309302 0,0.320653 -0.03585,0.381011 -0.04917,0.06035 -0.164187,0.07916 -0.507408,0.07916 h -0.109504 v 0.282978 h 1.980758 V 82.99261 h -0.109499 c -0.34323,0 -0.458401,-0.01881 -0.507417,-0.07916 -0.03585,-0.06035 -0.03585,-0.06603 -0.03585,-0.381011 v -2.872921 c 0,-0.307491 0,-0.320644 0.03585,-0.37353 0.04899,-0.06035 0.164187,-0.07916 0.507417,-0.08484 h 0.109499 v -0.284802 h -1.514751 l -1.105492,3.218078 -1.160063,-3.218078 m 4.902571,0.04331 c -0.194246,0 -0.350827,0.156581 -0.350827,0.349017 0,0.194246 0.156581,0.350827 0.34528,0.350827 0.197983,0 0.354573,-0.156581 0.354573,-0.350827 0,-0.192436 -0.15659,-0.349017 -0.349026,-0.349017 m 0.282987,1.5034 -1.133625,0.06603 v 0.260285 h 0.307375 c 0.228291,0.0053 0.258475,0.04154 0.258475,0.301819 v 1.72602 c -0.0053,0.09054 -0.01136,0.126397 -0.03585,0.156581 -0.04153,0.05467 -0.156581,0.07916 -0.416866,0.08485 h -0.04153 v 0.216948 h 1.563768 v -0.216948 h -0.04331 c -0.403713,-0.01314 -0.4584,-0.04331 -0.4584,-0.260285 v -2.33533"
       id="path44"
       style="stroke-width:0.120726" />
  </g>
  <metadata
     id="metadata1">
    <rdf:RDF>
      <cc:Work
         rdf:about="">
        <dc:title>corde_a_vide</dc:title>
      </cc:Work>
    </rdf:RDF>
  </metadata>
</svg>
