<?xml version="1.0" encoding="UTF-8" standalone="no"?>
<svg
   width="297mm"
   height="210mm"
   viewBox="0 0 4209.4489 2976.378"
   version="1.2"
   id="svg378"
   sodipodi:docname="boogie_en_sol.svg"
   inkscape:version="1.2.2 (b0a8486541, 2022-12-01)"
   xmlns:inkscape="http://www.inkscape.org/namespaces/inkscape"
   xmlns:sodipodi="http://sodipodi.sourceforge.net/DTD/sodipodi-0.dtd"
   xmlns="http://www.w3.org/2000/svg"
   xmlns:svg="http://www.w3.org/2000/svg"
   xmlns:rdf="http://www.w3.org/1999/02/22-rdf-syntax-ns#"
   xmlns:cc="http://creativecommons.org/ns#"
   xmlns:dc="http://purl.org/dc/elements/1.1/">
  <defs
     id="defs382" />
  <sodipodi:namedview
     id="namedview380"
     pagecolor="#ffffff"
     bordercolor="#000000"
     borderopacity="0.25"
     inkscape:showpageshadow="2"
     inkscape:pageopacity="0.0"
     inkscape:pagecheckerboard="0"
     inkscape:deskcolor="#d1d1d1"
     inkscape:document-units="mm"
     showgrid="false"
     inkscape:zoom="0.34128173"
     inkscape:cx="682.72041"
     inkscape:cy="445.37984"
     inkscape:window-width="1104"
     inkscape:window-height="552"
     inkscape:window-x="0"
     inkscape:window-y="32"
     inkscape:window-maximized="1"
     inkscape:current-layer="svg378" />
  <title
     id="title2">boogie_en_sol.mscx</title>
  <desc
     id="desc4">Generated by MuseScore Studio 4.6.5</desc>
  <polyline
     class="StaffLines"
     fill="none"
     stroke="#000000"
     stroke-width="2.73"
     stroke-linejoin="bevel"
     points="336.598,634.198 2764.6,634.198"
     id="polyline6"
     transform="matrix(1.393874,0,0,1.393874,10.067328,-120.85248)" />
  <polyline
     class="StaffLines"
     fill="none"
     stroke="#000000"
     stroke-width="2.73"
     stroke-linejoin="bevel"
     points="336.598,658.998 2764.6,658.998"
     id="polyline8"
     transform="matrix(1.393874,0,0,1.393874,10.067328,-120.85248)" />
  <polyline
     class="StaffLines"
     fill="none"
     stroke="#000000"
     stroke-width="2.73"
     stroke-linejoin="bevel"
     points="336.598,683.798 2764.6,683.798"
     id="polyline10"
     transform="matrix(1.393874,0,0,1.393874,10.067328,-120.85248)" />
  <polyline
     class="StaffLines"
     fill="none"
     stroke="#000000"
     stroke-width="2.73"
     stroke-linejoin="bevel"
     points="336.598,708.598 2764.6,708.598"
     id="polyline12"
     transform="matrix(1.393874,0,0,1.393874,10.067328,-120.85248)" />
  <polyline
     class="StaffLines"
     fill="none"
     stroke="#000000"
     stroke-width="2.73"
     stroke-linejoin="bevel"
     points="336.598,733.398 2764.6,733.398"
     id="polyline14"
     transform="matrix(1.393874,0,0,1.393874,10.067328,-120.85248)" />
  <polyline
     class="StaffLines"
     fill="none"
     stroke="#000000"
     stroke-width="2.73"
     stroke-linejoin="bevel"
     points="212.598,1241.8 2764.6,1241.8"
     id="polyline16"
     transform="matrix(1.393874,0,0,1.393874,10.067328,-120.85248)" />
  <polyline
     class="StaffLines"
     fill="none"
     stroke="#000000"
     stroke-width="2.73"
     stroke-linejoin="bevel"
     points="212.598,1266.6 2764.6,1266.6"
     id="polyline18"
     transform="matrix(1.393874,0,0,1.393874,10.067328,-120.85248)" />
  <polyline
     class="StaffLines"
     fill="none"
     stroke="#000000"
     stroke-width="2.73"
     stroke-linejoin="bevel"
     points="212.598,1291.4 2764.6,1291.4"
     id="polyline20"
     transform="matrix(1.393874,0,0,1.393874,10.067328,-120.85248)" />
  <polyline
     class="StaffLines"
     fill="none"
     stroke="#000000"
     stroke-width="2.73"
     stroke-linejoin="bevel"
     points="212.598,1316.2 2764.6,1316.2"
     id="polyline22"
     transform="matrix(1.393874,0,0,1.393874,10.067328,-120.85248)" />
  <polyline
     class="StaffLines"
     fill="none"
     stroke="#000000"
     stroke-width="2.73"
     stroke-linejoin="bevel"
     points="212.598,1341 2764.6,1341"
     id="polyline24"
     transform="matrix(1.393874,0,0,1.393874,10.067328,-120.85248)" />
  <polyline
     class="StaffLines"
     fill="none"
     stroke="#000000"
     stroke-width="2.73"
     stroke-linejoin="bevel"
     points="212.598,1849.4 2764.6,1849.4"
     id="polyline26"
     transform="matrix(1.393874,0,0,1.393874,10.067328,-120.85248)" />
  <polyline
     class="StaffLines"
     fill="none"
     stroke="#000000"
     stroke-width="2.73"
     stroke-linejoin="bevel"
     points="212.598,1874.2 2764.6,1874.2"
     id="polyline28"
     transform="matrix(1.393874,0,0,1.393874,10.067328,-120.85248)" />
  <polyline
     class="StaffLines"
     fill="none"
     stroke="#000000"
     stroke-width="2.73"
     stroke-linejoin="bevel"
     points="212.598,1899 2764.6,1899"
     id="polyline30"
     transform="matrix(1.393874,0,0,1.393874,10.067328,-120.85248)" />
  <polyline
     class="StaffLines"
     fill="none"
     stroke="#000000"
     stroke-width="2.73"
     stroke-linejoin="bevel"
     points="212.598,1923.8 2764.6,1923.8"
     id="polyline32"
     transform="matrix(1.393874,0,0,1.393874,10.067328,-120.85248)" />
  <polyline
     class="StaffLines"
     fill="none"
     stroke="#000000"
     stroke-width="2.73"
     stroke-linejoin="bevel"
     points="212.598,1948.6 2764.6,1948.6"
     id="polyline34"
     transform="matrix(1.393874,0,0,1.393874,10.067328,-120.85248)" />
  <path
     class="Text"
     d="m 1614.277,179.07716 v 7.20772 h 2.7599 c 8.7396,0.15333 11.6528,0.61052 12.8654,2.15633 0.9479,1.37296 0.9479,1.67683 0.9479,9.49646 v 72.98185 c 0,7.81963 0,8.1235 -0.9479,9.51737 -1.2126,1.5249 -4.1258,2.13542 -12.8654,2.13542 h -2.7599 v 7.20772 h 55.6574 c 26.5254,0 42.4713,-11.1942 42.4713,-30.05471 0,-15.33262 -9.6735,-24.06663 -30.6652,-27.74646 7.3597,-1.5249 10.7328,-2.91877 14.7193,-5.83754 6.2724,-4.74754 10.1056,-12.26191 10.1056,-19.92822 0,-9.95226 -6.1191,-19.62296 -15.026,-23.45611 -5.5058,-2.46019 -13.1721,-3.67983 -22.2044,-3.67983 h -55.058 m 33.7317,49.831 v -34.95697 c 0,-5.98808 2.0072,-7.51298 10.1196,-7.66631 h 6.1191 c 15.0399,0 24.5461,4.90086 24.5461,21.62735 0,15.18068 -7.3597,20.99593 -27.1248,20.99593 h -13.66 m 0,7.20772 h 13.5067 c 23.4449,0 32.0312,6.29473 32.0312,23.15225 0,20.53734 -12.8654,23.30418 -30.2052,23.30418 h -6.4537 c -7.6663,0 -9.1856,-1.5249 -8.879,-9.6484 v -36.80803 m 110.9803,-20.08015 c -18.8591,0 -33.4251,16.70558 -33.4251,38.1796 0,20.99453 14.7193,37.87435 33.1184,37.87435 18.4131,0 33.1324,-16.87982 33.1324,-38.02767 0,-21.01684 -14.7193,-38.02628 -32.8257,-38.02628 m 0,6.57769 c 10.7468,0 16.7125,11.1942 16.7125,31.44859 0,20.3854 -5.9657,31.42767 -17.0192,31.42767 -11.0394,0 -17.0052,-11.04227 -17.0052,-31.27435 0,-20.8649 5.8124,-31.60191 17.3119,-31.60191 m 76.6491,-6.57769 c -18.8591,0 -33.439,16.70558 -33.439,38.1796 0,20.99453 14.7332,37.87435 33.1324,37.87435 18.3991,0 33.1184,-16.87982 33.1184,-38.02767 0,-21.01684 -14.7193,-38.02628 -32.8118,-38.02628 m 0,6.57769 c 10.7329,0 16.6986,11.1942 16.6986,31.44859 0,20.3854 -5.9657,31.42767 -17.0052,31.42767 -11.0395,0 -17.0053,-11.04227 -17.0053,-31.27435 0,-20.8649 5.8125,-31.60191 17.3119,-31.60191 m 66.9896,55.82047 c -8.4329,-0.15332 -8.879,-0.30525 -10.7328,-1.37296 -1.0733,-0.60912 -1.8399,-2.30826 -1.8399,-3.98509 0,-4.61651 4.1398,-6.5986 14.3987,-6.90386 14.4266,-0.30525 16.7265,-0.61051 21.9396,-2.91877 9.1856,-4.13841 14.2593,-12.10858 14.2593,-22.23647 0,-6.1205 -1.3939,-9.95365 -5.5337,-15.02736 2.6205,-2.74453 3.9865,-3.68122 5.227,-3.68122 0.7667,0 1.2267,0.4795 1.5333,2.15633 0.5994,3.68122 3.0665,5.66331 6.8997,5.66331 3.9865,0 6.8997,-3.20173 6.8997,-7.34014 0,-5.22703 -4.1398,-8.90825 -10.1196,-8.90825 -4.9064,0 -7.6663,1.5472 -14.7332,7.97156 -6.4118,-4.29034 -11.3461,-5.81524 -19.0125,-5.81524 -18.2458,0 -30.2052,10.10559 -30.2052,25.4382 0,9.06018 4.9204,16.72649 12.8933,20.55964 -10.2728,2.28735 -14.566,6.90386 -14.566,15.33262 0,6.75192 3.0666,10.73701 10.2729,13.17629 -9.5062,3.52929 -14.106,8.27682 -14.106,14.57016 0,4.59561 3.0665,8.88595 7.973,11.49946 5.9797,3.0721 13.3254,4.29174 24.3649,4.29174 25.6194,0 38.3315,-8.12489 38.3315,-24.21856 0,-7.66631 -3.5265,-13.80911 -9.0323,-16.09506 -4.1398,-1.5472 -9.0462,-2.15633 -19.4724,-2.15633 h -15.6393 m 9.0323,-55.82047 c 9.5202,0 14.8866,6.5986 14.8866,18.55525 0,11.95805 -5.8264,19.16577 -15.4859,19.16577 -9.5063,0 -15.486,-7.20772 -15.486,-18.70718 0,-12.10998 5.8403,-19.01384 16.0853,-19.01384 m -1.366,68.99677 c 12.7261,0 13.6321,0 15.7926,0.32616 6.2864,0.61052 9.9662,3.98648 9.9662,8.88595 0,8.73401 -9.9662,13.78681 -26.9714,13.78681 -13.0467,0 -20.267,-3.83316 -20.267,-10.71611 0,-5.0737 2.7738,-8.44966 10.1335,-12.28281 h 11.3461 m 68.9689,-111.46672 c -4.8925,0 -8.879,3.98648 -8.879,8.90825 0,4.89947 3.9865,8.88595 8.7396,8.88595 5.0737,0 9.0602,-3.98648 9.0602,-8.88595 0,-4.92177 -3.9865,-8.90825 -8.9208,-8.90825 m 7.2203,38.17961 -28.8253,1.69913 v 6.5986 h 7.8196 c 5.8264,0.15193 6.5791,1.06771 6.5791,7.66631 v 43.84152 c -0.1533,2.30825 -0.3067,3.22403 -0.906,3.98508 -1.0733,1.37297 -3.9865,2.00439 -10.5935,2.15632 h -1.0593 v 5.50999 h 39.7254 v -5.50999 h -1.0872 c -10.2589,-0.32616 -11.6528,-1.08861 -11.6528,-6.59859 v -59.34837 m 88.0092,36.95857 c 0.1533,-22.99892 -12.8934,-39.24592 -31.5991,-39.24592 -19.6258,0 -34.359,17.00944 -34.359,40.00837 0,21.62735 13.9666,36.04558 34.6517,36.04558 14.7332,0 25.0061,-7.20912 31.3064,-21.77928 l -5.3804,-2.91878 c -6.2724,11.80472 -12.726,16.40033 -22.9989,16.40033 -7.8196,0 -13.4788,-3.20173 -17.4652,-10.10559 -2.7738,-4.5956 -3.9865,-9.97596 -3.8332,-18.40471 h 49.6777 m -49.5244,-6.5986 c 0,-10.73701 4.8925,-26.06963 17.7719,-26.06963 9.2135,0 15.3326,8.1458 15.3326,20.55964 0,4.29035 -1.3799,5.50999 -6.2724,5.50999 h -26.8321 m 168.7842,6.5986 c 0.1534,-22.99892 -12.8933,-39.24592 -31.5991,-39.24592 -19.6257,0 -34.345,17.00944 -34.345,40.00837 0,21.62735 13.9526,36.04558 34.6517,36.04558 14.7193,0 24.9921,-7.20912 31.2924,-21.77928 l -5.3803,-2.91878 c -6.2724,11.80472 -12.7121,16.40033 -22.9989,16.40033 -7.8197,0 -13.4788,-3.20173 -17.4653,-10.10559 -2.7738,-4.5956 -3.9864,-9.97596 -3.8331,-18.40471 h 49.6776 m -49.5243,-6.5986 c 0,-10.73701 4.8925,-26.06963 17.7719,-26.06963 9.2135,0 15.3326,8.1458 15.3326,20.55964 0,4.29035 -1.3799,5.50999 -6.2724,5.50999 h -26.8321 m 85.5281,-30.35997 -26.5254,1.69913 v 6.5986 h 5.5337 c 5.8124,0.15193 6.5651,1.06771 6.5651,7.66631 v 43.84152 c -0.1533,2.30825 -0.2927,3.22403 -0.906,3.98508 -1.0733,1.37297 -3.9865,2.00439 -10.5934,2.15632 h -0.5994 v 5.50999 h 38.7776 v -5.50999 h -0.5994 c -10.2868,-0.32616 -11.6528,-1.08861 -11.6528,-6.59859 v -22.69367 c 0,-7.51437 1.0594,-14.41823 2.7599,-17.94613 3.2198,-6.90385 10.1056,-11.65278 16.7125,-11.65278 3.9865,0 8.5724,2.15632 10.8862,5.38035 2.3138,3.35366 3.3732,7.97017 3.3732,15.33262 v 32.0368 c -0.1534,2.30825 -0.3067,3.22403 -0.92,3.98508 -1.0872,1.37297 -4.1537,2.00439 -10.7328,2.15632 h -0.6133 v 5.50999 h 38.7915 v -5.50999 h -0.6133 c -10.1195,-0.32616 -11.4995,-1.08861 -11.4995,-6.59859 v -30.81717 c 0,-11.04227 -0.4739,-13.80911 -3.2198,-19.01383 -3.8332,-7.36105 -11.4995,-11.80472 -20.713,-11.80472 -9.9523,0 -17.4652,4.5956 -24.2116,14.72349 v -12.43614 m 189.3439,-40.1617 h -5.687 l -6.1192,9.19121 c -7.3596,-6.90386 -17.0331,-10.58508 -27.9192,-10.58508 -20.2252,0 -33.5645,12.7414 -33.5645,32.0591 0,16.70558 8.2796,24.98101 30.8185,30.81856 l 14.5799,3.67983 c 11.3462,2.91877 12.4055,3.22403 15.6254,5.66331 4.5998,3.52789 7.0669,8.60299 7.0669,14.57016 0,6.14141 -2.3138,11.1942 -6.9136,15.48455 -5.0737,4.29034 -10.1195,5.98947 -18.5525,5.98947 -23.1522,0 -34.6517,-17.03174 -38.6382,-37.72102 h -6.593 l 0.6133,43.6882 h 5.9797 l 6.9137,-10.40945 c 10.2589,8.42875 18.6779,11.49946 32.1845,11.49946 22.539,0 36.9656,-13.19859 36.9656,-33.73593 0,-9.6707 -3.0805,-17.64227 -9.2136,-23.45751 -4.1398,-3.98509 -10.1055,-6.5986 -22.3995,-9.66931 l -16.392,-4.13841 c -13.6321,-3.52789 -20.0857,-9.49507 -20.0857,-18.86051 0,-10.73701 8.7396,-18.09806 21.7863,-18.09806 19.7651,0 30.6652,16.42123 34.805,33.88787 h 6.5651 l -1.8259,-39.85644 m 53.0369,37.87435 c -18.8591,0 -33.4391,16.70558 -33.4391,38.1796 0,20.99453 14.7333,37.87435 33.1324,37.87435 18.3992,0 33.1324,-16.87982 33.1324,-38.02767 0,-21.01684 -14.7332,-38.02628 -32.8257,-38.02628 m 0,6.57769 c 10.7328,0 16.6986,11.1942 16.6986,31.44859 0,20.3854 -5.9658,31.42767 -17.0053,31.42767 -11.0395,0 -17.0052,-11.04227 -17.0052,-31.27435 0,-20.8649 5.8124,-31.60191 17.3119,-31.60191 m 69.2755,-45.84591 -28.3514,1.69913 v 6.5986 h 7.513 c 5.6591,0.15333 6.4258,1.06771 6.4258,7.66631 v 85.39709 c -0.1534,2.30825 -0.3067,3.22403 -0.92,3.98508 -1.0593,1.37297 -3.9865,2.00439 -10.5795,2.15632 h -1.0733 v 5.50999 h 39.7115 v -5.50999 h -1.0733 c -10.2589,-0.32616 -11.6528,-1.08861 -11.6528,-6.59859 V 176.76751"
     id="path36"
     style="stroke-width:1.39387" />
  <path
     class="MeasureNumber"
     d="m 312.65369,1519.5839 c -1.74235,1.0454 -2.24414,1.7145 -2.24414,2.8296 0,1.0593 0.89347,1.8538 2.00439,1.8538 1.45938,0 2.28735,-1.0732 2.46158,-3.1362 1.72004,-1.3938 3.57111,-2.0071 5.79294,-2.0071 4.13841,0 6.42437,2.5647 6.42437,7.1784 0,7.2621 -4.68203,13.1582 -10.43176,13.1582 -3.28954,0 -5.96717,-1.5472 -5.96717,-3.4011 0,-0.3206 0.0641,-0.4321 0.32616,-0.5993 1.78556,-0.8364 3.24494,-1.4357 3.24494,-3.7914 0,-1.7841 -1.39387,-3.1223 -3.35366,-3.1223 -2.43928,0 -4.29034,2.049 -4.29034,4.7253 0,4.9343 4.24713,8.4747 10.21431,8.4747 9.01697,0 16.33481,-7.1784 16.33481,-16.0853 0,-5.6452 -4.29174,-9.6177 -10.36764,-9.6177 -2.41698,0 -4.35585,0.5018 -7.03488,1.8538 l 3.11531,-10.5376 c 2.96198,0.6133 5.31345,0.892 7.31784,0.892 3.67982,0 6.96937,-1.1708 8.79813,-3.1083 0.95899,-1.1151 1.5026,-2.0769 1.5026,-2.7878 0,-0.3484 -0.17424,-0.683 -0.39168,-0.683 -0.15193,0 -0.28296,0.07 -0.61052,0.2231 -1.82876,0.892 -4.18162,1.3938 -6.35885,1.3938 -3.33276,0 -7.29554,-0.5436 -11.41304,-1.6169 l -5.0737,17.9113"
     id="path38"
     style="stroke-width:1.39387" />
  <path
     class="MeasureNumber"
     d="m 328.31247,2368.7877 c -1.39388,6.4676 -5.13922,17.5489 -13.11078,17.5489 -1.61132,0 -2.65673,-0.669 -2.65673,-1.6726 0,-0.3903 0.10873,-0.5436 0.54361,-1.2266 0.56731,-0.7109 0.85027,-1.3939 0.85027,-2.1745 0,-1.826 -1.45939,-3.2198 -3.35506,-3.2198 -2.22044,0 -3.78855,1.6447 -3.78855,4.1119 0,3.7913 3.57111,6.5094 8.53748,6.5094 12.1964,0 19.99234,-15.5975 19.99234,-26.1909 0,-8.6978 -4.18163,-13.883 -11.08548,-13.883 -8.29774,0 -14.48236,7.6524 -14.48236,15.6253 0,5.2828 4.0506,9.2972 9.47417,9.2972 3.67982,0 6.51078,-1.5054 9.08109,-4.7253 m -4.11611,-17.8415 c 3.55019,0 5.83754,2.8295 5.83754,7.2899 0,6.9136 -3.78994,11.9873 -8.90825,11.9873 -3.52789,0 -5.46677,-2.3974 -5.46677,-6.579 0,-5.0041 2.39607,-12.6982 8.53748,-12.6982"
     id="path40"
     style="stroke-width:1.39387" />
  <polyline
     class="BarLine"
     fill="none"
     stroke="#000000"
     stroke-width="4.46"
     stroke-linejoin="bevel"
     points="1567.92,1240.43 1567.92,1342.36"
     id="polyline42"
     transform="matrix(1.393874,0,0,1.393874,10.067328,-120.85248)" />
  <polyline
     class="BarLine"
     fill="none"
     stroke="#000000"
     stroke-width="4.46"
     stroke-linejoin="bevel"
     points="959.32,1240.43 959.32,1342.36"
     id="polyline44"
     transform="matrix(1.393874,0,0,1.393874,10.067328,-120.85248)" />
  <polyline
     class="BarLine"
     fill="none"
     stroke="#000000"
     stroke-width="4.46"
     stroke-linejoin="bevel"
     points="2739.55,1848.03 2739.55,1949.96"
     id="polyline46"
     transform="matrix(1.393874,0,0,1.393874,10.067328,-120.85248)" />
  <polyline
     class="BarLine"
     fill="none"
     stroke="#000000"
     stroke-width="13.64"
     stroke-linejoin="bevel"
     points="2757.78,1848.03 2757.78,1949.96"
     id="polyline48"
     transform="matrix(1.393874,0,0,1.393874,10.067328,-120.85248)" />
  <polyline
     class="BarLine"
     fill="none"
     stroke="#000000"
     stroke-width="4.46"
     stroke-linejoin="bevel"
     points="882.49,1848.03 882.49,1949.96"
     id="polyline50"
     transform="matrix(1.393874,0,0,1.393874,10.067328,-120.85248)" />
  <polyline
     class="BarLine"
     fill="none"
     stroke="#000000"
     stroke-width="4.46"
     stroke-linejoin="bevel"
     points="2762.37,632.834 2762.37,734.762"
     id="polyline52"
     transform="matrix(1.393874,0,0,1.393874,10.067328,-120.85248)" />
  <polyline
     class="BarLine"
     fill="none"
     stroke="#000000"
     stroke-width="4.46"
     stroke-linejoin="bevel"
     points="2201.84,632.834 2201.84,734.762"
     id="polyline54"
     transform="matrix(1.393874,0,0,1.393874,10.067328,-120.85248)" />
  <polyline
     class="BarLine"
     fill="none"
     stroke="#000000"
     stroke-width="4.46"
     stroke-linejoin="bevel"
     points="1649.59,632.834 1649.59,734.762"
     id="polyline56"
     transform="matrix(1.393874,0,0,1.393874,10.067328,-120.85248)" />
  <polyline
     class="BarLine"
     fill="none"
     stroke="#000000"
     stroke-width="4.46"
     stroke-linejoin="bevel"
     points="2161.01,1240.43 2161.01,1342.36"
     id="polyline58"
     transform="matrix(1.393874,0,0,1.393874,10.067328,-120.85248)" />
  <polyline
     class="BarLine"
     fill="none"
     stroke="#000000"
     stroke-width="4.46"
     stroke-linejoin="bevel"
     points="1398.75,1848.03 1398.75,1949.96"
     id="polyline60"
     transform="matrix(1.393874,0,0,1.393874,10.067328,-120.85248)" />
  <polyline
     class="BarLine"
     fill="none"
     stroke="#000000"
     stroke-width="4.46"
     stroke-linejoin="bevel"
     points="1097.34,632.834 1097.34,734.762"
     id="polyline62"
     transform="matrix(1.393874,0,0,1.393874,10.067328,-120.85248)" />
  <polyline
     class="BarLine"
     fill="none"
     stroke="#000000"
     stroke-width="4.46"
     stroke-linejoin="bevel"
     points="1915,1848.03 1915,1949.96"
     id="polyline64"
     transform="matrix(1.393874,0,0,1.393874,10.067328,-120.85248)" />
  <polyline
     class="BarLine"
     fill="none"
     stroke="#000000"
     stroke-width="4.46"
     stroke-linejoin="bevel"
     points="2431.26,1848.03 2431.26,1949.96"
     id="polyline66"
     transform="matrix(1.393874,0,0,1.393874,10.067328,-120.85248)" />
  <polyline
     class="BarLine"
     fill="none"
     stroke="#000000"
     stroke-width="4.46"
     stroke-linejoin="bevel"
     points="2762.37,1240.43 2762.37,1342.36"
     id="polyline68"
     transform="matrix(1.393874,0,0,1.393874,10.067328,-120.85248)" />
  <path
     class="Accidental"
     d="m 1383.5999,1686.2397 12.3149,-2.4846 v 22.8149 l -12.3149,2.6359 v -22.9662 m 21.4322,-4.2778 c 0.8426,-0.1296 1.534,-1.1019 1.534,-1.9445 v -8.1451 c 0,-1.1018 -0.8426,-1.9444 -1.9445,-1.9444 h -0.2809 l -4.5586,0.9722 v -20.6112 h -3.8673 v 21.4322 l -12.3149,2.5062 v -19.5094 h -3.8673 v 20.3304 l -5.4013,1.1018 c -0.821,0.1513 -1.5123,1.1019 -1.5123,1.9445 v 8.0155 c 0,1.1018 0.821,1.9444 1.9444,1.9444 h 0.4105 l 4.5587,-0.9722 v 22.8149 l -5.4013,1.1019 c -0.821,0.1296 -1.5123,1.1018 -1.5123,1.9444 v 8.0155 c 0,1.1019 0.821,1.9229 1.9444,1.9229 h 0.4105 l 4.5587,-0.9507 v 20.5896 h 3.8673 v -21.4322 l 12.3149,-2.4845 v 19.5093 h 3.8673 v -20.3303 l 5.25,-0.9723 c 0.8426,-0.1512 1.534,-1.1018 1.534,-1.9444 v -8.1451 c 0,-1.1235 -0.8426,-1.9445 -1.9445,-1.9445 h -0.2809 l -4.5586,0.9722 v -22.8149 l 5.25,-0.9722"
     id="path70"
     style="stroke-width:1.38272" />
  <path
     class="Accidental"
     d="m 3108.5999,897.54465 v -22.6853 l 16.0525,-4.55866 v 22.81493 l -16.0525,4.42903 m 19.0772,-38.71627 c -0.2592,-0.28084 -0.6913,-0.41054 -1.1018,-0.41054 -0.1297,0 -0.4105,0.12963 -0.5402,0.12963 l -17.4352,4.83953 v -24.19765 h -3.8673 v 68.44479 c 0,1.10188 0.821,1.79325 1.9444,1.79325 h 0.5401 l 17.4353,-4.83953 v 24.19765 h 3.7161 v -68.44479 c 0,-0.54023 -0.2593,-1.23159 -0.6914,-1.51241"
     id="path72"
     style="stroke-width:1.38272" />
  <path
     class="Accidental"
     d="M 3051.688,1744.4653 V 1721.78 l 16.0525,-4.5587 v 22.815 l -16.0525,4.429 m 19.0772,-38.7163 c -0.2592,-0.2808 -0.6913,-0.4104 -1.1018,-0.4104 -0.1296,0 -0.4105,0.1296 -0.5401,0.1296 l -17.4353,4.8395 v -24.1976 h -3.8673 v 68.4448 c 0,1.1018 0.821,1.7932 1.9444,1.7932 h 0.5402 l 17.4352,-4.8396 v 24.1977 h 3.7161 v -68.4448 c 0,-0.5401 -0.2593,-1.2315 -0.6914,-1.5124"
     id="path74"
     style="stroke-width:1.38272" />
  <path
     class="Accidental"
     d="m 2468.1147,2619.5777 12.3149,-2.4845 v 22.8149 l -12.3149,2.6358 v -22.9662 m 21.4323,-4.2778 c 0.8425,-0.1296 1.5339,-1.1018 1.5339,-1.9444 v -8.1451 c 0,-1.1019 -0.8426,-1.9445 -1.9444,-1.9445 h -0.2809 l -4.5587,0.9723 v -20.6113 h -3.8673 v 21.4323 l -12.3149,2.5061 v -19.5093 h -3.8673 v 20.3303 l -5.4012,1.1019 c -0.821,0.1512 -1.5124,1.1018 -1.5124,1.9444 v 8.0155 c 0,1.1019 0.821,1.9445 1.9445,1.9445 h 0.4105 l 4.5586,-0.9723 v 22.815 l -5.4012,1.1018 c -0.821,0.1297 -1.5124,1.1019 -1.5124,1.9445 v 8.0155 c 0,1.1018 0.821,1.9228 1.9445,1.9228 h 0.4105 l 4.5586,-0.9506 v 20.5896 h 3.8673 v -21.4322 l 12.3149,-2.4846 v 19.5094 h 3.8673 v -20.3304 l 5.2501,-0.9722 c 0.8425,-0.1512 1.5339,-1.1019 1.5339,-1.9445 v -8.1451 c 0,-1.1234 -0.8426,-1.9444 -1.9444,-1.9444 h -0.2809 l -4.5587,0.9722 v -22.8149 l 5.2501,-0.9723"
     id="path76"
     style="stroke-width:1.38272" />
  <path
     class="Accidental"
     d="m 1581.0951,1709.8972 v -22.6853 l 16.0526,-4.5586 v 22.8149 l -16.0526,4.429 m 19.0773,-38.7162 c -0.2593,-0.2809 -0.6914,-0.4105 -1.1019,-0.4105 -0.1296,0 -0.4105,0.1296 -0.5401,0.1296 l -17.4353,4.8395 v -24.1976 h -3.8673 v 68.4448 c 0,1.1018 0.821,1.7932 1.9445,1.7932 h 0.5401 l 17.4353,-4.8395 v 24.1976 h 3.716 v -68.4448 c 0,-0.5401 -0.2592,-1.2315 -0.6913,-1.5123"
     id="path78"
     style="stroke-width:1.38272" />
  <polyline
     class="LedgerLine"
     fill="none"
     stroke="#000000"
     stroke-width="3.97"
     stroke-linejoin="bevel"
     points="1784.39,1973.4 1832.98,1973.4"
     id="polyline80"
     transform="matrix(1.393874,0,0,1.393874,10.067328,-120.85248)" />
  <polyline
     class="LedgerLine"
     fill="none"
     stroke="#000000"
     stroke-width="3.97"
     stroke-linejoin="bevel"
     points="2456.31,1973.4 2509.67,1973.4"
     id="polyline82"
     transform="matrix(1.393874,0,0,1.393874,10.067328,-120.85248)" />
  <polyline
     class="LedgerLine"
     fill="none"
     stroke="#000000"
     stroke-width="3.97"
     stroke-linejoin="bevel"
     points="1803.84,758.198 1852.43,758.198"
     id="polyline84"
     transform="matrix(1.393874,0,0,1.393874,10.067328,-120.85248)" />
  <polyline
     class="LedgerLine"
     fill="none"
     stroke="#000000"
     stroke-width="3.97"
     stroke-linejoin="bevel"
     points="1543.99,1973.4 1592.58,1973.4"
     id="polyline86"
     transform="matrix(1.393874,0,0,1.393874,10.067328,-120.85248)" />
  <polyline
     class="LedgerLine"
     fill="none"
     stroke="#000000"
     stroke-width="3.97"
     stroke-linejoin="bevel"
     points="1732.37,1365.8 1780.97,1365.8"
     id="polyline88"
     transform="matrix(1.393874,0,0,1.393874,10.067328,-120.85248)" />
  <polyline
     class="LedgerLine"
     fill="none"
     stroke="#000000"
     stroke-width="3.97"
     stroke-linejoin="bevel"
     points="2456.31,1998.2 2509.67,1998.2"
     id="polyline90"
     transform="matrix(1.393874,0,0,1.393874,10.067328,-120.85248)" />
  <polyline
     class="LedgerLine"
     fill="none"
     stroke="#000000"
     stroke-width="3.97"
     stroke-linejoin="bevel"
     points="391.282,1365.8 439.875,1365.8"
     id="polyline92"
     transform="matrix(1.393874,0,0,1.393874,10.067328,-120.85248)" />
  <polyline
     class="LedgerLine"
     fill="none"
     stroke="#000000"
     stroke-width="3.97"
     stroke-linejoin="bevel"
     points="699.334,758.198 747.926,758.198"
     id="polyline94"
     transform="matrix(1.393874,0,0,1.393874,10.067328,-120.85248)" />
  <polyline
     class="LedgerLine"
     fill="none"
     stroke="#000000"
     stroke-width="3.97"
     stroke-linejoin="bevel"
     points="2300.64,1998.2 2349.24,1998.2"
     id="polyline96"
     transform="matrix(1.393874,0,0,1.393874,10.067328,-120.85248)" />
  <polyline
     class="LedgerLine"
     fill="none"
     stroke="#000000"
     stroke-width="3.97"
     stroke-linejoin="bevel"
     points="1592.97,1390.6 1641.56,1390.6"
     id="polyline98"
     transform="matrix(1.393874,0,0,1.393874,10.067328,-120.85248)" />
  <polyline
     class="LedgerLine"
     fill="none"
     stroke="#000000"
     stroke-width="3.97"
     stroke-linejoin="bevel"
     points="1592.97,1365.8 1641.56,1365.8"
     id="polyline100"
     transform="matrix(1.393874,0,0,1.393874,10.067328,-120.85248)" />
  <polyline
     class="LedgerLine"
     fill="none"
     stroke="#000000"
     stroke-width="3.97"
     stroke-linejoin="bevel"
     points="1664.19,1973.4 1712.78,1973.4"
     id="polyline102"
     transform="matrix(1.393874,0,0,1.393874,10.067328,-120.85248)" />
  <polyline
     class="LedgerLine"
     fill="none"
     stroke="#000000"
     stroke-width="3.97"
     stroke-linejoin="bevel"
     points="1674.64,782.998 1723.23,782.998"
     id="polyline104"
     transform="matrix(1.393874,0,0,1.393874,10.067328,-120.85248)" />
  <polyline
     class="LedgerLine"
     fill="none"
     stroke="#000000"
     stroke-width="3.97"
     stroke-linejoin="bevel"
     points="1674.64,758.198 1723.23,758.198"
     id="polyline106"
     transform="matrix(1.393874,0,0,1.393874,10.067328,-120.85248)" />
  <polyline
     class="LedgerLine"
     fill="none"
     stroke="#000000"
     stroke-width="3.97"
     stroke-linejoin="bevel"
     points="1423.79,1998.2 1472.39,1998.2"
     id="polyline108"
     transform="matrix(1.393874,0,0,1.393874,10.067328,-120.85248)" />
  <polyline
     class="LedgerLine"
     fill="none"
     stroke="#000000"
     stroke-width="3.97"
     stroke-linejoin="bevel"
     points="570.137,782.998 618.729,782.998"
     id="polyline110"
     transform="matrix(1.393874,0,0,1.393874,10.067328,-120.85248)" />
  <polyline
     class="LedgerLine"
     fill="none"
     stroke="#000000"
     stroke-width="3.97"
     stroke-linejoin="bevel"
     points="1423.79,1973.4 1472.39,1973.4"
     id="polyline112"
     transform="matrix(1.393874,0,0,1.393874,10.067328,-120.85248)" />
  <polyline
     class="LedgerLine"
     fill="none"
     stroke="#000000"
     stroke-width="3.97"
     stroke-linejoin="bevel"
     points="2060.25,1973.4 2108.84,1973.4"
     id="polyline114"
     transform="matrix(1.393874,0,0,1.393874,10.067328,-120.85248)" />
  <polyline
     class="LedgerLine"
     fill="none"
     stroke="#000000"
     stroke-width="3.97"
     stroke-linejoin="bevel"
     points="2300.64,1973.4 2349.24,1973.4"
     id="polyline116"
     transform="matrix(1.393874,0,0,1.393874,10.067328,-120.85248)" />
  <polyline
     class="LedgerLine"
     fill="none"
     stroke="#000000"
     stroke-width="3.97"
     stroke-linejoin="bevel"
     points="1509.98,758.198 1558.57,758.198"
     id="polyline118"
     transform="matrix(1.393874,0,0,1.393874,10.067328,-120.85248)" />
  <polyline
     class="LedgerLine"
     fill="none"
     stroke="#000000"
     stroke-width="3.97"
     stroke-linejoin="bevel"
     points="2622.76,758.198 2671.35,758.198"
     id="polyline120"
     transform="matrix(1.393874,0,0,1.393874,10.067328,-120.85248)" />
  <polyline
     class="LedgerLine"
     fill="none"
     stroke="#000000"
     stroke-width="3.97"
     stroke-linejoin="bevel"
     points="2180.45,1973.4 2229.04,1973.4"
     id="polyline122"
     transform="matrix(1.393874,0,0,1.393874,10.067328,-120.85248)" />
  <polyline
     class="LedgerLine"
     fill="none"
     stroke="#000000"
     stroke-width="3.97"
     stroke-linejoin="bevel"
     points="570.137,758.198 618.729,758.198"
     id="polyline124"
     transform="matrix(1.393874,0,0,1.393874,10.067328,-120.85248)" />
  <polyline
     class="LedgerLine"
     fill="none"
     stroke="#000000"
     stroke-width="3.97"
     stroke-linejoin="bevel"
     points="2612.55,1365.8 2661.14,1365.8"
     id="polyline126"
     transform="matrix(1.393874,0,0,1.393874,10.067328,-120.85248)" />
  <polyline
     class="Stem"
     fill="none"
     stroke="#000000"
     stroke-width="2.48"
     stroke-linejoin="bevel"
     points="1317.88,1312.23 1317.88,1229.4"
     id="polyline128"
     transform="matrix(1.393874,0,0,1.393874,10.067328,-120.85248)" />
  <polyline
     class="Stem"
     fill="none"
     stroke="#000000"
     stroke-width="2.48"
     stroke-linejoin="bevel"
     points="916.962,1890.76 916.962,1967.2"
     id="polyline130"
     transform="matrix(1.393874,0,0,1.393874,10.067328,-120.85248)" />
  <polyline
     class="Stem"
     fill="none"
     stroke="#000000"
     stroke-width="2.48"
     stroke-linejoin="bevel"
     points="1187.12,1907.43 1187.12,1830.8"
     id="polyline132"
     transform="matrix(1.393874,0,0,1.393874,10.067328,-120.85248)" />
  <polyline
     class="Stem"
     fill="none"
     stroke="#000000"
     stroke-width="2.48"
     stroke-linejoin="bevel"
     points="1178.47,1299.83 1178.47,1223.2"
     id="polyline134"
     transform="matrix(1.393874,0,0,1.393874,10.067328,-120.85248)" />
  <polyline
     class="Stem"
     fill="none"
     stroke="#000000"
     stroke-width="2.48"
     stroke-linejoin="bevel"
     points="1039.07,1299.83 1039.07,1223.2"
     id="polyline136"
     transform="matrix(1.393874,0,0,1.393874,10.067328,-120.85248)" />
  <polyline
     class="Stem"
     fill="none"
     stroke="#000000"
     stroke-width="2.48"
     stroke-linejoin="bevel"
     points="1307.32,1932.23 1307.32,1849.4"
     id="polyline138"
     transform="matrix(1.393874,0,0,1.393874,10.067328,-120.85248)" />
  <polyline
     class="Stem"
     fill="none"
     stroke="#000000"
     stroke-width="2.48"
     stroke-linejoin="bevel"
     points="1457.28,1337.03 1457.28,1254.2"
     id="polyline140"
     transform="matrix(1.393874,0,0,1.393874,10.067328,-120.85248)" />
  <polyline
     class="Stem"
     fill="none"
     stroke="#000000"
     stroke-width="2.48"
     stroke-linejoin="bevel"
     points="1037.16,1903.16 1037.16,1973.4"
     id="polyline142"
     transform="matrix(1.393874,0,0,1.393874,10.067328,-120.85248)" />
  <polyline
     class="Stem"
     fill="none"
     stroke="#000000"
     stroke-width="2.48"
     stroke-linejoin="bevel"
     points="1632.15,1399.03 1632.15,1291.4"
     id="polyline144"
     transform="matrix(1.393874,0,0,1.393874,10.067328,-120.85248)" />
  <polyline
     class="Stem"
     fill="none"
     stroke="#000000"
     stroke-width="2.48"
     stroke-linejoin="bevel"
     points="2651.73,1374.23 2651.73,1291.4"
     id="polyline146"
     transform="matrix(1.393874,0,0,1.393874,10.067328,-120.85248)" />
  <polyline
     class="Stem"
     fill="none"
     stroke="#000000"
     stroke-width="2.48"
     stroke-linejoin="bevel"
     points="430.466,1957.03 430.466,1874.2"
     id="polyline148"
     transform="matrix(1.393874,0,0,1.393874,10.067328,-120.85248)" />
  <polyline
     class="Stem"
     fill="none"
     stroke="#000000"
     stroke-width="2.48"
     stroke-linejoin="bevel"
     points="1771.56,1374.23 1771.56,1291.4"
     id="polyline150"
     transform="matrix(1.393874,0,0,1.393874,10.067328,-120.85248)" />
  <polyline
     class="Stem"
     fill="none"
     stroke="#000000"
     stroke-width="2.48"
     stroke-linejoin="bevel"
     points="1583.18,1981.83 1583.18,1899"
     id="polyline152"
     transform="matrix(1.393874,0,0,1.393874,10.067328,-120.85248)" />
  <polyline
     class="Stem"
     fill="none"
     stroke="#000000"
     stroke-width="2.48"
     stroke-linejoin="bevel"
     points="609.321,791.43 609.321,683.798"
     id="polyline154"
     transform="matrix(1.393874,0,0,1.393874,10.067328,-120.85248)" />
  <polyline
     class="Stem"
     fill="none"
     stroke="#000000"
     stroke-width="2.48"
     stroke-linejoin="bevel"
     points="1910.96,1349.43 1910.96,1266.6"
     id="polyline156"
     transform="matrix(1.393874,0,0,1.393874,10.067328,-120.85248)" />
  <polyline
     class="Stem"
     fill="none"
     stroke="#000000"
     stroke-width="2.48"
     stroke-linejoin="bevel"
     points="2050.37,1337.03 2050.37,1254.2"
     id="polyline158"
     transform="matrix(1.393874,0,0,1.393874,10.067328,-120.85248)" />
  <polyline
     class="Stem"
     fill="none"
     stroke="#000000"
     stroke-width="2.48"
     stroke-linejoin="bevel"
     points="761.3,1903.16 761.3,1973.4"
     id="polyline160"
     transform="matrix(1.393874,0,0,1.393874,10.067328,-120.85248)" />
  <polyline
     class="Stem"
     fill="none"
     stroke="#000000"
     stroke-width="2.48"
     stroke-linejoin="bevel"
     points="670.862,1907.43 670.862,1830.8"
     id="polyline162"
     transform="matrix(1.393874,0,0,1.393874,10.067328,-120.85248)" />
  <polyline
     class="Stem"
     fill="none"
     stroke="#000000"
     stroke-width="2.48"
     stroke-linejoin="bevel"
     points="2233.52,1324.63 2233.52,1241.8"
     id="polyline164"
     transform="matrix(1.393874,0,0,1.393874,10.067328,-120.85248)" />
  <polyline
     class="Stem"
     fill="none"
     stroke="#000000"
     stroke-width="2.48"
     stroke-linejoin="bevel"
     points="2372.92,1337.03 2372.92,1254.2"
     id="polyline166"
     transform="matrix(1.393874,0,0,1.393874,10.067328,-120.85248)" />
  <polyline
     class="Stem"
     fill="none"
     stroke="#000000"
     stroke-width="2.48"
     stroke-linejoin="bevel"
     points="550.664,1932.23 550.664,1849.4"
     id="polyline168"
     transform="matrix(1.393874,0,0,1.393874,10.067328,-120.85248)" />
  <polyline
     class="Stem"
     fill="none"
     stroke="#000000"
     stroke-width="2.48"
     stroke-linejoin="bevel"
     points="2512.33,1349.43 2512.33,1266.6"
     id="polyline170"
     transform="matrix(1.393874,0,0,1.393874,10.067328,-120.85248)" />
  <polyline
     class="Stem"
     fill="none"
     stroke="#000000"
     stroke-width="2.48"
     stroke-linejoin="bevel"
     points="1549.16,766.63 1549.16,683.798"
     id="polyline172"
     transform="matrix(1.393874,0,0,1.393874,10.067328,-120.85248)" />
  <polyline
     class="Stem"
     fill="none"
     stroke="#000000"
     stroke-width="2.48"
     stroke-linejoin="bevel"
     points="2274.35,717.03 2274.35,634.198"
     id="polyline174"
     transform="matrix(1.393874,0,0,1.393874,10.067328,-120.85248)" />
  <polyline
     class="Stem"
     fill="none"
     stroke="#000000"
     stroke-width="2.48"
     stroke-linejoin="bevel"
     points="1823.57,1969.43 1823.57,1886.6"
     id="polyline176"
     transform="matrix(1.393874,0,0,1.393874,10.067328,-120.85248)" />
  <polyline
     class="Stem"
     fill="none"
     stroke="#000000"
     stroke-width="2.48"
     stroke-linejoin="bevel"
     points="2101.41,729.43 2101.41,646.598"
     id="polyline178"
     transform="matrix(1.393874,0,0,1.393874,10.067328,-120.85248)" />
  <polyline
     class="Stem"
     fill="none"
     stroke="#000000"
     stroke-width="2.48"
     stroke-linejoin="bevel"
     points="848.683,1299.83 848.683,1223.2"
     id="polyline180"
     transform="matrix(1.393874,0,0,1.393874,10.067328,-120.85248)" />
  <polyline
     class="Stem"
     fill="none"
     stroke="#000000"
     stroke-width="2.48"
     stroke-linejoin="bevel"
     points="1843.02,766.63 1843.02,683.798"
     id="polyline182"
     transform="matrix(1.393874,0,0,1.393874,10.067328,-120.85248)" />
  <polyline
     class="Stem"
     fill="none"
     stroke="#000000"
     stroke-width="2.48"
     stroke-linejoin="bevel"
     points="1979.23,1957.03 1979.23,1874.2"
     id="polyline184"
     transform="matrix(1.393874,0,0,1.393874,10.067328,-120.85248)" />
  <polyline
     class="Stem"
     fill="none"
     stroke="#000000"
     stroke-width="2.48"
     stroke-linejoin="bevel"
     points="1713.82,791.43 1713.82,683.798"
     id="polyline186"
     transform="matrix(1.393874,0,0,1.393874,10.067328,-120.85248)" />
  <polyline
     class="Stem"
     fill="none"
     stroke="#000000"
     stroke-width="2.48"
     stroke-linejoin="bevel"
     points="2099.43,1969.43 2099.43,1886.6"
     id="polyline188"
     transform="matrix(1.393874,0,0,1.393874,10.067328,-120.85248)" />
  <polyline
     class="Stem"
     fill="none"
     stroke="#000000"
     stroke-width="2.48"
     stroke-linejoin="bevel"
     points="1972.22,741.83 1972.22,658.998"
     id="polyline190"
     transform="matrix(1.393874,0,0,1.393874,10.067328,-120.85248)" />
  <polyline
     class="Stem"
     fill="none"
     stroke="#000000"
     stroke-width="2.48"
     stroke-linejoin="bevel"
     points="2219.63,1981.83 2219.63,1899"
     id="polyline192"
     transform="matrix(1.393874,0,0,1.393874,10.067328,-120.85248)" />
  <polyline
     class="Stem"
     fill="none"
     stroke="#000000"
     stroke-width="2.48"
     stroke-linejoin="bevel"
     points="1419.97,741.83 1419.97,658.998"
     id="polyline194"
     transform="matrix(1.393874,0,0,1.393874,10.067328,-120.85248)" />
  <polyline
     class="Stem"
     fill="none"
     stroke="#000000"
     stroke-width="2.48"
     stroke-linejoin="bevel"
     points="2339.83,1994.23 2339.83,1899"
     id="polyline196"
     transform="matrix(1.393874,0,0,1.393874,10.067328,-120.85248)" />
  <polyline
     class="Stem"
     fill="none"
     stroke="#000000"
     stroke-width="2.48"
     stroke-linejoin="bevel"
     points="1290.77,729.43 1290.77,646.598"
     id="polyline198"
     transform="matrix(1.393874,0,0,1.393874,10.067328,-120.85248)" />
  <polyline
     class="Stem"
     fill="none"
     stroke="#000000"
     stroke-width="2.48"
     stroke-linejoin="bevel"
     points="1161.57,704.63 1161.57,621.798"
     id="polyline200"
     transform="matrix(1.393874,0,0,1.393874,10.067328,-120.85248)" />
  <polyline
     class="Stem"
     fill="none"
     stroke="#000000"
     stroke-width="2.48"
     stroke-linejoin="bevel"
     points="867.714,741.83 867.714,658.998"
     id="polyline202"
     transform="matrix(1.393874,0,0,1.393874,10.067328,-120.85248)" />
  <polyline
     class="Stem"
     fill="none"
     stroke="#000000"
     stroke-width="2.48"
     stroke-linejoin="bevel"
     points="996.911,729.43 996.911,646.598"
     id="polyline204"
     transform="matrix(1.393874,0,0,1.393874,10.067328,-120.85248)" />
  <polyline
     class="Stem"
     fill="none"
     stroke="#000000"
     stroke-width="2.48"
     stroke-linejoin="bevel"
     points="2403.55,729.43 2403.55,646.598"
     id="polyline206"
     transform="matrix(1.393874,0,0,1.393874,10.067328,-120.85248)" />
  <polyline
     class="Stem"
     fill="none"
     stroke="#000000"
     stroke-width="2.48"
     stroke-linejoin="bevel"
     points="1703.37,1969.43 1703.37,1886.6"
     id="polyline208"
     transform="matrix(1.393874,0,0,1.393874,10.067328,-120.85248)" />
  <polyline
     class="Stem"
     fill="none"
     stroke="#000000"
     stroke-width="2.48"
     stroke-linejoin="bevel"
     points="2532.74,741.83 2532.74,658.998"
     id="polyline210"
     transform="matrix(1.393874,0,0,1.393874,10.067328,-120.85248)" />
  <polyline
     class="Stem"
     fill="none"
     stroke="#000000"
     stroke-width="2.48"
     stroke-linejoin="bevel"
     points="709.277,1312.23 709.277,1229.4"
     id="polyline212"
     transform="matrix(1.393874,0,0,1.393874,10.067328,-120.85248)" />
  <polyline
     class="Stem"
     fill="none"
     stroke="#000000"
     stroke-width="2.48"
     stroke-linejoin="bevel"
     points="1462.98,2006.63 1462.98,1899"
     id="polyline214"
     transform="matrix(1.393874,0,0,1.393874,10.067328,-120.85248)" />
  <polyline
     class="Stem"
     fill="none"
     stroke="#000000"
     stroke-width="2.48"
     stroke-linejoin="bevel"
     points="569.872,1337.03 569.872,1254.2"
     id="polyline216"
     transform="matrix(1.393874,0,0,1.393874,10.067328,-120.85248)" />
  <polyline
     class="Stem"
     fill="none"
     stroke="#000000"
     stroke-width="2.48"
     stroke-linejoin="bevel"
     points="2661.94,766.63 2661.94,683.798"
     id="polyline218"
     transform="matrix(1.393874,0,0,1.393874,10.067328,-120.85248)" />
  <polyline
     class="Stem"
     fill="none"
     stroke="#000000"
     stroke-width="2.48"
     stroke-linejoin="bevel"
     points="738.518,766.63 738.518,683.798"
     id="polyline220"
     transform="matrix(1.393874,0,0,1.393874,10.067328,-120.85248)" />
  <polyline
     class="Stem"
     fill="none"
     stroke="#000000"
     stroke-width="2.48"
     stroke-linejoin="bevel"
     points="430.466,1361.83 430.466,1279"
     id="polyline222"
     transform="matrix(1.393874,0,0,1.393874,10.067328,-120.85248)" />
  <path
     class="Note"
     d="m 1789.0967,2583.7782 c 0,5.9414 4.2778,12.5741 15.4908,12.5741 14.3674,0 29.4477,-11.7531 29.4477,-23.9168 0,-8.1667 -6.9136,-12.7253 -15.4908,-12.7253 -13.4168,0 -29.4477,11.3426 -29.4477,24.068"
     id="path224"
     style="stroke-width:1.38272" />
  <path
     class="Note"
     d="m 2341.1405,2635.6303 c 0,5.9414 4.2778,12.5741 15.4908,12.5741 14.3674,0 29.4477,-11.7531 29.4477,-23.9168 0,-8.1667 -6.9136,-12.7253 -15.4908,-12.7253 -13.4168,0 -29.4477,11.3426 -29.4477,24.068"
     id="path226"
     style="stroke-width:1.38272" />
  <path
     class="Note"
     d="m 3472.2191,2695.7787 c -3.8673,0 -6.5031,-1.1018 -8.2964,-4.5586 -1.7932,-3.4568 -4.2778,-12.3149 -4.429,-16.0526 -0.2809,-3.7376 1.1019,-5.9414 4.429,-7.0432 1.6636,-0.5617 3.8674,-0.8426 5.9414,-0.8426 3.8673,0 6.3735,0.8426 8.2964,4.5803 1.9444,3.716 4.429,12.5741 4.429,16.0309 0,6.784 -4.7099,7.8858 -10.3704,7.8858 m -1.1019,-32.9044 c -19.0772,0 -25.8612,9.679 -25.8612,18.6667 0,8.9877 6.784,18.6668 25.8612,18.6668 19.0773,0 25.71,-9.6791 25.71,-18.6668 0,-8.9877 -6.6327,-18.6667 -25.71,-18.6667"
     id="path228"
     style="stroke-width:1.38272" />
  <path
     class="Note"
     d="m 3228.2856,2670.1984 c 0,5.9414 4.2778,12.5741 15.4908,12.5741 14.3673,0 29.4477,-11.7531 29.4477,-23.9168 0,-8.1667 -6.9137,-12.7254 -15.4909,-12.7254 -13.4167,0 -29.4476,11.3427 -29.4476,24.0681"
     id="path230"
     style="stroke-width:1.38272" />
  <path
     class="Note"
     d="m 566.87261,2618.3463 c 0,5.9413 4.2778,12.5741 15.49079,12.5741 14.36746,0 29.44771,-11.7532 29.44771,-23.9168 0,-8.1667 -6.91361,-12.7254 -15.49079,-12.7254 -13.41669,0 -29.44771,11.3427 -29.44771,24.0681"
     id="path232"
     style="stroke-width:1.38272" />
  <path
     class="Note"
     d="m 1621.553,2549.2101 c 0,5.9414 4.2778,12.5741 15.4908,12.5741 14.3674,0 29.4477,-11.7531 29.4477,-23.9167 0,-8.1668 -6.9136,-12.7254 -15.4908,-12.7254 -13.4167,0 -29.4477,11.3426 -29.4477,24.068"
     id="path234"
     style="stroke-width:1.38272" />
  <path
     class="Note"
     d="m 3060.7419,2652.9143 c 0,5.9414 4.2778,12.5742 15.4908,12.5742 14.3674,0 29.4477,-11.7532 29.4477,-23.9168 0,-8.1667 -6.9136,-12.7254 -15.4908,-12.7254 -13.4168,0 -29.4477,11.3427 -29.4477,24.068"
     id="path236"
     style="stroke-width:1.38272" />
  <path
     class="Note"
     d="m 2006.0671,2687.4824 c 0,5.9414 4.2778,12.5741 15.4908,12.5741 14.3674,0 29.4477,-11.7531 29.4477,-23.9167 0,-8.1667 -6.9136,-12.7254 -15.4908,-12.7254 -13.4167,0 -29.4477,11.3426 -29.4477,24.068"
     id="path238"
     style="stroke-width:1.38272" />
  <path
     class="Note"
     d="m 734.41348,2583.7782 c 0,5.9414 4.2778,12.5741 15.4908,12.5741 14.36745,0 29.4477,-11.7531 29.4477,-23.9168 0,-8.1667 -6.91361,-12.7253 -15.49079,-12.7253 -13.41669,0 -29.44771,11.3426 -29.44771,24.068"
     id="path240"
     style="stroke-width:1.38272" />
  <path
     class="Note"
     d="m 2241.8688,1840.5645 c 0,5.9414 4.2778,12.5742 15.4908,12.5742 14.3674,0 29.4477,-11.7532 29.4477,-23.9168 0,-8.1667 -6.9136,-12.7254 -15.4908,-12.7254 -13.4168,0 -29.4477,11.3427 -29.4477,24.068"
     id="path242"
     style="stroke-width:1.38272" />
  <path
     class="Note"
     d="m 2893.1982,2635.6303 c 0,5.9414 4.2778,12.5741 15.4909,12.5741 14.3673,0 29.4476,-11.7531 29.4476,-23.9168 0,-8.1667 -6.9136,-12.7253 -15.4908,-12.7253 -13.4167,0 -29.4477,11.3426 -29.4477,24.068"
     id="path244"
     style="stroke-width:1.38272" />
  <path
     class="Note"
     d="m 901.95436,2549.2101 c 0,5.9414 4.2778,12.5741 15.49079,12.5741 14.36745,0 29.4477,-11.7531 29.4477,-23.9167 0,-8.1668 -6.91361,-12.7254 -15.49079,-12.7254 -13.41669,0 -29.4477,11.3426 -29.4477,24.068"
     id="path246"
     style="stroke-width:1.38272" />
  <path
     class="Note"
     d="m 2725.6546,2618.3463 c 0,5.9413 4.2778,12.5741 15.4908,12.5741 14.3674,0 29.4477,-11.7532 29.4477,-23.9168 0,-8.1667 -6.9136,-12.7254 -15.4908,-12.7254 -13.4168,0 -29.4477,11.3427 -29.4477,24.0681"
     id="path248"
     style="stroke-width:1.38272" />
  <path
     class="Note"
     d="m 1069.4952,2531.9261 c 0,5.9414 4.2778,12.5741 15.4908,12.5741 14.3675,0 29.4478,-11.7531 29.4478,-23.9168 0,-8.1667 -6.9136,-12.7254 -15.4908,-12.7254 -13.4168,0 -29.4478,11.3427 -29.4478,24.0681"
     id="path250"
     style="stroke-width:1.38272" />
  <path
     class="Note"
     d="m 1454.0094,2531.9261 c 0,5.9414 4.2778,12.5741 15.4908,12.5741 14.3673,0 29.4477,-11.7531 29.4477,-23.9168 0,-8.1667 -6.9137,-12.7254 -15.4909,-12.7254 -13.4167,0 -29.4476,11.3427 -29.4476,24.0681"
     id="path252"
     style="stroke-width:1.38272" />
  <path
     class="Note"
     d="m 2173.6108,2652.9143 c 0,5.9414 4.2778,12.5742 15.4908,12.5742 14.3673,0 29.4477,-11.7532 29.4477,-23.9168 0,-8.1667 -6.9136,-12.7254 -15.4909,-12.7254 -13.4167,0 -29.4476,11.3427 -29.4476,24.068"
     id="path254"
     style="stroke-width:1.38272" />
  <path
     class="Note"
     d="m 1286.4685,2514.642 c 0,5.9414 4.2778,12.5742 15.4908,12.5742 14.3674,0 29.4477,-11.7532 29.4477,-23.9168 0,-8.1667 -6.9136,-12.7254 -15.4908,-12.7254 -13.4167,0 -29.4477,11.3427 -29.4477,24.068"
     id="path256"
     style="stroke-width:1.38272" />
  <path
     class="Note"
     d="m 2508.6841,2635.6303 c 0,5.9414 4.2778,12.5741 15.4909,12.5741 14.3673,0 29.4476,-11.7531 29.4476,-23.9168 0,-8.1667 -6.9136,-12.7253 -15.4908,-12.7253 -13.4167,0 -29.4477,11.3426 -29.4477,24.068"
     id="path258"
     style="stroke-width:1.38272" />
  <path
     class="Note"
     d="m 2535.795,959.07583 c 0,5.94138 4.2778,12.57418 15.4908,12.57418 14.3674,0 29.4477,-11.75319 29.4477,-23.91683 0,-8.16671 -6.9136,-12.72535 -15.4908,-12.72535 -13.4168,0 -29.4477,11.34262 -29.4477,24.068"
     id="path260"
     style="stroke-width:1.38272" />
  <path
     class="Note"
     d="m 1609.496,1702.2922 c 0,5.9414 4.2778,12.5742 15.4908,12.5742 14.3674,0 29.4477,-11.7532 29.4477,-23.9168 0,-8.1667 -6.9136,-12.7254 -15.4908,-12.7254 -13.4167,0 -29.4477,11.3427 -29.4477,24.068"
     id="path262"
     style="stroke-width:1.38272" />
  <path
     class="Note"
     d="m 1946.1166,924.50775 c 0,5.94139 4.2778,12.57417 15.4908,12.57417 14.3674,0 29.4477,-11.75318 29.4477,-23.91682 0,-8.16671 -6.9136,-12.72534 -15.4908,-12.72534 -13.4168,0 -29.4477,11.34262 -29.4477,24.06799"
     id="path264"
     style="stroke-width:1.38272" />
  <path
     class="Note"
     d="m 1149.8145,1702.2922 c 0,5.9414 4.2778,12.5742 15.4908,12.5742 14.3674,0 29.4477,-11.7532 29.4477,-23.9168 0,-8.1667 -6.9136,-12.7254 -15.4908,-12.7254 -13.4167,0 -29.4477,11.3427 -29.4477,24.068"
     id="path266"
     style="stroke-width:1.38272" />
  <path
     class="Note"
     d="m 2126.1912,959.07583 c 0,5.94138 4.2778,12.57418 15.4908,12.57418 14.3673,0 29.4477,-11.75319 29.4477,-23.91683 0,-8.16671 -6.9136,-12.72535 -15.4908,-12.72535 -13.4168,0 -29.4477,11.34262 -29.4477,24.068"
     id="path268"
     style="stroke-width:1.38272" />
  <path
     class="Note"
     d="m 955.50003,1719.5763 c 0,5.9414 4.2778,12.5741 15.49079,12.5741 14.36745,0 29.44768,-11.7531 29.44768,-23.9168 0,-8.1667 -6.91359,-12.7253 -15.49077,-12.7253 -13.41669,0 -29.4477,11.3426 -29.4477,24.068"
     id="path270"
     style="stroke-width:1.38272" />
  <path
     class="Note"
     d="m 761.18702,1754.1444 c 0,5.9413 4.2778,12.5741 15.49079,12.5741 14.36745,0 29.44771,-11.7532 29.44771,-23.9168 0,-8.1667 -6.91362,-12.7254 -15.4908,-12.7254 -13.41669,0 -29.4477,11.3427 -29.4477,24.0681"
     id="path272"
     style="stroke-width:1.38272" />
  <path
     class="Note"
     d="m 2355.7065,993.64391 c 0,5.9414 4.2778,12.57419 15.4908,12.57419 14.3673,0 29.4477,-11.75319 29.4477,-23.91689 0,-8.1667 -6.9136,-12.7253 -15.4908,-12.7253 -13.4168,0 -29.4477,11.3426 -29.4477,24.068"
     id="path274"
     style="stroke-width:1.38272" />
  <path
     class="Note"
     d="m 566.87261,1788.7124 c 0,5.9414 4.2778,12.5742 15.49079,12.5742 14.36746,0 29.44771,-11.7532 29.44771,-23.9168 0,-8.1667 -6.91361,-12.7254 -15.49079,-12.7254 -13.41669,0 -29.44771,11.3427 -29.44771,24.068"
     id="path276"
     style="stroke-width:1.38272" />
  <path
     class="Note"
     d="m 1415.19,1702.2922 c 0,5.9414 4.2778,12.5742 15.4908,12.5742 14.3673,0 29.4477,-11.7532 29.4477,-23.9168 0,-8.1667 -6.9137,-12.7254 -15.4909,-12.7254 -13.4167,0 -29.4476,11.3427 -29.4476,24.068"
     id="path278"
     style="stroke-width:1.38272" />
  <path
     class="Note"
     d="m 3677.2663,959.07583 c 0,5.94138 4.2778,12.57418 15.4908,12.57418 14.3674,0 29.4477,-11.75319 29.4477,-23.91683 0,-8.16671 -6.9136,-12.72535 -15.4908,-12.72535 -13.4167,0 -29.4477,11.34262 -29.4477,24.068"
     id="path280"
     style="stroke-width:1.38272" />
  <path
     class="Note"
     d="m 3497.1778,924.50775 c 0,5.94139 4.2778,12.57417 15.4908,12.57417 14.3674,0 29.4477,-11.75318 29.4477,-23.91682 0,-8.16671 -6.9136,-12.72534 -15.4908,-12.72534 -13.4168,0 -29.4477,11.34262 -29.4477,24.06799"
     id="path282"
     style="stroke-width:1.38272" />
  <path
     class="Note"
     d="m 3317.1032,907.22371 c 0,5.94139 4.2778,12.57417 15.4908,12.57417 14.3674,0 29.4477,-11.75317 29.4477,-23.91682 0,-8.1667 -6.9136,-12.72534 -15.4908,-12.72534 -13.4167,0 -29.4477,11.34262 -29.4477,24.06799"
     id="path284"
     style="stroke-width:1.38272" />
  <path
     class="Note"
     d="m 2715.8835,924.50775 c 0,5.94139 4.2778,12.57417 15.4908,12.57417 14.3674,0 29.4477,-11.75318 29.4477,-23.91682 0,-8.16671 -6.9136,-12.72534 -15.4908,-12.72534 -13.4167,0 -29.4477,11.34262 -29.4477,24.06799"
     id="path286"
     style="stroke-width:1.38272" />
  <path
     class="Note"
     d="m 3137.0147,889.93968 c 0,5.94138 4.2778,12.57416 15.4908,12.57416 14.3674,0 29.4477,-11.75317 29.4477,-23.91681 0,-8.16671 -6.9136,-12.72535 -15.4908,-12.72535 -13.4168,0 -29.4477,11.34262 -29.4477,24.068"
     id="path288"
     style="stroke-width:1.38272" />
  <path
     class="Note"
     d="m 996.2583,959.07583 c 0,5.94138 4.2778,12.57418 15.4908,12.57418 14.3674,0 29.4477,-11.75319 29.4477,-23.91683 0,-8.16671 -6.9136,-12.72535 -15.4908,-12.72535 -13.4167,0 -29.4477,11.34262 -29.4477,24.068"
     id="path290"
     style="stroke-width:1.38272" />
  <path
     class="Note"
     d="m 2895.9581,907.22371 c 0,5.94139 4.2778,12.57417 15.4908,12.57417 14.3674,0 29.4477,-11.75317 29.4477,-23.91682 0,-8.1667 -6.9136,-12.72534 -15.4908,-12.72534 -13.4167,0 -29.4477,11.34262 -29.4477,24.06799"
     id="path292"
     style="stroke-width:1.38272" />
  <path
     class="Note"
     d="m 1803.816,1719.5763 c 0,5.9414 4.2778,12.5741 15.4908,12.5741 14.3674,0 29.4477,-11.7531 29.4477,-23.9168 0,-8.1667 -6.9136,-12.7253 -15.4908,-12.7253 -13.4168,0 -29.4477,11.3426 -29.4477,24.068"
     id="path294"
     style="stroke-width:1.38272" />
  <path
     class="Note"
     d="m 1998.122,1754.1444 c 0,5.9413 4.2778,12.5741 15.4908,12.5741 14.3674,0 29.4477,-11.7532 29.4477,-23.9168 0,-8.1667 -6.9136,-12.7254 -15.4908,-12.7254 -13.4167,0 -29.4477,11.3427 -29.4477,24.0681"
     id="path296"
     style="stroke-width:1.38272" />
  <path
     class="Note"
     d="m 1766.0281,907.22371 c 0,5.94139 4.2778,12.57417 15.4908,12.57417 14.3673,0 29.4477,-11.75317 29.4477,-23.91682 0,-8.1667 -6.9137,-12.72534 -15.4909,-12.72534 -13.4167,0 -29.4476,11.34262 -29.4476,24.06799"
     id="path298"
     style="stroke-width:1.38272" />
  <path
     class="Note"
     d="m 1585.9395,872.65564 c 0,5.94139 4.2778,12.57416 15.4909,12.57416 14.3673,0 29.4476,-11.75317 29.4476,-23.91681 0,-8.16671 -6.9136,-12.72535 -15.4908,-12.72535 -13.4167,0 -29.4477,11.34262 -29.4477,24.068"
     id="path300"
     style="stroke-width:1.38272" />
  <path
     class="Note"
     d="m 3663.0349,1805.9965 c 0,5.9414 4.2778,12.5741 15.4908,12.5741 14.3673,0 29.4477,-11.7531 29.4477,-23.9168 0,-8.1667 -6.9136,-12.7254 -15.4909,-12.7254 -13.4167,0 -29.4476,11.3427 -29.4476,24.0681"
     id="path302"
     style="stroke-width:1.38272" />
  <path
     class="Note"
     d="m 2436.1888,1805.9965 c 0,5.9414 4.2778,12.5741 15.4908,12.5741 14.3673,0 29.4477,-11.7531 29.4477,-23.9168 0,-8.1667 -6.9137,-12.7254 -15.4909,-12.7254 -13.4167,0 -29.4476,11.3427 -29.4476,24.0681"
     id="path304"
     style="stroke-width:1.38272" />
  <path
     class="Note"
     d="m 2630.4948,1771.4284 c 0,5.9414 4.2778,12.5741 15.4908,12.5741 14.3674,0 29.4477,-11.7531 29.4477,-23.9168 0,-8.1667 -6.9136,-12.7253 -15.4908,-12.7253 -13.4168,0 -29.4477,11.3426 -29.4477,24.068"
     id="path306"
     style="stroke-width:1.38272" />
  <path
     class="Note"
     d="m 2824.8148,1754.1444 c 0,5.9413 4.2778,12.5741 15.4908,12.5741 14.3674,0 29.4477,-11.7532 29.4477,-23.9168 0,-8.1667 -6.9136,-12.7254 -15.4908,-12.7254 -13.4168,0 -29.4477,11.3427 -29.4477,24.0681"
     id="path308"
     style="stroke-width:1.38272" />
  <path
     class="Note"
     d="m 1176.3413,924.50775 c 0,5.94139 4.2778,12.57417 15.4908,12.57417 14.3674,0 29.4477,-11.75318 29.4477,-23.91682 0,-8.16671 -6.9136,-12.72534 -15.4908,-12.72534 -13.4167,0 -29.4477,11.34262 -29.4477,24.06799"
     id="path310"
     style="stroke-width:1.38272" />
  <path
     class="Note"
     d="m 3468.7288,1771.4284 c 0,5.9414 4.2778,12.5741 15.4908,12.5741 14.3674,0 29.4477,-11.7531 29.4477,-23.9168 0,-8.1667 -6.9136,-12.7253 -15.4908,-12.7253 -13.4167,0 -29.4477,11.3426 -29.4477,24.068"
     id="path312"
     style="stroke-width:1.38272" />
  <path
     class="Note"
     d="m 1356.4256,907.22371 c 0,5.94139 4.2778,12.57417 15.4908,12.57417 14.3675,0 29.4477,-11.75317 29.4477,-23.91682 0,-8.1667 -6.9136,-12.72534 -15.4908,-12.72534 -13.4167,0 -29.4477,11.34262 -29.4477,24.06799"
     id="path314"
     style="stroke-width:1.38272" />
  <path
     class="Note"
     d="m 816.17395,993.64391 c 0,5.9414 4.2778,12.57419 15.49079,12.57419 14.36746,0 29.44771,-11.75319 29.44771,-23.91689 0,-8.1667 -6.91361,-12.7253 -15.49079,-12.7253 -13.41669,0 -29.44771,11.3426 -29.44771,24.068"
     id="path316"
     style="stroke-width:1.38272" />
  <path
     class="Note"
     d="m 3080.1028,1736.8603 c 0,5.9414 4.2778,12.5742 15.4908,12.5742 14.3674,0 29.4477,-11.7532 29.4477,-23.9168 0,-8.1667 -6.9136,-12.7254 -15.4908,-12.7254 -13.4167,0 -29.4477,11.3426 -29.4477,24.068"
     id="path318"
     style="stroke-width:1.38272" />
  <path
     class="Note"
     d="m 3274.4088,1754.1444 c 0,5.9413 4.2778,12.5741 15.4909,12.5741 14.3673,0 29.4476,-11.7532 29.4476,-23.9168 0,-8.1667 -6.9136,-12.7254 -15.4908,-12.7254 -13.4167,0 -29.4477,11.3427 -29.4477,24.0681"
     id="path320"
     style="stroke-width:1.38272" />
  <path
     class="Clef"
     d="m 382.38708,2590.0004 c -19.76852,0 -36.64213,-13.8272 -36.64213,-34.7193 0,-16.8519 11.88281,-31.9322 24.06805,-42.5835 2.33335,-1.9445 4.55871,-3.8673 6.63279,-5.9414 1.23145,7.4537 2.20365,13.8272 3.17585,19.639 -12.59565,3.5864 -21.15125,17.0031 -21.15125,29.8581 0,9.8303 7.60498,23.0958 18.66677,23.0958 1.10176,0 2.3549,-0.5617 2.3549,-1.9444 0,-1.1019 -1.25314,-1.9229 -3.04627,-3.0247 -5.40133,-3.1976 -8.44761,-6.9136 -8.44761,-13.568 0,-8.426 6.37353,-15.2099 14.3889,-17.1328 l 8.0155,45.349 c -2.76544,0.5617 -5.25005,0.9722 -8.0155,0.9722 m -4.14816,-142.9822 c 1.38272,-5.5309 7.60497,-20.0495 14.79955,-20.0495 2.07408,0 5.53089,6.6328 5.53089,16.3119 0,14.2377 -10.78096,25.0402 -20.33044,34.568 -0.82094,-5.5309 -1.5123,-11.0618 -1.5123,-16.7223 0,-5.25 0.5401,-9.8303 1.5123,-14.1081 m 17.97539,140.3464 c -2.89502,-16.4414 -6.63265,-38.4354 -7.60497,-44.528 13.95691,0 19.91991,9.6791 21.15137,16.3334 0.15126,1.1019 0.41052,2.6142 0.41052,4.2778 0,9.96 -4.14817,19.9199 -13.95692,23.9168 m -19.22843,94.5869 c -3.02471,0 -5.09879,-1.9228 -5.09879,-4.8395 0,-2.7655 1.23146,-4.9692 3.58638,-6.3519 0.56179,0.2809 0.69136,0.2809 1.10188,0.5401 1.66357,0.8426 1.66357,0.8426 1.94453,1.1235 2.61417,1.5123 3.73763,2.8951 3.73763,4.8395 0,2.6142 -2.22535,4.6883 -5.27163,4.6883 m 5.27163,-16.5927 c -2.07408,-1.1018 -2.63587,-1.3827 -3.04627,-1.6635 l -0.28096,-0.1297 c -2.07409,-1.2531 -2.76545,-2.2253 -2.76545,-3.8673 0,-2.5062 1.94451,-4.2994 4.70996,-4.2994 2.61418,0 4.27774,1.6636 4.27774,4.5587 0,2.2253 -0.82094,3.7377 -2.89502,5.4012 m 38.56498,-104.9573 c 0,-20.8705 -14.79943,-34.9786 -34.9786,-34.9786 -1.38272,-8.2963 -2.63576,-16.463 -3.8672,-24.1976 14.51859,-15.3612 24.73773,-32.7749 24.73773,-54.6176 0,-12.5957 -3.86733,-22.8149 -6.22225,-27.8051 -3.30553,-7.0437 -7.32414,-11.8832 -9.67906,-11.8832 -0.95062,0 -5.37962,1.6634 -9.80875,7.0437 -8.9877,10.5211 -11.47218,28.0644 -11.47218,39.6879 0,7.4753 0.69136,14.2377 3.04627,29.8798 -0.15126,0 -7.34572,7.3241 -10.24085,9.8087 -12.59564,11.6235 -30.00938,28.4754 -30.00938,56.0002 0,25.9909 22.53409,46.3213 48.26574,46.3213 3.99689,0 7.73454,-0.4105 11.06179,-0.9723 2.48448,13.1575 4.14817,22.9662 4.14817,30.2903 0,14.389 -7.47542,21.9939 -21.43221,21.9939 -3.32725,0 -6.22225,-0.6913 -6.50322,-0.8426 -0.12963,0 -0.4104,-0.1296 -0.4104,-0.2592 0,-0.2809 0.28083,-0.4321 0.69137,-0.5617 6.50307,-0.9723 12.98459,-6.6328 12.98459,-15.3396 0,-7.4754 -5.66058,-15.3612 -16.031,-15.3612 -9.67907,0 -15.77163,7.8858 -15.77163,17.0032 0,9.1389 6.91361,21.1729 25.58037,21.1729 17.84572,0 26.55258,-10.1112 26.55258,-27.8057 0,-5.3797 -0.82092,-11.6019 -2.20365,-19.4877 -0.41053,-2.7655 -1.1019,-7.0649 -2.07408,-12.3149 13.54627,-4.5587 23.63585,-18.5372 23.63585,-32.7749 m -30.00938,99.4264 c 0,-5.1203 -4.68825,-7.3241 -9.24696,-7.3241 -5.81172,0 -11.49389,3.5865 -11.49389,9.8087 0,2.6358 0.9722,4.5803 2.91673,6.5031 -3.60809,1.3828 -7.19458,4.1482 -7.19458,8.4476 0,4.5587 4.14817,7.605 10.24085,7.605 7.45371,0 12.70376,-4.1482 12.70376,-10.1112 0,-3.1759 -1.38272,-5.7901 -3.86733,-7.6049 4.01861,-1.7933 5.94142,-3.997 5.94142,-7.3242"
     id="path322"
     style="stroke-width:1.38272" />
  <path
     class="Clef"
     d="m 382.38708,1743.0826 c -19.76852,0 -36.64213,-13.8273 -36.64213,-34.7193 0,-16.852 11.88281,-31.9323 24.06805,-42.5836 2.33335,-1.9444 4.55871,-3.8673 6.63279,-5.9414 1.23145,7.4538 2.20365,13.8273 3.17585,19.639 -12.59565,3.5864 -21.15125,17.0032 -21.15125,29.8582 0,9.8303 7.60498,23.0958 18.66677,23.0958 1.10176,0 2.3549,-0.5617 2.3549,-1.9445 0,-1.1018 -1.25314,-1.9228 -3.04627,-3.0247 -5.40133,-3.1975 -8.44761,-6.9136 -8.44761,-13.5679 0,-8.426 6.37353,-15.21 14.3889,-17.1329 l 8.0155,45.349 c -2.76544,0.5618 -5.25005,0.9723 -8.0155,0.9723 m -4.14816,-142.9822 c 1.38272,-5.5309 7.60497,-20.0495 14.79955,-20.0495 2.07408,0 5.53089,6.6327 5.53089,16.3118 0,14.2377 -10.78096,25.0402 -20.33044,34.5681 -0.82094,-5.5309 -1.5123,-11.0618 -1.5123,-16.7223 0,-5.2501 0.5401,-9.8303 1.5123,-14.1081 m 17.97539,140.3464 c -2.89502,-16.4415 -6.63265,-38.4354 -7.60497,-44.528 13.95691,0 19.91991,9.679 21.15137,16.3334 0.15126,1.1018 0.41052,2.6142 0.41052,4.2778 0,9.9599 -4.14817,19.9198 -13.95692,23.9168 m -19.22843,94.5869 c -3.02471,0 -5.09879,-1.9229 -5.09879,-4.8396 0,-2.7654 1.23146,-4.9691 3.58638,-6.3519 0.56179,0.2809 0.69136,0.2809 1.10188,0.5402 1.66357,0.8426 1.66357,0.8426 1.94453,1.1234 2.61417,1.5124 3.73763,2.8951 3.73763,4.8396 0,2.6142 -2.22535,4.6883 -5.27163,4.6883 m 5.27163,-16.5927 c -2.07408,-1.1019 -2.63587,-1.3827 -3.04627,-1.6636 l -0.28096,-0.1296 c -2.07409,-1.2531 -2.76545,-2.2254 -2.76545,-3.8673 0,-2.5062 1.94451,-4.2995 4.70996,-4.2995 2.61418,0 4.27774,1.6636 4.27774,4.5587 0,2.2253 -0.82094,3.7377 -2.89502,5.4013 m 38.56498,-104.9573 c 0,-20.8705 -14.79943,-34.9786 -34.9786,-34.9786 -1.38272,-8.2964 -2.63576,-16.4631 -3.8672,-24.1977 14.51859,-15.3612 24.73773,-32.7748 24.73773,-54.6175 0,-12.5958 -3.86733,-22.815 -6.22225,-27.8052 -3.30553,-7.0436 -7.32414,-11.8832 -9.67906,-11.8832 -0.95062,0 -5.37962,1.6635 -9.80875,7.0437 -8.9877,10.5211 -11.47218,28.0644 -11.47218,39.6879 0,7.4754 0.69136,14.2377 3.04627,29.8798 -0.15126,0 -7.34572,7.3241 -10.24085,9.8087 -12.59564,11.6235 -30.00938,28.4754 -30.00938,56.0003 0,25.9908 22.53409,46.3212 48.26574,46.3212 3.99689,0 7.73454,-0.4105 11.06179,-0.9722 2.48448,13.1574 4.14817,22.9661 4.14817,30.2902 0,14.389 -7.47542,21.994 -21.43221,21.994 -3.32725,0 -6.22225,-0.6914 -6.50322,-0.8426 -0.12963,0 -0.4104,-0.1296 -0.4104,-0.2593 0,-0.2808 0.28083,-0.4321 0.69137,-0.5617 6.50307,-0.9722 12.98459,-6.6328 12.98459,-15.3396 0,-7.4753 -5.66058,-15.3612 -16.031,-15.3612 -9.67907,0 -15.77163,7.8859 -15.77163,17.0032 0,9.1389 6.91361,21.1729 25.58037,21.1729 17.84572,0 26.55258,-10.1111 26.55258,-27.8057 0,-5.3796 -0.82092,-11.6019 -2.20365,-19.4877 -0.41053,-2.7655 -1.1019,-7.0649 -2.07408,-12.3149 13.54627,-4.5587 23.63585,-18.5371 23.63585,-32.7748 m -30.00938,99.4264 c 0,-5.1204 -4.68825,-7.3241 -9.24696,-7.3241 -5.81172,0 -11.49389,3.5864 -11.49389,9.8087 0,2.6358 0.9722,4.5802 2.91673,6.5031 -3.60809,1.3827 -7.19458,4.1482 -7.19458,8.4476 0,4.5586 4.14817,7.6049 10.24085,7.6049 7.45371,0 12.70376,-4.1481 12.70376,-10.1111 0,-3.176 -1.38272,-5.7902 -3.86733,-7.605 4.01861,-1.7932 5.94142,-3.9969 5.94142,-7.3241"
     id="path324"
     style="stroke-width:1.38272" />
  <path
     class="Clef"
     d="m 555.22746,896.1619 c -19.76852,0 -36.64213,-13.82723 -36.64213,-34.71928 0,-16.85201 11.88281,-31.93226 24.06805,-42.58352 2.33335,-1.94451 4.55871,-3.86733 6.63279,-5.94142 1.23145,7.45371 2.20365,13.82723 3.17585,19.63896 -12.59565,3.58649 -21.15125,17.0032 -21.15125,29.8582 0,9.8303 7.60498,23.0958 18.66677,23.0958 1.10176,0 2.3549,-0.56166 2.3549,-1.94438 0,-1.1019 -1.25314,-1.92295 -3.04627,-3.02478 -5.40133,-3.19755 -8.44761,-6.91362 -8.44761,-13.56797 0,-8.42597 6.37353,-15.21002 14.3889,-17.13283 l 8.01551,45.34902 c -2.76545,0.5618 -5.25006,0.9722 -8.01551,0.9722 M 551.0793,753.17975 c 1.38272,-5.53089 7.60497,-20.04948 14.79955,-20.04948 2.07409,0 5.53089,6.63265 5.53089,16.31171 0,14.23777 -10.78096,25.04029 -20.33044,34.56808 -0.82094,-5.53089 -1.5123,-11.06179 -1.5123,-16.72224 0,-5.25005 0.5401,-9.83032 1.5123,-14.10807 m 17.9754,140.34639 c -2.89503,-16.44147 -6.63266,-38.43541 -7.60498,-44.5281 13.95691,0 19.91991,9.67913 21.15137,16.33349 0.15126,1.10185 0.41052,2.61421 0.41052,4.2778 0,9.95992 -4.14817,19.91992 -13.95691,23.91681 m -19.22844,94.58687 c -3.02471,0 -5.09879,-1.9228 -5.09879,-4.8396 0,-2.7654 1.23146,-4.9691 3.58638,-6.3518 0.56179,0.2809 0.69136,0.2809 1.10188,0.5401 1.66357,0.8426 1.66357,0.8426 1.94453,1.1235 2.61417,1.5124 3.73763,2.8951 3.73763,4.8395 0,2.6142 -2.22535,4.6883 -5.27163,4.6883 m 5.27163,-16.5927 c -2.07408,-1.1018 -2.63587,-1.3827 -3.04627,-1.6636 l -0.28096,-0.1295 c -2.07409,-1.2531 -2.76545,-2.2253 -2.76545,-3.8673 0,-2.5062 1.94451,-4.29943 4.70996,-4.29943 2.61418,0 4.27774,1.66356 4.27774,4.55873 0,2.2253 -0.82094,3.7376 -2.89502,5.4012 m 38.56498,-104.9574 c 0,-20.8705 -14.79943,-34.97857 -34.9786,-34.97857 -1.38272,-8.29634 -2.63576,-16.46311 -3.8672,-24.19765 14.51859,-15.36122 24.73773,-32.77483 24.73773,-54.61756 0,-12.59577 -3.86733,-22.81493 -6.22225,-27.80518 -3.30553,-7.0436 -7.32414,-11.88313 -9.67906,-11.88313 -0.95062,0 -5.37962,1.66342 -9.80875,7.0436 -8.9877,10.52114 -11.47218,28.06444 -11.47218,39.68788 0,7.47542 0.69136,14.23777 3.04627,29.87983 -0.15126,0 -7.34572,7.32414 -10.24085,9.80874 -12.59564,11.62346 -30.00938,28.4754 -30.00938,56.00026 0,25.99094 22.53409,46.32125 48.26574,46.32125 3.9969,0 7.73454,-0.41052 11.06179,-0.97219 2.48448,13.15744 4.14817,22.96607 4.14817,30.29021 0,14.38903 -7.47542,21.99401 -21.43221,21.99401 -3.32725,0 -6.22225,-0.69136 -6.50322,-0.84264 -0.12963,0 -0.4104,-0.12963 -0.4104,-0.25926 0,-0.28082 0.28083,-0.4321 0.69137,-0.56179 6.50307,-0.9722 12.98459,-6.63265 12.98459,-15.33953 0,-7.4754 -5.66058,-15.36121 -16.031,-15.36121 -9.67906,0 -15.77163,7.88581 -15.77163,17.0032 0,9.13898 6.91361,21.17294 25.58037,21.17294 17.84572,0 26.55258,-10.11116 26.55258,-27.80572 0,-5.37963 -0.82092,-11.60188 -2.20365,-19.48768 -0.41053,-2.76545 -1.10189,-7.06489 -2.07408,-12.31495 13.54627,-4.55869 23.63585,-18.53706 23.63585,-32.77486 m -30.00938,99.4264 c 0,-5.12036 -4.68825,-7.32401 -9.24696,-7.32401 -5.81172,0 -11.49389,3.58637 -11.49389,9.80861 0,2.6359 0.9722,4.5803 2.91673,6.5031 -3.60809,1.3827 -7.19458,4.1482 -7.19458,8.4476 0,4.5587 4.14817,7.605 10.24085,7.605 7.45371,0 12.70376,-4.1482 12.70376,-10.1112 0,-3.1759 -1.38272,-5.7901 -3.86733,-7.605 4.01861,-1.7932 5.94142,-3.9969 5.94142,-7.3241"
     id="path326"
     style="stroke-width:1.38272" />
  <path
     class="KeySig"
     d="m 630.34894,752.89886 12.31485,-2.48458 v 22.81493 l -12.31485,2.63581 v -22.96616 m 21.43223,-4.2778 c 0.84264,-0.12977 1.534,-1.10189 1.534,-1.94452 v -8.14507 c 0,-1.1019 -0.84263,-1.94439 -1.94452,-1.94439 h -0.28084 l -4.55869,0.97219 v -20.61128 h -3.86733 v 21.43221 l -12.31485,2.50618 v -19.50926 h -3.8673 v 20.33032 l -5.40127,1.10189 c -0.82099,0.15114 -1.51235,1.10176 -1.51235,1.9444 v 8.0155 c 0,1.10186 0.82099,1.94445 1.94446,1.94445 h 0.41049 l 4.55867,-0.97222 v 22.81493 l -5.40127,1.10185 c -0.82099,0.12963 -1.51235,1.10189 -1.51235,1.94453 v 8.01537 c 0,1.10189 0.82099,1.92295 1.94446,1.92295 h 0.41049 l 4.55867,-0.95062 v 20.58957 h 3.8673 v -21.43221 l 12.31485,-2.48461 v 19.50939 h 3.86733 V 784.4423 l 5.25005,-0.97233 c 0.84264,-0.15113 1.534,-1.10176 1.534,-1.9444 v -8.14513 c 0,-1.12346 -0.84263,-1.94445 -1.94452,-1.94445 h -0.28084 l -4.55869,0.97223 v -22.81493 l 5.25005,-0.97223"
     id="path328"
     style="stroke-width:1.38272" />
  <path
     class="KeySig"
     d="m 457.50856,2446.7374 12.31485,-2.4846 v 22.8149 l -12.31485,2.6358 v -22.9661 m 21.43223,-4.2778 c 0.84264,-0.1297 1.534,-1.1019 1.534,-1.9445 v -8.1451 c 0,-1.1019 -0.84263,-1.9444 -1.94452,-1.9444 h -0.28084 l -4.55869,0.9722 v -20.6112 h -3.86733 v 21.4322 l -12.31485,2.5062 v -19.5094 h -3.8673 v 20.3303 l -5.40127,1.1019 c -0.82099,0.1512 -1.51235,1.1019 -1.51235,1.9445 v 8.0154 c 0,1.1019 0.82099,1.9445 1.94445,1.9445 h 0.4105 l 4.55867,-0.9722 v 22.8149 l -5.40127,1.1018 c -0.82099,0.1297 -1.51235,1.1019 -1.51235,1.9445 v 8.0155 c 0,1.1018 0.82099,1.9228 1.94445,1.9228 h 0.4105 l 4.55867,-0.9506 v 20.5896 h 3.8673 v -21.4322 l 12.31485,-2.4846 v 19.5094 h 3.86733 v -20.3304 l 5.25005,-0.9722 c 0.84264,-0.1512 1.534,-1.1019 1.534,-1.9444 v -8.1452 c 0,-1.1234 -0.84263,-1.9444 -1.94452,-1.9444 h -0.28084 l -4.55869,0.9722 v -22.8149 l 5.25005,-0.9722"
     id="path330"
     style="stroke-width:1.38272" />
  <path
     class="KeySig"
     d="m 457.50856,1599.8195 12.31485,-2.4846 v 22.8149 l -12.31485,2.6359 v -22.9662 m 21.43223,-4.2778 c 0.84264,-0.1296 1.534,-1.1019 1.534,-1.9445 v -8.1451 c 0,-1.1018 -0.84263,-1.9444 -1.94452,-1.9444 h -0.28084 l -4.55869,0.9722 v -20.6112 h -3.86733 v 21.4322 l -12.31485,2.5062 v -19.5094 h -3.8673 v 20.3304 l -5.40127,1.1018 c -0.82099,0.1513 -1.51235,1.1019 -1.51235,1.9445 v 8.0155 c 0,1.1018 0.82099,1.9444 1.94445,1.9444 h 0.4105 l 4.55867,-0.9722 v 22.8149 l -5.40127,1.1019 c -0.82099,0.1296 -1.51235,1.1018 -1.51235,1.9444 v 8.0155 c 0,1.1019 0.82099,1.9229 1.94445,1.9229 h 0.4105 l 4.55867,-0.9507 v 20.5896 h 3.8673 v -21.4322 l 12.31485,-2.4845 v 19.5093 h 3.86733 v -20.3303 l 5.25005,-0.9723 c 0.84264,-0.1512 1.534,-1.1018 1.534,-1.9444 v -8.1451 c 0,-1.1235 -0.84263,-1.9445 -1.94452,-1.9445 h -0.28084 l -4.55869,0.9723 v -22.815 l 5.25005,-0.9722"
     id="path332"
     style="stroke-width:1.38272" />
  <path
     class="TimeSig"
     d="m 714.69507,815.2726 v 10.21929 h -11.4723 c -0.9722,0 -1.94439,0.8425 -1.94439,1.94438 v 2.63589 c 0,1.10176 0.97219,1.92281 1.94439,1.92281 h 41.89221 c 1.12346,0 1.9444,-0.82105 1.9444,-1.92281 v -2.63589 c 0,-1.10188 -0.82094,-1.94438 -1.9444,-1.94438 H 732.67047 V 815.2726 h 12.44451 c 1.12346,0 1.9444,-0.9722 1.9444,-2.07408 v -2.63579 c 0,-0.97223 -0.82094,-1.92285 -1.9444,-1.92285 h -12.44451 v -21.99394 c 0,-0.82099 -0.41052,-1.51235 -0.95062,-1.79322 l -1.66355,-0.84259 c -0.28096,-0.12963 -0.41053,-0.12963 -0.69136,-0.12963 -0.5618,0 -1.1019,0 -1.534,0.41049 l -12.57419,11.47228 c -0.4104,0.4321 -0.56168,0.97223 -0.56168,1.53396 v 11.34265 H 698.6641 c 0,0 15.49089,-16.59268 31.8026,-38.45705 0.56179,-0.69136 0.69136,-1.38273 0.69136,-1.92281 0,-0.69136 -0.28083,-1.25304 -0.41039,-1.38272 l -3.04641,-3.04629 c -0.4104,-0.28084 -0.82094,-0.5618 -1.38273,-0.5618 -0.82093,0 -19.50926,0 -20.61116,0 -0.97218,0 -1.66354,0.84264 -1.79324,1.66369 0,0 -0.69136,10.24073 -4.2778,21.43218 -3.60805,11.21302 -7.75621,18.12663 -11.34265,23.22542 0,0 -0.4105,0.69136 -0.4105,1.53396 0,0.28087 0,0.5402 0.12963,0.82102 0.4105,0.9722 1.38272,2.48462 1.38272,2.48462 0,0 0.28087,0.8425 1.51236,0.8425 h 23.78718"
     id="path334"
     style="stroke-width:1.38272" />
  <path
     class="TimeSig"
     d="m 714.69507,884.40876 v 10.21928 h -11.4723 c -0.9722,0 -1.94439,0.8425 -1.94439,1.94438 v 2.63589 c 0,1.10176 0.97219,1.92281 1.94439,1.92281 h 41.89221 c 1.12346,0 1.9444,-0.82105 1.9444,-1.92281 v -2.63589 c 0,-1.10188 -0.82094,-1.94438 -1.9444,-1.94438 h -12.44451 v -10.21928 h 12.44451 c 1.12346,0 1.9444,-0.9722 1.9444,-2.07409 v -2.63579 c 0,-0.97222 -0.82094,-1.92285 -1.9444,-1.92285 H 732.67047 V 855.7821 c 0,-0.821 -0.41052,-1.51236 -0.95062,-1.79322 l -1.66355,-0.8426 c -0.28096,-0.12963 -0.41053,-0.12963 -0.69136,-0.12963 -0.5618,0 -1.1019,0 -1.534,0.41049 l -12.57419,11.47229 c -0.4104,0.4321 -0.56168,0.97222 -0.56168,1.53395 v 11.34265 H 698.6641 c 0,0 15.49089,-16.59267 31.8026,-38.45705 0.56179,-0.69136 0.69136,-1.38272 0.69136,-1.92281 0,-0.69136 -0.28083,-1.25304 -0.41039,-1.38272 l -3.04641,-3.04629 c -0.4104,-0.28083 -0.82094,-0.5618 -1.38273,-0.5618 -0.82093,0 -19.50926,0 -20.61116,0 -0.97218,0 -1.66354,0.84264 -1.79324,1.66369 0,0 -0.69136,10.24074 -4.2778,21.43218 -3.60805,11.21302 -7.75621,18.12663 -11.34265,23.22543 0,0 -0.4105,0.69136 -0.4105,1.53395 0,0.28087 0,0.5402 0.12963,0.82102 0.4105,0.9722 1.38272,2.48463 1.38272,2.48463 0,0 0.28087,0.8425 1.51236,0.8425 h 23.78718"
     id="path336"
     style="stroke-width:1.38272" />
  <path
     class="Fingering"
     d="m 1920.6784,902.42112 c -7.8057,0 -13.4788,8.47197 -13.4788,20.19027 0,11.47715 5.5058,19.88361 13.0188,19.88361 7.8196,0 13.2836,-8.1235 13.2836,-19.73168 0,-5.90166 -1.2405,-10.80253 -3.5683,-14.65798 -2.1744,-3.50559 -5.7567,-5.68422 -9.2553,-5.68422 m -0.3903,2.39607 c 1.826,0 3.6101,1.21964 4.9622,3.46238 1.5054,2.61352 2.0072,5.79434 2.0072,13.43834 0,7.86285 -0.4043,11.54267 -1.5054,13.98195 -1.2824,2.74454 -3.2896,4.39907 -5.4082,4.39907 -1.8957,0 -3.6381,-1.21964 -4.9622,-3.44008 -1.5612,-2.63582 -2.0072,-6.07729 -2.0072,-15.22389 0,-6.53449 0.3903,-9.75712 1.5054,-12.2187 1.2823,-2.78775 3.2895,-4.39907 5.4082,-4.39907"
     id="path338"
     style="stroke-width:1.39387" />
  <path
     class="Fingering"
     d="m 827.76402,718.26248 -10.1488,0.82657 -0.17423,2.0253 h 1.35066 c 2.22183,0 3.11391,0.50179 3.11391,1.76464 0,0.5004 -0.17423,1.35067 -0.45719,2.41698 l -5.68422,19.16577 h 4.85626 l 2.28735,-7.86145 c 2.50479,-8.53748 7.57849,-14.98415 11.76011,-14.98415 1.45939,0 2.35286,0.76245 2.35286,2.15633 0,1.13182 -0.45719,3.46238 -1.13322,5.57549 l -4.44227,15.11378 h 4.83535 l 2.39467,-8.07889 c 1.39388,-4.64021 2.78775,-7.75413 4.5747,-10.1502 2.00299,-2.78774 4.85625,-4.61651 6.96937,-4.61651 1.39387,0 2.17723,0.71785 2.17723,2.0476 0,0.78336 -0.28296,2.003 -0.78336,3.57111 l -2.5703,7.92836 c -1.5026,4.33355 -1.54581,4.68202 -1.54581,6.22782 0,2.35286 1.72004,3.89867 4.33356,3.89867 1.85106,0 3.63661,-0.89208 5.53228,-2.65672 1.17504,-1.13322 1.93749,-2.13402 4.22483,-5.46678 l -1.72004,-1.17643 c -2.89786,4.35586 -4.96637,6.46897 -6.40345,6.46897 -0.61052,0 -1.17643,-0.61051 -1.17643,-1.39387 0,-0.5004 0.17423,-1.11092 0.67463,-2.74454 l 3.50699,-10.80252 c 0.39168,-1.21964 0.67463,-2.96199 0.67463,-4.18163 0,-2.96198 -2.17723,-5.0737 -5.18242,-5.0737 -3.96418,0 -7.53668,2.56891 -10.75931,7.86145 0.21744,-1.06631 0.32616,-2.00299 0.32616,-2.67902 0,-2.96199 -2.35146,-5.18243 -5.40126,-5.18243 -3.52789,0 -6.0759,1.95979 -9.99686,7.53529 l 1.63362,-7.53529"
     id="path340"
     style="stroke-width:1.39387" />
  <path
     class="Fingering"
     d="m 1187.9327,718.26248 -10.1488,0.82657 -0.1742,2.0253 h 1.3493 c 2.2218,0 3.1153,0.50179 3.1153,1.76464 0,0.5004 -0.1742,1.35067 -0.4572,2.41698 l -5.6856,19.16577 h 4.8576 l 2.286,-7.86145 c 2.5048,-8.53748 7.5799,-14.98415 11.7615,-14.98415 1.4594,0 2.3515,0.76245 2.3515,2.15633 0,1.13182 -0.4572,3.46238 -1.1319,5.57549 l -4.4436,15.11378 h 4.8353 l 2.3961,-8.07889 c 1.3939,-4.64021 2.7877,-7.75413 4.5733,-10.1502 2.0044,-2.78774 4.8576,-4.61651 6.9694,-4.61651 1.3938,0 2.1786,0.71785 2.1786,2.0476 0,0.78336 -0.283,2.003 -0.7848,3.57111 l -2.5703,7.92836 c -1.5026,4.33355 -1.5458,4.68202 -1.5458,6.22782 0,2.35286 1.7201,3.89867 4.3336,3.89867 1.8524,0 3.638,-0.89208 5.5323,-2.65672 1.1764,-1.13322 1.9388,-2.13402 4.2248,-5.46678 l -1.72,-1.17643 c -2.8965,4.35586 -4.965,6.46897 -6.4035,6.46897 -0.6091,0 -1.175,-0.61051 -1.175,-1.39387 0,-0.5004 0.1742,-1.11092 0.6746,-2.74454 l 3.507,-10.80252 c 0.3917,-1.21964 0.6746,-2.96199 0.6746,-4.18163 0,-2.96198 -2.1786,-5.0737 -5.1838,-5.0737 -3.9642,0 -7.5353,2.56891 -10.7593,7.86145 0.2188,-1.06631 0.3275,-2.00299 0.3275,-2.67902 0,-2.96199 -2.3528,-5.18243 -5.4012,-5.18243 -3.5279,0 -6.0773,1.95979 -9.9969,7.53529 l 1.6336,-7.53529"
     id="path342"
     style="stroke-width:1.39387" />
  <path
     class="Fingering"
     d="m 1150.9756,906.49402 c -7.7974,0 -13.4816,8.47197 -13.4816,20.18887 0,11.47855 5.51,19.88501 13.0244,19.88501 7.8182,0 13.285,-8.1235 13.285,-19.73168 0,-5.90306 -1.2406,-10.80253 -3.5711,-14.65798 -2.1786,-3.50699 -5.7497,-5.68422 -9.2567,-5.68422 m -0.3917,2.39607 c 1.8288,0 3.6157,1.21964 4.965,3.46238 1.5026,2.61352 2.0044,5.79294 2.0044,13.43834 0,7.86145 -0.3917,11.54267 -1.5026,13.98195 -1.2852,2.74454 -3.2896,4.39907 -5.4013,4.39907 -1.8957,0 -3.638,-1.21964 -4.9664,-3.44148 -1.5681,-2.63442 -2.003,-6.07589 -2.003,-15.22389 0,-6.53309 0.3917,-9.75712 1.5026,-12.2173 1.2852,-2.78775 3.2882,-4.39907 5.4013,-4.39907"
     id="path344"
     style="stroke-width:1.39387" />
  <path
     class="Fingering"
     d="m 1592.5883,736.29503 c -1.8957,0 -3.4429,1.56811 -3.4429,3.46238 0,1.89567 1.5472,3.44148 3.4011,3.44148 2.0072,0 3.4986,-1.5026 3.4986,-3.44148 0,-1.89427 -1.5611,-3.46238 -3.4568,-3.46238 m 15.486,0 c -1.8957,0 -3.4429,1.56811 -3.4429,3.46238 0,1.89567 1.5472,3.44148 3.401,3.44148 2.0072,0 3.4987,-1.5026 3.4987,-3.44148 0,-1.89427 -1.5612,-3.46238 -3.4568,-3.46238 m 15.4859,0 c -1.8957,0 -3.4429,1.56811 -3.4429,3.46238 0,1.89567 1.5472,3.44148 3.4011,3.44148 2.0072,0 3.4986,-1.5026 3.4986,-3.44148 0,-1.89427 -1.5611,-3.46238 -3.4568,-3.46238"
     id="path346"
     style="stroke-width:1.39387" />
  <path
     class="Fingering"
     d="m 1567.4149,846.77767 c -7.7917,0 -13.4787,8.47197 -13.4787,20.19026 0,11.47716 5.5058,19.88362 13.0327,19.88362 7.8057,0 13.2836,-8.1235 13.2836,-19.73168 0,-5.90167 -1.2405,-10.80253 -3.5822,-14.65798 -2.1745,-3.5056 -5.7428,-5.68422 -9.2554,-5.68422 m -0.3902,2.39607 c 1.8259,0 3.624,1.21964 4.9622,3.46238 1.5053,2.61352 2.0071,5.79434 2.0071,13.43834 0,7.86284 -0.3902,11.54267 -1.5053,13.98195 -1.2824,2.74454 -3.2896,4.39907 -5.3943,4.39907 -1.8957,0 -3.6381,-1.21964 -4.9622,-3.44008 -1.5751,-2.63582 -2.0072,-6.07729 -2.0072,-15.2239 0,-6.53448 0.3903,-9.75711 1.5054,-12.2187 1.2823,-2.78774 3.2895,-4.39906 5.3943,-4.39906"
     id="path348"
     style="stroke-width:1.39387" />
  <path
     class="Fingering"
     d="m 786.68515,993.24591 c 5.0751,-1.8287 7.40566,-4.682 7.40566,-9.1466 0,-5.8375 -4.46598,-9.5828 -11.36983,-9.5828 -6.53309,0 -11.47716,3.854 -11.47716,8.9291 0,2.2874 1.50259,3.8987 3.68122,3.8987 1.93748,0 3.28815,-1.3507 3.28815,-3.3537 0,-1.2196 -0.45719,-1.9389 -1.74234,-2.8323 -0.54501,-0.3917 -0.71924,-0.6315 -0.71924,-1.0008 0,-1.5681 3.22403,-3.2464 6.40345,-3.2464 4.02969,0 6.14141,2.5048 6.14141,7.2538 0,5.1824 -2.11172,7.9046 -6.07589,7.9046 -0.5004,0 -1.45939,-0.043 -2.28735,-0.1087 -0.45719,-0.043 -0.89208,-0.043 -1.21964,-0.043 -1.17504,0 -1.78555,0.5004 -1.78555,1.5026 0,0.9367 0.545,1.3939 1.78555,1.3939 0.32756,0 0.76245,0 1.26424,-0.066 1.13183,-0.043 2.0253,-0.043 2.63442,-0.043 4.11611,0 6.36025,2.9397 6.36025,8.47199 0,5.7929 -2.78775,9.017 -7.81963,9.017 -3.50559,0 -7.29554,-1.8943 -7.29554,-3.6157 0,-0.5004 0.10872,-0.6092 1.17643,-1.2197 1.54581,-0.9576 2.15632,-1.8943 2.15632,-3.2881 0,-2.0253 -1.50399,-3.5279 -3.50698,-3.5279 -2.39607,0 -3.94188,1.9598 -3.94188,4.9217 0,5.4013 4.94407,9.1257 12.08768,9.1257 8.08029,0 13.32822,-4.4436 13.32822,-11.3043 0,-5.24789 -2.67902,-8.42869 -8.47197,-10.04009"
     id="path350"
     style="stroke-width:1.39387" />
  <path
     class="Fingering"
     d="m 1749.4549,913.03686 h -2.4532 l -0.5715,2.85327 c -0.7109,3.61431 -1.1569,3.94187 -4.6137,3.94187 h -12.4752 c 3.8331,-4.00739 5.1155,-5.18382 8.6838,-7.97156 5.0737,-3.89867 7.2482,-5.83616 8.5166,-7.51438 1.7842,-2.46019 2.6762,-4.89947 2.6762,-7.644 0,-6.35886 -5.227,-10.86804 -12.5448,-10.86804 -7.0809,0 -12.4752,4.50918 -12.4752,10.47636 0,3.52789 1.7842,5.92396 4.4046,5.92396 2.063,0 3.4569,-1.39387 3.4569,-3.41917 0,-1.39388 -0.7806,-2.65812 -1.9654,-3.15852 -2.049,-0.84887 -2.1466,-0.95759 -2.1466,-1.67683 0,-0.84887 0.5436,-2.13402 1.3242,-3.07071 1.3939,-1.72143 3.6798,-2.67902 6.3003,-2.67902 4.6277,0 7.3597,2.85326 7.3597,7.53528 0,4.11611 -1.9375,7.86285 -6.5791,12.76231 -4.1259,4.33495 -6.6906,7.07949 -7.6524,8.1458 -1.9932,2.33056 -2.9968,3.61571 -5.4361,6.83835 v 1.56811 h 25.1316 l 1.0593,-12.04308"
     id="path352"
     style="stroke-width:1.39387" />
  <path
     class="Fingering"
     d="m 1346.7731,910.04004 h -2.4602 l -0.5659,2.85326 c -0.7193,3.61431 -1.1556,3.94187 -4.618,3.94187 h -12.4793 c 3.8331,-4.00739 5.1183,-5.18382 8.6894,-7.97156 5.0751,-3.89867 7.2523,-5.83615 8.5166,-7.51438 1.7855,-2.46019 2.679,-4.89947 2.679,-7.644 0,-6.35886 -5.227,-10.86804 -12.5449,-10.86804 -7.0795,0 -12.4807,4.50918 -12.4807,10.47636 0,3.52789 1.7869,5.92396 4.4004,5.92396 2.0686,0 3.4624,-1.39387 3.4624,-3.41917 0,-1.39388 -0.7833,-2.65812 -1.9598,-3.15852 -2.0476,-0.84887 -2.1563,-0.95759 -2.1563,-1.67683 0,-0.84887 0.545,-2.13402 1.3284,-3.0707 1.3939,-1.72144 3.6812,-2.67903 6.2947,-2.67903 4.6388,0 7.3611,2.85326 7.3611,7.53528 0,4.11611 -1.9389,7.86285 -6.5777,12.76231 -4.1161,4.33495 -6.6864,7.07949 -7.644,8.1458 -2.0044,2.33056 -3.0052,3.61571 -5.4445,6.83835 v 1.56811 h 25.1329 l 1.0664,-12.04307"
     id="path354"
     style="stroke-width:1.39387" />
  <path
     class="Fingering"
     d="m 2116.5456,964.88901 h -2.4672 l -0.5575,2.8532 c -0.7249,3.6143 -1.157,3.9419 -4.6277,3.9419 h -12.4752 c 3.8332,-4.0074 5.1155,-5.1838 8.6839,-7.9716 5.0737,-3.89863 7.262,-5.83611 8.5165,-7.51434 1.7842,-2.46018 2.6902,-4.89946 2.6902,-7.644 0,-6.35885 -5.227,-10.86804 -12.5449,-10.86804 -7.0808,0 -12.4891,4.50919 -12.4891,10.47636 0,3.5279 1.7842,5.92397 4.4047,5.92397 2.0629,0 3.4568,-1.39388 3.4568,-3.41918 0,-1.39387 -0.7806,-2.65812 -1.9514,-3.15852 -2.049,-0.84887 -2.1606,-0.95759 -2.1606,-1.67683 0,-0.84887 0.5437,-2.13402 1.3242,-3.0707 1.3939,-1.72144 3.6799,-2.67903 6.3003,-2.67903 4.6416,0 7.3597,2.85326 7.3597,7.53529 0,4.11611 -1.9375,7.86284 -6.5791,12.76231 -4.1119,4.33491 -6.6906,7.07951 -7.6384,8.14581 -2.0072,2.3305 -3.0108,3.6157 -5.4501,6.8383 v 1.5681 h 25.1316 l 1.0733,-12.043"
     id="path356"
     style="stroke-width:1.39387" />
  <path
     class="Fingering"
     d="m 976.30499,962.5863 h -2.46158 l -0.56591,2.85321 c -0.71785,3.6158 -1.15413,3.9419 -4.61651,3.9419 h -12.47936 c 3.83315,-4.0074 5.11691,-5.1824 8.68941,-7.97015 5.0751,-3.89866 7.25233,-5.83754 8.51518,-7.51437 1.78694,-2.46158 2.67902,-4.90086 2.67902,-7.64401 0,-6.36024 -5.22702,-10.86803 -12.54486,-10.86803 -7.07809,0 -12.47936,4.50779 -12.47936,10.47496 0,3.52929 1.78556,5.92397 4.39907,5.92397 2.0699,0 3.46378,-1.39388 3.46378,-3.41918 0,-1.39387 -0.78475,-2.65672 -1.96118,-3.15712 -2.04621,-0.85027 -2.15493,-0.95899 -2.15493,-1.67683 0,-0.85027 0.54361,-2.13542 1.32836,-3.0721 1.39387,-1.72004 3.67983,-2.67763 6.29334,-2.67763 4.63881,0 7.36244,2.85186 7.36244,7.53528 0,4.11611 -1.93888,7.86145 -6.57769,12.76231 -4.11611,4.33355 -6.68641,7.0781 -7.6454,8.1458 -2.00299,2.3306 -3.00519,3.6157 -5.44447,6.8383 v 1.5682 h 25.13294 l 1.06771,-12.04451"
     id="path358"
     style="stroke-width:1.39387" />
  <path
     class="Fingering"
     d="m 1381.6938,704.64991 c -1.6769,0 -3.0052,1.35066 -3.0052,3.02749 0,1.61132 1.3283,3.0052 2.962,3.0052 1.72,0 3.0484,-1.35067 3.0484,-3.0052 0,-1.67683 -1.3284,-3.02749 -3.0052,-3.02749 m 1.0022,13.61257 -10.6938,0.82657 -0.2175,2.0253 h 1.3284 c 2.2859,0 3.1794,0.50179 3.1794,1.72143 0,0.54361 -0.1087,1.17643 -0.5004,2.46019 l -3.2463,10.86804 c -1.0454,3.55019 -1.2197,4.33495 -1.2197,5.6201 0,1.95978 1.6783,3.46238 3.79,3.46238 4.7921,0 8.0803,-4.96637 10.4331,-8.58069 l -1.7423,-0.95898 c -2.8979,4.39906 -5.227,6.75192 -6.731,6.75192 -0.5659,0 -0.9576,-0.5004 -0.9576,-1.17643 0,-0.54361 0.2174,-1.56811 0.6746,-3.11391 l 5.9031,-19.90592"
     id="path360"
     style="stroke-width:1.39387" />
  <path
     class="Fingering"
     d="m 2337.8928,997.20181 c 5.0737,-1.8302 7.4014,-4.6835 7.4014,-9.148 0,-5.8362 -4.4604,-9.5829 -11.374,-9.5829 -6.5233,0 -11.4716,3.8554 -11.4716,8.9291 0,2.2874 1.5054,3.8987 3.6799,3.8987 1.9374,0 3.2895,-1.3493 3.2895,-3.3537 0,-1.2196 -0.46,-1.9388 -1.7423,-2.8309 -0.5436,-0.3917 -0.7249,-0.6314 -0.7249,-1.0022 0,-1.5681 3.2338,-3.245 6.4119,-3.245 4.0283,0 6.133,2.5048 6.133,7.2524 0,5.1838 -2.1047,7.906 -6.0633,7.906 -0.5018,0 -1.4636,-0.043 -2.2999,-0.1087 -0.4461,-0.043 -0.8921,-0.043 -1.2127,-0.043 -1.1709,0 -1.7842,0.5004 -1.7842,1.5026 0,0.9367 0.5437,1.3939 1.7842,1.3939 0.3206,0 0.7666,0 1.2684,-0.066 1.1291,-0.043 2.0211,-0.043 2.6344,-0.043 4.112,0 6.3561,2.93969 6.3561,8.47199 0,5.7929 -2.7877,9.0156 -7.8196,9.0156 -3.5126,0 -7.29,-1.8943 -7.29,-3.6143 0,-0.5018 0.098,-0.6105 1.1709,-1.2197 1.5472,-0.959 2.1605,-1.8956 2.1605,-3.2895 0,-2.0253 -1.5054,-3.5279 -3.5126,-3.5279 -2.3974,0 -3.9446,1.9598 -3.9446,4.9218 0,5.4012 4.9482,9.1257 12.0848,9.1257 8.0845,0 13.3394,-4.4423 13.3394,-11.303 0,-5.2493 -2.6902,-8.42869 -8.4747,-10.03999"
     id="path362"
     style="stroke-width:1.39387" />
  <path
     class="Fingering"
     d="m 1021.5264,704.64991 c -1.6782,0 -3.0065,1.35066 -3.0065,3.02749 0,1.61132 1.3283,3.0052 2.9619,3.0052 1.7215,0 3.0498,-1.35067 3.0498,-3.0052 0,-1.67683 -1.3283,-3.02749 -3.0052,-3.02749 m 1.0008,13.61257 -10.6938,0.82657 -0.2174,2.0253 h 1.3284 c 2.2873,0 3.1808,0.50179 3.1808,1.72143 0,0.54361 -0.1101,1.17643 -0.5018,2.46019 l -3.245,10.86804 c -1.0454,3.55019 -1.2196,4.33495 -1.2196,5.6201 0,1.95978 1.6768,3.46238 3.7899,3.46238 4.7908,0 8.0803,-4.96637 10.4318,-8.58069 l -1.7423,-0.95898 c -2.8965,4.39906 -5.2271,6.75192 -6.7297,6.75192 -0.5659,0 -0.9576,-0.5004 -0.9576,-1.17643 0,-0.54361 0.2175,-1.56811 0.6747,-3.11391 l 5.9016,-19.90592"
     id="path364"
     style="stroke-width:1.39387" />
  <path
     class="StaffText"
     d="m 3172.2797,677.8262 h -2.5787 l -2.7877,4.18162 c -3.3453,-3.13622 -7.7221,-4.81305 -12.6982,-4.81305 -9.1856,0 -15.2351,5.79294 -15.2351,14.57017 0,7.60079 3.7356,11.36843 13.9945,14.02655 l 6.6209,1.65453 c 5.1713,1.32836 5.6452,1.48169 7.1088,2.59261 2.0908,1.58901 3.2198,3.89727 3.2198,6.6209 0,2.78775 -1.0732,5.0737 -3.164,7.03349 -2.286,1.96118 -4.5859,2.72363 -8.419,2.72363 -10.5238,0 -15.7508,-7.73182 -17.5629,-17.14047 h -2.9968 l 0.2788,19.8627 h 2.718 l 3.1363,-4.74893 c 4.6694,3.83316 8.5026,5.22703 14.6356,5.22703 10.245,0 16.7962,-5.98808 16.7962,-15.33261 0,-4.39907 -1.3939,-8.01478 -4.1816,-10.6715 -1.8678,-1.80786 -4.5998,-2.98289 -10.1753,-4.37677 l -7.4711,-1.89567 c -6.1749,-1.58901 -9.116,-4.31264 -9.116,-8.55838 0,-4.87856 3.9865,-8.23362 9.9105,-8.23362 8.9626,0 13.9387,7.44887 15.8065,15.39813 h 3.0108 l -0.8503,-18.12036 m 24.0861,17.22828 c -8.5583,0 -15.1792,7.6008 -15.1792,17.35791 0,9.53828 6.6905,17.20459 15.0538,17.20459 8.3632,0 15.0399,-7.66631 15.0399,-17.2924 0,-9.53967 -6.6767,-17.2701 -14.9145,-17.2701 m 0,2.98289 c 4.8786,0 7.5967,5.096 7.5967,14.28721 0,9.27762 -2.7181,14.28721 -7.7221,14.28721 -5.018,0 -7.736,-5.00959 -7.736,-14.1994 0,-9.49646 2.6344,-14.37502 7.8614,-14.37502 m 31.4877,-20.8426 -12.8934,0.78475 v 2.98289 h 3.4289 c 2.5648,0.0655 2.9132,0.5018 2.9132,3.48469 v 38.83333 c -0.07,1.0454 -0.1254,1.45799 -0.4181,1.80646 -0.5018,0.63282 -1.7981,0.91578 -4.8089,0.98129 h -0.4739 v 2.5034 h 18.0228 v -2.5034 h -0.4739 c -4.6556,-0.15333 -5.2967,-0.5018 -5.2967,-3.00659 v -45.86682 m 11.8339,19.18807 3.0666,0.4781 1.2405,-5.50998 c 1.0454,-4.59561 1.5472,-5.29254 3.5544,-5.29254 0.3485,0 0.906,0 1.5472,0.0655 8.5584,0.41398 8.5584,0.41398 11.7782,0.41398 0.8921,0 2.509,0 4.4465,-0.0655 l -4.7252,9.56197 c -5.1713,10.23522 -5.7986,11.49946 -7.5409,15.81072 -2.1605,5.22702 -3.2617,9.62748 -3.2617,12.54486 0,3.20173 1.6727,5.16291 4.3768,5.16291 3.3453,0 4.6834,-2.24413 4.6137,-8.29912 -0.3484,-10.04008 0.8921,-14.91864 8.3633,-31.23115 1.2405,-2.72223 2.5647,-5.50998 3.8331,-8.20991 v -2.0267 c -4.1816,0.34847 -6.4257,0.4795 -10.7328,0.4795 -6.0773,0 -10.8722,-0.19515 -18.4131,-0.76245 l -2.1466,16.87981"
     id="path366"
     style="stroke-width:1.39387" />
  <path
     class="StaffText"
     d="m 582.61921,2398.0173 h 4.05199 c 7.03349,0.2788 9.82124,3.1362 10.58369,10.8025 l 0.34846,3.5544 c 0.85027,7.8754 3.41918,11.0813 8.93055,11.0813 5.70513,0 8.42737,-3.8332 8.64621,-12.1964 h -2.94108 c -0.26065,4.8089 -1.11092,6.8997 -2.98289,6.8997 -1.61271,0 -2.30965,-1.1988 -3.48468,-5.9937 l -1.11092,-4.3907 c -1.5472,-6.4118 -4.26944,-9.339 -9.69161,-10.7328 10.04008,-1.3939 14.83082,-5.4361 14.83082,-12.4891 0,-7.9451 -6.68641,-12.4752 -18.40332,-12.4752 h -24.10984 v 3.2895 h 1.26425 c 3.96278,0.07 5.29114,0.2788 5.85845,0.9757 0.41398,0.6133 0.41398,0.7667 0.41398,4.3211 v 33.2438 c 0,3.4847 0,3.6241 -0.41398,4.3211 -0.56731,0.6969 -1.89567,0.906 -5.85845,0.906 h -1.26425 v 3.2756 h 22.8693 v -3.2756 h -1.26425 c -3.96278,0 -5.29254,-0.2091 -5.85845,-0.906 -0.41398,-0.697 -0.41398,-0.8364 -0.41398,-4.3211 v -15.8901 m 0,-3.2756 v -15.3466 c -0.12963,-3.8331 0.21884,-4.098 4.81305,-4.0283 h 3.76903 c 6.90386,0 10.04008,2.9132 10.04008,9.2554 0,7.3317 -3.92097,10.1195 -10.95585,10.1195 h -7.66631 m 46.97773,-9.6178 h 2.85326 l 11.08549,-6.7742 c 1.11091,-0.6969 1.80785,-1.7423 1.80785,-2.7041 0,-1.3939 -1.04541,-2.4393 -2.43928,-2.4393 -1.11092,0 -1.80785,0.4182 -3.48468,2.1605 l -9.82264,9.7571 m 19.57975,21.6051 c 0.0655,-10.4541 -5.85845,-17.8416 -14.35272,-17.8416 -8.92915,0 -15.61557,7.736 -15.61557,18.1901 0,9.8268 6.33795,16.378 15.7466,16.378 6.68641,0 11.36843,-3.2756 14.22169,-9.8965 l -2.43928,-1.3242 c -2.85326,5.3664 -5.79294,7.4572 -10.45405,7.4572 -3.5502,0 -6.14141,-1.4635 -7.94927,-4.5998 -1.24054,-2.0908 -1.80785,-4.53 -1.74234,-8.3632 h 22.58494 m -22.51943,-3.0108 c 0,-4.8785 2.24275,-11.8479 8.10259,-11.8479 4.18163,0 6.96937,3.7077 6.96937,9.3529 0,1.9514 -0.63281,2.495 -2.87556,2.495 h -12.1964 m 29.05391,-13.5066 3.07071,0.4878 1.24194,-5.5058 c 1.04541,-4.5997 1.54581,-5.2967 3.5488,-5.2967 0.34847,0 0.91578,0 1.5472,0.07 8.55839,0.4042 8.55839,0.4042 11.78242,0.4042 0.89347,0 2.50479,0 4.44228,-0.056 l -4.72523,9.548 c -5.16152,10.245 -5.79295,11.4995 -7.53529,15.8205 -2.15632,5.227 -3.26724,9.6177 -3.26724,12.5449 0,3.2059 1.67683,5.1573 4.37677,5.1573 3.35505,0 4.68341,-2.2441 4.6179,-8.2936 -0.34847,-10.0359 0.89347,-14.9144 8.36324,-31.2367 1.24195,-2.718 2.57031,-5.5058 3.83316,-8.2099 v -2.0211 c -4.18162,0.3485 -6.42437,0.4739 -10.73701,0.4739 -6.07729,0 -10.86804,-0.1951 -18.40332,-0.7527 l -2.15633,16.8659"
     id="path368"
     style="stroke-width:1.39387" />
  <path
     class="StaffText"
     d="m 2277.1338,1524.7413 h -2.5647 l -2.7878,4.1816 c -3.3592,-3.1362 -7.736,-4.8089 -12.6982,-4.8089 -9.1995,0 -15.249,5.7985 -15.249,14.566 0,7.6106 3.7496,11.374 14.0085,14.0224 l 6.6209,1.6587 c 5.1573,1.3381 5.6312,1.4775 7.0948,2.5926 2.0908,1.589 3.2198,3.9028 3.2198,6.6209 0,2.7877 -1.0593,5.0737 -3.1501,7.0391 -2.286,1.9514 -4.5998,2.718 -8.4329,2.718 -10.5238,0 -15.7508,-7.736 -17.5489,-17.1446 h -3.0108 l 0.2788,19.8627 h 2.732 l 3.1362,-4.7392 c 4.6555,3.8331 8.4887,5.227 14.6357,5.227 10.231,0 16.7822,-5.9936 16.7822,-15.3326 0,-4.4046 -1.3939,-8.0148 -4.1816,-10.6771 -1.8678,-1.7981 -4.5859,-2.9829 -10.1613,-4.3767 l -7.4712,-1.8957 c -6.1888,-1.589 -9.1299,-4.3071 -9.1299,-8.5584 0,-4.8785 3.9865,-8.2238 9.9105,-8.2238 8.9765,0 13.9387,7.4432 15.8065,15.3883 h 3.0108 l -0.8503,-18.1203 m 24.0861,17.2282 c -8.5584,0 -15.1793,7.5967 -15.1793,17.3538 0,9.548 6.6906,17.2143 15.0539,17.2143 8.3632,0 15.0399,-7.6663 15.0399,-17.298 0,-9.5341 -6.6767,-17.2701 -14.9145,-17.2701 m 0,2.9829 c 4.8786,0 7.5966,5.1016 7.5966,14.2872 0,9.2832 -2.718,14.2873 -7.722,14.2873 -5.018,0 -7.736,-5.0041 -7.736,-14.2036 0,-9.4923 2.6344,-14.3709 7.8614,-14.3709 m 31.5016,-20.8384 -12.8933,0.7806 v 2.9829 h 3.4149 c 2.5648,0.07 2.9132,0.5018 2.9132,3.4847 v 38.8333 c -0.056,1.0454 -0.1254,1.4636 -0.4042,1.812 -0.5018,0.6273 -1.812,0.906 -4.8228,0.9757 h -0.4739 v 2.509 h 18.0367 v -2.509 h -0.4878 c -4.6556,-0.1533 -5.2828,-0.5018 -5.2828,-2.9968 v -45.8724"
     id="path370"
     style="stroke-width:1.39387" />
  <path
     class="StaffText"
     d="m 863.17399,613.33722 h -2.5703 l -2.78775,4.18162 c -3.35366,-3.13621 -7.73182,-4.81304 -12.6968,-4.81304 -9.1912,0 -15.24619,5.79294 -15.24619,14.57016 0,7.6008 3.74673,11.36844 14.00425,14.02656 l 6.6209,1.65452 c 5.16152,1.32837 5.64101,1.48169 7.1004,2.59261 2.09081,1.58902 3.22263,3.89727 3.22263,6.6209 0,2.78775 -1.06631,5.0737 -3.15712,7.03349 -2.28735,1.96118 -4.5956,2.72363 -8.42876,2.72363 -10.51957,0 -15.74659,-7.73182 -17.55445,-17.14047 h -3.00519 l 0.28296,19.86271 h 2.72223 l 3.13622,-4.74893 c 4.66111,3.83315 8.49427,5.22702 14.63568,5.22702 10.23661,0 16.792,-5.98808 16.792,-15.33261 0,-4.39907 -1.39388,-8.01478 -4.18163,-10.6715 -1.87336,-1.80785 -4.5956,-2.98289 -10.17109,-4.37676 l -7.46978,-1.89567 c -6.18601,-1.58902 -9.12569,-4.31265 -9.12569,-8.55839 0,-4.87856 3.98509,-8.23361 9.90905,-8.23361 8.97376,0 13.93874,7.44886 15.81211,15.39812 h 3.00519 l -0.84887,-18.12036 m 24.08754,17.22828 c -8.55978,0 -15.18068,7.6008 -15.18068,17.35792 0,9.53828 6.68641,17.20458 15.04966,17.20458 8.36324,0 15.04965,-7.6663 15.04965,-17.2924 0,-9.53967 -6.68641,-17.2701 -14.91863,-17.2701 m 0,2.98289 c 4.87856,0 7.60079,5.09601 7.60079,14.28721 0,9.27763 -2.72223,14.28721 -7.73181,14.28721 -5.00819,0 -7.73182,-5.00958 -7.73182,-14.19939 0,-9.49647 2.63581,-14.37503 7.86284,-14.37503 m 31.49319,-20.84259 -12.89334,0.78475 v 2.98289 h 3.41918 c 2.5703,0.0655 2.91877,0.50179 2.91877,3.48468 v 38.83333 c -0.0655,1.04541 -0.13102,1.458 -0.41398,1.80646 -0.5018,0.63282 -1.80786,0.91578 -4.81305,0.98129 h -0.47949 v 2.5034 h 18.03255 v -2.5034 h -0.4781 c -4.66112,-0.15332 -5.29254,-0.50179 -5.29254,-3.00659 V 612.7058"
     id="path372"
     style="stroke-width:1.39387" />
  <path
     class="StaffText"
     d="m 567.50543,1575.4922 h 23.41151 c 6.20832,0 10.95585,-0.9757 14.63568,-3.0665 7.03488,-3.9725 10.95585,-11.9176 10.95585,-22.3717 0,-9.6317 -3.48469,-17.1446 -9.91045,-21.3263 -3.83315,-2.4392 -8.99467,-3.5683 -16.94393,-3.5683 h -22.14866 v 3.2896 h 1.32836 c 3.89867,0.07 5.22703,0.2787 5.77064,0.9757 0.41398,0.6133 0.41398,0.7666 0.41398,4.321 v 33.1603 c 0,3.5683 0,3.7077 -0.41398,4.3349 -0.54361,0.6969 -1.87197,0.8921 -5.77064,0.9757 h -1.32836 v 3.2756 m 19.2954,-3.2756 c -3.5502,0 -3.96278,-0.4321 -3.96278,-3.8331 v -36.0317 c 0,-3.4289 0.4781,-3.9028 3.96278,-3.9028 h 3.63801 c 11.91344,0 16.85612,6.4675 16.85612,21.8838 0,15.6114 -4.46458,21.8838 -15.7452,21.8838 h -4.74893 m 50.57254,-30.2471 c -8.55978,0 -15.18068,7.5967 -15.18068,17.3538 0,9.548 6.68641,17.2143 15.04965,17.2143 8.36325,0 15.04966,-7.6663 15.04966,-17.298 0,-9.5341 -6.68641,-17.2701 -14.91863,-17.2701 m 0,2.9829 c 4.87856,0 7.60079,5.1016 7.60079,14.2872 0,9.2832 -2.72223,14.2873 -7.73182,14.2873 -5.00958,0 -7.73182,-5.0041 -7.73182,-14.2036 0,-9.4923 2.63582,-14.3709 7.86285,-14.3709"
     id="path374"
     style="stroke-width:1.39387" />
  <path
     class="StaffText"
     d="m 2041.3182,2371.6591 h -2.5647 l -2.7878,4.1816 c -3.3592,-3.1362 -7.736,-4.8088 -12.6982,-4.8088 -9.1856,0 -15.249,5.7985 -15.249,14.566 0,7.6105 3.7496,11.374 14.0085,14.0223 l 6.6209,1.6587 c 5.1573,1.3382 5.6452,1.4776 7.0948,2.5927 2.0908,1.589 3.2338,3.9028 3.2338,6.6209 0,2.7877 -1.0733,5.0737 -3.1641,7.039 -2.286,1.9514 -4.5998,2.7181 -8.433,2.7181 -10.5098,0 -15.7368,-7.736 -17.5488,-17.1447 h -3.0108 l 0.2927,19.8627 h 2.7181 l 3.1362,-4.7391 c 4.6555,3.8331 8.4887,5.227 14.6357,5.227 10.231,0 16.7961,-5.9937 16.7961,-15.3326 0,-4.4047 -1.3938,-8.0148 -4.1816,-10.6771 -1.8817,-1.7981 -4.5998,-2.9829 -10.1753,-4.3768 l -7.4711,-1.8956 c -6.1888,-1.5891 -9.1299,-4.3071 -9.1299,-8.5584 0,-4.8786 3.9865,-8.2239 9.9104,-8.2239 8.9766,0 13.9388,7.4433 15.8205,15.3884 h 2.9968 l -0.8502,-18.1204 m 24.1001,17.2283 c -8.5584,0 -15.1793,7.5966 -15.1793,17.3537 0,9.5481 6.6766,17.2144 15.0399,17.2144 8.3632,0 15.0538,-7.6663 15.0538,-17.298 0,-9.5341 -6.6906,-17.2701 -14.9144,-17.2701 m 0,2.9829 c 4.8785,0 7.5966,5.1016 7.5966,14.2872 0,9.2832 -2.7181,14.2872 -7.736,14.2872 -5.004,0 -7.7221,-5.004 -7.7221,-14.2036 0,-9.4922 2.6344,-14.3708 7.8615,-14.3708 m 31.4876,-20.8384 -12.8934,0.7806 v 2.9828 h 3.415 c 2.5787,0.07 2.9272,0.5018 2.9272,3.4847 v 38.8334 c -0.07,1.0454 -0.1394,1.4635 -0.4182,1.812 -0.5018,0.6272 -1.812,0.906 -4.8089,0.9757 h -0.4878 v 2.509 h 18.0367 v -2.509 h -0.4739 c -4.6695,-0.1533 -5.2967,-0.5018 -5.2967,-2.9968 v -45.8724"
     id="path376"
     style="stroke-width:1.39387" />
  <metadata
     id="metadata611">
    <rdf:RDF>
      <cc:Work
         rdf:about="">
        <dc:title>boogie_en_sol.mscx</dc:title>
      </cc:Work>
    </rdf:RDF>
  </metadata>
</svg>
