<?xml version="1.0" encoding="UTF-8" standalone="no"?>
<svg
   width="297mm"
   height="210mm"
   viewBox="0 0 4209.4489 2976.378"
   version="1.2"
   id="svg945"
   sodipodi:docname="le_becarre.svg"
   inkscape:version="1.2.2 (b0a8486541, 2022-12-01)"
   xmlns:inkscape="http://www.inkscape.org/namespaces/inkscape"
   xmlns:sodipodi="http://sodipodi.sourceforge.net/DTD/sodipodi-0.dtd"
   xmlns="http://www.w3.org/2000/svg"
   xmlns:svg="http://www.w3.org/2000/svg"
   xmlns:rdf="http://www.w3.org/1999/02/22-rdf-syntax-ns#"
   xmlns:cc="http://creativecommons.org/ns#"
   xmlns:dc="http://purl.org/dc/elements/1.1/">
  <defs
     id="defs949" />
  <sodipodi:namedview
     id="namedview947"
     pagecolor="#ffffff"
     bordercolor="#000000"
     borderopacity="0.25"
     inkscape:showpageshadow="2"
     inkscape:pageopacity="0.0"
     inkscape:pagecheckerboard="0"
     inkscape:deskcolor="#d1d1d1"
     inkscape:document-units="mm"
     showgrid="false"
     inkscape:zoom="0.48264525"
     inkscape:cx="671.30051"
     inkscape:cy="319.07493"
     inkscape:window-width="1104"
     inkscape:window-height="552"
     inkscape:window-x="0"
     inkscape:window-y="32"
     inkscape:window-maximized="1"
     inkscape:current-layer="svg945" />
  <title
     id="title847">Partition sans titre</title>
  <desc
     id="desc849">Generated by MuseScore Studio 4.6.5</desc>
  <polyline
     class="StaffLines"
     fill="none"
     stroke="#000000"
     stroke-width="2.73"
     stroke-linejoin="bevel"
     points="336.598,634.198 2764.6,634.198"
     id="polyline851"
     transform="matrix(1.5890961,0,0,1.5890961,-295.49128,-15.771774)" />
  <polyline
     class="StaffLines"
     fill="none"
     stroke="#000000"
     stroke-width="2.73"
     stroke-linejoin="bevel"
     points="336.598,658.998 2764.6,658.998"
     id="polyline853"
     transform="matrix(1.5890961,0,0,1.5890961,-295.49128,-15.771774)" />
  <polyline
     class="StaffLines"
     fill="none"
     stroke="#000000"
     stroke-width="2.73"
     stroke-linejoin="bevel"
     points="336.598,683.798 2764.6,683.798"
     id="polyline855"
     transform="matrix(1.5890961,0,0,1.5890961,-295.49128,-15.771774)" />
  <polyline
     class="StaffLines"
     fill="none"
     stroke="#000000"
     stroke-width="2.73"
     stroke-linejoin="bevel"
     points="336.598,708.598 2764.6,708.598"
     id="polyline857"
     transform="matrix(1.5890961,0,0,1.5890961,-295.49128,-15.771774)" />
  <polyline
     class="StaffLines"
     fill="none"
     stroke="#000000"
     stroke-width="2.73"
     stroke-linejoin="bevel"
     points="336.598,733.398 2764.6,733.398"
     id="polyline859"
     transform="matrix(1.5890961,0,0,1.5890961,-295.49128,-15.771774)" />
  <polyline
     class="StaffLines"
     fill="none"
     stroke="#000000"
     stroke-width="2.73"
     stroke-linejoin="bevel"
     points="212.598,1241.8 2764.6,1241.8"
     id="polyline861"
     transform="matrix(1.5145544,0,0,1.5145544,-80.56917,97.707528)" />
  <polyline
     class="StaffLines"
     fill="none"
     stroke="#000000"
     stroke-width="2.73"
     stroke-linejoin="bevel"
     points="212.598,1266.6 2764.6,1266.6"
     id="polyline863"
     transform="matrix(1.5145544,0,0,1.5145544,-80.56917,97.707528)" />
  <polyline
     class="StaffLines"
     fill="none"
     stroke="#000000"
     stroke-width="2.73"
     stroke-linejoin="bevel"
     points="212.598,1291.4 2764.6,1291.4"
     id="polyline865"
     transform="matrix(1.5145544,0,0,1.5145544,-80.56917,97.707528)" />
  <polyline
     class="StaffLines"
     fill="none"
     stroke="#000000"
     stroke-width="2.73"
     stroke-linejoin="bevel"
     points="212.598,1316.2 2764.6,1316.2"
     id="polyline867"
     transform="matrix(1.5145544,0,0,1.5145544,-80.56917,97.707528)" />
  <polyline
     class="StaffLines"
     fill="none"
     stroke="#000000"
     stroke-width="2.73"
     stroke-linejoin="bevel"
     points="212.598,1341 2764.6,1341"
     id="polyline869"
     transform="matrix(1.5145544,0,0,1.5145544,-80.56917,97.707528)" />
  <polyline
     class="BarLine"
     fill="none"
     stroke="#000000"
     stroke-width="4.46"
     stroke-linejoin="bevel"
     points="2762.37,632.834 2762.37,734.762"
     id="polyline885"
     transform="matrix(1.5890961,0,0,1.5890961,-295.49128,-15.771774)" />
  <polyline
     class="BarLine"
     fill="none"
     stroke="#000000"
     stroke-width="4.46"
     stroke-linejoin="bevel"
     points="2762.37,1240.43 2762.37,1342.36"
     id="polyline887"
     transform="matrix(1.5145544,0,0,1.5145544,-80.56917,97.707528)" />
  <path
     class="Accidental"
     d="m 441.90436,2066.3738 c 0,11.8787 -6.17405,18.1701 -14.88349,25.0954 l 0.44604,-29.2975 c 0.30518,-1.3616 2.55883,-5.7046 8.56859,-5.7046 5.42293,0 5.86886,5.0942 5.86886,8.2634 v 1.6433 m -1.80759,-17.278 c -7.51219,0 -11.87865,4.6481 -12.62986,5.5637 l 0.61036,-48.2424 c 0,-1.1972 -0.89207,-2.0893 -2.1128,-2.0893 h -1.78415 c -1.22073,0 -2.1128,0.8921 -2.1128,2.0893 l 0.75122,90.3106 c 0,1.1973 0.89207,2.0894 2.1128,2.0894 0.28171,0 0.89207,-0.1409 1.19726,-0.2817 12.9116,-6.4793 26.43354,-18.7805 26.43354,-34.2744 0,-7.7939 -3.59172,-15.1652 -12.46557,-15.1652"
     id="path893"
     style="stroke-width:1.50244" />
  <path
     class="Accidental"
     d="m 548.09546,1019.7643 14.03964,-2.8326 v 26.0103 l -14.03964,3.005 v -26.1827 m 24.43398,-4.877 c 0.96065,-0.1477 1.74884,-1.2562 1.74884,-2.2168 v -9.2859 c 0,-1.2562 -0.96065,-2.2167 -2.21687,-2.2167 h -0.32016 l -5.19717,1.1084 v -23.4981 h -4.40898 v 24.434 l -14.03964,2.8572 v -22.2417 h -4.40894 v 23.1777 l -6.15775,1.2562 c -0.93598,0.1723 -1.72417,1.2561 -1.72417,2.2168 v 9.1381 c 0,1.2562 0.93598,2.2168 2.21679,2.2168 h 0.46799 l 5.19714,-1.1084 v 26.0103 l -6.15775,1.2562 c -0.93598,0.1479 -1.72417,1.2562 -1.72417,2.2169 v 9.1379 c 0,1.2563 0.93598,2.1924 2.21679,2.1924 h 0.46799 l 5.19714,-1.0839 v 23.4733 h 4.40894 v -24.4339 l 14.03964,-2.8326 v 22.2418 h 4.40898 v -23.1777 l 5.98536,-1.1085 c 0.96065,-0.1723 1.74884,-1.2561 1.74884,-2.2167 v -9.286 c 0,-1.2808 -0.96065,-2.2167 -2.21687,-2.2167 h -0.32016 l -5.19717,1.1084 v -26.0104 l 5.98536,-1.1084"
     id="path895"
     style="stroke-width:1.57639" />
  <path
     class="Accidental"
     d="m 2250.0037,2086.9619 v -24.6494 l 17.4424,-4.9533 v 24.7902 l -17.4424,4.8125 m 20.729,-42.0683 c -0.2817,-0.3051 -0.7513,-0.446 -1.1973,-0.446 -0.1408,0 -0.446,0.1409 -0.5869,0.1409 l -18.9448,5.2585 v -26.2927 h -4.2021 v 74.3707 c 0,1.1973 0.8921,1.9485 2.1128,1.9485 h 0.5869 l 18.9448,-5.2586 v 26.2927 h 4.0378 v -74.3707 c 0,-0.5869 -0.2817,-1.3381 -0.7512,-1.6433"
     id="path897"
     style="stroke-width:1.50244" />
  <path
     class="Accidental"
     d="m 2301.0354,1046.7352 v -25.8625 l 18.3008,-5.1972 v 26.0103 l -18.3008,5.0494 m 21.7492,-44.1388 c -0.2957,-0.3201 -0.7883,-0.468 -1.2563,-0.468 -0.1478,0 -0.4679,0.1478 -0.6157,0.1478 l -19.8772,5.5173 v -27.5867 h -4.409 v 78.031 c 0,1.2563 0.9359,2.0444 2.2168,2.0444 h 0.6158 l 19.8772,-5.5173 v 27.5867 h 4.2365 v -78.031 c 0,-0.6159 -0.2955,-1.4041 -0.7881,-1.7242"
     id="path899"
     style="stroke-width:1.57639" />
  <polyline
     class="Stem"
     fill="none"
     stroke="#000000"
     stroke-width="2.48"
     stroke-linejoin="bevel"
     points="554.761,663.165 554.761,745.798"
     id="polyline901"
     transform="matrix(1.5890961,0,0,1.5890961,-295.49128,-15.771774)" />
  <polyline
     class="Stem"
     fill="none"
     stroke="#000000"
     stroke-width="2.48"
     stroke-linejoin="bevel"
     points="989.688,1299.83 989.688,1223.2"
     id="polyline903"
     transform="matrix(1.5145544,0,0,1.5145544,-80.56917,97.707528)" />
  <polyline
     class="Stem"
     fill="none"
     stroke="#000000"
     stroke-width="2.48"
     stroke-linejoin="bevel"
     points="389.205,1299.83 389.205,1223.2"
     id="polyline905"
     transform="matrix(1.5145544,0,0,1.5145544,-80.56917,97.707528)" />
  <polyline
     class="Stem"
     fill="none"
     stroke="#000000"
     stroke-width="2.48"
     stroke-linejoin="bevel"
     points="1590.17,1299.83 1590.17,1223.2"
     id="polyline907"
     transform="matrix(1.5145544,0,0,1.5145544,-80.56917,97.707528)" />
  <polyline
     class="Stem"
     fill="none"
     stroke="#000000"
     stroke-width="2.48"
     stroke-linejoin="bevel"
     points="2209.72,663.165 2209.72,745.798"
     id="polyline909"
     transform="matrix(1.5890961,0,0,1.5890961,-295.49128,-15.771774)" />
  <polyline
     class="Stem"
     fill="none"
     stroke="#000000"
     stroke-width="2.48"
     stroke-linejoin="bevel"
     points="1658.07,663.165 1658.07,745.798"
     id="polyline911"
     transform="matrix(1.5890961,0,0,1.5890961,-295.49128,-15.771774)" />
  <polyline
     class="Stem"
     fill="none"
     stroke="#000000"
     stroke-width="2.48"
     stroke-linejoin="bevel"
     points="2190.65,1299.83 2190.65,1223.2"
     id="polyline913"
     transform="matrix(1.5145544,0,0,1.5145544,-80.56917,97.707528)" />
  <polyline
     class="Stem"
     fill="none"
     stroke="#000000"
     stroke-width="2.48"
     stroke-linejoin="bevel"
     points="1106.42,663.165 1106.42,745.798"
     id="polyline915"
     transform="matrix(1.5890961,0,0,1.5890961,-295.49128,-15.771774)" />
  <path
     class="Note"
     d="m 1371.416,2078.6985 c 0,6.4558 4.6482,13.6628 16.832,13.6628 15.6113,0 31.9972,-12.7707 31.9972,-25.9875 0,-8.8738 -7.5122,-13.8271 -16.8319,-13.8271 -14.5783,0 -31.9973,12.3247 -31.9973,26.1518"
     id="path917"
     style="stroke-width:1.50244" />
  <path
     class="Note"
     d="m 2280.8787,2078.6985 c 0,6.4558 4.6481,13.6628 16.832,13.6628 15.6112,0 31.9972,-12.7707 31.9972,-25.9875 0,-8.8738 -7.5122,-13.8271 -16.832,-13.8271 -14.5783,0 -31.9972,12.3247 -31.9972,26.1518"
     id="path919"
     style="stroke-width:1.50244" />
  <path
     class="Note"
     d="m 3190.3383,2078.6985 c 0,6.4558 4.6482,13.6628 16.832,13.6628 15.6113,0 31.9972,-12.7707 31.9972,-25.9875 0,-8.8738 -7.5122,-13.8271 -16.832,-13.8271 -14.5783,0 -31.9972,12.3247 -31.9972,26.1518"
     id="path921"
     style="stroke-width:1.50244" />
  <path
     class="Note"
     d="m 461.95179,2078.6985 c 0,6.4558 4.64817,13.6628 16.83197,13.6628 15.61138,0 31.99727,-12.7707 31.99727,-25.9875 0,-8.8738 -7.51219,-13.8271 -16.83197,-13.8271 -14.5783,0 -31.99727,12.3247 -31.99727,26.1518"
     id="path923"
     style="stroke-width:1.50244" />
  <path
     class="Note"
     d="m 3213.9957,1038.0651 c 0,6.7735 4.877,14.3353 17.6604,14.3353 16.3796,0 33.572,-13.3993 33.572,-27.2666 0,-9.3105 -7.8819,-14.5076 -17.6604,-14.5076 -15.2958,0 -33.572,12.9312 -33.572,27.4389"
     id="path925"
     style="stroke-width:1.57639" />
  <path
     class="Note"
     d="m 2337.3709,1038.0651 c 0,6.7735 4.8769,14.3353 17.6604,14.3353 16.3795,0 33.572,-13.3993 33.572,-27.2666 0,-9.3105 -7.8819,-14.5076 -17.6604,-14.5076 -15.2959,0 -33.572,12.9312 -33.572,27.4389"
     id="path927"
     style="stroke-width:1.57639" />
  <path
     class="Note"
     d="m 1460.746,1038.0651 c 0,6.7735 4.8769,14.3353 17.6604,14.3353 16.3796,0 33.572,-13.3993 33.572,-27.2666 0,-9.3105 -7.8818,-14.5076 -17.6604,-14.5076 -15.2958,0 -33.572,12.9312 -33.572,27.4389"
     id="path929"
     style="stroke-width:1.57639" />
  <path
     class="Note"
     d="m 584.10676,1038.0651 c 0,6.7735 4.87694,14.3353 17.66039,14.3353 16.37972,0 33.57207,-13.3993 33.57207,-27.2666 0,-9.3105 -7.88191,-14.5076 -17.66038,-14.5076 -15.2958,0 -33.57208,12.9312 -33.57208,27.4389"
     id="path931"
     style="stroke-width:1.57639" />
  <path
     class="Clef"
     d="m 323.9857,2123.0204 c -21.48006,0 -39.81457,-15.0244 -39.81457,-37.7253 0,-18.3109 12.9116,-34.6969 26.15184,-46.2704 2.53536,-2.1128 4.95339,-4.2021 7.20705,-6.4558 1.33806,8.0991 2.39443,15.0244 3.45081,21.3394 -13.68617,3.8969 -22.9825,18.4753 -22.9825,32.4432 0,10.6814 8.2634,25.0954 20.28291,25.0954 1.19715,0 2.55879,-0.6103 2.55879,-2.1128 0,-1.1972 -1.36164,-2.0893 -3.31001,-3.2865 -5.86897,-3.4744 -9.179,-7.5122 -9.179,-14.7427 0,-9.1555 6.92534,-16.5268 15.63468,-18.6162 l 8.70948,49.2753 c -3.00488,0.6104 -5.7046,1.0564 -8.70948,1.0564 m -4.50731,-155.3615 c 1.50244,-6.0097 8.26341,-21.7853 16.08089,-21.7853 2.25365,0 6.00975,7.207 6.00975,17.7241 0,15.4704 -11.71437,27.2082 -22.09064,37.5609 -0.89201,-6.0097 -1.64323,-12.0195 -1.64323,-18.1701 0,-5.7046 0.58686,-10.6814 1.64323,-15.3296 m 19.53169,152.4975 c -3.14567,-17.8649 -7.2069,-41.7631 -8.26341,-48.3832 15.1653,0 21.64456,10.5171 22.98264,17.7475 0.16436,1.1973 0.44607,2.8406 0.44607,4.6482 0,10.8223 -4.50732,21.6445 -15.1653,25.9875 m -20.89322,102.7761 c -3.28658,0 -5.54024,-2.0893 -5.54024,-5.2585 0,-3.0049 1.33808,-5.3994 3.89689,-6.9018 0.61043,0.3052 0.75122,0.3052 1.19729,0.5869 1.80759,0.9155 1.80759,0.9155 2.11288,1.2207 2.8405,1.6433 4.06123,3.1457 4.06123,5.2585 0,2.8406 -2.41802,5.0942 -5.72805,5.0942 m 5.72805,-18.0292 c -2.25366,-1.1973 -2.86408,-1.5025 -3.31001,-1.8076 l -0.30529,-0.1409 c -2.25366,-1.3616 -3.00488,-2.418 -3.00488,-4.2021 0,-2.7232 2.11286,-4.6717 5.11774,-4.6717 2.84052,0 4.64811,1.8076 4.64811,4.9534 0,2.418 -0.89201,4.0613 -3.14567,5.8689 m 41.9039,-114.0445 c 0,-22.6774 -16.08075,-38.0069 -38.00701,-38.0069 -1.50244,-9.0147 -2.86397,-17.8884 -4.20203,-26.2927 15.7756,-16.6912 26.87951,-35.6125 26.87951,-59.3463 0,-13.6863 -4.20216,-24.7902 -6.76097,-30.2125 -3.59172,-7.6535 -7.95826,-12.912 -10.51707,-12.912 -1.03292,0 -5.84537,1.8074 -10.65798,7.6535 -9.76584,11.432 -12.46543,30.4942 -12.46543,43.124 0,8.1226 0.75122,15.4705 3.31001,32.4668 -0.16436,0 -7.9817,7.9582 -11.12749,10.6579 -13.68616,12.6299 -32.60757,30.9408 -32.60757,60.8487 0,28.2412 24.48508,50.3317 52.44455,50.3317 4.34294,0 8.40419,-0.446 12.01951,-1.0564 2.69958,14.2966 4.50731,24.9546 4.50731,32.9128 0,15.6347 -8.12263,23.8981 -23.28779,23.8981 -3.61531,0 -6.76097,-0.7512 -7.06626,-0.9155 -0.14085,0 -0.44593,-0.1409 -0.44593,-0.2817 0,-0.3052 0.30514,-0.4695 0.75122,-0.6104 7.06611,-1.0564 14.10879,-7.207 14.10879,-16.6676 0,-8.1226 -6.15067,-16.6912 -17.41895,-16.6912 -10.51707,0 -17.13713,8.5686 -17.13713,18.4753 0,9.9302 7.51219,23.0061 27.79511,23.0061 19.39078,0 28.85147,-10.9866 28.85147,-30.2131 0,-5.8454 -0.892,-12.6064 -2.39443,-21.175 -0.44609,-3.0049 -1.1973,-7.6765 -2.25366,-13.3811 14.71909,-4.9533 25.68222,-20.142 25.68222,-35.6125 m -32.60757,108.0347 c 0,-5.5637 -5.09415,-7.9582 -10.04755,-7.9582 -6.31489,0 -12.48902,3.8969 -12.48902,10.6579 0,2.864 1.05638,4.9768 3.16925,7.0662 -3.92046,1.5024 -7.81747,4.5073 -7.81747,9.1789 0,4.9534 4.50731,8.2634 11.12749,8.2634 8.09905,0 13.80365,-4.5073 13.80365,-10.9865 0,-3.451 -1.50244,-6.2915 -4.20216,-8.2634 4.36653,-1.9485 6.45581,-4.343 6.45581,-7.9583"
     id="path935"
     style="stroke-width:1.50244" />
  <path
     class="Clef"
     d="m 326.02244,1143.6827 c -22.53725,0 -41.77413,-15.7638 -41.77413,-39.5819 0,-19.2122 13.54707,-36.4046 27.43895,-48.5477 2.66015,-2.2168 5.19719,-4.409 7.56177,-6.7735 1.40391,8.4977 2.51227,15.7638 3.62063,22.3895 -14.35975,4.0888 -24.11362,19.3846 -24.11362,34.0401 0,11.2071 8.67011,26.3304 21.28118,26.3304 1.25607,0 2.68473,-0.6403 2.68473,-2.2167 0,-1.2562 -1.42866,-2.1922 -3.47292,-3.4484 -6.15784,-3.6454 -9.63078,-7.8819 -9.63078,-15.4681 0,-9.6061 7.2662,-17.3403 16.40419,-19.5325 l 9.13812,51.7004 c -3.15276,0.6405 -5.98536,1.1084 -9.13812,1.1084 m -4.72915,-163.0078 c 1.57637,-6.3055 8.6701,-22.8575 16.87233,-22.8575 2.36458,0 6.30553,7.5616 6.30553,18.5963 0,16.2318 -12.2909,28.5473 -23.17786,39.4095 -0.93592,-6.3055 -1.72412,-12.611 -1.72412,-19.0643 0,-5.9853 0.61575,-11.2071 1.72412,-16.084 m 20.49298,160.0029 c -3.30049,-18.7443 -7.5616,-43.8185 -8.67011,-50.7645 15.91168,0 22.70984,11.0347 24.11377,18.6211 0.17245,1.2562 0.46802,2.9804 0.46802,4.8769 0,11.3548 -4.72915,22.7098 -15.91168,27.2665 m -21.92152,107.8344 c -3.44834,0 -5.81291,-2.1922 -5.81291,-5.5174 0,-3.1527 1.40393,-5.6651 4.08868,-7.2414 0.64047,0.3201 0.78819,0.3201 1.25621,0.6157 1.89656,0.9606 1.89656,0.9606 2.21686,1.2808 2.98032,1.7242 4.26113,3.3007 4.26113,5.5174 0,2.9803 -2.53703,5.3449 -6.00997,5.3449 m 6.00997,-18.9167 c -2.36458,-1.256 -3.00506,-1.5763 -3.47293,-1.8965 l -0.32032,-0.1477 c -2.36457,-1.4286 -3.15276,-2.537 -3.15276,-4.4089 0,-2.8572 2.21685,-4.9016 5.36962,-4.9016 2.98031,0 4.87687,1.8966 4.87687,5.1972 0,2.537 -0.93592,4.2611 -3.30048,6.1576 M 369.841,1109.9383 c 0,-23.7935 -16.8722,-39.8776 -39.87761,-39.8776 -1.57638,-9.4582 -3.00492,-18.7688 -4.40883,-27.5867 16.55202,-17.5126 28.20243,-37.3651 28.20243,-62.2671 0,-14.3599 -4.40897,-26.0103 -7.09372,-31.6995 -3.76849,-8.0301 -8.34994,-13.5474 -11.03469,-13.5474 -1.08376,0 -6.13307,1.8964 -11.18253,8.0301 -10.24649,11.9947 -13.07894,31.995 -13.07894,45.2464 0,8.5224 0.78819,16.2319 3.47292,34.0647 -0.17245,0 -8.37454,8.35 -11.67515,11.1826 -14.35976,13.2514 -34.21241,32.4636 -34.21241,63.8435 0,29.631 25.69014,52.8087 55.0257,52.8087 4.55669,0 8.81782,-0.4679 12.61107,-1.1083 2.83245,15.0003 4.72915,26.1826 4.72915,34.5326 0,16.4043 -8.5224,25.0744 -24.43394,25.0744 -3.79326,0 -7.09373,-0.7882 -7.41404,-0.9607 -0.14778,0 -0.46788,-0.1477 -0.46788,-0.2955 0,-0.3201 0.32016,-0.4926 0.78819,-0.6405 7.41389,-1.1084 14.80319,-7.5616 14.80319,-17.4879 0,-8.5225 -6.45339,-17.5127 -18.27627,-17.5127 -11.03468,0 -17.98056,8.9902 -17.98056,19.3846 0,10.4189 7.88192,24.1384 29.16309,24.1384 20.34514,0 30.27146,-11.5273 30.27146,-31.7001 0,-6.1331 -0.9359,-13.2268 -2.51229,-22.2171 -0.46803,-3.1528 -1.25622,-8.0544 -2.36456,-14.0397 15.44351,-5.1972 26.94622,-21.1334 26.94622,-37.3652 m -34.21242,113.3518 c 0,-5.8376 -5.34488,-8.3499 -10.54206,-8.3499 -6.62569,0 -13.10369,4.0887 -13.10369,11.1824 0,3.0051 1.10836,5.2218 3.32523,7.4139 -4.11342,1.5764 -8.20223,4.7291 -8.20223,9.6308 0,5.1971 4.72916,8.6701 11.67516,8.6701 8.49765,0 14.48301,-4.7292 14.48301,-11.5274 0,-3.6207 -1.57637,-6.601 -4.40897,-8.6701 4.58144,-2.0444 6.77355,-4.5566 6.77355,-8.3498"
     id="path937"
     style="stroke-width:1.57639" />
  <path
     class="TimeSig"
     d="m 439.81767,1051.4643 v 11.6506 h -13.07909 c -1.10836,0 -2.21671,0.9605 -2.21671,2.2167 v 3.0051 c 0,1.2561 1.10835,2.1921 2.21671,2.1921 h 47.75952 c 1.28081,0 2.21673,-0.936 2.21673,-2.1921 v -3.0051 c 0,-1.2562 -0.93592,-2.2167 -2.21673,-2.2167 h -14.18745 v -11.6506 h 14.18745 c 1.28081,0 2.21673,-1.1083 2.21673,-2.3646 v -3.0049 c 0,-1.1084 -0.93592,-2.1922 -2.21673,-2.1922 h -14.18745 v -25.0743 c 0,-0.936 -0.46802,-1.7242 -1.08376,-2.0444 l -1.89655,-0.9606 c -0.32031,-0.1478 -0.46803,-0.1478 -0.78819,-0.1478 -0.64048,0 -1.25623,0 -1.74884,0.468 l -14.3353,13.0791 c -0.46787,0.4926 -0.64034,1.1084 -0.64034,1.7488 v 12.9312 h -18.27623 c 0,0 17.6605,-18.9166 36.25678,-43.8432 0.64048,-0.7882 0.78819,-1.5764 0.78819,-2.1921 0,-0.7882 -0.32016,-1.4285 -0.46787,-1.5764 l -3.47308,-3.4729 c -0.46788,-0.3202 -0.93591,-0.6405 -1.57638,-0.6405 -0.93592,0 -22.24167,0 -23.49791,0 -1.10834,0 -1.89653,0.9606 -2.0444,1.8967 0,0 -0.78819,11.675 -4.87694,24.4339 -4.11337,12.7835 -8.84252,20.6654 -12.93126,26.4783 0,0 -0.46799,0.7882 -0.46799,1.7488 0,0.3202 0,0.6159 0.14778,0.936 0.46799,1.1084 1.57639,2.8326 1.57639,2.8326 0,0 0.3202,0.9605 1.72416,0.9605 h 27.11876"
     id="path939"
     style="stroke-width:1.57639" />
  <path
     class="TimeSig"
     d="m 439.81767,1130.2834 v 11.6506 h -13.07909 c -1.10836,0 -2.21671,0.9604 -2.21671,2.2167 v 3.005 c 0,1.2562 1.10835,2.1922 2.21671,2.1922 h 47.75952 c 1.28081,0 2.21673,-0.936 2.21673,-2.1922 v -3.005 c 0,-1.2563 -0.93592,-2.2167 -2.21673,-2.2167 h -14.18745 v -11.6506 h 14.18745 c 1.28081,0 2.21673,-1.1083 2.21673,-2.3645 v -3.005 c 0,-1.1084 -0.93592,-2.1921 -2.21673,-2.1921 h -14.18745 v -25.0743 c 0,-0.936 -0.46802,-1.7242 -1.08376,-2.0444 l -1.89655,-0.9606 c -0.32031,-0.1478 -0.46803,-0.1478 -0.78819,-0.1478 -0.64048,0 -1.25623,0 -1.74884,0.468 l -14.3353,13.0791 c -0.46787,0.4926 -0.64034,1.1083 -0.64034,1.7488 v 12.9312 h -18.27623 c 0,0 17.6605,-18.9166 36.25678,-43.8432 0.64048,-0.7882 0.78819,-1.5764 0.78819,-2.1922 0,-0.7881 -0.32016,-1.4285 -0.46787,-1.5763 l -3.47308,-3.4729 c -0.46788,-0.3202 -0.93591,-0.6406 -1.57638,-0.6406 -0.93592,0 -22.24167,0 -23.49791,0 -1.10834,0 -1.89653,0.9607 -2.0444,1.8968 0,0 -0.78819,11.675 -4.87694,24.4339 -4.11337,12.7834 -8.84252,20.6653 -12.93126,26.4782 0,0 -0.46799,0.7882 -0.46799,1.7487 0,0.3203 0,0.6159 0.14778,0.936 0.46799,1.1084 1.57639,2.8327 1.57639,2.8327 0,0 0.3202,0.9605 1.72416,0.9605 h 27.11876"
     id="path941"
     style="stroke-width:1.57639" />
  <metadata
     id="metadata1068">
    <rdf:RDF>
      <cc:Work
         rdf:about="">
        <dc:title>Partition sans titre</dc:title>
      </cc:Work>
    </rdf:RDF>
  </metadata>
  <text
     xml:space="preserve"
     style="font-size:120px;font-family:C059;-inkscape-font-specification:C059;fill:#000000;stroke:#000000;stroke-width:0;stroke-dasharray:none;paint-order:stroke fill markers"
     x="676.38525"
     y="1640.6832"
     id="text1124"><tspan
       sodipodi:role="line"
       id="tspan1122"
       style="stroke-width:0;stroke-dasharray:none"
       x="676.38525"
       y="1640.6832">La bémol</tspan></text>
  <text
     xml:space="preserve"
     style="font-size:120px;font-family:C059;-inkscape-font-specification:C059;fill:#000000;stroke:#000000;stroke-width:0;stroke-dasharray:none;paint-order:stroke fill markers"
     x="2679.4692"
     y="1657.4172"
     id="text1732"><tspan
       sodipodi:role="line"
       id="tspan1730"
       style="stroke-width:0"
       x="2679.4692"
       y="1657.4172">La</tspan></text>
  <path
     style="fill:#000000;stroke:#000000;stroke-width:8.50394;stroke-dasharray:none;paint-order:stroke fill markers"
     d="m 880.10957,1734.4609 -293.64522,173.35 z"
     id="path1888" />
  <path
     style="fill:#000000;stroke:#000000;stroke-width:8.50395;stroke-dasharray:none;paint-order:stroke fill markers"
     d="m 585.81841,1907.2741 c -0.68677,-6.9711 7.59585,-45.0473 7.59585,-45.0473 z"
     id="path1890" />
  <path
     style="fill:#000000;stroke:#000000;stroke-width:8.50395;stroke-dasharray:none;paint-order:stroke fill markers"
     d="m 584.42221,1904.3636 36.69109,12.9545 z"
     id="path1892" />
  <path
     style="fill:#000000;stroke:#000000;stroke-width:8.50395;stroke-dasharray:none;paint-order:stroke fill markers"
     d="m 1029.3033,1734.5099 239.9787,170.2653 z"
     id="path1894" />
  <path
     style="fill:#000000;stroke:#000000;stroke-width:8.50395;stroke-dasharray:none;paint-order:stroke fill markers"
     d="m 1267.1149,1902.8339 c 0,-4.4802 -5.1506,-35.0077 -5.1506,-35.0077 z"
     id="path1896" />
  <path
     style="fill:#000000;stroke:#000000;stroke-width:8.50395;stroke-dasharray:none;paint-order:stroke fill markers"
     d="m 1263.6925,1905.1321 -32.0766,6.0782 z"
     id="path1898" />
  <path
     style="fill:#000000;stroke:#000000;stroke-width:8.50395;stroke-dasharray:none;paint-order:stroke fill markers"
     d="m 2720.413,1730.1823 c 0,0 -343.0398,228.7972 -326.4769,213.9727 16.5629,-14.8245 326.4769,-213.9727 326.4769,-213.9727 z"
     id="path1900" />
  <path
     style="fill:#000000;stroke:#000000;stroke-width:8.50395;stroke-dasharray:none;paint-order:stroke fill markers"
     d="m 2387.9048,1937.813 c 16.5425,-14.2799 8.6743,-34.7185 8.6743,-34.7185 z"
     id="path1902" />
  <path
     style="fill:#000000;stroke:#000000;stroke-width:8.50395;stroke-dasharray:none;paint-order:stroke fill markers"
     d="m 2392.3734,1941.8722 45.1293,7.428 z"
     id="path1904" />
  <path
     style="fill:#000000;stroke:#000000;stroke-width:8.50395;stroke-dasharray:none;paint-order:stroke fill markers"
     d="m 2812.9101,1728.4827 260.5546,212.7311 z"
     id="path1910" />
  <path
     style="fill:#000000;stroke:#000000;stroke-width:8.50395;stroke-dasharray:none;paint-order:stroke fill markers"
     d="m 3071.8802,1937.5506 c -2.7271,-5.569 -16.9302,-39.8374 -16.9302,-39.8374 l 16.328,42.7343 -2.753,-2.457 z"
     id="path1912" />
  <path
     style="fill:#000000;stroke:#000000;stroke-width:8.50395;stroke-dasharray:none;paint-order:stroke fill markers"
     d="m 3067.186,1939.5903 c -2.5807,-2.6696 -40.0587,-4.7798 -40.0587,-4.7798 z"
     id="path1914" />
  <text
     xml:space="preserve"
     style="font-size:120px;font-family:C059;-inkscape-font-specification:C059;fill:#000000;stroke:#000000;stroke-width:0;stroke-dasharray:none;paint-order:stroke fill markers"
     x="778.01447"
     y="640.79993"
     id="text1918"><tspan
       sodipodi:role="line"
       id="tspan1916"
       style="stroke-width:0;stroke-dasharray:none"
       x="778.01447"
       y="640.79993">Ré dièse</tspan></text>
  <text
     xml:space="preserve"
     style="font-size:120px;font-family:C059;-inkscape-font-specification:C059;fill:#000000;stroke:#000000;stroke-width:0;stroke-dasharray:none;paint-order:stroke fill markers"
     x="2674.9314"
     y="666.8443"
     id="text1922"><tspan
       sodipodi:role="line"
       id="tspan1920"
       style="stroke-width:0"
       x="2674.9314"
       y="666.8443">Ré</tspan></text>
  <path
     style="fill:#000000;stroke:#000000;stroke-width:8.50394;stroke-dasharray:none;paint-order:stroke fill markers"
     d="M 972.81006,708.4879 676.64034,954.5622 Z"
     id="path1924" />
  <path
     style="fill:#000000;stroke:#000000;stroke-width:8.50395;stroke-dasharray:none;paint-order:stroke fill markers"
     d="m 677.3363,953.1194 c 1.39335,-5.969 16.46888,-43.5726 16.46888,-43.5726 z"
     id="path1926" />
  <path
     style="fill:#000000;stroke:#000000;stroke-width:8.50395;stroke-dasharray:none;paint-order:stroke fill markers"
     d="m 679.14838,953.0479 43.03425,-5.9908 z"
     id="path1928" />
  <path
     style="fill:#000000;stroke:#000000;stroke-width:8.50395;stroke-dasharray:none;paint-order:stroke fill markers"
     d="M 1094.872,714.00362 1388.1287,940.3045 Z"
     id="path1930" />
  <path
     style="fill:#000000;stroke:#000000;stroke-width:8.50395;stroke-dasharray:none;paint-order:stroke fill markers"
     d="m 1389.2547,938.6463 c -0.8892,-2.6887 -26.199,-43.6063 -26.199,-43.6063 z"
     id="path1932" />
  <path
     style="fill:#000000;stroke:#000000;stroke-width:8.50395;stroke-dasharray:none;paint-order:stroke fill markers"
     d="m 1384.6271,938.344 -43.7478,-8.0961 z"
     id="path1934" />
  <path
     style="fill:#000000;stroke:#000000;stroke-width:8.50395;stroke-dasharray:none;paint-order:stroke fill markers"
     d="M 2742.1107,727.25886 2446.3711,961.8336 Z"
     id="path1936" />
  <path
     style="fill:#000000;stroke:#000000;stroke-width:8.50395;stroke-dasharray:none;paint-order:stroke fill markers"
     d="m 2447.1269,959.628 14.2984,-44.3322 z"
     id="path1938" />
  <path
     style="fill:#000000;stroke:#000000;stroke-width:8.50395;stroke-dasharray:none;paint-order:stroke fill markers"
     d="m 2449.9185,958.9398 39.873,-2.5373 z"
     id="path1940" />
  <path
     style="fill:#000000;stroke:#000000;stroke-width:8.50395;stroke-dasharray:none;paint-order:stroke fill markers"
     d="m 2797.8194,726.30887 c 21.0874,9.80562 367.5949,234.27463 367.5949,234.27463 z"
     id="path1942" />
  <path
     style="fill:#000000;stroke:#000000;stroke-width:8.50395;stroke-dasharray:none;paint-order:stroke fill markers"
     d="m 3162.1294,958.3028 -18.5535,-37.7043 z"
     id="path1944" />
  <path
     style="fill:#000000;stroke:#000000;stroke-width:8.50395;stroke-dasharray:none;paint-order:stroke fill markers"
     d="m 3160.286,959.8786 c -9.4468,-4.9057 -37.4043,-3.5399 -37.4043,-3.5399 z"
     id="path1946" />
</svg>
