<?xml version="1.0" encoding="UTF-8" standalone="no"?>
<svg
   width="297mm"
   height="210mm"
   viewBox="0 0 4209.4489 2976.378"
   version="1.2"
   id="svg170"
   sodipodi:docname="ansi_font_font_font.svg"
   inkscape:version="1.2.2 (b0a8486541, 2022-12-01)"
   xmlns:inkscape="http://www.inkscape.org/namespaces/inkscape"
   xmlns:sodipodi="http://sodipodi.sourceforge.net/DTD/sodipodi-0.dtd"
   xmlns="http://www.w3.org/2000/svg"
   xmlns:svg="http://www.w3.org/2000/svg"
   xmlns:rdf="http://www.w3.org/1999/02/22-rdf-syntax-ns#"
   xmlns:cc="http://creativecommons.org/ns#"
   xmlns:dc="http://purl.org/dc/elements/1.1/">
  <defs
     id="defs174" />
  <sodipodi:namedview
     id="namedview172"
     pagecolor="#ffffff"
     bordercolor="#000000"
     borderopacity="0.25"
     inkscape:showpageshadow="2"
     inkscape:pageopacity="0.0"
     inkscape:pagecheckerboard="0"
     inkscape:deskcolor="#d1d1d1"
     inkscape:document-units="mm"
     showgrid="false"
     inkscape:zoom="1.2148042"
     inkscape:cx="804.6564"
     inkscape:cy="670.4784"
     inkscape:window-width="1280"
     inkscape:window-height="651"
     inkscape:window-x="0"
     inkscape:window-y="32"
     inkscape:window-maximized="1"
     inkscape:current-layer="svg170" />
  <title
     id="title2">ansi_font_font_font</title>
  <desc
     id="desc4">Generated by MuseScore Studio 4.5.2</desc>
  <polyline
     class="StaffLines"
     fill="none"
     stroke="#000000"
     stroke-width="2.73"
     stroke-linejoin="bevel"
     points="336.598,634.198 2764.6,634.198"
     id="polyline6"
     transform="matrix(1.4411319,0,0,1.8530398,-93.78375,-182.14106)" />
  <polyline
     class="StaffLines"
     fill="none"
     stroke="#000000"
     stroke-width="2.73"
     stroke-linejoin="bevel"
     points="336.598,658.998 2764.6,658.998"
     id="polyline8"
     transform="matrix(1.4411319,0,0,1.8530398,-93.78375,-182.14106)" />
  <polyline
     class="StaffLines"
     fill="none"
     stroke="#000000"
     stroke-width="2.73"
     stroke-linejoin="bevel"
     points="336.598,683.798 2764.6,683.798"
     id="polyline10"
     transform="matrix(1.4411319,0,0,1.8530398,-93.78375,-182.14106)" />
  <polyline
     class="StaffLines"
     fill="none"
     stroke="#000000"
     stroke-width="2.73"
     stroke-linejoin="bevel"
     points="336.598,708.598 2764.6,708.598"
     id="polyline12"
     transform="matrix(1.4411319,0,0,1.8530398,-93.78375,-182.14106)" />
  <polyline
     class="StaffLines"
     fill="none"
     stroke="#000000"
     stroke-width="2.73"
     stroke-linejoin="bevel"
     points="336.598,733.398 2764.6,733.398"
     id="polyline14"
     transform="matrix(1.4411319,0,0,1.8530398,-93.78375,-182.14106)" />
  <polyline
     class="StaffLines"
     fill="none"
     stroke="#000000"
     stroke-width="2.73"
     stroke-linejoin="bevel"
     points="212.598,1316.2 2764.6,1316.2"
     id="polyline16"
     transform="matrix(1.0646833,0,0,1.8530398,-13.751524,-182.14106)" />
  <polyline
     class="StaffLines"
     fill="none"
     stroke="#000000"
     stroke-width="2.73"
     stroke-linejoin="bevel"
     points="212.598,1341 2764.6,1341"
     id="polyline18"
     transform="matrix(1.0646833,0,0,1.8530398,-13.751524,-182.14106)" />
  <polyline
     class="StaffLines"
     fill="none"
     stroke="#000000"
     stroke-width="2.73"
     stroke-linejoin="bevel"
     points="212.598,1365.8 2764.6,1365.8"
     id="polyline20"
     transform="matrix(1.0646833,0,0,1.8530398,-13.751524,-182.14106)" />
  <polyline
     class="StaffLines"
     fill="none"
     stroke="#000000"
     stroke-width="2.73"
     stroke-linejoin="bevel"
     points="212.598,1390.6 2764.6,1390.6"
     id="polyline22"
     transform="matrix(1.0646833,0,0,1.8530398,-13.751524,-182.14106)" />
  <polyline
     class="StaffLines"
     fill="none"
     stroke="#000000"
     stroke-width="2.73"
     stroke-linejoin="bevel"
     points="212.598,1415.4 2764.6,1415.4"
     id="polyline24"
     transform="matrix(1.0646833,0,0,1.8530398,-13.751524,-182.14106)" />
  <path
     class="Text"
     d="m 449.05747,213.75163 h -6.66523 l -36.45631,118.82618 c -4.27872,15.89537 -8.39892,20.78925 -17.42905,21.60088 h -0.63122 v 9.58207 h 41.99603 v -9.58207 h -3.17482 c -8.55744,0 -12.83472,-3.88026 -12.83472,-11.61115 0,-2.66467 0.47269,-5.09586 1.44113,-8.57031 l 5.22411,-17.9226 h 42.01764 l 8.556,27.30269 c 0.94682,3.27247 1.26099,4.48806 1.26099,5.50168 0,3.27247 -3.96312,5.29969 -9.81699,5.29969 h -6.66524 v 9.58207 h 49.13395 v -9.58207 h -2.20781 c -8.24039,-0.20383 -9.68153,-1.41943 -13.33047,-13.03057 L 449.05747,213.75163 m -7.76914,33.41401 17.92336,57.87785 H 423.7022 l 17.58613,-57.87785 m 87.48103,-29.15758 c -5.06702,0 -9.18722,5.2997 -9.18722,11.84278 0,6.51343 4.1202,11.81313 9.03014,11.81313 5.24572,0 9.36735,-5.2997 9.36735,-11.81313 0,-6.54308 -4.12163,-11.84278 -9.21027,-11.84278 m 7.45353,50.75662 -29.79107,2.25885 v 8.77229 h 8.0833 c 6.01241,0.20198 6.80071,1.41943 6.80071,10.19172 v 58.28366 c -0.15709,3.06863 -0.31561,4.28608 -0.94539,5.29784 -1.1039,1.82525 -4.12019,2.66467 -10.94395,2.86665 h -1.10247 v 7.32507 h 41.07226 v -7.32507 h -1.12697 c -10.60529,-0.43361 -12.04642,-1.44722 -12.04642,-8.77229 v -78.89872 m 48.97543,0 -27.42618,2.25885 v 8.77229 h 5.71985 c 6.0124,0.20198 6.8007,1.41943 6.8007,10.19172 v 58.28366 c -0.15852,3.06863 -0.31561,4.28608 -0.94682,5.29784 -1.10247,1.82525 -4.1202,2.66467 -10.94252,2.86665 h -0.63121 v 7.32507 h 40.10382 v -7.32507 h -0.62978 c -10.62835,-0.43361 -12.04786,-1.44722 -12.04786,-8.77229 v -30.16934 c 0,-9.98973 1.10391,-19.16784 2.86064,-23.85788 3.3319,-9.17811 10.44821,-15.49142 17.27053,-15.49142 4.12019,0 8.87161,2.86666 11.25956,7.15274 2.38652,4.45841 3.48898,10.59568 3.48898,20.38343 v 42.59027 c -0.15708,3.06863 -0.31416,4.28608 -0.94538,5.29784 -1.12552,1.82525 -4.30034,2.66467 -11.10104,2.86665 h -0.62977 v 7.32507 h 40.10381 v -7.32507 h -0.63121 c -10.46982,-0.43361 -11.88934,-1.44722 -11.88934,-8.77229 v -40.96885 c 0,-14.67978 -0.49575,-18.35807 -3.3319,-25.27732 -3.96311,-9.7859 -11.88933,-15.69339 -21.41522,-15.69339 -10.28968,0 -18.05882,6.10947 -25.03966,19.57366 v -16.53282 m 126.97813,-2.22921 h -5.56277 l -4.59289,7.32506 c -5.69679,-5.70365 -11.41665,-8.13669 -19.34287,-8.13669 -13.93863,0 -23.1489,11.61114 -23.1489,29.56154 0,19.1382 9.68296,24.03207 22.3606,27.91234 l 8.39892,2.46084 c 12.52055,3.85061 16.95635,7.93286 16.95635,16.09735 0,9.58392 -6.48509,16.30119 -15.69536,16.30119 -13.46594,0 -22.96732,-11.00149 -26.77335,-31.38493 h -6.34963 v 38.50802 h 5.53971 l 5.56133,-8.33868 c 6.48509,6.71727 13.62302,9.98974 21.70633,9.98974 15.53828,0 25.85102,-12.45058 25.85102,-31.41459 0,-8.94833 -2.22943,-15.89722 -6.66523,-20.58727 -3.80603,-4.25643 -6.98085,-5.90564 -16.64075,-8.54066 l -7.92623,-2.25885 c -8.71452,-2.43119 -8.71452,-2.43119 -11.57373,-4.48807 -3.49042,-2.02722 -5.53971,-6.31145 -5.53971,-10.79951 0,-8.33868 6.0124,-14.04234 14.72693,-14.04234 13.01486,0 19.34287,11.81313 23.14746,26.0871 h 5.56277 v -34.25159 m 36.74886,-48.52741 c -5.06702,0 -9.18722,5.2997 -9.18722,11.84278 0,6.51343 4.1202,11.81313 9.02869,11.81313 5.24716,0 9.36736,-5.2997 9.36736,-11.81313 0,-6.54308 -4.1202,-11.84278 -9.20883,-11.84278 m 7.45353,50.75662 -29.79108,2.25885 v 8.77229 h 8.08331 c 6.01241,0.20198 6.8007,1.41943 6.8007,10.19172 v 58.28366 c -0.15852,3.06863 -0.3156,4.28608 -0.94538,5.29784 -1.10391,1.82525 -4.12164,2.66467 -10.94395,2.86665 h -1.10391 v 7.32507 h 41.07226 v -7.32507 h -1.12553 c -10.60529,-0.43361 -12.04642,-1.44722 -12.04642,-8.77229 v -78.89872 m 93.19944,0 v -11.61115 c 0,-10.19172 0.47413,-16.90899 1.73512,-20.99124 2.5436,-8.97612 8.10637,-14.47594 14.43294,-14.47594 3.33334,0 5.38263,1.21559 5.38263,3.47445 0,0.80977 0,1.01176 -0.94683,2.63317 -0.94538,1.85304 -1.41807,4.28608 -1.41807,6.54493 0,6.10947 3.80603,10.79952 8.71452,10.79952 5.22411,0 8.87161,-5.09586 8.87161,-12.45058 0,-11.81313 -7.92622,-19.16784 -20.76094,-19.16784 -10.94396,0 -19.02727,4.89388 -24.56698,15.0856 -4.75141,8.57031 -6.34963,17.3426 -6.34963,33.84762 v 6.31146 h -13.93862 v 8.77229 h 13.93862 v 70.73423 c -0.15852,2.86665 -0.3156,4.08225 -0.94682,5.29784 -1.10247,1.82525 -4.1202,2.66467 -10.94251,2.86665 h -0.63122 v 7.32507 h 42.33325 v -7.32507 h -2.85921 c -10.62834,-0.43361 -12.04786,-1.44722 -12.04786,-8.77229 v -70.12643 h 17.42905 v -8.77229 h -17.42905 m 56.72295,-3.04084 c -19.49995,0 -34.56555,22.20868 -34.56555,50.75661 0,27.91049 15.22268,50.3508 34.24994,50.3508 19.02727,0 34.24994,-22.44031 34.24994,-50.55463 0,-27.94014 -15.22267,-50.55278 -33.93433,-50.55278 m 0,8.74449 c 11.10104,0 17.27052,14.88176 17.27052,41.80829 0,27.1007 -6.16948,41.78048 -17.58613,41.78048 -11.41664,0 -17.58613,-14.67978 -17.58613,-41.57665 0,-27.73815 6.0124,-42.01212 17.90174,-42.01212 m 70.99736,-5.70365 -27.42618,2.25885 v 8.77229 h 5.71985 c 6.01241,0.20198 6.8007,1.41943 6.8007,10.19172 v 58.28366 c -0.15852,3.06863 -0.3156,4.28608 -0.94682,5.29784 -1.10246,1.82525 -4.1202,2.66467 -10.94251,2.86665 h -0.63122 v 7.32507 h 40.10382 v -7.32507 h -0.62978 c -10.62834,-0.43361 -12.04786,-1.44722 -12.04786,-8.77229 v -30.16934 c 0,-9.98973 1.10391,-19.16784 2.86065,-23.85788 3.33189,-9.17811 10.4482,-15.49142 17.27052,-15.49142 4.12164,0 8.87164,2.86666 11.25954,7.15274 2.3865,4.45841 3.4904,10.59568 3.4904,20.38343 v 42.59027 c -0.1585,3.06863 -0.3156,4.28608 -0.9468,5.29784 -1.1255,1.82525 -4.3003,2.66467 -11.101,2.86665 h -0.62979 v 7.32507 h 40.10379 v -7.32507 h -0.6312 c -10.4698,-0.43361 -11.8893,-1.44722 -11.8893,-8.77229 v -40.96885 c 0,-14.67978 -0.4943,-18.35807 -3.3319,-25.27732 -3.9631,-9.7859 -11.8894,-15.69339 -21.4152,-15.69339 -10.28972,0 -18.05887,6.10947 -25.03971,19.57366 v -16.53282 m 95.90301,0 v -40.36106 h -6.5067 c -1.5766,26.5207 -8.5575,39.95524 -21.3922,41.20048 v 7.93287 h 12.9933 v 51.9722 c 0,14.27397 0.3141,19.36983 1.8907,24.05987 2.5451,8.57031 8.8947,13.26221 18.0819,13.26221 14.2759,0 23.4631,-13.87001 23.4631,-35.46904 0,-1.24524 0,-2.66282 -0.1571,-4.69004 h -6.6652 c -0.4727,18.32656 -4.5944,27.7085 -12.3621,27.7085 -3.6489,0 -6.8237,-2.43304 -7.9262,-5.90749 -0.9468,-2.8648 -1.4195,-7.96066 -1.4195,-15.28758 v -55.64863 h 23.306 v -8.77229 h -23.306 m 46.2517,132.49234 c 14.2758,-12.62476 20.784,-25.07348 20.784,-39.31965 0,-12.24674 -5.2472,-20.18146 -13.0149,-20.18146 -5.8553,0 -10.2911,5.2997 -10.2911,12.21895 0,7.35471 4.2787,12.01696 10.944,12.01696 0.7883,0 1.8907,0 2.3634,-0.20383 h 0.4741 c 0.81,0 1.1256,0.63744 1.1256,1.85304 0,8.54251 -5.4043,18.12458 -16.011,27.7085 l 3.6259,5.90749 M 1225.669,268.76468 v -11.61115 c 0,-10.19172 0.4727,-16.90899 1.7337,-20.99124 2.545,-8.97612 8.1064,-14.47594 14.4344,-14.47594 3.3319,0 5.3812,1.21559 5.3812,3.47445 0,0.80977 0,1.01176 -0.9454,2.63317 -0.9454,1.85304 -1.4181,4.28608 -1.4181,6.54493 0,6.10947 3.8046,10.79952 8.7145,10.79952 5.2241,0 8.8716,-5.09586 8.8716,-12.45058 0,-11.81313 -7.9262,-19.16784 -20.7609,-19.16784 -10.944,0 -19.0287,4.89388 -24.567,15.0856 -4.7514,8.57031 -6.351,17.3426 -6.351,33.84762 v 6.31146 h -13.9372 v 8.77229 h 13.9372 v 70.73423 c -0.1571,2.86665 -0.3142,4.08225 -0.9454,5.29784 -1.1025,1.82525 -4.1202,2.66467 -10.944,2.86665 h -0.6298 v 7.32507 h 42.3333 v -7.32507 h -2.8592 c -10.6284,-0.43361 -12.0479,-1.44722 -12.0479,-8.77229 v -70.12643 h 17.4291 v -8.77229 h -17.4291 m 56.723,-3.04084 c -19.5014,0 -34.5656,22.20868 -34.5656,50.75661 0,27.91049 15.2227,50.3508 34.25,50.3508 19.0272,0 34.2485,-22.44031 34.2485,-50.55463 0,-27.94014 -15.2213,-50.55278 -33.9329,-50.55278 m 0,8.74449 c 11.101,0 17.2705,14.88176 17.2705,41.80829 0,27.1007 -6.1695,41.78048 -17.5861,41.78048 -11.4167,0 -17.5862,-14.67978 -17.5862,-41.57665 0,-27.73815 6.0124,-42.01212 17.9018,-42.01212 m 70.9944,-5.70365 -27.4232,2.25885 v 8.77229 h 5.7198 c 6.0124,0.20198 6.7993,1.41943 6.7993,10.19172 v 58.28366 c -0.1571,3.06863 -0.3142,4.28608 -0.9454,5.29784 -1.1025,1.82525 -4.1202,2.66467 -10.944,2.86665 h -0.6297 v 7.32507 h 40.1052 v -7.32507 h -0.6341 c -10.6211,-0.43361 -12.0479,-1.44722 -12.0479,-8.77229 v -30.16934 c 0,-9.98973 1.1097,-19.16784 2.8679,-23.85788 3.329,-9.17811 10.4482,-15.49142 17.2648,-15.49142 4.1216,0 8.8773,2.86666 11.2552,7.15274 2.3923,4.45841 3.502,10.59568 3.502,20.38343 v 42.59027 c -0.1586,3.06863 -0.3171,4.28608 -0.9512,5.29784 -1.1241,1.82525 -4.309,2.66467 -11.0967,2.86665 h -0.6341 v 7.32507 h 40.1067 v -7.32507 h -0.6341 c -10.477,-0.43361 -11.8893,-1.44722 -11.8893,-8.77229 v -40.96885 c 0,-14.67978 -0.49,-18.35807 -3.3291,-25.27732 -3.9631,-9.7859 -11.8893,-15.69339 -21.4152,-15.69339 -10.2897,0 -18.0574,6.10947 -25.0469,19.57366 v -16.53282 m 95.9074,0 v -40.36106 h -6.5139 c -1.5709,26.5207 -8.546,39.95524 -21.3864,41.20048 v 7.93287 h 12.999 v 51.9722 c 0,14.27397 0.3026,19.36983 1.8879,24.05987 2.5363,8.57031 8.8917,13.26221 18.0717,13.26221 14.2817,0 23.4761,-13.87001 23.4761,-35.46904 0,-1.24524 0,-2.66282 -0.1585,-4.69004 h -6.6725 c -0.4756,18.32656 -4.5972,27.7085 -12.3649,27.7085 -3.6461,0 -6.8165,-2.43304 -7.9262,-5.90749 -0.9368,-2.8648 -1.4123,-7.96066 -1.4123,-15.28758 v -55.64863 h 23.3031 v -8.77229 h -23.3031 m 46.2459,132.49234 c 14.2816,-12.62476 20.7811,-25.07348 20.7811,-39.31965 0,-12.24674 -5.2457,-20.18146 -13.0134,-20.18146 -5.851,0 -10.2897,5.2997 -10.2897,12.21895 0,7.35471 4.2802,12.01696 10.9526,12.01696 0.7782,0 1.8879,0 2.3635,-0.20383 h 0.4755 c 0.8071,0 1.1241,0.63744 1.1241,1.85304 0,8.54251 -5.4042,18.12458 -16.0109,27.7085 l 3.6172,5.90749 m 106.2258,-132.49234 v -11.61115 c 0,-10.19172 0.4612,-16.90899 1.7294,-20.99124 2.5364,-8.97612 8.0991,-14.47594 14.4257,-14.47594 3.3434,0 5.3898,1.21559 5.3898,3.47445 0,0.80977 0,1.01176 -0.9511,2.63317 -0.9367,1.85304 -1.4123,4.28608 -1.4123,6.54493 0,6.10947 3.8046,10.79952 8.7188,10.79952 5.2169,0 8.863,-5.09586 8.863,-12.45058 0,-11.81313 -7.9262,-19.16784 -20.7523,-19.16784 -10.9526,0 -19.0374,4.89388 -24.5713,15.0856 -4.7557,8.57031 -6.3554,17.3426 -6.3554,33.84762 v 6.31146 h -13.9357 v 8.77229 h 13.9357 v 70.73423 c -0.1585,2.86665 -0.317,4.08225 -0.9367,5.29784 -1.1097,1.82525 -4.1217,2.66467 -10.9526,2.86665 h -0.6341 v 7.32507 h 42.3404 v -7.32507 h -2.8534 c -10.6356,-0.43361 -12.0479,-1.44722 -12.0479,-8.77229 v -70.12643 h 17.4233 v -8.77229 h -17.4233 m 56.723,-3.04084 c -19.513,0 -34.5728,22.20868 -34.5728,50.75661 0,27.91049 15.2184,50.3508 34.2557,50.3508 19.023,0 34.2413,-22.44031 34.2413,-50.55463 0,-27.94014 -15.2183,-50.55278 -33.9242,-50.55278 m 0,8.74449 c 11.0967,0 17.2647,14.88176 17.2647,41.80829 0,27.1007 -6.168,41.78048 -17.5818,41.78048 -11.4282,0 -17.5962,-14.67978 -17.5962,-41.57665 0,-27.73815 6.0239,-42.01212 17.9133,-42.01212 m 70.9901,-5.70365 -27.4247,2.25885 v 8.77229 h 5.7213 c 6.0095,0.20198 6.8021,1.41943 6.8021,10.19172 v 58.28366 c -0.1585,3.06863 -0.317,4.28608 -0.9511,5.29784 -1.0953,1.82525 -4.1217,2.66467 -10.9382,2.86665 h -0.6341 v 7.32507 h 40.1067 v -7.32507 h -0.6341 c -10.6212,-0.43361 -12.0479,-1.44722 -12.0479,-8.77229 v -30.16934 c 0,-9.98973 1.1097,-19.16784 2.8679,-23.85788 3.329,-9.17811 10.4482,-15.49142 17.2647,-15.49142 4.1217,0 8.8774,2.86666 11.2553,7.15274 2.3923,4.45841 3.4875,10.59568 3.4875,20.38343 v 42.59027 c -0.1585,3.06863 -0.3026,4.28608 -0.9367,5.29784 -1.1241,1.82525 -4.309,2.66467 -11.1111,2.86665 h -0.6197 v 7.32507 h 40.1067 v -7.32507 h -0.6341 c -10.4771,-0.43361 -11.8894,-1.44722 -11.8894,-8.77229 v -40.96885 c 0,-14.67978 -0.5044,-18.35807 -3.329,-25.27732 -3.9631,-9.7859 -11.8893,-15.69339 -21.4152,-15.69339 -10.2897,0 -18.0718,6.10947 -25.0469,19.57366 v -16.53282 m 95.9074,0 v -40.36106 h -6.514 c -1.5708,26.5207 -8.5603,39.95524 -21.3864,41.20048 v 7.93287 h 12.9846 v 51.9722 c 0,14.27397 0.3171,19.36983 1.9023,24.05987 2.5364,8.57031 8.8918,13.26221 18.0718,13.26221 14.2816,0 23.4617,-13.87001 23.4617,-35.46904 0,-1.24524 0,-2.66282 -0.1442,-4.69004 h -6.6724 c -0.4756,18.32656 -4.5972,27.7085 -12.3649,27.7085 -3.6461,0 -6.8166,-2.43304 -7.9262,-5.90749 -0.9368,-2.8648 -1.4123,-7.96066 -1.4123,-15.28758 v -55.64863 h 23.3031 v -8.77229 h -23.3031 m 107.2922,-55.24468 -29.3126,2.25886 v 8.77229 h 7.7677 c 5.851,0.20383 6.6436,1.41942 6.6436,10.19171 V 348.2712 c -0.1585,3.06863 -0.317,4.28608 -0.9511,5.29784 -1.0953,1.82525 -4.1217,2.66467 -10.9382,2.86665 h -1.1097 v 7.32507 h 41.0579 v -7.32507 h -1.1097 c -10.6067,-0.43361 -12.0479,-1.44722 -12.0479,-8.77229 V 213.52 m 91.3101,104.37803 c 0.1586,-30.57516 -13.3304,-52.17419 -32.6704,-52.17419 -20.2912,0 -35.5095,22.61264 -35.5095,53.1878 0,28.75176 14.4257,47.91961 35.8265,47.91961 15.2184,0 25.8395,-9.58392 32.3534,-28.95375 l -5.5627,-3.88027 c -6.4851,15.6934 -13.1432,21.80287 -23.7787,21.80287 -8.0848,0 -13.9358,-4.25643 -18.0574,-13.43454 -2.8534,-6.10947 -4.1216,-13.2622 -3.9631,-24.46753 h 51.3619 m -51.2034,-8.7723 c 0,-14.27396 5.0584,-34.6574 18.3745,-34.6574 9.5258,0 15.8524,10.82917 15.8524,27.33234 0,5.70366 -1.4267,7.32506 -6.4851,7.32506 h -27.7418 m 117.899,-42.59026 h -5.5628 l -4.5972,7.32506 c -5.6924,-5.70365 -11.4137,-8.13669 -19.34,-8.13669 -13.9357,0 -23.1445,11.61114 -23.1445,29.56154 0,19.1382 9.6844,24.03207 22.3663,27.91234 l 8.3874,2.46084 c 12.5235,3.85061 16.9621,7.93286 16.9621,16.09735 0,9.58392 -6.485,16.30119 -15.6939,16.30119 -13.4602,0 -22.9716,-11.00149 -26.7762,-31.38493 h -6.3554 v 38.50802 h 5.5484 l 5.5627,-8.33868 c 6.4851,6.71727 13.6187,9.98974 21.7035,9.98974 15.5354,0 25.8539,-12.45058 25.8539,-31.41459 0,-8.94833 -2.2338,-15.89722 -6.6725,-20.58727 -3.8046,-4.25643 -6.975,-5.90564 -16.6306,-8.54066 l -7.9263,-2.25885 c -8.7188,-2.43119 -8.7188,-2.43119 -11.5867,-4.48807 -3.4875,-2.02722 -5.5339,-6.31145 -5.5339,-10.79951 0,-8.33868 6.0095,-14.04234 14.7284,-14.04234 13.0134,0 19.34,11.81313 23.1445,26.0871 h 5.5628 v -34.25159 m 87.4767,2.22921 -27.4247,2.25885 v 8.77229 h 5.7213 c 6.0095,0.20198 6.8021,1.41943 6.8021,10.19172 v 99.65833 c -0.1585,2.86666 -0.317,4.08225 -0.9511,5.09586 -1.0953,1.82525 -4.1073,2.66467 -10.9382,2.86665 h -0.6341 v 7.32507 h 41.2308 v -7.32507 h -1.7582 c -10.6212,-0.40581 -12.0479,-1.44722 -12.0479,-8.77229 v -38.53766 c 5.2313,11.84092 11.1111,16.53282 20.9253,16.53282 21.0981,0 32.0219,-26.72454 32.0219,-50.9586 0,-23.04811 -10.9238,-50.14881 -31.0564,-50.14881 -9.8429,0 -16.3424,5.29969 -21.8908,17.51678 v -14.47594 m 19.0374,7.96251 c 10.9382,0 17.2647,14.07013 17.2647,37.90022 0,26.31872 -6.3265,41.17269 -17.7403,41.17269 -11.4138,0 -18.7059,-15.0856 -18.7059,-38.50987 0,-25.4793 7.1336,-40.56304 19.1815,-40.56304 m 113.8062,41.17084 c 0.1585,-30.57516 -13.3305,-52.17419 -32.6849,-52.17419 -20.2767,0 -35.5095,22.61264 -35.5095,53.1878 0,28.75176 14.4401,47.91961 35.8265,47.91961 15.2328,0 25.8539,-9.58392 32.3679,-28.95375 l -5.5628,-3.88027 c -6.4851,15.6934 -13.1575,21.80287 -23.7787,21.80287 -8.0847,0 -13.9357,-4.25643 -18.0574,-13.43454 -2.8678,-6.10947 -4.1216,-13.2622 -3.9631,-24.46753 h 51.362 m -51.2035,-8.7723 c 0,-14.27396 5.0584,-34.6574 18.3745,-34.6574 9.5114,0 15.8524,10.82917 15.8524,27.33234 0,5.70366 -1.4267,7.32506 -6.4851,7.32506 h -27.7418 m 84.3063,-40.36105 v -40.36106 h -6.514 c -1.5708,26.5207 -8.5603,39.95524 -21.3864,41.20048 v 7.93287 h 12.9846 v 51.9722 c 0,14.27397 0.3171,19.36983 1.8879,24.05987 2.5508,8.57031 8.9062,13.26221 18.0862,13.26221 14.2816,0 23.4617,-13.87001 23.4617,-35.46904 0,-1.24524 0,-2.66282 -0.1586,-4.69004 h -6.658 c -0.4756,18.32656 -4.5972,27.7085 -12.3649,27.7085 -3.6461,0 -6.8166,-2.43304 -7.9262,-5.90749 -0.9512,-2.8648 -1.4123,-7.96066 -1.4123,-15.28758 v -55.64863 h 23.3031 v -8.77229 h -23.3031 m 56.0888,-50.75662 c -5.0728,0 -9.1944,5.2997 -9.1944,11.84278 0,6.51343 4.1216,11.81313 9.0359,11.81313 5.2457,0 9.3673,-5.2997 9.3673,-11.81313 0,-6.54308 -4.1216,-11.84278 -9.2088,-11.84278 m 7.4507,50.75662 -29.7882,2.25885 v 8.77229 h 8.0847 c 6.0095,0.20198 6.8022,1.41943 6.8022,10.19172 v 58.28366 c -0.1586,3.06863 -0.3171,4.28608 -0.9512,5.29784 -1.1097,1.82525 -4.1216,2.66467 -10.9382,2.86665 h -1.1097 v 7.32507 h 41.0723 v -7.32507 h -1.1241 c -10.6067,-0.43361 -12.0478,-1.44722 -12.0478,-8.77229 v -78.89872 m 48.0329,0 v -40.36106 h -6.5139 c -1.5709,26.5207 -8.5604,39.95524 -21.3864,41.20048 v 7.93287 h 12.9846 v 51.9722 c 0,14.27397 0.317,19.36983 1.9023,24.05987 2.5364,8.57031 8.8917,13.26221 18.0718,13.26221 14.2816,0 23.4616,-13.87001 23.4616,-35.46904 0,-1.24524 0,-2.66282 -0.1585,-4.69004 h -6.6581 c -0.4755,18.32656 -4.5972,27.7085 -12.3649,27.7085 -3.646,0 -6.8165,-2.43304 -7.9262,-5.90749 -0.9367,-2.8648 -1.4123,-7.96066 -1.4123,-15.28758 v -55.64863 h 23.3031 v -8.77229 h -23.3031 m 105.7214,49.13335 c 0.1585,-30.57516 -13.3305,-52.17419 -32.6849,-52.17419 -20.2767,0 -35.5094,22.61264 -35.5094,53.1878 0,28.75176 14.4401,47.91961 35.8265,47.91961 15.2328,0 25.8539,-9.58392 32.3678,-28.95375 l -5.5628,-3.88027 c -6.485,15.6934 -13.1575,21.80287 -23.7786,21.80287 -8.0848,0 -13.9358,-4.25643 -18.0574,-13.43454 -2.8679,-6.10947 -4.1216,-13.2622 -3.9631,-24.46753 h 51.3619 m -51.2034,-8.7723 c 0,-14.27396 5.0584,-34.6574 18.3744,-34.6574 9.5115,0 15.8525,10.82917 15.8525,27.33234 0,5.70366 -1.4267,7.32506 -6.4851,7.32506 h -27.7418 m 117.899,-42.59026 h -5.5628 l -4.5972,7.32506 c -5.6925,-5.70365 -11.4137,-8.13669 -19.34,-8.13669 -13.9357,0 -23.1445,11.61114 -23.1445,29.56154 0,19.1382 9.6844,24.03207 22.3519,27.91234 l 8.4018,2.46084 c 12.5234,3.85061 16.9621,7.93286 16.9621,16.09735 0,9.58392 -6.4851,16.30119 -15.6939,16.30119 -13.4746,0 -22.9716,-11.00149 -26.7762,-31.38493 h -6.3554 v 38.50802 h 5.5339 l 5.5628,-8.33868 c 6.4851,6.71727 13.6331,9.98974 21.7179,9.98974 15.5354,0 25.8394,-12.45058 25.8394,-31.41459 0,-8.94833 -2.2193,-15.89722 -6.658,-20.58727 -3.8046,-4.25643 -6.9751,-5.90564 -16.6451,-8.54066 l -7.9262,-2.25885 c -8.7044,-2.43119 -8.7044,-2.43119 -11.5723,-4.48807 -3.4875,-2.02722 -5.5339,-6.31145 -5.5339,-10.79951 0,-8.33868 6.0095,-14.04234 14.7284,-14.04234 13.0134,0 19.3399,11.81313 23.1445,26.0871 h 5.5628 v -34.25159 m 87.4767,2.22921 -28.2174,2.25885 v 8.77229 h 6.514 c 6.0095,0.20198 6.8021,1.41943 6.8021,10.19172 v 58.28366 c -0.1585,3.06863 -0.3171,4.28608 -0.9511,5.29784 -1.0953,1.82525 -4.1217,2.66467 -10.9382,2.86665 h -0.6341 v 7.32507 h 39.9481 v -7.32507 h -0.6341 c -10.4626,-0.43361 -11.8893,-1.44722 -11.8893,-8.97427 v -37.72789 c 0,-18.12458 7.7677,-31.58877 18.0862,-31.58877 9.0215,0 13.6187,8.36833 13.6187,24.8715 v 45.45692 c -0.1585,2.66467 -0.317,4.0841 -1.0953,5.09586 -0.9511,1.82525 -4.1216,2.66467 -10.9526,2.86665 h -0.6341 v 7.32507 h 40.1067 v -7.32507 h -0.6341 c -10.4626,-0.43361 -11.8893,-1.44722 -11.8893,-8.77229 v -36.07683 c 0,-20.38344 7.148,-33.44181 18.2303,-33.44181 9.0503,0 13.4746,8.77415 13.4746,27.13036 v 42.99608 c -0.1441,2.86665 -0.3026,4.28608 -1.0953,5.29784 -0.9655,1.82525 -4.1216,2.66467 -10.9381,2.86665 h -0.6341 v 7.32507 h 40.1067 v -7.32507 h -0.6341 c -10.4771,-0.43361 -11.8894,-1.44722 -11.8894,-8.97427 v -46.26855 c 0,-12.65255 -0.9655,-16.93864 -5.0872,-23.85789 -4.5972,-7.5289 -11.0823,-11.61114 -18.6915,-11.61114 -10.3185,0 -17.9276,6.31145 -24.7442,20.38343 -2.6805,-12.24674 -11.2696,-20.38343 -21.8764,-20.38343 -9.67,0 -16.6306,5.90749 -22.8275,18.73423 v -15.69339 m 180.7035,29.35956 c 0,-12.82674 -1.7293,-19.37168 -6.341,-24.26371 -5.2313,-5.50167 -12.999,-8.13669 -23.1301,-8.13669 -17.9277,0 -30.9123,10.79951 -30.9123,25.68313 0,7.52705 3.6461,12.42092 9.18,12.42092 5.0728,0 8.5603,-4.28608 8.5603,-10.39555 0,-2.63502 -0.7926,-5.49982 -2.3634,-8.33868 -0.9656,-1.44722 -1.1241,-1.85304 -1.1241,-2.86665 0,-4.08225 6.341,-7.75868 13.9502,-7.75868 5.0727,0 10.6355,2.05502 13.1575,5.09586 3.012,3.27247 4.1216,8.16449 4.1216,17.3426 v 7.93472 c -16.4865,3.67643 -21.7034,5.29784 -29.4855,9.1781 -13.7917,6.54309 -20.2768,15.89538 -20.2768,28.95375 0,14.67978 8.863,23.85789 22.9861,23.85789 10.9238,0 20.7667,-5.73331 27.5833,-16.12701 2.5219,10.3937 6.485,14.47595 13.9357,14.47595 7.148,0 14.5987,-5.90564 14.5987,-11.81313 0,-1.41943 -0.6341,-2.46084 -1.5997,-2.46084 -0.6341,0 -1.2682,0.23163 -2.3634,0.83943 -2.2338,1.21559 -3.1849,1.41943 -4.4387,1.41943 -4.4531,0 -6.0384,-3.67829 -6.0384,-14.07199 v -40.96885 m -14.9013,24.86964 c 0,12.21895 -0.4756,15.0856 -3.1561,20.38344 -3.9631,7.5289 -11.0967,12.62476 -18.0862,12.62476 -7.2921,0 -12.509,-6.71727 -12.509,-15.89537 0,-8.54252 3.329,-14.67978 10.2897,-18.93622 4.9287,-2.86665 11.0967,-4.89387 23.4616,-7.55669 v 9.38008 m 62.7757,-54.2292 -28.0588,2.25885 v 8.77229 h 6.4851 c 6.0383,0.20198 6.8309,1.41943 6.8309,10.19172 v 58.28366 c -0.1585,3.06863 -0.317,4.28608 -0.9511,5.29784 -1.1097,1.82525 -4.2802,2.66467 -11.0967,2.86665 h -0.6341 v 7.32507 h 42.326 v -7.32507 h -2.8534 c -10.6356,-0.43361 -12.0479,-1.44722 -12.0479,-8.77229 v -11.00335 c 0.1586,-34.25158 9.6556,-60.33868 22.0205,-61.15031 -2.2049,3.24282 -2.839,5.29969 -2.839,9.15031 0,6.54308 3.6461,11.23313 8.7188,11.23313 5.851,0 9.6556,-5.49982 9.6556,-13.66617 0,-9.98789 -5.3754,-16.50317 -13.7772,-16.50317 -10.0015,0 -18.5474,10.19172 -23.7787,28.3163 v -25.27546 m 67.3297,-50.75662 c -5.0728,0 -9.1944,5.2997 -9.1944,11.84278 0,6.51343 4.1216,11.81313 9.0359,11.81313 5.2457,0 9.3673,-5.2997 9.3673,-11.81313 0,-6.54308 -4.1216,-11.84278 -9.2088,-11.84278 m 7.4507,50.75662 -29.7882,2.25885 v 8.77229 h 8.0847 c 6.0095,0.20198 6.8022,1.41943 6.8022,10.19172 v 58.28366 c -0.1586,3.06863 -0.3171,4.28608 -0.9512,5.29784 -1.0953,1.82525 -4.1216,2.66467 -10.9382,2.86665 h -1.1097 v 7.32507 h 41.0723 v -7.32507 h -1.1241 c -10.6067,-0.43361 -12.0478,-1.44722 -12.0478,-8.77229 v -78.89872 m 57.2129,-3.04084 c -19.4985,0 -34.5583,22.20868 -34.5583,50.75661 0,27.91049 15.2183,50.3508 34.2557,50.3508 19.0229,0 34.2412,-22.44031 34.2412,-50.55463 0,-27.94014 -15.2183,-50.55278 -33.9386,-50.55278 m 0,8.74449 c 11.1111,0 17.2792,14.88176 17.2792,41.80829 0,27.1007 -6.1681,41.78048 -17.5818,41.78048 -11.4282,0 -17.5963,-14.67978 -17.5963,-41.57665 0,-27.73815 6.0096,-42.01212 17.8989,-42.01212 m 71.0046,-5.70365 -27.4248,2.25885 v 8.77229 h 5.7213 c 6.0095,0.20198 6.8022,1.41943 6.8022,10.19172 v 58.28366 c -0.1586,3.06863 -0.3171,4.28608 -0.9512,5.29784 -1.1097,1.82525 -4.1216,2.66467 -10.9382,2.86665 h -0.6341 v 7.32507 h 40.1067 v -7.32507 h -0.6341 c -10.6355,-0.43361 -12.0478,-1.44722 -12.0478,-8.77229 v -30.16934 c 0,-9.98973 1.1096,-19.16784 2.8534,-23.85788 3.3434,-9.17811 10.4482,-15.49142 17.2792,-15.49142 4.1216,0 8.8629,2.86666 11.2552,7.15274 2.3923,4.45841 3.4875,10.59568 3.4875,20.38343 v 42.59027 c -0.1585,3.06863 -0.317,4.28608 -0.9367,5.29784 -1.1241,1.82525 -4.309,2.66467 -11.1111,2.86665 h -0.6197 v 7.32507 h 40.0923 v -7.32507 h -0.6197 c -10.477,-0.43361 -11.8893,-1.44722 -11.8893,-8.77229 v -40.96885 c 0,-14.67978 -0.5044,-18.35807 -3.3435,-25.27732 -3.9631,-9.7859 -11.8893,-15.69339 -21.4152,-15.69339 -10.2897,0 -18.0574,6.10947 -25.0324,19.57366 v -16.53282 m 96.844,0 -27.4247,2.25885 v 8.77229 h 5.7213 c 6.0095,0.20198 6.8021,1.41943 6.8021,10.19172 v 58.28366 c -0.1585,3.06863 -0.317,4.28608 -0.9511,5.29784 -1.0953,1.82525 -4.1217,2.66467 -10.9382,2.86665 h -0.6341 v 7.32507 h 40.1067 v -7.32507 h -0.6341 c -10.6212,-0.43361 -12.0479,-1.44722 -12.0479,-8.77229 v -30.16934 c 0,-9.98973 1.1097,-19.16784 2.8679,-23.85788 3.329,-9.17811 10.4482,-15.49142 17.2647,-15.49142 4.1217,0 8.8774,2.86666 11.2553,7.15274 2.3923,4.45841 3.5019,10.59568 3.5019,20.38343 v 42.59027 c -0.1585,3.06863 -0.317,4.28608 -0.9511,5.29784 -1.1241,1.82525 -4.2946,2.66467 -11.0967,2.86665 h -0.6341 v 7.32507 h 40.1067 v -7.32507 h -0.6341 c -10.4771,-0.43361 -11.8894,-1.44722 -11.8894,-8.77229 v -40.96885 c 0,-14.67978 -0.49,-18.35807 -3.329,-25.27732 -3.9631,-9.7859 -11.8893,-15.69339 -21.4152,-15.69339 -10.2897,0 -18.0574,6.10947 -25.0469,19.57366 v -16.53282 m 138.8675,49.13335 c 0.1585,-30.57516 -13.3305,-52.17419 -32.6705,-52.17419 -20.2911,0 -35.5095,22.61264 -35.5095,53.1878 0,28.75176 14.4402,47.91961 35.8266,47.91961 15.2183,0 25.8539,-9.58392 32.3534,-28.95375 l -5.5628,-3.88027 c -6.4851,15.6934 -13.1431,21.80287 -23.7787,21.80287 -8.0847,0 -13.9357,-4.25643 -18.0573,-13.43454 -2.8535,-6.10947 -4.1217,-13.2622 -3.9632,-24.46753 h 51.362 m -51.2034,-8.7723 c 0,-14.27396 5.0728,-34.6574 18.3744,-34.6574 9.5259,0 15.8525,10.82917 15.8525,27.33234 0,5.70366 -1.4124,7.32506 -6.4851,7.32506 h -27.7418 m 84.3062,-40.36105 v -40.36106 h -6.4995 c -1.5853,26.5207 -8.5603,39.95524 -21.4008,41.20048 v 7.93287 h 12.999 v 51.9722 c 0,14.27397 0.317,19.36983 1.8879,24.05987 2.5508,8.57031 8.8917,13.26221 18.0862,13.26221 14.2672,0 23.4616,-13.87001 23.4616,-35.46904 0,-1.24524 0,-2.66282 -0.1585,-4.69004 h -6.6725 c -0.4611,18.32656 -4.5828,27.7085 -12.3505,27.7085 -3.6604,0 -6.8309,-2.43304 -7.9262,-5.90749 -0.9511,-2.8648 -1.4267,-7.96066 -1.4267,-15.28758 v -55.64863 h 23.3031 v -8.77229 h -23.3031 m 61.6516,0 v -40.36106 h -6.4995 c -1.5852,26.5207 -8.5603,39.95524 -21.4008,41.20048 v 7.93287 h 12.999 v 51.9722 c 0,14.27397 0.3171,19.36983 1.8879,24.05987 2.5508,8.57031 8.8918,13.26221 18.0862,13.26221 14.2672,0 23.4616,-13.87001 23.4616,-35.46904 0,-1.24524 0,-2.66282 -0.1585,-4.69004 h -6.6724 c -0.4612,18.32656 -4.5828,27.7085 -12.3505,27.7085 -3.6461,0 -6.831,-2.43304 -7.9263,-5.90749 -0.9511,-2.8648 -1.4267,-7.96066 -1.4267,-15.28758 v -55.64863 h 23.3031 v -8.77229 h -23.3031 m 105.7214,49.13335 c 0.1586,-30.57516 -13.3304,-52.17419 -32.6704,-52.17419 -20.2912,0 -35.5095,22.61264 -35.5095,53.1878 0,28.75176 14.4257,47.91961 35.8265,47.91961 15.2184,0 25.8539,-9.58392 32.3534,-28.95375 l -5.5627,-3.88027 c -6.4851,15.6934 -13.1432,21.80287 -23.7787,21.80287 -8.0848,0 -13.9358,-4.25643 -18.0574,-13.43454 -2.8534,-6.10947 -4.1216,-13.2622 -3.9631,-24.46753 h 51.3619 m -51.2034,-8.7723 c 0,-14.27396 5.0728,-34.6574 18.3745,-34.6574 9.5258,0 15.8524,10.82917 15.8524,27.33234 0,5.70366 -1.4123,7.32506 -6.4851,7.32506 h -27.7418 m 117.899,-42.59026 h -5.5627 l -4.5828,7.32506 c -5.7069,-5.70365 -11.4282,-8.13669 -19.3544,-8.13669 -13.9358,0 -23.1446,11.61114 -23.1446,29.56154 0,19.1382 9.6844,24.03207 22.3663,27.91234 l 8.4018,2.46084 c 12.5091,3.85061 16.9477,7.93286 16.9477,16.09735 0,9.58392 -6.485,16.30119 -15.6939,16.30119 -13.4601,0 -22.9716,-11.00149 -26.7762,-31.38493 h -6.341 v 38.50802 h 5.534 l 5.5627,-8.33868 c 6.4851,6.71727 13.6187,9.98974 21.7035,9.98974 15.5354,0 25.8539,-12.45058 25.8539,-31.41459 0,-8.94833 -2.2338,-15.89722 -6.6725,-20.58727 -3.8045,-4.25643 -6.975,-5.90564 -16.6306,-8.54066 l -7.9262,-2.25885 c -8.7189,-2.43119 -8.7189,-2.43119 -11.5723,-4.48807 -3.502,-2.02722 -5.5484,-6.31145 -5.5484,-10.79951 0,-8.33868 6.0095,-14.04234 14.7284,-14.04234 13.0134,0 19.34,11.81313 23.1446,26.0871 h 5.5627 v -34.25159 m 32.7714,74.61265 c -5.5484,0 -9.9727,5.70365 -9.9727,12.62476 0,7.12308 4.4243,12.85453 9.8141,12.85453 5.5628,0 10.0015,-5.73145 10.0015,-12.85453 0,-6.92111 -4.4387,-12.62476 -9.8429,-12.62476"
     id="path26"
     style="stroke-width:1.63416" />
  <path
     class="MeasureNumber"
     d="m 243.56072,2112.4596 h -3.13014 l -26.84108,35.7266 v 3.0946 h 16.23579 l -0.92377,4.5214 c -1.14858,5.6332 -1.14858,5.6332 -6.16948,5.6332 h -1.03617 l -0.33723,3.4837 H 239.282 l 0.29255,-3.4837 h -1.03618 c -3.80458,0 -4.61594,-0.3706 -4.61594,-1.9827 0,-0.6115 0.11241,-1.3342 0.58654,-3.6505 l 0.967,-4.5214 h 6.57588 l 0.85604,-4.0026 h -6.62056 l 7.27339,-34.8186 m -12.85778,34.8186 h -12.92551 l 17.81239,-23.5707 -4.88688,23.5707"
     id="path28"
     style="stroke-width:1.63416" />
  <polyline
     class="BarLine"
     fill="none"
     stroke="#000000"
     stroke-width="4.46"
     stroke-linejoin="bevel"
     points="2739.55,1314.83 2739.55,1416.76"
     id="polyline30"
     transform="matrix(1.0646833,0,0,1.8530398,-13.751524,-182.14106)" />
  <polyline
     class="BarLine"
     fill="none"
     stroke="#000000"
     stroke-width="13.64"
     stroke-linejoin="bevel"
     points="2757.78,1314.83 2757.78,1416.76"
     id="polyline32"
     transform="matrix(1.0646833,0,0,1.8530398,-13.751524,-182.14106)" />
  <polyline
     class="BarLine"
     fill="none"
     stroke="#000000"
     stroke-width="4.46"
     stroke-linejoin="bevel"
     points="2076.16,1314.83 2076.16,1416.76"
     id="polyline34"
     transform="matrix(1.4411319,0,0,1.8530398,-93.78375,-182.14106)" />
  <polyline
     class="BarLine"
     fill="none"
     stroke="#000000"
     stroke-width="4.46"
     stroke-linejoin="bevel"
     points="2762.37,632.834 2762.37,734.762"
     id="polyline36"
     transform="matrix(1.4411319,0,0,1.8530398,-93.78375,-182.14106)" />
  <polyline
     class="BarLine"
     fill="none"
     stroke="#000000"
     stroke-width="4.46"
     stroke-linejoin="bevel"
     points="2073.54,632.834 2073.54,734.762"
     id="polyline38"
     transform="matrix(1.4411319,0,0,1.8530398,-93.78375,-182.14106)" />
  <polyline
     class="BarLine"
     fill="none"
     stroke="#000000"
     stroke-width="4.46"
     stroke-linejoin="bevel"
     points="1233.92,632.834 1233.92,734.762"
     id="polyline40"
     transform="matrix(1.4411319,0,0,1.8530398,-93.78375,-182.14106)" />
  <path
     class="Accidental"
     d="m 3657.4291,1024.4751 c -0.8488,-7.1518 -4.2888,-13.959 -11.5708,-13.959 -7.148,0 -11.3028,5.6869 -12.0176,6.8072 l 0.5808,-59.02408 c 0,-1.46474 -0.8488,-2.55618 -2.0104,-2.55618 h -1.6977 c -1.1615,0 -2.0103,1.09144 -2.0103,2.55618 l 0.7148,110.49408 c 0,1.4648 0.8488,2.5564 2.0103,2.5564 0.2681,0 0.8489,-0.1726 1.1393,-0.3447 0.5584,-0.3735 9.8508,-6.2615 17.5796,-17.4631 5.428,-7.9274 7.5724,-16.9174 7.5724,-24.4713 0,-1.6372 -0.134,-3.102 -0.2904,-4.5955 m -9.8508,7.1805 c 0,2.7573 -0.5808,11.2016 -4.1548,18.2098 -2.4348,4.7679 -7.282,9.7368 -10.0072,12.4941 l 0.4244,-35.8452 c 0.2904,-1.6658 2.4348,-6.9795 8.1532,-6.9795 5.16,0 5.5844,6.2328 5.5844,10.1102 0,0.9192 0,1.4649 0,2.0106"
     id="path42"
     style="stroke-width:1.62109" />
  <polyline
     class="Stem"
     fill="none"
     stroke="#000000"
     stroke-width="2.48"
     stroke-linejoin="bevel"
     points="1800.73,717.03 1800.73,634.198"
     id="polyline44"
     transform="matrix(1.4411319,0,0,1.8530398,-93.78375,-182.14106)" />
  <polyline
     class="Stem"
     fill="none"
     stroke="#000000"
     stroke-width="2.48"
     stroke-linejoin="bevel"
     points="2610.6,663.165 2610.6,745.798"
     id="polyline46"
     transform="matrix(1.4411319,0,0,1.8530398,-93.78375,-182.14106)" />
  <polyline
     class="Stem"
     fill="none"
     stroke="#000000"
     stroke-width="2.48"
     stroke-linejoin="bevel"
     points="2459.82,687.965 2459.82,758.198"
     id="polyline48"
     transform="matrix(1.4411319,0,0,1.8530398,-93.78375,-182.14106)" />
  <polyline
     class="Stem"
     fill="none"
     stroke="#000000"
     stroke-width="2.48"
     stroke-linejoin="bevel"
     points="2338.79,704.63 2338.79,621.798"
     id="polyline50"
     transform="matrix(1.4411319,0,0,1.8530398,-93.78375,-182.14106)" />
  <polyline
     class="Stem"
     fill="none"
     stroke="#000000"
     stroke-width="2.48"
     stroke-linejoin="bevel"
     points="2208.53,687.965 2208.53,751.998"
     id="polyline52"
     transform="matrix(1.4411319,0,0,1.8530398,-93.78375,-182.14106)" />
  <polyline
     class="Stem"
     fill="none"
     stroke="#000000"
     stroke-width="2.48"
     stroke-linejoin="bevel"
     points="579.561,687.965 579.561,751.998"
     id="polyline54"
     transform="matrix(1.4411319,0,0,1.8530398,-93.78375,-182.14106)" />
  <polyline
     class="Stem"
     fill="none"
     stroke="#000000"
     stroke-width="2.48"
     stroke-linejoin="bevel"
     points="2108.01,687.965 2108.01,751.998"
     id="polyline56"
     transform="matrix(1.4411319,0,0,1.8530398,-93.78375,-182.14106)" />
  <polyline
     class="Stem"
     fill="none"
     stroke="#000000"
     stroke-width="2.48"
     stroke-linejoin="bevel"
     points="680.079,687.965 680.079,751.998"
     id="polyline58"
     transform="matrix(1.4411319,0,0,1.8530398,-93.78375,-182.14106)" />
  <polyline
     class="Stem"
     fill="none"
     stroke="#000000"
     stroke-width="2.48"
     stroke-linejoin="bevel"
     points="400.706,1357.56 400.706,1434.02"
     id="polyline60"
     transform="matrix(1.4411319,0,0,1.8530398,-93.78375,-182.14106)" />
  <polyline
     class="Stem"
     fill="none"
     stroke="#000000"
     stroke-width="2.48"
     stroke-linejoin="bevel"
     points="623.969,1369.96 623.969,1438.14"
     id="polyline62"
     transform="matrix(1.4411319,0,0,1.8530398,-93.78375,-182.14106)" />
  <polyline
     class="Stem"
     fill="none"
     stroke="#000000"
     stroke-width="2.48"
     stroke-linejoin="bevel"
     points="2001.77,741.83 2001.77,634.198"
     id="polyline64"
     transform="matrix(1.4411319,0,0,1.8530398,-93.78375,-182.14106)" />
  <polyline
     class="Stem"
     fill="none"
     stroke="#000000"
     stroke-width="2.48"
     stroke-linejoin="bevel"
     points="1901.25,704.63 1901.25,634.198"
     id="polyline66"
     transform="matrix(1.4411319,0,0,1.8530398,-93.78375,-182.14106)" />
  <polyline
     class="Stem"
     fill="none"
     stroke="#000000"
     stroke-width="2.48"
     stroke-linejoin="bevel"
     points="847.231,1357.56 847.231,1442.26"
     id="polyline68"
     transform="matrix(1.4411319,0,0,1.8530398,-93.78375,-182.14106)" />
  <polyline
     class="Stem"
     fill="none"
     stroke="#000000"
     stroke-width="2.48"
     stroke-linejoin="bevel"
     points="1070.49,1382.36 1070.49,1446.38"
     id="polyline70"
     transform="matrix(1.4411319,0,0,1.8530398,-93.78375,-182.14106)" />
  <polyline
     class="Stem"
     fill="none"
     stroke="#000000"
     stroke-width="2.48"
     stroke-linejoin="bevel"
     points="1368.91,687.965 1368.91,756.149"
     id="polyline72"
     transform="matrix(1.4411319,0,0,1.8530398,-93.78375,-182.14106)" />
  <polyline
     class="Stem"
     fill="none"
     stroke="#000000"
     stroke-width="2.48"
     stroke-linejoin="bevel"
     points="931.376,687.965 931.376,758.198"
     id="polyline74"
     transform="matrix(1.4411319,0,0,1.8530398,-93.78375,-182.14106)" />
  <polyline
     class="Stem"
     fill="none"
     stroke="#000000"
     stroke-width="2.48"
     stroke-linejoin="bevel"
     points="1082.15,663.165 1082.15,745.798"
     id="polyline76"
     transform="matrix(1.4411319,0,0,1.8530398,-93.78375,-182.14106)" />
  <polyline
     class="Stem"
     fill="none"
     stroke="#000000"
     stroke-width="2.48"
     stroke-linejoin="bevel"
     points="1770.02,1386.63 1770.02,1303.8"
     id="polyline78"
     transform="matrix(1.4411319,0,0,1.8530398,-93.78375,-182.14106)" />
  <polyline
     class="Stem"
     fill="none"
     stroke="#000000"
     stroke-width="2.48"
     stroke-linejoin="bevel"
     points="810.342,704.63 810.342,621.798"
     id="polyline80"
     transform="matrix(1.4411319,0,0,1.8530398,-93.78375,-182.14106)" />
  <polyline
     class="Stem"
     fill="none"
     stroke="#000000"
     stroke-width="2.48"
     stroke-linejoin="bevel"
     points="1268.4,675.565 1268.4,752.049"
     id="polyline82"
     transform="matrix(1.4411319,0,0,1.8530398,-93.78375,-182.14106)" />
  <polyline
     class="Stem"
     fill="none"
     stroke="#000000"
     stroke-width="2.48"
     stroke-linejoin="bevel"
     points="1546.76,1399.03 1546.76,1322.36"
     id="polyline84"
     transform="matrix(1.4411319,0,0,1.8530398,-93.78375,-182.14106)" />
  <polyline
     class="Stem"
     fill="none"
     stroke="#000000"
     stroke-width="2.48"
     stroke-linejoin="bevel"
     points="1700.21,704.63 1700.21,634.198"
     id="polyline86"
     transform="matrix(1.4411319,0,0,1.8530398,-93.78375,-182.14106)" />
  <polyline
     class="Stem"
     fill="none"
     stroke="#000000"
     stroke-width="2.48"
     stroke-linejoin="bevel"
     points="1469.43,675.565 1469.43,760.248"
     id="polyline88"
     transform="matrix(1.4411319,0,0,1.8530398,-93.78375,-182.14106)" />
  <polyline
     class="Stem"
     fill="none"
     stroke="#000000"
     stroke-width="2.48"
     stroke-linejoin="bevel"
     points="1323.5,1386.63 1323.5,1316.23"
     id="polyline90"
     transform="matrix(1.4411319,0,0,1.8530398,-93.78375,-182.14106)" />
  <polyline
     class="Stem"
     fill="none"
     stroke="#000000"
     stroke-width="2.48"
     stroke-linejoin="bevel"
     points="1569.95,700.365 1569.95,764.348"
     id="polyline92"
     transform="matrix(1.4411319,0,0,1.8530398,-93.78375,-182.14106)" />
  <path
     class="Note"
     d="m 1768.908,2402.4223 c 0,7.8986 4.4228,16.7163 16.016,16.7163 14.8545,0 30.4461,-15.6248 30.4461,-31.7954 0,-10.8569 -7.148,-16.9173 -16.016,-16.9173 -13.8716,0 -30.4461,15.0791 -30.4461,31.9964"
     id="path94"
     style="stroke-width:1.62109" />
  <path
     class="Note"
     d="m 481.89943,2333.4892 c 0,7.8986 4.42283,16.7163 16.01599,16.7163 14.85457,0 30.4461,-15.6248 30.4461,-31.7954 0,-10.8569 -7.14802,-16.9173 -16.01599,-16.9173 -13.87157,0 -30.4461,15.0791 -30.4461,31.9964"
     id="path96"
     style="stroke-width:1.62109" />
  <path
     class="Note"
     d="m 803.65085,2356.4669 c 0,7.8986 4.42283,16.7163 16.01602,16.7163 14.85454,0 30.44607,-15.6248 30.44607,-31.7954 0,-10.8569 -7.14801,-16.9173 -16.01602,-16.9173 -13.87154,0 -30.44607,15.0791 -30.44607,31.9964"
     id="path98"
     style="stroke-width:1.62109" />
  <path
     class="Note"
     d="m 2090.6551,2425.4 c 0,7.8986 4.4228,16.7163 16.016,16.7163 14.8545,0 30.4461,-15.6248 30.4461,-31.7954 0,-10.857 -7.148,-16.9173 -16.016,-16.9173 -13.8716,0 -30.4461,15.0791 -30.4461,31.9964"
     id="path100"
     style="stroke-width:1.62109" />
  <path
     class="Note"
     d="m 739.65307,1092.6901 c 0,7.8986 4.42283,16.7163 16.01599,16.7163 14.85456,0 30.4461,-15.6249 30.4461,-31.7954 0,-10.857 -7.14802,-16.9173 -16.01599,-16.9173 -13.87157,0 -30.4461,15.0791 -30.4461,31.9964"
     id="path102"
     style="stroke-width:1.62109" />
  <path
     class="Note"
     d="m 1246.6649,1092.6901 c 0,7.8986 4.4228,16.7163 16.016,16.7163 14.8545,0 30.4461,-15.6249 30.4461,-31.7954 0,-10.857 -7.1481,-16.9173 -16.0161,-16.9173 -13.8715,0 -30.446,15.0791 -30.446,31.9964"
     id="path104"
     style="stroke-width:1.62109" />
  <path
     class="Note"
     d="m 2412.4022,2402.4223 c 0,7.8986 4.4228,16.7163 16.016,16.7163 14.8545,0 30.4461,-15.6248 30.4461,-31.7954 0,-10.8569 -7.148,-16.9173 -16.016,-16.9173 -13.8716,0 -30.4461,15.0791 -30.4461,31.9964"
     id="path106"
     style="stroke-width:1.62109" />
  <path
     class="Note"
     d="m 3666.6481,1046.7347 c 0,7.8986 4.4228,16.7163 16.016,16.7163 14.8545,0 30.4461,-15.6249 30.4461,-31.7954 0,-10.857 -7.1481,-16.9173 -16.0161,-16.9173 -13.8716,0 -30.446,15.0791 -30.446,31.9964"
     id="path108"
     style="stroke-width:1.62109" />
  <path
     class="Note"
     d="m 1125.4008,2333.4892 c 0,7.8986 4.4229,16.7163 16.016,16.7163 14.8546,0 30.4461,-15.6248 30.4461,-31.7954 0,-10.8569 -7.148,-16.9173 -16.016,-16.9173 -13.8715,0 -30.4461,15.0791 -30.4461,31.9964"
     id="path110"
     style="stroke-width:1.62109" />
  <path
     class="Note"
     d="m 1447.1465,2379.4446 c 0,7.8986 4.4228,16.7163 16.016,16.7163 14.8545,0 30.4461,-15.6248 30.4461,-31.7954 0,-10.8569 -7.148,-16.9173 -16.016,-16.9173 -13.8717,0 -30.4461,15.0791 -30.4461,31.9964"
     id="path112"
     style="stroke-width:1.62109" />
  <path
     class="Note"
     d="m 3232.0603,1138.6455 c 0,7.8986 4.4229,16.7163 16.0161,16.7163 14.8544,0 30.446,-15.6249 30.446,-31.7954 0,-10.857 -7.148,-16.9174 -16.016,-16.9174 -13.8716,0 -30.4461,15.0792 -30.4461,31.9965"
     id="path114"
     style="stroke-width:1.62109" />
  <path
     class="Note"
     d="m 3087.2122,1092.6901 c 0,7.8986 4.4228,16.7163 16.016,16.7163 14.8545,0 30.4461,-15.6249 30.4461,-31.7954 0,-10.857 -7.148,-16.9173 -16.016,-16.9173 -13.8717,0 -30.4461,15.0791 -30.4461,31.9964"
     id="path116"
     style="stroke-width:1.62109" />
  <path
     class="Note"
     d="m 3449.3542,1092.6901 c 0,7.8986 4.4228,16.7163 16.016,16.7163 14.8545,0 30.4461,-15.6249 30.4461,-31.7954 0,-10.857 -7.148,-16.9173 -16.016,-16.9173 -13.8716,0 -30.4461,15.0791 -30.4461,31.9964"
     id="path118"
     style="stroke-width:1.62109" />
  <path
     class="Note"
     d="m 1463.9501,1046.7347 c 0,7.8986 4.4228,16.7163 16.016,16.7163 14.8545,0 30.4461,-15.6249 30.4461,-31.7954 0,-10.857 -7.148,-16.9173 -16.016,-16.9173 -13.8717,0 -30.4461,15.0791 -30.4461,31.9964"
     id="path120"
     style="stroke-width:1.62109" />
  <path
     class="Note"
     d="m 2942.3496,1092.6901 c 0,7.8986 4.4228,16.7163 16.016,16.7163 14.8545,0 30.4461,-15.6249 30.4461,-31.7954 0,-10.857 -7.148,-16.9173 -16.016,-16.9173 -13.8716,0 -30.4461,15.0791 -30.4461,31.9964"
     id="path122"
     style="stroke-width:1.62109" />
  <path
     class="Note"
     d="m 1029.3739,1138.6455 c 0,7.8986 4.4228,16.7163 16.016,16.7163 14.8545,0 30.4461,-15.6249 30.4461,-31.7954 0,-10.857 -7.148,-16.9174 -16.016,-16.9174 -13.8716,0 -30.4461,15.0792 -30.4461,31.9965"
     id="path124"
     style="stroke-width:1.62109" />
  <path
     class="Note"
     d="m 1732.3609,1069.7124 c 0,7.8986 4.4228,16.7163 16.016,16.7163 14.8545,0 30.4461,-15.6249 30.4461,-31.7954 0,-10.857 -7.148,-16.9173 -16.016,-16.9173 -13.8716,0 -30.4461,15.0791 -30.4461,31.9964"
     id="path126"
     style="stroke-width:1.62109" />
  <path
     class="Note"
     d="m 1877.2091,1092.6901 c 0,7.8986 4.4228,16.7163 16.016,16.7163 14.8544,0 30.446,-15.6249 30.446,-31.7954 0,-10.857 -7.148,-16.9173 -16.016,-16.9173 -13.8716,0 -30.446,15.0791 -30.446,31.9964"
     id="path128"
     style="stroke-width:1.62109" />
  <path
     class="Note"
     d="m 884.51276,1092.6901 c 0,7.8986 4.42283,16.7163 16.01602,16.7163 14.85454,0 30.44607,-15.6249 30.44607,-31.7954 0,-10.857 -7.14802,-16.9173 -16.01602,-16.9173 -13.87154,0 -30.44607,15.0791 -30.44607,31.9964"
     id="path130"
     style="stroke-width:1.62109" />
  <path
     class="Note"
     d="m 2022.0716,1069.7124 c 0,7.8986 4.4229,16.7163 16.016,16.7163 14.8545,0 30.4461,-15.6249 30.4461,-31.7954 0,-10.857 -7.148,-16.9173 -16.016,-16.9173 -13.8716,0 -30.4461,15.0791 -30.4461,31.9964"
     id="path132"
     style="stroke-width:1.62109" />
  <path
     class="Note"
     d="m 2746.3701,1207.5786 c 0,7.8985 4.4228,16.7162 16.016,16.7162 14.8545,0 30.4461,-15.6248 30.4461,-31.7953 0,-10.857 -7.148,-16.9174 -16.016,-16.9174 -13.8717,0 -30.4461,15.0791 -30.4461,31.9965"
     id="path134"
     style="stroke-width:1.62109" />
  <path
     class="Note"
     d="m 2601.5219,1138.6455 c 0,7.8986 4.4229,16.7163 16.016,16.7163 14.8545,0 30.4461,-15.6249 30.4461,-31.7954 0,-10.857 -7.148,-16.9174 -16.016,-16.9174 -13.8716,0 -30.4461,15.0792 -30.4461,31.9965"
     id="path136"
     style="stroke-width:1.62109" />
  <path
     class="Note"
     d="m 2456.6594,1161.6232 c 0,7.8986 4.4228,16.7162 16.016,16.7162 14.8544,0 30.446,-15.6248 30.446,-31.7953 0,-10.857 -7.148,-16.9174 -16.016,-16.9174 -13.8716,0 -30.446,15.0791 -30.446,31.9965"
     id="path138"
     style="stroke-width:1.62109" />
  <path
     class="Note"
     d="m 2166.9342,1115.6678 c 0,7.8986 4.4228,16.7163 16.016,16.7163 14.8545,0 30.4461,-15.6249 30.4461,-31.7954 0,-10.857 -7.148,-16.9173 -16.016,-16.9173 -13.8716,0 -30.4461,15.0791 -30.4461,31.9964"
     id="path140"
     style="stroke-width:1.62109" />
  <path
     class="Note"
     d="m 2311.7968,1138.6455 c 0,7.8986 4.4228,16.7163 16.016,16.7163 14.8545,0 30.4461,-15.6249 30.4461,-31.7954 0,-10.857 -7.148,-16.9174 -16.016,-16.9174 -13.8717,0 -30.4461,15.0792 -30.4461,31.9965"
     id="path142"
     style="stroke-width:1.62109" />
  <path
     class="Clef"
     d="m 478.57116,1262.725 c 0,-6.8071 -4.8472,-9.7367 -9.56047,-9.7367 -6.00875,0 -11.88357,4.7678 -11.88357,13.0398 0,3.5042 1.00516,6.0891 3.01561,8.6453 -3.73041,1.8382 -7.4385,5.5147 -7.4385,11.2304 0,6.0603 4.28881,10.1102 10.58805,10.1102 7.70643,0 13.13448,-5.5147 13.13448,-13.442 0,-4.2221 -1.4296,-7.6975 -3.99845,-10.1102 4.15485,-2.3839 6.14285,-5.3136 6.14285,-9.7368 m -14.29603,29.4115 c -3.12725,0 -5.27166,-2.5563 -5.27166,-6.4338 0,-3.6764 1.27322,-6.6061 3.70798,-8.4443 0.58083,0.3734 0.7148,0.3734 1.13924,0.7181 1.71996,1.1201 1.71996,1.1201 2.01045,1.4935 2.7028,2.0107 3.86436,3.8489 3.86436,6.4338 0,3.4754 -2.3008,6.2327 -5.45037,6.2327 m 5.45037,-22.0586 c -2.14441,-1.4647 -2.72524,-1.8382 -3.14956,-2.2116 l -0.29048,-0.1722 c -2.14441,-1.6659 -2.85921,-2.9584 -2.85921,-5.1413 0,-3.3318 2.01044,-5.7157 4.86964,-5.7157 2.70282,0 4.42278,2.2116 4.42278,6.0604 0,2.9584 -0.84877,4.9689 -2.99317,7.1805 m 39.87248,-139.5322 c 0,-27.7455 -15.30119,-46.5011 -36.16451,-46.5011 -1.4296,-11.0293 -2.72512,-21.8863 -3.99832,-32.1687 15.01083,-20.4215 25.57644,-43.5715 25.57644,-72.60954 0,-16.745 -3.99844,-30.33056 -6.43321,-36.96472 -3.4176,-9.36384 -7.57245,-15.79759 -10.00722,-15.79759 -0.98285,0 -5.562,2.21138 -10.1413,9.36387 -9.29242,13.98699 -11.86113,37.30935 -11.86113,52.76175 0,9.93795 0.7148,18.92793 3.14955,39.72283 -0.1564,0 -7.59477,9.7368 -10.58806,13.0398 -13.02268,15.4525 -31.02682,37.8557 -31.02682,74.4477 0,34.5528 23.29809,61.5802 49.90215,61.5802 4.1324,0 7.99677,-0.5457 11.43682,-1.2924 2.56872,17.4917 4.28881,30.5316 4.28881,40.2684 0,19.129 -7.72886,29.2392 -22.15885,29.2392 -3.44005,0 -6.43321,-0.9191 -6.7237,-1.1203 -0.13402,0 -0.42431,-0.1723 -0.42431,-0.3447 0,-0.3733 0.29035,-0.5744 0.7148,-0.7467 6.72356,-1.2925 13.42482,-8.8176 13.42482,-20.3927 0,-9.9379 -5.85249,-20.4215 -16.57451,-20.4215 -10.00722,0 -16.30635,10.4836 -16.30635,22.6043 0,12.1496 7.14801,28.1477 26.44765,28.1477 18.45075,0 27.45281,-13.4419 27.45281,-36.9653 0,-7.1519 -0.84875,-15.4238 -2.27835,-25.9073 -0.42446,-3.6764 -1.13926,-9.3922 -2.14441,-16.3717 14.00554,-6.0604 24.4372,-24.6435 24.4372,-43.5715 M 465.57065,979.81218 c 1.42961,-7.35287 7.86282,-26.65413 15.30132,-26.65413 2.14441,0 5.71841,8.8176 5.71841,21.68511 0,18.92797 -11.14647,33.28904 -21.01973,45.95534 -0.84876,-7.3528 -1.56357,-14.7057 -1.56357,-22.23078 0,-6.97948 0.55841,-13.06856 1.56357,-18.75554 m 4.28881,190.08292 c -20.43875,0 -37.88444,-18.3821 -37.88444,-46.1564 0,-22.4033 12.28568,-42.4513 24.88405,-56.6113 2.41245,-2.585 4.71326,-5.1412 6.85767,-7.8986 1.2732,9.9092 2.27836,18.3822 3.28352,26.1084 -13.02269,4.7679 -21.86836,22.6043 -21.86836,39.694 0,13.0686 7.86282,30.7039 19.29964,30.7039 1.13911,0 2.43475,-0.7466 2.43475,-2.5849 0,-1.4649 -1.29564,-2.5563 -3.14955,-4.0211 -5.58446,-4.2509 -8.73402,-9.1911 -8.73402,-18.0375 0,-11.2017 6.58961,-20.2205 14.87674,-22.7767 l 8.28726,60.2877 c -2.85921,0.7469 -5.42805,1.2925 -8.28726,1.2925 m 14.29603,-3.5041 c -2.99317,-21.8575 -6.85752,-51.0966 -7.86281,-59.1963 14.43011,0 20.59527,12.8676 21.86848,21.714 0.15639,1.4648 0.42444,3.4754 0.42444,5.687 0,13.2409 -4.28881,26.4818 -14.43011,31.7953"
     id="path144"
     style="stroke-width:1.62109" />
  <path
     class="Clef"
     d="m 299.87081,2526.5019 c 0,-6.8072 -4.8472,-9.7368 -9.56047,-9.7368 -6.00875,0 -11.88357,4.7678 -11.88357,13.0398 0,3.5041 1.00516,6.0891 3.01561,8.6454 -3.73041,1.8382 -7.4385,5.5146 -7.4385,11.2303 0,6.0604 4.28881,10.1102 10.58805,10.1102 7.70643,0 13.13448,-5.5146 13.13448,-13.4419 0,-4.2222 -1.4296,-7.6976 -3.99845,-10.1102 4.15485,-2.384 6.14285,-5.3136 6.14285,-9.7368 m -14.29603,29.4114 c -3.12725,0 -5.27166,-2.5563 -5.27166,-6.4337 0,-3.6765 1.27322,-6.6061 3.70798,-8.4443 0.58083,0.3733 0.7148,0.3733 1.13924,0.718 1.71996,1.1202 1.71996,1.1202 2.01045,1.4936 2.7028,2.0105 3.86436,3.8487 3.86436,6.4337 0,3.4754 -2.3008,6.2327 -5.45037,6.2327 m 5.45037,-22.0586 c -2.14441,-1.4648 -2.72524,-1.8382 -3.14956,-2.2116 l -0.29048,-0.1723 c -2.14441,-1.6659 -2.85921,-2.9584 -2.85921,-5.1413 0,-3.3317 2.01044,-5.7157 4.86964,-5.7157 2.70282,0 4.42278,2.2116 4.42278,6.0604 0,2.9584 -0.84877,4.9689 -2.99317,7.1805 m 39.87248,-139.532 c 0,-27.7456 -15.30119,-46.5011 -36.16451,-46.5011 -1.4296,-11.0293 -2.72512,-21.8863 -3.99832,-32.1688 15.01083,-20.4214 25.57644,-43.5714 25.57644,-72.6095 0,-16.745 -3.99844,-30.3306 -6.43321,-36.9646 -3.4176,-9.364 -7.57245,-15.7977 -10.00722,-15.7977 -0.98285,0 -5.562,2.2114 -10.1413,9.3639 -9.29242,13.987 -11.86114,37.3093 -11.86114,52.7618 0,9.9379 0.71481,18.9279 3.14956,39.7227 -0.1564,0 -7.59477,9.7368 -10.58806,13.0398 -13.02269,15.4525 -31.02682,37.8558 -31.02682,74.4478 0,34.5527 23.29809,61.5802 49.90215,61.5802 4.1324,0 7.99677,-0.5457 11.43682,-1.2925 2.56872,17.4918 4.28881,30.5316 4.28881,40.2684 0,19.1289 -7.72886,29.2391 -22.15885,29.2391 -3.44005,0 -6.43321,-0.9191 -6.7237,-1.1202 -0.13402,0 -0.42431,-0.1723 -0.42431,-0.3446 0,-0.3734 0.29035,-0.5745 0.7148,-0.7468 6.72356,-1.2925 13.42482,-8.8177 13.42482,-20.3927 0,-9.9378 -5.85249,-20.4214 -16.57451,-20.4214 -10.00722,0 -16.30635,10.4836 -16.30635,22.6043 0,12.1494 7.14801,28.1477 26.44765,28.1477 18.45075,0 27.45281,-13.442 27.45281,-36.9654 0,-7.1518 -0.84875,-15.4238 -2.27835,-25.9074 -0.42446,-3.6764 -1.13926,-9.3921 -2.14441,-16.3716 14.00554,-6.0603 24.4372,-24.6435 24.4372,-43.5714 M 286.8703,2243.589 c 1.42961,-7.3528 7.86282,-26.6541 15.30132,-26.6541 2.14441,0 5.71841,8.8177 5.71841,21.6852 0,18.9279 -11.14647,33.2889 -21.01973,45.9554 -0.84876,-7.3529 -1.56357,-14.7057 -1.56357,-22.2309 0,-6.9795 0.55841,-13.0686 1.56357,-18.7556 m 4.28881,190.083 c -20.43875,0 -37.88444,-18.3822 -37.88444,-46.1565 0,-22.4032 12.28568,-42.4512 24.88405,-56.6112 2.41245,-2.585 4.71326,-5.1413 6.85767,-7.8986 1.2732,9.9091 2.27836,18.3821 3.28352,26.1084 -13.02269,4.7678 -21.86836,22.6043 -21.86836,39.6939 0,13.0686 7.86282,30.704 19.29964,30.704 1.13911,0 2.43475,-0.7468 2.43475,-2.585 0,-1.4648 -1.29564,-2.5563 -3.14955,-4.0211 -5.58446,-4.2509 -8.73402,-9.1911 -8.73402,-18.0375 0,-11.2016 6.58961,-20.2204 14.87674,-22.7766 l 8.28726,60.2877 c -2.85921,0.7468 -5.42805,1.2925 -8.28726,1.2925 m 14.29603,-3.5041 c -2.99317,-21.8575 -6.85752,-51.0967 -7.86281,-59.1963 14.43011,0 20.59527,12.8675 21.86848,21.7139 0.15639,1.4649 0.42444,3.4754 0.42444,5.687 0,13.2409 -4.28881,26.4818 -14.43011,31.7954"
     id="path146"
     style="stroke-width:1.62109" />
  <path
     class="KeySig"
     d="m 390.98637,2237.5287 c 0.87121,-0.1724 1.58601,-1.4649 1.58601,-2.585 v -10.8283 c 0,-1.4648 -0.8712,-2.585 -2.01045,-2.585 -0.13388,0 -0.13388,0 -0.29036,0 l -4.71325,1.2925 v -27.4009 h -3.99845 v 28.4924 l -12.73237,3.3317 v -25.936 h -3.99842 v 27.0275 l -5.58438,1.4648 c -0.84883,0.2011 -1.56363,1.4648 -1.56363,2.585 v 0.3734 10.6559 -0.3734 c 0,1.4648 0.84882,2.585 2.01038,2.585 0.13402,0 0.26805,0 0.42441,0 l 4.71322,-1.2925 v 30.3305 l -5.58438,1.4649 c -0.84883,0.1723 -1.56363,1.4648 -1.56363,2.585 v 10.6559 c 0,1.4648 0.84882,2.5562 2.01038,2.5562 0.13402,0 0.26805,0 0.42441,0 l 4.71322,-1.2637 v 27.3721 h 3.99842 v -28.4923 l 12.73237,-3.303 v 25.936 h 3.99845 v -27.0275 l 5.42805,-1.2925 c 0.87121,-0.201 1.58601,-1.4648 1.58601,-2.585 v -10.8282 c 0,-1.4936 -0.8712,-2.585 -2.01045,-2.585 -0.13388,0 -0.13388,0 -0.29036,0 l -4.71325,1.2925 v -30.3306 l 5.42805,-1.2924 m -22.15887,5.6869 12.73237,-3.303 v 30.3305 l -12.73237,3.5041 v -30.5316"
     id="path148"
     style="stroke-width:1.62109" />
  <path
     class="KeySig"
     d="m 569.68672,973.75181 c 0.87121,-0.17252 1.58601,-1.46483 1.58601,-2.58508 v -10.82815 c 0,-1.46492 -0.8712,-2.58499 -2.01045,-2.58499 -0.13388,0 -0.13388,0 -0.29036,0 l -4.71325,1.2925 v -27.401 h -3.99845 v 28.49234 l -12.73237,3.33177 v -25.93594 h -3.99842 v 27.02747 l -5.58438,1.46483 c -0.84883,0.20096 -1.56363,1.46474 -1.56363,2.58499 v 0.3733 10.65599 -0.37338 c 0,1.46482 0.84882,2.58499 2.01038,2.58499 0.13402,0 0.26805,0 0.42441,0 l 4.71322,-1.2925 v 30.33055 l -5.58438,1.4648 c -0.84883,0.1724 -1.56363,1.4649 -1.56363,2.5851 v 10.6558 c 0,1.4649 0.84882,2.5564 2.01038,2.5564 0.13402,0 0.26805,0 0.42441,0 l 4.71322,-1.2638 v 27.3721 h 3.99842 v -28.4923 l 12.73237,-3.3031 v 25.9361 h 3.99845 v -27.0274 l 5.42805,-1.2926 c 0.87121,-0.201 1.58601,-1.4648 1.58601,-2.585 v -10.8282 c 0,-1.4936 -0.8712,-2.585 -2.01045,-2.585 -0.13388,0 -0.13388,0 -0.29036,0 l -4.71325,1.2925 v -30.33059 l 5.42805,-1.2925 m -22.15887,5.68698 12.73237,-3.30304 v 30.33055 l -12.73237,3.5041 v -30.53161"
     id="path150"
     style="stroke-width:1.62109" />
  <path
     class="TimeSig"
     d="m 634.73365,1062.3595 v 13.5857 h -11.86126 c -1.00516,0 -2.01031,1.1201 -2.01031,2.5849 v 3.5042 c 0,1.4647 1.00515,2.5562 2.01031,2.5562 h 43.31252 c 1.16156,0 2.01032,-1.0915 2.01032,-2.5562 v -3.5042 c 0,-1.4648 -0.84876,-2.5849 -2.01032,-2.5849 h -12.86642 v -13.5857 h 12.86642 c 1.16156,0 2.01032,-1.2925 2.01032,-2.7573 v -3.5041 c 0,-1.2925 -0.84876,-2.5562 -2.01032,-2.5562 h -12.86642 v -29.2392 c 0,-1.0914 -0.42444,-2.0105 -0.98285,-2.3839 l -1.71995,-1.1202 c -0.29049,-0.1723 -0.42446,-0.1723 -0.7148,-0.1723 -0.15641,0 -0.15641,0 -0.29049,0 -0.42431,0 -1.00516,0.1723 -1.29552,0.5457 l -13.00051,15.2515 c -0.42431,0.5744 -0.58072,1.2925 -0.58072,2.0392 v 15.0792 h -16.57448 c 0,0 16.01609,-22.0586 32.88083,-51.1255 0.58083,-0.9191 0.7148,-1.8382 0.7148,-2.55619 0,-0.9191 -0.29036,-1.66588 -0.42431,-1.83821 l -3.14969,-4.04982 c -0.42432,-0.37339 -0.84877,-0.74687 -1.42961,-0.74687 -0.84877,0 -20.1707,0 -21.30996,0 -1.00514,0 -1.71994,1.12026 -1.85404,2.2117 0,0 -0.7148,13.61429 -4.42284,28.49229 -3.73037,14.9068 -8.01917,24.0979 -11.72721,30.8763 0,0 -0.42441,0.9191 -0.42441,2.0393 0,0.3734 0,0.7181 0.13403,1.0914 0.42441,1.2925 1.4296,3.3032 1.4296,3.3032 0,0 0.29039,1.12 1.56363,1.12 h 24.59366"
     id="path152"
     style="stroke-width:1.62109" />
  <path
     class="TimeSig"
     d="m 634.73365,1154.2703 v 13.5857 h -11.86126 c -1.00516,0 -2.01031,1.12 -2.01031,2.5849 v 3.5042 c 0,1.4647 1.00515,2.5561 2.01031,2.5561 h 43.31252 c 1.16156,0 2.01032,-1.0914 2.01032,-2.5561 v -3.5042 c 0,-1.4649 -0.84876,-2.5849 -2.01032,-2.5849 h -12.86642 v -13.5857 h 12.86642 c 1.16156,0 2.01032,-1.2925 2.01032,-2.7573 v -3.5041 c 0,-1.2925 -0.84876,-2.5563 -2.01032,-2.5563 h -12.86642 v -29.2391 c 0,-1.0914 -0.42444,-2.0105 -0.98285,-2.3839 l -1.71995,-1.1202 c -0.29049,-0.1723 -0.42446,-0.1723 -0.7148,-0.1723 -0.15641,0 -0.15641,0 -0.29049,0 -0.42431,0 -1.00516,0.1723 -1.29552,0.5457 l -13.00051,15.2514 c -0.42431,0.5745 -0.58072,1.2925 -0.58072,2.0393 v 15.0791 h -16.57448 c 0,0 16.01609,-22.0586 32.88083,-51.1254 0.58083,-0.9191 0.7148,-1.8383 0.7148,-2.5562 0,-0.9191 -0.29036,-1.6659 -0.42431,-1.8382 l -3.14969,-4.0498 c -0.42432,-0.3734 -0.84877,-0.7469 -1.42961,-0.7469 -0.84877,0 -20.1707,0 -21.30996,0 -1.00514,0 -1.71994,1.1202 -1.85404,2.2117 0,0 -0.7148,13.6143 -4.42284,28.4923 -3.73037,14.9068 -8.01917,24.0979 -11.72721,30.8763 0,0 -0.42441,0.9191 -0.42441,2.0393 0,0.3734 0,0.7181 0.13403,1.0914 0.42441,1.2925 1.4296,3.3031 1.4296,3.3031 0,0 0.29039,1.1201 1.56363,1.1201 h 24.59366"
     id="path154"
     style="stroke-width:1.62109" />
  <path
     class="Beam"
     fill-rule="evenodd"
     d="m 2354.656,981.56423 h 438.1618 v 22.97767 H 2354.656 v -22.97767"
     id="path158"
     style="stroke-width:1.63416" />
  <path
     class="Beam"
     fill-rule="evenodd"
     d="m 481.89943,2463.6292 968.82107,22.9776 v 22.9777 l -968.82107,-22.9777 v -22.9776"
     id="path160"
     style="stroke-width:1.63416" />
  <path
     class="Beam"
     fill-rule="evenodd"
     d="m 1811.7673,2245.3411 325.3211,11.4888 v 22.9777 l -325.3211,-11.4888 v -22.9777"
     id="path162"
     style="stroke-width:1.63416" />
  <path
     class="Beam"
     fill-rule="evenodd"
     d="m 1732.3609,1199.843 438.1473,22.9777 v 22.9981 l -438.1473,-22.9777 v -22.9981"
     id="path164"
     style="stroke-width:1.63416" />
  <path
     class="Beam"
     fill-rule="evenodd"
     d="m 2942.3496,1199.8523 h 148.4366 v 22.9777 h -148.4366 v -22.9777"
     id="path166"
     style="stroke-width:1.63416" />
  <path
     class="Beam"
     fill-rule="evenodd"
     d="M 739.65307,1199.8523 H 888.08676 V 1222.83 H 739.65307 v -22.9777"
     id="path168"
     style="stroke-width:1.63416" />
  <metadata
     id="metadata957">
    <rdf:RDF>
      <cc:Work
         rdf:about="">
        <dc:title>ansi_font_font_font</dc:title>
      </cc:Work>
    </rdf:RDF>
  </metadata>
</svg>
