<?xml version="1.0" encoding="UTF-8" standalone="no"?>
<svg
   width="297mm"
   height="210mm"
   viewBox="0 0 4209.4489 2976.378"
   version="1.2"
   id="svg60"
   sodipodi:docname="armure.svg"
   inkscape:version="1.2.2 (b0a8486541, 2022-12-01)"
   xmlns:inkscape="http://www.inkscape.org/namespaces/inkscape"
   xmlns:sodipodi="http://sodipodi.sourceforge.net/DTD/sodipodi-0.dtd"
   xmlns="http://www.w3.org/2000/svg"
   xmlns:svg="http://www.w3.org/2000/svg"
   xmlns:rdf="http://www.w3.org/1999/02/22-rdf-syntax-ns#"
   xmlns:cc="http://creativecommons.org/ns#"
   xmlns:dc="http://purl.org/dc/elements/1.1/">
  <defs
     id="defs64">
    <marker
       style="overflow:visible"
       id="marker3899"
       refX="0"
       refY="0"
       orient="auto-start-reverse"
       inkscape:stockid="Arrow2"
       markerWidth="7.6999998"
       markerHeight="5.5999999"
       viewBox="0 0 7.7 5.6"
       inkscape:isstock="true"
       inkscape:collect="always"
       preserveAspectRatio="xMidYMid">
      <path
         transform="scale(0.7)"
         d="M -2,-4 9,0 -2,4 c 2,-2.33 2,-5.66 0,-8 z"
         style="fill:context-stroke;fill-rule:evenodd;stroke:none"
         id="path3897" />
    </marker>
    <marker
       style="overflow:visible"
       id="Arrow2"
       refX="0"
       refY="0"
       orient="auto-start-reverse"
       inkscape:stockid="Arrow2"
       markerWidth="7.6999998"
       markerHeight="5.5999999"
       viewBox="0 0 7.7 5.6"
       inkscape:isstock="true"
       inkscape:collect="always"
       preserveAspectRatio="xMidYMid">
      <path
         transform="scale(0.7)"
         d="M -2,-4 9,0 -2,4 c 2,-2.33 2,-5.66 0,-8 z"
         style="fill:context-stroke;fill-rule:evenodd;stroke:none"
         id="arrow2L" />
    </marker>
    <marker
       style="overflow:visible"
       id="Arrow2-3"
       refX="0"
       refY="0"
       orient="auto-start-reverse"
       inkscape:stockid="Arrow2"
       markerWidth="7.6999998"
       markerHeight="5.5999999"
       viewBox="0 0 7.7 5.6"
       inkscape:isstock="true"
       inkscape:collect="always"
       preserveAspectRatio="xMidYMid">
      <path
         transform="scale(0.7)"
         d="M -2,-4 9,0 -2,4 c 2,-2.33 2,-5.66 0,-8 z"
         style="fill:context-stroke;fill-rule:evenodd;stroke:none"
         id="arrow2L-6" />
    </marker>
    <marker
       style="overflow:visible"
       id="Arrow2-5"
       refX="0"
       refY="0"
       orient="auto-start-reverse"
       inkscape:stockid="Arrow2"
       markerWidth="7.6999998"
       markerHeight="5.5999999"
       viewBox="0 0 7.7 5.6"
       inkscape:isstock="true"
       inkscape:collect="always"
       preserveAspectRatio="xMidYMid">
      <path
         transform="scale(0.7)"
         d="M -2,-4 9,0 -2,4 c 2,-2.33 2,-5.66 0,-8 z"
         style="fill:context-stroke;fill-rule:evenodd;stroke:none"
         id="arrow2L-3" />
    </marker>
  </defs>
  <sodipodi:namedview
     id="namedview62"
     pagecolor="#ffffff"
     bordercolor="#000000"
     borderopacity="0.25"
     inkscape:showpageshadow="2"
     inkscape:pageopacity="0.0"
     inkscape:pagecheckerboard="0"
     inkscape:deskcolor="#d1d1d1"
     inkscape:document-units="mm"
     showgrid="false"
     inkscape:zoom="0.60740211"
     inkscape:cx="496.37628"
     inkscape:cy="409.11942"
     inkscape:window-width="1280"
     inkscape:window-height="651"
     inkscape:window-x="0"
     inkscape:window-y="32"
     inkscape:window-maximized="1"
     inkscape:current-layer="svg60" />
  <title
     id="title2">Partition sans titre</title>
  <desc
     id="desc4">Generated by MuseScore Studio 4.5.2</desc>
  <polyline
     class="StaffLines"
     fill="none"
     stroke="#000000"
     stroke-width="2.73"
     stroke-linejoin="bevel"
     points="336.598,634.198 2764.6,634.198"
     id="polyline6"
     transform="matrix(1.4487843,0,0,3,-185.51409,-675.37903)" />
  <polyline
     class="StaffLines"
     fill="none"
     stroke="#000000"
     stroke-width="2.73"
     stroke-linejoin="bevel"
     points="336.598,658.998 2764.6,658.998"
     id="polyline8"
     transform="matrix(1.4487843,0,0,3,-185.51409,-675.37903)" />
  <polyline
     class="StaffLines"
     fill="none"
     stroke="#000000"
     stroke-width="2.73"
     stroke-linejoin="bevel"
     points="336.598,683.798 2764.6,683.798"
     id="polyline10"
     transform="matrix(1.4487843,0,0,3,-185.51409,-675.37903)" />
  <polyline
     class="StaffLines"
     fill="none"
     stroke="#000000"
     stroke-width="2.73"
     stroke-linejoin="bevel"
     points="336.598,708.598 2764.6,708.598"
     id="polyline12"
     transform="matrix(1.4487843,0,0,3,-185.51409,-675.37903)" />
  <polyline
     class="StaffLines"
     fill="none"
     stroke="#000000"
     stroke-width="2.73"
     stroke-linejoin="bevel"
     points="336.598,733.398 2764.6,733.398"
     id="polyline14"
     transform="matrix(1.4487843,0,0,3,-185.51409,-675.37903)" />
  <polyline
     class="BarLine"
     fill="none"
     stroke="#000000"
     stroke-width="4.46"
     stroke-linejoin="bevel"
     points="2739.55,632.834 2739.55,734.762"
     id="polyline22"
     transform="matrix(1.4487843,0,0,3,-185.51409,-675.37903)" />
  <polyline
     class="BarLine"
     fill="none"
     stroke="#000000"
     stroke-width="13.64"
     stroke-linejoin="bevel"
     points="2757.78,632.834 2757.78,734.762"
     id="polyline24"
     transform="matrix(1.4487843,0,0,3,-185.51409,-675.37903)" />
  <polyline
     class="BarLine"
     fill="none"
     stroke="#000000"
     stroke-width="4.46"
     stroke-linejoin="bevel"
     points="1501.35,632.834 1501.35,734.762"
     id="polyline28"
     transform="matrix(3,0,0,3,-707.6502,-675.37903)" />
  <polyline
     class="LedgerLine"
     fill="none"
     stroke="#000000"
     stroke-width="3.97"
     stroke-linejoin="bevel"
     points="1184,807.798 1232.6,807.798"
     id="polyline30"
     transform="matrix(3,0,0,3,-707.6502,-675.37903)" />
  <polyline
     class="LedgerLine"
     fill="none"
     stroke="#000000"
     stroke-width="3.97"
     stroke-linejoin="bevel"
     points="1184,782.998 1232.6,782.998"
     id="polyline32"
     transform="matrix(3,0,0,3,-707.6502,-675.37903)" />
  <polyline
     class="LedgerLine"
     fill="none"
     stroke="#000000"
     stroke-width="3.97"
     stroke-linejoin="bevel"
     points="1184,758.198 1232.6,758.198"
     id="polyline34"
     transform="matrix(3,0,0,3,-707.6502,-675.37903)" />
  <polyline
     class="Stem"
     fill="none"
     stroke="#000000"
     stroke-width="2.48"
     stroke-linejoin="bevel"
     points="1223.17,803.83 1223.17,683.798"
     id="polyline36"
     transform="matrix(3,0,0,3,-707.6502,-675.37903)" />
  <polyline
     class="Stem"
     fill="none"
     stroke="#000000"
     stroke-width="2.48"
     stroke-linejoin="bevel"
     points="886.494,638.365 886.494,720.998"
     id="polyline38"
     transform="matrix(3,0,0,3,-707.6502,-675.37903)" />
  <polyline
     class="Stem"
     fill="none"
     stroke="#000000"
     stroke-width="2.48"
     stroke-linejoin="bevel"
     points="609.305,717.03 609.305,634.198"
     id="polyline40"
     transform="matrix(3,0,0,3,-707.6502,-675.37903)" />
  <path
     class="Note"
     d="m 1948.1118,1239.7234 c 0,12.7875 9.207,27.0631 33.3404,27.0631 30.9227,0 63.3796,-25.2961 63.3796,-51.4756 0,-17.577 -14.88,-27.3884 -33.3404,-27.3884 -28.8765,0 -63.3796,24.4124 -63.3796,51.8009"
     id="path42"
     style="stroke-width:2.976" />
  <path
     class="Note"
     d="m 1027.3128,1500.1234 c 0,12.7875 9.207,27.0631 33.3404,27.0631 30.9227,0 63.3796,-25.2961 63.3796,-51.4756 0,-17.577 -14.88,-27.3884 -33.3404,-27.3884 -28.8765,0 -63.3796,24.4124 -63.3796,51.8009"
     id="path44"
     style="stroke-width:2.976" />
  <path
     class="Note"
     d="m 2868.9198,1760.5235 c 0,12.7875 9.207,27.063 33.3405,27.063 30.9225,0 63.3795,-25.296 63.3795,-51.4755 0,-17.577 -14.88,-27.3885 -33.3405,-27.3885 -28.8765,0 -63.3795,24.4125 -63.3795,51.801"
     id="path46"
     style="stroke-width:2.976" />
  <path
     class="Clef"
     d="m 483.81936,1663.8034 c 0,-11.0204 -10.09041,-15.7633 -19.902,-15.7633 -12.50841,0 -24.738,7.7189 -24.738,21.1109 0,5.6731 2.09244,9.858 6.27759,13.9964 -7.76559,2.976 -15.48471,8.928 -15.48471,18.1816 0,9.8115 8.928,16.368 22.04112,16.368 16.04244,0 27.342,-8.928 27.342,-21.762 0,-6.8356 -2.976,-12.462 -8.32356,-16.368 8.64915,-3.8596 12.78756,-8.6025 12.78756,-15.7636 m -29.76,47.616 c -6.51,0 -10.974,-4.1384 -10.974,-10.416 0,-5.952 2.65044,-10.6949 7.71888,-13.6709 1.20912,0.6045 1.488,0.6045 2.37156,1.1625 3.58044,1.8135 3.58044,1.8135 4.18515,2.418 5.62641,3.2551 8.04441,6.2311 8.04441,10.416 0,5.6264 -4.78956,10.0904 -11.346,10.0904 m 11.346,-35.712 c -4.464,-2.3713 -5.67312,-2.976 -6.55641,-3.5804 l -0.60471,-0.2787 c -4.464,-2.6972 -5.952,-4.7896 -5.952,-8.3236 0,-5.394 4.18512,-9.2536 10.13712,-9.2536 5.62644,0 9.20688,3.5805 9.20688,9.8116 0,4.7896 -1.76688,8.0444 -6.23088,11.6249 m 83.00244,-225.8972 c 0,-44.919 -31.85244,-75.2835 -75.28356,-75.2835 -2.976,-17.856 -5.67288,-35.4331 -8.32329,-52.08 31.248,-33.0615 53.24241,-70.5404 53.24241,-117.552 0,-27.1095 -8.32356,-49.104 -13.392,-59.8444 -7.11441,-15.1597 -15.76356,-25.5757 -20.832,-25.5757 -2.046,0 -11.57841,3.5801 -21.11112,15.1597 -19.344,22.6444 -24.69129,60.4024 -24.69129,85.4193 0,16.0891 1.488,30.6436 6.55641,64.3096 -0.32556,0 -15.81,15.7635 -22.04112,21.1111 -27.10929,25.0169 -64.58844,61.2869 -64.58844,120.5279 0,55.9397 48.49956,99.6961 103.88115,99.6961 8.60241,0 16.64685,-0.8835 23.808,-2.0924 5.34729,28.3184 8.928,49.4293 8.928,65.1929 0,30.9691 -16.08915,47.3371 -46.128,47.3371 -7.16115,0 -13.392,-1.488 -13.99671,-1.8136 -0.279,0 -0.88329,-0.279 -0.88329,-0.558 0,-0.6044 0.60441,-0.93 1.488,-1.2091 13.99641,-2.0924 27.94641,-14.2753 27.94641,-33.0149 0,-16.0891 -12.18312,-33.0615 -34.50312,-33.0615 -20.832,0 -33.94488,16.9724 -33.94488,36.5955 0,19.6696 14.88,45.57 55.056,45.57 38.40888,0 57.14844,-21.762 57.14844,-59.8455 0,-11.5785 -1.76685,-24.9705 -4.74285,-41.9429 -0.88359,-5.952 -2.37159,-15.2056 -4.464,-26.5052 29.15529,-9.8115 50.87085,-39.8968 50.87085,-70.5405 m -91.65156,-244.0319 c 2.976,-11.904 16.368,-43.152 31.85271,-43.152 4.464,0 11.904,14.2753 11.904,35.1073 0,30.6436 -23.20359,53.8936 -43.75671,74.4 -1.76688,-11.904 -3.25488,-23.808 -3.25488,-35.9909 0,-11.2995 1.16244,-21.1575 3.25488,-30.3644 m 8.928,307.7369 c -42.54729,0 -78.86394,-29.76 -78.86394,-74.7255 0,-36.2701 25.57506,-68.727 51.80106,-91.6514 5.022,-4.1851 9.81159,-8.3236 14.27559,-12.7876 2.65041,16.0425 4.74285,29.76 6.83529,42.2685 -27.10929,7.7191 -45.52329,36.5955 -45.52329,64.263 0,21.1575 16.368,49.7085 40.176,49.7085 2.37129,0 5.06841,-1.2088 5.06841,-4.1848 0,-2.3716 -2.69712,-4.1387 -6.55641,-6.5102 -11.62515,-6.882 -18.18159,-14.88 -18.18159,-29.202 0,-18.135 13.71759,-32.7361 30.96888,-36.8745 l 17.25156,97.6035 c -5.952,1.2092 -11.29956,2.0925 -17.25156,2.0925 m 29.76,-5.6729 c -6.23088,-35.3866 -14.27529,-82.7236 -16.368,-95.8367 30.03912,0 42.87312,20.8321 45.52356,35.1541 0.32556,2.3715 0.88356,5.6265 0.88356,9.207 0,21.4365 -8.928,42.8732 -30.03912,51.4756"
     id="path48"
     style="stroke-width:2.976" />
  <path
     class="KeySig"
     d="m 673.49436,1195.9669 c 1.81359,-0.2793 3.30159,-2.3715 3.30159,-4.1851 v -17.5304 c 0,-2.3716 -1.81359,-4.1849 -4.18515,-4.1849 -0.2787,0 -0.2787,0 -0.60444,0 l -9.81156,2.0924 v -44.3611 h -8.32356 v 46.128 l -26.50494,5.394 v -41.9893 h -8.3235 v 43.7564 l -11.625,2.3716 c -1.767,0.3253 -3.255,2.3713 -3.255,4.1849 v 0.6044 17.2516 -0.6045 c 0,2.3715 1.767,4.185 4.185,4.185 0.279,0 0.558,0 0.8835,0 l 9.8115,-2.0925 v 49.104 l -11.625,2.3715 c -1.767,0.279 -3.255,2.3716 -3.255,4.1852 v 17.2513 c 0,2.3715 1.767,4.1387 4.185,4.1387 0.279,0 0.558,0 0.8835,0 l 9.8115,-2.046 v 44.3144 h 8.3235 v -46.128 l 26.50494,-5.3476 v 41.9896 h 8.32356 v -43.7564 l 11.29956,-2.0927 c 1.81359,-0.3253 3.30159,-2.3713 3.30159,-4.1849 v -17.5306 c 0,-2.418 -1.81359,-4.185 -4.18515,-4.185 -0.2787,0 -0.2787,0 -0.60444,0 l -9.81156,2.0925 v -49.104 l 11.29956,-2.0925 m -46.12806,9.207 26.50494,-5.3475 v 49.104 l -26.50494,5.673 v -49.4295"
     id="path50"
     style="stroke-width:2.976" />
  <path
     class="TimeSig"
     d="m 839.68524,1298.3599 c 23.808,-9.2535 25.296,-24.738 25.296,-30.0854 0,-0.6047 0,-1.1627 0,-1.488 0,-2.6507 -0.88329,-36.3167 -52.08,-36.3167 -51.19644,0 -49.70844,36.3167 -49.70844,36.3167 h 0.279 l -0.279,0.6044 c 0,10.695 8.649,19.065 19.344,19.065 10.69515,0 19.06515,-8.37 19.06515,-19.065 0,-8.6491 -6.55671,-16.9724 -14.88015,-18.7395 0.279,-0.3256 0.558,-0.6045 0.8835,-0.8836 4.13865,-2.976 9.8115,-4.464 15.48465,-4.464 12.462,0 25.854,7.44 25.854,23.4827 0,18.7394 -13.95,21.4364 -17.53071,22.0409 -3.58044,0.6045 -20.22729,1.767 -23.80794,1.767 -3.5805,0 -3.8595,4.185 -3.8595,4.185 v 5.952 c 0,0 0.558,3.255 3.8595,3.5805 5.06865,0.279 11.90394,0.279 21.43665,1.767 13.06641,1.767 19.902,10.695 19.902,31.5272 0,19.9484 -13.392,25.296 -25.854,25.296 -8.37,0 -16.08915,-2.3716 -19.34415,-4.7432 9.81144,-0.6044 17.85615,-9.2068 17.85615,-19.0648 0,-10.6952 -8.37,-19.3442 -19.06515,-19.3442 -10.695,0 -19.344,8.649 -19.344,19.3442 0,0 0,0.6044 0,1.2088 0,3.8596 0.8835,14.6012 11.625,24.4125 11.5785,10.6951 26.17944,11.0207 32.73615,11.0207 28.55085,0 59.52,-9.858 59.52,-42.2687 0,-21.7155 -14.88,-30.969 -27.99315,-35.1075 h 0.60444"
     id="path52"
     style="stroke-width:2.976" />
  <path
     class="TimeSig"
     d="m 808.90236,1488.2194 v 21.9947 H 784.2108 c -2.09244,0 -4.18485,1.8133 -4.18485,4.1848 v 5.6732 c 0,2.3713 2.09241,4.1384 4.18485,4.1384 h 90.16356 c 2.418,0 4.18488,-1.7671 4.18488,-4.1384 v -5.6732 c 0,-2.3715 -1.76688,-4.1848 -4.18488,-4.1848 h -26.784 v -21.9947 h 26.784 c 2.418,0 4.18488,-2.0925 4.18488,-4.464 v -5.673 c 0,-2.0925 -1.76688,-4.1385 -4.18488,-4.1385 h -26.784 v -47.337 c 0,-1.767 -0.88356,-3.255 -2.046,-3.8595 l -3.58041,-1.8135 c -0.60471,-0.279 -0.88359,-0.279 -1.488,-0.279 -0.32559,0 -0.32559,0 -0.60471,0 -0.88329,0 -2.09244,0.279 -2.69688,0.8835 l -27.06312,24.6915 c -0.88329,0.93 -1.20888,2.0925 -1.20888,3.3015 v 24.4125 H 774.3993 c 0,0 33.34065,-35.712 68.44794,-82.7701 1.20912,-1.488 1.488,-2.976 1.488,-4.1384 0,-1.488 -0.60444,-2.6969 -0.88329,-2.976 l -6.55671,-6.5565 c -0.88329,-0.6044 -1.76688,-1.2091 -2.976,-1.2091 -1.76688,0 -41.98929,0 -44.36088,0 -2.09241,0 -3.58041,1.8136 -3.85956,3.5807 0,0 -1.488,22.0409 -9.207,46.1279 -7.7655,24.1335 -16.6935,39.0135 -24.4125,49.9875 0,0 -0.8835,1.488 -0.8835,3.3015 0,0.6045 0,1.1627 0.279,1.7671 0.8835,2.0924 2.976,5.3476 2.976,5.3476 0,0 0.6045,1.8133 3.255,1.8133 h 51.19656"
     id="path54"
     style="stroke-width:2.976" />
  <metadata
     id="metadata743">
    <rdf:RDF>
      <cc:Work
         rdf:about="">
        <dc:title>Partition sans titre</dc:title>
      </cc:Work>
    </rdf:RDF>
  </metadata>
  <text
     xml:space="preserve"
     style="font-size:202.5px;font-family:sans-serif;-inkscape-font-specification:sans-serif;fill:#000000;stroke:#666666;stroke-width:0;stroke-dasharray:none"
     x="1570.7816"
     y="2317.0854"
     id="text2442"><tspan
       sodipodi:role="line"
       id="tspan2440"
       style="stroke-width:0;stroke-dasharray:none"
       x="1570.7816"
       y="2317.0854">Fa dièse</tspan></text>
  <path
     style="fill:#000000;stroke:#666666;stroke-width:14.1732;stroke-dasharray:none;marker-end:url(#Arrow2)"
     d="m 2642.0614,1821.6437 -499.8902,227.1491 z"
     id="path3312" />
  <path
     style="fill:#000000;stroke:#666666;stroke-width:14.2714;stroke-dasharray:none;marker-end:url(#Arrow2-5)"
     d="m 1959.4053,1653.6886 5.5353,451.3113 z"
     id="path3312-5" />
  <path
     style="fill:#000000;stroke:#666666;stroke-width:17.2795;stroke-dasharray:none;marker-end:url(#Arrow2-3)"
     d="m 1289.3215,1667.7507 485.05,390.8269 z"
     id="path3312-7" />
  <text
     xml:space="preserve"
     style="font-size:165.708px;font-family:sans-serif;-inkscape-font-specification:sans-serif;fill:#000000;stroke:#666666;stroke-width:3.47942;stroke-dasharray:none"
     x="809.0705"
     y="511.09506"
     id="text3735"
     transform="scale(0.81430606,1.2280395)"><tspan
       sodipodi:role="line"
       id="tspan3733"
       style="stroke-width:3.47942;stroke-dasharray:none"
       x="809.0705"
       y="511.09506">Altération structurelle</tspan></text>
  <path
     style="fill:#000000;stroke:#666666;stroke-width:12.2231;stroke-dasharray:none;marker-end:url(#marker3899)"
     d="M 824.34744,1080.5559 1266.9374,697.73854 Z"
     id="path3877" />
</svg>
