<?xml version="1.0" encoding="UTF-8" standalone="no"?>
<svg
   width="297mm"
   height="210mm"
   viewBox="0 0 4209.4489 2976.378"
   version="1.2"
   id="svg248"
   sodipodi:docname="scarborough_fair.svg"
   inkscape:version="1.2.2 (b0a8486541, 2022-12-01)"
   xmlns:inkscape="http://www.inkscape.org/namespaces/inkscape"
   xmlns:sodipodi="http://sodipodi.sourceforge.net/DTD/sodipodi-0.dtd"
   xmlns="http://www.w3.org/2000/svg"
   xmlns:svg="http://www.w3.org/2000/svg"
   xmlns:rdf="http://www.w3.org/1999/02/22-rdf-syntax-ns#"
   xmlns:cc="http://creativecommons.org/ns#"
   xmlns:dc="http://purl.org/dc/elements/1.1/">
  <defs
     id="defs252" />
  <sodipodi:namedview
     id="namedview250"
     pagecolor="#ffffff"
     bordercolor="#000000"
     borderopacity="0.25"
     inkscape:showpageshadow="2"
     inkscape:pageopacity="0.0"
     inkscape:pagecheckerboard="0"
     inkscape:deskcolor="#d1d1d1"
     inkscape:document-units="mm"
     showgrid="false"
     inkscape:zoom="0.42949815"
     inkscape:cx="394.64663"
     inkscape:cy="376.02024"
     inkscape:window-width="1280"
     inkscape:window-height="651"
     inkscape:window-x="0"
     inkscape:window-y="32"
     inkscape:window-maximized="1"
     inkscape:current-layer="svg248" />
  <title
     id="title2">scarborough_fair</title>
  <desc
     id="desc4">Generated by MuseScore Studio 4.5.2</desc>
  <polyline
     class="StaffLines"
     fill="none"
     stroke="#000000"
     stroke-width="2.73"
     stroke-linejoin="bevel"
     points="336.598,634.198 2764.6,634.198"
     id="polyline6"
     transform="matrix(1.523814,0,0,1.4412322,-164.25851,-112.26407)" />
  <polyline
     class="StaffLines"
     fill="none"
     stroke="#000000"
     stroke-width="2.73"
     stroke-linejoin="bevel"
     points="336.598,658.998 2764.6,658.998"
     id="polyline8"
     transform="matrix(1.523814,0,0,1.4412322,-164.25851,-112.26407)" />
  <polyline
     class="StaffLines"
     fill="none"
     stroke="#000000"
     stroke-width="2.73"
     stroke-linejoin="bevel"
     points="336.598,683.798 2764.6,683.798"
     id="polyline10"
     transform="matrix(1.523814,0,0,1.4412322,-164.25851,-112.26407)" />
  <polyline
     class="StaffLines"
     fill="none"
     stroke="#000000"
     stroke-width="2.73"
     stroke-linejoin="bevel"
     points="336.598,708.598 2764.6,708.598"
     id="polyline12"
     transform="matrix(1.523814,0,0,1.4412322,-164.25851,-112.26407)" />
  <polyline
     class="StaffLines"
     fill="none"
     stroke="#000000"
     stroke-width="2.73"
     stroke-linejoin="bevel"
     points="336.598,733.398 2764.6,733.398"
     id="polyline14"
     transform="matrix(1.523814,0,0,1.4412322,-164.25851,-112.26407)" />
  <polyline
     class="StaffLines"
     fill="none"
     stroke="#000000"
     stroke-width="2.73"
     stroke-linejoin="bevel"
     points="212.598,1241.8 2764.6,1241.8"
     id="polyline16"
     transform="matrix(1.523814,0,0,1.4412322,-164.25851,-112.26407)" />
  <polyline
     class="StaffLines"
     fill="none"
     stroke="#000000"
     stroke-width="2.73"
     stroke-linejoin="bevel"
     points="212.598,1266.6 2764.6,1266.6"
     id="polyline18"
     transform="matrix(1.523814,0,0,1.4412322,-164.25851,-112.26407)" />
  <polyline
     class="StaffLines"
     fill="none"
     stroke="#000000"
     stroke-width="2.73"
     stroke-linejoin="bevel"
     points="212.598,1291.4 2764.6,1291.4"
     id="polyline20"
     transform="matrix(1.523814,0,0,1.4412322,-164.25851,-112.26407)" />
  <polyline
     class="StaffLines"
     fill="none"
     stroke="#000000"
     stroke-width="2.73"
     stroke-linejoin="bevel"
     points="212.598,1316.2 2764.6,1316.2"
     id="polyline22"
     transform="matrix(1.523814,0,0,1.4412322,-164.25851,-112.26407)" />
  <polyline
     class="StaffLines"
     fill="none"
     stroke="#000000"
     stroke-width="2.73"
     stroke-linejoin="bevel"
     points="212.598,1341 2764.6,1341"
     id="polyline24"
     transform="matrix(1.523814,0,0,1.4412322,-164.25851,-112.26407)" />
  <polyline
     class="StaffLines"
     fill="none"
     stroke="#000000"
     stroke-width="2.73"
     stroke-linejoin="bevel"
     points="212.598,1849.4 2764.6,1849.4"
     id="polyline26"
     transform="matrix(1.523814,0,0,1.4412322,-164.25851,-112.26407)" />
  <polyline
     class="StaffLines"
     fill="none"
     stroke="#000000"
     stroke-width="2.73"
     stroke-linejoin="bevel"
     points="212.598,1874.2 2764.6,1874.2"
     id="polyline28"
     transform="matrix(1.523814,0,0,1.4412322,-164.25851,-112.26407)" />
  <polyline
     class="StaffLines"
     fill="none"
     stroke="#000000"
     stroke-width="2.73"
     stroke-linejoin="bevel"
     points="212.598,1899 2764.6,1899"
     id="polyline30"
     transform="matrix(1.523814,0,0,1.4412322,-164.25851,-112.26407)" />
  <polyline
     class="StaffLines"
     fill="none"
     stroke="#000000"
     stroke-width="2.73"
     stroke-linejoin="bevel"
     points="212.598,1923.8 2764.6,1923.8"
     id="polyline32"
     transform="matrix(1.523814,0,0,1.4412322,-164.25851,-112.26407)" />
  <polyline
     class="StaffLines"
     fill="none"
     stroke="#000000"
     stroke-width="2.73"
     stroke-linejoin="bevel"
     points="212.598,1948.6 2764.6,1948.6"
     id="polyline34"
     transform="matrix(1.523814,0,0,1.4412322,-164.25851,-112.26407)" />
  <path
     class="Text"
     d="m 2545.997,482.58867 -13.1048,0.81141 v 3.08424 h 2.6667 c 2.8952,0.0677 3.2762,0.51884 3.2762,3.60308 v 28.03629 c 0,10.02089 -0.4572,15.49325 -1.3714,18.60198 h 2.8952 l 3.7333,-5.63089 c 3.1239,3.89565 6.7048,5.69719 11.4287,5.69719 9.4476,0 16.381,-7.63276 16.381,-18.0817 0,-10.38264 -6.4001,-17.65509 -15.543,-17.65509 -4.6476,0 -7.4666,1.50753 -10.3619,5.60639 v -24.0729 m 8.9905,22.13588 c 5.7143,0 8.9143,5.27059 8.9143,14.70634 0,9.14173 -3.1238,14.25378 -8.6857,14.25378 -6.0343,0 -9.6,-5.24608 -9.6,-14.11975 0,-9.66058 3.2762,-14.84037 9.3714,-14.84037 m 54.0802,7.79275 c 0,-4.54997 -0.8381,-6.84586 -3.0477,-8.57966 -2.499,-1.96007 -6.2324,-2.88246 -11.1238,-2.88246 -8.5943,0 -14.8572,3.80485 -14.8572,9.074 0,2.65763 1.7676,4.39143 4.4343,4.39143 2.4229,0 4.1143,-1.50897 4.1143,-3.67082 0,-0.94545 -0.3809,-1.93557 -1.1428,-2.94876 -0.4724,-0.51884 -0.5486,-0.65432 -0.5486,-1.01463 0,-1.44123 3.0476,-2.74699 6.72,-2.74699 2.4229,0 5.0895,0.72062 6.3086,1.80154 1.4476,1.17173 1.9962,2.88247 1.9962,6.12524 v 2.81473 c -7.9238,1.3072 -10.4534,1.86928 -14.1867,3.24277 -6.6134,2.32038 -9.7372,5.63089 -9.7372,10.24716 0,5.17835 4.2667,8.42112 11.0477,8.42112 5.2571,0 9.9809,-2.02637 13.2571,-5.69719 1.2191,3.67082 3.1239,5.11205 6.6896,5.11205 3.4286,0 7.0248,-2.07105 7.0248,-4.16516 0,-0.51884 -0.3048,-0.87915 -0.7619,-0.87915 -0.3048,0 -0.6096,0.0908 -1.1429,0.29257 -1.0667,0.42804 -1.5238,0.51884 -2.1333,0.51884 -2.1486,0 -2.9105,-1.3072 -2.9105,-4.97657 V 512.5173 m -7.1467,8.78142 c 0,4.3237 -0.2286,5.33833 -1.5238,7.20617 -1.9048,2.65763 -5.3334,4.45917 -8.6858,4.45917 -3.5047,0 -6.019,-2.36362 -6.019,-5.6064 0,-3.041 1.5847,-5.20284 4.9524,-6.71181 2.3466,-1.01319 5.3333,-1.73381 11.2762,-2.65619 v 3.30906 m 30.6286,-38.71005 -14.0952,0.81141 v 3.08424 h 3.7333 c 2.8038,0.0677 3.1848,0.51884 3.1848,3.60308 v 40.15273 c -0.061,1.08092 -0.1372,1.50753 -0.4419,1.86784 -0.5486,0.65432 -1.981,0.94689 -5.2724,1.01462 h -0.5181 v 2.58846 h 19.7181 v -2.58846 h -0.5333 c -5.0895,-0.15853 -5.7753,-0.51884 -5.7753,-3.10873 v -47.42519 m 23.9696,0 -14.0952,0.81141 v 3.08424 h 3.7333 c 2.8191,0.0677 3.2,0.51884 3.2,3.60308 v 40.15273 c -0.076,1.08092 -0.1524,1.50753 -0.4571,1.86784 -0.5486,0.65432 -1.981,0.94689 -5.2572,1.01462 h -0.5333 v 2.58846 h 19.7181 v -2.58846 h -0.5181 c -5.1047,-0.15853 -5.7905,-0.51884 -5.7905,-3.10873 v -47.42519 m 42.8497,29.92863 c 0,-4.54997 -0.8229,-6.84586 -3.0476,-8.57966 -2.4991,-1.96007 -6.2324,-2.88246 -11.1086,-2.88246 -8.5944,0 -14.8572,3.80485 -14.8572,9.074 0,2.65763 1.7524,4.39143 4.419,4.39143 2.4381,0 4.1296,-1.50897 4.1296,-3.67082 0,-0.94545 -0.381,-1.93557 -1.1429,-2.94876 -0.4876,-0.51884 -0.5486,-0.65432 -0.5486,-1.01463 0,-1.44123 3.0477,-2.74699 6.7048,-2.74699 2.4381,0 5.1048,0.72062 6.3086,1.80154 1.4629,1.17173 2.0114,2.88247 2.0114,6.12524 v 2.81473 c -7.939,1.3072 -10.4533,1.86928 -14.2019,3.24277 -6.6134,2.32038 -9.7372,5.63089 -9.7372,10.24716 0,5.17835 4.2667,8.42112 11.0477,8.42112 5.2724,0 9.981,-2.02637 13.2724,-5.69719 1.2038,3.67082 3.1086,5.11205 6.6895,5.11205 3.4286,0 7.0248,-2.07105 7.0248,-4.16516 0,-0.51884 -0.32,-0.87915 -0.7619,-0.87915 -0.32,0 -0.6248,0.0908 -1.1428,0.29257 -1.082,0.42804 -1.5239,0.51884 -2.1486,0.51884 -2.1486,0 -2.9105,-1.3072 -2.9105,-4.97657 V 512.5173 m -7.1315,8.78142 c 0,4.3237 -0.2438,5.33833 -1.5238,7.20617 -1.9047,2.65763 -5.3333,4.45917 -8.701,4.45917 -3.4895,0 -6.019,-2.36362 -6.019,-5.6064 0,-3.041 1.6,-5.20284 4.9524,-6.71181 2.3619,-1.01319 5.3333,-1.73381 11.2914,-2.65619 v 3.30906 m 44.023,14.90811 13.2572,-0.49578 v -3.1073 h -1.3867 c -4.3276,-0.20177 -4.7085,-0.62982 -4.7085,-5.24609 v -44.76899 l -14.9334,0.81141 v 3.08424 h 4.48 c 2.9105,0.0677 3.2914,0.51884 3.2914,3.60308 v 16.30466 c -2.819,-3.69388 -6.0952,-5.33688 -10.5295,-5.33688 -8.5943,0 -15.1467,7.85904 -15.1467,18.21717 0,10.24716 6.3085,17.51962 15.1467,17.51962 4.8152,0 8.0914,-1.93557 10.5295,-6.25927 v 5.67413 m -9.0057,-31.256 c 3.139,0 6.0952,2.16185 7.4819,5.47236 0.9905,2.16184 1.4476,5.11061 1.4476,8.64739 0,8.42112 -3.5047,13.82574 -9.0057,13.82574 -5.3943,0 -8.5943,-4.75174 -8.5943,-12.74482 0,-4.32369 0.4571,-7.56647 1.4324,-9.95459 1.3104,-3.24277 4.1143,-5.24608 7.2381,-5.24608 m 59.2002,14.54635 c 0.061,-10.80924 -6.4153,-18.442 -15.6953,-18.442 -9.7677,0 -17.0667,7.99307 -17.0667,18.80231 0,10.15637 6.9181,16.93448 17.2038,16.93448 7.3143,0 12.4343,-3.37681 15.5582,-10.22266 l -2.6667,-1.37349 c -3.1238,5.53865 -6.3391,7.7005 -11.4286,7.7005 -3.8857,0 -6.72,-1.50897 -8.701,-4.75174 -1.3562,-2.16185 -1.9657,-4.68401 -1.9048,-8.6474 h 24.7011 m -24.6249,-3.10729 c 0,-5.04431 2.4534,-12.25048 8.8534,-12.25048 4.5714,0 7.6191,3.82792 7.6191,9.66058 0,2.02782 -0.6858,2.5899 -3.1391,2.5899 H 2761.83 m 63.2078,-14.25379 v -14.27829 h -3.1086 c -0.7619,9.36801 -4.1295,14.11976 -10.2857,14.57086 v 2.79167 h 6.2324 v 18.37571 c 0,5.04431 0.1371,6.84585 0.8991,8.51192 1.2495,3.01794 4.2971,4.684 8.7009,4.684 6.8572,0 11.2763,-4.90884 11.2763,-12.54304 0,-0.42805 0,-0.92239 -0.061,-1.64301 h -3.2152 c -0.2134,6.48555 -2.2248,9.79606 -5.9277,9.79606 -1.7676,0 -3.2914,-0.87915 -3.8095,-2.09555 -0.4876,-1.01319 -0.701,-2.81473 -0.701,-5.40462 v -19.68147 h 11.2001 v -3.08424 h -11.2001 m 29.9277,0 -13.501,0.78691 v 3.10874 h 3.1239 c 2.9104,0.0677 3.2914,0.49434 3.2914,3.60308 v 20.6053 c -0.076,1.08092 -0.1524,1.50753 -0.4571,1.86784 -0.5486,0.65432 -2.0724,0.94689 -5.3334,1.01462 h -0.3048 v 2.58846 h 20.3277 v -2.58846 h -1.3562 c -5.12,-0.15853 -5.7905,-0.51884 -5.7905,-3.10873 v -3.89565 c 0.076,-12.09194 4.6477,-21.32592 10.5753,-21.61849 -1.0514,1.17172 -1.3562,1.89234 -1.3562,3.24277 0,2.32039 1.7372,3.96339 4.1905,3.96339 2.8038,0 4.6476,-1.93701 4.6476,-4.81948 0,-3.53534 -2.6057,-5.83122 -6.6286,-5.83122 -4.8,0 -8.9295,3.60308 -11.4286,10.02088 v -8.93996 m 52.5259,10.3812 c 0,-4.54997 -0.8229,-6.84586 -3.0476,-8.57966 -2.4991,-1.96007 -6.2324,-2.88246 -11.1086,-2.88246 -8.5943,0 -14.8572,3.80485 -14.8572,9.074 0,2.65763 1.7524,4.39143 4.419,4.39143 2.4381,0 4.1296,-1.50897 4.1296,-3.67082 0,-0.94545 -0.381,-1.93557 -1.1429,-2.94876 -0.4876,-0.51884 -0.5486,-0.65432 -0.5486,-1.01463 0,-1.44123 3.0477,-2.74699 6.7048,-2.74699 2.4381,0 5.1048,0.72062 6.3086,1.80154 1.4629,1.17173 2.0115,2.88247 2.0115,6.12524 v 2.81473 c -7.9391,1.3072 -10.4534,1.86928 -14.202,3.24277 -6.6133,2.32038 -9.7372,5.63089 -9.7372,10.24716 0,5.17835 4.2667,8.42112 11.0477,8.42112 5.2724,0 9.981,-2.02637 13.2724,-5.69719 1.2038,3.67082 3.1086,5.11205 6.6895,5.11205 3.4286,0 7.0248,-2.07105 7.0248,-4.16516 0,-0.51884 -0.32,-0.87915 -0.7619,-0.87915 -0.32,0 -0.6247,0.0908 -1.1428,0.29257 -1.0819,0.42804 -1.5239,0.51884 -2.1486,0.51884 -2.1486,0 -2.9105,-1.3072 -2.9105,-4.97657 V 512.5173 m -7.1314,8.78142 c 0,4.3237 -0.2439,5.33833 -1.5239,7.20617 -1.9047,2.65763 -5.3333,4.45917 -8.7009,4.45917 -3.4896,0 -6.0191,-2.36362 -6.0191,-5.6064 0,-3.041 1.6,-5.20284 4.9524,-6.71181 2.3619,-1.01319 5.3333,-1.73381 11.2915,-2.65619 v 3.30906 m 44.0229,14.90811 13.2572,-0.49578 v -3.1073 h -1.3867 c -4.3276,-0.20177 -4.7085,-0.62982 -4.7085,-5.24609 v -44.76899 l -14.9334,0.81141 v 3.08424 h 4.48 c 2.9105,0.0677 3.2914,0.51884 3.2914,3.60308 v 16.30466 c -2.819,-3.69388 -6.0952,-5.33688 -10.5295,-5.33688 -8.5943,0 -15.1467,7.85904 -15.1467,18.21717 0,10.24716 6.3086,17.51962 15.1467,17.51962 4.8152,0 8.0914,-1.93557 10.5295,-6.25927 v 5.67413 m -9.0057,-31.256 c 3.1391,0 6.0953,2.16185 7.4819,5.47236 0.9905,2.16184 1.4476,5.11061 1.4476,8.64739 0,8.42112 -3.5047,13.82574 -9.0057,13.82574 -5.3943,0 -8.5943,-4.75174 -8.5943,-12.74482 0,-4.32369 0.4571,-7.56647 1.4324,-9.95459 1.3105,-3.24277 4.1143,-5.24608 7.2381,-5.24608 M 2971.263,484.187 c -2.4533,0 -4.4343,1.86927 -4.4343,4.1666 0,2.31894 1.981,4.18822 4.3581,4.18822 2.4991,0 4.48,-1.86928 4.48,-4.18822 0,-2.29733 -1.9809,-4.1666 -4.4038,-4.1666 m 3.5657,17.9491 -14.3086,0.78691 v 3.10874 h 3.8858 c 2.88,0.0677 3.2609,0.49434 3.2609,3.60308 v 20.6053 c -0.076,1.08092 -0.1524,1.50753 -0.4571,1.86784 -0.5181,0.65432 -1.981,0.94689 -5.2572,1.01462 h -0.5333 v 2.58846 h 19.7486 v -2.58846 h -0.5486 c -5.1047,-0.15853 -5.7905,-0.51884 -5.7905,-3.10873 V 502.1361 m 23.0706,0 v -14.27829 h -3.1238 c -0.7619,9.36801 -4.1143,14.11976 -10.2858,14.57086 v 2.79167 h 6.2477 v 18.37571 c 0,5.04431 0.1371,6.84585 0.899,8.51192 1.2343,3.01794 4.2819,4.684 8.6857,4.684 6.8572,0 11.2915,-4.90884 11.2915,-12.54304 0,-0.42805 0,-0.92239 -0.076,-1.64301 h -3.2152 c -0.2134,6.48555 -2.2096,9.79606 -5.9277,9.79606 -1.7524,0 -3.2762,-0.87915 -3.8095,-2.09555 -0.4724,-1.01319 -0.6857,-2.81473 -0.6857,-5.40462 v -19.68147 h 11.1848 v -3.08424 h -11.1848 m 26.9563,-17.9491 c -2.4534,0 -4.4343,1.86927 -4.4343,4.1666 0,2.31894 1.9809,4.18822 4.3581,4.18822 2.499,0 4.48,-1.86928 4.48,-4.18822 0,-2.29733 -1.981,-4.1666 -4.4038,-4.1666 m 3.5657,17.9491 -14.3086,0.78691 v 3.10874 h 3.8857 c 2.88,0.0677 3.261,0.49434 3.261,3.60308 v 20.6053 c -0.076,1.08092 -0.1372,1.50753 -0.4572,1.86784 -0.5181,0.65432 -1.9657,0.94689 -5.2572,1.01462 h -0.518 v 2.58846 h 19.7333 v -2.58846 h -0.5485 c -5.0896,-0.15853 -5.7905,-0.51884 -5.7905,-3.10873 V 502.1361 m 27.4743,-1.08092 c -9.3562,0 -16.5943,7.85904 -16.5943,17.94766 0,9.86235 7.3143,17.78913 16.4572,17.78913 9.1429,0 16.4572,-7.92678 16.4572,-17.87993 0,-9.86379 -7.3143,-17.85686 -16.3201,-17.85686 m 0,3.08423 c 5.3334,0 8.3201,5.26915 8.3201,14.77263 0,9.59285 -2.9867,14.77263 -8.4572,14.77263 -5.4705,0 -8.4572,-5.17978 -8.4572,-14.68183 0,-9.81911 2.88,-14.86343 8.5943,-14.86343 m 34.1182,-2.00331 -13.181,0.78691 v 3.10874 h 2.7581 c 2.8801,0.0677 3.261,0.49434 3.261,3.60308 v 20.6053 c -0.076,1.08092 -0.1371,1.50753 -0.4571,1.86784 -0.5181,0.65432 -1.9658,0.94689 -5.2572,1.01462 h -0.3048 v 2.58846 h 19.2763 v -2.58846 h -0.3048 c -5.0895,-0.15853 -5.7905,-0.51884 -5.7905,-3.10873 v -10.65071 c 0,-3.53534 0.5334,-6.77812 1.3867,-8.44562 1.6,-3.24277 5.0286,-5.47236 8.2896,-5.47236 1.9962,0 4.2819,1.01463 5.4247,2.52216 1.1429,1.5767 1.661,3.73855 1.661,7.20616 v 15.06664 c -0.061,1.08092 -0.1372,1.50753 -0.4419,1.86784 -0.5486,0.65432 -2.0724,0.94689 -5.3334,1.01462 h -0.32 v 2.58846 h 19.2915 v -2.58846 h -0.3047 c -5.0286,-0.15853 -5.7143,-0.51884 -5.7143,-3.10873 V 515.5338 c 0,-5.17835 -0.2439,-6.48555 -1.6001,-8.93997 -1.9047,-3.44454 -5.7143,-5.53865 -10.2857,-5.53865 -4.9524,0 -8.6857,2.16185 -12.0534,6.91215 v -5.83123 m 46.5526,0 -13.1963,0.78691 v 3.10874 h 2.7734 c 2.88,0.0677 3.2609,0.49434 3.2609,3.60308 v 20.6053 c -0.076,1.08092 -0.1524,1.50753 -0.4571,1.86784 -0.5181,0.65432 -1.981,0.94689 -5.2572,1.01462 h -0.32 v 2.58846 h 19.2915 v -2.58846 h -0.3048 c -5.1047,-0.15853 -5.7904,-0.51884 -5.7904,-3.10873 v -10.65071 c 0,-3.53534 0.5181,-6.77812 1.3866,-8.44562 1.5848,-3.24277 5.0134,-5.47236 8.2743,-5.47236 2.0115,0 4.2972,1.01463 5.44,2.52216 1.1429,1.5767 1.661,3.73855 1.661,7.20616 v 15.06664 c -0.076,1.08092 -0.1371,1.50753 -0.4571,1.86784 -0.5486,0.65432 -2.0724,0.94689 -5.3334,1.01462 h -0.3047 v 2.58846 h 19.2914 v -2.58846 h -0.32 c -5.0133,-0.15853 -5.7143,-0.51884 -5.7143,-3.10873 V 515.5338 c 0,-5.17835 -0.2285,-6.48555 -1.5847,-8.93997 -1.9048,-3.44454 -5.7143,-5.53865 -10.2858,-5.53865 -4.9524,0 -8.701,2.16185 -12.0533,6.91215 v -5.83123 m 66.743,17.36108 c 0.061,-10.80924 -6.4153,-18.442 -15.6953,-18.442 -9.7676,0 -17.0667,7.99307 -17.0667,18.80231 0,10.15637 6.9181,16.93448 17.2039,16.93448 7.3143,0 12.4343,-3.37681 15.5581,-10.22266 l -2.6667,-1.37349 c -3.1238,5.53865 -6.339,7.7005 -11.4286,7.7005 -3.8857,0 -6.72,-1.50897 -8.701,-4.75174 -1.3561,-2.16185 -1.9657,-4.68401 -1.9047,-8.6474 h 24.701 m -24.6248,-3.10729 c 0,-5.04431 2.4533,-12.25048 8.8533,-12.25048 4.5715,0 7.6191,3.82792 7.6191,9.66058 0,2.02782 -0.6857,2.5899 -3.1391,2.5899 h -13.3333 m 40.9753,-33.80122 -14.0953,0.81141 v 3.08424 h 3.7486 c 2.8038,0.0677 3.1848,0.51884 3.1848,3.60308 v 40.15273 c -0.076,1.08092 -0.1371,1.50753 -0.4571,1.86784 -0.5486,0.65432 -1.9658,0.94689 -5.2572,1.01462 h -0.5181 v 2.58846 h 19.7029 v -2.58846 h -0.5181 c -5.0895,-0.15853 -5.7905,-0.51884 -5.7905,-3.10873 v -47.42519 m 23.9849,0 -14.0953,0.81141 v 3.08424 h 3.7333 c 2.8038,0.0677 3.1848,0.51884 3.1848,3.60308 v 40.15273 c -0.061,1.08092 -0.1371,1.50753 -0.4419,1.86784 -0.5486,0.65432 -1.981,0.94689 -5.2724,1.01462 h -0.5181 v 2.58846 h 19.7182 v -2.58846 h -0.5334 c -5.0895,-0.15853 -5.7752,-0.51884 -5.7752,-3.10873 v -47.42519 m 43.8553,36.90851 c 0.061,-10.80924 -6.4152,-18.442 -15.6953,-18.442 -9.7676,0 -17.0667,7.99307 -17.0667,18.80231 0,10.15637 6.9181,16.93448 17.2039,16.93448 7.3143,0 12.4343,-3.37681 15.5581,-10.22266 l -2.6666,-1.37349 c -3.1239,5.53865 -6.3391,7.7005 -11.4287,7.7005 -3.8857,0 -6.72,-1.50897 -8.7009,-4.75174 -1.3562,-2.16185 -1.9658,-4.68401 -1.9048,-8.6474 h 24.701 m -24.6248,-3.10729 c 0,-5.04431 2.4533,-12.25048 8.8534,-12.25048 4.5714,0 7.619,3.82792 7.619,9.66058 0,2.02782 -0.6857,2.5899 -3.139,2.5899 h -13.3334 m 82.865,-3.87259 c 0,-4.54997 -0.8381,-6.84586 -3.0476,-8.57966 -2.4991,-1.96007 -6.2477,-2.88246 -11.1239,-2.88246 -8.5943,0 -14.8572,3.80485 -14.8572,9.074 0,2.65763 1.7677,4.39143 4.4343,4.39143 2.4229,0 4.1143,-1.50897 4.1143,-3.67082 0,-0.94545 -0.3809,-1.93557 -1.1428,-2.94876 -0.4724,-0.51884 -0.5486,-0.65432 -0.5486,-1.01463 0,-1.44123 3.0476,-2.74699 6.72,-2.74699 2.4229,0 5.0896,0.72062 6.3086,1.80154 1.4476,1.17173 1.9962,2.88247 1.9962,6.12524 v 2.81473 c -7.9238,1.3072 -10.4534,1.86928 -14.1867,3.24277 -6.6286,2.32038 -9.7372,5.63089 -9.7372,10.24716 0,5.17835 4.2515,8.42112 11.0477,8.42112 5.2571,0 9.9657,-2.02637 13.2572,-5.69719 1.219,3.67082 3.1238,5.11205 6.6895,5.11205 3.4286,0 7.0248,-2.07105 7.0248,-4.16516 0,-0.51884 -0.3048,-0.87915 -0.7619,-0.87915 -0.3048,0 -0.6248,0.0908 -1.1429,0.29257 -1.0666,0.42804 -1.5238,0.51884 -2.1486,0.51884 -2.1333,0 -2.8952,-1.3072 -2.8952,-4.97657 V 512.5173 m -7.1467,8.78142 c 0,4.3237 -0.2438,5.33833 -1.5238,7.20617 -1.9048,2.65763 -5.3334,4.45917 -8.6857,4.45917 -3.5048,0 -6.0343,-2.36362 -6.0343,-5.6064 0,-3.041 1.6,-5.20284 4.9523,-6.71181 2.362,-1.01319 5.3334,-1.73381 11.2915,-2.65619 v 3.30906 m 30.3087,-19.16262 -13.1963,0.78691 v 3.10874 h 2.7734 c 2.88,0.0677 3.2609,0.49434 3.2609,3.60308 v 20.6053 c -0.076,1.08092 -0.1523,1.50753 -0.4571,1.86784 -0.5181,0.65432 -1.981,0.94689 -5.2572,1.01462 h -0.32 v 2.58846 h 19.2915 v -2.58846 h -0.3047 c -5.1048,-0.15853 -5.7905,-0.51884 -5.7905,-3.10873 v -10.65071 c 0,-3.53534 0.5181,-6.77812 1.3866,-8.44562 1.5848,-3.24277 5.0134,-5.47236 8.2743,-5.47236 2.0115,0 4.2972,1.01463 5.4401,2.52216 1.1428,1.5767 1.6609,3.73855 1.6609,7.20616 v 15.06664 c -0.076,1.08092 -0.1371,1.50753 -0.4571,1.86784 -0.5486,0.65432 -2.0724,0.94689 -5.3334,1.01462 h -0.3047 v 2.58846 h 19.2915 v -2.58846 h -0.3201 c -5.0133,-0.15853 -5.7143,-0.51884 -5.7143,-3.10873 V 515.5338 c 0,-5.17835 -0.2285,-6.48555 -1.5847,-8.93997 -1.9048,-3.44454 -5.7143,-5.53865 -10.2858,-5.53865 -4.9524,0 -8.7009,2.16185 -12.0533,6.91215 v -5.83123 m 46.0039,28.23806 c -4.1905,-0.0677 -4.4038,-0.13403 -5.3333,-0.65287 -0.5334,-0.26951 -0.9143,-1.08093 -0.9143,-1.86928 0,-2.16185 2.0571,-3.08424 7.1771,-3.24277 7.1315,-0.13404 8.2743,-0.29258 10.8801,-1.3735 4.5714,-1.93702 7.0857,-5.67413 7.0857,-10.44893 0,-2.88247 -0.6857,-4.68401 -2.7276,-7.04763 1.28,-1.3072 1.9657,-1.73524 2.56,-1.73524 0.3809,0 0.6247,0.22627 0.7619,1.01463 0.32,1.7338 1.5238,2.65619 3.4286,2.65619 2.0114,0 3.459,-1.50897 3.459,-3.44455 0,-2.45442 -2.0724,-4.18966 -5.0438,-4.18966 -2.4381,0 -3.8095,0.72062 -7.3143,3.73856 -3.1848,-2.00332 -5.6381,-2.72393 -9.4476,-2.72393 -9.082,0 -15.0096,4.7503 -15.0096,11.95646 0,4.2574 2.4381,7.86048 6.4152,9.66202 -5.12,1.08092 -7.2381,3.24277 -7.2381,7.20616 0,3.17504 1.5238,5.04431 5.0896,6.19153 -4.7086,1.66751 -6.9943,3.8971 -6.9943,6.84586 0,2.16185 1.5238,4.18966 3.9466,5.40462 2.9715,1.44123 6.6134,2.02781 12.1144,2.02781 12.7238,0 19.0476,-3.82935 19.0476,-11.39582 0,-3.60308 -1.7524,-6.48555 -4.4952,-7.56647 -2.0419,-0.72062 -4.4953,-1.01319 -9.661,-1.01319 h -7.7867 m 4.4953,-26.23475 c 4.7085,0 7.3752,3.1073 7.3752,8.73819 0,5.6064 -2.88,9.00771 -7.68,9.00771 -4.7238,0 -7.6953,-3.40131 -7.6953,-8.80593 0,-5.69719 2.9105,-8.93997 8.0001,-8.93997 m -0.6858,32.42773 c 6.3239,0 6.781,0 7.8477,0.15853 3.1238,0.29257 4.9524,1.86784 4.9524,4.16517 0,4.12192 -4.9524,6.48554 -13.3943,6.48554 -6.4763,0 -10.0725,-1.80154 -10.0725,-5.04431 0,-2.36362 1.3715,-3.96339 5.0134,-5.76493 h 5.6533 m 36.8459,-53.97847 -14.0953,0.81141 v 3.08424 h 3.7486 c 2.8038,0.0677 3.1847,0.51884 3.1847,3.60308 v 40.15273 c -0.076,1.08092 -0.1371,1.50753 -0.4571,1.86784 -0.5333,0.65432 -1.9657,0.94689 -5.2572,1.01462 h -0.5181 v 2.58846 h 19.7182 v -2.58846 h -0.5333 c -5.0896,-0.15853 -5.7905,-0.51884 -5.7905,-3.10873 v -47.42519 m 42.8649,29.92863 c 0,-4.54997 -0.8381,-6.84586 -3.0477,-8.57966 -2.499,-1.96007 -6.2324,-2.88246 -11.1238,-2.88246 -8.5943,0 -14.8572,3.80485 -14.8572,9.074 0,2.65763 1.7676,4.39143 4.4343,4.39143 2.4229,0 4.1143,-1.50897 4.1143,-3.67082 0,-0.94545 -0.381,-1.93557 -1.1429,-2.94876 -0.4723,-0.51884 -0.5485,-0.65432 -0.5485,-1.01463 0,-1.44123 3.0476,-2.74699 6.72,-2.74699 2.4228,0 5.0895,0.72062 6.3086,1.80154 1.4476,1.17173 1.9962,2.88247 1.9962,6.12524 v 2.81473 c -7.9239,1.3072 -10.4534,1.86928 -14.1867,3.24277 -6.6134,2.32038 -9.7372,5.63089 -9.7372,10.24716 0,5.17835 4.2667,8.42112 11.0476,8.42112 5.2572,0 9.981,-2.02637 13.2572,-5.69719 1.2191,3.67082 3.1238,5.11205 6.6896,5.11205 3.4285,0 7.0247,-2.07105 7.0247,-4.16516 0,-0.51884 -0.3047,-0.87915 -0.7619,-0.87915 -0.3047,0 -0.6095,0.0908 -1.1428,0.29257 -1.0667,0.42804 -1.5238,0.51884 -2.1334,0.51884 -2.1485,0 -2.9104,-1.3072 -2.9104,-4.97657 V 512.5173 m -7.1467,8.78142 c 0,4.3237 -0.2286,5.33833 -1.5238,7.20617 -1.9048,2.65763 -5.3334,4.45917 -8.6858,4.45917 -3.5048,0 -6.0191,-2.36362 -6.0191,-5.6064 0,-3.041 1.5848,-5.20284 4.9524,-6.71181 2.3467,-1.01319 5.3334,-1.73381 11.2763,-2.65619 v 3.30906 m 27.2,-37.11172 c -2.4533,0 -4.4343,1.86927 -4.4343,4.1666 0,2.31894 1.981,4.18822 4.3582,4.18822 2.499,0 4.48,-1.86928 4.48,-4.18822 0,-2.29733 -1.981,-4.1666 -4.4039,-4.1666 m 3.5658,17.9491 -14.3086,0.78691 v 3.10874 h 3.8857 c 2.88,0.0677 3.2609,0.49434 3.2609,3.60308 v 20.6053 c -0.076,1.08092 -0.1523,1.50753 -0.4571,1.86784 -0.5181,0.65432 -1.981,0.94689 -5.2572,1.01462 h -0.5333 v 2.58846 h 19.7486 v -2.58846 h -0.5485 c -5.1048,-0.15853 -5.7905,-0.51884 -5.7905,-3.10873 V 502.1361 m 38.0039,-0.78835 h -2.6667 l -2.2248,2.58989 c -2.7276,-2.02781 -5.4704,-2.88246 -9.28,-2.88246 -6.72,0 -11.1238,4.09742 -11.1238,10.44893 0,6.77812 4.6476,8.48886 10.7429,9.86235 l 4.0228,0.87915 c 6.0191,1.35044 8.1677,2.79167 8.1677,5.67414 0,3.4013 -3.1238,5.76492 -7.5429,5.76492 -6.4762,0 -11.0477,-3.87259 -12.8915,-11.07875 h -3.0476 v 13.60091 h 2.6667 l 2.6667,-2.9502 c 3.1238,2.38812 6.5524,3.53534 10.4533,3.53534 7.4515,0 12.4039,-4.38999 12.4039,-11.10181 0,-3.17504 -1.0667,-5.60639 -3.1848,-7.2739 -1.8286,-1.50753 -3.3524,-2.09411 -8,-3.0165 l -3.8096,-0.81141 c -4.1905,-0.85609 -4.1905,-0.85609 -5.5771,-1.57671 -1.661,-0.72062 -2.6667,-2.22815 -2.6667,-3.82791 0,-2.95021 2.9105,-4.95352 7.101,-4.95352 6.2324,0 9.28,4.16516 11.1238,9.20948 h 2.6667 v -12.09194 m 40.9753,18.14943 c 0.061,-10.80924 -6.4152,-18.442 -15.6952,-18.442 -9.7677,0 -17.0668,7.99307 -17.0668,18.80231 0,10.15637 6.9182,16.93448 17.2039,16.93448 7.3143,0 12.4343,-3.37681 15.5581,-10.22266 l -2.6666,-1.37349 c -3.1238,5.53865 -6.3391,7.7005 -11.4286,7.7005 -3.8858,0 -6.72,-1.50897 -8.701,-4.75174 -1.3562,-2.16185 -1.9657,-4.68401 -1.9048,-8.6474 h 24.701 m -24.6248,-3.10729 c 0,-5.04431 2.4534,-12.25048 8.8534,-12.25048 4.5714,0 7.619,3.82792 7.619,9.66058 0,2.02782 -0.6857,2.5899 -3.139,2.5899 h -13.3334 m 78.0802,-9.50349 10.1334,-13.03738 c 3.9619,-5.20285 6.1715,-6.64408 10.4381,-6.77956 h 1.2038 v -3.39987 h -20.9524 v 3.39987 h 1.0819 c 3.6419,0 5.2572,0.85609 5.2572,2.81617 0,0.78691 -0.2438,1.28269 -1.0667,2.43136 l -8.2438,11.32664 -10.1182,-13.8488 c -0.5485,-0.72062 -0.8533,-1.44123 -0.8533,-1.80154 0,-0.72062 0.6857,-0.92383 3.6572,-0.92383 h 2.9104 v -3.39987 h -23.5429 v 3.39987 h 1.28 c 4.1143,0.0677 4.7391,0.36031 6.4,2.72537 l 15.0096,20.56062 -12.3429,16.21386 c -3.3524,4.2329 -5.9429,5.67413 -9.9657,5.76493 h -0.32 v 3.37681 h 21.6534 v -3.37681 h -1.9048 c -3.0476,0 -4.9524,-1.3072 -4.9524,-3.46905 0,-0.94544 0.4419,-2.09411 1.2038,-3.17503 l 8.8381,-12.09194 11.3525,15.20068 c 0.7009,0.85465 1.0057,1.643 1.0057,2.22814 0,1.14866 -0.3048,1.2164 -5.12,1.3072 h -2.1181 v 3.37681 h 24.9753 v -3.37681 h -0.8991 c -5.1048,-0.0908 -5.5771,-0.29257 -8,-3.76162 l -16.0001,-21.68622 m 53.9278,17.6551 -13.9581,-33.44091 c -0.381,-0.94545 -0.6248,-1.86928 -0.6248,-2.22959 0,-1.30576 1.3105,-1.80154 4.7391,-1.80154 h 3.0476 v -3.39987 h -23.7867 v 3.39987 h 1.5238 c 3.5352,0.0677 4.6781,0.85609 5.8819,4.03113 l 19.261,45.69138 h 3.0476 l 17.5544,-42.67344 c 2.2857,-5.60784 3.8857,-6.91359 8.2895,-7.04907 h 0.7619 v -3.39987 h -20.6476 v 3.39987 h 1.4476 c 3.8857,0 6.1714,1.44123 6.1714,3.73856 0,1.01318 -0.3809,2.58989 -0.899,4.03112 l -11.8096,29.70236 m 30.202,-37.47204 h 1.5238 c 4.3429,0.0677 5.7905,0.29401 6.3848,1.01463 0.4724,0.62982 0.4724,0.85465 0.4724,4.45773 v 34.297 c 0,3.60308 0,3.82791 -0.4724,4.48223 -0.5943,0.72062 -2.0419,1.01319 -6.3848,1.01319 h -1.5238 v 3.37681 h 25.2191 v -3.37681 h -1.5238 c -4.2667,0 -5.7143,-0.22627 -6.3238,-1.01319 -0.4572,-0.65432 -0.4572,-0.78835 -0.4572,-4.48223 v -34.297 c 0,-3.67082 0,-3.82791 0.4572,-4.45773 0.6095,-0.72062 1.9657,-0.94689 6.3238,-1.01463 h 1.5238 v -3.39987 h -25.2191 v 3.39987 m 31.0096,0 h 1.5238 c 4.3277,0.0677 5.7905,0.29401 6.3848,1.01463 0.4724,0.62982 0.4724,0.85465 0.4724,4.45773 v 34.297 c 0,3.60308 0,3.82791 -0.4724,4.48223 -0.5943,0.72062 -2.0571,1.01319 -6.3848,1.01319 h -1.5238 v 3.37681 h 25.2191 v -3.37681 h -1.5238 c -4.2666,0 -5.7143,-0.22627 -6.339,-1.01319 -0.4572,-0.65432 -0.4572,-0.78835 -0.4572,-4.48223 v -34.297 c 0,-3.67082 0,-3.82791 0.4572,-4.45773 0.6247,-0.72062 1.9809,-0.94689 6.339,-1.01463 h 1.5238 v -3.39987 h -25.2191 v 3.39987 m 30.9944,0 h 1.5238 c 4.3429,0.0677 5.7905,0.29401 6.3848,1.01463 0.4724,0.62982 0.4724,0.85465 0.4724,4.45773 v 34.297 c 0,3.60308 0,3.82791 -0.4724,4.48223 -0.5943,0.72062 -2.0419,1.01319 -6.3848,1.01319 h -1.5238 v 3.37681 h 25.2191 v -3.37681 h -1.5238 c -4.2667,0 -5.7143,-0.22627 -6.3391,-1.01319 -0.4419,-0.65432 -0.4419,-0.78835 -0.4419,-4.48223 v -34.297 c 0,-3.67082 0,-3.82791 0.4419,-4.45773 0.6248,-0.72062 1.981,-0.94689 6.3391,-1.01463 h 1.5238 v -3.39987 h -25.2191 v 3.39987 m 78.9793,14.27829 h -2.6667 l -2.2095,2.58989 c -2.7429,-2.02781 -5.4858,-2.88246 -9.2953,-2.88246 -6.7048,0 -11.1086,4.09742 -11.1086,10.44893 0,6.77812 4.6324,8.48886 10.7277,9.86235 l 4.0228,0.87915 c 6.0343,1.35044 8.1677,2.79167 8.1677,5.67414 0,3.4013 -3.1086,5.76492 -7.5429,5.76492 -6.4762,0 -11.0477,-3.87259 -12.8762,-11.07875 h -3.0477 v 13.60091 h 2.6667 l 2.6667,-2.9502 c 3.1086,2.38812 6.5371,3.53534 10.4533,3.53534 7.4515,0 12.4039,-4.38999 12.4039,-11.10181 0,-3.17504 -1.0819,-5.60639 -3.2,-7.2739 -1.8286,-1.50753 -3.3524,-2.09411 -8,-3.0165 l -3.8096,-0.81141 c -4.1905,-0.85609 -4.1905,-0.85609 -5.5619,-1.57671 -1.6762,-0.72062 -2.6667,-2.22815 -2.6667,-3.82791 0,-2.95021 2.8953,-4.95352 7.0858,-4.95352 6.2476,0 9.2952,4.16516 11.1238,9.20948 h 2.6667 v -12.09194 m 17.661,-17.16075 c -2.4534,0 -4.4191,1.86927 -4.4191,4.1666 0,2.31894 1.9657,4.18822 4.3581,4.18822 2.4991,0 4.4648,-1.86928 4.4648,-4.18822 0,-2.29733 -1.9657,-4.1666 -4.4038,-4.1666 m 3.5809,17.9491 -14.3086,0.78691 v 3.10874 h 3.8705 c 2.88,0.0677 3.261,0.49434 3.261,3.60308 v 20.6053 c -0.061,1.08092 -0.1372,1.50753 -0.4419,1.86784 -0.5334,0.65432 -1.981,0.94689 -5.2724,1.01462 h -0.5181 v 2.58846 h 19.7334 v -2.58846 h -0.5486 c -5.0895,-0.15853 -5.7753,-0.51884 -5.7753,-3.10873 V 502.1361 m 33.8744,-4.97801 -10.6667,-10.08863 c -1.9047,-1.80154 -2.6666,-2.22815 -3.8095,-2.22815 -1.5238,0 -2.6667,1.08093 -2.6667,2.52216 0,0.99013 0.7619,2.07105 1.9048,2.79167 l 12.1296,7.00295 h 3.1085 m 9.8439,22.33909 c 0.061,-10.80924 -6.4153,-18.442 -15.6953,-18.442 -9.7677,0 -17.0667,7.99307 -17.0667,18.80231 0,10.15637 6.9181,16.93448 17.2038,16.93448 7.3143,0 12.4344,-3.37681 15.5582,-10.22266 l -2.6667,-1.37349 c -3.1238,5.53865 -6.3391,7.7005 -11.4286,7.7005 -3.8857,0 -6.72,-1.50897 -8.701,-4.75174 -1.3562,-2.16185 -1.9657,-4.68401 -1.9048,-8.6474 h 24.7011 m -24.6249,-3.10729 c 0,-5.04431 2.4534,-12.25048 8.8534,-12.25048 4.5714,0 7.6191,3.82792 7.6191,9.66058 0,2.02782 -0.6858,2.5899 -3.1391,2.5899 h -13.3334 m 56.7316,8.73819 c -2.4228,5.17835 -5.0133,7.2739 -8.9752,7.2739 -6.0953,0 -9.9048,-5.27059 -9.9048,-13.69171 0,-8.80593 3.7486,-14.57086 9.3562,-14.57086 2.2857,0 4.2971,1.01319 4.2971,2.16185 0,0.22483 -0.1066,0.45111 -0.4876,0.87915 -1.2038,1.3735 -1.5238,2.09411 -1.5238,3.30907 0,2.38812 1.9048,4.03113 4.5715,4.03113 2.7733,0 4.6781,-2.00331 4.6781,-4.88578 0,-4.91028 -5.1201,-8.57965 -11.9163,-8.57965 -9.9048,0 -16.9752,7.63276 -16.9752,18.442 0,10.22411 6.4762,17.29479 15.939,17.29479 6.7505,0 10.6667,-2.94876 13.9277,-10.58297 l -2.9867,-1.08092 m 18.7429,-42.53941 -14.0952,0.81141 v 3.08424 h 3.7333 c 2.8191,0.0677 3.2,0.51884 3.2,3.60308 v 40.15273 c -0.076,1.08092 -0.1524,1.50753 -0.4571,1.86784 -0.5486,0.65432 -1.981,0.94689 -5.2572,1.01462 h -0.5333 v 2.58846 h 19.7181 v -2.58846 h -0.5181 c -5.1047,-0.15853 -5.7905,-0.51884 -5.7905,-3.10873 v -47.42519 m 43.8554,36.90851 c 0.076,-10.80924 -6.4,-18.442 -15.6953,-18.442 -9.7524,0 -17.0667,7.99307 -17.0667,18.80231 0,10.15637 6.9334,16.93448 17.2191,16.93448 7.3143,0 12.4191,-3.37681 15.5429,-10.22266 l -2.6667,-1.37349 c -3.1238,5.53865 -6.3238,7.7005 -11.4286,7.7005 -3.8857,0 -6.7048,-1.50897 -8.6857,-4.75174 -1.3562,-2.16185 -1.981,-4.68401 -1.9048,-8.6474 h 24.6858 m -24.6096,-3.10729 c 0,-5.04431 2.4381,-12.25048 8.8534,-12.25048 4.5714,0 7.619,3.82792 7.619,9.66058 0,2.02782 -0.7009,2.5899 -3.139,2.5899 h -13.3334"
     id="path36"
     style="stroke-width:1.48195" />
  <path
     class="Text"
     d="m 1514.4664,196.90906 h -6.2172 l -6.6895,9.50349 c -8.0458,-7.13843 -18.621,-10.94472 -30.522,-10.94472 -22.1105,0 -36.6934,13.1743 -36.6934,33.14834 0,17.27317 9.0514,25.82976 33.6915,31.86564 l 15.9391,3.80486 c 12.4038,3.01794 13.5619,3.33357 17.0819,5.85572 5.0286,3.64776 7.7258,8.89529 7.7258,15.0652 0,6.35007 -2.5296,11.57454 -7.5582,16.01065 -5.5466,4.43612 -11.0628,6.19298 -20.2819,6.19298 -25.3106,0 -37.882,-17.61042 -42.2401,-39.00263 h -7.2077 l 0.6705,45.17254 h 6.5372 l 7.5581,-10.76312 c 11.2,8.71513 20.4191,11.89017 35.1848,11.89017 24.6401,0 40.3963,-13.64703 40.3963,-34.88215 0,-9.99927 -3.3523,-18.24167 -10.0571,-24.25449 -4.5258,-4.12049 -11.0477,-6.8228 -24.4877,-9.99783 l -17.9201,-4.27902 c -14.9029,-3.64776 -21.9581,-9.81767 -21.9581,-19.50131 0,-11.10181 9.5543,-18.71296 23.8172,-18.71296 21.6077,0 33.5239,16.97916 38.0344,35.03924 h 7.1924 l -1.9962,-41.2106 m 80.5945,92.10483 c -5.3486,11.416 -11.0476,16.01065 -19.7639,16.01065 -13.3943,0 -21.7753,-11.57454 -21.7753,-30.10878 0,-19.34422 8.2134,-32.04436 20.5868,-32.04436 5.0438,0 9.4019,2.22958 9.4019,4.77336 0,0.47416 -0.1676,0.94689 -1.021,1.89234 -2.6666,3.01794 -3.3371,4.5932 -3.3371,7.29551 0,5.22447 4.1905,8.87367 10.0572,8.87367 6.0495,0 10.24,-4.43611 10.24,-10.76456 0,-10.78618 -11.2458,-18.8715 -26.1791,-18.8715 -21.7753,0 -37.3792,16.79901 -37.3792,40.57934 0,22.51925 14.2629,38.05862 35.0477,38.05862 14.9029,0 23.4515,-6.50861 30.6744,-23.30761 l -6.5524,-2.38668 m 85.486,-27.74372 c 0,-9.97621 -1.8438,-15.06664 -6.72,-18.8715 -5.5315,-4.27901 -13.7448,-6.32845 -24.4573,-6.32845 -18.9562,0 -32.6858,8.39951 -32.6858,19.97548 0,5.85429 3.8553,9.66058 9.7067,9.66058 5.3639,0 9.0515,-3.33357 9.0515,-8.08531 0,-2.04943 -0.8381,-4.27758 -2.4991,-6.48555 -1.0209,-1.1256 -1.1885,-1.44123 -1.1885,-2.22958 0,-3.17504 6.72,-6.03444 14.7657,-6.03444 5.3486,0 11.2305,1.59833 13.8972,3.96339 3.2,2.54521 4.3581,6.35007 4.3581,13.48849 v 6.17136 c -17.4324,2.8594 -22.9486,4.12048 -31.162,7.13842 -14.5981,5.08899 -21.4553,12.36289 -21.4553,22.51925 0,11.41744 9.3867,18.55587 24.3048,18.55587 11.5505,0 21.9582,-4.45918 29.1658,-12.54305 2.6667,8.08387 6.8572,11.25891 14.7506,11.25891 7.5428,0 15.421,-4.59321 15.421,-9.18786 0,-1.10398 -0.6705,-1.91395 -1.6915,-1.91395 -0.6705,0 -1.3257,0.18015 -2.499,0.65288 -2.3619,0.94544 -3.3524,1.10398 -4.6934,1.10398 -4.7086,0 -6.3695,-2.86085 -6.3695,-10.94472 v -31.8642 m -15.7715,19.34278 c 0,9.50348 -0.5029,11.73307 -3.3372,15.85355 -4.1904,5.85573 -11.7333,9.81912 -19.1086,9.81912 -7.7257,0 -13.2419,-5.22447 -13.2419,-12.36289 0,-6.64408 3.52,-11.41745 10.88,-14.72796 5.2115,-2.22958 11.7334,-3.80629 24.8077,-5.87734 v 7.29552 m 66.3773,-42.17766 -29.6534,1.75686 v 6.82279 h 6.8572 c 6.3695,0.1571 7.2076,1.10398 7.2076,7.92678 v 45.33107 c -0.1676,2.38669 -0.3352,3.33357 -1.0057,4.12049 -1.1581,1.41961 -4.5257,2.07249 -11.7334,2.22958 h -0.6704 v 5.69719 h 44.7696 v -5.69719 h -3.0324 c -11.2305,-0.33724 -12.7391,-1.1256 -12.7391,-6.82279 v -8.55804 c 0.1677,-26.63973 10.2248,-46.9294 23.2992,-47.56066 -2.3467,2.52216 -3.002,4.12193 -3.002,7.11681 0,5.08899 3.8553,8.73675 9.2039,8.73675 6.2019,0 10.2248,-4.27758 10.2248,-10.62909 0,-7.76824 -5.6991,-12.83562 -14.5829,-12.83562 -10.5601,0 -19.6115,7.92678 -25.143,22.02347 v -19.6584 m 69.0288,-42.96746 -28.8306,1.75686 v 6.8228 h 5.882 c 6.3543,0.15853 7.1924,1.10398 7.1924,7.92677 v 61.6588 c 0,22.04653 -1.0057,34.09379 -3.0019,40.91658 h 6.3543 l 8.2133,-12.38451 c 6.8877,8.57966 14.7658,12.54305 25.1429,12.54305 20.7849,0 36.0535,-16.82207 36.0535,-39.79242 0,-22.83345 -14.0953,-38.84554 -34.1944,-38.84554 -10.24,0 -16.4267,3.33357 -22.8115,12.36289 v -52.96528 m 19.7944,48.68771 c 12.5714,0 19.6114,11.57453 19.6114,32.33692 0,20.13258 -6.8876,31.39148 -19.1238,31.39148 -13.2267,0 -21.1201,-11.57453 -21.1201,-31.07585 0,-21.23655 7.2229,-32.65255 20.6325,-32.65255 m 85.4707,-8.08532 c -20.6172,0 -36.5563,17.27317 -36.5563,39.4768 0,21.70783 16.1067,39.16116 36.221,39.16116 20.1144,0 36.2211,-17.45333 36.2211,-39.3197 0,-21.7309 -16.1067,-39.31826 -35.8858,-39.31826 m 0,6.80118 c 11.7333,0 18.2553,11.57453 18.2553,32.51708 0,21.07802 -6.522,32.49546 -18.5906,32.49546 -12.0686,0 -18.5905,-11.41744 -18.5905,-32.33692 0,-21.57381 6.3543,-32.67562 18.9258,-32.67562 m 74.7431,-4.43611 -29.6687,1.75686 v 6.82279 h 6.8572 c 6.3695,0.1571 7.2076,1.10398 7.2076,7.92678 v 45.33107 c -0.1676,2.38669 -0.3352,3.33357 -0.9905,4.12049 -1.1733,1.41961 -4.5257,2.07249 -11.7486,2.22958 h -0.6705 v 5.69719 h 44.7697 v -5.69719 h -3.0172 c -11.2457,-0.33724 -12.739,-1.1256 -12.739,-6.82279 v -8.55804 c 0.1676,-26.63973 10.2095,-46.9294 23.2838,-47.56066 -2.3314,2.52216 -3.0019,4.12193 -3.0019,7.11681 0,5.08899 3.8553,8.73675 9.2191,8.73675 6.1867,0 10.2095,-4.27758 10.2095,-10.62909 0,-7.76824 -5.699,-12.83562 -14.5676,-12.83562 -10.5753,0 -19.6267,7.92678 -25.1429,22.02347 v -19.6584 m 82.5907,-2.36507 c -20.6172,0 -36.5563,17.27317 -36.5563,39.4768 0,21.70783 16.1067,39.16116 36.221,39.16116 20.1144,0 36.2211,-17.45333 36.2211,-39.3197 0,-21.7309 -16.1067,-39.31826 -35.8858,-39.31826 m 0,6.80118 c 11.7333,0 18.2553,11.57453 18.2553,32.51708 0,21.07802 -6.522,32.49546 -18.5906,32.49546 -12.0686,0 -18.5905,-11.41744 -18.5905,-32.33692 0,-21.57381 6.3543,-32.67562 18.9258,-32.67562 m 110.5984,70.55264 30.522,-1.10399 v -6.82279 h -4.1905 c -9.7372,-0.31563 -10.5753,-1.26108 -10.5753,-11.57453 v -55.48744 l -31.4972,1.75686 v 6.82279 h 8.5486 c 6.3543,0.1571 7.1924,1.10398 7.1924,7.92678 v 19.47969 c 0,13.80412 -3.5048,30.60313 -21.9582,30.60313 -5.1962,0 -9.539,-1.7338 -11.7333,-4.90884 -2.1639,-3.01794 -2.4991,-4.59465 -2.4991,-13.30978 v -48.37063 l -29.3334,1.75686 v 6.82279 h 6.3543 c 6.3848,0.1571 7.2076,1.10398 7.2076,7.92678 v 34.22926 c 0,8.08387 0.6705,11.73307 3.2,15.38083 4.5258,6.50717 12.5715,10.15637 22.6134,10.15637 11.0782,0 18.7887,-4.27902 26.1487,-14.43539 v 13.15125 m 65.8592,-12.83562 c -9.219,-0.15853 -9.7219,-0.31563 -11.7486,-1.41961 -1.1581,-0.62982 -1.9962,-2.38668 -1.9962,-4.12048 0,-4.77336 4.5258,-6.8228 15.741,-7.13843 15.7563,-0.31562 18.2858,-0.63125 23.9696,-3.01794 10.0572,-4.27901 15.6039,-12.51998 15.6039,-22.99197 0,-6.32845 -1.5238,-10.29184 -6.0496,-15.53793 2.8496,-2.83778 4.3581,-3.80629 5.7143,-3.80629 0.8381,0 1.3257,0.49578 1.661,2.22958 0.6705,3.8063 3.3676,5.85573 7.5581,5.85573 4.3429,0 7.5429,-3.31051 7.5429,-7.58953 0,-5.40462 -4.5257,-9.21091 -11.0781,-9.21091 -5.3486,0 -8.381,1.59977 -16.0915,8.2424 -7.0248,-4.43611 -12.4039,-6.01282 -20.7848,-6.01282 -19.9468,0 -33.0211,10.44894 -33.0211,26.30249 0,9.36801 5.3791,17.29479 14.0953,21.25818 -11.2458,2.36506 -15.9391,7.13842 -15.9391,15.85355 0,6.98133 3.3676,11.10181 11.2457,13.62397 -10.4076,3.6492 -15.4362,8.55804 -15.4362,15.0652 0,4.75174 3.3676,9.18785 8.7162,11.89016 6.5524,3.17648 14.5829,4.43756 26.6515,4.43756 27.9925,0 41.9049,-8.40094 41.9049,-25.04141 0,-7.92678 -3.8552,-14.27829 -9.8895,-16.64191 -4.5258,-1.59977 -9.8744,-2.22959 -21.2877,-2.22959 h -17.082 m 9.8743,-57.71702 c 10.4077,0 16.2591,6.82279 16.2591,19.18568 0,12.36433 -6.3543,19.81694 -16.9295,19.81694 -10.3772,0 -16.9296,-7.45261 -16.9296,-19.34277 0,-12.52143 6.3848,-19.65985 17.6,-19.65985 m -1.4933,71.34099 c 13.8972,0 14.9029,0 17.2496,0.33725 6.8876,0.63126 10.9105,4.12193 10.9105,9.18786 0,9.03076 -10.9105,14.25522 -29.5011,14.25522 -14.2629,0 -22.141,-3.96338 -22.141,-11.08019 0,-5.24608 3.0172,-8.73675 11.0782,-12.70014 h 12.4038 m 80.5945,-118.74456 -31.0096,1.75686 v 6.8228 h 8.0457 c 6.3696,0.15853 7.1924,1.10398 7.1924,7.92677 v 88.45563 c -0.1676,2.22959 -0.3352,3.17647 -0.9904,3.96339 -1.1734,1.41961 -4.3581,2.07249 -11.581,2.22958 h -0.6553 v 5.69719 h 42.3925 v -5.69719 h -0.6552 c -11.2457,-0.33724 -12.7391,-1.1256 -12.7391,-6.82279 v -23.4647 c 0,-7.76968 1.1581,-14.90811 3.0172,-18.55587 3.6876,-7.13842 11.0476,-12.0487 18.2705,-12.0487 4.3429,0 9.3715,2.38812 11.7334,5.56316 2.6819,3.4676 3.8552,8.24097 3.8552,16.01065 v 33.12528 c -0.1676,2.22959 -0.3352,3.17647 -1.0057,3.96339 -1.1886,1.41961 -4.541,2.07249 -11.7334,2.22958 h -0.6704 v 5.69719 h 42.4077 v -5.69719 h -0.6705 c -11.0629,-0.33724 -12.5714,-1.1256 -12.5714,-6.82279 v -31.8642 c 0,-11.41744 -0.5181,-14.27829 -3.5201,-19.65985 -4.1904,-7.76968 -12.5714,-12.2058 -22.6438,-12.2058 -10.8801,0 -18.9258,4.59465 -26.4687,15.22374 v -55.82613 m 220.0692,2.38812 h -99.7336 v 7.45261 h 3.0172 c 9.5543,0.15854 12.739,0.63126 14.0648,2.22959 1.0057,1.41961 1.0057,1.7338 1.0057,9.81911 v 75.46148 c 0,8.08531 0,8.3995 -1.0057,9.84074 -1.3258,1.5767 -4.5105,2.20796 -14.0648,2.20796 h -3.0172 v 7.45261 h 57.4935 v -7.45261 h -5.5314 c -9.5696,0 -12.7239,-0.63126 -14.0953,-2.20796 -0.9905,-1.44124 -0.9905,-1.91396 -0.9905,-9.84074 v -35.98613 h 3.3524 c 17.2648,-0.62981 23.4515,5.22447 24.1525,22.83489 h 7.8476 v -51.99678 h -7.8476 c -1.0362,15.53793 -7.5582,21.55075 -23.482,21.70928 h -4.0229 v -36.14466 c -0.1676,-6.6657 1.4933,-7.76824 10.5448,-7.92678 h 7.7105 c 27.5048,-0.15709 34.3925,5.69864 39.5734,32.96819 h 7.3905 l -2.3619,-40.4208 m 77.0745,63.41422 c 0,-9.97621 -1.8438,-15.06664 -6.72,-18.8715 -5.5162,-4.27901 -13.7448,-6.32845 -24.4572,-6.32845 -18.941,0 -32.6858,8.39951 -32.6858,19.97548 0,5.85429 3.8553,9.66058 9.7219,9.66058 5.3486,0 9.0363,-3.33357 9.0363,-8.08531 0,-2.04943 -0.8229,-4.27758 -2.4991,-6.48555 -1.021,-1.1256 -1.1886,-1.44123 -1.1886,-2.22958 0,-3.17504 6.72,-6.03444 14.7658,-6.03444 5.3486,0 11.2305,1.59833 13.8972,3.96339 3.2,2.54521 4.3581,6.35007 4.3581,13.48849 v 6.17136 c -17.4172,2.8594 -22.9487,4.12048 -31.162,7.13842 -14.5982,5.08899 -21.4553,12.36289 -21.4553,22.51925 0,11.41744 9.3867,18.55587 24.3048,18.55587 11.5505,0 21.9582,-4.45918 29.181,-12.54305 2.6667,8.08387 6.8572,11.25891 14.7353,11.25891 7.5429,0 15.421,-4.59321 15.421,-9.18786 0,-1.10398 -0.6705,-1.91395 -1.6914,-1.91395 -0.6553,0 -1.3257,0.18015 -2.4991,0.65288 -2.3466,0.94544 -3.3524,1.10398 -4.6933,1.10398 -4.7086,0 -6.3696,-2.86085 -6.3696,-10.94472 v -31.8642 m -15.7714,19.34278 c 0,9.50348 -0.5029,11.73307 -3.3219,15.85355 -4.1905,5.85573 -11.7486,9.81912 -19.1239,9.81912 -7.7105,0 -13.242,-5.22447 -13.242,-12.36289 0,-6.64408 3.5201,-11.41745 10.8801,-14.72796 5.2114,-2.22958 11.7333,-3.80629 24.8077,-5.87734 v 7.29552 m 59.8401,-81.65446 c -5.3638,0 -9.7219,4.12193 -9.7219,9.21092 0,5.06593 4.3581,9.18785 9.5543,9.18785 5.5467,0 9.9048,-4.12192 9.9048,-9.18785 0,-5.08899 -4.3581,-9.21092 -9.7372,-9.21092 m 7.8782,39.4768 -31.4973,1.75686 v 6.82279 h 8.5486 c 6.3543,0.1571 7.1924,1.10398 7.1924,7.92678 v 45.33107 c -0.1676,2.38669 -0.3352,3.33357 -1.0057,4.12049 -1.1733,1.41961 -4.3581,2.07249 -11.5657,2.22958 h -1.1734 v 5.69719 h 43.4287 v -5.69719 h -1.1886 c -11.2152,-0.33724 -12.739,-1.1256 -12.739,-6.82279 v -61.36478 m 51.4592,0 -29.6687,1.75686 v 6.82279 h 6.8572 c 6.3695,0.1571 7.2076,1.10398 7.2076,7.92678 v 45.33107 c -0.1676,2.38669 -0.3352,3.33357 -0.9905,4.12049 -1.1733,1.41961 -4.5257,2.07249 -11.7486,2.22958 h -0.6705 v 5.69719 h 44.7697 v -5.69719 h -3.0172 c -11.2457,-0.33724 -12.739,-1.1256 -12.739,-6.82279 v -8.55804 c 0.1676,-26.63973 10.2095,-46.9294 23.2838,-47.56066 -2.3314,2.52216 -3.0019,4.12193 -3.0019,7.11681 0,5.08899 3.8553,8.73675 9.2191,8.73675 6.1867,0 10.2096,-4.27758 10.2096,-10.62909 0,-7.76824 -5.6991,-12.83562 -14.5677,-12.83562 -10.5753,0 -19.6267,7.92678 -25.1429,22.02347 v -19.6584"
     id="path38"
     style="stroke-width:1.48195" />
  <path
     class="MeasureNumber"
     d="m 167.79731,1586.6748 c 1.04686,-5.0875 2.26134,-8.2438 4.57145,-12.1207 2.76115,-4.5399 6.04801,-6.8603 9.68993,-6.8603 1.90477,0 3.04763,0.6918 3.04763,1.8015 0,0.4036 -0.11886,0.6198 -0.54705,1.3692 -0.54705,0.9945 -0.78629,1.6718 -0.78629,2.5366 0,1.8592 1.45219,3.113 3.52458,3.113 2.49906,0 4.21335,-1.7294 4.21335,-4.3236 0,-3.9202 -3.90401,-6.8027 -9.33336,-6.8027 -13.57109,0 -21.80883,16.776 -21.80883,27.8302 0,8.5033 4.45258,13.6053 11.88118,13.6053 9.14288,0 15.90404,-7.1341 15.90404,-15.6086 0,-5.8658 -4.19048,-9.9733 -10.28574,-9.9733 -4.26211,0 -7.57031,1.7439 -10.07089,5.4334 m 8.11888,-2.1042 c 3.78516,0 5.85755,2.479 5.85755,6.99 0,7.3215 -4.09602,12.899 -9.52384,12.899 -3.90554,0 -6.21412,-2.6951 -6.21412,-7.3214 0,-7.2062 4.21335,-12.5676 9.88041,-12.5676"
     id="path40"
     style="stroke-width:1.48195" />
  <path
     class="MeasureNumber"
     d="m 184.63089,2440.8643 h -1.76153 c -3.35849,2.3637 -9.81032,4.367 -14.21566,4.367 l -0.71315,2.5365 h 4.19049 c 3.71354,0 4.14173,0.1153 4.14173,1.153 0,0.5189 0,0.5189 -0.59429,2.5942 l -6.52345,23.0598 c -0.81067,2.8824 -0.85791,3.0554 -1.40495,3.5742 -0.6202,0.5621 -1.90477,0.7495 -5.12002,0.8071 h -2.61791 l -0.31086,2.7095 h 22.54788 l 0.35809,-2.7095 h -3.28687 c -3.95124,0 -4.80915,-0.2882 -4.80915,-1.5421 0,-0.418 0.23771,-1.7439 0.54857,-2.8392 l 9.57108,-33.7105 m 32.4039,28.8679 -1.57105,2.6519 c -2.45182,3.9922 -2.92877,4.3237 -6.04802,4.3669 h -14.11814 c 1.4522,-1.8159 4.14325,-3.9634 8.99965,-7.2061 8.04726,-5.2173 8.59583,-5.5776 10.31012,-6.8459 4.88078,-3.5742 6.88002,-6.9756 6.88002,-11.5298 0,-6.0532 -4.73753,-10.0887 -11.76079,-10.0887 -7.78669,0 -14.54785,5.4335 -14.54785,11.7172 0,3.214 1.80876,5.2894 4.73753,5.2894 2.19125,0 3.90554,-1.5566 3.90554,-3.6896 0,-1.4845 -0.78629,-2.4789 -2.80991,-3.5166 -1.4522,-0.7062 -1.69144,-0.9656 -1.69144,-1.6718 0,-2.4789 4.50135,-5.2461 8.64308,-5.2461 4.2621,0 7.14364,2.7095 7.14364,6.7594 0,4.2948 -2.02363,7.48 -7.50022,11.9766 -16.2149,13.317 -18.66672,15.7383 -19.21377,18.9666 h 26.14256 l 4.71468,-11.1263 -2.21563,-0.8071"
     id="path42"
     style="stroke-width:1.48195" />
  <path
     class="SlurSegment"
     stroke="#000000"
     stroke-width="1.83762"
     stroke-linecap="round"
     stroke-linejoin="round"
     fill-rule="evenodd"
     d="m 2825.1597,923.28721 c 102.9184,60.22482 411.6431,60.22482 514.5463,0 -102.9032,71.66242 -411.6279,71.66242 -514.5463,0"
     id="path44" />
  <polyline
     class="BarLine"
     fill="none"
     stroke="#000000"
     stroke-width="4.46"
     stroke-linejoin="bevel"
     points="1322.54,1848.03 1322.54,1949.96"
     id="polyline46"
     transform="matrix(1.523814,0,0,1.4412322,-164.25851,-112.26407)" />
  <polyline
     class="BarLine"
     fill="none"
     stroke="#000000"
     stroke-width="4.46"
     stroke-linejoin="bevel"
     points="1216.85,1240.43 1216.85,1342.36"
     id="polyline48"
     transform="matrix(1.523814,0,0,1.4412322,-164.25851,-112.26407)" />
  <polyline
     class="BarLine"
     fill="none"
     stroke="#000000"
     stroke-width="4.46"
     stroke-linejoin="bevel"
     points="844.386,1848.03 844.386,1949.96"
     id="polyline50"
     transform="matrix(1.523814,0,0,1.4412322,-164.25851,-112.26407)" />
  <polyline
     class="BarLine"
     fill="none"
     stroke="#000000"
     stroke-width="4.46"
     stroke-linejoin="bevel"
     points="1912.46,632.834 1912.46,734.762"
     id="polyline52"
     transform="matrix(1.523814,0,0,1.4412322,-164.25851,-112.26407)" />
  <polyline
     class="BarLine"
     fill="none"
     stroke="#000000"
     stroke-width="4.46"
     stroke-linejoin="bevel"
     points="2762.37,1240.43 2762.37,1342.36"
     id="polyline54"
     transform="matrix(1.523814,0,0,1.4412322,-164.25851,-112.26407)" />
  <polyline
     class="BarLine"
     fill="none"
     stroke="#000000"
     stroke-width="4.46"
     stroke-linejoin="bevel"
     points="2250.13,632.834 2250.13,734.762"
     id="polyline56"
     transform="matrix(1.523814,0,0,1.4412322,-164.25851,-112.26407)" />
  <polyline
     class="BarLine"
     fill="none"
     stroke="#000000"
     stroke-width="4.46"
     stroke-linejoin="bevel"
     points="2301.62,1240.43 2301.62,1342.36"
     id="polyline58"
     transform="matrix(1.523814,0,0,1.4412322,-164.25851,-112.26407)" />
  <polyline
     class="BarLine"
     fill="none"
     stroke="#000000"
     stroke-width="4.46"
     stroke-linejoin="bevel"
     points="2762.37,632.834 2762.37,734.762"
     id="polyline60"
     transform="matrix(1.523814,0,0,1.4412322,-164.25851,-112.26407)" />
  <polyline
     class="BarLine"
     fill="none"
     stroke="#000000"
     stroke-width="4.46"
     stroke-linejoin="bevel"
     points="1911.75,1240.43 1911.75,1342.36"
     id="polyline62"
     transform="matrix(1.523814,0,0,1.4412322,-164.25851,-112.26407)" />
  <polyline
     class="BarLine"
     fill="none"
     stroke="#000000"
     stroke-width="4.46"
     stroke-linejoin="bevel"
     points="756.104,1240.43 756.104,1342.36"
     id="polyline64"
     transform="matrix(1.523814,0,0,1.4412322,-164.25851,-112.26407)" />
  <polyline
     class="BarLine"
     fill="none"
     stroke="#000000"
     stroke-width="4.46"
     stroke-linejoin="bevel"
     points="1521.88,1240.43 1521.88,1342.36"
     id="polyline66"
     transform="matrix(1.523814,0,0,1.4412322,-164.25851,-112.26407)" />
  <polyline
     class="BarLine"
     fill="none"
     stroke="#000000"
     stroke-width="4.46"
     stroke-linejoin="bevel"
     points="2367.38,1848.03 2367.38,1949.96"
     id="polyline68"
     transform="matrix(1.523814,0,0,1.4412322,-164.25851,-112.26407)" />
  <polyline
     class="BarLine"
     fill="none"
     stroke="#000000"
     stroke-width="4.46"
     stroke-linejoin="bevel"
     points="1410.65,632.834 1410.65,734.762"
     id="polyline70"
     transform="matrix(1.523814,0,0,1.4412322,-164.25851,-112.26407)" />
  <polyline
     class="BarLine"
     fill="none"
     stroke="#000000"
     stroke-width="4.46"
     stroke-linejoin="bevel"
     points="2739.55,1848.03 2739.55,1949.96"
     id="polyline72"
     transform="matrix(1.523814,0,0,1.4412322,-164.25851,-112.26407)" />
  <polyline
     class="BarLine"
     fill="none"
     stroke="#000000"
     stroke-width="13.64"
     stroke-linejoin="bevel"
     points="2757.78,1848.03 2757.78,1949.96"
     id="polyline74"
     transform="matrix(1.523814,0,0,1.4412322,-164.25851,-112.26407)" />
  <polyline
     class="BarLine"
     fill="none"
     stroke="#000000"
     stroke-width="4.46"
     stroke-linejoin="bevel"
     points="977.87,632.834 977.87,734.762"
     id="polyline76"
     transform="matrix(1.523814,0,0,1.4412322,-164.25851,-112.26407)" />
  <polyline
     class="BarLine"
     fill="none"
     stroke="#000000"
     stroke-width="4.46"
     stroke-linejoin="bevel"
     points="1800.69,1848.03 1800.69,1949.96"
     id="polyline78"
     transform="matrix(1.523814,0,0,1.4412322,-164.25851,-112.26407)" />
  <polyline
     class="LedgerLine"
     fill="none"
     stroke="#000000"
     stroke-width="3.97"
     stroke-linejoin="bevel"
     points="1546.93,1217 1595.52,1217"
     id="polyline80"
     transform="matrix(1.523814,0,0,1.4412322,-164.25851,-112.26407)" />
  <polyline
     class="LedgerLine"
     fill="none"
     stroke="#000000"
     stroke-width="3.97"
     stroke-linejoin="bevel"
     points="1759.57,1217 1808.16,1217"
     id="polyline82"
     transform="matrix(1.523814,0,0,1.4412322,-164.25851,-112.26407)" />
  <polyline
     class="LedgerLine"
     fill="none"
     stroke="#000000"
     stroke-width="3.97"
     stroke-linejoin="bevel"
     points="391.282,1217 439.875,1217"
     id="polyline84"
     transform="matrix(1.523814,0,0,1.4412322,-164.25851,-112.26407)" />
  <polyline
     class="Stem"
     fill="none"
     stroke="#000000"
     stroke-width="2.48"
     stroke-linejoin="bevel"
     points="1251.33,1258.36 1251.33,1341"
     id="polyline86"
     transform="matrix(1.523814,0,0,1.4412322,-164.25851,-112.26407)" />
  <polyline
     class="Stem"
     fill="none"
     stroke="#000000"
     stroke-width="2.48"
     stroke-linejoin="bevel"
     points="1556.35,1221.16 1556.35,1303.8"
     id="polyline88"
     transform="matrix(1.523814,0,0,1.4412322,-164.25851,-112.26407)" />
  <polyline
     class="Stem"
     fill="none"
     stroke="#000000"
     stroke-width="2.48"
     stroke-linejoin="bevel"
     points="2431.6,1907.43 2431.6,1830.8"
     id="polyline90"
     transform="matrix(1.523814,0,0,1.4412322,-164.25851,-112.26407)" />
  <polyline
     class="Stem"
     fill="none"
     stroke="#000000"
     stroke-width="2.48"
     stroke-linejoin="bevel"
     points="1769,1221.16 1769,1303.8"
     id="polyline92"
     transform="matrix(1.523814,0,0,1.4412322,-164.25851,-112.26407)" />
  <polyline
     class="Stem"
     fill="none"
     stroke="#000000"
     stroke-width="2.48"
     stroke-linejoin="bevel"
     points="1946.22,1233.56 1946.22,1316.2"
     id="polyline94"
     transform="matrix(1.523814,0,0,1.4412322,-164.25851,-112.26407)" />
  <polyline
     class="Stem"
     fill="none"
     stroke="#000000"
     stroke-width="2.48"
     stroke-linejoin="bevel"
     points="2158.86,1258.36 2158.86,1341"
     id="polyline96"
     transform="matrix(1.523814,0,0,1.4412322,-164.25851,-112.26407)" />
  <polyline
     class="Stem"
     fill="none"
     stroke="#000000"
     stroke-width="2.48"
     stroke-linejoin="bevel"
     points="2219.06,1919.83 2219.06,1837"
     id="polyline98"
     transform="matrix(1.523814,0,0,1.4412322,-164.25851,-112.26407)" />
  <polyline
     class="Stem"
     fill="none"
     stroke="#000000"
     stroke-width="2.48"
     stroke-linejoin="bevel"
     points="2041.98,1907.43 2041.98,1830.8"
     id="polyline100"
     transform="matrix(1.523814,0,0,1.4412322,-164.25851,-112.26407)" />
  <polyline
     class="Stem"
     fill="none"
     stroke="#000000"
     stroke-width="2.48"
     stroke-linejoin="bevel"
     points="1835.16,1903.16 1835.16,1973.4"
     id="polyline102"
     transform="matrix(1.523814,0,0,1.4412322,-164.25851,-112.26407)" />
  <polyline
     class="Stem"
     fill="none"
     stroke="#000000"
     stroke-width="2.48"
     stroke-linejoin="bevel"
     points="2336.09,1258.36 2336.09,1341"
     id="polyline104"
     transform="matrix(1.523814,0,0,1.4412322,-164.25851,-112.26407)" />
  <polyline
     class="Stem"
     fill="none"
     stroke="#000000"
     stroke-width="2.48"
     stroke-linejoin="bevel"
     points="2477.85,1270.76 2477.85,1353.4"
     id="polyline106"
     transform="matrix(1.523814,0,0,1.4412322,-164.25851,-112.26407)" />
  <polyline
     class="Stem"
     fill="none"
     stroke="#000000"
     stroke-width="2.48"
     stroke-linejoin="bevel"
     points="2619.62,1283.16 2619.62,1359.6"
     id="polyline108"
     transform="matrix(1.523814,0,0,1.4412322,-164.25851,-112.26407)" />
  <polyline
     class="Stem"
     fill="none"
     stroke="#000000"
     stroke-width="2.48"
     stroke-linejoin="bevel"
     points="1622.62,1890.76 1622.62,1967.2"
     id="polyline110"
     transform="matrix(1.523814,0,0,1.4412322,-164.25851,-112.26407)" />
  <polyline
     class="Stem"
     fill="none"
     stroke="#000000"
     stroke-width="2.48"
     stroke-linejoin="bevel"
     points="1357.01,1878.36 1357.01,1961"
     id="polyline112"
     transform="matrix(1.523814,0,0,1.4412322,-164.25851,-112.26407)" />
  <polyline
     class="Stem"
     fill="none"
     stroke="#000000"
     stroke-width="2.48"
     stroke-linejoin="bevel"
     points="400.706,1903.16 400.706,1973.4"
     id="polyline114"
     transform="matrix(1.523814,0,0,1.4412322,-164.25851,-112.26407)" />
  <polyline
     class="Stem"
     fill="none"
     stroke="#000000"
     stroke-width="2.48"
     stroke-linejoin="bevel"
     points="696.064,1919.83 696.064,1837"
     id="polyline116"
     transform="matrix(1.523814,0,0,1.4412322,-164.25851,-112.26407)" />
  <polyline
     class="Stem"
     fill="none"
     stroke="#000000"
     stroke-width="2.48"
     stroke-linejoin="bevel"
     points="908.603,1907.43 908.603,1830.8"
     id="polyline118"
     transform="matrix(1.523814,0,0,1.4412322,-164.25851,-112.26407)" />
  <polyline
     class="Stem"
     fill="none"
     stroke="#000000"
     stroke-width="2.48"
     stroke-linejoin="bevel"
     points="1144.47,1865.96 1144.47,1948.6"
     id="polyline120"
     transform="matrix(1.523814,0,0,1.4412322,-164.25851,-112.26407)" />
  <polyline
     class="Stem"
     fill="none"
     stroke="#000000"
     stroke-width="2.48"
     stroke-linejoin="bevel"
     points="1074.1,1270.76 1074.1,1353.4"
     id="polyline122"
     transform="matrix(1.523814,0,0,1.4412322,-164.25851,-112.26407)" />
  <polyline
     class="Stem"
     fill="none"
     stroke="#000000"
     stroke-width="2.48"
     stroke-linejoin="bevel"
     points="1752.54,687.965 1752.54,758.198"
     id="polyline124"
     transform="matrix(1.523814,0,0,1.4412322,-164.25851,-112.26407)" />
  <polyline
     class="Stem"
     fill="none"
     stroke="#000000"
     stroke-width="2.48"
     stroke-linejoin="bevel"
     points="1976.68,692.23 1976.68,615.598"
     id="polyline126"
     transform="matrix(1.523814,0,0,1.4412322,-164.25851,-112.26407)" />
  <polyline
     class="Stem"
     fill="none"
     stroke="#000000"
     stroke-width="2.48"
     stroke-linejoin="bevel"
     points="1646.59,675.565 1646.59,751.899"
     id="polyline128"
     transform="matrix(1.523814,0,0,1.4412322,-164.25851,-112.26407)" />
  <polyline
     class="Stem"
     fill="none"
     stroke="#000000"
     stroke-width="2.48"
     stroke-linejoin="bevel"
     points="2314.34,692.23 2314.34,615.598"
     id="polyline130"
     transform="matrix(1.523814,0,0,1.4412322,-164.25851,-112.26407)" />
  <polyline
     class="Stem"
     fill="none"
     stroke="#000000"
     stroke-width="2.48"
     stroke-linejoin="bevel"
     points="1445.12,687.965 1445.12,758.198"
     id="polyline132"
     transform="matrix(1.523814,0,0,1.4412322,-164.25851,-112.26407)" />
  <polyline
     class="Stem"
     fill="none"
     stroke="#000000"
     stroke-width="2.48"
     stroke-linejoin="bevel"
     points="2443.52,650.765 2443.52,733.398"
     id="polyline134"
     transform="matrix(1.523814,0,0,1.4412322,-164.25851,-112.26407)" />
  <polyline
     class="Stem"
     fill="none"
     stroke="#000000"
     stroke-width="2.48"
     stroke-linejoin="bevel"
     points="2602.45,625.965 2602.45,708.598"
     id="polyline136"
     transform="matrix(1.523814,0,0,1.4412322,-164.25851,-112.26407)" />
  <polyline
     class="Stem"
     fill="none"
     stroke="#000000"
     stroke-width="2.48"
     stroke-linejoin="bevel"
     points="1250.73,650.765 1250.73,733.398"
     id="polyline138"
     transform="matrix(1.523814,0,0,1.4412322,-164.25851,-112.26407)" />
  <polyline
     class="Stem"
     fill="none"
     stroke="#000000"
     stroke-width="2.48"
     stroke-linejoin="bevel"
     points="1012.34,650.765 1012.34,733.398"
     id="polyline140"
     transform="matrix(1.523814,0,0,1.4412322,-164.25851,-112.26407)" />
  <polyline
     class="Stem"
     fill="none"
     stroke="#000000"
     stroke-width="2.48"
     stroke-linejoin="bevel"
     points="400.706,1221.16 400.706,1303.8"
     id="polyline142"
     transform="matrix(1.523814,0,0,1.4412322,-164.25851,-112.26407)" />
  <polyline
     class="Stem"
     fill="none"
     stroke="#000000"
     stroke-width="2.48"
     stroke-linejoin="bevel"
     points="613.35,1233.56 613.35,1316.2"
     id="polyline144"
     transform="matrix(1.523814,0,0,1.4412322,-164.25851,-112.26407)" />
  <polyline
     class="Stem"
     fill="none"
     stroke="#000000"
     stroke-width="2.48"
     stroke-linejoin="bevel"
     points="847.696,692.23 847.696,615.598"
     id="polyline146"
     transform="matrix(1.523814,0,0,1.4412322,-164.25851,-112.26407)" />
  <polyline
     class="Stem"
     fill="none"
     stroke="#000000"
     stroke-width="2.48"
     stroke-linejoin="bevel"
     points="609.305,692.23 609.305,615.598"
     id="polyline148"
     transform="matrix(1.523814,0,0,1.4412322,-164.25851,-112.26407)" />
  <polyline
     class="Stem"
     fill="none"
     stroke="#000000"
     stroke-width="2.48"
     stroke-linejoin="bevel"
     points="790.576,1258.36 790.576,1341"
     id="polyline150"
     transform="matrix(1.523814,0,0,1.4412322,-164.25851,-112.26407)" />
  <polyline
     class="Stem"
     fill="none"
     stroke="#000000"
     stroke-width="2.48"
     stroke-linejoin="bevel"
     points="932.338,1245.96 932.338,1328.6"
     id="polyline152"
     transform="matrix(1.523814,0,0,1.4412322,-164.25851,-112.26407)" />
  <path
     class="Hook"
     d="m 2342.9488,971.40563 c 0,0.98292 0.8975,1.85415 1.9604,1.85415 0.7558,0 1.6769,-0.58082 1.8187,-1.1393 0,-0.15637 1.3699,-5.16033 1.5116,-5.58477 0.1417,-0.58082 1.5116,-6.00922 6.944,-14.43113 5.9048,-9.29307 14.9745,-16.01709 22.5326,-26.02501 7.4164,-10.00792 11.9513,-19.4574 11.9513,-32.03421 0,-13.00141 -3.1886,-23.8806 -11.1954,-37.75314 -0.4488,-1.00523 -1.37,-1.56367 -2.2675,-1.56367 -0.307,0 -0.6141,0 -0.7558,0.13403 -0.7558,0.29036 -1.0629,0.87125 -1.0629,1.72007 0,0.42448 0.1654,1.13933 0.4488,1.72021 6.0465,13.29166 8.4793,20.86466 8.4793,31.16294 0,11.86211 -4.3932,18.0277 -7.1094,22.4509 -9.8255,15.8607 -25.6976,23.59009 -32.0511,25.60055 -1.0629,0.42447 -1.2046,1.13932 -1.2046,1.56379 v 32.32459"
     id="path154"
     style="stroke-width:1.47009" />
  <path
     class="Note"
     d="m 2504.3969,879.25685 c 0,6.14325 4.6766,13.00138 16.9349,13.00138 15.7067,0 32.1929,-12.1525 32.1929,-24.72941 0,-8.44418 -7.5582,-13.1577 -16.935,-13.1577 -14.6674,0 -32.1928,11.728 -32.1928,24.88573"
     id="path156"
     style="stroke-width:1.47009" />
  <path
     class="Note"
     d="m 2630.2944,2630.6451 c 0,6.1432 4.6766,13.0013 16.9349,13.0013 15.7067,0 32.1929,-12.1524 32.1929,-24.7294 0,-8.4441 -7.5582,-13.1577 -16.9349,-13.1577 -14.6675,0 -32.1929,11.728 -32.1929,24.8858"
     id="path158"
     style="stroke-width:1.47009" />
  <path
     class="Note"
     d="m 849.19816,2666.3876 c 0,6.1433 4.67658,13.0014 16.93487,13.0014 15.70682,0 32.19289,-12.1525 32.19289,-24.7294 0,-8.4442 -7.55812,-13.1577 -16.93488,-13.1577 -14.66742,0 -32.19288,11.728 -32.19288,24.8857"
     id="path160"
     style="stroke-width:1.47009" />
  <path
     class="Note"
     d="m 2342.9488,861.38557 c 0,6.14325 4.6766,13.00138 16.9349,13.00138 15.7067,0 32.1929,-12.1525 32.1929,-24.72941 0,-8.44418 -7.5582,-13.1577 -16.9349,-13.1577 -14.6675,0 -32.1929,11.728 -32.1929,24.88573"
     id="path162"
     style="stroke-width:1.47009" />
  <path
     class="Note"
     d="m 3526.0174,2623.6306 c -14.6675,0 -32.1929,11.594 -32.1929,24.8858 0,6.1432 4.6766,13.0013 16.9349,13.0013 15.7068,0 32.1929,-12.1525 32.1929,-24.7294 0,-8.4442 -7.5581,-13.1577 -16.9349,-13.1577 m -4.0861,25.1762 c -0.4488,0.268 -11.4789,5.9868 -16.7696,5.9868 -4.9836,0 -6.0465,-3.8423 -6.0465,-5.1379 0,-6.0093 15.1163,-13.0014 15.7304,-13.2918 0.5904,-0.2904 11.3371,-6.0092 16.7695,-6.0092 3.6374,0 6.0465,2.0105 6.0465,5.138 0,6.1656 -15.2579,13.0237 -15.7303,13.3141"
     id="path164"
     style="stroke-width:1.47009" />
  <path
     class="Note"
     d="m 1205.2609,2623.6306 c -14.6674,0 -32.1928,11.594 -32.1928,24.8858 0,6.1432 4.6765,13.0013 16.9348,13.0013 15.7069,0 32.1929,-12.1525 32.1929,-24.7294 0,-8.4442 -7.5581,-13.1577 -16.9349,-13.1577 m -4.086,25.1762 c -0.4488,0.268 -11.479,5.9868 -16.7697,5.9868 -4.9836,0 -6.0465,-3.8423 -6.0465,-5.1379 0,-6.0093 15.1163,-13.0014 15.7305,-13.2918 0.5904,-0.2904 11.3371,-6.0092 16.7694,-6.0092 3.6375,0 6.0465,2.0105 6.0465,5.138 0,6.1656 -15.2578,13.0237 -15.7302,13.3141"
     id="path166"
     style="stroke-width:1.47009" />
  <path
     class="Note"
     d="m 3169.9531,2666.3876 c 0,6.1433 4.6766,13.0014 16.9349,13.0014 15.7067,0 32.1929,-12.1525 32.1929,-24.7294 0,-8.4442 -7.5581,-13.1577 -16.9349,-13.1577 -14.6675,0 -32.1929,11.728 -32.1929,24.8857"
     id="path168"
     style="stroke-width:1.47009" />
  <path
     class="Note"
     d="m 1577.8113,2577.0312 c 0,6.1433 4.6766,13.0014 16.9349,13.0014 15.7068,0 32.1929,-12.1525 32.1929,-24.7294 0,-8.4442 -7.5581,-13.1577 -16.9349,-13.1577 -14.6675,0 -32.1929,11.728 -32.1929,24.8857"
     id="path170"
     style="stroke-width:1.47009" />
  <path
     class="Note"
     d="m 2035.946,879.25685 c 0,6.14325 4.6766,13.00138 16.9349,13.00138 15.7067,0 32.1929,-12.1525 32.1929,-24.72941 0,-8.44418 -7.5582,-13.1577 -16.9349,-13.1577 -14.6675,0 -32.1929,11.728 -32.1929,24.88573"
     id="path172"
     style="stroke-width:1.47009" />
  <path
     class="Note"
     d="m 749.18799,872.2424 c -14.66743,0 -32.19289,11.59396 -32.19289,24.88573 0,6.14325 4.67659,13.00138 16.93488,13.00138 15.70682,0 32.19289,-12.1525 32.19289,-24.72941 0,-8.44418 -7.55812,-13.1577 -16.93488,-13.1577 m -4.08606,25.17613 c -0.44881,0.26807 -11.47897,5.98688 -16.76965,5.98688 -4.98363,0 -6.04649,-3.84232 -6.04649,-5.13799 0,-6.00922 15.11623,-13.00136 15.7304,-13.29176 0.59044,-0.29041 11.33718,-6.00922 16.7695,-6.00922 3.63742,0 6.04649,2.01052 6.04649,5.13799 0,6.16559 -15.25787,13.0237 -15.73025,13.3141"
     id="path174"
     style="stroke-width:1.47009" />
  <path
     class="Note"
     d="m 1739.7318,825.64301 c 0,6.14325 4.6766,13.00138 16.9349,13.00138 15.7067,0 32.1929,-12.1525 32.1929,-24.72941 0,-8.44418 -7.5581,-13.1577 -16.9349,-13.1577 -14.6675,0 -32.1929,11.728 -32.1929,24.88573"
     id="path176"
     style="stroke-width:1.47009" />
  <path
     class="Note"
     d="m 1933.8756,2570.0168 c -14.6675,0 -32.1928,11.594 -32.1928,24.8857 0,6.1433 4.6765,13.0014 16.9349,13.0014 15.7067,0 32.1928,-12.1525 32.1928,-24.7294 0,-8.4442 -7.5581,-13.1577 -16.9349,-13.1577 m -4.0861,25.1761 c -0.4488,0.2681 -11.4789,5.9869 -16.7696,5.9869 -4.9836,0 -6.0465,-3.8423 -6.0465,-5.138 0,-6.0092 15.1163,-13.0013 15.7304,-13.2918 0.5904,-0.2904 11.3371,-6.0092 16.7695,-6.0092 3.6374,0 6.0465,2.0105 6.0465,5.138 0,6.1656 -15.2579,13.0237 -15.7303,13.3141"
     id="path178"
     style="stroke-width:1.47009" />
  <path
     class="Note"
     d="m 2900.1314,2648.5164 c 0,6.1432 4.6766,13.0013 16.9349,13.0013 15.7067,0 32.1928,-12.1525 32.1928,-24.7294 0,-8.4442 -7.5581,-13.1577 -16.9349,-13.1577 -14.6674,0 -32.1928,11.728 -32.1928,24.8858"
     id="path180"
     style="stroke-width:1.47009" />
  <path
     class="Note"
     d="m 2306.423,2612.7738 c 0,6.1432 4.6766,13.0014 16.9349,13.0014 15.7067,0 32.1928,-12.1525 32.1928,-24.7294 0,-8.4442 -7.5581,-13.1578 -16.9349,-13.1578 -14.6674,0 -32.1928,11.7281 -32.1928,24.8858"
     id="path182"
     style="stroke-width:1.47009" />
  <path
     class="Note"
     d="m 1408.6627,800.75728 c -14.6675,0 -32.1929,11.59397 -32.1929,24.88573 0,6.14325 4.6766,13.00138 16.9349,13.00138 15.7067,0 32.1929,-12.1525 32.1929,-24.72941 0,-8.44418 -7.5582,-13.1577 -16.9349,-13.1577 m -4.0862,25.17614 c -0.4487,0.26807 -11.4788,5.98688 -16.7695,5.98688 -4.9837,0 -6.0465,-3.84233 -6.0465,-5.138 0,-6.00921 15.1162,-13.00135 15.7303,-13.29176 0.5905,-0.29041 11.3372,-6.00922 16.7696,-6.00922 3.6373,0 6.0465,2.01052 6.0465,5.13799 0,6.1656 -15.258,13.0237 -15.7304,13.31411"
     id="path184"
     style="stroke-width:1.47009" />
  <path
     class="Note"
     d="m 1080.2571,897.12813 c 0,6.14325 4.6766,13.00138 16.9349,13.00138 15.7068,0 32.1929,-12.1525 32.1929,-24.72941 0,-8.44418 -7.5581,-13.1577 -16.9349,-13.1577 -14.6674,0 -32.1929,11.728 -32.1929,24.88573"
     id="path186"
     style="stroke-width:1.47009" />
  <path
     class="Note"
     d="m 1470.5805,1719.2098 c 0,6.1433 4.6766,13.0014 16.935,13.0014 15.7067,0 32.1928,-12.1525 32.1928,-24.7294 0,-8.4442 -7.5581,-13.1577 -16.9349,-13.1577 -14.6675,0 -32.1929,11.728 -32.1929,24.8857"
     id="path188"
     style="stroke-width:1.47009" />
  <path
     class="Note"
     d="m 1772.839,1676.4528 c -14.6675,0 -32.1929,11.594 -32.1929,24.8858 0,6.1432 4.6766,13.0013 16.9349,13.0013 15.7067,0 32.1929,-12.1525 32.1929,-24.7294 0,-8.4442 -7.5582,-13.1577 -16.9349,-13.1577 m -4.0862,25.1762 c -0.4487,0.268 -11.4788,5.9868 -16.7695,5.9868 -4.9837,0 -6.0465,-3.8423 -6.0465,-5.138 0,-6.0092 15.1162,-13.0013 15.7303,-13.2917 0.5905,-0.2904 11.3372,-6.0092 16.7696,-6.0092 3.6373,0 6.0465,2.0105 6.0465,5.138 0,6.1655 -15.258,13.0237 -15.7304,13.3141"
     id="path190"
     style="stroke-width:1.47009" />
  <path
     class="Note"
     d="m 1254.5616,1683.4673 c 0,6.1432 4.6766,13.0013 16.9349,13.0013 15.7068,0 32.1929,-12.1524 32.1929,-24.7294 0,-8.4441 -7.5581,-13.1577 -16.9349,-13.1577 -14.6674,0 -32.1929,11.728 -32.1929,24.8858"
     id="path192"
     style="stroke-width:1.47009" />
  <path
     class="Note"
     d="m 1038.5427,1701.3386 c 0,6.1432 4.6766,13.0013 16.9349,13.0013 15.7068,0 32.1929,-12.1525 32.1929,-24.7294 0,-8.4442 -7.5581,-13.1577 -16.9349,-13.1577 -14.6674,0 -32.1929,11.728 -32.1929,24.8858"
     id="path194"
     style="stroke-width:1.47009" />
  <path
     class="Note"
     d="m 2237.6327,1622.839 c -14.6675,0 -32.1929,11.5939 -32.1929,24.8857 0,6.1433 4.6766,13.0014 16.9349,13.0014 15.7068,0 32.1929,-12.1525 32.1929,-24.7294 0,-8.4442 -7.5581,-13.1577 -16.9349,-13.1577 m -4.0861,25.1761 c -0.4488,0.2681 -11.4789,5.9869 -16.7696,5.9869 -4.9836,0 -6.0465,-3.8423 -6.0465,-5.138 0,-6.0092 15.1162,-13.0013 15.7303,-13.2918 0.5905,-0.2904 11.3372,-6.0092 16.7696,-6.0092 3.6374,0 6.0465,2.0105 6.0465,5.138 0,6.1656 -15.2579,13.0237 -15.7303,13.3141"
     id="path196"
     style="stroke-width:1.47009" />
  <path
     class="Note"
     d="m 768.48325,1665.596 c 0,6.1432 4.67659,13.0013 16.93488,13.0013 15.70682,0 32.19289,-12.1524 32.19289,-24.7293 0,-8.4442 -7.55812,-13.1578 -16.93488,-13.1578 -14.66743,0 -32.19289,11.7281 -32.19289,24.8858"
     id="path198"
     style="stroke-width:1.47009" />
  <path
     class="Note"
     d="m 2529.4789,1647.7247 c 0,6.1433 4.6766,13.0014 16.9349,13.0014 15.7067,0 32.1928,-12.1525 32.1928,-24.7294 0,-8.4442 -7.5581,-13.1577 -16.9349,-13.1577 -14.6674,0 -32.1928,11.728 -32.1928,24.8857"
     id="path200"
     style="stroke-width:1.47009" />
  <path
     class="Note"
     d="m 476.64624,1622.839 c -14.66742,0 -32.19288,11.5939 -32.19288,24.8857 0,6.1433 4.67658,13.0014 16.93487,13.0014 15.70682,0 32.19289,-12.1525 32.19289,-24.7294 0,-8.4442 -7.55812,-13.1577 -16.93488,-13.1577 m -4.08606,25.1761 c -0.44881,0.2681 -11.47896,5.9869 -16.76965,5.9869 -4.98363,0 -6.04649,-3.8423 -6.04649,-5.138 0,-6.0092 15.11623,-13.0013 15.73041,-13.2918 0.59043,-0.2904 11.33717,-6.0092 16.76949,-6.0092 3.63742,0 6.0465,2.0105 6.0465,5.138 0,6.1656 -15.25788,13.0237 -15.73026,13.3141"
     id="path202"
     style="stroke-width:1.47009" />
  <path
     class="Note"
     d="m 2831.722,1640.7102 c -14.6674,0 -32.1928,11.594 -32.1928,24.8858 0,6.1432 4.6766,13.0013 16.9349,13.0013 15.7067,0 32.1928,-12.1524 32.1928,-24.7293 0,-8.4442 -7.5581,-13.1578 -16.9349,-13.1578 m -4.0861,25.1762 c -0.4487,0.2681 -11.4789,5.9869 -16.7695,5.9869 -4.9837,0 -6.0465,-3.8423 -6.0465,-5.138 0,-6.0092 15.1162,-13.0014 15.7303,-13.2918 0.5905,-0.2904 11.3372,-6.0092 16.7696,-6.0092 3.6373,0 6.0465,2.0105 6.0465,5.138 0,6.1656 -15.258,13.0237 -15.7304,13.3141"
     id="path204"
     style="stroke-width:1.47009" />
  <path
     class="Note"
     d="m 3123.553,1701.3386 c 0,6.1432 4.6766,13.0013 16.9349,13.0013 15.7067,0 32.1928,-12.1525 32.1928,-24.7294 0,-8.4442 -7.5581,-13.1577 -16.9349,-13.1577 -14.6674,0 -32.1928,11.728 -32.1928,24.8858"
     id="path206"
     style="stroke-width:1.47009" />
  <path
     class="Note"
     d="m 3799.5016,789.90045 c 0,6.14325 4.6766,13.00138 16.9349,13.00138 15.7067,0 32.1929,-12.15249 32.1929,-24.72941 0,-8.44418 -7.5581,-13.1577 -16.9349,-13.1577 -14.6675,0 -32.1929,11.728 -32.1929,24.88573"
     id="path208"
     style="stroke-width:1.47009" />
  <path
     class="Note"
     d="m 3393.6185,1701.3386 c 0,6.1432 4.6766,13.0013 16.9349,13.0013 15.7067,0 32.1929,-12.1525 32.1929,-24.7294 0,-8.4442 -7.5581,-13.1577 -16.9349,-13.1577 -14.6675,0 -32.1929,11.728 -32.1929,24.8858"
     id="path210"
     style="stroke-width:1.47009" />
  <path
     class="Note"
     d="m 3315.1573,897.12813 c 0,6.14325 4.6766,13.00138 16.935,13.00138 15.7067,0 32.1928,-12.1525 32.1928,-24.72941 0,-8.44418 -7.5581,-13.1577 -16.9349,-13.1577 -14.6675,0 -32.1929,11.728 -32.1929,24.88573"
     id="path212"
     style="stroke-width:1.47009" />
  <path
     class="Note"
     d="m 476.64624,2605.7593 c -14.66742,0 -32.19288,11.594 -32.19288,24.8858 0,6.1432 4.67658,13.0013 16.93487,13.0013 15.70682,0 32.19289,-12.1524 32.19289,-24.7294 0,-8.4441 -7.55812,-13.1577 -16.93488,-13.1577 m -4.08606,25.1762 c -0.44881,0.2681 -11.47896,5.9869 -16.76965,5.9869 -4.98363,0 -6.04649,-3.8424 -6.04649,-5.138 0,-6.0092 15.11623,-13.0014 15.73041,-13.2918 0.59043,-0.2904 11.33717,-6.0092 16.76949,-6.0092 3.63742,0 6.0465,2.0105 6.0465,5.138 0,6.1656 -15.25788,13.0237 -15.73026,13.3141"
     id="path214"
     style="stroke-width:1.47009" />
  <path
     class="Note"
     d="m 3609.6344,1719.2098 c 0,6.1433 4.6766,13.0014 16.9349,13.0014 15.7067,0 32.1929,-12.1525 32.1929,-24.7294 0,-8.4442 -7.5582,-13.1577 -16.9349,-13.1577 -14.6675,0 -32.1929,11.728 -32.1929,24.8857"
     id="path216"
     style="stroke-width:1.47009" />
  <path
     class="Note"
     d="m 3557.3219,825.64301 c 0,6.14325 4.6765,13.00138 16.9349,13.00138 15.7067,0 32.1928,-12.1525 32.1928,-24.72941 0,-8.44418 -7.5581,-13.1577 -16.9349,-13.1577 -14.6675,0 -32.1928,11.728 -32.1928,24.88573"
     id="path218"
     style="stroke-width:1.47009" />
  <path
     class="Note"
     d="m 3825.6655,1737.0811 c 0,6.1433 4.6766,13.0014 16.9349,13.0014 15.7067,0 32.1929,-12.1525 32.1929,-24.7294 0,-8.4442 -7.5582,-13.1577 -16.9349,-13.1577 -14.6675,0 -32.1929,11.728 -32.1929,24.8857"
     id="path220"
     style="stroke-width:1.47009" />
  <path
     class="Note"
     d="m 2832.8039,872.2424 c -14.6674,0 -32.1928,11.59396 -32.1928,24.88573 0,6.14325 4.6766,13.00138 16.9349,13.00138 15.7067,0 32.1929,-12.1525 32.1929,-24.72941 0,-8.44418 -7.5582,-13.1577 -16.935,-13.1577 m -4.0861,25.17613 c -0.4487,0.26807 -11.4789,5.98688 -16.7695,5.98688 -4.9837,0 -6.0465,-3.84232 -6.0465,-5.13799 0,-6.00922 15.1162,-13.00136 15.7303,-13.29176 0.5905,-0.29041 11.3372,-6.00922 16.7696,-6.00922 3.6373,0 6.0465,2.01052 6.0465,5.13799 0,6.16559 -15.258,13.0237 -15.7304,13.3141"
     id="path222"
     style="stroke-width:1.47009" />
  <path
     class="Clef"
     d="m 251.98121,2762.8925 c 0,-5.2943 -5.1253,-7.5729 -10.10898,-7.5729 -6.3535,0 -12.56537,3.7083 -12.56537,10.1419 0,2.7254 1.06283,4.7359 3.18862,6.7241 -3.94444,1.4297 -7.86527,4.2891 -7.86527,8.7346 0,4.7135 4.53487,7.8634 11.19552,7.8634 8.14857,0 13.88804,-4.2891 13.88804,-10.4547 0,-3.2839 -1.51162,-5.9869 -4.22785,-7.8634 4.39323,-1.8541 6.49529,-4.1327 6.49529,-7.573 m -15.11624,22.8753 c -3.30667,0 -5.57411,-1.9882 -5.57411,-5.004 0,-2.8594 1.34626,-5.138 3.92071,-6.5677 0.61416,0.2904 0.75582,0.2904 1.20461,0.5585 1.81864,0.8712 1.81864,0.8712 2.1258,1.1616 2.85786,1.5638 4.08606,2.9935 4.08606,5.004 0,2.703 -2.4328,4.8476 -5.76307,4.8476 m 5.76307,-17.1564 c -2.26744,-1.1393 -2.88159,-1.4297 -3.33025,-1.7202 l -0.30716,-0.134 c -2.26743,-1.2957 -3.02324,-2.3009 -3.02324,-3.9987 0,-2.5913 2.12578,-4.4455 5.14902,-4.4455 2.85789,0 4.67653,1.7201 4.67653,4.7136 0,2.3009 -0.89747,3.8646 -3.1649,5.5848 m 42.16009,-108.5234 c 0,-21.5796 -16.17906,-36.167 -38.23938,-36.167 -1.51162,-8.5782 -2.88147,-17.0224 -4.22771,-25.0198 15.87204,-15.8831 27.04384,-33.8884 27.04384,-56.4732 0,-13.0237 -4.22785,-23.5901 -6.80231,-28.7499 -3.61368,-7.2829 -8.00691,-12.2869 -10.58136,-12.2869 -1.03924,0 -5.88112,1.72 -10.72314,7.283 -9.82555,10.8785 -12.54165,29.0179 -12.54165,41.0363 0,7.7293 0.75582,14.7215 3.33025,30.895 -0.16536,0 -8.0305,7.5729 -11.19552,10.1419 -13.76984,12.0185 -32.80692,29.443 -32.80692,57.903 0,26.8739 24.63477,47.895 52.76518,47.895 4.36949,0 8.45557,-0.4244 12.09299,-1.0052 2.71609,13.6045 4.53487,23.7464 4.53487,31.3194 0,14.8778 -8.17229,22.7412 -23.43016,22.7412 -3.63742,0 -6.80231,-0.7149 -7.10946,-0.8712 -0.14172,0 -0.44866,-0.1341 -0.44866,-0.2681 0,-0.2904 0.307,-0.4468 0.75581,-0.5808 7.10931,-1.0053 14.19504,-6.8581 14.19504,-15.8608 0,-7.7293 -6.18827,-15.8831 -17.52544,-15.8831 -10.58137,0 -17.2419,8.1538 -17.2419,17.5809 0,9.4494 7.55812,21.8923 27.96504,21.8923 19.50933,0 29.02786,-10.4547 29.02786,-28.7504 0,-5.5625 -0.89745,-11.9961 -2.40907,-20.1499 -0.44881,-2.8594 -1.20462,-7.3049 -2.26744,-12.7333 14.80908,-4.7135 25.83924,-19.1669 25.83924,-33.8884 m -46.55331,-117.2356 c 1.51163,-5.7188 8.31393,-20.7307 16.1792,-20.7307 2.26744,0 6.0465,6.8581 6.0465,16.8661 0,14.7214 -11.78599,25.891 -22.2257,35.7425 -0.89746,-5.7188 -1.65328,-11.4376 -1.65328,-17.2905 0,-5.4284 0.59045,-10.1642 1.65328,-14.5874 m 4.53487,147.8402 c -21.61138,0 -40.05799,-14.297 -40.05799,-35.899 0,-17.4245 12.99055,-33.0171 26.31173,-44.0303 2.55086,-2.0105 4.98368,-3.9987 7.25111,-6.1433 1.34625,7.707 2.40908,14.297 3.47191,20.3063 -13.76984,3.7083 -23.12301,17.5808 -23.12301,30.8726 0,10.1643 8.31393,23.8805 20.40691,23.8805 1.20447,0 2.57444,-0.5808 2.57444,-2.0105 0,-1.1393 -1.36997,-1.9882 -3.33025,-3.1275 -5.90485,-3.3062 -9.23512,-7.1485 -9.23512,-14.0289 0,-8.7123 6.96769,-15.7268 15.73027,-17.715 l 8.76272,46.8898 c -3.02324,0.5808 -5.73947,1.0053 -8.76272,1.0053 m 15.11624,-2.7254 c -3.1649,-17 -7.25097,-39.7413 -8.31393,-46.0409 15.25801,0 21.77688,10.0079 23.12314,16.8884 0.16537,1.1393 0.4488,2.703 0.4488,4.4231 0,10.2983 -4.53487,20.5967 -15.25801,24.7294"
     id="path224"
     style="stroke-width:1.47009" />
  <path
     class="Clef"
     d="m 440.93414,1011.5043 c 0,-5.2944 -5.1253,-7.5729 -10.10898,-7.5729 -6.3535,0 -12.56537,3.7082 -12.56537,10.1419 0,2.7254 1.06283,4.7359 3.18862,6.724 -3.94443,1.4297 -7.86527,4.2891 -7.86527,8.7346 0,4.7136 4.53487,7.8634 11.19552,7.8634 8.14857,0 13.88804,-4.2891 13.88804,-10.4547 0,-3.2839 -1.51162,-5.9869 -4.22785,-7.8634 4.39323,-1.8541 6.49529,-4.1327 6.49529,-7.5729 m -15.11623,22.8752 c -3.30668,0 -5.57412,-1.9882 -5.57412,-5.004 0,-2.8594 1.34626,-5.1379 3.92072,-6.5676 0.61415,0.2904 0.75581,0.2904 1.2046,0.5584 1.81864,0.8713 1.81864,0.8713 2.1258,1.1617 2.85787,1.5638 4.08606,2.9935 4.08606,5.0039 0,2.703 -2.4328,4.8476 -5.76306,4.8476 m 5.76306,-17.1564 c -2.26744,-1.1392 -2.88159,-1.4297 -3.33025,-1.7201 l -0.30716,-0.1339 c -2.26743,-1.2957 -3.02324,-2.301 -3.02324,-3.9987 0,-2.5914 2.12578,-4.4456 5.14903,-4.4456 2.85788,0 4.67652,1.7201 4.67652,4.7136 0,2.301 -0.89747,3.8647 -3.1649,5.5847 m 42.16009,-108.52332 c 0,-21.5796 -16.17906,-36.167 -38.23938,-36.167 -1.51162,-8.57822 -2.88147,-17.02247 -4.22771,-25.01979 15.87204,-15.88313 27.04384,-33.88839 27.04384,-56.47325 0,-13.02372 -4.22785,-23.59008 -6.80231,-28.74988 -3.61368,-7.28291 -8.00691,-12.28687 -10.58136,-12.28687 -1.03924,0 -5.88111,1.71994 -10.72314,7.28291 -9.82555,10.87861 -12.54164,29.01796 -12.54164,41.03632 0,7.7294 0.75581,14.72151 3.33025,30.89502 -0.16537,0 -8.0305,7.57298 -11.19553,10.142 -13.76983,12.01838 -32.80692,29.44288 -32.80692,57.90292 0,26.87401 24.63477,47.89506 52.76518,47.89506 4.36949,0 8.45557,-0.42447 12.09299,-1.00522 2.71609,13.60447 4.53487,23.74636 4.53487,31.31935 0,14.87788 -8.17229,22.74128 -23.43016,22.74128 -3.63742,0 -6.80231,-0.7149 -7.10946,-0.8713 -0.14172,0 -0.44866,-0.134 -0.44866,-0.268 0,-0.2904 0.307,-0.4468 0.75581,-0.5809 7.10931,-1.0052 14.19505,-6.858 14.19505,-15.86072 0,-7.72939 -6.18827,-15.88313 -17.52545,-15.88313 -10.58136,0 -17.24189,8.15374 -17.24189,17.58085 0,9.4495 7.55811,21.89237 27.96503,21.89237 19.50933,0 29.02786,-10.45467 29.02786,-28.75045 0,-5.56241 -0.89745,-11.99607 -2.40907,-20.1498 -0.44881,-2.8594 -1.20462,-7.30493 -2.26744,-12.73336 14.80908,-4.71358 25.83924,-19.16687 25.83924,-33.88841 M 427.18775,791.46422 c 1.51163,-5.71881 8.31393,-20.73069 16.1792,-20.73069 2.26744,0 6.0465,6.858 6.0465,16.86592 0,14.72151 -11.78599,25.89106 -22.2257,35.74256 -0.89746,-5.71881 -1.65327,-11.43762 -1.65327,-17.29039 0,-5.42843 0.59044,-10.16432 1.65327,-14.5874 m 4.53487,147.8401 c -21.61138,0 -40.05799,-14.29703 -40.05799,-35.89891 0,-17.42457 12.99055,-33.01719 26.31173,-44.03033 2.55086,-2.01058 4.98368,-3.99873 7.25111,-6.14328 1.34625,7.70696 2.40908,14.29702 3.47191,20.30621 -13.76984,3.70835 -23.12301,17.5809 -23.12301,30.87266 0,10.16429 8.31393,23.8805 20.40691,23.8805 1.20447,0 2.57444,-0.58074 2.57444,-2.01045 0,-1.13933 -1.36997,-1.98828 -3.33025,-3.12754 -5.90485,-3.30619 -9.23512,-7.14851 -9.23512,-14.02896 0,-8.71225 6.96769,-15.7268 15.73027,-17.71493 l 8.76273,46.8898 c -3.02325,0.58089 -5.73948,1.00523 -8.76273,1.00523 m 15.11624,-2.72532 c -3.1649,-17.00008 -7.25096,-39.74128 -8.31393,-46.04098 15.25801,0 21.77689,10.00799 23.12314,16.88843 0.16537,1.1393 0.4488,2.70303 0.4488,4.42314 0,10.29833 -4.53487,20.59672 -15.25801,24.72941"
     id="path226"
     style="stroke-width:1.47009" />
  <path
     class="Clef"
     d="m 251.98121,1887.1999 c 0,-5.2944 -5.1253,-7.573 -10.10898,-7.573 -6.3535,0 -12.56537,3.7083 -12.56537,10.142 0,2.7253 1.06283,4.7358 3.18862,6.724 -3.94444,1.4297 -7.86527,4.2891 -7.86527,8.7346 0,4.7136 4.53487,7.8634 11.19552,7.8634 8.14857,0 13.88804,-4.2891 13.88804,-10.4547 0,-3.2839 -1.51162,-5.9869 -4.22785,-7.8634 4.39323,-1.8541 6.49529,-4.1327 6.49529,-7.5729 m -15.11624,22.8752 c -3.30667,0 -5.57411,-1.9882 -5.57411,-5.004 0,-2.8594 1.34626,-5.138 3.92071,-6.5677 0.61416,0.2904 0.75582,0.2904 1.20461,0.5585 1.81864,0.8712 1.81864,0.8712 2.1258,1.1617 2.85786,1.5637 4.08606,2.9934 4.08606,5.0039 0,2.703 -2.4328,4.8476 -5.76307,4.8476 m 5.76307,-17.1564 c -2.26744,-1.1393 -2.88159,-1.4297 -3.33025,-1.7201 l -0.30716,-0.1341 c -2.26743,-1.2956 -3.02324,-2.3009 -3.02324,-3.9987 0,-2.5913 2.12578,-4.4455 5.14902,-4.4455 2.85789,0 4.67653,1.7202 4.67653,4.7136 0,2.3009 -0.89747,3.8647 -3.1649,5.5848 m 42.16009,-108.5234 c 0,-21.5795 -16.17906,-36.167 -38.23938,-36.167 -1.51162,-8.5782 -2.88147,-17.0224 -4.22771,-25.0198 15.87204,-15.8831 27.04384,-33.8884 27.04384,-56.4732 0,-13.0237 -4.22785,-23.5901 -6.80231,-28.7499 -3.61368,-7.2829 -8.00691,-12.2869 -10.58136,-12.2869 -1.03924,0 -5.88112,1.72 -10.72314,7.283 -9.82555,10.8785 -12.54165,29.0179 -12.54165,41.0363 0,7.7294 0.75582,14.7215 3.33025,30.895 -0.16536,0 -8.0305,7.573 -11.19552,10.142 -13.76984,12.0184 -32.80692,29.4429 -32.80692,57.9029 0,26.8739 24.63477,47.895 52.76518,47.895 4.36949,0 8.45557,-0.4244 12.09299,-1.0052 2.71609,13.6045 4.53487,23.7464 4.53487,31.3194 0,14.8778 -8.17229,22.7412 -23.43016,22.7412 -3.63742,0 -6.80231,-0.7149 -7.10946,-0.8712 -0.14172,0 -0.44866,-0.1341 -0.44866,-0.2681 0,-0.2904 0.307,-0.4468 0.75581,-0.5808 7.10931,-1.0053 14.19504,-6.8581 14.19504,-15.8608 0,-7.7293 -6.18827,-15.8831 -17.52544,-15.8831 -10.58137,0 -17.2419,8.1538 -17.2419,17.5809 0,9.4494 7.55812,21.8923 27.96504,21.8923 19.50933,0 29.02786,-10.4547 29.02786,-28.7504 0,-5.5624 -0.89745,-11.9961 -2.40907,-20.1499 -0.44881,-2.8594 -1.20462,-7.3049 -2.26744,-12.7333 14.80908,-4.7135 25.83924,-19.1669 25.83924,-33.8884 m -46.55331,-117.2356 c 1.51163,-5.7188 8.31393,-20.7307 16.1792,-20.7307 2.26744,0 6.0465,6.8581 6.0465,16.8661 0,14.7214 -11.78599,25.891 -22.2257,35.7425 -0.89746,-5.7188 -1.65328,-11.4376 -1.65328,-17.2904 0,-5.4284 0.59045,-10.1643 1.65328,-14.5875 m 4.53487,147.8402 c -21.61138,0 -40.05799,-14.297 -40.05799,-35.8989 0,-17.4245 12.99055,-33.0172 26.31173,-44.0304 2.55086,-2.0105 4.98368,-3.9987 7.25111,-6.1433 1.34625,7.707 2.40908,14.2971 3.47191,20.3063 -13.76984,3.7083 -23.12301,17.5808 -23.12301,30.8726 0,10.1643 8.31393,23.8805 20.40691,23.8805 1.20447,0 2.57444,-0.5808 2.57444,-2.0105 0,-1.1393 -1.36997,-1.9882 -3.33025,-3.1275 -5.90485,-3.3062 -9.23512,-7.1485 -9.23512,-14.0289 0,-8.7123 6.96769,-15.7268 15.73027,-17.7149 l 8.76272,46.8897 c -3.02324,0.5808 -5.73947,1.0053 -8.76272,1.0053 m 15.11624,-2.7254 c -3.1649,-17 -7.25097,-39.7412 -8.31393,-46.0409 15.25801,0 21.77688,10.0079 23.12314,16.8884 0.16537,1.1393 0.4488,2.703 0.4488,4.4231 0,10.2984 -4.53487,20.5967 -15.25801,24.7294"
     id="path228"
     style="stroke-width:1.47009" />
  <path
     class="KeySig"
     d="m 348.32435,2538.1389 c 0.92119,-0.1341 1.677,-1.1393 1.677,-2.0106 v -8.4218 c 0,-1.1393 -0.92119,-2.0105 -2.1258,-2.0105 -0.14156,0 -0.14156,0 -0.30702,0 l -4.98366,1.0052 v -21.3115 h -4.22785 v 22.1604 l -13.46287,2.5914 v -20.1722 h -4.22782 v 21.0211 l -5.90478,1.1392 c -0.89753,0.1564 -1.65334,1.1393 -1.65334,2.0106 v 0.2904 8.2878 -0.2904 c 0,1.1393 0.89753,2.0105 2.12572,2.0105 0.14172,0 0.28343,0 0.44877,0 l 4.98363,-1.0053 v 23.5901 l -5.90478,1.1393 c -0.89753,0.1341 -1.65334,1.1393 -1.65334,2.0105 v 8.2878 c 0,1.1393 0.89753,1.9882 2.12572,1.9882 0.14172,0 0.28343,0 0.44877,0 l 4.98363,-0.9829 v 21.2892 h 4.22782 v -22.1604 l 13.46287,-2.569 v 20.1722 h 4.22785 v -21.0211 l 5.73948,-1.0053 c 0.92119,-0.1563 1.677,-1.1393 1.677,-2.0105 v -8.4218 c 0,-1.1617 -0.92119,-2.0105 -2.1258,-2.0105 -0.14156,0 -0.14156,0 -0.30702,0 l -4.98366,1.0052 v -23.5901 l 5.73948,-1.0052 m -23.4302,4.4231 13.46287,-2.569 v 23.5901 l -13.46287,2.7254 v -23.7465"
     id="path230"
     style="stroke-width:1.47009" />
  <path
     class="KeySig"
     d="m 537.27728,786.75064 c 0.92119,-0.13418 1.677,-1.13933 1.677,-2.01059 v -8.4218 c 0,-1.13934 -0.92119,-2.01046 -2.1258,-2.01046 -0.14156,0 -0.14156,0 -0.30701,0 l -4.98367,1.00523 v -21.31157 h -4.22785 v 22.16038 l -13.46287,2.59134 v -20.17211 h -4.22782 v 21.02107 l -5.90478,1.13932 c -0.89752,0.15627 -1.65334,1.13919 -1.65334,2.01046 v 0.29036 8.28788 -0.29041 c 0,1.1393 0.89753,2.01052 2.12573,2.01052 0.14171,0 0.28342,0 0.44876,0 l 4.98363,-1.00526 v 23.59009 l -5.90478,1.1393 c -0.89752,0.13403 -1.65334,1.13932 -1.65334,2.01059 v 8.2877 c 0,1.13933 0.89753,1.98828 2.12573,1.98828 0.14171,0 0.28342,0 0.44876,0 l 4.98363,-0.98292 v 21.28912 h 4.22782 v -22.16039 l 13.46287,-2.56902 v 20.17224 h 4.22785 v -21.02105 l 5.73948,-1.00536 c 0.92119,-0.15628 1.677,-1.1392 1.677,-2.01047 v -8.42186 c 0,-1.16164 -0.92119,-2.01052 -2.1258,-2.01052 -0.14156,0 -0.14156,0 -0.30701,0 l -4.98367,1.00526 V 787.7559 l 5.73948,-1.00526 m -23.4302,4.42314 13.46287,-2.569 v 23.59009 l -13.46287,2.72537 v -23.74646"
     id="path232"
     style="stroke-width:1.47009" />
  <path
     class="KeySig"
     d="m 348.32435,1662.4462 c 0.92119,-0.1341 1.677,-1.1393 1.677,-2.0105 v -8.4219 c 0,-1.1393 -0.92119,-2.0105 -2.1258,-2.0105 -0.14156,0 -0.14156,0 -0.30702,0 l -4.98366,1.0053 v -21.3115 h -4.22785 v 22.1603 l -13.46287,2.5914 v -20.1722 h -4.22782 v 21.0211 l -5.90478,1.1393 c -0.89753,0.1563 -1.65334,1.1393 -1.65334,2.0105 v 0.2904 8.2878 -0.2904 c 0,1.1393 0.89753,2.0105 2.12572,2.0105 0.14172,0 0.28343,0 0.44877,0 l 4.98363,-1.0053 v 23.5901 l -5.90478,1.1393 c -0.89753,0.1341 -1.65334,1.1393 -1.65334,2.0105 v 8.2879 c 0,1.1392 0.89753,1.9881 2.12572,1.9881 0.14172,0 0.28343,0 0.44877,0 l 4.98363,-0.9829 v 21.2892 h 4.22782 v -22.1604 l 13.46287,-2.569 v 20.1722 h 4.22785 v -21.0211 l 5.73948,-1.0053 c 0.92119,-0.1563 1.677,-1.1392 1.677,-2.0105 v -8.4218 c 0,-1.1616 -0.92119,-2.0105 -2.1258,-2.0105 -0.14156,0 -0.14156,0 -0.30702,0 l -4.98366,1.0052 v -23.5901 l 5.73948,-1.0052 m -23.4302,4.4231 13.46287,-2.569 v 23.5901 l -13.46287,2.7254 v -23.7465"
     id="path234"
     style="stroke-width:1.47009" />
  <path
     class="TimeSig"
     d="m 621.69194,835.94133 c 12.09299,-4.44548 12.8488,-11.8844 12.8488,-14.45336 0,-0.29051 0,-0.55858 0,-0.71486 0,-1.27343 -0.44866,-17.44693 -26.45341,-17.44693 -26.00462,0 -25.24881,17.44693 -25.24881,17.44693 h 0.14172 l -0.14172,0.29038 c 0,5.138 4.39316,9.15903 9.82556,9.15903 5.43247,0 9.68391,-4.02103 9.68391,-9.15903 0,-4.15514 -3.3304,-8.15374 -7.55819,-9.00268 0.14171,-0.15642 0.28343,-0.29038 0.44876,-0.42449 2.10218,-1.4297 4.98363,-2.14455 7.86524,-2.14455 6.32992,0 13.13223,3.57425 13.13223,11.28134 0,9.00263 -7.08574,10.2983 -8.90451,10.58871 -1.81865,0.29041 -10.27421,0.84888 -12.09296,0.84888 -1.81867,0 -1.96039,2.01052 -1.96039,2.01052 v 2.85941 c 0,0 0.28343,1.56373 1.96039,1.72011 2.57456,0.13403 6.04646,0.13403 10.88849,0.84888 6.63692,0.84889 10.10898,5.138 10.10898,15.14599 0,9.58343 -6.80231,12.15247 -13.13223,12.15247 -4.25144,0 -8.17229,-1.13934 -9.82563,-2.27866 4.98361,-0.29038 9.06982,-4.42307 9.06982,-9.15896 0,-5.13807 -4.25144,-9.29314 -9.68391,-9.29314 -5.4324,0 -9.82556,4.15507 -9.82556,9.29314 0,0 0,0.29036 0,0.58074 0,1.85418 0.44877,7.01455 5.90478,11.728 5.88116,5.13805 13.29753,5.29447 16.62794,5.29447 14.50206,0 30.23246,-4.73589 30.23246,-20.30635 0,-10.43233 -7.55811,-14.87781 -14.21878,-16.86599 h 0.30702"
     id="path236"
     style="stroke-width:1.47009" />
  <path
     class="TimeSig"
     d="m 606.05614,927.15185 v 10.56649 h -12.54178 c -1.06283,0 -2.12564,0.87113 -2.12564,2.01045 v 2.72544 c 0,1.13919 1.06281,1.98814 2.12564,1.98814 h 45.7975 c 1.22819,0 2.12566,-0.84895 2.12566,-1.98814 v -2.72544 c 0,-1.13932 -0.89747,-2.01045 -2.12566,-2.01045 h -13.60461 v -10.56649 h 13.60461 c 1.22819,0 2.12566,-1.00523 2.12566,-2.14456 v -2.72534 c 0,-1.00526 -0.89747,-1.98818 -2.12566,-1.98818 h -13.60461 v -22.7412 c 0,-0.84889 -0.44879,-1.56374 -1.03924,-1.85415 l -1.81863,-0.87122 c -0.30715,-0.13404 -0.44881,-0.13404 -0.75581,-0.13404 -0.16538,0 -0.16538,0 -0.30715,0 -0.44866,0 -1.06283,0.13404 -1.36985,0.42445 l -13.74639,11.86206 c -0.44866,0.44678 -0.61404,1.00526 -0.61404,1.58608 v 11.72802 h -17.52541 c 0,0 16.93498,-17.15643 34.76731,-39.76367 0.61416,-0.71485 0.75581,-1.4297 0.75581,-1.98813 0,-0.71485 -0.30702,-1.29561 -0.44866,-1.42971 l -3.3304,-3.14978 c -0.44865,-0.29038 -0.89746,-0.58089 -1.51162,-0.58089 -0.89747,0 -21.32796,0 -22.53258,0 -1.06281,0 -1.81862,0.87127 -1.96041,1.72021 0,0 -0.75582,10.58868 -4.67659,22.16036 -3.94439,11.59399 -8.47926,18.74251 -12.40004,24.01453 0,0 -0.44876,0.71485 -0.44876,1.58608 0,0.29041 0,0.55855 0.14172,0.84891 0.44876,1.00523 1.51162,2.56904 1.51162,2.56904 0,0 0.30705,0.87113 1.65334,0.87113 h 26.00467"
     id="path238"
     style="stroke-width:1.47009" />
  <path
     class="NoteDot"
     d="m 2868.6189,891.11891 c 0,3.9987 3.3303,7.14851 7.5581,7.14851 4.2278,0 7.5581,-3.14981 7.5581,-7.14851 0,-3.9987 -3.3303,-7.14851 -7.5581,-7.14851 -4.2278,0 -7.5581,3.14981 -7.5581,7.14851"
     id="path240"
     style="stroke-width:1.47009" />
  <path
     class="NoteDot"
     d="m 2103.9538,855.37635 c 0,3.9987 3.3303,7.14851 7.5581,7.14851 4.2279,0 7.5582,-3.14981 7.5582,-7.14851 0,-3.9987 -3.3303,-7.14851 -7.5582,-7.14851 -4.2278,0 -7.5581,3.14981 -7.5581,7.14851"
     id="path242"
     style="stroke-width:1.47009" />
  <path
     class="NoteDot"
     d="m 1808.6387,1695.3293 c 0,3.9987 3.3303,7.1485 7.5581,7.1485 4.2278,0 7.5581,-3.1498 7.5581,-7.1485 0,-3.9987 -3.3303,-7.1485 -7.5581,-7.1485 -4.2278,0 -7.5581,3.1498 -7.5581,7.1485"
     id="path244"
     style="stroke-width:1.47009" />
  <path
     class="NoteDot"
     d="m 3561.8324,2642.5071 c 0,3.9987 3.3302,7.1486 7.5581,7.1486 4.2278,0 7.5581,-3.1499 7.5581,-7.1486 0,-3.9987 -3.3303,-7.1485 -7.5581,-7.1485 -4.2279,0 -7.5581,3.1498 -7.5581,7.1485"
     id="path246"
     style="stroke-width:1.47009" />
  <metadata
     id="metadata1035">
    <rdf:RDF>
      <cc:Work
         rdf:about="">
        <dc:title>scarborough_fair</dc:title>
      </cc:Work>
    </rdf:RDF>
  </metadata>
</svg>
