<?xml version="1.0" encoding="UTF-8" standalone="no"?>
<svg
   width="297mm"
   height="210mm"
   viewBox="0 0 4209.4487 2976.378"
   version="1.2"
   id="svg108"
   sodipodi:docname="le_bemol.svg"
   inkscape:version="1.2.2 (b0a8486541, 2022-12-01)"
   xmlns:inkscape="http://www.inkscape.org/namespaces/inkscape"
   xmlns:sodipodi="http://sodipodi.sourceforge.net/DTD/sodipodi-0.dtd"
   xmlns="http://www.w3.org/2000/svg"
   xmlns:svg="http://www.w3.org/2000/svg"
   xmlns:rdf="http://www.w3.org/1999/02/22-rdf-syntax-ns#"
   xmlns:cc="http://creativecommons.org/ns#"
   xmlns:dc="http://purl.org/dc/elements/1.1/">
  <defs
     id="defs112" />
  <sodipodi:namedview
     id="namedview110"
     pagecolor="#ffffff"
     bordercolor="#000000"
     borderopacity="0.25"
     inkscape:showpageshadow="2"
     inkscape:pageopacity="0.0"
     inkscape:pagecheckerboard="0"
     inkscape:deskcolor="#d1d1d1"
     inkscape:document-units="mm"
     showgrid="false"
     inkscape:zoom="3.4359852"
     inkscape:cx="354.77452"
     inkscape:cy="651.34156"
     inkscape:window-width="1104"
     inkscape:window-height="552"
     inkscape:window-x="0"
     inkscape:window-y="32"
     inkscape:window-maximized="1"
     inkscape:current-layer="svg108" />
  <title
     id="title2">Partition sans titre</title>
  <desc
     id="desc4">Generated by MuseScore Studio 4.5.2</desc>
  <polyline
     class="StaffLines"
     fill="none"
     stroke="#000000"
     stroke-width="2.73"
     stroke-linejoin="bevel"
     points="336.598,634.198 2764.6,634.198"
     id="polyline6"
     transform="matrix(1.4109102,0,0,6.9261205,-144.04581,-3532.7582)" />
  <polyline
     class="StaffLines"
     fill="none"
     stroke="#000000"
     stroke-width="2.73"
     stroke-linejoin="bevel"
     points="336.598,658.998 2764.6,658.998"
     id="polyline8"
     transform="matrix(1.4109102,0,0,6.9261205,-144.04581,-3532.7582)" />
  <polyline
     class="StaffLines"
     fill="none"
     stroke="#000000"
     stroke-width="2.73"
     stroke-linejoin="bevel"
     points="336.598,683.798 2764.6,683.798"
     id="polyline10"
     transform="matrix(1.4109102,0,0,6.9261205,-144.04581,-3532.7582)" />
  <polyline
     class="StaffLines"
     fill="none"
     stroke="#000000"
     stroke-width="2.73"
     stroke-linejoin="bevel"
     points="336.598,708.598 2764.6,708.598"
     id="polyline12"
     transform="matrix(1.4109102,0,0,6.9261205,-144.04581,-3532.7582)" />
  <polyline
     class="StaffLines"
     fill="none"
     stroke="#000000"
     stroke-width="2.73"
     stroke-linejoin="bevel"
     points="336.598,733.398 2764.6,733.398"
     id="polyline14"
     transform="matrix(1.4109102,0,0,6.9261205,-144.04581,-3532.7582)" />
  <polyline
     class="StaffLines"
     fill="none"
     stroke="#000000"
     stroke-width="2.73"
     stroke-linejoin="bevel"
     points="212.598,1316.2 955.167,1316.2"
     id="polyline16"
     transform="matrix(4.5995902,0,0,2.8899251,-655.73015,-1534.2805)" />
  <polyline
     class="StaffLines"
     fill="none"
     stroke="#000000"
     stroke-width="2.73"
     stroke-linejoin="bevel"
     points="212.598,1341 955.167,1341"
     id="polyline18"
     transform="matrix(4.5995902,0,0,2.8899251,-655.73015,-1534.2805)" />
  <polyline
     class="StaffLines"
     fill="none"
     stroke="#000000"
     stroke-width="2.73"
     stroke-linejoin="bevel"
     points="212.598,1365.8 955.167,1365.8"
     id="polyline20"
     transform="matrix(4.5995902,0,0,2.8899251,-655.73015,-1534.2805)" />
  <polyline
     class="StaffLines"
     fill="none"
     stroke="#000000"
     stroke-width="2.73"
     stroke-linejoin="bevel"
     points="212.598,1390.6 955.167,1390.6"
     id="polyline22"
     transform="matrix(4.5995902,0,0,2.8899251,-655.73015,-1534.2805)" />
  <polyline
     class="StaffLines"
     fill="none"
     stroke="#000000"
     stroke-width="2.73"
     stroke-linejoin="bevel"
     points="212.598,1415.4 955.167,1415.4"
     id="polyline24"
     transform="matrix(4.5995902,0,0,2.8899251,-655.73015,-1534.2805)" />
  <polyline
     class="BarLine"
     fill="none"
     stroke="#000000"
     stroke-width="4.46"
     stroke-linejoin="bevel"
     points="930.119,1314.83 930.119,1416.76"
     id="polyline34"
     transform="matrix(3.4951861,0,0,2.8899251,482.34899,-1534.2805)" />
  <polyline
     class="BarLine"
     fill="none"
     stroke="#000000"
     stroke-width="4.46"
     stroke-linejoin="bevel"
     points="633.501,1314.83 633.501,1416.76"
     id="polyline38"
     transform="matrix(1.8751991,0,0,2.8899251,1539.8748,-1534.2805)" />
  <polyline
     class="BarLine"
     fill="none"
     stroke="#000000"
     stroke-width="4.46"
     stroke-linejoin="bevel"
     points="2762.37,632.834 2762.37,734.762"
     id="polyline40"
     transform="matrix(1.4109102,0,0,6.9261205,-144.04581,-3532.7582)" />
  <polyline
     class="Stem"
     fill="none"
     stroke="#000000"
     stroke-width="2.48"
     stroke-linejoin="bevel"
     points="554.761,638.365 554.761,720.998"
     id="polyline50"
     transform="matrix(3.8345839,0,0,6.9261205,-1095.9532,-3450.2582)" />
  <polyline
     class="Stem"
     fill="none"
     stroke="#000000"
     stroke-width="2.48"
     stroke-linejoin="bevel"
     points="667.973,1357.56 667.973,1434"
     id="polyline52"
     transform="matrix(1.8751991,0,0,2.8899251,1539.8748,-1496.7805)" />
  <polyline
     class="Stem"
     fill="none"
     stroke="#000000"
     stroke-width="2.48"
     stroke-linejoin="bevel"
     points="563.084,1357.56 563.084,1434"
     id="polyline54"
     transform="matrix(1.8751991,0,0,2.8899251,1150.036,-1496.7805)" />
  <polyline
     class="Stem"
     fill="none"
     stroke="#000000"
     stroke-width="2.48"
     stroke-linejoin="bevel"
     points="496.148,1357.56 496.148,1434"
     id="polyline56"
     transform="matrix(1.8751991,0,0,2.8899251,798.23019,-1496.7805)" />
  <polyline
     class="Stem"
     fill="none"
     stroke="#000000"
     stroke-width="2.48"
     stroke-linejoin="bevel"
     points="429.211,1357.56 429.211,1434"
     id="polyline58"
     transform="matrix(1.8751991,0,0,2.8899251,465.44097,-1496.7805)" />
  <polyline
     class="Stem"
     fill="none"
     stroke="#000000"
     stroke-width="2.48"
     stroke-linejoin="bevel"
     points="357.911,1357.56 357.911,1434"
     id="polyline60"
     transform="matrix(1.8751991,0,0,2.8899251,85.110418,-1496.7805)" />
  <polyline
     class="Stem"
     fill="none"
     stroke="#000000"
     stroke-width="2.48"
     stroke-linejoin="bevel"
     points="1815.68,675.565 1815.68,751.998"
     id="polyline62"
     transform="matrix(3.8345839,0,0,6.9261205,-4129.1227,-3450.2582)" />
  <polyline
     class="Stem"
     fill="none"
     stroke="#000000"
     stroke-width="2.48"
     stroke-linejoin="bevel"
     points="1185.22,663.165 1185.22,745.798"
     id="polyline64"
     transform="matrix(3.8345839,0,0,6.9261205,-2554.2078,-3277.7582)" />
  <path
     class="Note"
     d="m 753.93954,2426.4937 c 0,12.3184 5.75499,26.07 20.83997,26.07 19.32876,0 39.61644,-24.3677 39.61644,-49.5867 0,-16.9321 -9.30099,-26.3836 -20.83999,-26.3836 -18.04967,0 -39.61642,23.5168 -39.61642,49.9003"
     id="path66"
     style="stroke-width:2.30929" />
  <path
     class="Note"
     d="m 1026.5695,971.15211 c 0,29.52259 11.7684,62.48069 42.6156,62.48069 39.5252,0 81.0113,-58.40123 81.0113,-118.84202 0,-40.58012 -19.0195,-63.23185 -42.6156,-63.23185 -36.9096,0 -81.0113,56.36115 -81.0113,119.59318"
     id="path68"
     style="stroke-width:5.1123" />
  <path
     class="Note"
     d="m 1267.9718,2426.4937 c 0,12.3184 5.755,26.07 20.84,26.07 19.3287,0 39.6165,-24.3677 39.6165,-49.5867 0,-16.9321 -9.301,-26.3836 -20.84,-26.3836 -18.0497,0 -39.6165,23.5168 -39.6165,49.9003"
     id="path70"
     style="stroke-width:2.30929" />
  <path
     class="Note"
     d="m 2790.1318,2426.4937 c 0,12.3184 5.7551,26.07 20.84,26.07 19.3288,0 39.6165,-24.3677 39.6165,-49.5867 0,-16.9321 -9.301,-26.3836 -20.8401,-26.3836 -18.0496,0 -39.6164,23.5168 -39.6164,49.9003"
     id="path72"
     style="stroke-width:2.30929" />
  <path
     class="Note"
     d="m 2909.5107,1109.2106 c -36.9097,0 -81.0111,55.717 -81.0111,119.5932 0,29.5226 11.768,62.4807 42.6154,62.4807 39.5251,0 81.0115,-58.4012 81.0115,-118.842 0,-40.5801 -19.0195,-63.2319 -42.6158,-63.2319 m -10.2823,120.9888 c -1.1294,1.2883 -28.8857,28.7711 -42.1996,28.7711 -12.541,0 -15.2155,-18.465 -15.2155,-24.6916 0,-28.8785 38.0388,-62.4806 39.5845,-63.8761 1.4858,-1.3956 28.529,-28.8785 42.1996,-28.8785 9.1529,0 15.2153,9.6619 15.2153,24.6916 0,29.6299 -38.3954,62.5879 -39.5843,63.9835"
     id="path74"
     style="stroke-width:5.1123" />
  <path
     class="Note"
     d="m 1985.8627,1315.4199 c 0,29.5226 11.7685,62.4806 42.6158,62.4806 39.5248,0 81.0113,-58.4011 81.0113,-118.842 0,-40.5801 -19.0198,-63.2318 -42.6159,-63.2318 -36.9098,0 -81.0112,56.3612 -81.0112,119.5932"
     id="path76"
     style="stroke-width:5.1123" />
  <path
     class="Note"
     d="m 1726.2813,2426.4937 c 0,12.3184 5.7549,26.07 20.8399,26.07 19.3288,0 39.6164,-24.3677 39.6164,-49.5867 0,-16.9321 -9.301,-26.3836 -20.84,-26.3836 -18.0497,0 -39.6163,23.5168 -39.6163,49.9003"
     id="path78"
     style="stroke-width:2.30929" />
  <path
     class="Note"
     d="m 2203.6052,2426.4937 c 0,12.3184 5.7551,26.07 20.8401,26.07 19.3287,0 39.6164,-24.3677 39.6164,-49.5867 0,-16.9321 -9.301,-26.3836 -20.84,-26.3836 -18.0497,0 -39.6165,23.5168 -39.6165,49.9003"
     id="path80"
     style="stroke-width:2.30929" />
  <path
     class="Clef"
     d="m 435.69278,2690.0085 c 0,-10.6163 -6.30718,-15.1852 -12.44006,-15.1852 -7.81859,0 -15.4629,7.4358 -15.4629,20.3363 0,5.4648 1.30791,9.4964 3.92392,13.4831 -4.85402,2.8666 -9.67897,8.6003 -9.67897,17.5143 0,9.4515 5.58058,15.7674 13.77715,15.7674 10.0276,0 17.09056,-8.6004 17.09056,-20.9634 0,-6.5848 -1.86019,-12.0049 -5.20277,-15.7676 5.40629,-3.7178 7.99307,-8.2868 7.99307,-15.1849 m -18.60197,45.8687 c -4.06918,0 -6.85949,-3.9866 -6.85949,-10.0338 0,-5.7337 1.65672,-10.3026 4.82482,-13.1695 0.75578,0.5825 0.9301,0.5825 1.48238,1.1198 2.23802,1.7471 2.23802,1.7471 2.616,2.3296 3.51688,3.1355 5.0283,6.0023 5.0283,10.0337 0,5.4199 -2.99381,9.7202 -7.09201,9.7202 m 7.09201,-34.4016 c -2.79031,-2.2846 -3.54609,-2.8667 -4.0982,-3.4492 l -0.37798,-0.2688 c -2.7903,-2.598 -3.7204,-4.6138 -3.7204,-8.0179 0,-5.1962 2.61598,-8.914 6.33637,-8.914 3.51691,0 5.75491,3.4489 5.75491,9.4513 0,4.6139 -1.10442,7.7494 -3.8947,11.1986 m 51.88203,-217.6085 c 0,-43.2708 -19.9099,-72.5212 -47.05723,-72.5212 -1.86018,-17.2009 -3.54591,-34.133 -5.20261,-50.1692 19.53207,-31.8482 33.28004,-67.9521 33.28004,-113.2387 0,-26.1147 -5.20277,-47.3023 -8.37089,-57.6487 -4.44698,-14.6035 -9.85327,-24.6373 -13.02138,-24.6373 -1.27889,0 -7.23727,3.4488 -13.19585,14.6035 -12.09129,21.8137 -15.4337,58.186 -15.4337,82.2852 0,15.4987 0.9301,29.5193 4.0982,61.95 -0.2035,0 -9.88229,15.1852 -13.77717,20.3363 -16.9451,24.0992 -40.37206,59.0383 -40.37206,116.1057 0,53.8869 30.31545,96.038 64.93261,96.038 5.37708,0 10.4054,-0.851 14.88159,-2.0159 3.34241,27.2797 5.58059,47.6159 5.58059,62.8011 0,29.8325 -10.05678,45.6002 -28.83306,45.6002 -4.4762,0 -8.37089,-1.4334 -8.74887,-1.7471 -0.17439,0 -0.55212,-0.2688 -0.55212,-0.5374 0,-0.5823 0.3778,-0.896 0.9301,-1.1646 8.74869,-2.0159 17.46836,-13.7518 17.46836,-31.8037 0,-15.4988 -7.61526,-31.8486 -21.56673,-31.8486 -13.02139,0 -21.2178,16.3498 -21.2178,35.2528 0,18.9478 9.30098,43.8979 34.41365,43.8979 24.0081,0 35.72157,-20.9633 35.72157,-57.6495 0,-11.1537 -1.10441,-24.0542 -2.96462,-40.404 -0.55229,-5.7337 -1.48239,-14.6477 -2.79029,-25.5326 18.22401,-9.4513 31.79767,-38.4329 31.79767,-67.9522 M 418.77654,2248.789 c 1.86019,-11.4672 10.23108,-41.5688 19.91006,-41.5688 2.7903,0 7.44077,13.7518 7.44077,33.8195 0,29.5193 -14.50377,51.916 -27.35083,71.6702 -1.10442,-11.4673 -2.03452,-22.9346 -2.03452,-34.6705 0,-10.8848 0.7266,-20.3812 2.03452,-29.2504 m 5.5806,296.4456 c -26.59488,0 -49.2952,-28.6681 -49.2952,-71.9836 0,-34.9393 15.98611,-66.2052 32.37909,-88.2887 3.13908,-4.0314 6.1329,-8.0181 8.9232,-12.3183 1.65668,15.454 2.96459,28.6681 4.2725,40.7176 -16.9451,7.4358 -28.45507,35.2526 -28.45507,61.905 0,20.3814 10.23108,47.8847 25.11267,47.8847 1.48221,0 3.16809,-1.1646 3.16809,-4.0314 0,-2.2845 -1.68588,-3.9868 -4.09819,-6.2712 -7.2665,-6.6296 -11.36471,-14.3339 -11.36471,-28.1304 0,-17.4696 8.57441,-31.535 19.35762,-35.5216 l 10.78336,94.0222 c -3.72039,1.1646 -7.06298,2.0157 -10.78336,2.0157 m 18.60197,-5.4646 c -3.89471,-34.0882 -8.92301,-79.6884 -10.2311,-92.3204 18.77645,0 26.79855,20.0677 28.45524,33.8641 0.20352,2.2848 0.55229,5.4203 0.55229,8.8692 0,20.6501 -5.58059,41.3 -18.77643,49.5871"
     id="path82"
     style="stroke-width:2.30929" />
  <path
     class="TimeSig"
     d="m 526.9293,2381.6572 v 21.1875 h -15.43387 c -1.30792,0 -2.61581,1.7469 -2.61581,4.0315 v 5.4648 c 0,2.2844 1.30789,3.9867 2.61581,3.9867 h 56.35821 c 1.5114,0 2.61582,-1.7023 2.61582,-3.9867 v -5.4648 c 0,-2.2846 -1.10442,-4.0315 -2.61582,-4.0315 h -16.74179 v -21.1875 h 16.74179 c 1.5114,0 2.61582,-2.0157 2.61582,-4.3003 v -5.4649 c 0,-2.0157 -1.10442,-3.9866 -2.61582,-3.9866 h -16.74179 v -45.6 c 0,-1.7023 -0.55228,-3.1357 -1.27888,-3.718 l -2.238,-1.7469 c -0.37797,-0.2688 -0.55229,-0.2688 -0.93009,-0.2688 -0.20352,0 -0.20352,0 -0.37798,0 -0.55212,0 -1.30793,0.2688 -1.68574,0.8511 l -16.91624,23.7856 c -0.55212,0.8957 -0.75562,2.0157 -0.75562,3.1803 v 23.5167 h -21.56672 c 0,0 20.84012,-34.4016 42.78452,-79.7332 0.75577,-1.4334 0.9301,-2.8668 0.9301,-3.9864 0,-1.4335 -0.37782,-2.598 -0.55213,-2.8669 l -4.09838,-6.316 c -0.55211,-0.5821 -1.10441,-1.1647 -1.86019,-1.1647 -1.10442,0 -26.24609,0 -27.7285,0 -1.30789,0 -2.23799,1.747 -2.41247,3.4493 0,0 -0.9301,21.2322 -5.75498,44.4354 -4.85396,23.2481 -10.43456,37.5821 -15.25945,48.1534 0,0 -0.55224,1.4335 -0.55224,3.1805 0,0.5823 0,1.12 0.1744,1.7021 0.55225,2.0157 1.86019,5.1514 1.86019,5.1514 0,0 0.37786,1.7469 2.03459,1.7469 h 32.00126"
     id="path86"
     style="stroke-width:2.30929" />
  <path
     class="TimeSig"
     d="m 527.1812,2518.4133 v 21.1877 h -15.43386 c -1.30792,0 -2.61581,1.7469 -2.61581,4.0313 v 5.465 c 0,2.2844 1.30789,3.9867 2.61581,3.9867 h 56.3582 c 1.51141,0 2.61583,-1.7023 2.61583,-3.9867 v -5.465 c 0,-2.2844 -1.10442,-4.0313 -2.61583,-4.0313 h -16.74178 v -21.1877 h 16.74178 c 1.51141,0 2.61583,-2.0155 2.61583,-4.3001 v -5.4648 c 0,-2.0158 -1.10442,-3.9867 -2.61583,-3.9867 h -16.74178 v -45.6002 c 0,-1.7021 -0.55228,-3.1355 -1.27889,-3.7178 l -2.23799,-1.7469 c -0.37797,-0.2688 -0.55229,-0.2688 -0.9301,-0.2688 -0.20351,0 -0.20351,0 -0.37797,0 -0.55213,0 -1.30793,0.2688 -1.68574,0.8511 l -16.91624,23.7854 c -0.55213,0.8959 -0.75563,2.0159 -0.75563,3.1805 v 23.5167 h -21.56672 c 0,0 20.84013,-34.4016 42.78453,-79.7332 0.75576,-1.4334 0.93009,-2.8668 0.93009,-3.9866 0,-1.4332 -0.37782,-2.5978 -0.55212,-2.8667 l -4.09838,-6.316 c -0.55211,-0.5821 -1.10442,-1.1647 -1.8602,-1.1647 -1.10441,0 -26.24609,0 -27.72849,0 -1.30789,0 -2.23799,1.747 -2.41247,3.4493 0,0 -0.9301,21.2322 -5.75499,44.4354 -4.85395,23.2481 -10.43456,37.5822 -15.25944,48.1534 0,0 -0.55224,1.4335 -0.55224,3.1804 0,0.5824 0,1.1201 0.17439,1.7022 0.55225,2.0157 1.8602,5.1514 1.8602,5.1514 0,0 0.37786,1.7467 2.03459,1.7467 h 32.00125"
     id="path88"
     style="stroke-width:2.30929" />
  <path
     class="Rest"
     d="m 2982.2099,2409.9124 c 0,4.0315 0,4.0315 2.6159,4.0315 h 55.2537 c 2.5867,0 2.5867,0 2.5867,-4.0315 v -30.9525 c 0,-4.0314 0,-4.0314 -2.5867,-4.0314 h -55.2537 c -2.6159,0 -2.6159,0 -2.6159,4.0314 v 30.9525"
     id="path92"
     style="stroke-width:2.30929" />
  <path
     class="NoteDot"
     d="m 3065.8887,2376.9442 c 0,8.0181 4.0982,14.3339 9.301,14.3339 5.2027,0 9.301,-6.3158 9.301,-14.3339 0,-8.018 -4.0983,-14.334 -9.301,-14.334 -5.2028,0 -9.301,6.316 -9.301,14.334"
     id="path106"
     style="stroke-width:2.30929" />
  <metadata
     id="metadata950">
    <rdf:RDF>
      <cc:Work
         rdf:about="">
        <dc:title>Partition sans titre</dc:title>
      </cc:Work>
    </rdf:RDF>
  </metadata>
  <path
     style="fill:#000000;stroke:#000000;stroke-width:8.00787398;paint-order:stroke fill markers;stroke-opacity:1;stroke-dasharray:none"
     d="m 1686.2966,1995.831 -339.1814,311.6334 z"
     id="path435" />
  <path
     style="fill:#000000;stroke:#000000;stroke-width:8.00786;stroke-dasharray:none;stroke-opacity:1;paint-order:stroke fill markers"
     d="m 1349.9598,2302.5623 c 3.6513,-8.542 12.6979,-62.3763 12.6979,-62.3763 z"
     id="path1394" />
  <path
     style="fill:#000000;stroke:#000000;stroke-width:8.00786;stroke-dasharray:none;stroke-opacity:1;paint-order:stroke fill markers"
     d="m 1352.877,2303.2398 c 5.3069,-2.0021 55.2548,7.6017 55.2548,7.6017 z"
     id="path1408" />
  <path
     style="fill:#000000;stroke:#000000;stroke-width:8.00786;stroke-dasharray:none;stroke-opacity:1;paint-order:stroke fill markers"
     d="m 1768.4568,1998.432 0.2235,310.2651 z"
     id="path1428" />
  <path
     style="fill:#000000;stroke:#000000;stroke-width:8.00786;stroke-dasharray:none;stroke-opacity:1;paint-order:stroke fill markers"
     d="m 1768.0621,2308.806 c -6.0102,-6.7001 -24.5133,-47.7159 -24.5133,-47.7159 z"
     id="path1436" />
  <path
     style="fill:#000000;stroke:#000000;stroke-width:8.00786;stroke-dasharray:none;stroke-opacity:1;paint-order:stroke fill markers"
     d="m 1766.6169,2306.0252 23.2297,-43.8381 z"
     id="path1444" />
  <path
     style="fill:#000000;stroke:#000000;stroke-width:8.00786;stroke-dasharray:none;stroke-opacity:1;paint-order:stroke fill markers"
     d="m 1845.413,2000.5102 337.6169,321.9442 z"
     id="path1511" />
  <path
     style="fill:#000000;stroke:#000000;stroke-width:8.00786;stroke-dasharray:none;stroke-opacity:1;paint-order:stroke fill markers"
     d="m 2181.9065,2320.8873 c 2.0514,-12.8718 -14.0063,-45.6064 -14.0063,-45.6064 z"
     id="path1513" />
  <path
     style="fill:#000000;stroke:#000000;stroke-width:8.00786;stroke-dasharray:none;stroke-opacity:1;paint-order:stroke fill markers"
     d="m 2177.7986,2322.44 -39.7216,-7.6213 z"
     id="path1515" />
  <text
     xml:space="preserve"
     style="font-size:135px;font-family:sans-serif;-inkscape-font-specification:sans-serif;fill:#000000;stroke-width:8.625;paint-order:stroke fill markers"
     x="1714.9927"
     y="1924.2872"
     id="text1041"><tspan
       sodipodi:role="line"
       style="stroke-width:8.625"
       id="tspan1043"
       x="1714.9927"
       y="1924.2872" /></text>
  <text
     xml:space="preserve"
     style="font-size:135px;font-family:sans-serif;-inkscape-font-specification:sans-serif;fill:#000000;stroke-width:8.625;paint-order:stroke fill markers"
     x="726.39453"
     y="2230.0015"
     id="text1049"><tspan
       sodipodi:role="line"
       id="tspan1047"
       style="stroke-width:8.625"
       x="726.39453"
       y="2230.0015">Si </tspan></text>
  <text
     xml:space="preserve"
     style="font-size:135px;font-family:sans-serif;-inkscape-font-specification:sans-serif;fill:#000000;stroke-width:8.625;paint-order:stroke fill markers"
     x="1441.0033"
     y="1945.3297"
     id="text1049-3"><tspan
       sodipodi:role="line"
       id="tspan1047-6"
       style="stroke-width:8.625"
       x="1441.0033"
       y="1945.3297">Si  bémol</tspan></text>
  <text
     xml:space="preserve"
     style="font-size:135px;font-family:sans-serif;-inkscape-font-specification:sans-serif;fill:#000000;stroke-width:8.625;paint-order:stroke fill markers"
     x="2756.4844"
     y="2226.6079"
     id="text1049-7"><tspan
       sodipodi:role="line"
       id="tspan1047-5"
       style="stroke-width:8.625"
       x="2756.4844"
       y="2226.6079">Si </tspan></text>
  <path
     class="Accidental"
     d="m 1246.717,2397.8024 c -1.0794,-7.0725 -5.4534,-13.804 -14.7129,-13.804 -9.0891,0 -14.372,5.6238 -15.281,6.7315 l 0.7385,-58.3685 c 0,-1.4484 -1.0793,-2.5279 -2.5563,-2.5279 h -2.1586 c -1.477,0 -2.5563,1.0795 -2.5563,2.5279 l 0.909,109.2671 c 0,1.4486 1.0793,2.5279 2.5563,2.5279 0.3408,0 1.0793,-0.1704 1.4485,-0.3408 0.7101,-0.3693 12.5258,-6.1919 22.3532,-17.2693 6.902,-7.8392 9.6287,-16.7294 9.6287,-24.1994 0,-1.619 -0.1704,-3.0675 -0.3691,-4.5445 m -12.5259,7.1007 c 0,2.7268 -0.7385,11.0772 -5.283,18.0076 -3.0959,4.715 -9.2595,9.6287 -12.7246,12.3554 l 0.5396,-35.4471 c 0.3693,-1.6474 3.096,-6.902 10.3672,-6.902 6.5613,0 7.1008,6.1635 7.1008,9.998 0,0.9088 0,1.4485 0,1.9881"
     id="path56"
     style="stroke-width:1.81781" />
  <path
     class="Accidental"
     d="m 1950.3734,1254.0907 c -2.1511,-14.0941 -10.8676,-27.5087 -29.3201,-27.5087 -18.1128,0 -28.6406,11.2072 -30.452,13.4146 l 1.4715,-116.3174 c 0,-2.8866 -2.1507,-5.0377 -5.0941,-5.0377 h -4.3018 c -2.9433,0 -5.0942,2.1511 -5.0942,5.0377 l 1.8114,217.7488 c 0,2.8868 2.1509,5.0377 5.0941,5.0377 0.6794,0 2.1509,-0.3395 2.8866,-0.6792 1.4153,-0.736 24.9617,-12.3394 44.5458,-34.4145 13.7546,-15.622 19.1883,-33.3385 19.1883,-48.225 0,-3.2263 -0.3395,-6.1129 -0.7355,-9.0563 m -24.9618,14.1506 c 0,5.4339 -1.4717,22.0748 -10.528,35.8857 -6.1696,9.396 -18.4525,19.1883 -25.3578,24.622 l 1.0755,-70.6395 c 0.7358,-3.2829 6.1695,-13.7545 20.6598,-13.7545 13.0755,0 14.1505,12.2829 14.1505,19.9242 0,1.8112 0,2.8866 0,3.9621"
     id="path56-3"
     style="stroke-width:3.62255" />
  <path
     class="Accidental"
     d="m 998.6976,916.6086 c -2.1511,-14.0941 -10.8676,-27.5087 -29.3201,-27.5087 -18.1128,0 -28.6406,11.2072 -30.452,13.4146 l 1.4715,-116.3174 c 0,-2.8866 -2.1507,-5.0377 -5.0941,-5.0377 h -4.3018 c -2.9433,0 -5.0942,2.1511 -5.0942,5.0377 l 1.8114,217.7488 c 0,2.8868 2.1509,5.0377 5.0941,5.0377 0.6794,0 2.1509,-0.3395 2.8866,-0.6792 1.4153,-0.736 24.9617,-12.3394 44.5458,-34.4145 13.7546,-15.622 19.1883,-33.3385 19.1883,-48.225 0,-3.2263 -0.3395,-6.1129 -0.7355,-9.0563 m -24.9618,14.1506 c 0,5.4339 -1.4717,22.0748 -10.528,35.8857 -6.1696,9.396 -18.4525,19.1883 -25.3578,24.622 l 1.0755,-70.6395 c 0.7358,-3.2829 6.1695,-13.7544 20.6598,-13.7544 13.0755,0 14.1505,12.2828 14.1505,19.9241 0,1.8112 0,2.8866 0,3.9621"
     id="path56-3-9"
     style="stroke-width:3.62255" />
  <path
     class="Accidental"
     d="m 2800.5792,1175.0853 c -2.1511,-14.0941 -10.8676,-27.5087 -29.3201,-27.5087 -18.1128,0 -28.6406,11.2072 -30.452,13.4146 l 1.4715,-116.3174 c 0,-2.8866 -2.1507,-5.0377 -5.0941,-5.0377 h -4.3018 c -2.9433,0 -5.0942,2.1511 -5.0942,5.0377 l 1.8114,217.7488 c 0,2.8868 2.1509,5.0377 5.0941,5.0377 0.6794,0 2.1509,-0.3395 2.8866,-0.6792 1.4153,-0.736 24.9617,-12.3394 44.5458,-34.4145 13.7546,-15.622 19.1883,-33.3385 19.1883,-48.225 0,-3.2263 -0.3395,-6.1129 -0.7355,-9.0563 m -24.9618,14.1506 c 0,5.4339 -1.4717,22.0748 -10.528,35.8857 -6.1696,9.396 -18.4525,19.1883 -25.3578,24.622 l 1.0755,-70.6395 c 0.7358,-3.283 6.1695,-13.7545 20.6598,-13.7545 13.0755,0 14.1505,12.2829 14.1505,19.9242 0,1.8112 0,2.8866 0,3.9621"
     id="path56-3-2"
     style="stroke-width:3.62255" />
  <text
     xml:space="preserve"
     style="font-size:135px;font-family:sans-serif;-inkscape-font-specification:sans-serif;fill:#000000;stroke-width:8.625;paint-order:stroke fill markers"
     x="765.26172"
     y="690.80884"
     id="text1378"><tspan
       sodipodi:role="line"
       id="tspan1376"
       style="stroke-width:8.625"
       x="765.26172"
       y="690.80884">Mi bémol</tspan></text>
  <text
     xml:space="preserve"
     style="font-size:135px;font-family:sans-serif;-inkscape-font-specification:sans-serif;fill:#000000;stroke-width:8.625;paint-order:stroke fill markers"
     x="1694.0308"
     y="994.24811"
     id="text1382"><tspan
       sodipodi:role="line"
       id="tspan1380"
       style="stroke-width:8.625"
       x="1694.0308"
       y="994.24811">La bémol</tspan></text>
  <text
     xml:space="preserve"
     style="font-size:135px;font-family:sans-serif;-inkscape-font-specification:sans-serif;fill:#000000;stroke-width:8.625;paint-order:stroke fill markers"
     x="2589.7346"
     y="810.72589"
     id="text1386"><tspan
       sodipodi:role="line"
       id="tspan1384"
       style="stroke-width:8.625"
       x="2589.7346"
       y="810.72589">Si bémol</tspan></text>
</svg>
