<?xml version="1.0" encoding="UTF-8" standalone="no"?>
<!-- Created with Inkscape (http://www.inkscape.org/) -->

<svg
   xmlns:dc="http://purl.org/dc/elements/1.1/"
   xmlns:cc="http://creativecommons.org/ns#"
   xmlns:rdf="http://www.w3.org/1999/02/22-rdf-syntax-ns#"
   xmlns:svg="http://www.w3.org/2000/svg"
   xmlns="http://www.w3.org/2000/svg"
   xmlns:sodipodi="http://sodipodi.sourceforge.net/DTD/sodipodi-0.dtd"
   xmlns:inkscape="http://www.inkscape.org/namespaces/inkscape"
   width="297mm"
   height="210mm"
   viewBox="0 0 297 210"
   version="1.1"
   id="svg1315"
   inkscape:version="0.92.5 (2060ec1f9f, 2020-04-08)"
   sodipodi:docname="exo_corde_a_vide_3.svg">
  <defs
     id="defs1309" />
  <sodipodi:namedview
     id="base"
     pagecolor="#ffffff"
     bordercolor="#666666"
     borderopacity="1.0"
     inkscape:pageopacity="0.0"
     inkscape:pageshadow="2"
     inkscape:zoom="0.35"
     inkscape:cx="534.18449"
     inkscape:cy="420"
     inkscape:document-units="mm"
     inkscape:current-layer="layer1"
     showgrid="false"
     inkscape:window-width="1920"
     inkscape:window-height="1048"
     inkscape:window-x="0"
     inkscape:window-y="0"
     inkscape:window-maximized="1" />
  <metadata
     id="metadata1312">
    <rdf:RDF>
      <cc:Work
         rdf:about="">
        <dc:format>image/svg+xml</dc:format>
        <dc:type
           rdf:resource="http://purl.org/dc/dcmitype/StillImage" />
        <dc:title></dc:title>
      </cc:Work>
    </rdf:RDF>
  </metadata>
  <g
     inkscape:label="Calque 1"
     inkscape:groupmode="layer"
     id="layer1"
     transform="translate(0,-87)">
    <polyline
       transform="matrix(0.1160751,0,0,0.1160751,-24.375215,103.93819)"
       style="fill:none;stroke:#000000;stroke-width:2.73000002;stroke-linejoin:bevel"
       class="StaffLines"
       points="336.598,386.198 2764.6,386.198"
       id="polyline8" />
    <polyline
       transform="matrix(0.1160751,0,0,0.1160751,-24.375215,103.93819)"
       style="fill:none;stroke:#000000;stroke-width:2.73000002;stroke-linejoin:bevel"
       class="StaffLines"
       points="336.598,410.998 2764.6,410.998"
       id="polyline10" />
    <polyline
       transform="matrix(0.1160751,0,0,0.1160751,-24.375215,103.93819)"
       style="fill:none;stroke:#000000;stroke-width:2.73000002;stroke-linejoin:bevel"
       class="StaffLines"
       points="336.598,435.798 2764.6,435.798"
       id="polyline12" />
    <polyline
       transform="matrix(0.1160751,0,0,0.1160751,-24.375215,103.93819)"
       style="fill:none;stroke:#000000;stroke-width:2.73000002;stroke-linejoin:bevel"
       class="StaffLines"
       points="336.598,460.598 2764.6,460.598"
       id="polyline14" />
    <polyline
       transform="matrix(0.1160751,0,0,0.1160751,-24.375215,103.93819)"
       style="fill:none;stroke:#000000;stroke-width:2.73000002;stroke-linejoin:bevel"
       class="StaffLines"
       points="336.598,485.398 2764.6,485.398"
       id="polyline16" />
    <polyline
       transform="matrix(0.1160751,0,0,0.1160751,-24.375215,103.93819)"
       style="fill:none;stroke:#000000;stroke-width:2.73000002;stroke-linejoin:bevel"
       class="StaffLines"
       points="212.598,993.798 2764.6,993.798"
       id="polyline18" />
    <polyline
       transform="matrix(0.1160751,0,0,0.1160751,-24.375215,103.93819)"
       style="fill:none;stroke:#000000;stroke-width:2.73000002;stroke-linejoin:bevel"
       class="StaffLines"
       points="212.598,1018.6 2764.6,1018.6"
       id="polyline20" />
    <polyline
       transform="matrix(0.1160751,0,0,0.1160751,-24.375215,103.93819)"
       style="fill:none;stroke:#000000;stroke-width:2.73000002;stroke-linejoin:bevel"
       class="StaffLines"
       points="212.598,1043.4 2764.6,1043.4"
       id="polyline22" />
    <polyline
       transform="matrix(0.1160751,0,0,0.1160751,-24.375215,103.93819)"
       style="fill:none;stroke:#000000;stroke-width:2.73000002;stroke-linejoin:bevel"
       class="StaffLines"
       points="212.598,1068.2 2764.6,1068.2"
       id="polyline24" />
    <polyline
       transform="matrix(0.1160751,0,0,0.1160751,-24.375215,103.93819)"
       style="fill:none;stroke:#000000;stroke-width:2.73000002;stroke-linejoin:bevel"
       class="StaffLines"
       points="212.598,1093 2764.6,1093"
       id="polyline26" />
    <path
       inkscape:connector-curvature="0"
       class="MeasureNumber"
       d="M 2.795994,210.24976 H 2.5438798 l -2.16189899,2.23803 v 0.19409 H 1.6896821 l -0.074409,0.28299 c -0.092507,0.35355 -0.092507,0.35355 -0.4969172,0.35355 h -0.083463 l -0.027163,0.21765 h 1.4436249 l 0.023561,-0.21765 h -0.083463 c -0.3064392,0 -0.3717887,-0.0236 -0.3717887,-0.12518 0,-0.0382 0.00905,-0.0833 0.047246,-0.22844 l 0.077886,-0.283 h 0.5296512 l 0.068945,-0.25025 H 2.2101464 l 0.5858301,-2.18186 M 1.760354,212.43155 H 0.71927831 l 1.43468799,-1.47636 -0.3936123,1.47636"
       id="path28"
       style="stroke-width:0.11607509" />
    <polyline
       transform="matrix(0.1160751,0,0,0.1160751,-24.375215,103.93819)"
       style="fill:none;stroke:#000000;stroke-width:4.46000004;stroke-linejoin:bevel"
       class="BarLine"
       points="2739.55,992.434 2739.55,1094.36"
       id="polyline30" />
    <polyline
       transform="matrix(0.1160751,0,0,0.1160751,-24.375215,103.93819)"
       style="fill:none;stroke:#000000;stroke-width:13.64000034;stroke-linejoin:bevel"
       class="BarLine"
       points="2757.78,992.434 2757.78,1094.36"
       id="polyline32" />
    <polyline
       transform="matrix(0.1160751,0,0,0.1160751,-24.375215,103.93819)"
       style="fill:none;stroke:#000000;stroke-width:4.46000004;stroke-linejoin:bevel"
       class="BarLine"
       points="1127.99,992.434 1127.99,1094.36"
       id="polyline34" />
    <polyline
       transform="matrix(0.1160751,0,0,0.1160751,-24.375215,103.93819)"
       style="fill:none;stroke:#000000;stroke-width:4.46000004;stroke-linejoin:bevel"
       class="BarLine"
       points="2762.37,384.834 2762.37,486.762"
       id="polyline36" />
    <polyline
       transform="matrix(0.1160751,0,0,0.1160751,-24.375215,103.93819)"
       style="fill:none;stroke:#000000;stroke-width:4.46000004;stroke-linejoin:bevel"
       class="BarLine"
       points="1933.77,992.434 1933.77,1094.36"
       id="polyline38" />
    <polyline
       transform="matrix(0.1160751,0,0,0.1160751,-24.375215,103.93819)"
       style="fill:none;stroke:#000000;stroke-width:4.46000004;stroke-linejoin:bevel"
       class="BarLine"
       points="2008.6,384.834 2008.6,486.762"
       id="polyline40" />
    <polyline
       transform="matrix(0.1160751,0,0,0.1160751,-24.375215,103.93819)"
       style="fill:none;stroke:#000000;stroke-width:4.46000004;stroke-linejoin:bevel"
       class="BarLine"
       points="1254.83,384.834 1254.83,486.762"
       id="polyline42" />
    <polyline
       transform="matrix(0.1160751,0,0,0.1160751,-24.375215,103.93819)"
       style="fill:none;stroke:#000000;stroke-width:3.97000003;stroke-linejoin:bevel"
       class="LedgerLine"
       points="604.854,1117.8 653.454,1117.8"
       id="polyline44" />
    <polyline
       transform="matrix(0.1160751,0,0,0.1160751,-24.375215,103.93819)"
       style="fill:none;stroke:#000000;stroke-width:3.97000003;stroke-linejoin:bevel"
       class="LedgerLine"
       points="1281.12,510.198 1329.72,510.198"
       id="polyline46" />
    <polyline
       transform="matrix(0.1160751,0,0,0.1160751,-24.375215,103.93819)"
       style="fill:none;stroke:#000000;stroke-width:3.97000003;stroke-linejoin:bevel"
       class="LedgerLine"
       points="861.214,1117.8 909.814,1117.8"
       id="polyline48" />
    <polyline
       transform="matrix(0.1160751,0,0,0.1160751,-24.375215,103.93819)"
       style="fill:none;stroke:#000000;stroke-width:3.97000003;stroke-linejoin:bevel"
       class="LedgerLine"
       points="1520.14,534.998 1568.74,534.998"
       id="polyline50" />
    <polyline
       transform="matrix(0.1160751,0,0,0.1160751,-24.375215,103.93819)"
       style="fill:none;stroke:#000000;stroke-width:3.97000003;stroke-linejoin:bevel"
       class="LedgerLine"
       points="1520.14,510.198 1568.74,510.198"
       id="polyline52" />
    <polyline
       transform="matrix(0.1160751,0,0,0.1160751,-24.375215,103.93819)"
       style="fill:none;stroke:#000000;stroke-width:3.97000003;stroke-linejoin:bevel"
       class="LedgerLine"
       points="861.214,1142.6 909.814,1142.6"
       id="polyline54" />
    <polyline
       transform="matrix(0.1160751,0,0,0.1160751,-24.375215,103.93819)"
       style="fill:none;stroke:#000000;stroke-width:3.97000003;stroke-linejoin:bevel"
       class="LedgerLine"
       points="861.214,1167.4 909.814,1167.4"
       id="polyline56" />
    <polyline
       transform="matrix(0.1160751,0,0,0.1160751,-24.375215,103.93819)"
       style="fill:none;stroke:#000000;stroke-width:3.97000003;stroke-linejoin:bevel"
       class="LedgerLine"
       points="1759.16,534.998 1807.76,534.998"
       id="polyline58" />
    <polyline
       transform="matrix(0.1160751,0,0,0.1160751,-24.375215,103.93819)"
       style="fill:none;stroke:#000000;stroke-width:3.97000003;stroke-linejoin:bevel"
       class="LedgerLine"
       points="1759.16,510.198 1807.76,510.198"
       id="polyline60" />
    <polyline
       transform="matrix(0.1160751,0,0,0.1160751,-24.375215,103.93819)"
       style="fill:none;stroke:#000000;stroke-width:3.97000003;stroke-linejoin:bevel"
       class="LedgerLine"
       points="527.349,510.198 575.949,510.198"
       id="polyline62" />
    <polyline
       transform="matrix(0.1160751,0,0,0.1160751,-24.375215,103.93819)"
       style="fill:none;stroke:#000000;stroke-width:3.97000003;stroke-linejoin:bevel"
       class="LedgerLine"
       points="1410.64,1142.6 1459.24,1142.6"
       id="polyline64" />
    <polyline
       transform="matrix(0.1160751,0,0,0.1160751,-24.375215,103.93819)"
       style="fill:none;stroke:#000000;stroke-width:3.97000003;stroke-linejoin:bevel"
       class="LedgerLine"
       points="766.371,559.798 814.971,559.798"
       id="polyline66" />
    <polyline
       transform="matrix(0.1160751,0,0,0.1160751,-24.375215,103.93819)"
       style="fill:none;stroke:#000000;stroke-width:3.97000003;stroke-linejoin:bevel"
       class="LedgerLine"
       points="604.854,1142.6 653.454,1142.6"
       id="polyline68" />
    <polyline
       transform="matrix(0.1160751,0,0,0.1160751,-24.375215,103.93819)"
       style="fill:none;stroke:#000000;stroke-width:3.97000003;stroke-linejoin:bevel"
       class="LedgerLine"
       points="604.854,1167.4 653.454,1167.4"
       id="polyline70" />
    <polyline
       transform="matrix(0.1160751,0,0,0.1160751,-24.375215,103.93819)"
       style="fill:none;stroke:#000000;stroke-width:3.97000003;stroke-linejoin:bevel"
       class="LedgerLine"
       points="1667,1117.8 1715.6,1117.8"
       id="polyline72" />
    <polyline
       transform="matrix(0.1160751,0,0,0.1160751,-24.375215,103.93819)"
       style="fill:none;stroke:#000000;stroke-width:3.97000003;stroke-linejoin:bevel"
       class="LedgerLine"
       points="1410.64,1117.8 1459.24,1117.8"
       id="polyline74" />
    <polyline
       transform="matrix(0.1160751,0,0,0.1160751,-24.375215,103.93819)"
       style="fill:none;stroke:#000000;stroke-width:3.97000003;stroke-linejoin:bevel"
       class="LedgerLine"
       points="1667,1142.6 1715.6,1142.6"
       id="polyline76" />
    <polyline
       transform="matrix(0.1160751,0,0,0.1160751,-24.375215,103.93819)"
       style="fill:none;stroke:#000000;stroke-width:3.97000003;stroke-linejoin:bevel"
       class="LedgerLine"
       points="527.349,534.998 575.949,534.998"
       id="polyline78" />
    <polyline
       transform="matrix(0.1160751,0,0,0.1160751,-24.375215,103.93819)"
       style="fill:none;stroke:#000000;stroke-width:3.97000003;stroke-linejoin:bevel"
       class="LedgerLine"
       points="527.349,559.798 575.949,559.798"
       id="polyline80" />
    <polyline
       transform="matrix(0.1160751,0,0,0.1160751,-24.375215,103.93819)"
       style="fill:none;stroke:#000000;stroke-width:3.97000003;stroke-linejoin:bevel"
       class="LedgerLine"
       points="348.495,1167.4 397.095,1167.4"
       id="polyline82" />
    <polyline
       transform="matrix(0.1160751,0,0,0.1160751,-24.375215,103.93819)"
       style="fill:none;stroke:#000000;stroke-width:3.97000003;stroke-linejoin:bevel"
       class="LedgerLine"
       points="348.495,1142.6 397.095,1142.6"
       id="polyline84" />
    <polyline
       transform="matrix(0.1160751,0,0,0.1160751,-24.375215,103.93819)"
       style="fill:none;stroke:#000000;stroke-width:3.97000003;stroke-linejoin:bevel"
       class="LedgerLine"
       points="348.495,1117.8 397.095,1117.8"
       id="polyline86" />
    <polyline
       transform="matrix(0.1160751,0,0,0.1160751,-24.375215,103.93819)"
       style="fill:none;stroke:#000000;stroke-width:3.97000003;stroke-linejoin:bevel"
       class="LedgerLine"
       points="1281.12,534.998 1329.72,534.998"
       id="polyline88" />
    <polyline
       transform="matrix(0.1160751,0,0,0.1160751,-24.375215,103.93819)"
       style="fill:none;stroke:#000000;stroke-width:3.97000003;stroke-linejoin:bevel"
       class="LedgerLine"
       points="1005.39,510.198 1053.99,510.198"
       id="polyline90" />
    <polyline
       transform="matrix(0.1160751,0,0,0.1160751,-24.375215,103.93819)"
       style="fill:none;stroke:#000000;stroke-width:3.97000003;stroke-linejoin:bevel"
       class="LedgerLine"
       points="1005.39,534.998 1053.99,534.998"
       id="polyline92" />
    <polyline
       transform="matrix(0.1160751,0,0,0.1160751,-24.375215,103.93819)"
       style="fill:none;stroke:#000000;stroke-width:3.97000003;stroke-linejoin:bevel"
       class="LedgerLine"
       points="1005.39,559.798 1053.99,559.798"
       id="polyline94" />
    <polyline
       transform="matrix(0.1160751,0,0,0.1160751,-24.375215,103.93819)"
       style="fill:none;stroke:#000000;stroke-width:3.97000003;stroke-linejoin:bevel"
       class="LedgerLine"
       points="766.371,510.198 814.971,510.198"
       id="polyline96" />
    <polyline
       transform="matrix(0.1160751,0,0,0.1160751,-24.375215,103.93819)"
       style="fill:none;stroke:#000000;stroke-width:3.97000003;stroke-linejoin:bevel"
       class="LedgerLine"
       points="1154.28,1142.6 1202.88,1142.6"
       id="polyline98" />
    <polyline
       transform="matrix(0.1160751,0,0,0.1160751,-24.375215,103.93819)"
       style="fill:none;stroke:#000000;stroke-width:3.97000003;stroke-linejoin:bevel"
       class="LedgerLine"
       points="1154.28,1117.8 1202.88,1117.8"
       id="polyline100" />
    <polyline
       transform="matrix(0.1160751,0,0,0.1160751,-24.375215,103.93819)"
       style="fill:none;stroke:#000000;stroke-width:3.97000003;stroke-linejoin:bevel"
       class="LedgerLine"
       points="766.371,534.998 814.971,534.998"
       id="polyline102" />
    <polyline
       transform="matrix(0.1160751,0,0,0.1160751,-24.375215,103.93819)"
       style="fill:none;stroke:#000000;stroke-width:2.48000002;stroke-linejoin:bevel"
       class="Stem"
       points="895.306,439.965 895.306,510.198"
       id="polyline104" />
    <polyline
       transform="matrix(0.1160751,0,0,0.1160751,-24.375215,103.93819)"
       style="fill:none;stroke:#000000;stroke-width:2.48000002;stroke-linejoin:bevel"
       class="Stem"
       points="2641.87,402.765 2641.87,485.398"
       id="polyline106" />
    <polyline
       transform="matrix(0.1160751,0,0,0.1160751,-24.375215,103.93819)"
       style="fill:none;stroke:#000000;stroke-width:2.48000002;stroke-linejoin:bevel"
       class="Stem"
       points="2552.11,493.83 2552.11,410.998"
       id="polyline108" />
    <polyline
       transform="matrix(0.1160751,0,0,0.1160751,-24.375215,103.93819)"
       style="fill:none;stroke:#000000;stroke-width:2.48000002;stroke-linejoin:bevel"
       class="Stem"
       points="486.098,1010.36 486.098,1093"
       id="polyline110" />
    <polyline
       transform="matrix(0.1160751,0,0,0.1160751,-24.375215,103.93819)"
       style="fill:none;stroke:#000000;stroke-width:2.48000002;stroke-linejoin:bevel"
       class="Stem"
       points="1706.17,1138.63 1706.17,1043.4"
       id="polyline112" />
    <polyline
       transform="matrix(0.1160751,0,0,0.1160751,-24.375215,103.93819)"
       style="fill:none;stroke:#000000;stroke-width:2.48000002;stroke-linejoin:bevel"
       class="Stem"
       points="644.03,1175.83 644.03,1043.4"
       id="polyline114" />
    <polyline
       transform="matrix(0.1160751,0,0,0.1160751,-24.375215,103.93819)"
       style="fill:none;stroke:#000000;stroke-width:2.48000002;stroke-linejoin:bevel"
       class="Stem"
       points="2402.84,439.965 2402.84,510.198"
       id="polyline116" />
    <polyline
       transform="matrix(0.1160751,0,0,0.1160751,-24.375215,103.93819)"
       style="fill:none;stroke:#000000;stroke-width:2.48000002;stroke-linejoin:bevel"
       class="Stem"
       points="1044.57,568.23 1044.57,435.798"
       id="polyline118" />
    <polyline
       transform="matrix(0.1160751,0,0,0.1160751,-24.375215,103.93819)"
       style="fill:none;stroke:#000000;stroke-width:2.48000002;stroke-linejoin:bevel"
       class="Stem"
       points="2511.95,1101.43 2511.95,1018.6"
       id="polyline120" />
    <polyline
       transform="matrix(0.1160751,0,0,0.1160751,-24.375215,103.93819)"
       style="fill:none;stroke:#000000;stroke-width:2.48000002;stroke-linejoin:bevel"
       class="Stem"
       points="2313.09,493.83 2313.09,410.998"
       id="polyline122" />
    <polyline
       transform="matrix(0.1160751,0,0,0.1160751,-24.375215,103.93819)"
       style="fill:none;stroke:#000000;stroke-width:2.48000002;stroke-linejoin:bevel"
       class="Stem"
       points="1834.35,1064.23 1834.35,981.398"
       id="polyline124" />
    <polyline
       transform="matrix(0.1160751,0,0,0.1160751,-24.375215,103.93819)"
       style="fill:none;stroke:#000000;stroke-width:2.48000002;stroke-linejoin:bevel"
       class="Stem"
       points="805.547,568.23 805.547,435.798"
       id="polyline126" />
    <polyline
       transform="matrix(0.1160751,0,0,0.1160751,-24.375215,103.93819)"
       style="fill:none;stroke:#000000;stroke-width:2.48000002;stroke-linejoin:bevel"
       class="Stem"
       points="2193.58,456.63 2193.58,373.798"
       id="polyline128" />
    <polyline
       transform="matrix(0.1160751,0,0,0.1160751,-24.375215,103.93819)"
       style="fill:none;stroke:#000000;stroke-width:2.48000002;stroke-linejoin:bevel"
       class="Stem"
       points="1548.24,1047.56 1548.24,1117.8"
       id="polyline130" />
    <polyline
       transform="matrix(0.1160751,0,0,0.1160751,-24.375215,103.93819)"
       style="fill:none;stroke:#000000;stroke-width:2.48000002;stroke-linejoin:bevel"
       class="Stem"
       points="566.525,568.23 566.525,435.798"
       id="polyline132" />
    <polyline
       transform="matrix(0.1160751,0,0,0.1160751,-24.375215,103.93819)"
       style="fill:none;stroke:#000000;stroke-width:2.48000002;stroke-linejoin:bevel"
       class="Stem"
       points="2074.06,493.83 2074.06,410.998"
       id="polyline134" />
    <polyline
       transform="matrix(0.1160751,0,0,0.1160751,-24.375215,103.93819)"
       style="fill:none;stroke:#000000;stroke-width:2.48000002;stroke-linejoin:bevel"
       class="Stem"
       points="742.458,1047.56 742.458,1117.8"
       id="polyline136" />
    <polyline
       transform="matrix(0.1160751,0,0,0.1160751,-24.375215,103.93819)"
       style="fill:none;stroke:#000000;stroke-width:2.48000002;stroke-linejoin:bevel"
       class="Stem"
       points="2255.59,1101.43 2255.59,1018.6"
       id="polyline138" />
    <polyline
       transform="matrix(0.1160751,0,0,0.1160751,-24.375215,103.93819)"
       style="fill:none;stroke:#000000;stroke-width:2.48000002;stroke-linejoin:bevel"
       class="Stem"
       points="1439.81,456.63 1439.81,373.798"
       id="polyline140" />
    <polyline
       transform="matrix(0.1160751,0,0,0.1160751,-24.375215,103.93819)"
       style="fill:none;stroke:#000000;stroke-width:2.48000002;stroke-linejoin:bevel"
       class="Stem"
       points="1320.29,531.03 1320.29,435.798"
       id="polyline142" />
    <polyline
       transform="matrix(0.1160751,0,0,0.1160751,-24.375215,103.93819)"
       style="fill:none;stroke:#000000;stroke-width:2.48000002;stroke-linejoin:bevel"
       class="Stem"
       points="1559.32,531.03 1559.32,435.798"
       id="polyline144" />
    <polyline
       transform="matrix(0.1160751,0,0,0.1160751,-24.375215,103.93819)"
       style="fill:none;stroke:#000000;stroke-width:2.48000002;stroke-linejoin:bevel"
       class="Stem"
       points="1028.57,1064.23 1028.57,981.398"
       id="polyline146" />
    <polyline
       transform="matrix(0.1160751,0,0,0.1160751,-24.375215,103.93819)"
       style="fill:none;stroke:#000000;stroke-width:2.48000002;stroke-linejoin:bevel"
       class="Stem"
       points="1291.88,1010.36 1291.88,1093"
       id="polyline148" />
    <polyline
       transform="matrix(0.1160751,0,0,0.1160751,-24.375215,103.93819)"
       style="fill:none;stroke:#000000;stroke-width:2.48000002;stroke-linejoin:bevel"
       class="Stem"
       points="2097.66,1010.36 2097.66,1093"
       id="polyline150" />
    <polyline
       transform="matrix(0.1160751,0,0,0.1160751,-24.375215,103.93819)"
       style="fill:none;stroke:#000000;stroke-width:2.48000002;stroke-linejoin:bevel"
       class="Stem"
       points="1649.08,439.965 1649.08,510.198"
       id="polyline152" />
    <polyline
       transform="matrix(0.1160751,0,0,0.1160751,-24.375215,103.93819)"
       style="fill:none;stroke:#000000;stroke-width:2.48000002;stroke-linejoin:bevel"
       class="Stem"
       points="900.39,1175.83 900.39,1043.4"
       id="polyline154" />
    <polyline
       transform="matrix(0.1160751,0,0,0.1160751,-24.375215,103.93819)"
       style="fill:none;stroke:#000000;stroke-width:2.48000002;stroke-linejoin:bevel"
       class="Stem"
       points="1798.34,531.03 1798.34,435.798"
       id="polyline156" />
    <polyline
       transform="matrix(0.1160751,0,0,0.1160751,-24.375215,103.93819)"
       style="fill:none;stroke:#000000;stroke-width:2.48000002;stroke-linejoin:bevel"
       class="Stem"
       points="1134.33,402.765 1134.33,485.398"
       id="polyline158" />
    <polyline
       transform="matrix(0.1160751,0,0,0.1160751,-24.375215,103.93819)"
       style="fill:none;stroke:#000000;stroke-width:2.48000002;stroke-linejoin:bevel"
       class="Stem"
       points="2354.02,1047.56 2354.02,1117.8"
       id="polyline160" />
    <polyline
       transform="matrix(0.1160751,0,0,0.1160751,-24.375215,103.93819)"
       style="fill:none;stroke:#000000;stroke-width:2.48000002;stroke-linejoin:bevel"
       class="Stem"
       points="1449.81,1138.63 1449.81,1043.4"
       id="polyline162" />
    <polyline
       transform="matrix(0.1160751,0,0,0.1160751,-24.375215,103.93819)"
       style="fill:none;stroke:#000000;stroke-width:2.48000002;stroke-linejoin:bevel"
       class="Stem"
       points="1999.24,1101.43 1999.24,1018.6"
       id="polyline164" />
    <polyline
       transform="matrix(0.1160751,0,0,0.1160751,-24.375215,103.93819)"
       style="fill:none;stroke:#000000;stroke-width:2.48000002;stroke-linejoin:bevel"
       class="Stem"
       points="1888.1,402.765 1888.1,485.398"
       id="polyline166" />
    <polyline
       transform="matrix(0.1160751,0,0,0.1160751,-24.375215,103.93819)"
       style="fill:none;stroke:#000000;stroke-width:2.48000002;stroke-linejoin:bevel"
       class="Stem"
       points="387.671,1175.83 387.671,1043.4"
       id="polyline168" />
    <polyline
       transform="matrix(0.1160751,0,0,0.1160751,-24.375215,103.93819)"
       style="fill:none;stroke:#000000;stroke-width:2.48000002;stroke-linejoin:bevel"
       class="Stem"
       points="686.036,456.63 686.036,373.798"
       id="polyline170" />
    <polyline
       transform="matrix(0.1160751,0,0,0.1160751,-24.375215,103.93819)"
       style="fill:none;stroke:#000000;stroke-width:2.48000002;stroke-linejoin:bevel"
       class="Stem"
       points="2640.13,1064.23 2640.13,981.398"
       id="polyline172" />
    <polyline
       transform="matrix(0.1160751,0,0,0.1160751,-24.375215,103.93819)"
       style="fill:none;stroke:#000000;stroke-width:2.48000002;stroke-linejoin:bevel"
       class="Stem"
       points="1193.45,1138.63 1193.45,1043.4"
       id="polyline174" />
    <path
       style="stroke-width:0.11514652"
       inkscape:connector-curvature="0"
       class="Note"
       d="m 110.55745,237.04959 c 0,0.49476 0.35625,1.04711 1.29002,1.04711 1.19644,0 2.45224,-0.97875 2.45224,-1.99168 0,-0.68008 -0.57572,-1.05971 -1.28999,-1.05971 -1.11727,0 -2.45227,0.94457 -2.45227,2.00428"
       id="path176" />
    <path
       style="stroke-width:0.11514652"
       inkscape:connector-curvature="0"
       class="Note"
       d="m 140.31449,237.04959 c 0,0.49476 0.35623,1.04711 1.28999,1.04711 1.19645,0 2.45225,-0.97875 2.45225,-1.99168 0,-0.68008 -0.57572,-1.05971 -1.28999,-1.05971 -1.11729,0 -2.45225,0.94457 -2.45225,2.00428"
       id="path178" />
    <path
       style="stroke-width:0.11514652"
       inkscape:connector-curvature="0"
       class="Note"
       d="m 31.904728,221.21694 c 0,0.49476 0.356237,1.04711 1.290002,1.04711 1.196451,0 2.452261,-0.97875 2.452261,-1.99168 0,-0.68008 -0.575731,-1.05969 -1.289997,-1.05969 -1.117279,0 -2.452266,0.94455 -2.452266,2.00426"
       id="path180" />
    <path
       style="stroke-width:0.11514652"
       inkscape:connector-curvature="0"
       class="Note"
       d="m 46.783239,241.36758 c 0,0.49476 0.356236,1.0471 1.289997,1.0471 1.196453,0 2.452266,-0.97873 2.452266,-1.99167 0,-0.68008 -0.575736,-1.0597 -1.289998,-1.0597 -1.117278,0 -2.452265,0.94455 -2.452265,2.00427"
       id="path182" />
    <path
       style="stroke-width:0.11514652"
       inkscape:connector-curvature="0"
       class="Note"
       d="m 61.661745,225.53492 c 0,0.49478 0.356236,1.04713 1.289998,1.04713 1.196452,0 2.452266,-0.97875 2.452266,-1.99168 0,-0.6801 -0.575736,-1.0597 -1.289998,-1.0597 -1.117278,0 -2.452266,0.94455 -2.452266,2.00425"
       id="path184" />
    <path
       style="stroke-width:0.11514652"
       inkscape:connector-curvature="0"
       class="Note"
       d="m 278.48099,228.41359 c 0,0.49478 0.35625,1.04711 1.29002,1.04711 1.19643,0 2.45224,-0.97873 2.45224,-1.99167 0,-0.68009 -0.57572,-1.0597 -1.28999,-1.0597 -1.11728,0 -2.45227,0.94455 -2.45227,2.00426"
       id="path186" />
    <path
       style="stroke-width:0.11514652"
       inkscape:connector-curvature="0"
       class="Note"
       d="m 91.418645,228.41359 c 0,0.49478 0.356232,1.04711 1.289996,1.04711 1.196452,0 2.452265,-0.97873 2.452265,-1.99167 0,-0.68009 -0.575742,-1.0597 -1.289992,-1.0597 -1.117287,0 -2.452269,0.94455 -2.452269,2.00426"
       id="path188" />
    <path
       style="stroke-width:0.11514652"
       inkscape:connector-curvature="0"
       class="Note"
       d="m 76.540252,241.36758 c 0,0.49476 0.356232,1.0471 1.289996,1.0471 1.196463,0 2.452264,-0.97873 2.452264,-1.99167 0,-0.68008 -0.575725,-1.0597 -1.289996,-1.0597 -1.117282,0 -2.452264,0.94455 -2.452264,2.00427"
       id="path190" />
    <path
       style="stroke-width:0.11514652"
       inkscape:connector-curvature="0"
       class="Note"
       d="m 125.43598,221.21694 c 0,0.49476 0.35623,1.04711 1.28999,1.04711 1.19644,0 2.45227,-0.97875 2.45227,-1.99168 0,-0.68008 -0.57574,-1.05969 -1.29,-1.05969 -1.11729,0 -2.45226,0.94455 -2.45226,2.00426"
       id="path192" />
    <path
       style="stroke-width:0.11514652"
       inkscape:connector-curvature="0"
       class="Note"
       d="m 166.898,155.00747 c 0,0.49476 0.35623,1.04712 1.28999,1.04712 1.19645,0 2.45227,-0.97876 2.45227,-1.99169 0,-0.68007 -0.57573,-1.0597 -1.29,-1.0597 -1.11728,0 -2.45226,0.94455 -2.45226,2.00427"
       id="path194" />
    <path
       style="stroke-width:0.11514652"
       inkscape:connector-curvature="0"
       class="Note"
       d="m 65.531344,170.84011 c 0,0.49476 0.356232,1.04711 1.289997,1.04711 1.196452,0 2.452261,-0.97874 2.452261,-1.99166 0,-0.6801 -0.57573,-1.05972 -1.289997,-1.05972 -1.117279,0 -2.452261,0.94455 -2.452261,2.00427"
       id="path196" />
    <path
       style="stroke-width:0.11514652"
       inkscape:connector-curvature="0"
       class="Note"
       d="m 79.403594,155.00747 c 0,0.49476 0.356232,1.04712 1.289997,1.04712 1.19645,0 2.452265,-0.97876 2.452265,-1.99169 0,-0.68007 -0.575726,-1.0597 -1.289997,-1.0597 -1.117283,0 -2.452265,0.94455 -2.452265,2.00427"
       id="path198" />
    <path
       style="stroke-width:0.11514652"
       inkscape:connector-curvature="0"
       class="Note"
       d="m 248.72399,225.53492 c 0,0.49478 0.35623,1.04713 1.28999,1.04713 1.19645,0 2.45227,-0.97875 2.45227,-1.99168 0,-0.6801 -0.57573,-1.0597 -1.29,-1.0597 -1.11729,0 -2.45226,0.94455 -2.45226,2.00425"
       id="path200" />
    <path
       style="stroke-width:0.11514652"
       inkscape:connector-curvature="0"
       class="Note"
       d="m 93.276189,170.84011 c 0,0.49476 0.35624,1.04711 1.290003,1.04711 1.196444,0 2.452254,-0.97874 2.452254,-1.99166 0,-0.6801 -0.57572,-1.05972 -1.28999,-1.05972 -1.117282,0 -2.452267,0.94455 -2.452267,2.00427"
       id="path202" />
    <path
       style="stroke-width:0.11514652"
       inkscape:connector-curvature="0"
       class="Note"
       d="m 107.14832,150.68947 c 0,0.49478 0.35625,1.04711 1.29001,1.04711 1.19645,0 2.45225,-0.97875 2.45225,-1.99168 0,-0.68008 -0.57572,-1.05969 -1.28999,-1.05969 -1.11727,0 -2.45227,0.94455 -2.45227,2.00426"
       id="path204" />
    <path
       style="stroke-width:0.11514652"
       inkscape:connector-curvature="0"
       class="Note"
       d="m 233.84548,232.73159 c 0,0.49476 0.35623,1.04711 1.29001,1.04711 1.19644,0 2.45224,-0.97875 2.45224,-1.99168 0,-0.68007 -0.57573,-1.0597 -1.29,-1.0597 -1.11727,0 -2.45225,0.94455 -2.45225,2.00427"
       id="path206" />
    <path
       style="stroke-width:0.11514652"
       inkscape:connector-curvature="0"
       class="Note"
       d="m 263.6025,232.73159 c 0,0.49476 0.35623,1.04711 1.28999,1.04711 1.19645,0 2.45227,-0.97875 2.45227,-1.99168 0,-0.68007 -0.57574,-1.0597 -1.29001,-1.0597 -1.11728,0 -2.45225,0.94455 -2.45225,2.00427"
       id="path208" />
    <path
       style="stroke-width:0.11514652"
       inkscape:connector-curvature="0"
       class="Note"
       d="m 51.659092,157.88612 c 0,0.49478 0.356231,1.04713 1.289997,1.04713 1.19645,0 2.45226,-0.97875 2.45226,-1.99168 0,-0.6801 -0.57573,-1.05971 -1.289997,-1.05971 -1.117279,0 -2.45226,0.94455 -2.45226,2.00426"
       id="path210" />
    <path
       style="stroke-width:0.11514652"
       inkscape:connector-curvature="0"
       class="Note"
       d="m 125.28043,166.52212 c 0,0.49477 0.35623,1.04711 1.28999,1.04711 1.19646,0 2.45227,-0.97874 2.45227,-1.99168 0,-0.68008 -0.57573,-1.0597 -1.29,-1.0597 -1.11727,0 -2.45226,0.94456 -2.45226,2.00427"
       id="path212" />
    <path
       style="stroke-width:0.11514652"
       inkscape:connector-curvature="0"
       class="Note"
       d="m 139.15256,157.88612 c 0,0.49478 0.35623,1.04713 1.29002,1.04713 1.19643,0 2.45224,-0.97875 2.45224,-1.99168 0,-0.6801 -0.57573,-1.05971 -1.29,-1.05971 -1.11727,0 -2.45226,0.94455 -2.45226,2.00426"
       id="path214" />
    <path
       style="stroke-width:0.11514652"
       inkscape:connector-curvature="0"
       class="Note"
       d="m 218.96697,221.21694 c 0,0.49476 0.35623,1.04711 1.29,1.04711 1.19645,0 2.45226,-0.97875 2.45226,-1.99168 0,-0.68008 -0.57572,-1.05969 -1.28999,-1.05969 -1.11728,0 -2.45227,0.94455 -2.45227,2.00426"
       id="path216" />
    <path
       style="stroke-width:0.11514652"
       inkscape:connector-curvature="0"
       class="Note"
       d="m 153.0247,166.52212 c 0,0.49477 0.35624,1.04711 1.29001,1.04711 1.19643,0 2.45226,-0.97874 2.45226,-1.99168 0,-0.68008 -0.57573,-1.0597 -1.29001,-1.0597 -1.11727,0 -2.45226,0.94456 -2.45226,2.00427"
       id="path218" />
    <path
       style="stroke-width:0.11514652"
       inkscape:connector-curvature="0"
       class="Note"
       d="m 17.026338,241.36758 c 0,0.49476 0.356234,1.0471 1.289999,1.0471 1.196452,0 2.452264,-0.97873 2.452264,-1.99167 0,-0.68008 -0.575734,-1.0597 -1.29,-1.0597 -1.117276,0 -2.452263,0.94455 -2.452263,2.00427"
       id="path220" />
    <path
       style="stroke-width:0.11514652"
       inkscape:connector-curvature="0"
       class="Note"
       d="m 204.08846,232.73159 c 0,0.49476 0.35625,1.04711 1.29001,1.04711 1.19644,0 2.45225,-0.97875 2.45225,-1.99168 0,-0.68007 -0.57572,-1.0597 -1.28999,-1.0597 -1.11729,0 -2.45227,0.94455 -2.45227,2.00427"
       id="path222" />
    <path
       style="stroke-width:0.11514652"
       inkscape:connector-curvature="0"
       class="Note"
       d="m 180.77013,166.52212 c 0,0.49477 0.35623,1.04711 1.29001,1.04711 1.19643,0 2.45226,-0.97874 2.45226,-1.99168 0,-0.68008 -0.57574,-1.0597 -1.29001,-1.0597 -1.11728,0 -2.45226,0.94456 -2.45226,2.00427"
       id="path224" />
    <path
       style="stroke-width:0.11514652"
       inkscape:connector-curvature="0"
       class="Note"
       d="m 194.64227,150.68947 c 0,0.49478 0.35624,1.04711 1.29,1.04711 1.19644,0 2.45227,-0.97875 2.45227,-1.99168 0,-0.68008 -0.57574,-1.05969 -1.29001,-1.05969 -1.11729,0 -2.45226,0.94455 -2.45226,2.00426"
       id="path226" />
    <path
       style="stroke-width:0.11514652"
       inkscape:connector-curvature="0"
       class="Note"
       d="m 37.786839,170.84011 c 0,0.49476 0.356232,1.04711 1.289997,1.04711 1.196451,0 2.452261,-0.97874 2.452261,-1.99166 0,-0.6801 -0.575731,-1.05972 -1.289997,-1.05972 -1.117279,0 -2.452261,0.94455 -2.452261,2.00427"
       id="path228" />
    <path
       style="stroke-width:0.11514652"
       inkscape:connector-curvature="0"
       class="Note"
       d="m 212.77436,162.20412 c 0,0.49476 0.35623,1.04712 1.29001,1.04712 1.19643,0 2.45226,-0.97876 2.45226,-1.99167 0,-0.68009 -0.57574,-1.05972 -1.29001,-1.05972 -1.11728,0 -2.45226,0.94456 -2.45226,2.00427"
       id="path230" />
    <path
       style="stroke-width:0.11514652"
       inkscape:connector-curvature="0"
       class="Note"
       d="m 184.95,228.41359 c 0,0.49478 0.35623,1.04711 1.29,1.04711 1.19644,0 2.45226,-0.97873 2.45226,-1.99167 0,-0.68009 -0.57573,-1.0597 -1.29,-1.0597 -1.11729,0 -2.45226,0.94455 -2.45226,2.00426"
       id="path232" />
    <path
       style="stroke-width:0.11514652"
       inkscape:connector-curvature="0"
       class="Note"
       d="m 226.64651,157.88612 c 0,0.49478 0.35623,1.04713 1.28999,1.04713 1.19646,0 2.45226,-0.97875 2.45226,-1.99168 0,-0.6801 -0.57573,-1.05971 -1.29,-1.05971 -1.11729,0 -2.45225,0.94455 -2.45225,2.00426"
       id="path234" />
    <path
       style="stroke-width:0.11514652"
       inkscape:connector-curvature="0"
       class="Note"
       d="m 240.51864,162.20412 c 0,0.49476 0.35623,1.04712 1.28999,1.04712 1.19646,0 2.45227,-0.97876 2.45227,-1.99167 0,-0.68009 -0.57574,-1.05972 -1.29001,-1.05972 -1.11729,0 -2.45225,0.94456 -2.45225,2.00427"
       id="path236" />
    <path
       style="stroke-width:0.11514652"
       inkscape:connector-curvature="0"
       class="Note"
       d="m 170.0715,237.04959 c 0,0.49476 0.35623,1.04711 1.28999,1.04711 1.19646,0 2.45227,-0.97875 2.45227,-1.99168 0,-0.68008 -0.57574,-1.05971 -1.29001,-1.05971 -1.11729,0 -2.45225,0.94457 -2.45225,2.00428"
       id="path238" />
    <path
       style="stroke-width:0.11514652"
       inkscape:connector-curvature="0"
       class="Note"
       d="m 254.39077,155.00747 c 0,0.49476 0.35623,1.04712 1.29001,1.04712 1.19644,0 2.45225,-0.97876 2.45225,-1.99169 0,-0.68007 -0.57574,-1.0597 -1.28999,-1.0597 -1.11728,0 -2.45227,0.94455 -2.45227,2.00427"
       id="path240" />
    <path
       style="stroke-width:0.11514652"
       inkscape:connector-curvature="0"
       class="Note"
       d="m 268.26408,162.20412 c 0,0.49476 0.35623,1.04712 1.28999,1.04712 1.19646,0 2.45225,-0.97876 2.45225,-1.99167 0,-0.68009 -0.57572,-1.05972 -1.28999,-1.05972 -1.11729,0 -2.45225,0.94456 -2.45225,2.00427"
       id="path242" />
    <path
       style="stroke-width:0.11514652"
       inkscape:connector-curvature="0"
       class="Note"
       d="m 282.13621,150.68947 c 0,0.49478 0.35623,1.04711 1.28999,1.04711 1.19646,0 2.45227,-0.97875 2.45227,-1.99168 0,-0.68008 -0.57574,-1.05969 -1.29001,-1.05969 -1.11728,0 -2.45225,0.94455 -2.45225,2.00426"
       id="path244" />
    <path
       style="stroke-width:0.11514652"
       inkscape:connector-curvature="0"
       class="Note"
       d="m 155.19298,225.53492 c 0,0.49478 0.35623,1.04713 1.29002,1.04713 1.19643,0 2.45224,-0.97875 2.45224,-1.99168 0,-0.6801 -0.57574,-1.0597 -1.28999,-1.0597 -1.11728,0 -2.45227,0.94455 -2.45227,2.00425"
       id="path246" />
    <path
       style="stroke-width:0.11514652"
       inkscape:connector-curvature="0"
       class="Clef"
       d="m 24.223809,157.36797 c 0,-1.7272 -1.232426,-2.90206 -2.91285,-2.90206 -0.115143,-0.69087 -0.219494,-1.38175 -0.322043,-2.01506 1.209038,-1.27922 2.060039,-2.72932 2.060039,-4.54828 0,-1.05971 -0.322052,-1.89993 -0.518158,-2.31548 -0.275269,-0.58656 -0.60992,-1.00224 -0.806026,-1.00224 -0.07916,0 -0.447988,0.15119 -0.816825,0.59922 -0.748452,0.87616 -0.955349,2.33707 -0.955349,3.30502 0,0.62252 0.05758,1.18565 0.253679,2.48825 -0.01262,0 -0.611714,0.60992 -0.852808,0.81683 -1.048905,0.96793 -2.499036,2.37129 -2.499036,4.66342 0,2.1644 1.876529,3.8574 4.019338,3.8574 0.332841,0 0.644095,-0.0342 0.921173,-0.081 0.206895,1.10648 0.345439,1.91252 0.345439,2.52244 0,1.19824 -0.622517,1.83155 -1.773983,1.83155 -0.287865,0 -0.528948,-0.0575 -0.541545,-0.0702 -0.02159,0 -0.04497,-0.0106 -0.04497,-0.0217 0,-0.0234 0.02339,-0.036 0.05758,-0.0468 0.541545,-0.081 1.081294,-0.54154 1.081294,-1.27739 0,-0.62252 -0.471387,-1.27921 -1.334984,-1.27921 -0.795227,0 -1.313385,0.65669 -1.313385,1.41595 0,0.76104 0.575732,1.76318 2.130209,1.76318 1.486105,0 2.211171,-0.84202 2.211171,-2.31553 0,-0.448 -0.06836,-0.96616 -0.183508,-1.62284 -0.0342,-0.2303 -0.09177,-0.58834 -0.172721,-1.02553 1.128068,-0.37964 1.968281,-1.54368 1.968281,-2.74014 m -3.546155,-9.43121 c 0.115142,-0.46059 0.633306,-1.66962 1.232435,-1.66962 0.172719,0 0.460586,0.55232 0.460586,1.35835 0,1.18566 -0.897787,2.08524 -1.693021,2.87866 -0.06836,-0.46058 -0.125934,-0.92117 -0.125934,-1.39254 0,-0.4372 0.04497,-0.81862 0.125934,-1.17485 m 0.345439,11.90686 c -1.646226,0 -3.05138,-1.15147 -3.05138,-2.89126 0,-1.40335 1.00214,-2.65915 2.004271,-3.54614 0.194309,-0.16194 0.379628,-0.33465 0.552347,-0.49478 0.102539,0.62071 0.196105,1.15147 0.264469,1.63544 -1.048905,0.29867 -1.761374,1.41595 -1.761374,2.48645 0,0.81862 0.633306,1.9233 1.554478,1.9233 0.09176,0 0.196106,-0.0468 0.196106,-0.16191 0,-0.0919 -0.104351,-0.16014 -0.253679,-0.25189 -0.449796,-0.26627 -0.703477,-0.57574 -0.703477,-1.12989 0,-0.70166 0.530758,-1.2666 1.198239,-1.42673 l 0.667492,3.77644 c -0.230292,0.0575 -0.437199,0.081 -0.667492,0.081 m 1.151465,-0.21949 c -0.241084,-1.36917 -0.552336,-3.2007 -0.633306,-3.70809 1.162265,0 1.658835,0.80603 1.761384,1.36018 0.01262,0.0918 0.03419,0.21771 0.03419,0.35624 0,0.82941 -0.345439,1.66961 -1.162265,1.99167 m -0.449787,6.03439 c 0,-0.4264 -0.390414,-0.6099 -0.770041,-0.6099 -0.483972,0 -0.957156,0.29866 -0.957156,0.81681 0,0.21951 0.08096,0.38144 0.25368,0.54155 -0.298655,0.11508 -0.609918,0.34544 -0.609918,0.70348 0,0.37962 0.345439,0.6333 0.852807,0.6333 0.62071,0 1.05791,-0.34545 1.05791,-0.84201 0,-0.26447 -0.115144,-0.48218 -0.322054,-0.63331 0.33465,-0.14933 0.494772,-0.33284 0.494772,-0.60992 m -0.712469,0.46059 c -0.172718,-0.0917 -0.219503,-0.11509 -0.253678,-0.13854 l -0.01262,-0.0106 c -0.183519,-0.10431 -0.241093,-0.18532 -0.241093,-0.32205 0,-0.2087 0.161929,-0.35804 0.392223,-0.35804 0.230293,0 0.356229,0.13854 0.356229,0.37963 0,0.18532 -0.06836,0.31126 -0.241083,0.44979 m -0.438996,1.38174 c -0.251883,0 -0.424602,-0.16011 -0.424602,-0.403 0,-0.21769 0.102548,-0.41381 0.298655,-0.52895 0.04678,0.0234 0.05758,0.0342 0.09177,0.0451 0.138533,0.0702 0.138533,0.0702 0.16193,0.0935 0.230293,0.12599 0.311252,0.24109 0.311252,0.40302 0,0.2177 -0.185316,0.3904 -0.438996,0.3904"
       id="path248" />
    <path
       style="stroke-width:0.11514652"
       inkscape:connector-curvature="0"
       class="Clef"
       d="m 9.8304947,227.89543 c 0,-1.7272 -1.232425,-2.90205 -2.912851,-2.90205 -0.115142,-0.69089 -0.219492,-1.38175 -0.322041,-2.01506 1.209038,-1.27921 2.06004,-2.72932 2.06004,-4.54828 0,-1.05971 -0.322053,-1.89993 -0.518159,-2.31549 -0.275269,-0.58656 -0.60992,-1.00223 -0.806026,-1.00223 -0.07917,0 -0.447988,0.15119 -0.816827,0.59922 -0.748452,0.87615 -0.955347,2.33707 -0.955347,3.30501 0,0.62252 0.05757,1.18566 0.253679,2.48824 -0.01262,0 -0.6117154,0.60992 -0.8528082,0.81683 -1.0489045,0.96795 -2.499037,2.3713 -2.499037,4.66344 0,2.1644 1.8765323,3.8574 4.0193392,3.8574 0.332841,0 0.644093,-0.0342 0.921172,-0.081 0.206894,1.10648 0.34544,1.91252 0.34544,2.52244 0,1.19823 -0.622519,1.83154 -1.773983,1.83154 -0.287866,0 -0.5289481,-0.0575 -0.5415447,-0.0702 -0.021596,0 -0.044972,-0.0106 -0.044972,-0.0215 0,-0.0234 0.023386,-0.036 0.057576,-0.0468 0.5415447,-0.081 1.0812937,-0.54154 1.0812937,-1.27739 0,-0.62252 -0.471387,-1.2792 -1.3349852,-1.2792 -0.7952252,0 -1.3133848,0.65668 -1.3133848,1.41592 0,0.76106 0.5757338,1.7632 2.130211,1.7632 1.486104,0 2.21117,-0.84202 2.21117,-2.31553 0,-0.448 -0.06836,-0.96615 -0.183508,-1.62284 -0.03419,-0.2303 -0.09177,-0.58833 -0.172721,-1.02552 1.128067,-0.37964 1.96828,-1.54369 1.96828,-2.74014 m -3.546156,-9.43122 c 0.115143,-0.46058 0.633305,-1.66962 1.232437,-1.66962 0.172719,0 0.460585,0.55234 0.460585,1.35836 0,1.18566 -0.897785,2.08522 -1.693022,2.87867 -0.06836,-0.4606 -0.125934,-0.92118 -0.125934,-1.39255 0,-0.4372 0.04497,-0.81862 0.125934,-1.17486 m 0.345441,11.90687 c -1.6462271,0 -3.0513799,-1.15146 -3.0513799,-2.89125 0,-1.40336 1.0021407,-2.65917 2.0042709,-3.54616 0.194309,-0.16192 0.379626,-0.33464 0.552346,-0.49478 0.102559,0.62072 0.196106,1.15147 0.26447,1.63544 -1.048905,0.29868 -1.7613741,1.41594 -1.7613741,2.48645 0,0.81862 0.6333059,1.92332 1.5544771,1.92332 0.09176,0 0.196107,-0.0468 0.196107,-0.16192 0,-0.0919 -0.104351,-0.16013 -0.25368,-0.25189 -0.449796,-0.26628 -0.7034753,-0.57574 -0.7034753,-1.12988 0,-0.70167 0.5307553,-1.26662 1.1982383,-1.42674 l 0.667491,3.77645 c -0.230292,0.0575 -0.437199,0.081 -0.667491,0.081 m 1.151464,-0.21949 c -0.241082,-1.36918 -0.552335,-3.20071 -0.633305,-3.70809 1.162266,0 1.658834,0.80603 1.761383,1.36018 0.01262,0.0917 0.03419,0.2177 0.03419,0.35623 0,0.82941 -0.34544,1.66963 -1.162266,1.99168 m -0.449786,6.03438 c 0,-0.4264 -0.390416,-0.6099 -0.770041,-0.6099 -0.483973,0 -0.957156,0.29866 -0.957156,0.81681 0,0.21951 0.08096,0.38143 0.253679,0.54154 -0.298655,0.11523 -0.60992,0.34545 -0.60992,0.70349 0,0.37962 0.345441,0.63331 0.852809,0.63331 0.620711,0 1.057909,-0.34545 1.057909,-0.84202 0,-0.26447 -0.115142,-0.48217 -0.322054,-0.6333 0.334651,-0.14933 0.494774,-0.33285 0.494774,-0.60993 m -0.712469,0.4606 c -0.172719,-0.0917 -0.219504,-0.11509 -0.253678,-0.13855 l -0.01262,-0.0106 c -0.18352,-0.10433 -0.241094,-0.18531 -0.241094,-0.32205 0,-0.20871 0.161931,-0.35804 0.392224,-0.35804 0.230293,0 0.356229,0.13852 0.356229,0.37963 0,0.18532 -0.06836,0.31125 -0.241083,0.44978 m -0.438995,1.38176 c -0.251883,0 -0.424604,-0.16013 -0.424604,-0.40301 0,-0.2177 0.102559,-0.4138 0.298657,-0.52895 0.04678,0.0233 0.05757,0.0341 0.09176,0.0451 0.138534,0.0702 0.138534,0.0702 0.16193,0.0935 0.230294,0.12598 0.311253,0.24109 0.311253,0.40302 0,0.21768 -0.185317,0.39041 -0.438995,0.39041"
       id="path250" />
    <path
       style="stroke-width:0.11514652"
       inkscape:connector-curvature="0"
       class="TimeSig"
       d="m 30.107131,151.15005 c -0.703466,0 -0.955346,0.20691 -1.117279,0.37963 -0.03418,-0.24108 -0.05758,-0.4264 -0.05758,-0.60993 0,-0.65668 0.230295,-1.5095 1.036318,-1.5095 0.287867,0 0.460588,0.0935 0.575735,0.21951 -0.241084,0.10432 -0.437199,0.4138 -0.437199,0.68007 0,0.41382 0.322052,0.73587 0.737663,0.73587 0.413803,0 0.748451,-0.32205 0.748451,-0.73587 v -0.036 c 0,-0.10258 -0.02339,-0.27529 -0.07017,-0.36703 -0.149331,-0.4156 -0.633303,-1.02552 -1.784769,-1.02552 -1.036318,0 -1.784769,0.98953 -2.015066,1.52029 -0.115142,0.27527 -0.287862,0.8402 -0.287862,1.4843 0,0.70348 0.196106,1.49693 0.874391,2.09604 0.669299,0.50737 1.093898,0.53075 1.49691,0.53075 0.40481,0 1.912504,-0.47318 1.912504,-1.80817 0,-1.12806 -0.886986,-1.55446 -1.61205,-1.55446 m -0.426399,2.87865 c -0.379628,0 -0.69088,-0.51816 -0.69088,-1.16405 0,-0.6441 0.311252,-1.17306 0.69088,-1.17306 0.379623,0 0.703475,0.52896 0.703475,1.17306 0,0.64589 -0.323852,1.16405 -0.703475,1.16405"
       id="path252" />
    <path
       style="stroke-width:0.11514652"
       inkscape:connector-curvature="0"
       class="TimeSig"
       d="m 29.335236,158.86488 v 0.85101 h -0.95536 c -0.08096,0 -0.161919,0.0702 -0.161919,0.16191 v 0.21951 c 0,0.0917 0.08096,0.16012 0.161919,0.16012 h 3.488583 c 0.09356,0 0.161919,-0.0683 0.161919,-0.16012 v -0.21951 c 0,-0.0918 -0.06836,-0.16191 -0.161919,-0.16191 h -1.023722 v -0.85101 h 1.023722 c 0.09356,0 0.161919,-0.081 0.161919,-0.17273 v -0.21949 c 0,-0.081 -0.06836,-0.16014 -0.161919,-0.16014 h -1.023722 v -1.83153 c 0,-0.0683 -0.03418,-0.12599 -0.09177,-0.14935 l -0.138532,-0.0702 c -0.02339,-0.0106 -0.05757,-0.0215 -0.08097,-0.0215 -0.03418,0.0106 -0.08096,0.0215 -0.104351,0.0451 l -1.047115,0.95535 c -0.03417,0.036 -0.04678,0.081 -0.04678,0.12772 v 0.94455 h -1.324186 c 0,0 1.27921,-1.38176 2.637571,-3.2025 0.04678,-0.0575 0.05757,-0.1151 0.05757,-0.16014 0,-0.0575 -0.02339,-0.10432 -0.03418,-0.11509 l -0.253689,-0.25368 c -0.02339,-0.0234 -0.06836,-0.0468 -0.115142,-0.0468 -0.06836,0 -1.624636,0 -1.703803,0 -0.09356,0 -0.151125,0.0702 -0.161927,0.13855 0,0 -0.05757,0.8528 -0.356235,1.78477 -0.30046,0.93377 -0.645899,1.5095 -0.944563,1.9341 0,0 -0.03418,0.0575 -0.03418,0.12771 0,0.0234 0,0.0451 0.01076,0.0684 0.04678,0.081 0.115142,0.20691 0.115142,0.20691 0,0 0.02339,0.0702 0.125933,0.0702 h 1.980886"
       id="path254" />
    <path
       inkscape:connector-curvature="0"
       class="Fingering"
       d="m 235.87447,214.62764 -0.84503,0.0688 -0.0186,0.16865 h 0.1103 c 0.19035,0 0.2658,0.0417 0.2658,0.14336 0,0.0453 -0.0133,0.11056 -0.0417,0.20487 l -0.59315,2.01321 c -0.0952,0.33556 -0.0986,0.33917 -0.41439,0.35367 l -0.0197,0.16692 h 1.11548 l 0.0186,-0.16692 h -0.0569 c -0.22287,0 -0.29714,-0.0272 -0.29714,-0.12147 0,-0.0363 0.0198,-0.11602 0.0523,-0.23215 l 0.22751,-0.75624 c 0.12533,0.32095 0.24608,0.40801 0.55252,0.40801 0.751,0 1.20603,-0.81612 1.20603,-1.49447 0,-0.22669 -0.0453,-0.38084 -0.15207,-0.51502 -0.12186,-0.1488 -0.30643,-0.2412 -0.48751,-0.2412 -0.23797,0 -0.48288,0.13963 -0.69181,0.39535 l 0.0697,-0.39535 m 0.47823,0.24665 c 0.20895,0 0.34824,0.16135 0.34824,0.408 0,0.25571 -0.0789,0.57133 -0.21939,0.85792 -0.16134,0.34822 -0.34824,0.50598 -0.59315,0.50598 -0.22867,0 -0.39,-0.17957 -0.39,-0.42623 0,-0.41706 0.32848,-1.34567 0.8543,-1.34567"
       id="path256"
       style="stroke-width:0.11607509" />
    <path
       inkscape:connector-curvature="0"
       class="Fingering"
       d="m 182.79798,144.10041 -0.84503,0.0688 -0.0186,0.16865 h 0.11138 c 0.19037,0 0.26465,0.0418 0.26465,0.14336 0,0.0454 -0.0133,0.11057 -0.0419,0.20487 l -0.59316,2.0132 c -0.0941,0.33558 -0.0975,0.33917 -0.41321,0.35368 l -0.0197,0.16692 h 1.11432 l 0.0186,-0.16692 h -0.0557 c -0.22403,0 -0.29831,-0.0271 -0.29831,-0.12159 0,-0.0361 0.0209,-0.11603 0.0534,-0.23215 l 0.22635,-0.75623 c 0.12533,0.32095 0.24724,0.40799 0.55368,0.40799 0.74984,0 1.20602,-0.81612 1.20602,-1.49446 0,-0.22669 -0.0453,-0.38084 -0.15322,-0.51503 -0.12067,-0.1488 -0.30644,-0.24119 -0.48752,-0.24119 -0.23796,0 -0.48287,0.13963 -0.69065,0.39534 l 0.0684,-0.39534 m 0.4794,0.24666 c 0.20778,0 0.34823,0.16134 0.34823,0.40799 0,0.25573 -0.0802,0.57133 -0.21939,0.85792 -0.16134,0.34822 -0.34822,0.50597 -0.59313,0.50597 -0.22868,0 -0.39002,-0.17957 -0.39002,-0.42623 0,-0.41706 0.32848,-1.34565 0.85431,-1.34565"
       id="path258"
       style="stroke-width:0.11607509" />
    <path
       inkscape:connector-curvature="0"
       class="Fingering"
       d="m 167.86258,145.02901 -0.84502,0.0688 -0.014,0.16866 h 0.11257 c 0.18456,0 0.25885,0.0419 0.25885,0.14695 0,0.0418 -0.014,0.11244 -0.0383,0.20127 l -0.47244,1.59604 h 0.40395 l 0.19036,-0.65467 c 0.20894,-0.71096 0.63145,-1.2478 0.97968,-1.2478 0.12068,0 0.19616,0.0635 0.19616,0.17956 0,0.0943 -0.0383,0.28834 -0.0952,0.46431 l -0.36911,1.2586 h 0.40162 l 0.19965,-0.67277 c 0.11602,-0.38643 0.23215,-0.64574 0.38073,-0.84527 0.16714,-0.23214 0.4051,-0.38443 0.58037,-0.38443 0.11603,0 0.18224,0.0598 0.18224,0.17051 0,0.0652 -0.0243,0.1668 -0.0662,0.29739 l -0.21358,0.66023 c -0.12532,0.36088 -0.12891,0.38989 -0.12891,0.51862 0,0.19594 0.14392,0.32466 0.36099,0.32466 0.15439,0 0.30296,-0.0743 0.46082,-0.22123 0.0975,-0.0943 0.16135,-0.17771 0.35172,-0.45525 l -0.14278,-0.0979 c -0.24143,0.36275 -0.41438,0.53872 -0.53394,0.53872 -0.051,0 -0.0975,-0.0509 -0.0975,-0.11602 0,-0.0418 0.014,-0.0925 0.0557,-0.22856 l 0.29251,-0.89958 c 0.0326,-0.10155 0.0557,-0.24666 0.0557,-0.34823 0,-0.24666 -0.18108,-0.42252 -0.4318,-0.42252 -0.32967,0 -0.62681,0.21393 -0.89494,0.65467 0.0174,-0.0888 0.0267,-0.16679 0.0267,-0.22309 0,-0.24666 -0.19616,-0.43158 -0.45037,-0.43158 -0.29367,0 -0.50492,0.1632 -0.83225,0.62751 l 0.1358,-0.62751"
       id="path260"
       style="stroke-width:0.11607509" />
    <path
       inkscape:connector-curvature="0"
       class="Fingering"
       d="m 206.11745,214.62764 -0.84502,0.0688 -0.0186,0.16865 h 0.11031 c 0.19153,0 0.26581,0.0417 0.26581,0.14336 0,0.0453 -0.0133,0.11056 -0.0419,0.20487 l -0.59313,2.01321 c -0.0952,0.33556 -0.0986,0.33917 -0.41439,0.35367 l -0.0198,0.16692 h 1.11548 l 0.0186,-0.16692 h -0.0569 c -0.22286,0 -0.29714,-0.0272 -0.29714,-0.12147 0,-0.0363 0.0196,-0.11602 0.0523,-0.23215 l 0.22751,-0.75624 c 0.12531,0.32095 0.24607,0.40801 0.55252,0.40801 0.751,0 1.20601,-0.81612 1.20601,-1.49447 0,-0.22669 -0.0453,-0.38084 -0.15206,-0.51502 -0.12186,-0.1488 -0.30643,-0.2412 -0.4875,-0.2412 -0.23797,0 -0.48289,0.13963 -0.69066,0.39535 l 0.0684,-0.39535 m 0.47824,0.24665 c 0.20894,0 0.34823,0.16135 0.34823,0.408 0,0.25571 -0.0789,0.57133 -0.21939,0.85792 -0.16134,0.34822 -0.34823,0.50598 -0.59315,0.50598 -0.2275,0 -0.39002,-0.17957 -0.39002,-0.42623 0,-0.41706 0.32851,-1.34567 0.85433,-1.34567"
       id="path262"
       style="stroke-width:0.11607509" />
    <path
       inkscape:connector-curvature="0"
       class="Fingering"
       d="m 155.05369,144.10041 -0.84503,0.0688 -0.0186,0.16865 h 0.1115 c 0.19036,0 0.26464,0.0418 0.26464,0.14336 0,0.0454 -0.0133,0.11057 -0.0418,0.20487 l -0.59314,2.0132 c -0.0939,0.33558 -0.0986,0.33917 -0.41324,0.35368 l -0.0209,0.16692 h 1.11547 l 0.0186,-0.16692 h -0.0569 c -0.22288,0 -0.29717,-0.0271 -0.29717,-0.12159 0,-0.0361 0.0198,-0.11603 0.0534,-0.23215 l 0.22635,-0.75623 c 0.12533,0.32095 0.24608,0.40799 0.55251,0.40799 0.751,0 1.20603,-0.81612 1.20603,-1.49446 0,-0.22669 -0.0453,-0.38084 -0.15207,-0.51503 -0.12066,-0.1488 -0.30643,-0.24119 -0.48751,-0.24119 -0.23795,0 -0.48288,0.13963 -0.69065,0.39534 l 0.0684,-0.39534 m 0.47823,0.24666 c 0.20893,0 0.34821,0.16134 0.34821,0.40799 0,0.25573 -0.0789,0.57133 -0.21937,0.85792 -0.16135,0.34822 -0.34823,0.50597 -0.59315,0.50597 -0.2275,0 -0.38885,-0.17957 -0.38885,-0.42623 0,-0.41706 0.32734,-1.34565 0.85316,-1.34565"
       id="path264"
       style="stroke-width:0.11607509" />
    <path
       inkscape:connector-curvature="0"
       class="Fingering"
       d="m 141.25816,143.89542 c -0.14044,0 -0.25071,0.11243 -0.25071,0.25212 0,0.13417 0.11031,0.25026 0.24608,0.25026 0.14392,0 0.25421,-0.11243 0.25421,-0.25026 0,-0.13963 -0.11031,-0.25212 -0.24958,-0.25212 m 0.0824,1.13359 -0.89031,0.0688 -0.0174,0.16866 h 0.11031 c 0.19035,0 0.26465,0.0419 0.26465,0.14335 0,0.0453 -0.009,0.0979 -0.0418,0.20487 l -0.27046,0.90504 c -0.087,0.29564 -0.10103,0.361 -0.10103,0.46801 0,0.16321 0.13929,0.28833 0.31572,0.28833 0.39815,0 0.67208,-0.41357 0.86824,-0.71455 l -0.14509,-0.0798 c -0.24144,0.36635 -0.43528,0.56229 -0.56064,0.56229 -0.0464,0 -0.0789,-0.0418 -0.0789,-0.0979 0,-0.0453 0.0174,-0.13064 0.0557,-0.25931 l 0.491,-1.65768"
       id="path266"
       style="stroke-width:0.11607509" />
    <path
       inkscape:connector-curvature="0"
       class="Fingering"
       d="m 221.45794,215.56844 -0.12653,0.4189 c -0.0314,-0.28832 -0.26347,-0.48785 -0.56644,-0.48785 -0.69994,0 -1.13985,0.88146 -1.13985,1.49445 0,0.45526 0.27393,0.75635 0.68483,0.75635 0.29368,0 0.47359,-0.11601 0.70574,-0.44979 -0.0186,0.0707 -0.022,0.10155 -0.022,0.1487 0,0.18141 0.11602,0.30109 0.28322,0.30109 0.37145,0 0.63145,-0.42262 0.77074,-0.72361 l -0.14508,-0.078 c -0.17528,0.35728 -0.33895,0.54764 -0.45851,0.54764 -0.0569,0 -0.0986,-0.0527 -0.0986,-0.11601 0,-0.0527 0.0186,-0.13065 0.051,-0.25201 l 0.4643,-1.55981 h -0.40278 m -0.61287,0.18676 c 0.21822,0 0.35172,0.1524 0.35172,0.41357 0,0.26836 -0.0917,0.63481 -0.23565,0.92676 -0.14508,0.28843 -0.31224,0.41902 -0.54439,0.41902 -0.23216,0 -0.37145,-0.17237 -0.37145,-0.45526 0,-0.41716 0.26118,-1.30409 0.79977,-1.30409"
       id="path268"
       style="stroke-width:0.11607509" />
    <path
       inkscape:connector-curvature="0"
       class="Fingering"
       d="m 127.30943,144.10041 -0.84503,0.0688 -0.0186,0.16865 h 0.11031 c 0.19036,0 0.26581,0.0418 0.26581,0.14336 0,0.0454 -0.0133,0.11057 -0.0419,0.20487 l -0.59315,2.0132 c -0.0952,0.33558 -0.0986,0.33917 -0.4144,0.35368 l -0.0196,0.16692 h 1.11547 l 0.0186,-0.16692 h -0.0569 c -0.22287,0 -0.29716,-0.0271 -0.29716,-0.12159 0,-0.0361 0.0198,-0.11603 0.0523,-0.23215 l 0.22751,-0.75623 c 0.12532,0.32095 0.24607,0.40799 0.5525,0.40799 0.75102,0 1.20603,-0.81612 1.20603,-1.49446 0,-0.22669 -0.0453,-0.38084 -0.15205,-0.51503 -0.12187,-0.1488 -0.30643,-0.24119 -0.48753,-0.24119 -0.23795,0 -0.48286,0.13963 -0.69181,0.39534 l 0.0697,-0.39534 m 0.47822,0.24666 c 0.20894,0 0.34822,0.16134 0.34822,0.40799 0,0.25573 -0.0789,0.57133 -0.21937,0.85792 -0.16135,0.34822 -0.34824,0.50597 -0.59315,0.50597 -0.22866,0 -0.39001,-0.17957 -0.39001,-0.42623 0,-0.41706 0.32849,-1.34565 0.85431,-1.34565"
       id="path270"
       style="stroke-width:0.11607509" />
    <path
       inkscape:connector-curvature="0"
       class="Fingering"
       d="m 109.63931,145.04119 -0.12772,0.41892 c -0.0301,-0.28833 -0.26233,-0.48786 -0.56527,-0.48786 -0.69994,0 -1.14102,0.88146 -1.14102,1.49447 0,0.45524 0.27394,0.75634 0.68599,0.75634 0.29367,0 0.47359,-0.11615 0.70574,-0.44978 -0.0186,0.0707 -0.022,0.10155 -0.022,0.14868 0,0.18143 0.11601,0.3011 0.28323,0.3011 0.37143,0 0.63028,-0.42262 0.77072,-0.72361 l -0.14508,-0.078 c -0.17643,0.35728 -0.3401,0.54764 -0.45966,0.54764 -0.0557,0 -0.0975,-0.0526 -0.0975,-0.11601 0,-0.0526 0.0186,-0.13064 0.051,-0.25201 l 0.46429,-1.55981 h -0.40277 m -0.61289,0.18677 c 0.21707,0 0.35172,0.15241 0.35172,0.41357 0,0.26837 -0.0929,0.63482 -0.23563,0.92674 -0.1451,0.28846 -0.31224,0.41905 -0.5444,0.41905 -0.23215,0 -0.37144,-0.17239 -0.37144,-0.45526 0,-0.41718 0.26117,-1.3041 0.79975,-1.3041"
       id="path272"
       style="stroke-width:0.11607509" />
    <path
       inkscape:connector-curvature="0"
       class="Fingering"
       d="m 95.304024,144.10041 -0.845032,0.0688 -0.01862,0.16865 h 0.111366 c 0.190364,0 0.264649,0.0418 0.264649,0.14336 0,0.0454 -0.01327,0.11057 -0.04177,0.20487 l -0.59314,2.0132 c -0.09394,0.33558 -0.09754,0.33917 -0.41322,0.35368 l -0.01986,0.16692 h 1.115493 l 0.01739,-0.16692 h -0.05566 c -0.222877,0 -0.298314,-0.0271 -0.298314,-0.12159 0,-0.0361 0.02089,-0.11603 0.0534,-0.23215 L 94.80706,145.943 c 0.125318,0.32095 0.24723,0.40799 0.553672,0.40799 0.751014,0 1.206024,-0.81612 1.206024,-1.49446 0,-0.22669 -0.0453,-0.38084 -0.15322,-0.51503 -0.12066,-0.1488 -0.30645,-0.24119 -0.48751,-0.24119 -0.23796,0 -0.481728,0.13963 -0.690653,0.39534 l 0.06842,-0.39534 m 0.479393,0.24666 c 0.20777,0 0.34823,0.16134 0.34823,0.40799 0,0.25573 -0.0802,0.57133 -0.21938,0.85792 -0.16135,0.34822 -0.34824,0.50597 -0.59316,0.50597 -0.228658,0 -0.390008,-0.17957 -0.390008,-0.42623 0,-0.41706 0.328492,-1.34565 0.854318,-1.34565"
       id="path274"
       style="stroke-width:0.11607509" />
    <path
       inkscape:connector-curvature="0"
       class="Fingering"
       d="m 93.52344,214.13479 c -0.13929,0 -0.250729,0.11243 -0.250729,0.25211 0,0.13418 0.111367,0.25025 0.247241,0.25025 0.142778,0 0.254206,-0.11242 0.254206,-0.25025 0,-0.13964 -0.111366,-0.25211 -0.250718,-0.25211 m 0.08354,1.13359 -0.890292,0.0688 -0.0186,0.16867 h 0.110306 c 0.190354,0 0.26465,0.0419 0.26465,0.14335 0,0.0453 -0.0082,0.0979 -0.04177,0.20486 l -0.269287,0.90505 c -0.08704,0.29565 -0.102199,0.36099 -0.102199,0.46802 0,0.16321 0.139288,0.28833 0.315721,0.28833 0.399288,0 0.673228,-0.41358 0.868232,-0.71457 l -0.145083,-0.0798 c -0.240274,0.36634 -0.435289,0.56229 -0.559485,0.56229 -0.04753,0 -0.08015,-0.0418 -0.08015,-0.0979 0,-0.0453 0.01862,-0.13064 0.05566,-0.25931 l 0.492166,-1.65768"
       id="path276"
       style="stroke-width:0.11607509" />
    <path
       inkscape:connector-curvature="0"
       class="Fingering"
       d="m 280.58544,214.13479 c -0.13929,0 -0.24957,0.11243 -0.24957,0.25211 0,0.13418 0.11031,0.25025 0.24609,0.25025 0.14393,0 0.25421,-0.11242 0.25421,-0.25025 0,-0.13964 -0.11031,-0.25211 -0.25073,-0.25211 m 0.0836,1.13359 -0.89032,0.0688 -0.0186,0.16867 h 0.11137 c 0.19036,0 0.26466,0.0419 0.26466,0.14335 0,0.0453 -0.009,0.0979 -0.0418,0.20486 l -0.27046,0.90505 c -0.087,0.29565 -0.10103,0.36099 -0.10103,0.46802 0,0.16321 0.13929,0.28833 0.31456,0.28833 0.3993,0 0.67324,-0.41358 0.8694,-0.71457 l -0.1451,-0.0798 c -0.24142,0.36634 -0.43527,0.56229 -0.56063,0.56229 -0.0475,0 -0.0802,-0.0418 -0.0802,-0.0979 0,-0.0453 0.0186,-0.13064 0.0569,-0.25931 l 0.49098,-1.65768"
       id="path278"
       style="stroke-width:0.11607509" />
    <path
       inkscape:connector-curvature="0"
       class="Fingering"
       d="m 80.369228,145.02901 -0.845148,0.0688 -0.01449,0.16866 h 0.112431 c 0.1849,0 0.259309,0.0419 0.259309,0.14695 0,0.0418 -0.01449,0.11244 -0.03801,0.20127 l -0.473355,1.59604 h 0.404394 l 0.190483,-0.65467 c 0.208582,-0.71096 0.631103,-1.2478 0.979334,-1.2478 0.121469,0 0.195931,0.0635 0.195931,0.17956 0,0.0943 -0.03814,0.28834 -0.09436,0.46431 l -0.369933,1.2586 h 0.402672 l 0.199413,-0.67277 c 0.116153,-0.38643 0.232159,-0.64574 0.380964,-0.84527 0.1668,-0.23214 0.404408,-0.38443 0.580376,-0.38443 0.11602,0 0.1813,0.0598 0.1813,0.17051 0,0.0652 -0.02352,0.1668 -0.06525,0.29739 l -0.214045,0.66023 c -0.125056,0.36088 -0.128778,0.38989 -0.128778,0.51862 0,0.19594 0.143357,0.32466 0.36099,0.32466 0.154162,0 0.302846,-0.0743 0.460703,-0.22123 0.09781,-0.0943 0.16135,-0.17771 0.351832,-0.45525 l -0.143356,-0.0979 c -0.241209,0.36275 -0.413458,0.53872 -0.533132,0.53872 -0.0509,0 -0.09795,-0.0509 -0.09795,-0.11602 0,-0.0418 0.01449,-0.0925 0.05622,-0.22856 l 0.292042,-0.89958 c 0.0327,-0.10155 0.05622,-0.24666 0.05622,-0.34823 0,-0.24666 -0.181313,-0.42252 -0.431572,-0.42252 -0.330104,0 -0.627608,0.21393 -0.895982,0.65467 0.01808,-0.0888 0.02711,-0.16679 0.02711,-0.22309 0,-0.24666 -0.195824,-0.43158 -0.449791,-0.43158 -0.293796,0 -0.505967,0.1632 -0.832497,0.62751 l 0.136047,-0.62751"
       id="path280"
       style="stroke-width:0.11607509" />
    <path
       inkscape:connector-curvature="0"
       class="Fingering"
       d="m 249.68973,215.55623 -0.84502,0.0688 -0.014,0.16866 h 0.11137 c 0.18572,0 0.26002,0.0417 0.26002,0.14694 0,0.0417 -0.0151,0.11243 -0.0383,0.20127 l -0.47359,1.59604 h 0.40509 l 0.19036,-0.65467 c 0.2078,-0.71095 0.6303,-1.2478 0.97853,-1.2478 0.12186,0 0.19616,0.0635 0.19616,0.17957 0,0.0942 -0.0383,0.28834 -0.0939,0.46431 l -0.37028,1.25859 h 0.40278 l 0.19965,-0.67277 c 0.11602,-0.38641 0.23215,-0.64572 0.38072,-0.84526 0.16715,-0.23215 0.40511,-0.38444 0.58038,-0.38444 0.11602,0 0.18108,0.0598 0.18108,0.17051 0,0.0652 -0.0233,0.16681 -0.065,0.2974 l -0.21357,0.66023 c -0.12533,0.36087 -0.12891,0.3899 -0.12891,0.51862 0,0.19593 0.14278,0.32465 0.361,0.32465 0.15437,0 0.30295,-0.0743 0.46082,-0.22123 0.0975,-0.0943 0.16134,-0.17772 0.35171,-0.45525 l -0.14393,-0.0979 c -0.24144,0.36274 -0.41323,0.53871 -0.53279,0.53871 -0.051,0 -0.0975,-0.0509 -0.0975,-0.11603 0,-0.0417 0.014,-0.0925 0.0557,-0.22854 l 0.29252,-0.89958 c 0.0325,-0.10155 0.0557,-0.24666 0.0557,-0.34823 0,-0.24666 -0.18107,-0.42253 -0.4318,-0.42253 -0.32965,0 -0.62797,0.21394 -0.8961,0.65467 0.0186,-0.0888 0.0279,-0.1668 0.0279,-0.22309 0,-0.24666 -0.19616,-0.43158 -0.45036,-0.43158 -0.29367,0 -0.50608,0.16322 -0.83225,0.62752 l 0.13579,-0.62752"
       id="path282"
       style="stroke-width:0.11607509" />
    <path
       inkscape:connector-curvature="0"
       class="Fingering"
       d="m 67.559755,144.10041 -0.845143,0.0688 -0.01812,0.16865 h 0.110624 c 0.190479,0 0.26477,0.0418 0.26477,0.14336 0,0.0454 -0.01262,0.11057 -0.04168,0.20487 l -0.59303,2.0132 c -0.09437,0.33558 -0.09796,0.33917 -0.413574,0.35368 l -0.01996,0.16692 h 1.11548 l 0.01811,-0.16692 h -0.05629 c -0.222979,0 -0.297384,-0.0271 -0.297384,-0.12159 0,-0.0361 0.01996,-0.11603 0.05259,-0.23215 l 0.226695,-0.75623 c 0.125123,0.32095 0.246659,0.40799 0.553211,0.40799 0.750891,0 1.206021,-0.81612 1.206021,-1.49446 0,-0.22669 -0.04526,-0.38084 -0.15229,-0.51503 -0.121535,-0.1488 -0.306552,-0.24119 -0.487861,-0.24119 -0.23761,0 -0.482409,0.13963 -0.690998,0.39534 l 0.06883,-0.39534 m 0.478812,0.24666 c 0.208584,0 0.348225,0.16134 0.348225,0.40799 0,0.25573 -0.07974,0.57133 -0.219385,0.85792 -0.161459,0.34822 -0.348226,0.50597 -0.593144,0.50597 -0.228435,0 -0.389894,-0.17957 -0.389894,-0.42623 0,-0.41706 0.32826,-1.34565 0.854198,-1.34565"
       id="path284"
       style="stroke-width:0.11607509" />
    <path
       inkscape:connector-curvature="0"
       class="Fingering"
       d="m 53.763762,143.89542 c -0.139636,0 -0.250256,0.11243 -0.250256,0.25212 0,0.13417 0.110624,0.25026 0.246659,0.25026 0.143238,0 0.253855,-0.11243 0.253855,-0.25026 0,-0.13963 -0.110612,-0.25212 -0.250258,-0.25212 m 0.08346,1.13359 -0.89053,0.0688 -0.0182,0.16866 h 0.110743 c 0.190359,0 0.264765,0.0419 0.264765,0.14335 0,0.0453 -0.0091,0.0979 -0.04177,0.20487 l -0.270223,0.90504 c -0.08706,0.29564 -0.101561,0.361 -0.101561,0.46801 0,0.16321 0.139642,0.28833 0.315607,0.28833 0.399068,0 0.672888,-0.41357 0.86871,-0.71455 l -0.145094,-0.0798 c -0.241207,0.36635 -0.435283,0.56229 -0.560411,0.56229 -0.04712,0 -0.07974,-0.0418 -0.07974,-0.0979 0,-0.0453 0.01812,-0.13064 0.05618,-0.25931 l 0.491578,-1.65768"
       id="path286"
       style="stroke-width:0.11607509" />
    <path
       inkscape:connector-curvature="0"
       class="Fingering"
       d="m 39.815364,144.10041 -0.845258,0.0688 -0.01812,0.16865 h 0.110624 c 0.19048,0 0.264879,0.0418 0.264879,0.14336 0,0.0454 -0.01276,0.11057 -0.04177,0.20487 l -0.593027,2.0132 c -0.09437,0.33558 -0.09797,0.33917 -0.413573,0.35368 l -0.01996,0.16692 h 1.11548 l 0.01812,-0.16692 h -0.05618 c -0.223097,0 -0.297502,-0.0271 -0.297502,-0.12159 0,-0.0361 0.01996,-0.11603 0.05259,-0.23215 l 0.226694,-0.75623 c 0.125243,0.32095 0.246659,0.40799 0.553212,0.40799 0.75089,0 1.206139,-0.81612 1.206139,-1.49446 0,-0.22669 -0.04538,-0.38084 -0.152408,-0.51503 -0.121534,-0.1488 -0.306439,-0.24119 -0.487867,-0.24119 -0.237604,0 -0.482404,0.13963 -0.690993,0.39534 l 0.06894,-0.39534 m 0.478811,0.24666 c 0.208588,0 0.348224,0.16134 0.348224,0.40799 0,0.25573 -0.07986,0.57133 -0.219498,0.85792 -0.161459,0.34822 -0.348227,0.50597 -0.593024,0.50597 -0.228555,0 -0.390014,-0.17957 -0.390014,-0.42623 0,-0.41706 0.32826,-1.34565 0.854312,-1.34565"
       id="path288"
       style="stroke-width:0.11607509" />
    <path
       inkscape:connector-curvature="0"
       class="Fingering"
       d="m 156.15872,215.55623 -0.84501,0.0688 -0.0151,0.16866 h 0.11257 c 0.18572,0 0.26001,0.0417 0.26001,0.14694 0,0.0417 -0.0151,0.11243 -0.0383,0.20127 l -0.47359,1.59604 h 0.40394 l 0.19038,-0.65467 c 0.20893,-0.71095 0.63144,-1.2478 0.97966,-1.2478 0.12187,0 0.19618,0.0635 0.19618,0.17957 0,0.0942 -0.0383,0.28834 -0.0941,0.46431 l -0.37029,1.25859 h 0.40279 l 0.19963,-0.67277 c 0.11616,-0.38641 0.23217,-0.64572 0.38073,-0.84526 0.16716,-0.23215 0.40394,-0.38444 0.58038,-0.38444 0.11602,0 0.18109,0.0598 0.18109,0.17051 0,0.0652 -0.0233,0.16681 -0.065,0.2974 l -0.21475,0.66023 c -0.12427,0.36087 -0.12771,0.3899 -0.12771,0.51862 0,0.19593 0.14276,0.32465 0.35983,0.32465 0.15437,0 0.30295,-0.0743 0.46081,-0.22123 0.0986,-0.0943 0.16134,-0.17772 0.35171,-0.45525 l -0.14277,-0.0979 c -0.24144,0.36274 -0.41323,0.53871 -0.53279,0.53871 -0.051,0 -0.0986,-0.0509 -0.0986,-0.11603 0,-0.0417 0.0151,-0.0925 0.0569,-0.22854 l 0.29135,-0.89958 c 0.0325,-0.10155 0.0569,-0.24666 0.0569,-0.34823 0,-0.24666 -0.18224,-0.42253 -0.4318,-0.42253 -0.33081,0 -0.62797,0.21394 -0.89611,0.65467 0.0186,-0.0888 0.0267,-0.1668 0.0267,-0.22309 0,-0.24666 -0.19501,-0.43158 -0.44922,-0.43158 -0.29366,0 -0.50608,0.16322 -0.83226,0.62752 l 0.13581,-0.62752"
       id="path290"
       style="stroke-width:0.11607509" />
    <path
       inkscape:connector-curvature="0"
       class="Fingering"
       d="m 112.58645,214.62764 -0.84502,0.0688 -0.0186,0.16865 h 0.1103 c 0.19037,0 0.26465,0.0417 0.26465,0.14336 0,0.0453 -0.0133,0.11056 -0.0417,0.20487 l -0.59315,2.01321 c -0.0939,0.33556 -0.0975,0.33917 -0.41322,0.35367 l -0.0198,0.16692 h 1.11549 l 0.0186,-0.16692 h -0.0569 c -0.22286,0 -0.29716,-0.0272 -0.29716,-0.12147 0,-0.0363 0.0197,-0.11602 0.0523,-0.23215 l 0.22751,-0.75624 c 0.12426,0.32095 0.24609,0.40801 0.55252,0.40801 0.751,0 1.20601,-0.81612 1.20601,-1.49447 0,-0.22669 -0.0453,-0.38084 -0.15206,-0.51502 -0.12187,-0.1488 -0.30643,-0.2412 -0.4875,-0.2412 -0.23796,0 -0.48289,0.13963 -0.69181,0.39535 l 0.0697,-0.39535 m 0.47824,0.24665 c 0.20893,0 0.34822,0.16135 0.34822,0.408 0,0.25571 -0.0802,0.57133 -0.21938,0.85792 -0.16134,0.34822 -0.34822,0.50598 -0.59313,0.50598 -0.22868,0 -0.39002,-0.17957 -0.39002,-0.42623 0,-0.41706 0.32848,-1.34567 0.85431,-1.34567"
       id="path292"
       style="stroke-width:0.11607509" />
    <path
       inkscape:connector-curvature="0"
       class="Fingering"
       d="m 78.568667,214.62764 -0.845136,0.0688 -0.01808,0.16865 h 0.110571 c 0.190362,0 0.264758,0.0417 0.264758,0.14336 0,0.0453 -0.01329,0.11056 -0.04173,0.20487 l -0.593135,2.01321 c -0.09422,0.33556 -0.09795,0.33917 -0.413471,0.35367 l -0.01993,0.16692 h 1.115369 l 0.01808,-0.16692 h -0.05622 c -0.223094,0 -0.297385,-0.0272 -0.297385,-0.12147 0,-0.0363 0.01981,-0.11602 0.05263,-0.23215 l 0.226696,-0.75624 c 0.125057,0.32095 0.246659,0.40801 0.553094,0.40801 0.750883,0 1.206137,-0.81612 1.206137,-1.49447 0,-0.22669 -0.04531,-0.38084 -0.152287,-0.51502 -0.121602,-0.1488 -0.306555,-0.2412 -0.487987,-0.2412 -0.237487,0 -0.482404,0.13963 -0.691,0.39535 l 0.06898,-0.39535 m 0.478803,0.24665 c 0.208597,0 0.348231,0.16135 0.348231,0.408 0,0.25571 -0.07974,0.57133 -0.219493,0.85792 -0.161351,0.34822 -0.348232,0.50598 -0.593042,0.50598 -0.228543,0 -0.389895,-0.17957 -0.389895,-0.42623 0,-0.41706 0.32827,-1.34567 0.854199,-1.34567"
       id="path294"
       style="stroke-width:0.11607509" />
    <path
       inkscape:connector-curvature="0"
       class="Fingering"
       d="m 127.92693,215.56844 -0.12651,0.4189 c -0.0314,-0.28832 -0.2635,-0.48785 -0.56645,-0.48785 -0.69993,0 -1.14102,0.88146 -1.14102,1.49445 0,0.45526 0.27394,0.75635 0.68601,0.75635 0.29367,0 0.47359,-0.11601 0.70574,-0.44979 -0.0186,0.0707 -0.0221,0.10155 -0.0221,0.1487 0,0.18141 0.11602,0.30109 0.28322,0.30109 0.37144,0 0.63145,-0.42262 0.77074,-0.72361 l -0.1451,-0.078 c -0.17643,0.35728 -0.33895,0.54764 -0.45849,0.54764 -0.0569,0 -0.0987,-0.0527 -0.0987,-0.11601 0,-0.0527 0.0186,-0.13065 0.051,-0.25201 l 0.46431,-1.55981 h -0.40279 m -0.61287,0.18676 c 0.21707,0 0.35172,0.1524 0.35172,0.41357 0,0.26836 -0.0929,0.63481 -0.23565,0.92676 -0.14509,0.28843 -0.31223,0.41902 -0.54438,0.41902 -0.23216,0 -0.37145,-0.17237 -0.37145,-0.45526 0,-0.41716 0.26117,-1.30409 0.79976,-1.30409"
       id="path296"
       style="stroke-width:0.11607509" />
    <path
       inkscape:connector-curvature="0"
       class="Fingering"
       d="m 62.627374,215.55623 -0.845141,0.0688 -0.01453,0.16866 h 0.112471 c 0.184908,0 0.259312,0.0417 0.259312,0.14694 0,0.0417 -0.01453,0.11243 -0.03808,0.20127 l -0.473352,1.59604 h 0.404405 l 0.190479,-0.65467 c 0.208588,-0.71095 0.6311,-1.2478 0.979326,-1.2478 0.121535,0 0.195936,0.0635 0.195936,0.17957 0,0.0942 -0.03808,0.28834 -0.09437,0.46431 l -0.369927,1.25859 h 0.402545 l 0.199533,-0.67277 c 0.116073,-0.38641 0.232152,-0.64572 0.380845,-0.84526 0.166915,-0.23215 0.40452,-0.38444 0.580372,-0.38444 0.116074,0 0.181428,0.0598 0.181428,0.17051 0,0.0652 -0.02356,0.16681 -0.06534,0.2974 l -0.213929,0.66023 c -0.125135,0.36087 -0.128843,0.3899 -0.128843,0.51862 0,0.19593 0.143352,0.32465 0.360995,0.32465 0.154145,0 0.302839,-0.0743 0.460585,-0.22123 0.09797,-0.0943 0.161462,-0.17772 0.35194,-0.45525 l -0.143352,-0.0979 c -0.241203,0.36274 -0.413461,0.53871 -0.533132,0.53871 -0.05085,0 -0.09797,-0.0509 -0.09797,-0.11603 0,-0.0417 0.01453,-0.0925 0.05618,-0.22854 l 0.292045,-0.89958 c 0.03264,-0.10155 0.05618,-0.24666 0.05618,-0.34823 0,-0.24666 -0.181309,-0.42253 -0.431686,-0.42253 -0.330001,0 -0.627503,0.21394 -0.895866,0.65467 0.01812,-0.0888 0.02715,-0.1668 0.02715,-0.22309 0,-0.24666 -0.195818,-0.43158 -0.44979,-0.43158 -0.293786,0 -0.505973,0.16322 -0.83249,0.62752 l 0.136039,-0.62752"
       id="path298"
       style="stroke-width:0.11607509" />
    <path
       inkscape:connector-curvature="0"
       class="Fingering"
       d="m 48.811768,214.62764 -0.84526,0.0688 -0.01812,0.16865 h 0.110624 c 0.190478,0 0.264764,0.0417 0.264764,0.14336 0,0.0453 -0.01262,0.11056 -0.04168,0.20487 l -0.593025,2.01321 c -0.09437,0.33556 -0.09797,0.33917 -0.413576,0.35367 l -0.01996,0.16692 h 1.115484 l 0.01812,-0.16692 h -0.05618 c -0.223096,0 -0.297501,-0.0272 -0.297501,-0.12147 0,-0.0363 0.01996,-0.11602 0.05259,-0.23215 l 0.226694,-0.75624 c 0.125123,0.32095 0.24666,0.40801 0.553216,0.40801 0.750891,0 1.206134,-0.81612 1.206134,-1.49447 0,-0.22669 -0.04538,-0.38084 -0.152407,-0.51502 -0.121521,-0.1488 -0.306552,-0.2412 -0.487863,-0.2412 -0.237604,0 -0.482408,0.13963 -0.690992,0.39535 l 0.06894,-0.39535 m 0.478807,0.24665 c 0.208475,0 0.348226,0.16135 0.348226,0.408 0,0.25571 -0.07986,0.57133 -0.219494,0.85792 -0.161463,0.34822 -0.348226,0.50598 -0.593031,0.50598 -0.22855,0 -0.390013,-0.17957 -0.390013,-0.42623 0,-0.41706 0.328261,-1.34567 0.854312,-1.34567"
       id="path300"
       style="stroke-width:0.11607509" />
    <path
       inkscape:connector-curvature="0"
       class="Fingering"
       d="m 34.3957,215.56844 -0.126864,0.4189 c -0.03089,-0.28832 -0.263025,-0.48785 -0.565864,-0.48785 -0.700167,0 -1.140903,0.88146 -1.140903,1.49445 0,0.45526 0.273938,0.75635 0.685652,0.75635 0.293789,0 0.473355,-0.11601 0.705507,-0.44979 -0.01811,0.0707 -0.02181,0.10155 -0.02181,0.1487 0,0.18141 0.116072,0.30109 0.282994,0.30109 0.371789,0 0.6311,-0.42262 0.770737,-0.72361 l -0.145094,-0.078 c -0.175853,0.35728 -0.339056,0.54764 -0.458846,0.54764 -0.05618,0 -0.09786,-0.0527 -0.09786,-0.11601 0,-0.0527 0.01812,-0.13065 0.05072,-0.25201 l 0.464301,-1.55981 h -0.402662 m -0.612994,0.18676 c 0.217639,0 0.351822,0.1524 0.351822,0.41357 0,0.26836 -0.09251,0.63481 -0.235748,0.92676 -0.145095,0.28843 -0.311892,0.41902 -0.544044,0.41902 -0.232147,0 -0.371902,-0.17237 -0.371902,-0.45526 0,-0.41716 0.261167,-1.30409 0.799872,-1.30409"
       id="path302"
       style="stroke-width:0.11607509" />
    <path
       inkscape:connector-curvature="0"
       class="Fingering"
       d="m 19.054751,214.62764 -0.845142,0.0688 -0.0181,0.16865 h 0.110624 c 0.190362,0 0.264768,0.0417 0.264768,0.14336 0,0.0453 -0.01262,0.11056 -0.04168,0.20487 l -0.593144,2.01321 c -0.09426,0.33556 -0.09786,0.33917 -0.413459,0.35367 l -0.01996,0.16692 h 1.115367 l 0.01822,-0.16692 h -0.0563 c -0.223095,0 -0.297384,-0.0272 -0.297384,-0.12147 0,-0.0363 0.01996,-0.11602 0.05259,-0.23215 l 0.226694,-0.75624 c 0.125124,0.32095 0.246659,0.40801 0.553215,0.40801 0.750773,0 1.206019,-0.81612 1.206019,-1.49447 0,-0.22669 -0.04526,-0.38084 -0.15229,-0.51502 -0.121535,-0.1488 -0.306555,-0.2412 -0.487864,-0.2412 -0.237604,0 -0.482525,0.13963 -0.691111,0.39535 l 0.06894,-0.39535 m 0.47881,0.24665 c 0.208587,0 0.348225,0.16135 0.348225,0.408 0,0.25571 -0.07974,0.57133 -0.219381,0.85792 -0.161461,0.34822 -0.348226,0.50598 -0.593144,0.50598 -0.228552,0 -0.389897,-0.17957 -0.389897,-0.42623 0,-0.41706 0.32826,-1.34567 0.854197,-1.34567"
       id="path304"
       style="stroke-width:0.11607509" />
    <path
       inkscape:connector-curvature="0"
       class="Fingering"
       d="m 142.34347,214.62764 -0.84619,0.0688 -0.0174,0.16865 h 0.11031 c 0.19037,0 0.26465,0.0417 0.26465,0.14336 0,0.0453 -0.0133,0.11056 -0.0419,0.20487 l -0.59315,2.01321 c -0.0941,0.33556 -0.0975,0.33917 -0.41323,0.35367 l -0.0196,0.16692 h 1.1155 l 0.0186,-0.16692 h -0.0569 c -0.22287,0 -0.29715,-0.0272 -0.29715,-0.12147 0,-0.0363 0.0196,-0.11602 0.0523,-0.23215 l 0.22635,-0.75624 c 0.12532,0.32095 0.24723,0.40801 0.55368,0.40801 0.75101,0 1.20602,-0.81612 1.20602,-1.49447 0,-0.22669 -0.0453,-0.38084 -0.15206,-0.51502 -0.12187,-0.1488 -0.30644,-0.2412 -0.48751,-0.2412 -0.23795,0 -0.48288,0.13963 -0.69182,0.39535 l 0.0697,-0.39535 m 0.47822,0.24665 c 0.20895,0 0.34824,0.16135 0.34824,0.408 0,0.25571 -0.0802,0.57133 -0.21939,0.85792 -0.16135,0.34822 -0.34823,0.50598 -0.59315,0.50598 -0.22866,0 -0.39001,-0.17957 -0.39001,-0.42623 0,-0.41706 0.32849,-1.34567 0.85431,-1.34567"
       id="path306"
       style="stroke-width:0.11607509" />
    <path
       inkscape:connector-curvature="0"
       class="Fingering"
       d="m 284.62718,145.04119 -0.12772,0.41892 c -0.0301,-0.28833 -0.26234,-0.48786 -0.5653,-0.48786 -0.69993,0 -1.14101,0.88146 -1.14101,1.49447 0,0.45524 0.27394,0.75634 0.686,0.75634 0.29368,0 0.47242,-0.11615 0.70459,-0.44978 -0.0174,0.0707 -0.0209,0.10155 -0.0209,0.14868 0,0.18143 0.11615,0.3011 0.28206,0.3011 0.37261,0 0.63147,-0.42262 0.77076,-0.72361 l -0.14511,-0.078 c -0.17528,0.35728 -0.33893,0.54764 -0.45849,0.54764 -0.0557,0 -0.0975,-0.0526 -0.0975,-0.11601 0,-0.0526 0.0174,-0.13064 0.051,-0.25201 l 0.4643,-1.55981 h -0.40279 m -0.61287,0.18677 c 0.21706,0 0.3517,0.15241 0.3517,0.41357 0,0.26837 -0.0929,0.63482 -0.23562,0.92674 -0.1451,0.28846 -0.31225,0.41905 -0.54439,0.41905 -0.23216,0 -0.3726,-0.17239 -0.3726,-0.45526 0,-0.41718 0.26117,-1.3041 0.80091,-1.3041"
       id="path308"
       style="stroke-width:0.11607509" />
    <path
       inkscape:connector-curvature="0"
       class="Fingering"
       d="m 270.2919,144.10041 -0.84502,0.0688 -0.0186,0.16865 h 0.1115 c 0.19036,0 0.26466,0.0418 0.26466,0.14336 0,0.0454 -0.0133,0.11057 -0.0418,0.20487 l -0.59315,2.0132 c -0.0942,0.33558 -0.0975,0.33917 -0.41323,0.35368 l -0.0197,0.16692 h 1.11432 l 0.0186,-0.16692 h -0.0557 c -0.22401,0 -0.29831,-0.0271 -0.29831,-0.12159 0,-0.0361 0.0209,-0.11603 0.0534,-0.23215 l 0.22633,-0.75623 c 0.12533,0.32095 0.24724,0.40799 0.55369,0.40799 0.74983,0 1.20601,-0.81612 1.20601,-1.49446 0,-0.22669 -0.0453,-0.38084 -0.15322,-0.51503 -0.12067,-0.1488 -0.30643,-0.24119 -0.48751,-0.24119 -0.23795,0 -0.48286,0.13963 -0.69065,0.39534 l 0.0684,-0.39534 m 0.47939,0.24666 c 0.20777,0 0.34823,0.16134 0.34823,0.40799 0,0.25573 -0.0802,0.57133 -0.21939,0.85792 -0.16135,0.34822 -0.34822,0.50597 -0.59315,0.50597 -0.22866,0 -0.39001,-0.17957 -0.39001,-0.42623 0,-0.41706 0.32849,-1.34565 0.85432,-1.34565"
       id="path310"
       style="stroke-width:0.11607509" />
    <path
       inkscape:connector-curvature="0"
       class="Fingering"
       d="m 255.35651,145.02901 -0.84503,0.0688 -0.014,0.16866 h 0.11257 c 0.18456,0 0.25883,0.0419 0.25883,0.14695 0,0.0418 -0.014,0.11244 -0.0383,0.20127 l -0.47359,1.59604 h 0.4051 l 0.19036,-0.65467 c 0.20895,-0.71096 0.63145,-1.2478 0.97968,-1.2478 0.12067,0 0.19501,0.0635 0.19501,0.17956 0,0.0943 -0.0373,0.28834 -0.0939,0.46431 l -0.37027,1.2586 h 0.40277 l 0.19965,-0.67277 c 0.11602,-0.38643 0.23214,-0.64574 0.38072,-0.84527 0.16715,-0.23214 0.40512,-0.38443 0.58038,-0.38443 0.11602,0 0.18224,0.0598 0.18224,0.17051 0,0.0652 -0.0245,0.1668 -0.0662,0.29739 l -0.21358,0.66023 c -0.12532,0.36088 -0.12878,0.38989 -0.12878,0.51862 0,0.19594 0.14277,0.32466 0.36101,0.32466 0.15437,0 0.30295,-0.0743 0.4608,-0.22123 0.0975,-0.0943 0.16135,-0.17771 0.35172,-0.45525 l -0.14277,-0.0979 c -0.24144,0.36275 -0.41439,0.53872 -0.53395,0.53872 -0.051,0 -0.0975,-0.0509 -0.0975,-0.11602 0,-0.0418 0.014,-0.0925 0.0557,-0.22856 l 0.29253,-0.89958 c 0.0325,-0.10155 0.0557,-0.24666 0.0557,-0.34823 0,-0.24666 -0.18107,-0.42252 -0.4318,-0.42252 -0.32966,0 -0.62682,0.21393 -0.89611,0.65467 0.0186,-0.0888 0.0279,-0.16679 0.0279,-0.22309 0,-0.24666 -0.19616,-0.43158 -0.45037,-0.43158 -0.29366,0 -0.50608,0.1632 -0.83226,0.62751 l 0.13581,-0.62751"
       id="path312"
       style="stroke-width:0.11607509" />
    <path
       inkscape:connector-curvature="0"
       class="Fingering"
       d="m 242.54763,144.10041 -0.84503,0.0688 -0.0186,0.16865 h 0.1115 c 0.19037,0 0.26465,0.0418 0.26465,0.14336 0,0.0454 -0.0133,0.11057 -0.0419,0.20487 l -0.59315,2.0132 c -0.0942,0.33558 -0.0986,0.33917 -0.41323,0.35368 l -0.0209,0.16692 h 1.11547 l 0.0186,-0.16692 h -0.0569 c -0.22287,0 -0.29715,-0.0271 -0.29715,-0.12159 0,-0.0361 0.0197,-0.11603 0.0534,-0.23215 l 0.22635,-0.75623 c 0.12532,0.32095 0.24607,0.40799 0.55252,0.40799 0.751,0 1.20601,-0.81612 1.20601,-1.49446 0,-0.22669 -0.0453,-0.38084 -0.15205,-0.51503 -0.12067,-0.1488 -0.30644,-0.24119 -0.48751,-0.24119 -0.23797,0 -0.48288,0.13963 -0.69066,0.39534 l 0.0684,-0.39534 m 0.47824,0.24666 c 0.20893,0 0.34822,0.16134 0.34822,0.40799 0,0.25573 -0.0789,0.57133 -0.21938,0.85792 -0.16133,0.34822 -0.34823,0.50597 -0.59315,0.50597 -0.2275,0 -0.38884,-0.17957 -0.38884,-0.42623 0,-0.41706 0.32733,-1.34565 0.85315,-1.34565"
       id="path314"
       style="stroke-width:0.11607509" />
    <path
       inkscape:connector-curvature="0"
       class="Fingering"
       d="m 172.10048,214.62764 -0.84618,0.0688 -0.0174,0.16865 h 0.11031 c 0.19035,0 0.26465,0.0417 0.26465,0.14336 0,0.0453 -0.0133,0.11056 -0.0419,0.20487 l -0.59315,2.01321 c -0.0941,0.33556 -0.0975,0.33917 -0.41323,0.35367 l -0.0197,0.16692 h 1.11547 l 0.0174,-0.16692 h -0.0557 c -0.22286,0 -0.29715,-0.0272 -0.29715,-0.12147 0,-0.0363 0.0196,-0.11602 0.0523,-0.23215 l 0.22635,-0.75624 c 0.12533,0.32095 0.24725,0.40801 0.55368,0.40801 0.751,0 1.20602,-0.81612 1.20602,-1.49447 0,-0.22669 -0.0453,-0.38084 -0.15206,-0.51502 -0.12187,-0.1488 -0.30644,-0.2412 -0.48868,-0.2412 -0.23679,0 -0.4817,0.13963 -0.69064,0.39535 l 0.0697,-0.39535 m 0.47821,0.24665 c 0.20895,0 0.34824,0.16135 0.34824,0.408 0,0.25571 -0.0802,0.57133 -0.21939,0.85792 -0.16134,0.34822 -0.34822,0.50598 -0.59313,0.50598 -0.22868,0 -0.39002,-0.17957 -0.39002,-0.42623 0,-0.41706 0.32849,-1.34567 0.8543,-1.34567"
       id="path316"
       style="stroke-width:0.11607509" />
    <path
       inkscape:connector-curvature="0"
       class="Fingering"
       d="m 228.75094,143.89542 c -0.13929,0 -0.24955,0.11243 -0.24955,0.25212 0,0.13417 0.1103,0.25026 0.24606,0.25026 0.14394,0 0.25421,-0.11243 0.25421,-0.25026 0,-0.13963 -0.1103,-0.25212 -0.25072,-0.25212 m 0.0836,1.13359 -0.89029,0.0688 -0.0174,0.16866 h 0.1103 c 0.19037,0 0.26465,0.0419 0.26465,0.14335 0,0.0453 -0.009,0.0979 -0.0418,0.20487 l -0.27045,0.90504 c -0.0871,0.29564 -0.10104,0.361 -0.10104,0.46801 0,0.16321 0.13929,0.28833 0.31572,0.28833 0.39814,0 0.67207,-0.41357 0.86824,-0.71455 l -0.1451,-0.0798 c -0.24142,0.36635 -0.43527,0.56229 -0.56064,0.56229 -0.0464,0 -0.0802,-0.0418 -0.0802,-0.0979 0,-0.0453 0.0186,-0.13064 0.0569,-0.25931 l 0.491,-1.65768"
       id="path318"
       style="stroke-width:0.11607509" />
    <path
       inkscape:connector-curvature="0"
       class="Fingering"
       d="m 214.80336,144.10041 -0.84503,0.0688 -0.0186,0.16865 h 0.1103 c 0.19037,0 0.26465,0.0418 0.26465,0.14336 0,0.0454 -0.0119,0.11057 -0.0406,0.20487 l -0.59314,2.0132 c -0.0952,0.33558 -0.0986,0.33917 -0.41439,0.35368 l -0.0197,0.16692 h 1.11547 l 0.0186,-0.16692 h -0.0569 c -0.22288,0 -0.29717,-0.0271 -0.29717,-0.12159 0,-0.0361 0.0198,-0.11603 0.0523,-0.23215 l 0.22751,-0.75623 c 0.12426,0.32095 0.24609,0.40799 0.55252,0.40799 0.75101,0 1.20602,-0.81612 1.20602,-1.49446 0,-0.22669 -0.0453,-0.38084 -0.15205,-0.51503 -0.12187,-0.1488 -0.30645,-0.24119 -0.48752,-0.24119 -0.23795,0 -0.48287,0.13963 -0.69181,0.39534 l 0.0696,-0.39534 m 0.47824,0.24666 c 0.20892,0 0.34821,0.16134 0.34821,0.40799 0,0.25573 -0.0789,0.57133 -0.21936,0.85792 -0.16135,0.34822 -0.34824,0.50597 -0.59315,0.50597 -0.22866,0 -0.39001,-0.17957 -0.39001,-0.42623 0,-0.41706 0.32849,-1.34565 0.85431,-1.34565"
       id="path320"
       style="stroke-width:0.11607509" />
    <path
       inkscape:connector-curvature="0"
       class="Fingering"
       d="m 187.05444,214.13479 c -0.13929,0 -0.24957,0.11243 -0.24957,0.25211 0,0.13418 0.11031,0.25025 0.24609,0.25025 0.14277,0 0.2542,-0.11242 0.2542,-0.25025 0,-0.13964 -0.1115,-0.25211 -0.25072,-0.25211 m 0.0836,1.13359 -0.8903,0.0688 -0.0186,0.16867 h 0.11136 c 0.19037,0 0.26465,0.0419 0.26465,0.14335 0,0.0453 -0.009,0.0979 -0.0419,0.20486 l -0.27047,0.90505 c -0.087,0.29565 -0.10217,0.36099 -0.10217,0.46802 0,0.16321 0.14045,0.28833 0.31573,0.28833 0.3993,0 0.67323,-0.41358 0.86939,-0.71457 l -0.14509,-0.0798 c -0.24144,0.36634 -0.43528,0.56229 -0.56064,0.56229 -0.0475,0 -0.0802,-0.0418 -0.0802,-0.0979 0,-0.0453 0.0186,-0.13064 0.0569,-0.25931 l 0.491,-1.65768"
       id="path322"
       style="stroke-width:0.11607509" />
    <path
       inkscape:connector-curvature="0"
       class="Fingering"
       d="m 197.13324,145.04119 -0.12771,0.41892 c -0.0301,-0.28833 -0.26235,-0.48786 -0.56529,-0.48786 -0.69994,0 -1.14102,0.88146 -1.14102,1.49447 0,0.45524 0.27394,0.75634 0.686,0.75634 0.29368,0 0.47243,-0.11615 0.70457,-0.44978 -0.0174,0.0707 -0.0209,0.10155 -0.0209,0.14868 0,0.18143 0.11601,0.3011 0.28206,0.3011 0.37261,0 0.63144,-0.42262 0.77189,-0.72361 l -0.14508,-0.078 c -0.17644,0.35728 -0.34012,0.54764 -0.45967,0.54764 -0.0557,0 -0.0975,-0.0526 -0.0975,-0.11601 0,-0.0526 0.0174,-0.13064 0.051,-0.25201 l 0.4643,-1.55981 h -0.40277 m -0.61289,0.18677 c 0.21707,0 0.35172,0.15241 0.35172,0.41357 0,0.26837 -0.0929,0.63482 -0.23565,0.92674 -0.14508,0.28846 -0.31224,0.41905 -0.54438,0.41905 -0.23215,0 -0.37144,-0.17239 -0.37144,-0.45526 0,-0.41718 0.26118,-1.3041 0.79975,-1.3041"
       id="path324"
       style="stroke-width:0.11607509" />
    <path
       inkscape:connector-curvature="0"
       class="Fingering"
       d="m 265.63149,214.62764 -0.84503,0.0688 -0.0186,0.16865 h 0.1103 c 0.19038,0 0.26466,0.0417 0.26466,0.14336 0,0.0453 -0.0119,0.11056 -0.0406,0.20487 l -0.59315,2.01321 c -0.0952,0.33556 -0.0986,0.33917 -0.41437,0.35367 l -0.0198,0.16692 h 1.11548 l 0.0186,-0.16692 h -0.0569 c -0.22286,0 -0.29714,-0.0272 -0.29714,-0.12147 0,-0.0363 0.0197,-0.11602 0.0523,-0.23215 l 0.2275,-0.75624 c 0.12426,0.32095 0.24609,0.40801 0.55252,0.40801 0.751,0 1.20602,-0.81612 1.20602,-1.49447 0,-0.22669 -0.0453,-0.38084 -0.15206,-0.51502 -0.12186,-0.1488 -0.30643,-0.2412 -0.48751,-0.2412 -0.23795,0 -0.48287,0.13963 -0.69181,0.39535 l 0.0697,-0.39535 m 0.47822,0.24665 c 0.20894,0 0.34823,0.16135 0.34823,0.408 0,0.25571 -0.0789,0.57133 -0.21939,0.85792 -0.16134,0.34822 -0.34822,0.50598 -0.59313,0.50598 -0.22868,0 -0.39002,-0.17957 -0.39002,-0.42623 0,-0.41706 0.3285,-1.34567 0.85431,-1.34567"
       id="path326"
       style="stroke-width:0.11607509" />
  </g>
</svg>
