<?xml version="1.0" encoding="UTF-8" standalone="no"?>
<svg
   width="297mm"
   height="210mm"
   viewBox="0 0 4209.4489 2976.378"
   version="1.2"
   id="svg310"
   sodipodi:docname="ex_corde_a_vide_05.svg"
   inkscape:version="1.2.2 (b0a8486541, 2022-12-01)"
   xmlns:inkscape="http://www.inkscape.org/namespaces/inkscape"
   xmlns:sodipodi="http://sodipodi.sourceforge.net/DTD/sodipodi-0.dtd"
   xmlns="http://www.w3.org/2000/svg"
   xmlns:svg="http://www.w3.org/2000/svg"
   xmlns:rdf="http://www.w3.org/1999/02/22-rdf-syntax-ns#"
   xmlns:cc="http://creativecommons.org/ns#"
   xmlns:dc="http://purl.org/dc/elements/1.1/">
  <defs
     id="defs314" />
  <sodipodi:namedview
     id="namedview312"
     pagecolor="#ffffff"
     bordercolor="#000000"
     borderopacity="0.25"
     inkscape:showpageshadow="2"
     inkscape:pageopacity="0.0"
     inkscape:pagecheckerboard="0"
     inkscape:deskcolor="#d1d1d1"
     inkscape:document-units="mm"
     showgrid="false"
     inkscape:zoom="0.42949815"
     inkscape:cx="525.03136"
     inkscape:cy="301.51469"
     inkscape:window-width="1280"
     inkscape:window-height="651"
     inkscape:window-x="0"
     inkscape:window-y="32"
     inkscape:window-maximized="1"
     inkscape:current-layer="svg310" />
  <title
     id="title2">ex_corde_a_vide_06</title>
  <desc
     id="desc4">Generated by MuseScore Studio 4.5.2</desc>
  <polyline
     class="StaffLines"
     fill="none"
     stroke="#000000"
     stroke-width="2.73"
     stroke-linejoin="bevel"
     points="336.599,634.198 2764.6,634.198"
     id="polyline6"
     transform="matrix(1.5082603,0,0,1.8896769,-235.25163,-192.49245)" />
  <polyline
     class="StaffLines"
     fill="none"
     stroke="#000000"
     stroke-width="2.73"
     stroke-linejoin="bevel"
     points="336.599,658.998 2764.6,658.998"
     id="polyline8"
     transform="matrix(1.5082603,0,0,1.8896769,-235.25163,-192.49245)" />
  <polyline
     class="StaffLines"
     fill="none"
     stroke="#000000"
     stroke-width="2.73"
     stroke-linejoin="bevel"
     points="336.599,683.798 2764.6,683.798"
     id="polyline10"
     transform="matrix(1.5082603,0,0,1.8896769,-235.25163,-192.49245)" />
  <polyline
     class="StaffLines"
     fill="none"
     stroke="#000000"
     stroke-width="2.73"
     stroke-linejoin="bevel"
     points="336.599,708.598 2764.6,708.598"
     id="polyline12"
     transform="matrix(1.5082603,0,0,1.8896769,-235.25163,-192.49245)" />
  <polyline
     class="StaffLines"
     fill="none"
     stroke="#000000"
     stroke-width="2.73"
     stroke-linejoin="bevel"
     points="336.599,733.398 2764.6,733.398"
     id="polyline14"
     transform="matrix(1.5082603,0,0,1.8896769,-235.25163,-192.49245)" />
  <polyline
     class="StaffLines"
     fill="none"
     stroke="#000000"
     stroke-width="2.73"
     stroke-linejoin="bevel"
     points="212.598,1316.2 2764.6,1316.2"
     id="polyline16"
     transform="matrix(1.5082603,0,0,1.8896769,-235.25163,-192.49245)" />
  <polyline
     class="StaffLines"
     fill="none"
     stroke="#000000"
     stroke-width="2.73"
     stroke-linejoin="bevel"
     points="212.598,1341 2764.6,1341"
     id="polyline18"
     transform="matrix(1.5082603,0,0,1.8896769,-235.25163,-192.49245)" />
  <polyline
     class="StaffLines"
     fill="none"
     stroke="#000000"
     stroke-width="2.73"
     stroke-linejoin="bevel"
     points="212.598,1365.8 2764.6,1365.8"
     id="polyline20"
     transform="matrix(1.5082603,0,0,1.8896769,-235.25163,-192.49245)" />
  <polyline
     class="StaffLines"
     fill="none"
     stroke="#000000"
     stroke-width="2.73"
     stroke-linejoin="bevel"
     points="212.598,1390.6 2764.6,1390.6"
     id="polyline22"
     transform="matrix(1.5082603,0,0,1.8896769,-235.25163,-192.49245)" />
  <polyline
     class="StaffLines"
     fill="none"
     stroke="#000000"
     stroke-width="2.73"
     stroke-linejoin="bevel"
     points="212.598,1415.4 2764.6,1415.4"
     id="polyline24"
     transform="matrix(1.5082603,0,0,1.8896769,-235.25163,-192.49245)" />
  <path
     class="MeasureNumber"
     d="m 117.80647,2147.4756 h -3.27594 l -28.09135,36.433 v 3.1557 h 16.99056 l -0.96529,4.6108 c -1.20208,5.7447 -1.20208,5.7447 -6.45686,5.7447 h -1.08444 l -0.35444,3.5525 h 18.75974 l 0.30618,-3.5525 h -1.08444 c -3.98181,0 -4.83096,-0.378 -4.83096,-2.022 0,-0.6236 0.11764,-1.3606 0.61235,-3.7227 l 1.01355,-4.6108 h 6.88219 l 0.89591,-4.0817 h -6.92895 l 7.61219,-35.507 m -13.4567,35.507 H 90.82219 l 18.64059,-24.0367 -5.11301,24.0367"
     id="path28"
     style="stroke-width:1.68823" />
  <polyline
     class="BarLine"
     fill="none"
     stroke="#000000"
     stroke-width="4.46"
     stroke-linejoin="bevel"
     points="2739.55,1314.84 2739.55,1416.76"
     id="polyline30"
     transform="matrix(1.5082603,0,0,1.8896769,-235.25163,-192.49245)" />
  <polyline
     class="BarLine"
     fill="none"
     stroke="#000000"
     stroke-width="13.64"
     stroke-linejoin="bevel"
     points="2757.78,1314.84 2757.78,1416.76"
     id="polyline32"
     transform="matrix(1.5082603,0,0,1.8896769,-235.25163,-192.49245)" />
  <polyline
     class="BarLine"
     fill="none"
     stroke="#000000"
     stroke-width="4.46"
     stroke-linejoin="bevel"
     points="1928.34,1314.84 1928.34,1416.76"
     id="polyline34"
     transform="matrix(1.5082603,0,0,1.8896769,-235.25163,-192.49245)" />
  <polyline
     class="BarLine"
     fill="none"
     stroke="#000000"
     stroke-width="4.46"
     stroke-linejoin="bevel"
     points="1117.13,1314.84 1117.13,1416.76"
     id="polyline36"
     transform="matrix(1.5082603,0,0,1.8896769,-235.25163,-192.49245)" />
  <polyline
     class="BarLine"
     fill="none"
     stroke="#000000"
     stroke-width="4.46"
     stroke-linejoin="bevel"
     points="2762.37,632.834 2762.37,734.762"
     id="polyline38"
     transform="matrix(1.5082603,0,0,1.8896769,-235.25163,-192.49245)" />
  <polyline
     class="BarLine"
     fill="none"
     stroke="#000000"
     stroke-width="4.46"
     stroke-linejoin="bevel"
     points="2003.17,632.834 2003.17,734.762"
     id="polyline40"
     transform="matrix(1.5082603,0,0,1.8896769,-235.25163,-192.49245)" />
  <polyline
     class="BarLine"
     fill="none"
     stroke="#000000"
     stroke-width="4.46"
     stroke-linejoin="bevel"
     points="1243.97,632.834 1243.97,734.762"
     id="polyline42"
     transform="matrix(1.5082603,0,0,1.8896769,-235.25163,-192.49245)" />
  <polyline
     class="LedgerLine"
     fill="none"
     stroke="#000000"
     stroke-width="3.97"
     stroke-linejoin="bevel"
     points="527.342,807.799 575.934,807.799"
     id="polyline44"
     transform="matrix(1.5082603,0,0,1.8896769,-235.25163,-192.49245)" />
  <polyline
     class="LedgerLine"
     fill="none"
     stroke="#000000"
     stroke-width="3.97"
     stroke-linejoin="bevel"
     points="527.342,758.199 575.934,758.199"
     id="polyline46"
     transform="matrix(1.5082603,0,0,1.8896769,-235.25163,-192.49245)" />
  <polyline
     class="LedgerLine"
     fill="none"
     stroke="#000000"
     stroke-width="3.97"
     stroke-linejoin="bevel"
     points="1159.7,1440.2 1208.29,1440.2"
     id="polyline48"
     transform="matrix(1.5082603,0,0,1.8896769,-235.25163,-192.49245)" />
  <polyline
     class="LedgerLine"
     fill="none"
     stroke="#000000"
     stroke-width="3.97"
     stroke-linejoin="bevel"
     points="1159.7,1465 1208.29,1465"
     id="polyline50"
     transform="matrix(1.5082603,0,0,1.8896769,-235.25163,-192.49245)" />
  <polyline
     class="LedgerLine"
     fill="none"
     stroke="#000000"
     stroke-width="3.97"
     stroke-linejoin="bevel"
     points="1286.54,782.999 1335.13,782.999"
     id="polyline52"
     transform="matrix(1.5082603,0,0,1.8896769,-235.25163,-192.49245)" />
  <polyline
     class="LedgerLine"
     fill="none"
     stroke="#000000"
     stroke-width="3.97"
     stroke-linejoin="bevel"
     points="1286.54,758.199 1335.13,758.199"
     id="polyline54"
     transform="matrix(1.5082603,0,0,1.8896769,-235.25163,-192.49245)" />
  <polyline
     class="LedgerLine"
     fill="none"
     stroke="#000000"
     stroke-width="3.97"
     stroke-linejoin="bevel"
     points="527.342,782.999 575.934,782.999"
     id="polyline56"
     transform="matrix(1.5082603,0,0,1.8896769,-235.25163,-192.49245)" />
  <polyline
     class="LedgerLine"
     fill="none"
     stroke="#000000"
     stroke-width="3.97"
     stroke-linejoin="bevel"
     points="1970.91,1440.2 2019.5,1440.2"
     id="polyline58"
     transform="matrix(1.5082603,0,0,1.8896769,-235.25163,-192.49245)" />
  <polyline
     class="LedgerLine"
     fill="none"
     stroke="#000000"
     stroke-width="3.97"
     stroke-linejoin="bevel"
     points="1970.91,1465 2019.5,1465"
     id="polyline60"
     transform="matrix(1.5082603,0,0,1.8896769,-235.25163,-192.49245)" />
  <polyline
     class="LedgerLine"
     fill="none"
     stroke="#000000"
     stroke-width="3.97"
     stroke-linejoin="bevel"
     points="1970.91,1489.8 2019.5,1489.8"
     id="polyline62"
     transform="matrix(1.5082603,0,0,1.8896769,-235.25163,-192.49245)" />
  <polyline
     class="Stem"
     fill="none"
     stroke="#000000"
     stroke-width="2.48"
     stroke-linejoin="bevel"
     points="684.213,704.63 684.213,621.798"
     id="polyline64"
     transform="matrix(1.5082603,0,0,1.8896769,-235.25163,-192.49245)" />
  <polyline
     class="Stem"
     fill="none"
     stroke="#000000"
     stroke-width="2.48"
     stroke-linejoin="bevel"
     points="1548.24,1332.77 1548.24,1415.4"
     id="polyline66"
     transform="matrix(1.5082603,0,0,1.8896769,-235.25163,-192.49245)" />
  <polyline
     class="Stem"
     fill="none"
     stroke="#000000"
     stroke-width="2.48"
     stroke-linejoin="bevel"
     points="1649.07,650.765 1649.07,733.398"
     id="polyline68"
     transform="matrix(1.5082603,0,0,1.8896769,-235.25163,-192.49245)" />
  <polyline
     class="Stem"
     fill="none"
     stroke="#000000"
     stroke-width="2.48"
     stroke-linejoin="bevel"
     points="1421.87,1369.97 1421.87,1440.2"
     id="polyline70"
     transform="matrix(1.5082603,0,0,1.8896769,-235.25163,-192.49245)" />
  <polyline
     class="Stem"
     fill="none"
     stroke="#000000"
     stroke-width="2.48"
     stroke-linejoin="bevel"
     points="1766.77,687.965 1766.77,758.199"
     id="polyline72"
     transform="matrix(1.5082603,0,0,1.8896769,-235.25163,-192.49245)" />
  <polyline
     class="Stem"
     fill="none"
     stroke="#000000"
     stroke-width="2.48"
     stroke-linejoin="bevel"
     points="1325.24,1386.63 1325.24,1303.8"
     id="polyline74"
     transform="matrix(1.5082603,0,0,1.8896769,-235.25163,-192.49245)" />
  <polyline
     class="Stem"
     fill="none"
     stroke="#000000"
     stroke-width="2.48"
     stroke-linejoin="bevel"
     points="1007.58,687.965 1007.58,758.199"
     id="polyline76"
     transform="matrix(1.5082603,0,0,1.8896769,-235.25163,-192.49245)" />
  <polyline
     class="Stem"
     fill="none"
     stroke="#000000"
     stroke-width="2.48"
     stroke-linejoin="bevel"
     points="1914.22,704.63 1914.22,621.798"
     id="polyline78"
     transform="matrix(1.5082603,0,0,1.8896769,-235.25163,-192.49245)" />
  <polyline
     class="Stem"
     fill="none"
     stroke="#000000"
     stroke-width="2.48"
     stroke-linejoin="bevel"
     points="2485.82,1369.97 2485.82,1440.2"
     id="polyline80"
     transform="matrix(1.5082603,0,0,1.8896769,-235.25163,-192.49245)" />
  <polyline
     class="Stem"
     fill="none"
     stroke="#000000"
     stroke-width="2.48"
     stroke-linejoin="bevel"
     points="737.025,1332.77 737.025,1415.4"
     id="polyline82"
     transform="matrix(1.5082603,0,0,1.8896769,-235.25163,-192.49245)" />
  <polyline
     class="Stem"
     fill="none"
     stroke="#000000"
     stroke-width="2.48"
     stroke-linejoin="bevel"
     points="2525.97,687.965 2525.97,758.199"
     id="polyline84"
     transform="matrix(1.5082603,0,0,1.8896769,-235.25163,-192.49245)" />
  <polyline
     class="Stem"
     fill="none"
     stroke="#000000"
     stroke-width="2.48"
     stroke-linejoin="bevel"
     points="566.51,816.231 566.51,683.798"
     id="polyline86"
     transform="matrix(1.5082603,0,0,1.8896769,-235.25163,-192.49245)" />
  <polyline
     class="Stem"
     fill="none"
     stroke="#000000"
     stroke-width="2.48"
     stroke-linejoin="bevel"
     points="2641.94,1386.63 2641.94,1303.8"
     id="polyline88"
     transform="matrix(1.5082603,0,0,1.8896769,-235.25163,-192.49245)" />
  <polyline
     class="Stem"
     fill="none"
     stroke="#000000"
     stroke-width="2.48"
     stroke-linejoin="bevel"
     points="2084.91,741.83 2084.91,658.998"
     id="polyline90"
     transform="matrix(1.5082603,0,0,1.8896769,-235.25163,-192.49245)" />
  <polyline
     class="Stem"
     fill="none"
     stroke="#000000"
     stroke-width="2.48"
     stroke-linejoin="bevel"
     points="1198.87,1461.03 1198.87,1365.8"
     id="polyline92"
     transform="matrix(1.5082603,0,0,1.8896769,-235.25163,-192.49245)" />
  <polyline
     class="Stem"
     fill="none"
     stroke="#000000"
     stroke-width="2.48"
     stroke-linejoin="bevel"
     points="2408.27,650.765 2408.27,733.398"
     id="polyline94"
     transform="matrix(1.5082603,0,0,1.8896769,-235.25163,-192.49245)" />
  <polyline
     class="Stem"
     fill="none"
     stroke="#000000"
     stroke-width="2.48"
     stroke-linejoin="bevel"
     points="2202.61,704.63 2202.61,621.798"
     id="polyline96"
     transform="matrix(1.5082603,0,0,1.8896769,-235.25163,-192.49245)" />
  <polyline
     class="Stem"
     fill="none"
     stroke="#000000"
     stroke-width="2.48"
     stroke-linejoin="bevel"
     points="1019.51,1386.63 1019.51,1303.8"
     id="polyline98"
     transform="matrix(1.5082603,0,0,1.8896769,-235.25163,-192.49245)" />
  <polyline
     class="Stem"
     fill="none"
     stroke="#000000"
     stroke-width="2.48"
     stroke-linejoin="bevel"
     points="863.396,1369.97 863.396,1440.2"
     id="polyline100"
     transform="matrix(1.5082603,0,0,1.8896769,-235.25163,-192.49245)" />
  <polyline
     class="Stem"
     fill="none"
     stroke="#000000"
     stroke-width="2.48"
     stroke-linejoin="bevel"
     points="2290.57,687.965 2290.57,758.199"
     id="polyline102"
     transform="matrix(1.5082603,0,0,1.8896769,-235.25163,-192.49245)" />
  <polyline
     class="Stem"
     fill="none"
     stroke="#000000"
     stroke-width="2.48"
     stroke-linejoin="bevel"
     points="2673.42,704.63 2673.42,621.798"
     id="polyline104"
     transform="matrix(1.5082603,0,0,1.8896769,-235.25163,-192.49245)" />
  <polyline
     class="Stem"
     fill="none"
     stroke="#000000"
     stroke-width="2.48"
     stroke-linejoin="bevel"
     points="2010.08,1498.23 2010.08,1365.8"
     id="polyline106"
     transform="matrix(1.5082603,0,0,1.8896769,-235.25163,-192.49245)" />
  <polyline
     class="Stem"
     fill="none"
     stroke="#000000"
     stroke-width="2.48"
     stroke-linejoin="bevel"
     points="889.873,650.765 889.873,733.398"
     id="polyline108"
     transform="matrix(1.5082603,0,0,1.8896769,-235.25163,-192.49245)" />
  <polyline
     class="Stem"
     fill="none"
     stroke="#000000"
     stroke-width="2.48"
     stroke-linejoin="bevel"
     points="2233.08,1369.97 2233.08,1440.2"
     id="polyline110"
     transform="matrix(1.5082603,0,0,1.8896769,-235.25163,-192.49245)" />
  <polyline
     class="Stem"
     fill="none"
     stroke="#000000"
     stroke-width="2.48"
     stroke-linejoin="bevel"
     points="1155.02,704.63 1155.02,621.798"
     id="polyline112"
     transform="matrix(1.5082603,0,0,1.8896769,-235.25163,-192.49245)" />
  <polyline
     class="Stem"
     fill="none"
     stroke="#000000"
     stroke-width="2.48"
     stroke-linejoin="bevel"
     points="2359.45,1332.77 2359.45,1415.4"
     id="polyline114"
     transform="matrix(1.5082603,0,0,1.8896769,-235.25163,-192.49245)" />
  <polyline
     class="Stem"
     fill="none"
     stroke="#000000"
     stroke-width="2.48"
     stroke-linejoin="bevel"
     points="1325.71,779.031 1325.71,683.798"
     id="polyline116"
     transform="matrix(1.5082603,0,0,1.8896769,-235.25163,-192.49245)" />
  <polyline
     class="Stem"
     fill="none"
     stroke="#000000"
     stroke-width="2.48"
     stroke-linejoin="bevel"
     points="772.171,687.965 772.171,758.199"
     id="polyline118"
     transform="matrix(1.5082603,0,0,1.8896769,-235.25163,-192.49245)" />
  <polyline
     class="Stem"
     fill="none"
     stroke="#000000"
     stroke-width="2.48"
     stroke-linejoin="bevel"
     points="514.027,1386.63 514.027,1303.8"
     id="polyline120"
     transform="matrix(1.5082603,0,0,1.8896769,-235.25163,-192.49245)" />
  <polyline
     class="Stem"
     fill="none"
     stroke="#000000"
     stroke-width="2.48"
     stroke-linejoin="bevel"
     points="1830.72,1386.63 1830.72,1303.8"
     id="polyline122"
     transform="matrix(1.5082603,0,0,1.8896769,-235.25163,-192.49245)" />
  <polyline
     class="Stem"
     fill="none"
     stroke="#000000"
     stroke-width="2.48"
     stroke-linejoin="bevel"
     points="387.656,1423.83 387.656,1341"
     id="polyline124"
     transform="matrix(1.5082603,0,0,1.8896769,-235.25163,-192.49245)" />
  <polyline
     class="Stem"
     fill="none"
     stroke="#000000"
     stroke-width="2.48"
     stroke-linejoin="bevel"
     points="1443.41,704.63 1443.41,621.798"
     id="polyline126"
     transform="matrix(1.5082603,0,0,1.8896769,-235.25163,-192.49245)" />
  <polyline
     class="Stem"
     fill="none"
     stroke="#000000"
     stroke-width="2.48"
     stroke-linejoin="bevel"
     points="2136.45,1386.63 2136.45,1303.8"
     id="polyline128"
     transform="matrix(1.5082603,0,0,1.8896769,-235.25163,-192.49245)" />
  <polyline
     class="Stem"
     fill="none"
     stroke="#000000"
     stroke-width="2.48"
     stroke-linejoin="bevel"
     points="1674.61,1369.97 1674.61,1440.2"
     id="polyline130"
     transform="matrix(1.5082603,0,0,1.8896769,-235.25163,-192.49245)" />
  <polyline
     class="Stem"
     fill="none"
     stroke="#000000"
     stroke-width="2.48"
     stroke-linejoin="bevel"
     points="610.654,1369.97 610.654,1440.2"
     id="polyline132"
     transform="matrix(1.5082603,0,0,1.8896769,-235.25163,-192.49245)" />
  <polyline
     class="Stem"
     fill="none"
     stroke="#000000"
     stroke-width="2.48"
     stroke-linejoin="bevel"
     points="1531.37,687.965 1531.37,758.199"
     id="polyline134"
     transform="matrix(1.5082603,0,0,1.8896769,-235.25163,-192.49245)" />
  <path
     class="Note"
     d="m 572.46099,1365.2977 c 0,8.0548 4.62885,17.0469 16.76204,17.0469 15.54651,0 31.86432,-15.9339 31.86432,-32.4241 0,-11.0717 -7.48097,-17.2518 -16.76202,-17.2518 -14.51775,0 -31.86434,15.3772 -31.86434,32.629"
     id="path136"
     style="stroke-width:1.67473" />
  <path
     class="Note"
     d="m 874.5037,2326.0113 c 0,8.0548 4.6288,17.0468 16.762,17.0468 15.5465,0 31.8644,-15.9338 31.8644,-32.424 0,-11.0716 -7.481,-17.2518 -16.7621,-17.2518 -14.5177,0 -31.8643,15.3772 -31.8643,32.629"
     id="path138"
     style="stroke-width:1.67473" />
  <path
     class="Note"
     d="m 302.70109,2513.4673 c 0,8.0547 4.62885,17.0467 16.76204,17.0467 15.54651,0 31.86432,-15.9337 31.86432,-32.424 0,-11.0716 -7.48097,-17.2518 -16.76202,-17.2518 -14.51775,0 -31.86434,15.3773 -31.86434,32.6291"
     id="path140"
     style="stroke-width:1.67473" />
  <path
     class="Note"
     d="m 493.30146,2443.1713 c 0,8.0547 4.62885,17.0468 16.76203,17.0468 15.54652,0 31.86432,-15.9338 31.86432,-32.4241 0,-11.0716 -7.48097,-17.2518 -16.76202,-17.2518 -14.51774,0 -31.86433,15.3773 -31.86433,32.6291"
     id="path142"
     style="stroke-width:1.67473" />
  <path
     class="Note"
     d="m 683.90333,2396.3073 c 0,8.0548 4.62885,17.0468 16.76203,17.0468 15.54652,0 31.86433,-15.9338 31.86433,-32.424 0,-11.0717 -7.48097,-17.2518 -16.76202,-17.2518 -14.51775,0 -31.86434,15.3772 -31.86434,32.629"
     id="path144"
     style="stroke-width:1.67473" />
  <path
     class="Note"
     d="m 1526.2154,2583.7633 c 0,8.0547 4.6289,17.0467 16.7621,17.0467 15.5465,0 31.8643,-15.9337 31.8643,-32.424 0,-11.0716 -7.481,-17.2518 -16.7621,-17.2518 -14.5176,0 -31.8643,15.3772 -31.8643,32.6291"
     id="path146"
     style="stroke-width:1.67473" />
  <path
     class="Note"
     d="m 1065.1041,2396.3073 c 0,8.0548 4.6288,17.0468 16.762,17.0468 15.5465,0 31.8643,-15.9338 31.8643,-32.424 0,-11.0717 -7.481,-17.2518 -16.762,-17.2518 -14.5177,0 -31.8643,15.3772 -31.8643,32.629"
     id="path148"
     style="stroke-width:1.67473" />
  <path
     class="Note"
     d="m 1255.7044,2443.1713 c 0,8.0547 4.6289,17.0468 16.7621,17.0468 15.5465,0 31.8642,-15.9338 31.8642,-32.4241 0,-11.0716 -7.4809,-17.2518 -16.762,-17.2518 -14.5176,0 -31.8643,15.3773 -31.8643,32.6291"
     id="path150"
     style="stroke-width:1.67473" />
  <path
     class="Note"
     d="m 3702.7407,2443.1713 c 0,8.0547 4.6288,17.0468 16.762,17.0468 15.5466,0 31.8643,-15.9338 31.8643,-32.4241 0,-11.0716 -7.481,-17.2518 -16.7621,-17.2518 -14.5176,0 -31.8642,15.3773 -31.8642,32.6291"
     id="path152"
     style="stroke-width:1.67473" />
  <path
     class="Note"
     d="m 3512.1418,2396.3073 c 0,8.0548 4.6289,17.0468 16.7621,17.0468 15.5465,0 31.8642,-15.9338 31.8642,-32.424 0,-11.0717 -7.481,-17.2518 -16.762,-17.2518 -14.5176,0 -31.8643,15.3772 -31.8643,32.629"
     id="path154"
     style="stroke-width:1.67473" />
  <path
     class="Note"
     d="m 1716.8143,2443.1713 c 0,8.0547 4.6288,17.0468 16.762,17.0468 15.5466,0 31.8643,-15.9338 31.8643,-32.4241 0,-11.0716 -7.481,-17.2518 -16.762,-17.2518 -14.5177,0 -31.8643,15.3773 -31.8643,32.6291"
     id="path156"
     style="stroke-width:1.67473" />
  <path
     class="Note"
     d="m 1907.4282,2396.3073 c 0,8.0548 4.6289,17.0468 16.7621,17.0468 15.5465,0 31.8642,-15.9338 31.8642,-32.424 0,-11.0717 -7.4809,-17.2518 -16.762,-17.2518 -14.5176,0 -31.8643,15.3772 -31.8643,32.629"
     id="path158"
     style="stroke-width:1.67473" />
  <path
     class="Note"
     d="m 2098.0271,2326.0113 c 0,8.0548 4.6288,17.0468 16.762,17.0468 15.5466,0 31.8643,-15.9338 31.8643,-32.424 0,-11.0716 -7.481,-17.2518 -16.762,-17.2518 -14.5177,0 -31.8643,15.3772 -31.8643,32.629"
     id="path160"
     style="stroke-width:1.67473" />
  <path
     class="Note"
     d="m 2288.626,2396.3073 c 0,8.0548 4.6288,17.0468 16.762,17.0468 15.5465,0 31.8643,-15.9338 31.8643,-32.424 0,-11.0717 -7.481,-17.2518 -16.7621,-17.2518 -14.5176,0 -31.8642,15.3772 -31.8642,32.629"
     id="path162"
     style="stroke-width:1.67473" />
  <path
     class="Note"
     d="m 2479.2248,2443.1713 c 0,8.0547 4.6289,17.0468 16.7621,17.0468 15.5465,0 31.8642,-15.9338 31.8642,-32.4241 0,-11.0716 -7.481,-17.2518 -16.762,-17.2518 -14.5176,0 -31.8643,15.3773 -31.8643,32.6291"
     id="path164"
     style="stroke-width:1.67473" />
  <path
     class="Note"
     d="m 3321.543,2326.0113 c 0,8.0548 4.6288,17.0468 16.762,17.0468 15.5465,0 31.8643,-15.9338 31.8643,-32.424 0,-11.0716 -7.481,-17.2518 -16.7621,-17.2518 -14.5176,0 -31.8642,15.3772 -31.8642,32.629"
     id="path166"
     style="stroke-width:1.67473" />
  <path
     class="Note"
     d="m 3130.9441,2396.3073 c 0,8.0548 4.6288,17.0468 16.762,17.0468 15.5466,0 31.8643,-15.9338 31.8643,-32.424 0,-11.0717 -7.481,-17.2518 -16.762,-17.2518 -14.5177,0 -31.8643,15.3772 -31.8643,32.629"
     id="path168"
     style="stroke-width:1.67473" />
  <path
     class="Note"
     d="m 2940.3452,2443.1713 c 0,8.0547 4.6289,17.0468 16.7621,17.0468 15.5465,0 31.8642,-15.9338 31.8642,-32.4241 0,-11.0716 -7.4809,-17.2518 -16.762,-17.2518 -14.5176,0 -31.8643,15.3773 -31.8643,32.6291"
     id="path170"
     style="stroke-width:1.67473" />
  <path
     class="Note"
     d="m 2749.7313,2654.0592 c 0,8.0548 4.6288,17.0468 16.762,17.0468 15.5466,0 31.8643,-15.9337 31.8643,-32.424 0,-11.0716 -7.481,-17.2518 -16.762,-17.2518 -14.5177,0 -31.8643,15.3772 -31.8643,32.629"
     id="path172"
     style="stroke-width:1.67473" />
  <path
     class="Note"
     d="m 749.98625,1154.4079 c 0,8.0547 4.62885,17.0468 16.76203,17.0468 15.54652,0 31.86432,-15.9338 31.86432,-32.4241 0,-11.0716 -7.48097,-17.2518 -16.76202,-17.2518 -14.51774,0 -31.86433,15.3772 -31.86433,32.6291"
     id="path174"
     style="stroke-width:1.67473" />
  <path
     class="Note"
     d="m 3040.1317,1154.4079 c 0,8.0547 4.6289,17.0468 16.7621,17.0468 15.5465,0 31.8643,-15.9338 31.8643,-32.4241 0,-11.0716 -7.481,-17.2518 -16.7621,-17.2518 -14.5176,0 -31.8643,15.3772 -31.8643,32.6291"
     id="path176"
     style="stroke-width:1.67473" />
  <path
     class="Note"
     d="m 3217.654,1107.5439 c 0,8.0547 4.6288,17.0468 16.762,17.0468 15.5466,0 31.8643,-15.9338 31.8643,-32.4241 0,-11.0716 -7.481,-17.2518 -16.7621,-17.2518 -14.5176,0 -31.8642,15.3773 -31.8642,32.6291"
     id="path178"
     style="stroke-width:1.67473" />
  <path
     class="Note"
     d="m 927.513,1107.5439 c 0,8.0547 4.6289,17.0468 16.762,17.0468 15.5466,0 31.8644,-15.9338 31.8644,-32.4241 0,-11.0716 -7.481,-17.2518 -16.7621,-17.2518 -14.5177,0 -31.8643,15.3773 -31.8643,32.6291"
     id="path180"
     style="stroke-width:1.67473" />
  <path
     class="Note"
     d="m 1105.0383,1037.2479 c 0,8.0548 4.6288,17.0469 16.762,17.0469 15.5465,0 31.8643,-15.9339 31.8643,-32.4241 0,-11.0717 -7.4809,-17.2518 -16.762,-17.2518 -14.5177,0 -31.8643,15.3772 -31.8643,32.629"
     id="path182"
     style="stroke-width:1.67473" />
  <path
     class="Note"
     d="m 3395.1762,1037.2479 c 0,8.0548 4.6289,17.0469 16.7621,17.0469 15.5465,0 31.8642,-15.9339 31.8642,-32.4241 0,-11.0717 -7.4809,-17.2518 -16.762,-17.2518 -14.5176,0 -31.8643,15.3772 -31.8643,32.629"
     id="path184"
     style="stroke-width:1.67473" />
  <path
     class="Note"
     d="m 2862.5944,1224.7058 c 0,8.0547 4.6289,17.0468 16.7621,17.0468 15.5465,0 31.8642,-15.9338 31.8642,-32.4241 0,-11.0716 -7.4809,-17.2518 -16.762,-17.2518 -14.5176,0 -31.8643,15.3772 -31.8643,32.6291"
     id="path186"
     style="stroke-width:1.67473" />
  <path
     class="Note"
     d="m 2605.1645,1154.4079 c 0,8.0547 4.6289,17.0468 16.7621,17.0468 15.5465,0 31.8643,-15.9338 31.8643,-32.4241 0,-11.0716 -7.481,-17.2518 -16.7621,-17.2518 -14.5176,0 -31.8643,15.3772 -31.8643,32.6291"
     id="path188"
     style="stroke-width:1.67473" />
  <path
     class="Note"
     d="m 3572.6985,1107.5439 c 0,8.0547 4.6288,17.0468 16.762,17.0468 15.5466,0 31.8643,-15.9338 31.8643,-32.4241 0,-11.0716 -7.481,-17.2518 -16.7621,-17.2518 -14.5176,0 -31.8642,15.3773 -31.8642,32.6291"
     id="path190"
     style="stroke-width:1.67473" />
  <path
     class="Note"
     d="m 1282.5711,1107.5439 c 0,8.0547 4.6288,17.0468 16.762,17.0468 15.5466,0 31.8643,-15.9338 31.8643,-32.4241 0,-11.0716 -7.481,-17.2518 -16.7621,-17.2518 -14.5176,0 -31.8642,15.3773 -31.8642,32.6291"
     id="path192"
     style="stroke-width:1.67473" />
  <path
     class="Note"
     d="m 3750.2358,1154.4079 c 0,8.0547 4.6288,17.0468 16.762,17.0468 15.5466,0 31.8643,-15.9338 31.8643,-32.4241 0,-11.0716 -7.481,-17.2518 -16.7621,-17.2518 -14.5176,0 -31.8642,15.3772 -31.8642,32.6291"
     id="path194"
     style="stroke-width:1.67473" />
  <path
     class="Note"
     d="m 2427.6272,1107.5439 c 0,8.0547 4.6289,17.0468 16.7621,17.0468 15.5465,0 31.8642,-15.9338 31.8642,-32.4241 0,-11.0716 -7.4809,-17.2518 -16.762,-17.2518 -14.5176,0 -31.8643,15.3773 -31.8643,32.6291"
     id="path196"
     style="stroke-width:1.67473" />
  <path
     class="Note"
     d="m 2250.105,1037.2479 c 0,8.0548 4.6288,17.0469 16.762,17.0469 15.5466,0 31.8643,-15.9339 31.8643,-32.4241 0,-11.0717 -7.481,-17.2518 -16.7621,-17.2518 -14.5176,0 -31.8642,15.3772 -31.8642,32.629"
     id="path198"
     style="stroke-width:1.67473" />
  <path
     class="Note"
     d="m 1460.0933,1154.4079 c 0,8.0547 4.6289,17.0468 16.7621,17.0468 15.5465,0 31.8642,-15.9338 31.8642,-32.4241 0,-11.0716 -7.481,-17.2518 -16.762,-17.2518 -14.5176,0 -31.8643,15.3772 -31.8643,32.6291"
     id="path200"
     style="stroke-width:1.67473" />
  <path
     class="Note"
     d="m 2072.5827,1107.5439 c 0,8.0547 4.6289,17.0468 16.7621,17.0468 15.5465,0 31.8643,-15.9338 31.8643,-32.4241 0,-11.0716 -7.481,-17.2518 -16.7621,-17.2518 -14.5176,0 -31.8643,15.3773 -31.8643,32.6291"
     id="path202"
     style="stroke-width:1.67473" />
  <path
     class="Note"
     d="m 1895.0605,1154.4079 c 0,8.0547 4.6289,17.0468 16.7621,17.0468 15.5465,0 31.8642,-15.9338 31.8642,-32.4241 0,-11.0716 -7.481,-17.2518 -16.762,-17.2518 -14.5176,0 -31.8643,15.3772 -31.8643,32.6291"
     id="path204"
     style="stroke-width:1.67473" />
  <path
     class="Note"
     d="m 1717.5232,1295.0017 c 0,8.0548 4.6288,17.0469 16.762,17.0469 15.5466,0 31.8643,-15.9338 31.8643,-32.4241 0,-11.0717 -7.481,-17.2518 -16.7621,-17.2518 -14.5176,0 -31.8642,15.3772 -31.8642,32.629"
     id="path206"
     style="stroke-width:1.67473" />
  <path
     class="Clef"
     d="m 176.73959,2569.7041 c 0,-6.9416 -5.07301,-9.9292 -10.00582,-9.9292 -6.28866,0 -12.43713,4.8622 -12.43713,13.2977 0,3.5734 1.05199,6.2095 3.15608,8.8163 -3.90417,1.8745 -7.785,5.6237 -7.785,11.4524 0,6.1802 4.48858,10.31 11.08128,10.31 8.06539,0 13.7463,-5.6236 13.7463,-13.7077 0,-4.3056 -1.49621,-7.8497 -4.18472,-10.31 4.34839,-2.4311 6.42901,-5.4187 6.42901,-9.9295 m -14.96196,29.9931 c -3.27294,0 -5.51723,-2.6068 -5.51723,-6.561 0,-3.7491 1.33252,-6.7367 3.88069,-8.6112 0.60791,0.3808 0.7481,0.3808 1.19231,0.7322 1.80008,1.1423 1.80008,1.1423 2.1041,1.5231 2.82871,2.0503 4.04437,3.9249 4.04437,6.561 0,3.5441 -2.40798,6.3559 -5.70424,6.3559 m 5.70424,-22.4947 c -2.24429,-1.4938 -2.85219,-1.8748 -3.29627,-2.2553 l -0.30402,-0.1758 c -2.24429,-1.6988 -2.99239,-3.0169 -2.99239,-5.2429 0,-3.3976 2.1041,-5.8287 5.09649,-5.8287 2.82871,0 4.62877,2.2551 4.62877,6.1802 0,3.0169 -0.88829,5.0672 -3.13258,7.3225 m 41.72979,-142.291 c 0,-28.2941 -16.01392,-47.4205 -37.84911,-47.4205 -1.49619,-11.2473 -2.85205,-22.3191 -4.18455,-32.8048 15.71006,-20.8253 26.76784,-44.4329 26.76784,-74.0453 0,-17.076 -4.18472,-30.9302 -6.73289,-37.6954 -3.5768,-9.5491 -7.9252,-16.1101 -10.47336,-16.1101 -1.02864,0 -5.8211,2.2552 -10.61372,9.5491 -9.72528,14.2635 -12.41363,38.047 -12.41363,53.805 0,10.1343 0.7481,19.3021 3.29626,40.508 -0.16368,0 -7.94854,9.9293 -11.08127,13.2979 -13.6293,15.7578 -32.47209,38.604 -32.47209,75.9196 0,35.2361 24.38335,62.798 52.22665,62.798 4.32491,0 8.36928,-0.5567 11.96957,-1.3181 2.68837,17.8376 4.4886,31.1351 4.4886,41.0644 0,19.5073 -8.08889,29.8174 -23.19104,29.8174 -3.60029,0 -6.73288,-0.9373 -7.03691,-1.1423 -0.14012,0 -0.44406,-0.1757 -0.44406,-0.3515 0,-0.3808 0.30387,-0.5858 0.74809,-0.7617 7.03676,-1.3179 14.05017,-8.9919 14.05017,-20.7957 0,-10.1345 -6.12512,-20.8254 -17.34659,-20.8254 -10.47337,0 -17.0659,10.6909 -17.0659,23.0514 0,12.3897 7.48097,28.7042 27.67962,28.7042 19.3102,0 28.73159,-13.7077 28.73159,-37.6964 0,-7.293 -0.88829,-15.7285 -2.38448,-26.4194 -0.44423,-3.7491 -1.19233,-9.5778 -2.2443,-16.6955 14.65793,-6.1802 25.57551,-25.1306 25.57551,-44.4329 m -46.07818,-153.7141 c 1.4962,-7.4982 8.22907,-27.1811 16.01408,-27.1811 2.2443,0 5.98479,8.9921 5.98479,22.114 0,19.3021 -11.6657,33.9471 -21.99887,46.864 -0.88829,-7.4983 -1.63639,-14.9965 -1.63639,-22.6705 0,-7.1175 0.58441,-13.3269 1.63639,-19.1264 m 4.48858,193.8414 c -21.39081,0 -39.64914,-18.7456 -39.64914,-47.069 0,-22.8464 12.85796,-43.2906 26.04319,-57.7306 2.52483,-2.6363 4.93281,-5.2429 7.1771,-8.0547 1.33252,10.1048 2.38448,18.7456 3.43647,26.6246 -13.62931,4.8621 -22.88701,23.0512 -22.88701,40.4787 0,13.327 8.22907,31.311 20.19864,31.311 1.19217,0 2.54817,-0.7613 2.54817,-2.6359 0,-1.494 -1.356,-2.607 -3.29627,-4.1008 -5.84458,-4.3349 -9.14086,-9.3728 -9.14086,-18.3941 0,-11.4231 6.89657,-20.6203 15.56971,-23.2269 l 8.6733,61.4797 c -2.99239,0.7617 -5.68091,1.318 -8.6733,1.318 m 14.96196,-3.5734 c -3.13258,-22.2897 -7.17695,-52.1069 -8.22907,-60.3668 15.1023,0 21.55464,13.1221 22.88716,22.1434 0.16368,1.4938 0.44421,3.5441 0.44421,5.7994 0,13.5027 -4.48858,27.0056 -15.1023,32.424"
     id="path208"
     style="stroke-width:1.67473" />
  <path
     class="Clef"
     d="m 363.76538,1280.9407 c 0,-6.9417 -5.07301,-9.9291 -10.00582,-9.9291 -6.28866,0 -12.43713,4.862 -12.43713,13.2975 0,3.5735 1.05198,6.2095 3.15608,8.8163 -3.90417,1.8745 -7.785,5.6237 -7.785,11.4524 0,6.1803 4.48858,10.3101 11.08128,10.3101 8.06539,0 13.7463,-5.6237 13.7463,-13.7077 0,-4.3057 -1.49621,-7.8497 -4.18472,-10.3101 4.34839,-2.4311 6.42901,-5.4186 6.42901,-9.9294 m -14.96196,29.993 c -3.27294,0 -5.51723,-2.6068 -5.51723,-6.561 0,-3.7491 1.33252,-6.7366 3.88069,-8.6111 0.60791,0.3807 0.7481,0.3807 1.19231,0.7322 1.80008,1.1423 1.80008,1.1423 2.1041,1.523 2.82871,2.0504 4.04437,3.925 4.04437,6.561 0,3.5441 -2.40798,6.3559 -5.70424,6.3559 m 5.70424,-22.4947 c -2.24429,-1.4937 -2.8522,-1.8746 -3.29627,-2.2553 l -0.30402,-0.1756 c -2.24429,-1.6989 -2.99239,-3.0169 -2.99239,-5.2429 0,-3.3977 2.1041,-5.8288 5.09649,-5.8288 2.82871,0 4.62877,2.2553 4.62877,6.1803 0,3.0169 -0.88829,5.0671 -3.13258,7.3224 m 41.72979,-142.2909 c 0,-28.2942 -16.01392,-47.4206 -37.84911,-47.4206 -1.4962,-11.2473 -2.85205,-22.3191 -4.18455,-32.8048 15.71006,-20.8252 26.76784,-44.4329 26.76784,-74.04519 0,-17.07614 -4.18472,-30.93027 -6.73289,-37.69556 -3.5768,-9.54901 -7.9252,-16.10999 -10.47336,-16.10999 -1.02864,0 -5.8211,2.2551 -10.61372,9.54903 -9.72528,14.26353 -12.41363,38.04702 -12.41363,53.80501 0,10.1344 0.74809,19.3022 3.29626,40.5081 -0.16368,0 -7.94854,9.9294 -11.08127,13.2978 -13.6293,15.7579 -32.47209,38.6042 -32.47209,75.9197 0,35.236 24.38335,62.7978 52.22665,62.7978 4.32491,0 8.36928,-0.5565 11.96957,-1.318 2.68837,17.8376 4.4886,31.1352 4.4886,41.0646 0,19.5072 -8.08889,29.8173 -23.19104,29.8173 -3.6003,0 -6.73288,-0.9373 -7.03691,-1.1424 -0.14027,0 -0.44406,-0.1757 -0.44406,-0.3514 0,-0.3808 0.30387,-0.5858 0.74809,-0.7617 7.03676,-1.318 14.05017,-8.9919 14.05017,-20.7958 0,-10.1344 -6.12512,-20.8252 -17.34659,-20.8252 -10.47338,0 -17.06591,10.6908 -17.06591,23.0512 0,12.3898 7.48098,28.7043 27.67963,28.7043 19.31019,0 28.73159,-13.7078 28.73159,-37.6963 0,-7.2932 -0.88829,-15.7287 -2.38449,-26.4196 -0.44422,-3.7491 -1.19232,-9.5778 -2.24429,-16.6954 14.65792,-6.1802 25.57551,-25.1307 25.57551,-44.4329 M 350.15927,992.43415 c 1.49619,-7.49823 8.22907,-27.18113 16.01407,-27.18113 2.24431,0 5.9848,8.9919 5.9848,22.11383 0,19.30225 -11.6657,33.94725 -21.99887,46.86405 -0.88829,-7.4982 -1.63639,-14.9965 -1.63639,-22.6704 0,-7.1175 0.58441,-13.32704 1.63639,-19.12635 m 4.48858,193.84135 c -21.39081,0 -39.64914,-18.7456 -39.64914,-47.069 0,-22.8464 12.85796,-43.2907 26.04319,-57.7306 2.52482,-2.6362 4.93281,-5.243 7.1771,-8.0548 1.33252,10.105 2.38448,18.7456 3.43646,26.6245 -13.6293,4.8623 -22.887,23.0513 -22.887,40.4789 0,13.327 8.22907,31.311 20.19864,31.311 1.19217,0 2.54817,-0.7614 2.54817,-2.636 0,-1.4938 -1.356,-2.6069 -3.29627,-4.1007 -5.84459,-4.3349 -9.14086,-9.3728 -9.14086,-18.3941 0,-11.4231 6.89657,-20.6203 15.56971,-23.227 l 8.6733,61.4798 c -2.99239,0.7616 -5.68091,1.318 -8.6733,1.318 m 14.96196,-3.5733 c -3.13258,-22.2898 -7.17695,-52.107 -8.22907,-60.3669 15.1023,0 21.55464,13.122 22.88716,22.1434 0.16367,1.4937 0.44421,3.544 0.44421,5.7994 0,13.5027 -4.48858,27.0055 -15.1023,32.4241"
     id="path210"
     style="stroke-width:1.67473" />
  <path
     class="TimeSig"
     d="m 472.68278,1044.7461 c -9.1407,0 -12.41363,3.3684 -14.51774,6.1802 -0.44422,-3.9248 -0.7481,-6.9417 -0.7481,-9.9293 0,-3.0169 0.30388,-5.6237 0.7481,-8.9921 0.88845,-6.9417 4.62894,-15.5823 12.71766,-15.5823 3.7405,0 5.9848,1.5231 7.48099,3.5735 -3.13258,1.6987 -5.68091,6.7366 -5.68091,11.0715 0,6.7368 4.18472,11.9797 9.58509,11.9797 5.37687,0 9.72526,-5.2429 9.72526,-11.9797 v -0.3807 c 0,0 0,0 0,-0.2051 0,-1.6695 -0.30387,-4.4813 -0.91177,-5.9752 -1.94043,-6.7658 -8.22909,-16.6952 -23.19104,-16.6952 -13.46577,0 -23.19103,16.1094 -26.18343,24.75 -1.4962,4.4815 -3.74049,13.6785 -3.74049,24.1643 0,11.4525 2.54822,24.3694 11.36174,34.123 8.6967,8.2597 14.21394,8.6406 19.45062,8.6406 5.26002,0 24.85076,-7.7033 24.85076,-29.4366 0,-18.3648 -11.52534,-25.3066 -20.94674,-25.3066 m -5.54056,46.864 c -4.93281,0 -8.97718,-8.4355 -8.97718,-18.9505 0,-10.4859 4.04437,-19.0972 8.97718,-19.0972 4.93281,0 9.14086,8.6113 9.14086,19.0972 0,10.515 -4.20805,18.9505 -9.14086,18.9505"
     id="path212"
     style="stroke-width:1.67473" />
  <path
     class="TimeSig"
     d="m 462.65443,1170.3416 v 13.8543 h -12.41379 c -1.05197,0 -2.10395,1.1422 -2.10395,2.636 v 3.5735 c 0,1.4937 1.05198,2.6068 2.10395,2.6068 h 45.3301 c 1.21566,0 2.10395,-1.1131 2.10395,-2.6068 v -3.5735 c 0,-1.4938 -0.88829,-2.636 -2.10395,-2.636 h -13.46576 v -13.8543 h 13.46576 c 1.21566,0 2.10395,-1.318 2.10395,-2.8118 v -3.5734 c 0,-1.318 -0.88829,-2.6068 -2.10395,-2.6068 h -13.46576 v -29.8172 c 0,-1.1131 -0.44423,-2.0503 -1.02864,-2.4311 l -1.80008,-1.1423 c -0.30402,-0.1758 -0.44421,-0.1758 -0.74809,-0.1758 -0.16368,0 -0.16368,0 -0.30402,0 -0.44408,0 -1.05199,0.1758 -1.35585,0.5566 l -13.60611,15.553 c -0.44408,0.5858 -0.60776,1.318 -0.60776,2.0796 v 15.3772 h -17.34656 c 0,0 16.76214,-22.4947 34.41247,-52.1363 0.6079,-0.9373 0.7481,-1.8746 0.7481,-2.6068 0,-0.9373 -0.30389,-1.6987 -0.44408,-1.8746 l -3.29641,-4.1298 c -0.44408,-0.3807 -0.8883,-0.7616 -1.49621,-0.7616 -0.88829,0 -21.11027,0 -22.30258,0 -1.05198,0 -1.80008,1.1423 -1.94042,2.2554 0,0 -0.7481,13.8834 -4.62886,29.0557 -3.90413,15.2015 -8.39271,24.5743 -12.27346,31.4868 0,0 -0.4442,0.9373 -0.4442,2.0796 0,0.3807 0,0.7323 0.14027,1.113 0.44419,1.318 1.49619,3.3684 1.49619,3.3684 0,0 0.30393,1.1422 1.63646,1.1422 h 25.73929"
     id="path214"
     style="stroke-width:1.67473" />
  <path
     class="Fingering"
     d="m 539.21742,1330.6665 c -8.4372,0 -14.58789,11.4855 -14.58789,27.372 0,15.5596 5.96215,26.9562 14.09318,26.9562 8.45984,0 14.37523,-11.013 14.37523,-26.7502 0,-8.0009 -1.34235,-14.645 -3.86416,-19.8719 -2.35741,-4.7525 -6.22157,-7.7061 -10.01636,-7.7061 m -0.42382,3.2484 c 1.97884,0 3.91243,1.6535 5.37243,4.6939 1.62741,3.5432 2.16887,7.8554 2.16887,18.2184 0,10.6597 -0.42382,15.6484 -1.6259,18.9554 -1.39062,3.7207 -3.55949,5.9657 -5.84451,5.9657 -2.05123,0 -3.93656,-1.6535 -5.37393,-4.6656 -1.69679,-3.5734 -2.16737,-8.239 -2.16737,-20.6391 0,-8.8588 0.42382,-13.2277 1.6259,-16.5649 1.39062,-3.7793 3.55799,-5.9638 5.84451,-5.9638"
     id="path216"
     style="stroke-width:1.68823" />
  <path
     class="Fingering"
     d="m 1919.9619,2233.8527 -10.9802,1.1338 -0.196,2.7401 h 1.463 c 2.4132,0 3.3785,0.6802 3.3785,2.381 0,0.6802 -0.1961,1.8329 -0.4977,3.288 l -6.1537,25.9831 h 5.2638 l 2.4735,-10.6578 c 2.6998,-11.5837 8.1899,-20.3141 12.7147,-20.3141 1.5836,0 2.5489,1.0394 2.5489,2.929 0,1.5307 -0.4977,4.6864 -1.2217,7.5588 l -4.8113,20.4841 h 5.2336 l 2.5943,-10.9602 c 1.5082,-6.2926 3.0165,-10.5066 4.9471,-13.7568 2.1718,-3.7794 5.2487,-6.2549 7.5413,-6.2549 1.5082,0 2.3528,0.9638 2.3528,2.7779 0,1.0582 -0.3016,2.7022 -0.8446,4.8375 l -2.7752,10.7523 c -1.6289,5.8769 -1.6742,6.3493 -1.6742,8.4469 0,3.1746 1.8552,5.2722 4.6907,5.2722 1.9909,0 3.9366,-1.2094 5.9878,-3.5904 1.267,-1.5496 2.0965,-2.8912 4.5701,-7.4265 l -1.8703,-1.5873 c -3.1372,5.9147 -5.3694,8.7681 -6.9229,8.7681 -0.6636,0 -1.282,-0.8314 -1.282,-1.8897 0,-0.6802 0.1961,-1.5117 0.739,-3.7226 l 3.7858,-14.645 c 0.4374,-1.644 0.739,-4.0061 0.739,-5.669 0,-4.0062 -2.3529,-6.8785 -5.6107,-6.8785 -4.2835,0 -8.1597,3.4959 -11.6438,10.6578 0.2413,-1.4361 0.362,-2.7022 0.362,-3.6282 0,-4.0061 -2.549,-7.0296 -5.8521,-7.0296 -3.8159,0 -6.576,2.6645 -10.8142,10.2232 l 1.7647,-10.2232"
     id="path218"
     style="stroke-width:1.68823" />
  <path
     class="Fingering"
     d="m 2506.5696,2215.4095 c -1.825,0 -3.2579,1.833 -3.2579,4.1006 0,2.1731 1.4329,4.0628 3.2126,4.0628 1.8552,0 3.288,-1.8141 3.288,-4.0628 0,-2.2676 -1.4328,-4.1006 -3.2427,-4.1006 m 1.0859,18.4432 -11.5834,1.1338 -0.2263,2.7401 h 1.4329 c 2.4735,0 3.4388,0.6802 3.4388,2.3243 0,0.7369 -0.1206,1.6062 -0.543,3.3447 l -3.5142,14.7395 c -1.1312,4.7998 -1.3122,5.8769 -1.3122,7.6154 0,2.6455 1.8099,4.6864 4.1025,4.6864 5.1884,0 8.7479,-6.7273 11.2818,-11.6215 l -1.8854,-1.3039 c -3.1371,5.9525 -5.6559,9.146 -7.2849,9.146 -0.6033,0 -1.0256,-0.6803 -1.0256,-1.5873 0,-0.737 0.2263,-2.1353 0.724,-4.2329 l 6.395,-26.9846"
     id="path220"
     style="stroke-width:1.68823" />
  <path
     class="Fingering"
     d="m 1426.8512,1119.7786 c -8.4462,0 -14.5848,11.4855 -14.5848,27.372 0,15.5596 5.9576,26.9562 14.0871,26.9562 8.4614,0 14.3737,-11.013 14.3737,-26.7503 0,-8.0009 -1.3423,-14.645 -3.8611,-19.8718 -2.3529,-4.7525 -6.2291,-7.7061 -10.0149,-7.7061 m -0.4223,3.2483 c 1.9759,0 3.9064,1.6535 5.3694,4.694 1.629,3.5432 2.1719,7.8554 2.1719,18.2184 0,10.6596 -0.4374,15.6484 -1.6289,18.9553 -1.3876,3.7208 -3.5595,5.9639 -5.852,5.9639 -2.0513,0 -3.9366,-1.6535 -5.3694,-4.6638 -1.6893,-3.5734 -2.1719,-8.239 -2.1719,-20.639 0,-8.8588 0.4223,-13.2278 1.6289,-16.5649 1.3876,-3.7794 3.5595,-5.9639 5.852,-5.9639"
     id="path222"
     style="stroke-width:1.68823" />
  <path
     class="Fingering"
     d="m 1492.4455,946.2174 -1.644,6.82173 c -0.4072,-4.69584 -3.4238,-7.9442 -7.3452,-7.9442 -9.1099,0 -14.8262,14.35021 -14.8262,24.32959 0,7.41131 3.5595,12.31314 8.8987,12.31314 3.8159,0 6.1537,-1.88968 9.1702,-7.3225 -0.2262,1.15081 -0.2866,1.65347 -0.2866,2.42067 0,2.95357 1.5083,4.90183 3.6802,4.90183 4.8264,0 8.2049,-6.88032 10.0149,-11.78025 l -1.8854,-1.26986 c -2.2774,5.81642 -4.4041,8.91738 -5.9576,8.91738 -0.739,0 -1.2669,-0.85791 -1.2669,-1.88967 0,-0.85792 0.2262,-2.12589 0.6485,-4.10438 l 6.0331,-25.39348 h -5.2337 m -7.9636,3.04238 c 2.8355,0 4.57,2.47926 4.57,6.73103 0,4.37082 -1.1915,10.33464 -3.0618,15.08718 -1.8853,4.69585 -4.0421,6.82173 -7.0586,6.82173 -3.0165,0 -4.8415,-2.80617 -4.8415,-7.41131 0,-6.7915 3.3935,-21.22863 10.3919,-21.22863"
     id="path224"
     style="stroke-width:1.68823" />
  <path
     class="Fingering"
     d="m 3730.0854,2215.4095 c -1.8099,0 -3.2578,1.833 -3.2578,4.1006 0,2.1731 1.4479,4.0628 3.2126,4.0628 1.8551,0 3.3031,-1.8141 3.3031,-4.0628 0,-2.2676 -1.448,-4.1006 -3.2579,-4.1006 m 1.086,18.4432 -11.5684,1.1338 -0.2413,2.7401 h 1.4328 c 2.4736,0 3.4389,0.6802 3.4389,2.3243 0,0.7369 -0.1056,1.6062 -0.543,3.3447 l -3.4992,14.7395 c -1.1312,4.7998 -1.3272,5.8769 -1.3272,7.6154 0,2.6455 1.8099,4.6864 4.1024,4.6864 5.1885,0 8.7479,-6.7273 11.2818,-11.6215 l -1.8853,-1.3039 c -3.1221,5.9525 -5.656,9.146 -7.2698,9.146 -0.6184,0 -1.0407,-0.6803 -1.0407,-1.5873 0,-0.737 0.2413,-2.1353 0.7239,-4.2329 l 6.3951,-26.9846"
     id="path226"
     style="stroke-width:1.68823" />
  <path
     class="Fingering"
     d="m 598.81181,929.97752 -10.98165,1.12246 -0.23529,2.74571 h 1.43738 c 2.47505,0 3.44034,0.68028 3.44034,2.33375 0,0.73697 -0.1644,1.80086 -0.54147,3.33528 l -7.7057,32.77455 c -1.22622,5.46306 -1.27297,5.52164 -5.37393,5.75785 l -0.25942,2.71546 h 14.49438 l 0.23529,-2.71546 h -0.73151 c -2.89737,0 -3.86416,-0.44219 -3.86416,-1.97849 0,-0.58958 0.25942,-1.88968 0.68324,-3.77936 l 2.94563,-12.31313 c 1.62591,5.22684 3.20506,6.6441 7.18837,6.6441 9.75694,0 15.67083,-13.28632 15.67083,-24.32959 0,-3.69054 -0.58822,-6.20003 -1.97884,-8.3845 -1.57915,-2.42256 -3.98332,-3.92863 -6.33922,-3.92863 -3.08741,0 -6.26833,2.27517 -8.97867,6.43813 l 0.8944,-6.43813 m 6.22157,4.01556 c 2.71034,0 4.52478,2.62854 4.52478,6.6441 0,4.16296 -1.03617,9.30099 -2.85061,13.96661 -2.09799,5.66903 -4.52478,8.2371 -7.70721,8.2371 -2.96826,0 -5.06625,-2.92333 -5.06625,-6.9389 0,-6.79149 4.26536,-21.90891 11.09929,-21.90891"
     id="path228"
     style="stroke-width:1.68823" />
  <path
     class="Fingering"
     d="m 1249.3215,1072.9146 c -8.4372,0 -14.5879,11.4855 -14.5879,27.372 0,15.5596 5.9621,26.9562 14.0932,26.9562 8.4598,0 14.3752,-11.013 14.3752,-26.7502 0,-8.0009 -1.3424,-14.645 -3.8642,-19.8719 -2.3574,-4.7525 -6.2215,-7.7061 -10.0163,-7.7061 m -0.4239,3.2484 c 1.9789,0 3.9125,1.6534 5.3725,4.6939 1.6259,3.5432 2.1688,7.8554 2.1688,18.2184 0,10.6597 -0.4238,15.6484 -1.6259,18.9553 -1.3906,3.7208 -3.5595,5.9639 -5.8445,5.9639 -2.0512,0 -3.9365,-1.6535 -5.3739,-4.6638 -1.6968,-3.5733 -2.1674,-8.239 -2.1674,-20.639 0,-8.8588 0.4239,-13.2277 1.6259,-16.5649 1.3907,-3.7794 3.558,-5.9638 5.8445,-5.9638"
     id="path230"
     style="stroke-width:1.68823" />
  <path
     class="Fingering"
     d="m 1295.1047,945.09493 -10.9801,1.12247 -0.1961,2.7457 h 1.463 c 2.4132,0 3.3785,0.68028 3.3785,2.39233 0,0.6784 -0.1961,1.8311 -0.4977,3.2767 l -6.1537,25.98306 h 5.2638 l 2.4736,-10.65778 c 2.6997,-11.57427 8.1898,-20.31403 12.7146,-20.31403 1.5837,0 2.549,1.03366 2.549,2.92333 0,1.53442 -0.4978,4.69396 -1.2217,7.55871 l -4.8114,20.48977 h 5.2337 l 2.5942,-10.95446 c 1.5082,-6.28884 3.0165,-10.51038 4.9471,-13.75874 2.1719,-3.77935 5.2487,-6.25861 7.5413,-6.25861 1.5082,0 2.3529,0.97319 2.3529,2.77405 0,1.06389 -0.3017,2.71736 -0.8447,4.84324 l -2.7752,10.74659 c -1.6289,5.8769 -1.6741,6.34932 -1.6741,8.44497 0,3.18977 1.8551,5.28543 4.6907,5.28543 1.9909,0 3.9365,-1.21129 5.9878,-3.60173 1.2669,-1.53631 2.0964,-2.89309 4.57,-7.41131 l -1.8703,-1.59489 c -3.1371,5.90524 -5.3694,8.76999 -6.9229,8.76999 -0.6636,0 -1.282,-0.82768 -1.282,-1.88967 0,-0.68029 0.1961,-1.50608 0.7391,-3.72078 l 3.7857,-14.64499 c 0.4374,-1.65347 0.739,-4.01557 0.739,-5.66903 0,-4.01557 -2.3528,-6.88032 -5.6107,-6.88032 -4.2835,0 -8.1597,3.48457 -11.6438,10.65967 0.2414,-1.44749 0.362,-2.71547 0.362,-3.63196 0,-4.01556 -2.5489,-7.02771 -5.852,-7.02771 -3.8159,0 -6.576,2.65878 -10.8143,10.21748 l 1.7647,-10.21748"
     id="path232"
     style="stroke-width:1.68823" />
  <path
     class="Fingering"
     d="m 940.0542,945.09493 -10.9816,1.12247 -0.1886,2.7457 h 1.4615 c 2.4027,0 3.3695,0.68028 3.3695,2.39233 0,0.6784 -0.1886,1.8311 -0.4947,3.2767 l -6.1507,25.98306 h 5.2548 l 2.475,-10.65778 c 2.7104,-11.57427 8.2004,-20.31403 12.7252,-20.31403 1.5792,0 2.546,1.03366 2.546,2.92333 0,1.53442 -0.4948,4.69396 -1.2263,7.55871 l -4.8068,20.48977 h 5.2307 l 2.5927,-10.95446 c 1.5082,-6.28884 3.0165,-10.51038 4.9486,-13.75874 2.1688,-3.77935 5.2562,-6.25861 7.5413,-6.25861 1.5082,0 2.3574,0.97319 2.3574,2.77405 0,1.06389 -0.3062,2.71736 -0.8492,4.84324 l -2.7797,10.74659 c -1.6259,5.8769 -1.6742,6.34932 -1.6742,8.44497 0,3.18977 1.8627,5.28543 4.6907,5.28543 2.003,0 3.9351,-1.21129 5.9848,-3.60173 1.273,-1.53631 2.098,-2.89309 4.573,-7.41131 l -1.8627,-1.59489 c -3.1341,5.90524 -5.3724,8.76999 -6.9274,8.76999 -0.6606,0 -1.273,-0.82768 -1.273,-1.88967 0,-0.68029 0.1886,-1.50608 0.73,-3.72078 l 3.7948,-14.64499 c 0.4238,-1.65347 0.73,-4.01557 0.73,-5.66903 0,-4.01557 -2.3559,-6.88032 -5.6092,-6.88032 -4.288,0 -8.1537,3.48457 -11.6408,10.65967 0.2353,-1.44749 0.353,-2.71547 0.353,-3.63196 0,-4.01556 -2.5445,-7.02771 -5.8445,-7.02771 -3.8174,0 -6.5745,2.65878 -10.8173,10.21748 l 1.7677,-10.21748"
     id="path234"
     style="stroke-width:1.68823" />
  <path
     class="Fingering"
     d="m 3524.6905,2233.8527 -10.9952,1.1338 -0.181,2.7401 h 1.463 c 2.3982,0 3.3635,0.6802 3.3635,2.381 0,0.6802 -0.181,1.8329 -0.4978,3.288 l -6.1386,25.9831 h 5.2488 l 2.4735,-10.6578 c 2.7149,-11.5837 8.2049,-20.3141 12.7297,-20.3141 1.5837,0 2.549,1.0394 2.549,2.929 0,1.5307 -0.4977,4.6864 -1.2368,7.5588 l -4.7963,20.4841 h 5.2186 l 2.5942,-10.9602 c 1.5083,-6.2926 3.0165,-10.5066 4.9471,-13.7568 2.1719,-3.7794 5.2639,-6.2549 7.5413,-6.2549 1.5083,0 2.368,0.9638 2.368,2.7779 0,1.0582 -0.3167,2.7022 -0.8597,4.8375 l -2.7752,10.7523 c -1.6289,5.8769 -1.6742,6.3493 -1.6742,8.4469 0,3.1746 1.8703,5.2722 4.6907,5.2722 2.006,0 3.9366,-1.2094 5.9878,-3.5904 1.2669,-1.5496 2.0965,-2.8912 4.57,-7.4265 l -1.8551,-1.5873 c -3.1372,5.9147 -5.3845,8.7681 -6.938,8.7681 -0.6486,0 -1.267,-0.8314 -1.267,-1.8897 0,-0.6802 0.181,-1.5117 0.724,-3.7226 l 3.8008,-14.645 c 0.4223,-1.644 0.724,-4.0061 0.724,-5.669 0,-4.0062 -2.3529,-6.8785 -5.6108,-6.8785 -4.2834,0 -8.1446,3.4959 -11.6286,10.6578 0.2262,-1.4361 0.3469,-2.7022 0.3469,-3.6282 0,-4.0061 -2.549,-7.0296 -5.837,-7.0296 -3.831,0 -6.576,2.6645 -10.8293,10.2232 l 1.7797,-10.2232"
     id="path236"
     style="stroke-width:1.68823" />
  <path
     class="Fingering"
     d="m 1071.7962,1002.6186 c -8.4372,0 -14.5879,11.4855 -14.5879,27.372 0,15.5596 5.9622,26.9562 14.0917,26.9562 8.4613,0 14.3767,-11.013 14.3767,-26.7502 0,-8.0009 -1.3438,-14.645 -3.8656,-19.8719 -2.3559,-4.7525 -6.2216,-7.7061 -10.0149,-7.7061 m -0.4253,3.2484 c 1.9803,0 3.9124,1.6534 5.3739,4.6939 1.6259,3.5432 2.1674,7.8554 2.1674,18.2184 0,10.6597 -0.4238,15.6484 -1.6259,18.9554 -1.3906,3.7207 -3.558,5.9638 -5.8445,5.9638 -2.0498,0 -3.9351,-1.6535 -5.3725,-4.6637 -1.6967,-3.5734 -2.1688,-8.239 -2.1688,-20.6391 0,-8.8588 0.4238,-13.2277 1.6259,-16.5649 1.3906,-3.7794 3.5595,-5.9638 5.8445,-5.9638"
     id="path238"
     style="stroke-width:1.68823" />
  <path
     class="Fingering"
     d="m 2776.0957,2218.7353 -10.9952,1.1338 -0.2263,2.74 h 1.4329 c 2.4735,0 3.4388,0.6803 3.4388,2.3244 0,0.7369 -0.1659,1.814 -0.543,3.3447 l -7.7072,32.767 c -1.2217,5.4611 -1.2669,5.5178 -5.3694,5.7635 l -0.2564,2.7211 h 14.4944 l 0.2413,-2.7211 h -0.739 c -2.8959,0 -3.8612,-0.4346 -3.8612,-1.9842 0,-0.5858 0.2564,-1.8896 0.6787,-3.7793 l 2.9411,-12.3018 c 1.629,5.2155 3.2126,6.6327 7.1945,6.6327 9.7584,0 15.6708,-13.2844 15.6708,-24.3201 0,-3.7038 -0.5882,-6.1981 -1.9758,-8.3902 -1.5837,-2.4187 -3.9819,-3.9305 -6.3347,-3.9305 -3.092,0 -6.2744,2.2865 -8.9893,6.4438 l 0.905,-6.4438 m 6.214,4.025 c 2.7149,0 4.5248,2.6267 4.5248,6.6328 0,4.1762 -1.0407,9.2972 -2.8506,13.9647 -2.0965,5.669 -4.5248,8.239 -7.7072,8.239 -2.9713,0 -5.0678,-2.9101 -5.0678,-6.9351 0,-6.784 4.2684,-21.9014 11.1008,-21.9014"
     id="path240"
     style="stroke-width:1.68823" />
  <path
     class="Fingering"
     d="m 777.32799,926.64224 c -1.81444,0 -3.25181,1.83109 -3.25181,4.10437 0,2.18447 1.43737,4.07415 3.20505,4.07415 1.8612,0 3.29857,-1.8311 3.29857,-4.07415 0,-2.27328 -1.43737,-4.10437 -3.25181,-4.10437 m 1.08444,18.45269 -11.57137,1.12247 -0.23529,2.7457 h 1.43737 c 2.47505,0 3.44034,0.68028 3.44034,2.33375 0,0.73698 -0.11764,1.593 -0.54146,3.33528 l -3.51123,14.73381 c -1.1312,4.81301 -1.31973,5.8769 -1.31973,7.61729 0,2.65877 1.81443,4.69585 4.09945,4.69585 5.1854,0 8.74338,-6.73292 11.28933,-11.63285 l -1.88533,-1.3001 c -3.13416,5.96382 -5.65597,9.15359 -7.28188,9.15359 -0.61386,0 -1.03768,-0.68028 -1.03768,-1.59488 0,-0.73887 0.23529,-2.12589 0.7315,-4.22154 l 6.38598,-26.98837"
     id="path242"
     style="stroke-width:1.68823" />
  <path
     class="Fingering"
     d="m 1137.3995,945.31035 -1.65,6.81985 c -0.3997,-4.69396 -3.4162,-7.94231 -7.3528,-7.94231 -9.0963,0 -14.8232,14.3502 -14.8232,24.32959 0,7.41131 3.5595,12.31313 8.9093,12.31313 3.8174,0 6.1507,-1.88968 9.1672,-7.3225 -0.2368,1.15082 -0.2835,1.65347 -0.2835,2.42068 0,2.95167 1.5082,4.90182 3.6771,4.90182 4.831,0 8.2004,-6.88031 10.0148,-11.78213 l -1.8853,-1.26987 c -2.285,5.81643 -4.4071,8.91739 -5.9621,8.91739 -0.73,0 -1.273,-0.85603 -1.273,-1.88968 0,-0.85602 0.2368,-2.12588 0.6606,-4.10438 l 6.0331,-25.39159 h -5.2322 m -7.9651,3.04049 c 2.828,0 4.5715,2.48115 4.5715,6.73292 0,4.36894 -1.2021,10.33276 -3.0633,15.08718 -1.8853,4.69396 -4.0542,6.81985 -7.0707,6.81985 -3.0165,0 -4.8309,-2.80428 -4.8309,-7.41131 0,-6.78961 3.3935,-21.22864 10.3934,-21.22864"
     id="path244"
     style="stroke-width:1.68823" />
  <path
     class="Fingering"
     d="m 3353.8951,2234.0795 -1.644,6.8028 c -0.3921,-4.6864 -3.4086,-7.9366 -7.3452,-7.9366 -9.1099,0 -14.8262,14.3615 -14.8262,24.339 0,7.4076 3.5595,12.3018 8.8987,12.3018 3.831,0 6.1537,-1.8897 9.1703,-7.313 -0.2263,1.1527 -0.2866,1.644 -0.2866,2.4188 0,2.9479 1.5083,4.8942 3.6801,4.8942 4.8416,0 8.205,-6.8784 10.0149,-11.7727 l -1.8853,-1.2661 c -2.2775,5.8014 -4.4041,8.9004 -5.9577,8.9004 -0.7239,0 -1.2669,-0.8503 -1.2669,-1.8897 0,-0.8503 0.2262,-2.1164 0.6486,-4.1006 l 6.033,-25.3783 h -5.2337 m -7.9636,3.0235 c 2.8355,0 4.57,2.4943 4.57,6.7461 0,4.3652 -1.1915,10.3366 -3.0617,15.0796 -1.8853,4.7053 -4.0422,6.8218 -7.0587,6.8218 -3.0165,0 -4.8415,-2.7967 -4.8415,-7.4076 0,-6.7839 3.3936,-21.2399 10.3919,-21.2399"
     id="path246"
     style="stroke-width:1.68823" />
  <path
     class="Fingering"
     d="m 716.74419,1119.7786 c -8.43721,0 -14.58789,11.4855 -14.58789,27.372 0,15.5596 5.96215,26.9562 14.09167,26.9562 8.46134,0 14.37674,-11.013 14.37674,-26.7503 0,-8.0009 -1.34386,-14.645 -3.86567,-19.8718 -2.35591,-4.7525 -6.22158,-7.7061 -10.01485,-7.7061 m -0.42533,3.2483 c 1.98035,0 3.91243,1.6535 5.37393,4.694 1.62591,3.5432 2.16737,7.8554 2.16737,18.2184 0,10.6596 -0.42382,15.6484 -1.6259,18.9553 -1.39062,3.7208 -3.55799,5.9639 -5.84451,5.9639 -2.04973,0 -3.93505,-1.6535 -5.37243,-4.6638 -1.69679,-3.5734 -2.16887,-8.239 -2.16887,-20.639 0,-8.8588 0.42382,-13.2278 1.6259,-16.5649 1.39062,-3.7794 3.5595,-5.9639 5.84451,-5.9639"
     id="path248"
     style="stroke-width:1.68823" />
  <path
     class="Fingering"
     d="m 3143.4777,2233.8527 -10.9801,1.1338 -0.181,2.7401 h 1.463 c 2.3982,0 3.3634,0.6802 3.3634,2.381 0,0.6802 -0.196,1.8329 -0.4977,3.288 l -6.1537,25.9831 h 5.2638 l 2.4736,-10.6578 c 2.7149,-11.5837 8.2049,-20.3141 12.7297,-20.3141 1.5686,0 2.5339,1.0394 2.5339,2.929 0,1.5307 -0.4827,4.6864 -1.2217,7.5588 l -4.8114,20.4841 h 5.2337 l 2.5942,-10.9602 c 1.5083,-6.2926 3.0165,-10.5066 4.9471,-13.7568 2.1719,-3.7794 5.2638,-6.2549 7.5413,-6.2549 1.5083,0 2.3529,0.9638 2.3529,2.7779 0,1.0582 -0.3017,2.7022 -0.8446,4.8375 l -2.7752,10.7523 c -1.6289,5.8769 -1.6742,6.3493 -1.6742,8.4469 0,3.1746 1.8552,5.2722 4.6907,5.2722 2.006,0 3.9366,-1.2094 5.9878,-3.5904 1.2669,-1.5496 2.0965,-2.8912 4.57,-7.4265 l -1.8702,-1.5873 c -3.1221,5.9147 -5.3694,8.7681 -6.9229,8.7681 -0.6637,0 -1.267,-0.8314 -1.267,-1.8897 0,-0.6802 0.181,-1.5117 0.724,-3.7226 l 3.8008,-14.645 c 0.4223,-1.644 0.724,-4.0061 0.724,-5.669 0,-4.0062 -2.3529,-6.8785 -5.6108,-6.8785 -4.2834,0 -8.1446,3.4959 -11.6437,10.6578 0.2413,-1.4361 0.3619,-2.7022 0.3619,-3.6282 0,-4.0061 -2.5489,-7.0296 -5.852,-7.0296 -3.8159,0 -6.576,2.6645 -10.8142,10.2232 l 1.7646,-10.2232"
     id="path250"
     style="stroke-width:1.68823" />
  <path
     class="Fingering"
     d="m 2967.6749,2215.4095 c -1.8099,0 -3.2427,1.833 -3.2427,4.1006 0,2.1731 1.4328,4.0628 3.1975,4.0628 1.8702,0 3.3031,-1.8141 3.3031,-4.0628 0,-2.2676 -1.4329,-4.1006 -3.2579,-4.1006 m 1.086,18.4432 -11.5684,1.1338 -0.2413,2.7401 h 1.4479 c 2.4736,0 3.4388,0.6802 3.4388,2.3243 0,0.7369 -0.1206,1.6062 -0.5429,3.3447 l -3.5143,14.7395 c -1.1312,4.7998 -1.3122,5.8769 -1.3122,7.6154 0,2.6455 1.81,4.6864 4.1025,4.6864 5.1733,0 8.7328,-6.7273 11.2818,-11.6215 l -1.8853,-1.3039 c -3.1372,5.9525 -5.656,9.146 -7.2849,9.146 -0.6033,0 -1.0407,-0.6803 -1.0407,-1.5873 0,-0.737 0.2413,-2.1353 0.739,-4.2329 l 6.38,-26.9846"
     id="path252"
     style="stroke-width:1.68823" />
  <path
     class="Fingering"
     d="m 894.2694,1072.9146 c -8.4372,0 -14.5878,11.4855 -14.5878,27.372 0,15.5596 5.9621,26.9562 14.0931,26.9562 8.4599,0 14.3753,-11.013 14.3753,-26.7502 0,-8.0009 -1.3424,-14.645 -3.8642,-19.8719 -2.3574,-4.7525 -6.2216,-7.7061 -10.0164,-7.7061 m -0.4238,3.2484 c 1.9789,0 3.9125,1.6534 5.3724,4.6939 1.626,3.5432 2.1689,7.8554 2.1689,18.2184 0,10.6597 -0.4238,15.6484 -1.6259,18.9553 -1.3906,3.7208 -3.5595,5.9639 -5.8445,5.9639 -2.0512,0 -3.9365,-1.6535 -5.3739,-4.6638 -1.6968,-3.5733 -2.1674,-8.239 -2.1674,-20.639 0,-8.8588 0.4238,-13.2277 1.6259,-16.5649 1.3906,-3.7794 3.558,-5.9638 5.8445,-5.9638"
     id="path254"
     style="stroke-width:1.68823" />
  <path
     class="Fingering"
     d="m 2301.1596,2233.8527 -10.9801,1.1338 -0.181,2.7401 h 1.463 c 2.3981,0 3.3634,0.6802 3.3634,2.381 0,0.6802 -0.181,1.8329 -0.4977,3.288 l -6.1537,25.9831 h 5.2638 l 2.4735,-10.6578 c 2.7149,-11.5837 8.205,-20.3141 12.7298,-20.3141 1.5686,0 2.5338,1.0394 2.5338,2.929 0,1.5307 -0.4826,4.6864 -1.2216,7.5588 l -4.8114,20.4841 h 5.2337 l 2.5942,-10.9602 c 1.5082,-6.2926 3.0165,-10.5066 4.9471,-13.7568 2.1719,-3.7794 5.2638,-6.2549 7.5413,-6.2549 1.5082,0 2.3679,0.9638 2.3679,2.7779 0,1.0582 -0.3167,2.7022 -0.8597,4.8375 l -2.7752,10.7523 c -1.6289,5.8769 -1.6741,6.3493 -1.6741,8.4469 0,3.1746 1.8551,5.2722 4.6906,5.2722 2.006,0 3.9366,-1.2094 5.9878,-3.5904 1.267,-1.5496 2.0965,-2.8912 4.5701,-7.4265 l -1.8703,-1.5873 c -3.1221,5.9147 -5.3694,8.7681 -6.9229,8.7681 -0.6636,0 -1.2669,-0.8314 -1.2669,-1.8897 0,-0.6802 0.181,-1.5117 0.7239,-3.7226 l 3.8009,-14.645 c 0.4223,-1.644 0.7239,-4.0061 0.7239,-5.669 0,-4.0062 -2.3529,-6.8785 -5.6107,-6.8785 -4.2835,0 -8.1446,3.4959 -11.6438,10.6578 0.2413,-1.4361 0.362,-2.7022 0.362,-3.6282 0,-4.0061 -2.549,-7.0296 -5.852,-7.0296 -3.8159,0 -6.5761,2.6645 -10.8143,10.2232 l 1.7647,-10.2232"
     id="path256"
     style="stroke-width:1.68823" />
  <path
     class="Fingering"
     d="m 3777.5655,926.64224 c -1.81,0 -3.2428,1.83109 -3.2428,4.10437 0,2.18447 1.4328,4.07415 3.1975,4.07415 1.8703,0 3.3031,-1.8311 3.3031,-4.07415 0,-2.27328 -1.4328,-4.10437 -3.2578,-4.10437 m 1.0859,18.45269 -11.5683,1.12247 -0.2414,2.7457 h 1.448 c 2.4735,0 3.4388,0.68028 3.4388,2.33375 0,0.73698 -0.1207,1.593 -0.543,3.33528 l -3.5142,14.73381 c -1.1312,4.81301 -1.3122,5.8769 -1.3122,7.61729 0,2.65877 1.8099,4.69585 4.1025,4.69585 5.1733,0 8.7328,-6.73292 11.2817,-11.63285 l -1.8853,-1.3001 c -3.1372,5.96382 -5.656,9.15359 -7.2849,9.15359 -0.6033,0 -1.0407,-0.68028 -1.0407,-1.59488 0,-0.73887 0.2413,-2.12589 0.7391,-4.22154 l 6.3799,-26.98837"
     id="path258"
     style="stroke-width:1.68823" />
  <path
     class="Fingering"
     d="m 315.24227,2233.8527 -10.98164,1.1338 -0.18853,2.7401 h 1.4615 c 2.40417,0 3.36946,0.6802 3.36946,2.381 0,0.6802 -0.18854,1.8329 -0.49471,3.288 l -6.15069,25.9831 h 5.25478 l 2.47506,-10.6578 c 2.71034,-11.5837 8.20191,-20.3141 12.7267,-20.3141 1.57764,0 2.54443,1.0394 2.54443,2.929 0,1.5307 -0.49471,4.6864 -1.22471,7.5588 l -4.80833,20.4841 h 5.23215 l 2.5927,-10.9602 c 1.50826,-6.2926 3.01652,-10.5066 4.94861,-13.7568 2.16737,-3.7794 5.25478,-6.2549 7.5413,-6.2549 1.50826,0 2.3559,0.9638 2.3559,2.7779 0,1.0582 -0.30618,2.7022 -0.84764,4.8375 l -2.78123,10.7523 c -1.62591,5.8769 -1.67266,6.3493 -1.67266,8.4469 0,3.1746 1.86119,5.2722 4.68918,5.2722 2.00297,0 3.93505,-1.2094 5.98628,-3.5904 1.27297,-1.5496 2.09648,-2.8912 4.57154,-7.4265 l -1.86119,-1.5873 c -3.13417,5.9147 -5.37394,8.7681 -6.92895,8.7681 -0.66062,0 -1.27297,-0.8314 -1.27297,-1.8897 0,-0.6802 0.18853,-1.5117 0.7315,-3.7226 l 3.79328,-14.645 c 0.42382,-1.644 0.7315,-4.0061 0.7315,-5.669 0,-4.0062 -2.35741,-6.8785 -5.60922,-6.8785 -4.28949,0 -8.15365,3.4959 -11.64226,10.6578 0.23529,-1.4361 0.35293,-2.7022 0.35293,-3.6282 0,-4.0061 -2.54443,-7.0296 -5.8445,-7.0296 -3.81741,0 -6.57451,2.6645 -10.81574,10.2232 l 1.76617,-10.2232"
     id="path260"
     style="stroke-width:1.68823" />
  <path
     class="Fingering"
     d="m 269.45752,2478.8304 c -8.4357,0 -14.58638,11.4893 -14.58638,27.3815 0,15.552 5.96215,26.9468 14.09167,26.9468 8.46134,0 14.37674,-11.0169 14.37674,-26.739 0,-8.0122 -1.34386,-14.645 -3.86567,-19.8794 -2.3559,-4.7431 -6.22157,-7.7099 -10.01636,-7.7099 m -0.42382,3.2503 c 1.98035,0 3.91243,1.6629 5.37393,4.7053 1.62591,3.5337 2.16737,7.8421 2.16737,18.2165 0,10.6577 -0.42382,15.6465 -1.6259,18.9534 -1.39062,3.7227 -3.55799,5.9525 -5.84451,5.9525 -2.04972,0 -3.93505,-1.644 -5.37242,-4.6486 -1.6968,-3.5904 -2.16888,-8.239 -2.16888,-20.6542 0,-8.8437 0.42382,-13.2277 1.6259,-16.5535 1.39062,-3.7794 3.5595,-5.9714 5.84451,-5.9714"
     id="path262"
     style="stroke-width:1.68823" />
  <path
     class="Fingering"
     d="m 3585.2472,945.09493 -10.9801,1.12247 -0.1961,2.7457 h 1.463 c 2.4132,0 3.3785,0.68028 3.3785,2.39233 0,0.6784 -0.1961,1.8311 -0.4977,3.2767 l -6.1537,25.98306 h 5.2487 l 2.4736,-10.65778 c 2.7148,-11.57427 8.2049,-20.31403 12.7297,-20.31403 1.5836,0 2.5489,1.03366 2.5489,2.92333 0,1.53442 -0.4977,4.69396 -1.2217,7.55871 l -4.8113,20.48977 h 5.2337 l 2.5942,-10.95446 c 1.5082,-6.28884 3.0165,-10.51038 4.9471,-13.75874 2.1719,-3.77935 5.2487,-6.25861 7.5413,-6.25861 1.5082,0 2.3528,0.97319 2.3528,2.77405 0,1.06389 -0.3016,2.71736 -0.8446,4.84324 l -2.7903,10.74659 c -1.6138,5.8769 -1.659,6.34932 -1.659,8.44497 0,3.18977 1.8551,5.28543 4.6756,5.28543 2.0059,0 3.9365,-1.21129 5.9878,-3.60173 1.282,-1.53631 2.0964,-2.89309 4.57,-7.41131 l -1.8552,-1.59489 c -3.1372,5.90524 -5.3694,8.76999 -6.9229,8.76999 -0.6636,0 -1.282,-0.82768 -1.282,-1.88967 0,-0.68029 0.1961,-1.50608 0.739,-3.72078 l 3.7858,-14.64499 c 0.4223,-1.65347 0.739,-4.01557 0.739,-5.66903 0,-4.01557 -2.368,-6.88032 -5.6107,-6.88032 -4.2986,0 -8.1597,3.48457 -11.6438,10.65967 0.2413,-1.44749 0.3469,-2.71547 0.3469,-3.63196 0,-4.01556 -2.5339,-7.02771 -5.837,-7.02771 -3.8159,0 -6.576,2.65878 -10.8142,10.21748 l 1.7647,-10.21748"
     id="path264"
     style="stroke-width:1.68823" />
  <path
     class="Fingering"
     d="m 520.6432,2215.4095 c -1.81444,0 -3.25181,1.833 -3.25181,4.1006 0,2.1731 1.43737,4.0628 3.20505,4.0628 1.8612,0 3.29857,-1.8141 3.29857,-4.0628 0,-2.2676 -1.43737,-4.1006 -3.25181,-4.1006 m 1.08444,18.4432 -11.57138,1.1338 -0.23528,2.7401 h 1.43737 c 2.47505,0 3.44034,0.6802 3.44034,2.3243 0,0.7369 -0.11764,1.6062 -0.54147,3.3447 l -3.51123,14.7395 c -1.13119,4.7998 -1.31972,5.8769 -1.31972,7.6154 0,2.6455 1.81443,4.6864 4.09945,4.6864 5.1854,0 8.74338,-6.7273 11.28933,-11.6215 l -1.88533,-1.3039 c -3.13416,5.9525 -5.65598,9.146 -7.28188,9.146 -0.61386,0 -1.03768,-0.6803 -1.03768,-1.5873 0,-0.737 0.23529,-2.1353 0.7315,-4.2329 l 6.38598,-26.9846"
     id="path266"
     style="stroke-width:1.68823" />
  <path
     class="Fingering"
     d="m 3427.5435,945.31035 -1.6591,6.81985 c -0.3921,-4.69396 -3.4087,-7.94231 -7.3452,-7.94231 -9.0948,0 -14.8262,14.3502 -14.8262,24.32959 0,7.41131 3.5595,12.31313 8.9138,12.31313 3.8159,0 6.1386,-1.88968 9.1551,-7.3225 -0.2262,1.15082 -0.2715,1.65347 -0.2715,2.42068 0,2.95167 1.5083,4.90182 3.6651,4.90182 4.8415,0 8.205,-6.88031 10.0299,-11.78213 l -1.8853,-1.26987 c -2.2925,5.81643 -4.4192,8.91739 -5.9727,8.91739 -0.724,0 -1.2669,-0.85603 -1.2669,-1.88968 0,-0.85602 0.2262,-2.12588 0.6636,-4.10438 l 6.033,-25.39159 h -5.2336 m -7.9636,3.04049 c 2.8204,0 4.57,2.48115 4.57,6.73292 0,4.36894 -1.2066,10.33276 -3.0618,15.08718 -1.8853,4.69396 -4.0572,6.81985 -7.0737,6.81985 -3.0165,0 -4.8264,-2.80428 -4.8264,-7.41131 0,-6.78961 3.3935,-21.22864 10.3919,-21.22864"
     id="path268"
     style="stroke-width:1.68823" />
  <path
     class="Fingering"
     d="m 696.44451,2233.8527 -10.98164,1.1338 -0.18853,2.7401 h 1.4615 c 2.40266,0 3.36946,0.6802 3.36946,2.381 0,0.6802 -0.18854,1.8329 -0.49471,3.288 l -6.15069,25.9831 h 5.25478 l 2.47505,-10.6578 c 2.71035,-11.5837 8.20042,-20.3141 12.7252,-20.3141 1.57915,0 2.54594,1.0394 2.54594,2.929 0,1.5307 -0.49471,4.6864 -1.22622,7.5588 l -4.80682,20.4841 h 5.23065 l 2.5927,-10.9602 c 1.50826,-6.2926 3.01652,-10.5066 4.9486,-13.7568 2.16888,-3.7794 5.25628,-6.2549 7.5413,-6.2549 1.50826,0 2.35741,0.9638 2.35741,2.7779 0,1.0582 -0.30618,2.7022 -0.84915,4.8375 l -2.77972,10.7523 c -1.62591,5.8769 -1.67417,6.3493 -1.67417,8.4469 0,3.1746 1.8627,5.2722 4.69069,5.2722 2.00297,0 3.93505,-1.2094 5.98477,-3.5904 1.27297,-1.5496 2.09799,-2.8912 4.57305,-7.4265 l -1.8627,-1.5873 c -3.13417,5.9147 -5.37243,8.7681 -6.92744,8.7681 -0.66062,0 -1.27297,-0.8314 -1.27297,-1.8897 0,-0.6802 0.18853,-1.5117 0.72999,-3.7226 l 3.79479,-14.645 c 0.42382,-1.644 0.72999,-4.0061 0.72999,-5.669 0,-4.0062 -2.3559,-6.8785 -5.60922,-6.8785 -4.28798,0 -8.15365,3.4959 -11.64075,10.6578 0.23529,-1.4361 0.35293,-2.7022 0.35293,-3.6282 0,-4.0061 -2.54443,-7.0296 -5.8445,-7.0296 -3.81741,0 -6.57451,2.6645 -10.81725,10.2232 l 1.76768,-10.2232"
     id="path270"
     style="stroke-width:1.68823" />
  <path
     class="Fingering"
     d="m 3230.1876,945.09493 -10.9801,1.12247 -0.181,2.7457 h 1.463 c 2.3981,0 3.3634,0.68028 3.3634,2.39233 0,0.6784 -0.181,1.8311 -0.4977,3.2767 l -6.1537,25.98306 h 5.2638 l 2.4736,-10.65778 c 2.7148,-11.57427 8.2049,-20.31403 12.7297,-20.31403 1.5686,0 2.5339,1.03366 2.5339,2.92333 0,1.53442 -0.4827,4.69396 -1.2217,7.55871 l -4.8114,20.48977 h 5.2337 l 2.5942,-10.95446 c 1.5083,-6.28884 3.0165,-10.51038 4.9471,-13.75874 2.1719,-3.77935 5.2638,-6.25861 7.5413,-6.25861 1.5083,0 2.368,0.97319 2.368,2.77405 0,1.06389 -0.3168,2.71736 -0.8597,4.84324 l -2.7752,10.74659 c -1.629,5.8769 -1.6742,6.34932 -1.6742,8.44497 0,3.18977 1.8551,5.28543 4.6907,5.28543 2.006,0 3.9365,-1.21129 5.9878,-3.60173 1.2669,-1.53631 2.0965,-2.89309 4.57,-7.41131 l -1.8552,-1.59489 c -3.1371,5.90524 -5.3844,8.76999 -6.938,8.76999 -0.6636,0 -1.2669,-0.82768 -1.2669,-1.88967 0,-0.68029 0.181,-1.50608 0.724,-3.72078 l 3.8008,-14.64499 c 0.4223,-1.65347 0.724,-4.01557 0.724,-5.66903 0,-4.01557 -2.3529,-6.88032 -5.6108,-6.88032 -4.2834,0 -8.1446,3.48457 -11.6437,10.65967 0.2413,-1.44749 0.3619,-2.71547 0.3619,-3.63196 0,-4.01556 -2.5489,-7.02771 -5.852,-7.02771 -3.8159,0 -6.576,2.65878 -10.8142,10.21748 l 1.7646,-10.21748"
     id="path272"
     style="stroke-width:1.68823" />
  <path
     class="Fingering"
     d="m 906.8649,2234.0795 -1.65,6.8028 c -0.3997,-4.6864 -3.4162,-7.9366 -7.3528,-7.9366 -9.0963,0 -14.8232,14.3615 -14.8232,24.339 0,7.4076 3.558,12.3018 8.9078,12.3018 3.8189,0 6.1507,-1.8897 9.1672,-7.313 -0.2353,1.1527 -0.282,1.644 -0.282,2.4188 0,2.9479 1.5082,4.8942 3.6756,4.8942 4.8325,0 8.2019,-6.8784 10.0164,-11.7727 l -1.8854,-1.2661 c -2.2865,5.8014 -4.4071,8.9004 -5.9621,8.9004 -0.73,0 -1.273,-0.8503 -1.273,-1.8897 0,-0.8503 0.2353,-2.1164 0.6606,-4.1006 l 6.0331,-25.3783 h -5.2322 m -7.9651,3.0235 c 2.828,0 4.5715,2.4943 4.5715,6.7461 0,4.3652 -1.202,10.3366 -3.0632,15.0796 -1.8854,4.7053 -4.0542,6.8218 -7.0708,6.8218 -3.0165,0 -4.8309,-2.7967 -4.8309,-7.4076 0,-6.7839 3.3936,-21.2399 10.3934,-21.2399"
     id="path274"
     style="stroke-width:1.68823" />
  <path
     class="Fingering"
     d="m 3067.4614,926.64224 c -1.8099,0 -3.2427,1.83109 -3.2427,4.10437 0,2.18447 1.4328,4.07415 3.1975,4.07415 1.8702,0 3.3031,-1.8311 3.3031,-4.07415 0,-2.27328 -1.4329,-4.10437 -3.2579,-4.10437 m 1.086,18.45269 -11.5684,1.12247 -0.2413,2.7457 h 1.4479 c 2.4736,0 3.4388,0.68028 3.4388,2.33375 0,0.73698 -0.1206,1.593 -0.5429,3.33528 l -3.5143,14.73381 c -1.1312,4.81301 -1.3122,5.8769 -1.3122,7.61729 0,2.65877 1.81,4.69585 4.1025,4.69585 5.1733,0 8.7328,-6.73292 11.2818,-11.63285 l -1.8853,-1.3001 c -3.1372,5.96382 -5.656,9.15359 -7.2849,9.15359 -0.6033,0 -1.0407,-0.68028 -1.0407,-1.59488 0,-0.73887 0.2413,-2.12589 0.739,-4.22154 l 6.38,-26.98837"
     id="path276"
     style="stroke-width:1.68823" />
  <path
     class="Fingering"
     d="m 1077.6468,2233.8527 -10.9832,1.1338 -0.1885,2.7401 h 1.4615 c 2.4041,0 3.3694,0.6802 3.3694,2.381 0,0.6802 -0.1885,1.8329 -0.4947,3.288 l -6.1507,25.9831 h 5.2563 l 2.4736,-10.6578 c 2.7103,-11.5837 8.2019,-20.3141 12.7267,-20.3141 1.5791,0 2.5444,1.0394 2.5444,2.929 0,1.5307 -0.4947,4.6864 -1.2247,7.5588 l -4.8083,20.4841 h 5.2321 l 2.5927,-10.9602 c 1.5083,-6.2926 3.0165,-10.5066 4.9486,-13.7568 2.1674,-3.7794 5.2548,-6.2549 7.5413,-6.2549 1.5083,0 2.3559,0.9638 2.3559,2.7779 0,1.0582 -0.3062,2.7022 -0.8476,4.8375 l -2.7813,10.7523 c -1.6259,5.8769 -1.6726,6.3493 -1.6726,8.4469 0,3.1746 1.8612,5.2722 4.6892,5.2722 2.0029,0 3.9365,-1.2094 5.9863,-3.5904 1.2729,-1.5496 2.0979,-2.8912 4.5715,-7.4265 l -1.8612,-1.5873 c -3.1342,5.9147 -5.3739,8.7681 -6.929,8.7681 -0.6591,0 -1.2729,-0.8314 -1.2729,-1.8897 0,-0.6802 0.1885,-1.5117 0.7315,-3.7226 l 3.7933,-14.645 c 0.4253,-1.644 0.7315,-4.0061 0.7315,-5.669 0,-4.0062 -2.3574,-6.8785 -5.6093,-6.8785 -4.2894,0 -8.1536,3.4959 -11.6422,10.6578 0.2353,-1.4361 0.3544,-2.7022 0.3544,-3.6282 0,-4.0061 -2.5459,-7.0296 -5.8445,-7.0296 -3.8189,0 -6.576,2.6645 -10.8172,10.2232 l 1.7677,-10.2232"
     id="path278"
     style="stroke-width:1.68823" />
  <path
     class="Fingering"
     d="m 2829.3524,1190.0746 c -8.4312,0 -14.5849,11.4854 -14.5849,27.3719 0,15.5596 5.9576,26.9563 14.0871,26.9563 8.4614,0 14.3888,-11.0131 14.3888,-26.7503 0,-8.0009 -1.3423,-14.645 -3.8762,-19.8718 -2.3529,-4.7526 -6.214,-7.7061 -10.0148,-7.7061 m -0.4224,3.2483 c 1.9759,0 3.9215,1.6535 5.3695,4.694 1.6289,3.5431 2.1718,7.8554 2.1718,18.2184 0,10.6596 -0.4223,15.6484 -1.6289,18.9553 -1.3876,3.7208 -3.5595,5.9657 -5.8369,5.9657 -2.0513,0 -3.9366,-1.6534 -5.3694,-4.6656 -1.7044,-3.5734 -2.1719,-8.239 -2.1719,-20.639 0,-8.8588 0.4223,-13.2278 1.6289,-16.565 1.3876,-3.7793 3.5595,-5.9638 5.8369,-5.9638"
     id="path280"
     style="stroke-width:1.68823" />
  <path
     class="Fingering"
     d="m 1283.0537,2215.4095 c -1.825,0 -3.2578,1.833 -3.2578,4.1006 0,2.1731 1.4328,4.0628 3.1975,4.0628 1.8702,0 3.3031,-1.8141 3.3031,-4.0628 0,-2.2676 -1.4329,-4.1006 -3.2428,-4.1006 m 1.0709,18.4432 -11.5654,1.1338 -0.2353,2.7401 h 1.4389 c 2.4736,0 3.4389,0.6802 3.4389,2.3243 0,0.7369 -0.1207,1.6062 -0.543,3.3447 l -3.5143,14.7395 c -1.1266,4.7998 -1.3152,5.8769 -1.3152,7.6154 0,2.6455 1.813,4.6864 4.1055,4.6864 5.1734,0 8.7328,-6.7273 11.2818,-11.6215 l -1.8853,-1.3039 c -3.1372,5.9525 -5.656,9.146 -7.2849,9.146 -0.6033,0 -1.0256,-0.6803 -1.0256,-1.5873 0,-0.737 0.2262,-2.1353 0.7239,-4.2329 l 6.38,-26.9846"
     id="path282"
     style="stroke-width:1.68823" />
  <path
     class="Fingering"
     d="m 2888.9588,929.97752 -10.9952,1.12246 -0.2263,2.74571 h 1.4329 c 2.4735,0 3.4388,0.68028 3.4388,2.33375 0,0.73697 -0.1659,1.80086 -0.5429,3.33528 l -7.7073,32.77455 c -1.2216,5.46306 -1.2669,5.52164 -5.3694,5.75785 l -0.2564,2.71546 h 14.4944 l 0.2263,-2.71546 h -0.724 c -2.8959,0 -3.8612,-0.44219 -3.8612,-1.97849 0,-0.58958 0.2564,-1.88968 0.6788,-3.77936 l 2.9411,-12.31313 c 1.6289,5.22684 3.2126,6.6441 7.1944,6.6441 9.7584,0 15.6708,-13.28632 15.6708,-24.32959 0,-3.69054 -0.5882,-6.20003 -1.9758,-8.3845 -1.5837,-2.42256 -3.9818,-3.92863 -6.3498,-3.92863 -3.0769,0 -6.2593,2.27517 -8.9741,6.43813 l 0.9049,-6.43813 m 6.214,4.01556 c 2.7149,0 4.5248,2.62854 4.5248,6.6441 0,4.16296 -1.0407,9.30099 -2.8506,13.96661 -2.0965,5.66903 -4.5248,8.2371 -7.7072,8.2371 -2.9713,0 -5.0678,-2.92333 -5.0678,-6.9389 0,-6.79149 4.2684,-21.90891 11.1008,-21.90891"
     id="path284"
     style="stroke-width:1.68823" />
  <path
     class="Fingering"
     d="m 2632.4942,926.64224 c -1.8099,0 -3.2427,1.83109 -3.2427,4.10437 0,2.18447 1.4328,4.07415 3.1975,4.07415 1.8702,0 3.3031,-1.8311 3.3031,-4.07415 0,-2.27328 -1.4329,-4.10437 -3.2579,-4.10437 m 1.086,18.45269 -11.5684,1.12247 -0.2262,2.7457 h 1.4328 c 2.4736,0 3.4389,0.68028 3.4389,2.33375 0,0.73698 -0.1207,1.593 -0.543,3.33528 l -3.5143,14.73381 c -1.1312,4.81301 -1.3122,5.8769 -1.3122,7.61729 0,2.65877 1.81,4.69585 4.1025,4.69585 5.1733,0 8.7328,-6.73292 11.2818,-11.63285 l -1.8853,-1.3001 c -3.1372,5.96382 -5.656,9.15359 -7.2849,9.15359 -0.6033,0 -1.0407,-0.68028 -1.0407,-1.59488 0,-0.73887 0.2413,-2.12589 0.739,-4.22154 l 6.38,-26.98837"
     id="path286"
     style="stroke-width:1.68823" />
  <path
     class="Fingering"
     d="m 2440.1759,945.09493 -10.9801,1.12247 -0.1961,2.7457 h 1.4631 c 2.4132,0 3.3785,0.68028 3.3785,2.39233 0,0.6784 -0.1961,1.8311 -0.4978,3.2767 l -6.1537,25.98306 h 5.2488 l 2.4886,-10.65778 c 2.6998,-11.57427 8.1899,-20.31403 12.7146,-20.31403 1.5837,0 2.549,1.03366 2.549,2.92333 0,1.53442 -0.4977,4.69396 -1.2217,7.55871 l -4.8113,20.48977 h 5.2336 l 2.5942,-10.95446 c 1.5083,-6.28884 3.0165,-10.51038 4.9471,-13.75874 2.1719,-3.77935 5.2488,-6.25861 7.5413,-6.25861 1.5083,0 2.3529,0.97319 2.3529,2.77405 0,1.06389 -0.3016,2.71736 -0.8446,4.84324 l -2.7752,10.74659 c -1.6289,5.8769 -1.6742,6.34932 -1.6742,8.44497 0,3.18977 1.8552,5.28543 4.6907,5.28543 1.9909,0 3.9215,-1.21129 5.9727,-3.60173 1.282,-1.53631 2.0965,-2.89309 4.5851,-7.41131 l -1.8702,-1.59489 c -3.1372,5.90524 -5.3694,8.76999 -6.9229,8.76999 -0.6637,0 -1.2821,-0.82768 -1.2821,-1.88967 0,-0.68029 0.1961,-1.50608 0.7391,-3.72078 l 3.7857,-14.64499 c 0.4223,-1.65347 0.7391,-4.01557 0.7391,-5.66903 0,-4.01557 -2.3529,-6.88032 -5.6108,-6.88032 -4.2834,0 -8.1596,3.48457 -11.6437,10.65967 0.2413,-1.44749 0.3469,-2.71547 0.3469,-3.63196 0,-4.01556 -2.5339,-7.02771 -5.837,-7.02771 -3.8159,0 -6.576,2.65878 -10.8142,10.21748 l 1.7646,-10.21748"
     id="path288"
     style="stroke-width:1.68823" />
  <path
     class="Fingering"
     d="m 1552.5647,2218.7353 -10.9801,1.1338 -0.2262,2.74 h 1.4328 c 2.4736,0 3.4389,0.6803 3.4389,2.3244 0,0.7369 -0.166,1.814 -0.543,3.3447 l -7.7072,32.767 c -1.2217,5.4611 -1.267,5.5178 -5.3694,5.7635 l -0.2564,2.7211 h 14.4943 l 0.2263,-2.7211 h -0.724 c -2.8958,0 -3.8611,-0.4346 -3.8611,-1.9842 0,-0.5858 0.2564,-1.8896 0.6787,-3.7793 l 2.9411,-12.3018 c 1.6289,5.2155 3.2126,6.6327 7.1944,6.6327 9.7584,0 15.6708,-13.2844 15.6708,-24.3201 0,-3.7038 -0.5882,-6.1981 -1.9758,-8.3902 -1.5837,-2.4187 -3.9818,-3.9305 -6.3498,-3.9305 -3.0768,0 -6.2593,2.2865 -8.9741,6.4438 l 0.8898,-6.4438 m 6.2292,4.025 c 2.7148,0 4.5247,2.6267 4.5247,6.6328 0,4.1762 -1.0407,9.2972 -2.8506,13.9647 -2.0965,5.669 -4.5248,8.239 -7.7072,8.239 -2.9713,0 -5.0677,-2.9101 -5.0677,-6.9351 0,-6.784 4.2683,-21.9014 11.1008,-21.9014"
     id="path290"
     style="stroke-width:1.68823" />
  <path
     class="Fingering"
     d="m 1492.9734,2549.1264 c -8.4312,0 -14.5849,11.4893 -14.5849,27.3814 0,15.5521 5.9576,26.9468 14.0872,26.9468 8.4613,0 14.3888,-10.9979 14.3888,-26.7389 0,-8.0122 -1.3575,-14.645 -3.8763,-19.8794 -2.3529,-4.7431 -6.214,-7.7099 -10.0148,-7.7099 m -0.4223,3.2503 c 1.9758,0 3.9064,1.6629 5.3694,4.7053 1.6289,3.5337 2.1719,7.8421 2.1719,18.2164 0,10.6578 -0.4223,15.6466 -1.629,18.9535 -1.3876,3.7227 -3.5594,5.9525 -5.8369,5.9525 -2.0513,0 -3.9366,-1.644 -5.3694,-4.6486 -1.7044,-3.5715 -2.1719,-8.239 -2.1719,-20.6542 0,-8.8437 0.4223,-13.2277 1.6289,-16.5536 1.3876,-3.7793 3.5595,-5.9713 5.837,-5.9713"
     id="path292"
     style="stroke-width:1.68823" />
  <path
     class="Fingering"
     d="m 2282.4722,945.31035 -1.659,6.81985 c -0.3922,-4.69396 -3.4087,-7.94231 -7.3453,-7.94231 -9.0948,0 -14.8262,14.3502 -14.8262,24.32959 0,7.41131 3.5595,12.31313 8.9139,12.31313 3.8159,0 6.1537,-1.88968 9.1702,-7.3225 -0.2413,1.15082 -0.2866,1.65347 -0.2866,2.42068 0,2.95167 1.5083,4.90182 3.6802,4.90182 4.8264,0 8.1898,-6.88031 10.0148,-11.78213 l -1.8853,-1.26987 c -2.2926,5.81643 -4.4192,8.91739 -5.9727,8.91739 -0.724,0 -1.267,-0.85603 -1.267,-1.88968 0,-0.85602 0.2414,-2.12588 0.6637,-4.10438 l 6.033,-25.39159 h -5.2337 m -7.9636,3.04049 c 2.8205,0 4.5701,2.48115 4.5701,6.73292 0,4.36894 -1.2066,10.33276 -3.0618,15.08718 -1.8853,4.69396 -4.0572,6.81985 -7.0737,6.81985 -3.0166,0 -4.8265,-2.80428 -4.8265,-7.41131 0,-6.78961 3.3936,-21.22864 10.3919,-21.22864"
     id="path294"
     style="stroke-width:1.68823" />
  <path
     class="Fingering"
     d="m 1744.1591,2215.4095 c -1.81,0 -3.2428,1.833 -3.2428,4.1006 0,2.1731 1.4328,4.0628 3.1975,4.0628 1.8703,0 3.3031,-1.8141 3.3031,-4.0628 0,-2.2676 -1.4328,-4.1006 -3.2578,-4.1006 m 1.0859,18.4432 -11.5684,1.1338 -0.2413,2.7401 h 1.448 c 2.4735,0 3.4388,0.6802 3.4388,2.3243 0,0.7369 -0.1207,1.6062 -0.543,3.3447 l -3.5142,14.7395 c -1.1312,4.7998 -1.3273,5.8769 -1.3273,7.6154 0,2.6455 1.825,4.6864 4.1025,4.6864 5.1884,0 8.7479,-6.7273 11.2968,-11.6215 l -1.8853,-1.3039 c -3.1372,5.9525 -5.656,9.146 -7.2849,9.146 -0.6184,0 -1.0407,-0.6803 -1.0407,-1.5873 0,-0.737 0.2413,-2.1353 0.7391,-4.2329 l 6.3799,-26.9846"
     id="path296"
     style="stroke-width:1.68823" />
  <path
     class="Fingering"
     d="m 2085.1164,945.09493 -10.9802,1.12247 -0.1809,2.7457 h 1.463 c 2.3981,0 3.3634,0.68028 3.3634,2.39233 0,0.6784 -0.181,1.8311 -0.4977,3.2767 l -6.1387,25.98306 h 5.2488 l 2.4735,-10.65778 c 2.7149,-11.57427 8.205,-20.31403 12.7298,-20.31403 1.5685,0 2.5489,1.03366 2.5489,2.92333 0,1.53442 -0.4977,4.69396 -1.2368,7.55871 l -4.7962,20.48977 h 5.2186 l 2.5942,-10.95446 c 1.5082,-6.28884 3.0165,-10.51038 4.9471,-13.75874 2.1719,-3.77935 5.2638,-6.25861 7.5413,-6.25861 1.5082,0 2.3679,0.97319 2.3679,2.77405 0,1.06389 -0.3167,2.71736 -0.8597,4.84324 l -2.7752,10.74659 c -1.6289,5.8769 -1.6741,6.34932 -1.6741,8.44497 0,3.18977 1.8702,5.28543 4.6906,5.28543 2.006,0 3.9366,-1.21129 5.9878,-3.60173 1.267,-1.53631 2.0965,-2.89309 4.5701,-7.41131 l -1.8552,-1.59489 c -3.1372,5.90524 -5.3845,8.76999 -6.938,8.76999 -0.6636,0 -1.2669,-0.82768 -1.2669,-1.88967 0,-0.68029 0.181,-1.50608 0.7239,-3.72078 l 3.8008,-14.64499 c 0.4224,-1.65347 0.724,-4.01557 0.724,-5.66903 0,-4.01557 -2.3529,-6.88032 -5.6107,-6.88032 -4.2835,0 -8.1446,3.48457 -11.6287,10.65967 0.2262,-1.44749 0.3469,-2.71547 0.3469,-3.63196 0,-4.01556 -2.549,-7.02771 -5.8521,-7.02771 -3.8159,0 -6.5609,2.65878 -10.8142,10.21748 l 1.7647,-10.21748"
     id="path298"
     style="stroke-width:1.68823" />
  <path
     class="Fingering"
     d="m 1922.4053,926.64224 c -1.825,0 -3.2579,1.83109 -3.2579,4.10437 0,2.18447 1.4329,4.07415 3.1975,4.07415 1.8703,0 3.3031,-1.8311 3.3031,-4.07415 0,-2.27328 -1.4328,-4.10437 -3.2427,-4.10437 m 1.0708,18.45269 -11.5683,1.12247 -0.2263,2.7457 h 1.4329 c 2.4735,0 3.4388,0.68028 3.4388,2.33375 0,0.73698 -0.1207,1.593 -0.543,3.33528 l -3.5142,14.73381 c -1.1312,4.81301 -1.3122,5.8769 -1.3122,7.61729 0,2.65877 1.8099,4.69585 4.1025,4.69585 5.1733,0 8.7328,-6.73292 11.2818,-11.63285 l -1.8854,-1.3001 c -3.1371,5.96382 -5.6559,9.15359 -7.2849,9.15359 -0.6033,0 -1.0256,-0.68028 -1.0256,-1.59488 0,-0.73887 0.2263,-2.12589 0.724,-4.22154 l 6.3799,-26.98837"
     id="path300"
     style="stroke-width:1.68823" />
  <path
     class="Fingering"
     d="m 2130.3793,2234.0795 -1.644,6.8028 c -0.4073,-4.6864 -3.4238,-7.9366 -7.3603,-7.9366 -9.0948,0 -14.8112,14.3615 -14.8112,24.339 0,7.4076 3.5595,12.3018 8.8988,12.3018 3.8159,0 6.1537,-1.8897 9.1702,-7.313 -0.2413,1.1527 -0.2866,1.644 -0.2866,2.4188 0,2.9479 1.5083,4.8942 3.6802,4.8942 4.8264,0 8.2049,-6.8784 10.0148,-11.7727 l -1.8853,-1.2661 c -2.2775,5.8014 -4.4041,8.9004 -5.9576,8.9004 -0.7391,0 -1.282,-0.8503 -1.282,-1.8897 0,-0.8503 0.2413,-2.1164 0.6636,-4.1006 l 6.033,-25.3783 h -5.2336 m -7.9636,3.0235 c 2.8355,0 4.57,2.4943 4.57,6.7461 0,4.3652 -1.1915,10.3366 -3.0618,15.0796 -1.8853,4.7053 -4.0572,6.8218 -7.0737,6.8218 -3.0165,0 -4.8265,-2.7967 -4.8265,-7.4076 0,-6.7839 3.3936,-21.2399 10.392,-21.2399"
     id="path302"
     style="stroke-width:1.68823" />
  <path
     class="Fingering"
     d="m 1684.2811,1260.3706 c -8.4312,0 -14.5849,11.4854 -14.5849,27.3719 0,15.5596 5.9728,26.9563 14.1023,26.9563 8.4613,0 14.3737,-11.0131 14.3737,-26.7503 0,-8.0009 -1.3424,-14.645 -3.8762,-19.8718 -2.3529,-4.7526 -6.2141,-7.7061 -10.0149,-7.7061 m -0.4223,3.2483 c 1.9909,0 3.9215,1.6535 5.3845,4.694 1.6138,3.5431 2.1568,7.8554 2.1568,18.2183 0,10.6597 -0.4223,15.6485 -1.6289,18.9554 -1.3876,3.7208 -3.5444,5.9657 -5.837,5.9657 -2.0512,0 -3.9365,-1.6535 -5.3694,-4.6656 -1.7043,-3.5734 -2.1719,-8.239 -2.1719,-20.6391 0,-8.8588 0.4223,-13.2277 1.6289,-16.5649 1.3876,-3.7793 3.5595,-5.9638 5.837,-5.9638"
     id="path304"
     style="stroke-width:1.68823" />
  <path
     class="Fingering"
     d="m 1743.8876,929.97752 -10.9802,1.12246 -0.2413,2.74571 h 1.4329 c 2.4735,0 3.4388,0.68028 3.4388,2.33375 0,0.73697 -0.1659,1.80086 -0.543,3.33528 l -7.7072,32.77455 c -1.2217,5.46306 -1.2669,5.52164 -5.3694,5.75785 l -0.2564,2.71546 h 14.4944 l 0.2413,-2.71546 h -0.739 c -2.8959,0 -3.8612,-0.44219 -3.8612,-1.97849 0,-0.58958 0.2564,-1.88968 0.6787,-3.77936 l 2.9562,-12.31313 c 1.6139,5.22684 3.1975,6.6441 7.1793,6.6441 9.7585,0 15.6709,-13.28632 15.6709,-24.32959 0,-3.69054 -0.5883,-6.20003 -1.9759,-8.3845 -1.5836,-2.42256 -3.9818,-3.92863 -6.3347,-3.92863 -3.0919,0 -6.2743,2.27517 -8.9892,6.43813 l 0.905,-6.43813 m 6.214,4.01556 c 2.7149,0 4.5248,2.62854 4.5248,6.6441 0,4.16296 -1.0407,9.30099 -2.8506,13.96661 -2.0965,5.66903 -4.5248,8.2371 -7.7072,8.2371 -2.9713,0 -5.0678,-2.92333 -5.0678,-6.9389 0,-6.79149 4.2684,-21.90891 11.1008,-21.90891"
     id="path306"
     style="stroke-width:1.68823" />
  <path
     class="Fingering"
     d="m 2716.4892,2619.4224 c -8.4311,0 -14.5848,11.4892 -14.5848,27.3814 0,15.5521 5.9727,26.9468 14.1022,26.9468 8.4613,0 14.3737,-10.9979 14.3737,-26.7389 0,-8.0122 -1.3423,-14.645 -3.8762,-19.8794 -2.3529,-4.7431 -6.214,-7.7099 -10.0149,-7.7099 m -0.4223,3.2502 c 1.9909,0 3.9215,1.663 5.3845,4.7053 1.6139,3.5337 2.1568,7.8422 2.1568,18.2165 0,10.6578 -0.4223,15.6466 -1.6289,18.9535 -1.3876,3.7227 -3.5444,5.9525 -5.837,5.9525 -2.0512,0 -3.9365,-1.6441 -5.3694,-4.6486 -1.7043,-3.5715 -2.1719,-8.239 -2.1719,-20.6542 0,-8.8437 0.4224,-13.2277 1.629,-16.5536 1.3876,-3.7793 3.5595,-5.9714 5.8369,-5.9714"
     id="path308"
     style="stroke-width:1.68823" />
  <metadata
     id="metadata1097">
    <rdf:RDF>
      <cc:Work
         rdf:about="">
        <dc:title>ex_corde_a_vide_06</dc:title>
      </cc:Work>
    </rdf:RDF>
  </metadata>
  <text
     xml:space="preserve"
     style="font-size:180px;font-family:sans-serif;-inkscape-font-specification:sans-serif;fill:#1a1a1a;stroke:#666666;stroke-width:5.66929"
     x="1742.4771"
     y="337.25397"
     id="text1939"><tspan
       sodipodi:role="line"
       id="tspan1937"
       style="fill:#1a1a1a;stroke-width:5.66929"
       x="1742.4771"
       y="337.25397">Arpge</tspan></text>
</svg>
