<?xml version="1.0" encoding="UTF-8" standalone="no"?>
<svg
   width="297mm"
   height="210mm"
   viewBox="0 0 1122.5197 793.7008"
   version="1.2"
   id="svg280"
   sodipodi:docname="valsinette.svg"
   inkscape:version="1.2.2 (b0a8486541, 2022-12-01)"
   xmlns:inkscape="http://www.inkscape.org/namespaces/inkscape"
   xmlns:sodipodi="http://sodipodi.sourceforge.net/DTD/sodipodi-0.dtd"
   xmlns="http://www.w3.org/2000/svg"
   xmlns:svg="http://www.w3.org/2000/svg"
   xmlns:rdf="http://www.w3.org/1999/02/22-rdf-syntax-ns#"
   xmlns:cc="http://creativecommons.org/ns#"
   xmlns:dc="http://purl.org/dc/elements/1.1/">
  <defs
     id="defs284" />
  <sodipodi:namedview
     id="namedview282"
     pagecolor="#ffffff"
     bordercolor="#000000"
     borderopacity="0.25"
     inkscape:showpageshadow="2"
     inkscape:pageopacity="0.0"
     inkscape:pagecheckerboard="0"
     inkscape:deskcolor="#d1d1d1"
     showgrid="false"
     inkscape:zoom="0.45813137"
     inkscape:cx="629.73204"
     inkscape:cy="439.83018"
     inkscape:window-width="1280"
     inkscape:window-height="651"
     inkscape:window-x="0"
     inkscape:window-y="32"
     inkscape:window-maximized="1"
     inkscape:current-layer="svg280"
     inkscape:document-units="mm" />
  <title
     id="title2">valsinette</title>
  <desc
     id="desc4">Generated by MuseScore 4.2.1</desc>
  <polyline
     class="StaffLines"
     fill="none"
     stroke="#000000"
     stroke-width="2.73"
     stroke-linejoin="bevel"
     points="336.598,386.198 2764.6,386.198"
     id="polyline8"
     transform="matrix(0.40878179,0,0,0.57001149,-52.136883,4.6423673)" />
  <polyline
     class="StaffLines"
     fill="none"
     stroke="#000000"
     stroke-width="2.73"
     stroke-linejoin="bevel"
     points="336.598,410.998 2764.6,410.998"
     id="polyline10"
     transform="matrix(0.40878179,0,0,0.57001149,-52.136883,4.6423673)" />
  <polyline
     class="StaffLines"
     fill="none"
     stroke="#000000"
     stroke-width="2.73"
     stroke-linejoin="bevel"
     points="336.598,435.798 2764.6,435.798"
     id="polyline12"
     transform="matrix(0.40878179,0,0,0.57001149,-52.136883,4.6423673)" />
  <polyline
     class="StaffLines"
     fill="none"
     stroke="#000000"
     stroke-width="2.73"
     stroke-linejoin="bevel"
     points="336.598,460.598 2764.6,460.598"
     id="polyline14"
     transform="matrix(0.40878179,0,0,0.57001149,-52.136883,4.6423673)" />
  <polyline
     class="StaffLines"
     fill="none"
     stroke="#000000"
     stroke-width="2.73"
     stroke-linejoin="bevel"
     points="336.598,485.398 2764.6,485.398"
     id="polyline16"
     transform="matrix(0.40878179,0,0,0.57001149,-52.136883,4.6423673)" />
  <polyline
     class="StaffLines"
     fill="none"
     stroke="#000000"
     stroke-width="2.73"
     stroke-linejoin="bevel"
     points="212.598,993.798 2764.6,993.798"
     id="polyline18"
     transform="matrix(0.40878179,0,0,0.57001149,-52.136883,4.6423673)" />
  <polyline
     class="StaffLines"
     fill="none"
     stroke="#000000"
     stroke-width="2.73"
     stroke-linejoin="bevel"
     points="212.598,1018.6 2764.6,1018.6"
     id="polyline20"
     transform="matrix(0.40878179,0,0,0.57001149,-52.136883,4.6423673)" />
  <polyline
     class="StaffLines"
     fill="none"
     stroke="#000000"
     stroke-width="2.73"
     stroke-linejoin="bevel"
     points="212.598,1043.4 2764.6,1043.4"
     id="polyline22"
     transform="matrix(0.40878179,0,0,0.57001149,-52.136883,4.6423673)" />
  <polyline
     class="StaffLines"
     fill="none"
     stroke="#000000"
     stroke-width="2.73"
     stroke-linejoin="bevel"
     points="212.598,1068.2 2764.6,1068.2"
     id="polyline24"
     transform="matrix(0.40878179,0,0,0.57001149,-52.136883,4.6423673)" />
  <polyline
     class="StaffLines"
     fill="none"
     stroke="#000000"
     stroke-width="2.73"
     stroke-linejoin="bevel"
     points="212.598,1093 2764.6,1093"
     id="polyline26"
     transform="matrix(0.40878179,0,0,0.57001149,-52.136883,4.6423673)" />
  <path
     class="MeasureNumber"
     d="m 36.602695,534.11807 c -0.51098,0.42751 -0.65814,0.70339 -0.65814,1.15769 0,0.43662 0.26203,0.75698 0.58783,0.75698 0.42799,0 0.67081,-0.43607 0.72191,-1.28253 0.50443,-0.57001 1.0473,-0.81911 1.6989,-0.81911 1.21367,0 1.88407,1.0511 1.88407,2.93898 0,2.96577 -1.3731,5.37977 -3.05932,5.37977 -0.96472,0 -1.75,-0.63271 -1.75,-1.38969 0,-0.13338 0.0188,-0.17784 0.0957,-0.2491 0.52365,-0.33859 0.95165,-0.58824 0.95165,-1.54986 0,-0.73018 -0.40878,-1.27397 -0.98353,-1.27397 -0.71536,0 -1.25823,0.83735 -1.25823,1.93291 0,2.01271 1.24556,3.46453 2.99556,3.46453 2.64441,0 4.79051,-2.93898 4.79051,-6.58192 0,-2.30684 -1.25864,-3.92739 -3.04052,-3.92739 -0.70883,0 -1.27744,0.20464 -2.06312,0.75698 l 0.91363,-4.31099 c 0.86865,0.24966 1.55827,0.36538 2.1461,0.36538 1.07918,0 2.04391,-0.4811 2.58023,-1.27342 0.28124,-0.4543 0.44066,-0.84646 0.44066,-1.14002 0,-0.1425 -0.0511,-0.27645 -0.11486,-0.27645 -0.0446,0 -0.083,0.0268 -0.17905,0.0889 -0.53632,0.36538 -1.22634,0.57001 -1.86486,0.57001 -0.9774,0 -2.13957,-0.22231 -3.3471,-0.65893 l -1.48797,7.32122"
     id="path28"
     style="stroke-width:0.482711" />
  <polyline
     class="BarLine"
     fill="none"
     stroke="#000000"
     stroke-width="4.46"
     stroke-linejoin="bevel"
     points="1631.72,384.834 1631.72,486.762"
     id="polyline30"
     transform="matrix(0.40878179,0,0,0.57001149,-52.136883,4.6423673)" />
  <polyline
     class="BarLine"
     fill="none"
     stroke="#000000"
     stroke-width="4.46"
     stroke-linejoin="bevel"
     points="2739.55,992.434 2739.55,1094.36"
     id="polyline32"
     transform="matrix(0.40878179,0,0,0.57001149,-52.136883,4.6423673)" />
  <polyline
     class="BarLine"
     fill="none"
     stroke="#000000"
     stroke-width="13.64"
     stroke-linejoin="bevel"
     points="2757.78,992.434 2757.78,1094.36"
     id="polyline34"
     transform="matrix(0.40878179,0,0,0.57001149,-52.136883,4.6423673)" />
  <polyline
     class="BarLine"
     fill="none"
     stroke="#000000"
     stroke-width="4.46"
     stroke-linejoin="bevel"
     points="926.543,992.434 926.543,1094.36"
     id="polyline36"
     transform="matrix(0.40878179,0,0,0.57001149,-52.136883,4.6423673)" />
  <polyline
     class="BarLine"
     fill="none"
     stroke="#000000"
     stroke-width="4.46"
     stroke-linejoin="bevel"
     points="2135.22,992.434 2135.22,1094.36"
     id="polyline38"
     transform="matrix(0.40878179,0,0,0.57001149,-52.136883,4.6423673)" />
  <polyline
     class="BarLine"
     fill="none"
     stroke="#000000"
     stroke-width="4.46"
     stroke-linejoin="bevel"
     points="2197.04,384.834 2197.04,486.762"
     id="polyline40"
     transform="matrix(0.40878179,0,0,0.57001149,-52.136883,4.6423673)" />
  <polyline
     class="BarLine"
     fill="none"
     stroke="#000000"
     stroke-width="4.46"
     stroke-linejoin="bevel"
     points="1530.88,992.434 1530.88,1094.36"
     id="polyline42"
     transform="matrix(0.40878179,0,0,0.57001149,-52.136883,4.6423673)" />
  <polyline
     class="BarLine"
     fill="none"
     stroke="#000000"
     stroke-width="4.46"
     stroke-linejoin="bevel"
     points="1066.39,384.834 1066.39,486.762"
     id="polyline44"
     transform="matrix(0.40878179,0,0,0.57001149,-52.136883,4.6423673)" />
  <polyline
     class="BarLine"
     fill="none"
     stroke="#000000"
     stroke-width="4.46"
     stroke-linejoin="bevel"
     points="2762.37,384.834 2762.37,486.762"
     id="polyline46"
     transform="matrix(0.40878179,0,0,0.57001149,-52.136883,4.6423673)" />
  <polyline
     class="LedgerLine"
     fill="none"
     stroke="#000000"
     stroke-width="3.97"
     stroke-linejoin="bevel"
     points="1557.17,1167.4 1605.77,1167.4"
     id="polyline48"
     transform="matrix(0.40878179,0,0,0.57001149,-52.136883,4.6423673)" />
  <polyline
     class="LedgerLine"
     fill="none"
     stroke="#000000"
     stroke-width="3.97"
     stroke-linejoin="bevel"
     points="1557.17,1142.6 1605.77,1142.6"
     id="polyline50"
     transform="matrix(0.40878179,0,0,0.57001149,-52.136883,4.6423673)" />
  <polyline
     class="LedgerLine"
     fill="none"
     stroke="#000000"
     stroke-width="3.97"
     stroke-linejoin="bevel"
     points="1557.17,1117.8 1605.77,1117.8"
     id="polyline52"
     transform="matrix(0.40878179,0,0,0.57001149,-52.136883,4.6423673)" />
  <polyline
     class="LedgerLine"
     fill="none"
     stroke="#000000"
     stroke-width="3.97"
     stroke-linejoin="bevel"
     points="2223.33,510.198 2271.93,510.198"
     id="polyline54"
     transform="matrix(0.40878179,0,0,0.57001149,-52.136883,4.6423673)" />
  <polyline
     class="LedgerLine"
     fill="none"
     stroke="#000000"
     stroke-width="3.97"
     stroke-linejoin="bevel"
     points="2223.33,534.998 2271.93,534.998"
     id="polyline56"
     transform="matrix(0.40878179,0,0,0.57001149,-52.136883,4.6423673)" />
  <polyline
     class="LedgerLine"
     fill="none"
     stroke="#000000"
     stroke-width="3.97"
     stroke-linejoin="bevel"
     points="348.495,1167.4 397.095,1167.4"
     id="polyline58"
     transform="matrix(0.40878179,0,0,0.57001149,-52.136883,4.6423673)" />
  <polyline
     class="LedgerLine"
     fill="none"
     stroke="#000000"
     stroke-width="3.97"
     stroke-linejoin="bevel"
     points="348.495,1142.6 397.095,1142.6"
     id="polyline60"
     transform="matrix(0.40878179,0,0,0.57001149,-52.136883,4.6423673)" />
  <polyline
     class="LedgerLine"
     fill="none"
     stroke="#000000"
     stroke-width="3.97"
     stroke-linejoin="bevel"
     points="348.495,1117.8 397.095,1117.8"
     id="polyline62"
     transform="matrix(0.40878179,0,0,0.57001149,-52.136883,4.6423673)" />
  <polyline
     class="LedgerLine"
     fill="none"
     stroke="#000000"
     stroke-width="3.97"
     stroke-linejoin="bevel"
     points="1658,510.198 1706.6,510.198"
     id="polyline64"
     transform="matrix(0.40878179,0,0,0.57001149,-52.136883,4.6423673)" />
  <polyline
     class="LedgerLine"
     fill="none"
     stroke="#000000"
     stroke-width="3.97"
     stroke-linejoin="bevel"
     points="1658,534.998 1706.6,534.998"
     id="polyline66"
     transform="matrix(0.40878179,0,0,0.57001149,-52.136883,4.6423673)" />
  <polyline
     class="LedgerLine"
     fill="none"
     stroke="#000000"
     stroke-width="3.97"
     stroke-linejoin="bevel"
     points="1658,559.798 1706.6,559.798"
     id="polyline68"
     transform="matrix(0.40878179,0,0,0.57001149,-52.136883,4.6423673)" />
  <polyline
     class="LedgerLine"
     fill="none"
     stroke="#000000"
     stroke-width="3.97"
     stroke-linejoin="bevel"
     points="952.831,1142.6 1001.43,1142.6"
     id="polyline70"
     transform="matrix(0.40878179,0,0,0.57001149,-52.136883,4.6423673)" />
  <polyline
     class="LedgerLine"
     fill="none"
     stroke="#000000"
     stroke-width="3.97"
     stroke-linejoin="bevel"
     points="952.831,1117.8 1001.43,1117.8"
     id="polyline72"
     transform="matrix(0.40878179,0,0,0.57001149,-52.136883,4.6423673)" />
  <polyline
     class="LedgerLine"
     fill="none"
     stroke="#000000"
     stroke-width="3.97"
     stroke-linejoin="bevel"
     points="527.349,559.798 575.949,559.798"
     id="polyline74"
     transform="matrix(0.40878179,0,0,0.57001149,-52.136883,4.6423673)" />
  <polyline
     class="LedgerLine"
     fill="none"
     stroke="#000000"
     stroke-width="3.97"
     stroke-linejoin="bevel"
     points="527.349,534.998 575.949,534.998"
     id="polyline76"
     transform="matrix(0.40878179,0,0,0.57001149,-52.136883,4.6423673)" />
  <polyline
     class="LedgerLine"
     fill="none"
     stroke="#000000"
     stroke-width="3.97"
     stroke-linejoin="bevel"
     points="2350.72,1167.4 2399.32,1167.4"
     id="polyline78"
     transform="matrix(0.40878179,0,0,0.57001149,-52.136883,4.6423673)" />
  <polyline
     class="LedgerLine"
     fill="none"
     stroke="#000000"
     stroke-width="3.97"
     stroke-linejoin="bevel"
     points="527.349,510.198 575.949,510.198"
     id="polyline80"
     transform="matrix(0.40878179,0,0,0.57001149,-52.136883,4.6423673)" />
  <polyline
     class="LedgerLine"
     fill="none"
     stroke="#000000"
     stroke-width="3.97"
     stroke-linejoin="bevel"
     points="2350.72,1117.8 2399.32,1117.8"
     id="polyline82"
     transform="matrix(0.40878179,0,0,0.57001149,-52.136883,4.6423673)" />
  <polyline
     class="LedgerLine"
     fill="none"
     stroke="#000000"
     stroke-width="3.97"
     stroke-linejoin="bevel"
     points="2350.72,1142.6 2399.32,1142.6"
     id="polyline84"
     transform="matrix(0.40878179,0,0,0.57001149,-52.136883,4.6423673)" />
  <polyline
     class="LedgerLine"
     fill="none"
     stroke="#000000"
     stroke-width="3.97"
     stroke-linejoin="bevel"
     points="1092.68,534.998 1141.28,534.998"
     id="polyline86"
     transform="matrix(0.40878179,0,0,0.57001149,-52.136883,4.6423673)" />
  <polyline
     class="LedgerLine"
     fill="none"
     stroke="#000000"
     stroke-width="3.97"
     stroke-linejoin="bevel"
     points="2539.93,1142.6 2588.53,1142.6"
     id="polyline88"
     transform="matrix(0.40878179,0,0,0.57001149,-52.136883,4.6423673)" />
  <polyline
     class="LedgerLine"
     fill="none"
     stroke="#000000"
     stroke-width="3.97"
     stroke-linejoin="bevel"
     points="2539.93,1117.8 2588.53,1117.8"
     id="polyline90"
     transform="matrix(0.40878179,0,0,0.57001149,-52.136883,4.6423673)" />
  <polyline
     class="LedgerLine"
     fill="none"
     stroke="#000000"
     stroke-width="3.97"
     stroke-linejoin="bevel"
     points="2539.93,1167.4 2588.53,1167.4"
     id="polyline92"
     transform="matrix(0.40878179,0,0,0.57001149,-52.136883,4.6423673)" />
  <polyline
     class="LedgerLine"
     fill="none"
     stroke="#000000"
     stroke-width="3.97"
     stroke-linejoin="bevel"
     points="1092.68,510.198 1141.28,510.198"
     id="polyline94"
     transform="matrix(0.40878179,0,0,0.57001149,-52.136883,4.6423673)" />
  <polyline
     class="Stem"
     fill="none"
     stroke="#000000"
     stroke-width="2.48"
     stroke-linejoin="bevel"
     points="576.882,1002.23 576.882,944.198"
     id="polyline96"
     transform="matrix(0.40878179,0,0,0.57001149,-52.136883,4.6423673)" />
  <polyline
     class="Stem"
     fill="none"
     stroke="#000000"
     stroke-width="2.48"
     stroke-linejoin="bevel"
     points="1181.22,1039.43 1181.22,968.998"
     id="polyline98"
     transform="matrix(0.40878179,0,0,0.57001149,-52.136883,4.6423673)" />
  <polyline
     class="Stem"
     fill="none"
     stroke="#000000"
     stroke-width="2.48"
     stroke-linejoin="bevel"
     points="2438.71,431.83 2438.71,361.398"
     id="polyline100"
     transform="matrix(0.40878179,0,0,0.57001149,-52.136883,4.6423673)" />
  <polyline
     class="Stem"
     fill="none"
     stroke="#000000"
     stroke-width="2.48"
     stroke-linejoin="bevel"
     points="1785.56,1002.23 1785.56,944.198"
     id="polyline102"
     transform="matrix(0.40878179,0,0,0.57001149,-52.136883,4.6423673)" />
  <polyline
     class="Stem"
     fill="none"
     stroke="#000000"
     stroke-width="2.48"
     stroke-linejoin="bevel"
     points="742.733,394.63 742.733,336.598"
     id="polyline104"
     transform="matrix(0.40878179,0,0,0.57001149,-52.136883,4.6423673)" />
  <polyline
     class="Stem"
     fill="none"
     stroke="#000000"
     stroke-width="2.48"
     stroke-linejoin="bevel"
     points="1873.39,394.63 1873.39,336.598"
     id="polyline106"
     transform="matrix(0.40878179,0,0,0.57001149,-52.136883,4.6423673)" />
  <polyline
     class="Stem"
     fill="none"
     stroke="#000000"
     stroke-width="2.48"
     stroke-linejoin="bevel"
     points="1308.06,431.83 1308.06,361.398"
     id="polyline108"
     transform="matrix(0.40878179,0,0,0.57001149,-52.136883,4.6423673)" />
  <polyline
     class="Stem"
     fill="none"
     stroke="#000000"
     stroke-width="2.48"
     stroke-linejoin="bevel"
     points="2200.68,1002.23 2200.68,944.198"
     id="polyline110"
     transform="matrix(0.40878179,0,0,0.57001149,-52.136883,4.6423673)" />
  <polyline
     class="Stem"
     fill="none"
     stroke="#000000"
     stroke-width="2.48"
     stroke-linejoin="bevel"
     points="1566.59,1183.96 1566.59,1241.8"
     id="polyline112"
     transform="matrix(0.40878179,0,0,0.57001149,-52.136883,4.6423673)" />
  <polyline
     class="Stem"
     fill="none"
     stroke="#000000"
     stroke-width="2.48"
     stroke-linejoin="bevel"
     points="2549.35,1183.96 2549.35,1241.8"
     id="polyline114"
     transform="matrix(0.40878179,0,0,0.57001149,-52.136883,4.6423673)" />
  <polyline
     class="Stem"
     fill="none"
     stroke="#000000"
     stroke-width="2.48"
     stroke-linejoin="bevel"
     points="1340.68,1072.36 1340.68,1130.2"
     id="polyline116"
     transform="matrix(0.40878179,0,0,0.57001149,-52.136883,4.6423673)" />
  <polyline
     class="Stem"
     fill="none"
     stroke="#000000"
     stroke-width="2.48"
     stroke-linejoin="bevel"
     points="2585.17,439.965 2585.17,510.198"
     id="polyline118"
     transform="matrix(0.40878179,0,0,0.57001149,-52.136883,4.6423673)" />
  <polyline
     class="Stem"
     fill="none"
     stroke="#000000"
     stroke-width="2.48"
     stroke-linejoin="bevel"
     points="889.189,439.965 889.189,510.198"
     id="polyline120"
     transform="matrix(0.40878179,0,0,0.57001149,-52.136883,4.6423673)" />
  <polyline
     class="Stem"
     fill="none"
     stroke="#000000"
     stroke-width="2.48"
     stroke-linejoin="bevel"
     points="736.34,1047.56 736.34,1117.8"
     id="polyline122"
     transform="matrix(0.40878179,0,0,0.57001149,-52.136883,4.6423673)" />
  <polyline
     class="Stem"
     fill="none"
     stroke="#000000"
     stroke-width="2.48"
     stroke-linejoin="bevel"
     points="357.919,1183.96 357.919,1241.8"
     id="polyline124"
     transform="matrix(0.40878179,0,0,0.57001149,-52.136883,4.6423673)" />
  <polyline
     class="Stem"
     fill="none"
     stroke="#000000"
     stroke-width="2.48"
     stroke-linejoin="bevel"
     points="2232.75,539.165 2232.75,596.998"
     id="polyline126"
     transform="matrix(0.40878179,0,0,0.57001149,-52.136883,4.6423673)" />
  <polyline
     class="Stem"
     fill="none"
     stroke="#000000"
     stroke-width="2.48"
     stroke-linejoin="bevel"
     points="536.773,576.365 536.773,634.198"
     id="polyline128"
     transform="matrix(0.40878179,0,0,0.57001149,-52.136883,4.6423673)" />
  <polyline
     class="Stem"
     fill="none"
     stroke="#000000"
     stroke-width="2.48"
     stroke-linejoin="bevel"
     points="1454.52,464.765 1454.52,522.598"
     id="polyline130"
     transform="matrix(0.40878179,0,0,0.57001149,-52.136883,4.6423673)" />
  <polyline
     class="Stem"
     fill="none"
     stroke="#000000"
     stroke-width="2.48"
     stroke-linejoin="bevel"
     points="2360.14,1183.96 2360.14,1241.8"
     id="polyline132"
     transform="matrix(0.40878179,0,0,0.57001149,-52.136883,4.6423673)" />
  <polyline
     class="Stem"
     fill="none"
     stroke="#000000"
     stroke-width="2.48"
     stroke-linejoin="bevel"
     points="1667.43,576.365 1667.43,634.198"
     id="polyline134"
     transform="matrix(0.40878179,0,0,0.57001149,-52.136883,4.6423673)" />
  <polyline
     class="Stem"
     fill="none"
     stroke="#000000"
     stroke-width="2.48"
     stroke-linejoin="bevel"
     points="962.255,1146.76 962.255,1204.6"
     id="polyline136"
     transform="matrix(0.40878179,0,0,0.57001149,-52.136883,4.6423673)" />
  <polyline
     class="Stem"
     fill="none"
     stroke="#000000"
     stroke-width="2.48"
     stroke-linejoin="bevel"
     points="2019.84,439.965 2019.84,510.198"
     id="polyline138"
     transform="matrix(0.40878179,0,0,0.57001149,-52.136883,4.6423673)" />
  <polyline
     class="Stem"
     fill="none"
     stroke="#000000"
     stroke-width="2.48"
     stroke-linejoin="bevel"
     points="1945.01,1047.56 1945.01,1117.8"
     id="polyline140"
     transform="matrix(0.40878179,0,0,0.57001149,-52.136883,4.6423673)" />
  <polyline
     class="Stem"
     fill="none"
     stroke="#000000"
     stroke-width="2.48"
     stroke-linejoin="bevel"
     points="1102.1,539.165 1102.1,596.998"
     id="polyline142"
     transform="matrix(0.40878179,0,0,0.57001149,-52.136883,4.6423673)" />
  <path
     class="Note"
     d="m 418.05623,601.76902 c 0,2.42967 1.2545,5.14208 4.54297,5.14208 4.21352,0 8.63609,-4.80634 8.63609,-9.78054 0,-3.33971 -2.02756,-5.20393 -4.54297,-5.20393 -3.93472,0 -8.63609,4.63847 -8.63609,9.84239"
     id="path144"
     style="stroke-width:0.47885" />
  <path
     class="Note"
     d="m 665.09527,580.5646 c 0,2.42967 1.25458,5.14207 4.54305,5.14207 4.21352,0 8.63609,-4.80634 8.63609,-9.78055 0,-3.33969 -2.02756,-5.2039 -4.54297,-5.2039 -3.93472,0 -8.63617,4.63845 -8.63617,9.84238"
     id="path146"
     style="stroke-width:0.47885" />
  <path
     class="Note"
     d="m 238.80988,234.22448 c 0,2.42967 1.25459,5.14208 4.54297,5.14208 4.21352,0 8.63617,-4.80635 8.63617,-9.78056 0,-3.33969 -2.02756,-5.2039 -4.54297,-5.2039 -3.93472,0 -8.63617,4.63845 -8.63617,9.84238"
     id="path148"
     style="stroke-width:0.47885" />
  <path
     class="Note"
     d="m 701.0027,234.22448 c 0,2.42967 1.2545,5.14208 4.54297,5.14208 4.21352,0 8.63617,-4.80635 8.63617,-9.78056 0,-3.33969 -2.02756,-5.2039 -4.54305,-5.2039 -3.93472,0 -8.63609,4.63845 -8.63609,9.84238"
     id="path150"
     style="stroke-width:0.47885" />
  <path
     class="Note"
     d="m 469.90605,255.4289 c 0,2.42967 1.25459,5.14208 4.54305,5.14208 4.21352,0 8.63609,-4.80635 8.63609,-9.78055 0,-3.3397 -2.02756,-5.2039 -4.54297,-5.2039 -3.93472,0 -8.63617,4.63845 -8.63617,9.84237"
     id="path152"
     style="stroke-width:0.47885" />
  <path
     class="Note"
     d="m 932.09516,255.4289 c 0,2.42967 1.2546,5.14208 4.5431,5.14208 4.2134,0 8.6361,-4.80635 8.6361,-9.78055 0,-3.3397 -2.0276,-5.2039 -4.543,-5.2039 -3.9347,0 -8.6362,4.63845 -8.6362,9.84237"
     id="path154"
     style="stroke-width:0.47885" />
  <path
     class="Note"
     d="m 843.42902,570.72222 c -3.9348,0 -8.63617,4.58545 -8.63617,9.84238 0,2.42967 1.25458,5.14207 4.54297,5.14207 4.21352,0 8.63617,-4.80634 8.63617,-9.78055 0,-3.33969 -2.02756,-5.2039 -4.54297,-5.2039 m -5.59483,12.32506 c -1.33691,0 -1.62203,-1.51965 -1.62203,-2.03209 0,-2.77424 6.81133,-7.63359 8.71849,-7.63359 0.97578,0 1.62203,0.79516 1.62203,2.03209 0,2.82726 -6.85565,7.63359 -8.71849,7.63359"
     id="path156"
     style="stroke-width:0.47885" />
  <path
     class="Note"
     d="m 171.01302,580.5646 c 0,2.42967 1.25451,5.14207 4.54297,5.14207 4.21352,0 8.63617,-4.80634 8.63617,-9.78055 0,-3.33969 -2.02756,-5.2039 -4.54305,-5.2039 -3.93472,0 -8.63609,4.63845 -8.63609,9.84238"
     id="path158"
     style="stroke-width:0.47885" />
  <path
     class="Note"
     d="m 349.34471,648.47181 c -3.93472,0 -8.63617,4.58544 -8.63617,9.84237 0,2.42962 1.25458,5.14206 4.54297,5.14206 4.2136,0 8.63617,-4.80633 8.63617,-9.78052 0,-3.33975 -2.02756,-5.20391 -4.54297,-5.20391 m -5.59483,12.32508 c -1.33691,0 -1.62204,-1.51966 -1.62204,-2.03212 0,-2.77429 6.81134,-7.63362 8.7185,-7.63362 0.97578,0 1.62203,0.79518 1.62203,2.03212 0,2.82721 -6.85566,7.63362 -8.71849,7.63362"
     id="path160"
     style="stroke-width:0.47885" />
  <path
     class="Note"
     d="m 989.48406,679.51858 c 0,2.42971 1.2546,5.14206 4.543,5.14206 4.2135,0 8.63614,-4.80632 8.63614,-9.78051 0,-3.33967 -2.0275,-5.20392 -4.54304,-5.20392 -3.9347,0 -8.6361,4.63846 -8.6361,9.84237"
     id="path162"
     style="stroke-width:0.47885" />
  <path
     class="Note"
     d="m 541.93755,269.56518 c 0,2.42968 1.25451,5.14209 4.54297,5.14209 4.21353,0 8.6361,-4.80635 8.6361,-9.78055 0,-3.3397 -2.02756,-5.20391 -4.54297,-5.20391 -3.93472,0 -8.6361,4.63846 -8.6361,9.84237"
     id="path164"
     style="stroke-width:0.47885" />
  <path
     class="Note"
     d="m 248.35863,601.76902 c 0,2.42967 1.2545,5.14208 4.54297,5.14208 4.21352,0 8.63617,-4.80634 8.63617,-9.78054 0,-3.33971 -2.02756,-5.20393 -4.54305,-5.20393 -3.93472,0 -8.63609,4.63847 -8.63609,9.84239"
     id="path166"
     style="stroke-width:0.47885" />
  <path
     class="Note"
     d="m 495.40183,615.9053 c 0,2.42968 1.25451,5.14208 4.54297,5.14208 4.21353,0 8.6361,-4.80634 8.6361,-9.78054 0,-3.3397 -2.02756,-5.20392 -4.54297,-5.20392 -3.93472,0 -8.6361,4.63847 -8.6361,9.84238"
     id="path168"
     style="stroke-width:0.47885" />
  <path
     class="Note"
     d="m 102.30313,669.67621 c -3.934715,0 -8.636125,4.58545 -8.636125,9.84237 0,2.42971 1.25454,5.14206 4.54298,5.14206 4.213555,0 8.636145,-4.80632 8.636145,-9.78051 0,-3.33967 -2.02756,-5.20392 -4.543,-5.20392 m -5.594795,12.32509 c -1.33693,0 -1.62205,-1.51967 -1.62205,-2.03212 0,-2.77421 6.811335,-7.63363 8.718505,-7.63363 0.97578,0 1.62205,0.79519 1.62205,2.03212 0,2.8273 -6.855675,7.63363 -8.718505,7.63363"
     id="path170"
     style="stroke-width:0.47885" />
  <path
     class="Note"
     d="m 175.41543,323.33609 c -3.93472,0 -8.63617,4.58545 -8.63617,9.84238 0,2.42967 1.25458,5.14208 4.54297,5.14208 4.2136,0 8.63617,-4.80635 8.63617,-9.78055 0,-3.3397 -2.02756,-5.20391 -4.54297,-5.20391 m -5.59483,12.32507 c -1.33691,0 -1.62204,-1.51966 -1.62204,-2.03209 0,-2.77425 6.81134,-7.6336 8.7185,-7.6336 0.97578,0 1.62203,0.79516 1.62203,2.03209 0,2.82726 -6.85566,7.6336 -8.71849,7.6336"
     id="path172"
     style="stroke-width:0.47885" />
  <path
     class="Note"
     d="m 1004.1266,255.4289 c 0,2.42967 1.2546,5.14208 4.5431,5.14208 4.2135,0 8.6361,-4.80635 8.6361,-9.78055 0,-3.3397 -2.0276,-5.2039 -4.543,-5.2039 -3.9347,0 -8.6362,4.63845 -8.6362,9.84237"
     id="path174"
     style="stroke-width:0.47885" />
  <path
     class="Note"
     d="m 310.84051,255.4289 c 0,2.42967 1.25458,5.14208 4.54297,5.14208 4.21352,0 8.63617,-4.80635 8.63617,-9.78055 0,-3.3397 -2.02756,-5.2039 -4.54297,-5.2039 -3.93472,0 -8.63617,4.63845 -8.63617,9.84237"
     id="path176"
     style="stroke-width:0.47885" />
  <path
     class="Note"
     d="m 596.38583,669.67621 c -3.93472,0 -8.63617,4.58545 -8.63617,9.84237 0,2.42971 1.25459,5.14206 4.54305,5.14206 4.21352,0 8.63609,-4.80632 8.63609,-9.78051 0,-3.33967 -2.02756,-5.20392 -4.54297,-5.20392 M 590.791,682.0013 c -1.33691,0 -1.62203,-1.51967 -1.62203,-2.03212 0,-2.77421 6.81133,-7.63363 8.71849,-7.63363 0.97578,0 1.62203,0.79519 1.62203,2.03212 0,2.8273 -6.85565,7.63363 -8.71849,7.63363"
     id="path178"
     style="stroke-width:0.47885" />
  <path
     class="Note"
     d="m 868.69984,302.13167 c -3.93472,0 -8.63609,4.58544 -8.63609,9.84238 0,2.42967 1.25458,5.14207 4.54297,5.14207 4.21352,0 8.63617,-4.80634 8.63617,-9.78055 0,-3.33969 -2.02756,-5.2039 -4.54305,-5.2039 m -5.59475,12.32506 c -1.33691,0 -1.62203,-1.51965 -1.62203,-2.03209 0,-2.77425 6.81133,-7.63359 8.71849,-7.63359 0.97578,0 1.62203,0.79516 1.62203,2.03209 0,2.82725 -6.85565,7.63359 -8.71849,7.63359"
     id="path180"
     style="stroke-width:0.47885" />
  <path
     class="Note"
     d="m 912.13846,679.51858 c 0,2.42971 1.2546,5.14206 4.543,5.14206 4.2135,0 8.6361,-4.80632 8.6361,-9.78051 0,-3.33967 -2.0275,-5.20392 -4.5429,-5.20392 -3.9348,0 -8.6362,4.63846 -8.6362,9.84237"
     id="path182"
     style="stroke-width:0.47885" />
  <path
     class="Note"
     d="m 773.03004,255.4289 c 0,2.42967 1.25451,5.14208 4.54297,5.14208 4.21353,0 8.63617,-4.80635 8.63617,-9.78055 0,-3.3397 -2.02756,-5.2039 -4.54304,-5.2039 -3.93472,0 -8.6361,4.63845 -8.6361,9.84237"
     id="path184"
     style="stroke-width:0.47885" />
  <path
     class="Note"
     d="m 742.44088,601.76902 c 0,2.42967 1.25458,5.14208 4.54305,5.14208 4.21344,0 8.63609,-4.80634 8.63609,-9.78054 0,-3.33971 -2.02756,-5.20393 -4.54297,-5.20393 -3.93472,0 -8.63617,4.63847 -8.63617,9.84239"
     id="path186"
     style="stroke-width:0.47885" />
  <path
     class="Note"
     d="m 406.5108,302.13167 c -3.9348,0 -8.63617,4.58544 -8.63617,9.84238 0,2.42967 1.25458,5.14207 4.54297,5.14207 4.21352,0 8.63617,-4.80634 8.63617,-9.78055 0,-3.33969 -2.02756,-5.2039 -4.54297,-5.2039 m -5.59483,12.32506 c -1.33691,0 -1.62204,-1.51965 -1.62204,-2.03209 0,-2.77425 6.81134,-7.63359 8.7185,-7.63359 0.97578,0 1.62203,0.79516 1.62203,2.03209 0,2.82725 -6.85566,7.63359 -8.71849,7.63359"
     id="path188"
     style="stroke-width:0.47885" />
  <path
     class="Note"
     d="m 637.60737,323.33609 c -3.93472,0 -8.63609,4.58545 -8.63609,9.84238 0,2.42967 1.2545,5.14208 4.54297,5.14208 4.21352,0 8.63609,-4.80635 8.63609,-9.78055 0,-3.3397 -2.02756,-5.20391 -4.54297,-5.20391 m -5.59475,12.32507 c -1.33699,0 -1.62212,-1.51966 -1.62212,-2.03209 0,-2.77425 6.81134,-7.6336 8.7185,-7.6336 0.97578,0 1.62211,0.79516 1.62211,2.03209 0,2.82726 -6.85574,7.6336 -8.71849,7.6336"
     id="path190"
     style="stroke-width:0.47885" />
  <path
     class="Clef"
     d="m 119.01433,267.02066 c 0,-8.48178 -4.34023,-14.25115 -10.25818,-14.25115 -0.40551,-3.39271 -0.77299,-6.78542 -1.13414,-9.8954 4.25787,-6.28182 7.25484,-13.40295 7.25484,-22.33533 0,-5.20391 -1.13417,-9.32994 -1.8248,-11.37066 -0.96941,-2.88041 -2.14795,-4.92169 -2.83858,-4.92169 -0.27879,0 -1.57767,0.74244 -2.87661,2.94261 -2.63582,4.30252 -3.36445,11.47669 -3.36445,16.22999 0,3.05699 0.20275,5.8224 0.89338,12.21906 -0.0443,0 -2.15428,2.99513 -3.00334,4.01119 -3.693935,4.75331 -8.800865,11.64475 -8.800865,22.90077 0,10.62875 6.60858,18.94264 14.154915,18.94264 1.17217,0 2.26831,-0.16788 3.24409,-0.39757 0.72863,5.4336 1.21654,9.39176 1.21654,12.3869 0,5.88425 -2.19232,8.99423 -6.24744,8.99423 -1.01377,0 -1.8628,-0.28272 -1.90716,-0.34458 -0.076,0 -0.15839,-0.053 -0.15839,-0.10603 0,-0.11484 0.0824,-0.1767 0.20275,-0.22974 1.90716,-0.39756 3.808,-2.65937 3.808,-6.27295 0,-3.05699 -1.66008,-6.28182 -4.70141,-6.28182 -2.800555,0 -4.625355,3.22483 -4.625355,6.95329 0,3.73731 2.027555,8.65848 7.501965,8.65848 5.23362,0 7.78708,-4.13487 7.78708,-11.37088 0,-2.19995 -0.24075,-4.74449 -0.64626,-7.96931 -0.12041,-1.1309 -0.32316,-2.88912 -0.60827,-5.03607 3.97272,-1.86424 6.93169,-7.58056 6.93169,-13.45598 m -12.4885,-46.31399 c 0.40552,-2.26181 2.23032,-8.19905 4.34027,-8.19905 0.60827,0 1.62205,2.71236 1.62205,6.67052 0,5.8224 -3.16173,10.23999 -5.96232,14.13628 -0.24075,-2.2618 -0.44351,-4.52361 -0.44351,-6.8384 0,-2.14696 0.1584,-4.02001 0.44351,-5.76935 m 1.21654,58.47118 c -5.79752,0 -10.746055,-5.65452 -10.746055,-14.19812 0,-6.89147 3.529245,-13.05839 7.058455,-17.41413 0.6843,-0.79518 1.33693,-1.64336 1.9452,-2.42968 0.36114,3.04812 0.69062,5.65451 0.93138,8.03116 -3.69393,1.46667 -6.20303,6.9533 -6.20303,12.21023 0,4.02 2.23031,9.4448 5.4744,9.4448 0.32311,0 0.69062,-0.22968 0.69062,-0.79513 0,-0.45061 -0.36751,-0.78637 -0.89337,-1.23696 -1.58405,-1.3076 -2.47744,-2.82725 -2.47744,-5.54849 0,-3.44571 1.86917,-6.21999 4.21984,-7.0063 l 2.35071,18.54504 c -0.81102,0.28273 -1.53969,0.39758 -2.35071,0.39758 m 4.05511,-1.07787 c -0.84902,-6.72358 -1.94516,-15.7178 -2.23031,-18.20934 4.09315,0 5.84192,3.95818 6.20307,6.67942 0.0443,0.4506 0.12039,1.06905 0.12039,1.74937 0,4.07301 -1.21653,8.19904 -4.09315,9.78055 m -1.58401,29.63317 c 0,-2.09393 -1.37493,-2.99509 -2.71186,-2.99509 -1.7044,0 -3.37081,1.46661 -3.37081,4.01115 0,1.07791 0.28512,1.87305 0.89339,2.65937 -1.05178,0.56545 -2.14796,1.69635 -2.14796,3.45457 0,1.86423 1.21654,3.10998 3.00333,3.10998 2.18596,0 3.72565,-1.69636 3.72565,-4.13486 0,-1.29879 -0.40552,-2.36783 -1.13418,-3.10999 1.17854,-0.73333 1.74244,-1.6345 1.74244,-2.99513 m -2.5091,2.2618 c -0.60827,-0.45055 -0.77302,-0.56545 -0.89338,-0.68029 l -0.0444,-0.053 c -0.6463,-0.51246 -0.84906,-0.91004 -0.84906,-1.58151 0,-1.02488 0.57027,-1.75821 1.38129,-1.75821 0.81103,0 1.25454,0.6803 1.25454,1.86423 0,0.91004 -0.24076,1.52848 -0.84902,2.20877 m -1.54602,6.78542 c -0.88706,0 -1.49532,-0.78632 -1.49532,-1.97908 0,-1.06904 0.36116,-2.03207 1.05178,-2.59752 0.16475,0.11485 0.20275,0.16789 0.32315,0.22087 0.48787,0.34458 0.48787,0.34458 0.57027,0.45943 0.81103,0.61849 1.09614,1.18394 1.09614,1.97908 0,1.06904 -0.65263,1.91722 -1.54602,1.91722"
     id="path192"
     style="stroke-width:0.47885" />
  <path
     class="Clef"
     d="m 68.325385,613.36078 c 0,-8.48177 -4.34023,-14.25115 -10.25818,-14.25115 -0.40551,-3.39271 -0.77299,-6.78542 -1.13414,-9.89539 4.25788,-6.28182 7.25485,-13.40297 7.25485,-22.33534 0,-5.2039 -1.13418,-9.32994 -1.82481,-11.37066 -0.96941,-2.88041 -2.14795,-4.92169 -2.83858,-4.92169 -0.27879,0 -1.57768,0.74244 -2.87661,2.94261 -2.63583,4.30252 -3.36445,11.47669 -3.36445,16.22999 0,3.057 0.20276,5.82241 0.89338,12.21907 -0.0444,0 -2.15428,2.99513 -3.00333,4.01118 -3.69393,4.75332 -8.80086,11.64476 -8.80086,22.90077 0,10.62873 6.60857,18.94263 14.1549,18.94263 1.17217,0 2.26831,-0.16787 3.2441,-0.39758 0.72862,5.43363 1.21653,9.39179 1.21653,12.38692 0,5.88422 -2.19232,8.99425 -6.24743,8.99425 -1.01378,0 -1.8628,-0.28273 -1.90717,-0.34458 -0.076,0 -0.15839,-0.0527 -0.15839,-0.10602 0,-0.11486 0.0824,-0.17671 0.20276,-0.22972 1.90716,-0.39759 3.80799,-2.65943 3.80799,-6.27301 0,-3.05697 -1.66008,-6.28181 -4.70142,-6.28181 -2.80054,0 -4.62534,3.22484 -4.62534,6.95328 0,3.73729 2.02756,8.65848 7.50196,8.65848 5.23362,0 7.78708,-4.13485 7.78708,-11.37087 0,-2.19997 -0.24075,-4.74449 -0.64627,-7.96933 -0.12039,-1.13091 -0.32315,-2.88911 -0.60826,-5.03606 3.97271,-1.86422 6.93169,-7.58057 6.93169,-13.45597 m -12.48849,-46.31399 c 0.40551,-2.26181 2.23031,-8.19905 4.34027,-8.19905 0.60827,0 1.62205,2.71236 1.62205,6.67052 0,5.8224 -3.16175,10.24 -5.96232,14.13631 -0.24076,-2.26181 -0.44352,-4.52361 -0.44352,-6.83842 0,-2.14697 0.1584,-4.02002 0.44352,-5.76936 m 1.21653,58.47119 c -5.79752,0 -10.74605,-5.65452 -10.74605,-14.19813 0,-6.89144 3.52924,-13.05839 7.05844,-17.41413 0.68431,-0.79517 1.33694,-1.64335 1.9452,-2.42968 0.36115,3.04813 0.69063,5.65452 0.93139,8.03117 -3.69393,1.46664 -6.20304,6.95329 -6.20304,12.21022 0,4.02001 2.23032,9.44481 5.47441,9.44481 0.32312,0 0.69063,-0.22971 0.69063,-0.79516 0,-0.4506 -0.36751,-0.78634 -0.89339,-1.23694 -1.58404,-1.3076 -2.47743,-2.82725 -2.47743,-5.54849 0,-3.44571 1.86917,-6.21996 4.21984,-7.00629 l 2.35071,18.54504 c -0.81103,0.28273 -1.53968,0.39758 -2.35071,0.39758 m 4.05512,-1.07789 c -0.84903,-6.72357 -1.94516,-15.71779 -2.23032,-18.20931 4.09315,0 5.84192,3.95816 6.20307,6.6794 0.0444,0.4506 0.12039,1.06906 0.12039,1.74937 0,4.07301 -1.21653,8.19904 -4.09314,9.78054 m -1.58402,29.63322 c 0,-2.09397 -1.37492,-2.99517 -2.71185,-2.99517 -1.70441,0 -3.37082,1.46666 -3.37082,4.01114 0,1.07792 0.28512,1.8731 0.89338,2.65944 -1.05177,0.56546 -2.14795,1.69638 -2.14795,3.45452 0,1.86425 1.21654,3.11004 3.00334,3.11004 2.18595,0 3.72563,-1.69638 3.72563,-4.13485 0,-1.29879 -0.40551,-2.36786 -1.13416,-3.11004 1.17853,-0.73332 1.74243,-1.63452 1.74243,-2.99508 m -2.5091,2.26176 c -0.60827,-0.4506 -0.77302,-0.56547 -0.89338,-0.68033 l -0.0443,-0.0527 c -0.6463,-0.51245 -0.84906,-0.90995 -0.84906,-1.58142 0,-1.02491 0.57027,-1.75824 1.38129,-1.75824 0.81102,0 1.25454,0.68032 1.25454,1.86425 0,0.90995 -0.24076,1.52842 -0.84903,2.20874 m -1.54601,6.78544 c -0.88706,0 -1.49533,-0.78634 -1.49533,-1.97911 0,-1.06907 0.36115,-2.03203 1.05178,-2.59749 0.16476,0.11486 0.20276,0.16787 0.32315,0.22087 0.48788,0.34459 0.48788,0.34459 0.57027,0.45945 0.81103,0.61847 1.09614,1.18384 1.09614,1.97902 0,1.06907 -0.65263,1.91726 -1.54601,1.91726"
     id="path194"
     style="stroke-width:0.47885" />
  <path
     class="TimeSig"
     d="m 141.20974,238.29749 c 2.02756,-1.07789 3.44686,-2.88911 3.44686,-5.99907 0,-0.50364 -0.12037,-6.90032 -7.09646,-6.90032 -6.97605,0 -6.7733,6.90032 -6.7733,6.90032 h 0.038 l -0.038,0.11484 c 0,2.03209 1.17851,3.62242 2.63582,3.62242 1.45733,0 2.59783,-1.59033 2.59783,-3.62242 0,-1.64337 -0.89342,-3.22482 -2.02758,-3.56059 0.038,-0.0619 0.076,-0.11484 0.12039,-0.16788 0.56394,-0.56545 1.33692,-0.84817 2.10994,-0.84817 1.69809,0 3.52289,1.41362 3.52289,4.4618 0,3.56056 -1.90084,4.073 -2.38874,4.18786 -0.48788,0.11485 -2.75619,0.33574 -3.24409,0.33574 -0.48788,0 -0.5259,0.79516 -0.5259,0.79516 v 1.13091 c 0,0 0.076,0.61845 0.5259,0.6803 0.69066,0.053 1.62204,0.053 2.92097,0.33574 1.78043,0.33573 2.71186,2.03209 2.71186,5.99028 0,3.79028 -1.8248,4.80634 -3.52289,4.80634 -1.14049,0 -2.19231,-0.45061 -2.63584,-0.90122 1.33691,-0.11484 2.43309,-1.74933 2.43309,-3.62239 0,-2.03212 -1.1405,-3.67547 -2.59783,-3.67547 -1.45731,0 -2.63582,1.64335 -2.63582,3.67547 0,4.63845 3.04133,6.96212 6.04467,6.96212 3.89036,0 8.11023,-1.87306 8.11023,-8.03122 0,-4.12602 -2.02756,-5.88422 -3.81436,-6.67055 h 0.0824"
     id="path196"
     style="stroke-width:0.47885" />
  <path
     class="TimeSig"
     d="m 137.01525,274.37152 v 4.17907 h -3.36449 c -0.28512,0 -0.57023,0.34454 -0.57023,0.79513 v 1.07793 c 0,0.45055 0.28511,0.78631 0.57023,0.78631 h 12.28574 c 0.32948,0 0.57024,-0.33576 0.57024,-0.78631 v -1.07793 c 0,-0.45059 -0.24076,-0.79513 -0.57024,-0.79513 h -3.60524 v -4.17907 h 3.60524 c 0.32948,0 0.57024,-0.39758 0.57024,-0.84819 v -1.07787 c 0,-0.39759 -0.24076,-0.78634 -0.57024,-0.78634 h -3.60524 v -8.99421 c 0,-0.33573 -0.12039,-0.61846 -0.32315,-0.73332 l -0.48786,-0.34457 c -0.0824,-0.053 -0.20276,-0.10605 -0.28516,-0.10605 -0.12036,0.0531 -0.28512,0.10605 -0.36748,0.22091 l -3.68763,4.69148 c -0.12037,0.1767 -0.16473,0.39758 -0.16473,0.6273 v 4.63846 h -4.66339 c 0,0 4.505,-6.78542 9.28874,-15.72664 0.16475,-0.28273 0.20276,-0.56546 0.20276,-0.78631 0,-0.28273 -0.0824,-0.51242 -0.12036,-0.56545 l -0.89342,-1.24576 c -0.0824,-0.11484 -0.24076,-0.22974 -0.40552,-0.22974 -0.24075,0 -5.72148,0 -6.00027,0 -0.32948,0 -0.53223,0.34459 -0.57027,0.68035 0,0 -0.20276,4.18786 -1.25456,8.76448 -1.05812,4.58546 -2.27466,7.41272 -3.32645,9.49782 0,0 -0.12039,0.28273 -0.12039,0.6273 0,0.11485 0,0.22091 0.038,0.33575 0.16474,0.39757 0.40551,1.01606 0.40551,1.01606 0,0 0.0824,0.34454 0.44353,0.34454 h 6.97608"
     id="path198"
     style="stroke-width:0.47885" />
  <path
     class="Rest"
     d="m 597.07649,594.63904 c -0.0384,-0.053 -0.12041,-0.16787 -0.24081,-0.38876 l -4.66337,-8.03117 c -0.044,-0.0618 -0.0824,-0.22971 -0.0824,-0.34458 0,-0.16786 0.0384,-0.38874 0.0824,-0.5036 l 4.13112,-8.71149 c 0.044,-0.11485 0.0824,-0.28272 0.0824,-0.39758 v -0.5036 c 0,-0.16787 -0.0384,-0.34457 -0.1204,-0.45059 l -6.57053,-12.38693 c 0,0 -0.1584,-0.34457 -0.40553,-0.34457 -0.1204,0 -0.20272,0 -0.32313,0.1767 -0.16472,0.16787 -0.2028,0.38875 -0.2028,0.56545 0,0.33576 0.1204,0.61848 0.1204,0.61848 l 3.08574,5.88421 c 0.076,0.16788 0.12033,0.38875 0.12033,0.67148 0,0.22973 -0.044,0.51246 -0.12033,0.68028 l -4.09952,8.71151 c -0.0376,0.11487 -0.0823,0.33574 -0.0823,0.4506 v 0.51244 c 0,0.16787 0.044,0.33574 0.12672,0.4506 l 4.53665,7.8633 c -0.1584,-0.0619 -0.52593,-0.1767 -1.01378,-0.1767 -2.06556,0 -3.68767,2.37666 -3.68767,5.26576 0,0.78634 0.1204,1.5815 0.44353,2.19996 0.85538,1.81122 3.89672,7.183 3.89672,7.183 0,0 0.2028,0.34458 0.48793,0.34458 0.076,0 0.1584,0 0.24072,-0.11486 0.2028,-0.22972 0.28513,-0.45059 0.28513,-0.68031 0,-0.22971 -0.0823,-0.39758 -0.12033,-0.51244 -0.12672,-0.28272 -1.4193,-3.56058 -1.4193,-3.56058 0,0 -0.28513,-0.79516 -0.28513,-1.81121 0,-1.81121 0.96938,-3.27785 2.26829,-3.27785 0.52593,0 0.97577,0.22971 1.2989,0.51244 l 1.58403,1.41363 c 0,0 0.15841,0.10602 0.32313,0.10602 0.1584,0 0.28512,-0.053 0.40553,-0.28272 0.0824,-0.16787 0.1204,-0.33574 0.1204,-0.50361 0,-0.16786 -0.0384,-0.28273 -0.1204,-0.45059 l -0.0823,-0.1767"
     id="path200"
     style="stroke-width:0.47885" />
  <path
     class="Rest"
     d="m 782.35679,333.11665 c -0.0384,-0.053 -0.1204,-0.16789 -0.24073,-0.38874 l -4.66345,-8.03121 c -0.044,-0.0619 -0.0823,-0.22972 -0.0823,-0.34457 0,-0.16787 0.0384,-0.38875 0.0823,-0.50361 l 4.1312,-8.71147 c 0.044,-0.1149 0.0823,-0.28273 0.0823,-0.39763 v -0.50359 c 0,-0.16788 -0.0384,-0.34458 -0.12033,-0.4506 l -6.57061,-12.38689 c 0,0 -0.1584,-0.34459 -0.40553,-0.34459 -0.12032,0 -0.20272,0 -0.32312,0.1767 -0.16472,0.16789 -0.20273,0.38875 -0.20273,0.56545 0,0.33577 0.12041,0.61849 0.12041,0.61849 l 3.08566,5.88421 c 0.076,0.16788 0.1204,0.38874 0.1204,0.67147 0,0.22973 -0.044,0.51246 -0.1204,0.68029 l -4.09944,8.71152 c -0.0376,0.11485 -0.0824,0.33574 -0.0824,0.45059 v 0.51244 c 0,0.16787 0.0448,0.33574 0.12672,0.45059 l 4.53665,7.86332 c -0.15841,-0.0619 -0.52585,-0.17671 -1.01378,-0.17671 -2.06556,0 -3.6876,2.37667 -3.6876,5.2658 0,0.7863 0.12041,1.58145 0.44353,2.19994 0.85538,1.81119 3.89672,7.18299 3.89672,7.18299 0,0 0.20272,0.34457 0.48785,0.34457 0.076,0 0.1584,0 0.2408,-0.11483 0.20273,-0.22974 0.28513,-0.45062 0.28513,-0.68035 0,-0.2297 -0.0824,-0.39757 -0.1204,-0.51242 -0.12672,-0.28273 -1.41931,-3.56058 -1.41931,-3.56058 0,0 -0.28513,-0.79514 -0.28513,-1.81121 0,-1.81119 0.96946,-3.27786 2.26837,-3.27786 0.52585,0 0.97578,0.22975 1.2989,0.51247 l 1.58404,1.41363 c 0,0 0.1584,0.10602 0.32312,0.10602 0.15841,0 0.28513,-0.0531 0.40553,-0.28273 0.0823,-0.16789 0.1204,-0.33576 0.1204,-0.50364 0,-0.16783 -0.0384,-0.28273 -0.1204,-0.45055 l -0.0824,-0.17671"
     id="path202"
     style="stroke-width:0.47885" />
  <path
     class="Rest"
     d="m 751.76762,693.59305 c -0.0376,-0.0527 -0.12032,-0.16786 -0.24072,-0.38874 l -4.66337,-8.03122 c -0.044,-0.0617 -0.0824,-0.22972 -0.0824,-0.34458 0,-0.16787 0.0384,-0.38874 0.0824,-0.50361 l 4.13112,-8.71145 c 0.044,-0.11486 0.0824,-0.28273 0.0824,-0.39759 v -0.5036 c 0,-0.16787 -0.0384,-0.34459 -0.1204,-0.4506 l -6.57053,-12.38694 c 0,0 -0.15841,-0.34459 -0.40553,-0.34459 -0.1204,0 -0.2028,0 -0.32313,0.17672 -0.1648,0.16787 -0.2028,0.38874 -0.2028,0.56546 0,0.33574 0.1204,0.61847 0.1204,0.61847 l 3.08566,5.88423 c 0.076,0.16787 0.12041,0.38875 0.12041,0.67148 0,0.22972 -0.044,0.51245 -0.12041,0.68032 l -4.09944,8.71145 c -0.0384,0.11486 -0.0824,0.33574 -0.0824,0.4506 v 0.51245 c 0,0.16787 0.044,0.33574 0.12672,0.4506 l 4.53673,7.86335 c -0.1584,-0.0617 -0.52593,-0.17672 -1.01378,-0.17672 -2.06564,0 -3.68767,2.37661 -3.68767,5.26577 0,0.78634 0.1204,1.58143 0.44353,2.1999 0.85538,1.81124 3.89672,7.18302 3.89672,7.18302 0,0 0.2028,0.34459 0.48792,0.34459 0.076,0 0.15841,0 0.24073,-0.11486 0.2028,-0.22973 0.28513,-0.4506 0.28513,-0.68032 0,-0.22973 -0.0823,-0.3976 -0.12041,-0.51246 -0.12672,-0.28273 -1.41923,-3.56054 -1.41923,-3.56054 0,0 -0.28512,-0.79518 -0.28512,-1.81124 0,-1.81115 0.96938,-3.27781 2.26828,-3.27781 0.52593,0 0.97578,0.22972 1.29891,0.51245 l 1.58403,1.41356 c 0,0 0.1584,0.10602 0.32313,0.10602 0.1584,0 0.28512,-0.0527 0.40553,-0.28264 0.0824,-0.16787 0.1204,-0.33574 0.1204,-0.50361 0,-0.16787 -0.0376,-0.28273 -0.1204,-0.4506 l -0.0824,-0.17672"
     id="path204"
     style="stroke-width:0.47885" />
  <path
     class="Rest"
     d="m 998.81086,594.63904 c -0.038,-0.053 -0.1204,-0.16787 -0.2408,-0.38876 l -4.6634,-8.03117 c -0.044,-0.0618 -0.082,-0.22971 -0.082,-0.34458 0,-0.16786 0.038,-0.38874 0.082,-0.5036 l 4.1312,-8.71149 c 0.044,-0.11485 0.082,-0.28272 0.082,-0.39758 v -0.5036 c 0,-0.16787 -0.038,-0.34457 -0.1203,-0.45059 l -6.5706,-12.38693 c 0,0 -0.1584,-0.34457 -0.4055,-0.34457 -0.1204,0 -0.2028,0 -0.3232,0.1767 -0.1647,0.16787 -0.2027,0.38875 -0.2027,0.56545 0,0.33576 0.1204,0.61848 0.1204,0.61848 l 3.0857,5.88421 c 0.076,0.16788 0.1204,0.38875 0.1204,0.67148 0,0.22973 -0.044,0.51246 -0.1204,0.68028 l -4.0995,8.71151 c -0.038,0.11487 -0.082,0.33574 -0.082,0.4506 v 0.51244 c 0,0.16787 0.044,0.33574 0.1267,0.4506 l 4.5367,7.8633 c -0.1584,-0.0619 -0.5259,-0.1767 -1.0138,-0.1767 -2.0656,0 -3.6876,2.37666 -3.6876,5.26576 0,0.78634 0.1204,1.5815 0.4435,2.19996 0.8554,1.81122 3.8968,7.183 3.8968,7.183 0,0 0.2027,0.34458 0.4878,0.34458 0.076,0 0.1584,0 0.2408,-0.11486 0.2027,-0.22972 0.2851,-0.45059 0.2851,-0.68031 0,-0.22971 -0.082,-0.39758 -0.1204,-0.51244 -0.1267,-0.28272 -1.4193,-3.56058 -1.4193,-3.56058 0,0 -0.2851,-0.79516 -0.2851,-1.81121 0,-1.81121 0.9695,-3.27785 2.2684,-3.27785 0.5258,0 0.9757,0.22971 1.2989,0.51244 l 1.584,1.41363 c 0,0 0.1584,0.10602 0.3231,0.10602 0.1584,0 0.2852,-0.053 0.4056,-0.28272 0.082,-0.16787 0.1204,-0.33574 0.1204,-0.50361 0,-0.16786 -0.038,-0.28273 -0.1204,-0.45059 l -0.082,-0.1767"
     id="path206"
     style="stroke-width:0.47885" />
  <path
     class="Rest"
     d="m 869.39049,248.29894 c -0.0384,-0.0531 -0.1204,-0.16789 -0.24072,-0.38874 l -4.66337,-8.03121 c -0.044,-0.0619 -0.0824,-0.22972 -0.0824,-0.34458 0,-0.16787 0.0376,-0.38874 0.0824,-0.5036 l 4.13112,-8.71147 c 0.044,-0.1149 0.0823,-0.28273 0.0823,-0.39763 v -0.50358 c 0,-0.16789 -0.0384,-0.34459 -0.12032,-0.45061 l -6.57061,-12.3869 c 0,0 -0.15841,-0.34458 -0.40545,-0.34458 -0.1204,0 -0.2028,0 -0.32321,0.1767 -0.16472,0.16788 -0.20272,0.38876 -0.20272,0.56546 0,0.33576 0.1204,0.61848 0.1204,0.61848 l 3.08566,5.88421 c 0.076,0.16788 0.12041,0.38874 0.12041,0.67147 0,0.22974 -0.044,0.51247 -0.12041,0.68029 l -4.09944,8.71151 c -0.0376,0.11486 -0.0824,0.33574 -0.0824,0.4506 v 0.51244 c 0,0.16787 0.044,0.33573 0.12672,0.4506 l 4.53665,7.8633 c -0.1584,-0.0619 -0.52585,-0.1767 -1.01378,-0.1767 -2.06556,0 -3.68759,2.37668 -3.68759,5.2658 0,0.78631 0.1204,1.58145 0.44353,2.19994 0.85538,1.8112 3.89672,7.18298 3.89672,7.18298 0,0 0.20272,0.34459 0.48784,0.34459 0.076,0 0.15841,0 0.24081,-0.11484 0.20272,-0.22975 0.28513,-0.45061 0.28513,-0.68035 0,-0.22969 -0.0824,-0.39757 -0.12041,-0.51242 -0.12672,-0.28273 -1.41931,-3.56059 -1.41931,-3.56059 0,0 -0.28512,-0.79513 -0.28512,-1.8112 0,-1.81119 0.96946,-3.27786 2.26836,-3.27786 0.52593,0 0.97578,0.22975 1.29891,0.51247 l 1.58403,1.41363 c 0,0 0.1584,0.10602 0.32313,0.10602 0.1584,0 0.28512,-0.0531 0.40553,-0.28273 0.0823,-0.16788 0.1204,-0.33576 0.1204,-0.50364 0,-0.16783 -0.0384,-0.28273 -0.1204,-0.45055 l -0.0824,-0.17671"
     id="path208"
     style="stroke-width:0.47885" />
  <path
     class="Rest"
     d="m 320.16725,333.11665 c -0.0376,-0.053 -0.1204,-0.16789 -0.24073,-0.38874 l -4.66337,-8.03121 c -0.044,-0.0619 -0.0824,-0.22972 -0.0824,-0.34457 0,-0.16787 0.0384,-0.38875 0.0824,-0.50361 l 4.13112,-8.71147 c 0.044,-0.1149 0.0824,-0.28273 0.0824,-0.39763 v -0.50359 c 0,-0.16788 -0.0384,-0.34458 -0.12041,-0.4506 l -6.57061,-12.38689 c 0,0 -0.1584,-0.34459 -0.40544,-0.34459 -0.12041,0 -0.20281,0 -0.32321,0.1767 -0.16472,0.16789 -0.20272,0.38875 -0.20272,0.56545 0,0.33577 0.1204,0.61849 0.1204,0.61849 l 3.08566,5.88421 c 0.076,0.16788 0.1204,0.38874 0.1204,0.67147 0,0.22973 -0.044,0.51246 -0.1204,0.68029 l -4.09944,8.71152 c -0.0376,0.11485 -0.0824,0.33574 -0.0824,0.45059 v 0.51244 c 0,0.16787 0.0448,0.33574 0.12672,0.45059 l 4.53673,7.86332 c -0.15848,-0.0619 -0.52593,-0.17671 -1.01386,-0.17671 -2.06556,0 -3.68759,2.37667 -3.68759,5.2658 0,0.7863 0.1204,1.58145 0.44352,2.19994 0.85538,1.81119 3.89672,7.18299 3.89672,7.18299 0,0 0.20273,0.34457 0.48793,0.34457 0.076,0 0.15832,0 0.24073,-0.11483 0.20272,-0.22974 0.28512,-0.45062 0.28512,-0.68035 0,-0.2297 -0.0824,-0.39757 -0.1204,-0.51242 -0.12672,-0.28273 -1.41931,-3.56058 -1.41931,-3.56058 0,0 -0.28512,-0.79514 -0.28512,-1.81121 0,-1.81119 0.96945,-3.27786 2.26836,-3.27786 0.52593,0 0.97578,0.22975 1.29891,0.51247 l 1.58403,1.41363 c 0,0 0.1584,0.10602 0.32312,0.10602 0.15841,0 0.28513,-0.0531 0.40553,-0.28273 0.0824,-0.16789 0.1204,-0.33576 0.1204,-0.50364 0,-0.16783 -0.0384,-0.28273 -0.1204,-0.45055 l -0.0824,-0.17671"
     id="path210"
     style="stroke-width:0.47885" />
  <path
     class="Rest"
     d="m 407.20137,248.29894 c -0.0376,-0.0531 -0.12032,-0.16789 -0.24072,-0.38874 l -4.66338,-8.03121 c -0.044,-0.0619 -0.0824,-0.22972 -0.0824,-0.34458 0,-0.16787 0.0384,-0.38874 0.0824,-0.5036 l 4.13113,-8.71147 c 0.044,-0.1149 0.0824,-0.28273 0.0824,-0.39763 v -0.50358 c 0,-0.16789 -0.0384,-0.34459 -0.12041,-0.45061 l -6.57053,-12.3869 c 0,0 -0.1584,-0.34458 -0.40552,-0.34458 -0.12041,0 -0.20281,0 -0.32313,0.1767 -0.1648,0.16788 -0.2028,0.38876 -0.2028,0.56546 0,0.33576 0.1204,0.61848 0.1204,0.61848 l 3.08566,5.88421 c 0.076,0.16788 0.1204,0.38874 0.1204,0.67147 0,0.22974 -0.044,0.51247 -0.1204,0.68029 l -4.09944,8.71151 c -0.0384,0.11486 -0.0824,0.33574 -0.0824,0.4506 v 0.51244 c 0,0.16787 0.044,0.33573 0.12672,0.4506 l 4.53665,7.8633 c -0.1584,-0.0619 -0.52585,-0.1767 -1.0137,-0.1767 -2.06564,0 -3.68767,2.37668 -3.68767,5.2658 0,0.78631 0.1204,1.58145 0.44353,2.19994 0.85537,1.8112 3.89671,7.18298 3.89671,7.18298 0,0 0.20273,0.34459 0.48785,0.34459 0.076,0 0.1584,0 0.24081,-0.11484 0.20272,-0.22975 0.28512,-0.45061 0.28512,-0.68035 0,-0.22969 -0.0824,-0.39757 -0.1204,-0.51242 -0.12672,-0.28273 -1.41931,-3.56059 -1.41931,-3.56059 0,0 -0.28504,-0.79513 -0.28504,-1.8112 0,-1.81119 0.96938,-3.27786 2.26828,-3.27786 0.52593,0 0.97578,0.22975 1.29891,0.51247 l 1.58403,1.41363 c 0,0 0.1584,0.10602 0.32312,0.10602 0.15841,0 0.28513,-0.0531 0.40553,-0.28273 0.0824,-0.16788 0.1204,-0.33576 0.1204,-0.50364 0,-0.16783 -0.0376,-0.28273 -0.1204,-0.45055 l -0.0824,-0.17671"
     id="path212"
     style="stroke-width:0.47885" />
  <path
     class="Rest"
     d="m 638.29802,248.29894 c -0.0376,-0.0531 -0.1204,-0.16789 -0.2408,-0.38874 l -4.66338,-8.03121 c -0.044,-0.0619 -0.0823,-0.22972 -0.0823,-0.34458 0,-0.16787 0.0384,-0.38874 0.0823,-0.5036 l 4.1312,-8.71147 c 0.044,-0.1149 0.0823,-0.28273 0.0823,-0.39763 v -0.50358 c 0,-0.16789 -0.0376,-0.34459 -0.12041,-0.45061 l -6.57053,-12.3869 c 0,0 -0.1584,-0.34458 -0.40552,-0.34458 -0.12041,0 -0.20273,0 -0.32313,0.1767 -0.16472,0.16788 -0.20272,0.38876 -0.20272,0.56546 0,0.33576 0.12032,0.61848 0.12032,0.61848 l 3.08574,5.88421 c 0.076,0.16788 0.1204,0.38874 0.1204,0.67147 0,0.22974 -0.044,0.51247 -0.1204,0.68029 l -4.09952,8.71151 c -0.0384,0.11486 -0.0823,0.33574 -0.0823,0.4506 v 0.51244 c 0,0.16787 0.044,0.33573 0.12672,0.4506 l 4.53665,7.8633 c -0.1584,-0.0619 -0.52593,-0.1767 -1.01378,-0.1767 -2.06556,0 -3.68759,2.37668 -3.68759,5.2658 0,0.78631 0.12032,1.58145 0.44352,2.19994 0.85538,1.8112 3.89672,7.18298 3.89672,7.18298 0,0 0.20273,0.34459 0.48785,0.34459 0.076,0 0.1584,0 0.24081,-0.11484 0.20272,-0.22975 0.28512,-0.45061 0.28512,-0.68035 0,-0.22969 -0.0824,-0.39757 -0.1204,-0.51242 -0.12672,-0.28273 -1.41931,-3.56059 -1.41931,-3.56059 0,0 -0.28512,-0.79513 -0.28512,-1.8112 0,-1.81119 0.96945,-3.27786 2.26836,-3.27786 0.52585,0 0.9757,0.22975 1.29891,0.51247 l 1.58403,1.41363 c 0,0 0.1584,0.10602 0.32312,0.10602 0.15841,0 0.28513,-0.0531 0.40545,-0.28273 0.0824,-0.16788 0.1204,-0.33576 0.1204,-0.50364 0,-0.16783 -0.0376,-0.28273 -0.1204,-0.45055 l -0.0823,-0.17671"
     id="path214"
     style="stroke-width:0.47885" />
  <path
     class="Rest"
     d="m 1013.4535,333.11665 c -0.038,-0.053 -0.1204,-0.16789 -0.2408,-0.38874 l -4.6634,-8.03121 c -0.044,-0.0619 -0.082,-0.22972 -0.082,-0.34457 0,-0.16787 0.038,-0.38875 0.082,-0.50361 l 4.1311,-8.71147 c 0.045,-0.1149 0.082,-0.28273 0.082,-0.39763 v -0.50359 c 0,-0.16788 -0.038,-0.34458 -0.1204,-0.4506 l -6.5705,-12.38689 c 0,0 -0.1584,-0.34459 -0.4056,-0.34459 -0.1204,0 -0.2027,0 -0.3231,0.1767 -0.1647,0.16789 -0.2028,0.38875 -0.2028,0.56545 0,0.33577 0.1204,0.61849 0.1204,0.61849 l 3.0858,5.88421 c 0.076,0.16788 0.1203,0.38874 0.1203,0.67147 0,0.22973 -0.044,0.51246 -0.1203,0.68029 l -4.0996,8.71152 c -0.038,0.11485 -0.082,0.33574 -0.082,0.45059 v 0.51244 c 0,0.16787 0.044,0.33574 0.1267,0.45059 l 4.5367,7.86332 c -0.1584,-0.0619 -0.5259,-0.17671 -1.0138,-0.17671 -2.0655,0 -3.6877,2.37667 -3.6877,5.2658 0,0.7863 0.1204,1.58145 0.4436,2.19994 0.8553,1.81119 3.8967,7.18299 3.8967,7.18299 0,0 0.2028,0.34457 0.4879,0.34457 0.076,0 0.1584,0 0.2407,-0.11483 0.2028,-0.22974 0.2852,-0.45062 0.2852,-0.68035 0,-0.2297 -0.082,-0.39757 -0.1204,-0.51242 -0.1267,-0.28273 -1.4193,-3.56058 -1.4193,-3.56058 0,0 -0.2851,-0.79514 -0.2851,-1.81121 0,-1.81119 0.9694,-3.27786 2.2683,-3.27786 0.5259,0 0.9758,0.22975 1.2989,0.51247 l 1.584,1.41363 c 0,0 0.1584,0.10602 0.3232,0.10602 0.1584,0 0.2851,-0.0531 0.4055,-0.28273 0.082,-0.16789 0.1204,-0.33576 0.1204,-0.50364 0,-0.16783 -0.038,-0.28273 -0.1204,-0.45055 l -0.082,-0.17671"
     id="path216"
     style="stroke-width:0.47885" />
  <path
     class="Rest"
     d="m 102.99376,594.63904 c -0.038,-0.053 -0.12039,-0.16787 -0.24075,-0.38876 l -4.663385,-8.03117 c -0.0443,-0.0618 -0.0824,-0.22971 -0.0824,-0.34458 0,-0.16786 0.038,-0.38874 0.0824,-0.5036 l 4.131155,-8.71149 c 0.0443,-0.11485 0.0824,-0.28272 0.0824,-0.39758 v -0.5036 c 0,-0.16787 -0.038,-0.34457 -0.12039,-0.45059 l -6.570555,-12.38693 c 0,0 -0.15841,-0.34457 -0.40552,-0.34457 -0.12038,0 -0.20275,0 -0.32314,0.1767 -0.16474,0.16787 -0.20275,0.38875 -0.20275,0.56545 0,0.33576 0.12038,0.61848 0.12038,0.61848 l 3.08571,5.88421 c 0.076,0.16788 0.12036,0.38875 0.12036,0.67148 0,0.22973 -0.0443,0.51246 -0.12036,0.68028 l -4.09948,8.71151 c -0.038,0.11487 -0.0824,0.33574 -0.0824,0.4506 v 0.51244 c 0,0.16787 0.0443,0.33574 0.12672,0.4506 l 4.53668,7.8633 c -0.15843,-0.0619 -0.52591,-0.1767 -1.0138,-0.1767 -2.06558,0 -3.68761,2.37666 -3.68761,5.26576 0,0.78634 0.12038,1.5815 0.44352,2.19996 0.85537,1.81122 3.8967,7.183 3.8967,7.183 0,0 0.20276,0.34458 0.48791,0.34458 0.076,0 0.15839,0 0.24076,-0.11486 0.20275,-0.22972 0.28511,-0.45059 0.28511,-0.68031 0,-0.22971 -0.0824,-0.39758 -0.12036,-0.51244 -0.12672,-0.28272 -1.41931,-3.56058 -1.41931,-3.56058 0,0 -0.28512,-0.79516 -0.28512,-1.81121 0,-1.81121 0.96944,-3.27785 2.26834,-3.27785 0.5259,0 0.975745,0.22971 1.298895,0.51244 l 1.58405,1.41363 c 0,0 0.15839,0.10602 0.32311,0.10602 0.15844,0 0.28516,-0.053 0.40552,-0.28272 0.0824,-0.16787 0.12039,-0.33574 0.12039,-0.50361 0,-0.16786 -0.038,-0.28273 -0.12039,-0.45059 l -0.0824,-0.1767"
     id="path218"
     style="stroke-width:0.47885" />
  <path
     class="Rest"
     d="m 176.106,248.29894 c -0.0384,-0.0531 -0.1204,-0.16789 -0.24072,-0.38874 l -4.66338,-8.03121 c -0.044,-0.0619 -0.0824,-0.22972 -0.0824,-0.34458 0,-0.16787 0.0384,-0.38874 0.0824,-0.5036 l 4.13113,-8.71147 c 0.044,-0.1149 0.0824,-0.28273 0.0824,-0.39763 v -0.50358 c 0,-0.16789 -0.0384,-0.34459 -0.1204,-0.45061 l -6.57061,-12.3869 c 0,0 -0.15841,-0.34458 -0.40545,-0.34458 -0.12041,0 -0.20281,0 -0.32321,0.1767 -0.16472,0.16788 -0.20272,0.38876 -0.20272,0.56546 0,0.33576 0.1204,0.61848 0.1204,0.61848 l 3.08566,5.88421 c 0.076,0.16788 0.1204,0.38874 0.1204,0.67147 0,0.22974 -0.044,0.51247 -0.1204,0.68029 l -4.09944,8.71151 c -0.0384,0.11486 -0.0824,0.33574 -0.0824,0.4506 v 0.51244 c 0,0.16787 0.044,0.33573 0.12672,0.4506 l 4.53673,7.8633 c -0.15848,-0.0619 -0.52593,-0.1767 -1.01386,-0.1767 -2.06556,0 -3.68759,2.37668 -3.68759,5.2658 0,0.78631 0.1204,1.58145 0.44353,2.19994 0.85537,1.8112 3.89671,7.18298 3.89671,7.18298 0,0 0.20273,0.34459 0.48793,0.34459 0.076,0 0.15833,0 0.24073,-0.11484 0.20272,-0.22975 0.28512,-0.45061 0.28512,-0.68035 0,-0.22969 -0.0824,-0.39757 -0.1204,-0.51242 -0.12672,-0.28273 -1.41931,-3.56059 -1.41931,-3.56059 0,0 -0.28512,-0.79513 -0.28512,-1.8112 0,-1.81119 0.96946,-3.27786 2.26836,-3.27786 0.52593,0 0.97578,0.22975 1.29891,0.51247 l 1.58403,1.41363 c 0,0 0.1584,0.10602 0.32312,0.10602 0.15841,0 0.28513,-0.0531 0.40553,-0.28273 0.0824,-0.16788 0.12041,-0.33576 0.12041,-0.50364 0,-0.16783 -0.0384,-0.28273 -0.12041,-0.45055 l -0.0824,-0.17671"
     id="path220"
     style="stroke-width:0.47885" />
  <path
     class="Rest"
     d="m 504.72858,693.59305 c -0.0376,-0.0527 -0.1204,-0.16786 -0.24081,-0.38874 l -4.66337,-8.03122 c -0.044,-0.0617 -0.0824,-0.22972 -0.0824,-0.34458 0,-0.16787 0.0384,-0.38874 0.0824,-0.50361 l 4.13112,-8.71145 c 0.0448,-0.11486 0.0824,-0.28273 0.0824,-0.39759 v -0.5036 c 0,-0.16787 -0.0376,-0.34459 -0.12041,-0.4506 l -6.57053,-12.38694 c 0,0 -0.1584,-0.34459 -0.40552,-0.34459 -0.12041,0 -0.20273,0 -0.32313,0.17672 -0.16472,0.16787 -0.20273,0.38874 -0.20273,0.56546 0,0.33574 0.12033,0.61847 0.12033,0.61847 l 3.08574,5.88423 c 0.076,0.16787 0.12032,0.38875 0.12032,0.67148 0,0.22972 -0.044,0.51245 -0.12032,0.68032 l -4.09952,8.71145 c -0.0384,0.11486 -0.0823,0.33574 -0.0823,0.4506 v 0.51245 c 0,0.16787 0.044,0.33574 0.12672,0.4506 l 4.53665,7.86335 c -0.15841,-0.0617 -0.52593,-0.17672 -1.01378,-0.17672 -2.06556,0 -3.6876,2.37661 -3.6876,5.26577 0,0.78634 0.12033,1.58143 0.44353,2.1999 0.85538,1.81124 3.89664,7.18302 3.89664,7.18302 0,0 0.2028,0.34459 0.48793,0.34459 0.076,0 0.1584,0 0.24072,-0.11486 0.20281,-0.22973 0.28513,-0.4506 0.28513,-0.68032 0,-0.22973 -0.0823,-0.3976 -0.12032,-0.51246 -0.12672,-0.28273 -1.41931,-3.56054 -1.41931,-3.56054 0,0 -0.28513,-0.79518 -0.28513,-1.81124 0,-1.81115 0.96938,-3.27781 2.26829,-3.27781 0.52593,0 0.97578,0.22972 1.29891,0.51245 l 1.58403,1.41356 c 0,0 0.1584,0.10602 0.3232,0.10602 0.15841,0 0.28513,-0.0527 0.40545,-0.28264 0.0824,-0.16787 0.1204,-0.33574 0.1204,-0.50361 0,-0.16787 -0.0376,-0.28273 -0.1204,-0.4506 l -0.0823,-0.17672"
     id="path222"
     style="stroke-width:0.47885" />
  <path
     class="Rest"
     d="m 551.2643,347.25293 c -0.0376,-0.053 -0.1204,-0.16788 -0.24081,-0.38874 l -4.66337,-8.03121 c -0.044,-0.0618 -0.0824,-0.22971 -0.0824,-0.34457 0,-0.16786 0.0384,-0.38875 0.0824,-0.5036 l 4.13112,-8.71148 c 0.0448,-0.1149 0.0824,-0.28273 0.0824,-0.39763 v -0.50358 c 0,-0.16789 -0.0376,-0.34459 -0.12041,-0.45061 l -6.57053,-12.38689 c 0,0 -0.1584,-0.34458 -0.40552,-0.34458 -0.12041,0 -0.20273,0 -0.32313,0.1767 -0.16472,0.16788 -0.20273,0.38875 -0.20273,0.56545 0,0.33576 0.12033,0.61848 0.12033,0.61848 l 3.08574,5.88421 c 0.076,0.16788 0.12032,0.38875 0.12032,0.67148 0,0.22973 -0.044,0.51246 -0.12032,0.68028 l -4.09952,8.71152 c -0.0384,0.11486 -0.0823,0.33574 -0.0823,0.45059 v 0.51245 c 0,0.16787 0.044,0.33573 0.12672,0.45059 l 4.53665,7.86331 c -0.15841,-0.0618 -0.52593,-0.17671 -1.01378,-0.17671 -2.06556,0 -3.6876,2.37668 -3.6876,5.2658 0,0.78631 0.12033,1.58146 0.44353,2.19994 0.85538,1.8112 3.89664,7.18299 3.89664,7.18299 0,0 0.2028,0.34458 0.48793,0.34458 0.076,0 0.1584,0 0.24073,-0.11484 0.2028,-0.22974 0.28512,-0.45061 0.28512,-0.68035 0,-0.22969 -0.0823,-0.39757 -0.12032,-0.51241 -0.12672,-0.28273 -1.41931,-3.56059 -1.41931,-3.56059 0,0 -0.28513,-0.79514 -0.28513,-1.81121 0,-1.81119 0.96938,-3.27785 2.26829,-3.27785 0.52593,0 0.97578,0.22974 1.29891,0.51246 l 1.58403,1.41363 c 0,0 0.1584,0.10603 0.3232,0.10603 0.15841,0 0.28513,-0.053 0.40545,-0.28273 0.0824,-0.16789 0.1204,-0.33577 0.1204,-0.50364 0,-0.16784 -0.0376,-0.28273 -0.1204,-0.45056 l -0.0823,-0.17671"
     id="path224"
     style="stroke-width:0.47885" />
  <path
     class="Rest"
     d="m 257.68537,693.59305 c -0.0376,-0.0527 -0.1204,-0.16786 -0.24072,-0.38874 l -4.66337,-8.03122 c -0.044,-0.0617 -0.0824,-0.22972 -0.0824,-0.34458 0,-0.16787 0.0384,-0.38874 0.0824,-0.50361 l 4.13112,-8.71145 c 0.044,-0.11486 0.0823,-0.28273 0.0823,-0.39759 v -0.5036 c 0,-0.16787 -0.0376,-0.34459 -0.1204,-0.4506 l -6.57053,-12.38694 c 0,0 -0.1584,-0.34459 -0.40553,-0.34459 -0.12032,0 -0.20272,0 -0.32313,0.17672 -0.16472,0.16787 -0.20272,0.38874 -0.20272,0.56546 0,0.33574 0.1204,0.61847 0.1204,0.61847 l 3.08566,5.88423 c 0.076,0.16787 0.12041,0.38875 0.12041,0.67148 0,0.22972 -0.044,0.51245 -0.12041,0.68032 l -4.09944,8.71145 c -0.0384,0.11486 -0.0824,0.33574 -0.0824,0.4506 v 0.51245 c 0,0.16787 0.044,0.33574 0.12672,0.4506 l 4.53665,7.86335 c -0.1584,-0.0617 -0.52585,-0.17672 -1.01378,-0.17672 -2.06556,0 -3.68759,2.37661 -3.68759,5.26577 0,0.78634 0.1204,1.58143 0.44353,2.1999 0.85538,1.81124 3.89672,7.18302 3.89672,7.18302 0,0 0.20272,0.34459 0.48785,0.34459 0.076,0 0.1584,0 0.2408,-0.11486 0.20272,-0.22973 0.28513,-0.4506 0.28513,-0.68032 0,-0.22973 -0.0824,-0.3976 -0.12041,-0.51246 -0.12672,-0.28273 -1.4193,-3.56054 -1.4193,-3.56054 0,0 -0.28513,-0.79518 -0.28513,-1.81124 0,-1.81115 0.96946,-3.27781 2.26836,-3.27781 0.52593,0 0.9757,0.22972 1.29891,0.51245 l 1.58403,1.41356 c 0,0 0.1584,0.10602 0.32313,0.10602 0.1584,0 0.28512,-0.0527 0.40553,-0.28264 0.0823,-0.16787 0.12032,-0.33574 0.12032,-0.50361 0,-0.16787 -0.0376,-0.28273 -0.12032,-0.4506 l -0.0824,-0.17672"
     id="path226"
     style="stroke-width:0.47885" />
  <path
     class="Rest"
     d="m 350.03528,594.63904 c -0.0376,-0.053 -0.12032,-0.16787 -0.24072,-0.38876 l -4.66338,-8.03117 c -0.044,-0.0618 -0.0824,-0.22971 -0.0824,-0.34458 0,-0.16786 0.0384,-0.38874 0.0824,-0.5036 l 4.13113,-8.71149 c 0.044,-0.11485 0.0824,-0.28272 0.0824,-0.39758 v -0.5036 c 0,-0.16787 -0.0384,-0.34457 -0.12041,-0.45059 l -6.57053,-12.38693 c 0,0 -0.1584,-0.34457 -0.40552,-0.34457 -0.12041,0 -0.20281,0 -0.32313,0.1767 -0.1648,0.16787 -0.2028,0.38875 -0.2028,0.56545 0,0.33576 0.1204,0.61848 0.1204,0.61848 l 3.08574,5.88421 c 0.076,0.16788 0.12032,0.38875 0.12032,0.67148 0,0.22973 -0.044,0.51246 -0.12032,0.68028 l -4.09952,8.71151 c -0.0376,0.11487 -0.0824,0.33574 -0.0824,0.4506 v 0.51244 c 0,0.16787 0.044,0.33574 0.12672,0.4506 l 4.53673,7.8633 c -0.15848,-0.0619 -0.52593,-0.1767 -1.01378,-0.1767 -2.06564,0 -3.68767,2.37666 -3.68767,5.26576 0,0.78634 0.1204,1.5815 0.44352,2.19996 0.85538,1.81122 3.89672,7.183 3.89672,7.183 0,0 0.20273,0.34458 0.48793,0.34458 0.076,0 0.1584,0 0.24073,-0.11486 0.20272,-0.22972 0.28512,-0.45059 0.28512,-0.68031 0,-0.22971 -0.0824,-0.39758 -0.12032,-0.51244 -0.12672,-0.28272 -1.41931,-3.56058 -1.41931,-3.56058 0,0 -0.28512,-0.79516 -0.28512,-1.81121 0,-1.81121 0.96937,-3.27785 2.26828,-3.27785 0.52593,0 0.97578,0.22971 1.29891,0.51244 l 1.58403,1.41363 c 0,0 0.1584,0.10602 0.32312,0.10602 0.15841,0 0.28513,-0.053 0.40553,-0.28272 0.0824,-0.16787 0.1204,-0.33574 0.1204,-0.50361 0,-0.16786 -0.0384,-0.28273 -0.1204,-0.45059 l -0.0824,-0.1767"
     id="path228"
     style="stroke-width:0.47885" />
  <path
     class="Rest"
     d="m 844.11959,693.59305 c -0.0384,-0.0527 -0.12032,-0.16786 -0.24072,-0.38874 l -4.66337,-8.03122 c -0.044,-0.0617 -0.0824,-0.22972 -0.0824,-0.34458 0,-0.16787 0.0384,-0.38874 0.0824,-0.50361 l 4.13112,-8.71145 c 0.044,-0.11486 0.0824,-0.28273 0.0824,-0.39759 v -0.5036 c 0,-0.16787 -0.0384,-0.34459 -0.1204,-0.4506 l -6.57053,-12.38694 c 0,0 -0.15841,-0.34459 -0.40553,-0.34459 -0.1204,0 -0.2028,0 -0.32313,0.17672 -0.1648,0.16787 -0.2028,0.38874 -0.2028,0.56546 0,0.33574 0.1204,0.61847 0.1204,0.61847 l 3.08566,5.88423 c 0.076,0.16787 0.12041,0.38875 0.12041,0.67148 0,0.22972 -0.044,0.51245 -0.12041,0.68032 l -4.09944,8.71145 c -0.0376,0.11486 -0.0824,0.33574 -0.0824,0.4506 v 0.51245 c 0,0.16787 0.0448,0.33574 0.12672,0.4506 l 4.53665,7.86335 c -0.1584,-0.0617 -0.52585,-0.17672 -1.01378,-0.17672 -2.06556,0 -3.68759,2.37661 -3.68759,5.26577 0,0.78634 0.1204,1.58143 0.44353,2.1999 0.85538,1.81124 3.89672,7.18302 3.89672,7.18302 0,0 0.20272,0.34459 0.48785,0.34459 0.076,0 0.1584,0 0.2408,-0.11486 0.20272,-0.22973 0.28513,-0.4506 0.28513,-0.68032 0,-0.22973 -0.0824,-0.3976 -0.12041,-0.51246 -0.12672,-0.28273 -1.4193,-3.56054 -1.4193,-3.56054 0,0 -0.28513,-0.79518 -0.28513,-1.81124 0,-1.81115 0.96946,-3.27781 2.26836,-3.27781 0.52593,0 0.97578,0.22972 1.29891,0.51245 l 1.58403,1.41356 c 0,0 0.1584,0.10602 0.32313,0.10602 0.1584,0 0.28512,-0.0527 0.40553,-0.28264 0.0824,-0.16787 0.1204,-0.33574 0.1204,-0.50361 0,-0.16787 -0.0376,-0.28273 -0.1204,-0.4506 l -0.0824,-0.17672"
     id="path230"
     style="stroke-width:0.47885" />
  <path
     class="Fingering"
     d="m 835.4551,551.73655 -0.44969,2.05774 c -0.10624,-1.41648 -0.92385,-2.39575 -1.99076,-2.39575 -2.46492,0 -4.01831,4.32809 -4.01831,7.33889 0,2.23501 0.96473,3.71363 2.41588,3.71363 1.03426,0 1.66788,-0.57002 2.48541,-2.2088 -0.0656,0.34771 -0.0776,0.49876 -0.0776,0.73018 0,0.89094 0.40881,1.47862 0.99746,1.47862 1.30811,0 2.21964,-2.07484 2.71429,-3.55345 l -0.51097,-0.38305 c -0.62137,1.75449 -1.1977,2.68988 -1.61875,2.68988 -0.19624,0 -0.34345,-0.25821 -0.34345,-0.57001 0,-0.25821 0.0656,-0.64126 0.17993,-1.23806 l 1.63507,-7.65982 h -1.41843 m -2.15836,0.91772 c 0.76442,0 1.23858,0.74785 1.23858,2.03038 0,1.31844 -0.32704,3.11739 -0.82985,4.55155 -0.51097,1.4159 -1.09962,2.05716 -1.91716,2.05716 -0.81754,0 -1.30811,-0.84589 -1.30811,-2.23558 0,-2.04863 0.91978,-6.40351 2.81654,-6.40351"
     id="path232"
     style="stroke-width:0.482711" />
  <path
     class="Fingering"
     d="m 465.19692,209.30044 -2.9759,0.33802 -0.0528,0.82822 h 0.39657 c 0.64993,0 0.91153,0.2052 0.91153,0.72163 0,0.20464 -0.0488,0.55234 -0.1308,0.98841 l -1.66779,7.83766 h 1.42251 l 0.67041,-3.21487 c 0.73585,-3.49132 2.2238,-6.12763 3.45015,-6.12763 0.42921,0 0.69081,0.3118 0.69081,0.88181 0,0.46285 -0.13488,1.41591 -0.33113,2.28005 l -1.30402,6.18064 h 1.41851 l 0.70313,-3.30379 c 0.40873,-1.89757 0.81754,-3.17098 1.34075,-4.15082 0.58457,-1.14003 1.42259,-1.88789 2.04396,-1.88789 0.40873,0 0.63769,0.29356 0.63769,0.83735 0,0.32034 -0.0818,0.8191 -0.22896,1.46037 l -0.75618,3.24223 c -0.44153,1.77216 -0.45377,1.91466 -0.45377,2.54681 0,0.96218 0.50689,1.59432 1.27131,1.59432 0.54369,0 1.0669,-0.36481 1.62283,-1.08644 0.34745,-0.46342 0.56825,-0.87269 1.23866,-2.23559 l -0.50281,-0.48108 c -0.85025,1.78128 -1.45531,2.64541 -1.88043,2.64541 -0.17577,0 -0.34337,-0.24965 -0.34337,-0.57001 0,-0.20463 0.0528,-0.4543 0.20032,-1.12235 l 1.02602,-4.41759 c 0.11449,-0.49876 0.20033,-1.21127 0.20033,-1.71003 0,-1.21128 -0.64177,-2.07484 -1.52067,-2.07484 -1.16507,0 -2.21157,1.05053 -3.15582,3.21486 0.0616,-0.43606 0.094,-0.81911 0.094,-1.09556 0,-1.21127 -0.69082,-2.1193 -1.58195,-2.1193 -1.03426,0 -1.78228,0.80143 -2.93094,3.08148 l 0.47825,-3.08148"
     id="path234"
     style="stroke-width:0.482711" />
  <path
     class="Fingering"
     d="m 701.66079,205.39757 -0.44553,2.05774 c -0.10632,-1.41647 -0.92385,-2.39576 -1.99076,-2.39576 -2.46908,0 -4.01831,4.3281 -4.01831,7.3389 0,2.23502 0.96473,3.71362 2.4118,3.71362 1.03826,0 1.6678,-0.57001 2.48541,-2.20879 -0.0616,0.34771 -0.0776,0.49876 -0.0776,0.73019 0,0.89092 0.40873,1.4786 0.99738,1.4786 1.31219,0 2.2238,-2.07484 2.71437,-3.55345 l -0.51105,-0.38305 c -0.61721,1.7545 -1.19362,2.68989 -1.61467,2.68989 -0.19616,0 -0.34336,-0.25821 -0.34336,-0.57001 0,-0.25822 0.0616,-0.64127 0.17576,-1.23807 l 1.63515,-7.65981 h -1.41851 m -2.15836,0.91772 c 0.76858,0 1.23866,0.74785 1.23866,2.03037 0,1.31844 -0.32296,3.1174 -0.82985,4.55155 -0.51097,1.41591 -1.09554,2.05717 -1.91308,2.05717 -0.81762,0 -1.31219,-0.84589 -1.31219,-2.23559 0,-2.04861 0.9197,-6.4035 2.81646,-6.4035"
     id="path236"
     style="stroke-width:0.482711" />
  <path
     class="Fingering"
     d="m 665.75752,551.73655 -0.44561,2.05774 c -0.11032,-1.41648 -0.92793,-2.39575 -1.99484,-2.39575 -2.46492,0 -4.01423,4.32809 -4.01423,7.33889 0,2.23501 0.96473,3.71363 2.4118,3.71363 1.03426,0 1.66788,-0.57002 2.48541,-2.2088 -0.0656,0.34771 -0.0776,0.49876 -0.0776,0.73018 0,0.89094 0.40881,1.47862 0.99746,1.47862 1.30811,0 2.22372,-2.07484 2.71429,-3.55345 l -0.51097,-0.38305 c -0.61729,1.75449 -1.19362,2.68988 -1.61467,2.68988 -0.20032,0 -0.34744,-0.25821 -0.34744,-0.57001 0,-0.25821 0.0656,-0.64126 0.17984,-1.23806 l 1.63515,-7.65982 h -1.41851 m -2.15836,0.91772 c 0.7685,0 1.23859,0.74785 1.23859,2.03038 0,1.31844 -0.32289,3.11739 -0.82978,4.55155 -0.51105,1.4159 -1.09962,2.05716 -1.91724,2.05716 -0.81754,0 -1.30811,-0.84589 -1.30811,-2.23558 0,-2.04863 0.91978,-6.40351 2.81654,-6.40351"
     id="path238"
     style="stroke-width:0.482711" />
  <path
     class="Fingering"
     d="m 239.47213,205.39757 -0.4472,2.05774 c -0.10881,-1.41647 -0.92634,-2.39576 -1.99284,-2.39576 -2.46533,0 -4.01752,4.3281 -4.01752,7.3389 0,2.23502 0.96434,3.71362 2.41428,3.71362 1.03458,0 1.667,-0.57001 2.48453,-2.20879 -0.064,0.34771 -0.0768,0.49876 -0.0768,0.73019 0,0.89092 0.40881,1.4786 0.99618,1.4786 1.30931,0 2.22301,-2.07484 2.71478,-3.55345 l -0.51105,-0.38305 c -0.6197,1.7545 -1.19443,2.68989 -1.61588,2.68989 -0.19824,0 -0.34504,-0.25821 -0.34504,-0.57001 0,-0.25822 0.064,-0.64127 0.17904,-1.23807 l 1.63515,-7.65981 h -1.41803 m -2.15884,0.91772 c 0.7665,0 1.23907,0.74785 1.23907,2.03037 0,1.31844 -0.32585,3.1174 -0.83026,4.55155 -0.51097,1.41591 -1.09882,2.05717 -1.91636,2.05717 -0.81753,0 -1.3093,-0.84589 -1.3093,-2.23559 0,-2.04861 0.91969,-6.4035 2.81685,-6.4035"
     id="path240"
     style="stroke-width:0.482711" />
  <path
     class="Fingering"
     d="m 927.38606,209.30044 -2.976,0.33802 -0.049,0.82822 h 0.3925 c 0.654,0 0.9156,0.2052 0.9156,0.72163 0,0.20464 -0.053,0.55234 -0.1349,0.98841 l -1.6678,7.83766 h 1.4266 l 0.6704,-3.21487 c 0.7317,-3.49132 2.2198,-6.12763 3.4461,-6.12763 0.4292,0 0.6908,0.3118 0.6908,0.88181 0,0.46285 -0.1349,1.41591 -0.3311,2.28005 l -1.304,6.18064 h 1.4185 l 0.7031,-3.30379 c 0.4087,-1.89757 0.8175,-3.17098 1.3408,-4.15082 0.5886,-1.14003 1.4266,-1.88789 2.0439,-1.88789 0.4087,0 0.6377,0.29356 0.6377,0.83735 0,0.32034 -0.082,0.8191 -0.229,1.46037 l -0.7521,3.24223 c -0.4415,1.77216 -0.4537,1.91466 -0.4537,2.54681 0,0.96218 0.5028,1.59432 1.2713,1.59432 0.5437,0 1.0669,-0.36481 1.6228,-1.08644 0.3434,-0.46342 0.5683,-0.87269 1.2387,-2.23559 l -0.5069,-0.48108 c -0.8504,1.78128 -1.4553,2.64541 -1.8764,2.64541 -0.1798,0 -0.3433,-0.24965 -0.3433,-0.57001 0,-0.20463 0.049,-0.4543 0.1962,-1.12235 l 1.0301,-4.41759 c 0.1145,-0.49876 0.1963,-1.21127 0.1963,-1.71003 0,-1.21128 -0.6377,-2.07484 -1.5207,-2.07484 -1.161,0 -2.2116,1.05053 -3.1558,3.21486 0.066,-0.43606 0.098,-0.81911 0.098,-1.09556 0,-1.21127 -0.6908,-2.1193 -1.586,-2.1193 -1.0343,0 -1.7823,0.80143 -2.931,3.08148 l 0.4783,-3.08148"
     id="path242"
     style="stroke-width:0.482711" />
  <path
     class="Fingering"
     d="m 171.67479,551.73655 -0.44673,2.05774 c -0.1088,-1.41648 -0.92633,-2.39575 -1.99283,-2.39575 -2.46581,0 -4.01752,4.32809 -4.01752,7.33889 0,2.23501 0.96433,3.71363 2.41428,3.71363 1.03458,0 1.667,-0.57002 2.48453,-2.2088 -0.064,0.34771 -0.0768,0.49876 -0.0768,0.73018 0,0.89094 0.40873,1.47862 0.99658,1.47862 1.30931,0 2.22252,-2.07484 2.71469,-3.55345 l -0.51097,-0.38305 c -0.61969,1.75449 -1.19442,2.68988 -1.61627,2.68988 -0.19784,0 -0.34464,-0.25821 -0.34464,-0.57001 0,-0.25821 0.064,-0.64126 0.17864,-1.23806 l 1.63515,-7.65982 h -1.41811 m -2.15876,0.91772 c 0.7665,0 1.23907,0.74785 1.23907,2.03038 0,1.31844 -0.32545,3.11739 -0.83026,4.55155 -0.51097,1.4159 -1.09842,2.05716 -1.91596,2.05716 -0.81754,0 -1.3093,-0.84589 -1.3093,-2.23558 0,-2.04863 0.91969,-6.40351 2.81645,-6.40351"
     id="path244"
     style="stroke-width:0.482711" />
  <path
     class="Fingering"
     d="m 413.34701,555.63942 -2.97998,0.33801 -0.0488,0.82823 h 0.39649 c 0.64993,0 0.91154,0.20521 0.91154,0.72164 0,0.20463 -0.0488,0.55234 -0.13488,0.98839 l -1.66372,7.83766 h 1.42259 l 0.67033,-3.21486 c 0.73586,-3.49132 2.22381,-6.12762 3.45015,-6.12762 0.42921,0 0.69082,0.31179 0.69082,0.88181 0,0.46284 -0.13489,1.4159 -0.33513,2.28004 l -1.29995,6.18063 h 1.41435 l 0.70314,-3.30378 c 0.4088,-1.89757 0.81753,-3.17098 1.34082,-4.15083 0.58857,-1.14002 1.42659,-1.88787 2.04388,-1.88787 0.40881,0 0.64178,0.29355 0.64178,0.83735 0,0.32034 -0.0858,0.8191 -0.23297,1.46036 l -0.75217,3.24223 c -0.44153,1.77216 -0.45377,1.91467 -0.45377,2.54681 0,0.96218 0.50689,1.59432 1.2713,1.59432 0.54369,0 1.0669,-0.3648 1.62291,-1.08644 0.34337,-0.46342 0.56818,-0.87269 1.23859,-2.23559 l -0.50281,-0.48109 c -0.85026,1.78129 -1.45939,2.64543 -1.88044,2.64543 -0.17576,0 -0.34337,-0.24967 -0.34337,-0.57001 0,-0.20463 0.0488,-0.4543 0.19625,-1.12236 l 1.0301,-4.41759 c 0.11448,-0.49876 0.19624,-1.21127 0.19624,-1.71003 0,-1.21128 -0.63769,-2.07484 -1.52067,-2.07484 -1.1609,0 -2.2074,1.05053 -3.15174,3.21486 0.0616,-0.43605 0.0941,-0.8191 0.0941,-1.09556 0,-1.21128 -0.69089,-2.1193 -1.58203,-2.1193 -1.03826,0 -1.78227,0.80144 -2.93502,3.08148 l 0.48233,-3.08148"
     id="path246"
     style="stroke-width:0.482711" />
  <path
     class="Fingering"
     d="m 927.39416,690.48016 -2.98,0.34209 -0.062,0.82646 h 0.3883 c 0.6704,0 0.932,0.20524 0.932,0.70115 0,0.22231 -0.045,0.54723 -0.1471,1.00891 l -2.0889,9.88403 c -0.3311,1.6473 -0.3434,1.66438 -1.4552,1.73848 l -0.07,0.82084 h 3.9283 l 0.062,-0.82084 h -0.1963 c -0.7849,0 -1.0465,-0.13676 -1.0465,-0.59853 0,-0.17663 0.07,-0.57002 0.184,-1.13995 l 0.7971,-3.7108 c 0.4415,1.5732 0.8707,2.00074 1.9499,2.00074 2.6448,0 4.2472,-4.00721 4.2472,-7.33606 0,-1.11724 -0.1594,-1.86961 -0.5355,-2.53089 -0.4292,-0.72958 -1.0791,-1.18563 -1.7209,-1.18563 -0.834,0 -1.6964,0.68408 -2.4323,1.94381 l 0.2453,-1.94381 m 1.6842,1.21414 c 0.7357,0 1.2263,0.79233 1.2263,2.00074 0,1.25973 -0.2821,2.80451 -0.7726,4.21244 -0.5682,1.70997 -1.2263,2.48522 -2.0889,2.48522 -0.8053,0 -1.3734,-0.87787 -1.3734,-2.09192 0,-2.04633 1.1568,-6.60648 3.0086,-6.60648"
     id="path248"
     style="stroke-width:0.482711" />
  <path
     class="Fingering"
     d="m 316.26501,206.72056 -2.9763,0.33859 -0.0512,0.82823 h 0.39609 c 0.65161,0 0.91322,0.2052 0.91322,0.72164 0,0.20463 -0.0512,0.55233 -0.13408,0.98839 l -1.667,7.83766 h 1.42419 l 0.67081,-3.21487 c 0.73458,-3.49132 2.22301,-6.12762 3.44935,-6.12762 0.42753,0 0.68962,0.31123 0.68962,0.88124 0,0.46342 -0.13409,1.41648 -0.33193,2.28005 l -1.30323,6.1812 h 1.41803 l 0.70274,-3.30436 c 0.4088,-1.89699 0.81753,-3.1704 1.34122,-4.15025 0.58737,-1.14002 1.42419,-1.88788 2.04388,-1.88788 0.40881,0 0.6385,0.29356 0.6385,0.83678 0,0.32092 -0.083,0.81968 -0.22969,1.46094 l -0.75377,3.24165 c -0.44073,1.77274 -0.45337,1.91524 -0.45337,2.54739 0,0.96217 0.50441,1.59432 1.2709,1.59432 0.54281,0 1.0665,-0.36538 1.62243,-1.08645 0.34505,-0.46341 0.56826,-0.87325 1.23907,-2.23557 l -0.50449,-0.4811 c -0.84946,1.78129 -1.45651,2.64542 -1.87796,2.64542 -0.17904,0 -0.34497,-0.24966 -0.34497,-0.57001 0,-0.2052 0.0512,-0.45429 0.19825,-1.12235 l 1.0281,-4.41759 c 0.11488,-0.49876 0.19824,-1.21127 0.19824,-1.71003 0,-1.21127 -0.63889,-2.07542 -1.52027,-2.07542 -1.16258,0 -2.20988,1.05111 -3.15534,3.21544 0.064,-0.43663 0.0956,-0.81968 0.0956,-1.09556 0,-1.21127 -0.68961,-2.11988 -1.58403,-2.11988 -1.03458,0 -1.78187,0.80201 -2.93134,3.08205 l 0.47865,-3.08205"
     id="path250"
     style="stroke-width:0.482711" />
  <path
     class="Fingering"
     d="m 413.13037,322.93792 -2.97998,0.33802 -0.0616,0.82823 h 0.38833 c 0.67041,0 0.93201,0.20521 0.93201,0.70397 0,0.2223 -0.0448,0.54322 -0.14712,1.00607 l -2.08892,9.88628 c -0.33105,1.64789 -0.34337,1.66557 -1.45523,1.73682 l -0.0696,0.81967 h 3.9284 l 0.0656,-0.81967 h -0.20033 c -0.78481,0 -1.0465,-0.13339 -1.0465,-0.5968 0,-0.17785 0.0696,-0.57001 0.18401,-1.14002 l 0.79713,-3.71363 c 0.44145,1.57608 0.87066,2.00359 1.94988,2.00359 2.64477,0 4.24721,-4.00775 4.24721,-7.3389 0,-1.11323 -0.15945,-1.8702 -0.53545,-2.52914 -0.42929,-0.73075 -1.07923,-1.18449 -1.71692,-1.18449 -0.83802,0 -1.70051,0.68573 -2.43637,1.94147 l 0.24529,-1.94147 m 1.68419,1.21128 c 0.73578,0 1.22635,0.79232 1.22635,2.00359 0,1.25574 -0.28209,2.8056 -0.77258,4.21296 -0.56825,1.71003 -1.22634,2.48468 -2.08892,2.48468 -0.8053,0 -1.37347,-0.88181 -1.37347,-2.09308 0,-2.04806 1.15682,-6.60815 3.00862,-6.60815"
     id="path252"
     style="stroke-width:0.482711" />
  <path
     class="Fingering"
     d="m 182.03332,344.14236 -2.9767,0.33801 -0.064,0.82823 h 0.38953 c 0.67081,0 0.93289,0.20521 0.93289,0.70397 0,0.2223 -0.0448,0.54322 -0.1472,1.00606 l -2.08844,9.88628 c -0.33233,1.64791 -0.34505,1.66558 -1.45651,1.73683 l -0.0704,0.81967 h 3.9284 l 0.064,-0.81967 h -0.19785 c -0.78569,0 -1.0477,-0.13338 -1.0477,-0.5968 0,-0.17784 0.0704,-0.57002 0.18521,-1.14003 l 0.79833,-3.71362 c 0.44105,1.57608 0.86866,2.00359 1.94828,2.00359 2.64437,0 4.24761,-4.00775 4.24761,-7.3389 0,-1.11323 -0.15985,-1.87021 -0.53673,-2.52914 -0.42801,-0.73076 -1.07915,-1.18448 -1.71812,-1.18448 -0.83673,0 -1.69891,0.68572 -2.43349,1.94146 l 0.24281,-1.94146 m 1.68627,1.21127 c 0.73458,0 1.22635,0.79232 1.22635,2.00359 0,1.25573 -0.28129,2.8056 -0.77298,4.21296 -0.56865,1.71003 -1.22634,2.48468 -2.08852,2.48468 -0.8049,0 -1.37347,-0.88181 -1.37347,-2.09309 0,-2.04805 1.15603,-6.60814 3.00862,-6.60814"
     id="path254"
     style="stroke-width:0.482711" />
  <path
     class="Fingering"
     d="m 355.96268,669.27576 -2.97638,0.34199 -0.064,0.82656 h 0.39001 c 0.67033,0 0.93241,0.20514 0.93241,0.70106 0,0.22231 -0.0448,0.54723 -0.1472,1.009 l -2.08844,9.88393 c -0.33193,1.6474 -0.34505,1.66447 -1.45611,1.73857 l -0.0704,0.82084 h 3.928 l 0.064,-0.82084 h -0.19785 c -0.78569,0 -1.0477,-0.13685 -1.0477,-0.59853 0,-0.17672 0.0704,-0.57002 0.18561,-1.14004 l 0.79833,-3.71071 c 0.44065,1.57321 0.86866,2.00075 1.94788,2.00075 2.64277,0 4.24929,-4.00721 4.24929,-7.33606 0,-1.11725 -0.15945,-1.8697 -0.53962,-2.5309 -0.42512,-0.72957 -1.07922,-1.18562 -1.71691,-1.18562 -0.83794,0 -1.69883,0.68399 -2.43341,1.94371 l 0.24281,-1.94371 m 1.68779,1.21414 c 0.73178,0 1.22643,0.79232 1.22643,2.00074 0,1.25973 -0.28209,2.80442 -0.77266,4.21235 -0.57225,1.71006 -1.22634,2.48531 -2.09052,2.48531 -0.8049,0 -1.37307,-0.87787 -1.37307,-2.09201 0,-2.04633 1.15602,-6.60639 3.00982,-6.60639"
     id="path256"
     style="stroke-width:0.482711" />
  <path
     class="Fingering"
     d="m 548.33496,206.29875 c -0.49465,0 -0.88298,0.55235 -0.88298,1.23807 0,0.65893 0.38833,1.22894 0.87074,1.22894 0.50273,0 0.89114,-0.55233 0.89114,-1.22894 0,-0.68572 -0.38841,-1.23807 -0.8789,-1.23807 m 0.29433,5.56674 -3.13942,0.33802 -0.0616,0.82823 h 0.38833 c 0.67041,0 0.93202,0.20519 0.93202,0.70395 0,0.22231 -0.0328,0.4811 -0.14712,1.00608 l -0.9525,4.44438 c -0.30657,1.45181 -0.35561,1.77273 -0.35561,2.29828 0,0.80144 0.49057,1.41591 1.11186,1.41591 1.40619,0 2.37093,-2.03095 3.05774,-3.50899 l -0.51105,-0.39217 c -0.85025,1.79896 -1.53291,2.76114 -1.97436,2.76114 -0.16352,0 -0.278,-0.20463 -0.278,-0.4811 0,-0.2223 0.0616,-0.64126 0.19624,-1.2734 l 1.73324,-8.14033"
     id="path258"
     style="stroke-width:0.482711" />
  <path
     class="Fingering"
     d="m 644.22286,344.14236 -2.9759,0.33801 -0.0616,0.82823 h 0.38833 c 0.67041,0 0.93201,0.20521 0.93201,0.70397 0,0.2223 -0.0448,0.54322 -0.1472,1.00606 l -2.08884,9.88628 c -0.33113,1.64791 -0.34337,1.66558 -1.45523,1.73683 l -0.0696,0.81967 h 3.9284 l 0.0616,-0.81967 h -0.19617 c -0.78489,0 -1.0465,-0.13338 -1.0465,-0.5968 0,-0.17784 0.0696,-0.57002 0.18393,-1.14003 l 0.79713,-3.71362 c 0.44153,1.57608 0.87074,2.00359 1.94988,2.00359 2.64485,0 4.24729,-4.00775 4.24729,-7.3389 0,-1.11323 -0.15945,-1.87021 -0.53554,-2.52914 -0.4292,-0.73076 -1.0833,-1.18448 -1.72099,-1.18448 -0.83386,0 -1.69643,0.68572 -2.43221,1.94146 l 0.24113,-1.94146 m 1.68827,1.21127 c 0.73178,0 1.22635,0.79232 1.22635,2.00359 0,1.25573 -0.28201,2.8056 -0.77258,4.21296 -0.56817,1.71003 -1.22634,2.48468 -2.08884,2.48468 -0.8053,0 -1.37355,-0.88181 -1.37355,-2.09309 0,-2.04805 1.1569,-6.60814 3.00862,-6.60814"
     id="path260"
     style="stroke-width:0.482711" />
  <path
     class="Fingering"
     d="m 747.86547,553.05955 -2.97598,0.33859 -0.0488,0.82822 h 0.39648 c 0.65002,0 0.91162,0.2052 0.91162,0.72163 0,0.20464 -0.0488,0.55234 -0.13488,0.98841 l -1.66379,7.83766 h 1.42259 l 0.67041,-3.21487 c 0.73577,-3.49132 2.22372,-6.12763 3.45015,-6.12763 0.42513,0 0.69081,0.31123 0.69081,0.88124 0,0.46342 -0.13488,1.41648 -0.33521,2.28005 l -1.29994,6.18121 h 1.41443 l 0.70305,-3.30436 c 0.40881,-1.897 0.81762,-3.17041 1.34083,-4.15026 0.58865,-1.14002 1.42666,-1.88788 2.04388,-1.88788 0.40881,0 0.64185,0.29356 0.64185,0.83678 0,0.32091 -0.0859,0.81967 -0.23304,1.46094 l -0.75218,3.24166 c -0.44145,1.77273 -0.45377,1.91523 -0.45377,2.54737 0,0.96219 0.50689,1.59433 1.27139,1.59433 0.54361,0 1.0669,-0.36537 1.62283,-1.08644 0.34337,-0.46342 0.56817,-0.87326 1.23858,-2.23559 l -0.50281,-0.48109 c -0.85025,1.78128 -1.45931,2.64542 -1.88035,2.64542 -0.17985,0 -0.34337,-0.24966 -0.34337,-0.57001 0,-0.2052 0.0488,-0.4543 0.19616,-1.12235 l 1.03018,-4.41759 c 0.11441,-0.49876 0.19617,-1.21128 0.19617,-1.71004 0,-1.21127 -0.6377,-2.0754 -1.52067,-2.0754 -1.16091,0 -2.20741,1.0511 -3.15167,3.21543 0.0616,-0.43662 0.094,-0.81967 0.094,-1.09556 0,-1.21127 -0.69082,-2.11987 -1.58603,-2.11987 -1.03427,0 -1.77828,0.802 -2.93102,3.08205 l 0.47833,-3.08205"
     id="path262"
     style="stroke-width:0.482711" />
  <path
     class="Fingering"
     d="m 778.45455,206.72056 -2.9759,0.33859 -0.0488,0.82823 h 0.39649 c 0.64993,0 0.91162,0.2052 0.91162,0.72164 0,0.20463 -0.0488,0.55233 -0.13496,0.98839 l -1.6678,7.83766 h 1.42667 l 0.67041,-3.21487 c 0.73578,-3.49132 2.22373,-6.12762 3.45007,-6.12762 0.42513,0 0.68674,0.31123 0.68674,0.88124 0,0.46342 -0.13081,1.41648 -0.33105,2.28005 l -1.30403,6.1812 h 1.41843 l 0.70313,-3.30436 c 0.40881,-1.89699 0.81754,-3.1704 1.34083,-4.15025 0.58865,-1.14002 1.42659,-1.88788 2.04388,-1.88788 0.40881,0 0.64177,0.29356 0.64177,0.83678 0,0.32092 -0.0858,0.81968 -0.23296,1.46094 l -0.75217,3.24165 c -0.44153,1.77274 -0.45377,1.91524 -0.45377,2.54739 0,0.96217 0.50281,1.59432 1.2713,1.59432 0.54369,0 1.06698,-0.36538 1.62291,-1.08645 0.34337,-0.46341 0.56817,-0.87325 1.23859,-2.23557 l -0.50689,-0.4811 c -0.84618,1.78129 -1.45523,2.64542 -1.87628,2.64542 -0.17992,0 -0.34345,-0.24966 -0.34345,-0.57001 0,-0.2052 0.0488,-0.45429 0.19625,-1.12235 l 1.0301,-4.41759 c 0.11448,-0.49876 0.19624,-1.21127 0.19624,-1.71003 0,-1.21127 -0.63769,-2.07542 -1.52067,-2.07542 -1.1609,0 -2.2074,1.05111 -3.15582,3.21544 0.0656,-0.43663 0.0982,-0.81968 0.0982,-1.09556 0,-1.21127 -0.69089,-2.11988 -1.58611,-2.11988 -1.03418,0 -1.78228,0.80201 -2.93094,3.08205 l 0.47825,-3.08205"
     id="path264"
     style="stroke-width:0.482711" />
  <path
     class="Fingering"
     d="m 603.0054,690.48016 -2.9759,0.34209 -0.0656,0.82646 h 0.38841 c 0.67033,0 0.93202,0.20524 0.93202,0.70115 0,0.22231 -0.0408,0.54723 -0.14312,1.00891 l -2.08885,9.88403 c -0.3352,1.6473 -0.34744,1.66438 -1.45938,1.73848 l -0.0696,0.82084 h 3.9284 l 0.0656,-0.82084 h -0.20032 c -0.78482,0 -1.04642,-0.13676 -1.04642,-0.59853 0,-0.17663 0.0696,-0.57002 0.18392,-1.13995 l 0.80122,-3.7108 c 0.43737,1.5732 0.86657,2.00074 1.9458,2.00074 2.64485,0 4.2472,-4.00721 4.2472,-7.33606 0,-1.11724 -0.15936,-1.86961 -0.53545,-2.53089 -0.42921,-0.72958 -1.07922,-1.18563 -1.71691,-1.18563 -0.83802,0 -1.70052,0.68408 -2.43629,1.94381 l 0.2452,-1.94381 m 1.6842,1.21414 c 0.73585,0 1.22634,0.79233 1.22634,2.00074 0,1.25973 -0.27793,2.80451 -0.77258,4.21244 -0.56825,1.70997 -1.22634,2.48522 -2.08892,2.48522 -0.80529,0 -1.37346,-0.87787 -1.37346,-2.09192 0,-2.04633 1.15682,-6.60648 3.00862,-6.60648"
     id="path266"
     style="stroke-width:0.482711" />
  <path
     class="Fingering"
     d="m 875.31949,322.93792 -2.9759,0.33802 -0.0656,0.82823 h 0.39241 c 0.67041,0 0.93202,0.20521 0.93202,0.70397 0,0.2223 -0.0448,0.54322 -0.14713,1.00607 l -2.08892,9.88628 c -0.33104,1.64789 -0.34744,1.66557 -1.45523,1.73682 l -0.0736,0.81967 h 3.9284 l 0.0656,-0.81967 h -0.20032 c -0.7849,0 -1.0465,-0.13339 -1.0465,-0.5968 0,-0.17785 0.0696,-0.57001 0.18808,-1.14002 l 0.79714,-3.71363 c 0.44145,1.57608 0.86657,2.00359 1.94579,2.00359 2.64478,0 4.24721,-4.00775 4.24721,-7.3389 0,-1.11323 -0.15944,-1.8702 -0.53553,-2.52914 -0.42513,-0.73075 -1.07914,-1.18449 -1.71684,-1.18449 -0.83801,0 -1.70051,0.68573 -2.43228,1.94147 l 0.2412,-1.94147 m 1.68419,1.21128 c 0.73578,0 1.22635,0.79232 1.22635,2.00359 0,1.25574 -0.27801,2.8056 -0.77258,4.21296 -0.56825,1.71003 -1.22634,2.48468 -2.08892,2.48468 -0.80121,0 -1.36939,-0.88181 -1.36939,-2.09308 0,-2.04806 1.15275,-6.60815 3.00454,-6.60815"
     id="path268"
     style="stroke-width:0.482711" />
  <path
     class="Fingering"
     d="m 1010.5241,202.05787 c -0.4905,0 -0.8789,0.55234 -0.8789,1.23806 0,0.65894 0.3884,1.22895 0.8666,1.22895 0.5028,0 0.8953,-0.55234 0.8953,-1.22895 0,-0.68572 -0.3925,-1.23806 -0.883,-1.23806 m 0.2944,5.56673 -3.1354,0.33802 -0.066,0.82823 h 0.3924 c 0.6704,0 0.932,0.2052 0.932,0.70396 0,0.22231 -0.033,0.48109 -0.1471,1.00608 l -0.9525,4.44437 c -0.3066,1.45182 -0.3597,1.77274 -0.3597,2.29829 0,0.80143 0.4946,1.4159 1.1119,1.4159 1.4062,0 2.3709,-2.03094 3.0618,-3.50898 l -0.511,-0.39218 c -0.8503,1.79897 -1.533,2.76114 -1.9744,2.76114 -0.1676,0 -0.2821,-0.20463 -0.2821,-0.48109 0,-0.2223 0.066,-0.64126 0.2003,-1.2734 l 1.7292,-8.14034"
     id="path270"
     style="stroke-width:0.482711" />
  <path
     class="Fingering"
     d="m 501.79924,552.63774 c -0.49057,0 -0.88298,0.55234 -0.88298,1.23806 0,0.65894 0.39241,1.22895 0.87074,1.22895 0.50273,0 0.89522,-0.55235 0.89522,-1.22895 0,-0.68572 -0.39249,-1.23806 -0.88298,-1.23806 m 0.29433,5.56673 -3.13534,0.33801 -0.0656,0.82823 h 0.38833 c 0.67041,0 0.93202,0.20521 0.93202,0.70397 0,0.2223 -0.0288,0.48109 -0.14712,1.00606 l -0.94842,4.44439 c -0.30657,1.45182 -0.35969,1.77274 -0.35969,2.29829 0,0.80143 0.49057,1.4159 1.11186,1.4159 1.40627,0 2.37093,-2.03095 3.05774,-3.50899 l -0.51105,-0.39217 c -0.84617,1.79896 -1.53291,2.76114 -1.97028,2.76114 -0.1676,0 -0.28208,-0.20463 -0.28208,-0.48109 0,-0.2223 0.0656,-0.64126 0.19624,-1.2734 l 1.73324,-8.14034"
     id="path272"
     style="stroke-width:0.482711" />
  <path
     class="Fingering"
     d="m 108.92069,690.48016 -2.97634,0.34209 -0.0638,0.82646 h 0.38957 c 0.6704,0 0.93243,0.20524 0.93243,0.70115 0,0.22231 -0.0446,0.54723 -0.14675,1.00891 l -2.08888,9.88403 c -0.33193,1.6473 -0.3446,1.66438 -1.45608,1.73848 l -0.0703,0.82084 h 3.92798 l 0.0642,-0.82084 h -0.19826 c -0.78567,0 -1.04729,-0.13676 -1.04729,-0.59853 0,-0.17663 0.0703,-0.57002 0.18517,-1.13995 l 0.79835,-3.7108 c 0.44067,1.5732 0.86867,2.00074 1.94825,2.00074 2.64401,0 4.24725,-4.00721 4.24725,-7.33606 0,-1.11724 -0.15943,-1.86961 -0.53632,-2.53089 -0.428,-0.72958 -1.07959,-1.18563 -1.71811,-1.18563 -0.83678,0 -1.69931,0.68408 -2.43389,1.94381 l 0.24281,-1.94381 m 1.68623,1.21414 c 0.73458,0 1.22634,0.79233 1.22634,2.00074 0,1.25973 -0.28083,2.80451 -0.77259,4.21244 -0.56862,1.70997 -1.22634,2.48522 -2.08888,2.48522 -0.80489,0 -1.37309,-0.87787 -1.37309,-2.09192 0,-2.04633 1.15603,-6.60648 3.00822,-6.60648"
     id="path274"
     style="stroke-width:0.482711" />
  <path
     class="Fingering"
     d="m 253.78354,553.05955 -2.9763,0.33859 -0.0512,0.82822 h 0.39609 c 0.65161,0 0.91321,0.2052 0.91321,0.72163 0,0.20464 -0.0512,0.55234 -0.13408,0.98841 l -1.66699,7.83766 h 1.42419 l 0.67081,-3.21487 c 0.73457,-3.49132 2.22252,-6.12763 3.44887,-6.12763 0.42801,0 0.69009,0.31123 0.69009,0.88124 0,0.46342 -0.13408,1.41648 -0.33241,2.28005 l -1.30274,6.18121 h 1.41803 l 0.70233,-3.30436 c 0.40873,-1.897 0.81754,-3.17041 1.34163,-4.15026 0.58737,-1.14002 1.42419,-1.88788 2.04388,-1.88788 0.40881,0 0.63849,0.29356 0.63849,0.83678 0,0.32091 -0.083,0.81967 -0.22968,1.46094 l -0.75386,3.24166 c -0.44065,1.77273 -0.45329,1.91523 -0.45329,2.54737 0,0.96219 0.50441,1.59433 1.27091,1.59433 0.54281,0 1.0665,-0.36537 1.62243,-1.08644 0.34465,-0.46342 0.56825,-0.87326 1.23906,-2.23559 l -0.50449,-0.48109 c -0.84985,1.78128 -1.45651,2.64542 -1.87795,2.64542 -0.17905,0 -0.34497,-0.24966 -0.34497,-0.57001 0,-0.2052 0.0512,-0.4543 0.19784,-1.12235 l 1.0285,-4.41759 c 0.11489,-0.49876 0.19785,-1.21128 0.19785,-1.71004 0,-1.21127 -0.6385,-2.0754 -1.51987,-2.0754 -1.16259,0 -2.21029,1.0511 -3.15534,3.21543 0.064,-0.43662 0.0956,-0.81967 0.0956,-1.09556 0,-1.21127 -0.68962,-2.11987 -1.58403,-2.11987 -1.03458,0 -1.78188,0.802 -2.93174,3.08205 l 0.47905,-3.08205"
     id="path276"
     style="stroke-width:0.482711" />
  <path
     class="Fingering"
     d="m 1004.7399,690.48016 -2.9801,0.34209 -0.062,0.82646 h 0.3883 c 0.6704,0 0.932,0.20524 0.932,0.70115 0,0.22231 -0.045,0.54723 -0.1471,1.00891 l -2.0889,9.88403 c -0.3311,1.6473 -0.3434,1.66438 -1.45524,1.73848 l -0.07,0.82084 h 3.92844 l 0.066,-0.82084 h -0.2004 c -0.7849,0 -1.0465,-0.13676 -1.0465,-0.59853 0,-0.17663 0.07,-0.57002 0.184,-1.13995 l 0.7971,-3.7108 c 0.4415,1.5732 0.8707,2.00074 1.95,2.00074 2.6447,0 4.2472,-4.00721 4.2472,-7.33606 0,-1.11724 -0.1595,-1.86961 -0.5356,-2.53089 -0.4292,-0.72958 -1.0791,-1.18563 -1.7168,-1.18563 -0.838,0 -1.7006,0.68408 -2.4364,1.94381 l 0.2453,-1.94381 m 1.6842,1.21414 c 0.7358,0 1.2263,0.79233 1.2263,2.00074 0,1.25973 -0.282,2.80451 -0.7726,4.21244 -0.5682,1.70997 -1.2264,2.48522 -2.0888,2.48522 -0.8053,0 -1.3735,-0.87787 -1.3735,-2.09192 0,-2.04633 1.1568,-6.60648 3.0086,-6.60648"
     id="path278"
     style="stroke-width:0.482711" />
  <metadata
     id="metadata1173">
    <rdf:RDF>
      <cc:Work
         rdf:about="">
        <dc:title>valsinette</dc:title>
      </cc:Work>
    </rdf:RDF>
  </metadata>
  <text
     xml:space="preserve"
     style="font-size:48px;font-family:sans-serif;-inkscape-font-specification:sans-serif;fill:#000000;stroke:#000000;stroke-width:0;stroke-opacity:0.984894"
     x="455.83829"
     y="107.84544"
     id="text2097"><tspan
       sodipodi:role="line"
       id="tspan2095"
       x="455.83829"
       y="107.84544">Valsinette</tspan></text>
</svg>
