<?xml version="1.0" encoding="UTF-8" standalone="no"?>
<svg
   id="svg1219"
   version="1.1"
   viewBox="0 0 297 210"
   height="210mm"
   width="297mm"
   sodipodi:docname="ex_corde_a_vide_04.svg"
   inkscape:version="1.2.2 (b0a8486541, 2022-12-01)"
   xmlns:inkscape="http://www.inkscape.org/namespaces/inkscape"
   xmlns:sodipodi="http://sodipodi.sourceforge.net/DTD/sodipodi-0.dtd"
   xmlns="http://www.w3.org/2000/svg"
   xmlns:svg="http://www.w3.org/2000/svg"
   xmlns:rdf="http://www.w3.org/1999/02/22-rdf-syntax-ns#"
   xmlns:cc="http://creativecommons.org/ns#"
   xmlns:dc="http://purl.org/dc/elements/1.1/">
  <sodipodi:namedview
     id="namedview134"
     pagecolor="#ffffff"
     bordercolor="#000000"
     borderopacity="0.25"
     inkscape:showpageshadow="2"
     inkscape:pageopacity="0.0"
     inkscape:pagecheckerboard="0"
     inkscape:deskcolor="#d1d1d1"
     inkscape:document-units="mm"
     showgrid="false"
     inkscape:zoom="0.3412141"
     inkscape:cx="518.7359"
     inkscape:cy="465.98309"
     inkscape:window-width="1104"
     inkscape:window-height="552"
     inkscape:window-x="0"
     inkscape:window-y="32"
     inkscape:window-maximized="1"
     inkscape:current-layer="svg1219" />
  <defs
     id="defs1213" />
  <metadata
     id="metadata1216">
    <rdf:RDF>
      <cc:Work
         rdf:about="">
        <dc:format>image/svg+xml</dc:format>
        <dc:type
           rdf:resource="http://purl.org/dc/dcmitype/StillImage" />
        <dc:title />
      </cc:Work>
    </rdf:RDF>
  </metadata>
  <g
     transform="translate(0,-71.12499)"
     id="layer1">
    <polyline
       id="polyline8"
       points="336.598,386.198 2764.6,386.198"
       class="StaffLines"
       style="fill:none;stroke:#000000;stroke-width:2.73;stroke-linejoin:bevel"
       transform="matrix(0.11307749,0,0,0.11307749,-21.118546,82.249539)" />
    <polyline
       id="polyline10"
       points="336.598,410.998 2764.6,410.998"
       class="StaffLines"
       style="fill:none;stroke:#000000;stroke-width:2.73;stroke-linejoin:bevel"
       transform="matrix(0.11307749,0,0,0.11307749,-21.118546,82.249539)" />
    <polyline
       id="polyline12"
       points="336.598,435.798 2764.6,435.798"
       class="StaffLines"
       style="fill:none;stroke:#000000;stroke-width:2.73;stroke-linejoin:bevel"
       transform="matrix(0.11307749,0,0,0.11307749,-21.118546,82.249539)" />
    <polyline
       id="polyline14"
       points="336.598,460.598 2764.6,460.598"
       class="StaffLines"
       style="fill:none;stroke:#000000;stroke-width:2.73;stroke-linejoin:bevel"
       transform="matrix(0.11307749,0,0,0.11307749,-21.118546,82.249539)" />
    <polyline
       id="polyline16"
       points="336.598,485.398 2764.6,485.398"
       class="StaffLines"
       style="fill:none;stroke:#000000;stroke-width:2.73;stroke-linejoin:bevel"
       transform="matrix(0.11307749,0,0,0.11307749,-21.118546,82.249539)" />
    <polyline
       id="polyline18"
       points="212.598,919.398 2764.6,919.398"
       class="StaffLines"
       style="fill:none;stroke:#000000;stroke-width:2.73;stroke-linejoin:bevel"
       transform="matrix(0.11307749,0,0,0.11307749,-21.118546,82.249539)" />
    <polyline
       id="polyline20"
       points="212.598,944.198 2764.6,944.198"
       class="StaffLines"
       style="fill:none;stroke:#000000;stroke-width:2.73;stroke-linejoin:bevel"
       transform="matrix(0.11307749,0,0,0.11307749,-21.118546,82.249539)" />
    <polyline
       id="polyline22"
       points="212.598,968.998 2764.6,968.998"
       class="StaffLines"
       style="fill:none;stroke:#000000;stroke-width:2.73;stroke-linejoin:bevel"
       transform="matrix(0.11307749,0,0,0.11307749,-21.118546,82.249539)" />
    <polyline
       id="polyline24"
       points="212.598,993.798 2764.6,993.798"
       class="StaffLines"
       style="fill:none;stroke:#000000;stroke-width:2.73;stroke-linejoin:bevel"
       transform="matrix(0.11307749,0,0,0.11307749,-21.118546,82.249539)" />
    <polyline
       id="polyline26"
       points="212.598,1018.6 2764.6,1018.6"
       class="StaffLines"
       style="fill:none;stroke:#000000;stroke-width:2.73;stroke-linejoin:bevel"
       transform="matrix(0.11307749,0,0,0.11307749,-21.118546,82.249539)" />
    <polyline
       id="polyline28"
       points="212.598,1452.6 2764.6,1452.6"
       class="StaffLines"
       style="fill:none;stroke:#000000;stroke-width:2.73;stroke-linejoin:bevel"
       transform="matrix(0.11307749,0,0,0.11307749,-21.118546,82.249539)" />
    <polyline
       id="polyline30"
       points="212.598,1477.4 2764.6,1477.4"
       class="StaffLines"
       style="fill:none;stroke:#000000;stroke-width:2.73;stroke-linejoin:bevel"
       transform="matrix(0.11307749,0,0,0.11307749,-21.118546,82.249539)" />
    <polyline
       id="polyline32"
       points="212.598,1502.2 2764.6,1502.2"
       class="StaffLines"
       style="fill:none;stroke:#000000;stroke-width:2.73;stroke-linejoin:bevel"
       transform="matrix(0.11307749,0,0,0.11307749,-21.118546,82.249539)" />
    <polyline
       id="polyline34"
       points="212.598,1527 2764.6,1527"
       class="StaffLines"
       style="fill:none;stroke:#000000;stroke-width:2.73;stroke-linejoin:bevel"
       transform="matrix(0.11307749,0,0,0.11307749,-21.118546,82.249539)" />
    <polyline
       id="polyline36"
       points="212.598,1551.8 2764.6,1551.8"
       class="StaffLines"
       style="fill:none;stroke:#000000;stroke-width:2.73;stroke-linejoin:bevel"
       transform="matrix(0.11307749,0,0,0.11307749,-21.118546,82.249539)" />
    <path
       style="stroke-width:0.113077"
       id="path38"
       d="m 5.2325848,237.71301 c -0.24029,0.0271 -0.533613,0.0463 -0.786229,0.0463 -0.127214,0 -0.272065,-0.005 -0.434671,-0.0147 -0.150168,-0.008 -0.298635,-0.017 -0.452308,-0.026 l -0.11308,-0.006 -0.438176,0.95438 0.166114,0.0543 0.109572,-0.18205 c 0.212019,-0.35071 0.310961,-0.40047 0.772091,-0.39707 h 0.764971 l -0.492905,0.70673 c -0.579523,0.81302 -0.579523,0.81302 -0.800362,1.17488 -0.199698,0.32114 -0.280998,0.51903 -0.280998,0.68186 0,0.15944 0.10075,0.25781 0.258042,0.25781 0.167807,0 0.252616,-0.0814 0.312659,-0.29286 0.226156,-0.85035 0.362187,-1.14548 0.989431,-2.16092 l 0.425849,-0.66037 v -0.13682"
       class="MeasureNumber" />
    <path
       style="stroke-width:0.113077"
       id="path40"
       d="m 5.3509728,177.40267 h -0.245602 l -2.106067,2.18025 v 0.18906 h 1.273929 l -0.07249,0.27569 c -0.09012,0.34443 -0.09012,0.34443 -0.484084,0.34443 h -0.0813 l -0.02645,0.21202 h 1.406343 l 0.02295,-0.21202 h -0.08131 c -0.298524,0 -0.362187,-0.0229 -0.362187,-0.12189 0,-0.0371 0.0088,-0.0812 0.04603,-0.22254 l 0.07588,-0.27569 h 0.515971 l 0.06717,-0.2438 h -0.519476 l 0.570702,-2.12551 m -1.008877,2.12551 h -1.014193 l 1.397638,-1.43822 -0.383445,1.43822"
       class="MeasureNumber" />
    <polyline
       id="polyline42"
       points="2762.37,384.834 2762.37,486.762"
       class="BarLine"
       style="fill:none;stroke:#000000;stroke-width:4.46;stroke-linejoin:bevel"
       transform="matrix(0.11307749,0,0,0.11307749,-21.118546,82.249539)" />
    <polyline
       id="polyline44"
       points="2762.37,918.034 2762.37,1019.96"
       class="BarLine"
       style="fill:none;stroke:#000000;stroke-width:4.46;stroke-linejoin:bevel"
       transform="matrix(0.11307749,0,0,0.11307749,-21.118546,82.249539)" />
    <polyline
       id="polyline46"
       points="1948.98,918.034 1948.98,1019.96"
       class="BarLine"
       style="fill:none;stroke:#000000;stroke-width:4.46;stroke-linejoin:bevel"
       transform="matrix(0.11307749,0,0,0.11307749,-21.118546,82.249539)" />
    <polyline
       id="polyline48"
       points="1135.59,918.034 1135.59,1019.96"
       class="BarLine"
       style="fill:none;stroke:#000000;stroke-width:4.46;stroke-linejoin:bevel"
       transform="matrix(0.11307749,0,0,0.11307749,-21.118546,82.249539)" />
    <polyline
       id="polyline50"
       points="1127.99,1451.23 1127.99,1553.16"
       class="BarLine"
       style="fill:none;stroke:#000000;stroke-width:4.46;stroke-linejoin:bevel"
       transform="matrix(0.11307749,0,0,0.11307749,-21.118546,82.249539)" />
    <polyline
       id="polyline52"
       points="1933.77,1451.23 1933.77,1553.16"
       class="BarLine"
       style="fill:none;stroke:#000000;stroke-width:4.46;stroke-linejoin:bevel"
       transform="matrix(0.11307749,0,0,0.11307749,-21.118546,82.249539)" />
    <polyline
       id="polyline54"
       points="2008.6,384.834 2008.6,486.762"
       class="BarLine"
       style="fill:none;stroke:#000000;stroke-width:4.46;stroke-linejoin:bevel"
       transform="matrix(0.11307749,0,0,0.11307749,-21.118546,82.249539)" />
    <polyline
       id="polyline56"
       points="1254.83,384.834 1254.83,486.762"
       class="BarLine"
       style="fill:none;stroke:#000000;stroke-width:4.46;stroke-linejoin:bevel"
       transform="matrix(0.11307749,0,0,0.11307749,-21.118546,82.249539)" />
    <polyline
       id="polyline58"
       points="2739.55,1451.23 2739.55,1553.16"
       class="BarLine"
       style="fill:none;stroke:#000000;stroke-width:4.46;stroke-linejoin:bevel"
       transform="matrix(0.11307749,0,0,0.11307749,-21.118546,82.249539)" />
    <polyline
       id="polyline60"
       points="2757.78,1451.23 2757.78,1553.16"
       class="BarLine"
       style="fill:none;stroke:#000000;stroke-width:13.64;stroke-linejoin:bevel"
       transform="matrix(0.11307749,0,0,0.11307749,-21.118546,82.249539)" />
    <polyline
       id="polyline62"
       points="348.495,1043.4 397.095,1043.4"
       class="LedgerLine"
       style="fill:none;stroke:#000000;stroke-width:3.97;stroke-linejoin:bevel"
       transform="matrix(0.11307749,0,0,0.11307749,-21.118546,82.249539)" />
    <polyline
       id="polyline64"
       points="527.349,559.798 575.949,559.798"
       class="LedgerLine"
       style="fill:none;stroke:#000000;stroke-width:3.97;stroke-linejoin:bevel"
       transform="matrix(0.11307749,0,0,0.11307749,-21.118546,82.249539)" />
    <polyline
       id="polyline66"
       points="527.349,534.998 575.949,534.998"
       class="LedgerLine"
       style="fill:none;stroke:#000000;stroke-width:3.97;stroke-linejoin:bevel"
       transform="matrix(0.11307749,0,0,0.11307749,-21.118546,82.249539)" />
    <polyline
       id="polyline68"
       points="2034.89,510.198 2083.49,510.198"
       class="LedgerLine"
       style="fill:none;stroke:#000000;stroke-width:3.97;stroke-linejoin:bevel"
       transform="matrix(0.11307749,0,0,0.11307749,-21.118546,82.249539)" />
    <polyline
       id="polyline70"
       points="2034.89,534.998 2083.49,534.998"
       class="LedgerLine"
       style="fill:none;stroke:#000000;stroke-width:3.97;stroke-linejoin:bevel"
       transform="matrix(0.11307749,0,0,0.11307749,-21.118546,82.249539)" />
    <polyline
       id="polyline72"
       points="348.495,1068.2 397.095,1068.2"
       class="LedgerLine"
       style="fill:none;stroke:#000000;stroke-width:3.97;stroke-linejoin:bevel"
       transform="matrix(0.11307749,0,0,0.11307749,-21.118546,82.249539)" />
    <polyline
       id="polyline74"
       points="2034.89,559.798 2083.49,559.798"
       class="LedgerLine"
       style="fill:none;stroke:#000000;stroke-width:3.97;stroke-linejoin:bevel"
       transform="matrix(0.11307749,0,0,0.11307749,-21.118546,82.249539)" />
    <polyline
       id="polyline76"
       points="1161.88,1068.2 1210.48,1068.2"
       class="LedgerLine"
       style="fill:none;stroke:#000000;stroke-width:3.97;stroke-linejoin:bevel"
       transform="matrix(0.11307749,0,0,0.11307749,-21.118546,82.249539)" />
    <polyline
       id="polyline78"
       points="527.349,510.198 575.949,510.198"
       class="LedgerLine"
       style="fill:none;stroke:#000000;stroke-width:3.97;stroke-linejoin:bevel"
       transform="matrix(0.11307749,0,0,0.11307749,-21.118546,82.249539)" />
    <polyline
       id="polyline80"
       points="1161.88,1043.4 1210.48,1043.4"
       class="LedgerLine"
       style="fill:none;stroke:#000000;stroke-width:3.97;stroke-linejoin:bevel"
       transform="matrix(0.11307749,0,0,0.11307749,-21.118546,82.249539)" />
    <polyline
       id="polyline82"
       points="1975.27,1043.4 2023.87,1043.4"
       class="LedgerLine"
       style="fill:none;stroke:#000000;stroke-width:3.97;stroke-linejoin:bevel"
       transform="matrix(0.11307749,0,0,0.11307749,-21.118546,82.249539)" />
    <polyline
       id="polyline84"
       points="1975.27,1068.2 2023.87,1068.2"
       class="LedgerLine"
       style="fill:none;stroke:#000000;stroke-width:3.97;stroke-linejoin:bevel"
       transform="matrix(0.11307749,0,0,0.11307749,-21.118546,82.249539)" />
    <polyline
       id="polyline86"
       points="1281.12,510.198 1329.72,510.198"
       class="LedgerLine"
       style="fill:none;stroke:#000000;stroke-width:3.97;stroke-linejoin:bevel"
       transform="matrix(0.11307749,0,0,0.11307749,-21.118546,82.249539)" />
    <polyline
       id="polyline88"
       points="1281.12,534.998 1329.72,534.998"
       class="LedgerLine"
       style="fill:none;stroke:#000000;stroke-width:3.97;stroke-linejoin:bevel"
       transform="matrix(0.11307749,0,0,0.11307749,-21.118546,82.249539)" />
    <polyline
       id="polyline90"
       points="1281.12,559.798 1329.72,559.798"
       class="LedgerLine"
       style="fill:none;stroke:#000000;stroke-width:3.97;stroke-linejoin:bevel"
       transform="matrix(0.11307749,0,0,0.11307749,-21.118546,82.249539)" />
    <polyline
       id="polyline92"
       points="805.547,456.63 805.547,373.798"
       class="Stem"
       style="fill:none;stroke:#000000;stroke-width:2.48;stroke-linejoin:bevel"
       transform="matrix(0.11307749,0,0,0.11307749,-21.118546,82.249539)" />
    <polyline
       id="polyline94"
       points="387.671,1064.23 387.671,968.998"
       class="Stem"
       style="fill:none;stroke:#000000;stroke-width:2.48;stroke-linejoin:bevel"
       transform="matrix(0.11307749,0,0,0.11307749,-21.118546,82.249539)" />
    <polyline
       id="polyline96"
       points="2502.48,935.965 2502.48,1018.6"
       class="Stem"
       style="fill:none;stroke:#000000;stroke-width:2.48;stroke-linejoin:bevel"
       transform="matrix(0.11307749,0,0,0.11307749,-21.118546,82.249539)" />
    <polyline
       id="polyline98"
       points="387.671,1560.23 387.671,1477.4"
       class="Stem"
       style="fill:none;stroke:#000000;stroke-width:2.48;stroke-linejoin:bevel"
       transform="matrix(0.11307749,0,0,0.11307749,-21.118546,82.249539)" />
    <polyline
       id="polyline100"
       points="2243.59,935.965 2243.59,1018.6"
       class="Stem"
       style="fill:none;stroke:#000000;stroke-width:2.48;stroke-linejoin:bevel"
       transform="matrix(0.11307749,0,0,0.11307749,-21.118546,82.249539)" />
    <polyline
       id="polyline102"
       points="1193.45,1560.23 1193.45,1477.4"
       class="Stem"
       style="fill:none;stroke:#000000;stroke-width:2.48;stroke-linejoin:bevel"
       transform="matrix(0.11307749,0,0,0.11307749,-21.118546,82.249539)" />
    <polyline
       id="polyline104"
       points="646.565,989.83 646.565,906.998"
       class="Stem"
       style="fill:none;stroke:#000000;stroke-width:2.48;stroke-linejoin:bevel"
       transform="matrix(0.11307749,0,0,0.11307749,-21.118546,82.249539)" />
    <polyline
       id="polyline106"
       points="905.46,989.83 905.46,906.998"
       class="Stem"
       style="fill:none;stroke:#000000;stroke-width:2.48;stroke-linejoin:bevel"
       transform="matrix(0.11307749,0,0,0.11307749,-21.118546,82.249539)" />
    <polyline
       id="polyline108"
       points="566.525,568.23 566.525,435.798"
       class="Stem"
       style="fill:none;stroke:#000000;stroke-width:2.48;stroke-linejoin:bevel"
       transform="matrix(0.11307749,0,0,0.11307749,-21.118546,82.249539)" />
    <polyline
       id="polyline110"
       points="1201.06,1064.23 1201.06,968.998"
       class="Stem"
       style="fill:none;stroke:#000000;stroke-width:2.48;stroke-linejoin:bevel"
       transform="matrix(0.11307749,0,0,0.11307749,-21.118546,82.249539)" />
    <polyline
       id="polyline112"
       points="2014.45,1064.23 2014.45,968.998"
       class="Stem"
       style="fill:none;stroke:#000000;stroke-width:2.48;stroke-linejoin:bevel"
       transform="matrix(0.11307749,0,0,0.11307749,-21.118546,82.249539)" />
    <polyline
       id="polyline114"
       points="644.03,1523.03 644.03,1440.2"
       class="Stem"
       style="fill:none;stroke:#000000;stroke-width:2.48;stroke-linejoin:bevel"
       transform="matrix(0.11307749,0,0,0.11307749,-21.118546,82.249539)" />
    <polyline
       id="polyline116"
       points="1689.1,973.165 1689.1,1043.4"
       class="Stem"
       style="fill:none;stroke:#000000;stroke-width:2.48;stroke-linejoin:bevel"
       transform="matrix(0.11307749,0,0,0.11307749,-21.118546,82.249539)" />
    <polyline
       id="polyline118"
       points="900.39,1523.03 900.39,1440.2"
       class="Stem"
       style="fill:none;stroke:#000000;stroke-width:2.48;stroke-linejoin:bevel"
       transform="matrix(0.11307749,0,0,0.11307749,-21.118546,82.249539)" />
    <polyline
       id="polyline120"
       points="1430.2,973.165 1430.2,1043.4"
       class="Stem"
       style="fill:none;stroke:#000000;stroke-width:2.48;stroke-linejoin:bevel"
       transform="matrix(0.11307749,0,0,0.11307749,-21.118546,82.249539)" />
    <polyline
       id="polyline122"
       points="1420.06,1506.36 1420.06,1576.6"
       class="Stem"
       style="fill:none;stroke:#000000;stroke-width:2.48;stroke-linejoin:bevel"
       transform="matrix(0.11307749,0,0,0.11307749,-21.118546,82.249539)" />
    <polyline
       id="polyline124"
       points="1044.57,456.63 1044.57,373.798"
       class="Stem"
       style="fill:none;stroke:#000000;stroke-width:2.48;stroke-linejoin:bevel"
       transform="matrix(0.11307749,0,0,0.11307749,-21.118546,82.249539)" />
    <polyline
       id="polyline126"
       points="2225.84,1469.16 2225.84,1551.8"
       class="Stem"
       style="fill:none;stroke:#000000;stroke-width:2.48;stroke-linejoin:bevel"
       transform="matrix(0.11307749,0,0,0.11307749,-21.118546,82.249539)" />
    <polyline
       id="polyline128"
       points="2482.2,1469.16 2482.2,1551.8"
       class="Stem"
       style="fill:none;stroke:#000000;stroke-width:2.48;stroke-linejoin:bevel"
       transform="matrix(0.11307749,0,0,0.11307749,-21.118546,82.249539)" />
    <polyline
       id="polyline130"
       points="1320.29,568.23 1320.29,435.798"
       class="Stem"
       style="fill:none;stroke:#000000;stroke-width:2.48;stroke-linejoin:bevel"
       transform="matrix(0.11307749,0,0,0.11307749,-21.118546,82.249539)" />
    <polyline
       id="polyline132"
       points="1529.56,439.965 1529.56,510.198"
       class="Stem"
       style="fill:none;stroke:#000000;stroke-width:2.48;stroke-linejoin:bevel"
       transform="matrix(0.11307749,0,0,0.11307749,-21.118546,82.249539)" />
    <polyline
       id="polyline134"
       points="1999.24,1560.23 1999.24,1477.4"
       class="Stem"
       style="fill:none;stroke:#000000;stroke-width:2.48;stroke-linejoin:bevel"
       transform="matrix(0.11307749,0,0,0.11307749,-21.118546,82.249539)" />
    <polyline
       id="polyline136"
       points="1768.59,439.965 1768.59,510.198"
       class="Stem"
       style="fill:none;stroke:#000000;stroke-width:2.48;stroke-linejoin:bevel"
       transform="matrix(0.11307749,0,0,0.11307749,-21.118546,82.249539)" />
    <polyline
       id="polyline138"
       points="2074.06,568.23 2074.06,435.798"
       class="Stem"
       style="fill:none;stroke:#000000;stroke-width:2.48;stroke-linejoin:bevel"
       transform="matrix(0.11307749,0,0,0.11307749,-21.118546,82.249539)" />
    <polyline
       id="polyline140"
       points="2283.33,402.765 2283.33,485.398"
       class="Stem"
       style="fill:none;stroke:#000000;stroke-width:2.48;stroke-linejoin:bevel"
       transform="matrix(0.11307749,0,0,0.11307749,-21.118546,82.249539)" />
    <polyline
       id="polyline142"
       points="1676.42,1506.36 1676.42,1576.6"
       class="Stem"
       style="fill:none;stroke:#000000;stroke-width:2.48;stroke-linejoin:bevel"
       transform="matrix(0.11307749,0,0,0.11307749,-21.118546,82.249539)" />
    <polyline
       id="polyline144"
       points="2522.36,402.765 2522.36,485.398"
       class="Stem"
       style="fill:none;stroke:#000000;stroke-width:2.48;stroke-linejoin:bevel"
       transform="matrix(0.11307749,0,0,0.11307749,-21.118546,82.249539)" />
    <path
       id="path146"
       d="m 151.70005,131.99997 c 0,0.48199 0.34704,1.02007 1.25669,1.02007 1.16555,0 2.38893,-0.95347 2.38893,-1.94025 0,-0.66251 -0.56086,-1.03233 -1.25668,-1.03233 -1.08843,0 -2.38894,0.92016 -2.38894,1.95251"
       class="Note"
       style="stroke-width:0.112173" />
    <path
       id="path148"
       d="m 66.466194,134.80429 c 0,0.48199 0.34703,1.02007 1.25669,1.02007 1.16555,0 2.38893,-0.95347 2.38893,-1.94024 0,-0.66253 -0.56086,-1.03234 -1.25669,-1.03234 -1.08842,0 -2.38893,0.92016 -2.38893,1.95251"
       class="Note"
       style="stroke-width:0.112173" />
    <path
       id="path150"
       d="m 230.43365,248.37955 c 0,0.48199 0.34704,1.02007 1.25669,1.02007 1.16554,0 2.38893,-0.95347 2.38893,-1.94024 0,-0.66253 -0.56086,-1.03234 -1.25669,-1.03234 -1.08842,0 -2.38893,0.92017 -2.38893,1.95251"
       class="Note"
       style="stroke-width:0.112173" />
    <path
       id="path152"
       d="m 110.32952,259.59683 c 0,0.48199 0.34704,1.02008 1.25669,1.02008 1.16555,0 2.38893,-0.95347 2.38893,-1.94025 0,-0.66251 -0.56087,-1.03234 -1.25668,-1.03234 -1.08843,0 -2.38894,0.92017 -2.38894,1.95251"
       class="Note"
       style="stroke-width:0.112173" />
    <path
       id="path154"
       d="m 261.71541,188.08641 c 0,0.48198 0.34704,1.02007 1.25669,1.02007 1.16555,0 2.38893,-0.95347 2.38893,-1.94025 0,-0.66252 -0.56087,-1.03234 -1.25669,-1.03234 -1.08843,0 -2.38893,0.92017 -2.38893,1.95252"
       class="Note"
       style="stroke-width:0.112173" />
    <path
       id="path156"
       d="m 93.494544,134.80429 c 0,0.48199 0.34703,1.02007 1.25668,1.02007 1.16556,0 2.38894,-0.95347 2.38894,-1.94024 0,-0.66253 -0.56087,-1.03234 -1.25668,-1.03234 -1.08843,0 -2.38894,0.92016 -2.38894,1.95251"
       class="Note"
       style="stroke-width:0.112173" />
    <path
       id="path158"
       d="m 232.44077,188.08641 c 0,0.48198 0.34704,1.02007 1.2567,1.02007 1.16554,0 2.38893,-0.95347 2.38893,-1.94025 0,-0.66252 -0.56087,-1.03234 -1.25669,-1.03234 -1.08843,0 -2.38894,0.92017 -2.38894,1.95252"
       class="Note"
       style="stroke-width:0.112173" />
    <path
       id="path160"
       d="m 19.213823,203.5104 c 0,0.48198 0.347036,1.02007 1.256684,1.02007 1.165557,0 2.388936,-0.95347 2.388936,-1.94024 0,-0.66253 -0.560864,-1.03234 -1.256684,-1.03234 -1.088425,0 -2.388936,0.92016 -2.388936,1.95251"
       class="Note"
       style="stroke-width:0.112173" />
    <path
       id="path162"
       d="m 19.213823,259.59683 c 0,0.48199 0.347036,1.02008 1.256684,1.02008 1.165557,0 2.388936,-0.95347 2.388936,-1.94025 0,-0.66251 -0.560864,-1.03234 -1.256684,-1.03234 -1.088425,0 -2.388936,0.92017 -2.388936,1.95251"
       class="Note"
       style="stroke-width:0.112173" />
    <path
       id="path164"
       d="m 203.16501,203.5104 c 0,0.48198 0.34704,1.02007 1.25669,1.02007 1.16554,0 2.38893,-0.95347 2.38893,-1.94024 0,-0.66253 -0.56087,-1.03234 -1.25669,-1.03234 -1.08842,0 -2.38893,0.92016 -2.38893,1.95251"
       class="Note"
       style="stroke-width:0.112173" />
    <path
       id="path166"
       d="m 139.31806,252.58603 c 0,0.48199 0.34704,1.02007 1.25669,1.02007 1.16555,0 2.38893,-0.95347 2.38893,-1.94024 0,-0.66252 -0.56086,-1.03234 -1.25668,-1.03234 -1.08843,0 -2.38894,0.92017 -2.38894,1.95251"
       class="Note"
       style="stroke-width:0.112173" />
    <path
       id="path168"
       d="m 124.67227,147.42373 c 0,0.482 0.34704,1.02007 1.25669,1.02007 1.16554,0 2.38893,-0.95347 2.38893,-1.94023 0,-0.66252 -0.56086,-1.03234 -1.25669,-1.03234 -1.08842,0 -2.38893,0.92016 -2.38893,1.9525"
       class="Note"
       style="stroke-width:0.112173" />
    <path
       id="path170"
       d="m 201.4451,259.59683 c 0,0.48199 0.34704,1.02008 1.25669,1.02008 1.16555,0 2.38893,-0.95347 2.38893,-1.94025 0,-0.66251 -0.56086,-1.03234 -1.25669,-1.03234 -1.08842,0 -2.38893,0.92017 -2.38893,1.95251"
       class="Note"
       style="stroke-width:0.112173" />
    <path
       id="path172"
       d="m 263.96339,127.79348 c 0,0.48199 0.34703,1.02008 1.25668,1.02008 1.16556,0 2.38893,-0.95347 2.38893,-1.94025 0,-0.66252 -0.56086,-1.03234 -1.25667,-1.03234 -1.08844,0 -2.38894,0.92016 -2.38894,1.95251"
       class="Note"
       style="stroke-width:0.112173" />
    <path
       id="path174"
       d="m 236.93447,127.79348 c 0,0.48199 0.34704,1.02008 1.2567,1.02008 1.16553,0 2.38893,-0.95347 2.38893,-1.94025 0,-0.66252 -0.56087,-1.03234 -1.2567,-1.03234 -1.08842,0 -2.38893,0.92016 -2.38893,1.95251"
       class="Note"
       style="stroke-width:0.112173" />
    <path
       id="path176"
       d="m 259.4222,248.37955 c 0,0.48199 0.34703,1.02007 1.25669,1.02007 1.16554,0 2.38893,-0.95347 2.38893,-1.94024 0,-0.66253 -0.56087,-1.03234 -1.25669,-1.03234 -1.08843,0 -2.38893,0.92017 -2.38893,1.95251"
       class="Note"
       style="stroke-width:0.112173" />
    <path
       id="path178"
       d="m 48.202257,255.39035 c 0,0.48199 0.347036,1.02007 1.256683,1.02007 1.165554,0 2.388937,-0.95347 2.388937,-1.94024 0,-0.66252 -0.560868,-1.03233 -1.256684,-1.03233 -1.088424,0 -2.388936,0.92016 -2.388936,1.9525"
       class="Note"
       style="stroke-width:0.112173" />
    <path
       id="path180"
       d="m 169.74044,192.29288 c 0,0.482 0.34703,1.02007 1.25669,1.02007 1.16554,0 2.38893,-0.95347 2.38893,-1.94024 0,-0.66251 -0.56087,-1.03233 -1.25669,-1.03233 -1.08843,0 -2.38893,0.92017 -2.38893,1.9525"
       class="Note"
       style="stroke-width:0.112173" />
    <path
       id="path182"
       d="m 48.488909,195.09721 c 0,0.48199 0.347032,1.02007 1.256684,1.02007 1.165553,0 2.388936,-0.95347 2.388936,-1.94024 0,-0.66252 -0.560868,-1.03234 -1.256689,-1.03234 -1.088424,0 -2.388931,0.92017 -2.388931,1.95251"
       class="Note"
       style="stroke-width:0.112173" />
    <path
       id="path184"
       d="m 140.46468,192.29288 c 0,0.482 0.34703,1.02007 1.25668,1.02007 1.16555,0 2.38893,-0.95347 2.38893,-1.94024 0,-0.66251 -0.56086,-1.03233 -1.25668,-1.03233 -1.08843,0 -2.38893,0.92017 -2.38893,1.9525"
       class="Note"
       style="stroke-width:0.112173" />
    <path
       id="path186"
       d="m 178.72896,131.99997 c 0,0.48199 0.34704,1.02007 1.25669,1.02007 1.16555,0 2.38893,-0.95347 2.38893,-1.94025 0,-0.66251 -0.56086,-1.03233 -1.25668,-1.03233 -1.08843,0 -2.38894,0.92016 -2.38894,1.95251"
       class="Note"
       style="stroke-width:0.112173" />
    <path
       id="path188"
       d="m 77.190804,255.39035 c 0,0.48199 0.34703,1.02007 1.25668,1.02007 1.16556,0 2.38894,-0.95347 2.38894,-1.94024 0,-0.66252 -0.56086,-1.03233 -1.25669,-1.03233 -1.08842,0 -2.38893,0.92016 -2.38893,1.9525"
       class="Note"
       style="stroke-width:0.112173" />
    <path
       id="path190"
       d="m 111.19004,203.5104 c 0,0.48198 0.34703,1.02007 1.25668,1.02007 1.16556,0 2.38894,-0.95347 2.38894,-1.94024 0,-0.66253 -0.56086,-1.03234 -1.25669,-1.03234 -1.08842,0 -2.38893,0.92016 -2.38893,1.95251"
       class="Note"
       style="stroke-width:0.112173" />
    <path
       id="path192"
       d="m 39.438186,147.42373 c 0,0.482 0.347036,1.02007 1.256684,1.02007 1.165554,0 2.388936,-0.95347 2.388936,-1.94023 0,-0.66252 -0.560867,-1.03234 -1.256684,-1.03234 -1.088425,0 -2.388936,0.92016 -2.388936,1.9525"
       class="Note"
       style="stroke-width:0.112173" />
    <path
       id="path194"
       d="m 209.90669,147.42373 c 0,0.482 0.34704,1.02007 1.25669,1.02007 1.16554,0 2.38893,-0.95347 2.38893,-1.94023 0,-0.66252 -0.56087,-1.03234 -1.25669,-1.03234 -1.08842,0 -2.38893,0.92016 -2.38893,1.9525"
       class="Note"
       style="stroke-width:0.112173" />
    <path
       id="path196"
       d="m 168.30661,252.58603 c 0,0.48199 0.34704,1.02007 1.25669,1.02007 1.16555,0 2.38894,-0.95347 2.38894,-1.94024 0,-0.66252 -0.56087,-1.03234 -1.2567,-1.03234 -1.08842,0 -2.38893,0.92017 -2.38893,1.95251"
       class="Note"
       style="stroke-width:0.112173" />
    <path
       id="path198"
       d="m 77.764104,195.09721 c 0,0.48199 0.34704,1.02007 1.25669,1.02007 1.16555,0 2.38893,-0.95347 2.38893,-1.94024 0,-0.66252 -0.56087,-1.03234 -1.25668,-1.03234 -1.08843,0 -2.38894,0.92017 -2.38894,1.95251"
       class="Note"
       style="stroke-width:0.112173" />
    <path
       id="path200"
       d="m 26.225419,134.2995 c 0,-1.68259 -1.200598,-2.8271 -2.837625,-2.8271 -0.112173,-0.67304 -0.213826,-1.34608 -0.313726,-1.96303 1.177816,-1.24616 2.006842,-2.65884 2.006842,-4.43082 0,-1.03235 -0.313739,-1.85086 -0.504778,-2.25569 -0.268159,-0.57141 -0.594169,-0.97635 -0.785212,-0.97635 -0.07712,0 -0.436419,0.14728 -0.795729,0.58375 -0.729127,0.85352 -0.930678,2.27671 -0.930678,3.21966 0,0.60644 0.05609,1.15503 0.247127,2.42399 -0.01227,0 -0.595916,0.59417 -0.830783,0.79573 -1.021817,0.94295 -2.434503,2.31006 -2.434503,4.543 0,2.1085 1.828073,3.75779 3.915544,3.75779 0.324245,0 0.627457,-0.0333 0.897382,-0.0789 0.201552,1.0779 0.336518,1.86311 0.336518,2.45728 0,1.1673 -0.606443,1.78426 -1.728169,1.78426 -0.280433,0 -0.515287,-0.0561 -0.527561,-0.0683 -0.02103,0 -0.04382,-0.0105 -0.04382,-0.021 0,-0.0228 0.02278,-0.035 0.05609,-0.0456 0.527557,-0.0789 1.053367,-0.52756 1.053367,-1.24441 0,-0.60644 -0.459211,-1.24618 -1.300508,-1.24618 -0.774689,0 -1.279467,0.63974 -1.279467,1.37938 0,0.7414 0.560863,1.71765 2.075197,1.71765 1.447726,0 2.154069,-0.82027 2.154069,-2.25573 0,-0.43642 -0.0666,-0.9412 -0.178769,-1.58093 -0.03329,-0.22435 -0.08939,-0.57314 -0.168259,-0.99905 1.098934,-0.36982 1.917447,-1.50381 1.917447,-2.66937 m -3.45457,-9.18765 c 0.112174,-0.44869 0.616951,-1.6265 1.200611,-1.6265 0.168259,0 0.448688,0.53806 0.448688,1.32328 0,1.15503 -0.874602,2.03138 -1.649299,2.80432 -0.0666,-0.44869 -0.122684,-0.89738 -0.122684,-1.35659 0,-0.42591 0.04382,-0.79748 0.122684,-1.14451 m 0.336518,11.59937 c -1.603712,0 -2.972578,-1.12173 -2.972578,-2.81659 0,-1.36711 0.976263,-2.59049 1.952513,-3.45457 0.18929,-0.15775 0.369824,-0.32601 0.538083,-0.482 0.0999,0.60469 0.191039,1.12173 0.257638,1.59321 -1.021818,0.29096 -1.715886,1.37938 -1.715886,2.42224 0,0.79748 0.616952,1.87363 1.514334,1.87363 0.08938,0 0.191038,-0.0456 0.191038,-0.15774 0,-0.0894 -0.10166,-0.15599 -0.247124,-0.24538 -0.438183,-0.2594 -0.685311,-0.56086 -0.685311,-1.1007 0,-0.68355 0.517052,-1.23391 1.167293,-1.38989 l 0.650254,3.67893 c -0.224345,0.0561 -0.425905,0.0789 -0.650254,0.0789 m 1.12173,-0.21383 c -0.234858,-1.3338 -0.538071,-3.11805 -0.616952,-3.61232 1.132252,0 1.615994,0.78522 1.715899,1.32505 0.01227,0.0894 0.03329,0.21208 0.03329,0.34704 0,0.808 -0.336519,1.6265 -1.132253,1.94023 m -0.438171,5.87857 c 0,-0.41539 -0.380329,-0.59416 -0.750153,-0.59416 -0.471473,0 -0.932439,0.29093 -0.932439,0.79572 0,0.21383 0.07887,0.37157 0.247132,0.52756 -0.290943,0.11217 -0.594169,0.33651 -0.594169,0.6853 0,0.36983 0.336519,0.61696 0.830783,0.61696 0.604682,0 1.030587,-0.33653 1.030587,-0.82027 0,-0.25765 -0.11217,-0.46973 -0.313735,-0.61695 0.326009,-0.14547 0.481994,-0.32425 0.481994,-0.59416 m -0.694068,0.44869 c -0.168259,-0.0894 -0.213835,-0.11218 -0.247128,-0.13496 l -0.01227,-0.0105 c -0.178777,-0.10166 -0.234867,-0.18052 -0.234867,-0.31373 0,-0.20332 0.15775,-0.34879 0.382095,-0.34879 0.224344,0 0.347031,0.13496 0.347031,0.36982 0,0.18053 -0.06659,0.30322 -0.234857,0.43817 m -0.42766,1.34608 c -0.245376,0 -0.413635,-0.15599 -0.413635,-0.3926 0,-0.21208 0.0999,-0.40312 0.290943,-0.51529 0.04558,0.0228 0.05609,0.0333 0.08939,0.0438 0.134954,0.0683 0.134954,0.0683 0.157749,0.0911 0.224345,0.1227 0.303214,0.23487 0.303214,0.3926 0,0.21208 -0.180534,0.38034 -0.427662,0.38034"
       class="Clef"
       style="stroke-width:0.112173" />
    <path
       id="path202"
       d="m 12.203811,254.88557 c 0,-1.68259 -1.200598,-2.82711 -2.8376252,-2.82711 -0.112173,-0.67303 -0.213826,-1.34607 -0.313726,-1.96302 1.1778162,-1.24617 2.0068372,-2.65885 2.0068372,-4.43083 0,-1.03234 -0.313734,-1.85085 -0.504777,-2.25568 -0.26816,-0.57142 -0.5941692,-0.97636 -0.7852082,-0.97636 -0.07712,0 -0.436418,0.14728 -0.795733,0.58376 -0.729123,0.85352 -0.930674,2.27671 -0.930674,3.21966 0,0.60644 0.05609,1.15503 0.247127,2.42399 -0.01227,0 -0.59592,0.59417 -0.830787,0.79573 -1.021817,0.94295 -2.434499,2.31006 -2.434499,4.543 0,2.1085 1.828073,3.75778 3.91554,3.75778 0.324249,0 0.627461,-0.0333 0.897386,-0.0789 0.2015522,1.07791 0.3365182,1.86313 0.3365182,2.4573 0,1.16729 -0.6064432,1.78424 -1.7281732,1.78424 -0.280429,0 -0.515287,-0.0561 -0.527557,-0.0683 -0.02103,0 -0.04382,-0.0105 -0.04382,-0.0211 0,-0.0228 0.02278,-0.035 0.05609,-0.0456 0.527561,-0.0789 1.053371,-0.52757 1.053371,-1.24442 0,-0.60644 -0.459211,-1.24618 -1.300507,-1.24618 -0.77469,0 -1.279468,0.63974 -1.279468,1.37939 0,0.74138 0.560863,1.71764 2.075197,1.71764 1.447726,0 2.1540652,-0.82027 2.1540652,-2.25573 0,-0.43642 -0.06659,-0.9412 -0.178769,-1.58093 -0.03329,-0.22435 -0.08939,-0.57314 -0.168258,-0.99905 1.098937,-0.36981 1.91745,-1.50381 1.91745,-2.66936 m -3.4545772,-9.18767 c 0.112174,-0.4487 0.616952,-1.62651 1.200607,-1.62651 0.1682602,0 0.4486932,0.53808 0.4486932,1.32329 0,1.15502 -0.8746022,2.03138 -1.6493002,2.80432 -0.0666,-0.44869 -0.122683,-0.89738 -0.122683,-1.35659 0,-0.4259 0.04382,-0.79748 0.122683,-1.14451 m 0.336519,11.59937 c -1.603712,0 -2.972578,-1.12172 -2.972578,-2.81659 0,-1.3671 0.976258,-2.59049 1.952512,-3.45457 0.189291,-0.15774 0.36982,-0.32601 0.53808,-0.482 0.0999,0.60469 0.191043,1.12173 0.257641,1.59321 -1.021817,0.29095 -1.715886,1.37938 -1.715886,2.42223 0,0.79748 0.616948,1.87364 1.514334,1.87364 0.08938,0 0.191039,-0.0456 0.191039,-0.15775 0,-0.0894 -0.101661,-0.15599 -0.247128,-0.24536 -0.43818,-0.25941 -0.685308,-0.56087 -0.685308,-1.10071 0,-0.68355 0.517048,-1.2339 1.167294,-1.38989 l 0.650254,3.67892 c -0.224345,0.0561 -0.42591,0.0789 -0.650254,0.0789 m 1.1217302,-0.21383 c -0.2348582,-1.3338 -0.5380712,-3.11806 -0.6169522,-3.61231 1.1322472,0 1.6159942,0.7852 1.7158942,1.32504 0.01227,0.0894 0.03329,0.21207 0.03329,0.34703 0,0.808 -0.33652,1.62651 -1.132249,1.94024 m -0.4381712,5.87857 c 0,-0.4154 -0.380333,-0.59417 -0.750154,-0.59417 -0.471476,0 -0.932439,0.29095 -0.932439,0.79573 0,0.21382 0.07887,0.37156 0.247128,0.52755 -0.290943,0.11218 -0.594169,0.33653 -0.594169,0.68531 0,0.36982 0.336519,0.61696 0.830787,0.61696 0.604679,0 1.030588,-0.33652 1.030588,-0.82027 0,-0.25764 -0.112175,-0.46972 -0.313735,-0.61695 0.326005,-0.14548 0.481994,-0.32425 0.481994,-0.59416 m -0.694069,0.44868 c -0.168258,-0.0894 -0.213835,-0.11217 -0.247128,-0.13495 l -0.01227,-0.0105 c -0.178781,-0.10165 -0.234866,-0.18052 -0.234866,-0.31373 0,-0.20332 0.157746,-0.34879 0.382094,-0.34879 0.224344,0 0.347028,0.13496 0.347028,0.36982 0,0.18053 -0.06659,0.30322 -0.234857,0.43818 m -0.427658,1.34608 c -0.24538,0 -0.413639,-0.156 -0.413639,-0.39261 0,-0.21208 0.0999,-0.40312 0.290943,-0.51529 0.04558,0.0228 0.05609,0.0333 0.08939,0.0438 0.134959,0.0683 0.134959,0.0683 0.157751,0.0911 0.224344,0.12269 0.303213,0.23486 0.303213,0.3926 0,0.21208 -0.180529,0.38034 -0.427658,0.38034"
       class="Clef"
       style="stroke-width:0.112173" />
    <path
       id="path204"
       d="m 12.203811,194.59243 c 0,-1.68259 -1.200598,-2.82711 -2.8376252,-2.82711 -0.112173,-0.67304 -0.213826,-1.34607 -0.313726,-1.96302 1.1778162,-1.24618 2.0068372,-2.65885 2.0068372,-4.43083 0,-1.03234 -0.313734,-1.85085 -0.504777,-2.25569 -0.26816,-0.57141 -0.5941692,-0.97635 -0.7852082,-0.97635 -0.07712,0 -0.436418,0.14728 -0.795733,0.58375 -0.729123,0.85352 -0.930674,2.27671 -0.930674,3.21966 0,0.60644 0.05609,1.15503 0.247127,2.42399 -0.01227,0 -0.59592,0.59417 -0.830787,0.79573 -1.021817,0.94295 -2.434499,2.31006 -2.434499,4.543 0,2.10851 1.828073,3.75779 3.91554,3.75779 0.324249,0 0.627461,-0.0333 0.897386,-0.0789 0.2015522,1.0779 0.3365182,1.86312 0.3365182,2.45728 0,1.1673 -0.6064432,1.78425 -1.7281732,1.78425 -0.280429,0 -0.515287,-0.0561 -0.527557,-0.0683 -0.02103,0 -0.04382,-0.0105 -0.04382,-0.0211 0,-0.0228 0.02278,-0.035 0.05609,-0.0455 0.527561,-0.0789 1.053371,-0.52757 1.053371,-1.24442 0,-0.60644 -0.459211,-1.24617 -1.300507,-1.24617 -0.77469,0 -1.279468,0.63973 -1.279468,1.37937 0,0.7414 0.560863,1.71765 2.075197,1.71765 1.447726,0 2.1540652,-0.82026 2.1540652,-2.25572 0,-0.43642 -0.06659,-0.9412 -0.178769,-1.58094 -0.03329,-0.22436 -0.08939,-0.57316 -0.168259,-0.99907 1.098938,-0.36981 1.917451,-1.5038 1.917451,-2.66936 m -3.4545772,-9.18765 c 0.112174,-0.4487 0.616952,-1.62651 1.200607,-1.62651 0.1682602,0 0.4486932,0.53807 0.4486932,1.32328 0,1.15503 -0.8746022,2.03138 -1.6493002,2.80432 -0.0666,-0.44869 -0.122683,-0.89738 -0.122683,-1.35658 0,-0.42591 0.04382,-0.79748 0.122683,-1.14451 m 0.336519,11.59937 c -1.603712,0 -2.972578,-1.12173 -2.972578,-2.81659 0,-1.36711 0.976258,-2.5905 1.952512,-3.45457 0.189291,-0.15775 0.36982,-0.32601 0.53808,-0.482 0.0999,0.60468 0.191043,1.12173 0.257641,1.5932 -1.021817,0.29096 -1.715886,1.37939 -1.715886,2.42224 0,0.79748 0.616948,1.87364 1.514334,1.87364 0.08938,0 0.191039,-0.0455 0.191039,-0.15774 0,-0.0894 -0.101661,-0.156 -0.247128,-0.24538 -0.43818,-0.2594 -0.685308,-0.56087 -0.685308,-1.1007 0,-0.68355 0.517048,-1.23391 1.167294,-1.3899 l 0.650254,3.67893 c -0.224345,0.0561 -0.42591,0.0789 -0.650254,0.0789 m 1.1217302,-0.21383 c -0.2348582,-1.3338 -0.5380712,-3.11806 -0.6169522,-3.61232 1.1322472,0 1.6159942,0.78521 1.7158942,1.32505 0.01227,0.0894 0.03329,0.21207 0.03329,0.34703 0,0.808 -0.33652,1.62651 -1.132249,1.94024 m -0.4381712,5.87856 c 0,-0.41539 -0.380333,-0.59416 -0.750154,-0.59416 -0.471476,0 -0.932439,0.29094 -0.932439,0.79572 0,0.21383 0.07887,0.37157 0.247128,0.52756 -0.290943,0.11217 -0.594169,0.33652 -0.594169,0.68531 0,0.36982 0.336519,0.61695 0.830787,0.61695 0.604679,0 1.030588,-0.33652 1.030588,-0.82027 0,-0.25764 -0.112175,-0.46972 -0.313735,-0.61694 0.326005,-0.14548 0.481994,-0.32425 0.481994,-0.59417 m -0.694069,0.44869 c -0.168258,-0.0894 -0.213835,-0.11218 -0.247128,-0.13496 l -0.01227,-0.0105 c -0.178781,-0.10166 -0.234866,-0.18053 -0.234866,-0.31374 0,-0.20331 0.157746,-0.34878 0.382094,-0.34878 0.224344,0 0.347028,0.13495 0.347028,0.36982 0,0.18053 -0.06659,0.30321 -0.234857,0.43817 m -0.427658,1.34607 c -0.24538,0 -0.413639,-0.15599 -0.413639,-0.3926 0,-0.21208 0.0999,-0.40312 0.290943,-0.51529 0.04558,0.0228 0.05609,0.0333 0.08939,0.0438 0.134959,0.0683 0.134959,0.0683 0.157751,0.0911 0.224344,0.12269 0.303213,0.23487 0.303213,0.3926 0,0.21208 -0.180529,0.38034 -0.427658,0.38034"
       class="Clef"
       style="stroke-width:0.112173" />
    <path
       id="path206"
       d="m 32.365132,128.60147 c 0.560863,-0.21382 0.953467,-0.57313 0.953467,-1.19007 0,-0.0999 -0.03329,-1.36887 -1.963023,-1.36887 -1.929725,0 -1.873636,1.36887 -1.873636,1.36887 h 0.01052 l -0.01052,0.0228 c 0,0.40311 0.326001,0.7186 0.729122,0.7186 0.403126,0 0.718613,-0.31549 0.718613,-0.7186 0,-0.32601 -0.247137,-0.63974 -0.560871,-0.70635 0.01052,-0.0122 0.02102,-0.0228 0.03329,-0.0333 0.155998,-0.11217 0.36982,-0.16826 0.583656,-0.16826 0.469723,0 0.974502,0.28044 0.974502,0.88513 0,0.70633 -0.525809,0.808 -0.660776,0.83077 -0.134953,0.0228 -0.762416,0.0666 -0.897382,0.0666 -0.134957,0 -0.145471,0.15775 -0.145471,0.15775 v 0.22435 c 0,0 0.02103,0.12269 0.145471,0.13496 0.191052,0.0105 0.448693,0.0105 0.808004,0.0666 0.492504,0.0666 0.750154,0.40312 0.750154,1.18834 0,0.7519 -0.504779,0.95347 -0.974502,0.95347 -0.315483,0 -0.606439,-0.0894 -0.729127,-0.17879 0.369815,-0.0228 0.673041,-0.34703 0.673041,-0.7186 0,-0.40312 -0.315487,-0.72912 -0.718613,-0.72912 -0.403121,0 -0.729122,0.326 -0.729122,0.72912 0,0.92016 0.841297,1.38113 1.672079,1.38113 1.076155,0 2.243462,-0.37157 2.243462,-1.59321 0,-0.81851 -0.560868,-1.1673 -1.055133,-1.32329 h 0.02278"
       class="TimeSig"
       style="stroke-width:0.112173" />
    <path
       id="path208"
       d="m 31.204848,135.75775 v 0.82904 H 30.27416 c -0.07887,0 -0.157736,0.0683 -0.157736,0.15774 v 0.21383 c 0,0.0894 0.07887,0.15599 0.157736,0.15599 h 3.398488 c 0.09114,0 0.157742,-0.0666 0.157742,-0.15599 v -0.21383 c 0,-0.0894 -0.06659,-0.15774 -0.157742,-0.15774 h -0.997281 v -0.82904 h 0.997281 c 0.09114,0 0.157742,-0.0789 0.157742,-0.16826 v -0.21383 c 0,-0.0789 -0.06659,-0.15599 -0.157742,-0.15599 h -0.997281 v -1.78424 c 0,-0.0666 -0.03329,-0.12269 -0.08939,-0.14548 l -0.134958,-0.0683 c -0.02278,-0.0105 -0.05609,-0.0211 -0.07888,-0.0211 -0.03329,0.0105 -0.07887,0.0211 -0.101652,0.0438 l -1.020078,0.93069 c -0.03329,0.035 -0.04556,0.0789 -0.04556,0.12444 v 0.92017 h -1.289993 c 0,0 1.246179,-1.34607 2.569461,-3.11982 0.04557,-0.0561 0.05609,-0.11217 0.05609,-0.15598 0,-0.0561 -0.02278,-0.10166 -0.03329,-0.11217 l -0.247141,-0.24713 c -0.02278,-0.0228 -0.0666,-0.0456 -0.11217,-0.0456 -0.06659,0 -1.582685,0 -1.659801,0 -0.09114,0 -0.147228,0.0683 -0.15775,0.13496 0,0 -0.05609,0.83077 -0.347032,1.73867 -0.292704,0.90966 -0.629222,1.47053 -0.92017,1.88416 0,0 -0.03329,0.0561 -0.03329,0.12444 0,0.0228 0,0.0438 0.01052,0.0666 0.04557,0.0789 0.112175,0.20157 0.112175,0.20157 0,0 0.02278,0.0683 0.122688,0.0683 h 1.929724"
       class="TimeSig"
       style="stroke-width:0.112173" />
    <path
       style="stroke-width:0.113077"
       id="path210"
       d="m 140.25887,242.86481 -0.82321,0.0679 -0.0147,0.16396 h 0.10968 c 0.18093,0 0.2533,0.0408 0.2533,0.14248 0,0.0407 -0.0147,0.10968 -0.0373,0.19675 l -0.46135,1.55482 h 0.39351 l 0.18657,-0.63776 c 0.20241,-0.69316 0.61401,-1.21558 0.95325,-1.21558 0.11873,0 0.1911,0.0611 0.1911,0.17414 0,0.0927 -0.0373,0.28156 -0.0916,0.45231 l -0.36072,1.22689 h 0.39238 l 0.19449,-0.65585 c 0.11308,-0.37655 0.22616,-0.62872 0.37089,-0.82321 0.16283,-0.22616 0.39352,-0.37428 0.5654,-0.37428 0.11307,0 0.1764,0.0576 0.1764,0.16622 0,0.0633 -0.0226,0.1617 -0.0633,0.28948 l -0.20806,0.64341 c -0.12212,0.35167 -0.12551,0.37994 -0.12551,0.50546 0,0.18997 0.13908,0.31548 0.35167,0.31548 0.14926,0 0.294,-0.0723 0.44778,-0.21485 0.0961,-0.0927 0.15718,-0.17414 0.34376,-0.44439 l -0.14022,-0.095 c -0.23519,0.35393 -0.40255,0.52467 -0.51902,0.52467 -0.0498,0 -0.0961,-0.0497 -0.0961,-0.11307 0,-0.0408 0.0147,-0.0905 0.0554,-0.22276 l 0.28383,-0.87635 c 0.0317,-0.0984 0.0554,-0.23973 0.0554,-0.33924 0,-0.23972 -0.1764,-0.41161 -0.42064,-0.41161 -0.32115,0 -0.61176,0.2092 -0.87297,0.63776 0.0181,-0.0859 0.026,-0.16283 0.026,-0.21711 0,-0.23972 -0.18997,-0.42065 -0.43762,-0.42065 -0.28607,0 -0.493,0.15945 -0.81076,0.61176 l 0.13231,-0.61176"
       class="Fingering" />
    <path
       style="stroke-width:0.113077"
       id="path212"
       d="m 266.01348,121.1197 c -0.13682,0 -0.24424,0.10946 -0.24424,0.24561 0,0.13071 0.10742,0.24379 0.24085,0.24379 0.13909,0 0.24651,-0.10958 0.24651,-0.24379 0,-0.13615 -0.10742,-0.24561 -0.24312,-0.24561 m 0.0814,1.1042 -0.86843,0.0671 -0.017,0.1643 h 0.10743 c 0.18544,0 0.25782,0.0407 0.25782,0.13965 0,0.0441 -0.009,0.0953 -0.0408,0.19959 l -0.26234,0.88166 c -0.0848,0.28801 -0.0995,0.35155 -0.0995,0.45582 0,0.1591 0.13569,0.28099 0.30757,0.28099 0.38898,0 0.65585,-0.40289 0.84582,-0.69622 l -0.14135,-0.0777 c -0.23407,0.35686 -0.42404,0.54774 -0.54503,0.54774 -0.0463,0 -0.078,-0.0407 -0.078,-0.0954 0,-0.0442 0.017,-0.12722 0.0543,-0.25262 l 0.47945,-1.61498"
       class="Fingering" />
    <path
       style="stroke-width:0.113077"
       id="path214"
       d="m 237.87527,122.2239 -0.82319,0.0671 -0.0136,0.1643 h 0.10968 c 0.17979,0 0.25217,0.0407 0.25217,0.14316 0,0.0406 -0.0136,0.10957 -0.0373,0.19608 l -0.46136,1.55481 h 0.39465 l 0.18544,-0.63776 c 0.20354,-0.6926 0.61515,-1.21558 0.95438,-1.21558 0.11759,0 0.18997,0.0617 0.18997,0.17482 0,0.0919 -0.0362,0.28099 -0.0916,0.4523 l -0.36072,1.22622 h 0.39238 l 0.19449,-0.65551 c 0.11308,-0.37632 0.22615,-0.62894 0.3709,-0.82332 0.16283,-0.22616 0.39463,-0.37451 0.56538,-0.37451 0.11308,0 0.17754,0.0583 0.17754,0.166 0,0.0637 -0.0238,0.16261 -0.0645,0.28981 l -0.20807,0.64308 c -0.12212,0.35166 -0.12551,0.37994 -0.12551,0.50534 0,0.19088 0.13908,0.31627 0.35167,0.31627 0.15039,0 0.29513,-0.0725 0.44892,-0.21552 0.095,-0.0919 0.15718,-0.17324 0.34262,-0.44349 l -0.14022,-0.0954 c -0.23406,0.35336 -0.40255,0.52478 -0.51902,0.52478 -0.0497,0 -0.095,-0.0496 -0.095,-0.11307 0,-0.0407 0.0136,-0.0901 0.0543,-0.22265 l 0.28495,-0.87635 c 0.0317,-0.0989 0.0543,-0.24029 0.0543,-0.33924 0,-0.24028 -0.1764,-0.41171 -0.42065,-0.41171 -0.32114,0 -0.61062,0.20851 -0.87295,0.63787 0.0181,-0.0866 0.0272,-0.16261 0.0272,-0.21734 0,-0.24028 -0.1911,-0.42053 -0.43874,-0.42053 -0.28608,0 -0.49302,0.1591 -0.81077,0.61141 l 0.13231,-0.61141"
       class="Fingering" />
    <path
       style="stroke-width:0.113077"
       id="path216"
       d="m 211.88329,121.37458 -0.82321,0.0671 -0.0181,0.1643 h 0.10742 c 0.18545,0 0.25782,0.0407 0.25782,0.13965 0,0.0441 -0.0113,0.10776 -0.0396,0.19958 l -0.57783,1.96122 c -0.0927,0.3269 -0.0961,0.33041 -0.40368,0.34454 l -0.0192,0.16261 h 1.08667 l 0.0181,-0.16261 h -0.0554 c -0.2171,0 -0.28947,-0.0265 -0.28947,-0.11839 0,-0.0353 0.0192,-0.11307 0.0509,-0.22615 l 0.22163,-0.73671 c 0.121,0.31267 0.23973,0.39748 0.53825,0.39748 0.73161,0 1.17488,-0.79506 1.17488,-1.45588 0,-0.22084 -0.0441,-0.37101 -0.14814,-0.50172 -0.11873,-0.14497 -0.29852,-0.23497 -0.47492,-0.23497 -0.23181,0 -0.4704,0.13602 -0.67394,0.38514 l 0.0679,-0.38514 m 0.46588,0.24028 c 0.20354,0 0.33923,0.15718 0.33923,0.39747 0,0.24911 -0.0769,0.55657 -0.21372,0.83575 -0.15717,0.33923 -0.33923,0.49291 -0.57782,0.49291 -0.22277,0 -0.37994,-0.17493 -0.37994,-0.41522 0,-0.40629 0.32,-1.31091 0.83225,-1.31091"
       class="Fingering" />
    <path
       style="stroke-width:0.113077"
       id="path218"
       d="m 170.35671,241.76117 c -0.13569,0 -0.24312,0.10856 -0.24312,0.24539 0,0.13003 0.10743,0.24311 0.23973,0.24311 0.13909,0 0.24764,-0.10855 0.24764,-0.24311 0,-0.13683 -0.10855,-0.24539 -0.24425,-0.24539 m 0.0814,1.10364 -0.86731,0.0679 -0.0181,0.16396 h 0.10855 c 0.18545,0 0.25782,0.0408 0.25782,0.13909 0,0.0441 -0.009,0.0961 -0.0407,0.20014 l -0.26347,0.88201 c -0.0848,0.28721 -0.0995,0.35053 -0.0995,0.4557 0,0.15831 0.13682,0.28043 0.30756,0.28043 0.38899,0 0.65585,-0.40255 0.84695,-0.69656 l -0.14134,-0.0769 c -0.2352,0.35619 -0.42405,0.54729 -0.54617,0.54729 -0.0463,0 -0.078,-0.0407 -0.078,-0.095 0,-0.0441 0.0181,-0.12778 0.0554,-0.25329 l 0.47832,-1.61476"
       class="Fingering" />
    <path
       style="stroke-width:0.113077"
       id="path220"
       d="m 180.77906,121.17488 c -0.13683,0 -0.24425,0.10958 -0.24425,0.24561 0,0.13071 0.10742,0.24379 0.24086,0.24379 0.13909,0 0.24651,-0.10957 0.24651,-0.24379 0,-0.13603 -0.10742,-0.24561 -0.24312,-0.24561 m 0.0814,1.10432 -0.86844,0.0671 -0.017,0.16431 h 0.10743 c 0.18545,0 0.25781,0.0407 0.25781,0.13965 0,0.0441 -0.009,0.0954 -0.0407,0.19958 l -0.26234,0.88167 c -0.0848,0.28801 -0.0995,0.35166 -0.0995,0.45593 0,0.15898 0.13569,0.28088 0.30757,0.28088 0.38899,0 0.65585,-0.4029 0.84581,-0.69611 l -0.14134,-0.0778 c -0.23407,0.35687 -0.42404,0.54774 -0.54503,0.54774 -0.0463,0 -0.078,-0.0406 -0.078,-0.0954 0,-0.0441 0.017,-0.12722 0.0543,-0.25262 l 0.47944,-1.61486"
       class="Fingering" />
    <path
       style="stroke-width:0.113077"
       id="path222"
       d="m 152.64086,122.2792 -0.8232,0.0671 -0.0135,0.16431 h 0.10968 c 0.1798,0 0.25216,0.0407 0.25216,0.14316 0,0.0406 -0.0135,0.10957 -0.0373,0.19607 l -0.46136,1.55482 h 0.39464 l 0.18545,-0.63776 c 0.20353,-0.6926 0.61514,-1.21558 0.95437,-1.21558 0.11761,0 0.18997,0.0618 0.18997,0.17493 0,0.0918 -0.0362,0.28088 -0.0916,0.45231 l -0.36071,1.2261 h 0.39237 l 0.19449,-0.6554 c 0.11308,-0.37643 0.22616,-0.62905 0.3709,-0.82343 0.16283,-0.22616 0.39464,-0.37451 0.56539,-0.37451 0.11307,0 0.17753,0.0582 0.17753,0.16611 0,0.0635 -0.0238,0.16249 -0.0645,0.2897 l -0.20806,0.64319 c -0.12213,0.35155 -0.12552,0.37982 -0.12552,0.50523 0,0.19087 0.13909,0.31627 0.35167,0.31627 0.15039,0 0.29513,-0.0723 0.44892,-0.21552 0.095,-0.0919 0.15718,-0.17313 0.34262,-0.44349 l -0.14021,-0.0954 c -0.23407,0.35336 -0.40256,0.52478 -0.51903,0.52478 -0.0497,0 -0.095,-0.0496 -0.095,-0.11307 0,-0.0406 0.0136,-0.0901 0.0543,-0.22265 l 0.28496,-0.87635 c 0.0317,-0.099 0.0543,-0.24029 0.0543,-0.33924 0,-0.24028 -0.1764,-0.4116 -0.42064,-0.4116 -0.32114,0 -0.61062,0.2084 -0.87296,0.63776 0.0181,-0.0865 0.0271,-0.16249 0.0271,-0.21734 0,-0.24028 -0.1911,-0.42042 -0.43874,-0.42042 -0.28609,0 -0.49302,0.15899 -0.81077,0.61129 l 0.13231,-0.61129"
       class="Fingering" />
    <path
       style="stroke-width:0.113077"
       id="path224"
       d="m 126.64886,121.37458 -0.8232,0.0671 -0.0181,0.1643 h 0.10742 c 0.18545,0 0.25895,0.0407 0.25895,0.13965 0,0.0441 -0.0124,0.10776 -0.0408,0.19958 l -0.57782,1.96122 c -0.0927,0.3269 -0.0961,0.33041 -0.40369,0.34454 l -0.0192,0.16261 h 1.08668 l 0.0181,-0.16261 h -0.0554 c -0.21711,0 -0.28948,-0.0265 -0.28948,-0.11839 0,-0.0353 0.0192,-0.11307 0.0509,-0.22615 l 0.22162,-0.73671 c 0.12213,0.31267 0.23973,0.39748 0.53825,0.39748 0.73162,0 1.17488,-0.79506 1.17488,-1.45588 0,-0.22084 -0.0441,-0.37101 -0.14813,-0.50172 -0.11873,-0.14497 -0.29852,-0.23497 -0.47493,-0.23497 -0.2318,0 -0.4704,0.13602 -0.67394,0.38514 l 0.0679,-0.38514 m 0.46587,0.24028 c 0.20354,0 0.33924,0.15718 0.33924,0.39747 0,0.24911 -0.0769,0.55657 -0.21372,0.83575 -0.15718,0.33923 -0.33923,0.49291 -0.57783,0.49291 -0.22275,0 -0.37994,-0.17493 -0.37994,-0.41522 0,-0.40629 0.32002,-1.31091 0.83225,-1.31091"
       class="Fingering" />
    <path
       style="stroke-width:0.113077"
       id="path226"
       d="m 203.15484,242.11398 -0.82434,0.0679 -0.017,0.16396 h 0.10743 c 0.18544,0 0.25781,0.0407 0.25781,0.14022 0,0.0441 -0.0124,0.10742 -0.0407,0.19901 l -0.57782,1.9619 c -0.0916,0.32679 -0.095,0.33019 -0.40257,0.34376 l -0.0192,0.16283 h 1.08668 l 0.017,-0.16283 h -0.0543 c -0.21711,0 -0.28948,-0.026 -0.28948,-0.11761 0,-0.0362 0.0192,-0.11307 0.0509,-0.22615 l 0.2205,-0.73727 c 0.12212,0.31323 0.24085,0.39804 0.53938,0.39804 0.73161,0 1.17487,-0.79607 1.17487,-1.45644 0,-0.2205 -0.0441,-0.37089 -0.14813,-0.50207 -0.11873,-0.14473 -0.29852,-0.23519 -0.47606,-0.23519 -0.23067,0 -0.46926,0.13682 -0.67281,0.38558 l 0.0679,-0.38558 m 0.46588,0.24085 c 0.20354,0 0.33923,0.15718 0.33923,0.39804 0,0.24876 -0.0781,0.55633 -0.21371,0.83563 -0.15719,0.33924 -0.33924,0.49302 -0.57784,0.49302 -0.22276,0 -0.37993,-0.17527 -0.37993,-0.41613 0,-0.40594 0.32001,-1.31056 0.83225,-1.31056"
       class="Fingering" />
    <path
       style="stroke-width:0.113077"
       id="path228"
       d="m 95.544634,121.17488 c -0.13569,0 -0.24424,0.10958 -0.24424,0.24561 0,0.13071 0.10855,0.24379 0.24085,0.24379 0.13909,0 0.24651,-0.10957 0.24651,-0.24379 0,-0.13603 -0.10742,-0.24561 -0.24312,-0.24561 m 0.0814,1.10432 -0.8673,0.0671 -0.0181,0.16431 h 0.10743 c 0.18544,0 0.25781,0.0407 0.25781,0.13965 0,0.0441 -0.008,0.0954 -0.0407,0.19958 l -0.26235,0.88167 c -0.0848,0.28801 -0.0995,0.35166 -0.0995,0.45593 0,0.15898 0.13569,0.28088 0.30757,0.28088 0.38899,0 0.65584,-0.4029 0.84582,-0.69611 l -0.14135,-0.0778 c -0.23407,0.35687 -0.42404,0.54774 -0.54504,0.54774 -0.0463,0 -0.078,-0.0406 -0.078,-0.0954 0,-0.0441 0.017,-0.12722 0.0543,-0.25262 l 0.47944,-1.61486"
       class="Fingering" />
    <path
       style="stroke-width:0.113077"
       id="path230"
       d="m 67.406884,121.71381 -0.82332,0.0671 -0.0141,0.1643 h 0.10957 c 0.18013,0 0.25261,0.0408 0.25261,0.14316 0,0.0406 -0.0141,0.10957 -0.0371,0.19608 l -0.46113,1.55481 h 0.39396 l 0.18556,-0.63776 c 0.2032,-0.6926 0.61481,-1.21558 0.95404,-1.21558 0.11839,0 0.19087,0.0618 0.19087,0.17493 0,0.0918 -0.0371,0.28089 -0.0919,0.45231 l -0.36038,1.2261 h 0.39226 l 0.19427,-0.6554 c 0.11308,-0.37643 0.22616,-0.62905 0.37112,-0.82343 0.16249,-0.22615 0.39396,-0.37451 0.56539,-0.37451 0.11308,0 0.17663,0.0583 0.17663,0.16611 0,0.0635 -0.023,0.1625 -0.0636,0.28971 l -0.20852,0.64318 c -0.1219,0.35156 -0.12551,0.37983 -0.12551,0.50523 0,0.19088 0.13965,0.31628 0.35167,0.31628 0.15017,0 0.29502,-0.0723 0.4488,-0.21553 0.0953,-0.0919 0.15718,-0.17312 0.34274,-0.44349 l -0.13965,-0.0954 c -0.23498,0.35336 -0.40278,0.52479 -0.51937,0.52479 -0.0495,0 -0.0954,-0.0496 -0.0954,-0.11307 0,-0.0406 0.0142,-0.0901 0.0547,-0.22266 l 0.28451,-0.87635 c 0.0318,-0.0989 0.0547,-0.24029 0.0547,-0.33924 0,-0.24028 -0.17662,-0.4116 -0.42042,-0.4116 -0.32159,0 -0.61141,0.20841 -0.87284,0.63776 0.0176,-0.0865 0.0264,-0.16249 0.0264,-0.21733 0,-0.24029 -0.19076,-0.42043 -0.43818,-0.42043 -0.2862,0 -0.4929,0.15899 -0.81099,0.6113 l 0.13253,-0.6113"
       class="Fingering" />
    <path
       style="stroke-width:0.113077"
       id="path232"
       d="m 231.37445,242.8094 -0.8232,0.0679 -0.0135,0.16397 h 0.10855 c 0.18093,0 0.2533,0.0407 0.2533,0.14361 0,0.0407 -0.0147,0.10856 -0.0373,0.19562 l -0.46136,1.55482 h 0.39464 l 0.18545,-0.63775 c 0.20241,-0.69317 0.61514,-1.2156 0.95438,-1.2156 0.11759,0 0.18996,0.0622 0.18996,0.17528 0,0.0916 -0.0373,0.28043 -0.0916,0.4523 l -0.36072,1.22577 h 0.39239 l 0.19449,-0.65585 c 0.11307,-0.37542 0.22615,-0.62871 0.37089,-0.8232 0.16283,-0.22616 0.39464,-0.3743 0.56539,-0.3743 0.11308,0 0.1764,0.0588 0.1764,0.16623 0,0.0633 -0.0226,0.16283 -0.0633,0.28948 l -0.20806,0.64341 c -0.12212,0.35167 -0.12552,0.37994 -0.12552,0.50546 0,0.18996 0.13909,0.31548 0.35167,0.31548 0.1504,0 0.29513,-0.0723 0.44892,-0.21485 0.095,-0.0916 0.15718,-0.173 0.34262,-0.44326 l -0.14021,-0.0961 c -0.23406,0.35393 -0.40255,0.52468 -0.51903,0.52468 -0.0498,0 -0.095,-0.0486 -0.095,-0.11309 0,-0.0408 0.0135,-0.0893 0.0543,-0.22275 l 0.28496,-0.87635 c 0.0316,-0.0984 0.0543,-0.23973 0.0543,-0.33924 0,-0.23972 -0.1764,-0.4116 -0.42065,-0.4116 -0.32114,0 -0.61062,0.20919 -0.87296,0.63776 0.0181,-0.0859 0.0271,-0.16171 0.0271,-0.21711 0,-0.23972 -0.1911,-0.42065 -0.43874,-0.42065 -0.28608,0 -0.49302,0.15944 -0.81076,0.61175 l 0.13229,-0.61175"
       class="Fingering" />
    <path
       style="stroke-width:0.113077"
       id="path234"
       d="m 41.414329,121.37458 -0.823432,0.0671 -0.01765,0.1643 h 0.107763 c 0.18556,0 0.258043,0.0407 0.258043,0.13965 0,0.0441 -0.01243,0.10776 -0.04068,0.19958 l -0.577714,1.96122 c -0.09193,0.3269 -0.09543,0.33041 -0.402895,0.34454 l -0.01945,0.16261 h 1.086676 l 0.01765,-0.16261 h -0.05473 c -0.217336,0 -0.289819,-0.0265 -0.289819,-0.11839 0,-0.0353 0.01945,-0.11307 0.05122,-0.22615 l 0.22084,-0.73671 c 0.122012,0.31267 0.24029,0.39748 0.53893,0.39748 0.731498,0 1.174985,-0.79506 1.174985,-1.45588 0,-0.22084 -0.04421,-0.37101 -0.148471,-0.50172 -0.118392,-0.14497 -0.298524,-0.23497 -0.475263,-0.23497 -0.231469,0 -0.469951,0.13602 -0.673149,0.38514 l 0.06717,-0.38514 m 0.466439,0.24028 c 0.203203,0 0.339233,0.15718 0.339233,0.39747 0,0.24911 -0.07779,0.55657 -0.213826,0.83575 -0.157293,0.33923 -0.339233,0.49291 -0.577715,0.49291 -0.222647,0 -0.37994,-0.17493 -0.37994,-0.41522 0,-0.40629 0.319783,-1.31091 0.832248,-1.31091"
       class="Fingering" />
    <path
       style="stroke-width:0.113077"
       id="path236"
       d="m 112.30612,241.9602 -0.82321,0.0679 -0.0181,0.16396 h 0.10742 c 0.18545,0 0.25782,0.0408 0.25782,0.13908 0,0.0441 -0.0124,0.10856 -0.0407,0.20015 l -0.57782,1.96077 c -0.0916,0.32678 -0.095,0.33018 -0.40256,0.34488 l -0.0192,0.16283 h 1.08667 l 0.0181,-0.16283 h -0.0554 c -0.21711,0 -0.28948,-0.0271 -0.28948,-0.11873 0,-0.035 0.0192,-0.11308 0.0509,-0.22615 l 0.22163,-0.73614 c 0.121,0.31209 0.23973,0.3969 0.53825,0.3969 0.73161,0 1.17487,-0.79493 1.17487,-1.4553 0,-0.22164 -0.0441,-0.3709 -0.14813,-0.50207 -0.11873,-0.14474 -0.29852,-0.2352 -0.47492,-0.2352 -0.23181,0 -0.4704,0.13569 -0.67394,0.38559 l 0.0679,-0.38559 m 0.46588,0.24086 c 0.20354,0 0.33923,0.15717 0.33923,0.39689 0,0.24991 -0.078,0.55635 -0.21371,0.83565 -0.15718,0.33923 -0.33924,0.49301 -0.57783,0.49301 -0.22277,0 -0.37994,-0.17414 -0.37994,-0.41499 0,-0.40595 0.32001,-1.31056 0.83225,-1.31056"
       class="Fingering" />
    <path
       style="stroke-width:0.113077"
       id="path238"
       d="m 233.38158,182.51683 -0.8232,0.0671 -0.0147,0.1643 h 0.10968 c 0.1798,0 0.25217,0.0407 0.25217,0.14316 0,0.0406 -0.0135,0.10957 -0.0362,0.19607 l -0.46135,1.55482 h 0.39351 l 0.18545,-0.63776 c 0.20354,-0.6926 0.61514,-1.21558 0.95437,-1.21558 0.11873,0 0.1911,0.0617 0.1911,0.17481 0,0.0919 -0.0373,0.28101 -0.0916,0.45231 l -0.36071,1.22622 h 0.39238 l 0.19449,-0.65551 c 0.11308,-0.37633 0.22616,-0.62894 0.3709,-0.82332 0.1617,-0.22616 0.3935,-0.37451 0.56538,-0.37451 0.11308,0 0.1764,0.0582 0.1764,0.16599 0,0.0637 -0.0226,0.16261 -0.0633,0.28983 l -0.20919,0.64307 c -0.12099,0.35166 -0.12551,0.37993 -0.12551,0.50534 0,0.19088 0.14021,0.31628 0.35166,0.31628 0.1504,0 0.29514,-0.0725 0.44893,-0.21553 0.0961,-0.0919 0.15717,-0.17323 0.34262,-0.44349 l -0.13908,-0.0954 c -0.23521,0.35337 -0.40256,0.5248 -0.51903,0.5248 -0.0498,0 -0.0961,-0.0496 -0.0961,-0.11308 0,-0.0407 0.0147,-0.0901 0.0555,-0.22265 l 0.28382,-0.87635 c 0.0317,-0.0989 0.0555,-0.24029 0.0555,-0.33924 0,-0.24028 -0.17753,-0.41171 -0.42065,-0.41171 -0.32227,0 -0.61175,0.20851 -0.87295,0.63787 0.017,-0.0866 0.026,-0.16261 0.026,-0.21734 0,-0.24028 -0.18997,-0.42053 -0.43761,-0.42053 -0.28609,0 -0.49302,0.1591 -0.81076,0.61141 l 0.13229,-0.61141"
       class="Fingering" />
    <path
       style="stroke-width:0.113077"
       id="path240"
       d="m 205.14161,181.6675 -0.82321,0.0671 -0.0181,0.16431 h 0.10855 c 0.18545,0 0.25782,0.0407 0.25782,0.13964 0,0.0441 -0.0124,0.10777 -0.0407,0.19959 l -0.57783,1.96121 c -0.0916,0.32691 -0.0961,0.33042 -0.40256,0.34455 l -0.0203,0.16261 h 1.08666 l 0.0181,-0.16261 h -0.0555 c -0.2171,0 -0.28948,-0.0265 -0.28948,-0.11839 0,-0.0353 0.0192,-0.11308 0.052,-0.22616 l 0.2205,-0.73669 c 0.12212,0.31265 0.23972,0.39746 0.53825,0.39746 0.73161,0 1.17487,-0.79505 1.17487,-1.45587 0,-0.22084 -0.0441,-0.37101 -0.14813,-0.50172 -0.1176,-0.14497 -0.29852,-0.23498 -0.47492,-0.23498 -0.23182,0 -0.47041,0.13603 -0.67282,0.38514 l 0.0667,-0.38514 m 0.46588,0.24029 c 0.20354,0 0.33923,0.15717 0.33923,0.39746 0,0.24912 -0.0769,0.55657 -0.21372,0.83576 -0.15717,0.33924 -0.33923,0.49291 -0.57782,0.49291 -0.22164,0 -0.37881,-0.17494 -0.37881,-0.41522 0,-0.40629 0.31887,-1.31091 0.83112,-1.31091"
       class="Fingering" />
    <path
       style="stroke-width:0.113077"
       id="path242"
       d="m 21.189855,241.9602 -0.823317,0.0679 -0.01765,0.16396 h 0.10776 c 0.185448,0 0.257932,0.0408 0.257932,0.13908 0,0.0441 -0.01231,0.10856 -0.0406,0.20015 l -0.577826,1.96077 c -0.09182,0.32678 -0.09533,0.33018 -0.402783,0.34488 l -0.01945,0.16283 h 1.086561 l 0.01774,-0.16283 h -0.05484 c -0.217336,0 -0.289704,-0.0271 -0.289704,-0.11873 0,-0.035 0.01945,-0.11308 0.05122,-0.22615 l 0.220839,-0.73614 c 0.121898,0.31209 0.24029,0.3969 0.53893,0.3969 0.731383,0 1.174875,-0.79493 1.174875,-1.4553 0,-0.22164 -0.0441,-0.3709 -0.14836,-0.50207 -0.118389,-0.14474 -0.298636,-0.2352 -0.475264,-0.2352 -0.231468,0 -0.470061,0.13569 -0.673263,0.38559 l 0.06717,-0.38559 m 0.466446,0.24086 c 0.203202,0 0.339233,0.15717 0.339233,0.39689 0,0.24991 -0.07768,0.55635 -0.213716,0.83565 -0.157292,0.33923 -0.339232,0.49301 -0.577825,0.49301 -0.222652,0 -0.37983,-0.17414 -0.37983,-0.41499 0,-0.40595 0.319783,-1.31056 0.832138,-1.31056"
       class="Fingering" />
    <path
       style="stroke-width:0.113077"
       id="path244"
       d="m 171.79053,181.46781 c -0.13682,0 -0.24425,0.10957 -0.24425,0.2456 0,0.13072 0.10743,0.2438 0.24086,0.2438 0.13908,0 0.24651,-0.10957 0.24651,-0.2438 0,-0.13603 -0.10743,-0.2456 -0.24312,-0.2456 m 0.0814,1.10431 -0.86843,0.0671 -0.017,0.16429 h 0.10742 c 0.18545,0 0.25781,0.0407 0.25781,0.13966 0,0.0441 -0.009,0.0954 -0.0408,0.19958 l -0.26347,0.88166 c -0.0848,0.28801 -0.0984,0.35167 -0.0984,0.45593 0,0.15899 0.13568,0.28088 0.30756,0.28088 0.38899,0 0.65585,-0.40289 0.84582,-0.6961 l -0.14135,-0.0778 c -0.23519,0.35688 -0.42403,0.54775 -0.54615,0.54775 -0.0452,0 -0.0769,-0.0406 -0.0769,-0.0954 0,-0.0441 0.017,-0.1272 0.0543,-0.25261 l 0.47944,-1.61486"
       class="Fingering" />
    <path
       style="stroke-width:0.113077"
       id="path246"
       d="m 49.142949,242.29942 -0.823317,0.0679 -0.01414,0.16396 h 0.109575 c 0.180244,0 0.252612,0.0408 0.252612,0.14248 0,0.0407 -0.01414,0.10968 -0.03709,0.19675 l -0.461129,1.55482 h 0.393963 l 0.18556,-0.63776 c 0.203201,-0.69316 0.614802,-1.21558 0.954034,-1.21558 0.118393,0 0.190876,0.061 0.190876,0.17413 0,0.0927 -0.03709,0.28157 -0.09193,0.45232 l -0.36038,1.22689 h 0.392267 l 0.19427,-0.65585 c 0.113076,-0.37655 0.226152,-0.62871 0.371119,-0.8232 0.162494,-0.22616 0.393962,-0.37429 0.565389,-0.37429 0.113076,0 0.176627,0.0576 0.176627,0.16623 0,0.0633 -0.02295,0.1617 -0.06355,0.28947 l -0.208515,0.64341 c -0.121897,0.35168 -0.125406,0.37994 -0.125406,0.50546 0,0.18997 0.13954,0.31549 0.351559,0.31549 0.150168,0 0.29502,-0.0723 0.448808,-0.21485 0.09532,-0.0927 0.157178,-0.17414 0.342737,-0.44439 l -0.139539,-0.095 c -0.235089,0.35393 -0.402895,0.52468 -0.519476,0.52468 -0.04953,0 -0.09544,-0.0498 -0.09544,-0.11308 0,-0.0408 0.01415,-0.0905 0.05473,-0.22276 l 0.284503,-0.87635 c 0.0318,-0.0984 0.05473,-0.23973 0.05473,-0.33924 0,-0.23972 -0.176627,-0.4116 -0.420422,-0.4116 -0.321594,0 -0.611413,0.20919 -0.872845,0.63776 0.01765,-0.0859 0.02645,-0.16283 0.02645,-0.21711 0,-0.23972 -0.19076,-0.42065 -0.438175,-0.42065 -0.286199,0 -0.492905,0.15944 -0.810991,0.61175 l 0.132526,-0.61175"
       class="Fingering" />
    <path
       style="stroke-width:0.113077"
       id="path248"
       d="m 141.40548,182.57212 -0.82321,0.0671 -0.0147,0.16429 h 0.10969 c 0.18092,0 0.25329,0.0407 0.25329,0.14316 0,0.0406 -0.0147,0.10957 -0.0373,0.19608 l -0.46135,1.55482 h 0.39464 l 0.18545,-0.63776 c 0.20241,-0.6926 0.61401,-1.21559 0.95325,-1.21559 0.11873,0 0.19109,0.0619 0.19109,0.17494 0,0.0918 -0.0373,0.28087 -0.0916,0.45231 l -0.36073,1.2261 h 0.39239 l 0.19449,-0.6554 c 0.11307,-0.37643 0.22615,-0.62905 0.37089,-0.82343 0.16283,-0.22616 0.39351,-0.37452 0.56539,-0.37452 0.11308,0 0.1764,0.0583 0.1764,0.16612 0,0.0635 -0.0226,0.16249 -0.0633,0.28969 l -0.20807,0.64319 c -0.12212,0.35156 -0.1255,0.37983 -0.1255,0.50523 0,0.19088 0.13908,0.31628 0.35166,0.31628 0.14927,0 0.29514,-0.0723 0.44779,-0.21553 0.0961,-0.0919 0.15831,-0.17312 0.34376,-0.44349 l -0.14022,-0.0954 c -0.2352,0.35336 -0.40256,0.52479 -0.51903,0.52479 -0.0498,0 -0.0961,-0.0496 -0.0961,-0.11308 0,-0.0406 0.0147,-0.0901 0.0554,-0.22265 l 0.28382,-0.87635 c 0.0327,-0.0989 0.0554,-0.24029 0.0554,-0.33923 0,-0.24029 -0.1764,-0.4116 -0.42065,-0.4116 -0.32114,0 -0.61175,0.20841 -0.87296,0.63776 0.0181,-0.0865 0.0271,-0.1625 0.0271,-0.21734 0,-0.24029 -0.1911,-0.42042 -0.43874,-0.42042 -0.28608,0 -0.49302,0.15899 -0.81077,0.6113 l 0.1323,-0.6113"
       class="Fingering" />
    <path
       style="stroke-width:0.113077"
       id="path250"
       d="m 113.1655,181.6675 -0.8232,0.0671 -0.0181,0.16431 h 0.10856 c 0.18545,0 0.25782,0.0407 0.25782,0.13964 0,0.0441 -0.0124,0.10777 -0.0408,0.19959 l -0.57783,1.96121 c -0.0916,0.32691 -0.095,0.33042 -0.40255,0.34455 l -0.0192,0.16261 h 1.08554 l 0.0181,-0.16261 h -0.0543 c -0.21825,0 -0.29061,-0.0265 -0.29061,-0.11839 0,-0.0353 0.0203,-0.11308 0.052,-0.22616 l 0.2205,-0.73669 c 0.12213,0.31265 0.24086,0.39746 0.53938,0.39746 0.73048,0 1.17487,-0.79505 1.17487,-1.45587 0,-0.22084 -0.0441,-0.37101 -0.14926,-0.50172 -0.1176,-0.14497 -0.29852,-0.23498 -0.47492,-0.23498 -0.23181,0 -0.4704,0.13603 -0.67281,0.38514 l 0.0667,-0.38514 m 0.46701,0.24029 c 0.20241,0 0.33923,0.15717 0.33923,0.39746 0,0.24912 -0.078,0.55657 -0.21371,0.83576 -0.15718,0.33924 -0.33923,0.49291 -0.57783,0.49291 -0.22276,0 -0.37994,-0.17494 -0.37994,-0.41522 0,-0.40629 0.32001,-1.31091 0.83225,-1.31091"
       class="Fingering" />
    <path
       style="stroke-width:0.113077"
       id="path252"
       d="m 79.241014,241.76117 c -0.13603,0 -0.2438,0.10856 -0.2438,0.24539 0,0.13003 0.10777,0.24311 0.24029,0.24311 0.13954,0 0.24742,-0.10855 0.24742,-0.24311 0,-0.13683 -0.10788,-0.24539 -0.24391,-0.24539 m 0.0813,1.10364 -0.86753,0.0679 -0.0176,0.16396 h 0.10777 c 0.18556,0 0.25792,0.0408 0.25792,0.13909 0,0.0441 -0.009,0.0961 -0.0406,0.20014 l -0.26324,0.88201 c -0.0848,0.28721 -0.099,0.35053 -0.099,0.4557 0,0.15831 0.13603,0.28043 0.30746,0.28043 0.38865,0 0.65539,-0.40255 0.84627,-0.69656 l -0.14135,-0.0769 c -0.23497,0.35619 -0.42404,0.54729 -0.54594,0.54729 -0.0459,0 -0.0778,-0.0407 -0.0778,-0.095 0,-0.0441 0.0177,-0.12778 0.0548,-0.25329 l 0.47877,-1.61476"
       class="Fingering" />
    <path
       style="stroke-width:0.113077"
       id="path254"
       d="m 79.814434,181.46781 c -0.13615,0 -0.24391,0.10957 -0.24391,0.2456 0,0.13072 0.10776,0.2438 0.24029,0.2438 0.13965,0 0.24741,-0.10957 0.24741,-0.2438 0,-0.13603 -0.10776,-0.2456 -0.24379,-0.2456 m 0.0812,1.10431 -0.86753,0.0671 -0.0177,0.16429 h 0.10777 c 0.18556,0 0.25804,0.0407 0.25804,0.13966 0,0.0441 -0.009,0.0954 -0.0407,0.19958 l -0.26325,0.88166 c -0.0848,0.28801 -0.099,0.35167 -0.099,0.45593 0,0.15899 0.13604,0.28088 0.30747,0.28088 0.38864,0 0.65551,-0.40289 0.84627,-0.6961 l -0.14135,-0.0778 c -0.23497,0.35688 -0.42404,0.54775 -0.54594,0.54775 -0.0459,0 -0.0777,-0.0406 -0.0777,-0.0954 0,-0.0441 0.0176,-0.1272 0.0547,-0.25261 l 0.47877,-1.61486"
       class="Fingering" />
    <path
       style="stroke-width:0.113077"
       id="path256"
       d="m 49.429601,182.00673 -0.823317,0.0671 -0.01414,0.16431 h 0.109572 c 0.180247,0 0.252615,0.0407 0.252615,0.14315 0,0.0406 -0.01415,0.10958 -0.03709,0.19608 l -0.461129,1.55482 h 0.393962 l 0.185559,-0.63776 c 0.203203,-0.6926 0.614914,-1.21558 0.954147,-1.21558 0.118281,0 0.190765,0.0619 0.190765,0.17492 0,0.0918 -0.03709,0.28089 -0.09182,0.45232 l -0.360491,1.2261 h 0.392264 l 0.19438,-0.6554 c 0.113076,-0.37644 0.226156,-0.62905 0.371009,-0.82344 0.162489,-0.22615 0.393962,-0.37451 0.565384,-0.37451 0.113081,0 0.176627,0.0583 0.176627,0.16611 0,0.0635 -0.02295,0.1625 -0.06355,0.28971 l -0.208514,0.64319 c -0.121897,0.35155 -0.125407,0.37982 -0.125407,0.50523 0,0.19087 0.13954,0.31627 0.351559,0.31627 0.150168,0 0.29502,-0.0723 0.448804,-0.21552 0.09544,-0.0919 0.157181,-0.17313 0.342741,-0.4435 l -0.13954,-0.0954 c -0.234973,0.35337 -0.402895,0.52479 -0.519479,0.52479 -0.04953,0 -0.09543,-0.0496 -0.09543,-0.11308 0,-0.0406 0.01414,-0.0901 0.05485,-0.22265 l 0.284391,-0.87634 c 0.03175,-0.099 0.05485,-0.2403 0.05485,-0.33924 0,-0.24028 -0.176738,-0.41161 -0.420537,-0.41161 -0.32159,0 -0.611294,0.20841 -0.872842,0.63776 0.01765,-0.0865 0.02645,-0.16249 0.02645,-0.21733 0,-0.24028 -0.19076,-0.42043 -0.438174,-0.42043 -0.286199,0 -0.492906,0.159 -0.810881,0.6113 l 0.132415,-0.6113"
       class="Fingering" />
    <path
       style="stroke-width:0.113077"
       id="path258"
       d="m 21.189855,181.6675 -0.823317,0.0671 -0.01765,0.16431 h 0.10776 c 0.185448,0 0.257932,0.0407 0.257932,0.13964 0,0.0441 -0.01231,0.10777 -0.0406,0.19959 l -0.577826,1.96121 c -0.09182,0.32691 -0.09533,0.33042 -0.402783,0.34455 l -0.01945,0.16261 h 1.086561 l 0.01774,-0.16261 h -0.05484 c -0.217336,0 -0.289704,-0.0265 -0.289704,-0.11839 0,-0.0353 0.01945,-0.11308 0.05122,-0.22616 l 0.220829,-0.7367 c 0.121898,0.31266 0.24029,0.39747 0.53893,0.39747 0.731383,0 1.174875,-0.79505 1.174875,-1.45587 0,-0.22084 -0.0441,-0.37101 -0.148361,-0.50173 -0.118388,-0.14496 -0.298636,-0.23498 -0.475263,-0.23498 -0.231469,0 -0.470062,0.13604 -0.673263,0.38515 l 0.06717,-0.38515 m 0.466446,0.2403 c 0.203202,0 0.339232,0.15717 0.339232,0.39746 0,0.24911 -0.07768,0.55657 -0.213715,0.83576 -0.157292,0.33923 -0.339232,0.4929 -0.577825,0.4929 -0.222652,0 -0.37983,-0.17493 -0.37983,-0.41521 0,-0.40629 0.319783,-1.31091 0.832138,-1.31091"
       class="Fingering" />
    <path
       style="stroke-width:0.113077"
       id="path260"
       d="m 263.7655,181.41262 c -0.13569,0 -0.24311,0.10946 -0.24311,0.24561 0,0.13072 0.10742,0.2438 0.23972,0.2438 0.14022,0 0.24764,-0.10958 0.24764,-0.2438 0,-0.13615 -0.10742,-0.24561 -0.24425,-0.24561 m 0.0814,1.10421 -0.8673,0.0671 -0.017,0.1643 h 0.10742 c 0.18544,0 0.25782,0.0407 0.25782,0.13965 0,0.0441 -0.009,0.0953 -0.0407,0.19958 l -0.26348,0.88167 c -0.0848,0.288 -0.0984,0.35156 -0.0984,0.45581 0,0.15911 0.1357,0.281 0.30758,0.281 0.38785,0 0.65471,-0.4029 0.84582,-0.69622 l -0.14135,-0.0777 c -0.2352,0.35687 -0.42404,0.54775 -0.54617,0.54775 -0.0452,0 -0.078,-0.0407 -0.078,-0.0954 0,-0.0442 0.0181,-0.12721 0.0555,-0.25261 l 0.47832,-1.61497"
       class="Fingering" />
    <path
       style="stroke-width:0.113077"
       id="path262"
       d="m 261.47229,241.70577 c -0.13569,0 -0.24311,0.10968 -0.24311,0.24538 0,0.13117 0.10742,0.24425 0.23972,0.24425 0.14022,0 0.24764,-0.10969 0.24764,-0.24425 0,-0.1357 -0.10742,-0.24538 -0.24425,-0.24538 m 0.0814,1.10363 -0.86731,0.0679 -0.0181,0.16397 h 0.10856 c 0.18544,0 0.25781,0.0407 0.25781,0.13908 0,0.0452 -0.009,0.0961 -0.0408,0.20015 l -0.26348,0.88201 c -0.0848,0.28721 -0.0984,0.35167 -0.0984,0.4557 0,0.1583 0.1357,0.28043 0.30758,0.28043 0.38785,0 0.65471,-0.40256 0.84581,-0.69543 l -0.14134,-0.078 c -0.2352,0.35733 -0.42404,0.5473 -0.54617,0.5473 -0.0452,0 -0.078,-0.0408 -0.078,-0.095 0,-0.0441 0.0181,-0.12778 0.0554,-0.25329 l 0.47832,-1.61475"
       class="Fingering" />
  </g>
  <text
     xml:space="preserve"
     style="font-size:14.8167px;font-family:sans-serif;-inkscape-font-specification:sans-serif;fill:#000000;stroke:#000000;stroke-width:0.264583;paint-order:stroke fill markers"
     x="60.880951"
     y="18.941502"
     id="text417"><tspan
       sodipodi:role="line"
       id="tspan415"
       style="stroke-width:0.264583"
       x="60.880951"
       y="18.941502">Exercice de corde  vide.</tspan></text>
</svg>
