<?xml version="1.0" encoding="UTF-8" standalone="no"?>
<svg
   width="297mm"
   height="210mm"
   viewBox="0 0 4209.4489 2976.378"
   version="1.2"
   id="svg260"
   sodipodi:docname="ex_corde_a_vide_06.svg"
   inkscape:version="1.2.2 (b0a8486541, 2022-12-01)"
   xmlns:inkscape="http://www.inkscape.org/namespaces/inkscape"
   xmlns:sodipodi="http://sodipodi.sourceforge.net/DTD/sodipodi-0.dtd"
   xmlns="http://www.w3.org/2000/svg"
   xmlns:svg="http://www.w3.org/2000/svg"
   xmlns:rdf="http://www.w3.org/1999/02/22-rdf-syntax-ns#"
   xmlns:cc="http://creativecommons.org/ns#"
   xmlns:dc="http://purl.org/dc/elements/1.1/">
  <defs
     id="defs264" />
  <sodipodi:namedview
     id="namedview262"
     pagecolor="#ffffff"
     bordercolor="#000000"
     borderopacity="0.25"
     inkscape:showpageshadow="2"
     inkscape:pageopacity="0.0"
     inkscape:pagecheckerboard="0"
     inkscape:deskcolor="#d1d1d1"
     inkscape:document-units="mm"
     showgrid="false"
     inkscape:zoom="0.21474908"
     inkscape:cx="628.64066"
     inkscape:cy="600.70107"
     inkscape:window-width="1104"
     inkscape:window-height="552"
     inkscape:window-x="0"
     inkscape:window-y="32"
     inkscape:window-maximized="1"
     inkscape:current-layer="svg260" />
  <title
     id="title2">ex_corde_a_vide_06</title>
  <desc
     id="desc4">Generated by MuseScore Studio 4.5.2</desc>
  <polyline
     class="StaffLines"
     fill="none"
     stroke="#000000"
     stroke-width="2.73"
     stroke-linejoin="bevel"
     points="336.598,634.198 2764.6,634.198"
     id="polyline6"
     transform="matrix(1.5874035,0,0,1.8004248,-283.34768,-234.63125)" />
  <polyline
     class="StaffLines"
     fill="none"
     stroke="#000000"
     stroke-width="2.73"
     stroke-linejoin="bevel"
     points="336.598,658.998 2764.6,658.998"
     id="polyline8"
     transform="matrix(1.5874035,0,0,1.8004248,-283.34768,-234.63125)" />
  <polyline
     class="StaffLines"
     fill="none"
     stroke="#000000"
     stroke-width="2.73"
     stroke-linejoin="bevel"
     points="336.598,683.798 2764.6,683.798"
     id="polyline10"
     transform="matrix(1.5874035,0,0,1.8004248,-283.34768,-234.63125)" />
  <polyline
     class="StaffLines"
     fill="none"
     stroke="#000000"
     stroke-width="2.73"
     stroke-linejoin="bevel"
     points="336.598,708.598 2764.6,708.598"
     id="polyline12"
     transform="matrix(1.5874035,0,0,1.8004248,-283.34768,-234.63125)" />
  <polyline
     class="StaffLines"
     fill="none"
     stroke="#000000"
     stroke-width="2.73"
     stroke-linejoin="bevel"
     points="336.598,733.398 2764.6,733.398"
     id="polyline14"
     transform="matrix(1.5874035,0,0,1.8004248,-283.34768,-234.63125)" />
  <polyline
     class="StaffLines"
     fill="none"
     stroke="#000000"
     stroke-width="2.73"
     stroke-linejoin="bevel"
     points="212.598,1316.2 2764.6,1316.2"
     id="polyline16"
     transform="matrix(1.5874035,0,0,1.8004248,-283.34768,-234.63125)" />
  <polyline
     class="StaffLines"
     fill="none"
     stroke="#000000"
     stroke-width="2.73"
     stroke-linejoin="bevel"
     points="212.598,1341 2764.6,1341"
     id="polyline18"
     transform="matrix(1.5874035,0,0,1.8004248,-283.34768,-234.63125)" />
  <polyline
     class="StaffLines"
     fill="none"
     stroke="#000000"
     stroke-width="2.73"
     stroke-linejoin="bevel"
     points="212.598,1365.8 2764.6,1365.8"
     id="polyline20"
     transform="matrix(1.5874035,0,0,1.8004248,-283.34768,-234.63125)" />
  <polyline
     class="StaffLines"
     fill="none"
     stroke="#000000"
     stroke-width="2.73"
     stroke-linejoin="bevel"
     points="212.598,1390.6 2764.6,1390.6"
     id="polyline22"
     transform="matrix(1.5874035,0,0,1.8004248,-283.34768,-234.63125)" />
  <polyline
     class="StaffLines"
     fill="none"
     stroke="#000000"
     stroke-width="2.73"
     stroke-linejoin="bevel"
     points="212.598,1415.4 2764.6,1415.4"
     id="polyline24"
     transform="matrix(1.5874035,0,0,1.8004248,-283.34768,-234.63125)" />
  <path
     class="MeasureNumber"
     d="m 88.236517,1994.8168 h -3.44784 l -29.565396,34.7121 v 3.0068 h 17.883692 l -1.017526,4.3931 c -1.265156,5.4732 -1.265156,5.4732 -6.795671,5.4732 h -1.141351 l -0.371446,3.3848 H 83.52352 l 0.322236,-3.3848 h -1.141341 c -4.190743,0 -5.084454,-0.36 -5.084454,-1.9264 0,-0.5942 0.123816,-1.2964 0.64607,-3.5468 l 1.065148,-4.3931 h 7.243331 l 0.94291,-3.889 h -7.29253 l 8.011627,-33.8299 M 74.0737,2028.6467 H 59.836279 l 19.620303,-22.9014 -5.382882,22.9014"
     id="path28"
     style="stroke-width:1.69056" />
  <polyline
     class="BarLine"
     fill="none"
     stroke="#000000"
     stroke-width="4.46"
     stroke-linejoin="bevel"
     points="2739.55,1314.83 2739.55,1416.76"
     id="polyline30"
     transform="matrix(1.5874035,0,0,1.8004248,-283.34768,-234.63125)" />
  <polyline
     class="BarLine"
     fill="none"
     stroke="#000000"
     stroke-width="13.64"
     stroke-linejoin="bevel"
     points="2757.78,1314.83 2757.78,1416.76"
     id="polyline32"
     transform="matrix(1.5874035,0,0,1.8004248,-283.34768,-234.63125)" />
  <polyline
     class="BarLine"
     fill="none"
     stroke="#000000"
     stroke-width="4.46"
     stroke-linejoin="bevel"
     points="1928.34,1314.83 1928.34,1416.76"
     id="polyline34"
     transform="matrix(1.5874035,0,0,1.8004248,-283.34768,-234.63125)" />
  <polyline
     class="BarLine"
     fill="none"
     stroke="#000000"
     stroke-width="4.46"
     stroke-linejoin="bevel"
     points="1117.13,1314.83 1117.13,1416.76"
     id="polyline36"
     transform="matrix(1.5874035,0,0,1.8004248,-283.34768,-234.63125)" />
  <polyline
     class="BarLine"
     fill="none"
     stroke="#000000"
     stroke-width="4.46"
     stroke-linejoin="bevel"
     points="2762.37,632.834 2762.37,734.762"
     id="polyline38"
     transform="matrix(1.5874035,0,0,1.8004248,-283.34768,-234.63125)" />
  <polyline
     class="BarLine"
     fill="none"
     stroke="#000000"
     stroke-width="4.46"
     stroke-linejoin="bevel"
     points="2003.17,632.834 2003.17,734.762"
     id="polyline40"
     transform="matrix(1.5874035,0,0,1.8004248,-283.34768,-234.63125)" />
  <polyline
     class="BarLine"
     fill="none"
     stroke="#000000"
     stroke-width="4.46"
     stroke-linejoin="bevel"
     points="1243.97,632.834 1243.97,734.762"
     id="polyline42"
     transform="matrix(1.5874035,0,0,1.8004248,-283.34768,-234.63125)" />
  <polyline
     class="LedgerLine"
     fill="none"
     stroke="#000000"
     stroke-width="3.97"
     stroke-linejoin="bevel"
     points="1159.7,1440.2 1208.29,1440.2"
     id="polyline44"
     transform="matrix(1.5874035,0,0,1.8004248,-283.34768,-234.63125)" />
  <polyline
     class="LedgerLine"
     fill="none"
     stroke="#000000"
     stroke-width="3.97"
     stroke-linejoin="bevel"
     points="1970.91,1440.2 2019.5,1440.2"
     id="polyline46"
     transform="matrix(1.5874035,0,0,1.8004248,-283.34768,-234.63125)" />
  <polyline
     class="LedgerLine"
     fill="none"
     stroke="#000000"
     stroke-width="3.97"
     stroke-linejoin="bevel"
     points="1970.91,1465 2019.5,1465"
     id="polyline48"
     transform="matrix(1.5874035,0,0,1.8004248,-283.34768,-234.63125)" />
  <polyline
     class="LedgerLine"
     fill="none"
     stroke="#000000"
     stroke-width="3.97"
     stroke-linejoin="bevel"
     points="527.341,758.198 575.934,758.198"
     id="polyline50"
     transform="matrix(1.5874035,0,0,1.8004248,-283.34768,-234.63125)" />
  <polyline
     class="LedgerLine"
     fill="none"
     stroke="#000000"
     stroke-width="3.97"
     stroke-linejoin="bevel"
     points="1159.7,1465 1208.29,1465"
     id="polyline52"
     transform="matrix(1.5874035,0,0,1.8004248,-283.34768,-234.63125)" />
  <polyline
     class="LedgerLine"
     fill="none"
     stroke="#000000"
     stroke-width="3.97"
     stroke-linejoin="bevel"
     points="1286.54,782.998 1335.13,782.998"
     id="polyline54"
     transform="matrix(1.5874035,0,0,1.8004248,-283.34768,-234.63125)" />
  <polyline
     class="LedgerLine"
     fill="none"
     stroke="#000000"
     stroke-width="3.97"
     stroke-linejoin="bevel"
     points="1286.54,758.198 1335.13,758.198"
     id="polyline56"
     transform="matrix(1.5874035,0,0,1.8004248,-283.34768,-234.63125)" />
  <polyline
     class="LedgerLine"
     fill="none"
     stroke="#000000"
     stroke-width="3.97"
     stroke-linejoin="bevel"
     points="527.341,807.798 575.934,807.798"
     id="polyline58"
     transform="matrix(1.5874035,0,0,1.8004248,-283.34768,-234.63125)" />
  <polyline
     class="LedgerLine"
     fill="none"
     stroke="#000000"
     stroke-width="3.97"
     stroke-linejoin="bevel"
     points="1970.91,1489.8 2019.5,1489.8"
     id="polyline60"
     transform="matrix(1.5874035,0,0,1.8004248,-283.34768,-234.63125)" />
  <polyline
     class="LedgerLine"
     fill="none"
     stroke="#000000"
     stroke-width="3.97"
     stroke-linejoin="bevel"
     points="527.341,782.998 575.934,782.998"
     id="polyline62"
     transform="matrix(1.5874035,0,0,1.8004248,-283.34768,-234.63125)" />
  <polyline
     class="Stem"
     fill="none"
     stroke="#000000"
     stroke-width="2.48"
     stroke-linejoin="bevel"
     points="1678.82,704.63 1678.82,621.798"
     id="polyline64"
     transform="matrix(1.5874035,0,0,1.8004248,-283.34768,-234.63125)" />
  <polyline
     class="Stem"
     fill="none"
     stroke="#000000"
     stroke-width="2.48"
     stroke-linejoin="bevel"
     points="1198.87,1461.03 1198.87,1365.8"
     id="polyline66"
     transform="matrix(1.5874035,0,0,1.8004248,-283.34768,-234.63125)" />
  <polyline
     class="Stem"
     fill="none"
     stroke="#000000"
     stroke-width="2.48"
     stroke-linejoin="bevel"
     points="2438.01,704.63 2438.01,621.798"
     id="polyline68"
     transform="matrix(1.5874035,0,0,1.8004248,-283.34768,-234.63125)" />
  <polyline
     class="Stem"
     fill="none"
     stroke="#000000"
     stroke-width="2.48"
     stroke-linejoin="bevel"
     points="1855.37,704.63 1855.37,621.798"
     id="polyline70"
     transform="matrix(1.5874035,0,0,1.8004248,-283.34768,-234.63125)" />
  <polyline
     class="Stem"
     fill="none"
     stroke="#000000"
     stroke-width="2.48"
     stroke-linejoin="bevel"
     points="1767.54,1386.63 1767.54,1303.8"
     id="polyline72"
     transform="matrix(1.5874035,0,0,1.8004248,-283.34768,-234.63125)" />
  <polyline
     class="Stem"
     fill="none"
     stroke="#000000"
     stroke-width="2.48"
     stroke-linejoin="bevel"
     points="2614.57,704.63 2614.57,621.798"
     id="polyline74"
     transform="matrix(1.5874035,0,0,1.8004248,-283.34768,-234.63125)" />
  <polyline
     class="Stem"
     fill="none"
     stroke="#000000"
     stroke-width="2.48"
     stroke-linejoin="bevel"
     points="566.51,816.23 566.51,683.798"
     id="polyline76"
     transform="matrix(1.5874035,0,0,1.8004248,-283.34768,-234.63125)" />
  <polyline
     class="Stem"
     fill="none"
     stroke="#000000"
     stroke-width="2.48"
     stroke-linejoin="bevel"
     points="2084.91,741.83 2084.91,658.998"
     id="polyline78"
     transform="matrix(1.5874035,0,0,1.8004248,-283.34768,-234.63125)" />
  <polyline
     class="Stem"
     fill="none"
     stroke="#000000"
     stroke-width="2.48"
     stroke-linejoin="bevel"
     points="1577.98,1386.63 1577.98,1303.8"
     id="polyline80"
     transform="matrix(1.5874035,0,0,1.8004248,-283.34768,-234.63125)" />
  <polyline
     class="Stem"
     fill="none"
     stroke="#000000"
     stroke-width="2.48"
     stroke-linejoin="bevel"
     points="2261.46,704.63 2261.46,621.798"
     id="polyline82"
     transform="matrix(1.5874035,0,0,1.8004248,-283.34768,-234.63125)" />
  <polyline
     class="Stem"
     fill="none"
     stroke="#000000"
     stroke-width="2.48"
     stroke-linejoin="bevel"
     points="1388.42,1386.63 1388.42,1303.8"
     id="polyline84"
     transform="matrix(1.5874035,0,0,1.8004248,-283.34768,-234.63125)" />
  <polyline
     class="Stem"
     fill="none"
     stroke="#000000"
     stroke-width="2.48"
     stroke-linejoin="bevel"
     points="1502.26,704.63 1502.26,621.798"
     id="polyline86"
     transform="matrix(1.5874035,0,0,1.8004248,-283.34768,-234.63125)" />
  <polyline
     class="Stem"
     fill="none"
     stroke="#000000"
     stroke-width="2.48"
     stroke-linejoin="bevel"
     points="766.769,1386.63 766.769,1303.8"
     id="polyline88"
     transform="matrix(1.5874035,0,0,1.8004248,-283.34768,-234.63125)" />
  <polyline
     class="Stem"
     fill="none"
     stroke="#000000"
     stroke-width="2.48"
     stroke-linejoin="bevel"
     points="2578.75,1386.63 2578.75,1303.8"
     id="polyline90"
     transform="matrix(1.5874035,0,0,1.8004248,-283.34768,-234.63125)" />
  <polyline
     class="Stem"
     fill="none"
     stroke="#000000"
     stroke-width="2.48"
     stroke-linejoin="bevel"
     points="743.064,704.63 743.064,621.798"
     id="polyline92"
     transform="matrix(1.5874035,0,0,1.8004248,-283.34768,-234.63125)" />
  <polyline
     class="Stem"
     fill="none"
     stroke="#000000"
     stroke-width="2.48"
     stroke-linejoin="bevel"
     points="577.212,1386.63 577.212,1303.8"
     id="polyline94"
     transform="matrix(1.5874035,0,0,1.8004248,-283.34768,-234.63125)" />
  <polyline
     class="Stem"
     fill="none"
     stroke="#000000"
     stroke-width="2.48"
     stroke-linejoin="bevel"
     points="2389.19,1386.63 2389.19,1303.8"
     id="polyline96"
     transform="matrix(1.5874035,0,0,1.8004248,-283.34768,-234.63125)" />
  <polyline
     class="Stem"
     fill="none"
     stroke="#000000"
     stroke-width="2.48"
     stroke-linejoin="bevel"
     points="919.617,704.63 919.617,621.798"
     id="polyline98"
     transform="matrix(1.5874035,0,0,1.8004248,-283.34768,-234.63125)" />
  <polyline
     class="Stem"
     fill="none"
     stroke="#000000"
     stroke-width="2.48"
     stroke-linejoin="bevel"
     points="387.655,1423.83 387.655,1341"
     id="polyline100"
     transform="matrix(1.5874035,0,0,1.8004248,-283.34768,-234.63125)" />
  <polyline
     class="Stem"
     fill="none"
     stroke="#000000"
     stroke-width="2.48"
     stroke-linejoin="bevel"
     points="2199.64,1386.63 2199.64,1303.8"
     id="polyline102"
     transform="matrix(1.5874035,0,0,1.8004248,-283.34768,-234.63125)" />
  <polyline
     class="Stem"
     fill="none"
     stroke="#000000"
     stroke-width="2.48"
     stroke-linejoin="bevel"
     points="1096.17,704.63 1096.17,621.798"
     id="polyline104"
     transform="matrix(1.5874035,0,0,1.8004248,-283.34768,-234.63125)" />
  <polyline
     class="Stem"
     fill="none"
     stroke="#000000"
     stroke-width="2.48"
     stroke-linejoin="bevel"
     points="956.326,1386.63 956.326,1303.8"
     id="polyline106"
     transform="matrix(1.5874035,0,0,1.8004248,-283.34768,-234.63125)" />
  <polyline
     class="Stem"
     fill="none"
     stroke="#000000"
     stroke-width="2.48"
     stroke-linejoin="bevel"
     points="1325.71,779.03 1325.71,683.798"
     id="polyline108"
     transform="matrix(1.5874035,0,0,1.8004248,-283.34768,-234.63125)" />
  <polyline
     class="Stem"
     fill="none"
     stroke="#000000"
     stroke-width="2.48"
     stroke-linejoin="bevel"
     points="2010.08,1498.23 2010.08,1365.8"
     id="polyline110"
     transform="matrix(1.5874035,0,0,1.8004248,-283.34768,-234.63125)" />
  <path
     class="Note"
     d="m 282.83315,2343.5222 c 0,7.6743 4.87174,16.2415 17.64158,16.2415 16.36227,0 33.53631,-15.181 33.53631,-30.8925 0,-10.5487 -7.87352,-16.437 -17.64158,-16.437 -15.2795,0 -33.53631,14.6509 -33.53631,31.088"
     id="path112"
     style="stroke-width:1.67703" />
  <path
     class="Note"
     d="m 3817.8364,1048.653 c 0,7.6744 4.8718,16.2417 17.6416,16.2417 16.3622,0 33.5363,-15.1813 33.5363,-30.8926 0,-10.5487 -7.8735,-16.437 -17.6416,-16.437 -15.2795,0 -33.5363,14.6509 -33.5363,31.0879"
     id="path114"
     style="stroke-width:1.67703" />
  <path
     class="Note"
     d="m 884.64008,2276.5463 c 0,7.6744 4.87177,16.2417 17.64158,16.2417 16.36227,0 33.53628,-15.1812 33.53628,-30.8926 0,-10.5487 -7.8735,-16.437 -17.64157,-16.437 -15.27945,0 -33.53629,14.651 -33.53629,31.0879"
     id="path116"
     style="stroke-width:1.67703" />
  <path
     class="Note"
     d="m 1185.5435,2276.5463 c 0,7.6744 4.8717,16.2417 17.6416,16.2417 16.3622,0 33.5362,-15.1812 33.5362,-30.8926 0,-10.5487 -7.8735,-16.437 -17.6415,-16.437 -15.2795,0 -33.5363,14.651 -33.5363,31.0879"
     id="path118"
     style="stroke-width:1.67703" />
  <path
     class="Note"
     d="m 583.73661,2276.5463 c 0,7.6744 4.87174,16.2417 17.64158,16.2417 16.36227,0 33.53631,-15.1812 33.53631,-30.8926 0,-10.5487 -7.87352,-16.437 -17.64158,-16.437 -15.2795,0 -33.53631,14.651 -33.53631,31.0879"
     id="path120"
     style="stroke-width:1.67703" />
  <path
     class="Note"
     d="m 3537.5804,1048.653 c 0,7.6744 4.8716,16.2417 17.6416,16.2417 16.3621,0 33.5362,-15.1813 33.5362,-30.8926 0,-10.5487 -7.8735,-16.437 -17.6415,-16.437 -15.2797,0 -33.5363,14.6509 -33.5363,31.0879"
     id="path122"
     style="stroke-width:1.67703" />
  <path
     class="Note"
     d="m 2612.6955,1048.653 c 0,7.6744 4.8717,16.2417 17.6417,16.2417 16.3621,0 33.5362,-15.1813 33.5362,-30.8926 0,-10.5487 -7.8736,-16.437 -17.6416,-16.437 -15.2796,0 -33.5363,14.6509 -33.5363,31.0879"
     id="path124"
     style="stroke-width:1.67703" />
  <path
     class="Note"
     d="m 2052.1675,1048.653 c 0,7.6744 4.8716,16.2417 17.6416,16.2417 16.3621,0 33.5362,-15.1813 33.5362,-30.8926 0,-10.5487 -7.8735,-16.437 -17.6415,-16.437 -15.2797,0 -33.5363,14.6509 -33.5363,31.0879"
     id="path126"
     style="stroke-width:1.67703" />
  <path
     class="Note"
     d="m 566.74664,1249.5804 c 0,7.6743 4.87173,16.2417 17.64157,16.2417 16.36227,0 33.53632,-15.1812 33.53632,-30.8926 0,-10.5487 -7.87353,-16.437 -17.64159,-16.437 -15.27951,0 -33.5363,14.651 -33.5363,31.0879"
     id="path128"
     style="stroke-width:1.67703" />
  <path
     class="Note"
     d="m 3760.9756,2276.5463 c 0,7.6744 4.8718,16.2417 17.6417,16.2417 16.3621,0 33.5363,-15.1812 33.5363,-30.8926 0,-10.5487 -7.8735,-16.437 -17.6417,-16.437 -15.2796,0 -33.5363,14.651 -33.5363,31.0879"
     id="path130"
     style="stroke-width:1.67703" />
  <path
     class="Note"
     d="m 847.00909,1048.653 c 0,7.6744 4.87174,16.2417 17.64157,16.2417 16.36229,0 33.53631,-15.1813 33.53631,-30.8926 0,-10.5487 -7.8735,-16.437 -17.64158,-16.437 -15.27949,0 -33.5363,14.6509 -33.5363,31.0879"
     id="path132"
     style="stroke-width:1.67703" />
  <path
     class="Note"
     d="m 3460.0833,2276.5463 c 0,7.6744 4.8717,16.2417 17.6416,16.2417 16.3622,0 33.5363,-15.1812 33.5363,-30.8926 0,-10.5487 -7.8735,-16.437 -17.6416,-16.437 -15.2795,0 -33.5363,14.651 -33.5363,31.0879"
     id="path134"
     style="stroke-width:1.67703" />
  <path
     class="Note"
     d="m 1127.2715,1048.653 c 0,7.6744 4.8717,16.2417 17.6416,16.2417 16.3622,0 33.5362,-15.1813 33.5362,-30.8926 0,-10.5487 -7.8735,-16.437 -17.6415,-16.437 -15.2795,0 -33.5363,14.6509 -33.5363,31.0879"
     id="path136"
     style="stroke-width:1.67703" />
  <path
     class="Note"
     d="m 3159.1751,2276.5463 c 0,7.6744 4.8717,16.2417 17.6415,16.2417 16.3622,0 33.5363,-15.1812 33.5363,-30.8926 0,-10.5487 -7.8735,-16.437 -17.6415,-16.437 -15.2796,0 -33.5363,14.651 -33.5363,31.0879"
     id="path138"
     style="stroke-width:1.67703" />
  <path
     class="Note"
     d="m 1407.5387,1048.653 c 0,7.6744 4.8718,16.2417 17.6416,16.2417 16.3622,0 33.5363,-15.1813 33.5363,-30.8926 0,-10.5487 -7.8735,-16.437 -17.6416,-16.437 -15.2795,0 -33.5363,14.6509 -33.5363,31.0879"
     id="path140"
     style="stroke-width:1.67703" />
  <path
     class="Note"
     d="m 2858.2668,2477.4737 c 0,7.6743 4.8718,16.2417 17.6417,16.2417 16.3622,0 33.5363,-15.1812 33.5363,-30.8926 0,-10.5487 -7.8736,-16.437 -17.6417,-16.437 -15.2795,0 -33.5363,14.651 -33.5363,31.0879"
     id="path142"
     style="stroke-width:1.67703" />
  <path
     class="Note"
     d="m 1771.8954,1182.6047 c 0,7.6743 4.8718,16.2416 17.6416,16.2416 16.3622,0 33.5363,-15.1812 33.5363,-30.8926 0,-10.5487 -7.8735,-16.4369 -17.6416,-16.4369 -15.2795,0 -33.5363,14.6509 -33.5363,31.0879"
     id="path144"
     style="stroke-width:1.67703" />
  <path
     class="Note"
     d="m 1570.5491,2410.4979 c 0,7.6743 4.8718,16.2417 17.6417,16.2417 16.3622,0 33.5363,-15.1812 33.5363,-30.8926 0,-10.5487 -7.8736,-16.4369 -17.6417,-16.4369 -15.2795,0 -33.5363,14.6509 -33.5363,31.0878"
     id="path146"
     style="stroke-width:1.67703" />
  <path
     class="Note"
     d="m 2332.4235,1048.653 c 0,7.6744 4.8718,16.2417 17.6416,16.2417 16.3622,0 33.5363,-15.1813 33.5363,-30.8926 0,-10.5487 -7.8735,-16.437 -17.6416,-16.437 -15.2795,0 -33.5363,14.6509 -33.5363,31.0879"
     id="path148"
     style="stroke-width:1.67703" />
  <path
     class="Note"
     d="m 2473.258,2276.5463 c 0,7.6744 4.8717,16.2417 17.6416,16.2417 16.3622,0 33.5363,-15.1812 33.5363,-30.8926 0,-10.5487 -7.8735,-16.437 -17.6416,-16.437 -15.2795,0 -33.5363,14.651 -33.5363,31.0879"
     id="path150"
     style="stroke-width:1.67703" />
  <path
     class="Note"
     d="m 2172.3656,2276.5463 c 0,7.6744 4.8718,16.2417 17.6416,16.2417 16.3622,0 33.5363,-15.1812 33.5363,-30.8926 0,-10.5487 -7.8735,-16.437 -17.6416,-16.437 -15.2795,0 -33.5363,14.651 -33.5363,31.0879"
     id="path152"
     style="stroke-width:1.67703" />
  <path
     class="Note"
     d="m 2977.0523,1115.6289 c 0,7.6743 4.8716,16.2417 17.6416,16.2417 16.3621,0 33.5362,-15.1812 33.5362,-30.8927 0,-10.5487 -7.8735,-16.4369 -17.6415,-16.4369 -15.2796,0 -33.5363,14.6509 -33.5363,31.0879"
     id="path154"
     style="stroke-width:1.67703" />
  <path
     class="Note"
     d="m 1871.4574,2276.5463 c 0,7.6744 4.8718,16.2417 17.6416,16.2417 16.3621,0 33.5363,-15.1812 33.5363,-30.8926 0,-10.5487 -7.8735,-16.437 -17.6416,-16.437 -15.2796,0 -33.5363,14.651 -33.5363,31.0879"
     id="path156"
     style="stroke-width:1.67703" />
  <path
     class="Note"
     d="m 3257.3242,1048.653 c 0,7.6744 4.8718,16.2417 17.6416,16.2417 16.3622,0 33.5363,-15.1813 33.5363,-30.8926 0,-10.5487 -7.8735,-16.437 -17.6416,-16.437 -15.2795,0 -33.5363,14.6509 -33.5363,31.0879"
     id="path158"
     style="stroke-width:1.67703" />
  <path
     class="Clef"
     d="m 368.99818,1044.8856 c 0,12.6975 -4.57643,25.7299 -15.74705,30.9206 -3.29698,-21.4323 -7.55355,-49.8412 -8.66087,-57.711 14.17234,0 24.40792,10.9115 24.40792,26.7904 m -22.36569,33.0416 c -3.14941,0.7255 -6.12656,1.0882 -9.1284,1.0882 -22.51325,0 -41.72964,-17.8602 -41.72964,-44.8459 0,-21.7673 13.53265,-41.24599 27.40974,-54.83648 2.65731,-2.67904 5.19165,-5.16269 7.5537,-7.84171 1.40242,9.62773 2.50961,18.02756 3.61679,25.36708 -14.34446,4.82771 -24.08795,21.96251 -24.08795,38.76231 0,12.5021 8.66088,29.6367 21.25852,29.6367 1.25473,0 2.68186,-0.7254 2.68186,-2.3162 0,-1.6185 -1.5747,-2.5115 -3.46922,-3.9348 -6.15126,-4.2976 -9.62051,-8.9301 -9.62051,-17.6929 0,-10.8835 7.08617,-19.6463 16.38671,-22.1299 l 9.1284,58.7436 M 332.77998,894.32964 c 1.42713,-7.14409 8.66087,-25.89731 16.85436,-25.89731 2.36206,0 6.12654,8.73472 6.12654,21.06934 0,18.58587 -12.10554,32.5113 -22.9809,44.65054 -0.93492,-7.14409 -1.72227,-14.09277 -1.72227,-21.5996 0,-6.61383 0.46754,-12.69755 1.72227,-18.22297 m -33.0688,238.43386 c 0,11.8046 8.02122,27.3485 29.27972,27.3485 7.40601,0 13.87709,-2.1488 19.53612,-6.0837 8.51331,-6.7812 10.7031,-18.5857 10.7031,-29.8321 0,-6.9487 -0.93491,-14.9858 -2.50961,-25.1716 -0.46753,-3.5722 -1.42715,-8.9301 -2.36206,-15.9069 15.42708,-5.7209 26.91753,-23.9437 26.91753,-42.3344 0,-26.9578 -16.85423,-45.18074 -39.83513,-45.18074 -1.57471,-10.7161 -3.14941,-21.26487 -4.57642,-31.25534 16.70667,-19.84162 28.19699,-42.16689 28.19699,-70.54784 0,-16.26958 -4.40415,-29.46936 -6.93848,-35.91511 -3.76449,-9.098 -8.34105,-15.34908 -11.17063,-15.34908 -1.10718,0 -5.97884,2.1486 -11.17049,9.09801 -10.08801,13.58983 -12.91745,36.44536 -12.91745,51.43116 0,9.65559 0.78736,18.41835 3.46922,38.42733 -0.17226,0.16744 -8.36561,9.62772 -11.66271,12.66966 -14.34446,15.18119 -34.17597,36.78084 -34.17597,72.52925 0,33.3763 25.66279,59.6364 54.9671,59.6364 4.55183,0 8.80842,-0.5303 12.42535,-1.2558 3.00171,17.1624 4.72411,29.6646 4.72411,39.125 0,18.5859 -8.34104,28.409 -24.23563,28.409 -3.78921,0 -7.08617,-0.8931 -7.40614,-0.8931 -0.14763,-0.1953 -0.46738,-0.3628 -0.46738,-0.5302 0,-0.3628 0.31981,-0.5581 0.78735,-0.7256 7.40598,-1.2558 14.78741,-8.3999 14.78741,-19.8137 0,-9.6557 -6.44651,-19.8416 -18.25679,-19.8416 -11.02294,0 -18.10911,10.1859 -18.10911,21.9625"
     id="path160"
     style="stroke-width:1.67703" />
  <path
     class="Clef"
     d="m 172.16013,2272.7789 c 0,12.6975 -4.57642,25.7299 -15.74704,30.9205 -3.29698,-21.4322 -7.55355,-49.8411 -8.66087,-57.7107 14.17233,0 24.40791,10.9114 24.40791,26.7902 m -22.36569,33.0415 c -3.1494,0.7256 -6.12655,1.0883 -9.12839,1.0883 -22.51325,0 -41.729641,-17.8602 -41.729641,-44.8459 0,-21.7671 13.532651,-41.2459 27.409741,-54.8364 2.6573,-2.6791 5.19164,-5.1628 7.55369,-7.8417 1.40243,9.6277 2.50961,18.0276 3.6168,25.367 -14.34446,4.8279 -24.08795,21.9625 -24.08795,38.7623 0,12.5022 8.66087,29.6367 21.25852,29.6367 1.25472,0 2.68186,-0.7255 2.68186,-2.3162 0,-1.6186 -1.5747,-2.5115 -3.46923,-3.9349 -6.15126,-4.2975 -9.6205,-8.93 -9.6205,-17.6927 0,-10.8836 7.08617,-19.6462 16.38671,-22.1299 l 9.12839,58.7434 M 135.94193,2122.223 c 1.42714,-7.1441 8.66088,-25.8973 16.85437,-25.8973 2.36206,0 6.12654,8.7347 6.12654,21.0694 0,18.5857 -12.10554,32.5112 -22.98091,44.6505 -0.93491,-7.144 -1.72226,-14.0927 -1.72226,-21.5997 0,-6.6138 0.46754,-12.6975 1.72226,-18.2229 m -33.06879,238.4338 c 0,11.8045 8.02122,27.3484 29.27972,27.3484 7.406,0 13.87709,-2.1488 19.53612,-6.0836 8.5133,-6.7813 10.7031,-18.5858 10.7031,-29.8321 0,-6.9487 -0.93491,-14.9859 -2.50961,-25.1717 -0.46754,-3.5721 -1.42715,-8.9302 -2.36206,-15.9068 15.42707,-5.7209 26.91752,-23.9439 26.91752,-42.3343 0,-26.9578 -16.85422,-45.1808 -39.83512,-45.1808 -1.57471,-10.7161 -3.14941,-21.2648 -4.57643,-31.2554 16.70668,-19.8415 28.19699,-42.1668 28.19699,-70.5478 0,-16.2695 -4.40414,-29.4693 -6.93847,-35.9151 -3.76449,-9.098 -8.34105,-15.3491 -11.17063,-15.3491 -1.10718,0 -5.97884,2.1486 -11.17049,9.098 -10.08802,13.5899 -12.91746,36.4454 -12.91746,51.4312 0,9.6556 0.78735,18.4184 3.46923,38.4273 -0.17227,0.1675 -8.36562,9.6279 -11.66272,12.6697 -14.34446,15.1812 -34.175968,36.7808 -34.175968,72.5292 0,33.3762 25.662778,59.6364 54.967108,59.6364 4.55182,0 8.80842,-0.5303 12.42534,-1.2559 3.00172,17.1625 4.72412,29.6647 4.72412,39.1251 0,18.5858 -8.34104,28.4089 -24.23564,28.4089 -3.78921,0 -7.08617,-0.8931 -7.40615,-0.8931 -0.14762,-0.1952 -0.46737,-0.3627 -0.46737,-0.5301 0,-0.3629 0.31981,-0.5582 0.78735,-0.7256 7.40599,-1.2558 14.78741,-8.3999 14.78741,-19.8137 0,-9.6557 -6.4465,-19.8416 -18.25679,-19.8416 -11.02293,0 -18.1091,10.1859 -18.1091,21.9625"
     id="path162"
     style="stroke-width:1.67703" />
  <path
     class="TimeSig"
     d="m 451.17812,974.53309 v 13.19993 h -13.06516 c -1.10717,0 -2.21434,1.08823 -2.21434,2.51155 v 3.40464 c 0,1.42311 1.10717,2.48369 2.21434,2.48369 h 47.70866 c 1.27945,0 2.21437,-1.06058 2.21437,-2.48369 v -3.40464 c 0,-1.42332 -0.93492,-2.51155 -2.21437,-2.51155 h -14.17234 v -13.19993 h 14.17234 c 1.27945,0 2.21437,-1.25577 2.21437,-2.67904 v -3.40457 c 0,-1.25578 -0.93492,-2.48368 -2.21437,-2.48368 h -14.17234 v -28.4089 c 0,-1.06045 -0.46752,-1.95347 -1.08261,-2.31625 l -1.89452,-1.08835 c -0.31997,-0.16744 -0.46754,-0.16744 -0.78735,-0.16744 -0.17228,0 -0.17228,0 -0.31997,0 -0.46738,0 -1.10718,0.16744 -1.42701,0.53022 l -14.32003,14.8184 c -0.46738,0.55813 -0.63967,1.2558 -0.63967,1.98137 v 14.65095 h -18.25675 c 0,0 17.64169,-21.43225 36.21816,-49.67381 0.63979,-0.89301 0.78735,-1.78602 0.78735,-2.48363 0,-0.89301 -0.31982,-1.61851 -0.46738,-1.78602 l -3.46938,-3.9348 c -0.46738,-0.36274 -0.93492,-0.72565 -1.5747,-0.72565 -0.93492,0 -22.21798,0 -23.47287,0 -1.10717,0 -1.89452,1.08841 -2.04223,2.14892 0,0 -0.78736,13.22765 -4.87174,27.6833 -4.10899,14.48352 -8.8331,23.41363 -12.9175,29.99959 0,0 -0.46749,0.893 -0.46749,1.98136 0,0.36278 0,0.69775 0.14763,1.06048 0.46749,1.25577 1.5747,3.20932 1.5747,3.20932 0,0 0.31986,1.08823 1.72234,1.08823 h 27.08986"
     id="path164"
     style="stroke-width:1.67703" />
  <path
     class="TimeSig"
     d="m 451.17812,1063.8342 v 13.2 h -13.06516 c -1.10717,0 -2.21434,1.0882 -2.21434,2.5114 v 3.4048 c 0,1.423 1.10717,2.4836 2.21434,2.4836 h 47.70866 c 1.27945,0 2.21437,-1.0606 2.21437,-2.4836 v -3.4048 c 0,-1.4232 -0.93492,-2.5114 -2.21437,-2.5114 h -14.17234 v -13.2 h 14.17234 c 1.27945,0 2.21437,-1.2557 2.21437,-2.679 v -3.4046 c 0,-1.2559 -0.93492,-2.4837 -2.21437,-2.4837 h -14.17234 v -28.409 c 0,-1.0603 -0.46752,-1.9534 -1.08261,-2.3162 l -1.89452,-1.0883 c -0.31997,-0.1675 -0.46754,-0.1675 -0.78735,-0.1675 -0.17228,0 -0.17228,0 -0.31997,0 -0.46738,0 -1.10718,0.1675 -1.42701,0.5302 l -14.32003,14.8184 c -0.46738,0.5582 -0.63967,1.2558 -0.63967,1.9814 v 14.651 h -18.25675 c 0,0 17.64169,-21.4323 36.21816,-49.6739 0.63979,-0.8929 0.78735,-1.7859 0.78735,-2.4835 0,-0.8931 -0.31982,-1.6186 -0.46738,-1.7861 l -3.46938,-3.93478 c -0.46738,-0.36274 -0.93492,-0.7257 -1.5747,-0.7257 -0.93492,0 -22.21798,0 -23.47287,0 -1.10717,0 -1.89452,1.08845 -2.04223,2.14892 0,0 -0.78736,13.22776 -4.87174,27.68336 -4.10899,14.4835 -8.8331,23.4136 -12.9175,29.9995 0,0 -0.46749,0.893 -0.46749,1.9815 0,0.3628 0,0.6978 0.14763,1.0605 0.46749,1.2557 1.5747,3.2093 1.5747,3.2093 0,0 0.31986,1.0882 1.72234,1.0882 h 27.08986"
     id="path166"
     style="stroke-width:1.67703" />
  <path
     class="Fingering"
     d="m 3193.2408,2078.1945 -1.7462,6.4814 c -0.4127,-4.465 -3.5875,-7.5617 -7.7307,-7.5617 -9.572,0 -15.6041,13.6832 -15.6041,23.1895 0,7.0577 3.7462,11.7207 9.3815,11.7207 4.0161,0 6.4608,-1.8004 9.6356,-6.9676 -0.2382,1.0983 -0.2858,1.5664 -0.2858,2.3046 0,2.8086 1.5875,4.663 3.8575,4.663 5.0955,0 8.6354,-6.5535 10.5562,-11.2166 l -1.9843,-1.2063 c -2.4128,5.5273 -4.6511,8.48 -6.2862,8.48 -0.7619,0 -1.3334,-0.8102 -1.3334,-1.8005 0,-0.8101 0.2382,-2.0164 0.6985,-3.9069 l 6.3496,-24.1796 h -5.5082 m -8.3815,2.8806 c 2.9684,0 4.8098,2.3766 4.8098,6.4275 0,4.1591 -1.2699,9.8484 -3.2225,14.3675 -1.9842,4.483 -4.2701,6.4994 -7.4449,6.4994 -3.1748,0 -5.0796,-2.6646 -5.0796,-7.0575 0,-6.4637 3.5717,-20.2369 10.9372,-20.2369"
     id="path168"
     style="stroke-width:1.69056" />
  <path
     class="Fingering"
     d="m 2502.0377,2059.542 c -1.905,0 -3.4289,1.7285 -3.4289,3.9069 0,2.0706 1.5239,3.871 3.3812,3.871 1.9525,0 3.4764,-1.7284 3.4764,-3.871 0,-2.1784 -1.5239,-3.9069 -3.4287,-3.9069 m 1.1428,17.5722 -12.1754,1.0803 -0.2539,2.6106 h 1.508 c 2.6192,0 3.6351,0.6481 3.6351,2.2145 0,0.7022 -0.1269,1.5304 -0.5714,3.1867 l -3.6987,14.0434 c -1.1905,4.573 -1.3969,5.5813 -1.3969,7.2557 0,2.5206 1.9208,4.465 4.3177,4.465 5.4607,0 9.207,-6.4095 11.8898,-11.0906 l -1.9844,-1.2243 c -3.3017,5.6714 -5.9527,8.714 -7.6671,8.714 -0.6508,0 -1.0953,-0.6481 -1.0953,-1.5123 0,-0.7021 0.2539,-2.0345 0.7778,-4.0329 l 6.7147,-25.7101"
     id="path170"
     style="stroke-width:1.69056" />
  <path
     class="Fingering"
     d="m 2438.2716,2243.5454 c -8.8736,0 -15.3502,10.9467 -15.3502,26.0882 0,14.8175 6.2702,25.674 14.8264,25.674 8.9053,0 15.1438,-10.4965 15.1438,-25.4759 0,-7.6338 -1.4128,-13.9533 -4.0796,-18.9405 -2.4764,-4.537 -6.5401,-7.3458 -10.5404,-7.3458 m -0.4444,3.0968 c 2.0794,0 4.1271,1.5844 5.6511,4.483 1.7144,3.3669 2.2859,7.4718 2.2859,17.3561 0,10.1545 -0.4445,14.9076 -1.7144,18.0583 -1.4605,3.5468 -3.7463,5.6714 -6.1432,5.6714 -2.159,0 -4.1432,-1.5664 -5.6513,-4.4471 -1.7938,-3.4028 -2.2859,-7.8319 -2.2859,-19.6606 0,-8.4261 0.4445,-12.603 1.7145,-15.7718 1.4604,-3.6008 3.7462,-5.6893 6.1433,-5.6893"
     id="path172"
     style="stroke-width:1.69056" />
  <path
     class="Fingering"
     d="m 2345.6307,840.22593 -11.5563,1.06766 -0.2063,2.61601 h 1.5397 c 2.5241,0 3.5399,0.64816 3.5399,2.27934 0,0.64635 -0.1904,1.74462 -0.5079,3.12194 l -6.4766,24.75584 h 5.5242 l 2.6033,-10.1544 c 2.8573,-11.0276 8.6355,-19.35456 13.3976,-19.35456 1.6669,0 2.6828,0.98483 2.6828,2.78525 0,1.46195 -0.5239,4.47226 -1.2858,7.20171 l -5.0638,19.522 h 5.5082 l 2.7304,-10.43526 c 1.5874,-5.99361 3.1748,-10.01576 5.2067,-13.11069 2.27,-3.60086 5.5242,-5.96301 7.937,-5.96301 1.5874,0 2.4764,0.92721 2.4764,2.64482 0,1.01184 -0.3176,2.58721 -0.889,4.61269 l -2.9367,10.24082 c -1.7144,5.59752 -1.762,6.04762 -1.762,8.04429 0,3.03912 1.9684,5.03579 4.9368,5.03579 2.1112,0 4.1432,-1.15227 6.302,-3.4316 1.3493,-1.46376 2.2065,-2.75646 4.8098,-7.06127 l -1.9525,-1.51957 c -3.3018,5.62634 -5.6511,8.35578 -7.302,8.35578 -0.6826,0 -1.3334,-0.78859 -1.3334,-1.80042 0,-0.64636 0.2064,-1.43494 0.7778,-3.54505 l 3.9843,-13.95328 c 0.4445,-1.57537 0.7778,-3.82591 0.7778,-5.40128 0,-3.8259 -2.4921,-6.55355 -5.905,-6.55355 -4.5242,0 -8.5879,3.31819 -12.2548,10.1544 0.2381,-1.37732 0.3651,-2.58721 0.3651,-3.46042 0,-3.82589 -2.6827,-6.69398 -6.1432,-6.69398 -4.0161,0 -6.9212,2.5314 -11.3818,9.73311 l 1.8573,-9.73311"
     id="path174"
     style="stroke-width:1.69056" />
  <path
     class="Fingering"
     d="m 2017.1811,1015.6593 c -8.8895,0 -15.3503,10.943 -15.3503,26.0792 0,14.8247 6.2703,25.6831 14.8264,25.6831 8.9054,0 15.128,-10.4929 15.128,-25.4869 0,-7.623 -1.4128,-13.9533 -4.0638,-18.9333 -2.4764,-4.528 -6.5559,-7.3421 -10.5403,-7.3421 m -0.4445,3.095 c 2.0795,0 4.1113,1.5753 5.6511,4.4723 1.7144,3.3757 2.2859,7.4842 2.2859,17.3578 0,10.1562 -0.4603,14.9093 -1.7144,18.0602 -1.4604,3.545 -3.7463,5.6821 -6.1592,5.6821 -2.1588,0 -4.143,-1.5754 -5.6511,-4.4435 -1.7779,-3.4047 -2.2859,-7.8499 -2.2859,-19.6643 0,-8.4403 0.4445,-12.6029 1.7145,-15.7825 1.4603,-3.6009 3.7462,-5.6821 6.1591,-5.6821"
     id="path176"
     style="stroke-width:1.69056" />
  <path
     class="Fingering"
     d="m 2086.2173,850.29571 -1.7304,6.49953 c -0.4286,-4.47405 -3.6033,-7.56718 -7.7306,-7.56718 -9.5879,0 -15.6042,13.67063 -15.6042,23.18047 0,7.05947 3.7463,11.72977 9.3657,11.72977 4.0161,0 6.4766,-1.80043 9.6514,-6.97665 -0.2381,1.09826 -0.3016,1.57537 -0.3016,2.30635 0,2.81405 1.5874,4.6703 3.8733,4.6703 5.0797,0 8.6355,-6.55355 10.5403,-11.22385 l -1.9842,-1.20988 c -2.397,5.5417 -4.6353,8.49619 -6.2703,8.49619 -0.7778,0 -1.3334,-0.81558 -1.3334,-1.80042 0,-0.81559 0.2381,-2.02547 0.6826,-3.91052 l 6.3496,-24.19411 h -5.5082 m -8.3816,2.89869 c 2.9844,0 4.8099,2.36216 4.8099,6.4131 0,4.16439 -1.2541,9.84653 -3.2224,14.3764 -1.9844,4.47226 -4.2542,6.49774 -7.4291,6.49774 -3.1748,0 -5.0956,-2.67183 -5.0956,-7.06127 0,-6.47073 3.5717,-20.22597 10.9372,-20.22597"
     id="path178"
     style="stroke-width:1.69056" />
  <path
     class="Fingering"
     d="m 1736.909,1149.6109 c -8.8735,0 -15.3501,10.9431 -15.3501,26.0792 0,14.8248 6.2703,25.6831 14.8422,25.6831 8.8894,0 15.1279,-10.4929 15.1279,-25.4869 0,-7.6229 -1.4128,-13.9532 -4.0796,-18.9332 -2.4763,-4.5281 -6.5401,-7.3422 -10.5404,-7.3422 m -0.4444,3.095 c 2.0795,0 4.1273,1.5754 5.6511,4.4722 1.7145,3.3759 2.2859,7.4844 2.2859,17.3579 0,10.1563 -0.4445,14.9093 -1.7144,18.0601 -1.4604,3.545 -3.7462,5.6822 -6.1432,5.6822 -2.1589,0 -4.1432,-1.5754 -5.6512,-4.4434 -1.7937,-3.4047 -2.2858,-7.8499 -2.2858,-19.6643 0,-8.4404 0.4444,-12.603 1.7143,-15.7825 1.4605,-3.6009 3.7464,-5.6822 6.1433,-5.6822"
     id="path180"
     style="stroke-width:1.69056" />
  <path
     class="Fingering"
     d="m 1799.6432,834.82467 -11.5721,1.06765 -0.2381,2.61601 h 1.508 c 2.6034,0 3.6193,0.64815 3.6193,2.22352 0,0.70218 -0.1746,1.71581 -0.5715,3.17775 l -8.1116,31.22657 c -1.2858,5.20503 -1.3334,5.26085 -5.6512,5.4859 l -0.2698,2.589 h 15.2549 l 0.254,-2.589 h -0.7778 c -3.0478,0 -4.0638,-0.42131 -4.0638,-1.88505 0,-0.56173 0.2699,-1.80042 0.7144,-3.60085 l 3.0954,-11.72977 c 1.7144,4.97818 3.3812,6.3285 7.5719,6.3285 10.2705,0 16.4931,-12.65878 16.4931,-23.18047 0,-3.51623 -0.619,-5.9072 -2.0795,-7.98849 -1.6667,-2.30814 -4.1907,-3.74127 -6.6671,-3.74127 -3.2541,0 -6.6036,2.1659 -9.4608,6.13224 l 0.9523,-6.13224 m 6.5402,3.82589 c 2.8573,0 4.7622,2.5026 4.7622,6.3285 0,3.96633 -1.0954,8.86169 -3.0002,13.30694 -2.2065,5.40127 -4.7623,7.84804 -8.1116,7.84804 -3.1272,0 -5.3337,-2.78525 -5.3337,-6.61115 0,-6.46892 4.4923,-20.87233 11.6833,-20.87233"
     id="path182"
     style="stroke-width:1.69056" />
  <path
     class="Fingering"
     d="m 1372.5523,1015.6593 c -8.8894,0 -15.366,10.943 -15.366,26.0792 0,14.8247 6.286,25.6831 14.8422,25.6831 8.9053,0 15.128,-10.4929 15.128,-25.4869 0,-7.623 -1.4129,-13.9533 -4.0638,-18.9333 -2.4922,-4.528 -6.556,-7.3421 -10.5404,-7.3421 m -0.4603,3.095 c 2.0953,0 4.1273,1.5753 5.667,4.4723 1.7144,3.3757 2.27,7.4842 2.27,17.3578 0,10.1562 -0.4445,14.9093 -1.6985,18.0602 -1.4763,3.545 -3.7463,5.6821 -6.1591,5.6821 -2.1589,0 -4.1432,-1.5754 -5.6512,-4.4435 -1.7937,-3.4047 -2.2858,-7.8499 -2.2858,-19.6643 0,-8.4403 0.4444,-12.6029 1.7143,-15.7825 1.4605,-3.6009 3.7463,-5.6821 6.1433,-5.6821"
     id="path184"
     style="stroke-width:1.69056" />
  <path
     class="Fingering"
     d="m 1436.3025,831.64511 c -1.9049,0 -3.413,1.74462 -3.413,3.91052 0,2.08129 1.5081,3.88172 3.3653,3.88172 1.9684,0 3.4764,-1.74461 3.4764,-3.88172 0,-2.1659 -1.508,-3.91052 -3.4287,-3.91052 m 1.1429,17.58295 -12.1754,1.06765 -0.254,2.61602 h 1.5239 c 2.6034,0 3.6193,0.64816 3.6193,2.22353 0,0.70216 -0.127,1.51955 -0.5715,3.17775 l -3.6986,14.03791 c -1.1906,4.58568 -1.3811,5.59932 -1.3811,7.25931 0,2.53139 1.9049,4.47225 4.3178,4.47225 5.4447,0 9.1911,-6.41491 11.8738,-11.08341 l -1.9843,-1.23869 c -3.3018,5.68214 -5.9527,8.72126 -7.6671,8.72126 -0.635,0 -1.0954,-0.64636 -1.0954,-1.51956 0,-0.70217 0.2541,-2.02548 0.7778,-4.02215 l 6.7148,-25.71187"
     id="path186"
     style="stroke-width:1.69056" />
  <path
     class="Fingering"
     d="m 2823.2804,2444.4728 c -8.8736,0 -15.3501,10.9466 -15.3501,26.0882 0,14.8175 6.2702,25.6741 14.8422,25.6741 8.8894,0 15.1279,-10.4965 15.1279,-25.4761 0,-7.6337 -1.4128,-13.9532 -4.0796,-18.9405 -2.4763,-4.537 -6.5401,-7.3457 -10.5404,-7.3457 m -0.4444,3.0968 c 2.0795,0 4.1272,1.5844 5.6512,4.4831 1.7144,3.3667 2.2858,7.4717 2.2858,17.356 0,10.1545 -0.4445,14.9076 -1.7144,18.0583 -1.4603,3.5468 -3.7462,5.6714 -6.1432,5.6714 -2.1589,0 -4.1432,-1.5664 -5.6512,-4.4471 -1.7938,-3.4028 -2.2859,-7.8318 -2.2859,-19.6606 0,-8.426 0.4445,-12.603 1.7144,-15.7717 1.4605,-3.6009 3.7463,-5.6894 6.1433,-5.6894"
     id="path188"
     style="stroke-width:1.69056" />
  <path
     class="Fingering"
     d="m 1092.2835,1015.6593 c -8.8799,0 -15.3534,10.943 -15.3534,26.0792 0,14.8247 6.2751,25.6831 14.8327,25.6831 8.9038,0 15.1295,-10.4929 15.1295,-25.4869 0,-7.623 -1.4127,-13.9533 -4.0669,-18.9333 -2.4811,-4.528 -6.548,-7.3421 -10.5419,-7.3421 m -0.446,3.095 c 2.0826,0 4.1177,1.5753 5.6543,4.4723 1.7128,3.3757 2.2827,7.4842 2.2827,17.3578 0,10.1562 -0.446,14.9093 -1.7112,18.0602 -1.4636,3.545 -3.7464,5.6821 -6.1512,5.6821 -2.1589,0 -4.1432,-1.5754 -5.656,-4.4435 -1.7858,-3.4047 -2.281,-7.8499 -2.281,-19.6643 0,-8.4403 0.446,-12.6029 1.7112,-15.7825 1.4636,-3.6009 3.7447,-5.6821 6.1512,-5.6821"
     id="path190"
     style="stroke-width:1.69056" />
  <path
     class="Fingering"
     d="m 1140.4707,840.22593 -11.5578,1.06766 -0.1984,2.61601 h 1.5381 c 2.5288,0 3.5463,0.64816 3.5463,2.27934 0,0.64635 -0.1984,1.74462 -0.5207,3.12194 l -6.4734,24.75584 h 5.5305 l 2.6049,-10.1544 c 2.8526,-11.0276 8.6308,-19.35456 13.393,-19.35456 1.662,0 2.6795,0.98483 2.6795,2.78525 0,1.46195 -0.5207,4.47226 -1.2905,7.20171 l -5.0591,19.522 h 5.5067 l 2.7272,-10.43526 c 1.5873,-5.99361 3.1747,-10.01576 5.2098,-13.11069 2.2811,-3.60086 5.5306,-5.96301 7.937,-5.96301 1.5874,0 2.4795,0.92721 2.4795,2.64482 0,1.01184 -0.3222,2.58721 -0.8921,4.61269 l -2.9271,10.24082 c -1.7113,5.59752 -1.762,6.04762 -1.762,8.04429 0,3.03912 1.9604,5.03579 4.9367,5.03579 2.1081,0 4.1416,-1.15227 6.3005,-3.4316 1.3382,-1.46376 2.2065,-2.75646 4.8114,-7.06127 l -1.9604,-1.51957 c -3.2986,5.62634 -5.6544,8.35578 -7.291,8.35578 -0.6952,0 -1.3398,-0.78859 -1.3398,-1.80042 0,-0.64636 0.1984,-1.43494 0.7683,-3.54505 l 3.9939,-13.95328 c 0.4461,-1.57537 0.7683,-3.82591 0.7683,-5.40128 0,-3.8259 -2.4795,-6.55355 -5.9019,-6.55355 -4.5146,0 -8.5831,3.31819 -12.2532,10.1544 0.2476,-1.37732 0.3715,-2.58721 0.3715,-3.46042 0,-3.82589 -2.678,-6.69398 -6.1512,-6.69398 -4.0177,0 -6.9196,2.5314 -11.3849,9.73311 l 1.8604,-9.73311"
     id="path192"
     style="stroke-width:1.69056" />
  <path
     class="Fingering"
     d="m 617.79594,2078.1945 -1.73661,6.4814 c -0.42226,-4.465 -3.59706,-7.5617 -7.7386,-7.5617 -9.57363,0 -15.60101,13.6832 -15.60101,23.1895 0,7.0577 3.7447,11.7207 9.37521,11.7207 4.01773,0 6.47343,-1.8004 9.64824,-6.9676 -0.24763,1.0983 -0.29684,1.5664 -0.29684,2.3046 0,2.8086 1.5874,4.663 3.8685,4.663 5.08446,0 8.6323,-6.5535 10.54194,-11.2166 l -1.98425,-1.2063 c -2.4065,5.5273 -4.63839,8.48 -6.275,8.48 -0.7699,0 -1.33977,-0.8102 -1.33977,-1.8005 0,-0.8101 0.24764,-2.0164 0.69529,-3.9069 l 6.34961,-24.1796 h -5.50671 m -8.38308,2.8806 c 2.97639,0 4.81142,2.3766 4.81142,6.4275 0,4.1591 -1.26515,9.8484 -3.22401,14.3675 -1.98426,4.483 -4.26694,6.4994 -7.44175,6.4994 -3.17481,0 -5.08446,-2.6646 -5.08446,-7.0575 0,-6.4637 3.57167,-20.2369 10.9388,-20.2369"
     id="path194"
     style="stroke-width:1.69056" />
  <path
     class="Fingering"
     d="m 3124.1887,2243.5454 c -8.8736,0 -15.3502,10.9467 -15.3502,26.0882 0,14.8175 6.2703,25.674 14.8263,25.674 8.9054,0 15.128,-10.4965 15.128,-25.4759 0,-7.6338 -1.4128,-13.9533 -4.0638,-18.9405 -2.4763,-4.537 -6.5401,-7.3458 -10.5403,-7.3458 m -0.4445,3.0968 c 2.0795,0 4.1114,1.5844 5.6511,4.483 1.7144,3.3669 2.2859,7.4718 2.2859,17.3561 0,10.1545 -0.4444,14.9076 -1.7144,18.0583 -1.4604,3.5468 -3.7463,5.6714 -6.1432,5.6714 -2.1589,0 -4.1432,-1.5664 -5.667,-4.4471 -1.7779,-3.4028 -2.27,-7.8319 -2.27,-19.6606 0,-8.4261 0.4445,-12.603 1.6985,-15.7718 1.4763,-3.6008 3.7463,-5.6893 6.1591,-5.6893"
     id="path196"
     style="stroke-width:1.69056" />
  <path
     class="Fingering"
     d="m 812.02112,1015.6593 c -8.87835,0 -15.35178,10.943 -15.35178,26.0792 0,14.8247 6.27501,25.6831 14.83111,25.6831 8.90534,0 15.13113,-10.4929 15.13113,-25.4869 0,-7.623 -1.41438,-13.9533 -4.06852,-18.9333 -2.47952,-4.528 -6.54804,-7.3421 -10.54194,-7.3421 m -0.44606,3.095 c 2.08427,0 4.11773,1.5753 5.65592,4.4723 1.71122,3.3757 2.28109,7.4842 2.28109,17.3578 0,10.1562 -0.44606,14.9093 -1.71121,18.0602 -1.46359,3.545 -3.74468,5.6821 -6.15119,5.6821 -2.15728,0 -4.14153,-1.5754 -5.65433,-4.4435 -1.78584,-3.4047 -2.28268,-7.8499 -2.28268,-19.6643 0,-8.4403 0.44605,-12.6029 1.71121,-15.7825 1.46359,-3.6009 3.74627,-5.6821 6.15119,-5.6821"
     id="path198"
     style="stroke-width:1.69056" />
  <path
     class="Fingering"
     d="m 881.06842,850.29571 -1.73664,6.49953 c -0.42065,-4.47405 -3.59546,-7.56718 -7.73858,-7.56718 -9.57363,0 -15.601,13.67063 -15.601,23.18047 0,7.05947 3.74627,11.72977 9.37521,11.72977 4.0193,0 6.47501,-1.80043 9.64983,-6.97665 -0.24923,1.09826 -0.29844,1.57537 -0.29844,2.30635 0,2.81405 1.5874,4.6703 3.87007,4.6703 5.08444,0 8.63073,-6.55355 10.54034,-11.22385 l -1.9842,-1.20988 c -2.40496,5.5417 -4.6384,8.49619 -6.27506,8.49619 -0.7683,0 -1.33969,-0.81558 -1.33969,-1.80042 0,-0.81559 0.24913,-2.02547 0.69528,-3.91052 l 6.34954,-24.19411 h -5.50666 m -8.38309,2.89869 c 2.97639,0 4.81142,2.36216 4.81142,6.4131 0,4.16439 -1.26515,9.84653 -3.22401,14.3764 -1.98426,4.47226 -4.26694,6.49774 -7.44174,6.49774 -3.17482,0 -5.08446,-2.67183 -5.08446,-7.06127 0,-6.47073 3.57166,-20.22597 10.93879,-20.22597"
     id="path200"
     style="stroke-width:1.69056" />
  <path
     class="Fingering"
     d="m 3473.2746,2068.1121 -11.5563,1.0802 -0.1905,2.6106 h 1.5398 c 2.524,0 3.5399,0.6482 3.5399,2.2686 0,0.6481 -0.1905,1.7464 -0.5238,3.1328 l -6.4766,24.7557 h 5.54 l 2.6033,-10.1543 c 2.8574,-11.0367 8.6355,-19.3546 13.3977,-19.3546 1.6509,0 2.6669,0.9722 2.6669,2.7727 0,1.4763 -0.508,4.483 -1.2858,7.2017 l -5.0639,19.5345 h 5.5084 l 2.7303,-10.4424 c 1.5874,-5.9954 3.1748,-10.0104 5.2067,-13.107 2.2858,-3.6009 5.54,-5.9595 7.937,-5.9595 1.5873,0 2.4922,0.9182 2.4922,2.6466 0,1.0083 -0.3334,2.5747 -0.9049,4.6091 l -2.9207,10.2444 c -1.7144,5.5993 -1.7621,6.0494 -1.7621,8.0479 0,3.0247 1.9526,5.0232 4.9369,5.0232 2.1112,0 4.1431,-1.1522 6.302,-3.4208 1.3334,-1.4763 2.2065,-2.7726 4.8098,-7.0757 l -1.9684,-1.5123 c -3.2859,5.6353 -5.6511,8.354 -7.2861,8.354 -0.6985,0 -1.3335,-0.7922 -1.3335,-1.8005 0,-0.6481 0.1905,-1.4403 0.762,-3.5469 l 4.0002,-13.9532 c 0.4445,-1.5664 0.762,-3.8169 0.762,-5.4013 0,-3.8169 -2.4763,-6.5535 -5.9051,-6.5535 -4.5083,0 -8.572,3.3308 -12.2548,10.1543 0.254,-1.3682 0.3809,-2.5925 0.3809,-3.4567 0,-3.8169 -2.6827,-6.6976 -6.1591,-6.6976 -4.0161,0 -6.921,2.5385 -11.3817,9.7402 l 1.8573,-9.7402"
     id="path202"
     style="stroke-width:1.69056" />
  <path
     class="Fingering"
     d="m 3425.0969,2243.5454 c -8.8894,0 -15.3501,10.9467 -15.3501,26.0882 0,14.8175 6.2701,25.674 14.8263,25.674 8.9053,0 15.128,-10.4965 15.128,-25.4759 0,-7.6338 -1.4129,-13.9533 -4.0638,-18.9405 -2.4763,-4.537 -6.556,-7.3458 -10.5404,-7.3458 m -0.4444,3.0968 c 2.0794,0 4.1114,1.5844 5.6511,4.483 1.7144,3.3669 2.2859,7.4718 2.2859,17.3561 0,10.1545 -0.4604,14.9076 -1.7144,18.0583 -1.4604,3.5468 -3.7463,5.6714 -6.1591,5.6714 -2.1589,0 -4.1432,-1.5664 -5.6513,-4.4471 -1.7779,-3.4028 -2.2857,-7.8319 -2.2857,-19.6606 0,-8.4261 0.4444,-12.603 1.7143,-15.7718 1.4604,-3.6008 3.7463,-5.6893 6.1592,-5.6893"
     id="path204"
     style="stroke-width:1.69056" />
  <path
     class="Fingering"
     d="m 531.76025,1216.5868 c -8.87993,0 -15.35336,10.9429 -15.35336,26.0791 0,14.8247 6.27501,25.6831 14.83269,25.6831 8.90375,0 15.12955,-10.4928 15.12955,-25.4868 0,-7.623 -1.41438,-13.9533 -4.06852,-18.9333 -2.47952,-4.528 -6.54804,-7.3421 -10.54036,-7.3421 m -0.44605,3.095 c 2.08266,0 4.11613,1.5753 5.65433,4.4721 1.71122,3.3758 2.28268,7.4844 2.28268,17.358 0,10.1562 -0.44765,14.9093 -1.7128,18.06 -1.462,3.5451 -3.7447,5.6822 -6.15119,5.6822 -2.15728,0 -4.14154,-1.5754 -5.65433,-4.4435 -1.78584,-3.4046 -2.2827,-7.8499 -2.2827,-19.6642 0,-8.4404 0.44765,-12.6029 1.71282,-15.7826 1.462,-3.6008 3.74468,-5.682 6.15119,-5.682"
     id="path206"
     style="stroke-width:1.69056" />
  <path
     class="Fingering"
     d="m 594.48175,834.82467 -11.55789,1.06765 -0.24764,2.61601 h 1.5128 c 2.60334,0 3.62086,0.64815 3.62086,2.22352 0,0.70218 -0.17302,1.71581 -0.56987,3.17775 l -8.11163,31.22657 c -1.28897,5.20503 -1.33977,5.26085 -5.65434,5.4859 l -0.27302,2.589 h 15.25336 l 0.24763,-2.589 h -0.7683 c -3.05099,0 -4.06694,-0.42131 -4.06694,-1.88505 0,-0.56173 0.27145,-1.80042 0.7191,-3.60085 l 3.1002,-11.72977 c 1.71122,4.97818 3.37323,6.3285 7.56398,6.3285 10.26891,0 16.49471,-12.65878 16.49471,-23.18047 0,-3.51623 -0.62068,-5.9072 -2.08268,-7.98849 -1.662,-2.30814 -4.19233,-3.74127 -6.67344,-3.74127 -3.24782,0 -6.59725,2.1659 -9.44981,6.13224 l 0.94292,-6.13224 m 6.54803,3.82589 c 2.85257,0 4.76222,2.5026 4.76222,6.3285 0,3.96633 -1.09056,8.86169 -3.00178,13.30694 -2.20649,5.40127 -4.76222,7.84804 -8.11005,7.84804 -3.12559,0 -5.33208,-2.78525 -5.33208,-6.61115 0,-6.46892 4.48917,-20.87233 11.68169,-20.87233"
     id="path208"
     style="stroke-width:1.69056" />
  <path
     class="Fingering"
     d="m 3789.7552,2059.542 c -1.9048,0 -3.4129,1.7285 -3.4129,3.9069 0,2.0706 1.5081,3.871 3.3654,3.871 1.9683,0 3.4764,-1.7284 3.4764,-3.871 0,-2.1784 -1.5081,-3.9069 -3.4289,-3.9069 m 1.143,17.5722 -12.1754,1.0803 -0.254,2.6106 h 1.524 c 2.6033,0 3.6192,0.6481 3.6192,2.2145 0,0.7022 -0.1269,1.5304 -0.5714,3.1867 l -3.6987,14.0434 c -1.1905,4.573 -1.381,5.5813 -1.381,7.2557 0,2.5206 1.9049,4.465 4.3018,4.465 5.4607,0 9.207,-6.4095 11.8896,-11.0906 l -1.9842,-1.2243 c -3.3018,5.6714 -5.9528,8.714 -7.6672,8.714 -0.6507,0 -1.0952,-0.6481 -1.0952,-1.5123 0,-0.7021 0.2539,-2.0345 0.7778,-4.0329 l 6.7147,-25.7101"
     id="path210"
     style="stroke-width:1.69056" />
  <path
     class="Fingering"
     d="m 3725.9893,2243.5454 c -8.8736,0 -15.3503,10.9467 -15.3503,26.0882 0,14.8175 6.2862,25.674 14.8423,25.674 8.9054,0 15.128,-10.4965 15.128,-25.4759 0,-7.6338 -1.4128,-13.9533 -4.0796,-18.9405 -2.4765,-4.537 -6.5401,-7.3458 -10.5404,-7.3458 m -0.4445,3.0968 c 2.0954,0 4.1272,1.5844 5.667,4.483 1.6986,3.3669 2.27,7.4718 2.27,17.3561 0,10.1545 -0.4444,14.9076 -1.7143,18.0583 -1.4605,3.5468 -3.7305,5.6714 -6.1434,5.6714 -2.1588,0 -4.143,-1.5664 -5.6511,-4.4471 -1.7938,-3.4028 -2.2859,-7.8319 -2.2859,-19.6606 0,-8.4261 0.4445,-12.603 1.7144,-15.7718 1.4604,-3.6008 3.7463,-5.6893 6.1433,-5.6893"
     id="path212"
     style="stroke-width:1.69056" />
  <path
     class="Fingering"
     d="m 2641.4592,831.64511 c -1.9048,0 -3.4129,1.74462 -3.4129,3.91052 0,2.08129 1.5081,3.88172 3.3653,3.88172 1.9684,0 3.4765,-1.74461 3.4765,-3.88172 0,-2.1659 -1.5081,-3.91052 -3.4289,-3.91052 m 1.143,17.58295 -12.1754,1.06765 -0.254,2.61602 h 1.5239 c 2.6034,0 3.6193,0.64816 3.6193,2.22353 0,0.70216 -0.1269,1.51955 -0.5714,3.17775 l -3.6987,14.03791 c -1.1905,4.58568 -1.381,5.59932 -1.381,7.25931 0,2.53139 1.9049,4.47225 4.3018,4.47225 5.4607,0 9.2069,-6.41491 11.8896,-11.08341 l -1.9842,-1.23869 c -3.3018,5.68214 -5.9528,8.72126 -7.6672,8.72126 -0.6507,0 -1.0952,-0.64636 -1.0952,-1.51956 0,-0.70217 0.2539,-2.02548 0.7778,-4.02215 l 6.7147,-25.71187"
     id="path214"
     style="stroke-width:1.69056" />
  <path
     class="Fingering"
     d="m 548.74864,2243.5454 c -8.87993,0 -15.35336,10.9467 -15.35336,26.0882 0,14.8175 6.27501,25.674 14.8327,25.674 8.90375,0 15.12954,-10.4965 15.12954,-25.4759 0,-7.6338 -1.41279,-13.9533 -4.06693,-18.9405 -2.48111,-4.537 -6.54804,-7.3458 -10.54195,-7.3458 m -0.44606,3.0968 c 2.08268,0 4.11773,1.5844 5.65434,4.483 1.71281,3.3669 2.28269,7.4718 2.28269,17.3561 0,10.1545 -0.44607,14.9076 -1.71122,18.0583 -1.46359,3.5468 -3.74628,5.6714 -6.15119,5.6714 -2.15887,0 -4.14313,-1.5664 -5.65592,-4.4471 -1.78583,-3.4028 -2.2811,-7.8319 -2.2811,-19.6606 0,-8.4261 0.44606,-12.603 1.71122,-15.7718 1.46358,-3.6008 3.74469,-5.6893 6.15118,-5.6893"
     id="path216"
     style="stroke-width:1.69056" />
  <path
     class="Fingering"
     d="m 247.84519,2310.5213 c -8.87836,0 -15.35337,10.9466 -15.35337,26.0882 0,14.8174 6.27659,25.674 14.8327,25.674 8.90533,0 15.12955,-10.4965 15.12955,-25.476 0,-7.6339 -1.4128,-13.9534 -4.06694,-18.9405 -2.4811,-4.5371 -6.54803,-7.3457 -10.54194,-7.3457 m -0.44606,3.0967 c 2.08426,0 4.11772,1.5844 5.65591,4.483 1.71122,3.3669 2.2811,7.4718 2.2811,17.3562 0,10.1543 -0.44605,14.9075 -1.71122,18.0582 -1.46359,3.5469 -3.74468,5.6714 -6.15119,5.6714 -2.15728,0 -4.14153,-1.5664 -5.65592,-4.4471 -1.78583,-3.4028 -2.28109,-7.8319 -2.28109,-19.6606 0,-8.426 0.44606,-12.603 1.71122,-15.7718 1.46358,-3.6008 3.74468,-5.6893 6.15119,-5.6893"
     id="path218"
     style="stroke-width:1.69056" />
  <path
     class="Fingering"
     d="m 897.83933,2068.1121 -11.55788,1.0802 -0.19847,2.6106 h 1.53826 c 2.52875,0 3.54628,0.6482 3.54628,2.2686 0,0.6481 -0.19847,1.7464 -0.52072,3.1328 l -6.47344,24.7557 h 5.53048 l 2.605,-10.1543 c 2.85257,-11.0367 8.63073,-19.3546 13.39292,-19.3546 1.66204,0 2.67948,0.9722 2.67948,2.7727 0,1.4763 -0.52063,4.483 -1.29049,7.2017 l -5.05906,19.5345 h 5.5051 l 2.72878,-10.4424 c 1.58736,-5.9954 3.17473,-10.0104 5.20823,-13.107 2.28264,-3.6009 5.53205,-5.9595 7.93701,-5.9595 1.58736,0 2.48112,0.9182 2.48112,2.6466 0,1.0083 -0.32226,2.5747 -0.89376,4.6091 l -2.92558,10.2444 c -1.71115,5.5993 -1.76202,6.0494 -1.76202,8.0479 0,3.0247 1.96049,5.0232 4.93684,5.0232 2.10809,0 4.1416,-1.1522 6.29889,-3.4208 1.33968,-1.4763 2.20805,-2.7726 4.81295,-7.0757 l -1.96038,-1.5123 c -3.29872,5.6353 -5.65438,8.354 -7.29104,8.354 -0.69528,0 -1.33969,-0.7922 -1.33969,-1.8005 0,-0.6481 0.19837,-1.4403 0.7683,-3.5469 l 3.99389,-13.9532 c 0.44604,-1.5664 0.76829,-3.8169 0.76829,-5.4013 0,-3.8169 -2.47954,-6.5535 -5.9035,-6.5535 -4.51305,0 -8.58153,3.3308 -12.25159,10.1543 0.24756,-1.3682 0.37145,-2.5925 0.37145,-3.4567 0,-3.8169 -2.67801,-6.6976 -6.15118,-6.6976 -4.01781,0 -6.91958,2.5385 -11.38489,9.7402 l 1.86042,-9.7402"
     id="path220"
     style="stroke-width:1.69056" />
  <path
     class="Fingering"
     d="m 849.65211,2243.5454 c -8.87993,0 -15.35337,10.9467 -15.35337,26.0882 0,14.8175 6.27501,25.674 14.8327,25.674 8.90374,0 15.12955,-10.4965 15.12955,-25.4759 0,-7.6338 -1.41279,-13.9533 -4.06693,-18.9405 -2.48111,-4.537 -6.54804,-7.3458 -10.54195,-7.3458 m -0.44606,3.0968 c 2.08267,0 4.11773,1.5844 5.65433,4.483 1.71123,3.3669 2.28269,7.4718 2.28269,17.3561 0,10.1545 -0.44606,14.9076 -1.71123,18.0583 -1.46358,3.5468 -3.74627,5.6714 -6.15119,5.6714 -2.15886,0 -4.14312,-1.5664 -5.65591,-4.4471 -1.78583,-3.4028 -2.2811,-7.8319 -2.2811,-19.6606 0,-8.4261 0.44606,-12.603 1.71122,-15.7718 1.46359,-3.6008 3.74468,-5.6893 6.15119,-5.6893"
     id="path222"
     style="stroke-width:1.69056" />
  <path
     class="Fingering"
     d="m 1214.3183,2059.542 c -1.9096,0 -3.4224,1.7285 -3.4224,3.9069 0,2.0706 1.5128,3.871 3.3732,3.871 1.9605,0 3.4733,-1.7284 3.4733,-3.871 0,-2.1784 -1.5128,-3.9069 -3.4241,-3.9069 m 1.1414,17.5722 -12.1785,1.0803 -0.2477,2.6106 h 1.5128 c 2.605,0 3.6208,0.6481 3.6208,2.2145 0,0.7022 -0.1238,1.5304 -0.5698,3.1867 l -3.6954,14.0434 c -1.1907,4.573 -1.389,5.5813 -1.389,7.2557 0,2.5206 1.9096,4.465 4.3161,4.465 5.4559,0 9.2021,-6.4095 11.8801,-11.0906 l -1.9843,-1.2243 c -3.2986,5.6714 -5.9527,8.714 -7.6639,8.714 -0.6445,0 -1.0921,-0.6481 -1.0921,-1.5123 0,-0.7021 0.2492,-2.0345 0.7698,-4.0329 l 6.7211,-25.7101"
     id="path224"
     style="stroke-width:1.69056" />
  <path
     class="Fingering"
     d="m 1150.5555,2243.5454 c -8.8799,0 -15.3534,10.9467 -15.3534,26.0882 0,14.8175 6.2751,25.674 14.8328,25.674 8.9037,0 15.1295,-10.4965 15.1295,-25.4759 0,-7.6338 -1.4143,-13.9533 -4.067,-18.9405 -2.4811,-4.537 -6.548,-7.3458 -10.5419,-7.3458 m -0.446,3.0968 c 2.0826,0 4.1161,1.5844 5.6543,4.483 1.7112,3.3669 2.2827,7.4718 2.2827,17.3561 0,10.1545 -0.4477,14.9076 -1.7113,18.0583 -1.4635,3.5468 -3.7462,5.6714 -6.1511,5.6714 -2.1589,0 -4.1432,-1.5664 -5.656,-4.4471 -1.7858,-3.4028 -2.281,-7.8319 -2.281,-19.6606 0,-8.4261 0.446,-12.603 1.7112,-15.7718 1.4636,-3.6008 3.7447,-5.6893 6.1512,-5.6893"
     id="path226"
     style="stroke-width:1.69056" />
  <path
     class="Fingering"
     d="m 3782.8501,1015.6593 c -8.8736,0 -15.3502,10.943 -15.3502,26.0792 0,14.8247 6.2703,25.6831 14.8422,25.6831 8.8894,0 15.128,-10.4929 15.128,-25.4869 0,-7.623 -1.4129,-13.9533 -4.0797,-18.9333 -2.4763,-4.528 -6.5401,-7.3421 -10.5403,-7.3421 m -0.4445,3.095 c 2.0795,0 4.1273,1.5753 5.6511,4.4723 1.7144,3.3757 2.2859,7.4842 2.2859,17.3578 0,10.1562 -0.4445,14.9093 -1.7144,18.0602 -1.4604,3.545 -3.7463,5.6821 -6.1432,5.6821 -2.1589,0 -4.1432,-1.5754 -5.6512,-4.4435 -1.7937,-3.4047 -2.2858,-7.8499 -2.2858,-19.6643 0,-8.4403 0.4444,-12.6029 1.7143,-15.7825 1.4605,-3.6009 3.7463,-5.6821 6.1433,-5.6821"
     id="path228"
     style="stroke-width:1.69056" />
  <path
     class="Fingering"
     d="m 3846.6161,831.64511 c -1.9049,0 -3.4129,1.74462 -3.4129,3.91052 0,2.08129 1.508,3.88172 3.3652,3.88172 1.9526,0 3.4764,-1.74461 3.4764,-3.88172 0,-2.1659 -1.5238,-3.91052 -3.4287,-3.91052 m 1.1429,17.58295 -12.1754,1.06765 -0.254,2.61602 h 1.5239 c 2.6034,0 3.6193,0.64816 3.6193,2.22353 0,0.70216 -0.127,1.51955 -0.5715,3.17775 l -3.6986,14.03791 c -1.1906,4.58568 -1.3969,5.59932 -1.3969,7.25931 0,2.53139 1.9207,4.47225 4.3177,4.47225 5.4606,0 9.207,-6.41491 11.8897,-11.08341 l -1.9843,-1.23869 c -3.3018,5.68214 -5.9527,8.72126 -7.6671,8.72126 -0.6509,0 -1.0954,-0.64636 -1.0954,-1.51956 0,-0.70217 0.2541,-2.02548 0.7778,-4.02215 l 6.7148,-25.71187"
     id="path230"
     style="stroke-width:1.69056" />
  <path
     class="Fingering"
     d="m 3502.594,1015.6593 c -8.8736,0 -15.3503,10.943 -15.3503,26.0792 0,14.8247 6.2703,25.6831 14.8264,25.6831 8.9054,0 15.128,-10.4929 15.128,-25.4869 0,-7.623 -1.4128,-13.9533 -4.0638,-18.9333 -2.4764,-4.528 -6.54,-7.3421 -10.5403,-7.3421 m -0.4445,3.095 c 2.0795,0 4.1113,1.5753 5.6512,4.4723 1.7143,3.3757 2.2858,7.4842 2.2858,17.3578 0,10.1562 -0.4444,14.9093 -1.7143,18.0602 -1.4605,3.545 -3.7464,5.6821 -6.1434,5.6821 -2.1588,0 -4.143,-1.5754 -5.667,-4.4435 -1.7779,-3.4047 -2.27,-7.8499 -2.27,-19.6643 0,-8.4403 0.4445,-12.6029 1.6986,-15.7825 1.4762,-3.6009 3.7462,-5.6821 6.1591,-5.6821"
     id="path232"
     style="stroke-width:1.69056" />
  <path
     class="Fingering"
     d="m 3550.7876,840.22593 -11.5722,1.06766 -0.1906,2.61601 h 1.5399 c 2.5239,0 3.5399,0.64816 3.5399,2.27934 0,0.64635 -0.1905,1.74462 -0.5239,3.12194 l -6.4607,24.75584 h 5.5241 l 2.6034,-10.1544 c 2.8574,-11.0276 8.6355,-19.35456 13.3977,-19.35456 1.6667,0 2.6827,0.98483 2.6827,2.78525 0,1.46195 -0.5239,4.47226 -1.3017,7.20171 l -5.0479,19.522 h 5.4924 l 2.7304,-10.43526 c 1.5873,-5.99361 3.1747,-10.01576 5.2066,-13.11069 2.2859,-3.60086 5.54,-5.96301 7.937,-5.96301 1.5874,0 2.4922,0.92721 2.4922,2.64482 0,1.01184 -0.3333,2.58721 -0.9048,4.61269 l -2.9208,10.24082 c -1.7144,5.59752 -1.762,6.04762 -1.762,8.04429 0,3.03912 1.9683,5.03579 4.9368,5.03579 2.1113,0 4.1431,-1.15227 6.302,-3.4316 1.3334,-1.46376 2.2065,-2.75646 4.8099,-7.06127 l -1.9526,-1.51957 c -3.3018,5.62634 -5.667,8.35578 -7.302,8.35578 -0.6826,0 -1.3334,-0.78859 -1.3334,-1.80042 0,-0.64636 0.1904,-1.43494 0.7619,-3.54505 l 4.0003,-13.95328 c 0.4445,-1.57537 0.7619,-3.82591 0.7619,-5.40128 0,-3.8259 -2.4763,-6.55355 -5.9052,-6.55355 -4.5081,0 -8.5719,3.31819 -12.2388,10.1544 0.2382,-1.37732 0.3651,-2.58721 0.3651,-3.46042 0,-3.82589 -2.6827,-6.69398 -6.1433,-6.69398 -4.032,0 -6.921,2.5314 -11.3975,9.73311 l 1.8732,-9.73311"
     id="path234"
     style="stroke-width:1.69056" />
  <path
     class="Fingering"
     d="m 3222.3378,1015.6593 c -8.8894,0 -15.366,10.943 -15.366,26.0792 0,14.8247 6.2861,25.6831 14.8422,25.6831 8.9053,0 15.128,-10.4929 15.128,-25.4869 0,-7.623 -1.4129,-13.9533 -4.0638,-18.9333 -2.4922,-4.528 -6.556,-7.3421 -10.5404,-7.3421 m -0.4603,3.095 c 2.0953,0 4.1273,1.5753 5.667,4.4723 1.7145,3.3757 2.27,7.4842 2.27,17.3578 0,10.1562 -0.4445,14.9093 -1.6985,18.0602 -1.4763,3.545 -3.7462,5.6821 -6.1591,5.6821 -2.1589,0 -4.1432,-1.5754 -5.6512,-4.4435 -1.7937,-3.4047 -2.2858,-7.8499 -2.2858,-19.6643 0,-8.4403 0.4444,-12.6029 1.7143,-15.7825 1.4605,-3.6009 3.7464,-5.6821 6.1433,-5.6821"
     id="path236"
     style="stroke-width:1.69056" />
  <path
     class="Fingering"
     d="m 1598.2812,2062.7108 -11.5564,1.0803 -0.2381,2.6106 h 1.5081 c 2.6033,0 3.6193,0.6481 3.6193,2.2145 0,0.7022 -0.1747,1.7284 -0.5715,3.1867 l -8.1117,31.2194 c -1.2858,5.2032 -1.3334,5.2572 -5.6511,5.4914 l -0.2699,2.5925 h 15.2549 l 0.2382,-2.5925 h -0.762 c -3.0478,0 -4.0637,-0.4322 -4.0637,-1.8905 0,-0.5582 0.2698,-1.8005 0.7143,-3.6009 l 3.0954,-11.7208 c 1.7144,4.9692 3.3812,6.3195 7.572,6.3195 10.2705,0 16.4931,-12.6569 16.4931,-23.1715 0,-3.5288 -0.6191,-5.9053 -2.0796,-7.9938 -1.6667,-2.3045 -4.1906,-3.7449 -6.6829,-3.7449 -3.2383,0 -6.5878,2.1605 -9.445,6.1395 l 0.9366,-6.1395 m 6.5559,3.8349 c 2.8573,0 4.7622,2.5026 4.7622,6.3195 0,3.979 -1.0954,8.8581 -3.0002,13.3052 -2.2065,5.4012 -4.7622,7.8497 -8.1116,7.8497 -3.1272,0 -5.3337,-2.7726 -5.3337,-6.6075 0,-6.4635 4.4924,-20.8669 11.6833,-20.8669"
     id="path238"
     style="stroke-width:1.69056" />
  <path
     class="Fingering"
     d="m 1535.5628,2377.4971 c -8.8736,0 -15.3502,10.9465 -15.3502,26.0881 0,14.8175 6.2703,25.6741 14.8264,25.6741 8.9052,0 15.1279,-10.4965 15.1279,-25.4761 0,-7.6338 -1.4127,-13.9532 -4.0637,-18.9404 -2.4764,-4.5371 -6.5402,-7.3457 -10.5404,-7.3457 m -0.4445,3.0967 c 2.0796,0 4.1114,1.5843 5.6512,4.4831 1.7144,3.3667 2.2858,7.4717 2.2858,17.356 0,10.1544 -0.4445,14.9075 -1.7144,18.0583 -1.4603,3.5469 -3.7462,5.6713 -6.1432,5.6713 -2.1589,0 -4.1431,-1.5664 -5.667,-4.4471 -1.7779,-3.4027 -2.27,-7.8317 -2.27,-19.6606 0,-8.4259 0.4444,-12.6029 1.7143,-15.7716 1.4605,-3.6009 3.7305,-5.6894 6.1433,-5.6894"
     id="path240"
     style="stroke-width:1.69056" />
  <path
     class="Fingering"
     d="m 3291.374,850.29571 -1.7302,6.49953 c -0.4286,-4.47405 -3.6035,-7.56718 -7.7465,-7.56718 -9.5721,0 -15.5883,13.67063 -15.5883,23.18047 0,7.05947 3.7462,11.72977 9.3657,11.72977 4.0161,0 6.4765,-1.80043 9.6514,-6.97665 -0.2541,1.09826 -0.3017,1.57537 -0.3017,2.30635 0,2.81405 1.5874,4.6703 3.8733,4.6703 5.0797,0 8.6354,-6.55355 10.5404,-11.22385 l -1.9843,-1.20988 c -2.397,5.5417 -4.6352,8.49619 -6.2702,8.49619 -0.7779,0 -1.3493,-0.81558 -1.3493,-1.80042 0,-0.81559 0.2539,-2.02547 0.6984,-3.91052 l 6.3497,-24.19411 h -5.5084 m -8.3815,2.89869 c 2.9843,0 4.8099,2.36216 4.8099,6.4131 0,4.16439 -1.2541,9.84653 -3.2225,14.3764 -1.9842,4.47226 -4.2701,6.49774 -7.4449,6.49774 -3.1748,0 -5.0796,-2.67183 -5.0796,-7.06127 0,-6.47073 3.5716,-20.22597 10.9371,-20.22597"
     id="path242"
     style="stroke-width:1.69056" />
  <path
     class="Fingering"
     d="m 2942.0659,1082.6352 c -8.8736,0 -15.3503,10.943 -15.3503,26.0791 0,14.8247 6.2703,25.6831 14.8264,25.6831 8.9054,0 15.1439,-10.4929 15.1439,-25.4868 0,-7.623 -1.4287,-13.9533 -4.0797,-18.9333 -2.4763,-4.5281 -6.54,-7.3421 -10.5403,-7.3421 m -0.4445,3.0949 c 2.0795,0 4.1113,1.5754 5.6512,4.4723 1.7143,3.3758 2.2858,7.4844 2.2858,17.3579 0,10.1561 -0.4444,14.9093 -1.7143,18.06 -1.4605,3.5451 -3.7464,5.6821 -6.1433,5.6821 -2.1589,0 -4.1431,-1.5753 -5.6512,-4.4434 -1.7938,-3.4046 -2.2858,-7.8498 -2.2858,-19.6643 0,-8.4403 0.4445,-12.6029 1.7144,-15.7825 1.4603,-3.6009 3.7462,-5.6821 6.1432,-5.6821"
     id="path244"
     style="stroke-width:1.69056" />
  <path
     class="Fingering"
     d="m 1905.5231,2078.1945 -1.7462,6.4814 c -0.4127,-4.465 -3.5875,-7.5617 -7.7307,-7.5617 -9.572,0 -15.6041,13.6832 -15.6041,23.1895 0,7.0577 3.7462,11.7207 9.3657,11.7207 4.0319,0 6.4766,-1.8004 9.6514,-6.9676 -0.2381,1.0983 -0.2858,1.5664 -0.2858,2.3046 0,2.8086 1.5875,4.663 3.8575,4.663 5.0955,0 8.6354,-6.5535 10.5403,-11.2166 l -1.9843,-1.2063 c -2.3969,5.5273 -4.6351,8.48 -6.2701,8.48 -0.7621,0 -1.3334,-0.8102 -1.3334,-1.8005 0,-0.8101 0.238,-2.0164 0.6825,-3.9069 l 6.3496,-24.1796 h -5.4924 m -8.3974,2.8806 c 2.9843,0 4.8257,2.3766 4.8257,6.4275 0,4.1591 -1.2699,9.8484 -3.2383,14.3675 -1.9842,4.483 -4.2542,6.4994 -7.4291,6.4994 -3.1748,0 -5.0955,-2.6646 -5.0955,-7.0575 0,-6.4637 3.5717,-20.2369 10.9372,-20.2369"
     id="path246"
     style="stroke-width:1.69056" />
  <path
     class="Fingering"
     d="m 1836.471,2243.5454 c -8.8895,0 -15.3502,10.9467 -15.3502,26.0882 0,14.8175 6.2703,25.674 14.8263,25.674 8.9054,0 15.128,-10.4965 15.128,-25.4759 0,-7.6338 -1.4128,-13.9533 -4.0637,-18.9405 -2.4764,-4.537 -6.556,-7.3458 -10.5404,-7.3458 m -0.4445,3.0968 c 2.0795,0 4.1114,1.5844 5.6512,4.483 1.7144,3.3669 2.2858,7.4718 2.2858,17.3561 0,10.1545 -0.4444,14.9076 -1.7143,18.0583 -1.4605,3.5468 -3.7463,5.6714 -6.1592,5.6714 -2.1588,0 -4.1431,-1.5664 -5.6511,-4.4471 -1.7779,-3.4028 -2.2859,-7.8319 -2.2859,-19.6606 0,-8.4261 0.4604,-12.603 1.7144,-15.7718 1.4605,-3.6008 3.7463,-5.6893 6.1591,-5.6893"
     id="path248"
     style="stroke-width:1.69056" />
  <path
     class="Fingering"
     d="m 3004.7842,834.82467 -11.5563,1.06765 -0.2381,2.61601 h 1.508 c 2.6033,0 3.6193,0.64815 3.6193,2.22352 0,0.70218 -0.1747,1.71581 -0.5715,3.17775 l -8.1116,31.22657 c -1.2858,5.20503 -1.3334,5.26085 -5.6512,5.4859 l -0.2698,2.589 h 15.255 l 0.238,-2.589 h -0.7619 c -3.0478,0 -4.0638,-0.42131 -4.0638,-1.88505 0,-0.56173 0.2699,-1.80042 0.7143,-3.60085 l 3.0955,-11.72977 c 1.7144,4.97818 3.3812,6.3285 7.5719,6.3285 10.2705,0 16.4932,-12.65878 16.4932,-23.18047 0,-3.51623 -0.6192,-5.9072 -2.0795,-7.98849 -1.6669,-2.30814 -4.1908,-3.74127 -6.683,-3.74127 -3.2383,0 -6.5877,2.1659 -9.4451,6.13224 l 0.9366,-6.13224 m 6.556,3.82589 c 2.8573,0 4.7621,2.5026 4.7621,6.3285 0,3.96633 -1.0952,8.86169 -3.0001,13.30694 -2.2065,5.40127 -4.7622,7.84804 -8.1116,7.84804 -3.1272,0 -5.3337,-2.78525 -5.3337,-6.61115 0,-6.46892 4.4923,-20.87233 11.6833,-20.87233"
     id="path250"
     style="stroke-width:1.69056" />
  <path
     class="Fingering"
     d="m 2577.6932,1015.6593 c -8.8735,0 -15.3502,10.943 -15.3502,26.0792 0,14.8247 6.2862,25.6831 14.8423,25.6831 8.9054,0 15.1279,-10.4929 15.1279,-25.4869 0,-7.623 -1.4127,-13.9533 -4.0637,-18.9333 -2.4923,-4.528 -6.556,-7.3421 -10.5563,-7.3421 m -0.4445,3.095 c 2.0955,0 4.1273,1.5753 5.6671,4.4723 1.6986,3.3757 2.27,7.4842 2.27,17.3578 0,10.1562 -0.4444,14.9093 -1.6986,18.0602 -1.4762,3.545 -3.7462,5.6821 -6.1591,5.6821 -2.1588,0 -4.143,-1.5754 -5.6511,-4.4435 -1.7938,-3.4047 -2.2859,-7.8499 -2.2859,-19.6643 0,-8.4403 0.4445,-12.6029 1.7144,-15.7825 1.4604,-3.6009 3.7463,-5.6821 6.1432,-5.6821"
     id="path252"
     style="stroke-width:1.69056" />
  <path
     class="Fingering"
     d="m 2185.557,2068.1121 -11.5564,1.0802 -0.1904,2.6106 h 1.5239 c 2.5398,0 3.5557,0.6482 3.5557,2.2686 0,0.6481 -0.2063,1.7464 -0.5238,3.1328 l -6.4766,24.7557 h 5.54 l 2.6033,-10.1543 c 2.8415,-11.0367 8.6197,-19.3546 13.3819,-19.3546 1.6667,0 2.6827,0.9722 2.6827,2.7727 0,1.4763 -0.5239,4.483 -1.2858,7.2017 l -5.0638,19.5345 h 5.5083 l 2.7303,-10.4424 c 1.5874,-5.9954 3.1749,-10.0104 5.2067,-13.107 2.2859,-3.6009 5.5401,-5.9595 7.937,-5.9595 1.5875,0 2.4764,0.9182 2.4764,2.6466 0,1.0083 -0.3175,2.5747 -0.8889,4.6091 l -2.9209,10.2444 c -1.7144,5.5993 -1.762,6.0494 -1.762,8.0479 0,3.0247 1.9525,5.0232 4.9368,5.0232 2.1112,0 4.1432,-1.1522 6.302,-3.4208 1.3334,-1.4763 2.2065,-2.7726 4.8098,-7.0757 l -1.9684,-1.5123 c -3.3017,5.6353 -5.6511,8.354 -7.2861,8.354 -0.6985,0 -1.3334,-0.7922 -1.3334,-1.8005 0,-0.6481 0.1904,-1.4403 0.7619,-3.5469 l 4.0003,-13.9532 c 0.4444,-1.5664 0.7619,-3.8169 0.7619,-5.4013 0,-3.8169 -2.4763,-6.5535 -5.9051,-6.5535 -4.5082,0 -8.5879,3.3308 -12.2548,10.1543 0.254,-1.3682 0.381,-2.5925 0.381,-3.4567 0,-3.8169 -2.6827,-6.6976 -6.1592,-6.6976 -4.016,0 -6.921,2.5385 -11.3816,9.7402 l 1.8573,-9.7402"
     id="path254"
     style="stroke-width:1.69056" />
  <path
     class="Fingering"
     d="m 2137.3793,2243.5454 c -8.8895,0 -15.3661,10.9467 -15.3661,26.0882 0,14.8175 6.2861,25.674 14.8422,25.674 8.9053,0 15.128,-10.4965 15.128,-25.4759 0,-7.6338 -1.4128,-13.9533 -4.0638,-18.9405 -2.4922,-4.537 -6.556,-7.3458 -10.5403,-7.3458 m -0.4604,3.0968 c 2.0954,0 4.1273,1.5844 5.667,4.483 1.7144,3.3669 2.27,7.4718 2.27,17.3561 0,10.1545 -0.4445,14.9076 -1.6985,18.0583 -1.4763,3.5468 -3.7463,5.6714 -6.1591,5.6714 -2.1589,0 -4.1432,-1.5664 -5.6511,-4.4471 -1.7938,-3.4028 -2.2859,-7.8319 -2.2859,-19.6606 0,-8.4261 0.4445,-12.603 1.7144,-15.7718 1.4604,-3.6008 3.7462,-5.6893 6.1432,-5.6893"
     id="path256"
     style="stroke-width:1.69056" />
  <path
     class="Fingering"
     d="m 2297.4371,1015.6593 c -8.8735,0 -15.3501,10.943 -15.3501,26.0792 0,14.8247 6.2702,25.6831 14.8263,25.6831 8.9053,0 15.128,-10.4929 15.128,-25.4869 0,-7.623 -1.4128,-13.9533 -4.0638,-18.9333 -2.4763,-4.528 -6.5401,-7.3421 -10.5404,-7.3421 m -0.4444,3.095 c 2.0794,0 4.1114,1.5753 5.6511,4.4723 1.7144,3.3757 2.2859,7.4842 2.2859,17.3578 0,10.1562 -0.4445,14.9093 -1.7144,18.0602 -1.4604,3.545 -3.7463,5.6821 -6.1432,5.6821 -2.1589,0 -4.1432,-1.5754 -5.667,-4.4435 -1.7779,-3.4047 -2.27,-7.8499 -2.27,-19.6643 0,-8.4403 0.4444,-12.6029 1.6985,-15.7825 1.4763,-3.6009 3.7463,-5.6821 6.1591,-5.6821"
     id="path258"
     style="stroke-width:1.69056" />
  <metadata
     id="metadata943">
    <rdf:RDF>
      <cc:Work
         rdf:about="">
        <dc:title>ex_corde_a_vide_06</dc:title>
      </cc:Work>
    </rdf:RDF>
  </metadata>
  <text
     xml:space="preserve"
     style="font-size:210px;font-family:sans-serif;-inkscape-font-specification:sans-serif;fill:#000000;stroke:#000000;stroke-width:3.75;paint-order:stroke fill markers"
     x="959.34845"
     y="393.09293"
     id="text958"><tspan
       sodipodi:role="line"
       id="tspan956"
       style="stroke-width:3.75"
       x="959.34845"
       y="393.09293">Exercice de corde  vide.</tspan></text>
</svg>
