<?xml version="1.0" encoding="UTF-8" standalone="no"?>
<svg
   width="297mm"
   height="210mm"
   viewBox="0 0 4209.4489 2976.378"
   version="1.2"
   id="svg34"
   sodipodi:docname="la_blanche.svg"
   inkscape:version="1.2.2 (b0a8486541, 2022-12-01)"
   xmlns:inkscape="http://www.inkscape.org/namespaces/inkscape"
   xmlns:sodipodi="http://sodipodi.sourceforge.net/DTD/sodipodi-0.dtd"
   xmlns="http://www.w3.org/2000/svg"
   xmlns:svg="http://www.w3.org/2000/svg"
   xmlns:rdf="http://www.w3.org/1999/02/22-rdf-syntax-ns#"
   xmlns:cc="http://creativecommons.org/ns#"
   xmlns:dc="http://purl.org/dc/elements/1.1/">
  <defs
     id="defs38">
    <marker
       style="overflow:visible"
       id="TriangleStart"
       refX="0"
       refY="0"
       orient="auto-start-reverse"
       inkscape:stockid="TriangleStart"
       markerWidth="5.3244081"
       markerHeight="6.155385"
       viewBox="0 0 5.3244081 6.1553851"
       inkscape:isstock="true"
       inkscape:collect="always"
       preserveAspectRatio="xMidYMid">
      <path
         transform="scale(0.5)"
         style="fill:context-stroke;fill-rule:evenodd;stroke:context-stroke;stroke-width:1pt"
         d="M 5.77,0 -2.88,5 V -5 Z"
         id="path135" />
    </marker>
    <marker
       style="overflow:visible"
       id="TriangleStart-3"
       refX="0"
       refY="0"
       orient="auto-start-reverse"
       inkscape:stockid="TriangleStart"
       markerWidth="5.3244081"
       markerHeight="6.155385"
       viewBox="0 0 5.3244081 6.1553851"
       inkscape:isstock="true"
       inkscape:collect="always"
       preserveAspectRatio="xMidYMid">
      <path
         transform="scale(0.5)"
         style="fill:context-stroke;fill-rule:evenodd;stroke:context-stroke;stroke-width:1pt"
         d="M 5.77,0 -2.88,5 V -5 Z"
         id="path135-6" />
    </marker>
  </defs>
  <sodipodi:namedview
     id="namedview36"
     pagecolor="#ffffff"
     bordercolor="#000000"
     borderopacity="0.25"
     inkscape:showpageshadow="2"
     inkscape:pageopacity="0.0"
     inkscape:pagecheckerboard="0"
     inkscape:deskcolor="#d1d1d1"
     inkscape:document-units="mm"
     showgrid="false"
     inkscape:zoom="0.60740211"
     inkscape:cx="450.27831"
     inkscape:cy="493.08357"
     inkscape:window-width="1280"
     inkscape:window-height="651"
     inkscape:window-x="0"
     inkscape:window-y="32"
     inkscape:window-maximized="1"
     inkscape:current-layer="svg34" />
  <title
     id="title2">Partition sans titre</title>
  <desc
     id="desc4">Generated by MuseScore Studio 4.5.2</desc>
  <polyline
     class="StaffLines"
     fill="none"
     stroke="#000000"
     stroke-width="2.73"
     stroke-linejoin="bevel"
     points="336.598,634.198 763.616,634.198"
     id="polyline6"
     transform="matrix(7.325122,0,0,8.0328516,-1941.7929,-4029.4701)" />
  <polyline
     class="StaffLines"
     fill="none"
     stroke="#000000"
     stroke-width="2.73"
     stroke-linejoin="bevel"
     points="336.598,658.998 763.616,658.998"
     id="polyline8"
     transform="matrix(7.325122,0,0,8.0328516,-1941.7929,-4029.4701)" />
  <polyline
     class="StaffLines"
     fill="none"
     stroke="#000000"
     stroke-width="2.73"
     stroke-linejoin="bevel"
     points="336.598,683.798 763.616,683.798"
     id="polyline10"
     transform="matrix(7.325122,0,0,8.0328516,-1941.7929,-4029.4701)" />
  <polyline
     class="StaffLines"
     fill="none"
     stroke="#000000"
     stroke-width="2.73"
     stroke-linejoin="bevel"
     points="336.598,708.598 763.616,708.598"
     id="polyline12"
     transform="matrix(7.325122,0,0,8.0328516,-1941.7929,-4029.4701)" />
  <polyline
     class="StaffLines"
     fill="none"
     stroke="#000000"
     stroke-width="2.73"
     stroke-linejoin="bevel"
     points="336.598,733.398 763.616,733.398"
     id="polyline14"
     transform="matrix(7.325122,0,0,8.0328516,-1941.7929,-4029.4701)" />
  <polyline
     class="BarLine"
     fill="none"
     stroke="#000000"
     stroke-width="4.46"
     stroke-linejoin="bevel"
     points="738.568,632.834 738.568,734.762"
     id="polyline18"
     transform="matrix(7.325122,0,0,8.0328516,-1941.7929,-4029.4701)" />
  <polyline
     class="BarLine"
     fill="none"
     stroke="#000000"
     stroke-width="13.64"
     stroke-linejoin="bevel"
     points="756.796,632.834 756.796,734.762"
     id="polyline20"
     transform="matrix(7.325122,0,0,8.0328516,-1941.7929,-4029.4701)" />
  <polyline
     class="Stem"
     fill="none"
     stroke="#000000"
     stroke-width="2.48"
     stroke-linejoin="bevel"
     points="536.765,687.965 536.765,758.198"
     id="polyline22"
     transform="matrix(7.325122,0,0,8.0328516,-1941.7929,-4029.4701)" />
  <path
     class="Note"
     d="m 2135.7474,1358.1677 c -70.5077,0 -154.7543,64.6201 -154.7543,138.7032 0,34.2399 22.4807,72.4645 81.4075,72.4645 75.5042,0 154.7544,-67.7333 154.7544,-137.832 0,-47.0644 -36.3326,-73.3357 -81.4076,-73.3357 m -19.6421,140.3217 c -2.1574,1.4941 -55.1805,33.3684 -80.6134,33.3684 -23.9568,0 -29.0661,-21.4155 -29.0661,-28.6371 0,-33.4929 72.6653,-72.4642 75.6177,-74.083 2.8383,-1.6185 54.4988,-33.4929 80.6126,-33.4929 17.4854,0 29.0661,11.2058 29.0661,28.6371 0,34.3646 -73.3462,72.589 -75.6169,74.2075"
     id="path24"
     style="stroke-width:7.60947" />
  <path
     class="Clef"
     d="m 967.42696,2233.9651 c 0,-29.5086 -24.63784,-42.208 -48.59487,-42.208 -30.54187,0 -60.40295,20.668 -60.40295,56.5267 0,15.1906 5.10912,26.3959 15.32803,37.4772 -18.9613,7.9685 -37.80913,23.9057 -37.80913,48.6832 0,26.2716 21.79956,43.8272 53.81796,43.8272 39.17095,0 66.76116,-23.9057 66.76116,-58.2703 0,-18.303 -7.26651,-33.3684 -20.32369,-43.8272 21.11869,-10.3345 31.22349,-23.0341 31.22349,-42.2088 m -72.66522,127.4974 c -15.89551,0 -26.7953,-11.0811 -26.7953,-27.89 0,-15.9373 6.4716,-28.6368 18.84725,-36.6054 2.95231,1.6184 3.63325,1.6184 5.79065,3.1125 8.74239,4.8561 8.74239,4.8561 10.21892,6.4745 13.73804,8.7161 19.64208,16.6847 19.64208,27.8901 0,15.0654 -11.6947,27.0183 -27.7036,27.0183 m 27.7036,-95.6231 c -10.89977,-6.3493 -13.85209,-7.9686 -16.00882,-9.587 l -1.47653,-0.7462 c -10.89978,-7.222 -14.53305,-12.8247 -14.53305,-22.2874 0,-14.4432 10.21885,-24.7776 24.75189,-24.7776 13.73812,0 22.4805,9.5872 22.4805,26.2717 0,12.8247 -4.3142,21.5399 -15.21399,31.1269 m 202.66776,-604.8659 c 0,-120.276 -77.7744,-201.5803 -183.82051,-201.5803 -7.26651,-47.8116 -13.8515,-94.8765 -20.32303,-139.4504 76.2985,-88.5262 130.00244,-188.8803 130.00244,-314.7593 0,-72.58899 -20.3237,-131.48168 -32.6994,-160.24033 -17.3713,-40.59201 -38.49004,-68.48207 -50.86564,-68.48207 -4.9957,0 -28.27109,9.58624 -51.54719,40.59201 -47.23239,60.63301 -60.2889,161.73447 -60.2889,228.71999 0,43.0806 3.63326,82.0518 16.00883,172.1965 -0.79492,0 -38.60339,42.2088 -53.81796,56.5275 -66.19296,66.9856 -157.70607,164.1028 -157.70607,322.7277 0,149.7849 118.42173,266.9479 253.64737,266.9479 21.00456,0 40.64674,-2.3658 58.13222,-5.6027 13.0565,75.8258 21.7995,132.3527 21.7995,174.5615 0,82.9235 -39.28498,126.7508 -112.63107,126.7508 -17.48543,0 -32.69935,-3.9843 -34.17586,-4.8562 -0.68125,0 -2.15674,-0.7469 -2.15674,-1.4941 0,-1.6183 1.47579,-2.4901 3.63325,-3.2375 34.17514,-5.6028 68.23696,-38.2238 68.23696,-88.4011 0,-43.0806 -29.74761,-88.5263 -84.24652,-88.5263 -50.86564,0 -82.88346,45.4457 -82.88346,97.9889 0,52.6676 36.3326,122.019 134.43064,122.019 93.7832,0 139.53984,-58.2703 139.53984,-160.2435 0,-31.0027 -4.3142,-66.8612 -11.5807,-112.3068 -2.1575,-15.9373 -5.7907,-40.7149 -10.8998,-70.9707 71.1887,-26.2717 124.2118,-106.8286 124.2118,-188.8805 M 901.34673,1007.5498 c 7.26652,-31.87439 39.96586,-115.54457 77.77503,-115.54457 10.8998,0 29.06614,38.22377 29.06614,94.00389 0,82.05178 -56.65647,144.30638 -106.84117,199.21478 -4.3142,-31.8745 -7.94746,-63.7488 -7.94746,-96.3698 0,-30.2559 2.83833,-56.6518 7.94746,-81.3043 m 21.79956,824.0015 c -103.88803,0 -192.56266,-79.6858 -192.56266,-200.0861 0,-97.1176 62.44682,-184.0246 126.48304,-245.4075 12.26224,-11.2061 23.95702,-22.2872 34.85681,-34.2401 6.47152,42.9554 11.58065,79.6858 16.68977,113.1787 -66.19295,20.6688 -111.15455,97.9888 -111.15455,172.0719 0,56.6516 39.96587,133.1002 98.09803,133.1002 5.79,0 12.37558,-3.2367 12.37558,-11.2053 0,-6.3502 -6.58558,-11.0819 -16.00883,-17.4318 -28.38522,-18.4273 -44.39413,-39.8428 -44.39413,-78.1917 0,-48.5587 33.49434,-87.6549 75.61694,-98.7359 l 42.12327,261.3449 c -14.53304,3.2377 -27.59023,5.6027 -42.12327,5.6027 m 72.66517,-15.1898 c -15.2139,-94.7516 -34.856,-221.502 -39.96583,-256.6139 73.34677,0 104.68367,55.7805 111.15527,94.1293 0.7949,6.35 2.1574,15.0656 2.1574,24.6529 0,57.3987 -21.7996,114.7978 -73.34684,137.8317"
     id="path26"
     style="stroke-width:7.60947" />
  <path
     class="TimeSig"
     d="m 1447.6986,1365.3889 v 58.8935 h -60.2895 c -5.1091,0 -10.2182,4.8552 -10.2182,11.2053 v 15.1906 c 0,6.3494 5.1091,11.0811 10.2182,11.0811 h 220.153 c 5.9041,0 10.2184,-4.7317 10.2184,-11.0811 v -15.1906 c 0,-6.3501 -4.3143,-11.2053 -10.2184,-11.2053 h -65.3986 v -58.8935 h 65.3986 c 5.9041,0 10.2184,-5.6027 10.2184,-11.9528 v -15.19 c 0,-5.6029 -4.3143,-11.0813 -10.2184,-11.0813 h -65.3986 v -126.7504 c 0,-4.7314 -2.1575,-8.7157 -4.9958,-10.3343 l -8.7422,-4.8558 c -1.4766,-0.7472 -2.1576,-0.7472 -3.6334,-0.7472 -0.7949,0 -0.7949,0 -1.4764,0 -2.1568,0 -5.1092,0.7472 -6.5851,2.3657 l -66.0802,66.1144 c -2.1567,2.4902 -2.9518,5.603 -2.9518,8.8402 v 65.3674 h -84.2463 c 0,0 81.4082,-95.6231 167.1298,-221.6268 2.9524,-3.9843 3.6332,-7.9686 3.6332,-11.0811 0,-3.9843 -1.4757,-7.2212 -2.1566,-7.9686 l -16.0096,-17.5556 c -2.1567,-1.6185 -4.3141,-3.2377 -7.2665,-3.2377 -4.3142,0 -102.5256,0 -108.3164,0 -5.109,0 -8.7422,4.8561 -9.4239,9.5878 0,0 -3.6332,59.017 -22.4807,123.5129 -18.9611,64.6203 -40.7608,104.4633 -59.6083,133.8475 0,0 -2.1572,3.9843 -2.1572,8.8402 0,1.6185 0,3.113 0.6813,4.7314 2.1571,5.6028 7.2664,14.3188 7.2664,14.3188 0,0 1.4761,4.8553 7.9477,4.8553 h 125.0071"
     id="path28"
     style="stroke-width:7.60947" />
  <path
     class="TimeSig"
     d="m 1447.6986,1763.8183 v 58.8935 h -60.2895 c -5.1091,0 -10.2182,4.8552 -10.2182,11.2053 v 15.1906 c 0,6.3494 5.1091,11.0811 10.2182,11.0811 h 220.153 c 5.9041,0 10.2184,-4.7317 10.2184,-11.0811 v -15.1906 c 0,-6.3501 -4.3143,-11.2053 -10.2184,-11.2053 h -65.3986 v -58.8935 h 65.3986 c 5.9041,0 10.2184,-5.6027 10.2184,-11.9528 v -15.19 c 0,-5.6029 -4.3143,-11.0813 -10.2184,-11.0813 h -65.3986 v -126.7504 c 0,-4.7313 -2.1575,-8.7157 -4.9958,-10.3343 l -8.7422,-4.8558 c -1.4766,-0.747 -2.1576,-0.747 -3.6334,-0.747 -0.7949,0 -0.7949,0 -1.4764,0 -2.1568,0 -5.1092,0.747 -6.5851,2.3657 l -66.0802,66.1144 c -2.1567,2.4901 -2.9518,5.6028 -2.9518,8.8401 v 65.3673 h -84.2463 c 0,0 81.4082,-95.6231 167.1298,-221.6268 2.9524,-3.9843 3.6332,-7.9685 3.6332,-11.0811 0,-3.9843 -1.4757,-7.2212 -2.1566,-7.9686 l -16.0096,-17.5556 c -2.1567,-1.6184 -4.3141,-3.2376 -7.2665,-3.2376 -4.3142,0 -102.5256,0 -108.3164,0 -5.109,0 -8.7422,4.8561 -9.4239,9.5878 0,0 -3.6332,59.017 -22.4807,123.5129 -18.9611,64.6203 -40.7608,104.4633 -59.6083,133.8474 0,0 -2.1572,3.9843 -2.1572,8.8402 0,1.6185 0,3.113 0.6813,4.7315 2.1571,5.6027 7.2664,14.3188 7.2664,14.3188 0,0 1.4761,4.8552 7.9477,4.8552 h 125.0071"
     id="path30"
     style="stroke-width:7.60947" />
  <path
     class="Rest"
     d="m 2716.4793,1455.4093 c 0,11.2057 0,11.2057 10.2185,11.2057 h 215.8385 c 10.1049,0 10.1049,0 10.1049,-11.2057 v -86.0361 c 0,-11.2055 0,-11.2055 -10.1049,-11.2055 h -215.8385 c -10.2185,0 -10.2185,0 -10.2185,11.2055 v 86.0361"
     id="path32"
     style="stroke-width:7.60947" />
  <metadata
     id="metadata1446">
    <rdf:RDF>
      <cc:Work
         rdf:about="">
        <dc:title>Partition sans titre</dc:title>
      </cc:Work>
    </rdf:RDF>
  </metadata>
  <text
     xml:space="preserve"
     style="font-size:180px;font-family:sans-serif;-inkscape-font-specification:sans-serif;fill:#1a1a1a;stroke:#666666;stroke-width:5.66929"
     x="1755.3673"
     y="783.02618"
     id="text3136"><tspan
       sodipodi:role="line"
       id="tspan3134"
       style="stroke-width:5.66929"
       x="1755.3673"
       y="783.02618">Blanche</tspan></text>
  <text
     xml:space="preserve"
     style="font-size:180px;font-family:sans-serif;-inkscape-font-specification:sans-serif;fill:#1a1a1a;stroke:#666666;stroke-width:5.66929"
     x="2396.9092"
     y="2172.3728"
     id="text6052"><tspan
       sodipodi:role="line"
       id="tspan6050"
       style="stroke-width:5.66929"
       x="2396.9092"
       y="2172.3728">Demi-pause</tspan></text>
  <path
     style="fill:#1a1a1a;stroke:#666666;stroke-width:13.5369;stroke-dasharray:none;marker-start:url(#TriangleStart)"
     d="m 2106.8731,1207.109 c -2.006,-330.23217 -1.2098,-330.21892 -1.2098,-330.21892 l -1.8238,4.38546 z"
     id="path8554" />
  <path
     style="fill:#1a1a1a;stroke:#666666;stroke-width:13.5369;stroke-dasharray:none;marker-start:url(#TriangleStart-3)"
     d="m 2829.7973,1608.6203 c 5.2369,330.1966 4.4406,330.1912 4.4406,330.1912 l 1.7808,-4.4031 z"
     id="path8554-7" />
</svg>
