<?xml version="1.0" encoding="UTF-8" standalone="no"?>
<svg
   width="297mm"
   height="210mm"
   viewBox="0 0 4209.4489 2976.378"
   version="1.2"
   id="svg142"
   sodipodi:docname="croche.svg"
   inkscape:version="1.2.2 (b0a8486541, 2022-12-01)"
   xmlns:inkscape="http://www.inkscape.org/namespaces/inkscape"
   xmlns:sodipodi="http://sodipodi.sourceforge.net/DTD/sodipodi-0.dtd"
   xmlns="http://www.w3.org/2000/svg"
   xmlns:svg="http://www.w3.org/2000/svg"
   xmlns:rdf="http://www.w3.org/1999/02/22-rdf-syntax-ns#"
   xmlns:cc="http://creativecommons.org/ns#"
   xmlns:dc="http://purl.org/dc/elements/1.1/">
  <defs
     id="defs146" />
  <sodipodi:namedview
     id="namedview144"
     pagecolor="#ffffff"
     bordercolor="#000000"
     borderopacity="0.25"
     inkscape:showpageshadow="2"
     inkscape:pageopacity="0.0"
     inkscape:pagecheckerboard="0"
     inkscape:deskcolor="#d1d1d1"
     inkscape:document-units="mm"
     showgrid="false"
     inkscape:zoom="0.42949815"
     inkscape:cx="778.81593"
     inkscape:cy="341.09576"
     inkscape:window-width="1280"
     inkscape:window-height="651"
     inkscape:window-x="0"
     inkscape:window-y="32"
     inkscape:window-maximized="1"
     inkscape:current-layer="svg142" />
  <title
     id="title2">Partition sans titre</title>
  <desc
     id="desc4">Generated by MuseScore Studio 4.5.2</desc>
  <polyline
     class="StaffLines"
     fill="none"
     stroke="#000000"
     stroke-width="2.73"
     stroke-linejoin="bevel"
     points="336.598,634.198 2764.6,634.198"
     id="polyline6"
     transform="matrix(1.3289832,0,0,3.4861516,5.8949575,-1516.8465)" />
  <polyline
     class="StaffLines"
     fill="none"
     stroke="#000000"
     stroke-width="2.73"
     stroke-linejoin="bevel"
     points="336.598,658.998 2764.6,658.998"
     id="polyline8"
     transform="matrix(1.3289832,0,0,3.4861516,5.8949575,-1516.8465)" />
  <polyline
     class="StaffLines"
     fill="none"
     stroke="#000000"
     stroke-width="2.73"
     stroke-linejoin="bevel"
     points="336.598,683.798 2764.6,683.798"
     id="polyline10"
     transform="matrix(1.3289832,0,0,3.4861516,5.8949575,-1516.8465)" />
  <polyline
     class="StaffLines"
     fill="none"
     stroke="#000000"
     stroke-width="2.73"
     stroke-linejoin="bevel"
     points="336.598,708.598 2764.6,708.598"
     id="polyline12"
     transform="matrix(1.3289832,0,0,3.4861516,5.8949575,-1516.8465)" />
  <polyline
     class="StaffLines"
     fill="none"
     stroke="#000000"
     stroke-width="2.73"
     stroke-linejoin="bevel"
     points="336.598,733.398 2764.6,733.398"
     id="polyline14"
     transform="matrix(1.3289832,0,0,3.4861516,5.8949575,-1516.8465)" />
  <polyline
     class="StaffLines"
     fill="none"
     stroke="#000000"
     stroke-width="2.73"
     stroke-linejoin="bevel"
     points="212.598,1192.2 2764.6,1192.2"
     id="polyline16"
     transform="matrix(0.60707587,0,0,1.8002888,1220.1618,-318.64866)" />
  <polyline
     class="StaffLines"
     fill="none"
     stroke="#000000"
     stroke-width="2.73"
     stroke-linejoin="bevel"
     points="212.598,1217 2764.6,1217"
     id="polyline18"
     transform="matrix(0.60707587,0,0,1.8002888,1220.1618,-318.64866)" />
  <polyline
     class="StaffLines"
     fill="none"
     stroke="#000000"
     stroke-width="2.73"
     stroke-linejoin="bevel"
     points="212.598,1241.8 2764.6,1241.8"
     id="polyline20"
     transform="matrix(0.60707587,0,0,1.8002888,1220.1618,-318.64866)" />
  <polyline
     class="StaffLines"
     fill="none"
     stroke="#000000"
     stroke-width="2.73"
     stroke-linejoin="bevel"
     points="212.598,1266.6 2764.6,1266.6"
     id="polyline22"
     transform="matrix(0.60707587,0,0,1.8002888,1220.1618,-318.64866)" />
  <polyline
     class="StaffLines"
     fill="none"
     stroke="#000000"
     stroke-width="2.73"
     stroke-linejoin="bevel"
     points="212.598,1291.4 2764.6,1291.4"
     id="polyline24"
     transform="matrix(0.60707587,0,0,1.8002888,1220.1618,-318.64866)" />
  <polyline
     class="StaffLines"
     fill="none"
     stroke="#000000"
     stroke-width="2.73"
     stroke-linejoin="bevel"
     points="212.598,1750.2 2764.6,1750.2"
     id="polyline26"
     transform="matrix(0.87502818,0,0,1.8000732,821.08629,-569.16782)" />
  <polyline
     class="StaffLines"
     fill="none"
     stroke="#000000"
     stroke-width="2.73"
     stroke-linejoin="bevel"
     points="212.598,1775 2764.6,1775"
     id="polyline28"
     transform="matrix(0.87502818,0,0,1.8000732,821.08629,-569.16782)" />
  <polyline
     class="StaffLines"
     fill="none"
     stroke="#000000"
     stroke-width="2.73"
     stroke-linejoin="bevel"
     points="212.598,1799.8 2764.6,1799.8"
     id="polyline30"
     transform="matrix(0.87502818,0,0,1.8000732,821.08629,-569.16782)" />
  <polyline
     class="StaffLines"
     fill="none"
     stroke="#000000"
     stroke-width="2.73"
     stroke-linejoin="bevel"
     points="212.598,1824.6 2764.6,1824.6"
     id="polyline32"
     transform="matrix(0.87502818,0,0,1.8000732,821.08629,-569.16782)" />
  <polyline
     class="StaffLines"
     fill="none"
     stroke="#000000"
     stroke-width="2.73"
     stroke-linejoin="bevel"
     points="212.598,1849.4 2764.6,1849.4"
     id="polyline34"
     transform="matrix(0.87502818,0,0,1.8000732,821.08629,-569.16782)" />
  <polyline
     class="BarLine"
     fill="none"
     stroke="#000000"
     stroke-width="4.46"
     stroke-linejoin="bevel"
     points="2762.37,1748.83 2762.37,1850.76"
     id="polyline52"
     transform="matrix(0.87502818,0,0,1.8000732,821.08629,-569.16782)" />
  <polyline
     class="BarLine"
     fill="none"
     stroke="#000000"
     stroke-width="4.46"
     stroke-linejoin="bevel"
     points="2691.89,1190.83 2691.89,1292.76"
     id="polyline54"
     transform="matrix(0.60707587,0,0,1.8002888,1267.8067,-318.64866)" />
  <polyline
     class="BarLine"
     fill="none"
     stroke="#000000"
     stroke-width="4.46"
     stroke-linejoin="bevel"
     points="2762.37,632.834 2762.37,734.762"
     id="polyline56"
     transform="matrix(1.3289832,0,0,3.4861516,5.8949575,-1516.8465)" />
  <polyline
     class="Stem"
     fill="none"
     stroke="#000000"
     stroke-width="2.48"
     stroke-linejoin="bevel"
     points="1649.07,687.965 1649.07,764.299"
     id="polyline64"
     transform="matrix(3.1989731,0,0,3.4861516,-3454.631,-1516.8465)" />
  <polyline
     class="Stem"
     fill="none"
     stroke="#000000"
     stroke-width="2.48"
     stroke-linejoin="bevel"
     points="442.51,1857.83 442.51,1756.39"
     id="polyline66"
     transform="matrix(2.2832922,0,0,1.8000732,357.13883,-569.16782)" />
  <polyline
     class="Stem"
     fill="none"
     stroke="#000000"
     stroke-width="2.48"
     stroke-linejoin="bevel"
     points="1569.84,1820.63 1569.84,1750.21"
     id="polyline68"
     transform="matrix(2.2832922,0,0,1.8000732,-715.36114,-569.16782)" />
  <polyline
     class="Stem"
     fill="none"
     stroke="#000000"
     stroke-width="2.48"
     stroke-linejoin="bevel"
     points="566.51,679.83 566.51,603.397"
     id="polyline70"
     transform="matrix(3.1989731,0,0,3.4861516,-623.53989,-1516.8465)" />
  <polyline
     class="Stem"
     fill="none"
     stroke="#000000"
     stroke-width="2.48"
     stroke-linejoin="bevel"
     points="818.288,1845.43 818.288,1754.33"
     id="polyline72"
     transform="matrix(2.2832922,0,0,1.8000732,34.638833,-569.16782)" />
  <polyline
     class="Stem"
     fill="none"
     stroke="#000000"
     stroke-width="2.48"
     stroke-linejoin="bevel"
     points="387.655,1287.43 387.655,1198.39"
     id="polyline74"
     transform="matrix(2.2832922,0,0,1.8000732,863.79236,-318.3809)" />
  <polyline
     class="Stem"
     fill="none"
     stroke="#000000"
     stroke-width="2.48"
     stroke-linejoin="bevel"
     points="1194.07,1833.03 1194.07,1752.27"
     id="polyline76"
     transform="matrix(2.2832922,0,0,1.8000732,-347.86117,-569.16782)" />
  <path
     class="Hook"
     d="m 1816.7328,1199.9289 c 0,2.3776 1.8841,4.485 4.1154,4.485 1.5868,0 3.5205,-1.4049 3.8181,-2.7558 0,-0.3783 2.8758,-12.4822 3.1734,-13.5089 0.2974,-1.4049 3.1733,-14.5355 14.5776,-34.907 12.3961,-22.4787 31.4364,-38.7432 47.3033,-62.9511 15.5694,-24.2078 25.0895,-47.0649 25.0895,-77.4865 0,-31.44873 -6.6938,-57.76406 -23.5028,-91.31991 -0.9421,-2.43153 -2.8759,-3.78234 -4.7601,-3.78234 -0.6446,0 -1.2892,0 -1.5868,0.32422 -1.5866,0.70236 -2.2313,2.10745 -2.2313,4.16061 0,1.02679 0.3472,2.75591 0.9422,4.16096 12.6936,32.15079 17.8008,50.46888 17.8008,75.37906 0,28.6929 -9.2228,43.6067 -14.9249,54.3058 -20.627,38.365 -53.9475,57.0613 -67.2857,61.9244 -2.2312,1.0267 -2.5287,2.7558 -2.5287,3.7826 v 78.1889"
     id="path78"
     style="stroke-width:3.31276" />
  <path
     class="Hook"
     d="m 1184.7437,664.50651 c 0,1.02674 0.2975,2.75586 2.5287,3.78261 13.6357,4.86304 40.9564,23.55942 61.5834,61.92437 5.7022,10.69915 14.9251,25.6129 14.9251,54.30578 0,24.9102 -6.0495,50.46884 -14.2803,75.37906 -0.6448,2.10745 -1.2893,3.83658 -0.9916,5.18739 0,1.40506 0.3468,2.43184 1.5866,3.1342 0.6445,0.32422 1.2891,0.32422 1.5867,0.32422 2.2312,0 3.8179,-1.35081 5.107,-3.78234 14.925,-28.7468 19.9824,-65.38291 19.6851,-87.15893 0,-1.72912 0,-2.7559 0,-4.16096 -1.5867,-44.63306 -25.0897,-77.48656 -25.0897,-77.48656 0.9421,0 -29.205,-42.52587 -37.7831,-57.06131 -11.7019,-19.72297 -17.1065,-39.39185 -17.7511,-40.79677 -0.2975,-1.02667 -3.1734,-13.50883 -3.1734,-13.50883 -0.2975,-1.35089 -1.8842,-2.75581 -3.818,-2.75581 -2.2312,0 -4.1154,2.10739 -4.1154,4.48494 v 78.18907"
     id="path80"
     style="stroke-width:3.31276" />
  <path
     class="Note"
     d="m 2307.7904,2745.072 c 0,7.6728 7.0074,16.2384 25.3754,16.2384 23.535,0 48.238,-15.1782 48.238,-30.8865 0,-10.5466 -11.3252,-16.4338 -25.3754,-16.4338 -21.9778,0 -48.238,14.6481 -48.238,31.0819"
     id="path82"
     style="stroke-width:2.01112" />
  <path
     class="Note"
     d="m 1832.2817,2767.3929 c 0,7.6728 7.0074,16.2385 25.3753,16.2385 23.5352,0 48.238,-15.1783 48.238,-30.8866 0,-10.5466 -11.3251,-16.4338 -25.3753,-16.4338 -21.9777,0 -48.238,14.6481 -48.238,31.0819"
     id="path84"
     style="stroke-width:2.01112" />
  <path
     class="Note"
     d="m 1296.7707,2789.7138 c 0,7.6728 7.0074,16.2385 25.3753,16.2385 23.5352,0 48.238,-15.1783 48.238,-30.8866 0,-10.5466 -11.3251,-16.4338 -25.3753,-16.4338 -21.9778,0 -48.238,14.6481 -48.238,31.0819"
     id="path86"
     style="stroke-width:2.01112" />
  <path
     class="Note"
     d="m 2798.306,2722.7511 c 0,7.6728 7.0074,16.2384 25.3753,16.2384 23.5351,0 48.238,-15.1782 48.238,-30.8865 0,-10.5466 -11.3251,-16.4338 -25.3754,-16.4338 -21.9778,0 -48.2379,14.6481 -48.2379,31.0819"
     id="path88"
     style="stroke-width:2.01112" />
  <path
     class="Note"
     d="m 1678.1764,2013.7389 c 0,7.6729 7.0075,16.2385 25.3754,16.2385 23.5352,0 48.238,-15.1782 48.238,-30.8865 0,-10.5466 -11.3251,-16.4338 -25.3753,-16.4338 -21.9778,0 -48.2381,14.6481 -48.2381,31.0818"
     id="path92"
     style="stroke-width:2.01112" />
  <polyline
     class="Stem"
     fill="none"
     stroke="#000000"
     stroke-width="2.48"
     stroke-linejoin="bevel"
     points="387.655,1287.43 387.655,1198.39"
     id="polyline74-3"
     transform="matrix(2.2832922,0,0,1.5581247,1437.2227,-50.266933)" />
  <path
     class="Note"
     d="m 2251.3339,1970.3611 c 0,7.6729 7.0075,16.2385 25.3754,16.2385 23.5352,0 48.238,-15.1782 48.238,-30.8865 0,-10.5466 -11.3251,-16.4338 -25.3753,-16.4338 -21.9778,0 -48.2381,14.6481 -48.2381,31.0818"
     id="path92-6"
     style="stroke-width:2.01112" />
  <path
     class="Note"
     d="m 1816.7328,881.51254 c 0,14.85973 9.8176,31.44865 35.5518,31.44865 32.9734,0 67.583,-29.3953 67.583,-59.8172 0,-20.42536 -15.8668,-31.82675 -35.5516,-31.82675 -30.7919,0 -67.5832,28.36849 -67.5832,60.1953"
     id="path94"
     style="stroke-width:3.31276" />
  <path
     class="Note"
     d="m 1089.5902,881.51254 c 0,14.85973 9.8176,31.44865 35.5517,31.44865 32.9737,0 67.5832,-29.3953 67.5832,-59.8172 0,-20.42536 -15.8669,-31.82675 -35.5517,-31.82675 -30.7917,0 -67.5832,28.36849 -67.5832,60.1953"
     id="path96"
     style="stroke-width:3.31276" />
  <path
     class="Rest"
     d="m 2953.4543,796.78505 c -0.2974,0 -0.9421,-0.37835 -1.2892,-0.37835 -1.8841,0 -3.4708,1.0807 -4.1154,2.80984 -1.2893,2.05351 -11.1069,22.4787 -25.3871,33.88034 -4.1155,3.45825 -9.2227,5.88984 -14.2802,6.91651 3.4708,-4.48492 5.7021,-10.05049 5.7021,-16.58903 0,-13.50865 -10.1646,-24.58584 -22.5111,-24.58584 -12.6935,0 -22.8583,11.07719 -22.8583,24.58584 0,10.69919 6.0492,19.34484 14.2803,23.12731 4.76,2.43159 11.1067,4.16073 17.4535,4.16073 9.2226,0 19.0402,-3.08002 27.6184,-9.99654 3.8179,-3.13406 7.5863,-7.29478 11.1068,-11.45567 l -36.1964,123.14667 8.5781,2.75587 44.4272,-152.48793 c 0.3472,-0.378 0.3472,-1.0807 0.3472,-1.72914 0,-1.72912 -0.9916,-3.13386 -2.8759,-4.16061"
     id="path128"
     style="stroke-width:3.31276" />
  <path
     class="Beam"
     fill-rule="evenodd"
     d="m 1364.6872,2581.3202 1509.3182,-11.1604 v 22.3209 l -1509.3182,11.1604 v -22.3209"
     id="path130"
     style="stroke-width:1.55072" />
  <path
     class="Beam"
     fill-rule="evenodd"
     d="m 1746.0907,1827.6663 577.0455,-11.1604 v 22.3209 l -577.0455,11.1604 v -22.3209"
     id="path132"
     style="stroke-width:1.33169" />
  <path
     class="StaffText"
     d="m 1859.5368,1526.2396 h -4.9958 c -3.7812,16.2006 -8.9186,20.1608 -26.6141,20.4488 h -4.8154 c -6.8499,-0.198 -8.5624,-1.098 -8.2062,-4.3382 v -45.3618 c 0,-4.5002 0,-4.7882 0.6781,-5.5802 0.9271,-0.9001 3.103,-1.1701 9.5967,-1.2601 h 2.0687 v -4.2482 h -37.4597 v 4.2482 h 2.0687 c 6.4936,0.09 8.6696,0.36 9.5624,1.2601 0.7124,0.792 0.7124,0.99 0.7124,5.5802 v 42.8237 c 0,4.6262 0,4.7882 -0.7124,5.5982 -0.8928,0.9001 -3.0688,1.2781 -9.5624,1.2781 h -2.0687 v 4.2122 h 67.3571 l 2.3906,-24.661 m 20.9766,-39.6916 c -3.6738,0 -6.6352,2.3401 -6.6352,5.2022 0,2.8981 2.9614,5.2382 6.5279,5.2382 3.7469,0 6.7083,-2.3401 6.7083,-5.2382 0,-2.8621 -2.9614,-5.2022 -6.601,-5.2022 m 5.3521,22.4109 -21.4424,0.99 v 3.8882 h 5.8155 c 4.3177,0.072 4.8885,0.612 4.8885,4.5001 v 25.7231 c -0.1073,1.35 -0.2146,1.8901 -0.6781,2.3401 -0.7854,0.81 -2.9614,1.188 -7.8842,1.26 h -0.7855 v 3.2402 h 29.5755 v -3.2402 h -0.8197 c -7.6353,-0.198 -8.6696,-0.648 -8.6696,-3.8701 v -34.8314 m 33.7493,35.2814 c -6.279,-0.09 -6.5987,-0.18 -7.9915,-0.828 -0.7832,-0.324 -1.354,-1.3501 -1.354,-2.3221 0,-2.7001 3.0665,-3.8522 10.7383,-4.0502 10.7018,-0.18 12.4143,-0.378 16.3027,-1.7281 6.8499,-2.4121 10.6333,-7.0742 10.6333,-13.0505 0,-3.6001 -1.0366,-5.8502 -4.1031,-8.8023 1.9249,-1.6201 2.9615,-2.1601 3.852,-2.1601 0.5708,0 0.927,0.288 1.1416,1.26 0.4635,2.1781 2.2833,3.3301 5.1374,3.3301 2.998,0 5.1739,-1.89 5.1739,-4.3021 0,-3.0782 -3.1052,-5.2382 -7.5645,-5.2382 -3.6373,0 -5.7082,0.9 -10.953,4.6622 -4.7789,-2.5022 -8.455,-3.4022 -14.1632,-3.4022 -13.5925,0 -22.4745,5.9403 -22.4745,14.9406 0,5.3102 3.6373,9.8104 9.5967,12.0605 -7.6718,1.3501 -10.8456,4.0502 -10.8456,9.0004 0,3.9781 2.2833,6.3002 7.633,7.7403 -7.0622,2.0881 -10.4871,4.8602 -10.4871,8.5503 0,2.7001 2.2833,5.2383 5.9205,6.7503 4.4616,1.8001 9.9187,2.5381 18.1613,2.5381 19.0496,0 28.5412,-4.7882 28.5412,-14.2386 0,-4.5001 -2.6418,-8.1003 -6.7448,-9.4503 -3.0665,-0.9001 -6.7426,-1.2601 -14.483,-1.2601 h -11.6676 m 6.7426,-32.7793 c 7.0645,0 11.0602,3.8881 11.0602,10.9264 0,7.0023 -4.3154,11.2505 -11.5237,11.2505 -7.0623,0 -11.5238,-4.2482 -11.5238,-10.9985 0,-7.1283 4.3542,-11.1784 11.9873,-11.1784 m -1.0344,40.5016 c 9.4917,0 10.1675,0 11.775,0.198 4.6716,0.378 7.4207,2.3401 7.4207,5.2022 0,5.1482 -7.4207,8.1004 -20.0861,8.1004 -9.704,0 -15.0926,-2.2501 -15.0926,-6.3003 0,-2.9521 2.0709,-4.9502 7.528,-7.2003 h 8.455 m 84.0891,-30.0252 c 0,-5.6882 -1.2467,-8.5504 -4.5666,-10.7284 -3.7446,-2.4481 -9.3455,-3.6002 -16.6589,-3.6002 -12.88,0 -22.2621,4.7522 -22.2621,11.3405 0,3.3121 2.6395,5.4902 6.6353,5.4902 3.6396,0 6.1717,-1.8901 6.1717,-4.5902 0,-1.188 -0.5708,-2.4121 -1.7124,-3.6901 -0.7147,-0.6481 -0.8197,-0.8101 -0.8197,-1.2601 0,-1.8001 4.5665,-3.4381 10.0601,-3.4381 3.6396,0 7.6354,0.9 9.4529,2.2501 2.1782,1.476 2.9979,3.6001 2.9979,7.6503 v 3.5281 c -11.8799,1.6201 -15.6611,2.3221 -21.2643,4.0502 -9.9163,2.8981 -14.5902,7.0203 -14.5902,12.7985 0,6.4623 6.3864,10.5124 16.5539,10.5124 7.8842,0 14.9487,-2.5381 19.8715,-7.1103 1.8197,4.5722 4.6739,6.3723 10.0259,6.3723 5.1374,0 10.5237,-2.5741 10.5237,-5.2022 0,-0.648 -0.4635,-1.0981 -1.1417,-1.0981 -0.4635,0 -0.927,0.126 -1.7124,0.3781 -1.6052,0.522 -2.2833,0.648 -3.2103,0.648 -3.2126,0 -4.3543,-1.6381 -4.3543,-6.2283 v -18.0727 m -10.7018,10.9624 c 0,5.4003 -0.3562,6.6603 -2.2833,9.0004 -2.8541,3.3121 -7.9915,5.5622 -13.0216,5.5622 -5.2447,0 -9.0258,-2.9521 -9.0258,-7.0023 0,-3.7981 2.3906,-6.4982 7.4207,-8.3703 3.5322,-1.278 7.9915,-2.1781 16.91,-3.3301 v 4.1401 m 41.7409,-23.9409 v -17.8208 h -4.6739 c -1.1416,11.7005 -6.1717,17.6228 -15.4122,18.1988 v 3.4741 h 9.3478 v 22.951 c 0,6.3002 0.2146,8.5503 1.3563,10.6384 1.854,3.7621 6.4206,5.8502 13.0216,5.8502 10.2748,0 16.91,-6.1382 16.91,-15.6606 0,-0.54 0,-1.1521 -0.1073,-2.0521 h -4.8154 c -0.322,8.1003 -3.3177,12.2225 -8.8843,12.2225 -2.6395,0 -4.9228,-1.098 -5.7083,-2.6101 -0.7124,-1.2601 -1.0343,-3.5101 -1.0343,-6.7503 v -24.589 h 16.7685 v -3.8521 h -16.7685 m 69.1061,42.5537 20.7985,-0.612 v -3.8882 h -2.8541 c -6.6352,-0.162 -7.2061,-0.702 -7.2061,-6.5523 v -31.5012 l -21.4424,0.99 v 3.8882 h 5.8156 c 4.3177,0.072 4.8885,0.612 4.8885,4.5001 v 11.0525 c 0,7.8483 -2.3906,17.3707 -14.9487,17.3707 -3.5322,0 -6.4937,-0.972 -7.9915,-2.7721 -1.4636,-1.7281 -1.7125,-2.6281 -1.7125,-7.5783 v -27.4511 l -19.9788,0.99 v 3.8882 h 4.352 c 4.3177,0.072 4.8885,0.612 4.8885,4.5001 v 19.4228 c 0,4.5902 0.4635,6.6783 2.176,8.7304 3.103,3.6721 8.5623,5.7602 15.4122,5.7602 7.528,0 12.807,-2.4121 17.8028,-8.1903 v 7.4523 m 45.3439,-42.5537 -20.2277,0.99 v 3.8882 h 4.6739 c 4.352,0.072 4.9228,0.612 4.9228,4.5001 v 25.7231 c -0.1073,1.35 -0.2146,1.8901 -0.6781,2.3401 -0.8197,0.81 -3.103,1.188 -7.9915,1.26 h -0.4636 v 3.2402 h 30.4683 v -3.2402 h -2.0344 c -7.6696,-0.198 -8.6697,-0.648 -8.6697,-3.8701 v -4.8782 c 0.1073,-15.1026 6.9572,-26.6231 15.8415,-27.0011 -1.5709,1.476 -2.0344,2.3761 -2.0344,4.0502 0,2.8981 2.6052,4.9502 6.279,4.9502 4.2104,0 6.9572,-2.4121 6.9572,-6.0123 0,-4.4102 -3.8884,-7.2903 -9.9186,-7.2903 -7.2061,0 -13.3778,4.5002 -17.1247,12.5285 v -11.1784 m 80.4153,21.6908 c 0.1073,-13.5005 -9.5967,-23.0409 -23.5111,-23.0409 -14.6267,0 -25.5797,9.9904 -25.5797,23.491 0,12.6905 10.3821,21.1508 25.7944,21.1508 10.9529,0 18.6225,-4.2121 23.2964,-12.7625 l -3.9958,-1.7281 c -4.6739,6.9303 -9.4893,9.6304 -17.1247,9.6304 -5.8155,0 -10.0601,-1.89 -13.0216,-5.9402 -2.0344,-2.7001 -2.9614,-5.8502 -2.8541,-10.8005 h 36.9962 m -36.8889,-3.8881 c 0,-6.3003 3.6738,-15.3006 13.2705,-15.3006 6.8499,0 11.4165,4.7882 11.4165,12.0785 0,2.5201 -1.0344,3.2221 -4.7082,3.2221 h -19.9788"
     id="path134"
     style="stroke-width:2.02734" />
  <path
     class="StaffText"
     d="m 2488.4872,399.61587 h 53.7428 c 14.2355,0 25.1439,-2.45076 33.5894,-7.67998 16.1548,-9.91114 25.1439,-29.79613 25.1439,-55.94227 0,-24.07537 -7.9975,-42.86572 -22.7447,-53.32418 -8.7973,-6.10076 -20.6336,-8.93501 -38.8997,-8.93501 h -50.8317 v 8.22383 h 3.0392 c 8.9571,0.16384 11.996,0.71118 13.2756,2.45425 0.9278,1.52344 0.9278,1.90344 0.9278,10.78267 v 82.95995 c 0,8.93501 0,9.25923 -0.9278,10.84193 -1.2796,1.74309 -4.3185,2.23115 -13.2756,2.45076 h -3.0392 v 8.16805 m 44.3058,-8.16805 c -8.1574,0 -9.1171,-1.09116 -9.1171,-9.58691 v -90.15187 c 0,-8.55153 1.1197,-9.75078 9.1171,-9.75078 h 8.3174 c 27.3512,0 38.7077,16.17923 38.7077,54.74653 0,39.05535 -10.2368,54.74303 -36.1486,54.74303 h -10.8765 m 150.128,-31.05114 c 0.16,-26.14614 -13.4357,-44.60881 -32.9175,-44.60881 -20.5054,0 -35.8605,19.33421 -35.8605,45.48035 0,24.5669 14.5554,40.96228 36.1484,40.96228 15.3551,0 26.1037,-8.16805 32.6296,-24.72728 l -5.5982,-3.3223 c -6.526,13.39728 -13.2757,18.62651 -23.9923,18.62651 -8.1254,0 -14.0755,-3.65001 -18.2342,-11.49384 -2.847,-5.22923 -4.1587,-11.33 -3.9987,-20.91691 h 51.8234 m -51.6634,-7.51615 c 0,-12.20154 5.1504,-29.63228 18.586,-29.63228 9.597,0 15.9948,9.25921 15.9948,23.36767 0,4.90501 -1.4394,6.26461 -6.5898,6.26461 h -27.991 m 89.3473,-34.47803 -28.4389,1.90344 v 7.51961 h 6.5579 c 6.0461,0.16384 6.8458,1.19576 6.8458,8.71539 v 49.8415 c -0.1599,2.61462 -0.2879,3.64652 -0.9597,4.51806 -1.0877,1.58271 -4.1266,2.29041 -11.0364,2.45425 h -0.6078 v 6.26112 h 40.307 v -6.26112 h -0.6718 c -10.5246,-0.38348 -11.9961,-1.25502 -11.9961,-7.68348 v -32.2469 c 0,-15.52383 7.8695,-27.01768 18.2661,-27.01768 9.0852,0 13.7236,7.13615 13.7236,21.24461 v 38.89152 c -0.1275,2.2904 -0.2879,3.48614 -1.0876,4.35768 -0.9597,1.58271 -4.1587,2.29041 -11.0366,2.45425 h -0.6716 v 6.26112 h 40.4989 v -6.26112 h -0.6397 c -10.5567,-0.38348 -11.9963,-1.25502 -11.9963,-7.51963 v -30.82803 c 0,-17.43076 7.1977,-28.6004 18.3942,-28.6004 9.1491,0 13.5957,7.51963 13.5957,23.20731 v 36.76844 c -0.16,2.45078 -0.32,3.64652 -1.1197,4.51806 -0.9278,1.58271 -4.1266,2.29041 -11.0365,2.45425 h -0.6398 v 6.26112 h 40.467 v -6.26112 h -0.6397 c -10.5567,-0.38348 -11.9962,-1.25502 -11.9962,-7.68348 v -39.54341 c 0,-10.84194 -0.9598,-14.49195 -5.0864,-20.42885 -4.6705,-6.42499 -11.1963,-9.91114 -18.906,-9.91114 -10.3966,0 -18.1061,5.38959 -24.9518,17.43077 -2.7512,-10.45846 -11.3885,-17.43077 -22.0731,-17.43077 -9.7568,0 -16.7945,5.06539 -23.0645,16.01191 V 318.4025 m 135.4765,-43.41655 c -5.1504,0 -9.3091,4.52155 -9.3091,10.07848 0,5.6092 4.1587,10.13075 9.1492,10.13075 5.2463,0 9.4049,-4.52155 9.4049,-10.13075 0,-5.55693 -4.1586,-10.07848 -9.245,-10.07848 m 7.4856,43.41655 -30.0384,1.90344 v 7.51961 h 8.1574 c 6.046,0.16384 6.8459,1.19576 6.8459,8.71539 v 49.8415 c -0.16,2.61462 -0.32,3.64652 -0.9597,4.51806 -1.0876,1.58271 -4.1587,2.29041 -11.0365,2.45425 h -1.1196 v 6.26112 h 41.4586 v -6.26112 h -1.1517 c -10.7165,-0.38348 -12.156,-1.25502 -12.156,-7.51963 V 318.4025 m 24.0882,32.73495 v 14.48845 h 39.8592 v -14.48845 h -39.8592 m 110.3327,-34.64188 h -5.5983 l -4.6705,6.26461 c -5.7261,-4.90501 -11.4842,-6.97231 -19.4816,-6.97231 -14.1076,0 -23.3526,9.91114 -23.3526,25.2746 0,16.39538 9.7569,20.53343 22.5527,23.85574 l 8.4453,2.12656 c 12.636,3.26652 17.1466,6.75267 17.1466,13.72498 0,8.22731 -6.558,13.9446 -15.8349,13.9446 -13.5957,0 -23.1926,-9.36729 -27.0634,-26.79804 h -6.398 v 32.89881 h 5.5983 l 5.5982,-7.13615 c 6.5579,5.77655 13.7555,8.55153 21.9449,8.55153 15.6429,0 26.0396,-10.61883 26.0396,-26.85384 0,-7.67999 -2.2393,-13.56112 -6.6857,-17.59461 -3.8389,-3.6465 -7.0378,-5.06536 -16.7947,-7.29651 l -7.9975,-1.9627 c -8.7971,-2.07076 -8.7971,-2.07076 -11.7082,-3.81385 -3.4869,-1.74308 -5.5982,-5.38958 -5.5982,-9.25923 0,-7.13615 6.11,-11.9819 14.9073,-11.9819 13.0837,0 19.4817,10.07498 23.3524,22.27652 h 5.5983 v -29.24881 m 51.9194,-0.7077 c -19.6417,0 -34.8369,19.00999 -34.8369,43.41305 0,23.85573 15.3551,43.02958 34.549,43.02958 19.1938,0 34.5169,-19.17385 34.5169,-43.2492 0,-23.85922 -15.3231,-43.19343 -34.229,-43.19343 m 0,7.46038 c 11.1964,0 17.4344,12.74537 17.4344,35.73305 0,23.20383 -6.238,35.73305 -17.7223,35.73305 -11.5164,0 -17.7543,-12.52922 -17.7543,-35.51343 0,-23.75116 6.046,-35.95267 18.0422,-35.95267 m 105.5341,77.56687 29.1427,-1.19925 v -7.51614 h -3.9987 c -9.309,-0.32769 -10.1088,-1.35958 -10.1088,-12.68958 V 318.4025 l -30.0384,1.90344 v 7.51961 h 8.1573 c 6.0462,0.16384 6.8459,1.19576 6.8459,8.71539 v 21.40497 c 0,15.19963 -3.359,33.66576 -20.9533,33.66576 -4.9584,0 -9.085,-1.90693 -11.1964,-5.39307 -2.0473,-3.32231 -2.3992,-5.06539 -2.3992,-14.6523 v -53.1638 l -27.991,1.90344 v 7.51961 h 6.11 c 6.046,0.16384 6.8459,1.19576 6.8459,8.71539 v 37.63998 c 0,8.87573 0.6397,12.90922 3.039,16.88342 4.3506,7.13616 11.9961,11.16616 21.593,11.16616 10.5567,0 17.9463,-4.68191 24.952,-15.84806 v 14.43268 m 63.9794,-82.41262 -27.639,1.90344 v 7.51961 h 5.7261 c 6.0461,0.16384 6.8458,1.19576 6.8458,8.71539 v 85.19109 c -0.1275,2.45076 -0.2879,3.48615 -0.9277,4.35769 -1.1197,1.57922 -4.1586,2.28692 -11.0684,2.45076 h -0.5758 v 6.26461 h 41.5866 v -6.26461 h -1.8234 c -10.6846,-0.32422 -12.1242,-1.19576 -12.1242,-7.46037 v -32.95459 c 5.2784,10.07498 11.1964,14.10498 21.1453,14.10498 21.2411,0 32.2776,-22.82035 32.2776,-43.57691 0,-19.71766 -11.0365,-42.86572 -31.35,-42.86572 -9.9487,0 -16.4746,4.51807 -22.0729,14.97652 V 318.4025 m 19.1939,6.80845 c 11.0364,0 17.4344,11.9819 17.4344,32.41075 0,22.49613 -6.398,35.18573 -17.8823,35.18573 -11.5483,0 -18.9058,-12.90922 -18.9058,-32.95459 0,-21.78845 7.1976,-34.64189 19.3537,-34.64189 m 65.8669,-50.225 c -5.1503,0 -9.309,4.52155 -9.309,10.07848 0,5.6092 4.1587,10.13075 9.149,10.13075 5.2463,0 9.405,-4.52155 9.405,-10.13075 0,-5.55693 -4.1587,-10.07848 -9.245,-10.07848 m 7.4856,43.41655 -30.0383,1.90344 v 7.51961 h 8.1574 c 6.046,0.16384 6.8457,1.19576 6.8457,8.71539 v 49.8415 c -0.16,2.61462 -0.2879,3.64652 -0.9597,4.51806 -1.0876,1.58271 -4.1266,2.29041 -11.0364,2.45425 h -1.0878 v 6.26112 h 41.4268 v -6.26112 h -1.1516 c -10.6846,-0.38348 -12.1561,-1.25502 -12.1561,-7.51963 V 318.4025 m 49.1042,0 -28.343,1.90344 v 7.51961 h 6.5261 c 6.1099,0.16384 6.9097,1.19576 6.9097,8.71539 v 49.8415 c -0.16,2.61462 -0.2879,3.64652 -0.9597,4.51806 -1.1516,1.58271 -4.3506,2.29041 -11.1964,2.45425 h -0.6398 v 6.26112 h 42.6743 v -6.26112 h -2.8471 c -10.7486,-0.38348 -12.1241,-1.25502 -12.1241,-7.51963 v -9.42306 c 0.1275,-29.24882 9.7249,-51.58459 22.1689,-52.29227 -2.1753,2.83424 -2.8471,4.5773 -2.8471,7.84383 0,5.61271 3.6468,9.58691 8.7971,9.58691 5.9181,0 9.757,-4.68539 9.757,-11.65768 0,-8.55153 -5.4383,-14.10498 -13.8836,-14.10498 -10.1088,0 -18.746,8.71538 -23.9923,24.23922 V 318.4025"
     id="path136"
     style="stroke-width:3.33948" />
  <path
     class="StaffText"
     d="m 1400.8444,255.86261 h -6.1005 l -6.3979,10.29461 c -11.6443,-9.25923 -17.5944,-11.70999 -28.6404,-11.70999 -15.1951,0 -28.1414,6.97231 -38.8356,20.91691 -10.2495,13.28921 -15.0479,27.94151 -15.0479,45.86381 0,37.63997 22.5431,64.32995 54.085,64.32995 25.5918,0 41.8842,-16.39536 45.5854,-45.64765 l -7.5496,-1.41538 c -4.2962,25.98228 -16.4427,38.89149 -36.1388,38.89149 -23.6916,0 -34.888,-17.81074 -34.888,-55.45072 0,-19.88152 2.3992,-32.95458 7.8471,-43.41304 4.9488,-9.75077 14.7472,-15.85154 25.1439,-15.85154 11.1964,0 21.0908,6.42847 27.1913,17.5946 3.0486,5.77307 5.2463,12.20154 9.0946,25.9823 h 7.0506 l -2.3992,-50.38535 m 44.9327,45.8638 -28.3397,1.90693 v 7.51614 h 6.5483 c 6.0973,0.16385 6.897,1.19925 6.897,8.71538 v 49.84151 c -0.1503,2.61463 -0.3007,3.65001 -0.9501,4.52155 -1.1484,1.57922 -4.3474,2.2869 -11.1964,2.45076 h -0.6494 v 6.26461 h 42.6871 v -6.26461 h -2.8503 c -10.7453,-0.37999 -12.1465,-1.25153 -12.1465,-7.51614 v -9.42308 c 0.1504,-29.25229 9.7473,-51.58457 22.1945,-52.29227 -2.2009,2.83075 -2.8503,4.57384 -2.8503,7.84385 0,5.60922 3.6501,9.58691 8.7972,9.58691 5.8989,0 9.7473,-4.68539 9.7473,-11.6577 0,-8.55153 -5.4479,-14.10844 -13.8964,-14.10844 -10.0959,0 -18.7427,8.71537 -23.9923,24.23921 v -21.62461 m 78.7748,-2.6146 c -19.6417,0 -34.8369,19.00998 -34.8369,43.41304 0,23.85922 15.3455,43.03305 34.5393,43.03305 19.1939,0 34.5394,-19.17383 34.5394,-43.24918 0,-23.85924 -15.3455,-43.19691 -34.2418,-43.19691 m 0,7.46384 c 11.1964,0 17.4471,12.74537 17.4471,35.73307 0,23.20381 -6.2507,35.73305 -17.7447,35.73305 -11.4971,0 -17.7447,-12.52924 -17.7447,-35.51692 0,-23.74767 6.0461,-35.9492 18.0423,-35.9492 m 101.5194,50.76534 c -5.0992,12.52923 -10.547,17.59461 -18.8452,17.59461 -12.7959,0 -20.7933,-12.74537 -20.7933,-33.11843 0,-21.2969 7.8471,-35.24152 19.6449,-35.24152 4.7985,0 8.9955,2.45078 8.9955,5.22922 0,0.54386 -0.1983,1.0877 -0.9981,2.12308 -2.5496,3.3223 -3.1989,5.06539 -3.1989,8.00769 0,5.77307 3.9987,9.75076 9.5969,9.75076 5.7965,0 9.7952,-4.84923 9.7952,-11.82154 0,-11.87384 -10.7453,-20.75305 -24.9904,-20.75305 -20.7933,0 -35.6397,18.46615 -35.6397,44.61229 0,24.73074 13.5956,41.8338 33.4388,41.8338 14.1971,0 22.3929,-7.13615 29.2419,-25.60228 l -6.2476,-2.61463 m 39.2866,-102.89376 -29.5905,1.95921 v 7.46386 h 7.6967 c 6.0493,0.16384 6.849,1.25152 6.849,8.71538 v 97.28454 c -0.1504,2.45078 -0.3007,3.48616 -0.9501,4.3577 -1.1004,1.57922 -4.1491,2.2869 -11.046,2.45076 h -0.6494 v 6.26461 h 40.4862 v -6.26461 h -0.6494 c -10.6974,-0.37999 -12.1465,-1.25153 -12.1465,-7.51614 v -25.76615 c 0,-8.55153 1.1004,-16.39538 2.8982,-20.42536 3.4997,-7.84385 10.547,-13.23692 17.3961,-13.23692 4.197,0 8.9955,2.61462 11.1964,6.10077 2.5975,3.81384 3.698,9.04307 3.698,17.5946 v 36.44074 c -0.1504,2.45078 -0.3007,3.48616 -0.9501,4.3577 -1.1485,1.57922 -4.3474,2.2869 -11.1964,2.45076 h -0.6494 v 6.26461 h 40.4862 v -6.26461 h -0.6494 c -10.547,-0.37999 -11.9962,-1.25153 -11.9962,-7.51614 v -35.02538 c 0,-12.52922 -0.499,-15.68768 -3.3493,-21.62459 -3.9987,-8.55153 -11.9961,-13.40076 -21.5931,-13.40076 -10.3966,0 -18.0933,5.06536 -25.291,16.72307 v -61.38765 m 140.1054,89.27687 c 0.1503,-26.14614 -13.4453,-44.61229 -32.9398,-44.61229 -20.4927,0 -35.8381,19.33767 -35.8381,45.48381 0,24.56692 14.5457,40.96228 36.1388,40.96228 15.3454,0 26.0908,-8.17154 32.6391,-24.73076 l -5.5982,-3.3223 c -6.5483,13.40078 -13.2949,18.63001 -23.9923,18.63001 -8.1478,0 -14.0947,-3.65001 -18.2437,-11.49386 -2.8503,-5.22923 -4.1491,-11.32998 -3.9988,-20.91689 h 51.833 m -51.6826,-7.51615 c 0,-12.20154 5.1471,-29.6323 18.5924,-29.6323 9.5969,0 15.9949,9.25923 15.9949,23.36769 0,4.90152 -1.4492,6.26461 -6.5963,6.26461 h -27.991"
     id="path138"
     style="stroke-width:3.33948" />
  <path
     class="StaffText"
     d="m 2003.626,2321.3738 h -4.9936 c -3.7811,16.2007 -8.9185,20.1609 -26.614,20.4309 h -4.8178 c -6.8498,-0.18 -8.5623,-1.0801 -8.2061,-4.3202 v -45.3619 c 0,-4.5001 0,-4.7881 0.6781,-5.5802 0.9293,-0.9 3.1053,-1.17 9.5967,-1.26 h 2.0709 v -4.2482 h -37.4619 v 4.2482 h 2.0709 c 6.4914,0.09 8.6697,0.36 9.5602,1.26 0.7146,0.7921 0.7146,0.9901 0.7146,5.5802 v 42.8238 c 0,4.6082 0,4.7882 -0.7146,5.5982 -0.8905,0.9001 -3.0688,1.2601 -9.5602,1.2601 h -2.0709 v 4.2301 h 67.3571 l 2.3906,-24.661 m 20.9789,-39.6916 c -3.6761,0 -6.6353,2.3401 -6.6353,5.2022 0,2.8982 2.9592,5.2382 6.528,5.2382 3.7469,0 6.706,-2.34 6.706,-5.2382 0,-2.8621 -2.9591,-5.2022 -6.5987,-5.2022 m 5.352,22.4109 -21.4424,0.9901 v 3.8701 h 5.8156 c 4.3154,0.09 4.8862,0.6301 4.8862,4.5002 v 25.7411 c -0.105,1.35 -0.2123,1.89 -0.6758,2.3401 -0.7855,0.81 -2.9615,1.17 -7.8865,1.26 h -0.7832 v 3.2401 h 29.5755 v -3.2401 h -0.822 c -7.633,-0.198 -8.6674,-0.648 -8.6674,-3.8701 v -34.8315 m 33.7494,35.2815 c -6.2791,-0.09 -6.601,-0.18 -7.9916,-0.8281 -0.7854,-0.342 -1.3562,-1.35 -1.3562,-2.3221 0,-2.7001 3.0687,-3.8701 10.7383,-4.0501 10.7041,-0.18 12.4165,-0.378 16.305,-1.7281 6.8499,-2.4121 10.631,-7.0923 10.631,-13.0505 0,-3.6002 -1.0343,-5.8503 -4.1031,-8.8024 1.9271,-1.62 2.9614,-2.1601 3.8542,-2.1601 0.5708,0 0.927,0.27 1.1417,1.2601 0.4635,2.1601 2.2832,3.3301 5.1374,3.3301 2.9956,0 5.1716,-1.8901 5.1716,-4.3202 0,-3.0601 -3.103,-5.2202 -7.5622,-5.2202 -3.6396,0 -5.7083,0.9001 -10.953,4.6622 -4.7812,-2.5021 -8.455,-3.4021 -14.1633,-3.4021 -13.5924,0 -22.4767,5.9402 -22.4767,14.9406 0,5.3102 3.6396,9.8104 9.5967,12.0605 -7.6696,1.35 -10.8456,4.0501 -10.8456,9.0003 0,3.9602 2.2832,6.3003 7.6353,7.7404 -7.0645,2.07 -10.4895,4.8602 -10.4895,8.5503 0,2.7001 2.2833,5.2202 5.9229,6.7503 4.4593,1.8001 9.9186,2.5201 18.159,2.5201 19.0518,0 28.5412,-4.7702 28.5412,-14.2206 0,-4.5002 -2.6395,-8.1003 -6.7426,-9.4504 -3.0687,-0.9 -6.7426,-1.26 -14.4852,-1.26 h -11.6653 m 6.7425,-32.7794 c 7.0645,0 11.0603,3.8882 11.0603,10.9085 0,7.0203 -4.3177,11.2504 -11.5238,11.2504 -7.0645,0 -11.5238,-4.2301 -11.5238,-10.9804 0,-7.1283 4.352,-11.1785 11.9873,-11.1785 m -1.0343,40.5017 c 9.4894,0 10.1675,0 11.7727,0.198 4.6738,0.36 7.4206,2.3401 7.4206,5.2022 0,5.1482 -7.4206,8.1003 -20.0861,8.1003 -9.704,0 -15.0903,-2.2501 -15.0903,-6.3002 0,-2.9521 2.0687,-4.9502 7.5281,-7.2003 h 8.455 m 84.0891,-30.0432 c 0,-5.6703 -1.249,-8.5504 -4.5666,-10.7105 -3.7469,-2.4481 -9.3478,-3.6001 -16.6612,-3.6001 -12.88,0 -22.2621,4.7522 -22.2621,11.3404 0,3.3122 2.6395,5.4903 6.6353,5.4903 3.6395,0 6.1717,-1.8901 6.1717,-4.5902 0,-1.1881 -0.5708,-2.4301 -1.7125,-3.6902 -0.7124,-0.648 -0.8197,-0.81 -0.8197,-1.26 0,-1.8001 4.5666,-3.4382 10.0602,-3.4382 3.6396,0 7.6353,0.9001 9.4551,2.2501 2.176,1.4581 2.9957,3.6002 2.9957,7.6503 v 3.5282 c -11.88,1.62 -15.6611,2.3221 -21.262,4.0501 -9.9186,2.8802 -14.5925,7.0203 -14.5925,12.7806 0,6.4802 6.3863,10.5304 16.5538,10.5304 7.8842,0 14.9488,-2.5381 19.8715,-7.1103 1.8198,4.5722 4.6739,6.3723 10.026,6.3723 5.1374,0 10.5237,-2.5921 10.5237,-5.2022 0,-0.6481 -0.4635,-1.0981 -1.1417,-1.0981 -0.4635,0 -0.927,0.108 -1.7125,0.378 -1.6051,0.522 -2.2832,0.6301 -3.2103,0.6301 -3.2103,0 -4.3519,-1.6201 -4.3519,-6.2103 v -18.0907 m -10.7041,10.9804 c 0,5.4002 -0.3562,6.6603 -2.2833,9.0004 -2.8541,3.3121 -7.9915,5.5622 -13.0216,5.5622 -5.2447,0 -9.0259,-2.9521 -9.0259,-7.0023 0,-3.7981 2.3907,-6.4982 7.4207,-8.3703 3.5323,-1.2781 7.9916,-2.1781 16.9101,-3.3302 v 4.1402 m 41.7432,-23.941 v -17.8207 h -4.6739 c -1.1417,11.7005 -6.1718,17.6227 -15.4123,18.1807 v 3.4922 h 9.3478 v 22.9509 c 0,6.3003 0.2124,8.5504 1.354,10.6385 1.8563,3.7621 6.4229,5.8502 13.0216,5.8502 10.2749,0 16.9124,-6.1383 16.9124,-15.6606 0,-0.5401 0,-1.1701 -0.1073,-2.0701 h -4.8178 c -0.3196,8.1003 -3.3176,12.2405 -8.882,12.2405 -2.6395,0 -4.9228,-1.0981 -5.7082,-2.6101 -0.7147,-1.2601 -1.0343,-3.5102 -1.0343,-6.7503 v -24.589 h 16.7662 v -3.8522 h -16.7662 m 69.1037,42.5538 20.8008,-0.6121 v -3.8881 h -2.8541 c -6.6375,-0.162 -7.2083,-0.702 -7.2083,-6.5523 v -31.5013 l -21.4402,0.9901 v 3.8701 h 5.8155 c 4.3155,0.09 4.8863,0.6301 4.8863,4.5002 v 11.0705 c 0,7.8303 -2.3906,17.3707 -14.9486,17.3707 -3.53,0 -6.4914,-0.9901 -7.9915,-2.7901 -1.4613,-1.7101 -1.7125,-2.6101 -1.7125,-7.5603 v -27.4512 l -19.9788,0.9901 v 3.8701 h 4.3542 c 4.3154,0.09 4.8863,0.6301 4.8863,4.5002 v 19.4408 c 0,4.5902 0.4635,6.6603 2.1759,8.7304 3.1053,3.6721 8.5624,5.7602 15.4123,5.7602 7.5279,0 12.8091,-2.4301 17.8027,-8.1903 v 7.4523 m 45.3462,-42.5538 -20.2299,0.9901 v 3.8701 h 4.6739 c 4.3519,0.09 4.9227,0.6301 4.9227,4.5002 v 25.7411 c -0.105,1.35 -0.2123,1.89 -0.6758,2.3401 -0.822,0.81 -3.1053,1.17 -7.9915,1.26 h -0.4658 v 3.2401 h 30.4682 v -3.2401 h -2.0321 c -7.6719,-0.198 -8.6697,-0.648 -8.6697,-3.8701 v -4.8782 c 0.1073,-15.1027 6.9572,-26.6231 15.8392,-27.0011 -1.5686,1.458 -2.0321,2.3581 -2.0321,4.0501 0,2.8981 2.603,4.9502 6.2791,4.9502 4.2081,0 6.9549,-2.4121 6.9549,-6.0122 0,-4.4102 -3.8885,-7.2903 -9.9164,-7.2903 -7.2083,0 -13.3801,4.5002 -17.1247,12.5105 v -11.1605 m 80.413,21.6909 c 0.1073,-13.5005 -9.5967,-23.0409 -23.5088,-23.0409 -14.629,0 -25.582,9.9904 -25.582,23.4909 0,12.6906 10.3822,21.1509 25.7944,21.1509 10.9529,0 18.6248,-4.2302 23.2964,-12.7805 l -3.9957,-1.7101 c -4.6717,6.9303 -9.4894,9.6304 -17.1247,9.6304 -5.8133,0 -10.0602,-1.8901 -13.0217,-5.9402 -2.0321,-2.7002 -2.9614,-5.8503 -2.8541,-10.8005 h 36.9962 m -36.8889,-3.8881 c 0,-6.3003 3.6761,-15.3007 13.2728,-15.3007 6.8499,0 11.4165,4.7882 11.4165,12.0785 0,2.5201 -1.0343,3.2222 -4.7104,3.2222 h -19.9789"
     id="path140"
     style="stroke-width:2.02734" />
  <metadata
     id="metadata931">
    <rdf:RDF>
      <cc:Work
         rdf:about="">
        <dc:title>Partition sans titre</dc:title>
      </cc:Work>
    </rdf:RDF>
  </metadata>
  <polyline
     class="BarLine"
     fill="none"
     stroke="#000000"
     stroke-width="4.46"
     stroke-linejoin="bevel"
     points="2691.89,1190.83 2691.89,1292.76"
     id="polyline54-3"
     transform="matrix(1.2228085,0,0,3.4861516,-2835.454,-3459.9999)" />
  <polyline
     class="BarLine"
     fill="none"
     stroke="#000000"
     stroke-width="4.46"
     stroke-linejoin="bevel"
     points="2691.89,1190.83 2691.89,1292.76"
     id="polyline54-6"
     transform="matrix(-0.87278916,0,0,1.8000732,3699.592,-319.43864)" />
  <polyline
     class="BarLine"
     fill="none"
     stroke="#000000"
     stroke-width="4.46"
     stroke-linejoin="bevel"
     points="2691.89,1190.83 2691.89,1292.76"
     id="polyline54-7"
     transform="matrix(0.87278916,0,0,1.8000732,-1342.7331,434.61358)" />
</svg>
