<?xml version="1.0" encoding="UTF-8" standalone="no"?>
<svg
   width="297mm"
   height="210mm"
   viewBox="0 0 4209.4489 2976.378"
   version="1.2"
   id="svg298"
   sodipodi:docname="ex_rythmique_croche_02.svg"
   inkscape:version="1.2.2 (b0a8486541, 2022-12-01)"
   xmlns:inkscape="http://www.inkscape.org/namespaces/inkscape"
   xmlns:sodipodi="http://sodipodi.sourceforge.net/DTD/sodipodi-0.dtd"
   xmlns="http://www.w3.org/2000/svg"
   xmlns:svg="http://www.w3.org/2000/svg"
   xmlns:rdf="http://www.w3.org/1999/02/22-rdf-syntax-ns#"
   xmlns:cc="http://creativecommons.org/ns#"
   xmlns:dc="http://purl.org/dc/elements/1.1/">
  <defs
     id="defs302" />
  <sodipodi:namedview
     id="namedview300"
     pagecolor="#ffffff"
     bordercolor="#000000"
     borderopacity="0.25"
     inkscape:showpageshadow="2"
     inkscape:pageopacity="0.0"
     inkscape:pagecheckerboard="0"
     inkscape:deskcolor="#d1d1d1"
     inkscape:document-units="mm"
     showgrid="false"
     inkscape:zoom="0.34128173"
     inkscape:cx="489.33179"
     inkscape:cy="328.17462"
     inkscape:window-width="1104"
     inkscape:window-height="552"
     inkscape:window-x="0"
     inkscape:window-y="32"
     inkscape:window-maximized="1"
     inkscape:current-layer="svg298" />
  <title
     id="title2">ex_rythmique_croche_02</title>
  <desc
     id="desc4">Generated by MuseScore Studio 4.5.2</desc>
  <polyline
     class="StaffLines"
     fill="none"
     stroke="#000000"
     stroke-width="2.73"
     stroke-linejoin="bevel"
     points="336.598,634.198 2764.6,634.198"
     id="polyline6"
     transform="matrix(1.5232261,0,0,1.4838441,-153.82132,-163.72085)" />
  <polyline
     class="StaffLines"
     fill="none"
     stroke="#000000"
     stroke-width="2.73"
     stroke-linejoin="bevel"
     points="336.598,658.998 2764.6,658.998"
     id="polyline8"
     transform="matrix(1.5232261,0,0,1.4838441,-153.82132,-163.72085)" />
  <polyline
     class="StaffLines"
     fill="none"
     stroke="#000000"
     stroke-width="2.73"
     stroke-linejoin="bevel"
     points="336.598,683.798 2764.6,683.798"
     id="polyline10"
     transform="matrix(1.5232261,0,0,1.4838441,-153.82132,-163.72085)" />
  <polyline
     class="StaffLines"
     fill="none"
     stroke="#000000"
     stroke-width="2.73"
     stroke-linejoin="bevel"
     points="336.598,708.598 2764.6,708.598"
     id="polyline12"
     transform="matrix(1.5232261,0,0,1.4838441,-153.82132,-163.72085)" />
  <polyline
     class="StaffLines"
     fill="none"
     stroke="#000000"
     stroke-width="2.73"
     stroke-linejoin="bevel"
     points="336.598,733.398 2764.6,733.398"
     id="polyline14"
     transform="matrix(1.5232261,0,0,1.4838441,-153.82132,-163.72085)" />
  <polyline
     class="StaffLines"
     fill="none"
     stroke="#000000"
     stroke-width="2.73"
     stroke-linejoin="bevel"
     points="212.598,1241.8 2764.6,1241.8"
     id="polyline16"
     transform="matrix(1.5232261,0,0,1.4838441,-153.82132,-163.72085)" />
  <polyline
     class="StaffLines"
     fill="none"
     stroke="#000000"
     stroke-width="2.73"
     stroke-linejoin="bevel"
     points="212.598,1266.6 2764.6,1266.6"
     id="polyline18"
     transform="matrix(1.5232261,0,0,1.4838441,-153.82132,-163.72085)" />
  <polyline
     class="StaffLines"
     fill="none"
     stroke="#000000"
     stroke-width="2.73"
     stroke-linejoin="bevel"
     points="212.598,1291.4 2764.6,1291.4"
     id="polyline20"
     transform="matrix(1.5232261,0,0,1.4838441,-153.82132,-163.72085)" />
  <polyline
     class="StaffLines"
     fill="none"
     stroke="#000000"
     stroke-width="2.73"
     stroke-linejoin="bevel"
     points="212.598,1316.2 2764.6,1316.2"
     id="polyline22"
     transform="matrix(1.5232261,0,0,1.4838441,-153.82132,-163.72085)" />
  <polyline
     class="StaffLines"
     fill="none"
     stroke="#000000"
     stroke-width="2.73"
     stroke-linejoin="bevel"
     points="212.598,1341 2764.6,1341"
     id="polyline24"
     transform="matrix(1.5232261,0,0,1.4838441,-153.82132,-163.72085)" />
  <polyline
     class="StaffLines"
     fill="none"
     stroke="#000000"
     stroke-width="2.73"
     stroke-linejoin="bevel"
     points="212.598,1849.4 2764.6,1849.4"
     id="polyline26"
     transform="matrix(1.5232261,0,0,1.4838441,-153.82132,-163.72085)" />
  <polyline
     class="StaffLines"
     fill="none"
     stroke="#000000"
     stroke-width="2.73"
     stroke-linejoin="bevel"
     points="212.598,1874.2 2764.6,1874.2"
     id="polyline28"
     transform="matrix(1.5232261,0,0,1.4838441,-153.82132,-163.72085)" />
  <polyline
     class="StaffLines"
     fill="none"
     stroke="#000000"
     stroke-width="2.73"
     stroke-linejoin="bevel"
     points="212.598,1899 2764.6,1899"
     id="polyline30"
     transform="matrix(1.5232261,0,0,1.4838441,-153.82132,-163.72085)" />
  <polyline
     class="StaffLines"
     fill="none"
     stroke="#000000"
     stroke-width="2.73"
     stroke-linejoin="bevel"
     points="212.598,1923.8 2764.6,1923.8"
     id="polyline32"
     transform="matrix(1.5232261,0,0,1.4838441,-153.82132,-163.72085)" />
  <polyline
     class="StaffLines"
     fill="none"
     stroke="#000000"
     stroke-width="2.73"
     stroke-linejoin="bevel"
     points="212.598,1948.6 2764.6,1948.6"
     id="polyline34"
     transform="matrix(1.5232261,0,0,1.4838441,-153.82132,-163.72085)" />
  <path
     class="Text"
     d="m 1122.4823,155.56826 h -100.699 v 7.67295 h 3.0221 c 9.5445,0.16323 12.7342,0.64993 14.067,2.29551 0.9992,1.46159 0.9992,1.78506 0.9992,10.10943 v 77.69259 c 0,8.32437 0,8.64784 -0.9992,10.13169 -1.3328,1.62332 -4.5225,2.27325 -14.067,2.27325 h -3.0221 v 7.67296 h 102.8894 l 3.3556,-43.58792 h -7.3785 c -6.3777,29.05218 -13.2322,35.26503 -38.8895,35.91496 h -11.0434 c -10.067,-0.32496 -12.5666,-1.94829 -12.067,-7.83767 v -41.61737 h 3.3557 c 17.2551,-0.64844 23.444,5.37893 24.134,23.51002 h 7.8538 v -53.53412 h -7.8538 c -1.0236,15.99732 -7.5445,22.35114 -23.4668,22.35114 h -4.0229 v -37.21332 c -0.166,-6.86278 1.4989,-7.99792 10.5438,-8.16115 h 8.7342 c 27.4668,-0.16174 34.3442,5.7039 39.6998,33.94294 h 7.211 l -2.3564,-41.61589 m 67.1651,76.23248 19.1119,-21.72496 c 4.1889,-4.73049 8.0442,-6.83903 12.5666,-6.83903 h 1.4989 v -5.88938 h -34.6763 v 5.88938 h 3.1882 c 5.022,0 7.546,1.13514 7.546,3.59238 0,1.62333 -1.1911,3.91883 -3.3572,6.51556 l -10.5666,12.40345 -12.9002,-15.99732 c -0.9992,-1.29836 -1.6664,-2.59673 -1.6664,-3.57013 0,-2.13376 2.166,-2.94394 7.3785,-2.94394 h 2.3321 v -5.88938 h -39.6984 v 5.88938 c 6.1874,0.4867 8.5438,1.9468 13.8995,8.80958 l 20.4447,24.97013 -19.2779,21.86444 c -5.6893,6.21285 -10.5438,8.83332 -15.0663,8.6701 h -1.0236 v 5.86564 h 35.3678 V 267.551 h -2.5224 c -3.8569,0 -4.6901,-0.16174 -5.8553,-0.67218 -1.3572,-0.81166 -2.3565,-2.27177 -2.3565,-3.75561 0,-1.13663 0.4997,-2.59673 1.3572,-3.57013 l 14.0655,-16.32228 12.7327,16.48402 c 1.1667,1.62332 2.166,3.75561 2.166,4.89223 0,2.11003 -2.4981,2.94395 -8.8774,2.94395 h -1.1668 v 5.86564 h 42.2223 V 267.551 h -1.1652 c -5.8797,0 -9.7106,-2.13228 -14.591,-7.99792 l -21.1104,-27.75234 m 112.2663,4.89075 c 0.1676,-24.48342 -14.0898,-41.77911 -34.5346,-41.77911 -21.4439,0 -37.5322,18.10735 -37.5322,42.59078 0,23.02332 15.2551,38.37221 37.8658,38.37221 16.0899,0 27.3237,-7.67445 34.201,-23.18507 l -5.8781,-3.10717 c -6.8545,12.56668 -13.8994,17.45891 -25.1332,17.45891 -8.5453,0 -14.7327,-3.40839 -19.0876,-10.75787 -3.0236,-4.89223 -4.3564,-10.61987 -4.1888,-19.59268 h 54.2877 m -54.1217,-7.02451 c 0,-11.43005 5.3556,-27.75234 19.4211,-27.75234 10.067,0 16.7555,8.67159 16.7555,21.8867 0,4.56727 -1.4989,5.86564 -6.8545,5.86564 h -29.3221 m 93.1316,-32.31961 -29.6557,1.80881 v 7.02451 h 6.8545 c 6.3777,0.16174 7.2109,1.13663 7.2109,8.16115 v 46.67134 c -0.166,2.45725 -0.3336,3.43213 -0.9992,4.24231 -1.1668,1.46159 -4.5225,2.13377 -11.7334,2.29551 h -0.6672 v 5.86564 h 44.7448 V 267.551 h -3.0221 c -11.2338,-0.34722 -12.7326,-1.15888 -12.7326,-7.02452 v -8.81106 c 0.166,-27.42738 10.2101,-48.31693 23.2764,-48.96686 -2.3321,2.59673 -2.9993,4.2438 -2.9993,7.32722 0,5.23946 3.8553,8.99507 9.2095,8.99507 6.1843,0 10.2056,-4.40405 10.2056,-10.94335 0,-7.99792 -5.6817,-13.21512 -14.559,-13.21512 -10.5682,0 -19.6116,8.16114 -25.1332,22.67462 v -20.23963 m 105.1757,52.07402 c -5.3618,11.75353 -11.0434,16.48403 -19.7563,16.48403 -13.4044,0 -21.7821,-11.91676 -21.7821,-30.99899 0,-19.91615 8.2102,-32.99179 20.594,-32.99179 5.0419,0 9.3983,2.29551 9.3983,4.91449 0,0.48819 -0.1675,0.97489 -1.0205,1.94829 -2.6657,3.10717 -3.3359,4.72901 -3.3359,7.51122 0,5.37893 4.1889,9.13603 10.038,9.13603 6.0473,0 10.2361,-4.56728 10.2361,-11.08283 0,-11.10509 -11.2261,-19.42946 -26.1538,-19.42946 -21.7821,0 -37.3647,17.29569 -37.3647,41.77911 0,23.18507 14.2574,39.18388 35.0342,39.18388 14.8971,0 23.4424,-6.70105 30.6625,-23.99673 l -6.5498,-2.45725 m 36.1766,-92.71799 c -5.3618,0 -9.7182,4.24379 -9.7182,9.48324 0,5.21572 4.3564,9.45951 9.5506,9.45951 5.5446,0 9.901,-4.24379 9.901,-9.45951 0,-5.23945 -4.3564,-9.48324 -9.7334,-9.48324 m 7.8751,40.64397 -31.4851,1.80881 v 7.02451 h 8.5453 c 6.3518,0.16174 7.1896,1.13663 7.1896,8.16115 v 46.67134 c -0.1675,2.45725 -0.3351,3.43213 -1.0053,4.24231 -1.1729,1.46159 -4.3564,2.13377 -11.5613,2.29551 h -1.1729 v 5.86564 h 43.412 V 267.551 h -1.1882 c -11.2109,-0.34722 -12.7341,-1.15888 -12.7341,-7.02452 v -63.17911 m 83.092,52.07402 c -5.3618,11.75353 -11.0434,16.48403 -19.7563,16.48403 -13.4044,0 -21.7821,-11.91676 -21.7821,-30.99899 0,-19.91615 8.2102,-32.99179 20.594,-32.99179 5.0419,0 9.3983,2.29551 9.3983,4.91449 0,0.48819 -0.1676,0.97489 -1.0206,1.94829 -2.6656,3.10717 -3.3358,4.72901 -3.3358,7.51122 0,5.37893 4.1888,9.13603 10.038,9.13603 6.0472,0 10.2361,-4.56728 10.2361,-11.08283 0,-11.10509 -11.2262,-19.42946 -26.1538,-19.42946 -21.7821,0 -37.3647,17.29569 -37.3647,41.77911 0,23.18507 14.2574,39.18388 35.0342,39.18388 14.8971,0 23.4424,-6.70105 30.6473,-23.99673 l -6.5346,-2.45725 m 87.4636,-12.7299 c 0.1676,-24.48342 -14.0898,-41.77911 -34.5315,-41.77911 -21.4471,0 -37.5323,18.10735 -37.5323,42.59078 0,23.02332 15.2475,38.37221 37.8674,38.37221 16.0852,0 27.3114,-7.67445 34.1964,-23.18507 l -5.8797,-3.10717 c -6.8545,12.56668 -13.907,17.45891 -25.1332,17.45891 -8.5453,0 -14.7296,-3.40839 -19.086,-10.75787 -3.0312,-4.89223 -4.3564,-10.61987 -4.1889,-19.59268 h 54.2878 m -54.1202,-7.02451 c 0,-11.43005 5.3465,-27.75234 19.4211,-27.75234 10.0685,0 16.7555,8.67159 16.7555,21.8867 0,4.56727 -1.508,5.86564 -6.8545,5.86564 h -29.3221 m 139.7103,-32.31961 -29.6572,1.80881 v 7.02451 h 6.8545 c 6.3823,0.16174 7.2048,1.13663 7.2048,8.16115 v 46.67134 c -0.1675,2.45725 -0.3351,3.43213 -0.9901,4.24231 -1.1728,1.46159 -4.5239,2.13377 -11.744,2.29551 h -0.655 v 5.86564 h 44.7371 V 267.551 h -3.016 c -11.2414,-0.34722 -12.7341,-1.15888 -12.7341,-7.02452 v -8.81106 c 0.1675,-27.42738 10.2056,-48.31693 23.2749,-48.96686 -2.3306,2.59673 -3.0008,4.2438 -3.0008,7.32722 0,5.23946 3.8538,8.99507 9.2155,8.99507 6.1843,0 10.2057,-4.40405 10.2057,-10.94335 0,-7.99792 -5.6969,-13.21512 -14.5621,-13.21512 -10.5712,0 -19.6191,8.16114 -25.1332,22.67462 v -20.23963 m 94.6228,55.34293 -18.4158,-41.94234 c -0.7007,-1.64558 -1.0206,-2.45724 -1.0206,-3.2689 0,-3.10717 2.0107,-4.24231 7.7075,-4.24231 h 3.5187 v -5.88938 h -39.8628 v 5.88938 h 1.8278 c 5.6969,0.16174 7.8751,1.78506 11.409,8.80958 l 27.2962,60.23516 -2.8332,5.70391 c -6.0472,12.40345 -13.9223,21.05129 -19.284,21.05129 -1.4928,0 -2.6809,-0.64844 -2.6809,-1.62332 0,-0.32348 0.1675,-0.81167 0.3351,-1.46011 0.4874,-1.48384 0.853,-2.94394 0.853,-4.26605 0,-4.24231 -3.5186,-7.32722 -8.5453,-7.32722 -5.8796,0 -10.0685,4.24379 -10.0685,10.10943 0,7.34948 6.3823,12.56668 15.2627,12.56668 8.8652,0 16.4204,-4.2438 23.1074,-13.05338 5.2094,-6.70104 8.5453,-13.54008 15.9177,-31.34621 l 19.1165,-46.18465 c 3.8537,-9.4595 7.5095,-13.05337 14.0593,-13.21511 h 1.0054 v -5.88938 h -33.511 v 5.88938 h 2.6809 c 6.367,0 9.0479,1.78506 9.0479,6.02737 0,1.80881 -0.5026,3.75561 -1.6603,6.53782 l -15.2627,36.88836 m 72.2161,-55.34293 v -32.31961 h -6.8849 c -1.6604,21.23678 -9.048,31.99465 -22.6047,32.99179 v 6.35234 h 13.7242 v 41.61737 c 0,11.43005 0.3352,15.51062 2.0107,19.26623 2.6809,6.86278 9.3983,10.61988 19.1013,10.61988 15.0951,0 24.7981,-11.10658 24.7981,-28.40226 0,-0.99715 0,-2.13229 -0.1523,-3.75561 h -7.0526 c -0.5026,14.67521 -4.8591,22.18792 -13.0693,22.18792 -3.8537,0 -7.2048,-1.94829 -8.3777,-4.7305 -0.9901,-2.29402 -1.4928,-6.37459 -1.4928,-12.24171 v -44.56132 h 24.6306 v -7.02452 h -24.6306 m 65.971,-44.23784 -30.9825,1.8088 v 7.02452 h 8.0427 c 6.3518,0.16322 7.1896,1.13662 7.1896,8.16114 v 91.07093 c -0.1676,2.29551 -0.3351,3.27039 -1.0053,4.08057 -1.1729,1.46159 -4.3565,2.13377 -11.5613,2.29551 h -0.6702 v 5.86564 h 42.3913 V 267.551 h -0.6702 c -11.2414,-0.34722 -12.7341,-1.15888 -12.7341,-7.02452 v -24.15846 c 0,-7.99941 1.1728,-15.34889 3.0159,-19.1045 3.7015,-7.34948 11.0434,-12.40493 18.2635,-12.40493 4.3565,0 9.3831,2.45873 11.7289,5.72764 2.6961,3.57012 3.8537,8.48462 3.8537,16.48402 v 34.10467 c -0.1675,2.29551 -0.3351,3.27039 -0.9901,4.08057 -1.1881,1.46159 -4.5544,2.13377 -11.744,2.29551 h -0.655 v 5.86564 h 42.3761 V 267.551 h -0.655 c -11.0738,-0.34722 -12.5666,-1.15888 -12.5666,-7.02452 v -32.80631 c 0,-11.75501 -0.5331,-14.70044 -3.5339,-20.24111 -4.1888,-7.99941 -12.5666,-12.56668 -22.6199,-12.56668 -10.891,0 -18.9337,4.7305 -26.4736,15.67385 v -57.4767 m 102.5283,44.23784 -29.8248,1.80881 v 7.02451 h 6.885 c 6.3519,0.16174 7.1897,1.13663 7.1897,8.16115 v 46.67134 c -0.1676,2.45725 -0.3352,3.43213 -1.0054,4.24231 -1.1576,1.46159 -4.3564,2.13377 -11.5613,2.29551 h -0.6702 v 5.86564 h 42.2238 V 267.551 h -0.6702 c -11.0586,-0.34722 -12.5666,-1.15888 -12.5666,-7.18626 v -30.21106 c 0,-14.51348 8.2102,-25.29509 19.1165,-25.29509 9.5506,0 14.3945,6.70104 14.3945,19.91615 v 36.40018 c -0.1676,2.13377 -0.3351,3.27039 -1.1577,4.08057 -1.0053,1.46159 -4.3564,2.13377 -11.5765,2.29551 h -0.655 v 5.86564 h 42.3762 V 267.551 h -0.655 c -11.0739,-0.34722 -12.5666,-1.15888 -12.5666,-7.02452 v -28.88896 c 0,-16.32228 7.5399,-26.77893 19.2536,-26.77893 9.5658,0 14.2573,7.026 14.2573,21.72496 v 34.42963 c -0.1675,2.29551 -0.3351,3.43213 -1.1728,4.24231 -1.0206,1.46159 -4.3565,2.13377 -11.5613,2.29551 h -0.6702 v 5.86564 h 42.3913 V 267.551 h -0.6702 c -11.0738,-0.34722 -12.5666,-1.15888 -12.5666,-7.18626 v -37.0501 c 0,-10.13169 -1.0206,-13.56382 -5.377,-19.10449 -4.8591,-6.02886 -11.7136,-9.29777 -19.7562,-9.29777 -10.9063,0 -18.949,5.05397 -26.1538,16.32229 -2.8332,-9.80673 -11.8964,-16.32229 -23.1074,-16.32229 -10.236,0 -17.5932,4.7305 -24.1431,15.00166 v -12.56667 m 141.9038,-40.64397 c -5.3618,0 -9.7182,4.24379 -9.7182,9.48324 0,5.21572 4.3564,9.45951 9.5506,9.45951 5.5445,0 9.901,-4.24379 9.901,-9.45951 0,-5.23945 -4.3565,-9.48324 -9.7334,-9.48324 m 7.875,40.64397 -31.485,1.80881 v 7.02451 h 8.5452 c 6.3519,0.16174 7.1897,1.13663 7.1897,8.16115 v 46.67134 c -0.1676,2.45725 -0.3351,3.43213 -1.0054,4.24231 -1.1576,1.46159 -4.3564,2.13377 -11.5612,2.29551 h -1.1729 v 5.86564 h 43.4119 V 267.551 h -1.1881 c -11.2109,-0.34722 -12.7342,-1.15888 -12.7342,-7.02452 v -63.17911 m 93.4957,0 -7.8904,11.10509 c -6.7022,-9.13455 -14.8971,-13.54008 -25.4531,-13.54008 -20.4569,0 -35.8719,18.10735 -35.8719,42.2673 0,22.3734 14.4249,38.69569 34.0288,38.69569 10.3732,0 16.0701,-2.94544 22.7875,-11.91824 v 30.18733 c -0.1676,2.29551 -0.3351,3.26891 -1.0053,4.08057 -1.1882,1.46159 -4.3565,2.13377 -11.7289,2.29551 h -1.8431 v 5.86563 h 43.5643 v -5.86563 h -0.6702 c -11.0739,-0.32497 -12.5666,-1.15889 -12.5666,-7.02452 v -70.50634 c 0.1675,-9.32003 0.1675,-9.96995 0.1675,-11.75501 0.3351,-3.10717 0.8378,-5.4012 2.6657,-13.8873 h -6.1843 m -31.8507,4.56727 c 6.7174,0 12.7342,4.26605 15.9177,11.10509 2.5286,5.40268 3.5339,11.10657 3.5339,20.56608 0,22.3734 -6.3823,33.45623 -19.4516,33.45623 -12.5666,0 -19.7562,-11.24605 -19.7562,-30.83725 0,-23.02184 6.5194,-34.29015 19.7562,-34.29015 m 116.603,72.63863 30.5102,-1.13663 v -7.02452 h -4.1889 c -9.7334,-0.32496 -10.5712,-1.29837 -10.5712,-11.91675 v -57.128 l -31.4851,1.80881 v 7.02451 h 8.5453 c 6.3519,0.16174 7.1897,1.13663 7.1897,8.16115 v 20.05563 c 0,14.21226 -3.5035,31.50795 -21.9497,31.50795 -5.1942,0 -9.5507,-1.78507 -11.7289,-5.05398 -2.163,-3.10717 -2.4981,-4.73049 -2.4981,-13.7033 v -49.80077 l -29.3221,1.80881 v 7.02451 h 6.3519 c 6.3823,0.16174 7.2048,1.13663 7.2048,8.16115 v 35.24129 c 0,8.32288 0.6703,12.07998 3.1988,15.83559 4.524,6.69955 12.5666,10.45665 22.6047,10.45665 11.0739,0 18.7814,-4.40554 26.1386,-14.86219 v 13.54009 m 111.2564,-37.86178 c 0.1675,-24.48342 -14.0898,-41.77911 -34.5315,-41.77911 -21.4471,0 -37.5323,18.10735 -37.5323,42.59078 0,23.02332 15.2627,38.37221 37.8674,38.37221 16.0852,0 27.3266,-7.67445 34.1964,-23.18507 l -5.8797,-3.10717 c -6.8545,12.56668 -13.8918,17.45891 -25.1332,17.45891 -8.5453,0 -14.7296,-3.40839 -19.086,-10.75787 -3.016,-4.89223 -4.3564,-10.61987 -4.1889,-19.59268 h 54.2878 m -54.1202,-7.02451 c 0,-11.43005 5.3617,-27.75234 19.4211,-27.75234 10.0685,0 16.7555,8.67159 16.7555,21.8867 0,4.56727 -1.4928,5.86564 -6.8545,5.86564 h -29.3221 m 171.3629,19.75441 c -5.3465,11.75353 -11.0434,16.48403 -19.7562,16.48403 -13.3892,0 -21.7669,-11.91676 -21.7669,-30.99899 0,-19.91615 8.2102,-32.99179 20.5787,-32.99179 5.0419,0 9.3984,2.29551 9.3984,4.91449 0,0.48819 -0.1676,0.97489 -1.0206,1.94829 -2.6657,3.10717 -3.3359,4.72901 -3.3359,7.51122 0,5.37893 4.1889,9.13603 10.0533,9.13603 6.0472,0 10.2361,-4.56728 10.2361,-11.08283 0,-11.10509 -11.2414,-19.42946 -26.1538,-19.42946 -21.7821,0 -37.38,17.29569 -37.38,41.77911 0,23.18507 14.2574,39.18388 35.0342,39.18388 14.9124,0 23.4425,-6.70105 30.6626,-23.99673 l -6.5499,-2.45725 m 42.7265,-52.07402 -29.6572,1.80881 v 7.02451 h 6.8545 c 6.3823,0.16174 7.2049,1.13663 7.2049,8.16115 v 46.67134 c -0.1524,2.45725 -0.3199,3.43213 -0.9901,4.24231 -1.1729,1.46159 -4.524,2.13377 -11.7289,2.29551 h -0.6702 v 5.86564 h 44.7372 V 267.551 h -3.016 c -11.2414,-0.34722 -12.7342,-1.15888 -12.7342,-7.02452 v -8.81106 c 0.1676,-27.42738 10.2056,-48.31693 23.2749,-48.96686 -2.3305,2.59673 -3.0008,4.2438 -3.0008,7.32722 0,5.23946 3.8538,8.99507 9.2156,8.99507 6.1843,0 10.2056,-4.40405 10.2056,-10.94335 0,-7.99792 -5.6817,-13.21512 -14.5621,-13.21512 -10.5712,0 -19.6191,8.16114 -25.1332,22.67462 v -20.23963 m 82.5589,-2.43499 c -20.6093,0 -36.527,17.78387 -36.527,40.64397 0,22.34966 16.0853,40.31902 36.1918,40.31902 20.1219,0 36.2071,-17.96936 36.2071,-40.48224 0,-22.3734 -16.0852,-40.48075 -35.8719,-40.48075 m 0,7.00226 c 11.744,0 18.2634,11.91675 18.2634,33.47849 0,21.70122 -6.5194,33.45623 -18.5986,33.45623 -12.0639,0 -18.5833,-11.75501 -18.5833,-33.29301 0,-22.21166 6.3518,-33.64171 18.9185,-33.64171 m 106.3668,47.50675 c -5.3617,11.75353 -11.0434,16.48403 -19.7562,16.48403 -13.4044,0 -21.7821,-11.91676 -21.7821,-30.99899 0,-19.91615 8.2254,-32.99179 20.594,-32.99179 5.0419,0 9.3983,2.29551 9.3983,4.91449 0,0.48819 -0.1676,0.97489 -1.0206,1.94829 -2.6656,3.10717 -3.3358,4.72901 -3.3358,7.51122 0,5.37893 4.1888,9.13603 10.0532,9.13603 6.0473,0 10.2361,-4.56728 10.2361,-11.08283 0,-11.10509 -11.2414,-19.42946 -26.169,-19.42946 -21.7669,0 -37.3647,17.29569 -37.3647,41.77911 0,23.18507 14.2574,39.18388 35.0342,39.18388 14.8971,0 23.4424,-6.70105 30.6625,-23.99673 l -6.5499,-2.45725 m 41.2033,-96.31186 -30.9976,1.8088 v 7.02452 h 8.0426 c 6.3671,0.16322 7.1896,1.13662 7.1896,8.16114 v 91.07093 c -0.1675,2.29551 -0.3351,3.27039 -0.9901,4.08057 -1.1729,1.46159 -4.3564,2.13377 -11.5765,2.29551 h -0.655 v 5.86564 h 42.3762 V 267.551 h -0.655 c -11.2414,-0.34722 -12.7342,-1.15888 -12.7342,-7.02452 v -24.15846 c 0,-7.99941 1.1577,-15.34889 3.016,-19.1045 3.6862,-7.34948 11.0434,-12.40493 18.2635,-12.40493 4.3564,0 9.3678,2.45873 11.7288,5.72764 2.6809,3.57012 3.8538,8.48462 3.8538,16.48402 v 34.10467 c -0.1676,2.29551 -0.3351,3.27039 -1.0054,4.08057 -1.1881,1.46159 -4.5392,2.13377 -11.7288,2.29551 h -0.6702 v 5.86564 h 42.3914 V 267.551 h -0.6703 c -11.0586,-0.34722 -12.5666,-1.15888 -12.5666,-7.02452 v -32.80631 c 0,-11.75501 -0.5179,-14.70044 -3.5186,-20.24111 -4.1889,-7.99941 -12.5666,-12.56668 -22.6352,-12.56668 -10.8758,0 -18.9184,4.7305 -26.4584,15.67385 v -57.4767 m 146.7781,83.58196 c 0.1675,-24.48342 -14.0899,-41.77911 -34.5468,-41.77911 -21.4318,0 -37.5323,18.10735 -37.5323,42.59078 0,23.02332 15.2627,38.37221 37.8674,38.37221 16.1005,0 27.3267,-7.67445 34.2117,-23.18507 l -5.8797,-3.10717 c -6.8545,12.56668 -13.907,17.45891 -25.1332,17.45891 -8.5453,0 -14.7296,-3.40839 -19.086,-10.75787 -3.0313,-4.89223 -4.3565,-10.61987 -4.1889,-19.59268 h 54.2878 m -54.1203,-7.02451 c 0,-11.43005 5.3466,-27.75234 19.4212,-27.75234 10.0533,0 16.7555,8.67159 16.7555,21.8867 0,4.56727 -1.508,5.86564 -6.8545,5.86564 h -29.3222 m 191.1345,8.4861 h -7.3725 l -1.6755,8.32288 c -2.163,10.61839 -3.5187,11.59328 -13.8918,11.59328 h -37.5323 c 11.5613,-11.75502 15.3998,-15.16341 26.1233,-23.32455 15.2627,-11.43005 21.7821,-17.15769 25.6359,-22.04844 5.3618,-7.18774 8.0426,-14.35174 8.0426,-22.35114 0,-18.61779 -15.7501,-31.83291 -37.6998,-31.83291 -21.2795,0 -37.5323,13.21512 -37.5323,30.67403 0,10.29342 5.3618,17.31942 13.2368,17.31942 6.2148,0 10.4037,-4.08057 10.4037,-9.96994 0,-4.08057 -2.361,-7.83618 -5.8797,-9.29777 -6.1843,-2.45725 -6.5194,-2.78221 -6.5194,-4.89223 0,-2.45725 1.6603,-6.21286 4.0213,-8.99507 4.1889,-5.05397 11.0434,-7.81392 18.9185,-7.81392 13.9223,0 22.1325,8.32437 22.1325,22.02618 0,12.07998 -5.8797,23.02333 -19.7715,37.37507 -12.3991,12.72841 -20.1218,20.72633 -22.9702,23.8335 -6.032,6.86278 -9.048,10.61839 -16.4204,20.07789 v 4.56728 h 75.5672 l 3.1836,-35.26356"
     id="path36"
     style="stroke-width:1.50341" />
  <path
     class="MeasureNumber"
     d="m 192.91064,2484.9408 c 4.76009,-2.1961 9.21095,-4.6296 9.21095,-10.565 0,-5.4012 -4.69001,-9.2592 -11.21094,-9.2592 -7.85376,0 -13.94666,5.5199 -13.94666,12.7017 0,3.6206 1.2856,5.9354 4.56968,8.265 -7.18811,2.6561 -11.04339,7.0038 -11.04339,12.405 0,5.7424 4.87889,9.2888 12.68543,9.2888 9.37698,0 16.08983,-5.5644 16.08983,-13.2804 0,-4.6889 -2.61842,-7.1818 -6.3549,-9.5559 m -2.61842,-1.4097 c -6.21172,-2.849 -8.44934,-5.1786 -8.44934,-8.5618 0,-4.0954 3.76085,-7.3005 8.56815,-7.3005 4.21324,0 7.14088,2.6264 7.14088,6.3509 0,4.4515 -3.16678,7.9534 -7.25969,9.5114 m -6.44934,4.1548 c 2.92612,1.2909 3.9025,1.7509 5.42573,2.656 3.04645,1.7955 4.68849,4.1548 4.68849,6.8257 0,4.5554 -4.37927,8.0128 -10.11422,8.0128 -5.18963,0 -8.40212,-2.849 -8.40212,-7.4192 0,-4.4516 2.92764,-7.9534 8.40212,-10.0753"
     id="path38"
     style="stroke-width:1.50341" />
  <path
     class="MeasureNumber"
     d="m 202.74002,1563.3104 h -3.30845 l -28.37008,28.6085 v 2.478 h 17.16066 l -0.97638,3.6206 c -1.21402,4.5109 -1.21402,4.5109 -6.52094,4.5109 h -1.09519 l -0.35644,2.7896 h 18.94436 l 0.30922,-2.7896 h -1.0952 c -4.02132,0 -4.87889,-0.2968 -4.87889,-1.5877 0,-0.4897 0.11881,-1.0684 0.61995,-2.9232 l 1.02208,-3.6206 h 6.95048 l 0.9048,-3.2051 h -6.9977 l 7.68772,-27.8814 m -13.59022,27.8814 h -13.66182 l 18.82708,-18.8745 -5.16526,18.8745"
     id="path40"
     style="stroke-width:1.50341" />
  <polyline
     class="BarLine"
     fill="none"
     stroke="#000000"
     stroke-width="4.46"
     stroke-linejoin="bevel"
     points="2739.55,1848.03 2739.55,1949.96"
     id="polyline42"
     transform="matrix(1.5232261,0,0,1.4838441,-153.82132,-163.72085)" />
  <polyline
     class="BarLine"
     fill="none"
     stroke="#000000"
     stroke-width="13.64"
     stroke-linejoin="bevel"
     points="2757.78,1848.03 2757.78,1949.96"
     id="polyline44"
     transform="matrix(1.5232261,0,0,1.4838441,-153.82132,-163.72085)" />
  <polyline
     class="BarLine"
     fill="none"
     stroke="#000000"
     stroke-width="4.46"
     stroke-linejoin="bevel"
     points="1924.18,1848.03 1924.18,1949.96"
     id="polyline46"
     transform="matrix(1.5232261,0,0,1.4838441,-153.82132,-163.72085)" />
  <polyline
     class="BarLine"
     fill="none"
     stroke="#000000"
     stroke-width="4.46"
     stroke-linejoin="bevel"
     points="1138.81,1848.03 1138.81,1949.96"
     id="polyline48"
     transform="matrix(1.5232261,0,0,1.4838441,-153.82132,-163.72085)" />
  <polyline
     class="BarLine"
     fill="none"
     stroke="#000000"
     stroke-width="4.46"
     stroke-linejoin="bevel"
     points="2762.37,1240.43 2762.37,1342.36"
     id="polyline50"
     transform="matrix(1.5232261,0,0,1.4838441,-153.82132,-163.72085)" />
  <polyline
     class="BarLine"
     fill="none"
     stroke="#000000"
     stroke-width="4.46"
     stroke-linejoin="bevel"
     points="1993.8,1240.43 1993.8,1342.36"
     id="polyline52"
     transform="matrix(1.5232261,0,0,1.4838441,-153.82132,-163.72085)" />
  <polyline
     class="BarLine"
     fill="none"
     stroke="#000000"
     stroke-width="4.46"
     stroke-linejoin="bevel"
     points="1518.47,1240.43 1518.47,1342.36"
     id="polyline54"
     transform="matrix(1.5232261,0,0,1.4838441,-153.82132,-163.72085)" />
  <polyline
     class="BarLine"
     fill="none"
     stroke="#000000"
     stroke-width="4.46"
     stroke-linejoin="bevel"
     points="920.953,1240.43 920.953,1342.36"
     id="polyline56"
     transform="matrix(1.5232261,0,0,1.4838441,-153.82132,-163.72085)" />
  <polyline
     class="BarLine"
     fill="none"
     stroke="#000000"
     stroke-width="4.46"
     stroke-linejoin="bevel"
     points="2762.37,632.834 2762.37,734.762"
     id="polyline58"
     transform="matrix(1.5232261,0,0,1.4838441,-153.82132,-163.72085)" />
  <polyline
     class="BarLine"
     fill="none"
     stroke="#000000"
     stroke-width="4.46"
     stroke-linejoin="bevel"
     points="2009.01,632.834 2009.01,734.762"
     id="polyline60"
     transform="matrix(1.5232261,0,0,1.4838441,-153.82132,-163.72085)" />
  <polyline
     class="BarLine"
     fill="none"
     stroke="#000000"
     stroke-width="4.46"
     stroke-linejoin="bevel"
     points="1255.65,632.834 1255.65,734.762"
     id="polyline62"
     transform="matrix(1.5232261,0,0,1.4838441,-153.82132,-163.72085)" />
  <polyline
     class="Stem"
     fill="none"
     stroke="#000000"
     stroke-width="2.48"
     stroke-linejoin="bevel"
     points="1102.05,1295.56 1102.05,1365.8"
     id="polyline64"
     transform="matrix(1.5232261,0,0,1.4838441,-153.82132,-163.72085)" />
  <polyline
     class="Stem"
     fill="none"
     stroke="#000000"
     stroke-width="2.48"
     stroke-linejoin="bevel"
     points="2174.89,1295.56 2174.89,1359.6"
     id="polyline66"
     transform="matrix(1.5232261,0,0,1.4838441,-153.82132,-163.72085)" />
  <polyline
     class="Stem"
     fill="none"
     stroke="#000000"
     stroke-width="2.48"
     stroke-linejoin="bevel"
     points="2028.27,1295.56 2028.27,1365.8"
     id="polyline68"
     transform="matrix(1.5232261,0,0,1.4838441,-153.82132,-163.72085)" />
  <polyline
     class="Stem"
     fill="none"
     stroke="#000000"
     stroke-width="2.48"
     stroke-linejoin="bevel"
     points="690.6,687.965 690.6,751.998"
     id="polyline70"
     transform="matrix(1.5232261,0,0,1.4838441,-153.82132,-163.72085)" />
  <polyline
     class="Stem"
     fill="none"
     stroke="#000000"
     stroke-width="2.48"
     stroke-linejoin="bevel"
     points="1772.87,1295.56 1772.87,1365.8"
     id="polyline72"
     transform="matrix(1.5232261,0,0,1.4838441,-153.82132,-163.72085)" />
  <polyline
     class="Stem"
     fill="none"
     stroke="#000000"
     stroke-width="2.48"
     stroke-linejoin="bevel"
     points="1552.94,1295.56 1552.94,1365.8"
     id="polyline74"
     transform="matrix(1.5232261,0,0,1.4838441,-153.82132,-163.72085)" />
  <polyline
     class="Stem"
     fill="none"
     stroke="#000000"
     stroke-width="2.48"
     stroke-linejoin="bevel"
     points="2198.63,1903.16 2198.63,1973.4"
     id="polyline76"
     transform="matrix(1.5232261,0,0,1.4838441,-153.82132,-163.72085)" />
  <polyline
     class="Stem"
     fill="none"
     stroke="#000000"
     stroke-width="2.48"
     stroke-linejoin="bevel"
     points="1321.98,1295.56 1321.98,1359.6"
     id="polyline78"
     transform="matrix(1.5232261,0,0,1.4838441,-153.82132,-163.72085)" />
  <polyline
     class="Stem"
     fill="none"
     stroke="#000000"
     stroke-width="2.48"
     stroke-linejoin="bevel"
     points="577.844,1295.56 577.844,1359.6"
     id="polyline80"
     transform="matrix(1.5232261,0,0,1.4838441,-153.82132,-163.72085)" />
  <polyline
     class="Stem"
     fill="none"
     stroke="#000000"
     stroke-width="2.48"
     stroke-linejoin="bevel"
     points="955.425,1295.56 955.425,1365.8"
     id="polyline82"
     transform="matrix(1.5232261,0,0,1.4838441,-153.82132,-163.72085)" />
  <polyline
     class="Stem"
     fill="none"
     stroke="#000000"
     stroke-width="2.48"
     stroke-linejoin="bevel"
     points="773.339,1295.56 773.339,1365.8"
     id="polyline84"
     transform="matrix(1.5232261,0,0,1.4838441,-153.82132,-163.72085)" />
  <polyline
     class="Stem"
     fill="none"
     stroke="#000000"
     stroke-width="2.48"
     stroke-linejoin="bevel"
     points="675.591,1295.56 675.591,1359.6"
     id="polyline86"
     transform="matrix(1.5232261,0,0,1.4838441,-153.82132,-163.72085)" />
  <polyline
     class="Stem"
     fill="none"
     stroke="#000000"
     stroke-width="2.48"
     stroke-linejoin="bevel"
     points="2378.6,1903.16 2378.6,1973.4"
     id="polyline88"
     transform="matrix(1.5232261,0,0,1.4838441,-153.82132,-163.72085)" />
  <polyline
     class="Stem"
     fill="none"
     stroke="#000000"
     stroke-width="2.48"
     stroke-linejoin="bevel"
     points="1419.73,1295.56 1419.73,1359.6"
     id="polyline90"
     transform="matrix(1.5232261,0,0,1.4838441,-153.82132,-163.72085)" />
  <polyline
     class="Stem"
     fill="none"
     stroke="#000000"
     stroke-width="2.48"
     stroke-linejoin="bevel"
     points="717.868,1903.16 717.868,1967.2"
     id="polyline92"
     transform="matrix(1.5232261,0,0,1.4838441,-153.82132,-163.72085)" />
  <polyline
     class="Stem"
     fill="none"
     stroke="#000000"
     stroke-width="2.48"
     stroke-linejoin="bevel"
     points="1958.66,1903.16 1958.66,1967.2"
     id="polyline94"
     transform="matrix(1.5232261,0,0,1.4838441,-153.82132,-163.72085)" />
  <polyline
     class="Stem"
     fill="none"
     stroke="#000000"
     stroke-width="2.48"
     stroke-linejoin="bevel"
     points="1653.22,1903.16 1653.22,1973.4"
     id="polyline96"
     transform="matrix(1.5232261,0,0,1.4838441,-153.82132,-163.72085)" />
  <polyline
     class="Stem"
     fill="none"
     stroke="#000000"
     stroke-width="2.48"
     stroke-linejoin="bevel"
     points="1533.24,1903.16 1533.24,1967.2"
     id="polyline98"
     transform="matrix(1.5232261,0,0,1.4838441,-153.82132,-163.72085)" />
  <polyline
     class="Stem"
     fill="none"
     stroke="#000000"
     stroke-width="2.48"
     stroke-linejoin="bevel"
     points="1413.25,1903.16 1413.25,1967.2"
     id="polyline100"
     transform="matrix(1.5232261,0,0,1.4838441,-153.82132,-163.72085)" />
  <polyline
     class="Stem"
     fill="none"
     stroke="#000000"
     stroke-width="2.48"
     stroke-linejoin="bevel"
     points="1293.27,1903.16 1293.27,1967.2"
     id="polyline102"
     transform="matrix(1.5232261,0,0,1.4838441,-153.82132,-163.72085)" />
  <polyline
     class="Stem"
     fill="none"
     stroke="#000000"
     stroke-width="2.48"
     stroke-linejoin="bevel"
     points="1173.28,1903.16 1173.28,1967.2"
     id="polyline104"
     transform="matrix(1.5232261,0,0,1.4838441,-153.82132,-163.72085)" />
  <polyline
     class="Stem"
     fill="none"
     stroke="#000000"
     stroke-width="2.48"
     stroke-linejoin="bevel"
     points="957.839,1903.16 957.839,1973.4"
     id="polyline106"
     transform="matrix(1.5232261,0,0,1.4838441,-153.82132,-163.72085)" />
  <polyline
     class="Stem"
     fill="none"
     stroke="#000000"
     stroke-width="2.48"
     stroke-linejoin="bevel"
     points="837.853,1903.16 837.853,1967.2"
     id="polyline108"
     transform="matrix(1.5232261,0,0,1.4838441,-153.82132,-163.72085)" />
  <polyline
     class="Stem"
     fill="none"
     stroke="#000000"
     stroke-width="2.48"
     stroke-linejoin="bevel"
     points="2272.64,1295.56 2272.64,1359.6"
     id="polyline110"
     transform="matrix(1.5232261,0,0,1.4838441,-153.82132,-163.72085)" />
  <polyline
     class="Stem"
     fill="none"
     stroke="#000000"
     stroke-width="2.48"
     stroke-linejoin="bevel"
     points="537.889,1903.16 537.889,1973.4"
     id="polyline112"
     transform="matrix(1.5232261,0,0,1.4838441,-153.82132,-163.72085)" />
  <polyline
     class="Stem"
     fill="none"
     stroke="#000000"
     stroke-width="2.48"
     stroke-linejoin="bevel"
     points="357.911,1903.16 357.911,1973.4"
     id="polyline114"
     transform="matrix(1.5232261,0,0,1.4838441,-153.82132,-163.72085)" />
  <polyline
     class="Stem"
     fill="none"
     stroke="#000000"
     stroke-width="2.48"
     stroke-linejoin="bevel"
     points="536.765,687.965 536.765,758.198"
     id="polyline116"
     transform="matrix(1.5232261,0,0,1.4838441,-153.82132,-163.72085)" />
  <polyline
     class="Stem"
     fill="none"
     stroke="#000000"
     stroke-width="2.48"
     stroke-linejoin="bevel"
     points="2663.63,1295.56 2663.63,1359.6"
     id="polyline118"
     transform="matrix(1.5232261,0,0,1.4838441,-153.82132,-163.72085)" />
  <polyline
     class="Stem"
     fill="none"
     stroke="#000000"
     stroke-width="2.48"
     stroke-linejoin="bevel"
     points="2565.88,1295.56 2565.88,1359.6"
     id="polyline120"
     transform="matrix(1.5232261,0,0,1.4838441,-153.82132,-163.72085)" />
  <polyline
     class="Stem"
     fill="none"
     stroke="#000000"
     stroke-width="2.48"
     stroke-linejoin="bevel"
     points="2468.13,1295.56 2468.13,1359.6"
     id="polyline122"
     transform="matrix(1.5232261,0,0,1.4838441,-153.82132,-163.72085)" />
  <polyline
     class="Stem"
     fill="none"
     stroke="#000000"
     stroke-width="2.48"
     stroke-linejoin="bevel"
     points="2078.64,1903.16 2078.64,1967.2"
     id="polyline124"
     transform="matrix(1.5232261,0,0,1.4838441,-153.82132,-163.72085)" />
  <polyline
     class="Stem"
     fill="none"
     stroke="#000000"
     stroke-width="2.48"
     stroke-linejoin="bevel"
     points="2370.39,1295.56 2370.39,1359.6"
     id="polyline126"
     transform="matrix(1.5232261,0,0,1.4838441,-153.82132,-163.72085)" />
  <polyline
     class="Stem"
     fill="none"
     stroke="#000000"
     stroke-width="2.48"
     stroke-linejoin="bevel"
     points="357.911,1295.56 357.911,1365.8"
     id="polyline128"
     transform="matrix(1.5232261,0,0,1.4838441,-153.82132,-163.72085)" />
  <polyline
     class="Stem"
     fill="none"
     stroke="#000000"
     stroke-width="2.48"
     stroke-linejoin="bevel"
     points="1152.1,687.965 1152.1,751.998"
     id="polyline130"
     transform="matrix(1.5232261,0,0,1.4838441,-153.82132,-163.72085)" />
  <polyline
     class="Stem"
     fill="none"
     stroke="#000000"
     stroke-width="2.48"
     stroke-linejoin="bevel"
     points="1049.55,687.965 1049.55,751.998"
     id="polyline132"
     transform="matrix(1.5232261,0,0,1.4838441,-153.82132,-163.72085)" />
  <polyline
     class="Stem"
     fill="none"
     stroke="#000000"
     stroke-width="2.48"
     stroke-linejoin="bevel"
     points="1290.12,687.965 1290.12,758.198"
     id="polyline134"
     transform="matrix(1.5232261,0,0,1.4838441,-153.82132,-163.72085)" />
  <polyline
     class="Stem"
     fill="none"
     stroke="#000000"
     stroke-width="2.48"
     stroke-linejoin="bevel"
     points="1443.96,687.965 1443.96,758.198"
     id="polyline136"
     transform="matrix(1.5232261,0,0,1.4838441,-153.82132,-163.72085)" />
  <polyline
     class="Stem"
     fill="none"
     stroke="#000000"
     stroke-width="2.48"
     stroke-linejoin="bevel"
     points="1597.79,687.965 1597.79,751.998"
     id="polyline138"
     transform="matrix(1.5232261,0,0,1.4838441,-153.82132,-163.72085)" />
  <polyline
     class="Stem"
     fill="none"
     stroke="#000000"
     stroke-width="2.48"
     stroke-linejoin="bevel"
     points="1700.35,687.965 1700.35,751.998"
     id="polyline140"
     transform="matrix(1.5232261,0,0,1.4838441,-153.82132,-163.72085)" />
  <polyline
     class="Stem"
     fill="none"
     stroke="#000000"
     stroke-width="2.48"
     stroke-linejoin="bevel"
     points="1802.91,687.965 1802.91,751.998"
     id="polyline142"
     transform="matrix(1.5232261,0,0,1.4838441,-153.82132,-163.72085)" />
  <polyline
     class="Stem"
     fill="none"
     stroke="#000000"
     stroke-width="2.48"
     stroke-linejoin="bevel"
     points="1905.46,687.965 1905.46,751.998"
     id="polyline144"
     transform="matrix(1.5232261,0,0,1.4838441,-153.82132,-163.72085)" />
  <polyline
     class="Stem"
     fill="none"
     stroke="#000000"
     stroke-width="2.48"
     stroke-linejoin="bevel"
     points="895.713,687.965 895.713,758.198"
     id="polyline146"
     transform="matrix(1.5232261,0,0,1.4838441,-153.82132,-163.72085)" />
  <polyline
     class="Stem"
     fill="none"
     stroke="#000000"
     stroke-width="2.48"
     stroke-linejoin="bevel"
     points="2043.48,687.965 2043.48,758.198"
     id="polyline148"
     transform="matrix(1.5232261,0,0,1.4838441,-153.82132,-163.72085)" />
  <polyline
     class="Stem"
     fill="none"
     stroke="#000000"
     stroke-width="2.48"
     stroke-linejoin="bevel"
     points="2197.32,687.965 2197.32,751.998"
     id="polyline150"
     transform="matrix(1.5232261,0,0,1.4838441,-153.82132,-163.72085)" />
  <polyline
     class="Stem"
     fill="none"
     stroke="#000000"
     stroke-width="2.48"
     stroke-linejoin="bevel"
     points="2558.58,1903.16 2558.58,1973.4"
     id="polyline152"
     transform="matrix(1.5232261,0,0,1.4838441,-153.82132,-163.72085)" />
  <polyline
     class="Stem"
     fill="none"
     stroke="#000000"
     stroke-width="2.48"
     stroke-linejoin="bevel"
     points="2299.87,687.965 2299.87,751.998"
     id="polyline154"
     transform="matrix(1.5232261,0,0,1.4838441,-153.82132,-163.72085)" />
  <polyline
     class="Stem"
     fill="none"
     stroke="#000000"
     stroke-width="2.48"
     stroke-linejoin="bevel"
     points="2402.43,687.965 2402.43,751.998"
     id="polyline156"
     transform="matrix(1.5232261,0,0,1.4838441,-153.82132,-163.72085)" />
  <polyline
     class="Stem"
     fill="none"
     stroke="#000000"
     stroke-width="2.48"
     stroke-linejoin="bevel"
     points="2504.99,687.965 2504.99,751.998"
     id="polyline158"
     transform="matrix(1.5232261,0,0,1.4838441,-153.82132,-163.72085)" />
  <polyline
     class="Stem"
     fill="none"
     stroke="#000000"
     stroke-width="2.48"
     stroke-linejoin="bevel"
     points="793.156,687.965 793.156,751.998"
     id="polyline160"
     transform="matrix(1.5232261,0,0,1.4838441,-153.82132,-163.72085)" />
  <polyline
     class="Stem"
     fill="none"
     stroke="#000000"
     stroke-width="2.48"
     stroke-linejoin="bevel"
     points="2607.54,687.965 2607.54,758.198"
     id="polyline162"
     transform="matrix(1.5232261,0,0,1.4838441,-153.82132,-163.72085)" />
  <path
     class="Note"
     d="m 1303.2953,2660.2859 c 0,6.3249 4.6748,13.3857 16.9283,13.3857 15.7008,0 32.1805,-12.5117 32.1805,-25.4605 0,-8.6939 -7.5552,-13.5468 -16.9283,-13.5468 -14.6618,0 -32.1805,12.0748 -32.1805,25.6216"
     id="path164"
     style="stroke-width:1.49138" />
  <path
     class="Note"
     d="m 3901.6007,1758.7022 c 0,6.3249 4.6748,13.3858 16.9284,13.3858 15.7006,0 32.1804,-12.5118 32.1804,-25.4606 0,-8.6938 -7.5552,-13.5467 -16.9283,-13.5467 -14.6619,0 -32.1805,12.0748 -32.1805,25.6215"
     id="path166"
     style="stroke-width:1.49138" />
  <path
     class="Note"
     d="m 3193.3006,2660.2859 c 0,6.3249 4.6748,13.3857 16.9283,13.3857 15.7007,0 32.1805,-12.5117 32.1805,-25.4605 0,-8.6939 -7.5552,-13.5468 -16.9284,-13.5468 -14.6618,0 -32.1804,12.0748 -32.1804,25.6216"
     id="path168"
     style="stroke-width:1.49138" />
  <path
     class="Note"
     d="m 1857.9644,1758.7022 c 0,6.3249 4.6748,13.3858 16.9284,13.3858 15.7006,0 32.1804,-12.5118 32.1804,-25.4606 0,-8.6938 -7.5552,-13.5467 -16.9284,-13.5467 -14.6618,0 -32.1804,12.0748 -32.1804,25.6215"
     id="path170"
     style="stroke-width:1.49138" />
  <path
     class="Note"
     d="m 1022.2601,1758.7022 c 0,6.3249 4.6748,13.3858 16.9283,13.3858 15.7008,0 32.1805,-12.5118 32.1805,-25.4606 0,-8.6938 -7.5552,-13.5467 -16.9284,-13.5467 -14.6617,0 -32.1804,12.0748 -32.1804,25.6215"
     id="path172"
     style="stroke-width:1.49138" />
  <path
     class="Note"
     d="m 2434.3075,857.11564 c 0,6.32489 4.6747,13.38579 16.9283,13.38579 15.7007,0 32.1805,-12.5118 32.1805,-25.46057 0,-8.69384 -7.5552,-13.54672 -16.9284,-13.54672 -14.6618,0 -32.1804,12.07475 -32.1804,25.6215"
     id="path174"
     style="stroke-width:1.49138" />
  <path
     class="Note"
     d="m 663.61645,2660.2859 c 0,6.3249 4.67479,13.3857 16.92835,13.3857 15.70076,0 32.18047,-12.5117 32.18047,-25.4605 0,-8.6939 -7.55521,-13.5468 -16.92835,-13.5468 -14.66177,0 -32.18047,12.0748 -32.18047,25.6216"
     id="path176"
     style="stroke-width:1.49138" />
  <path
     class="Note"
     d="m 937.76517,2660.2859 c 0,6.3249 4.6748,13.3857 16.9283,13.3857 15.7008,0 32.1805,-12.5117 32.1805,-25.4605 0,-8.6939 -7.5552,-13.5468 -16.9283,-13.5468 -14.6618,0 -32.1805,12.0748 -32.1805,25.6216"
     id="path178"
     style="stroke-width:1.49138" />
  <path
     class="Note"
     d="m 421.64973,1733.0807 c -14.66176,0 -32.18046,11.9368 -32.18046,25.6215 0,6.3249 4.67478,13.3858 16.92834,13.3858 15.70076,0 32.18047,-12.5118 32.18047,-25.4606 0,-8.6938 -7.5552,-13.5467 -16.92835,-13.5467 m -4.08448,25.9205 c -0.44864,0.276 -11.47454,6.1639 -16.76318,6.1639 -4.98171,0 -6.04416,-3.9559 -6.04416,-5.2899 0,-6.1869 15.1104,-13.3858 15.72434,-13.6848 0.5902,-0.299 11.3328,-6.1868 16.76302,-6.1868 3.63602,0 6.04417,2.0699 6.04417,5.2899 0,6.3478 -15.25199,13.4087 -15.72419,13.7077"
     id="path180"
     style="stroke-width:1.49138" />
  <path
     class="Note"
     d="m 3741.5858,2660.2859 c 0,6.3249 4.6748,13.3857 16.9284,13.3857 15.7006,0 32.1804,-12.5117 32.1804,-25.4605 0,-8.6939 -7.5552,-13.5468 -16.9283,-13.5468 -14.6619,0 -32.1805,12.0748 -32.1805,25.6216"
     id="path182"
     style="stroke-width:1.49138" />
  <path
     class="Note"
     d="m 1120.5295,2660.2859 c 0,6.3249 4.6748,13.3857 16.9283,13.3857 15.7008,0 32.1805,-12.5117 32.1805,-25.4605 0,-8.6939 -7.5552,-13.5468 -16.9283,-13.5468 -14.6618,0 -32.1805,12.0748 -32.1805,25.6216"
     id="path184"
     style="stroke-width:1.49138" />
  <path
     class="Note"
     d="m 2278.0854,857.11564 c 0,6.32489 4.6748,13.38579 16.9284,13.38579 15.7006,0 32.1804,-12.5118 32.1804,-25.46057 0,-8.69384 -7.5552,-13.54672 -16.9284,-13.54672 -14.6618,0 -32.1804,12.07475 -32.1804,25.6215"
     id="path186"
     style="stroke-width:1.49138" />
  <path
     class="Note"
     d="m 2590.5295,857.11564 c 0,6.32489 4.6748,13.38579 16.9284,13.38579 15.7007,0 32.1804,-12.5118 32.1804,-25.46057 0,-8.69384 -7.5552,-13.54672 -16.9283,-13.54672 -14.6618,0 -32.1805,12.07475 -32.1805,25.6215"
     id="path188"
     style="stroke-width:1.49138" />
  <path
     class="Note"
     d="m 873.36774,1758.7022 c 0,6.3249 4.67478,13.3858 16.92835,13.3858 15.70078,0 32.18048,-12.5118 32.18048,-25.4606 0,-8.6938 -7.5552,-13.5467 -16.9284,-13.5467 -14.66173,0 -32.18043,12.0748 -32.18043,25.6215"
     id="path190"
     style="stroke-width:1.49138" />
  <path
     class="Note"
     d="m 2043.7675,857.11564 c 0,6.32489 4.6748,13.38579 16.9284,13.38579 15.7006,0 32.1804,-12.5118 32.1804,-25.46057 0,-8.69384 -7.5552,-13.54672 -16.9284,-13.54672 -14.6618,0 -32.1804,12.07475 -32.1804,25.6215"
     id="path192"
     style="stroke-width:1.49138" />
  <path
     class="Note"
     d="m 1631.4607,2660.2859 c 0,6.3249 4.6747,13.3857 16.9283,13.3857 15.7007,0 32.1805,-12.5117 32.1805,-25.4605 0,-8.6939 -7.5552,-13.5468 -16.9284,-13.5468 -14.6618,0 -32.1804,12.0748 -32.1804,25.6216"
     id="path194"
     style="stroke-width:1.49138" />
  <path
     class="Note"
     d="m 2827.772,2660.2859 c 0,6.3249 4.6748,13.3857 16.9284,13.3857 15.7006,0 32.1804,-12.5117 32.1804,-25.4605 0,-8.6939 -7.5552,-13.5468 -16.9284,-13.5468 -14.6618,0 -32.1804,12.0748 -32.1804,25.6216"
     id="path196"
     style="stroke-width:1.49138" />
  <path
     class="Note"
     d="m 1814.2326,2660.2859 c 0,6.3249 4.6747,13.3857 16.9283,13.3857 15.7007,0 32.1805,-12.5117 32.1805,-25.4605 0,-8.6939 -7.5552,-13.5468 -16.9284,-13.5468 -14.6618,0 -32.1804,12.0748 -32.1804,25.6216"
     id="path198"
     style="stroke-width:1.49138" />
  <path
     class="Note"
     d="m 1809.4344,857.11564 c 0,6.32489 4.6748,13.38579 16.9284,13.38579 15.7006,0 32.1804,-12.5118 32.1804,-25.46057 0,-8.69384 -7.5552,-13.54672 -16.9284,-13.54672 -14.6618,0 -32.1804,12.07475 -32.1804,25.6215"
     id="path200"
     style="stroke-width:1.49138" />
  <path
     class="Note"
     d="m 1996.9892,2660.2859 c 0,6.3249 4.6748,13.3857 16.9284,13.3857 15.7007,0 32.1804,-12.5117 32.1804,-25.4605 0,-8.6939 -7.5552,-13.5468 -16.9283,-13.5468 -14.6618,0 -32.1805,12.0748 -32.1805,25.6216"
     id="path202"
     style="stroke-width:1.49138" />
  <path
     class="Note"
     d="m 2179.7611,2660.2859 c 0,6.3249 4.6748,13.3857 16.9284,13.3857 15.7007,0 32.1804,-12.5117 32.1804,-25.4605 0,-8.6939 -7.5552,-13.5468 -16.9283,-13.5468 -14.6618,0 -32.1805,12.0748 -32.1805,25.6216"
     id="path204"
     style="stroke-width:1.49138" />
  <path
     class="Note"
     d="m 724.47695,1758.7022 c 0,6.3249 4.67479,13.3858 16.92835,13.3858 15.70076,0 32.18047,-12.5118 32.18047,-25.4606 0,-8.6938 -7.5552,-13.5467 -16.92834,-13.5467 -14.66177,0 -32.18048,12.0748 -32.18048,25.6215"
     id="path206"
     style="stroke-width:1.49138" />
  <path
     class="Note"
     d="m 2394.6982,2634.6643 c -14.6618,0 -32.1804,11.9368 -32.1804,25.6216 0,6.3249 4.6748,13.3857 16.9284,13.3857 15.7006,0 32.1804,-12.5117 32.1804,-25.4605 0,-8.6939 -7.5552,-13.5468 -16.9284,-13.5468 m -4.0845,25.9206 c -0.4486,0.276 -11.4744,6.1638 -16.7631,6.1638 -4.9817,0 -6.0442,-3.9559 -6.0442,-5.2899 0,-6.1868 15.1105,-13.3857 15.7243,-13.6847 0.5903,-0.299 11.3328,-6.1869 16.7631,-6.1869 3.636,0 6.0442,2.07 6.0442,5.2899 0,6.3479 -15.2521,13.4088 -15.7243,13.7078"
     id="path208"
     style="stroke-width:1.49138" />
  <path
     class="Note"
     d="m 1599.1987,857.11564 c 0,6.32489 4.6748,13.38579 16.9284,13.38579 15.7007,0 32.1804,-12.5118 32.1804,-25.46057 0,-8.69384 -7.5552,-13.54672 -16.9283,-13.54672 -14.6619,0 -32.1805,12.07475 -32.1805,25.6215"
     id="path210"
     style="stroke-width:1.49138" />
  <path
     class="Note"
     d="m 3191.3051,857.11564 c 0,6.32489 4.6748,13.38579 16.9284,13.38579 15.7007,0 32.1805,-12.5118 32.1805,-25.46057 0,-8.69384 -7.5552,-13.54672 -16.9284,-13.54672 -14.6618,0 -32.1805,12.07475 -32.1805,25.6215"
     id="path212"
     style="stroke-width:1.49138" />
  <path
     class="Note"
     d="m 1442.9919,857.11564 c 0,6.32489 4.6748,13.38579 16.9284,13.38579 15.7006,0 32.1804,-12.5118 32.1804,-25.46057 0,-8.69384 -7.5552,-13.54672 -16.9284,-13.54672 -14.6618,0 -32.1804,12.07475 -32.1804,25.6215"
     id="path214"
     style="stroke-width:1.49138" />
  <path
     class="Note"
     d="m 2006.8597,1758.7022 c 0,6.3249 4.6748,13.3858 16.9284,13.3858 15.7007,0 32.1804,-12.5118 32.1804,-25.4606 0,-8.6938 -7.5552,-13.5467 -16.9283,-13.5467 -14.6618,0 -32.1805,12.0748 -32.1805,25.6215"
     id="path216"
     style="stroke-width:1.49138" />
  <path
     class="Note"
     d="m 896.22984,857.11564 c 0,6.32489 4.67478,13.38579 16.92833,13.38579 15.7008,0 32.1805,-12.5118 32.1805,-25.46057 0,-8.69384 -7.5552,-13.54672 -16.9284,-13.54672 -14.6617,0 -32.18043,12.07475 -32.18043,25.6215"
     id="path218"
     style="stroke-width:1.49138" />
  <path
     class="Note"
     d="m 3467.4356,2660.2859 c 0,6.3249 4.6748,13.3857 16.9283,13.3857 15.7007,0 32.1805,-12.5117 32.1805,-25.4605 0,-8.6939 -7.5552,-13.5468 -16.9284,-13.5468 -14.6618,0 -32.1804,12.0748 -32.1804,25.6216"
     id="path220"
     style="stroke-width:1.49138" />
  <path
     class="Note"
     d="m 3503.7341,857.11564 c 0,6.32489 4.6747,13.38579 16.9283,13.38579 15.7007,0 32.1805,-12.5118 32.1805,-25.46057 0,-8.69384 -7.5552,-13.54672 -16.9284,-13.54672 -14.6618,0 -32.1804,12.07475 -32.1804,25.6215"
     id="path222"
     style="stroke-width:1.49138" />
  <path
     class="Note"
     d="m 2241.9491,1733.0807 c -14.6618,0 -32.1804,11.9368 -32.1804,25.6215 0,6.3249 4.6748,13.3858 16.9284,13.3858 15.7006,0 32.1804,-12.5118 32.1804,-25.4606 0,-8.6938 -7.5552,-13.5467 -16.9284,-13.5467 m -4.0845,25.9205 c -0.4486,0.276 -11.4745,6.1639 -16.7631,6.1639 -4.9817,0 -6.0442,-3.9559 -6.0442,-5.2899 0,-6.1869 15.1104,-13.3858 15.7243,-13.6848 0.5902,-0.299 11.3328,-6.1868 16.7631,-6.1868 3.6359,0 6.0442,2.0699 6.0442,5.2899 0,6.3478 -15.2521,13.4087 -15.7243,13.7077"
     id="path224"
     style="stroke-width:1.49138" />
  <path
     class="Note"
     d="m 3659.9561,857.11564 c 0,6.32489 4.6748,13.38579 16.9284,13.38579 15.7007,0 32.1804,-12.5118 32.1804,-25.46057 0,-8.69384 -7.5552,-13.54672 -16.9283,-13.54672 -14.6619,0 -32.1805,12.07475 -32.1805,25.6215"
     id="path226"
     style="stroke-width:1.49138" />
  <path
     class="Note"
     d="m 2576.9523,1733.0807 c -14.6619,0 -32.1805,11.9368 -32.1805,25.6215 0,6.3249 4.6748,13.3858 16.9284,13.3858 15.7006,0 32.1804,-12.5118 32.1804,-25.4606 0,-8.6938 -7.5552,-13.5467 -16.9283,-13.5467 m -4.0846,25.9205 c -0.4486,0.276 -11.4744,6.1639 -16.7631,6.1639 -4.9817,0 -6.0441,-3.9559 -6.0441,-5.2899 0,-6.1869 15.1104,-13.3858 15.7242,-13.6848 0.5903,-0.299 11.3328,-6.1868 16.7631,-6.1868 3.636,0 6.0442,2.0699 6.0442,5.2899 0,6.3478 -15.2521,13.4087 -15.7243,13.7077"
     id="path228"
     style="stroke-width:1.49138" />
  <path
     class="Note"
     d="m 3347.512,857.11564 c 0,6.32489 4.6748,13.38579 16.9284,13.38579 15.7006,0 32.1804,-12.5118 32.1804,-25.46057 0,-8.69384 -7.5552,-13.54672 -16.9284,-13.54672 -14.6618,0 -32.1804,12.07475 -32.1804,25.6215"
     id="path230"
     style="stroke-width:1.49138" />
  <path
     class="Note"
     d="m 661.90435,857.11564 c 0,6.32489 4.67478,13.38579 16.92834,13.38579 15.70076,0 32.18047,-12.5118 32.18047,-25.46057 0,-8.69384 -7.5552,-13.54672 -16.92834,-13.54672 -14.66177,0 -32.18047,12.07475 -32.18047,25.6215"
     id="path232"
     style="stroke-width:1.49138" />
  <path
     class="Note"
     d="m 1555.1417,1733.0807 c -14.6618,0 -32.1804,11.9368 -32.1804,25.6215 0,6.3249 4.6747,13.3858 16.9283,13.3858 15.7007,0 32.1805,-12.5118 32.1805,-25.4606 0,-8.6938 -7.5552,-13.5467 -16.9284,-13.5467 m -4.0845,25.9205 c -0.4486,0.276 -11.4745,6.1639 -16.7631,6.1639 -4.9818,0 -6.0442,-3.9559 -6.0442,-5.2899 0,-6.1869 15.1104,-13.3858 15.7243,-13.6848 0.5902,-0.299 11.3328,-6.1868 16.7631,-6.1868 3.6359,0 6.0441,2.0699 6.0441,5.2899 0,6.3478 -15.252,13.4087 -15.7242,13.7077"
     id="path234"
     style="stroke-width:1.49138" />
  <path
     class="Note"
     d="m 2933.8038,1758.7022 c 0,6.3249 4.6747,13.3858 16.9283,13.3858 15.7007,0 32.1805,-12.5118 32.1805,-25.4606 0,-8.6938 -7.5552,-13.5467 -16.9284,-13.5467 -14.6618,0 -32.1804,12.0748 -32.1804,25.6215"
     id="path236"
     style="stroke-width:1.49138" />
  <path
     class="Note"
     d="m 2746.7364,857.11564 c 0,6.32489 4.6747,13.38579 16.9283,13.38579 15.7007,0 32.1805,-12.5118 32.1805,-25.46057 0,-8.69384 -7.5552,-13.54672 -16.9284,-13.54672 -14.6618,0 -32.1804,12.07475 -32.1804,25.6215"
     id="path238"
     style="stroke-width:1.49138" />
  <path
     class="Note"
     d="m 3157.1392,1758.7022 c 0,6.3249 4.6748,13.3858 16.9284,13.3858 15.7006,0 32.1804,-12.5118 32.1804,-25.4606 0,-8.6938 -7.5552,-13.5467 -16.9284,-13.5467 -14.6618,0 -32.1804,12.0748 -32.1804,25.6215"
     id="path240"
     style="stroke-width:1.49138" />
  <path
     class="Note"
     d="m 1052.4458,857.11564 c 0,6.32489 4.6748,13.38579 16.9284,13.38579 15.7008,0 32.1805,-12.5118 32.1805,-25.46057 0,-8.69384 -7.5552,-13.54672 -16.9284,-13.54672 -14.6618,0 -32.1805,12.07475 -32.1805,25.6215"
     id="path242"
     style="stroke-width:1.49138" />
  <path
     class="Note"
     d="m 3752.7054,1758.7022 c 0,6.3249 4.6747,13.3858 16.9283,13.3858 15.7007,0 32.1805,-12.5118 32.1805,-25.4606 0,-8.6938 -7.5552,-13.5467 -16.9284,-13.5467 -14.6618,0 -32.1804,12.0748 -32.1804,25.6215"
     id="path244"
     style="stroke-width:1.49138" />
  <path
     class="Note"
     d="m 1208.6633,857.11564 c 0,6.32489 4.6748,13.38579 16.9284,13.38579 15.7008,0 32.1805,-12.5118 32.1805,-25.46057 0,-8.69384 -7.5552,-13.54672 -16.9284,-13.54672 -14.6618,0 -32.1805,12.07475 -32.1805,25.6215"
     id="path246"
     style="stroke-width:1.49138" />
  <path
     class="Note"
     d="m 3603.81,1758.7022 c 0,6.3249 4.6748,13.3858 16.9284,13.3858 15.7006,0 32.1804,-12.5118 32.1804,-25.4606 0,-8.6938 -7.5552,-13.5467 -16.9284,-13.5467 -14.6618,0 -32.1804,12.0748 -32.1804,25.6215"
     id="path248"
     style="stroke-width:1.49138" />
  <path
     class="Note"
     d="m 3010.5287,2660.2859 c 0,6.3249 4.6747,13.3857 16.9283,13.3857 15.7007,0 32.1805,-12.5117 32.1805,-25.4605 0,-8.6939 -7.5552,-13.5468 -16.9284,-13.5468 -14.6618,0 -32.1804,12.0748 -32.1804,25.6216"
     id="path250"
     style="stroke-width:1.49138" />
  <path
     class="Note"
     d="m 3816.163,857.11564 c 0,6.32489 4.6747,13.38579 16.9283,13.38579 15.7007,0 32.1805,-12.5118 32.1805,-25.46057 0,-8.69384 -7.5552,-13.54672 -16.9284,-13.54672 -14.6618,0 -32.1804,12.07475 -32.1804,25.6215"
     id="path252"
     style="stroke-width:1.49138" />
  <path
     class="Note"
     d="m 3454.9299,1758.7022 c 0,6.3249 4.6748,13.3858 16.9284,13.3858 15.7006,0 32.1804,-12.5118 32.1804,-25.4606 0,-8.6938 -7.5552,-13.5467 -16.9284,-13.5467 -14.6618,0 -32.1804,12.0748 -32.1804,25.6215"
     id="path254"
     style="stroke-width:1.49138" />
  <path
     class="Note"
     d="m 2956.972,857.11564 c 0,6.32489 4.6748,13.38579 16.9284,13.38579 15.7007,0 32.1804,-12.5118 32.1804,-25.46057 0,-8.69384 -7.5552,-13.54672 -16.9283,-13.54672 -14.6618,0 -32.1805,12.07475 -32.1805,25.6215"
     id="path256"
     style="stroke-width:1.49138" />
  <path
     class="Note"
     d="m 3306.0345,1758.7022 c 0,6.3249 4.6748,13.3858 16.9284,13.3858 15.7007,0 32.1804,-12.5118 32.1804,-25.4606 0,-8.6938 -7.5552,-13.5467 -16.9283,-13.5467 -14.6618,0 -32.1805,12.0748 -32.1805,25.6215"
     id="path258"
     style="stroke-width:1.49138" />
  <path
     class="Note"
     d="m 1299.6182,1758.7022 c 0,6.3249 4.6748,13.3858 16.9284,13.3858 15.7007,0 32.1804,-12.5118 32.1804,-25.4606 0,-8.6938 -7.5552,-13.5467 -16.9283,-13.5467 -14.6618,0 -32.1805,12.0748 -32.1805,25.6215"
     id="path260"
     style="stroke-width:1.49138" />
  <path
     class="Note"
     d="m 389.46927,2660.2859 c 0,6.3249 4.67478,13.3857 16.92834,13.3857 15.70076,0 32.18047,-12.5117 32.18047,-25.4605 0,-8.6939 -7.5552,-13.5468 -16.92835,-13.5468 -14.66176,0 -32.18046,12.0748 -32.18046,25.6216"
     id="path262"
     style="stroke-width:1.49138" />
  <path
     class="Clef"
     d="m 262.25783,1894.8597 c 0,-5.4509 -5.12333,-7.7968 -10.10508,-7.7968 -6.35105,0 -12.56053,3.8179 -12.56053,10.4418 0,2.8059 1.06242,4.8759 3.1874,6.9229 -3.94292,1.4719 -7.86224,4.4159 -7.86224,8.9928 0,4.8529 4.53312,8.0959 11.19121,8.0959 8.14542,0 13.88268,-4.416 13.88268,-10.7638 0,-3.381 -1.51104,-6.1639 -4.22622,-8.0959 4.39153,-1.909 6.49278,-4.2549 6.49278,-7.7969 m -15.1104,23.5516 c -3.30541,0 -5.57197,-2.0469 -5.57197,-5.1519 0,-2.9439 1.34574,-5.2899 3.9192,-6.7619 0.61393,0.299 0.75552,0.299 1.20414,0.575 1.81794,0.897 1.81794,0.897 2.12498,1.196 2.85677,1.61 4.08449,3.0819 4.08449,5.1519 0,2.783 -2.43186,4.9909 -5.76084,4.9909 m 5.76084,-17.6637 c -2.26656,-1.1729 -2.88048,-1.4719 -3.32897,-1.7709 l -0.30704,-0.138 c -2.26656,-1.334 -3.02208,-2.369 -3.02208,-4.117 0,-2.6679 2.12497,-4.5769 5.14705,-4.5769 2.85678,0 4.67472,1.771 4.67472,4.8529 0,2.369 -0.89712,3.979 -3.16368,5.7499 m 42.14383,-111.7319 c 0,-22.2176 -16.17283,-37.2364 -38.22463,-37.2364 -1.51104,-8.8318 -2.88036,-17.5256 -4.22609,-25.7595 15.86593,-16.3527 27.03341,-34.8904 27.03341,-58.1429 0,-13.4088 -4.22622,-24.2876 -6.79968,-29.5999 -3.61228,-7.4983 -8.00382,-12.6502 -10.57728,-12.6502 -1.03884,0 -5.87885,1.7708 -10.719,7.4983 -9.82177,11.2002 -12.53681,29.8758 -12.53681,42.2496 0,7.9579 0.75552,15.1567 3.32896,31.8084 -0.1653,0 -8.0274,7.7969 -11.1912,10.4419 -13.76453,12.3737 -32.79427,30.3134 -32.79427,59.6149 0,27.6685 24.62527,49.3111 52.74483,49.3111 4.36781,0 8.45231,-0.437 12.08832,-1.035 2.71505,14.0067 4.53313,24.4486 4.53313,32.2454 0,15.3177 -8.16914,23.4136 -23.42113,23.4136 -3.63602,0 -6.79968,-0.736 -7.10672,-0.897 -0.14166,0 -0.44848,-0.138 -0.44848,-0.276 0,-0.299 0.30688,-0.46 0.75552,-0.598 7.10656,-1.035 14.18957,-7.0608 14.18957,-16.3297 0,-7.9578 -6.18589,-16.3527 -17.51869,-16.3527 -10.57728,0 -17.23524,8.3949 -17.23524,18.1007 0,9.7288 7.5552,22.5396 27.95424,22.5396 19.50181,0 29.01667,-10.7638 29.01667,-29.6005 0,-5.7269 -0.8971,-12.3508 -2.40814,-20.7456 -0.44864,-2.944 -1.20416,-7.5209 -2.26656,-13.1098 14.80336,-4.8529 25.82927,-19.7336 25.82927,-34.8903 m -46.53536,-120.7018 c 1.51105,-5.8879 8.31073,-21.3437 16.17296,-21.3437 2.26657,0 6.04417,7.0609 6.04417,17.3647 0,15.1567 -11.78144,26.6565 -22.21713,36.7994 -0.89711,-5.8879 -1.65263,-11.7758 -1.65263,-17.8017 0,-5.5889 0.59022,-10.4648 1.65263,-15.0187 m 4.53313,152.2112 c -21.60305,0 -40.04254,-14.7197 -40.04254,-36.9603 0,-17.9397 12.98553,-33.9934 26.30157,-45.3322 2.54988,-2.07 4.98176,-4.1169 7.24832,-6.3249 1.34573,7.9349 2.40815,14.7197 3.47057,20.9066 -13.76453,3.818 -23.11409,18.1007 -23.11409,31.7854 0,10.4649 8.31072,24.5866 20.39904,24.5866 1.204,0 2.57345,-0.598 2.57345,-2.07 0,-1.1729 -1.36945,-2.0469 -3.32897,-3.2199 -5.90258,-3.4039 -9.23156,-7.3599 -9.23156,-14.4437 0,-8.9699 6.965,-16.1918 15.72421,-18.2387 l 8.75934,48.2761 c -3.02208,0.598 -5.73726,1.035 -8.75934,1.035 m 15.1104,-2.806 c -3.16368,-17.5026 -7.24817,-40.9162 -8.31072,-47.4021 15.25212,0 21.76848,10.3038 23.11422,17.3877 0.1653,1.173 0.44862,2.7829 0.44862,4.5539 0,10.6028 -4.53312,21.2056 -15.25212,25.4605"
     id="path264"
     style="stroke-width:1.49138" />
  <path
     class="Clef"
     d="m 262.25783,2796.4434 c 0,-5.4509 -5.12333,-7.7969 -10.10508,-7.7969 -6.35105,0 -12.56053,3.818 -12.56053,10.4418 0,2.806 1.06242,4.876 3.1874,6.9229 -3.94292,1.472 -7.86224,4.4159 -7.86224,8.9929 0,4.8529 4.53312,8.0958 11.19121,8.0958 8.14542,0 13.88268,-4.4159 13.88268,-10.7638 0,-3.3809 -1.51104,-6.1639 -4.22622,-8.0958 4.39153,-1.909 6.49278,-4.255 6.49278,-7.7969 m -15.1104,23.5516 c -3.30541,0 -5.57197,-2.047 -5.57197,-5.1519 0,-2.944 1.34574,-5.2899 3.9192,-6.7619 0.61393,0.299 0.75552,0.299 1.20414,0.575 1.81794,0.897 1.81794,0.897 2.12498,1.196 2.85677,1.6099 4.08449,3.0819 4.08449,5.1519 0,2.7829 -2.43186,4.9909 -5.76084,4.9909 m 5.76084,-17.6637 c -2.26656,-1.173 -2.88048,-1.472 -3.32897,-1.771 l -0.30704,-0.138 c -2.26656,-1.334 -3.02208,-2.3689 -3.02208,-4.1169 0,-2.668 2.12497,-4.5769 5.14705,-4.5769 2.85678,0 4.67472,1.771 4.67472,4.8529 0,2.369 -0.89712,3.9789 -3.16368,5.7499 m 42.14383,-111.732 c 0,-22.2176 -16.17283,-37.2363 -38.22463,-37.2363 -1.51104,-8.8318 -2.88036,-17.5257 -4.22609,-25.7595 15.86593,-16.3527 27.03341,-34.8904 27.03341,-58.143 0,-13.4087 -4.22622,-24.2875 -6.79968,-29.5999 -3.61228,-7.4983 -8.00382,-12.6502 -10.57728,-12.6502 -1.03884,0 -5.87885,1.7708 -10.719,7.4983 -9.82177,11.2002 -12.53681,29.8759 -12.53681,42.2497 0,7.9578 0.75552,15.1567 3.32896,31.8084 -0.1653,0 -8.0274,7.7969 -11.1912,10.4418 -13.76453,12.3738 -32.79427,30.3135 -32.79427,59.6149 0,27.6685 24.62527,49.3111 52.74483,49.3111 4.36781,0 8.45231,-0.437 12.08832,-1.0349 2.71505,14.0067 4.53313,24.4485 4.53313,32.2454 0,15.3177 -8.16914,23.4135 -23.42113,23.4135 -3.63602,0 -6.79968,-0.7359 -7.10672,-0.8969 -0.14166,0 -0.44848,-0.138 -0.44848,-0.276 0,-0.299 0.30688,-0.46 0.75552,-0.598 7.10656,-1.035 14.18957,-7.0609 14.18957,-16.3297 0,-7.9579 -6.18589,-16.3527 -17.51869,-16.3527 -10.57728,0 -17.23524,8.3948 -17.23524,18.1006 0,9.7289 7.5552,22.5396 27.95424,22.5396 19.50181,0 29.01667,-10.7638 29.01667,-29.6004 0,-5.7269 -0.8971,-12.3508 -2.40814,-20.7457 -0.44864,-2.9439 -1.20416,-7.5208 -2.26656,-13.1097 14.80336,-4.8529 25.82927,-19.7337 25.82927,-34.8904 m -46.53536,-120.7018 c 1.51105,-5.8879 8.31073,-21.3436 16.17296,-21.3436 2.26657,0 6.04417,7.0609 6.04417,17.3647 0,15.1567 -11.78144,26.6565 -22.21713,36.7993 -0.89711,-5.8879 -1.65263,-11.7758 -1.65263,-17.8017 0,-5.5889 0.59022,-10.4648 1.65263,-15.0187 m 4.53313,152.2112 c -21.60305,0 -40.04254,-14.7197 -40.04254,-36.9603 0,-17.9397 12.98553,-33.9934 26.30157,-45.3322 2.54988,-2.0699 4.98176,-4.1169 7.24832,-6.3248 1.34573,7.9348 2.40815,14.7197 3.47057,20.9066 -13.76453,3.8179 -23.11409,18.1006 -23.11409,31.7854 0,10.4648 8.31072,24.5866 20.39904,24.5866 1.204,0 2.57345,-0.598 2.57345,-2.07 0,-1.173 -1.36945,-2.047 -3.32897,-3.22 -5.90258,-3.4039 -9.23156,-7.3598 -9.23156,-14.4437 0,-8.9698 6.965,-16.1917 15.72421,-18.2387 l 8.75934,48.2762 c -3.02208,0.598 -5.73726,1.0349 -8.75934,1.0349 m 15.1104,-2.8059 c -3.16368,-17.5027 -7.24817,-40.9163 -8.31072,-47.4021 15.25212,0 21.76848,10.3038 23.11422,17.3876 0.1653,1.173 0.44862,2.783 0.44862,4.554 0,10.6028 -4.53312,21.2056 -15.25212,25.4605"
     id="path266"
     style="stroke-width:1.49138" />
  <path
     class="Clef"
     d="m 451.13787,993.27314 c 0,-5.45087 -5.12333,-7.79675 -10.10508,-7.79675 -6.35105,0 -12.56053,3.81786 -12.56053,10.44174 0,2.80602 1.06242,4.87587 3.1874,6.92287 -3.94292,1.4719 -7.86224,4.4159 -7.86224,8.9928 0,4.853 4.53312,8.0959 11.1912,8.0959 8.14543,0 13.88269,-4.4159 13.88269,-10.7638 0,-3.381 -1.51104,-6.1639 -4.22622,-8.0959 4.39153,-1.90896 6.49278,-4.25486 6.49278,-7.79686 m -15.1104,23.55156 c -3.30541,0 -5.57197,-2.0469 -5.57197,-5.1519 0,-2.9439 1.34574,-5.2898 3.9192,-6.7618 0.61392,0.299 0.75552,0.299 1.20414,0.5749 1.81794,0.8971 1.81794,0.8971 2.12498,1.196 2.85677,1.6101 4.08449,3.082 4.08449,5.1519 0,2.783 -2.43186,4.9909 -5.76084,4.9909 m 5.76084,-17.66366 c -2.26656,-1.17288 -2.88049,-1.47198 -3.32897,-1.77094 l -0.30704,-0.13785 c -2.26656,-1.33405 -3.02208,-2.369 -3.02208,-4.11697 0,-2.66795 2.12497,-4.57695 5.14705,-4.57695 2.85678,0 4.67472,1.77094 4.67472,4.85295 0,2.369 -0.89712,3.97889 -3.16368,5.74983 m 42.14382,-111.73202 c 0,-22.21762 -16.17282,-37.23632 -38.22462,-37.23632 -1.51104,-8.83184 -2.88036,-17.52576 -4.22609,-25.75954 15.86593,-16.35273 27.03341,-34.89033 27.03341,-58.14294 0,-13.40879 -4.22622,-24.28756 -6.79968,-29.59992 -3.61228,-7.49823 -8.00382,-12.65014 -10.57728,-12.65014 -1.03884,0 -5.87885,1.77079 -10.719,7.49824 -9.82177,11.20025 -12.53681,29.87591 -12.53681,42.24961 0,7.95793 0.75552,15.15677 3.32896,31.80847 -0.1653,0 -8.0274,7.79689 -11.1912,10.44187 -13.76453,12.37371 -32.79427,30.31339 -32.79427,59.61489 0,27.66857 24.62527,49.31113 52.74483,49.31113 4.36781,0 8.45231,-0.43702 12.08832,-1.03493 2.71505,14.0067 4.53313,24.44845 4.53313,32.24534 0,15.31779 -8.16914,23.41365 -23.42113,23.41365 -3.63602,0 -6.79968,-0.73599 -7.10672,-0.89703 -0.14166,0 -0.44848,-0.138 -0.44848,-0.276 0,-0.29895 0.30688,-0.45999 0.75552,-0.59805 7.10656,-1.03495 14.18957,-7.06076 14.18957,-16.32964 0,-7.95792 -6.18589,-16.35273 -17.51869,-16.35273 -10.57728,0 -17.23524,8.39481 -17.23524,18.1007 0,9.72887 7.5552,22.53959 27.95424,22.53959 19.50181,0 29.01667,-10.76381 29.01667,-29.60049 0,-5.72687 -0.8971,-12.35075 -2.40814,-20.74555 -0.44864,-2.94395 -1.20416,-7.52091 -2.26656,-13.10984 14.80336,-4.85294 25.82926,-19.73357 25.82926,-34.89037 M 437.39678,766.72731 c 1.51104,-5.88789 8.31073,-21.34361 16.17296,-21.34361 2.26657,0 6.04417,7.06077 6.04417,17.36458 0,15.15677 -11.78144,26.65656 -22.21713,36.79933 -0.89711,-5.88789 -1.65263,-11.77578 -1.65263,-17.8016 0,-5.58893 0.59021,-10.46484 1.65263,-15.0187 m 4.53313,152.21118 c -21.60305,0 -40.04254,-14.71973 -40.04254,-36.9603 0,-17.93975 12.98553,-33.99338 26.30157,-45.33215 2.54988,-2.07002 4.98176,-4.11695 7.24832,-6.32491 1.34573,7.93482 2.40815,14.71973 3.47056,20.90659 -13.76452,3.81799 -23.11408,18.1007 -23.11408,31.78545 0,10.46481 8.31072,24.58656 20.39904,24.58656 1.204,0 2.57345,-0.59792 2.57345,-2.06989 0,-1.17302 -1.36945,-2.04707 -3.32897,-3.22002 -5.90258,-3.40394 -9.23156,-7.35986 -9.23156,-14.44374 0,-8.96983 6.965,-16.19178 15.72421,-18.23869 l 8.75934,48.27615 c -3.02208,0.59806 -5.73726,1.03495 -8.75934,1.03495 m 15.1104,-2.80589 c -3.16368,-17.50271 -7.24817,-40.91629 -8.31072,-47.40224 15.25212,0 21.76848,10.30388 23.11422,17.38776 0.1653,1.17298 0.44862,2.78295 0.44862,4.55391 0,10.60281 -4.53312,21.20569 -15.25212,25.46057"
     id="path268"
     style="stroke-width:1.49138" />
  <path
     class="TimeSig"
     d="m 551.00819,832.82805 v 10.87891 h -12.53695 c -1.06242,0 -2.12482,0.89688 -2.12482,2.06989 v 2.80602 c 0,1.17288 1.0624,2.04692 2.12482,2.04692 h 45.77983 c 1.22772,0 2.12484,-0.87404 2.12484,-2.04692 v -2.80602 c 0,-1.17301 -0.89712,-2.06989 -2.12484,-2.06989 h -13.59936 v -10.87891 h 13.59936 c 1.22772,0 2.12484,-1.03495 2.12484,-2.20796 v -2.80592 c 0,-1.03498 -0.89712,-2.04696 -2.12484,-2.04696 h -13.59936 v -23.41357 c 0,-0.87399 -0.44862,-1.60998 -1.03884,-1.90897 l -1.81792,-0.89698 c -0.30704,-0.138 -0.44864,-0.138 -0.75553,-0.138 -0.16531,0 -0.16531,0 -0.30703,0 -0.44849,0 -1.06242,0.138 -1.36932,0.43699 l -13.74108,12.21278 c -0.44849,0.45999 -0.6138,1.03498 -0.6138,1.63297 v 12.07478 h -17.51866 c 0,0 16.92845,-17.66368 34.7539,-40.93933 0.61392,-0.73599 0.75552,-1.47197 0.75552,-2.04692 0,-0.73599 -0.3069,-1.33392 -0.44848,-1.47197 l -3.32912,-3.24291 c -0.44849,-0.29897 -0.89712,-0.59807 -1.51104,-0.59807 -0.89712,0 -21.31973,0 -22.52389,0 -1.0624,0 -1.81792,0.89703 -1.95966,1.77107 0,0 -0.75552,10.90175 -4.67478,22.81556 -3.94287,11.93678 -8.47599,19.29665 -12.39525,24.72455 0,0 -0.44859,0.73599 -0.44859,1.63297 0,0.299 0,0.57507 0.14166,0.87402 0.44859,1.03495 1.51104,2.64499 1.51104,2.64499 0,0 0.30693,0.89688 1.6527,0.89688 h 25.99465"
     id="path270"
     style="stroke-width:1.49138" />
  <path
     class="TimeSig"
     d="m 551.00819,906.42672 v 10.87891 h -12.53695 c -1.06242,0 -2.12482,0.89688 -2.12482,2.06988 v 2.80603 c 0,1.17287 1.0624,2.04692 2.12482,2.04692 h 45.77983 c 1.22772,0 2.12484,-0.87405 2.12484,-2.04692 v -2.80603 c 0,-1.173 -0.89712,-2.06988 -2.12484,-2.06988 h -13.59936 v -10.87891 h 13.59936 c 1.22772,0 2.12484,-1.03495 2.12484,-2.20796 v -2.80592 c 0,-1.03498 -0.89712,-2.04696 -2.12484,-2.04696 H 570.65171 V 875.9523 c 0,-0.87398 -0.44862,-1.60997 -1.03884,-1.90896 l -1.81792,-0.89699 c -0.30704,-0.138 -0.44864,-0.138 -0.75553,-0.138 -0.16531,0 -0.16531,0 -0.30703,0 -0.44849,0 -1.06242,0.138 -1.36932,0.437 l -13.74108,12.21277 c -0.44849,0.46 -0.6138,1.03499 -0.6138,1.63298 v 12.07478 h -17.51866 c 0,0 16.92845,-17.66368 34.7539,-40.93934 0.61392,-0.73598 0.75552,-1.47197 0.75552,-2.04691 0,-0.73599 -0.3069,-1.33392 -0.44848,-1.47198 l -3.32912,-3.24291 c -0.44849,-0.29896 -0.89712,-0.59806 -1.51104,-0.59806 -0.89712,0 -21.31973,0 -22.52389,0 -1.0624,0 -1.81792,0.89703 -1.95966,1.77107 0,0 -0.75552,10.90174 -4.67478,22.81556 -3.94287,11.93678 -8.47599,19.29665 -12.39525,24.72455 0,0 -0.44859,0.73598 -0.44859,1.63297 0,0.29899 0,0.57506 0.14166,0.87401 0.44859,1.03495 1.51104,2.645 1.51104,2.645 0,0 0.30693,0.89688 1.6527,0.89688 h 25.99465"
     id="path272"
     style="stroke-width:1.49138" />
  <path
     class="Beam"
     fill-rule="evenodd"
     d="m 2827.772,2746.0973 h 186.5343 v 18.3997 H 2827.772 v -18.3997"
     id="path274"
     style="stroke-width:1.50341" />
  <path
     class="Beam"
     fill-rule="evenodd"
     d="m 1442.9919,942.92709 h 159.9844 v 18.39966 h -159.9844 v -18.39966"
     id="path276"
     style="stroke-width:1.50341" />
  <path
     class="Beam"
     fill-rule="evenodd"
     d="m 1631.4607,2746.0973 h 552.078 v 18.3997 h -552.078 v -18.3997"
     id="path278"
     style="stroke-width:1.50341" />
  <path
     class="Beam"
     fill-rule="evenodd"
     d="m 937.76517,2746.0973 h 186.54193 v 18.3997 H 937.76517 v -18.3997"
     id="path280"
     style="stroke-width:1.50341" />
  <path
     class="Beam"
     fill-rule="evenodd"
     d="m 3454.9299,1844.5137 h 450.4484 v 18.3996 h -450.4484 v -18.3996"
     id="path282"
     style="stroke-width:1.50341" />
  <path
     class="Beam"
     fill-rule="evenodd"
     d="m 3157.1392,1844.5137 h 152.6729 v 18.3996 h -152.6729 v -18.3996"
     id="path284"
     style="stroke-width:1.50341" />
  <path
     class="Beam"
     fill-rule="evenodd"
     d="m 1857.9644,1844.5137 h 152.6729 v 18.3996 h -152.6729 v -18.3996"
     id="path286"
     style="stroke-width:1.50341" />
  <path
     class="Beam"
     fill-rule="evenodd"
     d="m 896.22984,942.92709 h 159.99356 v 18.39966 H 896.22984 v -18.39966"
     id="path288"
     style="stroke-width:1.50341" />
  <path
     class="Beam"
     fill-rule="evenodd"
     d="m 724.47695,1844.5137 h 152.66839 v 18.3996 H 724.47695 v -18.3996"
     id="path290"
     style="stroke-width:1.50341" />
  <path
     class="Beam"
     fill-rule="evenodd"
     d="m 3503.7341,942.92709 h 159.9996 v 18.39966 h -159.9996 v -18.39966"
     id="path292"
     style="stroke-width:1.50341" />
  <path
     class="Beam"
     fill-rule="evenodd"
     d="m 3191.3051,942.92709 h 159.9845 v 18.39966 h -159.9845 v -18.39966"
     id="path294"
     style="stroke-width:1.50341" />
  <path
     class="Beam"
     fill-rule="evenodd"
     d="m 2278.0854,942.92709 h 472.4286 v 18.39966 h -472.4286 v -18.39966"
     id="path296"
     style="stroke-width:1.50341" />
  <metadata
     id="metadata531">
    <rdf:RDF>
      <cc:Work
         rdf:about="">
        <dc:title>ex_rythmique_croche_02</dc:title>
      </cc:Work>
    </rdf:RDF>
  </metadata>
</svg>
