<?xml version="1.0" encoding="UTF-8" standalone="no"?>
<svg
   width="297mm"
   height="210mm"
   viewBox="0 0 4209.4489 2976.378"
   version="1.2"
   id="svg98"
   sodipodi:docname="triolet.svg"
   inkscape:version="1.2.2 (b0a8486541, 2022-12-01)"
   xmlns:inkscape="http://www.inkscape.org/namespaces/inkscape"
   xmlns:sodipodi="http://sodipodi.sourceforge.net/DTD/sodipodi-0.dtd"
   xmlns="http://www.w3.org/2000/svg"
   xmlns:svg="http://www.w3.org/2000/svg"
   xmlns:rdf="http://www.w3.org/1999/02/22-rdf-syntax-ns#"
   xmlns:cc="http://creativecommons.org/ns#"
   xmlns:dc="http://purl.org/dc/elements/1.1/">
  <defs
     id="defs102" />
  <sodipodi:namedview
     id="namedview100"
     pagecolor="#ffffff"
     bordercolor="#000000"
     borderopacity="0.25"
     inkscape:showpageshadow="2"
     inkscape:pageopacity="0.0"
     inkscape:pagecheckerboard="0"
     inkscape:deskcolor="#d1d1d1"
     inkscape:document-units="mm"
     showgrid="false"
     inkscape:zoom="0.42949815"
     inkscape:cx="864.96297"
     inkscape:cy="306.17128"
     inkscape:window-width="1280"
     inkscape:window-height="651"
     inkscape:window-x="0"
     inkscape:window-y="32"
     inkscape:window-maximized="1"
     inkscape:current-layer="svg98" />
  <title
     id="title2">Partition sans titre</title>
  <desc
     id="desc4">Generated by MuseScore Studio 4.5.2</desc>
  <polyline
     class="StaffLines"
     fill="none"
     stroke="#000000"
     stroke-width="2.73"
     stroke-linejoin="bevel"
     points="336.598,634.198 2764.6,634.198"
     id="polyline6"
     transform="matrix(1.6409083,0,0,5.0758753,-504.51738,-2033.3069)" />
  <polyline
     class="StaffLines"
     fill="none"
     stroke="#000000"
     stroke-width="2.73"
     stroke-linejoin="bevel"
     points="336.598,658.998 2764.6,658.998"
     id="polyline8"
     transform="matrix(1.6409083,0,0,5.0758753,-504.51738,-2033.3069)" />
  <polyline
     class="StaffLines"
     fill="none"
     stroke="#000000"
     stroke-width="2.73"
     stroke-linejoin="bevel"
     points="336.598,683.798 2764.6,683.798"
     id="polyline10"
     transform="matrix(1.6409083,0,0,5.0758753,-504.51738,-2033.3069)" />
  <polyline
     class="StaffLines"
     fill="none"
     stroke="#000000"
     stroke-width="2.73"
     stroke-linejoin="bevel"
     points="336.598,708.598 2764.6,708.598"
     id="polyline12"
     transform="matrix(1.6409083,0,0,5.0758753,-504.51738,-2033.3069)" />
  <polyline
     class="StaffLines"
     fill="none"
     stroke="#000000"
     stroke-width="2.73"
     stroke-linejoin="bevel"
     points="336.598,733.398 2764.6,733.398"
     id="polyline14"
     transform="matrix(1.6409083,0,0,5.0758753,-504.51738,-2033.3069)" />
  <polyline
     class="BarLine"
     fill="none"
     stroke="#000000"
     stroke-width="4.46"
     stroke-linejoin="bevel"
     points="2739.55,632.834 2739.55,734.762"
     id="polyline16"
     transform="matrix(1.6409083,0,0,5.0758753,-504.51738,-2033.3069)" />
  <polyline
     class="BarLine"
     fill="none"
     stroke="#000000"
     stroke-width="13.64"
     stroke-linejoin="bevel"
     points="2757.78,632.834 2757.78,734.762"
     id="polyline18"
     transform="matrix(1.6409083,0,0,5.0758753,-504.51738,-2033.3069)" />
  <polyline
     class="BarLine"
     fill="none"
     stroke="#000000"
     stroke-width="4.46"
     stroke-linejoin="bevel"
     points="2134.72,632.834 2134.72,734.762"
     id="polyline20"
     transform="matrix(2.2032756,0,0,5.0758753,-693.80906,-2033.3069)" />
  <polyline
     class="Stem"
     fill="none"
     stroke="#000000"
     stroke-width="2.48"
     stroke-linejoin="bevel"
     points="1231.91,667.43 1231.91,603.255"
     id="polyline22"
     transform="matrix(2.9156757,0,0,5.0758753,-933.60155,-2033.3069)" />
  <polyline
     class="Stem"
     fill="none"
     stroke="#000000"
     stroke-width="2.48"
     stroke-linejoin="bevel"
     points="1098.83,679.83 1098.83,609.342"
     id="polyline24"
     transform="matrix(2.9156757,0,0,5.0758753,-933.60155,-2033.3069)" />
  <polyline
     class="Stem"
     fill="none"
     stroke="#000000"
     stroke-width="2.48"
     stroke-linejoin="bevel"
     points="1364.99,692.23 1364.99,621.742"
     id="polyline26"
     transform="matrix(2.9156757,0,0,5.0758753,-933.60155,-2033.3069)" />
  <polyline
     class="Stem"
     fill="none"
     stroke="#000000"
     stroke-width="2.48"
     stroke-linejoin="bevel"
     points="1498.07,679.83 1498.07,615.655"
     id="polyline28"
     transform="matrix(2.9156757,0,0,5.0758753,-933.60155,-2033.3069)" />
  <polyline
     class="Stem"
     fill="none"
     stroke="#000000"
     stroke-width="2.48"
     stroke-linejoin="bevel"
     points="832.67,667.43 832.67,603.256"
     id="polyline30"
     transform="matrix(2.9156757,0,0,5.0758753,-933.60155,-2033.3069)" />
  <polyline
     class="Stem"
     fill="none"
     stroke="#000000"
     stroke-width="2.48"
     stroke-linejoin="bevel"
     points="699.59,679.83 699.59,609.398"
     id="polyline32"
     transform="matrix(2.9156757,0,0,5.0758753,-933.60155,-2033.3069)" />
  <polyline
     class="Stem"
     fill="none"
     stroke="#000000"
     stroke-width="2.48"
     stroke-linejoin="bevel"
     points="566.51,692.23 566.51,615.541"
     id="polyline36"
     transform="matrix(2.9156757,0,0,5.0758753,-933.60155,-2033.3069)" />
  <path
     class="Note"
     d="m 3343.9571,1458.7304 c 0,21.6359 8.9484,45.7895 32.4036,45.7895 30.0532,0 61.5978,-42.7998 61.5978,-87.0945 0,-29.7395 -14.4617,-46.3401 -32.4032,-46.3401 -28.0651,0 -61.5982,41.3049 -61.5982,87.6451"
     id="path40"
     style="stroke-width:3.81625" />
  <path
     class="Note"
     d="m 2955.9392,1521.6712 c 0,21.6359 8.948,45.7896 32.4033,45.7896 30.0532,0 61.5979,-42.7999 61.5979,-87.0945 0,-29.7396 -14.4617,-46.3401 -32.4034,-46.3401 -28.0647,0 -61.5978,41.3048 -61.5978,87.645"
     id="path42"
     style="stroke-width:3.81625" />
  <path
     class="Note"
     d="m 2567.9209,1395.7895 c 0,21.6359 8.9482,45.7896 32.4033,45.7896 30.0533,0 61.5983,-42.7999 61.5983,-87.0945 0,-29.7396 -14.4621,-46.3401 -32.4036,-46.3401 -28.0647,0 -61.598,41.3048 -61.598,87.645"
     id="path46"
     style="stroke-width:3.81625" />
  <path
     class="Note"
     d="m 2179.9029,1458.7304 c 0,21.6359 8.948,45.7895 32.4033,45.7895 30.0534,0 61.5979,-42.7998 61.5979,-87.0945 0,-29.7395 -14.4617,-46.3401 -32.4033,-46.3401 -28.0649,0 -61.5979,41.3049 -61.5979,87.6451"
     id="path48"
     style="stroke-width:3.81625" />
  <path
     class="Note"
     d="m 1403.8548,1395.7895 c 0,21.6359 8.9483,45.7896 32.4034,45.7896 30.0535,0 61.5981,-42.7999 61.5981,-87.0945 0,-29.7396 -14.4619,-46.3401 -32.4034,-46.3401 -28.0648,0 -61.5981,41.3048 -61.5981,87.645"
     id="path50"
     style="stroke-width:3.81625" />
  <path
     class="Note"
     d="m 1015.8367,1458.7304 c 0,21.6359 8.9482,45.7895 32.4033,45.7895 30.0535,0 61.5981,-42.7998 61.5981,-87.0945 0,-29.7395 -14.4618,-46.3401 -32.4033,-46.3401 -28.0648,0 -61.5981,41.3049 -61.5981,87.6451"
     id="path52"
     style="stroke-width:3.81625" />
  <path
     class="Note"
     d="m 627.81568,1521.6712 c 0,21.6359 8.94821,45.7896 32.40329,45.7896 30.05354,0 61.59811,-42.7999 61.59811,-87.0945 0,-29.7396 -14.46174,-46.3401 -32.40332,-46.3401 -28.06474,0 -61.59808,41.3048 -61.59808,87.645"
     id="path54"
     style="stroke-width:3.81625" />
  <path
     class="Clef"
     d="m 224.37807,1924.4926 c 0,-18.6461 -9.80677,-26.6708 -19.34259,-26.6708 -12.15684,0 -24.04267,13.06 -24.04267,35.7186 0,9.5988 2.03363,16.6794 6.10114,23.6815 -7.54731,5.0353 -15.04945,15.1057 -15.04945,30.7624 0,16.6007 8.67704,27.6939 21.42157,27.6939 15.59152,0 26.57346,-15.1057 26.57346,-36.8203 0,-11.5655 -2.89233,-21.0852 -8.08957,-27.694 8.40601,-6.5302 12.42811,-14.5549 12.42811,-26.6713 m -28.9235,80.5643 c -6.32701,0 -10.66555,-7.0021 -10.66555,-17.6234 0,-10.0706 2.57593,-18.0953 7.50192,-23.1306 1.17513,1.0227 1.44618,1.0227 2.30489,1.9668 3.4798,3.0685 3.4798,3.0685 4.06752,4.0912 5.46828,5.5076 7.81831,10.5428 7.81831,17.6234 0,9.5197 -4.65494,17.0726 -11.02709,17.0726 m 11.02709,-60.4232 c -4.33852,-4.0121 -5.51367,-5.0353 -6.37214,-6.058 l -0.5877,-0.4715 c -4.33852,-4.5635 -5.7847,-8.1038 -5.7847,-14.0832 0,-9.1264 4.06748,-15.6566 9.85219,-15.6566 5.46828,0 8.94807,6.0579 8.94807,16.6007 0,8.1038 -1.71721,13.6109 -6.05572,19.6688 m 80.66939,-382.2085 c 0,-76.0012 -30.95713,-127.3765 -73.16749,-127.3765 -2.89234,-30.2116 -5.51342,-59.9514 -8.08934,-88.1172 30.36969,-55.9387 51.74587,-119.3515 51.74587,-198.8931 0,-45.8682 -8.08959,-83.0819 -13.01556,-101.2542 -6.91445,-25.6497 -15.32049,-43.2731 -20.24646,-43.2731 -1.98848,0 -11.25298,6.0574 -20.51773,25.6496 -18.80028,38.3134 -23.99725,102.1984 -23.99725,144.5259 0,27.2221 1.44618,51.8476 6.37212,108.8091 -0.31642,0 -15.36562,26.6713 -21.42158,35.7191 -26.34731,42.3276 -62.773,103.6949 -62.773,203.9284 0,94.6475 47.13632,168.6815 100.96125,168.6815 8.36062,0 16.17894,-1.4949 23.1388,-3.5403 5.19698,47.9136 8.67705,83.6323 8.67705,110.3036 0,52.3986 -15.63691,80.0925 -44.83142,80.0925 -6.95987,0 -13.01558,-2.5176 -13.60329,-3.0685 -0.27116,0 -0.85846,-0.472 -0.85846,-0.9441 0,-1.0227 0.58741,-1.5735 1.44617,-2.0458 13.60299,-3.5403 27.1609,-24.1532 27.1609,-55.8598 0,-27.2221 -11.84069,-55.9388 -33.53332,-55.9388 -20.24645,0 -32.99076,28.7167 -32.99076,61.9181 0,33.2802 14.46176,77.1026 53.50849,77.1026 37.32929,0 55.5421,-36.8204 55.5421,-101.2562 0,-19.5902 -1.71718,-42.2489 -4.60952,-70.9656 -0.85875,-10.0705 -2.30496,-25.7272 -4.33854,-44.8456 28.33578,-16.6007 49.44097,-67.5038 49.44097,-119.3516 m -89.07542,-412.8919 c 2.89236,-20.141 15.90793,-73.0113 30.95741,-73.0113 4.33851,0 11.5694,24.1531 11.5694,59.4 0,51.8477 -22.55139,91.1857 -42.52681,125.8817 -1.7172,-20.141 -3.16336,-40.2822 -3.16336,-60.895 0,-19.1184 1.12975,-35.7977 3.16336,-51.3754 m 8.67707,520.6781 c -41.35137,0 -76.64722,-50.3527 -76.64722,-126.4324 0,-61.3676 24.85618,-116.2832 50.34502,-155.0704 4.88085,-7.081 9.53581,-14.0831 13.87435,-21.636 2.5759,27.1431 4.60952,50.3526 6.64314,71.5164 -26.34731,13.0605 -44.24371,61.9182 -44.24371,108.7305 0,35.7976 15.90793,84.1047 39.04674,84.1047 2.30461,0 4.92593,-2.0453 4.92593,-7.0806 0,-4.0126 -2.62132,-7.0026 -6.3721,-11.0149 -11.29841,-11.6441 -17.67055,-25.1764 -17.67055,-49.4086 0,-30.6836 13.33201,-55.3882 30.0984,-62.3902 l 16.76665,165.1411 c -5.78471,2.0459 -10.98197,3.5404 -16.76665,3.5404 m 28.9235,-9.5983 c -6.05574,-59.8726 -13.87403,-139.9648 -15.90794,-162.1517 29.19479,0 41.66804,35.2471 44.24398,59.4793 0.31642,4.0125 0.85873,9.5198 0.85873,15.5779 0,36.2697 -8.67705,72.5396 -29.19477,87.0945"
     id="path56"
     style="stroke-width:3.81625" />
  <path
     class="TimeSig"
     d="m 415.54434,1375.6484 v 37.2141 h -23.99752 c -2.03361,0 -4.06722,3.068 -4.06722,7.0806 v 9.5988 c 0,4.0121 2.03361,7.0019 4.06722,7.0019 h 87.62925 c 2.35001,0 4.06724,-2.9898 4.06724,-7.0019 v -9.5988 c 0,-4.0126 -1.71723,-7.0806 -4.06724,-7.0806 h -26.03116 v -37.2141 h 26.03116 c 2.35001,0 4.06724,-3.5403 4.06724,-7.5529 v -9.5984 c 0,-3.5405 -1.71723,-7.0022 -4.06724,-7.0022 h -26.03116 v -80.0922 c 0,-2.9897 -0.85875,-5.5073 -1.98851,-6.5302 l -3.47976,-3.0683 c -0.58771,-0.4721 -0.85875,-0.4721 -1.44617,-0.4721 -0.31643,0 -0.31643,0 -0.58773,0 -0.85846,0 -2.03362,0.4721 -2.62108,1.4949 l -26.30241,41.777 c -0.85846,1.5735 -1.17491,3.5404 -1.17491,5.586 v 41.3049 H 382.0111 c 0,0 32.40352,-60.4232 66.52401,-140.0436 1.17512,-2.5177 1.44617,-5.0353 1.44617,-7.0021 0,-2.5176 -0.58746,-4.563 -0.85846,-5.0353 l -6.37242,-11.0932 c -0.85847,-1.0227 -1.71721,-2.0458 -2.89235,-2.0458 -1.71722,0 -40.80906,0 -43.11398,0 -2.03359,0 -3.47976,3.0685 -3.75109,6.0584 0,0 -1.44616,37.2922 -8.9482,78.0466 -7.54721,40.8328 -16.22429,66.0093 -23.7263,84.5767 0,0 -0.85866,2.5177 -0.85866,5.586 0,1.0229 0,1.9672 0.27115,2.9899 0.85866,3.5403 2.89234,9.0479 2.89234,9.0479 0,0 0.58751,3.068 3.16351,3.068 h 49.75752"
     id="path58"
     style="stroke-width:3.81625" />
  <path
     class="TimeSig"
     d="m 415.54434,1627.4118 v 37.2141 h -23.99752 c -2.03361,0 -4.06722,3.0681 -4.06722,7.0806 v 9.5988 c 0,4.0121 2.03361,7.002 4.06722,7.002 h 87.62925 c 2.35001,0 4.06724,-2.9899 4.06724,-7.002 v -9.5988 c 0,-4.0125 -1.71723,-7.0806 -4.06724,-7.0806 h -26.03116 v -37.2141 h 26.03116 c 2.35001,0 4.06724,-3.5403 4.06724,-7.5529 v -9.5984 c 0,-3.5405 -1.71723,-7.0022 -4.06724,-7.0022 h -26.03116 v -80.0922 c 0,-2.9897 -0.85875,-5.5073 -1.98851,-6.5301 l -3.47976,-3.0684 c -0.58771,-0.4721 -0.85875,-0.4721 -1.44617,-0.4721 -0.31643,0 -0.31643,0 -0.58773,0 -0.85846,0 -2.03362,0.4721 -2.62108,1.4949 l -26.30241,41.777 c -0.85846,1.5735 -1.17491,3.5404 -1.17491,5.586 v 41.3049 H 382.0111 c 0,0 32.40352,-60.4232 66.52401,-140.0436 1.17512,-2.5176 1.44617,-5.0353 1.44617,-7.0021 0,-2.5176 -0.58746,-4.5629 -0.85846,-5.0352 l -6.37242,-11.0933 c -0.85847,-1.0226 -1.71721,-2.0457 -2.89235,-2.0457 -1.71722,0 -40.80906,0 -43.11398,0 -2.03359,0 -3.47976,3.0685 -3.75109,6.0583 0,0 -1.44616,37.2923 -8.9482,78.0467 -7.54721,40.8328 -16.22429,66.0091 -23.7263,84.5766 0,0 -0.85866,2.5177 -0.85866,5.5861 0,1.0228 0,1.9671 0.27115,2.9898 0.85866,3.5403 2.89234,9.0479 2.89234,9.0479 0,0 0.58751,3.068 3.16351,3.068 h 49.75752"
     id="path60"
     style="stroke-width:3.81625" />
  <path
     class="Rest"
     d="m 1869.1078,1335.3662 c -0.2712,0 -0.8585,-0.5508 -1.1749,-0.5508 -1.7174,0 -3.1637,1.5735 -3.7509,4.0911 -1.1753,2.99 -10.1235,32.7292 -23.1389,49.3302 -3.7512,5.0352 -8.406,8.5757 -13.0158,10.0705 3.1639,-6.5301 5.1973,-14.6337 5.1973,-24.1539 0,-19.6687 -9.2644,-35.7972 -20.5176,-35.7972 -11.5695,0 -20.834,16.1285 -20.834,35.7972 0,15.5782 5.5135,28.1664 13.0157,33.6737 4.3384,3.5404 10.123,6.0581 15.9079,6.0581 8.406,0 17.3541,-4.4846 25.1723,-14.5551 3.4801,-4.5632 6.9147,-10.6213 10.1233,-16.6796 l -32.9907,179.3029 7.8183,4.0126 40.493,-222.0242 c 0.3164,-0.5503 0.3164,-1.5734 0.3164,-2.5176 0,-2.5176 -0.904,-4.5629 -2.6214,-6.0579"
     id="path62"
     style="stroke-width:3.81625" />
  <path
     class="Rest"
     d="m 3809.2102,1335.3662 c -0.2712,0 -0.8588,-0.5508 -1.1752,-0.5508 -1.7173,0 -3.1633,1.5735 -3.7509,4.0911 -1.1751,2.99 -10.1232,32.7292 -23.1389,49.3302 -3.7511,5.0352 -8.4058,8.5757 -13.0155,10.0705 3.1635,-6.5301 5.1972,-14.6337 5.1972,-24.1539 0,-19.6687 -9.2645,-35.7972 -20.5176,-35.7972 -11.5694,0 -20.8341,16.1285 -20.8341,35.7972 0,15.5782 5.5136,28.1664 13.0156,33.6737 4.3385,3.5404 10.1233,6.0581 15.9079,6.0581 8.406,0 17.3543,-4.4846 25.1727,-14.5551 3.4797,-4.5632 6.9145,-10.6213 10.123,-16.6796 l -32.9909,179.3029 7.8185,4.0126 40.493,-222.0242 c 0.3161,-0.5503 0.3161,-1.5734 0.3161,-2.5176 0,-2.5176 -0.9036,-4.5629 -2.6209,-6.0579"
     id="path66"
     style="stroke-width:3.81625" />
  <path
     class="Beam"
     fill-rule="evenodd"
     d="m 3042.6514,1091.3614 395.2487,-31.4705 v 63.0069 l -395.2487,31.4704 v -63.0068"
     id="path72"
     style="stroke-width:3.84702" />
  <path
     class="Beam"
     fill-rule="evenodd"
     d="m 2266.615,1028.4205 395.2489,-31.47041 v 63.00681 l -395.2489,31.4705 v -63.0069"
     id="path74"
     style="stroke-width:3.84702" />
  <path
     class="Beam"
     fill-rule="evenodd"
     d="m 714.54246,1059.8909 783.26704,-62.94081 v 63.00681 l -783.26704,62.9409 v -63.0069"
     id="path76"
     style="stroke-width:3.84702" />
  <path
     class="Tuplet"
     d="m 1115.0892,866.65745 c 6.1958,-3.40592 8.6567,-5.30937 11.7998,-8.95893 6.1958,-7.06053 9.9774,-19.59287 9.9774,-32.43992 0,-21.6486 -9.9774,-36.24174 -24.6462,-36.24174 -14.3072,0 -26.3781,15.46111 -26.3781,34.26215 0,9.35484 3.2801,15.69969 8.2455,15.69969 4.3269,0 7.5166,-5.47179 7.5166,-13.00439 0,-3.88812 -0.6822,-6.58342 -2.7786,-10.23297 -1.3208,-2.0608 -1.8223,-3.72569 -1.8223,-5.31444 0,-5.4718 6.5603,-11.18215 12.7094,-11.18215 8.7937,0 14.0332,8.48686 14.0332,22.60287 0,20.38471 -8.2455,39.50046 -17.0392,39.50046 -0.4111,0 -1.5949,-0.16243 -3.0061,-0.401 -3.8283,-0.47205 -3.8283,-0.47205 -4.6009,-0.47205 -2.9157,0 -4.4668,2.29937 -4.4668,6.42098 0,3.64956 1.4578,5.87279 3.7816,5.87279 0.6852,0 1.5949,-0.16243 2.6445,-0.401 1.8223,-0.71062 3.8254,-0.94919 4.9654,-0.94919 6.1958,0 10.3856,9.59848 10.3856,23.79064 0,24.66875 -6.9684,48.38323 -22.8239,48.38323 -7.3358,0 -13.6658,-6.34484 -13.6658,-13.72008 0,-2.4618 0.5453,-3.41099 2.6416,-4.99974 3.7817,-2.93386 5.3766,-7.05546 5.3766,-13.24296 0,-8.00973 -3.6913,-14.11601 -8.3826,-14.11601 -5.6506,0 -9.3418,7.68995 -9.3418,19.58781 0,22.20694 9.7062,36.08439 25.4684,36.08439 19.8179,0 34.8977,-23.08001 34.8977,-53.69261 0,-17.76556 -6.2891,-27.8361 -15.491,-32.83583"
     id="path84"
     style="stroke-width:3.84702" />
  <path
     class="Tuplet"
     d="m 3421.6599,898.4172 c 6.2103,-3.41099 8.6596,-5.31444 11.8087,-8.95893 6.181,-7.06053 9.9713,-19.59287 9.9713,-32.43992 0,-21.65368 -9.9713,-36.24682 -24.6372,-36.24682 -14.3161,0 -26.387,15.46619 -26.387,34.26216 0,9.35992 3.2949,15.70476 8.2513,15.70476 4.3153,0 7.5224,-5.47179 7.5224,-13.00439 0,-3.88812 -0.6995,-6.58342 -2.7989,-10.23297 -1.3122,-2.0608 -1.8079,-3.72569 -1.8079,-5.31444 0,-5.4718 6.5606,-11.18215 12.7124,-11.18215 8.7763,0 14.0245,8.48686 14.0245,22.60287 0,20.38471 -8.2514,39.49539 -17.0275,39.49539 -0.4084,0 -1.6038,-0.15736 -3.0032,-0.39593 -3.8487,-0.47712 -3.8487,-0.47712 -4.6068,-0.47712 -2.9157,0 -4.4611,2.30444 -4.4611,6.42605 0,3.64956 1.4581,5.86771 3.7614,5.86771 0.6997,0 1.6036,-0.15735 2.6532,-0.39591 1.8369,-0.71062 3.8196,-0.94919 4.9567,-0.94919 6.2105,0 10.4088,9.59341 10.4088,23.79063 0,24.66875 -6.9683,48.37816 -22.8295,48.37816 -7.3474,0 -13.6747,-6.34484 -13.6747,-13.72008 0,-2.45673 0.554,-3.411 2.6533,-4.99467 3.7613,-2.93386 5.365,-7.06054 5.365,-13.24296 0,-8.0148 -3.703,-14.12108 -8.368,-14.12108 -5.6566,0 -9.3594,7.69502 -9.3594,19.59288 0,22.20695 9.7091,36.0844 25.4829,36.0844 19.7975,0 34.9007,-23.08002 34.9007,-53.69261 0,-17.76557 -6.2978,-27.8361 -15.5114,-32.83584"
     id="path86"
     style="stroke-width:3.84702" />
  <polyline
     class="Tuplet"
     fill="none"
     stroke="#000000"
     stroke-width="2.48"
     stroke-linejoin="miter"
     stroke-miterlimit="2"
     points="1352.59,597.055 1352.59,578.455 1465.05,578.455"
     id="polyline88"
     transform="matrix(2.9156757,0,0,5.0758753,-933.60155,-2033.3069)" />
  <polyline
     class="Tuplet"
     fill="none"
     stroke="#000000"
     stroke-width="2.48"
     stroke-linejoin="miter"
     stroke-miterlimit="2"
     points="1513.85,578.455 1626.3,578.455 1626.3,597.055"
     id="polyline90"
     transform="matrix(2.9156757,0,0,5.0758753,-933.60155,-2033.3069)" />
  <path
     class="Tuplet"
     d="m 2257.4889,835.47634 c 6.1814,-3.41098 8.6304,-5.31443 11.7793,-8.95892 6.2105,-7.06054 9.9715,-19.59287 9.9715,-32.43991 0,-21.65369 -9.9715,-36.24683 -24.6374,-36.24683 -14.3159,0 -26.3868,15.46619 -26.3868,34.26216 0,9.35991 3.2948,15.70475 8.2514,15.70475 4.3443,0 7.5225,-5.47178 7.5225,-13.00438 0,-3.88813 -0.6705,-6.58341 -2.7699,-10.23297 -1.3412,-2.06081 -1.837,-3.72569 -1.837,-5.31445 0,-5.47178 6.5604,-11.18215 12.7124,-11.18215 8.8054,0 14.0244,8.48687 14.0244,22.60288 0,20.38471 -8.222,39.49539 -17.0274,39.49539 -0.4084,0 -1.6038,-0.15736 -3.0033,-0.39593 -3.8196,-0.47713 -3.8196,-0.47713 -4.6068,-0.47713 -2.9156,0 -4.4609,2.30445 -4.4609,6.42606 0,3.64956 1.4578,5.86771 3.7903,5.86771 0.6706,0 1.5746,-0.15735 2.6242,-0.39592 1.8369,-0.71062 3.8486,-0.94919 4.9857,-0.94919 6.1812,0 10.3798,9.59341 10.3798,23.79063 0,24.66875 -6.9685,48.37817 -22.8297,48.37817 -7.3474,0 -13.6745,-6.34485 -13.6745,-13.72009 0,-2.45673 0.5541,-3.41099 2.6532,-4.99466 3.7904,-2.93386 5.365,-7.06055 5.365,-13.24296 0,-8.01481 -3.6739,-14.12109 -8.3681,-14.12109 -5.6564,0 -9.3593,7.69503 -9.3593,19.59288 0,22.20696 9.7092,36.0844 25.483,36.0844 19.8268,0 34.9005,-23.08001 34.9005,-53.69261 0,-17.76556 -6.2977,-27.8361 -15.4821,-32.83584"
     id="path92"
     style="stroke-width:3.84702" />
  <polyline
     class="Tuplet"
     fill="none"
     stroke="#000000"
     stroke-width="2.48"
     stroke-linejoin="miter"
     stroke-miterlimit="2"
     points="936.006,584.655 936.006,566.055 1065.76,566.055"
     id="polyline94"
     transform="matrix(2.9156757,0,0,5.0758753,-933.60155,-2033.3069)" />
  <polyline
     class="Tuplet"
     fill="none"
     stroke="#000000"
     stroke-width="2.48"
     stroke-linejoin="miter"
     stroke-miterlimit="2"
     points="1114.56,566.055 1244.31,566.055 1244.31,584.655"
     id="polyline96"
     transform="matrix(2.9156757,0,0,5.0758753,-933.60155,-2033.3069)" />
  <metadata
     id="metadata781">
    <rdf:RDF>
      <cc:Work
         rdf:about="">
        <dc:title>Partition sans titre</dc:title>
      </cc:Work>
    </rdf:RDF>
  </metadata>
  <text
     xml:space="preserve"
     style="font-size:240px;font-family:sans-serif;-inkscape-font-specification:sans-serif;fill:#000000;stroke:#000000;stroke-width:1.41732"
     x="1746.7683"
     y="309.53128"
     id="text3993"><tspan
       sodipodi:role="line"
       id="tspan3991"
       style="font-size:240px;stroke-width:1.41732"
       x="1746.7683"
       y="309.53128">Triolet</tspan></text>
  <path
     style="fill:#000000;stroke:#000000;stroke-width:9.92126004;stroke-dasharray:none"
     d="m 1945.7708,391.08796 c -47.8124,28.91741 -655.3574,379.62939 -655.3574,379.62939 z"
     id="path4058" />
  <path
     style="fill:#000000;stroke:#000000;stroke-width:9.92126;stroke-dasharray:none"
     d="m 1292.3064,769.6094 47.0897,-63.63388 z"
     id="path4123"
     inkscape:transform-center-x="11.562303"
     inkscape:transform-center-y="-0.82602685" />
  <path
     style="fill:#000000;stroke:#000000;stroke-width:9.92126;stroke-dasharray:none"
     d="m 1291.6702,768.18481 c 1.6979,0.12975 66.9026,9.84225 66.9026,9.84225 z"
     id="path4125" />
  <path
     style="fill:#000000;stroke:#000000;stroke-width:9.92126;stroke-dasharray:none;marker-mid:"
     d="m 2196.4174,378.33072 3.7884,360.5498 z"
     id="path4175" />
  <path
     style="fill:#000000;stroke:#000000;stroke-width:9.92126;stroke-dasharray:none"
     d="m 2197.864,731.33657 -38.3194,-71.44148 z"
     id="path4412" />
  <path
     style="fill:#000000;stroke:#000000;stroke-width:9.92126;stroke-dasharray:none"
     d="m 2197.8391,732.09883 32.8357,-66.12956 z"
     id="path4414" />
  <path
     style="fill:#000000;stroke:#000000;stroke-width:9.92126;stroke-dasharray:none"
     d="m 2391.4348,384.55171 911.7877,372.57564 z"
     id="path4467" />
  <path
     style="fill:#000000;stroke:#000000;stroke-width:9.92126;stroke-dasharray:none"
     d="m 3293.8738,751.61916 -53.4219,-75.85362 z"
     id="path4469" />
  <path
     style="fill:#000000;stroke:#000000;stroke-width:9.92126;stroke-dasharray:none"
     d="m 3296.4056,753.08406 c -5.7171,-1.1385 -69.2155,11.55457 -69.2155,11.55457 z"
     id="path4471" />
</svg>
