<?xml version="1.0" encoding="UTF-8" standalone="no"?>
<svg
   width="297mm"
   height="210mm"
   viewBox="0 0 1122.5197 793.7008"
   version="1.2"
   id="svg139"
   sodipodi:docname="alouette_gentille_alouette.svg"
   inkscape:version="1.3 (0e150ed6c4, 2023-07-21)"
   xmlns:inkscape="http://www.inkscape.org/namespaces/inkscape"
   xmlns:sodipodi="http://sodipodi.sourceforge.net/DTD/sodipodi-0.dtd"
   xmlns="http://www.w3.org/2000/svg"
   xmlns:svg="http://www.w3.org/2000/svg"
   xmlns:rdf="http://www.w3.org/1999/02/22-rdf-syntax-ns#"
   xmlns:cc="http://creativecommons.org/ns#"
   xmlns:dc="http://purl.org/dc/elements/1.1/">
  <defs
     id="defs139" />
  <sodipodi:namedview
     id="namedview139"
     pagecolor="#ffffff"
     bordercolor="#000000"
     borderopacity="0.25"
     inkscape:showpageshadow="2"
     inkscape:pageopacity="0.0"
     inkscape:pagecheckerboard="0"
     inkscape:deskcolor="#d1d1d1"
     inkscape:zoom="0.56078321"
     inkscape:cx="598.27041"
     inkscape:cy="390.52525"
     inkscape:window-width="1440"
     inkscape:window-height="872"
     inkscape:window-x="-8"
     inkscape:window-y="-8"
     inkscape:window-maximized="1"
     inkscape:current-layer="svg139"
     inkscape:document-units="mm" />
  <title
     id="title1">alouette_gentille_alouette</title>
  <desc
     id="desc1">Generated by MuseScore Studio 4.3.2</desc>
  <polyline
     class="StaffLines"
     fill="none"
     stroke="#000000"
     stroke-width="2.73"
     stroke-linejoin="bevel"
     points="336.598,634.198 2764.6,634.198"
     id="polyline1"
     transform="matrix(0.42491923,0,0,0.42491923,-75.676434,-0.25095312)" />
  <polyline
     class="StaffLines"
     fill="none"
     stroke="#000000"
     stroke-width="2.73"
     stroke-linejoin="bevel"
     points="336.598,658.998 2764.6,658.998"
     id="polyline2"
     transform="matrix(0.42491923,0,0,0.42491923,-75.676434,-0.25095312)" />
  <polyline
     class="StaffLines"
     fill="none"
     stroke="#000000"
     stroke-width="2.73"
     stroke-linejoin="bevel"
     points="336.598,683.798 2764.6,683.798"
     id="polyline3"
     transform="matrix(0.42491923,0,0,0.42491923,-75.676434,-0.25095312)" />
  <polyline
     class="StaffLines"
     fill="none"
     stroke="#000000"
     stroke-width="2.73"
     stroke-linejoin="bevel"
     points="336.598,708.598 2764.6,708.598"
     id="polyline4"
     transform="matrix(0.42491923,0,0,0.42491923,-75.676434,-0.25095312)" />
  <polyline
     class="StaffLines"
     fill="none"
     stroke="#000000"
     stroke-width="2.73"
     stroke-linejoin="bevel"
     points="336.598,733.398 2764.6,733.398"
     id="polyline5"
     transform="matrix(0.42491923,0,0,0.42491923,-75.676434,-0.25095312)" />
  <polyline
     class="StaffLines"
     fill="none"
     stroke="#000000"
     stroke-width="2.73"
     stroke-linejoin="bevel"
     points="212.598,1316.2 2764.6,1316.2"
     id="polyline6"
     transform="matrix(0.42491923,0,0,0.42491923,-75.676434,-0.25095312)" />
  <polyline
     class="StaffLines"
     fill="none"
     stroke="#000000"
     stroke-width="2.73"
     stroke-linejoin="bevel"
     points="212.598,1341 2764.6,1341"
     id="polyline7"
     transform="matrix(0.42491923,0,0,0.42491923,-75.676434,-0.25095312)" />
  <polyline
     class="StaffLines"
     fill="none"
     stroke="#000000"
     stroke-width="2.73"
     stroke-linejoin="bevel"
     points="212.598,1365.8 2764.6,1365.8"
     id="polyline8"
     transform="matrix(0.42491923,0,0,0.42491923,-75.676434,-0.25095312)" />
  <polyline
     class="StaffLines"
     fill="none"
     stroke="#000000"
     stroke-width="2.73"
     stroke-linejoin="bevel"
     points="212.598,1390.6 2764.6,1390.6"
     id="polyline9"
     transform="matrix(0.42491923,0,0,0.42491923,-75.676434,-0.25095312)" />
  <polyline
     class="StaffLines"
     fill="none"
     stroke="#000000"
     stroke-width="2.73"
     stroke-linejoin="bevel"
     points="212.598,1415.4 2764.6,1415.4"
     id="polyline10"
     transform="matrix(0.42491923,0,0,0.42491923,-75.676434,-0.25095312)" />
  <path
     class="Text"
     d="m 294.29098,90.530912 h -1.96526 l -10.74918,27.247938 c -1.26158,3.64496 -2.47643,4.76717 -5.13898,4.95329 h -0.1861 v 2.19725 h 12.38256 v -2.19725 h -0.9361 c -2.52316,0 -3.78432,-0.88978 -3.78432,-2.66254 0,-0.61103 0.13932,-1.16853 0.42492,-1.96526 l 1.54033,-4.10982 h 12.38894 l 2.52275,6.26077 c 0.27917,0.75041 0.3718,1.02915 0.3718,1.26159 0,0.75039 -1.16852,1.21526 -2.89455,1.21526 h -1.96525 v 2.19725 h 14.4872 v -2.19725 h -0.65098 c -2.42969,-0.0466 -2.85461,-0.32547 -3.9305,-2.98803 L 294.29098,90.530912 m -2.29075,7.662143 5.28473,13.271925 h -10.47001 l 5.18528,-13.271925 m 27.72599,-7.715256 -8.64456,0.517976 v 2.011562 h 2.29073 c 1.72603,0.04665 1.95846,0.325489 1.95846,2.337051 v 26.033122 c -0.0463,0.70365 -0.0931,0.98284 -0.27875,1.21483 -0.32548,0.41855 -1.21485,0.61104 -3.22683,0.65735 h -0.32507 v 1.6797 h 12.10341 v -1.6797 h -0.3255 c -3.12697,-0.0994 -3.55189,-0.33186 -3.55189,-2.01156 V 90.477799 m 17.11617,11.970831 c -5.74958,0 -10.19126,5.09266 -10.19126,11.63896 0,6.40013 4.488,11.54589 10.0982,11.54589 5.61064,0 10.09863,-5.14576 10.09863,-11.59263 0,-6.40694 -4.48799,-11.59222 -10.00557,-11.59222 m 0,2.00518 c 3.27315,0 5.09266,3.41253 5.09266,9.58704 0,6.21444 -1.81951,9.58065 -5.18572,9.58065 -3.36579,0 -5.18528,-3.36621 -5.18528,-9.53391 0,-6.36062 1.77275,-9.63378 5.27834,-9.63378 m 30.84616,20.80107 8.51112,-0.32549 v -2.01156 h -1.16851 c -2.71523,-0.093 -2.94894,-0.37181 -2.94894,-3.41253 v -16.35938 l -8.78308,0.51796 v 2.01158 h 2.38378 c 1.77192,0.0463 2.00563,0.32549 2.00563,2.33705 v 5.74322 c 0,4.06988 -0.97732,9.02273 -6.1231,9.02273 -1.44471,0 -2.65999,-0.51119 -3.27187,-1.44727 -0.60337,-0.88978 -0.69686,-1.35465 -0.69686,-3.92413 v -14.26114 l -8.1797,0.51796 v 2.01158 h 1.77191 c 1.78042,0.0463 2.01413,0.32549 2.01413,2.33705 v 10.09183 c 0,2.38338 0.18271,3.45926 0.88807,4.53474 1.26201,1.91852 3.50559,2.9944 6.30581,2.9944 3.08916,0 5.23925,-1.26157 7.29161,-4.25597 v 3.87737 m 30.95111,-10.84224 c 0.0468,-7.01115 -3.93049,-11.96401 -9.63291,-11.96401 -5.98286,0 -10.47001,5.18528 -10.47001,12.19645 0,6.59305 4.25769,10.9884 10.56349,10.9884 4.48715,0 7.62305,-2.19767 9.53943,-6.63936 l -1.63593,-0.88978 c -1.91213,3.59864 -3.87952,4.9996 -7.01117,4.9996 -2.3838,0 -4.11323,-0.97604 -5.32848,-3.08066 -0.84135,-1.40095 -1.21527,-3.04114 -1.16853,-5.61064 h 15.14411 m -15.09738,-2.01156 c 0,-3.27315 1.49572,-7.94727 5.41772,-7.94727 2.80872,0 4.67411,2.48324 4.67411,6.26757 0,1.30789 -0.41641,1.6797 -1.91213,1.6797 h -8.1797 m 24.95126,-9.25516 v -9.255159 h -1.91638 c -0.46741,6.08144 -2.52402,9.162099 -6.31004,9.447649 v 1.81907 h 3.83276 v 11.91772 c 0,3.27315 0.0935,4.44168 0.55665,5.51714 0.7521,1.96526 2.62174,3.04114 5.33272,3.04114 4.20671,0 6.91769,-3.18051 6.91769,-8.13336 0,-0.28556 0,-0.61062 -0.0466,-1.07548 h -1.96737 c -0.1359,4.20246 -1.35125,6.35382 -3.64156,6.35382 -1.07504,0 -2.01411,-0.55792 -2.33705,-1.35465 -0.28046,-0.65692 -0.42067,-1.82545 -0.42067,-3.50558 v -12.76075 h 6.87095 v -2.01156 h -6.87095 m 18.27153,0 v -9.255159 h -1.91639 c -0.46742,6.08144 -2.52402,9.162099 -6.31005,9.447649 v 1.81907 h 3.83277 v 11.91772 c 0,3.27315 0.0934,4.44168 0.55664,5.51714 0.75212,1.96526 2.62176,3.04114 5.33274,3.04114 4.20669,0 6.91768,-3.18051 6.91768,-8.13336 0,-0.28556 0,-0.61062 -0.0468,-1.07548 h -1.96738 c -0.13589,4.20246 -1.35124,6.35382 -3.64155,6.35382 -1.07506,0 -2.01411,-0.55792 -2.33705,-1.35465 -0.28046,-0.65692 -0.42068,-1.82545 -0.42068,-3.50558 v -12.76075 h 6.87094 v -2.01156 h -6.87094 m 31.36329,11.26672 c 0.0468,-7.01115 -3.93051,-11.96401 -9.63293,-11.96401 -5.98286,0 -10.47001,5.18528 -10.47001,12.19645 0,6.59305 4.2577,10.9884 10.56351,10.9884 4.48714,0 7.62305,-2.19767 9.53943,-6.63936 l -1.63593,-0.88978 c -1.91215,3.59864 -3.87952,4.9996 -7.01119,4.9996 -2.38379,0 -4.11321,-0.97604 -5.32848,-3.08066 -0.84133,-1.40095 -1.21527,-3.04114 -1.16852,-5.61064 h 15.14412 m -15.09738,-2.01156 c 0,-3.27315 1.49572,-7.94727 5.41772,-7.94727 2.80872,0 4.67411,2.48324 4.67411,6.26757 0,1.30789 -0.41641,1.6797 -1.91213,1.6797 h -8.1797 m 20.37063,21.12656 c 4.21095,-2.89497 6.12734,-5.74958 6.12734,-9.01636 0,-2.8083 -1.54671,-4.62779 -3.83703,-4.62779 -1.72516,0 -3.03392,1.21525 -3.03392,2.80191 0,1.68651 1.26201,2.75561 3.22514,2.75561 0.2337,0 0.56089,0 0.70112,-0.0468 h 0.13589 c 0.24219,0 0.33144,0.14615 0.33144,0.42492 0,1.95888 -1.59345,4.15612 -4.71661,6.35382 l 1.06655,1.35464 m 31.44401,-12.05709 c -2.57074,-0.0466 -2.70673,-0.093 -3.27188,-0.41854 -0.32718,-0.1857 -0.55664,-0.70366 -0.55664,-1.21484 0,-1.40734 1.25778,-2.01158 4.38517,-2.10463 4.39793,-0.0931 5.09903,-0.18612 6.68824,-0.88979 2.8002,-1.26159 4.34692,-3.69127 4.34692,-6.77873 0,-1.86581 -0.42492,-3.03435 -1.68693,-4.58105 0.79884,-0.83667 1.21527,-1.12221 1.59345,-1.12221 0.23371,0 0.37392,0.14615 0.46741,0.65735 0.18271,1.1222 0.93482,1.72644 2.10335,1.72644 1.21527,0 2.10334,-0.97603 2.10334,-2.23762 0,-1.59344 -1.26201,-2.71567 -3.08491,-2.71567 -1.49571,0 -2.33705,0.47168 -4.48714,2.43013 -1.95889,-1.3079 -3.46309,-1.77276 -5.80014,-1.77276 -5.56219,0 -9.20801,3.08066 -9.20801,7.75476 0,2.76197 1.49996,5.09904 3.93051,6.26756 -3.13167,0.69731 -4.44041,2.10463 -4.44041,4.67411 0,2.05832 0.93482,3.27316 3.13166,4.01677 -2.89796,1.07589 -4.3002,2.52316 -4.3002,4.44168 0,1.40095 0.93483,2.70886 2.43055,3.50559 1.82714,0.93652 4.06222,1.30832 7.42758,1.30832 7.81002,0 11.68528,-2.47686 11.68528,-7.38297 0,-2.33706 -1.07504,-4.20967 -2.75348,-4.90655 -1.26199,-0.47165 -2.75773,-0.65735 -5.93611,-0.65735 h -4.76761 m 2.75774,-17.01673 c 2.89794,0 4.53389,2.01156 4.53389,5.65652 0,3.64538 -1.77192,5.84265 -4.72086,5.84265 -2.89369,0 -4.72085,-2.19727 -4.72085,-5.70286 0,-3.69169 1.78042,-5.79631 4.90782,-5.79631 m -0.42067,21.0335 c 3.8795,0 4.15572,0 4.81434,0.0995 1.91638,0.18611 3.04242,1.21527 3.04242,2.70885 0,2.66256 -3.04242,4.20288 -8.22644,4.20288 -3.97724,0 -6.17832,-1.16853 -6.17832,-3.26677 0,-1.54672 0.84558,-2.57588 3.08915,-3.74439 h 3.45885 m 34.88161,-11.07467 c 0.0466,-7.01117 -3.9305,-11.96402 -9.63292,-11.96402 -5.98286,0 -10.47001,5.18528 -10.47001,12.19645 0,6.59304 4.2577,10.98841 10.5635,10.98841 4.48715,0 7.62306,-2.1977 9.53943,-6.63936 l -1.63593,-0.88979 c -1.91215,3.59864 -3.87952,4.99961 -7.01117,4.99961 -2.3838,0 -4.11322,-0.97605 -5.32849,-3.08067 -0.84134,-1.40096 -1.21527,-3.04115 -1.16852,-5.61063 h 15.14411 m -15.09737,-2.01158 c 0,-3.27314 1.49571,-7.94725 5.41773,-7.94725 2.80871,0 4.6741,2.48322 4.6741,6.26755 0,1.30791 -0.41642,1.6797 -1.91213,1.6797 h -8.1797 m 26.08153,-9.25516 -8.0862,0.51797 v 2.01157 h 1.68693 c 1.77191,0.0463 2.00137,0.32548 2.00137,2.33706 v 13.36498 c -0.0424,0.70367 -0.0892,0.98284 -0.27621,1.21485 -0.32718,0.41853 -1.21526,0.61104 -3.22937,0.65736 h -0.18272 v 1.67969 h 11.82549 v -1.67969 h -0.18695 c -3.1359,-0.0995 -3.55234,-0.33187 -3.55234,-2.01158 v -6.91811 c 0,-2.29073 0.32294,-4.39537 0.84135,-5.47083 0.98581,-2.10463 3.08067,-3.55234 5.09478,-3.55234 1.21527,0 2.61325,0.65737 3.31862,1.64019 0.70536,1.02237 1.0283,2.42969 1.0283,4.67412 v 9.76634 c -0.0466,0.70367 -0.0935,0.98284 -0.27619,1.21485 -0.33568,0.41853 -1.27051,0.61104 -3.27613,0.65736 h -0.18689 v 1.67969 h 11.82551 v -1.67969 h -0.18271 c -3.08917,-0.0995 -3.50558,-0.33187 -3.50558,-2.01158 v -9.39454 c 0,-3.36621 -0.1488,-4.20967 -0.98583,-5.79633 -1.16851,-2.24399 -3.50558,-3.59862 -6.31429,-3.59862 -3.03392,0 -5.32424,1.40095 -7.38086,4.4884 v -3.79112 m 28.18914,0 v -9.255163 h -1.91637 c -0.46741,6.08144 -2.52402,9.162103 -6.31006,9.447663 v 1.81907 h 3.83278 v 11.9177 c 0,3.27317 0.0934,4.44169 0.55663,5.51716 0.75212,1.96525 2.62175,3.04114 5.33274,3.04114 4.2067,0 6.91769,-3.18051 6.91769,-8.13338 0,-0.28554 0,-0.61059 -0.0466,-1.07546 h -1.96738 c -0.13605,4.20244 -1.35124,6.35382 -3.64155,6.35382 -1.07506,0 -2.01413,-0.55792 -2.33707,-1.35465 -0.28044,-0.65693 -0.42067,-1.82545 -0.42067,-3.50558 v -12.76075 h 6.87095 v -2.01157 h -6.87095 m 16.63135,-11.638968 c -1.49147,0 -2.70674,1.215272 -2.70674,2.715668 0,1.493586 1.21527,2.708857 2.65999,2.708857 1.54671,0 2.76198,-1.215271 2.76198,-2.708857 0,-1.500396 -1.21527,-2.715668 -2.71523,-2.715668 m 2.19682,11.638968 -8.78308,0.51797 v 2.01156 h 2.3838 c 1.77192,0.0463 2.00563,0.32549 2.00563,2.33707 v 13.36498 c -0.0466,0.70367 -0.0934,0.98284 -0.28046,1.21485 -0.32294,0.41853 -1.21101,0.61104 -3.22514,0.65736 h -0.32293 v 1.67969 H 593.954 v -1.67969 h -0.33569 c -3.1274,-0.0995 -3.55232,-0.33187 -3.55232,-2.01158 v -18.09221 m 14.78294,-12.66811 -8.64711,0.517961 v 2.011577 h 2.29031 c 1.72943,0.04665 1.95889,0.325489 1.95889,2.337051 v 26.033101 c -0.0468,0.70367 -0.0934,0.98284 -0.27619,1.21485 -0.3272,0.41853 -1.21527,0.61104 -3.2294,0.65736 h -0.32293 v 1.67969 h 12.10169 v -1.67969 h -0.32294 c -3.1274,-0.0995 -3.55232,-0.33187 -3.55232,-2.01158 V 90.477799 m 14.87218,0 -8.6471,0.517976 v 2.011562 h 2.29031 c 1.72942,0.04665 1.95887,0.325489 1.95887,2.337051 v 26.033122 c -0.0466,0.70365 -0.0934,0.98284 -0.2762,1.21483 -0.32718,0.41855 -1.21526,0.61104 -3.22938,0.65735 h -0.32294 v 1.6797 h 12.1017 v -1.6797 h -0.32294 c -3.1274,-0.0994 -3.55232,-0.33186 -3.55232,-2.01156 V 90.477799 m 27.0716,23.934841 c 0.0466,-7.01115 -3.9305,-11.96401 -9.63292,-11.96401 -5.98286,0 -10.47001,5.18528 -10.47001,12.19645 0,6.59305 4.2577,10.9884 10.5635,10.9884 4.48715,0 7.62304,-2.19767 9.53943,-6.63936 l -1.63594,-0.88978 c -1.91213,3.59864 -3.87951,4.9996 -7.01117,4.9996 -2.38379,0 -4.11321,-0.97604 -5.32848,-3.08066 -0.84134,-1.40095 -1.21527,-3.04114 -1.16854,-5.61064 h 15.14413 m -15.09745,-2.01156 c 0,-3.27315 1.49571,-7.94727 5.41771,-7.94727 2.80871,0 4.6741,2.48324 4.6741,6.26757 0,1.30789 -0.41641,1.6797 -1.91211,1.6797 h -8.1797 m 51.03279,-2.52274 c 0,-2.94129 -0.51415,-4.44211 -1.87388,-5.5639 -1.53821,-1.26158 -3.82849,-1.86581 -6.81996,-1.86581 -5.28172,0 -9.11452,2.47642 -9.11452,5.88937 0,1.72602 1.0751,2.84825 2.71099,2.84825 1.49148,0 2.51978,-0.98286 2.51978,-2.38381 0,-0.60424 -0.22944,-1.26115 -0.69687,-1.91213 -0.28471,-0.33188 -0.33143,-0.42492 -0.33143,-0.65735 0,-0.9361 1.87388,-1.77915 4.11744,-1.77915 1.49149,0 3.1317,0.47124 3.87528,1.16854 0.89238,0.7504 1.21525,1.87218 1.21525,3.9768 v 1.81951 c -4.85677,0.84305 -6.39923,1.21485 -8.68957,2.10464 -4.07072,1.50038 -5.98285,3.64495 -5.98285,6.63936 0,3.3662 2.61746,5.47082 6.7817,5.47082 3.21665,0 6.11884,-1.3147 8.13297,-3.69805 0.74358,2.38335 1.91211,3.31945 4.10895,3.31945 2.10339,0 4.30022,-1.35421 4.30022,-2.70886 0,-0.32548 -0.18271,-0.56427 -0.47167,-0.56427 -0.18271,0 -0.36966,0.053 -0.69686,0.19247 -0.65438,0.27875 -0.93486,0.32549 -1.30878,0.32549 -1.31301,0 -1.77619,-0.84345 -1.77619,-3.22684 v -9.39453 m -4.39792,5.70284 c 0,2.80191 -0.13589,3.45926 -0.9263,4.67411 -1.16854,1.72646 -3.27609,2.89497 -5.33278,2.89497 -2.15003,0 -3.69247,-1.54034 -3.69247,-3.64496 0,-1.95886 0.9815,-3.3662 3.03394,-4.34225 1.45316,-0.65735 3.27609,-1.1222 6.91761,-1.73281 v 2.15094 m 18.72626,-25.103381 -8.64718,0.517976 v 2.011562 h 2.29035 c 1.7294,0.04665 1.95883,0.325489 1.95883,2.337051 v 26.033122 c -0.0465,0.70365 -0.0934,0.98284 -0.27615,1.21483 -0.32718,0.41855 -1.21525,0.61104 -3.22937,0.65735 h -0.32295 v 1.6797 h 12.10167 v -1.6797 h -0.32296 c -3.12737,-0.0994 -3.55224,-0.33186 -3.55224,-2.01156 V 90.477799 m 17.11573,11.970831 c -5.74916,0 -10.19387,5.09266 -10.19387,11.63896 0,6.40013 4.49144,11.54589 10.10035,11.54589 5.60892,0 10.09612,-5.14576 10.09612,-11.59263 0,-6.40694 -4.4872,-11.59222 -10.0026,-11.59222 m 0,2.00518 c 3.27186,0 5.09053,3.41253 5.09053,9.58704 0,6.21444 -1.81867,9.58065 -5.18405,9.58065 -3.36537,0 -5.18396,-3.36621 -5.18396,-9.53391 0,-6.36062 1.77187,-9.63378 5.27748,-9.63378 m 30.84489,20.80107 8.51111,-0.32549 v -2.01156 h -1.16854 c -2.71523,-0.093 -2.9489,-0.37181 -2.9489,-3.41253 v -16.35938 l -8.7831,0.51796 v 2.01158 h 2.38379 c 1.77188,0.0463 2.00564,0.32549 2.00564,2.33705 v 5.74322 c 0,4.06988 -0.97734,9.02273 -6.12307,9.02273 -1.44478,0 -2.66003,-0.51119 -3.27194,-1.44727 -0.60335,-0.88978 -0.69686,-1.35465 -0.69686,-3.92413 v -14.26114 l -8.17968,0.51796 v 2.01158 h 1.77188 c 1.78046,0.0463 2.01413,0.32549 2.01413,2.33705 v 10.09183 c 0,2.38338 0.18271,3.45926 0.88814,4.53474 1.26198,1.91852 3.50553,2.9944 6.30578,2.9944 3.08914,0 5.23927,-1.26157 7.29162,-4.25597 v 3.87737 m 30.95112,-10.84224 c 0.0465,-7.01115 -3.93055,-11.96401 -9.63292,-11.96401 -5.98291,0 -10.47003,5.18528 -10.47003,12.19645 0,6.59305 4.25769,10.9884 10.56348,10.9884 4.48719,0 7.62303,-2.19767 9.53947,-6.63936 l -1.63596,-0.88978 c -1.91211,3.59864 -3.87952,4.9996 -7.01113,4.9996 -2.38387,0 -4.11328,-0.97604 -5.32853,-3.08066 -0.84135,-1.40095 -1.21526,-3.04114 -1.16854,-5.61064 h 15.14416 m -15.09745,-2.01156 c 0,-3.27315 1.49573,-7.94727 5.41773,-7.94727 2.80875,0 4.67415,2.48324 4.67415,6.26757 0,1.30789 -0.41639,1.6797 -1.91212,1.6797 h -8.17976 m 24.95133,-9.25516 v -9.255159 h -1.91644 c -0.46742,6.08144 -2.52401,9.162099 -6.31003,9.447649 v 1.81907 h 3.83282 v 11.91772 c 0,3.27315 0.0934,4.44168 0.55661,5.51714 0.75207,1.96526 2.62171,3.04114 5.3327,3.04114 4.20671,0 6.9177,-3.18051 6.9177,-8.13336 0,-0.28556 0,-0.61062 -0.0465,-1.07548 h -1.9674 c -0.13605,4.20246 -1.35126,6.35382 -3.64153,6.35382 -1.0751,0 -2.01412,-0.55792 -2.33708,-1.35465 -0.28047,-0.65692 -0.42063,-1.82545 -0.42063,-3.50558 v -12.76075 h 6.87091 v -2.01156 h -6.87091 m 18.27147,0 v -9.255159 h -1.91636 c -0.46743,6.08144 -2.52403,9.162099 -6.31003,9.447649 v 1.81907 h 3.83272 v 11.91772 c 0,3.27315 0.0936,4.44168 0.55671,5.51714 0.75207,1.96526 2.62171,3.04114 5.33269,3.04114 4.20672,0 6.91771,-3.18051 6.91771,-8.13336 0,-0.28556 0,-0.61062 -0.0465,-1.07548 h -1.9674 c -0.13605,4.20246 -1.35126,6.35382 -3.64153,6.35382 -1.0751,0 -2.01412,-0.55792 -2.33708,-1.35465 -0.28047,-0.65692 -0.4207,-1.82545 -0.4207,-3.50558 v -12.76075 h 6.87098 v -2.01156 h -6.87098 m 31.36328,11.26672 c 0.0465,-7.01115 -3.93049,-11.96401 -9.63292,-11.96401 -5.98285,0 -10.46995,5.18528 -10.46995,12.19645 0,6.59305 4.25767,10.9884 10.56345,10.9884 4.48712,0 7.62306,-2.19767 9.53942,-6.63936 l -1.63589,-0.88978 c -1.91213,3.59864 -3.87953,4.9996 -7.01123,4.9996 -2.38378,0 -4.11319,-0.97604 -5.32845,-3.08066 -0.84133,-1.40095 -1.21525,-3.04114 -1.16853,-5.61064 h 15.1441 m -15.09738,-2.01156 c 0,-3.27315 1.49573,-7.94727 5.41773,-7.94727 2.80874,0 4.67415,2.48324 4.67415,6.26757 0,1.30789 -0.41648,1.6797 -1.91213,1.6797 h -8.17975"
     id="path10"
     style="stroke-width:0.42492" />
  <path
     class="MeasureNumber"
     d="m 20.861818,531.76492 c 0.803521,-0.25495 1.122215,-0.39518 1.533949,-0.66712 0.796727,-0.52265 1.287944,-1.45747 1.287944,-2.40929 0,-1.6147 -1.287944,-2.70249 -3.1937,-2.70249 -1.852223,0 -3.419321,1.15578 -3.419321,2.54951 0,0.69686 0.42492,1.17703 1.075896,1.17703 0.5575,0 0.969235,-0.41217 0.969235,-0.96882 0,-0.29319 -0.08629,-0.5014 -0.358622,-0.76485 -0.172524,-0.16147 -0.238806,-0.27194 -0.238806,-0.39093 0,-0.41217 0.849839,-0.83709 1.646566,-0.83709 1.141743,0 1.819074,0.62888 1.819074,1.68693 0,1.50422 -1.069102,2.93194 -2.210861,2.93194 -0.04665,0 -0.199282,-0.0124 -0.385396,-0.0297 -0.497576,-0.034 -0.497576,-0.034 -0.597443,-0.034 -0.371791,0 -0.577464,0.16998 -0.577464,0.47591 0,0.27195 0.185693,0.43767 0.491217,0.43767 0.08629,0 0.205658,-0.0124 0.338658,-0.0297 0.238791,-0.0466 0.497997,-0.0679 0.650541,-0.0679 0.796726,0 1.341057,0.71812 1.341057,1.76767 0,1.83565 -0.902968,3.60331 -2.960833,3.60331 -0.949706,0 -1.766396,-0.4759 -1.766396,-1.02404 0,-0.18273 0.07308,-0.25072 0.338657,-0.3697 0.498013,-0.22095 0.697295,-0.5269 0.697295,-0.98156 0,-0.59914 -0.471238,-1.05805 -1.082271,-1.05805 -0.730443,0 -1.208476,0.5779 -1.208476,1.46173 0,1.64444 1.254795,2.68124 3.293131,2.68124 2.569482,0 4.521556,-1.71243 4.521556,-3.98999 0,-1.32576 -0.81669,-2.06935 -2.005187,-2.44753"
     id="path11"
     style="stroke-width:0.42492" />
  <polyline
     class="BarLine"
     fill="none"
     stroke="#000000"
     stroke-width="4.46"
     stroke-linejoin="bevel"
     points="1373.89,1314.83 1373.89,1416.76"
     id="polyline11"
     transform="matrix(0.42491923,0,0,0.42491923,-75.676434,-0.25095312)" />
  <polyline
     class="BarLine"
     fill="none"
     stroke="#000000"
     stroke-width="4.46"
     stroke-linejoin="bevel"
     points="1664.46,632.834 1664.46,734.762"
     id="polyline12"
     transform="matrix(0.42491923,0,0,0.42491923,-75.676434,-0.25095312)" />
  <polyline
     class="BarLine"
     fill="none"
     stroke="#000000"
     stroke-width="4.46"
     stroke-linejoin="bevel"
     points="2762.37,632.834 2762.37,734.762"
     id="polyline13"
     transform="matrix(0.42491923,0,0,0.42491923,-75.676434,-0.25095312)" />
  <polyline
     class="BarLine"
     fill="none"
     stroke="#000000"
     stroke-width="4.46"
     stroke-linejoin="bevel"
     points="2739.55,1314.83 2739.55,1416.76"
     id="polyline14"
     transform="matrix(0.42491923,0,0,0.42491923,-75.676434,-0.25095312)" />
  <polyline
     class="BarLine"
     fill="none"
     stroke="#000000"
     stroke-width="13.64"
     stroke-linejoin="bevel"
     points="2757.78,1314.83 2757.78,1416.76"
     id="polyline15"
     transform="matrix(0.42491923,0,0,0.42491923,-75.676434,-0.25095312)" />
  <polyline
     class="BarLine"
     fill="none"
     stroke="#000000"
     stroke-width="4.46"
     stroke-linejoin="bevel"
     points="2357.91,1314.83 2357.91,1416.76"
     id="polyline16"
     transform="matrix(0.42491923,0,0,0.42491923,-75.676434,-0.25095312)" />
  <polyline
     class="Stem"
     fill="none"
     stroke="#000000"
     stroke-width="2.48"
     stroke-linejoin="bevel"
     points="790.164,687.965 790.164,751.998"
     id="polyline17"
     transform="matrix(0.42491923,0,0,0.42491923,-75.676434,-0.25095312)" />
  <polyline
     class="Stem"
     fill="none"
     stroke="#000000"
     stroke-width="2.48"
     stroke-linejoin="bevel"
     points="696.246,1369.96 696.246,1455.7"
     id="polyline18"
     transform="matrix(0.42491923,0,0,0.42491923,-75.676434,-0.25095312)" />
  <polyline
     class="Stem"
     fill="none"
     stroke="#000000"
     stroke-width="2.48"
     stroke-linejoin="bevel"
     points="1233.49,1374.23 1233.49,1297.6"
     id="polyline19"
     transform="matrix(0.42491923,0,0,0.42491923,-75.676434,-0.25095312)" />
  <polyline
     class="Stem"
     fill="none"
     stroke="#000000"
     stroke-width="2.48"
     stroke-linejoin="bevel"
     points="921.16,687.965 921.16,751.998"
     id="polyline20"
     transform="matrix(0.42491923,0,0,0.42491923,-75.676434,-0.25095312)" />
  <polyline
     class="Stem"
     fill="none"
     stroke="#000000"
     stroke-width="2.48"
     stroke-linejoin="bevel"
     points="455.336,1386.63 455.336,1316.2"
     id="polyline21"
     transform="matrix(0.42491923,0,0,0.42491923,-75.676434,-0.25095312)" />
  <polyline
     class="Stem"
     fill="none"
     stroke="#000000"
     stroke-width="2.48"
     stroke-linejoin="bevel"
     points="1081.91,692.23 1081.91,615.569"
     id="polyline22"
     transform="matrix(0.42491923,0,0,0.42491923,-75.676434,-0.25095312)" />
  <polyline
     class="Stem"
     fill="none"
     stroke="#000000"
     stroke-width="2.48"
     stroke-linejoin="bevel"
     points="2332.64,704.63 2332.64,613.522"
     id="polyline23"
     transform="matrix(0.42491923,0,0,0.42491923,-75.676434,-0.25095312)" />
  <polyline
     class="Stem"
     fill="none"
     stroke="#000000"
     stroke-width="2.48"
     stroke-linejoin="bevel"
     points="1165.82,1361.83 1165.82,1291.51"
     id="polyline24"
     transform="matrix(0.42491923,0,0,0.42491923,-75.676434,-0.25095312)" />
  <polyline
     class="Stem"
     fill="none"
     stroke="#000000"
     stroke-width="2.48"
     stroke-linejoin="bevel"
     points="1169.24,704.63 1169.24,613.522"
     id="polyline25"
     transform="matrix(0.42491923,0,0,0.42491923,-75.676434,-0.25095312)" />
  <polyline
     class="Stem"
     fill="none"
     stroke="#000000"
     stroke-width="2.48"
     stroke-linejoin="bevel"
     points="628.58,1394.76 628.58,1464.83"
     id="polyline26"
     transform="matrix(0.42491923,0,0,0.42491923,-75.676434,-0.25095312)" />
  <polyline
     class="Stem"
     fill="none"
     stroke="#000000"
     stroke-width="2.48"
     stroke-linejoin="bevel"
     points="1256.57,692.23 1256.57,611.475"
     id="polyline27"
     transform="matrix(0.42491923,0,0,0.42491923,-75.676434,-0.25095312)" />
  <polyline
     class="Stem"
     fill="none"
     stroke="#000000"
     stroke-width="2.48"
     stroke-linejoin="bevel"
     points="2419.97,692.23 2419.97,611.475"
     id="polyline28"
     transform="matrix(0.42491923,0,0,0.42491923,-75.676434,-0.25095312)" />
  <polyline
     class="Stem"
     fill="none"
     stroke="#000000"
     stroke-width="2.48"
     stroke-linejoin="bevel"
     points="1343.9,679.83 1343.9,609.427"
     id="polyline29"
     transform="matrix(0.42491923,0,0,0.42491923,-75.676434,-0.25095312)" />
  <polyline
     class="Stem"
     fill="none"
     stroke="#000000"
     stroke-width="2.48"
     stroke-linejoin="bevel"
     points="590.667,1386.63 590.667,1316.2"
     id="polyline30"
     transform="matrix(0.42491923,0,0,0.42491923,-75.676434,-0.25095312)" />
  <polyline
     class="Stem"
     fill="none"
     stroke="#000000"
     stroke-width="2.48"
     stroke-linejoin="bevel"
     points="1431.23,704.63 1431.23,634.256"
     id="polyline31"
     transform="matrix(0.42491923,0,0,0.42491923,-75.676434,-0.25095312)" />
  <polyline
     class="Stem"
     fill="none"
     stroke="#000000"
     stroke-width="2.48"
     stroke-linejoin="bevel"
     points="2507.3,679.83 2507.3,609.427"
     id="polyline32"
     transform="matrix(0.42491923,0,0,0.42491923,-75.676434,-0.25095312)" />
  <polyline
     class="Stem"
     fill="none"
     stroke="#000000"
     stroke-width="2.48"
     stroke-linejoin="bevel"
     points="1068.41,1357.56 1068.41,1433.96"
     id="polyline33"
     transform="matrix(0.42491923,0,0,0.42491923,-75.676434,-0.25095312)" />
  <polyline
     class="Stem"
     fill="none"
     stroke="#000000"
     stroke-width="2.48"
     stroke-linejoin="bevel"
     points="1562.23,741.83 1562.23,640.341"
     id="polyline34"
     transform="matrix(0.42491923,0,0,0.42491923,-75.676434,-0.25095312)" />
  <polyline
     class="Stem"
     fill="none"
     stroke="#000000"
     stroke-width="2.48"
     stroke-linejoin="bevel"
     points="387.671,1386.63 387.671,1316.2"
     id="polyline35"
     transform="matrix(0.42491923,0,0,0.42491923,-75.676434,-0.25095312)" />
  <polyline
     class="Stem"
     fill="none"
     stroke="#000000"
     stroke-width="2.48"
     stroke-linejoin="bevel"
     points="1676.18,1423.83 1676.18,1347.2"
     id="polyline36"
     transform="matrix(0.42491923,0,0,0.42491923,-75.676434,-0.25095312)" />
  <polyline
     class="Stem"
     fill="none"
     stroke="#000000"
     stroke-width="2.48"
     stroke-linejoin="bevel"
     points="1000.74,1345.16 1000.74,1431.92"
     id="polyline37"
     transform="matrix(0.42491923,0,0,0.42491923,-75.676434,-0.25095312)" />
  <polyline
     class="Stem"
     fill="none"
     stroke="#000000"
     stroke-width="2.48"
     stroke-linejoin="bevel"
     points="1544.93,1345.16 1544.93,1415.4"
     id="polyline38"
     transform="matrix(0.42491923,0,0,0.42491923,-75.676434,-0.25095312)" />
  <polyline
     class="Stem"
     fill="none"
     stroke="#000000"
     stroke-width="2.48"
     stroke-linejoin="bevel"
     points="1729.93,704.63 1729.93,621.753"
     id="polyline39"
     transform="matrix(0.42491923,0,0,0.42491923,-75.676434,-0.25095312)" />
  <polyline
     class="Stem"
     fill="none"
     stroke="#000000"
     stroke-width="2.48"
     stroke-linejoin="bevel"
     points="2594.64,704.63 2594.64,621.798"
     id="polyline40"
     transform="matrix(0.42491923,0,0,0.42491923,-75.676434,-0.25095312)" />
  <polyline
     class="Stem"
     fill="none"
     stroke="#000000"
     stroke-width="2.48"
     stroke-linejoin="bevel"
     points="933.074,1332.76 933.074,1429.88"
     id="polyline41"
     transform="matrix(0.42491923,0,0,0.42491923,-75.676434,-0.25095312)" />
  <polyline
     class="Stem"
     fill="none"
     stroke="#000000"
     stroke-width="2.48"
     stroke-linejoin="bevel"
     points="865.409,1345.16 865.409,1427.84"
     id="polyline42"
     transform="matrix(0.42491923,0,0,0.42491923,-75.676434,-0.25095312)" />
  <polyline
     class="Stem"
     fill="none"
     stroke="#000000"
     stroke-width="2.48"
     stroke-linejoin="bevel"
     points="1895.99,692.23 1895.99,615.644"
     id="polyline43"
     transform="matrix(0.42491923,0,0,0.42491923,-75.676434,-0.25095312)" />
  <polyline
     class="Stem"
     fill="none"
     stroke="#000000"
     stroke-width="2.48"
     stroke-linejoin="bevel"
     points="523.002,1386.63 523.002,1316.2"
     id="polyline44"
     transform="matrix(0.42491923,0,0,0.42491923,-75.676434,-0.25095312)" />
  <polyline
     class="Stem"
     fill="none"
     stroke="#000000"
     stroke-width="2.48"
     stroke-linejoin="bevel"
     points="1953.57,687.965 1953.57,751.998"
     id="polyline45"
     transform="matrix(0.42491923,0,0,0.42491923,-75.676434,-0.25095312)" />
  <polyline
     class="Stem"
     fill="none"
     stroke="#000000"
     stroke-width="2.48"
     stroke-linejoin="bevel"
     points="1477.27,1345.16 1477.27,1415.4"
     id="polyline46"
     transform="matrix(0.42491923,0,0,0.42491923,-75.676434,-0.25095312)" />
  <polyline
     class="Stem"
     fill="none"
     stroke="#000000"
     stroke-width="2.48"
     stroke-linejoin="bevel"
     points="1409.6,1345.16 1409.6,1415.4"
     id="polyline47"
     transform="matrix(0.42491923,0,0,0.42491923,-75.676434,-0.25095312)" />
  <polyline
     class="Stem"
     fill="none"
     stroke="#000000"
     stroke-width="2.48"
     stroke-linejoin="bevel"
     points="2084.56,687.965 2084.56,751.998"
     id="polyline48"
     transform="matrix(0.42491923,0,0,0.42491923,-75.676434,-0.25095312)" />
  <polyline
     class="Stem"
     fill="none"
     stroke="#000000"
     stroke-width="2.48"
     stroke-linejoin="bevel"
     points="566.525,704.63 566.525,621.753"
     id="polyline49"
     transform="matrix(0.42491923,0,0,0.42491923,-75.676434,-0.25095312)" />
  <polyline
     class="Stem"
     fill="none"
     stroke="#000000"
     stroke-width="2.48"
     stroke-linejoin="bevel"
     points="2245.31,692.23 2245.31,615.569"
     id="polyline50"
     transform="matrix(0.42491923,0,0,0.42491923,-75.676434,-0.25095312)" />
  <polyline
     class="Stem"
     fill="none"
     stroke="#000000"
     stroke-width="2.48"
     stroke-linejoin="bevel"
     points="1743.85,1423.83 1743.85,1347.2"
     id="polyline51"
     transform="matrix(0.42491923,0,0,0.42491923,-75.676434,-0.25095312)" />
  <polyline
     class="Stem"
     fill="none"
     stroke="#000000"
     stroke-width="2.48"
     stroke-linejoin="bevel"
     points="1811.52,1423.83 1811.52,1347.2"
     id="polyline52"
     transform="matrix(0.42491923,0,0,0.42491923,-75.676434,-0.25095312)" />
  <polyline
     class="Stem"
     fill="none"
     stroke="#000000"
     stroke-width="2.48"
     stroke-linejoin="bevel"
     points="1883.26,1345.16 1883.26,1415.4"
     id="polyline53"
     transform="matrix(0.42491923,0,0,0.42491923,-75.676434,-0.25095312)" />
  <polyline
     class="Stem"
     fill="none"
     stroke="#000000"
     stroke-width="2.48"
     stroke-linejoin="bevel"
     points="763.911,1345.16 763.911,1446.57"
     id="polyline54"
     transform="matrix(0.42491923,0,0,0.42491923,-75.676434,-0.25095312)" />
  <polyline
     class="Stem"
     fill="none"
     stroke="#000000"
     stroke-width="2.48"
     stroke-linejoin="bevel"
     points="2018.59,1345.16 2018.59,1415.4"
     id="polyline55"
     transform="matrix(0.42491923,0,0,0.42491923,-75.676434,-0.25095312)" />
  <polyline
     class="Stem"
     fill="none"
     stroke="#000000"
     stroke-width="2.48"
     stroke-linejoin="bevel"
     points="2149.84,1423.83 2149.84,1347.2"
     id="polyline56"
     transform="matrix(0.42491923,0,0,0.42491923,-75.676434,-0.25095312)" />
  <polyline
     class="Stem"
     fill="none"
     stroke="#000000"
     stroke-width="2.48"
     stroke-linejoin="bevel"
     points="2217.51,1423.83 2217.51,1347.2"
     id="polyline57"
     transform="matrix(0.42491923,0,0,0.42491923,-75.676434,-0.25095312)" />
  <polyline
     class="Stem"
     fill="none"
     stroke="#000000"
     stroke-width="2.48"
     stroke-linejoin="bevel"
     points="2285.17,1423.83 2285.17,1347.2"
     id="polyline58"
     transform="matrix(0.42491923,0,0,0.42491923,-75.676434,-0.25095312)" />
  <polyline
     class="Stem"
     fill="none"
     stroke="#000000"
     stroke-width="2.48"
     stroke-linejoin="bevel"
     points="1301.15,1386.63 1301.15,1303.69"
     id="polyline59"
     transform="matrix(0.42491923,0,0,0.42491923,-75.676434,-0.25095312)" />
  <polyline
     class="Stem"
     fill="none"
     stroke="#000000"
     stroke-width="2.48"
     stroke-linejoin="bevel"
     points="732.586,692.23 732.586,615.644"
     id="polyline60"
     transform="matrix(0.42491923,0,0,0.42491923,-75.676434,-0.25095312)" />
  <polyline
     class="Stem"
     fill="none"
     stroke="#000000"
     stroke-width="2.48"
     stroke-linejoin="bevel"
     points="1950.93,1345.16 1950.93,1415.4"
     id="polyline61"
     transform="matrix(0.42491923,0,0,0.42491923,-75.676434,-0.25095312)" />
  <path
     class="Note"
     d="m 809.56633,292.07968 c 0,1.8112 1.30405,3.8332 4.72233,3.8332 4.37982,0 8.97708,-3.58294 8.97708,-7.29099 0,-2.4896 -2.10764,-3.87929 -4.72233,-3.87929 -4.09013,0 -8.97708,3.45777 -8.97708,7.33708"
     id="path61"
     style="stroke-width:0.421521" />
  <path
     class="Note"
     d="m 865.23071,297.34867 c 0,1.81121 1.30413,3.8332 4.72233,3.8332 4.3799,0 8.97708,-3.58292 8.97708,-7.29099 0,-2.48959 -2.10756,-3.87928 -4.72233,-3.87928 -4.09005,0 -8.97708,3.45777 -8.97708,7.33707"
     id="path62"
     style="stroke-width:0.421521" />
  <path
     class="Note"
     d="m 902.33892,302.61766 c 0,1.81123 1.30404,3.83321 4.72233,3.83321 4.3799,0 8.97706,-3.58292 8.97706,-7.29099 0,-2.4896 -2.10763,-3.87929 -4.72233,-3.87929 -4.09003,0 -8.97706,3.45777 -8.97706,7.33707"
     id="path63"
     style="stroke-width:0.421521" />
  <path
     class="Note"
     d="m 939.44711,297.34867 c 0,1.81121 1.30406,3.8332 4.72234,3.8332 4.37989,0 8.97707,-3.58292 8.97707,-7.29099 0,-2.48959 -2.10763,-3.87928 -4.72233,-3.87928 -4.09004,0 -8.97708,3.45777 -8.97708,7.33707"
     id="path64"
     style="stroke-width:0.421521" />
  <path
     class="Note"
     d="m 976.55532,292.07968 c 0,1.8112 1.30406,3.8332 4.72234,3.8332 4.37989,0 8.97706,-3.58294 8.97706,-7.29099 0,-2.4896 -2.10764,-3.87929 -4.72233,-3.87929 -4.09003,0 -8.97707,3.45777 -8.97707,7.33708"
     id="path65"
     style="stroke-width:0.421521" />
  <path
     class="Note"
     d="m 1013.6636,302.61766 c 0,1.81123 1.304,3.83321 4.7223,3.83321 4.3798,0 8.9771,-3.58292 8.9771,-7.29099 0,-2.4896 -2.1077,-3.87929 -4.7224,-3.87929 -4.0901,0 -8.977,3.45777 -8.977,7.33707"
     id="path66"
     style="stroke-width:0.421521" />
  <path
     class="Note"
     d="m 75.88334,592.41343 c 0,1.81123 1.304068,3.83321 4.722332,3.83321 4.37988,0 8.977063,-3.58292 8.977063,-7.29099 0,-2.4896 -2.107604,-3.87929 -4.722331,-3.87929 -4.09006,0 -8.977064,3.45777 -8.977064,7.33707"
     id="path67"
     style="stroke-width:0.421521" />
  <path
     class="Note"
     d="m 315.21527,292.07968 c 0,1.8112 1.30408,3.8332 4.72233,3.8332 4.3799,0 8.97706,-3.58294 8.97706,-7.29099 0,-2.4896 -2.10759,-3.87929 -4.72233,-3.87929 -4.09004,0 -8.97706,3.45777 -8.97706,7.33708"
     id="path68"
     style="stroke-width:0.421521" />
  <path
     class="Note"
     d="m 104.63549,592.41343 c 0,1.81123 1.30408,3.83321 4.72233,3.83321 4.37989,0 8.97708,-3.58292 8.97708,-7.29099 0,-2.4896 -2.10761,-3.87929 -4.72233,-3.87929 -4.09005,0 -8.97708,3.45777 -8.97708,7.33707"
     id="path69"
     style="stroke-width:0.421521" />
  <path
     class="Note"
     d="m 133.38766,592.41343 c 0,1.81123 1.30407,3.83321 4.72234,3.83321 4.37988,0 8.97706,-3.58292 8.97706,-7.29099 0,-2.4896 -2.1076,-3.87929 -4.72233,-3.87929 -4.09006,0 -8.97707,3.45777 -8.97707,7.33707"
     id="path70"
     style="stroke-width:0.421521" />
  <path
     class="Note"
     d="m 162.14025,592.41343 c 0,1.81123 1.30407,3.83321 4.72233,3.83321 4.37988,0 8.97706,-3.58292 8.97706,-7.29099 0,-2.4896 -2.1076,-3.87929 -4.72233,-3.87929 -4.09004,0 -8.97706,3.45777 -8.97706,7.33707"
     id="path71"
     style="stroke-width:0.421521" />
  <path
     class="Note"
     d="m 190.89239,592.41343 c 0,1.81123 1.30409,3.83321 4.72234,3.83321 4.37989,0 8.97708,-3.58292 8.97708,-7.29099 0,-2.4896 -2.10761,-3.87929 -4.72234,-3.87929 -4.09004,0 -8.97708,3.45777 -8.97708,7.33707"
     id="path72"
     style="stroke-width:0.421521" />
  <path
     class="Note"
     d="m 219.64499,581.87543 c 0,1.81122 1.30408,3.8332 4.72233,3.8332 4.37988,0 8.97707,-3.58292 8.97707,-7.29097 0,-2.4896 -2.10761,-3.87931 -4.72234,-3.87931 -4.09005,0 -8.97706,3.45778 -8.97706,7.33708"
     id="path73"
     style="stroke-width:0.421521" />
  <path
     class="Note"
     d="m 248.39715,571.33744 c 0,1.81122 1.30407,3.8332 4.72233,3.8332 4.37988,0 8.97707,-3.58292 8.97707,-7.29099 0,-2.48959 -2.10761,-3.87928 -4.72233,-3.87928 -4.09005,0 -8.97707,3.45777 -8.97707,7.33707"
     id="path74"
     style="stroke-width:0.421521" />
  <path
     class="Note"
     d="m 291.5256,571.33744 c 0,1.81122 1.30407,3.8332 4.72234,3.8332 4.37988,0 8.97706,-3.58292 8.97706,-7.29099 0,-2.48959 -2.1076,-3.87928 -4.72233,-3.87928 -4.09006,0 -8.97707,3.45777 -8.97707,7.33707"
     id="path75"
     style="stroke-width:0.421521" />
  <path
     class="Note"
     d="m 320.27777,566.06843 c 0,1.81122 1.30406,3.8332 4.72233,3.8332 4.37988,0 8.97706,-3.5829 8.97706,-7.29097 0,-2.4896 -2.1076,-3.8793 -4.72233,-3.8793 -4.09005,0 -8.97706,3.45777 -8.97706,7.33707"
     id="path76"
     style="stroke-width:0.421521" />
  <path
     class="Note"
     d="m 349.03035,571.33744 c 0,1.81122 1.30408,3.8332 4.72234,3.8332 4.37985,0 8.97705,-3.58292 8.97705,-7.29099 0,-2.48959 -2.1076,-3.87928 -4.72235,-3.87928 -4.09004,0 -8.97704,3.45777 -8.97704,7.33707"
     id="path77"
     style="stroke-width:0.421521" />
  <path
     class="Note"
     d="m 377.78464,576.60644 c 0,1.81122 1.30407,3.8332 4.72233,3.8332 4.37985,0 8.97705,-3.58292 8.97705,-7.29098 0,-2.48961 -2.10759,-3.8793 -4.72233,-3.8793 -4.09006,0 -8.97705,3.45777 -8.97705,7.33708"
     id="path78"
     style="stroke-width:0.421521" />
  <path
     class="Note"
     d="m 406.53467,581.87543 c 0,1.81122 1.30407,3.8332 4.72235,3.8332 4.37985,0 8.97704,-3.58292 8.97704,-7.29097 0,-2.4896 -2.1076,-3.87931 -4.72234,-3.87931 -4.09006,0 -8.97705,3.45778 -8.97705,7.33708"
     id="path79"
     style="stroke-width:0.421521" />
  <path
     class="Note"
     d="m 435.28894,587.14442 c 0,1.81123 1.30409,3.83321 4.72235,3.83321 4.37985,0 8.97705,-3.58291 8.97705,-7.29098 0,-2.48959 -2.10759,-3.8793 -4.72233,-3.8793 -4.09006,0 -8.97707,3.45777 -8.97707,7.33707"
     id="path80"
     style="stroke-width:0.421521" />
  <path
     class="Note"
     d="m 464.03898,592.41343 c 0,1.81123 1.30408,3.83321 4.72234,3.83321 4.37987,0 8.97707,-3.58292 8.97707,-7.29099 0,-2.4896 -2.10761,-3.87929 -4.72235,-3.87929 -4.09006,0 -8.97706,3.45777 -8.97706,7.33707"
     id="path81"
     style="stroke-width:0.421521" />
  <path
     class="Note"
     d="m 522.76283,571.33744 c 0,1.81122 1.30407,3.8332 4.72233,3.8332 4.37985,0 8.97705,-3.58292 8.97705,-7.29099 0,-2.48959 -2.10759,-3.87928 -4.72233,-3.87928 -4.09006,0 -8.97705,3.45777 -8.97705,7.33707"
     id="path82"
     style="stroke-width:0.421521" />
  <path
     class="Note"
     d="m 551.51711,571.33744 c 0,1.81122 1.30408,3.8332 4.72234,3.8332 4.37985,0 8.97705,-3.58292 8.97705,-7.29099 0,-2.48959 -2.1076,-3.87928 -4.72235,-3.87928 -4.09004,0 -8.97704,3.45777 -8.97704,7.33707"
     id="path83"
     style="stroke-width:0.421521" />
  <path
     class="Note"
     d="m 580.26715,571.33744 c 0,1.81122 1.30407,3.8332 4.72233,3.8332 4.37985,0 8.97705,-3.58292 8.97705,-7.29099 0,-2.48959 -2.10759,-3.87928 -4.72233,-3.87928 -4.09006,0 -8.97705,3.45777 -8.97705,7.33707"
     id="path84"
     style="stroke-width:0.421521" />
  <path
     class="Note"
     d="m 623.39644,608.22042 c 0,1.81122 1.30407,3.8332 4.72235,3.8332 4.37985,0 8.97705,-3.58291 8.97705,-7.29097 0,-2.4896 -2.10759,-3.87931 -4.72233,-3.87931 -4.09008,0 -8.97707,3.45778 -8.97707,7.33708"
     id="path85"
     style="stroke-width:0.421521" />
  <path
     class="Note"
     d="m 222.44394,297.34867 c 0,1.81121 1.30406,3.8332 4.72233,3.8332 4.37988,0 8.97706,-3.58292 8.97706,-7.29099 0,-2.48959 -2.1076,-3.87928 -4.72233,-3.87928 -4.09006,0 -8.97706,3.45777 -8.97706,7.33707"
     id="path86"
     style="stroke-width:0.421521" />
  <path
     class="Note"
     d="m 652.15072,608.22042 c 0,1.81122 1.30408,3.8332 4.72236,3.8332 4.3798,0 8.97707,-3.58291 8.97707,-7.29097 0,-2.4896 -2.10764,-3.87931 -4.72234,-3.87931 -4.09012,0 -8.97709,3.45778 -8.97709,7.33708"
     id="path87"
     style="stroke-width:0.421521" />
  <path
     class="Note"
     d="m 259.55255,292.07968 c 0,1.8112 1.30408,3.8332 4.72233,3.8332 4.3799,0 8.97706,-3.58294 8.97706,-7.29099 0,-2.4896 -2.1076,-3.87929 -4.72233,-3.87929 -4.09004,0 -8.97706,3.45777 -8.97706,7.33708"
     id="path88"
     style="stroke-width:0.421521" />
  <path
     class="Note"
     d="m 680.9008,608.22042 c 0,1.81122 1.30405,3.8332 4.72233,3.8332 4.37982,0 8.97698,-3.58291 8.97698,-7.29097 0,-2.4896 -2.10754,-3.87931 -4.72233,-3.87931 -4.09003,0 -8.97698,3.45778 -8.97698,7.33708"
     id="path89"
     style="stroke-width:0.421521" />
  <path
     class="Note"
     d="m 370.8797,297.34867 c 0,1.81121 1.30406,3.8332 4.72233,3.8332 4.37985,0 8.97706,-3.58292 8.97706,-7.29099 0,-2.48959 -2.1076,-3.87928 -4.72234,-3.87928 -4.09006,0 -8.97705,3.45777 -8.97705,7.33707"
     id="path90"
     style="stroke-width:0.421521" />
  <path
     class="Note"
     d="m 724.03009,571.33744 c 0,1.81122 1.30403,3.8332 4.72233,3.8332 4.3798,0 8.97706,-3.58292 8.97706,-7.29099 0,-2.48959 -2.10763,-3.87928 -4.72233,-3.87928 -4.09012,0 -8.97706,3.45777 -8.97706,7.33707"
     id="path91"
     style="stroke-width:0.421521" />
  <path
     class="Note"
     d="m 407.98789,302.61766 c 0,1.81123 1.30407,3.83321 4.72233,3.83321 4.37987,0 8.97707,-3.58292 8.97707,-7.29099 0,-2.4896 -2.10761,-3.87929 -4.72234,-3.87929 -4.09007,0 -8.97706,3.45777 -8.97706,7.33707"
     id="path92"
     style="stroke-width:0.421521" />
  <path
     class="Note"
     d="m 752.78438,571.33744 c 0,1.81122 1.30404,3.8332 4.72233,3.8332 4.3798,0 8.97706,-3.58292 8.97706,-7.29099 0,-2.48959 -2.10763,-3.87928 -4.72233,-3.87928 -4.09012,0 -8.97706,3.45777 -8.97706,7.33707"
     id="path93"
     style="stroke-width:0.421521" />
  <path
     class="Note"
     d="m 445.09609,297.34867 c 0,1.81121 1.30406,3.8332 4.72234,3.8332 4.37985,0 8.97705,-3.58292 8.97705,-7.29099 0,-2.48959 -2.10759,-3.87928 -4.72233,-3.87928 -4.09008,0 -8.97706,3.45777 -8.97706,7.33707"
     id="path94"
     style="stroke-width:0.421521" />
  <path
     class="Note"
     d="m 781.53435,571.33744 c 0,1.81122 1.30413,3.8332 4.72241,3.8332 4.37982,0 8.97698,-3.58292 8.97698,-7.29099 0,-2.48959 -2.10755,-3.87928 -4.72233,-3.87928 -4.09004,0 -8.97706,3.45777 -8.97706,7.33707"
     id="path95"
     style="stroke-width:0.421521" />
  <path
     class="Note"
     d="m 482.20428,292.07968 c 0,1.8112 1.30408,3.8332 4.72235,3.8332 4.37985,0 8.97704,-3.58294 8.97704,-7.29099 0,-2.4896 -2.10758,-3.87929 -4.72233,-3.87929 -4.09006,0 -8.97706,3.45777 -8.97706,7.33708"
     id="path96"
     style="stroke-width:0.421521" />
  <path
     class="Note"
     d="m 824.6637,608.22042 c 0,1.81122 1.30405,3.8332 4.72233,3.8332 4.37982,0 8.97708,-3.58291 8.97708,-7.29097 0,-2.4896 -2.10765,-3.87931 -4.72233,-3.87931 -4.09012,0 -8.97708,3.45778 -8.97708,7.33708"
     id="path97"
     style="stroke-width:0.421521" />
  <path
     class="Note"
     d="m 519.31247,302.61766 c 0,1.81123 1.30409,3.83321 4.72235,3.83321 4.37985,0 8.97706,-3.58292 8.97706,-7.29099 0,-2.4896 -2.1076,-3.87929 -4.72234,-3.87929 -4.09006,0 -8.97707,3.45777 -8.97707,7.33707"
     id="path98"
     style="stroke-width:0.421521" />
  <path
     class="Note"
     d="m 853.41799,608.22042 c 0,1.81122 1.30406,3.8332 4.72233,3.8332 4.37982,0 8.97708,-3.58291 8.97708,-7.29097 0,-2.4896 -2.10763,-3.87931 -4.72233,-3.87931 -4.09012,0 -8.97708,3.45778 -8.97708,7.33708"
     id="path99"
     style="stroke-width:0.421521" />
  <path
     class="Note"
     d="m 574.9769,318.42466 c 0,1.81121 1.30409,3.83321 4.72233,3.83321 4.37985,0 8.97707,-3.58293 8.97707,-7.29099 0,-2.4896 -2.10761,-3.87929 -4.72235,-3.87929 -4.09006,0 -8.97705,3.45777 -8.97705,7.33707"
     id="path100"
     style="stroke-width:0.421521" />
  <path
     class="Note"
     d="m 882.16798,608.22042 c 0,1.81122 1.30411,3.8332 4.72241,3.8332 4.3798,0 8.97698,-3.58291 8.97698,-7.29097 0,-2.4896 -2.10755,-3.87931 -4.72233,-3.87931 -4.09004,0 -8.97706,3.45778 -8.97706,7.33708"
     id="path101"
     style="stroke-width:0.421521" />
  <path
     class="Note"
     d="m 646.23585,302.61766 c 0,1.81123 1.30408,3.83321 4.72235,3.83321 4.37984,0 8.97703,-3.58292 8.97703,-7.29099 0,-2.4896 -2.10756,-3.87929 -4.72232,-3.87929 -4.09006,0 -8.97706,3.45777 -8.97706,7.33707"
     id="path102"
     style="stroke-width:0.421521" />
  <path
     class="Note"
     d="m 716.7979,297.34867 c 0,1.81121 1.30413,3.8332 4.72243,3.8332 4.3798,0 8.97698,-3.58292 8.97698,-7.29099 0,-2.48959 -2.10755,-3.87928 -4.72233,-3.87928 -4.09004,0 -8.97708,3.45777 -8.97708,7.33707"
     id="path103"
     style="stroke-width:0.421521" />
  <path
     class="Note"
     d="m 948.7756,563.83571 c -5.81569,0 -7.88378,2.95063 -7.88378,5.69051 0,2.73987 2.06809,5.69051 7.88378,5.69051 5.81561,0 7.83764,-2.95064 7.83764,-5.69051 0,-2.73988 -2.02203,-5.69051 -7.83764,-5.69051 m 0.33592,10.03085 c -1.17898,0 -1.98249,-0.33591 -2.52916,-1.38969 -0.54668,-1.0538 -1.30406,-3.7937 -1.3502,-4.8936 -0.0857,-1.13941 0.33592,-1.81122 1.3502,-2.14711 0.50714,-0.17125 1.17896,-0.25686 1.85732,-0.25686 1.13283,0 1.89688,0.25686 2.48302,1.39629 0.59274,1.09331 1.39625,3.83318 1.39625,4.88698 0,2.06808 -1.5214,2.40399 -3.20743,2.40399"
     id="path104"
     style="stroke-width:0.421521" />
  <path
     class="Note"
     d="m 753.90611,292.07968 c 0,1.8112 1.30413,3.8332 4.72233,3.8332 4.3799,0 8.97707,-3.58294 8.97707,-7.29099 0,-2.4896 -2.10756,-3.87929 -4.72233,-3.87929 -4.09005,0 -8.97707,3.45777 -8.97707,7.33708"
     id="path105"
     style="stroke-width:0.421521" />
  <path
     class="Note"
     d="m 151.88185,302.61766 c 0,1.81123 1.30407,3.83321 4.72233,3.83321 4.37988,0 8.97707,-3.58292 8.97707,-7.29099 0,-2.4896 -2.10761,-3.87929 -4.72234,-3.87929 -4.09006,0 -8.97706,3.45777 -8.97706,7.33707"
     id="path106"
     style="stroke-width:0.421521" />
  <path
     class="Clef"
     d="m 49.541322,590.51659 c 0,-6.3228 -4.511574,-10.62362 -10.663153,-10.62362 -0.421514,-2.52911 -0.803505,-5.05823 -1.178903,-7.37659 4.425965,-4.68283 7.541239,-9.99135 7.541239,-16.65005 0,-3.87929 -1.17895,-6.95507 -1.896831,-8.47631 -1.007686,-2.14726 -2.232752,-3.66894 -2.950649,-3.66894 -0.289789,0 -1.639957,0.55346 -2.990172,2.1936 -2.739876,3.20734 -3.497265,8.55537 -3.497265,12.09878 0,2.27884 0.210757,4.34032 0.928653,9.10877 -0.04618,0 -2.239329,2.23274 -3.121897,2.99016 -3.839764,3.5434 -9.148297,8.68068 -9.148297,17.07156 0,7.92326 6.869475,14.12092 14.713688,14.12092 1.218443,0 2.35787,-0.12516 3.372164,-0.29638 0.757389,4.05054 1.264559,7.00117 1.264559,9.23391 0,4.38645 -2.278853,6.7048 -6.494061,6.7048 -1.053802,0 -1.936324,-0.21076 -1.98244,-0.25686 -0.07899,0 -0.164657,-0.0395 -0.164657,-0.079 0,-0.0857 0.08567,-0.1317 0.210773,-0.17124 1.98244,-0.29638 3.958319,-1.98245 3.958319,-4.67623 0,-2.27885 -1.725613,-4.68284 -4.887019,-4.68284 -2.91111,0 -4.807941,2.40399 -4.807941,5.18339 0,2.78599 2.107604,6.45452 7.798113,6.45452 5.440228,0 8.094495,-3.08236 8.094495,-8.4765 0,-1.63997 -0.25025,-3.53682 -0.67178,-5.94079 -0.125164,-0.84305 -0.335906,-2.15371 -0.632272,-3.75417 4.129553,-1.38969 7.205334,-5.651 7.205334,-10.03085 M 36.559823,555.99154 c 0.421515,-1.68609 2.318346,-6.11205 4.511606,-6.11205 0.632272,0 1.686074,2.02198 1.686074,4.97263 0,4.34032 -3.286555,7.63345 -6.19768,10.53798 -0.250281,-1.68607 -0.461022,-3.37214 -0.461022,-5.09774 0,-1.60047 0.164641,-2.99675 0.461022,-4.30082 m 1.264544,43.58778 c -6.026383,0 -11.170261,-4.21519 -11.170261,-10.58409 0,-5.13728 3.668561,-9.73448 7.337091,-12.9815 0.711319,-0.59276 1.389707,-1.22505 2.021979,-1.81122 0.375414,2.27226 0.717897,4.21519 0.968162,5.98691 -3.839763,1.09331 -6.447914,5.18337 -6.447914,9.10218 0,2.99675 2.318362,7.04071 5.690525,7.04071 0.335874,0 0.717881,-0.17125 0.717881,-0.59277 0,-0.3359 -0.382007,-0.58618 -0.928654,-0.92207 -1.646581,-0.97476 -2.575219,-2.10759 -2.575219,-4.13616 0,-2.56865 1.942947,-4.63673 4.38641,-5.2229 l 2.44351,13.82453 c -0.843029,0.21076 -1.600465,0.29638 -2.44351,0.29638 m 4.215208,-0.80352 c -0.882537,-5.01214 -2.021948,-11.71694 -2.318361,-13.57426 4.254732,0 6.072531,2.95065 6.447945,4.9792 0.04602,0.33591 0.125164,0.79695 0.125164,1.30409 0,3.03625 -1.26456,6.11204 -4.254732,7.29097 m -1.64655,22.09027 c 0,-1.56094 -1.429201,-2.23273 -2.818908,-2.23273 -1.771683,0 -3.503889,1.09332 -3.503889,2.99015 0,0.80352 0.296366,1.39629 0.928654,1.98247 -1.093295,0.42152 -2.232752,1.26455 -2.232752,2.57522 0,1.3897 1.264559,2.31836 3.121897,2.31836 2.272261,0 3.872726,-1.26455 3.872726,-3.08237 0,-0.96818 -0.42153,-1.76511 -1.17895,-2.31834 1.225066,-0.54667 1.811222,-1.21846 1.811222,-2.23276 m -2.608151,1.68609 c -0.632272,-0.3359 -0.803536,-0.42153 -0.928654,-0.50714 l -0.04618,-0.0395 c -0.671811,-0.38199 -0.882569,-0.67837 -0.882569,-1.17893 0,-0.764 0.59278,-1.31066 1.435809,-1.31066 0.843044,0 1.304067,0.50713 1.304067,1.38969 0,0.67839 -0.250265,1.13942 -0.882537,1.64656 m -1.607042,5.05824 c -0.922077,0 -1.554364,-0.58617 -1.554364,-1.47532 0,-0.79692 0.375414,-1.51484 1.09331,-1.93635 0.171249,0.0857 0.210757,0.12516 0.335906,0.16466 0.507123,0.25685 0.507123,0.25685 0.592779,0.34248 0.843045,0.46104 1.139411,0.88255 1.139411,1.47531 0,0.79695 -0.678388,1.42922 -1.607042,1.42922"
     id="path107"
     style="stroke-width:0.421521" />
  <path
     class="Clef"
     d="m 102.2313,300.72082 c 0,-6.3228 -4.511581,-10.62362 -10.663139,-10.62362 -0.42153,-2.52911 -0.803506,-5.05823 -1.17892,-7.37659 4.425966,-4.68283 7.541258,-9.99133 7.541258,-16.65003 0,-3.87929 -1.17895,-6.95509 -1.896849,-8.47635 -1.007686,-2.14722 -2.232737,-3.6689 -2.950633,-3.6689 -0.28979,0 -1.639958,0.55346 -2.990188,2.19359 -2.739861,3.20733 -3.497265,8.55537 -3.497265,12.09875 0,2.27886 0.210772,4.34036 0.928653,9.10879 -0.04602,0 -2.239329,2.23276 -3.121898,2.99018 -3.839747,3.54338 -9.148296,8.68066 -9.148296,17.07155 0,7.92327 6.869475,14.12091 14.713704,14.12091 1.218443,0 2.357854,-0.12516 3.372163,-0.29636 0.757389,4.05052 1.26456,7.00115 1.26456,9.2339 0,4.38646 -2.278869,6.70482 -6.494062,6.70482 -1.053802,0 -1.936339,-0.21076 -1.982455,-0.25687 -0.07899,0 -0.164641,-0.0395 -0.164641,-0.079 0,-0.0857 0.08567,-0.13169 0.210757,-0.17126 1.982456,-0.29637 3.958319,-1.98246 3.958319,-4.67622 0,-2.27887 -1.725613,-4.68284 -4.887004,-4.68284 -2.911109,0 -4.80794,2.40397 -4.80794,5.18339 0,2.78601 2.107588,6.45454 7.798113,6.45454 5.440212,0 8.094479,-3.08238 8.094479,-8.47652 0,-1.63997 -0.25025,-3.5368 -0.671764,-5.94077 -0.125164,-0.84305 -0.335922,-2.15372 -0.632288,-3.75419 4.129555,-1.38971 7.205336,-5.65099 7.205336,-10.03087 M 89.249799,266.19577 c 0.421515,-1.68607 2.318362,-6.11204 4.511606,-6.11204 0.632287,0 1.686089,2.02195 1.686089,4.97259 0,4.34035 -3.286554,7.63348 -6.197695,10.538 -0.250265,-1.68607 -0.461022,-3.37216 -0.461022,-5.09775 0,-1.60046 0.164641,-2.99675 0.461022,-4.3008 m 1.26456,43.58777 c -6.026384,0 -11.170277,-4.2152 -11.170277,-10.58409 0,-5.13729 3.668561,-9.73447 7.337091,-12.98149 0.711319,-0.59277 1.389723,-1.22506 2.021995,-1.81122 0.375413,2.27225 0.717896,4.21519 0.968146,5.98689 -3.839748,1.09333 -6.447898,5.18339 -6.447898,9.1022 0,2.99675 2.318361,7.04071 5.690509,7.04071 0.335874,0 0.717896,-0.17122 0.717896,-0.59275 0,-0.33591 -0.382022,-0.5862 -0.928653,-0.92209 -1.646582,-0.97477 -2.575235,-2.10761 -2.575235,-4.13618 0,-2.56863 1.942963,-4.63672 4.386426,-5.22289 l 2.443509,13.82454 c -0.843044,0.21076 -1.600465,0.29637 -2.443509,0.29637 m 4.215192,-0.80349 c -0.882537,-5.01215 -2.021948,-11.71696 -2.318361,-13.5743 4.254749,0 6.072549,2.95067 6.447949,4.97922 0.0462,0.33589 0.12516,0.79695 0.12516,1.30409 0,3.03626 -1.26458,6.11204 -4.254748,7.29099 m -1.646534,22.09025 c 0,-1.56094 -1.429216,-2.2327 -2.818924,-2.2327 -1.771683,0 -3.503873,1.09329 -3.503873,2.99012 0,0.80354 0.296366,1.39629 0.928638,1.98246 -1.093294,0.42151 -2.232736,1.26456 -2.232736,2.57523 0,1.38971 1.264559,2.31835 3.121897,2.31835 2.272245,0 3.87271,-1.26456 3.87271,-3.08236 0,-0.96818 -0.421514,-1.76512 -1.17895,-2.31836 1.225066,-0.54666 1.811238,-1.21844 1.811238,-2.23274 m -2.608151,1.68608 c -0.632287,-0.33588 -0.803552,-0.42152 -0.928654,-0.50714 l -0.04618,-0.0395 c -0.671827,-0.38203 -0.882584,-0.67841 -0.882584,-1.17895 0,-0.764 0.592795,-1.31068 1.435824,-1.31068 0.843044,0 1.304067,0.50714 1.304067,1.38971 0,0.6784 -0.250265,1.13941 -0.882553,1.64655 m -1.607042,5.05823 c -0.922076,0 -1.554348,-0.58617 -1.554348,-1.47533 0,-0.79691 0.375398,-1.51481 1.093294,-1.93632 0.171265,0.0857 0.210758,0.12516 0.335906,0.16464 0.507139,0.25687 0.507139,0.25687 0.592779,0.34248 0.843045,0.46107 1.139411,0.88259 1.139411,1.47532 0,0.79694 -0.678388,1.42921 -1.607042,1.42921"
     id="path108"
     style="stroke-width:0.421521" />
  <path
     class="TimeSig"
     d="m 120.94285,285.12458 v 3.11533 h -3.49732 c -0.29636,0 -0.59273,0.25683 -0.59273,0.59274 v 0.80355 c 0,0.33586 0.29637,0.58615 0.59273,0.58615 h 12.77075 c 0.34248,0 0.59274,-0.25029 0.59274,-0.58615 v -0.80355 c 0,-0.33591 -0.25026,-0.59274 -0.59274,-0.59274 h -3.74757 v -3.11533 h 3.74757 c 0.34248,0 0.59274,-0.29637 0.59274,-0.63228 v -0.80352 c 0,-0.29638 -0.25026,-0.58617 -0.59274,-0.58617 h -3.74757 v -6.7048 c 0,-0.25027 -0.12516,-0.46104 -0.3359,-0.54665 l -0.50714,-0.25687 c -0.0857,-0.0395 -0.21076,-0.0791 -0.2964,-0.0791 -0.12516,0.0395 -0.29638,0.0791 -0.38199,0.16467 l -3.83322,3.49731 c -0.12516,0.1317 -0.17121,0.29638 -0.17121,0.46762 v 3.45777 h -4.8475 c 0,0 4.68285,-5.05824 9.65544,-11.72353 0.17126,-0.21076 0.21075,-0.42153 0.21075,-0.58617 0,-0.21076 -0.0857,-0.38198 -0.12516,-0.42152 l -0.9287,-0.92865 c -0.0857,-0.0857 -0.25025,-0.17127 -0.42151,-0.17127 -0.25027,0 -5.94736,0 -6.23715,0 -0.34249,0 -0.55325,0.25688 -0.59279,0.50717 0,0 -0.21076,3.12187 -1.30408,6.53356 -1.09989,3.41826 -2.36445,5.52585 -3.45778,7.08021 0,0 -0.12516,0.21076 -0.12516,0.46762 0,0.0857 0,0.16467 0.0395,0.2503 0.17125,0.29636 0.42152,0.75743 0.42152,0.75743 0,0 0.0857,0.25683 0.46104,0.25683 h 7.25148"
     id="path109"
     style="stroke-width:0.421521" />
  <path
     class="TimeSig"
     d="m 120.94285,306.20057 v 3.11534 h -3.49732 c -0.29636,0 -0.59273,0.25682 -0.59273,0.59273 v 0.80355 c 0,0.33586 0.29637,0.58616 0.59273,0.58616 h 12.77075 c 0.34248,0 0.59274,-0.2503 0.59274,-0.58616 v -0.80355 c 0,-0.33591 -0.25026,-0.59273 -0.59274,-0.59273 h -3.74757 v -3.11534 h 3.74757 c 0.34248,0 0.59274,-0.29637 0.59274,-0.63227 v -0.80352 c 0,-0.29638 -0.25026,-0.58617 -0.59274,-0.58617 h -3.74757 v -6.70481 c 0,-0.25026 -0.12516,-0.46104 -0.3359,-0.54664 l -0.50714,-0.25688 c -0.0857,-0.0395 -0.21076,-0.0791 -0.2964,-0.0791 -0.12516,0.0395 -0.29638,0.0791 -0.38199,0.16467 l -3.83322,3.49731 c -0.12516,0.1317 -0.17121,0.29639 -0.17121,0.46762 v 3.45777 h -4.8475 c 0,0 4.68285,-5.05823 9.65544,-11.72353 0.17126,-0.21076 0.21075,-0.42153 0.21075,-0.58617 0,-0.21076 -0.0857,-0.38198 -0.12516,-0.42151 l -0.9287,-0.92866 c -0.0857,-0.0857 -0.25025,-0.17126 -0.42151,-0.17126 -0.25027,0 -5.94736,0 -6.23715,0 -0.34249,0 -0.55325,0.25687 -0.59279,0.50717 0,0 -0.21076,3.12186 -1.30408,6.53355 -1.09989,3.41826 -2.36445,5.52585 -3.45778,7.08022 0,0 -0.12516,0.21075 -0.12516,0.46761 0,0.0857 0,0.16467 0.0395,0.2503 0.17125,0.29637 0.42152,0.75744 0.42152,0.75744 0,0 0.0857,0.25682 0.46104,0.25682 h 7.25148"
     id="path110"
     style="stroke-width:0.421521" />
  <path
     class="Beam"
     fill-rule="evenodd"
     d="m 190.89239,619.59573 58.55856,-7.9035 v 5.31573 l -58.55856,7.9035 v -5.31573"
     id="path111"
     style="stroke-width:0.42492" />
  <path
     class="Beam"
     fill-rule="evenodd"
     d="m 190.89239,611.69223 29.8064,-4.02398 v 5.31998 l -29.8064,4.01973 v -5.31573"
     id="path112"
     style="stroke-width:0.42492" />
  <path
     class="Beam"
     fill-rule="evenodd"
     d="m 636.03779,569.56574 h 58.56232 v 5.269 h -58.56232 v -5.269"
     id="path113"
     style="stroke-width:0.42492" />
  <path
     class="Beam"
     fill-rule="evenodd"
     d="m 636.03779,577.46923 h 29.80813 v 5.26901 h -29.80813 v -5.26901"
     id="path114"
     style="stroke-width:0.42492" />
  <path
     class="Beam"
     fill-rule="evenodd"
     d="m 877.87206,258.69354 112.37843,-2.63449 v 5.27027 l -112.37843,2.63451 v -5.27029"
     id="path115"
     style="stroke-width:0.42492" />
  <path
     class="Beam"
     fill-rule="evenodd"
     d="m 877.87206,266.59706 112.37843,-2.63451 v 5.27027 l -112.37843,2.63451 v -5.27027"
     id="path116"
     style="stroke-width:0.42492" />
  <path
     class="Beam"
     fill-rule="evenodd"
     d="m 531.95382,266.59493 56.71822,2.63449 v 5.27453 l -56.71822,-2.63451 v -5.27451"
     id="path117"
     style="stroke-width:0.42492" />
  <path
     class="Beam"
     fill-rule="evenodd"
     d="m 88.525528,556.39323 h 87.310712 v 5.26901 H 88.525528 v -5.26901"
     id="path118"
     style="stroke-width:0.42492" />
  <path
     class="Beam"
     fill-rule="evenodd"
     d="m 88.525528,564.29675 h 87.310712 v 5.26899 H 88.525528 v -5.26899"
     id="path119"
     style="stroke-width:0.42492" />
  <path
     class="Beam"
     fill-rule="evenodd"
     d="m 383.52105,258.69354 112.37838,-2.63449 v 5.27027 l -112.37838,2.63451 v -5.27029"
     id="path120"
     style="stroke-width:0.42492" />
  <path
     class="Beam"
     fill-rule="evenodd"
     d="m 383.52105,266.59706 112.37838,-2.63451 v 5.27027 l -112.37838,2.63451 v -5.27027"
     id="path121"
     style="stroke-width:0.42492" />
  <path
     class="Beam"
     fill-rule="evenodd"
     d="m 753.90611,316.65297 h 56.71396 v 5.26899 h -56.71396 v -5.26899"
     id="path122"
     style="stroke-width:0.42492" />
  <path
     class="Beam"
     fill-rule="evenodd"
     d="m 724.03009,598.54522 h 58.55808 v 5.26901 h -58.55808 v -5.26901"
     id="path123"
     style="stroke-width:0.42492" />
  <path
     class="Beam"
     fill-rule="evenodd"
     d="m 724.03009,590.64174 h 29.80801 v 5.26899 h -29.80801 v -5.26899"
     id="path124"
     style="stroke-width:0.42492" />
  <path
     class="Beam"
     fill-rule="evenodd"
     d="m 419.17602,545.84249 58.55812,5.26901 v 5.29024 l -58.55812,-5.269 v -5.29025"
     id="path125"
     style="stroke-width:0.42492" />
  <path
     class="Beam"
     fill-rule="evenodd"
     d="m 419.17602,553.74599 29.80808,2.68125 v 5.29449 l -29.80808,-2.68549 v -5.29025"
     id="path126"
     style="stroke-width:0.42492" />
  <path
     class="Beam"
     fill-rule="evenodd"
     d="m 259.55255,316.65297 h 56.71652 v 5.26899 h -56.71652 v -5.26899"
     id="path127"
     style="stroke-width:0.42492" />
  <path
     class="Beam"
     fill-rule="evenodd"
     d="m 164.52404,261.32677 71.61632,-2.63449 v 5.27282 l -71.61632,2.63449 v -5.27282"
     id="path128"
     style="stroke-width:0.42492" />
  <path
     class="Beam"
     fill-rule="evenodd"
     d="m 236.14036,266.59577 -11.59181,0.42663 v 5.2724 l 11.59181,-0.4262 v -5.27283"
     id="path129"
     style="stroke-width:0.42492" />
  <path
     class="Beam"
     fill-rule="evenodd"
     d="m 658.87717,261.32677 71.6159,-2.63449 v 5.27282 l -71.6159,2.63449 v -5.27282"
     id="path130"
     style="stroke-width:0.42492" />
  <path
     class="Beam"
     fill-rule="evenodd"
     d="m 730.49307,266.59577 -11.59176,0.42663 v 5.2724 l 11.59176,-0.4262 v -5.27283"
     id="path131"
     style="stroke-width:0.42492" />
  <path
     class="Beam"
     fill-rule="evenodd"
     d="m 837.30505,569.56574 h 58.55808 v 5.269 h -58.55808 v -5.269"
     id="path132"
     style="stroke-width:0.42492" />
  <path
     class="Beam"
     fill-rule="evenodd"
     d="m 837.30505,577.46923 h 29.80803 v 5.26901 h -29.80803 v -5.26901"
     id="path133"
     style="stroke-width:0.42492" />
  <path
     class="Beam"
     fill-rule="evenodd"
     d="m 522.76283,598.54522 h 58.55811 v 5.26901 h -58.55811 v -5.26901"
     id="path134"
     style="stroke-width:0.42492" />
  <path
     class="Beam"
     fill-rule="evenodd"
     d="m 522.76283,590.64174 h 29.80808 v 5.26899 h -29.80808 v -5.26899"
     id="path135"
     style="stroke-width:0.42492" />
  <path
     class="Beam"
     fill-rule="evenodd"
     d="m 291.5256,603.81423 87.31282,2.6345 v 5.269 l -87.31282,-2.63451 v -5.26899"
     id="path136"
     style="stroke-width:0.42492" />
  <path
     class="Beam"
     fill-rule="evenodd"
     d="m 291.5256,595.91073 87.31282,2.63449 v 5.26901 l -87.31282,-2.63451 v -5.26899"
     id="path137"
     style="stroke-width:0.42492" />
  <path
     class="NoteDot"
     d="m 170.84685,295.57697 c 0,1.17894 0.92865,2.10759 2.10759,2.10759 1.17893,0 2.1076,-0.92865 2.1076,-2.10759 0,-1.17895 -0.92867,-2.1076 -2.1076,-2.1076 -1.17894,0 -2.10759,0.92865 -2.10759,2.1076"
     id="path138"
     style="stroke-width:0.421521" />
  <path
     class="NoteDot"
     d="m 665.20001,295.57697 c 0,1.17894 0.92865,2.10759 2.10756,2.10759 1.17896,0 2.10763,-0.92865 2.10763,-2.10759 0,-1.17895 -0.92867,-2.1076 -2.10763,-2.1076 -1.17891,0 -2.10756,0.92865 -2.10756,2.1076"
     id="path139"
     style="stroke-width:0.421521" />
  <metadata
     id="metadata139">
    <rdf:RDF>
      <cc:Work
         rdf:about="">
        <dc:title>alouette_gentille_alouette</dc:title>
      </cc:Work>
    </rdf:RDF>
  </metadata>
</svg>
