<?xml version="1.0" encoding="UTF-8" standalone="no"?>
<svg
   width="297mm"
   height="210mm"
   viewBox="0 0 4209.4489 2976.378"
   version="1.2"
   id="svg112"
   sodipodi:docname="la_double_croche.svg"
   inkscape:version="1.2.2 (b0a8486541, 2022-12-01)"
   xmlns:inkscape="http://www.inkscape.org/namespaces/inkscape"
   xmlns:sodipodi="http://sodipodi.sourceforge.net/DTD/sodipodi-0.dtd"
   xmlns="http://www.w3.org/2000/svg"
   xmlns:svg="http://www.w3.org/2000/svg"
   xmlns:rdf="http://www.w3.org/1999/02/22-rdf-syntax-ns#"
   xmlns:cc="http://creativecommons.org/ns#"
   xmlns:dc="http://purl.org/dc/elements/1.1/">
  <defs
     id="defs116" />
  <sodipodi:namedview
     id="namedview114"
     pagecolor="#ffffff"
     bordercolor="#000000"
     borderopacity="0.25"
     inkscape:showpageshadow="2"
     inkscape:pageopacity="0.0"
     inkscape:pagecheckerboard="0"
     inkscape:deskcolor="#d1d1d1"
     inkscape:document-units="mm"
     showgrid="false"
     inkscape:zoom="0.85899631"
     inkscape:cx="676.95285"
     inkscape:cy="366.12497"
     inkscape:window-width="1280"
     inkscape:window-height="651"
     inkscape:window-x="0"
     inkscape:window-y="32"
     inkscape:window-maximized="1"
     inkscape:current-layer="svg112" />
  <title
     id="title2">Partition sans titre</title>
  <desc
     id="desc4">Generated by MuseScore Studio 4.5.2</desc>
  <polyline
     class="StaffLines"
     fill="none"
     stroke="#000000"
     stroke-width="2.73"
     stroke-linejoin="bevel"
     points="336.598,634.198 2764.6,634.198"
     id="polyline6"
     transform="matrix(1.3687308,0,0,4,-114.955,-1365.3163)" />
  <polyline
     class="StaffLines"
     fill="none"
     stroke="#000000"
     stroke-width="2.73"
     stroke-linejoin="bevel"
     points="336.598,658.998 2764.6,658.998"
     id="polyline8"
     transform="matrix(1.3687308,0,0,4,-114.955,-1365.3163)" />
  <polyline
     class="StaffLines"
     fill="none"
     stroke="#000000"
     stroke-width="2.73"
     stroke-linejoin="bevel"
     points="336.598,683.798 2764.6,683.798"
     id="polyline10"
     transform="matrix(1.3687308,0,0,4,-114.955,-1365.3163)" />
  <polyline
     class="StaffLines"
     fill="none"
     stroke="#000000"
     stroke-width="2.73"
     stroke-linejoin="bevel"
     points="336.598,708.598 2764.6,708.598"
     id="polyline12"
     transform="matrix(1.3687308,0,0,4,-114.955,-1365.3163)" />
  <polyline
     class="StaffLines"
     fill="none"
     stroke="#000000"
     stroke-width="2.73"
     stroke-linejoin="bevel"
     points="336.598,733.398 2764.6,733.398"
     id="polyline14"
     transform="matrix(1.3687308,0,0,4,-114.955,-1365.3163)" />
  <polyline
     class="BarLine"
     fill="none"
     stroke="#000000"
     stroke-width="4.46"
     stroke-linejoin="bevel"
     points="2762.37,632.834 2762.37,734.762"
     id="polyline34"
     transform="matrix(1.3687308,0,0,4,-114.955,-1365.3163)" />
  <polyline
     class="Stem"
     fill="none"
     stroke="#000000"
     stroke-width="2.48"
     stroke-linejoin="bevel"
     points="566.51,679.83 566.51,603.298"
     id="polyline52"
     transform="matrix(3,0,0,4,-664.03696,-1365.3163)" />
  <polyline
     class="Stem"
     fill="none"
     stroke="#000000"
     stroke-width="2.48"
     stroke-linejoin="bevel"
     points="1233.13,655.03 1233.13,584.648"
     id="polyline54"
     transform="matrix(3,0,0,4,-664.03696,-1365.3163)" />
  <polyline
     class="Stem"
     fill="none"
     stroke="#000000"
     stroke-width="2.48"
     stroke-linejoin="bevel"
     points="925.457,692.23 925.457,596.949"
     id="polyline56"
     transform="matrix(3,0,0,4,-664.03696,-1365.3163)" />
  <polyline
     class="Stem"
     fill="none"
     stroke="#000000"
     stroke-width="2.48"
     stroke-linejoin="bevel"
     points="1028.01,679.83 1028.01,592.849"
     id="polyline58"
     transform="matrix(3,0,0,4,-664.03696,-1365.3163)" />
  <polyline
     class="Stem"
     fill="none"
     stroke="#000000"
     stroke-width="2.48"
     stroke-linejoin="bevel"
     points="1130.57,667.43 1130.57,588.748"
     id="polyline60"
     transform="matrix(3,0,0,4,-664.03696,-1365.3163)" />
  <path
     class="Hook"
     d="m 1093.9902,1235.1497 c -8.0448,-13.888 -16.9728,-26.536 -31.5736,-46.0041 -11.5786,-15.4999 -16.9726,-28.9537 -19.0186,-39.3079 -0.3255,-1.984 -0.6045,-4.7738 -0.93,-7.936 15.2055,0 34.5494,27.4039 45.2446,46.0662 11.6248,20.2118 14.2756,36.0838 14.2756,51.1498 0,3.968 -0.2793,7.936 -0.558,11.904 -2.418,-6.3241 -5.0688,-11.4698 -7.44,-15.872 m -62.2172,-36.456 c 0,1.1782 2.3715,2.728 4.464,3.968 7.719,3.534 30.9692,23.374 48.8252,58.7142 10.0904,20.2118 12.462,34.5338 12.462,47.9878 0,2.418 0,4.402 -0.279,6.7579 0,9.5481 -2.0925,29.76 -6.5565,45.632 -0.279,1.984 -1.1624,4.4021 -1.1624,6.3861 0,1.5499 0.558,3.1621 2.046,4.3402 0.6044,0.3716 0.93,0.3716 1.488,0.3716 2.0924,0 3.3013,-3.1621 4.464,-5.518 5.394,-11.098 13.1129,-32.5498 13.1129,-54.808 0,-11.4698 -0.6045,-21.018 -1.488,-29.3258 2.976,-14.6943 5.6731,-29.3882 5.6731,-48.7942 0,-20.6458 -4.1851,-39.3081 -14.322,-57.1641 -13.95,-24.6139 -29.1556,-45.2599 -40.4551,-67.0839 -11.2995,-21.824 -19.623,-62.682 -19.623,-62.682 -0.6045,-2.79 -0.93,-4.774 -4.185,-4.774 -3.5805,0 -4.464,1.984 -4.464,4.774 v 151.218"
     id="path62"
     style="stroke-width:3.43639" />
  <path
     class="Note"
     d="m 2019.382,1436.1537 c 0,17.05 9.207,36.0841 33.3404,36.0841 30.9228,0 63.3796,-33.7281 63.3796,-68.6341 0,-23.436 -14.88,-36.518 -33.3404,-36.518 -28.8764,0 -63.3796,32.55 -63.3796,69.068"
     id="path64"
     style="stroke-width:3.43639" />
  <path
     class="Note"
     d="m 942.53804,1386.5537 c 0,17.05 9.207,36.0841 33.34044,36.0841 30.92272,0 63.37952,-33.7281 63.37952,-68.6341 0,-23.436 -14.88,-36.518 -33.3404,-36.518 -28.87641,0 -63.37956,32.55 -63.37956,69.068"
     id="path66"
     style="stroke-width:3.43639" />
  <path
     class="Note"
     d="m 2327.05,1386.5537 c 0,17.05 9.207,36.0841 33.3405,36.0841 30.9225,0 63.3795,-33.7281 63.3795,-68.6341 0,-23.436 -14.88,-36.518 -33.3405,-36.518 -28.8765,0 -63.3795,32.55 -63.3795,69.068"
     id="path68"
     style="stroke-width:3.43639" />
  <path
     class="Note"
     d="m 2634.733,1336.9537 c 0,17.05 9.207,36.0841 33.3405,36.0841 30.9225,0 63.3795,-33.7281 63.3795,-68.6341 0,-23.436 -14.88,-36.518 -33.3405,-36.518 -28.8765,0 -63.3795,32.55 -63.3795,69.068"
     id="path70"
     style="stroke-width:3.43639" />
  <path
     class="Note"
     d="m 2942.383,1287.3537 c 0,17.05 9.207,36.084 33.3405,36.084 30.9225,0 63.3795,-33.728 63.3795,-68.634 0,-23.436 -14.88,-36.518 -33.3405,-36.518 -28.8765,0 -63.3795,32.55 -63.3795,69.068"
     id="path72"
     style="stroke-width:3.43639" />
  <path
     class="Clef"
     d="m 527.4326,1753.5936 c 0,-14.6939 -10.09041,-21.0177 -19.902,-21.0177 -12.50841,0 -24.738,10.2918 -24.738,28.1478 0,7.5642 2.09244,13.144 6.27759,18.6619 -7.76559,3.968 -15.48471,11.904 -15.48471,24.2421 0,13.0821 8.928,21.824 22.04112,21.824 16.04244,0 27.342,-11.904 27.342,-29.016 0,-9.1141 -2.976,-16.616 -8.32356,-21.824 8.64915,-5.1461 12.78756,-11.4699 12.78756,-21.0181 m -29.76,63.488 c -6.51,0 -10.974,-5.5179 -10.974,-13.888 0,-7.936 2.65044,-14.2598 7.71888,-18.2278 1.20912,0.8059 1.488,0.8059 2.37156,1.5499 3.58044,2.4181 3.58044,2.4181 4.18515,3.224 5.62641,4.3402 8.04441,8.3082 8.04441,13.888 0,7.5019 -4.78956,13.4539 -11.346,13.4539 m 11.346,-47.616 c -4.464,-3.1617 -5.67312,-3.968 -6.55641,-4.7739 l -0.60471,-0.3716 c -4.464,-3.5962 -5.952,-6.3861 -5.952,-11.0981 0,-7.192 4.18512,-12.3381 10.13712,-12.3381 5.62644,0 9.20688,4.7739 9.20688,13.0821 0,6.3861 -1.76688,10.7259 -6.23088,15.4998 m 83.00244,-301.1961 c 0,-59.8921 -31.85244,-100.378 -75.28356,-100.378 -2.976,-23.808 -5.67288,-47.2442 -8.32329,-69.44 31.248,-44.0821 53.24241,-94.054 53.24241,-156.736 0,-36.1461 -8.32356,-65.472 -13.392,-79.7926 -7.11441,-20.213 -15.76356,-34.101 -20.832,-34.101 -2.046,0 -11.57841,4.7736 -21.11112,20.213 -19.344,30.1926 -24.69129,80.5366 -24.69129,113.8924 0,21.4522 1.488,40.8581 6.55641,85.7461 -0.32556,0 -15.81,21.0181 -22.04112,28.1481 -27.10929,33.3559 -64.58844,81.7159 -64.58844,160.704 0,74.5862 48.49956,132.9281 103.88115,132.9281 8.60241,0 16.64685,-1.1781 23.808,-2.7899 5.34729,37.7579 8.928,65.9057 8.928,86.9238 0,41.2922 -16.08915,63.1162 -46.128,63.1162 -7.16115,0 -13.392,-1.984 -13.99671,-2.4181 -0.279,0 -0.88329,-0.372 -0.88329,-0.744 0,-0.8059 0.60441,-1.24 1.488,-1.6122 13.99641,-2.7899 27.94641,-19.0337 27.94641,-44.0198 0,-21.4522 -12.18312,-44.0821 -34.50312,-44.0821 -20.832,0 -33.94488,22.6299 -33.94488,48.7941 0,26.2261 14.88,60.76 55.056,60.76 38.40888,0 57.14844,-29.016 57.14844,-79.7941 0,-15.4379 -1.76685,-33.2939 -4.74285,-55.9238 -0.88359,-7.936 -2.37159,-20.2741 -4.464,-35.3402 29.15529,-13.0821 50.87085,-53.1958 50.87085,-94.054 m -91.65156,-325.376 c 2.976,-15.872 16.368,-57.536 31.85271,-57.536 4.464,0 11.904,19.0338 11.904,46.8098 0,40.8581 -23.20359,71.8581 -43.75671,99.2 -1.76688,-15.872 -3.25488,-31.744 -3.25488,-47.9878 0,-15.0661 1.16244,-28.2101 3.25488,-40.486 m 8.928,410.3159 c -42.54729,0 -78.86394,-39.68 -78.86394,-99.6339 0,-48.3602 25.57506,-91.636 51.80106,-122.202 5.022,-5.5801 9.81159,-11.098 14.27559,-17.05 2.65041,21.3899 4.74285,39.68 6.83529,56.3579 -27.10929,10.2922 -45.52329,48.7941 -45.52329,85.6841 0,28.21 16.368,66.278 40.176,66.278 2.37129,0 5.06841,-1.6118 5.06841,-5.5798 0,-3.1621 -2.69712,-5.5183 -6.55641,-8.6802 -11.62515,-9.176 -18.18159,-19.84 -18.18159,-38.936 0,-24.18 13.71759,-43.6482 30.96888,-49.1661 l 17.25156,130.1381 c -5.952,1.6122 -11.29956,2.7899 -17.25156,2.7899 m 29.76,-7.5638 c -6.23088,-47.1821 -14.27529,-110.2981 -16.368,-127.7823 30.03912,0 42.87312,27.7762 45.52356,46.8722 0.32556,3.162 0.88356,7.502 0.88356,12.276 0,28.582 -8.928,57.1642 -30.03912,68.6341"
     id="path76"
     style="stroke-width:3.43639" />
  <path
     class="Rest"
     d="m 1547.2766,1296.0955 c 0.3256,-0.8059 0.3256,-1.24 0.3256,-1.984 0,-1.984 -0.8836,-3.968 -2.6972,-4.7739 -0.6044,-0.4341 -1.1624,-0.4341 -1.488,-0.4341 -1.7668,0 -2.976,1.24 -3.8596,3.224 -7.1608,19.0341 -19.0648,40.4242 -35.4328,46.0042 3.5804,-5.58 5.0684,-11.904 5.0684,-19.0341 0,-15.4999 -10.416,-27.4039 -22.0408,-27.4039 -11.904,0.806 -20.5067,13.888 -20.5067,29.3879 0.279,11.9041 6.231,21.8241 13.9967,25.7921 5.3472,3.162 10.974,3.968 16.6468,3.968 14.88,-0.806 26.5052,-10.726 35.4332,-26.2262 l -13.392,63.1162 c -4.1852,18.662 -21.1576,44.4539 -36.3168,49.6 3.2552,-5.5798 5.0688,-12.2758 5.0688,-19.0341 0,-15.8719 -10.1372,-27.4039 -21.7622,-27.4039 -11.904,0 -20.832,13.516 -20.832,29.3879 0,11.904 6.2775,21.824 13.9965,25.3583 5.673,3.224 10.7415,3.968 16.6937,3.968 14.88,-0.744 26.4584,-10.664 35.3864,-26.1642 l -30.3644,144.832 8.0444,2.7899 58.032,-274.9701"
     id="path96"
     style="stroke-width:3.43639" />
  <path
     class="Beam"
     fill-rule="evenodd"
     d="m 2108.614,997.85565 930.459,-49.6 v 49.64 l -930.459,49.60005 v -49.64005"
     id="path108"
     style="stroke-width:3.4641" />
  <path
     class="Beam"
     fill-rule="evenodd"
     d="m 2108.614,1072.2557 930.459,-49.6 v 49.64 l -930.459,49.6 v -49.64"
     id="path110"
     style="stroke-width:3.4641" />
  <metadata
     id="metadata985">
    <rdf:RDF>
      <cc:Work
         rdf:about="">
        <dc:title>Partition sans titre</dc:title>
      </cc:Work>
    </rdf:RDF>
  </metadata>
  <text
     xml:space="preserve"
     style="font-size:120px;font-family:sans-serif;-inkscape-font-specification:sans-serif;fill:#000000;stroke:#000000;stroke-width:1.41732"
     x="337.91071"
     y="665.82202"
     id="text1769"><tspan
       sodipodi:role="line"
       id="tspan1767"
       style="stroke-width:1.41732"
       x="337.91071"
       y="665.82202">Double croche isolée</tspan></text>
  <path
     style="fill:#000000;stroke:#000000;stroke-width:5.66929144;stroke-dasharray:none"
     d="m 1016.8657,741.14578 -1.5246,267.36132 z"
     id="path1834" />
  <path
     style="fill:#000000;stroke:#000000;stroke-width:5.66929;stroke-dasharray:none"
     d="M 1016.0488,1014.574 985.63296,979.81218 Z"
     id="path1836" />
  <path
     style="fill:#000000;stroke:#000000;stroke-width:5.66929;stroke-dasharray:none"
     d="m 1012.0574,1012.8408 27.4958,-29.38494 z"
     id="path1838" />
  <text
     xml:space="preserve"
     style="font-size:120px;font-family:sans-serif;-inkscape-font-specification:sans-serif;fill:#000000;stroke:#000000;stroke-width:1.41732;stroke-dasharray:none"
     x="1080.9581"
     y="1994.0386"
     id="text1874"><tspan
       sodipodi:role="line"
       id="tspan1872"
       style="stroke-width:1.41732;stroke-dasharray:none"
       x="1080.9581"
       y="1994.0386">Quart de soupir</tspan></text>
  <path
     style="fill:#000000;stroke:#000000;stroke-width:5.66929144;stroke-dasharray:none"
     d="m 1488.1443,1860.2109 c 4.817,-17.041 0.023,-224.5998 0.023,-224.5998 z"
     id="path1928" />
  <path
     style="fill:#000000;stroke:#000000;stroke-width:5.66929144;stroke-dasharray:none"
     d="m 1487.0217,1637.6253 -22.5859,26.6008 z"
     id="path1930" />
  <path
     style="fill:#000000;stroke:#000000;stroke-width:5.66929144;stroke-dasharray:none"
     d="m 1489.5963,1638.3111 20.5986,23.6634 z"
     id="path1932" />
  <text
     xml:space="preserve"
     style="font-size:120px;font-family:sans-serif;-inkscape-font-specification:sans-serif;fill:#000000;stroke:#000000;stroke-width:1.41732;stroke-dasharray:none"
     x="1864.4458"
     y="668.12653"
     id="text1973"><tspan
       sodipodi:role="line"
       id="tspan1971"
       style="stroke-width:1.41732;stroke-dasharray:none"
       x="1864.4458"
       y="668.12653">Doubles croches groupées</tspan></text>
  <path
     style="fill:#000000;stroke:#000000;stroke-width:5.66929144;stroke-dasharray:none"
     d="m 2571.7318,735.72853 2.4045,193.74571 z"
     id="path1975" />
  <path
     style="fill:#000000;stroke:#000000;stroke-width:5.66929;stroke-dasharray:none"
     d="m 2573.3652,927.25256 -30.42,-26.4945 z"
     id="path1977" />
  <path
     style="fill:#000000;stroke:#000000;stroke-width:5.66929;stroke-dasharray:none"
     d="m 2572.8824,927.7996 36.9973,-21.66008 z"
     id="path1979" />
</svg>
