<?xml version="1.0" encoding="UTF-8" standalone="no"?>
<svg
   width="297mm"
   height="210mm"
   viewBox="0 0 4209.4489 2976.378"
   version="1.2"
   id="svg80"
   sodipodi:docname="contretemps.svg"
   inkscape:version="1.2.2 (b0a8486541, 2022-12-01)"
   xmlns:inkscape="http://www.inkscape.org/namespaces/inkscape"
   xmlns:sodipodi="http://sodipodi.sourceforge.net/DTD/sodipodi-0.dtd"
   xmlns="http://www.w3.org/2000/svg"
   xmlns:svg="http://www.w3.org/2000/svg"
   xmlns:rdf="http://www.w3.org/1999/02/22-rdf-syntax-ns#"
   xmlns:cc="http://creativecommons.org/ns#"
   xmlns:dc="http://purl.org/dc/elements/1.1/">
  <defs
     id="defs84" />
  <sodipodi:namedview
     id="namedview82"
     pagecolor="#ffffff"
     bordercolor="#000000"
     borderopacity="0.25"
     inkscape:showpageshadow="2"
     inkscape:pageopacity="0.0"
     inkscape:pagecheckerboard="0"
     inkscape:deskcolor="#d1d1d1"
     inkscape:document-units="mm"
     showgrid="false"
     inkscape:zoom="0.34128173"
     inkscape:cx="691.5108"
     inkscape:cy="536.21388"
     inkscape:window-width="1104"
     inkscape:window-height="552"
     inkscape:window-x="0"
     inkscape:window-y="32"
     inkscape:window-maximized="1"
     inkscape:current-layer="svg80" />
  <title
     id="title2">Partition sans titre</title>
  <desc
     id="desc4">Generated by MuseScore Studio 4.6.5</desc>
  <polyline
     class="StaffLines"
     fill="none"
     stroke="#000000"
     stroke-width="2.73"
     stroke-linejoin="bevel"
     points="336.598,634.198 2764.6,634.198"
     id="polyline6"
     transform="matrix(1.6146904,0,0,2.270491,-403.19808,-157.61267)" />
  <polyline
     class="StaffLines"
     fill="none"
     stroke="#000000"
     stroke-width="2.73"
     stroke-linejoin="bevel"
     points="336.598,658.998 2764.6,658.998"
     id="polyline8"
     transform="matrix(1.6146904,0,0,2.270491,-403.19808,-157.61267)" />
  <polyline
     class="StaffLines"
     fill="none"
     stroke="#000000"
     stroke-width="2.73"
     stroke-linejoin="bevel"
     points="336.598,683.798 2764.6,683.798"
     id="polyline10"
     transform="matrix(1.6146904,0,0,2.270491,-403.19808,-157.61267)" />
  <polyline
     class="StaffLines"
     fill="none"
     stroke="#000000"
     stroke-width="2.73"
     stroke-linejoin="bevel"
     points="336.598,708.598 2764.6,708.598"
     id="polyline12"
     transform="matrix(1.6146904,0,0,2.270491,-403.19808,-157.61267)" />
  <polyline
     class="StaffLines"
     fill="none"
     stroke="#000000"
     stroke-width="2.73"
     stroke-linejoin="bevel"
     points="336.598,733.398 2764.6,733.398"
     id="polyline14"
     transform="matrix(1.6146904,0,0,2.270491,-403.19808,-157.61267)" />
  <polyline
     class="BarLine"
     fill="none"
     stroke="#000000"
     stroke-width="4.46"
     stroke-linejoin="bevel"
     points="2061.33,632.834 2061.33,734.762"
     id="polyline22"
     transform="matrix(2.270491,0,0,2.270491,-623.93927,-157.61267)" />
  <polyline
     class="Stem"
     fill="none"
     stroke="#000000"
     stroke-width="2.48"
     stroke-linejoin="bevel"
     points="1869.89,687.965 1869.89,764.299"
     id="polyline24"
     transform="matrix(2.270491,0,0,2.270491,-623.93927,-157.61267)" />
  <polyline
     class="Stem"
     fill="none"
     stroke="#000000"
     stroke-width="2.48"
     stroke-linejoin="bevel"
     points="727.212,687.965 727.212,764.299"
     id="polyline26"
     transform="matrix(2.270491,0,0,2.270491,-623.93927,-157.61267)" />
  <polyline
     class="Stem"
     fill="none"
     stroke="#000000"
     stroke-width="2.48"
     stroke-linejoin="bevel"
     points="1489,687.965 1489,764.299"
     id="polyline28"
     transform="matrix(2.270491,0,0,2.270491,-623.93927,-157.61267)" />
  <polyline
     class="Stem"
     fill="none"
     stroke="#000000"
     stroke-width="2.48"
     stroke-linejoin="bevel"
     points="1108.11,687.965 1108.11,764.299"
     id="polyline30"
     transform="matrix(2.270491,0,0,2.270491,-623.93927,-157.61267)" />
  <path
     class="Hook"
     d="m 3618.8138,1577.7349 c 0,1.5485 1.3373,2.921 2.921,2.921 1.1261,0 2.4986,-0.915 2.7098,-1.7948 0,-0.2464 2.0412,-8.1295 2.2523,-8.7981 0.2112,-0.9151 2.2524,-9.4669 10.3467,-22.7345 8.7981,-14.6402 22.3121,-25.2331 33.5738,-40.9994 11.0503,-15.7663 17.8074,-30.6528 17.8074,-50.4661 0,-20.4823 -4.7511,-37.621 -16.6814,-59.4757 -0.6687,-1.5835 -2.0411,-2.4634 -3.3784,-2.4634 -0.4575,0 -0.915,0 -1.1262,0.2112 -1.1261,0.4575 -1.5837,1.3725 -1.5837,2.7099 0,0.6686 0.2464,1.7948 0.6687,2.7098 9.0093,20.9395 12.6342,32.8698 12.6342,49.0936 0,18.6874 -6.5459,28.4006 -10.593,35.3688 -14.6402,24.9867 -38.2895,37.1634 -47.7563,40.3306 -1.5837,0.6688 -1.7949,1.7949 -1.7949,2.4637 v 50.9234"
     id="path32"
     style="stroke-width:2.25233" />
  <path
     class="Hook"
     d="m 1024.3737,1577.7349 c 0,1.5485 1.3373,2.921 2.9209,2.921 1.1262,0 2.4987,-0.915 2.7099,-1.7948 0,-0.2464 2.0411,-8.1295 2.2523,-8.7981 0.2112,-0.9151 2.2523,-9.4669 10.3466,-22.7345 8.7982,-14.6402 22.3121,-25.2331 33.5738,-40.9994 11.0506,-15.7663 17.8076,-30.6528 17.8076,-50.4661 0,-20.4823 -4.7511,-37.621 -16.6814,-59.4757 -0.6688,-1.5835 -2.0411,-2.4634 -3.3785,-2.4634 -0.4575,0 -0.9149,0 -1.1262,0.2112 -1.1262,0.4575 -1.5836,1.3725 -1.5836,2.7099 0,0.6686 0.2464,1.7948 0.6687,2.7098 9.0093,20.9395 12.634,32.8698 12.634,49.0936 0,18.6874 -6.5457,28.4006 -10.5929,35.3688 -14.6402,24.9867 -38.2896,37.1634 -47.7564,40.3306 -1.5837,0.6688 -1.7948,1.7949 -1.7948,2.4637 v 50.9234"
     id="path34"
     style="stroke-width:2.25233" />
  <path
     class="Hook"
     d="m 1889.1992,1577.7349 c 0,1.5485 1.3373,2.921 2.921,2.921 1.1262,0 2.4986,-0.915 2.7097,-1.7948 0,-0.2464 2.0412,-8.1295 2.2524,-8.7981 0.2111,-0.9151 2.2523,-9.4669 10.3466,-22.7345 8.7981,-14.6402 22.3122,-25.2331 33.5738,-40.9994 11.0504,-15.7663 17.8075,-30.6528 17.8075,-50.4661 0,-20.4823 -4.7511,-37.621 -16.6813,-59.4757 -0.6687,-1.5835 -2.0412,-2.4634 -3.3785,-2.4634 -0.4576,0 -0.9151,0 -1.1262,0.2112 -1.1262,0.4575 -1.5837,1.3725 -1.5837,2.7099 0,0.6686 0.2463,1.7948 0.6686,2.7098 9.0093,20.9395 12.6342,32.8698 12.6342,49.0936 0,18.6874 -6.5457,28.4006 -10.5929,35.3688 -14.6402,24.9867 -38.2896,37.1634 -47.7564,40.3306 -1.5837,0.6688 -1.7948,1.7949 -1.7948,2.4637 v 50.9234"
     id="path36"
     style="stroke-width:2.25233" />
  <path
     class="Hook"
     d="m 2754.0064,1577.7349 c 0,1.5485 1.3373,2.921 2.921,2.921 1.1262,0 2.4988,-0.915 2.7099,-1.7948 0,-0.2464 2.0412,-8.1295 2.2524,-8.7981 0.2111,-0.9151 2.2522,-9.4669 10.3466,-22.7345 8.7981,-14.6402 22.312,-25.2331 33.5737,-40.9994 11.0505,-15.7663 17.8074,-30.6528 17.8074,-50.4661 0,-20.4823 -4.7509,-37.621 -16.6812,-59.4757 -0.6687,-1.5835 -2.0413,-2.4634 -3.3786,-2.4634 -0.4575,0 -0.9149,0 -1.1262,0.2112 -1.126,0.4575 -1.5835,1.3725 -1.5835,2.7099 0,0.6686 0.2463,1.7948 0.6686,2.7098 9.0093,20.9395 12.6341,32.8698 12.6341,49.0936 0,18.6874 -6.5458,28.4006 -10.593,35.3688 -14.64,24.9867 -38.2895,37.1634 -47.7563,40.3306 -1.5837,0.6688 -1.7949,1.7949 -1.7949,2.4637 v 50.9234"
     id="path38"
     style="stroke-width:2.25233" />
  <path
     class="Note"
     d="m 1889.1992,1404.4113 c 0,9.6779 6.968,20.4822 25.233,20.4822 23.4031,0 47.9676,-19.1449 47.9676,-38.9583 0,-13.3027 -11.2616,-20.7283 -25.2331,-20.7283 -21.8547,0 -47.9675,18.4759 -47.9675,39.2044"
     id="path40"
     style="stroke-width:2.25233" />
  <path
     class="Note"
     d="m 3618.8138,1404.4113 c 0,9.6779 6.9681,20.4822 25.2331,20.4822 23.4031,0 47.9675,-19.1449 47.9675,-38.9583 0,-13.3027 -11.2616,-20.7283 -25.2331,-20.7283 -21.8546,0 -47.9675,18.4759 -47.9675,39.2044"
     id="path42"
     style="stroke-width:2.25233" />
  <path
     class="Note"
     d="m 2754.0064,1404.4113 c 0,9.6779 6.9682,20.4822 25.2332,20.4822 23.4031,0 47.9675,-19.1449 47.9675,-38.9583 0,-13.3027 -11.2617,-20.7283 -25.233,-20.7283 -21.8547,0 -47.9677,18.4759 -47.9677,39.2044"
     id="path44"
     style="stroke-width:2.25233" />
  <path
     class="Note"
     d="m 1024.3737,1404.4113 c 0,9.6779 6.9681,20.4822 25.233,20.4822 23.4033,0 47.9676,-19.1449 47.9676,-38.9583 0,-13.3027 -11.2616,-20.7283 -25.2331,-20.7283 -21.8545,0 -47.9675,18.4759 -47.9675,39.2044"
     id="path46"
     style="stroke-width:2.25233" />
  <path
     class="Clef"
     d="m 264.07582,1499.0091 c -32.20108,0 -59.68663,-22.5233 -59.68663,-56.5545 0,-27.4505 19.35599,-52.0147 39.20462,-69.3646 3.8008,-3.1674 7.42571,-6.2996 10.8042,-9.678 2.00591,12.1413 3.58954,22.5232 5.17316,31.99 -20.51713,5.842 -34.45341,27.6965 -34.45341,48.6362 0,16.0127 12.3878,37.621 30.40642,37.621 1.79466,0 3.83593,-0.9149 3.83593,-3.1673 0,-1.7948 -2.04127,-3.1323 -4.9621,-4.927 -8.79826,-5.2086 -13.76038,-11.2618 -13.76038,-22.101 0,-13.7252 10.38189,-24.7758 23.43819,-27.9078 l 13.0565,73.8693 c -4.50465,0.9152 -8.55184,1.5837 -13.0565,1.5837 m -6.75698,-232.9047 c 2.25233,-9.0093 12.3878,-32.6587 24.10709,-32.6587 3.3785,0 9.00931,10.8039 9.00931,26.5702 0,23.192 -17.56118,40.7884 -33.1164,56.3083 -1.33723,-9.0093 -2.4634,-18.0188 -2.4634,-27.2391 0,-8.5518 0.87977,-16.0127 2.4634,-22.9807 m 29.28025,228.6113 c -4.71571,-26.7817 -10.80397,-62.6079 -12.3878,-72.5322 22.73452,0 32.44769,15.7664 34.45361,26.6057 0.24639,1.7949 0.66871,4.2583 0.66871,6.9681 0,16.2239 -6.75698,32.4478 -22.73452,38.9584 m -31.32133,154.0731 c -4.92697,0 -8.30546,-3.1321 -8.30546,-7.8832 0,-4.5045 2.00593,-8.0941 5.84189,-10.3464 0.9151,0.4573 1.12616,0.4573 1.79486,0.8798 2.70979,1.3725 2.70979,1.3725 3.16745,1.8299 4.25824,2.4636 6.08825,4.716 6.08825,7.8831 0,4.2584 -3.62487,7.6368 -8.58699,7.6368 m 8.58699,-27.0279 c -3.37848,-1.7947 -4.29358,-2.2524 -4.96209,-2.7098 l -0.45766,-0.211 c -3.37848,-2.0412 -4.50465,-3.6249 -4.50465,-6.2995 0,-4.0823 3.16742,-7.0033 7.67207,-7.0033 4.25827,0 6.96806,2.7097 6.96806,7.4257 0,3.6249 -1.33723,6.0883 -4.71573,8.798 m 62.81877,-170.9658 c 0,-33.9961 -24.10689,-56.9769 -56.97688,-56.9769 -2.25233,-13.5139 -4.29341,-26.8169 -6.29931,-39.4157 23.64943,-25.0219 40.29546,-53.3872 40.29546,-88.967 0,-20.5173 -6.29952,-37.1633 -10.13547,-45.2919 -5.38441,-11.4734 -11.93034,-19.3565 -15.76629,-19.3565 -1.54847,0 -8.76289,2.7095 -15.97753,11.4733 -14.64013,17.1379 -18.68713,45.7143 -18.68713,64.6479 0,12.1767 1.12617,23.192 4.96209,48.6714 -0.24639,0 -11.96548,11.9304 -16.68138,15.9776 -20.51714,18.9334 -48.88249,46.3838 -48.88249,91.2191 0,42.3369 36.70594,75.4531 78.6204,75.4531 6.51057,0 12.59885,-0.6687 18.01863,-1.5836 4.04698,21.4322 6.75698,37.4096 6.75698,49.3399 0,23.4385 -12.17676,35.8262 -34.91108,35.8262 -5.41977,0 -10.13546,-1.1262 -10.59314,-1.3725 -0.21115,0 -0.66849,-0.2112 -0.66849,-0.4223 0,-0.4574 0.45743,-0.7039 1.12617,-0.9152 10.5929,-1.5836 21.15068,-10.8039 21.15068,-24.9866 0,-12.1768 -9.22055,-25.022 -26.11301,-25.022 -15.76629,0 -25.69051,12.8452 -25.69051,27.6966 0,14.8865 11.26164,34.4888 41.66805,34.4888 29.069,0 43.25167,-16.4701 43.25167,-45.293 0,-8.7629 -1.3372,-18.8984 -3.58953,-31.7436 -0.66872,-4.5046 -1.79489,-11.508 -3.3785,-20.0599 22.06561,-7.4256 38.50061,-30.1952 38.50061,-53.3872 m -48.88249,161.9564 c 0,-8.3407 -7.63672,-11.9302 -15.06244,-11.9302 -9.46674,0 -18.72246,5.8419 -18.72246,15.9774 0,4.2935 1.58362,7.4608 4.75107,10.593 -5.87724,2.2522 -11.7193,6.7569 -11.7193,13.7602 0,7.4258 6.75698,12.3878 16.68139,12.3878 12.1414,0 20.69325,-6.7569 20.69325,-16.4701 0,-5.1734 -2.25233,-9.4316 -6.29952,-12.3878 6.54593,-2.921 9.67801,-6.5106 9.67801,-11.9303"
     id="path48"
     style="stroke-width:2.25233" />
  <path
     class="TimeSig"
     d="m 426.66577,1367.2479 v 16.6462 h -18.68731 c -1.58363,0 -3.16723,1.3724 -3.16723,3.1673 v 4.2935 c 0,1.7947 1.5836,3.1322 3.16723,3.1322 h 68.2385 c 1.83002,0 3.16725,-1.3375 3.16725,-3.1322 v -4.2935 c 0,-1.7949 -1.33723,-3.1673 -3.16725,-3.1673 h -20.27094 v -16.6462 h 20.27094 c 1.83002,0 3.16725,-1.5837 3.16725,-3.3785 v -4.2935 c 0,-1.5836 -1.33723,-3.1321 -3.16725,-3.1321 h -20.27094 v -35.8261 c 0,-1.3373 -0.66871,-2.4635 -1.54846,-2.921 l -2.70978,-1.3725 c -0.45766,-0.2112 -0.66872,-0.2112 -1.12616,-0.2112 -0.91512,0 -1.79489,0 -2.49874,0.6687 l -20.48219,18.6872 c -0.66849,0.7039 -0.91492,1.5837 -0.91492,2.4988 v 18.4761 h -26.11296 c 0,0 25.23322,-27.0279 51.80348,-62.6429 0.9151,-1.1262 1.12616,-2.2524 1.12616,-3.1321 0,-1.1262 -0.45745,-2.0412 -0.6685,-2.2523 l -4.96231,-4.9621 c -0.6685,-0.4575 -1.33723,-0.9152 -2.25233,-0.9152 -1.33723,0 -31.77877,0 -33.57366,0 -1.5836,0 -2.70976,1.3725 -2.92104,2.71 0,0 -1.12615,16.6811 -6.96813,34.911 -5.87717,18.265 -12.63415,29.5266 -18.47612,37.8321 0,0 -0.66865,1.1261 -0.66865,2.4987 0,0.4575 0,0.8799 0.21115,1.3373 0.66866,1.5837 2.25233,4.0472 2.25233,4.0472 0,0 0.4575,1.3724 2.46348,1.3724 h 38.7471"
     id="path50"
     style="stroke-width:2.25233" />
  <path
     class="TimeSig"
     d="m 426.66577,1479.8643 v 16.6462 h -18.68731 c -1.58363,0 -3.16723,1.3724 -3.16723,3.1673 v 4.2935 c 0,1.7947 1.5836,3.1322 3.16723,3.1322 h 68.2385 c 1.83002,0 3.16725,-1.3375 3.16725,-3.1322 v -4.2935 c 0,-1.7949 -1.33723,-3.1673 -3.16725,-3.1673 h -20.27094 v -16.6462 h 20.27094 c 1.83002,0 3.16725,-1.5837 3.16725,-3.3785 v -4.2934 c 0,-1.5837 -1.33723,-3.1322 -3.16725,-3.1322 h -20.27094 v -35.8262 c 0,-1.3373 -0.66871,-2.4633 -1.54846,-2.9209 l -2.70978,-1.3725 c -0.45766,-0.2112 -0.66872,-0.2112 -1.12616,-0.2112 -0.91512,0 -1.79489,0 -2.49874,0.6687 l -20.48219,18.6873 c -0.66849,0.7038 -0.91492,1.5837 -0.91492,2.4987 v 18.4761 h -26.11296 c 0,0 25.23322,-27.028 51.80348,-62.6431 0.9151,-1.126 1.12616,-2.2522 1.12616,-3.132 0,-1.1262 -0.45745,-2.0411 -0.6685,-2.2524 l -4.96231,-4.962 c -0.6685,-0.4574 -1.33723,-0.9151 -2.25233,-0.9151 -1.33723,0 -31.77877,0 -33.57366,0 -1.5836,0 -2.70976,1.3726 -2.92104,2.7099 0,0 -1.12615,16.6813 -6.96813,34.911 -5.87717,18.2651 -12.63415,29.5266 -18.47612,37.8322 0,0 -0.66865,1.1262 -0.66865,2.4987 0,0.4575 0,0.8798 0.21115,1.3373 0.66866,1.5836 2.25233,4.0472 2.25233,4.0472 0,0 0.4575,1.3724 2.46348,1.3724 h 38.7471"
     id="path52"
     style="stroke-width:2.25233" />
  <path
     class="Rest"
     d="m 2381.7357,1349.2293 c -0.2112,0 -0.6687,-0.2465 -0.9151,-0.2465 -1.3373,0 -2.4635,0.7039 -2.921,1.8301 -0.915,1.3374 -7.8831,14.64 -18.0186,22.0659 -2.921,2.2522 -6.5458,3.8359 -10.1355,4.5046 2.4636,-2.921 4.0473,-6.5458 4.0473,-10.8043 0,-8.798 -7.2146,-16.0124 -15.9776,-16.0124 -9.0093,0 -16.2237,7.2144 -16.2237,16.0124 0,12.1416 11.9303,17.7724 22.5233,17.7724 11.9302,0 19.8134,-5.6308 27.4854,-13.9716 l -25.6907,80.204 6.0884,1.7949 31.5326,-99.3136 c 0.2462,-0.2462 0.2462,-0.7038 0.2462,-1.1261 0,-1.1262 -0.7037,-2.0411 -2.041,-2.7098"
     id="path54"
     style="stroke-width:2.25233" />
  <path
     class="Rest"
     d="m 1516.926,1349.2293 c -0.2112,0 -0.6686,-0.2465 -0.9149,-0.2465 -1.3375,0 -2.4635,0.7039 -2.9211,1.8301 -0.9148,1.3374 -7.8831,14.64 -18.0186,22.0659 -2.921,2.2522 -6.5457,3.8359 -10.1354,4.5046 2.4635,-2.921 4.0472,-6.5458 4.0472,-10.8043 0,-8.798 -7.2145,-16.0124 -15.9776,-16.0124 -9.0092,0 -16.2237,7.2144 -16.2237,16.0124 0,12.1416 11.9303,17.7724 22.5232,17.7724 11.9304,0 19.8136,-5.6308 27.4854,-13.9716 l -25.6904,80.204 6.0882,1.7949 31.5325,-99.3136 c 0.2465,-0.2462 0.2465,-0.7038 0.2465,-1.1261 0,-1.1262 -0.7039,-2.0411 -2.0413,-2.7098"
     id="path56"
     style="stroke-width:2.25233" />
  <path
     class="Rest"
     d="m 3246.5657,1349.2293 c -0.2112,0 -0.6687,-0.2465 -0.9151,-0.2465 -1.3373,0 -2.4635,0.7039 -2.921,1.8301 -0.915,1.3374 -7.8831,14.64 -18.0186,22.0659 -2.921,2.2522 -6.5458,3.8359 -10.1354,4.5046 2.4635,-2.921 4.0472,-6.5458 4.0472,-10.8043 0,-8.798 -7.2146,-16.0124 -15.9776,-16.0124 -9.0093,0 -16.2237,7.2144 -16.2237,16.0124 0,12.1416 11.9303,17.7724 22.5233,17.7724 11.9302,0 19.8134,-5.6308 27.4854,-13.9716 l -25.6906,80.204 6.0883,1.7949 31.5326,-99.3136 c 0.2464,-0.2462 0.2464,-0.7038 0.2464,-1.1261 0,-1.1262 -0.7039,-2.0411 -2.0412,-2.7098"
     id="path58"
     style="stroke-width:2.25233" />
  <path
     class="Rest"
     d="m 652.10954,1349.2293 c -0.21115,0 -0.66849,-0.2465 -0.91492,-0.2465 -1.3374,0 -2.46356,0.7039 -2.92102,1.8301 -0.9149,1.3374 -7.88315,14.64 -18.01862,22.0659 -2.92103,2.2522 -6.54572,3.8359 -10.13546,4.5046 2.46358,-2.921 4.04719,-6.5458 4.04719,-10.8043 0,-8.798 -7.21443,-16.0124 -15.9775,-16.0124 -9.0093,0 -16.22379,7.2144 -16.22379,16.0124 0,12.1416 11.93029,17.7724 22.52327,17.7724 11.93035,0 19.81349,-5.6308 27.48539,-13.9716 l -25.69052,80.204 6.08827,1.7949 31.53258,-99.3136 c 0.2464,-0.2462 0.2464,-0.7038 0.2464,-1.1261 0,-1.1262 -0.70385,-2.0411 -2.04127,-2.7098"
     id="path62"
     style="stroke-width:2.25233" />
  <path
     class="StaffText"
     d="m 2356.33,1184.2294 c 10.3307,-3.7236 15.1215,-9.5066 15.1215,-18.625 0,-11.92 -9.082,-19.5126 -23.1818,-19.5126 -13.2597,0 -23.3633,7.8401 -23.3633,18.164 0,4.6477 3.0425,7.9467 7.4699,7.9467 3.9733,0 6.7206,-2.7313 6.7206,-6.8114 0,-2.4816 -0.9308,-3.9734 -3.5193,-5.7829 -1.1351,-0.8152 -1.4984,-1.2398 -1.4984,-2.0572 0,-3.1559 6.6071,-6.5617 13.0553,-6.5617 8.1737,0 12.4877,5.1086 12.4877,14.7582 0,10.5351 -4.314,16.1046 -12.3742,16.1046 -1.0217,0 -2.9516,-0.1073 -4.6544,-0.2112 -0.9083,-0.1072 -1.7937,-0.1072 -2.475,-0.1072 -2.4067,0 -3.6555,0.9923 -3.6555,3.0493 0,1.9163 1.1353,2.8381 3.6555,2.8381 0.6813,0 1.5667,0 2.5884,-0.1043 2.2705,-0.1073 4.0869,-0.1073 5.3583,-0.1073 8.3782,0 12.9191,5.9941 12.9191,17.2398 0,11.8157 -5.6762,18.3774 -15.8934,18.3774 -7.1293,0 -14.8717,-3.8302 -14.8717,-7.3791 0,-0.9922 0.2497,-1.2419 2.384,-2.4839 3.1787,-1.914 4.4275,-3.8666 4.4275,-6.7048 0,-4.0801 -3.0425,-7.1294 -7.1294,-7.1294 -4.9041,0 -8.0828,3.9735 -8.0828,9.9676 0,11.0345 10.1036,18.6248 24.6574,18.6248 16.4611,0 27.1324,-9.0819 27.1324,-23.0591 0,-10.6419 -5.4718,-17.1355 -17.2784,-20.4345"
     id="path64"
     style="stroke-width:2.27049" />
  <path
     class="StaffText"
     d="m 3697.2592,1206.8275 c -1.3395,7.168 -5.1086,11.4591 -10.081,11.4591 -4.3139,0 -8.0828,-2.0206 -12.4877,-6.9181 4.5411,-5.5695 5.1086,-6.3505 7.4927,-10.8915 6.9249,-13.5163 8.2646,-14.8626 16.3475,-15.4303 h 1.2488 v -4.8974 h -32.0366 v 4.8974 h 1.1353 c 6.6979,0 10.2172,1.8073 10.2172,5.3198 0,4.8974 -3.0425,11.6022 -7.9467,17.1354 -5.4266,-6.4574 -11.9202,-16.2114 -18.2776,-28.1314 6.153,-2.7337 8.0603,-3.7622 11.0119,-5.783 5.2449,-3.6555 8.6507,-9.8994 8.6507,-15.9297 0,-9.1887 -7.1748,-15.3258 -17.7326,-15.3258 -11.9201,0 -19.8669,8.0898 -19.8669,20.1143 0,5.0041 1.2716,9.4384 4.7908,16.9242 -12.7375,5.994 -19.6624,14.9693 -19.6624,25.1865 0,5.6762 2.5202,11.9202 6.4936,16.25 4.1776,4.5409 10.2172,6.9159 17.9141,6.9159 8.1964,0 14.4404,-2.2705 21.8194,-8.0513 5.4265,5.5696 9.8539,7.5903 16.0979,7.5903 12.0336,0 18.5271,-8.7254 19.8667,-19.76 l -4.9951,-0.6744 m -46.7493,-32.2477 c -3.3149,-6.8116 -4.9043,-11.9202 -4.9043,-16.1069 0,-6.5981 3.6555,-11.2458 8.8776,-11.2458 5.1995,0 8.9684,4.4343 8.9684,10.6781 0,4.2936 -1.9526,8.8345 -4.9043,11.709 -1.7936,1.7029 -3.4965,2.695 -8.0374,4.9656 m -8.6279,9.4361 c 7.3791,14.6538 11.2162,20.5411 20.8657,31.7869 -4.9723,3.1945 -7.606,4.1868 -11.466,4.1868 -10.1036,0 -19.0494,-10.2172 -19.0494,-21.5697 0,-6.2438 2.8382,-10.4307 9.6497,-14.404"
     id="path66"
     style="stroke-width:2.27049" />
  <path
     class="StaffText"
     d="m 3225.9281,1146.0918 -38.5984,53.7131 v 6.3482 h 31.9004 v 5.8898 c 0,5.8193 0,6.0304 -0.6811,7.0612 -0.9082,1.2397 -3.088,1.5961 -9.5361,1.5961 h -1.2488 v 5.3199 h 33.1492 v -5.3199 h -0.4769 c -6.4481,0 -8.6051,-0.3564 -9.5359,-1.5961 -0.6813,-1.0308 -0.6813,-1.1353 -0.6813,-7.0612 v -5.8898 h 13.782 v -6.3482 h -13.782 v -31.0082 c 0,-14.1905 0,-14.5447 0.5676,-22.7049 h -4.8587 m -6.698,53.7131 h -24.9755 l 24.9755,-34.4138 v 34.4138"
     id="path68"
     style="stroke-width:2.27049" />
  <path
     class="StaffText"
     d="m 2832.4519,1206.8275 c -1.3622,7.168 -5.1086,11.4591 -10.081,11.4591 -4.3366,0 -8.0829,-2.0206 -12.4876,-6.9181 4.5409,-5.5695 5.1086,-6.3505 7.4925,-10.8915 6.9023,-13.5163 8.2647,-14.8626 16.3477,-15.4303 h 1.2486 v -4.8974 h -32.0365 v 4.8974 h 1.1352 c 6.6979,0 10.2172,1.8073 10.2172,5.3198 0,4.8974 -3.0651,11.6022 -7.9467,17.1354 -5.4265,-6.4574 -11.9201,-16.2114 -18.2775,-28.1314 6.1303,-2.7337 8.0602,-3.7622 10.9892,-5.783 5.2676,-3.6555 8.6733,-9.8994 8.6733,-15.9297 0,-9.1887 -7.1748,-15.3258 -17.7553,-15.3258 -11.92,0 -19.8668,8.0898 -19.8668,20.1143 0,5.0041 1.2942,9.4384 4.7908,16.9242 -12.7375,5.994 -19.6398,14.9693 -19.6398,25.1865 0,5.6762 2.5203,11.9202 6.4936,16.25 4.1778,4.5409 10.2172,6.9159 17.9143,6.9159 8.1964,0 14.4403,-2.2705 21.8194,-8.0513 5.4264,5.5696 9.8539,7.5903 16.0977,7.5903 12.0336,0 18.5272,-8.7254 19.8669,-19.76 l -4.9952,-0.6744 m -46.772,-32.2477 c -3.2923,-6.8116 -4.8817,-11.9202 -4.8817,-16.1069 0,-6.5981 3.6555,-11.2458 8.855,-11.2458 5.2221,0 8.9912,4.4343 8.9912,10.6781 0,4.2936 -1.9527,8.8345 -4.9043,11.709 -1.8164,1.7029 -3.5193,2.695 -8.0602,4.9656 m -8.6053,9.4361 c 7.3791,14.6538 11.1936,20.5411 20.8431,31.7869 -4.9496,3.1945 -7.5834,4.1868 -11.4432,4.1868 -10.1264,0 -19.0494,-10.2172 -19.0494,-21.5697 0,-6.2438 2.8381,-10.4307 9.6495,-14.404"
     id="path70"
     style="stroke-width:2.27049" />
  <path
     class="StaffText"
     d="m 1967.6219,1206.8275 c -1.3396,7.168 -5.1086,11.4591 -10.0582,11.4591 -4.3368,0 -8.1057,-2.0206 -12.4878,-6.9181 4.5411,-5.5695 5.1086,-6.3505 7.4699,-10.8915 6.9251,-13.5163 8.2647,-14.8626 16.3703,-15.4303 h 1.226 v -4.8974 h -32.0366 v 4.8974 h 1.1353 c 6.7207,0 10.2172,1.8073 10.2172,5.3198 0,4.8974 -3.0425,11.6022 -7.9468,17.1354 -5.4264,-6.4574 -11.92,-16.2114 -18.2546,-28.1314 6.1303,-2.7337 8.0374,-3.7622 10.989,-5.783 5.2449,-3.6555 8.6507,-9.8994 8.6507,-15.9297 0,-9.1887 -7.152,-15.3258 -17.7326,-15.3258 -11.92,0 -19.8667,8.0898 -19.8667,20.1143 0,5.0041 1.2714,9.4384 4.7906,16.9242 -12.7374,5.994 -19.6624,14.9693 -19.6624,25.1865 0,5.6762 2.5203,11.9202 6.4936,16.25 4.2004,4.5409 10.2172,6.9159 17.9142,6.9159 8.1965,0 14.4403,-2.2705 21.8195,-8.0513 5.4264,5.5696 9.8765,7.5903 16.1204,7.5903 12.0109,0 18.5045,-8.7254 19.8668,-19.76 l -5.0178,-0.6744 m -46.7494,-32.2477 c -3.2922,-6.8116 -4.9043,-11.9202 -4.9043,-16.1069 0,-6.5981 3.6555,-11.2458 8.8777,-11.2458 5.2221,0 8.9684,4.4343 8.9684,10.6781 0,4.2936 -1.9526,8.8345 -4.8816,11.709 -1.8163,1.7029 -3.5193,2.695 -8.0602,4.9656 m -8.6279,9.4361 c 7.3791,14.6538 11.2163,20.5411 20.8659,31.7869 -4.9724,3.1945 -7.5835,4.1868 -11.466,4.1868 -10.1038,0 -19.0494,-10.2172 -19.0494,-21.5697 0,-6.2438 2.8381,-10.4307 9.6495,-14.404"
     id="path72"
     style="stroke-width:2.27049" />
  <path
     class="StaffText"
     d="m 1511.8413,1201.5077 h -5.002 l -1.1352,5.7807 c -1.4554,7.3791 -2.3772,8.0534 -9.4021,8.0534 h -25.4363 c 7.84,-8.1578 10.4306,-10.535 17.703,-16.2112 10.324,-7.9468 14.7582,-11.9201 17.383,-15.3259 3.6191,-5.0019 5.4287,-10.006 5.4287,-15.5755 0,-12.9487 -10.6782,-22.1374 -25.543,-22.1374 -14.404,0 -25.4364,9.1887 -25.4364,21.3586 0,7.1294 3.6532,12.0245 8.9752,12.0245 4.2209,0 7.059,-2.8381 7.059,-6.9159 0,-2.8381 -1.5962,-5.4651 -3.9733,-6.4936 -4.2208,-1.7028 -4.4343,-1.9163 -4.4343,-3.4058 0,-1.7028 1.1352,-4.2912 2.7313,-6.2437 2.8382,-3.5125 7.4859,-5.4266 12.808,-5.4266 9.4361,0 15.0057,5.7807 15.0057,15.3258 0,8.4077 -3.9735,15.998 -13.4095,26.004 -8.4078,8.8322 -13.623,14.4017 -15.5393,16.5678 -4.1142,4.7521 -6.1371,7.3791 -11.1391,13.9408 v 3.1924 h 51.1927 l 2.1639,-24.5124"
     id="path74"
     style="stroke-width:2.27049" />
  <path
     class="StaffText"
     d="m 1102.8124,1206.8275 c -1.3488,7.168 -5.1087,11.4591 -10.0743,11.4591 -4.3298,0 -8.0897,-2.0206 -12.4877,-6.9181 4.541,-5.5695 5.1087,-6.3505 7.4836,-10.8915 6.9182,-13.5163 8.2668,-14.8626 16.3566,-15.4303 h 1.2398 v -4.8974 h -32.0345 v 4.8974 h 1.1353 c 6.7047,0 10.2172,1.8073 10.2172,5.3198 0,4.8974 -3.0516,11.6022 -7.9467,17.1354 -5.4288,-6.4574 -11.9201,-16.2114 -18.2707,-28.1314 6.1372,-2.7337 8.0535,-3.7622 10.9983,-5.783 5.2494,-3.6555 8.6551,-9.8994 8.6551,-15.9297 0,-9.1887 -7.1657,-15.3258 -17.7371,-15.3258 -11.9201,0 -19.8668,8.0898 -19.8668,20.1143 0,5.0041 1.276,9.4384 4.7885,16.9242 -12.7352,5.994 -19.6534,14.9693 -19.6534,25.1865 0,5.6762 2.518,11.9202 6.4914,16.25 4.1867,4.5409 10.2172,6.9159 17.9164,6.9159 8.1942,0 14.438,-2.2705 21.8171,-8.0513 5.4288,5.5696 9.8631,7.5903 16.1069,7.5903 12.0268,0 18.5181,-8.7254 19.8668,-19.76 l -5.0018,-0.6744 m -46.7586,-32.2477 c -3.299,-6.8116 -4.8952,-11.9202 -4.8952,-16.1069 0,-6.5981 3.6533,-11.2458 8.8686,-11.2458 5.2153,0 8.9752,4.4343 8.9752,10.6781 0,4.2936 -1.9503,8.8345 -4.8951,11.709 -1.8096,1.7029 -3.5125,2.695 -8.0535,4.9656 m -8.621,9.4361 c 7.3791,14.6538 11.2117,20.5411 20.8612,31.7869 -4.9678,3.1945 -7.5925,4.1868 -11.4591,4.1868 -10.1105,0 -19.0517,-10.2172 -19.0517,-21.5697 0,-6.2438 2.8381,-10.4307 9.6496,-14.404"
     id="path76"
     style="stroke-width:2.27049" />
  <path
     class="StaffText"
     d="m 617.15425,1146.0918 c -3.83032,4.6478 -14.29729,8.1602 -24.72565,8.4078 v 4.861 h 9.96745 c 6.59805,0.1435 7.27239,0.8151 7.06123,7.1657 v 45.5166 c 0,5.8193 0,6.0304 -0.67433,7.0612 -0.92409,1.1352 -3.08787,1.5961 -9.43844,1.5961 h -7.37909 v 5.3199 h 44.9489 v -5.3199 h -6.24384 c -6.35056,0 -8.51435,-0.4609 -9.39983,-1.5961 -0.81738,-1.0308 -0.81738,-1.1353 -0.81738,-7.0612 v -46.863 c 0,-6.3869 0.24975,-11.709 0.81738,-19.0881 h -4.1164"
     id="path78"
     style="stroke-width:2.27049" />
  <metadata
     id="metadata313">
    <rdf:RDF>
      <cc:Work
         rdf:about="">
        <dc:title>Partition sans titre</dc:title>
      </cc:Work>
    </rdf:RDF>
  </metadata>
  <text
     xml:space="preserve"
     style="font-size:120px;font-family:C059;-inkscape-font-specification:C059;fill:#000000;stroke-width:8.625;paint-order:stroke fill markers"
     x="405.30408"
     y="914.04053"
     id="text506"><tspan
       sodipodi:role="line"
       id="tspan504"
       style="font-size:120px;stroke-width:8.625"
       x="405.30408"
       y="914.04053">Temps 1</tspan></text>
  <text
     xml:space="preserve"
     style="font-size:120px;font-family:C059;-inkscape-font-specification:C059;fill:#000000;stroke-width:8.625;paint-order:stroke fill markers"
     x="1257.3503"
     y="904.63867"
     id="text506-3"><tspan
       sodipodi:role="line"
       id="tspan504-6"
       style="font-size:120px;stroke-width:8.625"
       x="1257.3503"
       y="904.63867">Temps 2</tspan></text>
  <text
     xml:space="preserve"
     style="font-size:120px;font-family:C059;-inkscape-font-specification:C059;fill:#000000;stroke-width:8.625;paint-order:stroke fill markers"
     x="2125.7783"
     y="903.42688"
     id="text506-7"><tspan
       sodipodi:role="line"
       id="tspan504-5"
       style="font-size:120px;stroke-width:8.625"
       x="2125.7783"
       y="903.42688">Temps 3</tspan></text>
  <text
     xml:space="preserve"
     style="font-size:120px;font-family:C059;-inkscape-font-specification:C059;fill:#000000;stroke-width:8.625;paint-order:stroke fill markers"
     x="2988.2783"
     y="895.92688"
     id="text506-35"><tspan
       sodipodi:role="line"
       id="tspan504-62"
       style="font-size:120px;stroke-width:8.625"
       x="2988.2783"
       y="895.92688">Temps 4</tspan></text>
  <path
     style="fill:#000000;stroke:#000000;stroke-width:4.25197;stroke-dasharray:none;stroke-opacity:1;paint-order:stroke fill markers"
     d="m 604.7114,987.3216 -2.18703,140.6843 z"
     id="path679" />
  <path
     style="fill:#000000;stroke:#000000;stroke-width:4.25198;stroke-dasharray:none;stroke-opacity:1;paint-order:stroke fill markers"
     d="m 602.615,1123.5964 c -1.37347,-6.5936 -13.35052,-33.7872 -13.35052,-33.7872 z"
     id="path1235" />
  <path
     style="fill:#000000;stroke:#000000;stroke-width:4.25198;stroke-dasharray:none;stroke-opacity:1;paint-order:stroke fill markers"
     d="m 601.95429,1128.996 16.8318,-34.8227 z"
     id="path1237" />
  <path
     style="fill:#000000;stroke:#000000;stroke-width:4.25197;stroke-dasharray:none;stroke-opacity:1;paint-order:stroke fill markers"
     d="m 2350.6888,974.3805 -2.187,140.6843 z"
     id="path679-9" />
  <path
     style="fill:#000000;stroke:#000000;stroke-width:4.25198;stroke-dasharray:none;stroke-opacity:1;paint-order:stroke fill markers"
     d="m 2348.5924,1110.6553 c -1.3735,-6.5936 -13.3505,-33.7872 -13.3505,-33.7872 z"
     id="path1235-1" />
  <path
     style="fill:#000000;stroke:#000000;stroke-width:4.25198;stroke-dasharray:none;stroke-opacity:1;paint-order:stroke fill markers"
     d="m 2347.9317,1116.0549 16.8318,-34.8227 z"
     id="path1237-2" />
  <path
     style="fill:#000000;stroke:#000000;stroke-width:4.25197;stroke-dasharray:none;stroke-opacity:1;paint-order:stroke fill markers"
     d="m 2350.6888,974.3805 -2.187,140.6843 z"
     id="path679-7" />
  <path
     style="fill:#000000;stroke:#000000;stroke-width:4.25198;stroke-dasharray:none;stroke-opacity:1;paint-order:stroke fill markers"
     d="m 2348.5924,1110.6553 c -1.3735,-6.5936 -13.3505,-33.7872 -13.3505,-33.7872 z"
     id="path1235-0" />
  <path
     style="fill:#000000;stroke:#000000;stroke-width:4.25198;stroke-dasharray:none;stroke-opacity:1;paint-order:stroke fill markers"
     d="m 2347.9317,1116.0549 16.8318,-34.8227 z"
     id="path1237-9" />
  <path
     style="fill:#000000;stroke:#000000;stroke-width:4.25197;stroke-dasharray:none;stroke-opacity:1;paint-order:stroke fill markers"
     d="m 2350.6888,974.3805 -2.187,140.6843 z"
     id="path679-3" />
  <path
     style="fill:#000000;stroke:#000000;stroke-width:4.25198;stroke-dasharray:none;stroke-opacity:1;paint-order:stroke fill markers"
     d="m 2348.5924,1110.6553 c -1.3735,-6.5936 -13.3505,-33.7872 -13.3505,-33.7872 z"
     id="path1235-6" />
  <path
     style="fill:#000000;stroke:#000000;stroke-width:4.25198;stroke-dasharray:none;stroke-opacity:1;paint-order:stroke fill markers"
     d="m 2347.9317,1116.0549 16.8318,-34.8227 z"
     id="path1237-0" />
  <path
     style="fill:#000000;stroke:#000000;stroke-width:4.25197;stroke-dasharray:none;stroke-opacity:1;paint-order:stroke fill markers"
     d="m 1487.8098,981.3411 -2.187,140.6843 z"
     id="path679-6" />
  <path
     style="fill:#000000;stroke:#000000;stroke-width:4.25198;stroke-dasharray:none;stroke-opacity:1;paint-order:stroke fill markers"
     d="m 1485.7134,1117.6159 c -1.3734,-6.5936 -13.3505,-33.7872 -13.3505,-33.7872 z"
     id="path1235-2" />
  <path
     style="fill:#000000;stroke:#000000;stroke-width:4.25198;stroke-dasharray:none;stroke-opacity:1;paint-order:stroke fill markers"
     d="m 1485.0527,1123.0155 16.8318,-34.8227 z"
     id="path1237-6" />
  <path
     style="fill:#000000;stroke:#000000;stroke-width:4.25197;stroke-dasharray:none;stroke-opacity:1;paint-order:stroke fill markers"
     d="m 3217.9338,976.538 -2.187,140.6843 z"
     id="path679-1" />
  <path
     style="fill:#000000;stroke:#000000;stroke-width:4.25198;stroke-dasharray:none;stroke-opacity:1;paint-order:stroke fill markers"
     d="m 3215.8374,1112.8127 c -1.3735,-6.5935 -13.3505,-33.7872 -13.3505,-33.7872 z"
     id="path1235-8" />
  <path
     style="fill:#000000;stroke:#000000;stroke-width:4.25198;stroke-dasharray:none;stroke-opacity:1;paint-order:stroke fill markers"
     d="m 3215.1767,1118.2124 16.8318,-34.8227 z"
     id="path1237-7" />
  <text
     xml:space="preserve"
     style="font-size:120px;font-family:C059;-inkscape-font-specification:C059;fill:#000000;stroke:#000000;stroke-width:4.25198;stroke-dasharray:none;stroke-opacity:1;paint-order:stroke fill markers"
     x="1856.2925"
     y="2190.5918"
     id="text1429"><tspan
       sodipodi:role="line"
       id="tspan1427"
       style="stroke-width:4.25197"
       x="1856.2925"
       y="2190.5918">Contre-temps</tspan></text>
  <path
     style="fill:#000000;stroke:#000000;stroke-width:4.25198;stroke-dasharray:none;stroke-opacity:1;paint-order:stroke fill markers"
     d="M 2158.0527,2013.6916 C 2145.6664,1985.7778 1124.5471,1606.1044 1124.5471,1606.1044 Z"
     id="path1431" />
  <path
     style="fill:#000000;stroke:#000000;stroke-width:4.25198;stroke-dasharray:none;stroke-opacity:1;paint-order:stroke fill markers"
     d="m 2144.6485,2002.0619 c 2.4888,-24.8195 -210.9261,-381.6079 -210.9261,-381.6079 z"
     id="path1433" />
  <path
     style="fill:#000000;stroke:#000000;stroke-width:9.92126;stroke-dasharray:none;stroke-opacity:1;paint-order:stroke fill markers"
     d="m 2143.3618,1997.1716 537.6701,-363.307 z"
     id="path1435" />
  <path
     style="fill:#000000;stroke:#000000;stroke-width:8.50394;stroke-dasharray:none;stroke-opacity:1;paint-order:stroke fill markers"
     d="m 2150.4855,2002.43 1402.362,-406.8938 z"
     id="path1437" />
</svg>
