<?xml version="1.0" encoding="UTF-8" standalone="no"?>
<svg
   width="297mm"
   height="210mm"
   viewBox="0 0 1122.5197 793.7008"
   version="1.2"
   id="svg128"
   sodipodi:docname="la_flor_de_la_cantuta.svg"
   inkscape:version="1.3 (0e150ed6c4, 2023-07-21)"
   xmlns:inkscape="http://www.inkscape.org/namespaces/inkscape"
   xmlns:sodipodi="http://sodipodi.sourceforge.net/DTD/sodipodi-0.dtd"
   xmlns="http://www.w3.org/2000/svg"
   xmlns:svg="http://www.w3.org/2000/svg"
   xmlns:rdf="http://www.w3.org/1999/02/22-rdf-syntax-ns#"
   xmlns:cc="http://creativecommons.org/ns#"
   xmlns:dc="http://purl.org/dc/elements/1.1/">
  <defs
     id="defs128" />
  <sodipodi:namedview
     id="namedview128"
     pagecolor="#ffffff"
     bordercolor="#000000"
     borderopacity="0.25"
     inkscape:showpageshadow="2"
     inkscape:pageopacity="0.0"
     inkscape:pagecheckerboard="0"
     inkscape:deskcolor="#d1d1d1"
     inkscape:zoom="0.56078321"
     inkscape:cx="425.29804"
     inkscape:cy="312.06355"
     inkscape:window-width="1440"
     inkscape:window-height="872"
     inkscape:window-x="-8"
     inkscape:window-y="-8"
     inkscape:window-maximized="1"
     inkscape:current-layer="svg128"
     inkscape:document-units="mm" />
  <title
     id="title1">la_flor_de_la_cantuta</title>
  <desc
     id="desc1">Generated by MuseScore Studio 4.3.1</desc>
  <polyline
     class="StaffLines"
     fill="none"
     stroke="#000000"
     stroke-width="2.73"
     stroke-linejoin="bevel"
     points="336.598,634.198 2764.6,634.198"
     id="polyline1"
     transform="matrix(0.38928944,0,0,0.38928944,-21.737882,-65.322395)" />
  <polyline
     class="StaffLines"
     fill="none"
     stroke="#000000"
     stroke-width="2.73"
     stroke-linejoin="bevel"
     points="336.598,658.998 2764.6,658.998"
     id="polyline2"
     transform="matrix(0.38928944,0,0,0.38928944,-21.737882,-65.322395)" />
  <polyline
     class="StaffLines"
     fill="none"
     stroke="#000000"
     stroke-width="2.73"
     stroke-linejoin="bevel"
     points="336.598,683.798 2764.6,683.798"
     id="polyline3"
     transform="matrix(0.38928944,0,0,0.38928944,-21.737882,-65.322395)" />
  <polyline
     class="StaffLines"
     fill="none"
     stroke="#000000"
     stroke-width="2.73"
     stroke-linejoin="bevel"
     points="336.598,708.598 2764.6,708.598"
     id="polyline4"
     transform="matrix(0.38928944,0,0,0.38928944,-21.737882,-65.322395)" />
  <polyline
     class="StaffLines"
     fill="none"
     stroke="#000000"
     stroke-width="2.73"
     stroke-linejoin="bevel"
     points="336.598,733.398 2764.6,733.398"
     id="polyline5"
     transform="matrix(0.38928944,0,0,0.38928944,-21.737882,-65.322395)" />
  <polyline
     class="StaffLines"
     fill="none"
     stroke="#000000"
     stroke-width="2.73"
     stroke-linejoin="bevel"
     points="212.598,1241.8 2764.6,1241.8"
     id="polyline6"
     transform="matrix(0.38928944,0,0,0.38928944,-21.737882,-65.322395)" />
  <polyline
     class="StaffLines"
     fill="none"
     stroke="#000000"
     stroke-width="2.73"
     stroke-linejoin="bevel"
     points="212.598,1266.6 2764.6,1266.6"
     id="polyline7"
     transform="matrix(0.38928944,0,0,0.38928944,-21.737882,-65.322395)" />
  <polyline
     class="StaffLines"
     fill="none"
     stroke="#000000"
     stroke-width="2.73"
     stroke-linejoin="bevel"
     points="212.598,1291.4 2764.6,1291.4"
     id="polyline8"
     transform="matrix(0.38928944,0,0,0.38928944,-21.737882,-65.322395)" />
  <polyline
     class="StaffLines"
     fill="none"
     stroke="#000000"
     stroke-width="2.73"
     stroke-linejoin="bevel"
     points="212.598,1316.2 2764.6,1316.2"
     id="polyline9"
     transform="matrix(0.38928944,0,0,0.38928944,-21.737882,-65.322395)" />
  <polyline
     class="StaffLines"
     fill="none"
     stroke="#000000"
     stroke-width="2.73"
     stroke-linejoin="bevel"
     points="212.598,1341 2764.6,1341"
     id="polyline10"
     transform="matrix(0.38928944,0,0,0.38928944,-21.737882,-65.322395)" />
  <polyline
     class="StaffLines"
     fill="none"
     stroke="#000000"
     stroke-width="2.73"
     stroke-linejoin="bevel"
     points="212.598,1849.4 2764.6,1849.4"
     id="polyline11"
     transform="matrix(0.38928944,0,0,0.38928944,-21.737882,-65.322395)" />
  <polyline
     class="StaffLines"
     fill="none"
     stroke="#000000"
     stroke-width="2.73"
     stroke-linejoin="bevel"
     points="212.598,1874.2 2764.6,1874.2"
     id="polyline12"
     transform="matrix(0.38928944,0,0,0.38928944,-21.737882,-65.322395)" />
  <polyline
     class="StaffLines"
     fill="none"
     stroke="#000000"
     stroke-width="2.73"
     stroke-linejoin="bevel"
     points="212.598,1899 2764.6,1899"
     id="polyline13"
     transform="matrix(0.38928944,0,0,0.38928944,-21.737882,-65.322395)" />
  <polyline
     class="StaffLines"
     fill="none"
     stroke="#000000"
     stroke-width="2.73"
     stroke-linejoin="bevel"
     points="212.598,1923.8 2764.6,1923.8"
     id="polyline14"
     transform="matrix(0.38928944,0,0,0.38928944,-21.737882,-65.322395)" />
  <polyline
     class="StaffLines"
     fill="none"
     stroke="#000000"
     stroke-width="2.73"
     stroke-linejoin="bevel"
     points="212.598,1948.6 2764.6,1948.6"
     id="polyline15"
     transform="matrix(0.38928944,0,0,0.38928944,-21.737882,-65.322395)" />
  <path
     class="Text"
     d="m 383.76936,37.628307 h -1.88416 c -1.41313,7.70677 -3.3401,9.5921 -9.97748,9.72018 h -1.79852 c -2.56815,-0.0853 -3.21281,-0.51114 -3.08513,-2.05623 v -21.58104 c 0,-2.14109 0,-2.26878 0.25577,-2.65223 0.34569,-0.43173 1.1632,-0.55941 3.60015,-0.60223 h 0.77468 v -2.01302 H 357.6021 v 2.01302 h 0.77275 c 2.43889,0.0428 3.25406,0.1705 3.59469,0.60223 0.2616,0.38345 0.2616,0.46832 0.2616,2.65223 v 20.3828 c 0,2.18392 0,2.26879 -0.2616,2.65807 -0.34063,0.42588 -1.1558,0.5964 -3.59469,0.5964 h -0.77275 v 2.01301 h 25.268 l 0.89926,-11.73319 m 20.11069,-2.05584 c 0,-2.69465 -0.47104,-4.06962 -1.71676,-5.09735 -1.40924,-1.1558 -3.5075,-1.70937 -6.2481,-1.70937 -4.83887,0 -8.35026,2.26879 -8.35026,5.39556 0,1.58129 0.98491,2.6094 2.48367,2.6094 1.36641,0 2.30848,-0.90043 2.30848,-2.18391 0,-0.55357 -0.21021,-1.15542 -0.63843,-1.7518 -0.26082,-0.30404 -0.30364,-0.38929 -0.30364,-0.60223 0,-0.85761 1.71676,-1.62996 3.77221,-1.62996 1.36641,0 2.86907,0.43173 3.55032,1.07055 0.81751,0.68748 1.11337,1.7152 1.11337,3.64335 v 1.66695 c -4.44958,0.77235 -5.8627,1.11297 -7.96098,1.92814 -3.72939,1.37458 -5.48118,3.33933 -5.48118,6.08265 0,3.08395 2.39802,5.0121 6.21305,5.0121 2.94693,0 5.60577,-1.20446 7.45101,-3.38798 0.68124,2.18352 1.7518,3.04112 3.76442,3.04112 1.92699,0 3.93961,-1.24066 3.93961,-2.48172 0,-0.29819 -0.16739,-0.51698 -0.43211,-0.51698 -0.16739,0 -0.33868,0.0487 -0.63844,0.17636 -0.5995,0.25537 -0.85643,0.29819 -1.19901,0.29819 -1.2029,0 -1.62723,-0.77273 -1.62723,-2.95626 v -8.60681 m -4.02914,5.22466 c 0,2.56698 -0.12457,3.16921 -0.84865,4.28219 -1.07055,1.58167 -3.00143,2.65223 -4.88558,2.65223 -1.96981,0 -3.38293,-1.41119 -3.38293,-3.33932 0,-1.79463 0.89926,-3.08396 2.77952,-3.97816 1.33137,-0.60223 3.00143,-1.02811 6.33764,-1.58753 v 1.97059 m 42.19507,-22.99844 h -6.07677 c -7.27974,-0.25537 -11.43346,3.55849 -11.17653,10.27997 v 1.32592 h -3.76832 v 1.84289 h 3.76832 v 14.85996 c -0.0428,0.60223 -0.0857,0.85761 -0.25693,1.11298 -0.29975,0.38344 -1.11337,0.5598 -2.9547,0.60223 h -0.17129 v 1.53886 h 11.43343 v -1.53886 h -0.77079 c -2.87296,-0.0911 -3.25446,-0.30404 -3.25446,-1.8429 v -14.73227 h 4.70651 v -1.84289 h -4.70651 v -2.43929 c 0,-2.14109 0.17128,-3.55227 0.55279,-4.4523 0.85644,-1.88573 2.61602,-2.9987 4.75712,-2.9987 0.94207,0 1.66614,0.34062 1.66614,0.77235 0,0.0853 -0.0428,0.21294 -0.0857,0.2982 -0.50996,0.81477 -0.63845,1.24065 -0.63845,1.84289 0,1.24067 0.81749,2.09866 2.01264,2.09866 0.34257,0 0.55666,-0.0428 0.94596,-0.17051 v 21.79398 c -0.0508,0.60223 -0.0934,0.858 -0.26471,1.07055 -0.29588,0.38344 -1.11336,0.5598 -2.94692,0.60223 h -0.30755 v 1.53886 H 445.604 v -1.53886 h -0.30364 c -2.86516,-0.0911 -3.25446,-0.30404 -3.25446,-1.8429 v -28.18105 m 15.16675,10.96706 c -5.26711,0 -9.33907,4.66563 -9.33907,10.66303 0,5.86348 4.11477,10.57777 9.2534,10.57777 5.13863,0 9.2495,-4.71429 9.2495,-10.62059 0,-5.86971 -4.11087,-10.62021 -9.16383,-10.62021 m 0,1.83706 c 2.99752,0 4.66365,3.12638 4.66365,8.78315 0,5.69336 -1.66613,8.77731 -4.74932,8.77731 -3.08319,0 -4.74933,-3.08395 -4.74933,-8.73449 0,-5.82727 1.62333,-8.82597 4.835,-8.82597 m 19.09852,-1.19823 -7.57949,0.47454 v 1.8429 h 1.7518 c 1.63115,0.0424 1.84524,0.2982 1.84524,2.14109 v 12.24432 c -0.0428,0.64466 -0.0857,0.90043 -0.2569,1.11298 -0.29976,0.38344 -1.15622,0.5598 -2.99757,0.60223 h -0.17129 v 1.53886 h 11.43349 v -1.53886 h -0.7708 c -2.87298,-0.0911 -3.25448,-0.30404 -3.25448,-1.8429 v -2.3116 c 0.0428,-7.19562 2.60822,-12.67604 5.94835,-12.84655 -0.59563,0.68126 -0.76691,1.11337 -0.76691,1.92231 0,1.37458 0.98489,2.35987 2.3552,2.35987 1.58052,0 2.60821,-1.15541 2.60821,-2.871 0,-2.09828 -1.45204,-3.46702 -3.72157,-3.46702 -2.7017,0 -5.01404,2.14109 -6.42328,5.94874 v -5.30991 m 38.9367,20.25511 7.45102,-0.29819 v -1.8429 h -0.77467 c -2.43699,-0.12768 -2.65107,-0.38306 -2.65107,-3.12637 v -26.59354 l -8.39311,0.47454 v 1.8429 h 2.52261 c 1.63114,0.0428 1.84522,0.2982 1.84522,2.14109 v 9.67774 c -1.5844,-2.18391 -3.42574,-3.16921 -5.90937,-3.16921 -4.83886,0 -8.52157,4.66563 -8.52157,10.83314 0,6.08266 3.55423,10.40766 8.52157,10.40766 2.69777,0 4.53912,-1.1558 5.90937,-3.72861 v 3.38175 m -5.05683,-18.58234 c 1.75956,0 3.42963,1.28349 4.19654,3.25407 0.56054,1.28349 0.81749,3.04152 0.81749,5.1398 0,5.00626 -1.97371,8.21789 -5.05684,8.21789 -3.03651,0 -4.83499,-2.82234 -4.83499,-7.57908 0,-2.56697 0.25689,-4.49512 0.8136,-5.9063 0.72406,-1.92815 2.31239,-3.12638 4.0642,-3.12638 m 33.22195,8.64924 c 0.0428,-6.42328 -3.60092,-10.96084 -8.82521,-10.96084 -5.48119,0 -9.59208,4.7505 -9.59208,11.17377 0,6.04022 3.90067,10.06703 9.67774,10.06703 4.11089,0 6.98387,-2.0134 8.73955,-6.08265 l -1.49879,-0.81516 c -1.7518,3.29688 -3.55417,4.58037 -6.42327,4.58037 -2.18392,0 -3.76832,-0.8942 -4.88167,-2.82234 -0.7708,-1.28349 -1.11337,-2.78615 -1.07056,-5.14018 h 13.87429 m -13.83149,-1.8429 c 0,-2.9987 1.37032,-7.28088 4.96347,-7.28088 2.57322,0 4.28217,2.27501 4.28217,5.74201 0,1.19824 -0.3815,1.53887 -1.75181,1.53887 h -7.49383 m 36.13386,-20.085 -7.922,0.47454 v 1.8429 h 2.09825 c 1.5844,0.0428 1.79461,0.2982 1.79461,2.14109 v 23.85021 c -0.0428,0.64466 -0.0856,0.90043 -0.25301,1.11298 -0.29977,0.38344 -1.11337,0.5598 -2.9586,0.60223 h -0.29588 v 1.53886 h 11.08698 v -1.53886 h -0.29583 c -2.86517,-0.0911 -3.25448,-0.30404 -3.25448,-1.8429 v -28.18105 m 24.24499,17.77378 c 0,-2.69465 -0.47105,-4.06962 -1.71682,-5.09735 -1.40918,-1.1558 -3.50748,-1.70937 -6.24805,-1.70937 -4.83887,0 -8.35029,2.26879 -8.35029,5.39556 0,1.58129 0.98494,2.6094 2.48367,2.6094 1.36643,0 2.30851,-0.90043 2.30851,-2.18391 0,-0.55357 -0.21021,-1.15542 -0.63844,-1.7518 -0.26083,-0.30404 -0.30364,-0.38929 -0.30364,-0.60223 0,-0.85761 1.71676,-1.62996 3.7722,-1.62996 1.36643,0 2.86904,0.43173 3.55035,1.07055 0.81748,0.68748 1.11336,1.7152 1.11336,3.64335 v 1.66695 c -4.44963,0.77235 -5.86274,1.11297 -7.96099,1.92814 -3.72939,1.37458 -5.48119,3.33933 -5.48119,6.08265 0,3.08395 2.39801,5.0121 6.21307,5.0121 2.94689,0 5.60578,-1.20446 7.45096,-3.38798 0.6813,2.18352 1.75185,3.04112 3.76444,3.04112 1.92701,0 3.93965,-1.24066 3.93965,-2.48172 0,-0.29819 -0.1674,-0.51698 -0.43212,-0.51698 -0.1674,0 -0.33868,0.0487 -0.63843,0.17636 -0.59952,0.25537 -0.85648,0.29819 -1.19904,0.29819 -1.20291,0 -1.6272,-0.77273 -1.6272,-2.95626 v -8.60681 m -4.02915,5.22466 c 0,2.56698 -0.1246,3.16921 -0.84865,4.28219 -1.07055,1.58167 -3.00146,2.65223 -4.88561,2.65223 -1.96978,0 -3.3829,-1.41119 -3.3829,-3.33932 0,-1.79463 0.89922,-3.08396 2.7795,-3.97816 1.33139,-0.60223 3.00145,-1.02811 6.33766,-1.58753 v 1.97059 m 37.05642,2.26917 c -1.36638,3.08356 -2.8223,4.32462 -5.04908,4.32462 -3.42181,0 -5.56292,-3.12639 -5.56292,-8.13266 0,-5.22503 2.09824,-8.65545 5.25929,-8.65545 1.28857,0 2.40193,0.60223 2.40193,1.28933 0,0.12808 -0.0428,0.25576 -0.26082,0.51113 -0.68125,0.81518 -0.85254,1.24067 -0.85254,1.97059 0,1.41117 1.0705,2.39685 2.56929,2.39685 1.54547,0 2.61603,-1.19824 2.61603,-2.9076 0,-2.91345 -2.87299,-5.09736 -6.68799,-5.09736 -5.56298,0 -9.54926,4.53756 -9.54926,10.96084 0,6.08264 3.64372,10.27996 8.95363,10.27996 3.80724,0 5.99116,-1.75803 7.83639,-6.29558 l -1.67395,-0.64467 m 21.86255,-7.49383 c 0,-2.69465 -0.47103,-4.06962 -1.71681,-5.09735 -1.40918,-1.1558 -3.50748,-1.70937 -6.24805,-1.70937 -4.83887,0 -8.35029,2.26879 -8.35029,5.39556 0,1.58129 0.98488,2.6094 2.48368,2.6094 1.36642,0 2.3085,-0.90043 2.3085,-2.18391 0,-0.55357 -0.21021,-1.15542 -0.63844,-1.7518 -0.26083,-0.30404 -0.30364,-0.38929 -0.30364,-0.60223 0,-0.85761 1.71676,-1.62996 3.7722,-1.62996 1.36643,0 2.86904,0.43173 3.55029,1.07055 0.81754,0.68748 1.11342,1.7152 1.11342,3.64335 v 1.66695 c -4.44962,0.77235 -5.86274,1.11297 -7.96099,1.92814 -3.72939,1.37458 -5.48119,3.33933 -5.48119,6.08265 0,3.08395 2.39801,5.0121 6.21306,5.0121 2.9469,0 5.60573,-1.20446 7.45097,-3.38798 0.6813,2.18352 1.7518,3.04112 3.76443,3.04112 1.92703,0 3.9396,-1.24066 3.9396,-2.48172 0,-0.29819 -0.16734,-0.51698 -0.43205,-0.51698 -0.16741,0 -0.33869,0.0487 -0.63845,0.17636 -0.59951,0.25537 -0.85646,0.29819 -1.19903,0.29819 -1.20291,0 -1.62721,-0.77273 -1.62721,-2.95626 v -8.60681 m -4.02914,5.22466 c 0,2.56698 -0.1246,3.16921 -0.84865,4.28219 -1.07056,1.58167 -3.00146,2.65223 -4.88562,2.65223 -1.96977,0 -3.38295,-1.41119 -3.38295,-3.33932 0,-1.79463 0.89928,-3.08396 2.77956,-3.97816 1.33139,-0.60223 3.0014,-1.02811 6.33766,-1.58753 v 1.97059 m 16.9847,-11.39255 -7.40822,0.47454 v 1.8429 h 1.54548 c 1.62333,0.0424 1.83359,0.2982 1.83359,2.14109 v 12.24432 c -0.0388,0.64466 -0.0818,0.90043 -0.25306,1.11298 -0.29977,0.38344 -1.11337,0.5598 -2.9586,0.60223 h -0.16741 v 1.53886 h 10.83392 v -1.53886 h -0.17128 c -2.87293,-0.0911 -3.25442,-0.30404 -3.25442,-1.8429 v -6.33802 c 0,-2.09866 0.29582,-4.02681 0.77074,-5.0121 0.90315,-1.92815 2.82236,-3.25446 4.66759,-3.25446 1.11336,0 2.39413,0.60223 3.04039,1.50266 0.64619,0.93663 0.94207,2.22595 0.94207,4.28218 v 8.94743 c -0.0428,0.64466 -0.0856,0.90043 -0.25307,1.11298 -0.30752,0.38344 -1.16393,0.5598 -3.0014,0.60223 h -0.17128 v 1.53886 h 10.83391 v -1.53886 h -0.1674 c -2.83012,-0.0911 -3.21161,-0.30404 -3.21161,-1.8429 v -8.6068 c 0,-3.08395 -0.13629,-3.85669 -0.90315,-5.3103 -1.07055,-2.05583 -3.21167,-3.29689 -5.78484,-3.29689 -2.77954,0 -4.87779,1.28349 -6.76195,4.11207 v -3.47324 m 25.82545,0 v -8.47911 h -1.75569 c -0.42823,5.57151 -2.31239,8.39385 -5.78095,8.65546 v 1.66654 h 3.51136 v 10.9184 c 0,2.99871 0.0857,4.06924 0.50997,5.05454 0.68907,1.80046 2.40194,2.78614 4.88562,2.78614 3.85393,0 6.3376,-2.91383 6.3376,-7.45139 0,-0.2616 0,-0.5594 -0.0428,-0.98529 h -1.80245 c -0.12454,3.85007 -1.23796,5.82105 -3.33621,5.82105 -0.98488,0 -1.84523,-0.51114 -2.14111,-1.24106 -0.25689,-0.60184 -0.38536,-1.67238 -0.38536,-3.21164 v -11.69075 h 6.29479 v -1.84289 h -6.29479 m 26.07069,20.25511 7.79746,-0.29819 v -1.8429 h -1.07055 c -2.48756,-0.0852 -2.70165,-0.34063 -2.70165,-3.12637 v -14.98765 l -8.04659,0.47454 v 1.8429 h 2.18391 c 1.62333,0.0424 1.83742,0.2982 1.83742,2.14109 v 5.26164 c 0,3.72861 -0.89533,8.26617 -5.60967,8.26617 -1.32357,0 -2.43693,-0.46832 -2.99752,-1.32592 -0.55277,-0.81517 -0.63844,-1.24105 -0.63844,-3.59509 v -13.06533 l -7.49383,0.47454 v 1.8429 h 1.62339 c 1.63109,0.0424 1.84523,0.2982 1.84523,2.14109 v 9.24563 c 0,2.18352 0.16734,3.1692 0.8136,4.15449 1.15617,1.75764 3.21161,2.74332 5.77707,2.74332 2.83012,0 4.79989,-1.1558 6.68017,-3.89912 v 3.55226 m 16.75115,-20.25511 v -8.47911 h -1.75568 c -0.42824,5.57151 -2.31239,8.39385 -5.78095,8.65546 v 1.66654 h 3.51137 v 10.9184 c 0,2.99871 0.0856,4.06924 0.50996,5.05454 0.68906,1.80046 2.40194,2.78614 4.88561,2.78614 3.85393,0 6.3376,-2.91383 6.3376,-7.45139 0,-0.2616 0,-0.5594 -0.0428,-0.98529 h -1.80244 c -0.12459,3.85007 -1.23794,5.82105 -3.33619,5.82105 -0.98489,0 -1.84524,-0.51114 -2.14111,-1.24106 -0.2569,-0.60184 -0.38537,-1.67238 -0.38537,-3.21164 v -11.69075 h 6.29479 v -1.84289 h -6.29479 m 27.78744,6.16789 c 0,-2.69465 -0.47103,-4.06962 -1.71675,-5.09735 -1.40924,-1.1558 -3.50748,-1.70937 -6.24811,-1.70937 -4.83887,0 -8.35023,2.26879 -8.35023,5.39556 0,1.58129 0.98488,2.6094 2.48367,2.6094 1.36637,0 2.30845,-0.90043 2.30845,-2.18391 0,-0.55357 -0.2102,-1.15542 -0.63839,-1.7518 -0.26082,-0.30404 -0.30369,-0.38929 -0.30369,-0.60223 0,-0.85761 1.71681,-1.62996 3.77226,-1.62996 1.36637,0 2.86904,0.43173 3.55029,1.07055 0.81754,0.68748 1.11336,1.7152 1.11336,3.64335 v 1.66695 c -4.44957,0.77235 -5.86269,1.11297 -7.96093,1.92814 -3.72939,1.37458 -5.4812,3.33933 -5.4812,6.08265 0,3.08395 2.39801,5.0121 6.21301,5.0121 2.94695,0 5.60579,-1.20446 7.45102,-3.38798 0.68125,2.18352 1.75181,3.04112 3.76444,3.04112 1.92696,0 3.9396,-1.24066 3.9396,-2.48172 0,-0.29819 -0.16741,-0.51698 -0.43212,-0.51698 -0.1674,0 -0.33868,0.0487 -0.63844,0.17636 -0.59945,0.25537 -0.85641,0.29819 -1.19897,0.29819 -1.20291,0 -1.62727,-0.77273 -1.62727,-2.95626 v -8.60681 m -4.02914,5.22466 c 0,2.56698 -0.12454,3.16921 -0.84865,4.28219 -1.07056,1.58167 -3.0014,2.65223 -4.88556,2.65223 -1.96982,0 -3.38294,-1.41119 -3.38294,-3.33932 0,-1.79463 0.89927,-3.08396 2.77955,-3.97816 1.33139,-0.60223 3.0014,-1.02811 6.3376,-1.58753 v 1.97059"
     id="path15"
     style="stroke-width:0.389289" />
  <path
     class="MeasureNumber"
     d="m 68.980574,624.35839 c -0.82724,0.0934 -1.83706,0.15958 -2.70673,0.15958 -0.43795,0 -0.93663,-0.0194 -1.49642,-0.0508 -0.51698,-0.0274 -1.02812,-0.0584 -1.55717,-0.0895 l -0.38928,-0.0195 -1.5085,3.28558 0.57187,0.18686 0.37722,-0.62674 c 0.72992,-1.20679 1.07054,-1.37807 2.65806,-1.36643 h 2.63355 l -1.69691,2.43305 c -1.99511,2.79901 -1.99511,2.79901 -2.75539,4.04473 -0.68749,1.1056 -0.96739,1.78684 -0.96739,2.34743 0,0.54889 0.34686,0.88757 0.88836,0.88757 0.5777,0 0.86967,-0.28029 1.07638,-1.00828 0.77859,-2.92743 1.2469,-3.94348 3.40629,-7.43932 l 1.46606,-2.27341 v -0.47104"
     id="path16"
     style="stroke-width:0.389289" />
  <path
     class="MeasureNumber"
     d="m 69.388164,387.76768 h -0.84554 l -7.25051,7.50553 v 0.65014 h 4.38573 l -0.24954,0.94984 c -0.31026,1.18345 -0.31026,1.18345 -1.66654,1.18345 h -0.2799 l -0.0911,0.73187 h 4.84158 l 0.079,-0.73187 h -0.27989 c -1.02773,0 -1.2469,-0.0779 -1.2469,-0.41654 0,-0.12847 0.0304,-0.28029 0.15844,-0.76691 l 0.26122,-0.94984 h 1.77632 l 0.23124,-0.84088 h -1.78839 l 1.96474,-7.31479 m -3.47324,7.31479 h -3.49154 l 4.81162,-4.95177 -1.32008,4.95177"
     id="path17"
     style="stroke-width:0.389289" />
  <polyline
     class="BarLine"
     fill="none"
     stroke="#000000"
     stroke-width="4.46"
     stroke-linejoin="bevel"
     points="1609.01,1848.03 1609.01,1949.96"
     id="polyline17"
     transform="matrix(0.38928944,0,0,0.38928944,-21.737882,-65.322395)" />
  <polyline
     class="BarLine"
     fill="none"
     stroke="#000000"
     stroke-width="4.46"
     stroke-linejoin="bevel"
     points="2008.6,632.834 2008.6,734.762"
     id="polyline18"
     transform="matrix(0.38928944,0,0,0.38928944,-21.737882,-65.322395)" />
  <polyline
     class="BarLine"
     fill="none"
     stroke="#000000"
     stroke-width="4.46"
     stroke-linejoin="bevel"
     points="1068.06,1240.43 1068.06,1342.36"
     id="polyline19"
     transform="matrix(0.38928944,0,0,0.38928944,-21.737882,-65.322395)" />
  <polyline
     class="BarLine"
     fill="none"
     stroke="#000000"
     stroke-width="4.46"
     stroke-linejoin="bevel"
     points="2762.37,1240.43 2762.37,1342.36"
     id="polyline20"
     transform="matrix(0.38928944,0,0,0.38928944,-21.737882,-65.322395)" />
  <polyline
     class="BarLine"
     fill="none"
     stroke="#000000"
     stroke-width="4.46"
     stroke-linejoin="bevel"
     points="1915.21,1240.43 1915.21,1342.36"
     id="polyline21"
     transform="matrix(0.38928944,0,0,0.38928944,-21.737882,-65.322395)" />
  <polyline
     class="BarLine"
     fill="none"
     stroke="#000000"
     stroke-width="4.46"
     stroke-linejoin="bevel"
     points="2762.37,632.834 2762.37,734.762"
     id="polyline22"
     transform="matrix(0.38928944,0,0,0.38928944,-21.737882,-65.322395)" />
  <polyline
     class="BarLine"
     fill="none"
     stroke="#000000"
     stroke-width="4.46"
     stroke-linejoin="bevel"
     points="1254.83,632.834 1254.83,734.762"
     id="polyline23"
     transform="matrix(0.38928944,0,0,0.38928944,-21.737882,-65.322395)" />
  <polyline
     class="BarLine"
     fill="none"
     stroke="#000000"
     stroke-width="4.46"
     stroke-linejoin="bevel"
     points="2739.55,1848.03 2739.55,1949.96"
     id="polyline24"
     transform="matrix(0.38928944,0,0,0.38928944,-21.737882,-65.322395)" />
  <polyline
     class="BarLine"
     fill="none"
     stroke="#000000"
     stroke-width="13.64"
     stroke-linejoin="bevel"
     points="2757.78,1848.03 2757.78,1949.96"
     id="polyline25"
     transform="matrix(0.38928944,0,0,0.38928944,-21.737882,-65.322395)" />
  <polyline
     class="Stem"
     fill="none"
     stroke="#000000"
     stroke-width="2.48"
     stroke-linejoin="bevel"
     points="1649.08,687.965 1649.08,758.198"
     id="polyline26"
     transform="matrix(0.38928944,0,0,0.38928944,-21.737882,-65.322395)" />
  <polyline
     class="Stem"
     fill="none"
     stroke="#000000"
     stroke-width="2.48"
     stroke-linejoin="bevel"
     points="2558.76,1295.56 2558.76,1365.8"
     id="polyline27"
     transform="matrix(0.38928944,0,0,0.38928944,-21.737882,-65.322395)" />
  <polyline
     class="Stem"
     fill="none"
     stroke="#000000"
     stroke-width="2.48"
     stroke-linejoin="bevel"
     points="2356.15,1295.56 2356.15,1365.8"
     id="polyline28"
     transform="matrix(0.38928944,0,0,0.38928944,-21.737882,-65.322395)" />
  <polyline
     class="Stem"
     fill="none"
     stroke="#000000"
     stroke-width="2.48"
     stroke-linejoin="bevel"
     points="566.525,704.63 566.525,621.798"
     id="polyline29"
     transform="matrix(0.38928944,0,0,0.38928944,-21.737882,-65.322395)" />
  <polyline
     class="Stem"
     fill="none"
     stroke="#000000"
     stroke-width="2.48"
     stroke-linejoin="bevel"
     points="1306.38,1270.76 1306.38,1353.4"
     id="polyline30"
     transform="matrix(0.38928944,0,0,0.38928944,-21.737882,-65.322395)" />
  <polyline
     class="Stem"
     fill="none"
     stroke="#000000"
     stroke-width="2.48"
     stroke-linejoin="bevel"
     points="2402.84,687.965 2402.84,758.198"
     id="polyline31"
     transform="matrix(0.38928944,0,0,0.38928944,-21.737882,-65.322395)" />
  <polyline
     class="Stem"
     fill="none"
     stroke="#000000"
     stroke-width="2.48"
     stroke-linejoin="bevel"
     points="745.792,692.23 745.792,615.598"
     id="polyline32"
     transform="matrix(0.38928944,0,0,0.38928944,-21.737882,-65.322395)" />
  <polyline
     class="Stem"
     fill="none"
     stroke="#000000"
     stroke-width="2.48"
     stroke-linejoin="bevel"
     points="2582.11,687.965 2582.11,758.198"
     id="polyline33"
     transform="matrix(0.38928944,0,0,0.38928944,-21.737882,-65.322395)" />
  <polyline
     class="Stem"
     fill="none"
     stroke="#000000"
     stroke-width="2.48"
     stroke-linejoin="bevel"
     points="1711.61,1233.56 1711.61,1316.2"
     id="polyline34"
     transform="matrix(0.38928944,0,0,0.38928944,-21.737882,-65.322395)" />
  <polyline
     class="Stem"
     fill="none"
     stroke="#000000"
     stroke-width="2.48"
     stroke-linejoin="bevel"
     points="895.306,687.965 895.306,758.198"
     id="polyline35"
     transform="matrix(0.38928944,0,0,0.38928944,-21.737882,-65.322395)" />
  <polyline
     class="Stem"
     fill="none"
     stroke="#000000"
     stroke-width="2.48"
     stroke-linejoin="bevel"
     points="1828.34,687.965 1828.34,758.198"
     id="polyline36"
     transform="matrix(0.38928944,0,0,0.38928944,-21.737882,-65.322395)" />
  <polyline
     class="Stem"
     fill="none"
     stroke="#000000"
     stroke-width="2.48"
     stroke-linejoin="bevel"
     points="763.145,1295.56 763.145,1365.8"
     id="polyline37"
     transform="matrix(0.38928944,0,0,0.38928944,-21.737882,-65.322395)" />
  <polyline
     class="Stem"
     fill="none"
     stroke="#000000"
     stroke-width="2.48"
     stroke-linejoin="bevel"
     points="1074.57,687.965 1074.57,758.198"
     id="polyline38"
     transform="matrix(0.38928944,0,0,0.38928944,-21.737882,-65.322395)" />
  <polyline
     class="Stem"
     fill="none"
     stroke="#000000"
     stroke-width="2.48"
     stroke-linejoin="bevel"
     points="1508.99,1258.36 1508.99,1341"
     id="polyline39"
     transform="matrix(0.38928944,0,0,0.38928944,-21.737882,-65.322395)" />
  <polyline
     class="Stem"
     fill="none"
     stroke="#000000"
     stroke-width="2.48"
     stroke-linejoin="bevel"
     points="357.919,1258.36 357.919,1341"
     id="polyline40"
     transform="matrix(0.38928944,0,0,0.38928944,-21.737882,-65.322395)" />
  <polyline
     class="Stem"
     fill="none"
     stroke="#000000"
     stroke-width="2.48"
     stroke-linejoin="bevel"
     points="1290.54,650.765 1290.54,733.398"
     id="polyline41"
     transform="matrix(0.38928944,0,0,0.38928944,-21.737882,-65.322395)" />
  <polyline
     class="Stem"
     fill="none"
     stroke="#000000"
     stroke-width="2.48"
     stroke-linejoin="bevel"
     points="2153.54,1270.76 2153.54,1353.4"
     id="polyline42"
     transform="matrix(0.38928944,0,0,0.38928944,-21.737882,-65.322395)" />
  <polyline
     class="Stem"
     fill="none"
     stroke="#000000"
     stroke-width="2.48"
     stroke-linejoin="bevel"
     points="1469.81,663.165 1469.81,745.798"
     id="polyline43"
     transform="matrix(0.38928944,0,0,0.38928944,-21.737882,-65.322395)" />
  <polyline
     class="Stem"
     fill="none"
     stroke="#000000"
     stroke-width="2.48"
     stroke-linejoin="bevel"
     points="2074.06,704.63 2074.06,621.798"
     id="polyline44"
     transform="matrix(0.38928944,0,0,0.38928944,-21.737882,-65.322395)" />
  <polyline
     class="Stem"
     fill="none"
     stroke="#000000"
     stroke-width="2.48"
     stroke-linejoin="bevel"
     points="1950.93,1258.36 1950.93,1341"
     id="polyline45"
     transform="matrix(0.38928944,0,0,0.38928944,-21.737882,-65.322395)" />
  <polyline
     class="Stem"
     fill="none"
     stroke="#000000"
     stroke-width="2.48"
     stroke-linejoin="bevel"
     points="1295.49,1903.16 1295.49,1973.4"
     id="polyline46"
     transform="matrix(0.38928944,0,0,0.38928944,-21.737882,-65.322395)" />
  <polyline
     class="Stem"
     fill="none"
     stroke="#000000"
     stroke-width="2.48"
     stroke-linejoin="bevel"
     points="2253.33,692.23 2253.33,615.598"
     id="polyline47"
     transform="matrix(0.38928944,0,0,0.38928944,-21.737882,-65.322395)" />
  <polyline
     class="Stem"
     fill="none"
     stroke="#000000"
     stroke-width="2.48"
     stroke-linejoin="bevel"
     points="357.919,1865.96 357.919,1948.6"
     id="polyline48"
     transform="matrix(0.38928944,0,0,0.38928944,-21.737882,-65.322395)" />
  <polyline
     class="Stem"
     fill="none"
     stroke="#000000"
     stroke-width="2.48"
     stroke-linejoin="bevel"
     points="670.444,1878.36 670.444,1961"
     id="polyline49"
     transform="matrix(0.38928944,0,0,0.38928944,-21.737882,-65.322395)" />
  <polyline
     class="Stem"
     fill="none"
     stroke="#000000"
     stroke-width="2.48"
     stroke-linejoin="bevel"
     points="982.969,1865.96 982.969,1948.6"
     id="polyline50"
     transform="matrix(0.38928944,0,0,0.38928944,-21.737882,-65.322395)" />
  <polyline
     class="Stem"
     fill="none"
     stroke="#000000"
     stroke-width="2.48"
     stroke-linejoin="bevel"
     points="560.532,1270.76 560.532,1353.4"
     id="polyline51"
     transform="matrix(0.38928944,0,0,0.38928944,-21.737882,-65.322395)" />
  <polyline
     class="Stem"
     fill="none"
     stroke="#000000"
     stroke-width="2.48"
     stroke-linejoin="bevel"
     points="1103.77,1258.36 1103.77,1341"
     id="polyline52"
     transform="matrix(0.38928944,0,0,0.38928944,-21.737882,-65.322395)" />
  <polyline
     class="Stem"
     fill="none"
     stroke="#000000"
     stroke-width="2.48"
     stroke-linejoin="bevel"
     points="1644.72,1903.16 1644.72,1973.4"
     id="polyline53"
     transform="matrix(0.38928944,0,0,0.38928944,-21.737882,-65.322395)" />
  <polyline
     class="Stem"
     fill="none"
     stroke="#000000"
     stroke-width="2.48"
     stroke-linejoin="bevel"
     points="1987,1907.43 1987,1830.8"
     id="polyline54"
     transform="matrix(0.38928944,0,0,0.38928944,-21.737882,-65.322395)" />
  <polyline
     class="Stem"
     fill="none"
     stroke="#000000"
     stroke-width="2.48"
     stroke-linejoin="bevel"
     points="2299.53,1919.83 2299.53,1837"
     id="polyline55"
     transform="matrix(0.38928944,0,0,0.38928944,-21.737882,-65.322395)" />
  <path
     class="Note"
     d="m 407.46541,424.54757 c 0,1.65935 1.19473,3.51177 4.32637,3.51177 4.0126,0 8.22432,-3.2825 8.22432,-6.6796 0,-2.28082 -1.93088,-3.554 -4.32637,-3.554 -3.7471,0 -8.22432,3.16783 -8.22432,6.72183"
     id="path55"
     style="stroke-width:0.386175" />
  <path
     class="Note"
     d="m 486.33933,429.37475 c 0,1.65939 1.19474,3.51182 4.32639,3.51182 4.0126,0 8.22433,-3.2825 8.22433,-6.67965 0,-2.28084 -1.9309,-3.554 -4.3264,-3.554 -3.74708,0 -8.22432,3.16782 -8.22432,6.72183"
     id="path56"
     style="stroke-width:0.386175" />
  <path
     class="Note"
     d="m 565.2133,424.54757 c 0,1.65935 1.1947,3.51177 4.32634,3.51177 4.0126,0 8.22433,-3.2825 8.22433,-6.6796 0,-2.28082 -1.9309,-3.554 -4.32639,-3.554 -3.74709,0 -8.22428,3.16783 -8.22428,6.72183"
     id="path57"
     style="stroke-width:0.386175" />
  <path
     class="Note"
     d="m 480.17301,188.01453 c 0,1.65935 1.19469,3.51178 4.32634,3.51178 4.01259,0 8.22433,-3.28249 8.22433,-6.67963 0,-2.28084 -1.93085,-3.554 -4.32635,-3.554 -3.74713,0 -8.22432,3.16783 -8.22432,6.72185"
     id="path58"
     style="stroke-width:0.386175" />
  <path
     class="Note"
     d="m 644.0911,414.89317 c 0,1.6594 1.19476,3.51182 4.3264,3.51182 4.0126,0 8.22433,-3.28249 8.22433,-6.67965 0,-2.28082 -1.9309,-3.554 -4.32639,-3.554 -3.74709,0 -8.22434,3.16783 -8.22434,6.72183"
     id="path59"
     style="stroke-width:0.386175" />
  <path
     class="Note"
     d="m 283.08802,432.30731 c -3.7471,0 -8.22433,3.13159 -8.22433,6.72183 0,1.65934 1.19473,3.51176 4.32636,3.51176 4.01263,0 8.22433,-3.28249 8.22433,-6.67959 0,-2.28083 -1.93087,-3.554 -4.32636,-3.554 m -5.32802,8.41741 c -1.27316,0 -1.5447,-1.03784 -1.5447,-1.38783 0,-1.89466 6.48655,-5.2134 8.30277,-5.2134 0.92925,0 1.5447,0.54307 1.5447,1.38783 0,1.93091 -6.52876,5.2134 -8.30277,5.2134"
     id="path60"
     style="stroke-width:0.386175" />
  <path
     class="Note"
     d="m 737.25585,424.54757 c 0,1.65935 1.19475,3.51177 4.32639,3.51177 4.0126,0 8.22433,-3.2825 8.22433,-6.6796 0,-2.28082 -1.9309,-3.554 -4.32639,-3.554 -3.74709,0 -8.22433,3.16783 -8.22433,6.72183"
     id="path61"
     style="stroke-width:0.386175" />
  <path
     class="Note"
     d="m 816.12983,429.37475 c 0,1.65939 1.19469,3.51182 4.32633,3.51182 4.0126,0 8.22433,-3.2825 8.22433,-6.67965 0,-2.28084 -1.93084,-3.554 -4.32634,-3.554 -3.74714,0 -8.22432,3.16782 -8.22432,6.72183"
     id="path62"
     style="stroke-width:0.386175" />
  <path
     class="Note"
     d="m 895.00378,439.02914 c 0,1.65934 1.1947,3.51176 4.32633,3.51176 4.01257,0 8.22427,-3.28249 8.22427,-6.67959 0,-2.28083 -1.9308,-3.554 -4.3263,-3.554 -3.74716,0 -8.2243,3.16783 -8.2243,6.72183"
     id="path63"
     style="stroke-width:0.386175" />
  <path
     class="Note"
     d="m 973.87768,439.02914 c 0,1.65934 1.1947,3.51176 4.3263,3.51176 4.0127,0 8.2244,-3.28249 8.2244,-6.67959 0,-2.28083 -1.9309,-3.554 -4.3264,-3.554 -3.747,0 -8.2243,3.16783 -8.2243,6.72183"
     id="path64"
     style="stroke-width:0.386175" />
  <path
     class="Note"
     d="m 982.96768,202.49609 c 0,1.65936 1.1947,3.5118 4.3263,3.5118 4.0126,0 8.2243,-3.2825 8.2243,-6.67964 0,-2.28084 -1.9308,-3.554 -4.3263,-3.554 -3.7472,0 -8.2243,3.16782 -8.2243,6.72184"
     id="path65"
     style="stroke-width:0.386175" />
  <path
     class="Note"
     d="m 843.39565,207.32329 c 0,1.65935 1.1947,3.51179 4.32633,3.51179 4.01261,0 8.22438,-3.2825 8.22438,-6.67963 0,-2.28086 -1.9309,-3.55401 -4.32642,-3.55401 -3.74706,0 -8.22429,3.16783 -8.22429,6.72185"
     id="path66"
     style="stroke-width:0.386175" />
  <path
     class="Note"
     d="m 913.17968,202.49609 c 0,1.65936 1.1947,3.5118 4.3264,3.5118 4.0126,0 8.2243,-3.2825 8.2243,-6.67964 0,-2.28084 -1.9309,-3.554 -4.3264,-3.554 -3.747,0 -8.2243,3.16782 -8.2243,6.72184"
     id="path67"
     style="stroke-width:0.386175" />
  <path
     class="Note"
     d="m 186.73946,212.15047 c 0,1.65935 1.19473,3.51179 4.32637,3.51179 4.01261,0 8.22432,-3.28249 8.22432,-6.67962 0,-2.28085 -1.93087,-3.55402 -4.32636,-3.55402 -3.7471,0 -8.22433,3.16784 -8.22433,6.72185"
     id="path68"
     style="stroke-width:0.386175" />
  <path
     class="Note"
     d="m 117.11348,424.54757 c 0,1.65935 1.19473,3.51177 4.32636,3.51177 4.01264,0 8.22434,-3.2825 8.22434,-6.6796 0,-2.28082 -1.93087,-3.554 -4.32636,-3.554 -3.7471,0 -8.22434,3.16783 -8.22434,6.72183"
     id="path69"
     style="stroke-width:0.386175" />
  <path
     class="Note"
     d="m 195.98859,429.37475 c 0,1.65939 1.19472,3.51182 4.32636,3.51182 4.01262,0 8.22433,-3.2825 8.22433,-6.67965 0,-2.28084 -1.93088,-3.554 -4.32636,-3.554 -3.74709,0 -8.22433,3.16782 -8.22433,6.72183"
     id="path70"
     style="stroke-width:0.386175" />
  <path
     class="Note"
     d="m 117.11348,661.07984 c 0,1.65934 1.19473,3.51182 4.32636,3.51182 4.01264,0 8.22434,-3.28249 8.22434,-6.67965 0,-2.28083 -1.93087,-3.554 -4.32636,-3.554 -3.7471,0 -8.22434,3.16782 -8.22434,6.72183"
     id="path71"
     style="stroke-width:0.386175" />
  <path
     class="Note"
     d="m 326.31257,202.49609 c 0,1.65936 1.19474,3.5118 4.32637,3.5118 4.01262,0 8.22433,-3.2825 8.22433,-6.67964 0,-2.28084 -1.93088,-3.554 -4.32637,-3.554 -3.74709,0 -8.22433,3.16782 -8.22433,6.72184"
     id="path72"
     style="stroke-width:0.386175" />
  <path
     class="Note"
     d="m 238.77617,665.90707 c 0,1.65933 1.19473,3.51176 4.32636,3.51176 4.01263,0 8.22433,-3.28249 8.22433,-6.67965 0,-2.28083 -1.93088,-3.554 -4.32636,-3.554 -3.7471,0 -8.22433,3.16783 -8.22433,6.72189"
     id="path73"
     style="stroke-width:0.386175" />
  <path
     class="Note"
     d="m 396.09815,202.49609 c 0,1.65936 1.19473,3.5118 4.32637,3.5118 4.01261,0 8.22433,-3.2825 8.22433,-6.67964 0,-2.28084 -1.93087,-3.554 -4.32637,-3.554 -3.74711,0 -8.22433,3.16782 -8.22433,6.72184"
     id="path74"
     style="stroke-width:0.386175" />
  <path
     class="Note"
     d="m 256.52621,207.32329 c 0,1.65935 1.19472,3.51179 4.32637,3.51179 4.01261,0 8.22432,-3.2825 8.22432,-6.67963 0,-2.28086 -1.93087,-3.55401 -4.32636,-3.55401 -3.74709,0 -8.22433,3.16783 -8.22433,6.72185"
     id="path75"
     style="stroke-width:0.386175" />
  <path
     class="Note"
     d="m 482.09997,675.56141 c 0,1.65933 1.19476,3.51176 4.3264,3.51176 4.0126,0 8.22432,-3.28244 8.22432,-6.67959 0,-2.28083 -1.93089,-3.554 -4.32639,-3.554 -3.74708,0 -8.22433,3.16783 -8.22433,6.72183"
     id="path76"
     style="stroke-width:0.386175" />
  <path
     class="Note"
     d="m 360.43886,661.07984 c 0,1.65934 1.19472,3.51182 4.32636,3.51182 4.01261,0 8.22433,-3.28249 8.22433,-6.67965 0,-2.28083 -1.93088,-3.554 -4.32637,-3.554 -3.74709,0 -8.22432,3.16782 -8.22432,6.72183"
     id="path77"
     style="stroke-width:0.386175" />
  <path
     class="Note"
     d="m 549.96094,192.84172 c 0,1.65934 1.19469,3.51179 4.32634,3.51179 4.01259,0 8.22433,-3.28249 8.22433,-6.67963 0,-2.28085 -1.93085,-3.55402 -4.32635,-3.55402 -3.74713,0 -8.22432,3.16784 -8.22432,6.72186"
     id="path78"
     style="stroke-width:0.386175" />
  <path
     class="Note"
     d="m 619.74882,202.49609 c 0,1.65936 1.19474,3.5118 4.32639,3.5118 4.01259,0 8.22433,-3.2825 8.22433,-6.67964 0,-2.28084 -1.93091,-3.554 -4.3264,-3.554 -3.74708,0 -8.22432,3.16782 -8.22432,6.72184"
     id="path79"
     style="stroke-width:0.386175" />
  <path
     class="Note"
     d="m 618.05152,675.56141 c 0,1.65933 1.19475,3.51176 4.32639,3.51176 4.0126,0 8.22433,-3.28244 8.22433,-6.67959 0,-2.28083 -1.9309,-3.554 -4.32639,-3.554 -3.74709,0 -8.22433,3.16783 -8.22433,6.72183"
     id="path80"
     style="stroke-width:0.386175" />
  <path
     class="Note"
     d="m 689.53286,202.49609 c 0,1.65936 1.19475,3.5118 4.32639,3.5118 4.0126,0 8.22434,-3.2825 8.22434,-6.67964 0,-2.28084 -1.93091,-3.554 -4.3264,-3.554 -3.74709,0 -8.22433,3.16782 -8.22433,6.72184"
     id="path81"
     style="stroke-width:0.386175" />
  <path
     class="Note"
     d="m 739.71618,680.38863 c 0,1.65935 1.19475,3.51177 4.32639,3.51177 4.0126,0 8.22428,-3.2825 8.22428,-6.67966 0,-2.28082 -1.93085,-3.554 -4.32635,-3.554 -3.74708,0 -8.22432,3.16784 -8.22432,6.72189"
     id="path82"
     style="stroke-width:0.386175" />
  <path
     class="Note"
     d="m 773.60774,212.15047 c 0,1.65935 1.19469,3.51179 4.32633,3.51179 4.0126,0 8.22434,-3.28249 8.22434,-6.67962 0,-2.28085 -1.93086,-3.55402 -4.32634,-3.55402 -3.74715,0 -8.22433,3.16784 -8.22433,6.72185"
     id="path83"
     style="stroke-width:0.386175" />
  <path
     class="Note"
     d="m 869.60119,678.49392 c -3.74706,0 -8.22429,3.13165 -8.22429,6.72189 0,1.65933 1.19478,3.51176 4.32641,3.51176 4.01261,0 8.22429,-3.28249 8.22429,-6.67959 0,-2.28089 -1.9309,-3.55406 -4.32641,-3.55406 m -5.32799,8.41741 c -1.27316,0 -1.54466,-1.03785 -1.54466,-1.38778 0,-1.89472 6.48651,-5.2134 8.30276,-5.2134 0.92923,0 1.54466,0.54307 1.54466,1.38784 0,1.93084 -6.52872,5.21334 -8.30276,5.21334"
     id="path84"
     style="stroke-width:0.386175" />
  <path
     class="Clef"
     d="m 92.980274,683.47799 c 0,-5.7926 -4.13328,-9.73282 -9.76903,-9.73282 -0.38618,-2.31701 -0.73614,-4.63409 -1.08006,-6.75802 4.05483,-4.29021 6.9089,-9.15356 6.9089,-15.25396 0,-3.554 -1.08009,-6.37185 -1.73779,-7.76556 -0.92319,-1.9672 -2.04553,-3.36131 -2.70323,-3.36131 -0.26549,0 -1.50244,0.50705 -2.73944,2.00972 -2.51014,2.93839 -3.20402,7.83798 -3.20402,11.08423 0,2.08775 0.19309,3.97641 0.85078,8.34499 -0.0422,0 -2.05155,2.04556 -2.86012,2.73949 -3.5178,3.24625 -8.3812,7.95276 -8.3812,15.64007 0,7.2589 6.29345,12.93683 13.47994,12.93683 1.11628,0 2.16015,-0.11464 3.0894,-0.2715 0.69388,3.71089 1.15853,6.41417 1.15853,8.45962 0,4.01865 -2.08778,6.14258 -5.94953,6.14258 -0.96544,0 -1.77398,-0.19312 -1.81622,-0.23533 -0.0724,0 -0.15084,-0.0359 -0.15084,-0.0727 0,-0.0788 0.0785,-0.12077 0.19308,-0.15694 1.81623,-0.2715 3.62642,-1.81625 3.62642,-4.28411 0,-2.08776 -1.58092,-4.29015 -4.47723,-4.29015 -2.66701,0 -4.4048,2.20239 -4.4048,4.74872 0,2.55238 1.93088,5.91329 7.14424,5.91329 4.98406,0 7.41576,-2.82387 7.41576,-7.76571 0,-1.50245 -0.22927,-3.24023 -0.61545,-5.44263 -0.11465,-0.77238 -0.30774,-1.97311 -0.57926,-3.43931 3.78329,-1.27325 6.60117,-5.17725 6.60117,-9.18984 m -11.893,-31.63014 c 0.38618,-1.54468 2.12397,-5.59956 4.1333,-5.59956 0.57927,0 1.54471,1.85248 1.54471,4.55566 0,3.97641 -3.01097,6.99339 -5.67801,9.6544 -0.22927,-1.54468 -0.42237,-3.08941 -0.42237,-4.67033 0,-1.46626 0.15085,-2.74542 0.42237,-3.94017 m 1.15853,39.93296 c -5.52108,0 -10.23364,-3.86176 -10.23364,-9.69665 0,-4.70652 3.36095,-8.91825 6.72187,-11.89299 0.65167,-0.54307 1.27318,-1.12232 1.85245,-1.65934 0.34392,2.08169 0.65769,3.86175 0.88697,5.4849 -3.51779,1.00161 -5.90725,4.74875 -5.90725,8.33894 0,2.74547 2.12396,6.45038 5.21336,6.45038 0.30771,0 0.65769,-0.1569 0.65769,-0.54307 0,-0.30775 -0.34998,-0.53702 -0.85077,-0.84477 -1.50852,-0.89305 -2.3593,-1.9309 -2.3593,-3.78938 0,-2.35326 1.78003,-4.24791 4.01862,-4.78493 l 2.23861,12.66533 c -0.77235,0.19311 -1.46626,0.27158 -2.23861,0.27158 m 3.86175,-0.7362 c -0.80854,-4.59182 -1.85241,-10.73446 -2.12396,-12.43603 3.89796,0 5.56334,2.70324 5.90727,4.56171 0.0422,0.3077 0.11465,0.73011 0.11465,1.19469 0,2.78167 -1.15852,5.59957 -3.89796,6.67963 m -1.50849,20.23794 c 0,-1.43002 -1.30936,-2.04545 -2.58254,-2.04545 -1.62313,0 -3.21009,1.00158 -3.21009,2.73944 0,0.73612 0.27153,1.27921 0.85079,1.81617 -1.00162,0.38623 -2.04553,1.15852 -2.04553,2.35926 0,1.27316 1.15853,2.12401 2.86013,2.12401 2.08172,0 3.54798,-1.15852 3.54798,-2.82387 0,-0.88702 -0.38617,-1.6171 -1.08009,-2.12402 1.12234,-0.50078 1.65935,-1.1163 1.65935,-2.04554 m -2.38945,1.54476 c -0.57927,-0.30776 -0.73616,-0.38624 -0.85078,-0.46462 l -0.0422,-0.0359 c -0.61548,-0.34997 -0.80857,-0.62156 -0.80857,-1.08005 0,-0.69994 0.54307,-1.20082 1.31542,-1.20082 0.77235,0 1.19472,0.46462 1.19472,1.27316 0,0.62157 -0.22928,1.04388 -0.80854,1.5085 m -1.47229,4.63417 c -0.84476,0 -1.42402,-0.53705 -1.42402,-1.35164 0,-0.73016 0.34392,-1.3878 1.00162,-1.77395 0.1569,0.0788 0.19309,0.11456 0.30774,0.15082 0.46461,0.23533 0.46461,0.23533 0.54308,0.31371 0.77235,0.4224 1.04387,0.80864 1.04387,1.35164 0,0.73016 -0.62151,1.30942 -1.47229,1.30942"
     id="path85"
     style="stroke-width:0.386175" />
  <path
     class="Clef"
     d="m 141.25215,210.41268 c 0,-5.79263 -4.13327,-9.73282 -9.76902,-9.73282 -0.38618,-2.31705 -0.73614,-4.6341 -1.08006,-6.75806 4.05484,-4.29017 6.90889,-9.15355 6.90889,-15.25392 0,-3.554 -1.08008,-6.37188 -1.73778,-7.76559 -0.92319,-1.96719 -2.04553,-3.36127 -2.70323,-3.36127 -0.26549,0 -1.50245,0.50705 -2.73944,2.00966 -2.51013,2.9384 -3.20402,7.838 -3.20402,11.08427 0,2.08777 0.19309,3.9764 0.85078,8.34501 -0.0422,0 -2.05155,2.04552 -2.86012,2.73944 -3.51779,3.24627 -8.3812,7.95278 -8.3812,15.64009 0,7.2589 6.29346,12.93687 13.47994,12.93687 1.11627,0 2.16015,-0.11465 3.0894,-0.27151 0.69389,3.71088 1.15852,6.4141 1.15852,8.45963 0,4.01865 -2.08777,6.14261 -5.94952,6.14261 -0.96544,0 -1.77397,-0.19309 -1.81622,-0.23533 -0.0724,0 -0.15084,-0.0362 -0.15084,-0.0724 0,-0.0785 0.0785,-0.12068 0.19309,-0.1569 1.81622,-0.27152 3.62641,-1.81622 3.62641,-4.28412 0,-2.08777 -1.58091,-4.29016 -4.47723,-4.29016 -2.66701,0 -4.4048,2.20239 -4.4048,4.74876 0,2.55238 1.93088,5.9133 7.14424,5.9133 4.98406,0 7.41576,-2.8239 7.41576,-7.76575 0,-1.50246 -0.22927,-3.24025 -0.61545,-5.44264 -0.11465,-0.77235 -0.30774,-1.97313 -0.57926,-3.43939 3.78329,-1.27317 6.60116,-5.17715 6.60116,-9.18976 m -11.89299,-31.63016 c 0.38618,-1.54471 2.12397,-5.59954 4.13331,-5.59954 0.57926,0 1.5447,1.85241 1.5447,4.55563 0,3.97641 -3.01097,6.9934 -5.67801,9.65438 -0.22927,-1.5447 -0.42236,-3.0894 -0.42236,-4.67029 0,-1.46626 0.15084,-2.74547 0.42236,-3.94018 m 1.15853,39.93291 c -5.52107,0 -10.23363,-3.86175 -10.23363,-9.69662 0,-4.70653 3.36094,-8.91823 6.72186,-11.89297 0.65167,-0.54308 1.27318,-1.12235 1.85245,-1.65936 0.34392,2.08172 0.65769,3.86175 0.88697,5.48489 -3.51779,1.00166 -5.90725,4.74876 -5.90725,8.33897 0,2.74547 2.12397,6.45034 5.21336,6.45034 0.30771,0 0.6577,-0.15687 0.6577,-0.54305 0,-0.30774 -0.34999,-0.53704 -0.85078,-0.84477 -1.50852,-0.89304 -2.3593,-1.93088 -2.3593,-3.78935 0,-2.35324 1.78003,-4.24794 4.01862,-4.78496 l 2.23861,12.66536 c -0.77235,0.19308 -1.46626,0.27152 -2.23861,0.27152 m 3.86175,-0.73613 c -0.80854,-4.59188 -1.85241,-10.73447 -2.12396,-12.43608 3.89796,0 5.56335,2.70324 5.90727,4.56171 0.0422,0.30773 0.11465,0.73012 0.11465,1.19473 0,2.78167 -1.15852,5.59955 -3.89796,6.67964 m -1.50849,20.23797 c 0,-1.43005 -1.30936,-2.0455 -2.58254,-2.0455 -1.62313,0 -3.21008,1.00162 -3.21008,2.73941 0,0.73617 0.27152,1.27921 0.85079,1.81622 -1.00163,0.38618 -2.04553,1.15853 -2.04553,2.3593 0,1.27318 1.15852,2.12396 2.86012,2.12396 2.08172,0 3.54798,-1.15852 3.54798,-2.8239 0,-0.88701 -0.38617,-1.61711 -1.08009,-2.12396 1.12234,-0.50083 1.65935,-1.11628 1.65935,-2.04553 m -2.38945,1.5447 c -0.57926,-0.30771 -0.73616,-0.38617 -0.85078,-0.46461 l -0.0422,-0.0362 c -0.61548,-0.34999 -0.80857,-0.62151 -0.80857,-1.0801 0,-0.69994 0.54307,-1.20077 1.31542,-1.20077 0.77235,0 1.19472,0.46462 1.19472,1.27318 0,0.62151 -0.22928,1.04388 -0.80854,1.50848 m -1.47228,4.63411 c -0.84477,0 -1.42404,-0.53702 -1.42404,-1.35162 0,-0.7301 0.34394,-1.3878 1.00164,-1.77397 0.15689,0.0785 0.19308,0.11465 0.30773,0.15084 0.46461,0.23533 0.46461,0.23533 0.54309,0.31377 0.77235,0.42239 1.04386,0.80857 1.04386,1.35161 0,0.7301 -0.62151,1.30937 -1.47228,1.30937"
     id="path86"
     style="stroke-width:0.386175" />
  <path
     class="Clef"
     d="m 92.980274,446.94572 c 0,-5.79259 -4.13328,-9.73282 -9.76903,-9.73282 -0.38618,-2.31701 -0.73614,-4.63408 -1.08006,-6.75807 4.05483,-4.29015 6.9089,-9.15351 6.9089,-15.25391 0,-3.554 -1.08009,-6.3719 -1.73779,-7.76555 -0.92319,-1.9672 -2.04553,-3.36132 -2.70323,-3.36132 -0.26549,0 -1.50244,0.50705 -2.73944,2.00966 -2.51014,2.93839 -3.20402,7.83799 -3.20402,11.0843 0,2.08775 0.19309,3.97641 0.85078,8.34498 -0.0422,0 -2.05155,2.04557 -2.86012,2.73943 -3.5178,3.24631 -8.3812,7.95283 -8.3812,15.64014 0,7.25884 6.29345,12.93683 13.47994,12.93683 1.11628,0 2.16015,-0.1146 3.0894,-0.2715 0.69388,3.71089 1.15853,6.41414 1.15853,8.45964 0,4.01865 -2.08778,6.14258 -5.94953,6.14258 -0.96544,0 -1.77398,-0.19309 -1.81622,-0.23532 -0.0724,0 -0.15084,-0.036 -0.15084,-0.0723 0,-0.0785 0.0785,-0.12072 0.19308,-0.1569 1.81623,-0.27157 3.62642,-1.81624 3.62642,-4.28417 0,-2.08773 -1.58092,-4.29015 -4.47723,-4.29015 -2.66701,0 -4.4048,2.20242 -4.4048,4.74875 0,2.55239 1.93088,5.91331 7.14424,5.91331 4.98406,0 7.41576,-2.8239 7.41576,-7.76573 0,-1.50244 -0.22927,-3.24026 -0.61545,-5.44267 -0.11465,-0.77234 -0.30774,-1.97308 -0.57926,-3.43939 3.78329,-1.27317 6.60117,-5.17716 6.60117,-9.18976 m -11.893,-31.63016 c 0.38618,-1.54472 2.12397,-5.59956 4.1333,-5.59956 0.57927,0 1.54471,1.85242 1.54471,4.55567 0,3.97641 -3.01097,6.99339 -5.67801,9.65439 -0.22927,-1.54473 -0.42237,-3.08941 -0.42237,-4.67032 0,-1.46626 0.15085,-2.74548 0.42237,-3.94018 m 1.15853,39.93294 c -5.52108,0 -10.23364,-3.86174 -10.23364,-9.69663 0,-4.70651 3.36095,-8.91824 6.72187,-11.89299 0.65167,-0.54306 1.27318,-1.12232 1.85245,-1.65934 0.34392,2.0817 0.65769,3.86175 0.88697,5.4849 -3.51779,1.00161 -5.90725,4.74875 -5.90725,8.33894 0,2.74547 2.12396,6.45032 5.21336,6.45032 0.30771,0 0.65769,-0.15684 0.65769,-0.54301 0,-0.30775 -0.34998,-0.53707 -0.85077,-0.84476 -1.50852,-0.89305 -2.3593,-1.93091 -2.3593,-3.78938 0,-2.35326 1.78003,-4.24792 4.01862,-4.78494 l 2.23861,12.66533 c -0.77235,0.19309 -1.46626,0.27156 -2.23861,0.27156 m 3.86175,-0.73615 c -0.80854,-4.5919 -1.85241,-10.73448 -2.12396,-12.43606 3.89796,0 5.56334,2.70324 5.90727,4.56172 0.0422,0.30769 0.11465,0.7301 0.11465,1.19469 0,2.78167 -1.15852,5.59957 -3.89796,6.67965 m -1.50849,20.23798 c 0,-1.43006 -1.30936,-2.0455 -2.58254,-2.0455 -1.62313,0 -3.21009,1.0016 -3.21009,2.73942 0,0.73615 0.27153,1.27922 0.85079,1.81624 -1.00162,0.38617 -2.04553,1.1585 -2.04553,2.35925 0,1.27317 1.15853,2.12398 2.86013,2.12398 2.08172,0 3.54798,-1.1585 3.54798,-2.8239 0,-0.887 -0.38617,-1.6171 -1.08009,-2.12398 1.12234,-0.50083 1.65935,-1.11627 1.65935,-2.04551 m -2.38945,1.54468 c -0.57927,-0.30769 -0.73616,-0.38618 -0.85078,-0.4646 l -0.0422,-0.036 c -0.61548,-0.34998 -0.80857,-0.62155 -0.80857,-1.08009 0,-0.69997 0.54307,-1.2008 1.31542,-1.2008 0.77235,0 1.19472,0.46464 1.19472,1.27317 0,0.62149 -0.22928,1.0439 -0.80854,1.50849 m -1.47229,4.63414 c -0.84476,0 -1.42402,-0.53702 -1.42402,-1.35164 0,-0.7301 0.34392,-1.38778 1.00162,-1.77401 0.1569,0.0785 0.19309,0.11466 0.30774,0.15091 0.46461,0.23532 0.46461,0.23532 0.54308,0.31374 0.77235,0.42236 1.04387,0.80853 1.04387,1.35159 0,0.73016 -0.62151,1.30941 -1.47229,1.30941"
     id="path87"
     style="stroke-width:0.386175" />
  <path
     class="TimeSig"
     d="m 158.39472,196.1242 v 2.85411 h -3.20406 c -0.27152,0 -0.54304,0.23529 -0.54304,0.54303 v 0.73617 c 0,0.3077 0.27152,0.53701 0.54304,0.53701 h 11.69991 c 0.31377,0 0.54305,-0.22931 0.54305,-0.53701 v -0.73617 c 0,-0.30774 -0.22928,-0.54303 -0.54305,-0.54303 h -3.43333 v -2.85411 h 3.43333 c 0.31377,0 0.54305,-0.27152 0.54305,-0.57926 v -0.73614 c 0,-0.27153 -0.22928,-0.53702 -0.54305,-0.53702 h -3.43333 v -6.14261 c 0,-0.22928 -0.11465,-0.42237 -0.30775,-0.50081 l -0.4646,-0.23533 c -0.0785,-0.0362 -0.19309,-0.0724 -0.27155,-0.0724 -0.11462,0.0362 -0.27153,0.0724 -0.34996,0.15086 l -3.51179,3.20405 c -0.11463,0.12068 -0.15687,0.27153 -0.15687,0.42841 v 3.16785 h -4.44103 c 0,0 4.29019,-4.63411 8.84582,-10.74052 0.1569,-0.19309 0.19309,-0.38618 0.19309,-0.53702 0,-0.19308 -0.0785,-0.34996 -0.11462,-0.38617 l -0.85082,-0.85079 c -0.0785,-0.0784 -0.22927,-0.1569 -0.38617,-0.1569 -0.22928,0 -5.44867,0 -5.71416,0 -0.31377,0 -0.50686,0.23534 -0.54308,0.46465 0,0 -0.19309,2.86009 -1.19473,5.98571 -1.00768,3.13164 -2.1662,5.06251 -3.16784,6.48653 0,0 -0.11465,0.19309 -0.11465,0.42841 0,0.0785 0,0.15087 0.0362,0.22931 0.15688,0.27151 0.38618,0.69391 0.38618,0.69391 0,0 0.0785,0.2353 0.42238,0.2353 h 6.64343"
     id="path88"
     style="stroke-width:0.386175" />
  <path
     class="TimeSig"
     d="m 158.39472,215.43296 v 2.8541 h -3.20406 c -0.27152,0 -0.54304,0.2353 -0.54304,0.54304 v 0.73616 c 0,0.30771 0.27152,0.53701 0.54304,0.53701 h 11.69991 c 0.31377,0 0.54305,-0.2293 0.54305,-0.53701 v -0.73616 c 0,-0.30774 -0.22928,-0.54304 -0.54305,-0.54304 h -3.43333 v -2.8541 h 3.43333 c 0.31377,0 0.54305,-0.27152 0.54305,-0.57926 v -0.73614 c 0,-0.27154 -0.22928,-0.53703 -0.54305,-0.53703 h -3.43333 v -6.14259 c 0,-0.2293 -0.11465,-0.42239 -0.30775,-0.50083 l -0.4646,-0.23532 c -0.0785,-0.0362 -0.19309,-0.0724 -0.27155,-0.0724 -0.11462,0.0362 -0.27153,0.0724 -0.34996,0.15087 l -3.51179,3.20404 c -0.11463,0.12068 -0.15687,0.27153 -0.15687,0.42841 v 3.16785 h -4.44103 c 0,0 4.29019,-4.6341 8.84582,-10.74052 0.1569,-0.19309 0.19309,-0.38617 0.19309,-0.53701 0,-0.19309 -0.0785,-0.34995 -0.11462,-0.38618 l -0.85082,-0.85078 c -0.0785,-0.0785 -0.22927,-0.15691 -0.38617,-0.15691 -0.22928,0 -5.44867,0 -5.71416,0 -0.31377,0 -0.50686,0.23534 -0.54308,0.46466 0,0 -0.19309,2.86008 -1.19473,5.9857 -1.00768,3.13164 -2.1662,5.06251 -3.16784,6.48653 0,0 -0.11465,0.19309 -0.11465,0.42842 0,0.0785 0,0.15086 0.0362,0.2293 0.15688,0.27152 0.38618,0.69391 0.38618,0.69391 0,0 0.0785,0.23531 0.42238,0.23531 h 6.64343"
     id="path89"
     style="stroke-width:0.386175" />
  <path
     class="Fingering"
     d="m 823.1876,401.76269 c -0.4671,0 -0.84083,0.37367 -0.84083,0.8447 0,0.4477 0.37373,0.83701 0.82918,0.83701 0.47881,0 0.85253,-0.37373 0.85253,-0.83701 0,-0.47103 -0.37372,-0.8447 -0.84088,-0.8447 m 0.28029,3.79941 -2.98581,0.23362 -0.0624,0.56447 h 0.36984 c 0.63844,0 0.88758,0.14012 0.88758,0.4788 0,0.15181 -0.0274,0.33092 -0.13625,0.68906 l -0.90703,3.03645 c -0.29199,0.98876 -0.34256,1.20679 -0.34256,1.56881 0,0.54502 0.47104,0.96549 1.05885,0.96549 1.33915,0 2.25788,-1.3859 2.91579,-2.39807 l -0.48662,-0.26471 c -0.80973,1.22626 -1.45987,1.88416 -1.88028,1.88416 -0.15958,0 -0.26859,-0.14012 -0.26859,-0.32698 0,-0.15182 0.0623,-0.43994 0.18686,-0.87199 l 1.65055,-5.55911"
     id="path90"
     style="stroke-width:0.389289" />
  <path
     class="Fingering"
     d="m 808.22335,432.1584 c 1.417,-0.5139 2.07102,-1.30804 2.07102,-2.55764 0,-1.62727 -1.24966,-2.67442 -3.17662,-2.67442 -1.82577,0 -3.20385,1.07443 -3.20385,2.49144 0,0.64232 0.41654,1.09002 1.02775,1.09002 0.54107,0 0.91868,-0.37762 0.91868,-0.93433 0,-0.34256 -0.12842,-0.545 -0.48656,-0.79414 -0.15188,-0.10901 -0.20245,-0.17516 -0.20245,-0.27635 0,-0.43993 0.89927,-0.90709 1.78685,-0.90709 1.125,0 1.71676,0.69683 1.71676,2.02434 0,1.44816 -0.59176,2.20725 -1.6973,2.20725 -0.14018,0 -0.40877,-0.012 -0.63844,-0.0313 -0.12847,-0.0114 -0.24913,-0.0114 -0.33869,-0.0114 -0.33091,0 -0.50219,0.14012 -0.50219,0.42041 0,0.26083 0.15182,0.38931 0.50219,0.38931 0.0896,0 0.21022,0 0.35034,-0.0195 0.31533,-0.012 0.56446,-0.012 0.73575,-0.012 1.15234,0 1.7752,0.82143 1.7752,2.36691 0,1.61944 -0.77862,2.51871 -2.18004,2.51871 -0.981,0 -2.03985,-0.52949 -2.03985,-1.00828 0,-0.14012 0.0308,-0.17129 0.32698,-0.34257 0.43211,-0.26859 0.6034,-0.52942 0.6034,-0.91874 0,-0.56447 -0.42042,-0.98488 -0.97713,-0.98488 -0.66954,0 -1.10166,0.54888 -1.10166,1.3742 0,1.51043 1.37808,2.54982 3.37512,2.54982 2.25789,0 3.72163,-1.24184 3.72163,-3.15716 0,-1.46757 -0.74745,-2.3552 -2.36689,-2.80284"
     id="path91"
     style="stroke-width:0.389289" />
  <path
     class="Fingering"
     d="m 990.02548,165.22884 c -0.4672,0 -0.837,0.37722 -0.837,0.84553 0,0.45002 0.3698,0.83931 0.8252,0.83931 0.4828,0 0.8525,-0.37722 0.8525,-0.83931 0,-0.46831 -0.3697,-0.84553 -0.8407,-0.84553 m 0.2802,3.8018 -2.9858,0.23084 -0.062,0.56564 h 0.3737 c 0.6384,0 0.8876,0.14014 0.8876,0.48077 0,0.15182 -0.032,0.32856 -0.1401,0.6871 l -0.9071,3.03529 c -0.2919,0.99152 -0.3387,1.21069 -0.3387,1.56961 0,0.54735 0.4672,0.967 1.055,0.967 1.3391,0 2.2578,-1.38704 2.9157,-2.39647 l -0.4866,-0.26783 c -0.8097,1.2286 -1.4598,1.88572 -1.8802,1.88572 -0.1596,0 -0.2686,-0.13976 -0.2686,-0.32856 0,-0.15183 0.062,-0.43795 0.1907,-0.86967 l 1.6467,-5.55944"
     id="path92"
     style="stroke-width:0.389289" />
  <path
     class="Fingering"
     d="m 120.35198,405.37136 -2.83441,0.23361 -0.0487,0.56447 h 0.37684 c 0.62052,0 0.87006,0.14012 0.87006,0.49438 0,0.14012 -0.0487,0.37373 -0.12768,0.67349 l -1.58752,5.35271 h 1.35628 l 0.63882,-2.19561 c 0.69916,-2.3863 2.11657,-4.18485 3.28443,-4.18485 0.40759,0 0.65712,0.21409 0.65712,0.60339 0,0.31535 -0.12807,0.96543 -0.31649,1.55718 l -1.24066,4.21989 h 1.35005 l 0.66919,-2.25788 c 0.38929,-1.29246 0.77858,-2.16445 1.27726,-2.83406 0.5598,-0.77856 1.35668,-1.28852 1.94645,-1.28852 0.38928,0 0.60846,0.20245 0.60846,0.57223 0,0.21803 -0.079,0.56059 -0.21918,0.99659 l -0.71745,2.21508 c -0.42005,1.21067 -0.43212,1.30798 -0.43212,1.7401 0,0.65402 0.48078,1.08613 1.21069,1.08613 0.51698,0 1.01567,-0.24913 1.54471,-0.73963 0.32856,-0.31534 0.54149,-0.59563 1.18032,-1.52602 l -0.48077,-0.33091 c -0.80894,1.21849 -1.38665,1.8063 -1.7884,1.8063 -0.17012,0 -0.32817,-0.1674 -0.32817,-0.3893 0,-0.14012 0.0487,-0.30753 0.18841,-0.76686 l 0.97946,-3.01704 c 0.10939,-0.33868 0.18841,-0.82524 0.18841,-1.16787 0,-0.82525 -0.60807,-1.417 -1.44776,-1.417 -1.10675,0 -2.1045,0.72017 -3.00454,2.19562 0.0607,-0.29588 0.0911,-0.55671 0.0911,-0.74746 0,-0.8253 -0.65712,-1.44816 -1.5085,-1.44816 -0.9853,0 -1.69692,0.54889 -2.79199,2.10607 l 0.45625,-2.10607"
     id="path93"
     style="stroke-width:0.389289" />
  <path
     class="Fingering"
     d="m 898.24262,405.5621 -2.83404,0.23362 -0.0508,0.56447 h 0.37756 c 0.62287,0 0.87204,0.14012 0.87204,0.49049 0,0.14012 -0.0508,0.37762 -0.12848,0.67737 l -1.58828,5.35272 h 1.35864 l 0.63838,-2.19562 c 0.69688,-2.3863 2.11385,-4.18484 3.28175,-4.18484 0.40874,0 0.6579,0.2102 0.6579,0.59951 0,0.31922 -0.12848,0.96931 -0.31537,1.55718 l -1.24182,4.22377 h 1.35085 l 0.66956,-2.25789 c 0.3893,-1.29634 0.77857,-2.16445 1.27697,-2.83399 0.5605,-0.77862 1.3547,-1.28858 1.9464,-1.28858 0.3893,0 0.6073,0.19856 0.6073,0.57229 0,0.21797 -0.078,0.55664 -0.218,0.99653 l -0.7163,2.21507 c -0.4204,1.21067 -0.4321,1.30805 -0.4321,1.7401 0,0.65403 0.4788,1.08614 1.2106,1.08614 0.5139,0 1.0161,-0.24914 1.5416,-0.73963 0.3309,-0.31923 0.5451,-0.59952 1.1835,-1.52989 l -0.4827,-0.32705 c -0.8098,1.2185 -1.3859,1.80631 -1.7869,1.80631 -0.1713,0 -0.3308,-0.17129 -0.3308,-0.38925 0,-0.14018 0.051,-0.31146 0.1907,-0.76692 l 0.9772,-3.01698 c 0.1128,-0.33868 0.1906,-0.8253 0.1906,-1.16787 0,-0.8253 -0.6073,-1.41706 -1.4481,-1.41706 -1.1056,0 -2.1061,0.72024 -3.0054,2.19562 0.062,-0.29587 0.094,-0.56058 0.094,-0.74745 0,-0.82531 -0.65794,-1.44817 -1.51045,-1.44817 -0.98485,0 -1.69732,0.54889 -2.79121,2.10607 l 0.45551,-2.10607"
     id="path94"
     style="stroke-width:0.389289" />
  <path
     class="Fingering"
     d="m 203.04718,401.76269 c -0.46871,0 -0.8397,0.37367 -0.8397,0.8447 0,0.4477 0.37099,0.83701 0.82725,0.83701 0.48077,0 0.85177,-0.37373 0.85177,-0.83701 0,-0.47103 -0.371,-0.8447 -0.83932,-0.8447 m 0.27952,3.79941 -2.98664,0.23362 -0.0607,0.56447 h 0.37099 c 0.63883,0 0.88836,0.14012 0.88836,0.4788 0,0.15181 -0.0307,0.33092 -0.14014,0.68906 l -0.90627,3.03645 c -0.29196,0.98876 -0.34062,1.20679 -0.34062,1.56881 0,0.54502 0.46831,0.96549 1.05847,0.96549 1.33799,0 2.25671,-1.3859 2.91344,-2.39807 l -0.48661,-0.26471 c -0.80894,1.22626 -1.45984,1.88416 -1.87949,1.88416 -0.15805,0 -0.26744,-0.14012 -0.26744,-0.32698 0,-0.15182 0.0607,-0.43994 0.18842,-0.87199 l 1.64825,-5.55911"
     id="path95"
     style="stroke-width:0.389289" />
  <path
     class="Fingering"
     d="m 186.85274,431.1229 c 1.41701,-0.50997 2.06791,-1.30417 2.06791,-2.55377 0,-1.63114 -1.2469,-2.67441 -3.17504,-2.67441 -1.825,0 -3.20581,1.07443 -3.20581,2.49143 0,0.63844 0.42005,1.09001 1.02812,1.09001 0.5415,0 0.91833,-0.3776 0.91833,-0.93819 0,-0.33868 -0.12769,-0.54107 -0.4866,-0.79026 -0.15183,-0.10896 -0.20049,-0.17516 -0.20049,-0.28024 0,-0.43605 0.90003,-0.90315 1.78839,-0.90315 1.12505,0 1.71521,0.69683 1.71521,2.02427 0,1.44816 -0.59016,2.20726 -1.6973,2.20726 -0.13975,0 -0.4072,-0.0114 -0.63844,-0.0308 -0.12768,-0.012 -0.24953,-0.012 -0.34063,-0.012 -0.32856,0 -0.49867,0.14012 -0.49867,0.42041 0,0.26083 0.15182,0.38932 0.49867,0.38932 0.0911,0 0.21295,0 0.3527,-0.0195 0.31649,-0.012 0.56564,-0.012 0.73615,-0.012 1.14957,0 1.77593,0.82143 1.77593,2.36691 0,1.61944 -0.77857,2.51871 -2.18352,2.51871 -0.97945,0 -2.03793,-0.52943 -2.03793,-1.01216 0,-0.13625 0.0307,-0.16741 0.32857,-0.33869 0.43211,-0.26859 0.60222,-0.52943 0.60222,-0.91873 0,-0.56447 -0.41965,-0.98488 -0.97945,-0.98488 -0.6688,0 -1.10091,0.54888 -1.10091,1.37418 0,1.51043 1.38081,2.54983 3.37591,2.54983 2.25672,0 3.72278,-1.24184 3.72278,-3.1571 0,-1.46762 -0.74821,-2.3552 -2.3661,-2.80678"
     id="path96"
     style="stroke-width:0.389289" />
  <path
     class="Fingering"
     d="m 278.10219,405.5621 -2.83442,0.23362 -0.0487,0.56447 h 0.37722 c 0.62013,0 0.86967,0.14012 0.86967,0.49049 0,0.14012 -0.0487,0.37762 -0.12769,0.67737 l -1.58753,5.35272 h 1.35629 l 0.63883,-2.19562 c 0.69955,-2.3863 2.11656,-4.18484 3.28443,-4.18484 0.40758,0 0.65712,0.2102 0.65712,0.59951 0,0.31922 -0.12768,0.96931 -0.31649,1.55718 l -1.24066,4.22377 h 1.35044 l 0.6688,-2.25789 c 0.38928,-1.29634 0.77858,-2.16445 1.27764,-2.83399 0.55942,-0.77862 1.35629,-1.28858 1.94646,-1.28858 0.38928,0 0.60806,0.19856 0.60806,0.57229 0,0.21797 -0.079,0.55664 -0.21878,0.99653 l -0.71784,2.21507 c -0.41966,1.21067 -0.43212,1.30805 -0.43212,1.7401 0,0.65403 0.48078,1.08614 1.21069,1.08614 0.51698,0 1.01565,-0.24914 1.5451,-0.73963 0.32816,-0.31923 0.54111,-0.59952 1.17992,-1.52989 l -0.48076,-0.32705 c -0.80895,1.2185 -1.38666,1.80631 -1.78801,1.80631 -0.17051,0 -0.32856,-0.17129 -0.32856,-0.38925 0,-0.14018 0.0487,-0.31146 0.18841,-0.76692 l 0.97945,-3.01698 c 0.10939,-0.33868 0.18842,-0.8253 0.18842,-1.16787 0,-0.8253 -0.60807,-1.41706 -1.44738,-1.41706 -1.10713,0 -2.10488,0.72024 -3.00492,2.19562 0.0607,-0.29587 0.0911,-0.56058 0.0911,-0.74745 0,-0.82531 -0.65673,-1.44817 -1.5085,-1.44817 -0.98529,0 -1.69691,0.54889 -2.79198,2.10607 l 0.45625,-2.10607"
     id="path97"
     style="stroke-width:0.389289" />
  <path
     class="Fingering"
     d="m 189.97796,167.08419 -2.83442,0.23084 -0.0487,0.56564 h 0.37723 c 0.62052,0 0.86967,0.14015 0.86967,0.49284 0,0.13976 -0.0487,0.37722 -0.12768,0.67503 l -1.58753,5.35273 h 1.35629 l 0.63882,-2.19559 c 0.69956,-2.3844 2.11696,-4.18486 3.28482,-4.18486 0.4072,0 0.65674,0.21294 0.65674,0.60223 0,0.3161 -0.12769,0.96699 -0.31611,1.55715 l -1.24105,4.22107 h 1.35044 l 0.66921,-2.25631 c 0.38928,-1.29595 0.77857,-2.16563 1.27725,-2.83482 0.55941,-0.77857 1.35629,-1.28932 1.94644,-1.28932 0.38929,0 0.60808,0.20048 0.60808,0.57186 0,0.21879 -0.079,0.55941 -0.21879,0.99736 l -0.71785,2.21428 c -0.41965,1.2103 -0.43171,1.30763 -0.43171,1.73935 0,0.65712 0.48038,1.08884 1.21029,1.08884 0.51698,0 1.01567,-0.24915 1.5451,-0.74199 0.32856,-0.31649 0.54111,-0.596 1.17993,-1.52679 l -0.48038,-0.32857 c -0.80894,1.21654 -1.38704,1.8067 -1.7884,1.8067 -0.17051,0 -0.32856,-0.17051 -0.32856,-0.38929 0,-0.13975 0.0487,-0.31026 0.1888,-0.7665 l 0.97907,-3.017 c 0.10939,-0.34063 0.18881,-0.82724 0.18881,-1.16787 0,-0.82723 -0.60846,-1.41701 -1.44777,-1.41701 -1.10714,0 -2.1045,0.71746 -3.00493,2.19559 0.0607,-0.29781 0.0911,-0.55941 0.0911,-0.74821 0,-0.82724 -0.65673,-1.44738 -1.5085,-1.44738 -0.98529,0 -1.69691,0.54733 -2.79159,2.1045 l 0.45585,-2.1045"
     id="path98"
     style="stroke-width:0.389289" />
  <path
     class="Fingering"
     d="m 263.58442,165.22884 c -0.46831,0 -0.83931,0.37722 -0.83931,0.84553 0,0.45002 0.371,0.83931 0.82724,0.83931 0.48038,0 0.85177,-0.37722 0.85177,-0.83931 0,-0.46831 -0.37139,-0.84553 -0.8397,-0.84553 m 0.2799,3.8018 -2.98664,0.23084 -0.0607,0.56564 h 0.37099 c 0.63883,0 0.88798,0.14014 0.88798,0.48077 0,0.15182 -0.0304,0.32856 -0.13976,0.6871 l -0.90626,3.03529 c -0.29197,0.99152 -0.34063,1.21069 -0.34063,1.56961 0,0.54735 0.46831,0.967 1.05847,0.967 1.338,0 2.25633,-1.38704 2.91345,-2.39647 l -0.48661,-0.26783 c -0.80895,1.2286 -1.45984,1.88572 -1.8795,1.88572 -0.15805,0 -0.26782,-0.13976 -0.26782,-0.32856 0,-0.15183 0.0611,-0.43795 0.1888,-0.86967 l 1.64825,-5.55944"
     id="path99"
     style="stroke-width:0.389289" />
  <path
     class="Fingering"
     d="m 410.7043,405.37136 -2.83403,0.23361 -0.0506,0.56447 h 0.37761 c 0.61896,0 0.86811,0.14012 0.86811,0.49438 0,0.14012 -0.0467,0.37373 -0.12457,0.67349 l -1.5883,5.35271 h 1.35472 l 0.63845,-2.19561 c 0.70071,-2.3863 2.11772,-4.18485 3.28559,-4.18485 0.40876,0 0.65791,0.21409 0.65791,0.60339 0,0.31535 -0.12848,0.96543 -0.31533,1.55718 l -1.24184,4.21989 h 1.35084 l 0.66958,-2.25788 c 0.38929,-1.29246 0.77857,-2.16445 1.27687,-2.83406 0.55668,-0.77856 1.35472,-1.28852 1.94644,-1.28852 0.3893,0 0.60729,0.20245 0.60729,0.57223 0,0.21803 -0.0779,0.56059 -0.21799,0.99659 l -0.72019,2.21508 c -0.41654,1.21067 -0.43212,1.30798 -0.43212,1.7401 0,0.65402 0.48272,1.08613 1.2107,1.08613 0.51775,0 1.01604,-0.24913 1.54548,-0.73963 0.33089,-0.31534 0.54111,-0.59563 1.17955,-1.52602 l -0.47883,-0.33091 c -0.80973,1.21849 -1.38587,1.8063 -1.78684,1.8063 -0.17129,0 -0.3309,-0.1674 -0.3309,-0.3893 0,-0.14012 0.0506,-0.30753 0.19075,-0.76686 l 0.97712,-3.01704 c 0.109,-0.33868 0.19076,-0.82524 0.19076,-1.16787 0,-0.82525 -0.6112,-1.417 -1.44816,-1.417 -1.10948,0 -2.10606,0.72017 -3.00532,2.19562 0.0584,-0.29588 0.0895,-0.55671 0.0895,-0.74746 0,-0.8253 -0.65401,-1.44816 -1.50655,-1.44816 -0.9849,0 -1.69731,0.54889 -2.79121,2.10607 l 0.45547,-2.10607"
     id="path100"
     style="stroke-width:0.389289" />
  <path
     class="Fingering"
     d="m 251.38876,207.78674 h -0.68748 l -0.15806,0.79687 c -0.20088,1.00943 -0.32232,1.10092 -1.28972,1.10092 h -3.48531 c 1.07056,-1.11922 1.42947,-1.44778 2.42723,-2.22635 1.41701,-1.08885 2.02548,-1.62996 2.37816,-2.09866 0.49869,-0.6871 0.74822,-1.36836 0.74822,-2.13487 0,-1.77594 -1.45984,-3.03528 -3.5036,-3.03528 -1.97682,0 -3.48531,1.25934 -3.48531,2.92589 0,0.98529 0.49868,1.65449 1.22859,1.65449 0.5777,0 0.967,-0.3893 0.967,-0.95493 0,-0.38929 -0.21878,-0.74238 -0.54734,-0.88214 -0.57187,-0.23708 -0.60224,-0.26744 -0.60224,-0.46831 0,-0.23707 0.15222,-0.59601 0.371,-0.85761 0.38928,-0.48077 1.02811,-0.74821 1.75803,-0.74821 1.29555,0 2.05584,0.79688 2.05584,2.1045 0,1.14958 -0.54111,2.19598 -1.83706,3.56433 -1.14957,1.2107 -1.86703,1.9772 -2.13486,2.27501 -0.55942,0.6509 -0.83931,1.00981 -1.52057,1.90986 v 0.43794 h 7.01928 l 0.2982,-3.36345"
     id="path101"
     style="stroke-width:0.389289" />
  <path
     class="Fingering"
     d="m 329.55108,169.03064 -2.83442,0.23084 -0.0487,0.56564 h 0.37722 c 0.62014,0 0.86967,0.14014 0.86967,0.49284 0,0.13975 -0.0487,0.37722 -0.12769,0.67503 l -1.58753,5.35273 h 1.35629 l 0.63883,-2.19559 c 0.69955,-2.3844 2.11656,-4.18487 3.28443,-4.18487 0.40758,0 0.65713,0.21294 0.65713,0.60224 0,0.3161 -0.12769,0.967 -0.3165,1.55715 l -1.24066,4.22107 h 1.35044 l 0.6688,-2.25632 c 0.38929,-1.29595 0.77857,-2.16562 1.27764,-2.8348 0.55942,-0.77858 1.35629,-1.28934 1.94646,-1.28934 0.38928,0 0.60806,0.20049 0.60806,0.57187 0,0.21878 -0.079,0.55941 -0.21878,0.99737 l -0.71784,2.21427 c -0.41966,1.2103 -0.43212,1.30763 -0.43212,1.73934 0,0.65713 0.48078,1.08884 1.21069,1.08884 0.51698,0 1.01565,-0.24914 1.54509,-0.74198 0.32817,-0.3165 0.54112,-0.596 1.17994,-1.52679 l -0.48077,-0.32856 c -0.80894,1.21653 -1.38666,1.80669 -1.78801,1.80669 -0.17051,0 -0.32856,-0.17051 -0.32856,-0.38928 0,-0.13977 0.0487,-0.31028 0.18842,-0.76652 l 0.97945,-3.01699 c 0.10939,-0.34063 0.18841,-0.82725 0.18841,-1.16787 0,-0.82724 -0.60807,-1.41701 -1.44738,-1.41701 -1.10713,0 -2.10488,0.71745 -3.00492,2.19559 0.0607,-0.29781 0.0911,-0.55941 0.0911,-0.74821 0,-0.82725 -0.65674,-1.44738 -1.50851,-1.44738 -0.98528,0 -1.6969,0.54734 -2.79197,2.10449 l 0.45624,-2.10449"
     id="path102"
     style="stroke-width:0.389289" />
  <path
     class="Fingering"
     d="m 493.39716,401.76269 c -0.46716,0 -0.83695,0.37367 -0.83695,0.8447 0,0.4477 0.36979,0.83701 0.82524,0.83701 0.48275,0 0.8526,-0.37373 0.8526,-0.83701 0,-0.47103 -0.36985,-0.8447 -0.84089,-0.8447 m 0.2803,3.79941 -2.98588,0.23362 -0.0623,0.56447 h 0.37372 c 0.63845,0 0.88757,0.14012 0.88757,0.4788 0,0.15181 -0.0313,0.33092 -0.14011,0.68906 l -0.90709,3.03645 c -0.29194,0.98876 -0.33868,1.20679 -0.33868,1.56881 0,0.54502 0.46715,0.96549 1.05497,0.96549 1.33921,0 2.25788,-1.3859 2.91579,-2.39807 l -0.48663,-0.26471 c -0.80972,1.22626 -1.4598,1.88416 -1.88021,1.88416 -0.15964,0 -0.26866,-0.14012 -0.26866,-0.32698 0,-0.15182 0.0624,-0.43994 0.19081,-0.87199 l 1.64667,-5.55911"
     id="path103"
     style="stroke-width:0.389289" />
  <path
     class="Fingering"
     d="m 480.49999,432.1584 c 1.417,-0.5139 2.06714,-1.30804 2.06714,-2.55764 0,-1.62727 -1.24572,-2.67442 -3.17268,-2.67442 -1.82577,0 -3.20778,1.07443 -3.20778,2.49144 0,0.64232 0.42041,1.09002 1.02775,1.09002 0.54107,0 0.91873,-0.37762 0.91873,-0.93433 0,-0.34256 -0.12848,-0.545 -0.48662,-0.79414 -0.15182,-0.10901 -0.19857,-0.17516 -0.19857,-0.27635 0,-0.43993 0.89927,-0.90709 1.78685,-0.90709 1.12506,0 1.71676,0.69683 1.71676,2.02434 0,1.44816 -0.5917,2.20725 -1.69729,2.20725 -0.14013,0 -0.40878,-0.012 -0.63844,-0.0313 -0.12848,-0.0114 -0.25302,-0.0114 -0.34257,-0.0114 -0.32698,0 -0.49826,0.14012 -0.49826,0.42041 0,0.26083 0.15182,0.38931 0.49826,0.38931 0.0896,0 0.21409,0 0.35427,-0.0195 0.31533,-0.012 0.56447,-0.012 0.73575,-0.012 1.1484,0 1.77514,0.82143 1.77514,2.36691 0,1.61944 -0.77856,2.51871 -2.18392,2.51871 -0.981,0 -2.03597,-0.52949 -2.03597,-1.00828 0,-0.14012 0.0274,-0.17129 0.32698,-0.34257 0.43211,-0.26859 0.6034,-0.52942 0.6034,-0.91874 0,-0.56447 -0.42042,-0.98488 -0.98101,-0.98488 -0.66954,0 -1.10166,0.54888 -1.10166,1.3742 0,1.51043 1.38196,2.54982 3.37513,2.54982 2.25788,0 3.72551,-1.24184 3.72551,-3.15716 0,-1.46757 -0.74746,-2.3552 -2.3669,-2.80284"
     id="path104"
     style="stroke-width:0.389289" />
  <path
     class="Fingering"
     d="m 120.35198,641.90363 -2.83441,0.23361 -0.0487,0.56447 h 0.37684 c 0.62052,0 0.87006,0.14012 0.87006,0.49438 0,0.14011 -0.0487,0.37373 -0.12768,0.67348 l -1.58752,5.35272 h 1.35628 l 0.63882,-2.19562 c 0.69916,-2.3863 2.11657,-4.18484 3.28443,-4.18484 0.40759,0 0.65712,0.21414 0.65712,0.6034 0,0.31533 -0.12807,0.96542 -0.31649,1.55717 l -1.24066,4.21989 h 1.35005 l 0.66919,-2.25789 c 0.38929,-1.29245 0.77858,-2.16445 1.27726,-2.83399 0.5598,-0.77862 1.35668,-1.28858 1.94645,-1.28858 0.38928,0 0.60846,0.20244 0.60846,0.57229 0,0.21797 -0.079,0.56053 -0.21918,0.99653 l -0.71745,2.21507 c -0.42005,1.21067 -0.43212,1.30805 -0.43212,1.74016 0,0.65396 0.48078,1.08608 1.21069,1.08608 0.51698,0 1.01567,-0.24914 1.54471,-0.73963 0.32856,-0.31535 0.54149,-0.59564 1.18032,-1.52601 l -0.48077,-0.33093 c -0.80894,1.2185 -1.38665,1.80631 -1.7884,1.80631 -0.17012,0 -0.32817,-0.1674 -0.32817,-0.38925 0,-0.14018 0.0487,-0.30757 0.18841,-0.76692 l 0.97946,-3.01698 c 0.10939,-0.33868 0.18841,-0.8253 0.18841,-1.16786 0,-0.82531 -0.60807,-1.41706 -1.44776,-1.41706 -1.10675,0 -2.1045,0.72023 -3.00454,2.19562 0.0607,-0.29588 0.0911,-0.55671 0.0911,-0.74746 0,-0.82531 -0.65712,-1.44816 -1.5085,-1.44816 -0.9853,0 -1.69692,0.54894 -2.79199,2.10606 l 0.45625,-2.10606"
     id="path105"
     style="stroke-width:0.389289" />
  <path
     class="Fingering"
     d="m 403.15598,165.22884 c -0.46715,0 -0.83698,0.37722 -0.83698,0.84553 0,0.45002 0.36983,0.83931 0.8253,0.83931 0.48272,0 0.85254,-0.37722 0.85254,-0.83931 0,-0.46831 -0.36982,-0.84553 -0.84086,-0.84553 m 0.28028,3.8018 -2.98585,0.23084 -0.0623,0.56564 h 0.37372 c 0.63844,0 0.88759,0.14014 0.88759,0.48077 0,0.15182 -0.0312,0.32856 -0.14015,0.6871 l -0.90704,3.03529 c -0.29197,0.99152 -0.33869,1.21069 -0.33869,1.56961 0,0.54735 0.46715,0.967 1.05887,0.967 1.33526,0 2.25399,-1.38704 2.91188,-2.39647 l -0.48661,-0.26783 c -0.80972,1.2286 -1.45983,1.88572 -1.88027,1.88572 -0.15571,0 -0.26861,-0.13976 -0.26861,-0.32856 0,-0.15183 0.0623,-0.43795 0.19075,-0.86967 l 1.6467,-5.55944"
     id="path106"
     style="stroke-width:0.389289" />
  <path
     class="Fingering"
     d="m 483.4119,168.84027 -2.83406,0.23124 -0.0468,0.56564 h 0.37373 c 0.62286,0 0.87199,0.14014 0.87199,0.49284 0,0.13975 -0.0508,0.37722 -0.12847,0.67502 l -1.58828,5.35274 h 1.35861 l 0.63844,-2.19559 c 0.69682,-2.3844 2.1177,-4.18487 3.28558,-4.18487 0.40488,0 0.65402,0.21255 0.65402,0.60184 0,0.31649 -0.12848,0.96739 -0.31535,1.55716 l -1.24183,4.22146 h 1.35085 l 0.6696,-2.25672 c 0.38926,-1.29556 0.77856,-2.16523 1.27683,-2.83441 0.56059,-0.77858 1.35867,-1.28933 1.94648,-1.28933 0.38931,0 0.60727,0.20048 0.60727,0.57148 0,0.21917 -0.0779,0.5598 -0.21796,0.99775 l -0.71635,2.21388 c -0.42041,1.2107 -0.43205,1.30802 -0.43205,1.73974 0,0.65712 0.47879,1.08884 1.21066,1.08884 0.51774,0 1.01606,-0.24953 1.54548,-0.74199 0.32699,-0.31649 0.54113,-0.59638 1.17957,-1.52679 l -0.48274,-0.32856 c -0.80584,1.21653 -1.3859,1.80669 -1.78684,1.80669 -0.17128,0 -0.32699,-0.1705 -0.32699,-0.38928 0,-0.14015 0.0468,-0.31027 0.18687,-0.76651 l 0.981,-3.01699 c 0.10896,-0.34063 0.18686,-0.82725 0.18686,-1.16788 0,-0.82723 -0.60733,-1.4174 -1.44816,-1.4174 -1.1056,0 -2.10219,0.71785 -3.00534,2.19598 0.0623,-0.29819 0.0934,-0.55979 0.0934,-0.74821 0,-0.82724 -0.6579,-1.44777 -1.51043,-1.44777 -0.98488,0 -1.69729,0.54773 -2.79119,2.10489 l 0.45546,-2.10489"
     id="path107"
     style="stroke-width:0.389289" />
  <path
     class="Fingering"
     d="m 245.83476,638.29495 c -0.4687,0 -0.83969,0.37372 -0.83969,0.84477 0,0.44763 0.37099,0.83694 0.82724,0.83694 0.48076,0 0.85176,-0.37372 0.85176,-0.83694 0,-0.47105 -0.371,-0.84477 -0.83931,-0.84477 m 0.27952,3.79942 -2.98664,0.23361 -0.0607,0.56447 h 0.37099 c 0.63883,0 0.88836,0.14012 0.88836,0.4788 0,0.15182 -0.0307,0.33092 -0.14014,0.68907 l -0.90627,3.03644 c -0.29196,0.98883 -0.34062,1.20679 -0.34062,1.56882 0,0.54501 0.46831,0.96548 1.05847,0.96548 1.33799,0 2.25671,-1.38589 2.91344,-2.39806 l -0.4866,-0.26472 c -0.80895,1.22626 -1.45985,1.88417 -1.87949,1.88417 -0.15806,0 -0.26745,-0.14012 -0.26745,-0.32699 0,-0.15182 0.0607,-0.43987 0.18842,-0.87199 l 1.64825,-5.5591"
     id="path108"
     style="stroke-width:0.389289" />
  <path
     class="Fingering"
     d="m 231.5712,670.68772 c 1.41701,-0.51385 2.0679,-1.30805 2.0679,-2.55764 0,-1.62721 -1.24689,-2.67442 -3.17504,-2.67442 -1.825,0 -3.2058,1.07831 -3.2058,2.49531 0,0.63845 0.42004,1.08614 1.02812,1.08614 0.5415,0 0.91833,-0.37761 0.91833,-0.93425 0,-0.34263 -0.12769,-0.54113 -0.48661,-0.79026 -0.15182,-0.11291 -0.20048,-0.17911 -0.20048,-0.2803 0,-0.43994 0.90003,-0.90704 1.78839,-0.90704 1.12505,0 1.7152,0.70071 1.7152,2.02428 0,1.44817 -0.59015,2.20726 -1.6973,2.20726 -0.13975,0 -0.40719,-0.0114 -0.63843,-0.0274 -0.12769,-0.0154 -0.24953,-0.0154 -0.34063,-0.0154 -0.32856,0 -0.49868,0.14012 -0.49868,0.42041 0,0.26084 0.15183,0.38931 0.49868,0.38931 0.0911,0 0.21294,0 0.3527,-0.0154 0.31649,-0.0154 0.56563,-0.0154 0.73614,-0.0154 1.14957,0 1.77594,0.82142 1.77594,2.36689 0,1.61945 -0.77857,2.51873 -2.18352,2.51873 -0.97945,0 -2.03793,-0.52943 -2.03793,-1.00829 0,-0.14012 0.0307,-0.17128 0.32856,-0.34256 0.43212,-0.2686 0.60223,-0.52943 0.60223,-0.91874 0,-0.56447 -0.41966,-0.98489 -0.97945,-0.98489 -0.6688,0 -1.10092,0.54889 -1.10092,1.3742 0,1.51043 1.38082,2.54982 3.37592,2.54982 2.25671,0 3.72278,-1.24183 3.72278,-3.1571 0,-1.46763 -0.74822,-2.3552 -2.3661,-2.80289"
     id="path109"
     style="stroke-width:0.389289" />
  <path
     class="Fingering"
     d="m 568.4522,405.37136 -2.83406,0.23361 -0.0468,0.56447 h 0.37761 c 0.61897,0 0.86811,0.14012 0.86811,0.49438 0,0.14012 -0.0468,0.37373 -0.12848,0.67349 l -1.58828,5.35271 h 1.35861 l 0.63844,-2.19561 c 0.70071,-2.3863 2.11772,-4.18485 3.28558,-4.18485 0.40489,0 0.65402,0.21409 0.65402,0.60339 0,0.31535 -0.12459,0.96543 -0.31533,1.55718 l -1.24184,4.21989 h 1.35085 l 0.66955,-2.25788 c 0.3893,-1.29246 0.77861,-2.16445 1.27687,-2.83406 0.56059,-0.77856 1.35861,-1.28852 1.94649,-1.28852 0.38925,0 0.61116,0.20245 0.61116,0.57223 0,0.21803 -0.0817,0.56059 -0.22191,0.99659 l -0.71629,2.21508 c -0.42042,1.21067 -0.43212,1.30798 -0.43212,1.7401 0,0.65402 0.47886,1.08613 1.21074,1.08613 0.51772,0 1.01604,-0.24913 1.54547,-0.73963 0.32698,-0.31534 0.54107,-0.59563 1.17951,-1.52602 l -0.4788,-0.33091 c -0.80972,1.21849 -1.38977,1.8063 -1.79073,1.8063 -0.17128,0 -0.32703,-0.1674 -0.32703,-0.3893 0,-0.14012 0.0468,-0.30753 0.18686,-0.76686 l 0.981,-3.01704 c 0.10901,-0.33868 0.18687,-0.82524 0.18687,-1.16787 0,-0.82525 -0.60728,-1.417 -1.44817,-1.417 -1.10554,0 -2.10213,0.72017 -3.00528,2.19562 0.0623,-0.29588 0.0934,-0.55671 0.0934,-0.74746 0,-0.8253 -0.6579,-1.44816 -1.51043,-1.44816 -0.98495,0 -1.69736,0.54889 -2.79125,2.10607 l 0.45552,-2.10607"
     id="path110"
     style="stroke-width:0.389289" />
  <path
     class="Fingering"
     d="m 557.01871,165.22884 c -0.4671,0 -0.84083,0.37722 -0.84083,0.84553 0,0.45002 0.37373,0.83931 0.82919,0.83931 0.4788,0 0.85252,-0.37722 0.85252,-0.83931 0,-0.46831 -0.37372,-0.84553 -0.84088,-0.84553 m 0.2803,3.8018 -2.98582,0.23084 -0.0624,0.56564 h 0.36985 c 0.64231,0 0.89145,0.14014 0.89145,0.48077 0,0.15182 -0.0314,0.32856 -0.14012,0.6871 l -0.90704,3.03529 c -0.29199,0.99152 -0.34256,1.21069 -0.34256,1.56961 0,0.54735 0.47104,0.967 1.05885,0.967 1.33915,0 2.25789,-1.38704 2.91579,-2.39647 l -0.48662,-0.26783 c -0.80972,1.2286 -1.45986,1.88572 -1.88028,1.88572 -0.15958,0 -0.26859,-0.13976 -0.26859,-0.32856 0,-0.15183 0.0623,-0.43795 0.19074,-0.86967 l 1.64667,-5.55944"
     id="path111"
     style="stroke-width:0.389289" />
  <path
     class="Fingering"
     d="m 363.67736,641.90363 -2.83442,0.23361 -0.0487,0.56447 h 0.37723 c 0.62052,0 0.86966,0.14012 0.86966,0.49438 0,0.14011 -0.0486,0.37373 -0.12767,0.67348 l -1.58753,5.35272 h 1.35629 l 0.63881,-2.19562 c 0.69956,-2.3863 2.11657,-4.18484 3.28444,-4.18484 0.40759,0 0.65713,0.21414 0.65713,0.6034 0,0.31533 -0.1277,0.96542 -0.3165,1.55717 l -1.24067,4.21989 h 1.35045 l 0.66879,-2.25789 c 0.3893,-1.29245 0.77859,-2.16445 1.27843,-2.83399 0.56058,-0.77862 1.35474,-1.28858 1.94645,-1.28858 0.38929,0 0.60729,0.20244 0.60729,0.57229 0,0.21797 -0.0779,0.56053 -0.218,0.99653 l -0.72018,2.21507 c -0.41654,1.21067 -0.43211,1.30805 -0.43211,1.74016 0,0.65396 0.48272,1.08608 1.21069,1.08608 0.51775,0 1.01605,-0.24914 1.54547,-0.73963 0.3309,-0.31535 0.54112,-0.59564 1.17955,-1.52601 l -0.47882,-0.33093 c -0.80973,1.2185 -1.38587,1.80631 -1.78684,1.80631 -0.17129,0 -0.33089,-0.1674 -0.33089,-0.38925 0,-0.14018 0.0506,-0.30757 0.19075,-0.76692 l 0.97711,-3.01698 c 0.109,-0.33868 0.19075,-0.8253 0.19075,-1.16786 0,-0.82531 -0.61118,-1.41706 -1.44816,-1.41706 -1.10947,0 -2.10605,0.72023 -3.0057,2.19562 0.0607,-0.29588 0.0911,-0.55671 0.0911,-0.74746 0,-0.82531 -0.65674,-1.44816 -1.5085,-1.44816 -0.98529,0 -1.69691,0.54894 -2.79198,2.10606 l 0.45624,-2.10606"
     id="path112"
     style="stroke-width:0.389289" />
  <path
     class="Fingering"
     d="m 980.93938,401.76269 c -0.471,0 -0.8408,0.37367 -0.8408,0.8447 0,0.4477 0.3698,0.83701 0.8252,0.83701 0.4827,0 0.8526,-0.37373 0.8526,-0.83701 0,-0.47103 -0.3699,-0.8447 -0.837,-0.8447 m 0.2764,3.79941 -2.9858,0.23362 -0.059,0.56447 h 0.3698 c 0.6385,0 0.8876,0.14012 0.8876,0.4788 0,0.15181 -0.031,0.33092 -0.1401,0.68906 l -0.9071,3.03645 c -0.2919,0.98876 -0.3387,1.20679 -0.3387,1.56881 0,0.54502 0.4672,0.96549 1.059,0.96549 1.3352,0 2.2538,-1.3859 2.9118,-2.39807 l -0.4866,-0.26471 c -0.8097,1.22626 -1.4598,1.88416 -1.8802,1.88416 -0.1558,0 -0.2648,-0.14012 -0.2648,-0.32698 0,-0.15182 0.059,-0.43994 0.1868,-0.87199 l 1.6467,-5.55911"
     id="path113"
     style="stroke-width:0.389289" />
  <path
     class="Fingering"
     d="m 539.99121,195.62456 c 1.41699,-0.51114 2.07101,-1.30763 2.07101,-2.55491 0,-1.62996 -1.24959,-2.67637 -3.17656,-2.67637 -1.82577,0 -3.20778,1.07678 -3.20778,2.49418 0,0.63843 0.42047,1.08884 1.03163,1.08884 0.54113,0 0.91485,-0.37722 0.91485,-0.93702 0,-0.34062 -0.1246,-0.54111 -0.48662,-0.79064 -0.15182,-0.10939 -0.19856,-0.17635 -0.19856,-0.2799 0,-0.43795 0.89927,-0.90627 1.78684,-0.90627 1.12506,0 1.71676,0.69956 1.71676,2.02547 0,1.44777 -0.5917,2.20805 -1.69729,2.20805 -0.14012,0 -0.40878,-0.0121 -0.63845,-0.0304 -0.12847,-0.0121 -0.24913,-0.0121 -0.34256,-0.0121 -0.32698,0 -0.49826,0.13975 -0.49826,0.41965 0,0.2616 0.15181,0.38929 0.49826,0.38929 0.0934,0 0.21409,0 0.35426,-0.0183 0.31535,-0.0121 0.56448,-0.0121 0.73576,-0.0121 1.14841,0 1.77514,0.82101 1.77514,2.36609 0,1.61789 -0.77856,2.51832 -2.18391,2.51832 -0.97713,0 -2.03598,-0.52943 -2.03598,-1.00981 0,-0.13976 0.0314,-0.17052 0.32698,-0.34063 0.43212,-0.26783 0.6034,-0.52904 0.6034,-0.91833 0,-0.56604 -0.42042,-0.98568 -0.981,-0.98568 -0.66567,0 -1.09779,0.54772 -1.09779,1.37497 0,1.50849 1.37808,2.54829 3.37513,2.54829 2.25789,0 3.72163,-1.24068 3.72163,-3.15675 0,-1.46608 -0.74745,-2.35404 -2.36689,-2.80406"
     id="path114"
     style="stroke-width:0.389289" />
  <path
     class="Fingering"
     d="m 489.16169,638.29495 c -0.47105,0 -0.84083,0.37372 -0.84083,0.84477 0,0.44763 0.36978,0.83694 0.82525,0.83694 0.48273,0 0.85258,-0.37372 0.85258,-0.83694 0,-0.47105 -0.36985,-0.84477 -0.837,-0.84477 m 0.27641,3.79942 -2.98588,0.23361 -0.0584,0.56447 h 0.36984 c 0.63845,0 0.88758,0.14012 0.88758,0.4788 0,0.15182 -0.0313,0.33092 -0.14012,0.68907 l -0.90709,3.03644 c -0.29195,0.98883 -0.33869,1.20679 -0.33869,1.56882 0,0.54501 0.46716,0.96548 1.05892,0.96548 1.3352,0 2.25394,-1.38589 2.91185,-2.39806 l -0.48663,-0.26472 c -0.80972,1.22626 -1.4598,1.88417 -1.88021,1.88417 -0.15577,0 -0.26478,-0.14012 -0.26478,-0.32699 0,-0.15182 0.0584,-0.43987 0.18686,-0.87199 l 1.64674,-5.5591"
     id="path115"
     style="stroke-width:0.389289" />
  <path
     class="Fingering"
     d="m 651.14894,391.91754 c -0.46716,0 -0.84089,0.37761 -0.84089,0.84477 0,0.45157 0.37373,0.84083 0.82919,0.84083 0.47885,0 0.85258,-0.37761 0.85258,-0.84083 0,-0.46716 -0.37373,-0.84477 -0.84088,-0.84477 m 0.28029,3.79948 -2.98588,0.23355 -0.0623,0.56447 h 0.36985 c 0.63844,0 0.88757,0.14013 0.88757,0.4788 0,0.15576 -0.0274,0.33093 -0.13624,0.68907 l -0.9071,3.03644 c -0.29193,0.98882 -0.34256,1.21068 -0.34256,1.56882 0,0.54501 0.47105,0.96548 1.05885,0.96548 1.33921,0 2.25789,-1.38589 2.91579,-2.39412 l -0.48661,-0.26865 c -0.80972,1.2302 -1.45981,1.88415 -1.88023,1.88415 -0.15964,0 -0.26865,-0.14011 -0.26865,-0.32697 0,-0.15182 0.0624,-0.43989 0.18686,-0.87199 l 1.65061,-5.55905"
     id="path116"
     style="stroke-width:0.389289" />
  <path
     class="Fingering"
     d="m 637.21626,423.34489 c 1.42093,-0.50996 2.07102,-1.30805 2.07102,-2.55376 0,-1.63114 -1.2496,-2.6783 -3.17662,-2.6783 -1.82572,0 -3.20385,1.07832 -3.20385,2.49532 0,0.63843 0.41654,1.08613 1.02775,1.08613 0.54113,0 0.91874,-0.37372 0.91874,-0.93431 0,-0.34257 -0.12848,-0.54108 -0.48663,-0.79026 -0.15182,-0.10896 -0.20244,-0.17905 -0.20244,-0.28025 0,-0.43992 0.89927,-0.90708 1.78685,-0.90708 1.12894,0 1.71676,0.70076 1.71676,2.02433 0,1.44816 -0.58782,2.20726 -1.6973,2.20726 -0.14012,0 -0.40877,-0.012 -0.63844,-0.0274 -0.12848,-0.012 -0.24914,-0.012 -0.33869,-0.012 -0.33086,0 -0.50219,0.13623 -0.50219,0.41652 0,0.26472 0.15575,0.38932 0.50219,0.38932 0.0896,0 0.21021,0 0.35039,-0.0154 0.31534,-0.012 0.56835,-0.012 0.73576,-0.012 1.15228,0 1.77902,0.81755 1.77902,2.36303 0,1.61944 -0.77856,2.51871 -2.18392,2.51871 -0.981,0 -2.03986,-0.52948 -2.03986,-1.00828 0,-0.14012 0.0314,-0.17129 0.33093,-0.34257 0.42817,-0.26471 0.59946,-0.52942 0.59946,-0.91873 0,-0.56448 -0.42042,-0.98488 -0.97707,-0.98488 -0.6696,0 -1.10172,0.54888 -1.10172,1.37419 0,1.51043 1.38196,2.54982 3.37512,2.54982 2.25789,0 3.72163,-1.24184 3.72163,-3.15715 0,-1.46369 -0.74745,-2.35521 -2.36689,-2.80284"
     id="path117"
     style="stroke-width:0.389289" />
  <path
     class="Fingering"
     d="m 622.98382,169.03064 -2.834,0.23084 -0.0468,0.56564 h 0.3776 c 0.61898,0 0.86811,0.14014 0.86811,0.49284 0,0.13975 -0.0468,0.37722 -0.12842,0.67503 l -1.58445,5.35273 h 1.35473 l 0.63844,-2.19559 c 0.70077,-2.3844 2.11777,-4.18487 3.28563,-4.18487 0.40484,0 0.6579,0.21294 0.6579,0.60224 0,0.3161 -0.12847,0.967 -0.31921,1.55715 l -1.23796,4.22107 h 1.34697 l 0.66955,-2.25632 c 0.3893,-1.29595 0.77856,-2.16562 1.27687,-2.8348 0.56059,-0.77858 1.35862,-1.28934 1.94643,-1.28934 0.3893,0 0.61122,0.20049 0.61122,0.57187 0,0.21878 -0.0818,0.55941 -0.22192,0.99737 l -0.71628,2.21427 c -0.42042,1.2103 -0.43211,1.30763 -0.43211,1.73934 0,0.65713 0.48274,1.08884 1.21067,1.08884 0.51778,0 1.01605,-0.24914 1.54547,-0.74198 0.32704,-0.3165 0.54113,-0.596 1.17957,-1.52679 l -0.4788,-0.32856 c -0.80972,1.21653 -1.38977,1.80669 -1.79078,1.80669 -0.17128,0 -0.32698,-0.17051 -0.32698,-0.38928 0,-0.13977 0.0468,-0.31028 0.18686,-0.76652 l 0.981,-3.01699 c 0.10901,-0.34063 0.18686,-0.82725 0.18686,-1.16787 0,-0.82724 -0.60727,-1.41701 -1.44816,-1.41701 -1.1056,0 -2.10218,0.71745 -3.00139,2.19559 0.0584,-0.29781 0.0895,-0.55941 0.0895,-0.74821 0,-0.82725 -0.65785,-1.44738 -1.51043,-1.44738 -0.98489,0 -1.69342,0.54734 -2.7912,2.10449 l 0.45546,-2.10449"
     id="path118"
     style="stroke-width:0.389289" />
  <path
     class="Fingering"
     d="m 696.59069,165.22884 c -0.46715,0 -0.83695,0.37722 -0.83695,0.84553 0,0.45002 0.3698,0.83931 0.82525,0.83931 0.48274,0 0.85259,-0.37722 0.85259,-0.83931 0,-0.46831 -0.36985,-0.84553 -0.84089,-0.84553 m 0.2803,3.8018 -2.98587,0.23084 -0.0623,0.56564 h 0.37372 c 0.63844,0 0.88757,0.14014 0.88757,0.48077 0,0.15182 -0.0313,0.32856 -0.14012,0.6871 l -0.90709,3.03529 c -0.29193,0.99152 -0.33868,1.21069 -0.33868,1.56961 0,0.54735 0.46716,0.967 1.05497,0.967 1.33921,0 2.25789,-1.38704 2.91579,-2.39647 l -0.48662,-0.26783 c -0.80972,1.2286 -1.45981,1.88572 -1.88022,1.88572 -0.15964,0 -0.26865,-0.13976 -0.26865,-0.32856 0,-0.15183 0.0624,-0.43795 0.19074,-0.86967 l 1.64673,-5.55944"
     id="path119"
     style="stroke-width:0.389289" />
  <path
     class="Fingering"
     d="m 621.29041,642.09437 -2.834,0.23361 -0.0468,0.56447 h 0.37761 c 0.61898,0 0.86811,0.14012 0.86811,0.49051 0,0.14011 -0.0508,0.3776 -0.12842,0.67736 l -1.58834,5.35272 h 1.35862 l 0.63843,-2.19556 c 0.70077,-2.38636 2.11777,-4.18491 3.28564,-4.18491 0.40483,0 0.65402,0.2102 0.65402,0.59952 0,0.31921 -0.12459,0.96935 -0.31534,1.55717 l -1.24183,4.22378 h 1.35085 l 0.66954,-2.25789 c 0.38931,-1.29634 0.77861,-2.16445 1.27688,-2.834 0.56059,-0.77861 1.35861,-1.28858 1.94643,-1.28858 0.3893,0 0.60733,0.19856 0.60733,0.57229 0,0.21797 -0.0779,0.55666 -0.21803,0.99658 l -0.71629,2.21503 c -0.42041,1.21073 -0.43211,1.30804 -0.43211,1.74016 0,0.65396 0.4788,1.08608 1.21067,1.08608 0.51779,0 1.01606,-0.24913 1.54548,-0.73964 0.32704,-0.31922 0.54113,-0.59952 1.17957,-1.52989 l -0.48274,-0.32705 c -0.80579,1.2185 -1.38584,1.80632 -1.78685,1.80632 -0.17128,0 -0.32698,-0.17128 -0.32698,-0.38926 0,-0.14017 0.0468,-0.31145 0.18687,-0.76692 l 0.981,-3.01698 c 0.10901,-0.33868 0.18686,-0.8253 0.18686,-1.16786 0,-0.8253 -0.60728,-1.41706 -1.44816,-1.41706 -1.1056,0 -2.10212,0.72023 -3.00529,2.19562 0.0623,-0.29588 0.0934,-0.56059 0.0934,-0.74745 0,-0.82525 -0.6579,-1.44817 -1.51049,-1.44817 -0.98489,0 -1.6973,0.54895 -2.79119,2.10607 l 0.45545,-2.10607"
     id="path120"
     style="stroke-width:0.389289" />
  <path
     class="Fingering"
     d="m 776.84662,167.08419 -2.83405,0.23084 -0.0468,0.56564 h 0.37372 c 0.62286,0 0.87199,0.14015 0.87199,0.49284 0,0.13976 -0.0508,0.37722 -0.12848,0.67503 l -1.58828,5.35273 h 1.35862 l 0.63844,-2.19559 c 0.69683,-2.3844 2.11383,-4.18486 3.28169,-4.18486 0.40877,0 0.6579,0.21294 0.6579,0.60223 0,0.3161 -0.12847,0.96699 -0.31533,1.55715 l -1.24184,4.22107 h 1.35085 l 0.6696,-2.25631 c 0.38925,-1.29595 0.77856,-2.16563 1.27682,-2.83482 0.56059,-0.77857 1.35862,-1.28932 1.94649,-1.28932 0.38925,0 0.60728,0.20048 0.60728,0.57186 0,0.21879 -0.0779,0.55941 -0.21803,0.99736 l -0.71629,2.21428 c -0.42041,1.2103 -0.43211,1.30763 -0.43211,1.73935 0,0.65712 0.47886,1.08884 1.21073,1.08884 0.51772,0 1.01604,-0.24915 1.54547,-0.74199 0.32698,-0.31649 0.54107,-0.596 1.17951,-1.52679 l -0.48268,-0.32857 c -0.80972,1.21654 -1.38589,1.8067 -1.78685,1.8067 -0.17128,0 -0.32698,-0.17051 -0.32698,-0.38929 0,-0.13975 0.0468,-0.31026 0.18681,-0.7665 l 0.98106,-3.017 c 0.10895,-0.34063 0.18681,-0.82724 0.18681,-1.16787 0,-0.82723 -0.60728,-1.41701 -1.44811,-1.41701 -1.1056,0 -2.10606,0.71746 -3.00533,2.19559 0.0623,-0.29781 0.0934,-0.55941 0.0934,-0.74821 0,-0.82724 -0.65791,-1.44738 -1.51044,-1.44738 -0.98494,0 -1.69729,0.54733 -2.79119,2.1045 l 0.45546,-2.1045"
     id="path121"
     style="stroke-width:0.389289" />
  <path
     class="Fingering"
     d="m 850.45345,165.22884 c -0.46715,0 -0.84086,0.37722 -0.84086,0.84553 0,0.45002 0.37371,0.83931 0.82921,0.83931 0.47881,0 0.85252,-0.37722 0.85252,-0.83931 0,-0.46831 -0.37371,-0.84553 -0.84087,-0.84553 m 0.28026,3.8018 -2.98581,0.23084 -0.0622,0.56564 h 0.36977 c 0.63846,0 0.89148,0.14014 0.89148,0.48077 0,0.15182 -0.0307,0.32856 -0.14013,0.6871 l -0.90698,3.03529 c -0.292,0.99152 -0.34262,1.21069 -0.34262,1.56961 0,0.54735 0.4711,0.967 1.05885,0.967 1.3392,0 2.25793,-1.38704 2.91583,-2.39647 l -0.48659,-0.26783 c -0.80978,1.2286 -1.45989,1.88572 -1.88037,1.88572 -0.15957,0 -0.26852,-0.13976 -0.26852,-0.32856 0,-0.15183 0.0622,-0.43795 0.18681,-0.86967 l 1.65055,-5.55944"
     id="path122"
     style="stroke-width:0.389289" />
  <path
     class="Fingering"
     d="m 746.77401,638.29495 c -0.46716,0 -0.84089,0.37372 -0.84089,0.84477 0,0.44763 0.37373,0.83694 0.82919,0.83694 0.47886,0 0.85252,-0.37372 0.85252,-0.83694 0,-0.47105 -0.37366,-0.84477 -0.84082,-0.84477 m 0.2803,3.79942 -2.98588,0.23361 -0.0623,0.56447 h 0.36979 c 0.63844,0 0.89151,0.14012 0.89151,0.4788 0,0.15182 -0.0313,0.33092 -0.14018,0.68907 l -0.90703,3.03644 c -0.29194,0.98883 -0.34257,1.20679 -0.34257,1.56882 0,0.54501 0.47104,0.96548 1.05886,0.96548 1.33915,0 2.25788,-1.38589 2.91579,-2.39806 l -0.48663,-0.26472 c -0.80972,1.22626 -1.4598,1.88417 -1.88027,1.88417 -0.15959,0 -0.2686,-0.14012 -0.2686,-0.32699 0,-0.15182 0.0623,-0.43987 0.18686,-0.87199 l 1.65062,-5.5591"
     id="path123"
     style="stroke-width:0.389289" />
  <path
     class="Fingering"
     d="m 740.49086,405.37136 -2.834,0.23361 -0.0468,0.56447 h 0.37761 c 0.61898,0 0.86811,0.14012 0.86811,0.49438 0,0.14012 -0.0468,0.37373 -0.12842,0.67349 l -1.58834,5.35271 h 1.35862 l 0.63843,-2.19561 c 0.70071,-2.3863 2.11777,-4.18485 3.28564,-4.18485 0.40483,0 0.65397,0.21409 0.65397,0.60339 0,0.31535 -0.12454,0.96543 -0.31529,1.55718 l -1.24183,4.21989 h 1.35078 l 0.66961,-2.25788 c 0.38931,-1.29246 0.77856,-2.16445 1.27688,-2.83406 0.56059,-0.77856 1.35861,-1.28852 1.94643,-1.28852 0.3893,0 0.61121,0.20245 0.61121,0.57223 0,0.21803 -0.0818,0.56059 -0.22191,0.99659 l -0.71629,2.21508 c -0.42047,1.21067 -0.43211,1.30798 -0.43211,1.7401 0,0.65402 0.4788,1.08613 1.21067,1.08613 0.51779,0 1.01605,-0.24913 1.54548,-0.73963 0.32704,-0.31534 0.54113,-0.59563 1.17957,-1.52602 l -0.47886,-0.33091 c -0.80972,1.21849 -1.38972,1.8063 -1.79073,1.8063 -0.17128,0 -0.32698,-0.1674 -0.32698,-0.3893 0,-0.14012 0.0468,-0.30753 0.18687,-0.76686 l 0.981,-3.01704 c 0.10901,-0.33868 0.18686,-0.82524 0.18686,-1.16787 0,-0.82525 -0.60728,-1.417 -1.44816,-1.417 -1.1056,0 -2.10219,0.72017 -3.00534,2.19562 0.0624,-0.29588 0.0934,-0.55671 0.0934,-0.74746 0,-0.8253 -0.65791,-1.44816 -1.51043,-1.44816 -0.98489,0 -1.6973,0.54889 -2.79119,2.10607 l 0.45545,-2.10607"
     id="path124"
     style="stroke-width:0.389289" />
  <path
     class="Fingering"
     d="m 838.25702,207.78674 h -0.68515 l -0.15957,0.79687 c -0.20249,1.00943 -0.32309,1.10092 -1.28858,1.10092 h -3.48809 c 1.07059,-1.11922 1.43265,-1.44778 2.42924,-2.22635 1.41697,-1.08885 2.02434,-1.62996 2.37852,-2.09866 0.49834,-0.6871 0.74742,-1.36836 0.74742,-2.13487 0,-1.77594 -1.4598,-3.03528 -3.50359,-3.03528 -1.97758,0 -3.48415,1.25934 -3.48415,2.92589 0,0.98529 0.49834,1.65449 1.22631,1.65449 0.58005,0 0.96935,-0.3893 0.96935,-0.95493 0,-0.38929 -0.22193,-0.74238 -0.54887,-0.88214 -0.57235,-0.23708 -0.60352,-0.26744 -0.60352,-0.46831 0,-0.23707 0.15186,-0.59601 0.37379,-0.85761 0.3893,-0.48077 1.02768,-0.74821 1.75574,-0.74821 1.29628,0 2.05543,0.79688 2.05543,2.1045 0,1.14958 -0.54116,2.19598 -1.83359,3.56433 -1.1523,1.2107 -1.86863,1.9772 -2.13724,2.27501 -0.56052,0.6509 -0.84086,1.00981 -1.52207,1.90986 v 0.43794 h 7.02277 l 0.29585,-3.36345"
     id="path125"
     style="stroke-width:0.389289" />
  <path
     class="Fingering"
     d="m 864.61582,640.14794 -2.83403,0.23362 -0.0464,0.56446 h 0.37756 c 0.61902,0 0.8681,0.14012 0.8681,0.49051 0,0.14011 -0.0508,0.37761 -0.12839,0.67736 l -1.58837,5.35272 h 1.35864 l 0.63847,-2.19562 c 0.70074,-2.38636 2.11771,-4.18485 3.2856,-4.18485 0.4048,0 0.65405,0.21021 0.65405,0.59951 0,0.31923 -0.12462,0.96932 -0.31538,1.55712 l -1.24181,4.22384 h 1.35085 l 0.66956,-2.25789 c 0.3893,-1.29634 0.77859,-2.16445 1.27684,-2.83406 0.56061,-0.77855 1.35865,-1.28852 1.9464,-1.28852 0.38939,0 0.60738,0.19851 0.60738,0.57223 0,0.21804 -0.0779,0.55671 -0.21799,0.9966 l -0.71633,2.21507 c -0.42039,1.21067 -0.43212,1.30798 -0.43212,1.7401 0,0.65403 0.4788,1.08613 1.21072,1.08613 0.51778,0 1.01602,-0.24913 1.54545,-0.73963 0.32703,-0.31922 0.54108,-0.59951 1.17954,-1.52995 l -0.48275,-0.32698 c -0.80574,1.2185 -1.38579,1.8063 -1.78673,1.8063 -0.1714,0 -0.32703,-0.17127 -0.32703,-0.3893 0,-0.14012 0.0464,-0.31141 0.18681,-0.76686 l 0.98099,-3.01703 c 0.10904,-0.33869 0.1869,-0.82525 0.1869,-1.16788 0,-0.82524 -0.60729,-1.417 -1.44815,-1.417 -1.10562,0 -2.10212,0.72017 -3.00534,2.19562 0.0622,-0.29587 0.0934,-0.56059 0.0934,-0.74745 0,-0.82531 -0.65791,-1.44817 -1.51051,-1.44817 -0.98485,0 -1.69723,0.5489 -2.79112,2.10607 l 0.45542,-2.10607"
     id="path126"
     style="stroke-width:0.389289" />
  <path
     class="Fingering"
     d="m 916.41858,169.03064 -2.8341,0.23084 -0.046,0.56564 h 0.3777 c 0.6189,0 0.8681,0.14014 0.8681,0.49284 0,0.13975 -0.046,0.37722 -0.1285,0.67503 l -1.5883,5.35273 h 1.3586 l 0.6384,-2.19559 c 0.7008,-2.3844 2.1178,-4.18487 3.2856,-4.18487 0.4049,0 0.654,0.21294 0.654,0.60224 0,0.3161 -0.1245,0.967 -0.3152,1.55715 l -1.2419,4.22107 h 1.3508 l 0.6696,-2.25632 c 0.3893,-1.29595 0.7786,-2.16562 1.2769,-2.8348 0.5606,-0.77858 1.3586,-1.28934 1.9464,-1.28934 0.3893,0 0.6113,0.20049 0.6113,0.57187 0,0.21878 -0.082,0.55941 -0.222,0.99737 l -0.7163,2.21427 c -0.4205,1.2103 -0.432,1.30763 -0.432,1.73934 0,0.65713 0.4787,1.08884 1.2106,1.08884 0.5178,0 1.016,-0.24914 1.5455,-0.74198 0.327,-0.3165 0.5411,-0.596 1.1796,-1.52679 l -0.4789,-0.32856 c -0.8097,1.21653 -1.3897,1.80669 -1.7908,1.80669 -0.1712,0 -0.3269,-0.17051 -0.3269,-0.38928 0,-0.13977 0.046,-0.31028 0.1869,-0.76652 l 0.981,-3.01699 c 0.1089,-0.34063 0.1868,-0.82725 0.1868,-1.16787 0,-0.82724 -0.6073,-1.41701 -1.4482,-1.41701 -1.1056,0 -2.1022,0.71745 -3.0053,2.19559 0.062,-0.29781 0.093,-0.55941 0.093,-0.74821 0,-0.82725 -0.6579,-1.44738 -1.5104,-1.44738 -0.9849,0 -1.6973,0.54734 -2.7912,2.10449 l 0.4554,-2.10449"
     id="path127"
     style="stroke-width:0.389289" />
  <path
     class="Fingering"
     d="m 734.57755,680.85209 h -0.68513 l -0.15963,0.79414 c -0.20239,1.0121 -0.32311,1.10165 -1.28853,1.10165 h -3.48802 c 1.07055,-1.11723 1.43258,-1.44816 2.42917,-2.22672 1.417,-1.08613 2.02427,-1.6272 2.37854,-2.09825 0.49826,-0.68518 0.74745,-1.36643 0.74745,-2.13335 0,-1.77514 -1.45986,-3.03644 -3.50361,-3.03644 -1.97758,0 -3.48413,1.2613 -3.48413,2.92743 0,0.98495 0.49826,1.65449 1.22625,1.65449 0.58005,0 0.96931,-0.38925 0.96931,-0.95766 0,-0.38925 -0.22191,-0.73963 -0.54889,-0.87975 -0.57224,-0.23749 -0.6034,-0.26859 -0.6034,-0.46716 0,-0.23749 0.15182,-0.59951 0.37373,-0.86035 0.3893,-0.47879 1.02769,-0.7474 1.75568,-0.7474 1.29635,0 2.05544,0.79803 2.05544,2.10602 0,1.1484 -0.54113,2.19561 -1.83353,3.56204 -1.15229,1.21068 -1.86858,1.9776 -2.13723,2.27735 -0.56053,0.65009 -0.84083,1.00823 -1.52208,1.9075 v 0.43988 h 7.02274 l 0.29587,-3.36342"
     id="path128"
     style="stroke-width:0.389289" />
  <metadata
     id="metadata128">
    <rdf:RDF>
      <cc:Work
         rdf:about="">
        <dc:title>la_flor_de_la_cantuta</dc:title>
      </cc:Work>
    </rdf:RDF>
  </metadata>
</svg>
