<?xml version="1.0" encoding="UTF-8" standalone="no"?>
<!-- Created with Inkscape (http://www.inkscape.org/) -->

<svg
   width="297mm"
   height="210mm"
   viewBox="0 0 297 210"
   version="1.1"
   id="svg1"
   inkscape:version="1.2.2 (b0a8486541, 2022-12-01)"
   sodipodi:docname="note_re_sol.svg"
   xmlns:inkscape="http://www.inkscape.org/namespaces/inkscape"
   xmlns:sodipodi="http://sodipodi.sourceforge.net/DTD/sodipodi-0.dtd"
   xmlns="http://www.w3.org/2000/svg"
   xmlns:svg="http://www.w3.org/2000/svg">
  <sodipodi:namedview
     id="namedview1"
     pagecolor="#ffffff"
     bordercolor="#000000"
     borderopacity="0.25"
     inkscape:showpageshadow="2"
     inkscape:pageopacity="0.0"
     inkscape:pagecheckerboard="0"
     inkscape:deskcolor="#d1d1d1"
     inkscape:document-units="mm"
     inkscape:zoom="2.102413"
     inkscape:cx="423.56093"
     inkscape:cy="196.20313"
     inkscape:window-width="1280"
     inkscape:window-height="651"
     inkscape:window-x="0"
     inkscape:window-y="32"
     inkscape:window-maximized="1"
     inkscape:current-layer="layer1"
     showgrid="false" />
  <defs
     id="defs1" />
  <g
     inkscape:label="Calque 1"
     inkscape:groupmode="layer"
     id="layer1">
    <rect
       style="fill:#333333;fill-rule:evenodd;stroke-width:0.334684;stroke-linecap:round;stroke-linejoin:bevel"
       id="rect1"
       width="6.6785226"
       height="1.1961216"
       x="82.809822"
       y="98.199684"
       transform="matrix(0.99921773,0.03954645,-0.02771239,0.99961594,0,0)" />
    <rect
       style="fill:#333333;fill-rule:evenodd;stroke-width:0.334684;stroke-linecap:round;stroke-linejoin:bevel"
       id="rect1-1"
       width="6.6785226"
       height="1.1961216"
       x="96.099304"
       y="98.212868"
       transform="matrix(0.99921773,0.03954645,-0.02771239,0.99961594,0,0)" />
    <rect
       style="fill:#333333;fill-rule:evenodd;stroke-width:0.334684;stroke-linecap:round;stroke-linejoin:bevel"
       id="rect1-0"
       width="6.6785226"
       height="1.1961216"
       x="87.352669"
       y="91.743195"
       transform="matrix(0.99921773,0.03954645,-0.02771239,0.99961594,0,0)" />
    <rect
       style="fill:#333333;fill-rule:evenodd;stroke-width:0.334684;stroke-linecap:round;stroke-linejoin:bevel"
       id="rect1-0-6"
       width="6.6785226"
       height="1.1961216"
       x="108.76849"
       y="46.26078"
       transform="matrix(0.99921773,0.03954645,-0.02771239,0.99961594,0,0)" />
    <rect
       style="fill:#333333;fill-rule:evenodd;stroke-width:0.43775;stroke-linecap:round;stroke-linejoin:bevel"
       id="rect3-6"
       width="1.0363969"
       height="8.0215235"
       x="49.946064"
       y="121.56892"
       transform="matrix(0.93533092,-0.35377403,0.35953483,0.93313167,0,0)" />
    <rect
       style="fill:#333333;fill-rule:evenodd;stroke-width:0.32947;stroke-linecap:round;stroke-linejoin:bevel"
       id="rect3-6-7"
       width="1.0363969"
       height="4.5439777"
       x="87.226357"
       y="87.981918"
       transform="matrix(0.93533092,-0.35377403,0.35953483,0.93313167,0,0)" />
    <rect
       style="fill:#333333;fill-rule:evenodd;stroke-width:0.43775;stroke-linecap:round;stroke-linejoin:bevel"
       id="rect3"
       width="1.0363969"
       height="8.0215235"
       x="43.839001"
       y="118.89555"
       transform="matrix(0.93533092,-0.35377403,0.35953483,0.93313167,0,0)" />
    <rect
       style="fill:#333333;fill-rule:evenodd;stroke-width:1.45741;stroke-linecap:round;stroke-linejoin:bevel"
       id="rect5"
       width="50.057362"
       height="0.6503945"
       x="-46.052807"
       y="118.56334"
       transform="matrix(0.4644965,-0.88557496,0.88906693,0.45777723,0,0)" />
    <rect
       style="fill:#333333;fill-rule:evenodd;stroke-width:1.10804;stroke-linecap:round;stroke-linejoin:bevel"
       id="rect5-1"
       width="38.076824"
       height="0.49423298"
       x="-15.292754"
       y="159.09363"
       transform="matrix(0.52035231,-0.85395168,0.85818387,0.51334242,0,0)" />
    <rect
       style="fill:#333333;fill-rule:evenodd;stroke-width:1.10132;stroke-linecap:round;stroke-linejoin:bevel"
       id="rect5-66"
       width="37.845909"
       height="0.4912357"
       x="-0.16756417"
       y="196.92183"
       transform="matrix(0.52035231,-0.85395168,0.85818387,0.51334242,0,0)" />
    <rect
       style="fill:#333333;fill-rule:evenodd;stroke-width:1.13692;stroke-linecap:round;stroke-linejoin:bevel"
       id="rect5-7"
       width="39.069595"
       height="0.507119"
       x="14.538172"
       y="234.62602"
       transform="matrix(0.52035231,-0.85395168,0.85818387,0.51334242,0,0)" />
    <rect
       style="fill:#333333;fill-rule:evenodd;stroke-width:1.45284;stroke-linecap:round;stroke-linejoin:bevel"
       id="rect5-9"
       width="49.90041"
       height="0.64835525"
       x="-43.210316"
       y="124.72036"
       transform="matrix(0.4644965,-0.88557496,0.88906693,0.45777723,0,0)" />
    <rect
       style="fill:#333333;fill-rule:evenodd;stroke-width:1.44271;stroke-linecap:round;stroke-linejoin:bevel"
       id="rect5-6"
       width="49.55238"
       height="0.6438334"
       x="-45.392426"
       y="127.28117"
       transform="matrix(0.4644965,-0.88557496,0.88906693,0.45777723,0,0)" />
    <rect
       style="fill:#333333;fill-rule:evenodd;stroke-width:1.73358;stroke-linecap:round;stroke-linejoin:bevel"
       id="rect6"
       width="181.38715"
       height="0.54320109"
       x="102.31042"
       y="38.06144"
       transform="matrix(0.98765806,0.15662553,-0.15947742,0.98720158,0,0)" />
    <rect
       style="fill:#333333;fill-rule:evenodd;stroke-width:1.73358;stroke-linecap:round;stroke-linejoin:bevel"
       id="rect6-0"
       width="181.38715"
       height="0.54320109"
       x="99.933556"
       y="44.355457"
       transform="matrix(0.98765806,0.15662553,-0.15947742,0.98720158,0,0)" />
    <rect
       style="fill:#333333;fill-rule:evenodd;stroke-width:1.73354;stroke-linecap:round;stroke-linejoin:bevel"
       id="rect6-0-0"
       width="181.91183"
       height="0.54161"
       x="98.43502"
       y="50.285145"
       transform="matrix(0.98705838,0.16036134,-0.17080498,0.98530486,0,0)" />
    <rect
       style="fill:#333333;fill-rule:evenodd;stroke-width:1.60473;stroke-linecap:round;stroke-linejoin:bevel"
       id="rect7"
       width="185.0836"
       height="1.0666828"
       x="94.861076"
       y="56.256207"
       transform="matrix(0.98680829,0.16189318,-0.16483577,0.98632103,0,0)" />
    <rect
       style="fill:#333333;fill-rule:evenodd;stroke-width:1.61989;stroke-linecap:round;stroke-linejoin:bevel"
       id="rect7-8"
       width="186.83179"
       height="1.076758"
       x="92.746407"
       y="64.291"
       transform="matrix(0.98680829,0.16189318,-0.16483577,0.98632103,0,0)" />
    <polyline
       class="StaffLines"
       fill="none"
       stroke="#000000"
       stroke-width="2.73"
       stroke-linejoin="bevel"
       points="336.599,634.199 2764.6,634.199"
       id="polyline1"
       transform="matrix(0.09529408,0,0,0.09005416,-3.5580381,96.287529)" />
    <polyline
       class="StaffLines"
       fill="none"
       stroke="#000000"
       stroke-width="2.73"
       stroke-linejoin="bevel"
       points="336.599,658.999 2764.6,658.999"
       id="polyline2"
       transform="matrix(0.09529408,0,0,0.09005416,-3.5580381,96.287529)" />
    <polyline
       class="StaffLines"
       fill="none"
       stroke="#000000"
       stroke-width="2.73"
       stroke-linejoin="bevel"
       points="336.599,683.799 2764.6,683.799"
       id="polyline3"
       transform="matrix(0.09529408,0,0,0.09005416,-3.5580381,96.287529)" />
    <polyline
       class="StaffLines"
       fill="none"
       stroke="#000000"
       stroke-width="2.73"
       stroke-linejoin="bevel"
       points="336.599,708.599 2764.6,708.599"
       id="polyline4"
       transform="matrix(0.09529408,0,0,0.09005416,-3.5580381,96.287529)" />
    <polyline
       class="StaffLines"
       fill="none"
       stroke="#000000"
       stroke-width="2.73"
       stroke-linejoin="bevel"
       points="336.599,733.399 2764.6,733.399"
       id="polyline5"
       transform="matrix(0.09529408,0,0,0.09005416,-3.5580381,96.287529)" />
    <polyline
       class="BarLine"
       fill="none"
       stroke="#000000"
       stroke-width="4.46"
       stroke-linejoin="bevel"
       points="2739.55,632.835 2739.55,734.763"
       id="polyline6"
       transform="matrix(0.09529408,0,0,0.09005416,-3.5580381,96.287529)" />
    <polyline
       class="BarLine"
       fill="none"
       stroke="#000000"
       stroke-width="13.64"
       stroke-linejoin="bevel"
       points="2757.78,632.835 2757.78,734.763"
       id="polyline7"
       transform="matrix(0.09529408,0,0,0.09005416,-3.5580381,96.287529)" />
    <polyline
       class="Stem"
       fill="none"
       stroke="#000000"
       stroke-width="2.48"
       stroke-linejoin="bevel"
       points="566.526,741.831 566.526,658.999"
       id="polyline8"
       transform="matrix(0.09529408,0,0,0.09005416,-3.5580381,96.287529)" />
    <polyline
       class="Stem"
       fill="none"
       stroke="#000000"
       stroke-width="2.48"
       stroke-linejoin="bevel"
       points="1006.88,729.431 1006.88,646.599"
       id="polyline9"
       transform="matrix(0.09529408,0,0,0.09005416,-3.5580381,96.287529)" />
    <polyline
       class="Stem"
       fill="none"
       stroke="#000000"
       stroke-width="2.48"
       stroke-linejoin="bevel"
       points="1447.24,717.031 1447.24,634.199"
       id="polyline10"
       transform="matrix(0.09529408,0,0,0.09005416,-3.5580381,96.287529)" />
    <polyline
       class="Stem"
       fill="none"
       stroke="#000000"
       stroke-width="2.48"
       stroke-linejoin="bevel"
       points="1887.6,704.631 1887.6,621.799"
       id="polyline11"
       transform="matrix(0.09529408,0,0,0.09005416,-3.5580381,96.287529)" />
    <polyline
       class="Stem"
       fill="none"
       stroke="#000000"
       stroke-width="2.48"
       stroke-linejoin="bevel"
       points="2327.96,692.231 2327.96,615.599"
       id="polyline12"
       transform="matrix(0.09529408,0,0,0.09005416,-3.5580381,96.287529)" />
    <path
       class="Note"
       d="m 47.47518,163.82528 c 0,0.38388 0.292464,0.8124 1.059056,0.8124 0.982249,0 2.013236,-0.75935 2.013236,-1.54522 0,-0.5276 -0.472662,-0.82214 -1.059056,-0.82214 -0.917246,0 -2.013236,0.73282 -2.013236,1.55496"
       id="path12"
       style="stroke-width:0.0918957" />
    <path
       class="Note"
       d="m 89.438605,162.70862 c 0,0.38384 0.292455,0.81237 1.059038,0.81237 0.982259,0 2.013243,-0.75933 2.013243,-1.54519 0,-0.52762 -0.472661,-0.82214 -1.059047,-0.82214 -0.91726,0 -2.013234,0.73281 -2.013234,1.55496"
       id="path13"
       style="stroke-width:0.0918957" />
    <path
       class="Note"
       d="m 131.4022,161.59195 c 0,0.38385 0.29246,0.81237 1.05903,0.81237 0.98226,0 2.01325,-0.75934 2.01325,-1.54519 0,-0.52763 -0.47266,-0.82214 -1.05904,-0.82214 -0.91726,0 -2.01324,0.73281 -2.01324,1.55496"
       id="path14"
       style="stroke-width:0.0918957" />
    <path
       class="Note"
       d="m 173.36589,160.47528 c 0,0.38385 0.29247,0.81237 1.05907,0.81237 0.98224,0 2.01322,-0.75935 2.01322,-1.5452 0,-0.52763 -0.47265,-0.82214 -1.05905,-0.82214 -0.91726,0 -2.01324,0.73282 -2.01324,1.55497"
       id="path15"
       style="stroke-width:0.0918957" />
    <path
       class="Note"
       d="m 215.32864,159.3586 c 0,0.38385 0.29247,0.81239 1.05905,0.81239 0.98226,0 2.01325,-0.75933 2.01325,-1.5452 0,-0.52762 -0.47267,-0.82216 -1.05905,-0.82216 -0.91726,0 -2.01325,0.73283 -2.01325,1.55497"
       id="path16"
       style="stroke-width:0.0918957" />
    <path
       class="Clef"
       d="m 36.340365,160.07327 c 0,-1.34002 -1.011784,-2.2515 -2.391363,-2.2515 -0.09456,-0.53599 -0.180198,-1.07199 -0.264385,-1.56332 0.992577,-0.99245 1.691228,-2.11749 1.691228,-3.52869 0,-0.82215 -0.264397,-1.47402 -0.42539,-1.79641 -0.225986,-0.45507 -0.500731,-0.77758 -0.661724,-0.77758 -0.06495,0 -0.367789,0.11731 -0.670592,0.46491 -0.614452,0.67973 -0.784311,1.81316 -0.784311,2.56412 0,0.48297 0.04728,0.91986 0.208267,1.93044 -0.01029,0 -0.502207,0.47319 -0.700135,0.63374 -0.861118,0.75094 -2.051635,1.8397 -2.051635,3.618 0,1.67921 1.540574,2.99268 3.299754,2.99268 0.273261,0 0.528781,-0.0264 0.756264,-0.0628 0.169849,0.85843 0.28359,1.48376 0.28359,1.95696 0,0.92964 -0.511073,1.42098 -1.456388,1.42098 -0.236326,0 -0.434244,-0.0447 -0.444593,-0.0545 -0.01768,0 -0.03689,-0.008 -0.03689,-0.0167 0,-0.0183 0.01913,-0.0278 0.04728,-0.0362 0.444586,-0.0628 0.887711,-0.42014 0.887711,-0.99103 0,-0.48298 -0.387,-0.99245 -1.095988,-0.99245 -0.652852,0 -1.078252,0.50947 -1.078252,1.09854 0,0.59044 0.472664,1.36791 1.748843,1.36791 1.22005,0 1.815306,-0.65325 1.815306,-1.79645 0,-0.34756 -0.05612,-0.74956 -0.150665,-1.25904 -0.02805,-0.17867 -0.07533,-0.45645 -0.141788,-0.79563 0.926111,-0.29455 1.615896,-1.19764 1.615896,-2.12589 m -2.911288,-7.31697 c 0.09456,-0.35734 0.519927,-1.29535 1.011792,-1.29535 0.141802,0 0.378128,0.42853 0.378128,1.05385 0,0.91986 -0.737049,1.61778 -1.38992,2.23336 -0.05612,-0.35734 -0.103391,-0.71469 -0.103391,-1.08038 0,-0.33919 0.03689,-0.63511 0.103391,-0.91148 m 0.283599,9.23766 c -1.351501,0 -2.505094,-0.89335 -2.505094,-2.24311 0,-1.08877 0.822732,-2.06305 1.645442,-2.7512 0.159527,-0.12563 0.311667,-0.25964 0.453466,-0.38386 0.08418,0.48156 0.160994,0.89335 0.217113,1.26881 -0.861108,0.23172 -1.446027,1.09855 -1.446027,1.92905 0,0.63512 0.519926,1.49217 1.276179,1.49217 0.07534,0 0.161003,-0.0362 0.161003,-0.12562 0,-0.0713 -0.08563,-0.12425 -0.208268,-0.19543 -0.369271,-0.20658 -0.577537,-0.44667 -0.577537,-0.87658 0,-0.54438 0.435738,-0.98268 0.983723,-1.10691 l 0.547986,2.92987 c -0.189055,0.0447 -0.358923,0.0628 -0.547986,0.0628 m 0.945316,-0.1703 c -0.197917,-1.06224 -0.453448,-2.4832 -0.519926,-2.87683 0.954181,0 1.361861,0.62534 1.446046,1.05526 0.01029,0.0711 0.02806,0.16889 0.02806,0.27638 0,0.64348 -0.2836,1.29534 -0.95419,1.54519 m -0.369261,4.68165 c 0,-0.33081 -0.320525,-0.47319 -0.632183,-0.47319 -0.397329,0 -0.785796,0.23169 -0.785796,0.63371 0,0.1703 0.06652,0.29592 0.208268,0.42015 -0.245191,0.0894 -0.500731,0.26799 -0.500731,0.54577 0,0.29454 0.283598,0.49135 0.700133,0.49135 0.509587,0 0.868517,-0.26801 0.868517,-0.65326 0,-0.20518 -0.09456,-0.37409 -0.264404,-0.49134 0.274745,-0.11585 0.406196,-0.25824 0.406196,-0.47319 m -0.584919,0.35734 c -0.14179,-0.0713 -0.180199,-0.0894 -0.208258,-0.10747 l -0.01029,-0.008 c -0.150673,-0.081 -0.197927,-0.14378 -0.197927,-0.24985 0,-0.16195 0.132936,-0.27779 0.322,-0.27779 0.189063,0 0.292453,0.10748 0.292453,0.29451 0,0.14378 -0.05611,0.24149 -0.197918,0.34897 m -0.360407,1.072 c -0.206792,0 -0.348581,-0.12423 -0.348581,-0.31266 0,-0.1689 0.08419,-0.32105 0.24518,-0.41037 0.03834,0.0182 0.04728,0.0266 0.07534,0.0348 0.113732,0.0545 0.113732,0.0545 0.132946,0.0725 0.189063,0.0977 0.255531,0.18704 0.255531,0.31267 0,0.16889 -0.152141,0.3029 -0.360408,0.3029"
       id="path17"
       style="stroke-width:0.0918957" />
    <path
       class="Fingering"
       d="m 46.266384,163.26503 c -0.533082,0 -0.921686,0.54734 -0.921686,1.30434 0,0.74159 0.3767,1.28471 0.890324,1.28471 0.534607,0 0.908354,-0.52484 0.908354,-1.27481 0,-0.38138 -0.08495,-0.69792 -0.244248,-0.947 -0.148841,-0.2265 -0.39308,-0.36724 -0.632744,-0.36724 m -0.02689,0.15479 c 0.125118,0 0.24719,0.0788 0.339532,0.22369 0.102721,0.16886 0.136935,0.37429 0.136935,0.86822 0,0.50791 -0.0268,0.74574 -0.102731,0.90333 -0.08787,0.17732 -0.224801,0.28422 -0.369262,0.28422 -0.129508,0 -0.248627,-0.0787 -0.339434,-0.22227 -0.107208,-0.17028 -0.137034,-0.39262 -0.137034,-0.98355 0,-0.42219 0.02678,-0.63039 0.10272,-0.78943 0.08787,-0.18012 0.2249,-0.28421 0.369274,-0.28421"
       id="path20"
       style="stroke-width:0.0926381" />
    <path
       class="Fingering"
       d="m 88.314706,164.87385 h -0.168192 l -0.03879,0.18433 c -0.049,0.23351 -0.07895,0.25466 -0.315608,0.25466 h -0.853173 c 0.262059,-0.25889 0.349927,-0.3349 0.594067,-0.51502 0.346965,-0.25187 0.495806,-0.37713 0.582154,-0.48547 0.122169,-0.15895 0.18315,-0.31655 0.18315,-0.49386 0,-0.41092 -0.357349,-0.70215 -0.857643,-0.70215 -0.483904,0 -0.853164,0.29123 -0.853164,0.67685 0,0.22792 0.122065,0.38273 0.300736,0.38273 0.141512,0 0.23682,-0.0901 0.23682,-0.2209 0,-0.0901 -0.05372,-0.17175 -0.133986,-0.20407 -0.139993,-0.0548 -0.147425,-0.0618 -0.147425,-0.10832 0,-0.0551 0.03724,-0.13788 0.09079,-0.19841 0.09524,-0.11121 0.251572,-0.17309 0.430251,-0.17309 0.317238,0 0.50334,0.18435 0.50334,0.48684 0,0.26592 -0.132552,0.508 -0.449696,0.82454 -0.28141,0.28006 -0.45712,0.45729 -0.522581,0.52628 -0.137041,0.15057 -0.205557,0.2336 -0.372325,0.4418 v 0.10131 h 1.718343 l 0.07294,-0.77805"
       id="path21"
       style="stroke-width:0.0926381" />
    <path
       class="Fingering"
       d="m 129.21424,163.9977 c 0.34687,-0.11824 0.50697,-0.30259 0.50697,-0.59103 0,-0.37705 -0.30589,-0.61912 -0.77759,-0.61912 -0.44694,0 -0.78427,0.2491 -0.78427,0.5769 0,0.14776 0.10195,0.25187 0.25156,0.25187 0.13247,0 0.22491,-0.0872 0.22491,-0.21668 0,-0.0788 -0.0316,-0.12526 -0.11913,-0.18289 -0.0382,-0.0254 -0.0494,-0.0408 -0.0494,-0.0646 0,-0.10132 0.22013,-0.20965 0.4374,-0.20965 0.27541,0 0.42025,0.16182 0.42025,0.46855 0,0.3349 -0.14484,0.51078 -0.41548,0.51078 -0.0342,0 -0.10005,-0.002 -0.15628,-0.008 -0.0315,-0.002 -0.0609,-0.002 -0.0839,-0.002 -0.0801,0 -0.12198,0.0324 -0.12198,0.0971 0,0.0604 0.0372,0.0901 0.12198,0.0901 0.0229,0 0.0524,0 0.0867,-0.003 0.0772,-0.002 0.13818,-0.002 0.1801,-0.002 0.28113,0 0.43456,0.19 0.43456,0.54744 0,0.37426 -0.19059,0.58246 -0.53461,0.58246 -0.23919,0 -0.4984,-0.12237 -0.4984,-0.2335 0,-0.0324 0.009,-0.0393 0.0801,-0.0788 0.10576,-0.0618 0.1477,-0.12245 0.1477,-0.2125 0,-0.13086 -0.10292,-0.22794 -0.2392,-0.22794 -0.16389,0 -0.26968,0.1266 -0.26968,0.31799 0,0.34894 0.33735,0.58958 0.8262,0.58958 0.55272,0 0.91102,-0.287 0.91102,-0.73025 0,-0.33914 -0.18298,-0.54456 -0.57941,-0.64867"
       id="path22"
       style="stroke-width:0.0926381" />
    <path
       class="Fingering"
       d="m 170.89397,157.29677 c -0.53364,0 -0.9215,0.54735 -0.9215,1.30444 0,0.7415 0.37642,1.28462 0.89006,1.28462 0.53461,0 0.90815,-0.52485 0.90815,-1.2748 0,-0.38129 -0.0848,-0.69792 -0.24396,-0.94702 -0.14866,-0.22649 -0.39356,-0.36724 -0.63275,-0.36724 m -0.0268,0.15481 c 0.12482,0 0.24683,0.0788 0.33924,0.22368 0.10291,0.16886 0.13723,0.37437 0.13723,0.86822 0,0.50799 -0.0278,0.74572 -0.10291,0.90333 -0.0877,0.17733 -0.22491,0.2842 -0.36975,0.2842 -0.1296,0 -0.24872,-0.0787 -0.33924,-0.22224 -0.10674,-0.17029 -0.13724,-0.39263 -0.13724,-0.98357 0,-0.42217 0.0268,-0.63038 0.10291,-0.78942 0.0877,-0.18011 0.2249,-0.2842 0.36976,-0.2842"
       id="path23"
       style="stroke-width:0.0926381" />
    <path
       class="Fingering"
       d="m 212.68901,159.62178 h -0.16773 l -0.0391,0.18435 c -0.0486,0.23351 -0.0791,0.25468 -0.31543,0.25468 h -0.8529 c 0.26203,-0.25891 0.34973,-0.33491 0.59368,-0.51503 0.34686,-0.25188 0.49554,-0.37714 0.58226,-0.4855 0.12195,-0.15892 0.18295,-0.31652 0.18295,-0.49384 0,-0.41092 -0.35735,-0.70214 -0.85765,-0.70214 -0.48411,0 -0.85288,0.29122 -0.85288,0.67684 0,0.22793 0.12198,0.38273 0.30114,0.38273 0.14103,0 0.23631,-0.0901 0.23631,-0.2209 0,-0.0901 -0.0533,-0.17175 -0.13436,-0.20408 -0.13911,-0.0549 -0.14674,-0.0618 -0.14674,-0.10832 0,-0.0551 0.0372,-0.13787 0.0905,-0.19839 0.0952,-0.11122 0.25157,-0.17309 0.43073,-0.17309 0.31637,0 0.50317,0.18435 0.50317,0.48683 0,0.26592 -0.13247,0.508 -0.44979,0.82455 -0.28113,0.28007 -0.45742,0.45729 -0.52316,0.52628 -0.13627,0.15056 -0.20489,0.23358 -0.37164,0.4418 v 0.10131 h 1.71813 l 0.0724,-0.77808"
       id="path24"
       style="stroke-width:0.0926381" />
    <path
       class="StaffText"
       d="m 48.078973,146.68713 h 0.277016 c 0.480954,0.0182 0.671531,0.20262 0.723572,0.69792 l 0.02379,0.22937 c 0.05816,0.50934 0.233851,0.7162 0.61055,0.7162 0.390039,0 0.576247,-0.24764 0.591112,-0.78797 h -0.201074 c -0.01778,0.31095 -0.07583,0.44604 -0.203927,0.44604 -0.110159,0 -0.15781,-0.0774 -0.23824,-0.38697 l -0.07592,-0.2842 c -0.105682,-0.41373 -0.291891,-0.60365 -0.662579,-0.6937 0.686395,-0.0901 1.013928,-0.3504 1.013928,-0.80625 0,-0.51367 -0.457031,-0.80635 -1.258168,-0.80635 h -1.6483 v 0.21253 h 0.08641 c 0.270921,0.003 0.361834,0.0182 0.400525,0.0633 0.02824,0.0392 0.02824,0.0493 0.02824,0.27861 v 2.1486 c 0,0.22514 0,0.23361 -0.02824,0.27863 -0.03863,0.0452 -0.129604,0.0592 -0.400525,0.0592 h -0.08641 v 0.21109 h 1.563488 v -0.21113 h -0.08641 c -0.270918,0 -0.361736,-0.014 -0.400513,-0.0592 -0.02836,-0.0451 -0.02836,-0.0534 -0.02836,-0.27863 v -1.02714 m 0,-0.2111 v -0.99205 c -0.0087,-0.24764 0.01496,-0.26448 0.329143,-0.26025 h 0.25759 c 0.471992,0 0.686405,0.18859 0.686405,0.59795 0,0.47425 -0.268074,0.65435 -0.749019,0.65435 h -0.524115 m 3.231138,-0.62191 h 0.195064 l 0.757873,-0.43768 c 0.07592,-0.0452 0.123597,-0.11255 0.123597,-0.17441 0,-0.0901 -0.07147,-0.15762 -0.166764,-0.15762 -0.07592,0 -0.123594,0.0268 -0.238228,0.13932 l -0.671542,0.63039 m 1.338596,1.3958 c 0.0048,-0.67541 -0.400613,-1.15242 -0.981248,-1.15242 -0.610549,0 -1.067571,0.49954 -1.067571,1.17494 0,0.63461 0.433196,1.05814 1.076434,1.05814 0.457128,0 0.777322,-0.21109 0.972385,-0.63884 l -0.166763,-0.0858 c -0.195074,0.34617 -0.396137,0.48125 -0.714708,0.48125 -0.242715,0 -0.419963,-0.0943 -0.543557,-0.2969 -0.08486,-0.1351 -0.123499,-0.29268 -0.11912,-0.54032 h 1.544146 m -1.53967,-0.19416 c 0,-0.31519 0.153421,-0.76545 0.553946,-0.76545 0.285881,0 0.476468,0.23918 0.476468,0.60362 0,0.12661 -0.0432,0.16183 -0.196588,0.16183 h -0.833832"
       id="path25"
       style="stroke-width:0.0926381" />
    <path
       class="StaffText"
       d="m 90.579658,145.68123 h -1.228449 v 0.21252 h 0.09078 c 0.271018,0.003 0.361838,0.0183 0.39462,0.0633 0.03424,0.0393 0.03424,0.0451 0.03424,0.27864 v 1.72505 c 0,0.6121 -0.09077,0.73872 -0.553853,0.76125 v 0.21108 h 1.357938 v -0.21108 c -0.45712,-0.0225 -0.547922,-0.14915 -0.547922,-0.76125 v -1.991 l 1.134557,2.96333 h 0.190599 l 1.06338,-2.96333 v 2.40895 c 0,0.23072 0,0.23919 -0.02849,0.28422 -0.03913,0.0451 -0.1296,0.0592 -0.400223,0.0592 h -0.08671 v 0.21108 h 1.563787 v -0.21108 h -0.08671 c -0.270632,0 -0.362104,-0.014 -0.400224,-0.0592 -0.02849,-0.0452 -0.02849,-0.0493 -0.02849,-0.28422 v -2.143 c 0,-0.22939 0,-0.23928 0.02849,-0.27864 0.03819,-0.0452 0.129592,-0.059 0.400224,-0.0633 h 0.08671 v -0.21252 H 92.36797 l -0.872524,2.40057 -0.915673,-2.40057 m 3.869424,0.0324 c -0.153432,0 -0.276355,0.1168 -0.276355,0.26026 0,0.14498 0.122923,0.26179 0.272536,0.26179 0.15629,0 0.279205,-0.11681 0.279205,-0.26179 0,-0.14346 -0.122915,-0.26026 -0.275386,-0.26026 m 0.223939,1.12144 -0.894811,0.0493 v 0.19416 h 0.242046 c 0.180095,0.003 0.203926,0.0309 0.203926,0.22513 v 1.28752 c -0.0034,0.0675 -0.0087,0.0943 -0.02772,0.1168 -0.03338,0.0408 -0.123877,0.059 -0.329708,0.0633 h -0.03244 v 0.16183 h 1.234053 v -0.1619 h -0.03424 c -0.318277,-0.01 -0.36116,-0.0322 -0.36116,-0.19416 v -1.742"
       id="path26"
       style="stroke-width:0.0926381" />
    <path
       class="StaffText"
       d="m 175.53954,146.10123 h -0.17533 l -0.19058,0.27017 c -0.22966,-0.20262 -0.52889,-0.31105 -0.86812,-0.31105 -0.62799,0 -1.04253,0.37437 -1.04253,0.94143 0,0.49105 0.25634,0.73448 0.95772,0.90612 l 0.45264,0.10698 c 0.35257,0.0858 0.38595,0.0956 0.48503,0.16742 0.14295,0.10275 0.2211,0.25188 0.2211,0.42775 0,0.18011 -0.0734,0.32789 -0.21633,0.4545 -0.15628,0.12663 -0.31446,0.17588 -0.57652,0.17588 -0.71851,0 -1.07589,-0.49953 -1.19976,-1.10739 h -0.20583 l 0.0199,1.28327 h 0.18581 l 0.21442,-0.30672 c 0.31827,0.24764 0.58032,0.3377 1.00059,0.3377 0.69945,0 1.14827,-0.38697 1.14827,-0.99059 0,-0.28422 -0.0952,-0.5178 -0.28586,-0.68946 -0.12866,-0.1168 -0.31448,-0.19281 -0.69566,-0.28286 l -0.51077,-0.12238 c -0.42312,-0.10276 -0.62419,-0.27863 -0.62419,-0.55303 0,-0.31517 0.27256,-0.53186 0.67756,-0.53186 0.6137,0 0.95293,0.48117 1.08158,0.99482 h 0.20488 l -0.0581,-1.1707 m 1.74389,1.11299 c -0.58511,0 -1.03775,0.49106 -1.03775,1.12144 0,0.61633 0.45741,1.11163 1.02916,1.11163 0.57177,0 1.02823,-0.4953 1.02823,-1.11722 0,-0.61633 -0.45646,-1.11585 -1.01964,-1.11585 m 0,0.1928 c 0.33352,0 0.51934,0.32924 0.51934,0.92305 0,0.59941 -0.18582,0.92307 -0.52793,0.92307 -0.34305,0 -0.52888,-0.32366 -0.52888,-0.91748 0,-0.61344 0.1801,-0.92864 0.53747,-0.92864 m 2.15458,-1.34667 -0.88147,0.0508 v 0.19279 h 0.23348 c 0.17629,0.003 0.20012,0.0324 0.20012,0.22515 v 2.50882 c -0.003,0.0676 -0.01,0.0943 -0.0284,0.1168 -0.0343,0.0408 -0.12388,0.0592 -0.32879,0.0633 h -0.0332 v 0.16183 h 1.23312 v -0.16183 h -0.0324 c -0.31923,-0.01 -0.36211,-0.0322 -0.36211,-0.19416 v -2.96342"
       id="path27"
       style="stroke-width:0.0926381" />
    <path
       class="StaffText"
       d="m 217.98066,147.9668 h -0.20867 c -0.15818,0.81049 -0.3726,1.00887 -1.11114,1.023 h -0.2001 c -0.28589,-0.01 -0.35737,-0.0551 -0.34308,-0.21675 v -2.26964 c 0,-0.22512 0,-0.23918 0.0284,-0.27861 0.0382,-0.0452 0.1296,-0.0591 0.40025,-0.0632 h 0.0867 v -0.21243 h -1.56377 v 0.21243 h 0.0867 c 0.27065,0.003 0.36117,0.0182 0.39928,0.0632 0.0295,0.0395 0.0295,0.0492 0.0295,0.27861 v 2.14303 c 0,0.23079 0,0.23918 -0.0295,0.27997 -0.0382,0.0451 -0.12863,0.0634 -0.39928,0.0634 h -0.0867 v 0.21101 h 2.81117 l 0.10005,-1.23402 m 2.22036,-0.21523 c 0,-0.28429 -0.0524,-0.42776 -0.19059,-0.53619 -0.15724,-0.12237 -0.3907,-0.18009 -0.69564,-0.18009 -0.53746,0 -0.92912,0.23782 -0.92912,0.56706 0,0.16607 0.10959,0.27441 0.27635,0.27441 0.15247,0 0.25827,-0.0943 0.25827,-0.22938 0,-0.059 -0.0238,-0.12094 -0.0716,-0.18434 -0.0295,-0.0323 -0.0342,-0.0408 -0.0342,-0.0633 0,-0.09 0.19058,-0.17164 0.41931,-0.17164 0.15244,0 0.31922,0.0452 0.39545,0.11257 0.0905,0.0732 0.12484,0.18011 0.12484,0.38274 v 0.17587 c -0.49649,0.0816 -0.65373,0.11682 -0.88718,0.20262 -0.41454,0.145 -0.60991,0.35174 -0.60991,0.64029 0,0.32355 0.26684,0.5262 0.6909,0.5262 0.32972,0 0.62418,-0.12663 0.83,-0.356 0.0751,0.22937 0.19441,0.31941 0.41836,0.31941 0.21439,0 0.4393,-0.12938 0.4393,-0.26033 0,-0.0323 -0.0199,-0.0548 -0.0477,-0.0548 -0.02,0 -0.0391,0.004 -0.0716,0.0182 -0.0677,0.0268 -0.0952,0.0324 -0.13438,0.0324 -0.13341,0 -0.18105,-0.0817 -0.18105,-0.31102 v -0.90471 m -0.44693,0.5487 c 0,0.27017 -0.0154,0.33348 -0.0953,0.45028 -0.11911,0.16606 -0.33354,0.27863 -0.54413,0.27863 -0.21822,0 -0.37643,-0.14778 -0.37643,-0.35039 0,-0.18995 0.10007,-0.32502 0.30972,-0.41931 0.14769,-0.0634 0.33352,-0.10835 0.70613,-0.16606 v 0.20685"
       id="path28"
       style="stroke-width:0.0926381" />
    <path
       class="StaffText"
       d="m 134.53262,146.01235 h -2.83501 v 0.21245 h 0.0848 c 0.27253,0.003 0.36402,0.0184 0.40118,0.0634 0.0278,0.0393 0.0278,0.0492 0.0278,0.27852 v 2.14302 c 0,0.23082 0,0.2392 -0.0278,0.28007 -0.0372,0.0452 -0.12865,0.0633 -0.40118,0.0633 h -0.0848 v 0.211 h 1.63333 v -0.211 h -0.15628 c -0.27254,0 -0.36116,-0.0182 -0.40023,-0.0633 -0.0284,-0.041 -0.0284,-0.0549 -0.0284,-0.28007 v -1.02157 h 0.0953 c 0.4898,-0.0182 0.66705,0.14921 0.68706,0.64875 h 0.22298 v -1.47752 h -0.22298 c -0.0306,0.4419 -0.21441,0.61212 -0.66705,0.61778 h -0.11531 v -1.02725 c -0.003,-0.18992 0.0439,-0.2209 0.29922,-0.22513 h 0.22108 c 0.78142,-0.003 0.97677,0.16182 1.12352,0.93717 h 0.2106 l -0.0677,-1.14962 m 2.13364,1.80252 c 0,-0.2843 -0.0515,-0.42774 -0.19059,-0.53608 -0.15628,-0.12248 -0.38975,-0.18012 -0.69468,-0.18012 -0.53747,0 -0.92912,0.23775 -0.92912,0.567 0,0.16605 0.10958,0.27439 0.27635,0.27439 0.15247,0 0.25823,-0.0943 0.25823,-0.22939 0,-0.059 -0.0238,-0.12092 -0.0715,-0.18423 -0.0306,-0.0324 -0.0342,-0.0407 -0.0342,-0.0634 0,-0.0901 0.19058,-0.17164 0.41929,-0.17164 0.15246,0 0.31924,0.0451 0.39453,0.11257 0.0914,0.0732 0.12579,0.18012 0.12579,0.38273 v 0.17588 c -0.4965,0.0817 -0.65373,0.1168 -0.88814,0.20263 -0.41358,0.14498 -0.60894,0.35182 -0.60894,0.64027 0,0.32356 0.26682,0.52618 0.6909,0.52618 0.3297,0 0.62416,-0.12661 0.83001,-0.35598 0.0751,0.22937 0.19437,0.31943 0.41833,0.31943 0.21442,0 0.4393,-0.1294 0.4393,-0.26026 0,-0.0324 -0.0199,-0.0551 -0.0477,-0.0551 -0.0199,0 -0.0391,0.004 -0.0715,0.0182 -0.0677,0.0268 -0.0952,0.0323 -0.13435,0.0323 -0.13437,0 -0.18203,-0.0817 -0.18203,-0.31096 v -0.90477 m -0.44596,0.54871 c 0,0.27016 -0.0154,0.33355 -0.0953,0.45027 -0.11912,0.16606 -0.33352,0.27861 -0.54412,0.27861 -0.21823,0 -0.37641,-0.14767 -0.37641,-0.35031 0,-0.19001 0.10005,-0.32509 0.3097,-0.41937 0.1477,-0.0633 0.33352,-0.10833 0.70612,-0.16597 v 0.20677"
       id="path29"
       style="stroke-width:0.0926381" />
    <rect
       style="fill:#333333;fill-rule:evenodd;stroke-width:1.60009;stroke-linecap:round;stroke-linejoin:bevel"
       id="rect7-8-8"
       width="185.83148"
       height="1.0562454"
       x="92.082985"
       y="73.215019"
       transform="matrix(0.98789577,0.15511912,-0.17559201,0.98446302,0,0)" />
    <text
       xml:space="preserve"
       style="font-size:9.83251px;fill:#ffffff;fill-rule:evenodd;stroke-width:0.435108;stroke-linecap:round;stroke-linejoin:bevel;stroke-dasharray:none"
       x="107.64883"
       y="135.17667"
       id="text7"
       transform="matrix(0.93857199,-0.3549999,0.3583001,0.92992707,0,0)"><tspan
         sodipodi:role="line"
         id="tspan7"
         style="font-style:normal;font-variant:normal;font-weight:normal;font-stretch:normal;font-size:9.83251px;font-family:'Adobe Arabic';-inkscape-font-specification:'Adobe Arabic';fill:#ffffff;stroke:#666666;stroke-width:0.435108;stroke-dasharray:none"
         x="107.64883"
         y="135.17667">Mi</tspan></text>
    <text
       xml:space="preserve"
       style="font-size:10.925px;fill:#ffffff;fill-rule:evenodd;stroke-width:0.435108;stroke-linecap:round;stroke-linejoin:bevel;stroke-dasharray:none"
       x="150.55869"
       y="152.03123"
       id="text7-2"
       transform="matrix(0.94731757,-0.33141237,0.33449329,0.9385921,0,0)"><tspan
         sodipodi:role="line"
         id="tspan7-3"
         style="font-style:normal;font-variant:normal;font-weight:normal;font-stretch:normal;font-size:10.925px;font-family:'Adobe Arabic';-inkscape-font-specification:'Adobe Arabic';fill:#ffffff;stroke:#666666;stroke-width:0.435108;stroke-dasharray:none"
         x="150.55869"
         y="152.03123">Fa</tspan></text>
    <text
       xml:space="preserve"
       style="font-size:10.925px;fill:#ffffff;fill-rule:evenodd;stroke-width:0.435108;stroke-linecap:round;stroke-linejoin:bevel;stroke-dasharray:none"
       x="123.65915"
       y="128.68112"
       id="text7-2-4"
       transform="matrix(0.94731757,-0.33141237,0.33449329,0.9385921,0,0)"><tspan
         sodipodi:role="line"
         id="tspan7-3-6"
         style="font-style:normal;font-variant:normal;font-weight:normal;font-stretch:normal;font-size:10.925px;font-family:'Adobe Arabic';-inkscape-font-specification:'Adobe Arabic';fill:#ffffff;stroke:#666666;stroke-width:0.435108;stroke-dasharray:none"
         x="123.65915"
         y="128.68112">La</tspan></text>
    <text
       xml:space="preserve"
       style="font-size:10.925px;fill:#ffffff;fill-rule:evenodd;stroke-width:0.435108;stroke-linecap:round;stroke-linejoin:bevel;stroke-dasharray:none"
       x="42.578041"
       y="97.713875"
       id="text7-2-4-6"
       transform="matrix(0.94731757,-0.33141237,0.33449329,0.9385921,0,0)"><tspan
         sodipodi:role="line"
         id="tspan7-3-6-8"
         style="font-style:normal;font-variant:normal;font-weight:normal;font-stretch:normal;font-size:10.925px;font-family:'Adobe Arabic';-inkscape-font-specification:'Adobe Arabic';fill:#ffffff;stroke:#666666;stroke-width:0.435108;stroke-dasharray:none"
         x="42.578041"
         y="97.713875">Ré</tspan></text>
    <text
       xml:space="preserve"
       style="font-size:10.925px;fill:#ffffff;fill-rule:evenodd;stroke-width:0.435108;stroke-linecap:round;stroke-linejoin:bevel;stroke-dasharray:none"
       x="48.196106"
       y="88.70636"
       id="text7-2-1"
       transform="matrix(0.94731757,-0.33141237,0.33449329,0.9385921,0,0)"><tspan
         sodipodi:role="line"
         id="tspan7-3-8"
         style="font-style:normal;font-variant:normal;font-weight:normal;font-stretch:normal;font-size:10.925px;font-family:'Adobe Arabic';-inkscape-font-specification:'Adobe Arabic';fill:#ffffff;stroke:#666666;stroke-width:0.435108;stroke-dasharray:none"
         x="48.196106"
         y="88.70636">Sol</tspan></text>
    <path
       fill="#000000"
       d="M 69.568833,50.242084 20.408976,40.07939 13.948591,55.737253 18.048973,73.113019 67.514758,78.993575 66.789186,64.332728 Z m -6.55759,-13.527962 c 0.357572,-5.00509 -8.897932,-6.510671 -9.255505,-1.505574 l -0.09447,1.322177 4.498633,2.56018 4.756872,-1.054606 z m -3.719786,52.066899 -4.498624,-2.56018 -4.756863,1.054614 -0.09436,1.320785 c -0.357573,5.005096 8.897923,6.510679 9.255504,1.505583 z M 59.010673,54.066063 a 2.2541234,1.8953757 80.885869 0 1 -2.057481,1.91565 2.2541234,1.8953757 80.885869 0 1 -1.739642,-2.533323 2.2541234,1.8953757 80.885869 0 1 2.05749,-1.915649 2.2541234,1.8953757 80.885869 0 1 1.739633,2.533322 z M 57.73929,71.861962 a 2.2541234,1.8953757 80.885869 0 1 -2.057481,1.915651 2.2541234,1.8953757 80.885869 0 1 -1.739642,-2.533322 2.2541234,1.8953757 80.885869 0 1 2.057481,-1.915649 2.2541234,1.8953757 80.885869 0 1 1.739642,2.53332 z m 1.330726,-30.388136 -0.756552,0.172289 -0.342177,0.08498 -1.038142,-0.590809 -0.278115,3.892855 2.128924,0.444755 z m -2.765247,38.706067 -2.142834,-0.250123 -0.279111,3.906768 0.756561,-0.172277 0.342177,-0.08497 1.038141,0.590823 z M 47.862464,33.687322 c 0.357573,-5.005097 -8.897932,-6.510678 -9.255504,-1.505581 l -0.09446,1.322177 4.498624,2.560186 4.756881,-1.054612 z m -3.799252,53.17914 -4.498615,-2.560189 -4.75688,1.054614 -0.09436,1.320777 c -0.357581,5.005104 8.897923,6.510671 9.255496,1.505575 z m -0.24105,-35.271081 a 2.2541234,1.8953757 80.885869 0 1 -2.057482,1.915649 2.2541234,1.8953757 80.885869 0 1 -1.739642,-2.533323 2.2541234,1.8953757 80.885869 0 1 2.057482,-1.915649 2.2541234,1.8953757 80.885869 0 1 1.739642,2.533323 z m -1.271375,17.795893 a 2.2541234,1.8953757 80.885869 0 1 -2.05749,1.915644 2.2541234,1.8953757 80.885869 0 1 -1.739651,-2.533316 2.2541234,1.8953757 80.885869 0 1 2.057508,-1.915644 2.2541234,1.8953757 80.885869 0 1 1.739633,2.533316 z m 1.370055,-30.938699 -0.756148,0.166758 -0.342185,0.08499 -1.038142,-0.590809 -0.271164,3.795528 2.128932,0.444764 z m -2.85126,39.91008 -2.142843,-0.250123 -0.272159,3.809431 0.756551,-0.172289 0.342186,-0.08498 1.038142,0.590815 z M 32.713686,30.660508 c 0.357572,-5.005096 -8.897924,-6.510671 -9.255496,-1.505574 l -0.09447,1.322178 4.498624,2.560186 4.75688,-1.054607 z m -3.878701,54.291378 -4.498633,-2.56018 -4.756872,1.054611 -0.09436,1.320795 c -0.357581,5.005088 8.897923,6.510671 9.255496,1.505567 z M 28.633667,49.124691 a 2.2541234,1.8953757 80.885869 0 1 -2.057507,1.915651 2.2541234,1.8953757 80.885869 0 1 -1.739634,-2.533322 2.2541234,1.8953757 80.885869 0 1 2.057491,-1.915651 2.2541234,1.8953757 80.885869 0 1 1.73965,2.533322 z m -1.271383,17.7959 a 2.2541234,1.8953757 80.885869 0 1 -2.05749,1.915644 2.2541234,1.8953757 80.885869 0 1 -1.739642,-2.533315 2.2541234,1.8953757 80.885869 0 1 2.057481,-1.91565 2.2541234,1.8953757 80.885869 0 1 1.739651,2.533321 z m 1.40948,-31.490651 -0.756252,0.168129 -0.341688,0.07802 -1.03815,-0.590808 -0.264298,3.699599 2.129919,0.430852 z m -2.938373,41.12938 -2.14184,-0.264027 -0.265208,3.712106 0.756552,-0.172289 0.342185,-0.08498 1.038142,0.590815 z"
       id="path1"
       style="stroke-width:0.129187" />
  </g>
</svg>
