<?xml version="1.0" encoding="UTF-8" standalone="no"?>
<svg
   width="297mm"
   height="210mm"
   viewBox="0 0 4209.4489 2976.378"
   version="1.2"
   id="svg92"
   sodipodi:docname="accord_mi_mineur.svg"
   inkscape:version="1.2.2 (b0a8486541, 2022-12-01)"
   xmlns:inkscape="http://www.inkscape.org/namespaces/inkscape"
   xmlns:sodipodi="http://sodipodi.sourceforge.net/DTD/sodipodi-0.dtd"
   xmlns="http://www.w3.org/2000/svg"
   xmlns:svg="http://www.w3.org/2000/svg"
   xmlns:rdf="http://www.w3.org/1999/02/22-rdf-syntax-ns#"
   xmlns:cc="http://creativecommons.org/ns#"
   xmlns:dc="http://purl.org/dc/elements/1.1/">
  <defs
     id="defs96" />
  <sodipodi:namedview
     id="namedview94"
     pagecolor="#ffffff"
     bordercolor="#000000"
     borderopacity="0.25"
     inkscape:showpageshadow="2"
     inkscape:pageopacity="0.0"
     inkscape:pagecheckerboard="0"
     inkscape:deskcolor="#d1d1d1"
     inkscape:document-units="mm"
     showgrid="false"
     inkscape:zoom="1.930581"
     inkscape:cx="423.44766"
     inkscape:cy="333.06036"
     inkscape:window-width="1104"
     inkscape:window-height="552"
     inkscape:window-x="0"
     inkscape:window-y="32"
     inkscape:window-maximized="1"
     inkscape:current-layer="svg92" />
  <title
     id="title2">accord_mi_mineur</title>
  <desc
     id="desc4">Generated by MuseScore Studio 4.5.2</desc>
  <polyline
     class="StaffLines"
     fill="none"
     stroke="#000000"
     stroke-width="2.73"
     stroke-linejoin="bevel"
     points="336.598,667.478 821.83,667.478"
     id="polyline6"
     transform="matrix(4,0,0,4,-172.26181,-686.3354)" />
  <polyline
     class="StaffLines"
     fill="none"
     stroke="#000000"
     stroke-width="2.73"
     stroke-linejoin="bevel"
     points="336.598,692.278 821.83,692.278"
     id="polyline8"
     transform="matrix(4,0,0,4,-172.26181,-686.3354)" />
  <polyline
     class="StaffLines"
     fill="none"
     stroke="#000000"
     stroke-width="2.73"
     stroke-linejoin="bevel"
     points="336.598,717.078 821.83,717.078"
     id="polyline10"
     transform="matrix(4,0,0,4,-172.26181,-686.3354)" />
  <polyline
     class="StaffLines"
     fill="none"
     stroke="#000000"
     stroke-width="2.73"
     stroke-linejoin="bevel"
     points="336.598,741.878 821.83,741.878"
     id="polyline12"
     transform="matrix(4,0,0,4,-172.26181,-686.3354)" />
  <polyline
     class="StaffLines"
     fill="none"
     stroke="#000000"
     stroke-width="2.73"
     stroke-linejoin="bevel"
     points="336.598,766.678 821.83,766.678"
     id="polyline14"
     transform="matrix(4,0,0,4,-172.26181,-686.3354)" />
  <polyline
     class="BarLine"
     fill="none"
     stroke="#000000"
     stroke-width="4.46"
     stroke-linejoin="bevel"
     points="796.782,666.114 796.782,768.042"
     id="polyline18"
     transform="matrix(4,0,0,4,-172.26181,-686.3354)" />
  <polyline
     class="BarLine"
     fill="none"
     stroke="#000000"
     stroke-width="13.64"
     stroke-linejoin="bevel"
     points="815.01,666.114 815.01,768.042"
     id="polyline20"
     transform="matrix(4,0,0,4,-172.26181,-686.3354)" />
  <path
     class="Arpeggio"
     d="m 1965.8422,1955.7724 c -15.066,43.2762 -45.632,110.3602 -45.632,113.0882 0,2.418 1.612,5.58 4.34,5.58 l 0.434,-0.372 c 7.13,-3.968 39.2462,-13.516 40.858,-13.516 1.6122,0 34.1002,10.292 39.68,13.516 l 0.372,0.372 c 2.7899,0 4.7739,-3.162 4.7739,-5.58 0,-2.728 -29.76,-69.812 -44.8261,-113.0882"
     id="path22"
     style="stroke-width:3.968" />
  <polyline
     class="Arpeggio"
     fill="none"
     stroke="#000000"
     stroke-width="4.46"
     stroke-linejoin="bevel"
     points="534.433,675.368 534.433,872.815"
     id="polyline24"
     transform="matrix(4,0,0,4,-172.26181,-686.3354)" />
  <polyline
     class="LedgerLine"
     fill="none"
     stroke="#000000"
     stroke-width="3.97"
     stroke-linejoin="bevel"
     points="552.087,791.478 600.68,791.478"
     id="polyline26"
     transform="matrix(4,0,0,4,-172.26181,-686.3354)" />
  <polyline
     class="LedgerLine"
     fill="none"
     stroke="#000000"
     stroke-width="3.97"
     stroke-linejoin="bevel"
     points="552.087,816.278 600.68,816.278"
     id="polyline28"
     transform="matrix(4,0,0,4,-172.26181,-686.3354)" />
  <polyline
     class="LedgerLine"
     fill="none"
     stroke="#000000"
     stroke-width="3.97"
     stroke-linejoin="bevel"
     points="552.087,841.078 600.68,841.078"
     id="polyline30"
     transform="matrix(4,0,0,4,-172.26181,-686.3354)" />
  <polyline
     class="Stem"
     fill="none"
     stroke="#000000"
     stroke-width="2.48"
     stroke-linejoin="bevel"
     points="591.256,849.51 591.256,617.878"
     id="polyline32"
     transform="matrix(4,0,0,4,-172.26181,-686.3354)" />
  <path
     class="Note"
     d="m 2068.8222,2049.8546 c 0,17.05 12.276,36.0841 44.4539,36.0841 41.2303,0 84.5061,-33.7281 84.5061,-68.6341 0,-23.436 -19.84,-36.5179 -44.4539,-36.5179 -38.5019,0 -84.5061,32.5499 -84.5061,69.0679"
     id="path34"
     style="stroke-width:3.968" />
  <path
     class="Note"
     d="m 2068.8222,2198.6546 c 0,17.05 12.276,36.0841 44.4539,36.0841 41.2303,0 84.5061,-33.7281 84.5061,-68.6341 0,-23.436 -19.84,-36.5179 -44.4539,-36.5179 -38.5019,0 -84.5061,32.5499 -84.5061,69.0679"
     id="path36"
     style="stroke-width:3.968" />
  <path
     class="Note"
     d="m 2068.8222,2744.2546 c 0,17.05 12.276,36.0841 44.4539,36.0841 41.2303,0 84.5061,-33.7281 84.5061,-68.6341 0,-23.436 -19.84,-36.5179 -44.4539,-36.5179 -38.5019,0 -84.5061,32.5499 -84.5061,69.0679"
     id="path38"
     style="stroke-width:3.968" />
  <path
     class="Note"
     d="m 2068.8222,2542.9546 c 0,17.05 12.276,36.0841 44.4539,36.0841 41.2303,0 84.5061,-33.7281 84.5061,-68.6341 0,-23.436 -19.84,-36.5179 -44.4539,-36.5179 -38.5019,0 -84.5061,32.5499 -84.5061,69.0679"
     id="path40"
     style="stroke-width:3.968" />
  <path
     class="Note"
     d="m 2068.8222,2397.0546 c 0,17.05 12.276,36.0841 44.4539,36.0841 41.2303,0 84.5061,-33.7281 84.5061,-68.6341 0,-23.436 -19.84,-36.5179 -44.4539,-36.5179 -38.5019,0 -84.5061,32.5499 -84.5061,69.0679"
     id="path42"
     style="stroke-width:3.968" />
  <path
     class="Note"
     d="m 2068.8222,2297.8546 c 0,17.05 12.276,36.0841 44.4539,36.0841 41.2303,0 84.5061,-33.7281 84.5061,-68.6341 0,-23.436 -19.84,-36.5179 -44.4539,-36.5179 -38.5019,0 -84.5061,32.5499 -84.5061,69.0679"
     id="path44"
     style="stroke-width:3.968" />
  <path
     class="Clef"
     d="m 1416.3643,2565.6945 c 0,-14.6939 -13.4539,-21.0177 -26.536,-21.0177 -16.6779,0 -32.984,10.2918 -32.984,28.1478 0,7.5642 2.7899,13.144 8.3701,18.6619 -10.3541,3.968 -20.6463,11.904 -20.6463,24.2421 0,13.0821 11.904,21.824 29.3882,21.824 21.3899,0 36.456,-11.904 36.456,-29.016 0,-9.1141 -3.968,-16.616 -11.0981,-21.824 11.5322,-5.1461 17.0501,-11.4699 17.0501,-21.0181 m -39.68,63.488 c -8.68,0 -14.632,-5.5179 -14.632,-13.888 0,-7.936 3.5339,-14.2598 10.2918,-18.2278 1.6122,0.8059 1.984,0.8059 3.1621,1.5499 4.7739,2.4181 4.7739,2.4181 5.5802,3.224 7.5019,4.3402 10.7259,8.3082 10.7259,13.888 0,7.5019 -6.3861,13.4539 -15.128,13.4539 m 15.128,-47.616 c -5.952,-3.1617 -7.5642,-3.968 -8.7419,-4.7739 l -0.8063,-0.372 c -5.952,-3.5962 -7.936,-6.3861 -7.936,-11.0981 0,-7.192 5.5802,-12.3381 13.5162,-12.3381 7.5019,0 12.2758,4.7739 12.2758,13.0821 0,6.3861 -2.3558,10.7259 -8.3078,15.4998 m 110.6699,-301.1957 c 0,-59.8921 -42.4699,-100.378 -100.3781,-100.378 -3.968,-23.808 -7.5638,-47.2442 -11.0977,-69.44 41.664,-44.0821 70.9899,-94.0539 70.9899,-156.736 0,-36.1461 -11.0981,-65.472 -17.856,-79.7925 -9.4859,-20.213 -21.0181,-34.101 -27.776,-34.101 -2.728,0 -15.4379,4.7735 -28.1482,20.213 -25.792,30.1925 -32.9217,80.5365 -32.9217,113.8923 0,21.4522 1.984,40.8581 8.7419,85.7461 -0.4341,0 -21.08,21.0181 -29.3882,28.1482 -36.1457,33.3558 -86.1179,81.7158 -86.1179,160.7039 0,74.5862 64.6661,132.9281 138.5082,132.9281 11.4699,0 22.1958,-1.1781 31.744,-2.7899 7.1297,37.7579 11.904,65.9057 11.904,86.9238 0,41.2922 -21.4522,63.1162 -61.504,63.1162 -9.5482,0 -17.856,-1.984 -18.6623,-2.4181 -0.372,0 -1.1777,-0.372 -1.1777,-0.744 0,-0.8059 0.8059,-1.24 1.984,-1.6122 18.6619,-2.7899 37.2619,-19.0337 37.2619,-44.0198 0,-21.4522 -16.2442,-44.0821 -46.0042,-44.0821 -27.776,0 -45.2598,22.6299 -45.2598,48.7941 0,26.2261 19.84,60.76 73.408,60.76 51.2118,0 76.1979,-29.016 76.1979,-79.7941 0,-15.4379 -2.3558,-33.2939 -6.3238,-55.9238 -1.1781,-7.936 -3.1621,-20.2741 -5.952,-35.3402 38.8737,-13.0821 67.8278,-53.1958 67.8278,-94.054 m -122.2021,-325.3759 c 3.968,-15.872 21.824,-57.536 42.4703,-57.536 5.952,0 15.872,19.0337 15.872,46.8097 0,40.8581 -30.9381,71.8581 -58.3423,99.2 -2.3558,-15.872 -4.3398,-31.744 -4.3398,-47.9878 0,-15.0661 1.5499,-28.2101 4.3398,-40.4859 m 11.904,410.3158 c -56.7297,0 -105.1519,-39.68 -105.1519,-99.6339 0,-48.3602 34.1001,-91.636 69.0681,-122.2019 6.696,-5.5802 13.0821,-11.0981 19.0341,-17.0501 3.5339,21.3899 6.3238,39.68 9.1137,56.3579 -36.1457,10.2922 -60.6977,48.7941 -60.6977,85.6841 0,28.21 21.824,66.278 53.568,66.278 3.1617,0 6.7579,-1.6118 6.7579,-5.5798 0,-3.1621 -3.5962,-5.5183 -8.7419,-8.6802 -15.5002,-9.176 -24.2421,-19.84 -24.2421,-38.936 0,-24.18 18.2901,-43.6482 41.2918,-49.1661 l 23.0021,130.1381 c -7.936,1.6122 -15.0661,2.7899 -23.0021,2.7899 m 39.68,-7.5638 c -8.3078,-47.1821 -19.0337,-110.2981 -21.824,-127.7823 40.0522,0 57.1642,27.7762 60.6981,46.8722 0.4341,3.162 1.1781,7.502 1.1781,12.276 0,28.582 -11.904,57.1642 -40.0522,68.6341"
     id="path46"
     style="stroke-width:3.968" />
  <path
     class="TimeSig"
     d="m 1678.6243,2133.1825 v 29.3263 h -32.9221 c -2.7899,0 -5.5798,2.4177 -5.5798,5.5798 v 7.5642 c 0,3.1617 2.7899,5.5179 5.5798,5.5179 h 120.2181 c 3.224,0 5.5798,-2.3562 5.5798,-5.5179 v -7.5642 c 0,-3.1621 -2.3558,-5.5798 -5.5798,-5.5798 h -35.712 v -29.3263 h 35.712 c 3.224,0 5.5798,-2.7899 5.5798,-5.952 v -7.5639 c 0,-2.79 -2.3558,-5.518 -5.5798,-5.518 h -35.712 v -63.116 c 0,-2.356 -1.1781,-4.34 -2.728,-5.146 l -4.7739,-2.418 c -0.8063,-0.372 -1.1781,-0.372 -1.984,-0.372 -0.4341,0 -0.4341,0 -0.8063,0 -1.1777,0 -2.7899,0.372 -3.5958,1.178 l -36.0842,32.922 c -1.1777,1.24 -1.6118,2.79 -1.6118,4.402 v 32.55 h -46.0041 c 0,0 44.4542,-47.616 91.2639,-110.3602 1.6122,-1.984 1.984,-3.968 1.984,-5.5179 0,-1.984 -0.8059,-3.5958 -1.1777,-3.968 l -8.7423,-8.7419 c -1.1777,-0.8059 -2.3558,-1.6122 -3.968,-1.6122 -2.3558,0 -55.9857,0 -59.1478,0 -2.7899,0 -4.7739,2.4181 -5.1461,4.7743 0,0 -1.984,29.3878 -12.276,61.5039 -10.354,32.178 -22.258,52.018 -32.55,66.65 0,0 -1.178,1.984 -1.178,4.402 0,0.806 0,1.5502 0.372,2.3561 1.178,2.7899 3.968,7.1301 3.968,7.1301 0,0 0.806,2.4177 4.34,2.4177 h 68.2621"
     id="path48"
     style="stroke-width:3.968" />
  <path
     class="TimeSig"
     d="m 1678.6243,2331.5825 v 29.3263 h -32.9221 c -2.7899,0 -5.5798,2.4177 -5.5798,5.5798 v 7.5642 c 0,3.1617 2.7899,5.5179 5.5798,5.5179 h 120.2181 c 3.224,0 5.5798,-2.3562 5.5798,-5.5179 v -7.5642 c 0,-3.1621 -2.3558,-5.5798 -5.5798,-5.5798 h -35.712 v -29.3263 h 35.712 c 3.224,0 5.5798,-2.7899 5.5798,-5.952 v -7.5639 c 0,-2.79 -2.3558,-5.518 -5.5798,-5.518 h -35.712 v -63.116 c 0,-2.356 -1.1781,-4.34 -2.728,-5.146 l -4.7739,-2.418 c -0.8063,-0.372 -1.1781,-0.372 -1.984,-0.372 -0.4341,0 -0.4341,0 -0.8063,0 -1.1777,0 -2.7899,0.372 -3.5958,1.178 l -36.0842,32.922 c -1.1777,1.24 -1.6118,2.79 -1.6118,4.402 v 32.55 h -46.0041 c 0,0 44.4542,-47.616 91.2639,-110.3602 1.6122,-1.984 1.984,-3.968 1.984,-5.5179 0,-1.984 -0.8059,-3.5958 -1.1777,-3.968 l -8.7423,-8.7419 c -1.1777,-0.8059 -2.3558,-1.6122 -3.968,-1.6122 -2.3558,0 -55.9857,0 -59.1478,0 -2.7899,0 -4.7739,2.4181 -5.1461,4.7743 0,0 -1.984,29.3878 -12.276,61.5039 -10.354,32.178 -22.258,52.018 -32.55,66.65 0,0 -1.178,1.984 -1.178,4.402 0,0.806 0,1.5502 0.372,2.3561 1.178,2.7899 3.968,7.1301 3.968,7.1301 0,0 0.806,2.4177 4.34,2.4177 h 68.2621"
     id="path50"
     style="stroke-width:3.968" />
  <path
     class="Rest"
     d="m 2427.8342,2247.8208 c -0.3716,-0.372 -1.1781,-1.1781 -2.3558,-2.728 l -45.632,-56.3582 c -0.4341,-0.434 -0.8063,-1.612 -0.8063,-2.418 0,-1.178 0.372,-2.728 0.8063,-3.534 l 40.424,-61.1319 c 0.4337,-0.8063 0.8059,-1.984 0.8059,-2.7903 v -3.5339 c 0,-1.1781 -0.372,-2.4181 -1.1781,-3.1621 l -64.294,-86.9238 c 0,0 -1.55,-2.4181 -3.968,-2.4181 -1.178,0 -1.984,0.4341 -3.162,1.24 -1.612,1.1781 -1.984,2.728 -1.984,3.968 0,2.3562 1.178,4.3402 1.178,4.3402 l 30.1942,41.2918 c 0.744,1.1781 1.1777,2.728 1.1777,4.712 0,1.6122 -0.4337,3.5962 -1.1777,4.7739 l -40.1142,61.1322 c -0.372,0.806 -0.806,2.356 -0.806,3.162 v 3.596 c 0,1.178 0.434,2.356 1.24,3.162 l 44.3922,55.18 c -1.5503,-0.434 -5.1461,-1.24 -9.9202,-1.24 -6.696,0 -15.438,1.612 -22.568,7.936 -8.742,7.9362 -13.516,19.0962 -13.516,29.0162 0,5.5179 1.178,11.0977 4.34,15.4379 8.37,12.7099 38.1299,50.4059 38.1299,50.4059 0,0 1.984,2.4181 4.7743,2.4181 0.744,0 1.5499,0 2.3558,-0.8059 1.984,-1.6122 2.7899,-3.1621 2.7899,-4.7743 0,-1.6118 -0.8059,-2.7899 -1.1777,-3.5958 -1.24,-1.984 -13.8882,-24.9861 -13.8882,-24.9861 0,0 -2.79,-5.5798 -2.79,-12.7099 0,-5.1461 1.55,-11.4699 6.7582,-16.6779 4.712,-4.712 10.2918,-6.3242 15.4379,-6.3242 5.1461,0 9.5478,1.6122 12.7099,3.5962 l 15.5002,9.92 c 0,0 1.5499,0.744 3.1617,0.744 1.5503,0 2.7903,-0.372 3.968,-1.984 0.8063,-1.5503 1.1781,-2.3562 1.1781,-3.5343 0,-1.1777 -0.3716,-1.984 -1.1781,-3.1617 l -0.8059,-1.24"
     id="path52"
     style="stroke-width:3.968" />
  <path
     class="Rest"
     d="m 2604.3182,2178.0086 c 0,5.58 0,5.58 5.58,5.58 h 117.8621 c 5.5179,0 5.5179,0 5.5179,-5.58 v -42.8421 c 0,-5.5798 0,-5.5798 -5.5179,-5.5798 h -117.8621 c -5.58,0 -5.58,0 -5.58,5.5798 v 42.8421"
     id="path54"
     style="stroke-width:3.968" />
  <polyline
     class="FretDiagram"
     fill="none"
     stroke="#000000"
     stroke-width="7.44"
     stroke-linejoin="bevel"
     points="531.991,533.31 620.775,533.31"
     id="polyline58"
     transform="matrix(8,0,0,8,-2462.3219,-3324.0058)" />
  <polyline
     class="FretDiagram"
     fill="none"
     stroke="#000000"
     stroke-width="1.98"
     stroke-linejoin="bevel"
     points="532.983,536.038 532.983,606.47"
     id="polyline60"
     transform="matrix(8,0,0,8,-2462.3219,-3324.0058)" />
  <polyline
     class="FretDiagram"
     fill="none"
     stroke="#000000"
     stroke-width="1.98"
     stroke-linejoin="bevel"
     points="550.343,536.038 550.343,606.47"
     id="polyline62"
     transform="matrix(8,0,0,8,-2462.3219,-3324.0058)" />
  <polyline
     class="FretDiagram"
     fill="none"
     stroke="#000000"
     stroke-width="1.98"
     stroke-linejoin="bevel"
     points="567.703,536.038 567.703,606.47"
     id="polyline64"
     transform="matrix(8,0,0,8,-2462.3219,-3324.0058)" />
  <polyline
     class="FretDiagram"
     fill="none"
     stroke="#000000"
     stroke-width="1.98"
     stroke-linejoin="bevel"
     points="585.063,536.038 585.063,606.47"
     id="polyline66"
     transform="matrix(8,0,0,8,-2462.3219,-3324.0058)" />
  <polyline
     class="FretDiagram"
     fill="none"
     stroke="#000000"
     stroke-width="1.98"
     stroke-linejoin="bevel"
     points="602.423,536.038 602.423,606.47"
     id="polyline68"
     transform="matrix(8,0,0,8,-2462.3219,-3324.0058)" />
  <polyline
     class="FretDiagram"
     fill="none"
     stroke="#000000"
     stroke-width="1.98"
     stroke-linejoin="bevel"
     points="619.783,536.038 619.783,606.47"
     id="polyline70"
     transform="matrix(8,0,0,8,-2462.3219,-3324.0058)" />
  <polyline
     class="FretDiagram"
     fill="none"
     stroke="#000000"
     stroke-width="1.98"
     stroke-linejoin="bevel"
     points="532.983,553.398 619.783,553.398"
     id="polyline72"
     transform="matrix(8,0,0,8,-2462.3219,-3324.0058)" />
  <polyline
     class="FretDiagram"
     fill="none"
     stroke="#000000"
     stroke-width="1.98"
     stroke-linejoin="bevel"
     points="532.983,570.758 619.783,570.758"
     id="polyline74"
     transform="matrix(8,0,0,8,-2462.3219,-3324.0058)" />
  <polyline
     class="FretDiagram"
     fill="none"
     stroke="#000000"
     stroke-width="1.98"
     stroke-linejoin="bevel"
     points="532.983,588.118 619.783,588.118"
     id="polyline76"
     transform="matrix(8,0,0,8,-2462.3219,-3324.0058)" />
  <polyline
     class="FretDiagram"
     fill="none"
     stroke="#000000"
     stroke-width="1.98"
     stroke-linejoin="bevel"
     points="532.983,605.478 619.783,605.478"
     id="polyline78"
     transform="matrix(8,0,0,8,-2462.3219,-3324.0058)" />
  <path
     class="FretDiagram"
     fill-rule="evenodd"
     d="m 1990.0221,1172.6182 c 0,27.4 -22.2,49.6 -49.6,49.6 -27.392,0 -49.6,-22.2 -49.6,-49.6 0,-27.392 22.208,-49.6 49.6,-49.6 27.4,0 49.6,22.208 49.6,49.6"
     id="path80"
     style="stroke-width:8" />
  <path
     class="FretDiagram"
     fill-rule="evenodd"
     d="m 2128.9021,1172.6182 c 0,27.4 -22.2,49.6 -49.6,49.6 -27.392,0 -49.6,-22.2 -49.6,-49.6 0,-27.392 22.208,-49.6 49.6,-49.6 27.4,0 49.6,22.208 49.6,49.6"
     id="path82"
     style="stroke-width:8" />
  <path
     class="FretDiagram"
     fill="none"
     stroke="#000000"
     stroke-width="19.04"
     stroke-linejoin="bevel"
     fill-rule="evenodd"
     d="m 1857.0941,817.48219 c 0,30.68 -24.872,55.552 -55.552,55.552 -30.68,0 -55.552,-24.872 -55.552,-55.552 0,-30.68 24.872,-55.552 55.552,-55.552 30.68,0 55.552,24.872 55.552,55.552"
     id="path84" />
  <path
     class="FretDiagram"
     fill="none"
     stroke="#000000"
     stroke-width="19.04"
     stroke-linejoin="bevel"
     fill-rule="evenodd"
     d="m 2273.7341,817.48219 c 0,30.68 -24.872,55.552 -55.552,55.552 -30.68,0 -55.552,-24.872 -55.552,-55.552 0,-30.68 24.872,-55.552 55.552,-55.552 30.68,0 55.552,24.872 55.552,55.552"
     id="path86" />
  <path
     class="FretDiagram"
     fill="none"
     stroke="#000000"
     stroke-width="19.04"
     stroke-linejoin="bevel"
     fill-rule="evenodd"
     d="m 2412.6141,817.48219 c 0,30.68 -24.872,55.552 -55.552,55.552 -30.68,0 -55.552,-24.872 -55.552,-55.552 0,-30.68 24.872,-55.552 55.552,-55.552 30.68,0 55.552,24.872 55.552,55.552"
     id="path88" />
  <path
     class="FretDiagram"
     fill="none"
     stroke="#000000"
     stroke-width="19.04"
     stroke-linejoin="bevel"
     fill-rule="evenodd"
     d="m 2551.4941,817.48219 c 0,30.68 -24.872,55.552 -55.552,55.552 -30.68,0 -55.552,-24.872 -55.552,-55.552 0,-30.68 24.872,-55.552 55.552,-55.552 30.68,0 55.552,24.872 55.552,55.552"
     id="path90" />
  <metadata
     id="metadata325">
    <rdf:RDF>
      <cc:Work
         rdf:about="">
        <dc:title>accord_mi_mineur</dc:title>
      </cc:Work>
    </rdf:RDF>
  </metadata>
  <text
     xml:space="preserve"
     style="font-size:210px;font-family:sans-serif;-inkscape-font-specification:sans-serif;fill:#ffff00;stroke:#ff0000;stroke-width:3.75;paint-order:stroke fill markers"
     x="1023.3354"
     y="383.06601"
     id="text484"><tspan
       sodipodi:role="line"
       id="tspan482"
       style="fill:#000000;fill-opacity:1;stroke:#000000;stroke-width:3.75;stroke-opacity:1"
       x="1023.3354"
       y="383.06601">L'accord de Mi mineur</tspan></text>
  <text
     xml:space="preserve"
     style="font-size:135px;font-family:sans-serif;-inkscape-font-specification:sans-serif;fill:#000000;stroke:#000000;stroke-width:0.878741;paint-order:stroke fill markers"
     x="1909.5895"
     y="1660.535"
     id="text701"><tspan
       sodipodi:role="line"
       id="tspan699"
       style="stroke-width:0.87874"
       x="1909.5895"
       y="1660.535">2</tspan></text>
  <text
     xml:space="preserve"
     style="font-size:135px;font-family:sans-serif;-inkscape-font-specification:sans-serif;fill:#000000;stroke:#000000;stroke-width:0.878741;paint-order:stroke fill markers"
     x="1977.6738"
     y="2570.8457"
     id="text701-6"><tspan
       sodipodi:role="line"
       id="tspan699-2"
       style="stroke-width:0.87874"
       x="1977.6738"
       y="2570.8457">2</tspan></text>
  <text
     xml:space="preserve"
     style="font-size:135px;font-family:sans-serif;-inkscape-font-specification:sans-serif;fill:#000000;stroke:#000000;stroke-width:0.878741;paint-order:stroke fill markers"
     x="2043.5901"
     y="1665.6713"
     id="text705"><tspan
       sodipodi:role="line"
       id="tspan703"
       style="stroke-width:0.87874"
       x="2043.5901"
       y="1665.6713">3</tspan></text>
  <text
     xml:space="preserve"
     style="font-size:135px;font-family:sans-serif;-inkscape-font-specification:sans-serif;fill:#000000;stroke:#000000;stroke-width:0.878741;paint-order:stroke fill markers"
     x="1979.1833"
     y="2426.8474"
     id="text705-9"><tspan
       sodipodi:role="line"
       id="tspan703-1"
       style="stroke-width:0.87874"
       x="1979.1833"
       y="2426.8474">3</tspan></text>
  <text
     xml:space="preserve"
     style="font-size:120px;font-family:sans-serif;-inkscape-font-specification:sans-serif;fill:#000000;stroke:#000000;stroke-width:0.878741;paint-order:stroke fill markers"
     x="1984.9286"
     y="2204.2449"
     id="text1207"><tspan
       sodipodi:role="line"
       id="tspan1205"
       style="font-size:120px;stroke-width:0.87874"
       x="1984.9286"
       y="2204.2449">0</tspan></text>
  <text
     xml:space="preserve"
     style="font-size:120.00000242px;font-family:sans-serif;-inkscape-font-specification:sans-serif;fill:#000000;stroke:#000000;stroke-width:0.878741;paint-order:stroke fill markers"
     x="1989.656"
     y="2025.2676"
     id="text1207-2"><tspan
       sodipodi:role="line"
       id="tspan1205-7"
       style="stroke-width:0.87874;font-size:120.00000242px"
       x="1989.656"
       y="2025.2676">0</tspan></text>
  <text
     xml:space="preserve"
     style="font-size:120px;font-family:sans-serif;-inkscape-font-specification:sans-serif;fill:#000000;stroke:#000000;stroke-width:0.878741;paint-order:stroke fill markers"
     x="1989.656"
     y="2302.7676"
     id="text1207-2-0"><tspan
       sodipodi:role="line"
       id="tspan1205-7-9"
       style="font-size:120px;stroke-width:0.87874"
       x="1989.656"
       y="2302.7676">0</tspan></text>
  <text
     xml:space="preserve"
     style="font-size:120.00000242px;font-family:sans-serif;-inkscape-font-specification:sans-serif;fill:#000000;stroke:#000000;stroke-width:0.878741;paint-order:stroke fill markers"
     x="1978.978"
     y="2778.2852"
     id="text1207-2-3"><tspan
       sodipodi:role="line"
       id="tspan1205-7-6"
       style="stroke-width:0.87874;font-size:120.00000242px"
       x="1978.978"
       y="2778.2852">0</tspan></text>
  <text
     xml:space="preserve"
     style="font-style:normal;font-variant:normal;font-weight:normal;font-stretch:normal;font-size:150px;font-family:sans-serif;-inkscape-font-specification:sans-serif;fill:#000000;stroke:#000000;stroke-width:0.878741;paint-order:stroke fill markers"
     x="54.758251"
     y="1245.2587"
     id="text1409"><tspan
       sodipodi:role="line"
       id="tspan1407"
       style="font-style:normal;font-variant:normal;font-weight:normal;font-stretch:normal;font-size:150px;font-family:sans-serif;-inkscape-font-specification:sans-serif;stroke-width:0.87874"
       x="54.758251"
       y="1245.2587">Diagramme d'accord</tspan></text>
  <path
     style="fill:#000000;stroke:#000000;stroke-width:12.21732171;paint-order:stroke fill markers;stroke-dasharray:none"
     d="m 1551.9404,1209.4107 194.5979,-1.3562 z"
     id="path6675" />
  <path
     style="fill:#000000;stroke:#000000;stroke-width:12.2173;stroke-dasharray:none;paint-order:stroke fill markers"
     d="m 1740.8873,1204.0303 c -7.9203,-5.9779 -66.534,-30.2854 -66.534,-30.2854 z"
     id="path6677" />
  <path
     style="fill:#000000;stroke:#000000;stroke-width:12.2173;stroke-dasharray:none;paint-order:stroke fill markers"
     d="m 1734.397,1202.6612 -46.6156,36.9573 z"
     id="path6679" />
</svg>
