<?xml version="1.0" encoding="UTF-8" standalone="no"?>
<svg
   width="297mm"
   height="210mm"
   viewBox="0 0 4209.4489 2976.378"
   version="1.2"
   id="svg84"
   sodipodi:docname="accord_la_mineur.svg"
   inkscape:version="1.2.2 (b0a8486541, 2022-12-01)"
   xmlns:inkscape="http://www.inkscape.org/namespaces/inkscape"
   xmlns:sodipodi="http://sodipodi.sourceforge.net/DTD/sodipodi-0.dtd"
   xmlns="http://www.w3.org/2000/svg"
   xmlns:svg="http://www.w3.org/2000/svg"
   xmlns:rdf="http://www.w3.org/1999/02/22-rdf-syntax-ns#"
   xmlns:cc="http://creativecommons.org/ns#"
   xmlns:dc="http://purl.org/dc/elements/1.1/">
  <defs
     id="defs88" />
  <sodipodi:namedview
     id="namedview86"
     pagecolor="#ffffff"
     bordercolor="#000000"
     borderopacity="0.25"
     inkscape:showpageshadow="2"
     inkscape:pageopacity="0.0"
     inkscape:pagecheckerboard="0"
     inkscape:deskcolor="#d1d1d1"
     inkscape:document-units="mm"
     showgrid="false"
     inkscape:zoom="0.48264525"
     inkscape:cx="721.02647"
     inkscape:cy="422.67069"
     inkscape:window-width="1104"
     inkscape:window-height="552"
     inkscape:window-x="0"
     inkscape:window-y="32"
     inkscape:window-maximized="1"
     inkscape:current-layer="svg84" />
  <title
     id="title2">Partition sans titre</title>
  <desc
     id="desc4">Generated by MuseScore Studio 4.5.2</desc>
  <polyline
     class="StaffLines"
     fill="none"
     stroke="#000000"
     stroke-width="2.73"
     stroke-linejoin="bevel"
     points="336.598,634.198 821.83,634.198"
     id="polyline6"
     transform="matrix(4.7047116,0,0,4.7047116,-656.98563,-1192.0655)" />
  <polyline
     class="StaffLines"
     fill="none"
     stroke="#000000"
     stroke-width="2.73"
     stroke-linejoin="bevel"
     points="336.598,658.998 821.83,658.998"
     id="polyline8"
     transform="matrix(4.7047116,0,0,4.7047116,-656.98563,-1192.0655)" />
  <polyline
     class="StaffLines"
     fill="none"
     stroke="#000000"
     stroke-width="2.73"
     stroke-linejoin="bevel"
     points="336.598,683.798 821.83,683.798"
     id="polyline10"
     transform="matrix(4.7047116,0,0,4.7047116,-656.98563,-1192.0655)" />
  <polyline
     class="StaffLines"
     fill="none"
     stroke="#000000"
     stroke-width="2.73"
     stroke-linejoin="bevel"
     points="336.598,708.598 821.83,708.598"
     id="polyline12"
     transform="matrix(4.7047116,0,0,4.7047116,-656.98563,-1192.0655)" />
  <polyline
     class="StaffLines"
     fill="none"
     stroke="#000000"
     stroke-width="2.73"
     stroke-linejoin="bevel"
     points="336.598,733.398 821.83,733.398"
     id="polyline14"
     transform="matrix(4.7047116,0,0,4.7047116,-656.98563,-1192.0655)" />
  <path
     class="Text"
     d="m 1173.6934,161.45001 h -9.8038 l -53.5886,135.84091 c -6.2895,18.17144 -12.3459,23.76607 -25.6197,24.69392 h -0.9278 v 10.95413 h 61.7316 v -10.95413 h -4.6668 c -12.5789,0 -18.8662,-4.43588 -18.8662,-13.27375 0,-3.04622 0.6948,-5.82553 2.1183,-9.79749 l 7.6792,-20.48894 h 61.7718 l 12.562,31.21216 c 1.3981,3.74106 1.8642,5.13071 1.8642,6.28946 0,3.74106 -5.8256,6.05856 -14.4262,6.05856 h -9.8081 v 10.95413 h 72.2155 v -10.95413 h -3.2411 c -12.1171,-0.23302 -14.2355,-1.62267 -19.595,-14.89642 l -59.3993,-145.63841 m -11.4265,38.19857 26.3399,66.16538 h -52.1905 l 25.8506,-66.16538 m 181.7228,99.03412 c -7.4566,16.77966 -15.3582,23.53304 -27.4753,23.53304 -18.6417,0 -30.2928,-17.01268 -30.2928,-44.25501 0,-28.43285 11.4181,-47.09999 28.6405,-47.09999 7.0118,0 13.0703,3.27713 13.0703,7.01607 0,0.69694 -0.233,1.39177 -1.4193,2.78143 -3.7071,4.43588 -4.6392,6.75126 -4.6392,10.72322 0,7.67912 5.8255,13.04285 13.9601,13.04285 8.4099,0 14.2355,-6.52037 14.2355,-15.82216 0,-15.85393 -15.6125,-27.73803 -36.3725,-27.73803 -30.2928,0 -51.9638,24.6918 -51.9638,59.64502 0,33.09964 19.828,55.93998 48.7226,55.93998 20.7178,0 32.6019,-9.56659 42.6218,-34.25839 l -9.0879,-3.50803 m 103.6522,0 c -7.4355,16.77966 -15.3582,23.53304 -27.4541,23.53304 -18.6418,0 -30.2928,-17.01268 -30.2928,-44.25501 0,-28.43285 11.418,-47.09999 28.6192,-47.09999 7.033,0 13.0916,3.27713 13.0916,7.01607 0,0.69694 -0.233,1.39177 -1.4405,2.78143 -3.7071,4.43588 -4.6181,6.75126 -4.6181,10.72322 0,7.67912 5.8256,13.04285 13.9602,13.04285 8.4099,0 14.2354,-6.52037 14.2354,-15.82216 0,-15.85393 -15.6336,-27.73803 -36.3725,-27.73803 -30.2928,0 -51.9638,24.6918 -51.9638,59.64502 0,33.09964 19.828,55.93998 48.7227,55.93998 20.7177,0 32.6018,-9.56659 42.6217,-34.25839 l -9.109,-3.50803 m 71.7283,-77.81858 c -28.6617,0 -50.7987,25.38875 -50.7987,58.02446 0,31.907 22.37,57.56054 50.3538,57.56054 27.9626,0 50.3326,-25.65354 50.3326,-57.79356 0,-31.94088 -22.37,-57.79144 -49.8877,-57.79144 m 0,9.99662 c 16.3326,0 25.3993,17.01269 25.3993,47.79482 0,30.98126 -9.0667,47.76304 -25.8442,47.76304 -16.7987,0 -25.8654,-16.78178 -25.8654,-47.53002 0,-31.70998 8.8337,-48.02784 26.3103,-48.02784 m 103.9063,-6.52036 -41.2448,2.5823 v 10.0284 h 9.5327 c 8.876,0.2309 10.0411,1.62267 10.0411,11.65107 v 66.62931 c -0.233,3.50803 -0.466,4.8998 -1.3981,6.05644 -1.6311,2.0866 -6.2916,3.04622 -16.3115,3.27712 h -0.9321 v 8.37395 h 62.2168 v -8.37395 h -4.1944 c -15.6125,-0.4957 -17.7097,-1.65445 -17.7097,-10.02839 v -12.57892 c 0.2331,-39.15608 14.1932,-68.97859 32.3688,-69.90644 -3.2411,3.70716 -4.1732,6.05856 -4.1732,10.46055 0,7.47998 5.3595,12.8416 12.8162,12.8416 8.6006,0 14.1931,-6.28735 14.1931,-15.62303 0,-11.41805 -7.9015,-18.86627 -20.2516,-18.86627 -14.7016,0 -27.2635,11.65108 -34.9533,32.37092 v -28.89466 m 143.9438,110.22127 40.5457,-1.62268 v -10.0284 h -4.1944 c -13.2822,-0.69483 -14.4261,-2.08448 -14.4261,-17.01268 V 161.18521 l -45.6723,2.5823 v 10.0284 h 13.7271 c 8.876,0.23302 10.02,1.62267 10.02,11.65107 v 52.66285 c -8.6007,-11.8841 -18.6206,-17.24571 -32.1358,-17.24571 -26.3526,0 -46.3713,25.38875 -46.3713,58.95019 0,33.09964 19.3408,56.63481 46.3713,56.63481 14.6591,0 24.7002,-6.28946 32.1358,-20.28981 v 18.40234 m -27.4966,-101.11861 c 9.5751,0 18.6629,6.98429 22.8361,17.70752 3.0505,6.98428 4.4274,16.55087 4.4274,27.96893 0,27.24232 -10.719,44.71893 -27.4965,44.71893 -16.5233,0 -26.3102,-15.35823 -26.3102,-41.24268 0,-13.96857 1.3769,-24.4609 4.4274,-32.14001 3.9401,-10.49232 12.5831,-17.01269 22.1158,-17.01269 m 226.0096,101.11861 40.5458,-1.62268 v -10.0284 h -4.2156 c -13.261,-0.69483 -14.4261,-2.08448 -14.4261,-17.01268 V 161.18521 l -45.6722,2.5823 v 10.0284 h 13.727 c 8.876,0.23302 10.0411,1.62267 10.0411,11.65107 v 52.66285 c -8.6217,-11.8841 -18.6417,-17.24571 -32.1357,-17.24571 -26.3526,0 -46.3925,25.38875 -46.3925,58.95019 0,33.09964 19.3408,56.63481 46.3925,56.63481 14.6591,0 24.6791,-6.28946 32.1357,-20.28981 v 18.40234 m -27.5177,-101.11861 c 9.5751,0 18.6841,6.98429 22.8361,17.70752 3.0505,6.98428 4.4486,16.55087 4.4486,27.96893 0,27.24232 -10.719,44.71893 -27.5177,44.71893 -16.5021,0 -26.3102,-15.35823 -26.3102,-41.24268 0,-13.96857 1.3981,-24.4609 4.4486,-32.14001 3.919,-10.49232 12.5619,-17.01269 22.0946,-17.01269 m 181.0577,47.0661 c 0.233,-34.95322 -19.595,-59.64502 -48.0236,-59.64502 -29.8267,0 -52.1968,25.85056 -52.1968,60.80377 0,32.86874 21.2049,54.78123 52.6628,54.78123 22.3701,0 38.0037,-10.95625 47.5576,-33.09964 l -8.1769,-4.43588 c -9.5327,17.94053 -19.3196,24.92482 -34.9533,24.92482 -11.884,0 -20.4847,-4.86591 -26.5432,-15.35823 -4.1944,-6.98429 -6.0586,-15.16122 -5.8256,-27.97105 h 75.499 m -75.2659,-10.02839 c 0,-16.31786 7.4567,-39.62001 27.0093,-39.62001 14.0024,0 23.3021,12.3798 23.3021,31.24606 0,6.52037 -2.076,8.37395 -9.5327,8.37395 h -40.7787 m 298.6911,-1.38966 h -10.2529 c -7.6897,41.93751 -18.1757,52.19681 -54.294,52.89375 h -9.7869 c -13.9813,-0.46392 -17.4766,-2.78143 -16.7988,-11.18926 V 193.35912 c 0,-11.65108 0,-12.3459 1.3982,-14.4325 1.8853,-2.34928 6.3339,-3.04411 19.5949,-3.27713 h 4.2156 v -10.95413 h -76.4734 v 10.95413 h 4.2156 c 13.261,0.23302 17.7096,0.92785 19.5526,3.27713 1.4193,2.0866 1.4193,2.5484 1.4193,14.4325 v 110.91609 c 0,11.8841 0,12.3459 -1.4193,14.46428 -1.843,2.3175 -6.2916,3.24535 -19.5526,3.24535 h -4.2156 v 10.95413 h 137.5039 l 4.8934,-63.84788 m 111.1089,-11.18715 c 0,-14.6634 -2.5421,-22.14551 -9.3209,-27.73802 -7.6897,-6.28947 -19.1077,-9.3018 -33.9999,-9.3018 -26.3526,0 -45.4392,12.3459 -45.4392,29.36071 0,8.60484 5.3595,14.19948 13.494,14.19948 7.4567,0 12.5832,-4.89981 12.5832,-11.8841 0,-3.01233 -1.1651,-6.28734 -3.4741,-9.53269 -1.4193,-1.65446 -1.6524,-2.11838 -1.6524,-3.27713 0,-4.66679 9.3209,-8.86965 20.5271,-8.86965 7.4355,0 15.6124,2.34928 19.3196,5.82554 4.4274,3.74105 6.0586,9.33357 6.0586,19.82589 v 9.07089 c -24.2343,4.20286 -31.9028,6.05644 -43.3209,10.49232 -20.294,7.47999 -29.8267,18.17144 -29.8267,33.09964 0,16.78178 13.028,27.2741 33.7881,27.2741 16.0573,0 30.5258,-6.55426 40.5457,-18.43623 3.7072,11.88197 9.5327,16.54876 20.4848,16.54876 10.5071,0 21.4591,-6.75127 21.4591,-13.50466 0,-1.62267 -0.9321,-2.8132 -2.3514,-2.8132 -0.9321,0 -1.8642,0.2648 -3.4741,0.95962 -3.2835,1.38966 -4.6605,1.62268 -6.5246,1.62268 -6.5458,0 -8.876,-4.20498 -8.876,-16.08695 v -46.8352 m -21.904,28.43074 c 0,13.96857 -0.6991,17.2457 -4.6393,23.30214 -5.8255,8.60697 -16.3115,14.4325 -26.5644,14.4325 -10.7402,0 -18.4087,-7.67911 -18.4087,-18.17143 0,-9.76572 4.8934,-16.78178 15.1252,-21.6477 7.2448,-3.27712 16.3115,-5.59463 34.4872,-8.63874 v 10.72323 m 157.7555,-61.9943 -41.4778,2.5823 v 10.0284 h 9.575 c 8.8337,0.2309 9.9776,1.62267 9.9776,11.65107 v 66.62931 c -0.2119,3.50803 -0.4449,4.8998 -1.377,6.05644 -1.6311,2.0866 -6.0585,3.04622 -16.0996,3.27712 h -0.9109 v 8.37395 h 58.7214 v -8.37395 h -0.9321 c -15.4006,-0.4957 -17.4766,-1.65445 -17.4766,-10.25929 v -43.13016 c 0,-20.71984 11.418,-36.11197 26.5856,-36.11197 13.261,0 20.0187,9.56659 20.0187,28.43286 v 51.9659 c -0.2331,3.04623 -0.4661,4.6689 -1.6312,5.82554 -1.3769,2.0866 -6.0585,3.04622 -16.0785,3.27712 h -0.932 v 8.37395 h 58.9544 v -8.37395 h -0.9321 c -15.3794,-0.4957 -17.4766,-1.65445 -17.4766,-10.02839 v -41.24268 c 0,-23.30215 10.5071,-38.23035 26.7763,-38.23035 13.3034,0 19.828,10.03052 19.828,31.01516 v 49.1527 c -0.233,3.27713 -0.4661,4.8998 -1.61,6.05644 -1.4405,2.0866 -6.0585,3.04622 -16.0997,3.27712 h -0.9109 v 8.37395 h 58.9333 v -8.37395 h -0.9109 c -15.4006,-0.4957 -17.4766,-1.65445 -17.4766,-10.25929 v -52.89376 c 0,-14.46427 -1.4405,-19.36408 -7.4991,-27.2741 -6.7364,-8.60696 -16.2691,-13.27375 -27.4541,-13.27375 -15.1676,0 -26.3526,7.21519 -36.3938,23.30215 -3.9401,-14.00035 -16.5445,-23.30215 -32.1357,-23.30215 -14.2355,0 -24.4461,6.75339 -33.5551,21.41679 v -17.94053 m 197.3268,-58.02446 c -7.4355,0 -13.4941,6.05856 -13.4941,13.53855 0,7.44609 6.0586,13.50465 13.2822,13.50465 7.7109,0 13.7695,-6.05856 13.7695,-13.50465 0,-7.47999 -6.0586,-13.53855 -13.5576,-13.53855 m 10.9732,58.02446 -43.8081,2.5823 v 10.0284 h 11.8841 c 8.8549,0.2309 9.9988,1.62267 9.9988,11.65107 v 66.62931 c -0.233,3.50803 -0.4661,4.8998 -1.377,6.05644 -1.6311,2.0866 -6.0585,3.04622 -16.0996,3.27712 h -1.61 v 8.37395 h 60.3737 v -8.37395 h -1.6523 c -15.5912,-0.4957 -17.7096,-1.65445 -17.7096,-10.02839 v -90.19625 m 71.9824,0 -40.3127,2.5823 v 10.0284 h 8.41 c 8.8336,0.2309 9.9987,1.62267 9.9987,11.65107 v 66.62931 c -0.233,3.50803 -0.466,4.8998 -1.3981,6.05644 -1.61,2.0866 -6.0586,3.04622 -16.0785,3.27712 h -0.9321 v 8.37395 h 58.9544 v -8.37395 h -0.932 c -15.6125,-0.4957 -17.7097,-1.65445 -17.7097,-10.02839 v -34.48929 c 0,-11.42017 1.6312,-21.9125 4.2156,-27.27411 4.8934,-10.49232 15.3582,-17.70963 25.3781,-17.70963 6.0586,0 13.0492,3.27713 16.5446,8.17694 3.5165,5.09681 5.1264,12.11288 5.1264,23.30214 v 48.68878 c -0.233,3.50803 -0.4448,4.8998 -1.3769,6.05644 -1.6523,2.0866 -6.334,3.04622 -16.3327,3.27712 h -0.9109 v 8.37395 h 58.9544 v -8.37395 h -0.932 c -15.4006,-0.4957 -17.4767,-1.65445 -17.4767,-10.02839 v -46.8352 c 0,-16.78178 -0.7414,-20.98675 -4.8934,-28.89677 -5.8255,-11.18715 -17.4766,-17.94054 -31.4791,-17.94054 -15.1252,0 -26.5644,6.98429 -36.8174,22.37642 v -18.90016 m 204.1268,56.16876 c 0.233,-34.95322 -19.595,-59.64502 -48.0236,-59.64502 -29.8267,0 -52.1968,25.85056 -52.1968,60.80377 0,32.86874 21.205,54.78123 52.6629,54.78123 22.37,0 37.9825,-10.95625 47.5575,-33.09964 l -8.1769,-4.43588 c -9.5327,17.94053 -19.3196,24.92482 -34.9532,24.92482 -11.8841,0 -20.4847,-4.86591 -26.5433,-15.35823 -4.1944,-6.98429 -6.0586,-15.16122 -5.8255,-27.97105 h 75.4989 m -75.2659,-10.02839 c 0,-16.31786 7.4355,-39.62001 27.0093,-39.62001 14.0025,0 23.3021,12.3798 23.3021,31.24606 0,6.52037 -2.0972,8.37395 -9.5327,8.37395 h -40.7787 m 179.363,64.0809 42.431,-1.62268 v -10.0284 h -5.8255 c -13.5364,-0.46392 -14.7015,-1.85358 -14.7015,-17.01268 v -81.55751 l -43.7869,2.5823 v 10.0284 h 11.8841 c 8.8336,0.2309 9.9988,1.62267 9.9988,11.65107 v 28.63198 c 0,20.28981 -4.8723,44.98161 -30.5259,44.98161 -7.2024,0 -13.261,-2.5484 -16.3115,-7.21519 -3.0081,-4.43588 -3.4741,-6.75338 -3.4741,-19.56321 v -71.09696 l -40.7788,2.5823 v 10.0284 h 8.8337 c 8.876,0.2309 10.0411,1.62267 10.0411,11.65107 v 50.31145 c 0,11.88198 0.9109,17.24571 4.4274,22.60732 6.2916,9.56447 17.4766,14.9282 31.4367,14.9282 15.4006,0 26.1196,-6.28946 36.3514,-21.21766 v 19.33019 m 92.5095,-110.22127 -41.2448,2.5823 v 10.0284 h 9.5327 c 8.876,0.2309 10.0411,1.62267 10.0411,11.65107 v 66.62931 c -0.233,3.50803 -0.4661,4.8998 -1.3982,6.05644 -1.6099,2.0866 -6.2915,3.04622 -16.3115,3.27712 h -0.932 v 8.37395 h 62.2379 v -8.37395 h -4.2156 c -15.6124,-0.4957 -17.7096,-1.65445 -17.7096,-10.02839 v -12.57892 c 0.233,-39.15608 14.2143,-68.97859 32.3688,-69.90644 -3.2411,3.70716 -4.152,6.05856 -4.152,10.46055 0,7.47998 5.3594,12.8416 12.7949,12.8416 8.6007,0 14.2144,-6.28735 14.2144,-15.62303 0,-11.41805 -7.9228,-18.86627 -20.2729,-18.86627 -14.6804,0 -27.2635,11.65108 -34.9532,32.37092 v -28.89466"
     id="path16"
     style="stroke-width:2.11838" />
  <polyline
     class="BarLine"
     fill="none"
     stroke="#000000"
     stroke-width="4.46"
     stroke-linejoin="bevel"
     points="796.782,632.834 796.782,734.762"
     id="polyline18"
     transform="matrix(4.7047116,0,0,4.7047116,-656.98563,-1192.0655)" />
  <polyline
     class="BarLine"
     fill="none"
     stroke="#000000"
     stroke-width="13.64"
     stroke-linejoin="bevel"
     points="815.01,632.834 815.01,734.762"
     id="polyline20"
     transform="matrix(4.7047116,0,0,4.7047116,-656.98563,-1192.0655)" />
  <path
     class="Arpeggio"
     d="m 1857.805,1758.9505 c -17.7203,50.9004 -53.6713,129.8031 -53.6713,133.0119 0,2.8439 1.896,6.563 5.1046,6.563 l 0.5104,-0.4375 c 8.3862,-4.6673 46.1605,-15.8973 48.0563,-15.8973 1.8963,0 40.1079,12.1053 46.6707,15.8973 l 0.4376,0.4375 c 3.2814,0 5.6149,-3.7191 5.6149,-6.563 0,-3.2088 -35.003,-82.1115 -52.7234,-133.0119"
     id="path22"
     style="stroke-width:4.66707" />
  <polyline
     class="Arpeggio"
     fill="none"
     stroke="#000000"
     stroke-width="4.46"
     stroke-linejoin="bevel"
     points="534.433,642.088 534.433,802.335"
     id="polyline24"
     transform="matrix(4.7047116,0,0,4.7047116,-656.98563,-1192.0655)" />
  <polyline
     class="LedgerLine"
     fill="none"
     stroke="#000000"
     stroke-width="3.97"
     stroke-linejoin="bevel"
     points="552.087,758.198 600.68,758.198"
     id="polyline26"
     transform="matrix(4.7047116,0,0,4.7047116,-656.98563,-1192.0655)" />
  <polyline
     class="LedgerLine"
     fill="none"
     stroke="#000000"
     stroke-width="3.97"
     stroke-linejoin="bevel"
     points="552.087,782.998 600.68,782.998"
     id="polyline28"
     transform="matrix(4.7047116,0,0,4.7047116,-656.98563,-1192.0655)" />
  <polyline
     class="Stem"
     fill="none"
     stroke="#000000"
     stroke-width="2.48"
     stroke-linejoin="bevel"
     points="591.256,779.03 591.256,584.598"
     id="polyline30"
     transform="matrix(4.7047116,0,0,4.7047116,-656.98563,-1192.0655)" />
  <path
     class="Note"
     d="m 1978.9278,1869.6079 c 0,20.0539 14.4388,42.4412 52.2857,42.4412 48.4942,0 99.3942,-39.6702 99.3942,-80.7258 0,-27.565 -23.3353,-42.9516 -52.2857,-42.9516 -45.2851,0 -99.3942,38.2846 -99.3942,81.2362"
     id="path32"
     style="stroke-width:4.66707" />
  <path
     class="Note"
     d="m 1978.9278,1986.2846 c 0,20.0539 14.4388,42.4413 52.2857,42.4413 48.4942,0 99.3942,-39.67 99.3942,-80.7259 0,-27.5647 -23.3353,-42.9514 -52.2857,-42.9514 -45.2851,0 -99.3942,38.2844 -99.3942,81.236"
     id="path34"
     style="stroke-width:4.66707" />
  <path
     class="Note"
     d="m 1978.9278,2511.3305 c 0,20.0539 14.4388,42.4413 52.2857,42.4413 48.4942,0 99.3942,-39.6703 99.3942,-80.7259 0,-27.565 -23.3353,-42.9516 -52.2857,-42.9516 -45.2851,0 -99.3942,38.2846 -99.3942,81.2362"
     id="path36"
     style="stroke-width:4.66707" />
  <path
     class="Note"
     d="m 1978.9278,2277.9768 c 0,20.0539 14.4388,42.4413 52.2857,42.4413 48.4942,0 99.3942,-39.6703 99.3942,-80.7259 0,-27.565 -23.3353,-42.9516 -52.2857,-42.9516 -45.2851,0 -99.3942,38.2846 -99.3942,81.2362"
     id="path38"
     style="stroke-width:4.66707" />
  <path
     class="Note"
     d="m 1978.9278,2102.9616 c 0,20.0539 14.4388,42.4412 52.2857,42.4412 48.4942,0 99.3942,-39.6702 99.3942,-80.7258 0,-27.565 -23.3353,-42.9516 -52.2857,-42.9516 -45.2851,0 -99.3942,38.2846 -99.3942,81.2362"
     id="path40"
     style="stroke-width:4.66707" />
  <path
     class="Clef"
     d="m 1211.5212,2476.3273 c 0,-17.2826 -15.8241,-24.7204 -31.211,-24.7204 -19.6162,0 -38.7951,12.1048 -38.7951,33.1068 0,8.8967 3.2814,15.4597 9.8448,21.9496 -12.1783,4.667 -24.2837,14.0012 -24.2837,28.5131 0,15.3868 14.0012,25.6687 34.5657,25.6687 25.1583,0 42.8787,-14.001 42.8787,-34.1279 0,-10.7197 -4.6671,-19.5433 -13.0533,-25.6688 13.5639,-6.0528 20.0539,-13.4907 20.0539,-24.7211 m -46.6707,74.6732 c -10.2092,0 -17.2098,-6.4901 -17.2098,-16.3347 0,-9.3343 4.1565,-16.7721 12.105,-21.4393 1.8962,0.9479 2.3335,0.9479 3.7191,1.8232 5.615,2.844 5.615,2.844 6.5634,3.7919 8.8235,5.1048 12.6155,9.7718 12.6155,16.3348 0,8.8236 -7.5112,15.8241 -17.7932,15.8241 m 17.7932,-56.0049 c -7.0006,-3.7187 -8.8968,-4.6671 -10.282,-5.6149 l -0.9483,-0.4371 c -7.0007,-4.2297 -9.3342,-7.5113 -9.3342,-13.0534 0,-8.4589 6.5633,-14.5118 15.8974,-14.5118 8.8236,0 14.4386,5.6151 14.4386,15.3869 0,7.5113 -2.7709,12.6156 -9.7715,18.2305 m 130.1675,-354.2602 c 0,-70.4437 -49.9522,-118.0623 -118.0625,-118.0623 -4.667,-28.0025 -8.8964,-55.5675 -13.0529,-81.6738 49.0043,-51.8483 83.4968,-110.6241 83.4968,-184.3495 0,-42.5141 -13.0534,-77.0067 -21.0019,-93.85 -11.157,-23.7741 -24.721,-40.1089 -32.6695,-40.1089 -3.2086,0 -18.1577,5.6145 -33.1072,23.7741 -30.336,35.5116 -38.7218,94.7251 -38.7218,133.9576 0,25.2315 2.3335,48.0564 10.282,100.8526 -0.5106,0 -24.7939,24.7211 -34.5657,33.1072 -42.5138,39.2325 -101.29,96.1125 -101.29,189.0165 0,87.7266 76.0588,156.347 162.9103,156.347 13.4906,0 26.1062,-1.3856 37.3366,-3.2814 8.3858,44.4101 14.0012,77.5169 14.0012,102.238 0,48.5669 -25.2316,74.2357 -72.3397,74.2357 -11.2304,0 -21.0018,-2.3335 -21.9501,-2.8441 -0.4376,0 -1.3852,-0.4375 -1.3852,-0.875 0,-0.9479 0.9478,-1.4585 2.3335,-1.8962 21.9497,-3.2814 43.8266,-22.387 43.8266,-51.7751 0,-25.2317 -19.106,-51.8485 -54.1091,-51.8485 -32.6695,0 -53.2336,26.6168 -53.2336,57.3906 0,30.8465 23.3354,71.4644 86.3409,71.4644 60.2342,0 89.6223,-34.1279 89.6223,-93.8518 0,-18.1579 -2.7709,-39.1597 -7.4379,-65.7765 -1.3857,-9.334 -3.7193,-23.8459 -7.0006,-41.5662 45.7224,-15.3869 79.7775,-62.5678 79.7775,-110.6244 m -143.7314,-382.6999 c 4.6671,-18.6683 25.6689,-67.6725 49.9526,-67.6725 7.0006,0 18.6683,22.3869 18.6683,55.0564 0,48.0566 -36.3887,84.5181 -68.6209,116.677 -2.7708,-18.6683 -5.1044,-37.3368 -5.1044,-56.4423 0,-17.7204 1.823,-33.1801 5.1044,-47.6186 m 14.0012,482.6044 c -66.7242,0 -123.6773,-46.6707 -123.6773,-117.1871 0,-56.8803 40.1077,-107.7803 81.2363,-143.7314 7.8757,-6.5632 15.3869,-13.0531 22.3875,-20.0538 4.1565,25.1584 7.438,46.6707 10.7194,66.2868 -42.5138,12.1055 -71.3913,57.3906 -71.3913,100.7798 0,33.1801 25.6689,77.9548 63.0055,77.9548 3.7187,0 7.9485,-1.8958 7.9485,-6.563 0,-3.7191 -4.2298,-6.4904 -10.2821,-10.2093 -18.231,-10.7927 -28.513,-23.3354 -28.513,-45.7957 0,-28.44 21.5124,-51.3382 48.5665,-57.8281 l 27.0546,153.0656 c -9.3342,1.8962 -17.7204,3.2814 -27.0546,3.2814 m 46.6708,-8.8965 c -9.7715,-55.4944 -22.3871,-129.7301 -25.6689,-150.2946 47.1084,0 67.2352,32.6697 71.3917,55.13 0.5106,3.7191 1.3856,8.8238 1.3856,14.4387 0,33.6176 -14.0012,67.2355 -47.1084,80.7259"
     id="path42"
     style="stroke-width:4.66707" />
  <path
     class="TimeSig"
     d="m 1519.9856,1967.6164 v 34.4928 h -38.7222 c -3.2814,0 -6.5628,2.8437 -6.5628,6.5628 v 8.8969 c 0,3.7187 3.2814,6.49 6.5628,6.49 h 141.3979 c 3.792,0 6.5629,-2.7713 6.5629,-6.49 v -8.8969 c 0,-3.7191 -2.7709,-6.5628 -6.5629,-6.5628 h -42.0037 v -34.4928 h 42.0037 c 3.792,0 6.5629,-3.2816 6.5629,-7.0008 v -8.8965 c 0,-3.2816 -2.7709,-6.4901 -6.5629,-6.4901 h -42.0037 v -74.2357 c 0,-2.771 -1.3856,-5.1045 -3.2086,-6.0524 l -5.615,-2.8441 c -0.9483,-0.4375 -1.3856,-0.4375 -2.3335,-0.4375 -0.5106,0 -0.5106,0 -0.9483,0 -1.3852,0 -3.2815,0.4375 -4.2294,1.3854 l -42.4414,38.7221 c -1.3852,1.4585 -1.8958,3.2816 -1.8958,5.1776 v 38.2846 h -54.109 c 0,0 52.2861,-56.0048 107.3426,-129.8032 1.8962,-2.3335 2.3336,-4.667 2.3336,-6.4899 0,-2.3337 -0.9479,-4.2295 -1.3852,-4.6672 l -10.2825,-10.2819 c -1.3852,-0.9481 -2.7709,-1.8965 -4.6671,-1.8965 -2.7708,0 -65.8491,0 -69.5684,0 -3.2813,0 -5.6149,2.8444 -6.0527,5.6156 0,0 -2.3335,34.5653 -14.4387,72.3395 -12.1782,37.8471 -26.1794,61.1824 -38.2846,78.3921 0,0 -1.3856,2.3338 -1.3856,5.1776 0,0.9481 0,1.8234 0.4376,2.7713 1.3855,3.2814 4.6671,8.3863 4.6671,8.3863 0,0 0.948,2.8437 5.1046,2.8437 h 80.2883"
     id="path44"
     style="stroke-width:4.66707" />
  <path
     class="TimeSig"
     d="m 1519.9856,2200.9701 v 34.4928 h -38.7222 c -3.2814,0 -6.5628,2.8437 -6.5628,6.5628 v 8.897 c 0,3.7186 3.2814,6.4899 6.5628,6.4899 h 141.3979 c 3.792,0 6.5629,-2.7713 6.5629,-6.4899 v -8.897 c 0,-3.7191 -2.7709,-6.5628 -6.5629,-6.5628 h -42.0037 v -34.4928 h 42.0037 c 3.792,0 6.5629,-3.2816 6.5629,-7.0007 v -8.8965 c 0,-3.2817 -2.7709,-6.4902 -6.5629,-6.4902 h -42.0037 v -74.2357 c 0,-2.771 -1.3856,-5.1045 -3.2086,-6.0526 l -5.615,-2.8439 c -0.9483,-0.4375 -1.3856,-0.4375 -2.3335,-0.4375 -0.5106,0 -0.5106,0 -0.9483,0 -1.3852,0 -3.2815,0.4375 -4.2294,1.3854 l -42.4414,38.7221 c -1.3852,1.4585 -1.8958,3.2816 -1.8958,5.1776 v 38.2846 h -54.109 c 0,0 52.2861,-56.005 107.3426,-129.8032 1.8962,-2.3335 2.3336,-4.667 2.3336,-6.4901 0,-2.3335 -0.9479,-4.2293 -1.3852,-4.667 l -10.2825,-10.2821 c -1.3852,-0.9479 -2.7709,-1.8962 -4.6671,-1.8962 -2.7708,0 -65.8491,0 -69.5684,0 -3.2813,0 -5.6149,2.8443 -6.0527,5.6155 0,0 -2.3335,34.5653 -14.4387,72.3395 -12.1782,37.8471 -26.1794,61.1824 -38.2846,78.3921 0,0 -1.3856,2.3338 -1.3856,5.1776 0,0.9481 0,1.8234 0.4376,2.7713 1.3855,3.2814 4.6671,8.3861 4.6671,8.3861 0,0 0.948,2.8439 5.1046,2.8439 h 80.2883"
     id="path46"
     style="stroke-width:4.66707" />
  <path
     class="Rest"
     d="m 2401.1898,2102.4512 c -0.4371,-0.4375 -1.3856,-1.3856 -2.7708,-3.2085 l -53.6714,-66.2873 c -0.5106,-0.5104 -0.9483,-1.896 -0.9483,-2.8439 0,-1.3856 0.4375,-3.2088 0.9483,-4.1566 l 47.5458,-71.902 c 0.5101,-0.9484 0.9479,-2.3335 0.9479,-3.2819 v -4.1566 c 0,-1.3856 -0.4376,-2.8441 -1.3857,-3.7191 l -75.6212,-102.2378 c 0,0 -1.823,-2.8443 -4.667,-2.8443 -1.3856,0 -2.3336,0.5106 -3.7191,1.4585 -1.896,1.3858 -2.3335,3.2087 -2.3335,4.6672 0,2.7712 1.3855,5.1047 1.3855,5.1047 l 35.5138,48.5666 c 0.875,1.3856 1.3852,3.2087 1.3852,5.5422 0,1.8962 -0.5102,4.2297 -1.3852,5.6149 l -47.1815,71.9022 c -0.4375,0.9481 -0.948,2.7713 -0.948,3.7191 v 4.2295 c 0,1.3857 0.5105,2.7713 1.4585,3.7192 l 52.2131,64.9014 c -1.8234,-0.5103 -6.0527,-1.4584 -11.6679,-1.4584 -7.8757,0 -18.1578,1.896 -26.544,9.3342 -10.2821,9.3345 -15.8972,22.4604 -15.8972,34.1282 0,6.4899 1.3855,13.0529 5.1046,18.1577 9.8446,14.9491 44.8476,59.2863 44.8476,59.2863 0,0 2.3335,2.8441 5.6154,2.8441 0.875,0 1.8229,0 2.7708,-0.9479 2.3335,-1.8962 3.2815,-3.7191 3.2815,-5.6153 0,-1.8958 -0.948,-3.2814 -1.3853,-4.2295 -1.4584,-2.3335 -16.335,-29.3879 -16.335,-29.3879 0,0 -3.2815,-6.563 -3.2815,-14.9491 0,-6.0529 1.8231,-13.4907 7.9489,-19.6161 5.5421,-5.5423 12.1049,-7.4385 18.1577,-7.4385 6.0527,0 11.2299,1.8962 14.9491,4.2297 l 18.231,11.6677 c 0,0 1.8229,0.8751 3.7187,0.8751 1.8234,0 3.2819,-0.438 4.6671,-2.3335 0.9483,-1.8234 1.3856,-2.7713 1.3856,-4.1569 0,-1.3854 -0.437,-2.3337 -1.3856,-3.7189 l -0.9479,-1.4585"
     id="path48"
     style="stroke-width:4.66707" />
  <path
     class="Rest"
     d="m 2608.7664,2020.3397 c 0,6.563 0,6.563 6.563,6.563 h 138.6268 c 6.4902,0 6.4902,0 6.4902,-6.563 v -50.3898 c 0,-6.563 0,-6.563 -6.4902,-6.563 h -138.6268 c -6.563,0 -6.563,0 -6.563,6.563 v 50.3898"
     id="path50"
     style="stroke-width:4.66707" />
  <polyline
     class="FretDiagram"
     fill="none"
     stroke="#000000"
     stroke-width="7.44"
     stroke-linejoin="bevel"
     points="531.991,500.03 620.775,500.03"
     id="polyline52"
     transform="matrix(7.0844251,0,0,7.0844251,-1950.1174,-2711.3957)" />
  <polyline
     class="FretDiagram"
     fill="none"
     stroke="#000000"
     stroke-width="1.98"
     stroke-linejoin="bevel"
     points="532.983,502.758 532.983,573.19"
     id="polyline54"
     transform="matrix(7.0844251,0,0,7.0844251,-1950.1174,-2711.3957)" />
  <polyline
     class="FretDiagram"
     fill="none"
     stroke="#000000"
     stroke-width="1.98"
     stroke-linejoin="bevel"
     points="550.343,502.758 550.343,573.19"
     id="polyline56"
     transform="matrix(7.0844251,0,0,7.0844251,-1950.1174,-2711.3957)" />
  <polyline
     class="FretDiagram"
     fill="none"
     stroke="#000000"
     stroke-width="1.98"
     stroke-linejoin="bevel"
     points="567.703,502.758 567.703,573.19"
     id="polyline58"
     transform="matrix(7.0844251,0,0,7.0844251,-1950.1174,-2711.3957)" />
  <polyline
     class="FretDiagram"
     fill="none"
     stroke="#000000"
     stroke-width="1.98"
     stroke-linejoin="bevel"
     points="585.063,502.758 585.063,573.19"
     id="polyline60"
     transform="matrix(7.0844251,0,0,7.0844251,-1950.1174,-2711.3957)" />
  <polyline
     class="FretDiagram"
     fill="none"
     stroke="#000000"
     stroke-width="1.98"
     stroke-linejoin="bevel"
     points="602.423,502.758 602.423,573.19"
     id="polyline62"
     transform="matrix(7.0844251,0,0,7.0844251,-1950.1174,-2711.3957)" />
  <polyline
     class="FretDiagram"
     fill="none"
     stroke="#000000"
     stroke-width="1.98"
     stroke-linejoin="bevel"
     points="619.783,502.758 619.783,573.19"
     id="polyline64"
     transform="matrix(7.0844251,0,0,7.0844251,-1950.1174,-2711.3957)" />
  <polyline
     class="FretDiagram"
     fill="none"
     stroke="#000000"
     stroke-width="1.98"
     stroke-linejoin="bevel"
     points="532.983,520.118 619.783,520.118"
     id="polyline66"
     transform="matrix(7.0844251,0,0,7.0844251,-1950.1174,-2711.3957)" />
  <polyline
     class="FretDiagram"
     fill="none"
     stroke="#000000"
     stroke-width="1.98"
     stroke-linejoin="bevel"
     points="532.983,537.478 619.783,537.478"
     id="polyline68"
     transform="matrix(7.0844251,0,0,7.0844251,-1950.1174,-2711.3957)" />
  <polyline
     class="FretDiagram"
     fill="none"
     stroke="#000000"
     stroke-width="1.98"
     stroke-linejoin="bevel"
     points="532.983,554.838 619.783,554.838"
     id="polyline70"
     transform="matrix(7.0844251,0,0,7.0844251,-1950.1174,-2711.3957)" />
  <polyline
     class="FretDiagram"
     fill="none"
     stroke="#000000"
     stroke-width="1.98"
     stroke-linejoin="bevel"
     points="532.983,572.198 619.783,572.198"
     id="polyline72"
     transform="matrix(7.0844251,0,0,7.0844251,-1950.1174,-2711.3957)" />
  <path
     class="FretDiagram"
     fill-rule="evenodd"
     d="m 2115.6553,1034.834 c 0,24.2643 -19.6592,43.9234 -43.9234,43.9234 -24.257,0 -43.9234,-19.6591 -43.9234,-43.9234 0,-24.257 19.6664,-43.92335 43.9234,-43.92335 24.2642,0 43.9234,19.66635 43.9234,43.92335"
     id="path74"
     style="stroke-width:7.08444" />
  <path
     class="FretDiagram"
     fill-rule="evenodd"
     d="m 2238.6409,1034.834 c 0,24.2643 -19.6591,43.9234 -43.9234,43.9234 -24.257,0 -43.9234,-19.6591 -43.9234,-43.9234 0,-24.257 19.6664,-43.92335 43.9234,-43.92335 24.2643,0 43.9234,19.66635 43.9234,43.92335"
     id="path76"
     style="stroke-width:7.08444" />
  <path
     class="FretDiagram"
     fill-rule="evenodd"
     d="m 2361.6266,911.84845 c 0,24.2642 -19.6592,43.9234 -43.9234,43.9234 -24.2571,0 -43.9235,-19.6592 -43.9235,-43.9234 0,-24.25704 19.6664,-43.92343 43.9235,-43.92343 24.2642,0 43.9234,19.66639 43.9234,43.92343"
     id="path78"
     style="stroke-width:7.08444" />
  <path
     class="FretDiagram"
     fill="none"
     stroke="#000000"
     stroke-width="16.8609"
     stroke-linejoin="bevel"
     fill-rule="evenodd"
     d="m 1997.9406,720.3422 c 0,27.16882 -22.0255,49.19438 -49.1943,49.19438 -27.1687,0 -49.1943,-22.02556 -49.1943,-49.19438 0,-27.16866 22.0256,-49.19422 49.1943,-49.19422 27.1688,0 49.1943,22.02556 49.1943,49.19422"
     id="path80" />
  <path
     class="FretDiagram"
     fill="none"
     stroke="#000000"
     stroke-width="16.8609"
     stroke-linejoin="bevel"
     fill-rule="evenodd"
     d="m 2489.883,720.3422 c 0,27.16882 -22.0254,49.19438 -49.1942,49.19438 -27.1688,0 -49.1942,-22.02556 -49.1942,-49.19438 0,-27.16866 22.0254,-49.19422 49.1942,-49.19422 27.1688,0 49.1942,22.02556 49.1942,49.19422"
     id="path82" />
  <metadata
     id="metadata213">
    <rdf:RDF>
      <cc:Work
         rdf:about="">
        <dc:title>Partition sans titre</dc:title>
      </cc:Work>
    </rdf:RDF>
  </metadata>
  <text
     xml:space="preserve"
     style="font-size:135px;font-family:sans-serif;-inkscape-font-specification:sans-serif;fill:#000000;stroke:#000000;stroke-width:0.878741;paint-order:stroke fill markers"
     x="2043.0518"
     y="1478.238"
     id="text472"><tspan
       sodipodi:role="line"
       id="tspan470"
       style="stroke-width:0.87874"
       x="2043.0518"
       y="1478.238">2</tspan></text>
  <text
     xml:space="preserve"
     style="font-size:135px;font-family:sans-serif;-inkscape-font-specification:sans-serif;fill:#000000;stroke:#000000;stroke-width:0.878741;paint-order:stroke fill markers"
     x="1885.1375"
     y="2306.0718"
     id="text472-3"><tspan
       sodipodi:role="line"
       id="tspan470-6"
       style="stroke-width:0.87874"
       x="1885.1375"
       y="2306.0718">2</tspan></text>
  <text
     xml:space="preserve"
     style="font-size:135px;font-family:sans-serif;-inkscape-font-specification:sans-serif;fill:#000000;stroke:#000000;stroke-width:0.878741;paint-order:stroke fill markers"
     x="2167.2595"
     y="1479.8842"
     id="text476"><tspan
       sodipodi:role="line"
       id="tspan474"
       style="stroke-width:0.87874"
       x="2167.2595"
       y="1479.8842">3</tspan></text>
  <text
     xml:space="preserve"
     style="font-size:135px;font-family:sans-serif;-inkscape-font-specification:sans-serif;fill:#000000;stroke:#000000;stroke-width:0.878741;paint-order:stroke fill markers"
     x="1893.2795"
     y="2160.958"
     id="text476-7"><tspan
       sodipodi:role="line"
       id="tspan474-5"
       style="stroke-width:0.87874"
       x="1893.2795"
       y="2160.958">3</tspan></text>
  <text
     xml:space="preserve"
     style="font-size:135px;font-family:sans-serif;-inkscape-font-specification:sans-serif;fill:#000000;stroke:#000000;stroke-width:0.878741;paint-order:stroke fill markers"
     x="2272.9587"
     y="1477.2902"
     id="text480"><tspan
       sodipodi:role="line"
       id="tspan478"
       style="stroke-width:0.87874"
       x="2272.9587"
       y="1477.2902">1</tspan></text>
  <text
     xml:space="preserve"
     style="font-size:135px;font-family:sans-serif;-inkscape-font-specification:sans-serif;fill:#000000;stroke:#000000;stroke-width:0.878741;paint-order:stroke fill markers"
     x="1893.6096"
     y="2016.0309"
     id="text480-3"><tspan
       sodipodi:role="line"
       id="tspan478-5"
       style="stroke-width:0.87874"
       x="1893.6096"
       y="2016.0309">1</tspan></text>
</svg>
