<?xml version="1.0" encoding="UTF-8" standalone="no"?>
<svg
   width="297mm"
   height="210mm"
   viewBox="0 0 4209.4489 2976.378"
   version="1.2"
   id="svg90"
   sodipodi:docname="accord_do_majeur.svg"
   inkscape:version="1.2.2 (b0a8486541, 2022-12-01)"
   xmlns:inkscape="http://www.inkscape.org/namespaces/inkscape"
   xmlns:sodipodi="http://sodipodi.sourceforge.net/DTD/sodipodi-0.dtd"
   xmlns="http://www.w3.org/2000/svg"
   xmlns:svg="http://www.w3.org/2000/svg"
   xmlns:rdf="http://www.w3.org/1999/02/22-rdf-syntax-ns#"
   xmlns:cc="http://creativecommons.org/ns#"
   xmlns:dc="http://purl.org/dc/elements/1.1/">
  <defs
     id="defs94" />
  <sodipodi:namedview
     id="namedview92"
     pagecolor="#ffffff"
     bordercolor="#000000"
     borderopacity="0.25"
     inkscape:showpageshadow="2"
     inkscape:pageopacity="0.0"
     inkscape:pagecheckerboard="0"
     inkscape:deskcolor="#d1d1d1"
     inkscape:document-units="mm"
     showgrid="false"
     inkscape:zoom="1.930581"
     inkscape:cx="502.9574"
     inkscape:cy="625.71837"
     inkscape:window-width="1104"
     inkscape:window-height="552"
     inkscape:window-x="0"
     inkscape:window-y="32"
     inkscape:window-maximized="1"
     inkscape:current-layer="svg90" />
  <title
     id="title2">Partition sans titre</title>
  <desc
     id="desc4">Generated by MuseScore Studio 4.5.2</desc>
  <polyline
     class="StaffLines"
     fill="none"
     stroke="#000000"
     stroke-width="2.73"
     stroke-linejoin="bevel"
     points="336.598,668.478 2764.6,668.478"
     id="polyline6"
     transform="matrix(0.95101022,0,0,4.6204961,701.28571,-1181.324)" />
  <polyline
     class="StaffLines"
     fill="none"
     stroke="#000000"
     stroke-width="2.73"
     stroke-linejoin="bevel"
     points="336.598,693.278 2764.6,693.278"
     id="polyline8"
     transform="matrix(0.95101022,0,0,4.6204961,701.28571,-1181.324)" />
  <polyline
     class="StaffLines"
     fill="none"
     stroke="#000000"
     stroke-width="2.73"
     stroke-linejoin="bevel"
     points="336.598,718.078 2764.6,718.078"
     id="polyline10"
     transform="matrix(0.95101022,0,0,4.6204961,701.28571,-1181.324)" />
  <polyline
     class="StaffLines"
     fill="none"
     stroke="#000000"
     stroke-width="2.73"
     stroke-linejoin="bevel"
     points="336.598,742.878 2764.6,742.878"
     id="polyline12"
     transform="matrix(0.95101022,0,0,4.6204961,701.28571,-1181.324)" />
  <polyline
     class="StaffLines"
     fill="none"
     stroke="#000000"
     stroke-width="2.73"
     stroke-linejoin="bevel"
     points="336.598,767.678 2764.6,767.678"
     id="polyline14"
     transform="matrix(0.95101022,0,0,4.6204961,701.28571,-1181.324)" />
  <path
     class="Text"
     d="m 1146.1076,151.49176 h -9.25 l -50.594,128.25 c -5.938,17.156 -11.656,22.438 -24.188,23.314 h -0.876 v 10.342 h 58.282 v -10.342 h -4.406 c -11.876,0 -17.812,-4.188 -17.812,-12.532 0,-2.876 0.656,-5.5 2,-9.25 l 7.25,-19.344 h 58.312 l 11.868,29.468 c 1.32,3.532 1.76,4.844 1.76,5.938 0,3.532 -5.5,5.72 -13.628,5.72 h -9.25 v 10.342 h 68.178 v -10.342 h -3.06 c -11.44,-0.22 -13.44,-1.532 -18.5,-14.064 l -56.086,-137.5 m -10.782,36.064 24.874,62.468 h -49.28 l 24.406,-62.468 m 171.568,93.5 c -7.04,15.842 -14.5,22.218 -25.94,22.218 -17.6,0 -28.6,-16.062 -28.6,-41.782 0,-26.844 10.78,-44.468 27.04,-44.468 6.62,0 12.34,3.094 12.34,6.624 0,0.658 -0.22,1.314 -1.34,2.626 -3.5,4.188 -4.38,6.374 -4.38,10.124 0,7.25 5.5,12.314 13.18,12.314 7.94,0 13.44,-6.156 13.44,-14.938 0,-14.968 -14.74,-26.188 -34.34,-26.188 -28.6,0 -49.06,23.312 -49.06,56.312 0,31.25 18.72,52.814 46,52.814 19.56,0 30.78,-9.032 40.24,-32.344 l -8.58,-3.312 m 97.86,0 c -7.02,15.842 -14.5,22.218 -25.92,22.218 -17.6,0 -28.6,-16.062 -28.6,-41.782 0,-26.844 10.78,-44.468 27.02,-44.468 6.64,0 12.36,3.094 12.36,6.624 0,0.658 -0.22,1.314 -1.36,2.626 -3.5,4.188 -4.36,6.374 -4.36,10.124 0,7.25 5.5,12.314 13.18,12.314 7.94,0 13.44,-6.156 13.44,-14.938 0,-14.968 -14.76,-26.188 -34.34,-26.188 -28.6,0 -49.06,23.312 -49.06,56.312 0,31.25 18.72,52.814 46,52.814 19.56,0 30.78,-9.032 40.24,-32.344 l -8.6,-3.312 m 67.72,-73.47 c -27.06,0 -47.96,23.97 -47.96,54.782 0,30.124 21.12,54.344 47.54,54.344 26.4,0 47.52,-24.22 47.52,-54.564 0,-30.156 -21.12,-54.562 -47.1,-54.562 m 0,9.438 c 15.42,0 23.98,16.062 23.98,45.124 0,29.25 -8.56,45.094 -24.4,45.094 -15.86,0 -24.42,-15.844 -24.42,-44.874 0,-29.938 8.34,-45.344 24.84,-45.344 m 98.1,-6.156 -38.94,2.438 v 9.468 h 9 c 8.38,0.218 9.48,1.532 9.48,11 v 62.906 c -0.22,3.312 -0.44,4.626 -1.32,5.718 -1.54,1.97 -5.94,2.876 -15.4,3.094 h -0.88 v 7.906 h 58.74 v -7.906 h -3.96 c -14.74,-0.468 -16.72,-1.562 -16.72,-9.468 v -11.876 c 0.22,-36.968 13.4,-65.124 30.56,-66 -3.06,3.5 -3.94,5.72 -3.94,9.876 0,7.062 5.06,12.124 12.1,12.124 8.12,0 13.4,-5.936 13.4,-14.75 0,-10.78 -7.46,-17.812 -19.12,-17.812 -13.88,0 -25.74,11 -33,30.562 v -27.28 m 135.9,104.062 38.28,-1.532 v -9.468 h -3.96 c -12.54,-0.656 -13.62,-1.968 -13.62,-16.062 v -136.626 l -43.12,2.438 v 9.468 h 12.96 c 8.38,0.22 9.46,1.532 9.46,11 v 49.72 c -8.12,-11.22 -17.58,-16.282 -30.34,-16.282 -24.88,0 -43.78,23.97 -43.78,55.656 0,31.25 18.26,53.47 43.78,53.47 13.84,0 23.32,-5.938 30.34,-19.156 v 17.374 m -25.96,-95.468 c 9.04,0 17.62,6.594 21.56,16.718 2.88,6.594 4.18,15.626 4.18,26.406 0,25.72 -10.12,42.22 -25.96,42.22 -15.6,0 -24.84,-14.5 -24.84,-38.938 0,-13.188 1.3,-23.094 4.18,-30.344 3.72,-9.906 11.88,-16.062 20.88,-16.062 m 213.38,95.468 38.28,-1.532 v -9.468 h -3.98 c -12.52,-0.656 -13.62,-1.968 -13.62,-16.062 v -136.626 l -43.12,2.438 v 9.468 h 12.96 c 8.38,0.22 9.48,1.532 9.48,11 v 49.72 c -8.14,-11.22 -17.6,-16.282 -30.34,-16.282 -24.88,0 -43.8,23.97 -43.8,55.656 0,31.25 18.26,53.47 43.8,53.47 13.84,0 23.3,-5.938 30.34,-19.156 v 17.374 m -25.98,-95.468 c 9.04,0 17.64,6.594 21.56,16.718 2.88,6.594 4.2,15.626 4.2,26.406 0,25.72 -10.12,42.22 -25.98,42.22 -15.58,0 -24.84,-14.5 -24.84,-38.938 0,-13.188 1.32,-23.094 4.2,-30.344 3.7,-9.906 11.86,-16.062 20.86,-16.062 m 170.94,44.436 c 0.22,-33 -18.5,-56.312 -45.34,-56.312 -28.16,0 -49.28,24.406 -49.28,57.406 0,31.032 20.02,51.72 49.72,51.72 21.12,0 35.88,-10.344 44.9,-31.25 l -7.72,-4.188 c -9,16.938 -18.24,23.532 -33,23.532 -11.22,0 -19.34,-4.594 -25.06,-14.5 -3.96,-6.594 -5.72,-14.314 -5.5,-26.408 h 71.28 m -71.06,-9.468 c 0,-15.406 7.04,-37.406 25.5,-37.406 13.22,0 22,11.688 22,29.5 0,6.156 -1.96,7.906 -9,7.906 h -38.5 m 146.26,58.968 h 73.92 c 19.58,0 34.54,-3.092 46.2,-9.686 22.22,-12.532 34.52,-37.626 34.52,-70.626 0,-30.344 -11,-54.094 -31.22,-67.312 -12.12,-7.688 -28.4,-11.218 -53.46,-11.218 h -69.96 v 10.342 h 4.18 c 12.32,0.22 16.5,0.876 18.24,3.094 1.32,1.97 1.32,2.406 1.32,13.626 v 104.718 c 0,11.22 0,11.656 -1.32,13.656 -1.74,2.188 -5.92,2.844 -18.24,3.064 h -4.18 v 10.342 m 60.92,-10.342 c -11.22,0 -12.52,-1.314 -12.52,-12.094 v -113.75 c 0,-10.782 1.52,-12.314 12.52,-12.314 h 11.44 c 37.64,0 53.26,20.47 53.26,69.094 0,49.282 -14.1,69.064 -49.72,69.064 h -14.98 m 159.72,-95.47 c -27.06,0 -47.96,23.97 -47.96,54.782 0,30.124 21.12,54.344 47.52,54.344 26.42,0 47.54,-24.22 47.54,-54.564 0,-30.156 -21.12,-54.562 -47.1,-54.562 m 0,9.438 c 15.42,0 23.98,16.062 23.98,45.124 0,29.25 -8.56,45.094 -24.42,45.094 -15.84,0 -24.4,-15.844 -24.4,-44.874 0,-29.938 8.34,-45.344 24.84,-45.344 m 159.92,-6.156 -39.16,2.438 v 9.468 h 9.02 c 8.36,0.218 9.44,1.532 9.44,11 v 62.906 c -0.22,3.312 -0.44,4.626 -1.3,5.718 -1.54,1.97 -5.72,2.876 -15.2,3.094 h -0.86 v 7.906 h 55.42 v -7.906 h -0.86 c -14.54,-0.468 -16.5,-1.562 -16.5,-9.686 v -40.72 c 0,-19.562 10.78,-34.094 25.08,-34.094 12.54,0 18.92,9.032 18.92,26.844 v 49.062 c -0.22,2.876 -0.44,4.408 -1.54,5.5 -1.32,1.97 -5.72,2.876 -15.18,3.094 h -0.88 v 7.906 h 55.66 v -7.906 h -0.88 c -14.54,-0.468 -16.5,-1.562 -16.5,-9.468 v -38.938 c 0,-22 9.9,-36.094 25.28,-36.094 12.56,0 18.72,9.47 18.72,29.282 v 46.406 c -0.22,3.094 -0.44,4.626 -1.54,5.718 -1.34,1.97 -5.7,2.876 -15.18,3.094 h -0.88 v 7.906 h 55.66 v -7.906 h -0.88 c -14.52,-0.468 -16.5,-1.562 -16.5,-9.686 v -49.938 c 0,-13.656 -1.34,-18.282 -7.06,-25.75 -6.36,-8.126 -15.36,-12.532 -25.94,-12.532 -14.3,0 -24.86,6.812 -34.34,22 -3.72,-13.218 -15.62,-22 -30.34,-22 -13.44,0 -23.1,6.376 -31.68,20.22 v -16.938 m 250.78,31.688 c 0,-13.844 -2.42,-20.908 -8.82,-26.188 -7.24,-5.938 -18.02,-8.782 -32.1,-8.782 -24.86,0 -42.9,11.656 -42.9,27.72 0,8.124 5.06,13.406 12.76,13.406 7.02,0 11.86,-4.626 11.86,-11.22 0,-2.844 -1.08,-5.936 -3.28,-9 -1.34,-1.562 -1.56,-2 -1.56,-3.094 0,-4.406 8.82,-8.374 19.38,-8.374 7.02,0 14.74,2.218 18.24,5.5 4.2,3.532 5.72,8.812 5.72,18.718 v 8.564 c -22.86,3.968 -30.12,5.718 -40.9,9.906 -19.16,7.062 -28.16,17.156 -28.16,31.25 0,15.844 12.32,25.75 31.92,25.75 15.14,0 28.8,-6.188 38.28,-17.406 3.5,11.218 9,15.624 19.34,15.624 9.9,0 20.24,-6.374 20.24,-12.75 0,-1.532 -0.86,-2.656 -2.22,-2.656 -0.86,0 -1.74,0.25 -3.28,0.906 -3.08,1.312 -4.4,1.532 -6.16,1.532 -6.18,0 -8.36,-3.97 -8.36,-15.188 v -44.218 m -20.7,26.842 c 0,13.188 -0.64,16.282 -4.36,22 -5.5,8.126 -15.42,13.626 -25.1,13.626 -10.12,0 -17.38,-7.25 -17.38,-17.156 0,-9.22 4.62,-15.844 14.28,-20.438 6.84,-3.094 15.42,-5.282 32.56,-8.156 v 10.124 m 72.36,-113.312 c -7.04,0 -12.76,5.72 -12.76,12.782 0,7.03 5.72,12.75 12.54,12.75 7.28,0 13,-5.72 13,-12.75 0,-7.062 -5.72,-12.782 -12.78,-12.782 m 10.34,54.782 -42.92,2.438 v 9.468 h 12.78 c 8.36,0.218 9.48,1.532 9.48,11 v 74.562 c 0,17.812 -1.12,26.188 -4.18,32.562 -2.22,4.408 -7.3,7.688 -12.1,7.688 -3.1,0 -5.5,-1.312 -5.5,-2.844 0,-0.874 0.22,-1.312 1.1,-3.53 1.08,-2.188 1.52,-3.72 1.52,-5.282 0,-5.5 -5.28,-10.344 -11.44,-10.344 -7.02,0 -12.3,5.5 -12.3,13.22 0,10.78 9.9,18.03 24.62,18.03 12.3,0 23.52,-5.28 29.94,-14.312 6.8,-9.656 9,-20.876 9,-45.75 v -86.906 m 121.86,53.03 c 0.22,-33 -18.5,-56.312 -45.34,-56.312 -28.16,0 -49.28,24.406 -49.28,57.406 0,31.032 20.04,51.72 49.72,51.72 21.12,0 35.88,-10.344 44.9,-31.25 l -7.7,-4.188 c -9,16.938 -18.26,23.532 -33,23.532 -11.22,0 -19.36,-4.594 -25.08,-14.5 -3.96,-6.594 -5.72,-14.314 -5.5,-26.408 h 71.28 m -71.06,-9.468 c 0,-15.406 7.04,-37.406 25.5,-37.406 13.22,0 22,11.688 22,29.5 0,6.156 -1.96,7.906 -9,7.906 h -38.5 m 169.36,60.5 40.06,-1.532 v -9.468 h -5.5 c -12.78,-0.438 -13.88,-1.75 -13.88,-16.062 v -77 l -41.34,2.438 v 9.468 h 11.22 c 8.34,0.218 9.44,1.532 9.44,11 v 27.032 c 0,19.156 -4.6,42.468 -28.82,42.468 -6.82,0 -12.54,-2.406 -15.4,-6.812 -2.86,-4.188 -3.28,-6.376 -3.28,-18.47 v -67.124 l -38.5,2.438 v 9.468 h 8.34 c 8.36,0.218 9.46,1.532 9.46,11 v 47.5 c 0,11.218 0.88,16.282 4.2,21.344 5.92,9.03 16.5,14.094 29.68,14.094 14.52,0 24.66,-5.938 34.32,-20.032 v 18.25 m 87.34,-104.062 -38.94,2.438 v 9.468 h 9 c 8.38,0.218 9.46,1.532 9.46,11 v 62.906 c -0.22,3.312 -0.44,4.626 -1.3,5.718 -1.54,1.97 -5.94,2.876 -15.42,3.094 h -0.86 v 7.906 h 58.74 v -7.906 h -3.96 c -14.76,-0.468 -16.72,-1.562 -16.72,-9.468 v -11.876 c 0.22,-36.968 13.4,-65.124 30.56,-66 -3.06,3.5 -3.94,5.72 -3.94,9.876 0,7.062 5.06,12.124 12.1,12.124 8.12,0 13.4,-5.936 13.4,-14.75 0,-10.78 -7.46,-17.812 -19.12,-17.812 -13.88,0 -25.76,11 -33,30.562 v -27.28 m 67.94,78.124 c -7.7,0 -13.86,6.156 -13.86,13.626 0,7.688 6.16,13.874 13.64,13.874 7.72,0 13.86,-6.186 13.86,-13.874 0,-7.47 -6.14,-13.626 -13.64,-13.626"
     id="path16"
     style="stroke-width:2" />
  <polyline
     class="BarLine"
     fill="none"
     stroke="#000000"
     stroke-width="4.46"
     stroke-linejoin="bevel"
     points="2739.55,667.114 2739.55,769.042"
     id="polyline18"
     transform="matrix(0.95101022,0,0,4.6204961,701.28571,-1181.324)" />
  <polyline
     class="BarLine"
     fill="none"
     stroke="#000000"
     stroke-width="13.64"
     stroke-linejoin="bevel"
     points="2757.78,667.114 2757.78,769.042"
     id="polyline20"
     transform="matrix(0.95101022,0,0,4.6204961,701.28571,-1181.324)" />
  <polyline
     class="LedgerLine"
     fill="none"
     stroke="#000000"
     stroke-width="3.97"
     stroke-linejoin="bevel"
     points="527.341,792.478 575.934,792.478"
     id="polyline24"
     transform="matrix(4.6204961,0,0,4.6204961,-533.85589,-1181.324)" />
  <polyline
     class="Stem"
     fill="none"
     stroke="#000000"
     stroke-width="2.48"
     stroke-linejoin="bevel"
     points="566.51,788.51 566.51,618.878"
     id="polyline26"
     transform="matrix(4.6204961,0,0,4.6204961,-533.85589,-1181.324)" />
  <path
     class="Note"
     d="m 1940.5352,2499.5827 c 0,19.6948 14.1803,41.6815 51.3498,41.6815 47.6261,0 97.615,-38.9601 97.615,-79.2808 0,-27.0715 -22.9176,-42.1828 -51.3498,-42.1828 -44.4744,0 -97.615,37.5993 -97.615,79.7821"
     id="path28"
     style="stroke-width:4.58353" />
  <path
     class="Note"
     d="m 1940.5352,2384.9944 c 0,19.6948 14.1803,41.6815 51.3498,41.6815 47.6261,0 97.615,-38.9601 97.615,-79.2808 0,-27.0715 -22.9176,-42.1828 -51.3498,-42.1828 -44.4744,0 -97.615,37.5993 -97.615,79.7821"
     id="path30"
     style="stroke-width:4.58353" />
  <path
     class="Note"
     d="m 1940.5352,2270.4061 c 0,19.6948 14.1803,41.6815 51.3498,41.6815 47.6261,0 97.615,-38.9601 97.615,-79.2808 0,-27.0715 -22.9176,-42.1827 -51.3498,-42.1827 -44.4744,0 -97.615,37.5992 -97.615,79.782"
     id="path32"
     style="stroke-width:4.58353" />
  <path
     class="Note"
     d="m 1940.5352,2098.5237 c 0,19.6948 14.1803,41.6815 51.3498,41.6815 47.6261,0 97.615,-38.9601 97.615,-79.2808 0,-27.0714 -22.9176,-42.1827 -51.3498,-42.1827 -44.4744,0 -97.615,37.5992 -97.615,79.782"
     id="path34"
     style="stroke-width:4.58353" />
  <path
     class="Note"
     d="m 1940.5352,1983.9354 c 0,19.6949 14.1803,41.6816 51.3498,41.6816 47.6261,0 97.615,-38.9601 97.615,-79.2809 0,-27.0714 -22.9176,-42.1827 -51.3498,-42.1827 -44.4744,0 -97.615,37.5992 -97.615,79.782"
     id="path36"
     style="stroke-width:4.58353" />
  <path
     class="Clef"
     d="m 1301.2042,2579.7945 c 0,-16.9734 -15.5409,-24.2782 -30.6523,-24.2782 -19.2651,0 -38.1007,11.8883 -38.1007,32.5142 0,8.7376 3.2227,15.183 9.6685,21.5569 -11.9602,4.5836 -23.849,13.7506 -23.849,28.0026 0,15.1113 13.7506,25.2094 33.947,25.2094 24.708,0 42.1112,-13.7506 42.1112,-33.5171 0,-10.5278 -4.5835,-19.1935 -12.8197,-25.2094 13.3212,-5.9443 19.695,-13.2493 19.695,-24.2784 m -45.8353,73.3365 c -10.0265,0 -16.9018,-6.374 -16.9018,-16.0424 0,-9.167 4.0821,-16.472 11.8883,-21.0556 1.8623,0.9311 2.2918,0.9311 3.6527,1.7905 5.5144,2.7931 5.5144,2.7931 6.4458,3.7241 8.6656,5.0135 12.3897,9.597 12.3897,16.0424 0,8.6657 -7.3767,15.541 -17.4747,15.541 m 17.4747,-55.0024 c -6.8753,-3.6523 -8.7376,-4.5835 -10.098,-5.5145 l -0.9313,-0.4298 c -6.8753,-4.154 -9.1671,-7.3768 -9.1671,-12.8197 0,-8.3077 6.4458,-14.252 15.6129,-14.252 8.6656,0 14.1801,5.5146 14.1801,15.1114 0,7.3768 -2.7213,12.3898 -9.5966,17.9044 m 127.8375,-347.9185 c 0,-69.1828 -49.058,-115.9491 -115.9492,-115.9491 -4.5835,-27.5011 -8.7371,-54.5727 -12.8192,-80.2117 48.1271,-50.9202 82.0021,-108.6439 82.0021,-181.0495 0,-41.7532 -12.8196,-75.6282 -20.6259,-92.1702 -10.9573,-23.3485 -24.2785,-39.3909 -32.0847,-39.3909 -3.1512,0 -17.8327,5.514 -32.5146,23.3485 -29.793,34.8761 -38.0287,93.0297 -38.0287,131.5598 0,24.7799 2.2918,47.1961 10.098,99.0473 -0.5014,0 -24.35,24.2786 -33.947,32.5147 -41.7528,38.5301 -99.4768,94.3918 -99.4768,185.6328 0,86.1563 74.6973,153.5484 159.9941,153.5484 13.2491,0 25.6389,-1.3608 36.6682,-3.2226 8.2357,43.6149 13.7506,76.1294 13.7506,100.4078 0,47.6976 -24.7799,72.907 -71.0447,72.907 -11.0294,0 -20.6259,-2.2918 -21.5573,-2.7933 -0.4297,0 -1.3604,-0.4297 -1.3604,-0.8594 0,-0.9308 0.9309,-1.4324 2.2918,-1.8621 21.5568,-3.2228 43.0421,-21.9864 43.0421,-50.8486 0,-24.7797 -18.7641,-50.9201 -53.1406,-50.9201 -32.0847,0 -52.2806,26.1404 -52.2806,56.3631 0,30.2945 22.9176,70.1853 84.7953,70.1853 59.156,0 88.018,-33.5171 88.018,-92.1719 0,-17.8328 -2.7212,-38.4587 -7.3047,-64.599 -1.3609,-9.167 -3.6527,-23.4192 -6.8753,-40.8223 44.9039,-15.1113 78.3495,-61.4477 78.3495,-108.644 m -141.1586,-375.8494 c 4.5835,-18.3341 25.2094,-66.4612 49.0585,-66.4612 6.8753,0 18.3341,21.9863 18.3341,54.071 0,47.1961 -35.7374,83.005 -67.3926,114.5883 -2.7212,-18.3342 -5.013,-36.6683 -5.013,-55.4319 0,-17.4032 1.7903,-32.5861 5.013,-46.7662 m 13.7506,473.9656 c -65.5298,0 -121.4635,-45.8353 -121.4635,-115.0896 0,-55.862 39.3899,-105.851 79.7822,-141.1582 7.7347,-6.4459 15.1115,-12.8197 21.9868,-19.695 4.0821,24.708 7.3047,45.8352 10.5274,65.1002 -41.7527,11.8888 -70.1133,56.3633 -70.1133,98.9758 0,32.586 25.2094,76.5593 61.8776,76.5593 3.6522,0 7.8063,-1.8618 7.8063,-6.4454 0,-3.6527 -4.1541,-6.3742 -10.098,-10.0267 -17.9047,-10.5994 -28.0027,-22.9176 -28.0027,-44.9759 0,-27.9309 21.1274,-50.4191 47.6972,-56.7929 l 26.5703,150.3256 c -9.1671,1.8623 -17.4032,3.2228 -26.5703,3.2228 m 45.8353,-8.7373 c -9.5965,-54.5011 -21.9863,-127.4079 -25.2094,-147.6043 46.2652,0 66.0317,32.0849 70.1138,54.1432 0.5015,3.6525 1.3609,8.6657 1.3609,14.1803 0,33.0157 -13.7506,66.0317 -46.2653,79.2808"
     id="path38"
     style="stroke-width:4.58353" />
  <path
     class="TimeSig"
     d="m 1604.147,2080.1895 v 33.8754 h -38.0291 c -3.2226,0 -6.4453,2.7927 -6.4453,6.4453 v 8.7376 c 0,3.6522 3.2227,6.3739 6.4453,6.3739 h 138.8669 c 3.7241,0 6.4453,-2.7217 6.4453,-6.3739 v -8.7376 c 0,-3.6526 -2.7212,-6.4453 -6.4453,-6.4453 h -41.2518 v -33.8754 h 41.2518 c 3.7241,0 6.4453,-3.2227 6.4453,-6.8753 v -8.7373 c 0,-3.2227 -2.7212,-6.3739 -6.4453,-6.3739 h -41.2518 v -72.9068 c 0,-2.7215 -1.3609,-5.0133 -3.1512,-5.9443 l -5.5145,-2.7931 c -0.9313,-0.4297 -1.3608,-0.4297 -2.2917,-0.4297 -0.5015,0 -0.5015,0 -0.9314,0 -1.3604,0 -3.2227,0.4297 -4.1536,1.3607 l -41.6817,38.029 c -1.3604,1.4324 -1.8619,3.2228 -1.8619,5.0849 v 37.5993 h -53.1404 c 0,0 51.3501,-55.0024 105.4211,-127.4797 1.8623,-2.2918 2.2918,-4.5836 2.2918,-6.3739 0,-2.2918 -0.9309,-4.1536 -1.3604,-4.5835 l -10.0984,-10.098 c -1.3604,-0.9309 -2.7213,-1.8623 -4.5836,-1.8623 -2.7212,0 -64.6704,0 -68.323,0 -3.2227,0 -5.5145,2.7932 -5.9444,5.5149 0,0 -2.2918,33.9466 -14.1803,71.0446 -11.9601,37.1696 -25.7107,60.0873 -37.5993,76.9891 0,0 -1.3607,2.2917 -1.3607,5.0848 0,0.931 0,1.7907 0.4297,2.7216 1.3607,3.2227 4.5835,8.2361 4.5835,8.2361 0,0 0.9311,2.7928 5.0133,2.7928 h 78.8511"
     id="path40"
     style="stroke-width:4.58353" />
  <path
     class="TimeSig"
     d="m 1604.147,2309.3661 v 33.8754 h -38.0291 c -3.2226,0 -6.4453,2.7929 -6.4453,6.4454 v 8.7375 c 0,3.6523 3.2227,6.3738 6.4453,6.3738 h 138.8669 c 3.7241,0 6.4453,-2.7215 6.4453,-6.3738 v -8.7375 c 0,-3.6525 -2.7212,-6.4454 -6.4453,-6.4454 h -41.2518 v -33.8754 h 41.2518 c 3.7241,0 6.4453,-3.2228 6.4453,-6.8753 v -8.7374 c 0,-3.2228 -2.7212,-6.3739 -6.4453,-6.3739 h -41.2518 v -72.9068 c 0,-2.7215 -1.3609,-5.0133 -3.1512,-5.9443 l -5.5145,-2.7931 c -0.9313,-0.4297 -1.3608,-0.4297 -2.2917,-0.4297 -0.5015,0 -0.5015,0 -0.9314,0 -1.3604,0 -3.2227,0.4297 -4.1536,1.3607 l -41.6817,38.029 c -1.3604,1.4324 -1.8619,3.2228 -1.8619,5.0849 v 37.5993 h -53.1404 c 0,0 51.3501,-55.0024 105.4211,-127.4798 1.8623,-2.2917 2.2918,-4.5835 2.2918,-6.3738 0,-2.2918 -0.9309,-4.1536 -1.3604,-4.5835 l -10.0984,-10.098 c -1.3604,-0.9309 -2.7213,-1.8623 -4.5836,-1.8623 -2.7212,0 -64.6704,0 -68.323,0 -3.2227,0 -5.5145,2.7932 -5.9444,5.5149 0,0 -2.2918,33.9465 -14.1803,71.0446 -11.9601,37.1696 -25.7107,60.0873 -37.5993,76.989 0,0 -1.3607,2.2918 -1.3607,5.0849 0,0.931 0,1.7907 0.4297,2.7215 1.3607,3.2228 4.5835,8.2362 4.5835,8.2362 0,0 0.9311,2.7929 5.0133,2.7929 h 78.8511"
     id="path42"
     style="stroke-width:4.58353" />
  <path
     class="Rest"
     d="m 2953.0245,2131.9691 c 0,6.4456 0,6.4456 6.4456,6.4456 h 136.1452 c 6.374,0 6.374,0 6.374,-6.4456 v -49.4878 c 0,-6.4454 0,-6.4454 -6.374,-6.4454 h -136.1452 c -6.4456,0 -6.4456,0 -6.4456,6.4454 v 49.4878"
     id="path44"
     style="stroke-width:4.58353" />
  <path
     class="Rest"
     d="m 2617.1838,2252.2106 c -0.4293,-0.4297 -1.3608,-1.361 -2.7213,-3.1512 l -52.7106,-65.1007 c -0.5015,-0.5014 -0.9313,-1.8621 -0.9313,-2.7931 0,-1.3608 0.4298,-3.1512 0.9313,-4.0822 l 46.6947,-70.6148 c 0.5011,-0.9314 0.9308,-2.2918 0.9308,-3.2232 v -4.0821 c 0,-1.3608 -0.4297,-2.7932 -1.3607,-3.6526 l -74.2675,-100.4078 c 0,0 -1.7905,-2.7932 -4.5836,-2.7932 -1.3607,0 -2.2917,0.5015 -3.6525,1.4324 -1.862,1.3608 -2.2917,3.1512 -2.2917,4.5835 0,2.7217 1.3607,5.0135 1.3607,5.0135 l 34.878,47.6971 c 0.8595,1.3609 1.3605,3.1512 1.3605,5.443 0,1.8623 -0.501,4.154 -1.3605,5.5144 l -46.3368,70.6153 c -0.4297,0.931 -0.9311,2.7215 -0.9311,3.6525 v 4.1537 c 0,1.3608 0.5014,2.7215 1.4324,3.6525 l 51.2785,63.7398 c -1.7907,-0.5014 -5.9445,-1.4324 -11.4591,-1.4324 -7.7347,0 -17.8328,1.8621 -26.0688,9.1671 -10.0981,9.1673 -15.6127,22.0584 -15.6127,33.5173 0,6.3737 1.3608,12.8193 5.0133,17.8326 9.6684,14.6816 44.0448,58.2251 44.0448,58.2251 0,0 2.2918,2.7931 5.5148,2.7931 0.8595,0 1.7903,0 2.7213,-0.9308 2.2917,-1.8623 3.2228,-3.6527 3.2228,-5.5148 0,-1.862 -0.9311,-3.2228 -1.3605,-4.1538 -1.4324,-2.2918 -16.0426,-28.8619 -16.0426,-28.8619 0,0 -3.2228,-6.4454 -3.2228,-14.6816 0,-5.9443 1.7904,-13.2491 7.8065,-19.265 5.443,-5.4429 11.8883,-7.3052 17.8326,-7.3052 5.9445,0 11.0291,1.8623 14.6816,4.154 l 17.9047,11.4589 c 0,0 1.7902,0.8594 3.6523,0.8594 1.7906,0 3.223,-0.4297 4.5835,-2.2918 0.9313,-1.7907 1.3607,-2.7217 1.3607,-4.0824 0,-1.3605 -0.4292,-2.2918 -1.3607,-3.6523 l -0.931,-1.4323"
     id="path46"
     style="stroke-width:4.58353" />
  <polyline
     class="FretDiagram"
     fill="none"
     stroke="#000000"
     stroke-width="7.44"
     stroke-linejoin="bevel"
     points="507.246,534.31 596.03,534.31"
     id="polyline54"
     transform="matrix(8,0,0,8,-2332.3157,-3477.7968)" />
  <polyline
     class="FretDiagram"
     fill="none"
     stroke="#000000"
     stroke-width="1.98"
     stroke-linejoin="bevel"
     points="508.238,537.038 508.238,607.47"
     id="polyline56"
     transform="matrix(8,0,0,8,-2332.3157,-3477.7968)" />
  <polyline
     class="FretDiagram"
     fill="none"
     stroke="#000000"
     stroke-width="1.98"
     stroke-linejoin="bevel"
     points="525.598,537.038 525.598,607.47"
     id="polyline58"
     transform="matrix(8,0,0,8,-2332.3157,-3477.7968)" />
  <polyline
     class="FretDiagram"
     fill="none"
     stroke="#000000"
     stroke-width="1.98"
     stroke-linejoin="bevel"
     points="542.958,537.038 542.958,607.47"
     id="polyline60"
     transform="matrix(8,0,0,8,-2332.3157,-3477.7968)" />
  <polyline
     class="FretDiagram"
     fill="none"
     stroke="#000000"
     stroke-width="1.98"
     stroke-linejoin="bevel"
     points="560.318,537.038 560.318,607.47"
     id="polyline62"
     transform="matrix(8,0,0,8,-2332.3157,-3477.7968)" />
  <polyline
     class="FretDiagram"
     fill="none"
     stroke="#000000"
     stroke-width="1.98"
     stroke-linejoin="bevel"
     points="577.678,537.038 577.678,607.47"
     id="polyline64"
     transform="matrix(8,0,0,8,-2332.3157,-3477.7968)" />
  <polyline
     class="FretDiagram"
     fill="none"
     stroke="#000000"
     stroke-width="1.98"
     stroke-linejoin="bevel"
     points="595.038,537.038 595.038,607.47"
     id="polyline66"
     transform="matrix(8,0,0,8,-2332.3157,-3477.7968)" />
  <polyline
     class="FretDiagram"
     fill="none"
     stroke="#000000"
     stroke-width="1.98"
     stroke-linejoin="bevel"
     points="508.238,554.398 595.038,554.398"
     id="polyline68"
     transform="matrix(8,0,0,8,-2332.3157,-3477.7968)" />
  <polyline
     class="FretDiagram"
     fill="none"
     stroke="#000000"
     stroke-width="1.98"
     stroke-linejoin="bevel"
     points="508.238,571.758 595.038,571.758"
     id="polyline70"
     transform="matrix(8,0,0,8,-2332.3157,-3477.7968)" />
  <polyline
     class="FretDiagram"
     fill="none"
     stroke="#000000"
     stroke-width="1.98"
     stroke-linejoin="bevel"
     points="508.238,589.118 595.038,589.118"
     id="polyline72"
     transform="matrix(8,0,0,8,-2332.3157,-3477.7968)" />
  <polyline
     class="FretDiagram"
     fill="none"
     stroke="#000000"
     stroke-width="1.98"
     stroke-linejoin="bevel"
     points="508.238,606.478 595.038,606.478"
     id="polyline74"
     transform="matrix(8,0,0,8,-2332.3157,-3477.7968)" />
  <path
     class="FretDiagram"
     fill-rule="evenodd"
     d="m 1922.0682,1165.7072 c 0,27.4 -22.208,49.6 -49.6,49.6 -27.392,0 -49.6,-22.2 -49.6,-49.6 0,-27.392 22.208,-49.6 49.6,-49.6 27.392,0 49.6,22.208 49.6,49.6"
     id="path76"
     style="stroke-width:8" />
  <path
     class="FretDiagram"
     fill-rule="evenodd"
     d="m 2060.9482,1026.8272 c 0,27.4 -22.208,49.6 -49.6,49.6 -27.392,0 -49.6,-22.2 -49.6,-49.6 0,-27.39199 22.208,-49.59999 49.6,-49.59999 27.392,0 49.6,22.208 49.6,49.59999"
     id="path78"
     style="stroke-width:8" />
  <path
     class="FretDiagram"
     fill-rule="evenodd"
     d="m 2338.7081,887.94721 c 0,27.4 -22.208,49.6 -49.6,49.6 -27.392,0 -49.6,-22.2 -49.6,-49.6 0,-27.392 22.208,-49.6 49.6,-49.6 27.392,0 49.6,22.208 49.6,49.6"
     id="path80"
     style="stroke-width:8" />
  <path
     class="FretDiagram"
     fill="none"
     stroke="#000000"
     stroke-width="19.04"
     stroke-linejoin="bevel"
     fill-rule="evenodd"
     d="m 2205.7802,671.69121 c 0,30.68 -24.872,55.552 -55.552,55.552 -30.68,0 -55.552,-24.872 -55.552,-55.552 0,-30.68 24.872,-55.552 55.552,-55.552 30.68,0 55.552,24.872 55.552,55.552"
     id="path86" />
  <path
     class="FretDiagram"
     fill="none"
     stroke="#000000"
     stroke-width="19.04"
     stroke-linejoin="bevel"
     fill-rule="evenodd"
     d="m 2483.5401,671.69121 c 0,30.68 -24.872,55.552 -55.552,55.552 -30.68,0 -55.552,-24.872 -55.552,-55.552 0,-30.68 24.872,-55.552 55.552,-55.552 30.68,0 55.552,24.872 55.552,55.552"
     id="path88" />
  <metadata
     id="metadata323">
    <rdf:RDF>
      <cc:Work
         rdf:about="">
        <dc:title>Partition sans titre</dc:title>
      </cc:Work>
    </rdf:RDF>
  </metadata>
  <text
     xml:space="preserve"
     style="font-size:150px;font-family:sans-serif;-inkscape-font-specification:sans-serif;fill:#000000;stroke:#000000;stroke-width:0;stroke-dasharray:none;paint-order:stroke fill markers"
     x="1825.1329"
     y="1531.8361"
     id="text8045"><tspan
       sodipodi:role="line"
       id="tspan8043"
       style="stroke-width:0;stroke-dasharray:none"
       x="1825.1329"
       y="1531.8361">3</tspan></text>
  <text
     xml:space="preserve"
     style="font-size:150px;font-family:sans-serif;-inkscape-font-specification:sans-serif;fill:#000000;stroke:#000000;stroke-width:0;stroke-dasharray:none;paint-order:stroke fill markers"
     x="1968.6628"
     y="1535.8964"
     id="text8412"><tspan
       sodipodi:role="line"
       id="tspan8410"
       style="stroke-width:0"
       x="1968.6628"
       y="1535.8964">2</tspan></text>
  <text
     xml:space="preserve"
     style="font-size:150px;font-family:sans-serif;-inkscape-font-specification:sans-serif;fill:#000000;stroke:#000000;stroke-width:0;stroke-dasharray:none;paint-order:stroke fill markers"
     x="2256.5469"
     y="1538.9888"
     id="text8416"><tspan
       sodipodi:role="line"
       id="tspan8414"
       style="stroke-width:0"
       x="2256.5469"
       y="1538.9888">1</tspan></text>
  <polyline
     class="Arpeggio"
     fill="none"
     stroke="#000000"
     stroke-width="4.46"
     stroke-linejoin="bevel"
     points="534.433,675.368 534.433,872.815"
     id="polyline24-9"
     transform="matrix(4,0,0,3.3433178,-279.8668,-323.1912)" />
  <path
     class="Arpeggio"
     d="m 1856.5991,1878.7062 c -15.066,43.2762 -45.632,110.3602 -45.632,113.0882 0,2.418 1.612,5.58 4.34,5.58 l 0.434,-0.372 c 7.13,-3.968 39.2462,-13.516 40.858,-13.516 1.6122,0 34.1002,10.292 39.68,13.516 l 0.372,0.372 c 2.7899,0 4.7739,-3.162 4.7739,-5.58 0,-2.728 -29.76,-69.812 -44.8261,-113.0882"
     id="path22"
     style="stroke-width:3.968" />
</svg>
