<?xml version="1.0" encoding="UTF-8" standalone="no"?>
<svg
   width="297mm"
   height="210mm"
   viewBox="0 0 4209.4489 2976.378"
   version="1.2"
   id="svg432"
   sodipodi:docname="rythmique_mim_lam.svg"
   inkscape:version="1.2.2 (b0a8486541, 2022-12-01)"
   xmlns:inkscape="http://www.inkscape.org/namespaces/inkscape"
   xmlns:sodipodi="http://sodipodi.sourceforge.net/DTD/sodipodi-0.dtd"
   xmlns="http://www.w3.org/2000/svg"
   xmlns:svg="http://www.w3.org/2000/svg"
   xmlns:rdf="http://www.w3.org/1999/02/22-rdf-syntax-ns#"
   xmlns:cc="http://creativecommons.org/ns#"
   xmlns:dc="http://purl.org/dc/elements/1.1/">
  <defs
     id="defs436" />
  <sodipodi:namedview
     id="namedview434"
     pagecolor="#ffffff"
     bordercolor="#000000"
     borderopacity="0.25"
     inkscape:showpageshadow="2"
     inkscape:pageopacity="0.0"
     inkscape:pagecheckerboard="0"
     inkscape:deskcolor="#d1d1d1"
     inkscape:document-units="mm"
     showgrid="false"
     inkscape:zoom="0.68256346"
     inkscape:cx="632.90819"
     inkscape:cy="282.75759"
     inkscape:window-width="1104"
     inkscape:window-height="552"
     inkscape:window-x="0"
     inkscape:window-y="32"
     inkscape:window-maximized="1"
     inkscape:current-layer="svg432" />
  <title
     id="title2">rythmique_2</title>
  <desc
     id="desc4">Generated by MuseScore Studio 4.5.2</desc>
  <polyline
     class="StaffLines"
     fill="none"
     stroke="#000000"
     stroke-width="2.73"
     stroke-linejoin="bevel"
     points="336.598,668.478 2764.6,668.478"
     id="polyline6"
     transform="matrix(1.6037815,0,0,1.6037815,-270.5554,301.20765)" />
  <polyline
     class="StaffLines"
     fill="none"
     stroke="#000000"
     stroke-width="2.73"
     stroke-linejoin="bevel"
     points="336.598,693.278 2764.6,693.278"
     id="polyline8"
     transform="matrix(1.6037815,0,0,1.6037815,-270.5554,301.20765)" />
  <polyline
     class="StaffLines"
     fill="none"
     stroke="#000000"
     stroke-width="2.73"
     stroke-linejoin="bevel"
     points="336.598,718.078 2764.6,718.078"
     id="polyline10"
     transform="matrix(1.6037815,0,0,1.6037815,-270.5554,301.20765)" />
  <polyline
     class="StaffLines"
     fill="none"
     stroke="#000000"
     stroke-width="2.73"
     stroke-linejoin="bevel"
     points="336.598,742.878 2764.6,742.878"
     id="polyline12"
     transform="matrix(1.6037815,0,0,1.6037815,-270.5554,301.20765)" />
  <polyline
     class="StaffLines"
     fill="none"
     stroke="#000000"
     stroke-width="2.73"
     stroke-linejoin="bevel"
     points="336.598,767.678 2764.6,767.678"
     id="polyline14"
     transform="matrix(1.6037815,0,0,1.6037815,-270.5554,301.20765)" />
  <polyline
     class="StaffLines"
     fill="none"
     stroke="#000000"
     stroke-width="2.73"
     stroke-linejoin="bevel"
     points="212.598,1276.08 2764.6,1276.08"
     id="polyline16"
     transform="matrix(1.6037815,0,0,1.6037815,-270.5554,301.20765)" />
  <polyline
     class="StaffLines"
     fill="none"
     stroke="#000000"
     stroke-width="2.73"
     stroke-linejoin="bevel"
     points="212.598,1300.88 2764.6,1300.88"
     id="polyline18"
     transform="matrix(1.6037815,0,0,1.6037815,-270.5554,301.20765)" />
  <polyline
     class="StaffLines"
     fill="none"
     stroke="#000000"
     stroke-width="2.73"
     stroke-linejoin="bevel"
     points="212.598,1325.68 2764.6,1325.68"
     id="polyline20"
     transform="matrix(1.6037815,0,0,1.6037815,-270.5554,301.20765)" />
  <polyline
     class="StaffLines"
     fill="none"
     stroke="#000000"
     stroke-width="2.73"
     stroke-linejoin="bevel"
     points="212.598,1350.48 2764.6,1350.48"
     id="polyline22"
     transform="matrix(1.6037815,0,0,1.6037815,-270.5554,301.20765)" />
  <polyline
     class="StaffLines"
     fill="none"
     stroke="#000000"
     stroke-width="2.73"
     stroke-linejoin="bevel"
     points="212.598,1375.28 2764.6,1375.28"
     id="polyline24"
     transform="matrix(1.6037815,0,0,1.6037815,-270.5554,301.20765)" />
  <path
     class="Text"
     d="m 1636.5973,246.93289 h 10.2322 c 17.818,0.70245 24.8747,7.94514 26.7992,27.33966 l 0.8821,8.99721 c 2.133,19.94624 8.6444,28.06618 22.6133,28.06618 14.4501,0 21.3142,-9.72373 21.8756,-30.87279 h -7.4255 c -0.7058,12.15345 -2.8227,17.46518 -7.5859,17.46518 -4.0576,0 -5.8218,-3.0071 -8.8208,-15.18461 l -2.8066,-11.10137 c -3.8972,-16.23828 -10.7775,-23.65578 -24.5379,-27.18891 25.4039,-3.50907 37.5606,-13.75884 37.5606,-31.57525 0,-20.09698 -16.9199,-31.57365 -46.5578,-31.57365 h -61.0399 v 8.29317 h 3.1755 c 10.0557,0.17641 13.4076,0.70245 14.8189,2.48104 1.0424,1.57973 1.0424,1.92935 1.0424,10.92656 v 84.14881 c 0,8.82081 0,9.17042 -1.0424,10.95063 -1.4113,1.75292 -4.7632,2.28058 -14.8189,2.28058 h -3.1755 v 8.29315 h 57.8644 v -8.29315 h -3.1915 c -10.0397,0 -13.4076,-0.52766 -14.8029,-2.28058 -1.0586,-1.78021 -1.0586,-2.12982 -1.0586,-10.95063 v -40.22123 m 0,-8.29316 v -38.81792 c -0.3528,-9.69646 0.5293,-10.39892 12.1727,-10.2241 h 9.5266 c 17.4651,0 25.4199,7.41748 25.4199,23.45529 0,18.54453 -9.9114,25.58673 -27.7294,25.58673 h -19.3898 m 133.5149,47.63712 -19.3897,-45.33248 c -0.7378,-1.77859 -1.0745,-2.65586 -1.0745,-3.53313 0,-3.35832 2.1169,-4.58521 8.1151,-4.58521 h 3.7047 v -6.36542 h -41.9709 v 6.36542 h 1.9245 c 5.9981,0.17481 8.2915,1.92935 12.0123,9.52165 l 28.7398,65.1039 -2.9831,6.16494 c -6.3669,13.40601 -14.6585,22.75284 -20.3039,22.75284 -1.5716,0 -2.8226,-0.70084 -2.8226,-1.75452 0,-0.34963 0.1765,-0.87727 0.3529,-1.57813 0.5132,-1.60379 0.8981,-3.1819 0.8981,-4.61087 0,-4.58521 -3.7048,-7.91948 -8.9972,-7.91948 -6.1907,0 -10.6011,4.58683 -10.6011,10.92656 0,7.94354 6.7199,13.58244 16.0539,13.58244 9.35,0 17.3048,-4.58682 24.3454,-14.10848 5.4849,-7.24267 8.9972,-14.6345 16.7595,-33.87988 l 20.1275,-49.9177 c 4.0575,-10.2241 7.9066,-14.10846 14.8029,-14.28327 h 1.0585 v -6.36542 h -35.2832 v 6.36542 h 2.8227 c 6.6877,0 9.5264,1.92935 9.5264,6.51456 0,1.955 -0.5293,4.05917 -1.7481,7.06626 l -16.0699,39.87 m 76.0352,-59.81624 v -34.93195 h -7.249 c -1.7482,22.95331 -9.5265,34.58073 -23.8001,35.65847 v 6.86579 h 14.45 v 44.98126 c 0,12.35393 0.3528,16.76432 2.117,20.82349 2.8226,7.4175 9.8953,11.47827 20.1115,11.47827 15.8934,0 26.1095,-12.0043 26.1095,-30.69798 0,-1.07774 0,-2.30463 -0.1764,-4.05917 h -7.4095 c -0.5292,15.8614 -5.116,23.98135 -13.7604,23.98135 -4.0576,0 -7.5859,-2.10577 -8.8208,-5.11286 -1.0424,-2.47945 -1.5718,-6.88985 -1.5718,-13.2312 v -48.16316 h 25.9332 v -7.59231 h -25.9332 m 69.4598,-47.81353 -32.6209,1.95501 v 7.59231 h 8.468 c 6.6878,0.17641 7.5698,1.22849 7.5698,8.82079 v 98.43209 c -0.1764,2.48105 -0.3528,3.53474 -1.0584,4.41039 -1.2349,1.57974 -4.5868,2.30625 -12.1727,2.48106 h -0.7057 v 6.33975 h 44.6333 v -6.33975 h -0.7058 c -11.8359,-0.37528 -13.4076,-1.25255 -13.4076,-7.5923 v -26.11117 c 0,-8.64598 1.2349,-16.58952 3.1755,-20.64869 3.8972,-7.94353 11.6275,-13.40761 19.2294,-13.40761 4.5868,0 9.8632,2.65746 12.3491,6.19059 2.8386,3.85871 4.0576,9.17043 4.0576,17.81642 v 36.86131 c -0.1764,2.48105 -0.3528,3.53474 -1.0426,4.41039 -1.2509,1.57974 -4.7952,2.30625 -12.3651,2.48106 h -0.6896 v 6.33975 h 44.6172 v -6.33975 h -0.6896 c -11.6595,-0.37528 -13.2312,-1.25255 -13.2312,-7.5923 v -35.45801 c 0,-12.70516 -0.5614,-15.88866 -3.7208,-21.87718 -4.4103,-8.64598 -13.2311,-13.58242 -23.8322,-13.58242 -11.451,0 -19.9189,5.11285 -27.8577,16.94073 v -62.12247 m 107.9505,47.81353 -31.4019,1.95502 v 7.5923 h 7.2491 c 6.6877,0.17481 7.5697,1.22849 7.5697,8.82079 v 50.44374 c -0.1764,2.65587 -0.3528,3.70956 -1.0584,4.58521 -1.2189,1.57974 -4.5868,2.30625 -12.1727,2.48106 h -0.7057 v 6.33975 h 44.4569 v -6.33975 h -0.7057 c -11.6435,-0.37528 -13.2313,-1.25255 -13.2313,-7.76711 v -32.653 c 0,-15.68659 8.6445,-27.33966 20.1275,-27.33966 10.0397,0 15.1558,7.24268 15.1558,21.52595 v 39.34237 c -0.1765,2.30624 -0.3529,3.53474 -1.2189,4.41039 -1.0585,1.57974 -4.5868,2.30625 -12.1887,2.48106 h -0.6896 v 6.33975 h 44.6172 v -6.33975 h -0.6897 c -11.6594,-0.37528 -13.2312,-1.25255 -13.2312,-7.5923 v -31.22402 c 0,-17.6416 7.9387,-28.94345 20.2718,-28.94345 10.0718,0 15.0114,7.5939 15.0114,23.48097 v 37.21253 c -0.1764,2.48106 -0.3528,3.70956 -1.2349,4.58521 -1.0746,1.57974 -4.5869,2.30625 -12.1727,2.48106 h -0.7057 v 6.33975 h 44.6332 v -6.33975 h -0.7056 c -11.6595,-0.37528 -13.2312,-1.25255 -13.2312,-7.76711 V 254.5268 c 0,-10.95063 -1.0745,-14.66017 -5.6614,-20.64869 -5.116,-6.51616 -12.333,-10.04929 -20.801,-10.04929 -11.483,0 -19.951,5.46248 -27.5369,17.64159 -2.9831,-10.59939 -12.5255,-17.64159 -24.3294,-17.64159 -10.7774,0 -18.5237,5.11285 -25.42,16.21422 v -13.58243 m 149.4084,-43.92917 c -5.6453,0 -10.2322,4.58681 -10.2322,10.24977 0,5.63729 4.5869,10.2241 10.0558,10.2241 5.8377,0 10.4246,-4.58681 10.4246,-10.2241 0,-5.66296 -4.5869,-10.24977 -10.2482,-10.24977 m 8.2915,43.92917 -33.1501,1.95502 v 7.5923 h 8.9971 c 6.6879,0.17481 7.5699,1.22849 7.5699,8.82079 v 50.44374 c -0.1764,2.65587 -0.3528,3.70956 -1.0584,4.58521 -1.235,1.57974 -4.5869,2.30625 -12.1728,2.48106 h -1.2349 v 6.33975 h 45.7078 v -6.33975 h -1.251 c -11.8039,-0.37528 -13.4076,-1.25255 -13.4076,-7.5923 v -68.28582 m 98.4401,0 -8.3076,12.00271 c -7.0566,-9.87288 -15.685,-14.6345 -26.8152,-14.6345 -21.5228,0 -37.753,19.57094 -37.753,45.68371 0,24.18182 15.1878,41.82341 35.8285,41.82341 10.9218,0 16.9199,-3.1835 23.9765,-12.88157 v 32.62733 c -0.1604,2.48105 -0.3368,3.53314 -1.0424,4.41039 -1.251,1.57974 -4.5869,2.30625 -12.3491,2.48106 h -1.9407 v 6.33975 h 45.8682 v -6.33975 h -0.7057 c -11.6595,-0.35123 -13.2312,-1.25255 -13.2312,-7.5923 v -76.20528 c 0.1765,-10.07336 0.1765,-10.77581 0.1765,-12.70516 0.3528,-3.35832 0.866,-5.83776 2.8066,-15.0098 h -6.5114 m -33.535,4.93645 c 7.0727,0 13.4076,4.61087 16.7595,12.0027 2.6623,5.83936 3.7047,12.00431 3.7047,22.22841 0,24.18182 -6.7038,36.16047 -20.4642,36.16047 -13.2312,0 -20.8011,-12.15507 -20.8011,-33.32979 0,-24.88268 6.8642,-37.06179 20.8011,-37.06179 m 122.7695,78.50992 32.1237,-1.2285 v -7.5923 h -4.4104 c -10.2482,-0.35124 -11.1303,-1.40331 -11.1303,-12.87998 v -61.74559 l -33.1501,1.95502 v 7.5923 h 8.9972 c 6.6878,0.17481 7.5699,1.22849 7.5699,8.82079 v 21.67672 c 0,15.36102 -3.6888,34.0547 -23.1106,34.0547 -5.4688,0 -10.0556,-1.92935 -12.3491,-5.46248 -2.2934,-3.35833 -2.6302,-5.11286 -2.6302,-14.81093 v -53.82612 l -30.8728,1.95502 v 7.5923 h 6.6877 c 6.7199,0.17481 7.5859,1.22849 7.5859,8.82079 v 38.08982 c 0,8.99561 0.7058,13.05639 3.368,17.11556 4.7472,7.24107 13.2312,11.30184 23.8001,11.30184 11.6595,0 19.7747,-4.76162 27.521,-16.06348 v 14.63452 m 117.1401,-40.92209 c 0.1764,-26.4624 -14.8349,-45.15607 -36.3577,-45.15607 -22.5812,0 -39.5171,19.57094 -39.5171,46.03334 0,24.88427 16.0698,41.47378 39.8699,41.47378 16.936,0 28.7719,-8.29475 36.0049,-25.05909 l -6.1905,-3.35831 c -7.2171,13.58243 -14.6266,18.8701 -26.4625,18.8701 -8.9972,0 -15.5085,-3.68389 -20.0954,-11.62742 -3.1754,-5.28768 -4.5868,-11.47827 -4.4104,-21.17633 h 57.1588 m -56.9824,-7.59231 c 0,-12.35393 5.6454,-29.99552 20.4482,-29.99552 10.6011,0 17.6417,9.37249 17.6417,23.65577 0,4.93645 -1.5718,6.33975 -7.217,6.33975 h -30.8729 m 201.2587,9.17203 h -7.7784 l -1.7482,8.99561 c -2.2773,11.47666 -3.7047,12.53034 -14.6424,12.53034 h -39.5172 c 12.1887,-12.70515 16.2142,-16.38904 27.5209,-25.20984 16.0538,-12.35392 22.934,-18.54452 26.9916,-23.83059 5.6293,-7.76871 8.4679,-15.51177 8.4679,-24.15775 0,-20.12265 -16.5991,-34.40593 -39.6935,-34.40593 -22.4049,0 -39.5172,14.28328 -39.5172,33.15337 0,11.12544 5.6292,18.71934 13.9368,18.71934 6.5274,0 10.9378,-4.4104 10.9378,-10.77581 0,-4.4104 -2.4698,-8.46957 -6.1906,-10.0493 -6.5113,-2.65586 -6.8641,-3.00709 -6.8641,-5.28766 0,-2.65587 1.7641,-6.71504 4.2339,-9.72212 4.4104,-5.46248 11.6275,-8.44552 19.9351,-8.44552 14.6584,0 23.3029,8.99721 23.3029,23.80653 0,13.05639 -6.1906,24.88427 -20.8332,40.39606 -13.0547,13.75723 -21.1699,22.40161 -24.185,25.75993 -6.3349,7.41748 -9.5104,11.47666 -17.2887,21.70077 v 4.93644 h 79.5636 l 3.368,-38.11387"
     id="path36"
     style="stroke-width:1.60378" />
  <path
     class="MeasureNumber"
     d="m 77.598297,2243.6596 c -2.004721,1.2028 -2.582081,1.9727 -2.582081,3.2557 0,1.2189 1.028016,2.133 2.306234,2.133 1.679156,0 2.63181,-1.2349 2.832273,-3.6084 1.979077,-1.6039 4.108889,-2.3095 6.665325,-2.3095 4.761622,0 7.391829,2.9509 7.391829,8.2595 0,8.3556 -5.387107,15.1396 -12.002704,15.1396 -3.784926,0 -6.865789,-1.7801 -6.865789,-3.9132 0,-0.3689 0.07377,-0.4972 0.375283,-0.6896 2.05445,-0.9623 3.733606,-1.6519 3.733606,-4.3623 0,-2.0529 -1.603784,-3.5925 -3.858697,-3.5925 -2.806618,0 -4.93644,2.3576 -4.93644,5.4368 0,5.6775 4.886722,9.7511 11.752511,9.7511 10.374858,0 18.794713,-8.2595 18.794713,-18.5077 0,-6.4953 -4.938045,-11.0661 -11.928924,-11.0661 -2.780963,0 -5.011824,0.5773 -8.094289,2.1331 l 3.584452,-12.1246 c 3.408041,0.7056 6.11362,1.0264 8.419854,1.0264 4.233979,0 8.018907,-1.3472 10.123077,-3.5764 1.10339,-1.2831 1.72887,-2.3897 1.72887,-3.2076 0,-0.4009 -0.20047,-0.7859 -0.45067,-0.7859 -0.17481,0 -0.32556,0.081 -0.70245,0.2567 -2.10416,1.0264 -4.811346,1.6037 -7.316452,1.6037 -3.834644,0 -8.394188,-0.6254 -13.131757,-1.8604 l -5.837774,20.6086"
     id="path40"
     style="stroke-width:1.60378" />
  <polyline
     class="BarLine"
     fill="none"
     stroke="#000000"
     stroke-width="4.46"
     stroke-linejoin="bevel"
     points="2762.37,1274.71 2762.37,1376.64"
     id="polyline46"
     transform="matrix(1.6037815,0,0,1.6037815,-270.5554,301.20765)" />
  <polyline
     class="BarLine"
     fill="none"
     stroke="#000000"
     stroke-width="4.46"
     stroke-linejoin="bevel"
     points="1542.9,1274.71 1542.9,1376.64"
     id="polyline48"
     transform="matrix(1.6037815,0,0,1.6037815,-270.5554,301.20765)" />
  <polyline
     class="BarLine"
     fill="none"
     stroke="#000000"
     stroke-width="4.46"
     stroke-linejoin="bevel"
     points="2762.37,667.114 2762.37,769.042"
     id="polyline50"
     transform="matrix(1.6037815,0,0,1.6037815,-270.5554,301.20765)" />
  <polyline
     class="BarLine"
     fill="none"
     stroke="#000000"
     stroke-width="4.46"
     stroke-linejoin="bevel"
     points="2197.35,667.114 2197.35,769.042"
     id="polyline52"
     transform="matrix(1.6037815,0,0,1.6037815,-270.5554,301.20765)" />
  <polyline
     class="BarLine"
     fill="none"
     stroke="#000000"
     stroke-width="4.46"
     stroke-linejoin="bevel"
     points="1632.33,667.114 1632.33,769.042"
     id="polyline54"
     transform="matrix(1.6037815,0,0,1.6037815,-270.5554,301.20765)" />
  <polyline
     class="BarLine"
     fill="none"
     stroke="#000000"
     stroke-width="4.46"
     stroke-linejoin="bevel"
     points="1067.31,667.114 1067.31,769.042"
     id="polyline56"
     transform="matrix(1.6037815,0,0,1.6037815,-270.5554,301.20765)" />
  <polyline
     class="LedgerLine"
     fill="none"
     stroke="#000000"
     stroke-width="3.97"
     stroke-linejoin="bevel"
     points="1567.95,1400.08 1616.54,1400.08"
     id="polyline58"
     transform="matrix(1.6037815,0,0,1.6037815,-270.5554,301.20765)" />
  <polyline
     class="LedgerLine"
     fill="none"
     stroke="#000000"
     stroke-width="3.97"
     stroke-linejoin="bevel"
     points="1922.16,817.278 1970.75,817.278"
     id="polyline60"
     transform="matrix(1.6037815,0,0,1.6037815,-270.5554,301.20765)" />
  <polyline
     class="LedgerLine"
     fill="none"
     stroke="#000000"
     stroke-width="3.97"
     stroke-linejoin="bevel"
     points="1657.38,792.478 1705.97,792.478"
     id="polyline62"
     transform="matrix(1.6037815,0,0,1.6037815,-270.5554,301.20765)" />
  <polyline
     class="LedgerLine"
     fill="none"
     stroke="#000000"
     stroke-width="3.97"
     stroke-linejoin="bevel"
     points="1657.38,817.278 1705.97,817.278"
     id="polyline64"
     transform="matrix(1.6037815,0,0,1.6037815,-270.5554,301.20765)" />
  <polyline
     class="LedgerLine"
     fill="none"
     stroke="#000000"
     stroke-width="3.97"
     stroke-linejoin="bevel"
     points="1657.38,842.078 1705.97,842.078"
     id="polyline66"
     transform="matrix(1.6037815,0,0,1.6037815,-270.5554,301.20765)" />
  <polyline
     class="LedgerLine"
     fill="none"
     stroke="#000000"
     stroke-width="3.97"
     stroke-linejoin="bevel"
     points="1863.95,1424.88 1912.55,1424.88"
     id="polyline68"
     transform="matrix(1.6037815,0,0,1.6037815,-270.5554,301.20765)" />
  <polyline
     class="LedgerLine"
     fill="none"
     stroke="#000000"
     stroke-width="3.97"
     stroke-linejoin="bevel"
     points="1863.95,1400.08 1912.55,1400.08"
     id="polyline70"
     transform="matrix(1.6037815,0,0,1.6037815,-270.5554,301.20765)" />
  <polyline
     class="LedgerLine"
     fill="none"
     stroke="#000000"
     stroke-width="3.97"
     stroke-linejoin="bevel"
     points="1922.16,792.478 1970.75,792.478"
     id="polyline72"
     transform="matrix(1.6037815,0,0,1.6037815,-270.5554,301.20765)" />
  <polyline
     class="LedgerLine"
     fill="none"
     stroke="#000000"
     stroke-width="3.97"
     stroke-linejoin="bevel"
     points="1567.95,1449.68 1616.54,1449.68"
     id="polyline74"
     transform="matrix(1.6037815,0,0,1.6037815,-270.5554,301.20765)" />
  <polyline
     class="LedgerLine"
     fill="none"
     stroke="#000000"
     stroke-width="3.97"
     stroke-linejoin="bevel"
     points="1567.95,1424.88 1616.54,1424.88"
     id="polyline76"
     transform="matrix(1.6037815,0,0,1.6037815,-270.5554,301.20765)" />
  <polyline
     class="LedgerLine"
     fill="none"
     stroke="#000000"
     stroke-width="3.97"
     stroke-linejoin="bevel"
     points="527.341,842.078 575.934,842.078"
     id="polyline78"
     transform="matrix(1.6037815,0,0,1.6037815,-270.5554,301.20765)" />
  <polyline
     class="LedgerLine"
     fill="none"
     stroke="#000000"
     stroke-width="3.97"
     stroke-linejoin="bevel"
     points="2222.4,792.478 2270.99,792.478"
     id="polyline80"
     transform="matrix(1.6037815,0,0,1.6037815,-270.5554,301.20765)" />
  <polyline
     class="LedgerLine"
     fill="none"
     stroke="#000000"
     stroke-width="3.97"
     stroke-linejoin="bevel"
     points="2222.4,817.278 2270.99,817.278"
     id="polyline82"
     transform="matrix(1.6037815,0,0,1.6037815,-270.5554,301.20765)" />
  <polyline
     class="LedgerLine"
     fill="none"
     stroke="#000000"
     stroke-width="3.97"
     stroke-linejoin="bevel"
     points="2222.4,842.078 2270.99,842.078"
     id="polyline84"
     transform="matrix(1.6037815,0,0,1.6037815,-270.5554,301.20765)" />
  <polyline
     class="LedgerLine"
     fill="none"
     stroke="#000000"
     stroke-width="3.97"
     stroke-linejoin="bevel"
     points="644.487,1400.08 693.08,1400.08"
     id="polyline86"
     transform="matrix(1.6037815,0,0,1.6037815,-270.5554,301.20765)" />
  <polyline
     class="LedgerLine"
     fill="none"
     stroke="#000000"
     stroke-width="3.97"
     stroke-linejoin="bevel"
     points="940.488,1400.08 989.08,1400.08"
     id="polyline88"
     transform="matrix(1.6037815,0,0,1.6037815,-270.5554,301.20765)" />
  <polyline
     class="LedgerLine"
     fill="none"
     stroke="#000000"
     stroke-width="3.97"
     stroke-linejoin="bevel"
     points="2487.18,792.478 2535.77,792.478"
     id="polyline90"
     transform="matrix(1.6037815,0,0,1.6037815,-270.5554,301.20765)" />
  <polyline
     class="LedgerLine"
     fill="none"
     stroke="#000000"
     stroke-width="3.97"
     stroke-linejoin="bevel"
     points="2487.18,817.278 2535.77,817.278"
     id="polyline92"
     transform="matrix(1.6037815,0,0,1.6037815,-270.5554,301.20765)" />
  <polyline
     class="LedgerLine"
     fill="none"
     stroke="#000000"
     stroke-width="3.97"
     stroke-linejoin="bevel"
     points="1236.49,1424.88 1285.08,1424.88"
     id="polyline94"
     transform="matrix(1.6037815,0,0,1.6037815,-270.5554,301.20765)" />
  <polyline
     class="LedgerLine"
     fill="none"
     stroke="#000000"
     stroke-width="3.97"
     stroke-linejoin="bevel"
     points="1236.49,1400.08 1285.08,1400.08"
     id="polyline96"
     transform="matrix(1.6037815,0,0,1.6037815,-270.5554,301.20765)" />
  <polyline
     class="LedgerLine"
     fill="none"
     stroke="#000000"
     stroke-width="3.97"
     stroke-linejoin="bevel"
     points="527.341,817.278 575.934,817.278"
     id="polyline98"
     transform="matrix(1.6037815,0,0,1.6037815,-270.5554,301.20765)" />
  <polyline
     class="LedgerLine"
     fill="none"
     stroke="#000000"
     stroke-width="3.97"
     stroke-linejoin="bevel"
     points="940.488,1424.88 989.08,1424.88"
     id="polyline100"
     transform="matrix(1.6037815,0,0,1.6037815,-270.5554,301.20765)" />
  <polyline
     class="LedgerLine"
     fill="none"
     stroke="#000000"
     stroke-width="3.97"
     stroke-linejoin="bevel"
     points="644.487,1424.88 693.08,1424.88"
     id="polyline102"
     transform="matrix(1.6037815,0,0,1.6037815,-270.5554,301.20765)" />
  <polyline
     class="LedgerLine"
     fill="none"
     stroke="#000000"
     stroke-width="3.97"
     stroke-linejoin="bevel"
     points="527.341,792.478 575.934,792.478"
     id="polyline104"
     transform="matrix(1.6037815,0,0,1.6037815,-270.5554,301.20765)" />
  <polyline
     class="LedgerLine"
     fill="none"
     stroke="#000000"
     stroke-width="3.97"
     stroke-linejoin="bevel"
     points="348.487,1400.08 397.079,1400.08"
     id="polyline106"
     transform="matrix(1.6037815,0,0,1.6037815,-270.5554,301.20765)" />
  <polyline
     class="LedgerLine"
     fill="none"
     stroke="#000000"
     stroke-width="3.97"
     stroke-linejoin="bevel"
     points="348.487,1424.88 397.079,1424.88"
     id="polyline108"
     transform="matrix(1.6037815,0,0,1.6037815,-270.5554,301.20765)" />
  <polyline
     class="LedgerLine"
     fill="none"
     stroke="#000000"
     stroke-width="3.97"
     stroke-linejoin="bevel"
     points="348.487,1449.68 397.079,1449.68"
     id="polyline110"
     transform="matrix(1.6037815,0,0,1.6037815,-270.5554,301.20765)" />
  <polyline
     class="LedgerLine"
     fill="none"
     stroke="#000000"
     stroke-width="3.97"
     stroke-linejoin="bevel"
     points="940.488,1449.68 989.08,1449.68"
     id="polyline112"
     transform="matrix(1.6037815,0,0,1.6037815,-270.5554,301.20765)" />
  <polyline
     class="LedgerLine"
     fill="none"
     stroke="#000000"
     stroke-width="3.97"
     stroke-linejoin="bevel"
     points="1092.36,817.278 1140.95,817.278"
     id="polyline114"
     transform="matrix(1.6037815,0,0,1.6037815,-270.5554,301.20765)" />
  <polyline
     class="LedgerLine"
     fill="none"
     stroke="#000000"
     stroke-width="3.97"
     stroke-linejoin="bevel"
     points="1357.14,792.478 1405.73,792.478"
     id="polyline116"
     transform="matrix(1.6037815,0,0,1.6037815,-270.5554,301.20765)" />
  <polyline
     class="LedgerLine"
     fill="none"
     stroke="#000000"
     stroke-width="3.97"
     stroke-linejoin="bevel"
     points="1357.14,817.278 1405.73,817.278"
     id="polyline118"
     transform="matrix(1.6037815,0,0,1.6037815,-270.5554,301.20765)" />
  <polyline
     class="LedgerLine"
     fill="none"
     stroke="#000000"
     stroke-width="3.97"
     stroke-linejoin="bevel"
     points="2455.95,1400.08 2504.55,1400.08"
     id="polyline120"
     transform="matrix(1.6037815,0,0,1.6037815,-270.5554,301.20765)" />
  <polyline
     class="LedgerLine"
     fill="none"
     stroke="#000000"
     stroke-width="3.97"
     stroke-linejoin="bevel"
     points="2455.95,1424.88 2504.55,1424.88"
     id="polyline122"
     transform="matrix(1.6037815,0,0,1.6037815,-270.5554,301.20765)" />
  <polyline
     class="LedgerLine"
     fill="none"
     stroke="#000000"
     stroke-width="3.97"
     stroke-linejoin="bevel"
     points="1092.36,792.478 1140.95,792.478"
     id="polyline124"
     transform="matrix(1.6037815,0,0,1.6037815,-270.5554,301.20765)" />
  <polyline
     class="LedgerLine"
     fill="none"
     stroke="#000000"
     stroke-width="3.97"
     stroke-linejoin="bevel"
     points="2159.95,1449.68 2208.55,1449.68"
     id="polyline126"
     transform="matrix(1.6037815,0,0,1.6037815,-270.5554,301.20765)" />
  <polyline
     class="LedgerLine"
     fill="none"
     stroke="#000000"
     stroke-width="3.97"
     stroke-linejoin="bevel"
     points="1092.36,842.078 1140.95,842.078"
     id="polyline128"
     transform="matrix(1.6037815,0,0,1.6037815,-270.5554,301.20765)" />
  <polyline
     class="LedgerLine"
     fill="none"
     stroke="#000000"
     stroke-width="3.97"
     stroke-linejoin="bevel"
     points="2159.95,1400.08 2208.55,1400.08"
     id="polyline130"
     transform="matrix(1.6037815,0,0,1.6037815,-270.5554,301.20765)" />
  <polyline
     class="LedgerLine"
     fill="none"
     stroke="#000000"
     stroke-width="3.97"
     stroke-linejoin="bevel"
     points="792.119,817.278 840.711,817.278"
     id="polyline132"
     transform="matrix(1.6037815,0,0,1.6037815,-270.5554,301.20765)" />
  <polyline
     class="LedgerLine"
     fill="none"
     stroke="#000000"
     stroke-width="3.97"
     stroke-linejoin="bevel"
     points="792.119,792.478 840.711,792.478"
     id="polyline134"
     transform="matrix(1.6037815,0,0,1.6037815,-270.5554,301.20765)" />
  <polyline
     class="LedgerLine"
     fill="none"
     stroke="#000000"
     stroke-width="3.97"
     stroke-linejoin="bevel"
     points="2159.95,1424.88 2208.55,1424.88"
     id="polyline136"
     transform="matrix(1.6037815,0,0,1.6037815,-270.5554,301.20765)" />
  <polyline
     class="Stem"
     fill="none"
     stroke="#000000"
     stroke-width="2.48"
     stroke-linejoin="bevel"
     points="2495.12,1420.91 2495.12,1226.48"
     id="polyline138"
     transform="matrix(1.6037815,0,0,1.6037815,-270.5554,301.20765)" />
  <polyline
     class="Stem"
     fill="none"
     stroke="#000000"
     stroke-width="2.48"
     stroke-linejoin="bevel"
     points="1607.12,1458.11 1607.12,1226.48"
     id="polyline140"
     transform="matrix(1.6037815,0,0,1.6037815,-270.5554,301.20765)" />
  <polyline
     class="Stem"
     fill="none"
     stroke="#000000"
     stroke-width="2.48"
     stroke-linejoin="bevel"
     points="387.655,1458.11 387.655,1226.48"
     id="polyline142"
     transform="matrix(1.6037815,0,0,1.6037815,-270.5554,301.20765)" />
  <polyline
     class="Stem"
     fill="none"
     stroke="#000000"
     stroke-width="2.48"
     stroke-linejoin="bevel"
     points="566.51,850.51 566.51,618.878"
     id="polyline144"
     transform="matrix(1.6037815,0,0,1.6037815,-270.5554,301.20765)" />
  <polyline
     class="Stem"
     fill="none"
     stroke="#000000"
     stroke-width="2.48"
     stroke-linejoin="bevel"
     points="1696.55,850.51 1696.55,618.878"
     id="polyline146"
     transform="matrix(1.6037815,0,0,1.6037815,-270.5554,301.20765)" />
  <polyline
     class="Stem"
     fill="none"
     stroke="#000000"
     stroke-width="2.48"
     stroke-linejoin="bevel"
     points="1396.31,813.31 1396.31,618.878"
     id="polyline148"
     transform="matrix(1.6037815,0,0,1.6037815,-270.5554,301.20765)" />
  <polyline
     class="Stem"
     fill="none"
     stroke="#000000"
     stroke-width="2.48"
     stroke-linejoin="bevel"
     points="2261.57,850.51 2261.57,618.878"
     id="polyline150"
     transform="matrix(1.6037815,0,0,1.6037815,-270.5554,301.20765)" />
  <polyline
     class="Stem"
     fill="none"
     stroke="#000000"
     stroke-width="2.48"
     stroke-linejoin="bevel"
     points="979.656,1458.11 979.656,1226.48"
     id="polyline152"
     transform="matrix(1.6037815,0,0,1.6037815,-270.5554,301.20765)" />
  <polyline
     class="Stem"
     fill="none"
     stroke="#000000"
     stroke-width="2.48"
     stroke-linejoin="bevel"
     points="1275.66,1420.91 1275.66,1226.48"
     id="polyline154"
     transform="matrix(1.6037815,0,0,1.6037815,-270.5554,301.20765)" />
  <polyline
     class="Stem"
     fill="none"
     stroke="#000000"
     stroke-width="2.48"
     stroke-linejoin="bevel"
     points="2526.34,813.31 2526.34,618.878"
     id="polyline156"
     transform="matrix(1.6037815,0,0,1.6037815,-270.5554,301.20765)" />
  <polyline
     class="Stem"
     fill="none"
     stroke="#000000"
     stroke-width="2.48"
     stroke-linejoin="bevel"
     points="2199.12,1458.11 2199.12,1226.48"
     id="polyline158"
     transform="matrix(1.6037815,0,0,1.6037815,-270.5554,301.20765)" />
  <polyline
     class="Stem"
     fill="none"
     stroke="#000000"
     stroke-width="2.48"
     stroke-linejoin="bevel"
     points="831.287,813.31 831.287,618.878"
     id="polyline160"
     transform="matrix(1.6037815,0,0,1.6037815,-270.5554,301.20765)" />
  <polyline
     class="Stem"
     fill="none"
     stroke="#000000"
     stroke-width="2.48"
     stroke-linejoin="bevel"
     points="1131.53,850.51 1131.53,618.878"
     id="polyline162"
     transform="matrix(1.6037815,0,0,1.6037815,-270.5554,301.20765)" />
  <polyline
     class="Stem"
     fill="none"
     stroke="#000000"
     stroke-width="2.48"
     stroke-linejoin="bevel"
     points="1961.33,813.31 1961.33,618.878"
     id="polyline164"
     transform="matrix(1.6037815,0,0,1.6037815,-270.5554,301.20765)" />
  <polyline
     class="Stem"
     fill="none"
     stroke="#000000"
     stroke-width="2.48"
     stroke-linejoin="bevel"
     points="683.656,1420.91 683.656,1226.48"
     id="polyline166"
     transform="matrix(1.6037815,0,0,1.6037815,-270.5554,301.20765)" />
  <polyline
     class="Stem"
     fill="none"
     stroke="#000000"
     stroke-width="2.48"
     stroke-linejoin="bevel"
     points="1903.12,1420.91 1903.12,1226.48"
     id="polyline168"
     transform="matrix(1.6037815,0,0,1.6037815,-270.5554,301.20765)" />
  <path
     class="Note"
     d="m 3681.3867,2453.8825 c 0,6.8361 4.922,14.4677 17.8237,14.4677 16.531,0 33.8822,-13.5231 33.8822,-27.5185 0,-9.3965 -7.9547,-14.6417 -17.8236,-14.6417 -15.4372,0 -33.8823,13.0508 -33.8823,27.6925"
     id="path170"
     style="stroke-width:1.59095" />
  <path
     class="Note"
     d="m 1250.9072,2374.3349 c 0,6.8361 4.922,14.4678 17.8236,14.4678 16.5311,0 33.8823,-13.5231 33.8823,-27.5185 0,-9.3966 -7.9547,-14.6417 -17.8236,-14.6417 -15.4371,0 -33.8823,13.0507 -33.8823,27.6924"
     id="path172"
     style="stroke-width:1.59095" />
  <path
     class="Note"
     d="m 3681.3867,2593.0908 c 0,6.8361 4.922,14.4676 17.8237,14.4676 16.531,0 33.8822,-13.5231 33.8822,-27.5185 0,-9.3965 -7.9547,-14.6417 -17.8236,-14.6417 -15.4372,0 -33.8823,13.0508 -33.8823,27.6926"
     id="path174"
     style="stroke-width:1.59095" />
  <path
     class="Note"
     d="m 3681.3867,2513.5431 c 0,6.8362 4.922,14.4678 17.8237,14.4678 16.531,0 33.8822,-13.5231 33.8822,-27.5185 0,-9.3965 -7.9547,-14.6417 -17.8236,-14.6417 -15.4372,0 -33.8823,13.0507 -33.8823,27.6924"
     id="path176"
     style="stroke-width:1.59095" />
  <path
     class="Note"
     d="m 1725.6233,2374.3349 c 0,6.8361 4.922,14.4678 17.8236,14.4678 16.531,0 33.8823,-13.5231 33.8823,-27.5185 0,-9.3966 -7.9548,-14.6417 -17.8236,-14.6417 -15.4372,0 -33.8823,13.0507 -33.8823,27.6924"
     id="path178"
     style="stroke-width:1.59095" />
  <path
     class="Note"
     d="m 1250.9072,2433.9956 c 0,6.8361 4.922,14.4677 17.8236,14.4677 16.5311,0 33.8823,-13.523 33.8823,-27.5184 0,-9.3966 -7.9547,-14.6417 -17.8236,-14.6417 -15.4371,0 -33.8823,13.0507 -33.8823,27.6924"
     id="path180"
     style="stroke-width:1.59095" />
  <path
     class="Note"
     d="m 1250.9072,2473.7694 c 0,6.8361 4.922,14.4677 17.8236,14.4677 16.5311,0 33.8823,-13.5231 33.8823,-27.5185 0,-9.3966 -7.9547,-14.6417 -17.8236,-14.6417 -15.4371,0 -33.8823,13.0507 -33.8823,27.6925"
     id="path182"
     style="stroke-width:1.59095" />
  <path
     class="Note"
     d="m 1250.9072,2513.5431 c 0,6.8362 4.922,14.4678 17.8236,14.4678 16.5311,0 33.8823,-13.5231 33.8823,-27.5185 0,-9.3965 -7.9547,-14.6417 -17.8236,-14.6417 -15.4371,0 -33.8823,13.0507 -33.8823,27.6924"
     id="path184"
     style="stroke-width:1.59095" />
  <path
     class="Note"
     d="m 1250.9072,2573.2038 c 0,6.8361 4.922,14.4678 17.8236,14.4678 16.5311,0 33.8823,-13.5231 33.8823,-27.5185 0,-9.3966 -7.9547,-14.6417 -17.8236,-14.6417 -15.4371,0 -33.8823,13.0507 -33.8823,27.6924"
     id="path186"
     style="stroke-width:1.59095" />
  <path
     class="Note"
     d="m 1250.9072,2652.7514 c 0,6.8361 4.922,14.4677 17.8236,14.4677 16.5311,0 33.8823,-13.5231 33.8823,-27.5185 0,-9.3965 -7.9547,-14.6417 -17.8236,-14.6417 -15.4371,0 -33.8823,13.0508 -33.8823,27.6925"
     id="path188"
     style="stroke-width:1.59095" />
  <path
     class="Note"
     d="m 3681.3867,2414.1087 c 0,6.8362 4.922,14.4677 17.8237,14.4677 16.531,0 33.8822,-13.5231 33.8822,-27.5185 0,-9.3965 -7.9547,-14.6417 -17.8236,-14.6417 -15.4372,0 -33.8823,13.0507 -33.8823,27.6925"
     id="path190"
     style="stroke-width:1.59095" />
  <path
     class="Note"
     d="m 3681.3867,2374.3349 c 0,6.8361 4.922,14.4678 17.8237,14.4678 16.531,0 33.8822,-13.5231 33.8822,-27.5185 0,-9.3966 -7.9547,-14.6417 -17.8236,-14.6417 -15.4372,0 -33.8823,13.0507 -33.8823,27.6924"
     id="path192"
     style="stroke-width:1.59095" />
  <path
     class="Note"
     d="m 776.18628,2374.3349 c 0,6.8361 4.92201,14.4678 17.82359,14.4678 16.53109,0 33.88232,-13.5231 33.88232,-27.5185 0,-9.3966 -7.95475,-14.6417 -17.82359,-14.6417 -15.43715,0 -33.88232,13.0507 -33.88232,27.6924"
     id="path194"
     style="stroke-width:1.59095" />
  <path
     class="Note"
     d="m 2257.2287,2573.2038 c 0,6.8361 4.922,14.4678 17.8236,14.4678 16.531,0 33.8824,-13.5231 33.8824,-27.5185 0,-9.3966 -7.9548,-14.6417 -17.8236,-14.6417 -15.4373,0 -33.8824,13.0507 -33.8824,27.6924"
     id="path196"
     style="stroke-width:1.59095" />
  <path
     class="Note"
     d="m 2731.948,2414.1087 c 0,6.8362 4.922,14.4677 17.8237,14.4677 16.531,0 33.8823,-13.5231 33.8823,-27.5185 0,-9.3965 -7.9548,-14.6417 -17.8236,-14.6417 -15.4373,0 -33.8824,13.0507 -33.8824,27.6925"
     id="path198"
     style="stroke-width:1.59095" />
  <path
     class="Note"
     d="m 2731.948,2374.3349 c 0,6.8361 4.922,14.4678 17.8237,14.4678 16.531,0 33.8823,-13.5231 33.8823,-27.5185 0,-9.3966 -7.9548,-14.6417 -17.8236,-14.6417 -15.4373,0 -33.8824,13.0507 -33.8824,27.6924"
     id="path200"
     style="stroke-width:1.59095" />
  <path
     class="Note"
     d="m 2731.948,2453.8825 c 0,6.8361 4.922,14.4677 17.8237,14.4677 16.531,0 33.8823,-13.5231 33.8823,-27.5185 0,-9.3965 -7.9548,-14.6417 -17.8236,-14.6417 -15.4373,0 -33.8824,13.0508 -33.8824,27.6925"
     id="path202"
     style="stroke-width:1.59095" />
  <path
     class="Note"
     d="m 2731.948,2513.5431 c 0,6.8362 4.922,14.4678 17.8237,14.4678 16.531,0 33.8823,-13.5231 33.8823,-27.5185 0,-9.3965 -7.9548,-14.6417 -17.8236,-14.6417 -15.4373,0 -33.8824,13.0507 -33.8824,27.6924"
     id="path204"
     style="stroke-width:1.59095" />
  <path
     class="Note"
     d="m 2731.948,2593.0908 c 0,6.8361 4.922,14.4676 17.8237,14.4676 16.531,0 33.8823,-13.5231 33.8823,-27.5185 0,-9.3965 -7.9548,-14.6417 -17.8236,-14.6417 -15.4373,0 -33.8824,13.0508 -33.8824,27.6926"
     id="path206"
     style="stroke-width:1.59095" />
  <path
     class="Note"
     d="m 2257.2287,2374.3349 c 0,6.8361 4.922,14.4678 17.8236,14.4678 16.531,0 33.8824,-13.5231 33.8824,-27.5185 0,-9.3966 -7.9548,-14.6417 -17.8236,-14.6417 -15.4373,0 -33.8824,13.0507 -33.8824,27.6924"
     id="path208"
     style="stroke-width:1.59095" />
  <path
     class="Note"
     d="m 2257.2287,2433.9956 c 0,6.8361 4.922,14.4677 17.8236,14.4677 16.531,0 33.8824,-13.523 33.8824,-27.5184 0,-9.3966 -7.9548,-14.6417 -17.8236,-14.6417 -15.4373,0 -33.8824,13.0507 -33.8824,27.6924"
     id="path210"
     style="stroke-width:1.59095" />
  <path
     class="Note"
     d="m 622.19201,1431.8424 c -15.43714,0 -33.88232,12.9016 -33.88232,27.6924 0,6.8362 4.922,14.4678 17.8236,14.4678 16.53108,0 33.88232,-13.5231 33.88232,-27.5185 0,-9.3966 -7.95475,-14.6417 -17.8236,-14.6417 m -4.30049,28.0156 c -0.47236,0.2983 -12.08137,6.6621 -17.64969,6.6621 -5.24518,0 -6.36381,-4.2757 -6.36381,-5.7175 0,-6.6869 15.90951,-14.4677 16.55591,-14.7909 0.62142,-0.3231 11.93214,-6.6869 17.64954,-6.6869 3.82831,0 6.36381,2.2373 6.36381,5.7175 0,6.8609 -16.05858,14.4925 -16.55576,14.8157"
     id="path212"
     style="stroke-width:1.59095" />
  <path
     class="Note"
     d="m 2257.2287,2473.7694 c 0,6.8361 4.922,14.4677 17.8236,14.4677 16.531,0 33.8824,-13.5231 33.8824,-27.5185 0,-9.3966 -7.9548,-14.6417 -17.8236,-14.6417 -15.4373,0 -33.8824,13.0507 -33.8824,27.6925"
     id="path214"
     style="stroke-width:1.59095" />
  <path
     class="Note"
     d="m 2257.2287,2513.5431 c 0,6.8362 4.922,14.4678 17.8236,14.4678 16.531,0 33.8824,-13.5231 33.8824,-27.5185 0,-9.3965 -7.9548,-14.6417 -17.8236,-14.6417 -15.4373,0 -33.8824,13.0507 -33.8824,27.6924"
     id="path216"
     style="stroke-width:1.59095" />
  <path
     class="Note"
     d="m 1725.6233,2593.0908 c 0,6.8361 4.922,14.4676 17.8236,14.4676 16.531,0 33.8823,-13.5231 33.8823,-27.5185 0,-9.3965 -7.9548,-14.6417 -17.8236,-14.6417 -15.4372,0 -33.8823,13.0508 -33.8823,27.6926"
     id="path218"
     style="stroke-width:1.59095" />
  <path
     class="Note"
     d="m 2257.2287,2652.7514 c 0,6.8361 4.922,14.4677 17.8236,14.4677 16.531,0 33.8824,-13.5231 33.8824,-27.5185 0,-9.3965 -7.9548,-14.6417 -17.8236,-14.6417 -15.4373,0 -33.8824,13.0508 -33.8824,27.6925"
     id="path220"
     style="stroke-width:1.59095" />
  <path
     class="Note"
     d="m 3206.6674,2652.7514 c 0,6.8361 4.922,14.4677 17.8237,14.4677 16.5309,0 33.8822,-13.5231 33.8822,-27.5185 0,-9.3965 -7.9548,-14.6417 -17.8236,-14.6417 -15.4372,0 -33.8823,13.0508 -33.8823,27.6925"
     id="path222"
     style="stroke-width:1.59095" />
  <path
     class="Note"
     d="m 3206.6674,2573.2038 c 0,6.8361 4.922,14.4678 17.8237,14.4678 16.5309,0 33.8822,-13.5231 33.8822,-27.5185 0,-9.3966 -7.9548,-14.6417 -17.8236,-14.6417 -15.4372,0 -33.8823,13.0507 -33.8823,27.6924"
     id="path224"
     style="stroke-width:1.59095" />
  <path
     class="Note"
     d="m 3206.6674,2513.5431 c 0,6.8362 4.922,14.4678 17.8237,14.4678 16.5309,0 33.8822,-13.5231 33.8822,-27.5185 0,-9.3965 -7.9548,-14.6417 -17.8236,-14.6417 -15.4372,0 -33.8823,13.0507 -33.8823,27.6924"
     id="path226"
     style="stroke-width:1.59095" />
  <path
     class="Note"
     d="m 3206.6674,2473.7694 c 0,6.8361 4.922,14.4677 17.8237,14.4677 16.5309,0 33.8822,-13.5231 33.8822,-27.5185 0,-9.3966 -7.9548,-14.6417 -17.8236,-14.6417 -15.4372,0 -33.8823,13.0507 -33.8823,27.6925"
     id="path228"
     style="stroke-width:1.59095" />
  <path
     class="Note"
     d="m 3206.6674,2433.9956 c 0,6.8361 4.922,14.4677 17.8237,14.4677 16.5309,0 33.8822,-13.523 33.8822,-27.5184 0,-9.3966 -7.9548,-14.6417 -17.8236,-14.6417 -15.4372,0 -33.8823,13.0507 -33.8823,27.6924"
     id="path230"
     style="stroke-width:1.59095" />
  <path
     class="Note"
     d="m 3206.6674,2374.3349 c 0,6.8361 4.922,14.4678 17.8237,14.4678 16.5309,0 33.8822,-13.5231 33.8822,-27.5185 0,-9.3966 -7.9548,-14.6417 -17.8236,-14.6417 -15.4372,0 -33.8823,13.0507 -33.8823,27.6924"
     id="path232"
     style="stroke-width:1.59095" />
  <path
     class="Note"
     d="m 1725.6233,2414.1087 c 0,6.8362 4.922,14.4677 17.8236,14.4677 16.531,0 33.8823,-13.5231 33.8823,-27.5185 0,-9.3965 -7.9548,-14.6417 -17.8236,-14.6417 -15.4372,0 -33.8823,13.0507 -33.8823,27.6925"
     id="path234"
     style="stroke-width:1.59095" />
  <path
     class="Note"
     d="m 1725.6233,2453.8825 c 0,6.8361 4.922,14.4677 17.8236,14.4677 16.531,0 33.8823,-13.5231 33.8823,-27.5185 0,-9.3965 -7.9548,-14.6417 -17.8236,-14.6417 -15.4372,0 -33.8823,13.0508 -33.8823,27.6925"
     id="path236"
     style="stroke-width:1.59095" />
  <path
     class="Note"
     d="m 1725.6233,2513.5431 c 0,6.8362 4.922,14.4678 17.8236,14.4678 16.531,0 33.8823,-13.5231 33.8823,-27.5185 0,-9.3965 -7.9548,-14.6417 -17.8236,-14.6417 -15.4372,0 -33.8823,13.0507 -33.8823,27.6924"
     id="path238"
     style="stroke-width:1.59095" />
  <path
     class="Note"
     d="m 1528.3525,1372.1817 c -15.4372,0 -33.8822,12.9016 -33.8822,27.6925 0,6.8361 4.922,14.4677 17.8236,14.4677 16.5309,0 33.8823,-13.5231 33.8823,-27.5185 0,-9.3966 -7.9547,-14.6417 -17.8237,-14.6417 m -4.3005,28.0156 c -0.4723,0.2983 -12.0812,6.6621 -17.6497,6.6621 -5.2451,0 -6.3637,-4.2757 -6.3637,-5.7174 0,-6.687 15.9095,-14.4678 16.5558,-14.7909 0.6215,-0.3232 11.9322,-6.687 17.6496,-6.687 3.8282,0 6.3639,2.2373 6.3639,5.7175 0,6.861 -16.0587,14.4926 -16.5559,14.8157"
     id="path240"
     style="stroke-width:1.59095" />
  <path
     class="Note"
     d="m 2859.1705,1590.9374 c -15.4373,0 -33.8824,12.9016 -33.8824,27.6924 0,6.8362 4.922,14.4678 17.8236,14.4678 16.531,0 33.8824,-13.5231 33.8824,-27.5185 0,-9.3965 -7.9548,-14.6417 -17.8236,-14.6417 m -4.3006,28.0156 c -0.4723,0.2983 -12.0813,6.6622 -17.6496,6.6622 -5.2452,0 -6.3639,-4.2757 -6.3639,-5.7175 0,-6.6869 15.9095,-14.4677 16.556,-14.7909 0.6213,-0.3231 11.932,-6.687 17.6495,-6.687 3.8283,0 6.3639,2.2373 6.3639,5.7175 0,6.861 -16.0587,14.4925 -16.5559,14.8157"
     id="path242"
     style="stroke-width:1.59095" />
  <path
     class="Note"
     d="m 2434.5212,1372.1817 c -15.4373,0 -33.8823,12.9016 -33.8823,27.6925 0,6.8361 4.922,14.4677 17.8236,14.4677 16.5309,0 33.8823,-13.5231 33.8823,-27.5185 0,-9.3966 -7.9547,-14.6417 -17.8236,-14.6417 m -4.3005,28.0156 c -0.4724,0.2983 -12.0813,6.6621 -17.6497,6.6621 -5.2452,0 -6.3638,-4.2757 -6.3638,-5.7174 0,-6.687 15.9095,-14.4678 16.5559,-14.7909 0.6214,-0.3232 11.9321,-6.687 17.6495,-6.687 3.8283,0 6.3639,2.2373 6.3639,5.7175 0,6.861 -16.0586,14.4926 -16.5558,14.8157"
     id="path244"
     style="stroke-width:1.59095" />
  <path
     class="Note"
     d="m 2434.5212,1431.8424 c -15.4373,0 -33.8823,12.9016 -33.8823,27.6924 0,6.8362 4.922,14.4678 17.8236,14.4678 16.5309,0 33.8823,-13.5231 33.8823,-27.5185 0,-9.3966 -7.9547,-14.6417 -17.8236,-14.6417 m -4.3005,28.0156 c -0.4724,0.2983 -12.0813,6.6621 -17.6497,6.6621 -5.2452,0 -6.3638,-4.2757 -6.3638,-5.7175 0,-6.6869 15.9095,-14.4677 16.5559,-14.7909 0.6214,-0.3231 11.9321,-6.6869 17.6495,-6.6869 3.8283,0 6.3639,2.2373 6.3639,5.7175 0,6.8609 -16.0586,14.4925 -16.5558,14.8157"
     id="path246"
     style="stroke-width:1.59095" />
  <path
     class="Note"
     d="m 2434.5212,1471.6162 c -15.4373,0 -33.8823,12.9016 -33.8823,27.6924 0,6.8361 4.922,14.4678 17.8236,14.4678 16.5309,0 33.8823,-13.5232 33.8823,-27.5186 0,-9.3965 -7.9547,-14.6416 -17.8236,-14.6416 m -4.3005,28.0155 c -0.4724,0.2984 -12.0813,6.6622 -17.6497,6.6622 -5.2452,0 -6.3638,-4.2757 -6.3638,-5.7175 0,-6.687 15.9095,-14.4677 16.5559,-14.7908 0.6214,-0.3233 11.9321,-6.687 17.6495,-6.687 3.8283,0 6.3639,2.2372 6.3639,5.7174 0,6.861 -16.0586,14.4926 -16.5558,14.8157"
     id="path248"
     style="stroke-width:1.59095" />
  <path
     class="Note"
     d="m 2434.5212,1511.3899 c -15.4373,0 -33.8823,12.9016 -33.8823,27.6924 0,6.8361 4.922,14.4678 17.8236,14.4678 16.5309,0 33.8823,-13.5231 33.8823,-27.5184 0,-9.3967 -7.9547,-14.6418 -17.8236,-14.6418 m -4.3005,28.0156 c -0.4724,0.2983 -12.0813,6.6621 -17.6497,6.6621 -5.2452,0 -6.3638,-4.2756 -6.3638,-5.7175 0,-6.6869 15.9095,-14.4677 16.5559,-14.7908 0.6214,-0.3232 11.9321,-6.687 17.6495,-6.687 3.8283,0 6.3639,2.2374 6.3639,5.7175 0,6.861 -16.0586,14.4925 -16.5558,14.8157"
     id="path250"
     style="stroke-width:1.59095" />
  <path
     class="Note"
     d="m 2434.5212,1571.0506 c -15.4373,0 -33.8823,12.9015 -33.8823,27.6924 0,6.8361 4.922,14.4678 17.8236,14.4678 16.5309,0 33.8823,-13.5232 33.8823,-27.5186 0,-9.3965 -7.9547,-14.6416 -17.8236,-14.6416 m -4.3005,28.0155 c -0.4724,0.2984 -12.0813,6.6621 -17.6497,6.6621 -5.2452,0 -6.3638,-4.2757 -6.3638,-5.7174 0,-6.687 15.9095,-14.4678 16.5559,-14.7909 0.6214,-0.3232 11.9321,-6.6869 17.6495,-6.6869 3.8283,0 6.3639,2.2372 6.3639,5.7174 0,6.861 -16.0586,14.4926 -16.5558,14.8157"
     id="path252"
     style="stroke-width:1.59095" />
  <path
     class="Note"
     d="m 2434.5212,1650.5981 c -15.4373,0 -33.8823,12.9016 -33.8823,27.6924 0,6.8361 4.922,14.4678 17.8236,14.4678 16.5309,0 33.8823,-13.5231 33.8823,-27.5185 0,-9.3966 -7.9547,-14.6417 -17.8236,-14.6417 m -4.3005,28.0156 c -0.4724,0.2983 -12.0813,6.6622 -17.6497,6.6622 -5.2452,0 -6.3638,-4.2757 -6.3638,-5.7176 0,-6.687 15.9095,-14.4676 16.5559,-14.7908 0.6214,-0.3231 11.9321,-6.687 17.6495,-6.687 3.8283,0 6.3639,2.2373 6.3639,5.7174 0,6.8611 -16.0586,14.4926 -16.5558,14.8158"
     id="path254"
     style="stroke-width:1.59095" />
  <path
     class="Note"
     d="m 622.19201,1571.0506 c -15.43714,0 -33.88232,12.9015 -33.88232,27.6924 0,6.8361 4.922,14.4678 17.8236,14.4678 16.53108,0 33.88232,-13.5232 33.88232,-27.5186 0,-9.3965 -7.95475,-14.6416 -17.8236,-14.6416 m -4.30049,28.0155 c -0.47236,0.2984 -12.08137,6.6621 -17.64969,6.6621 -5.24518,0 -6.36381,-4.2757 -6.36381,-5.7174 0,-6.687 15.90951,-14.4678 16.55591,-14.7909 0.62142,-0.3232 11.93214,-6.6869 17.64954,-6.6869 3.82831,0 6.36381,2.2372 6.36381,5.7174 0,6.861 -16.05858,14.4926 -16.55576,14.8157"
     id="path256"
     style="stroke-width:1.59095" />
  <path
     class="Note"
     d="m 1953.0018,1372.1817 c -15.4372,0 -33.8823,12.9016 -33.8823,27.6925 0,6.8361 4.922,14.4677 17.8236,14.4677 16.531,0 33.8824,-13.5231 33.8824,-27.5185 0,-9.3966 -7.9548,-14.6417 -17.8237,-14.6417 m -4.3006,28.0156 c -0.4722,0.2983 -12.0812,6.6621 -17.6496,6.6621 -5.2451,0 -6.3637,-4.2757 -6.3637,-5.7174 0,-6.687 15.9095,-14.4678 16.5558,-14.7909 0.6214,-0.3232 11.9321,-6.687 17.6496,-6.687 3.8282,0 6.3639,2.2373 6.3639,5.7175 0,6.861 -16.0588,14.4926 -16.556,14.8157"
     id="path258"
     style="stroke-width:1.59095" />
  <path
     class="Note"
     d="m 1953.0018,1411.9555 c -15.4372,0 -33.8823,12.9016 -33.8823,27.6924 0,6.8362 4.922,14.4678 17.8236,14.4678 16.531,0 33.8824,-13.5231 33.8824,-27.5185 0,-9.3966 -7.9548,-14.6417 -17.8237,-14.6417 m -4.3006,28.0156 c -0.4722,0.2983 -12.0812,6.6621 -17.6496,6.6621 -5.2451,0 -6.3637,-4.2757 -6.3637,-5.7175 0,-6.6869 15.9095,-14.4677 16.5558,-14.7908 0.6214,-0.3232 11.9321,-6.687 17.6496,-6.687 3.8282,0 6.3639,2.2373 6.3639,5.7175 0,6.8609 -16.0588,14.4925 -16.556,14.8157"
     id="path260"
     style="stroke-width:1.59095" />
  <path
     class="Note"
     d="m 1953.0018,1451.7293 c -15.4372,0 -33.8823,12.9015 -33.8823,27.6924 0,6.8361 4.922,14.4677 17.8236,14.4677 16.531,0 33.8824,-13.523 33.8824,-27.5184 0,-9.3966 -7.9548,-14.6417 -17.8237,-14.6417 m -4.3006,28.0156 c -0.4722,0.2983 -12.0812,6.6621 -17.6496,6.6621 -5.2451,0 -6.3637,-4.2757 -6.3637,-5.7175 0,-6.687 15.9095,-14.4677 16.5558,-14.7909 0.6214,-0.3231 11.9321,-6.6869 17.6496,-6.6869 3.8282,0 6.3639,2.2372 6.3639,5.7175 0,6.8609 -16.0588,14.4925 -16.556,14.8157"
     id="path262"
     style="stroke-width:1.59095" />
  <path
     class="Note"
     d="m 1953.0018,1511.3899 c -15.4372,0 -33.8823,12.9016 -33.8823,27.6924 0,6.8361 4.922,14.4678 17.8236,14.4678 16.531,0 33.8824,-13.5231 33.8824,-27.5184 0,-9.3967 -7.9548,-14.6418 -17.8237,-14.6418 m -4.3006,28.0156 c -0.4722,0.2983 -12.0812,6.6621 -17.6496,6.6621 -5.2451,0 -6.3637,-4.2756 -6.3637,-5.7175 0,-6.6869 15.9095,-14.4677 16.5558,-14.7908 0.6214,-0.3232 11.9321,-6.687 17.6496,-6.687 3.8282,0 6.3639,2.2374 6.3639,5.7175 0,6.861 -16.0588,14.4925 -16.556,14.8157"
     id="path264"
     style="stroke-width:1.59095" />
  <path
     class="Note"
     d="m 1953.0018,1590.9374 c -15.4372,0 -33.8823,12.9016 -33.8823,27.6924 0,6.8362 4.922,14.4678 17.8236,14.4678 16.531,0 33.8824,-13.5231 33.8824,-27.5185 0,-9.3965 -7.9548,-14.6417 -17.8237,-14.6417 m -4.3006,28.0156 c -0.4722,0.2983 -12.0812,6.6622 -17.6496,6.6622 -5.2451,0 -6.3637,-4.2757 -6.3637,-5.7175 0,-6.6869 15.9095,-14.4677 16.5558,-14.7909 0.6214,-0.3231 11.9321,-6.687 17.6496,-6.687 3.8282,0 6.3639,2.2373 6.3639,5.7175 0,6.861 -16.0588,14.4925 -16.556,14.8157"
     id="path266"
     style="stroke-width:1.59095" />
  <path
     class="Note"
     d="m 776.18628,2453.8825 c 0,6.8361 4.92201,14.4677 17.82359,14.4677 16.53109,0 33.88232,-13.5231 33.88232,-27.5185 0,-9.3965 -7.95475,-14.6417 -17.82359,-14.6417 -15.43715,0 -33.88232,13.0508 -33.88232,27.6925"
     id="path268"
     style="stroke-width:1.59095" />
  <path
     class="Note"
     d="m 1528.3525,1431.8424 c -15.4372,0 -33.8822,12.9016 -33.8822,27.6924 0,6.8362 4.922,14.4678 17.8236,14.4678 16.5309,0 33.8823,-13.5231 33.8823,-27.5185 0,-9.3966 -7.9547,-14.6417 -17.8237,-14.6417 m -4.3005,28.0156 c -0.4723,0.2983 -12.0812,6.6621 -17.6497,6.6621 -5.2451,0 -6.3637,-4.2757 -6.3637,-5.7175 0,-6.6869 15.9095,-14.4677 16.5558,-14.7909 0.6215,-0.3231 11.9322,-6.6869 17.6496,-6.6869 3.8282,0 6.3639,2.2373 6.3639,5.7175 0,6.8609 -16.0587,14.4925 -16.5559,14.8157"
     id="path270"
     style="stroke-width:1.59095" />
  <path
     class="Note"
     d="m 1528.3525,1471.6162 c -15.4372,0 -33.8822,12.9016 -33.8822,27.6924 0,6.8361 4.922,14.4678 17.8236,14.4678 16.5309,0 33.8823,-13.5232 33.8823,-27.5186 0,-9.3965 -7.9547,-14.6416 -17.8237,-14.6416 m -4.3005,28.0155 c -0.4723,0.2984 -12.0812,6.6622 -17.6497,6.6622 -5.2451,0 -6.3637,-4.2757 -6.3637,-5.7175 0,-6.687 15.9095,-14.4677 16.5558,-14.7908 0.6215,-0.3233 11.9322,-6.687 17.6496,-6.687 3.8282,0 6.3639,2.2372 6.3639,5.7174 0,6.861 -16.0587,14.4926 -16.5559,14.8157"
     id="path272"
     style="stroke-width:1.59095" />
  <path
     class="Note"
     d="m 1528.3525,1511.3899 c -15.4372,0 -33.8822,12.9016 -33.8822,27.6924 0,6.8361 4.922,14.4678 17.8236,14.4678 16.5309,0 33.8823,-13.5231 33.8823,-27.5184 0,-9.3967 -7.9547,-14.6418 -17.8237,-14.6418 m -4.3005,28.0156 c -0.4723,0.2983 -12.0812,6.6621 -17.6497,6.6621 -5.2451,0 -6.3637,-4.2756 -6.3637,-5.7175 0,-6.6869 15.9095,-14.4677 16.5558,-14.7908 0.6215,-0.3232 11.9322,-6.687 17.6496,-6.687 3.8282,0 6.3639,2.2374 6.3639,5.7175 0,6.861 -16.0587,14.4925 -16.5559,14.8157"
     id="path274"
     style="stroke-width:1.59095" />
  <path
     class="Note"
     d="m 1528.3525,1571.0506 c -15.4372,0 -33.8822,12.9015 -33.8822,27.6924 0,6.8361 4.922,14.4678 17.8236,14.4678 16.5309,0 33.8823,-13.5232 33.8823,-27.5186 0,-9.3965 -7.9547,-14.6416 -17.8237,-14.6416 m -4.3005,28.0155 c -0.4723,0.2984 -12.0812,6.6621 -17.6497,6.6621 -5.2451,0 -6.3637,-4.2757 -6.3637,-5.7174 0,-6.687 15.9095,-14.4678 16.5558,-14.7909 0.6215,-0.3232 11.9322,-6.6869 17.6496,-6.6869 3.8282,0 6.3639,2.2372 6.3639,5.7174 0,6.861 -16.0587,14.4926 -16.5559,14.8157"
     id="path276"
     style="stroke-width:1.59095" />
  <path
     class="Note"
     d="m 1528.3525,1650.5981 c -15.4372,0 -33.8822,12.9016 -33.8822,27.6924 0,6.8361 4.922,14.4678 17.8236,14.4678 16.5309,0 33.8823,-13.5231 33.8823,-27.5185 0,-9.3966 -7.9547,-14.6417 -17.8237,-14.6417 m -4.3005,28.0156 c -0.4723,0.2983 -12.0812,6.6622 -17.6497,6.6622 -5.2451,0 -6.3637,-4.2757 -6.3637,-5.7176 0,-6.687 15.9095,-14.4676 16.5558,-14.7908 0.6215,-0.3231 11.9322,-6.687 17.6496,-6.687 3.8282,0 6.3639,2.2373 6.3639,5.7174 0,6.8611 -16.0587,14.4926 -16.5559,14.8158"
     id="path278"
     style="stroke-width:1.59095" />
  <path
     class="Note"
     d="m 622.19201,1511.3899 c -15.43714,0 -33.88232,12.9016 -33.88232,27.6924 0,6.8361 4.922,14.4678 17.8236,14.4678 16.53108,0 33.88232,-13.5231 33.88232,-27.5184 0,-9.3967 -7.95475,-14.6418 -17.8236,-14.6418 m -4.30049,28.0156 c -0.47236,0.2983 -12.08137,6.6621 -17.64969,6.6621 -5.24518,0 -6.36381,-4.2756 -6.36381,-5.7175 0,-6.6869 15.90951,-14.4677 16.55591,-14.7908 0.62142,-0.3232 11.93214,-6.687 17.64954,-6.687 3.82831,0 6.36381,2.2374 6.36381,5.7175 0,6.861 -16.05858,14.4925 -16.55576,14.8157"
     id="path280"
     style="stroke-width:1.59095" />
  <path
     class="Note"
     d="m 1046.838,1372.1817 c -15.4371,0 -33.8822,12.9016 -33.8822,27.6925 0,6.8361 4.922,14.4677 17.8235,14.4677 16.5311,0 33.8823,-13.5231 33.8823,-27.5185 0,-9.3966 -7.9547,-14.6417 -17.8236,-14.6417 m -4.3005,28.0156 c -0.4723,0.2983 -12.0813,6.6621 -17.6497,6.6621 -5.2451,0 -6.3637,-4.2757 -6.3637,-5.7174 0,-6.687 15.9094,-14.4678 16.5558,-14.7909 0.6214,-0.3232 11.9322,-6.687 17.6496,-6.687 3.8283,0 6.3638,2.2373 6.3638,5.7175 0,6.861 -16.0586,14.4926 -16.5558,14.8157"
     id="path282"
     style="stroke-width:1.59095" />
  <path
     class="Note"
     d="m 1046.838,1411.9555 c -15.4371,0 -33.8822,12.9016 -33.8822,27.6924 0,6.8362 4.922,14.4678 17.8235,14.4678 16.5311,0 33.8823,-13.5231 33.8823,-27.5185 0,-9.3966 -7.9547,-14.6417 -17.8236,-14.6417 m -4.3005,28.0156 c -0.4723,0.2983 -12.0813,6.6621 -17.6497,6.6621 -5.2451,0 -6.3637,-4.2757 -6.3637,-5.7175 0,-6.6869 15.9094,-14.4677 16.5558,-14.7908 0.6214,-0.3232 11.9322,-6.687 17.6496,-6.687 3.8283,0 6.3638,2.2373 6.3638,5.7175 0,6.8609 -16.0586,14.4925 -16.5558,14.8157"
     id="path284"
     style="stroke-width:1.59095" />
  <path
     class="Note"
     d="m 1046.838,1451.7293 c -15.4371,0 -33.8822,12.9015 -33.8822,27.6924 0,6.8361 4.922,14.4677 17.8235,14.4677 16.5311,0 33.8823,-13.523 33.8823,-27.5184 0,-9.3966 -7.9547,-14.6417 -17.8236,-14.6417 m -4.3005,28.0156 c -0.4723,0.2983 -12.0813,6.6621 -17.6497,6.6621 -5.2451,0 -6.3637,-4.2757 -6.3637,-5.7175 0,-6.687 15.9094,-14.4677 16.5558,-14.7909 0.6214,-0.3231 11.9322,-6.6869 17.6496,-6.6869 3.8283,0 6.3638,2.2372 6.3638,5.7175 0,6.8609 -16.0586,14.4925 -16.5558,14.8157"
     id="path286"
     style="stroke-width:1.59095" />
  <path
     class="Note"
     d="m 1046.838,1511.3899 c -15.4371,0 -33.8822,12.9016 -33.8822,27.6924 0,6.8361 4.922,14.4678 17.8235,14.4678 16.5311,0 33.8823,-13.5231 33.8823,-27.5184 0,-9.3967 -7.9547,-14.6418 -17.8236,-14.6418 m -4.3005,28.0156 c -0.4723,0.2983 -12.0813,6.6621 -17.6497,6.6621 -5.2451,0 -6.3637,-4.2756 -6.3637,-5.7175 0,-6.6869 15.9094,-14.4677 16.5558,-14.7908 0.6214,-0.3232 11.9322,-6.687 17.6496,-6.687 3.8283,0 6.3638,2.2374 6.3638,5.7175 0,6.861 -16.0586,14.4925 -16.5558,14.8157"
     id="path288"
     style="stroke-width:1.59095" />
  <path
     class="Note"
     d="m 1046.838,1590.9374 c -15.4371,0 -33.8822,12.9016 -33.8822,27.6924 0,6.8362 4.922,14.4678 17.8235,14.4678 16.5311,0 33.8823,-13.5231 33.8823,-27.5185 0,-9.3965 -7.9547,-14.6417 -17.8236,-14.6417 m -4.3005,28.0156 c -0.4723,0.2983 -12.0813,6.6622 -17.6497,6.6622 -5.2451,0 -6.3637,-4.2757 -6.3637,-5.7175 0,-6.6869 15.9094,-14.4677 16.5558,-14.7909 0.6214,-0.3231 11.9322,-6.687 17.6496,-6.687 3.8283,0 6.3638,2.2373 6.3638,5.7175 0,6.861 -16.0586,14.4925 -16.5558,14.8157"
     id="path290"
     style="stroke-width:1.59095" />
  <path
     class="Note"
     d="m 622.19201,1372.1817 c -15.43714,0 -33.88232,12.9016 -33.88232,27.6925 0,6.8361 4.922,14.4677 17.8236,14.4677 16.53108,0 33.88232,-13.5231 33.88232,-27.5185 0,-9.3966 -7.95475,-14.6417 -17.8236,-14.6417 m -4.30049,28.0156 c -0.47236,0.2983 -12.08137,6.6621 -17.64969,6.6621 -5.24518,0 -6.36381,-4.2757 -6.36381,-5.7174 0,-6.687 15.90951,-14.4678 16.55591,-14.7909 0.62142,-0.3232 11.93214,-6.687 17.64954,-6.687 3.82831,0 6.36381,2.2373 6.36381,5.7175 0,6.861 -16.05858,14.4926 -16.55576,14.8157"
     id="path292"
     style="stroke-width:1.59095" />
  <path
     class="Note"
     d="m 622.19201,1471.6162 c -15.43714,0 -33.88232,12.9016 -33.88232,27.6924 0,6.8361 4.922,14.4678 17.8236,14.4678 16.53108,0 33.88232,-13.5232 33.88232,-27.5186 0,-9.3965 -7.95475,-14.6416 -17.8236,-14.6416 m -4.30049,28.0155 c -0.47236,0.2984 -12.08137,6.6622 -17.64969,6.6622 -5.24518,0 -6.36381,-4.2757 -6.36381,-5.7175 0,-6.687 15.90951,-14.4677 16.55591,-14.7908 0.62142,-0.3233 11.93214,-6.687 17.64954,-6.687 3.82831,0 6.36381,2.2372 6.36381,5.7174 0,6.861 -16.05858,14.4926 -16.55576,14.8157"
     id="path294"
     style="stroke-width:1.59095" />
  <path
     class="Note"
     d="m 2859.1705,1451.7293 c -15.4373,0 -33.8824,12.9015 -33.8824,27.6924 0,6.8361 4.922,14.4677 17.8236,14.4677 16.531,0 33.8824,-13.523 33.8824,-27.5184 0,-9.3966 -7.9548,-14.6417 -17.8236,-14.6417 m -4.3006,28.0156 c -0.4723,0.2983 -12.0813,6.6621 -17.6496,6.6621 -5.2452,0 -6.3639,-4.2757 -6.3639,-5.7175 0,-6.687 15.9095,-14.4677 16.556,-14.7909 0.6213,-0.3231 11.932,-6.6869 17.6495,-6.6869 3.8283,0 6.3639,2.2372 6.3639,5.7175 0,6.8609 -16.0587,14.4925 -16.5559,14.8157"
     id="path296"
     style="stroke-width:1.59095" />
  <path
     class="Note"
     d="m 776.18628,2414.1087 c 0,6.8362 4.92201,14.4677 17.82359,14.4677 16.53109,0 33.88232,-13.5231 33.88232,-27.5185 0,-9.3965 -7.95475,-14.6417 -17.82359,-14.6417 -15.43715,0 -33.88232,13.0507 -33.88232,27.6925"
     id="path298"
     style="stroke-width:1.59095" />
  <path
     class="Note"
     d="m 776.18628,2513.5431 c 0,6.8362 4.92201,14.4678 17.82359,14.4678 16.53109,0 33.88232,-13.5231 33.88232,-27.5185 0,-9.3965 -7.95475,-14.6417 -17.82359,-14.6417 -15.43715,0 -33.88232,13.0507 -33.88232,27.6924"
     id="path300"
     style="stroke-width:1.59095" />
  <path
     class="Note"
     d="m 776.18628,2593.0908 c 0,6.8361 4.92201,14.4676 17.82359,14.4676 16.53109,0 33.88232,-13.5231 33.88232,-27.5185 0,-9.3965 -7.95475,-14.6417 -17.82359,-14.6417 -15.43715,0 -33.88232,13.0508 -33.88232,27.6926"
     id="path302"
     style="stroke-width:1.59095" />
  <path
     class="Note"
     d="m 301.46695,2374.3349 c 0,6.8361 4.92201,14.4678 17.82359,14.4678 16.5311,0 33.88232,-13.5231 33.88232,-27.5185 0,-9.3966 -7.95475,-14.6417 -17.82358,-14.6417 -15.43716,0 -33.88233,13.0507 -33.88233,27.6924"
     id="path304"
     style="stroke-width:1.59095" />
  <path
     class="Note"
     d="m 301.46695,2433.9956 c 0,6.8361 4.92201,14.4677 17.82359,14.4677 16.5311,0 33.88232,-13.523 33.88232,-27.5184 0,-9.3966 -7.95475,-14.6417 -17.82358,-14.6417 -15.43716,0 -33.88233,13.0507 -33.88233,27.6924"
     id="path306"
     style="stroke-width:1.59095" />
  <path
     class="Note"
     d="m 301.46695,2473.7694 c 0,6.8361 4.92201,14.4677 17.82359,14.4677 16.5311,0 33.88232,-13.5231 33.88232,-27.5185 0,-9.3966 -7.95475,-14.6417 -17.82358,-14.6417 -15.43716,0 -33.88233,13.0507 -33.88233,27.6925"
     id="path308"
     style="stroke-width:1.59095" />
  <path
     class="Note"
     d="m 301.46695,2513.5431 c 0,6.8362 4.92201,14.4678 17.82359,14.4678 16.5311,0 33.88232,-13.5231 33.88232,-27.5185 0,-9.3965 -7.95475,-14.6417 -17.82358,-14.6417 -15.43716,0 -33.88233,13.0507 -33.88233,27.6924"
     id="path310"
     style="stroke-width:1.59095" />
  <path
     class="Note"
     d="m 301.46695,2573.2038 c 0,6.8361 4.92201,14.4678 17.82359,14.4678 16.5311,0 33.88232,-13.5231 33.88232,-27.5185 0,-9.3966 -7.95475,-14.6417 -17.82358,-14.6417 -15.43716,0 -33.88233,13.0507 -33.88233,27.6924"
     id="path312"
     style="stroke-width:1.59095" />
  <path
     class="Note"
     d="m 301.46695,2652.7514 c 0,6.8361 4.92201,14.4677 17.82359,14.4677 16.5311,0 33.88232,-13.5231 33.88232,-27.5185 0,-9.3965 -7.95475,-14.6417 -17.82358,-14.6417 -15.43716,0 -33.88233,13.0508 -33.88233,27.6925"
     id="path314"
     style="stroke-width:1.59095" />
  <path
     class="Note"
     d="m 3765.3391,1372.1817 c -15.4372,0 -33.8823,12.9016 -33.8823,27.6925 0,6.8361 4.922,14.4677 17.8236,14.4677 16.531,0 33.8823,-13.5231 33.8823,-27.5185 0,-9.3966 -7.9548,-14.6417 -17.8236,-14.6417 m -4.3006,28.0156 c -0.4723,0.2983 -12.0813,6.6621 -17.6496,6.6621 -5.2451,0 -6.3638,-4.2757 -6.3638,-5.7174 0,-6.687 15.9095,-14.4678 16.5559,-14.7909 0.6214,-0.3232 11.932,-6.687 17.6496,-6.687 3.8282,0 6.3637,2.2373 6.3637,5.7175 0,6.861 -16.0586,14.4926 -16.5558,14.8157"
     id="path316"
     style="stroke-width:1.59095" />
  <path
     class="Note"
     d="m 3765.3391,1411.9555 c -15.4372,0 -33.8823,12.9016 -33.8823,27.6924 0,6.8362 4.922,14.4678 17.8236,14.4678 16.531,0 33.8823,-13.5231 33.8823,-27.5185 0,-9.3966 -7.9548,-14.6417 -17.8236,-14.6417 m -4.3006,28.0156 c -0.4723,0.2983 -12.0813,6.6621 -17.6496,6.6621 -5.2451,0 -6.3638,-4.2757 -6.3638,-5.7175 0,-6.6869 15.9095,-14.4677 16.5559,-14.7908 0.6214,-0.3232 11.932,-6.687 17.6496,-6.687 3.8282,0 6.3637,2.2373 6.3637,5.7175 0,6.8609 -16.0586,14.4925 -16.5558,14.8157"
     id="path318"
     style="stroke-width:1.59095" />
  <path
     class="Note"
     d="m 3765.3391,1451.7293 c -15.4372,0 -33.8823,12.9015 -33.8823,27.6924 0,6.8361 4.922,14.4677 17.8236,14.4677 16.531,0 33.8823,-13.523 33.8823,-27.5184 0,-9.3966 -7.9548,-14.6417 -17.8236,-14.6417 m -4.3006,28.0156 c -0.4723,0.2983 -12.0813,6.6621 -17.6496,6.6621 -5.2451,0 -6.3638,-4.2757 -6.3638,-5.7175 0,-6.687 15.9095,-14.4677 16.5559,-14.7909 0.6214,-0.3231 11.932,-6.6869 17.6496,-6.6869 3.8282,0 6.3637,2.2372 6.3637,5.7175 0,6.8609 -16.0586,14.4925 -16.5558,14.8157"
     id="path320"
     style="stroke-width:1.59095" />
  <path
     class="Note"
     d="m 3765.3391,1511.3899 c -15.4372,0 -33.8823,12.9016 -33.8823,27.6924 0,6.8361 4.922,14.4678 17.8236,14.4678 16.531,0 33.8823,-13.5231 33.8823,-27.5184 0,-9.3967 -7.9548,-14.6418 -17.8236,-14.6418 m -4.3006,28.0156 c -0.4723,0.2983 -12.0813,6.6621 -17.6496,6.6621 -5.2451,0 -6.3638,-4.2756 -6.3638,-5.7175 0,-6.6869 15.9095,-14.4677 16.5559,-14.7908 0.6214,-0.3232 11.932,-6.687 17.6496,-6.687 3.8282,0 6.3637,2.2374 6.3637,5.7175 0,6.861 -16.0586,14.4925 -16.5558,14.8157"
     id="path322"
     style="stroke-width:1.59095" />
  <path
     class="Note"
     d="m 3765.3391,1590.9374 c -15.4372,0 -33.8823,12.9016 -33.8823,27.6924 0,6.8362 4.922,14.4678 17.8236,14.4678 16.531,0 33.8823,-13.5231 33.8823,-27.5185 0,-9.3965 -7.9548,-14.6417 -17.8236,-14.6417 m -4.3006,28.0156 c -0.4723,0.2983 -12.0813,6.6622 -17.6496,6.6622 -5.2451,0 -6.3638,-4.2757 -6.3638,-5.7175 0,-6.6869 15.9095,-14.4677 16.5559,-14.7909 0.6214,-0.3231 11.932,-6.687 17.6496,-6.687 3.8282,0 6.3637,2.2373 6.3637,5.7175 0,6.861 -16.0586,14.4925 -16.5558,14.8157"
     id="path324"
     style="stroke-width:1.59095" />
  <path
     class="Note"
     d="m 3340.6898,1431.8424 c -15.4372,0 -33.8822,12.9016 -33.8822,27.6924 0,6.8362 4.922,14.4678 17.8236,14.4678 16.5309,0 33.8822,-13.5231 33.8822,-27.5185 0,-9.3966 -7.9548,-14.6417 -17.8236,-14.6417 m -4.3005,28.0156 c -0.4724,0.2983 -12.0813,6.6621 -17.6497,6.6621 -5.2451,0 -6.3637,-4.2757 -6.3637,-5.7175 0,-6.6869 15.9095,-14.4677 16.5558,-14.7909 0.6215,-0.3231 11.9321,-6.6869 17.6496,-6.6869 3.8282,0 6.3638,2.2373 6.3638,5.7175 0,6.8609 -16.0587,14.4925 -16.5558,14.8157"
     id="path326"
     style="stroke-width:1.59095" />
  <path
     class="Note"
     d="m 2859.1705,1511.3899 c -15.4373,0 -33.8824,12.9016 -33.8824,27.6924 0,6.8361 4.922,14.4678 17.8236,14.4678 16.531,0 33.8824,-13.5231 33.8824,-27.5184 0,-9.3967 -7.9548,-14.6418 -17.8236,-14.6418 m -4.3006,28.0156 c -0.4723,0.2983 -12.0813,6.6621 -17.6496,6.6621 -5.2452,0 -6.3639,-4.2756 -6.3639,-5.7175 0,-6.6869 15.9095,-14.4677 16.556,-14.7908 0.6213,-0.3232 11.932,-6.687 17.6495,-6.687 3.8283,0 6.3639,2.2374 6.3639,5.7175 0,6.861 -16.0587,14.4925 -16.5559,14.8157"
     id="path328"
     style="stroke-width:1.59095" />
  <path
     class="Note"
     d="m 2859.1705,1411.9555 c -15.4373,0 -33.8824,12.9016 -33.8824,27.6924 0,6.8362 4.922,14.4678 17.8236,14.4678 16.531,0 33.8824,-13.5231 33.8824,-27.5185 0,-9.3966 -7.9548,-14.6417 -17.8236,-14.6417 m -4.3006,28.0156 c -0.4723,0.2983 -12.0813,6.6621 -17.6496,6.6621 -5.2452,0 -6.3639,-4.2757 -6.3639,-5.7175 0,-6.6869 15.9095,-14.4677 16.556,-14.7908 0.6213,-0.3232 11.932,-6.687 17.6495,-6.687 3.8283,0 6.3639,2.2373 6.3639,5.7175 0,6.8609 -16.0587,14.4925 -16.5559,14.8157"
     id="path330"
     style="stroke-width:1.59095" />
  <path
     class="Note"
     d="m 2859.1705,1372.1817 c -15.4373,0 -33.8824,12.9016 -33.8824,27.6925 0,6.8361 4.922,14.4677 17.8236,14.4677 16.531,0 33.8824,-13.5231 33.8824,-27.5185 0,-9.3966 -7.9548,-14.6417 -17.8236,-14.6417 m -4.3006,28.0156 c -0.4723,0.2983 -12.0813,6.6621 -17.6496,6.6621 -5.2452,0 -6.3639,-4.2757 -6.3639,-5.7174 0,-6.687 15.9095,-14.4678 16.556,-14.7909 0.6213,-0.3232 11.932,-6.687 17.6495,-6.687 3.8283,0 6.3639,2.2373 6.3639,5.7175 0,6.861 -16.0587,14.4926 -16.5559,14.8157"
     id="path332"
     style="stroke-width:1.59095" />
  <path
     class="Note"
     d="m 622.19201,1650.5981 c -15.43714,0 -33.88232,12.9016 -33.88232,27.6924 0,6.8361 4.922,14.4678 17.8236,14.4678 16.53108,0 33.88232,-13.5231 33.88232,-27.5185 0,-9.3966 -7.95475,-14.6417 -17.8236,-14.6417 m -4.30049,28.0156 c -0.47236,0.2983 -12.08137,6.6622 -17.64969,6.6622 -5.24518,0 -6.36381,-4.2757 -6.36381,-5.7176 0,-6.687 15.90951,-14.4676 16.55591,-14.7908 0.62142,-0.3231 11.93214,-6.687 17.64954,-6.687 3.82831,0 6.36381,2.2373 6.36381,5.7174 0,6.8611 -16.05858,14.4926 -16.55576,14.8158"
     id="path334"
     style="stroke-width:1.59095" />
  <path
     class="Note"
     d="m 3340.6898,1650.5981 c -15.4372,0 -33.8822,12.9016 -33.8822,27.6924 0,6.8361 4.922,14.4678 17.8236,14.4678 16.5309,0 33.8822,-13.5231 33.8822,-27.5185 0,-9.3966 -7.9548,-14.6417 -17.8236,-14.6417 m -4.3005,28.0156 c -0.4724,0.2983 -12.0813,6.6622 -17.6497,6.6622 -5.2451,0 -6.3637,-4.2757 -6.3637,-5.7176 0,-6.687 15.9095,-14.4676 16.5558,-14.7908 0.6215,-0.3231 11.9321,-6.687 17.6496,-6.687 3.8282,0 6.3638,2.2373 6.3638,5.7174 0,6.8611 -16.0587,14.4926 -16.5558,14.8158"
     id="path336"
     style="stroke-width:1.59095" />
  <path
     class="Note"
     d="m 3340.6898,1571.0506 c -15.4372,0 -33.8822,12.9015 -33.8822,27.6924 0,6.8361 4.922,14.4678 17.8236,14.4678 16.5309,0 33.8822,-13.5232 33.8822,-27.5186 0,-9.3965 -7.9548,-14.6416 -17.8236,-14.6416 m -4.3005,28.0155 c -0.4724,0.2984 -12.0813,6.6621 -17.6497,6.6621 -5.2451,0 -6.3637,-4.2757 -6.3637,-5.7174 0,-6.687 15.9095,-14.4678 16.5558,-14.7909 0.6215,-0.3232 11.9321,-6.6869 17.6496,-6.6869 3.8282,0 6.3638,2.2372 6.3638,5.7174 0,6.861 -16.0587,14.4926 -16.5558,14.8157"
     id="path338"
     style="stroke-width:1.59095" />
  <path
     class="Note"
     d="m 3340.6898,1511.3899 c -15.4372,0 -33.8822,12.9016 -33.8822,27.6924 0,6.8361 4.922,14.4678 17.8236,14.4678 16.5309,0 33.8822,-13.5231 33.8822,-27.5184 0,-9.3967 -7.9548,-14.6418 -17.8236,-14.6418 m -4.3005,28.0156 c -0.4724,0.2983 -12.0813,6.6621 -17.6497,6.6621 -5.2451,0 -6.3637,-4.2756 -6.3637,-5.7175 0,-6.6869 15.9095,-14.4677 16.5558,-14.7908 0.6215,-0.3232 11.9321,-6.687 17.6496,-6.687 3.8282,0 6.3638,2.2374 6.3638,5.7175 0,6.861 -16.0587,14.4925 -16.5558,14.8157"
     id="path340"
     style="stroke-width:1.59095" />
  <path
     class="Note"
     d="m 3340.6898,1471.6162 c -15.4372,0 -33.8822,12.9016 -33.8822,27.6924 0,6.8361 4.922,14.4678 17.8236,14.4678 16.5309,0 33.8822,-13.5232 33.8822,-27.5186 0,-9.3965 -7.9548,-14.6416 -17.8236,-14.6416 m -4.3005,28.0155 c -0.4724,0.2984 -12.0813,6.6622 -17.6497,6.6622 -5.2451,0 -6.3637,-4.2757 -6.3637,-5.7175 0,-6.687 15.9095,-14.4677 16.5558,-14.7908 0.6215,-0.3233 11.9321,-6.687 17.6496,-6.687 3.8282,0 6.3638,2.2372 6.3638,5.7174 0,6.861 -16.0587,14.4926 -16.5558,14.8157"
     id="path342"
     style="stroke-width:1.59095" />
  <path
     class="Note"
     d="m 3340.6898,1372.1817 c -15.4372,0 -33.8822,12.9016 -33.8822,27.6925 0,6.8361 4.922,14.4677 17.8236,14.4677 16.5309,0 33.8822,-13.5231 33.8822,-27.5185 0,-9.3966 -7.9548,-14.6417 -17.8236,-14.6417 m -4.3005,28.0156 c -0.4724,0.2983 -12.0813,6.6621 -17.6497,6.6621 -5.2451,0 -6.3637,-4.2757 -6.3637,-5.7174 0,-6.687 15.9095,-14.4678 16.5558,-14.7909 0.6215,-0.3232 11.9321,-6.687 17.6496,-6.687 3.8282,0 6.3638,2.2373 6.3638,5.7175 0,6.861 -16.0587,14.4926 -16.5558,14.8157"
     id="path344"
     style="stroke-width:1.59095" />
  <path
     class="Clef"
     d="m 167.52798,2581.1586 c 0,-5.8914 -5.39427,-8.4271 -10.6395,-8.4271 -6.68691,0 -13.22478,4.1265 -13.22478,11.2858 0,3.0328 1.11861,5.2701 3.35597,7.4825 -4.15144,1.591 -8.27804,4.7728 -8.27804,9.7197 0,5.2452 4.77287,8.7503 11.78305,8.7503 8.5762,0 14.61686,-4.7729 14.61686,-11.6339 0,-3.6543 -1.59095,-6.6621 -4.44971,-8.7502 4.62378,-2.0633 6.83615,-4.5988 6.83615,-8.4271 m -15.90951,25.4552 c -3.48021,0 -5.86664,-2.2124 -5.86664,-5.5683 0,-3.1819 1.41691,-5.7174 4.12647,-7.3084 0.64638,0.3231 0.79547,0.3231 1.26781,0.6214 1.91409,0.9696 1.91409,0.9696 2.23736,1.2927 3.00785,1.7401 4.30049,3.331 4.30049,5.5683 0,3.0079 -2.56046,5.3943 -6.06549,5.3943 m 6.06549,-19.0914 c -2.38643,-1.2677 -3.03281,-1.591 -3.50501,-1.9142 l -0.32328,-0.1491 c -2.38642,-1.4418 -3.1819,-2.5604 -3.1819,-4.4497 0,-2.8836 2.23734,-4.9468 5.41924,-4.9468 3.00787,0 4.92194,1.9141 4.92194,5.2451 0,2.5605 -0.94455,4.3005 -3.33099,6.2147 m 44.3726,-120.7631 c 0,-24.0135 -17.02812,-40.2461 -40.24613,-40.2461 -1.59095,-9.5458 -3.03269,-18.9423 -4.44958,-27.8417 16.70499,-17.6745 28.46306,-37.7105 28.46306,-62.8426 0,-14.4926 -4.44972,-26.2507 -7.15928,-31.9923 -3.80332,-8.1044 -8.4271,-13.6727 -11.13665,-13.6727 -1.09378,0 -6.18975,1.9138 -11.28588,8.1044 -10.34118,12.1054 -13.19981,32.2906 -13.19981,45.6645 0,8.6011 0.79548,16.3819 3.50502,34.3795 -0.17405,0 -8.45193,8.4271 -11.78305,11.2858 -14.49246,13.3739 -34.52858,32.7637 -34.52858,64.4336 0,29.9049 25.92757,53.2968 55.53422,53.2968 4.59879,0 8.8993,-0.4723 12.72761,-1.1187 2.85863,15.1389 4.77285,26.4248 4.77285,34.8518 0,16.5559 -8.60116,25.3061 -24.65974,25.3061 -3.82831,0 -7.15928,-0.7954 -7.48256,-0.9695 -0.14914,0 -0.47219,-0.1491 -0.47219,-0.2983 0,-0.3232 0.32311,-0.4971 0.79547,-0.6463 7.48239,-1.1186 14.93998,-7.6316 14.93998,-17.6496 0,-8.6011 -6.51302,-17.6745 -18.44516,-17.6745 -11.13665,0 -18.14673,9.0734 -18.14673,19.5637 0,10.5152 7.95477,24.3615 29.43261,24.3615 20.53315,0 30.5512,-11.6338 30.5512,-31.9931 0,-6.1898 -0.94455,-13.349 -2.5355,-22.4224 -0.47236,-3.1819 -1.26784,-8.1288 -2.38643,-14.1694 15.58625,-5.2452 27.19525,-21.3288 27.19525,-37.7105 m -48.99636,-130.458 c 1.59095,-6.3639 8.75023,-23.0688 17.02826,-23.0688 2.38643,0 6.3638,7.6316 6.3638,18.7682 0,16.3819 -12.40449,28.8111 -23.39206,39.7738 -0.94457,-6.3638 -1.74004,-12.7276 -1.74004,-19.2406 0,-6.0406 0.62143,-11.3106 1.74004,-16.2326 m 4.77285,164.5143 c -22.74552,0 -42.16018,-15.9096 -42.16018,-39.9478 0,-19.3898 13.67228,-36.741 27.69254,-48.9963 2.68473,-2.2373 5.24521,-4.4498 7.63163,-6.8361 1.4169,8.5762 2.5355,15.9095 3.65411,22.5964 -14.49246,4.1265 -24.33647,19.5638 -24.33647,34.3546 0,11.3106 8.75023,26.5738 21.47784,26.5738 1.26768,0 2.70954,-0.6463 2.70954,-2.2372 0,-1.2678 -1.44186,-2.2125 -3.50502,-3.4802 -6.21473,-3.6791 -9.71976,-7.9548 -9.71976,-15.6113 0,-9.6947 7.33334,-17.5004 16.55577,-19.7128 l 9.22258,52.1783 c -3.1819,0.6463 -6.04068,1.1186 -9.22258,1.1186 m 15.90951,-3.0327 c -3.33099,-18.9175 -7.63148,-44.2236 -8.75022,-51.2336 16.05872,0 22.9197,11.1366 24.33661,18.793 0.17404,1.2678 0.47235,3.0079 0.47235,4.922 0,11.4598 -4.77286,22.9197 -16.05874,27.5186"
     id="path346"
     style="stroke-width:1.59095" />
  <path
     class="Clef"
     d="m 366.39688,1606.6978 c 0,-5.8916 -5.39427,-8.427 -10.63948,-8.427 -6.68693,0 -13.22478,4.1264 -13.22478,11.2857 0,3.0328 1.11859,5.27 3.35595,7.4824 -4.15143,1.5909 -8.27802,4.7728 -8.27802,9.7198 0,5.2452 4.77285,8.7502 11.78303,8.7502 8.5762,0 14.61688,-4.7729 14.61688,-11.6339 0,-3.6542 -1.59095,-6.6621 -4.44973,-8.7502 4.62378,-2.0633 6.83615,-4.5987 6.83615,-8.427 m -15.90951,25.4551 c -3.48021,0 -5.86664,-2.2124 -5.86664,-5.5683 0,-3.1819 1.41692,-5.7175 4.12647,-7.3084 0.64638,0.3231 0.79547,0.3231 1.26783,0.6215 1.91407,0.9694 1.91407,0.9694 2.23735,1.2926 3.00784,1.7402 4.30049,3.3312 4.30049,5.5684 0,3.0078 -2.56047,5.3942 -6.0655,5.3942 m 6.0655,-19.0914 c -2.38642,-1.2677 -3.03282,-1.591 -3.50501,-1.9141 l -0.32328,-0.1491 c -2.38643,-1.4419 -3.18191,-2.5605 -3.18191,-4.4498 0,-2.8836 2.23735,-4.9468 5.41925,-4.9468 3.00786,0 4.92194,1.9141 4.92194,5.2452 0,2.5604 -0.94456,4.3004 -3.33099,6.2145 m 44.37259,-120.763 c 0,-24.0134 -17.02811,-40.246 -40.24612,-40.246 -1.59095,-9.5457 -3.03269,-18.9424 -4.44958,-27.8417 16.70499,-17.6745 28.46306,-37.7104 28.46306,-62.8425 0,-14.4926 -4.44972,-26.2507 -7.15928,-31.9925 -3.80331,-8.1043 -8.4271,-13.6726 -11.13666,-13.6726 -1.09378,0 -6.18974,1.9139 -11.28587,8.1043 -10.34119,12.1055 -13.19982,32.2907 -13.19982,45.6646 0,8.6012 0.79548,16.3819 3.50502,34.3795 -0.17405,0 -8.45192,8.4271 -11.78304,11.2859 -14.49246,13.3739 -34.52859,32.7636 -34.52859,64.4334 0,29.905 25.92757,53.2969 55.53423,53.2969 4.5988,0 8.8993,-0.4723 12.7276,-1.1185 2.85863,15.1388 4.77286,26.4245 4.77286,34.8516 0,16.5559 -8.60116,25.3061 -24.65975,25.3061 -3.82831,0 -7.15928,-0.7954 -7.48255,-0.9695 -0.14915,0 -0.4722,-0.1492 -0.4722,-0.2983 0,-0.3231 0.32311,-0.4972 0.79547,-0.6464 7.48239,-1.1185 14.93998,-7.6314 14.93998,-17.6495 0,-8.6012 -6.51302,-17.6745 -18.44515,-17.6745 -11.13666,0 -18.14672,9.0733 -18.14672,19.5638 0,10.5152 7.95475,24.3614 29.43259,24.3614 20.53315,0 30.55121,-11.6338 30.55121,-31.9931 0,-6.1898 -0.94455,-13.349 -2.5355,-22.4224 -0.47236,-3.1819 -1.26784,-8.1288 -2.38642,-14.1695 15.58623,-5.2451 27.19523,-21.3285 27.19523,-37.7105 M 351.9291,1361.8405 c 1.59095,-6.3638 8.75024,-23.0688 17.02826,-23.0688 2.38643,0 6.36382,7.6315 6.36382,18.7682 0,16.3818 -12.40451,28.8111 -23.39208,39.7737 -0.94455,-6.3638 -1.74003,-12.7276 -1.74003,-19.2404 0,-6.0407 0.62143,-11.3108 1.74003,-16.2327 m 4.77286,164.5143 c -22.74552,0 -42.16017,-15.9095 -42.16017,-39.9478 0,-19.3898 13.67226,-36.741 27.69252,-48.9963 2.68473,-2.2373 5.24521,-4.4497 7.63164,-6.8362 1.41689,8.5762 2.5355,15.9096 3.6541,22.5965 -14.49245,4.1266 -24.33647,19.5638 -24.33647,34.3547 0,11.3106 8.75024,26.5738 21.47784,26.5738 1.26768,0 2.70955,-0.6462 2.70955,-2.2372 0,-1.2678 -1.44187,-2.2125 -3.50502,-3.4803 -6.21474,-3.679 -9.71976,-7.9547 -9.71976,-15.6112 0,-9.6949 7.33333,-17.5005 16.55577,-19.7129 l 9.22257,52.1782 c -3.1819,0.6464 -6.04067,1.1187 -9.22257,1.1187 m 15.90951,-3.0328 c -3.33099,-18.9174 -7.63148,-44.2234 -8.75023,-51.2337 16.05873,0 22.9197,11.1367 24.33662,18.7932 0.17403,1.2678 0.47234,3.0079 0.47234,4.922 0,11.4599 -4.77285,22.9198 -16.05873,27.5185"
     id="path348"
     style="stroke-width:1.59095" />
  <path
     class="TimeSig"
     d="m 471.54882,1433.2841 v 11.7582 h -13.19996 c -1.11861,0 -2.23719,0.9694 -2.23719,2.2372 v 3.0329 c 0,1.2676 1.11858,2.2123 2.23719,2.2123 h 48.20088 c 1.29265,0 2.23722,-0.9447 2.23722,-2.2123 v -3.0329 c 0,-1.2678 -0.94457,-2.2372 -2.23722,-2.2372 h -14.31855 v -11.7582 h 14.31855 c 1.29265,0 2.23722,-1.1186 2.23722,-2.3864 v -3.0327 c 0,-1.1187 -0.94457,-2.2125 -2.23722,-2.2125 h -14.31855 v -25.306 c 0,-0.9447 -0.47236,-1.7401 -1.09379,-2.0633 l -1.91406,-0.9695 c -0.32327,-0.1491 -0.47236,-0.1491 -0.79548,-0.1491 -0.17405,0 -0.17405,0 -0.32327,0 -0.4722,0 -1.11861,0.1491 -1.44174,0.4723 l -14.46777,13.1999 c -0.47221,0.4972 -0.64626,1.1186 -0.64626,1.765 v 13.0507 h -18.44513 c 0,0 17.82371,-19.0914 36.59185,-44.2484 0.64639,-0.7954 0.79548,-1.5909 0.79548,-2.2123 0,-0.7955 -0.32314,-1.4418 -0.47221,-1.591 l -3.50517,-3.505 c -0.4722,-0.3232 -0.94456,-0.6464 -1.59096,-0.6464 -0.94455,0 -22.44721,0 -23.71505,0 -1.11859,0 -1.91406,0.9695 -2.06329,1.9142 0,0 -0.79548,11.7829 -4.92201,24.6597 -4.15138,12.9016 -8.92425,20.8564 -13.05078,26.723 0,0 -0.47231,0.7955 -0.47231,1.765 0,0.3231 0,0.6215 0.14916,0.9446 0.47231,1.1186 1.59095,2.8588 1.59095,2.8588 0,0 0.32316,0.9694 1.7401,0.9694 h 27.36937"
     id="path352"
     style="stroke-width:1.59095" />
  <path
     class="TimeSig"
     d="m 471.54882,1512.8317 v 11.7582 h -13.19996 c -1.11861,0 -2.23719,0.9694 -2.23719,2.2372 v 3.0328 c 0,1.2677 1.11858,2.2124 2.23719,2.2124 h 48.20088 c 1.29265,0 2.23722,-0.9447 2.23722,-2.2124 v -3.0328 c 0,-1.2678 -0.94457,-2.2372 -2.23722,-2.2372 h -14.31855 v -11.7582 h 14.31855 c 1.29265,0 2.23722,-1.1187 2.23722,-2.3864 v -3.0328 c 0,-1.1186 -0.94457,-2.2124 -2.23722,-2.2124 h -14.31855 v -25.3061 c 0,-0.9445 -0.47236,-1.7401 -1.09379,-2.0632 l -1.91406,-0.9695 c -0.32327,-0.1492 -0.47236,-0.1492 -0.79548,-0.1492 -0.17405,0 -0.17405,0 -0.32327,0 -0.4722,0 -1.11861,0.1492 -1.44174,0.4723 l -14.46777,13.2 c -0.47221,0.4971 -0.64626,1.1186 -0.64626,1.7649 v 13.0508 h -18.44513 c 0,0 17.82371,-19.0914 36.59185,-44.2484 0.64639,-0.7955 0.79548,-1.591 0.79548,-2.2124 0,-0.7955 -0.32314,-1.4417 -0.47221,-1.5909 l -3.50517,-3.5051 c -0.4722,-0.3231 -0.94456,-0.6464 -1.59096,-0.6464 -0.94455,0 -22.44721,0 -23.71505,0 -1.11859,0 -1.91406,0.9696 -2.06329,1.9143 0,0 -0.79548,11.7829 -4.92201,24.6596 -4.15138,12.9017 -8.92425,20.8565 -13.05078,26.7231 0,0 -0.47231,0.7955 -0.47231,1.7649 0,0.3232 0,0.6216 0.14916,0.9447 0.47231,1.1187 1.59095,2.8588 1.59095,2.8588 0,0 0.32316,0.9694 1.7401,0.9694 h 27.36937"
     id="path354"
     style="stroke-width:1.59095" />
  <path
     class="Harmony"
     d="m 1595.1796,497.45145 h -53.9815 v 9.87899 h 3.9784 c 11.8938,0.19589 15.9141,0.85421 17.3379,2.94818 1.5077,1.8302 1.5077,2.09397 1.5077,12.95296 v 80.22693 c 0,28.46067 -3.9785,34.35287 -24.3314,35.39979 v 9.81221 h 59.6768 v -9.81221 c -20.1015,-1.04692 -24.0799,-6.93912 -24.0799,-35.39979 v -92.59347 l 49.8351,137.80547 h 8.3758 l 46.7364,-137.80547 v 112.02493 c 0,10.73347 0,11.12318 -1.2565,13.21715 -1.6749,2.09369 -5.6951,2.75118 -17.5888,2.75118 h -3.8108 v 9.81221 h 68.7225 v -9.81221 h -3.8107 c -11.8938,0 -15.8722,-0.65749 -17.5891,-2.75118 -1.2565,-2.09397 -1.2565,-2.28668 -1.2565,-13.21715 v -99.65839 c 0,-10.66629 0,-11.12276 1.2565,-12.95296 1.7169,-2.09397 5.6953,-2.75118 17.5891,-2.94818 h 3.8107 v -9.87899 h -52.5574 l -38.3188,111.63134 -40.2455,-111.63134 m 170.8227,1.50325 c -6.7007,0 -12.1449,5.43157 -12.1449,12.10706 0,6.73825 5.4442,12.16982 11.9773,12.16982 6.868,0 12.3122,-5.43157 12.3122,-12.16982 0,-6.67549 -5.4442,-12.10706 -12.1446,-12.10706 m 9.8414,52.15556 -39.3238,2.28667 v 9.03309 h 10.6371 c 7.9567,0.19575 9.0036,1.43634 9.0036,10.46971 v 59.87352 c -0.2089,3.14102 -0.4187,4.38064 -1.2563,5.42756 -1.4657,1.9014 -5.4441,2.75146 -14.448,2.94832 h -1.466 v 7.52138 h 54.2329 v -7.52138 h -1.4657 c -14.0294,-0.46063 -15.9138,-1.50755 -15.9138,-9.03337 v -81.0055 m 64.828,0 -37.2302,2.28667 v 9.03309 h 8.5852 c 7.9151,0.19575 8.962,1.43634 8.962,10.46971 v 59.87352 c -0.2089,3.14102 -0.3771,4.38064 -1.2562,5.42756 -1.4239,1.9014 -5.4025,2.75146 -14.4484,2.94832 h -0.7956 v 7.52138 h 52.7669 v -7.52138 h -0.8795 c -13.778,-0.46063 -15.7042,-1.50755 -15.7042,-9.22995 v -38.73767 c 0,-18.64845 10.3021,-32.4559 23.9127,-32.4559 11.8933,0 17.9657,8.57246 17.9657,25.52066 v 46.71968 c -0.167,2.75146 -0.3768,4.18794 -1.4238,5.23486 -1.2565,1.9014 -5.4442,2.75146 -14.4482,2.94832 h -0.8796 v 7.52138 h 53.0187 v -7.52138 h -0.8378 c -13.8199,-0.46063 -15.7045,-1.50755 -15.7045,-9.03337 v -37.03312 c 0,-20.93914 9.4226,-34.35703 24.0803,-34.35703 11.9772,0 17.7982,9.03309 17.7982,27.87854 v 44.1691 c -0.2115,2.94416 -0.4188,4.38064 -1.4657,5.42756 -1.2144,1.9014 -5.4023,2.75146 -14.4479,2.94832 h -0.8377 v 7.52138 h 52.9762 v -7.52138 h -0.8374 c -13.8199,-0.46063 -15.7047,-1.50755 -15.7047,-9.22995 v -47.50283 c 0,-13.02431 -1.2561,-17.40883 -6.6587,-24.54093 -6.1139,-7.71811 -14.6574,-11.90591 -24.75,-11.90591 -13.6103,0 -23.7031,6.47419 -32.6654,20.93914 -3.6014,-12.56368 -14.9085,-20.93914 -28.8962,-20.93914 -12.7729,0 -21.9861,6.08491 -30.1942,19.23459 v -16.09384"
     id="path358"
     style="stroke-width:4.18786" />
  <path
     class="Harmony"
     d="m 2350.0503,587.09646 h -9.1297 c -6.9519,37.69062 -16.3745,46.91669 -48.8305,47.57418 h -8.8363 c -12.5634,-0.46091 -15.7045,-2.55488 -15.0344,-10.08015 V 519.04406 c 0,-10.46985 0,-11.12318 1.2145,-12.95338 1.7172,-2.09369 5.6956,-2.75118 17.6308,-2.94804 h 3.7692 v -9.87913 h -68.6809 v 9.87913 h 3.7693 c 11.9354,0.19575 15.9139,0.85435 17.5469,2.94804 1.2981,1.8302 1.2981,2.28667 1.2981,12.95338 v 99.65811 c 0,10.73348 0,11.12304 -1.2981,13.0243 -1.633,2.09397 -5.6115,2.94417 -17.5469,2.94417 h -3.7693 v 9.81194 h 123.5418 l 4.3555,-57.38612 m 99.7965,-10.0088 c 0,-13.2213 -2.3036,-19.8925 -8.3758,-24.93035 -6.868,-5.69562 -17.1284,-8.37574 -30.5715,-8.37574 -23.6195,0 -40.8315,11.05599 -40.8315,26.3667 0,7.7224 4.858,12.76025 12.1867,12.76025 6.6589,0 11.3072,-4.38452 11.3072,-10.66629 0,-2.7473 -1.0468,-5.62441 -3.1408,-8.56858 -1.2983,-1.5074 -1.5075,-1.90126 -1.5075,-2.94804 0,-4.18794 8.3756,-7.98202 18.4682,-7.98202 6.659,0 13.9874,2.09397 17.3379,5.23472 3.9785,3.40479 5.4859,8.37587 5.4859,17.79853 v 8.17888 c -21.7766,3.79823 -28.7288,5.43157 -38.9889,9.42265 -18.1752,6.7424 -26.7605,16.36177 -26.7605,29.77564 0,15.0468 11.7261,24.46931 30.3619,24.46931 14.4483,0 27.4305,-5.88805 36.4347,-16.55434 3.3502,10.66629 8.5849,14.85423 18.3844,14.85423 9.4229,0 19.3062,-6.01786 19.3062,-12.10277 0,-1.50782 -0.8378,-2.5546 -2.094,-2.5546 -0.8377,0 -1.6754,0.26377 -3.1409,0.84992 -2.9315,1.24405 -4.1878,1.50768 -5.863,1.50768 -5.905,0 -7.9987,-3.79823 -7.9987,-14.4605 v -42.07528 m -19.6412,25.5165 c 0,12.5634 -0.628,15.51172 -4.1876,20.93914 -5.2351,7.72254 -14.6577,12.95726 -23.8709,12.95726 -9.632,0 -16.5422,-6.86806 -16.5422,-16.29071 0,-8.83637 4.3556,-15.11828 13.6106,-19.5028 6.4494,-2.94416 14.6574,-5.03813 30.9901,-7.71824 v 9.61535 m 83.5058,-55.68184 -37.23,2.28667 v 9.03309 h 8.5851 c 7.9151,0.19575 8.9622,1.43648 8.9622,10.46971 v 59.8738 c -0.2115,3.14088 -0.4189,4.38036 -1.2565,5.42756 -1.4237,1.90112 -5.4442,2.75118 -14.4483,2.94804 h -0.7956 v 7.52139 h 52.7254 v -7.52139 h -0.8378 c -13.8198,-0.46063 -15.7045,-1.50741 -15.7045,-9.22995 v -38.73767 c 0,-18.64845 10.2603,-32.4559 23.8707,-32.4559 11.9354,0 18.0078,8.57246 18.0078,25.52094 v 46.71954 c -0.2089,2.75146 -0.3768,4.1878 -1.4239,5.235 -1.2562,1.90112 -5.4439,2.75118 -14.49,2.94804 h -0.8374 v 7.52139 h 53.0181 v -7.52139 h -0.8796 c -13.7779,-0.46063 -15.7042,-1.50741 -15.7042,-9.03309 v -37.03326 c 0,-20.93928 9.4227,-34.35717 24.0801,-34.35717 11.9772,0 17.7986,9.03337 17.7986,27.87868 v 44.16924 c -0.1697,2.94402 -0.3771,4.38036 -1.4241,5.42756 -1.2565,1.90112 -5.4442,2.75118 -14.448,2.94804 H 2600.4 v 7.52139 h 53.0184 v -7.52139 h -0.8377 c -13.82,-0.46063 -15.7046,-1.50741 -15.7046,-9.22995 v -47.50283 c 0,-13.02431 -1.2562,-17.40883 -6.7004,-24.54093 -6.0725,-7.71797 -14.6574,-11.90591 -24.7083,-11.90591 -13.6107,0 -23.7035,6.47434 -32.6652,20.93928 -3.6017,-12.56354 -14.909,-20.93928 -28.9381,-20.93928 -12.731,0 -21.9863,6.08491 -30.1527,19.23487 v -16.09412"
     id="path360"
     style="stroke-width:4.18786" />
  <polyline
     class="FretDiagram"
     fill="none"
     stroke="#000000"
     stroke-width="7.44"
     stroke-linejoin="bevel"
     points="1337.04,534.31 1425.83,534.31"
     id="polyline362"
     transform="matrix(4.1878535,0,0,4.1878535,-4023.9984,-1439.3849)" />
  <polyline
     class="FretDiagram"
     fill="none"
     stroke="#000000"
     stroke-width="7.44"
     stroke-linejoin="bevel"
     points="1337.04,534.31 1425.83,534.31"
     id="polyline362-3"
     transform="matrix(4.1878535,0,0,4.1878535,-3348.2846,-1437.3863)" />
  <polyline
     class="FretDiagram"
     fill="none"
     stroke="#000000"
     stroke-width="1.98"
     stroke-linejoin="bevel"
     points="1338.03,537.038 1338.03,607.47"
     id="polyline364"
     transform="matrix(4.1878535,0,0,4.1878535,-4023.9984,-1439.3849)" />
  <polyline
     class="FretDiagram"
     fill="none"
     stroke="#000000"
     stroke-width="1.98"
     stroke-linejoin="bevel"
     points="1355.39,537.038 1355.39,607.47"
     id="polyline366"
     transform="matrix(4.1878535,0,0,4.1878535,-4023.9984,-1439.3849)" />
  <polyline
     class="FretDiagram"
     fill="none"
     stroke="#000000"
     stroke-width="1.98"
     stroke-linejoin="bevel"
     points="1372.75,537.038 1372.75,607.47"
     id="polyline368"
     transform="matrix(4.1878535,0,0,4.1878535,-4023.9984,-1439.3849)" />
  <polyline
     class="FretDiagram"
     fill="none"
     stroke="#000000"
     stroke-width="1.98"
     stroke-linejoin="bevel"
     points="1390.11,537.038 1390.11,607.47"
     id="polyline370"
     transform="matrix(4.1878535,0,0,4.1878535,-4023.9984,-1439.3849)" />
  <polyline
     class="FretDiagram"
     fill="none"
     stroke="#000000"
     stroke-width="1.98"
     stroke-linejoin="bevel"
     points="1407.47,537.038 1407.47,607.47"
     id="polyline372"
     transform="matrix(4.1878535,0,0,4.1878535,-4023.9984,-1439.3849)" />
  <polyline
     class="FretDiagram"
     fill="none"
     stroke="#000000"
     stroke-width="1.98"
     stroke-linejoin="bevel"
     points="1424.83,537.038 1424.83,607.47"
     id="polyline374"
     transform="matrix(4.1878535,0,0,4.1878535,-4023.9984,-1439.3849)" />
  <polyline
     class="FretDiagram"
     fill="none"
     stroke="#000000"
     stroke-width="1.98"
     stroke-linejoin="bevel"
     points="1338.03,554.398 1424.83,554.398"
     id="polyline376"
     transform="matrix(4.1878535,0,0,4.1878535,-4023.9984,-1439.3849)" />
  <polyline
     class="FretDiagram"
     fill="none"
     stroke="#000000"
     stroke-width="1.98"
     stroke-linejoin="bevel"
     points="1338.03,571.758 1424.83,571.758"
     id="polyline378"
     transform="matrix(4.1878535,0,0,4.1878535,-4023.9984,-1439.3849)" />
  <polyline
     class="FretDiagram"
     fill="none"
     stroke="#000000"
     stroke-width="1.98"
     stroke-linejoin="bevel"
     points="1338.03,589.118 1424.83,589.118"
     id="polyline380"
     transform="matrix(4.1878535,0,0,4.1878535,-4023.9984,-1439.3849)" />
  <polyline
     class="FretDiagram"
     fill="none"
     stroke="#000000"
     stroke-width="1.98"
     stroke-linejoin="bevel"
     points="1338.03,606.478 1424.83,606.478"
     id="polyline382"
     transform="matrix(4.1878535,0,0,4.1878535,-4023.9984,-1439.3849)" />
  <path
     class="FretDiagram"
     fill-rule="evenodd"
     d="m 1678.1412,918.7032 c 0,14.3436 -11.6007,25.9648 -25.9648,25.9648 -14.3227,0 -25.9648,-11.6212 -25.9648,-25.9648 0,-14.33904 11.6421,-25.96455 25.9648,-25.96455 14.3641,0 25.9648,11.62551 25.9648,25.96455"
     id="path384"
     style="stroke-width:4.18786" />
  <path
     class="FretDiagram"
     fill-rule="evenodd"
     d="m 1750.842,918.7032 c 0,14.3436 -11.6001,25.9648 -25.9646,25.9648 -14.3224,0 -25.9645,-11.6212 -25.9645,-25.9648 0,-14.33904 11.6421,-25.96455 25.9645,-25.96455 14.3645,0 25.9646,11.62551 25.9646,25.96455"
     id="path386"
     style="stroke-width:4.18786" />
  <path
     class="FretDiagram"
     fill="none"
     stroke="#000000"
     stroke-width="9.96708"
     stroke-linejoin="bevel"
     fill-rule="evenodd"
     d="m 1608.5807,732.79626 c 0,16.06032 -13.024,29.0802 -29.1055,29.0802 -16.0392,0 -29.0635,-13.01988 -29.0635,-29.0802 0,-16.06046 13.0243,-29.08061 29.0635,-29.08061 16.0815,0 29.1055,13.02015 29.1055,29.08061"
     id="path388" />
  <path
     class="FretDiagram"
     fill="none"
     stroke="#000000"
     stroke-width="9.96708"
     stroke-linejoin="bevel"
     fill-rule="evenodd"
     d="m 1826.6843,732.79626 c 0,16.06032 -13.0246,29.0802 -29.1057,29.0802 -16.0394,0 -29.0638,-13.01988 -29.0638,-29.0802 0,-16.06046 13.0244,-29.08061 29.0638,-29.08061 16.0811,0 29.1057,13.02015 29.1057,29.08061"
     id="path390" />
  <path
     class="FretDiagram"
     fill="none"
     stroke="#000000"
     stroke-width="9.96708"
     stroke-linejoin="bevel"
     fill-rule="evenodd"
     d="m 1899.3853,732.79626 c 0,16.06032 -13.0243,29.0802 -29.1053,29.0802 -16.0398,0 -29.0638,-13.01988 -29.0638,-29.0802 0,-16.06046 13.024,-29.08061 29.0638,-29.08061 16.081,0 29.1053,13.02015 29.1053,29.08061"
     id="path392" />
  <path
     class="FretDiagram"
     fill="none"
     stroke="#000000"
     stroke-width="9.96708"
     stroke-linejoin="bevel"
     fill-rule="evenodd"
     d="m 1972.0864,732.79626 c 0,16.06032 -13.0242,29.0802 -29.1057,29.0802 -16.0392,0 -29.0635,-13.01988 -29.0635,-29.0802 0,-16.06046 13.0243,-29.08061 29.0635,-29.08061 16.0815,0 29.1057,13.02015 29.1057,29.08061"
     id="path394" />
  <path
     class="FretDiagram"
     fill="none"
     stroke="#000000"
     stroke-width="9.96708"
     stroke-linejoin="bevel"
     fill-rule="evenodd"
     d="m 2645.31,732.2892 c 0,16.0603 -13.0242,29.0802 -29.1057,29.0802 -16.0392,0 -29.0635,-13.0199 -29.0635,-29.0802 0,-16.06048 13.0243,-29.08063 29.0635,-29.08063 16.0815,0 29.1057,13.02015 29.1057,29.08063"
     id="path394-6" />
  <path
     class="FretDiagram"
     fill="none"
     stroke="#000000"
     stroke-width="9.96708"
     stroke-linejoin="bevel"
     fill-rule="evenodd"
     d="m 2352.81,732.2892 c 0,16.0603 -13.0242,29.0802 -29.1057,29.0802 -16.0392,0 -29.0635,-13.0199 -29.0635,-29.0802 0,-16.06048 13.0243,-29.08063 29.0635,-29.08063 16.0815,0 29.1057,13.02015 29.1057,29.08063"
     id="path394-7" />
  <polyline
     class="FretDiagram"
     fill="none"
     stroke="#000000"
     stroke-width="1.98"
     stroke-linejoin="bevel"
     points="1637.28,537.038 1726.07,537.038"
     id="polyline396"
     transform="matrix(4.1878535,0,0,4.1878535,-4605.8489,-1439.3849)" />
  <polyline
     class="FretDiagram"
     fill="none"
     stroke="#000000"
     stroke-width="1.98"
     stroke-linejoin="bevel"
     points="1638.28,537.038 1638.28,607.47"
     id="polyline398"
     transform="matrix(4.1878535,0,0,4.1878535,-4605.8489,-1439.3849)" />
  <polyline
     class="FretDiagram"
     fill="none"
     stroke="#000000"
     stroke-width="1.98"
     stroke-linejoin="bevel"
     points="1655.64,537.038 1655.64,607.47"
     id="polyline400"
     transform="matrix(4.1878535,0,0,4.1878535,-4605.8489,-1439.3849)" />
  <polyline
     class="FretDiagram"
     fill="none"
     stroke="#000000"
     stroke-width="1.98"
     stroke-linejoin="bevel"
     points="1673,537.038 1673,607.47"
     id="polyline402"
     transform="matrix(4.1878535,0,0,4.1878535,-4605.8489,-1439.3849)" />
  <polyline
     class="FretDiagram"
     fill="none"
     stroke="#000000"
     stroke-width="1.98"
     stroke-linejoin="bevel"
     points="1690.36,537.038 1690.36,607.47"
     id="polyline404"
     transform="matrix(4.1878535,0,0,4.1878535,-4605.8489,-1439.3849)" />
  <polyline
     class="FretDiagram"
     fill="none"
     stroke="#000000"
     stroke-width="1.98"
     stroke-linejoin="bevel"
     points="1707.72,537.038 1707.72,607.47"
     id="polyline406"
     transform="matrix(4.1878535,0,0,4.1878535,-4605.8489,-1439.3849)" />
  <polyline
     class="FretDiagram"
     fill="none"
     stroke="#000000"
     stroke-width="1.98"
     stroke-linejoin="bevel"
     points="1725.08,537.038 1725.08,607.47"
     id="polyline408"
     transform="matrix(4.1878535,0,0,4.1878535,-4605.8489,-1439.3849)" />
  <polyline
     class="FretDiagram"
     fill="none"
     stroke="#000000"
     stroke-width="1.98"
     stroke-linejoin="bevel"
     points="1638.28,554.398 1725.08,554.398"
     id="polyline410"
     transform="matrix(4.1878535,0,0,4.1878535,-4605.8489,-1439.3849)" />
  <polyline
     class="FretDiagram"
     fill="none"
     stroke="#000000"
     stroke-width="1.98"
     stroke-linejoin="bevel"
     points="1638.28,571.758 1725.08,571.758"
     id="polyline412"
     transform="matrix(4.1878535,0,0,4.1878535,-4605.8489,-1439.3849)" />
  <polyline
     class="FretDiagram"
     fill="none"
     stroke="#000000"
     stroke-width="1.98"
     stroke-linejoin="bevel"
     points="1638.28,589.118 1725.08,589.118"
     id="polyline414"
     transform="matrix(4.1878535,0,0,4.1878535,-4605.8489,-1439.3849)" />
  <polyline
     class="FretDiagram"
     fill="none"
     stroke="#000000"
     stroke-width="1.98"
     stroke-linejoin="bevel"
     points="1638.28,606.478 1725.08,606.478"
     id="polyline416"
     transform="matrix(4.1878535,0,0,4.1878535,-4605.8489,-1439.3849)" />
  <path
     class="FretDiagram"
     fill-rule="evenodd"
     d="m 2426.2092,917.76928 c 0,14.3433 -11.6424,25.9647 -25.9648,25.9647 -14.3643,0 -25.9645,-11.6214 -25.9645,-25.9647 0,-14.3393 11.6002,-25.9648 25.9645,-25.9648 14.3224,0 25.9648,11.6255 25.9648,25.9648"
     id="path418"
     style="stroke-width:4.18786" />
  <path
     class="FretDiagram"
     fill-rule="evenodd"
     d="m 2498.9103,917.76928 c 0,14.3433 -11.6422,25.9647 -25.9649,25.9647 -14.3641,0 -25.9643,-11.6214 -25.9643,-25.9647 0,-14.3393 11.6002,-25.9648 25.9643,-25.9648 14.3227,0 25.9649,11.6255 25.9649,25.9648"
     id="path420"
     style="stroke-width:4.18786" />
  <path
     class="FretDiagram"
     fill-rule="evenodd"
     d="m 2571.6116,845.06808 c 0,14.3436 -11.6424,25.9648 -25.9648,25.9648 -14.3645,0 -25.965,-11.6212 -25.965,-25.9648 0,-14.33904 11.6005,-25.96455 25.965,-25.96455 14.3224,0 25.9648,11.62551 25.9648,25.96455"
     id="path422"
     style="stroke-width:4.18786" />
  <metadata
     id="metadata665">
    <rdf:RDF>
      <cc:Work
         rdf:about="">
        <dc:title>rythmique_2</dc:title>
      </cc:Work>
    </rdf:RDF>
  </metadata>
</svg>
