<?xml version="1.0" encoding="UTF-8" standalone="no"?>
<svg
   width="297mm"
   height="210mm"
   viewBox="0 0 4209.4487 2976.378"
   version="1.2"
   id="svg108"
   sodipodi:docname="le_diese.svg"
   inkscape:version="1.2.2 (b0a8486541, 2022-12-01)"
   xmlns:inkscape="http://www.inkscape.org/namespaces/inkscape"
   xmlns:sodipodi="http://sodipodi.sourceforge.net/DTD/sodipodi-0.dtd"
   xmlns="http://www.w3.org/2000/svg"
   xmlns:svg="http://www.w3.org/2000/svg"
   xmlns:rdf="http://www.w3.org/1999/02/22-rdf-syntax-ns#"
   xmlns:cc="http://creativecommons.org/ns#"
   xmlns:dc="http://purl.org/dc/elements/1.1/">
  <defs
     id="defs112" />
  <sodipodi:namedview
     id="namedview110"
     pagecolor="#ffffff"
     bordercolor="#000000"
     borderopacity="0.25"
     inkscape:showpageshadow="2"
     inkscape:pageopacity="0.0"
     inkscape:pagecheckerboard="0"
     inkscape:deskcolor="#d1d1d1"
     inkscape:document-units="mm"
     showgrid="false"
     inkscape:zoom="0.85899631"
     inkscape:cx="483.12198"
     inkscape:cy="552.97094"
     inkscape:window-width="1104"
     inkscape:window-height="552"
     inkscape:window-x="0"
     inkscape:window-y="32"
     inkscape:window-maximized="1"
     inkscape:current-layer="svg108" />
  <title
     id="title2">Partition sans titre</title>
  <desc
     id="desc4">Generated by MuseScore Studio 4.5.2</desc>
  <polyline
     class="StaffLines"
     fill="none"
     stroke="#000000"
     stroke-width="2.73"
     stroke-linejoin="bevel"
     points="336.598,634.198 2764.6,634.198"
     id="polyline6"
     transform="matrix(1.4109102,0,0,6.9261205,-144.04581,-3532.7582)" />
  <polyline
     class="StaffLines"
     fill="none"
     stroke="#000000"
     stroke-width="2.73"
     stroke-linejoin="bevel"
     points="336.598,658.998 2764.6,658.998"
     id="polyline8"
     transform="matrix(1.4109102,0,0,6.9261205,-144.04581,-3532.7582)" />
  <polyline
     class="StaffLines"
     fill="none"
     stroke="#000000"
     stroke-width="2.73"
     stroke-linejoin="bevel"
     points="336.598,683.798 2764.6,683.798"
     id="polyline10"
     transform="matrix(1.4109102,0,0,6.9261205,-144.04581,-3532.7582)" />
  <polyline
     class="StaffLines"
     fill="none"
     stroke="#000000"
     stroke-width="2.73"
     stroke-linejoin="bevel"
     points="336.598,708.598 2764.6,708.598"
     id="polyline12"
     transform="matrix(1.4109102,0,0,6.9261205,-144.04581,-3532.7582)" />
  <polyline
     class="StaffLines"
     fill="none"
     stroke="#000000"
     stroke-width="2.73"
     stroke-linejoin="bevel"
     points="336.598,733.398 2764.6,733.398"
     id="polyline14"
     transform="matrix(1.4109102,0,0,6.9261205,-144.04581,-3532.7582)" />
  <polyline
     class="StaffLines"
     fill="none"
     stroke="#000000"
     stroke-width="2.73"
     stroke-linejoin="bevel"
     points="212.598,1316.2 955.167,1316.2"
     id="polyline16"
     transform="matrix(4.5995902,0,0,2.8899251,-655.73015,-1534.2805)" />
  <polyline
     class="StaffLines"
     fill="none"
     stroke="#000000"
     stroke-width="2.73"
     stroke-linejoin="bevel"
     points="212.598,1341 955.167,1341"
     id="polyline18"
     transform="matrix(4.5995902,0,0,2.8899251,-655.73015,-1534.2805)" />
  <polyline
     class="StaffLines"
     fill="none"
     stroke="#000000"
     stroke-width="2.73"
     stroke-linejoin="bevel"
     points="212.598,1365.8 955.167,1365.8"
     id="polyline20"
     transform="matrix(4.5995902,0,0,2.8899251,-655.73015,-1534.2805)" />
  <polyline
     class="StaffLines"
     fill="none"
     stroke="#000000"
     stroke-width="2.73"
     stroke-linejoin="bevel"
     points="212.598,1390.6 955.167,1390.6"
     id="polyline22"
     transform="matrix(4.5995902,0,0,2.8899251,-655.73015,-1534.2805)" />
  <polyline
     class="StaffLines"
     fill="none"
     stroke="#000000"
     stroke-width="2.73"
     stroke-linejoin="bevel"
     points="212.598,1415.4 955.167,1415.4"
     id="polyline24"
     transform="matrix(4.5995902,0,0,2.8899251,-655.73015,-1534.2805)" />
  <polyline
     class="BarLine"
     fill="none"
     stroke="#000000"
     stroke-width="4.46"
     stroke-linejoin="bevel"
     points="930.119,1314.83 930.119,1416.76"
     id="polyline34"
     transform="matrix(3.4951861,0,0,2.8899251,482.34899,-1534.2805)" />
  <polyline
     class="BarLine"
     fill="none"
     stroke="#000000"
     stroke-width="4.46"
     stroke-linejoin="bevel"
     points="633.501,1314.83 633.501,1416.76"
     id="polyline38"
     transform="matrix(1.8751991,0,0,2.8899251,1539.8748,-1534.2805)" />
  <polyline
     class="BarLine"
     fill="none"
     stroke="#000000"
     stroke-width="4.46"
     stroke-linejoin="bevel"
     points="2762.37,632.834 2762.37,734.762"
     id="polyline40"
     transform="matrix(1.4109102,0,0,6.9261205,-144.04581,-3532.7582)" />
  <path
     class="Accidental"
     d="m 2800.5857,1027.9607 c 2.318,-0.6442 4.2197,-5.4753 4.2197,-9.6624 v -40.47253 c 0,-5.47531 -2.3179,-9.66163 -5.349,-9.66163 -0.3565,0 -0.3565,0 -0.7729,0 l -12.5408,4.83079 V 870.57806 h -10.6392 v 106.49603 l -33.8786,12.45321 v -96.94101 h -10.6388 V 993.6071 l -14.8594,5.4752 c -2.2582,0.751 -4.1602,5.4746 -4.1602,9.6617 v 1.3954 39.829 -1.3956 c 0,5.475 2.2583,9.6618 5.3493,9.6618 0.3566,0 0.7134,0 1.1294,0 l 12.5409,-4.8309 v 113.3668 l -14.8594,5.4751 c -2.2582,0.6448 -4.1602,5.4752 -4.1602,9.6622 v 39.8282 c 0,5.4752 2.2583,9.5551 5.3493,9.5551 0.3566,0 0.7134,0 1.1294,0 l 12.5409,-4.7236 v 102.3091 h 10.6388 v -106.4962 l 33.8786,-12.3459 v 96.9415 h 10.6392 v -101.0207 l 14.443,-4.8314 c 2.318,-0.7511 4.2197,-5.4746 4.2197,-9.6617 v -40.4729 c 0,-5.5825 -2.3179,-9.662 -5.349,-9.662 -0.3565,0 -0.3565,0 -0.7729,0 l -12.5408,4.8311 v -113.3668 l 14.443,-4.8309 m -58.9608,21.2562 33.8786,-12.3458 v 113.3667 l -33.8786,13.0973 v -114.1182"
     id="path42"
     style="stroke-width:5.1123" />
  <path
     class="Accidental"
     d="m 1938.7373,959.39896 c 2.3185,-0.64414 4.2203,-5.47522 4.2203,-9.66226 v -40.47257 c 0,-5.47537 -2.3179,-9.66168 -5.3494,-9.66168 -0.3566,0 -0.3566,0 -0.7726,0 l -12.5411,4.83084 V 802.0164 h -10.6392 v 106.49596 l -33.8785,12.4532 v -96.94093 h -10.639 v 101.02076 l -14.859,5.47526 c -2.2586,0.75101 -4.1602,5.47459 -4.1602,9.66168 v 1.39535 39.82902 -1.3956 c 0,5.4751 2.2584,9.662 5.349,9.662 0.3569,0 0.7134,0 1.1291,0 l 12.5411,-4.831 v 113.3667 l -14.859,5.4751 c -2.2586,0.6448 -4.1602,5.4752 -4.1602,9.6623 v 39.8282 c 0,5.4752 2.2584,9.555 5.349,9.555 0.3569,0 0.7134,0 1.1291,0 l 12.5411,-4.7235 v 102.3089 h 10.639 v -106.496 l 33.8785,-12.346 v 96.9416 h 10.6392 v -101.0208 l 14.4428,-4.8314 c 2.3185,-0.7509 4.2203,-5.4746 4.2203,-9.6617 v -40.4729 c 0,-5.5824 -2.3179,-9.6619 -5.3494,-9.6619 -0.3566,0 -0.3566,0 -0.7726,0 l -12.5411,4.831 V 964.22994 l 14.4428,-4.83098 m -58.9605,21.25624 33.8785,-12.34581 v 113.36671 l -33.8785,13.0973 V 980.6552"
     id="path44"
     style="stroke-width:5.1123" />
  <path
     class="Accidental"
     d="m 1254.3101,2346.8428 c 1.1336,-0.2688 2.0636,-2.2845 2.0636,-4.0316 v -16.8871 c 0,-2.2847 -1.1335,-4.0314 -2.6159,-4.0314 -0.1744,0 -0.1744,0 -0.3778,0 l -6.1329,2.0155 v -42.7333 h -5.2028 v 44.4356 l -16.5673,5.196 v -40.4488 h -5.2027 v 42.1509 l -7.2665,2.2846 c -1.1045,0.3136 -2.0345,2.2845 -2.0345,4.0314 v 0.5825 16.6184 -0.5823 c 0,2.2844 1.1045,4.0315 2.6158,4.0315 0.1744,0 0.3489,0 0.5524,0 l 6.1328,-2.0159 v 47.3024 l -7.2665,2.2846 c -1.1045,0.2686 -2.0345,2.2843 -2.0345,4.0314 v 16.6184 c 0,2.2844 1.1045,3.9867 2.6158,3.9867 0.1744,0 0.3489,0 0.5524,0 l 6.1328,-1.9709 v 42.6883 h 5.2027 v -44.4352 l 16.5673,-5.1514 v 40.4488 h 5.2028 v -42.1509 l 7.063,-2.0157 c 1.1336,-0.3137 2.0636,-2.2846 2.0636,-4.0316 v -16.8871 c 0,-2.3294 -1.1335,-4.0316 -2.6159,-4.0316 -0.1744,0 -0.1744,0 -0.3778,0 l -6.1329,2.0157 v -47.3023 l 7.063,-2.0156 m -28.8331,8.8692 16.5673,-5.1514 v 47.3023 l -16.5673,5.4649 v -47.6158"
     id="path46"
     style="stroke-width:2.30929" />
  <path
     class="Accidental"
     d="m 998.6326,787.63117 c 2.3182,-0.64483 4.2201,-5.47521 4.2201,-9.66229 V 737.4963 c 0,-5.47532 -2.3181,-9.66161 -5.34945,-9.66161 -0.35659,0 -0.35659,0 -0.77255,0 l -12.54107,4.83078 V 630.24861 H 973.55047 V 736.7446 L 939.672,749.19777 v -96.94093 h -10.63908 v 101.02078 l -14.859,5.47525 c -2.25855,0.75099 -4.16051,5.47459 -4.16051,9.66163 v 1.39539 39.82902 -1.39559 c 0,5.47508 2.25855,9.66192 5.34925,9.66192 0.35661,0 0.71321,0 1.12928,0 l 12.54098,-4.83097 v 113.36676 l -14.859,5.47508 c -2.25855,0.64414 -4.16051,5.47525 -4.16051,9.66226 v 39.82823 c 0,5.4752 2.25855,9.555 5.34925,9.555 0.35661,0 0.71321,0 1.12928,0 l 12.54098,-4.7236 v 102.3089 H 939.672 V 982.051 l 33.87847,-12.34595 v 96.94155 h 10.63916 V 965.62588 l 14.44297,-4.83141 c 2.3182,-0.75102 4.2201,-5.47465 4.2201,-9.66168 v -40.47294 c 0,-5.58247 -2.3181,-9.66195 -5.34945,-9.66195 -0.35659,0 -0.35659,0 -0.77255,0 l -12.54107,4.83094 v -113.3667 l 14.44297,-4.83097 m -58.9606,21.25628 33.87847,-12.34582 v 113.3667 L 939.672,923.00567 V 808.88745"
     id="path48"
     style="stroke-width:5.1123" />
  <polyline
     class="Stem"
     fill="none"
     stroke="#000000"
     stroke-width="2.48"
     stroke-linejoin="bevel"
     points="554.761,638.365 554.761,720.998"
     id="polyline50"
     transform="matrix(3.8345839,0,0,6.9261205,-1095.9532,-3532.7582)" />
  <polyline
     class="Stem"
     fill="none"
     stroke="#000000"
     stroke-width="2.48"
     stroke-linejoin="bevel"
     points="667.973,1357.56 667.973,1434"
     id="polyline52"
     transform="matrix(1.8751991,0,0,2.8899251,1539.8748,-1534.2805)" />
  <polyline
     class="Stem"
     fill="none"
     stroke="#000000"
     stroke-width="2.48"
     stroke-linejoin="bevel"
     points="563.084,1357.56 563.084,1434"
     id="polyline54"
     transform="matrix(1.8751991,0,0,2.8899251,1150.036,-1534.2805)" />
  <polyline
     class="Stem"
     fill="none"
     stroke="#000000"
     stroke-width="2.48"
     stroke-linejoin="bevel"
     points="496.148,1357.56 496.148,1434"
     id="polyline56"
     transform="matrix(1.8751991,0,0,2.8899251,798.23019,-1534.2805)" />
  <polyline
     class="Stem"
     fill="none"
     stroke="#000000"
     stroke-width="2.48"
     stroke-linejoin="bevel"
     points="429.211,1357.56 429.211,1434"
     id="polyline58"
     transform="matrix(1.8751991,0,0,2.8899251,465.44097,-1534.2805)" />
  <polyline
     class="Stem"
     fill="none"
     stroke="#000000"
     stroke-width="2.48"
     stroke-linejoin="bevel"
     points="357.911,1357.56 357.911,1434"
     id="polyline60"
     transform="matrix(1.8751991,0,0,2.8899251,85.110418,-1534.2805)" />
  <polyline
     class="Stem"
     fill="none"
     stroke="#000000"
     stroke-width="2.48"
     stroke-linejoin="bevel"
     points="1815.68,675.565 1815.68,751.998"
     id="polyline62"
     transform="matrix(3.8345839,0,0,6.9261205,-4129.1227,-3532.7582)" />
  <polyline
     class="Stem"
     fill="none"
     stroke="#000000"
     stroke-width="2.48"
     stroke-linejoin="bevel"
     points="1185.22,663.165 1185.22,745.798"
     id="polyline64"
     transform="matrix(3.8345839,0,0,6.9261205,-2554.2078,-3532.7582)" />
  <path
     class="Note"
     d="m 753.93954,2388.9937 c 0,12.3184 5.75499,26.07 20.83997,26.07 19.32876,0 39.61644,-24.3677 39.61644,-49.5867 0,-16.9321 -9.30099,-26.3836 -20.83999,-26.3836 -18.04967,0 -39.61642,23.5168 -39.61642,49.9003"
     id="path66"
     style="stroke-width:2.30929" />
  <path
     class="Note"
     d="m 1026.5695,888.65211 c 0,29.52259 11.7684,62.48068 42.6156,62.48068 39.5252,0 81.0113,-58.40122 81.0113,-118.84201 0,-40.58012 -19.0195,-63.23185 -42.6156,-63.23185 -36.9096,0 -81.0113,56.36115 -81.0113,119.59318"
     id="path68"
     style="stroke-width:5.1123" />
  <path
     class="Note"
     d="m 1267.9718,2388.9937 c 0,12.3184 5.755,26.07 20.84,26.07 19.3287,0 39.6165,-24.3677 39.6165,-49.5867 0,-16.9321 -9.301,-26.3836 -20.84,-26.3836 -18.0497,0 -39.6165,23.5168 -39.6165,49.9003"
     id="path70"
     style="stroke-width:2.30929" />
  <path
     class="Note"
     d="m 2790.1318,2388.9937 c 0,12.3184 5.7551,26.07 20.84,26.07 19.3288,0 39.6165,-24.3677 39.6165,-49.5867 0,-16.9321 -9.301,-26.3836 -20.8401,-26.3836 -18.0496,0 -39.6164,23.5168 -39.6164,49.9003"
     id="path72"
     style="stroke-width:2.30929" />
  <path
     class="Note"
     d="m 2909.5107,1026.7106 c -36.9097,0 -81.0111,55.717 -81.0111,119.5932 0,29.5226 11.768,62.4807 42.6154,62.4807 39.5251,0 81.0115,-58.4012 81.0115,-118.842 0,-40.5801 -19.0195,-63.2319 -42.6158,-63.2319 m -10.2823,120.9888 c -1.1294,1.2883 -28.8857,28.7711 -42.1996,28.7711 -12.541,0 -15.2155,-18.465 -15.2155,-24.6916 0,-28.8785 38.0388,-62.4806 39.5845,-63.8761 1.4858,-1.3956 28.529,-28.8785 42.1996,-28.8785 9.1529,0 15.2153,9.6619 15.2153,24.6916 0,29.6299 -38.3954,62.5879 -39.5843,63.9835"
     id="path74"
     style="stroke-width:5.1123" />
  <path
     class="Note"
     d="m 1985.8627,1060.4199 c 0,29.5226 11.7685,62.4806 42.6158,62.4806 39.5248,0 81.0113,-58.4011 81.0113,-118.842 0,-40.58006 -19.0198,-63.2318 -42.6159,-63.2318 -36.9098,0 -81.0112,56.3612 -81.0112,119.5932"
     id="path76"
     style="stroke-width:5.1123" />
  <path
     class="Note"
     d="m 1726.2813,2388.9937 c 0,12.3184 5.7549,26.07 20.8399,26.07 19.3288,0 39.6164,-24.3677 39.6164,-49.5867 0,-16.9321 -9.301,-26.3836 -20.84,-26.3836 -18.0497,0 -39.6163,23.5168 -39.6163,49.9003"
     id="path78"
     style="stroke-width:2.30929" />
  <path
     class="Note"
     d="m 2203.6052,2388.9937 c 0,12.3184 5.7551,26.07 20.8401,26.07 19.3287,0 39.6164,-24.3677 39.6164,-49.5867 0,-16.9321 -9.301,-26.3836 -20.84,-26.3836 -18.0497,0 -39.6165,23.5168 -39.6165,49.9003"
     id="path80"
     style="stroke-width:2.30929" />
  <path
     class="Clef"
     d="m 435.69278,2690.0085 c 0,-10.6163 -6.30718,-15.1852 -12.44006,-15.1852 -7.81859,0 -15.4629,7.4358 -15.4629,20.3363 0,5.4648 1.30791,9.4964 3.92392,13.4831 -4.85402,2.8666 -9.67897,8.6003 -9.67897,17.5143 0,9.4515 5.58058,15.7674 13.77715,15.7674 10.0276,0 17.09056,-8.6004 17.09056,-20.9634 0,-6.5848 -1.86019,-12.0049 -5.20277,-15.7676 5.40629,-3.7178 7.99307,-8.2868 7.99307,-15.1849 m -18.60197,45.8687 c -4.06918,0 -6.85949,-3.9866 -6.85949,-10.0338 0,-5.7337 1.65672,-10.3026 4.82482,-13.1695 0.75578,0.5825 0.9301,0.5825 1.48238,1.1198 2.23802,1.7471 2.23802,1.7471 2.616,2.3296 3.51688,3.1355 5.0283,6.0023 5.0283,10.0337 0,5.4199 -2.99381,9.7202 -7.09201,9.7202 m 7.09201,-34.4016 c -2.79031,-2.2846 -3.54609,-2.8667 -4.0982,-3.4492 l -0.37798,-0.2688 c -2.7903,-2.598 -3.7204,-4.6138 -3.7204,-8.0179 0,-5.1962 2.61598,-8.914 6.33637,-8.914 3.51691,0 5.75491,3.4489 5.75491,9.4513 0,4.6139 -1.10442,7.7494 -3.8947,11.1986 m 51.88203,-217.6085 c 0,-43.2708 -19.9099,-72.5212 -47.05723,-72.5212 -1.86018,-17.2009 -3.54591,-34.133 -5.20261,-50.1692 19.53207,-31.8482 33.28004,-67.9521 33.28004,-113.2387 0,-26.1147 -5.20277,-47.3023 -8.37089,-57.6487 -4.44698,-14.6035 -9.85327,-24.6373 -13.02138,-24.6373 -1.27889,0 -7.23727,3.4488 -13.19585,14.6035 -12.09129,21.8137 -15.4337,58.186 -15.4337,82.2852 0,15.4987 0.9301,29.5193 4.0982,61.95 -0.2035,0 -9.88229,15.1852 -13.77717,20.3363 -16.9451,24.0992 -40.37206,59.0383 -40.37206,116.1057 0,53.8869 30.31545,96.038 64.93261,96.038 5.37708,0 10.4054,-0.851 14.88159,-2.0159 3.34241,27.2797 5.58059,47.6159 5.58059,62.8011 0,29.8325 -10.05678,45.6002 -28.83306,45.6002 -4.4762,0 -8.37089,-1.4334 -8.74887,-1.7471 -0.17439,0 -0.55212,-0.2688 -0.55212,-0.5374 0,-0.5823 0.3778,-0.896 0.9301,-1.1646 8.74869,-2.0159 17.46836,-13.7518 17.46836,-31.8037 0,-15.4988 -7.61526,-31.8486 -21.56673,-31.8486 -13.02139,0 -21.2178,16.3498 -21.2178,35.2528 0,18.9478 9.30098,43.8979 34.41365,43.8979 24.0081,0 35.72157,-20.9633 35.72157,-57.6495 0,-11.1537 -1.10441,-24.0542 -2.96462,-40.404 -0.55229,-5.7337 -1.48239,-14.6477 -2.79029,-25.5326 18.22401,-9.4513 31.79767,-38.4329 31.79767,-67.9522 M 418.77654,2248.789 c 1.86019,-11.4672 10.23108,-41.5688 19.91006,-41.5688 2.7903,0 7.44077,13.7518 7.44077,33.8195 0,29.5193 -14.50377,51.916 -27.35083,71.6702 -1.10442,-11.4673 -2.03452,-22.9346 -2.03452,-34.6705 0,-10.8848 0.7266,-20.3812 2.03452,-29.2504 m 5.5806,296.4456 c -26.59488,0 -49.2952,-28.6681 -49.2952,-71.9836 0,-34.9393 15.98611,-66.2052 32.37909,-88.2887 3.13908,-4.0314 6.1329,-8.0181 8.9232,-12.3183 1.65668,15.454 2.96459,28.6681 4.2725,40.7176 -16.9451,7.4358 -28.45507,35.2526 -28.45507,61.905 0,20.3814 10.23108,47.8847 25.11267,47.8847 1.48221,0 3.16809,-1.1646 3.16809,-4.0314 0,-2.2845 -1.68588,-3.9868 -4.09819,-6.2712 -7.2665,-6.6296 -11.36471,-14.3339 -11.36471,-28.1304 0,-17.4696 8.57441,-31.535 19.35762,-35.5216 l 10.78336,94.0222 c -3.72039,1.1646 -7.06298,2.0157 -10.78336,2.0157 m 18.60197,-5.4646 c -3.89471,-34.0882 -8.92301,-79.6884 -10.2311,-92.3204 18.77645,0 26.79855,20.0677 28.45524,33.8641 0.20352,2.2848 0.55229,5.4203 0.55229,8.8692 0,20.6501 -5.58059,41.3 -18.77643,49.5871"
     id="path82"
     style="stroke-width:2.30929" />
  <path
     class="TimeSig"
     d="m 526.9293,2381.6572 v 21.1875 h -15.43387 c -1.30792,0 -2.61581,1.7469 -2.61581,4.0315 v 5.4648 c 0,2.2844 1.30789,3.9867 2.61581,3.9867 h 56.35821 c 1.5114,0 2.61582,-1.7023 2.61582,-3.9867 v -5.4648 c 0,-2.2846 -1.10442,-4.0315 -2.61582,-4.0315 h -16.74179 v -21.1875 h 16.74179 c 1.5114,0 2.61582,-2.0157 2.61582,-4.3003 v -5.4649 c 0,-2.0157 -1.10442,-3.9866 -2.61582,-3.9866 h -16.74179 v -45.6 c 0,-1.7023 -0.55228,-3.1357 -1.27888,-3.718 l -2.238,-1.7469 c -0.37797,-0.2688 -0.55229,-0.2688 -0.93009,-0.2688 -0.20352,0 -0.20352,0 -0.37798,0 -0.55212,0 -1.30793,0.2688 -1.68574,0.8511 l -16.91624,23.7856 c -0.55212,0.8957 -0.75562,2.0157 -0.75562,3.1803 v 23.5167 h -21.56672 c 0,0 20.84012,-34.4016 42.78452,-79.7332 0.75577,-1.4334 0.9301,-2.8668 0.9301,-3.9864 0,-1.4335 -0.37782,-2.598 -0.55213,-2.8669 l -4.09838,-6.316 c -0.55211,-0.5821 -1.10441,-1.1647 -1.86019,-1.1647 -1.10442,0 -26.24609,0 -27.7285,0 -1.30789,0 -2.23799,1.747 -2.41247,3.4493 0,0 -0.9301,21.2322 -5.75498,44.4354 -4.85396,23.2481 -10.43456,37.5821 -15.25945,48.1534 0,0 -0.55224,1.4335 -0.55224,3.1805 0,0.5823 0,1.12 0.1744,1.7021 0.55225,2.0157 1.86019,5.1514 1.86019,5.1514 0,0 0.37786,1.7469 2.03459,1.7469 h 32.00126"
     id="path86"
     style="stroke-width:2.30929" />
  <path
     class="TimeSig"
     d="m 527.1812,2518.4133 v 21.1877 h -15.43386 c -1.30792,0 -2.61581,1.7469 -2.61581,4.0313 v 5.465 c 0,2.2844 1.30789,3.9867 2.61581,3.9867 h 56.3582 c 1.51141,0 2.61583,-1.7023 2.61583,-3.9867 v -5.465 c 0,-2.2844 -1.10442,-4.0313 -2.61583,-4.0313 h -16.74178 v -21.1877 h 16.74178 c 1.51141,0 2.61583,-2.0155 2.61583,-4.3001 v -5.4648 c 0,-2.0158 -1.10442,-3.9867 -2.61583,-3.9867 h -16.74178 v -45.6002 c 0,-1.7021 -0.55228,-3.1355 -1.27889,-3.7178 l -2.23799,-1.7469 c -0.37797,-0.2688 -0.55229,-0.2688 -0.9301,-0.2688 -0.20351,0 -0.20351,0 -0.37797,0 -0.55213,0 -1.30793,0.2688 -1.68574,0.8511 l -16.91624,23.7854 c -0.55213,0.8959 -0.75563,2.0159 -0.75563,3.1805 v 23.5167 h -21.56672 c 0,0 20.84013,-34.4016 42.78453,-79.7332 0.75576,-1.4334 0.93009,-2.8668 0.93009,-3.9866 0,-1.4332 -0.37782,-2.5978 -0.55212,-2.8667 l -4.09838,-6.316 c -0.55211,-0.5821 -1.10442,-1.1647 -1.8602,-1.1647 -1.10441,0 -26.24609,0 -27.72849,0 -1.30789,0 -2.23799,1.747 -2.41247,3.4493 0,0 -0.9301,21.2322 -5.75499,44.4354 -4.85395,23.2481 -10.43456,37.5822 -15.25944,48.1534 0,0 -0.55224,1.4335 -0.55224,3.1804 0,0.5824 0,1.1201 0.17439,1.7022 0.55225,2.0157 1.8602,5.1514 1.8602,5.1514 0,0 0.37786,1.7467 2.03459,1.7467 h 32.00125"
     id="path88"
     style="stroke-width:2.30929" />
  <path
     class="Rest"
     d="m 2982.2099,2409.9124 c 0,4.0315 0,4.0315 2.6159,4.0315 h 55.2537 c 2.5867,0 2.5867,0 2.5867,-4.0315 v -30.9525 c 0,-4.0314 0,-4.0314 -2.5867,-4.0314 h -55.2537 c -2.6159,0 -2.6159,0 -2.6159,4.0314 v 30.9525"
     id="path92"
     style="stroke-width:2.30929" />
  <path
     class="StaffText"
     d="m 729.12178,2205.6671 h 31.49772 c 8.35026,0 14.73907,-2.0229 19.68959,-6.3578 9.46413,-8.2073 14.73906,-24.7088 14.73906,-46.3834 0,-19.9404 -4.68799,-35.517 -13.33266,-44.1867 -5.1568,-5.0575 -12.10066,-7.4272 -22.79492,-7.4272 h -29.79879 v 6.8202 h 1.78894 c 5.24306,0.1442 7.03201,0.607 7.76332,2.0518 0.55694,1.2427 0.55694,1.5606 0.55694,8.9298 v 68.7803 c 0,7.3981 0,7.6584 -0.55694,8.9878 -0.73131,1.4447 -2.52026,1.8495 -7.76332,2.0229 h -1.78894 v 6.7623 m 25.96026,-6.7623 c -4.77614,0 -5.33307,-0.8959 -5.33307,-7.9473 v -74.7334 c 0,-7.0804 0.64507,-8.0919 5.33307,-8.0919 h 4.89427 c 16.02545,0 22.67678,13.4093 22.67678,45.4007 0,32.3672 -6.00625,45.3719 -21.18412,45.3719 h -6.38693 m 68.03409,-62.7115 c -11.51372,0 -20.42091,15.7502 -20.42091,35.9796 0,19.767 8.99534,35.6617 20.24651,35.6617 11.2512,0 20.24653,-15.8947 20.24653,-35.8351 0,-19.796 -8.99533,-35.8062 -20.07213,-35.8062 m 0,6.1845 c 6.5632,0 10.22734,10.5481 10.22734,29.6217 0,19.218 -3.66414,29.6218 -10.40174,29.6218 -6.73945,0 -10.40172,-10.4038 -10.40172,-29.4484 0,-19.6805 3.54414,-29.7951 10.57612,-29.7951"
     id="path94"
     style="stroke-width:2.32792" />
  <path
     class="StaffText"
     d="m 1836.3181,459.53051 h 4.3041 c 7.4549,0.34173 10.4132,3.78775 11.2267,13.04668 l 0.3698,4.28773 c 0.9023,9.52156 3.6239,13.38843 9.4813,13.38843 6.0496,0 8.9339,-4.62947 9.1706,-14.73013 h -3.121 c -0.281,5.81293 -1.1833,8.3381 -3.1654,8.3381 -1.7158,0 -2.4553,-1.44608 -3.6977,-7.23376 l -1.1834,-5.31295 c -1.6418,-7.73374 -4.5262,-11.28412 -10.28,-12.96757 10.6498,-1.68345 15.738,-6.55027 15.738,-15.07187 0,-9.60236 -7.0998,-15.07355 -19.5246,-15.07355 h -25.5889 v 3.97292 h 1.3459 c 4.2008,0.0791 5.606,0.34174 6.2124,1.18347 0.4437,0.73566 0.4437,0.92084 0.4437,5.20857 v 40.16528 c 0,4.20861 0,4.36686 -0.4437,5.20857 -0.6064,0.84173 -2.0116,1.10434 -6.2124,1.10434 h -1.3459 v 3.946 h 24.2725 v -3.946 h -1.346 c -4.2007,0 -5.6207,-0.26261 -6.2123,-1.10434 -0.4437,-0.84171 -0.4437,-0.99996 -0.4437,-5.20857 v -19.20135 m 0,-3.94599 V 437.0397 c -0.1332,-4.62947 0.2365,-4.94428 5.1029,-4.86516 h 4.0085 c 7.3217,0 10.6497,3.52514 10.6497,11.17807 0,8.86501 -4.1563,12.23191 -11.6259,12.23191 h -8.1352 m 49.8319,-11.62587 h 3.0175 l 11.7739,-8.18154 c 1.1685,-0.84172 1.9081,-2.1043 1.9081,-3.26083 0,-1.68344 -1.1094,-2.94602 -2.5885,-2.94602 -1.1685,0 -1.9081,0.49998 -3.6979,2.60428 l -10.4131,11.78411 m 20.7671,26.09337 c 0.074,-12.62582 -6.2124,-21.54302 -15.2203,-21.54302 -9.4813,0 -16.5811,9.33806 -16.5811,21.96389 0,11.86322 6.73,19.78046 16.7142,19.78046 7.0998,0 12.0697,-3.94599 15.0872,-11.94234 l -2.5885,-1.60433 c -3.0175,6.47115 -6.1384,8.99632 -11.0935,8.99632 -3.7571,0 -6.5083,-1.76257 -8.4311,-5.55031 -1.3164,-2.52517 -1.9229,-5.47119 -1.8489,-10.10067 h 23.962 m -23.888,-3.6295 c 0,-5.89205 2.3813,-14.30927 8.5937,-14.30927 4.4374,0 7.3957,4.47123 7.3957,11.28412 0,2.36692 -0.6656,3.02515 -3.0471,3.02515 h -12.9423 m 75.1104,23.14735 12.8685,-0.5791 v -3.62951 h -1.3313 c -4.2155,-0.23736 -4.5854,-0.73734 -4.5854,-6.12942 v -52.29281 l -14.4807,0.94778 v 3.60425 h 4.3339 c 2.8252,0.0774 3.195,0.60436 3.195,4.20862 v 19.04311 c -2.7216,-4.31298 -5.9165,-6.23379 -10.2208,-6.23379 -8.3423,0 -14.6878,9.17982 -14.6878,21.28041 0,11.9676 6.1236,20.46394 14.6878,20.46394 4.674,0 7.8689,-2.26255 10.2208,-7.31288 v 6.6294 m -8.7417,-36.51052 c 3.0618,0 5.9165,2.52517 7.2625,6.39203 0.9762,2.52517 1.4052,5.97118 1.4052,10.10066 0,9.83804 -3.3872,16.15096 -8.7269,16.15096 -5.2509,0 -8.3423,-5.55031 -8.3423,-14.88837 0,-5.05034 0.429,-8.83808 1.3756,-11.62587 1.2721,-3.78775 4.0084,-6.12941 7.0259,-6.12941 m 34.8335,-24.25169 c -2.3813,0 -4.3042,2.18342 -4.3042,4.86515 0,2.71034 1.9229,4.89377 4.2303,4.89377 2.4258,0 4.3486,-2.18343 4.3486,-4.89377 0,-2.68173 -1.9228,-4.86515 -4.2747,-4.86515 m 3.4612,20.96392 -13.889,0.92085 v 3.6295 h 3.7717 c 2.7957,0.0791 3.1654,0.5791 3.1654,4.20861 v 24.06819 c -0.074,1.26259 -0.1331,1.76257 -0.4437,2.18343 -0.5029,0.76259 -1.9081,1.10433 -5.103,1.18346 h -0.5029 v 3.02515 h 19.1547 v -3.02515 h -0.5324 c -4.9404,-0.1835 -5.6208,-0.60436 -5.6208,-3.62951 v -32.56453 m 32.896,-5.81293 -10.354,-11.78411 c -1.8489,-2.1043 -2.5885,-2.60428 -3.6977,-2.60428 -1.4793,0 -2.5885,1.26258 -2.5885,2.94602 0,1.15653 0.7395,2.41911 1.8488,3.26083 l 11.7592,8.18154 h 3.0322 m 9.5404,26.09337 c 0.074,-12.62582 -6.2124,-21.54302 -15.2351,-21.54302 -9.4664,0 -16.5663,9.33806 -16.5663,21.96389 0,11.86322 6.73,19.78046 16.7142,19.78046 7.085,0 12.055,-3.94599 15.0872,-11.94234 l -2.5885,-1.60433 c -3.0322,6.47115 -6.1532,8.99632 -11.0935,8.99632 -3.7717,0 -6.5229,-1.76257 -8.431,-5.55031 -1.3164,-2.52517 -1.923,-5.47119 -1.849,-10.10067 h 23.962 m -23.9028,-3.6295 c 0,-5.89205 2.3815,-14.30927 8.6086,-14.30927 4.4374,0 7.3956,4.47123 7.3956,11.28412 0,2.36692 -0.6804,3.02515 -3.0618,3.02515 h -12.9424 m 55.3196,-17.57178 h -2.5885 l -2.1595,3.02514 c -2.6477,-2.36692 -5.3101,-3.36688 -9.0079,-3.36688 -6.5231,0 -10.7978,4.78771 -10.7978,12.20496 0,7.91724 4.5114,9.91717 10.428,11.52149 l 3.9049,1.02521 c 5.8425,1.57908 7.9281,3.26252 7.9281,6.62941 0,3.97125 -3.0322,6.73377 -7.3217,6.73377 -6.2863,0 -10.7237,-4.5251 -12.5135,-12.94231 h -2.9582 v 15.88834 h 2.5885 l 2.5885,-3.44601 c 3.0322,2.78779 6.3602,4.12949 10.1468,4.12949 7.2329,0 12.0402,-5.12945 12.0402,-12.96757 0,-3.70862 -1.0354,-6.55027 -3.0915,-8.49634 -1.7749,-1.76256 -3.254,-2.44604 -7.7654,-3.52513 l -3.6978,-0.94609 c -4.0676,-0.99996 -4.0676,-0.99996 -5.4137,-1.84169 -1.6122,-0.84172 -2.5885,-2.60429 -2.5885,-4.47123 0,-3.44601 2.8252,-5.78768 6.8928,-5.78768 6.0497,0 9.0079,4.86684 10.7977,10.75889 h 2.5885 v -14.12577 m 39.7739,21.20128 c 0.059,-12.62582 -6.2272,-21.54302 -15.2351,-21.54302 -9.4813,0 -16.5663,9.33806 -16.5663,21.96389 0,11.86322 6.7153,19.78046 16.6995,19.78046 7.0998,0 12.0697,-3.94599 15.1019,-11.94234 l -2.5885,-1.60433 c -3.0322,6.47115 -6.1532,8.99632 -11.0935,8.99632 -3.7717,0 -6.5229,-1.76257 -8.4459,-5.55031 -1.3164,-2.52517 -1.9081,-5.47119 -1.8489,-10.10067 h 23.9768 m -23.9028,-3.6295 c 0,-5.89205 2.3815,-14.30927 8.5937,-14.30927 4.4375,0 7.3958,4.47123 7.3958,11.28412 0,2.36692 -0.6657,3.02515 -3.0471,3.02515 h -12.9424"
     id="path96"
     style="stroke-width:1.57799" />
  <path
     class="StaffText"
     d="m 1525.1855,1963.6255 h 31.4978 c 8.3502,0 14.7371,-2.052 19.6895,-6.3868 9.4642,-8.2074 14.7372,-24.6801 14.7372,-46.3545 0,-19.9694 -4.6879,-35.5461 -13.3307,-44.2158 -5.1569,-5.0572 -12.1007,-7.3982 -22.795,-7.3982 h -29.7988 v 6.8203 h 1.7871 c 5.245,0.115 7.032,0.5779 7.7652,2.023 0.5569,1.2713 0.5569,1.5892 0.5569,8.9297 v 68.7803 c 0,7.3982 0,7.6873 -0.5569,8.9877 -0.7332,1.4449 -2.5202,1.8495 -7.7652,2.0229 h -1.7871 v 6.7914 m 25.9603,-6.7914 c -4.7761,0 -5.333,-0.8959 -5.333,-7.9473 v -74.7336 c 0,-7.0802 0.645,-8.0627 5.333,-8.0627 h 4.8924 c 16.0273,0 22.6786,13.4093 22.6786,45.3719 0,32.367 -6.0062,45.3717 -21.184,45.3717 h -6.387 m 68.0341,-62.7113 c -11.5156,0 -20.4228,15.75 -20.4228,35.9796 0,19.7958 8.9953,35.6905 20.2465,35.6905 11.2512,0 20.2465,-15.8947 20.2465,-35.8641 0,-19.7669 -8.9953,-35.806 -20.0702,-35.806 m 0,6.1845 c 6.5631,0 10.2255,10.5769 10.2255,29.6215 0,19.2471 -3.6624,29.6218 -10.4018,29.6218 -6.7395,0 -10.4017,-10.3747 -10.4017,-29.4482 0,-19.6805 3.546,-29.7951 10.578,-29.7951 m 84.9108,64.3006 16.3199,-0.9824 v -6.2424 h -1.6989 c -5.333,-0.4044 -5.8018,-1.2714 -5.8018,-10.5193 v -89.7611 l -18.3714,1.6185 v 6.1843 h 5.5093 c 3.5741,0.1442 4.0429,1.0405 4.0429,7.225 v 32.6849 c -3.4578,-7.3981 -7.5007,-10.6926 -12.9501,-10.6926 -10.578,0 -18.6357,15.75 -18.6357,36.5286 0,20.5472 7.7652,35.1415 18.6357,35.1415 5.9182,0 9.9611,-3.9015 12.9501,-12.5712 v 11.3862 m -11.0748,-62.6823 c 3.8666,0 7.5008,4.3349 9.1997,10.9816 1.2301,4.3349 1.787,10.2593 1.787,17.3396 0,16.8771 -4.3073,27.7145 -11.0749,27.7145 -6.6513,0 -10.5779,-9.508 -10.5779,-25.5471 0,-8.6697 0.5569,-15.1721 1.7589,-19.9693 1.6108,-6.5023 5.0687,-10.5193 8.9072,-10.5193 m 44.1552,-41.615 c -3.019,0 -5.4492,3.728 -5.4492,8.3518 0,4.6529 2.4302,8.3808 5.3611,8.3808 3.0773,0 5.5075,-3.7279 5.5075,-8.3808 0,-4.6238 -2.4302,-8.3518 -5.4194,-8.3518 m 4.3955,35.9797 -17.6099,1.5893 v 6.2135 h 4.776 c 3.5442,0.1442 4.013,1.0113 4.013,7.2246 v 41.326 c -0.086,2.1675 -0.1744,3.0344 -0.5551,3.7568 -0.6451,1.3005 -2.4321,1.8785 -6.4769,2.0231 h -0.6432 v 5.2019 h 24.2895 v -5.2019 h -0.6751 c -6.2688,-0.3179 -7.1183,-1.0405 -7.1183,-6.2424 v -55.8909 m 41.6932,-9.9703 -13.1264,-20.2295 c -2.344,-3.6124 -3.2815,-4.4793 -4.688,-4.4793 -1.8751,0 -3.2816,2.1673 -3.2816,5.0572 0,1.994 0.9376,4.1615 2.344,5.6064 l 14.9135,14.0452 h 3.8385 m 12.1006,44.7937 c 0.089,-21.6744 -7.8814,-36.9909 -19.3088,-36.9909 -12.0126,0 -21.008,16.0391 -21.008,37.7134 0,20.345 8.5267,33.9567 21.1842,33.9567 8.9953,0 15.2941,-6.7915 19.1326,-20.5185 l -3.2816,-2.7455 c -3.8384,11.0974 -7.7932,15.4324 -14.064,15.4324 -4.776,0 -8.262,-3.0057 -10.6942,-9.508 -1.6708,-4.3349 -2.4321,-9.3923 -2.344,-17.3396 h 30.3838 m -30.2957,-6.2422 c 0,-10.1148 3.0173,-24.5642 10.8988,-24.5642 5.6256,0 9.3759,7.6871 9.3759,19.3624 0,4.0748 -0.8494,5.2018 -3.8666,5.2018 h -16.4081 m 70.1137,-30.1709 h -3.2815 l -2.7247,5.2019 c -3.3697,-4.0747 -6.7375,-5.7797 -11.4256,-5.7797 -8.264,0 -13.6833,8.2072 -13.6833,20.9518 0,13.5827 5.7137,17.0217 13.2145,19.767 l 4.9505,1.763 c 7.4127,2.7165 10.0511,5.6064 10.0511,11.3864 0,6.8202 -3.8386,11.5596 -9.2897,11.5596 -7.9696,0 -13.5952,-7.7738 -15.8511,-22.2236 h -3.7504 v 27.2809 h 3.2816 l 3.2816,-5.9242 c 3.8385,4.7972 8.0577,7.1092 12.8638,7.1092 9.1698,0 15.2642,-8.8142 15.2642,-22.2814 0,-6.3577 -1.3183,-11.2418 -3.9249,-14.5651 -2.2576,-3.0346 -4.1329,-4.2194 -9.8447,-6.069 l -4.6879,-1.6183 c -5.1569,-1.7052 -5.1569,-1.7052 -6.8577,-3.1501 -2.0496,-1.4447 -3.2816,-4.4793 -3.2816,-7.6871 0,-5.9244 3.576,-9.9414 8.7328,-9.9414 7.6752,0 11.4256,8.3518 13.6815,18.4668 h 3.2815 v -24.2467 m 50.4261,36.4131 c 0.089,-21.6744 -7.8815,-36.9909 -19.309,-36.9909 -12.0125,0 -21.0078,16.0391 -21.0078,37.7134 0,20.345 8.5265,33.9567 21.1842,33.9567 8.9953,0 15.2941,-6.7915 19.1326,-20.5185 l -3.2816,-2.7455 c -3.8386,11.0974 -7.7934,15.4324 -14.064,15.4324 -4.7762,0 -8.2622,-3.0057 -10.6943,-9.508 -1.6707,-4.3349 -2.4322,-9.3923 -2.3439,-17.3396 h 30.3838 m -30.2957,-6.2422 c 0,-10.1148 3.0171,-24.5642 10.8986,-24.5642 5.6256,0 9.376,7.6871 9.376,19.3624 0,4.0748 -0.8495,5.2018 -3.8667,5.2018 h -16.4079"
     id="path98"
     style="stroke-width:2.32792" />
  <path
     class="StaffText"
     d="m 924.52555,413.38689 h -44.00423 v 3.97293 h 1.31791 c 4.22884,0.0774 5.63845,0.34174 6.21679,1.18346 0.43932,0.73567 0.43932,0.92084 0.43932,5.20689 v 40.06091 c 0,4.31467 0,4.47291 -0.43932,5.23551 -0.57834,0.84172 -1.98795,1.18346 -6.21679,1.18346 h -1.31791 v 3.946 h 25.35383 v -3.946 h -2.42725 c -4.22885,0 -5.61627,-0.34174 -6.2168,-1.18346 -0.43931,-0.7626 -0.43931,-1.0269 -0.43931,-5.23551 v -19.0953 h 1.47914 c 7.60422,-0.34343 10.35393,2.78778 10.65419,12.12585 h 3.4671 v -27.62027 h -3.4671 c -0.46149,8.26066 -3.32804,11.44237 -10.35393,11.54843 h -1.7794 v -19.20136 c -0.0695,-3.55206 0.67005,-4.13117 4.64596,-4.20861 h 3.41976 c 12.13334,-0.0791 15.16112,3.02346 17.44934,17.51791 h 3.25853 l -1.03983,-21.49084 m 33.99641,33.69581 c 0,-5.31295 -0.80909,-7.99636 -2.95827,-10.02154 -2.42578,-2.28948 -6.0541,-3.36689 -10.79324,-3.36689 -8.34232,0 -14.42155,4.44429 -14.42155,10.60065 0,3.10259 1.71135,5.12776 4.29984,5.12776 2.35626,0 3.9981,-1.76087 3.9981,-4.28605 0,-1.10602 -0.36978,-2.26254 -1.10936,-3.446 -0.46297,-0.60604 -0.53248,-0.7626 -0.53248,-1.18346 0,-1.68344 2.95827,-3.21032 6.51854,-3.21032 2.35626,0 4.94474,0.84171 6.12362,2.1043 1.40961,1.36864 1.9421,3.36688 1.9421,7.15463 v 3.28777 c -7.69594,1.52688 -10.14685,2.18342 -13.77517,3.78775 -6.42388,2.71034 -9.45167,6.57721 -9.45167,11.96928 0,6.05029 4.13714,9.83804 10.72372,9.83804 5.10744,0 9.68389,-2.3686 12.87291,-6.65633 1.17886,4.28773 3.02778,5.97118 6.49339,5.97118 3.32805,0 6.8188,-2.41911 6.8188,-4.86516 0,-0.60604 -0.30026,-1.02689 -0.73956,-1.02689 -0.30026,0 -0.60054,0.10604 -1.10935,0.34173 -1.03984,0.49998 -1.47914,0.60604 -2.07967,0.60604 -2.08113,0 -2.8207,-1.5252 -2.8207,-5.81293 V 447.0827 m -6.9327,10.25891 c 0,5.05033 -0.23075,6.23379 -1.47914,8.41721 -1.84892,3.1026 -5.17696,5.2069 -8.43549,5.2069 -3.39757,0 -5.84702,-2.76085 -5.84702,-6.5486 0,-3.55207 1.54718,-6.07723 4.80718,-7.83979 2.28674,-1.18347 5.17697,-2.02519 10.95447,-3.1026 v 3.86688 m 63.27884,17.41186 12.8729,-0.57742 v -3.6312 h -1.3401 c -4.2067,-0.23568 -4.5765,-0.73566 -4.5765,-6.12773 v -52.29281 l -14.491,0.94777 v 3.60258 h 4.3457 c 2.8192,0.0791 3.189,0.60604 3.189,4.20861 v 19.04479 c -2.7275,-4.31466 -5.9166,-6.23379 -10.2149,-6.23379 -8.34382,0 -14.69966,9.17982 -14.69966,21.27873 0,11.96929 6.1251,20.46562 14.69966,20.46562 4.6681,0 7.8571,-2.26254 10.2149,-7.31287 v 6.62772 m -8.7358,-36.50885 c 3.05,0 5.9165,2.52517 7.2566,6.39203 0.9704,2.52517 1.4097,5.97118 1.4097,10.10067 0,9.83636 -3.3976,16.14927 -8.7358,16.14927 -5.2465,0 -8.34381,-5.54862 -8.34381,-14.88669 0,-5.05033 0.43932,-8.83808 1.38743,-11.62755 1.27058,-3.78775 3.99808,-6.12773 7.02588,-6.12773 m 34.8292,-24.25169 c -2.3814,0 -4.2999,2.18175 -4.2999,4.86515 0,2.71035 1.9185,4.89209 4.2304,4.89209 2.4257,0 4.3442,-2.18174 4.3442,-4.89209 0,-2.6834 -1.9185,-4.86515 -4.2747,-4.86515 m 3.4656,20.96393 -13.8891,0.92084 v 3.62951 h 3.7674 c 2.7955,0.0791 3.1653,0.57909 3.1653,4.2086 v 24.0682 c -0.07,1.26258 -0.1375,1.76256 -0.4393,2.18343 -0.5073,0.7626 -1.9169,1.10434 -5.1074,1.18345 h -0.5074 v 3.02516 h 19.1592 v -3.02516 h -0.5324 c -4.9448,-0.18517 -5.6163,-0.60604 -5.6163,-3.63118 v -32.56285 m 32.8885,-5.81294 -10.3539,-11.7841 c -1.8489,-2.10431 -2.5885,-2.60429 -3.6978,-2.60429 -1.4792,0 -2.5885,1.26258 -2.5885,2.94603 0,1.15652 0.7395,2.41911 1.8489,3.26083 l 11.7635,8.18153 h 3.0278 m 9.5449,26.09339 c 0.07,-12.62583 -6.2168,-21.54304 -15.2307,-21.54304 -9.4753,0 -16.5707,9.33806 -16.5707,21.96389 0,11.86155 6.7256,19.78046 16.7098,19.78046 7.0954,0 12.0638,-3.94599 15.0916,-11.94234 l -2.5885,-1.60432 c -3.0278,6.46946 -6.1473,8.99463 -11.0935,8.99463 -3.7674,0 -6.5171,-1.76087 -8.4355,-5.54862 -1.3179,-2.52518 -1.9184,-5.4712 -1.8489,-10.10066 h 23.9664 m -23.8969,-3.6312 c 0,-5.89205 2.3799,-14.30926 8.5967,-14.30926 4.4374,0 7.3957,4.4729 7.3957,11.28411 0,2.36861 -0.6701,3.02515 -3.05,3.02515 h -12.9424 m 55.3048,-17.5701 h -2.5885 l -2.1492,3.02515 c -2.658,-2.36861 -5.316,-3.36689 -9.0138,-3.36689 -6.5171,0 -10.7918,4.78603 -10.7918,12.20497 0,7.91723 4.5055,9.91548 10.422,11.5198 l 3.9064,1.02691 c 5.847,1.57739 7.9267,3.26082 7.9267,6.62772 0,3.97292 -3.0263,6.73377 -7.3262,6.73377 -6.2863,0 -10.7237,-4.52341 -12.5031,-12.94064 h -2.9583 v 15.88667 h 2.5885 l 2.5885,-3.44602 c 3.0278,2.78947 6.3558,4.13117 10.1469,4.13117 7.2329,0 12.0401,-5.12945 12.0401,-12.96925 0,-3.70862 -1.0398,-6.54859 -3.0973,-8.49466 -1.7794,-1.76256 -3.2585,-2.44772 -7.7654,-3.52512 l -3.6979,-0.94778 c -4.0676,-0.99828 -4.0676,-0.99828 -5.4077,-1.84 -1.6182,-0.84173 -2.5885,-2.60429 -2.5885,-4.47291 0,-3.44602 2.8193,-5.78601 6.8869,-5.78601 6.0555,0 9.0138,4.86516 10.7932,10.75721 h 2.5885 v -14.12409 m 39.7754,21.2013 c 0.07,-12.62583 -6.2168,-21.54304 -15.2307,-21.54304 -9.4753,0 -16.5707,9.33806 -16.5707,21.96389 0,11.86155 6.7256,19.78046 16.7098,19.78046 7.0954,0 12.0638,-3.94599 15.0916,-11.94234 l -2.5885,-1.60432 c -3.0278,6.46946 -6.1473,8.99463 -11.0935,8.99463 -3.7674,0 -6.5171,-1.76087 -8.4355,-5.54862 -1.3179,-2.52518 -1.9184,-5.4712 -1.8489,-10.10066 h 23.9664 m -23.8969,-3.6312 c 0,-5.89205 2.3799,-14.30926 8.5967,-14.30926 4.4374,0 7.3957,4.4729 7.3957,11.28411 0,2.36861 -0.6701,3.02515 -3.05,3.02515 h -12.9424"
     id="path100"
     style="stroke-width:1.57799" />
  <path
     class="StaffText"
     d="m 2755.3638,2220.8992 h 31.4977 c 8.3503,0 14.7372,-2.0518 19.6896,-6.3867 9.4641,-8.2075 14.7373,-24.68 14.7373,-46.3545 0,-19.9693 -4.6881,-35.546 -13.3309,-44.2159 -5.1567,-5.0572 -12.1007,-7.398 -22.7949,-7.398 h -29.7988 v 6.8202 h 1.787 c 5.245,0.115 7.0321,0.5778 7.7652,2.0229 0.557,1.2715 0.557,1.5895 0.557,8.9298 v 68.7803 c 0,7.3982 0,7.6872 -0.557,8.9876 -0.7331,1.4449 -2.5202,1.8496 -7.7652,2.0229 h -1.787 v 6.7914 m 25.9603,-6.7914 c -4.7762,0 -5.3331,-0.8957 -5.3331,-7.9471 v -74.7336 c 0,-7.0802 0.6451,-8.0628 5.3331,-8.0628 h 4.8924 c 16.0273,0 22.6787,13.4092 22.6787,45.3718 0,32.3671 -6.0063,45.3717 -21.1842,45.3717 h -6.3869 m 68.0341,-62.7113 c -11.5157,0 -20.4228,15.7502 -20.4228,35.9796 0,19.7959 8.9954,35.6906 20.2466,35.6906 11.2511,0 20.2465,-15.8947 20.2465,-35.8639 0,-19.7672 -8.9954,-35.8063 -20.0703,-35.8063 m 0,6.1845 c 6.5632,0 10.2254,10.577 10.2254,29.6218 0,19.2468 -3.6622,29.6215 -10.4016,29.6215 -6.7377,0 -10.4018,-10.3747 -10.4018,-29.4482 0,-19.6804 3.546,-29.7951 10.578,-29.7951"
     id="path102"
     style="stroke-width:2.32792" />
  <path
     class="StaffText"
     d="m 2671.2713,491.15642 h 24.8495 c 6.5821,0 11.6259,-1.18514 15.5308,-3.7103 7.4696,-4.78604 11.6261,-14.38671 11.6261,-27.01254 0,-11.62755 -3.6979,-20.70131 -10.5167,-25.75165 -4.0676,-2.94602 -9.5404,-4.31466 -17.9863,-4.31466 h -23.5034 v 3.97293 h 1.4199 c 4.1269,0.0774 5.5468,0.34173 6.1237,1.18346 0.429,0.73566 0.429,0.92085 0.429,5.2069 v 40.0609 c 0,4.31467 0,4.47291 -0.429,5.23551 -0.5769,0.84172 -1.9968,1.0774 -6.1237,1.18346 h -1.4199 v 3.94599 m 20.4859,-3.94599 c -3.7717,0 -4.2154,-0.52691 -4.2154,-4.62947 v -43.53385 c 0,-4.12949 0.5177,-4.70691 4.2154,-4.70691 h 3.8606 c 12.6318,0 17.8827,7.81118 17.8827,26.43512 0,18.85961 -4.7332,26.43511 -16.7142,26.43511 h -5.0291 m 53.6631,-36.53577 c -9.0819,0 -16.1078,9.17981 -16.1078,20.96392 0,11.52149 7.0851,20.78042 15.9598,20.78042 8.8749,0 15.9747,-9.25893 15.9747,-20.88648 0,-11.5198 -7.0998,-20.85786 -15.8267,-20.85786 m 0,3.60256 c 5.177,0 8.0612,6.15636 8.0612,17.2553 0,11.20669 -2.8842,17.2553 -8.2092,17.2553 -5.3101,0 -8.1943,-6.04861 -8.1943,-17.14924 0,-11.4693 2.7955,-17.36136 8.3423,-17.36136 m 66.9751,37.45663 12.8685,-0.57743 v -3.63118 h -1.3313 c -4.2154,-0.23568 -4.5853,-0.73566 -4.5853,-6.12774 v -52.29281 l -14.4807,0.94778 v 3.60257 h 4.3339 c 2.8251,0.0791 3.1949,0.60604 3.1949,4.2086 v 19.0448 c -2.7216,-4.31466 -5.9165,-6.23378 -10.2208,-6.23378 -8.3423,0 -14.6878,9.17981 -14.6878,21.27872 0,11.96928 6.1236,20.46562 14.6878,20.46562 4.6741,0 7.869,-2.26254 10.2208,-7.31287 v 6.62772 m -8.7417,-36.50884 c 3.0619,0 5.9165,2.52516 7.2626,6.39203 0.9763,2.52516 1.4051,5.97117 1.4051,10.10066 0,9.83636 -3.3872,16.14927 -8.7269,16.14927 -5.2508,0 -8.3423,-5.54863 -8.3423,-14.88669 0,-5.05033 0.429,-8.83808 1.3757,-11.62754 1.272,-3.78775 4.0084,-6.12773 7.0258,-6.12773 m 34.8336,-24.2517 c -2.3813,0 -4.3043,2.18175 -4.3043,4.86516 0,2.71034 1.923,4.89209 4.2304,4.89209 2.4257,0 4.3487,-2.18175 4.3487,-4.89209 0,-2.68341 -1.923,-4.86516 -4.2748,-4.86516 m 3.4612,20.96393 -13.8891,0.92084 v 3.62951 h 3.7719 c 2.7955,0.0791 3.1653,0.5791 3.1653,4.2086 v 24.0682 c -0.074,1.26258 -0.1331,1.76256 -0.4437,2.18343 -0.503,0.76259 -1.9081,1.10434 -5.103,1.18346 h -0.503 v 3.02514 h 19.1548 v -3.02514 h -0.5325 c -4.9403,-0.18518 -5.6207,-0.60604 -5.6207,-3.63119 v -32.56285 m 32.8959,-5.81293 -10.3539,-11.78411 c -1.8489,-2.1043 -2.5885,-2.60429 -3.6978,-2.60429 -1.4791,0 -2.5885,1.26259 -2.5885,2.94602 0,1.15654 0.7395,2.41912 1.8489,3.26084 l 11.7591,8.18154 h 3.0322 m 9.5404,26.09337 c 0.074,-12.62583 -6.2124,-21.54302 -15.2351,-21.54302 -9.4664,0 -16.5662,9.33806 -16.5662,21.96388 0,11.86155 6.7301,19.78046 16.7142,19.78046 7.0851,0 12.0549,-3.94599 15.0871,-11.94234 l -2.5885,-1.60433 c -3.0322,6.46948 -6.1531,8.99464 -11.0935,8.99464 -3.7717,0 -6.5229,-1.76088 -8.431,-5.54863 -1.3164,-2.52516 -1.9228,-5.47118 -1.849,-10.10066 h 23.962 m -23.9027,-3.63119 c 0,-5.89205 2.3814,-14.30927 8.6085,-14.30927 4.4374,0 7.3957,4.47291 7.3957,11.28413 0,2.3686 -0.6804,3.02514 -3.0619,3.02514 h -12.9423 m 55.3196,-17.5701 h -2.5885 l -2.1596,3.02515 c -2.6476,-2.3686 -5.31,-3.36688 -9.0079,-3.36688 -6.5229,0 -10.7977,4.78603 -10.7977,12.20496 0,7.91723 4.5113,9.91549 10.4279,11.51981 l 3.905,1.0269 c 5.8425,1.57738 7.928,3.26083 7.928,6.62771 0,3.97293 -3.0322,6.73378 -7.3216,6.73378 -6.2864,0 -10.7237,-4.52341 -12.5135,-12.94063 h -2.9583 v 15.88666 h 2.5885 l 2.5885,-3.44601 c 3.0323,2.78947 6.3603,4.13116 10.1468,4.13116 7.2331,0 12.0402,-5.12944 12.0402,-12.96924 0,-3.70863 -1.0354,-6.54859 -3.0913,-8.49466 -1.775,-1.76257 -3.2542,-2.44772 -7.7655,-3.52513 l -3.6979,-0.94778 c -4.0676,-0.99828 -4.0676,-0.99828 -5.4136,-1.84001 -1.6122,-0.84172 -2.5884,-2.60428 -2.5884,-4.4729 0,-3.44601 2.825,-5.786 6.8927,-5.786 6.0496,0 9.0079,4.86515 10.7977,10.7572 h 2.5885 v -14.12409 m 39.7738,21.20129 c 0.059,-12.62583 -6.2271,-21.54302 -15.2351,-21.54302 -9.4811,0 -16.5662,9.33806 -16.5662,21.96388 0,11.86155 6.7152,19.78046 16.6994,19.78046 7.0999,0 12.0697,-3.94599 15.1019,-11.94234 l -2.5885,-1.60433 c -3.0322,6.46948 -6.1531,8.99464 -11.0935,8.99464 -3.7717,0 -6.5229,-1.76088 -8.4458,-5.54863 -1.3165,-2.52516 -1.908,-5.47118 -1.8489,-10.10066 h 23.9767 m -23.9027,-3.63119 c 0,-5.89205 2.3814,-14.30927 8.5937,-14.30927 4.4375,0 7.3957,4.47291 7.3957,11.28413 0,2.3686 -0.6656,3.02514 -3.0471,3.02514 h -12.9423"
     id="path104"
     style="stroke-width:1.57799" />
  <path
     class="NoteDot"
     d="m 3065.8887,2376.9442 c 0,8.0181 4.0982,14.3339 9.301,14.3339 5.2027,0 9.301,-6.3158 9.301,-14.3339 0,-8.018 -4.0983,-14.334 -9.301,-14.334 -5.2028,0 -9.301,6.316 -9.301,14.334"
     id="path106"
     style="stroke-width:2.30929" />
  <metadata
     id="metadata950">
    <rdf:RDF>
      <cc:Work
         rdf:about="">
        <dc:title>Partition sans titre</dc:title>
      </cc:Work>
    </rdf:RDF>
  </metadata>
  <path
     style="fill:#000000;stroke:#000000;stroke-width:8.00787398;paint-order:stroke fill markers;stroke-opacity:1;stroke-dasharray:none"
     d="m 1686.2966,1995.831 -339.1814,311.6334 z"
     id="path435" />
  <path
     style="fill:#000000;stroke:#000000;stroke-width:8.00786;stroke-dasharray:none;stroke-opacity:1;paint-order:stroke fill markers"
     d="m 1349.9598,2302.5623 c 3.6513,-8.542 12.6979,-62.3763 12.6979,-62.3763 z"
     id="path1394" />
  <path
     style="fill:#000000;stroke:#000000;stroke-width:8.00786;stroke-dasharray:none;stroke-opacity:1;paint-order:stroke fill markers"
     d="m 1352.877,2303.2398 c 5.3069,-2.0021 55.2548,7.6017 55.2548,7.6017 z"
     id="path1408" />
  <path
     style="fill:#000000;stroke:#000000;stroke-width:8.00786;stroke-dasharray:none;stroke-opacity:1;paint-order:stroke fill markers"
     d="m 1768.4568,1998.432 0.2235,310.2651 z"
     id="path1428" />
  <path
     style="fill:#000000;stroke:#000000;stroke-width:8.00786;stroke-dasharray:none;stroke-opacity:1;paint-order:stroke fill markers"
     d="m 1768.0621,2308.806 c -6.0102,-6.7001 -24.5133,-47.7159 -24.5133,-47.7159 z"
     id="path1436" />
  <path
     style="fill:#000000;stroke:#000000;stroke-width:8.00786;stroke-dasharray:none;stroke-opacity:1;paint-order:stroke fill markers"
     d="m 1766.6169,2306.0252 23.2297,-43.8381 z"
     id="path1444" />
  <path
     style="fill:#000000;stroke:#000000;stroke-width:8.00786;stroke-dasharray:none;stroke-opacity:1;paint-order:stroke fill markers"
     d="m 1845.413,2000.5102 337.6169,321.9442 z"
     id="path1511" />
  <path
     style="fill:#000000;stroke:#000000;stroke-width:8.00786;stroke-dasharray:none;stroke-opacity:1;paint-order:stroke fill markers"
     d="m 2181.9065,2320.8873 c 2.0514,-12.8718 -14.0063,-45.6064 -14.0063,-45.6064 z"
     id="path1513" />
  <path
     style="fill:#000000;stroke:#000000;stroke-width:8.00786;stroke-dasharray:none;stroke-opacity:1;paint-order:stroke fill markers"
     d="m 2177.7986,2322.44 -39.7216,-7.6213 z"
     id="path1515" />
</svg>
